<svg xmlns="http://www.w3.org/2000/svg" xmlns:xlink="http://www.w3.org/1999/xlink" viewBox="0 0 512 512" width="512" height="512" style="width: 100%; height: 100%; transform: translate3d(0,0,0);" preserveAspectRatio="xMidYMid meet"><defs><clipPath id="__lottie_element_22303"><rect width="512" height="512" x="0" y="0"/></clipPath><linearGradient id="__lottie_element_22316" spreadMethod="pad" gradientUnits="userSpaceOnUse" x1="-156" y1="1" x2="157" y2="0"><stop offset="0%" stop-color="rgb(0,0,0)"/><stop offset="25%" stop-color="rgb(0,0,0)"/><stop offset="50%" stop-color="rgb(0,0,0)"/><stop offset="75%" stop-color="rgb(0,0,0)"/><stop offset="100%" stop-color="rgb(0,0,0)"/></linearGradient><mask id="__lottie_element_22318"><path fill="url(#__lottie_element_22317)" d=" M-0.25,-146.5 C-45.073001861572266,-132.4250030517578 -80.25,-122.75 -155.75,-145.75 C-156,-65.25 -156.156005859375,73.75 -155.406005859375,145.75 C-107.5,161.5 -61.25,167 0.375,145.5 C28.500999450683594,135.68699645996094 51.44599914550781,130.78700256347656 73.83300018310547,130.26699829101562 C99.33499908447266,129.6739959716797 124.11399841308594,134.76499938964844 155,144.75 C155.1179962158203,134.7010040283203 155.20700073242188,102.55599975585938 155.2790069580078,81.20600128173828 C155.41400146484375,41.30500030517578 155.48599243164062,-0.7829999923706055 155.5590057373047,-51.185001373291016 C155.61300659179688,-88.54900360107422 155.66900634765625,-121.11299896240234 155.75,-146.18800354003906 C92.75,-169.43800354003906 51.5,-162.75 -0.25,-146.5z"/></mask><linearGradient id="__lottie_element_22317" spreadMethod="pad" gradientUnits="userSpaceOnUse" x1="-156" y1="1" x2="157" y2="0"><stop stop-color="rgb(255,255,255)" offset="0%" stop-opacity="1"/><stop stop-color="rgb(255,255,255)" offset="17%" stop-opacity="0.5"/><stop stop-color="rgb(255,255,255)" offset="33%" stop-opacity="0"/><stop stop-color="rgb(255,255,255)" offset="50%" stop-opacity="0"/><stop stop-color="rgb(255,255,255)" offset="66%" stop-opacity="0"/><stop stop-color="rgb(255,255,255)" offset="83%" stop-opacity="0.5"/><stop stop-color="rgb(255,255,255)" offset="100%" stop-opacity="1"/></linearGradient></defs><g clip-path="url(#__lottie_element_22303)"><g style="display: block;" transform="matrix(0.800000011920929,0,0,0.800000011920929,254,251)" opacity="1"><g opacity="1" transform="matrix(1,0,0,1,0,0)"><path stroke-linecap="butt" stroke-linejoin="miter" fill-opacity="0" stroke-miterlimit="4" stroke="rgb(0,107,255)" stroke-opacity="1" stroke-width="2" d=" M-0.25,-146.5 C-45.073001861572266,-132.4250030517578 -80.25,-122.75 -155.75,-145.75 C-156,-65.25 -156.156005859375,73.75 -155.406005859375,145.75 C-107.5,161.5 -61.25,167 0.375,145.5 C28.500999450683594,135.68699645996094 51.5,-162.75 -0.25,-146.5z"/><path fill="rgb(255,224,57)" fill-opacity="1" d=" M-0.25,-146.5 C-45.073001861572266,-132.4250030517578 -80.25,-122.75 -155.75,-145.75 C-156,-65.25 -156.156005859375,73.75 -155.406005859375,145.75 C-107.5,161.5 -61.25,167 0.375,145.5 C28.500999450683594,135.68699645996094 51.5,-162.75 -0.25,-146.5z"/></g><g opacity="1" transform="matrix(1,0,0,1,0,0)"><path fill="rgb(242,242,242)" fill-opacity="1" d=" M-0.25,-146.5 C0.14900000393390656,-126.86000061035156 0.2680000066757202,-95.59500122070312 0.27300000190734863,-60.340999603271484 C0.2800000011920929,-14.222999572753906 0.09200000017881393,38.72200012207031 0.08399999886751175,81.39600372314453 C0.07900000363588333,108.25199890136719 0.14499999582767487,131.0399932861328 0.375,145.5 C28.500999450683594,135.68699645996094 51.44599914550781,130.78700256347656 73.83300018310547,130.26699829101562 C99.33499908447266,129.6739959716797 124.11399841308594,134.76499938964844 155,144.75 C155.1179962158203,134.7010040283203 155.20700073242188,102.55599975585938 155.2790069580078,81.20600128173828 C155.41400146484375,41.30500030517578 155.48599243164062,-0.7829999923706055 155.5590057373047,-51.185001373291016 C155.61300659179688,-88.54900360107422 155.66900634765625,-121.11299896240234 155.75,-146.18800354003906 C92.75,-169.43800354003906 51.5,-162.75 -0.25,-146.5z"/></g></g><g style="display: block;" transform="matrix(0.800000011920929,0,0,0.800000011920929,128.65359497070312,30.008785247802734)" opacity="1"><g opacity="1" transform="matrix(1,0,0,1,234.9510040283203,197.4239959716797)"><path stroke-linecap="round" stroke-linejoin="round" fill-opacity="0" stroke="rgb(248,184,0)" stroke-opacity="1" stroke-width="2.5" d=" M0.09799999743700027,-20.322999954223633 C0.09799999743700027,-20.322999954223633 0.13099999725818634,-12.197999954223633 0.13099999725818634,-12.197999954223633"/></g><g opacity="1" transform="matrix(1,0,0,1,234.9510040283203,196.7449951171875)"><path stroke-linecap="round" stroke-linejoin="round" fill-opacity="0" stroke="rgb(248,184,0)" stroke-opacity="1" stroke-width="2.5" d=" M-2.992000102996826,-16.312000274658203 C-2.992000102996826,-16.312000274658203 3.253999948501587,-16.12700080871582 3.253999948501587,-16.12700080871582"/></g><g opacity="1" transform="matrix(1,0,0,1,235.01600646972656,205.1490020751953)"><path fill="rgb(242,242,242)" fill-opacity="1" d=" M12.479999542236328,-7.758999824523926 C12.479999542236328,-7.758999824523926 1.9199999570846558,-19.64299964904785 -0.06499999761581421,-20.086999893188477 C-2.325000047683716,-18.89699935913086 -11.694000244140625,-8.107999801635742 -11.694000244140625,-8.107999801635742 C-11.694000244140625,-8.107999801635742 12.479999542236328,-7.758999824523926 12.479999542236328,-7.758999824523926z"/><path stroke-linecap="butt" stroke-linejoin="miter" fill-opacity="0" stroke-miterlimit="10" stroke="rgb(0,0,0)" stroke-opacity="1" stroke-width="0.5" d=" M12.479999542236328,-7.758999824523926 C12.479999542236328,-7.758999824523926 1.9199999570846558,-19.64299964904785 -0.06499999761581421,-20.086999893188477 C-2.325000047683716,-18.89699935913086 -11.694000244140625,-8.107999801635742 -11.694000244140625,-8.107999801635742 C-11.694000244140625,-8.107999801635742 12.479999542236328,-7.758999824523926 12.479999542236328,-7.758999824523926z"/></g><g opacity="1" transform="matrix(1,0,0,1,0,0)"><g opacity="1" transform="matrix(1,0,0,1,234.9510040283203,211.34500122070312)"><path fill="rgb(248,184,0)" fill-opacity="1" d=" M21.204999923706055,-14.656999588012695 C20.176000595092773,-16 13.918999671936035,-13.694000244140625 13.84000015258789,-13.711999893188477 C13.456999778747559,-14.538999557495117 11.310999870300293,-19.55900001525879 10.487000465393066,-19.59600067138672 C9.61400032043457,-19.635000228881836 5.247000217437744,-14.994999885559082 5.232999801635742,-14.996000289916992 C5.050000190734863,-15.289999961853027 1.597000002861023,-20.798999786376953 0.0020000000949949026,-20.87700080871582 C-1.6360000371932983,-20.797000885009766 -5.0289998054504395,-15.07699966430664 -5.0289998054504395,-15.07699966430664 C-5.0289998054504395,-15.07699966430664 -9.255000114440918,-19.69099998474121 -10.156000137329102,-19.650999069213867 C-11.057000160217285,-19.611000061035156 -13.61400032043457,-13.361000061035156 -13.61400032043457,-13.361000061035156 C-13.61400032043457,-13.361000061035156 -21.104000091552734,-16.27899932861328 -20.940000534057617,-14.557999610900879 C-20.80699920654297,-13.163000106811523 -17.68199920654297,-10.029999732971191 -16.32200050354004,-8.545999526977539 C-16.32200050354004,-8.545999526977539 -12.446000099182129,25.86199951171875 -12.446000099182129,25.86199951171875 C-8.017999649047852,25.893999099731445 8.732000350952148,26.018999099731445 12.92199993133545,25.680999755859375 C12.92199993133545,25.680999755859375 16.726999282836914,-8.890999794006348 16.726999282836914,-8.890999794006348 C18.312000274658203,-10.652999877929688 21.965999603271484,-13.663000106811523 21.204999923706055,-14.656999588012695z"/><path stroke-linecap="butt" stroke-linejoin="miter" fill-opacity="0" stroke-miterlimit="10" stroke="rgb(0,0,0)" stroke-opacity="1" stroke-width="0.5" d=" M21.204999923706055,-14.656999588012695 C20.176000595092773,-16 13.918999671936035,-13.694000244140625 13.84000015258789,-13.711999893188477 C13.456999778747559,-14.538999557495117 11.310999870300293,-19.55900001525879 10.487000465393066,-19.59600067138672 C9.61400032043457,-19.635000228881836 5.247000217437744,-14.994999885559082 5.232999801635742,-14.996000289916992 C5.050000190734863,-15.289999961853027 1.597000002861023,-20.798999786376953 0.0020000000949949026,-20.87700080871582 C-1.6360000371932983,-20.797000885009766 -5.0289998054504395,-15.07699966430664 -5.0289998054504395,-15.07699966430664 C-5.0289998054504395,-15.07699966430664 -9.255000114440918,-19.69099998474121 -10.156000137329102,-19.650999069213867 C-11.057000160217285,-19.611000061035156 -13.61400032043457,-13.361000061035156 -13.61400032043457,-13.361000061035156 C-13.61400032043457,-13.361000061035156 -21.104000091552734,-16.27899932861328 -20.940000534057617,-14.557999610900879 C-20.80699920654297,-13.163000106811523 -17.68199920654297,-10.029999732971191 -16.32200050354004,-8.545999526977539 C-16.32200050354004,-8.545999526977539 -12.446000099182129,25.86199951171875 -12.446000099182129,25.86199951171875 C-8.017999649047852,25.893999099731445 8.732000350952148,26.018999099731445 12.92199993133545,25.680999755859375 C12.92199993133545,25.680999755859375 16.726999282836914,-8.890999794006348 16.726999282836914,-8.890999794006348 C18.312000274658203,-10.652999877929688 21.965999603271484,-13.663000106811523 21.204999923706055,-14.656999588012695z"/></g></g><g opacity="1" transform="matrix(1,0,0,1,235.03599548339844,241.76600646972656)"><path fill="rgb(178,0,42)" fill-opacity="1" d=" M13.104999542236328,-4.507999897003174 C13.104999542236328,-3.25600004196167 7.218999862670898,-2.240999937057495 0.026000000536441803,-2.240999937057495 C-7.166999816894531,-2.240999937057495 -12.67199993133545,-3.125 -12.67199993133545,-4.376999855041504 C-12.67199993133545,-5.629000186920166 -7.166999816894531,-6.776000022888184 0.026000000536441803,-6.776000022888184 C7.218999862670898,-6.776000022888184 13.104999542236328,-5.760000228881836 13.104999542236328,-4.507999897003174z"/></g><g opacity="1" transform="matrix(1,0,0,1,235.14300537109375,241.6510009765625)"><path fill="rgb(242,242,242)" fill-opacity="1" d=" M-14.119999885559082,-17.17300033569336 C-13.866000175476074,-15.661999702453613 -13.661999702453613,-13.145999908447266 -13.329000473022461,-11.706000328063965 C-4.021999835968018,-15.067999839782715 4.697000026702881,-14.036999702453613 13.454000473022461,-11.666000366210938 C13.696999549865723,-13.411999702453613 13.916000366210938,-15.645999908447266 14.10099983215332,-17.799999237060547 C6.978000164031982,-20.145999908447266 -7.084000110626221,-21.03700065612793 -14.119999885559082,-17.17300033569336z"/><path stroke-linecap="butt" stroke-linejoin="miter" fill-opacity="0" stroke-miterlimit="10" stroke="rgb(0,0,0)" stroke-opacity="1" stroke-width="0.5" d=" M-14.119999885559082,-17.17300033569336 C-13.866000175476074,-15.661999702453613 -13.661999702453613,-13.145999908447266 -13.329000473022461,-11.706000328063965 C-4.021999835968018,-15.067999839782715 4.697000026702881,-14.036999702453613 13.454000473022461,-11.666000366210938 C13.696999549865723,-13.411999702453613 13.916000366210938,-15.645999908447266 14.10099983215332,-17.799999237060547 C6.978000164031982,-20.145999908447266 -7.084000110626221,-21.03700065612793 -14.119999885559082,-17.17300033569336z"/></g><g opacity="1" transform="matrix(1,0,0,1,235.14300537109375,225.4010009765625)"><path fill="rgb(242,242,242)" fill-opacity="1" d=" M-15.807999610900879,-16.54800033569336 C-15.553999900817871,-15.036999702453613 -15.428000450134277,-11.583999633789062 -15.095000267028809,-10.144000053405762 C-4.460000038146973,-14.600000381469727 5.914999961853027,-13.600000381469727 15.109999656677246,-10.291000366210938 C15.352999687194824,-12.036999702453613 15.666000366210938,-15.286999702453613 15.85099983215332,-17.44099998474121 C8.727999687194824,-19.78700065612793 -5.428999900817871,-22.975000381469727 -15.807999610900879,-16.54800033569336z"/><path stroke-linecap="butt" stroke-linejoin="miter" fill-opacity="0" stroke-miterlimit="10" stroke="rgb(0,0,0)" stroke-opacity="1" stroke-width="0.5" d=" M-15.807999610900879,-16.54800033569336 C-15.553999900817871,-15.036999702453613 -15.428000450134277,-11.583999633789062 -15.095000267028809,-10.144000053405762 C-4.460000038146973,-14.600000381469727 5.914999961853027,-13.600000381469727 15.109999656677246,-10.291000366210938 C15.352999687194824,-12.036999702453613 15.666000366210938,-15.286999702453613 15.85099983215332,-17.44099998474121 C8.727999687194824,-19.78700065612793 -5.428999900817871,-22.975000381469727 -15.807999610900879,-16.54800033569336z"/></g><g opacity="1" transform="matrix(1,0,0,1,229.38299560546875,244.79299926757812)"><path fill="rgb(242,242,242)" fill-opacity="1" d=" M-6.755000114440918,-1.8730000257492065 C-5.797999858856201,-3.319000005722046 -3.569999933242798,-7.486999988555908 -3.119999885559082,-9.130999565124512 C-3.119999885559082,-9.130999565124512 1.430999994277954,-9.795999526977539 3.9509999752044678,-9.803999900817871 C3.9509999752044678,-9.803999900817871 3.440999984741211,-3.260999917984009 -1.7410000562667847,2.4170000553131104"/><path stroke-linecap="round" stroke-linejoin="round" fill-opacity="0" stroke="rgb(248,184,0)" stroke-opacity="1" stroke-width="1" d=" M-6.755000114440918,-1.8730000257492065 C-5.797999858856201,-3.319000005722046 -3.569999933242798,-7.486999988555908 -3.119999885559082,-9.130999565124512 C-3.119999885559082,-9.130999565124512 1.430999994277954,-9.795999526977539 3.9509999752044678,-9.803999900817871 C3.9509999752044678,-9.803999900817871 3.440999984741211,-3.260999917984009 -1.7410000562667847,2.4170000553131104"/></g><g opacity="1" transform="matrix(1,0,0,1,240.85899353027344,244.81199645996094)"><path fill="rgb(242,242,242)" fill-opacity="1" d=" M7.440999984741211,-1.7209999561309814 C6.019000053405762,-3.2360000610351562 3.806999921798706,-7.573999881744385 3.3399999141693115,-9.279999732971191 C3.3399999141693115,-9.279999732971191 -1.0479999780654907,-9.803999900817871 -3.568000078201294,-9.812000274658203 C-3.568000078201294,-9.812000274658203 -3.4079999923706055,-3.1480000019073486 2.0309998989105225,2.8289999961853027"/><path stroke-linecap="round" stroke-linejoin="round" fill-opacity="0" stroke="rgb(248,184,0)" stroke-opacity="1" stroke-width="1" d=" M7.440999984741211,-1.7209999561309814 C6.019000053405762,-3.2360000610351562 3.806999921798706,-7.573999881744385 3.3399999141693115,-9.279999732971191 C3.3399999141693115,-9.279999732971191 -1.0479999780654907,-9.803999900817871 -3.568000078201294,-9.812000274658203 C-3.568000078201294,-9.812000274658203 -3.4079999923706055,-3.1480000019073486 2.0309998989105225,2.8289999961853027"/></g><g opacity="1" transform="matrix(1,0,0,1,227.9980010986328,276.9360046386719)"><path stroke-linecap="round" stroke-linejoin="round" fill-opacity="0" stroke="rgb(184,16,16)" stroke-opacity="1" stroke-width="2.5" d=" M25.559999465942383,28.333999633789062 C5.434999942779541,14.708999633789062 6.925000190734863,-15.038000106811523 6.925000190734863,-15.038000106811523 C6.925000190734863,-15.038000106811523 8.623000144958496,12.519000053405762 -9.880999565124512,26.33099937438965"/></g><g opacity="1" transform="matrix(1,0,0,1,250.58799743652344,248.65899658203125)"><g opacity="1" transform="matrix(1,0,0,1,0,0)"><path fill="rgb(248,184,0)" fill-opacity="1" d=" M33.310001373291016,6.189000129699707 C33.310001373291016,6.189000129699707 42.38199996948242,-0.6129999756813049 42.38199996948242,-0.6129999756813049 C42.38199996948242,-0.6129999756813049 26.56399917602539,-21.5049991607666 26.56399917602539,-21.5049991607666 C26.56399917602539,-21.5049991607666 30.905000686645508,-24.773000717163086 30.905000686645508,-24.773000717163086 C30.905000686645508,-24.773000717163086 28.368999481201172,-28.599000930786133 27.187000274658203,-30.20199966430664 C-6.546999931335449,-5.815999984741211 -37.40599822998047,27.253000259399414 -37.40599822998047,27.253000259399414 C-37.40599822998047,27.253000259399414 -31.19099998474121,31.947999954223633 -31.19099998474121,31.947999954223633 C-31.19099998474121,31.947999954223633 -17.110000610351562,16.966999053955078 -8.045999526977539,10.317999839782715 C-7.85699987411499,10.157999992370605 -10.062999725341797,8.336000442504883 -10.062999725341797,8.336000442504883 C-10.062999725341797,8.336000442504883 4.919000148773193,-5.084000110626221 4.919000148773193,-5.084000110626221 C4.919000148773193,-5.084000110626221 21.604999542236328,14.758999824523926 21.604999542236328,14.758999824523926 C21.604999542236328,14.758999824523926 30.98200035095215,7.8470001220703125 30.98200035095215,7.8470001220703125 C30.98200035095215,7.8470001220703125 14.72599983215332,-12.633999824523926 14.72599983215332,-12.633999824523926 C14.72599983215332,-12.633999824523926 17.104999542236328,-14.479000091552734 17.104999542236328,-14.479000091552734 C17.104999542236328,-14.479000091552734 33.310001373291016,6.189000129699707 33.310001373291016,6.189000129699707z"/><path stroke-linecap="round" stroke-linejoin="round" fill-opacity="0" stroke="rgb(0,0,0)" stroke-opacity="1" stroke-width="0.5" d=" M33.310001373291016,6.189000129699707 C33.310001373291016,6.189000129699707 42.38199996948242,-0.6129999756813049 42.38199996948242,-0.6129999756813049 C42.38199996948242,-0.6129999756813049 26.56399917602539,-21.5049991607666 26.56399917602539,-21.5049991607666 C26.56399917602539,-21.5049991607666 30.905000686645508,-24.773000717163086 30.905000686645508,-24.773000717163086 C30.905000686645508,-24.773000717163086 28.368999481201172,-28.599000930786133 27.187000274658203,-30.20199966430664 C-6.546999931335449,-5.815999984741211 -37.40599822998047,27.253000259399414 -37.40599822998047,27.253000259399414 C-37.40599822998047,27.253000259399414 -31.19099998474121,31.947999954223633 -31.19099998474121,31.947999954223633 C-31.19099998474121,31.947999954223633 -17.110000610351562,16.966999053955078 -8.045999526977539,10.317999839782715 C-7.85699987411499,10.157999992370605 -10.062999725341797,8.336000442504883 -10.062999725341797,8.336000442504883 C-10.062999725341797,8.336000442504883 4.919000148773193,-5.084000110626221 4.919000148773193,-5.084000110626221 C4.919000148773193,-5.084000110626221 21.604999542236328,14.758999824523926 21.604999542236328,14.758999824523926 C21.604999542236328,14.758999824523926 30.98200035095215,7.8470001220703125 30.98200035095215,7.8470001220703125 C30.98200035095215,7.8470001220703125 14.72599983215332,-12.633999824523926 14.72599983215332,-12.633999824523926 C14.72599983215332,-12.633999824523926 17.104999542236328,-14.479000091552734 17.104999542236328,-14.479000091552734 C17.104999542236328,-14.479000091552734 33.310001373291016,6.189000129699707 33.310001373291016,6.189000129699707z"/></g></g><g opacity="1" transform="matrix(1,0,0,1,211.11300659179688,284.66900634765625)"><g opacity="1" transform="matrix(1,0,0,1,0,0)"><path fill="rgb(248,184,0)" fill-opacity="1" d=" M-3.5789999961853027,-10.54699993133545 C-12.723999977111816,-10.48900032043457 -24.486000061035156,-0.625 -24.40399932861328,12.307999610900879 C-24.33300018310547,23.472000122070312 -16.469999313354492,27.874000549316406 -8.161999702453613,27.874000549316406 C0.1459999978542328,27.874000549316406 12.503000259399414,20.586999893188477 12.77299976348877,6.460000038146973 C12.975000381469727,-4.116000175476074 4.729000091552734,-10.598999977111816 -3.5789999961853027,-10.54699993133545z M-8.293000221252441,20.999000549316406 C-13.6850004196167,21.02199935913086 -17.839000701904297,16.479000091552734 -17.899999618530273,11.17300033569336 C-18.0049991607666,1.9930000305175781 -9.147000312805176,-3.759000062942505 -3.8410000801086426,-3.759000062942505 C1.465000033378601,-3.759000062942505 6.428999900817871,1.8539999723434448 6.290999889373779,7.1579999923706055 C6.043000221252441,16.658000946044922 -2.986999988555908,20.97599983215332 -8.293000221252441,20.999000549316406z"/><path stroke-linecap="butt" stroke-linejoin="miter" fill-opacity="0" stroke-miterlimit="10" stroke="rgb(0,0,0)" stroke-opacity="1" stroke-width="0.5" d=" M-3.5789999961853027,-10.54699993133545 C-12.723999977111816,-10.48900032043457 -24.486000061035156,-0.625 -24.40399932861328,12.307999610900879 C-24.33300018310547,23.472000122070312 -16.469999313354492,27.874000549316406 -8.161999702453613,27.874000549316406 C0.1459999978542328,27.874000549316406 12.503000259399414,20.586999893188477 12.77299976348877,6.460000038146973 C12.975000381469727,-4.116000175476074 4.729000091552734,-10.598999977111816 -3.5789999961853027,-10.54699993133545z M-8.293000221252441,20.999000549316406 C-13.6850004196167,21.02199935913086 -17.839000701904297,16.479000091552734 -17.899999618530273,11.17300033569336 C-18.0049991607666,1.9930000305175781 -9.147000312805176,-3.759000062942505 -3.8410000801086426,-3.759000062942505 C1.465000033378601,-3.759000062942505 6.428999900817871,1.8539999723434448 6.290999889373779,7.1579999923706055 C6.043000221252441,16.658000946044922 -2.986999988555908,20.97599983215332 -8.293000221252441,20.999000549316406z"/></g></g><g opacity="1" transform="matrix(1,0,0,1,197.46800231933594,222.08099365234375)"><path fill="rgb(248,184,0)" fill-opacity="1" d=" M-6.599999904632568,-4.714000225067139 C-6.543000221252441,-3.187999963760376 -7.677999973297119,-1.6269999742507935 -9.395000457763672,-1.4609999656677246 C-10.541000366210938,-1.350000023841858 -11.395000457763672,-2.125 -11.479999542236328,-3.2730000019073486 C-11.605999946594238,-4.97599983215332 -10.208999633789062,-6.678999900817871 -8.6850004196167,-6.74399995803833 C-7.460000038146973,-6.796999931335449 -6.64300012588501,-5.864999771118164 -6.599999904632568,-4.714000225067139z"/></g><g opacity="1" transform="matrix(1,0,0,1,219.49000549316406,248.65899658203125)"><g opacity="1" transform="matrix(1,0,0,1,0,0)"><path fill="rgb(190,190,192)" fill-opacity="1" d=" M-32.91699981689453,5.906000137329102 C-32.91699981689453,5.906000137329102 -42.119998931884766,-1.0490000247955322 -42.119998931884766,-1.0490000247955322 C-42.119998931884766,-1.0490000247955322 -26.12700080871582,-21.854000091552734 -26.12700080871582,-21.854000091552734 C-26.12700080871582,-21.854000091552734 -30.64299964904785,-25.384000778198242 -30.64299964904785,-25.384000778198242 C-30.64299964904785,-25.384000778198242 -27.90999984741211,-28.86199951171875 -26.707000732421875,-30.37700080871582 C-8.270000457763672,-16.989999771118164 15.460000038146973,4.589000225067139 15.460000038146973,4.589000225067139 C15.460000038146973,4.589000225067139 13.727999687194824,12.689000129699707 22.371999740600586,11.312000274658203 C24.996000289916992,13.791000366210938 38.27899932861328,27.775999069213867 38.27899932861328,27.775999069213867 C38.27899932861328,27.775999069213867 31.452999114990234,31.773000717163086 31.452999114990234,31.773000717163086 C31.452999114990234,31.773000717163086 18.541000366210938,19.23200035095215 15.765000343322754,16.608999252319336 C19.44499969482422,9.065999984741211 9.180000305175781,9.357999801635742 9.180000305175781,9.357999801635742 C9.180000305175781,9.357999801635742 10.434000015258789,8.031000137329102 10.434000015258789,8.031000137329102 C10.434000015258789,8.031000137329102 -4.854000091552734,-5.215000152587891 -4.854000091552734,-5.215000152587891 C-4.854000091552734,-5.215000152587891 -21.343000411987305,14.670999526977539 -21.343000411987305,14.670999526977539 C-21.343000411987305,14.670999526977539 -30.72100067138672,7.564000129699707 -30.72100067138672,7.564000129699707 C-30.72100067138672,7.564000129699707 -14.420999526977539,-12.85200023651123 -14.420999526977539,-12.85200023651123 C-14.420999526977539,-12.85200023651123 -16.625,-14.52299976348877 -16.625,-14.52299976348877 C-16.625,-14.52299976348877 -32.91699981689453,5.906000137329102 -32.91699981689453,5.906000137329102z"/><path stroke-linecap="butt" stroke-linejoin="miter" fill-opacity="0" stroke-miterlimit="10" stroke="rgb(0,0,0)" stroke-opacity="1" stroke-width="0.5" d=" M-32.91699981689453,5.906000137329102 C-32.91699981689453,5.906000137329102 -42.119998931884766,-1.0490000247955322 -42.119998931884766,-1.0490000247955322 C-42.119998931884766,-1.0490000247955322 -26.12700080871582,-21.854000091552734 -26.12700080871582,-21.854000091552734 C-26.12700080871582,-21.854000091552734 -30.64299964904785,-25.384000778198242 -30.64299964904785,-25.384000778198242 C-30.64299964904785,-25.384000778198242 -27.90999984741211,-28.86199951171875 -26.707000732421875,-30.37700080871582 C-8.270000457763672,-16.989999771118164 15.460000038146973,4.589000225067139 15.460000038146973,4.589000225067139 C15.460000038146973,4.589000225067139 13.727999687194824,12.689000129699707 22.371999740600586,11.312000274658203 C24.996000289916992,13.791000366210938 38.27899932861328,27.775999069213867 38.27899932861328,27.775999069213867 C38.27899932861328,27.775999069213867 31.452999114990234,31.773000717163086 31.452999114990234,31.773000717163086 C31.452999114990234,31.773000717163086 18.541000366210938,19.23200035095215 15.765000343322754,16.608999252319336 C19.44499969482422,9.065999984741211 9.180000305175781,9.357999801635742 9.180000305175781,9.357999801635742 C9.180000305175781,9.357999801635742 10.434000015258789,8.031000137329102 10.434000015258789,8.031000137329102 C10.434000015258789,8.031000137329102 -4.854000091552734,-5.215000152587891 -4.854000091552734,-5.215000152587891 C-4.854000091552734,-5.215000152587891 -21.343000411987305,14.670999526977539 -21.343000411987305,14.670999526977539 C-21.343000411987305,14.670999526977539 -30.72100067138672,7.564000129699707 -30.72100067138672,7.564000129699707 C-30.72100067138672,7.564000129699707 -14.420999526977539,-12.85200023651123 -14.420999526977539,-12.85200023651123 C-14.420999526977539,-12.85200023651123 -16.625,-14.52299976348877 -16.625,-14.52299976348877 C-16.625,-14.52299976348877 -32.91699981689453,5.906000137329102 -32.91699981689453,5.906000137329102z"/></g></g><g opacity="1" transform="matrix(1,0,0,1,258.9649963378906,284.66900634765625)"><g opacity="1" transform="matrix(1,0,0,1,0,0)"><path fill="rgb(190,190,192)" fill-opacity="1" d=" M-12.423999786376953,7.331999778747559 C-12.121000289916992,15.633999824523926 -4.624000072479248,28.18000030517578 10.300000190734863,28.091999053955078 C19.21299934387207,28.038999557495117 25.009000778198242,20.756999969482422 24.73200035095215,12.482999801635742 C24.268999099731445,-1.3229999542236328 12.234000205993652,-10.324999809265137 3.927999973297119,-10.154000282287598 C-5.235000133514404,-9.96500015258789 -12.829000473022461,-3.7679998874664307 -12.423999786376953,7.331999778747559z M-5.7230000495910645,7.593999862670898 C-6.098999977111816,2.3010001182556152 -2.3550000190734863,-3.3310000896453857 4.2769999504089355,-3.2790000438690186 C14.855999946594238,-3.196000099182129 18.166000366210938,6.6529998779296875 18.16200065612793,11.958999633789062 C18.159000396728516,16.395999908447266 14.116000175476074,20.60099983215332 8.815999984741211,20.868000030517578 C4.017000198364258,21.110000610351562 -5.015999794006348,17.5310001373291 -5.7230000495910645,7.593999862670898z"/><path stroke-linecap="butt" stroke-linejoin="miter" fill-opacity="0" stroke-miterlimit="10" stroke="rgb(0,0,0)" stroke-opacity="1" stroke-width="0.5" d=" M-12.423999786376953,7.331999778747559 C-12.121000289916992,15.633999824523926 -4.624000072479248,28.18000030517578 10.300000190734863,28.091999053955078 C19.21299934387207,28.038999557495117 25.009000778198242,20.756999969482422 24.73200035095215,12.482999801635742 C24.268999099731445,-1.3229999542236328 12.234000205993652,-10.324999809265137 3.927999973297119,-10.154000282287598 C-5.235000133514404,-9.96500015258789 -12.829000473022461,-3.7679998874664307 -12.423999786376953,7.331999778747559z M-5.7230000495910645,7.593999862670898 C-6.098999977111816,2.3010001182556152 -2.3550000190734863,-3.3310000896453857 4.2769999504089355,-3.2790000438690186 C14.855999946594238,-3.196000099182129 18.166000366210938,6.6529998779296875 18.16200065612793,11.958999633789062 C18.159000396728516,16.395999908447266 14.116000175476074,20.60099983215332 8.815999984741211,20.868000030517578 C4.017000198364258,21.110000610351562 -5.015999794006348,17.5310001373291 -5.7230000495910645,7.593999862670898z"/></g></g><g opacity="1" transform="matrix(1,0,0,1,272.4590148925781,221.8939971923828)"><path fill="rgb(200,197,204)" fill-opacity="1" d=" M11.970999717712402,-3.055000066757202 C12.045000076293945,-1.906000018119812 11.008000373840332,-0.7649999856948853 9.88599967956543,-1.024999976158142 C8.463000297546387,-1.3550000190734863 7.175000190734863,-2.4010000228881836 6.927999973297119,-4.4079999923706055 C6.7870001792907715,-5.551000118255615 7.758999824523926,-6.505000114440918 8.904000282287598,-6.383999824523926 C10.86299991607666,-6.177000045776367 11.866999626159668,-4.671000003814697 11.970999717712402,-3.055000066757202z"/></g><g opacity="1" transform="matrix(1,0,0,1,234.9510040283203,285.5530090332031)"><path stroke-linecap="round" stroke-linejoin="round" fill-opacity="0" stroke="rgb(184,16,16)" stroke-opacity="1" stroke-width="2.5" d=" M0.08699999749660492,-33.448001861572266 C0.08699999749660492,-33.448001861572266 0.15299999713897705,46.323001861572266 0.15299999713897705,46.323001861572266"/></g><g opacity="1" transform="matrix(1,0,0,1,234.9149932861328,259.59600830078125)"><path stroke-linecap="round" stroke-linejoin="round" fill-opacity="0" stroke="rgb(184,16,16)" stroke-opacity="1" stroke-width="2.5" d=" M-6.63700008392334,-0.21799999475479126 C-6.63700008392334,-0.21799999475479126 7.204999923706055,0 7.204999923706055,0"/></g><g opacity="1" transform="matrix(1,0,0,1,234.86199951171875,300.37298583984375)"><path stroke-linecap="round" stroke-linejoin="round" fill-opacity="0" stroke="rgb(184,16,16)" stroke-opacity="1" stroke-width="2.5" d=" M28.31100082397461,3.746000051498413 C17.384000778198242,25.240999221801758 -19.429000854492188,23.365999221801758 -27.924999237060547,3.746000051498413"/></g><g opacity="1" transform="matrix(1,0,0,1,214.89700317382812,235.802001953125)"><path fill="rgb(242,242,242)" fill-opacity="1" d=" M3.7060000896453857,11.697999954223633 C-3.502000093460083,14.85200023651123 0.41499999165534973,-8.739999771118164 -0.7289999723434448,-16.30500030517578 C-1.1460000276565552,-19.059999465942383 -2.5420000553131104,-23.68600082397461 -7.5,-25.715999603271484 C-14.125,-28.42799949645996 -18.702999114990234,-18.468000411987305 -18.702999114990234,-18.468000411987305 C-18.702999114990234,-18.468000411987305 -13.321000099182129,-14.432999610900879 -13.321000099182129,-14.432999610900879 C-13.321000099182129,-14.432999610900879 -7.613999843597412,-24.458999633789062 -5.965000152587891,-21 C-5.466000080108643,-6.447000026702881 -9.263999938964844,22.969999313354492 8.57699966430664,15.920000076293945"/><path stroke-linecap="round" stroke-linejoin="round" fill-opacity="0" stroke="rgb(248,184,0)" stroke-opacity="1" stroke-width="1" d=" M3.7060000896453857,11.697999954223633 C-3.502000093460083,14.85200023651123 0.41499999165534973,-8.739999771118164 -0.7289999723434448,-16.30500030517578 C-1.1460000276565552,-19.059999465942383 -2.5420000553131104,-23.68600082397461 -7.5,-25.715999603271484 C-14.125,-28.42799949645996 -18.702999114990234,-18.468000411987305 -18.702999114990234,-18.468000411987305 C-18.702999114990234,-18.468000411987305 -13.321000099182129,-14.432999610900879 -13.321000099182129,-14.432999610900879 C-13.321000099182129,-14.432999610900879 -7.613999843597412,-24.458999633789062 -5.965000152587891,-21 C-5.466000080108643,-6.447000026702881 -9.263999938964844,22.969999313354492 8.57699966430664,15.920000076293945"/></g><g opacity="1" transform="matrix(1,0,0,1,255.11000061035156,235.81300354003906)"><path fill="rgb(242,242,242)" fill-opacity="1" d=" M-3.0950000286102295,11.753000259399414 C4.294000148773193,14.62399959564209 -0.37599998712539673,-8.159000396728516 1.1649999618530273,-17.047000885009766 C1.9149999618530273,-21.368999481201172 5.210000038146973,-24.77199935913086 7.380000114440918,-25.47599983215332 C14.473999977111816,-27.777999877929688 19.183000564575195,-18.77400016784668 19.183000564575195,-18.77400016784668 C19.183000564575195,-18.77400016784668 13.758000373840332,-14.17199993133545 13.758000373840332,-14.17199993133545 C13.758000373840332,-14.17199993133545 7.9629998207092285,-24.06599998474121 6.314000129699707,-20.60700035095215 C5.690000057220459,-8.289999961853027 9.923999786376953,22.43600082397461 -8.152000427246094,15.975000381469727"/><path stroke-linecap="round" stroke-linejoin="round" fill-opacity="0" stroke="rgb(248,184,0)" stroke-opacity="1" stroke-width="1" d=" M-3.0950000286102295,11.753000259399414 C4.294000148773193,14.62399959564209 -0.37599998712539673,-8.159000396728516 1.1649999618530273,-17.047000885009766 C1.9149999618530273,-21.368999481201172 5.210000038146973,-24.77199935913086 7.380000114440918,-25.47599983215332 C14.473999977111816,-27.777999877929688 19.183000564575195,-18.77400016784668 19.183000564575195,-18.77400016784668 C19.183000564575195,-18.77400016784668 13.758000373840332,-14.17199993133545 13.758000373840332,-14.17199993133545 C13.758000373840332,-14.17199993133545 7.9629998207092285,-24.06599998474121 6.314000129699707,-20.60700035095215 C5.690000057220459,-8.289999961853027 9.923999786376953,22.43600082397461 -8.152000427246094,15.975000381469727"/></g></g><g style="display: block;" transform="matrix(0.800000011920929,0,0,0.800000011920929,254,251)" opacity="0.15"><path fill="rgb(0,0,0)" fill-opacity="1" d=" M-0.1720000058412552,128.25 C-44.994998931884766,142.3249969482422 -80.1719970703125,152 -155.6719970703125,129 C-155.7969970703125,128.875 -155.375,145.75 -155.406005859375,145.75 C-107.5,161.5 -61.25,167 0.375,145.5 C28.500999450683594,135.68699645996094 51.44599914550781,130.78700256347656 73.83300018310547,130.26699829101562 C99.33499908447266,129.6739959716797 124.11399841308594,134.76499938964844 155,144.75 C155.1179962158203,134.7010040283203 155.5,133.75 155.8280029296875,128.56199645996094 C124.26599884033203,116.91400146484375 98.16300201416016,112.78099822998047 73.46399688720703,113.5989990234375 C48.86199951171875,114.41400146484375 25.652000427246094,120.14099884033203 -0.1720000058412552,128.25z"/><g opacity="1" transform="matrix(1,0,0,1,0,0)"/></g><g style="display: block;" transform="matrix(0.800000011920929,0,0,0.800000011920929,254,251)" opacity="0.2"><path fill="rgb(255,255,255)" fill-opacity="1" d=" M-0.25,-146.5 C-45.073001861572266,-132.4250030517578 -80.25,-122.75 -155.75,-145.75 C-155.375,-142.375 -155.68800354003906,-133.625 -155.593994140625,-128.75 C-107.68800354003906,-113 -60.534000396728516,-106.5459976196289 0.75,-129 C75.125,-156.25 124.48899841308594,-139.11000061035156 155.375,-129.125 C155.5,-133.375 155.75,-140.5 155.75,-146.18800354003906 C92.75,-169.43800354003906 51.5,-162.75 -0.25,-146.5z"/><g opacity="1" transform="matrix(1,0,0,1,0,0)"/></g><g style="display: block;" transform="matrix(0.800000011920929,0,0,0.800000011920929,254,251)" opacity="0.35000000000000003"><g opacity="1" transform="matrix(1,0,0,1,0,0)"><path fill="url(#__lottie_element_22316)" mask="url(#__lottie_element_22318)" fill-opacity="1" d="M0 0 M-0.25,-146.5 C-45.073001861572266,-132.4250030517578 -80.25,-122.75 -155.75,-145.75 C-156,-65.25 -156.156005859375,73.75 -155.406005859375,145.75 C-107.5,161.5 -61.25,167 0.375,145.5 C28.500999450683594,135.68699645996094 51.44599914550781,130.78700256347656 73.83300018310547,130.26699829101562 C99.33499908447266,129.6739959716797 124.11399841308594,134.76499938964844 155,144.75 C155.1179962158203,134.7010040283203 155.20700073242188,102.55599975585938 155.2790069580078,81.20600128173828 C155.41400146484375,41.30500030517578 155.48599243164062,-0.7829999923706055 155.5590057373047,-51.185001373291016 C155.61300659179688,-88.54900360107422 155.66900634765625,-121.11299896240234 155.75,-146.18800354003906 C92.75,-169.43800354003906 51.5,-162.75 -0.25,-146.5z"/></g></g><g style="display: block;" transform="matrix(0.800000011920929,0,0,0.800000011920929,254,251)" opacity="1"><g opacity="1" transform="matrix(1,0,0,1,0,0)"><path stroke-linecap="round" stroke-linejoin="round" fill-opacity="0" stroke="rgb(115,101,32)" stroke-opacity="1" stroke-width="8" d=" M-0.25,-146.5 C-45.073001861572266,-132.4250030517578 -80.25,-122.75 -155.75,-145.75 C-156,-65.25 -156.156005859375,73.75 -155.406005859375,145.75 C-107.5,161.5 -61.25,167 0.375,145.5"/></g><g opacity="1" transform="matrix(1,0,0,1,0,0)"><path stroke-linecap="butt" stroke-linejoin="round" fill-opacity="0" stroke="rgb(119,119,119)" stroke-opacity="1" stroke-width="8" d=" M0.375,145.5 C28.500999450683594,135.68699645996094 51.44599914550781,130.78700256347656 73.83300018310547,130.26699829101562 C99.33499908447266,129.6739959716797 124.11399841308594,134.76499938964844 155,144.75 C155.1179962158203,134.7010040283203 155.20700073242188,102.55599975585938 155.2790069580078,81.20600128173828 C155.41400146484375,41.30500030517578 155.48599243164062,-0.7829999923706055 155.5590057373047,-51.185001373291016 C155.61300659179688,-88.54900360107422 155.66900634765625,-121.11299896240234 155.75,-146.18800354003906 C92.75,-169.43800354003906 51.5,-162.75 -0.25,-146.5"/></g></g></g></svg>