<svg xmlns="http://www.w3.org/2000/svg" xmlns:xlink="http://www.w3.org/1999/xlink" viewBox="0 0 512 512" width="512" height="512" style="width: 100%; height: 100%; transform: translate3d(0,0,0);" preserveAspectRatio="xMidYMid meet"><defs><clipPath id="__lottie_element_5335"><rect width="512" height="512" x="0" y="0"/></clipPath><clipPath id="__lottie_element_5337"><path d="M0,0 L512,0 L512,512 L0,512z"/></clipPath><clipPath id="__lottie_element_5354"><path d="M0,0 L512,0 L512,512 L0,512z"/></clipPath></defs><g clip-path="url(#__lottie_element_5335)"><g clip-path="url(#__lottie_element_5354)" style="display: block;" transform="matrix(1,0,0,1,0,0)" opacity="1"><g style="display: block;" transform="matrix(0.9200000166893005,0,0,0.9200000166893005,252.9862060546875,233.7953643798828)" opacity="1"><g opacity="1" transform="matrix(1,0,0,1,0,0)"><path fill="rgb(105,105,105)" fill-opacity="1" d=" M-77.69999694824219,192.0240020751953 C-97.8270034790039,183.56300354003906 -134.94900512695312,130.41600036621094 -188.03799438476562,34.06100082397461 C-198.35899353027344,15.324000358581543 -208.25599670410156,4.322000026702881 -163.0189971923828,-11.690999984741211 C-142.2790069580078,-19.031999588012695 -124.10099792480469,-18.417999267578125 -111.98899841308594,0.1599999964237213 C-100.01300048828125,18.530000686645508 -55.327999114990234,106.5999984741211 -35.702999114990234,129.54400634765625 C-34.233001708984375,131.26300048828125 -32.52899932861328,131.447998046875 -31.382999420166016,131.6230010986328 C14.01099967956543,138.57000732421875 -3.614000082015991,182.99000549316406 -13.286999702453613,187.54299926757812 C-32.696998596191406,196.6790008544922 -57.02799987792969,200.7169952392578 -77.69999694824219,192.0240020751953z"/><path stroke-linecap="round" stroke-linejoin="round" fill-opacity="0" stroke="rgb(105,105,105)" stroke-opacity="1" stroke-width="16" d=" M-77.69999694824219,192.0240020751953 C-97.8270034790039,183.56300354003906 -134.94900512695312,130.41600036621094 -188.03799438476562,34.06100082397461 C-198.35899353027344,15.324000358581543 -208.25599670410156,4.322000026702881 -163.0189971923828,-11.690999984741211 C-142.2790069580078,-19.031999588012695 -124.10099792480469,-18.417999267578125 -111.98899841308594,0.1599999964237213 C-100.01300048828125,18.530000686645508 -55.327999114990234,106.5999984741211 -35.702999114990234,129.54400634765625 C-34.233001708984375,131.26300048828125 -32.52899932861328,131.447998046875 -31.382999420166016,131.6230010986328 C14.01099967956543,138.57000732421875 -3.614000082015991,182.99000549316406 -13.286999702453613,187.54299926757812 C-32.696998596191406,196.6790008544922 -57.02799987792969,200.7169952392578 -77.69999694824219,192.0240020751953z"/></g></g><g style="display: block;" transform="matrix(0.9200000166893005,0,0,0.9200000166893005,252.9862060546875,233.7953643798828)" opacity="1"><g opacity="1" transform="matrix(1,0,0,1,0,0)"><path fill="rgb(105,105,105)" fill-opacity="1" d=" M-31.382999420166016,131.6230010986328 C-29.152999877929688,129.1009979248047 -22.930999755859375,131.6230010986328 2.9509999752044678,84.93399810791016 C28.79599952697754,38.3120002746582 68.7770004272461,-42.974998474121094 121.78299713134766,-156.66600036621094 C129.2760009765625,-172.73699951171875 134.69000244140625,-184.3489990234375 168.36199951171875,-190.4720001220703 C176.10800170898438,-191.88099670410156 198.57899475097656,-195.52999877929688 202.6999969482422,-188.86199951171875 C205.10000610351562,-184.97900390625 201.31300354003906,-178.76800537109375 194.42999267578125,-164.0659942626953 C133.48800659179688,-33.845001220703125 52.194000244140625,129.9980010986328 11.003000259399414,171.0290069580078 C3.247999906539917,178.7530059814453 -8.130999565124512,185.99400329589844 -21.009000778198242,190.83900451660156 C-38.915000915527344,197.5760040283203 -71.85800170898438,140.1999969482422 -31.382999420166016,131.6230010986328z"/><path stroke-linecap="round" stroke-linejoin="round" fill-opacity="0" stroke="rgb(105,105,105)" stroke-opacity="1" stroke-width="16" d=" M-31.382999420166016,131.6230010986328 C-29.152999877929688,129.1009979248047 -22.930999755859375,131.6230010986328 2.9509999752044678,84.93399810791016 C28.79599952697754,38.3120002746582 68.7770004272461,-42.974998474121094 121.78299713134766,-156.66600036621094 C129.2760009765625,-172.73699951171875 134.69000244140625,-184.3489990234375 168.36199951171875,-190.4720001220703 C176.10800170898438,-191.88099670410156 198.57899475097656,-195.52999877929688 202.6999969482422,-188.86199951171875 C205.10000610351562,-184.97900390625 201.31300354003906,-178.76800537109375 194.42999267578125,-164.0659942626953 C133.48800659179688,-33.845001220703125 52.194000244140625,129.9980010986328 11.003000259399414,171.0290069580078 C3.247999906539917,178.7530059814453 -8.130999565124512,185.99400329589844 -21.009000778198242,190.83900451660156 C-38.915000915527344,197.5760040283203 -71.85800170898438,140.1999969482422 -31.382999420166016,131.6230010986328z"/></g></g><g style="display: block;" transform="matrix(0.9200000166893005,0,0,0.9200000166893005,252.9862060546875,233.7953643798828)" opacity="1"><g opacity="1" transform="matrix(1,0,0,1,0,0)"><path fill="rgb(143,143,143)" fill-opacity="1" d=" M-77.69999694824219,192.0240020751953 C-97.8270034790039,183.56300354003906 -134.94900512695312,130.41600036621094 -188.03799438476562,34.06100082397461 C-198.35899353027344,15.324000358581543 -208.25599670410156,4.322000026702881 -163.0189971923828,-11.690999984741211 C-142.2790069580078,-19.031999588012695 -124.10099792480469,-18.417999267578125 -111.98899841308594,0.1599999964237213 C-100.01300048828125,18.530000686645508 -55.327999114990234,106.5999984741211 -35.702999114990234,129.54400634765625 C-34.233001708984375,131.26300048828125 -32.52899932861328,131.447998046875 -31.382999420166016,131.6230010986328 C14.01099967956543,138.57000732421875 -3.614000082015991,182.99000549316406 -13.286999702453613,187.54299926757812 C-32.696998596191406,196.6790008544922 -57.02799987792969,200.7169952392578 -77.69999694824219,192.0240020751953z"/></g></g><g style="display: block;" transform="matrix(0.9200000166893005,0,0,0.9200000166893005,252.9862060546875,233.7953643798828)" opacity="1"><g opacity="1" transform="matrix(1,0,0,1,0,0)"><path fill="rgb(143,143,143)" fill-opacity="1" d=" M-31.382999420166016,131.6230010986328 C-29.152999877929688,129.1009979248047 -22.930999755859375,131.6230010986328 2.9509999752044678,84.93399810791016 C28.79599952697754,38.3120002746582 68.7770004272461,-42.974998474121094 121.78299713134766,-156.66600036621094 C129.2760009765625,-172.73699951171875 134.69000244140625,-184.3489990234375 168.36199951171875,-190.4720001220703 C176.10800170898438,-191.88099670410156 198.57899475097656,-195.52999877929688 202.6999969482422,-188.86199951171875 C205.10000610351562,-184.97900390625 201.31300354003906,-178.76800537109375 194.42999267578125,-164.0659942626953 C133.48800659179688,-33.845001220703125 52.194000244140625,129.9980010986328 11.003000259399414,171.0290069580078 C3.247999906539917,178.7530059814453 -8.130999565124512,185.99400329589844 -21.009000778198242,190.83900451660156 C-38.915000915527344,197.5760040283203 -71.85800170898438,140.1999969482422 -31.382999420166016,131.6230010986328z"/></g></g></g></g></svg>