<svg xmlns="http://www.w3.org/2000/svg" xmlns:xlink="http://www.w3.org/1999/xlink" viewBox="0 0 512 512" width="512" height="512" style="width: 100%; height: 100%; transform: translate3d(0,0,0);" preserveAspectRatio="xMidYMid meet"><defs><clipPath id="__lottie_element_5632"><rect width="512" height="512" x="0" y="0"/></clipPath><g id="__lottie_element_5638"/><filter id="__lottie_element_5644" filterUnits="objectBoundingBox" x="0%" y="0%" width="100%" height="100%"><feComponentTransfer in="SourceGraphic"><feFuncA type="table" tableValues="1.0 0.0"/></feComponentTransfer></filter><mask id="__lottie_element_5638_2" mask-type="alpha"><g filter="url(#__lottie_element_5644)"><rect width="512" height="512" x="0" y="0" fill="#ffffff" opacity="0"/><g id="__lottie_element_5638"/></g></mask><linearGradient id="__lottie_element_5651" spreadMethod="pad" gradientUnits="userSpaceOnUse"><stop/><stop/><stop/></linearGradient><mask id="__lottie_element_5653"><path fill="url(#__lottie_element_5652)"/></mask><linearGradient id="__lottie_element_5652" spreadMethod="pad" gradientUnits="userSpaceOnUse"><stop stop-color="rgb(255,255,255)"/><stop stop-color="rgb(255,255,255)"/><stop stop-color="rgb(255,255,255)"/></linearGradient><linearGradient id="__lottie_element_5657" spreadMethod="pad" gradientUnits="userSpaceOnUse"><stop/><stop/><stop/></linearGradient><mask id="__lottie_element_5659"><path fill="url(#__lottie_element_5658)"/></mask><linearGradient id="__lottie_element_5658" spreadMethod="pad" gradientUnits="userSpaceOnUse"><stop stop-color="rgb(255,255,255)"/><stop stop-color="rgb(255,255,255)"/><stop stop-color="rgb(255,255,255)"/></linearGradient><g id="__lottie_element_5661"><g style="display: block;" transform="matrix(-0.6700023412704468,0,0,0.6700023412704468,262.16015625,182.28170776367188)" opacity="1"><g opacity="1" transform="matrix(1,0,0,1,0,0)"><path fill="rgb(255,255,255)" fill-opacity="1" d=" M-135,-156 C-207,-117 -166,-15 -139,16 C-165,-28 -33,-109.5 -1,-90.5 C-13,-129.5 -74.83399963378906,-188.58999633789062 -135,-156z"/></g></g></g><filter id="__lottie_element_5667" filterUnits="objectBoundingBox" x="0%" y="0%" width="100%" height="100%"><feComponentTransfer in="SourceGraphic"><feFuncA type="table" tableValues="1.0 0.0"/></feComponentTransfer></filter><mask id="__lottie_element_5661_2" mask-type="alpha"><g filter="url(#__lottie_element_5667)"><rect width="512" height="512" x="0" y="0" fill="#ffffff" opacity="0"/><g id="__lottie_element_5661"><g style="display: block;" transform="matrix(-0.6700023412704468,0,0,0.6700023412704468,262.16015625,182.28170776367188)" opacity="1"><g opacity="1" transform="matrix(1,0,0,1,0,0)"><path fill="rgb(255,255,255)" fill-opacity="1" d=" M-135,-156 C-207,-117 -166,-15 -139,16 C-165,-28 -33,-109.5 -1,-90.5 C-13,-129.5 -74.83399963378906,-188.58999633789062 -135,-156z"/></g></g></g></g></mask><linearGradient id="__lottie_element_5674" spreadMethod="pad" gradientUnits="userSpaceOnUse" x1="-88.1449966430664" y1="-109.84600067138672" x2="-89.31800079345703" y2="-160.66799926757812"><stop offset="0%" stop-color="rgb(255,255,255)"/><stop offset="50%" stop-color="rgb(255,255,253)"/><stop offset="100%" stop-color="rgb(255,255,251)"/></linearGradient><mask id="__lottie_element_5676"><path fill="url(#__lottie_element_5675)" d=" M-135,-156 C-207,-117 -172,-11 -131,27 C-108,-27 -25,-87 -3,-92.5 C-15,-131.5 -74.83399963378906,-188.58999633789062 -135,-156z"/></mask><linearGradient id="__lottie_element_5675" spreadMethod="pad" gradientUnits="userSpaceOnUse" x1="-88.1449966430664" y1="-109.84600067138672" x2="-89.31800079345703" y2="-160.66799926757812"><stop stop-color="rgb(255,255,255)" offset="0%" stop-opacity="0"/><stop stop-color="rgb(255,255,255)" offset="69%" stop-opacity="0.5"/><stop stop-color="rgb(255,255,255)" offset="100%" stop-opacity="1"/></linearGradient><linearGradient id="__lottie_element_5680" spreadMethod="pad" gradientUnits="userSpaceOnUse" x1="-88.1449966430664" y1="-109.84600067138672" x2="-89.31800079345703" y2="-160.66799926757812"><stop offset="0%" stop-color="rgb(255,255,255)"/><stop offset="50%" stop-color="rgb(255,255,253)"/><stop offset="100%" stop-color="rgb(255,255,251)"/></linearGradient><mask id="__lottie_element_5682"><path fill="url(#__lottie_element_5681)" d=" M-135,-156 C-207,-117 -168,-14 -141,17 C-118,-37 -23,-85 -1,-90.5 C-13,-129.5 -74.83399963378906,-188.58999633789062 -135,-156z"/></mask><linearGradient id="__lottie_element_5681" spreadMethod="pad" gradientUnits="userSpaceOnUse" x1="-88.1449966430664" y1="-109.84600067138672" x2="-89.31800079345703" y2="-160.66799926757812"><stop stop-color="rgb(255,255,255)" offset="0%" stop-opacity="0"/><stop stop-color="rgb(255,255,255)" offset="69%" stop-opacity="0.5"/><stop stop-color="rgb(255,255,255)" offset="100%" stop-opacity="1"/></linearGradient><linearGradient id="__lottie_element_5686" spreadMethod="pad" gradientUnits="userSpaceOnUse" x1="7.456999778747559" y1="-79.23500061035156" x2="9.072999954223633" y2="101.65499877929688"><stop offset="0%" stop-color="rgb(254,21,18)"/><stop offset="50%" stop-color="rgb(205,10,20)"/><stop offset="100%" stop-color="rgb(155,0,22)"/></linearGradient><linearGradient id="__lottie_element_5687" spreadMethod="pad" gradientUnits="userSpaceOnUse" x1="-2.2850000858306885" y1="230.61700439453125" x2="-4.807000160217285" y2="19.395000457763672"><stop offset="0%" stop-color="rgb(180,5,21)"/><stop offset="50%" stop-color="rgb(218,31,31)"/><stop offset="100%" stop-color="rgb(255,56,40)"/></linearGradient><radialGradient id="__lottie_element_5688" spreadMethod="pad" gradientUnits="userSpaceOnUse" cx="-3.125" cy="28.483999252319336" r="113.83509808651847" fx="-3.1071512027823713" fy="66.07462110496245"><stop offset="0%" stop-color="rgb(255,47,0)"/><stop offset="88%" stop-color="rgb(255,47,0)"/><stop offset="100%" stop-color="rgb(255,47,0)"/></radialGradient><mask id="__lottie_element_5690"><path fill="url(#__lottie_element_5689)" d=" M172.2220001220703,-81.0780029296875 C174.25,-123.25 145.35000610351562,-165.4980010986328 90.7969970703125,-164.8159942626953 C27.608999252319336,-164.0260009765625 0.28299999237060547,-95.39600372314453 -1.4160000085830688,-90.96399688720703 C-1.4730000495910645,-90.81600189208984 -1.5010000467300415,-90.73999786376953 -1.5010000467300415,-90.73999786376953 C-1.5010000467300415,-90.73999786376953 -31,-166 -95.7979965209961,-165.8159942626953 C-150.35499572753906,-165.66099548339844 -177.5,-122 -176.4739990234375,-82.3280029296875 C-175.6649932861328,-51.04999923706055 -163.72000122070312,-14.642999649047852 -121.0260009765625,42.41699981689453 C-106,62.5 -94.3290023803711,76.8010025024414 -76.78700256347656,95.72799682617188 C-20,157 13,160 71.78600311279297,96.72799682617188 C86.68099975585938,80.6969985961914 101.4990005493164,64 117.0250015258789,44.41699981689453 C161.3000030517578,-11.425000190734863 170.718994140625,-49.82600021362305 172.2220001220703,-81.0780029296875z"/></mask><radialGradient id="__lottie_element_5689" spreadMethod="pad" gradientUnits="userSpaceOnUse" cx="-3.125" cy="28.483999252319336" r="113.83509808651847" fx="-3.1071512027823713" fy="66.07462110496245"><stop stop-color="rgb(255,255,255)" offset="0%" stop-opacity="1"/><stop stop-color="rgb(255,255,255)" offset="50%" stop-opacity="0.5"/><stop stop-color="rgb(255,255,255)" offset="100%" stop-opacity="0"/></radialGradient><linearGradient id="__lottie_element_5694" spreadMethod="pad" gradientUnits="userSpaceOnUse" x1="5.868000030517578" y1="145.60400390625" x2="6.188000202178955" y2="263.8039855957031"><stop offset="0%" stop-color="rgb(254,21,18)"/><stop offset="50%" stop-color="rgb(205,10,20)"/><stop offset="100%" stop-color="rgb(155,0,22)"/></linearGradient><linearGradient id="__lottie_element_5695" spreadMethod="pad" gradientUnits="userSpaceOnUse" x1="8.175999641418457" y1="115.50700378417969" x2="8.326000213623047" y2="175.29800415039062"><stop offset="0%" stop-color="rgb(251,125,126)"/><stop offset="18%" stop-color="rgb(253,89,77)"/><stop offset="84%" stop-color="rgb(255,53,28)"/></linearGradient><radialGradient id="__lottie_element_5696" spreadMethod="pad" gradientUnits="userSpaceOnUse" cx="9.13599967956543" cy="175.3280029296875" r="82.2054017311892" fx="8.762053067363917" fy="186.21462022257515"><stop offset="50%" stop-color="rgb(255,255,255)" stop-opacity="0"/><stop offset="75%" stop-color="rgb(255,255,255)" stop-opacity="0.5"/><stop offset="100%" stop-color="rgb(255,255,255)" stop-opacity="1"/></radialGradient></defs><g clip-path="url(#__lottie_element_5632)"><g style="display: block;" transform="matrix(0.9048200249671936,0,0,0.9048200249671936,255.86524963378906,258.15069580078125)" opacity="1"><g opacity="1" transform="matrix(1,0,0,1,0,0)"><path fill="url(#__lottie_element_5694)" fill-opacity="1" d=" M61.696998596191406,158.1699981689453 C61.696998596191406,187.79200744628906 37.68299865722656,211.80599975585938 8.060999870300293,211.80599975585938 C-21.56100082397461,211.80599975585938 -45.57600021362305,187.79200744628906 -45.57600021362305,158.1699981689453 C-45.57600021362305,128.54800415039062 -21.56100082397461,104.53399658203125 8.060999870300293,104.53399658203125 C37.68299865722656,104.53399658203125 61.696998596191406,128.54800415039062 61.696998596191406,158.1699981689453z"/></g><g opacity="1" transform="matrix(1,0,0,1,0,0)"><path fill="url(#__lottie_element_5695)" fill-opacity="1" d=" M48.308998107910156,155.36900329589844 C47.930999755859375,173.1840057373047 33.58000183105469,193.7949981689453 7.257999897003174,193.1999969482422 C-19.753000259399414,192.58900451660156 -31.635000228881836,172.63699340820312 -31.635000228881836,154.81700134277344 C-31.635000228881836,135.58200073242188 -17.53499984741211,115.31300354003906 7.23199987411499,114.80400085449219 C29.149999618530273,114.35399627685547 48.777000427246094,133.28500366210938 48.308998107910156,155.36900329589844z"/><path fill="url(#__lottie_element_5696)" fill-opacity="1" d=" M48.308998107910156,155.36900329589844 C47.930999755859375,173.1840057373047 33.58000183105469,193.7949981689453 7.257999897003174,193.1999969482422 C-19.753000259399414,192.58900451660156 -31.635000228881836,172.63699340820312 -31.635000228881836,154.81700134277344 C-31.635000228881836,135.58200073242188 -17.53499984741211,115.31300354003906 7.23199987411499,114.80400085449219 C29.149999618530273,114.35399627685547 48.777000427246094,133.28500366210938 48.308998107910156,155.36900329589844z"/></g><g opacity="1" transform="matrix(1,0,0,1,0,0)"><path stroke-linecap="round" stroke-linejoin="round" fill-opacity="0" stroke="rgb(155,0,22)" stroke-opacity="1" stroke-width="8" d=" M61.696998596191406,158.1699981689453 C61.696998596191406,187.79200744628906 37.68299865722656,211.80599975585938 8.060999870300293,211.80599975585938 C-21.56100082397461,211.80599975585938 -45.57600021362305,187.79200744628906 -45.57600021362305,158.1699981689453 C-45.57600021362305,128.54800415039062 -21.56100082397461,104.53399658203125 8.060999870300293,104.53399658203125 C37.68299865722656,104.53399658203125 61.696998596191406,128.54800415039062 61.696998596191406,158.1699981689453z"/></g></g><g style="display: block;" transform="matrix(0.9327999949455261,0,0,0.9327999949455261,255.63104248046875,254.51791381835938)" opacity="1"><g opacity="1" transform="matrix(1,0,0,1,0,0)"><path fill="url(#__lottie_element_5686)" fill-opacity="1" d=" M146.677001953125,-148.78399658203125 C144.90199279785156,-176.83900451660156 122.52899932861328,-214.1269989013672 77.78299713134766,-213.06199645996094 C39.45199966430664,-212.1490020751953 15.628000259399414,-177.87899780273438 9.585000038146973,-168.07200622558594 C8.885000228881836,-166.93499755859375 7.236000061035156,-166.93499755859375 6.535999774932861,-168.07200622558594 C0.49300000071525574,-177.87899780273438 -23.33099937438965,-212.1490020751953 -61.6619987487793,-213.06199645996094 C-106.40799713134766,-214.1269989013672 -128.77999877929688,-176.83900451660156 -130.55599975585938,-148.78399658203125 C-132.33200073242188,-120.72899627685547 -125.58399963378906,-89.1240005493164 -87.94100189208984,-40.117000579833984 C-58.922000885009766,-2.3380000591278076 -17.5939998626709,39.45100021362305 -0.17900000512599945,56.617000579833984 C4.39300012588501,61.12300109863281 11.727999687194824,61.12300109863281 16.299999237060547,56.617000579833984 C33.71500015258789,39.45100021362305 75.04299926757812,-2.3380000591278076 104.06199645996094,-40.117000579833984 C141.7050018310547,-89.1240005493164 148.4530029296875,-120.72899627685547 146.677001953125,-148.78399658203125z"/></g><g opacity="1" transform="matrix(1,0,0,1,0,0)"><path fill="rgb(254,20,16)" fill-opacity="1" d=" M133.822998046875,-141.68499755859375 C132.21200561523438,-164.91700744628906 114.74600219726562,-198.37899780273438 74.1500015258789,-197.4969940185547 C33.55400085449219,-196.61500549316406 8.060999870300293,-146.45799255371094 8.060999870300293,-146.45799255371094 C8.060999870300293,-146.45799255371094 -17.433000564575195,-196.61500549316406 -58.02899932861328,-197.4969940185547 C-98.625,-198.37899780273438 -116.09100341796875,-164.91700744628906 -117.7020034790039,-141.68499755859375 C-119.31300354003906,-118.4530029296875 -113.19100189208984,-89.05000305175781 -79.03900146484375,-48.46799850463867 C-68.96199798583984,-36.49300003051758 -57.24700164794922,-23.608999252319336 -45.7400016784668,-11.395000457763672 C-16.547000885009766,19.591999053955078 32.667999267578125,19.591999053955078 61.861000061035156,-11.395000457763672 C73.36799621582031,-23.608999252319336 85.08300018310547,-36.49300003051758 95.16000366210938,-48.46799850463867 C129.31300354003906,-89.05000305175781 135.4340057373047,-118.4530029296875 133.822998046875,-141.68499755859375z"/></g><g opacity="1" transform="matrix(-0.7200000286102295,0,0,0.7200000286102295,6.822000026702881,-78.61599731445312)"><path fill="url(#__lottie_element_5687)" fill-opacity="1" d=" M172.2220001220703,-81.0780029296875 C174.25,-123.25 145.35000610351562,-165.4980010986328 90.7969970703125,-164.8159942626953 C27.608999252319336,-164.0260009765625 0.28299999237060547,-95.39600372314453 -1.4160000085830688,-90.96399688720703 C-1.4730000495910645,-90.81600189208984 -1.5010000467300415,-90.73999786376953 -1.5010000467300415,-90.73999786376953 C-1.5010000467300415,-90.73999786376953 -31,-166 -95.7979965209961,-165.8159942626953 C-150.35499572753906,-165.66099548339844 -177.5,-122 -176.4739990234375,-82.3280029296875 C-175.6649932861328,-51.04999923706055 -163.72000122070312,-14.642999649047852 -121.0260009765625,42.41699981689453 C-106,62.5 -94.3290023803711,76.8010025024414 -76.78700256347656,95.72799682617188 C-20,157 13,160 71.78600311279297,96.72799682617188 C86.68099975585938,80.6969985961914 101.4990005493164,64 117.0250015258789,44.41699981689453 C161.3000030517578,-11.425000190734863 170.718994140625,-49.82600021362305 172.2220001220703,-81.0780029296875z"/><path fill="url(#__lottie_element_5688)" mask="url(#__lottie_element_5690)" fill-opacity="1" d="M0 0 M172.2220001220703,-81.0780029296875 C174.25,-123.25 145.35000610351562,-165.4980010986328 90.7969970703125,-164.8159942626953 C27.608999252319336,-164.0260009765625 0.28299999237060547,-95.39600372314453 -1.4160000085830688,-90.96399688720703 C-1.4730000495910645,-90.81600189208984 -1.5010000467300415,-90.73999786376953 -1.5010000467300415,-90.73999786376953 C-1.5010000467300415,-90.73999786376953 -31,-166 -95.7979965209961,-165.8159942626953 C-150.35499572753906,-165.66099548339844 -177.5,-122 -176.4739990234375,-82.3280029296875 C-175.6649932861328,-51.04999923706055 -163.72000122070312,-14.642999649047852 -121.0260009765625,42.41699981689453 C-106,62.5 -94.3290023803711,76.8010025024414 -76.78700256347656,95.72799682617188 C-20,157 13,160 71.78600311279297,96.72799682617188 C86.68099975585938,80.6969985961914 101.4990005493164,64 117.0250015258789,44.41699981689453 C161.3000030517578,-11.425000190734863 170.718994140625,-49.82600021362305 172.2220001220703,-81.0780029296875z"/></g></g><g style="display: block;" transform="matrix(-0.6700023412704468,0,0,0.6700023412704468,262.16015625,182.28170776367188)" opacity="0.9"><g opacity="1" transform="matrix(1,0,0,1,0,0)"><path fill="url(#__lottie_element_5680)" mask="url(#__lottie_element_5682)" fill-opacity="0.85" d="M0 0 M-135,-156 C-207,-117 -168,-14 -141,17 C-118,-37 -23,-85 -1,-90.5 C-13,-129.5 -74.83399963378906,-188.58999633789062 -135,-156z"/></g></g><g style="display: block;" transform="matrix(0.6700023412704468,0,0,0.6700023412704468,264.84014892578125,182.28170776367188)" opacity="0.9"><g opacity="1" transform="matrix(1,0,0,1,0,0)"><path fill="url(#__lottie_element_5674)" mask="url(#__lottie_element_5676)" fill-opacity="0.85" d="M0 0 M-135,-156 C-207,-117 -172,-11 -131,27 C-108,-27 -25,-87 -3,-92.5 C-15,-131.5 -74.83399963378906,-188.58999633789062 -135,-156z"/></g></g><g style="display: block;" transform="matrix(-0.6700023412704468,0,0,0.6700023412704468,262.16015625,182.28170776367188)" opacity="1"><g opacity="1" transform="matrix(1,0,0,1,0,0)"><path fill="rgb(255,255,255)" fill-opacity="0.02" d=" M-135,-156 C-207,-117 -166,-15 -139,16 C-165,-28 -146,-69.75 -118.98799896240234,-90.21900177001953 C-83.70500183105469,-116.95600128173828 -33,-109.5 -1,-90.5 C-13,-129.5 -74.83399963378906,-188.58999633789062 -135,-156z"/></g><g opacity="1" transform="matrix(1,0,0,1,0,0)"><path fill="rgb(255,255,255)" fill-opacity="0.02" d=" M-135,-156 C-207,-117 -165,-17.5 -146.25,5 C-168,-31 -150.41400146484375,-73.51000213623047 -121.73799896240234,-94.71900177001953 C-83.5,-123 -31.5,-115.5 -2.5,-94.25 C-14.25,-129.75 -74.83399963378906,-188.58999633789062 -135,-156z"/></g><g opacity="1" transform="matrix(1,0,0,1,0,0)"><path fill="rgb(255,255,255)" fill-opacity="0.03" d=" M-135,-156 C-207,-117 -165,-17.5 -146.25,5 C-173.75,-33.25 -153.1719970703125,-76.93699645996094 -124.73799896240234,-98.46900177001953 C-84.75,-128.75 -23.5,-119.75 -2.5,-94.25 C-14.25,-129.75 -74.83399963378906,-188.58999633789062 -135,-156z"/></g><g opacity="1" transform="matrix(1,0,0,1,0,0)"><path fill="rgb(255,255,255)" fill-opacity="0.03" d=" M-135,-156 C-207,-117 -163.25,-21 -153.25,-5.75 C-174.75,-42.25 -155.1719970703125,-80.93699645996094 -126.73799896240234,-102.46900177001953 C-86.75,-132.75 -26,-123 -5.5,-101 C-17,-129.25 -74.83399963378906,-188.58999633789062 -135,-156z"/></g><g opacity="1" transform="matrix(1,0,0,1,0,0)"><path fill="rgb(255,255,255)" fill-opacity="0.03" d=" M-135,-156 C-203.5,-118.75 -166.125,-30.5 -157.75,-13.875 C-175.625,-48.375 -156.75,-86 -127.48799896240234,-107.46900177001953 C-89.58599853515625,-135.27699279785156 -28.875,-128.625 -8.375,-106.625 C-19.125,-129.875 -75.54399871826172,-188.33200073242188 -135,-156z"/></g><g opacity="1" transform="matrix(1,0,0,1,0,0)"><path fill="rgb(255,255,255)" fill-opacity="0.04" d=" M-135,-156 C-199.25,-121 -170,-41.625 -161.375,-21.75 C-177.5,-55.5 -156.73399353027344,-92.69999694824219 -127.73799896240234,-113.46900177001953 C-90,-140.5 -30.5,-130.5 -12.125,-112.875 C-22.75,-130.875 -75.56800079345703,-188.375 -135,-156z"/></g><g opacity="1" transform="matrix(1,0,0,1,0,0)"><path fill="rgb(255,255,255)" fill-opacity="0.08" d=" M-135,-156 C-195.5,-124.5 -172.75,-48.75 -164,-28 C-180.125,-61.75 -156,-100.25 -128.73800659179688,-118.46900177001953 C-89.64600372314453,-144.593994140625 -33,-134.25 -15.875,-118.5 C-26.5,-132.625 -74.97100067138672,-187.2550048828125 -135,-156z"/></g><g opacity="1" transform="matrix(1,0,0,1,0,0)"><path fill="rgb(255,255,255)" fill-opacity="0.09" d=" M-135,-156 C-194,-124.75 -172.75,-54.875 -166.75,-35.875 C-180.375,-74.25 -152.1320037841797,-110.71800231933594 -128.86300659179688,-125.21900177001953 C-89.5,-149.75 -33.875,-137.125 -21,-125 C-33,-139.25 -79.6520004272461,-185.3159942626953 -135,-156z"/></g><g opacity="1" transform="matrix(1,0,0,1,0,0)"><path fill="rgb(255,255,255)" fill-opacity="0.1" d=" M-135,-156 C-192.25,-126.25 -172.625,-58.25 -170.125,-46.5 C-177.5,-81.875 -156,-116 -129.48800659179688,-131.843994140625 C-89.13600158691406,-155.95899963378906 -37.625,-138.875 -27.5,-131.75 C-41.875,-146.5 -83.99099731445312,-182.5070037841797 -135,-156z"/></g><g opacity="1" transform="matrix(1,0,0,1,0,0)"><path fill="rgb(255,255,255)" fill-opacity="0.11" d=" M-135,-156 C-185.64199829101562,-129.593994140625 -175.125,-74.375 -173.375,-61.375 C-174.5,-88.875 -159.5,-121.5 -130.36300659179688,-138.343994140625 C-89.66500091552734,-161.87100219726562 -42,-142.75 -34.875,-138.875 C-45.125,-146.875 -85.375,-181.875 -135,-156z"/></g><g opacity="1" transform="matrix(1,0,0,1,0,0)"><path fill="rgb(255,255,255)" fill-opacity="0.12" d=" M-135,-156 C-180,-132 -175.75,-86.125 -174.875,-71.625 C-174.75,-94.625 -161.58299255371094,-127.58899688720703 -132.11300659179688,-143.843994140625 C-92.625,-165.625 -48.5,-148 -41.375,-144.125 C-50.25,-150.5 -88.5260009765625,-180.78599548339844 -135,-156z"/></g><g opacity="1" transform="matrix(1,0,0,1,0,0)"><path fill="rgb(255,255,255)" fill-opacity="0.13" d=" M-135,-156 C-170.18499755859375,-138.61700439453125 -176.25,-101 -175.5,-85.5 C-173.375,-106.125 -162.95799255371094,-133.21400451660156 -133.48800659179688,-149.468994140625 C-94,-171.25 -54.5,-152.375 -51.375,-151.125 C-62,-156.5 -93,-176.75 -135,-156z"/></g></g><g style="display: block;" mask="url(#__lottie_element_5661_2)"><g transform="matrix(0.6700023412704468,0,0,0.6700023412704468,264.5051574707031,182.28170776367188)" opacity="1"><g opacity="1" transform="matrix(1,0,0,1,0,0)"><path fill="rgb(255,255,255)" fill-opacity="0.02" d=" M-135,-156 C-207,-117 -166,-15 -139,16 C-165,-28 -146,-69.75 -118.98799896240234,-90.21900177001953 C-83.70500183105469,-116.95600128173828 -33,-109.5 -1,-90.5 C-13,-129.5 -74.83399963378906,-188.58999633789062 -135,-156z"/></g><g opacity="1" transform="matrix(1,0,0,1,0,0)"><path fill="rgb(255,255,255)" fill-opacity="0.02" d=" M-135,-156 C-207,-117 -165,-17.5 -146.25,5 C-168,-31 -150.41400146484375,-73.51000213623047 -121.73799896240234,-94.71900177001953 C-83.5,-123 -31.5,-115.5 -2.5,-94.25 C-14.25,-129.75 -74.83399963378906,-188.58999633789062 -135,-156z"/></g><g opacity="1" transform="matrix(1,0,0,1,0,0)"><path fill="rgb(255,255,255)" fill-opacity="0.03" d=" M-135,-156 C-207,-117 -165,-17.5 -146.25,5 C-173.75,-33.25 -153.1719970703125,-76.93699645996094 -124.73799896240234,-98.46900177001953 C-84.75,-128.75 -23.5,-119.75 -2.5,-94.25 C-14.25,-129.75 -74.83399963378906,-188.58999633789062 -135,-156z"/></g><g opacity="1" transform="matrix(1,0,0,1,0,0)"><path fill="rgb(255,255,255)" fill-opacity="0.03" d=" M-135,-156 C-207,-117 -163.25,-21 -153.25,-5.75 C-174.75,-42.25 -155.1719970703125,-80.93699645996094 -126.73799896240234,-102.46900177001953 C-86.75,-132.75 -26,-123 -5.5,-101 C-17,-129.25 -74.83399963378906,-188.58999633789062 -135,-156z"/></g><g opacity="1" transform="matrix(1,0,0,1,0,0)"><path fill="rgb(255,255,255)" fill-opacity="0.03" d=" M-135,-156 C-203.5,-118.75 -166.125,-30.5 -157.75,-13.875 C-175.625,-48.375 -156.75,-86 -127.48799896240234,-107.46900177001953 C-89.58599853515625,-135.27699279785156 -28.875,-128.625 -8.375,-106.625 C-19.125,-129.875 -75.54399871826172,-188.33200073242188 -135,-156z"/></g><g opacity="1" transform="matrix(1,0,0,1,0,0)"><path fill="rgb(255,255,255)" fill-opacity="0.04" d=" M-135,-156 C-199.25,-121 -170,-41.625 -161.375,-21.75 C-177.5,-55.5 -156.73399353027344,-92.69999694824219 -127.73799896240234,-113.46900177001953 C-90,-140.5 -30.5,-130.5 -12.125,-112.875 C-22.75,-130.875 -75.56800079345703,-188.375 -135,-156z"/></g><g opacity="1" transform="matrix(1,0,0,1,0,0)"><path fill="rgb(255,255,255)" fill-opacity="0.08" d=" M-135,-156 C-195.5,-124.5 -172.75,-48.75 -164,-28 C-180.125,-61.75 -156,-100.25 -128.73800659179688,-118.46900177001953 C-89.64600372314453,-144.593994140625 -33,-134.25 -15.875,-118.5 C-26.5,-132.625 -74.97100067138672,-187.2550048828125 -135,-156z"/></g><g opacity="1" transform="matrix(1,0,0,1,0,0)"><path fill="rgb(255,255,255)" fill-opacity="0.09" d=" M-135,-156 C-194,-124.75 -172.75,-54.875 -166.75,-35.875 C-180.375,-74.25 -152.1320037841797,-110.71800231933594 -128.86300659179688,-125.21900177001953 C-89.5,-149.75 -33.875,-137.125 -21,-125 C-33,-139.25 -79.6520004272461,-185.3159942626953 -135,-156z"/></g><g opacity="1" transform="matrix(1,0,0,1,0,0)"><path fill="rgb(255,255,255)" fill-opacity="0.1" d=" M-135,-156 C-192.25,-126.25 -172.625,-58.25 -170.125,-46.5 C-177.5,-81.875 -156,-116 -129.48800659179688,-131.843994140625 C-89.13600158691406,-155.95899963378906 -37.625,-138.875 -27.5,-131.75 C-41.875,-146.5 -83.99099731445312,-182.5070037841797 -135,-156z"/></g><g opacity="1" transform="matrix(1,0,0,1,0,0)"><path fill="rgb(255,255,255)" fill-opacity="0.11" d=" M-135,-156 C-185.64199829101562,-129.593994140625 -175.125,-74.375 -173.375,-61.375 C-174.5,-88.875 -159.5,-121.5 -130.36300659179688,-138.343994140625 C-89.66500091552734,-161.87100219726562 -42,-142.75 -34.875,-138.875 C-45.125,-146.875 -85.375,-181.875 -135,-156z"/></g><g opacity="1" transform="matrix(1,0,0,1,0,0)"><path fill="rgb(255,255,255)" fill-opacity="0.12" d=" M-135,-156 C-180,-132 -175.75,-86.125 -174.875,-71.625 C-174.75,-94.625 -161.58299255371094,-127.58899688720703 -132.11300659179688,-143.843994140625 C-92.625,-165.625 -48.5,-148 -41.375,-144.125 C-50.25,-150.5 -88.5260009765625,-180.78599548339844 -135,-156z"/></g><g opacity="1" transform="matrix(1,0,0,1,0,0)"><path fill="rgb(255,255,255)" fill-opacity="0.13" d=" M-135,-156 C-170.18499755859375,-138.61700439453125 -176.25,-101 -175.5,-85.5 C-173.375,-106.125 -162.95799255371094,-133.21400451660156 -133.48800659179688,-149.468994140625 C-94,-171.25 -54.5,-152.375 -51.375,-151.125 C-62,-156.5 -93,-176.75 -135,-156z"/></g></g></g><g style="display: block;" transform="matrix(0.9327999949455261,0,0,0.9327999949455261,255.63104248046875,254.51791381835938)" opacity="1"><g opacity="1" transform="matrix(1,0,0,1,0,0)"><path stroke-linecap="round" stroke-linejoin="round" fill-opacity="0" stroke="rgb(155,0,22)" stroke-opacity="1" stroke-width="8" d=" M146.677001953125,-148.78399658203125 C144.90199279785156,-176.83900451660156 122.52899932861328,-214.1269989013672 77.78299713134766,-213.06199645996094 C39.45199966430664,-212.1490020751953 15.628000259399414,-177.87899780273438 9.585000038146973,-168.07200622558594 C8.885000228881836,-166.93499755859375 7.236000061035156,-166.93499755859375 6.535999774932861,-168.07200622558594 C0.49300000071525574,-177.87899780273438 -23.33099937438965,-212.1490020751953 -61.6619987487793,-213.06199645996094 C-106.40799713134766,-214.1269989013672 -128.77999877929688,-176.83900451660156 -130.55599975585938,-148.78399658203125 C-132.33200073242188,-120.72899627685547 -125.58399963378906,-89.1240005493164 -87.94100189208984,-40.117000579833984 C-58.922000885009766,-2.3380000591278076 -17.5939998626709,39.45100021362305 -0.17900000512599945,56.617000579833984 C4.39300012588501,61.12300109863281 11.727999687194824,61.12300109863281 16.299999237060547,56.617000579833984 C33.71500015258789,39.45100021362305 75.04299926757812,-2.3380000591278076 104.06199645996094,-40.117000579833984 C141.7050018310547,-89.1240005493164 148.4530029296875,-120.72899627685547 146.677001953125,-148.78399658203125z M9.098999977111816,-167.3820037841797 C9.581000328063965,-168.2030029296875 11.704999923706055,-171.38999938964844 12.09000015258789,-172.0189971923828"/></g></g></g></svg>