<svg xmlns="http://www.w3.org/2000/svg" xmlns:xlink="http://www.w3.org/1999/xlink" viewBox="0 0 512 512" width="512" height="512" style="width: 100%; height: 100%; transform: translate3d(0,0,0);" preserveAspectRatio="xMidYMid meet"><defs><clipPath id="__lottie_element_47662"><rect width="512" height="512" x="0" y="0"/></clipPath><clipPath id="__lottie_element_47664"><path d="M0,0 L430,0 L430,430 L0,430z"/></clipPath><linearGradient id="__lottie_element_47672" spreadMethod="pad" gradientUnits="userSpaceOnUse" x1="-53" y1="20.25" x2="34.5" y2="42.25"><stop offset="0%" stop-color="rgb(201,51,155)"/><stop offset="12%" stop-color="rgb(228,112,193)"/><stop offset="23%" stop-color="rgb(255,173,231)"/><stop offset="29%" stop-color="rgb(254,168,229)"/><stop offset="35%" stop-color="rgb(254,163,227)"/><stop offset="43%" stop-color="rgb(231,134,203)"/><stop offset="50%" stop-color="rgb(207,106,178)"/><stop offset="56%" stop-color="rgb(188,94,158)"/><stop offset="63%" stop-color="rgb(169,83,139)"/><stop offset="81%" stop-color="rgb(147,49,116)"/><stop offset="100%" stop-color="rgb(124,15,94)"/></linearGradient><linearGradient id="__lottie_element_47676" spreadMethod="pad" gradientUnits="userSpaceOnUse" x1="-12.5" y1="-13.75" x2="11.5" y2="-7.75"><stop offset="5%" stop-color="rgb(165,67,135)"/><stop offset="13%" stop-color="rgb(208,112,181)"/><stop offset="21%" stop-color="rgb(251,158,226)"/><stop offset="30%" stop-color="rgb(247,155,225)"/><stop offset="38%" stop-color="rgb(243,151,224)"/><stop offset="54%" stop-color="rgb(201,102,180)"/><stop offset="70%" stop-color="rgb(159,52,136)"/><stop offset="85%" stop-color="rgb(146,28,117)"/><stop offset="100%" stop-color="rgb(133,3,97)"/></linearGradient><linearGradient id="__lottie_element_47680" spreadMethod="pad" gradientUnits="userSpaceOnUse" x1="-12" y1="-14.75" x2="30.5" y2="6.25"><stop offset="0%" stop-color="rgb(191,54,141)"/><stop offset="22%" stop-color="rgb(218,103,188)"/><stop offset="43%" stop-color="rgb(244,151,235)"/><stop offset="53%" stop-color="rgb(235,119,214)"/><stop offset="64%" stop-color="rgb(226,87,194)"/><stop offset="82%" stop-color="rgb(167,62,141)"/><stop offset="100%" stop-color="rgb(108,37,88)"/></linearGradient><linearGradient id="__lottie_element_47687" spreadMethod="pad" gradientUnits="userSpaceOnUse" x1="-30" y1="-12.25" x2="3.5" y2="26.75"><stop offset="0%" stop-color="rgb(165,67,135)"/><stop offset="9%" stop-color="rgb(187,96,161)"/><stop offset="18%" stop-color="rgb(209,125,187)"/><stop offset="23%" stop-color="rgb(221,160,212)"/><stop offset="28%" stop-color="rgb(233,195,237)"/><stop offset="32%" stop-color="rgb(233,195,237)"/><stop offset="36%" stop-color="rgb(233,195,237)"/><stop offset="39%" stop-color="rgb(232,181,231)"/><stop offset="42%" stop-color="rgb(231,167,225)"/><stop offset="50%" stop-color="rgb(224,150,212)"/><stop offset="58%" stop-color="rgb(217,133,200)"/><stop offset="61%" stop-color="rgb(211,123,194)"/><stop offset="63%" stop-color="rgb(206,113,187)"/><stop offset="73%" stop-color="rgb(180,94,161)"/><stop offset="83%" stop-color="rgb(153,74,136)"/><stop offset="91%" stop-color="rgb(137,67,120)"/><stop offset="100%" stop-color="rgb(121,59,104)"/></linearGradient><linearGradient id="__lottie_element_47688" spreadMethod="pad" gradientUnits="userSpaceOnUse" x1="-41.893001556396484" y1="-24.631000518798828" x2="7.328000068664551" y2="27.735000610351562"><stop offset="0%" stop-color="rgb(165,67,135)"/><stop offset="9%" stop-color="rgb(188,91,160)"/><stop offset="18%" stop-color="rgb(211,114,186)"/><stop offset="28%" stop-color="rgb(230,166,219)"/><stop offset="39%" stop-color="rgb(249,218,252)"/><stop offset="46%" stop-color="rgb(250,221,253)"/><stop offset="53%" stop-color="rgb(251,224,254)"/><stop offset="57%" stop-color="rgb(241,196,239)"/><stop offset="62%" stop-color="rgb(231,167,225)"/><stop offset="64%" stop-color="rgb(212,133,200)"/><stop offset="67%" stop-color="rgb(194,99,175)"/><stop offset="75%" stop-color="rgb(184,75,161)"/><stop offset="83%" stop-color="rgb(173,51,147)"/><stop offset="91%" stop-color="rgb(146,33,118)"/><stop offset="100%" stop-color="rgb(118,15,90)"/></linearGradient><linearGradient id="__lottie_element_47689" spreadMethod="pad" gradientUnits="userSpaceOnUse" x1="-38.33100128173828" y1="-20.94499969482422" x2="9.23900032043457" y2="33.040000915527344"><stop offset="0%" stop-color="rgb(165,67,135)"/><stop offset="9%" stop-color="rgb(188,91,160)"/><stop offset="18%" stop-color="rgb(211,114,186)"/><stop offset="28%" stop-color="rgb(230,166,219)"/><stop offset="39%" stop-color="rgb(249,218,252)"/><stop offset="46%" stop-color="rgb(250,221,253)"/><stop offset="53%" stop-color="rgb(251,224,254)"/><stop offset="57%" stop-color="rgb(241,196,239)"/><stop offset="62%" stop-color="rgb(231,167,225)"/><stop offset="64%" stop-color="rgb(212,133,200)"/><stop offset="67%" stop-color="rgb(194,99,175)"/><stop offset="75%" stop-color="rgb(184,75,161)"/><stop offset="83%" stop-color="rgb(173,51,147)"/><stop offset="91%" stop-color="rgb(146,33,118)"/><stop offset="100%" stop-color="rgb(118,15,90)"/></linearGradient><linearGradient id="__lottie_element_47696" spreadMethod="pad" gradientUnits="userSpaceOnUse" x1="-27.75" y1="-11.5" x2="6.75" y2="28"><stop offset="0%" stop-color="rgb(165,67,135)"/><stop offset="9%" stop-color="rgb(187,96,161)"/><stop offset="18%" stop-color="rgb(209,125,187)"/><stop offset="23%" stop-color="rgb(221,160,212)"/><stop offset="28%" stop-color="rgb(233,195,237)"/><stop offset="32%" stop-color="rgb(233,195,237)"/><stop offset="36%" stop-color="rgb(233,195,237)"/><stop offset="39%" stop-color="rgb(232,181,231)"/><stop offset="42%" stop-color="rgb(231,167,225)"/><stop offset="50%" stop-color="rgb(224,150,212)"/><stop offset="58%" stop-color="rgb(217,133,200)"/><stop offset="61%" stop-color="rgb(211,123,194)"/><stop offset="63%" stop-color="rgb(206,113,187)"/><stop offset="73%" stop-color="rgb(180,94,161)"/><stop offset="83%" stop-color="rgb(153,74,136)"/><stop offset="91%" stop-color="rgb(137,67,120)"/><stop offset="100%" stop-color="rgb(121,59,104)"/></linearGradient><linearGradient id="__lottie_element_47697" spreadMethod="pad" gradientUnits="userSpaceOnUse" x1="-40.72800064086914" y1="-23.864999771118164" x2="3.5" y2="26.75"><stop offset="0%" stop-color="rgb(165,67,135)"/><stop offset="9%" stop-color="rgb(188,91,160)"/><stop offset="18%" stop-color="rgb(211,114,186)"/><stop offset="28%" stop-color="rgb(230,166,219)"/><stop offset="39%" stop-color="rgb(249,218,252)"/><stop offset="46%" stop-color="rgb(250,221,253)"/><stop offset="53%" stop-color="rgb(251,224,254)"/><stop offset="57%" stop-color="rgb(241,196,239)"/><stop offset="62%" stop-color="rgb(231,167,225)"/><stop offset="64%" stop-color="rgb(212,133,200)"/><stop offset="67%" stop-color="rgb(194,99,175)"/><stop offset="75%" stop-color="rgb(184,75,161)"/><stop offset="83%" stop-color="rgb(173,51,147)"/><stop offset="91%" stop-color="rgb(146,33,118)"/><stop offset="100%" stop-color="rgb(118,15,90)"/></linearGradient><linearGradient id="__lottie_element_47698" spreadMethod="pad" gradientUnits="userSpaceOnUse" x1="-37.869998931884766" y1="-20.77199935913086" x2="8.163999557495117" y2="33.32600021362305"><stop offset="0%" stop-color="rgb(165,67,135)"/><stop offset="9%" stop-color="rgb(188,91,160)"/><stop offset="18%" stop-color="rgb(211,114,186)"/><stop offset="28%" stop-color="rgb(230,166,219)"/><stop offset="39%" stop-color="rgb(249,218,252)"/><stop offset="46%" stop-color="rgb(250,221,253)"/><stop offset="53%" stop-color="rgb(251,224,254)"/><stop offset="57%" stop-color="rgb(241,196,239)"/><stop offset="62%" stop-color="rgb(231,167,225)"/><stop offset="64%" stop-color="rgb(212,133,200)"/><stop offset="67%" stop-color="rgb(194,99,175)"/><stop offset="75%" stop-color="rgb(184,75,161)"/><stop offset="83%" stop-color="rgb(173,51,147)"/><stop offset="91%" stop-color="rgb(146,33,118)"/><stop offset="100%" stop-color="rgb(118,15,90)"/></linearGradient><linearGradient id="__lottie_element_47705" spreadMethod="pad" gradientUnits="userSpaceOnUse" x1="-74" y1="-40.75" x2="-39.5" y2="0.25"><stop offset="0%" stop-color="rgb(165,67,135)"/><stop offset="9%" stop-color="rgb(187,96,161)"/><stop offset="18%" stop-color="rgb(209,125,187)"/><stop offset="23%" stop-color="rgb(221,160,212)"/><stop offset="28%" stop-color="rgb(233,195,237)"/><stop offset="32%" stop-color="rgb(233,195,237)"/><stop offset="36%" stop-color="rgb(233,195,237)"/><stop offset="39%" stop-color="rgb(232,181,231)"/><stop offset="42%" stop-color="rgb(231,167,225)"/><stop offset="50%" stop-color="rgb(224,150,212)"/><stop offset="58%" stop-color="rgb(217,133,200)"/><stop offset="61%" stop-color="rgb(211,123,194)"/><stop offset="63%" stop-color="rgb(206,113,187)"/><stop offset="73%" stop-color="rgb(180,94,161)"/><stop offset="83%" stop-color="rgb(153,74,136)"/><stop offset="91%" stop-color="rgb(137,67,120)"/><stop offset="100%" stop-color="rgb(121,59,104)"/></linearGradient><linearGradient id="__lottie_element_47706" spreadMethod="pad" gradientUnits="userSpaceOnUse" x1="-77.85399627685547" y1="-58.20000076293945" x2="-33.06700134277344" y2="-6.617000102996826"><stop offset="0%" stop-color="rgb(165,67,135)"/><stop offset="9%" stop-color="rgb(188,91,160)"/><stop offset="18%" stop-color="rgb(211,114,186)"/><stop offset="28%" stop-color="rgb(230,166,219)"/><stop offset="39%" stop-color="rgb(249,218,252)"/><stop offset="46%" stop-color="rgb(250,221,253)"/><stop offset="53%" stop-color="rgb(251,224,254)"/><stop offset="57%" stop-color="rgb(241,196,239)"/><stop offset="62%" stop-color="rgb(231,167,225)"/><stop offset="64%" stop-color="rgb(212,133,200)"/><stop offset="67%" stop-color="rgb(194,99,175)"/><stop offset="75%" stop-color="rgb(184,75,161)"/><stop offset="83%" stop-color="rgb(173,51,147)"/><stop offset="91%" stop-color="rgb(146,33,118)"/><stop offset="100%" stop-color="rgb(118,15,90)"/></linearGradient><linearGradient id="__lottie_element_47707" spreadMethod="pad" gradientUnits="userSpaceOnUse" x1="-77.85399627685547" y1="-58.20000076293945" x2="-24.666000366210938" y2="3.555999994277954"><stop offset="0%" stop-color="rgb(165,67,135)"/><stop offset="9%" stop-color="rgb(188,91,160)"/><stop offset="18%" stop-color="rgb(211,114,186)"/><stop offset="28%" stop-color="rgb(230,166,219)"/><stop offset="39%" stop-color="rgb(249,218,252)"/><stop offset="46%" stop-color="rgb(250,221,253)"/><stop offset="53%" stop-color="rgb(251,224,254)"/><stop offset="57%" stop-color="rgb(241,196,239)"/><stop offset="62%" stop-color="rgb(231,167,225)"/><stop offset="64%" stop-color="rgb(212,133,200)"/><stop offset="67%" stop-color="rgb(194,99,175)"/><stop offset="75%" stop-color="rgb(184,75,161)"/><stop offset="83%" stop-color="rgb(173,51,147)"/><stop offset="91%" stop-color="rgb(146,33,118)"/><stop offset="100%" stop-color="rgb(118,15,90)"/></linearGradient></defs><g clip-path="url(#__lottie_element_47662)"><g clip-path="url(#__lottie_element_47664)" style="display: block;" transform="matrix(1,0,0,1,41,41)" opacity="1"><g style="display: block;" transform="matrix(1,0,0,1,100.28399658203125,291.6300048828125)" opacity="1"><g opacity="1" transform="matrix(1,0,0,1,0,0)"><path fill="rgb(252,206,44)" fill-opacity="1" d=" M-226.8769989013672,112.85399627685547 C-209.98199462890625,98.27799987792969 -152.4250030517578,50.02199935913086 -93.54199981689453,1.0460000038146973 C-35.34199905395508,-47.36199951171875 24.15399932861328,-96.4739990234375 46.965999603271484,-114.46800231933594 C78.86900329589844,-139.6320037841797 128.08999633789062,-78.8759994506836 91.44000244140625,-42.53300094604492 C53.215999603271484,-4.630000114440918 -158.28399658203125,182.3699951171875 -194.0850067138672,207.88600158691406"/></g><g opacity="1" transform="matrix(1,0,0,1,0,0)"><path fill="rgb(240,146,1)" fill-opacity="0.5" d=" M-155.3769989013672,150.35400390625 C-138.48199462890625,135.7779998779297 45.42499923706055,-12.458000183105469 76.55999755859375,-45.178001403808594 C102.90799713134766,-72.86699676513672 83.21700286865234,-112.12899780273438 46.965999603271484,-114.46800231933594 C78.86900329589844,-139.6320037841797 128.08999633789062,-78.8759994506836 91.44000244140625,-42.53300094604492 C53.215999603271484,-4.630000114440918 -158.28399658203125,182.3699951171875 -194.0850067138672,207.88600158691406"/></g><g opacity="1" transform="matrix(1,0,0,1,0,0)"><path fill="rgb(240,146,1)" fill-opacity="0.4" d=" M-162.8769989013672,145.85400390625 C-145.98199462890625,131.2779998779297 38.645999908447266,-19.881000518798828 71.11399841308594,-50.36199951171875 C98.89299774169922,-76.44100189208984 75.71700286865234,-104.12899780273438 46.965999603271484,-114.46800231933594 C78.86900329589844,-139.6320037841797 128.08999633789062,-78.8759994506836 91.44000244140625,-42.53300094604492 C53.215999603271484,-4.630000114440918 -158.28399658203125,182.3699951171875 -194.0850067138672,207.88600158691406"/></g><g opacity="1" transform="matrix(1,0,0,1,0,0)"><path fill="rgb(240,146,1)" fill-opacity="0.3" d=" M-170.3769989013672,141.35400390625 C-153.48199462890625,126.77799987792969 29.933000564575195,-21.608999252319336 62.4010009765625,-52.09000015258789 C90.18000030517578,-78.16899871826172 67.71700286865234,-104.12899780273438 46.965999603271484,-114.46800231933594 C78.86900329589844,-139.6320037841797 128.08999633789062,-78.8759994506836 91.44000244140625,-42.53300094604492 C53.215999603271484,-4.630000114440918 -158.28399658203125,182.3699951171875 -194.0850067138672,207.88600158691406"/></g><g opacity="1" transform="matrix(1,0,0,1,0,0)"><path fill="rgb(240,146,1)" fill-opacity="0.2" d=" M-175.8769989013672,135.85400390625 C-158.98199462890625,121.27799987792969 23.670000076293945,-24.488000869750977 56.13800048828125,-54.96900177001953 C83.91699981689453,-81.0479965209961 62.96699905395508,-99.62899780273438 46.965999603271484,-114.46800231933594 C78.86900329589844,-139.6320037841797 128.08999633789062,-78.8759994506836 91.44000244140625,-42.53300094604492 C53.215999603271484,-4.630000114440918 -158.28399658203125,182.3699951171875 -194.0850067138672,207.88600158691406"/></g><g opacity="1" transform="matrix(1,0,0,1,0,0)"><path fill="rgb(240,146,1)" fill-opacity="0.1" d=" M-181.3769989013672,132.35400390625 C-164.48199462890625,117.77799987792969 13.868000030517578,-26.215999603271484 46.33599853515625,-56.696998596191406 C74.11499786376953,-82.7760009765625 62.96699905395508,-99.62899780273438 46.965999603271484,-114.46800231933594 C78.86900329589844,-139.6320037841797 128.08999633789062,-78.8759994506836 91.44000244140625,-42.53300094604492 C53.215999603271484,-4.630000114440918 -158.28399658203125,182.3699951171875 -194.0850067138672,207.88600158691406"/></g><g opacity="1" transform="matrix(1,0,0,1,0,0)"><path fill="rgb(240,146,1)" fill-opacity="0.05" d=" M-187.8769989013672,128.35400390625 C-170.98199462890625,113.77799987792969 8.965999603271484,-29.672000885009766 41.433998107910156,-60.15299987792969 C69.21299743652344,-86.23200225830078 62.96699905395508,-99.62899780273438 46.965999603271484,-114.46800231933594 C78.86900329589844,-139.6320037841797 128.08999633789062,-78.8759994506836 91.44000244140625,-42.53300094604492 C53.215999603271484,-4.630000114440918 -158.28399658203125,182.3699951171875 -194.0850067138672,207.88600158691406"/></g><g opacity="1" transform="matrix(1,0,0,1,0,0)"><path fill="rgb(255,215,93)" fill-opacity="0.5" d=" M-226.8769989013672,112.85399627685547 C-209.98199462890625,98.27799987792969 -152.4250030517578,50.02199935913086 -93.54199981689453,1.0460000038146973 C-35.34199905395508,-47.36199951171875 24.15399932861328,-96.4739990234375 46.965999603271484,-114.46800231933594 C78.86900329589844,-139.6320037841797 63.71699905395508,-101.62999725341797 22.94099998474121,-67.53299713134766 C-18.354999542236328,-33.00199890136719 -128.78399658203125,54.369998931884766 -167.0850067138672,87.38600158691406"/></g><g opacity="1" transform="matrix(1,0,0,1,0,0)"><path fill="rgb(255,215,93)" fill-opacity="0.3" d=" M-226.8769989013672,112.85399627685547 C-209.98199462890625,98.27799987792969 -152.4250030517578,50.02199935913086 -93.54199981689453,1.0460000038146973 C-35.34199905395508,-47.36199951171875 24.15399932861328,-96.4739990234375 46.965999603271484,-114.46800231933594 C78.86900329589844,-139.6320037841797 69.21600341796875,-96.62999725341797 28.440000534057617,-62.53300094604492 C-12.855999946594238,-28.00200080871582 -120.28399658203125,61.369998931884766 -159.0850067138672,93.38600158691406"/></g><g opacity="1" transform="matrix(1,0,0,1,0,0)"><path stroke-linecap="round" stroke-linejoin="round" fill-opacity="0" stroke="rgb(225,124,0)" stroke-opacity="1" stroke-width="8" d=" M-226.8769989013672,112.85399627685547 C-209.98199462890625,98.27799987792969 -152.4250030517578,50.02199935913086 -93.54199981689453,1.0460000038146973 C-35.34199905395508,-47.36199951171875 24.15399932861328,-96.4739990234375 46.965999603271484,-114.46800231933594 C78.86900329589844,-139.6320037841797 128.08999633789062,-78.8759994506836 91.44000244140625,-42.53300094604492 C53.215999603271484,-4.630000114440918 -158.28399658203125,182.3699951171875 -194.0850067138672,207.88600158691406"/></g></g><g style="display: block;" transform="matrix(1,0,0,1,215,215)" opacity="1"><g opacity="1" transform="matrix(1,0,0,1,0,0)"><path fill="url(#__lottie_element_47705)" fill-opacity="1" d=" M6.5,-76.25 C-11.460000038146973,-91.2979965209961 -59.75,-47.5 -68.5,-40.25 C-74.36299896240234,-35.391998291015625 -97,-15.25 -103.51899719238281,-5.894999980926514 C-109.09700012207031,2.1089999675750732 -107.10600280761719,14.848999977111816 -99.75,22 C-90.75,30.75 -80,31.25 -71.25,29.75 C-63.17900085449219,28.365999221801758 -49.65800094604492,21.864999771118164 -27.75,1 C-6.75,-19 25,-60.75 6.5,-76.25z"/></g><g opacity="0" transform="matrix(1,0,0,1,0,0)"><path fill="url(#__lottie_element_47706)" fill-opacity="1" d=" M-101.85900115966797,18.433000564575195 C-115.40799713134766,-1.3200000524520874 -96.01699829101562,-12.677000045776367 -99.7979965209961,-9.157999992370605 C-105.37200164794922,-3.9709999561309814 -97,-15.25 -103.51899719238281,-5.894999980926514 C-109.09700012207031,2.1089999675750732 -107.10600280761719,14.848999977111816 -99.75,22 C-90.75,30.75 -80,31.25 -71.25,29.75 C-63.17900085449219,28.365999221801758 -69.40899658203125,30.738000869750977 -63.40599822998047,28.766000747680664 C-61.79399871826172,28.236000061035156 -88.32599639892578,38.1619987487793 -101.85900115966797,18.433000564575195z"/></g><g opacity="0" transform="matrix(1,0,0,1,0,0)"><path fill="url(#__lottie_element_47707)" fill-opacity="1" d=" M-101.85900115966797,18.433000564575195 C-115.40799713134766,-1.3200000524520874 -96.01699829101562,-12.677000045776367 -99.7979965209961,-9.157999992370605 C-105.37200164794922,-3.9709999561309814 -97,-15.25 -103.51899719238281,-5.894999980926514 C-109.09700012207031,2.1089999675750732 -107.10600280761719,14.848999977111816 -99.75,22 C-90.75,30.75 -69.40899658203125,30.738000869750977 -63.40599822998047,28.766000747680664 C-61.79399871826172,28.236000061035156 -88.32599639892578,38.1619987487793 -101.85900115966797,18.433000564575195z"/></g><g opacity="1" transform="matrix(1,0,0,1,0,0)"><path stroke-linecap="round" stroke-linejoin="miter" fill-opacity="0" stroke-miterlimit="4" stroke="rgb(165,82,143)" stroke-opacity="1" stroke-width="6" d=" M6.5,-76.25 C-11.460000038146973,-91.2979965209961 -59.75,-47.5 -68.5,-40.25 C-74.36299896240234,-35.391998291015625 -97,-15.25 -103.51899719238281,-5.894999980926514 C-109.09700012207031,2.1089999675750732 -107.10600280761719,14.848999977111816 -99.75,22 C-90.75,30.75 -80,31.25 -71.25,29.75 C-63.17900085449219,28.365999221801758 -49.65800094604492,21.864999771118164 -27.75,1 C-6.75,-19 25,-60.75 6.5,-76.25z"/></g><g opacity="1" transform="matrix(1,0,0,1,0,0)"><path stroke-linecap="round" stroke-linejoin="miter" fill-opacity="0" stroke-miterlimit="4" stroke="rgb(98,50,83)" stroke-opacity="1" stroke-width="6" d=" M-80.83599853515625,30.333999633789062 C-77.50599670410156,30.545000076293945 -74.26000213623047,30.266000747680664 -71.25,29.75 C-63.17900085449219,28.365999221801758 -49.65800094604492,21.864999771118164 -27.75,1 C-10.946000099182129,-15.003999710083008 12.741000175476074,-44.933998107910156 12.057999610900879,-64.197998046875"/></g></g><g style="display: block;" transform="matrix(1,0,0,1,145.65499877929688,376.69598388671875)" opacity="1"><g opacity="1" transform="matrix(1,0,0,1,0,0)"><path fill="rgb(252,206,44)" fill-opacity="1" d=" M-266.7510070800781,140.14599609375 C-254.73899841308594,128.83099365234375 -169.58599853515625,53.1150016784668 -89.89600372314453,-17.492000579833984 C-26.31800079345703,-73.8239974975586 33.784000396728516,-126.90299987792969 50.48899841308594,-141.4290008544922 C70.35399627685547,-158.70199584960938 98.84500122070312,-178.1959991455078 124.2229995727539,-171.84100341796875 C153.72999572753906,-164.45199584960938 159.23199462890625,-113.9749984741211 119.01699829101562,-76.7490005493164 C91.50900268554688,-51.28499984741211 25.881000518798828,9.395000457763672 4.4019999504089355,30.77199935913086 C-16.676000595092773,51.75 -158.65499877929688,184.30499267578125 -191.91200256347656,206.86000061035156"/><path stroke-linecap="round" stroke-linejoin="round" fill-opacity="0" stroke="rgb(225,124,0)" stroke-opacity="1" stroke-width="8" d=" M-266.7510070800781,140.14599609375 C-254.73899841308594,128.83099365234375 -169.58599853515625,53.1150016784668 -89.89600372314453,-17.492000579833984 C-26.31800079345703,-73.8239974975586 33.784000396728516,-126.90299987792969 50.48899841308594,-141.4290008544922 C70.35399627685547,-158.70199584960938 98.84500122070312,-178.1959991455078 124.2229995727539,-171.84100341796875 C153.72999572753906,-164.45199584960938 159.23199462890625,-113.9749984741211 119.01699829101562,-76.7490005493164 C91.50900268554688,-51.28499984741211 25.881000518798828,9.395000457763672 4.4019999504089355,30.77199935913086 C-16.676000595092773,51.75 -158.65499877929688,184.30499267578125 -191.91200256347656,206.86000061035156"/></g><g opacity="1" transform="matrix(1,0,0,1,0,0)"><path fill="rgb(240,146,1)" fill-opacity="0.5" d=" M-107.52999877929688,100.30699920654297 C-78.59700012207031,76.47100067138672 92.92400360107422,-72.5989990234375 109.2030029296875,-89.2969970703125 C134.72300720214844,-115.4749984741211 153.7429962158203,-154.42300415039062 124.2229995727539,-171.84100341796875 C153.72999572753906,-164.45199584960938 159.23199462890625,-113.9749984741211 119.01699829101562,-76.7490005493164 C91.50900268554688,-51.28499984741211 25.881999969482422,9.395000457763672 4.4019999504089355,30.77199935913086 C-16.676000595092773,51.75 -158.65499877929688,184.30499267578125 -191.91200256347656,206.86000061035156"/></g><g opacity="1" transform="matrix(1,0,0,1,0,0)"><path fill="rgb(240,146,1)" fill-opacity="0.4" d=" M-115.4020004272461,96.91100311279297 C-87.6729965209961,71.85099792480469 77.83399963378906,-69.89399719238281 102.43499755859375,-94.2239990234375 C128.34100341796875,-119.84500122070312 147.9770050048828,-158.0290069580078 124.2229995727539,-171.84100341796875 C153.72999572753906,-164.45199584960938 159.23199462890625,-113.9749984741211 119.01699829101562,-76.7490005493164 C91.50900268554688,-51.28499984741211 25.881999969482422,9.395000457763672 4.4019999504089355,30.77199935913086 C-16.676000595092773,51.75 -158.65499877929688,184.30499267578125 -191.91200256347656,206.86000061035156"/></g><g opacity="1" transform="matrix(1,0,0,1,0,0)"><path fill="rgb(240,146,1)" fill-opacity="0.3" d=" M-121.96399688720703,92.50299835205078 C-93.10700225830078,68.26000213623047 71.17900085449219,-75.24600219726562 94.60199737548828,-98.25800323486328 C113.37999725341797,-116.70700073242188 145.19400024414062,-154.82699584960938 124.2229995727539,-171.84100341796875 C153.72999572753906,-164.45199584960938 159.23199462890625,-113.9749984741211 119.01699829101562,-76.7490005493164 C91.50900268554688,-51.28499984741211 25.881999969482422,9.395000457763672 4.4019999504089355,30.77199935913086 C-16.676000595092773,51.75 -158.65499877929688,184.30499267578125 -191.91200256347656,206.86000061035156"/></g><g opacity="1" transform="matrix(1,0,0,1,0,0)"><path fill="rgb(240,146,1)" fill-opacity="0.2" d=" M-128.2469940185547,88.49700164794922 C-98.98200225830078,63.909000396728516 61.527000427246094,-76.61100006103516 87.23400115966797,-101.29100036621094 C106.2239990234375,-119.52100372314453 137.34500122070312,-158.6959991455078 124.2229995727539,-171.84100341796875 C153.72999572753906,-164.45199584960938 159.23199462890625,-113.9749984741211 119.01699829101562,-76.7490005493164 C91.50900268554688,-51.28499984741211 25.881999969482422,9.395000457763672 4.4019999504089355,30.77199935913086 C-16.676000595092773,51.75 -158.65499877929688,184.30499267578125 -191.91200256347656,206.86000061035156"/></g><g opacity="1" transform="matrix(1,0,0,1,0,0)"><path fill="rgb(240,146,1)" fill-opacity="0.1" d=" M-135.16799926757812,84.38700103759766 C-106.05599975585938,59.257999420166016 56.29899978637695,-79.6500015258789 80.76100158691406,-103.69000244140625 C99.53600311279297,-122.14099884033203 132.84500122070312,-160.4459991455078 124.2229995727539,-171.84100341796875 C153.72999572753906,-164.45199584960938 159.23199462890625,-113.9749984741211 119.01699829101562,-76.7490005493164 C91.50900268554688,-51.28499984741211 25.881999969482422,9.395000457763672 4.4019999504089355,30.77199935913086 C-16.676000595092773,51.75 -158.65499877929688,184.30499267578125 -191.91200256347656,206.86000061035156"/></g><g opacity="1" transform="matrix(1,0,0,1,0,0)"><path fill="rgb(240,146,1)" fill-opacity="0.05" d=" M-142.2310028076172,80.83200073242188 C-110.68800354003906,54.77399826049805 48.57500076293945,-82.7979965209961 74.28500366210938,-107.65799713134766 C93.20899963378906,-125.95700073242188 128.74400329589844,-160.69400024414062 124.2229995727539,-171.84100341796875 C153.72999572753906,-164.45199584960938 159.23199462890625,-113.9749984741211 119.01699829101562,-76.7490005493164 C91.50900268554688,-51.28499984741211 25.881999969482422,9.395000457763672 4.4019999504089355,30.77199935913086 C-16.676000595092773,51.75 -158.65499877929688,184.30499267578125 -191.91200256347656,206.86000061035156"/></g><g opacity="1" transform="matrix(1,0,0,1,0,0)"><path fill="rgb(255,215,93)" fill-opacity="0.5" d=" M-266.7510070800781,140.14599609375 C-254.73899841308594,128.83099365234375 -169.58599853515625,53.1150016784668 -89.89600372314453,-17.492000579833984 C-26.31800079345703,-73.8239974975586 33.784000396728516,-126.90299987792969 50.48899841308594,-141.4290008544922 C70.35399627685547,-158.70199584960938 98.84500122070312,-178.1959991455078 124.2229995727539,-171.84100341796875 C104.34500122070312,-163.1959991455078 95.23200225830078,-155.97500610351562 55.016998291015625,-118.7490005493164 C27.509000778198242,-93.28500366210938 -33.154998779296875,-38.69599914550781 -58.097999572753906,-16.72800064086914 C-80.41500091552734,2.927000045776367 -136.65499877929688,50.30500030517578 -168.41200256347656,75.86000061035156"/></g><g opacity="1" transform="matrix(1,0,0,1,0,0)"><path fill="rgb(255,215,93)" fill-opacity="0.3" d=" M-266.7510070800781,140.14599609375 C-254.73899841308594,128.83099365234375 -169.58599853515625,53.1150016784668 -89.89600372314453,-17.492000579833984 C-26.31800079345703,-73.8239974975586 33.784000396728516,-126.90299987792969 50.48899841308594,-141.4290008544922 C70.35399627685547,-158.70199584960938 98.84500122070312,-178.1959991455078 124.2229995727539,-171.84100341796875 C109.86000061035156,-158.37100219726562 103.59600067138672,-151.04600524902344 63.38100051879883,-113.81999969482422 C35.87300109863281,-88.35600280761719 -25.325000762939453,-34.23099899291992 -50.268001556396484,-12.262999534606934 C-72.58499908447266,7.392000198364258 -129.28900146484375,55.303001403808594 -161.04600524902344,80.85800170898438"/></g><g opacity="1" transform="matrix(1,0,0,1,0.49799999594688416,-0.04399999976158142)"><path stroke-linecap="round" stroke-linejoin="round" fill-opacity="0" stroke="rgb(225,124,0)" stroke-opacity="1" stroke-width="8" d=" M-266.7510070800781,140.14599609375 C-254.73899841308594,128.83099365234375 -169.58599853515625,53.1150016784668 -89.89600372314453,-17.492000579833984 C-26.31800079345703,-73.8239974975586 33.784000396728516,-126.90299987792969 50.48899841308594,-141.4290008544922 C70.35399627685547,-158.70199584960938 98.84500122070312,-178.1959991455078 124.2229995727539,-171.84100341796875 C153.72999572753906,-164.45199584960938 159.23199462890625,-113.9749984741211 119.01699829101562,-76.7490005493164 C91.50900268554688,-51.28499984741211 25.881000518798828,9.395000457763672 4.4019999504089355,30.77199935913086 C-16.676000595092773,51.75 -158.65499877929688,184.30499267578125 -191.91200256347656,206.86000061035156"/></g></g><g style="display: block;" transform="matrix(1,0,0,1,255.0240020751953,218.65199279785156)" opacity="1"><g opacity="1" transform="matrix(1,0,0,1,0,0)"><path fill="url(#__lottie_element_47696)" fill-opacity="1" d=" M-32.35900115966797,52.89899826049805 C-42.63800048828125,50.691001892089844 -59.73699951171875,37.018001556396484 -54.6619987487793,21.655000686645508 C-50.619998931884766,9.420000076293945 -38.630001068115234,0.7910000085830688 -21.106000900268555,-14.557999610900879 C-3.5339999198913574,-29.948999404907227 37.88199996948242,-66.29100036621094 54.41899871826172,-53.87300109863281 C72.88099670410156,-40.00899887084961 43.70899963378906,0.718999981880188 17.43899917602539,25.275999069213867 C-4.86299991607666,46.124000549316406 -20.57699966430664,55.43000030517578 -32.35900115966797,52.89899826049805z"/></g><g opacity="0" transform="matrix(1,0,0,1,0,0)"><path fill="url(#__lottie_element_47697)" fill-opacity="1" d=" M-48.09000015258789,42.97200012207031 C-51.4010009765625,40.183998107910156 -57.28200149536133,30.027000427246094 -54.6619987487793,21.655000686645508 C-50.81399917602539,9.357000350952148 -38.630001068115234,0.7910000085830688 -21.106000900268555,-14.557999610900879 C-3.5339999198913574,-29.948999404907227 -4.510000228881836,-20.972000122070312 -6.519999980926514,-15.027999877929688 C-8.829999923706055,-8.196000099182129 -84.04499816894531,48.689998626708984 -24.013999938964844,52.48400115966797 C-38.527000427246094,54.52899932861328 -46.7760009765625,44.077999114990234 -48.09000015258789,42.97200012207031z"/></g><g opacity="0" transform="matrix(1,0,0,1,0,0)"><path fill="url(#__lottie_element_47698)" fill-opacity="1" d=" M-46.558998107910156,43.36600112915039 C-49.845001220703125,40.959999084472656 -57.83300018310547,29.31399917602539 -54.6619987487793,21.655000686645508 C-49.733001708984375,9.74899959564209 -38.630001068115234,0.7910000085830688 -21.106000900268555,-14.557999610900879 C-3.5339999198913574,-29.948999404907227 -9.152000427246094,-13.982999801635742 -11.08899974822998,-8.694000244140625 C-13.218999862670898,-2.877000093460083 -22.83099937438965,10.75100040435791 -27.325000762939453,15.87600040435791 C-37.41699981689453,27.385000228881836 -42.87900161743164,46.06100082397461 -46.558998107910156,43.36600112915039z"/></g><g opacity="1" transform="matrix(1,0,0,1,0,0)"><path stroke-linecap="round" stroke-linejoin="round" fill-opacity="0" stroke="rgb(165,82,143)" stroke-opacity="1" stroke-width="6" d=" M-32.35900115966797,52.89899826049805 C-42.63800048828125,50.691001892089844 -59.73699951171875,37.018001556396484 -54.6619987487793,21.655000686645508 C-50.619998931884766,9.420000076293945 -38.630001068115234,0.7910000085830688 -21.106000900268555,-14.557999610900879 C-3.5339999198913574,-29.948999404907227 37.88199996948242,-66.29100036621094 54.41899871826172,-53.87300109863281 C72.88099670410156,-40.00899887084961 43.70899963378906,0.718999981880188 17.43899917602539,25.275999069213867 C-4.86299991607666,46.124000549316406 -20.57699966430664,55.43000030517578 -32.35900115966797,52.89899826049805z"/></g><g opacity="1" transform="matrix(1,0,0,1,0,0)"><path stroke-linecap="round" stroke-linejoin="miter" fill-opacity="0" stroke-miterlimit="4" stroke="rgb(98,50,83)" stroke-opacity="1" stroke-width="6.5" d=" M60.21799850463867,-40.7239990234375 C59.7400016784668,-22.29199981689453 37.7239990234375,6.313000202178955 17.43899917602539,25.275999069213867 C-3.2669999599456787,44.632999420166016 -18.295000076293945,54.03900146484375 -29.768999099731445,53.26100158691406"/></g></g><g style="display: block;" transform="matrix(1,0,0,1,183.79400634765625,407.6109924316406)" opacity="1"><g opacity="1" transform="matrix(1,0,0,1,0,0)"><path fill="rgb(252,206,44)" fill-opacity="1" d=" M-254.4199981689453,182.83099365234375 C-234.55099487304688,165.28900146484375 53.236000061035156,-89.22899627685547 84.66600036621094,-115.49099731445312 C118.46199798583984,-143.72900390625 175.36900329589844,-83.41699981689453 122.71099853515625,-22.700000762939453 C96.39800262451172,7.639999866485596 -117.28199768066406,217.24899291992188 -132.20199584960938,233.19400024414062"/></g><g opacity="1" transform="matrix(1,0,0,1,0,0)"><path fill="rgb(240,146,1)" fill-opacity="0.5" d=" M-140.6699981689453,225.58099365234375 C-125.9469985961914,212.58200073242188 29.83099937438965,56.388999938964844 111.2979965209961,-26.334999084472656 C147.4239959716797,-63.01900100708008 144.70599365234375,-126.11100006103516 84.66600036621094,-115.49099731445312 C118.46199798583984,-143.72900390625 175.36900329589844,-83.41699981689453 122.71099853515625,-22.700000762939453 C96.39800262451172,7.639999866485596 -117.28199768066406,217.24899291992188 -132.20199584960938,233.19400024414062"/></g><g opacity="1" transform="matrix(1,0,0,1,0,0)"><path fill="rgb(240,146,1)" fill-opacity="0.4" d=" M-148.9199981689453,220.33099365234375 C-134.19700622558594,207.33200073242188 23.58099937438965,53.263999938964844 105.0479965209961,-29.459999084472656 C141.1750030517578,-66.14399719238281 141.70599365234375,-126.61100006103516 84.66600036621094,-115.49099731445312 C118.46199798583984,-143.72900390625 175.36900329589844,-83.41699981689453 122.71099853515625,-22.700000762939453 C96.39800262451172,7.639999866485596 -117.28199768066406,217.24899291992188 -132.20199584960938,233.19400024414062"/></g><g opacity="1" transform="matrix(1,0,0,1,0,0)"><path fill="rgb(240,146,1)" fill-opacity="0.3" d=" M-156.1699981689453,215.33099365234375 C-140.29400634765625,199.63900756835938 17.95599937438965,50.638999938964844 98.1729965209961,-32.334999084472656 C133.95899963378906,-69.35099792480469 137.70599365234375,-120.61100006103516 84.66600036621094,-115.49099731445312 C118.46199798583984,-143.72900390625 175.36900329589844,-83.41699981689453 122.71099853515625,-22.700000762939453 C96.39800262451172,7.639999866485596 -117.28199768066406,217.24899291992188 -132.20199584960938,233.19400024414062"/></g><g opacity="1" transform="matrix(1,0,0,1,0,0)"><path fill="rgb(240,146,1)" fill-opacity="0.2" d=" M-163.6699981689453,209.33099365234375 C-148.94700622558594,196.33200073242188 8.331000328063965,49.013999938964844 91.7979965209961,-34.959999084472656 C128.093994140625,-71.47699737548828 133.20599365234375,-114.61100006103516 84.66600036621094,-115.49099731445312 C118.46199798583984,-143.72900390625 175.36900329589844,-83.41699981689453 122.71099853515625,-22.700000762939453 C96.39800262451172,7.639999866485596 -117.28199768066406,217.24899291992188 -132.20199584960938,233.19400024414062"/></g><g opacity="1" transform="matrix(1,0,0,1,0,0)"><path fill="rgb(240,146,1)" fill-opacity="0.1" d=" M-171.4199981689453,203.83099365234375 C-156.69700622558594,190.83200073242188 1.9670000076293945,43.65700149536133 85.1729965209961,-37.834999084472656 C121.95600128173828,-73.86100006103516 131.20599365234375,-112.61100006103516 84.66600036621094,-115.49099731445312 C118.46199798583984,-143.72900390625 175.36900329589844,-83.41699981689453 122.71099853515625,-22.700000762939453 C96.39800262451172,7.639999866485596 -117.28199768066406,217.24899291992188 -132.20199584960938,233.19400024414062"/></g><g opacity="1" transform="matrix(1,0,0,1,0,0)"><path fill="rgb(240,146,1)" fill-opacity="0.05" d=" M-178.9199981689453,197.58099365234375 C-164.19700622558594,184.58200073242188 -4.1579999923706055,41.15700149536133 79.0479965209961,-40.334999084472656 C115.83100128173828,-76.36100006103516 128.20599365234375,-108.11100006103516 84.66600036621094,-115.49099731445312 C118.46199798583984,-143.72900390625 175.36900329589844,-83.41699981689453 122.71099853515625,-22.700000762939453 C96.39800262451172,7.639999866485596 -117.28199768066406,217.24899291992188 -132.20199584960938,233.19400024414062"/></g><g opacity="1" transform="matrix(1,0,0,1,0,0)"><path fill="rgb(255,215,93)" fill-opacity="0.5" d=" M-254.4199981689453,182.83099365234375 C-234.55099487304688,165.28900146484375 53.236000061035156,-89.22899627685547 84.66600036621094,-115.49099731445312 C83.70600128173828,-99.11100006103516 63.31999969482422,-75.4800033569336 29.711000442504883,-44.70000076293945 C-16.79400062561035,-2.1110000610351562 -145.60899353027344,112.88899993896484 -158.20199584960938,126.16400146484375"/></g><g opacity="1" transform="matrix(1,0,0,1,0,0)"><path fill="rgb(255,215,93)" fill-opacity="0.3" d=" M-254.4199981689453,182.83099365234375 C-234.55099487304688,165.28900146484375 53.236000061035156,-89.22899627685547 84.66600036621094,-115.49099731445312 C87.70600128173828,-99.11100006103516 80.70600128173828,-81.11100006103516 37.46099853515625,-40.20000076293945 C7.841000080108643,-12.178999900817871 -136.9709930419922,119.76599884033203 -149.56399536132812,133.04100036621094"/></g><g opacity="1" transform="matrix(1,0,0,1,0,0)"><path fill="rgb(255,215,93)" fill-opacity="0.2" d=" M-254.4199981689453,182.83099365234375 C-234.55099487304688,165.28900146484375 53.236000061035156,-89.22899627685547 84.66600036621094,-115.49099731445312 C93.70600128173828,-98.61100006103516 82.20600128173828,-71.11100006103516 46.46099853515625,-35.95000076293945 C14.845000267028809,-4.85099983215332 -129.25799560546875,125.61100006103516 -141.8509979248047,138.88600158691406"/></g><g opacity="1" transform="matrix(1,0,0,1,0,0)"><path fill="rgb(255,215,93)" fill-opacity="0.1" d=" M-254.4199981689453,182.83099365234375 C-234.55099487304688,165.28900146484375 53.236000061035156,-89.22899627685547 84.66600036621094,-115.49099731445312 C102.70600128173828,-98.61100006103516 82.20600128173828,-62.111000061035156 54.46099853515625,-31.950000762939453 C26.81399917602539,-1.8969999551773071 -124.00700378417969,133.42300415039062 -133.21299743652344,144.38800048828125"/></g><g opacity="1" transform="matrix(1,0,0,1,0,0)"><path stroke-linecap="round" stroke-linejoin="round" fill-opacity="0" stroke="rgb(225,124,0)" stroke-opacity="1" stroke-width="8" d=" M-254.4199981689453,182.83099365234375 C-234.55099487304688,165.28900146484375 53.236000061035156,-89.22899627685547 84.66600036621094,-115.49099731445312 C118.46199798583984,-143.72900390625 175.36900329589844,-83.41699981689453 122.71099853515625,-22.700000762939453 C96.39800262451172,7.639999866485596 -117.28199768066406,217.24899291992188 -132.20199584960938,233.19400024414062"/></g></g><g style="display: block;" transform="matrix(1,0,0,1,293.1709899902344,304.1419982910156)" opacity="1"><g opacity="1" transform="matrix(1,0,0,1,0,0)"><path fill="rgb(244,81,213)" fill-opacity="1" d=" M-34.145999908447266,49.32099914550781 C-44.42499923706055,47.112998962402344 -58.02399826049805,36.18899917602539 -52.94900131225586,20.826000213623047 C-48.90700149536133,8.590999603271484 -40.91699981689453,0.9620000123977661 -23.39299964904785,-14.38700008392334 C-5.821000099182129,-29.777999877929688 28.43899917602539,-55.750999450683594 47.13199996948242,-48.70199966430664 C66.97000122070312,-41.22100067138672 40.422000885009766,0.8899999856948853 14.152000427246094,25.44700050354004 C-8.149999618530273,46.29499816894531 -22.36400032043457,51.85200119018555 -34.145999908447266,49.32099914550781z"/><path fill="url(#__lottie_element_47687)" fill-opacity="1" d=" M-34.145999908447266,49.32099914550781 C-44.42499923706055,47.112998962402344 -58.02399826049805,36.18899917602539 -52.94900131225586,20.826000213623047 C-48.90700149536133,8.590999603271484 -40.91699981689453,0.9620000123977661 -23.39299964904785,-14.38700008392334 C-5.821000099182129,-29.777999877929688 28.43899917602539,-55.750999450683594 47.13199996948242,-48.70199966430664 C66.97000122070312,-41.22100067138672 40.422000885009766,0.8899999856948853 14.152000427246094,25.44700050354004 C-8.149999618530273,46.29499816894531 -22.36400032043457,51.85200119018555 -34.145999908447266,49.32099914550781z"/></g><g opacity="0" transform="matrix(1,0,0,1,0,0)"><path fill="url(#__lottie_element_47688)" fill-opacity="1" d=" M-40.86399841308594,38.95899963378906 C-51.263999938964844,37.422000885009766 -52.37200164794922,29.416000366210938 -49.48099899291992,19.253999710083008 C-45.95500183105469,6.860000133514404 -40.91699981689453,0.9620000123977661 -23.39299964904785,-14.38700008392334 C-5.821000099182129,-29.777999877929688 0.4429999887943268,-27.702999114990234 2.1649999618530273,-22.753999710083008 C5.190999984741211,-14.055000305175781 -7.800000190734863,8.477999687194824 -12.467000007629395,20.003999710083008 C-16.5,29.96500015258789 -33.64500045776367,40.0260009765625 -40.86399841308594,38.95899963378906z"/></g><g opacity="0" transform="matrix(1,0,0,1,0,0)"><path fill="url(#__lottie_element_47689)" fill-opacity="1" d=" M-42.987998962402344,45.005001068115234 C-45.946998596191406,43.659000396728516 -49.944000244140625,39.19300079345703 -50.755001068115234,37.47700119018555 C-53.84000015258789,30.94700050354004 -51.64699935913086,26.865999221801758 -49.48099899291992,19.253999710083008 C-45.95500183105469,6.860000133514404 -40.91699981689453,0.9620000123977661 -23.39299964904785,-14.38700008392334 C-5.821000099182129,-29.777999877929688 0.4429999887943268,-27.702999114990234 2.1649999618530273,-22.753999710083008 C2.5840001106262207,-21.548999786376953 2.696000099182129,-20.07900047302246 2.565000057220459,-18.40999984741211 C1.7519999742507935,-8.024999618530273 -5.810999870300293,7.935999870300293 -18.746999740600586,18.635000228881836 C-28.142000198364258,26.405000686645508 -37.93600082397461,38.1150016784668 -42.987998962402344,45.005001068115234z"/></g><g opacity="1" transform="matrix(1,0,0,1,0,0)"><path stroke-linecap="round" stroke-linejoin="round" fill-opacity="0" stroke="rgb(165,82,143)" stroke-opacity="1" stroke-width="6" d=" M-34.145999908447266,49.32099914550781 C-44.42499923706055,47.112998962402344 -58.02399826049805,36.18899917602539 -52.94900131225586,20.826000213623047 C-48.90700149536133,8.590999603271484 -40.91699981689453,0.9620000123977661 -23.39299964904785,-14.38700008392334 C-5.821000099182129,-29.777999877929688 28.43899917602539,-55.750999450683594 47.13199996948242,-48.70199966430664 C66.97000122070312,-41.22100067138672 40.422000885009766,0.8899999856948853 14.152000427246094,25.44700050354004 C-8.149999618530273,46.29499816894531 -22.36400032043457,51.85200119018555 -34.145999908447266,49.32099914550781z"/></g><g opacity="1" transform="matrix(1,0,0,1,0,0)"><path stroke-linecap="round" stroke-linejoin="miter" fill-opacity="0" stroke-miterlimit="4" stroke="rgb(98,50,83)" stroke-opacity="1" stroke-width="6" d=" M53.84700012207031,-34.891998291015625 C51.71900177001953,-18.445999145507812 32.8650016784668,7.953999996185303 14.152000427246094,25.44700050354004 C-4.804999828338623,43.167999267578125 -17.91900062561035,49.840999603271484 -28.66200065612793,49.88999938964844"/></g></g><g style="display: block;" transform="matrix(1,0,0,1,336.11297607421875,241.19400024414062)" opacity="1"><g opacity="1" transform="matrix(1,0,0,1,0,0)"><path fill="rgb(244,81,213)" fill-opacity="1" d=" M-32.972999572753906,41.62900161743164 C-22.642000198364258,42.349998474121094 -14.560999870300293,41.33100128173828 -7.822999954223633,38.98699951171875 C3.446000099182129,35.06700134277344 10.956999778747559,27.441999435424805 18.94700050354004,18.058000564575195 C33.63600158691406,0.8059999942779541 37.066001892089844,-21.208999633789062 34.654998779296875,-41.724998474121094 C34.16699981689453,-53.891998291015625 24.016000747680664,-55.68899917602539 16.12700080871582,-46.72600173950195 C2.885999917984009,-29.444000244140625 -6.863999843597412,-17.944000244140625 -9.994000434875488,4.734000205993652 C-11.906000137329102,18.586999893188477 -17.613000869750977,31.805999755859375 -32.972999572753906,41.62900161743164z"/><path fill="url(#__lottie_element_47680)" fill-opacity="1" d=" M-32.972999572753906,41.62900161743164 C-22.642000198364258,42.349998474121094 -14.560999870300293,41.33100128173828 -7.822999954223633,38.98699951171875 C3.446000099182129,35.06700134277344 10.956999778747559,27.441999435424805 18.94700050354004,18.058000564575195 C33.63600158691406,0.8059999942779541 37.066001892089844,-21.208999633789062 34.654998779296875,-41.724998474121094 C34.16699981689453,-53.891998291015625 24.016000747680664,-55.68899917602539 16.12700080871582,-46.72600173950195 C2.885999917984009,-29.444000244140625 -6.863999843597412,-17.944000244140625 -9.994000434875488,4.734000205993652 C-11.906000137329102,18.586999893188477 -17.613000869750977,31.805999755859375 -32.972999572753906,41.62900161743164z"/></g><g opacity="0" transform="matrix(1,0,0,1,0,0)"><path fill="rgb(255,195,249)" fill-opacity="1" d=" M-18.770999908447266,45.39799880981445 C-18.283000946044922,46.064998626708984 -14.107999801635742,45.24599838256836 -12.166000366210938,44.69599914550781 C-11.348999977111816,44.42399978637695 -11.682999610900879,43.650001525878906 -12.0649995803833,43.12200164794922 C-12.446999549865723,42.59400177001953 -14.593000411987305,43.17900085449219 -15.567999839782715,43.875 C-16.542999267578125,44.57099914550781 -17.670000076293945,45.249000549316406 -18.770999908447266,45.39799880981445z"/></g><g opacity="1" transform="matrix(1,0,0,1,0,0)"><path stroke-linecap="round" stroke-linejoin="round" fill-opacity="0" stroke="rgb(165,82,143)" stroke-opacity="1" stroke-width="7" d=" M-32.972999572753906,41.62900161743164 C-22.642000198364258,42.349998474121094 -14.560999870300293,41.33100128173828 -7.822999954223633,38.98699951171875 C3.446000099182129,35.06700134277344 10.956999778747559,27.441999435424805 18.94700050354004,18.058000564575195 C33.63600158691406,0.8059999942779541 37.066001892089844,-21.208999633789062 34.654998779296875,-41.724998474121094 C34.16699981689453,-53.891998291015625 24.016000747680664,-55.68899917602539 16.12700080871582,-46.72600173950195 C2.885999917984009,-29.444000244140625 -6.863999843597412,-17.944000244140625 -9.994000434875488,4.734000205993652 C-11.906000137329102,18.586999893188477 -17.613000869750977,31.805999755859375 -32.972999572753906,41.62900161743164z"/></g><g opacity="1" transform="matrix(1,0,0,1,0,0)"><path stroke-linecap="round" stroke-linejoin="round" fill-opacity="0" stroke="rgb(98,50,83)" stroke-opacity="1" stroke-width="8" d=" M-32.972999572753906,41.62900161743164 C-22.642000198364258,42.349998474121094 -14.560999870300293,41.33100128173828 -7.822999954223633,38.98699951171875 C3.446000099182129,35.06700134277344 10.956999778747559,27.441999435424805 18.94700050354004,18.058000564575195 C33.63600158691406,0.8059999942779541 37.066001892089844,-21.208999633789062 34.654998779296875,-41.724998474121094 C34.2130012512207,-52.75600051879883 25.827999114990234,-55.26300048828125 18.386999130249023,-48.95600128173828"/></g></g><g style="display: block;" transform="matrix(1,0,0,1,382.01397705078125,130.37701416015625)" opacity="1"><g opacity="1" transform="matrix(1,0,0,1,0,0)"><path fill="rgb(244,81,213)" fill-opacity="1" d=" M1.6720000505447388,-76.93699645996094 C1.6720000505447388,-76.93699645996094 -30.093000411987305,64.49500274658203 -30.093000411987305,64.49500274658203 C-30.093000411987305,64.49500274658203 -23.2450008392334,71.51399993896484 -10.722999572753906,69.49700164794922 C-7.208000183105469,58.4370002746582 29.833999633789062,-70.59200286865234 29.833999633789062,-70.59200286865234"/><path fill="url(#__lottie_element_47676)" fill-opacity="1" d=" M1.6720000505447388,-76.93699645996094 C1.6720000505447388,-76.93699645996094 -30.093000411987305,64.49500274658203 -30.093000411987305,64.49500274658203 C-30.093000411987305,64.49500274658203 -23.2450008392334,71.51399993896484 -10.722999572753906,69.49700164794922 C-7.208000183105469,58.4370002746582 29.833999633789062,-70.59200286865234 29.833999633789062,-70.59200286865234"/><path stroke-linecap="round" stroke-linejoin="round" fill-opacity="0" stroke="rgb(165,82,143)" stroke-opacity="1" stroke-width="7" d=" M1.6720000505447388,-76.93699645996094 C1.6720000505447388,-76.93699645996094 -30.093000411987305,64.49500274658203 -30.093000411987305,64.49500274658203 C-30.093000411987305,64.49500274658203 -23.2450008392334,71.51399993896484 -10.722999572753906,69.49700164794922 C-7.208000183105469,58.4370002746582 29.833999633789062,-70.59200286865234 29.833999633789062,-70.59200286865234"/></g><g opacity="1" transform="matrix(1,0,0,1,0,0)"><path stroke-linecap="round" stroke-linejoin="round" fill-opacity="0" stroke="rgb(98,50,83)" stroke-opacity="1" stroke-width="8" d=" M-11.579999923706055,69.62200164794922 C-11.29699993133545,69.58499908447266 -11.01200008392334,69.54399871826172 -10.722999572753906,69.49700164794922 C-7.208000183105469,58.4370002746582 29.833999633789062,-70.59200286865234 29.833999633789062,-70.59200286865234"/></g></g><g style="display: block;" transform="matrix(1,0,0,1,414.4949951171875,-4.614999771118164)" opacity="1"><g opacity="1" transform="matrix(1,0,0,1,0,0)"><path fill="url(#__lottie_element_47672)" fill-opacity="1" d=" M-61.347999572753906,48.39099884033203 C-65.81900024414062,81.79499816894531 18.891000747680664,98.26100158691406 29.54400062561035,68.18199920654297 C38.66699981689453,42.42300033569336 61.5260009765625,-60.84400177001953 61.5260009765625,-60.84400177001953 C61.5260009765625,-60.84400177001953 -39.32400131225586,-83.60800170898438 -39.32400131225586,-83.60800170898438 C-39.32400131225586,-83.60800170898438 -56.36899948120117,11.194999694824219 -61.347999572753906,48.39099884033203z"/></g><g opacity="1" transform="matrix(1,0,0,1,0,0)"><path stroke-linecap="round" stroke-linejoin="miter" fill-opacity="0" stroke-miterlimit="4" stroke="rgb(165,82,143)" stroke-opacity="0.5" stroke-width="4" d=" M-59.494998931884766,42.8650016784668 C-57.994998931884766,50.8650016784668 -42.744998931884766,66.36499786376953 -20.110000610351562,70.88600158691406 C2.8910000324249268,75.4800033569336 20.2549991607666,71.11499786376953 29.7549991607666,63.1150016784668"/></g><g opacity="0.85" transform="matrix(1,0,0,1,0,0)"><path stroke-linecap="round" stroke-linejoin="miter" fill-opacity="0" stroke-miterlimit="4" stroke="rgb(98,50,83)" stroke-opacity="1" stroke-width="4" d=" M-13.081999778747559,72.03900146484375 C6.436999797821045,74.5270004272461 21.24799919128418,70.27799987792969 29.7549991607666,63.1150016784668"/></g><g opacity="1" transform="matrix(1,0,0,1,0,0)"><path stroke-linecap="round" stroke-linejoin="round" fill-opacity="0" stroke="rgb(165,82,143)" stroke-opacity="1" stroke-width="7" d=" M-61.347999572753906,48.39099884033203 C-65.81900024414062,81.79499816894531 18.891000747680664,98.26100158691406 29.54400062561035,68.18199920654297 C38.66699981689453,42.42300033569336 61.5260009765625,-60.84400177001953 61.5260009765625,-60.84400177001953 C61.5260009765625,-60.84400177001953 -39.32400131225586,-83.60800170898438 -39.32400131225586,-83.60800170898438 C-39.32400131225586,-83.60800170898438 -56.36899948120117,11.194999694824219 -61.347999572753906,48.39099884033203z"/></g><g opacity="1" transform="matrix(1,0,0,1,0,0)"><path stroke-linecap="round" stroke-linejoin="round" fill-opacity="0" stroke="rgb(98,50,83)" stroke-opacity="1" stroke-width="8" d=" M-15.135000228881836,83.18599700927734 C4.8379998207092285,85.85299682617188 24.735000610351562,81.75900268554688 29.54400062561035,68.18199920654297 C38.66699981689453,42.42300033569336 61.5260009765625,-60.84400177001953 61.5260009765625,-60.84400177001953 C61.5260009765625,-60.84400177001953 -39.32400131225586,-83.60800170898438 -39.32400131225586,-83.60800170898438 C-39.32400131225586,-83.60800170898438 -39.516998291015625,-82.53299713134766 -39.86899948120117,-80.56600189208984"/></g></g></g></g></svg>