<svg xmlns="http://www.w3.org/2000/svg" xmlns:xlink="http://www.w3.org/1999/xlink" viewBox="0 0 512 512" width="512" height="512" style="width: 100%; height: 100%; transform: translate3d(0,0,0);" preserveAspectRatio="xMidYMid meet"><defs><clipPath id="__lottie_element_43973"><rect width="512" height="512" x="0" y="0"/></clipPath></defs><g clip-path="url(#__lottie_element_43973)"><g style="display: block;" transform="matrix(0,-1,1,0,203.33399963378906,164.52000427246094)" opacity="1"><g opacity="1" transform="matrix(1,0,0,1,0,0)"><path fill="rgb(252,206,44)" fill-opacity="1" d=" M-17.027000427246094,-28.003999710083008 C-42.54499816894531,-27.798999786376953 -78.52799987792969,-26.93600082397461 -121.89099884033203,-22.843000411987305 C-121.89099884033203,-22.843000411987305 -43.529998779296875,28.666000366210938 -43.529998779296875,28.666000366210938 C-33.31999969482422,28.374000549316406 -3.0390000343322754,27.222999572753906 26.702999114990234,26.018999099731445 C55.446998596191406,24.854999542236328 83.68599700927734,23.641000747680664 92.82099914550781,23.10300064086914 C129.97000122070312,20.916000366210938 131.98199462890625,-23.38599967956543 92.98600006103516,-26.040000915527344 C73.97000122070312,-27.333999633789062 30.969999313354492,-28.333999633789062 11.920000076293945,-28.128000259399414 C4.8520002365112305,-28.052000045776367 -4.9070000648498535,-28.101999282836914 -17.027000427246094,-28.003999710083008z"/><path fill="rgb(240,146,1)" fill-opacity="0.6" d=" M-17.027000427246094,-28.003999710083008 C-42.54499816894531,-27.798999786376953 -78.52799987792969,-26.93600082397461 -121.89099884033203,-22.843000411987305 C-121.89099884033203,-22.843000411987305 -43.529998779296875,28.666000366210938 -43.529998779296875,28.666000366210938 C-33.31999969482422,28.374000549316406 -3.0390000343322754,27.222999572753906 26.702999114990234,26.018999099731445 C55.446998596191406,24.854999542236328 83.68599700927734,23.641000747680664 92.82099914550781,23.10300064086914 C129.97000122070312,20.916000366210938 131.98199462890625,-23.38599967956543 92.98600006103516,-26.040000915527344 C73.97000122070312,-27.333999633789062 30.969999313354492,-28.333999633789062 11.920000076293945,-28.128000259399414 C4.8520002365112305,-28.052000045776367 -4.9070000648498535,-28.101999282836914 -17.027000427246094,-28.003999710083008z"/></g></g><g style="display: block;" transform="matrix(1,0,0,1,239.3900146484375,333.57598876953125)" opacity="1"><g opacity="1" transform="matrix(1,0,0,1,0,0)"><path fill="rgb(252,206,44)" fill-opacity="1" d=" M137.7570037841797,105.7979965209961 C142.23500061035156,100.24400329589844 128.0780029296875,60.01900100708008 127.05899810791016,44.1870002746582 C126.10900115966797,29.423999786376953 145.10899353027344,-2.5759999752044678 144.56199645996094,-41.0260009765625 C144.26199340820312,-62.095001220703125 142.85899353027344,-80.0770034790039 135.61500549316406,-95.65799713134766 C129.74899291992188,-108.2760009765625 111.86000061035156,-118.8270034790039 97.56400299072266,-114.38200378417969 C80.11000061035156,-134.32699584960938 58.85900115966797,-130.8260040283203 47.70899963378906,-123.8010025024414 C34.35900115966797,-141.3260040283203 5.109000205993652,-142.82699584960938 -7.36899995803833,-125.802001953125 C-23.197999954223633,-128.28900146484375 -60.11000061035156,-35.084999084472656 -60.1879997253418,-52.70000076293945 C-60.39099884033203,-98.82599639892578 -66.30899810791016,-115.59700012207031 -85.66699981689453,-134.3820037841797 C-95.14099884033203,-143.5760040283203 -110.43299865722656,-144.30299377441406 -118.77200317382812,-143.2949981689453 C-145.39100646972656,-140.0760040283203 -141.10400390625,-120.3499984741211 -136.8719940185547,-115.56600189208984 C-129.14100646972656,-106.82599639892578 -120.39099884033203,-98.32599639892578 -112.927001953125,-84.2239990234375 C-105.85299682617188,-70.86000061035156 -102.89099884033203,-27.826000213623047 -90.41500091552734,0.6579999923706055 C-74.38200378417969,37.26300048828125 -37.310001373291016,50.61199951171875 -28.163000106811523,57.08000183105469 C-30.159000396728516,75.63200378417969 -42.152000427246094,103.08200073242188 -37.994998931884766,111.10800170898438 C-26.18199920654297,133.91099548339844 83.60399627685547,172.9720001220703 137.7570037841797,105.7979965209961z"/><path fill="rgb(240,146,1)" fill-opacity="0.6" d=" M137.7570037841797,105.7979965209961 C142.23500061035156,100.24400329589844 128.0780029296875,60.01900100708008 127.05899810791016,44.1870002746582 C126.10900115966797,29.423999786376953 145.10899353027344,-2.5759999752044678 144.56199645996094,-41.0260009765625 C144.26199340820312,-62.095001220703125 142.85899353027344,-80.0770034790039 135.61500549316406,-95.65799713134766 C129.74899291992188,-108.2760009765625 111.86000061035156,-118.8270034790039 97.56400299072266,-114.38200378417969 C80.11000061035156,-134.32699584960938 58.85900115966797,-130.8260040283203 47.70899963378906,-123.8010025024414 C34.35900115966797,-141.3260040283203 5.109000205993652,-142.82699584960938 -7.36899995803833,-125.802001953125 C-23.197999954223633,-128.28900146484375 -60.11000061035156,-35.084999084472656 -60.1879997253418,-52.70000076293945 C-60.39099884033203,-98.82599639892578 -66.30899810791016,-115.59700012207031 -85.66699981689453,-134.3820037841797 C-95.14099884033203,-143.5760040283203 -110.43299865722656,-144.30299377441406 -118.77200317382812,-143.2949981689453 C-145.39100646972656,-140.0760040283203 -141.10400390625,-120.3499984741211 -136.8719940185547,-115.56600189208984 C-129.14100646972656,-106.82599639892578 -120.39099884033203,-98.32599639892578 -112.927001953125,-84.2239990234375 C-105.85299682617188,-70.86000061035156 -102.89099884033203,-27.826000213623047 -90.41500091552734,0.6579999923706055 C-74.38200378417969,37.26300048828125 -37.310001373291016,50.61199951171875 -28.163000106811523,57.08000183105469 C-30.159000396728516,75.63200378417969 -42.152000427246094,103.08200073242188 -37.994998931884766,111.10800170898438 C-26.18199920654297,133.91099548339844 83.60399627685547,172.9720001220703 137.7570037841797,105.7979965209961z"/></g></g><g style="display: block;" transform="matrix(0,-1,1,0,288.9049987792969,428.58099365234375)" opacity="1"><g opacity="1" transform="matrix(1,0,0,1,0,0)"><path stroke-linecap="round" stroke-linejoin="round" fill-opacity="0" stroke="rgb(225,124,0)" stroke-opacity="1" stroke-width="8" d=" M37.78099822998047,-77.52999877929688 C30.854000091552734,-77.16999816894531 12.118000030517578,-83.37899780273438 4.026000022888184,-85.44499969482422 C-3.4749999046325684,-87.36100006103516 -13.687999725341797,-91.82099914550781 -19.44499969482422,-84.7239990234375 C-56.49399948120117,-39.04899978637695 -61.270999908447266,50.034000396728516 -11.416999816894531,87.76000213623047 C-10.279999732971191,88.62100219726562 -8.60099983215332,88.73200225830078 -7.197999954223633,88.4749984741211 C10.60099983215332,85.21800231933594 30.32699966430664,80.4990005493164 48.03099822998047,76.76200103759766"/></g></g><g style="display: block;" transform="matrix(1,0,0,1,304.02099609375,430.15399169921875)" opacity="1"><g opacity="0.2" transform="matrix(1,0,0,1,0,0)"><path fill="rgb(252,206,44)" fill-opacity="1" d=" M-62.81999969482422,-10.482999801635742 C-67.22799682617188,5.395999908447266 -75.92500305175781,24.988000869750977 -58.595001220703125,30.177000045776367 C-11.270999908447266,44.34600067138672 25.048999786376953,34.542999267578125 43.595001220703125,22.875999450683594 C59.24599838256836,13.031000137329102 62.974998474121094,-1.062000036239624 55.9379997253418,-22.608999252319336 C50.983001708984375,-37.78200149536133 43.49700164794922,-43.904998779296875 11.394000053405762,-31.732999801635742 C-16.489999771118164,-21.160999298095703 -54.25199890136719,-41.34600067138672 -62.81999969482422,-10.482999801635742z"/></g><g opacity="0.5" transform="matrix(1,0,0,1,0,0)"><path fill="rgb(252,206,44)" fill-opacity="1" d=" M-54.5260009765625,-8.045999526977539 C-58.49800109863281,6.01200008392334 -65.52100372314453,24.7549991607666 -49.81800079345703,29.055999755859375 C-17.993999481201172,37.77299880981445 14.979000091552734,34.595001220703125 37.604000091552734,21.909000396728516 C52.064998626708984,13.800000190734863 58.474998474121094,-0.9480000138282776 52.13399887084961,-20.023000717163086 C47.667999267578125,-33.45600128173828 39.119998931884766,-38.654998779296875 10.190999984741211,-27.878999710083008 C-14.937000274658203,-18.520000457763672 -46.80500030517578,-35.36899948120117 -54.5260009765625,-8.045999526977539z"/></g><g opacity="0.8" transform="matrix(1,0,0,1,0,0)"><path fill="rgb(252,206,44)" fill-opacity="1" d=" M-44.599998474121094,-6.605000019073486 C-48.20800018310547,6.109000205993652 -54.58700180053711,23.062000274658203 -40.32400131225586,26.951000213623047 C-11.418999671936035,34.834999084472656 17.58799934387207,29.4950008392334 32.768001556396484,20.15399932861328 C45.577999114990234,12.270999908447266 53.04199981689453,-0.8640000224113464 47.28200149536133,-18.115999221801758 C43.22600173950195,-30.264999389648438 35.46200180053711,-34.96699905395508 9.185999870300293,-25.22100067138672 C-13.63700008392334,-16.756000518798828 -37.5880012512207,-31.316999435424805 -44.599998474121094,-6.605000019073486z"/></g><g opacity="1" transform="matrix(1,0,0,1,0,0)"><path fill="rgb(252,206,44)" fill-opacity="1" d=" M-34.77399826049805,-5.796999931335449 C-37.573001861572266,5.3460001945495605 -43.520999908447266,21.202999114990234 -32.45600128173828,24.613000869750977 C-10.031999588012695,31.523000717163086 15.833999633789062,26.246999740600586 27.610000610351562,18.059999465942383 C37.54800033569336,11.151000022888184 40.974998474121094,-0.7649999856948853 36.50699996948242,-15.88599967956543 C33.36000061035156,-26.534000396728516 27.33799934387207,-30.655000686645508 6.953000068664551,-22.113000869750977 C-10.753000259399414,-14.694000244140625 -29.333999633789062,-27.45599937438965 -34.77399826049805,-5.796999931335449z"/></g></g><g style="display: block;" transform="matrix(1,0,0,1,256,199.66299438476562)" opacity="1"><g opacity="0.2" transform="matrix(1,0,0,1,0,0)"><path fill="rgb(252,206,44)" fill-opacity="1" d=" M-78.25,-132.08399963378906 C-79.34300231933594,-122.58599853515625 -80.98600006103516,-88.39900207519531 -80.87799835205078,-59.94499969482422 C-80.73500061035156,-22.43899917602539 -80.75,127.58699798583984 -76.58499908447266,147.64199829101562 C-72,153.33700561523438 -32.75,188.83700561523438 27.440000534057617,189.31199645996094 C82.25,189.7449951171875 104.75,160.33700561523438 121.25,110.75 C128.7220001220703,88.2959976196289 126.64399719238281,60.18299865722656 124.625,54.375 C121.875,46.46200180053711 119.5,32.83700180053711 106.6240005493164,24.41200065612793 C101.54000091552734,21.084999084472656 87.75,18.336999893188477 80.125,19.25 C74,15.336999893188477 69.625,4.211999893188477 52.077999114990234,4.261000156402588 C39.07600021362305,4.296999931335449 36.25,7.586999893188477 31.125,9.125 C25.5,6.586999893188477 17.496000289916992,-4.551000118255615 2.492000102996826,-4.269999980926514 C-13.253000259399414,-3.9760000705718994 -20.75,4.336999893188477 -23.44499969482422,5.232999801635742 C-28.493000030517578,6.9120001792907715 -23.25,-73.4260025024414 -30.25,-134.8560028076172 C-33.40299987792969,-162.52499389648438 -74.875,-161.41299438476562 -78.25,-132.08399963378906z"/></g><g opacity="0.4" transform="matrix(1,0,0,1,0,0)"><path fill="rgb(252,206,44)" fill-opacity="1" d=" M-78.25,-132.08399963378906 C-79.34300231933594,-122.58599853515625 -80.98600006103516,-88.39900207519531 -80.87799835205078,-59.94499969482422 C-80.73500061035156,-22.43899917602539 -77.75,119.33699798583984 -77.45999908447266,137.26699829101562 C-74.51699829101562,140.30599975585938 -69.91300201416016,144.76499938964844 -63.60200119018555,149.6699981689453 C-58.58599853515625,153.56900024414062 -52.492000579833984,157.75 -45.29499816894531,161.72500610351562 C-35.999000549316406,166.86000061035156 -24.863000869750977,171.65199279785156 -11.83899974822998,175.0500030517578 C-0.38499999046325684,178.03799438476562 12.531000137329102,179.94700622558594 26.94099998474121,180.06199645996094 C40.895999908447266,180.1739959716797 53.23099899291992,178.12100219726562 64.20500183105469,173.7519989013672 C76.2300033569336,168.96499633789062 86.61900329589844,161.39599609375 95.71700286865234,150.843994140625 C101.70500183105469,143.8979949951172 107.13500213623047,135.65899658203125 112.0999984741211,126.06999969482422 C116.68599700927734,117.21299743652344 120.87699890136719,107.20500183105469 124.75,96 C125.5,88.58699798583984 126.64399719238281,60.18299865722656 124.625,54.375 C121.875,46.46200180053711 119.5,32.83700180053711 106.6240005493164,24.41200065612793 C101.54000091552734,21.084999084472656 87.75,18.336999893188477 80.125,19.25 C74,15.336999893188477 69.625,4.211999893188477 52.077999114990234,4.261000156402588 C39.07600021362305,4.296999931335449 36.25,7.586999893188477 31.125,9.125 C25.5,6.586999893188477 17.496000289916992,-4.551000118255615 2.492000102996826,-4.269999980926514 C-13.253000259399414,-3.9760000705718994 -20.75,4.336999893188477 -23.44499969482422,5.232999801635742 C-28.493000030517578,6.913000106811523 -23.25,-73.4260025024414 -30.25,-134.8560028076172 C-33.40299987792969,-162.52499389648438 -74.875,-161.41299438476562 -78.25,-132.08399963378906z"/></g><g opacity="0.6" transform="matrix(1,0,0,1,0,0)"><path fill="rgb(252,206,44)" fill-opacity="1" d=" M-78.25,-132.08399963378906 C-79.34300231933594,-122.58599853515625 -80.98600006103516,-88.39900207519531 -80.87799835205078,-59.94499969482422 C-80.73500061035156,-22.43899917602539 -79.125,107.46199798583984 -77.20999908447266,126.26699829101562 C-74.66600036621094,129.3249969482422 -70.15299987792969,134.0290069580078 -63.685001373291016,139.24400329589844 C-58.69900131225586,143.26400756835938 -52.55099868774414,147.58700561523438 -45.24599838256836,151.6929931640625 C-36.13800048828125,156.81199645996094 -25.233999252319336,161.593994140625 -12.541999816894531,165.02999877929688 C-0.8190000057220459,168.20399475097656 12.428999900817871,170.22900390625 27.19099998474121,170.31199645996094 C42.59400177001953,170.3979949951172 55.89500045776367,168.0919952392578 67.55899810791016,163.18600463867188 C79.00299835205078,158.3719940185547 88.87100219726562,151.05499267578125 97.5979995727539,141.0399932861328 C102.93699645996094,134.91299438476562 107.8479995727539,127.7760009765625 112.43299865722656,119.58399963378906 C117.04399871826172,111.34600067138672 121.3239974975586,102.04199981689453 125.375,91.625 C126.625,83.58699798583984 126.64399719238281,60.18299865722656 124.625,54.375 C121.875,46.46200180053711 119.5,32.83700180053711 106.6240005493164,24.41200065612793 C101.54000091552734,21.084999084472656 87.75,18.336999893188477 80.125,19.25 C74,15.336999893188477 69.625,4.211999893188477 52.077999114990234,4.261000156402588 C39.07600021362305,4.296999931335449 36.25,7.586999893188477 31.125,9.125 C25.5,6.586999893188477 17.496000289916992,-4.551000118255615 2.492000102996826,-4.269999980926514 C-13.253000259399414,-3.9760000705718994 -20.75,4.336999893188477 -23.44499969482422,5.232999801635742 C-28.493000030517578,6.913000106811523 -23.25,-73.4260025024414 -30.25,-134.8560028076172 C-33.40299987792969,-162.52499389648438 -74.875,-161.41299438476562 -78.25,-132.08399963378906z"/></g><g opacity="0.7000000000000001" transform="matrix(1,0,0,1,0,0)"><path fill="rgb(252,206,44)" fill-opacity="1" d=" M-78.25,-132.08399963378906 C-79.34300231933594,-122.58599853515625 -80.98600006103516,-88.39900207519531 -80.87799835205078,-59.94499969482422 C-80.73500061035156,-22.43899917602539 -79,95.83699798583984 -77.08499908447266,116.14199829101562 C-75.32099914550781,118.63300323486328 -71.1780014038086,123.22200012207031 -64.81900024414062,128.55799865722656 C-59.86800003051758,132.71299743652344 -53.573001861572266,137.32000732421875 -46.0099983215332,141.74200439453125 C-36.606998443603516,147.24000549316406 -25.243000030517578,152.4510040283203 -12.067000389099121,156.14999389648438 C-0.5770000219345093,159.375 12.289999961853027,161.4499969482422 26.440000534057617,161.56199645996094 C43.625999450683594,161.697998046875 57.52399826049805,159.51400756835938 69.20099639892578,154.97000122070312 C80.50599670410156,150.57000732421875 89.72899627685547,143.95899963378906 97.83599853515625,135.0959930419922 C103.08999633789062,129.35299682617188 107.8740005493164,122.66400146484375 112.4540023803711,115.02100372314453 C116.78700256347656,107.78900146484375 120.93699645996094,99.70099639892578 125.125,90.75 C126.375,81.96199798583984 126.64399719238281,60.18299865722656 124.625,54.375 C121.875,46.46200180053711 119.5,32.83700180053711 106.6240005493164,24.41200065612793 C101.54000091552734,21.084999084472656 87.75,18.336999893188477 80.125,19.25 C74,15.336999893188477 69.625,4.211999893188477 52.077999114990234,4.261000156402588 C39.07600021362305,4.296999931335449 36.25,7.586999893188477 31.125,9.125 C25.5,6.586999893188477 17.496000289916992,-4.551000118255615 2.492000102996826,-4.269999980926514 C-13.253000259399414,-3.9760000705718994 -20.75,4.335999965667725 -23.44499969482422,5.232999801635742 C-28.493000030517578,6.9120001792907715 -23.25,-73.4260025024414 -30.25,-134.8560028076172 C-33.40299987792969,-162.52499389648438 -74.875,-161.41299438476562 -78.25,-132.08399963378906z"/></g><g opacity="1" transform="matrix(1,0,0,1,0,0)"><path fill="rgb(252,206,44)" fill-opacity="1" d=" M-78.25,-132.08399963378906 C-79.34300231933594,-122.58599853515625 -80.98600006103516,-88.39900207519531 -80.87799835205078,-59.94499969482422 C-80.73500061035156,-22.43899917602539 -78,83.33699798583984 -76.83499908447266,105.14199829101562 C-75.2030029296875,107.87699890136719 -71.3270034790039,112.50499725341797 -65.36799621582031,117.822998046875 C-60.055999755859375,122.56300354003906 -53.0890007019043,127.8499984741211 -44.577999114990234,132.83399963378906 C-35.145999908447266,138.35699462890625 -23.81800079345703,143.5070037841797 -10.748000144958496,147.1230010986328 C0.4779999852180481,150.22900390625 12.991000175476074,152.20399475097656 26.69099998474121,152.31199645996094 C42.01900100708008,152.43299865722656 54.69200134277344,150.95399475097656 65.51200103759766,147.74600219726562 C76.88899993896484,144.3730010986328 86.21600341796875,139.08900451660156 94.4219970703125,131.7449951171875 C99.62999725341797,127.08499908447266 104.38700103759766,121.59500122070312 108.92900085449219,115.23799896240234 C114.76300048828125,107.0739974975586 120.24299621582031,97.4800033569336 125.875,86.375 C125.875,80.08699798583984 126.64399719238281,60.18299865722656 124.625,54.375 C121.875,46.46200180053711 119.5,32.83700180053711 106.6240005493164,24.41200065612793 C101.54000091552734,21.086000442504883 87.75,18.336999893188477 80.125,19.25 C74,15.336999893188477 69.625,4.211999893188477 52.077999114990234,4.261000156402588 C39.07600021362305,4.296999931335449 36.25,7.586999893188477 31.125,9.125 C25.5,6.586999893188477 17.496000289916992,-4.551000118255615 2.492000102996826,-4.269999980926514 C-13.253000259399414,-3.9760000705718994 -20.75,4.336999893188477 -23.44499969482422,5.232999801635742 C-28.493000030517578,6.913000106811523 -23.25,-73.4260025024414 -30.25,-134.8560028076172 C-33.40299987792969,-162.52499389648438 -74.875,-161.41299438476562 -78.25,-132.08399963378906z"/></g><g opacity="0.2" transform="matrix(1,0,0,1,0,0)"><path fill="rgb(252,206,44)" fill-opacity="1" d=" M-127.25,-10.913000106811523 C-136.25,-10.913000106811523 -157.6529998779297,2.2709999084472656 -139.125,15.336999893188477 C-117.5,30.586999893188477 -113.53399658203125,61.124000549316406 -104.25,99.58699798583984 C-99,121.33699798583984 -87,138.58700561523438 -77,147.83700561523438 C-78.46499633789062,139.18299865722656 -77,105.08699798583984 -75.21499633789062,70.0739974975586 C-73.83899688720703,43.09700012207031 -83.17900085449219,23.58300018310547 -90.25,13.336999893188477 C-102.5,-4.413000106811523 -119.47200012207031,-10.913000106811523 -127.25,-10.913000106811523z"/></g><g opacity="0.4" transform="matrix(1,0,0,1,0,0)"><path fill="rgb(252,206,44)" fill-opacity="1" d=" M-127.25,-10.913000106811523 C-136.25,-10.913000106811523 -154.96400451660156,0.21199999749660492 -136.75,13.711999893188477 C-115.5,29.461999893188477 -105.01899719238281,69.93399810791016 -100.5,89.46199798583984 C-97,104.58699798583984 -89.25,122.83699798583984 -77.5,137.58700561523438 C-77.375,128.33700561523438 -77,105.08699798583984 -75.21499633789062,70.0739974975586 C-73.83899688720703,43.09700012207031 -83.17900085449219,23.58300018310547 -90.25,13.336999893188477 C-102.5,-4.413000106811523 -119.47200012207031,-10.913000106811523 -127.25,-10.913000106811523z"/></g><g opacity="0.6" transform="matrix(1,0,0,1,0,0)"><path fill="rgb(252,206,44)" fill-opacity="1" d=" M-127.25,-10.913000106811523 C-136.25,-10.913000106811523 -152.74899291992188,-0.3199999928474426 -134.375,12.961999893188477 C-113.625,27.961999893188477 -103.5,58.08700180053711 -97.25,83.71199798583984 C-93.33899688720703,99.74600219726562 -88,112.58699798583984 -77.25,126.33699798583984 C-76.75,116.71199798583984 -77,105.08699798583984 -75.21499633789062,70.0739974975586 C-73.83899688720703,43.09700012207031 -83.17900085449219,23.58300018310547 -90.25,13.336999893188477 C-102.5,-4.413000106811523 -119.47200012207031,-10.913000106811523 -127.25,-10.913000106811523z"/></g><g opacity="0.7000000000000001" transform="matrix(1,0,0,1,0,0)"><path fill="rgb(252,206,44)" fill-opacity="1" d=" M-127.25,-10.913000106811523 C-136.25,-10.913000106811523 -150.375,-0.7879999876022339 -132.25,12.086999893188477 C-111.3759994506836,26.913999557495117 -104.5,49.08700180053711 -95.5,76.08699798583984 C-91.32599639892578,88.61000061035156 -83.7509994506836,107.08699798583984 -77.18800354003906,116.33699798583984 C-77.31300354003906,110.08699798583984 -77,105.08699798583984 -75.21499633789062,70.0739974975586 C-73.83899688720703,43.09700012207031 -83.17900085449219,23.58300018310547 -90.25,13.336999893188477 C-102.5,-4.413000106811523 -119.47200012207031,-10.913000106811523 -127.25,-10.913000106811523z"/></g><g opacity="1" transform="matrix(1,0,0,1,0,0)"><path fill="rgb(252,206,44)" fill-opacity="1" d=" M-127.25,-10.913000106811523 C-136.25,-10.913000106811523 -148.5,0.4620000123977661 -129.875,11.211999893188477 C-105.4729995727539,25.29599952697754 -100.697998046875,41.91299819946289 -91.5,72.33699798583984 C-88.25,83.08699798583984 -82.25,97.33699798583984 -76.75,105.83699798583984 C-76.75,96.58699798583984 -77,105.08699798583984 -75.21499633789062,70.0739974975586 C-73.83899688720703,43.09700012207031 -83.17900085449219,23.58300018310547 -90.25,13.336999893188477 C-102.5,-4.413000106811523 -119.47200012207031,-10.913000106811523 -127.25,-10.913000106811523z"/></g></g><g style="display: block;" transform="matrix(1,0,0,1,140.04100036621094,235.3870086669922)" opacity="1"><g opacity="1" transform="matrix(1,0,0,1,0,0)"><path fill="rgb(255,215,93)" fill-opacity="1" d=" M11.937999725341797,-22.665000915527344 C30.461999893188477,-1.9800000190734863 32.93199920654297,15.927000045776367 40.49599838256836,46.95500183105469 C38.64400100708008,18.70599937438965 34.70899963378906,-0.8870000243186951 31.38800048828125,-8.927000045776367 C26.665000915527344,-20.360000610351562 21.458999633789062,-33.387001037597656 9.199000358581543,-39.92499923706055 C-7.645999908447266,-48.90800094604492 -25.32200050354004,-48.643001556396484 -34.15800094604492,-40.74399948120117 C-44.547000885009766,-31.45599937438965 -5.063000202178955,-41.64899826049805 11.937999725341797,-22.665000915527344z"/></g></g><g style="display: block;" transform="matrix(1,0,0,1,306.5039978027344,268.614013671875)" opacity="1"><g opacity="1" transform="matrix(1,0,0,1,0,0)"><path fill="rgb(255,215,93)" fill-opacity="1" d=" M-76.7959976196289,-58.20199966430664 C-65.16699981689453,-51.768001556396484 -65.93399810791016,-60.50400161743164 -48.2239990234375,-59.92599868774414 C-32.071998596191406,-59.39899826049805 -29.138999938964844,-51.3849983215332 -20.96299934387207,-50.36399841308594 C-12.895999908447266,-49.356998443603516 -13.043000221252441,-55.612998962402344 2.5899999141693115,-52.54199981689453 C18.736000061035156,-49.369998931884766 19.395999908447266,-37.358001708984375 25.486000061035156,-36.016998291015625 C31.576000213623047,-34.67499923706055 34.43000030517578,-35.92599868774414 46.005001068115234,-29.641000747680664 C57.529998779296875,-23.382999420166016 63.75899887084961,-8.878000259399414 66.88500213623047,15.798999786376953 C68.53800201416016,28.847999572753906 71.46800231933594,50.45000076293945 66.64700317382812,73.7770004272461 C73.33399963378906,60.09199905395508 75.69000244140625,56.13199996948242 76.63999938964844,27.422000885009766 C77.41000366210938,4.177999973297119 75.63400268554688,-18.336999893188477 64.2699966430664,-36.16999816894531 C51.19200134277344,-56.69300079345703 27.72100067138672,-47.895999908447266 27.72100067138672,-47.895999908447266 C27.72100067138672,-47.895999908447266 23.150999069213867,-63.111000061035156 0.07100000232458115,-65.15699768066406 C-8.206000328063965,-65.88999938964844 -21.84000015258789,-59.167999267578125 -21.84000015258789,-59.167999267578125 C-21.84000015258789,-59.167999267578125 -28.851999282836914,-73.48400115966797 -51.055999755859375,-73.7760009765625 C-57.80799865722656,-73.86499786376953 -75.3479995727539,-66.89700317382812 -76.7959976196289,-58.20199966430664z"/></g><g opacity="1" transform="matrix(1,0,0,1,0,0)"><path fill="rgb(255,215,93)" fill-opacity="1" d=" M-76.7959976196289,-58.20199966430664 C-65.16699981689453,-51.768001556396484 -65.93399810791016,-60.50400161743164 -48.2239990234375,-59.92599868774414 C-32.071998596191406,-59.39899826049805 -29.138999938964844,-51.3849983215332 -20.96299934387207,-50.36399841308594 C-12.895999908447266,-49.356998443603516 -13.043000221252441,-55.612998962402344 2.5899999141693115,-52.54199981689453 C18.736000061035156,-49.369998931884766 19.395999908447266,-37.358001708984375 25.486000061035156,-36.016998291015625 C31.576000213623047,-34.67499923706055 34.43000030517578,-35.92599868774414 46.005001068115234,-29.641000747680664 C57.529998779296875,-23.382999420166016 63.75899887084961,-8.878000259399414 66.88500213623047,15.798999786376953 C68.53800201416016,28.847999572753906 71.46800231933594,50.45000076293945 66.64700317382812,73.7770004272461 C73.33399963378906,60.09199905395508 75.69000244140625,56.13199996948242 76.63999938964844,27.422000885009766 C77.41000366210938,4.177999973297119 75.63400268554688,-18.336999893188477 64.2699966430664,-36.16999816894531 C51.19200134277344,-56.69300079345703 27.72100067138672,-47.895999908447266 27.72100067138672,-47.895999908447266 C27.72100067138672,-47.895999908447266 23.150999069213867,-63.111000061035156 0.07100000232458115,-65.15699768066406 C-8.206000328063965,-65.88999938964844 -21.84000015258789,-59.167999267578125 -21.84000015258789,-59.167999267578125 C-21.84000015258789,-59.167999267578125 -28.851999282836914,-73.48400115966797 -51.055999755859375,-73.7760009765625 C-54.196998596191406,-73.81700134277344 -59.672000885009766,-72.33200073242188 -64.7760009765625,-69.85600280761719 C-66.31600189208984,-69.10900115966797 -67.8219985961914,-68.27100372314453 -69.22000122070312,-67.35800170898438 C-73.14900207519531,-64.79299926757812 -76.2249984741211,-61.63199996948242 -76.7959976196289,-58.20199966430664z"/></g></g><g style="display: block;" transform="matrix(1,0,0,1,204.7779998779297,126.26701354980469)" opacity="1"><g opacity="1" transform="matrix(1,0,0,1,0,0)"><path fill="rgb(255,215,93)" fill-opacity="1" d=" M27.882999420166016,69.88400268554688 C27.81800079345703,74.72100067138672 29.020000457763672,83.322998046875 25.91900062561035,84.0469970703125 C16.347999572753906,84.4020004272461 13.543999671936035,37.244998931884766 12.352999687194824,-0.8330000042915344 C11.807000160217285,-18.275999069213867 11.598999977111816,-33.8129997253418 11.234999656677246,-42.00600051879883 C9.576000213623047,-79.322998046875 -16.513999938964844,-67.37200164794922 -18.554000854492188,-52.505001068115234 C-22.7810001373291,-53.37900161743164 -25.961000442504883,-54.96500015258789 -28.059999465942383,-54.51499938964844 C-19.062000274658203,-100.10700225830078 20.301000595092773,-86.25900268554688 22.649999618530273,-57.624000549316406 C23.33099937438965,-49.323001861572266 24.19499969482422,-18.097000122070312 24.283000946044922,-13.21399974822998 C24.927000045776367,22.538999557495117 25.660999298095703,23.77400016784668 27.882999420166016,69.88400268554688z"/></g></g><g style="display: block;" transform="matrix(1,0,0,1,190.29400634765625,162.32699584960938)" opacity="1"><g opacity="0.5" transform="matrix(1,0,0,1,0,0)"><path fill="rgb(240,146,1)" fill-opacity="1" d=" M-9.628999710083008,119.72899627685547 C-7.177999973297119,119.3290023803711 -7.368000030517578,109.85199737548828 -6.953999996185303,97.10900115966797 C-6.310999870300293,77.34600067138672 -6.46999979019165,49.37699890136719 -6.1479997634887695,32.51499938964844 C-5.071000099182129,-23.867000579833984 -5.808000087738037,-50.88999938964844 -5.348999977111816,-71.5790023803711 C-4.925000190734863,-90.69100189208984 -0.7940000295639038,-118.8270034790039 15.852999687194824,-119.33799743652344 C-11.050000190734863,-123.16500091552734 -14.314000129699707,-98.17900085449219 -14.859999656677246,-75.13899993896484 C-16.030000686645508,-25.82200050354004 -15.840999603271484,6.906000137329102 -15.842000007629395,35.34299850463867 C-15.843000411987305,62.9640007019043 -13.03600025177002,101.13200378417969 -9.628999710083008,119.72899627685547z"/></g><g opacity="0.3" transform="matrix(1,0,0,1,0,0)"><path fill="rgb(240,146,1)" fill-opacity="1" d=" M-9.628999710083008,119.72899627685547 C-7.177999973297119,119.3290023803711 -6.38700008392334,110.16600036621094 -5.078999996185303,97.48400115966797 C-3.2939999103546143,80.1719970703125 -1.7200000286102295,49.62699890136719 -1.3980000019073486,32.76499938964844 C-0.32100000977516174,-23.617000579833984 -1.0579999685287476,-50.63999938964844 -0.5989999771118164,-71.3290023803711 C-0.17499999701976776,-90.44100189208984 3.9560000896453857,-117.3270034790039 15.852999687194824,-119.33799743652344 C-11.050000190734863,-123.16500091552734 -14.314000129699707,-98.17900085449219 -14.859999656677246,-75.13899993896484 C-16.030000686645508,-25.82200050354004 -15.840999603271484,6.906000137329102 -15.842000007629395,35.34299850463867 C-15.843000411987305,62.9640007019043 -13.03600025177002,101.13200378417969 -9.628999710083008,119.72899627685547z"/></g><g opacity="0.1" transform="matrix(1,0,0,1,0,0)"><path fill="rgb(240,146,1)" fill-opacity="1" d=" M-9.628999710083008,119.72899627685547 C-7.177999973297119,119.3290023803711 -4.644999980926514,110.5270004272461 -3.2039999961853027,97.85900115966797 C-0.7940000295639038,76.6719970703125 2.5299999713897705,49.37699890136719 2.8519999980926514,32.51499938964844 C3.928999900817871,-23.867000579833984 4.441999912261963,-51.38999938964844 4.901000022888184,-72.0790023803711 C5.324999809265137,-91.19100189208984 5.205999851226807,-107.8270034790039 15.852999687194824,-119.33799743652344 C-11.050000190734863,-123.16500091552734 -14.314000129699707,-98.17900085449219 -14.859999656677246,-75.13899993896484 C-16.030000686645508,-25.82200050354004 -15.840999603271484,6.906000137329102 -15.842000007629395,35.34299850463867 C-15.843000411987305,62.9640007019043 -13.03600025177002,101.13200378417969 -9.628999710083008,119.72899627685547z"/></g></g><g style="display: block;" transform="matrix(0,-1,1,0,154.61900329589844,289.3900146484375)" opacity="1"><g opacity="1" transform="matrix(1,0,0,1,0,0)"><path stroke-linecap="round" stroke-linejoin="round" fill-opacity="0" stroke="rgb(225,124,0)" stroke-opacity="1" stroke-width="8" d=" M-100.73999786376953,55.7130012512207 C-89.42500305175781,38.194000244140625 -84.19400024414062,18.961999893188477 -60.071998596191406,3.678999900817871 C-23.5310001373291,-19.472999572753906 2.5769999027252197,-15.661999702453613 28.131000518798828,-23.757999420166016 C56.88999938964844,-32.86899948120117 63.59600067138672,-47.10599899291992 76.51100158691406,-54.20000076293945 C82.82499694824219,-57.66899871826172 89.38400268554688,-54.89099884033203 94.08300018310547,-48.71699905395508 C101.81900024414062,-38.551998138427734 104.51200103759766,-19.179000854492188 92.76399993896484,-3.319000005722046 C81.71499633789062,11.597000122070312 57.61800003051758,20.59000015258789 31.176000595092773,23.361000061035156"/></g></g><g style="display: block;" transform="matrix(0,-1,1,0,203.33399963378906,164.52000427246094)" opacity="1"><g opacity="1" transform="matrix(1,0,0,1,0,0)"><path stroke-linecap="round" stroke-linejoin="round" fill-opacity="0" stroke="rgb(225,124,0)" stroke-opacity="1" stroke-width="8" d=" M-121.89099884033203,-22.843000411987305 C-78.52799987792969,-26.93600082397461 -42.54499816894531,-27.798999786376953 -17.027000427246094,-28.003999710083008 C-4.9070000648498535,-28.101999282836914 4.8520002365112305,-28.052000045776367 11.920000076293945,-28.128000259399414 C30.969999313354492,-28.333999633789062 73.97000122070312,-27.333999633789062 92.98600006103516,-26.040000915527344 C131.98199462890625,-23.38599967956543 129.97000122070312,20.916000366210938 92.82099914550781,23.10300064086914 C83.68599700927734,23.641000747680664 55.446998596191406,24.854999542236328 26.702999114990234,26.018999099731445 C-3.0390000343322754,27.222999572753906 -33.31999969482422,28.374000549316406 -43.529998779296875,28.666000366210938"/></g></g><g style="display: block;" transform="matrix(0,-1,1,0,307.9880065917969,288.0979919433594)" opacity="1"><g opacity="1" transform="matrix(1,0,0,1,0,0)"><path stroke-linecap="round" stroke-linejoin="round" fill-opacity="0" stroke="rgb(225,124,0)" stroke-opacity="1" stroke-width="8" d=" M-91.99500274658203,57.6150016784668 C-77.7030029296875,55.26900100708008 -59.007999420166016,68.7760009765625 -32.90700149536133,72.76100158691406 C-4.9629998207092285,77.0270004272461 11.468000411987305,76.48500061035156 32.73699951171875,72.25700378417969 C43.62099838256836,70.09300231933594 51.323001861572266,66.42500305175781 56.736000061035156,62.01599884033203"/></g><g opacity="1" transform="matrix(1,0,0,1,0,0)"><path stroke-linecap="round" stroke-linejoin="round" fill-opacity="0" stroke="rgb(225,124,0)" stroke-opacity="1" stroke-width="8" d=" M56.736000061035156,62.01599884033203 C61.55699920654297,58.0890007019043 64.56199645996094,53.573001861572266 66.37999725341797,49.00699996948242 C69.20700073242188,41.909000396728516 69.16799926757812,34.689998626708984 68.62899780273438,29.371999740600586 C68.56400299072266,28.73200035095215 68.49199676513672,28.118999481201172 68.41699981689453,27.538000106811523 C71.26599884033203,25.523000717163086 73.69000244140625,23.274999618530273 75.71199798583984,20.860000610351562 C80.23100280761719,15.46399974822998 82.74700164794922,9.230999946594238 83.53299713134766,2.872999906539917 C84.56999969482422,-5.517000198364258 82.59500122070312,-14.12399959564209 78.2300033569336,-21.31100082397461 C79.17500305175781,-21.743000030517578 80.197998046875,-22.97100067138672 82.02200317382812,-24.825000762939453 C88.44200134277344,-31.351999282836914 91.76100158691406,-42.388999938964844 91.97100067138672,-48.27899932861328 C92.39199829101562,-60.08399963378906 87.2229995727539,-71.0770034790039 80.57599639892578,-75.70600128173828"/></g></g></g></svg>