<svg xmlns="http://www.w3.org/2000/svg" xmlns:xlink="http://www.w3.org/1999/xlink" viewBox="0 0 512 512" width="512" height="512" style="width: 100%; height: 100%; transform: translate3d(0,0,0);" preserveAspectRatio="xMidYMid meet"><defs><clipPath id="__lottie_element_1327"><rect width="512" height="512" x="0" y="0"/></clipPath><linearGradient id="__lottie_element_1332" spreadMethod="pad" gradientUnits="userSpaceOnUse" x1="-66.15799713134766" y1="110.74299621582031" x2="91.77300262451172" y2="-87.18299865722656"><stop offset="0%" stop-color="rgb(88,157,183)"/><stop offset="36%" stop-color="rgb(116,186,207)"/><stop offset="100%" stop-color="rgb(144,216,230)"/></linearGradient><linearGradient id="__lottie_element_1333" spreadMethod="pad" gradientUnits="userSpaceOnUse" x1="-174.1580047607422" y1="111.74299621582031" x2="-47.29499816894531" y2="56.630001068115234"><stop offset="0%" stop-color="rgb(59,115,137)"/><stop offset="46%" stop-color="rgb(82,142,165)"/><stop offset="100%" stop-color="rgb(105,168,193)"/></linearGradient><linearGradient id="__lottie_element_1334" spreadMethod="pad" gradientUnits="userSpaceOnUse" x1="-190.1580047607422" y1="-52.25699996948242" x2="189.63099670410156" y2="-52.25699996948242"><stop offset="0%" stop-color="rgb(125,190,212)"/><stop offset="46%" stop-color="rgb(152,213,230)"/><stop offset="100%" stop-color="rgb(179,237,248)"/></linearGradient><linearGradient id="__lottie_element_1335" spreadMethod="pad" gradientUnits="userSpaceOnUse" x1="36.84199905395508" y1="-39.25699996948242" x2="117.34200286865234" y2="-10.387999534606934"><stop offset="0%" stop-color="rgb(108,181,207)"/><stop offset="27%" stop-color="rgb(126,198,219)"/><stop offset="100%" stop-color="rgb(144,214,230)"/></linearGradient><linearGradient id="__lottie_element_1336" spreadMethod="pad" gradientUnits="userSpaceOnUse" x1="-191.1580047607422" y1="-51.25699996948242" x2="-68.62300109863281" y2="-7.704999923706055"><stop offset="0%" stop-color="rgb(47,116,150)" stop-opacity="1"/><stop offset="46%" stop-color="rgb(47,116,150)" stop-opacity="0.5"/><stop offset="100%" stop-color="rgb(47,116,150)" stop-opacity="0"/></linearGradient><linearGradient id="__lottie_element_1348" spreadMethod="pad" gradientUnits="userSpaceOnUse" x1="-55.15800094604492" y1="-89.25700378417969" x2="-73.46299743652344" y2="-41.6619987487793"><stop offset="0%" stop-color="rgb(47,116,150)" stop-opacity="1"/><stop offset="46%" stop-color="rgb(47,116,150)" stop-opacity="0.5"/><stop offset="100%" stop-color="rgb(47,116,150)" stop-opacity="0"/></linearGradient><linearGradient id="__lottie_element_1352" spreadMethod="pad" gradientUnits="userSpaceOnUse" x1="-190.1580047607422" y1="-52.25699996948242" x2="189.63099670410156" y2="-52.25699996948242"><stop offset="0%" stop-color="rgb(125,190,212)"/><stop offset="46%" stop-color="rgb(152,213,230)"/><stop offset="100%" stop-color="rgb(179,237,248)"/></linearGradient><linearGradient id="__lottie_element_1356" spreadMethod="pad" gradientUnits="userSpaceOnUse"><stop/><stop/><stop/></linearGradient><linearGradient id="__lottie_element_1360" spreadMethod="pad" gradientUnits="userSpaceOnUse"><stop/><stop/><stop/></linearGradient><linearGradient id="__lottie_element_1364" spreadMethod="pad" gradientUnits="userSpaceOnUse"><stop/><stop/><stop/></linearGradient><linearGradient id="__lottie_element_1368" spreadMethod="pad" gradientUnits="userSpaceOnUse" x1="43.393001556396484" y1="-178.96299743652344" x2="6.521999835968018" y2="-67.11599731445312"><stop offset="14%" stop-color="rgb(255,198,104)"/><stop offset="46%" stop-color="rgb(231,164,62)"/><stop offset="79%" stop-color="rgb(206,130,21)"/></linearGradient><linearGradient id="__lottie_element_1372" spreadMethod="pad" gradientUnits="userSpaceOnUse"><stop/><stop/><stop/></linearGradient></defs><g clip-path="url(#__lottie_element_1327)"><g style="display: block;" transform="matrix(1,0,0,1,256,256)" opacity="1"><g opacity="1" transform="matrix(1,0,0,1,0,0)"><path fill="url(#__lottie_element_1332)" fill-opacity="1" d=" M-2.1570000648498535,36.060001373291016 C-2.1570000648498535,36.060001373291016 -188.12600708007812,-40.64500045776367 -188.12600708007812,-40.64500045776367 C-188.12600708007812,-40.64500045776367 -182.4250030517578,105.01100158691406 -182.4250030517578,105.01100158691406 C-182.24000549316406,109.76899719238281 -179.4010009765625,114.02200317382812 -175.0780029296875,116.01799774169922 C-175.0780029296875,116.01799774169922 -5.01200008392334,194.5330047607422 -5.01200008392334,194.5330047607422 C-1.0679999589920044,196.35400390625 3.486999988555908,196.2969970703125 7.383999824523926,194.3780059814453 C7.383999824523926,194.3780059814453 176.24099731445312,111.2249984741211 176.24099731445312,111.2249984741211 C180.4029998779297,109.17500305175781 183.11199951171875,105.01399993896484 183.30099487304688,100.37799835205078 C183.30099487304688,100.37799835205078 189.2779998779297,-45.66299819946289 189.2779998779297,-45.66299819946289 C189.2779998779297,-45.66299819946289 4.566999912261963,35.97600173950195 4.566999912261963,35.97600173950195 C2.433000087738037,36.92900085449219 0,36.959999084472656 -2.1570000648498535,36.060001373291016z"/></g><g opacity="1" transform="matrix(1,0,0,1,0,0)"><path fill="url(#__lottie_element_1333)" fill-opacity="1" d=" M0.6069999933242798,194.3780059814453 C0.6069999933242798,194.3780059814453 0.6069999933242798,38.71699905395508 0.6069999933242798,38.71699905395508 C0.6069999933242798,38.71699905395508 -187.427001953125,-39.99300003051758 -187.427001953125,-39.99300003051758 C-187.427001953125,-39.99300003051758 -181.78900146484375,108.50800323486328 -181.78900146484375,108.50800323486328 C-181.78900146484375,108.50800323486328 -178.4770050048828,113.70800018310547 -178.4770050048828,113.70800018310547 C-178.4770050048828,113.70800018310547 0.6069999933242798,194.3780059814453 0.6069999933242798,194.3780059814453z"/></g><g opacity="1" transform="matrix(1,0,0,1,0,0)"><path fill="url(#__lottie_element_1334)" fill-opacity="1" d=" M0.5220000147819519,-140.46600341796875 C-1.2999999523162842,-141.08999633789062 -3.2809998989105225,-141.06100463867188 -5.084000110626221,-140.38499450683594 C-5.084000110626221,-140.38499450683594 -185.60400390625,-71.84300231933594 -185.60400390625,-71.84300231933594 C-187.91299438476562,-70.96600341796875 -189.39700317382812,-68.7040023803711 -189.28199768066406,-66.23699951171875 C-189.28199768066406,-66.23699951171875 -188.12600708007812,-40.64500045776367 -188.12600708007812,-40.64500045776367 C-188.12600708007812,-40.64500045776367 -3.515000104904175,35.49300003051758 -3.515000104904175,35.49300003051758 C-0.492000013589859,36.75400161743164 2.9189999103546143,36.71200180053711 5.909999847412109,35.375999450683594 C5.909999847412109,35.375999450683594 189.2779998779297,-45.66299819946289 189.2779998779297,-45.66299819946289 C189.2779998779297,-45.66299819946289 190.49400329589844,-71.03399658203125 190.49400329589844,-71.03399658203125 C190.6199951171875,-73.57599639892578 189.0489959716797,-75.8949966430664 186.64100646972656,-76.72000122070312 C186.64100646972656,-76.72000122070312 0.5220000147819519,-140.46600341796875 0.5220000147819519,-140.46600341796875z"/></g><g opacity="0.3" transform="matrix(1,0,0,1,0,0)"><path fill="rgb(255,255,255)" fill-opacity="1" d=" M177.1439971923828,-69.95099639892578 C177.1439971923828,-69.95099639892578 0.18700000643730164,-130.5590057373047 0.18700000643730164,-130.5590057373047 C-1.5399999618530273,-131.15499877929688 -3.424999952316284,-131.1199951171875 -5.144000053405762,-130.47999572753906 C-5.144000053405762,-130.47999572753906 -176.7779998779297,-65.31300354003906 -176.7779998779297,-65.31300354003906 C-176.7779998779297,-65.31300354003906 -188.12600708007812,-69.64600372314453 -188.12600708007812,-69.64600372314453 C-188.24000549316406,-72.11000061035156 -187.44000244140625,-71.05599975585938 -185.14300537109375,-71.93299865722656 C-185.14300537109375,-71.93299865722656 -5.39900016784668,-140.18699645996094 -5.39900016784668,-140.18699645996094 C-3.6019999980926514,-140.85299682617188 -1.628000020980835,-140.87899780273438 0.18700000643730164,-140.26499938964844 C0.18700000643730164,-140.26499938964844 185.50900268554688,-76.79100036621094 185.50900268554688,-76.79100036621094 C187.91099548339844,-75.96700286865234 179.4320068359375,-69.16200256347656 177.1439971923828,-69.95099639892578z"/></g><g opacity="1" transform="matrix(1,0,0,1,0,0)"><path fill="url(#__lottie_element_1335)" fill-opacity="1" d=" M2.7360000610351562,3.197999954223633 C2.7360000610351562,3.197999954223633 2.4619998931884766,36.40999984741211 2.4619998931884766,36.40999984741211 C2.4619998931884766,36.40999984741211 189.2779998779297,-45.66299819946289 189.2779998779297,-45.66299819946289 C189.2779998779297,-45.66299819946289 189.2779998779297,-72.52899932861328 189.2779998779297,-72.52899932861328 C189.2779998779297,-72.52899932861328 2.7360000610351562,3.197999954223633 2.7360000610351562,3.197999954223633z"/></g><g opacity="1" transform="matrix(1,0,0,1,0,0)"><path stroke-linecap="round" stroke-linejoin="round" fill-opacity="0" stroke="rgb(150,201,227)" stroke-opacity="1" stroke-width="8" d=" M0.6069999933242798,38.71699905395508 C0.6069999933242798,38.71699905395508 0.6069999933242798,194.3780059814453 0.6069999933242798,194.3780059814453"/></g><g opacity="0.3" transform="matrix(1,0,0,1,0,0)"><path fill="rgb(255,255,255)" fill-opacity="1" d=" M189.28199768066406,-48.30400085449219 C189.28199768066406,-48.30400085449219 188.5780029296875,-35.82500076293945 188.5780029296875,-35.82500076293945 C188.5780029296875,-35.82500076293945 4.388999938964844,45.67499923706055 4.388999938964844,45.67499923706055 C2.3459999561309814,46.582000732421875 0.029999999329447746,46.608001708984375 -2.0309998989105225,45.75400161743164 C-2.0309998989105225,45.75400161743164 -187.427001953125,-30.665000915527344 -187.427001953125,-30.665000915527344 C-187.427001953125,-30.665000915527344 -188.1300048828125,-43.28499984741211 -188.1300048828125,-43.28499984741211 C-188.1300048828125,-43.28499984741211 -2.1540000438690186,33.41600036621094 -2.1540000438690186,33.41600036621094 C0.004000000189989805,34.31399917602539 2.434000015258789,34.28799819946289 4.565000057220459,33.33700180053711 C4.565000057220459,33.33700180053711 189.28199768066406,-48.30400085449219 189.28199768066406,-48.30400085449219z"/></g><g opacity="1" transform="matrix(1,0,0,1,0,0)"><path stroke-linecap="round" stroke-linejoin="round" fill-opacity="0" stroke="rgb(72,133,157)" stroke-opacity="1" stroke-width="8" d=" M-2.1570000648498535,36.060001373291016 C-2.1570000648498535,36.060001373291016 -188.12600708007812,-40.64500045776367 -188.12600708007812,-40.64500045776367 C-188.12600708007812,-40.64500045776367 -182.4250030517578,105.01100158691406 -182.4250030517578,105.01100158691406 C-182.24000549316406,109.76899719238281 -179.4010009765625,114.02200317382812 -175.0780029296875,116.01799774169922 C-175.0780029296875,116.01799774169922 -5.01200008392334,194.5330047607422 -5.01200008392334,194.5330047607422 C-1.0679999589920044,196.35400390625 3.486999988555908,196.2969970703125 7.383999824523926,194.3780059814453 C7.383999824523926,194.3780059814453 176.24099731445312,111.2249984741211 176.24099731445312,111.2249984741211 C180.4029998779297,109.17500305175781 183.11199951171875,105.01399993896484 183.30099487304688,100.37799835205078 C183.30099487304688,100.37799835205078 189.2779998779297,-45.66299819946289 189.2779998779297,-45.66299819946289 C189.2779998779297,-45.66299819946289 4.566999912261963,35.97600173950195 4.566999912261963,35.97600173950195 C2.433000087738037,36.92900085449219 0,36.959999084472656 -2.1570000648498535,36.060001373291016z"/></g><g opacity="1" transform="matrix(1,0,0,1,0,0)"><path stroke-linecap="round" stroke-linejoin="round" fill-opacity="0" stroke="rgb(12,101,132)" stroke-opacity="1" stroke-width="8" d=" M4.566999912261963,35.97600173950195 C2.433000087738037,36.92900085449219 0,36.959999084472656 -2.1570000648498535,36.060001373291016 C-2.1570000648498535,36.060001373291016 -188.12600708007812,-40.64500045776367 -188.12600708007812,-40.64500045776367 C-188.12600708007812,-40.64500045776367 -182.4250030517578,105.01100158691406 -182.4250030517578,105.01100158691406 C-182.24000549316406,109.76899719238281 -179.4010009765625,114.02200317382812 -175.0780029296875,116.01799774169922 C-175.0780029296875,116.01799774169922 -5.01200008392334,194.5330047607422 -5.01200008392334,194.5330047607422"/></g><g opacity="1" transform="matrix(1,0,0,1,0,0)"><path fill="url(#__lottie_element_1336)" fill-opacity="1" d=" M0.6069999933242798,3.184999942779541 C0.6069999933242798,3.184999942779541 -188.12600708007812,-68.66100311279297 -188.12600708007812,-68.66100311279297 C-188.12600708007812,-68.66100311279297 -187.427001953125,-39.99300003051758 -187.427001953125,-39.99300003051758 C-187.427001953125,-39.99300003051758 0.6069999933242798,36.40999984741211 0.6069999933242798,36.40999984741211 C0.6069999933242798,36.40999984741211 0.6069999933242798,3.184999942779541 0.6069999933242798,3.184999942779541z"/></g><g opacity="1" transform="matrix(1,0,0,1,0,0)"><path stroke-linecap="round" stroke-linejoin="round" fill-opacity="0" stroke="rgb(194,246,254)" stroke-opacity="1" stroke-width="8" d=" M-188.73699951171875,-68.94599914550781 C-188.73699951171875,-68.94599914550781 -2.2179999351501465,2.630000114440918 -2.2179999351501465,2.630000114440918 C-0.164000004529953,3.4179999828338623 2.114000082015991,3.384000062942505 4.144000053405762,2.5360000133514404 C4.144000053405762,2.5360000133514404 189.2779998779297,-74.8489990234375 189.2779998779297,-74.8489990234375"/></g><g opacity="1" transform="matrix(1,0,0,1,0,0)"><path stroke-linecap="round" stroke-linejoin="round" fill-opacity="0" stroke="rgb(162,223,242)" stroke-opacity="1" stroke-width="8" d=" M-188.73699951171875,-68.94599914550781 C-188.73699951171875,-68.94599914550781 -2.2179999351501465,2.630000114440918 -2.2179999351501465,2.630000114440918 C-1.3070000410079956,2.9800000190734863 -0.35199999809265137,3.1679999828338623 0.6060000061988831,3.194999933242798 C0.6060000061988831,3.194999933242798 0.6060000061988831,36.40999984741211 0.6060000061988831,36.40999984741211"/></g><g opacity="1" transform="matrix(1,0,0,1,0,0)"><path stroke-linecap="round" stroke-linejoin="round" fill-opacity="0" stroke="rgb(72,133,157)" stroke-opacity="1" stroke-width="8" d=" M0.5220000147819519,-140.46600341796875 C-1.2999999523162842,-141.08999633789062 -3.2809998989105225,-141.06100463867188 -5.084000110626221,-140.38499450683594 C-5.084000110626221,-140.38499450683594 -185.60400390625,-71.84300231933594 -185.60400390625,-71.84300231933594 C-187.91299438476562,-70.96600341796875 -189.39700317382812,-68.7040023803711 -189.28199768066406,-66.23699951171875 C-189.28199768066406,-66.23699951171875 -188.12600708007812,-40.64500045776367 -188.12600708007812,-40.64500045776367 C-188.12600708007812,-40.64500045776367 -3.515000104904175,35.49300003051758 -3.515000104904175,35.49300003051758 C-0.492000013589859,36.75400161743164 2.9189999103546143,36.71200180053711 5.909999847412109,35.375999450683594 C5.909999847412109,35.375999450683594 189.2779998779297,-45.66299819946289 189.2779998779297,-45.66299819946289 C189.2779998779297,-45.66299819946289 190.49400329589844,-71.03399658203125 190.49400329589844,-71.03399658203125 C190.6199951171875,-73.57599639892578 189.0489959716797,-75.8949966430664 186.64100646972656,-76.72000122070312 C186.64100646972656,-76.72000122070312 0.5220000147819519,-140.46600341796875 0.5220000147819519,-140.46600341796875z"/></g><g opacity="1" transform="matrix(1,0,0,1,0,0)"><path stroke-linecap="round" stroke-linejoin="round" fill-opacity="0" stroke="rgb(47,116,150)" stroke-opacity="1" stroke-width="8" d=" M-185.60400390625,-71.84300231933594 C-187.91299438476562,-70.96600341796875 -189.39700317382812,-68.7040023803711 -189.28199768066406,-66.23699951171875 C-189.28199768066406,-66.23699951171875 -188.12600708007812,-40.64500045776367 -188.12600708007812,-40.64500045776367 C-188.12600708007812,-40.64500045776367 -3.515000104904175,35.49300003051758 -3.515000104904175,35.49300003051758"/></g><g opacity="1" transform="matrix(1,0,0,1,0,0)"><path stroke-linecap="round" stroke-linejoin="round" fill-opacity="0" stroke="rgb(194,246,254)" stroke-opacity="1" stroke-width="16" d=" M-45.176998138427734,-95.72599792480469 C-45.176998138427734,-95.72599792480469 57.435001373291016,-55.44300079345703 57.435001373291016,-55.44300079345703"/></g></g><g style="display: block;" transform="matrix(1,0,0,1,256,256)" opacity="1"><g opacity="1" transform="matrix(1,0,0,1,0,0)"><path fill="url(#__lottie_element_1368)" fill-opacity="1" d=" M51,-43.39400100708008 C51,-43.39400100708008 43.25,-104.25 69.9520034790039,-161.55599975585938 C69.9520034790039,-161.55599975585938 -20.405000686645508,-195.85899353027344 -20.405000686645508,-195.85899353027344 C-20.405000686645508,-195.85899353027344 -50.5,-115.75 -40.29999923706055,-34.32500076293945 C-40.29999923706055,-34.32500076293945 51,-43.39400100708008 51,-43.39400100708008z"/></g><g opacity="0.5" transform="matrix(1,0,0,1,0,0)"><path stroke-linecap="round" stroke-linejoin="round" fill-opacity="0" stroke="rgb(255,255,255)" stroke-opacity="1" stroke-width="8" d=" M-38.845001220703125,-117.31600189208984 C-38.845001220703125,-117.31600189208984 -33.87099838256836,-160.21200561523438 -18.33300018310547,-187.97900390625 C-18.33300018310547,-187.97900390625 62.56800079345703,-157.43099975585938 62.56800079345703,-157.43099975585938 C62.56800079345703,-157.43099975585938 48,-129 46.65800094604492,-44.94300079345703"/></g><g opacity="1" transform="matrix(1,0,0,1,0,0)"><path stroke-linecap="round" stroke-linejoin="round" fill-opacity="0" stroke="rgb(181,101,4)" stroke-opacity="1" stroke-width="8" d=" M51,-43.39400100708008 C51,-43.39400100708008 43.25,-105.75 69.9520034790039,-161.55599975585938 C69.9520034790039,-161.55599975585938 -20.405000686645508,-195.85899353027344 -20.405000686645508,-195.85899353027344 C-20.405000686645508,-195.85899353027344 -50.5,-115.75 -40.29999923706055,-34.32500076293945 C-40.29999923706055,-34.32500076293945 51,-43.39400100708008 51,-43.39400100708008z"/></g></g><g style="display: block;" transform="matrix(1,0,0,1,256,256)" opacity="1"><g opacity="1" transform="matrix(1,0,0,1,0,0)"><path fill="url(#__lottie_element_1352)" fill-opacity="1" d=" M-46.47800064086914,-91.96600341796875 C-48.29999923706055,-92.58999633789062 -145.10400390625,-68.34300231933594 -145.10400390625,-68.34300231933594 C-147.41299438476562,-67.46600341796875 -3.2820000648498535,-10.038000106811523 -3.0899999141693115,-10.12399959564209 C-3.0899999141693115,-10.12399959564209 72.08300018310547,-46.05500030517578 70.14099884033203,-46.720001220703125 C70.14099884033203,-46.720001220703125 -46.47800064086914,-91.96600341796875 -46.47800064086914,-91.96600341796875z"/></g></g><g style="display: block;" transform="matrix(1,0,0,1,256,256)" opacity="0.3"><g opacity="1" transform="matrix(1,0,0,1,0,0)"><path fill="url(#__lottie_element_1348)" fill-opacity="1" d=" M-50.84600067138672,-94.31500244140625 C-50.84600067138672,-94.31500244140625 -175.5279998779297,-75.58399963378906 -175.5279998779297,-75.58399963378906 C-175.5279998779297,-75.58399963378906 -66.46499633789062,-34.680999755859375 -66.46499633789062,-34.680999755859375 C-66.46499633789062,-34.680999755859375 47.15800094604492,-53.446998596191406 47.15800094604492,-53.446998596191406 C47.15800094604492,-53.446998596191406 -50.84600067138672,-94.31500244140625 -50.84600067138672,-94.31500244140625z"/></g></g><g style="display: block;" transform="matrix(1,0,0,1,256,256)" opacity="0.4"><g opacity="1" transform="matrix(1,0,0,1,0,0)"><path fill="rgb(183,100,0)" fill-opacity="1" d=" M-40.23099899291992,-99.1989974975586 C-40.23099899291992,-99.1989974975586 -22.40399932861328,-92.79100036621094 -1.5729999542236328,-85.04199981689453 C17.410999298095703,-77.9800033569336 38.888999938964844,-69.80400085449219 51.641998291015625,-64.34700012207031 C51.641998291015625,-64.34700012207031 51,-54.14400100708008 51,-54.14400100708008 C51,-54.14400100708008 -40.79999923706055,-89.82499694824219 -40.79999923706055,-89.82499694824219 C-40.79999923706055,-89.82499694824219 -40.23099899291992,-99.1989974975586 -40.23099899291992,-99.1989974975586z"/></g></g><g style="display: block;" transform="matrix(1,0,0,1,256,256)" opacity="1"><g opacity="1" transform="matrix(1,0,0,1,0,0)"><path stroke-linecap="round" stroke-linejoin="round" fill-opacity="0" stroke="rgb(124,198,216)" stroke-opacity="1" stroke-width="8" d=" M-48.45100021362305,-92.79900360107422 C-48.45100021362305,-92.79900360107422 55.85100173950195,-52.257999420166016 55.85100173950195,-52.257999420166016"/></g></g><g style="display: block;" transform="matrix(1,0,0,1,256,256)" opacity="1"><g opacity="0.2" transform="matrix(1,0,0,1,0,0)"><path stroke-linecap="round" stroke-linejoin="round" fill-opacity="0" stroke="rgb(47,116,150)" stroke-opacity="1" stroke-width="8" d=" M-41.983001708984375,-52.569000244140625 C-41.983001708984375,-48.11600112915039 -49.731998443603516,-45.32600021362305 -59.290000915527344,-45.32600021362305 C-68.8479995727539,-45.32600021362305 -76.59700012207031,-48.11600112915039 -76.59700012207031,-52.569000244140625 C-76.59700012207031,-57.02199935913086 -68.8479995727539,-60.63199996948242 -59.290000915527344,-60.63199996948242 C-49.731998443603516,-60.63199996948242 -41.983001708984375,-57.02199935913086 -41.983001708984375,-52.569000244140625z"/></g><g opacity="1" transform="matrix(1,0,0,1,0,0)"><path fill="rgb(234,234,234)" fill-opacity="1" d=" M-37.00400161743164,-53.446998596191406 C-37.00400161743164,-48.6609992980957 -44.5620002746582,-45.66299819946289 -53.88600158691406,-45.66299819946289 C-63.209999084472656,-45.66299819946289 -70.76699829101562,-48.6609992980957 -70.76699829101562,-53.446998596191406 C-70.76699829101562,-58.233001708984375 -63.209999084472656,-62.112998962402344 -53.88600158691406,-62.112998962402344 C-44.5620002746582,-62.112998962402344 -37.00400161743164,-58.233001708984375 -37.00400161743164,-53.446998596191406z"/></g><g opacity="0.5" transform="matrix(1,0,0,1,0,0)"><path fill="rgb(124,122,121)" fill-opacity="1" d=" M-58.81999969482422,-58.54999923706055 C-58.81999969482422,-58.54999923706055 -51.09199905395508,-59.70500183105469 -50.26300048828125,-56.36000061035156 C-49.60900115966797,-53.722999572753906 -52.8650016784668,-50.19499969482422 -62.21799850463867,-49.305999755859375 C-62.21799850463867,-49.305999755859375 -36.71500015258789,-45.2599983215332 -37.00400161743164,-53.446998596191406 C-37.292999267578125,-61.63399887084961 -53.8849983215332,-62.112998962402344 -58.81999969482422,-58.54999923706055z"/></g><g opacity="1" transform="matrix(1,0,0,1,0,0)"><path stroke-linecap="round" stroke-linejoin="round" fill-opacity="0" stroke="rgb(158,158,158)" stroke-opacity="1" stroke-width="8" d=" M-37.00400161743164,-53.446998596191406 C-37.00400161743164,-48.6609992980957 -44.5620002746582,-45.66299819946289 -53.88600158691406,-45.66299819946289 C-63.209999084472656,-45.66299819946289 -70.76699829101562,-48.6609992980957 -70.76699829101562,-53.446998596191406 C-70.76699829101562,-58.233001708984375 -63.209999084472656,-62.112998962402344 -53.88600158691406,-62.112998962402344 C-44.5620002746582,-62.112998962402344 -37.00400161743164,-58.233001708984375 -37.00400161743164,-53.446998596191406z"/></g><g opacity="1" transform="matrix(1,0,0,1,0,0)"><path stroke-linecap="round" stroke-linejoin="round" fill-opacity="0" stroke="rgb(132,132,132)" stroke-opacity="1" stroke-width="8" d=" M-37.00400161743164,-53.446998596191406 C-37.00400161743164,-48.6609992980957 -44.5620002746582,-45.66299819946289 -53.88600158691406,-45.66299819946289 C-63.209999084472656,-45.66299819946289 -70.76699829101562,-48.6609992980957 -70.76699829101562,-53.446998596191406"/></g><g opacity="1" transform="matrix(1,0,0,1,0,0)"><path fill="rgb(109,109,109)" fill-opacity="1" d=" M-48.48099899291992,-56.71699905395508 C-48.48099899291992,-55.479000091552734 -50.9010009765625,-54.702999114990234 -53.88600158691406,-54.702999114990234 C-56.87099838256836,-54.702999114990234 -59.290000915527344,-55.479000091552734 -59.290000915527344,-56.71699905395508 C-59.290000915527344,-57.95500183105469 -56.87099838256836,-58.95899963378906 -53.88600158691406,-58.95899963378906 C-50.9010009765625,-58.95899963378906 -48.48099899291992,-57.95500183105469 -48.48099899291992,-56.71699905395508z"/></g></g></g></svg>