<svg xmlns="http://www.w3.org/2000/svg" xmlns:xlink="http://www.w3.org/1999/xlink" viewBox="0 0 512 512" width="512" height="512" style="width: 100%; height: 100%; transform: translate3d(0,0,0);" preserveAspectRatio="xMidYMid meet"><defs><clipPath id="__lottie_element_2931"><rect width="512" height="512" x="0" y="0"/></clipPath><linearGradient id="__lottie_element_2941" spreadMethod="pad" gradientUnits="userSpaceOnUse" x1="-1.0399999618530273" y1="-176.5" x2="0.9599999785423279" y2="188.88900756835938"><stop offset="0%" stop-color="rgb(253,207,24)"/><stop offset="47%" stop-color="rgb(245,171,12)"/><stop offset="93%" stop-color="rgb(237,135,0)"/></linearGradient><radialGradient id="__lottie_element_2942" spreadMethod="pad" gradientUnits="userSpaceOnUse" cx="-6.039999961853027" cy="-160.1230010986328" r="342.6724710471032" fx="-6.039999961853027" fy="-160.1230010986328"><stop offset="7%" stop-color="rgb(254,254,226)"/><stop offset="28%" stop-color="rgb(253,238,140)"/><stop offset="49%" stop-color="rgb(252,222,54)"/><stop offset="82%" stop-color="rgb(245,184,32)"/><stop offset="100%" stop-color="rgb(238,145,10)"/></radialGradient></defs><g clip-path="url(#__lottie_element_2931)"><g style="display: block;" transform="matrix(1.036099910736084,0,0,1.036099910736084,255.99020385742188,266.74749755859375)" opacity="1"><g opacity="1" transform="matrix(0.9700000286102295,0,0,0.9700000286102295,-209.12693786621094,-219.25558471679688)"><g opacity="1" transform="matrix(1,0,0,1,215.6439971923828,215.64500427246094)"><path fill="url(#__lottie_element_2941)" fill-opacity="1" d=" M194.9969940185547,0 C194.9969940185547,107.69400024414062 107.69300079345703,194.9969940185547 0,194.9969940185547 C-107.69400024414062,194.9969940185547 -194.9969940185547,107.69400024414062 -194.9969940185547,0 C-194.9969940185547,-107.69400024414062 -107.69400024414062,-194.9969940185547 0,-194.9969940185547 C107.69300079345703,-194.9969940185547 194.9969940185547,-107.69400024414062 194.9969940185547,0z"/></g><g opacity="1" transform="matrix(1,0,0,1,215.70199584960938,213.7169952392578)"><path fill="url(#__lottie_element_2942)" fill-opacity="1" d=" M173.80799865722656,2.6630001068115234 C172.3040008544922,100.77200317382812 93.26899719238281,179.11199951171875 -2.7230000495910645,177.63999938964844 C-98.71399688720703,176.16799926757812 -175.31199645996094,95.44499969482422 -173.80799865722656,-2.6640000343322754 C-172.3040008544922,-100.77300262451172 -93.26899719238281,-179.11199951171875 2.7230000495910645,-177.64100646972656 C98.71399688720703,-176.16900634765625 175.31199645996094,-95.44499969482422 173.80799865722656,2.6630001068115234z"/></g><g opacity="1" transform="matrix(1,0,0,1,215.6439971923828,215.64500427246094)"><path stroke-linecap="butt" stroke-linejoin="miter" fill-opacity="0" stroke-miterlimit="10" stroke="rgb(231,105,0)" stroke-opacity="1" stroke-width="8.259" d=" M194.9969940185547,0 C194.9969940185547,107.69400024414062 107.69300079345703,194.9969940185547 0,194.9969940185547 C-107.69400024414062,194.9969940185547 -194.9969940185547,107.69400024414062 -194.9969940185547,0 C-194.9969940185547,-107.69400024414062 -107.69400024414062,-194.9969940185547 0,-194.9969940185547 C107.69300079345703,-194.9969940185547 194.9969940185547,-107.69400024414062 194.9969940185547,0z"/></g></g></g><g style="display: block;" transform="matrix(1.036099910736084,0,0,1.036099910736084,255.99020385742188,266.74749755859375)" opacity="1"><g opacity="1" transform="matrix(1,0,0,1,0,0)"><path fill="rgb(255,224,160)" fill-opacity="1" d=" M24.344999313354492,-14.27299976348877 C22.802000045776367,-19.072999954223633 32.31700134277344,-36.558998107910156 54.83100128173828,-44.159000396728516 C85.91500091552734,-54.652000427246094 124.17900085449219,-36.85900115966797 127.2030029296875,-15 C129.51699829101562,1.7269999980926514 111.00199890136719,-22.415000915527344 75.18099975585938,-22.128999710083008 C36.909000396728516,-21.822999954223633 27.069000244140625,-5.798999786376953 24.344999313354492,-14.27299976348877z"/></g><g opacity="1" transform="matrix(1,0,0,1,0,0)"><path fill="rgb(151,72,0)" fill-opacity="1" d=" M24.344999313354492,-20.072999954223633 C22.802000045776367,-24.87299919128418 32.31700134277344,-42.35900115966797 54.83100128173828,-49.95899963378906 C85.91500091552734,-60.45199966430664 124.17900085449219,-42.659000396728516 127.2030029296875,-20.799999237060547 C129.51699829101562,-4.072999954223633 111.00199890136719,-28.21500015258789 75.18099975585938,-27.929000854492188 C36.909000396728516,-27.62299919128418 27.069000244140625,-11.598999977111816 24.344999313354492,-20.072999954223633z"/></g><g opacity="1" transform="matrix(1,0,0,1,0,0)"><path fill="rgb(99,41,0)" fill-opacity="1" d=" M126.63999938964844,-15.553000450134277 C121,-36.132999420166016 84.62000274658203,-52.053001403808594 54.83000183105469,-42.00299835205078 C38.2599983215332,-36.41299819946289 28.729999542236328,-25.452999114990234 25.479999542236328,-18.152999877929688 C25.010000228881836,-18.55299949645996 24.639999389648438,-19.17300033569336 24.350000381469727,-20.072999954223633 C22.799999237060547,-24.87299919128418 32.31999969482422,-42.362998962402344 54.83000183105469,-49.9630012512207 C85.91999816894531,-60.452999114990234 124.18000030517578,-42.66299819946289 127.19999694824219,-20.80299949645996 C127.58999633789062,-18.023000717163086 127.4000015258789,-16.37299919128418 126.63999938964844,-15.553000450134277z"/></g></g><g style="display: block;" transform="matrix(1.036099910736084,0,0,1.036099910736084,255.99020385742188,266.74749755859375)" opacity="1"><g opacity="1" transform="matrix(1,0,0,1,0,0)"><path fill="rgb(98,183,238)" fill-opacity="1" d=" M119.875,-14.25 C119.875,-14.25 119.875,136 119.875,136 C103.7249984741211,149.27000427246094 85.29299926757812,159.88999938964844 65.31300354003906,167.25 C65.31300354003906,167.25 65.31300354003906,-26 65.31300354003906,-26 C65.31300354003906,-26 94.67500305175781,-28.649999618530273 119.875,-14.25z"/></g></g><g style="display: block;" transform="matrix(1.036099910736084,0,0,1.036099910736084,255.99020385742188,266.74749755859375)" opacity="0.86643"><g opacity="1" transform="matrix(1,0,0,1,0,0)"><path fill="rgb(56,164,224)" fill-opacity="1" d=" M119.66000366210938,34.52000045776367 C119.66000366210938,34.52000045776367 119.69400024414062,86.0250015258789 119.69400024414062,86.0250015258789 C107.86799621582031,101.7959976196289 65.31400299072266,98.28500366210938 65.31400299072266,98.28500366210938 C65.31400299072266,98.28500366210938 65.31400299072266,65.03399658203125 65.31400299072266,65.03399658203125 C70.9990005493164,62.882999420166016 71.31400299072266,82.00599670410156 78.77100372314453,78.91999816894531 C83.0250015258789,77.16000366210938 84.51300048828125,55.44200134277344 92.4010009765625,53.89099884033203 C102.4280014038086,51.91999816894531 99.85700225830078,76.6050033569336 108.6259994506836,43.12300109863281 C113.00299835205078,26.40999984741211 119.66000366210938,34.52000045776367 119.66000366210938,34.52000045776367z M119.875,83.35199737548828 C119.875,112.09300231933594 119.875,136 119.875,136 C103.7249984741211,149.27000427246094 85.29299926757812,159.88999938964844 65.31300354003906,167.25 C65.31300354003906,167.25 65.31300354003906,127.79100036621094 65.31300354003906,84.53399658203125"/></g></g><g style="display: block;" transform="matrix(1.036099910736084,0,0,1.036099910736084,255.99020385742188,266.74749755859375)" opacity="1"><g opacity="1" transform="matrix(1,0,0,1,0,0)"><path fill="rgb(26,140,216)" fill-opacity="1" d=" M119.85800170898438,108.99700164794922 C119.85800170898438,108.99700164794922 119.85800170898438,135.1269989013672 119.85800170898438,135.1269989013672 C105.45800018310547,151.32699584960938 65.33799743652344,167.26699829101562 65.33799743652344,167.26699829101562 C65.33799743652344,167.26699829101562 65.33799743652344,146.7469940185547 65.33799743652344,146.7469940185547 C85.89800262451172,137.90699768066406 104.39800262451172,124.98699951171875 119.85800170898438,108.99700164794922z"/></g><g opacity="0.31" transform="matrix(1,0,0,1,0,0)"><path stroke-linecap="round" stroke-linejoin="round" fill-opacity="0" stroke="rgb(146,245,255)" stroke-opacity="1" stroke-width="8" d=" M70.86199951171875,156.69200134277344 C71.33899688720703,136.5070037841797 75.0770034790039,-25.18000030517578 72.31300354003906,-17.5 C72.31300354003906,-17.5 86.67500305175781,-23.649999618530273 114.625,-9.75 C114.625,-9.75 114.625,-9.75 114.625,-9.75 C111.875,-9.25 114.875,132 114.875,132 C114.875,132 114.875,132 114.875,132"/></g></g><g style="display: block;" transform="matrix(1.036099910736084,0,0,1.036099910736084,255.99020385742188,266.74749755859375)" opacity="1"><g opacity="1" transform="matrix(1,0,0,1,0,0)"><path stroke-linecap="round" stroke-linejoin="round" fill-opacity="0" stroke="rgb(28,109,191)" stroke-opacity="1" stroke-width="8" d=" M119.875,-14.25 C119.875,-14.25 119.875,136 119.875,136 C103.7249984741211,149.27000427246094 85.29299926757812,159.88999938964844 65.31300354003906,167.25 C65.31300354003906,167.25 65.31300354003906,-26 65.31300354003906,-26 C65.31300354003906,-26 94.67500305175781,-28.649999618530273 119.875,-14.25z"/></g></g><g style="display: block;" transform="matrix(1.036099910736084,0,0,1.036099910736084,255.99020385742188,266.74749755859375)" opacity="1"><g opacity="1" transform="matrix(1,0,0,1,0,0)"><path fill="rgb(255,224,160)" fill-opacity="1" d=" M-25.923999786376953,-14.27299976348877 C-24.381000518798828,-19.072999954223633 -33.89500045776367,-36.558998107910156 -56.409000396728516,-44.159000396728516 C-87.49299621582031,-54.652000427246094 -125.75700378417969,-36.85900115966797 -128.781005859375,-15 C-131.09500122070312,1.7269999980926514 -112.58000183105469,-22.415000915527344 -76.75900268554688,-22.128999710083008 C-38.48699951171875,-21.822999954223633 -28.648000717163086,-5.798999786376953 -25.923999786376953,-14.27299976348877z"/></g><g opacity="1" transform="matrix(1,0,0,1,0,0)"><path fill="rgb(151,72,0)" fill-opacity="1" d=" M-25.923999786376953,-20.072999954223633 C-24.381000518798828,-24.87299919128418 -33.89500045776367,-42.35900115966797 -56.409000396728516,-49.95899963378906 C-87.49299621582031,-60.45199966430664 -125.75700378417969,-42.659000396728516 -128.781005859375,-20.799999237060547 C-131.09500122070312,-4.072999954223633 -112.58000183105469,-28.21500015258789 -76.75900268554688,-27.929000854492188 C-38.48699951171875,-27.62299919128418 -28.648000717163086,-11.598999977111816 -25.923999786376953,-20.072999954223633z"/></g><g opacity="1" transform="matrix(1,0,0,1,0,0)"><path fill="rgb(99,41,0)" fill-opacity="1" d=" M-25.920000076293945,-20.072999954223633 C-26.209999084472656,-19.17300033569336 -26.579999923706055,-18.55299949645996 -27.049999237060547,-18.152999877929688 C-30.309999465942383,-25.46299934387207 -39.84000015258789,-36.41299819946289 -56.40999984741211,-42.00299835205078 C-86.19000244140625,-52.053001403808594 -122.58000183105469,-36.132999420166016 -128.22000122070312,-15.553000450134277 C-128.97000122070312,-16.37299919128418 -129.16000366210938,-18.023000717163086 -128.77999877929688,-20.80299949645996 C-125.76000213623047,-42.66299819946289 -87.48999786376953,-60.452999114990234 -56.40999984741211,-49.9630012512207 C-33.88999938964844,-42.362998962402344 -24.3799991607666,-24.87299919128418 -25.920000076293945,-20.072999954223633z"/></g></g><g style="display: block;" transform="matrix(1.036099910736084,0,0,1.036099910736084,255.99020385742188,266.74749755859375)" opacity="1"><g opacity="1" transform="matrix(1,0,0,1,0,0)"><path fill="rgb(98,183,238)" fill-opacity="1" d=" M-66.31300354003906,-26 C-66.31300354003906,-26 -66.31300354003906,166.875 -66.31300354003906,166.875 C-86.31300354003906,159.36500549316406 -104.69300079345703,148.56500244140625 -120.81300354003906,135.125 C-120.81300354003906,135.125 -120.81300354003906,-14.25 -120.81300354003906,-14.25 C-95.61299896240234,-28.649999618530273 -66.31300354003906,-26 -66.31300354003906,-26z"/></g></g><g style="display: block;" transform="matrix(1.036099910736084,0,0,1.036099910736084,255.99020385742188,266.74749755859375)" opacity="0.86643"><g opacity="1" transform="matrix(1,0,0,1,0,0)"><path fill="rgb(56,164,224)" fill-opacity="1" d=" M-121.4749984741211,43.77000045776367 C-121.4749984741211,43.77000045776367 -114.81900024414062,35.65999984741211 -110.44200134277344,52.37300109863281 C-101.6729965209961,85.8550033569336 -104.24400329589844,61.16999816894531 -94.21700286865234,63.14099884033203 C-86.3290023803711,64.69200134277344 -84.84100341796875,86.41000366210938 -80.58699798583984,88.16999816894531 C-73.12999725341797,91.25599670410156 -72.81500244140625,72.13300323486328 -67.12999725341797,74.28399658203125 C-67.12999725341797,74.28399658203125 -67.12999725341797,101.8239974975586 -67.12999725341797,101.8239974975586 C-67.12999725341797,101.8239974975586 -109.64900207519531,85.45999908447266 -121.4749984741211,69.68900299072266 C-121.4749984741211,69.68900299072266 -121.4749984741211,43.77000045776367 -121.4749984741211,43.77000045776367z M-66.31300354003906,98.30799865722656 C-66.31300354003906,135.63900756835938 -66.31300354003906,166.875 -66.31300354003906,166.875 C-86.31300354003906,159.36500549316406 -104.69300079345703,148.56500244140625 -120.81300354003906,135.125 C-120.81300354003906,135.125 -120.81300354003906,103.28299713134766 -120.81300354003906,69.00299835205078"/></g></g><g style="display: block;" transform="matrix(1.036099910736084,0,0,1.036099910736084,255.99020385742188,266.74749755859375)" opacity="1"><g opacity="1" transform="matrix(1,0,0,1,0,0)"><path fill="rgb(26,140,216)" fill-opacity="1" d=" M-120.83399963378906,108.99700164794922 C-120.83399963378906,108.99700164794922 -120.83399963378906,135.1269989013672 -120.83399963378906,135.1269989013672 C-106.43399810791016,151.32699584960938 -66.31400299072266,167.26699829101562 -66.31400299072266,167.26699829101562 C-66.31400299072266,167.26699829101562 -66.31400299072266,146.7469940185547 -66.31400299072266,146.7469940185547 C-86.8740005493164,137.90699768066406 -105.3740005493164,124.98699951171875 -120.83399963378906,108.99700164794922z"/></g><g opacity="0.31" transform="matrix(1,0,0,1,0,0)"><path stroke-linecap="round" stroke-linejoin="round" fill-opacity="0" stroke="rgb(146,245,255)" stroke-opacity="1" stroke-width="8" d=" M-115.5479965209961,133.9739990234375 C-115.44300079345703,113.26899719238281 -114.81300354003906,-11.25 -114.81300354003906,-11.25 C-89.61299896240234,-25.649999618530273 -72.56300354003906,-20.25 -72.56300354003906,-20.25 C-72.56300354003906,-20.25 -72.56300354003906,-20.25 -72.56300354003906,-20.25 C-72.56300354003906,-20.25 -71.19000244140625,146.71400451660156 -71.07099914550781,161.13400268554688"/></g></g><g style="display: block;" transform="matrix(1.036099910736084,0,0,1.036099910736084,255.99020385742188,266.74749755859375)" opacity="1"><g opacity="1" transform="matrix(1,0,0,1,0,0)"><path stroke-linecap="round" stroke-linejoin="round" fill-opacity="0" stroke="rgb(28,109,191)" stroke-opacity="1" stroke-width="8" d=" M-66.31300354003906,-26 C-66.31300354003906,-26 -66.31300354003906,166.875 -66.31300354003906,166.875 C-86.31300354003906,159.36500549316406 -104.69300079345703,148.56500244140625 -120.81300354003906,135.125 C-120.81300354003906,135.125 -120.81300354003906,-14.25 -120.81300354003906,-14.25 C-95.61299896240234,-28.649999618530273 -66.31300354003906,-26 -66.31300354003906,-26z"/></g></g><g style="display: block;" transform="matrix(1.036099910736084,0,0,1.036099910736084,255.99020385742188,266.74749755859375)" opacity="1"><g opacity="1" transform="matrix(1,0,0,1,0,0)"><g opacity="0.6" transform="matrix(1,0,0,1,0,0)"><path fill="rgb(234,172,31)" fill-opacity="1" d=" M0.33899998664855957,106.87699890136719 C0.33899998664855957,106.87699890136719 0.33899998664855957,106.87699890136719 0.33899998664855957,106.87699890136719 C-22.424999237060547,106.87699890136719 -41.11800003051758,101.7509994506836 -41.11800003051758,78.98699951171875 C-41.11800003051758,78.98699951171875 -41.0880012512207,72.19499969482422 -41.0880012512207,72.19499969482422 C-41.0880012512207,49.430999755859375 -22.461999893188477,30.80500030517578 0.3019999861717224,30.80500030517578 C0.3019999861717224,30.80500030517578 0.3019999861717224,30.80500030517578 0.3019999861717224,30.80500030517578 C23.06599998474121,30.80500030517578 41.69200134277344,49.430999755859375 41.69200134277344,72.19499969482422 C41.69200134277344,72.19499969482422 41.6619987487793,78.98699951171875 41.6619987487793,78.98699951171875 C41.6619987487793,101.7509994506836 23.10300064086914,106.87699890136719 0.33899998664855957,106.87699890136719z"/></g><g opacity="1" transform="matrix(1,0,0,1,0,0)"><path fill="rgb(254,221,120)" fill-opacity="1" d=" M0.33899998664855957,119.96299743652344 C0.33899998664855957,119.96299743652344 0.33899998664855957,119.96299743652344 0.33899998664855957,119.96299743652344 C-22.424999237060547,119.96299743652344 -41.095001220703125,109.33699798583984 -41.095001220703125,86.572998046875 C-41.095001220703125,86.572998046875 -41.1150016784668,79.03099822998047 -41.1150016784668,79.03099822998047 C-41.1150016784668,56.266998291015625 -22.461999893188477,43.89099884033203 0.3019999861717224,43.89099884033203 C0.3019999861717224,43.89099884033203 0.3019999861717224,43.89099884033203 0.3019999861717224,43.89099884033203 C23.06599998474121,43.89099884033203 41.665000915527344,56.266998291015625 41.665000915527344,79.03099822998047 C41.665000915527344,79.03099822998047 41.683998107910156,86.572998046875 41.683998107910156,86.572998046875 C41.683998107910156,109.33699798583984 23.10300064086914,119.96299743652344 0.33899998664855957,119.96299743652344z"/></g><g opacity="1" transform="matrix(1,0,0,1,0,0)"><path fill="rgb(151,72,0)" fill-opacity="1" d=" M0.33899998664855957,112.87699890136719 C0.33899998664855957,112.87699890136719 0.33899998664855957,112.87699890136719 0.33899998664855957,112.87699890136719 C-22.424999237060547,112.87699890136719 -41.095001220703125,102.2509994506836 -41.095001220703125,79.48699951171875 C-41.095001220703125,79.48699951171875 -41.1150016784668,71.94499969482422 -41.1150016784668,71.94499969482422 C-41.1150016784668,49.180999755859375 -22.461999893188477,36.80500030517578 0.3019999861717224,36.80500030517578 C0.3019999861717224,36.80500030517578 0.3019999861717224,36.80500030517578 0.3019999861717224,36.80500030517578 C23.06599998474121,36.80500030517578 41.665000915527344,49.180999755859375 41.665000915527344,71.94499969482422 C41.665000915527344,71.94499969482422 41.683998107910156,79.48699951171875 41.683998107910156,79.48699951171875 C41.683998107910156,102.2509994506836 23.10300064086914,112.87699890136719 0.33899998664855957,112.87699890136719z"/></g><g opacity="1" transform="matrix(1,0,0,1,0,0)"><path fill="rgb(99,41,0)" fill-opacity="1" d=" M41.667999267578125,71.9469985961914 C41.667999267578125,71.9469985961914 41.6870002746582,79.48699951171875 41.6870002746582,79.48699951171875 C41.6870002746582,86.66699981689453 39.88199996948242,85.43699645996094 36.62200164794922,91.33699798583984 C36.78200149536133,89.96700286865234 36.86199951171875,88.56700134277344 36.86199951171875,87.15699768066406 C36.86199951171875,87.15699768066406 36.79499816894531,83.33699798583984 36.79499816894531,83.33699798583984 C36.79499816894531,73.28700256347656 32.71500015258789,79.16699981689453 26.094999313354492,72.5469970703125 C19.475000381469727,65.927001953125 10.354999542236328,61.81700134277344 0.3050000071525574,61.81700134277344 C-19.78499984741211,61.81700134277344 -36.255001068115234,63.24700164794922 -36.255001068115234,83.33699798583984 C-36.255001068115234,83.33699798583984 -36.1879997253418,87.15699768066406 -36.1879997253418,87.15699768066406 C-36.1879997253418,88.56700134277344 -36.108001708984375,89.95700073242188 -35.948001861572266,91.31700134277344 C-39.198001861572266,85.41699981689453 -41.09299850463867,86.65699768066406 -41.09299850463867,79.48699951171875 C-41.09299850463867,79.48699951171875 -41.11199951171875,71.9469985961914 -41.11199951171875,71.9469985961914 C-41.11199951171875,49.176998138427734 -22.46500015258789,36.80699920654297 0.3050000071525574,36.80699920654297 C11.6850004196167,36.80699920654297 22.03499984741211,41.457000732421875 29.53499984741211,48.96699905395508 C37.03499984741211,56.46699905395508 41.667999267578125,60.56700134277344 41.667999267578125,71.9469985961914z"/></g><g opacity="1" transform="matrix(1,0,0,1,0,0)"><path fill="rgb(245,245,245)" fill-opacity="1" d=" M0.2759999930858612,74.64099884033203 C-10.157999992370605,74.64099884033203 -19.694000244140625,73.58699798583984 -25.93400001525879,72.38099670410156 C-30.548999786376953,71.48899841308594 -33.48099899291992,73.24400329589844 -32.27799987792969,68.69999694824219 C-28.48699951171875,54.37799835205078 -15.284000396728516,44.624000549316406 0.30399999022483826,44.624000549316406 C0.30399999022483826,44.624000549316406 0.30399999022483826,44.624000549316406 0.30399999022483826,44.624000549316406 C15.746999740600586,44.624000549316406 28.847999572753906,54.19499969482422 32.777000427246094,68.29900360107422 C34.10100173950195,73.0510025024414 31.270999908447266,71.43099975585938 26.424999237060547,72.35199737548828 C20.052000045776367,73.56300354003906 10.36400032043457,74.64099884033203 0.2759999930858612,74.64099884033203z"/></g><g opacity="1" transform="matrix(1,0,0,1,0,0)"><path fill="rgb(199,215,216)" fill-opacity="1" d=" M26.42799949645996,72.35700225830078 C23.92799949645996,72.83699798583984 20.917999267578125,73.28700256347656 17.577999114990234,73.65699768066406 C19.56800079345703,72.96700286865234 23.788000106811523,70.03700256347656 23.827999114990234,63.12699890136719 C23.857999801635742,57.30699920654297 21.375,47.16699981689453 1.184999942779541,44.64699935913086 C8.5649995803833,44.81700134277344 15.375,47.176998138427734 20.854999542236328,51.176998138427734 C26.55500030517578,55.32699966430664 30.815000534057617,61.24700164794922 32.775001525878906,68.2969970703125 C34.10499954223633,73.0469970703125 31.26799964904785,71.427001953125 26.42799949645996,72.35700225830078z"/></g><g opacity="1" transform="matrix(1,0,0,1,0,0)"><path fill="rgb(199,215,216)" fill-opacity="1" d=" M-15.751999855041504,73.8270034790039 C-19.672000885009766,73.427001953125 -23.131999969482422,72.927001953125 -25.93199920654297,72.37699890136719 C-30.552000045776367,71.48699951171875 -33.48500061035156,73.24700164794922 -32.275001525878906,68.6969985961914 C-28.485000610351562,54.37699890136719 -15.28499984741211,44.62699890136719 0.3050000071525574,44.62699890136719 C-20.00200080871582,47.090999603271484 -23.343000411987305,57.29800033569336 -23.312000274658203,63.12699890136719 C-23.268999099731445,71.18900299072266 -15.751999855041504,73.8270034790039 -15.751999855041504,73.8270034790039z"/></g></g></g><g style="display: block;" transform="matrix(1.036099910736084,0,0,1.036099910736084,255.99020385742188,266.74749755859375)" opacity="1"><g opacity="1" transform="matrix(1,0,0,1,0,0)"><path fill="rgb(255,227,169)" fill-opacity="1" d=" M54.82600021362305,-83.3270034790039 C58.3390007019043,-87.45999908447266 78.8290023803711,-98.61900329589844 105.48300170898438,-87.44100189208984 C129.39700317382812,-77.41200256347656 141.22500610351562,-53.75600051879883 138.91099548339844,-39.612998962402344 C136.32899475097656,-23.836000442504883 130.2550048828125,-52.8120002746582 99.82599639892578,-67.89800262451172 C66.37000274658203,-84.48500061035156 46.08300018310547,-73.04100036621094 54.82600021362305,-83.3270034790039z"/></g><g opacity="1" transform="matrix(1,0,0,1,0,0)"><path fill="rgb(151,72,0)" fill-opacity="1" d=" M56.71099853515625,-87.10199737548828 C60.2239990234375,-91.23500061035156 80.71499633789062,-102.39399719238281 107.36900329589844,-91.21600341796875 C131.2830047607422,-81.18699645996094 143.11099243164062,-57.529998779296875 140.7969970703125,-43.387001037597656 C138.21499633789062,-27.610000610351562 132.13999938964844,-56.58700180053711 101.71099853515625,-71.6729965209961 C68.25499725341797,-88.26000213623047 47.96799850463867,-76.81600189208984 56.71099853515625,-87.10199737548828z"/></g><g opacity="1" transform="matrix(1,0,0,1,0,0)"><path fill="rgb(99,41,0)" fill-opacity="1" d=" M140.9499969482422,-44.5629997253418 C139.63999938964844,-58.632999420166016 128.00999450683594,-77.43299865722656 107.37000274658203,-86.09300231933594 C81.23999786376953,-97.0530014038086 61.029998779296875,-86.54299926757812 56.939998626708984,-82.23300170898438 C54.099998474121094,-82.68299865722656 53.84000015258789,-83.7229995727539 56.709999084472656,-87.10299682617188 C60.220001220703125,-91.23300170898438 80.70999908447266,-102.39299774169922 107.37000274658203,-91.21299743652344 C130.6300048828125,-81.4530029296875 142.4499969482422,-58.8129997253418 140.9499969482422,-44.5629997253418z"/></g></g><g style="display: block;" transform="matrix(1.036099910736084,0,0,1.036099910736084,255.99020385742188,266.74749755859375)" opacity="1"><g opacity="1" transform="matrix(1,0,0,1,0,0)"><path fill="rgb(255,227,169)" fill-opacity="1" d=" M-54.74300003051758,-83.3270034790039 C-58.25600051879883,-87.45999908447266 -78.74600219726562,-98.61900329589844 -105.4000015258789,-87.44100189208984 C-129.31399536132812,-77.41200256347656 -141.14300537109375,-53.75600051879883 -138.82899475097656,-39.612998962402344 C-136.2469940185547,-23.836000442504883 -130.1719970703125,-52.8120002746582 -99.74299621582031,-67.89800262451172 C-66.28700256347656,-84.48500061035156 -46,-73.04100036621094 -54.74300003051758,-83.3270034790039z"/></g><g opacity="1" transform="matrix(1,0,0,1,0,0)"><path fill="rgb(151,72,0)" fill-opacity="1" d=" M-56.62900161743164,-87.10199737548828 C-60.141998291015625,-91.23500061035156 -80.63200378417969,-102.39399719238281 -107.28600311279297,-91.21600341796875 C-131.1999969482422,-81.18699645996094 -143.0279998779297,-57.529998779296875 -140.71400451660156,-43.387001037597656 C-138.1320037841797,-27.610000610351562 -132.05799865722656,-56.58700180053711 -101.62899780273438,-71.6729965209961 C-68.1729965209961,-88.26000213623047 -47.88600158691406,-76.81600189208984 -56.62900161743164,-87.10199737548828z"/></g><g opacity="1" transform="matrix(1,0,0,1,0,0)"><path fill="rgb(99,41,0)" fill-opacity="1" d=" M-56.650001525878906,-82.27300262451172 C-60.20000076293945,-86.4229965209961 -80.66999816894531,-97.52300262451172 -107.29000091552734,-86.37300109863281 C-127.98999786376953,-77.69300079345703 -139.63999938964844,-58.78300094604492 -140.8800048828125,-44.69300079345703 C-142.30999755859375,-58.94300079345703 -130.47999572753906,-81.48300170898438 -107.29000091552734,-91.21299743652344 C-80.62999725341797,-102.39299774169922 -60.13999938964844,-91.23300170898438 -56.630001068115234,-87.10299682617188 C-53.83000183105469,-83.8030014038086 -54.0099983215332,-82.74299621582031 -56.650001525878906,-82.27300262451172z"/></g></g></g></svg>