<svg xmlns="http://www.w3.org/2000/svg" xmlns:xlink="http://www.w3.org/1999/xlink" viewBox="0 0 512 512" width="512" height="512" style="width: 100%; height: 100%; transform: translate3d(0,0,0);" preserveAspectRatio="xMidYMid meet"><defs><clipPath id="__lottie_element_46988"><rect width="512" height="512" x="0" y="0"/></clipPath><linearGradient id="__lottie_element_46997" spreadMethod="pad" gradientUnits="userSpaceOnUse" x1="2" y1="-87" x2="2" y2="176.52499389648438"><stop offset="1%" stop-color="rgb(198,202,208)"/><stop offset="38%" stop-color="rgb(188,193,197)"/><stop offset="76%" stop-color="rgb(178,184,186)"/><stop offset="88%" stop-color="rgb(148,151,154)"/><stop offset="100%" stop-color="rgb(117,119,122)"/></linearGradient><radialGradient id="__lottie_element_47001" spreadMethod="pad" gradientUnits="userSpaceOnUse" cx="40" cy="-61" r="36.051578193545325" fx="40" fy="-61"><stop offset="0%" stop-color="rgb(134,134,137)"/><stop offset="31%" stop-color="rgb(70,70,72)"/><stop offset="93%" stop-color="rgb(7,7,7)"/></radialGradient><radialGradient id="__lottie_element_47005" spreadMethod="pad" gradientUnits="userSpaceOnUse" cx="-63" cy="-72" r="19.790000915527344" fx="-63" fy="-72"><stop offset="0%" stop-color="rgb(157,157,157)"/><stop offset="26%" stop-color="rgb(83,83,83)"/><stop offset="88%" stop-color="rgb(9,9,9)"/></radialGradient><linearGradient id="__lottie_element_47009" spreadMethod="pad" gradientUnits="userSpaceOnUse" x1="4.364999771118164" y1="20.770999908447266" x2="1.527999997138977" y2="94.42500305175781"><stop offset="0%" stop-color="rgb(246,75,142)"/><stop offset="25%" stop-color="rgb(250,111,175)"/><stop offset="52%" stop-color="rgb(255,147,209)"/><stop offset="80%" stop-color="rgb(252,110,177)"/><stop offset="100%" stop-color="rgb(249,73,145)"/></linearGradient><clipPath id="__lottie_element_47017"><path d="M0,0 L512,0 L512,512 L0,512z"/></clipPath><g id="__lottie_element_47020"><g style="display: block;" transform="matrix(1,0,0,1,256,260)" opacity="1"><g opacity="1" transform="matrix(1,0,0,1,0,0)"><g opacity="1" transform="matrix(1,0,0,1,0,0)"><path fill="rgb(255,255,255)" fill-opacity="1" d=" M148.5659942626953,157.71099853515625 C119.48699951171875,171.22900390625 92.95600128173828,221.5030059814453 0.8700000047683716,221.5030059814453 C-102.83399963378906,221.5030059814453 -108.28099822998047,166.6719970703125 -146.29100036621094,155.52499389648438 C-163.53399658203125,150.46800231933594 -148.75900268554688,130.8769989013672 -147.11099243164062,125.96800231933594 C-141.37899780273438,109.00800323486328 -127.8550033569336,87.75800323486328 -115.625,40.9379997253418 C-98.98500061035156,-22.711999893188477 -116.18800354003906,-48.8129997253418 -103.18800354003906,-103.06300354003906 C-90.18800354003906,-157.31300354003906 -46,-181.125 -0.31200000643730164,-181.125 C44.9379997253418,-181.125 83.68800354003906,-163.625 101.75,-112.25 C119.81199645996094,-60.875 101.85600280761719,-35.00199890136719 114.875,34.4379997253418 C124.625,86.40799713134766 127.49500274658203,84.53500366210938 134.76499938964844,101.90699768066406 C141.5,118 163,151 148.5659942626953,157.71099853515625z"/></g></g></g></g><linearGradient id="__lottie_element_47026" spreadMethod="pad" gradientUnits="userSpaceOnUse" x1="-163" y1="-170" x2="-160.5" y2="161"><stop offset="0%" stop-color="rgb(252,254,255)"/><stop offset="53%" stop-color="rgb(230,231,235)"/><stop offset="76%" stop-color="rgb(208,208,215)"/><stop offset="88%" stop-color="rgb(193,193,201)"/><stop offset="100%" stop-color="rgb(177,177,187)"/></linearGradient><linearGradient id="__lottie_element_47027" spreadMethod="pad" gradientUnits="userSpaceOnUse" x1="4" y1="-77" x2="2" y2="170.27499389648438"><stop offset="1%" stop-color="rgb(198,202,208)"/><stop offset="29%" stop-color="rgb(208,210,215)"/><stop offset="56%" stop-color="rgb(217,218,221)"/><stop offset="65%" stop-color="rgb(197,201,203)"/><stop offset="76%" stop-color="rgb(178,184,186)"/><stop offset="88%" stop-color="rgb(153,156,158)"/><stop offset="100%" stop-color="rgb(128,129,131)"/></linearGradient><linearGradient id="__lottie_element_47028" spreadMethod="pad" gradientUnits="userSpaceOnUse" x1="4" y1="-77" x2="2" y2="170.27499389648438"><stop offset="1%" stop-color="rgb(198,202,208)"/><stop offset="29%" stop-color="rgb(208,210,215)"/><stop offset="56%" stop-color="rgb(217,218,221)"/><stop offset="65%" stop-color="rgb(197,201,203)"/><stop offset="76%" stop-color="rgb(178,184,186)"/><stop offset="88%" stop-color="rgb(153,156,158)"/><stop offset="100%" stop-color="rgb(128,129,131)"/></linearGradient><linearGradient id="__lottie_element_47029" spreadMethod="pad" gradientUnits="userSpaceOnUse" x1="4" y1="-77" x2="2" y2="170.27499389648438"><stop offset="1%" stop-color="rgb(198,202,208)"/><stop offset="29%" stop-color="rgb(208,210,215)"/><stop offset="56%" stop-color="rgb(217,218,221)"/><stop offset="65%" stop-color="rgb(197,201,203)"/><stop offset="76%" stop-color="rgb(178,184,186)"/><stop offset="88%" stop-color="rgb(153,156,158)"/><stop offset="100%" stop-color="rgb(128,129,131)"/></linearGradient><linearGradient id="__lottie_element_47030" spreadMethod="pad" gradientUnits="userSpaceOnUse" x1="4" y1="-77" x2="2" y2="170.27499389648438"><stop offset="1%" stop-color="rgb(198,202,208)"/><stop offset="29%" stop-color="rgb(208,210,215)"/><stop offset="56%" stop-color="rgb(217,218,221)"/><stop offset="65%" stop-color="rgb(197,201,203)"/><stop offset="76%" stop-color="rgb(178,184,186)"/><stop offset="88%" stop-color="rgb(153,156,158)"/><stop offset="100%" stop-color="rgb(128,129,131)"/></linearGradient><linearGradient id="__lottie_element_47031" spreadMethod="pad" gradientUnits="userSpaceOnUse" x1="4" y1="-77" x2="2" y2="170.27499389648438"><stop offset="1%" stop-color="rgb(198,202,208)"/><stop offset="29%" stop-color="rgb(208,210,215)"/><stop offset="56%" stop-color="rgb(217,218,221)"/><stop offset="65%" stop-color="rgb(197,201,203)"/><stop offset="76%" stop-color="rgb(178,184,186)"/><stop offset="88%" stop-color="rgb(153,156,158)"/><stop offset="100%" stop-color="rgb(128,129,131)"/></linearGradient><linearGradient id="__lottie_element_47032" spreadMethod="pad" gradientUnits="userSpaceOnUse" x1="4" y1="-77" x2="2" y2="170.27499389648438"><stop offset="1%" stop-color="rgb(198,202,208)"/><stop offset="29%" stop-color="rgb(208,210,215)"/><stop offset="56%" stop-color="rgb(217,218,221)"/><stop offset="65%" stop-color="rgb(197,201,203)"/><stop offset="76%" stop-color="rgb(178,184,186)"/><stop offset="88%" stop-color="rgb(153,156,158)"/><stop offset="100%" stop-color="rgb(128,129,131)"/></linearGradient><linearGradient id="__lottie_element_47033" spreadMethod="pad" gradientUnits="userSpaceOnUse" x1="4" y1="-77" x2="2" y2="170.27499389648438"><stop offset="1%" stop-color="rgb(198,202,208)"/><stop offset="29%" stop-color="rgb(208,210,215)"/><stop offset="56%" stop-color="rgb(217,218,221)"/><stop offset="65%" stop-color="rgb(197,201,203)"/><stop offset="76%" stop-color="rgb(178,184,186)"/><stop offset="88%" stop-color="rgb(153,156,158)"/><stop offset="100%" stop-color="rgb(128,129,131)"/></linearGradient><linearGradient id="__lottie_element_47034" spreadMethod="pad" gradientUnits="userSpaceOnUse" x1="4" y1="-77" x2="2" y2="170.27499389648438"><stop offset="1%" stop-color="rgb(198,202,208)"/><stop offset="29%" stop-color="rgb(208,210,215)"/><stop offset="56%" stop-color="rgb(217,218,221)"/><stop offset="65%" stop-color="rgb(197,201,203)"/><stop offset="76%" stop-color="rgb(178,184,186)"/><stop offset="88%" stop-color="rgb(153,156,158)"/><stop offset="100%" stop-color="rgb(128,129,131)"/></linearGradient><linearGradient id="__lottie_element_47035" spreadMethod="pad" gradientUnits="userSpaceOnUse" x1="4" y1="-77" x2="2" y2="170.27499389648438"><stop offset="1%" stop-color="rgb(198,202,208)"/><stop offset="29%" stop-color="rgb(208,210,215)"/><stop offset="56%" stop-color="rgb(217,218,221)"/><stop offset="65%" stop-color="rgb(197,201,203)"/><stop offset="76%" stop-color="rgb(178,184,186)"/><stop offset="88%" stop-color="rgb(153,156,158)"/><stop offset="100%" stop-color="rgb(128,129,131)"/></linearGradient><mask id="__lottie_element_47020_1" mask-type="alpha"><g id="__lottie_element_47020"><g style="display: block;" transform="matrix(1,0,0,1,256,260)" opacity="1"><g opacity="1" transform="matrix(1,0,0,1,0,0)"><g opacity="1" transform="matrix(1,0,0,1,0,0)"><path fill="rgb(255,255,255)" fill-opacity="1" d=" M148.5659942626953,157.71099853515625 C119.48699951171875,171.22900390625 92.95600128173828,221.5030059814453 0.8700000047683716,221.5030059814453 C-102.83399963378906,221.5030059814453 -108.28099822998047,166.6719970703125 -146.29100036621094,155.52499389648438 C-163.53399658203125,150.46800231933594 -148.75900268554688,130.8769989013672 -147.11099243164062,125.96800231933594 C-141.37899780273438,109.00800323486328 -127.8550033569336,87.75800323486328 -115.625,40.9379997253418 C-98.98500061035156,-22.711999893188477 -116.18800354003906,-48.8129997253418 -103.18800354003906,-103.06300354003906 C-90.18800354003906,-157.31300354003906 -46,-181.125 -0.31200000643730164,-181.125 C44.9379997253418,-181.125 83.68800354003906,-163.625 101.75,-112.25 C119.81199645996094,-60.875 101.85600280761719,-35.00199890136719 114.875,34.4379997253418 C124.625,86.40799713134766 127.49500274658203,84.53500366210938 134.76499938964844,101.90699768066406 C141.5,118 163,151 148.5659942626953,157.71099853515625z"/></g></g></g></g></mask><linearGradient id="__lottie_element_47039" spreadMethod="pad" gradientUnits="userSpaceOnUse" x1="112.53399658203125" y1="-130.50999450683594" x2="131.31100463867188" y2="26.770000457763672"><stop offset="1%" stop-color="rgb(207,213,219)"/><stop offset="71%" stop-color="rgb(177,180,187)"/><stop offset="100%" stop-color="rgb(147,147,156)"/></linearGradient><linearGradient id="__lottie_element_47040" spreadMethod="pad" gradientUnits="userSpaceOnUse" x1="159.2429962158203" y1="-67.54900360107422" x2="188.8489990234375" y2="-31.989999771118164"><stop offset="0%" stop-color="rgb(252,254,255)"/><stop offset="53%" stop-color="rgb(230,231,235)"/><stop offset="76%" stop-color="rgb(208,208,215)"/><stop offset="88%" stop-color="rgb(193,193,201)"/><stop offset="100%" stop-color="rgb(177,177,187)"/></linearGradient><linearGradient id="__lottie_element_47044" spreadMethod="pad" gradientUnits="userSpaceOnUse" x1="112.53399658203125" y1="-130.50999450683594" x2="131.31100463867188" y2="26.770000457763672"><stop offset="1%" stop-color="rgb(207,213,219)"/><stop offset="71%" stop-color="rgb(177,180,187)"/><stop offset="100%" stop-color="rgb(147,147,156)"/></linearGradient><linearGradient id="__lottie_element_47045" spreadMethod="pad" gradientUnits="userSpaceOnUse" x1="160.6959991455078" y1="-67.10299682617188" x2="189.82200622558594" y2="-31.531999588012695"><stop offset="0%" stop-color="rgb(252,254,255)"/><stop offset="53%" stop-color="rgb(230,231,235)"/><stop offset="76%" stop-color="rgb(208,208,215)"/><stop offset="88%" stop-color="rgb(193,193,201)"/><stop offset="100%" stop-color="rgb(177,177,187)"/></linearGradient></defs><g clip-path="url(#__lottie_element_46988)"><g style="display: block;" transform="matrix(1.0397006273269653,-0.024774668738245964,0.024774067103862762,1.0397107601165771,255.7080535888672,257.5455322265625)" opacity="1"><g opacity="1" transform="matrix(-1,0,0,1,-2.7949981689453125,0.7399997711181641)"><g opacity="1" transform="matrix(1,0,0,1,0,0)"><path fill="url(#__lottie_element_47044)" fill-opacity="1" d=" M114.68299865722656,50.891998291015625 C213.4669952392578,-17.545000076293945 218.6199951171875,-109.81199645996094 188.15499877929688,-110.68399810791016 C173.51199340820312,-111.10299682617188 169.53500366210938,-100.97799682617188 160.60299682617188,-79.54199981689453 C152.61599731445312,-60.374000549316406 135.2779998779297,-49.92499923706055 124.41100311279297,-45.590999603271484 C91.51399993896484,-32.470001220703125 77.13500213623047,-12.508999824523926 83.5270004272461,17.76799964904785 C89.50299835205078,46.07400131225586 96.0199966430664,63.821998596191406 114.68299865722656,50.891998291015625z"/><path stroke-linecap="butt" stroke-linejoin="miter" fill-opacity="0" stroke-miterlimit="10" stroke="rgb(117,115,120)" stroke-opacity="1" stroke-width="8" d=" M114.68299865722656,50.891998291015625 C213.4669952392578,-17.545000076293945 218.6199951171875,-109.81199645996094 188.15499877929688,-110.68399810791016 C173.51199340820312,-111.10299682617188 169.53500366210938,-100.97799682617188 160.60299682617188,-79.54199981689453 C152.61599731445312,-60.374000549316406 135.2779998779297,-49.92499923706055 124.41100311279297,-45.590999603271484 C91.51399993896484,-32.470001220703125 77.13500213623047,-12.508999824523926 83.5270004272461,17.76799964904785 C89.50299835205078,46.07400131225586 96.0199966430664,63.821998596191406 114.68299865722656,50.891998291015625z"/></g><g opacity="1" transform="matrix(1,0,0,1,0,0)"><path fill="url(#__lottie_element_47045)" fill-opacity="1" d=" M152.66700744628906,-51.39500045776367 C174.68499755859375,-70.79000091552734 174.37399291992188,-98.58300018310547 185.2830047607422,-99.1500015258789 C194.69500732421875,-99.63899993896484 198.09300231933594,-68.59400177001953 182.53900146484375,-37.07600021362305 C166.98500061035156,-5.558000087738037 137.5780029296875,21.11400032043457 127.0989990234375,21.16900062561035 C116.62000274658203,21.224000930786133 112.72699737548828,-0.35899999737739563 111.76899719238281,-18.676000595092773 C111.16500091552734,-30.219999313354492 132.51199340820312,-33.64099884033203 152.66700744628906,-51.39500045776367z"/></g></g></g><g style="display: block;" transform="matrix(-1.0397005081176758,-0.02477431297302246,-0.024774428457021713,1.0397107601165771,256.2921142578125,257.5455322265625)" opacity="1"><g opacity="1" transform="matrix(-1,0,0,1,-2.7949981689453125,0.7399997711181641)"><g opacity="1" transform="matrix(1,0,0,1,0,0)"><path fill="url(#__lottie_element_47039)" fill-opacity="1" d=" M114.68299865722656,50.891998291015625 C213.4669952392578,-17.545000076293945 218.6199951171875,-109.81199645996094 188.15499877929688,-110.68399810791016 C173.51199340820312,-111.10299682617188 169.53500366210938,-100.97799682617188 160.60299682617188,-79.54199981689453 C152.61599731445312,-60.374000549316406 135.2779998779297,-49.92499923706055 124.41100311279297,-45.590999603271484 C91.51399993896484,-32.470001220703125 77.13500213623047,-12.508999824523926 83.5270004272461,17.76799964904785 C89.50299835205078,46.07400131225586 96.0199966430664,63.821998596191406 114.68299865722656,50.891998291015625z"/><path stroke-linecap="butt" stroke-linejoin="miter" fill-opacity="0" stroke-miterlimit="10" stroke="rgb(117,115,120)" stroke-opacity="1" stroke-width="8" d=" M114.68299865722656,50.891998291015625 C213.4669952392578,-17.545000076293945 218.6199951171875,-109.81199645996094 188.15499877929688,-110.68399810791016 C173.51199340820312,-111.10299682617188 169.53500366210938,-100.97799682617188 160.60299682617188,-79.54199981689453 C152.61599731445312,-60.374000549316406 135.2779998779297,-49.92499923706055 124.41100311279297,-45.590999603271484 C91.51399993896484,-32.470001220703125 77.13500213623047,-12.508999824523926 83.5270004272461,17.76799964904785 C89.50299835205078,46.07400131225586 96.0199966430664,63.821998596191406 114.68299865722656,50.891998291015625z"/></g><g opacity="1" transform="matrix(1,0,0,1,0,0)"><path fill="url(#__lottie_element_47040)" fill-opacity="1" d=" M152.66700744628906,-51.39500045776367 C174.68499755859375,-70.79000091552734 174.37399291992188,-98.58300018310547 185.2830047607422,-99.1500015258789 C194.69500732421875,-99.63899993896484 198.09300231933594,-68.59400177001953 182.53900146484375,-37.07600021362305 C166.98500061035156,-5.558000087738037 137.5780029296875,21.11400032043457 127.0989990234375,21.16900062561035 C116.62000274658203,21.224000930786133 112.72699737548828,-0.35899999737739563 111.76899719238281,-18.676000595092773 C111.16500091552734,-30.219999313354492 132.51199340820312,-33.64099884033203 152.66700744628906,-51.39500045776367z"/></g></g></g><g style="display: block;" transform="matrix(1.039995789527893,0,0,1.0400059223175049,256.0000915527344,260.1593017578125)" opacity="1"><g opacity="1" transform="matrix(1,0,0,1,0,0)"><path fill="url(#__lottie_element_46997)" fill-opacity="1" d=" M-0.43799999356269836,-197.06300354003906 C-50.85900115966797,-197.06300354003906 -101.93699645996094,-168.58900451660156 -116.31300354003906,-108.68800354003906 C-130.68899536132812,-48.7869987487793 -113.94300079345703,-22.159000396728516 -132.31300354003906,48.125 C-144.84500122070312,96.07499694824219 -169.8090057373047,142.2550048828125 -182.26400756835938,159.14599609375 C-192.1529998779297,172.83900451660156 -182.50399780273438,180.93800354003906 -168.41000366210938,181.1179962158203 C-138.5,181.5 -115,162 -89.06199645996094,162.56300354003906 C-56.8380012512207,163.26199340820312 -33.012001037597656,180.7169952392578 2.125,181.375 C35.5,182 55.8489990234375,162.66200256347656 83.25,162.06300354003906 C109,161.5 135.0919952392578,182.30299377441406 173.25,180.5 C183.2570037841797,179.9980010986328 193.9290008544922,170.43600463867188 182.68699645996094,158.875 C168.25599670410156,141.4709930419922 140.98300170898438,92.8499984741211 131.25,40.9379997253418 C116.8740005493164,-35.736000061035156 134.4669952392578,-62.10599899291992 114.5,-118.81300354003906 C94.53299713134766,-175.52000427246094 49.50899887084961,-197.06300354003906 -0.43799999356269836,-197.06300354003906z"/><path stroke-linecap="round" stroke-linejoin="round" fill-opacity="0" stroke="rgb(118,115,120)" stroke-opacity="1" stroke-width="8" d=" M-0.43799999356269836,-197.06300354003906 C-50.85900115966797,-197.06300354003906 -101.93699645996094,-168.58900451660156 -116.31300354003906,-108.68800354003906 C-130.68899536132812,-48.7869987487793 -113.94300079345703,-22.159000396728516 -132.31300354003906,48.125 C-144.84500122070312,96.07499694824219 -169.8090057373047,142.2550048828125 -182.26400756835938,159.14599609375 C-192.1529998779297,172.83900451660156 -182.50399780273438,180.93800354003906 -168.41000366210938,181.1179962158203 C-138.5,181.5 -115,162 -89.06199645996094,162.56300354003906 C-56.8380012512207,163.26199340820312 -33.012001037597656,180.7169952392578 2.125,181.375 C35.5,182 55.8489990234375,162.66200256347656 83.25,162.06300354003906 C109,161.5 135.0919952392578,182.30299377441406 173.25,180.5 C183.2570037841797,179.9980010986328 193.9290008544922,170.43600463867188 182.68699645996094,158.875 C168.25599670410156,141.4709930419922 140.98300170898438,92.8499984741211 131.25,40.9379997253418 C116.8740005493164,-35.736000061035156 134.4669952392578,-62.10599899291992 114.5,-118.81300354003906 C94.53299713134766,-175.52000427246094 49.50899887084961,-197.06300354003906 -0.43799999356269836,-197.06300354003906z"/></g><g opacity="1" transform="matrix(1,0,0,1,0,0)"><path stroke-linecap="round" stroke-linejoin="round" fill-opacity="0" stroke="rgb(75,73,78)" stroke-opacity="1" stroke-width="8" d=" M-185.80999755859375,172.48899841308594 C-183.94000244140625,177.95599365234375 -177.00100708007812,181.00799560546875 -168.41000366210938,181.1179962158203 C-138.5,181.5 -115,162 -89.06199645996094,162.56300354003906 C-56.8380012512207,163.26199340820312 -33.012001037597656,180.7169952392578 2.125,181.375 C35.5,182 55.8489990234375,162.66200256347656 83.25,162.06300354003906 C109,161.5 135.0919952392578,182.30299377441406 173.25,180.5 C178.90499877929688,180.21600341796875 184.77200317382812,177.0399932861328 186.77699279785156,172.24400329589844"/></g></g><g clip-path="url(#__lottie_element_47017)" style="display: block;" transform="matrix(1.039995789527893,0,0,1.0400059223175049,-10.238783836364746,-10.242212295532227)" opacity="1"><g style="display: block;" mask="url(#__lottie_element_47020_1)"><g transform="matrix(1,0,0,1,417,262)" opacity="1"><g opacity="1" transform="matrix(1,0,0,1,0,1)"><path fill="url(#__lottie_element_47026)" fill-opacity="1" d=" M372.8529968261719,34.4370002746582 C359.8330078125,-35.00299835205078 377.8030090332031,-60.92300033569336 359.7229919433594,-112.27300262451172 C330.572998046875,-195.01800537109375 233.61300659179688,-274.1499938964844 189,-238.68800354003906 C162.78500366210938,-260.4739990234375 -615.5599975585938,-264.1080017089844 -647.4819946289062,-239.10000610351562 C-691.9219970703125,-275.48699951171875 -799.43798828125,-193.78799438476562 -821.2069702148438,-103.08300018310547 C-834.2269897460938,-48.83300018310547 -816.9869995117188,-22.702999114990234 -833.6270141601562,40.946998596191406 C-845.8569946289062,87.76699829101562 -863.7969970703125,127.55699920654297 -872.43701171875,143.23699951171875 C-875.969970703125,149.67799377441406 -869.4130249023438,157.2530059814453 -849.7869873046875,151.61700439453125 C-848.7860107421875,151.61700439453125 -814.7080078125,142.04600524902344 -791.0670166015625,101.35700225830078 C-778.1519775390625,79.125 -776.6480102539062,154.9969940185547 -726.197021484375,164.8070068359375 C-659.5989990234375,177.9770050048828 -655.2860107421875,68.62699890136719 -640.8870239257812,104.09700012207031 C-633.697021484375,121.80699920654297 -620.677001953125,158.2969970703125 -587.197021484375,164.8070068359375 C-532.7479858398438,175.5749969482422 -519.1840209960938,103.1520004272461 -509.843994140625,98.64399719238281 C-496.3800048828125,94.21600341796875 -493.9809875488281,163.75399780273438 -439.7669982910156,165.77699279785156 C-383.05499267578125,167.9600067138672 -375.0419921875,71.68800354003906 -361.8869934082031,104.09700012207031 C-354.16900634765625,123.10800170898438 -356.8299865722656,154.54800415039062 -324.7560119628906,154.1840057373047 C-286.5,153.75 -264.25,79 -242.91400146484375,101.80999755859375 C-230.4149932861328,115.1719970703125 -201.71400451660156,162.5 -160.13800048828125,164.0260009765625 C-119.53900146484375,165.51699829101562 -97.75,90.75 -76.23600006103516,91.32499694824219 C-60.5,90.75 -39.5,148 3.3369998931884766,149.2270050048828 C70.33999633789062,151.12100219726562 34.27199935913086,62.356998443603516 52.95500183105469,94.26100158691406 C63.323001861572266,111.96600341796875 85.88899993896484,153.21299743652344 125.68299865722656,154.697998046875 C182.39500427246094,156.88099670410156 182.95799255371094,71.68800354003906 196.11300659179688,104.09700012207031 C203.30299377441406,121.80699920654297 216.322998046875,158.2969970703125 249.80299377441406,164.8070068359375 C295.84600830078125,173.91299438476562 313.24200439453125,123.0469970703125 323.1730041503906,102.99700164794922 C335.8489990234375,77.33599853515625 349.9159851074219,159.67799377441406 408.9930114746094,154.76699829101562 C429.5360107421875,153.0590057373047 389.94500732421875,125.54000091552734 372.8529968261719,34.4370002746582z"/></g><g opacity="1" transform="matrix(1,0,0,1,0,3)"><g opacity="1" transform="matrix(1,0,0,1,0,0)"><path fill="url(#__lottie_element_47027)" fill-opacity="1" d=" M115.38800048828125,153.33900451660156 C69.31300354003906,141.2259979248047 64.74299621582031,64.64700317382812 49.75,64.64700317382812 C34.888999938964844,64.64700317382812 65.89099884033203,146.03399658203125 13.322999954223633,155.3780059814453 C69.10399627685547,146.86199951171875 35.26100158691406,64.0479965209961 52.95399856567383,94.26100158691406 C62.374000549316406,110.3479995727539 83.27799987792969,145.86399841308594 115.38800048828125,153.33900451660156z"/></g><g opacity="1" transform="matrix(1,0,0,1,0,0)"><path fill="url(#__lottie_element_47028)" fill-opacity="1" d=" M0.0020000000949949026,149.2259979248047 C-34,137.25 -51.47800064086914,68.73300170898438 -75.3290023803711,69.0780029296875 C-104.5,69.5 -114.01799774169922,164.16099548339844 -159.2239990234375,164.125 C-110.40699768066406,160.92100524902344 -94,72.75 -68.21800231933594,94.14399719238281 C-57.26900100708008,103.2300033569336 -33.91699981689453,147.29299926757812 0.0020000000949949026,149.2259979248047z"/></g><g opacity="1" transform="matrix(1,0,0,1,0,0)"><path fill="url(#__lottie_element_47029)" fill-opacity="1" d=" M-168.5229949951172,162.75399780273438 C-207.6999969482422,151.99099731445312 -220.75,64.5 -251.21400451660156,63.42100143432617 C-275.04400634765625,62.57699966430664 -283.25,135.25 -313.9219970703125,151.2259979248047 C-280.75,142.5 -264,83.5 -245.16299438476562,101.05999755859375 C-231.4720001220703,113.822998046875 -208.75,153 -168.5229949951172,162.75399780273438z"/></g><g opacity="1" transform="matrix(1,0,0,1,0,0)"><path fill="url(#__lottie_element_47030)" fill-opacity="1" d=" M-367.18798828125,63.39699935913086 C-380.6600036621094,63.39699935913086 -384.54901123046875,144.625 -423.70599365234375,163.54200744628906 C-381.3529968261719,149.43899536132812 -373.6839904785156,75.03399658203125 -361.8869934082031,104.09700012207031 C-355.02899169921875,120.98899841308594 -359.10101318359375,143.28900146484375 -334.4849853515625,151.7899932861328 C-333.64898681640625,151.99200439453125 -332.8009948730469,152.21099853515625 -331.94000244140625,152.4550018310547 C-369.3429870605469,141.8769989013672 -352.19500732421875,63.39699935913086 -367.18798828125,63.39699935913086z"/></g><g opacity="1" transform="matrix(1,0,0,1,0,0)"><path fill="url(#__lottie_element_47031)" fill-opacity="1" d=" M-456.96099853515625,162.43699645996094 C-496.6719970703125,145.322998046875 -494.4280090332031,63.39699935913086 -508.68798828125,63.39699935913086 C-522.676025390625,63.39699935913086 -526.3400268554688,150.9600067138672 -569.8720092773438,165.4239959716797 C-529.6690063476562,159.69700622558594 -518.1019897460938,102.62999725341797 -509.843994140625,98.64399719238281 C-497.97601318359375,94.74099731445312 -494.6969909667969,148.29600524902344 -456.96099853515625,162.43699645996094z"/></g><g opacity="1" transform="matrix(1,0,0,1,0,0)"><path fill="url(#__lottie_element_47032)" fill-opacity="1" d=" M-645.68798828125,63.39699935913086 C-659.4749755859375,63.39699935913086 -663.2340087890625,148.46600341796875 -705.0260009765625,164.7550048828125 C-658.4439697265625,154.07000732421875 -653.5789794921875,72.83200073242188 -640.8870239257812,104.09700012207031 C-634.0289916992188,120.98899841308594 -621.85400390625,154.94400024414062 -591.6950073242188,163.69700622558594 C-590.3209838867188,163.94900512695312 -588.9290161132812,164.22300720214844 -587.4990234375,164.5489959716797 C-633.9500122070312,153.9709930419922 -630.6950073242188,63.39699935913086 -645.68798828125,63.39699935913086z"/></g><g opacity="1" transform="matrix(1,0,0,1,0,0)"><g opacity="1" transform="matrix(1,0,0,1,0,0)"><path fill="url(#__lottie_element_47033)" fill-opacity="1" d=" M246.2259979248047,163.96499633789062 C202.11099243164062,151.03599548339844 205.0189971923828,63.39699935913086 190.27099609375,63.39699935913086 C176.66000366210938,63.39699935913086 180.27099609375,135.22500610351562 139.96600341796875,153.01800537109375 C183.88699340820312,140.4459991455078 184.1529998779297,74.63200378417969 196.11300659179688,104.09700012207031 C203.0399932861328,121.16100311279297 215.38900756835938,155.64599609375 246.2259979248047,163.96499633789062z"/></g></g><g opacity="1" transform="matrix(1,0,0,1,0,0)"><path fill="url(#__lottie_element_47034)" fill-opacity="1" d=" M354.16400146484375,128.07899475097656 C342.3949890136719,98.9260025024414 340.1619873046875,63.39699935913086 330.77099609375,63.39699935913086 C317.12701416015625,63.39699935913086 313.30499267578125,146.70599365234375 272.72698974609375,164.2270050048828 C302.0790100097656,155.9969940185547 315.0950012207031,119.30500030517578 323.1730041503906,102.99700164794922 C330.3800048828125,88.40799713134766 338.0409851074219,108.7300033569336 354.16400146484375,128.07899475097656z"/></g><g opacity="1" transform="matrix(1,0,0,1,0,0)"><path fill="url(#__lottie_element_47035)" fill-opacity="1" d=" M-732.3930053710938,163.1929931640625 C-774.0789794921875,147.91400146484375 -771.5369873046875,63.39699935913086 -786.02099609375,63.39699935913086 C-800.8820190429688,63.39699935913086 -809.7360229492188,148.58099365234375 -861.4860229492188,153.58099365234375 C-859.0369873046875,153.343994140625 -856.6900024414062,153.06500244140625 -854.427001953125,152.75399780273438 C-852.968017578125,152.45899963378906 -851.427001953125,152.08799743652344 -849.7869873046875,151.61700439453125 C-848.7860107421875,151.61700439453125 -814.7080078125,142.04600524902344 -791.0670166015625,101.35700225830078 C-778.7039794921875,80.0739974975586 -776.791015625,148.68600463867188 -732.3930053710938,163.1929931640625z"/></g></g></g></g></g><g style="display: block;" transform="matrix(1.0451115369796753,-0.0013682409189641476,0.0013544745743274689,1.0348882675170898,256.236328125,260.0435791015625)" opacity="0.5"><g opacity="1" transform="matrix(1,0,0,1,0,0)"><path fill="rgb(145,150,152)" fill-opacity="1" d=" M1.4270000457763672,106.74400329589844 C-39.54399871826172,106.05899810791016 -43.39899826049805,68.6989974975586 -42.209999084472656,58.617000579833984 C-39.388999938964844,34.6879997253418 -40.948001861572266,18.486000061035156 -40.948001861572266,18.486000061035156 C-40.948001861572266,8.152999877929688 -35.05699920654297,-0.3019999861717224 -24.483999252319336,-0.3019999861717224 C-24.483999252319336,-0.3019999861717224 -9.27400016784668,-0.3019999861717224 -9.27400016784668,-0.3019999861717224 C-5.879000186920166,-0.3019999861717224 -2.6549999713897705,1.152999997138977 -0.45399999618530273,3.678999900817871 C-0.45399999618530273,3.678999900817871 0.11999999731779099,4.336999893188477 0.11999999731779099,4.336999893188477 C0.9679999947547913,5.309999942779541 2.5199999809265137,5.26200008392334 3.302999973297119,4.238999843597412 C3.302999973297119,4.238999843597412 3.302999973297119,4.238999843597412 3.302999973297119,4.238999843597412 C5.491000175476074,1.38100004196167 8.928000450134277,-0.3019999861717224 12.579999923706055,-0.3019999861717224 C12.579999923706055,-0.3019999861717224 28.033000946044922,-0.3019999861717224 28.033000946044922,-0.3019999861717224 C38.60599899291992,-0.3019999861717224 45.277000427246094,8.152999877929688 45.277000427246094,18.486000061035156 C45.277000427246094,18.486000061035156 46.117000579833984,39.652000427246094 44.874000549316406,67.55799865722656 C44.159000396728516,83.5999984741211 32.167999267578125,107.25800323486328 1.4270000457763672,106.74400329589844z"/></g></g><g style="display: block;" transform="matrix(1.0451115369796753,-0.0013682409189641476,0.0013544745743274689,1.0348882675170898,256.236328125,260.0435791015625)" opacity="1"><g opacity="1" transform="matrix(1,0,0,1,0,0)"><g opacity="1" transform="matrix(1,0,0,1,0,0)"><path fill="rgb(255,255,255)" fill-opacity="1" d=" M81.38500213623047,-8.545999526977539 C77.96900177001953,9.133999824523926 44.82699966430664,32.262001037597656 0.6439999938011169,32.262001037597656 C-43.53900146484375,32.262001037597656 -74.81099700927734,12.192000389099121 -79.91300201416016,-8.107999801635742 C-79.96099853515625,-8.300000190734863 -79.9749984741211,-8.859999656677246 -79.97699737548828,-9.029999732971191 C-80,-11.460000038146973 -79.63200378417969,-13.232000350952148 -76.28800201416016,-13.02400016784668 C-67.81199645996094,-12.496000289916992 -45.97700119018555,-5.077000141143799 0.6639999747276306,-4.565999984741211 C49.446998596191406,-5.099999904632568 70.40899658203125,-12.767999649047852 78.05599975585938,-12.994000434875488 C80.6050033569336,-13.069000244140625 81.31300354003906,-11.638999938964844 81.33899688720703,-9.083999633789062 C81.34100341796875,-8.914999961853027 81.4219970703125,-8.73799991607666 81.38500213623047,-8.545999526977539z"/></g></g><g opacity="0.7000000000000001" transform="matrix(1,0,0,1,0,0)"><g opacity="0.8" transform="matrix(1,0,0,1,0,0)"><path fill="rgb(191,196,200)" fill-opacity="1" d=" M82.08300018310547,-11.970999717712402 C78.63200378417969,4.4770002365112305 44.82699966430664,27.628999710083008 0.6439999938011169,27.628999710083008 C-43.53900146484375,27.628999710083008 -75.55500030517578,7.315000057220459 -80.6729965209961,-11.567000389099121 C-80.72100067138672,-11.744999885559082 -80.73500061035156,-12.267000198364258 -80.73699951171875,-12.425000190734863 C-80.76200103759766,-14.6850004196167 -79.58599853515625,-17.33099937438965 -76.24199676513672,-17.135000228881836 C-67.76599884033203,-16.63800048828125 -45.97700119018555,-12.16100025177002 0.6639999747276306,-11.685999870300293 C49.446998596191406,-12.182999610900879 70.29299926757812,-16.860000610351562 77.94000244140625,-17.083999633789062 C80.48899841308594,-17.159000396728516 82.01699829101562,-14.847000122070312 82.03800201416016,-12.470999717712402 C82.03900146484375,-12.314000129699707 82.12000274658203,-12.14900016784668 82.08300018310547,-11.970999717712402z"/></g></g><g opacity="1" transform="matrix(1,0,0,1,0,0)"><g opacity="1" transform="matrix(1,0,0,1,0,0)"><path fill="rgb(29,29,27)" fill-opacity="1" d=" M80.36199951171875,-11.107000350952148 C80.36299896240234,-11.067000389099121 80.35700225830078,-11.020999908447266 80.34200286865234,-10.97599983215332 C79.30599975585938,-6.03000020980835 75.05500030517578,-0.1770000010728836 68.99500274658203,4.710999965667725 C55.340999603271484,15.72599983215332 30.58099937438965,25.753999710083008 0.6470000147819519,25.753999710083008 C-29.04800033569336,25.753999710083008 -52.94599914550781,16.979000091552734 -66.71099853515625,6.008999824523926 C-66.71900177001953,6.004000186920166 -66.72699737548828,5.999000072479248 -66.73500061035156,5.988999843597412 C-72.67500305175781,1.2519999742507935 -77.02799987792969,-4.617000102996826 -78.75499725341797,-10.086000442504883 C-78.8479995727539,-10.37399959564209 -78.93199920654297,-10.65999984741211 -79.00900268554688,-10.947999954223633 C-79.04000091552734,-11.064000129699707 -79.02200317382812,-11.170000076293945 -79.00499725341797,-11.274999618530273 C-78.99700164794922,-11.300000190734863 -78.99600219726562,-11.331000328063965 -78.98799896240234,-11.361000061035156 C-78.9800033569336,-11.38599967956543 -78.97100067138672,-11.416000366210938 -78.97100067138672,-11.440999984741211 C-78.96199798583984,-11.51099967956543 -78.94599914550781,-11.581999778747559 -78.93699645996094,-11.647000312805176 C-78.88700103759766,-11.847999572753906 -78.82099914550781,-12.02299976348877 -78.7239990234375,-12.17300033569336 C-78.69100189208984,-12.227999687194824 -78.65799713134766,-12.277999877929688 -78.61799621582031,-12.322999954223633 C-78.53700256347656,-12.413000106811523 -78.4489974975586,-12.498000144958496 -78.35199737548828,-12.567000389099121 C-78.30400085449219,-12.60200023651123 -78.24800109863281,-12.63700008392334 -78.19200134277344,-12.670999526977539 C-74.41100311279297,-14.781999588012695 -56.111000061035156,-8.17300033569336 0.6669999957084656,-7.593999862670898 C64.28800201416016,-8.243000030517578 79.43900299072266,-16.809999465942383 80.30400085449219,-11.465999603271484 C80.31400299072266,-11.406000137329102 80.322998046875,-11.340999603271484 80.33300018310547,-11.281000137329102 C80.35099792480469,-11.220999717712402 80.36000061035156,-11.166999816894531 80.36199951171875,-11.107000350952148z"/></g></g></g><g style="display: block;" transform="matrix(1.0451115369796753,-0.0013682409189641476,0.0013544745743274689,1.0348882675170898,256.2642822265625,260.6531066894531)" opacity="1"><g opacity="1" transform="matrix(1,0,0,1,0,0)"><g opacity="1" transform="matrix(1,0,0,1,0,0)"><path fill="url(#__lottie_element_47009)" fill-opacity="1" d=" M-5.482999801635742,94.85700225830078 C-31.94700050354004,91.60700225830078 -38.77799987792969,67.65299987792969 -37.500999450683594,57.47700119018555 C-37.500999450683594,57.47700119018555 -37.05500030517578,25.11400032043457 -37.05500030517578,25.11400032043457 C-37.05500030517578,16.948999404907227 -31.9689998626709,7.968999862670898 -22.94300079345703,7.968999862670898 C-22.94300079345703,7.968999862670898 -9.958000183105469,7.968999862670898 -9.958000183105469,7.968999862670898 C-7.059999942779541,7.968999862670898 -2.006999969482422,11.418999671936035 -0.12800000607967377,13.414999961853027 C-0.12800000607967377,13.414999961853027 0.3619999885559082,13.934000015258789 0.3619999885559082,13.934000015258789 C1.0859999656677246,14.70199966430664 2.4100000858306885,14.664999961853027 3.0789999961853027,13.857000350952148 C3.0789999961853027,13.857000350952148 3.0789999961853027,13.857000350952148 3.0789999961853027,13.857000350952148 C4.947000026702881,11.598999977111816 7.881999969482422,7.968999862670898 11,7.968999862670898 C11,7.968999862670898 24.191999435424805,7.968999862670898 24.191999435424805,7.968999862670898 C33.21799850463867,7.968999862670898 40.60300064086914,16.948999404907227 40.60300064086914,25.11400032043457 C40.60300064086914,25.11400032043457 43.84299850463867,61.82600021362305 39.92900085449219,67.68099975585938 C37.659000396728516,79.30899810791016 23.97599983215332,98.4749984741211 -5.482999801635742,94.85700225830078z"/></g><g opacity="0.7000000000000001" transform="matrix(1,0,0,1,0,0)"><path stroke-linecap="round" stroke-linejoin="round" fill-opacity="0" stroke="rgb(223,51,93)" stroke-opacity="1" stroke-width="8" d=" M1.9040000438690186,12.734000205993652 C1.9040000438690186,12.734000205993652 1.899999976158142,46.3390007019043 1.899999976158142,46.3390007019043"/></g><g opacity="1" transform="matrix(1,0,0,1,0,0)"><path stroke-linecap="round" stroke-linejoin="round" fill-opacity="0" stroke="rgb(223,51,93)" stroke-opacity="1" stroke-width="8" d=" M-2.134000062942505,94.86199951171875 C-32.731998443603516,92.68000030517578 -36.70000076293945,66.95999908447266 -36.847999572753906,57.75299835205078 C-36.847999572753906,57.75299835205078 -37.05500030517578,23.635000228881836 -37.05500030517578,23.635000228881836 C-37.05500030517578,15.184000015258789 -29.44499969482422,9.269000053405762 -20.64299964904785,7.269000053405762 C-10,4.85099983215332 -2.006999969482422,9.458999633789062 -0.12800000607967377,11.524999618530273 C-0.12800000607967377,11.524999618530273 0.3619999885559082,12.062999725341797 0.3619999885559082,12.062999725341797 C1.0859999656677246,12.857999801635742 2.4100000858306885,12.819999694824219 3.0789999961853027,11.982999801635742 C3.0789999961853027,11.982999801635742 3.0789999961853027,11.982999801635742 3.0789999961853027,11.982999801635742 C6.810999870300293,8.25100040435791 15.388999938964844,5.908999919891357 24.191999435424805,7.269000053405762 C33.64400100708008,8.729000091552734 40.60300064086914,15.184000015258789 40.60300064086914,23.635000228881836 C40.60300064086914,23.635000228881836 42.249000549316406,58.85100173950195 40.34400177001953,66.50700378417969 C39.358001708984375,74.79100036621094 27.847999572753906,97 -2.134000062942505,94.86199951171875z"/></g><g opacity="0.4" transform="matrix(1,0,0,1,0,0)"><path fill="rgb(183,0,64)" fill-opacity="1" d=" M40.60300064086914,14.230999946594238 C36.78900146484375,18.66900062561035 20.85700035095215,20.990999221801758 1.7790000438690186,20.990999221801758 C-17.298999786376953,20.990999221801758 -33.24300003051758,18.66900062561035 -37.055999755859375,14.230999946594238 C-33.880001068115234,10.583000183105469 -28.46299934387207,8.17199993133545 -22.354999542236328,8.17199993133545 C-22.354999542236328,8.17199993133545 -8.37600040435791,8.17199993133545 -8.37600040435791,8.17199993133545 C-5.252999782562256,8.17199993133545 -2.3010001182556152,9.222000122070312 -0.2720000147819519,11.038000106811523 C-0.2720000147819519,11.038000106811523 0.24899999797344208,11.51099967956543 0.24899999797344208,11.51099967956543 C1.034999966621399,12.218999862670898 2.4590001106262207,12.178999900817871 3.180999994277954,11.446000099182129 C4.190000057220459,10.411999702453613 5.47599983215332,9.597000122070312 6.931000232696533,9.03499984741211 C8.397000312805176,8.472999572753906 10.022000312805176,8.17199993133545 11.699999809265137,8.17199993133545 C11.699999809265137,8.17199993133545 25.902000427246094,8.17199993133545 25.902000427246094,8.17199993133545 C32.020999908447266,8.17199993133545 37.426998138427734,10.583000183105469 40.60300064086914,14.230999946594238z"/></g><g opacity="1" transform="matrix(1,0,0,1,0,0)"><path stroke-linecap="round" stroke-linejoin="round" fill-opacity="0" stroke="rgb(159,22,70)" stroke-opacity="1" stroke-width="8" d=" M-33.02399826049805,13.899999618530273 C-29.972000122070312,10.656999588012695 -25.488000869750977,8.369999885559082 -20.64299964904785,7.269000053405762 C-10,4.85099983215332 -2.006999969482422,9.458999633789062 -0.12800000607967377,11.524999618530273 C-0.12800000607967377,11.524999618530273 0.3619999885559082,12.062999725341797 0.3619999885559082,12.062999725341797 C1.0859999656677246,12.857999801635742 2.4100000858306885,12.819999694824219 3.0789999961853027,11.982999801635742 C3.0789999961853027,11.982999801635742 3.0789999961853027,11.982999801635742 3.0789999961853027,11.982999801635742 C6.810999870300293,8.25100040435791 15.388999938964844,5.908999919891357 24.191999435424805,7.269000053405762 C29.804000854492188,8.13599967956543 34.53799819946289,10.763999938964844 37.457000732421875,14.524999618530273"/></g></g></g><g style="display: block;" transform="matrix(1.0451115369796753,-0.0013682409189641476,0.0013544745743274689,1.0348882675170898,256.236328125,260.0436096191406)" opacity="1"><g opacity="1" transform="matrix(1,0,0,1,0,0)"><path fill="rgb(255,255,255)" fill-opacity="1" d=" M-40.75699996948242,-67.51000213623047 C-40.75699996948242,-55.58000183105469 -50.426998138427734,-45.909000396728516 -62.356998443603516,-45.909000396728516 C-74.28700256347656,-45.909000396728516 -83.95700073242188,-55.58000183105469 -83.95700073242188,-67.51000213623047 C-83.95700073242188,-79.44000244140625 -74.28700256347656,-89.11000061035156 -62.356998443603516,-89.11000061035156 C-50.426998138427734,-89.11000061035156 -40.75699996948242,-79.44000244140625 -40.75699996948242,-67.51000213623047z"/></g><g opacity="1" transform="matrix(1,0,0,1,0,0)"><path fill="url(#__lottie_element_47005)" fill-opacity="1" d=" M-42.56800079345703,-71.1520004272461 C-42.56800079345703,-60.222999572753906 -51.428001403808594,-51.362998962402344 -62.356998443603516,-51.362998962402344 C-73.28600311279297,-51.362998962402344 -82.14700317382812,-60.222999572753906 -82.14700317382812,-71.1520004272461 C-82.14700317382812,-82.08100128173828 -73.28600311279297,-90.94200134277344 -62.356998443603516,-90.94200134277344 C-51.428001403808594,-90.94200134277344 -42.56800079345703,-82.08100128173828 -42.56800079345703,-71.1520004272461z"/></g></g><g style="display: block;" transform="matrix(1.0451115369796753,-0.0013682409189641476,0.0013544745743274689,1.0348882675170898,256.236328125,260.0435791015625)" opacity="1"><g opacity="1" transform="matrix(1,0,0,1,0,0)"><path fill="rgb(255,255,255)" fill-opacity="1" d=" M87.0780029296875,-66.5989990234375 C87.0780029296875,-41.983001708984375 67.12300109863281,-22.027999877929688 42.50699996948242,-22.027999877929688 C17.891000747680664,-22.027999877929688 -2.063999891281128,-41.983001708984375 -2.063999891281128,-66.5989990234375 C-2.063999891281128,-91.21499633789062 17.891000747680664,-111.16999816894531 42.50699996948242,-111.16999816894531 C67.12300109863281,-111.16999816894531 87.0780029296875,-91.21499633789062 87.0780029296875,-66.5989990234375z"/></g><g opacity="1" transform="matrix(1,0,0,1,0,0)"><path fill="url(#__lottie_element_47001)" fill-opacity="1" d=" M85.19200134277344,-71.1520004272461 C85.19200134277344,-47.577999114990234 66.08100128173828,-28.466999053955078 42.50699996948242,-28.466999053955078 C18.933000564575195,-28.466999053955078 -0.17800000309944153,-47.577999114990234 -0.17800000309944153,-71.1520004272461 C-0.17800000309944153,-94.72599792480469 18.933000564575195,-113.83699798583984 42.50699996948242,-113.83699798583984 C66.08100128173828,-113.83699798583984 85.19200134277344,-94.72599792480469 85.19200134277344,-71.1520004272461z"/></g></g></g></svg>