<svg xmlns="http://www.w3.org/2000/svg" xmlns:xlink="http://www.w3.org/1999/xlink" viewBox="0 0 512 512" width="512" height="512" style="width: 100%; height: 100%; transform: translate3d(0,0,0);" preserveAspectRatio="xMidYMid meet"><defs><clipPath id="__lottie_element_27250"><rect width="512" height="512" x="0" y="0"/></clipPath><linearGradient id="__lottie_element_27254" spreadMethod="pad" gradientUnits="userSpaceOnUse"><stop/><stop/><stop/></linearGradient><linearGradient id="__lottie_element_27258" spreadMethod="pad" gradientUnits="userSpaceOnUse"><stop/><stop/><stop/></linearGradient><linearGradient id="__lottie_element_27262" spreadMethod="pad" gradientUnits="userSpaceOnUse"><stop/><stop/><stop/></linearGradient><linearGradient id="__lottie_element_27291" spreadMethod="pad" gradientUnits="userSpaceOnUse"><stop/><stop/><stop/></linearGradient><linearGradient id="__lottie_element_27295" spreadMethod="pad" gradientUnits="userSpaceOnUse" x1="-96.1520004272461" y1="-26.142000198364258" x2="90.63700103759766" y2="115.42500305175781"><stop offset="0%" stop-color="rgb(95,29,20)"/><stop offset="52%" stop-color="rgb(130,48,14)"/><stop offset="100%" stop-color="rgb(165,68,8)"/></linearGradient><linearGradient id="__lottie_element_27299" spreadMethod="pad" gradientUnits="userSpaceOnUse"><stop/><stop/><stop/></linearGradient><radialGradient id="__lottie_element_27303" spreadMethod="pad" gradientUnits="userSpaceOnUse"><stop/><stop/><stop/><stop/><stop/></radialGradient><radialGradient id="__lottie_element_27307" spreadMethod="pad" gradientUnits="userSpaceOnUse" cx="58.06800079345703" cy="-37.18600082397461" r="165.68936416876224" fx="58.06800079345703" fy="-37.18600082397461"><stop offset="0%" stop-color="rgb(234,191,114)"/><stop offset="31%" stop-color="rgb(218,146,71)"/><stop offset="51%" stop-color="rgb(202,101,28)"/><stop offset="68%" stop-color="rgb(165,75,19)"/><stop offset="87%" stop-color="rgb(128,50,11)"/></radialGradient></defs><g clip-path="url(#__lottie_element_27250)"><g style="display: block;" transform="matrix(0.9294334650039673,-0.03245653212070465,0.03245653212070465,0.9294334650039673,6.608097076416016,25.687889099121094)" opacity="1"><g opacity="1" transform="matrix(1,0,0,1,244.09100341796875,242.41600036621094)"><path fill="rgb(216,209,195)" fill-opacity="1" d=" M-28.822999954223633,-60.441001892089844 C-45.301998138427734,-80.2509994506836 -64.29399871826172,-102.10399627685547 -65.22599792480469,-104.89900207519531 C-66.15799713134766,-107.69400024414062 -55.93299865722656,-159.28399658203125 -72.60900115966797,-183.39700317382812 C-87.72100067138672,-205.24899291992188 -117.13800048828125,-199.0959930419922 -125.11000061035156,-174.4980010986328 C-129.0760040283203,-162.25999450683594 -128.5240020751953,-153.60800170898438 -130.91700744628906,-152.9239959716797 C-133.30999755859375,-152.24000549316406 -162.70399475097656,-153.9499969482422 -173.64100646972656,-136.86000061035156 C-184.57899475097656,-119.7699966430664 -178.08399963378906,-91.03399658203125 -154.8419952392578,-80.43800354003906 C-131.60000610351562,-69.84200286865234 -104.25700378417969,-77.0199966430664 -102.20600128173828,-76.6780014038086 C-100.15499877929688,-76.33599853515625 57.29199981689453,115.8479995727539 57.29199981689453,115.8479995727539 C57.29199981689453,115.8479995727539 98.43499755859375,85.4739990234375 98.43499755859375,85.4739990234375 C98.43499755859375,85.4739990234375 7.73799991607666,-16.490999221801758 -28.822999954223633,-60.441001892089844z"/><path stroke-linecap="butt" stroke-linejoin="miter" fill-opacity="0" stroke-miterlimit="4" stroke="rgb(150,128,119)" stroke-opacity="1" stroke-width="8" d=" M-28.822999954223633,-60.441001892089844 C-45.301998138427734,-80.2509994506836 -64.29399871826172,-102.10399627685547 -65.22599792480469,-104.89900207519531 C-66.15799713134766,-107.69400024414062 -55.93299865722656,-159.28399658203125 -72.60900115966797,-183.39700317382812 C-87.72100067138672,-205.24899291992188 -117.13800048828125,-199.0959930419922 -125.11000061035156,-174.4980010986328 C-129.0760040283203,-162.25999450683594 -128.5240020751953,-153.60800170898438 -130.91700744628906,-152.9239959716797 C-133.30999755859375,-152.24000549316406 -162.70399475097656,-153.9499969482422 -173.64100646972656,-136.86000061035156 C-184.57899475097656,-119.7699966430664 -178.08399963378906,-91.03399658203125 -154.8419952392578,-80.43800354003906 C-131.60000610351562,-69.84200286865234 -104.25700378417969,-77.0199966430664 -102.20600128173828,-76.6780014038086 C-100.15499877929688,-76.33599853515625 57.29199981689453,115.8479995727539 57.29199981689453,115.8479995727539 C57.29199981689453,115.8479995727539 98.43499755859375,85.4739990234375 98.43499755859375,85.4739990234375 C98.43499755859375,85.4739990234375 7.73799991607666,-16.490999221801758 -28.822999954223633,-60.441001892089844z"/></g></g><g style="display: block;" transform="matrix(0.9294334650039673,-0.03245653212070465,0.03245653212070465,0.9294334650039673,6.609487533569336,25.688400268554688)" opacity="1"><g opacity="0.2" transform="matrix(1,0,0,1,142.343994140625,144.6649932861328)"><path fill="rgb(150,128,119)" fill-opacity="1" d=" M77.06400299072266,61.94300079345703 C77.06400299072266,61.94300079345703 64.61399841308594,99.4729995727539 64.61399841308594,99.4729995727539 C30.56399917602539,57.882999420166016 0.5139999985694885,21.232999801635742 -0.4560000002384186,21.072999954223633 C-2.50600004196167,20.732999801635742 -29.856000900268555,27.913000106811523 -53.09600067138672,17.312999725341797 C-76.33599853515625,6.7129998207092285 -82.83599853515625,-22.017000198364258 -71.89600372314453,-39.106998443603516 C-60.95600128173828,-56.196998596191406 -31.56599998474121,-54.48699951171875 -29.166000366210938,-55.176998138427734 C-26.775999069213867,-55.856998443603516 -27.326000213623047,-64.50700378417969 -23.365999221801758,-76.74700164794922 C-18.106000900268555,-92.97699737548828 -10.015000343322754,-101.60199737548828 3.6449999809265137,-99.02200317382812 C3.634999990463257,-99.02200317382812 21.520000457763672,-93.60199737548828 21.510000228881836,-93.60199737548828 C-0.8389999866485596,-99.06800079345703 -10.539999961853027,-76.822998046875 -1.8389999866485596,-40.47999954223633 C2.8359999656677246,-20.952999114990234 0.9100000262260437,-13.78499984741211 -5.355999946594238,-20.156999588012695 C-22.44499969482422,-37.5359992980957 -26.80900001525879,-41.26900100708008 -38.499000549316406,-41.37099838256836 C-54.35300064086914,-41.50899887084961 -73.05400085449219,-21.90399932861328 -43.65599822998047,-4.396999835968018 C-15.14900016784668,12.579000473022461 -0.16500000655651093,-7.4070000648498535 8.20300006866455,0 C13.895999908447266,5.039000034332275 39.2140007019043,37.042999267578125 46.534000396728516,46.65299987792969 C46.534000396728516,46.65299987792969 77.06400299072266,61.94300079345703 77.06400299072266,61.94300079345703z"/><path stroke-linecap="butt" stroke-linejoin="miter" fill-opacity="0" stroke-miterlimit="4" stroke="rgb(150,128,119)" stroke-opacity="1" stroke-width="2" d=" M77.06400299072266,61.94300079345703 C77.06400299072266,61.94300079345703 64.61399841308594,99.4729995727539 64.61399841308594,99.4729995727539 C30.56399917602539,57.882999420166016 0.5139999985694885,21.232999801635742 -0.4560000002384186,21.072999954223633 C-2.50600004196167,20.732999801635742 -29.856000900268555,27.913000106811523 -53.09600067138672,17.312999725341797 C-76.33599853515625,6.7129998207092285 -82.83599853515625,-22.017000198364258 -71.89600372314453,-39.106998443603516 C-60.95600128173828,-56.196998596191406 -31.56599998474121,-54.48699951171875 -29.166000366210938,-55.176998138427734 C-26.775999069213867,-55.856998443603516 -27.326000213623047,-64.50700378417969 -23.365999221801758,-76.74700164794922 C-18.106000900268555,-92.97699737548828 -10.015000343322754,-101.60199737548828 3.6449999809265137,-99.02200317382812 C3.634999990463257,-99.02200317382812 21.520000457763672,-93.60199737548828 21.510000228881836,-93.60199737548828 C-0.8389999866485596,-99.06800079345703 -10.539999961853027,-76.822998046875 -1.8389999866485596,-40.47999954223633 C2.8359999656677246,-20.952999114990234 0.9100000262260437,-13.78499984741211 -5.355999946594238,-20.156999588012695 C-22.44499969482422,-37.5359992980957 -26.80900001525879,-41.26900100708008 -38.499000549316406,-41.37099838256836 C-54.35300064086914,-41.50899887084961 -73.05400085449219,-21.90399932861328 -43.65599822998047,-4.396999835968018 C-15.14900016784668,12.579000473022461 -0.16500000655651093,-7.4070000648498535 8.20300006866455,0 C13.895999908447266,5.039000034332275 39.2140007019043,37.042999267578125 46.534000396728516,46.65299987792969 C46.534000396728516,46.65299987792969 77.06400299072266,61.94300079345703 77.06400299072266,61.94300079345703z"/></g></g><g style="display: block;" transform="matrix(0.9294334650039673,-0.03245653212070465,0.03245653212070465,0.9294334650039673,6.609033584594727,25.687946319580078)" opacity="1"><g opacity="0.2" transform="matrix(1,0,0,1,112.95600128173828,125.22599792480469)"><path fill="rgb(255,255,255)" fill-opacity="1" d=" M28.198999404907227,9.829999923706055 C26.281999588012695,2.4739999771118164 15.454999923706055,-12.536999702453613 1.0720000267028809,-19.665000915527344 C-7.380000114440918,-23.854000091552734 -31.45199966430664,-22.17099952697754 -28.260000228881836,-0.5339999794960022 C-24.9950008392334,21.60300064086914 33.59000015258789,30.511999130249023 28.198999404907227,9.829999923706055z"/></g></g><g style="display: block;" transform="matrix(0.9294334650039673,-0.03245653212070465,0.03245653212070465,0.9294334650039673,6.609345436096191,25.68891143798828)" opacity="1"><g opacity="0.5" transform="matrix(1,0,0,1,157.66299438476562,88.68900299072266)"><path fill="rgb(255,255,255)" fill-opacity="1" d=" M5.493000030517578,-34.625 C-24.04400062561035,-57.24700164794922 -27.07900047302246,13.656999588012695 -4.074999809265137,35.819000244140625 C15.397000312805176,54.57899856567383 32.064998626708984,-14.27400016784668 5.493000030517578,-34.625z"/></g></g><g style="display: block;" transform="matrix(0.9294334650039673,-0.03245653212070465,0.03245653212070465,0.9294334650039673,6.609033584594727,25.68936538696289)" opacity="1"><g opacity="0.5" transform="matrix(1,0,0,1,197.4759979248047,184.03700256347656)"><path fill="rgb(255,255,255)" fill-opacity="1" d=" M-19.61199951171875,-42.520999908447266 C-27.68000030517578,-52.444000244140625 -50.500999450683594,-43.92499923706055 -32.7760009765625,-22.770999908447266 C-17.2549991607666,-4.248000144958496 21.922000885009766,46.64699935913086 21.922000885009766,46.64699935913086 C21.922000885009766,46.64699935913086 39.35499954223633,21.881999969482422 39.35499954223633,21.881999969482422 C39.35499954223633,21.881999969482422 -19.61199951171875,-42.520999908447266 -19.61199951171875,-42.520999908447266z"/></g></g><g style="display: block;" transform="matrix(0.9300000071525574,0,0,0.9300000071525574,306.4945068359375,309.3236389160156)" opacity="1"><g opacity="1" transform="matrix(1,0,0,1,0,0)"><path fill="url(#__lottie_element_27307)" fill-opacity="1" d=" M-96.69300079345703,-148.63299560546875 C-99.70800018310547,-152.00999450683594 -106.45999908447266,-149.5659942626953 -109.1709976196289,-135.96499633789062 C-109.48600006103516,-134.38400268554688 -122.18199920654297,-137.16700744628906 -127.43099975585938,-130.87600708007812 C-132.33399963378906,-125 -129.93299865722656,-116.40499877929688 -130.23199462890625,-115.20800018310547 C-130.531005859375,-114.01100158691406 -143.49099731445312,-113.81199645996094 -145.2530059814453,-104.49700164794922 C-146.68499755859375,-96.927001953125 -140.3719940185547,-97.43199920654297 -132.81900024414062,-78.48899841308594 C-128.5050048828125,-67.66999816894531 -112.09300231933594,24.469999313354492 -86.87699890136719,73.375 C-61.07400131225586,123.41899871826172 -18.340999603271484,149.9929962158203 33.518001556396484,149.9929962158203 C102.01000213623047,149.9929962158203 132.66099548339844,111.87799835205078 141.96400451660156,76.00800323486328 C152.8459930419922,34.047000885009766 139.0279998779297,-22.049999237060547 90.23600006103516,-59.60100173950195 C48.516998291015625,-91.70800018310547 -8.791999816894531,-109.13300323486328 -56.4109992980957,-121.31099700927734 C-78.25399780273438,-126.89700317382812 -81.177001953125,-131.25599670410156 -96.69300079345703,-148.63299560546875z"/></g></g><g style="display: block;" transform="matrix(0.9300000071525574,0,0,0.9300000071525574,305.98486328125,316.4056091308594)" opacity="0.3"><g opacity="1" transform="matrix(1,0,0,1,0,0)"><path fill="url(#__lottie_element_27295)" fill-opacity="1" d=" M142.7469940185547,67.68599700927734 C133.43699645996094,103.55599975585938 102.78700256347656,141.66600036621094 34.297000885009766,141.66600036621094 C-17.562999725341797,141.66600036621094 -60.292999267578125,115.09600067138672 -86.09300231933594,65.0459976196289 C-111.31300354003906,16.145999908447266 -127.7229995727539,-75.99400329589844 -132.04299926757812,-86.81400299072266 C-139.59300231933594,-105.75399780273438 -145.9029998779297,-105.25399780273438 -144.47300720214844,-112.8239974975586 C-142.71299743652344,-122.14399719238281 -129.7530059814453,-122.33399963378906 -129.4530029296875,-123.53399658203125 C-129.1529998779297,-124.73400115966797 -131.55299377441406,-133.32400512695312 -126.65299987792969,-139.20399475097656 C-122.83300018310547,-143.7740020751953 -115.072998046875,-140.5540008544922 -111.01300048828125,-140.70399475097656 C-124.2239990234375,-138.2480010986328 -122.43800354003906,-128.62100219726562 -114.37000274658203,-119.10900115966797 C-81.88600158691406,-80.81199645996094 -84.21700286865234,-57.696998596191406 -63.020999908447266,-0.597000002861023 C-13.170000076293945,133.69500732421875 121.88500213623047,90.13099670410156 142.7469940185547,67.68599700927734z"/></g></g><g style="display: block;" transform="matrix(0.9300000071525574,0,0,0.9300000071525574,10.103515625,14.023552894592285)" opacity="0.1"><g opacity="1" transform="matrix(1,0,0,1,216.01600646972656,186.8209991455078)"><path fill="rgb(102,36,20)" fill-opacity="1" d=" M-1.8109999895095825,-2.499000072479248 C-6.041999816894531,-1.1990000009536743 -3.484999895095825,4.0269999504089355 1.4839999675750732,2.510999917984009 C6.453999996185303,0.9950000047683716 3.1559998989105225,-4.025000095367432 -1.8109999895095825,-2.499000072479248z"/></g><g opacity="1" transform="matrix(1,0,0,1,219.96200561523438,216.05299377441406)"><path fill="rgb(96,32,19)" fill-opacity="1" d=" M-2.940000057220459,-3.2119998931884766 C-6.2230000495910645,-0.7350000143051147 -1.1579999923706055,6.142000198364258 2.7039999961853027,3.247999906539917 C6.565000057220459,0.3540000021457672 0.9139999747276306,-6.120999813079834 -2.940000057220459,-3.2119998931884766z"/></g><g opacity="1" transform="matrix(1,0,0,1,197.4759979248047,206.03199768066406)"><path fill="rgb(96,32,19)" fill-opacity="1" d=" M-2.940000057220459,-3.2119998931884766 C-6.2230000495910645,-0.7350000143051147 -1.156999945640564,6.142000198364258 2.7039999961853027,3.247999906539917 C6.565000057220459,0.3540000021457672 0.9139999747276306,-6.120999813079834 -2.940000057220459,-3.2119998931884766z"/></g><g opacity="1" transform="matrix(1,0,0,1,245.9340057373047,215.0919952392578)"><path fill="rgb(158,33,0)" fill-opacity="1" d=" M-2.4010000228881836,-2.253000020980835 C-6.2179999351501465,-0.003000000026077032 -2.377000093460083,4.927000045776367 2.1089999675750732,2.2960000038146973 C6.59499979019165,-0.33500000834465027 2.0799999237060547,-4.894000053405762 -2.4010000228881836,-2.253000020980835z"/></g><g opacity="1" transform="matrix(1,0,0,1,291.3269958496094,326.99700927734375)"><path fill="rgb(158,33,0)" fill-opacity="1" d=" M-3.552000045776367,-5.013000011444092 C-8.130000114440918,-2.177000045776367 -2.171999931335449,8.35099983215332 3.2109999656677246,5.041999816894531 C8.593999862670898,1.7330000400543213 1.8229999542236328,-8.343000411987305 -3.552000045776367,-5.013000011444092z"/></g><g opacity="1" transform="matrix(1,0,0,1,248.20199584960938,326.37298583984375)"><path fill="rgb(96,32,19)" fill-opacity="1" d=" M-2.2679998874664307,-4.9070000648498535 C-6.419000148773193,-3.187000036239624 -2.930999994277954,6.915999889373779 1.9459999799728394,4.916999816894531 C6.822999954223633,2.9179999828338623 2.6050000190734863,-6.926000118255615 -2.2679998874664307,-4.9070000648498535z"/></g><g opacity="1" transform="matrix(1,0,0,1,259.50799560546875,363.99798583984375)"><path fill="rgb(96,32,19)" fill-opacity="1" d=" M-2.9509999752044678,-5.914999961853027 C-8.654000282287598,-3.7019999027252197 -4.191999912261963,8.505000114440918 2.509000062942505,5.929999828338623 C9.210000038146973,3.3550000190734863 3.744999885559082,-8.512999534606934 -2.9509999752044678,-5.914999961853027z"/></g><g opacity="1" transform="matrix(1,0,0,1,293.38299560546875,364.02398681640625)"><path fill="rgb(158,33,0)" fill-opacity="1" d=" M-3.8350000381469727,-5.3979997634887695 C-9.11400032043457,-2.305999994277954 -2.7679998874664307,9.036999702453613 3.437999963760376,5.429999828338623 C9.644000053405762,1.8229999542236328 2.36299991607666,-9.027999877929688 -3.8350000381469727,-5.3979997634887695z"/></g><g opacity="1" transform="matrix(1,0,0,1,255.39599609375,399.8219909667969)"><path fill="rgb(96,32,19)" fill-opacity="1" d=" M-2.9509999752044678,-5.914999961853027 C-8.654000282287598,-3.7019999027252197 -4.191999912261963,8.505000114440918 2.509000062942505,5.929999828338623 C9.208999633789062,3.3550000190734863 3.744999885559082,-8.512999534606934 -2.9509999752044678,-5.914999961853027z"/></g><g opacity="1" transform="matrix(1,0,0,1,255.39599609375,301.4280090332031)"><path fill="rgb(158,33,0)" fill-opacity="1" d=" M-2.2679998874664307,-4.9070000648498535 C-6.419000148773193,-3.187000036239624 -2.930999994277954,6.915999889373779 1.9459999799728394,4.916999816894531 C6.822999954223633,2.9179999828338623 2.6050000190734863,-6.926000118255615 -2.2679998874664307,-4.9070000648498535z"/></g><g opacity="1" transform="matrix(1,0,0,1,210.4010009765625,272.7040100097656)"><path fill="rgb(96,32,19)" fill-opacity="1" d=" M-1.8839999437332153,-3.7769999504089355 C-5.5269999504089355,-2.364000082015991 -2.677999973297119,5.429999828338623 1.6019999980926514,3.7860000133514404 C5.881999969482422,2.1419999599456787 2.3929998874664307,-5.436999797821045 -1.8839999437332153,-3.7769999504089355z"/></g><g opacity="1" transform="matrix(1,0,0,1,197.4759979248047,236.4929962158203)"><path fill="rgb(96,32,19)" fill-opacity="1" d=" M-1.8849999904632568,-3.7769999504089355 C-5.5279998779296875,-2.364000082015991 -2.677999973297119,5.429999828338623 1.6019999980926514,3.7860000133514404 C5.881999969482422,2.1419999599456787 2.3919999599456787,-5.436999797821045 -1.8849999904632568,-3.7769999504089355z"/></g><g opacity="1" transform="matrix(1,0,0,1,219.96200561523438,314.7860107421875)"><path fill="rgb(96,32,19)" fill-opacity="1" d=" M-2.2679998874664307,-4.9070000648498535 C-6.419000148773193,-3.187000036239624 -2.930999994277954,6.915999889373779 1.9459999799728394,4.916999816894531 C6.822999954223633,2.9179999828338623 2.6050000190734863,-6.926000118255615 -2.2679998874664307,-4.9070000648498535z"/></g><g opacity="1" transform="matrix(1,0,0,1,372.0060119628906,410.9630126953125)"><path fill="rgb(158,33,0)" fill-opacity="1" d=" M-6.747000217437744,-0.057999998331069946 C-7.080999851226807,5.735000133514404 6.328000068664551,7.210000038146973 6.74399995803833,0.41499999165534973 C7.159999847412109,-6.380000114440918 -6.355000019073486,-6.860000133514404 -6.747000217437744,-0.057999998331069946z"/></g><g opacity="1" transform="matrix(1,0,0,1,445.51800537109375,404.9169921875)"><path fill="rgb(158,33,0)" fill-opacity="1" d=" M-4.64900016784668,4.994999885559082 C-0.5609999895095825,9.11400032043457 9.494999885559082,0.12300000339746475 4.7170000076293945,-4.7270002365112305 C-0.061000000685453415,-9.57699966430664 -9.447999954223633,0.1589999943971634 -4.64900016784668,4.994999885559082z"/></g><g opacity="1" transform="matrix(1,0,0,1,418.0469970703125,435.7869873046875)"><path fill="rgb(96,32,19)" fill-opacity="1" d=" M-5.9720001220703125,3.3259999752044678 C-3.4000000953674316,8.527999877929688 8.987000465393066,3.186000108718872 5.991000175476074,-2.927999973297119 C2.994999885559082,-9.041999816894531 -8.991999626159668,-2.7809998989105225 -5.9720001220703125,3.3259999752044678z"/></g><g opacity="1" transform="matrix(1,0,0,1,411.5369873046875,396.3299865722656)"><path fill="rgb(186,70,12)" fill-opacity="1" d=" M-6.633999824523926,1.4479999542236328 C-5.699999809265137,7.175000190734863 7.708000183105469,5.698999881744385 6.63700008392334,-1.0240000486373901 C5.565999984741211,-7.747000217437744 -7.730000019073486,-5.276000022888184 -6.633999824523926,1.4479999542236328z"/></g><g opacity="1" transform="matrix(1,0,0,1,334.24200439453125,430.2879943847656)"><path fill="rgb(96,32,19)" fill-opacity="1" d=" M-7.427999973297119,-0.6809999942779541 C-8.312000274658203,5.684999942779541 6.3470001220703125,8.5 7.4120001792907715,1.034999966621399 C8.47700023651123,-6.429999828338623 -6.389999866485596,-8.156000137329102 -7.427999973297119,-0.6809999942779541z"/></g><g opacity="1" transform="matrix(1,0,0,1,363.85101318359375,450.6940002441406)"><path fill="rgb(96,32,19)" fill-opacity="1" d=" M-7.3470001220703125,1.5720000267028809 C-6.341000080108643,7.920000076293945 8.505000114440918,6.348999977111816 7.35099983215332,-1.1030000448226929 C6.197000026702881,-8.555000305175781 -8.529000282287598,-5.88100004196167 -7.3470001220703125,1.5720000267028809z"/></g><g opacity="1" transform="matrix(1,0,0,1,287.8330078125,399.97601318359375)"><path fill="rgb(96,32,19)" fill-opacity="1" d=" M-6.031000137329102,-4.514999866485596 C-10.076000213623047,0.47999998927116394 1.0240000486373901,10.463000297546387 5.790999889373779,4.619999885559082 C10.557999610900879,-1.2230000495910645 -1.281999945640564,-10.378999710083008 -6.031000137329102,-4.514999866485596z"/></g><g opacity="1" transform="matrix(1,0,0,1,297.4289855957031,436.0530090332031)"><path fill="rgb(96,32,19)" fill-opacity="1" d=" M-7.111000061035156,-2.2890000343322754 C-9.321999549865723,3.746000051498413 4.409999847412109,9.600000381469727 7.03000020980835,2.5290000438690186 C9.649999618530273,-4.541999816894531 -4.514999866485596,-9.375 -7.111000061035156,-2.2890000343322754z"/></g><g opacity="1" transform="matrix(1,0,0,1,235.1529998779297,349.8139953613281)"><path fill="rgb(96,32,19)" fill-opacity="1" d=" M-3.240000009536743,-5.426000118255615 C-7.4120001792907715,-2.933000087738037 -1.975000023841858,8.350000381469727 2.930000066757202,5.446000099182129 C7.835000038146973,2.5420000553131104 1.6579999923706055,-8.352999687194824 -3.240000009536743,-5.426000118255615z"/></g><g opacity="1" transform="matrix(1,0,0,1,232.21299743652344,287.0669860839844)"><path fill="rgb(96,32,19)" fill-opacity="1" d=" M-2.2230000495910645,-3.507999897003174 C-6.324999809265137,-1.7769999504089355 -2.9140000343322754,5.540999889373779 1.906000018119812,3.5230000019073486 C6.72599983215332,1.5049999952316284 2.5929999351501465,-5.540999889373779 -2.2230000495910645,-3.507999897003174z"/></g><g opacity="1" transform="matrix(1,0,0,1,0,0)"><g opacity="1" transform="matrix(1,0,0,1,297.447998046875,265.4639892578125)"><path fill="rgb(198,100,46)" fill-opacity="1" d=" M-2.118000030517578,-4.118000030517578 C-6.295000076293945,-2.5360000133514404 -3.111999988555908,5.96999979019165 1.7949999570846558,4.129000186920166 C6.702000141143799,2.2880001068115234 2.7860000133514404,-5.97599983215332 -2.118000030517578,-4.118000030517578z"/></g><g opacity="1" transform="matrix(1,0,0,1,297.447998046875,239.54100036621094)"><path fill="rgb(158,33,0)" fill-opacity="1" d=" M-1.8109999895095825,-2.499000072479248 C-6.041999816894531,-1.1990000009536743 -3.484999895095825,4.0269999504089355 1.4839999675750732,2.510999917984009 C6.453999996185303,0.9950000047683716 3.1570000648498535,-4.025000095367432 -1.8109999895095825,-2.499000072479248z"/></g><g opacity="1" transform="matrix(1,0,0,1,348.97698974609375,230.3820037841797)"><path fill="rgb(198,100,46)" fill-opacity="1" d=" M-2.2249999046325684,-3.240999937057495 C-8.269000053405762,-1.9329999685287476 -5.335999965667725,4.7729997634887695 1.7619999647140503,3.25 C8.859999656677246,1.7269999980926514 4.870999813079834,-4.7769999504089355 -2.2249999046325684,-3.240999937057495z"/></g><g opacity="1" transform="matrix(1,0,0,1,307.8330078125,215.0919952392578)"><path fill="rgb(198,100,46)" fill-opacity="1" d=" M-1.9620000123977661,-2.4639999866485596 C-6.704999923706055,-1.0679999589920044 -3.9739999771118164,4.107999801635742 1.5959999561309814,2.4790000915527344 C7.165999889373779,0.8500000238418579 3.6059999465942383,-4.103000164031982 -1.9620000123977661,-2.4639999866485596z"/></g><g opacity="1" transform="matrix(1,0,0,1,267.15301513671875,207.23399353027344)"><path fill="rgb(198,100,46)" fill-opacity="1" d=" M-1.534000039100647,-1.9270000457763672 C-5.243000030517578,-0.8349999785423279 -3.1080000400543213,3.2119998931884766 1.2480000257492065,1.937999963760376 C5.604000091552734,0.6639999747276306 2.819999933242798,-3.2090001106262207 -1.534000039100647,-1.9270000457763672z"/></g><g opacity="1" transform="matrix(1,0,0,1,246.42599487304688,196.1179962158203)"><path fill="rgb(198,100,46)" fill-opacity="1" d=" M-1.534000039100647,-1.9270000457763672 C-5.243000030517578,-0.8349999785423279 -3.1080000400543213,3.2119998931884766 1.2480000257492065,1.937999963760376 C5.604000091552734,0.6639999747276306 2.819999933242798,-3.2090001106262207 -1.534000039100647,-1.9270000457763672z"/></g><g opacity="1" transform="matrix(1,0,0,1,227.23300170898438,202.08599853515625)"><path fill="rgb(158,33,0)" fill-opacity="1" d=" M-1.8109999895095825,-2.499000072479248 C-6.041999816894531,-1.1990000009536743 -3.484999895095825,4.0269999504089355 1.4839999675750732,2.510999917984009 C6.453999996185303,0.9950000047683716 3.1570000648498535,-4.025000095367432 -1.8109999895095825,-2.499000072479248z"/></g><g opacity="1" transform="matrix(1,0,0,1,276.60198974609375,222.47999572753906)"><path fill="rgb(158,33,0)" fill-opacity="1" d=" M-1.8109999895095825,-2.499000072479248 C-6.041999816894531,-1.1990000009536743 -3.484999895095825,4.0269999504089355 1.4839999675750732,2.510999917984009 C6.453999996185303,0.9950000047683716 3.1559998989105225,-4.025000095367432 -1.8109999895095825,-2.499000072479248z"/></g><g opacity="1" transform="matrix(1,0,0,1,268.7430114746094,249.73699951171875)"><path fill="rgb(158,33,0)" fill-opacity="1" d=" M-2.8550000190734863,-3.303999900817871 C-6.5920000076293945,-0.871999979019165 -1.8170000314712524,6.177999973297119 2.5759999752044678,3.3369998931884766 C6.968999862670898,0.4959999918937683 1.531999945640564,-6.158999919891357 -2.8550000190734863,-3.303999900817871z"/></g><g opacity="1" transform="matrix(1,0,0,1,250.38699340820312,239.54100036621094)"><path fill="rgb(158,33,0)" fill-opacity="1" d=" M-2.4010000228881836,-2.253000020980835 C-6.2179999351501465,-0.003000000026077032 -2.377000093460083,4.926000118255615 2.1089999675750732,2.2950000762939453 C6.59499979019165,-0.335999995470047 2.0799999237060547,-4.894000053405762 -2.4010000228881836,-2.253000020980835z"/></g><g opacity="1" transform="matrix(1,0,0,1,286.97198486328125,286.70098876953125)"><path fill="rgb(186,70,12)" fill-opacity="1" d=" M-3.2799999713897705,-3.302000045776367 C-6.751999855041504,-0.4909999966621399 -1.0520000457763672,6.632999897003174 3.0329999923706055,3.3469998836517334 C7.118000030517578,0.06199999898672104 0.796999990940094,-6.6020002365112305 -3.2799999713897705,-3.302000045776367z"/></g><g opacity="1" transform="matrix(1,0,0,1,334.2250061035156,315.80499267578125)"><path fill="rgb(198,100,46)" fill-opacity="1" d=" M-3.9010000228881836,-5.4019999504089355 C-8.704999923706055,-2.2939999103546143 -2.1019999980926514,9.0600004196167 3.546999931335449,5.434000015258789 C9.196000099182129,1.8079999685287476 1.7389999628067017,-9.050000190734863 -3.9010000228881836,-5.4019999504089355z"/></g><g opacity="1" transform="matrix(1,0,0,1,357.78399658203125,349.6709899902344)"><path fill="rgb(186,70,12)" fill-opacity="1" d=" M-4.610000133514404,-5.043000221252441 C-9.053000450134277,-1.309999942779541 -0.925000011920929,9.454999923706055 4.303999900817871,5.09499979019165 C9.532999992370605,0.7350000143051147 0.6069999933242798,-9.425999641418457 -4.610000133514404,-5.043000221252441z"/></g><g opacity="1" transform="matrix(1,0,0,1,371.197998046875,384.81500244140625)"><path fill="rgb(186,70,12)" fill-opacity="1" d=" M-6.052999973297119,-3.0420000553131104 C-8.848999977111816,2.0429999828338623 2.617000102996826,9.14900016784668 5.919000148773193,3.194999933242798 C9.220999717712402,-2.759000062942505 -2.7699999809265137,-9.01200008392334 -6.052999973297119,-3.0420000553131104z"/></g><g opacity="1" transform="matrix(1,0,0,1,401.47601318359375,362.02398681640625)"><path fill="rgb(198,100,46)" fill-opacity="1" d=" M-6.605000019073486,-1.3450000286102295 C-8.003000259399414,4.2870001792907715 4.9019999504089355,8.21399974822998 6.565999984741211,1.6119999885559082 C8.229999542236328,-4.989999771118164 -4.964000225067139,-7.956999778747559 -6.605000019073486,-1.3450000286102295z"/></g><g opacity="1" transform="matrix(1,0,0,1,408.875,332.10101318359375)"><path fill="rgb(198,100,46)" fill-opacity="1" d=" M-6.605000019073486,-1.3450000286102295 C-8.003000259399414,4.2870001792907715 4.9019999504089355,8.21399974822998 6.565999984741211,1.6119999885559082 C8.229999542236328,-4.989999771118164 -4.964000225067139,-7.956999778747559 -6.605000019073486,-1.3450000286102295z"/></g><g opacity="1" transform="matrix(1,0,0,1,439.5409851074219,368.0790100097656)"><path fill="rgb(198,100,46)" fill-opacity="1" d=" M-5.991000175476074,3.2899999618530273 C-3.4509999752044678,8.506999969482422 8.968000411987305,3.240999937057495 6.010000228881836,-2.8910000324249268 C3.052000045776367,-9.02299976348877 -8.973999977111816,-2.8359999656677246 -5.991000175476074,3.2899999618530273z"/></g><g opacity="1" transform="matrix(1,0,0,1,373.47198486328125,320.01800537109375)"><path fill="rgb(206,116,50)" fill-opacity="1" d=" M-5.730000019073486,-3.2950000762939453 C-8.791000366210938,1.5390000343322754 1.9579999446868896,9.083999633789062 5.570000171661377,3.4260001182556152 C9.182000160217285,-2.2320001125335693 -2.135999917984009,-8.970000267028809 -5.730000019073486,-3.2950000762939453z"/></g><g opacity="1" transform="matrix(1,0,0,1,383.0669860839844,285.23199462890625)"><path fill="rgb(206,116,50)" fill-opacity="1" d=" M-5.730000019073486,-3.2950000762939453 C-8.791000366210938,1.5390000343322754 1.9579999446868896,9.083999633789062 5.570000171661377,3.4260001182556152 C9.182000160217285,-2.2320001125335693 -2.135999917984009,-8.970000267028809 -5.730000019073486,-3.2950000762939453z"/></g><g opacity="1" transform="matrix(1,0,0,1,411.59100341796875,303.2229919433594)"><path fill="rgb(206,116,50)" fill-opacity="1" d=" M-5.730000019073486,-3.2950000762939453 C-8.791000366210938,1.5390000343322754 1.9579999446868896,9.083999633789062 5.570000171661377,3.4260001182556152 C9.182000160217285,-2.2320001125335693 -2.135999917984009,-8.970000267028809 -5.730000019073486,-3.2950000762939453z"/></g><g opacity="1" transform="matrix(1,0,0,1,450.38800048828125,326.99700927734375)"><path fill="rgb(198,100,46)" fill-opacity="1" d=" M-5.730000019073486,-3.2950000762939453 C-8.791000366210938,1.5390000343322754 1.9579999446868896,9.083999633789062 5.570000171661377,3.4260001182556152 C9.182000160217285,-2.2320001125335693 -2.135999917984009,-8.970000267028809 -5.730000019073486,-3.2950000762939453z"/></g><g opacity="1" transform="matrix(1,0,0,1,344.16900634765625,288.4179992675781)"><path fill="rgb(206,116,50)" fill-opacity="1" d=" M-5.616000175476074,-3.497999906539917 C-8.845999717712402,1.225000023841858 1.63100004196167,9.145000457763672 5.440000057220459,3.618000030517578 C9.24899959564209,-1.909000039100647 -1.8240000009536743,-9.043000221252441 -5.616000175476074,-3.497999906539917z"/></g><g opacity="1" transform="matrix(1,0,0,1,325.5119934082031,244.3300018310547)"><path fill="rgb(198,100,46)" fill-opacity="1" d=" M-1.496999979019165,-3.4749999046325684 C-7.13100004196167,-3.1700000762939453 -5.535999774932861,3.822000026702881 1.0779999494552612,3.4760000705718994 C7.691999912261963,3.130000114440918 5.118000030517578,-3.8340001106262207 -1.496999979019165,-3.4749999046325684z"/></g><g opacity="1" transform="matrix(1,0,0,1,356.7820129394531,259.114990234375)"><path fill="rgb(198,100,46)" fill-opacity="1" d=" M-2.183000087738037,-3.799999952316284 C-10.168000221252441,-3.563999891281128 -7.7870001792907715,4.064000129699707 1.5870000123977661,3.8010001182556152 C10.961000442504883,3.5380001068115234 7.191999912261963,-4.077000141143799 -2.183000087738037,-3.799999952316284z"/></g><g opacity="1" transform="matrix(1,0,0,1,389.9159851074219,251.79100036621094)"><path fill="rgb(198,100,46)" fill-opacity="1" d=" M-1.6360000371932983,-4.033999919891357 C-9.57800006866455,-4.890999794006348 -8.26200008392334,2.989000082015991 1.059999942779541,4.010000228881836 C10.381999969482422,5.031000137329102 7.689000129699707,-3.0269999504089355 -1.6360000371932983,-4.033999919891357z"/></g><g opacity="1" transform="matrix(1,0,0,1,309.96600341796875,298.38800048828125)"><path fill="rgb(198,100,46)" fill-opacity="1" d=" M-3.627000093460083,-4.011000156402588 C-7.051000118255615,-1.1019999980926514 -0.6370000243186951,7.447000026702881 3.3929998874664307,4.050000190734863 C7.422999858856201,0.652999997138977 0.39399999380111694,-7.426000118255615 -3.627000093460083,-4.011000156402588z"/></g><g opacity="1" transform="matrix(1,0,0,1,321.7080078125,349.7099914550781)"><path fill="rgb(186,70,12)" fill-opacity="1" d=" M-5.315000057220459,-5.020999908447266 C-9.767000198364258,-0.6740000247955322 -0.21799999475479126,10.17300033569336 5.0229997634887695,5.0920000076293945 C10.263999938964844,0.010999999940395355 -0.08799999952316284,-10.125 -5.315000057220459,-5.020999908447266z"/></g><g opacity="1" transform="matrix(1,0,0,1,275.4590148925781,306.4859924316406)"><path fill="rgb(186,70,12)" fill-opacity="1" d=" M-2.864000082015991,-4.5929999351501465 C-6.761000156402588,-2.3570001125335693 -2.009999990463257,7.218999862670898 2.571000099182129,4.611999988555908 C7.1519999504089355,2.005000114440918 1.7109999656677246,-7.218999862670898 -2.864000082015991,-4.5929999351501465z"/></g><g opacity="1" transform="matrix(1,0,0,1,321.9840087890625,275.3630065917969)"><path fill="rgb(198,100,46)" fill-opacity="1" d=" M-4.165999889373779,-3.4240000247955322 C-7.113999843597412,-0.032999999821186066 0.5139999985694885,7.453000068664551 3.986999988555908,3.48799991607666 C7.460000038146973,-0.47699999809265137 -0.7049999833106995,-7.40500020980835 -4.165999889373779,-3.4240000247955322z"/></g><g opacity="1" transform="matrix(1,0,0,1,268.7430114746094,335.37799072265625)"><path fill="rgb(186,70,12)" fill-opacity="1" d=" M-2.2679998874664307,-4.9070000648498535 C-6.419000148773193,-3.187000036239624 -2.930999994277954,6.915999889373779 1.9459999799728394,4.916999816894531 C6.822999954223633,2.9179999828338623 2.6050000190734863,-6.926000118255615 -2.2679998874664307,-4.9070000648498535z"/></g><g opacity="1" transform="matrix(1,0,0,1,328.95001220703125,390.5480041503906)"><path fill="rgb(158,33,0)" fill-opacity="1" d=" M-7.081999778747559,-2.384999990463257 C-9.371999740600586,3.621000051498413 4.2829999923706055,9.652999877929688 6.994999885559082,2.617000102996826 C9.706999778747559,-4.419000148773193 -4.39300012588501,-9.435999870300293 -7.081999778747559,-2.384999990463257z"/></g></g><g opacity="1" transform="matrix(1,0,0,1,266.4580078125,275.3630065917969)"><path fill="rgb(158,33,0)" fill-opacity="1" d=" M-2.502000093460083,-3.4719998836517334 C-6.4629998207092285,-1.430999994277954 -2.4560000896453857,5.875999927520752 2.1989998817443848,3.49399995803833 C6.854000091552734,1.1119999885559082 2.1480000019073486,-5.868000030517578 -2.502000093460083,-3.4719998836517334z"/></g><g opacity="1" transform="matrix(1,0,0,1,245.9340057373047,264.9739990234375)"><path fill="rgb(158,33,0)" fill-opacity="1" d=" M-1.4229999780654907,-3.9519999027252197 C-5.802000045776367,-3.135999917984009 -4.051000118255615,4.8979997634887695 1.090999960899353,3.9549999237060547 C6.232999801635742,3.01200008392334 3.7179999351501465,-4.909999847412109 -1.4229999780654907,-3.9519999027252197z"/></g><g opacity="1" transform="matrix(1,0,0,1,223.3209991455078,244.3300018310547)"><path fill="rgb(96,32,19)" fill-opacity="1" d=" M-1.4229999780654907,-3.9519999027252197 C-5.802000045776367,-3.135999917984009 -4.051000118255615,4.8979997634887695 1.090999960899353,3.9549999237060547 C6.232999801635742,3.01200008392334 3.7179999351501465,-4.909999847412109 -1.4229999780654907,-3.9519999027252197z"/></g></g><g style="display: block;" transform="matrix(0.9300000071525574,0,0,0.9300000071525574,323.583251953125,308.6614990234375)" opacity="0.4"><g opacity="1" transform="matrix(1,0,0,1,0,0)"><path fill="rgb(255,200,113)" fill-opacity="1" d=" M123.8239974975586,76.01300048828125 C114.51399993896484,111.88300323486328 83.86399841308594,149.9929962158203 15.37399959564209,149.9929962158203 C11.36400032043457,149.9929962158203 7.4039998054504395,149.83299255371094 3.503999948501587,149.5229949951172 C3.503999948501587,149.5229949951172 3.4839999675750732,149.51300048828125 3.4839999675750732,149.51300048828125 C108.44400024414062,147.8419952392578 125.75399780273438,67.93299865722656 105.35399627685547,9.322999954223633 C87.65899658203125,-41.51599884033203 23.18600082397461,-78.75299835205078 -22.34600067138672,-94.09700012207031 C-70.51100158691406,-110.3280029296875 -94.19400024414062,-110.59500122070312 -109.31600189208984,-125.97699737548828 C-118.40599822998047,-135.22300720214844 -122.5469970703125,-144.2259979248047 -127.31600189208984,-135.9669952392578 C-124.60600280761719,-149.56700134277344 -117.85600280761719,-152.0070037841797 -114.83599853515625,-148.63699340820312 C-99.31600189208984,-131.2570037841797 -96.39600372314453,-126.89700317382812 -74.55599975585938,-121.30699920654297 C-26.93600082397461,-109.13700103759766 30.374000549316406,-91.70700073242188 72.09400177001953,-59.59700012207031 C120.88400268554688,-22.047000885009766 134.70399475097656,34.042999267578125 123.8239974975586,76.01300048828125z"/></g></g><g style="display: block;" transform="matrix(0.9300000071525574,0,0,0.9300000071525574,200.01043701171875,193.09690856933594)" opacity="0.1"><g opacity="1" transform="matrix(1,0,0,1,0,0)"><path fill="rgb(255,200,113)" fill-opacity="1" d=" M4.666999816894531,-4.8480000495910645 C-1.690999984741211,-8.295000076293945 -7.043000221252441,-4.914000034332275 -6.454999923706055,3.322999954223633 C-5.85099983215332,11.770999908447266 12.189000129699707,-0.7699999809265137 4.666999816894531,-4.8480000495910645z"/></g></g><g style="display: block;" transform="matrix(0.9300000071525574,0,0,0.9300000071525574,182.60829162597656,212.69386291503906)" opacity="0.1"><g opacity="1" transform="matrix(1,0,0,1,0,0)"><path fill="rgb(255,200,113)" fill-opacity="1" d=" M4.066999912261963,-4.76200008392334 C-1.9780000448226929,-5.584000110626221 -8.753999710083008,-1.5169999599456787 -4.27400016784668,3.3350000381469727 C1.246000051498413,9.312000274658203 9.208999633789062,-4.063000202178955 4.066999912261963,-4.76200008392334z"/></g></g><g style="display: block;" transform="matrix(0.9300000071525574,0,0,0.9300000071525574,306.71026611328125,308.6614990234375)" opacity="1"><g opacity="1" transform="matrix(1,0,0,1,0,0)"><path stroke-linecap="butt" stroke-linejoin="miter" fill-opacity="0" stroke-miterlimit="4" stroke="rgb(198,100,46)" stroke-opacity="1" stroke-width="8" d=" M-96.69300079345703,-148.63299560546875 C-99.70800018310547,-152.00999450683594 -106.45999908447266,-149.5659942626953 -109.1709976196289,-135.96499633789062 C-109.48600006103516,-134.38400268554688 -122.18199920654297,-137.16700744628906 -127.43099975585938,-130.87600708007812 C-132.33399963378906,-125 -129.93299865722656,-116.40499877929688 -130.23199462890625,-115.20800018310547 C-130.531005859375,-114.01100158691406 -143.49099731445312,-113.81199645996094 -145.2530059814453,-104.49700164794922 C-146.68499755859375,-96.927001953125 -140.3719940185547,-97.43199920654297 -132.81900024414062,-78.48899841308594 C-128.5050048828125,-67.66999816894531 -112.09300231933594,24.469999313354492 -86.87699890136719,73.375 C-61.07400131225586,123.41899871826172 -18.340999603271484,149.9929962158203 33.518001556396484,149.9929962158203 C102.01000213623047,149.9929962158203 132.66099548339844,111.87799835205078 141.96400451660156,76.00800323486328 C152.8459930419922,34.047000885009766 139.0279998779297,-22.049999237060547 90.23600006103516,-59.60100173950195 C48.516998291015625,-91.70800018310547 -8.791999816894531,-109.13300323486328 -56.4109992980957,-121.31099700927734 C-78.25399780273438,-126.89700317382812 -81.177001953125,-131.25599670410156 -96.69300079345703,-148.63299560546875z"/></g></g><g style="display: block;" transform="matrix(0.9300000071525574,0,0,0.9300000071525574,306.71026611328125,308.6614990234375)" opacity="1"><g opacity="1" transform="matrix(1,0,0,1,0,0)"><path stroke-linecap="round" stroke-linejoin="miter" fill-opacity="0" stroke-miterlimit="4" stroke="rgb(127,42,19)" stroke-opacity="1" stroke-width="8" d=" M-96.69300079345703,-148.63299560546875 C-99.70800018310547,-152.00999450683594 -106.45999908447266,-149.5659942626953 -109.1709976196289,-135.96499633789062 C-109.48600006103516,-134.38400268554688 -122.18199920654297,-137.16700744628906 -127.43099975585938,-130.87600708007812 C-132.33399963378906,-125 -129.93299865722656,-116.40499877929688 -130.23199462890625,-115.20800018310547 C-130.531005859375,-114.01100158691406 -143.49099731445312,-113.81199645996094 -145.2530059814453,-104.49700164794922 C-146.68499755859375,-96.927001953125 -140.3719940185547,-97.43199920654297 -132.81900024414062,-78.48899841308594 C-128.5050048828125,-67.66999816894531 -112.09300231933594,24.469999313354492 -86.87699890136719,73.375 C-61.07400131225586,123.41899871826172 -18.340999603271484,149.9929962158203 33.518001556396484,149.9929962158203 C93.35399627685547,149.9929962158203 124.30899810791016,120.90299987792969 137.38099670410156,89.63300323486328"/></g></g><g style="display: block;" transform="matrix(0.9300000071525574,0,0,0.9300000071525574,306.71026611328125,308.6614990234375)" opacity="1"><g opacity="1" transform="matrix(1,0,0,1,0,0)"><path stroke-linecap="round" stroke-linejoin="miter" fill-opacity="0" stroke-miterlimit="4" stroke="rgb(96,32,19)" stroke-opacity="1" stroke-width="8" d=" M-127.14099884033203,-131.20599365234375 C-127.23999786376953,-131.0989990234375 -127.33699798583984,-130.98899841308594 -127.43099975585938,-130.87600708007812 C-132.33399963378906,-125 -129.93299865722656,-116.40499877929688 -130.23199462890625,-115.20800018310547 C-130.531005859375,-114.01100158691406 -143.49099731445312,-113.81199645996094 -145.2530059814453,-104.49700164794922 C-146.68499755859375,-96.927001953125 -140.3719940185547,-97.43199920654297 -132.81900024414062,-78.48899841308594 C-128.5050048828125,-67.66999816894531 -112.09300231933594,24.469999313354492 -86.87699890136719,73.375 C-61.07400131225586,123.41899871826172 -18.340999603271484,149.9929962158203 33.518001556396484,149.9929962158203 C47.82400131225586,149.9929962158203 60.47999954223633,148.3300018310547 71.63400268554688,145.3719940185547"/></g></g></g></svg>