<svg xmlns="http://www.w3.org/2000/svg" xmlns:xlink="http://www.w3.org/1999/xlink" viewBox="0 0 512 512" width="512" height="512" style="width: 100%; height: 100%; transform: translate3d(0,0,0);" preserveAspectRatio="xMidYMid meet"><defs><clipPath id="__lottie_element_26828"><rect width="512" height="512" x="0" y="0"/></clipPath><linearGradient id="__lottie_element_26841" spreadMethod="pad" gradientUnits="userSpaceOnUse" x1="20.32699966430664" y1="-263.0570068359375" x2="-7.271999835968018" y2="94.16300201416016"><stop offset="0%" stop-color="rgb(253,207,24)"/><stop offset="47%" stop-color="rgb(245,171,12)"/><stop offset="93%" stop-color="rgb(237,135,0)"/></linearGradient><linearGradient id="__lottie_element_26846" spreadMethod="pad" gradientUnits="userSpaceOnUse" x1="-1.0399999618530273" y1="-176.5" x2="0.9599999785423279" y2="188.88900756835938"><stop offset="0%" stop-color="rgb(253,207,24)"/><stop offset="47%" stop-color="rgb(245,171,12)"/><stop offset="93%" stop-color="rgb(237,135,0)"/></linearGradient><radialGradient id="__lottie_element_26847" spreadMethod="pad" gradientUnits="userSpaceOnUse" cx="-6.039999961853027" cy="-160.1230010986328" r="342.6724710471032" fx="-6.039999961853027" fy="-160.1230010986328"><stop offset="7%" stop-color="rgb(254,254,226)"/><stop offset="28%" stop-color="rgb(253,238,140)"/><stop offset="49%" stop-color="rgb(252,222,54)"/><stop offset="82%" stop-color="rgb(245,184,32)"/><stop offset="100%" stop-color="rgb(238,145,10)"/></radialGradient></defs><g clip-path="url(#__lottie_element_26828)"><g style="display: block;" transform="matrix(1.0329999923706055,0,0,1.0329999923706055,40.1277961730957,41.53493118286133)" opacity="1"><g opacity="1" transform="matrix(0.9700000286102295,0,0,0.9700000286102295,-0.1243896484375,-1.19586181640625)"><g opacity="1" transform="matrix(1,0,0,1,215.6439971923828,215.64500427246094)"><path fill="url(#__lottie_element_26846)" fill-opacity="1" d=" M194.9969940185547,0 C194.9969940185547,107.69400024414062 107.69300079345703,194.9969940185547 0,194.9969940185547 C-107.69400024414062,194.9969940185547 -194.9969940185547,107.69400024414062 -194.9969940185547,0 C-194.9969940185547,-107.69400024414062 -107.69400024414062,-194.9969940185547 0,-194.9969940185547 C107.69300079345703,-194.9969940185547 194.9969940185547,-107.69400024414062 194.9969940185547,0z"/></g><g opacity="1" transform="matrix(1,0,0,1,215.70199584960938,213.7169952392578)"><path fill="url(#__lottie_element_26847)" fill-opacity="1" d=" M173.80799865722656,2.6630001068115234 C172.3040008544922,100.77200317382812 93.26899719238281,179.11199951171875 -2.7230000495910645,177.63999938964844 C-98.71399688720703,176.16799926757812 -175.31199645996094,95.44499969482422 -173.80799865722656,-2.6640000343322754 C-172.3040008544922,-100.77300262451172 -93.26899719238281,-179.11199951171875 2.7230000495910645,-177.64100646972656 C98.71399688720703,-176.16900634765625 175.31199645996094,-95.44499969482422 173.80799865722656,2.6630001068115234z"/></g></g></g><g style="display: block;" transform="matrix(1.0329999923706055,0,0,1.0329999923706055,222.39549255371094,318.3655090332031)" opacity="1"><g opacity="1" transform="matrix(1,0,0,1,32.430999755859375,37.95100021362305)"><path fill="rgb(254,221,120)" fill-opacity="1" d=" M32.180999755859375,-1.746000051498413 C32.180999755859375,3.257999897003174 17.152000427246094,4.4670000076293945 -0.0689999982714653,4.4670000076293945 C-17.288999557495117,4.4670000076293945 -32.180999755859375,3.257999897003174 -32.180999755859375,-1.746000051498413 C-32.180999755859375,-6.75 -17.256000518798828,-16.55699920654297 -0.035999998450279236,-16.55699920654297 C17.184999465942383,-16.55699920654297 32.180999755859375,-6.75 32.180999755859375,-1.746000051498413z"/></g><g opacity="0.7000000000000001" transform="matrix(1,0,0,1,32.430999755859375,33.01300048828125)"><path fill="rgb(234,172,31)" fill-opacity="1" d=" M31.180999755859375,2.1019999980926514 C31.180999755859375,7.031000137329102 17.184999465942383,5.2769999504089355 -0.035999998450279236,5.2769999504089355 C-17.256000518798828,5.2769999504089355 -31.180999755859375,7.031000137329102 -31.180999755859375,2.1019999980926514 C-31.180999755859375,-2.8269999027252197 -17.288999557495117,-15.848999977111816 -0.0689999982714653,-15.848999977111816 C17.152000427246094,-15.848999977111816 31.180999755859375,-2.8269999027252197 31.180999755859375,2.1019999980926514z"/></g><g opacity="1" transform="matrix(1,0,0,1,32.430999755859375,36.073001861572266)"><path fill="rgb(151,72,0)" fill-opacity="1" d=" M30,-0.24899999797344208 C30,4.334000110626221 16.531999588012695,2.299999952316284 -0.035999998450279236,2.299999952316284 C-16.604000091552734,2.299999952316284 -30,4.334000110626221 -30,-0.24899999797344208 C-30,-4.831999778747559 -16.604000091552734,-14.29800033569336 -0.035999998450279236,-14.29800033569336 C16.531999588012695,-14.29800033569336 30,-4.831999778747559 30,-0.24899999797344208z"/></g><g opacity="1" transform="matrix(1,0,0,1,32.43199920654297,25.951000213623047)"><path fill="rgb(99,41,0)" fill-opacity="1" d=" M28.375,12.571000099182129 C28.51300048828125,12.243000030517578 28.582000732421875,11.909000396728516 28.582000732421875,11.571999549865723 C28.582000732421875,6.98799991607666 15.744000434875488,-2.4769999980926514 -0.03999999910593033,-2.4769999980926514 C-15.824000358581543,-2.4769999980926514 -28.582000732421875,6.98799991607666 -28.582000732421875,11.571999549865723 C-28.582000732421875,11.909000396728516 -28.513999938964844,12.243000030517578 -28.375999450683594,12.571000099182129 C-29.43000030517578,11.725000381469727 -30.000999450683594,10.817000389099121 -30.000999450683594,9.871999740600586 C-30.000999450683594,5.289000034332275 -16.608999252319336,-4.176000118255615 -0.03999999910593033,-4.176000118255615 C16.530000686645508,-4.176000118255615 30.000999450683594,5.289000034332275 30.000999450683594,9.871999740600586 C30.000999450683594,10.817000389099121 29.429000854492188,11.725000381469727 28.375,12.571000099182129z"/></g></g><g style="display: block;" transform="matrix(0.9695531129837036,0,0,1.1343683004379272,146.5224609375,181.41287231445312)" opacity="1"><g opacity="1" transform="matrix(1,0,0,1,173.5070037841797,32.584999084472656)"><path fill="rgb(255,222,156)" fill-opacity="1" d=" M23.770999908447266,0 C23.770999908447266,17.857999801635742 13.128000259399414,32.334999084472656 0,32.334999084472656 C-13.128000259399414,32.334999084472656 -23.770999908447266,17.857999801635742 -23.770999908447266,0 C-23.770999908447266,-17.857999801635742 -13.128000259399414,-32.334999084472656 0,-32.334999084472656 C13.128000259399414,-32.334999084472656 23.770999908447266,-17.857999801635742 23.770999908447266,0z"/></g><g opacity="1" transform="matrix(1,0,0,1,173.5070037841797,29.256000518798828)"><path fill="rgb(234,172,31)" fill-opacity="1" d=" M23.770999908447266,0 C23.770999908447266,16.020000457763672 13.128000259399414,29.006000518798828 0,29.006000518798828 C-13.128000259399414,29.006000518798828 -23.770999908447266,16.020000457763672 -23.770999908447266,0 C-23.770999908447266,-16.020000457763672 -13.128000259399414,-29.006000518798828 0,-29.006000518798828 C13.128000259399414,-29.006000518798828 23.770999908447266,-16.020000457763672 23.770999908447266,0z"/></g><g opacity="1" transform="matrix(1,0,0,1,173.5070037841797,32.44200134277344)"><path fill="rgb(151,72,0)" fill-opacity="1" d=" M21.85700035095215,-0.0010000000474974513 C21.85700035095215,15.095999717712402 12.071000099182129,27.334999084472656 0,27.334999084472656 C-12.071999549865723,27.334999084472656 -21.85700035095215,15.095999717712402 -21.85700035095215,-0.0010000000474974513 C-21.85700035095215,-15.097999572753906 -12.071999549865723,-27.334999084472656 0,-27.334999084472656 C12.071000099182129,-27.334999084472656 21.85700035095215,-15.097999572753906 21.85700035095215,-0.0010000000474974513z"/></g><g opacity="1" transform="matrix(1,0,0,1,173.5070037841797,20.547000885009766)"><path fill="rgb(99,41,0)" fill-opacity="1" d=" M21.860000610351562,11.899999618530273 C21.860000610351562,13.100000381469727 21.799999237060547,14.279999732971191 21.670000076293945,15.4399995803833 C20.290000915527344,2.009999990463257 11.109999656677246,-8.369999885559082 0,-8.369999885559082 C-11.109999656677246,-8.369999885559082 -20.290000915527344,2.009999990463257 -21.670000076293945,15.4399995803833 C-21.799999237060547,14.279999732971191 -21.860000610351562,13.100000381469727 -21.860000610351562,11.899999618530273 C-21.860000610351562,-3.200000047683716 -12.069999694824219,-15.4399995803833 0,-15.4399995803833 C12.069999694824219,-15.4399995803833 21.860000610351562,-3.200000047683716 21.860000610351562,11.899999618530273z"/></g></g><g style="display: block;" transform="matrix(-0.9695531129837036,0,0,1.1343683004379272,364.5571594238281,181.41287231445312)" opacity="1"><g opacity="1" transform="matrix(1,0,0,1,173.5070037841797,32.584999084472656)"><path fill="rgb(255,222,156)" fill-opacity="1" d=" M23.770999908447266,0 C23.770999908447266,17.857999801635742 13.128000259399414,32.334999084472656 0,32.334999084472656 C-13.128000259399414,32.334999084472656 -23.770999908447266,17.857999801635742 -23.770999908447266,0 C-23.770999908447266,-17.857999801635742 -13.128000259399414,-32.334999084472656 0,-32.334999084472656 C13.128000259399414,-32.334999084472656 23.770999908447266,-17.857999801635742 23.770999908447266,0z"/></g><g opacity="1" transform="matrix(1,0,0,1,173.5070037841797,29.256000518798828)"><path fill="rgb(234,172,31)" fill-opacity="1" d=" M23.770999908447266,0 C23.770999908447266,16.020000457763672 13.128000259399414,29.006000518798828 0,29.006000518798828 C-13.128000259399414,29.006000518798828 -23.770999908447266,16.020000457763672 -23.770999908447266,0 C-23.770999908447266,-16.020000457763672 -13.128000259399414,-29.006000518798828 0,-29.006000518798828 C13.128000259399414,-29.006000518798828 23.770999908447266,-16.020000457763672 23.770999908447266,0z"/></g><g opacity="1" transform="matrix(1,0,0,1,173.5070037841797,32.44200134277344)"><path fill="rgb(151,72,0)" fill-opacity="1" d=" M21.85700035095215,-0.0010000000474974513 C21.85700035095215,15.095999717712402 12.071000099182129,27.334999084472656 0,27.334999084472656 C-12.071999549865723,27.334999084472656 -21.85700035095215,15.095999717712402 -21.85700035095215,-0.0010000000474974513 C-21.85700035095215,-15.097999572753906 -12.071999549865723,-27.334999084472656 0,-27.334999084472656 C12.071000099182129,-27.334999084472656 21.85700035095215,-15.097999572753906 21.85700035095215,-0.0010000000474974513z"/></g><g opacity="1" transform="matrix(1,0,0,1,173.5070037841797,20.547000885009766)"><path fill="rgb(99,41,0)" fill-opacity="1" d=" M21.860000610351562,11.899999618530273 C21.860000610351562,13.100000381469727 21.799999237060547,14.279999732971191 21.670000076293945,15.4399995803833 C20.290000915527344,2.009999990463257 11.109999656677246,-8.369999885559082 0,-8.369999885559082 C-11.109999656677246,-8.369999885559082 -20.290000915527344,2.009999990463257 -21.670000076293945,15.4399995803833 C-21.799999237060547,14.279999732971191 -21.860000610351562,13.100000381469727 -21.860000610351562,11.899999618530273 C-21.860000610351562,-3.200000047683716 -12.069999694824219,-15.4399995803833 0,-15.4399995803833 C12.069999694824219,-15.4399995803833 21.860000610351562,-3.200000047683716 21.860000610351562,11.899999618530273z"/></g></g><g style="display: block;" transform="matrix(1.0094903707504272,-0.07590396702289581,0.07590396702289581,1.0094903707504272,128.9314422607422,262.2913818359375)" opacity="1"><g opacity="1" transform="matrix(1,0,0,1,117.94999694824219,94.59500122070312)"><path fill="url(#__lottie_element_26841)" fill-opacity="1" d=" M47.64799880981445,42.494998931884766 C52.95899963378906,43.48500061035156 83.1729965209961,21.996000289916992 90.7770004272461,23.760000228881836 C101.27999877929688,26.19499969482422 103.56600189208984,44.058998107910156 87.25499725341797,56.42399978637695 C61.58700180053711,75.88099670410156 50.44200134277344,83.26599884033203 28.20199966430664,89.23400115966797 C17.042999267578125,92.01699829101562 13.288999557495117,94.34500122070312 -7.6519999504089355,94.34500122070312 C-50.67100143432617,94.34500122070312 -80.46199798583984,84.22799682617188 -113.02400207519531,61.5620002746582 C-117.69999694824219,49.05400085449219 -114.66600036621094,28.909000396728516 -106.11199951171875,11.654999732971191 C-83.84500122070312,-33.250999450683594 -84.84500122070312,-65.13899993896484 -84.84500122070312,-65.13899993896484 C-84.84500122070312,-65.13899993896484 -48.6150016784668,-52.63999938964844 -48.6150016784668,-52.63999938964844 C-48.6150016784668,-52.63999938964844 -54.125,-0.1420000046491623 -29.891000747680664,-25.865999221801758 C-26.549999237060547,-29.41200065612793 44.4640007019043,-94.34500122070312 51.400001525878906,-87.05400085449219 C64.5199966430664,-73.26000213623047 41.9900016784668,-52.19900131225586 26.625999450683594,-34.35900115966797 C5.535999774932861,-9.868000030517578 -7.551000118255615,6.074999809265137 -7.551000118255615,6.074999809265137 C-7.551000118255615,6.074999809265137 85.30699920654297,-69.77799987792969 85.30699920654297,-69.77799987792969 C100.74099731445312,-55.7140007019043 84.66899871826172,-39.6510009765625 73.86100006103516,-27.329999923706055 C63.63800048828125,-15.678999900817871 56.933998107910156,-8.692999839782715 56.933998107910156,-8.692999839782715 C56.933998107910156,-8.692999839782715 101.09100341796875,-27.329999923706055 101.09100341796875,-27.329999923706055 C117.70099639892578,-8.675999641418457 92.71499633789062,5.959000110626221 77.20600128173828,19.216999053955078 C65.25,29.43600082397461 42.3380012512207,41.51499938964844 47.64799880981445,42.494998931884766z"/></g></g><g style="display: block;" transform="matrix(1.0329999923706055,0,0,1.0329999923706055,40.1277961730957,41.53493118286133)" opacity="1"><g opacity="1" transform="matrix(1,0,0,1,0,0)"><g opacity="1" transform="matrix(1,0,0,1,208.875,208.875)"><path stroke-linecap="butt" stroke-linejoin="miter" fill-opacity="0" stroke-miterlimit="10" stroke="rgb(231,105,0)" stroke-opacity="1" stroke-width="8" d=" M188.875,0 C188.875,104.31300354003906 104.31199645996094,188.875 -0.0010000000474974513,188.875 C-104.31300354003906,188.875 -188.87600708007812,104.31300354003906 -188.87600708007812,0 C-188.87600708007812,-104.31300354003906 -104.31300354003906,-188.875 -0.0010000000474974513,-188.875 C104.31199645996094,-188.875 188.875,-104.31300354003906 188.875,0z"/></g></g></g><g style="display: block;" transform="matrix(0.7045043110847473,-0.755488395690918,0.755488395690918,0.7045043110847473,-199.0048828125,306.16705322265625)" opacity="1"><g opacity="1" transform="matrix(1,0,0,1,214.88099670410156,335.0660095214844)"><path fill="rgb(248,199,41)" fill-opacity="1" d=" M46.05400085449219,-20.39299964904785 C33.229000091552734,-19.54800033569336 22.625,-20.079999923706055 25.104999542236328,-29.663000106811523 C27.584999084472656,-39.24599838256836 45.874000549316406,-49.00699996948242 51.75600051879883,-56.98699951171875 C61.11199951171875,-69.68099975585938 64.5459976196289,-88.36399841308594 53.025001525878906,-91.6520004272461 C41.50299835205078,-94.94000244140625 32.137001037597656,-79.75700378417969 22.750999450683594,-69.1259994506836 C16.351999282836914,-61.87799835205078 4.7210001945495605,-53.64500045776367 -6.320000171661377,-48.42499923706055 C-19.302000045776367,-42.28799819946289 -21.878000259399414,-40.96699905395508 -38.034000396728516,-30.815000534057617 C-54.189998626708984,-20.663000106811523 -63.314998626708984,-4.327000141143799 -66.04399871826172,11.42300033569336 C-68.71199798583984,26.820999145507812 -67.53600311279297,50.64400100708008 -53.327999114990234,67.01699829101562 C-36.41699981689453,86.50599670410156 6.75,90.67900085449219 19.187999725341797,92.10900115966797 C19.187999725341797,92.10900115966797 44.012001037597656,83.98100280761719 45,67.02100372314453 C45,67.02100372314453 62.314998626708984,56.165000915527344 59.27199935913086,37.875999450683594 C59.27199935913086,37.875999450683594 72.87200164794922,23.551000595092773 64.41100311279297,6.783999919891357 C64.41100311279297,6.783999919891357 70.78299713134766,-22.02199935913086 46.05400085449219,-20.39299964904785z"/></g><g opacity="1" transform="matrix(1,0,0,1,312.43798828125,324.3179931640625)"><path fill="rgb(248,199,41)" fill-opacity="1" d=" M-51.08100128173828,-10.376999855041504 C-42.27000045776367,-10.526000022888184 -15.72599983215332,-13.559000015258789 -6.375999927520752,-14.204000473022461 C21.874000549316406,-16.152000427246094 47.61600112915039,-21.60300064086914 50.80099868774414,-6.892000198364258 C53.887001037597656,7.361999988555908 30.93899917602539,6.940000057220459 8.560999870300293,9.331999778747559 C-14.125,11.756999969482422 -31.469999313354492,10.942999839782715 -32.5359992980957,16.815000534057617 C-32.5359992980957,16.815000534057617 -51.08100128173828,-10.376999855041504 -51.08100128173828,-10.376999855041504z"/></g><g opacity="1" transform="matrix(1,0,0,1,324.0400085449219,357.5539855957031)"><path fill="rgb(248,199,41)" fill-opacity="1" d=" M-51.89500045776367,15.118000030517578 C-51.3129997253418,12.675999641418457 -32.23500061035156,13.657999992370605 -3.500999927520752,14.107000350952148 C28.2450008392334,14.602999687194824 52.16699981689453,13.12399959564209 51.891998291015625,0.7889999747276306 C51.564998626708984,-13.87600040435791 34.54399871826172,-12.562000274658203 5.794000148773193,-12.678000450134277 C-17.613000869750977,-12.772000312805176 -45.992000579833984,-10.720999717712402 -45.42599868774414,-15.118000030517578"/></g><g opacity="0.9" transform="matrix(1,0,0,1,302.6419982910156,318.2760009765625)"><path fill="rgb(253,220,102)" fill-opacity="1" d=" M-60.21500015258789,-4.675000190734863 C-64.1240005493164,2.755000114440918 -49.81700134277344,5.334000110626221 -25.09600067138672,3.4110000133514404 C-7.455999851226807,2.0390000343322754 31.2450008392334,-3.0950000286102295 42.42100143432617,-1.4179999828338623 C54.13600158691406,0.3400000035762787 52.393001556396484,10.805999755859375 52.393001556396484,10.805999755859375 C56.058998107910156,10.670000076293945 60.15399932861328,5.5320000648498535 60.854000091552734,1.218000054359436 C60.81100082397461,0.5609999895095825 60.72700119018555,-0.125 60.59299850463867,-0.8489999771118164 C57.88399887084961,-15.654000282287598 31.672000885009766,-10.109999656677246 3.4170000553131104,-8.161999702453613 C-5.932000160217285,-7.519000053405762 -60.21500015258789,-4.675000190734863 -60.21500015258789,-4.675000190734863z"/></g><g opacity="1" transform="matrix(1,0,0,1,308.9230041503906,390.4079895019531)"><path fill="rgb(248,199,41)" fill-opacity="1" d=" M-34.44599914550781,-18.070999145507812 C-35.737998962402344,-12.748000144958496 -20.461000442504883,-10.723999977111816 9.675000190734863,-7.747000217437744 C32.775001525878906,-5.465000152587891 51.54100036621094,-2.375 50.32400131225586,8.366999626159668 C48.88100051879883,21.111000061035156 25.51300048828125,18.944000244140625 -2.50600004196167,15.071000099182129 C-30.524999618530273,11.197999954223633 -49.10200119018555,6.0269999504089355 -50.380001068115234,10.571000099182129"/></g><g opacity="1" transform="matrix(1,0,0,1,312.2250061035156,324.9670104980469)"><path stroke-linecap="round" stroke-linejoin="round" fill-opacity="0" stroke="rgb(231,105,0)" stroke-opacity="1" stroke-width="8" d=" M-51.290000915527344,-10.293999671936035 C-42.47800064086914,-10.442999839782715 -15.512999534606934,-14.208000183105469 -6.163000106811523,-14.852999687194824 C22.086999893188477,-16.801000595092773 47.895999908447266,-22.266000747680664 51.013999938964844,-7.540999889373779 C54.071998596191406,6.901000022888184 31.152000427246094,6.290999889373779 8.77400016784668,8.682999610900879 C-13.911999702453613,11.107999801635742 -34.448001861572266,11.118000030517578 -33.61199951171875,17.4689998626709"/></g><g opacity="0.9" transform="matrix(1,0,0,1,340.77398681640625,395.91900634765625)"><path fill="rgb(253,220,102)" fill-opacity="1" d=" M3.9019999504089355,12.295999526977539 C3.9019999504089355,12.295999526977539 15.187999725341797,3.061000108718872 5.238999843597412,-2.9679999351501465 C-3.75,-8.416000366210938 -8.557000160217285,-8.343000411987305 -19.000999450683594,-12.295999526977539 C-19.000999450683594,-12.295999526977539 10.390000343322754,-11.5600004196167 15.586000442504883,-6.392000198364258 C24.17300033569336,2.1480000019073486 15.184000015258789,12.333999633789062 3.9019999504089355,12.295999526977539z"/></g><g opacity="1" transform="matrix(1,0,0,1,275.4989929199219,422.6059875488281)"><path fill="rgb(248,199,41)" fill-opacity="1" d=" M-15.324999809265137,-18.114999771118164 C-16.17300033569336,-15.309000015258789 -0.902999997138977,-12.564000129699707 13.890000343322754,-8.612000465393066 C33.257999420166016,-3.437999963760376 42.89099884033203,0.04500000178813934 41.731998443603516,8.993000030517578 C40.01300048828125,22.267000198364258 21.94700050354004,18.822999954223633 -2.736999988555908,12.656000137329102 C-16.57900047302246,9.197999954223633 -32.755001068115234,6.043000221252441 -41.82600021362305,4.23199987411499 C-41.82600021362305,4.23199987411499 -15.324999809265137,-18.114999771118164 -15.324999809265137,-18.114999771118164z"/></g><g opacity="0.9" transform="matrix(1,0,0,1,302.7250061035156,428.2560119628906)"><path fill="rgb(253,220,102)" fill-opacity="1" d=" M-0.765999972820282,11.793999671936035 C-0.765999972820282,11.793999671936035 9.272000312805176,5.9710001945495605 6.01800012588501,0.054999999701976776 C2.7939999103546143,-5.807000160217285 -7.751999855041504,-8.425999641418457 -14.524999618530273,-11.911999702453613 C-14.524999618530273,-11.911999702453613 13.583999633789062,-11.020999908447266 14.505999565124512,3.3429999351501465 C15.161999702453613,13.569000244140625 -0.765999972820282,11.793999671936035 -0.765999972820282,11.793999671936035z"/></g><g opacity="1" transform="matrix(1,0,0,1,224.3280029296875,367.2439880371094)"><path fill="rgb(243,172,25)" fill-opacity="1" d=" M-25.388999938964844,-71.48799896240234 C-25.388999938964844,-71.48799896240234 -68.6780014038086,-44.395999908447266 -49.6879997253418,0.17599999904632568 C-32.41299819946289,40.72200012207031 7.4730000495910645,42.040000915527344 77.6969985961914,71.48799896240234 C77.6969985961914,71.48799896240234 -33.60100173950195,56.99700164794922 -53.0890007019043,43.832000732421875 C-72.5770034790039,30.667999267578125 -82.4000015258789,2.3010001182556152 -75.49099731445312,-20.7549991607666 C-68.58200073242188,-43.81100082397461 -54.78099822998047,-66.39900207519531 -25.388999938964844,-71.48799896240234z"/></g><g opacity="1" transform="matrix(1,0,0,1,255.88499450683594,276.375)"><path fill="rgb(253,220,102)" fill-opacity="1" d=" M-18.715999603271484,33.417999267578125 C-24.590999603271484,16.650999069213867 14.928999900817871,-2.0739998817443848 9.232000350952148,-21.118999481201172 C6.675000190734863,-29.665000915527344 -6.144000053405762,-24.155000686645508 -6.144000053405762,-24.155000686645508 C-6.144000053405762,-24.155000686645508 -5.8979997634887695,-24.923999786376953 -5.8979997634887695,-24.923999786376953 C-0.35199999809265137,-30.746999740600586 5.492000102996826,-34.82099914550781 12.020000457763672,-32.96500015258789 C23.54199981689453,-29.674999237060547 20.111000061035156,-10.991999626159668 10.746999740600586,1.7050000429153442 C4.867000102996826,9.678999900817871 -16.232999801635742,23.84000015258789 -18.715999603271484,33.417999267578125z"/></g><g opacity="0.9" transform="matrix(1,0,0,1,325.99798583984375,355.1239929199219)"><path fill="rgb(253,220,102)" fill-opacity="1" d=" M36.709999084472656,13.928999900817871 C36.709999084472656,13.928999900817871 44.74300003051758,4.057000160217285 34.14899826049805,0.2240000069141388 C26.510000228881836,-2.5399999618530273 8.286999702453613,-1.2640000581741333 -12.22599983215332,-1.0130000114440918 C-27.4950008392334,-0.8259999752044678 -52.430999755859375,0.5619999766349792 -49.27899932861328,-13.928999900817871 C-49.27899932861328,-13.928999900817871 -43.4109992980957,-9.805999755859375 -33.94499969482422,-9.57699966430664 C-10.104000091552734,-8.99899959564209 33.55699920654297,-11.03499984741211 41.099998474121094,-8.083999633789062 C51.63800048828125,-3.9609999656677246 54.54199981689453,11.852999687194824 36.709999084472656,13.928999900817871z"/></g><g opacity="1" transform="matrix(1,0,0,1,325.2049865722656,357.3869934082031)"><path stroke-linecap="round" stroke-linejoin="round" fill-opacity="0" stroke="rgb(231,105,0)" stroke-opacity="1" stroke-width="8" d=" M-50.729000091552734,14.951000213623047 C-49.85499954223633,8.77400016784668 -36.766998291015625,13.505999565124512 -5.388000011444092,13.4399995803833 C22.166000366210938,13.381999969482422 51.02899932861328,14.843999862670898 50.72600173950195,0.9559999704360962 C50.40599822998047,-13.739999771118164 33.37799835205078,-12.395000457763672 4.627999782562256,-12.51099967956543 C-18.77899932861328,-12.604999542236328 -46.81100082397461,-9.414999961853027 -46.59199905395508,-14.951000213623047"/></g><g opacity="1" transform="matrix(1,0,0,1,308.8320007324219,390.4440002441406)"><path stroke-linecap="round" stroke-linejoin="round" fill-opacity="0" stroke="rgb(231,105,0)" stroke-opacity="1" stroke-width="8" d=" M-34.35599899291992,-18.106000900268555 C-35.7599983215332,-12.781999588012695 -10.875,-10.746999740600586 8.994000434875488,-7.894999980926514 C34.077999114990234,-4.294000148773193 52.26499938964844,-3.5910000801086426 50.415000915527344,8.331000328063965 C48.244998931884766,22.312999725341797 26.055999755859375,18.423999786376953 -3.075000047683716,14.152000427246094 C-32.599998474121094,9.821999549865723 -49.39899826049805,6.326000213623047 -50.54399871826172,11.930000305175781"/></g><g opacity="1" transform="matrix(1,0,0,1,275.70001220703125,421.24200439453125)"><path stroke-linecap="round" stroke-linejoin="round" fill-opacity="0" stroke="rgb(231,105,0)" stroke-opacity="1" stroke-width="8" d=" M-17.41200065612793,-18.868000030517578 C-18.860000610351562,-14.944000244140625 -0.335999995470047,-11.067999839782715 14.456999778747559,-7.116000175476074 C33.82500076293945,-1.9420000314712524 42.689998626708984,1.409999966621399 41.53099822998047,10.357000350952148 C39.8120002746582,23.631000518798828 20.18899917602539,18.62700080871582 -2.48799991607666,13.70199966430664 C-16.43000030517578,10.673999786376953 -28.64299964904785,7.035999774932861 -41.63100051879883,5.933000087738037"/></g><g opacity="1" transform="matrix(1,0,0,1,0,0)"><g opacity="1" transform="matrix(1,0,0,1,211.48800659179688,334.97601318359375)"><path stroke-linecap="round" stroke-linejoin="round" fill-opacity="0" stroke="rgb(231,105,0)" stroke-opacity="1" stroke-width="8" d=" M49.446998596191406,-20.304000854492188 C34.922000885009766,-19.767000198364258 31.027999877929688,-19.825000762939453 28.172000885009766,-23.85300064086914 C22.966999053955078,-31.195999145507812 49.012001037597656,-49.111000061035156 55.14799880981445,-56.89799880981445 C65.17400360107422,-69.62300109863281 67.58799743652344,-87.22799682617188 56.417999267578125,-91.56199645996094 C49.487998962402344,-94.2509994506836 42.472999572753906,-88.2239990234375 33.32600021362305,-77.0270004272461 C24.75200080871582,-66.53199768066406 15.204999923706055,-58.069000244140625 -2.927000045776367,-48.33599853515625 C-13.687000274658203,-42.560001373291016 -18.486000061035156,-40.87699890136719 -34.641998291015625,-30.725000381469727 C-50.79800033569336,-20.572999954223633 -59.922000885009766,-4.23799991607666 -62.6510009765625,11.51200008392334 C-65.31900024414062,26.90999984741211 -64.14299774169922,50.73400115966797 -49.935001373291016,67.10700225830078 C-33.02399826049805,86.59600067138672 7.232999801635742,90.24199676513672 22.58099937438965,92.197998046875"/></g></g></g></g></svg>