<svg xmlns="http://www.w3.org/2000/svg" xmlns:xlink="http://www.w3.org/1999/xlink" viewBox="0 0 512 512" width="512" height="512" style="width: 100%; height: 100%; transform: translate3d(0,0,0);" preserveAspectRatio="xMidYMid meet"><defs><clipPath id="__lottie_element_8178"><rect width="512" height="512" x="0" y="0"/></clipPath></defs><g clip-path="url(#__lottie_element_8178)"><g style="display: block;" transform="matrix(1.0989530086517334,0.047981325536966324,-0.047981325536966324,1.0989530086517334,242.67527770996094,347.8223571777344)" opacity="1"><g opacity="1" transform="matrix(1,0,0,1,0,0)"><path fill="rgb(252,206,44)" fill-opacity="1" d=" M-39.8129997253418,-82.40799713134766 C-40.11399841308594,-48.11800003051758 -17.569000244140625,-53.99100112915039 64.05500030517578,-42.15999984741211 C116.50700378417969,-34.55699920654297 154.5070037841797,-32.55699920654297 159.20899963378906,-46.8849983215332 C159.20899963378906,-46.8849983215332 146.7259979248047,-90.697998046875 114.74800109863281,-72.1050033569336 C114.74800109863281,-72.1050033569336 93.46099853515625,-100.12000274658203 62.084999084472656,-94.28900146484375 C62.084999084472656,-94.28900146484375 33.292999267578125,-121.96700286865234 10.649999618530273,-99.75399780273438 C2.9820001125335693,-104.91799926757812 -31.88599967956543,-109.80500030517578 -39.8129997253418,-82.40799713134766z"/></g></g><g style="display: block;" transform="matrix(1.0989530086517334,0.047981325536966324,-0.047981325536966324,1.0989530086517334,240.905517578125,359.4062805175781)" opacity="1"><g opacity="1" transform="matrix(1,0,0,1,0,0)"><path fill="rgb(252,206,44)" fill-opacity="1" d=" M-38.472999572753906,-97.08699798583984 C-37.07699966430664,-72.10800170898438 -38.292999267578125,-63.2599983215332 -44.025001525878906,-59.19499969482422 C-48.26599884033203,-55.624000549316406 -55.22700119018555,-52.643001556396484 -61.770999908447266,-54.20600128173828 C-78.34400177001953,-58.16299819946289 -87.27799987792969,-74.97799682617188 -102.37300109863281,-82.93599700927734 C-117.46800231933594,-90.8949966430664 -153.4010009765625,-86.61499786376953 -158.68499755859375,-66.67900085449219 C-163.97000122070312,-46.744998931884766 -147.5590057373047,-43.387001037597656 -131.8300018310547,-37.95100021362305 C-109.51200103759766,-29.28499984741211 -96.15899658203125,-14.100000381469727 -85.44000244140625,-0.41999998688697815 C-72.96700286865234,16.479000091552734 -67.88300323486328,23.613000869750977 -49.99399948120117,48.70899963378906 C-31.996999740600586,76.18399810791016 -3.5889999866485596,91.35600280761719 23.604000091552734,95.54100036621094 C50.189998626708984,99.63300323486328 91.1520004272461,96.83699798583984 118.86799621582031,71.8550033569336 C151.85899353027344,42.119998931884766 156.82899475097656,-27.280000686645508 159.6959991455078,-53.75699996948242"/></g></g><g style="display: block;" transform="matrix(1.0989530086517334,0.047981325536966324,-0.047981325536966324,1.0989530086517334,125.03153228759766,279.10479736328125)" opacity="1"><g opacity="1" transform="matrix(1,0,0,1,0,0)"><path fill="rgb(255,215,93)" fill-opacity="1" d=" M3.2279999256134033,-15.767999649047852 C19.333999633789062,-10.26099967956543 31.19499969482422,7.793000221252441 53.137001037597656,18.15999984741211 C25.233999252319336,24.472999572753906 17.910999298095703,-9.994999885559082 -15.418000221252441,-6.057000160217285 C-29.96299934387207,-4.339000225067139 -40.82899856567383,-6.107999801635742 -53.137001037597656,8.41100025177002 C-44.34600067138672,-25.6560001373291 -8.890999794006348,-19.91200065612793 3.2279999256134033,-15.767999649047852z"/></g></g><g style="display: block;" transform="matrix(1.0989530086517334,0.047981325536966324,-0.047981325536966324,1.0989530086517334,400.6745300292969,232.77749633789062)" opacity="1"><g opacity="1" transform="matrix(1,0,0,1,0,0)"><path fill="rgb(252,206,44)" fill-opacity="1" d=" M-27.743999481201172,35.0369987487793 C-18.43400001525879,37.50400161743164 -15.770000457763672,35.4739990234375 -14.947999954223633,29.882999420166016 C-11.994999885559082,9.776000022888184 -12.057999610900879,-3.0850000381469727 -9.305999755859375,-27.85300064086914 C-6.900000095367432,-49.5099983215332 -5.343999862670898,-67.78800201416016 10.1850004196167,-67.58200073242188 C33.22200012207031,-67.2770004272461 27.73900032043457,-27.836999893188477 25.62299919128418,-1.628999948501587 C23.21299934387207,22.81100082397461 20.906999588012695,51.71500015258789 19.610000610351562,67.58300018310547"/></g></g><g style="display: block;" transform="matrix(1.0989530086517334,0.047981325536966324,-0.047981325536966324,1.0989530086517334,410.6346740722656,272.8731994628906)" opacity="1"><g opacity="1" transform="matrix(1,0,0,1,0,0)"><path fill="rgb(255,215,93)" fill-opacity="1" d=" M-14.635000228881836,-80.4520034790039 C-12.48900032043457,-84.50599670410156 -2.0299999713897705,-95.25900268554688 3.7279999256134033,-83.79100036621094 C7.947000026702881,-75.38800048828125 7.0370001792907715,-58.36800003051758 5.85099983215332,-39.39699935913086 C4.74399995803833,-21.676000595092773 3.2149999141693115,-6.420000076293945 1.753000020980835,8.295000076293945 C1.1740000247955322,14.123000144958496 0.6060000061988831,19.864999771118164 0.07900000363588333,25.64299964904785 C-0.48100000619888306,31.788000106811523 -0.9959999918937683,37.9739990234375 -1.4259999990463257,44.34199905395508 C-2.763000011444092,64.11799621582031 -4.730999946594238,81.08699798583984 -2.38700008392334,105.02899932861328 C11.800000190734863,62.917999267578125 15.979999542236328,-43.69900131225586 16.26099967956543,-80.91500091552734 C16.347999572753906,-92.36100006103516 11.239999771118164,-100.52799987792969 6.441999912261963,-102.72100067138672 C-11.40999984741211,-110.88200378417969 -20.1200008392334,-95.9530029296875 -14.635000228881836,-80.4520034790039z"/></g></g><g style="display: block;" transform="matrix(1.0989530086517334,0.047981325536966324,-0.047981325536966324,1.0989530086517334,396.112548828125,219.747802734375)" opacity="1"><g opacity="0.5" transform="matrix(1,0,0,1,0,0)"><path fill="rgb(240,146,1)" fill-opacity="1" d=" M21.884000778198242,-50.23099899291992 C16.503999710083008,-52.13100051879883 6.809000015258789,-50.1150016784668 4.353000164031982,-22.18600082397461 C1.850000023841858,6.2779998779296875 -0.25699999928474426,36.35900115966797 -1.6059999465942383,41.24800109863281 C-3.507999897003174,48.13999938964844 -6.283999919891357,56.2760009765625 -21.868999481201172,54.95500183105469 C-22.232999801635742,50.50400161743164 -15.553000450134277,46.417999267578125 -10.288000106811523,43.229000091552734 C-8.505000114440918,35.33100128173828 -5.610000133514404,-4.510000228881836 -4.269999980926514,-18.079999923706055 C-2.694000005722046,-34.05400085449219 -1.4140000343322754,-49.87799835205078 8.704999923706055,-54.819000244140625 C13.78600025177002,-57.30099868774414 20.589000701904297,-54.3489990234375 21.884000778198242,-50.23099899291992z"/></g><g opacity="0.3" transform="matrix(1,0,0,1,0,0)"><path fill="rgb(240,146,1)" fill-opacity="1" d=" M21.884000778198242,-50.23099899291992 C14.923999786376953,-51.834999084472656 11.263999938964844,-40.5620002746582 9.595000267028809,-21.959999084472656 C7.040999889373779,6.5 4.622000217437744,37.029998779296875 2.1730000972747803,41.558998107910156 C-2.3929998874664307,50.00199890136719 -7.935999870300293,56.75699996948242 -21.868999481201172,54.95500183105469 C-22.232999801635742,50.50400161743164 -15.553000450134277,46.417999267578125 -10.288000106811523,43.229000091552734 C-8.505000114440918,35.33100128173828 -5.610000133514404,-4.510000228881836 -4.269999980926514,-18.079999923706055 C-2.694000005722046,-34.05400085449219 -1.4140000343322754,-49.87799835205078 8.704999923706055,-54.819000244140625 C13.78600025177002,-57.30099868774414 20.589000701904297,-54.3489990234375 21.884000778198242,-50.23099899291992z"/></g><g opacity="0.1" transform="matrix(1,0,0,1,0,0)"><path fill="rgb(240,146,1)" fill-opacity="1" d=" M21.884000778198242,-50.23099899291992 C16.707000732421875,-48.819000244140625 16.496000289916992,-40.5629997253418 14.82699966430664,-21.961000442504883 C12.27299976348877,6.499000072479248 9.458999633789062,35.60599899291992 6.166999816894531,41.48899841308594 C1.4789999723434448,49.8650016784668 -7.453999996185303,56.68899917602539 -21.868999481201172,54.95500183105469 C-22.232999801635742,50.50400161743164 -15.553000450134277,46.417999267578125 -10.288000106811523,43.229000091552734 C-8.505000114440918,35.33100128173828 -5.610000133514404,-4.510000228881836 -4.269999980926514,-18.079999923706055 C-2.694000005722046,-34.05400085449219 -1.4140000343322754,-49.87799835205078 8.704999923706055,-54.819000244140625 C13.78600025177002,-57.30099868774414 20.589000701904297,-54.3489990234375 21.884000778198242,-50.23099899291992z"/></g></g><g style="display: block;" transform="matrix(1.0989530086517334,0.047981325536966324,-0.047981325536966324,1.0989530086517334,226.61717224121094,159.07437133789062)" opacity="1"><g opacity="1" transform="matrix(1,0,0,1,0,0)"><path fill="rgb(252,206,44)" fill-opacity="1" d=" M-17.55299949645996,82.79299926757812 C-18.174999237060547,67.48100280761719 -21.44099998474121,22.209999084472656 -22.34600067138672,6.1020002365112305 C-25.08099937438965,-42.5629997253418 -35.08599853515625,-81.14700317382812 -9.946999549865723,-84.28600311279297 C12.973999977111816,-84.83599853515625 12.293000221252441,-53.53200149536133 15.920999526977539,-14.96399974822998 C19.599000930786133,24.135000228881836 23.274999618530273,62.33700180053711 26.618999481201172,77.33000183105469"/></g></g><g style="display: block;" transform="matrix(1.0989530086517334,0.047981325536966324,-0.047981325536966324,1.0989530086517334,232.5827178955078,168.22689819335938)" opacity="1"><g opacity="1" transform="matrix(1,0,0,1,0,0)"><path fill="rgb(255,215,93)" fill-opacity="1" d=" M-29.19300079345703,-75.50900268554688 C-26.19700050354004,-79.77899932861328 -10.102999687194824,-86.11499786376953 -5.511000156402588,-66.08399963378906 C-3.752000093460083,-58.4119987487793 -1.1069999933242798,-33.04600143432617 1.5399999618530273,-6.104000091552734 C4.500999927520752,24.0310001373291 7.464000225067139,56.13600158691406 9.190999984741211,67.66100311279297 C11.29800033569336,81.7229995727539 15.99899959564209,94.16300201416016 27.825000762939453,93.86699676513672 C32.803001403808594,93.69999694824219 22.777999877929688,75.00399780273438 20.31599998474121,66.7229995727539 C15.229000091552734,49.611000061035156 8.055000305175781,-47.59299850463867 6.5370001792907715,-61.13999938964844 C4.551000118255615,-78.86100006103516 -0.42399999499320984,-95.99800109863281 -16.43899917602539,-93.65699768066406 C-23.520000457763672,-92.62200164794922 -28.506999969482422,-84.9010009765625 -29.19300079345703,-75.50900268554688z"/></g></g><g style="display: block;" transform="matrix(1.0989530086517334,0.047981325536966324,-0.047981325536966324,1.0989530086517334,228.49009704589844,377.05902099609375)" opacity="1"><g opacity="0.5" transform="matrix(1,0,0,1,0,0)"><path fill="rgb(240,146,1)" fill-opacity="1" d=" M-39.415000915527344,32.18600082397461 C-21.423999786376953,59.65999984741211 6.985000133514404,74.82599639892578 34.18299865722656,79.01899719238281 C60.76900100708008,83.11199951171875 97.78399658203125,77.04000091552734 116.92500305175781,63.82099914550781 C136.0659942626953,50.60100173950195 142.49099731445312,39.88800048828125 149.88099670410156,24.73900032043457 C154.4810028076172,13.076000213623047 165.72999572753906,-13.423999786376953 171.0590057373047,-83.33100128173828 C167.4149932861328,-68.33000183105469 165.4219970703125,-56.39799880981445 162.76800537109375,-43.861000061035156 C156.1909942626953,-12.788000106811523 143.85000610351562,38.0260009765625 113.30500030517578,54.73500061035156 C91.01399993896484,66.92900085449219 61.30400085449219,71.0780029296875 34.55500030517578,65.76300048828125 C9.258000373840332,60.736000061035156 -14.968999862670898,43.1619987487793 -26.864999771118164,20.979000091552734 C-35.244998931884766,5.3520002365112305 -47.73899841308594,-20.26300048828125 -64.44100189208984,-35.79399871826172 C-75.38500213623047,-45.97100067138672 -94.11299896240234,-57.29800033569336 -104.6259994506836,-61.25199890136719 C-125.16500091552734,-68.97699737548828 -157.33799743652344,-71.21299743652344 -138.01499938964844,-96.38600158691406 C-164.52000427246094,-66.42400360107422 -132.91000366210938,-59.16899871826172 -117.58599853515625,-52.685001373291016 C-83.28800201416016,-38.172000885009766 -57.4119987487793,4.703000068664551 -39.415000915527344,32.18600082397461z"/></g><g opacity="0.2" transform="matrix(1,0,0,1,0,0)"><path fill="rgb(240,146,1)" fill-opacity="1" d=" M-39.415000915527344,32.18600082397461 C-21.423999786376953,59.65999984741211 6.985000133514404,74.82599639892578 34.18299865722656,79.01899719238281 C60.76900100708008,83.11199951171875 97.78399658203125,77.04000091552734 116.92500305175781,63.82099914550781 C136.0659942626953,50.60100173950195 142.49099731445312,39.88800048828125 149.88099670410156,24.73900032043457 C154.4810028076172,13.076000213623047 165.72999572753906,-13.423999786376953 171.0590057373047,-83.33100128173828 C167.4149932861328,-68.33000183105469 164.4530029296875,-56.858001708984375 161.55099487304688,-44.375999450683594 C154.1060028076172,-12.354999542236328 136.1300048828125,38.362998962402344 110.61900329589844,50.529998779296875 C87.68499755859375,61.46799850463867 62.59600067138672,64.1969985961914 35.84700012207031,58.88199996948242 C10.550000190734863,53.85499954223633 -4.1519999504089355,40.16600036621094 -17.448999404907227,12.605999946594238 C-25.329999923706055,-3.7290000915527344 -33.68299865722656,-31.797000885009766 -56.31800079345703,-47.750999450683594 C-66.24800109863281,-54.75 -81.58699798583984,-60.87099838256836 -100.31199645996094,-66.6729965209961 C-123.18599700927734,-73.76100158691406 -154.04200744628906,-79.09200286865234 -138.01499938964844,-96.38600158691406 C-164.52000427246094,-66.42400360107422 -132.91000366210938,-59.16899871826172 -117.58599853515625,-52.685001373291016 C-83.28800201416016,-38.172000885009766 -57.4119987487793,4.703000068664551 -39.415000915527344,32.18600082397461z"/></g><g opacity="0.15" transform="matrix(1,0,0,1,0,0)"><path fill="rgb(240,146,1)" fill-opacity="1" d=" M-39.415000915527344,32.18600082397461 C-21.423999786376953,59.65999984741211 6.985000133514404,74.8270034790039 34.18299865722656,79.0199966430664 C60.76900100708008,83.11299896240234 97.78399658203125,77.04100036621094 116.92500305175781,63.821998596191406 C136.0659942626953,50.60200119018555 142.49099731445312,39.88800048828125 149.88099670410156,24.73900032043457 C154.4810028076172,13.076000213623047 165.7310028076172,-13.423999786376953 171.05999755859375,-83.33100128173828 C166.36900329589844,-71.46900177001953 160.9239959716797,-45.06999969482422 156.07699584960938,-30.374000549316406 C145.968994140625,0.2759999930858612 131.4510040283203,35.38199996948242 108.8219985961914,45.83100128173828 C89.3030014038086,54.84400177001953 56.97600173950195,58.25699996948242 36.95100021362305,52.91899871826172 C15.722000122070312,47.2599983215332 2.384000062942505,43.974998474121094 -13.427000045776367,-20.327999114990234 C-19.479000091552734,-44.94300079345703 -9.670000076293945,-65.3759994506836 -13.190999984741211,-94.56400299072266 C-14.722000122070312,-107.25700378417969 -16.920000076293945,-139.7469940185547 -20.082000732421875,-181.6199951171875 C-21.854000091552734,-205.08700561523438 -23.173999786376953,-231.1580047607422 -23.805999755859375,-245.72500610351562 C-24.83099937438965,-269.34100341796875 -21.78700065612793,-277.7760009765625 -13.359999656677246,-281.2130126953125 C-26.009000778198242,-283.27899169921875 -37.04399871826172,-275.51800537109375 -36.249000549316406,-250.8990020751953 C-35.617000579833984,-231.32400512695312 -33.797000885009766,-205.0760040283203 -31.93000030517578,-178.99099731445312 C-30.38599967956543,-157.41900634765625 -28.81100082397461,-135.95799255371094 -27.849000930786133,-118.4739990234375 C-25.95199966430664,-84.0009994506836 -30.42300033569336,-76.98100280761719 -35.867000579833984,-69.11699676513672 C-40.32099914550781,-62.68199920654297 -49.71500015258789,-58.24100112915039 -59.266998291015625,-60.25199890136719 C-68.22100067138672,-62.137001037597656 -85.43000030517578,-68.36000061035156 -96.87799835205078,-71.37200164794922 C-120.53600311279297,-77.59700012207031 -150.32000732421875,-82.43800354003906 -138.01499938964844,-96.38500213623047 C-164.85899353027344,-66.33399963378906 -132.91000366210938,-59.16899871826172 -117.58599853515625,-52.685001373291016 C-83.28800201416016,-38.172000885009766 -57.4119987487793,4.703000068664551 -39.415000915527344,32.18600082397461z"/></g><g opacity="0.15" transform="matrix(1,0,0,1,0,0)"><path fill="rgb(240,146,1)" fill-opacity="1" d=" M-39.415000915527344,32.18600082397461 C-21.423999786376953,59.65999984741211 6.985000133514404,74.8270034790039 34.18299865722656,79.0199966430664 C60.76900100708008,83.11299896240234 97.78399658203125,77.04100036621094 116.92500305175781,63.821998596191406 C136.0659942626953,50.60200119018555 142.49099731445312,39.88800048828125 149.88099670410156,24.73900032043457 C154.4810028076172,13.076000213623047 165.7310028076172,-13.423999786376953 171.05999755859375,-83.33100128173828 C166.36900329589844,-71.46900177001953 158.8209991455078,-46.34299850463867 153.9739990234375,-31.64699935913086 C143.86599731445312,-0.996999979019165 131.03500366210938,31.077999114990234 108.40599822998047,41.527000427246094 C88.88700103759766,50.540000915527344 57.69599914550781,53.90399932861328 37.67100143432617,48.566001892089844 C16.441999435424805,42.90700149536133 3.940999984741211,27.527999877929688 -2.6570000648498535,-23.756000518798828 C-5.892000198364258,-48.89699935913086 6.334000110626221,-63.571998596191406 -6.535999774932861,-93.26200103759766 C-11.621000289916992,-104.99199676513672 -12.843000411987305,-140.15199279785156 -16.0049991607666,-182.02499389648438 C-17.777000427246094,-205.49200439453125 -19.413000106811523,-230.9810028076172 -20.045000076293945,-245.54800415039062 C-21.06999969482422,-269.1629943847656 -20.242000579833984,-276.2510070800781 -13.359999656677246,-281.2130126953125 C-26.009000778198242,-283.27899169921875 -37.04399871826172,-275.51800537109375 -36.249000549316406,-250.8990020751953 C-35.617000579833984,-231.32400512695312 -33.797000885009766,-205.0760040283203 -31.93000030517578,-178.99099731445312 C-30.38599967956543,-157.41900634765625 -28.81100082397461,-135.95799255371094 -27.849000930786133,-118.4739990234375 C-25.95199966430664,-84.0009994506836 -29.288000106811523,-77.03199768066406 -38.1870002746582,-70.15399932861328 C-44.380001068115234,-65.36799621582031 -50.59400177001953,-62.75199890136719 -60.145999908447266,-64.76300048828125 C-69.0999984741211,-66.64800262451172 -83.45600128173828,-72.39199829101562 -94.7959976196289,-75.78600311279297 C-120.02799987792969,-83.33799743652344 -150.0050048828125,-85.63700103759766 -138.01499938964844,-96.38500213623047 C-164.85899353027344,-66.33399963378906 -132.91000366210938,-59.16899871826172 -117.58599853515625,-52.685001373291016 C-83.28800201416016,-38.172000885009766 -57.4119987487793,4.703000068664551 -39.415000915527344,32.18600082397461z"/></g><g opacity="0.1" transform="matrix(1,0,0,1,0,0)"><path fill="rgb(240,146,1)" fill-opacity="1" d=" M-39.415000915527344,32.18600082397461 C-21.423999786376953,59.65999984741211 6.985000133514404,74.8270034790039 34.18299865722656,79.0199966430664 C60.76900100708008,83.11299896240234 97.78399658203125,77.04100036621094 116.92500305175781,63.821998596191406 C136.0659942626953,50.60200119018555 142.49099731445312,39.88800048828125 149.88099670410156,24.73900032043457 C154.4810028076172,13.076000213623047 165.72999572753906,-13.423999786376953 171.0590057373047,-83.33100128173828 C166.3679962158203,-71.46900177001953 152.28500366210938,-50.15299987792969 147.43800354003906,-35.457000732421875 C137.3300018310547,-4.807000160217285 126.21600341796875,24.91900062561035 103.58699798583984,35.36800003051758 C84.06800079345703,44.38100051879883 59.50400161743164,44.4379997253418 39.525001525878906,38.93000030517578 C20.452999114990234,33.672000885009766 14.956000328063965,19.312000274658203 6.14900016784668,-20.04599952697754 C-0.38600000739097595,-49.24700164794922 17.075000762939453,-57.215999603271484 -1.6109999418258667,-95.06900024414062 C-8.786999702453613,-109.60700225830078 -8.085000038146973,-140.58799743652344 -11.246999740600586,-182.46099853515625 C-13.019000053405762,-205.92799377441406 -14.76099967956543,-229.14500427246094 -15.869000434875488,-243.68299865722656 C-17.093000411987305,-259.7460021972656 -19.135000228881836,-271.75 -13.359999656677246,-281.2130126953125 C-26.009000778198242,-283.27899169921875 -37.04399871826172,-275.51800537109375 -36.249000549316406,-250.8990020751953 C-35.617000579833984,-231.32400512695312 -33.797000885009766,-205.0760040283203 -31.93000030517578,-178.99099731445312 C-30.38599967956543,-157.41900634765625 -28.81100082397461,-135.95799255371094 -27.849000930786133,-118.4739990234375 C-25.95199966430664,-84.0009994506836 -29.58300018310547,-73.37799835205078 -40.97100067138672,-71.39700317382812 C-48.680999755859375,-70.05500030517578 -55.319000244140625,-68.84200286865234 -60.39400100708008,-70.43900299072266 C-67.08699798583984,-72.54499816894531 -83.95999908447266,-78.73899841308594 -93.21700286865234,-81.31400299072266 C-116.96399688720703,-87.91999816894531 -144.97000122070312,-84.9469985961914 -138.01499938964844,-96.38500213623047 C-164.52000427246094,-66.4229965209961 -132.91000366210938,-59.16899871826172 -117.58599853515625,-52.685001373291016 C-83.28800201416016,-38.172000885009766 -57.4119987487793,4.703000068664551 -39.415000915527344,32.18600082397461z"/></g></g><g style="display: block;" transform="matrix(1.0989530086517334,0.047981325536966324,-0.047981325536966324,1.0989530086517334,400.6745300292969,232.77749633789062)" opacity="1"><g opacity="1" transform="matrix(1,0,0,1,0,0)"><path stroke-linecap="round" stroke-linejoin="round" fill-opacity="0" stroke="rgb(225,124,0)" stroke-opacity="1" stroke-width="8" d=" M-27.743999481201172,35.0369987487793 C-18.43400001525879,37.50400161743164 -15.770000457763672,35.4739990234375 -14.947999954223633,29.882999420166016 C-11.994999885559082,9.776000022888184 -12.057999610900879,-3.0850000381469727 -9.305999755859375,-27.85300064086914 C-6.900000095367432,-49.5099983215332 -5.343999862670898,-67.78800201416016 10.1850004196167,-67.58200073242188 C33.22200012207031,-67.2770004272461 27.73900032043457,-27.836999893188477 25.62299919128418,-1.628999948501587 C23.21299934387207,22.81100082397461 20.906999588012695,51.71500015258789 19.610000610351562,67.58300018310547"/></g></g><g style="display: block;" transform="matrix(1.0989530086517334,0.047981325536966324,-0.047981325536966324,1.0989530086517334,346.4917907714844,175.43539428710938)" opacity="1"><g opacity="1" transform="matrix(1,0,0,1,0,0)"><path fill="rgb(252,206,44)" fill-opacity="1" d=" M-27.06999969482422,65.17400360107422 C-23.160999298095703,67.29399871826172 -16.402000427246094,66.30000305175781 -15.765000343322754,61.28200149536133 C-13.883999824523926,46.44300079345703 -14.87399959564209,6.557000160217285 -13.87399959564209,-24.711999893188477 C-12.696000099182129,-61.566001892089844 -14.128000259399414,-90.89099884033203 6.5960001945495605,-89.56400299072266 C30.900999069213867,-88.00900268554688 28.06599998474121,-54.57699966430664 25.250999450683594,-3.9769999980926514 C22.39699935913086,47.30699920654297 18.93899917602539,75.46499633789062 25.43600082397461,89.60800170898438"/></g></g><g style="display: block;" transform="matrix(1.0989530086517334,0.047981325536966324,-0.047981325536966324,1.0989530086517334,361.2963562011719,182.9281005859375)" opacity="1"><g opacity="1" transform="matrix(1,0,0,1,0,0)"><path fill="rgb(255,215,93)" fill-opacity="1" d=" M-15.873000144958496,-71.97599792480469 C-15.873000144958496,-71.97599792480469 -10.769000053405762,-82.85399627685547 -2.1480000019073486,-72.70600128173828 C1.125,-68.85199737548828 1.8660000562667847,-49.334999084472656 1.5149999856948853,-24.947999954223633 C1.1610000133514404,-0.3199999928474426 -0.3070000112056732,29.274999618530273 -1.4010000228881836,52.715999603271484 C-2.4660000801086426,75.5469970703125 -0.3400000035762787,92.73100280761719 12.75,94.86499786376953 C20.652999877929688,95.90699768066406 11.630999565124512,85.70700073242188 9.918999671936035,77.07499694824219 C2.503999948501587,39.678001403808594 20.922000885009766,-70.22799682617188 7.091000080108643,-86.48899841308594 C-10.86400032043457,-107.59700012207031 -16.69499969482422,-83.95700073242188 -15.873000144958496,-71.97599792480469"/></g></g><g style="display: block;" transform="matrix(1.0989530086517334,0.047981325536966324,-0.047981325536966324,1.0989530086517334,338.89697265625,168.04168701171875)" opacity="1"><g opacity="0.5" transform="matrix(1,0,0,1,0,0)"><path fill="rgb(240,146,1)" fill-opacity="1" d=" M23.17300033569336,-76.96199798583984 C23.17300033569336,-76.96199798583984 9.37600040435791,-89.6240005493164 4.738999843597412,-53.5369987487793 C2.7139999866485596,-37.779998779296875 2.4030001163482666,9.850000381469727 2.0380001068115234,38.20800018310547 C1.718999981880188,63.058998107910156 2.36299991607666,72.8759994506836 -1.6369999647140503,78.22899627685547 C-4.815999984741211,82.48500061035156 -10.286999702453613,84.17900085449219 -17.660999298095703,82.26899719238281 C-30.204999923706055,65.22599792480469 -18.885000228881836,72.00199890136719 -8.045999526977539,69.11499786376953 C-7.076000213623047,62.32600021362305 -6.747000217437744,56.04399871826172 -6.507999897003174,42.698001861572266 C-5.867000102996826,16.25 -7.199999809265137,-29.361000061035156 -5.623000144958496,-45.334999084472656 C-4.046000003814697,-61.308998107910156 -0.9309999942779541,-81.50299835205078 10.930999755859375,-82.87699890136719 C22.79199981689453,-84.2509994506836 23.17300033569336,-76.96199798583984 23.17300033569336,-76.96199798583984"/></g><g opacity="0.3" transform="matrix(1,0,0,1,0,0)"><path fill="rgb(240,146,1)" fill-opacity="1" d=" M23.17300033569336,-76.96199798583984 C23.17300033569336,-76.96199798583984 15.979999542236328,-84.58999633789062 10.46500015258789,-52.64899826049805 C7.76200008392334,-36.99399948120117 7.3979997634887695,9.631999969482422 7.0329999923706055,37.9900016784668 C6.714000225067139,62.840999603271484 5.210999965667725,72.97899627685547 1.2109999656677246,78.33200073242188 C-1.968000054359436,82.58799743652344 -10.286999702453613,84.17900085449219 -17.660999298095703,82.26899719238281 C-30.204999923706055,65.22599792480469 -18.885000228881836,72.00199890136719 -8.045999526977539,69.11499786376953 C-7.076000213623047,62.32600021362305 -6.747000217437744,56.04399871826172 -6.507999897003174,42.698001861572266 C-5.867000102996826,16.25 -7.199999809265137,-29.361000061035156 -5.623000144958496,-45.334999084472656 C-4.046000003814697,-61.308998107910156 -0.9309999942779541,-81.50299835205078 10.930999755859375,-82.87699890136719 C22.79199981689453,-84.2509994506836 23.17300033569336,-76.96199798583984 23.17300033569336,-76.96199798583984"/></g><g opacity="0.1" transform="matrix(1,0,0,1,0,0)"><path fill="rgb(240,146,1)" fill-opacity="1" d=" M23.17300033569336,-76.96199798583984 C23.17300033569336,-76.96199798583984 17.079999923706055,-69.48600006103516 15.5,-51.95899963378906 C14.074000358581543,-36.13600158691406 12.432999610900879,10.321999549865723 12.067999839782715,38.68000030517578 C11.74899959564209,63.53099822998047 9.35099983215332,73.94200134277344 4.642000198364258,78.7509994506836 C0.925000011920929,82.5459976196289 -10.286999702453613,84.17900085449219 -17.660999298095703,82.26899719238281 C-30.204999923706055,65.22599792480469 -18.885000228881836,72.00199890136719 -8.045999526977539,69.11499786376953 C-7.076000213623047,62.32600021362305 -6.747000217437744,56.04399871826172 -6.507999897003174,42.698001861572266 C-5.867000102996826,16.25 -7.199999809265137,-29.361000061035156 -5.623000144958496,-45.334999084472656 C-4.046000003814697,-61.308998107910156 -0.9309999942779541,-81.50299835205078 10.930999755859375,-82.87699890136719 C22.79199981689453,-84.2509994506836 23.17300033569336,-76.96199798583984 23.17300033569336,-76.96199798583984"/></g></g><g style="display: block;" transform="matrix(1.0989530086517334,0.047981325536966324,-0.047981325536966324,1.0989530086517334,346.4917907714844,175.43539428710938)" opacity="1"><g opacity="1" transform="matrix(1,0,0,1,0,0)"><path stroke-linecap="round" stroke-linejoin="round" fill-opacity="0" stroke="rgb(225,124,0)" stroke-opacity="1" stroke-width="8" d=" M-27.06999969482422,65.17400360107422 C-23.160999298095703,67.29399871826172 -16.402000427246094,66.30000305175781 -15.765000343322754,61.28200149536133 C-13.883999824523926,46.44300079345703 -14.87399959564209,6.557000160217285 -13.87399959564209,-24.711999893188477 C-12.696000099182129,-61.566001892089844 -14.128000259399414,-90.89099884033203 6.5960001945495605,-89.56400299072266 C30.900999069213867,-88.00900268554688 28.06599998474121,-54.57699966430664 25.250999450683594,-3.9769999980926514 C22.39699935913086,47.30699920654297 18.93899917602539,75.46499633789062 25.43600082397461,89.60800170898438"/></g></g><g style="display: block;" transform="matrix(1.0989530086517334,0.047981325536966324,-0.047981325536966324,1.0989530086517334,286.11724853515625,145.72132873535156)" opacity="1"><g opacity="1" transform="matrix(1,0,0,1,0,0)"><path fill="rgb(252,206,44)" fill-opacity="1" d=" M27.32200050354004,97.04499816894531 C24.93000030517578,81.05999755859375 26.20599937438965,51.12900161743164 25.072999954223633,-2.869999885559082 C24.07900047302246,-50.28799819946289 26.77199935913086,-96.40399932861328 2.638000011444092,-97.03399658203125 C-22.655000686645508,-97.69400024414062 -18.3700008392334,-69.51000213623047 -17.636999130249023,-20.02899932861328 C-17.069000244140625,18.222999572753906 -14.970000267028809,76.70999908447266 -15.88599967956543,80.68199920654297 C-16.80299949645996,84.65399932861328 -23.014999389648438,85.89099884033203 -27.32200050354004,83.71199798583984"/></g></g><g style="display: block;" transform="matrix(1.0989530086517334,0.047981325536966324,-0.047981325536966324,1.0989530086517334,296.32574462890625,158.92047119140625)" opacity="1"><g opacity="1" transform="matrix(1,0,0,1,0,0)"><path fill="rgb(255,215,93)" fill-opacity="1" d=" M-25.95400047302246,-89.34200286865234 C-28.729000091552734,-87.48799896240234 -11,-100.6969985961914 -3.746999979019165,-91.43199920654297 C1.3339999914169312,-84.94200134277344 2.9140000343322754,-54.16699981689453 3.678999900817871,-22.725000381469727 C4.313000202178955,3.3410000801086426 4.386000156402588,29.865999221801758 5.427999973297119,43.39099884033203 C6.867000102996826,62.069000244140625 5.203000068664551,80.09700012207031 9.347000122070312,91.88200378417969 C13.829000473022461,104.62799835205078 18.347999572753906,109.3949966430664 25.118000030517578,108.1050033569336 C29.59600067138672,106.79000091552734 19.32900047302246,90.1780014038086 18.768999099731445,80.84100341796875 C16.902000427246094,66.08899688720703 16.767000198364258,25.834999084472656 16.23200035095215,-4.0879998207092285 C15.600000381469727,-39.39699935913086 13.229000091552734,-80.53099822998047 8.395999908447266,-93.60900115966797 C1.6419999599456787,-111.87699890136719 -23.472999572753906,-115.96299743652344 -25.95400047302246,-89.34200286865234z"/></g></g><g style="display: block;" transform="matrix(1.0989530086517334,0.047981325536966324,-0.047981325536966324,1.0989530086517334,273.6712341308594,144.15284729003906)" opacity="1"><g opacity="0.5" transform="matrix(1,0,0,1,0,0)"><path fill="rgb(240,146,1)" fill-opacity="1" d=" M17.46500015258789,-94.03399658203125 C12.302000045776367,-93.18499755859375 3.3459999561309814,-91.73500061035156 3.378999948501587,-71.49099731445312 C3.421999931335449,-44.87900161743164 5.127999782562256,-3.5789999961853027 5.97599983215332,19.673999786376953 C6.823999881744385,42.92599868774414 7.824999809265137,73.50399780273438 5.25,86.61599731445312 C3.9200000762939453,93.38800048828125 0.9240000247955322,94.63300323486328 -3.062000036239624,95.74800109863281 C-9.600000381469727,97.5770034790039 -18.606000900268555,95.6760025024414 -17.34600067138672,89.1719970703125 C-2.815000057220459,84.59600067138672 -3.242000102996826,81.35900115966797 -4.300000190734863,41.42100143432617 C-5.15500020980835,9.168999671936035 -7.133999824523926,-58.448001861572266 -6.51800012588501,-74 C-6.059000015258789,-85.61199951171875 0.9419999718666077,-102.72699737548828 17.46500015258789,-94.03399658203125z"/></g><g opacity="0.3" transform="matrix(1,0,0,1,0,0)"><path fill="rgb(240,146,1)" fill-opacity="1" d=" M17.46500015258789,-94.03399658203125 C12.302000045776367,-93.18499755859375 7.955999851226807,-90.34500122070312 8.13700008392334,-71.927001953125 C8.366999626159668,-48.459999084472656 10.142999649047852,-3.3420000076293945 10.991000175476074,19.910999298095703 C11.83899974822998,43.16299819946289 11.973999977111816,74.63700103759766 8.02400016784668,87.63300323486328 C6.017000198364258,94.23600006103516 0.9240000247955322,94.63300323486328 -3.062000036239624,95.74800109863281 C-9.600000381469727,97.5770034790039 -18.606000900268555,95.6760025024414 -17.34600067138672,89.1719970703125 C-2.815000057220459,84.59600067138672 -3.242000102996826,81.35900115966797 -4.300000190734863,41.42100143432617 C-5.15500020980835,9.168999671936035 -7.133999824523926,-58.448001861572266 -6.51800012588501,-74 C-6.059000015258789,-85.61199951171875 0.9419999718666077,-102.72699737548828 17.46500015258789,-94.03399658203125z"/></g><g opacity="0.1" transform="matrix(1,0,0,1,0,0)"><path fill="rgb(240,146,1)" fill-opacity="1" d=" M17.46500015258789,-94.03399658203125 C12.302000045776367,-93.18499755859375 13.168999671936035,-85.56700134277344 13.154000282287598,-71.63500213623047 C13.125,-45.02299880981445 15.140999794006348,-3.505000114440918 15.98900032043457,19.74799919128418 C16.836999893188477,43 15.743000030517578,76.06600189208984 10.791000366210938,88.47699737548828 C7.890999794006348,95.74400329589844 0.9240000247955322,94.63300323486328 -3.062000036239624,95.74800109863281 C-9.600000381469727,97.5770034790039 -18.606000900268555,95.6760025024414 -17.34600067138672,89.1719970703125 C-2.815000057220459,84.59600067138672 -3.242000102996826,81.35900115966797 -4.300000190734863,41.42100143432617 C-5.15500020980835,9.168999671936035 -7.133999824523926,-58.448001861572266 -6.51800012588501,-74 C-6.059000015258789,-85.61199951171875 0.9419999718666077,-102.72699737548828 17.46500015258789,-94.03399658203125z"/></g></g><g style="display: block;" transform="matrix(1.0989530086517334,0.047981325536966324,-0.047981325536966324,1.0989530086517334,286.11724853515625,145.72132873535156)" opacity="1"><g opacity="1" transform="matrix(1,0,0,1,0,0)"><path stroke-linecap="round" stroke-linejoin="round" fill-opacity="0" stroke="rgb(225,124,0)" stroke-opacity="1" stroke-width="8" d=" M27.32200050354004,97.04499816894531 C24.93000030517578,81.05999755859375 26.20599937438965,51.12900161743164 25.072999954223633,-2.869999885559082 C24.07900047302246,-50.28799819946289 26.77199935913086,-96.40399932861328 2.638000011444092,-97.03399658203125 C-22.655000686645508,-97.69400024414062 -18.3700008392334,-69.51000213623047 -17.636999130249023,-20.02899932861328 C-17.069000244140625,18.222999572753906 -14.970000267028809,76.70999908447266 -15.88599967956543,80.68199920654297 C-16.80299949645996,84.65399932861328 -23.014999389648438,85.89099884033203 -27.32200050354004,83.71199798583984"/></g></g><g style="display: block;" transform="matrix(1.0989530086517334,0.047981325536966324,-0.047981325536966324,1.0989530086517334,201.75991821289062,186.5370635986328)" opacity="1"><g opacity="0.5" transform="matrix(1,0,0,1,0,0)"><path fill="rgb(240,146,1)" fill-opacity="1" d=" M-4.659999847412109,-75.86599731445312 C-3.687000036239624,-53.61000061035156 2.696000099182129,25.26300048828125 4.004000186920166,49.68199920654297 C5.201000213623047,72.02400207519531 4.573999881744385,87.80500030517578 0.335999995470047,93.61900329589844 C-6.328999996185303,102.76599884033203 -15.359000205993652,103.33599853515625 -22.5049991607666,102.37100219726562 C-15.744999885559082,107.55500030517578 4.5970001220703125,113.39600372314453 10.029999732971191,105.43299865722656 C14.755999565124512,98.50700378417969 14.940999984741211,87.125 14.461999893188477,71.81500244140625 C14.123000144958496,60.99300003051758 12.880000114440918,48.93000030517578 12.300000190734863,36.19900131225586 C11.394000053405762,16.30299949645996 6.436999797821045,-57.61399841308594 5.504000186920166,-80.44200134277344 C4.421999931335449,-106.91999816894531 16.604000091552734,-109.27100372314453 22.5049991607666,-105.72599792480469 C3.7839999198913574,-119.08100128173828 -5.829999923706055,-102.64700317382812 -4.659999847412109,-75.86599731445312z"/></g></g><g style="display: block;" transform="matrix(1.0989530086517334,0.047981325536966324,-0.047981325536966324,1.0989530086517334,226.61717224121094,159.07437133789062)" opacity="1"><g opacity="1" transform="matrix(1,0,0,1,0,0)"><path stroke-linecap="round" stroke-linejoin="round" fill-opacity="0" stroke="rgb(225,124,0)" stroke-opacity="1" stroke-width="8" d=" M-17.55299949645996,82.79299926757812 C-18.174999237060547,67.48100280761719 -21.44099998474121,22.209999084472656 -22.34600067138672,6.1020002365112305 C-25.08099937438965,-42.5629997253418 -35.08599853515625,-81.14700317382812 -9.946999549865723,-84.28600311279297 C12.973999977111816,-84.83599853515625 12.293000221252441,-53.53200149536133 15.920999526977539,-14.96399974822998 C19.599000930786133,24.135000228881836 23.274999618530273,62.33700180053711 26.618999481201172,77.33000183105469"/></g></g><g style="display: block;" transform="matrix(1.0989530086517334,0.047981325536966324,-0.047981325536966324,1.0989530086517334,240.905517578125,359.4062805175781)" opacity="1"><g opacity="1" transform="matrix(1,0,0,1,0,0)"><path stroke-linecap="round" stroke-linejoin="round" fill-opacity="0" stroke="rgb(225,124,0)" stroke-opacity="1" stroke-width="8" d=" M-38.472999572753906,-97.08699798583984 C-37.07699966430664,-72.10800170898438 -38.292999267578125,-63.2599983215332 -44.025001525878906,-59.19499969482422 C-48.26599884033203,-55.624000549316406 -55.22700119018555,-52.643001556396484 -61.770999908447266,-54.20600128173828 C-78.34400177001953,-58.16299819946289 -87.27799987792969,-74.97799682617188 -102.37300109863281,-82.93599700927734 C-117.46800231933594,-90.8949966430664 -153.4010009765625,-86.61499786376953 -158.68499755859375,-66.67900085449219 C-163.97000122070312,-46.744998931884766 -147.5590057373047,-43.387001037597656 -131.8300018310547,-37.95100021362305 C-109.51200103759766,-29.28499984741211 -96.15899658203125,-14.100000381469727 -85.44000244140625,-0.41999998688697815 C-72.96700286865234,16.479000091552734 -67.88300323486328,23.613000869750977 -49.99399948120117,48.70899963378906 C-31.996999740600586,76.18399810791016 -3.5889999866485596,91.35600280761719 23.604000091552734,95.54100036621094 C50.189998626708984,99.63300323486328 91.1520004272461,96.83699798583984 118.86799621582031,71.8550033569336 C151.85899353027344,42.119998931884766 156.82899475097656,-27.280000686645508 159.6959991455078,-53.75699996948242"/></g></g><g style="display: block;" transform="matrix(1.0989530086517334,0.047981325536966324,-0.047981325536966324,1.0989530086517334,382.5433654785156,267.60919189453125)" opacity="1"><g opacity="1" transform="matrix(1,0,0,1,0,0)"><path stroke-linecap="round" stroke-linejoin="round" fill-opacity="0" stroke="rgb(225,124,0)" stroke-opacity="1" stroke-width="8" d=" M-0.7129999995231628,5.940999984741211 C0.09399999678134918,1.8070000410079956 0.23499999940395355,-2.700000047683716 0.7129999995231628,-5.940999984741211"/></g></g><g style="display: block;" transform="matrix(1.0989530086517334,0.047981325536966324,-0.047981325536966324,1.0989530086517334,326.36199951171875,243.68580627441406)" opacity="1"><g opacity="1" transform="matrix(1,0,0,1,0,0)"><path stroke-linecap="round" stroke-linejoin="round" fill-opacity="0" stroke="rgb(225,124,0)" stroke-opacity="1" stroke-width="8" d=" M-0.4790000021457672,9.666999816894531 C0.0949999988079071,5.168000221252441 0.3109999895095825,-0.8330000042915344 0.4790000021457672,-9.666999816894531"/></g></g><g style="display: block;" transform="matrix(1.0989530086517334,0.047981325536966324,-0.047981325536966324,1.0989530086517334,265.2597961425781,233.94158935546875)" opacity="1"><g opacity="1" transform="matrix(1,0,0,1,0,0)"><path stroke-linecap="round" stroke-linejoin="round" fill-opacity="0" stroke="rgb(225,124,0)" stroke-opacity="1" stroke-width="8" d=" M0.16099999845027924,10.34000015258789 C0.296999990940094,6.748000144958496 -0.1850000023841858,-5.439000129699707 -0.1850000023841858,-10.34000015258789"/></g></g><g style="display: block;" transform="matrix(1.0989530086517334,0.047981325536966324,-0.047981325536966324,1.0989530086517334,311.224365234375,227.9845733642578)" opacity="0.4"><g opacity="1" transform="matrix(1,0,0,1,101.25,16.25)"><path fill="rgb(240,146,1)" fill-opacity="1" d=" M-31.770999908447266,39.72700119018555 C-32.23500061035156,40.040000915527344 -32.62699890136719,40.78200149536133 -32.9370002746582,41.80799865722656 C-34.49599838256836,46.9630012512207 -34.03799819946289,59.292999267578125 -30.81599998474121,60.41699981689453 C-27.165000915527344,61.691001892089844 -22.875,52.375 -23.474000930786133,48.99599838256836 C-24.222999572753906,44.76599884033203 -28.825000762939453,37.74300003051758 -31.770999908447266,39.72700119018555z"/></g><g opacity="1" transform="matrix(1,0,0,1,55,5.25)"><path fill="rgb(240,146,1)" fill-opacity="1" d=" M-31.874000549316406,40.053001403808594 C-32.59400177001953,40.67399978637695 -33.07099914550781,42.305999755859375 -33.314998626708984,44.44499969482422 C-34.090999603271484,51.25400161743164 -32.50699996948242,63.198001861572266 -28.91900062561035,63.987998962402344 C-24.464000701904297,64.96900177001953 -21,52.75 -21.915000915527344,49.58000183105469 C-22.860000610351562,46.308998107910156 -28.700000762939453,37.31700134277344 -31.874000549316406,40.053001403808594z"/></g><g opacity="1" transform="matrix(1,0,0,1,0,0)"><path fill="rgb(240,146,1)" fill-opacity="1" d=" M-31,40.25 C-32.29600143432617,41.402000427246094 -32.70000076293945,44.33599853515625 -32.512001037597656,47.972999572753906 C-32.04600143432617,56.965999603271484 -27.95400047302246,70.25399780273438 -24.75,71.5 C-23.573999404907227,71.95700073242188 -22.43199920654297,71.38999938964844 -21.422000885009766,70.15499877929688 C-18.569000244140625,66.66500091552734 -16.773000717163086,57.84400177001953 -18.25,51.75 C-20.07900047302246,44.20600128173828 -27.868000030517578,37.465999603271484 -31,40.25z"/></g></g></g></svg>