<svg xmlns="http://www.w3.org/2000/svg" xmlns:xlink="http://www.w3.org/1999/xlink" viewBox="0 0 512 512" width="512" height="512" style="width: 100%; height: 100%; transform: translate3d(0,0,0);" preserveAspectRatio="xMidYMid meet"><defs><clipPath id="__lottie_element_14016"><rect width="512" height="512" x="0" y="0"/></clipPath><linearGradient id="__lottie_element_14035" spreadMethod="pad" gradientUnits="userSpaceOnUse" x1="-246" y1="1" x2="243" y2="0"><stop offset="0%" stop-color="rgb(0,0,0)"/><stop offset="25%" stop-color="rgb(0,0,0)"/><stop offset="50%" stop-color="rgb(0,0,0)"/><stop offset="75%" stop-color="rgb(0,0,0)"/><stop offset="100%" stop-color="rgb(0,0,0)"/></linearGradient><mask id="__lottie_element_14037"><path fill="url(#__lottie_element_14036)" d=" M-246.5,-145.5 C-246.5,-139 -246.5,144.218994140625 -246.5,146.593994140625 C-244.71200561523438,146.76499938964844 -241.55099487304688,147.5780029296875 -237.75900268554688,148.50999450683594 C-220.5,152.75 -191.07200622558594,159.75999450683594 -178.26499938964844,161.58399963378906 C-147.25,166 -127.13200378417969,165.62600708007812 -103.76799774169922,164.74600219726562 C-50.75,162.75 -4.125,146.125 27.19499969482422,139.3300018310547 C47.95800018310547,134.8249969482422 68.79000091552734,130.64500427246094 83.74700164794922,128.94000244140625 C106.25,126.375 122.875,126.75 143.25,128.35899353027344 C183.33700561523438,131.52499389648438 217.79400634765625,139.2030029296875 241.43800354003906,147.031005859375 C241.43800354003906,147.09300231933594 241.406005859375,147.09300231933594 241.406005859375,147.06199645996094 C241.406005859375,147.06199645996094 241.406005859375,147.06199645996094 241.406005859375,147.06199645996094 C241.56199645996094,120.56199645996094 241.23399353027344,82.29100036621094 241.25,49.90599822998047 C241.26600646972656,17.08300018310547 241.43699645996094,-15.739999771118164 241.5,-48.5629997253418 C241.56199645996094,-80.91699981689453 241.5,-128.75 241.625,-145.625 C151.281005859375,-172.5 103.15699768066406,-165.1009979248047 78.5,-162.81199645996094 C23.042999267578125,-156.04600524902344 -48.707000732421875,-130.79600524902344 -83.375,-129.06199645996094 C-157.875,-120.1240005493164 -212.75,-139.625 -246.5,-145.5z"/></mask><linearGradient id="__lottie_element_14036" spreadMethod="pad" gradientUnits="userSpaceOnUse" x1="-246" y1="1" x2="243" y2="0"><stop stop-color="rgb(255,255,255)" offset="0%" stop-opacity="1"/><stop stop-color="rgb(255,255,255)" offset="17%" stop-opacity="0.5"/><stop stop-color="rgb(255,255,255)" offset="33%" stop-opacity="0"/><stop stop-color="rgb(255,255,255)" offset="50%" stop-opacity="0"/><stop stop-color="rgb(255,255,255)" offset="66%" stop-opacity="0"/><stop stop-color="rgb(255,255,255)" offset="83%" stop-opacity="0.5"/><stop stop-color="rgb(255,255,255)" offset="100%" stop-opacity="1"/></linearGradient></defs><g clip-path="url(#__lottie_element_14016)"><g style="display: block;" transform="matrix(0.800000011920929,0,0,0.800000011920929,257.9656066894531,250.03680419921875)" opacity="1"><g opacity="1" transform="matrix(1,0,0,1,0,0)"><path fill="rgb(13,66,157)" fill-opacity="1" d=" M-246.5,-145.5 C-246.5,-139 -246.5,144.218994140625 -246.5,146.593994140625 C-244.71200561523438,146.76499938964844 -241.55099487304688,147.5780029296875 -237.75900268554688,148.50999450683594 C-220.5,152.75 -191.07200622558594,159.75999450683594 -178.26499938964844,161.58399963378906 C-147.25,166 -127.13200378417969,165.62600708007812 -103.76799774169922,164.74600219726562 C-50.75,162.75 -4.125,146.125 27.19499969482422,139.3300018310547 C47.95800018310547,134.8249969482422 68.79000091552734,130.64500427246094 83.74700164794922,128.94000244140625 C106.25,126.375 122.875,126.75 143.25,128.35899353027344 C183.33700561523438,131.52499389648438 217.79400634765625,139.2030029296875 241.43800354003906,147.031005859375 C241.43800354003906,147.09300231933594 241.406005859375,147.09300231933594 241.406005859375,147.06199645996094 C241.406005859375,147.06199645996094 241.406005859375,147.06199645996094 241.406005859375,147.06199645996094 C241.56199645996094,120.56199645996094 241.23399353027344,82.29100036621094 241.25,49.90599822998047 C241.26600646972656,17.08300018310547 241.43699645996094,-15.739999771118164 241.5,-48.5629997253418 C241.56199645996094,-80.91699981689453 241.5,-128.75 241.625,-145.625 C151.281005859375,-172.5 103.15699768066406,-165.1009979248047 78.5,-162.81199645996094 C23.042999267578125,-156.04600524902344 -48.707000732421875,-130.79600524902344 -83.375,-129.06199645996094 C-157.875,-120.1240005493164 -212.75,-139.625 -246.5,-145.5z"/></g></g><g style="display: block;" transform="matrix(0.800000011920929,0,0,0.800000011920929,256,250)" opacity="1"><g opacity="1" transform="matrix(1,0,0,1,0,0)"><path fill="rgb(242,242,242)" fill-opacity="1" d=" M-49.452999114990234,-134.531005859375 C-64.9530029296875,-130.59300231933594 -105.125,-126.43800354003906 -114.875,-126.43800354003906 C-114.375,-89.06300354003906 -115.09400177001953,-42.84400177001953 -115.09400177001953,-13.343999862670898 C-149.375,-13.437999725341797 -189.06199645996094,-17.187000274658203 -243.5,-33.15599822998047 C-243.375,-32.90599822998047 -243.25,32.53099822998047 -243.375,32.90599822998047 C-206.25,42.59400177001953 -160.93800354003906,54.0629997253418 -114.84400177001953,51.9379997253418 C-114.59400177001953,86.93800354003906 -114.21900177001953,127.03099822998047 -114.21900177001953,165.031005859375 C-96.96900177001953,166.281005859375 -65.9540023803711,163.2729949951172 -48.26599884033203,158.1479949951172 C-49.01599884033203,121.14800262451172 -49.40999984741211,72.47200012207031 -48.90999984741211,44.22200012207031 C-26.562000274658203,39.6870002746582 -13.027000427246094,36.25299835205078 8.300000190734863,30.972999572753906 C40,23.125 72.5,14.062999725341797 121.25,13.265999794006348 C162.4969940185547,12.592000007629395 215.75,25.108999252319336 243.5,32.35900115966797 C243.5,26.358999252319336 243.5,-24.0939998626709 243.25,-32.59400177001953 C211,-41.84400177001953 162.91000366210938,-52.13800048828125 122,-52.15599822998047 C50.9379997253418,-52.1870002746582 -4.375,-28.437999725341797 -48.952999114990234,-21.312999725341797 C-48.702999114990234,-45.3129997253418 -49.202999114990234,-92.28099822998047 -49.452999114990234,-134.531005859375z"/></g></g><g style="display: block;" transform="matrix(0.800000011920929,0,0,0.800000011920929,256,250)" opacity="1"><g opacity="1" transform="matrix(1,0,0,1,0,0)"><path fill="rgb(222,55,55)" fill-opacity="1" d=" M-65.48400115966797,-130.0469970703125 C-85.60900115966797,-126.10900115966797 -85,-126.58599853515625 -97.75,-126.46099853515625 C-97.875,-101.33599853515625 -98.06199645996094,-27.0310001373291 -98.06199645996094,2.4690001010894775 C-151.25,6.875 -208.25,-5.75 -243.5,-16 C-243.375,-15.75 -243.25,16.172000885009766 -243.375,16.547000885009766 C-188.125,31.875 -149.06300354003906,36.875 -98.125,35.21900177001953 C-97.875,70.21900177001953 -97.93800354003906,127 -97.93800354003906,165 C-78.5,165 -78.0469970703125,164.375 -65.1719970703125,162.343994140625 C-65.11000061035156,129.093994140625 -65.6719970703125,58.882999420166016 -65.1719970703125,30.632999420166016 C-40,27.187999725341797 -27.966999053955078,23.402999877929688 -2.194999933242798,16.898000717163086 C35.375999450683594,7.414999961853027 74.3550033569336,-2.437000036239624 121.25,-3.1410000324249268 C162.4969940185547,-3.760999917984009 215.75,9.406000137329102 243.5,16.6560001373291 C243.5,10.656000137329102 243.5,-7.906000137329102 243.25,-16.4060001373291 C211,-25.6560001373291 162.91000366210938,-35.595001220703125 122,-35.577999114990234 C82.9469985961914,-35.5620002746582 44.92499923706055,-27.415000915527344 9.87600040435791,-18.761999130249023 C-23.05900001525879,-10.630999565124512 -38.91400146484375,-5.10099983215332 -64.98400115966797,-2.4059998989105225 C-64.73400115966797,-26.4060001373291 -65.23400115966797,-87.7969970703125 -65.48400115966797,-130.0469970703125z"/></g></g><g style="display: block;" transform="matrix(0.800000011920929,0,0,0.800000011920929,257.9656066894531,250.03680419921875)" opacity="0.35000000000000003"><g opacity="1" transform="matrix(1,0,0,1,0,0)"><path fill="url(#__lottie_element_14035)" mask="url(#__lottie_element_14037)" fill-opacity="1" d="M0 0 M-246.5,-145.5 C-246.5,-139 -246.5,144.218994140625 -246.5,146.593994140625 C-244.71200561523438,146.76499938964844 -241.55099487304688,147.5780029296875 -237.75900268554688,148.50999450683594 C-220.5,152.75 -191.07200622558594,159.75999450683594 -178.26499938964844,161.58399963378906 C-147.25,166 -127.13200378417969,165.62600708007812 -103.76799774169922,164.74600219726562 C-50.75,162.75 -4.125,146.125 27.19499969482422,139.3300018310547 C47.95800018310547,134.8249969482422 68.79000091552734,130.64500427246094 83.74700164794922,128.94000244140625 C106.25,126.375 122.875,126.75 143.25,128.35899353027344 C183.33700561523438,131.52499389648438 217.79400634765625,139.2030029296875 241.43800354003906,147.031005859375 C241.43800354003906,147.09300231933594 241.406005859375,147.09300231933594 241.406005859375,147.06199645996094 C241.406005859375,147.06199645996094 241.406005859375,147.06199645996094 241.406005859375,147.06199645996094 C241.56199645996094,120.56199645996094 241.23399353027344,82.29100036621094 241.25,49.90599822998047 C241.26600646972656,17.08300018310547 241.43699645996094,-15.739999771118164 241.5,-48.5629997253418 C241.56199645996094,-80.91699981689453 241.5,-128.75 241.625,-145.625 C151.281005859375,-172.5 103.15699768066406,-165.1009979248047 78.5,-162.81199645996094 C23.042999267578125,-156.04600524902344 -48.707000732421875,-130.79600524902344 -83.375,-129.06199645996094 C-157.875,-120.1240005493164 -212.75,-139.625 -246.5,-145.5z"/></g></g><g style="display: block;" transform="matrix(0.800000011920929,0,0,0.800000011920929,257.9656066894531,250.03680419921875)" opacity="0.15"><g opacity="1" transform="matrix(1,0,0,1,0,0)"><path fill="rgb(255,255,255)" fill-opacity="1" d=" M-246.875,-146 C-246.83700561523438,-139.70399475097656 -246.875,-138 -246.79200744628906,-132.81100463867188 C-237.5,-136.25 -197.25,-114 -124.49600219726562,-114.31099700927734 C-38.992000579833984,-114.6760025024414 39.233001708984375,-153.25 121.70800018310547,-153.39700317382812 C179.75,-153.5 241,-132.25 240.91200256347656,-131.552001953125 C241,-140.5 241.375,-144.625 241.375,-144.625 C241.375,-144.625 179.75,-166.25 122.5,-166 C39.49700164794922,-165.63800048828125 -39.5,-128 -124.25,-126.81199645996094 C-197.0449981689453,-125.79199981689453 -237.75,-149 -246.875,-146z"/></g></g><g style="display: block;" transform="matrix(0.800000011920929,0,0,0.800000011920929,257.9656066894531,250.03680419921875)" opacity="0.15"><g opacity="1" transform="matrix(1,0,0,1,0,0)"><path fill="rgb(0,0,0)" fill-opacity="1" d=" M122.5,112.25 C34,112.25 -36,149.5 -123.5,152 C-140.61700439453125,152.48899841308594 -155.82000732421875,151.3489990234375 -170.41099548339844,149.1280059814453 C-195.23399353027344,145.35000610351562 -218.28900146484375,138.4459991455078 -246,131.125 C-246.25,134.5 -246,141.375 -246,145.125 C-218.5749969482422,153.30599975585938 -195.61700439453125,159.55499267578125 -170.83099365234375,163.0050048828125 C-155.8520050048828,165.08999633789062 -140.20399475097656,166.15199279785156 -122.5,166 C-35,165.25 33.5,126.625 121.75,126.5 C126.26799774169922,126.49400329589844 131.11399841308594,126.59500122070312 136.27699279785156,126.83899688720703 C163.25900268554688,128.11300659179688 198.88099670410156,133.2550048828125 241.375,147 C241.375,147 241.25,134.75 241.5,131.125 C199.093994140625,118.93299865722656 163.16200256347656,113.84500122070312 136.1439971923828,112.58000183105469 C131.30499267578125,112.35399627685547 126.75299835205078,112.25 122.5,112.25z"/></g></g><g style="display: block;" transform="matrix(0.800000011920929,0,0,0.800000011920929,257.9656066894531,250.03680419921875)" opacity="1"><g opacity="1" transform="matrix(1,0,0,1,0,0)"><path stroke-linecap="round" stroke-linejoin="round" fill-opacity="0" stroke="rgb(12,36,78)" stroke-opacity="1" stroke-width="8" d=" M-246.5,-145.5 C-246.5,-139 -246.5,144.218994140625 -246.5,146.593994140625 C-244.71200561523438,146.76499938964844 -241.55099487304688,147.5780029296875 -237.75900268554688,148.50999450683594 C-220.5,152.75 -191.07200622558594,159.75999450683594 -178.26499938964844,161.58399963378906 C-147.25,166 -127.13200378417969,165.62600708007812 -103.76799774169922,164.74600219726562 C-50.75,162.75 -4.125,146.125 27.19499969482422,139.3300018310547 C47.95800018310547,134.8249969482422 68.79000091552734,130.64500427246094 83.74700164794922,128.94000244140625 C106.25,126.375 122.875,126.75 143.25,128.35899353027344 C183.33700561523438,131.52499389648438 217.79400634765625,139.2030029296875 241.43800354003906,147.031005859375 C241.43800354003906,147.09300231933594 241.406005859375,147.09300231933594 241.406005859375,147.06199645996094 C241.406005859375,147.06199645996094 241.406005859375,147.06199645996094 241.406005859375,147.06199645996094 C241.56199645996094,120.56199645996094 241.23399353027344,82.29100036621094 241.25,49.90599822998047 C241.26600646972656,17.08300018310547 241.43699645996094,-15.739999771118164 241.5,-48.5629997253418 C241.56199645996094,-80.91699981689453 241.5,-128.75 241.625,-145.625 C151.281005859375,-172.5 103.15699768066406,-165.1009979248047 78.5,-162.81199645996094 C23.042999267578125,-156.04600524902344 -48.707000732421875,-130.79600524902344 -83.375,-129.06199645996094 C-157.875,-120.1240005493164 -212.75,-139.625 -246.5,-145.5z"/></g></g></g></svg>