<svg xmlns="http://www.w3.org/2000/svg" xmlns:xlink="http://www.w3.org/1999/xlink" viewBox="0 0 512 512" width="512" height="512" style="width: 100%; height: 100%; transform: translate3d(0,0,0);" preserveAspectRatio="xMidYMid meet"><defs><clipPath id="__lottie_element_52395"><rect width="512" height="512" x="0" y="0"/></clipPath><radialGradient id="__lottie_element_52419" spreadMethod="pad" gradientUnits="userSpaceOnUse"><stop/><stop/><stop/><stop/><stop/></radialGradient><linearGradient id="__lottie_element_52420" spreadMethod="pad" gradientUnits="userSpaceOnUse"><stop/><stop/><stop/></linearGradient><radialGradient id="__lottie_element_52421" spreadMethod="pad" gradientUnits="userSpaceOnUse"><stop/><stop/><stop/><stop/><stop/></radialGradient><linearGradient id="__lottie_element_52422" spreadMethod="pad" gradientUnits="userSpaceOnUse"><stop/><stop/><stop/></linearGradient><linearGradient id="__lottie_element_52423" spreadMethod="pad" gradientUnits="userSpaceOnUse"><stop/><stop/><stop/></linearGradient><linearGradient id="__lottie_element_52424" spreadMethod="pad" gradientUnits="userSpaceOnUse"><stop/><stop/><stop/></linearGradient><linearGradient id="__lottie_element_52425" spreadMethod="pad" gradientUnits="userSpaceOnUse"><stop/><stop/><stop/></linearGradient><linearGradient id="__lottie_element_52426" spreadMethod="pad" gradientUnits="userSpaceOnUse"><stop/><stop/><stop/></linearGradient><linearGradient id="__lottie_element_52427" spreadMethod="pad" gradientUnits="userSpaceOnUse"><stop/><stop/><stop/></linearGradient><linearGradient id="__lottie_element_52428" spreadMethod="pad" gradientUnits="userSpaceOnUse"><stop/><stop/><stop/></linearGradient><linearGradient id="__lottie_element_52429" spreadMethod="pad" gradientUnits="userSpaceOnUse"><stop/><stop/><stop/></linearGradient><linearGradient id="__lottie_element_52430" spreadMethod="pad" gradientUnits="userSpaceOnUse"><stop/><stop/><stop/></linearGradient><linearGradient id="__lottie_element_52431" spreadMethod="pad" gradientUnits="userSpaceOnUse"><stop/><stop/><stop/></linearGradient><linearGradient id="__lottie_element_52435" spreadMethod="pad" gradientUnits="userSpaceOnUse"><stop/><stop/><stop/></linearGradient><linearGradient id="__lottie_element_52439" spreadMethod="pad" gradientUnits="userSpaceOnUse"><stop/><stop/><stop/></linearGradient><linearGradient id="__lottie_element_52443" spreadMethod="pad" gradientUnits="userSpaceOnUse"><stop/><stop/><stop/></linearGradient><linearGradient id="__lottie_element_52447" spreadMethod="pad" gradientUnits="userSpaceOnUse"><stop/><stop/><stop/></linearGradient><linearGradient id="__lottie_element_52451" spreadMethod="pad" gradientUnits="userSpaceOnUse"><stop/><stop/><stop/></linearGradient><linearGradient id="__lottie_element_52455" spreadMethod="pad" gradientUnits="userSpaceOnUse"><stop/><stop/><stop/></linearGradient><linearGradient id="__lottie_element_52459" spreadMethod="pad" gradientUnits="userSpaceOnUse"><stop/><stop/><stop/></linearGradient><linearGradient id="__lottie_element_52463" spreadMethod="pad" gradientUnits="userSpaceOnUse"><stop/><stop/><stop/></linearGradient><linearGradient id="__lottie_element_52467" spreadMethod="pad" gradientUnits="userSpaceOnUse"><stop/><stop/><stop/></linearGradient><linearGradient id="__lottie_element_52471" spreadMethod="pad" gradientUnits="userSpaceOnUse"><stop/><stop/><stop/></linearGradient><linearGradient id="__lottie_element_52475" spreadMethod="pad" gradientUnits="userSpaceOnUse"><stop/><stop/><stop/></linearGradient><linearGradient id="__lottie_element_52479" spreadMethod="pad" gradientUnits="userSpaceOnUse"><stop/><stop/><stop/></linearGradient><linearGradient id="__lottie_element_52483" spreadMethod="pad" gradientUnits="userSpaceOnUse"><stop/><stop/><stop/></linearGradient><linearGradient id="__lottie_element_52487" spreadMethod="pad" gradientUnits="userSpaceOnUse"><stop/><stop/><stop/></linearGradient><linearGradient id="__lottie_element_52491" spreadMethod="pad" gradientUnits="userSpaceOnUse"><stop/><stop/><stop/></linearGradient><linearGradient id="__lottie_element_52495" spreadMethod="pad" gradientUnits="userSpaceOnUse"><stop/><stop/><stop/></linearGradient><linearGradient id="__lottie_element_52496" spreadMethod="pad" gradientUnits="userSpaceOnUse"><stop/><stop/><stop/></linearGradient><linearGradient id="__lottie_element_52497" spreadMethod="pad" gradientUnits="userSpaceOnUse"><stop/><stop/><stop/></linearGradient><linearGradient id="__lottie_element_52498" spreadMethod="pad" gradientUnits="userSpaceOnUse"><stop/><stop/><stop/><stop/><stop/></linearGradient><linearGradient id="__lottie_element_52499" spreadMethod="pad" gradientUnits="userSpaceOnUse"><stop/><stop/><stop/></linearGradient><linearGradient id="__lottie_element_52503" spreadMethod="pad" gradientUnits="userSpaceOnUse"><stop/><stop/><stop/></linearGradient><mask id="__lottie_element_52505"><path fill="url(#__lottie_element_52504)"/></mask><linearGradient id="__lottie_element_52504" spreadMethod="pad" gradientUnits="userSpaceOnUse"><stop stop-color="rgb(255,255,255)"/><stop stop-color="rgb(255,255,255)"/><stop stop-color="rgb(255,255,255)"/><stop stop-color="rgb(255,255,255)"/><stop stop-color="rgb(255,255,255)"/></linearGradient><linearGradient id="__lottie_element_52509" spreadMethod="pad" gradientUnits="userSpaceOnUse"><stop/><stop/><stop/></linearGradient><mask id="__lottie_element_52511"><path fill="url(#__lottie_element_52510)"/></mask><linearGradient id="__lottie_element_52510" spreadMethod="pad" gradientUnits="userSpaceOnUse"><stop stop-color="rgb(255,255,255)"/><stop stop-color="rgb(255,255,255)"/><stop stop-color="rgb(255,255,255)"/><stop stop-color="rgb(255,255,255)"/><stop stop-color="rgb(255,255,255)"/></linearGradient><linearGradient id="__lottie_element_52515" spreadMethod="pad" gradientUnits="userSpaceOnUse"><stop/><stop/><stop/></linearGradient><mask id="__lottie_element_52517"><path fill="url(#__lottie_element_52516)"/></mask><linearGradient id="__lottie_element_52516" spreadMethod="pad" gradientUnits="userSpaceOnUse"><stop stop-color="rgb(255,255,255)"/><stop stop-color="rgb(255,255,255)"/><stop stop-color="rgb(255,255,255)"/><stop stop-color="rgb(255,255,255)"/><stop stop-color="rgb(255,255,255)"/></linearGradient><linearGradient id="__lottie_element_52521" spreadMethod="pad" gradientUnits="userSpaceOnUse"><stop/><stop/><stop/></linearGradient><mask id="__lottie_element_52523"><path fill="url(#__lottie_element_52522)"/></mask><linearGradient id="__lottie_element_52522" spreadMethod="pad" gradientUnits="userSpaceOnUse"><stop stop-color="rgb(255,255,255)"/><stop stop-color="rgb(255,255,255)"/><stop stop-color="rgb(255,255,255)"/><stop stop-color="rgb(255,255,255)"/><stop stop-color="rgb(255,255,255)"/></linearGradient><linearGradient id="__lottie_element_52527" spreadMethod="pad" gradientUnits="userSpaceOnUse"><stop/><stop/><stop/></linearGradient><radialGradient id="__lottie_element_52531" spreadMethod="pad" gradientUnits="userSpaceOnUse"><stop/><stop/><stop/><stop/><stop/><stop/><stop/></radialGradient><linearGradient id="__lottie_element_52538" spreadMethod="pad" gradientUnits="userSpaceOnUse" x1="-0.09000000357627869" y1="-47.49399948120117" x2="-1.159999966621399" y2="54.13600158691406"><stop offset="0%" stop-color="rgb(222,194,97)"/><stop offset="65%" stop-color="rgb(189,141,73)"/><stop offset="100%" stop-color="rgb(157,87,50)"/></linearGradient><linearGradient id="__lottie_element_52539" spreadMethod="pad" gradientUnits="userSpaceOnUse" x1="40.6510009765625" y1="-20.83799934387207" x2="-10.62600040435791" y2="2.5510001182556152"><stop offset="0%" stop-color="rgb(255,234,176)" stop-opacity="0.20000000298023224"/><stop offset="18%" stop-color="rgb(238,214,136)" stop-opacity="0.10000000149011612"/><stop offset="36%" stop-color="rgb(222,194,97)" stop-opacity="0"/><stop offset="60%" stop-color="rgb(190,152,71)" stop-opacity="0.5"/><stop offset="85%" stop-color="rgb(159,110,45)" stop-opacity="1"/><stop offset="94%" stop-color="rgb(158,98,47)" stop-opacity="0.8999999761581421"/><stop offset="100%" stop-color="rgb(157,87,50)" stop-opacity="0.800000011920929"/></linearGradient><linearGradient id="__lottie_element_52540" spreadMethod="pad" gradientUnits="userSpaceOnUse" x1="21.832000732421875" y1="3.4839999675750732" x2="-33.72100067138672" y2="-3.757999897003174"><stop offset="0%" stop-color="rgb(147,113,58)"/><stop offset="9%" stop-color="rgb(184,158,98)"/><stop offset="17%" stop-color="rgb(220,203,138)"/><stop offset="35%" stop-color="rgb(215,193,115)"/><stop offset="54%" stop-color="rgb(211,182,92)"/><stop offset="65%" stop-color="rgb(174,133,65)"/><stop offset="83%" stop-color="rgb(137,84,37)"/><stop offset="94%" stop-color="rgb(147,98,42)"/><stop offset="100%" stop-color="rgb(157,112,47)"/></linearGradient><mask id="__lottie_element_52542"><path fill="url(#__lottie_element_52541)" d=" M36.91699981689453,-48.55400085449219 C33.0880012512207,-24.788999557495117 14.515999794006348,57.07099914550781 6.418000221252441,57.73099899291992 C-5.113999843597412,58.67100143432617 -20.871000289916992,59.400001525878906 -29.763999938964844,58.20800018310547 C-35.55699920654297,57.430999755859375 -43.215999603271484,-17.445999145507812 -28.07900047302246,-49.40399932861328 C-19.832000732421875,-63.70899963378906 37.499000549316406,-60.34700012207031 36.91699981689453,-48.55400085449219z"/></mask><linearGradient id="__lottie_element_52541" spreadMethod="pad" gradientUnits="userSpaceOnUse" x1="21.832000732421875" y1="3.4839999675750732" x2="-33.72100067138672" y2="-3.757999897003174"><stop stop-color="rgb(255,255,255)" offset="0%" stop-opacity="0"/><stop stop-color="rgb(255,255,255)" offset="9%" stop-opacity="0.25"/><stop stop-color="rgb(255,255,255)" offset="17%" stop-opacity="0.5"/><stop stop-color="rgb(255,255,255)" offset="35%" stop-opacity="0.5"/><stop stop-color="rgb(255,255,255)" offset="54%" stop-opacity="0.5"/><stop stop-color="rgb(255,255,255)" offset="65%" stop-opacity="0.699999988079071"/><stop stop-color="rgb(255,255,255)" offset="83%" stop-opacity="0.8999999761581421"/><stop stop-color="rgb(255,255,255)" offset="94%" stop-opacity="0.44999998807907104"/><stop stop-color="rgb(255,255,255)" offset="100%" stop-opacity="0"/><stop stop-color="rgb(255,255,255)" offset="100%" stop-opacity="0"/><stop stop-color="rgb(255,255,255)" offset="100%" stop-opacity="0"/></linearGradient><linearGradient id="__lottie_element_52543" spreadMethod="pad" gradientUnits="userSpaceOnUse" x1="3.8989999294281006" y1="2.0179998874664307" x2="-13.821000099182129" y2="-2.0999999046325684"><stop offset="0%" stop-color="rgb(153,108,39)" stop-opacity="0"/><stop offset="10%" stop-color="rgb(137,90,26)" stop-opacity="0.25"/><stop offset="29%" stop-color="rgb(122,72,12)" stop-opacity="0.5"/><stop offset="69%" stop-color="rgb(137,90,26)" stop-opacity="0.25"/><stop offset="100%" stop-color="rgb(153,108,39)" stop-opacity="0"/></linearGradient><linearGradient id="__lottie_element_52544" spreadMethod="pad" gradientUnits="userSpaceOnUse" x1="-10.696000099182129" y1="2.2090001106262207" x2="28.722999572753906" y2="-1.6469999551773071"><stop offset="0%" stop-color="rgb(153,108,39)" stop-opacity="0"/><stop offset="24%" stop-color="rgb(137,90,26)" stop-opacity="0.4000000059604645"/><stop offset="48%" stop-color="rgb(122,72,12)" stop-opacity="0.800000011920929"/><stop offset="74%" stop-color="rgb(136,90,26)" stop-opacity="0.800000011920929"/><stop offset="97%" stop-color="rgb(151,108,39)" stop-opacity="0.800000011920929"/></linearGradient><linearGradient id="__lottie_element_52545" spreadMethod="pad" gradientUnits="userSpaceOnUse" x1="9.428999900817871" y1="-6.276000022888184" x2="24.575000762939453" y2="-14.590999603271484"><stop offset="0%" stop-color="rgb(144,72,12)" stop-opacity="0.5"/><stop offset="50%" stop-color="rgb(182,128,56)" stop-opacity="0.25"/><stop offset="100%" stop-color="rgb(219,184,99)" stop-opacity="0"/></linearGradient><linearGradient id="__lottie_element_52546" spreadMethod="pad" gradientUnits="userSpaceOnUse" x1="-22.077999114990234" y1="-6.822999954223633" x2="15.927000045776367" y2="4.61899995803833"><stop offset="0%" stop-color="rgb(148,106,18)" stop-opacity="0.20000000298023224"/><stop offset="8%" stop-color="rgb(179,148,78)" stop-opacity="0.6000000238418579"/><stop offset="31%" stop-color="rgb(210,191,137)" stop-opacity="1"/><stop offset="77%" stop-color="rgb(185,162,117)" stop-opacity="1"/><stop offset="100%" stop-color="rgb(161,134,96)" stop-opacity="1"/></linearGradient><linearGradient id="__lottie_element_52547" spreadMethod="pad" gradientUnits="userSpaceOnUse" x1="-7.208000183105469" y1="-4.4720001220703125" x2="-18.926000595092773" y2="-11.795999526977539"><stop offset="3%" stop-color="rgb(122,72,12)" stop-opacity="0.5"/><stop offset="40%" stop-color="rgb(137,90,26)" stop-opacity="0.30000001192092896"/><stop offset="78%" stop-color="rgb(153,108,39)" stop-opacity="0.10000000149011612"/></linearGradient><radialGradient id="__lottie_element_52551" spreadMethod="pad" gradientUnits="userSpaceOnUse" cx="0.1469999998807907" cy="11.92300033569336" r="166.13299877941608" fx="0.1469999998807907" fy="11.92300033569336"><stop offset="0%" stop-color="rgb(236,212,116)"/><stop offset="77%" stop-color="rgb(172,140,68)"/><stop offset="100%" stop-color="rgb(109,68,20)"/></radialGradient><linearGradient id="__lottie_element_52552" spreadMethod="pad" gradientUnits="userSpaceOnUse" x1="-32.52299880981445" y1="13.279000282287598" x2="36.9640007019043" y2="-18.868999481201172"><stop offset="24%" stop-color="rgb(236,212,116)" stop-opacity="0"/><stop offset="31%" stop-color="rgb(192,156,76)" stop-opacity="0.5"/><stop offset="52%" stop-color="rgb(147,99,36)" stop-opacity="1"/><stop offset="71%" stop-color="rgb(150,104,37)" stop-opacity="0.5"/><stop offset="91%" stop-color="rgb(153,108,39)" stop-opacity="0"/></linearGradient><linearGradient id="__lottie_element_52553" spreadMethod="pad" gradientUnits="userSpaceOnUse" x1="26.700000762939453" y1="15.982999801635742" x2="-17.895999908447266" y2="10.067999839782715"><stop offset="26%" stop-color="rgb(236,212,116)" stop-opacity="0"/><stop offset="32%" stop-color="rgb(192,156,76)" stop-opacity="0.5"/><stop offset="48%" stop-color="rgb(147,99,36)" stop-opacity="1"/><stop offset="62%" stop-color="rgb(150,104,37)" stop-opacity="0.5"/><stop offset="75%" stop-color="rgb(153,108,39)" stop-opacity="0"/></linearGradient><linearGradient id="__lottie_element_52554" spreadMethod="pad" gradientUnits="userSpaceOnUse" x1="-1.2710000276565552" y1="20.406999588012695" x2="0.5830000042915344" y2="-72.80999755859375"><stop offset="3%" stop-color="rgb(232,211,117)" stop-opacity="1"/><stop offset="22%" stop-color="rgb(234,211,113)" stop-opacity="0.75"/><stop offset="71%" stop-color="rgb(235,211,110)" stop-opacity="0.5"/><stop offset="86%" stop-color="rgb(210,174,83)" stop-opacity="0.44999998807907104"/><stop offset="100%" stop-color="rgb(185,138,57)" stop-opacity="0.4000000059604645"/></linearGradient><linearGradient id="__lottie_element_52555" spreadMethod="pad" gradientUnits="userSpaceOnUse" x1="-0.14399999380111694" y1="39.900001525878906" x2="1.1790000200271606" y2="-59.85100173950195"><stop offset="3%" stop-color="rgb(232,211,117)" stop-opacity="1"/><stop offset="22%" stop-color="rgb(234,211,113)" stop-opacity="0.75"/><stop offset="71%" stop-color="rgb(235,211,110)" stop-opacity="0.5"/><stop offset="86%" stop-color="rgb(207,167,72)" stop-opacity="0.6499999761581421"/><stop offset="100%" stop-color="rgb(178,122,34)" stop-opacity="0.800000011920929"/></linearGradient><linearGradient id="__lottie_element_52556" spreadMethod="pad" gradientUnits="userSpaceOnUse" x1="-14.220000267028809" y1="2.63700008392334" x2="36.887001037597656" y2="-4.3480000495910645"><stop offset="12%" stop-color="rgb(147,99,36)" stop-opacity="0"/><stop offset="29%" stop-color="rgb(134,85,24)" stop-opacity="0.5"/><stop offset="52%" stop-color="rgb(122,72,12)" stop-opacity="1"/><stop offset="76%" stop-color="rgb(137,90,26)" stop-opacity="0.5"/><stop offset="100%" stop-color="rgb(153,108,39)" stop-opacity="0"/></linearGradient><linearGradient id="__lottie_element_52557" spreadMethod="pad" gradientUnits="userSpaceOnUse" x1="10.531999588012695" y1="1.8919999599456787" x2="-7.252999782562256" y2="-2.2119998931884766"><stop offset="15%" stop-color="rgb(147,99,36)" stop-opacity="0"/><stop offset="33%" stop-color="rgb(147,99,36)" stop-opacity="0.5"/><stop offset="60%" stop-color="rgb(147,99,36)" stop-opacity="1"/><stop offset="88%" stop-color="rgb(138,98,40)" stop-opacity="0.5"/><stop offset="100%" stop-color="rgb(130,97,44)" stop-opacity="0"/></linearGradient><linearGradient id="__lottie_element_52558" spreadMethod="pad" gradientUnits="userSpaceOnUse" x1="-1141.97802734375" y1="241.14300537109375" x2="-1125.52099609375" y2="237.13699340820312"><stop offset="32%" stop-color="rgb(147,99,36)" stop-opacity="0"/><stop offset="50%" stop-color="rgb(151,113,61)" stop-opacity="0.5"/><stop offset="75%" stop-color="rgb(156,127,86)" stop-opacity="1"/><stop offset="92%" stop-color="rgb(157,129,90)" stop-opacity="1"/><stop offset="100%" stop-color="rgb(157,130,93)" stop-opacity="1"/></linearGradient><linearGradient id="__lottie_element_52559" spreadMethod="pad" gradientUnits="userSpaceOnUse" x1="8.593999862670898" y1="22.016000747680664" x2="-15.652999877929688" y2="-9.446999549865723"><stop offset="32%" stop-color="rgb(147,99,36)" stop-opacity="0"/><stop offset="50%" stop-color="rgb(151,113,61)" stop-opacity="0.5"/><stop offset="75%" stop-color="rgb(156,127,86)" stop-opacity="1"/><stop offset="92%" stop-color="rgb(157,129,90)" stop-opacity="1"/><stop offset="100%" stop-color="rgb(157,130,93)" stop-opacity="1"/></linearGradient><linearGradient id="__lottie_element_52560" spreadMethod="pad" gradientUnits="userSpaceOnUse" x1="-5.189000129699707" y1="10.541999816894531" x2="14.182999610900879" y2="3.9509999752044678"><stop offset="32%" stop-color="rgb(147,99,36)" stop-opacity="0"/><stop offset="50%" stop-color="rgb(151,113,61)" stop-opacity="0.5"/><stop offset="75%" stop-color="rgb(156,127,86)" stop-opacity="1"/><stop offset="92%" stop-color="rgb(157,129,90)" stop-opacity="0.8500000238418579"/><stop offset="100%" stop-color="rgb(157,130,93)" stop-opacity="0.699999988079071"/></linearGradient><linearGradient id="__lottie_element_52561" spreadMethod="pad" gradientUnits="userSpaceOnUse" x1="-4.546999931335449" y1="23.076000213623047" x2="-0.6489999890327454" y2="82.60099792480469"><stop offset="3%" stop-color="rgb(122,72,12)" stop-opacity="0.5"/><stop offset="49%" stop-color="rgb(137,90,26)" stop-opacity="0.25"/><stop offset="94%" stop-color="rgb(153,108,39)" stop-opacity="0"/></linearGradient><linearGradient id="__lottie_element_52562" spreadMethod="pad" gradientUnits="userSpaceOnUse" x1="-19.565000534057617" y1="3.441999912261963" x2="5.171999931335449" y2="-3.002000093460083"><stop offset="3%" stop-color="rgb(154,122,12)"/><stop offset="23%" stop-color="rgb(162,126,43)"/><stop offset="52%" stop-color="rgb(170,130,73)"/><stop offset="75%" stop-color="rgb(164,130,83)"/><stop offset="92%" stop-color="rgb(157,130,93)"/></linearGradient><mask id="__lottie_element_52564"><path fill="url(#__lottie_element_52563)" d=" M5.0269999504089355,-17.839000701904297 C16.672000885009766,-5.376999855041504 24.75,31.708999633789062 9.758000373840332,31.4060001373291 C-10.45300006866455,30.99799919128418 -14.9350004196167,6.609000205993652 -13.196999549865723,-1.7419999837875366 C-12.940999984741211,-2.9709999561309814 -10.098999977111816,-7.557000160217285 -10.01099967956543,-16.358999252319336 C-9.98799991607666,-18.6560001373291 -4.2729997634887695,-27.79199981689453 5.0269999504089355,-17.839000701904297z"/></mask><linearGradient id="__lottie_element_52563" spreadMethod="pad" gradientUnits="userSpaceOnUse" x1="-19.565000534057617" y1="3.441999912261963" x2="5.171999931335449" y2="-3.002000093460083"><stop stop-color="rgb(255,255,255)" offset="3%" stop-opacity="0"/><stop stop-color="rgb(255,255,255)" offset="23%" stop-opacity="0.3499999940395355"/><stop stop-color="rgb(255,255,255)" offset="52%" stop-opacity="0.699999988079071"/><stop stop-color="rgb(255,255,255)" offset="79%" stop-opacity="0.3499999940395355"/><stop stop-color="rgb(255,255,255)" offset="92%" stop-opacity="0"/></linearGradient><linearGradient id="__lottie_element_52565" spreadMethod="pad" gradientUnits="userSpaceOnUse" x1="-6.939000129699707" y1="-0.6589999794960022" x2="9.039999961853027" y2="1.1779999732971191"><stop offset="11%" stop-color="rgb(154,122,12)" stop-opacity="0"/><stop offset="29%" stop-color="rgb(155,124,49)" stop-opacity="0.5"/><stop offset="55%" stop-color="rgb(156,127,86)" stop-opacity="1"/><stop offset="86%" stop-color="rgb(157,129,90)" stop-opacity="0.75"/><stop offset="100%" stop-color="rgb(157,130,93)" stop-opacity="0.5"/></linearGradient><radialGradient id="__lottie_element_52566" spreadMethod="pad" gradientUnits="userSpaceOnUse" cx="2.8429999351501465" cy="-0.8920000195503235" r="18.69662534009207" fx="4.713219775770568" fy="1.7874677823689429"><stop offset="33%" stop-color="rgb(140,114,68)" stop-opacity="1"/><stop offset="72%" stop-color="rgb(146,117,63)" stop-opacity="0.5"/><stop offset="100%" stop-color="rgb(152,119,58)" stop-opacity="0"/></radialGradient><linearGradient id="__lottie_element_52567" spreadMethod="pad" gradientUnits="userSpaceOnUse" x1="13.640000343322754" y1="-62.10900115966797" x2="-7.750999927520752" y2="36.630001068115234"><stop offset="15%" stop-color="rgb(147,99,36)" stop-opacity="0"/><stop offset="33%" stop-color="rgb(147,99,36)" stop-opacity="0.5"/><stop offset="60%" stop-color="rgb(147,99,36)" stop-opacity="1"/><stop offset="88%" stop-color="rgb(138,98,40)" stop-opacity="0.5"/><stop offset="100%" stop-color="rgb(130,97,44)" stop-opacity="0"/></linearGradient><linearGradient id="__lottie_element_52568" spreadMethod="pad" gradientUnits="userSpaceOnUse" x1="-2.805999994277954" y1="-231.08900451660156" x2="6.281000137329102" y2="58.93000030517578"><stop offset="15%" stop-color="rgb(147,99,36)" stop-opacity="0"/><stop offset="33%" stop-color="rgb(147,99,36)" stop-opacity="0.5"/><stop offset="60%" stop-color="rgb(147,99,36)" stop-opacity="1"/><stop offset="88%" stop-color="rgb(138,98,40)" stop-opacity="0.5"/><stop offset="100%" stop-color="rgb(130,97,44)" stop-opacity="0"/></linearGradient><linearGradient id="__lottie_element_52569" spreadMethod="pad" gradientUnits="userSpaceOnUse" x1="-14.220000267028809" y1="2.63700008392334" x2="36.887001037597656" y2="-4.3480000495910645"><stop offset="12%" stop-color="rgb(147,99,36)" stop-opacity="0"/><stop offset="32%" stop-color="rgb(139,98,36)" stop-opacity="0.5"/><stop offset="52%" stop-color="rgb(131,97,36)" stop-opacity="1"/><stop offset="76%" stop-color="rgb(142,103,37)" stop-opacity="0.5"/><stop offset="100%" stop-color="rgb(153,108,39)" stop-opacity="0"/></linearGradient><linearGradient id="__lottie_element_52570" spreadMethod="pad" gradientUnits="userSpaceOnUse" x1="-1.559000015258789" y1="-21.489999771118164" x2="-2.861999988555908" y2="-15.484000205993652"><stop offset="21%" stop-color="rgb(137,86,36)" stop-opacity="1"/><stop offset="60%" stop-color="rgb(147,103,43)" stop-opacity="0.5"/><stop offset="100%" stop-color="rgb(156,119,50)" stop-opacity="0"/></linearGradient><radialGradient id="__lottie_element_52571" spreadMethod="pad" gradientUnits="userSpaceOnUse" cx="1.6510000228881836" cy="-3.058000087738037" r="134.2694071001656" fx="1.6510000228881836" fy="-3.058000087738037"><stop offset="45%" stop-color="rgb(236,212,116)" stop-opacity="1"/><stop offset="81%" stop-color="rgb(236,212,116)" stop-opacity="0.5"/><stop offset="100%" stop-color="rgb(236,212,116)" stop-opacity="0"/></radialGradient><linearGradient id="__lottie_element_52572" spreadMethod="pad" gradientUnits="userSpaceOnUse" x1="-29.253999710083008" y1="0.7620000243186951" x2="39.26100158691406" y2="-2.9769999980926514"><stop offset="15%" stop-color="rgb(147,99,36)" stop-opacity="0"/><stop offset="33%" stop-color="rgb(147,99,36)" stop-opacity="0.10000000149011612"/><stop offset="52%" stop-color="rgb(147,99,36)" stop-opacity="0.20000000298023224"/><stop offset="76%" stop-color="rgb(178,137,57)" stop-opacity="0.10000000149011612"/><stop offset="100%" stop-color="rgb(209,175,77)" stop-opacity="0"/></linearGradient><linearGradient id="__lottie_element_52573" spreadMethod="pad" gradientUnits="userSpaceOnUse" x1="4.071000099182129" y1="13.470000267028809" x2="-36.150001525878906" y2="12.246000289916992"><stop offset="15%" stop-color="rgb(147,99,36)" stop-opacity="0"/><stop offset="33%" stop-color="rgb(147,99,36)" stop-opacity="0.10000000149011612"/><stop offset="52%" stop-color="rgb(147,99,36)" stop-opacity="0.20000000298023224"/><stop offset="76%" stop-color="rgb(178,137,57)" stop-opacity="0.10000000149011612"/><stop offset="100%" stop-color="rgb(209,175,77)" stop-opacity="0"/></linearGradient><linearGradient id="__lottie_element_52574" spreadMethod="pad" gradientUnits="userSpaceOnUse" x1="-3.115000009536743" y1="-25.246999740600586" x2="17.099000930786133" y2="55.92900085449219"><stop offset="3%" stop-color="rgb(122,72,12)" stop-opacity="0.5"/><stop offset="49%" stop-color="rgb(137,90,26)" stop-opacity="0.25"/><stop offset="94%" stop-color="rgb(153,108,39)" stop-opacity="0"/></linearGradient><linearGradient id="__lottie_element_52575" spreadMethod="pad" gradientUnits="userSpaceOnUse" x1="-6.453999996185303" y1="-28.256000518798828" x2="16.172000885009766" y2="62.60599899291992"><stop offset="3%" stop-color="rgb(122,72,12)" stop-opacity="0.5"/><stop offset="49%" stop-color="rgb(137,90,26)" stop-opacity="0.25"/><stop offset="94%" stop-color="rgb(153,108,39)" stop-opacity="0"/></linearGradient><linearGradient id="__lottie_element_52576" spreadMethod="pad" gradientUnits="userSpaceOnUse" x1="42.404998779296875" y1="-36.21500015258789" x2="28.75" y2="102.91899871826172"><stop offset="3%" stop-color="rgb(122,72,12)" stop-opacity="0.5"/><stop offset="49%" stop-color="rgb(137,90,26)" stop-opacity="0.25"/><stop offset="94%" stop-color="rgb(153,108,39)" stop-opacity="0"/></linearGradient><linearGradient id="__lottie_element_52577" spreadMethod="pad" gradientUnits="userSpaceOnUse" x1="28.979000091552734" y1="-0.9940000176429749" x2="16.124000549316406" y2="127.72100067138672"><stop offset="3%" stop-color="rgb(122,72,12)" stop-opacity="0.20000000298023224"/><stop offset="49%" stop-color="rgb(137,90,26)" stop-opacity="0.10000000149011612"/><stop offset="94%" stop-color="rgb(153,108,39)" stop-opacity="0"/></linearGradient><linearGradient id="__lottie_element_52578" spreadMethod="pad" gradientUnits="userSpaceOnUse" x1="-6.171000003814697" y1="-24.354999542236328" x2="13.012999534606934" y2="52.6870002746582"><stop offset="3%" stop-color="rgb(122,72,12)" stop-opacity="0.5"/><stop offset="49%" stop-color="rgb(137,90,26)" stop-opacity="0.25"/><stop offset="94%" stop-color="rgb(153,108,39)" stop-opacity="0"/></linearGradient><radialGradient id="__lottie_element_52579" spreadMethod="pad" gradientUnits="userSpaceOnUse" cx="0.1469999998807907" cy="11.92300033569336" r="166.13299877941608" fx="-1.0074811973573528" fy="12.932213874912133"><stop offset="0%" stop-color="rgb(255,214,116)" stop-opacity="0.4000000059604645"/><stop offset="80%" stop-color="rgb(188,141,68)" stop-opacity="0.3499999940395355"/><stop offset="100%" stop-color="rgb(121,68,20)" stop-opacity="0.30000001192092896"/></radialGradient><radialGradient id="__lottie_element_52580" spreadMethod="pad" gradientUnits="userSpaceOnUse" cx="2.259999990463257" cy="-203.88499450683594" r="231.7223807130451" fx="1.8357483970428947" fy="-196.54469350128022"><stop offset="74%" stop-color="rgb(255,214,116)" stop-opacity="0"/><stop offset="93%" stop-color="rgb(187,152,69)" stop-opacity="0.15000000596046448"/><stop offset="98%" stop-color="rgb(119,91,21)" stop-opacity="0.30000001192092896"/></radialGradient><linearGradient id="__lottie_element_52581" spreadMethod="pad" gradientUnits="userSpaceOnUse" x1="246.45899963378906" y1="303.0150146484375" x2="245.91900634765625" y2="235.5659942626953"><stop offset="21%" stop-color="rgb(16,10,1)" stop-opacity="0.20000000298023224"/><stop offset="60%" stop-color="rgb(52,31,3)" stop-opacity="0.3499999940395355"/><stop offset="100%" stop-color="rgb(88,51,5)" stop-opacity="0.5"/></linearGradient></defs><g clip-path="url(#__lottie_element_52395)"><g style="display: block;" transform="matrix(1,0,0,1,0,0)" opacity="1"><g opacity="1" transform="matrix(1,0,0,1,252.1510009765625,310.6730041503906)"><path fill="url(#__lottie_element_52551)" fill-opacity="1" d=" M-43.987998962402344,-141.52999877929688 C-77.24400329589844,-132.91700744628906 -99.61699676513672,-117.41300201416016 -113.69999694824219,-101.56900024414062 C-127.78299713134766,-85.7249984741211 -133.06500244140625,-74.98600006103516 -134.2969970703125,-65.30400085449219 C-135.8090057373047,-53.42399978637695 -135.35400390625,-41.01100158691406 -140.10699462890625,-24.28700065612793 C-143.57699584960938,-12.076000213623047 -145.38800048828125,5.639999866485596 -146.0919952392578,23.243999481201172 C-146.79600524902344,40.847999572753906 -143.97900390625,57.83599853515625 -146.2239990234375,67.87000274658203 C-148.10800170898438,76.29299926757812 -153.52999877929688,82.30500030517578 -150.71299743652344,90.0510025024414 C-147.89599609375,97.7969970703125 -134.12100219726562,120.7699966430664 -91.87100219726562,131.68499755859375 C-49.62099838256836,142.60000610351562 6.443999767303467,145.10699462890625 51.02899932861328,142.9949951171875 C101.20099639892578,140.6179962158203 114.2969970703125,131.49099731445312 127.73899841308594,121.4739990234375 C139.13800048828125,112.9800033569336 151.7689971923828,101.40499877929688 151.5050048828125,90.84300231933594 C151.2790069580078,81.81999969482422 142.77699279785156,73.13300323486328 142.26199340820312,66.55000305175781 C141.07400512695312,51.367000579833984 143.71400451660156,33.93899917602539 141.73399353027344,5.156000137329102 C139.76800537109375,-23.41699981689453 132.49200439453125,-36.374000549316406 130.7760009765625,-49.10900115966797 C129.41200256347656,-59.23099899291992 130.99600219726562,-70.05799865722656 123.86599731445312,-83.3489990234375 C115.8759994506836,-98.24299621582031 96.58999633789062,-116.8270034790039 77.43499755859375,-126.34700012207031 C55.38600158691406,-137.30599975585938 43.23899841308594,-142.32200622558594 20.441999435424805,-143.11399841308594 C7.8520002365112305,-143.552001953125 -31.753000259399414,-144.69900512695312 -43.987998962402344,-141.52999877929688z"/></g><g opacity="1" transform="matrix(1,0,0,1,266.8210144042969,208.3159942626953)"><path fill="url(#__lottie_element_52552)" fill-opacity="1" d=" M-36.83000183105469,-40.22999954223633 C-36.83000183105469,-40.22999954223633 -23.451000213623047,34.4109992980957 15.630000114440918,42.33300018310547 C54.71099853515625,50.255001068115234 29.009000778198242,-25.79400062561035 22.672000885009766,-35.29999923706055 C16.334999084472656,-44.805999755859375 -22.395000457763672,-44.10300064086914 -36.83000183105469,-40.22999954223633z"/></g><g opacity="1" transform="matrix(1,0,0,1,203.67599487304688,226.73800659179688)"><path fill="url(#__lottie_element_52553)" fill-opacity="1" d=" M35.117000579833984,-57.946998596191406 C35.117000579833984,-57.946998596191406 20.365999221801758,50.141998291015625 -16.28700065612793,58.06399917602539 C-52.939998626708984,65.98600006103516 -26.0049991607666,-37.49300003051758 -19.10300064086914,-46.327999114990234 C-10.300999641418457,-57.595001220703125 20.506000518798828,-59.707000732421875 35.117000579833984,-57.946998596191406z"/></g><g opacity="1" transform="matrix(1,0,0,1,300.3190002441406,253.43899536132812)"><path fill="url(#__lottie_element_52554)" fill-opacity="1" d=" M-30.542999267578125,49.84700012207031 C-30.542999267578125,49.84700012207031 -31.683000564575195,3.4809999465942383 -27.374000549316406,-20.216999053955078 C-23.14900016784668,-43.45399856567383 -36.542999267578125,-76.82499694824219 -26.582000732421875,-80.86299896240234 C-16.812000274658203,-84.8239974975586 4.164999961853027,-65.38200378417969 14.631999969482422,-46.858001708984375 C34.31700134277344,-12.022000312805176 37.584999084472656,74.40499877929688 14.87600040435791,79.4219970703125 C-22.243999481201172,87.62300109863281 -22.093000411987305,68.59500122070312 -30.542999267578125,49.84700012207031z"/></g><g opacity="1" transform="matrix(1,0,0,1,234.44200134277344,234.6959991455078)"><path fill="url(#__lottie_element_52555)" fill-opacity="1" d=" M-46.52399826049805,53.803001403808594 C-46.52399826049805,53.803001403808594 -34.38800048828125,4.8979997634887695 -26.983999252319336,-18.02199935913086 C-15.012999534606934,-55.07899856567383 -10.21500015258789,-66.8010025024414 -5.7270002365112305,-66.87300109863281 C2.4590001106262207,-67.00499725341797 18.610000610351562,-29.46500015258789 29.524999618530273,-4.994999885559082 C45.82500076293945,31.547000885009766 60.15599822998047,46.9370002746582 23.715999603271484,57.76300048828125 C-12.723999977111816,68.58899688720703 -38.07400131225586,72.5510025024414 -46.52399826049805,53.803001403808594z"/></g><g opacity="1" transform="matrix(1,0,0,1,254.51800537109375,218.95899963378906)"><path fill="url(#__lottie_element_52556)" fill-opacity="1" d=" M-32.09600067138672,-50.52000045776367 C-32.09600067138672,-50.52000045776367 14.467000007629395,53.34400177001953 27.93400001525879,53.34400177001953 C33.70100021362305,53.34400177001953 34.446998596191406,-34.500999450683594 23.885000228881836,-49.28799819946289 C20.121999740600586,-54.555999755859375 -13.192999839782715,-54.393001556396484 -32.09600067138672,-50.52000045776367z"/></g><g opacity="1" transform="matrix(1,0,0,1,195.76600646972656,252.70399475097656)"><path fill="url(#__lottie_element_52557)" fill-opacity="1" d=" M-2.0380001068115234,-39.46200180053711 C-2.0380001068115234,-39.46200180053711 -24.68199920654297,55.52199935913086 -13.888999938964844,58.04399871826172 C2.306999921798706,61.82899856567383 34.2760009765625,-85.15299987792969 20.67099952697754,-84.35299682617188 C13.937000274658203,-83.95700073242188 4.6519999504089355,-61.73099899291992 -2.0380001068115234,-39.46200180053711z"/></g><g opacity="1" transform="matrix(1,0,0,1,345.0320129394531,208.29400634765625)"><path fill="url(#__lottie_element_52558)" fill-opacity="1" d=" M9.904999732971191,-6.935999870300293 C23.795000076293945,5.610000133514404 38.95199966430664,27.60300064086914 34.066001892089844,31.35300064086914 C28.388999938964844,35.709999084472656 -41.85200119018555,-28.059999465942383 -34.45800018310547,-31.361000061035156 C-29.597999572753906,-33.53099822998047 -2.374000072479248,-18.027000427246094 9.904999732971191,-6.935999870300293z"/></g><g opacity="1" transform="matrix(1,0,0,1,162.7760009765625,206.3509979248047)"><path fill="url(#__lottie_element_52559)" fill-opacity="1" d=" M-10.715999603271484,-10.085000038146973 C5.77400016784668,-23.2189998626709 40.321998596191406,-39.5260009765625 43.82400131225586,-34.47100067138672 C47.89400100708008,-28.597000122070312 -44.316001892089844,42.766998291015625 -43.95399856567383,34.79199981689453 C-43.513999938964844,25.110000610351562 -26.61400032043457,2.5769999027252197 -10.715999603271484,-10.085000038146973z"/></g><g opacity="1" transform="matrix(1,0,0,1,332.8290100097656,204.38600158691406)"><path fill="url(#__lottie_element_52560)" fill-opacity="1" d=" M6.451000213623047,-8.368000030517578 C12.621999740600586,1.7230000495910645 22.267000198364258,23.98699951171875 16.341999053955078,25.66699981689453 C7.495999813079834,28.176000595092773 -22.916000366210938,-26.7189998626709 -17.56800079345703,-25.73699951171875 C-7.863999843597412,-23.954999923706055 1.565999984741211,-16.356000900268555 6.451000213623047,-8.368000030517578z"/></g><g opacity="1" transform="matrix(1,0,0,1,121.06900024414062,325.6659851074219)"><path fill="url(#__lottie_element_52561)" fill-opacity="1" d=" M6.9070000648498535,-60.40399932861328 C-14.482000350952148,23.30299949645996 10.105999946594238,85.96800231933594 2.065999984741211,88.3499984741211 C-7.97599983215332,91.32499694824219 -23.259000778198242,8.656000137329102 -7.440000057220459,-45.792999267578125 C0.7870000004768372,-74.10900115966797 8.557000160217285,-86.65499877929688 13.6850004196167,-88.3949966430664 C16.052000045776367,-89.197998046875 10.690999984741211,-75.21399688720703 6.9070000648498535,-60.40399932861328z"/></g><g opacity="1" transform="matrix(1,0,0,1,117.0780029296875,387.87701416015625)"><path fill="url(#__lottie_element_52562)" mask="url(#__lottie_element_52564)" fill-opacity="1" d="M0 0 M5.0269999504089355,-17.839000701904297 C16.672000885009766,-5.376999855041504 24.75,31.708999633789062 9.758000373840332,31.4060001373291 C-10.45300006866455,30.99799919128418 -14.9350004196167,6.609000205993652 -13.196999549865723,-1.7419999837875366 C-12.940999984741211,-2.9709999561309814 -10.098999977111816,-7.557000160217285 -10.01099967956543,-16.358999252319336 C-9.98799991607666,-18.6560001373291 -4.2729997634887695,-27.79199981689453 5.0269999504089355,-17.839000701904297z"/></g><g opacity="1" transform="matrix(1,0,0,1,387.98199462890625,372.4750061035156)"><path fill="url(#__lottie_element_52565)" fill-opacity="1" d=" M-5.539000034332275,-8.982999801635742 C-8.444000244140625,8.154000282287598 -9.9399995803833,38.41699981689453 2.999000072479248,27.326000213623047 C7.177000045776367,23.7450008392334 8.197999954223633,-17.764999389648438 7.136000156402588,-25.354999542236328 C5.883999824523926,-34.301998138427734 -2.0179998874664307,-29.756000518798828 -5.539000034332275,-8.982999801635742z"/></g><g opacity="1" transform="matrix(1,0,0,1,392.1839904785156,398.9469909667969)"><path fill="url(#__lottie_element_52566)" fill-opacity="1" d=" M4.254000186920166,-14.682999610900879 C8.65999984741211,-6.236999988555908 13.67199993133545,-0.24699999392032623 9.798999786376953,9.258999824523926 C7.517000198364258,14.859999656677246 4.959000110626221,20.04199981689453 -3.0510001182556152,13.527999877929688 C-10.185999870300293,7.72599983215332 -15.07800006866455,-6.376999855041504 -7.01200008392334,-13.097999572753906 C-4.370999813079834,-15.298999786376953 2.1419999599456787,-18.73200035095215 4.254000186920166,-14.682999610900879z"/></g><g opacity="1" transform="matrix(1,0,0,1,162.177001953125,267.2650146484375)"><path fill="url(#__lottie_element_52567)" fill-opacity="1" d=" M8.791000366210938,-29.226999282836914 C-4.355999946594238,12.12399959564209 -3.7269999980926514,77.86000061035156 -12.800999641418457,72.39700317382812 C-34.92499923706055,59.07699966430664 -4.440999984741211,-69.0770034790039 15.906999588012695,-72.59600067138672 C25.964000701904297,-74.33499908447266 17.69499969482422,-57.231998443603516 8.791000366210938,-29.226999282836914z"/></g><g opacity="1" transform="matrix(1,0,0,1,178.718994140625,225.82000732421875)"><path fill="url(#__lottie_element_52568)" fill-opacity="1" d=" M4.093999862670898,-15.659000396728516 C-12.982000350952148,11.803000450134277 -19.319000244140625,55.46099853515625 -26.291000366210938,54.72200012207031 C-44.465999603271484,52.79499816894531 -0.5149999856948853,-61.779998779296875 29.79599952697754,-54.38800048828125 C34.21500015258789,-53.310001373291016 18.524999618530273,-38.86800003051758 4.093999862670898,-15.659000396728516z"/></g><g opacity="1" transform="matrix(1,0,0,1,254.51800537109375,218.95899963378906)"><path fill="url(#__lottie_element_52569)" fill-opacity="1" d=" M-32.09600067138672,-50.52000045776367 C-32.09600067138672,-50.52000045776367 14.467000007629395,53.34400177001953 27.93400001525879,53.34400177001953 C33.70100021362305,53.34400177001953 34.446998596191406,-34.500999450683594 23.885000228881836,-49.28799819946289 C20.121999740600586,-54.555999755859375 -13.192999839782715,-54.393001556396484 -32.09600067138672,-50.52000045776367z"/></g><g opacity="1" transform="matrix(1,0,0,1,245.85699462890625,188.08599853515625)"><path fill="url(#__lottie_element_52570)" fill-opacity="1" d=" M-40.5989990234375,-18.23900032043457 C-40.5989990234375,-18.23900032043457 -100.40899658203125,1.8739999532699585 -73.12300109863281,12.083999633789062 C-23.695999145507812,30.57900047302246 151.41099548339844,23.097999572753906 48.29499816894531,-17.83099937438965 C32.900001525878906,-23.941999435424805 -29.420000076293945,-21.672000885009766 -40.5989990234375,-18.23900032043457z"/></g><g opacity="1" transform="matrix(1,0,0,1,249.44400024414062,311.677001953125)"><path fill="url(#__lottie_element_52571)" fill-opacity="1" d=" M0,-137.8979949951172 C76.15899658203125,-137.8979949951172 137.8979949951172,-76.15899658203125 137.8979949951172,0 C137.8979949951172,76.15899658203125 76.15899658203125,137.8979949951172 0,137.8979949951172 C-76.15899658203125,137.8979949951172 -137.8979949951172,76.15899658203125 -137.8979949951172,0 C-137.8979949951172,-76.15899658203125 -76.15899658203125,-137.8979949951172 0,-137.8979949951172z"/></g><g opacity="1" transform="matrix(1,0,0,1,337.552001953125,319.8340148925781)"><path fill="url(#__lottie_element_52572)" fill-opacity="1" d=" M-38.284000396728516,-77.84700012207031 C-38.284000396728516,-77.84700012207031 -68.04399871826172,103.9260025024414 2.2699999809265137,110.08999633789062 C61.50899887084961,115.28299713134766 51.26100158691406,-62.915000915527344 15.647000312805176,-96.88800048828125 C-6.646999835968018,-118.15499877929688 -34.67399978637695,-115.43399810791016 -38.284000396728516,-77.84700012207031z"/></g><g opacity="1" transform="matrix(1,0,0,1,156.5489959716797,301.6189880371094)"><path fill="url(#__lottie_element_52573)" fill-opacity="1" d=" M41.58700180053711,-72.16699981689453 C41.58700180053711,-72.16699981689453 58.944000244140625,102.97799682617188 -8.336000442504883,104.6259994506836 C-65.01899719238281,106.01399993896484 -44.520999908447266,-63.31399917602539 -8.583000183105469,-93.57099914550781 C13.913999557495117,-112.51100158691406 40.41899871826172,-108.23100280761719 41.58700180053711,-72.16699981689453z"/></g><g opacity="1" transform="matrix(1,0,0,1,256.4129943847656,200.84300231933594)"><path fill="url(#__lottie_element_52574)" fill-opacity="1" d=" M-20.700000762939453,-31.964000701904297 C-5.208000183105469,-12.246999740600586 9.798999786376953,37.573001861572266 18.777000427246094,34.84400177001953 C24.295000076293945,33.16699981689453 19.573999404907227,-16.68400001525879 8.347000122070312,-30.972999572753906 C5.441999912261963,-34.66999816894531 -24.829999923706055,-37.22100067138672 -20.700000762939453,-31.964000701904297z"/></g><g opacity="1" transform="matrix(1,0,0,1,306.7510070800781,204.8509979248047)"><path fill="url(#__lottie_element_52575)" fill-opacity="1" d=" M-27.864999771118164,-33.86000061035156 C15.836999893188477,-7.7179999351501465 18.874000549316406,40.034000396728516 27.851999282836914,37.30500030517578 C33.369998931884766,35.62799835205078 21.142000198364258,-10.133999824523926 -4.890999794006348,-30.163000106811523 C-19.163999557495117,-41.14500045776367 -33.60200119018555,-37.29199981689453 -27.864999771118164,-33.86000061035156z"/></g><g opacity="1" transform="matrix(1,0,0,1,362.28900146484375,295.9010009765625)"><path fill="url(#__lottie_element_52576)" fill-opacity="1" d=" M-9.333000183105469,-63.207000732421875 C30.011999130249023,22.17300033569336 1.5219999551773071,98.04399871826172 10.472000122070312,100.86299896240234 C21.650999069213867,104.38400268554688 38.08100128173828,19.19499969482422 17.60099983215332,-37.505001068115234 C6.951000213623047,-66.99199676513672 -21.18899917602539,-98.90499877929688 -26.90999984741211,-100.92900085449219 C-29.549999237060547,-101.86299896240234 -19.861000061035156,-86.0530014038086 -9.333000183105469,-63.207000732421875z"/></g><g opacity="1" transform="matrix(1,0,0,1,322.9570007324219,283.2040100097656)"><path fill="url(#__lottie_element_52577)" fill-opacity="1" d=" M-2.744999885559082,-61.249000549316406 C31.05299949645996,15.0649995803833 4.14900016784668,107.30699920654297 13.098999977111816,110.1259994506836 C24.277999877929688,113.64700317382812 42.92100143432617,12.3149995803833 22.340999603271484,-44.3489990234375 C8.234999656677246,-83.18900299072266 -22.691999435424805,-110.4990005493164 -30.875,-110.21399688720703 C-35.441001892089844,-110.05500030517578 -16.886999130249023,-93.18099975585938 -2.744999885559082,-61.249000549316406z"/></g><g opacity="1" transform="matrix(1,0,0,1,207.468994140625,206.9510040283203)"><path fill="url(#__lottie_element_52578)" fill-opacity="1" d=" M1.968999981880188,-35.56399917602539 C1.968999981880188,-35.56399917602539 -19.594999313354492,40.44200134277344 -15.062000274658203,40.486000061035156 C-9.295000076293945,40.54199981689453 7.538000106811523,-18.770000457763672 15.305000305175781,-36.487998962402344 C18.121999740600586,-42.91299819946289 4.610000133514404,-40.845001220703125 1.968999981880188,-35.56399917602539z"/></g><g opacity="1" transform="matrix(1,0,0,1,252.1510009765625,310.6730041503906)"><path fill="url(#__lottie_element_52579)" fill-opacity="1" d=" M-43.987998962402344,-141.52999877929688 C-77.24400329589844,-132.91700744628906 -99.61699676513672,-117.41300201416016 -113.69999694824219,-101.56900024414062 C-127.78299713134766,-85.7249984741211 -133.06500244140625,-74.98600006103516 -134.2969970703125,-65.30400085449219 C-135.8090057373047,-53.42399978637695 -135.35400390625,-41.01100158691406 -140.10699462890625,-24.28700065612793 C-143.57699584960938,-12.076000213623047 -145.38800048828125,5.639999866485596 -146.0919952392578,23.243999481201172 C-146.79600524902344,40.847999572753906 -143.97900390625,57.83599853515625 -146.2239990234375,67.87000274658203 C-148.10800170898438,76.29299926757812 -153.52999877929688,82.30500030517578 -150.71299743652344,90.0510025024414 C-147.89599609375,97.7969970703125 -134.12100219726562,120.7699966430664 -91.87100219726562,131.68499755859375 C-49.62099838256836,142.60000610351562 6.443999767303467,145.10699462890625 51.02899932861328,142.9949951171875 C101.20099639892578,140.6179962158203 114.2969970703125,131.49099731445312 127.73899841308594,121.4739990234375 C139.13800048828125,112.9800033569336 151.7689971923828,101.40499877929688 151.5050048828125,90.84300231933594 C151.2790069580078,81.81999969482422 142.77699279785156,73.13300323486328 142.26199340820312,66.55000305175781 C141.07400512695312,51.367000579833984 143.71400451660156,33.93899917602539 141.73399353027344,5.156000137329102 C139.76800537109375,-23.41699981689453 132.49200439453125,-36.374000549316406 130.7760009765625,-49.10900115966797 C129.41200256347656,-59.23099899291992 130.99600219726562,-70.05799865722656 123.86599731445312,-83.3489990234375 C115.8759994506836,-98.24299621582031 96.58999633789062,-116.8270034790039 77.43499755859375,-126.34700012207031 C55.38600158691406,-137.30599975585938 43.23899841308594,-142.32200622558594 20.441999435424805,-143.11399841308594 C7.8520002365112305,-143.552001953125 -31.753000259399414,-144.69900512695312 -43.987998962402344,-141.52999877929688z"/></g><g opacity="1" transform="matrix(1,0,0,1,253.03799438476562,417.73699951171875)"><path fill="url(#__lottie_element_52580)" fill-opacity="1" d=" M-143.49099731445312,-59.37900161743164 C-144.11900329589844,-37.20600128173828 -152.3040008544922,-23.702999114990234 -149.48699951171875,-15.956999778747559 C-146.6699981689453,-8.211000442504883 -133.4239959716797,13.706000328063965 -91.17400360107422,24.621000289916992 C-48.92399978637695,35.5359992980957 9.255000114440918,37.51499938964844 53.84000015258789,35.40299987792969 C104.01200103759766,33.0260009765625 115.27899932861328,22.5310001373291 128.6820068359375,12.461000442504883 C166.21200561523438,-15.737000465393066 135.77499389648438,-26.488000869750977 137.197998046875,-48.847999572753906 C138.3560028076172,-67.04900360107422 58.86399841308594,-71.85700225830078 -0.5870000123977661,-74.6719970703125 C-60.03799819946289,-77.48699951171875 -142.66299438476562,-88.61199951171875 -143.49099731445312,-59.37900161743164z"/></g><g opacity="1" transform="matrix(1,0,0,1,252.1510009765625,310.6730041503906)"><path stroke-linecap="round" stroke-linejoin="round" fill-opacity="0" stroke="rgb(107,75,50)" stroke-opacity="1" stroke-width="8" d=" M-43.987998962402344,-141.52999877929688 C-77.24400329589844,-132.91700744628906 -99.61699676513672,-117.41300201416016 -113.69999694824219,-101.56900024414062 C-127.78299713134766,-85.7249984741211 -133.06500244140625,-74.98600006103516 -134.2969970703125,-65.30400085449219 C-135.8090057373047,-53.42399978637695 -135.35400390625,-41.01100158691406 -140.10699462890625,-24.28700065612793 C-143.57699584960938,-12.076000213623047 -145.38800048828125,5.639999866485596 -146.0919952392578,23.243999481201172 C-146.79600524902344,40.847999572753906 -143.97900390625,57.83599853515625 -146.2239990234375,67.87000274658203 C-148.10800170898438,76.29299926757812 -153.52999877929688,82.30500030517578 -150.71299743652344,90.0510025024414 C-147.89599609375,97.7969970703125 -134.12100219726562,120.7699966430664 -91.87100219726562,131.68499755859375 C-49.62099838256836,142.60000610351562 6.443999767303467,145.10699462890625 51.02899932861328,142.9949951171875 C101.20099639892578,140.6179962158203 114.2969970703125,131.49099731445312 127.73899841308594,121.4739990234375 C139.13800048828125,112.9800033569336 151.7689971923828,101.40499877929688 151.5050048828125,90.84300231933594 C151.2790069580078,81.81999969482422 142.77699279785156,73.13300323486328 142.26199340820312,66.55000305175781 C141.07400512695312,51.367000579833984 143.71400451660156,33.93899917602539 141.73399353027344,5.156000137329102 C139.76800537109375,-23.41699981689453 132.49200439453125,-36.374000549316406 130.7760009765625,-49.10900115966797 C129.41200256347656,-59.23099899291992 130.99600219726562,-70.05799865722656 123.86599731445312,-83.3489990234375 C115.8759994506836,-98.24299621582031 96.58999633789062,-116.8270034790039 77.43499755859375,-126.34700012207031 C55.38600158691406,-137.30599975585938 43.23899841308594,-142.32200622558594 20.441999435424805,-143.11399841308594 C7.8520002365112305,-143.552001953125 -31.753000259399414,-144.69900512695312 -43.987998962402344,-141.52999877929688z"/></g><g opacity="1" transform="matrix(1,0,0,1,251.6719970703125,320.3179931640625)"><path fill="rgb(66,57,58)" fill-opacity="1" d=" M64.49099731445312,38.15700149536133 C63.744998931884766,6.935999870300293 45.16899871826172,-8.105999946594238 8.246000289916992,-13.939000129699707 C8.246000289916992,-13.939000129699707 8.246000289916992,-64.3949966430664 8.246000289916992,-64.3949966430664 C35.69300079345703,-60.849998474121094 35.04800033569336,-39.74100112915039 35.04800033569336,-39.74100112915039 C35.04800033569336,-39.74100112915039 61.058998107910156,-39.74100112915039 61.058998107910156,-39.74100112915039 C61.058998107910156,-39.74100112915039 62.44900131225586,-83.01899719238281 8.246000289916992,-87.16500091552734 C8.246000289916992,-87.16500091552734 8.246000289916992,-102.85199737548828 8.246000289916992,-102.85199737548828 C8.246000289916992,-102.85199737548828 -6.804999828338623,-102.85199737548828 -6.804999828338623,-102.85199737548828 C-6.804999828338623,-102.85199737548828 -6.804999828338623,-87.31800079345703 -6.804999828338623,-87.31800079345703 C-45.57500076293945,-85.10399627685547 -60.762001037597656,-62.915000915527344 -60.762001037597656,-37.3650016784668 C-60.762001037597656,-8.137999534606934 -43.36800003051758,3.9010000228881836 -6.804999828338623,10.963000297546387 C-6.804999828338623,10.963000297546387 -6.804999828338623,65.28299713134766 -6.804999828338623,65.28299713134766 C-38.13999938964844,64.29900360107422 -38.051998138427734,39.30099868774414 -38.051998138427734,39.30099868774414 C-38.051998138427734,39.30099868774414 -64.45899963378906,39.30099868774414 -64.45899963378906,39.30099868774414 C-64.45899963378906,39.30099868774414 -68.42400360107422,85.76599884033203 -6.804999828338623,88.62899780273438 C-6.804999828338623,88.62899780273438 -6.804999828338623,102.85199737548828 -6.804999828338623,102.85199737548828 C-6.804999828338623,102.85199737548828 8.246000289916992,102.85199737548828 8.246000289916992,102.85199737548828 C8.246000289916992,102.85199737548828 8.246000289916992,88.49600219726562 8.246000289916992,88.49600219726562 C52.220001220703125,85.75900268554688 65.07499694824219,62.61199951171875 64.49099731445312,38.15700149536133z M-34.400001525878906,-40.797000885009766 C-34.400001525878906,-52.62099838256836 -26,-62.42100143432617 -6.804999828338623,-64.49700164794922 C-6.804999828338623,-64.49700164794922 -6.804999828338623,-16.315000534057617 -6.804999828338623,-16.315000534057617 C-22.75200080871582,-19.92300033569336 -34.400001525878906,-28.224000930786133 -34.400001525878906,-40.797000885009766z M8.246000289916992,65.48699951171875 C8.246000289916992,65.48699951171875 8.246000289916992,13.692999839782715 8.246000289916992,13.692999839782715 C31.187999725341797,18.499000549316406 37.99700164794922,27.20599937438965 37.99700164794922,39.2130012512207 C37.99700164794922,56.137001037597656 29.344999313354492,63.90299987792969 8.246000289916992,65.48699951171875z"/></g><g opacity="0" transform="matrix(1,0,0,1,0,20)"><path fill="url(#__lottie_element_52581)" fill-opacity="1" d=" M159.81900024414062,172.19700622558594 C156.78599548339844,173.6280059814453 142,191.125 142.93600463867188,198.80099487304688 C143.79200744628906,205.8209991455078 163.25,207.25 187.23399353027344,210.5279998779297 C211.21800231933594,213.80599975585938 255.9219970703125,215.39199829101562 282.2900085449219,208.22300720214844 C301.5,203 320.25,194.75 336.6929931640625,197.90899658203125 C360.70098876953125,202.52099609375 364.93798828125,202.31300354003906 353.8890075683594,183.45700073242188 C344.5989990234375,167.60299682617188 333.218994140625,180.95399475097656 252.58900451660156,175.00999450683594 C199.75,171.11500549316406 169.718994140625,167.52699279785156 159.81900024414062,172.19700622558594z"/></g></g><g style="display: block;" transform="matrix(1,0,0,1,0,0)" opacity="1"><g opacity="1" transform="matrix(1,0,0,1,248.38800048828125,109.08999633789062)"><path fill="url(#__lottie_element_52538)" fill-opacity="1" d=" M-43.56999969482422,55.827999114990234 C-43.56999969482422,55.827999114990234 -56.77299880981445,20.70800018310547 -66.54299926757812,3.5439999103546143 C-76.31300354003906,-13.619999885559082 -103.24800109863281,-40.81800079345703 -103.24800109863281,-40.81800079345703 C-103.24800109863281,-40.81800079345703 -76.31400299072266,-41.34600067138672 -72.88099670410156,-41.61000061035156 C-73.93699645996094,-44.51499938964844 -75.60900115966797,-48.91600036621094 -66.98300170898438,-48.7400016784668 C-58.356998443603516,-48.56399917602539 -15.932000160217285,-47.332000732421875 -5.017000198364258,-48.21200180053711 C5.8979997634887695,-49.09199905395508 2.552000045776367,-54.37300109863281 14.52299976348877,-57.54199981689453 C26.493999481201172,-60.71099853515625 54.48500061035156,-60.18199920654297 63.111000061035156,-55.42900085449219 C71.73699951171875,-50.67599868774414 67.15899658203125,-46.45199966430664 67.33499908447266,-43.45899963378906 C67.51100158691406,-40.465999603271484 99.5510025024414,-44.16299819946289 103.24800109863281,-43.98699951171875 C100.78299713134766,-37.472999572753906 77.89800262451172,-17.40399932861328 66.98300170898438,5.833000183105469 C56.06800079345703,29.06999969482422 47.819000244140625,55.04499816894531 44.994998931884766,57.39799880981445 C39.7140007019043,61.79899978637695 -39.696998596191406,58.46900177001953 -43.56999969482422,55.827999114990234z"/></g><g opacity="1" transform="matrix(1,0,0,1,210.64700317382812,114.43399810791016)"><path fill="url(#__lottie_element_52539)" fill-opacity="1" d=" M-34.79800033569336,-45.78200149536133 C-8.62600040435791,-6.8379998207092285 6.47599983215332,51.279998779296875 10.163000106811523,52.37099838256836 C15.04800033569336,53.81700134277344 32.89400100708008,56.854000091552734 34.6510009765625,46.395999908447266 C39.60100173950195,16.929000854492188 40.20399856567383,-57.00899887084961 -24.753999710083008,-53.81999969482422 C-31.340999603271484,-53.49700164794922 -40.61399841308594,-54.43600082397461 -34.79800033569336,-45.78200149536133z"/></g><g opacity="1" transform="matrix(1,0,0,1,279.46600341796875,108.11199951171875)"><path fill="url(#__lottie_element_52540)" mask="url(#__lottie_element_52542)" fill-opacity="1" d="M0 0 M36.91699981689453,-48.55400085449219 C33.0880012512207,-24.788999557495117 14.515999794006348,57.07099914550781 6.418000221252441,57.73099899291992 C-5.113999843597412,58.67100143432617 -20.871000289916992,59.400001525878906 -29.763999938964844,58.20800018310547 C-35.55699920654297,57.430999755859375 -43.215999603271484,-17.445999145507812 -28.07900047302246,-49.40399932861328 C-19.832000732421875,-63.70899963378906 37.499000549316406,-60.34700012207031 36.91699981689453,-48.55400085449219z"/></g><g opacity="1" transform="matrix(1,0,0,1,301.39898681640625,109.5780029296875)"><path fill="url(#__lottie_element_52543)" fill-opacity="1" d=" M15.166000366210938,-47.362998962402344 C8.63700008392334,-30.65399932861328 -7.328999996185303,59.96099853515625 -13.666000366210938,57.98099899291992 C-19.04400062561035,56.29999923706055 -12.335000038146973,-25.729999542236328 1.0549999475479126,-57.21500015258789 C2.2760000228881836,-60.08700180053711 18.086999893188477,-54.8390007019043 15.166000366210938,-47.362998962402344z"/></g><g opacity="1" transform="matrix(1,0,0,1,236.9929962158203,109.38700103759766)"><path fill="url(#__lottie_element_52544)" fill-opacity="1" d=" M9.435999870300293,-48.861000061035156 C3.0769999027252197,-47.816001892089844 -23.687000274658203,-48.31100082397461 -26.013999938964844,-48.244998931884766 C-20.649999618530273,-13.37600040435791 -14.625,56.70199966430664 11.482000350952148,57.29199981689453 C23.815000534057617,57.57099914550781 28.79400062561035,-23.812000274658203 24.496000289916992,-57.29199981689453 C17.216999053955078,-55.72200012207031 14.937000274658203,-49.96099853515625 9.435999870300293,-48.861000061035156z"/></g><g opacity="1" transform="matrix(1,0,0,1,176.86900329589844,116.87200164794922)"><path fill="url(#__lottie_element_52545)" fill-opacity="1" d=" M-31.729000091552734,-48.599998474121094 C8.204999923706055,-8.666000366210938 15.458000183105469,15.868000030517578 28.969999313354492,48.91899871826172 C40.19300079345703,50.37099838256836 14.812000274658203,-43.935001373291016 -4.71999979019165,-48.91400146484375 C-5.10699987411499,-49.01300048828125 -26.427000045776367,-48.74399948120117 -31.729000091552734,-48.599998474121094z"/></g><g opacity="1" transform="matrix(1,0,0,1,322.3760070800781,115.41899871826172)"><path fill="url(#__lottie_element_52546)" fill-opacity="1" d=" M29.259000778198242,-50.316001892089844 C24.57200050354004,-38.96099853515625 -2.0320000648498535,-22.457000732421875 -17.809999465942383,25.93199920654297 C-20.43000030517578,33.96799850463867 -26.170000076293945,46.941001892089844 -28.613000869750977,50.30799865722656 C-32.03900146484375,51.19599914550781 -21.417999267578125,-23.062999725341797 -6.982999801635742,-50.084999084472656 C-6.702000141143799,-47.88999938964844 5.449999809265137,-48.24800109863281 29.259000778198242,-50.316001892089844z"/></g><g opacity="1" transform="matrix(1,0,0,1,322.5060119628906,116.06800079345703)"><path fill="url(#__lottie_element_52547)" fill-opacity="1" d=" M29.1299991607666,-50.96500015258789 C25.905000686645508,-45.029998779296875 12.661999702453613,-31.583999633789062 0.17100000381469727,-13.116000175476074 C-12.152000427246094,5.104000091552734 -19.104999542236328,30.277999877929688 -28.604999542236328,50.91699981689453 C-33.540000915527344,53.500999450683594 -2.4630000591278076,-48.17499923706055 12.984000205993652,-50.472999572753906 C14.409000396728516,-50.685001373291016 23.506999969482422,-50.5359992980957 29.1299991607666,-50.96500015258789z"/></g><g opacity="1" transform="matrix(1,0,0,1,302.6809997558594,115.35099792480469)"><path stroke-linecap="round" stroke-linejoin="round" fill-opacity="0" stroke="rgb(142,98,30)" stroke-opacity="1" stroke-width="6" d=" M13.020999908447266,-50.84000015258789 C13.020999908447266,-50.84000015258789 -5.617000102996826,1.819000005722046 -13.020999908447266,50.84000015258789"/></g><g opacity="1" transform="matrix(1,0,0,1,196.6199951171875,116.9229965209961)"><path stroke-linecap="round" stroke-linejoin="round" fill-opacity="0" stroke="rgb(142,98,30)" stroke-opacity="1" stroke-width="6" d=" M-20.402000427246094,-48.24700164794922 C-20.402000427246094,-48.24700164794922 9.678999900817871,-1.0299999713897705 20.402000427246094,48.24700164794922"/></g><g opacity="1" transform="matrix(1,0,0,1,248.38800048828125,109.08999633789062)"><path stroke-linecap="round" stroke-linejoin="round" fill-opacity="0" stroke="rgb(124,90,6)" stroke-opacity="1" stroke-width="8" d=" M-43.56999969482422,55.827999114990234 C-43.56999969482422,55.827999114990234 -56.77299880981445,20.70800018310547 -66.54299926757812,3.5439999103546143 C-76.31300354003906,-13.619999885559082 -103.24800109863281,-40.81800079345703 -103.24800109863281,-40.81800079345703 C-103.24800109863281,-40.81800079345703 -76.31400299072266,-41.34600067138672 -72.88099670410156,-41.61000061035156 C-73.93699645996094,-44.51499938964844 -75.60900115966797,-48.91600036621094 -66.98300170898438,-48.7400016784668 C-58.356998443603516,-48.56399917602539 -15.932000160217285,-47.332000732421875 -5.017000198364258,-48.21200180053711 C5.8979997634887695,-49.09199905395508 2.552000045776367,-54.37300109863281 14.52299976348877,-57.54199981689453 C26.493999481201172,-60.71099853515625 54.48500061035156,-60.18199920654297 63.111000061035156,-55.42900085449219 C71.73699951171875,-50.67599868774414 67.15899658203125,-46.45199966430664 67.33499908447266,-43.45899963378906 C67.51100158691406,-40.465999603271484 99.5510025024414,-44.16299819946289 103.24800109863281,-43.98699951171875 C100.78299713134766,-37.472999572753906 77.89800262451172,-17.40399932861328 66.98300170898438,5.833000183105469 C56.06800079345703,29.06999969482422 47.819000244140625,55.04499816894531 44.994998931884766,57.39799880981445 C39.7140007019043,61.79899978637695 -39.696998596191406,58.46900177001953 -43.56999969482422,55.827999114990234z"/></g></g><g style="display: block;" transform="matrix(1,0,0,1,249.26199340820312,167.531005859375)" opacity="1"><g opacity="1" transform="matrix(1,0,0,1,0,0)"><path stroke-linecap="round" stroke-linejoin="round" fill-opacity="0" stroke="rgb(41,30,25)" stroke-opacity="1" stroke-width="12" d=" M-42.91600036621094,0.6069999933242798 C-24.67799949645996,-2.056999921798706 19.031999588012695,-2.819000005722046 42.91600036621094,1.5579999685287476"/></g></g></g></svg>