<svg xmlns="http://www.w3.org/2000/svg" xmlns:xlink="http://www.w3.org/1999/xlink" viewBox="0 0 512 512" width="512" height="512" style="width: 100%; height: 100%; transform: translate3d(0,0,0);" preserveAspectRatio="xMidYMid meet"><defs><clipPath id="__lottie_element_8134"><rect width="512" height="512" x="0" y="0"/></clipPath></defs><g clip-path="url(#__lottie_element_8134)"><g style="display: block;" transform="matrix(1,0,0,1,2,-4.399993896484375)" opacity="1"><g opacity="1" transform="matrix(1,0,0,1,204.88400268554688,151.8040008544922)"><path fill="rgb(252,206,44)" fill-opacity="1" d=" M52.8390007019043,34.435001373291016 C64.71700286865234,13.847000122070312 69.03099822998047,-27.048999786376953 57.34700012207031,-57.59199905395508 C43.755001068115234,-93.1240005493164 3.921999931335449,-103.55799865722656 -9.494000434875488,-82.68199920654297 C-12.934000015258789,-77.3280029296875 -14.284000396728516,-72.54900360107422 -8.612000465393066,-45.970001220703125 C4.888000011444092,17.291000366210938 -18.917999267578125,65.70099639892578 -64.23200225830078,93.36399841308594"/></g><g opacity="1" transform="matrix(1,0,0,1,0,0)"><path fill="rgb(255,215,93)" fill-opacity="1" d=" M202.41600036621094,62.066001892089844 C182.25,68.1500015258789 193.1009979248047,90.64800262451172 195.75399780273438,108.47899627685547 C198.7740020751953,128.7740020751953 202.5,172.39999389648438 178.75999450683594,208.62899780273438 C169.61300659179688,222.58700561523438 167.77000427246094,225.04600524902344 179.42300415039062,207.18099975585938 C192,187.89999389648438 202.75,160.64999389648438 196.4149932861328,106.49800109863281 C193.8820037841797,84.84500122070312 182.25,69.4000015258789 202.41600036621094,62.066001892089844z"/></g></g><g style="display: block;" transform="matrix(1,0,0,1,253.6529998779297,257.0789794921875)" opacity="1"><g opacity="1" transform="matrix(1,0,0,1,0,0)"><path fill="rgb(252,206,44)" fill-opacity="1" d=" M-203.5679931640625,73.1259994506836 C-204.7760009765625,23.5049991607666 -195.75900268554688,-14.439000129699707 -178.25599670410156,-18.229999542236328 C-164.87399291992188,-21.128999710083008 -141.5970001220703,-12.70199966430664 -116.57599639892578,-15.611000061035156 C-91.65299987792969,-7.979000091552734 -82.65299987792969,132.52099609375 -97.86100006103516,139.67100524902344 C-109.53900146484375,142.40699768066406 -139.38600158691406,157.87100219726562 -154.86700439453125,157.78700256347656 C-163.52099609375,157.74099731445312 -202.33700561523438,123.7300033569336 -203.5679931640625,73.1259994506836z"/></g></g><g style="display: block;" transform="matrix(1,0,0,1,0,-4.399993896484375)" opacity="1"><g opacity="0.5" transform="matrix(1,0,0,1,250.61900329589844,381.57501220703125)"><path fill="rgb(240,146,1)" fill-opacity="1" d=" M-106.76899719238281,8.043000221252441 C-114.93900299072266,10.753999710083008 -137.7740020751953,17.229999542236328 -146.552001953125,19.944000244140625 C-155.86900329589844,22.825000762939453 -166.36900329589844,23.825000762939453 -172.43800354003906,21.836000442504883 C-165.61900329589844,29.825000762939453 -159.11900329589844,35.32500076293945 -151.71200561523438,36.72800064086914 C-143.197998046875,38.340999603271484 -110.55799865722656,26.631999969482422 -95.60900115966797,19.514999389648438 C-89.11900329589844,16.424999237060547 -96.61900329589844,4.675000190734863 -106.76899719238281,8.043000221252441z"/></g><g opacity="0.4" transform="matrix(1,0,0,1,250.61900329589844,381.57501220703125)"><path fill="rgb(240,146,1)" fill-opacity="1" d=" M-108.76899719238281,4.293000221252441 C-116.93900299072266,7.004000186920166 -139.55799865722656,13.817999839782715 -148.552001953125,15.694000244140625 C-156.36900329589844,17.325000762939453 -169.61900329589844,19.825000762939453 -175.68800354003906,17.836000442504883 C-168.86900329589844,25.825000762939453 -159.11900329589844,35.32500076293945 -151.71200561523438,36.72800064086914 C-143.197998046875,38.340999603271484 -110.55799865722656,26.631999969482422 -95.60900115966797,19.514999389648438 C-89.11900329589844,16.424999237060547 -98.61900329589844,0.925000011920929 -108.76899719238281,4.293000221252441z"/></g><g opacity="0.4" transform="matrix(1,0,0,1,250.61900329589844,381.57501220703125)"><path fill="rgb(240,146,1)" fill-opacity="1" d=" M-111.76899719238281,0.0430000014603138 C-119.93900299072266,2.753999948501587 -141.30799865722656,9.317999839782715 -150.302001953125,11.194000244140625 C-158.11900329589844,12.824999809265137 -172.11900329589844,15.824999809265137 -178.18800354003906,13.836000442504883 C-171.36900329589844,21.825000762939453 -159.11900329589844,35.32500076293945 -151.71200561523438,36.72800064086914 C-143.197998046875,38.340999603271484 -110.55799865722656,26.631999969482422 -95.60900115966797,19.514999389648438 C-89.11900329589844,16.424999237060547 -101.61900329589844,-3.325000047683716 -111.76899719238281,0.0430000014603138z"/></g><g opacity="0.3" transform="matrix(1,0,0,1,250.61900329589844,381.57501220703125)"><path fill="rgb(240,146,1)" fill-opacity="1" d=" M-113.01899719238281,-5.206999778747559 C-121.18900299072266,-2.496000051498413 -143.62100219726562,4.285999774932861 -152.552001953125,6.443999767303467 C-161.36900329589844,8.574999809265137 -175.36900329589844,10.574999809265137 -182.43800354003906,9.586000442504883 C-178.61900329589844,17.575000762939453 -159.11900329589844,35.32500076293945 -151.71200561523438,36.72800064086914 C-143.197998046875,38.340999603271484 -110.55799865722656,26.631999969482422 -95.60900115966797,19.514999389648438 C-89.11900329589844,16.424999237060547 -102.86900329589844,-8.574999809265137 -113.01899719238281,-5.206999778747559z"/></g><g opacity="0.3" transform="matrix(1,0,0,1,250.61900329589844,381.57501220703125)"><path fill="rgb(240,146,1)" fill-opacity="1" d=" M-117.26899719238281,-9.456999778747559 C-125.43900299072266,-6.745999813079834 -145.87100219726562,-0.9639999866485596 -154.802001953125,1.194000005722046 C-163.61900329589844,3.325000047683716 -177.36900329589844,5.574999809265137 -184.43800354003906,4.585999965667725 C-180.61900329589844,12.574999809265137 -159.11900329589844,35.32500076293945 -151.71200561523438,36.72800064086914 C-143.197998046875,38.340999603271484 -110.55799865722656,26.631999969482422 -95.60900115966797,19.514999389648438 C-89.11900329589844,16.424999237060547 -107.11900329589844,-12.824999809265137 -117.26899719238281,-9.456999778747559z"/></g><g opacity="0.15" transform="matrix(1,0,0,1,250.61900329589844,381.57501220703125)"><path fill="rgb(240,146,1)" fill-opacity="1" d=" M-116.76899719238281,-15.456999778747559 C-124.93900299072266,-12.746000289916992 -147.48899841308594,-5.311999797821045 -156.552001953125,-3.805999994277954 C-166.36900329589844,-2.174999952316284 -182.86900329589844,0.824999988079071 -188.93800354003906,-2.1640000343322754 C-181.8249969482422,16.951000213623047 -166.1750030517578,30.95599937438965 -151.71200561523438,36.72800064086914 C-143.66400146484375,39.939998626708984 -110.55799865722656,26.631999969482422 -95.60900115966797,19.514999389648438 C-89.11900329589844,16.424999237060547 -110.11900329589844,-6.425000190734863 -116.76899719238281,-15.456999778747559z"/></g><g opacity="0.15" transform="matrix(1,0,0,1,250.61900329589844,381.57501220703125)"><path fill="rgb(240,146,1)" fill-opacity="1" d=" M-121.26899719238281,-19.707000732421875 C-129.43899536132812,-16.996000289916992 -149.48899841308594,-10.562000274658203 -158.552001953125,-9.055999755859375 C-168.36900329589844,-7.425000190734863 -185.36900329589844,-5.675000190734863 -191.43800354003906,-8.663999557495117 C-184.3249969482422,10.451000213623047 -166.1750030517578,30.95599937438965 -151.71200561523438,36.72800064086914 C-143.66400146484375,39.939998626708984 -110.55799865722656,26.631999969482422 -95.60900115966797,19.514999389648438 C-89.11900329589844,16.424999237060547 -114.61900329589844,-10.675000190734863 -121.26899719238281,-19.707000732421875z"/></g><g opacity="0.1" transform="matrix(1,0,0,1,250.61900329589844,381.57501220703125)"><path fill="rgb(240,146,1)" fill-opacity="1" d=" M-124.26899719238281,-25.957000732421875 C-131.11900329589844,-22.424999237060547 -151.36900329589844,-17.174999237060547 -160.552001953125,-15.555999755859375 C-170.35299682617188,-13.82800006866455 -190.11900329589844,-9.675000190734863 -195.93800354003906,-19.913999557495117 C-187.61900329589844,10.574999809265137 -165.6219940185547,32.75400161743164 -151.71200561523438,36.72800064086914 C-143.3800048828125,39.10900115966797 -110.55799865722656,26.631999969482422 -95.60900115966797,19.514999389648438 C-89.11900329589844,16.424999237060547 -118.36900329589844,-16.674999237060547 -124.26899719238281,-25.957000732421875z"/></g><g opacity="0.1" transform="matrix(1,0,0,1,250.61900329589844,381.57501220703125)"><path fill="rgb(240,146,1)" fill-opacity="1" d=" M-126.26899719238281,-30.957000732421875 C-134.43899536132812,-28.246000289916992 -153.48899841308594,-22.812000274658203 -162.552001953125,-21.305999755859375 C-172.36900329589844,-19.674999237060547 -192.61900329589844,-17.674999237060547 -198.43800354003906,-27.913999557495117 C-190.11900329589844,2.575000047683716 -165.6219940185547,32.75400161743164 -151.71200561523438,36.72800064086914 C-143.3800048828125,39.10900115966797 -110.55799865722656,26.631999969482422 -95.60900115966797,19.514999389648438 C-89.11900329589844,16.424999237060547 -122.61900329589844,-18.674999237060547 -126.26899719238281,-30.957000732421875z"/></g></g><g style="display: block;" transform="matrix(1,0,0,1,253.6529998779297,257.0789794921875)" opacity="1"><g opacity="1" transform="matrix(1,0,0,1,0,0)"><path fill="rgb(252,206,44)" fill-opacity="1" d=" M-113.57599639892578,-15.111000061035156 C-92.51499938964844,-25.5049991607666 -56.26300048828125,-53.768001556396484 -18.624000549316406,-67.4990005493164 C23.81100082397461,-82.9800033569336 64.19400024414062,-81.87899780273438 74.14299774169922,-81.58899688720703 C92.83799743652344,-81.04499816894531 121.60299682617188,-68.19100189208984 152.01100158691406,-47.10100173950195 C175.5500030517578,-30.774999618530273 156.33799743652344,9.486000061035156 134.79400634765625,5.764999866485596 C169.64100646972656,14.081000328063965 170.27499389648438,69.19400024414062 132.9459991455078,71.10299682617188 C146.6820068359375,78.03500366210938 149.98899841308594,92.68099975585938 149.6230010986328,104.21299743652344 C149.13400268554688,119.58599853515625 139.20799255371094,126.68800354003906 122.3030014038086,129.2239990234375 C84.34700012207031,143.92100524902344 25.31100082397461,163.3459930419922 15.168000221252441,163.73800659179688 C-30.763999938964844,165.51600646972656 -74.72100067138672,150.60299682617188 -97.86100006103516,139.67100524902344 C-129.4029998779297,117.9209976196289 -158.6529998779297,36.42100143432617 -113.57599639892578,-15.111000061035156z"/></g></g><g style="display: block;" transform="matrix(1,0,0,1,0,-4.399993896484375)" opacity="1"><g opacity="1" transform="matrix(1,0,0,1,325.7569885253906,223.16900634765625)"><path fill="rgb(252,206,44)" fill-opacity="1" d=" M-90.70700073242188,-29.243999481201172 C-68.18599700927734,-38.47100067138672 -51.733001708984375,-39.095001220703125 -32.814998626708984,-41.58000183105469 C-10.592000007629395,-44.499000549316406 0.8059999942779541,-44.222999572753906 12.170000076293945,-42.15399932861328 C28.29599952697754,-39.21699905395508 54.86800003051758,-24.525999069213867 69.69999694824219,-16.118999481201172 C88.68699645996094,-5.355999946594238 93.9739990234375,10.465999603271484 88.87899780273438,24.55900001525879 C83.93800354003906,38.22700119018555 70.09700012207031,46.89899826049805 59.16400146484375,42.65599822998047"/></g><g opacity="1" transform="matrix(1,0,0,1,381.4750061035156,290.65301513671875)"><path fill="rgb(252,206,44)" fill-opacity="1" d=" M-32.66600036621094,-41.22100067138672 C-27.23699951171875,-33.93000030517578 -18.233999252319336,-32.65700149536133 -9.708000183105469,-29.586000442504883 C8.114999771118164,-23.167999267578125 32.32699966430664,-17.308000564575195 32.66299819946289,10.081999778747559 C32.91600036621094,30.670000076293945 19.69300079345703,44.56700134277344 3.250999927520752,40.52000045776367"/></g><g opacity="1" transform="matrix(1,0,0,1,372.343994140625,352.6109924316406)"><path fill="rgb(252,206,44)" fill-opacity="1" d=" M-30.704999923706055,-38.426998138427734 C-26.624000549316406,-33.65800094604492 -24.058000564575195,-32.553001403808594 -13.854999542236328,-29.461000442504883 C-5.501999855041504,-26.93000030517578 0.23199999332427979,-25.90399932861328 11.208000183105469,-21.76799964904785 C24.118999481201172,-16.902999877929688 33.0629997253418,-2.0280001163482666 30.152999877929688,14.355999946594238 C26.795000076293945,33.25699996948242 14.699999809265137,39.915000915527344 -0.7300000190734863,38.15399932861328"/></g><g opacity="1" transform="matrix(1,0,0,1,301.6669921875,419.48199462890625)"><path fill="rgb(252,206,44)" fill-opacity="1" d=" M-155.07899475097656,-25.562999725341797 C-150.11300659179688,-20.29400062561035 -128.72799682617188,-10.864999771118164 -107.85700225830078,-4.547999858856201 C-72.42500305175781,6.173999786376953 -43,3.993000030517578 -31.851999282836914,5.3429999351501465 C-7.001999855041504,9.277000427246094 20.170000076293945,17.601999282836914 54.4640007019043,27.284000396728516 C76.16699981689453,33.4119987487793 109.30699920654297,41.237998962402344 124.90299987792969,43.84400177001953 C156.40199279785156,49.10599899291992 168.96800231933594,2.8450000286102295 134.2790069580078,-9.937000274658203 C117.10199737548828,-16.266000747680664 71.66100311279297,-27.73699951171875 40.70000076293945,-36.39899826049805 C32.084999084472656,-38.810001373291016 27.225000381469727,-41.05099868774414 24.33799934387207,-44.2599983215332"/></g></g><g style="display: block;" transform="matrix(1,0,0,1,360.7510070800781,281.67498779296875)" opacity="0.5"><g opacity="1" transform="matrix(1,0,0,1,0,0)"><path fill="rgb(240,146,1)" fill-opacity="1" d=" M-26.812999725341797,-106.04399871826172 C-26.18600082397461,-97.02799987792969 -6.053999900817871,-96.57099914550781 -13.407999992370605,-68.50399780273438 C-17.172000885009766,-54.13800048828125 -25.093000411987305,-58.44499969482422 -28.944000244140625,-45.11399841308594 C-33.70500183105469,-28.632999420166016 -20.458999633789062,-25.191999435424805 -24.915000915527344,-6.6579999923706055 C-29.86199951171875,13.918000221252441 -38.37200164794922,8.72700023651123 -41.395999908447266,19.16200065612793 C-45.058998107910156,31.797000885009766 -30.934999465942383,34.595001220703125 -35.5359992980957,55.60300064086914 C-39.74800109863281,74.83100128173828 -50.027000427246094,66.35099792480469 -55.483001708984375,82.28199768066406 C-63.12200164794922,104.77999877929688 -18.73699951171875,98.99700164794922 12.767000198364258,105.47699737548828 C44.834999084472656,112.0719985961914 54.249000549316406,58.67499923706055 26.481000900268555,46.66600036621094 C64.2490005493164,46.42499923706055 61.749000549316406,-8.574999809265137 28.687000274658203,-18.136999130249023 C55.249000549316406,-19.075000762939453 64.7490005493164,-52.57500076293945 46.84000015258789,-69.5719985961914 C30.749000549316406,-84.84300231933594 -2.000999927520752,-100.32499694824219 -26.812999725341797,-106.04399871826172z"/></g><g opacity="0.5" transform="matrix(1,0,0,1,0,0)"><path fill="rgb(240,146,1)" fill-opacity="1" d=" M-26.812999725341797,-106.04399871826172 C-26.18600082397461,-97.02799987792969 -8.553999900817871,-97.57099914550781 -15.907999992370605,-69.50399780273438 C-19.672000885009766,-55.13800048828125 -27.593000411987305,-58.94499969482422 -31.444000244140625,-45.61399841308594 C-36.20500183105469,-29.132999420166016 -22.458999633789062,-25.691999435424805 -26.915000915527344,-7.1579999923706055 C-31.86199951171875,13.418000221252441 -41.37200164794922,7.9770002365112305 -44.395999908447266,18.41200065612793 C-48.058998107910156,31.047000885009766 -33.685001373291016,33.345001220703125 -38.2859992980957,54.35300064086914 C-42.49800109863281,73.58100128173828 -53.527000427246094,64.85099792480469 -58.983001708984375,80.78199768066406 C-66.62200164794922,103.27999877929688 -18.73699951171875,98.99700164794922 12.767000198364258,105.47699737548828 C44.834999084472656,112.0719985961914 54.249000549316406,58.67499923706055 26.481000900268555,46.66600036621094 C64.2490005493164,46.42499923706055 61.749000549316406,-8.574999809265137 28.687000274658203,-18.136999130249023 C55.249000549316406,-19.075000762939453 64.7490005493164,-52.57500076293945 46.84000015258789,-69.5719985961914 C30.749000549316406,-84.84300231933594 -2.000999927520752,-100.32499694824219 -26.812999725341797,-106.04399871826172z"/></g><g opacity="0.4" transform="matrix(1,0,0,1,0,0)"><path fill="rgb(240,146,1)" fill-opacity="1" d=" M-26.812999725341797,-106.04399871826172 C-26.18600082397461,-97.02799987792969 -11.303999900817871,-98.82099914550781 -18.658000946044922,-70.75399780273438 C-22.422000885009766,-56.38800048828125 -29.843000411987305,-59.44499969482422 -33.694000244140625,-46.11399841308594 C-38.45500183105469,-29.632999420166016 -24.958999633789062,-26.691999435424805 -29.415000915527344,-8.157999992370605 C-34.36199951171875,12.418000221252441 -44.12200164794922,7.7270002365112305 -47.145999908447266,18.16200065612793 C-50.808998107910156,30.797000885009766 -36.435001373291016,32.595001220703125 -41.0359992980957,53.60300064086914 C-45.24800109863281,72.83100128173828 -56.527000427246094,64.10099792480469 -61.983001708984375,80.03199768066406 C-69.62200164794922,102.52999877929688 -18.73699951171875,98.99700164794922 12.767000198364258,105.47699737548828 C44.834999084472656,112.0719985961914 54.249000549316406,58.67499923706055 26.481000900268555,46.66600036621094 C64.2490005493164,46.42499923706055 61.749000549316406,-8.574999809265137 28.687000274658203,-18.136999130249023 C55.249000549316406,-19.075000762939453 64.7490005493164,-52.57500076293945 46.84000015258789,-69.5719985961914 C30.749000549316406,-84.84300231933594 -2.000999927520752,-100.32499694824219 -26.812999725341797,-106.04399871826172z"/></g><g opacity="0.2" transform="matrix(1,0,0,1,0,0)"><path fill="rgb(240,146,1)" fill-opacity="1" d=" M-26.812999725341797,-106.04399871826172 C-26.18600082397461,-97.02799987792969 -13.178999900817871,-99.19599914550781 -20.533000946044922,-71.12899780273438 C-24.297000885009766,-56.76300048828125 -31.843000411987305,-60.06999969482422 -35.694000244140625,-46.73899841308594 C-40.45500183105469,-30.257999420166016 -26.708999633789062,-27.191999435424805 -31.165000915527344,-8.657999992370605 C-36.11199951171875,11.918000221252441 -46.37200164794922,6.9770002365112305 -49.395999908447266,17.41200065612793 C-53.058998107910156,30.047000885009766 -38.560001373291016,32.095001220703125 -43.1609992980957,53.10300064086914 C-47.37300109863281,72.33100128173828 -59.402000427246094,63.10100173950195 -64.85800170898438,79.03199768066406 C-72.3759994506836,103.19999694824219 -18.73699951171875,98.99700164794922 12.767000198364258,105.47699737548828 C44.834999084472656,112.0719985961914 54.249000549316406,58.67499923706055 26.481000900268555,46.66600036621094 C64.2490005493164,46.42499923706055 61.749000549316406,-8.574999809265137 28.687000274658203,-18.136999130249023 C55.249000549316406,-19.075000762939453 64.7490005493164,-52.57500076293945 46.84000015258789,-69.5719985961914 C30.749000549316406,-84.84300231933594 -2.000999927520752,-100.32499694824219 -26.812999725341797,-106.04399871826172z"/></g></g><g style="display: block;" transform="matrix(1,0,0,1,0,-4.399993896484375)" opacity="1"><g opacity="1" transform="matrix(1,0,0,1,324.0159912109375,218.86000061035156)"><path fill="rgb(255,215,93)" fill-opacity="1" d=" M-92.17500305175781,-24.128999710083008 C-76.41899871826172,-29.958999633789062 -27.052000045776367,-43.24800109863281 13.503999710083008,-38.172000885009766 C34.43600082397461,-35.551998138427734 83.17500305175781,-7.290999889373779 88.7969970703125,4.248000144958496 C95.80999755859375,18.642000198364258 91.56199645996094,35.49599838256836 79.18900299072266,39.30400085449219 C87.59700012207031,27.881999969482422 86.96199798583984,13.286999702453613 75.90899658203125,4.541999816894531 C60.40299987792969,-7.7270002365112305 24.138999938964844,-25.458999633789062 12.638999938964844,-27.57900047302246 C-9.729999542236328,-31.704999923706055 -39.1879997253418,-25.597999572753906 -64.34200286865234,-21.714000701904297 C-80.63099670410156,-19.200000762939453 -91.64099884033203,-20.165000915527344 -92.17500305175781,-24.128999710083008z"/></g><g opacity="1" transform="matrix(1,0,0,1,379.74700927734375,286.2850036621094)"><path fill="rgb(255,215,93)" fill-opacity="1" d=" M-21.72599983215332,-29.937999725341797 C-11.442000389099121,-24.04800033569336 17.43000030517578,-18.535999298095703 28.788000106811523,-3.3380000591278076 C39.02899932861328,10.364999771118164 38.40399932861328,46.566001892089844 9.657999992370605,39.380001068115234 C18.48699951171875,35.683998107910156 26.312999725341797,32.130001068115234 27.393999099731445,23.679000854492188 C29.083999633789062,10.465999603271484 24.884000778198242,-1.6990000009536743 8.520999908447266,-7.638999938964844 C-8.456000328063965,-13.802000045776367 -15.083999633789062,-14.848999977111816 -25.083999633789062,-19.384000778198242 C-32.948001861572266,-22.948999404907227 -37.80699920654297,-33.11600112915039 -32.75899887084961,-40.314998626708984 C-31.636999130249023,-35.547000885009766 -26.32900047302246,-32.57500076293945 -21.72599983215332,-29.937999725341797z"/></g><g opacity="1" transform="matrix(1,0,0,1,370.08099365234375,346.0480041503906)"><path fill="rgb(255,215,93)" fill-opacity="1" d=" M12.161999702453613,-16.3700008392334 C31.565000534057617,-10.958000183105469 32.95899963378906,3.440000057220459 32.95899963378906,12.652000427246094 C32.95899963378906,21.527000427246094 30.950000762939453,29.398000717163086 19.729999542236328,35.42599868774414 C28.940000534057617,27.38800048828125 28.406999588012695,1.6419999599456787 10.482999801635742,-4.434999942779541 C1.0750000476837158,-7.625 -4.968999862670898,-9.791999816894531 -20.729999542236328,-15.045999526977539 C-33.880001068115234,-19.429000854492188 -36.00899887084961,-33.57099914550781 -29.10700035095215,-35.42599868774414 C-27.097000122070312,-22.02899932861328 -4.942999839782715,-21.141000747680664 12.161999702453613,-16.3700008392334z"/></g><g opacity="1" transform="matrix(1,0,0,1,389.239990234375,416.9830017089844)"><path fill="rgb(255,215,93)" fill-opacity="1" d=" M-63.12799835205078,-46.03300094604492 C-69.29399871826172,-43.77299880981445 -70.21800231933594,-38.42900085449219 -62.20399856567383,-30.722999572753906 C-54.84299850463867,-23.645999908447266 -37.970001220703125,-20.1560001373291 -18.968000411987305,-14.345999717712402 C15.454999923706055,-3.822000026702881 22.11199951171875,-1.4600000381469727 43.018001556396484,5.552000045776367 C61.323001861572266,11.690999984741211 59.08700180053711,44.553001403808594 16.95400047302246,41.67399978637695 C66.93499755859375,57.356998443603516 69.8219985961914,26.423999786376953 67.38600158691406,16.597999572753906 C64.94999694824219,6.7729997634887695 60.56700134277344,-4.164000034332275 37.20800018310547,-11.234000205993652 C15.906000137329102,-17.680999755859375 -33.70100021362305,-28.743000030517578 -46.99700164794922,-33.85599899291992 C-62.25,-39.722999572753906 -63.70800018310547,-41.6619987487793 -63.12799835205078,-46.03300094604492z"/></g><g opacity="1" transform="matrix(1,0,0,1,231.1750030517578,124.46499633789062)"><path fill="rgb(255,215,93)" fill-opacity="1" d=" M26.100000381469727,60.40999984741211 C42.66699981689453,32.53900146484375 49.0260009765625,-20.325000762939453 13.152000427246094,-57.784000396728516 C0.14000000059604645,-71.37200164794922 -34.323001861572266,-75.84200286865234 -39.369998931884766,-47.47700119018555 C-27.128000259399414,-62.76900100708008 -8.22700023651123,-60.52299880981445 1.4259999990463257,-50.65599822998047 C13.555999755859375,-38.25699996948242 25.64699935913086,-22.55299949645996 23.982999801635742,18.12299919128418 C22.944000244140625,43.5 12.86299991607666,60.52899932861328 3.875999927520752,68.44000244140625 C15.569000244140625,64.2770004272461 19.599000930786133,65.80899810791016 26.100000381469727,60.40999984741211z"/><path fill="rgb(240,146,1)" fill-opacity="0" d=" M26.100000381469727,60.40999984741211 C42.66699981689453,32.53900146484375 49.0260009765625,-20.325000762939453 13.152000427246094,-57.784000396728516 C0.14000000059604645,-71.37200164794922 -34.323001861572266,-75.84200286865234 -39.369998931884766,-47.47700119018555 C-27.128000259399414,-62.76900100708008 -8.22700023651123,-60.52299880981445 1.4259999990463257,-50.65599822998047 C13.555999755859375,-38.25699996948242 25.64699935913086,-22.55299949645996 23.982999801635742,18.12299919128418 C22.944000244140625,43.5 12.86299991607666,60.52899932861328 3.875999927520752,68.44000244140625 C15.569000244140625,64.2770004272461 19.599000930786133,65.80899810791016 26.100000381469727,60.40999984741211z"/></g><g opacity="1" transform="matrix(1,0,0,1,231.1750030517578,124.46499633789062)"><path fill="rgb(255,215,93)" fill-opacity="1" d=" M26.100000381469727,60.40999984741211 C42.66699981689453,32.53900146484375 49.0260009765625,-20.325000762939453 13.152000427246094,-57.784000396728516 C0.14000000059604645,-71.37200164794922 -34.323001861572266,-75.84200286865234 -39.369998931884766,-47.47700119018555 C-27.128000259399414,-62.76900100708008 -8.22700023651123,-60.52299880981445 1.4259999990463257,-50.65599822998047 C13.555999755859375,-38.25699996948242 25.64699935913086,-22.55299949645996 23.982999801635742,18.12299919128418 C22.944000244140625,43.5 12.86299991607666,60.52899932861328 3.875999927520752,68.44000244140625 C15.569000244140625,64.2770004272461 19.599000930786133,65.80899810791016 26.100000381469727,60.40999984741211z"/><path fill="rgb(240,146,1)" fill-opacity="0" d=" M26.100000381469727,60.40999984741211 C42.66699981689453,32.53900146484375 49.0260009765625,-20.325000762939453 13.152000427246094,-57.784000396728516 C0.14000000059604645,-71.37200164794922 -34.323001861572266,-75.84200286865234 -39.369998931884766,-47.47700119018555 C-27.128000259399414,-62.76900100708008 -8.22700023651123,-60.52299880981445 1.4259999990463257,-50.65599822998047 C13.555999755859375,-38.25699996948242 25.64699935913086,-22.55299949645996 23.982999801635742,18.12299919128418 C22.944000244140625,43.5 12.86299991607666,60.52899932861328 3.875999927520752,68.44000244140625 C15.569000244140625,64.2770004272461 19.599000930786133,65.80899810791016 26.100000381469727,60.40999984741211z"/></g><g opacity="1" transform="matrix(1,0,0,1,231.1750030517578,124.46499633789062)"><path fill="rgb(255,215,93)" fill-opacity="1" d=" M26.100000381469727,60.40999984741211 C42.66699981689453,32.53900146484375 49.0260009765625,-20.325000762939453 13.152000427246094,-57.784000396728516 C0.14000000059604645,-71.37200164794922 -34.323001861572266,-75.84200286865234 -39.369998931884766,-47.47700119018555 C-27.128000259399414,-62.76900100708008 -8.22700023651123,-60.52299880981445 1.4259999990463257,-50.65599822998047 C13.555999755859375,-38.25699996948242 25.64699935913086,-22.55299949645996 23.982999801635742,18.12299919128418 C22.944000244140625,43.5 12.86299991607666,60.52899932861328 3.875999927520752,68.44000244140625 C15.569000244140625,64.2770004272461 19.599000930786133,65.80899810791016 26.100000381469727,60.40999984741211z"/><path fill="rgb(240,146,1)" fill-opacity="0" d=" M26.100000381469727,60.40999984741211 C42.66699981689453,32.53900146484375 49.0260009765625,-20.325000762939453 13.152000427246094,-57.784000396728516 C0.14000000059604645,-71.37200164794922 -34.323001861572266,-75.84200286865234 -39.369998931884766,-47.47700119018555 C-27.128000259399414,-62.76900100708008 -8.22700023651123,-60.52299880981445 1.4259999990463257,-50.65599822998047 C13.555999755859375,-38.25699996948242 25.64699935913086,-22.55299949645996 23.982999801635742,18.12299919128418 C22.944000244140625,43.5 12.86299991607666,60.52899932861328 3.875999927520752,68.44000244140625 C15.569000244140625,64.2770004272461 19.599000930786133,65.80899810791016 26.100000381469727,60.40999984741211z"/></g></g><g style="display: block;" transform="matrix(1,0,0,1,0,-4.399993896484375)" opacity="1"><g opacity="1" transform="matrix(1,0,0,1,101.0260009765625,263.1210021972656)"><path fill="rgb(255,215,93)" fill-opacity="1" d=" M-46.61000061035156,21.343000411987305 C-36.09299850463867,-1.1440000534057617 -27.257999420166016,-3.2130000591278076 -18.259000778198242,-3.5959999561309814 C-2.9549999237060547,-4.247000217437744 3.9679999351501465,-2.3550000190734863 17.469999313354492,-2.6689999103546143 C33.89799880981445,-3.052000045776367 34.10499954223633,-9.142000198364258 46.61000061035156,-18.163000106811523 C30.051000595092773,-15.454999923706055 -18.42300033569336,-23.56399917602539 -27.770000457763672,-20.735000610351562 C-35.78799819946289,-13.522000312805176 -42.566001892089844,-7.627999782562256 -46.61000061035156,21.343000411987305z"/></g></g><g style="display: block;" transform="matrix(1,0,0,1,0,-4.399993896484375)" opacity="1"><g opacity="1" transform="matrix(1,0,0,1,204.88400268554688,151.8040008544922)"><path stroke-linecap="round" stroke-linejoin="round" fill-opacity="0" stroke="rgb(225,124,0)" stroke-opacity="1" stroke-width="8" d=" M52.8390007019043,34.435001373291016 C64.71700286865234,13.847000122070312 69.03099822998047,-27.048999786376953 57.34700012207031,-57.59199905395508 C43.755001068115234,-93.1240005493164 3.921999931335449,-103.55799865722656 -9.494000434875488,-82.68199920654297 C-12.934000015258789,-77.3280029296875 -14.284000396728516,-72.54900360107422 -8.612000465393066,-45.970001220703125 C4.888000011444092,17.291000366210938 -18.917999267578125,65.70099639892578 -64.23200225830078,93.36399841308594"/></g></g><g style="display: block;" transform="matrix(1,0,0,1,0,-4.399993896484375)" opacity="1"><g opacity="0.5" transform="matrix(1,0,0,1,250.61900329589844,381.57501220703125)"><path fill="rgb(240,146,1)" fill-opacity="1" d=" M160.625,79.62200164794922 C207.63099670410156,90.82499694824219 208.8179931640625,59.57500076293945 205.82200622558594,55.09199905395508 C205.63099670410156,67.82499694824219 187.8509979248047,76.01100158691406 173.9040069580078,72.74700164794922 C137.83099365234375,64.30799865722656 36.26300048828125,34.50400161743164 15.239999771118164,32.183998107910156 C-3.86899995803833,30.075000762939453 -20.479999542236328,29.441999435424805 -46.305999755859375,24.14900016784668 C-68.61900329589844,19.576000213623047 -95.49400329589844,8.199999809265137 -112.03500366210938,2.111999988555908 C-109.36900329589844,6.199999809265137 -103.1240005493164,12.27299976348877 -98.0469970703125,15.765000343322754 C-78.21299743652344,29.405000686645508 -35.61899948120117,44.42499923706055 16.648000717163086,42.43000030517578 C35.75899887084961,46.904998779296875 127.9520034790039,71.83499908447266 160.625,79.62200164794922z"/></g><g opacity="0.3" transform="matrix(1,0,0,1,250.61900329589844,381.57501220703125)"><path fill="rgb(240,146,1)" fill-opacity="1" d=" M160.625,79.62200164794922 C207.63099670410156,90.82499694824219 208.8179931640625,59.57500076293945 205.82200622558594,55.09199905395508 C204.88099670410156,66.57499694824219 188.3509979248047,72.01100158691406 174.4040069580078,68.74700164794922 C138.33099365234375,60.30799865722656 34.604000091552734,30.684999465942383 14.114999771118164,25.43400001525879 C-3.86899995803833,20.825000762939453 -24.118999481201172,20.576000213623047 -46.430999755859375,15.52400016784668 C-62.356998443603516,11.918000221252441 -115.74400329589844,-6.173999786376953 -117.4729995727539,-6.449999809265137 C-113.24400329589844,2.8259999752044678 -101.927001953125,12.782999992370605 -97.10900115966797,16.014999389648438 C-77.11900329589844,29.424999237060547 -35.61899948120117,44.42499923706055 16.648000717163086,42.43000030517578 C35.75899887084961,46.904998779296875 127.9520034790039,71.83499908447266 160.625,79.62200164794922z"/></g><g opacity="0.2" transform="matrix(1,0,0,1,250.61900329589844,381.57501220703125)"><path fill="rgb(240,146,1)" fill-opacity="1" d=" M160.625,79.62200164794922 C207.63099670410156,90.82499694824219 208.8179931640625,59.57500076293945 205.82200622558594,55.09199905395508 C203.63099670410156,65.82499694824219 189.3509979248047,68.76100158691406 175.4040069580078,65.49700164794922 C139.33099365234375,57.05799865722656 35.104000091552734,25.684999465942383 14.614999771118164,20.43400001525879 C-3.36899995803833,15.824999809265137 -23.118999481201172,13.326000213623047 -45.430999755859375,8.27400016784668 C-61.356998443603516,4.668000221252441 -120.74400329589844,-15.923999786376953 -122.4729995727539,-16.200000762939453 C-116.86900329589844,-0.7990000247955322 -101.927001953125,12.782999992370605 -97.10900115966797,16.014999389648438 C-77.11900329589844,29.424999237060547 -35.61899948120117,44.42499923706055 16.648000717163086,42.43000030517578 C35.75899887084961,46.904998779296875 127.9520034790039,71.83499908447266 160.625,79.62200164794922z"/></g><g opacity="0.1" transform="matrix(1,0,0,1,250.61900329589844,381.57501220703125)"><path fill="rgb(240,146,1)" fill-opacity="1" d=" M160.625,79.62200164794922 C207.63099670410156,90.82499694824219 208.8179931640625,59.57500076293945 205.82200622558594,55.09199905395508 C203.63099670410156,64.32499694824219 190.1009979248047,65.76100158691406 176.1540069580078,62.49700164794922 C140.08099365234375,54.05799865722656 36.104000091552734,21.184999465942383 15.614999771118164,15.934000015258789 C-2.36899995803833,11.324999809265137 -23.902999877929688,4.418000221252441 -44.430999755859375,-1.9759999513626099 C-61.11899948120117,-7.173999786376953 -107.36900329589844,-24.673999786376953 -129.59800720214844,-37.45000076293945 C-120.99400329589844,-0.7990000247955322 -101.927001953125,12.782999992370605 -97.10900115966797,16.014999389648438 C-77.11900329589844,29.424999237060547 -35.61899948120117,44.42499923706055 16.648000717163086,42.43000030517578 C35.75899887084961,46.904998779296875 127.9520034790039,71.83499908447266 160.625,79.62200164794922z"/></g><g opacity="1" transform="matrix(1,0,0,1,363.22698974609375,375.8009948730469)"><path fill="rgb(240,146,1)" fill-opacity="1" d=" M-40.349998474121094,-3.2850000858306885 C-31.18199920654297,-8.12600040435791 -32.52000045776367,-8.956999778747559 0.9869999885559082,-0.00800000037997961 C25.54800033569336,6.552000045776367 35.00699996948242,-1.9910000562667847 40.34600067138672,-14.654000282287598 C40.6510009765625,9.29800033569336 24.327999114990234,21.19700050354004 -4.505000114440918,10.97599983215332 C-31.590999603271484,1.3739999532699585 -32.680999755859375,4.123000144958496 -40.349998474121094,-3.2850000858306885z"/></g><g opacity="1" transform="matrix(1,0,0,1,376.47198486328125,315.35400390625)"><path fill="rgb(240,146,1)" fill-opacity="1" d=" M-37.04199981689453,-4.0320000648498535 C-33.63199996948242,-7.019999980926514 -29.135000228881836,-7.535999774932861 -18.08799934387207,-3.566999912261963 C-6.111000061035156,0.7350000143051147 -3.865999937057495,0.7269999980926514 4.23799991607666,3.177000045776367 C19.23900032043457,7.711999893188477 34.374000549316406,0.8799999952316284 36.22600173950195,-15.649999618530273 C41.64099884033203,7.14900016784668 18.871000289916992,19.054000854492188 5.038000106811523,14.795999526977539 C-13.29699993133545,9.151000022888184 -31.11199951171875,5.8520002365112305 -37.04199981689453,-4.0320000648498535z"/></g><g opacity="1" transform="matrix(1,0,0,1,381.0249938964844,246.72799682617188)"><path fill="rgb(240,146,1)" fill-opacity="1" d=" M-34.31399917602539,-0.15199999511241913 C-32.071998596191406,-2.11299991607666 -25.236000061035156,-4.250999927520752 -14.763999938964844,-0.09099999815225601 C-5.929999828338623,3.4179999828338623 3.3559999465942383,7.627999782562256 10.123000144958496,7.627999782562256 C23.766000747680664,7.627999782562256 34.75699996948242,-0.7749999761581421 31.05699920654297,-20.468000411987305 C42.96099853515625,11.593999862670898 19.604000091552734,24.716999053955078 3.388000011444092,19.270999908447266 C-13.85200023651123,13.482000350952148 -29.760000228881836,9.586999893188477 -34.31399917602539,-0.15199999511241913z"/></g></g><g style="display: block;" transform="matrix(1,0,0,1,0,-4.399993896484375)" opacity="1"><g opacity="1" transform="matrix(1,0,0,1,103.3030014038086,330.6650085449219)"><path stroke-linecap="round" stroke-linejoin="round" fill-opacity="0" stroke="rgb(225,124,0)" stroke-opacity="1" stroke-width="8" d=" M37.00600051879883,-85.42400360107422 C28.075000762939453,-82.41300201416016 -3.0260000228881836,-86.0009994506836 -17.950000762939453,-87.8010025024414 C-29.236000061035156,-89.16200256347656 -32.5989990234375,-86.8219985961914 -37.215999603271484,-80.48899841308594 C-61.45600128173828,-47.2400016784668 -66.76000213623047,41.3390007019043 -14.77299976348877,82.67400360107422 C-5.245999813079834,90.2490005493164 -2.1440000534057617,88.49299621582031 7.480999946594238,86.23500061035156 C21.384000778198242,82.97200012207031 42.154998779296875,71.43000030517578 54.948001861572266,70.95099639892578"/></g></g><g style="display: block;" transform="matrix(1,0,0,1,0,-4.399993896484375)" opacity="1"><g opacity="1" transform="matrix(1,0,0,1,325.7569885253906,223.16900634765625)"><path stroke-linecap="round" stroke-linejoin="round" fill-opacity="0" stroke="rgb(225,124,0)" stroke-opacity="1" stroke-width="8" d=" M-90.70700073242188,-29.243999481201172 C-68.18599700927734,-38.47100067138672 -51.733001708984375,-39.095001220703125 -32.814998626708984,-41.58000183105469 C-10.592000007629395,-44.499000549316406 0.8059999942779541,-44.222999572753906 12.170000076293945,-42.15399932861328 C28.29599952697754,-39.21699905395508 54.86800003051758,-24.525999069213867 69.69999694824219,-16.118999481201172 C88.68699645996094,-5.355999946594238 93.9739990234375,10.465999603271484 88.87899780273438,24.55900001525879 C83.93800354003906,38.22700119018555 70.09700012207031,46.89899826049805 59.16400146484375,42.65599822998047"/></g><g opacity="1" transform="matrix(1,0,0,1,381.4750061035156,290.65301513671875)"><path stroke-linecap="round" stroke-linejoin="round" fill-opacity="0" stroke="rgb(225,124,0)" stroke-opacity="1" stroke-width="8" d=" M-32.66600036621094,-41.22100067138672 C-27.23699951171875,-33.93000030517578 -18.233999252319336,-32.65700149536133 -9.708000183105469,-29.586000442504883 C8.114999771118164,-23.167999267578125 32.32699966430664,-17.308000564575195 32.66299819946289,10.081999778747559 C32.91600036621094,30.670000076293945 19.69300079345703,44.56700134277344 3.250999927520752,40.52000045776367"/></g><g opacity="1" transform="matrix(1,0,0,1,372.343994140625,352.6109924316406)"><path stroke-linecap="round" stroke-linejoin="round" fill-opacity="0" stroke="rgb(225,124,0)" stroke-opacity="1" stroke-width="8" d=" M-30.704999923706055,-38.426998138427734 C-26.624000549316406,-33.65800094604492 -24.058000564575195,-32.553001403808594 -13.854999542236328,-29.461000442504883 C-5.501999855041504,-26.93000030517578 0.23199999332427979,-25.90399932861328 11.208000183105469,-21.76799964904785 C24.118999481201172,-16.902999877929688 33.0629997253418,-2.0280001163482666 30.152999877929688,14.355999946594238 C26.795000076293945,33.25699996948242 14.699999809265137,39.915000915527344 -0.7300000190734863,38.15399932861328"/></g><g opacity="1" transform="matrix(1,0,0,1,301.6669921875,419.48199462890625)"><path stroke-linecap="round" stroke-linejoin="round" fill-opacity="0" stroke="rgb(225,124,0)" stroke-opacity="1" stroke-width="8" d=" M-155.07899475097656,-25.562999725341797 C-150.11300659179688,-20.29400062561035 -128.72799682617188,-10.864999771118164 -107.85700225830078,-4.547999858856201 C-72.42500305175781,6.173999786376953 -43,3.993000030517578 -31.851999282836914,5.3429999351501465 C-7.001999855041504,9.277000427246094 20.170000076293945,17.601999282836914 54.4640007019043,27.284000396728516 C76.16699981689453,33.4119987487793 109.30699920654297,41.237998962402344 124.90299987792969,43.84400177001953 C156.40199279785156,49.10599899291992 168.96800231933594,2.8450000286102295 134.2790069580078,-9.937000274658203 C117.10199737548828,-16.266000747680664 71.66100311279297,-27.73699951171875 40.70000076293945,-36.39899826049805 C32.084999084472656,-38.810001373291016 27.225000381469727,-41.05099868774414 24.33799934387207,-44.2599983215332"/></g></g></g></svg>