<svg xmlns="http://www.w3.org/2000/svg" xmlns:xlink="http://www.w3.org/1999/xlink" viewBox="0 0 512 512" width="512" height="512" style="width: 100%; height: 100%; transform: translate3d(0,0,0);" preserveAspectRatio="xMidYMid meet"><defs><clipPath id="__lottie_element_15813"><rect width="512" height="512" x="0" y="0"/></clipPath><linearGradient id="__lottie_element_15832" spreadMethod="pad" gradientUnits="userSpaceOnUse" x1="-246" y1="1" x2="243" y2="0"><stop offset="0%" stop-color="rgb(0,0,0)"/><stop offset="25%" stop-color="rgb(0,0,0)"/><stop offset="50%" stop-color="rgb(0,0,0)"/><stop offset="75%" stop-color="rgb(0,0,0)"/><stop offset="100%" stop-color="rgb(0,0,0)"/></linearGradient><mask id="__lottie_element_15834"><path fill="url(#__lottie_element_15833)" d=" M-246.5,-145.5 C-246.5,-139 -246.5,144.218994140625 -246.5,146.593994140625 C-244.71200561523438,146.76499938964844 -241.55099487304688,147.5780029296875 -237.75900268554688,148.50999450683594 C-220.5,152.75 -191.07200622558594,159.75999450683594 -178.26499938964844,161.58399963378906 C-147.25,166 -127.13200378417969,165.62600708007812 -103.76799774169922,164.74600219726562 C-50.75,162.75 -4.125,146.125 27.19499969482422,139.3300018310547 C47.95800018310547,134.8249969482422 68.79000091552734,130.64500427246094 83.74700164794922,128.94000244140625 C106.25,126.375 122.875,126.75 143.25,128.35899353027344 C183.33700561523438,131.52499389648438 227.81300354003906,143.81199645996094 241.43800354003906,147.031005859375 C241.43800354003906,147.09300231933594 241.406005859375,147.09300231933594 241.406005859375,147.06199645996094 C241.406005859375,147.06199645996094 241.406005859375,147.06199645996094 241.406005859375,147.06199645996094 C241.56199645996094,120.56199645996094 241.23399353027344,82.29100036621094 241.25,49.90599822998047 C241.26600646972656,17.08300018310547 241.43699645996094,-15.739999771118164 241.5,-48.5629997253418 C241.56199645996094,-80.91699981689453 241.5,-128.75 241.625,-145.625 C151.281005859375,-172.5 103.15699768066406,-165.1009979248047 78.5,-162.81199645996094 C40.125,-159.25 0.8299999833106995,-139.16400146484375 -83.375,-129.06199645996094 C-157.875,-120.1240005493164 -212.75,-139.625 -246.5,-145.5z"/></mask><linearGradient id="__lottie_element_15833" spreadMethod="pad" gradientUnits="userSpaceOnUse" x1="-246" y1="1" x2="243" y2="0"><stop stop-color="rgb(255,255,255)" offset="0%" stop-opacity="1"/><stop stop-color="rgb(255,255,255)" offset="17%" stop-opacity="0.5"/><stop stop-color="rgb(255,255,255)" offset="33%" stop-opacity="0"/><stop stop-color="rgb(255,255,255)" offset="50%" stop-opacity="0"/><stop stop-color="rgb(255,255,255)" offset="66%" stop-opacity="0"/><stop stop-color="rgb(255,255,255)" offset="83%" stop-opacity="0.5"/><stop stop-color="rgb(255,255,255)" offset="100%" stop-opacity="1"/></linearGradient></defs><g clip-path="url(#__lottie_element_15813)"><g style="display: block;" transform="matrix(0.800000011920929,0,0,0.800000011920929,257.9656066894531,250.03680419921875)" opacity="1"><g opacity="1" transform="matrix(1,0,0,1,0,0)"><path fill="rgb(20,20,20)" fill-opacity="1" d=" M-246.54299926757812,-81.2959976196289 C-246.54299926757812,-50.047000885009766 -246.54299926757812,51.10900115966797 -246.54299926757812,82.4540023803711 C-246.54299926757812,135.86900329589844 241.47900390625,105.76000213623047 241.4949951171875,73.375 C241.51100158691406,40.551998138427734 241.3939971923828,-41.2400016784668 241.45700073242188,-74.06300354003906 C241.5189971923828,-106.41699981689453 -246.54299926757812,-133.093994140625 -246.54299926757812,-81.2959976196289z"/></g></g><g style="display: block;" transform="matrix(0.800000011920929,0,0,0.800000011920929,257.9656066894531,250.03680419921875)" opacity="1"><g opacity="1" transform="matrix(1,0,0,1,0,0)"><path fill="rgb(45,150,76)" fill-opacity="1" d=" M-246.5,72.4540023803711 C-246.5,125.98200225830078 -246.5,145.6649932861328 -246.5,146.593994140625 C-244.71200561523438,146.76499938964844 -241.55099487304688,147.5780029296875 -237.75900268554688,148.50999450683594 C-220.5,152.75 -191.07200622558594,159.75999450683594 -178.26499938964844,161.58399963378906 C-147.25,166 -127.13200378417969,165.62600708007812 -103.76799774169922,164.74600219726562 C-50.75,162.75 -4.125,146.125 27.19499969482422,139.3300018310547 C47.95800018310547,134.8249969482422 68.79000091552734,130.64500427246094 83.74700164794922,128.94000244140625 C106.25,126.375 122.875,126.75 143.25,128.35899353027344 C183.33700561523438,131.52499389648438 218.41900634765625,139.32899475097656 241.43800354003906,147.031005859375 C241.43800354003906,147.093994140625 241.406005859375,147.09300231933594 241.406005859375,147.06199645996094 C241.406005859375,147.06199645996094 241.406005859375,147.06199645996094 241.406005859375,147.06199645996094 C241.56199645996094,120.56199645996094 241.23399353027344,106.54100036621094 241.25,74.15599822998047 C192.79299926757812,55.202999114990234 116.95899963378906,47.94499969482422 55.35599899291992,59.60499954223633 C23.792999267578125,65.5790023803711 -31.08099937438965,80.3290023803711 -73.03500366210938,87.61799621582031 C-106.5719985961914,93.44499969482422 -156.58099365234375,93.4540023803711 -203.0240020751953,82.43000030517578 C-221.2969970703125,78.09300231933594 -228.45599365234375,76.64099884033203 -234.78599548339844,75.2229995727539 C-240.1439971923828,73.9540023803711 -244.20700073242188,72.9540023803711 -246.5,72.4540023803711z"/></g></g><g style="display: block;" transform="matrix(0.800000011920929,0,0,0.800000011920929,257.9656066894531,250.03680419921875)" opacity="1"><g opacity="1" transform="matrix(1,0,0,1,0,0)"><path fill="rgb(219,25,40)" fill-opacity="1" d=" M-246.5,-145.5 C-246.5,-143.03799438476562 -246.5050048828125,-126.11699676513672 -246.5050048828125,-74.5459976196289 C-235.20700073242188,-72.0459976196289 -217.45700073242188,-67.5459976196289 -195.322998046875,-62.696998596191406 C-153.95700073242188,-55.04600143432617 -116.20700073242188,-52.79600143432617 -79.72699737548828,-58.51900100708008 C-47.97800064086914,-63.5 -27.39699935913086,-68.2969970703125 16.045000076293945,-79.63999938964844 C125.79299926757812,-108.2959976196289 190.29299926757812,-88.2969970703125 241.5,-74.06300354003906 C241.56199645996094,-106.41699981689453 241.5,-128.75 241.625,-145.625 C151.281005859375,-172.5 103.15699768066406,-165.1009979248047 78.5,-162.81199645996094 C40.125,-159.25 -52.957000732421875,-130.54600524902344 -83.375,-129.06199645996094 C-157.875,-120.1240005493164 -212.75,-139.625 -246.5,-145.5z"/></g></g><g style="display: block;" transform="matrix(0.7199999690055847,0,0,0.7199999690055847,75.73609924316406,67.19136810302734)" opacity="1"><g opacity="1" transform="matrix(1,0,0,1,316.37799072265625,240.86199951171875)"><path fill="rgb(242,242,242)" fill-opacity="1" d=" M9.855999946594238,13.244999885559082 C9.855999946594238,13.244999885559082 -10.697999954223633,44.84000015258789 -10.697999954223633,44.84000015258789 C-10.697999954223633,44.84000015258789 -10.697999954223633,10.435999870300293 -10.697999954223633,10.435999870300293 C-10.697999954223633,10.435999870300293 -42.415000915527344,7.063000202178955 -42.415000915527344,7.063000202178955 C-42.415000915527344,7.063000202178955 -10.442000389099121,-10.5 -10.442000389099121,-10.5 C-10.442000389099121,-10.5 -10.442000389099121,-44.84000015258789 -10.442000389099121,-44.84000015258789 C-10.442000389099121,-44.84000015258789 9.855999946594238,-20.329999923706055 9.855999946594238,-20.329999923706055 C9.855999946594238,-20.329999923706055 42.409000396728516,-34.244998931884766 42.409000396728516,-34.244998931884766 C42.409000396728516,-34.244998931884766 21.856000900268555,-4.690999984741211 21.856000900268555,-4.690999984741211 C21.856000900268555,-4.690999984741211 42.415000915527344,20.834999084472656 42.415000915527344,20.834999084472656 C42.415000915527344,20.834999084472656 9.855999946594238,13.244999885559082 9.855999946594238,13.244999885559082z"/></g><g opacity="1" transform="matrix(1,0,0,1,237.29299926757812,254.90199279785156)"><path fill="rgb(242,242,242)" fill-opacity="1" d=" M52.68600082397461,-53.007999420166016 C32.60300064086914,-68.61399841308594 7.690999984741211,-65.51000213623047 -12.803000450134277,-53.13399887084961 C-32.04100036621094,-41.51599884033203 -47.38600158691406,-21.729000091552734 -51.1870002746582,-1.5779999494552612 C-56.32500076293945,25.656999588012695 -47.76100158691406,45.13600158691406 -32.95800018310547,55.36000061035156 C-10.491000175476074,70.8759994506836 26.347000122070312,65.07499694824219 51.472999572753906,32.715999603271484 C24.280000686645508,56.21200180053711 -0.8149999976158142,55.75699996948242 -16.240999221801758,43.55099868774414 C-27.645999908447266,34.527000427246094 -33.76599884033203,19.079999923706055 -31.541000366210938,2.1410000324249268 C-29.61400032043457,-12.531999588012695 -19.815000534057617,-30.09600067138672 -5.4730000495910645,-42.334999084472656 C10.012999534606934,-55.54999923706055 30.79599952697754,-62.555999755859375 52.68600082397461,-53.007999420166016z"/><path stroke-linecap="round" stroke-linejoin="miter" fill-opacity="0" stroke-miterlimit="4" stroke="rgb(242,242,242)" stroke-opacity="1" stroke-width="3" d=" M52.68600082397461,-53.007999420166016 C32.60300064086914,-68.61399841308594 7.690999984741211,-65.51000213623047 -12.803000450134277,-53.13399887084961 C-32.04100036621094,-41.51599884033203 -47.38600158691406,-21.729000091552734 -51.1870002746582,-1.5779999494552612 C-56.32500076293945,25.656999588012695 -47.76100158691406,45.13600158691406 -32.95800018310547,55.36000061035156 C-10.491000175476074,70.8759994506836 26.347000122070312,65.07499694824219 51.472999572753906,32.715999603271484 C24.280000686645508,56.21200180053711 -0.8149999976158142,55.75699996948242 -16.240999221801758,43.55099868774414 C-27.645999908447266,34.527000427246094 -33.76599884033203,19.079999923706055 -31.541000366210938,2.1410000324249268 C-29.61400032043457,-12.531999588012695 -19.815000534057617,-30.09600067138672 -5.4730000495910645,-42.334999084472656 C10.012999534606934,-55.54999923706055 30.79599952697754,-62.555999755859375 52.68600082397461,-53.007999420166016z"/></g></g><g style="display: block;" transform="matrix(0.800000011920929,0,0,0.800000011920929,257.9656066894531,250.03680419921875)" opacity="0.35000000000000003"><g opacity="1" transform="matrix(1,0,0,1,0,0)"><path fill="url(#__lottie_element_15832)" mask="url(#__lottie_element_15834)" fill-opacity="1" d="M0 0 M-246.5,-145.5 C-246.5,-139 -246.5,144.218994140625 -246.5,146.593994140625 C-244.71200561523438,146.76499938964844 -241.55099487304688,147.5780029296875 -237.75900268554688,148.50999450683594 C-220.5,152.75 -191.07200622558594,159.75999450683594 -178.26499938964844,161.58399963378906 C-147.25,166 -127.13200378417969,165.62600708007812 -103.76799774169922,164.74600219726562 C-50.75,162.75 -4.125,146.125 27.19499969482422,139.3300018310547 C47.95800018310547,134.8249969482422 68.79000091552734,130.64500427246094 83.74700164794922,128.94000244140625 C106.25,126.375 122.875,126.75 143.25,128.35899353027344 C183.33700561523438,131.52499389648438 227.81300354003906,143.81199645996094 241.43800354003906,147.031005859375 C241.43800354003906,147.09300231933594 241.406005859375,147.09300231933594 241.406005859375,147.06199645996094 C241.406005859375,147.06199645996094 241.406005859375,147.06199645996094 241.406005859375,147.06199645996094 C241.56199645996094,120.56199645996094 241.23399353027344,82.29100036621094 241.25,49.90599822998047 C241.26600646972656,17.08300018310547 241.43699645996094,-15.739999771118164 241.5,-48.5629997253418 C241.56199645996094,-80.91699981689453 241.5,-128.75 241.625,-145.625 C151.281005859375,-172.5 103.15699768066406,-165.1009979248047 78.5,-162.81199645996094 C40.125,-159.25 0.8299999833106995,-139.16400146484375 -83.375,-129.06199645996094 C-157.875,-120.1240005493164 -212.75,-139.625 -246.5,-145.5z"/></g></g><g style="display: block;" transform="matrix(0.800000011920929,0,0,0.800000011920929,257.9656066894531,250.03680419921875)" opacity="0.15"><g opacity="1" transform="matrix(1,0,0,1,0,0)"><path fill="rgb(255,255,255)" fill-opacity="1" d=" M-246.875,-146 C-246.83700561523438,-139.70399475097656 -246.875,-138 -246.79200744628906,-132.81100463867188 C-237.5,-136.25 -197.25,-114 -124.49600219726562,-114.31099700927734 C-38.992000579833984,-114.6760025024414 39.233001708984375,-153.25 121.70800018310547,-153.39700317382812 C179.75,-153.5 241,-132.25 240.91200256347656,-131.552001953125 C241,-140.5 241.375,-144.625 241.375,-144.625 C241.375,-144.625 179.75,-166.25 122.5,-166 C39.49700164794922,-165.63800048828125 -39.5,-128 -124.25,-126.81199645996094 C-197.0449981689453,-125.79199981689453 -237.75,-149 -246.875,-146z"/></g></g><g style="display: block;" transform="matrix(0.800000011920929,0,0,0.800000011920929,257.9656066894531,250.03680419921875)" opacity="0.15"><g opacity="1" transform="matrix(1,0,0,1,0,0)"><path fill="rgb(0,0,0)" fill-opacity="1" d=" M122.5,112.25 C34,112.25 -36,149.5 -123.5,152 C-140.61700439453125,152.48899841308594 -155.82000732421875,151.3489990234375 -170.41099548339844,149.1280059814453 C-195.23399353027344,145.35000610351562 -218.28900146484375,138.4459991455078 -246,131.125 C-246.25,134.5 -246,141.375 -246,145.125 C-218.5749969482422,153.30599975585938 -195.61700439453125,159.55499267578125 -170.83099365234375,163.0050048828125 C-155.8520050048828,165.08999633789062 -140.20399475097656,166.15199279785156 -122.5,166 C-35,165.25 33.5,126.625 121.75,126.5 C126.26799774169922,126.49400329589844 131.11399841308594,126.59500122070312 136.27699279785156,126.83899688720703 C163.25900268554688,128.11300659179688 198.88099670410156,133.2550048828125 241.375,147 C241.375,147 241.25,134.75 241.5,131.125 C199.093994140625,118.93299865722656 163.16200256347656,113.84500122070312 136.1439971923828,112.58000183105469 C131.30499267578125,112.35399627685547 126.75299835205078,112.25 122.5,112.25z"/></g></g><g style="display: block;" transform="matrix(0.800000011920929,0,0,0.800000011920929,257.9656066894531,250.03680419921875)" opacity="1"><g opacity="1" transform="matrix(1,0,0,1,0,0)"><path stroke-linecap="round" stroke-linejoin="round" fill-opacity="0" stroke="rgb(22,73,37)" stroke-opacity="1" stroke-width="8" d=" M-246.5,72.4540023803711 C-246.5,125.98200225830078 -246.5,145.6649932861328 -246.5,146.593994140625 C-244.71200561523438,146.76499938964844 -241.55099487304688,147.5780029296875 -237.75900268554688,148.50999450683594 C-220.5,152.75 -191.07200622558594,159.75999450683594 -178.26499938964844,161.58399963378906 C-147.25,166 -127.13200378417969,165.62600708007812 -103.76799774169922,164.74600219726562 C-50.75,162.75 -4.125,146.125 27.19499969482422,139.3300018310547 C47.95800018310547,134.8249969482422 68.79000091552734,130.64500427246094 83.74700164794922,128.94000244140625 C106.25,126.375 122.875,126.75 143.25,128.35899353027344 C183.33700561523438,131.52499389648438 218.41900634765625,139.32899475097656 241.43800354003906,147.031005859375 C241.43800354003906,147.093994140625 241.406005859375,147.09300231933594 241.406005859375,147.06199645996094 C241.406005859375,147.06199645996094 241.406005859375,147.06199645996094 241.406005859375,147.06199645996094 C241.56199645996094,120.56199645996094 241.23399353027344,106.54100036621094 241.25,74.15599822998047"/></g><g opacity="1" transform="matrix(1,0,0,1,0,0)"><path stroke-linecap="round" stroke-linejoin="round" fill-opacity="0" stroke="rgb(112,10,18)" stroke-opacity="1" stroke-width="8" d=" M241.5,-74.06300354003906 C241.56199645996094,-106.41699981689453 241.5,-128.75 241.625,-145.625 C151.281005859375,-172.5 103.15699768066406,-165.1009979248047 78.5,-162.81199645996094 C40.125,-159.25 -52.957000732421875,-130.54600524902344 -83.375,-129.06199645996094 C-157.875,-120.1240005493164 -212.75,-139.625 -246.5,-145.5 C-246.5,-143.03799438476562 -246.5050048828125,-126.11699676513672 -246.5050048828125,-74.5459976196289"/></g><g opacity="1" transform="matrix(1,0,0,1,0,0)"><path stroke-linecap="butt" stroke-linejoin="miter" fill-opacity="0" stroke-miterlimit="4" stroke="rgb(0,0,0)" stroke-opacity="1" stroke-width="8" d=" M241.45700073242188,-74.06300354003906 C241.3939971923828,-41.2400016784668 241.51100158691406,40.551998138427734 241.4949951171875,73.375"/></g><g opacity="1" transform="matrix(1,0,0,1,0,0)"><path stroke-linecap="butt" stroke-linejoin="miter" fill-opacity="0" stroke-miterlimit="4" stroke="rgb(0,0,0)" stroke-opacity="1" stroke-width="8" d=" M-246.5189971923828,-74.99400329589844 C-246.5189971923828,-74.99400329589844 -246.58200073242188,72.91100311279297 -246.58200073242188,72.91100311279297"/></g></g></g></svg>