<?xml version="1.0" encoding="UTF-8" standalone="no"?>
<svg
   viewBox="0 0 512 512"
   width="512"
   height="512"
   style="width: 100%; height: 100%; transform: translate3d(0,0,0);"
   preserveAspectRatio="xMidYMid meet"
   version="1.1"
   id="svg35"
   sodipodi:docname="emoji_u1f4b1.svg"
   xml:space="preserve"
   inkscape:version="1.4.4 (dcaf3e7d9e, 2026-05-05)"
   xmlns:inkscape="http://www.inkscape.org/namespaces/inkscape"
   xmlns:sodipodi="http://sodipodi.sourceforge.net/DTD/sodipodi-0.dtd"
   xmlns="http://www.w3.org/2000/svg"
   xmlns:svg="http://www.w3.org/2000/svg"><sodipodi:namedview
     id="namedview35"
     pagecolor="#ffffff"
     bordercolor="#000000"
     borderopacity="0.25"
     inkscape:showpageshadow="2"
     inkscape:pageopacity="0.0"
     inkscape:pagecheckerboard="0"
     inkscape:deskcolor="#d1d1d1"
     inkscape:zoom="0.23348622"
     inkscape:cx="-49.253443"
     inkscape:cy="428.29081"
     inkscape:window-width="1280"
     inkscape:window-height="728"
     inkscape:window-x="0"
     inkscape:window-y="0"
     inkscape:window-maximized="1"
     inkscape:current-layer="svg35" /><defs
     id="defs1"><clipPath
       id="__lottie_element_52583"><rect
         width="512"
         height="512"
         x="0"
         y="0"
         id="rect1" /></clipPath></defs><g
     clip-path="url(#__lottie_element_52583)"
     id="g35"><g
       style="display: block;"
       transform="matrix(0.949999988079071,0,0,0.949999988079071,68.87993621826172,60.312660217285156)"
       opacity="1"
       id="g10"><g
         opacity="1"
         transform="matrix(1,0,0,1,96.41500091552734,126.98999786376953)"
         id="g9"><path
           stroke-linecap="round"
           stroke-linejoin="round"
           fill-opacity="0"
           stroke="rgb(60,123,0)"
           stroke-opacity="1"
           stroke-width="8"
           d=" M14.104999542236328,78.13999938964844 C14.104999542236328,78.13999938964844 14.104999542236328,106.98999786376953 14.104999542236328,106.98999786376953 C14.104999542236328,106.98999786376953 -14.015000343322754,106.98999786376953 -14.015000343322754,106.98999786376953 C-14.015000343322754,106.98999786376953 -14.015000343322754,77.80999755859375 -14.015000343322754,77.80999755859375 C-53.21500015258789,74.16999816894531 -73.38500213623047,56.790000915527344 -76.41600036621094,27.100000381469727 C-76.41600036621094,27.100000381469727 -39.3849983215332,27.100000381469727 -39.3849983215332,27.100000381469727 C-39.3849983215332,27.100000381469727 -35.724998474121094,45.41999816894531 -14.015000343322754,50.75 C-9.984999656677246,51.75 -5.324999809265137,52.29999923706055 0.04500000178813934,52.189998626708984 C5.414999961853027,52.08000183105469 10.074999809265137,51.68000030517578 14.104999542236328,51.060001373291016 C35.79499816894531,47.70000076293945 39.345001220703125,37.720001220703125 38.44499969482422,30.530000686645508 C37.3650016784668,21.889999389648438 27.924999237060547,17.489999771118164 14.104999542236328,14.550000190734863 C5.974999904632568,12.819999694824219 -3.6659998893737793,11.59000015258789 -14.015000343322754,10.300000190734863 C-41.44499969482422,6.869999885559082 -69.8949966430664,-2.5799999237060547 -69.8949966430664,-33.20000076293945 C-69.8949966430664,-60.16999816894531 -45.82500076293945,-74.51000213623047 -14.015000343322754,-77.7699966430664 C-14.015000343322754,-77.7699966430664 -14.015000343322754,-106.98999786376953 -14.015000343322754,-106.98999786376953 C-14.015000343322754,-106.98999786376953 14.104999542236328,-106.98999786376953 14.104999542236328,-106.98999786376953 C14.104999542236328,-106.98999786376953 14.104999542236328,-77.66999816894531 14.104999542236328,-77.66999816894531 C46.35499954223633,-73.62999725341797 70.32599639892578,-55.22999954223633 70.32599639892578,-32.400001525878906 C70.32599639892578,-32.400001525878906 33.30500030517578,-32.400001525878906 33.30500030517578,-32.400001525878906 C33.30500030517578,-32.400001525878906 30.30500030517578,-46.869998931884766 14.104999542236328,-52.91999816894531 C9.824999809265137,-54.52000045776367 4.635000228881836,-55.529998779296875 -1.6749999523162842,-55.529998779296875 C-6.445000171661377,-55.529998779296875 -10.53499984741211,-55.04999923706055 -14.015000343322754,-54.22999954223633 C-27.78499984741211,-51 -32.095001220703125,-42.560001373291016 -32.095001220703125,-38.16999816894531 C-32.095001220703125,-36.25 -33.76499938964844,-27.170000076293945 -14.015000343322754,-21.079999923706055 C-9.4350004196167,-19.68000030517578 -3.7049999237060547,-18.43000030517578 3.4749999046325684,-17.469999313354492 C7.125,-16.979999542236328 10.675000190734863,-16.469999313354492 14.104999542236328,-15.90999984741211 C50.415000915527344,-10.079999923706055 73.71499633789062,-0.17000000178813934 75.09500122070312,25.389999389648438 C76.41500091552734,50.060001373291016 62.98500061035156,74.80000305175781 14.104999542236328,78.13999938964844z"
           id="path8" /></g></g><g
       style="display: block;"
       transform="matrix(0.949999988079071,0,0,0.949999988079071,87.6424331665039,79.07515716552734)"
       opacity="1"
       id="g12"><g
         opacity="1"
         transform="matrix(1,0,0,1,76.66500091552734,107.23999786376953)"
         id="g11"><path
           fill="rgb(132,197,45)"
           fill-opacity="1"
           d=" M14.104999542236328,78.13999938964844 C14.104999542236328,78.13999938964844 14.104999542236328,106.98999786376953 14.104999542236328,106.98999786376953 C14.104999542236328,106.98999786376953 -14.015000343322754,106.98999786376953 -14.015000343322754,106.98999786376953 C-14.015000343322754,106.98999786376953 -14.015000343322754,77.80999755859375 -14.015000343322754,77.80999755859375 C-53.21500015258789,74.16999816894531 -73.38500213623047,56.790000915527344 -76.41600036621094,27.100000381469727 C-76.41600036621094,27.100000381469727 -39.3849983215332,27.100000381469727 -39.3849983215332,27.100000381469727 C-39.3849983215332,27.100000381469727 -35.724998474121094,45.41999816894531 -14.015000343322754,50.75 C-9.984999656677246,51.75 -5.324999809265137,52.29999923706055 0.04500000178813934,52.189998626708984 C5.414999961853027,52.08000183105469 10.074999809265137,51.68000030517578 14.104999542236328,51.060001373291016 C35.79499816894531,47.70000076293945 39.345001220703125,37.720001220703125 38.44499969482422,30.530000686645508 C37.3650016784668,21.889999389648438 27.924999237060547,17.489999771118164 14.104999542236328,14.550000190734863 C5.974999904632568,12.819999694824219 -3.6659998893737793,11.59000015258789 -14.015000343322754,10.300000190734863 C-41.44499969482422,6.869999885559082 -69.8949966430664,-2.5799999237060547 -69.8949966430664,-33.20000076293945 C-69.8949966430664,-60.16999816894531 -45.82500076293945,-74.51000213623047 -14.015000343322754,-77.7699966430664 C-14.015000343322754,-77.7699966430664 -14.015000343322754,-106.98999786376953 -14.015000343322754,-106.98999786376953 C-14.015000343322754,-106.98999786376953 14.104999542236328,-106.98999786376953 14.104999542236328,-106.98999786376953 C14.104999542236328,-106.98999786376953 14.104999542236328,-77.66999816894531 14.104999542236328,-77.66999816894531 C46.35499954223633,-73.62999725341797 70.32599639892578,-55.22999954223633 70.32599639892578,-32.400001525878906 C70.32599639892578,-32.400001525878906 33.30500030517578,-32.400001525878906 33.30500030517578,-32.400001525878906 C33.30500030517578,-32.400001525878906 30.30500030517578,-46.869998931884766 14.104999542236328,-52.91999816894531 C9.824999809265137,-54.52000045776367 4.635000228881836,-55.529998779296875 -1.6749999523162842,-55.529998779296875 C-6.445000171661377,-55.529998779296875 -10.53499984741211,-55.04999923706055 -14.015000343322754,-54.22999954223633 C-27.78499984741211,-51 -32.095001220703125,-42.560001373291016 -32.095001220703125,-38.16999816894531 C-32.095001220703125,-36.25 -33.76499938964844,-27.170000076293945 -14.015000343322754,-21.079999923706055 C-9.4350004196167,-19.68000030517578 -3.7049999237060547,-18.43000030517578 3.4749999046325684,-17.469999313354492 C7.125,-16.979999542236328 10.675000190734863,-16.469999313354492 14.104999542236328,-15.90999984741211 C50.415000915527344,-10.079999923706055 73.71499633789062,-0.17000000178813934 75.09500122070312,25.389999389648438 C76.41500091552734,50.060001373291016 62.98500061035156,74.80000305175781 14.104999542236328,78.13999938964844z"
           id="path10" /></g></g><g
       style="display: block;"
       transform="matrix(0.949999988079071,0,0,0.949999988079071,92.24993896484375,119.99165344238281)"
       opacity="1"
       id="g16"><g
         opacity="1"
         transform="matrix(1,0,0,1,56.84600067138672,68.02999877929688)"
         id="g13"><path
           fill="rgb(155,223,44)"
           fill-opacity="1"
           d=" M52.084999084472656,22.479999542236328 C48.8650016784668,16.520000457763672 40.45500183105469,13.109999656677246 29.075000762939453,10.6899995803833 C20.94499969482422,8.960000038146973 11.305000305175781,7.730000019073486 0.9549999833106995,6.440000057220459 C-21.53499984741211,3.630000114440918 -44.70500183105469,-3.2300000190734863 -52.314998626708984,-22.479999542236328 C-41.70500183105469,-9.510000228881836 -21.69499969482422,-4.309999942779541 -2.174999952316284,-1.9500000476837158 C8.545000076293945,-0.6600000262260437 18.514999389648438,0.5699999928474426 26.934999465942383,2.299999952316284 C41.23500061035156,5.239999771118164 51.005001068115234,9.640000343322754 52.125,18.280000686645508 C52.29499816894531,19.600000381469727 52.314998626708984,21.020000457763672 52.084999084472656,22.479999542236328z"
           id="path12" /></g><g
         opacity="1"
         transform="matrix(1,0,0,1,103.2020034790039,129.8350067138672)"
         id="g14"><path
           fill="rgb(155,223,44)"
           fill-opacity="1"
           d=" M-17.2810001373291,12.475000381469727 C-17.2810001373291,12.475000381469727 -17.2810001373291,41.32500076293945 -17.2810001373291,41.32500076293945 C-17.2810001373291,41.32500076293945 -45.402000427246094,41.32500076293945 -45.402000427246094,41.32500076293945 C-45.402000427246094,41.32500076293945 -45.402000427246094,32.935001373291016 -45.402000427246094,32.935001373291016 C-45.402000427246094,32.935001373291016 -19.422000885009766,32.935001373291016 -19.422000885009766,32.935001373291016 C-19.422000885009766,32.935001373291016 -21.187000274658203,11.82800006866455 -21.187000274658203,11.82800006866455 C-21.187000274658203,7.540999889373779 -17.986000061035156,3.9059998989105225 -13.727999687194824,3.4089999198913574 C26.118999481201172,-1.2369999885559082 42.04399871826172,-20.533000946044922 43.638999938964844,-41.32500076293945 C43.65700149536133,-41.32500076293945 43.625,-41.32500076293945 43.643001556396484,-41.32500076293945 C45.4010009765625,-16.31100082397461 32.29199981689453,9.088000297546387 -17.2810001373291,12.475000381469727z"
           id="path13" /></g><g
         opacity="1"
         transform="matrix(1,0,0,1,30.97599983215332,125.7300033569336)"
         id="g15"><path
           fill="rgb(155,223,44)"
           fill-opacity="1"
           d=" M30.72599983215332,15.920000076293945 C30.72599983215332,15.920000076293945 30.72599983215332,15.920000076293945 30.72599983215332,15.920000076293945 C2.375999927520752,12.670000076293945 -22.535999298095703,1.8600000143051147 -30.72599983215332,-15.920000076293945 C-21.389999389648438,-3.803999900817871 -1.1690000295639038,5.466000080108643 23.030000686645508,7.473999977111816 C27.395000457763672,7.835999965667725 30.72599983215332,11.539999961853027 30.72599983215332,15.920000076293945z"
           id="path14" /></g></g><g
       style="display: block;"
       transform="matrix(0.949999988079071,0,0,0.949999988079071,68.87993621826172,60.312660217285156)"
       opacity="1"
       id="g18"><g
         opacity="1"
         transform="matrix(1,0,0,1,96.41500091552734,126.98999786376953)"
         id="g17"><path
           stroke-linecap="round"
           stroke-linejoin="round"
           fill-opacity="0"
           stroke="rgb(60,123,0)"
           stroke-opacity="1"
           stroke-width="8"
           d=" M14.104999542236328,78.13999938964844 C14.104999542236328,78.13999938964844 14.104999542236328,106.98999786376953 14.104999542236328,106.98999786376953 C14.104999542236328,106.98999786376953 -14.015000343322754,106.98999786376953 -14.015000343322754,106.98999786376953 C-14.015000343322754,106.98999786376953 -14.015000343322754,77.80999755859375 -14.015000343322754,77.80999755859375 C-53.21500015258789,74.16999816894531 -73.38500213623047,56.790000915527344 -76.41600036621094,27.100000381469727 C-76.41600036621094,27.100000381469727 -39.3849983215332,27.100000381469727 -39.3849983215332,27.100000381469727 C-39.3849983215332,27.100000381469727 -35.724998474121094,45.41999816894531 -14.015000343322754,50.75 C-9.984999656677246,51.75 -5.324999809265137,52.29999923706055 0.04500000178813934,52.189998626708984 C5.414999961853027,52.08000183105469 10.074999809265137,51.68000030517578 14.104999542236328,51.060001373291016 C35.79499816894531,47.70000076293945 39.345001220703125,37.720001220703125 38.44499969482422,30.530000686645508 C37.3650016784668,21.889999389648438 27.924999237060547,17.489999771118164 14.104999542236328,14.550000190734863 C5.974999904632568,12.819999694824219 -3.6659998893737793,11.59000015258789 -14.015000343322754,10.300000190734863 C-41.44499969482422,6.869999885559082 -69.8949966430664,-2.5799999237060547 -69.8949966430664,-33.20000076293945 C-69.8949966430664,-60.16999816894531 -45.82500076293945,-74.51000213623047 -14.015000343322754,-77.7699966430664 C-14.015000343322754,-77.7699966430664 -14.015000343322754,-106.98999786376953 -14.015000343322754,-106.98999786376953 C-14.015000343322754,-106.98999786376953 14.104999542236328,-106.98999786376953 14.104999542236328,-106.98999786376953 C14.104999542236328,-106.98999786376953 14.104999542236328,-77.66999816894531 14.104999542236328,-77.66999816894531 C46.35499954223633,-73.62999725341797 70.32599639892578,-55.22999954223633 70.32599639892578,-32.400001525878906 C70.32599639892578,-32.400001525878906 33.30500030517578,-32.400001525878906 33.30500030517578,-32.400001525878906 C33.30500030517578,-32.400001525878906 30.30500030517578,-46.869998931884766 14.104999542236328,-52.91999816894531 C9.824999809265137,-54.52000045776367 4.635000228881836,-55.529998779296875 -1.6749999523162842,-55.529998779296875 C-6.445000171661377,-55.529998779296875 -10.53499984741211,-55.04999923706055 -14.015000343322754,-54.22999954223633 C-27.78499984741211,-51 -32.095001220703125,-42.560001373291016 -32.095001220703125,-38.16999816894531 C-32.095001220703125,-36.25 -33.76499938964844,-27.170000076293945 -14.015000343322754,-21.079999923706055 C-9.4350004196167,-19.68000030517578 -3.7049999237060547,-18.43000030517578 3.4749999046325684,-17.469999313354492 C7.125,-16.979999542236328 10.675000190734863,-16.469999313354492 14.104999542236328,-15.90999984741211 C50.415000915527344,-10.079999923706055 73.71499633789062,-0.17000000178813934 75.09500122070312,25.389999389648438 C76.41500091552734,50.060001373291016 62.98500061035156,74.80000305175781 14.104999542236328,78.13999938964844z"
           id="path16" /></g></g><g
       style="display: block;"
       transform="matrix(0.949999988079071,0,0,0.949999988079071,117.7346420288086,315.7648010253906)"
       opacity="1"
       id="g20"><g
         opacity="1"
         transform="matrix(1,0,0,1,56.323001861572266,56.14099884033203)"
         id="g19"><path
           fill="rgb(70,70,70)"
           fill-opacity="1"
           d=" M9.0649995803833,-11.118000030517578 C9.0649995803833,-11.118000030517578 51.86800003051758,-53.91999816894531 51.86800003051758,-53.91999816894531 C51.86800003051758,-53.91999816894531 -56.07400131225586,-55.89099884033203 -56.07400131225586,-55.89099884033203 C-56.07400131225586,-55.89099884033203 -54.10200119018555,52.04800033569336 -54.10200119018555,52.04800033569336 C-54.10200119018555,52.04800033569336 -10.937000274658203,8.881999969482422 -10.937000274658203,8.881999969482422 C-10.937000274658203,8.881999969482422 45.972999572753906,55.89099884033203 45.972999572753906,55.89099884033203 C45.972999572753906,55.89099884033203 56.07400131225586,45.790000915527344 56.07400131225586,45.790000915527344 C56.07400131225586,45.790000915527344 9.0649995803833,-11.118000030517578 9.0649995803833,-11.118000030517578z"
           id="path18" /></g></g><g
       style="display: block;"
       transform="matrix(0.949999988079071,0,0,0.949999988079071,119.39049530029297,317.0159606933594)"
       opacity="1"
       id="g24"><g
         opacity="1"
         transform="matrix(1,0,0,1,101.7490005493164,101.80899810791016)"
         id="g21"><path
           fill="rgb(133,133,133)"
           fill-opacity="1"
           d=" M8.90999984741211,-1.1950000524520874 C8.90999984741211,-1.1950000524520874 -1.2000000476837158,8.904999732971191 -1.2000000476837158,8.904999732971191 C-1.2000000476837158,8.904999732971191 -8.90999984741211,2.5350000858306885 -8.90999984741211,2.5350000858306885 C-8.90999984741211,2.5350000858306885 2.5399999618530273,-8.904999732971191 2.5399999618530273,-8.904999732971191 C2.5399999618530273,-8.904999732971191 8.90999984741211,-1.1950000524520874 8.90999984741211,-1.1950000524520874z"
           id="path20" /></g><g
         opacity="1"
         transform="matrix(1,0,0,1,27.437999725341797,82.2030029296875)"
         id="g22"><path
           fill="rgb(133,133,133)"
           fill-opacity="1"
           d=" M-27.18899917602539,12.13700008392334 C-27.18899917602539,12.13700008392334 4.369999885559082,-20.09600067138672 4.369999885559082,-20.09600067138672 C8.446999549865723,-24.3439998626709 15.131999969482422,-24.67099952697754 19.604999542236328,-20.841999053955078 C19.604999542236328,-20.841999053955078 27.18899917602539,-13.96399974822998 27.18899917602539,-13.96399974822998 C27.18899917602539,-13.96399974822998 13.883000373840332,-17.30699920654297 13.883000373840332,-17.30699920654297 C13.883000373840332,-17.30699920654297 -26.959999084472656,24.67099952697754 -26.959999084472656,24.67099952697754 C-26.959999084472656,24.67099952697754 -27.18899917602539,12.13700008392334 -27.18899917602539,12.13700008392334z"
           id="path21" /></g><g
         opacity="1"
         transform="matrix(1,0,0,1,82.07499694824219,27.437999725341797)"
         id="g23"><path
           fill="rgb(133,133,133)"
           fill-opacity="1"
           d=" M12.13700008392334,-27.18899917602539 C12.13700008392334,-27.18899917602539 -20.09600067138672,4.370999813079834 -20.09600067138672,4.370999813079834 C-24.3439998626709,8.447999954223633 -24.67099952697754,15.131999969482422 -20.841999053955078,19.604999542236328 C-20.841999053955078,19.604999542236328 -13.96399974822998,27.18899917602539 -13.96399974822998,27.18899917602539 C-13.96399974822998,27.18899917602539 -17.30699920654297,13.883999824523926 -17.30699920654297,13.883999824523926 C-17.30699920654297,13.883999824523926 24.67099952697754,-26.959999084472656 24.67099952697754,-26.959999084472656 C24.67099952697754,-26.959999084472656 12.13700008392334,-27.18899917602539 12.13700008392334,-27.18899917602539z"
           id="path22" /></g></g><g
       style="display: block;"
       transform="matrix(0.949999988079071,0,0,0.949999988079071,99.01203918457031,297.041259765625)"
       opacity="1"
       id="g26"><g
         opacity="1"
         transform="matrix(1,0,0,1,76.052001953125,75.87100219726562)"
         id="g25"><path
           stroke-linecap="round"
           stroke-linejoin="round"
           fill-opacity="0"
           stroke="rgb(29,29,27)"
           stroke-opacity="1"
           stroke-width="8"
           d=" M9.043999671936035,-11.138999938964844 C9.043999671936035,-11.138999938964844 51.84600067138672,-53.941001892089844 51.84600067138672,-53.941001892089844 C51.84600067138672,-53.941001892089844 -51.07500076293945,-55.82099914550781 -51.07500076293945,-55.82099914550781 C-53.81700134277344,-55.87099838256836 -56.053001403808594,-53.63399887084961 -56.00299835205078,-50.891998291015625 C-56.00299835205078,-50.891998291015625 -54.124000549316406,52.02799987792969 -54.124000549316406,52.02799987792969 C-54.124000549316406,52.02799987792969 -10.958000183105469,8.862000465393066 -10.958000183105469,8.862000465393066 C-10.958000183105469,8.862000465393066 45.95100021362305,55.87099838256836 45.95100021362305,55.87099838256836 C45.95100021362305,55.87099838256836 56.051998138427734,45.77000045776367 56.051998138427734,45.77000045776367 C56.051998138427734,45.77000045776367 9.043999671936035,-11.138999938964844 9.043999671936035,-11.138999938964844z"
           id="path24" /></g></g><g
       style="display: block;"
       transform="matrix(0.949999988079071,0,0,0.949999988079071,287.9537353515625,88.47635650634766)"
       opacity="1"
       id="g28"><g
         opacity="1"
         transform="matrix(1,0,0,1,56.323001861572266,56.141998291015625)"
         id="g27"><path
           fill="rgb(70,70,70)"
           fill-opacity="1"
           d=" M-9.064000129699707,11.118000030517578 C-9.064000129699707,11.118000030517578 -51.86800003051758,53.91999816894531 -51.86800003051758,53.91999816894531 C-51.86800003051758,53.91999816894531 56.07400131225586,55.89099884033203 56.07400131225586,55.89099884033203 C56.07400131225586,55.89099884033203 54.10200119018555,-52.04899978637695 54.10200119018555,-52.04899978637695 C54.10200119018555,-52.04899978637695 10.935999870300293,-8.881999969482422 10.935999870300293,-8.881999969482422 C10.935999870300293,-8.881999969482422 -45.972999572753906,-55.89099884033203 -45.972999572753906,-55.89099884033203 C-45.972999572753906,-55.89099884033203 -56.07400131225586,-45.79100036621094 -56.07400131225586,-45.79100036621094 C-56.07400131225586,-45.79100036621094 -9.064000129699707,11.118000030517578 -9.064000129699707,11.118000030517578z"
           id="path26" /></g></g><g
       style="display: block;"
       transform="matrix(0.949999988079071,0,0,0.949999988079071,291.94659423828125,180.79640197753906)"
       opacity="1"
       id="g32"><g
         opacity="1"
         transform="matrix(1,0,0,1,54.220001220703125,8.902000427246094)"
         id="g29"><path
           fill="rgb(133,133,133)"
           fill-opacity="1"
           d=" M53.970001220703125,5.947999954223633 C53.970001220703125,5.947999954223633 -53.970001220703125,4.133999824523926 -53.970001220703125,4.133999824523926 C-53.970001220703125,4.133999824523926 -43.02000045776367,-5.947999954223633 -43.02000045776367,-5.947999954223633 C-43.02000045776367,-5.947999954223633 53.75899887084961,-4.540999889373779 53.75899887084961,-4.540999889373779 C53.75899887084961,-4.540999889373779 53.970001220703125,5.947999954223633 53.970001220703125,5.947999954223633z"
           id="path28" /></g><g
         opacity="1"
         transform="matrix(1,0,0,1,0,0)"
         id="g30"><path
           stroke-linecap="round"
           stroke-linejoin="round"
           fill-opacity="0"
           stroke="rgb(255,255,255)"
           stroke-opacity="1"
           stroke-width="6"
           d="M0 0"
           id="path29" /></g><g
         opacity="1"
         transform="matrix(1,0,0,1,0,0)"
         id="g31"><path
           stroke-linecap="round"
           stroke-linejoin="round"
           fill-opacity="0"
           stroke="rgb(255,255,255)"
           stroke-opacity="1"
           stroke-width="6"
           d="M0 0"
           id="path30" /></g></g><g
       style="display: block;"
       transform="matrix(0.949999988079071,0,0,0.949999988079071,269.1912536621094,69.71385192871094)"
       opacity="1"
       id="g34"><g
         opacity="1"
         transform="matrix(1,0,0,1,76.052001953125,75.87100219726562)"
         id="g33"><path
           stroke-linecap="round"
           stroke-linejoin="round"
           fill-opacity="0"
           stroke="rgb(29,29,27)"
           stroke-opacity="1"
           stroke-width="8"
           d=" M-9.043000221252441,11.138999938964844 C-9.043000221252441,11.138999938964844 -51.84600067138672,53.941001892089844 -51.84600067138672,53.941001892089844 C-51.84600067138672,53.941001892089844 51.07400131225586,55.82099914550781 51.07400131225586,55.82099914550781 C53.816001892089844,55.87099838256836 56.053001403808594,53.6349983215332 56.00299835205078,50.891998291015625 C56.00299835205078,50.891998291015625 54.124000549316406,-52.02799987792969 54.124000549316406,-52.02799987792969 C54.124000549316406,-52.02799987792969 10.956999778747559,-8.862000465393066 10.956999778747559,-8.862000465393066 C10.956999778747559,-8.862000465393066 -45.95199966430664,-55.87099838256836 -45.95199966430664,-55.87099838256836 C-45.95199966430664,-55.87099838256836 -56.051998138427734,-45.77000045776367 -56.051998138427734,-45.77000045776367 C-56.051998138427734,-45.77000045776367 -9.043000221252441,11.138999938964844 -9.043000221252441,11.138999938964844z"
           id="path32" /></g></g></g><g
     id="g45"
     transform="translate(8,-4)"><path
       id="path46"
       style="baseline-shift:baseline;display:inline;overflow:visible;vector-effect:none;fill:#005091;stroke-linejoin:round;stroke-dashoffset:1541.55;enable-background:accumulate;stop-color:#000000"
       d="M 258.11523 241.74414 C 253.57745 241.74614 250.91183 247.14811 253.67188 250.75 L 300.66992 312.04883 L 257.25 312.04883 C 254.17636 312.04914 251.6507 314.5748 251.65039 317.64844 L 251.65039 343.04883 C 251.6507 346.12247 254.17636 348.64813 257.25 348.64844 L 310.95898 348.64844 L 310.95898 358.52148 L 257.25 358.52148 C 254.17636 358.52179 251.6507 361.04746 251.65039 364.12109 L 251.65039 389.52148 C 251.6507 392.59512 254.17636 395.12079 257.25 395.12109 L 310.95898 395.12109 L 310.95898 450.62305 C 310.95929 453.69669 313.48496 456.22235 316.55859 456.22266 L 341.95898 456.22266 C 345.03262 456.22235 347.55829 453.69669 347.55859 450.62305 L 347.55859 395.12109 L 401.26562 395.12109 C 404.33927 395.12079 406.86493 392.59512 406.86523 389.52148 L 406.86523 364.12109 C 406.86493 361.04746 404.33927 358.52179 401.26562 358.52148 L 347.55859 358.52148 L 347.55859 348.64844 L 401.26562 348.64844 C 404.33927 348.64813 406.86493 346.12247 406.86523 343.04883 L 406.86523 317.64844 C 406.86493 314.5748 404.33927 312.04914 401.26562 312.04883 L 357.84766 312.04883 L 404.8457 250.75 C 407.60575 247.1481 404.9401 241.74585 400.40234 241.74414 L 368.39453 241.74414 C 366.65438 241.74453 365.00994 242.55651 363.95117 243.9375 L 329.25781 289.1875 L 294.56445 243.9375 C 293.50568 242.55651 291.86124 241.74453 290.12109 241.74414 L 258.11523 241.74414 z M 269.46289 252.94336 L 287.35742 252.94336 L 324.81445 301.79688 A 1.60016 1.60016 0 0 0 324.81445 301.79883 C 325.46535 302.64758 326.3759 303.21278 327.37109 303.57617 L 327.98828 304.37891 A 1.60016 1.60016 0 0 0 330.52734 304.37695 L 331.13867 303.57812 C 332.1362 303.21526 333.04892 302.64906 333.70117 301.79883 A 1.60016 1.60016 0 0 0 333.70117 301.79688 L 371.15625 252.94336 L 389.05469 252.94336 L 342.05664 314.24219 C 341.40451 315.09307 341.09335 316.12177 341.00195 317.17969 C 340.78294 317.46547 340.56451 317.75169 340.3457 318.03711 L 339.05078 319.72656 A 1.60016 1.60016 0 0 0 340.32031 322.29883 L 343.5293 322.29883 C 344.42388 322.86914 345.42894 323.24771 346.5 323.24805 L 395.66602 323.24805 L 395.66602 337.44922 L 341.95898 337.44922 C 340.88691 337.44912 339.88164 337.82947 338.98633 338.40039 L 338.9082 338.40039 A 1.60016 1.60016 0 0 0 338.79883 338.50977 C 338.65017 338.61294 338.47293 338.66325 338.33398 338.78125 L 338.4668 338.73242 A 1.60016 1.60016 0 0 0 337.63672 339.56836 L 337.6875 339.42773 C 337.57033 339.56592 337.5205 339.74285 337.41797 339.89062 A 1.60016 1.60016 0 0 0 337.30859 340 L 337.30859 340.07812 C 336.73828 340.97271 336.35971 341.97777 336.35938 343.04883 L 336.35938 364.12109 C 336.35971 365.19215 336.73828 366.19722 337.30859 367.0918 L 337.30859 367.17188 A 1.60016 1.60016 0 0 0 337.41992 367.2832 C 337.52173 367.4297 337.57128 367.60513 337.6875 367.74219 L 337.63867 367.60938 A 1.60016 1.60016 0 0 0 338.4707 368.44141 L 338.33789 368.39258 C 338.47495 368.50879 338.65039 368.55834 338.79688 368.66016 A 1.60016 1.60016 0 0 0 338.9082 368.77148 L 338.98828 368.77148 C 339.88286 369.34179 340.88793 369.72037 341.95898 369.7207 L 395.66602 369.7207 L 395.66602 383.92188 L 341.95898 383.92188 C 340.88691 383.92178 339.88164 384.30212 338.98633 384.87305 L 338.9082 384.87305 A 1.60016 1.60016 0 0 0 338.79883 384.98242 C 338.65017 385.0856 338.47293 385.13591 338.33398 385.25391 L 338.4668 385.20508 A 1.60016 1.60016 0 0 0 337.63672 386.04102 L 337.6875 385.90039 C 337.57033 386.03857 337.5205 386.21551 337.41797 386.36328 A 1.60016 1.60016 0 0 0 337.30859 386.47266 L 337.30859 386.55078 C 336.73828 387.44536 336.35971 388.45043 336.35938 389.52148 L 336.35938 445.02344 L 322.1582 445.02344 L 322.1582 389.52148 C 322.1583 388.44941 321.77796 387.44414 321.20703 386.54883 L 321.20703 386.47266 A 1.60016 1.60016 0 0 0 321.09961 386.36523 C 320.99572 386.2153 320.94512 386.03656 320.82617 385.89648 L 320.87695 386.03711 A 1.60016 1.60016 0 0 0 320.04297 385.20312 L 320.18359 385.25391 C 320.04352 385.13495 319.86478 385.08436 319.71484 384.98047 A 1.60016 1.60016 0 0 0 319.60742 384.87305 L 319.53125 384.87305 C 318.63593 384.30212 317.63067 383.92178 316.55859 383.92188 L 262.84961 383.92188 L 262.84961 369.7207 L 316.55859 369.7207 C 317.62965 369.72037 318.63471 369.34179 319.5293 368.77148 L 319.60742 368.77148 A 1.60016 1.60016 0 0 0 319.7168 368.66211 C 319.86457 368.55958 320.0415 368.50975 320.17969 368.39258 L 320.03906 368.44336 A 1.60016 1.60016 0 0 0 320.875 367.61328 L 320.82617 367.74609 C 320.94417 367.60715 320.99448 367.42991 321.09766 367.28125 A 1.60016 1.60016 0 0 0 321.20703 367.17188 L 321.20703 367.09375 C 321.77796 366.19843 322.1583 365.19317 322.1582 364.12109 L 322.1582 343.04883 C 322.1583 341.97675 321.77796 340.97149 321.20703 340.07617 L 321.20703 340 A 1.60016 1.60016 0 0 0 321.09961 339.89258 C 320.99572 339.74264 320.94512 339.5639 320.82617 339.42383 L 320.87695 339.56445 A 1.60016 1.60016 0 0 0 320.04297 338.73047 L 320.18359 338.78125 C 320.04352 338.6623 319.86478 338.6117 319.71484 338.50781 A 1.60016 1.60016 0 0 0 319.60742 338.40039 L 319.53125 338.40039 C 318.63593 337.82946 317.63067 337.44912 316.55859 337.44922 L 262.84961 337.44922 L 262.84961 323.24805 L 312.01758 323.24805 C 313.08863 323.24771 314.0937 322.86914 314.98828 322.29883 L 318.19727 322.29883 A 1.60016 1.60016 0 0 0 319.46875 319.72656 L 318.17578 318.03711 A 1.60016 1.60016 0 0 0 318.17383 318.03711 C 317.95403 317.75036 317.73508 317.46392 317.51562 317.17773 C 317.42413 316.12017 317.11282 315.0928 316.46094 314.24219 L 269.46289 252.94336 z " /><path
       style="baseline-shift:baseline;display:inline;overflow:visible;vector-effect:none;fill:#43c5ff;fill-opacity:1;stroke-dashoffset:1541.55;enable-background:accumulate;stop-color:#000000"
       d="m 264.63646,252.5613 c 17.14426,22.36284 34.29082,44.72391 51.4336,67.08789 -18.94011,0 -37.88021,0 -56.82032,0 0,7.13346 0,14.26693 0,21.40039 19.76954,0 39.53907,0 59.3086,0 0,8.35742 0,16.71484 0,25.07226 -19.76953,0 -39.53906,10e-6 -59.3086,0 0,7.13347 0,14.26693 0,21.4004 19.76954,0 39.53907,0 59.3086,0 0,20.36718 0,40.73437 0,61.10156 7.13346,0 14.26692,0 21.40039,0 0,-20.36719 0,-40.73438 0,-61.10156 19.76888,0 39.53776,0 59.30664,0 0,-7.13347 0,-14.26693 0,-21.4004 -19.76888,10e-6 -39.53776,0 -59.30664,0 0,-8.35742 0,-16.71484 0,-25.07226 19.76888,0 39.53776,0 59.30664,0 0,-7.13346 0,-14.26693 0,-21.40039 -18.9388,0 -37.87761,0 -56.81641,0 17.96525,-23.43509 35.93255,-46.8686 53.89649,-70.30469 -8.98698,0 -17.97396,0 -26.96094,0 -13.37698,17.44364 -26.75108,34.88949 -40.12695,52.33399 -13.37588,-17.4445 -26.74997,-34.89035 -40.12696,-52.33399 -8.98633,0 -17.97265,0 -26.95898,0 0.82161,1.07227 1.64323,2.14453 2.46484,3.2168 z"
       id="path43" /><path
       id="path43-37"
       style="baseline-shift:baseline;display:inline;overflow:visible;vector-effect:none;fill:#0b9ae8;stroke-dashoffset:1541.55;enable-background:accumulate;stop-color:#000000"
       d="m 268.17188,249.34375 53.89843,70.30469 h -6 H 288.66016 259.25 v 17.40039 h 59.30859 v 4 21.07226 4 c -19.76953,0 -39.53905,1e-5 -59.30859,0 v 17.40039 h 59.30859 v 4 57.10157 h 21.40039 v -57.10157 -4 h 59.30664 v -17.40039 c -19.76888,1e-5 -39.53776,0 -59.30664,0 v -4 -21.07226 -4 h 59.30664 v -17.40039 h -29.4082 -16.70508 -10.70312 -6 l 53.89648,-70.30469 h -20.96093 c -13.37698,17.44364 -26.75109,34.88948 -40.12696,52.33398 -13.37588,-17.4445 -26.74996,-34.89034 -40.12695,-52.33398 z" /></g></svg>
