<svg xmlns="http://www.w3.org/2000/svg" xmlns:xlink="http://www.w3.org/1999/xlink" viewBox="0 0 512 512" width="512" height="512" style="width: 100%; height: 100%; transform: translate3d(0,0,0);" preserveAspectRatio="xMidYMid meet"><defs><clipPath id="__lottie_element_27517"><rect width="512" height="512" x="0" y="0"/></clipPath><linearGradient id="__lottie_element_27522" spreadMethod="pad" gradientUnits="userSpaceOnUse"><stop/><stop/><stop/></linearGradient><linearGradient id="__lottie_element_27526" spreadMethod="pad" gradientUnits="userSpaceOnUse"><stop/><stop/><stop/></linearGradient><linearGradient id="__lottie_element_27532" spreadMethod="pad" gradientUnits="userSpaceOnUse"><stop/><stop/><stop/><stop/><stop/></linearGradient><radialGradient id="__lottie_element_27546" spreadMethod="pad" gradientUnits="userSpaceOnUse"><stop/><stop/><stop/></radialGradient><radialGradient id="__lottie_element_27550" spreadMethod="pad" gradientUnits="userSpaceOnUse"><stop/><stop/><stop/></radialGradient><linearGradient id="__lottie_element_27563" spreadMethod="pad" gradientUnits="userSpaceOnUse"><stop/><stop/><stop/><stop/><stop/></linearGradient><linearGradient id="__lottie_element_27567" spreadMethod="pad" gradientUnits="userSpaceOnUse"><stop/><stop/><stop/></linearGradient><linearGradient id="__lottie_element_27571" spreadMethod="pad" gradientUnits="userSpaceOnUse"><stop/><stop/><stop/></linearGradient><linearGradient id="__lottie_element_27575" spreadMethod="pad" gradientUnits="userSpaceOnUse"><stop/><stop/><stop/></linearGradient><linearGradient id="__lottie_element_27579" spreadMethod="pad" gradientUnits="userSpaceOnUse"><stop/><stop/><stop/></linearGradient><linearGradient id="__lottie_element_27583" spreadMethod="pad" gradientUnits="userSpaceOnUse"><stop/><stop/><stop/></linearGradient><linearGradient id="__lottie_element_27587" spreadMethod="pad" gradientUnits="userSpaceOnUse"><stop/><stop/><stop/></linearGradient><linearGradient id="__lottie_element_27591" spreadMethod="pad" gradientUnits="userSpaceOnUse"><stop/><stop/><stop/></linearGradient><linearGradient id="__lottie_element_27595" spreadMethod="pad" gradientUnits="userSpaceOnUse"><stop/><stop/><stop/></linearGradient><linearGradient id="__lottie_element_27599" spreadMethod="pad" gradientUnits="userSpaceOnUse"><stop/><stop/><stop/></linearGradient><linearGradient id="__lottie_element_27603" spreadMethod="pad" gradientUnits="userSpaceOnUse"><stop/><stop/><stop/></linearGradient><linearGradient id="__lottie_element_27607" spreadMethod="pad" gradientUnits="userSpaceOnUse"><stop/><stop/><stop/></linearGradient><linearGradient id="__lottie_element_27611" spreadMethod="pad" gradientUnits="userSpaceOnUse"><stop/><stop/><stop/></linearGradient><linearGradient id="__lottie_element_27615" spreadMethod="pad" gradientUnits="userSpaceOnUse"><stop/><stop/><stop/></linearGradient><linearGradient id="__lottie_element_27620" spreadMethod="pad" gradientUnits="userSpaceOnUse" x1="-0.20100000500679016" y1="-163.00799560546875" x2="-0.20100000500679016" y2="41.22700119018555"><stop offset="15%" stop-color="rgb(222,73,67)"/><stop offset="32%" stop-color="rgb(198,56,54)"/><stop offset="49%" stop-color="rgb(173,38,40)"/><stop offset="73%" stop-color="rgb(160,32,35)"/><stop offset="100%" stop-color="rgb(148,27,30)"/></linearGradient><linearGradient id="__lottie_element_27629" spreadMethod="pad" gradientUnits="userSpaceOnUse"><stop/><stop/><stop/><stop/><stop/></linearGradient><linearGradient id="__lottie_element_27633" spreadMethod="pad" gradientUnits="userSpaceOnUse"><stop/><stop/><stop/></linearGradient><radialGradient id="__lottie_element_27649" spreadMethod="pad" gradientUnits="userSpaceOnUse" cx="-0.7099999785423279" cy="0.871999979019165" r="19.051999032497406" fx="-0.7099999785423279" fy="0.871999979019165"><stop offset="0%" stop-color="rgb(255,84,6)" stop-opacity="1"/><stop offset="59%" stop-color="rgb(255,84,6)" stop-opacity="0.5"/><stop offset="100%" stop-color="rgb(255,84,6)" stop-opacity="0"/></radialGradient><radialGradient id="__lottie_element_27653" spreadMethod="pad" gradientUnits="userSpaceOnUse" cx="-0.5879999995231628" cy="0.871999979019165" r="19.05200070142746" fx="-0.5879999995231628" fy="0.871999979019165"><stop offset="0%" stop-color="rgb(255,84,6)" stop-opacity="1"/><stop offset="59%" stop-color="rgb(255,84,6)" stop-opacity="0.5"/><stop offset="100%" stop-color="rgb(255,84,6)" stop-opacity="0"/></radialGradient><linearGradient id="__lottie_element_27666" spreadMethod="pad" gradientUnits="userSpaceOnUse" x1="-0.1850000023841858" y1="-107.11799621582031" x2="-0.1850000023841858" y2="180.80599975585938"><stop offset="18%" stop-color="rgb(214,77,73)"/><stop offset="33%" stop-color="rgb(214,64,58)"/><stop offset="50%" stop-color="rgb(215,51,44)"/><stop offset="78%" stop-color="rgb(191,45,42)"/><stop offset="100%" stop-color="rgb(167,39,39)"/></linearGradient><linearGradient id="__lottie_element_27670" spreadMethod="pad" gradientUnits="userSpaceOnUse" x1="-84.84300231933594" y1="-113.03500366210938" x2="-101.64399719238281" y2="-23.507999420166016"><stop offset="0%" stop-color="rgb(255,225,101)"/><stop offset="67%" stop-color="rgb(255,206,53)"/><stop offset="100%" stop-color="rgb(255,186,4)"/></linearGradient><linearGradient id="__lottie_element_27674" spreadMethod="pad" gradientUnits="userSpaceOnUse" x1="-74.07599639892578" y1="-72.37200164794922" x2="-85.8270034790039" y2="-10.038000106811523"><stop offset="0%" stop-color="rgb(255,203,76)"/><stop offset="65%" stop-color="rgb(255,187,40)"/><stop offset="100%" stop-color="rgb(255,172,4)"/></linearGradient><linearGradient id="__lottie_element_27678" spreadMethod="pad" gradientUnits="userSpaceOnUse" x1="3.6070001125335693" y1="-107.81300354003906" x2="-3.2899999618530273" y2="-1.3949999809265137"><stop offset="0%" stop-color="rgb(255,225,101)"/><stop offset="67%" stop-color="rgb(255,206,53)"/><stop offset="100%" stop-color="rgb(255,186,4)"/></linearGradient><linearGradient id="__lottie_element_27682" spreadMethod="pad" gradientUnits="userSpaceOnUse" x1="13.994000434875488" y1="-107.37200164794922" x2="7.925000190734863" y2="-61.0989990234375"><stop offset="0%" stop-color="rgb(255,203,76)"/><stop offset="53%" stop-color="rgb(255,187,40)"/><stop offset="100%" stop-color="rgb(255,172,4)"/></linearGradient><linearGradient id="__lottie_element_27686" spreadMethod="pad" gradientUnits="userSpaceOnUse" x1="25.548999786376953" y1="-79.00900268554688" x2="5.548999786376953" y2="-20.673999786376953"><stop offset="0%" stop-color="rgb(255,203,76)"/><stop offset="53%" stop-color="rgb(255,187,40)"/><stop offset="100%" stop-color="rgb(255,172,4)"/></linearGradient><linearGradient id="__lottie_element_27690" spreadMethod="pad" gradientUnits="userSpaceOnUse" x1="-2.427999973297119" y1="-99.68000030517578" x2="3.6470000743865967" y2="-0.9480000138282776"><stop offset="0%" stop-color="rgb(255,225,101)"/><stop offset="72%" stop-color="rgb(255,202,53)"/><stop offset="100%" stop-color="rgb(255,179,4)"/></linearGradient><linearGradient id="__lottie_element_27694" spreadMethod="pad" gradientUnits="userSpaceOnUse" x1="-11.335000038146973" y1="-120.58899688720703" x2="-6.326000213623047" y2="-66.11599731445312"><stop offset="0%" stop-color="rgb(255,203,76)"/><stop offset="53%" stop-color="rgb(255,181,47)"/><stop offset="100%" stop-color="rgb(255,158,18)"/></linearGradient><linearGradient id="__lottie_element_27698" spreadMethod="pad" gradientUnits="userSpaceOnUse" x1="-27.591999053955078" y1="-78.35700225830078" x2="-12.635000228881836" y2="-16.867000579833984"><stop offset="0%" stop-color="rgb(255,203,76)"/><stop offset="53%" stop-color="rgb(255,187,40)"/><stop offset="100%" stop-color="rgb(255,172,4)"/></linearGradient><linearGradient id="__lottie_element_27702" spreadMethod="pad" gradientUnits="userSpaceOnUse" x1="-22.95599937438965" y1="-101.19300079345703" x2="0.5830000042915344" y2="5.293000221252441"><stop offset="0%" stop-color="rgb(255,225,101)"/><stop offset="59%" stop-color="rgb(255,206,53)"/><stop offset="100%" stop-color="rgb(255,186,4)"/></linearGradient><linearGradient id="__lottie_element_27706" spreadMethod="pad" gradientUnits="userSpaceOnUse" x1="22.084999084472656" y1="-101.4990005493164" x2="-3.059000015258789" y2="-1.9299999475479126"><stop offset="0%" stop-color="rgb(255,225,101)"/><stop offset="59%" stop-color="rgb(255,206,53)"/><stop offset="100%" stop-color="rgb(255,186,4)"/></linearGradient><linearGradient id="__lottie_element_27710" spreadMethod="pad" gradientUnits="userSpaceOnUse" x1="-30.13599967956543" y1="-96.87200164794922" x2="-6.421999931335449" y2="-16.447999954223633"><stop offset="0%" stop-color="rgb(255,225,101)"/><stop offset="59%" stop-color="rgb(255,206,53)"/><stop offset="100%" stop-color="rgb(255,186,4)"/></linearGradient><linearGradient id="__lottie_element_27714" spreadMethod="pad" gradientUnits="userSpaceOnUse" x1="-14.190999984741211" y1="-91.18199920654297" x2="-1.8600000143051147" y2="-5.550000190734863"><stop offset="0%" stop-color="rgb(255,225,101)"/><stop offset="59%" stop-color="rgb(255,206,53)"/><stop offset="100%" stop-color="rgb(255,186,4)"/></linearGradient><linearGradient id="__lottie_element_27718" spreadMethod="pad" gradientUnits="userSpaceOnUse" x1="-299.04901123046875" y1="17.131000518798828" x2="-265.2510070800781" y2="-34.45100021362305"><stop offset="0%" stop-color="rgb(255,225,109)"/><stop offset="59%" stop-color="rgb(255,206,57)"/><stop offset="100%" stop-color="rgb(255,186,4)"/></linearGradient><linearGradient id="__lottie_element_27725" spreadMethod="pad" gradientUnits="userSpaceOnUse"><stop/><stop/><stop/></linearGradient><linearGradient id="__lottie_element_27732" spreadMethod="pad" gradientUnits="userSpaceOnUse" x1="-0.20100000500679016" y1="-146.59500122070312" x2="-0.20100000500679016" y2="-67.177001953125"><stop offset="0%" stop-color="rgb(236,42,37)"/><stop offset="39%" stop-color="rgb(197,33,30)"/><stop offset="100%" stop-color="rgb(157,23,23)"/></linearGradient></defs><g clip-path="url(#__lottie_element_27517)"><g style="display: block;" transform="matrix(1.0399999618530273,0,0,1.0399999618530273,255.12640380859375,196.6372833251953)" opacity="1"><g opacity="1" transform="matrix(1,0,0,1,0,0)"><path fill="url(#__lottie_element_27732)" fill-opacity="1" d=" M-186.90199279785156,-53.88199996948242 C-186.90199279785156,-53.88199996948242 -162.51400756835938,-59.9379997253418 -162.51400756835938,-59.9379997253418 C-162.51400756835938,-59.9379997253418 -104.16000366210938,-145.781005859375 0.8230000138282776,-145.781005859375 C101.83999633789062,-145.781005859375 160.9340057373047,-61.16999816894531 160.9340057373047,-61.16999816894531 C160.9340057373047,-61.16999816894531 186.85499572753906,-53.50299835205078 186.85499572753906,-53.50299835205078 C186.85499572753906,-53.50299835205078 180.08599853515625,51.88999938964844 153.85699462890625,226.07699584960938 C153.85699462890625,226.07699584960938 94.62899780273438,260.7669982910156 94.62899780273438,260.7669982910156 C94.62899780273438,260.7669982910156 7.6519999504089355,272.2760009765625 -93.20700073242188,260.7669982910156 C-93.20700073242188,260.7669982910156 -152.4340057373047,226.92300415039062 -152.4340057373047,226.92300415039062 C-172.74099731445312,88.97899627685547 -186.90199279785156,-53.88199996948242 -186.90199279785156,-53.88199996948242z"/></g></g><g style="display: block;" transform="matrix(1.0399999618530273,0,0,1.0399999618530273,255.12640380859375,196.6372833251953)" opacity="1"><g opacity="1" transform="matrix(1,0,0,1,0,0)"><path stroke-linecap="round" stroke-linejoin="round" fill-opacity="0" stroke="rgb(140,11,11)" stroke-opacity="1" stroke-width="8" d=" M-186.90199279785156,-53.88199996948242 C-186.90199279785156,-53.88199996948242 -162.51400756835938,-59.9379997253418 -162.51400756835938,-59.9379997253418 C-162.51400756835938,-59.9379997253418 -104.16000366210938,-145.781005859375 0.8230000138282776,-145.781005859375 C101.83999633789062,-145.781005859375 160.9340057373047,-61.16999816894531 160.9340057373047,-61.16999816894531 C160.9340057373047,-61.16999816894531 186.85499572753906,-53.50299835205078 186.85499572753906,-53.50299835205078 C186.85499572753906,-53.50299835205078 180.08599853515625,51.88999938964844 153.85699462890625,226.07699584960938 C153.85699462890625,226.07699584960938 94.62899780273438,260.7669982910156 94.62899780273438,260.7669982910156 C94.62899780273438,260.7669982910156 7.6519999504089355,272.2760009765625 -93.20700073242188,260.7669982910156 C-93.20700073242188,260.7669982910156 -152.4340057373047,226.92300415039062 -152.4340057373047,226.92300415039062 C-172.74099731445312,88.97899627685547 -186.90199279785156,-53.88199996948242 -186.90199279785156,-53.88199996948242z"/></g></g><g style="display: block;" transform="matrix(1.0399999618530273,0,0,1.0399999618530273,-10.239986419677734,-26.839984893798828)" opacity="1"><g opacity="1" transform="matrix(1,0,0,1,0,0)"><g opacity="1" transform="matrix(1,0,0,1,228.95399475097656,197.5989990234375)"><path fill="url(#__lottie_element_27718)" fill-opacity="1" d=" M8.760000228881836,-115.02200317382812 C8.760000228881836,-115.02200317382812 -5.370999813079834,-114.22899627685547 -25.45400047302246,-109.30999755859375 C-25.45400047302246,-109.30999755859375 -6.216000080108643,-38.92300033569336 -1.6790000200271606,111.88400268554688 C-1.6790000200271606,111.88400268554688 25.41900062561035,115.02200317382812 25.41900062561035,115.02200317382812 C25.41900062561035,115.02200317382812 27.01300048828125,2.2190001010894775 8.760000228881836,-115.02200317382812z"/></g><g opacity="0.3" transform="matrix(1,0,0,1,228.20899963378906,162.47000122070312)"><path fill="rgb(255,255,255)" fill-opacity="1" d=" M-24.71299934387207,-74.18299865722656 C-24.71299934387207,-74.18299865722656 -23.724000930786133,-70.56500244140625 -22.13800048828125,-63.20600128173828 C-22.13800048828125,-63.20600128173828 0.8610000014305115,-66.87000274658203 0.8610000014305115,-66.87000274658203 C0.8610000014305115,-66.87000274658203 12.642999649047852,-6.7129998207092285 24.71299934387207,79.89099884033203 C22.847999572753906,36.95500183105469 18.691999435424805,-20.905000686645508 9.508000373840332,-79.89099884033203 C9.508000373840332,-79.89099884033203 -4.624000072479248,-79.09600067138672 -24.71299934387207,-74.18299865722656z"/></g><g opacity="1" transform="matrix(1,0,0,1,228.95399475097656,197.5989990234375)"><path stroke-linecap="round" stroke-linejoin="round" fill-opacity="0" stroke="rgb(234,162,0)" stroke-opacity="1" stroke-width="8" d=" M8.760000228881836,-115.02200317382812 C8.760000228881836,-115.02200317382812 -5.370999813079834,-114.22899627685547 -25.45400047302246,-109.30999755859375 C-25.45400047302246,-109.30999755859375 -6.216000080108643,-38.92300033569336 -1.6790000200271606,111.88400268554688 C-1.6790000200271606,111.88400268554688 25.41900062561035,115.02200317382812 25.41900062561035,115.02200317382812 C25.41900062561035,115.02200317382812 27.01300048828125,2.2190001010894775 8.760000228881836,-115.02200317382812z"/></g><g opacity="1" transform="matrix(1,0,0,1,252.26800537109375,197.60000610351562)"><path fill="rgb(252,173,16)" fill-opacity="1" d=" M-14.552000045776367,-115.0199966430664 C3.553999900817871,1.3040000200271606 2.124000072479248,113.26000213623047 2.0999999046325684,115 C2.0999999046325684,115 2.1050000190734863,115.0199966430664 2.1050000190734863,115.0199966430664 C2.1050000190734863,115.0199966430664 14.552000045776367,110.39199829101562 14.552000045776367,110.39199829101562 C13.164999961853027,-17.63599967956543 1.1440000534057617,-107.3010025024414 1.1440000534057617,-107.3010025024414 C1.1440000534057617,-107.3010025024414 -14.552000045776367,-115.0199966430664 -14.552000045776367,-115.0199966430664z"/><path stroke-linecap="round" stroke-linejoin="round" fill-opacity="0" stroke="rgb(224,136,10)" stroke-opacity="1" stroke-width="8" d=" M-14.552000045776367,-115.0199966430664 C3.553999900817871,1.3040000200271606 2.124000072479248,113.26000213623047 2.0999999046325684,115 C2.0999999046325684,115 2.1050000190734863,115.0199966430664 2.1050000190734863,115.0199966430664 C2.1050000190734863,115.0199966430664 14.552000045776367,110.39199829101562 14.552000045776367,110.39199829101562 C13.164999961853027,-17.63599967956543 1.1440000534057617,-107.3010025024414 1.1440000534057617,-107.3010025024414 C1.1440000534057617,-107.3010025024414 -14.552000045776367,-115.0199966430664 -14.552000045776367,-115.0199966430664z"/></g></g></g><g style="display: block;" transform="matrix(1.0399999618530273,0,0,1.0399999618530273,-10.23893928527832,-26.839984893798828)" opacity="1"><g opacity="1" transform="matrix(1,0,0,1,0,0)"><g opacity="1" transform="matrix(1,0,0,1,212.14999389648438,244.47000122070312)"><path fill="url(#__lottie_element_27714)" fill-opacity="1" d=" M-35.08000183105469,-114.10399627685547 C-35.08000183105469,-114.10399627685547 -17.726999282836914,-119.35199737548828 -1.9639999866485596,-122.15799713134766 C-1.9639999866485596,-122.15799713134766 4.201000213623047,-32.70500183105469 35.08000183105469,116.25900268554688 C35.08000183105469,116.25900268554688 10.824999809265137,122.15799713134766 10.824999809265137,122.15799713134766 C10.824999809265137,122.15799713134766 -19.6560001373291,-1.128000020980835 -35.08000183105469,-114.10399627685547z"/></g><g opacity="0.3" transform="matrix(1,0,0,1,206.01699829101562,210.13999938964844)"><path fill="rgb(255,255,255)" fill-opacity="1" d=" M4.166999816894531,-87.8239974975586 C4.166999816894531,-87.8239974975586 8.625,-23.142000198364258 28.950000762939453,87.8239974975586 C9.458000183105469,23.99799919128418 -4.396999835968018,-74.16500091552734 -4.396999835968018,-74.16500091552734 C-4.396999835968018,-74.16500091552734 -13.352999687194824,-73.31400299072266 -27.284000396728516,-68.5989990234375 C-27.284000396728516,-68.5989990234375 -28.481000900268555,-76.36199951171875 -28.950000762939453,-79.76899719238281 C-28.950000762939453,-79.76899719238281 -11.590999603271484,-85.02300262451172 4.166999816894531,-87.8239974975586z"/></g><g opacity="1" transform="matrix(1,0,0,1,212.14999389648438,244.47000122070312)"><path stroke-linecap="round" stroke-linejoin="round" fill-opacity="0" stroke="rgb(234,162,0)" stroke-opacity="1" stroke-width="8" d=" M-35.08000183105469,-114.10399627685547 C-35.08000183105469,-114.10399627685547 -17.726999282836914,-119.35199737548828 -1.9639999866485596,-122.15799713134766 C-1.9639999866485596,-122.15799713134766 4.201000213623047,-32.70500183105469 35.08000183105469,116.25900268554688 C35.08000183105469,116.25900268554688 10.824999809265137,122.15799713134766 10.824999809265137,122.15799713134766 C10.824999809265137,122.15799713134766 -19.6560001373291,-1.128000020980835 -35.08000183105469,-114.10399627685547z"/></g><g opacity="1" transform="matrix(1,0,0,1,195.61900329589844,248.49899291992188)"><path fill="rgb(255,158,18)" fill-opacity="1" d=" M27.351999282836914,118.12799835205078 C27.351999282836914,118.12799835205078 15.347999572753906,114.64700317382812 15.347999572753906,114.64700317382812 C-15.277999877929688,-22.71299934387207 -27.351999282836914,-106.7959976196289 -27.351999282836914,-106.7959976196289 C-27.351999282836914,-106.7959976196289 -18.552000045776367,-118.12799835205078 -18.552000045776367,-118.12799835205078 C-3.127000093460083,-5.1529998779296875 27.351999282836914,118.12799835205078 27.351999282836914,118.12799835205078z"/><path stroke-linecap="round" stroke-linejoin="round" fill-opacity="0" stroke="rgb(226,129,12)" stroke-opacity="1" stroke-width="8" d=" M27.351999282836914,118.12799835205078 C27.351999282836914,118.12799835205078 15.347999572753906,114.64700317382812 15.347999572753906,114.64700317382812 C-15.277999877929688,-22.71299934387207 -27.351999282836914,-106.7959976196289 -27.351999282836914,-106.7959976196289 C-27.351999282836914,-106.7959976196289 -18.552000045776367,-118.12799835205078 -18.552000045776367,-118.12799835205078 C-3.127000093460083,-5.1529998779296875 27.351999282836914,118.12799835205078 27.351999282836914,118.12799835205078z"/></g></g></g><g style="display: block;" transform="matrix(1.0399999618530273,0,0,1.0399999618530273,-10.23893928527832,-26.839984893798828)" opacity="1"><g opacity="1" transform="matrix(1,0,0,1,0,0)"><g opacity="1" transform="matrix(1,0,0,1,175.09500122070312,236.15899658203125)"><path fill="url(#__lottie_element_27710)" fill-opacity="1" d=" M-55.15999984741211,-105.1729965209961 C-55.15999984741211,-105.1729965209961 -39.02899932861328,-113.4469985961914 -24.02400016784668,-119.03299713134766 C-24.02400016784668,-119.03299713134766 -1.9229999780654907,-32.132999420166016 55.15999984741211,108.88200378417969 C55.15999984741211,108.88200378417969 32.35499954223633,119.03299713134766 32.35499954223633,119.03299713134766 C32.35499954223633,119.03299713134766 -19.732999801635742,3.2079999446868896 -55.15999984741211,-105.1729965209961z"/></g><g opacity="0.3" transform="matrix(1,0,0,1,163.43600463867188,201.30999755859375)"><path fill="rgb(255,255,255)" fill-opacity="1" d=" M-12.366000175476074,-84.18000030517578 C-12.366000175476074,-84.18000030517578 3.615000009536743,-21.344999313354492 43.50299835205078,84.18000030517578 C12.885000228881836,24.881999969482422 -18.343000411987305,-69.20700073242188 -18.343000411987305,-69.20700073242188 C-18.343000411987305,-69.20700073242188 -27.000999450683594,-66.76399993896484 -39.861000061035156,-59.62799835205078 C-39.861000061035156,-59.62799835205078 -42.430999755859375,-67.0510025024414 -43.50299835205078,-70.31900024414062 C-43.50299835205078,-70.31900024414062 -27.365999221801758,-78.5989990234375 -12.366000175476074,-84.18000030517578z"/></g><g opacity="1" transform="matrix(1,0,0,1,175.09500122070312,236.15899658203125)"><path stroke-linecap="round" stroke-linejoin="round" fill-opacity="0" stroke="rgb(234,162,0)" stroke-opacity="1" stroke-width="8" d=" M-55.15999984741211,-105.1729965209961 C-55.15999984741211,-105.1729965209961 -39.02899932861328,-113.4469985961914 -24.02400016784668,-119.03299713134766 C-24.02400016784668,-119.03299713134766 -1.9229999780654907,-32.132999420166016 55.15999984741211,108.88200378417969 C55.15999984741211,108.88200378417969 32.35499954223633,119.03299713134766 32.35499954223633,119.03299713134766 C32.35499954223633,119.03299713134766 -19.732999801635742,3.2079999446868896 -55.15999984741211,-105.1729965209961z"/></g><g opacity="1" transform="matrix(1,0,0,1,160.3769989013672,243.09100341796875)"><path fill="rgb(255,158,18)" fill-opacity="1" d=" M47.06999969482422,112.0999984741211 C47.06999969482422,112.0999984741211 34.63600158691406,110.8270034790039 34.63600158691406,110.8270034790039 C-20.118000030517578,-18.81800079345703 -47.06999969482422,-99.3740005493164 -47.06999969482422,-99.3740005493164 C-47.06999969482422,-99.3740005493164 -40.444000244140625,-112.0999984741211 -40.444000244140625,-112.0999984741211 C-5.017000198364258,-3.7200000286102295 47.06999969482422,112.0999984741211 47.06999969482422,112.0999984741211z"/><path stroke-linecap="round" stroke-linejoin="round" fill-opacity="0" stroke="rgb(226,129,12)" stroke-opacity="1" stroke-width="8" d=" M47.06999969482422,112.0999984741211 C47.06999969482422,112.0999984741211 34.63600158691406,110.8270034790039 34.63600158691406,110.8270034790039 C-20.118000030517578,-18.81800079345703 -47.06999969482422,-99.3740005493164 -47.06999969482422,-99.3740005493164 C-47.06999969482422,-99.3740005493164 -40.444000244140625,-112.0999984741211 -40.444000244140625,-112.0999984741211 C-5.017000198364258,-3.7200000286102295 47.06999969482422,112.0999984741211 47.06999969482422,112.0999984741211z"/></g></g></g><g style="display: block;" transform="matrix(1.0399999618530273,0,0,1.0399999618530273,-10.239986419677734,-26.840017318725586)" opacity="1"><g opacity="1" transform="matrix(1,0,0,1,0,0)"><g opacity="1" transform="matrix(1,0,0,1,320.8739929199219,209.78700256347656)"><path fill="url(#__lottie_element_27706)" fill-opacity="1" d=" M7.873000144958496,-113.06099700927734 C7.873000144958496,-113.06099700927734 21.753000259399414,-110.29000091552734 40.94499969482422,-102.5979995727539 C40.94499969482422,-102.5979995727539 12.008000373840332,-35.612998962402344 -13.675000190734863,113.06099700927734 C-13.675000190734863,113.06099700927734 -40.94499969482422,112.36000061035156 -40.94499969482422,112.36000061035156 C-40.94499969482422,112.36000061035156 -26.67300033569336,0.4519999921321869 7.873000144958496,-113.06099700927734z"/></g><g opacity="0.3" transform="matrix(1,0,0,1,326.531005859375,174.75799560546875)"><path fill="rgb(255,255,255)" fill-opacity="1" d=" M35.292999267578125,-67.56999969482422 C35.292999267578125,-67.56999969482422 33.80500030517578,-64.12699890136719 31.201000213623047,-57.06399917602539 C31.201000213623047,-57.06399917602539 8.944999694824219,-63.92300033569336 8.944999694824219,-63.92300033569336 C8.944999694824219,-63.92300033569336 -11.173999786376953,-6.019000053405762 -35.292999267578125,78.02999877929688 C-27.413000106811523,35.78200149536133 -15.168000221252441,-20.920000076293945 2.2139999866485596,-78.02999877929688 C2.2139999866485596,-78.02999877929688 16.0939998626709,-75.25700378417969 35.292999267578125,-67.56999969482422z"/></g><g opacity="1" transform="matrix(1,0,0,1,320.8739929199219,209.78700256347656)"><path stroke-linecap="round" stroke-linejoin="round" fill-opacity="0" stroke="rgb(234,162,0)" stroke-opacity="1" stroke-width="8" d=" M7.873000144958496,-113.06099700927734 C7.873000144958496,-113.06099700927734 21.753000259399414,-110.29000091552734 40.94499969482422,-102.5979995727539 C40.94499969482422,-102.5979995727539 12.008000373840332,-35.612998962402344 -13.675000190734863,113.06099700927734 C-13.675000190734863,113.06099700927734 -40.94499969482422,112.36000061035156 -40.94499969482422,112.36000061035156 C-40.94499969482422,112.36000061035156 -26.67300033569336,0.4519999921321869 7.873000144958496,-113.06099700927734z"/></g><g opacity="1" transform="matrix(1,0,0,1,298.5,209.43699645996094)"><path fill="rgb(252,173,16)" fill-opacity="1" d=" M30.243999481201172,-112.70899963378906 C-4.0279998779296875,-0.08299999684095383 -18.3439998626709,110.96299743652344 -18.56399917602539,112.68900299072266 C-18.56399917602539,112.68900299072266 -18.570999145507812,112.70899963378906 -18.570999145507812,112.70899963378906 C-18.570999145507812,112.70899963378906 -30.243999481201172,106.37699890136719 -30.243999481201172,106.37699890136719 C-10.880999565124512,-20.18600082397461 13.619000434875488,-107.27100372314453 13.619000434875488,-107.27100372314453 C13.619000434875488,-107.27100372314453 30.243999481201172,-112.70899963378906 30.243999481201172,-112.70899963378906z"/><path stroke-linecap="round" stroke-linejoin="round" fill-opacity="0" stroke="rgb(224,136,10)" stroke-opacity="1" stroke-width="8" d=" M30.243999481201172,-112.70899963378906 C-4.0279998779296875,-0.08299999684095383 -18.3439998626709,110.96299743652344 -18.56399917602539,112.68900299072266 C-18.56399917602539,112.68900299072266 -18.570999145507812,112.70899963378906 -18.570999145507812,112.70899963378906 C-18.570999145507812,112.70899963378906 -30.243999481201172,106.37699890136719 -30.243999481201172,106.37699890136719 C-10.880999565124512,-20.18600082397461 13.619000434875488,-107.27100372314453 13.619000434875488,-107.27100372314453 C13.619000434875488,-107.27100372314453 30.243999481201172,-112.70899963378906 30.243999481201172,-112.70899963378906z"/></g></g></g><g style="display: block;" transform="matrix(1.0399999618530273,0,0,1.0399999618530273,-10.239986419677734,-26.839984893798828)" opacity="1"><g opacity="1" transform="matrix(1,0,0,1,0,0)"><g opacity="1" transform="matrix(1,0,0,1,297.9150085449219,230.4810028076172)"><path fill="url(#__lottie_element_27702)" fill-opacity="1" d=" M-9.607000350952148,-123.47699737548828 C-9.607000350952148,-123.47699737548828 -44.97800064086914,-112.125 -44.97800064086914,-112.125 C-44.97800064086914,-112.125 -5.947999954223633,6.710000038146973 21.062999725341797,123.47699737548828 C21.062999725341797,123.47699737548828 44.97800064086914,115.0790023803711 44.97800064086914,115.0790023803711 C44.97800064086914,115.0790023803711 18.163999557495117,-13.151000022888184 -9.607000350952148,-123.47699737548828z"/></g><g opacity="0.3" transform="matrix(1,0,0,1,290.57501220703125,192.29400634765625)"><path fill="rgb(255,255,255)" fill-opacity="1" d=" M-10.416000366210938,-70.2020034790039 C-10.416000366210938,-70.2020034790039 -32.33000183105469,-63.66600036621094 -32.33000183105469,-63.66600036621094 C-32.33000183105469,-63.66600036621094 -13.71399974822998,3.5490000247955322 -13.71399974822998,3.5490000247955322 C-13.71399974822998,3.5490000247955322 -13.723999977111816,3.5299999713897705 -13.723999977111816,3.5299999713897705 C-27.371999740600586,-42.67900085449219 -37.637001037597656,-73.93599700927734 -37.637001037597656,-73.93599700927734 C-37.637001037597656,-73.93599700927734 -2.2679998874664307,-85.28700256347656 -2.2679998874664307,-85.28700256347656 C12.647000312805176,-26.05299949645996 27.277999877929688,38.349998474121094 37.637001037597656,85.28700256347656 C37.637001037597656,85.28700256347656 -10.416000366210938,-70.2020034790039 -10.416000366210938,-70.2020034790039z"/></g><g opacity="1" transform="matrix(1,0,0,1,297.9150085449219,230.4810028076172)"><path stroke-linecap="round" stroke-linejoin="round" fill-opacity="0" stroke="rgb(234,162,0)" stroke-opacity="1" stroke-width="8" d=" M-9.607000350952148,-123.47699737548828 C-9.607000350952148,-123.47699737548828 -44.97800064086914,-112.125 -44.97800064086914,-112.125 C-44.97800064086914,-112.125 -5.947999954223633,6.710000038146973 21.062999725341797,123.47699737548828 C21.062999725341797,123.47699737548828 44.97800064086914,115.0790023803711 44.97800064086914,115.0790023803711 C44.97800064086914,115.0790023803711 18.163999557495117,-13.151000022888184 -9.607000350952148,-123.47699737548828z"/></g><g opacity="1" transform="matrix(1,0,0,1,282.0690002441406,236.15899658203125)"><path fill="rgb(219,132,18)" fill-opacity="1" d=" M36.90800094604492,117.8010025024414 C36.90800094604492,117.8010025024414 24.979999542236328,114.1240005493164 24.979999542236328,114.1240005493164 C-15.998000144958496,-42.71799850463867 -36.90800094604492,-102.72100067138672 -36.90800094604492,-102.72100067138672 C-36.90800094604492,-102.72100067138672 -29.1299991607666,-117.8010025024414 -29.1299991607666,-117.8010025024414 C-29.1299991607666,-117.8010025024414 -29.1299991607666,-117.79199981689453 -29.121000289916992,-117.77300262451172 C-28.430999755859375,-115.67500305175781 10.140999794006348,2.075000047683716 36.90800094604492,117.8010025024414z"/><path stroke-linecap="round" stroke-linejoin="round" fill-opacity="0" stroke="rgb(204,120,9)" stroke-opacity="1" stroke-width="8" d=" M36.90800094604492,117.8010025024414 C36.90800094604492,117.8010025024414 24.979999542236328,114.1240005493164 24.979999542236328,114.1240005493164 C-15.998000144958496,-42.71799850463867 -36.90800094604492,-102.72100067138672 -36.90800094604492,-102.72100067138672 C-36.90800094604492,-102.72100067138672 -29.1299991607666,-117.8010025024414 -29.1299991607666,-117.8010025024414 C-29.1299991607666,-117.8010025024414 -29.1299991607666,-117.79199981689453 -29.121000289916992,-117.77300262451172 C-28.430999755859375,-115.67500305175781 10.140999794006348,2.075000047683716 36.90800094604492,117.8010025024414z"/></g></g></g><g style="display: block;" transform="matrix(1.0399999618530273,0,0,1.0399999618530273,-10.239986419677734,-26.839984893798828)" opacity="1"><g opacity="1" transform="matrix(1,0,0,1,0,0)"><g opacity="1" transform="matrix(1,0,0,1,170.4759979248047,284.2590026855469)"><path fill="url(#__lottie_element_27698)" fill-opacity="1" d=" M-32.25299835205078,-102.02100372314453 C-32.25299835205078,-102.02100372314453 -15.21399974822998,-106.47100067138672 0.10400000214576721,-109.63400268554688 C0.10400000214576721,-109.63400268554688 7.671999931335449,-21.783000946044922 32.25299835205078,102.20099639892578 C32.25299835205078,102.20099639892578 7.388999938964844,109.63400268554688 7.388999938964844,109.63400268554688 C7.388999938964844,109.63400268554688 -18.659000396728516,-22.466999053955078 -32.25299835205078,-102.02100372314453z"/></g><g opacity="0.3" transform="matrix(1,0,0,1,155.0019989013672,258.38800048828125)"><path fill="rgb(255,255,255)" fill-opacity="1" d=" M16.77899932861328,-73.27999877929688 C16.77899932861328,-73.27999877929688 -5.188000202178955,-68.73500061035156 -5.188000202178955,-68.73500061035156 C-5.188000202178955,-68.73500061035156 12.795000076293945,83.76300048828125 12.795000076293945,83.76300048828125 C12.795000076293945,83.76300048828125 -16.77899932861328,-76.1500015258789 -16.77899932861328,-76.1500015258789 C-16.77899932861328,-76.1500015258789 15.57800006866455,-83.76300048828125 15.57800006866455,-83.76300048828125 C15.57800006866455,-83.76300048828125 16.77899932861328,-73.27999877929688 16.77899932861328,-73.27999877929688z"/></g><g opacity="1" transform="matrix(1,0,0,1,170.4759979248047,284.2590026855469)"><path stroke-linecap="round" stroke-linejoin="round" fill-opacity="0" stroke="rgb(221,141,0)" stroke-opacity="1" stroke-width="8" d=" M-32.25299835205078,-102.02100372314453 C-32.25299835205078,-102.02100372314453 -15.21399974822998,-106.47100067138672 0.10400000214576721,-109.63400268554688 C0.10400000214576721,-109.63400268554688 7.671999931335449,-21.783000946044922 32.25299835205078,102.20099639892578 C32.25299835205078,102.20099639892578 7.388999938964844,109.63400268554688 7.388999938964844,109.63400268554688 C7.388999938964844,109.63400268554688 -18.659000396728516,-22.466999053955078 -32.25299835205078,-102.02100372314453z"/></g><g opacity="1" transform="matrix(1,0,0,1,151.23199462890625,288.0690002441406)"><path fill="rgb(236,162,0)" fill-opacity="1" d=" M-13.01200008392334,-105.83000183105469 C0.47999998927116394,-26.895000457763672 26.222999572753906,103.76899719238281 26.6299991607666,105.80899810791016 C26.6299991607666,105.80899810791016 26.631000518798828,105.83000183105469 26.631000518798828,105.83000183105469 C26.631000518798828,105.83000183105469 14.527999877929688,99.44499969482422 14.527999877929688,99.44499969482422 C-8.607999801635742,-6.822000026702881 -26.631000518798828,-96.44200134277344 -26.631000518798828,-96.44200134277344 C-22.365999221801758,-100.3010025024414 -13.01200008392334,-105.83000183105469 -13.01200008392334,-105.83000183105469z"/><path stroke-linecap="round" stroke-linejoin="round" fill-opacity="0" stroke="rgb(216,134,3)" stroke-opacity="1" stroke-width="8" d=" M-13.01200008392334,-105.83000183105469 C0.47999998927116394,-26.895000457763672 26.222999572753906,103.76899719238281 26.6299991607666,105.80899810791016 C26.6299991607666,105.80899810791016 26.631000518798828,105.83000183105469 26.631000518798828,105.83000183105469 C26.631000518798828,105.83000183105469 14.527999877929688,99.44499969482422 14.527999877929688,99.44499969482422 C-8.607999801635742,-6.822000026702881 -26.631000518798828,-96.44200134277344 -26.631000518798828,-96.44200134277344 C-22.365999221801758,-100.3010025024414 -13.01200008392334,-105.83000183105469 -13.01200008392334,-105.83000183105469z"/></g></g></g><g style="display: block;" transform="matrix(0.7000759840011597,0,0,1.0399999618530273,29.711620330810547,-26.841033935546875)" opacity="1"><g opacity="1" transform="matrix(1,0,0,1,0,0)"><g opacity="1" transform="matrix(1,0,0,1,124.29399871826172,288.87701416015625)"><path fill="url(#__lottie_element_27694)" fill-opacity="1" d=" M-33.27299880981445,-101.66999816894531 C-33.27299880981445,-101.66999816894531 -19.114999771118164,-106.26200103759766 -3.8299999237060547,-109.5780029296875 C-3.8299999237060547,-109.5780029296875 7.453000068664551,-21.836000442504883 33.27299880981445,101.89600372314453 C33.27299880981445,101.89600372314453 8.486000061035156,109.5780029296875 8.486000061035156,109.5780029296875 C8.486000061035156,109.5780029296875 -18.882999420166016,-22.256000518798828 -33.27299880981445,-101.66999816894531z"/></g><g opacity="1" transform="matrix(1,0,0,1,124.29399871826172,288.87701416015625)"><path stroke-linecap="round" stroke-linejoin="round" fill-opacity="0" stroke="rgb(226,140,14)" stroke-opacity="1" stroke-width="8" d=" M-33.27299880981445,-101.66999816894531 C-33.27299880981445,-101.66999816894531 -19.114999771118164,-106.26200103759766 -3.8299999237060547,-109.5780029296875 C-3.8299999237060547,-109.5780029296875 7.453000068664551,-21.836000442504883 33.27299880981445,101.89600372314453 C33.27299880981445,101.89600372314453 8.486000061035156,109.5780029296875 8.486000061035156,109.5780029296875 C8.486000061035156,109.5780029296875 -18.882999420166016,-22.256000518798828 -33.27299880981445,-101.66999816894531z"/></g><g opacity="1" transform="matrix(1,0,0,1,105.13600158691406,292.8340148925781)"><path fill="rgb(255,158,18)" fill-opacity="1" d=" M-14.116999626159668,-105.6259994506836 C0.164000004529953,-26.829999923706055 27.21299934387207,103.56900024414062 27.641000747680664,105.6050033569336 C27.641000747680664,105.6050033569336 27.642000198364258,105.6259994506836 27.642000198364258,105.6259994506836 C27.642000198364258,105.6259994506836 15.47599983215332,99.36299896240234 15.47599983215332,99.36299896240234 C-8.722999572753906,-6.666999816894531 -27.642000198364258,-96.10299682617188 -27.642000198364258,-96.10299682617188 C-23.416000366210938,-100.00399780273438 -14.116999626159668,-105.6259994506836 -14.116999626159668,-105.6259994506836z"/><path stroke-linecap="round" stroke-linejoin="round" fill-opacity="0" stroke="rgb(226,129,12)" stroke-opacity="1" stroke-width="8" d=" M-14.116999626159668,-105.6259994506836 C0.164000004529953,-26.829999923706055 27.21299934387207,103.56900024414062 27.641000747680664,105.6050033569336 C27.641000747680664,105.6050033569336 27.642000198364258,105.6259994506836 27.642000198364258,105.6259994506836 C27.642000198364258,105.6259994506836 15.47599983215332,99.36299896240234 15.47599983215332,99.36299896240234 C-8.722999572753906,-6.666999816894531 -27.642000198364258,-96.10299682617188 -27.642000198364258,-96.10299682617188 C-23.416000366210938,-100.00399780273438 -14.116999626159668,-105.6259994506836 -14.116999626159668,-105.6259994506836z"/></g></g></g><g style="display: block;" transform="matrix(1.0399999618530273,0,0,1.0399999618530273,-10.23893928527832,-26.840017318725586)" opacity="1"><g opacity="1" transform="matrix(1,0,0,1,0,0)"><g opacity="1" transform="matrix(1,0,0,1,251.38699340820312,275.9679870605469)"><path fill="url(#__lottie_element_27690)" fill-opacity="1" d=" M13.5,-113.2030029296875 C13.5,-113.2030029296875 -6.998000144958496,-109.7969970703125 -18.08099937438965,-105.91999816894531 C-18.08099937438965,-105.91999816894531 -5.291999816894531,-13.387999534606934 -4.6539998054504395,113.2030029296875 C-4.6539998054504395,113.2030029296875 15.454000473022461,109.86499786376953 15.454000473022461,109.86499786376953 C15.454000473022461,109.86499786376953 22.506999969482422,12.017000198364258 13.5,-113.2030029296875z"/></g><g opacity="0.3" transform="matrix(1,0,0,1,251.38299560546875,258.2969970703125)"><path fill="rgb(255,255,255)" fill-opacity="1" d=" M17.024999618530273,95.53299713134766 C11.100000381469727,-37.56100082397461 4.341000080108643,-82.58699798583984 4.341000080108643,-82.58699798583984 C4.341000080108643,-82.58699798583984 -6.26800012588501,-81.19499969482422 -15.993000030517578,-77.3759994506836 C-16.270000457763672,-77.26699829101562 -16.117000579833984,-78.55899810791016 -16.117000579833984,-78.55899810791016 C-16.948999404907227,-85.6760025024414 -18.07900047302246,-88.24600219726562 -18.07900047302246,-88.24600219726562 C-6.992000102996826,-92.12100219726562 13.49899959564209,-95.53299713134766 13.49899959564209,-95.53299713134766 C19.39699935913086,-13.482999801635742 18.405000686645508,56.819000244140625 17.024999618530273,95.53299713134766z"/></g><g opacity="1" transform="matrix(1,0,0,1,251.38699340820312,275.9679870605469)"><path stroke-linecap="round" stroke-linejoin="round" fill-opacity="0" stroke="rgb(234,162,0)" stroke-opacity="1" stroke-width="8" d=" M13.5,-113.2030029296875 C13.5,-113.2030029296875 -6.998000144958496,-109.7969970703125 -18.08099937438965,-105.91999816894531 C-18.08099937438965,-105.91999816894531 -5.291999816894531,-13.387999534606934 -4.6539998054504395,113.2030029296875 C-4.6539998054504395,113.2030029296875 15.454000473022461,109.86499786376953 15.454000473022461,109.86499786376953 C15.454000473022461,109.86499786376953 22.506999969482422,12.017000198364258 13.5,-113.2030029296875z"/></g><g opacity="1" transform="matrix(1,0,0,1,234.6750030517578,279.6099853515625)"><path fill="rgb(236,162,0)" fill-opacity="1" d=" M12.0600004196167,109.55899810791016 C12.0600004196167,109.55899810791016 1.9140000343322754,104.22799682617188 1.9140000343322754,104.22799682617188 C1.725000023841858,6.383999824523926 -12.0600004196167,-95.17400360107422 -12.0600004196167,-95.17400360107422 C-12.0600004196167,-95.17400360107422 -1.371000051498413,-109.55899810791016 -1.371000051498413,-109.55899810791016 C-1.371000051498413,-109.55899810791016 11.416999816894531,-17.027000427246094 12.0600004196167,109.55899810791016z"/><path stroke-linecap="round" stroke-linejoin="round" fill-opacity="0" stroke="rgb(216,134,3)" stroke-opacity="1" stroke-width="8" d=" M12.0600004196167,109.55899810791016 C12.0600004196167,109.55899810791016 1.9140000343322754,104.22799682617188 1.9140000343322754,104.22799682617188 C1.725000023841858,6.383999824523926 -12.0600004196167,-95.17400360107422 -12.0600004196167,-95.17400360107422 C-12.0600004196167,-95.17400360107422 -1.371000051498413,-109.55899810791016 -1.371000051498413,-109.55899810791016 C-1.371000051498413,-109.55899810791016 11.416999816894531,-17.027000427246094 12.0600004196167,109.55899810791016z"/></g></g></g><g style="display: block;" transform="matrix(1.0399999618530273,0,0,1.0399999618530273,-10.23893928527832,-26.841033935546875)" opacity="1"><g opacity="1" transform="matrix(1,0,0,1,0,0)"><g opacity="1" transform="matrix(1,0,0,1,367.40899658203125,258.2969970703125)"><path fill="url(#__lottie_element_27686)" fill-opacity="1" d=" M20.628999710083008,-111.2229995727539 C20.628999710083008,-111.2229995727539 34.125999450683594,-106.96199798583984 52.369998931884766,-97.23200225830078 C52.369998931884766,-97.23200225830078 16.33300018310547,-33.78499984741211 -25.336000442504883,111.2229995727539 C-25.336000442504883,111.2229995727539 -52.369998931884766,107.56700134277344 -52.369998931884766,107.56700134277344 C-52.369998931884766,107.56700134277344 -26.034000396728516,-2.130000114440918 20.628999710083008,-111.2229995727539z"/></g><g opacity="0.3" transform="matrix(1,0,0,1,376.7969970703125,222.60800170898438)"><path fill="rgb(255,255,255)" fill-opacity="1" d=" M42.986000061035156,-61.54499816894531 C42.986000061035156,-61.54499816894531 41.132999420166016,-58.284000396728516 37.77799987792969,-51.54499816894531 C37.77799987792969,-51.54499816894531 16.39900016784668,-60.77899932861328 16.39900016784668,-60.77899932861328 C16.39900016784668,-60.77899932861328 -9.88599967956543,-5.4019999504089355 -42.986000061035156,75.53299713134766 C-30.566999435424805,34.38999938964844 -12.239999771118164,-20.64699935913086 11.23799991607666,-75.53299713134766 C11.23799991607666,-75.53299713134766 24.735000610351562,-71.27100372314453 42.986000061035156,-61.54499816894531z"/></g><g opacity="1" transform="matrix(1,0,0,1,367.40899658203125,258.2969970703125)"><path stroke-linecap="round" stroke-linejoin="round" fill-opacity="0" stroke="rgb(226,140,14)" stroke-opacity="1" stroke-width="8" d=" M20.628999710083008,-111.2229995727539 C20.628999710083008,-111.2229995727539 34.125999450683594,-106.96199798583984 52.369998931884766,-97.23200225830078 C52.369998931884766,-97.23200225830078 16.33300018310547,-33.78499984741211 -25.336000442504883,111.2229995727539 C-25.336000442504883,111.2229995727539 -52.369998931884766,107.56700134277344 -52.369998931884766,107.56700134277344 C-52.369998931884766,107.56700134277344 -26.034000396728516,-2.130000114440918 20.628999710083008,-111.2229995727539z"/></g><g opacity="1" transform="matrix(1,0,0,1,346.0790100097656,256.468994140625)"><path fill="rgb(255,158,18)" fill-opacity="1" d=" M41.95600128173828,-109.39399719238281 C-4.3379998207092285,-1.152999997138977 -30.624000549316406,107.68299865722656 -31.030000686645508,109.375 C-31.030000686645508,109.375 -31.038999557495117,109.39399719238281 -31.038999557495117,109.39399719238281 C-31.038999557495117,109.39399719238281 -41.95600128173828,101.83200073242188 -41.95600128173828,101.83200073242188 C-8.970000267028809,-21.881000518798828 24.839000701904297,-105.79299926757812 24.839000701904297,-105.79299926757812 C24.839000701904297,-105.79299926757812 41.95600128173828,-109.39399719238281 41.95600128173828,-109.39399719238281z"/><path stroke-linecap="round" stroke-linejoin="round" fill-opacity="0" stroke="rgb(226,129,12)" stroke-opacity="1" stroke-width="8" d=" M41.95600128173828,-109.39399719238281 C-4.3379998207092285,-1.152999997138977 -30.624000549316406,107.68299865722656 -31.030000686645508,109.375 C-31.030000686645508,109.375 -31.038999557495117,109.39399719238281 -31.038999557495117,109.39399719238281 C-31.038999557495117,109.39399719238281 -41.95600128173828,101.83200073242188 -41.95600128173828,101.83200073242188 C-8.970000267028809,-21.881000518798828 24.839000701904297,-105.79299926757812 24.839000701904297,-105.79299926757812 C24.839000701904297,-105.79299926757812 41.95600128173828,-109.39399719238281 41.95600128173828,-109.39399719238281z"/></g></g></g><g style="display: block;" transform="matrix(1.0399999618530273,0,0,1.0399999618530273,-10.238954544067383,-26.839984893798828)" opacity="1"><g opacity="1" transform="matrix(1,0,0,1,0,0)"><g opacity="1" transform="matrix(1,0,0,1,349.9649963378906,323.65899658203125)"><path fill="url(#__lottie_element_27682)" fill-opacity="1" d=" M2.8580000400543213,-106.96299743652344 C2.8580000400543213,-106.96299743652344 17.722999572753906,-106.2229995727539 33.18899917602539,-103.88999938964844 C33.18899917602539,-103.88999938964844 12.550999641418457,-17.867000579833984 -7.289999961853027,106.96299743652344 C-7.289999961853027,106.96299743652344 -33.18899917602539,105.33399963378906 -33.18899917602539,105.33399963378906 C-33.18899917602539,105.33399963378906 -11.916000366210938,-27.618999481201172 2.8580000400543213,-106.96299743652344z"/></g><g opacity="0.3" transform="matrix(1,0,0,1,354.1940002441406,296.8299865722656)"><path fill="rgb(255,255,255)" fill-opacity="1" d=" M26.78700065612793,-67.6969985961914 C26.78700065612793,-67.6969985961914 6.051000118255615,-69.49299621582031 6.051000118255615,-69.49299621582031 C6.051000118255615,-69.49299621582031 -28.959999084472656,80.13400268554688 -28.959999084472656,80.13400268554688 C-28.959999084472656,80.13400268554688 -1.371999979019165,-80.13400268554688 -1.371999979019165,-80.13400268554688 C-1.371999979019165,-80.13400268554688 28.959999084472656,-77.06099700927734 28.959999084472656,-77.06099700927734 C28.959999084472656,-77.06099700927734 26.78700065612793,-67.6969985961914 26.78700065612793,-67.6969985961914z"/></g><g opacity="1" transform="matrix(1,0,0,1,349.9649963378906,323.65899658203125)"><path stroke-linecap="round" stroke-linejoin="round" fill-opacity="0" stroke="rgb(226,140,14)" stroke-opacity="1" stroke-width="8" d=" M2.8580000400543213,-106.96299743652344 C2.8580000400543213,-106.96299743652344 17.722999572753906,-106.2229995727539 33.18899917602539,-103.88999938964844 C33.18899917602539,-103.88999938964844 12.550999641418457,-17.867000579833984 -7.289999961853027,106.96299743652344 C-7.289999961853027,106.96299743652344 -33.18899917602539,105.33399963378906 -33.18899917602539,105.33399963378906 C-33.18899917602539,105.33399963378906 -11.916000366210938,-27.618999481201172 2.8580000400543213,-106.96299743652344z"/></g><g opacity="1" transform="matrix(1,0,0,1,330.2229919433594,322.8479919433594)"><path fill="rgb(255,158,18)" fill-opacity="1" d=" M22.597000122070312,-106.1510009765625 C7.940999984741211,-27.423999786376953 -13.119999885559082,104.07599639892578 -13.444000244140625,106.13099670410156 C-13.444000244140625,106.13099670410156 -13.451000213623047,106.1510009765625 -13.451000213623047,106.1510009765625 C-13.451000213623047,106.1510009765625 -22.597000122070312,95.97200012207031 -22.597000122070312,95.97200012207031 C-7.5320000648498535,-11.736000061035156 6.571000099182129,-102.05599975585938 6.571000099182129,-102.05599975585938 C11.907999992370605,-104.20099639892578 22.597000122070312,-106.1510009765625 22.597000122070312,-106.1510009765625z"/><path stroke-linecap="round" stroke-linejoin="round" fill-opacity="0" stroke="rgb(226,129,12)" stroke-opacity="1" stroke-width="8" d=" M22.597000122070312,-106.1510009765625 C7.940999984741211,-27.423999786376953 -13.119999885559082,104.07599639892578 -13.444000244140625,106.13099670410156 C-13.444000244140625,106.13099670410156 -13.451000213623047,106.1510009765625 -13.451000213623047,106.1510009765625 C-13.451000213623047,106.1510009765625 -22.597000122070312,95.97200012207031 -22.597000122070312,95.97200012207031 C-7.5320000648498535,-11.736000061035156 6.571000099182129,-102.05599975585938 6.571000099182129,-102.05599975585938 C11.907999992370605,-104.20099639892578 22.597000122070312,-106.1510009765625 22.597000122070312,-106.1510009765625z"/></g></g></g><g style="display: block;" transform="matrix(1.0399999618530273,0,0,1.0399999618530273,-10.239986419677734,-26.840017318725586)" opacity="1"><g opacity="1" transform="matrix(1,0,0,1,0,0)"><g opacity="1" transform="matrix(1,0,0,1,338.35198974609375,274.10101318359375)"><path fill="url(#__lottie_element_27678)" fill-opacity="1" d=" M-11.425000190734863,-119.98799896240234 C-11.425000190734863,-119.98799896240234 6.677000045776367,-120.98699951171875 22.656999588012695,-119.98799896240234 C22.656999588012695,-119.98799896240234 7.506999969482422,-31.611000061035156 2.308000087738037,120.43099975585938 C2.308000087738037,120.43099975585938 -22.65399932861328,120.43099975585938 -22.65399932861328,120.43099975585938 C-22.65399932861328,120.43099975585938 -23.136999130249023,-6.566999912261963 -11.425000190734863,-119.98799896240234z"/></g><g opacity="0.3" transform="matrix(1,0,0,1,343.4540100097656,242.15899658203125)"><path fill="rgb(255,255,255)" fill-opacity="1" d=" M17.552000045776367,-88.04199981689453 C17.552000045776367,-88.04199981689453 6.5970001220703125,-24.138999938964844 0.12300000339746475,88.48699951171875 C-3.7330000400543213,21.86199951171875 6.001999855041504,-76.79399871826172 6.001999855041504,-76.79399871826172 C6.001999855041504,-76.79399871826172 -2.9010000228881836,-78.08300018310547 -17.552000045776367,-76.79399871826172 C-17.552000045776367,-76.79399871826172 -16.881000518798828,-84.62100219726562 -16.5310001373291,-88.04199981689453 C-16.5310001373291,-88.04199981689453 1.5789999961853027,-89.04399871826172 17.552000045776367,-88.04199981689453z"/></g><g opacity="1" transform="matrix(1,0,0,1,338.35198974609375,274.10101318359375)"><path stroke-linecap="round" stroke-linejoin="round" fill-opacity="0" stroke="rgb(234,162,0)" stroke-opacity="1" stroke-width="8" d=" M-11.425000190734863,-119.98799896240234 C-11.425000190734863,-119.98799896240234 6.677000045776367,-120.98699951171875 22.656999588012695,-119.98799896240234 C22.656999588012695,-119.98799896240234 7.506999969482422,-31.611000061035156 2.308000087738037,120.43099975585938 C2.308000087738037,120.43099975585938 -22.65399932861328,120.43099975585938 -22.65399932861328,120.43099975585938 C-22.65399932861328,120.43099975585938 -23.136999130249023,-6.566999912261963 -11.425000190734863,-119.98799896240234z"/></g><g opacity="1" transform="matrix(1,0,0,1,315.88800048828125,274.322998046875)"><path fill="rgb(219,132,18)" fill-opacity="1" d=" M-0.1940000057220459,120.20600128173828 C-0.1940000057220459,120.20600128173828 -11.03499984741211,113.98699951171875 -11.03499984741211,113.98699951171875 C-8.331999778747559,-26.719999313354492 -0.1940000057220459,-111.2750015258789 -0.1940000057220459,-111.2750015258789 C-0.1940000057220459,-111.2750015258789 11.03499984741211,-120.20600128173828 11.03499984741211,-120.20600128173828 C-0.6759999990463257,-6.785999774932861 -0.1940000057220459,120.20600128173828 -0.1940000057220459,120.20600128173828z"/><path stroke-linecap="round" stroke-linejoin="round" fill-opacity="0" stroke="rgb(204,120,9)" stroke-opacity="1" stroke-width="8" d=" M-0.1940000057220459,120.20600128173828 C-0.1940000057220459,120.20600128173828 -11.03499984741211,113.98699951171875 -11.03499984741211,113.98699951171875 C-8.331999778747559,-26.719999313354492 -0.1940000057220459,-111.2750015258789 -0.1940000057220459,-111.2750015258789 C-0.1940000057220459,-111.2750015258789 11.03499984741211,-120.20600128173828 11.03499984741211,-120.20600128173828 C-0.6759999990463257,-6.785999774932861 -0.1940000057220459,120.20600128173828 -0.1940000057220459,120.20600128173828z"/></g></g></g><g style="display: block;" transform="matrix(1.0399999618530273,0,0,1.0399999618530273,-10.238954544067383,-26.839984893798828)" opacity="1"><g opacity="1" transform="matrix(1,0,0,1,0,0)"><g opacity="1" transform="matrix(1,0,0,1,277.27398681640625,342.1199951171875)"><path fill="url(#__lottie_element_27674)" fill-opacity="1" d=" M10.553999900817871,-106.32599639892578 C10.553999900817871,-106.32599639892578 25.32900047302246,-104.52400207519531 40.5880012512207,-101.09100341796875 C40.5880012512207,-101.09100341796875 13.848999977111816,-16.764999389648438 -14.871000289916992,106.32599639892578 C-14.871000289916992,106.32599639892578 -40.5880012512207,102.8479995727539 -40.5880012512207,102.8479995727539 C-40.5880012512207,102.8479995727539 -9.857999801635742,-28.242000579833984 10.553999900817871,-106.32599639892578z"/></g><g opacity="0.3" transform="matrix(1,0,0,1,283.35400390625,314.7349853515625)"><path fill="rgb(255,255,255)" fill-opacity="1" d=" M31.67099952697754,-64.52200317382812 C31.67099952697754,-64.52200317382812 11.116000175476074,-67.7969970703125 11.116000175476074,-67.7969970703125 C11.116000175476074,-67.7969970703125 -34.507999420166016,78.94200134277344 -34.507999420166016,78.94200134277344 C-34.507999420166016,78.94200134277344 4.473999977111816,-78.94200134277344 4.473999977111816,-78.94200134277344 C4.473999977111816,-78.94200134277344 34.507999420166016,-73.70700073242188 34.507999420166016,-73.70700073242188 C34.507999420166016,-73.70700073242188 31.67099952697754,-64.52200317382812 31.67099952697754,-64.52200317382812z"/></g><g opacity="1" transform="matrix(1,0,0,1,277.27398681640625,342.1199951171875)"><path stroke-linecap="round" stroke-linejoin="round" fill-opacity="0" stroke="rgb(226,140,14)" stroke-opacity="1" stroke-width="8" d=" M10.553999900817871,-106.32599639892578 C10.553999900817871,-106.32599639892578 25.32900047302246,-104.52400207519531 40.5880012512207,-101.09100341796875 C40.5880012512207,-101.09100341796875 13.848999977111816,-16.764999389648438 -14.871000289916992,106.32599639892578 C-14.871000289916992,106.32599639892578 -40.5880012512207,102.8479995727539 -40.5880012512207,102.8479995727539 C-40.5880012512207,102.8479995727539 -9.857999801635742,-28.242000579833984 10.553999900817871,-106.32599639892578z"/></g><g opacity="1" transform="matrix(1,0,0,1,258.0570068359375,340.3840026855469)"><path fill="rgb(255,158,18)" fill-opacity="1" d=" M29.768999099731445,-104.58899688720703 C9.519000053405762,-27.11199951171875 -20.895999908447266,102.54299926757812 -21.365999221801758,104.56999969482422 C-21.365999221801758,104.56999969482422 -21.374000549316406,104.58899688720703 -21.374000549316406,104.58899688720703 C-21.374000549316406,104.58899688720703 -29.768999099731445,93.78299713134766 -29.768999099731445,93.78299713134766 C-7.0370001792907715,-12.571000099182129 13.491000175476074,-101.6520004272461 13.491000175476074,-101.6520004272461 C18.968000411987305,-103.40899658203125 29.768999099731445,-104.58899688720703 29.768999099731445,-104.58899688720703z"/><path stroke-linecap="round" stroke-linejoin="round" fill-opacity="0" stroke="rgb(226,129,12)" stroke-opacity="1" stroke-width="8" d=" M29.768999099731445,-104.58899688720703 C9.519000053405762,-27.11199951171875 -20.895999908447266,102.54299926757812 -21.365999221801758,104.56999969482422 C-21.365999221801758,104.56999969482422 -21.374000549316406,104.58899688720703 -21.374000549316406,104.58899688720703 C-21.374000549316406,104.58899688720703 -29.768999099731445,93.78299713134766 -29.768999099731445,93.78299713134766 C-7.0370001792907715,-12.571000099182129 13.491000175476074,-101.6520004272461 13.491000175476074,-101.6520004272461 C18.968000411987305,-103.40899658203125 29.768999099731445,-104.58899688720703 29.768999099731445,-104.58899688720703z"/></g></g></g><g style="display: block;" transform="matrix(1.0399999618530273,0,0,1.0399999618530273,-10.238954544067383,-26.839984893798828)" opacity="1"><g opacity="1" transform="matrix(1,0,0,1,0,0)"><g opacity="1" transform="matrix(1,0,0,1,200.26300048828125,324.51300048828125)"><path fill="url(#__lottie_element_27670)" fill-opacity="1" d=" M-2.7950000762939453,-114.4520034790039 C-2.7950000762939453,-114.4520034790039 11.277999877929688,-112.94400024414062 31.086000442504883,-107.01399993896484 C31.086000442504883,-107.01399993896484 8.307000160217285,-37.69300079345703 -3.864000082015991,112.69100189208984 C-3.864000082015991,112.69100189208984 -31.086000442504883,114.4520034790039 -31.086000442504883,114.4520034790039 C-31.086000442504883,114.4520034790039 -26.964000701904297,1.7139999866485596 -2.7950000762939453,-114.4520034790039z"/></g><g opacity="0.3" transform="matrix(1,0,0,1,202.77000427246094,289.4649963378906)"><path fill="rgb(255,255,255)" fill-opacity="1" d=" M28.583999633789062,-71.96900177001953 C28.583999633789062,-71.96900177001953 27.41200065612793,-68.40499877929688 25.45599937438965,-61.13600158691406 C25.45599937438965,-61.13600158691406 2.6730000972747803,-65.96099853515625 2.6730000972747803,-65.96099853515625 C2.6730000972747803,-65.96099853515625 -12.142999649047852,-6.479000091552734 -28.583999633789062,79.40299987792969 C-24.54599952697754,36.61600112915039 -17.46500015258789,-20.95800018310547 -5.303999900817871,-79.40299987792969 C-5.303999900817871,-79.40299987792969 8.770000457763672,-77.89399719238281 28.583999633789062,-71.96900177001953z"/></g><g opacity="1" transform="matrix(1,0,0,1,200.26300048828125,324.51300048828125)"><path stroke-linecap="round" stroke-linejoin="round" fill-opacity="0" stroke="rgb(234,162,0)" stroke-opacity="1" stroke-width="8" d=" M-2.7950000762939453,-114.4520034790039 C-2.7950000762939453,-114.4520034790039 11.277999877929688,-112.94400024414062 31.086000442504883,-107.01399993896484 C31.086000442504883,-107.01399993896484 8.307000160217285,-37.69300079345703 -3.864000082015991,112.69100189208984 C-3.864000082015991,112.69100189208984 -31.086000442504883,114.4520034790039 -31.086000442504883,114.4520034790039 C-31.086000442504883,114.4520034790039 -26.964000701904297,1.7139999866485596 -2.7950000762939453,-114.4520034790039z"/></g><g opacity="1" transform="matrix(1,0,0,1,177.22300720214844,324.51300048828125)"><path fill="rgb(252,173,16)" fill-opacity="1" d=" M20.243000030517578,-114.45099639892578 C-3.7330000400543213,0.8069999814033508 -7.9770002365112305,112.69100189208984 -8.041000366210938,114.43000030517578 C-8.041000366210938,114.43000030517578 -8.045999526977539,114.45099639892578 -8.045999526977539,114.45099639892578 C-8.045999526977539,114.45099639892578 -20.243000030517578,109.197998046875 -20.243000030517578,109.197998046875 C-12.371999740600586,-18.594999313354492 4.176000118255615,-107.53600311279297 4.176000118255615,-107.53600311279297 C4.176000118255615,-107.53600311279297 20.243000030517578,-114.45099639892578 20.243000030517578,-114.45099639892578z"/><path stroke-linecap="round" stroke-linejoin="round" fill-opacity="0" stroke="rgb(224,136,10)" stroke-opacity="1" stroke-width="8" d=" M20.243000030517578,-114.45099639892578 C-3.7330000400543213,0.8069999814033508 -7.9770002365112305,112.69100189208984 -8.041000366210938,114.43000030517578 C-8.041000366210938,114.43000030517578 -8.045999526977539,114.45099639892578 -8.045999526977539,114.45099639892578 C-8.045999526977539,114.45099639892578 -20.243000030517578,109.197998046875 -20.243000030517578,109.197998046875 C-12.371999740600586,-18.594999313354492 4.176000118255615,-107.53600311279297 4.176000118255615,-107.53600311279297 C4.176000118255615,-107.53600311279297 20.243000030517578,-114.45099639892578 20.243000030517578,-114.45099639892578z"/></g></g></g><g style="display: block;" transform="matrix(1.0399999618530273,0,0,1.0399999618530273,255.12640380859375,304.1878356933594)" opacity="1"><g opacity="1" transform="matrix(1,0,0,1,0,0)"><path fill="url(#__lottie_element_27620)" fill-opacity="1" d=" M-186.8780059814453,-159.8820037841797 C-186.8780059814453,-159.8820037841797 -147.99000549316406,-135.43800354003906 -147.99000549316406,-135.43800354003906 C-147.99000549316406,-135.43800354003906 -95.72100067138672,-30.7810001373291 0.7350000143051147,-30.7810001373291 C97.19100189208984,-30.7810001373291 147.95700073242188,-135.66900634765625 147.95700073242188,-135.66900634765625 C147.95700073242188,-135.66900634765625 186.8780059814453,-159.5030059814453 186.8780059814453,-159.5030059814453 C186.8780059814453,-159.5030059814453 180.10899353027344,-54.11000061035156 153.8800048828125,120.0770034790039 C153.8800048828125,120.0770034790039 94.65299987792969,154.76699829101562 94.65299987792969,154.76699829101562 C94.65299987792969,154.76699829101562 7.676000118255615,166.2760009765625 -93.18299865722656,154.76699829101562 C-93.18299865722656,154.76699829101562 -152.41099548339844,120.9229965209961 -152.41099548339844,120.9229965209961 C-172.71800231933594,-17.020999908447266 -186.8780059814453,-159.8820037841797 -186.8780059814453,-159.8820037841797z"/></g></g><g style="display: block;" transform="matrix(1.0399999618530273,0,0,1.0399999618530273,255.10977172851562,316.78118896484375)" opacity="1"><g opacity="1" transform="matrix(1,0,0,1,0,0)"><path fill="url(#__lottie_element_27666)" fill-opacity="1" d=" M147.97500610351562,-145.77499389648438 C141.87100219726562,18.79199981689453 94.66799926757812,142.656005859375 94.66799926757812,142.656005859375 C94.66799926757812,142.656005859375 6.99399995803833,154.0919952392578 -93.16500091552734,142.656005859375 C-138.80299377441406,32.42100143432617 -148.47500610351562,-145.04800415039062 -148.47500610351562,-145.04800415039062 C-148.47500610351562,-145.04800415039062 -95.70700073242188,-40.38999938964844 0.746999979019165,-40.38999938964844 C97.21099853515625,-40.38999938964844 147.97500610351562,-145.77499389648438 147.97500610351562,-145.77499389648438z"/></g></g><g style="display: block;" transform="matrix(1.0399999618530273,0,0,1.0399999618530273,255.10977172851562,316.78118896484375)" opacity="1"><g opacity="1" transform="matrix(1,0,0,1,0,0)"><path stroke-linecap="round" stroke-linejoin="round" fill-opacity="0" stroke="rgb(205,84,84)" stroke-opacity="1" stroke-width="8" d=" M147.97500610351562,-145.77499389648438 C141.87100219726562,18.79199981689453 94.66799926757812,142.656005859375 94.66799926757812,142.656005859375 C94.66799926757812,142.656005859375 6.99399995803833,154.0919952392578 -93.16500091552734,142.656005859375 C-138.80299377441406,32.42100143432617 -148.47500610351562,-145.04800415039062 -148.47500610351562,-145.04800415039062 C-148.47500610351562,-145.04800415039062 -95.70700073242188,-40.38999938964844 0.746999979019165,-40.38999938964844 C97.21099853515625,-40.38999938964844 147.97500610351562,-145.77499389648438 147.97500610351562,-145.77499389648438z"/></g></g><g style="display: block;" transform="matrix(1.0399999618530273,0,0,1.0399999618530273,255.12640380859375,304.1878356933594)" opacity="1"><g opacity="1" transform="matrix(1,0,0,1,0,0)"><path stroke-linecap="round" stroke-linejoin="round" fill-opacity="0" stroke="rgb(157,36,36)" stroke-opacity="1" stroke-width="8" d=" M-186.8780059814453,-159.8820037841797 C-186.8780059814453,-159.8820037841797 -147.99000549316406,-135.43800354003906 -147.99000549316406,-135.43800354003906 C-147.99000549316406,-135.43800354003906 -95.72100067138672,-30.7810001373291 0.7350000143051147,-30.7810001373291 C97.19100189208984,-30.7810001373291 147.95700073242188,-135.66900634765625 147.95700073242188,-135.66900634765625 C147.95700073242188,-135.66900634765625 186.8780059814453,-159.5030059814453 186.8780059814453,-159.5030059814453 C186.8780059814453,-159.5030059814453 180.10899353027344,-54.11000061035156 153.8800048828125,120.0770034790039 C153.8800048828125,120.0770034790039 94.65299987792969,154.76699829101562 94.65299987792969,154.76699829101562 C94.65299987792969,154.76699829101562 7.676000118255615,166.2760009765625 -93.18299865722656,154.76699829101562 C-93.18299865722656,154.76699829101562 -152.41099548339844,120.9229965209961 -152.41099548339844,120.9229965209961 C-172.71800231933594,-17.020999908447266 -186.8780059814453,-159.8820037841797 -186.8780059814453,-159.8820037841797z"/></g></g><g style="display: block;" transform="matrix(1.0399999618530273,0,0,1.0399999618530273,256.1123352050781,368.40264892578125)" opacity="1"><g opacity="1" transform="matrix(1,0,0,1,0,0)"><path fill="rgb(198,23,36)" fill-opacity="1" d=" M63.819000244140625,0 C63.819000244140625,33.84000015258789 35.24599838256836,61.27299880981445 0,61.27299880981445 C-35.24599838256836,61.27299880981445 -63.819000244140625,33.84000015258789 -63.819000244140625,0 C-63.819000244140625,-33.84000015258789 -35.24599838256836,-61.27299880981445 0,-61.27299880981445 C35.24599838256836,-61.27299880981445 63.819000244140625,-33.84000015258789 63.819000244140625,0z"/></g></g><g style="display: block;" transform="matrix(1.0399999618530273,0,0,1.0399999618530273,256.1123352050781,361.6780090332031)" opacity="1"><g opacity="1" transform="matrix(1,0,0,1,0,0)"><path fill="rgb(251,201,54)" fill-opacity="1" d=" M62.06399917602539,0 C62.06399917602539,33.4010009765625 34.277000427246094,60.47800064086914 0,60.47800064086914 C-34.277000427246094,60.47800064086914 -62.06399917602539,33.4010009765625 -62.06399917602539,0 C-62.06399917602539,-33.4010009765625 -34.277000427246094,-60.47800064086914 0,-60.47800064086914 C34.277000427246094,-60.47800064086914 62.06399917602539,-33.4010009765625 62.06399917602539,0z"/></g></g><g style="display: block;" transform="matrix(1.0399999618530273,0,0,1.0399999618530273,295.04888916015625,367.7515869140625)" opacity="0.5"><g opacity="1" transform="matrix(1,0,0,1,0,0)"><path fill="url(#__lottie_element_27653)" fill-opacity="1" d=" M19.052000045776367,0 C19.052000045776367,10.522000312805176 10.522000312805176,19.052000045776367 0,19.052000045776367 C-10.522000312805176,19.052000045776367 -19.052000045776367,10.522000312805176 -19.052000045776367,0 C-19.052000045776367,-10.522000312805176 -10.522000312805176,-19.052000045776367 0,-19.052000045776367 C10.522000312805176,-19.052000045776367 19.052000045776367,-10.522000312805176 19.052000045776367,0z"/></g></g><g style="display: block;" transform="matrix(1.0399999618530273,0,0,1.0399999618530273,217.17576599121094,367.7515869140625)" opacity="0.5"><g opacity="1" transform="matrix(1,0,0,1,0,0)"><path fill="url(#__lottie_element_27649)" fill-opacity="1" d=" M19.052000045776367,0 C19.052000045776367,10.522000312805176 10.522000312805176,19.052000045776367 0,19.052000045776367 C-10.522000312805176,19.052000045776367 -19.052000045776367,10.522000312805176 -19.052000045776367,0 C-19.052000045776367,-10.522000312805176 -10.522000312805176,-19.052000045776367 0,-19.052000045776367 C10.522000312805176,-19.052000045776367 19.052000045776367,-10.522000312805176 19.052000045776367,0z"/></g></g><g style="display: block;" transform="matrix(1.0399999618530273,0,0,1.0399999618530273,238.3782501220703,350.3721618652344)" opacity="1"><g opacity="1" transform="matrix(1,0,0,1,0,0)"><path fill="rgb(168,80,0)" fill-opacity="1" d=" M8.223999977111816,-3.490000009536743 C5.666999816894531,-9.729000091552734 0.8799999952316284,-9.781000137329102 0,-9.781000137329102 C-0.8289999961853027,-9.781000137329102 -5.666999816894531,-9.729000091552734 -8.223999977111816,-3.490000009536743 C-11.364999771118164,4.172999858856201 -8.473999977111816,12.484999656677246 -7.265999794006348,8.937000274658203 C-4.831999778747559,1.7910000085830688 -0.7379999756813049,1.86899995803833 0,1.86899995803833 C0.777999997138977,1.86899995803833 4.831999778747559,1.7910000085830688 7.265999794006348,8.937000274658203 C8.473999977111816,12.484999656677246 11.364999771118164,4.172999858856201 8.223999977111816,-3.490000009536743z"/></g></g><g style="display: block;" transform="matrix(1.0399999618530273,0,0,1.0399999618530273,273.8464050292969,350.3721618652344)" opacity="1"><g opacity="1" transform="matrix(1,0,0,1,0,0)"><path fill="rgb(168,80,0)" fill-opacity="1" d=" M8.223999977111816,-3.490000009536743 C5.666999816894531,-9.729000091552734 0.8799999952316284,-9.781000137329102 0,-9.781000137329102 C-0.8289999961853027,-9.781000137329102 -5.666999816894531,-9.729000091552734 -8.223999977111816,-3.490000009536743 C-11.364999771118164,4.172999858856201 -8.473999977111816,12.484999656677246 -7.265999794006348,8.937000274658203 C-4.831999778747559,1.7910000085830688 -0.7379999756813049,1.86899995803833 0,1.86899995803833 C0.777999997138977,1.86899995803833 4.831999778747559,1.7910000085830688 7.265999794006348,8.937000274658203 C8.473999977111816,12.484999656677246 11.364999771118164,4.172999858856201 8.223999977111816,-3.490000009536743z"/></g></g><g style="display: block;" transform="matrix(1.0399999618530273,0,0,1.0399999618530273,256.1123352050781,379.5951232910156)" opacity="1"><g opacity="1" transform="matrix(1,0,0,1,0,0)"><path fill="rgb(168,80,0)" fill-opacity="1" d=" M29.98699951171875,-8.442000389099121 C28.458999633789062,-9.687000274658203 20.48699951171875,0.7599999904632568 0,0.7599999904632568 C-20.034000396728516,0.7599999904632568 -28.458999633789062,-9.687000274658203 -29.98699951171875,-8.442000389099121 C-31.756000518798828,-7.000999927520752 -21.05299949645996,8.545000076293945 0,8.545000076293945 C21.05299949645996,8.545000076293945 31.756000518798828,-7.000999927520752 29.98699951171875,-8.442000389099121z"/></g></g></g></svg>