<svg xmlns="http://www.w3.org/2000/svg" xmlns:xlink="http://www.w3.org/1999/xlink" viewBox="0 0 512 512" width="512" height="512" style="width: 100%; height: 100%; transform: translate3d(0,0,0);" preserveAspectRatio="xMidYMid meet"><defs><clipPath id="__lottie_element_43815"><rect width="512" height="512" x="0" y="0"/></clipPath></defs><g clip-path="url(#__lottie_element_43815)"><g style="display: block;" transform="matrix(1,0,0,1,-8,-4)" opacity="1"><g opacity="1" transform="matrix(1,0,0,1,266.4330139160156,258.114013671875)"><path fill="rgb(252,206,44)" fill-opacity="1" d=" M-67.60600280761719,85.40399932861328 C-77.53099822998047,33.9739990234375 -141.25900268554688,-8.831999778747559 -118.94300079345703,-104.68000030517578 C-106.85600280761719,-156.5959930419922 -56.38600158691406,-206.01499938964844 10.112000465393066,-203.406005859375 C66.14900207519531,-201.20700073242188 125.56500244140625,-149.1699981689453 123.60299682617188,-57.85300064086914 C121.49700164794922,40.21500015258789 59.6349983215332,224.5240020751953 -36.15299987792969,201.5399932861328 C-97.75499725341797,186.75799560546875 -59.55799865722656,127.10900115966797 -67.60600280761719,85.40399932861328z"/><path fill="rgb(240,146,1)" fill-opacity="0.7000000000000001" d=" M-67.60600280761719,85.40399932861328 C-77.53099822998047,33.9739990234375 -141.25900268554688,-8.831999778747559 -118.94300079345703,-104.68000030517578 C-106.85600280761719,-156.5959930419922 -56.38600158691406,-206.01499938964844 10.112000465393066,-203.406005859375 C66.14900207519531,-201.20700073242188 125.56500244140625,-149.1699981689453 123.60299682617188,-57.85300064086914 C121.49700164794922,40.21500015258789 59.6349983215332,224.5240020751953 -36.15299987792969,201.5399932861328 C-97.75499725341797,186.75799560546875 -59.55799865722656,127.10900115966797 -67.60600280761719,85.40399932861328z"/></g><g opacity="0.3" transform="matrix(1,0,0,1,269.74798583984375,249.94200134277344)"><path fill="rgb(252,206,44)" fill-opacity="1" d=" M-63.34000015258789,87.97599792480469 C-63.84000015258789,72.3030014038086 -75.71700286865234,55.03799819946289 -88.6729965209961,34.0989990234375 C-99.8550033569336,16.027000427246094 -111.62200164794922,-5.190000057220459 -117.44300079345703,-29.729000091552734 C-122.27400207519531,-50.095001220703125 -122.6719970703125,-73.84300231933594 -115.26200103759766,-100.14800262451172 C-113.21199798583984,-107.427001953125 -110.26599884033203,-114.40699768066406 -106.93099975585938,-121.63600158691406 C-103.92400360107422,-128.1529998779297 -99.89800262451172,-134.81700134277344 -95.8550033569336,-140.9770050048828 C-91.12000274658203,-148.1909942626953 -84.9280014038086,-154.8070068359375 -78.78500366210938,-161.08399963378906 C-71.62300109863281,-168.40199279785156 -63.50699996948242,-174.91900634765625 -54.45000076293945,-180.2530059814453 C-37.362998962402344,-190.31500244140625 -16.923999786376953,-196.1649932861328 6.796999931335449,-195.23399353027344 C62.83399963378906,-193.03500366210938 129.5919952392578,-147.34300231933594 116.22799682617188,-32.22100067138672 C103.25199890136719,79.55799865722656 38.12699890136719,222.6269989013672 -41.91699981689453,196.39100646972656 C-58.21500015258789,191.0489959716797 -64.5530014038086,178.51400756835938 -66.23799896240234,164.8070068359375 C-68.58899688720703,145.67599487304688 -62.36199951171875,118.64199829101562 -63.34000015258789,87.97599792480469z"/></g><g opacity="0.6" transform="matrix(1,0,0,1,269.74798583984375,249.94200134277344)"><path fill="rgb(252,206,44)" fill-opacity="1" d=" M-61.34000015258789,86.60099792480469 C-61.84000015258789,70.9280014038086 -73.84200286865234,53.41299819946289 -86.7979965209961,32.4739990234375 C-97.9800033569336,14.402000427246094 -109.37200164794922,-5.690000057220459 -115.19300079345703,-30.229000091552734 C-120.02400207519531,-50.595001220703125 -120.7969970703125,-73.59300231933594 -113.38700103759766,-99.89800262451172 C-111.33699798583984,-107.177001953125 -109.01599884033203,-114.40699768066406 -105.68099975585938,-121.63600158691406 C-102.67400360107422,-128.1529998779297 -99.14800262451172,-134.56700134277344 -95.1050033569336,-140.7270050048828 C-90.37000274658203,-147.9409942626953 -84.9280014038086,-154.8070068359375 -78.78500366210938,-161.08399963378906 C-71.62300109863281,-168.40199279785156 -63.50699996948242,-174.91900634765625 -54.45000076293945,-180.2530059814453 C-37.362998962402344,-190.31500244140625 -16.923999786376953,-196.1649932861328 6.796999931335449,-195.23399353027344 C62.83399963378906,-193.03500366210938 127.66899871826172,-151.0500030517578 116.22799682617188,-35.72100067138672 C106.76399993896484,59.6619987487793 40.37699890136719,218.1269989013672 -39.66699981689453,191.89100646972656 C-55.96500015258789,186.5489959716797 -61.553001403808594,177.01400756835938 -63.237998962402344,163.3070068359375 C-65.58899688720703,144.17599487304688 -60.36199951171875,117.26699829101562 -61.34000015258789,86.60099792480469z"/></g><g opacity="1" transform="matrix(1,0,0,1,269.74798583984375,249.94200134277344)"><path fill="rgb(252,206,44)" fill-opacity="1" d=" M-59.34000015258789,85.22599792480469 C-59.84000015258789,69.5530014038086 -71.59200286865234,51.91299819946289 -84.5479965209961,30.974000930786133 C-95.7300033569336,12.902000427246094 -107.37200164794922,-6.315000057220459 -113.19300079345703,-30.854000091552734 C-118.02400207519531,-51.220001220703125 -118.9219970703125,-73.21800231933594 -111.51200103759766,-99.52300262451172 C-109.46199798583984,-106.802001953125 -107.01599884033203,-113.40699768066406 -103.68099975585938,-120.63600158691406 C-100.67400360107422,-127.15299987792969 -96.39800262451172,-135.06700134277344 -92.3550033569336,-141.2270050048828 C-87.62000274658203,-148.4409942626953 -81.9280014038086,-156.0570068359375 -75.78500366210938,-162.33399963378906 C-68.62300109863281,-169.65199279785156 -63.50699996948242,-174.91900634765625 -54.45000076293945,-180.2530059814453 C-37.362998962402344,-190.31500244140625 -16.930999755859375,-195.94900512695312 6.796999931335449,-195.23399353027344 C66.25199890136719,-193.44200134277344 124.75199890136719,-141.44200134277344 115.22799682617188,-45.72100067138672 C102.5009994506836,82.18800354003906 30.75200080871582,207.05799865722656 -36.66699981689453,188.14100646972656 C-53.18000030517578,183.50799560546875 -58.303001403808594,174.76400756835938 -59.987998962402344,161.0570068359375 C-62.3390007019043,141.92599487304688 -58.36199951171875,115.89199829101562 -59.34000015258789,85.22599792480469z"/></g><g opacity="1" transform="matrix(1,0,0,1,267.68499755859375,151.16299438476562)"><path fill="rgb(255,215,93)" fill-opacity="1" d=" M-121.59400177001953,22.53499984741211 C-115.25299835205078,-54.49100112915039 -57.63800048828125,-99.06400299072266 8.859999656677246,-96.45500183105469 C64.89700317382812,-94.25599670410156 140.88999938964844,-39.76300048828125 117.11699676513672,96.56300354003906 C123.66699981689453,-22.783000946044922 69.4020004272461,-76.45899963378906 9.729000091552734,-84.70600128173828 C-32.479000091552734,-90.54000091552734 -111.3290023803711,-62.87699890136719 -121.59400177001953,22.53499984741211z"/></g><g opacity="0" transform="matrix(1,0,0,1,0,0)"><path fill="rgb(240,146,1)" fill-opacity="1" d=" M199.53900146484375,81.46299743652344 C169.58399963378906,99.71800231933594 167.35499572753906,110.49299621582031 159.0229949951172,125.53700256347656 C149.74099731445312,142.2969970703125 190.5570068359375,182.33200073242188 188.47500610351562,171.47000122070312 C184.6999969482422,151.77499389648438 189.69900512695312,150.54400634765625 186.54400634765625,172.947998046875 C179.83900451660156,168.36300659179688 121.90799713134766,127.65699768066406 199.53900146484375,81.46299743652344z"/></g><g opacity="0" transform="matrix(1,0,0,1,0,0)"><path fill="rgb(240,146,1)" fill-opacity="1" d=" M199.53900146484375,81.46299743652344 C169.58399963378906,99.71800231933594 167.35499572753906,110.49299621582031 159.0229949951172,125.53700256347656 C149.74099731445312,142.2969970703125 190.5570068359375,182.33200073242188 188.47500610351562,171.47000122070312 C184.6999969482422,151.77499389648438 189.69900512695312,150.54400634765625 186.54400634765625,172.947998046875 C179.83900451660156,168.36300659179688 121.90799713134766,127.65699768066406 199.53900146484375,81.46299743652344z"/></g><g opacity="0" transform="matrix(1,0,0,1,0,0)"><path fill="rgb(240,146,1)" fill-opacity="1" d=" M199.53900146484375,81.46299743652344 C169.58399963378906,99.71800231933594 167.35499572753906,110.49299621582031 159.0229949951172,125.53700256347656 C149.74099731445312,142.2969970703125 190.5570068359375,182.33200073242188 188.47500610351562,171.47000122070312 C184.6999969482422,151.77499389648438 189.69900512695312,150.54400634765625 186.54400634765625,172.947998046875 C179.7209930419922,168.35000610351562 121.90799713134766,127.65699768066406 199.53900146484375,81.46299743652344z"/></g><g opacity="0.5" transform="matrix(1,0,0,1,0,0)"><path fill="rgb(240,146,1)" fill-opacity="1" d=" M242.2220001220703,106.78199768066406 C349.5,87.5 359.6059875488281,213.0570068359375 357.68499755859375,197.16900634765625 C344.9209899902344,91.6240005493164 244.9810028076172,94.25900268554688 219.47300720214844,115.61900329589844 C202,130.25 184.43699645996094,158.46099853515625 199.552001953125,138.3719940185547 C217.04800415039062,115.11799621582031 231.6699981689453,108.67900085449219 242.2220001220703,106.78199768066406z"/></g></g><g style="display: block;" transform="matrix(1,0,0,1,-8,-4)" opacity="1"><g opacity="1" transform="matrix(1,0,0,1,268.6059875488281,332.1669921875)"><path fill="rgb(255,215,93)" fill-opacity="1" d=" M47.68000030517578,-51.46799850463867 C26.676000595092773,3.7309999465942383 -1.1610000133514404,4.1579999923706055 -6.245999813079834,13.315999984741211 C-13.746999740600586,26.82200050354004 -24.68400001525879,42.35900115966797 -35.41999816894531,39.069000244140625 C-46.15599822998047,35.77799987792969 -44.972999572753906,19.738000869750977 -45.1879997253418,7.867000102996826 C-47.35100173950195,22.452999114990234 -51.75899887084961,44.43000030517578 -38.69499969482422,49.6879997253418 C-30.834999084472656,52.85100173950195 -19.663999557495117,53.433998107910156 -11.36400032043457,37.284000396728516 C-9.77400016784668,34.189998626708984 -2.7769999504089355,21.579999923706055 2.5490000247955322,17.388999938964844 C8.706999778747559,12.543000221252441 38.492000579833984,9.817000389099121 47.68000030517578,-51.46799850463867z"/></g><g opacity="0.5" transform="matrix(1,0,0,1,255.30599975585938,281.2430114746094)"><path fill="rgb(240,146,1)" fill-opacity="1" d=" M-57.305999755859375,-91.43099975585938 C-52.41299819946289,-73.36399841308594 -8.805999755859375,-46.24300003051758 18.02400016784668,-35.57899856567383 C43.185001373291016,-25.577999114990234 51.71200180053711,-15.517000198364258 30.08300018310547,-20.618000030517578 C9.944000244140625,-25.368000030517578 -14.857000350952148,-32.40800094604492 -30.190000534057617,-38.244998931884766 C-46.930999755859375,-44.61800003051758 -60.775001525878906,-28.06399917602539 -50.81399917602539,-11.609000205993652 C-40.86899948120117,4.818999767303467 -26.054000854492188,13.039999961853027 -24.774999618530273,26.413000106811523 C-23.334999084472656,41.46799850463867 -29.490999221801758,60.012001037597656 -30.118000030517578,74.85099792480469 C-30.746000289916992,89.69000244140625 -15.562999725341797,98.72599792480469 -6.181000232696533,83.72599792480469 C6.177999973297119,63.965999603271484 11.871999740600586,57.89799880981445 29.663000106811523,49.47600173950195 C50.194000244140625,39.75699996948242 66.18299865722656,-1.1059999465942383 54.00600051879883,-27.27400016784668 C28.194000244140625,-82.74299621582031 -35.305999755859375,-89.74299621582031 -57.305999755859375,-91.43099975585938z"/></g><g opacity="0.3" transform="matrix(1,0,0,1,255.30599975585938,281.2430114746094)"><path fill="rgb(240,146,1)" fill-opacity="1" d=" M-57.305999755859375,-91.43099975585938 C-52.41299819946289,-73.36399841308594 -18.305999755859375,-50.61800003051758 16.77400016784668,-34.57899856567383 C31.367000579833984,-27.906999588012695 40.6619987487793,-20.672000885009766 14.958000183105469,-26.618000030517578 C3.069000005722046,-29.368000030517578 -25.055999755859375,-37.86899948120117 -39.87799835205078,-44.80799865722656 C-58.10100173950195,-53.34000015258789 -63.856998443603516,-36.26900100708008 -53.970001220703125,-16.858999252319336 C-44.83700180053711,1.069000005722046 -26.054000854492188,13.039999961853027 -24.774999618530273,26.413000106811523 C-23.334999084472656,41.46799850463867 -29.490999221801758,60.012001037597656 -30.118000030517578,74.85099792480469 C-30.746000289916992,89.69000244140625 -15.562999725341797,98.72599792480469 -6.181000232696533,83.72599792480469 C6.177999973297119,63.965999603271484 11.871999740600586,57.89799880981445 29.663000106811523,49.47600173950195 C50.194000244140625,39.75699996948242 66.18299865722656,-1.1059999465942383 54.00600051879883,-27.27400016784668 C28.194000244140625,-82.74299621582031 -35.305999755859375,-89.74299621582031 -57.305999755859375,-91.43099975585938z"/></g><g opacity="0.2" transform="matrix(1,0,0,1,255.30599975585938,281.2430114746094)"><path fill="rgb(240,146,1)" fill-opacity="1" d=" M-57.305999755859375,-91.43099975585938 C-52.41299819946289,-73.36399841308594 -35.75600051879883,-59.64899826049805 -8.97599983215332,-46.20399856567383 C22.319000244140625,-30.493000030517578 24.55699920654297,-25.37299919128418 -1.4170000553131104,-32.74300003051758 C-12.430999755859375,-35.86800003051758 -30.930999755859375,-42.61800003051758 -46.564998626708984,-50.869998931884766 C-65.34500122070312,-60.78300094604492 -66.18099975585938,-38.74300003051758 -54.43899917602539,-17.108999252319336 C-44.840999603271484,0.574999988079071 -26.054000854492188,13.039999961853027 -24.774999618530273,26.413000106811523 C-23.334999084472656,41.46799850463867 -29.490999221801758,60.012001037597656 -30.118000030517578,74.85099792480469 C-30.746000289916992,89.69000244140625 -15.562999725341797,98.72599792480469 -6.181000232696533,83.72599792480469 C6.177999973297119,63.965999603271484 11.871999740600586,57.89799880981445 29.663000106811523,49.47600173950195 C50.194000244140625,39.75699996948242 66.18299865722656,-1.1059999465942383 54.00600051879883,-27.27400016784668 C28.194000244140625,-82.74299621582031 -35.305999755859375,-89.74299621582031 -57.305999755859375,-91.43099975585938z"/></g><g opacity="0.1" transform="matrix(1,0,0,1,255.30599975585938,281.2430114746094)"><path fill="rgb(240,146,1)" fill-opacity="1" d=" M-57.305999755859375,-91.43099975585938 C-52.41299819946289,-73.36399841308594 -35.69900131225586,-59.117000579833984 -14.72599983215332,-48.32899856567383 C11.444000244140625,-34.86800003051758 3.1010000705718994,-32.81399917602539 -7.041999816894531,-35.99300003051758 C-19.805999755859375,-39.99300003051758 -32.233001708984375,-43.48099899291992 -42.189998626708984,-50.619998931884766 C-76.18099975585938,-74.99299621582031 -72.55599975585938,-52.49300003051758 -55.06399917602539,-17.608999252319336 C-46.04499816894531,0.37700000405311584 -26.054000854492188,13.039999961853027 -24.774999618530273,26.413000106811523 C-23.334999084472656,41.46799850463867 -29.490999221801758,60.012001037597656 -30.118000030517578,74.85099792480469 C-30.746000289916992,89.69000244140625 -15.562999725341797,98.72599792480469 -6.181000232696533,83.72599792480469 C6.177999973297119,63.965999603271484 11.871999740600586,57.89799880981445 29.663000106811523,49.47600173950195 C50.194000244140625,39.75699996948242 66.18299865722656,-1.1059999465942383 54.00600051879883,-27.27400016784668 C28.194000244140625,-82.74299621582031 -35.305999755859375,-89.74299621582031 -57.305999755859375,-91.43099975585938z"/></g><g opacity="0.5" transform="matrix(1,0,0,1,276.25799560546875,223.70199584960938)"><path fill="rgb(240,146,1)" fill-opacity="1" d=" M-23.413000106811523,-22.843000411987305 C0.6809999942779541,-13.980999946594238 46.492000579833984,15.79800033569336 35.77299880981445,73.49299621582031 C51.034000396728516,33.250999450683594 27.660999298095703,9.472000122070312 3.128000020980835,-10.692000389099121 C-21.486000061035156,-30.922000885009766 -52.882999420166016,-36.32699966430664 -67.43199920654297,-38.82400131225586 C-75.2750015258789,-40.16999816894531 -78.63300323486328,-57.95199966430664 -76.21199798583984,-66.03099822998047 C-72.51000213623047,-78.38400268554688 -59.20800018310547,-75.53600311279297 -50.255001068115234,-82.43499755859375 C-38.689998626708984,-91.34600067138672 -55.757999420166016,-115.7020034790039 -12.869000434875488,-113.6520004272461 C26.982999801635742,-111.74700164794922 56.83399963378906,-91.6500015258789 71.27400207519531,-45.064998626708984 C80.49199676513672,-15.32699966430664 79.49199676513672,-3.9519999027252197 79.08699798583984,22.64900016784668 C78.94400024414062,32.047000885009766 74.28500366210938,55.58000183105469 79.04399871826172,50.34299850463867 C82.49199676513672,46.54800033569336 83.9260025024414,32.49700164794922 84.9489974975586,22.25200080871582 C86.49199676513672,6.797999858856201 83.74199676513672,-35.20199966430664 76.87200164794922,-51.667999267578125 C66.15299987792969,-77.35900115966797 52.930999755859375,-109.18800354003906 0.4749999940395355,-118.625 C-55.683998107910156,-128.7270050048828 -106.30899810791016,-75.40399932861328 -79.78099822998047,-33.077999114990234 C-78.74500274658203,-32.97800064086914 -51.387001037597656,-33.13199996948242 -23.413000106811523,-22.843000411987305z"/></g><g opacity="0.3" transform="matrix(1,0,0,1,276.25799560546875,223.70199584960938)"><path fill="rgb(240,146,1)" fill-opacity="1" d=" M-23.413000106811523,-22.843000411987305 C0.6809999942779541,-13.980999946594238 46.492000579833984,15.79800033569336 35.77299880981445,73.49299621582031 C51.034000396728516,33.250999450683594 28.625,5.488999843597412 4.002999782562256,-14.567000389099121 C-20.888999938964844,-34.84299850463867 -56.507999420166016,-40.20199966430664 -63.55699920654297,-42.07400131225586 C-73.17900085449219,-44.62900161743164 -74.75800323486328,-56.45199966430664 -73.58699798583984,-64.03099822998047 C-71.76499938964844,-75.82599639892578 -42.20800018310547,-71.28600311279297 -33.255001068115234,-78.18499755859375 C-21.690000534057617,-87.09600067138672 -46.507999420166016,-111.7020034790039 -12.244000434875488,-110.2770004272461 C17.02400016784668,-109.05999755859375 53.54100036621094,-94.41899871826172 69.52400207519531,-44.814998626708984 C79.99199676513672,-12.32699966430664 78.33000183105469,16.79599952697754 76.33699798583984,46.02399826049805 C73.99199676513672,80.4229965209961 51.29199981689453,114.33100128173828 59.41899871826172,105.21800231933594 C65.36699676513672,98.5479965209961 75.99199676513672,74.4229965209961 81.9489974975586,53.25199890136719 C87.30899810791016,34.20199966430664 91.74500274658203,-11.041999816894531 77.37200164794922,-51.417999267578125 C68.03600311279297,-77.64299774169922 52.930999755859375,-109.18800354003906 0.4749999940395355,-118.625 C-55.683998107910156,-128.7270050048828 -106.30899810791016,-75.40399932861328 -79.78099822998047,-33.077999114990234 C-78.74500274658203,-32.97800064086914 -51.387001037597656,-33.13199996948242 -23.413000106811523,-22.843000411987305z"/></g><g opacity="0.15" transform="matrix(1,0,0,1,276.25799560546875,223.70199584960938)"><path fill="rgb(240,146,1)" fill-opacity="1" d=" M-23.413000106811523,-22.843000411987305 C0.6809999942779541,-13.980999946594238 46.492000579833984,15.79800033569336 35.77299880981445,73.49299621582031 C52.117000579833984,32.92300033569336 29.660999298095703,3.8469998836517334 5.127999782562256,-16.316999435424805 C-19.486000061035156,-36.547000885009766 -47.57099914550781,-40.0359992980957 -61.18199920654297,-44.69900131225586 C-67.75800323486328,-46.95199966430664 -74.4520034790039,-56.6510009765625 -70.71199798583984,-63.65599822998047 C-66.88300323486328,-70.8270034790039 -28.70800018310547,-65.03600311279297 -19.7549991607666,-71.93499755859375 C-8.1899995803833,-80.84600067138672 -35.27399826049805,-110.10700225830078 -11.494000434875488,-108.5270004272461 C23.492000579833984,-106.2020034790039 52.367000579833984,-88.5770034790039 67.77400207519531,-44.314998626708984 C78.45099639892578,-13.640000343322754 77.54299926757812,16.922000885009766 74.77400207519531,46.08700180053711 C71.29000091552734,82.78500366210938 45.03900146484375,124.39800262451172 53.23099899291992,115.34300231933594 C59.49100112915039,108.4229965209961 75.00700378417969,78.21299743652344 81.9489974975586,53.25199890136719 C87.2509994506836,34.18600082397461 91.74500274658203,-11.041999816894531 77.37200164794922,-51.417999267578125 C68.03600311279297,-77.64299774169922 52.930999755859375,-109.18800354003906 0.4749999940395355,-118.625 C-55.683998107910156,-128.7270050048828 -106.30899810791016,-75.40399932861328 -79.78099822998047,-33.077999114990234 C-78.74500274658203,-32.97800064086914 -51.387001037597656,-33.13199996948242 -23.413000106811523,-22.843000411987305z"/></g><g opacity="0.2" transform="matrix(1,0,0,1,276.25799560546875,223.70199584960938)"><path fill="rgb(240,146,1)" fill-opacity="1" d=" M-23.413000106811523,-22.843000411987305 C0.6809999942779541,-13.980999946594238 46.492000579833984,15.79800033569336 35.77299880981445,73.49299621582031 C52.117000579833984,32.92300033569336 30.910999298095703,2.5969998836517334 6.377999782562256,-17.566999435424805 C-18.236000061035156,-37.797000885009766 -43.82099914550781,-41.7859992980957 -57.43199920654297,-46.44900131225586 C-64.00800323486328,-48.70199966430664 -69.2020034790039,-54.9010009765625 -65.46199798583984,-61.90599822998047 C-61.632999420166016,-69.0770034790039 -15.208000183105469,-58.0359992980957 -6.255000114440918,-64.93499755859375 C5.309999942779541,-73.84600067138672 -31.663000106811523,-109.06400299072266 -7.99399995803833,-106.2770004272461 C24.492000579833984,-102.4520034790039 50.492000579833984,-88.2020034790039 65.89900207519531,-43.939998626708984 C76.57599639892578,-13.265000343322754 76.29299926757812,16.858999252319336 73.52400207519531,46.02399826049805 C70.04000091552734,82.72200012207031 41.08700180053711,127.99800109863281 50.23099899291992,119.90599822998047 C56.99100112915039,113.9229965209961 75.00700378417969,78.21299743652344 81.9489974975586,53.25199890136719 C87.2509994506836,34.18600082397461 91.74500274658203,-11.041999816894531 77.37200164794922,-51.417999267578125 C68.03600311279297,-77.64299774169922 52.930999755859375,-109.18800354003906 0.4749999940395355,-118.625 C-55.683998107910156,-128.7270050048828 -106.30899810791016,-75.40399932861328 -79.78099822998047,-33.077999114990234 C-78.74500274658203,-32.97800064086914 -51.387001037597656,-33.13199996948242 -23.413000106811523,-22.843000411987305z"/></g><g opacity="0.1" transform="matrix(1,0,0,1,276.25799560546875,223.70199584960938)"><path fill="rgb(240,146,1)" fill-opacity="1" d=" M-23.413000106811523,-22.843000411987305 C0.6809999942779541,-13.980999946594238 46.492000579833984,15.79800033569336 35.77299880981445,73.49299621582031 C53.492000579833984,33.04800033569336 32.1609992980957,0.22200000286102295 7.627999782562256,-19.941999435424805 C-16.986000061035156,-40.172000885009766 -37.165000915527344,-46.465999603271484 -53.43199920654297,-50.19900131225586 C-57.257999420166016,-51.07699966430664 -68.38300323486328,-58.45199966430664 -57.83700180053711,-59.03099822998047 C-51.46500015258789,-59.38100051879883 -0.7080000042915344,-50.5359992980957 8.244999885559082,-57.435001373291016 C19.809999465942383,-66.34600067138672 -28.507999420166016,-116.2020034790039 29.881000518798828,-87.6520004272461 C43.518001556396484,-80.98400115966797 55.492000579833984,-65.9520034790039 63.52399826049805,-42.939998626708984 C74.22699737548828,-12.27400016784668 75.78800201416016,16.83799934387207 72.08699798583984,45.89899826049805 C66.24199676513672,91.7979965209961 34.78099822998047,132.0469970703125 45.54399871826172,126.28099822998047 C53.624000549316406,121.9520034790039 75.00700378417969,78.21299743652344 81.9489974975586,53.25199890136719 C87.2509994506836,34.18600082397461 91.74500274658203,-11.041999816894531 77.37200164794922,-51.417999267578125 C68.03600311279297,-77.64299774169922 52.930999755859375,-109.18800354003906 0.4749999940395355,-118.625 C-55.683998107910156,-128.7270050048828 -106.30899810791016,-75.40399932861328 -79.78099822998047,-33.077999114990234 C-78.74500274658203,-32.97800064086914 -51.387001037597656,-33.13199996948242 -23.413000106811523,-22.843000411987305z"/></g><g opacity="0.1" transform="matrix(1,0,0,1,254.36599731445312,297.7950134277344)"><path fill="rgb(252,206,44)" fill-opacity="1" d=" M26.67799949645996,-31.849000930786133 C9.298999786376953,-35.948001861572266 -11.116000175476074,-42.54499816894531 -26.79599952697754,-46.41600036621094 C-42.18199920654297,-50.2140007019043 -47.74100112915039,-42.41999816894531 -33.20800018310547,-22.35700035095215 C-25.32699966430664,-11.47700023651123 -22.982999801635742,-3.436000108718872 -21.70400047302246,9.937999725341797 C-20.263999938964844,24.993000030517578 -31.365999221801758,49.95500183105469 -19.135000228881836,53.67300033569336 C-5.190999984741211,57.9119987487793 -6.896999835968018,40.847999572753906 27.618000030517578,25.735000610351562 C45.7760009765625,17.784000396728516 61.88399887084961,-23.545000076293945 26.67799949645996,-31.849000930786133z"/></g><g opacity="0.2" transform="matrix(1,0,0,1,254.36599731445312,297.7950134277344)"><path fill="rgb(252,206,44)" fill-opacity="1" d=" M23.92799949645996,-28.974000930786133 C6.260000228881836,-34.637001037597656 -11.116000175476074,-41.04499816894531 -25.67099952697754,-44.04100036621094 C-41.19300079345703,-47.236000061035156 -41.24100112915039,-36.66999816894531 -30.83300018310547,-21.48200035095215 C-25.62700080871582,-13.885000228881836 -20.240999221801758,-2.2950000762939453 -20.57900047302246,10.062999725341797 C-20.900999069213867,21.83300018310547 -26.740999221801758,44.20500183105469 -18.135000228881836,47.42300033569336 C-4.484000205993652,52.527000427246094 0.49000000953674316,32.62699890136719 24.253000259399414,20.468000411987305 C41.7140007019043,11.534000396728516 47.88399887084961,-21.295000076293945 23.92799949645996,-28.974000930786133z"/></g><g opacity="0.3" transform="matrix(1,0,0,1,254.36599731445312,297.7950134277344)"><path fill="rgb(252,206,44)" fill-opacity="1" d=" M18.05299949645996,-26.599000930786133 C8.109000205993652,-30.290000915527344 -10.991000175476074,-37.79499816894531 -22.67099952697754,-40.41600036621094 C-38.13399887084961,-43.88600158691406 -36.698001861572266,-34.6609992980957 -28.58300018310547,-20.85700035095215 C-22.740999221801758,-10.920000076293945 -18.523000717163086,-2.7230000495910645 -19.32900047302246,10.687999725341797 C-19.990999221801758,21.704999923706055 -24.615999221801758,36.95500183105469 -17.010000228881836,39.04800033569336 C-2.9579999446868896,42.915000915527344 3.25,27.38800048828125 21.239999771118164,13.848999977111816 C36.347999572753906,2.4790000915527344 36.38399887084961,-19.795000076293945 18.05299949645996,-26.599000930786133z"/></g><g opacity="0.5" transform="matrix(1,0,0,1,254.36599731445312,297.7950134277344)"><path fill="rgb(252,206,44)" fill-opacity="1" d=" M12.178000450134277,-24.974000930786133 C6.663000106811523,-27.33300018310547 -10.991000175476074,-35.04499816894531 -20.54599952697754,-37.91600036621094 C-35.722999572753906,-42.47600173950195 -34.74100112915039,-34.66999816894531 -27.83300018310547,-22.35700035095215 C-23.79199981689453,-15.154000282287598 -15.616000175476074,-2.7950000762939453 -17.70400047302246,13.062999725341797 C-18.424999237060547,18.53499984741211 -22.974000930786133,30.280000686645508 -15.385000228881836,32.92300033569336 C-8.116000175476074,35.45500183105469 -1.0920000076293945,26.993000030517578 14.295000076293945,11.196000099182129 C24.011999130249023,1.2200000286102295 33.63399887084961,-15.795000076293945 12.178000450134277,-24.974000930786133z"/></g><g opacity="1" transform="matrix(1,0,0,1,223.0399932861328,295.88299560546875)"><path fill="rgb(225,124,0)" fill-opacity="1" d=" M-17.899999618530273,-30.676000595092773 C-5.752999782562256,-39.797000885009766 5.619999885559082,-26.739999771118164 13.609000205993652,-10.836999893188477 C21.98900032043457,5.843999862670898 17.37299919128418,31.559999465942383 6.01200008392334,33.685001373291016 C7.309000015258789,21.625 8.494999885559082,4.806000232696533 -2.506999969482422,-7.618000030517578 C-9.140000343322754,-15.107000350952148 -15.845999717712402,-18.207000732421875 -17.899999618530273,-30.676000595092773z"/></g><g opacity="0.3" transform="matrix(1,0,0,1,260.3190002441406,228.11900329589844)"><path fill="rgb(252,206,44)" fill-opacity="1" d=" M27.540000915527344,14.251999855041504 C33.270999908447266,12.878000259399414 23.430999755859375,-4.61899995803833 -5.745999813079834,-17.26099967956543 C-17.290000915527344,-22.26300048828125 -57.19599914550781,-33.92900085449219 -45.71799850463867,-20.628000259399414 C-37.944000244140625,-11.619000434875488 -8.862000465393066,1.687000036239624 0.296999990940094,5.670000076293945 C7.681000232696533,8.880999565124512 22.305999755859375,15.506999969482422 27.540000915527344,14.251999855041504z"/></g><g opacity="0.3" transform="matrix(1,0,0,1,260.3190002441406,228.11900329589844)"><path fill="rgb(252,206,44)" fill-opacity="1" d=" M22.851999282836914,9.689000129699707 C25.680999755859375,8.130999565124512 18.055999755859375,-3.49399995803833 -1.996000051498413,-12.38599967956543 C-14.704999923706055,-18.02199935913086 -40.92599868774414,-25.7549991607666 -35.84299850463867,-17.628000259399414 C-32.319000244140625,-11.994000434875488 -6.85699987411499,0.5080000162124634 2.3589999675750732,4.357999801635742 C10.64900016784668,7.821000099182129 19.152999877929688,11.72599983215332 22.851999282836914,9.689000129699707z"/></g><g opacity="0.3" transform="matrix(1,0,0,1,260.3190002441406,228.11900329589844)"><path fill="rgb(252,206,44)" fill-opacity="1" d=" M19.851999282836914,6.689000129699707 C20.402999877929688,5.205999851226807 15.055999755859375,-2.11899995803833 -1.559000015258789,-8.38599967956543 C-10.77299976348877,-11.862000465393066 -17.36199951171875,-11.751999855041504 -15.093000411987305,-7.440000057220459 C-13.444000244140625,-4.306000232696533 -5.390999794006348,-0.8500000238418579 -0.328000009059906,1.5449999570846558 C5.931000232696533,4.50600004196167 18.80500030517578,9.505999565124512 19.851999282836914,6.689000129699707z"/></g><g opacity="0.3" transform="matrix(1,0,0,1,260.3190002441406,228.11900329589844)"><path fill="rgb(252,206,44)" fill-opacity="1" d=" M15.9350004196167,4.677999973297119 C17.28700065612793,3.6530001163482666 13.180999755859375,0.13099999725818634 6.98799991607666,-2.4820001125335693 C1.2869999408721924,-4.888000011444092 -6.256999969482422,-6.306000232696533 -3.9200000762939453,-2.6740000247955322 C-2.884999990463257,-1.065999984741211 1.4930000305175781,1.0069999694824219 5.2729997634887695,2.3980000019073486 C9.402000427246094,3.9179999828338623 14.430999755859375,5.818999767303467 15.9350004196167,4.677999973297119z"/></g><g opacity="0.5" transform="matrix(1,0,0,1,0,0)"><path fill="rgb(255,215,93)" fill-opacity="1" d=" M301.5,182.25 C285.2200012207031,178.6320037841797 268.90399169921875,180.90199279785156 284.5,189 C297.5,195.75 312.75,209.75 320.25,229.5 C327.3550109863281,248.2100067138672 327.8399963378906,227.61900329589844 324,212.5 C320,196.75 312.75,184.75 301.5,182.25z"/></g></g><g style="display: block;" transform="matrix(1,0,0,1,258.46099853515625,254.90200805664062)" opacity="1"><g opacity="1" transform="matrix(1,0,0,1,0,0)"><path stroke-linecap="round" stroke-linejoin="round" fill-opacity="0" stroke="rgb(225,124,0)" stroke-opacity="1" stroke-width="8" d=" M-66.68099975585938,86.05599975585938 C-76.60600280761719,34.625999450683594 -141.28700256347656,-9.619999885559082 -118.97100067138672,-105.46800231933594 C-106.88400268554688,-157.38400268554688 -56.41400146484375,-206.80299377441406 10.083999633789062,-204.19400024414062 C66.12100219726562,-201.9949951171875 125.54100036621094,-149.3070068359375 123.57499694824219,-58.64099884033203 C121.26899719238281,47.70500183105469 47.965999603271484,237.97300720214844 -42.137001037597656,199.14999389648438 C-91.84500122070312,177.7310028076172 -58.632999420166016,127.76100158691406 -66.68099975585938,86.05599975585938z"/></g></g><g style="display: block;" transform="matrix(1,0,0,1,-8,-4)" opacity="1"><g opacity="1" transform="matrix(1,0,0,1,254.6739959716797,281.1629943847656)"><path stroke-linecap="round" stroke-linejoin="round" fill-opacity="0" stroke="rgb(225,124,0)" stroke-opacity="1" stroke-width="8" d=" M-46.46799850463867,-12.654999732971191 C-45.45000076293945,-10.96500015258789 -44.347999572753906,-9.347000122070312 -43.172000885009766,-7.795000076293945 C-36.277000427246094,1.3040000200271606 -24.34600067138672,13.928999900817871 -23.759000778198242,28.988000869750977 C-23.089000701904297,46.18600082397461 -38.8390007019043,87.00399780273438 -18.743000030517578,90.85800170898438 C-5.179999828338623,93.45899963378906 0.7490000128746033,71.0250015258789 8.197999954223633,63.36000061035156 C21.017000198364258,50.16899871826172 39.237998962402344,52.020999908447266 52.47200012207031,19.125 C75.13500213623047,-37.21200180053711 19.784000396728516,-75.21900177001953 -15.515000343322754,-85.18800354003906 C-28.624000549316406,-88.88999938964844 -44.53099822998047,-90.80400085449219 -57.7599983215332,-91.06600189208984"/></g><g opacity="1" transform="matrix(1,0,0,1,274.8450012207031,189.44200134277344)"><path stroke-linecap="round" stroke-linejoin="round" fill-opacity="0" stroke="rgb(225,124,0)" stroke-opacity="1" stroke-width="8" d=" M-24.542999267578125,42.00400161743164 C-38.654998779296875,35.7869987487793 -66.96900177001953,24.881000518798828 -78.19400024414062,6.046000003814697 C-100.17400360107422,-30.836000442504883 -71.41000366210938,-85.06900024414062 -13.4399995803833,-85.4800033569336 C68.86100006103516,-86.06300354003906 98.43499755859375,0.9660000205039978 80.55000305175781,82.92900085449219"/></g></g><g style="display: block;" transform="matrix(1,0,0,1,-8,-4)" opacity="1"><g opacity="0.5" transform="matrix(1,0,0,1,254.6739959716797,281.1629943847656)"><path fill="rgb(252,206,44)" fill-opacity="1" d=" M-39.61199951171875,29.14900016784668 C-73.67500305175781,-22.913000106811523 -50.78499984741211,-12.881999969482422 -49.45399856567383,-11.586999893188477 C-45.54899978637695,-7.788000106811523 -41.64500045776367,-5.0269999504089355 -36.922000885009766,1.2050000429153442 C-30.027000427246094,10.303999900817871 -24.34600067138672,13.928999900817871 -23.759000778198242,28.988000869750977 C-23.469999313354492,36.39899826049805 -27.673999786376953,57.08599853515625 -31.607999801635742,75.53099822998047 C-33.67399978637695,68.58599853515625 -33.17399978637695,39.08700180053711 -38.7599983215332,29.68400001525879"/></g><g opacity="0.5" transform="matrix(1,0,0,1,254.6739959716797,281.1629943847656)"><path fill="rgb(252,206,44)" fill-opacity="1" d=" M-39.61199951171875,29.14900016784668 C-73.67500305175781,-22.913000106811523 -50.78499984741211,-12.881999969482422 -49.45399856567383,-11.586999893188477 C-45.54899978637695,-7.788000106811523 -41.64500045776367,-5.0269999504089355 -36.922000885009766,1.2050000429153442 C-30.027000427246094,10.303999900817871 -24.34600067138672,13.928999900817871 -23.759000778198242,28.988000869750977 C-23.469999313354492,36.39899826049805 -27.673999786376953,57.08599853515625 -31.607999801635742,75.53099822998047 C-33.67399978637695,68.58599853515625 -33.17399978637695,39.08700180053711 -38.7599983215332,29.68400001525879"/></g><g opacity="1" transform="matrix(1,0,0,1,213.76300048828125,290.5429992675781)"><path fill="rgb(255,215,93)" fill-opacity="1" d=" M-9.97599983215332,-21.97100067138672 C-10.137999534606934,-12.916999816894531 -3.763000011444092,-5.541999816894531 1.4170000553131104,0.9399999976158142 C6.834000110626221,7.718999862670898 10.35099983215332,16.357999801635742 12.211000442504883,34.09600067138672 C22.430999755859375,-7.434000015258789 -0.17399999499320984,-9.071000099182129 -9.97599983215332,-21.97100067138672z"/></g><g opacity="1" transform="matrix(1,0,0,1,254.6739959716797,281.1629943847656)"><path stroke-linecap="round" stroke-linejoin="round" fill-opacity="0" stroke="rgb(225,124,0)" stroke-opacity="1" stroke-width="8" d=" M-46.46799850463867,-12.654999732971191 C-45.45000076293945,-10.96500015258789 -44.347999572753906,-9.347000122070312 -43.172000885009766,-7.795000076293945 C-36.277000427246094,1.3040000200271606 -24.34600067138672,13.928999900817871 -23.759000778198242,28.988000869750977 C-23.301000595092773,40.74100112915039 -30.51099967956543,63.52399826049805 -28.709999084472656,78.00299835205078"/></g></g><g style="display: block;" transform="matrix(1,0,0,1,230,287)" opacity="0.8"><g opacity="0" transform="matrix(1,0,0,1,-195,75)"><path stroke-linecap="butt" stroke-linejoin="miter" fill-opacity="0" stroke-miterlimit="4" stroke="rgb(94,136,189)" stroke-opacity="1" stroke-width="8" d="M0 0"/></g></g><g style="display: block;" transform="matrix(1,0,0,1,230,287)" opacity="0.8"><g opacity="0" transform="matrix(1,0,0,1,-195,75)"><path stroke-linecap="butt" stroke-linejoin="miter" fill-opacity="0" stroke-miterlimit="4" stroke="rgb(94,136,189)" stroke-opacity="1" stroke-width="8" d="M0 0"/></g></g><g style="display: block;" transform="matrix(1,0,0,1,230,287)" opacity="0.8"><g opacity="0" transform="matrix(1,0,0,1,-195,75)"><path stroke-linecap="butt" stroke-linejoin="miter" fill-opacity="0" stroke-miterlimit="4" stroke="rgb(94,136,189)" stroke-opacity="1" stroke-width="8" d="M0 0"/></g></g><g style="display: block;" transform="matrix(1,0,0,1,230,287)" opacity="0.8"><g opacity="0" transform="matrix(1,0,0,1,-195,75)"><path stroke-linecap="butt" stroke-linejoin="miter" fill-opacity="0" stroke-miterlimit="4" stroke="rgb(94,136,189)" stroke-opacity="1" stroke-width="8" d="M0 0"/></g></g><g style="display: block;" transform="matrix(1,0,0,1,230,287)" opacity="0.8"><g opacity="0" transform="matrix(1,0,0,1,-195,75)"><path stroke-linecap="butt" stroke-linejoin="miter" fill-opacity="0" stroke-miterlimit="4" stroke="rgb(95,137,189)" stroke-opacity="1" stroke-width="8" d="M0 0"/></g></g></g></svg>