<svg xmlns="http://www.w3.org/2000/svg" xmlns:xlink="http://www.w3.org/1999/xlink" viewBox="0 0 512 512" width="512" height="512" style="width: 100%; height: 100%; transform: translate3d(0,0,0);" preserveAspectRatio="xMidYMid meet"><defs><clipPath id="__lottie_element_3362"><rect width="512" height="512" x="0" y="0"/></clipPath><linearGradient id="__lottie_element_3367" spreadMethod="pad" gradientUnits="userSpaceOnUse" x1="111.18299865722656" y1="220.17100524902344" x2="119.875" y2="283.3030090332031"><stop offset="0%" stop-color="rgb(255,255,255)"/><stop offset="50%" stop-color="rgb(255,255,255)"/><stop offset="99%" stop-color="rgb(255,255,255)"/></linearGradient><mask id="__lottie_element_3369"><path fill="url(#__lottie_element_3368)" d=" M200,-116 C200,-116 200,116 200,116 C200,162.39199829101562 162.39199829101562,200 116,200 C116,200 -116,200 -116,200 C-162.39199829101562,200 -200,162.39199829101562 -200,116 C-200,116 -200,-116 -200,-116 C-200,-162.39199829101562 -162.39199829101562,-200 -116,-200 C-116,-200 116,-200 116,-200 C162.39199829101562,-200 200,-162.39199829101562 200,-116z"/></mask><linearGradient id="__lottie_element_3368" spreadMethod="pad" gradientUnits="userSpaceOnUse" x1="111.18299865722656" y1="220.17100524902344" x2="119.875" y2="283.3030090332031"><stop stop-color="rgb(255,255,255)" offset="0%" stop-opacity="0"/><stop stop-color="rgb(255,255,255)" offset="1%" stop-opacity="0.42500001192092896"/><stop stop-color="rgb(255,255,255)" offset="1%" stop-opacity="0.8500000238418579"/><stop stop-color="rgb(255,255,255)" offset="51%" stop-opacity="0.42500001192092896"/><stop stop-color="rgb(255,255,255)" offset="100%" stop-opacity="0"/></linearGradient><radialGradient id="__lottie_element_3374" spreadMethod="pad" gradientUnits="userSpaceOnUse"><stop/><stop/><stop/></radialGradient><radialGradient id="__lottie_element_3375" spreadMethod="pad" gradientUnits="userSpaceOnUse"><stop/><stop/><stop/></radialGradient><radialGradient id="__lottie_element_3376" spreadMethod="pad" gradientUnits="userSpaceOnUse"><stop/><stop/><stop/></radialGradient><radialGradient id="__lottie_element_3377" spreadMethod="pad" gradientUnits="userSpaceOnUse"><stop/><stop/><stop/></radialGradient><radialGradient id="__lottie_element_3378" spreadMethod="pad" gradientUnits="userSpaceOnUse"><stop/><stop/><stop/></radialGradient><radialGradient id="__lottie_element_3379" spreadMethod="pad" gradientUnits="userSpaceOnUse"><stop/><stop/><stop/></radialGradient><clipPath id="__lottie_element_3396"><path d="M0,0 L512,0 L512,512 L0,512z"/></clipPath><linearGradient id="__lottie_element_3402" spreadMethod="pad" gradientUnits="userSpaceOnUse" x1="-3.4519999027252197" y1="-167.9949951171875" x2="-5.142000198364258" y2="171.56500244140625"><stop offset="0%" stop-color="rgb(220,178,229)"/><stop offset="13%" stop-color="rgb(195,122,214)"/><stop offset="28%" stop-color="rgb(170,67,199)"/><stop offset="32%" stop-color="rgb(170,67,199)"/><stop offset="48%" stop-color="rgb(170,67,199)"/><stop offset="74%" stop-color="rgb(156,59,184)"/><stop offset="100%" stop-color="rgb(141,52,169)"/></linearGradient><linearGradient id="__lottie_element_3406" spreadMethod="pad" gradientUnits="userSpaceOnUse"><stop/><stop/><stop/></linearGradient><mask id="__lottie_element_3408"><path fill="url(#__lottie_element_3407)"/></mask><linearGradient id="__lottie_element_3407" spreadMethod="pad" gradientUnits="userSpaceOnUse"><stop stop-color="rgb(255,255,255)"/><stop stop-color="rgb(255,255,255)"/><stop stop-color="rgb(255,255,255)"/><stop stop-color="rgb(255,255,255)"/><stop stop-color="rgb(255,255,255)"/></linearGradient><linearGradient id="__lottie_element_3409" spreadMethod="pad" gradientUnits="userSpaceOnUse"><stop/><stop/><stop/></linearGradient><mask id="__lottie_element_3411"><path fill="url(#__lottie_element_3410)"/></mask><linearGradient id="__lottie_element_3410" spreadMethod="pad" gradientUnits="userSpaceOnUse"><stop stop-color="rgb(255,255,255)"/><stop stop-color="rgb(255,255,255)"/><stop stop-color="rgb(255,255,255)"/><stop stop-color="rgb(255,255,255)"/><stop stop-color="rgb(255,255,255)"/><stop stop-color="rgb(255,255,255)"/><stop stop-color="rgb(255,255,255)"/></linearGradient><linearGradient id="__lottie_element_3415" spreadMethod="pad" gradientUnits="userSpaceOnUse"><stop/><stop/><stop/></linearGradient><mask id="__lottie_element_3417"><path fill="url(#__lottie_element_3416)"/></mask><linearGradient id="__lottie_element_3416" spreadMethod="pad" gradientUnits="userSpaceOnUse"><stop stop-color="rgb(255,255,255)"/><stop stop-color="rgb(255,255,255)"/><stop stop-color="rgb(255,255,255)"/><stop stop-color="rgb(255,255,255)"/><stop stop-color="rgb(255,255,255)"/></linearGradient><linearGradient id="__lottie_element_3418" spreadMethod="pad" gradientUnits="userSpaceOnUse"><stop/><stop/><stop/></linearGradient><mask id="__lottie_element_3420"><path fill="url(#__lottie_element_3419)"/></mask><linearGradient id="__lottie_element_3419" spreadMethod="pad" gradientUnits="userSpaceOnUse"><stop stop-color="rgb(255,255,255)"/><stop stop-color="rgb(255,255,255)"/><stop stop-color="rgb(255,255,255)"/><stop stop-color="rgb(255,255,255)"/><stop stop-color="rgb(255,255,255)"/><stop stop-color="rgb(255,255,255)"/><stop stop-color="rgb(255,255,255)"/></linearGradient><linearGradient id="__lottie_element_3424" spreadMethod="pad" gradientUnits="userSpaceOnUse" x1="86.38200378417969" y1="202.3000030517578" x2="56.55400085449219" y2="57.21699905395508"><stop offset="0%" stop-color="rgb(117,27,147)"/><stop offset="50%" stop-color="rgb(117,27,147)"/><stop offset="100%" stop-color="rgb(117,27,147)"/></linearGradient><mask id="__lottie_element_3426"><path fill="url(#__lottie_element_3425)" d=" M104.13200378417969,-197.88699340820312 C104.41300201416016,-187.68600463867188 108.55899810791016,198.38999938964844 108.55899810791016,198.38999938964844 C108.55899810791016,198.38999938964844 139.25399780273438,201.66900634765625 161.0260009765625,186.6269989013672 C191.17599487304688,165.79800415039062 199.9810028076172,131.78900146484375 199.8419952392578,115.07599639892578 C199.76499938964844,105.7969970703125 199.39300537109375,-98.6050033569336 199.27999877929688,-119.58000183105469 C199.1230010986328,-148.7100067138672 185.32200622558594,-168.69500732421875 169.9239959716797,-180.36199951171875 C157.49600219726562,-189.7779998779297 142.35699462890625,-197.14999389648438 104.13200378417969,-197.88699340820312z"/></mask><linearGradient id="__lottie_element_3425" spreadMethod="pad" gradientUnits="userSpaceOnUse" x1="86.38200378417969" y1="202.3000030517578" x2="56.55400085449219" y2="57.21699905395508"><stop stop-color="rgb(255,255,255)" offset="0%" stop-opacity="0"/><stop stop-color="rgb(255,255,255)" offset="9%" stop-opacity="0.5"/><stop stop-color="rgb(255,255,255)" offset="17%" stop-opacity="1"/><stop stop-color="rgb(255,255,255)" offset="59%" stop-opacity="0.5"/><stop stop-color="rgb(255,255,255)" offset="100%" stop-opacity="0"/></linearGradient><linearGradient id="__lottie_element_3427" spreadMethod="pad" gradientUnits="userSpaceOnUse" x1="106.61499786376953" y1="-204.72999572753906" x2="10.336999893188477" y2="36.05400085449219"><stop offset="0%" stop-color="rgb(235,171,254)"/><stop offset="50%" stop-color="rgb(205,141,224)"/><stop offset="100%" stop-color="rgb(175,111,194)"/></linearGradient><mask id="__lottie_element_3429"><path fill="url(#__lottie_element_3428)" d=" M104.13200378417969,-197.88699340820312 C104.41300201416016,-187.68600463867188 108.55899810791016,198.38999938964844 108.55899810791016,198.38999938964844 C108.55899810791016,198.38999938964844 139.25399780273438,201.66900634765625 161.0260009765625,186.6269989013672 C191.17599487304688,165.79800415039062 199.9810028076172,131.78900146484375 199.8419952392578,115.07599639892578 C199.76499938964844,105.7969970703125 199.39300537109375,-98.6050033569336 199.27999877929688,-119.58000183105469 C199.1230010986328,-148.7100067138672 185.32200622558594,-168.69500732421875 169.9239959716797,-180.36199951171875 C157.49600219726562,-189.7779998779297 142.35699462890625,-197.14999389648438 104.13200378417969,-197.88699340820312z"/></mask><linearGradient id="__lottie_element_3428" spreadMethod="pad" gradientUnits="userSpaceOnUse" x1="106.61499786376953" y1="-204.72999572753906" x2="10.336999893188477" y2="36.05400085449219"><stop stop-color="rgb(255,255,255)" offset="0%" stop-opacity="0"/><stop stop-color="rgb(255,255,255)" offset="6%" stop-opacity="0.5"/><stop stop-color="rgb(255,255,255)" offset="12%" stop-opacity="1"/><stop stop-color="rgb(255,255,255)" offset="16%" stop-opacity="0.9100000262260437"/><stop stop-color="rgb(255,255,255)" offset="20%" stop-opacity="0.8199999928474426"/><stop stop-color="rgb(255,255,255)" offset="60%" stop-opacity="0.41499999165534973"/><stop stop-color="rgb(255,255,255)" offset="100%" stop-opacity="0.009999999776482582"/></linearGradient></defs><g clip-path="url(#__lottie_element_3362)"><g clip-path="url(#__lottie_element_3396)" style="display: block;" transform="matrix(0.9999969005584717,0,0,0.9999969005584717,0.0007955442415550351,0.0007955442415550351)" opacity="1"><g style="display: block;" transform="matrix(1.0419999361038208,0,0,1.0419999361038208,256,256)" opacity="1"><g opacity="1" transform="matrix(0.999999463558197,0.0010471973801031709,-0.0010471973801031709,0.999999463558197,-1,0)"><path fill="rgb(108,36,131)" fill-opacity="1" d=" M104.13200378417969,-197.88699340820312 C104.41300201416016,-187.68600463867188 108.55899810791016,198.38999938964844 108.55899810791016,198.38999938964844 C108.55899810791016,198.38999938964844 139.25399780273438,201.66900634765625 161.0260009765625,186.6269989013672 C191.17599487304688,165.79800415039062 199.9810028076172,131.78900146484375 199.8419952392578,115.07599639892578 C199.76499938964844,105.7969970703125 199.39300537109375,-98.6050033569336 199.27999877929688,-119.58000183105469 C199.1230010986328,-148.7100067138672 185.32200622558594,-168.69500732421875 169.9239959716797,-180.36199951171875 C157.49600219726562,-189.7779998779297 142.35699462890625,-197.14999389648438 104.13200378417969,-197.88699340820312z"/><path fill="url(#__lottie_element_3424)" mask="url(#__lottie_element_3426)" fill-opacity="1" d="M0 0 M104.13200378417969,-197.88699340820312 C104.41300201416016,-187.68600463867188 108.55899810791016,198.38999938964844 108.55899810791016,198.38999938964844 C108.55899810791016,198.38999938964844 139.25399780273438,201.66900634765625 161.0260009765625,186.6269989013672 C191.17599487304688,165.79800415039062 199.9810028076172,131.78900146484375 199.8419952392578,115.07599639892578 C199.76499938964844,105.7969970703125 199.39300537109375,-98.6050033569336 199.27999877929688,-119.58000183105469 C199.1230010986328,-148.7100067138672 185.32200622558594,-168.69500732421875 169.9239959716797,-180.36199951171875 C157.49600219726562,-189.7779998779297 142.35699462890625,-197.14999389648438 104.13200378417969,-197.88699340820312z"/><path fill="url(#__lottie_element_3427)" mask="url(#__lottie_element_3429)" fill-opacity="0.5" d="M0 0 M104.13200378417969,-197.88699340820312 C104.41300201416016,-187.68600463867188 108.55899810791016,198.38999938964844 108.55899810791016,198.38999938964844 C108.55899810791016,198.38999938964844 139.25399780273438,201.66900634765625 161.0260009765625,186.6269989013672 C191.17599487304688,165.79800415039062 199.9810028076172,131.78900146484375 199.8419952392578,115.07599639892578 C199.76499938964844,105.7969970703125 199.39300537109375,-98.6050033569336 199.27999877929688,-119.58000183105469 C199.1230010986328,-148.7100067138672 185.32200622558594,-168.69500732421875 169.9239959716797,-180.36199951171875 C157.49600219726562,-189.7779998779297 142.35699462890625,-197.14999389648438 104.13200378417969,-197.88699340820312z"/><path stroke-linecap="butt" stroke-linejoin="round" fill-opacity="0" stroke="rgb(92,22,115)" stroke-opacity="1" stroke-width="8" d=" M104.13200378417969,-197.88699340820312 C104.41300201416016,-187.68600463867188 108.55899810791016,198.38999938964844 108.55899810791016,198.38999938964844 C108.55899810791016,198.38999938964844 139.25399780273438,201.66900634765625 161.0260009765625,186.6269989013672 C191.17599487304688,165.79800415039062 199.9810028076172,131.78900146484375 199.8419952392578,115.07599639892578 C199.76499938964844,105.7969970703125 199.39300537109375,-98.6050033569336 199.27999877929688,-119.58000183105469 C199.1230010986328,-148.7100067138672 185.32200622558594,-168.69500732421875 169.9239959716797,-180.36199951171875 C157.49600219726562,-189.7779998779297 142.35699462890625,-197.14999389648438 104.13200378417969,-197.88699340820312z"/></g></g><g style="display: block;" transform="matrix(1.0419999361038208,0,0,1.0419999361038208,256.52099609375,257.56304931640625)" opacity="1"><g opacity="1" transform="matrix(1,0,0,1,-0.5,-1.5)"><path fill="rgb(133,49,160)" fill-opacity="1" d=" M200,-116 C200,-116 200,116 200,116 C200,162.39199829101562 162.39199829101562,200 116,200 C116,200 -116,200 -116,200 C-162.39199829101562,200 -200,162.39199829101562 -200,116 C-200,116 -200,-116 -200,-116 C-200,-162.39199829101562 -162.39199829101562,-200 -116,-200 C-116,-200 116,-200 116,-200 C162.39199829101562,-200 200,-162.39199829101562 200,-116z"/><path stroke-linecap="butt" stroke-linejoin="miter" fill-opacity="0" stroke-miterlimit="4" stroke="rgb(92,21,115)" stroke-opacity="1" stroke-width="9" d=" M200,-116 C200,-116 200,116 200,116 C200,162.39199829101562 162.39199829101562,200 116,200 C116,200 -116,200 -116,200 C-162.39199829101562,200 -200,162.39199829101562 -200,116 C-200,116 -200,-116 -200,-116 C-200,-162.39199829101562 -162.39199829101562,-200 -116,-200 C-116,-200 116,-200 116,-200 C162.39199829101562,-200 200,-162.39199829101562 200,-116z"/></g><g opacity="1" transform="matrix(0.9808099865913391,0,0,0.9808099865913391,4.633975505828857,-12.721793174743652)"><path fill="url(#__lottie_element_3402)" fill-opacity="1" d=" M185.0279998779297,-103.56600189208984 C185.0279998779297,-143.5540008544922 150.16600036621094,-178.41700744628906 110.1780014038086,-178.41700744628906 C110.1780014038086,-178.41700744628906 -120.25900268554688,-178.41700744628906 -120.25900268554688,-178.41700744628906 C-160.2469940185547,-178.41700744628906 -195.10899353027344,-143.5540008544922 -195.10899353027344,-103.56600189208984 C-195.10899353027344,-103.56600189208984 -195.10899353027344,126.87000274658203 -195.10899353027344,126.87000274658203 C-195.10899353027344,166.85800170898438 -160.2469940185547,201.72000122070312 -120.25900268554688,201.72000122070312 C-120.25900268554688,201.72000122070312 110.1780014038086,201.72000122070312 110.1780014038086,201.72000122070312 C150.16600036621094,201.72000122070312 185.0279998779297,166.85800170898438 185.0279998779297,126.87000274658203 C185.0279998779297,126.87000274658203 185.0279998779297,-103.56600189208984 185.0279998779297,-103.56600189208984z"/></g></g></g><g style="display: block;" transform="matrix(2.669999837875366,0,0,2.669999837875366,260.0054626464844,259.3448181152344)" opacity="0.2"><g opacity="1" transform="matrix(1,0,0,1,0,0)"><path fill="rgb(0,0,0)" fill-opacity="1" d=" M-48.742000579833984,26.385000228881836 C-48.742000579833984,26.385000228881836 -48.742000579833984,-36.76599884033203 -48.742000579833984,-36.76599884033203 C-48.742000579833984,-45.064998626708984 -54.762001037597656,-50.72200012207031 -58.06100082397461,-52.803001403808594 C-58.06100082397461,-52.803001403808594 -44.224998474121094,-52.70800018310547 -44.224998474121094,-52.70800018310547 C-39.61399841308594,-52.676998138427734 -35.73400115966797,-44.02799987792969 -36.2140007019043,-33.57500076293945 C-34.31399917602539,-43.060001373291016 -23.891000747680664,-52.72999954223633 -17.020999908447266,-52.72999954223633 C-4.9670000076293945,-52.72999954223633 -1.9320000410079956,-40.573001861572266 -0.4259999990463257,-33.76900100708008 C-0.4259999990463257,-33.76900100708008 8.17199993133545,5.085000038146973 8.17199993133545,5.085000038146973 C23.604999542236328,-15.880000114440918 57.54100036621094,-10.46500015258789 57.65599822998047,14.857999801635742 C57.78200149536133,42.612998962402344 26.777000427246094,49.02799987792969 9.098999977111816,34.89400100708008 C0.652999997138977,54.551998138427734 -3.934999942779541,52.68000030517578 -23.701000213623047,52.77399826049805 C-23.701000213623047,52.77399826049805 -26.020999908447266,40.9630012512207 -26.020999908447266,40.9630012512207 C-21.410999298095703,41.1879997253418 -16.336000442504883,41.069000244140625 -12.798999786376953,40.8849983215332 C-3.747999906539917,40.41299819946289 0.8410000205039978,22.249000549316406 -1.034000039100647,14.737000465393066 C-1.034000039100647,14.737000465393066 -10.652999877929688,-28.062000274658203 -10.652999877929688,-28.062000274658203 C-16.104000091552734,-52.319000244140625 -29.56999969482422,-35.79999923706055 -36.486000061035156,-12.015000343322754 C-36.486000061035156,-12.015000343322754 -36.553001403808594,26.385000228881836 -36.553001403808594,26.385000228881836 C-36.553001403808594,26.385000228881836 -48.742000579833984,26.385000228881836 -48.742000579833984,26.385000228881836 C-48.742000579833984,26.385000228881836 -48.742000579833984,26.385000228881836 -48.742000579833984,26.385000228881836z M44.56999969482422,15.520000457763672 C44.30699920654297,0.13500000536441803 18.812999725341797,-1.2059999704360962 12.732999801635742,20.96500015258789 C24.341999053955078,35.45100021362305 44.8489990234375,31.798999786376953 44.56999969482422,15.520000457763672z"/></g></g><g style="display: block;" transform="matrix(2.669999837875366,0,0,2.669999837875366,260.0054626464844,265.34466552734375)" opacity="1"><g opacity="1" transform="matrix(1,0,0,1,0,0)"><path fill="rgb(255,255,255)" fill-opacity="1" d=" M-48.742000579833984,26.385000228881836 C-48.742000579833984,26.385000228881836 -48.742000579833984,-36.76599884033203 -48.742000579833984,-36.76599884033203 C-48.742000579833984,-45.064998626708984 -54.762001037597656,-50.72200012207031 -58.06100082397461,-52.803001403808594 C-58.06100082397461,-52.803001403808594 -44.224998474121094,-52.70800018310547 -44.224998474121094,-52.70800018310547 C-39.61399841308594,-52.676998138427734 -35.73400115966797,-44.02799987792969 -36.2140007019043,-33.57500076293945 C-34.31399917602539,-43.060001373291016 -23.891000747680664,-52.72999954223633 -17.020999908447266,-52.72999954223633 C-4.9670000076293945,-52.72999954223633 -1.9320000410079956,-40.573001861572266 -0.4259999990463257,-33.76900100708008 C-0.4259999990463257,-33.76900100708008 8.17199993133545,5.085000038146973 8.17199993133545,5.085000038146973 C23.604999542236328,-15.880000114440918 57.54100036621094,-10.46500015258789 57.65599822998047,14.857999801635742 C57.78200149536133,42.612998962402344 26.777000427246094,49.02799987792969 9.098999977111816,34.89400100708008 C0.652999997138977,54.551998138427734 -3.934999942779541,52.68000030517578 -23.701000213623047,52.77399826049805 C-23.701000213623047,52.77399826049805 -26.020999908447266,40.9630012512207 -26.020999908447266,40.9630012512207 C-21.410999298095703,41.1879997253418 -16.336000442504883,41.069000244140625 -12.798999786376953,40.8849983215332 C-3.747999906539917,40.41299819946289 0.8410000205039978,22.249000549316406 -1.034000039100647,14.737000465393066 C-1.034000039100647,14.737000465393066 -10.652999877929688,-28.062000274658203 -10.652999877929688,-28.062000274658203 C-16.104000091552734,-52.319000244140625 -29.56999969482422,-35.79999923706055 -36.486000061035156,-12.015000343322754 C-36.486000061035156,-12.015000343322754 -36.553001403808594,26.385000228881836 -36.553001403808594,26.385000228881836 C-36.553001403808594,26.385000228881836 -48.742000579833984,26.385000228881836 -48.742000579833984,26.385000228881836 C-48.742000579833984,26.385000228881836 -48.742000579833984,26.385000228881836 -48.742000579833984,26.385000228881836z M44.56999969482422,15.520000457763672 C44.30699920654297,0.13500000536441803 18.812999725341797,-1.2059999704360962 12.732999801635742,20.96500015258789 C24.341999053955078,35.45100021362305 44.8489990234375,31.798999786376953 44.56999969482422,15.520000457763672z"/></g></g><g style="display: block;" transform="matrix(1.0419999361038208,0,0,1.0419999361038208,256.52099609375,257.56298828125)" opacity="1"><g opacity="0" transform="matrix(1,0,0,1,-0.5,-1.5)"><path fill="url(#__lottie_element_3367)" mask="url(#__lottie_element_3369)" fill-opacity="1" d="M0 0 M200,-116 C200,-116 200,116 200,116 C200,162.39199829101562 162.39199829101562,200 116,200 C116,200 -116,200 -116,200 C-162.39199829101562,200 -200,162.39199829101562 -200,116 C-200,116 -200,-116 -200,-116 C-200,-162.39199829101562 -162.39199829101562,-200 -116,-200 C-116,-200 116,-200 116,-200 C162.39199829101562,-200 200,-162.39199829101562 200,-116z"/></g></g></g></svg>