<svg xmlns="http://www.w3.org/2000/svg" xmlns:xlink="http://www.w3.org/1999/xlink" viewBox="0 0 512 512" width="512" height="512" style="width: 100%; height: 100%; transform: translate3d(0,0,0);" preserveAspectRatio="xMidYMid meet"><defs><clipPath id="__lottie_element_6233"><rect width="512" height="512" x="0" y="0"/></clipPath><radialGradient id="__lottie_element_6238" spreadMethod="pad" gradientUnits="userSpaceOnUse"><stop/><stop/><stop/></radialGradient><radialGradient id="__lottie_element_6239" spreadMethod="pad" gradientUnits="userSpaceOnUse"><stop/><stop/><stop/></radialGradient><mask id="__lottie_element_6241"><path fill="url(#__lottie_element_6240)"/></mask><radialGradient id="__lottie_element_6240" spreadMethod="pad" gradientUnits="userSpaceOnUse"><stop stop-color="rgb(255,255,255)"/><stop stop-color="rgb(255,255,255)"/><stop stop-color="rgb(255,255,255)"/></radialGradient><radialGradient id="__lottie_element_6245" spreadMethod="pad" gradientUnits="userSpaceOnUse"><stop/><stop/><stop/></radialGradient><radialGradient id="__lottie_element_6246" spreadMethod="pad" gradientUnits="userSpaceOnUse"><stop/><stop/><stop/></radialGradient><mask id="__lottie_element_6248"><path fill="url(#__lottie_element_6247)"/></mask><radialGradient id="__lottie_element_6247" spreadMethod="pad" gradientUnits="userSpaceOnUse"><stop stop-color="rgb(255,255,255)"/><stop stop-color="rgb(255,255,255)"/><stop stop-color="rgb(255,255,255)"/></radialGradient><radialGradient id="__lottie_element_6252" spreadMethod="pad" gradientUnits="userSpaceOnUse"><stop/><stop/><stop/></radialGradient><radialGradient id="__lottie_element_6253" spreadMethod="pad" gradientUnits="userSpaceOnUse"><stop/><stop/><stop/></radialGradient><mask id="__lottie_element_6255"><path fill="url(#__lottie_element_6254)"/></mask><radialGradient id="__lottie_element_6254" spreadMethod="pad" gradientUnits="userSpaceOnUse"><stop stop-color="rgb(255,255,255)"/><stop stop-color="rgb(255,255,255)"/><stop stop-color="rgb(255,255,255)"/></radialGradient><radialGradient id="__lottie_element_6259" spreadMethod="pad" gradientUnits="userSpaceOnUse"><stop/><stop/><stop/></radialGradient><radialGradient id="__lottie_element_6260" spreadMethod="pad" gradientUnits="userSpaceOnUse"><stop/><stop/><stop/></radialGradient><mask id="__lottie_element_6262"><path fill="url(#__lottie_element_6261)"/></mask><radialGradient id="__lottie_element_6261" spreadMethod="pad" gradientUnits="userSpaceOnUse"><stop stop-color="rgb(255,255,255)"/><stop stop-color="rgb(255,255,255)"/><stop stop-color="rgb(255,255,255)"/></radialGradient><linearGradient id="__lottie_element_6268" spreadMethod="pad" gradientUnits="userSpaceOnUse" x1="-0.20499999821186066" y1="-172.1020050048828" x2="-0.20499999821186066" y2="109.822998046875"><stop offset="0%" stop-color="rgb(254,214,86)"/><stop offset="31%" stop-color="rgb(253,221,89)"/><stop offset="50%" stop-color="rgb(252,229,91)"/><stop offset="74%" stop-color="rgb(246,200,56)"/><stop offset="100%" stop-color="rgb(239,171,20)"/></linearGradient><linearGradient id="__lottie_element_6271" spreadMethod="pad" gradientUnits="userSpaceOnUse" x1="-2.2049999237060547" y1="68.27300262451172" x2="-2.2049999237060547" y2="166.85499572753906"><stop offset="0%" stop-color="rgb(255,229,89)"/><stop offset="61%" stop-color="rgb(253,208,57)"/><stop offset="100%" stop-color="rgb(251,186,26)"/></linearGradient><radialGradient id="__lottie_element_6272" spreadMethod="pad" gradientUnits="userSpaceOnUse" cx="-0.9549999833106995" cy="-274.22698974609375" r="329.8319892883301" fx="-0.9549999833106995" fy="-274.22698974609375"><stop offset="50%" stop-color="rgb(255,255,255)"/><stop offset="81%" stop-color="rgb(255,248,207)"/><stop offset="96%" stop-color="rgb(255,240,158)"/><stop offset="99%" stop-color="rgb(255,235,123)"/><stop offset="100%" stop-color="rgb(255,229,89)"/></radialGradient><mask id="__lottie_element_6274"><path fill="url(#__lottie_element_6273)" d=" M182.1540069580078,-33.4119987487793 C182.1540069580078,-33.4119987487793 97.62300109863281,44.599998474121094 97.62300109863281,44.599998474121094 C94.55500030517578,47.268001556396484 93.20899963378906,51.4109992980957 94.12300109863281,55.37300109863281 C94.12300109863281,55.37300109863281 119.3010025024414,160.031005859375 119.3010025024414,160.031005859375 C121.48200225830078,169.48800659179688 111.23899841308594,176.93099975585938 102.91899871826172,171.9340057373047 C102.91899871826172,171.9340057373047 5.197999954223633,114.10900115966797 5.197999954223633,114.10900115966797 C1.7120000123977661,112.01599884033203 -2.6429998874664307,112.01599884033203 -6.129000186920166,114.10900115966797 C-6.129000186920166,114.10900115966797 -100.4800033569336,171.9340057373047 -100.4800033569336,171.9340057373047 C-108.80000305175781,176.93099975585938 -119.04299926757812,169.48800659179688 -116.86199951171875,160.031005859375 C-116.86199951171875,160.031005859375 -91.68399810791016,55.37300109863281 -91.68399810791016,55.37300109863281 C-90.7699966430664,51.4109992980957 -92.11599731445312,47.268001556396484 -95.18399810791016,44.599998474121094 C-95.18399810791016,44.599998474121094 -179.71499633789062,-33.4119987487793 -179.71499633789062,-33.4119987487793 C-187.03900146484375,-39.78099822998047 -183.12600708007812,-51.821998596191406 -173.45799255371094,-52.66999816894531 C-173.45799255371094,-52.66999816894531 -61.861000061035156,-62.45600128173828 -61.861000061035156,-62.45600128173828 C-57.81100082397461,-62.81100082397461 -54.2859992980957,-65.37200164794922 -52.696998596191406,-69.11399841308594 C-52.696998596191406,-69.11399841308594 -8.427000045776367,-178.5469970703125 -8.427000045776367,-178.5469970703125 C-4.771999835968018,-187.47999572753906 7.427999973297119,-187.47999572753906 11.083000183105469,-178.5469970703125 C11.083000183105469,-178.5469970703125 55.13600158691406,-69.11399841308594 55.13600158691406,-69.11399841308594 C56.724998474121094,-65.37200164794922 60.25,-62.81100082397461 64.30000305175781,-62.45600128173828 C64.30000305175781,-62.45600128173828 175.89700317382812,-52.66999816894531 175.89700317382812,-52.66999816894531 C185.56500244140625,-51.821998596191406 189.47799682617188,-39.78099822998047 182.1540069580078,-33.4119987487793z"/></mask><radialGradient id="__lottie_element_6273" spreadMethod="pad" gradientUnits="userSpaceOnUse" cx="-0.9549999833106995" cy="-274.22698974609375" r="329.8319892883301" fx="-0.9549999833106995" fy="-274.22698974609375"><stop stop-color="rgb(255,255,255)" offset="0%" stop-opacity="1"/><stop stop-color="rgb(255,255,255)" offset="61%" stop-opacity="1"/><stop stop-color="rgb(255,255,255)" offset="100%" stop-opacity="1"/><stop stop-color="rgb(255,255,255)" offset="100%" stop-opacity="0.5"/><stop stop-color="rgb(255,255,255)" offset="100%" stop-opacity="0"/></radialGradient><linearGradient id="__lottie_element_6278" spreadMethod="pad" gradientUnits="userSpaceOnUse" x1="-2.2049999237060547" y1="68.27300262451172" x2="-2.2049999237060547" y2="166.85499572753906"><stop offset="0%" stop-color="rgb(255,229,89)"/><stop offset="61%" stop-color="rgb(253,208,57)"/><stop offset="100%" stop-color="rgb(251,186,26)"/></linearGradient><radialGradient id="__lottie_element_6279" spreadMethod="pad" gradientUnits="userSpaceOnUse" cx="-0.9549999833106995" cy="-274.22698974609375" r="329.8319892883301" fx="-0.9549999833106995" fy="-274.22698974609375"><stop offset="50%" stop-color="rgb(255,255,255)"/><stop offset="84%" stop-color="rgb(255,248,207)"/><stop offset="100%" stop-color="rgb(255,240,158)"/></radialGradient><mask id="__lottie_element_6281"><path fill="url(#__lottie_element_6280)" d=" M179.7100067138672,-29.2450008392334 C179.7100067138672,-29.2450008392334 100.33799743652344,43.48899841308594 100.33799743652344,43.48899841308594 C97.2699966430664,46.15700149536133 95.92400360107422,50.29899978637695 96.83799743652344,54.26100158691406 C96.83799743652344,54.26100158691406 120.38700103759766,157.8090057373047 120.38700103759766,157.8090057373047 C122.56800079345703,167.26600646972656 108.34300231933594,178.16600036621094 96.4020004272461,171.3780059814453 C96.4020004272461,171.3780059814453 5.468999862670898,116.05400085449219 5.468999862670898,116.05400085449219 C1.9830000400543213,113.96099853515625 -3.186000108718872,114.23899841308594 -6.671999931335449,116.33200073242188 C-6.671999931335449,116.33200073242188 -96.13500213623047,172.21200561523438 -96.13500213623047,172.21200561523438 C-108.07099914550781,179.55599975585938 -120.94300079345703,168.93299865722656 -118.76200103759766,159.4759979248047 C-118.76200103759766,159.4759979248047 -94.39900207519531,55.37300109863281 -94.39900207519531,55.37300109863281 C-93.48500061035156,51.4109992980957 -94.83100128173828,47.268001556396484 -97.89900207519531,44.599998474121094 C-97.89900207519531,44.599998474121094 -178.9010009765625,-31.190000534057617 -178.9010009765625,-31.190000534057617 C-186.22500610351562,-37.558998107910156 -186.38400268554688,-51.821998596191406 -176.71600341796875,-52.66999816894531 C-176.71600341796875,-52.66999816894531 -64.03399658203125,-65.23400115966797 -64.03399658203125,-65.23400115966797 C-59.98400115966797,-65.58899688720703 -56.45899963378906,-68.1500015258789 -54.869998931884766,-71.89199829101562 C-54.869998931884766,-71.89199829101562 -9.78499984741211,-179.1020050048828 -9.78499984741211,-179.1020050048828 C-6.130000114440918,-188.03500366210938 9.32800006866455,-188.03500366210938 12.982999801635742,-179.1020050048828 C12.982999801635742,-179.1020050048828 57.308998107910156,-71.89199829101562 57.308998107910156,-71.89199829101562 C58.89799880981445,-68.1500015258789 62.42300033569336,-65.58899688720703 66.4729995727539,-65.23400115966797 C66.4729995727539,-65.23400115966797 176.98300170898438,-53.78099822998047 176.98300170898438,-53.78099822998047 C186.6510009765625,-52.93299865722656 190.61700439453125,-38.77799987792969 179.7100067138672,-29.2450008392334z"/></mask><radialGradient id="__lottie_element_6280" spreadMethod="pad" gradientUnits="userSpaceOnUse" cx="-0.9549999833106995" cy="-274.22698974609375" r="329.8319892883301" fx="-0.9549999833106995" fy="-274.22698974609375"><stop stop-color="rgb(255,255,255)" offset="0%" stop-opacity="1"/><stop stop-color="rgb(255,255,255)" offset="61%" stop-opacity="1"/><stop stop-color="rgb(255,255,255)" offset="100%" stop-opacity="1"/><stop stop-color="rgb(255,255,255)" offset="100%" stop-opacity="0.5"/><stop stop-color="rgb(255,255,255)" offset="100%" stop-opacity="0"/></radialGradient><radialGradient id="__lottie_element_6285" spreadMethod="pad" gradientUnits="userSpaceOnUse" cx="3.6530001163482666" cy="0.38100001215934753" r="181.612132297664" fx="3.6530001163482666" fy="0.38100001215934753"><stop offset="81%" stop-color="rgb(241,178,29)" stop-opacity="0"/><stop offset="90%" stop-color="rgb(241,183,41)" stop-opacity="0.5"/><stop offset="100%" stop-color="rgb(240,188,52)" stop-opacity="1"/></radialGradient><radialGradient id="__lottie_element_6289" spreadMethod="pad" gradientUnits="userSpaceOnUse" cx="-0.20499999821186066" cy="7.8979997634887695" r="193.5347634935697" fx="-0.20499999821186066" fy="7.8979997634887695"><stop offset="81%" stop-color="rgb(241,178,29)" stop-opacity="0"/><stop offset="90%" stop-color="rgb(229,164,23)" stop-opacity="0.5"/><stop offset="100%" stop-color="rgb(217,149,17)" stop-opacity="1"/></radialGradient></defs><g clip-path="url(#__lottie_element_6233)"><g style="display: block;" transform="matrix(1.1200000047683716,0,0,1.1200000047683716,256,248)" opacity="1"><g opacity="1" transform="matrix(1,0,0,1,0,0)"><path stroke-linecap="round" stroke-linejoin="round" fill-opacity="0" stroke="rgb(224,128,2)" stroke-opacity="1" stroke-width="16" d=" M180.93499755859375,-29.143999099731445 C180.93499755859375,-29.143999099731445 96.40299987792969,44.36800003051758 96.40299987792969,44.36800003051758 C93.33499908447266,47.0359992980957 91.98899841308594,51.17900085449219 92.90299987792969,55.14099884033203 C92.90299987792969,55.14099884033203 118.08100128173828,164.3000030517578 118.08100128173828,164.3000030517578 C120.26200103759766,173.7570037841797 110.01899719238281,181.19900512695312 101.6989974975586,176.20199584960938 C101.6989974975586,176.20199584960938 5.664000034332275,118.52400207519531 5.664000034332275,118.52400207519531 C2.177999973297119,116.43099975585938 -2.177999973297119,116.43099975585938 -5.664000034332275,118.52400207519531 C-5.664000034332275,118.52400207519531 -101.6989974975586,176.20199584960938 -101.6989974975586,176.20199584960938 C-110.01899719238281,181.19900512695312 -120.26200103759766,173.7570037841797 -118.08100128173828,164.3000030517578 C-118.08100128173828,164.3000030517578 -92.90299987792969,55.14099884033203 -92.90299987792969,55.14099884033203 C-91.98899841308594,51.17900085449219 -93.33499908447266,47.0359992980957 -96.40299987792969,44.36800003051758 C-96.40299987792969,44.36800003051758 -180.93499755859375,-29.143999099731445 -180.93499755859375,-29.143999099731445 C-188.25900268554688,-35.51300048828125 -184.34500122070312,-47.55400085449219 -174.677001953125,-48.402000427246094 C-174.677001953125,-48.402000427246094 -63.08100128173828,-58.1879997253418 -63.08100128173828,-58.1879997253418 C-59.03099822998047,-58.542999267578125 -55.50600051879883,-61.104000091552734 -53.91699981689453,-64.84600067138672 C-53.91699981689453,-64.84600067138672 -10.125,-167.95599365234375 -10.125,-167.95599365234375 C-6.330999851226807,-176.88900756835938 6.330999851226807,-176.88900756835938 10.125,-167.95599365234375 C10.125,-167.95599365234375 53.91699981689453,-64.84600067138672 53.91699981689453,-64.84600067138672 C55.50600051879883,-61.104000091552734 59.03099822998047,-58.542999267578125 63.08100128173828,-58.1879997253418 C63.08100128173828,-58.1879997253418 174.677001953125,-48.402000427246094 174.677001953125,-48.402000427246094 C184.34500122070312,-47.55400085449219 188.25900268554688,-35.51300048828125 180.93499755859375,-29.143999099731445z"/></g><g opacity="1" transform="matrix(1,0,0,1,0,0)"><path stroke-linecap="round" stroke-linejoin="round" fill-opacity="0" stroke="rgb(247,152,5)" stroke-opacity="1" stroke-width="16" d=" M181.4290008544922,-45.32600021362305 C179.73300170898438,-47.00299835205078 177.44000244140625,-48.15999984741211 174.677001953125,-48.402000427246094 C174.677001953125,-48.402000427246094 63.08100128173828,-58.1879997253418 63.08100128173828,-58.1879997253418 C59.03099822998047,-58.542999267578125 55.50600051879883,-61.104000091552734 53.91699981689453,-64.84600067138672 C53.91699981689453,-64.84600067138672 10.125,-167.95599365234375 10.125,-167.95599365234375 C6.330999851226807,-176.88900756835938 -6.330999851226807,-176.88900756835938 -10.125,-167.95599365234375 C-10.125,-167.95599365234375 -53.91699981689453,-64.84600067138672 -53.91699981689453,-64.84600067138672 C-55.50600051879883,-61.104000091552734 -59.03099822998047,-58.542999267578125 -63.08100128173828,-58.1879997253418 C-63.08100128173828,-58.1879997253418 -174.677001953125,-48.402000427246094 -174.677001953125,-48.402000427246094 C-176.4980010986328,-48.242000579833984 -178.11500549316406,-47.68600082397461 -179.49099731445312,-46.84400177001953"/></g><g opacity="1" transform="matrix(1,0,0,1,0,0)"><path fill="url(#__lottie_element_6268)" fill-opacity="1" d=" M180.93499755859375,-29.143999099731445 C180.93499755859375,-29.143999099731445 96.40299987792969,44.36800003051758 96.40299987792969,44.36800003051758 C93.33499908447266,47.0359992980957 91.98899841308594,51.17900085449219 92.90299987792969,55.14099884033203 C92.90299987792969,55.14099884033203 118.08100128173828,164.3000030517578 118.08100128173828,164.3000030517578 C120.26200103759766,173.7570037841797 110.01899719238281,181.19900512695312 101.6989974975586,176.20199584960938 C101.6989974975586,176.20199584960938 5.664000034332275,118.52400207519531 5.664000034332275,118.52400207519531 C2.177999973297119,116.43099975585938 -2.177999973297119,116.43099975585938 -5.664000034332275,118.52400207519531 C-5.664000034332275,118.52400207519531 -101.6989974975586,176.20199584960938 -101.6989974975586,176.20199584960938 C-110.01899719238281,181.19900512695312 -120.26200103759766,173.7570037841797 -118.08100128173828,164.3000030517578 C-118.08100128173828,164.3000030517578 -92.90299987792969,55.14099884033203 -92.90299987792969,55.14099884033203 C-91.98899841308594,51.17900085449219 -93.33499908447266,47.0359992980957 -96.40299987792969,44.36800003051758 C-96.40299987792969,44.36800003051758 -180.93499755859375,-29.143999099731445 -180.93499755859375,-29.143999099731445 C-188.25900268554688,-35.51300048828125 -184.34500122070312,-47.55400085449219 -174.677001953125,-48.402000427246094 C-174.677001953125,-48.402000427246094 -63.08100128173828,-58.1879997253418 -63.08100128173828,-58.1879997253418 C-59.03099822998047,-58.542999267578125 -55.50600051879883,-61.104000091552734 -53.91699981689453,-64.84600067138672 C-53.91699981689453,-64.84600067138672 -10.125,-167.95599365234375 -10.125,-167.95599365234375 C-6.330999851226807,-176.88900756835938 6.330999851226807,-176.88900756835938 10.125,-167.95599365234375 C10.125,-167.95599365234375 53.91699981689453,-64.84600067138672 53.91699981689453,-64.84600067138672 C55.50600051879883,-61.104000091552734 59.03099822998047,-58.542999267578125 63.08100128173828,-58.1879997253418 C63.08100128173828,-58.1879997253418 174.677001953125,-48.402000427246094 174.677001953125,-48.402000427246094 C184.34500122070312,-47.55400085449219 188.25900268554688,-35.51300048828125 180.93499755859375,-29.143999099731445z"/></g></g><g style="display: block;" transform="matrix(1.1200000047683716,0,0,1.1200000047683716,256,248)" opacity="1"><g opacity="1" transform="matrix(1,0,0,1,0,0)"><path fill="url(#__lottie_element_6289)" fill-opacity="1" d=" M96.40299987792969,44.36800003051758 C93.33499908447266,47.0359992980957 91.98899841308594,51.17900085449219 92.90299987792969,55.14099884033203 C92.90299987792969,55.14099884033203 118.08100128173828,164.3000030517578 118.08100128173828,164.3000030517578 C120.26200103759766,173.7570037841797 110.01899719238281,181.19900512695312 101.6989974975586,176.20199584960938 C101.6989974975586,176.20199584960938 5.664000034332275,118.52400207519531 5.664000034332275,118.52400207519531 C2.177999973297119,116.43099975585938 -2.177999973297119,116.43099975585938 -5.664000034332275,118.52400207519531 C-5.664000034332275,118.52400207519531 -101.6989974975586,176.20199584960938 -101.6989974975586,176.20199584960938 C-110.01899719238281,181.19900512695312 -120.26200103759766,173.7570037841797 -118.08100128173828,164.3000030517578 C-118.08100128173828,164.3000030517578 -92.90299987792969,55.14099884033203 -92.90299987792969,55.14099884033203 C-91.98899841308594,51.17900085449219 -93.33499908447266,47.0359992980957 -96.40299987792969,44.36800003051758 C-96.40299987792969,44.36800003051758 96.40299987792969,44.36800003051758 96.40299987792969,44.36800003051758z"/></g></g><g style="display: block;" transform="matrix(1.1200000047683716,0,0,1.1200000047683716,256,248)" opacity="1"><g opacity="1" transform="matrix(1,0,0,1,0,0)"><path fill="url(#__lottie_element_6285)" fill-opacity="1" d=" M180.93499755859375,-29.143999099731445 C180.93499755859375,-29.143999099731445 96.40299987792969,44.36800003051758 96.40299987792969,44.36800003051758 C93.33499908447266,47.0359992980957 -93.33499908447266,47.0359992980957 -96.40299987792969,44.36800003051758 C-96.40299987792969,44.36800003051758 -180.93499755859375,-29.143999099731445 -180.93499755859375,-29.143999099731445 C-188.25900268554688,-35.51300048828125 -184.34500122070312,-47.55400085449219 -174.677001953125,-48.402000427246094 C-174.677001953125,-48.402000427246094 -63.08100128173828,-58.1879997253418 -63.08100128173828,-58.1879997253418 C-59.03099822998047,-58.542999267578125 -55.50600051879883,-61.104000091552734 -53.91699981689453,-64.84600067138672 C-53.91699981689453,-64.84600067138672 -10.125,-167.95599365234375 -10.125,-167.95599365234375 C-6.330999851226807,-176.88900756835938 6.330999851226807,-176.88900756835938 10.125,-167.95599365234375 C10.125,-167.95599365234375 53.91699981689453,-64.84600067138672 53.91699981689453,-64.84600067138672 C55.50600051879883,-61.104000091552734 59.03099822998047,-58.542999267578125 63.08100128173828,-58.1879997253418 C63.08100128173828,-58.1879997253418 174.677001953125,-48.402000427246094 174.677001953125,-48.402000427246094 C184.34500122070312,-47.55400085449219 188.25900268554688,-35.51300048828125 180.93499755859375,-29.143999099731445z"/></g></g><g style="display: block;" transform="matrix(1.031172752380371,0,0,1.0080000162124634,256,251.80799865722656)" opacity="0.45"><g opacity="1" transform="matrix(1,0,0,1,0,0)"><path fill="url(#__lottie_element_6278)" fill-opacity="1" d=" M179.7100067138672,-29.2450008392334 C179.7100067138672,-29.2450008392334 100.33799743652344,43.48899841308594 100.33799743652344,43.48899841308594 C97.2699966430664,46.15700149536133 95.92400360107422,50.29899978637695 96.83799743652344,54.26100158691406 C96.83799743652344,54.26100158691406 120.38700103759766,157.8090057373047 120.38700103759766,157.8090057373047 C122.56800079345703,167.26600646972656 108.34300231933594,178.16600036621094 96.4020004272461,171.3780059814453 C96.4020004272461,171.3780059814453 5.468999862670898,116.05400085449219 5.468999862670898,116.05400085449219 C1.9830000400543213,113.96099853515625 -3.186000108718872,114.23899841308594 -6.671999931335449,116.33200073242188 C-6.671999931335449,116.33200073242188 -96.13500213623047,172.21200561523438 -96.13500213623047,172.21200561523438 C-108.07099914550781,179.55599975585938 -120.94300079345703,168.93299865722656 -118.76200103759766,159.4759979248047 C-118.76200103759766,159.4759979248047 -94.39900207519531,55.37300109863281 -94.39900207519531,55.37300109863281 C-93.48500061035156,51.4109992980957 -94.83100128173828,47.268001556396484 -97.89900207519531,44.599998474121094 C-97.89900207519531,44.599998474121094 -178.9010009765625,-31.190000534057617 -178.9010009765625,-31.190000534057617 C-186.22500610351562,-37.558998107910156 -186.38400268554688,-51.821998596191406 -176.71600341796875,-52.66999816894531 C-176.71600341796875,-52.66999816894531 -64.03399658203125,-65.23400115966797 -64.03399658203125,-65.23400115966797 C-59.98400115966797,-65.58899688720703 -56.45899963378906,-68.1500015258789 -54.869998931884766,-71.89199829101562 C-54.869998931884766,-71.89199829101562 -9.78499984741211,-179.1020050048828 -9.78499984741211,-179.1020050048828 C-6.130000114440918,-188.03500366210938 9.32800006866455,-188.03500366210938 12.982999801635742,-179.1020050048828 C12.982999801635742,-179.1020050048828 57.308998107910156,-71.89199829101562 57.308998107910156,-71.89199829101562 C58.89799880981445,-68.1500015258789 62.42300033569336,-65.58899688720703 66.4729995727539,-65.23400115966797 C66.4729995727539,-65.23400115966797 176.98300170898438,-53.78099822998047 176.98300170898438,-53.78099822998047 C186.6510009765625,-52.93299865722656 190.61700439453125,-38.77799987792969 179.7100067138672,-29.2450008392334z"/><path fill="url(#__lottie_element_6279)" mask="url(#__lottie_element_6281)" fill-opacity="1" d="M0 0 M179.7100067138672,-29.2450008392334 C179.7100067138672,-29.2450008392334 100.33799743652344,43.48899841308594 100.33799743652344,43.48899841308594 C97.2699966430664,46.15700149536133 95.92400360107422,50.29899978637695 96.83799743652344,54.26100158691406 C96.83799743652344,54.26100158691406 120.38700103759766,157.8090057373047 120.38700103759766,157.8090057373047 C122.56800079345703,167.26600646972656 108.34300231933594,178.16600036621094 96.4020004272461,171.3780059814453 C96.4020004272461,171.3780059814453 5.468999862670898,116.05400085449219 5.468999862670898,116.05400085449219 C1.9830000400543213,113.96099853515625 -3.186000108718872,114.23899841308594 -6.671999931335449,116.33200073242188 C-6.671999931335449,116.33200073242188 -96.13500213623047,172.21200561523438 -96.13500213623047,172.21200561523438 C-108.07099914550781,179.55599975585938 -120.94300079345703,168.93299865722656 -118.76200103759766,159.4759979248047 C-118.76200103759766,159.4759979248047 -94.39900207519531,55.37300109863281 -94.39900207519531,55.37300109863281 C-93.48500061035156,51.4109992980957 -94.83100128173828,47.268001556396484 -97.89900207519531,44.599998474121094 C-97.89900207519531,44.599998474121094 -178.9010009765625,-31.190000534057617 -178.9010009765625,-31.190000534057617 C-186.22500610351562,-37.558998107910156 -186.38400268554688,-51.821998596191406 -176.71600341796875,-52.66999816894531 C-176.71600341796875,-52.66999816894531 -64.03399658203125,-65.23400115966797 -64.03399658203125,-65.23400115966797 C-59.98400115966797,-65.58899688720703 -56.45899963378906,-68.1500015258789 -54.869998931884766,-71.89199829101562 C-54.869998931884766,-71.89199829101562 -9.78499984741211,-179.1020050048828 -9.78499984741211,-179.1020050048828 C-6.130000114440918,-188.03500366210938 9.32800006866455,-188.03500366210938 12.982999801635742,-179.1020050048828 C12.982999801635742,-179.1020050048828 57.308998107910156,-71.89199829101562 57.308998107910156,-71.89199829101562 C58.89799880981445,-68.1500015258789 62.42300033569336,-65.58899688720703 66.4729995727539,-65.23400115966797 C66.4729995727539,-65.23400115966797 176.98300170898438,-53.78099822998047 176.98300170898438,-53.78099822998047 C186.6510009765625,-52.93299865722656 190.61700439453125,-38.77799987792969 179.7100067138672,-29.2450008392334z"/></g></g><g style="display: block;" transform="matrix(0.9968000054359436,0,0,0.974399983882904,256,250.7664031982422)" opacity="1"><g opacity="1" transform="matrix(1,0,0,1,0,0)"><path fill="url(#__lottie_element_6271)" fill-opacity="1" d=" M182.1540069580078,-33.4119987487793 C182.1540069580078,-33.4119987487793 97.62300109863281,44.599998474121094 97.62300109863281,44.599998474121094 C94.55500030517578,47.268001556396484 93.20899963378906,51.4109992980957 94.12300109863281,55.37300109863281 C94.12300109863281,55.37300109863281 119.3010025024414,160.031005859375 119.3010025024414,160.031005859375 C121.48200225830078,169.48800659179688 111.23899841308594,176.93099975585938 102.91899871826172,171.9340057373047 C102.91899871826172,171.9340057373047 5.197999954223633,114.10900115966797 5.197999954223633,114.10900115966797 C1.7120000123977661,112.01599884033203 -2.6429998874664307,112.01599884033203 -6.129000186920166,114.10900115966797 C-6.129000186920166,114.10900115966797 -100.4800033569336,171.9340057373047 -100.4800033569336,171.9340057373047 C-108.80000305175781,176.93099975585938 -119.04299926757812,169.48800659179688 -116.86199951171875,160.031005859375 C-116.86199951171875,160.031005859375 -91.68399810791016,55.37300109863281 -91.68399810791016,55.37300109863281 C-90.7699966430664,51.4109992980957 -92.11599731445312,47.268001556396484 -95.18399810791016,44.599998474121094 C-95.18399810791016,44.599998474121094 -179.71499633789062,-33.4119987487793 -179.71499633789062,-33.4119987487793 C-187.03900146484375,-39.78099822998047 -183.12600708007812,-51.821998596191406 -173.45799255371094,-52.66999816894531 C-173.45799255371094,-52.66999816894531 -61.861000061035156,-62.45600128173828 -61.861000061035156,-62.45600128173828 C-57.81100082397461,-62.81100082397461 -54.2859992980957,-65.37200164794922 -52.696998596191406,-69.11399841308594 C-52.696998596191406,-69.11399841308594 -8.427000045776367,-178.5469970703125 -8.427000045776367,-178.5469970703125 C-4.771999835968018,-187.47999572753906 7.427999973297119,-187.47999572753906 11.083000183105469,-178.5469970703125 C11.083000183105469,-178.5469970703125 55.13600158691406,-69.11399841308594 55.13600158691406,-69.11399841308594 C56.724998474121094,-65.37200164794922 60.25,-62.81100082397461 64.30000305175781,-62.45600128173828 C64.30000305175781,-62.45600128173828 175.89700317382812,-52.66999816894531 175.89700317382812,-52.66999816894531 C185.56500244140625,-51.821998596191406 189.47799682617188,-39.78099822998047 182.1540069580078,-33.4119987487793z"/><path fill="url(#__lottie_element_6272)" mask="url(#__lottie_element_6274)" fill-opacity="1" d="M0 0 M182.1540069580078,-33.4119987487793 C182.1540069580078,-33.4119987487793 97.62300109863281,44.599998474121094 97.62300109863281,44.599998474121094 C94.55500030517578,47.268001556396484 93.20899963378906,51.4109992980957 94.12300109863281,55.37300109863281 C94.12300109863281,55.37300109863281 119.3010025024414,160.031005859375 119.3010025024414,160.031005859375 C121.48200225830078,169.48800659179688 111.23899841308594,176.93099975585938 102.91899871826172,171.9340057373047 C102.91899871826172,171.9340057373047 5.197999954223633,114.10900115966797 5.197999954223633,114.10900115966797 C1.7120000123977661,112.01599884033203 -2.6429998874664307,112.01599884033203 -6.129000186920166,114.10900115966797 C-6.129000186920166,114.10900115966797 -100.4800033569336,171.9340057373047 -100.4800033569336,171.9340057373047 C-108.80000305175781,176.93099975585938 -119.04299926757812,169.48800659179688 -116.86199951171875,160.031005859375 C-116.86199951171875,160.031005859375 -91.68399810791016,55.37300109863281 -91.68399810791016,55.37300109863281 C-90.7699966430664,51.4109992980957 -92.11599731445312,47.268001556396484 -95.18399810791016,44.599998474121094 C-95.18399810791016,44.599998474121094 -179.71499633789062,-33.4119987487793 -179.71499633789062,-33.4119987487793 C-187.03900146484375,-39.78099822998047 -183.12600708007812,-51.821998596191406 -173.45799255371094,-52.66999816894531 C-173.45799255371094,-52.66999816894531 -61.861000061035156,-62.45600128173828 -61.861000061035156,-62.45600128173828 C-57.81100082397461,-62.81100082397461 -54.2859992980957,-65.37200164794922 -52.696998596191406,-69.11399841308594 C-52.696998596191406,-69.11399841308594 -8.427000045776367,-178.5469970703125 -8.427000045776367,-178.5469970703125 C-4.771999835968018,-187.47999572753906 7.427999973297119,-187.47999572753906 11.083000183105469,-178.5469970703125 C11.083000183105469,-178.5469970703125 55.13600158691406,-69.11399841308594 55.13600158691406,-69.11399841308594 C56.724998474121094,-65.37200164794922 60.25,-62.81100082397461 64.30000305175781,-62.45600128173828 C64.30000305175781,-62.45600128173828 175.89700317382812,-52.66999816894531 175.89700317382812,-52.66999816894531 C185.56500244140625,-51.821998596191406 189.47799682617188,-39.78099822998047 182.1540069580078,-33.4119987487793z"/></g></g></g></svg>