<svg xmlns="http://www.w3.org/2000/svg" xmlns:xlink="http://www.w3.org/1999/xlink" viewBox="0 0 512 512" width="512" height="512" style="width: 100%; height: 100%; transform: translate3d(0,0,0);" preserveAspectRatio="xMidYMid meet"><defs><clipPath id="__lottie_element_37862"><rect width="512" height="512" x="0" y="0"/></clipPath><radialGradient id="__lottie_element_37866" spreadMethod="pad" gradientUnits="userSpaceOnUse" cx="-9.909000396728516" cy="-12.135000228881836" r="27.545531432723322" fx="-9.909000396728516" fy="-12.135000228881836"><stop offset="44%" stop-color="rgb(90,90,90)" stop-opacity="1"/><stop offset="72%" stop-color="rgb(90,90,90)" stop-opacity="0.5"/><stop offset="100%" stop-color="rgb(90,90,90)" stop-opacity="0"/></radialGradient><linearGradient id="__lottie_element_37867" spreadMethod="pad" gradientUnits="userSpaceOnUse" x1="-1.1990000009536743" y1="-40.334999084472656" x2="2.558000087738037" y2="69.74299621582031"><stop offset="0%" stop-color="rgb(58,57,57)" stop-opacity="0"/><stop offset="9%" stop-color="rgb(58,57,57)" stop-opacity="0.5"/><stop offset="19%" stop-color="rgb(58,57,57)" stop-opacity="1"/></linearGradient><radialGradient id="__lottie_element_37868" spreadMethod="pad" gradientUnits="userSpaceOnUse" cx="14.932999610900879" cy="-8.982000350952148" r="48.3989782082226" fx="14.932999610900879" fy="-8.982000350952148"><stop offset="0%" stop-color="rgb(100,100,100)" stop-opacity="1"/><stop offset="62%" stop-color="rgb(95,95,95)" stop-opacity="0.5"/><stop offset="100%" stop-color="rgb(90,90,90)" stop-opacity="0"/></radialGradient><linearGradient id="__lottie_element_37869" spreadMethod="pad" gradientUnits="userSpaceOnUse" x1="-3.7269999980926514" y1="-40.374000549316406" x2="7.385000228881836" y2="34.45199966430664"><stop offset="1%" stop-color="rgb(255,255,255)" stop-opacity="0"/><stop offset="23%" stop-color="rgb(255,255,255)" stop-opacity="0.10000000149011612"/><stop offset="52%" stop-color="rgb(255,255,255)" stop-opacity="0.20000000298023224"/><stop offset="73%" stop-color="rgb(255,255,255)" stop-opacity="0.10000000149011612"/><stop offset="94%" stop-color="rgb(255,255,255)" stop-opacity="0"/></linearGradient><linearGradient id="__lottie_element_37873" spreadMethod="pad" gradientUnits="userSpaceOnUse" x1="-8.829999923706055" y1="-80.16400146484375" x2="-2.059000015258789" y2="-40.32099914550781"><stop offset="0%" stop-color="rgb(58,57,57)" stop-opacity="0"/><stop offset="9%" stop-color="rgb(58,57,57)" stop-opacity="0.5"/><stop offset="19%" stop-color="rgb(58,57,57)" stop-opacity="1"/></linearGradient><linearGradient id="__lottie_element_37874" spreadMethod="pad" gradientUnits="userSpaceOnUse" x1="-6.892000198364258" y1="-51.49399948120117" x2="7.473999977111816" y2="45.242000579833984"><stop offset="1%" stop-color="rgb(255,255,255)" stop-opacity="0"/><stop offset="23%" stop-color="rgb(255,255,255)" stop-opacity="0.10000000149011612"/><stop offset="52%" stop-color="rgb(255,255,255)" stop-opacity="0.20000000298023224"/><stop offset="73%" stop-color="rgb(255,255,255)" stop-opacity="0.10000000149011612"/><stop offset="94%" stop-color="rgb(255,255,255)" stop-opacity="0"/></linearGradient><radialGradient id="__lottie_element_37875" spreadMethod="pad" gradientUnits="userSpaceOnUse" cx="7.586999893188477" cy="19.347000122070312" r="34.84417434558336" fx="7.586999893188477" fy="19.347000122070312"><stop offset="0%" stop-color="rgb(90,90,90)" stop-opacity="1"/><stop offset="50%" stop-color="rgb(90,90,90)" stop-opacity="0.5"/><stop offset="100%" stop-color="rgb(90,90,90)" stop-opacity="0"/></radialGradient><radialGradient id="__lottie_element_37876" spreadMethod="pad" gradientUnits="userSpaceOnUse" cx="33.119998931884766" cy="3.7990000247955322" r="44.14854849127553" fx="33.119998931884766" fy="3.7990000247955322"><stop offset="53%" stop-color="rgb(94,94,94)" stop-opacity="1"/><stop offset="77%" stop-color="rgb(92,92,92)" stop-opacity="0.5"/><stop offset="100%" stop-color="rgb(90,90,90)" stop-opacity="0"/></radialGradient><radialGradient id="__lottie_element_37877" spreadMethod="pad" gradientUnits="userSpaceOnUse" cx="-0.3889999985694885" cy="6.416999816894531" r="61.66235513243901" fx="-0.3889999985694885" fy="6.416999816894531"><stop offset="0%" stop-color="rgb(100,100,100)" stop-opacity="1"/><stop offset="63%" stop-color="rgb(95,95,95)" stop-opacity="0.5"/><stop offset="100%" stop-color="rgb(90,90,90)" stop-opacity="0"/></radialGradient><radialGradient id="__lottie_element_37882" spreadMethod="pad" gradientUnits="userSpaceOnUse" cx="1.190000057220459" cy="-9.810999870300293" r="40.304217854773384" fx="1.190000057220459" fy="-9.810999870300293"><stop offset="28%" stop-color="rgb(90,90,90)" stop-opacity="1"/><stop offset="64%" stop-color="rgb(90,90,90)" stop-opacity="0.5"/><stop offset="100%" stop-color="rgb(90,90,90)" stop-opacity="0"/></radialGradient><radialGradient id="__lottie_element_37883" spreadMethod="pad" gradientUnits="userSpaceOnUse" cx="0.2590000033378601" cy="-0.3059999942779541" r="11.489037086534372" fx="0.2590000033378601" fy="-0.3059999942779541"><stop offset="0%" stop-color="rgb(100,100,100)" stop-opacity="1"/><stop offset="57%" stop-color="rgb(95,95,95)" stop-opacity="0.5"/><stop offset="100%" stop-color="rgb(90,90,90)" stop-opacity="0"/></radialGradient><linearGradient id="__lottie_element_37884" spreadMethod="pad" gradientUnits="userSpaceOnUse" x1="-8.116999626159668" y1="-0.19900000095367432" x2="10.019000053405762" y2="-0.19900000095367432"><stop offset="5%" stop-color="rgb(39,39,39)" stop-opacity="1"/><stop offset="63%" stop-color="rgb(48,48,48)" stop-opacity="0.5"/><stop offset="100%" stop-color="rgb(58,57,57)" stop-opacity="0"/></linearGradient><radialGradient id="__lottie_element_37885" spreadMethod="pad" gradientUnits="userSpaceOnUse" cx="7.427999973297119" cy="-8.444999694824219" r="18.88280546139215" fx="7.427999973297119" fy="-8.444999694824219"><stop offset="35%" stop-color="rgb(39,39,39)" stop-opacity="1"/><stop offset="75%" stop-color="rgb(48,48,48)" stop-opacity="0.5"/><stop offset="100%" stop-color="rgb(58,57,57)" stop-opacity="0"/></radialGradient><radialGradient id="__lottie_element_37886" spreadMethod="pad" gradientUnits="userSpaceOnUse" cx="1.7029999494552612" cy="-1.684000015258789" r="19.706000447273254" fx="1.7029999494552612" fy="-1.684000015258789"><stop offset="18%" stop-color="rgb(90,90,90)" stop-opacity="1"/><stop offset="59%" stop-color="rgb(90,90,90)" stop-opacity="0.6000000238418579"/><stop offset="100%" stop-color="rgb(90,90,90)" stop-opacity="0.20000000298023224"/></radialGradient><radialGradient id="__lottie_element_37887" spreadMethod="pad" gradientUnits="userSpaceOnUse" cx="1.4919999837875366" cy="-4.789999961853027" r="15.856676147153756" fx="1.4919999837875366" fy="-4.789999961853027"><stop offset="18%" stop-color="rgb(100,100,100)" stop-opacity="1"/><stop offset="65%" stop-color="rgb(95,95,95)" stop-opacity="0.5"/><stop offset="100%" stop-color="rgb(90,90,90)" stop-opacity="0"/></radialGradient><radialGradient id="__lottie_element_37888" spreadMethod="pad" gradientUnits="userSpaceOnUse" cx="-22.97800064086914" cy="22.746999740600586" r="98.53383130502067" fx="-22.97800064086914" fy="22.746999740600586"><stop offset="0%" stop-color="rgb(39,39,39)" stop-opacity="1"/><stop offset="42%" stop-color="rgb(48,48,48)" stop-opacity="0.5"/><stop offset="88%" stop-color="rgb(58,57,57)" stop-opacity="0"/></radialGradient><linearGradient id="__lottie_element_37889" spreadMethod="pad" gradientUnits="userSpaceOnUse" x1="-28.149999618530273" y1="-0.3160000145435333" x2="29.01099967956543" y2="-0.3160000145435333"><stop offset="0%" stop-color="rgb(255,255,255)" stop-opacity="0"/><stop offset="22%" stop-color="rgb(255,255,255)" stop-opacity="0.5"/><stop offset="44%" stop-color="rgb(255,255,255)" stop-opacity="1"/><stop offset="76%" stop-color="rgb(255,255,255)" stop-opacity="0.5"/><stop offset="100%" stop-color="rgb(255,255,255)" stop-opacity="0"/></linearGradient><radialGradient id="__lottie_element_37890" spreadMethod="pad" gradientUnits="userSpaceOnUse" cx="-0.5479999780654907" cy="0.004000000189989805" r="23.796582155718802" fx="-0.5479999780654907" fy="0.004000000189989805"><stop offset="0%" stop-color="rgb(100,100,100)" stop-opacity="1"/><stop offset="57%" stop-color="rgb(95,95,95)" stop-opacity="0.5"/><stop offset="100%" stop-color="rgb(90,90,90)" stop-opacity="0"/></radialGradient><radialGradient id="__lottie_element_37891" spreadMethod="pad" gradientUnits="userSpaceOnUse" cx="-6.336999893188477" cy="0.7639999985694885" r="39.59778847693712" fx="-6.336999893188477" fy="0.7639999985694885"><stop offset="0%" stop-color="rgb(5,5,5)" stop-opacity="1"/><stop offset="60%" stop-color="rgb(36,24,19)" stop-opacity="0.5"/><stop offset="100%" stop-color="rgb(67,44,32)" stop-opacity="0"/></radialGradient><linearGradient id="__lottie_element_37892" spreadMethod="pad" gradientUnits="userSpaceOnUse" x1="-11.336000442504883" y1="-0.5450000166893005" x2="11.739999771118164" y2="-0.5450000166893005"><stop offset="0%" stop-color="rgb(255,255,255)" stop-opacity="0"/><stop offset="22%" stop-color="rgb(255,255,255)" stop-opacity="0.5"/><stop offset="44%" stop-color="rgb(255,255,255)" stop-opacity="1"/><stop offset="82%" stop-color="rgb(255,255,255)" stop-opacity="0.5"/><stop offset="100%" stop-color="rgb(255,255,255)" stop-opacity="0"/></linearGradient><linearGradient id="__lottie_element_37893" spreadMethod="pad" gradientUnits="userSpaceOnUse" x1="1.5230000019073486" y1="-2.2660000324249268" x2="0.33399999141693115" y2="1.8279999494552612"><stop offset="0%" stop-color="rgb(255,255,255)" stop-opacity="1"/><stop offset="45%" stop-color="rgb(255,255,255)" stop-opacity="0.5"/><stop offset="89%" stop-color="rgb(255,255,255)" stop-opacity="0"/></linearGradient><radialGradient id="__lottie_element_37894" spreadMethod="pad" gradientUnits="userSpaceOnUse" cx="0.3149999976158142" cy="-0.09600000083446503" r="3.4821562868726343" fx="0.3149999976158142" fy="-0.09600000083446503"><stop offset="0%" stop-color="rgb(69,55,47)" stop-opacity="1"/><stop offset="58%" stop-color="rgb(69,55,47)" stop-opacity="0.5"/><stop offset="100%" stop-color="rgb(69,55,47)" stop-opacity="0"/></radialGradient><linearGradient id="__lottie_element_37897" spreadMethod="pad" gradientUnits="userSpaceOnUse" x1="0.0560000017285347" y1="13.321999549865723" x2="4.084000110626221" y2="26.506999969482422"><stop offset="0%" stop-color="rgb(39,39,39)"/><stop offset="48%" stop-color="rgb(50,50,50)"/><stop offset="100%" stop-color="rgb(62,62,62)"/></linearGradient><linearGradient id="__lottie_element_37898" spreadMethod="pad" gradientUnits="userSpaceOnUse" x1="-5.744999885559082" y1="19.562999725341797" x2="1.843999981880188" y2="2.2709999084472656"><stop offset="0%" stop-color="rgb(62,62,62)"/><stop offset="20%" stop-color="rgb(71,70,68)"/><stop offset="40%" stop-color="rgb(80,77,74)"/></linearGradient><linearGradient id="__lottie_element_37899" spreadMethod="pad" gradientUnits="userSpaceOnUse" x1="-9.444000244140625" y1="0.7979999780654907" x2="4.418000221252441" y2="-0.9350000023841858"><stop offset="26%" stop-color="rgb(123,83,75)"/><stop offset="53%" stop-color="rgb(97,65,62)"/><stop offset="83%" stop-color="rgb(71,46,49)"/></linearGradient><linearGradient id="__lottie_element_37903" spreadMethod="pad" gradientUnits="userSpaceOnUse" x1="-2.8329999446868896" y1="6.327000141143799" x2="-16.009000778198242" y2="-5.531000137329102"><stop offset="0%" stop-color="rgb(62,62,62)"/><stop offset="38%" stop-color="rgb(71,70,68)"/><stop offset="77%" stop-color="rgb(80,77,74)"/></linearGradient><radialGradient id="__lottie_element_37907" spreadMethod="pad" gradientUnits="userSpaceOnUse" cx="36" cy="-254" r="357.96299743652344" fx="36" fy="-254"><stop offset="64%" stop-color="rgb(64,63,61)"/><stop offset="76%" stop-color="rgb(61,60,59)"/><stop offset="88%" stop-color="rgb(58,57,57)"/><stop offset="93%" stop-color="rgb(48,47,47)"/><stop offset="98%" stop-color="rgb(38,38,38)"/></radialGradient><radialGradient id="__lottie_element_37908" spreadMethod="pad" gradientUnits="userSpaceOnUse" cx="106" cy="-8" r="101.58370115291893" fx="106" fy="-8"><stop offset="0%" stop-color="rgb(39,39,39)" stop-opacity="1"/><stop offset="44%" stop-color="rgb(50,50,50)" stop-opacity="0.5"/><stop offset="88%" stop-color="rgb(62,62,62)" stop-opacity="0"/></radialGradient><linearGradient id="__lottie_element_37909" spreadMethod="pad" gradientUnits="userSpaceOnUse" x1="-102" y1="-81" x2="173.93699645996094" y2="-81"><stop offset="0%" stop-color="rgb(255,255,255)" stop-opacity="0"/><stop offset="22%" stop-color="rgb(255,255,255)" stop-opacity="0.5"/><stop offset="44%" stop-color="rgb(255,255,255)" stop-opacity="1"/><stop offset="76%" stop-color="rgb(255,255,255)" stop-opacity="0.5"/><stop offset="100%" stop-color="rgb(255,255,255)" stop-opacity="0"/></linearGradient><radialGradient id="__lottie_element_37910" spreadMethod="pad" gradientUnits="userSpaceOnUse" cx="-167" cy="-68" r="61.47883350125016" fx="-167" fy="-68"><stop offset="0%" stop-color="rgb(100,100,100)" stop-opacity="1"/><stop offset="50%" stop-color="rgb(95,95,95)" stop-opacity="0.5"/><stop offset="100%" stop-color="rgb(90,90,90)" stop-opacity="0"/></radialGradient><radialGradient id="__lottie_element_37911" spreadMethod="pad" gradientUnits="userSpaceOnUse" cx="7.494999885559082" cy="31.011999130249023" r="64.9750842369759" fx="7.494999885559082" fy="31.011999130249023"><stop offset="0%" stop-color="rgb(100,100,100)" stop-opacity="1"/><stop offset="66%" stop-color="rgb(95,95,95)" stop-opacity="0.5"/><stop offset="100%" stop-color="rgb(90,90,90)" stop-opacity="0"/></radialGradient><linearGradient id="__lottie_element_37912" spreadMethod="pad" gradientUnits="userSpaceOnUse" x1="-14" y1="175" x2="7.464000225067139" y2="84.83000183105469"><stop offset="0%" stop-color="rgb(5,5,5)" stop-opacity="1"/><stop offset="50%" stop-color="rgb(5,5,5)" stop-opacity="0.5"/><stop offset="100%" stop-color="rgb(5,5,5)" stop-opacity="0"/></linearGradient><linearGradient id="__lottie_element_37916" spreadMethod="pad" gradientUnits="userSpaceOnUse" x1="3.5350000858306885" y1="-46.97100067138672" x2="-1.4479999542236328" y2="17.802000045776367"><stop offset="13%" stop-color="rgb(25,25,25)"/><stop offset="62%" stop-color="rgb(42,41,41)"/><stop offset="99%" stop-color="rgb(58,57,57)"/></linearGradient><radialGradient id="__lottie_element_37917" spreadMethod="pad" gradientUnits="userSpaceOnUse" cx="3.6429998874664307" cy="27.833999633789062" r="39.78901150357738" fx="3.6429998874664307" fy="27.833999633789062"><stop offset="44%" stop-color="rgb(90,90,90)" stop-opacity="0.6000000238418579"/><stop offset="72%" stop-color="rgb(90,90,90)" stop-opacity="0.30000001192092896"/><stop offset="100%" stop-color="rgb(90,90,90)" stop-opacity="0"/></radialGradient><linearGradient id="__lottie_element_37921" spreadMethod="pad" gradientUnits="userSpaceOnUse" x1="-0.7020000219345093" y1="-29.299999237060547" x2="2.1449999809265137" y2="10.560999870300293"><stop offset="25%" stop-color="rgb(25,25,25)"/><stop offset="73%" stop-color="rgb(42,41,41)"/><stop offset="99%" stop-color="rgb(58,57,57)"/></linearGradient><radialGradient id="__lottie_element_37922" spreadMethod="pad" gradientUnits="userSpaceOnUse" cx="-3.9010000228881836" cy="30.52199935913086" r="38.12019893835101" fx="-3.9010000228881836" fy="30.52199935913086"><stop offset="44%" stop-color="rgb(90,90,90)" stop-opacity="0.6000000238418579"/><stop offset="72%" stop-color="rgb(90,90,90)" stop-opacity="0.30000001192092896"/><stop offset="100%" stop-color="rgb(90,90,90)" stop-opacity="0"/></radialGradient><linearGradient id="__lottie_element_37926" spreadMethod="pad" gradientUnits="userSpaceOnUse" x1="10.16100025177002" y1="-76.63600158691406" x2="-22.235000610351562" y2="51.40700149536133"><stop offset="0%" stop-color="rgb(73,72,72)"/><stop offset="87%" stop-color="rgb(60,59,59)"/><stop offset="100%" stop-color="rgb(48,47,46)"/></linearGradient><linearGradient id="__lottie_element_37927" spreadMethod="pad" gradientUnits="userSpaceOnUse" x1="-13.461000442504883" y1="-97.5459976196289" x2="23.51099967956543" y2="60.64699935913086"><stop offset="0%" stop-color="rgb(255,255,255)" stop-opacity="0"/><stop offset="9%" stop-color="rgb(255,255,255)" stop-opacity="0.5"/><stop offset="36%" stop-color="rgb(255,255,255)" stop-opacity="1"/><stop offset="72%" stop-color="rgb(255,255,255)" stop-opacity="0.6000000238418579"/><stop offset="100%" stop-color="rgb(255,255,255)" stop-opacity="0.20000000298023224"/></linearGradient></defs><g clip-path="url(#__lottie_element_37862)"><g style="display: block;" transform="matrix(1,0,0,1,-2.032989501953125,4.571990966796875)" opacity="1"><g opacity="1" transform="matrix(1,0,0,1,414.8389892578125,135.63600158691406)"><path fill="url(#__lottie_element_37926)" fill-opacity="1" d=" M4.9019999504089355,84.44999694824219 C4.1620001792907715,67.11499786376953 63.34199905395508,48.784000396728516 60.44300079345703,-8.163999557495117 C56.65800094604492,-82.50900268554688 -18.816999435424805,-84.93399810791016 -38.05500030517578,-84.4000015258789 C-50.685001373291016,-84.04900360107422 -61.000999450683594,-81.91000366210938 -60.53300094604492,-72.04199981689453 C-60.1510009765625,-64 -51.027000427246094,-63.31999969482422 -38.577999114990234,-63.58100128173828 C-1.9739999771118164,-64.3489990234375 37.89099884033203,-50.801998138427734 37.89099884033203,-8.163999557495117 C37.89099884033203,17.736000061035156 16.410999298095703,51.8650016784668 -41.21900177001953,53.678001403808594 C-73.58899688720703,55.6150016784668 -19.58799934387207,107.61499786376953 4.9019999504089355,84.44999694824219z"/></g><g opacity="0.25" transform="matrix(1,0,0,1,414.46099853515625,125.5459976196289)"><path fill="url(#__lottie_element_37927)" fill-opacity="1" d=" M-27.100000381469727,62.83399963378906 C-6.789999961853027,61.02799987792969 41.92399978637695,45.40800094604492 48.084999084472656,5.831999778747559 C52.94599914550781,-25.39299964904785 33.10200119018555,-51.25899887084961 -9.005000114440918,-61.250999450683594 C-35.347999572753906,-67.50299835205078 -61.25400161743164,-62.48899841308594 -59.76100158691406,-65.56600189208984 C-53.84700012207031,-77.75299835205078 -27.55500030517578,-75.11199951171875 -4.966000080108643,-71.41699981689453 C43.75199890136719,-63.448001861572266 66.25199890136719,-25.357999801635742 58.231998443603516,12.08899974822998 C50.08599853515625,50.124000549316406 1.8589999675750732,71.64700317382812 -12.197999954223633,74.51000213623047 C-12.197999954223633,74.51000213623047 -27.100000381469727,62.83399963378906 -27.100000381469727,62.83399963378906z"/></g><g opacity="1" transform="matrix(1,0,0,1,414.8389892578125,135.63600158691406)"><path stroke-linecap="round" stroke-linejoin="round" fill-opacity="0" stroke="rgb(30,29,29)" stroke-opacity="1" stroke-width="6" d=" M4.9019999504089355,84.44999694824219 C5.381999969482422,65.78500366210938 63.34199905395508,48.784000396728516 60.44300079345703,-8.163999557495117 C56.65800094604492,-82.50900268554688 -18.816999435424805,-84.93399810791016 -38.05500030517578,-84.4000015258789 C-50.685001373291016,-84.04900360107422 -61.000999450683594,-81.91000366210938 -60.53300094604492,-72.04199981689453 C-60.1510009765625,-64 -51.027000427246094,-63.31999969482422 -38.577999114990234,-63.58100128173828 C-1.9739999771118164,-64.3489990234375 37.89099884033203,-50.801998138427734 37.89099884033203,-8.163999557495117 C37.89099884033203,17.736000061035156 15.083999633789062,52.91400146484375 -41.21900177001953,53.678001403808594"/></g><g opacity="1" transform="matrix(1,0,0,1,414.7860107421875,89.3290023803711)"><path stroke-linecap="round" stroke-linejoin="round" fill-opacity="0" stroke="rgb(30,29,29)" stroke-opacity="1" stroke-width="6" d=" M60.49599838256836,38.143001556396484 C56.71099853515625,-36.20199966430664 -18.763999938964844,-38.62699890136719 -38.00199890136719,-38.09299850463867 C-50.63199996948242,-37.742000579833984 -60.948001861572266,-35.60300064086914 -60.47999954223633,-25.735000610351562"/></g></g><g style="display: block;" transform="matrix(1,0,0,1,0,0)" opacity="1"><g opacity="1" transform="matrix(1,0,0,1,188.70199584960938,405.29998779296875)"><path fill="url(#__lottie_element_37921)" fill-opacity="1" d=" M21.601999282836914,-57.21900177001953 C20.30500030517578,-34.00600051879883 21.03700065612793,-9.064000129699707 21.3439998626709,10.765999794006348 C21.59600067138672,27.06100082397461 21.562000274658203,39.90399932861328 19.8799991607666,45.49700164794922 C16.150999069213867,57.895999908447266 6.999000072479248,57.1150016784668 -1.850000023841858,57.2140007019043 C-10.699000358581543,57.3129997253418 -20.343000411987305,56.01499938964844 -20.343000411987305,47.597999572753906 C-20.343000411987305,39.641998291015625 -5.861999988555908,39.141998291015625 2.5999999046325684,38.527000427246094 C2.5999999046325684,38.527000427246094 -17.865999221801758,-4.833000183105469 -21.601999282836914,-50.69200134277344"/></g><g opacity="1" transform="matrix(1,0,0,1,189.9010009765625,429.4779968261719)"><path fill="url(#__lottie_element_37922)" fill-opacity="1" d=" M-11.88700008392334,20.915000915527344 C-11.88700008392334,16.55900001525879 -6.197999954223633,15.979000091552734 3.056999921798706,15.015000343322754 C3.056999921798706,15.015000343322754 -2.677000045776367,1.190999984741211 -7.126999855041504,-12.487000465393066 C-11.45300006866455,-24.179000854492188 8.409000396728516,-31.167999267578125 10.781999588012695,-14.309000015258789 C10.781999588012695,-14.309000015258789 14.397000312805176,14.505000114440918 8.54699993133545,21.760000228881836 C6.8470001220703125,23.868999481201172 3.0160000324249268,23.993999481201172 -0.8740000128746033,24.277999877929688 C-6.322000026702881,24.676000595092773 -11.88700008392334,23.424999237060547 -11.88700008392334,20.915000915527344z"/></g><g opacity="1" transform="matrix(1,0,0,1,188.70199584960938,405.29998779296875)"><path stroke-linecap="round" stroke-linejoin="round" fill-opacity="0" stroke="rgb(5,5,5)" stroke-opacity="1" stroke-width="6" d=" M21.601999282836914,-57.21900177001953 C20.31399917602539,-34.15800094604492 21.027000427246094,-9.388999938964844 21.33799934387207,10.376999855041504 C21.597000122070312,26.85700035095215 21.576000213623047,39.86000061035156 19.8799991607666,45.49700164794922 C16.150999069213867,57.895999908447266 6.999000072479248,57.1150016784668 -1.850000023841858,57.2140007019043 C-10.699000358581543,57.3129997253418 -20.343000411987305,56.01499938964844 -20.343000411987305,47.597999572753906 C-20.343000411987305,39.641998291015625 -5.861999988555908,39.141998291015625 2.5999999046325684,38.527000427246094 C2.5999999046325684,38.527000427246094 -17.865999221801758,-4.833000183105469 -21.601999282836914,-50.69200134277344"/></g><g opacity="0.5" transform="matrix(1,0,0,1,174.843994140625,455.61700439453125)"><path stroke-linecap="round" stroke-linejoin="round" fill-opacity="0" stroke="rgb(5,5,5)" stroke-opacity="1" stroke-width="6" d=" M2.3570001125335693,-6.135000228881836 C-3.5380001068115234,-4.918000221252441 -4.307000160217285,4.116000175476074 2.3570001125335693,6.135000228881836"/></g></g><g style="display: block;" transform="matrix(1,0,0,1,0,0)" opacity="1"><g opacity="1" transform="matrix(1,0,0,1,321.6820068359375,450.5140075683594)"><path fill="rgb(38,38,38)" fill-opacity="1" d=" M8.529000282287598,-8.74899959564209 C-4.992000102996826,-9.144000053405762 -8.529000282287598,-4.083000183105469 -8.529000282287598,0.5929999947547913 C-8.529000282287598,5.210000038146973 -4.7210001945495605,8.84000015258789 7.552000045776367,8.770000457763672"/><path stroke-linecap="round" stroke-linejoin="round" fill-opacity="0" stroke="rgb(5,5,5)" stroke-opacity="1" stroke-width="6" d=" M8.529000282287598,-8.74899959564209 C-4.992000102996826,-9.144000053405762 -8.529000282287598,-4.083000183105469 -8.529000282287598,0.5929999947547913 C-8.529000282287598,5.210000038146973 -4.7210001945495605,8.84000015258789 7.552000045776367,8.770000457763672"/></g><g opacity="1" transform="matrix(1,0,0,1,353.4649963378906,401.97100830078125)"><path fill="url(#__lottie_element_37916)" fill-opacity="1" d=" M-19.660999298095703,39.650001525878906 C-12.930999755859375,32.39500045776367 -6.724999904632568,14.946000099182129 -7.8979997634887695,0.4429999887943268 C-8.211999893188477,-3.440000057220459 -17.815000534057617,-16.283000946044922 -22.204999923706055,-57.29199981689453 C-22.204999923706055,-57.29199981689453 36.52299880981445,-57.32400131225586 36.52299880981445,-57.32400131225586 C22.781999588012695,-28.490999221801758 24.135000228881836,-3.5139999389648438 22.069000244140625,5.461999893188477 C19.003000259399414,18.7810001373291 0.527999997138977,51.68899917602539 -2.453000068664551,53.986000061035156 C-5.993000030517578,56.7140007019043 -10.232999801635742,57.31800079345703 -20.448999404907227,57.32400131225586 C-33.13999938964844,57.33100128173828 -36.54399871826172,55.196998596191406 -36.52299880981445,49.04899978637695 C-36.507999420166016,44.78499984741211 -33.23400115966797,39.65700149536133 -19.660999298095703,39.650001525878906z"/></g><g opacity="1" transform="matrix(1,0,0,1,341.35699462890625,429.1659851074219)"><path fill="url(#__lottie_element_37917)" fill-opacity="1" d=" M-21.22100067138672,17.986000061035156 C-20.40999984741211,15.11400032043457 -13.180999755859375,13.194999694824219 -4.813000202178955,13.479999542236328 C-4.813000202178955,13.479999542236328 4.738999843597412,5.314000129699707 7.690000057220459,-16.472999572753906 C8.954000473022461,-27.195999145507812 24.26300048828125,-24.097000122070312 20.80500030517578,-15.902000427246094 C20.80500030517578,-15.902000427246094 10.02299976348877,11.963000297546387 2.0759999752044678,20.47100067138672 C0.2150000035762787,22.46299934387207 -4.879000186920166,23.41200065612793 -10.236000061035156,23.3439998626709 C-15.60099983215332,23.275999069213867 -22.170000076293945,21.347000122070312 -21.22100067138672,17.986000061035156z"/></g><g opacity="1" transform="matrix(1,0,0,1,353.4649963378906,401.97100830078125)"><path stroke-linecap="round" stroke-linejoin="round" fill-opacity="0" stroke="rgb(5,5,5)" stroke-opacity="1" stroke-width="6" d=" M-19.660999298095703,39.650001525878906 C-12.930999755859375,32.39500045776367 -6.724999904632568,14.946000099182129 -7.8979997634887695,0.4429999887943268 C-8.211999893188477,-3.440000057220459 -17.815000534057617,-16.283000946044922 -22.204999923706055,-57.29199981689453 C-22.204999923706055,-57.29199981689453 36.52299880981445,-57.32400131225586 36.52299880981445,-57.32400131225586 C22.781999588012695,-28.490999221801758 24.135000228881836,-3.5139999389648438 22.069000244140625,5.461999893188477 C19.003000259399414,18.7810001373291 0.527999997138977,51.68899917602539 -2.453000068664551,53.986000061035156 C-5.993000030517578,56.7140007019043 -10.232999801635742,57.31800079345703 -20.448999404907227,57.32400131225586 C-33.13999938964844,57.33100128173828 -36.54399871826172,55.196998596191406 -36.52299880981445,49.04899978637695 C-36.507999420166016,44.78499984741211 -33.23400115966797,39.65700149536133 -19.660999298095703,39.650001525878906z"/></g></g><g style="display: block;" transform="matrix(1,0,0,1,256,256)" opacity="1"><g opacity="1" transform="matrix(1,0,0,1,0,0)"><path fill="url(#__lottie_element_37907)" fill-opacity="1" d=" M-172.25999450683594,-68.15399932861328 C-168.0399932861328,-64.35600280761719 -161.3730010986328,-57.5 -160.11900329589844,-42.198001861572266 C-156.5489959716797,1.3459999561309814 -153.052001953125,87.00900268554688 -108.45500183105469,105.09600067138672 C-73.96299743652344,119.08499908447266 -41.176998138427734,107.27100372314453 1.74399995803833,99.33200073242188 C28.891000747680664,94.31099700927734 60.09199905395508,90.83899688720703 98.34300231933594,96.427001953125 C138.79400634765625,102.33599853515625 180.4080047607422,84.08300018310547 180.4080047607422,84.08300018310547 C174.6439971923828,63.17900085449219 177.7270050048828,30.104999542236328 176.6060028076172,2.5460000038146973 C176.1529998779297,-8.588000297546387 168.98800659179688,-40.349998474121094 145.3990020751953,-57.23099899291992 C140.74600219726562,-60.56100082397461 135.45399475097656,-63.31100082397461 129.447998046875,-65.20999908447266 C123.26799774169922,-67.16400146484375 116.33200073242188,-68.21700286865234 108.55999755859375,-68.07099914550781 C100.55599975585938,-67.9209976196289 93.50299835205078,-67.625 87.22200012207031,-67.21199798583984 C80.73500061035156,-66.78500366210938 75.07099914550781,-66.23400115966797 70.03199768066406,-65.58999633789062 C65.36399841308594,-64.99400329589844 61.233001708984375,-64.31900024414062 57.47999954223633,-63.5890007019043 C53.930999755859375,-62.89899826049805 50.720001220703125,-62.15999984741211 47.71500015258789,-61.39500045776367 C44.845001220703125,-60.66400146484375 42.16400146484375,-59.909000396728516 39.55400085449219,-59.14799880981445 C36.979000091552734,-58.39699935913086 34.4739990234375,-57.641998291015625 31.92799949645996,-56.89799880981445 C28.308000564575195,-55.840999603271484 24.604999542236328,-54.80799865722656 20.499000549316406,-53.85200119018555 C18.834999084472656,-53.46500015258789 16.594999313354492,-53.04499816894531 14.045999526977539,-52.619998931884766 C10.501999855041504,-52.02899932861328 6.361999988555908,-51.428001403808594 2.3529999256134033,-50.89099884033203 C-1.4900000095367432,-50.375999450683594 -5.211999893188477,-49.91999816894531 -8.175000190734863,-49.58599853515625 C-11.321999549865723,-49.231998443603516 -13.612000465393066,-49.01599884033203 -14.281999588012695,-49.01599884033203 C-16.47800064086914,-48.970001220703125 -18.555999755859375,-49.042999267578125 -20.5310001373291,-49.2239990234375 C-22.68899917602539,-49.42100143432617 -24.725000381469727,-49.74700164794922 -26.6560001373291,-50.18600082397461 C-28.76799964904785,-50.66600036621094 -30.7549991607666,-51.28099822998047 -32.64400100708008,-52.01100158691406 C-34.39400100708008,-52.6879997253418 -36.060001373291016,-53.4640007019043 -37.6609992980957,-54.323001861572266 C-39.35100173950195,-55.22999954223633 -40.96799850463867,-56.22999954223633 -42.5369987487793,-57.30500030517578 C-44.529998779296875,-58.66999816894531 -46.444000244140625,-60.154998779296875 -48.32899856567383,-61.72200012207031 C-50.17599868774414,-63.257999420166016 -51.99399948120117,-64.87300109863281 -53.83000183105469,-66.53099822998047 C-59.7130012512207,-71.84600067138672 -68.40299987792969,-76.72699737548828 -72.62799835205078,-82.9229965209961 C-82.98200225830078,-98.10900115966797 -85.62100219726562,-130.29100036621094 -93.85399627685547,-144.58399963378906"/></g><g opacity="0.8" transform="matrix(1,0,0,1,0,0)"><path fill="url(#__lottie_element_37908)" fill-opacity="1" d=" M90.7509994506836,44.4109992980957 C91.85199737548828,24.756999969482422 94.53099822998047,16.750999450683594 95.9280014038086,2.931999921798706 C95.9280014038086,-0.5320000052452087 96.49800109863281,-4.314000129699707 97.56900024414062,-8.156999588012695 C101.81600189208984,-29.584999084472656 112.00399780273438,-46.5989990234375 128.09100341796875,-44.277000427246094 C158.83799743652344,-39.8380012512207 171.1959991455078,4.946000099182129 176.8090057373047,31.29400062561035 C180.40899658203125,-79.21700286865234 108.60700225830078,-68.74199676513672 90.88600158691406,-67.37699890136719 C57.62300109863281,-64.81400299072266 28.481000900268555,-53.518001556396484 28.481000900268555,-53.518001556396484 C77.59200286865234,-44.617000579833984 82.68399810791016,-13.840999603271484 82.83999633789062,41.130001068115234 C82.8479995727539,43.92100143432617 83.44599914550781,49.15399932861328 86.23200225830078,48.972999572753906 C86.23200225830078,48.972999572753906 86.23200225830078,48.972999572753906 86.23200225830078,48.972999572753906 C88.6729965209961,48.81399917602539 90.61399841308594,46.85300064086914 90.7509994506836,44.4109992980957z"/></g><g opacity="0.25" transform="matrix(1,0,0,1,0,0)"><path fill="url(#__lottie_element_37909)" fill-opacity="1" d=" M151.50399780273438,-52.20800018310547 C145.08599853515625,-58.21500015258789 137.1699981689453,-63.10200119018555 127.45999908447266,-65.79900360107422 C121.79100036621094,-67.3740005493164 115.51000213623047,-68.2020034790039 108.55999755859375,-68.07099914550781 C99.63899993896484,-67.90299987792969 91.9000015258789,-67.55500030517578 85.09300231933594,-67.06500244140625 C79.28800201416016,-66.64700317382812 74.16200256347656,-66.12699890136719 69.55899810791016,-65.52899932861328 C65.4260025024414,-64.99199676513672 61.715999603271484,-64.39399719238281 58.31700134277344,-63.75 C54.23699951171875,-62.97700119018555 50.604000091552734,-62.13999938964844 47.22600173950195,-61.27000045776367 C44.61899948120117,-60.5989990234375 42.16299819946289,-59.90700149536133 39.77000045776367,-59.21099853515625 C37.08700180053711,-58.43000030517578 34.483001708984375,-57.643001556396484 31.832000732421875,-56.86899948120117 C28.243000030517578,-55.82099914550781 24.569000244140625,-54.79899978637695 20.499000549316406,-53.85200119018555 C18.798999786376953,-53.45600128173828 16.496000289916992,-53.0260009765625 13.878999710083008,-52.59199905395508 C10.87399959564209,-52.09299850463867 7.453999996185303,-51.5890007019043 4.053999900817871,-51.12200164794922 C-0.46000000834465027,-50.50199890136719 -4.939000129699707,-49.94900131225586 -8.36299991607666,-49.564998626708984 C-11.413000106811523,-49.222999572753906 -13.62600040435791,-49.01599884033203 -14.281999588012695,-49.01599884033203 C-14.281999588012695,-49.01599884033203 -14.281999588012695,-49.01599884033203 -14.281999588012695,-49.01599884033203 C-16.51300048828125,-48.970001220703125 -18.621000289916992,-49.04600143432617 -20.624000549316406,-49.233001708984375 C-22.60300064086914,-49.417999267578125 -24.479000091552734,-49.709999084472656 -26.266000747680664,-50.0989990234375 C-28.554000854492188,-50.59700012207031 -30.69700050354004,-51.25400161743164 -32.72600173950195,-52.042999267578125 C-34.48500061035156,-52.72700119018555 -36.159000396728516,-53.512001037597656 -37.766998291015625,-54.38100051879883 C-39.374000549316406,-55.249000549316406 -40.91699981689453,-56.20100021362305 -42.41400146484375,-57.22100067138672 C-44.30400085449219,-58.507999420166016 -46.12200164794922,-59.90399932861328 -47.9109992980957,-61.375999450683594 C-49.902000427246094,-63.01499938964844 -51.85599899291992,-64.74800109863281 -53.83000183105469,-66.53099822998047 C-59.7130012512207,-71.84600067138672 -68.40299987792969,-76.72699737548828 -72.62799835205078,-82.9229965209961 C-82.98200225830078,-98.10900115966797 -85.62100219726562,-130.29100036621094 -93.85399627685547,-144.58399963378906 C-96.15599822998047,-148.5800018310547 -98.52200317382812,-152.12899780273438 -101.36000061035156,-155.11900329589844 C-101.36000061035156,-155.11900329589844 -102.36799621582031,-155.27499389648438 -102.36799621582031,-155.27499389648438 C-87.21800231933594,-120.56700134277344 -96.70600128173828,-96.55400085449219 -80.12200164794922,-73.06600189208984 C-77.26899719238281,-69.0250015258789 -73.61499786376953,-64.98400115966797 -69.41799926757812,-61.14799880981445 C-67.00700378417969,-58.94499969482422 -64.41699981689453,-56.808998107910156 -61.69499969482422,-54.779998779296875 C-58.4640007019043,-52.37099838256836 -55.047000885009766,-50.11399841308594 -51.5260009765625,-48.07099914550781 C-48.926998138427734,-46.5629997253418 -46.27199935913086,-45.17300033569336 -43.59199905395508,-43.92599868774414 C-40.231998443603516,-42.362998962402344 -36.83399963378906,-41.025001525878906 -33.46200180053711,-39.9640007019043 C-30.725000381469727,-39.10300064086914 -28.006000518798828,-38.42499923706055 -25.336999893188477,-37.957000732421875 C-23.416000366210938,-37.619998931884766 -21.520999908447266,-37.391998291015625 -19.665000915527344,-37.28300094604492 C-15.680000305175781,-37.04899978637695 -11.532999992370605,-37.15999984741211 -7.239999771118164,-37.5359992980957 C-3.756999969482422,-37.840999603271484 -0.1770000010728836,-38.32099914550781 3.493000030517578,-38.933998107910156 C7.119999885559082,-39.53900146484375 10.833999633789062,-40.27399826049805 14.628000259399414,-41.09700012207031 C18.496999740600586,-41.93600082397461 22.448999404907227,-42.86600112915039 26.47599983215332,-43.845001220703125 C30.229000091552734,-44.75699996948242 34.047000885009766,-45.709999084472656 37.92499923706055,-46.66999816894531 C41.67599868774414,-47.5989990234375 45.481998443603516,-48.53300094604492 49.3390007019043,-49.44200134277344 C52.707000732421875,-50.236000061035156 56.11399841308594,-51.00899887084961 59.55500030517578,-51.742000579833984 C64.34700012207031,-52.762001037597656 69.20500183105469,-53.70399856567383 74.12000274658203,-54.507999420166016 C77.57599639892578,-55.073001861572266 81.06099700927734,-55.57099914550781 84.56999969482422,-55.98099899291992 C88.99600219726562,-56.49800109863281 93.46099853515625,-56.875999450683594 97.95800018310547,-57.07400131225586 C100.83300018310547,-57.20100021362305 103.72000122070312,-57.25400161743164 106.61900329589844,-57.2239990234375 C113.71399688720703,-57.150001525878906 120.31400299072266,-56.165000915527344 126.41799926757812,-54.37200164794922 C131.45799255371094,-52.89099884033203 136.15899658203125,-50.85900115966797 140.52099609375,-48.33300018310547 C155.61700439453125,-39.5890007019043 166.64700317382812,-24.922000885009766 173.57000732421875,-6.691999912261963 C173.57000732421875,-6.691999912261963 172.36900329589844,-27.851999282836914 151.50399780273438,-52.20800018310547z"/></g><g opacity="1" transform="matrix(1,0,0,1,0,0)"><path fill="url(#__lottie_element_37910)" fill-opacity="1" d=" M-95.39900207519531,-114.46800231933594 C-116.19200134277344,-81.62899780273438 -112.83999633789062,-79.14099884033203 -113.91200256347656,-59.27000045776367 C-115.65399932861328,-26.97599983215332 -128.14500427246094,-12.923999786376953 -141.06199645996094,-8.199000358581543 C-161.68699645996094,-0.6539999842643738 -159.48800659179688,-47.62200164794922 -165.23800659179688,-61.64899826049805 C-165.23800659179688,-61.64899826049805 -128.33299255371094,-89.3499984741211 -95.39900207519531,-114.46800231933594z"/></g><g opacity="1" transform="matrix(1,0,0,1,0,0)"><path stroke-linecap="round" stroke-linejoin="round" fill-opacity="0" stroke="rgb(5,5,5)" stroke-opacity="1" stroke-width="6" d=" M-172.25999450683594,-68.15399932861328 C-168.0399932861328,-64.35600280761719 -161.3730010986328,-57.5 -160.11900329589844,-42.198001861572266 C-156.5489959716797,1.3459999561309814 -153.052001953125,87.00900268554688 -108.45500183105469,105.09600067138672 C-75.94499969482422,118.28099822998047 -44.94900131225586,108.54299926757812 -5.553999900817871,100.73300170898438 C23.281999588012695,95.01599884033203 56.61800003051758,90.33200073242188 98.34300231933594,96.427001953125 C138.79400634765625,102.33599853515625 180.4080047607422,84.08300018310547 180.4080047607422,84.08300018310547 C174.6439971923828,63.17900085449219 177.7270050048828,30.104999542236328 176.6060028076172,2.5460000038146973 C176.156005859375,-8.508999824523926 169.08799743652344,-39.902000427246094 145.89599609375,-56.87099838256836 C139.97900390625,-61.20000076293945 133.01300048828125,-64.58999633789062 124.83899688720703,-66.46399688720703 C119.87100219726562,-67.60299682617188 114.45600128173828,-68.18199920654297 108.55999755859375,-68.07099914550781 C100.48300170898438,-67.91899871826172 93.375,-67.61900329589844 87.0510025024414,-67.19999694824219 C80.3949966430664,-66.75900268554688 74.60900115966797,-66.18699645996094 69.4739990234375,-65.51799774169922 C64.86100006103516,-64.91699981689453 60.77399826049805,-64.23799896240234 57.058998107910156,-63.50600051879883 C53.590999603271484,-62.823001861572266 50.44499969482422,-62.09400177001953 47.49599838256836,-61.3390007019043 C45.106998443603516,-60.72800064086914 42.847999572753906,-60.099998474121094 40.650001525878906,-59.465999603271484 C37.61000061035156,-58.5890007019043 34.6870002746582,-57.70199966430664 31.702999114990234,-56.832000732421875 C28.155000686645508,-55.79800033569336 24.520000457763672,-54.78799819946289 20.499000549316406,-53.85200119018555 C18.871999740600586,-53.472999572753906 16.691999435424805,-53.0629997253418 14.213000297546387,-52.64799880981445 C10.949000358581543,-52.10100173950195 7.165999889373779,-51.54499816894531 3.437999963760376,-51.03799819946289 C-0.8870000243186951,-50.44900131225586 -5.136000156402588,-49.92599868774414 -8.41100025177002,-49.558998107910156 C-11.435999870300293,-49.220001220703125 -13.628999710083008,-49.01599884033203 -14.281999588012695,-49.01599884033203 C-16.52400016784668,-48.96900177001953 -18.64299964904785,-49.04600143432617 -20.655000686645508,-49.23500061035156 C-22.81800079345703,-49.4379997253418 -24.857999801635742,-49.770999908447266 -26.792999267578125,-50.21699905395508 C-28.8700008392334,-50.69599914550781 -30.82699966430664,-51.305999755859375 -32.6879997253418,-52.02799987792969 C-34.45000076293945,-52.71200180053711 -36.12699890136719,-53.49599838256836 -37.737998962402344,-54.3650016784668 C-39.48099899291992,-55.30500030517578 -41.145999908447266,-56.34299850463867 -42.762001037597656,-57.459999084472656 C-44.75299835205078,-58.83700180053711 -46.667999267578125,-60.33399963378906 -48.55500030517578,-61.9109992980957 C-50.32500076293945,-63.38999938964844 -52.069000244140625,-64.94100189208984 -53.83000183105469,-66.53099822998047 C-59.7130012512207,-71.84600067138672 -68.40299987792969,-76.72699737548828 -72.62799835205078,-82.9229965209961 C-82.98200225830078,-98.10900115966797 -85.62100219726562,-130.29100036621094 -93.85399627685547,-144.58399963378906"/></g><g opacity="1" transform="matrix(1,0,0,1,0,0)"><path stroke-linecap="round" stroke-linejoin="round" fill-opacity="0" stroke="rgb(30,29,29)" stroke-opacity="1" stroke-width="6" d=" M180.4080047607422,84.08300018310547 C174.6439971923828,63.17900085449219 177.7270050048828,30.104999542236328 176.6060028076172,2.5460000038146973 C176.15199279785156,-8.607000350952148 168.96299743652344,-40.459999084472656 145.2760009765625,-57.31800079345703 C140.7570037841797,-60.534000396728516 135.63800048828125,-63.20500183105469 129.8509979248047,-65.08200073242188 C123.56999969482422,-67.11900329589844 116.50199890136719,-68.22000122070312 108.55999755859375,-68.07099914550781 C100.66400146484375,-67.9229965209961 93.69400024414062,-67.63200378417969 87.47699737548828,-67.22799682617188 C80.76499938964844,-66.79100036621094 74.93000030517578,-66.22200012207031 69.75599670410156,-65.55500030517578 C65.62799835205078,-65.02300262451172 61.91999816894531,-64.427001953125 58.52299880981445,-63.78799819946289 C54.483001708984375,-63.02799987792969 50.882999420166016,-62.20500183105469 47.53499984741211,-61.3489990234375 C44.94200134277344,-60.68600082397461 42.5,-60.00299835205078 40.125,-59.31399917602539 C37.361000061035156,-58.51300048828125 34.68600082397461,-57.702999114990234 31.96500015258789,-56.90800094604492 C28.333999633789062,-55.84700012207031 24.618999481201172,-54.81100082397461 20.499000549316406,-53.85200119018555 C18.822999954223633,-53.46200180053711 16.562000274658203,-53.03900146484375 13.991000175476074,-52.611000061035156 C10.704000473022461,-52.06399917602539 6.910999774932861,-51.507999420166016 3.186000108718872,-51.00299835205078 C-0.9900000095367432,-50.4370002746582 -5.078999996185303,-49.933998107910156 -8.270000457763672,-49.57500076293945 C-11.368000030517578,-49.22700119018555 -13.619000434875488,-49.01599884033203 -14.281999588012695,-49.01599884033203"/></g><g opacity="0.7000000000000001" transform="matrix(1,0,0,1,0,0)"><path fill="url(#__lottie_element_37911)" fill-opacity="1" d=" M-37.34400177001953,-18.416000366210938 C-7.804999828338623,-39.09199905395508 51.88399887084961,-40.32899856567383 72.29900360107422,-18.416000366210938 C92.71399688720703,3.496999979019165 84.55500030517578,46.874000549316406 64.13999938964844,64.75700378417969 C43.724998474121094,82.63999938964844 -11.012999534606934,87.00599670410156 -32.06800079345703,77.80000305175781 C-51.237998962402344,69.41799926757812 -61.560001373291016,58.41600036621094 -61.74599838256836,36.777000427246094 C-61.9109992980957,17.591999053955078 -56.22100067138672,-5.203000068664551 -37.34400177001953,-18.416000366210938z"/></g><g opacity="1" transform="matrix(1,0,0,1,0,0)"><path stroke-linecap="round" stroke-linejoin="round" fill-opacity="0" stroke="rgb(30,29,29)" stroke-opacity="1" stroke-width="6" d=" M-14.281999588012695,-49.01599884033203 C-16.486000061035156,-48.970001220703125 -18.570999145507812,-49.04399871826172 -20.552000045776367,-49.22600173950195 C-22.604000091552734,-49.415000915527344 -24.545000076293945,-49.71799850463867 -26.391000747680664,-50.125999450683594 C-28.579999923706055,-50.60900115966797 -30.63599967956543,-51.237998962402344 -32.58700180053711,-51.98899841308594 C-34.36899948120117,-52.67499923706055 -36.0629997253418,-53.4640007019043 -37.689998626708984,-54.3390007019043 C-39.369998931884766,-55.24300003051758 -40.979000091552734,-56.237998962402344 -42.540000915527344,-57.30699920654297 C-44.415000915527344,-58.590999603271484 -46.220001220703125,-59.981998443603516 -47.99700164794922,-61.446998596191406 C-49.95800018310547,-63.064998626708984 -51.8849983215332,-64.77400207519531 -53.83000183105469,-66.53099822998047 C-59.7130012512207,-71.84600067138672 -68.40299987792969,-76.72699737548828 -72.62799835205078,-82.9229965209961 C-82.98200225830078,-98.10900115966797 -85.62100219726562,-130.29100036621094 -93.85399627685547,-144.58399963378906"/></g><g opacity="1" transform="matrix(1,0,0,1,0,0)"><path fill="url(#__lottie_element_37912)" fill-opacity="1" d=" M-72.13700103759766,55.3650016784668 C-72.13700103759766,55.3650016784668 -37.68600082397461,87.56199645996094 19.474000930786133,81.00499725341797 C71.322998046875,75.05699920654297 83.1259994506836,52.05099868774414 83.1259994506836,52.05099868774414 C83.1259994506836,52.05099868774414 105.20099639892578,96.89199829101562 105.20099639892578,96.89199829101562 C105.20099639892578,96.89199829101562 48.53200149536133,90.94000244140625 10.322999954223633,98.48300170898438 C-27.88599967956543,106.0260009765625 -29.944000244140625,109.41200256347656 -69.52100372314453,112.23699951171875 C-69.52100372314453,112.23699951171875 -63.20600128173828,81.552001953125 -72.13700103759766,55.3650016784668z"/></g></g><g style="display: block;" transform="matrix(1,0,0,1,0,0)" opacity="1"><g opacity="1" transform="matrix(1,0,0,1,113.83300018310547,78.6729965209961)"><path fill="url(#__lottie_element_37903)" fill-opacity="1" d=" M-10.494000434875488,18.4950008392334 C-10.494000434875488,18.4950008392334 -23.548999786376953,-12.909000396728516 -16.4060001373291,-17.95800018310547 C-9.765999794006348,-22.652000427246094 13.072999954223633,4.672999858856201 18.54199981689453,15.64799976348877 C18.54199981689453,15.64799976348877 -10.494000434875488,18.4950008392334 -10.494000434875488,18.4950008392334z"/></g><g opacity="1" transform="matrix(1,0,0,1,113.83300018310547,78.6729965209961)"><path stroke-linecap="round" stroke-linejoin="round" fill-opacity="0" stroke="rgb(5,5,5)" stroke-opacity="1" stroke-width="6" d=" M-10.494000434875488,18.4950008392334 C-10.494000434875488,18.4950008392334 -23.548999786376953,-12.909000396728516 -16.4060001373291,-17.95800018310547 C-9.765999794006348,-22.652000427246094 13.072999954223633,4.672999858856201 18.54199981689453,15.64799976348877 C18.54199981689453,15.64799976348877 -10.494000434875488,18.4950008392334 -10.494000434875488,18.4950008392334z"/></g></g><g style="display: block;" transform="matrix(1,0,0,1,0,0)" opacity="1"><g opacity="1" transform="matrix(1,0,0,1,-5,0)"><path fill="rgb(224,136,136)" fill-opacity="1" d=" M88.95899963378906,166.78399658203125 C74.33799743652344,165.375 70.52200317382812,172.01600646972656 72.8759994506836,174.32899475097656 C75.47200012207031,176.88099670410156 76.36100006103516,170.4709930419922 89.59500122070312,170.6699981689453"/><path stroke-linecap="butt" stroke-linejoin="miter" fill-opacity="0" stroke-miterlimit="4" stroke="rgb(192,107,107)" stroke-opacity="1" stroke-width="3" d=" M88.95899963378906,166.78399658203125 C74.33799743652344,165.375 70.52200317382812,172.01600646972656 72.8759994506836,174.32899475097656 C75.47200012207031,176.88099670410156 76.36100006103516,170.4709930419922 89.59500122070312,170.6699981689453"/></g><g opacity="1" transform="matrix(1,0,0,1,0,0)"><path fill="rgb(247,244,217)" fill-opacity="1" d=" M119.63500213623047,123.41500091552734 C119.63500213623047,123.41500091552734 65.52799987792969,151.00799560546875 65.52799987792969,151.00799560546875 C65.52799987792969,151.00799560546875 55.02899932861328,159.08999633789062 58.316001892089844,165.61599731445312 C61.60300064086914,172.14199829101562 67.75299835205078,176.78799438476562 70.80699920654297,178.25399780273438 C68.12999725341797,174.02699279785156 68.84400177001953,169.21499633789062 68.84400177001953,169.21499633789062 C68.84400177001953,169.21499633789062 74.62200164794922,168.447998046875 74.62200164794922,168.447998046875 C74.62200164794922,168.447998046875 74.95800018310547,163.97000122070312 74.95800018310547,163.97000122070312 C74.95800018310547,163.97000122070312 83.86100006103516,158.01199340820312 83.86100006103516,158.01199340820312 C83.86100006103516,158.01199340820312 85.93099975585938,138.99200439453125 85.93099975585938,138.99200439453125 C85.93099975585938,138.99200439453125 111.53800201416016,136.54800415039062 111.53800201416016,136.54800415039062 C111.53800201416016,136.54800415039062 116.62999725341797,164.72799682617188 116.62999725341797,164.72799682617188 C116.62999725341797,164.72799682617188 98.46399688720703,168.54600524902344 98.46399688720703,168.54600524902344 C98.46399688720703,168.54600524902344 93.31099700927734,178.0590057373047 93.31099700927734,178.0590057373047 C93.31099700927734,178.0590057373047 84.4520034790039,179.6649932861328 78.75299835205078,174.73199462890625 C82.05000305175781,182.21400451660156 87.11799621582031,185.36399841308594 87.11799621582031,185.36399841308594 C87.11799621582031,185.36399841308594 130.60699462890625,157.69900512695312 130.60699462890625,157.69900512695312 C130.60699462890625,157.69900512695312 119.63500213623047,123.41500091552734 119.63500213623047,123.41500091552734z"/><path stroke-linecap="round" stroke-linejoin="round" fill-opacity="0" stroke="rgb(131,128,114)" stroke-opacity="1" stroke-width="2" d=" M119.63500213623047,123.41500091552734 C119.63500213623047,123.41500091552734 65.52799987792969,151.00799560546875 65.52799987792969,151.00799560546875 C65.52799987792969,151.00799560546875 55.02899932861328,159.08999633789062 58.316001892089844,165.61599731445312 C61.60300064086914,172.14199829101562 67.75299835205078,176.78799438476562 70.80699920654297,178.25399780273438 C68.12999725341797,174.02699279785156 68.84400177001953,169.21499633789062 68.84400177001953,169.21499633789062 C68.84400177001953,169.21499633789062 74.62200164794922,168.447998046875 74.62200164794922,168.447998046875 C74.62200164794922,168.447998046875 74.95800018310547,163.97000122070312 74.95800018310547,163.97000122070312 C74.95800018310547,163.97000122070312 83.86100006103516,158.01199340820312 83.86100006103516,158.01199340820312 C83.86100006103516,158.01199340820312 85.93099975585938,138.99200439453125 85.93099975585938,138.99200439453125 C85.93099975585938,138.99200439453125 111.53800201416016,136.54800415039062 111.53800201416016,136.54800415039062 C111.53800201416016,136.54800415039062 116.62999725341797,164.72799682617188 116.62999725341797,164.72799682617188 C116.62999725341797,164.72799682617188 98.46399688720703,168.54600524902344 98.46399688720703,168.54600524902344 C98.46399688720703,168.54600524902344 93.31099700927734,178.0590057373047 93.31099700927734,178.0590057373047 C93.31099700927734,178.0590057373047 84.4520034790039,179.6649932861328 78.75299835205078,174.73199462890625 C82.05000305175781,182.21400451660156 87.11799621582031,185.36399841308594 87.11799621582031,185.36399841308594 C87.11799621582031,185.36399841308594 130.60699462890625,157.69900512695312 130.60699462890625,157.69900512695312 C130.60699462890625,157.69900512695312 119.63500213623047,123.41500091552734 119.63500213623047,123.41500091552734z"/></g><g opacity="1" transform="matrix(1,0,0,1,105.55599975585938,141.12600708007812)"><path fill="rgb(64,63,61)" fill-opacity="1" d=" M53.89400100708008,-29.027000427246094 C45.65999984741211,-43.321998596191406 39.11600112915039,-52.96799850463867 10.51200008392334,-50.66899871826172 C-18.091999053955078,-48.37099838256836 -39.84000015258789,-31.738000869750977 -38.65599822998047,-18.71500015258789 C-38.65599822998047,-18.71500015258789 -57.983001708984375,-0.25699999928474426 -58.80799865722656,8.45300006866455 C-59.37200164794922,14.41100025177002 -53.49399948120117,25.312000274658203 -48.9379997253418,31.586000442504883 C-48.805999755859375,31.767000198364258 -37.525001525878906,32.5620002746582 -28.288999557495117,26.615999221801758 C-39.11899948120117,33.21799850463867 -49.04499816894531,31.389999389648438 -48.89400100708008,31.58300018310547 C-46.91899871826172,34.106998443603516 -42.85499954223633,39.112998962402344 -41.66999816894531,39.694000244140625 C-37.09000015258789,41.93899917602539 -25.983999252319336,38.82099914550781 -19.573999404907227,44.59000015258789 C2.938999891281128,67.68499755859375 70.50299835205078,2.609999895095825 53.89400100708008,-29.027000427246094z"/></g><g opacity="1" transform="matrix(1,0,0,1,111.80999755859375,125.81099700927734)"><path fill="url(#__lottie_element_37882)" fill-opacity="1" d=" M24.125999450683594,-17.163000106811523 C24.125999450683594,-17.163000106811523 26.291000366210938,-17.37299919128418 24.125999450683594,-17.163000106811523 C16.472000122070312,-16.422000885009766 17.018999099731445,-25.232999801635742 3.246000051498413,-30.5049991607666 C-0.1860000044107437,-39.94200134277344 -25.90399932861328,-24.530000686645508 -34.10100173950195,-18.761999130249023 C-58.75899887084961,-1.4110000133514404 -18.336000442504883,44.04100036621094 11.920999526977539,31.260000228881836 C42.178001403808594,18.479999542236328 43.777000427246094,4.724999904632568 40.55699920654297,-6.178999900817871 C38.57400131225586,-12.897000312805176 31.704999923706055,-17.070999145507812 24.125999450683594,-17.163000106811523z"/></g><g opacity="1" transform="matrix(1,0,0,1,89.74099731445312,130.33299255371094)"><path fill="url(#__lottie_element_37883)" fill-opacity="1" d=" M11.420000076293945,-8.369000434875488 C4.539999961853027,-7.840000152587891 -11.119999885559082,4.284999847412109 -13.493000030517578,7.316999912261963 C-15.866000175476074,10.348999977111816 -7.677000045776367,6.5269999504089355 1.0149999856948853,1.9129999876022339 C9.706999778747559,-2.7009999752044678 18.27400016784668,-8.895999908447266 11.420000076293945,-8.369000434875488z"/></g><g opacity="0.5" transform="matrix(1,0,0,1,94.11699676513672,123.1989974975586)"><path fill="url(#__lottie_element_37884)" fill-opacity="1" d=" M-4.734000205993652,4.099999904632568 C-4.734000205993652,4.099999904632568 0.9419999718666077,0.9610000252723694 5.541999816894531,-1.062000036239624 C15.072999954223633,-5.254000186920166 3.242000102996826,-5.254000186920166 -5.804999828338623,-0.15399999916553497 C-13.72700023651123,4.311999797821045 -4.734000205993652,4.099999904632568 -4.734000205993652,4.099999904632568z"/></g><g opacity="1" transform="matrix(1,0,0,1,71.5719985961914,135.44500732421875)"><path fill="url(#__lottie_element_37885)" fill-opacity="1" d=" M8.161999702453613,-12.883000373840332 C-1.815000057220459,-4.831999778747559 -15.038000106811523,6.375 -15.038000106811523,6.375 C-15.038000106811523,6.375 -8.427000045776367,12.883000373840332 -8.427000045776367,12.883000373840332 C-8.427000045776367,12.883000373840332 6.65500020980835,-0.16500000655651093 15.038000106811523,-5.408999919891357 C15.038000106811523,-5.408999919891357 8.161999702453613,-12.883000373840332 8.161999702453613,-12.883000373840332z"/></g><g opacity="1" transform="matrix(1,0,0,1,73.2969970703125,123.68399810791016)"><path fill="url(#__lottie_element_37886)" fill-opacity="1" d=" M14.970000267028809,-1.8009999990463257 C23.464000701904297,-12.670999526977539 11.053999900817871,-20.905000686645508 2.2690000534057617,-14.234999656677246 C-4.985000133514404,-8.72700023651123 -4.251999855041504,-1.8009999990463257 -4.251999855041504,-1.8009999990463257 C-13.416000366210938,7.670000076293945 -18.378999710083008,15.838000297546387 -17.761999130249023,16.4689998626709 C-15.875,18.39900016784668 3.359999895095825,2.8580000400543213 3.359999895095825,2.8580000400543213 C3.359999895095825,2.8580000400543213 8.593999862670898,6.359000205993652 14.970000267028809,-1.8009999990463257z"/></g><g opacity="1" transform="matrix(1,0,0,1,63.507999420166016,161.7899932861328)"><path fill="url(#__lottie_element_37887)" fill-opacity="1" d=" M-17.36199951171875,-10.095000267028809 C-15.10200023651123,-0.3799999952316284 -5.298999786376953,14.743000030517578 -0.2150000035762787,19.117000579833984 C7.823999881744385,18.900999069213867 9.993000030517578,14.579000473022461 14.501999855041504,7.609000205993652 C25.017000198364258,-8.645000457763672 4.76200008392334,-32.242000579833984 -17.36199951171875,-10.095000267028809z"/></g><g opacity="1" transform="matrix(1,0,0,1,110.97799682617188,172.2530059814453)"><path fill="url(#__lottie_element_37888)" fill-opacity="1" d=" M49.426998138427734,-32.099998474121094 C21.263999938964844,-26.77899932861328 -7.1579999923706055,12.673999786376953 -49.426998138427734,6.664999961853027 C-49.426998138427734,6.664999961853027 -49.426998138427734,6.664999961853027 -49.426998138427734,6.664999961853027 C-48.52199935913086,7.591000080108643 -47.72100067138672,8.258999824523926 -47.09199905395508,8.567000389099121 C-42.512001037597656,10.812000274658203 -31.2189998626709,7.568999767303467 -24.80900001525879,13.338000297546387 C-23.023000717163086,14.944999694824219 -16.47800064086914,22.621999740600586 -13.942000389099121,31.975000381469727 C-15.352999687194824,24.18400001525879 -11.930999755859375,17.91900062561035 -8.109000205993652,15.045000076293945 C5.823999881744385,4.567999839782715 19.687000274658203,-9.965999603271484 49.426998138427734,-32.099998474121094z"/></g><g opacity="0.3" transform="matrix(1,0,0,1,95.1500015258789,107.31600189208984)"><path fill="url(#__lottie_element_37889)" fill-opacity="1" d=" M28.579999923706055,-9.220999717712402 C28.579999923706055,-9.220999717712402 24.384000778198242,-17.083999633789062 24.384000778198242,-17.083999633789062 C23.257999420166016,-17.025999069213867 22.111000061035156,-16.95599937438965 20.917999267578125,-16.860000610351562 C-7.685999870300293,-14.562000274658203 -29.43400001525879,2.072000026702881 -28.25,15.095000267028809 C-28.25,15.095000267028809 -28.37299919128418,15.21399974822998 -28.579999923706055,15.414999961853027 C-28.579999923706055,15.414999961853027 -26.930999755859375,17.083999633789062 -26.930999755859375,17.083999633789062 C-27.81100082397461,10.628000259399414 3.571000099182129,-13.564000129699707 28.579999923706055,-9.220999717712402z"/></g><g opacity="1" transform="matrix(1,0,0,1,103.50199890136719,134.6020050048828)"><path fill="url(#__lottie_element_37890)" fill-opacity="1" d=" M28.160999298095703,-16.259000778198242 C34.37699890136719,-5.492000102996826 26.80900001525879,10.517000198364258 11.255999565124512,19.496000289916992 C-4.296999931335449,28.475000381469727 -21.94499969482422,27.025999069213867 -28.160999298095703,16.259000778198242 C-34.37699890136719,5.492000102996826 -26.80900001525879,-10.517000198364258 -11.255999565124512,-19.496000289916992 C4.296999931335449,-28.475000381469727 21.94499969482422,-27.025999069213867 28.160999298095703,-16.259000778198242z"/></g><g opacity="1" transform="matrix(1,0,0,1,104.3239974975586,138.7760009765625)"><path stroke-linecap="round" stroke-linejoin="round" fill-opacity="0" stroke="rgb(5,5,5)" stroke-opacity="1" stroke-width="6" d=" M57.6879997253418,-27.927000045776367 C49.45399856567383,-42.22200012207031 40.347999572753906,-50.61899948120117 11.744000434875488,-48.31999969482422 C-16.860000610351562,-46.02199935913086 -38.608001708984375,-29.38800048828125 -37.42399978637695,-16.364999771118164 C-37.42399978637695,-16.364999771118164 -56.78300094604492,3.8980000019073486 -57.57600021362305,10.803000450134277 C-58.255001068115234,16.714000701904297 -52.417999267578125,27.349000930786133 -47.83399963378906,33.80400085449219 C-47.606998443603516,34.124000549316406 -36.262001037597656,34.9739990234375 -27.01099967956543,28.972000122070312 C-37.91899871826172,35.63100051879883 -47.92599868774414,33.68899917602539 -47.74599838256836,33.91400146484375 C-45.87099838256836,36.25199890136719 -41.566001892089844,41.49100112915039 -40.4379997253418,42.04399871826172 C-35.858001708984375,44.28900146484375 -26.761999130249023,44.2239990234375 -19.499000549316406,48.909000396728516"/></g><g opacity="0.6" transform="matrix(1,0,0,1,87.33699798583984,190.80599975585938)"><path fill="url(#__lottie_element_37891)" fill-opacity="1" d=" M-29.538999557495117,-16.702999114990234 C-14.746000289916992,-17.16900062561035 8.206000328063965,-33.680999755859375 26.093000411987305,-24.441999435424805 C34.207000732421875,-20.250999450683594 27.868999481201172,7.340000152587891 8.336999893188477,27.246000289916992 C8.336999893188477,27.246000289916992 9.970000267028809,-4.158999919891357 -10.97599983215332,-6.324999809265137 C-25.010000228881836,-7.776000022888184 -29.538999557495117,-16.702999114990234 -29.538999557495117,-16.702999114990234z"/></g><g opacity="0.1" transform="matrix(1,0,0,1,69.33599853515625,171.5449981689453)"><path fill="url(#__lottie_element_37892)" fill-opacity="1" d=" M10.345999717712402,-5.275000095367432 C14.687999725341797,0.3449999988079071 6.693999767303467,5.275000095367432 -5.986000061035156,5.275000095367432 C-5.986000061035156,5.275000095367432 -11.538000106811523,2.558000087738037 -11.538000106811523,2.558000087738037 C-11.538000106811523,2.558000087738037 10.345999717712402,-5.275000095367432 10.345999717712402,-5.275000095367432z"/></g><g opacity="1" transform="matrix(1,0,0,1,104.3239974975586,131.43800354003906)"><path stroke-linecap="round" stroke-linejoin="round" fill-opacity="0" stroke="rgb(30,29,29)" stroke-opacity="1" stroke-width="6" d=" M57.625999450683594,-20.652000427246094 C49.391998291015625,-34.946998596191406 40.347999572753906,-43.279998779296875 11.744000434875488,-40.98099899291992 C-16.860000610351562,-38.68299865722656 -38.608001708984375,-22.049999237060547 -37.42399978637695,-9.027000427246094 C-37.42399978637695,-9.027000427246094 -56.78300094604492,11.234999656677246 -57.57600021362305,18.141000747680664 C-58.19300079345703,23.511999130249023 -52.95500183105469,33.75400161743164 -47.882999420166016,41.0890007019043 C-36.513999938964844,42.709999084472656 -26.964000701904297,36.31100082397461 -26.964000701904297,36.31100082397461"/></g><g opacity="1" transform="matrix(1,0,0,1,49.064998626708984,150.35299682617188)"><path stroke-linecap="round" stroke-linejoin="round" fill-opacity="0" stroke="rgb(169,104,92)" stroke-opacity="1" stroke-width="6" d=" M3.9860000610351562,-5.006999969482422 C3.9860000610351562,-5.006999969482422 -0.9120000004768372,-1.7730000019073486 -2.134000062942505,5.006999969482422 C-2.134000062942505,5.006999969482422 -4.603000164031982,0.800000011920929 -3.8399999141693115,-0.984000027179718 C-3.006999969482422,-2.930000066757202 3.9860000610351562,-5.006999969482422 3.9860000610351562,-5.006999969482422z"/></g><g opacity="1" transform="matrix(1,0,0,1,0,0)"><g opacity="0.4" transform="matrix(1,0,0,1,83.86399841308594,120.56199645996094)"><path fill="rgb(43,39,38)" fill-opacity="1" d=" M-6.888000011444092,3.010999917984009 C-6.888000011444092,3.010999917984009 -7.229000091552734,-5.309000015258789 -0.9750000238418579,-6.215000152587891 C5.866000175476074,-7.205999851226807 8.093999862670898,1.3420000076293945 6.295000076293945,5.048999786376953 C4.495999813079834,8.755999565124512 -6.888000011444092,3.010999917984009 -6.888000011444092,3.010999917984009z"/></g><g opacity="1" transform="matrix(1,0,0,1,83.697998046875,123.76499938964844)"><path fill="rgb(3,7,8)" fill-opacity="1" d=" M6.833000183105469,0.46399998664855957 C6.418000221252441,4.195000171661377 2.5829999446868896,7.427000045776367 -0.9649999737739563,7.580999851226807 C-5.593999862670898,7.781000137329102 -7.427999973297119,4 -6.7220001220703125,-0.19200000166893005 C-5.9029998779296875,-5.058000087738037 -2.434999942779541,-8.079000473022461 1.0889999866485596,-7.5229997634887695 C5.307000160217285,-6.857999801635742 7.1529998779296875,-2.4130001068115234 6.833000183105469,0.46399998664855957z"/></g><g opacity="0.8" transform="matrix(1,0,0,1,83.47699737548828,120.26599884033203)"><path fill="url(#__lottie_element_37893)" fill-opacity="1" d=" M2.4260001182556152,0.8500000238418579 C1.8990000486373901,2.0429999828338623 0.38499999046325684,2.628999948501587 -0.9549999833106995,2.1600000858306885 C-2.2950000762939453,1.690999984741211 -2.953000068664551,0.34299999475479126 -2.4260001182556152,-0.8500000238418579 C-1.8990000486373901,-2.0429999828338623 -0.38499999046325684,-2.628999948501587 0.9549999833106995,-2.1600000858306885 C2.2950000762939453,-1.690999984741211 2.953000068664551,-0.34299999475479126 2.4260001182556152,0.8500000238418579z"/></g><g opacity="0.8" transform="matrix(1,0,0,1,82.68499755859375,127.0739974975586)"><path fill="url(#__lottie_element_37894)" fill-opacity="1" d=" M4.735000133514404,1.5549999475479126 C3.8919999599456787,3.313999891281128 1.0889999866485596,4.045000076293945 -1.5260000228881836,3.186000108718872 C-4.140999794006348,2.3269999027252197 -5.578000068664551,0.20399999618530273 -4.735000133514404,-1.5549999475479126 C-3.8919999599456787,-3.313999891281128 -1.0889999866485596,-4.045000076293945 1.5260000228881836,-3.186000108718872 C4.140999794006348,-2.3269999027252197 5.578000068664551,-0.20399999618530273 4.735000133514404,1.5549999475479126z"/></g></g></g><g style="display: block;" transform="matrix(1,0,0,1,0,0)" opacity="1"><g opacity="1" transform="matrix(1,0,0,1,132.94400024414062,83.6780014038086)"><path fill="url(#__lottie_element_37897)" fill-opacity="1" d=" M-21.624000549316406,11.628000259399414 C-21.624000549316406,-11.642000198364258 -17.91699981689453,-25.371999740600586 -14.152999877929688,-25.542999267578125 C-10.388999938964844,-25.714000701904297 2.3299999237060547,-7.142000198364258 7.804999828338623,1.2419999837875366 C13.279999732971191,9.62600040435791 17.76799964904785,9.854999542236328 21.624000549316406,19.10099983215332 C21.624000549316406,19.10099983215332 18.820999145507812,29.784000396728516 -0.5690000057220459,23.63800048828125 C-0.5690000057220459,23.63800048828125 -21.624000549316406,11.628000259399414 -21.624000549316406,11.628000259399414z"/></g><g opacity="1" transform="matrix(1,0,0,1,125.74500274658203,83.43699645996094)"><path fill="url(#__lottie_element_37898)" fill-opacity="1" d=" M-14.406000137329102,9.197999954223633 C-12.145999908447266,16.312999725341797 8.390999794006348,30.617000579833984 13.491000175476074,23.250999450683594 C17.861000061035156,16.93899917602539 5.626999855041504,-13.434000015258789 -2.9830000400543213,-22.645000457763672 C-3.9260001182556152,-23.586000442504883 -4.7779998779296875,-24.31599998474121 -5.501999855041504,-24.770000457763672 C-6.01200008392334,-25.062000274658203 -6.5,-25.2549991607666 -6.953000068664551,-25.30299949645996 C-10.571000099182129,-25.138999938964844 -14.133999824523926,-12.444999694824219 -14.406000137329102,9.197999954223633z"/></g><g opacity="1" transform="matrix(1,0,0,1,124.44400024414062,86.2020034790039)"><path fill="url(#__lottie_element_37899)" fill-opacity="1" d=" M-5.901000022888184,-16.257999420166016 C-2.247999906539917,-16.981000900268555 9.817000389099121,6.124000072479248 9.260000228881836,15.78499984741211 C9.112000465393066,18.34600067138672 2.2309999465942383,10.10200023651123 -0.8880000114440918,8.704999923706055 C-4.172999858856201,7.234000205993652 -8.458000183105469,9.081000328063965 -8.996000289916992,7.270999908447266 C-9.723999977111816,4.823999881744385 -9.170000076293945,-15.611000061035156 -5.901000022888184,-16.257999420166016z"/></g><g opacity="1" transform="matrix(1,0,0,1,136.67999267578125,80.45600128173828)"><path stroke-linecap="round" stroke-linejoin="round" fill-opacity="0" stroke="rgb(5,5,5)" stroke-opacity="1" stroke-width="6" d=" M-17.88800048828125,-22.320999145507812 C-14.12399959564209,-22.492000579833984 -1.4049999713897705,-3.9200000762939453 4.070000171661377,4.464000225067139 C9.545000076293945,12.847999572753906 14.031999588012695,13.07699966430664 17.88800048828125,22.322999954223633"/></g><g opacity="1" transform="matrix(1,0,0,1,115.05599975585938,76.72000122070312)"><path stroke-linecap="round" stroke-linejoin="round" fill-opacity="0" stroke="rgb(40,40,40)" stroke-opacity="1" stroke-width="6" d=" M-3.7360000610351562,18.586000442504883 C-3.7360000610351562,-4.684000015258789 -0.02800000086426735,-18.415000915527344 3.7360000610351562,-18.586000442504883"/></g></g><g style="display: block;" transform="matrix(1,0,0,1,0,0)" opacity="1"><g opacity="1" transform="matrix(1,0,0,1,431.0840148925781,453.5889892578125)"><path fill="rgb(38,38,38)" fill-opacity="1" d=" M8.116999626159668,-10.564000129699707 C-4.454999923706055,-10.564000129699707 -10.364999771118164,-5.781000137329102 -10.300999641418457,-0.10499999672174454 C-10.237000465393066,5.571000099182129 -6.335999965667725,11.269000053405762 10.300999641418457,10.493000030517578"/><path stroke-linecap="round" stroke-linejoin="round" fill-opacity="0" stroke="rgb(5,5,5)" stroke-opacity="1" stroke-width="6" d=" M8.116999626159668,-10.564000129699707 C-4.454999923706055,-10.564000129699707 -10.364999771118164,-5.781000137329102 -10.300999641418457,-0.10499999672174454 C-10.237000465393066,5.571000099182129 -6.335999965667725,11.269000053405762 10.300999641418457,10.493000030517578"/></g><g opacity="1" transform="matrix(1,0,0,1,407.8299865722656,376.16400146484375)"><path fill="url(#__lottie_element_37873)" fill-opacity="1" d=" M24.979000091552734,-88.21700286865234 C24.979000091552734,-88.21700286865234 24.9950008392334,-72.072998046875 26.847999572753906,-55.926998138427734 C32.516998291015625,-6.5229997634887695 59.750999450683594,-3.634000062942505 63.91400146484375,7.739999771118164 C70.3499984741211,25.322999954223633 61.57099914550781,78.59100341796875 56.45500183105469,83.70700073242188 C49.196998596191406,90.96499633789062 17.570999145507812,89.73400115966797 16.34600067138672,78.0270004272461 C15.13599967956543,66.46600341796875 29.52400016784668,66.58200073242188 37.53900146484375,66.72799682617188 C37.53900146484375,66.72799682617188 44.88999938964844,44 36.18299865722656,26.773000717163086 C12.015999794006348,6.125 -44.81399917602539,1.0140000581741333 -61.97200012207031,-49.685001373291016 C-66.05500030517578,-61.749000549316406 -66.18399810791016,-70.08699798583984 -66.18399810791016,-70.08699798583984"/></g><g opacity="0.4" transform="matrix(1,0,0,1,392.8919982910156,355.4939880371094)"><path fill="url(#__lottie_element_37874)" fill-opacity="1" d=" M-51.12099838256836,-47.44300079345703 C-42.13600158691406,-44.202999114990234 -41.53799819946289,-20.273000717163086 -17.08099937438965,-0.41600000858306885 C10.812000274658203,22.231000900268555 51.12099838256836,30.055999755859375 51.12099838256836,47.44300079345703 C51.12099838256836,47.44300079345703 38.14899826049805,38.04999923706055 8.878000259399414,25.183000564575195 C-51.12099838256836,-1.1929999589920044 -51.12099838256836,-47.44300079345703 -51.12099838256836,-47.44300079345703z"/></g><g opacity="1" transform="matrix(1,0,0,1,443.4129943847656,435.65301513671875)"><path fill="url(#__lottie_element_37875)" fill-opacity="1" d=" M16.243000030517578,-16.19099998474121 C15.442000389099121,-2.0339999198913574 13.866999626159668,16.569000244140625 10.90999984741211,18.861000061035156 C5.261000156402588,23.239999771118164 -22.6299991607666,22.184999465942383 -14.904000282287598,12.861000061035156 C-12.368000030517578,9.800000190734863 0.41100001335144043,10.885000228881836 2.630000114440918,8.46399974822998 C4.017000198364258,6.951000213623047 6.4629998207092285,-2.7039999961853027 6.607999801635742,-16.509000778198242 C6.828000068664551,-23.16699981689453 16.46299934387207,-22.849000930786133 16.243000030517578,-16.19099998474121z"/></g><g opacity="0.8" transform="matrix(1,0,0,1,445.8800048828125,377.20098876953125)"><path fill="url(#__lottie_element_37876)" fill-opacity="1" d=" M15.390000343322754,12.111000061035156 C8.154999732971191,21.326000213623047 -21.524999618530273,-5.10099983215332 -15.25100040435791,-12.890000343322754 C-9.881999969482422,-19.554000854492188 21.226999282836914,4.676000118255615 15.390000343322754,12.111000061035156z"/></g><g opacity="1" transform="matrix(1,0,0,1,407.8299865722656,376.16400146484375)"><path stroke-linecap="round" stroke-linejoin="round" fill-opacity="0" stroke="rgb(5,5,5)" stroke-opacity="1" stroke-width="6" d=" M24.979000091552734,-88.21700286865234 C24.979000091552734,-88.21700286865234 24.9950008392334,-72.072998046875 26.847999572753906,-55.926998138427734 C32.516998291015625,-6.5229997634887695 59.750999450683594,-3.634000062942505 63.91400146484375,7.739999771118164 C70.3499984741211,25.322999954223633 61.57099914550781,78.59100341796875 56.45500183105469,83.70700073242188 C49.196998596191406,90.96499633789062 17.570999145507812,89.73400115966797 16.34600067138672,78.0270004272461 C15.13599967956543,66.46600341796875 29.52400016784668,66.58200073242188 37.53900146484375,66.72799682617188 C37.53900146484375,66.72799682617188 44.88999938964844,44 36.18299865722656,26.773000717163086 C12.015999794006348,6.125 -44.81399917602539,1.0140000581741333 -61.97200012207031,-49.685001373291016 C-66.05500030517578,-61.749000549316406 -66.18399810791016,-70.08699798583984 -66.18399810791016,-70.08699798583984"/></g><g opacity="1" transform="matrix(1,0,0,1,453.4110107421875,373.90899658203125)"><path stroke-linecap="round" stroke-linejoin="round" fill-opacity="0" stroke="rgb(40,39,39)" stroke-opacity="1" stroke-width="6" d=" M-20.60300064086914,-85.96199798583984 C-20.60300064086914,-85.96199798583984 -20.586000442504883,-69.81800079345703 -18.732999801635742,-53.672000885009766 C-13.064000129699707,-4.26800012588501 14.170000076293945,-1.3799999952316284 18.33300018310547,9.994000434875488 C24.768999099731445,27.57699966430664 15.989999771118164,80.84600067138672 10.87399959564209,85.96199798583984"/></g><g opacity="0.7000000000000001" transform="matrix(1,0,0,1,389.8890075683594,290.0580139160156)"><path fill="url(#__lottie_element_37877)" fill-opacity="1" d=" M-27.726999282836914,50.7400016784668 C-55.314998626708984,16.547000885009766 -40.28099822998047,-80.44200134277344 -6.797999858856201,-77.68199920654297 C43.04899978637695,-73.572998046875 3.003000020980835,-9.357000350952148 33.59700012207031,40.31800079345703 C65.26599884033203,91.73799896240234 0.052000001072883606,85.16999816894531 -27.726999282836914,50.7400016784668z"/></g></g><g style="display: block;" transform="matrix(1,0,0,1,0,0)" opacity="1"><g opacity="1" transform="matrix(1,0,0,1,0,0)"><g opacity="1" transform="matrix(1,0,0,1,0,0)"><g opacity="1" transform="matrix(1,0,0,1,128.697998046875,447.6730041503906)"><path fill="rgb(58,57,57)" fill-opacity="1" d=" M3.193000078201294,-11.755999565124512 C-2.013000011444092,-5.566999912261963 -8.496000289916992,-4.1570000648498535 -14.48900032043457,-4.1570000648498535 C-22.150999069213867,-4.1570000648498535 -27.277000427246094,-0.4410000145435333 -27.08099937438965,6.828000068664551 C-26.885000228881836,14.097000122070312 -19.007999420166016,15.651000022888184 -19.007999420166016,15.651000022888184 C-19.007999420166016,15.651000022888184 -16.56999969482422,17.07200050354004 -2.9149999618530273,17.07200050354004 C10.739999771118164,17.07200050354004 15.920999526977539,12.303999900817871 25.868000030517578,-4.933000087738037 C32.42100143432617,-15.722000122070312 10.765000343322754,-22.259000778198242 3.193000078201294,-11.755999565124512z"/></g><g opacity="1" transform="matrix(1,0,0,1,128.08900451660156,450.3299865722656)"><path stroke-linecap="round" stroke-linejoin="round" fill-opacity="0" stroke="rgb(5,5,5)" stroke-opacity="1" stroke-width="6" d=" M3.802000045776367,-14.413999557495117 C-1.4040000438690186,-8.225000381469727 -7.88700008392334,-6.815000057220459 -13.880000114440918,-6.815000057220459 C-21.54199981689453,-6.815000057220459 -26.66699981689453,-3.0989999771118164 -26.47100067138672,4.170000076293945 C-26.274999618530273,11.439000129699707 -18.39900016784668,12.993000030517578 -18.39900016784668,12.993000030517578 C-18.39900016784668,12.993000030517578 -15.961000442504883,14.413999557495117 -2.305999994277954,14.413999557495117 C11.348999977111816,14.413999557495117 16.530000686645508,9.645999908447266 26.476999282836914,-7.591000080108643"/></g><g opacity="0.5" transform="matrix(1,0,0,1,112.20899963378906,457.1520080566406)"><path stroke-linecap="round" stroke-linejoin="round" fill-opacity="0" stroke="rgb(5,5,5)" stroke-opacity="1" stroke-width="6" d=" M2,-6.735000133514404 C-1.625,-4.913000106811523 -3.5439999103546143,0.4909999966621399 -0.4580000042915344,6.735000133514404"/></g></g><g opacity="1" transform="matrix(1,0,0,1,0,0)"><g opacity="1" transform="matrix(1,0,0,1,158.4080047607422,398.33099365234375)"><path fill="rgb(58,57,57)" fill-opacity="1" d=" M-16.8799991607666,-29.35099983215332 C-15.859000205993652,-22.384000778198242 -15.491999626159668,-16.232999801635742 -15.90999984741211,-10.571999549865723 C-17.238000869750977,7.4070000648498535 -21.31100082397461,31.395999908447266 -26.517000198364258,37.584999084472656 C-34.145999908447266,47.24700164794922 -12.496000289916992,56.840999603271484 -3.8420000076293945,44.409000396728516 C9.027000427246094,22.110000610351562 15.272000312805176,-0.6549999713897705 18.21500015258789,-7.423999786376953 C19.964000701904297,-11.446000099182129 25.229000091552734,-23.902999877929688 27.992000579833984,-38.979000091552734 C30.986000061035156,-60.22800064086914 -20.68000030517578,-48.479000091552734 -16.8799991607666,-29.35099983215332z"/></g><g opacity="1" transform="matrix(1,0,0,1,136.90899658203125,436.135009765625)"><path fill="url(#__lottie_element_37866)" fill-opacity="1" d=" M12.279999732971191,-16.084999084472656 C19.863000869750977,-15.564000129699707 16.075000762939453,-1.9989999532699585 6.64900016784668,7.994999885559082 C0.9300000071525574,14.059000015258789 -11.383000373840332,16.825000762939453 -14.732000350952148,15.944000244140625 C-19.400999069213867,14.715999603271484 -13.090999603271484,10.439000129699707 -4.52400016784668,0.9860000014305115 C2.509000062942505,-6.775000095367432 4.7870001792907715,-16.600000381469727 12.279999732971191,-16.084999084472656z"/></g><g opacity="1" transform="matrix(1,0,0,1,170.5290069580078,401.0580139160156)"><path stroke-linecap="round" stroke-linejoin="round" fill-opacity="0" stroke="rgb(5,5,5)" stroke-opacity="1" stroke-width="6" d=" M-19.33799934387207,47.30699920654297 C-6.468999862670898,25.007999420166016 1.5509999990463257,3.131999969482422 6.093999862670898,-10.151000022888184 C9.946999549865723,-21.41699981689453 13.765000343322754,-29.107999801635742 15.963000297546387,-41.68199920654297"/></g><g opacity="1" transform="matrix(1,0,0,1,137.23300170898438,402.3919982910156)"><path stroke-linecap="round" stroke-linejoin="round" fill-opacity="0" stroke="rgb(5,5,5)" stroke-opacity="1" stroke-width="6" d=" M3.861999988555908,-33.52399826049805 C5.046999931335449,-25.917999267578125 5.546999931335449,-19.625999450683594 5.264999866485596,-14.633999824523926 C4.247000217437744,3.365000009536743 -0.3580000102519989,33.483001708984375 -11.092000007629395,38.64899826049805"/></g></g></g><g opacity="1" transform="matrix(1,0,0,1,0,0)"><g opacity="1" transform="matrix(1,0,0,1,155.19900512695312,319.3349914550781)"><path fill="url(#__lottie_element_37867)" fill-opacity="1" d=" M31.20199966430664,40.016998291015625 C31.839000701904297,36.54199981689453 32.34199905395508,32.928001403808594 32.638999938964844,29.246000289916992 C33.481998443603516,18.792999267578125 29.53499984741211,2.944000005722046 28.31599998474121,-13.902999877929688 C27.707000732421875,-22.320999145507812 27.281999588012695,-29.534000396728516 27.281999588012695,-29.534000396728516 C26.608999252319336,-75.30000305175781 -40.9900016784668,-63.334999084472656 -31.91900062561035,-23.996999740600586 C-30.690000534057617,-19.562999725341797 -29.131999969482422,-13.888999938964844 -27.329999923706055,-7.2210001945495605 C-20.73200035095215,17.197999954223633 -15.791000366210938,35.18000030517578 -13.670999526977539,49.64500045776367 C-10.770000457763672,65.75299835205078 27.298999786376953,60.14799880981445 31.20199966430664,40.016998291015625z"/></g><g opacity="0.7000000000000001" transform="matrix(1,0,0,1,158.56700134277344,300.22698974609375)"><path fill="url(#__lottie_element_37868)" fill-opacity="1" d=" M12.793000221252441,83.43900299072266 C24.41900062561035,80.91200256347656 29.270999908447266,57.4109992980957 29.270999908447266,48.354000091552734 C29.270999908447266,27.594999313354492 24.298999786376953,14.583000183105469 24.45199966430664,-1.934999942779541 C24.677000045776367,-26.131000518798828 42.83700180053711,-67.33499908447266 29.288999557495117,-80.14199829101562 C13.317999839782715,-95.23899841308594 -21.658000946044922,-61.16400146484375 -31.172000885009766,-28.597999572753906 C-38.03799819946289,-5.0960001945495605 -32.25299835205078,-1.972000002861023 -26.85300064086914,26.57200050354004 C-21.452999114990234,55.11600112915039 -7.122000217437744,87.76799774169922 12.793000221252441,83.43900299072266z"/></g><g opacity="1" transform="matrix(1,0,0,1,137.7270050048828,349.3739929199219)"><path fill="url(#__lottie_element_37869)" fill-opacity="1" d=" M-10.288000106811523,-41.323001861572266 C-1.7259999513626099,-39.56800079345703 0.9800000190734863,-29.80900001525879 6.061999797821045,-7.151000022888184 C10.085000038146973,10.78600025177002 12.913999557495117,31.090999603271484 6.507999897003174,41.323001861572266 C6.507999897003174,41.323001861572266 -1.0130000114440918,-2.190000057220459 -1.0130000114440918,-2.190000057220459 C-1.0130000114440918,-2.190000057220459 -10.288000106811523,-41.323001861572266 -10.288000106811523,-41.323001861572266z"/></g><g opacity="1" transform="matrix(1,0,0,1,185.73500061035156,332.40399169921875)"><path stroke-linecap="round" stroke-linejoin="round" fill-opacity="0" stroke="rgb(5,5,5)" stroke-opacity="1" stroke-width="6" d=" M-1.1180000305175781,35.472999572753906 C1.0149999856948853,29.472000122070312 1.7790000438690186,20.19300079345703 2.1029999256134033,16.177000045776367 C2.946000099182129,5.723999977111816 -1.0010000467300415,-10.12600040435791 -2.2200000286102295,-26.972999572753906"/></g><g opacity="1" transform="matrix(1,0,0,1,134.4810028076172,340.4909973144531)"><path stroke-linecap="round" stroke-linejoin="round" fill-opacity="0" stroke="rgb(5,5,5)" stroke-opacity="1" stroke-width="6" d=" M-6.61299991607666,-28.37700080871582 C-0.2370000034570694,-4.7779998779296875 6.519000053405762,18.759000778198242 7.73799991607666,35.25199890136719"/></g></g></g></g></svg>