<svg xmlns="http://www.w3.org/2000/svg" xmlns:xlink="http://www.w3.org/1999/xlink" viewBox="0 0 512 512" width="512" height="512" style="width: 100%; height: 100%; transform: translate3d(0,0,0);" preserveAspectRatio="xMidYMid meet"><defs><clipPath id="__lottie_element_1842"><rect width="512" height="512" x="0" y="0"/></clipPath><linearGradient id="__lottie_element_1848" spreadMethod="pad" gradientUnits="userSpaceOnUse" x1="-0.7599999904632568" y1="-197.98300170898438" x2="-0.7239999771118164" y2="211.39999389648438"><stop offset="0%" stop-color="rgb(253,207,24)"/><stop offset="47%" stop-color="rgb(245,171,12)"/><stop offset="93%" stop-color="rgb(237,135,0)"/></linearGradient><radialGradient id="__lottie_element_1849" spreadMethod="pad" gradientUnits="userSpaceOnUse" cx="-6.321000099182129" cy="-179.20199584960938" r="381.95324092036134" fx="-6.321000099182129" fy="-179.20199584960938"><stop offset="7%" stop-color="rgb(254,254,226)"/><stop offset="28%" stop-color="rgb(253,238,140)"/><stop offset="49%" stop-color="rgb(252,222,54)"/><stop offset="82%" stop-color="rgb(245,184,32)"/><stop offset="100%" stop-color="rgb(238,145,10)"/></radialGradient></defs><g clip-path="url(#__lottie_element_1842)"><g style="display: block;" transform="matrix(0.8882999420166016,0,0,0.8882999420166016,56.669918060302734,56.550594329833984)" opacity="1"><g opacity="1" transform="matrix(1,0,0,1,0,0)"><g opacity="1" transform="matrix(1,0,0,1,224.3939971923828,224.39500427246094)"><path fill="url(#__lottie_element_1848)" fill-opacity="1" d=" M219.49400329589844,-0.0010000000474974513 C219.49400329589844,121.2239990234375 121.2229995727539,219.49400329589844 0,219.49400329589844 C-121.22200012207031,219.49400329589844 -219.49400329589844,121.2239990234375 -219.49400329589844,-0.0010000000474974513 C-219.49400329589844,-121.2229995727539 -121.22200012207031,-219.49400329589844 0,-219.49400329589844 C121.2229995727539,-219.49400329589844 219.49400329589844,-121.2229995727539 219.49400329589844,-0.0010000000474974513z"/></g><g opacity="1" transform="matrix(1,0,0,1,224.45899963378906,222.22500610351562)"><path fill="url(#__lottie_element_1849)" fill-opacity="1" d=" M195.64300537109375,2.997999906539917 C193.9510040283203,113.43199920654297 104.98699951171875,201.61300659179688 -3.063999891281128,199.95799255371094 C-111.11399841308594,198.30099487304688 -197.33599853515625,107.43499755859375 -195.6439971923828,-3 C-193.9499969482422,-113.43199920654297 -104.98600006103516,-201.61300659179688 3.065999984741211,-199.95700073242188 C111.11499786376953,-198.30099487304688 197.33599853515625,-107.43499755859375 195.64300537109375,2.997999906539917z"/></g><g opacity="1" transform="matrix(1,0,0,1,224.39500427246094,224.39500427246094)"><path fill="rgb(231,105,0)" fill-opacity="1" d=" M158.49200439453125,-158.4929962158203 C117.94499969482422,-199.0469970703125 61.880001068115234,-224.14500427246094 -0.0010000000474974513,-224.14300537109375 C-61.88100051879883,-224.14500427246094 -117.94599914550781,-199.0469970703125 -158.4929962158203,-158.4929962158203 C-199.0469970703125,-117.94599914550781 -224.14500427246094,-61.88100051879883 -224.14300537109375,-0.0010000000474974513 C-224.14500427246094,61.880001068115234 -199.0469970703125,117.94499969482422 -158.4929962158203,158.49200439453125 C-117.94599914550781,199.04800415039062 -61.88100051879883,224.14500427246094 -0.0010000000474974513,224.14300537109375 C61.880001068115234,224.14500427246094 117.94499969482422,199.04800415039062 158.49200439453125,158.49200439453125 C199.0469970703125,117.94499969482422 224.14500427246094,61.880001068115234 224.14199829101562,-0.0010000000474974513 C224.14500427246094,-61.88100051879883 199.0469970703125,-117.94599914550781 158.49200439453125,-158.4929962158203z M151.91799926757812,151.91900634765625 C113.02400207519531,190.80599975585938 59.34199905395508,214.84300231933594 -0.0010000000474974513,214.8459930419922 C-59.34299850463867,214.84300231933594 -113.0250015258789,190.80599975585938 -151.91900634765625,151.91900634765625 C-190.80599975585938,113.02400207519531 -214.843994140625,59.34299850463867 -214.8459930419922,-0.0010000000474974513 C-214.843994140625,-59.34299850463867 -190.80599975585938,-113.02400207519531 -151.91900634765625,-151.91900634765625 C-113.0250015258789,-190.80499267578125 -59.34299850463867,-214.843994140625 -0.0010000000474974513,-214.8459930419922 C59.34199905395508,-214.843994140625 113.02400207519531,-190.80499267578125 151.91799926757812,-151.91900634765625 C190.80499267578125,-113.02400207519531 214.84300231933594,-59.34299850463867 214.84500122070312,-0.0010000000474974513 C214.84300231933594,59.34299850463867 190.80499267578125,113.02400207519531 151.91799926757812,151.91900634765625z"/></g></g></g><g style="display: block;" transform="matrix(0.8882999420166016,0,0,0.8882999420166016,190.96575927734375,334.56182861328125)" opacity="1"><g opacity="1" transform="matrix(1,0,0,1,0,0)"><g opacity="1" transform="matrix(1,0,0,1,71.37000274658203,35.334999084472656)"><path fill="rgb(254,221,120)" fill-opacity="1" d=" M0,-5.629000186920166 C-42.624000549316406,-5.629000186920166 -65.55699920654297,-29.601999282836914 -65.55699920654297,-29.601999282836914 C-65.55699920654297,-10.47599983215332 -43.358001708984375,29.601999282836914 0,29.601999282836914 C43.358001708984375,29.601999282836914 65.55699920654297,-10.47599983215332 65.55699920654297,-29.601999282836914 C65.55699920654297,-29.601999282836914 42.624000549316406,-5.629000186920166 0,-5.629000186920166z"/></g><g opacity="1" transform="matrix(1,0,0,1,71.37100219726562,18.32699966430664)"><path fill="rgb(234,172,31)" fill-opacity="1" d=" M64.9520034790039,-14.611000061035156 C60.040000915527344,-18.077999114990234 42.42300033569336,1.2549999952316284 -0.0010000000474974513,1.2549999952316284 C-42.42399978637695,1.2549999952316284 -60.03900146484375,-18.077999114990234 -64.95099639892578,-14.611000061035156 C-71.12000274658203,-10.256999969482422 -41.43600082397461,18.07699966430664 -0.0010000000474974513,18.07699966430664 C41.433998107910156,18.07699966430664 71.12100219726562,-10.256999969482422 64.9520034790039,-14.611000061035156z"/></g><g opacity="1" transform="matrix(1,0,0,1,71.37000274658203,32.67499923706055)"><path fill="rgb(151,72,0)" fill-opacity="1" d=" M60.27399826049805,-23.32200050354004 C55.48400115966797,-26.614999771118164 41.36399841308594,-6.678999900817871 0,-6.678999900817871 C-41.36399841308594,-6.678999900817871 -55.48500061035156,-26.614999771118164 -60.27399826049805,-23.32200050354004 C-66.28900146484375,-19.18600082397461 -38.481998443603516,26.614999771118164 0,26.614999771118164 C38.481998443603516,26.614999771118164 66.28900146484375,-19.18600082397461 60.27399826049805,-23.32200050354004z"/></g><g opacity="1" transform="matrix(1,0,0,1,71.37000274658203,20.01099967956543)"><path fill="rgb(99,41,0)" fill-opacity="1" d=" M0,13.951000213623047 C39.70199966430664,13.951000213623047 54.29999923706055,-4.420000076293945 59.64400100708008,-2.9679999351501465 C61.290000915527344,-6.8979997634887695 61.58000183105469,-9.76099967956543 60.27399826049805,-10.657999992370605 C55.48400115966797,-13.951000213623047 41.36399841308594,5.985000133514404 0,5.985000133514404 C-41.36399841308594,5.985000133514404 -55.48500061035156,-13.951000213623047 -60.27399826049805,-10.657999992370605 C-61.58000183105469,-9.76099967956543 -61.290000915527344,-6.8979997634887695 -59.64500045776367,-2.9679999351501465 C-54.29999923706055,-4.420000076293945 -39.702999114990234,13.951000213623047 0,13.951000213623047z"/></g></g></g><g style="display: block;" transform="matrix(0.8882999420166016,0,0,0.8882999420166016,118.61551666259766,229.2440948486328)" opacity="1"><g opacity="1" transform="matrix(1,0,0,1,63.84700012207031,29.965999603271484)"><path fill="rgb(255,223,156)" fill-opacity="1" d=" M-58.611000061035156,-26.652000427246094 C-53.6150016784668,-29.715999603271484 -41.29600143432617,0.4490000009536743 0,0.4490000009536743 C41.29600143432617,0.4490000009536743 53.6150016784668,-29.715999603271484 58.611000061035156,-26.652000427246094 C63.59700012207031,-23.5939998626709 55.667999267578125,29.71500015258789 0,29.71500015258789 C-55.66899871826172,29.71500015258789 -63.59700012207031,-23.5939998626709 -58.611000061035156,-26.652000427246094z"/></g><g opacity="1" transform="matrix(1,0,0,1,63.84700012207031,20.788999557495117)"><path fill="rgb(234,172,31)" fill-opacity="1" d=" M-58.611000061035156,-17.475000381469727 C-53.6150016784668,-20.538999557495117 -41.29600143432617,-4.7270002365112305 0,-4.7270002365112305 C41.29600143432617,-4.7270002365112305 53.6150016784668,-20.538999557495117 58.611000061035156,-17.475000381469727 C63.59700012207031,-14.416999816894531 44.52799987792969,20.538000106811523 0,20.538000106811523 C-44.52799987792969,20.538000106811523 -63.59700012207031,-14.416999816894531 -58.611000061035156,-17.475000381469727z"/></g><g opacity="1" transform="matrix(1,0,0,1,63.84700012207031,28.839000701904297)"><path fill="rgb(151,72,0)" fill-opacity="1" d=" M55.26300048828125,-20.288000106811523 C50.22100067138672,-23.3799991607666 41.67399978637695,-6.156000137329102 0.0010000000474974513,-6.156000137329102 C-41.67300033569336,-6.156000137329102 -50.22100067138672,-23.3799991607666 -55.262001037597656,-20.288000106811523 C-60.29399871826172,-17.20199966430664 -44.933998107910156,23.3799991607666 0.0010000000474974513,23.3799991607666 C44.935001373291016,23.3799991607666 60.29399871826172,-17.20199966430664 55.26300048828125,-20.288000106811523z"/></g><g opacity="1" transform="matrix(1,0,0,1,63.84700012207031,18.009000778198242)"><path fill="rgb(99,41,0)" fill-opacity="1" d=" M0,12.550000190734863 C41.4109992980957,12.550000190734863 50.11000061035156,-4.448999881744385 55.165000915527344,-1.6299999952316284 C56.5,-5.715000152587891 56.4900016784668,-8.704999923706055 55.262001037597656,-9.458000183105469 C50.22100067138672,-12.550000190734863 41.67300033569336,4.675000190734863 0,4.675000190734863 C-41.67300033569336,4.675000190734863 -50.22100067138672,-12.550000190734863 -55.262001037597656,-9.458000183105469 C-56.4900016784668,-8.704999923706055 -56.5,-5.715000152587891 -55.165000915527344,-1.6299999952316284 C-50.11000061035156,-4.448999881744385 -41.4109992980957,12.550000190734863 0,12.550000190734863z"/></g></g><g style="display: block;" transform="matrix(0.8882999420166016,0,0,0.8882999420166016,276.9549865722656,229.2440948486328)" opacity="1"><g opacity="1" transform="matrix(1,0,0,1,63.84700012207031,29.965999603271484)"><path fill="rgb(255,223,156)" fill-opacity="1" d=" M-58.611000061035156,-26.652000427246094 C-53.6150016784668,-29.715999603271484 -41.29600143432617,0.4490000009536743 0,0.4490000009536743 C41.29600143432617,0.4490000009536743 53.6150016784668,-29.715999603271484 58.611000061035156,-26.652000427246094 C63.59700012207031,-23.5939998626709 55.667999267578125,29.71500015258789 0,29.71500015258789 C-55.66899871826172,29.71500015258789 -63.59700012207031,-23.5939998626709 -58.611000061035156,-26.652000427246094z"/></g><g opacity="1" transform="matrix(1,0,0,1,63.84700012207031,20.788999557495117)"><path fill="rgb(234,172,31)" fill-opacity="1" d=" M-58.611000061035156,-17.475000381469727 C-53.6150016784668,-20.538999557495117 -41.29600143432617,-4.7270002365112305 0,-4.7270002365112305 C41.29600143432617,-4.7270002365112305 53.6150016784668,-20.538999557495117 58.611000061035156,-17.475000381469727 C63.59700012207031,-14.416999816894531 44.52799987792969,20.538000106811523 0,20.538000106811523 C-44.52799987792969,20.538000106811523 -63.59700012207031,-14.416999816894531 -58.611000061035156,-17.475000381469727z"/></g><g opacity="1" transform="matrix(1,0,0,1,63.84700012207031,28.839000701904297)"><path fill="rgb(151,72,0)" fill-opacity="1" d=" M55.26300048828125,-20.288000106811523 C50.22100067138672,-23.3799991607666 41.67399978637695,-6.156000137329102 0.0010000000474974513,-6.156000137329102 C-41.67300033569336,-6.156000137329102 -50.22100067138672,-23.3799991607666 -55.262001037597656,-20.288000106811523 C-60.29399871826172,-17.20199966430664 -44.933998107910156,23.3799991607666 0.0010000000474974513,23.3799991607666 C44.935001373291016,23.3799991607666 60.29399871826172,-17.20199966430664 55.26300048828125,-20.288000106811523z"/></g><g opacity="1" transform="matrix(1,0,0,1,63.84700012207031,18.009000778198242)"><path fill="rgb(99,41,0)" fill-opacity="1" d=" M0,12.550000190734863 C41.4109992980957,12.550000190734863 50.11000061035156,-4.448999881744385 55.165000915527344,-1.6299999952316284 C56.5,-5.715000152587891 56.4900016784668,-8.704999923706055 55.262001037597656,-9.458000183105469 C50.22100067138672,-12.550000190734863 41.67300033569336,4.675000190734863 0,4.675000190734863 C-41.67300033569336,4.675000190734863 -50.22100067138672,-12.550000190734863 -55.262001037597656,-9.458000183105469 C-56.4900016784668,-8.704999923706055 -56.5,-5.715000152587891 -55.165000915527344,-1.6299999952316284 C-50.11000061035156,-4.448999881744385 -41.4109992980957,12.550000190734863 0,12.550000190734863z"/></g></g><g style="display: block;" transform="matrix(0.8882999420166016,0,0,0.8882999420166016,108.25525665283203,159.6555633544922)" opacity="1"><g opacity="1" transform="matrix(1,0,0,1,52.316001892089844,35.01499938964844)"><path fill="rgb(255,223,156)" fill-opacity="1" d=" M52.06100082397461,-19.018999099731445 C52.05699920654297,-25.0310001373291 41.53900146484375,-33.70800018310547 19.597000122070312,-30.80500030517578 C-30.631999969482422,-24.160999298095703 -52.066001892089844,23.76799964904785 -45.986000061035156,29.23900032043457 C-41.02000045776367,33.70800018310547 -29.94300079345703,6.205999851226807 20.645000457763672,-7.678999900817871 C36.5989990234375,-12.057999610900879 52.06700134277344,-10.928000450134277 52.06100082397461,-19.018999099731445z"/></g><g opacity="1" transform="matrix(1,0,0,1,50.87200164794922,31.643999099731445)"><path fill="rgb(151,72,0)" fill-opacity="1" d=" M49.11800003051758,-20.371999740600586 C49.11399841308594,-26.1200008392334 38.262001037597656,-31.393999099731445 19.613000869750977,-28.715999603271484 C-22.738000869750977,-22.635000228881836 -49.125,21.93600082397461 -43.92300033569336,26.974000930786133 C-39.35900115966797,31.393999099731445 -28.485000610351562,3.746000051498413 19.388999938964844,-9.529999732971191 C34.48699951171875,-13.717000007629395 49.124000549316406,-12.63599967956543 49.11800003051758,-20.371999740600586z"/></g><g opacity="1" transform="matrix(1,0,0,1,50.869998931884766,29.565000534057617)"><path fill="rgb(99,41,0)" fill-opacity="1" d=" M-43.555999755859375,29.31399917602539 C-38.47800064086914,15.331999778747559 -14.661999702453613,-14.800000190734863 19.615999221801758,-19.722000122070312 C34.38199996948242,-21.841999053955078 44.25199890136719,-18.97599983215332 47.72800064086914,-14.838000297546387 C48.625999450683594,-15.75100040435791 49.12200164794922,-16.87299919128418 49.12099838256836,-18.29199981689453 C49.117000579833984,-24.040000915527344 38.26499938964844,-29.31399917602539 19.615999221801758,-26.636999130249023 C-22.735000610351562,-20.555999755859375 -49.12200164794922,24.014999389648438 -43.91999816894531,29.05299949645996 C-43.80400085449219,29.166000366210938 -43.680999755859375,29.242000579833984 -43.555999755859375,29.31399917602539z"/></g></g><g style="display: block;" transform="matrix(0.8882999420166016,0,0,0.8882999420166016,307.5267333984375,159.6555633544922)" opacity="1"><g opacity="1" transform="matrix(1,0,0,1,52.31700134277344,35.01499938964844)"><path fill="rgb(255,223,156)" fill-opacity="1" d=" M-52.060001373291016,-19.018999099731445 C-52.05500030517578,-25.0310001373291 -41.53900146484375,-33.70800018310547 -19.597000122070312,-30.80500030517578 C30.631999969482422,-24.160999298095703 52.06700134277344,23.76799964904785 45.98699951171875,29.23900032043457 C41.020999908447266,33.70800018310547 29.94300079345703,6.205999851226807 -20.645000457763672,-7.678999900817871 C-36.5989990234375,-12.057999610900879 -52.06700134277344,-10.928000450134277 -52.060001373291016,-19.018999099731445z"/></g><g opacity="1" transform="matrix(1,0,0,1,53.76100158691406,31.643999099731445)"><path fill="rgb(151,72,0)" fill-opacity="1" d=" M-49.117000579833984,-20.371999740600586 C-49.112998962402344,-26.1200008392334 -38.262001037597656,-31.393999099731445 -19.613000869750977,-28.715999603271484 C22.73900032043457,-22.635000228881836 49.125,21.93600082397461 43.92399978637695,26.974000930786133 C39.36000061035156,31.393999099731445 28.485000610351562,3.746000051498413 -19.388999938964844,-9.529999732971191 C-34.48699951171875,-13.717000007629395 -49.124000549316406,-12.63599967956543 -49.117000579833984,-20.371999740600586z"/></g><g opacity="1" transform="matrix(1,0,0,1,53.76300048828125,29.565000534057617)"><path fill="rgb(99,41,0)" fill-opacity="1" d=" M43.55699920654297,29.31399917602539 C38.47999954223633,15.331999778747559 14.663000106811523,-14.800000190734863 -19.614999771118164,-19.722000122070312 C-34.38100051879883,-21.841999053955078 -44.250999450683594,-18.97599983215332 -47.72700119018555,-14.838000297546387 C-48.625,-15.75100040435791 -49.12200164794922,-16.87299919128418 -49.119998931884766,-18.29199981689453 C-49.11600112915039,-24.040000915527344 -38.263999938964844,-29.31399917602539 -19.614999771118164,-26.636999130249023 C22.73699951171875,-20.555999755859375 49.12200164794922,24.014999389648438 43.92100143432617,29.05299949645996 C43.80500030517578,29.166000366210938 43.68199920654297,29.242000579833984 43.55699920654297,29.31399917602539z"/></g></g></g></svg>