<svg xmlns="http://www.w3.org/2000/svg" xmlns:xlink="http://www.w3.org/1999/xlink" viewBox="0 0 512 512" width="512" height="512" style="width: 100%; height: 100%; transform: translate3d(0,0,0);" preserveAspectRatio="xMidYMid meet"><defs><clipPath id="__lottie_element_16832"><rect width="512" height="512" x="0" y="0"/></clipPath><linearGradient id="__lottie_element_16851" spreadMethod="pad" gradientUnits="userSpaceOnUse" x1="-246" y1="1" x2="243" y2="0"><stop offset="0%" stop-color="rgb(0,0,0)"/><stop offset="25%" stop-color="rgb(0,0,0)"/><stop offset="50%" stop-color="rgb(0,0,0)"/><stop offset="75%" stop-color="rgb(0,0,0)"/><stop offset="100%" stop-color="rgb(0,0,0)"/></linearGradient><mask id="__lottie_element_16853"><path fill="url(#__lottie_element_16852)" d=" M-246.5,-145.5 C-246.5,-139 -246.5,144.218994140625 -246.5,146.593994140625 C-244.71200561523438,146.76499938964844 -241.55099487304688,147.5780029296875 -237.75900268554688,148.50999450683594 C-220.5,152.75 -191.07200622558594,159.75999450683594 -178.26499938964844,161.58399963378906 C-147.25,166 -127.13200378417969,165.62600708007812 -103.76799774169922,164.74600219726562 C-50.75,162.75 -4.125,146.125 27.19499969482422,139.3300018310547 C47.95800018310547,134.8249969482422 68.79000091552734,130.64500427246094 83.74700164794922,128.94000244140625 C106.25,126.375 122.875,126.75 143.25,128.35899353027344 C183.33700561523438,131.52499389648438 217.79400634765625,139.2030029296875 241.43800354003906,147.031005859375 C241.43800354003906,147.09300231933594 241.406005859375,147.09300231933594 241.406005859375,147.06199645996094 C241.406005859375,147.06199645996094 241.406005859375,147.06199645996094 241.406005859375,147.06199645996094 C241.56199645996094,120.56199645996094 241.23399353027344,82.29100036621094 241.25,49.90599822998047 C241.26600646972656,17.08300018310547 241.43699645996094,-15.739999771118164 241.5,-48.5629997253418 C241.56199645996094,-80.91699981689453 241.5,-128.75 241.625,-145.625 C151.281005859375,-172.5 103.15699768066406,-165.1009979248047 78.5,-162.81199645996094 C23.042999267578125,-156.04600524902344 -48.707000732421875,-130.79600524902344 -83.375,-129.06199645996094 C-157.875,-120.1240005493164 -212.75,-139.625 -246.5,-145.5z"/></mask><linearGradient id="__lottie_element_16852" spreadMethod="pad" gradientUnits="userSpaceOnUse" x1="-246" y1="1" x2="243" y2="0"><stop stop-color="rgb(255,255,255)" offset="0%" stop-opacity="1"/><stop stop-color="rgb(255,255,255)" offset="17%" stop-opacity="0.5"/><stop stop-color="rgb(255,255,255)" offset="33%" stop-opacity="0"/><stop stop-color="rgb(255,255,255)" offset="50%" stop-opacity="0"/><stop stop-color="rgb(255,255,255)" offset="66%" stop-opacity="0"/><stop stop-color="rgb(255,255,255)" offset="83%" stop-opacity="0.5"/><stop stop-color="rgb(255,255,255)" offset="100%" stop-opacity="1"/></linearGradient></defs><g clip-path="url(#__lottie_element_16832)"><g style="display: block;" transform="matrix(0.800000011920929,0,0,0.800000011920929,257.9656066894531,250.03680419921875)" opacity="1"><g opacity="1" transform="matrix(1,0,0,1,0,0)"><path fill="rgb(242,242,242)" fill-opacity="1" d=" M-246.5,-145.5 C-246.5,-139 -246.5,144.218994140625 -246.5,146.593994140625 C-244.71200561523438,146.76499938964844 -241.55099487304688,147.5780029296875 -237.75900268554688,148.50999450683594 C-220.5,152.75 -191.07200622558594,159.75999450683594 -178.26499938964844,161.58399963378906 C-147.25,166 -85.89399719238281,170.57899475097656 -0.3310000002384186,144.4340057373047 C58.792999267578125,73.7040023803711 57.542999267578125,-108.7959976196289 -1.5,-146.56199645996094 C-20.893999099731445,-142.85800170898438 -41.51900100708008,-134.73300170898438 -83.375,-129.06199645996094 C-157.875,-120.1240005493164 -212.75,-139.625 -246.5,-145.5z"/></g></g><g style="display: block;" transform="matrix(0.800000011920929,0,0,0.800000011920929,257.9656066894531,250.03680419921875)" opacity="1"><g opacity="1" transform="matrix(1,0,0,1,0,0)"><path fill="rgb(215,42,63)" fill-opacity="1" d=" M-0.5260000228881836,144.74600219726562 C9.105999946594238,143.5469970703125 23.792999267578125,139.95399475097656 27.19499969482422,139.3300018310547 C47.95800018310547,134.8249969482422 68.79000091552734,130.64500427246094 83.74700164794922,128.94000244140625 C106.25,126.375 122.875,126.75 143.25,128.35899353027344 C183.33700561523438,131.52499389648438 241.406005859375,147.06199645996094 241.406005859375,147.06199645996094 C241.56199645996094,120.56199645996094 241.23399353027344,82.29100036621094 241.25,49.90599822998047 C241.26600646972656,17.08300018310547 241.43699645996094,-15.739999771118164 241.5,-48.5629997253418 C241.56199645996094,-80.91699981689453 241.5,-128.75 241.625,-145.625 C151.281005859375,-172.5 103.15699768066406,-165.1009979248047 78.5,-162.81199645996094 C23.042999267578125,-156.04600524902344 13.168000221252441,-148.63999938964844 -0.875,-146.875 C-0.7570000290870667,-117.05999755859375 -0.6620000004768372,-71.4489974975586 -0.5960000157356262,-24.621000289916992 C-0.5080000162124634,38.09299850463867 -0.4740000069141388,102.98999786376953 -0.5109999775886536,135.0540008544922 C-0.5149999856948853,138.73500061035156 -0.5199999809265137,141.98300170898438 -0.5260000228881836,144.74600219726562z"/></g></g><g style="display: block;" transform="matrix(0.800000011920929,0,0,0.800000011920929,53.20000457763672,44.60000991821289)" opacity="1"><g opacity="1" transform="matrix(1,0,0,1,59.584999084472656,176.52099609375)"><path fill="rgb(204,204,204)" fill-opacity="1" d=" M45.15999984741211,-6.0320000648498535 C45.15999984741211,-6.0320000648498535 21.28700065612793,-8.84000015258789 21.28700065612793,-8.84000015258789 C19.371999740600586,-13.053000450134277 15.824000358581543,-17.336999893188477 12.35099983215332,-19.371999740600586 C12.35099983215332,-19.371999740600586 11.968000411987305,-43.117000579833984 11.968000411987305,-43.117000579833984 C11.968000411987305,-43.117000579833984 -13.116999626159668,-48.09600067138672 -13.116999626159668,-48.09600067138672 C-13.116999626159668,-48.09600067138672 -12.98900032043457,-24.479000091552734 -12.98900032043457,-24.479000091552734 C-17.457000732421875,-22.691999435424805 -20.079999923706055,-20.672000885009766 -22.117000579833984,-17.20199966430664 C-22.117000579833984,-17.20199966430664 -45.09600067138672,-23.01099967956543 -45.09600067138672,-23.01099967956543 C-45.09600067138672,-23.01099967956543 -45.222999572753906,2.2660000324249268 -45.222999572753906,2.2660000324249268 C-45.222999572753906,2.2660000324249268 -22.69099998474121,8.01099967956543 -22.69099998474121,8.01099967956543 C-20.652999877929688,11.493000030517578 -16.533000946044922,17.07699966430664 -13.053000450134277,19.117000579833984 C-13.053000450134277,19.117000579833984 -13.371999740600586,42.73400115966797 -13.371999740600586,42.73400115966797 C-13.371999740600586,42.73400115966797 12.543000221252441,48.09600067138672 12.543000221252441,48.09600067138672 C12.543000221252441,48.09600067138672 12.479000091552734,24.415000915527344 12.479000091552734,24.415000915527344 C16.56399917602539,22.7549991607666 19.503999710083008,20.238000869750977 21.542999267578125,16.7549991607666 C21.542999267578125,16.7549991607666 45.222999572753906,19.43600082397461 45.222999572753906,19.43600082397461 C45.222999572753906,19.43600082397461 45.15999984741211,-6.0320000648498535 45.15999984741211,-6.0320000648498535z"/><path stroke-linecap="butt" stroke-linejoin="miter" fill-opacity="0" stroke-miterlimit="10" stroke="rgb(207,20,43)" stroke-opacity="1" stroke-width="1.4" d=" M45.15999984741211,-6.0320000648498535 C45.15999984741211,-6.0320000648498535 21.28700065612793,-8.84000015258789 21.28700065612793,-8.84000015258789 C19.371999740600586,-13.053000450134277 15.824000358581543,-17.336999893188477 12.35099983215332,-19.371999740600586 C12.35099983215332,-19.371999740600586 11.968000411987305,-43.117000579833984 11.968000411987305,-43.117000579833984 C11.968000411987305,-43.117000579833984 -13.116999626159668,-48.09600067138672 -13.116999626159668,-48.09600067138672 C-13.116999626159668,-48.09600067138672 -12.98900032043457,-24.479000091552734 -12.98900032043457,-24.479000091552734 C-17.457000732421875,-22.691999435424805 -20.079999923706055,-20.672000885009766 -22.117000579833984,-17.20199966430664 C-22.117000579833984,-17.20199966430664 -45.09600067138672,-23.01099967956543 -45.09600067138672,-23.01099967956543 C-45.09600067138672,-23.01099967956543 -45.222999572753906,2.2660000324249268 -45.222999572753906,2.2660000324249268 C-45.222999572753906,2.2660000324249268 -22.69099998474121,8.01099967956543 -22.69099998474121,8.01099967956543 C-20.652999877929688,11.493000030517578 -16.533000946044922,17.07699966430664 -13.053000450134277,19.117000579833984 C-13.053000450134277,19.117000579833984 -13.371999740600586,42.73400115966797 -13.371999740600586,42.73400115966797 C-13.371999740600586,42.73400115966797 12.543000221252441,48.09600067138672 12.543000221252441,48.09600067138672 C12.543000221252441,48.09600067138672 12.479000091552734,24.415000915527344 12.479000091552734,24.415000915527344 C16.56399917602539,22.7549991607666 19.503999710083008,20.238000869750977 21.542999267578125,16.7549991607666 C21.542999267578125,16.7549991607666 45.222999572753906,19.43600082397461 45.222999572753906,19.43600082397461 C45.222999572753906,19.43600082397461 45.15999984741211,-6.0320000648498535 45.15999984741211,-6.0320000648498535z"/></g><g opacity="1" transform="matrix(1,0,0,1,29.84000015258789,170.29800415039062)"><path stroke-linecap="butt" stroke-linejoin="miter" fill-opacity="0" stroke-miterlimit="10" stroke="rgb(0,0,0)" stroke-opacity="1" stroke-width="0.25" d=" M12.79800033569336,13.468000411987305 C12.79800033569336,13.468000411987305 -12.79800033569336,7.2769999504089355 -12.79800033569336,7.2769999504089355 C-12.79800033569336,7.2769999504089355 -12.734000205993652,-13.468000411987305 -12.734000205993652,-13.468000411987305 C-12.734000205993652,-13.468000411987305 12.79800033569336,-7.4679999351501465 12.79800033569336,-7.4679999351501465"/></g><g opacity="1" transform="matrix(1,0,0,1,59.16999816894531,206.26600646972656)"><path stroke-linecap="butt" stroke-linejoin="miter" fill-opacity="0" stroke-miterlimit="10" stroke="rgb(0,0,0)" stroke-opacity="1" stroke-width="0.25" d=" M10.34000015258789,-11.01099967956543 C10.34000015258789,-11.01099967956543 10.34000015258789,15.286999702453613 10.34000015258789,15.286999702453613 C10.34000015258789,15.286999702453613 -10.34000015258789,10.946999549865723 -10.34000015258789,10.946999549865723 C-10.34000015258789,10.946999549865723 -10.085000038146973,-15.286999702453613 -10.085000038146973,-15.286999702453613"/></g><g opacity="1" transform="matrix(1,0,0,1,59.20199966430664,146.77699279785156)"><path stroke-linecap="butt" stroke-linejoin="miter" fill-opacity="0" stroke-miterlimit="10" stroke="rgb(0,0,0)" stroke-opacity="1" stroke-width="0.25" d=" M-10.309000015258789,10.755000114440918 C-10.309000015258789,10.755000114440918 -10.371999740600586,-14.777000427246094 -10.371999740600586,-14.777000427246094 C-10.371999740600586,-14.777000427246094 10.244999885559082,-10.755000114440918 10.244999885559082,-10.755000114440918 C10.244999885559082,-10.755000114440918 10.371999740600586,14.777000427246094 10.371999740600586,14.777000427246094"/></g><g opacity="1" transform="matrix(1,0,0,1,88.56400299072266,181.6280059814453)"><path stroke-linecap="butt" stroke-linejoin="miter" fill-opacity="0" stroke-miterlimit="10" stroke="rgb(0,0,0)" stroke-opacity="1" stroke-width="0.25" d=" M-13.053000450134277,-12.222999572753906 C-13.053000450134277,-12.222999572753906 13.180999755859375,-8.968000411987305 13.180999755859375,-8.968000411987305 C13.180999755859375,-8.968000411987305 12.862000465393066,12.222999572753906 12.862000465393066,12.222999572753906 C12.862000465393066,12.222999572753906 -13.180999755859375,8.84000015258789 -13.180999755859375,8.84000015258789"/></g><g opacity="1" transform="matrix(1,0,0,1,59.23400115966797,176.57400512695312)"><path stroke-linecap="round" stroke-linejoin="round" fill-opacity="0" stroke="rgb(0,0,0)" stroke-opacity="1" stroke-width="0.7" d=" M13.369000434875488,-2.634000062942505 C16.891000747680664,6.36299991607666 10.894000053405762,14.836000442504883 3.372999906539917,14.836000442504883 C-6.385000228881836,14.836000442504883 -14.404000282287598,5.139999866485596 -14.404000282287598,-2.255000114440918 C-14.404000282287598,-9.649999618530273 -10.01099967956543,-15.178000450134277 -2.625,-14.819999694824219 C5.229000091552734,-14.439000129699707 10.741999626159668,-9.345000267028809 13.369000434875488,-2.634000062942505z"/></g><g opacity="1" transform="matrix(1,0,0,1,59.207000732421875,176.5749969482422)"><path stroke-linecap="round" stroke-linejoin="round" fill-opacity="0" stroke="rgb(0,0,0)" stroke-opacity="1" stroke-width="0.7" d=" M17.96299934387207,-3.5320000648498535 C22.68600082397461,8.531999588012695 14.644000053405762,19.89299964904785 4.559000015258789,19.89299964904785 C-8.526000022888184,19.89299964904785 -19.35099983215332,7.6519999504089355 -19.35099983215332,-2.2639999389648438 C-19.35099983215332,-12.180000305175781 -13.388999938964844,-20.35300064086914 -3.4839999675750732,-19.87299919128418 C7.047999858856201,-19.36199951171875 14.4399995803833,-12.529999732971191 17.96299934387207,-3.5320000648498535z"/></g><g opacity="1" transform="matrix(1,0,0,1,59.667999267578125,175.83599853515625)"><path stroke-linecap="round" stroke-linejoin="round" fill-opacity="0" stroke="rgb(0,0,0)" stroke-opacity="1" stroke-width="0.7" d=" M-5.583000183105469,5.802999973297119 C-5.583000183105469,5.802999973297119 -1.305999994277954,11.59000015258789 -1.305999994277954,11.59000015258789 C-1.305999994277954,11.59000015258789 -2.2850000858306885,12.291999816894531 -2.2850000858306885,12.291999816894531 C-2.2850000858306885,12.291999816894531 -7.646999835968018,5.376999855041504 -7.646999835968018,5.376999855041504 C-7.646999835968018,5.376999855041504 -6.539999961853027,3.2279999256134033 -6.539999961853027,3.2279999256134033 C-6.539999961853027,3.2279999256134033 -7.492000102996826,0.4320000112056732 -8.178999900817871,0.546999990940094 C-13.711000442504883,-1.0269999504089355 -8.411999702453613,3.696000099182129 -11.390999794006348,5.866000175476074 C-12.539999961853027,4.675000190734863 -15.923999786376953,-4.176000118255615 -8.944999694824219,-1.1549999713897705 C-8.01099967956543,-1.9529999494552612 -6.307000160217285,-2.75 -4.328000068664551,-2.7290000915527344 C-4.690000057220459,-3.9630000591278076 -4.796000003814697,-6.0269999504089355 -4.986999988555908,-7.239999771118164 C-5.943999767303467,-7.409999847412109 -8.902000427246094,-3.5799999237060547 -9.817000389099121,-4.0269999504089355 C-11.133999824523926,-4.670000076293945 -6.840000152587891,-8.517999649047852 -3.072000026702881,-10.430999755859375 C-1.7949999570846558,-13.708000183105469 1.246999979019165,-12.04800033569336 1.8209999799728394,-10.090999603271484 C4.203999996185303,-8.175999641418457 6.96999979019165,-7.665999889373779 6.885000228881836,-6.517000198364258 C6.809999942779541,-5.507999897003174 3.9730000495910645,-5.910999774932861 3.4809999465942383,-5.0269999504089355 C5.140999794006348,-3.0269999504089355 5.651000022888184,-1.409999966621399 5.651000022888184,-1.409999966621399 C5.651000022888184,-1.409999966621399 9.416999816894531,-2.8570001125335693 13.22599983215332,2.6540000438690186 C13.22599983215332,2.6540000438690186 12.310999870300293,3.0789999961853027 12.310999870300293,3.0789999961853027 C12.310999870300293,3.0789999961853027 8.267999649047852,-2.00600004196167 6.480999946594238,0.9300000071525574 C6.480999946594238,0.9300000071525574 10.182999610900879,1.8029999732971191 12.843000411987305,6.376999855041504 C12.843000411987305,6.376999855041504 11.437999725341797,6.546999931335449 11.437999725341797,6.546999931335449 C11.437999725341797,6.546999931335449 7.885000228881836,-0.13300000131130219 -2.434000015258789,2.505000114440918 C-2.434000015258789,2.505000114440918 -2.6470000743865967,4.505000114440918 -5.583000183105469,5.802999973297119z"/></g><g opacity="1" transform="matrix(1,0,0,1,58.819000244140625,175.4040069580078)"><path stroke-linecap="round" stroke-linejoin="round" fill-opacity="0" stroke="rgb(0,0,0)" stroke-opacity="1" stroke-width="0.7" d=" M-1.968000054359436,-1.319000005722046 C-1.968000054359436,-1.319000005722046 -0.4359999895095825,-0.7239999771118164 0.8619999885559082,-0.21299999952316284 C0.8619999885559082,-0.21299999952316284 1.968000054359436,1.319000005722046 1.968000054359436,1.319000005722046"/></g><g opacity="1" transform="matrix(1,0,0,1,59.76300048828125,169.4010009765625)"><path stroke-linecap="round" stroke-linejoin="round" fill-opacity="0" stroke="rgb(0,0,0)" stroke-opacity="1" stroke-width="0.7" d=" M-0.03999999910593033,3.365000009536743 C-0.03999999910593033,3.365000009536743 0.2150000035762787,1.1519999504089355 -0.6150000095367432,-0.8690000176429749 C-1.746000051498413,-3.624000072479248 0.8960000276565552,-3.3580000400543213 0.8960000276565552,-3.3580000400543213"/></g><g opacity="1" transform="matrix(1,0,0,1,63.51499938964844,188.2239990234375)"><path stroke-linecap="round" stroke-linejoin="round" fill-opacity="0" stroke="rgb(0,0,0)" stroke-opacity="1" stroke-width="0.7" d=" M-5.315000057220459,-1.0099999904632568 C-1.2109999656677246,-0.15399999916553497 3.2809998989105225,0.7429999709129333 5.315000057220459,1.0099999904632568"/></g><g opacity="1" transform="matrix(1,0,0,1,53.066001892089844,186.1179962158203)"><path stroke-linecap="round" stroke-linejoin="round" fill-opacity="0" stroke="rgb(0,0,0)" stroke-opacity="1" stroke-width="0.7" d=" M-3.2149999141693115,-0.6930000185966492 C-3.2149999141693115,-0.6930000185966492 -0.3499999940395355,-0.061000000685453415 3.2149999141693115,0.6930000185966492"/></g></g><g style="display: block;" transform="matrix(0.800000011920929,0,0,0.800000011920929,257.9656066894531,250.03680419921875)" opacity="0.35000000000000003"><g opacity="1" transform="matrix(1,0,0,1,0,0)"><path fill="url(#__lottie_element_16851)" mask="url(#__lottie_element_16853)" fill-opacity="1" d="M0 0 M-246.5,-145.5 C-246.5,-139 -246.5,144.218994140625 -246.5,146.593994140625 C-244.71200561523438,146.76499938964844 -241.55099487304688,147.5780029296875 -237.75900268554688,148.50999450683594 C-220.5,152.75 -191.07200622558594,159.75999450683594 -178.26499938964844,161.58399963378906 C-147.25,166 -127.13200378417969,165.62600708007812 -103.76799774169922,164.74600219726562 C-50.75,162.75 -4.125,146.125 27.19499969482422,139.3300018310547 C47.95800018310547,134.8249969482422 68.79000091552734,130.64500427246094 83.74700164794922,128.94000244140625 C106.25,126.375 122.875,126.75 143.25,128.35899353027344 C183.33700561523438,131.52499389648438 217.79400634765625,139.2030029296875 241.43800354003906,147.031005859375 C241.43800354003906,147.09300231933594 241.406005859375,147.09300231933594 241.406005859375,147.06199645996094 C241.406005859375,147.06199645996094 241.406005859375,147.06199645996094 241.406005859375,147.06199645996094 C241.56199645996094,120.56199645996094 241.23399353027344,82.29100036621094 241.25,49.90599822998047 C241.26600646972656,17.08300018310547 241.43699645996094,-15.739999771118164 241.5,-48.5629997253418 C241.56199645996094,-80.91699981689453 241.5,-128.75 241.625,-145.625 C151.281005859375,-172.5 103.15699768066406,-165.1009979248047 78.5,-162.81199645996094 C23.042999267578125,-156.04600524902344 -48.707000732421875,-130.79600524902344 -83.375,-129.06199645996094 C-157.875,-120.1240005493164 -212.75,-139.625 -246.5,-145.5z"/></g></g><g style="display: block;" transform="matrix(0.800000011920929,0,0,0.800000011920929,257.9656066894531,250.03680419921875)" opacity="0.15"><g opacity="1" transform="matrix(1,0,0,1,0,0)"><path fill="rgb(255,255,255)" fill-opacity="1" d=" M-246.875,-146 C-246.83700561523438,-139.70399475097656 -246.875,-138 -246.79200744628906,-132.81100463867188 C-237.5,-136.25 -197.25,-114 -124.49600219726562,-114.31099700927734 C-38.992000579833984,-114.6760025024414 39.233001708984375,-153.25 121.70800018310547,-153.39700317382812 C179.75,-153.5 241,-132.25 240.91200256347656,-131.552001953125 C241,-140.5 241.375,-144.625 241.375,-144.625 C241.375,-144.625 179.75,-166.25 122.5,-166 C39.49700164794922,-165.63800048828125 -39.5,-128 -124.25,-126.81199645996094 C-197.0449981689453,-125.79199981689453 -237.75,-149 -246.875,-146z"/></g></g><g style="display: block;" transform="matrix(0.800000011920929,0,0,0.800000011920929,257.9656066894531,250.03680419921875)" opacity="0.15"><g opacity="1" transform="matrix(1,0,0,1,0,0)"><path fill="rgb(0,0,0)" fill-opacity="1" d=" M122.5,112.25 C34,112.25 -36,149.5 -123.5,152 C-140.61700439453125,152.48899841308594 -155.82000732421875,151.3489990234375 -170.41099548339844,149.1280059814453 C-195.23399353027344,145.35000610351562 -218.28900146484375,138.4459991455078 -246,131.125 C-246.25,134.5 -246,141.375 -246,145.125 C-218.5749969482422,153.30599975585938 -195.61700439453125,159.55499267578125 -170.83099365234375,163.0050048828125 C-155.8520050048828,165.08999633789062 -140.20399475097656,166.15199279785156 -122.5,166 C-35,165.25 33.5,126.625 121.75,126.5 C126.26799774169922,126.49400329589844 131.11399841308594,126.59500122070312 136.27699279785156,126.83899688720703 C163.25900268554688,128.11300659179688 198.88099670410156,133.2550048828125 241.375,147 C241.375,147 241.25,134.75 241.5,131.125 C199.093994140625,118.93299865722656 163.16200256347656,113.84500122070312 136.1439971923828,112.58000183105469 C131.30499267578125,112.35399627685547 126.75299835205078,112.25 122.5,112.25z"/></g></g><g style="display: block;" transform="matrix(0.800000011920929,0,0,0.800000011920929,257.9656066894531,250.03680419921875)" opacity="1"><g opacity="1" transform="matrix(1,0,0,1,0,0)"><path stroke-linecap="round" stroke-linejoin="round" fill-opacity="0" stroke="rgb(100,7,19)" stroke-opacity="1" stroke-width="8" d=" M-0.5260000228881836,144.74600219726562 C9.105999946594238,143.5469970703125 23.792999267578125,139.95399475097656 27.19499969482422,139.3300018310547 C47.95800018310547,134.8249969482422 68.79000091552734,130.64500427246094 83.74700164794922,128.94000244140625 C106.25,126.375 122.875,126.75 143.25,128.35899353027344 C183.33700561523438,131.52499389648438 241.406005859375,147.06199645996094 241.406005859375,147.06199645996094 C241.56199645996094,120.56199645996094 241.23399353027344,82.29100036621094 241.25,49.90599822998047 C241.26600646972656,17.08300018310547 241.43699645996094,-15.739999771118164 241.5,-48.5629997253418 C241.56199645996094,-80.91699981689453 241.5,-128.75 241.625,-145.625 C151.281005859375,-172.5 103.15699768066406,-165.1009979248047 78.5,-162.81199645996094 C23.042999267578125,-156.04600524902344 13.168000221252441,-148.63999938964844 -0.875,-146.875"/></g><g opacity="1" transform="matrix(1,0,0,1,0,0)"><path stroke-linecap="butt" stroke-linejoin="round" fill-opacity="0" stroke="rgb(122,122,122)" stroke-opacity="1" stroke-width="8" d=" M-1.5,-146.56199645996094 C-20.893999099731445,-142.85800170898438 -41.51900100708008,-134.73300170898438 -83.375,-129.06199645996094 C-157.875,-120.1240005493164 -212.75,-139.625 -246.5,-145.5 C-246.5,-139 -246.5,144.218994140625 -246.5,146.593994140625 C-244.71200561523438,146.76499938964844 -241.55099487304688,147.5780029296875 -237.75900268554688,148.50999450683594 C-220.5,152.75 -191.07200622558594,159.75999450683594 -178.26499938964844,161.58399963378906 C-147.25,166 -85.89399719238281,170.57899475097656 -0.3310000002384186,144.4340057373047"/></g></g></g></svg>