<svg xmlns="http://www.w3.org/2000/svg" xmlns:xlink="http://www.w3.org/1999/xlink" viewBox="0 0 512 512" width="512" height="512" style="width: 100%; height: 100%; transform: translate3d(0,0,0);" preserveAspectRatio="xMidYMid meet"><defs><clipPath id="__lottie_element_44472"><rect width="512" height="512" x="0" y="0"/></clipPath></defs><g clip-path="url(#__lottie_element_44472)"><g style="display: block;" transform="matrix(0.9100000262260437,0,0,0.9100000262260437,427.5455017089844,158.052001953125)" opacity="1"><g opacity="1" transform="matrix(1,0,0,1,0,0)"><path fill="rgb(169,169,169)" fill-opacity="1" d=" M-20.256000518798828,2.888000011444092 C-20.256000518798828,2.888000011444092 19.094999313354492,15.710000038146973 19.094999313354492,15.710000038146973 C20.305999755859375,16.104999542236328 21.549999237060547,15.20199966430664 21.549999237060547,13.928000450134277 C21.549999237060547,13.928000450134277 21.549999237060547,-13.928000450134277 21.549999237060547,-13.928000450134277 C21.549999237060547,-15.241999626159668 20.233999252319336,-16.148000717163086 19.006999969482422,-15.678999900817871 C19.006999969482422,-15.678999900817871 -20.344999313354492,-0.6460000276565552 -20.344999313354492,-0.6460000276565552 C-21.996000289916992,-0.014999999664723873 -21.93600082397461,2.3399999141693115 -20.256000518798828,2.888000011444092z"/><path stroke-linecap="round" stroke-linejoin="round" fill-opacity="0" stroke="rgb(99,99,98)" stroke-opacity="1" stroke-width="8" d=" M-20.256000518798828,2.888000011444092 C-20.256000518798828,2.888000011444092 19.094999313354492,15.710000038146973 19.094999313354492,15.710000038146973 C20.305999755859375,16.104999542236328 21.549999237060547,15.20199966430664 21.549999237060547,13.928000450134277 C21.549999237060547,13.928000450134277 21.549999237060547,-13.928000450134277 21.549999237060547,-13.928000450134277 C21.549999237060547,-15.241999626159668 20.233999252319336,-16.148000717163086 19.006999969482422,-15.678999900817871 C19.006999969482422,-15.678999900817871 -20.344999313354492,-0.6460000276565552 -20.344999313354492,-0.6460000276565552 C-21.996000289916992,-0.014999999664723873 -21.93600082397461,2.3399999141693115 -20.256000518798828,2.888000011444092z"/></g></g><g style="display: block;" transform="matrix(0.9100000262260437,0,0,0.9100000262260437,417.5218505859375,99.9645004272461)" opacity="1"><g opacity="1" transform="matrix(1,0,0,1,0,0)"><path fill="rgb(169,169,169)" fill-opacity="1" d=" M-24.815000534057617,31.231000900268555 C-24.815000534057617,31.231000900268555 26.85700035095215,-2.2039999961853027 26.85700035095215,-2.2039999961853027 C27.929000854492188,-2.8970000743865967 28.009000778198242,-4.435999870300293 27.016000747680664,-5.236999988555908 C27.016000747680664,-5.236999988555908 -5.066999912261963,-31.12299919128418 -5.066999912261963,-31.12299919128418 C-6.085999965667725,-31.94499969482422 -7.61299991607666,-31.496000289916992 -8.02400016784668,-30.25200080871582 C-8.02400016784668,-30.25200080871582 -27.613000869750977,29.069000244140625 -27.613000869750977,29.069000244140625 C-28.167999267578125,30.749000549316406 -26.301000595092773,32.19200134277344 -24.815000534057617,31.231000900268555z"/><path stroke-linecap="round" stroke-linejoin="round" fill-opacity="0" stroke="rgb(99,99,98)" stroke-opacity="1" stroke-width="8" d=" M-24.815000534057617,31.231000900268555 C-24.815000534057617,31.231000900268555 26.85700035095215,-2.2039999961853027 26.85700035095215,-2.2039999961853027 C27.929000854492188,-2.8970000743865967 28.009000778198242,-4.435999870300293 27.016000747680664,-5.236999988555908 C27.016000747680664,-5.236999988555908 -5.066999912261963,-31.12299919128418 -5.066999912261963,-31.12299919128418 C-6.085999965667725,-31.94499969482422 -7.61299991607666,-31.496000289916992 -8.02400016784668,-30.25200080871582 C-8.02400016784668,-30.25200080871582 -27.613000869750977,29.069000244140625 -27.613000869750977,29.069000244140625 C-28.167999267578125,30.749000549316406 -26.301000595092773,32.19200134277344 -24.815000534057617,31.231000900268555z"/></g></g><g style="display: block;" transform="matrix(0.9100000262260437,0,0,0.9100000262260437,349.9732666015625,93.74518585205078)" opacity="1"><g opacity="1" transform="matrix(1,0,0,1,0,0)"><path fill="rgb(169,169,169)" fill-opacity="1" d=" M10.024999618530273,21.791000366210938 C10.024999618530273,21.791000366210938 14.878999710083008,-21.371999740600586 14.878999710083008,-21.371999740600586 C15.031999588012695,-22.73699951171875 13.71500015258789,-23.79800033569336 12.413999557495117,-23.35700035095215 C12.413999557495117,-23.35700035095215 -13.616999626159668,-14.532999992370605 -13.616999626159668,-14.532999992370605 C-14.758000373840332,-14.145999908447266 -15.243000030517578,-12.798999786376953 -14.611000061035156,-11.77400016784668 C-14.611000061035156,-11.77400016784668 6.566999912261963,22.56599998474121 6.566999912261963,22.56599998474121 C7.501999855041504,24.082000732421875 9.826000213623047,23.56100082397461 10.024999618530273,21.791000366210938z"/><path stroke-linecap="round" stroke-linejoin="round" fill-opacity="0" stroke="rgb(99,99,98)" stroke-opacity="1" stroke-width="8" d=" M10.024999618530273,21.791000366210938 C10.024999618530273,21.791000366210938 14.878999710083008,-21.371999740600586 14.878999710083008,-21.371999740600586 C15.031999588012695,-22.73699951171875 13.71500015258789,-23.79800033569336 12.413999557495117,-23.35700035095215 C12.413999557495117,-23.35700035095215 -13.616999626159668,-14.532999992370605 -13.616999626159668,-14.532999992370605 C-14.758000373840332,-14.145999908447266 -15.243000030517578,-12.798999786376953 -14.611000061035156,-11.77400016784668 C-14.611000061035156,-11.77400016784668 6.566999912261963,22.56599998474121 6.566999912261963,22.56599998474121 C7.501999855041504,24.082000732421875 9.826000213623047,23.56100082397461 10.024999618530273,21.791000366210938z"/></g></g><g style="display: block;" transform="matrix(0.9100000262260437,0,0,0.9100000262260437,161.1242218017578,69.97016906738281)" opacity="1"><g opacity="1" transform="matrix(1,0,0,1,0,0)"><path fill="rgb(169,169,169)" fill-opacity="1" d=" M-12.862000465393066,22.174999237060547 C-12.862000465393066,22.174999237060547 15.67300033569336,-10.185999870300293 15.67300033569336,-10.185999870300293 C16.56100082397461,-11.192999839782715 16.132999420166016,-12.779999732971191 14.859000205993652,-13.204000473022461 C14.859000205993652,-13.204000473022461 -13.675000190734863,-22.71500015258789 -13.675000190734863,-22.71500015258789 C-14.888999938964844,-23.1200008392334 -16.142000198364258,-22.215999603271484 -16.142000198364258,-20.937000274658203 C-16.142000198364258,-20.937000274658203 -16.142000198364258,20.934999465942383 -16.142000198364258,20.934999465942383 C-16.142000198364258,22.66200065612793 -14.003999710083008,23.47100067138672 -12.862000465393066,22.174999237060547z"/><path stroke-linecap="round" stroke-linejoin="round" fill-opacity="0" stroke="rgb(99,99,98)" stroke-opacity="1" stroke-width="8" d=" M-12.862000465393066,22.174999237060547 C-12.862000465393066,22.174999237060547 15.67300033569336,-10.185999870300293 15.67300033569336,-10.185999870300293 C16.56100082397461,-11.192999839782715 16.132999420166016,-12.779999732971191 14.859000205993652,-13.204000473022461 C14.859000205993652,-13.204000473022461 -13.675000190734863,-22.71500015258789 -13.675000190734863,-22.71500015258789 C-14.888999938964844,-23.1200008392334 -16.142000198364258,-22.215999603271484 -16.142000198364258,-20.937000274658203 C-16.142000198364258,-20.937000274658203 -16.142000198364258,20.934999465942383 -16.142000198364258,20.934999465942383 C-16.142000198364258,22.66200065612793 -14.003999710083008,23.47100067138672 -12.862000465393066,22.174999237060547z"/></g></g><g style="display: block;" transform="matrix(0.9100000262260437,0,0,0.9100000262260437,93.95545959472656,69.0669174194336)" opacity="1"><g opacity="1" transform="matrix(1,0,0,1,0,0)"><path fill="rgb(169,169,169)" fill-opacity="1" d=" M26.711000442504883,28.56800079345703 C26.711000442504883,28.56800079345703 9.244999885559082,-29.650999069213867 9.244999885559082,-29.650999069213867 C8.866000175476074,-30.916000366210938 7.331999778747559,-31.402999877929688 6.293000221252441,-30.58799934387207 C6.293000221252441,-30.58799934387207 -26.07699966430664,-5.203999996185303 -26.07699966430664,-5.203999996185303 C-27.084999084472656,-4.414000034332275 -27.020000457763672,-2.868000030517578 -25.951000213623047,-2.1640000343322754 C-25.951000213623047,-2.1640000343322754 23.884000778198242,30.672000885009766 23.884000778198242,30.672000885009766 C25.34600067138672,31.63599967956543 27.214000701904297,30.246000289916992 26.711000442504883,28.56800079345703z"/><path stroke-linecap="round" stroke-linejoin="round" fill-opacity="0" stroke="rgb(99,99,98)" stroke-opacity="1" stroke-width="8" d=" M26.711000442504883,28.56800079345703 C26.711000442504883,28.56800079345703 9.244999885559082,-29.650999069213867 9.244999885559082,-29.650999069213867 C8.866000175476074,-30.916000366210938 7.331999778747559,-31.402999877929688 6.293000221252441,-30.58799934387207 C6.293000221252441,-30.58799934387207 -26.07699966430664,-5.203999996185303 -26.07699966430664,-5.203999996185303 C-27.084999084472656,-4.414000034332275 -27.020000457763672,-2.868000030517578 -25.951000213623047,-2.1640000343322754 C-25.951000213623047,-2.1640000343322754 23.884000778198242,30.672000885009766 23.884000778198242,30.672000885009766 C25.34600067138672,31.63599967956543 27.214000701904297,30.246000289916992 26.711000442504883,28.56800079345703z"/></g></g><g style="display: block;" transform="matrix(0.9100000262260437,0,0,0.9100000262260437,64.13285827636719,102.76162719726562)" opacity="1"><g opacity="1" transform="matrix(1,0,0,1,0,0)"><path fill="rgb(169,169,169)" fill-opacity="1" d=" M20.875999450683594,15.607000350952148 C20.875999450683594,15.607000350952148 -20.878000259399414,15.607000350952148 -20.878000259399414,15.607000350952148 C-22.167999267578125,15.607000350952148 -23.072999954223633,14.335000038146973 -22.64900016784668,13.116999626159668 C-22.64900016784668,13.116999626159668 -13.098999977111816,-14.347999572753906 -13.098999977111816,-14.347999572753906 C-12.666000366210938,-15.593999862670898 -11.116000175476074,-16.013999938964844 -10.112000465393066,-15.157999992370605 C-10.112000465393066,-15.157999992370605 22.091999053955078,12.307000160217285 22.091999053955078,12.307000160217285 C23.417999267578125,13.437999725341797 22.618999481201172,15.607000350952148 20.875999450683594,15.607000350952148z"/><path stroke-linecap="round" stroke-linejoin="round" fill-opacity="0" stroke="rgb(99,99,98)" stroke-opacity="1" stroke-width="8" d=" M20.875999450683594,15.607000350952148 C20.875999450683594,15.607000350952148 -20.878000259399414,15.607000350952148 -20.878000259399414,15.607000350952148 C-22.167999267578125,15.607000350952148 -23.072999954223633,14.335000038146973 -22.64900016784668,13.116999626159668 C-22.64900016784668,13.116999626159668 -13.098999977111816,-14.347999572753906 -13.098999977111816,-14.347999572753906 C-12.666000366210938,-15.593999862670898 -11.116000175476074,-16.013999938964844 -10.112000465393066,-15.157999992370605 C-10.112000465393066,-15.157999992370605 22.091999053955078,12.307000160217285 22.091999053955078,12.307000160217285 C23.417999267578125,13.437999725341797 22.618999481201172,15.607000350952148 20.875999450683594,15.607000350952148z"/></g></g><g style="display: block;" transform="matrix(0.9100000262260437,0,0,0.9100000262260437,249,252)" opacity="1"><g opacity="1" transform="matrix(1,0,0,1,0,0)"><path fill="rgb(252,206,44)" fill-opacity="1" d=" M-5.75,150.5 C17,162.75 53.55799865722656,211.36099243164062 60.25,218.25 C68.26100158691406,226.4969940185547 109.3239974975586,223.67799377441406 135.08200073242188,192.75999450683594 C160.5,162.25 167.75,126.25 161.25,119.25 C153.4080047607422,110.80500030517578 123.75,83.25 111,69"/><path fill="rgb(240,146,1)" fill-opacity="0.7000000000000001" d=" M-5.75,150.5 C17,162.75 53.55799865722656,211.36099243164062 60.25,218.25 C68.26100158691406,226.4969940185547 109.3239974975586,223.67799377441406 135.08200073242188,192.75999450683594 C160.5,162.25 167.75,126.25 161.25,119.25 C153.4080047607422,110.80500030517578 123.75,83.25 111,69"/><path stroke-linecap="round" stroke-linejoin="round" fill-opacity="0" stroke="rgb(225,124,0)" stroke-opacity="1" stroke-width="8" d=" M-5.75,150.5 C17,162.75 53.55799865722656,211.36099243164062 60.25,218.25 C68.26100158691406,226.4969940185547 109.3239974975586,223.67799377441406 135.08200073242188,192.75999450683594 C160.5,162.25 167.75,126.25 161.25,119.25 C153.4080047607422,110.80500030517578 123.75,83.25 111,69"/></g></g><g style="display: block;" transform="matrix(0.9100000262260437,0,0,0.9100000262260437,248.97816467285156,253.85366821289062)" opacity="1"><g opacity="1" transform="matrix(1,0,0,1,0,0)"><path fill="rgb(252,206,44)" fill-opacity="1" d=" M-5.5,-41 C-18.5,-40.5 -136.5,28.5 -115.25,94 C-73.5,132.75 -36.75,181.75 37.75,171 C96.17900085449219,162.56900024414062 130,99.5 128,84 C126,68.5 110,-7.5 85,-17.5 C60,-27.5 45.5,-14 39,-16 C32.5,-18 7.5,-41.5 -5.5,-41z"/><path fill="rgb(240,146,1)" fill-opacity="0.7000000000000001" d=" M-5.5,-41 C-18.5,-40.5 -136.5,28.5 -115.25,94 C-73.5,132.75 -36.75,181.75 37.75,171 C96.17900085449219,162.56900024414062 130,99.5 128,84 C126,68.5 110,-7.5 85,-17.5 C60,-27.5 45.5,-14 39,-16 C32.5,-18 7.5,-41.5 -5.5,-41z"/></g><g opacity="0.1" transform="matrix(1,0,0,1,0,0)"><path fill="rgb(252,206,44)" fill-opacity="1" d=" M-6.433000087738037,75.56600189208984 C-35.69900131225586,67.49500274658203 -52.22600173950195,86.90899658203125 -36.930999755859375,98.50299835205078 C-20.88599967956543,110.66500091552734 -6.97599983215332,113.96299743652344 17.545000076293945,111.86299896240234 C51.62200164794922,108.94499969482422 13.82800006866455,81.15299987792969 -6.433000087738037,75.56600189208984z"/></g><g opacity="0.3" transform="matrix(1,0,0,1,0,0)"><path fill="rgb(252,206,44)" fill-opacity="1" d=" M-6.433000087738037,75.56600189208984 C-35.69900131225586,67.49500274658203 -52.22600173950195,86.90899658203125 -36.930999755859375,98.50299835205078 C-20.88599967956543,110.66500091552734 -6.97599983215332,113.96299743652344 17.545000076293945,111.86299896240234 C51.62200164794922,108.94499969482422 13.82800006866455,81.15299987792969 -6.433000087738037,75.56600189208984z"/></g><g opacity="0.5" transform="matrix(1,0,0,1,0,0)"><path fill="rgb(252,206,44)" fill-opacity="1" d=" M-6.433000087738037,75.56600189208984 C-35.69900131225586,67.49500274658203 -52.22600173950195,86.90899658203125 -36.930999755859375,98.50299835205078 C-20.88599967956543,110.66500091552734 -6.97599983215332,113.96299743652344 17.545000076293945,111.86299896240234 C51.62200164794922,108.94499969482422 13.82800006866455,81.15299987792969 -6.433000087738037,75.56600189208984z"/></g><g opacity="1" transform="matrix(1,0,0,1,0,0)"><path stroke-linecap="round" stroke-linejoin="miter" fill-opacity="0" stroke-miterlimit="4" stroke="rgb(225,124,0)" stroke-opacity="1" stroke-width="8" d=" M-115.25,94 C-73.5,132.75 -36.75,181.75 37.75,171"/></g></g><g style="display: block;" transform="matrix(0.9100000262260437,0,0,0.9100000262260437,324.5081787109375,150.56866455078125)" opacity="1"><g opacity="1" transform="matrix(1,0,0,1,0,0)"><path fill="rgb(252,206,44)" fill-opacity="1" d=" M-116.5,93.25 C-131.75,78 -176.61700439453125,37.07099914550781 -193.5,9.25 C-211.25,-20 -186.16200256347656,-33.88999938964844 -168.75,-21.75 C-141.5,-2.75 -44.25,98.5 -44.25,98.5"/><path fill="rgb(240,146,1)" fill-opacity="0.7000000000000001" d=" M-116.5,93.25 C-131.75,78 -176.61700439453125,37.07099914550781 -193.5,9.25 C-211.25,-20 -186.16200256347656,-33.88999938964844 -168.75,-21.75 C-141.5,-2.75 -44.25,98.5 -44.25,98.5"/></g><g opacity="0.3" transform="matrix(1,0,0,1,0,0)"><path fill="rgb(252,206,44)" fill-opacity="1" d=" M-167.47300720214844,-20.829999923706055 C-176.1320037841797,-28.73900032043457 -198.24400329589844,-23.139999389648438 -183.44200134277344,-1.6339999437332153 C-168.92100524902344,19.46299934387207 -130.7790069580078,69.43000030517578 -114.49199676513672,53.854000091552734 C-102.72799682617188,42.60300064086914 -138.60000610351562,5.540999889373779 -167.47300720214844,-20.829999923706055z"/></g><g opacity="0.5" transform="matrix(1,0,0,1,0,0)"><path fill="rgb(252,206,44)" fill-opacity="1" d=" M-166.0989990234375,-18.906999588012695 C-174.75799560546875,-26.81599998474121 -193.2989959716797,-23.139999389648438 -178.4969940185547,-1.6339999437332153 C-163.9759979248047,19.46299934387207 -132.4759979248047,56.9630012512207 -121.36000061035156,48.084999084472656 C-108.64099884033203,37.92599868774414 -137.2259979248047,7.464000225067139 -166.0989990234375,-18.906999588012695z"/></g><g opacity="1" transform="matrix(1,0,0,1,17,15)"><path fill="rgb(255,215,93)" fill-opacity="1" d=" M-213.8509979248047,-19.53700065612793 C-207.6009979248047,-37.7869987487793 -183.4759979248047,-29.03700065612793 -167.8509979248047,-20.53700065612793 C-198.9759979248047,-59.6619987487793 -219.2259979248047,-33.1619987487793 -213.8509979248047,-19.53700065612793z"/></g><g opacity="1" transform="matrix(1,0,0,1,0,0)"><path stroke-linecap="round" stroke-linejoin="round" fill-opacity="0" stroke="rgb(225,124,0)" stroke-opacity="1" stroke-width="8" d=" M-116.5,93.25 C-131.75,78 -176.61700439453125,37.07099914550781 -193.5,9.25 C-211.25,-20 -186.16200256347656,-33.88999938964844 -168.75,-21.75 C-141.5,-2.75 -44.25,98.5 -44.25,98.5"/></g></g><g style="display: block;" transform="matrix(0.9100000262260437,0,0,0.9100000262260437,298.57318115234375,186.51365661621094)" opacity="1"><g opacity="1" transform="matrix(1,0,0,1,0,0)"><path fill="rgb(252,206,44)" fill-opacity="1" d=" M-116.5,93.25 C-131.75,78 -203.5,12 -218.5,-16.25 C-232.093994140625,-41.85300064086914 -209.25,-60.25 -184.25,-40.75 C-163.49099731445312,-24.558000564575195 -87.75,54 -87.75,54"/><path fill="rgb(240,146,1)" fill-opacity="0.7000000000000001" d=" M-116.5,93.25 C-131.75,78 -203.5,12 -218.5,-16.25 C-232.093994140625,-41.85300064086914 -209.25,-60.25 -184.25,-40.75 C-163.49099731445312,-24.558000564575195 -87.75,54 -87.75,54"/></g><g opacity="0.3" transform="matrix(1,0,0,1,0,0)"><path fill="rgb(252,206,44)" fill-opacity="1" d=" M-152.2969970703125,-8.402000427246094 C-161.41400146484375,-15.779000282287598 -173.43499755859375,8.522000312805176 -178.16400146484375,11.369000434875488 C-182.89300537109375,14.215999603271484 -121.26200103759766,73.63700103759766 -101.29499816894531,83.23400115966797 C-81.3280029296875,92.83100128173828 -70.80599975585938,60.33000183105469 -75.01499938964844,62.459999084472656 C-84.15799713134766,67.08699798583984 -144.4239959716797,-2.0309998989105225 -152.2969970703125,-8.402000427246094z"/></g><g opacity="0.5" transform="matrix(1,0,0,1,0,0)"><path fill="rgb(252,206,44)" fill-opacity="1" d=" M-150.0989990234375,-2.9070000648498535 C-159.21600341796875,-10.284000396728516 -166.01800537109375,11.269000053405762 -170.7469940185547,14.116000175476074 C-175.4759979248047,16.96299934387207 -122.91000366210938,66.76899719238281 -102.94300079345703,76.36599731445312 C-82.97599792480469,85.96299743652344 -77.1240005493164,58.95600128173828 -81.33300018310547,61.08599853515625 C-90.47599792480469,65.71299743652344 -142.2259979248047,3.4639999866485596 -150.0989990234375,-2.9070000648498535z"/></g><g opacity="1" transform="matrix(1,0,0,1,-6.5,-6.5)"><path fill="rgb(255,215,93)" fill-opacity="1" d=" M-213.8509979248047,-19.53700065612793 C-207.6009979248047,-37.7869987487793 -183.4759979248047,-29.03700065612793 -167.8509979248047,-20.53700065612793 C-198.9759979248047,-59.6619987487793 -219.2259979248047,-33.1619987487793 -213.8509979248047,-19.53700065612793z"/></g><g opacity="1" transform="matrix(1,0,0,1,0,0)"><path stroke-linecap="round" stroke-linejoin="round" fill-opacity="0" stroke="rgb(225,124,0)" stroke-opacity="1" stroke-width="8" d=" M-116.5,93.25 C-131.75,78 -203.5,12 -218.5,-16.25 C-232.093994140625,-41.85300064086914 -209.25,-60.25 -184.25,-40.75 C-163.49099731445312,-24.558000564575195 -87.75,54 -87.75,54"/></g></g><g style="display: block;" transform="matrix(0.9100000262260437,0,0,0.9100000262260437,272.6381530761719,219.72866821289062)" opacity="1"><g opacity="1" transform="matrix(1,0,0,1,0,0)"><path fill="rgb(252,206,44)" fill-opacity="1" d=" M-116.5,93.25 C-131.75,78 -192.5,23.5 -208,-6.75 C-220.3419952392578,-30.836999893188477 -200.5,-53 -173,-27.5 C-155.95799255371094,-11.697999954223633 -87.75,57 -87.75,57"/><path fill="rgb(240,146,1)" fill-opacity="0.7000000000000001" d=" M-116.5,93.25 C-131.75,78 -192.5,23.5 -208,-6.75 C-220.3419952392578,-30.836999893188477 -200.5,-53 -173,-27.5 C-155.95799255371094,-11.697999954223633 -87.75,57 -87.75,57"/></g><g opacity="0.3" transform="matrix(1,0,0,1,0,0)"><path fill="rgb(252,206,44)" fill-opacity="1" d=" M-149.07200622558594,0.11999999731779099 C-160.31700134277344,-10.96500015258789 -170.20700073242188,11.286999702453613 -152.89199829101562,32.61600112915039 C-143.37100219726562,44.34400177001953 -104.63999938964844,77.14700317382812 -92.81999969482422,88.13500213623047 C-77.07499694824219,102.77100372314453 -61.965999603271484,82.16600036621094 -83.83399963378906,61.83599853515625 C-97.41300201416016,49.21200180053711 -141.86000061035156,7.230000019073486 -149.07200622558594,0.11999999731779099z"/></g><g opacity="0.5" transform="matrix(1,0,0,1,0,0)"><path fill="rgb(252,206,44)" fill-opacity="1" d=" M-146.5989990234375,2.5929999351501465 C-155.71600341796875,-4.783999919891357 -160.4759979248047,17.21299934387207 -148.4969940185547,32.61600112915039 C-139.22300720214844,44.54100036621094 -105.91000366210938,71.26899719238281 -94.19300079345703,82.36599731445312 C-82.47599792480469,93.46299743652344 -68.74800109863281,73.5530014038086 -83.83399963378906,61.83599853515625 C-98.47699737548828,50.4630012512207 -138.7259979248047,8.96399974822998 -146.5989990234375,2.5929999351501465z"/></g><g opacity="1" transform="matrix(1,0,0,1,0,0)"><path fill="rgb(255,215,93)" fill-opacity="1" d=" M-207.9759979248047,-13.661999702453613 C-203.4759979248047,-27.41200065612793 -186.9759979248047,-30.03700065612793 -171.3509979248047,-21.53700065612793 C-204.9759979248047,-66.53700256347656 -213.3509979248047,-27.28700065612793 -207.9759979248047,-13.661999702453613z"/></g><g opacity="1" transform="matrix(1,0,0,1,0,0)"><path stroke-linecap="round" stroke-linejoin="round" fill-opacity="0" stroke="rgb(225,124,0)" stroke-opacity="1" stroke-width="8" d=" M-116.5,93.25 C-131.75,78 -192.5,23.5 -208,-6.75 C-220.3419952392578,-30.836999893188477 -200.5,-53 -173,-27.5 C-155.95799255371094,-11.697999954223633 -87.75,57 -87.75,57"/></g></g><g style="display: block;" transform="matrix(0.9100000262260437,0,0,0.9100000262260437,248.97816467285156,253.85366821289062)" opacity="1"><g opacity="1" transform="matrix(1,0,0,1,0,0)"><path fill="rgb(252,206,44)" fill-opacity="1" d=" M-116.5,93.25 C-131.75,78 -165.1540069580078,45.441001892089844 -178.5,24 C-193.75,-0.5 -173.25,-14.25 -156.5,-3.5 C-141.09100341796875,6.389999866485596 -88.5,58 -88.5,58"/><path fill="rgb(240,146,1)" fill-opacity="0.7000000000000001" d=" M-116.5,93.25 C-131.75,78 -165.1540069580078,45.441001892089844 -178.5,24 C-193.75,-0.5 -173.25,-14.25 -156.5,-3.5 C-141.09100341796875,6.389999866485596 -88.5,58 -88.5,58"/></g><g opacity="0.3" transform="matrix(1,0,0,1,0,0)"><path fill="rgb(252,206,44)" fill-opacity="1" d=" M-140.4340057373047,11.831999778747559 C-149.55099487304688,4.454999923706055 -148.177001953125,21.333999633789062 -142.98300170898438,28.940000534057617 C-136.65199279785156,38.209999084472656 -120.44100189208984,57.691001892089844 -107.15799713134766,70.59400177001953 C-96.27899932861328,81.16200256347656 -98.072998046875,55.2760009765625 -103.36399841308594,48.60599899291992 C-110.00700378417969,40.233001708984375 -132.56100463867188,18.202999114990234 -140.4340057373047,11.831999778747559z"/></g><g opacity="0.5" transform="matrix(1,0,0,1,0,0)"><path fill="rgb(252,206,44)" fill-opacity="1" d=" M-138.0989990234375,13.343000411987305 C-147.21600341796875,5.966000080108643 -147.2259979248047,20.71299934387207 -141.7469940185547,28.115999221801758 C-135.34100341796875,36.770999908447266 -122.22599792480469,48.2130012512207 -108.94300079345703,61.11600112915039 C-98.06400299072266,71.68399810791016 -103.29199981689453,49.50600051879883 -108.58300018310547,42.83599853515625 C-115.22599792480469,34.4630012512207 -130.2259979248047,19.714000701904297 -138.0989990234375,13.343000411987305z"/></g><g opacity="1" transform="matrix(1,0,0,1,0,0)"><path fill="rgb(255,215,93)" fill-opacity="1" d=" M-180.4759979248047,16.58799934387207 C-175.4759979248047,0.7129999995231628 -159.4759979248047,-1.7869999408721924 -137.4759979248047,14.963000297546387 C-169.2259979248047,-21.53700065612793 -186.8509979248047,-0.5370000004768372 -180.4759979248047,16.58799934387207z"/></g><g opacity="1" transform="matrix(1,0,0,1,0,0)"><path stroke-linecap="round" stroke-linejoin="round" fill-opacity="0" stroke="rgb(225,124,0)" stroke-opacity="1" stroke-width="8" d=" M-116.5,93.25 C-131.75,78 -165.1540069580078,45.441001892089844 -178.5,24 C-193.75,-0.5 -173.25,-14.25 -156.5,-3.5 C-141.09100341796875,6.389999866485596 -88.5,58 -88.5,58"/></g></g><g style="display: block;" transform="matrix(0.9100000262260437,0,0,0.9100000262260437,248.97816467285156,253.85366821289062)" opacity="1"><g opacity="1" transform="matrix(1,0,0,1,0,0)"><path fill="rgb(252,206,44)" fill-opacity="1" d=" M37.5,-15.75 C32.94599914550781,-21.88800048828125 13.25,-37.875 14.413999557495117,-65.51100158691406 C15.145999908447266,-82.88600158691406 26.25,-89.875 33.12699890136719,-89.41200256347656 C41.98500061035156,-88.81600189208984 48.15700149536133,-76.89900207519531 56.125,-66.375 C79.5,-35.5 99.15599822998047,-31.10700035095215 112,-4.25 C120.25,13 136.5,72.75 123.5,104"/><path fill="rgb(240,146,1)" fill-opacity="0.5" d=" M37.5,-15.75 C32.94599914550781,-21.88800048828125 13.25,-37.875 14.413999557495117,-65.51100158691406 C15.145999908447266,-82.88600158691406 26.25,-89.875 33.12699890136719,-89.41200256347656 C41.98500061035156,-88.81600189208984 48.15700149536133,-76.89900207519531 56.125,-66.375 C79.5,-35.5 99.15599822998047,-31.10700035095215 112,-4.25 C120.25,13 136.5,72.75 123.5,104"/><path stroke-linecap="round" stroke-linejoin="miter" fill-opacity="0" stroke-miterlimit="4" stroke="rgb(225,124,0)" stroke-opacity="1" stroke-width="8" d=" M37.5,-15.75 C32.94599914550781,-21.88800048828125 13.25,-37.875 14.413999557495117,-65.51100158691406 C15.145999908447266,-82.88600158691406 26.25,-89.875 33.12699890136719,-89.41200256347656 C41.98500061035156,-88.81600189208984 48.15700149536133,-76.89900207519531 56.125,-66.375 C79.5,-35.5 99.15599822998047,-31.10700035095215 112,-4.25 C120.25,13 136.5,72.75 123.5,104"/></g></g><g style="display: block;" transform="matrix(0.9100000262260437,0,0,0.9100000262260437,288.5849914550781,262.010009765625)" opacity="1"><g opacity="1" transform="matrix(1,0,0,1,0,0)"><path fill="rgb(252,206,44)" fill-opacity="1" d=" M51.25,-10.5 C46.69599914550781,-16.63800048828125 18.902000427246094,-50.22200012207031 24.966999053955078,-82.80400085449219 C29.75,-108.5 45.178001403808594,-113.55400085449219 51.59700012207031,-111.04499816894531 C58.75,-108.25 62.90800094604492,-94.97200012207031 67.26599884033203,-82.51200103759766 C81,-43.25 100.6719970703125,-34.24300003051758 114.25,-7.75 C124.5,12.25 127,65.5 124.5,101"/></g></g><g style="display: block;" transform="matrix(0.9100000262260437,0,0,0.9100000262260437,288.5849914550781,262.010009765625)" opacity="1"><g opacity="1" transform="matrix(1,0,0,1,0,0)"><path fill="rgb(252,206,44)" fill-opacity="1" d=" M-116.5,94.75 C-131.75,79.5 -168.1540069580078,43.191001892089844 -181.5,21.75 C-196.75,-2.75 -177,-18.5 -160.25,-7.75 C-144.84100341796875,2.140000104904175 -89.25,56.5 -89.25,56.5"/></g></g><g style="display: block;" transform="matrix(0.9100000262260437,0,0,0.9100000262260437,288.5849914550781,262.010009765625)" opacity="1"><g opacity="1" transform="matrix(1,0,0,1,0,0)"><path fill="rgb(252,206,44)" fill-opacity="1" d=" M-5.5,-41 C-18.5,-40.5 -136.5,28.5 -115.25,94 C-73.5,132.75 -45.88100051879883,175.6060028076172 29.25,171 C94.5,167 124.5,123 124.75,74.75 C124.83100128173828,59.12200164794922 110,-7.5 85,-17.5 C60,-27.5 45.5,-14 39,-16 C32.5,-18 7.5,-41.5 -5.5,-41z"/></g><g opacity="1" transform="matrix(1,0,0,1,0,0)"><path fill="rgb(252,206,44)" fill-opacity="1" d=" M-152.29100036621094,-3.0329999923706055 C-178.11500549316406,-23.636999130249023 -199.54400634765625,-0.8349999785423279 -178.94000244140625,25.812999725341797 C-168.9969940185547,38.67300033569336 -127.6760025024414,80.33100128173828 -117.6760025024414,92.84600067138672 C-70.697998046875,151.63699340820312 -11.906999588012695,175.53900146484375 21.059999465942383,173.34100341796875 C33.42300033569336,181.30799865722656 63.33399963378906,224.33200073242188 69.68699645996094,225.53900146484375 C118.86299896240234,234.8800048828125 197.15899658203125,143.67100524902344 165.29100036621094,118.39600372314453 C149.906005859375,104.93399810791016 135.3459930419922,94.49500274658203 126.10600280761719,83.4280014038086 C126.55500030517578,67.5719985961914 123.25800323486328,18.94499969482422 115.87300109863281,-6.61299991607666 C113.89700317382812,-13.451000213623047 83.97200012207031,-53.856998443603516 74.46199798583984,-59.09400177001953 C84.24700164794922,-48.362998962402344 107.28399658203125,-16.875 110.36599731445312,-7.859000205993652 C122.16000366210938,26.63800048828125 119.69599914550781,78.94999694824219 118.61599731445312,83.16400146484375 C101.55500030517578,149.71499633789062 45.24399948120117,160.97799682617188 25.731000900268555,160.97799682617188 C-30.312999725341797,160.97799682617188 -71.19300079345703,129.96200561523438 -111.90699768066406,88.1760025024414 C-132.78599548339844,66.74700164794922 -161.30999755859375,37.402000427246094 -172.48399353027344,21.691999435424805 C-186.35800170898438,2.186000108718872 -176.4669952392578,-17.868000030517578 -150.5050048828125,3.010999917984009 C-144.68099975585938,7.695000171661377 -101.19200134277344,49.439998626708984 -97.34600067138672,53.01100158691406 C-93.5,56.582000732421875 -90.75199890136719,60.15399932861328 -87.18099975585938,59.33000183105469 C-89.37899780273438,57.13199996948242 -126.46700286865234,17.570999145507812 -152.29100036621094,-3.0329999923706055z"/></g><g opacity="0.5" transform="matrix(1,0,0,1,0,0)"><path fill="rgb(240,146,1)" fill-opacity="1" d=" M-152.29100036621094,-3.0329999923706055 C-178.11500549316406,-23.636999130249023 -199.54400634765625,-0.8349999785423279 -178.94000244140625,25.812999725341797 C-168.9969940185547,38.67300033569336 -127.6760025024414,80.33100128173828 -117.6760025024414,92.84600067138672 C-70.697998046875,151.63699340820312 -11.906999588012695,175.53900146484375 21.059999465942383,173.34100341796875 C33.42300033569336,181.30799865722656 63.33399963378906,224.33200073242188 69.68699645996094,225.53900146484375 C118.86299896240234,234.8800048828125 197.15899658203125,143.67100524902344 165.29100036621094,118.39600372314453 C149.906005859375,104.93399810791016 135.3459930419922,94.49500274658203 126.10600280761719,83.4280014038086 C126.55500030517578,67.5719985961914 123.25800323486328,18.94499969482422 115.87300109863281,-6.61299991607666 C113.89700317382812,-13.451000213623047 83.97200012207031,-53.856998443603516 74.46199798583984,-59.09400177001953 C84.24700164794922,-48.362998962402344 107.28399658203125,-16.875 110.36599731445312,-7.859000205993652 C122.16000366210938,26.63800048828125 119.69599914550781,78.94999694824219 118.61599731445312,83.16400146484375 C101.55500030517578,149.71499633789062 45.24399948120117,160.97799682617188 25.731000900268555,160.97799682617188 C-30.312999725341797,160.97799682617188 -71.19300079345703,129.96200561523438 -111.90699768066406,88.1760025024414 C-132.78599548339844,66.74700164794922 -161.30999755859375,37.402000427246094 -172.48399353027344,21.691999435424805 C-186.35800170898438,2.186000108718872 -176.4669952392578,-17.868000030517578 -150.5050048828125,3.010999917984009 C-144.68099975585938,7.695000171661377 -101.19200134277344,49.439998626708984 -97.34600067138672,53.01100158691406 C-93.5,56.582000732421875 -90.75199890136719,60.15399932861328 -87.18099975585938,59.33000183105469 C-89.37899780273438,57.13199996948242 -126.46700286865234,17.570999145507812 -152.29100036621094,-3.0329999923706055z"/></g><g opacity="0.3" transform="matrix(1,0,0,1,0,0)"><path fill="rgb(240,146,1)" fill-opacity="1" d=" M-152.29100036621094,-3.0329999923706055 C-178.11500549316406,-23.636999130249023 -199.54400634765625,-0.8349999785423279 -178.94000244140625,25.812999725341797 C-168.9969940185547,38.67300033569336 -127.6760025024414,80.33100128173828 -117.6760025024414,92.84600067138672 C-70.697998046875,151.63699340820312 -11.906999588012695,175.53900146484375 21.059999465942383,173.34100341796875 C33.42300033569336,181.30799865722656 63.33399963378906,224.33200073242188 69.68699645996094,225.53900146484375 C118.86299896240234,234.8800048828125 197.15899658203125,143.67100524902344 165.29100036621094,118.39600372314453 C149.906005859375,104.93399810791016 135.3459930419922,94.49500274658203 126.10600280761719,83.4280014038086 C126.55500030517578,67.5719985961914 123.25800323486328,18.94499969482422 115.87300109863281,-6.61299991607666 C113.89700317382812,-13.451000213623047 83.97200012207031,-53.856998443603516 74.46199798583984,-59.09400177001953 C79.85099792480469,-48.0880012512207 100.50499725341797,-18.113000869750977 104.59600067138672,-9.508000373840332 C122.43399810791016,28.01099967956543 115.0719985961914,77.31300354003906 113.94599914550781,81.51499938964844 C99.35700225830078,135.97799682617188 45.24300003051758,150.02200317382812 25.731000900268555,150.26400756835938 C-18.5,150.81300354003906 -65.9729995727539,127.21499633789062 -106.68699645996094,85.42900085449219 C-127.56600189208984,64 -157.093994140625,34.685001373291016 -168.22500610351562,18.94499969482422 C-181.82400512695312,-0.28600001335144043 -167.12600708007812,-8.803000450134277 -152.7030029296875,4.658999919891357 C-147.24000549316406,9.758000373840332 -103.11499786376953,51.362998962402344 -99.26899719238281,54.933998107910156 C-95.4229965209961,58.505001068115234 -92.67500305175781,62.35200119018555 -87.18099975585938,59.33000183105469 C-89.37899780273438,57.13199996948242 -126.46700286865234,17.570999145507812 -152.29100036621094,-3.0329999923706055z"/></g><g opacity="0.15" transform="matrix(1,0,0,1,0,0)"><path fill="rgb(240,146,1)" fill-opacity="1" d=" M-152.29100036621094,-3.0329999923706055 C-178.11500549316406,-23.636999130249023 -199.54400634765625,-0.8349999785423279 -178.94000244140625,25.812999725341797 C-168.9969940185547,38.67300033569336 -127.6760025024414,80.33100128173828 -117.6760025024414,92.84600067138672 C-70.697998046875,151.63699340820312 -11.906999588012695,175.53900146484375 21.059999465942383,173.34100341796875 C33.42300033569336,181.30799865722656 63.33399963378906,224.33200073242188 69.68699645996094,225.53900146484375 C118.86299896240234,234.8800048828125 197.15899658203125,143.67100524902344 165.29100036621094,118.39600372314453 C149.906005859375,104.93399810791016 135.3459930419922,94.49500274658203 126.10600280761719,83.4280014038086 C126.55500030517578,67.5719985961914 123.25800323486328,18.94499969482422 115.87300109863281,-6.61299991607666 C113.89700317382812,-13.451000213623047 83.97200012207031,-53.856998443603516 74.46199798583984,-59.09400177001953 C77.37899780273438,-46.98899841308594 96.93399810791016,-18.66200065612793 101.0250015258789,-10.057000160217285 C118.86299896240234,27.461999893188477 108.89199829101562,71.85900115966797 107.62699890136719,76.02100372314453 C92.48899841308594,125.81300354003906 40.84700012207031,138.75799560546875 21.334999084472656,139 C-22.895999908447266,139.5489959716797 -62.4010009765625,124.19300079345703 -103.11499786376953,82.40699768066406 C-123.99400329589844,60.97800064086914 -154.9010009765625,31.993999481201172 -165.7530059814453,16.059999465942383 C-172.78700256347656,5.73199987411499 -164.79100036621094,-4.955999851226807 -153.52699279785156,5.484000205993652 C-148.04600524902344,10.564000129699707 -104.21399688720703,52.46200180053711 -100.36799621582031,56.03300094604492 C-96.52200317382812,59.604000091552734 -92.67500305175781,62.35200119018555 -87.18099975585938,59.33000183105469 C-89.37899780273438,57.13199996948242 -126.46700286865234,17.570999145507812 -152.29100036621094,-3.0329999923706055z"/></g><g opacity="0.1" transform="matrix(1,0,0,1,0,0)"><path fill="rgb(240,146,1)" fill-opacity="1" d=" M-152.29100036621094,-3.0329999923706055 C-178.11500549316406,-23.636999130249023 -199.54400634765625,-0.8349999785423279 -178.94000244140625,25.812999725341797 C-168.9969940185547,38.67300033569336 -127.6760025024414,80.33100128173828 -117.6760025024414,92.84600067138672 C-70.697998046875,151.63699340820312 -11.906999588012695,175.53900146484375 21.059999465942383,173.34100341796875 C33.42300033569336,181.30799865722656 63.33399963378906,224.33200073242188 69.68699645996094,225.53900146484375 C118.86299896240234,234.8800048828125 197.15899658203125,143.67100524902344 165.29100036621094,118.39600372314453 C149.906005859375,104.93399810791016 135.3459930419922,94.49500274658203 126.10600280761719,83.4280014038086 C126.55500030517578,67.5719985961914 123.25800323486328,18.94499969482422 115.87300109863281,-6.61299991607666 C113.89700317382812,-13.451000213623047 83.97200012207031,-53.856998443603516 74.46199798583984,-59.09400177001953 C77.37899780273438,-44.79100036621094 91.98899841308594,-20.035999298095703 96.08000183105469,-11.430999755859375 C113.91799926757812,26.08799934387207 103.2030029296875,63.45100021362305 100.48400115966797,72.17500305175781 C86.63099670410156,116.61900329589844 38.92399978637695,128.59300231933594 19.41200065612793,128.8350067138672 C-24.819000244140625,129.38400268554688 -62.73099899291992,117.02200317382812 -99.81900024414062,79.93399810791016 C-120.9749984741211,58.77799987792969 -149.95599365234375,31.033000946044922 -161.90699768066406,15.098999977111816 C-169.06399536132812,5.556000232696533 -159.98399353027344,1.2259999513626099 -154.48899841308594,6.308000087738037 C-149.0030059814453,11.383000373840332 -105.31300354003906,53.2859992980957 -101.46700286865234,56.856998443603516 C-97.62100219726562,60.428001403808594 -92.67500305175781,62.35200119018555 -87.18099975585938,59.33000183105469 C-89.37899780273438,57.13199996948242 -126.46700286865234,17.570999145507812 -152.29100036621094,-3.0329999923706055z"/></g><g opacity="1" transform="matrix(1,0,0,1,0,0)"><path stroke-linecap="round" stroke-linejoin="miter" fill-opacity="0" stroke-miterlimit="4" stroke="rgb(225,124,0)" stroke-opacity="1" stroke-width="8" d=" M-115.75,95.25 C-78,135.25 -43,175 32.25,174.25"/></g></g><g style="display: block;" transform="matrix(0.9100000262260437,0,0,0.9100000262260437,399.47943115234375,398.4945373535156)" opacity="1"><g opacity="0.2" transform="matrix(1,0,0,1,0,0)"><path fill="rgb(252,206,44)" fill-opacity="1" d=" M-53.57099914550781,17.86400032043457 C-42.560001373291016,42.86399841308594 -22.832000732421875,66.7229995727539 2.4609999656677246,47.30799865722656 C27.22100067138672,28.30299949645996 52.77000045776367,-12.355999946594238 34.6510009765625,-28.742000579833984 C25.090999603271484,-37.387001037597656 6.988999843597412,-54.05799865722656 4.921999931335449,-49.44599914550781 C-18.108999252319336,1.9290000200271606 -59.53799819946289,4.316999912261963 -53.57099914550781,17.86400032043457z"/></g><g opacity="0.4" transform="matrix(1,0,0,1,0,0)"><path fill="rgb(252,206,44)" fill-opacity="1" d=" M-43.680999755859375,14.842000007629395 C-32.66999816894531,39.84199905395508 -15.911999702453613,60.72100067138672 8.229999542236328,39.89099884033203 C28.3700008392334,22.513999938964844 47.275001525878906,-10.708000183105469 32.72800064086914,-26.819000244140625 C24.09000015258789,-36.38600158691406 7.868000030517578,-49.637001037597656 5.745999813079834,-45.04999923706055 C-17.833999633789062,5.913000106811523 -49.64799880981445,1.2949999570846558 -43.680999755859375,14.842000007629395z"/></g><g opacity="0.5" transform="matrix(1,0,0,1,0,0)"><path fill="rgb(252,206,44)" fill-opacity="1" d=" M-32.96699905395508,12.369000434875488 C-28.36400032043457,26.63599967956543 -10.26099967956543,51.176998138427734 9.055000305175781,35.220001220703125 C29.562999725341797,18.27899932861328 39.106998443603516,-10.019000053405762 30.256000518798828,-23.111000061035156 C23.03700065612793,-33.78900146484375 7.298999786376953,-43.87699890136719 5.197000026702881,-39.28099822998047 C-15.168999671936035,5.260000228881836 -37.51300048828125,-1.718999981880188 -32.96699905395508,12.369000434875488z"/></g></g><g style="display: block;" transform="matrix(0.9100000262260437,0,0,0.9100000262260437,288.58502197265625,262.010009765625)" opacity="1"><g opacity="1" transform="matrix(1,0,0,1,0,0)"><path stroke-linecap="round" stroke-linejoin="round" fill-opacity="0" stroke="rgb(225,124,0)" stroke-opacity="1" stroke-width="8" d=" M24.275999069213867,176.14700317382812 C42.928001403808594,195.4709930419922 61.26100158691406,218.38600158691406 65.5,222.75 C73.51100158691406,230.9969940185547 112.08300018310547,222.1540069580078 139.83200073242188,193.00999450683594 C171.5,159.75 174.25399780273438,127.50399780273438 166.25,119.5 C154.89199829101562,108.14199829101562 134.0030059814453,95.83000183105469 125.86699676513672,80.54000091552734"/></g></g><g style="display: block;" transform="matrix(0.9100000262260437,0,0,0.9100000262260437,332.63262939453125,194.83834838867188)" opacity="1"><g opacity="1" transform="matrix(1,0,0,1,0,0)"><path fill="rgb(255,215,93)" fill-opacity="1" d=" M-1.6369999647140503,-36.48099899291992 C-10.005000114440918,-39.31800079345703 -21.30900001525879,-26.7549991607666 -14.807000160217285,-0.6890000104904175 C-7.4679999351501465,28.73200035095215 10.701000213623047,39.26499938964844 15.20199966430664,36.430999755859375 C19.702999114990234,33.59700012207031 13.065999984741211,17.444000244140625 11.329000473022461,7.755000114440918 C8.699000358581543,-6.915999889373779 12.534000396728516,-31.677000045776367 -1.6369999647140503,-36.48099899291992z"/></g></g><g style="display: block;" transform="matrix(0.9100000262260437,0,0,0.9100000262260437,337.9625244140625,219.95526123046875)" opacity="1"><g opacity="0.5" transform="matrix(1,0,0,1,0,0)"><path fill="rgb(240,146,1)" fill-opacity="1" d=" M-19.652000427246094,-58.92599868774414 C-19.761999130249023,-55.5359992980957 -29.90399932861328,-40.61000061035156 -19.621000289916992,-13.883000373840332 C-11.031000137329102,8.442000389099121 -4.079999923706055,19.55500030517578 9.506999969482422,33.65999984741211 C18.64299964904785,43.14400100708008 27.426000595092773,47.03099822998047 24.98900032043457,49.737998962402344 C22.552000045776367,52.44499969482422 13.090999603271484,46.88999938964844 0.210999995470047,36.89699935913086 C-13.991999626159668,25.87700080871582 -47.262001037597656,-21.535999298095703 -19.652000427246094,-58.92599868774414z"/></g><g opacity="0.3" transform="matrix(1,0,0,1,0,0)"><path fill="rgb(240,146,1)" fill-opacity="1" d=" M-19.652000427246094,-58.92599868774414 C-19.761999130249023,-55.5359992980957 -25.28700065612793,-41.36899948120117 -14.812999725341797,-17.042999267578125 C-4.349999904632568,7.25600004196167 6.038000106811523,22.041000366210938 21.457000732421875,36.40700149536133 C36.875999450683594,50.77299880981445 36.21699905395508,54.448001861572266 33.779998779296875,57.154998779296875 C31.343000411987305,59.86199951171875 13.430000305175781,49.38800048828125 -0.47600001096725464,37.99599838256836 C-14.381999969482422,26.604000091552734 -47.262001037597656,-21.535999298095703 -19.652000427246094,-58.92599868774414z"/></g></g><g style="display: block;" transform="matrix(0.9100000262260437,0,0,0.9100000262260437,288.5849914550781,262.010009765625)" opacity="1"><g opacity="1" transform="matrix(1,0,0,1,0,0)"><path stroke-linecap="round" stroke-linejoin="miter" fill-opacity="0" stroke-miterlimit="4" stroke="rgb(225,124,0)" stroke-opacity="1" stroke-width="8" d=" M51.25,-10.5 C46.69599914550781,-16.63800048828125 18.902000427246094,-50.22200012207031 24.966999053955078,-82.80400085449219 C29.75,-108.5 45.178001403808594,-113.55400085449219 51.59700012207031,-111.04499816894531 C58.75,-108.25 62.90800094604492,-94.97200012207031 67.26599884033203,-82.51200103759766 C81,-43.25 100.6719970703125,-34.24300003051758 114.25,-7.75 C124.5,12.25 127,65.5 124.5,101"/></g></g><g style="display: block;" transform="matrix(0.9100000262260437,0,0,0.9100000262260437,364.114990234375,158.72499084472656)" opacity="1"><g opacity="1" transform="matrix(1,0,0,1,0,0)"><path fill="rgb(252,206,44)" fill-opacity="1" d=" M-110.25,97 C-125.5,81.75 -175.0189971923828,36.0369987487793 -193.5,9.25 C-215.75,-23 -196.12600708007812,-43.54999923706055 -170.75,-27.5 C-141.5,-9 -29.5,105.5 -29.5,105.5"/></g><g opacity="1" transform="matrix(1,0,0,1,-109.25,43)"><path fill="rgb(255,215,93)" fill-opacity="1" d=" M34.21799850463867,18.104000091552734 C34.21799850463867,18.104000091552734 90.8290023803711,67.47799682617188 87.7249984741211,74.28199768066406 C85.03600311279297,80.1760025024414 44.75,49 -18.767000198364258,-15.62600040435791 C-32.823001861572266,-29.927000045776367 -39.75,-36 -59.49100112915039,-53.78799819946289 C-75.72000122070312,-68.41100311279297 -79.43599700927734,-56.066001892089844 -79.43599700927734,-56.066001892089844 C-87.61900329589844,-66.15599822998047 -89.74500274658203,-68.10299682617188 -86.19400024414062,-70.98899841308594 C-76.45999908447266,-78.93099975585938 -62.1619987487793,-75.4209976196289 -51.242000579833984,-66.06600189208984 C-34.15999984741211,-51.441001892089844 12.182999610900879,-4.361000061035156 34.21799850463867,18.104000091552734z"/></g><g opacity="0.5" transform="matrix(1,0,0,1,-153.5,35)"><path fill="rgb(240,146,1)" fill-opacity="1" d=" M-23.89900016784668,-64.99099731445312 C-60.67100143432617,-73.18599700927734 -53.827999114990234,-37.56999969482422 -28.472000122070312,-11.451000213623047 C-9.946999549865723,7.63100004196167 44.709999084472656,66.18800354003906 44.709999084472656,66.18800354003906 C54.47200012207031,55.54899978637695 36.340999603271484,43.874000549316406 -19.22800064086914,-16.16699981689453 C-66.28399658203125,-67.01000213623047 -23.89900016784668,-64.99099731445312 -23.89900016784668,-64.99099731445312z"/></g><g opacity="0.3" transform="matrix(1,0,0,1,-153.5,35)"><path fill="rgb(240,146,1)" fill-opacity="1" d=" M-23.89900016784668,-64.99099731445312 C-60.67100143432617,-73.18599700927734 -53.827999114990234,-37.56999969482422 -28.472000122070312,-11.451000213623047 C-9.946999549865723,7.63100004196167 44.709999084472656,66.18800354003906 44.709999084472656,66.18800354003906 C58.86800003051758,53.9010009765625 41.680999755859375,41.981998443603516 -15.930999755859375,-18.915000915527344 C-60.36199951171875,-65.87899780273438 -23.89900016784668,-64.99099731445312 -23.89900016784668,-64.99099731445312z"/></g><g opacity="0.1" transform="matrix(1,0,0,1,-153.5,35)"><path fill="rgb(240,146,1)" fill-opacity="1" d=" M-23.89900016784668,-64.99099731445312 C-60.67100143432617,-73.18599700927734 -53.827999114990234,-37.56999969482422 -28.472000122070312,-11.451000213623047 C-9.946999549865723,7.63100004196167 44.709999084472656,66.18800354003906 44.709999084472656,66.18800354003906 C62.301998138427734,52.527000427246094 45.79100036621094,41.01900100708008 -11.947999954223633,-20.700000762939453 C-52.67100143432617,-64.2300033569336 -23.89900016784668,-64.99099731445312 -23.89900016784668,-64.99099731445312z"/></g><g opacity="1" transform="matrix(1,0,0,1,0,0)"><path stroke-linecap="round" stroke-linejoin="round" fill-opacity="0" stroke="rgb(225,124,0)" stroke-opacity="1" stroke-width="8" d=" M-110.25,97 C-125.5,81.75 -175.0189971923828,36.0369987487793 -193.5,9.25 C-215.75,-23 -196.12600708007812,-43.54999923706055 -170.75,-27.5 C-141.5,-9 -29.5,105.5 -29.5,105.5"/></g></g><g style="display: block;" transform="matrix(0.9100000262260437,0,0,0.9100000262260437,338.17999267578125,194.6699981689453)" opacity="1"><g opacity="1" transform="matrix(1,0,0,1,0,0)"><path fill="rgb(252,206,44)" fill-opacity="1" d=" M-119.25,92.25 C-134.5,77 -207.5,7.75 -223.75,-21 C-238.01400756835938,-46.236000061035156 -218.2790069580078,-66.98799896240234 -192,-49.25 C-172,-35.75 -81.25,58 -81.25,58"/></g><g opacity="1" transform="matrix(1,0,0,1,-150.25,4)"><path fill="rgb(255,215,93)" fill-opacity="1" d=" M-67.39700317382812,-41.87200164794922 C-67.39700317382812,-41.87200164794922 -61.715999603271484,-55.04600143432617 -40.979000091552734,-36.1619987487793 C-29.989999771118164,-26.155000686645508 -19.899999618530273,-16.562000274658203 -10.661999702453613,-7.590000152587891 C3.6059999465942383,6.267000198364258 15.840999603271484,18.64699935913086 26.222000122070312,28.79599952697754 C47.9010009765625,49.99100112915039 61.48899841308594,61.45899963378906 68.58999633789062,56.34700012207031 C68.58999633789062,56.34700012207031 -1.4989999532699585,-21.07200050354004 -26.89299964904785,-41.63800048828125 C-52.2869987487793,-62.20399856567383 -73.98300170898438,-63.42900085449219 -67.39700317382812,-41.87200164794922z"/></g><g opacity="0.5" transform="matrix(1,0,0,1,-167.25,22.5)"><path fill="rgb(240,146,1)" fill-opacity="1" d=" M-43.742000579833984,-75.9469985961914 C-43.742000579833984,-75.9469985961914 -56.45899963378906,-71.57599639892578 -50.777000427246094,-55.608001708984375 C-45.17300033569336,-39.858001708984375 -24.523000717163086,-20.43600082397461 -7.61299991607666,-2.6630001068115234 C29.625,36.47700119018555 45.07400131225586,50.52799987792969 54.66600036621094,60.845001220703125 C60.974998474121094,67.63099670410156 57.1619987487793,76.9010009765625 48.66999816894531,75.58000183105469 C48.66999816894531,75.58000183105469 -21.93000030517578,-2.507999897003174 -37.263999938964844,-19.625999450683594 C-47.24300003051758,-30.764999389648438 -56.43899917602539,-40.89699935913086 -59.694000244140625,-51.064998626708984 C-64.38400268554688,-65.71800231933594 -58.88999938964844,-78.29399871826172 -43.742000579833984,-75.9469985961914z"/></g><g opacity="0.3" transform="matrix(1,0,0,1,-167.25,22.5)"><path fill="rgb(240,146,1)" fill-opacity="1" d=" M-43.742000579833984,-75.9469985961914 C-43.742000579833984,-75.9469985961914 -54.92599868774414,-72.54900360107422 -46.930999755859375,-57.667999267578125 C-41.430999755859375,-47.43000030517578 -20.677000045776367,-24.006999969482422 -3.7669999599456787,-6.234000205993652 C33.47100067138672,32.90599822998047 49.08599853515625,48.21099853515625 57.000999450683594,57.685001373291016 C62.94200134277344,64.7959976196289 59.36000061035156,77.44999694824219 48.66999816894531,75.58000183105469 C48.66999816894531,75.58000183105469 -21.93000030517578,-2.507999897003174 -37.263999938964844,-19.625999450683594 C-47.24300003051758,-30.764999389648438 -56.43899917602539,-40.89699935913086 -59.694000244140625,-51.064998626708984 C-64.38400268554688,-65.71800231933594 -58.88999938964844,-78.29399871826172 -43.742000579833984,-75.9469985961914z"/></g><g opacity="0.1" transform="matrix(1,0,0,1,-167.25,22.5)"><path fill="rgb(240,146,1)" fill-opacity="1" d=" M-43.742000579833984,-75.9469985961914 C-43.742000579833984,-75.9469985961914 -50.402000427246094,-73.63200378417969 -42.26100158691406,-58.766998291015625 C-37.340999603271484,-49.78200149536133 -16.281999588012695,-27.57900047302246 0.628000020980835,-9.805999755859375 C37.86600112915039,29.333999633789062 52.382999420166016,45.4640007019043 60.29800033569336,54.9379997253418 C66.23899841308594,62.04899978637695 60.125,78.625 48.66999816894531,75.58000183105469 C48.66999816894531,75.58000183105469 -21.93000030517578,-2.507999897003174 -37.263999938964844,-19.625999450683594 C-47.24300003051758,-30.764999389648438 -56.43899917602539,-40.89699935913086 -59.694000244140625,-51.064998626708984 C-64.38400268554688,-65.71800231933594 -58.88999938964844,-78.29399871826172 -43.742000579833984,-75.9469985961914z"/></g><g opacity="1" transform="matrix(1,0,0,1,0,0)"><path stroke-linecap="round" stroke-linejoin="round" fill-opacity="0" stroke="rgb(225,124,0)" stroke-opacity="1" stroke-width="8" d=" M-119.25,92.25 C-134.5,77 -207.5,7.75 -223.75,-21 C-238.01400756835938,-46.236000061035156 -218.2790069580078,-66.98799896240234 -192,-49.25 C-172,-35.75 -81.25,58 -81.25,58"/></g></g><g style="display: block;" transform="matrix(0.9100000262260437,0,0,0.9100000262260437,312.2449951171875,227.88499450683594)" opacity="1"><g opacity="1" transform="matrix(1,0,0,1,0,0)"><path fill="rgb(252,206,44)" fill-opacity="1" d=" M-116.5,93.25 C-131.75,78 -195.01699829101562,20.961000442504883 -214.75,-10 C-229.25,-32.75 -206.75,-56.5 -179.25,-31 C-162.20799255371094,-15.197999954223633 -88.5,57.5 -88.5,57.5"/></g><g opacity="1" transform="matrix(1,0,0,1,-188.625,-23.625)"><path fill="rgb(255,215,93)" fill-opacity="1" d=" M-9.359000205993652,10.119999885559082 C-9.359000205993652,10.119999885559082 -9.057000160217285,1.0579999685287476 -1.6679999828338623,1.5950000286102295 C5.7210001945495605,2.131999969482422 30.785999298095703,19.070999145507812 30.785999298095703,19.070999145507812 C30.785999298095703,19.070999145507812 8.678999900817871,-9.319999694824219 -7.176000118255615,-14.607000350952148 C-23.0310001373291,-19.893999099731445 -38.29199981689453,-5.23199987411499 -9.359000205993652,10.119999885559082z"/></g><g opacity="0.5" transform="matrix(1,0,0,1,-153.875,28.25)"><path fill="rgb(240,146,1)" fill-opacity="1" d=" M65.30799865722656,32.62900161743164 C65.30799865722656,32.62900161743164 65.41899871826172,37.26100158691406 32.70500183105469,5.122000217437744 C11.163999557495117,-16.041000366210938 -17.14900016784668,-45.05699920654297 -31.499000549316406,-57.12900161743164 C-48.45500183105469,-71.39299774169922 -64.25199890136719,-61.3650016784668 -51.96900177001953,-42.472999572753906 C-46.500999450683594,-34.0629997253418 -33.49399948120117,-18.908000946044922 -18.20800018310547,-3.4590001106262207 C6.144000053405762,21.150999069213867 20.95199966430664,34.904998779296875 35.981998443603516,50.191001892089844 C44.60900115966797,58.96500015258789 45.448001861572266,68.16400146484375 40.650001525878906,68.16400146484375 C40.650001525878906,68.16400146484375 -23.079999923706055,7.078999996185303 -43.72100067138672,-15.305000305175781 C-59.85100173950195,-32.797000885009766 -67.6719970703125,-47.67499923706055 -64.68000030517578,-58.63600158691406 C-62.084999084472656,-68.14099884033203 -51.19300079345703,-75.86900329589844 -32.57099914550781,-65.40899658203125 C-16.871000289916992,-56.59000015258789 44.31999969482422,8.086999893188477 65.30799865722656,32.62900161743164z"/></g><g opacity="0.3" transform="matrix(1,0,0,1,-153.875,28.25)"><path fill="rgb(240,146,1)" fill-opacity="1" d=" M65.30799865722656,32.62900161743164 C65.30799865722656,32.62900161743164 63.770999908447266,38.63399887084961 31.743999481201172,6.083000183105469 C10.5649995803833,-15.442000389099121 -18.222999572753906,-43.57600021362305 -32.597999572753906,-55.61800003051758 C-47.49300003051758,-68.09600067138672 -59.85499954223633,-61.50299835205078 -48.534000396728516,-45.08300018310547 C-42.229000091552734,-35.9379997253418 -30.763999938964844,-22.32900047302246 -15.477999687194824,-6.880000114440918 C8.87399959564209,17.729999542236328 23.878000259399414,32.67100143432617 38.729000091552734,48.130001068115234 C47.35599899291992,57.11000061035156 45.36399841308594,67.89299774169922 40.650001525878906,68.16400146484375 C40.650001525878906,68.16400146484375 -23.079999923706055,7.078999996185303 -43.72100067138672,-15.305000305175781 C-59.85100173950195,-32.797000885009766 -67.6719970703125,-47.67499923706055 -64.68000030517578,-58.63600158691406 C-62.084999084472656,-68.14099884033203 -51.19300079345703,-75.86900329589844 -32.57099914550781,-65.40899658203125 C-16.871000289916992,-56.59000015258789 44.31999969482422,8.086999893188477 65.30799865722656,32.62900161743164z"/></g><g opacity="0.2" transform="matrix(1,0,0,1,-153.875,28.25)"><path fill="rgb(240,146,1)" fill-opacity="1" d=" M65.30799865722656,32.62900161743164 C65.30799865722656,32.62900161743164 64.05799865722656,41.29999923706055 30.920000076293945,7.045000076293945 C9.923999786376953,-14.659000396728516 -19.891000747680664,-41.41600036621094 -33.696998596191406,-54.106998443603516 C-44.89400100708008,-64.39900207519531 -52.986000061035156,-60.513999938964844 -45.7869987487793,-47.69300079345703 C-40.875999450683594,-38.94599914550781 -28.033000946044922,-25.749000549316406 -12.746999740600586,-10.300000190734863 C11.604999542236328,14.3100004196167 26.871999740600586,30.101999282836914 41.47600173950195,45.79499816894531 C49.89699935913086,54.84299850463867 45.448001861572266,68.16400146484375 40.650001525878906,68.16400146484375 C40.650001525878906,68.16400146484375 -23.079999923706055,7.078999996185303 -43.72100067138672,-15.305000305175781 C-59.85100173950195,-32.797000885009766 -67.6719970703125,-47.67499923706055 -64.68000030517578,-58.63600158691406 C-62.084999084472656,-68.14099884033203 -51.19300079345703,-75.86900329589844 -32.57099914550781,-65.40899658203125 C-16.871000289916992,-56.59000015258789 44.31999969482422,8.086999893188477 65.30799865722656,32.62900161743164z"/></g><g opacity="1" transform="matrix(1,0,0,1,0,0)"><path stroke-linecap="round" stroke-linejoin="round" fill-opacity="0" stroke="rgb(225,124,0)" stroke-opacity="1" stroke-width="8" d=" M-116.5,93.25 C-131.75,78 -195.01699829101562,20.961000442504883 -214.75,-10 C-229.25,-32.75 -206.75,-56.5 -179.25,-31 C-162.20799255371094,-15.197999954223633 -88.5,57.5 -88.5,57.5"/></g></g><g style="display: block;" transform="matrix(0.9100000262260437,0,0,0.9100000262260437,288.5849914550781,262.010009765625)" opacity="1"><g opacity="1" transform="matrix(1,0,0,1,0,0)"><path stroke-linecap="round" stroke-linejoin="round" fill-opacity="0" stroke="rgb(225,124,0)" stroke-opacity="1" stroke-width="8" d=" M-116.5,94.75 C-131.75,79.5 -168.1540069580078,43.191001892089844 -181.5,21.75 C-196.75,-2.75 -177,-18.5 -160.25,-7.75 C-144.84100341796875,2.140000104904175 -89.25,56.5 -89.25,56.5"/></g></g></g></svg>