<svg xmlns="http://www.w3.org/2000/svg" xmlns:xlink="http://www.w3.org/1999/xlink" viewBox="0 0 512 512" width="512" height="512" style="width: 100%; height: 100%; transform: translate3d(0,0,0);" preserveAspectRatio="xMidYMid meet"><defs><clipPath id="__lottie_element_15308"><rect width="512" height="512" x="0" y="0"/></clipPath><linearGradient id="__lottie_element_15314" spreadMethod="pad" gradientUnits="userSpaceOnUse" x1="-1.0399999618530273" y1="-176.5" x2="0.9599999785423279" y2="188.88900756835938"><stop offset="0%" stop-color="rgb(253,207,24)"/><stop offset="47%" stop-color="rgb(245,171,12)"/><stop offset="93%" stop-color="rgb(237,135,0)"/></linearGradient><radialGradient id="__lottie_element_15315" spreadMethod="pad" gradientUnits="userSpaceOnUse" cx="-6.039999961853027" cy="-160.1230010986328" r="342.6724710471032" fx="-6.039999961853027" fy="-160.1230010986328"><stop offset="7%" stop-color="rgb(254,254,226)"/><stop offset="28%" stop-color="rgb(253,238,140)"/><stop offset="49%" stop-color="rgb(252,222,54)"/><stop offset="82%" stop-color="rgb(245,184,32)"/><stop offset="100%" stop-color="rgb(238,145,10)"/></radialGradient></defs><g clip-path="url(#__lottie_element_15308)"><g style="display: block;" transform="matrix(1.0329999923706055,0,0,1.0329999923706055,255.9995574951172,260.0007629394531)" opacity="1"><g opacity="1" transform="matrix(0.9700000286102295,0,0,0.9700000286102295,-209.23394775390625,-213.2205810546875)"><g opacity="1" transform="matrix(1,0,0,1,215.6439971923828,215.64500427246094)"><path fill="url(#__lottie_element_15314)" fill-opacity="1" d=" M194.9969940185547,0 C194.9969940185547,107.69400024414062 107.69300079345703,194.9969940185547 0,194.9969940185547 C-107.69400024414062,194.9969940185547 -194.9969940185547,107.69400024414062 -194.9969940185547,0 C-194.9969940185547,-107.69400024414062 -107.69400024414062,-194.9969940185547 0,-194.9969940185547 C107.69300079345703,-194.9969940185547 194.9969940185547,-107.69400024414062 194.9969940185547,0z"/></g><g opacity="1" transform="matrix(1,0,0,1,215.70199584960938,213.7169952392578)"><path fill="url(#__lottie_element_15315)" fill-opacity="1" d=" M173.80799865722656,2.6630001068115234 C172.3040008544922,100.77200317382812 93.26899719238281,179.11199951171875 -2.7230000495910645,177.63999938964844 C-98.71399688720703,176.16799926757812 -175.31199645996094,95.44499969482422 -173.80799865722656,-2.6640000343322754 C-172.3040008544922,-100.77300262451172 -93.26899719238281,-179.11199951171875 2.7230000495910645,-177.64100646972656 C98.71399688720703,-176.16900634765625 175.31199645996094,-95.44499969482422 173.80799865722656,2.6630001068115234z"/></g><g opacity="1" transform="matrix(1,0,0,1,215.6439971923828,215.64500427246094)"><path stroke-linecap="butt" stroke-linejoin="miter" fill-opacity="0" stroke-miterlimit="10" stroke="rgb(231,105,0)" stroke-opacity="1" stroke-width="8.259" d=" M194.9969940185547,0 C194.9969940185547,107.69400024414062 107.69300079345703,194.9969940185547 0,194.9969940185547 C-107.69400024414062,194.9969940185547 -194.9969940185547,107.69400024414062 -194.9969940185547,0 C-194.9969940185547,-107.69400024414062 -107.69400024414062,-194.9969940185547 0,-194.9969940185547 C107.69300079345703,-194.9969940185547 194.9969940185547,-107.69400024414062 194.9969940185547,0z"/></g></g></g><g style="display: block;" transform="matrix(0.9000012278556824,0,0,0.9000012278556824,191.76556396484375,340.0406799316406)" opacity="1"><g opacity="1" transform="matrix(1,0,0,1,0,0)"><g opacity="1" transform="matrix(1,0,0,1,71.37000274658203,35.89799880981445)"><path fill="rgb(254,221,120)" fill-opacity="1" d=" M0.017999999225139618,-4.51800012588501 C-45.263999938964844,-4.51800012588501 -69.6449966430664,-29.601999282836914 -69.6449966430664,-29.601999282836914 C-69.6449966430664,-10.47599983215332 -46.04399871826172,30.71299934387207 0.017999999225139618,30.71299934387207 C46.08000183105469,30.71299934387207 69.6449966430664,-10.47599983215332 69.6449966430664,-29.601999282836914 C69.6449966430664,-29.601999282836914 45.29999923706055,-4.51800012588501 0.017999999225139618,-4.51800012588501z"/></g><g opacity="1" transform="matrix(1,0,0,1,71.37100219726562,18.32699966430664)"><path fill="rgb(234,172,31)" fill-opacity="1" d=" M69.00199890136719,-14.611000061035156 C63.784000396728516,-18.077999114990234 45.0880012512207,2.365999937057495 0.017999999225139618,2.365999937057495 C-45.04999923706055,2.365999937057495 -63.784000396728516,-18.077999114990234 -69.00199890136719,-14.611000061035156 C-75.55599975585938,-10.256999969482422 -44.000999450683594,19.18899917602539 0.017999999225139618,19.18899917602539 C44.0369987487793,19.18899917602539 75.55599975585938,-10.256999969482422 69.00199890136719,-14.611000061035156z"/></g><g opacity="1" transform="matrix(1,0,0,1,71.37000274658203,32.67499923706055)"><path fill="rgb(151,72,0)" fill-opacity="1" d=" M64.03299713134766,-23.32200050354004 C58.944000244140625,-26.614999771118164 43.96099853515625,-5.567999839782715 0.017999999225139618,-5.567999839782715 C-43.92499923706055,-5.567999839782715 -58.94499969482422,-26.614999771118164 -64.03299713134766,-23.32200050354004 C-70.4229965209961,-19.18600082397461 -40.86399841308594,27.72599983215332 0.017999999225139618,27.72599983215332 C40.900001525878906,27.72599983215332 70.4229965209961,-19.187000274658203 64.03299713134766,-23.32200050354004z"/></g><g opacity="1" transform="matrix(1,0,0,1,71.37000274658203,20.01099967956543)"><path fill="rgb(100,42,0)" fill-opacity="1" d=" M0.017999999225139618,15.062000274658203 C42.19599914550781,15.062000274658203 57.68600082397461,-4.420000076293945 63.362998962402344,-2.9679999351501465 C65.11199951171875,-6.8979997634887695 65.41999816894531,-9.760000228881836 64.03299713134766,-10.657999992370605 C58.944000244140625,-13.951000213623047 43.96099853515625,7.0960001945495605 0.017999999225139618,7.0960001945495605 C-43.92499923706055,7.0960001945495605 -58.944000244140625,-13.947999954223633 -64.03299713134766,-10.657999992370605 C-65.41999816894531,-9.76099967956543 -65.11199951171875,-6.8979997634887695 -63.36399841308594,-2.9679999351501465 C-57.68600082397461,-4.420000076293945 -42.1609992980957,15.062000274658203 0.017999999225139618,15.062000274658203z"/></g></g></g><g style="display: block;" transform="matrix(0.9999956488609314,0,0,0.9999956488609314,0.00067138671875,0.0030059814453125)" opacity="1"><g opacity="1" transform="matrix(1.0329999923706055,0,0,1.0329999923706055,256.0008239746094,260.0004577636719)"><g opacity="1" transform="matrix(1,0,0,1,0,0)"><path fill="rgb(234,172,31)" fill-opacity="1" d=" M128.10000610351562,-2.9830000400543213 C128.10000610351562,29.518999099731445 13.244999885559082,29.518999099731445 13.244999885559082,-2.9830000400543213 C13.244999885559082,-35.48500061035156 38.95600128173828,-61.832000732421875 70.6719970703125,-61.832000732421875 C102.38800048828125,-61.832000732421875 128.10000610351562,-35.48500061035156 128.10000610351562,-2.9830000400543213z"/></g><g opacity="1" transform="matrix(1,0,0,1,0,0)"><path fill="rgb(236,236,237)" fill-opacity="1" d=" M124.83899688720703,1.7000000476837158 C124.83899688720703,31.614999771118164 100.58699798583984,55.867000579833984 70.6719970703125,55.867000579833984 C40.75699996948242,55.867000579833984 16.506000518798828,31.614999771118164 16.506000518798828,1.7000000476837158 C16.506000518798828,-28.215999603271484 40.75699996948242,-52.46699905395508 70.6719970703125,-52.46699905395508 C100.58699798583984,-52.46699905395508 124.83899688720703,-28.215999603271484 124.83899688720703,1.7000000476837158z"/><path stroke-linecap="butt" stroke-linejoin="miter" fill-opacity="0" stroke-miterlimit="10" stroke="rgb(184,186,195)" stroke-opacity="1" stroke-width="6" d=" M124.83899688720703,1.7000000476837158 C124.83899688720703,31.614999771118164 100.58699798583984,55.867000579833984 70.6719970703125,55.867000579833984 C40.75699996948242,55.867000579833984 16.506000518798828,31.614999771118164 16.506000518798828,1.7000000476837158 C16.506000518798828,-28.215999603271484 40.75699996948242,-52.46699905395508 70.6719970703125,-52.46699905395508 C100.58699798583984,-52.46699905395508 124.83899688720703,-28.215999603271484 124.83899688720703,1.7000000476837158z"/></g><g opacity="1" transform="matrix(1,0,0,1,0,0)"><path fill="rgb(1,1,1)" fill-opacity="1" d=" M122.0510025024414,-3.9049999713897705 C122.0510025024414,22.85300064086914 99.07099914550781,44.54399871826172 70.7229995727539,44.54399871826172 C42.375,44.54399871826172 19.395000457763672,22.85300064086914 19.395000457763672,-3.9049999713897705 C19.395000457763672,-30.663000106811523 42.375,-52.35499954223633 70.7229995727539,-52.35499954223633 C99.07099914550781,-52.35499954223633 122.0510025024414,-30.663000106811523 122.0510025024414,-3.9049999713897705z"/></g><g opacity="0" transform="matrix(1,0,0,1,0,0)"><path fill="rgb(255,255,255)" fill-opacity="1" d=" M107.5979995727539,6.789000034332275 C114.81900024414062,15.817000389099121 96.43000030517578,45.59600067138672 65.27400207519531,40.29199981689453 C34.11800003051758,34.987998962402344 31.27199935913086,14.312000274658203 35.48899841308594,10.52299976348877 C42.58000183105469,4.1519999504089355 49.108001708984375,24.43899917602539 76.98500061035156,20.159000396728516 C89.23100280761719,18.27899932861328 100.37699890136719,-2.239000082015991 107.5979995727539,6.789000034332275z"/></g><g opacity="0.35000000000000003" transform="matrix(1,0,0,1,0,0)"><path fill="rgb(255,255,255)" fill-opacity="1" d=" M121.49099731445312,3.26200008392334 C117.83100128173828,-20.097999572753906 96.49099731445312,-38.02799987792969 70.72100067138672,-38.02799987792969 C44.95100021362305,-38.02799987792969 23.611000061035156,-20.097999572753906 19.951000213623047,3.26200008392334 C14.222000122070312,-30.31800079345703 42.37099838256836,-52.358001708984375 70.72100067138672,-52.358001708984375 C99.07099914550781,-52.358001708984375 124.97200012207031,-28.81800079345703 121.49099731445312,3.26200008392334z"/></g><g opacity="1" transform="matrix(1,0,0,1,0,0)"><path stroke-linecap="butt" stroke-linejoin="miter" fill-opacity="0" stroke-miterlimit="10" stroke="rgb(1,1,1)" stroke-opacity="1" stroke-width="6" d=" M122.0510025024414,-3.9049999713897705 C122.0510025024414,22.85300064086914 99.07099914550781,44.54399871826172 70.7229995727539,44.54399871826172 C42.375,44.54399871826172 19.395000457763672,22.85300064086914 19.395000457763672,-3.9049999713897705 C19.395000457763672,-30.663000106811523 42.375,-52.35499954223633 70.7229995727539,-52.35499954223633 C99.07099914550781,-52.35499954223633 122.0510025024414,-30.663000106811523 122.0510025024414,-3.9049999713897705z"/></g><g opacity="1" transform="matrix(1,0,0,1,-0.1150054931640625,1.321000099182129)"><g opacity="1" transform="matrix(1,0,0,1,0,0)"><path fill="rgb(255,255,255)" fill-opacity="1" d=" M73.36699676513672,-3.997999906539917 C59.99599838256836,6.3979997634887695 42.91400146484375,6.795000076293945 35.21200180053711,-3.1110000610351562 C27.510000228881836,-13.017000198364258 32.10499954223633,-29.47599983215332 45.47600173950195,-39.87200164794922 C58.84700012207031,-50.268001556396484 75.93000030517578,-50.66400146484375 83.63200378417969,-40.757999420166016 C91.33399963378906,-30.851999282836914 86.73799896240234,-14.394000053405762 73.36699676513672,-3.997999906539917z"/></g><g opacity="1" transform="matrix(1,0,0,1,0,0)"><path fill="rgb(255,255,255)" fill-opacity="1" d=" M91.15699768066406,22.29800033569336 C85.87100219726562,26.408000946044922 79.11799621582031,26.56399917602539 76.072998046875,22.648000717163086 C73.02799987792969,18.73200035095215 74.84500122070312,12.22599983215332 80.13099670410156,8.116000175476074 C85.41699981689453,4.00600004196167 92.16999816894531,3.8499999046325684 95.21499633789062,7.765999794006348 C98.26000213623047,11.682000160217285 96.44300079345703,18.187999725341797 91.15699768066406,22.29800033569336z"/></g></g></g><g opacity="1" transform="matrix(1.0329999923706055,0,0,1.0329999923706055,255.99917602539062,260.0004577636719)"><g opacity="1" transform="matrix(1,0,0,1,0,0)"><path fill="rgb(234,172,31)" fill-opacity="1" d=" M-13.244999885559082,-2.9830000400543213 C-13.244999885559082,29.518999099731445 -128.10000610351562,29.518999099731445 -128.10000610351562,-2.9830000400543213 C-128.10000610351562,-35.48500061035156 -102.38800048828125,-61.832000732421875 -70.6719970703125,-61.832000732421875 C-38.95600128173828,-61.832000732421875 -13.244999885559082,-35.48500061035156 -13.244999885559082,-2.9830000400543213z"/></g><g opacity="1" transform="matrix(1,0,0,1,0,0)"><path fill="rgb(236,236,237)" fill-opacity="1" d=" M-16.5049991607666,1.7000000476837158 C-16.5049991607666,31.614999771118164 -40.75699996948242,55.867000579833984 -70.6719970703125,55.867000579833984 C-100.58699798583984,55.867000579833984 -124.83899688720703,31.614999771118164 -124.83899688720703,1.7000000476837158 C-124.83899688720703,-28.215999603271484 -100.58699798583984,-52.46699905395508 -70.6719970703125,-52.46699905395508 C-40.75699996948242,-52.46699905395508 -16.5049991607666,-28.215999603271484 -16.5049991607666,1.7000000476837158z"/><path stroke-linecap="butt" stroke-linejoin="miter" fill-opacity="0" stroke-miterlimit="10" stroke="rgb(184,186,195)" stroke-opacity="1" stroke-width="6" d=" M-16.5049991607666,1.7000000476837158 C-16.5049991607666,31.614999771118164 -40.75699996948242,55.867000579833984 -70.6719970703125,55.867000579833984 C-100.58699798583984,55.867000579833984 -124.83899688720703,31.614999771118164 -124.83899688720703,1.7000000476837158 C-124.83899688720703,-28.215999603271484 -100.58699798583984,-52.46699905395508 -70.6719970703125,-52.46699905395508 C-40.75699996948242,-52.46699905395508 -16.5049991607666,-28.215999603271484 -16.5049991607666,1.7000000476837158z"/></g><g opacity="1" transform="matrix(1,0,0,1,0,0)"><path fill="rgb(1,1,1)" fill-opacity="1" d=" M-19.29400062561035,-3.9049999713897705 C-19.29400062561035,22.85300064086914 -42.27399826049805,44.54399871826172 -70.62200164794922,44.54399871826172 C-98.97000122070312,44.54399871826172 -121.94999694824219,22.85300064086914 -121.94999694824219,-3.9049999713897705 C-121.94999694824219,-30.663000106811523 -98.97000122070312,-52.35499954223633 -70.62200164794922,-52.35499954223633 C-42.27399826049805,-52.35499954223633 -19.29400062561035,-30.663000106811523 -19.29400062561035,-3.9049999713897705z"/></g><g opacity="0.35000000000000003" transform="matrix(1,0,0,1,0,0)"><path fill="rgb(255,255,255)" fill-opacity="1" d=" M-19.854000091552734,3.26200008392334 C-23.513999938964844,-20.097999572753906 -44.854000091552734,-38.02799987792969 -70.6240005493164,-38.02799987792969 C-96.39399719238281,-38.02799987792969 -117.73400115966797,-20.097999572753906 -121.39399719238281,3.26200008392334 C-129.5290069580078,-28.94300079345703 -98.9739990234375,-52.358001708984375 -70.6240005493164,-52.358001708984375 C-42.27399826049805,-52.358001708984375 -14.029000282287598,-28.56800079345703 -19.854000091552734,3.26200008392334z"/></g><g opacity="0" transform="matrix(1,0,0,1,0,0)"><path fill="rgb(255,255,255)" fill-opacity="1" d=" M-107.8239974975586,6.789000034332275 C-115.04499816894531,15.817000389099121 -96.65599822998047,45.59600067138672 -65.5,40.29199981689453 C-34.34400177001953,34.987998962402344 -31.496999740600586,14.312000274658203 -35.7140007019043,10.52299976348877 C-42.80500030517578,4.1519999504089355 -49.33300018310547,24.43899917602539 -77.20999908447266,20.159000396728516 C-89.45600128173828,18.27899932861328 -100.60299682617188,-2.239000082015991 -107.8239974975586,6.789000034332275z"/></g><g opacity="1" transform="matrix(1,0,0,1,0,0)"><path stroke-linecap="butt" stroke-linejoin="miter" fill-opacity="0" stroke-miterlimit="10" stroke="rgb(1,1,1)" stroke-opacity="1" stroke-width="6" d=" M-19.29400062561035,-3.9049999713897705 C-19.29400062561035,22.85300064086914 -42.27399826049805,44.54399871826172 -70.62200164794922,44.54399871826172 C-98.97000122070312,44.54399871826172 -121.94999694824219,22.85300064086914 -121.94999694824219,-3.9049999713897705 C-121.94999694824219,-30.663000106811523 -98.97000122070312,-52.35499954223633 -70.62200164794922,-52.35499954223633 C-42.27399826049805,-52.35499954223633 -19.29400062561035,-30.663000106811523 -19.29400062561035,-3.9049999713897705z"/></g><g opacity="1" transform="matrix(1,0,0,1,-0.0709991455078125,0.20800018310546875)"><g opacity="1" transform="matrix(1,0,0,1,0,0)"><path fill="rgb(255,255,255)" fill-opacity="1" d=" M-67.97699737548828,-3.997999906539917 C-81.3479995727539,6.3979997634887695 -98.43099975585938,6.795000076293945 -106.13300323486328,-3.1110000610351562 C-113.83499908447266,-13.017000198364258 -109.23999786376953,-29.47599983215332 -95.86900329589844,-39.87200164794922 C-82.49800109863281,-50.268001556396484 -65.41500091552734,-50.66400146484375 -57.7130012512207,-40.757999420166016 C-50.01100158691406,-30.851999282836914 -54.60599899291992,-14.394000053405762 -67.97699737548828,-3.997999906539917z"/></g><g opacity="1" transform="matrix(1,0,0,1,0,0)"><path fill="rgb(255,255,255)" fill-opacity="1" d=" M-50.1870002746582,22.29800033569336 C-55.472999572753906,26.408000946044922 -62.22600173950195,26.56399917602539 -65.27100372314453,22.648000717163086 C-68.31600189208984,18.73200035095215 -66.5,12.22599983215332 -61.2140007019043,8.116000175476074 C-55.928001403808594,4.00600004196167 -49.17499923706055,3.8499999046325684 -46.130001068115234,7.765999794006348 C-43.084999084472656,11.682000160217285 -44.9010009765625,18.187999725341797 -50.1870002746582,22.29800033569336z"/></g></g></g></g><g style="display: block;" transform="matrix(1.0329999923706055,0,0,1.0329999923706055,255.9995574951172,260.0007629394531)" opacity="1"><g opacity="1" transform="matrix(1,0,0,1,0,0)"><g opacity="1" transform="matrix(1,0,0,1,0,0)"><path fill="rgb(255,233,171)" fill-opacity="1" d=" M70.89700317382812,-107.94599914550781 C76.9469985961914,-110.88099670410156 82.05899810791016,-91.23500061035156 97.74600219726562,-79.0009994506836 C113.43299865722656,-66.76699829101562 126.55000305175781,-64.5250015258789 139.80299377441406,-58.691001892089844 C143.1020050048828,-57.23899841308594 141.28799438476562,-47.0620002746582 126.36499786376953,-49.05799865722656 C114.22799682617188,-50.680999755859375 96.40599822998047,-55.770999908447266 82.0739974975586,-70.22799682617188 C67.74199676513672,-84.68499755859375 62.53900146484375,-103.89099884033203 70.89700317382812,-107.94599914550781z"/></g><g opacity="1" transform="matrix(1,0,0,1,0,0)"><path fill="rgb(151,72,0)" fill-opacity="1" d=" M72.23600006103516,-108.60900115966797 C78.65399932861328,-110.61499786376953 83.74700164794922,-94.78600311279297 99.43399810791016,-82.552001953125 C115.12100219726562,-70.31800079345703 122.73899841308594,-67.35399627685547 136.07899475097656,-61.72100067138672 C143.27699279785156,-58.68199920654297 141.58599853515625,-50.85100173950195 128.05299377441406,-52.60900115966797 C115.91000366210938,-54.1870002746582 98.28199768066406,-60.25699996948242 83.94999694824219,-74.71399688720703 C69.61799621582031,-89.1709976196289 64.7300033569336,-106.26300048828125 72.23600006103516,-108.60900115966797z"/></g><g opacity="1" transform="matrix(1,0,0,1,0,0)"><path fill="rgb(99,41,0)" fill-opacity="1" d=" M68.75700378417969,-101.83599853515625 C69.33799743652344,-102.73999786376953 70.16999816894531,-103.39099884033203 71.2490005493164,-103.72799682617188 C77.67400360107422,-105.73200225830078 82.55400085449219,-89.63600158691406 98.4530029296875,-77.677001953125 C118.09600067138672,-62.9010009765625 136.53399658203125,-59.06800079345703 138.66000366210938,-54.07600021362305 C141.55599975585938,-56.236000061035156 140.46800231933594,-59.86899948120117 136.0760040283203,-61.72600173950195 C122.73600006103516,-67.35900115966797 115.12100219726562,-70.31300354003906 99.43399810791016,-82.5469970703125 C83.74700164794922,-94.78099822998047 78.65699768066406,-110.61100006103516 72.23200225830078,-108.60700225830078 C69.69000244140625,-107.81600189208984 68.57599639892578,-105.33499908447266 68.75700378417969,-101.83599853515625z"/></g></g><g opacity="1" transform="matrix(-1,0,0,1,1.6320037841796875,0)"><g opacity="1" transform="matrix(1,0,0,1,-0.48399999737739563,0)"><path fill="rgb(255,233,171)" fill-opacity="1" d=" M70.89700317382812,-107.94599914550781 C76.9469985961914,-110.88099670410156 82.05899810791016,-91.23500061035156 97.74600219726562,-79.0009994506836 C113.43299865722656,-66.76699829101562 126.55000305175781,-64.5250015258789 139.80299377441406,-58.691001892089844 C143.1020050048828,-57.23899841308594 141.28799438476562,-47.0620002746582 126.36499786376953,-49.05799865722656 C114.22799682617188,-50.680999755859375 96.40599822998047,-55.770999908447266 82.0739974975586,-70.22799682617188 C67.74199676513672,-84.68499755859375 62.53900146484375,-103.89099884033203 70.89700317382812,-107.94599914550781z"/></g><g opacity="1" transform="matrix(1,0,0,1,0,0)"><path fill="rgb(151,72,0)" fill-opacity="1" d=" M72.23600006103516,-108.60900115966797 C78.65399932861328,-110.61499786376953 83.74700164794922,-94.78600311279297 99.43399810791016,-82.552001953125 C115.12100219726562,-70.31800079345703 122.73899841308594,-67.35399627685547 136.07899475097656,-61.72100067138672 C143.27699279785156,-58.68199920654297 141.58599853515625,-50.85100173950195 128.05299377441406,-52.60900115966797 C115.91000366210938,-54.1870002746582 98.28199768066406,-60.25699996948242 83.94999694824219,-74.71399688720703 C69.61799621582031,-89.1709976196289 64.7300033569336,-106.26300048828125 72.23600006103516,-108.60900115966797z"/></g><g opacity="1" transform="matrix(1,0,0,1,0,0)"><path fill="rgb(99,41,0)" fill-opacity="1" d=" M68.75700378417969,-101.83599853515625 C69.33799743652344,-102.73999786376953 70.16999816894531,-103.39099884033203 71.2490005493164,-103.72799682617188 C77.67400360107422,-105.73200225830078 82.55400085449219,-89.63600158691406 98.4530029296875,-77.677001953125 C118.09600067138672,-62.9010009765625 136.53399658203125,-59.06800079345703 138.66000366210938,-54.07600021362305 C141.55599975585938,-56.236000061035156 140.46800231933594,-59.86899948120117 136.0760040283203,-61.72600173950195 C122.73600006103516,-67.35900115966797 115.12100219726562,-70.31300354003906 99.43399810791016,-82.5469970703125 C83.74700164794922,-94.78099822998047 78.65699768066406,-110.61100006103516 72.23200225830078,-108.60700225830078 C69.69000244140625,-107.81600189208984 68.57599639892578,-105.33499908447266 68.75700378417969,-101.83599853515625z"/></g></g></g><g style="display: block;" transform="matrix(-1.0329954624176025,0,0,1.0329954624176025,256.4906311035156,269.3236083984375)" opacity="1"><g opacity="1" transform="matrix(1,0,0,1,0,0)"><g opacity="0.6" transform="matrix(1,0,0,1,0,0)"><path fill="rgb(67,233,242)" fill-opacity="1" d=" M-102.74199676513672,32.893001556396484 C-102.5260009765625,41.32600021362305 -85.55799865722656,50.20899963378906 -66.49800109863281,49.62099838256836 C-43.13399887084961,48.9010009765625 -33.472999572753906,38.167999267578125 -33.44300079345703,32.0629997253418 C-33.40800094604492,24.85300064086914 -48.86000061035156,21.503000259399414 -67.12799835205078,21.527999877929688 C-90.34700012207031,21.468000411987305 -102.95800018310547,24.459999084472656 -102.74199676513672,32.893001556396484z"/><path stroke-linecap="butt" stroke-linejoin="miter" fill-opacity="0" stroke-miterlimit="10" stroke="rgb(36,168,187)" stroke-opacity="1" stroke-width="6" d=" M-102.74199676513672,32.893001556396484 C-102.5260009765625,41.32600021362305 -85.55799865722656,50.20899963378906 -66.49800109863281,49.62099838256836 C-43.13399887084961,48.9010009765625 -33.472999572753906,38.167999267578125 -33.44300079345703,32.0629997253418 C-33.40800094604492,24.85300064086914 -48.86000061035156,21.503000259399414 -67.12799835205078,21.527999877929688 C-90.34700012207031,21.468000411987305 -102.95800018310547,24.459999084472656 -102.74199676513672,32.893001556396484z"/></g><g opacity="0.7000000000000001" transform="matrix(1,0,0,1,0,0)"><path fill="rgb(255,255,255)" fill-opacity="1" d=" M-49.944000244140625,24.976999282836914 C-49.14899826049805,26.507999420166016 -57.89799880981445,29.239999771118164 -66.87699890136719,29.55900001525879 C-75.95999908447266,29.881999969482422 -85.05000305175781,27.416000366210938 -85.6989974975586,25.95800018310547 C-86.23200225830078,24.76099967956543 -77.50700378417969,24.683000564575195 -68.3759994506836,24.538000106811523 C-58.03099822998047,24.374000549316406 -50.560001373291016,23.79199981689453 -49.944000244140625,24.976999282836914z"/></g></g></g><g style="display: block;" transform="matrix(1.0329954624176025,0,0,1.0329954624176025,255.50860595703125,269.3235778808594)" opacity="1"><g opacity="1" transform="matrix(1,0,0,1,0,0)"><g opacity="0.6" transform="matrix(1,0,0,1,0,0)"><path fill="rgb(67,233,242)" fill-opacity="1" d=" M-102.74199676513672,32.893001556396484 C-102.5260009765625,41.32600021362305 -85.55799865722656,50.20899963378906 -66.49800109863281,49.62099838256836 C-43.13399887084961,48.9010009765625 -33.472999572753906,38.167999267578125 -33.44300079345703,32.0629997253418 C-33.40800094604492,24.85300064086914 -48.86000061035156,21.503000259399414 -67.12799835205078,21.527999877929688 C-90.34700012207031,21.468000411987305 -102.95800018310547,24.459999084472656 -102.74199676513672,32.893001556396484z"/><path stroke-linecap="butt" stroke-linejoin="miter" fill-opacity="0" stroke-miterlimit="10" stroke="rgb(36,168,187)" stroke-opacity="1" stroke-width="6" d=" M-102.74199676513672,32.893001556396484 C-102.5260009765625,41.32600021362305 -85.55799865722656,50.20899963378906 -66.49800109863281,49.62099838256836 C-43.13399887084961,48.9010009765625 -33.472999572753906,38.167999267578125 -33.44300079345703,32.0629997253418 C-33.40800094604492,24.85300064086914 -48.86000061035156,21.503000259399414 -67.12799835205078,21.527999877929688 C-90.34700012207031,21.468000411987305 -102.95800018310547,24.459999084472656 -102.74199676513672,32.893001556396484z"/></g><g opacity="0.7000000000000001" transform="matrix(1,0,0,1,0,0)"><path fill="rgb(255,255,255)" fill-opacity="1" d=" M-49.944000244140625,24.976999282836914 C-49.14899826049805,26.507999420166016 -57.89799880981445,29.239999771118164 -66.87699890136719,29.55900001525879 C-75.95999908447266,29.881999969482422 -85.05000305175781,27.416000366210938 -85.6989974975586,25.95800018310547 C-86.23200225830078,24.76099967956543 -77.50700378417969,24.683000564575195 -68.3759994506836,24.538000106811523 C-58.03099822998047,24.374000549316406 -50.560001373291016,23.79199981689453 -49.944000244140625,24.976999282836914z"/></g></g></g></g></svg>