<svg xmlns="http://www.w3.org/2000/svg" xmlns:xlink="http://www.w3.org/1999/xlink" viewBox="0 0 512 512" width="512" height="512" style="width: 100%; height: 100%; transform: translate3d(0,0,0);" preserveAspectRatio="xMidYMid meet"><defs><clipPath id="__lottie_element_9076"><rect width="512" height="512" x="0" y="0"/></clipPath><linearGradient id="__lottie_element_9095" spreadMethod="pad" gradientUnits="userSpaceOnUse" x1="-246" y1="1" x2="243" y2="0"><stop offset="0%" stop-color="rgb(0,0,0)"/><stop offset="25%" stop-color="rgb(0,0,0)"/><stop offset="50%" stop-color="rgb(0,0,0)"/><stop offset="75%" stop-color="rgb(0,0,0)"/><stop offset="100%" stop-color="rgb(0,0,0)"/></linearGradient><mask id="__lottie_element_9097"><path fill="url(#__lottie_element_9096)" d=" M-246.5,-145.5 C-246.5,-139 -246.5,144.218994140625 -246.5,146.593994140625 C-244.71200561523438,146.76499938964844 -241.55099487304688,147.5780029296875 -237.75900268554688,148.50999450683594 C-220.5,152.75 -191.07200622558594,159.75999450683594 -178.26499938964844,161.58399963378906 C-147.25,166 -127.13200378417969,165.62600708007812 -103.76799774169922,164.74600219726562 C-50.75,162.75 -4.125,146.125 27.19499969482422,139.3300018310547 C47.95800018310547,134.8249969482422 68.79000091552734,130.64500427246094 83.74700164794922,128.94000244140625 C106.25,126.375 122.875,126.75 143.25,128.35899353027344 C183.33700561523438,131.52499389648438 217.79400634765625,139.2030029296875 241.43800354003906,147.031005859375 C241.43800354003906,147.09300231933594 241.406005859375,147.09300231933594 241.406005859375,147.06199645996094 C241.406005859375,147.06199645996094 241.406005859375,147.06199645996094 241.406005859375,147.06199645996094 C241.56199645996094,120.56199645996094 241.23399353027344,82.29100036621094 241.25,49.90599822998047 C241.26600646972656,17.08300018310547 241.43699645996094,-15.739999771118164 241.5,-48.5629997253418 C241.56199645996094,-80.91699981689453 241.5,-128.75 241.625,-145.625 C151.281005859375,-172.5 103.15699768066406,-165.1009979248047 78.5,-162.81199645996094 C23.042999267578125,-156.04600524902344 -48.707000732421875,-130.79600524902344 -83.375,-129.06199645996094 C-157.875,-120.1240005493164 -212.75,-139.625 -246.5,-145.5z"/></mask><linearGradient id="__lottie_element_9096" spreadMethod="pad" gradientUnits="userSpaceOnUse" x1="-246" y1="1" x2="243" y2="0"><stop stop-color="rgb(255,255,255)" offset="0%" stop-opacity="1"/><stop stop-color="rgb(255,255,255)" offset="17%" stop-opacity="0.5"/><stop stop-color="rgb(255,255,255)" offset="33%" stop-opacity="0"/><stop stop-color="rgb(255,255,255)" offset="50%" stop-opacity="0"/><stop stop-color="rgb(255,255,255)" offset="66%" stop-opacity="0"/><stop stop-color="rgb(255,255,255)" offset="83%" stop-opacity="0.5"/><stop stop-color="rgb(255,255,255)" offset="100%" stop-opacity="1"/></linearGradient></defs><g clip-path="url(#__lottie_element_9076)"><g style="display: block;" transform="matrix(0.800000011920929,0,0,0.800000011920929,257.9656066894531,250.03680419921875)" opacity="1"><g opacity="1" transform="matrix(1,0,0,1,0,0)"><path fill="rgb(197,24,24)" fill-opacity="1" d=" M-246.5,-145.5 C-246.5,-140.80299377441406 -246.5,8.39900016784668 -246.5,91.6989974975586 C-246.5,123.6709976196289 241.23399353027344,82.29100036621094 241.25,49.90599822998047 C241.26600646972656,17.08300018310547 241.43699645996094,-15.739999771118164 241.5,-48.5629997253418 C241.56199645996094,-80.91699981689453 241.5,-128.75 241.625,-145.625 C151.281005859375,-172.5 103.15699768066406,-165.1009979248047 78.5,-162.81199645996094 C23.042999267578125,-156.04600524902344 -48.707000732421875,-130.79600524902344 -83.375,-129.06199645996094 C-157.875,-120.1240005493164 -212.75,-139.625 -246.5,-145.5z"/></g></g><g style="display: block;" transform="matrix(0.800000011920929,0,0,0.800000011920929,258.02239990234375,250.02880859375)" opacity="1"><g opacity="1" transform="matrix(1,0,0,1,0,0)"><path fill="rgb(24,152,24)" fill-opacity="1" d=" M-246.5,48.20399856567383 C-246.5,101.73200225830078 -246.5,145.6649932861328 -246.5,146.593994140625 C-244.71200561523438,146.76499938964844 -241.55099487304688,147.5780029296875 -237.75900268554688,148.50999450683594 C-220.5,152.75 -191.07200622558594,159.75999450683594 -178.26499938964844,161.58399963378906 C-147.25,166 -127.13200378417969,165.62600708007812 -103.76799774169922,164.74600219726562 C-50.75,162.75 -4.125,146.125 27.19499969482422,139.3300018310547 C47.95800018310547,134.8249969482422 68.79000091552734,130.64500427246094 83.74700164794922,128.94000244140625 C106.25,126.375 122.875,126.75 143.25,128.35899353027344 C183.33700561523438,131.52499389648438 218.41900634765625,139.32899475097656 241.43800354003906,147.031005859375 C241.43800354003906,147.093994140625 241.406005859375,147.09300231933594 241.406005859375,147.06199645996094 C241.406005859375,147.06199645996094 241.406005859375,147.06199645996094 241.406005859375,147.06199645996094 C241.56199645996094,120.56199645996094 241.23399353027344,82.29100036621094 241.25,49.90599822998047 C192.79299926757812,30.952999114990234 116.95899963378906,23.69499969482422 55.35599899291992,35.35499954223633 C23.792999267578125,41.32899856567383 -31.08099937438965,56.07899856567383 -73.03500366210938,63.36800003051758 C-106.5719985961914,69.19499969482422 -156.58099365234375,69.2040023803711 -203.0240020751953,58.18000030517578 C-221.2969970703125,53.84299850463867 -228.45599365234375,52.39099884033203 -234.78599548339844,50.972999572753906 C-240.1439971923828,49.70399856567383 -244.20700073242188,48.70399856567383 -246.5,48.20399856567383z"/></g></g><g style="display: block;" transform="matrix(0.800000011920929,0,0,0.800000011920929,230.5,40.52478790283203)" opacity="1"><g opacity="1" transform="matrix(1,0,0,1,34.617000579833984,261.8070068359375)"><g opacity="1" transform="matrix(1,0,0,1,0,0)"><path fill="rgb(255,255,255)" fill-opacity="1" d=" M-246.5,-145.5 C-246.5,-139 -246.5,144.218994140625 -246.5,146.593994140625 C-237.01199340820312,147.23800659179688 -229.40899658203125,150.18800354003906 -196.89599609375,157.63999938964844 C-196.6820068359375,137.27999877929688 -196.52999877929688,74.14299774169922 -196.10699462890625,10.038000106811523 C-195.72900390625,-47.20500183105469 -196.22000122070312,-105.21900177001953 -196.41700744628906,-134.23800659179688 C-216.12399291992188,-138.65899658203125 -221.83200073242188,-140.67100524902344 -246.5,-145.5z"/></g></g></g><g style="display: block;" transform="matrix(0.800000011920929,0,0,0.800000011920929,52.86721420288086,44.399986267089844)" opacity="1"><g opacity="1" transform="matrix(1,0,0,1,34.46799850463867,262.1910095214844)"><path fill="rgb(206,23,32)" fill-opacity="1" d=" M-4.105999946594238,-13.70199966430664 C-4.105999946594238,-13.70199966430664 -6.829999923706055,-12.425999641418457 -6.829999923706055,-12.425999641418457 C-6.829999923706055,-12.425999641418457 -1.809000015258789,-0.6380000114440918 -1.809000015258789,-0.6380000114440918 C-1.809000015258789,-0.6380000114440918 -6.659999847412109,9.446999549865723 -6.659999847412109,9.446999549865723 C-6.659999847412109,9.446999549865723 -4.14900016784668,11.914999961853027 -4.14900016784668,11.914999961853027 C-4.14900016784668,11.914999961853027 -0.19099999964237213,3.6600000858306885 -0.19099999964237213,3.6600000858306885 C-0.19099999964237213,3.6600000858306885 4.14900016784668,13.70199966430664 4.14900016784668,13.70199966430664 C4.14900016784668,13.70199966430664 6.829999923706055,12.553000450134277 6.829999923706055,12.553000450134277 C6.829999923706055,12.553000450134277 1.6380000114440918,0.4259999990463257 1.6380000114440918,0.4259999990463257 C1.6380000114440918,0.4259999990463257 6.829999923706055,-9.574000358581543 6.829999923706055,-9.574000358581543 C6.829999923706055,-9.574000358581543 4.14900016784668,-11.744999885559082 4.14900016784668,-11.744999885559082 C4.14900016784668,-11.744999885559082 0.020999999716877937,-3.9149999618530273 0.020999999716877937,-3.9149999618530273 C0.020999999716877937,-3.9149999618530273 -4.105999946594238,-13.70199966430664 -4.105999946594238,-13.70199966430664z"/></g><g opacity="1" transform="matrix(1,0,0,1,0,0)"><g opacity="1" transform="matrix(1,0,0,1,22.143999099731445,380.8559875488281)"><path fill="rgb(206,23,32)" fill-opacity="1" d=" M-0.25,-24.016000747680664 C-0.25,-24.016000747680664 -12.293000221252441,-3.132999897003174 -12.293000221252441,-3.132999897003174 C-12.293000221252441,-3.132999897003174 -0.03700000047683716,24.016000747680664 -0.03700000047683716,24.016000747680664 C-0.03700000047683716,24.016000747680664 12.293000221252441,2.9519999027252197 12.293000221252441,2.9519999027252197 C12.293000221252441,2.9519999027252197 -0.25,-24.016000747680664 -0.25,-24.016000747680664z M-6.664999961853027,-1.7389999628067017 C-6.664999961853027,-1.7389999628067017 -0.09000000357627869,-12.814000129699707 -0.09000000357627869,-12.814000129699707 C-0.09000000357627869,-12.814000129699707 6.484000205993652,1.1970000267028809 6.484000205993652,1.1970000267028809 C6.484000205993652,1.1970000267028809 -0.09000000357627869,12.814000129699707 -0.09000000357627869,12.814000129699707 C-0.09000000357627869,12.814000129699707 -6.664999961853027,-1.7389999628067017 -6.664999961853027,-1.7389999628067017z"/></g><g opacity="1" transform="matrix(1,0,0,1,15.616999626159668,345.489013671875)"><path fill="rgb(206,23,32)" fill-opacity="1" d=" M0.06400000303983688,11.809000015258789 C0.06400000303983688,11.809000015258789 5.979000091552734,1.3830000162124634 5.979000091552734,1.3830000162124634 C5.979000091552734,1.3830000162124634 -0.06400000303983688,-11.809000015258789 -0.06400000303983688,-11.809000015258789 C-0.06400000303983688,-11.809000015258789 -5.979000091552734,-1.4259999990463257 -5.979000091552734,-1.4259999990463257 C-5.979000091552734,-1.4259999990463257 0.06400000303983688,11.809000015258789 0.06400000303983688,11.809000015258789z M3.3399999141693115,0.5740000009536743 C3.3399999141693115,0.5740000009536743 -0.10599999874830246,6.14900016784668 -0.10599999874830246,6.14900016784668 C-0.10599999874830246,6.14900016784668 -3.255000114440918,-0.7450000047683716 -3.255000114440918,-0.7450000047683716 C-3.255000114440918,-0.7450000047683716 -0.10599999874830246,-6.14900016784668 -0.10599999874830246,-6.14900016784668 C-0.10599999874830246,-6.14900016784668 3.3399999141693115,0.5740000009536743 3.3399999141693115,0.5740000009536743z"/></g><g opacity="1" transform="matrix(1,0,0,1,11.538999557495117,352.3190002441406)"><path fill="rgb(206,23,32)" fill-opacity="1" d="M0 0"/></g><g opacity="1" transform="matrix(1,0,0,1,40.617000579833984,351.61700439453125)"><path fill="rgb(206,23,32)" fill-opacity="1" d=" M5.956999778747559,1.2130000591278076 C5.956999778747559,1.2130000591278076 -0.12800000607967377,-11.765999794006348 -0.12800000607967377,-11.765999794006348 C-0.12800000607967377,-11.765999794006348 -5.956999778747559,-1.3830000162124634 -5.956999778747559,-1.3830000162124634 C-5.956999778747559,-1.3830000162124634 -0.17000000178813934,11.765999794006348 -0.17000000178813934,11.765999794006348 C-0.17000000178813934,11.765999794006348 5.956999778747559,1.2130000591278076 5.956999778747559,1.2130000591278076z M-0.21299999952316284,-6.234000205993652 C-0.21299999952316284,-6.234000205993652 3.1059999465942383,0.5740000009536743 3.1059999465942383,0.5740000009536743 C3.1059999465942383,0.5740000009536743 -0.0430000014603138,6.2769999504089355 -0.0430000014603138,6.2769999504089355 C-0.0430000014603138,6.2769999504089355 -3.361999988555908,-0.7870000004768372 -3.361999988555908,-0.7870000004768372 C-3.361999988555908,-0.7870000004768372 -0.21299999952316284,-6.234000205993652 -0.21299999952316284,-6.234000205993652z"/></g><g opacity="1" transform="matrix(1,0,0,1,28.468000411987305,348.6600036621094)"><path fill="rgb(206,23,32)" fill-opacity="1" d=" M-6.020999908447266,-1.4040000438690186 C-6.020999908447266,-1.4040000438690186 -0.14900000393390656,11.871999740600586 -0.14900000393390656,11.871999740600586 C-0.14900000393390656,11.871999740600586 6.020999908447266,1.2769999504089355 6.020999908447266,1.2769999504089355 C6.020999908447266,1.2769999504089355 -0.23399999737739563,-11.871999740600586 -0.23399999737739563,-11.871999740600586 C-0.23399999737739563,-11.871999740600586 -6.020999908447266,-1.4040000438690186 -6.020999908447266,-1.4040000438690186z M-0.1080000028014183,6.01800012588501 C-0.1080000028014183,6.01800012588501 -3.382999897003174,-0.7229999899864197 -3.382999897003174,-0.7229999899864197 C-3.382999897003174,-0.7229999899864197 -0.1080000028014183,-6.3429999351501465 -0.1080000028014183,-6.3429999351501465 C-0.1080000028014183,-6.3429999351501465 3.2980000972747803,0.7229999899864197 3.2980000972747803,0.7229999899864197 C3.2980000972747803,0.7229999899864197 -0.1080000028014183,6.01800012588501 -0.1080000028014183,6.01800012588501z"/></g><g opacity="1" transform="matrix(1,0,0,1,53.319000244140625,354.4119873046875)"><path fill="rgb(206,23,32)" fill-opacity="1" d=" M0.10400000214576721,-11.852999687194824 C0.10400000214576721,-11.852999687194824 -5.979000091552734,-1.2419999837875366 -5.979000091552734,-1.2419999837875366 C-5.979000091552734,-1.2419999837875366 0.10400000214576721,11.852999687194824 0.10400000214576721,11.852999687194824 C0.10400000214576721,11.852999687194824 5.979000091552734,1.2259999513626099 5.979000091552734,1.2259999513626099 C5.979000091552734,1.2259999513626099 0.10400000214576721,-11.852999687194824 0.10400000214576721,-11.852999687194824z M-3.2130000591278076,-0.6039999723434448 C-3.2130000591278076,-0.6039999723434448 0.10400000214576721,-6.179999828338623 0.10400000214576721,-6.179999828338623 C0.10400000214576721,-6.179999828338623 3.3399999141693115,0.6729999780654907 3.3399999141693115,0.6729999780654907 C3.3399999141693115,0.6729999780654907 0.10400000214576721,6.179999828338623 0.10400000214576721,6.179999828338623 C0.10400000214576721,6.179999828338623 -3.2130000591278076,-0.6039999723434448 -3.2130000591278076,-0.6039999723434448z"/></g><g opacity="1" transform="matrix(1,0,0,1,47.01100158691406,386.63299560546875)"><path fill="rgb(206,23,32)" fill-opacity="1" d=" M-0.09600000083446503,-24.23900032043457 C-0.09600000083446503,-24.23900032043457 -12.574000358581543,-2.7929999828338623 -12.574000358581543,-2.7929999828338623 C-12.574000358581543,-2.7929999828338623 -0.03200000151991844,24.23900032043457 -0.03200000151991844,24.23900032043457 C-0.03200000151991844,24.23900032043457 12.574000358581543,2.6010000705718994 12.574000358581543,2.6010000705718994 C12.574000358581543,2.6010000705718994 -0.09600000083446503,-24.23900032043457 -0.09600000083446503,-24.23900032043457z M-6.670000076293945,-1.3880000114440918 C-6.670000076293945,-1.3880000114440918 -0.09600000083446503,-12.878000259399414 -0.09600000083446503,-12.878000259399414 C-0.09600000083446503,-12.878000259399414 6.605999946594238,1.5479999780654907 6.605999946594238,1.5479999780654907 C6.605999946594238,1.5479999780654907 0.09600000083446503,12.814000129699707 0.09600000083446503,12.814000129699707 C0.09600000083446503,12.814000129699707 -6.670000076293945,-1.3880000114440918 -6.670000076293945,-1.3880000114440918z"/></g><g opacity="1" transform="matrix(1,0,0,1,22.042999267578125,138.46800231933594)"><path fill="rgb(206,23,32)" fill-opacity="1" d=" M12.277000427246094,3.0850000381469727 C12.277000427246094,3.0850000381469727 -0.06400000303983688,-23.979000091552734 -0.06400000303983688,-23.979000091552734 C-0.06400000303983688,-23.979000091552734 -12.277000427246094,-2.871999979019165 -12.277000427246094,-2.871999979019165 C-12.277000427246094,-2.871999979019165 -0.06400000303983688,23.979000091552734 -0.06400000303983688,23.979000091552734 C-0.06400000303983688,23.979000091552734 12.277000427246094,3.0850000381469727 12.277000427246094,3.0850000381469727z M0.06400000303983688,-12.786999702453613 C0.06400000303983688,-12.786999702453613 6.617000102996826,1.5529999732971191 6.617000102996826,1.5529999732971191 C6.617000102996826,1.5529999732971191 -0.020999999716877937,12.744999885559082 -0.020999999716877937,12.744999885559082 C-0.020999999716877937,12.744999885559082 -6.659999847412109,-1.6380000114440918 -6.659999847412109,-1.6380000114440918 C-6.659999847412109,-1.6380000114440918 0.06400000303983688,-12.786999702453613 0.06400000303983688,-12.786999702453613z"/></g><g opacity="1" transform="matrix(1,0,0,1,15.574000358581543,170.61700439453125)"><path fill="rgb(206,23,32)" fill-opacity="1" d=" M-0.12800000607967377,11.680999755859375 C-0.12800000607967377,11.680999755859375 5.9679999351501465,1.2450000047683716 5.9679999351501465,1.2450000047683716 C5.9679999351501465,1.2450000047683716 -0.22300000488758087,-11.680999755859375 -0.22300000488758087,-11.680999755859375 C-0.22300000488758087,-11.680999755859375 -5.9679999351501465,-1.628000020980835 -5.9679999351501465,-1.628000020980835 C-5.9679999351501465,-1.628000020980835 -0.12800000607967377,11.680999755859375 -0.12800000607967377,11.680999755859375z M3.319000005722046,0.6380000114440918 C3.319000005722046,0.6380000114440918 -0.22300000488758087,6.2870001792907715 -0.22300000488758087,6.2870001792907715 C-0.22300000488758087,6.2870001792907715 -3.382999897003174,-0.8939999938011169 -3.382999897003174,-0.8939999938011169 C-3.382999897003174,-0.8939999938011169 -0.12800000607967377,-6.159999847412109 -0.12800000607967377,-6.159999847412109 C-0.12800000607967377,-6.159999847412109 3.319000005722046,0.6380000114440918 3.319000005722046,0.6380000114440918z"/></g><g opacity="1" transform="matrix(1,0,0,1,40.59600067138672,176.5850067138672)"><path fill="rgb(206,23,32)" fill-opacity="1" d=" M6,1.4040000438690186 C6,1.4040000438690186 0.06400000303983688,-11.744999885559082 0.06400000303983688,-11.744999885559082 C0.06400000303983688,-11.744999885559082 -6,-1.4040000438690186 -6,-1.4040000438690186 C-6,-1.4040000438690186 0.03200000151991844,11.744999885559082 0.03200000151991844,11.744999885559082 C0.03200000151991844,11.744999885559082 6,1.4040000438690186 6,1.4040000438690186z M-0.09600000083446503,-6.318999767303467 C-0.09600000083446503,-6.318999767303467 3.255000114440918,0.6380000114440918 3.255000114440918,0.6380000114440918 C3.255000114440918,0.6380000114440918 -0.06400000303983688,6.573999881744385 -0.06400000303983688,6.573999881744385 C-0.06400000303983688,6.573999881744385 -3.3510000705718994,-0.8939999938011169 -3.3510000705718994,-0.8939999938011169 C-3.3510000705718994,-0.8939999938011169 -0.09600000083446503,-6.318999767303467 -0.09600000083446503,-6.318999767303467z"/></g><g opacity="1" transform="matrix(1,0,0,1,28.38800048828125,173.79299926757812)"><path fill="rgb(206,23,32)" fill-opacity="1" d=" M-6.047999858856201,-1.3880000114440918 C-6.047999858856201,-1.3880000114440918 0.01600000075995922,11.855999946594238 0.01600000075995922,11.855999946594238 C0.01600000075995922,11.855999946594238 6.047999858856201,1.3559999465942383 6.047999858856201,1.3559999465942383 C6.047999858856201,1.3559999465942383 -0.1120000034570694,-11.855999946594238 -0.1120000034570694,-11.855999946594238 C-0.1120000034570694,-11.855999946594238 -6.047999858856201,-1.3880000114440918 -6.047999858856201,-1.3880000114440918z M-0.07999999821186066,6.302999973297119 C-0.07999999821186066,6.302999973297119 -3.239000082015991,-0.7820000052452087 -3.239000082015991,-0.7820000052452087 C-3.239000082015991,-0.7820000052452087 -0.01600000075995922,-6.206999778747559 -0.01600000075995922,-6.206999778747559 C-0.01600000075995922,-6.206999778747559 3.2709999084472656,0.5899999737739563 3.2709999084472656,0.5899999737739563 C3.2709999084472656,0.5899999737739563 -0.07999999821186066,6.302999973297119 -0.07999999821186066,6.302999973297119z"/></g><g opacity="1" transform="matrix(1,0,0,1,53.5369987487793,179.56900024414062)"><path fill="rgb(206,23,32)" fill-opacity="1" d=" M6.176000118255615,1.069000005722046 C6.176000118255615,1.069000005722046 -0.2070000022649765,-11.824000358581543 -0.2070000022649765,-11.824000358581543 C-0.2070000022649765,-11.824000358581543 -6.176000118255615,-1.4839999675750732 -6.176000118255615,-1.4839999675750732 C-6.176000118255615,-1.4839999675750732 -0.01600000075995922,11.824000358581543 -0.01600000075995922,11.824000358581543 C-0.01600000075995922,11.824000358581543 6.176000118255615,1.069000005722046 6.176000118255615,1.069000005722046z M-0.14399999380111694,-6.335000038146973 C-0.14399999380111694,-6.335000038146973 3.3989999294281006,0.5270000100135803 3.3989999294281006,0.5270000100135803 C3.3989999294281006,0.5270000100135803 -0.07999999821186066,6.238999843597412 -0.07999999821186066,6.238999843597412 C-0.07999999821186066,6.238999843597412 -3.3350000381469727,-0.7820000052452087 -3.3350000381469727,-0.7820000052452087 C-3.3350000381469727,-0.7820000052452087 -0.14399999380111694,-6.335000038146973 -0.14399999380111694,-6.335000038146973z"/></g><g opacity="1" transform="matrix(1,0,0,1,47.06399917602539,144.36199951171875)"><path fill="rgb(206,23,32)" fill-opacity="1" d=" M-0.23399999737739563,-24.2549991607666 C-0.23399999737739563,-24.2549991607666 -12.574000358581543,-2.8510000705718994 -12.574000358581543,-2.8510000705718994 C-12.574000358581543,-2.8510000705718994 -0.020999999716877937,24.2549991607666 -0.020999999716877937,24.2549991607666 C-0.020999999716877937,24.2549991607666 12.574000358581543,2.382999897003174 12.574000358581543,2.382999897003174 C12.574000358581543,2.382999897003174 -0.23399999737739563,-24.2549991607666 -0.23399999737739563,-24.2549991607666z M-6.7870001792907715,-1.531999945640564 C-6.7870001792907715,-1.531999945640564 -0.19099999964237213,-12.809000015258789 -0.19099999964237213,-12.809000015258789 C-0.19099999964237213,-12.809000015258789 6.488999843597412,1.2339999675750732 6.488999843597412,1.2339999675750732 C6.488999843597412,1.2339999675750732 -0.14900000393390656,12.935999870300293 -0.14900000393390656,12.935999870300293 C-0.14900000393390656,12.935999870300293 -6.7870001792907715,-1.531999945640564 -6.7870001792907715,-1.531999945640564z"/></g><g opacity="1" transform="matrix(1,0,0,1,34.624000549316406,262.510986328125)"><path fill="rgb(206,23,32)" fill-opacity="1" d=" M3.3550000190734863,-38.46799850463867 C3.3550000190734863,-38.46799850463867 12.482999801635742,-56.14899826049805 12.482999801635742,-56.14899826049805 C12.482999801635742,-56.14899826049805 17.014999389648438,-46.255001068115234 17.014999389648438,-46.255001068115234 C17.014999389648438,-46.255001068115234 13.567999839782715,-39.808998107910156 13.567999839782715,-39.808998107910156 C13.567999839782715,-39.808998107910156 18.865999221801758,-28.319000244140625 18.865999221801758,-28.319000244140625 C18.865999221801758,-28.319000244140625 25.100000381469727,-40.53200149536133 25.100000381469727,-40.53200149536133 C25.100000381469727,-40.53200149536133 25.077999114990234,-47.46799850463867 25.077999114990234,-47.46799850463867 C25.077999114990234,-47.46799850463867 13.39799976348877,-73.7229995727539 13.39799976348877,-73.7229995727539 C13.39799976348877,-73.7229995727539 -0.09200000017881393,-46.744998931884766 -0.09200000017881393,-46.744998931884766 C-0.09200000017881393,-46.744998931884766 -13.96399974822998,-79.93599700927734 -13.96399974822998,-79.93599700927734 C-13.96399974822998,-79.93599700927734 -25.06999969482422,-59.34000015258789 -25.06999969482422,-59.34000015258789 C-25.06999969482422,-59.34000015258789 -25.06999969482422,-51.084999084472656 -25.06999969482422,-51.084999084472656 C-25.06999969482422,-51.084999084472656 -18.815000534057617,-37.42599868774414 -18.815000534057617,-37.42599868774414 C-18.815000534057617,-37.42599868774414 -13.878999710083008,-46.53200149536133 -13.878999710083008,-46.53200149536133 C-13.878999710083008,-46.53200149536133 -17.240999221801758,-54.48899841308594 -17.240999221801758,-54.48899841308594 C-17.240999221801758,-54.48899841308594 -12.687999725341797,-62.10599899291992 -12.687999725341797,-62.10599899291992 C-12.687999725341797,-62.10599899291992 -3.2829999923706055,-39.87200164794922 -3.2829999923706055,-39.87200164794922 C-3.2829999923706055,-39.87200164794922 -17.166000366210938,-15.329999923706055 -17.166000366210938,-15.329999923706055 C-17.166000366210938,-15.329999923706055 -25.121000289916992,-30.082000732421875 -25.121000289916992,-30.082000732421875 C-25.121000289916992,-30.082000732421875 -25.113000869750977,-21.88800048828125 -25.113000869750977,-21.88800048828125 C-25.113000869750977,-21.88800048828125 -18.56999969482422,-10.255000114440918 -18.56999969482422,-10.255000114440918 C-18.56999969482422,-10.255000114440918 -18.729999542236328,1.4259999990463257 -18.729999542236328,1.4259999990463257 C-18.729999542236328,1.4259999990463257 -25.113000869750977,9.894000053405762 -25.113000869750977,9.894000053405762 C-25.113000869750977,9.894000053405762 -25.027999877929688,18.06399917602539 -25.027999877929688,18.06399917602539 C-25.027999877929688,18.06399917602539 -17.197999954223633,7.127999782562256 -17.197999954223633,7.127999782562256 C-17.197999954223633,7.127999782562256 -3.4110000133514404,38.191001892089844 -3.4110000133514404,38.191001892089844 C-3.4110000133514404,38.191001892089844 -12.685999870300293,56.191001892089844 -12.685999870300293,56.191001892089844 C-12.685999870300293,56.191001892089844 -17.240999221801758,46.14899826049805 -17.240999221801758,46.14899826049805 C-17.240999221801758,46.14899826049805 -13.793999671936035,39.63800048828125 -13.793999671936035,39.63800048828125 C-13.793999671936035,39.63800048828125 -19.06999969482422,28.14900016784668 -19.06999969482422,28.14900016784668 C-19.06999969482422,28.14900016784668 -25.06999969482422,39.553001403808594 -25.06999969482422,39.553001403808594 C-25.06999969482422,39.553001403808594 -25.06999969482422,47.34000015258789 -25.06999969482422,47.34000015258789 C-25.06999969482422,47.34000015258789 -13.62399959564209,73.2979965209961 -13.62399959564209,73.2979965209961 C-13.62399959564209,73.2979965209961 -0.1340000033378601,46.83000183105469 -0.1340000033378601,46.83000183105469 C-0.1340000033378601,46.83000183105469 13.73799991607666,79.93599700927734 13.73799991607666,79.93599700927734 C13.73799991607666,79.93599700927734 25.010000228881836,58.87200164794922 25.010000228881836,58.87200164794922 C25.010000228881836,58.87200164794922 25.010000228881836,51.553001403808594 25.010000228881836,51.553001403808594 C25.010000228881836,51.553001403808594 18.759000778198242,37.16999816894531 18.759000778198242,37.16999816894531 C18.759000778198242,37.16999816894531 13.609999656677246,46.319000244140625 13.609999656677246,46.319000244140625 C13.609999656677246,46.319000244140625 16.93000030517578,54.14899826049805 16.93000030517578,54.14899826049805 C16.93000030517578,54.14899826049805 12.503999710083008,61.89400100708008 12.503999710083008,61.89400100708008 C12.503999710083008,61.89400100708008 3.2699999809265137,39.979000091552734 3.2699999809265137,39.979000091552734 C3.2699999809265137,39.979000091552734 16.93000030517578,14.871999740600586 16.93000030517578,14.871999740600586 C16.93000030517578,14.871999740600586 25.077999114990234,30 25.077999114990234,30 C25.077999114990234,30 25.100000381469727,21.65999984741211 25.100000381469727,21.65999984741211 C25.100000381469727,21.65999984741211 18.354999542236328,10.074000358581543 18.354999542236328,10.074000358581543 C18.354999542236328,10.074000358581543 18.514999389648438,-1.5740000009536743 18.514999389648438,-1.5740000009536743 C18.514999389648438,-1.5740000009536743 25.05699920654297,-10.031999588012695 25.05699920654297,-10.031999588012695 C25.05699920654297,-10.031999588012695 25.121000289916992,-18.871999740600586 25.121000289916992,-18.871999740600586 C25.121000289916992,-18.871999740600586 16.822999954223633,-7.159999847412109 16.822999954223633,-7.159999847412109 C16.822999954223633,-7.159999847412109 3.3550000190734863,-38.46799850463867 3.3550000190734863,-38.46799850463867z M13.631999969482422,5.605999946594238 C13.631999969482422,5.605999946594238 -0.04899999871850014,31.128000259399414 -0.04899999871850014,31.128000259399414 C-0.04899999871850014,31.128000259399414 -13.708999633789062,0.06400000303983688 -13.708999633789062,0.06400000303983688 C-13.708999633789062,0.06400000303983688 -13.8149995803833,-6.488999843597412 -13.8149995803833,-6.488999843597412 C-13.8149995803833,-6.488999843597412 -0.15600000321865082,-31 -0.15600000321865082,-31 C-0.15600000321865082,-31 13.663999557495117,0.40400001406669617 13.663999557495117,0.40400001406669617 C13.663999557495117,0.40400001406669617 13.631999969482422,5.605999946594238 13.631999969482422,5.605999946594238z"/></g></g><g opacity="1" transform="matrix(1,0,0,1,0,0)"><path stroke-linecap="butt" stroke-linejoin="miter" fill-opacity="0" stroke-miterlimit="4" stroke="rgb(206,23,32)" stroke-opacity="1" stroke-width="2" d=" M34.70800018310547,120.29199981689453 C34.70800018310547,120.29199981689453 34.79199981689453,130.16700744628906 34.79199981689453,130.16700744628906"/></g><g opacity="1" transform="matrix(1,0,0,1,0,33.58300018310547)"><path stroke-linecap="butt" stroke-linejoin="miter" fill-opacity="0" stroke-miterlimit="4" stroke="rgb(206,23,32)" stroke-opacity="1" stroke-width="2" d=" M34.70800018310547,120.29199981689453 C34.70800018310547,120.29199981689453 34.79199981689453,129.02099609375 34.79199981689453,129.02099609375"/></g><g opacity="1" transform="matrix(1,0,0,1,0,66.5)"><path stroke-linecap="butt" stroke-linejoin="miter" fill-opacity="0" stroke-miterlimit="4" stroke="rgb(206,23,32)" stroke-opacity="1" stroke-width="2" d=" M34.70800018310547,120.29199981689453 C34.70800018310547,120.29199981689453 34.79199981689453,129.02099609375 34.79199981689453,129.02099609375"/></g><g opacity="1" transform="matrix(1,0,0,1,0,241.83299255371094)"><path stroke-linecap="butt" stroke-linejoin="miter" fill-opacity="0" stroke-miterlimit="4" stroke="rgb(206,23,32)" stroke-opacity="1" stroke-width="2" d=" M34.70800018310547,121.02100372314453 C34.70800018310547,121.02100372314453 34.79199981689453,129.43800354003906 34.79199981689453,129.43800354003906"/></g><g opacity="1" transform="matrix(1,0,0,1,0,274.75)"><path stroke-linecap="butt" stroke-linejoin="miter" fill-opacity="0" stroke-miterlimit="4" stroke="rgb(206,23,32)" stroke-opacity="1" stroke-width="2" d=" M34.70800018310547,120.60399627685547 C34.70800018310547,120.60399627685547 34.79199981689453,130.47900390625 34.79199981689453,130.47900390625"/></g><g opacity="1" transform="matrix(1,0,0,1,0,208.25)"><path stroke-linecap="butt" stroke-linejoin="miter" fill-opacity="0" stroke-miterlimit="4" stroke="rgb(206,23,32)" stroke-opacity="1" stroke-width="2" d=" M34.70800018310547,121.43800354003906 C34.70800018310547,121.43800354003906 34.79199981689453,130.27099609375 34.79199981689453,130.27099609375"/></g><g opacity="1" transform="matrix(1,0,0,1,0,157.25)"><path stroke-linecap="butt" stroke-linejoin="miter" fill-opacity="0" stroke-miterlimit="4" stroke="rgb(206,23,32)" stroke-opacity="1" stroke-width="2" d=" M34.70800018310547,121.43800354003906 C34.70800018310547,121.43800354003906 34.75,126.79199981689453 34.75,126.79199981689453"/></g><g opacity="1" transform="matrix(1,0,0,1,0,119.83300018310547)"><path stroke-linecap="butt" stroke-linejoin="miter" fill-opacity="0" stroke-miterlimit="4" stroke="rgb(206,23,32)" stroke-opacity="1" stroke-width="2" d=" M34.70800018310547,121.43800354003906 C34.70800018310547,121.43800354003906 34.75,126.79199981689453 34.75,126.79199981689453"/></g><g opacity="1" transform="matrix(1,0,0,1,-8.416999816894531,136.58299255371094)"><path stroke-linecap="butt" stroke-linejoin="miter" fill-opacity="0" stroke-miterlimit="4" stroke="rgb(206,23,32)" stroke-opacity="1" stroke-width="2" d=" M34.70800018310547,121.43800354003906 C34.70800018310547,121.43800354003906 34.75,126.79199981689453 34.75,126.79199981689453"/></g><g opacity="1" transform="matrix(1,0,0,1,8.5,140.58299255371094)"><path stroke-linecap="butt" stroke-linejoin="miter" fill-opacity="0" stroke-miterlimit="4" stroke="rgb(206,23,32)" stroke-opacity="1" stroke-width="2" d=" M34.70800018310547,121.43800354003906 C34.70800018310547,121.43800354003906 34.75,126.79199981689453 34.75,126.79199981689453"/></g><g opacity="1" transform="matrix(1,0,0,1,12.25,262.75)"><path stroke-linecap="butt" stroke-linejoin="miter" fill-opacity="0" stroke-miterlimit="4" stroke="rgb(206,23,32)" stroke-opacity="1" stroke-width="3" d=" M34.70800018310547,121.33300018310547 C34.70800018310547,121.33300018310547 34.75,126.68800354003906 34.75,126.68800354003906"/></g><g opacity="1" transform="matrix(1,0,0,1,-12.75,256.8330078125)"><path stroke-linecap="butt" stroke-linejoin="miter" fill-opacity="0" stroke-miterlimit="4" stroke="rgb(206,23,32)" stroke-opacity="1" stroke-width="3" d=" M34.70800018310547,121.33300018310547 C34.70800018310547,121.33300018310547 34.75,126.68800354003906 34.75,126.68800354003906"/></g><g opacity="1" transform="matrix(1,0,0,1,12.416999816894531,20.41699981689453)"><path stroke-linecap="butt" stroke-linejoin="miter" fill-opacity="0" stroke-miterlimit="4" stroke="rgb(206,23,32)" stroke-opacity="1" stroke-width="3" d=" M34.70800018310547,121.33300018310547 C34.70800018310547,121.33300018310547 34.75,126.68800354003906 34.75,126.68800354003906"/></g><g opacity="1" transform="matrix(1,0,0,1,-12.583000183105469,14.5)"><path stroke-linecap="butt" stroke-linejoin="miter" fill-opacity="0" stroke-miterlimit="4" stroke="rgb(206,23,32)" stroke-opacity="1" stroke-width="3" d=" M34.70800018310547,121.33300018310547 C34.70800018310547,121.33300018310547 34.75,126.68800354003906 34.75,126.68800354003906"/></g><g opacity="1" transform="matrix(1,0,0,1,24.08300018310547,5.75)"><path stroke-linecap="butt" stroke-linejoin="miter" fill-opacity="0" stroke-miterlimit="4" stroke="rgb(206,23,32)" stroke-opacity="1" stroke-width="3" d=" M34.70800018310547,121.33300018310547 C34.70800018310547,121.33300018310547 34.75,127.31300354003906 34.75,127.31300354003906"/></g><g opacity="1" transform="matrix(1,0,0,1,24.08300018310547,37.25)"><path stroke-linecap="butt" stroke-linejoin="miter" fill-opacity="0" stroke-miterlimit="4" stroke="rgb(206,23,32)" stroke-opacity="1" stroke-width="3" d=" M34.70800018310547,121.33300018310547 C34.70800018310547,121.33300018310547 34.75,127.41699981689453 34.75,127.41699981689453"/></g><g opacity="1" transform="matrix(1,0,0,1,24.08300018310547,72.33300018310547)"><path stroke-linecap="butt" stroke-linejoin="miter" fill-opacity="0" stroke-miterlimit="4" stroke="rgb(206,23,32)" stroke-opacity="1" stroke-width="3" d=" M34.70800018310547,121.33300018310547 C34.70800018310547,121.33300018310547 34.75,127.625 34.75,127.625"/></g><g opacity="1" transform="matrix(1,0,0,1,24.08300018310547,109.58300018310547)"><path stroke-linecap="butt" stroke-linejoin="miter" fill-opacity="0" stroke-miterlimit="4" stroke="rgb(206,23,32)" stroke-opacity="1" stroke-width="3" d=" M34.70800018310547,121.33300018310547 C34.70800018310547,121.33300018310547 34.75,127.625 34.75,127.625"/></g><g opacity="1" transform="matrix(1,0,0,1,24.08300018310547,177.75)"><path stroke-linecap="butt" stroke-linejoin="miter" fill-opacity="0" stroke-miterlimit="4" stroke="rgb(206,23,32)" stroke-opacity="1" stroke-width="3" d=" M34.70800018310547,121.125 C34.70800018310547,121.125 34.75,127.52100372314453 34.75,127.52100372314453"/></g><g opacity="1" transform="matrix(1,0,0,1,24.08300018310547,209.25)"><path stroke-linecap="butt" stroke-linejoin="miter" fill-opacity="0" stroke-miterlimit="4" stroke="rgb(206,23,32)" stroke-opacity="1" stroke-width="3" d=" M34.75,126.68800354003906 C34.75,126.68800354003906 34.79199981689453,132.875 34.79199981689453,132.875"/></g><g opacity="1" transform="matrix(1,0,0,1,24.08300018310547,244.33299255371094)"><path stroke-linecap="butt" stroke-linejoin="miter" fill-opacity="0" stroke-miterlimit="4" stroke="rgb(206,23,32)" stroke-opacity="1" stroke-width="3" d=" M34.75,126.875 C34.75,126.875 34.79199981689453,133.16700744628906 34.79199981689453,133.16700744628906"/></g><g opacity="1" transform="matrix(1,0,0,1,24.08300018310547,281.5830078125)"><path stroke-linecap="butt" stroke-linejoin="miter" fill-opacity="0" stroke-miterlimit="4" stroke="rgb(206,23,32)" stroke-opacity="1" stroke-width="3" d=" M34.70800018310547,121.125 C34.70800018310547,121.125 34.75,127.625 34.75,127.625"/></g></g><g style="display: block;" transform="matrix(0.800000011920929,0,0,0.800000011920929,257.9656066894531,250.03680419921875)" opacity="0.35000000000000003"><g opacity="1" transform="matrix(1,0,0,1,0,0)"><path fill="url(#__lottie_element_9095)" mask="url(#__lottie_element_9097)" fill-opacity="1" d="M0 0 M-246.5,-145.5 C-246.5,-139 -246.5,144.218994140625 -246.5,146.593994140625 C-244.71200561523438,146.76499938964844 -241.55099487304688,147.5780029296875 -237.75900268554688,148.50999450683594 C-220.5,152.75 -191.07200622558594,159.75999450683594 -178.26499938964844,161.58399963378906 C-147.25,166 -127.13200378417969,165.62600708007812 -103.76799774169922,164.74600219726562 C-50.75,162.75 -4.125,146.125 27.19499969482422,139.3300018310547 C47.95800018310547,134.8249969482422 68.79000091552734,130.64500427246094 83.74700164794922,128.94000244140625 C106.25,126.375 122.875,126.75 143.25,128.35899353027344 C183.33700561523438,131.52499389648438 217.79400634765625,139.2030029296875 241.43800354003906,147.031005859375 C241.43800354003906,147.09300231933594 241.406005859375,147.09300231933594 241.406005859375,147.06199645996094 C241.406005859375,147.06199645996094 241.406005859375,147.06199645996094 241.406005859375,147.06199645996094 C241.56199645996094,120.56199645996094 241.23399353027344,82.29100036621094 241.25,49.90599822998047 C241.26600646972656,17.08300018310547 241.43699645996094,-15.739999771118164 241.5,-48.5629997253418 C241.56199645996094,-80.91699981689453 241.5,-128.75 241.625,-145.625 C151.281005859375,-172.5 103.15699768066406,-165.1009979248047 78.5,-162.81199645996094 C23.042999267578125,-156.04600524902344 -48.707000732421875,-130.79600524902344 -83.375,-129.06199645996094 C-157.875,-120.1240005493164 -212.75,-139.625 -246.5,-145.5z"/></g></g><g style="display: block;" transform="matrix(0.800000011920929,0,0,0.800000011920929,257.9656066894531,250.03680419921875)" opacity="0.15"><g opacity="1" transform="matrix(1,0,0,1,0,0)"><path fill="rgb(255,255,255)" fill-opacity="1" d=" M-246.875,-146 C-246.83700561523438,-139.70399475097656 -246.875,-138 -246.79200744628906,-132.81100463867188 C-237.5,-136.25 -197.25,-114 -124.49600219726562,-114.31099700927734 C-38.992000579833984,-114.6760025024414 39.233001708984375,-153.25 121.70800018310547,-153.39700317382812 C179.75,-153.5 241,-132.25 240.91200256347656,-131.552001953125 C241,-140.5 241.375,-144.625 241.375,-144.625 C241.375,-144.625 179.75,-166.25 122.5,-166 C39.49700164794922,-165.63800048828125 -39.5,-128 -124.25,-126.81199645996094 C-197.0449981689453,-125.79199981689453 -237.75,-149 -246.875,-146z"/></g></g><g style="display: block;" transform="matrix(0.800000011920929,0,0,0.800000011920929,257.9656066894531,250.03680419921875)" opacity="0.15"><g opacity="1" transform="matrix(1,0,0,1,0,0)"><path fill="rgb(0,0,0)" fill-opacity="1" d=" M122.5,112.25 C34,112.25 -36,149.5 -123.5,152 C-140.61700439453125,152.48899841308594 -155.82000732421875,151.3489990234375 -170.41099548339844,149.1280059814453 C-195.23399353027344,145.35000610351562 -218.28900146484375,138.4459991455078 -246,131.125 C-246.25,134.5 -246,141.375 -246,145.125 C-218.5749969482422,153.30599975585938 -195.61700439453125,159.55499267578125 -170.83099365234375,163.0050048828125 C-155.8520050048828,165.08999633789062 -140.20399475097656,166.15199279785156 -122.5,166 C-35,165.25 33.5,126.625 121.75,126.5 C126.26799774169922,126.49400329589844 131.11399841308594,126.59500122070312 136.27699279785156,126.83899688720703 C163.25900268554688,128.11300659179688 198.88099670410156,133.2550048828125 241.375,147 C241.375,147 241.25,134.75 241.5,131.125 C199.093994140625,118.93299865722656 163.16200256347656,113.84500122070312 136.1439971923828,112.58000183105469 C131.30499267578125,112.35399627685547 126.75299835205078,112.25 122.5,112.25z"/></g></g><g style="display: block;" transform="matrix(0.800000011920929,0,0,0.800000011920929,257.9656066894531,250.03680419921875)" opacity="0.96"><g opacity="1" transform="matrix(1,0,0,1,0,0)"><path stroke-linecap="round" stroke-linejoin="round" fill-opacity="0" stroke="rgb(96,12,12)" stroke-opacity="1" stroke-width="8" d=" M241.25,49.90599822998047 C241.26600646972656,17.08300018310547 241.43699645996094,-15.739999771118164 241.5,-48.5629997253418 C241.56199645996094,-80.91699981689453 241.5,-128.75 241.625,-145.625 C151.281005859375,-172.5 103.15699768066406,-165.1009979248047 78.5,-162.81199645996094 C23.042999267578125,-156.04600524902344 -48.707000732421875,-130.79600524902344 -83.375,-129.06199645996094 C-134.0189971923828,-124.73300170898438 -161.81300354003906,-128.375 -195.56300354003906,-134.25"/></g><g opacity="1" transform="matrix(1,0,0,1,0,0)"><path stroke-linecap="round" stroke-linejoin="round" fill-opacity="0" stroke="rgb(7,69,0)" stroke-opacity="1" stroke-width="8" d=" M-196.8209991455078,157.57200622558594 C-194.0189971923828,158.39100646972656 -191.07200622558594,159.75999450683594 -178.26499938964844,161.58399963378906 C-147.25,166 -127.13200378417969,165.62600708007812 -103.76799774169922,164.74600219726562 C-50.75,162.75 -4.125,146.125 27.19499969482422,139.3300018310547 C47.95800018310547,134.8249969482422 68.79000091552734,130.64500427246094 83.74700164794922,128.94000244140625 C106.25,126.375 122.875,126.75 143.25,128.35899353027344 C183.33700561523438,131.52499389648438 217.79299926757812,139.2030029296875 241.43699645996094,147.031005859375 C241.43699645996094,147.09300231933594 241.406005859375,147.09300231933594 241.406005859375,147.06199645996094 C241.406005859375,147.06199645996094 241.406005859375,147.06199645996094 241.406005859375,147.06199645996094 C241.56199645996094,120.56199645996094 241.23399353027344,82.29100036621094 241.25,49.90599822998047"/></g><g opacity="1" transform="matrix(1,0,0,1,0,0)"><path stroke-linecap="butt" stroke-linejoin="round" fill-opacity="0" stroke="rgb(116,116,116)" stroke-opacity="1" stroke-width="8" d=" M-195.25,-134.23800659179688 C-214.95700073242188,-138.65899658203125 -221.83200073242188,-140.67100524902344 -246.5,-145.5 C-246.5,-139 -246.5,144.218994140625 -246.5,146.593994140625 C-237.01199340820312,147.23800659179688 -229.40899658203125,150.18800354003906 -196.89599609375,157.63999938964844"/></g></g></g></svg>