<svg xmlns="http://www.w3.org/2000/svg" xmlns:xlink="http://www.w3.org/1999/xlink" viewBox="0 0 512 512" width="512" height="512" style="width: 100%; height: 100%; transform: translate3d(0,0,0);" preserveAspectRatio="xMidYMid meet"><defs><clipPath id="__lottie_element_27000"><rect width="512" height="512" x="0" y="0"/></clipPath><linearGradient id="__lottie_element_27007" spreadMethod="pad" gradientUnits="userSpaceOnUse" x1="-1.281999945640564" y1="-170.21499633789062" x2="-0.4909999966621399" y2="183.20899963378906"><stop offset="0%" stop-color="rgb(253,207,24)"/><stop offset="47%" stop-color="rgb(245,171,12)"/><stop offset="93%" stop-color="rgb(237,135,0)"/></linearGradient><radialGradient id="__lottie_element_27008" spreadMethod="pad" gradientUnits="userSpaceOnUse" cx="-5.072999954223633" cy="-153.83799743652344" r="329.1348774236697" fx="-5.072999954223633" fy="-153.83799743652344"><stop offset="7%" stop-color="rgb(254,254,226)"/><stop offset="28%" stop-color="rgb(253,238,140)"/><stop offset="49%" stop-color="rgb(252,222,54)"/><stop offset="82%" stop-color="rgb(245,184,32)"/><stop offset="100%" stop-color="rgb(238,145,10)"/></radialGradient><linearGradient id="__lottie_element_27031" spreadMethod="pad" gradientUnits="userSpaceOnUse" x1="-1.281999945640564" y1="-170.21499633789062" x2="-0.4909999966621399" y2="183.20899963378906"><stop offset="0%" stop-color="rgb(253,207,24)"/><stop offset="47%" stop-color="rgb(245,171,12)"/><stop offset="93%" stop-color="rgb(237,135,0)"/></linearGradient><linearGradient id="__lottie_element_27035" spreadMethod="pad" gradientUnits="userSpaceOnUse" x1="-1.281999945640564" y1="-170.21499633789062" x2="-0.4909999966621399" y2="183.20899963378906"><stop offset="0%" stop-color="rgb(250,214,73)"/><stop offset="47%" stop-color="rgb(244,181,50)"/><stop offset="93%" stop-color="rgb(239,148,27)"/></linearGradient><linearGradient id="__lottie_element_27039" spreadMethod="pad" gradientUnits="userSpaceOnUse" x1="78.9489974975586" y1="180.86199951171875" x2="192.71800231933594" y2="87.1969985961914"><stop offset="0%" stop-color="rgb(112,112,112)" stop-opacity="0"/><stop offset="13%" stop-color="rgb(112,112,112)" stop-opacity="0.5"/><stop offset="50%" stop-color="rgb(112,112,112)" stop-opacity="1"/><stop offset="88%" stop-color="rgb(112,112,112)" stop-opacity="0.5"/><stop offset="100%" stop-color="rgb(112,112,112)" stop-opacity="0"/></linearGradient><linearGradient id="__lottie_element_27040" spreadMethod="pad" gradientUnits="userSpaceOnUse" x1="112.05599975585938" y1="189.49200439453125" x2="193.31199645996094" y2="112.12899780273438"><stop offset="0%" stop-color="rgb(112,112,112)" stop-opacity="0"/><stop offset="13%" stop-color="rgb(112,112,112)" stop-opacity="0.5"/><stop offset="50%" stop-color="rgb(112,112,112)" stop-opacity="1"/><stop offset="88%" stop-color="rgb(112,112,112)" stop-opacity="0.5"/><stop offset="100%" stop-color="rgb(112,112,112)" stop-opacity="0"/></linearGradient><linearGradient id="__lottie_element_27044" spreadMethod="pad" gradientUnits="userSpaceOnUse" x1="78.9489974975586" y1="180.86199951171875" x2="192.71800231933594" y2="87.1969985961914"><stop offset="0%" stop-color="rgb(112,112,112)" stop-opacity="0"/><stop offset="13%" stop-color="rgb(112,112,112)" stop-opacity="0.5"/><stop offset="50%" stop-color="rgb(112,112,112)" stop-opacity="1"/><stop offset="88%" stop-color="rgb(112,112,112)" stop-opacity="0.5"/><stop offset="100%" stop-color="rgb(112,112,112)" stop-opacity="0"/></linearGradient><linearGradient id="__lottie_element_27045" spreadMethod="pad" gradientUnits="userSpaceOnUse" x1="112.05599975585938" y1="189.49200439453125" x2="193.31199645996094" y2="112.12899780273438"><stop offset="0%" stop-color="rgb(112,112,112)" stop-opacity="0"/><stop offset="13%" stop-color="rgb(112,112,112)" stop-opacity="0.5"/><stop offset="50%" stop-color="rgb(112,112,112)" stop-opacity="1"/><stop offset="88%" stop-color="rgb(112,112,112)" stop-opacity="0.5"/><stop offset="100%" stop-color="rgb(112,112,112)" stop-opacity="0"/></linearGradient></defs><g clip-path="url(#__lottie_element_27000)"><g style="display: block;" transform="matrix(1.2000000476837158,0,0,1.2000000476837158,250.335205078125,251.85260009765625)" opacity="1"><g opacity="1" transform="matrix(0.9995021820068359,0.031550318002700806,-0.031550318002700806,0.9995021820068359,4.4867401123046875,-4.34735107421875)"><g opacity="1" transform="matrix(1,0,0,1,0,0)"><path fill="url(#__lottie_element_27044)" fill-opacity="1" d=" M182.79400634765625,76.02999877929688 C182.79400634765625,76.02999877929688 192.04600524902344,79.8239974975586 192.04600524902344,79.8239974975586 C171.03500366210938,131.07200622558594 129.76699829101562,171.36700439453125 78.82499694824219,190.3769989013672 C78.82499694824219,190.3769989013672 75.3290023803711,181.0070037841797 75.3290023803711,181.0070037841797 C123.66699981689453,162.968994140625 162.83599853515625,124.70700073242188 182.79400634765625,76.02999877929688z"/></g><g opacity="1" transform="matrix(1,0,0,1,0,0)"><path fill="url(#__lottie_element_27045)" fill-opacity="1" d=" M191.23899841308594,107.45800018310547 C191.23899841308594,107.45800018310547 200.16600036621094,111.96399688720703 200.16600036621094,111.96399688720703 C180.38299560546875,151.16299438476562 147.9219970703125,182.97900390625 108.76300048828125,201.5540008544922 C108.76300048828125,201.5540008544922 104.47699737548828,192.5189971923828 104.47699737548828,192.5189971923828 C141.63900756835938,174.89199829101562 172.45199584960938,144.68299865722656 191.23899841308594,107.45800018310547z"/></g></g></g><g style="display: block;" transform="matrix(1.2000000476837158,0,0,1.2000000476837158,250.3350067138672,251.85299682617188)" opacity="1"><g opacity="1" transform="matrix(-0.9984562993049622,-0.055542685091495514,0.055542685091495514,-0.9984562993049622,3.4658966064453125,13.809860229492188)"><g opacity="1" transform="matrix(1,0,0,1,0,0)"><path fill="url(#__lottie_element_27039)" fill-opacity="1" d=" M182.79400634765625,76.02999877929688 C182.79400634765625,76.02999877929688 192.04600524902344,79.8239974975586 192.04600524902344,79.8239974975586 C171.03500366210938,131.07200622558594 129.76699829101562,171.36700439453125 78.82499694824219,190.3769989013672 C78.82499694824219,190.3769989013672 75.3290023803711,181.0070037841797 75.3290023803711,181.0070037841797 C123.66699981689453,162.968994140625 162.83599853515625,124.70700073242188 182.79400634765625,76.02999877929688z"/></g><g opacity="1" transform="matrix(1,0,0,1,0,0)"><path fill="url(#__lottie_element_27040)" fill-opacity="1" d=" M191.23899841308594,107.45800018310547 C191.23899841308594,107.45800018310547 200.16600036621094,111.96399688720703 200.16600036621094,111.96399688720703 C180.38299560546875,151.16299438476562 147.9219970703125,182.97900390625 108.76300048828125,201.5540008544922 C108.76300048828125,201.5540008544922 104.47699737548828,192.5189971923828 104.47699737548828,192.5189971923828 C141.63900756835938,174.89199829101562 172.45199584960938,144.68299865722656 191.23899841308594,107.45800018310547z"/></g></g></g><g style="display: block;" transform="matrix(0.9862467050552368,0.3204509913921356,-0.3189041316509247,0.9814859628677368,116.94258880615234,-16.422439575195312)" opacity="0.55"><g opacity="1" transform="matrix(1,0,0,1,208.875,208.875)"><path fill="url(#__lottie_element_27035)" fill-opacity="1" d=" M211.18600463867188,0 C211.18600463867188,106.37899780273438 134.13699340820312,191.73699951171875 0,192.61599731445312 C-120.22100067138672,193.4040069580078 -211.18600463867188,106.37899780273438 -211.18600463867188,0 C-211.18600463867188,-106.37899780273438 -116.63500213623047,-192.61599731445312 0,-192.61599731445312 C116.63400268554688,-192.61599731445312 211.18600463867188,-106.37899780273438 211.18600463867188,0z"/><path stroke-linecap="butt" stroke-linejoin="miter" fill-opacity="0" stroke-miterlimit="4" stroke="rgb(229,127,6)" stroke-opacity="1" stroke-width="8" d=" M211.18600463867188,0 C211.18600463867188,106.37899780273438 134.13699340820312,191.73699951171875 0,192.61599731445312 C-120.22100067138672,193.4040069580078 -211.18600463867188,106.37899780273438 -211.18600463867188,0 C-211.18600463867188,-106.37899780273438 -116.63500213623047,-192.61599731445312 0,-192.61599731445312 C116.63400268554688,-192.61599731445312 211.18600463867188,-106.37899780273438 211.18600463867188,0z"/></g></g><g style="display: block;" transform="matrix(0.9862467050552368,0.3204509913921356,-0.3189041316509247,0.9814859628677368,116.94258880615234,-16.422439575195312)" opacity="0.55"><g opacity="1" transform="matrix(1,0,0,1,208.875,208.875)"><path fill="url(#__lottie_element_27031)" fill-opacity="1" d=" M199.98199462890625,0 C199.98199462890625,106.56400299072266 110.44599914550781,192.9510040283203 0,192.9510040283203 C-110.4469985961914,192.9510040283203 -199.98199462890625,106.56400299072266 -199.98199462890625,0 C-199.98199462890625,-106.56400299072266 -110.4469985961914,-192.9510040283203 0,-192.9510040283203 C110.44599914550781,-192.9510040283203 199.98199462890625,-106.56400299072266 199.98199462890625,0z"/><path stroke-linecap="butt" stroke-linejoin="miter" fill-opacity="0" stroke-miterlimit="4" stroke="rgb(229,113,16)" stroke-opacity="1" stroke-width="8" d=" M199.98199462890625,0 C199.98199462890625,106.56400299072266 110.44599914550781,192.9510040283203 0,192.9510040283203 C-110.4469985961914,192.9510040283203 -199.98199462890625,106.56400299072266 -199.98199462890625,0 C-199.98199462890625,-106.56400299072266 -110.4469985961914,-192.9510040283203 0,-192.9510040283203 C110.44599914550781,-192.9510040283203 199.98199462890625,-106.56400299072266 199.98199462890625,0z"/></g></g><g style="display: block;" transform="matrix(0.9836302399635315,0.3196008503437042,-0.3196008503437042,0.9836302399635315,117.63463592529297,-16.692747116088867)" opacity="1"><g opacity="1" transform="matrix(1,0,0,1,208.875,208.875)"><path fill="url(#__lottie_element_27007)" fill-opacity="1" d=" M188.875,0 C188.875,104.31300354003906 104.31199645996094,188.875 0,188.875 C-104.31300354003906,188.875 -188.875,104.31300354003906 -188.875,0 C-188.875,-104.31300354003906 -104.31300354003906,-188.875 0,-188.875 C104.31199645996094,-188.875 188.875,-104.31300354003906 188.875,0z"/><path stroke-linecap="butt" stroke-linejoin="miter" fill-opacity="0" stroke-miterlimit="4" stroke="rgb(233,121,27)" stroke-opacity="0.8200000000000001" stroke-width="8" d=" M188.875,0 C188.875,104.31300354003906 104.31199645996094,188.875 0,188.875 C-104.31300354003906,188.875 -188.875,104.31300354003906 -188.875,0 C-188.875,-104.31300354003906 -104.31300354003906,-188.875 0,-188.875 C104.31199645996094,-188.875 188.875,-104.31300354003906 188.875,0z"/></g><g opacity="1" transform="matrix(1,0,0,1,208.92999267578125,207.0070037841797)"><path fill="url(#__lottie_element_27008)" fill-opacity="1" d=" M182.26300048828125,2.5810000896453857 C180.68600463867188,97.60900115966797 97.80599975585938,173.49099731445312 -2.8550000190734863,172.06500244140625 C-103.51599884033203,170.63900756835938 -183.83700561523438,92.4489974975586 -182.26100158691406,-2.5799999237060547 C-180.68499755859375,-97.60800170898438 -97.80500030517578,-173.48899841308594 2.8550000190734863,-172.06399536132812 C103.51699829101562,-170.63900756835938 183.83999633789062,-92.447998046875 182.26300048828125,2.5810000896453857z"/></g></g><g style="display: block;" transform="matrix(1.028563141822815,0.3342004418373108,-0.3342004418373108,1.028563141822815,79.81198120117188,-97.91866302490234)" opacity="1"><g opacity="0.45" transform="matrix(1,0,0,1,251.82298278808594,256)"><g opacity="1" transform="matrix(1,0,0,1,0,0)"><g opacity="1" transform="matrix(1,0,0,1,0,0)"><path fill="rgb(254,221,120)" fill-opacity="1" d=" M58.46699905395508,85.1729965209961 C58.46699905395508,108.13999938964844 38.40999984741211,128.0290069580078 15.321999549865723,128.0290069580078 C-7.765999794006348,128.0290069580078 -27.822999954223633,108.13999938964844 -27.822999954223633,85.1729965209961 C-27.822999954223633,62.20600128173828 -7.765999794006348,43.58700180053711 15.321999549865723,43.58700180053711 C38.40999984741211,43.58700180053711 58.46699905395508,62.20600128173828 58.46699905395508,85.1729965209961z"/></g><g opacity="1" transform="matrix(1,0,0,1,0,0)"><path fill="rgb(240,187,58)" fill-opacity="1" d=" M57.125999450683594,81.28700256347656 C57.125999450683594,103.58399963378906 38.40999984741211,121.66000366210938 15.321999549865723,121.66000366210938 C-7.765999794006348,121.66000366210938 -26.48200035095215,103.58399963378906 -26.48200035095215,81.28700256347656 C-26.48200035095215,58.9900016784668 -7.765999794006348,39.6619987487793 15.321999549865723,39.6619987487793 C38.40999984741211,39.6619987487793 57.125999450683594,58.9900016784668 57.125999450683594,81.28700256347656z"/></g><g opacity="1" transform="matrix(1,0,0,1,0,0)"><path fill="rgb(151,72,0)" fill-opacity="1" d=" M55.54199981689453,83.69300079345703 C55.54199981689453,104.87000274658203 37.53499984741211,122.03700256347656 15.321999549865723,122.03700256347656 C-6.890999794006348,122.03700256347656 -24.898000717163086,104.87000274658203 -24.898000717163086,83.69300079345703 C-24.898000717163086,62.51599884033203 -6.890999794006348,45.347999572753906 15.321999549865723,45.347999572753906 C37.53499984741211,45.347999572753906 55.54199981689453,62.51599884033203 55.54199981689453,83.69300079345703z"/></g><g opacity="1" transform="matrix(1,0,0,1,0,0)"><path fill="rgb(99,41,0)" fill-opacity="1" d=" M53.36600112915039,96.16100311279297 C53.55099868774414,94.64600372314453 53.64400100708008,93.10600280761719 53.64400100708008,91.5469970703125 C53.64400100708008,70.36799621582031 36.48099899291992,53.19599914550781 15.319000244140625,53.19599914550781 C-5.8429999351501465,53.19599914550781 -22.996000289916992,70.36799621582031 -22.996000289916992,91.5469970703125 C-22.996000289916992,93.10600280761719 -22.902999877929688,94.64600372314453 -22.7189998626709,96.16100311279297 C-24.131999969482422,92.2509994506836 -24.898000717163086,88.05999755859375 -24.898000717163086,83.69200134277344 C-24.898000717163086,62.51300048828125 -6.895999908447266,45.349998474121094 15.319000244140625,45.349998474121094 C37.534000396728516,45.349998474121094 55.547000885009766,62.51300048828125 55.547000885009766,83.69200134277344 C55.547000885009766,88.05999755859375 54.77899932861328,92.2509994506836 53.36600112915039,96.16100311279297z"/></g></g></g><g opacity="0.45" transform="matrix(1,0,0,1,257.1780090332031,256)"><g opacity="1" transform="matrix(1,0,0,1,0,0)"><g opacity="1" transform="matrix(1,0,0,1,0,0)"><path fill="rgb(254,221,120)" fill-opacity="1" d=" M30.51300048828125,85.1729965209961 C30.51300048828125,108.13999938964844 10.456000328063965,128.0290069580078 -12.631999969482422,128.0290069580078 C-35.720001220703125,128.0290069580078 -55.7760009765625,108.13999938964844 -55.7760009765625,85.1729965209961 C-55.7760009765625,62.20600128173828 -35.720001220703125,43.58700180053711 -12.631999969482422,43.58700180053711 C10.456000328063965,43.58700180053711 30.51300048828125,62.20600128173828 30.51300048828125,85.1729965209961z"/></g><g opacity="1" transform="matrix(1,0,0,1,0,0)"><path fill="rgb(240,187,58)" fill-opacity="1" d=" M29.172000885009766,81.28700256347656 C29.172000885009766,103.58399963378906 10.456000328063965,121.66000366210938 -12.631999969482422,121.66000366210938 C-35.720001220703125,121.66000366210938 -54.435001373291016,103.58399963378906 -54.435001373291016,81.28700256347656 C-54.435001373291016,58.9900016784668 -35.720001220703125,39.6619987487793 -12.631999969482422,39.6619987487793 C10.456000328063965,39.6619987487793 29.172000885009766,58.9900016784668 29.172000885009766,81.28700256347656z"/></g><g opacity="1" transform="matrix(1,0,0,1,0,0)"><path fill="rgb(151,72,0)" fill-opacity="1" d=" M27.589000701904297,83.69300079345703 C27.589000701904297,104.87000274658203 9.581000328063965,122.03700256347656 -12.631999969482422,122.03700256347656 C-34.845001220703125,122.03700256347656 -52.85200119018555,104.87000274658203 -52.85200119018555,83.69300079345703 C-52.85200119018555,62.51599884033203 -34.845001220703125,45.347999572753906 -12.631999969482422,45.347999572753906 C9.581000328063965,45.347999572753906 27.589000701904297,62.51599884033203 27.589000701904297,83.69300079345703z"/></g><g opacity="1" transform="matrix(1,0,0,1,0,0)"><path fill="rgb(99,41,0)" fill-opacity="1" d=" M25.413000106811523,96.16100311279297 C25.597999572753906,94.64600372314453 25.690000534057617,93.10600280761719 25.690000534057617,91.5469970703125 C25.690000534057617,70.36799621582031 8.527999877929688,53.19599914550781 -12.633999824523926,53.19599914550781 C-33.79600143432617,53.19599914550781 -50.94900131225586,70.36799621582031 -50.94900131225586,91.5469970703125 C-50.94900131225586,93.10600280761719 -50.85599899291992,94.64600372314453 -50.672000885009766,96.16100311279297 C-52.084999084472656,92.2509994506836 -52.85200119018555,88.05999755859375 -52.85200119018555,83.69200134277344 C-52.85200119018555,62.51300048828125 -34.8489990234375,45.349998474121094 -12.633999824523926,45.349998474121094 C9.581000328063965,45.349998474121094 27.593000411987305,62.51300048828125 27.593000411987305,83.69200134277344 C27.593000411987305,88.05999755859375 26.826000213623047,92.2509994506836 25.413000106811523,96.16100311279297z"/></g></g></g><g opacity="0.16" transform="matrix(0.9576399922370911,0,0,1,254.80697631835938,256)"><g opacity="1" transform="matrix(1,0,0,1,0,0)"><g opacity="1" transform="matrix(1,0,0,1,0,0)"><path fill="rgb(255,225,156)" fill-opacity="1" d=" M45.36000061035156,85.1729965209961 C45.36000061035156,108.13999938964844 24.898000717163086,128.0290069580078 1.3450000286102295,128.0290069580078 C-22.20800018310547,128.0290069580078 -42.66999816894531,108.13999938964844 -42.66999816894531,85.1729965209961 C-42.66999816894531,62.20600128173828 -22.20800018310547,43.58700180053711 1.3450000286102295,43.58700180053711 C24.898000717163086,43.58700180053711 45.36000061035156,62.20600128173828 45.36000061035156,85.1729965209961z"/></g><g opacity="1" transform="matrix(1,0,0,1,0,0)"><path fill="rgb(255,173,0)" fill-opacity="1" d=" M43.99300003051758,81.28700256347656 C43.99300003051758,103.58399963378906 24.898000717163086,121.66000366210938 1.3450000286102295,121.66000366210938 C-22.20800018310547,121.66000366210938 -41.301998138427734,103.58399963378906 -41.301998138427734,81.28700256347656 C-41.301998138427734,58.9900016784668 -22.20800018310547,39.6619987487793 1.3450000286102295,39.6619987487793 C24.898000717163086,39.6619987487793 43.99300003051758,58.9900016784668 43.99300003051758,81.28700256347656z"/></g><g opacity="1" transform="matrix(1,0,0,1,0,0)"><path fill="rgb(143,58,0)" fill-opacity="1" d=" M42.37699890136719,83.69300079345703 C42.37699890136719,104.87000274658203 24.006000518798828,122.03700256347656 1.3450000286102295,122.03700256347656 C-21.31599998474121,122.03700256347656 -39.6870002746582,104.87000274658203 -39.6870002746582,83.69300079345703 C-39.6870002746582,62.51599884033203 -21.31599998474121,45.347999572753906 1.3450000286102295,45.347999572753906 C24.006000518798828,45.347999572753906 42.37699890136719,62.51599884033203 42.37699890136719,83.69300079345703z"/></g><g opacity="1" transform="matrix(1,0,0,1,0,0)"><path fill="rgb(107,32,0)" fill-opacity="1" d=" M40.15700149536133,96.16100311279297 C40.34600067138672,94.64600372314453 40.439998626708984,93.10600280761719 40.439998626708984,91.5469970703125 C40.439998626708984,70.36799621582031 22.930999755859375,53.19599914550781 1.3420000076293945,53.19599914550781 C-20.246000289916992,53.19599914550781 -37.744998931884766,70.36799621582031 -37.744998931884766,91.5469970703125 C-37.744998931884766,93.10600280761719 -37.6510009765625,94.64600372314453 -37.4630012512207,96.16100311279297 C-38.904998779296875,92.2509994506836 -39.6870002746582,88.05999755859375 -39.6870002746582,83.69200134277344 C-39.6870002746582,62.51300048828125 -21.320999145507812,45.349998474121094 1.3420000076293945,45.349998474121094 C24.0049991607666,45.349998474121094 42.38100051879883,62.51300048828125 42.38100051879883,83.69200134277344 C42.38100051879883,88.05999755859375 41.5989990234375,92.2509994506836 40.15700149536133,96.16100311279297z"/></g></g></g></g><g style="display: block;" transform="matrix(0.9795829653739929,0.31828582286834717,-0.31828582286834717,0.9795829653739929,864.56640625,453.735107421875)" opacity="0.67"><g opacity="1" transform="matrix(1,0,0,1,0,0)"><path fill="rgb(134,63,20)" fill-opacity="1" d=" M-594.6900024414062,82.93000030517578 C-594.60400390625,99.03900146484375 -605.5419921875,113.54299926757812 -620.9299926757812,118.88999938964844 C-639.3829956054688,112.66799926757812 -651.0269775390625,92.76399993896484 -646.0800170898438,73.97000122070312 C-642.9569702148438,61.42399978637695 -633.1079711914062,51.20800018310547 -620.9299926757812,46.970001220703125 C-605.8319702148438,52.11899948120117 -594.5040283203125,66.8239974975586 -594.6900024414062,82.93000030517578z"/></g><g opacity="1" transform="matrix(1,0,0,1,0,0)"><path fill="rgb(99,37,12)" fill-opacity="1" d=" M-594.6900024414062,82.93000030517578 C-594.6909790039062,87.177001953125 -595.427001953125,91.40699768066406 -596.8699951171875,95.4000015258789 C-594.5999755859375,77.90399932861328 -605.2579956054688,61.04999923706055 -620.9400024414062,55.08000183105469 C-636.6129760742188,61.04899978637695 -647.2680053710938,77.90599822998047 -645,95.4000015258789 C-647.47900390625,88.5770034790039 -647.8419799804688,81.00900268554688 -646.0800170898438,73.97000122070312 C-642.9569702148438,61.42399978637695 -633.1079711914062,51.20800018310547 -620.9299926757812,46.970001220703125 C-605.8350219726562,52.12099838256836 -594.5029907226562,66.82499694824219 -594.6900024414062,82.93000030517578z"/></g></g><g style="display: block;" transform="matrix(0.9795840382575989,0.31828615069389343,-0.31828615069389343,0.9795840382575989,86.70829010009766,-76.25506591796875)" opacity="1"><g opacity="0.4" transform="matrix(1,0,0,1,256,256)"><g opacity="1" transform="matrix(1,0,0,1,0,0)"><g opacity="1" transform="matrix(1,0,0,1,0,0)"><g opacity="1" transform="matrix(1,0,0,1,0,0)"><path fill="rgb(255,222,156)" fill-opacity="1" d=" M98.29000091552734,-39.41999816894531 C98.29000091552734,-21.263999938964844 88.10600280761719,-6.546000003814697 75.54399871826172,-6.546000003814697 C62.981998443603516,-6.546000003814697 52.79800033569336,-21.263999938964844 52.79800033569336,-39.41999816894531 C52.79800033569336,-57.57500076293945 62.981998443603516,-72.29299926757812 75.54399871826172,-72.29299926757812 C88.10600280761719,-72.29299926757812 98.29000091552734,-57.57500076293945 98.29000091552734,-39.41999816894531z"/></g><g opacity="1" transform="matrix(1,0,0,1,0,0)"><path fill="rgb(234,172,31)" fill-opacity="1" d=" M98.29000091552734,-42.80400085449219 C98.29000091552734,-26.517000198364258 88.10600280761719,-13.314000129699707 75.54399871826172,-13.314000129699707 C62.981998443603516,-13.314000129699707 52.79800033569336,-26.517000198364258 52.79800033569336,-42.80400085449219 C52.79800033569336,-59.09000015258789 62.981998443603516,-72.29299926757812 75.54399871826172,-72.29299926757812 C88.10600280761719,-72.29299926757812 98.29000091552734,-59.09000015258789 98.29000091552734,-42.80400085449219z"/></g><g opacity="1" transform="matrix(1,0,0,1,0,0)"><path fill="rgb(151,72,0)" fill-opacity="1" d=" M96.45800018310547,-39.564998626708984 C96.45800018310547,-24.216999053955078 87.09500122070312,-11.774999618530273 75.54399871826172,-11.774999618530273 C63.99300003051758,-11.774999618530273 54.630001068115234,-24.216999053955078 54.630001068115234,-39.564998626708984 C54.630001068115234,-54.91299819946289 63.99300003051758,-67.3550033569336 75.54399871826172,-67.3550033569336 C87.09500122070312,-67.3550033569336 96.45800018310547,-54.91299819946289 96.45800018310547,-39.564998626708984z"/></g><g opacity="1" transform="matrix(1,0,0,1,0,0)"><path fill="rgb(99,41,0)" fill-opacity="1" d=" M96.46099853515625,-39.560001373291016 C96.46099853515625,-38.34000015258789 96.40299987792969,-37.13999938964844 96.27899932861328,-35.96099853515625 C94.95899963378906,-49.6150016784668 86.17500305175781,-60.167999267578125 75.54399871826172,-60.167999267578125 C64.91300201416016,-60.167999267578125 56.12900161743164,-49.6150016784668 54.808998107910156,-35.96099853515625 C54.685001373291016,-37.13999938964844 54.62699890136719,-38.34000015258789 54.62699890136719,-39.560001373291016 C54.62699890136719,-54.9109992980957 63.994998931884766,-67.3550033569336 75.54399871826172,-67.3550033569336 C87.09300231933594,-67.3550033569336 96.46099853515625,-54.9109992980957 96.46099853515625,-39.560001373291016z"/></g></g><g opacity="1" transform="matrix(1,0,0,1,0,0)"><g opacity="1" transform="matrix(1,0,0,1,0,0)"><path fill="rgb(255,222,156)" fill-opacity="1" d=" M-21.916000366210938,-39.41999816894531 C-21.916000366210938,-21.263999938964844 -32.099998474121094,-6.546000003814697 -44.6619987487793,-6.546000003814697 C-57.2239990234375,-6.546000003814697 -67.40799713134766,-21.263999938964844 -67.40799713134766,-39.41999816894531 C-67.40799713134766,-57.57500076293945 -57.2239990234375,-72.29299926757812 -44.6619987487793,-72.29299926757812 C-32.099998474121094,-72.29299926757812 -21.916000366210938,-57.57500076293945 -21.916000366210938,-39.41999816894531z"/></g><g opacity="1" transform="matrix(1,0,0,1,0,0)"><path fill="rgb(234,172,31)" fill-opacity="1" d=" M-21.916000366210938,-42.80400085449219 C-21.916000366210938,-26.517000198364258 -32.099998474121094,-13.314000129699707 -44.6619987487793,-13.314000129699707 C-57.2239990234375,-13.314000129699707 -67.40799713134766,-26.517000198364258 -67.40799713134766,-42.80400085449219 C-67.40799713134766,-59.09000015258789 -57.2239990234375,-72.29299926757812 -44.6619987487793,-72.29299926757812 C-32.099998474121094,-72.29299926757812 -21.916000366210938,-59.09000015258789 -21.916000366210938,-42.80400085449219z"/></g><g opacity="1" transform="matrix(1,0,0,1,0,0)"><path fill="rgb(151,72,0)" fill-opacity="1" d=" M-23.74799919128418,-39.564998626708984 C-23.74799919128418,-24.216999053955078 -33.111000061035156,-11.774999618530273 -44.6619987487793,-11.774999618530273 C-56.2130012512207,-11.774999618530273 -65.57599639892578,-24.216999053955078 -65.57599639892578,-39.564998626708984 C-65.57599639892578,-54.91299819946289 -56.2130012512207,-67.3550033569336 -44.6619987487793,-67.3550033569336 C-33.111000061035156,-67.3550033569336 -23.74799919128418,-54.91299819946289 -23.74799919128418,-39.564998626708984z"/></g><g opacity="1" transform="matrix(1,0,0,1,0,0)"><path fill="rgb(99,41,0)" fill-opacity="1" d=" M-23.7450008392334,-39.560001373291016 C-23.7450008392334,-38.34000015258789 -23.80299949645996,-37.13999938964844 -23.927000045776367,-35.96099853515625 C-25.246999740600586,-49.6150016784668 -34.03099822998047,-60.167999267578125 -44.6619987487793,-60.167999267578125 C-55.292999267578125,-60.167999267578125 -64.0770034790039,-49.6150016784668 -65.39700317382812,-35.96099853515625 C-65.52100372314453,-37.13999938964844 -65.5790023803711,-38.34000015258789 -65.5790023803711,-39.560001373291016 C-65.5790023803711,-54.9109992980957 -56.21099853515625,-67.3550033569336 -44.6619987487793,-67.3550033569336 C-33.112998962402344,-67.3550033569336 -23.7450008392334,-54.9109992980957 -23.7450008392334,-39.560001373291016z"/></g></g></g></g><g opacity="0.4" transform="matrix(1,0,0,1,256,256)"><g opacity="1" transform="matrix(1,0,0,1,0,0)"><g opacity="1" transform="matrix(0.9295200109481812,0,0,1,3.0730552673339844,0)"><g opacity="1" transform="matrix(1,0,0,1,0,0)"><g opacity="1" transform="matrix(1,0,0,1,0,0)"><path fill="rgb(255,222,156)" fill-opacity="1" d=" M75.43199920654297,-39.41999816894531 C75.43199920654297,-21.263999938964844 64.35700225830078,-6.546000003814697 50.69599914550781,-6.546000003814697 C37.03499984741211,-6.546000003814697 25.961000442504883,-21.263999938964844 25.961000442504883,-39.41999816894531 C25.961000442504883,-57.57500076293945 37.03499984741211,-72.29299926757812 50.69599914550781,-72.29299926757812 C64.35700225830078,-72.29299926757812 75.43199920654297,-57.57500076293945 75.43199920654297,-39.41999816894531z"/></g><g opacity="1" transform="matrix(1,0,0,1,0,0)"><path fill="rgb(234,172,31)" fill-opacity="1" d=" M75.43199920654297,-42.80400085449219 C75.43199920654297,-26.517000198364258 64.35700225830078,-13.314000129699707 50.69599914550781,-13.314000129699707 C37.03499984741211,-13.314000129699707 25.961000442504883,-26.517000198364258 25.961000442504883,-42.80400085449219 C25.961000442504883,-59.09000015258789 37.03499984741211,-72.29299926757812 50.69599914550781,-72.29299926757812 C64.35700225830078,-72.29299926757812 75.43199920654297,-59.09000015258789 75.43199920654297,-42.80400085449219z"/></g><g opacity="1" transform="matrix(1,0,0,1,0,0)"><path fill="rgb(151,72,0)" fill-opacity="1" d=" M73.44000244140625,-39.564998626708984 C73.44000244140625,-24.216999053955078 63.25699996948242,-11.774999618530273 50.69599914550781,-11.774999618530273 C38.1349983215332,-11.774999618530273 27.952999114990234,-24.216999053955078 27.952999114990234,-39.564998626708984 C27.952999114990234,-54.91299819946289 38.1349983215332,-67.3550033569336 50.69599914550781,-67.3550033569336 C63.25699996948242,-67.3550033569336 73.44000244140625,-54.91299819946289 73.44000244140625,-39.564998626708984z"/></g><g opacity="1" transform="matrix(1,0,0,1,0,0)"><path fill="rgb(99,41,0)" fill-opacity="1" d=" M73.44200134277344,-39.560001373291016 C73.44200134277344,-38.34000015258789 73.37999725341797,-37.13999938964844 73.24500274658203,-35.96099853515625 C71.80899810791016,-49.6150016784668 62.25600051879883,-60.167999267578125 50.69599914550781,-60.167999267578125 C39.13600158691406,-60.167999267578125 29.583999633789062,-49.6150016784668 28.148000717163086,-35.96099853515625 C28.01300048828125,-37.13999938964844 27.950000762939453,-38.34000015258789 27.950000762939453,-39.560001373291016 C27.950000762939453,-54.9109992980957 38.137001037597656,-67.3550033569336 50.69599914550781,-67.3550033569336 C63.255001068115234,-67.3550033569336 73.44200134277344,-54.9109992980957 73.44200134277344,-39.560001373291016z"/></g></g></g><g opacity="1" transform="matrix(0.909060001373291,0,0,1,-6.821147918701172,0)"><g opacity="1" transform="matrix(1,0,0,1,0,0)"><g opacity="1" transform="matrix(1,0,0,1,0,0)"><path fill="rgb(255,222,156)" fill-opacity="1" d=" M-44.77399826049805,-39.41999816894531 C-44.77399826049805,-21.263999938964844 -55.847999572753906,-6.546000003814697 -69.50900268554688,-6.546000003814697 C-83.16999816894531,-6.546000003814697 -94.24500274658203,-21.263999938964844 -94.24500274658203,-39.41999816894531 C-94.24500274658203,-57.57500076293945 -83.16999816894531,-72.29299926757812 -69.50900268554688,-72.29299926757812 C-55.847999572753906,-72.29299926757812 -44.77399826049805,-57.57500076293945 -44.77399826049805,-39.41999816894531z"/></g><g opacity="1" transform="matrix(1,0,0,1,0,0)"><path fill="rgb(234,172,31)" fill-opacity="1" d=" M-44.77399826049805,-42.80400085449219 C-44.77399826049805,-26.517000198364258 -55.847999572753906,-13.314000129699707 -69.50900268554688,-13.314000129699707 C-83.16999816894531,-13.314000129699707 -94.24500274658203,-26.517000198364258 -94.24500274658203,-42.80400085449219 C-94.24500274658203,-59.09000015258789 -83.16999816894531,-72.29299926757812 -69.50900268554688,-72.29299926757812 C-55.847999572753906,-72.29299926757812 -44.77399826049805,-59.09000015258789 -44.77399826049805,-42.80400085449219z"/></g><g opacity="1" transform="matrix(1,0,0,1,0,0)"><path fill="rgb(151,72,0)" fill-opacity="1" d=" M-46.76599884033203,-39.564998626708984 C-46.76599884033203,-24.216999053955078 -56.948001861572266,-11.774999618530273 -69.50900268554688,-11.774999618530273 C-82.06999969482422,-11.774999618530273 -92.25299835205078,-24.216999053955078 -92.25299835205078,-39.564998626708984 C-92.25299835205078,-54.91299819946289 -82.06999969482422,-67.3550033569336 -69.50900268554688,-67.3550033569336 C-56.948001861572266,-67.3550033569336 -46.76599884033203,-54.91299819946289 -46.76599884033203,-39.564998626708984z"/></g><g opacity="1" transform="matrix(1,0,0,1,0,0)"><path fill="rgb(99,41,0)" fill-opacity="1" d=" M-46.76300048828125,-39.560001373291016 C-46.76300048828125,-38.34000015258789 -46.82600021362305,-37.13999938964844 -46.96099853515625,-35.96099853515625 C-48.39699935913086,-49.6150016784668 -57.94900131225586,-60.167999267578125 -69.50900268554688,-60.167999267578125 C-81.06900024414062,-60.167999267578125 -90.62200164794922,-49.6150016784668 -92.05799865722656,-35.96099853515625 C-92.19300079345703,-37.13999938964844 -92.25499725341797,-38.34000015258789 -92.25499725341797,-39.560001373291016 C-92.25499725341797,-54.9109992980957 -82.06800079345703,-67.3550033569336 -69.50900268554688,-67.3550033569336 C-56.95000076293945,-67.3550033569336 -46.76300048828125,-54.9109992980957 -46.76300048828125,-39.560001373291016z"/></g></g></g></g></g><g opacity="0.2" transform="matrix(1,0,0,1,255.49998474121094,256)"><g opacity="1" transform="matrix(1,0,0,1,0,0)"><g opacity="1" transform="matrix(1,0,0,1,0,0)"><g opacity="1" transform="matrix(1,0,0,1,0,0)"><path fill="rgb(255,226,166)" fill-opacity="1" d=" M86.63200378417969,-39.41999816894531 C86.63200378417969,-21.263999938964844 76.23100280761719,-6.546000003814697 63.4010009765625,-6.546000003814697 C50.57099914550781,-6.546000003814697 40.16899871826172,-21.263999938964844 40.16899871826172,-39.41999816894531 C40.16899871826172,-57.57500076293945 50.57099914550781,-72.29299926757812 63.4010009765625,-72.29299926757812 C76.23100280761719,-72.29299926757812 86.63200378417969,-57.57500076293945 86.63200378417969,-39.41999816894531z"/></g><g opacity="1" transform="matrix(1,0,0,1,0,0)"><path fill="rgb(255,173,0)" fill-opacity="1" d=" M86.63200378417969,-42.80400085449219 C86.63200378417969,-26.517000198364258 76.23100280761719,-13.314000129699707 63.4010009765625,-13.314000129699707 C50.57099914550781,-13.314000129699707 40.16899871826172,-26.517000198364258 40.16899871826172,-42.80400085449219 C40.16899871826172,-59.09000015258789 50.57099914550781,-72.29299926757812 63.4010009765625,-72.29299926757812 C76.23100280761719,-72.29299926757812 86.63200378417969,-59.09000015258789 86.63200378417969,-42.80400085449219z"/></g><g opacity="1" transform="matrix(1,0,0,1,0,0)"><path fill="rgb(143,58,0)" fill-opacity="1" d=" M84.76200103759766,-39.564998626708984 C84.76200103759766,-24.216999053955078 75.197998046875,-11.774999618530273 63.4010009765625,-11.774999618530273 C51.604000091552734,-11.774999618530273 42.040000915527344,-24.216999053955078 42.040000915527344,-39.564998626708984 C42.040000915527344,-54.91299819946289 51.604000091552734,-67.3550033569336 63.4010009765625,-67.3550033569336 C75.197998046875,-67.3550033569336 84.76200103759766,-54.91299819946289 84.76200103759766,-39.564998626708984z"/></g><g opacity="1" transform="matrix(1,0,0,1,0,0)"><path fill="rgb(107,32,0)" fill-opacity="1" d=" M84.76399993896484,-39.560001373291016 C84.76399993896484,-38.34000015258789 84.70600128173828,-37.13999938964844 84.5790023803711,-35.96099853515625 C83.2300033569336,-49.6150016784668 74.25800323486328,-60.167999267578125 63.4010009765625,-60.167999267578125 C52.542999267578125,-60.167999267578125 43.571998596191406,-49.6150016784668 42.222999572753906,-35.96099853515625 C42.09600067138672,-37.13999938964844 42.03799819946289,-38.34000015258789 42.03799819946289,-39.560001373291016 C42.03799819946289,-54.9109992980957 51.60499954223633,-67.3550033569336 63.4010009765625,-67.3550033569336 C75.1969985961914,-67.3550033569336 84.76399993896484,-54.9109992980957 84.76399993896484,-39.560001373291016z"/></g></g><g opacity="1" transform="matrix(1,0,0,1,0,0)"><g opacity="1" transform="matrix(1,0,0,1,0,0)"><path fill="rgb(255,226,166)" fill-opacity="1" d=" M-33.499000549316406,-39.41999816894531 C-33.499000549316406,-21.263999938964844 -43.933998107910156,-6.546000003814697 -56.80500030517578,-6.546000003814697 C-69.6760025024414,-6.546000003814697 -80.11000061035156,-21.263999938964844 -80.11000061035156,-39.41999816894531 C-80.11000061035156,-57.57500076293945 -69.6760025024414,-72.29299926757812 -56.80500030517578,-72.29299926757812 C-43.933998107910156,-72.29299926757812 -33.499000549316406,-57.57500076293945 -33.499000549316406,-39.41999816894531z"/></g><g opacity="1" transform="matrix(1,0,0,1,0,0)"><path fill="rgb(255,173,0)" fill-opacity="1" d=" M-33.499000549316406,-42.80400085449219 C-33.499000549316406,-26.517000198364258 -43.933998107910156,-13.314000129699707 -56.80500030517578,-13.314000129699707 C-69.6760025024414,-13.314000129699707 -80.11000061035156,-26.517000198364258 -80.11000061035156,-42.80400085449219 C-80.11000061035156,-59.09000015258789 -69.6760025024414,-72.29299926757812 -56.80500030517578,-72.29299926757812 C-43.933998107910156,-72.29299926757812 -33.499000549316406,-59.09000015258789 -33.499000549316406,-42.80400085449219z"/></g><g opacity="1" transform="matrix(1,0,0,1,0,0)"><path fill="rgb(143,58,0)" fill-opacity="1" d=" M-35.375999450683594,-39.564998626708984 C-35.375999450683594,-24.216999053955078 -44.970001220703125,-11.774999618530273 -56.80500030517578,-11.774999618530273 C-68.63999938964844,-11.774999618530273 -78.23400115966797,-24.216999053955078 -78.23400115966797,-39.564998626708984 C-78.23400115966797,-54.91299819946289 -68.63999938964844,-67.3550033569336 -56.80500030517578,-67.3550033569336 C-44.970001220703125,-67.3550033569336 -35.375999450683594,-54.91299819946289 -35.375999450683594,-39.564998626708984z"/></g><g opacity="1" transform="matrix(1,0,0,1,0,0)"><path fill="rgb(107,32,0)" fill-opacity="1" d=" M-35.37300109863281,-39.560001373291016 C-35.37300109863281,-38.34000015258789 -35.43199920654297,-37.13999938964844 -35.560001373291016,-35.96099853515625 C-36.91299819946289,-49.6150016784668 -45.91299819946289,-60.167999267578125 -56.80500030517578,-60.167999267578125 C-67.6969985961914,-60.167999267578125 -76.6969985961914,-49.6150016784668 -78.05000305175781,-35.96099853515625 C-78.1780014038086,-37.13999938964844 -78.23600006103516,-38.34000015258789 -78.23600006103516,-39.560001373291016 C-78.23600006103516,-54.9109992980957 -68.63899993896484,-67.3550033569336 -56.80500030517578,-67.3550033569336 C-44.97200012207031,-67.3550033569336 -35.37300109863281,-54.9109992980957 -35.37300109863281,-39.560001373291016z"/></g></g></g></g></g><g style="display: block;" transform="matrix(0.9795840382575989,0.31828615069389343,-0.31828615069389343,0.9795840382575989,865.5466918945312,454.0532531738281)" opacity="0.67"><g opacity="1" transform="matrix(1,0,0,1,0,0)"><path fill="rgb(134,63,20)" fill-opacity="1" d=" M-548.8400268554688,-40.33000183105469 C-548.822998046875,-31.736000061035156 -552.2080078125,-22.91200065612793 -558.6400146484375,-17.479999542236328 C-570.3280029296875,-28.118999481201172 -570.885986328125,-51.93199920654297 -558.6400146484375,-63.16999816894531 C-554.1199951171875,-59.34700012207031 -551.06298828125,-53.77899932861328 -549.72998046875,-48.02000045776367 C-549.1279907226562,-45.52799987792969 -548.8469848632812,-42.9109992980957 -548.8400268554688,-40.33000183105469z"/></g><g opacity="1" transform="matrix(1,0,0,1,0,0)"><path fill="rgb(99,37,12)" fill-opacity="1" d=" M-548.8400268554688,-40.33000183105469 C-548.8380126953125,-39.104000091552734 -548.89697265625,-37.928001403808594 -549.0399780273438,-36.72999954223633 C-549.8699951171875,-44.70000076293945 -553.47998046875,-51.61000061035156 -558.6400146484375,-55.97999954223633 C-563.3800048828125,-51.61000061035156 -566.6900024414062,-44.709999084472656 -567.469970703125,-36.75 C-568.406005859375,-46.183998107910156 -565.6729736328125,-56.58599853515625 -558.6400146484375,-63.16999816894531 C-554.1199951171875,-59.34700012207031 -551.06298828125,-53.77899932861328 -549.72998046875,-48.02000045776367 C-549.1279907226562,-45.52799987792969 -548.8469848632812,-42.9109992980957 -548.8400268554688,-40.33000183105469z"/></g><g opacity="1" transform="matrix(1,0,0,1,0,0)"><path fill="rgb(134,63,20)" fill-opacity="1" d=" M-669.0499877929688,-40.7599983215332 C-668.81201171875,-31.87299919128418 -672.7520141601562,-22.464000701904297 -678.8499755859375,-17.479999542236328 C-690.5349731445312,-28.121000289916992 -691.10400390625,-51.92599868774414 -678.8499755859375,-63.16999816894531 C-672.4229736328125,-57.720001220703125 -669.1329956054688,-49.097999572753906 -669.0499877929688,-40.7599983215332z"/></g><g opacity="1" transform="matrix(1,0,0,1,0,0)"><path fill="rgb(99,37,12)" fill-opacity="1" d=" M-669.0399780273438,-40.31999969482422 C-669.041015625,-39.11399841308594 -669.1129760742188,-37.92300033569336 -669.239990234375,-36.7400016784668 C-670.0800170898438,-44.709999084472656 -673.6900024414062,-51.61000061035156 -678.8499755859375,-55.97999954223633 C-683.5900268554688,-51.61000061035156 -686.9000244140625,-44.709999084472656 -687.6799926757812,-36.75 C-688.614990234375,-46.18299865722656 -685.8900146484375,-56.57899856567383 -678.8499755859375,-63.16999816894531 C-672.302978515625,-57.619998931884766 -669.0280151367188,-48.80500030517578 -669.0399780273438,-40.31999969482422z"/></g></g><g style="display: block;" transform="matrix(0.9795840382575989,0.31828615069389343,-0.31828615069389343,0.9795840382575989,256.00054931640625,255.99969482421875)" opacity="1"><g opacity="1" transform="matrix(1,0,0,1,0,0)"><g opacity="1" transform="matrix(1,0,0,1,0,0)"><g opacity="1" transform="matrix(1,0,0,1,0,0)"><g opacity="0.45" transform="matrix(0.9993430376052856,-0.03624254837632179,0.03624254837632179,0.9993430376052856,6.445289611816406,3.644561767578125)"><g opacity="1" transform="matrix(1,0,0,1,0,0)"><g opacity="1" transform="matrix(1,0,0,1,0,0)"><path fill="rgb(255,229,178)" fill-opacity="1" d=" M62.94900131225586,-117.947998046875 C64,-119.24500274658203 67.47599792480469,-120.89399719238281 70.27300262451172,-121.80799865722656 C82.39399719238281,-125.76899719238281 107.04499816894531,-121.66400146484375 124.86399841308594,-108.72899627685547 C150.24000549316406,-90.30899810791016 143.3470001220703,-78.52400207519531 137.79299926757812,-82.2030029296875 C132.23899841308594,-85.88200378417969 113.11499786376953,-102.18699645996094 84.14099884033203,-105.21399688720703 C76.37699890136719,-106.0250015258789 70.79399871826172,-105.75700378417969 66.53700256347656,-106.5790023803711 C60.91299819946289,-107.66500091552734 60.064998626708984,-114.38899993896484 62.94900131225586,-117.947998046875z"/></g><g opacity="1" transform="matrix(1,0,0,1,0,0)"><path fill="rgb(151,72,0)" fill-opacity="1" d=" M63.43000030517578,-118.59400177001953 C64.48100280761719,-119.89099884033203 67.60299682617188,-121.7969970703125 70.4000015258789,-122.71099853515625 C82.52100372314453,-126.6719970703125 104.5780029296875,-126.3499984741211 122.39700317382812,-113.41500091552734 C147.7729949951172,-94.99500274658203 143.8520050048828,-82.82099914550781 138.29800415039062,-86.5 C132.74400329589844,-90.17900085449219 113.62000274658203,-106.48500061035156 84.64600372314453,-109.51200103759766 C76.88200378417969,-110.322998046875 71.29900360107422,-110.05400085449219 67.04199981689453,-110.8759994506836 C61.417999267578125,-111.96199798583984 60.54600143432617,-115.03500366210938 63.43000030517578,-118.59400177001953z"/></g><g opacity="1" transform="matrix(1,0,0,1,0,0)"><path fill="rgb(99,41,0)" fill-opacity="1" d=" M62.595001220703125,-112.94000244140625 C62.608001708984375,-112.96600341796875 62.63100051879883,-112.9990005493164 62.65299987792969,-113.02400207519531 C63.70399856567383,-114.31900024414062 66.8219985961914,-116.22899627685547 69.62100219726562,-117.13400268554688 C81.73600006103516,-121.0999984741211 103.80000305175781,-120.7750015258789 121.61199951171875,-107.84700012207031 C134.3090057373047,-98.62799835205078 139.6649932861328,-90.96800231933594 141.1580047607422,-86.08699798583984 C144.25999450683594,-87.81600189208984 142.8090057373047,-98.59700012207031 122.39299774169922,-113.41799926757812 C104.58100128173828,-126.34600067138672 82.51699829101562,-126.6709976196289 70.40299987792969,-122.71399688720703 C67.60199737548828,-121.80000305175781 64.48400115966797,-119.88999938964844 63.433998107910156,-118.59500122070312 C61.6609992980957,-116.41300201416016 61.305999755859375,-114.40899658203125 62.595001220703125,-112.94000244140625z"/></g></g></g><g opacity="0.4" transform="matrix(0.9975420832633972,-0.07006986439228058,0.07006986439228058,0.9975420832633972,7.570274353027344,5.1324005126953125)"><g opacity="1" transform="matrix(1,0,0,1,0,0)"><g opacity="1" transform="matrix(1,0,0,1,0,0)"><path fill="rgb(255,229,178)" fill-opacity="1" d=" M35.487998962402344,-116.86299896240234 C36.48699951171875,-118.18399810791016 39.86399841308594,-119.91600036621094 42.590999603271484,-120.89600372314453 C54.409000396728516,-125.14299774169922 78.76399993896484,-121.6259994506836 96.63300323486328,-109.12000274658203 C122.08000183105469,-91.31099700927734 115.61199951171875,-79.36699676513672 110.052001953125,-82.91200256347656 C104.49199676513672,-86.45700073242188 85.2490005493164,-102.302001953125 56.66899871826172,-104.63899993896484 C49.01100158691406,-105.26499938964844 43.527000427246094,-104.86399841308594 39.31800079345703,-105.58499908447266 C33.75699996948242,-106.53700256347656 32.744998931884766,-113.23699951171875 35.487998962402344,-116.86299896240234z"/></g><g opacity="1" transform="matrix(1,0,0,1,0,0)"><path fill="rgb(151,72,0)" fill-opacity="1" d=" M35.944000244140625,-117.52100372314453 C36.94300079345703,-118.84200286865234 39.9640007019043,-120.8219985961914 42.691001892089844,-121.802001953125 C54.50899887084961,-126.04900360107422 76.21399688720703,-126.25199890136719 94.08300018310547,-113.74600219726562 C119.52999877929688,-95.93699645996094 115.99500274658203,-83.67500305175781 110.43499755859375,-87.22000122070312 C104.875,-90.76499938964844 85.63200378417969,-106.61000061035156 57.051998138427734,-108.9469985961914 C49.39400100708008,-109.572998046875 43.90999984741211,-109.1709976196289 39.70100021362305,-109.89199829101562 C34.13999938964844,-110.84400177001953 33.20100021362305,-113.8949966430664 35.944000244140625,-117.52100372314453z"/></g><g opacity="1" transform="matrix(1,0,0,1,0,0)"><path fill="rgb(99,41,0)" fill-opacity="1" d=" M35.27199935913086,-111.8489990234375 C35.284000396728516,-111.875 35.305999755859375,-111.91000366210938 35.32699966430664,-111.93499755859375 C36.32600021362305,-113.25399780273438 39.34199905395508,-115.23799896240234 42.071998596191406,-116.20899963378906 C53.88399887084961,-120.46099853515625 75.59600067138672,-120.66000366210938 93.45800018310547,-108.16100311279297 C106.19100189208984,-99.24800109863281 111.66100311279297,-91.71900177001953 113.25900268554688,-86.875 C116.26399993896484,-88.677001953125 114.552001953125,-99.41799926757812 94.0790023803711,-113.74800109863281 C76.21700286865234,-126.24800109863281 54.505001068115234,-126.0479965209961 42.694000244140625,-121.80500030517578 C39.9630012512207,-120.82499694824219 36.946998596191406,-118.84100341796875 35.948001861572266,-117.52200317382812 C34.262001037597656,-115.2979965209961 33.96500015258789,-113.28700256347656 35.27199935913086,-111.8489990234375z"/></g></g></g></g><g opacity="0.2" transform="matrix(0.9997252821922302,-0.023437624797225,0.023437624797225,0.9997252821922302,3.212371826171875,2.0925369262695312)"><g opacity="1" transform="matrix(1,0,0,1,0,0)"><g opacity="1" transform="matrix(1,0,0,1,0,0)"><path fill="rgb(255,229,178)" fill-opacity="1" d=" M50.52899932861328,-114.52899932861328 C51.494998931884766,-115.875 54.82600021362305,-117.69100189208984 57.52799987792969,-118.73999786376953 C69.23600006103516,-123.28399658203125 93.6709976196289,-120.38200378417969 111.8499984741211,-108.33100128173828 C137.73800659179688,-91.16899871826172 131.57400512695312,-79.06600189208984 125.9260025024414,-82.47000122070312 C120.27799987792969,-85.8740005493164 100.64199829101562,-101.22699737548828 72.01200103759766,-102.84300231933594 C64.34100341796875,-103.2760009765625 58.86800003051758,-102.73699951171875 54.641998291015625,-103.35099792480469 C49.058998107910156,-104.16200256347656 47.87900161743164,-110.83499908447266 50.52899932861328,-114.52899932861328z"/></g><g opacity="1" transform="matrix(1,0,0,1,0,0)"><path fill="rgb(143,58,0)" fill-opacity="1" d=" M50.96900177001953,-115.197998046875 C51.935001373291016,-116.54399871826172 54.90399932861328,-118.5989990234375 57.60599899291992,-119.64800262451172 C69.31400299072266,-124.19200134277344 91.00499725341797,-124.94200134277344 109.18399810791016,-112.89099884033203 C135.07200622558594,-95.72899627685547 131.84800720214844,-83.38200378417969 126.19999694824219,-86.78600311279297 C120.552001953125,-90.19000244140625 100.91600036621094,-105.54299926757812 72.28600311279297,-107.15899658203125 C64.61499786376953,-107.59200286865234 59.143001556396484,-107.0530014038086 54.91699981689453,-107.66699981689453 C49.33399963378906,-108.47799682617188 48.319000244140625,-111.50399780273438 50.96900177001953,-115.197998046875z"/></g><g opacity="1" transform="matrix(1,0,0,1,0,0)"><path fill="rgb(107,32,0)" fill-opacity="1" d=" M50.439998626708984,-109.51200103759766 C50.45100021362305,-109.53800201416016 50.47200012207031,-109.5719985961914 50.49300003051758,-109.5979995727539 C51.45899963378906,-110.94200134277344 54.42399978637695,-113.00199890136719 57.12799835205078,-114.04100036621094 C68.8290023803711,-118.58899688720703 90.52899932861328,-119.33699798583984 108.70099639892578,-107.29199981689453 C121.65399932861328,-98.7020034790039 127.31300354003906,-91.31400299072266 129.03199768066406,-86.51200103759766 C131.99099731445312,-88.38899993896484 130.00799560546875,-99.08399963378906 109.18000030517578,-112.89299774169922 C91.00800323486328,-124.93800354003906 69.30799865722656,-124.19000244140625 57.608001708984375,-119.6510009765625 C54.90299987792969,-118.60299682617188 51.9370002746582,-116.54299926757812 50.97200012207031,-115.1989974975586 C49.34199905395508,-112.93399810791016 49.09700012207031,-110.91600036621094 50.439998626708984,-109.51200103759766z"/></g></g></g></g><g opacity="1" transform="matrix(-1,0,0,1,2.2400054931640625,0)"><g opacity="1" transform="matrix(1,0,0,1,0,0)"><g opacity="0.45" transform="matrix(0.9993430376052856,-0.03624254837632179,0.03624254837632179,0.9993430376052856,6.445289611816406,3.644561767578125)"><g opacity="1" transform="matrix(1,0,0,1,0,0)"><g opacity="1" transform="matrix(1,0,0,1,0,0)"><path fill="rgb(255,229,178)" fill-opacity="1" d=" M62.94900131225586,-117.947998046875 C64,-119.24500274658203 67.47599792480469,-120.89399719238281 70.27300262451172,-121.80799865722656 C82.39399719238281,-125.76899719238281 107.04499816894531,-121.66400146484375 124.86399841308594,-108.72899627685547 C150.24000549316406,-90.30899810791016 143.3470001220703,-78.52400207519531 137.79299926757812,-82.2030029296875 C132.23899841308594,-85.88200378417969 113.11499786376953,-102.18699645996094 84.14099884033203,-105.21399688720703 C76.37699890136719,-106.0250015258789 70.79399871826172,-105.75700378417969 66.53700256347656,-106.5790023803711 C60.91299819946289,-107.66500091552734 60.064998626708984,-114.38899993896484 62.94900131225586,-117.947998046875z"/></g><g opacity="1" transform="matrix(1,0,0,1,0,0)"><path fill="rgb(151,72,0)" fill-opacity="1" d=" M63.43000030517578,-118.59400177001953 C64.48100280761719,-119.89099884033203 67.60299682617188,-121.7969970703125 70.4000015258789,-122.71099853515625 C82.52100372314453,-126.6719970703125 104.5780029296875,-126.3499984741211 122.39700317382812,-113.41500091552734 C147.7729949951172,-94.99500274658203 143.8520050048828,-82.82099914550781 138.29800415039062,-86.5 C132.74400329589844,-90.17900085449219 113.62000274658203,-106.48500061035156 84.64600372314453,-109.51200103759766 C76.88200378417969,-110.322998046875 71.29900360107422,-110.05400085449219 67.04199981689453,-110.8759994506836 C61.417999267578125,-111.96199798583984 60.54600143432617,-115.03500366210938 63.43000030517578,-118.59400177001953z"/></g><g opacity="1" transform="matrix(1,0,0,1,0,0)"><path fill="rgb(99,41,0)" fill-opacity="1" d=" M62.595001220703125,-112.94000244140625 C62.608001708984375,-112.96600341796875 62.63100051879883,-112.9990005493164 62.65299987792969,-113.02400207519531 C63.70399856567383,-114.31900024414062 66.8219985961914,-116.22899627685547 69.62100219726562,-117.13400268554688 C81.73600006103516,-121.0999984741211 103.80000305175781,-120.7750015258789 121.61199951171875,-107.84700012207031 C134.3090057373047,-98.62799835205078 139.6649932861328,-90.96800231933594 141.1580047607422,-86.08699798583984 C144.25999450683594,-87.81600189208984 142.8090057373047,-98.59700012207031 122.39299774169922,-113.41799926757812 C104.58100128173828,-126.34600067138672 82.51699829101562,-126.6709976196289 70.40299987792969,-122.71399688720703 C67.60199737548828,-121.80000305175781 64.48400115966797,-119.88999938964844 63.433998107910156,-118.59500122070312 C61.6609992980957,-116.41300201416016 61.305999755859375,-114.40899658203125 62.595001220703125,-112.94000244140625z"/></g></g></g><g opacity="0.4" transform="matrix(0.9975420832633972,-0.07006986439228058,0.07006986439228058,0.9975420832633972,7.570274353027344,5.1324005126953125)"><g opacity="1" transform="matrix(1,0,0,1,0,0)"><g opacity="1" transform="matrix(1,0,0,1,0,0)"><path fill="rgb(255,229,178)" fill-opacity="1" d=" M35.487998962402344,-116.86299896240234 C36.48699951171875,-118.18399810791016 39.86399841308594,-119.91600036621094 42.590999603271484,-120.89600372314453 C54.409000396728516,-125.14299774169922 78.76399993896484,-121.6259994506836 96.63300323486328,-109.12000274658203 C122.08000183105469,-91.31099700927734 115.61199951171875,-79.36699676513672 110.052001953125,-82.91200256347656 C104.49199676513672,-86.45700073242188 85.2490005493164,-102.302001953125 56.66899871826172,-104.63899993896484 C49.01100158691406,-105.26499938964844 43.527000427246094,-104.86399841308594 39.31800079345703,-105.58499908447266 C33.75699996948242,-106.53700256347656 32.744998931884766,-113.23699951171875 35.487998962402344,-116.86299896240234z"/></g><g opacity="1" transform="matrix(1,0,0,1,0,0)"><path fill="rgb(151,72,0)" fill-opacity="1" d=" M35.944000244140625,-117.52100372314453 C36.94300079345703,-118.84200286865234 39.9640007019043,-120.8219985961914 42.691001892089844,-121.802001953125 C54.50899887084961,-126.04900360107422 76.21399688720703,-126.25199890136719 94.08300018310547,-113.74600219726562 C119.52999877929688,-95.93699645996094 115.99500274658203,-83.67500305175781 110.43499755859375,-87.22000122070312 C104.875,-90.76499938964844 85.63200378417969,-106.61000061035156 57.051998138427734,-108.9469985961914 C49.39400100708008,-109.572998046875 43.90999984741211,-109.1709976196289 39.70100021362305,-109.89199829101562 C34.13999938964844,-110.84400177001953 33.20100021362305,-113.8949966430664 35.944000244140625,-117.52100372314453z"/></g><g opacity="1" transform="matrix(1,0,0,1,0,0)"><path fill="rgb(99,41,0)" fill-opacity="1" d=" M35.27199935913086,-111.8489990234375 C35.284000396728516,-111.875 35.305999755859375,-111.91000366210938 35.32699966430664,-111.93499755859375 C36.32600021362305,-113.25399780273438 39.34199905395508,-115.23799896240234 42.071998596191406,-116.20899963378906 C53.88399887084961,-120.46099853515625 75.59600067138672,-120.66000366210938 93.45800018310547,-108.16100311279297 C106.19100189208984,-99.24800109863281 111.66100311279297,-91.71900177001953 113.25900268554688,-86.875 C116.26399993896484,-88.677001953125 114.552001953125,-99.41799926757812 94.0790023803711,-113.74800109863281 C76.21700286865234,-126.24800109863281 54.505001068115234,-126.0479965209961 42.694000244140625,-121.80500030517578 C39.9630012512207,-120.82499694824219 36.946998596191406,-118.84100341796875 35.948001861572266,-117.52200317382812 C34.262001037597656,-115.2979965209961 33.96500015258789,-113.28700256347656 35.27199935913086,-111.8489990234375z"/></g></g></g></g><g opacity="0.2" transform="matrix(0.9997252821922302,-0.023437624797225,0.023437624797225,0.9997252821922302,3.212371826171875,2.0925369262695312)"><g opacity="1" transform="matrix(1,0,0,1,0,0)"><g opacity="1" transform="matrix(1,0,0,1,0,0)"><path fill="rgb(255,229,178)" fill-opacity="1" d=" M50.52899932861328,-114.52899932861328 C51.494998931884766,-115.875 54.82600021362305,-117.69100189208984 57.52799987792969,-118.73999786376953 C69.23600006103516,-123.28399658203125 93.6709976196289,-120.38200378417969 111.8499984741211,-108.33100128173828 C137.73800659179688,-91.16899871826172 131.57400512695312,-79.06600189208984 125.9260025024414,-82.47000122070312 C120.27799987792969,-85.8740005493164 100.64199829101562,-101.22699737548828 72.01200103759766,-102.84300231933594 C64.34100341796875,-103.2760009765625 58.86800003051758,-102.73699951171875 54.641998291015625,-103.35099792480469 C49.058998107910156,-104.16200256347656 47.87900161743164,-110.83499908447266 50.52899932861328,-114.52899932861328z"/></g><g opacity="1" transform="matrix(1,0,0,1,0,0)"><path fill="rgb(143,58,0)" fill-opacity="1" d=" M50.96900177001953,-115.197998046875 C51.935001373291016,-116.54399871826172 54.90399932861328,-118.5989990234375 57.60599899291992,-119.64800262451172 C69.31400299072266,-124.19200134277344 91.00499725341797,-124.94200134277344 109.18399810791016,-112.89099884033203 C135.07200622558594,-95.72899627685547 131.84800720214844,-83.38200378417969 126.19999694824219,-86.78600311279297 C120.552001953125,-90.19000244140625 100.91600036621094,-105.54299926757812 72.28600311279297,-107.15899658203125 C64.61499786376953,-107.59200286865234 59.143001556396484,-107.0530014038086 54.91699981689453,-107.66699981689453 C49.33399963378906,-108.47799682617188 48.319000244140625,-111.50399780273438 50.96900177001953,-115.197998046875z"/></g><g opacity="1" transform="matrix(1,0,0,1,0,0)"><path fill="rgb(107,32,0)" fill-opacity="1" d=" M50.439998626708984,-109.51200103759766 C50.45100021362305,-109.53800201416016 50.47200012207031,-109.5719985961914 50.49300003051758,-109.5979995727539 C51.45899963378906,-110.94200134277344 54.42399978637695,-113.00199890136719 57.12799835205078,-114.04100036621094 C68.8290023803711,-118.58899688720703 90.52899932861328,-119.33699798583984 108.70099639892578,-107.29199981689453 C121.65399932861328,-98.7020034790039 127.31300354003906,-91.31400299072266 129.03199768066406,-86.51200103759766 C131.99099731445312,-88.38899993896484 130.00799560546875,-99.08399963378906 109.18000030517578,-112.89299774169922 C91.00800323486328,-124.93800354003906 69.30799865722656,-124.19000244140625 57.608001708984375,-119.6510009765625 C54.90299987792969,-118.60299682617188 51.9370002746582,-116.54299926757812 50.97200012207031,-115.1989974975586 C49.34199905395508,-112.93399810791016 49.09700012207031,-110.91600036621094 50.439998626708984,-109.51200103759766z"/></g></g></g></g></g></g><g style="display: block;" transform="matrix(0.9795840382575989,0.31828615069389343,-0.31828615069389343,0.9795840382575989,869.1405639648438,455.4917297363281)" opacity="0.5700000000000001"><g opacity="1" transform="matrix(1,0,0,1,0,0)"><g opacity="1" transform="matrix(1,0,0,1,-0.99298095703125,0.970001220703125)"><g opacity="1" transform="matrix(1,0,0,1,0,0)"><path fill="rgb(134,63,20)" fill-opacity="1" d=" M-517.4299926757812,-105.79000091552734 C-523.7479858398438,-107.95800018310547 -530.7219848632812,-109.55699920654297 -537.6300048828125,-110.27999877929688 C-546.1179809570312,-111.83000183105469 -565.8480224609375,-108.5979995727539 -558.8099975585938,-119.41000366210938 C-558.8099975585938,-119.41000366210938 -558.7999877929688,-119.41000366210938 -558.7999877929688,-119.41000366210938 C-548.302001953125,-129.875 -531.7150268554688,-116.95800018310547 -522.219970703125,-110 C-522.219970703125,-110 -522.219970703125,-110 -522.2100219726562,-110 C-520.5700073242188,-108.66500091552734 -518.9199829101562,-107.22200012207031 -517.4299926757812,-105.79000091552734z"/></g><g opacity="1" transform="matrix(1,0,0,1,0,0)"><path fill="rgb(99,37,12)" fill-opacity="1" d=" M-517.4299926757812,-105.79000091552734 C-520.97998046875,-107 -524.760009765625,-108.06999969482422 -528.77001953125,-108.88999938964844 C-538.0670166015625,-114.60900115966797 -551.3510131835938,-122.94100189208984 -559.6799926757812,-113.70999908447266 C-559.6900024414062,-113.70999908447266 -559.6900024414062,-113.69999694824219 -559.6900024414062,-113.69999694824219 C-561.2349853515625,-115.43000030517578 -560.1630249023438,-117.8489990234375 -558.7999877929688,-119.41000366210938 C-548.3049926757812,-129.875 -531.7139892578125,-116.95800018310547 -522.219970703125,-110 C-522.219970703125,-110 -522.219970703125,-110 -522.2100219726562,-110 C-520.5700073242188,-108.65699768066406 -518.9199829101562,-107.23799896240234 -517.4299926757812,-105.79000091552734z"/></g></g><g opacity="1" transform="matrix(-1,0,0,1,-1248.532958984375,0.970001220703125)"><g opacity="1" transform="matrix(1,0,0,1,0,0)"><path fill="rgb(134,63,20)" fill-opacity="1" d=" M-517.4299926757812,-105.79000091552734 C-523.7479858398438,-107.95800018310547 -530.7219848632812,-109.55699920654297 -537.6300048828125,-110.27999877929688 C-546.1179809570312,-111.83000183105469 -565.8480224609375,-108.5979995727539 -558.8099975585938,-119.41000366210938 C-558.8099975585938,-119.41000366210938 -558.7999877929688,-119.41000366210938 -558.7999877929688,-119.41000366210938 C-548.302001953125,-129.875 -531.7150268554688,-116.95800018310547 -522.219970703125,-110 C-522.219970703125,-110 -522.219970703125,-110 -522.2100219726562,-110 C-520.5700073242188,-108.66500091552734 -518.9199829101562,-107.22200012207031 -517.4299926757812,-105.79000091552734z"/></g><g opacity="1" transform="matrix(1,0,0,1,0,0)"><path fill="rgb(99,37,12)" fill-opacity="1" d=" M-517.4299926757812,-105.79000091552734 C-520.97998046875,-107 -524.760009765625,-108.06999969482422 -528.77001953125,-108.88999938964844 C-538.0670166015625,-114.60900115966797 -551.3510131835938,-122.94100189208984 -559.6799926757812,-113.70999908447266 C-559.6900024414062,-113.70999908447266 -559.6900024414062,-113.69999694824219 -559.6900024414062,-113.69999694824219 C-561.2349853515625,-115.43000030517578 -560.1630249023438,-117.8489990234375 -558.7999877929688,-119.41000366210938 C-548.3049926757812,-129.875 -531.7139892578125,-116.95800018310547 -522.219970703125,-110 C-522.219970703125,-110 -522.219970703125,-110 -522.2100219726562,-110 C-520.5700073242188,-108.65699768066406 -518.9199829101562,-107.23799896240234 -517.4299926757812,-105.79000091552734z"/></g></g></g></g></g></svg>