<svg xmlns="http://www.w3.org/2000/svg" xmlns:xlink="http://www.w3.org/1999/xlink" viewBox="0 0 512 512" width="512" height="512" style="width: 100%; height: 100%; transform: translate3d(0,0,0);" preserveAspectRatio="xMidYMid meet"><defs><clipPath id="__lottie_element_42214"><rect width="512" height="512" x="0" y="0"/></clipPath><radialGradient id="__lottie_element_42222" spreadMethod="pad" gradientUnits="userSpaceOnUse" cx="-0.9980000257492065" cy="-0.9330000281333923" r="189.40200698375702" fx="-0.9980000257492065" fy="-0.9330000281333923"><stop offset="21%" stop-color="rgb(255,255,255)"/><stop offset="71%" stop-color="rgb(226,217,219)"/><stop offset="100%" stop-color="rgb(197,179,183)"/></radialGradient><radialGradient id="__lottie_element_42223" spreadMethod="pad" gradientUnits="userSpaceOnUse" cx="-0.9980000257492065" cy="-0.032999999821186066" r="177.58099257946014" fx="-0.9980000257492065" fy="-0.032999999821186066"><stop offset="21%" stop-color="rgb(216,201,202)"/><stop offset="71%" stop-color="rgb(181,167,168)"/><stop offset="100%" stop-color="rgb(145,133,134)"/></radialGradient><radialGradient id="__lottie_element_42224" spreadMethod="pad" gradientUnits="userSpaceOnUse" cx="-0.28299999237060547" cy="0.7149999737739563" r="116.40901630200251" fx="-0.28299999237060547" fy="0.7149999737739563"><stop offset="21%" stop-color="rgb(255,255,255)" stop-opacity="1"/><stop offset="65%" stop-color="rgb(255,255,255)" stop-opacity="0.5"/><stop offset="100%" stop-color="rgb(255,255,255)" stop-opacity="0"/></radialGradient><linearGradient id="__lottie_element_42225" spreadMethod="pad" gradientUnits="userSpaceOnUse" x1="-0.9980000257492065" y1="-153.93299865722656" x2="-0.9980000257492065" y2="88.18499755859375"><stop offset="21%" stop-color="rgb(255,255,255)" stop-opacity="1"/><stop offset="60%" stop-color="rgb(255,255,255)" stop-opacity="0.6000000238418579"/><stop offset="100%" stop-color="rgb(255,255,255)" stop-opacity="0.20000000298023224"/></linearGradient><linearGradient id="__lottie_element_42226" spreadMethod="pad" gradientUnits="userSpaceOnUse" x1="-203.9949951171875" y1="-0.8180000185966492" x2="202.0709991455078" y2="-0.8180000185966492"><stop offset="0%" stop-color="rgb(69,62,67)" stop-opacity="1"/><stop offset="23%" stop-color="rgb(122,103,107)" stop-opacity="0.6000000238418579"/><stop offset="49%" stop-color="rgb(175,143,147)" stop-opacity="0.20000000298023224"/><stop offset="77%" stop-color="rgb(122,103,107)" stop-opacity="0.6000000238418579"/><stop offset="100%" stop-color="rgb(69,62,67)" stop-opacity="1"/></linearGradient><linearGradient id="__lottie_element_42230" spreadMethod="pad" gradientUnits="userSpaceOnUse"><stop/><stop/><stop/></linearGradient><mask id="__lottie_element_42232"><path fill="url(#__lottie_element_42231)"/></mask><linearGradient id="__lottie_element_42231" spreadMethod="pad" gradientUnits="userSpaceOnUse"><stop stop-color="rgb(255,255,255)"/><stop stop-color="rgb(255,255,255)"/><stop stop-color="rgb(255,255,255)"/><stop stop-color="rgb(255,255,255)"/><stop stop-color="rgb(255,255,255)"/></linearGradient><linearGradient id="__lottie_element_42236" spreadMethod="pad" gradientUnits="userSpaceOnUse"><stop/><stop/><stop/></linearGradient><mask id="__lottie_element_42238"><path fill="url(#__lottie_element_42237)"/></mask><linearGradient id="__lottie_element_42237" spreadMethod="pad" gradientUnits="userSpaceOnUse"><stop stop-color="rgb(255,255,255)"/><stop stop-color="rgb(255,255,255)"/><stop stop-color="rgb(255,255,255)"/><stop stop-color="rgb(255,255,255)"/><stop stop-color="rgb(255,255,255)"/></linearGradient><linearGradient id="__lottie_element_42243" spreadMethod="pad" gradientUnits="userSpaceOnUse" x1="-0.9980000257492065" y1="-17.14699935913086" x2="-0.9980000257492065" y2="18.047000885009766"><stop offset="0%" stop-color="rgb(255,160,174)"/><stop offset="13%" stop-color="rgb(255,173,186)"/><stop offset="27%" stop-color="rgb(255,187,198)"/><stop offset="42%" stop-color="rgb(212,132,150)"/><stop offset="91%" stop-color="rgb(169,76,102)"/></linearGradient><linearGradient id="__lottie_element_42244" spreadMethod="pad" gradientUnits="userSpaceOnUse" x1="0" y1="-5.1529998779296875" x2="0" y2="8.357999801635742"><stop offset="0%" stop-color="rgb(255,255,255)" stop-opacity="1"/><stop offset="41%" stop-color="rgb(255,255,255)" stop-opacity="0.5"/><stop offset="100%" stop-color="rgb(255,255,255)" stop-opacity="0"/></linearGradient><radialGradient id="__lottie_element_42248" spreadMethod="pad" gradientUnits="userSpaceOnUse"><stop/><stop/><stop/></radialGradient><linearGradient id="__lottie_element_42249" spreadMethod="pad" gradientUnits="userSpaceOnUse"><stop/><stop/><stop/><stop/><stop/></linearGradient><linearGradient id="__lottie_element_42250" spreadMethod="pad" gradientUnits="userSpaceOnUse"><stop/><stop/><stop/></linearGradient><linearGradient id="__lottie_element_42254" spreadMethod="pad" gradientUnits="userSpaceOnUse" x1="-0.7149999737739563" y1="8.611000061035156" x2="-0.7149999737739563" y2="-12.954999923706055"><stop offset="21%" stop-color="rgb(255,255,255)"/><stop offset="71%" stop-color="rgb(226,217,219)"/><stop offset="100%" stop-color="rgb(197,179,183)"/></linearGradient><radialGradient id="__lottie_element_42270" spreadMethod="pad" gradientUnits="userSpaceOnUse" cx="0.010999999940395355" cy="0.054999999701976776" r="55.97394322826118" fx="0.010999999940395355" fy="0.054999999701976776"><stop offset="7%" stop-color="rgb(106,92,95)" stop-opacity="1"/><stop offset="61%" stop-color="rgb(106,92,95)" stop-opacity="0.5"/><stop offset="100%" stop-color="rgb(106,92,95)" stop-opacity="0"/></radialGradient><radialGradient id="__lottie_element_42271" spreadMethod="pad" gradientUnits="userSpaceOnUse" cx="0.028999999165534973" cy="0.8489999771118164" r="25.68530328828765" fx="0.028999999165534973" fy="0.8489999771118164"><stop offset="0%" stop-color="rgb(255,255,255)" stop-opacity="1"/><stop offset="61%" stop-color="rgb(255,255,255)" stop-opacity="0.5"/><stop offset="100%" stop-color="rgb(255,255,255)" stop-opacity="0"/></radialGradient><linearGradient id="__lottie_element_42272" spreadMethod="pad" gradientUnits="userSpaceOnUse" x1="-0.8740000128746033" y1="-6.275000095367432" x2="-0.8740000128746033" y2="11.454999923706055"><stop offset="0%" stop-color="rgb(255,255,255)" stop-opacity="1"/><stop offset="32%" stop-color="rgb(255,255,255)" stop-opacity="0.5"/><stop offset="100%" stop-color="rgb(255,255,255)" stop-opacity="0"/></linearGradient><radialGradient id="__lottie_element_42276" spreadMethod="pad" gradientUnits="userSpaceOnUse" cx="0.010999999940395355" cy="0.054999999701976776" r="55.97394322826118" fx="0.010999999940395355" fy="0.054999999701976776"><stop offset="7%" stop-color="rgb(106,92,95)" stop-opacity="1"/><stop offset="61%" stop-color="rgb(106,92,95)" stop-opacity="0.5"/><stop offset="100%" stop-color="rgb(106,92,95)" stop-opacity="0"/></radialGradient><radialGradient id="__lottie_element_42277" spreadMethod="pad" gradientUnits="userSpaceOnUse" cx="0.028999999165534973" cy="0.8489999771118164" r="25.68530328828765" fx="0.028999999165534973" fy="0.8489999771118164"><stop offset="0%" stop-color="rgb(255,255,255)" stop-opacity="1"/><stop offset="61%" stop-color="rgb(255,255,255)" stop-opacity="0.5"/><stop offset="100%" stop-color="rgb(255,255,255)" stop-opacity="0"/></radialGradient><linearGradient id="__lottie_element_42278" spreadMethod="pad" gradientUnits="userSpaceOnUse" x1="-0.37700000405311584" y1="-6.275000095367432" x2="-0.37700000405311584" y2="11.454999923706055"><stop offset="0%" stop-color="rgb(255,255,255)" stop-opacity="1"/><stop offset="32%" stop-color="rgb(255,255,255)" stop-opacity="0.5"/><stop offset="100%" stop-color="rgb(255,255,255)" stop-opacity="0"/></linearGradient><linearGradient id="__lottie_element_42282" spreadMethod="pad" gradientUnits="userSpaceOnUse" x1="-25.94700050354004" y1="-72.35399627685547" x2="11.92199993133545" y2="53.87699890136719"><stop offset="21%" stop-color="rgb(228,213,214)"/><stop offset="71%" stop-color="rgb(202,185,185)"/><stop offset="100%" stop-color="rgb(176,156,157)"/></linearGradient><linearGradient id="__lottie_element_42283" spreadMethod="pad" gradientUnits="userSpaceOnUse" x1="-9.444000244140625" y1="-75.70600128173828" x2="6.186999797821045" y2="44.645999908447266"><stop offset="28%" stop-color="rgb(239,202,200)"/><stop offset="56%" stop-color="rgb(211,161,164)"/><stop offset="96%" stop-color="rgb(184,120,128)"/></linearGradient><linearGradient id="__lottie_element_42287" spreadMethod="pad" gradientUnits="userSpaceOnUse"><stop/><stop/><stop/></linearGradient><linearGradient id="__lottie_element_42288" spreadMethod="pad" gradientUnits="userSpaceOnUse"><stop/><stop/><stop/></linearGradient><linearGradient id="__lottie_element_42292" spreadMethod="pad" gradientUnits="userSpaceOnUse" x1="-25.94700050354004" y1="-72.35399627685547" x2="11.92199993133545" y2="53.87699890136719"><stop offset="21%" stop-color="rgb(228,213,214)"/><stop offset="71%" stop-color="rgb(202,185,185)"/><stop offset="100%" stop-color="rgb(176,156,157)"/></linearGradient><linearGradient id="__lottie_element_42293" spreadMethod="pad" gradientUnits="userSpaceOnUse" x1="-9.444000244140625" y1="-75.70600128173828" x2="6.186999797821045" y2="44.645999908447266"><stop offset="28%" stop-color="rgb(239,202,200)"/><stop offset="56%" stop-color="rgb(211,161,164)"/><stop offset="96%" stop-color="rgb(184,120,128)"/></linearGradient><linearGradient id="__lottie_element_42297" spreadMethod="pad" gradientUnits="userSpaceOnUse" x1="17.05299949645996" y1="-86.35399627685547" x2="-7.7829999923706055" y2="52.152000427246094"><stop offset="21%" stop-color="rgb(228,213,214)"/><stop offset="71%" stop-color="rgb(202,185,185)"/><stop offset="100%" stop-color="rgb(176,156,157)"/></linearGradient><linearGradient id="__lottie_element_42298" spreadMethod="pad" gradientUnits="userSpaceOnUse" x1="10.548999786376953" y1="-77.70600128173828" x2="-6.296999931335449" y2="36.84600067138672"><stop offset="28%" stop-color="rgb(239,202,200)"/><stop offset="56%" stop-color="rgb(211,161,164)"/><stop offset="96%" stop-color="rgb(184,120,128)"/></linearGradient></defs><g clip-path="url(#__lottie_element_42214)"><g style="display: block;" transform="matrix(0.8960000276565552,0,0,0.8960000276565552,25.96759033203125,20.321014404296875)" opacity="1"><g opacity="1" transform="matrix(1,0,0,1,360.9469909667969,116.35399627685547)"><path fill="url(#__lottie_element_42297)" fill-opacity="1" d=" M-44.42599868774414,48.034000396728516 C-50.50899887084961,14.100000381469727 -39.61800003051758,-73.44499969482422 6.873000144958496,-103.0469970703125 C12,-106.31199645996094 18.80500030517578,-105.02400207519531 22.382999420166016,-100.11000061035156 C37.77899932861328,-78.96499633789062 67.92900085449219,-11.524999618530273 21.454999923706055,105.16000366210938"/></g><g opacity="1" transform="matrix(1,0,0,1,359.45098876953125,139.70599365234375)"><path fill="url(#__lottie_element_42298)" fill-opacity="1" d=" M-24.554000854492188,32.80699920654297 C-25.516000747680664,1.0729999542236328 -20.92799949645996,-58.40299987792969 8.770000457763672,-91.3759994506836 C10.506999969482422,-93.30500030517578 13.651000022888184,-92.78600311279297 14.628000259399414,-90.38099670410156 C20.868999481201172,-75.0250015258789 36.60200119018555,-23.406999588012695 8.446000099182129,57.465999603271484 C-5.88700008392334,42.31100082397461 -24.554000854492188,32.80699920654297 -24.554000854492188,32.80699920654297z"/></g><g opacity="0.4" transform="matrix(1,0,0,1,363.7919921875,133.91299438476562)"><path fill="rgb(135,91,100)" fill-opacity="1" d=" M10.980999946594238,39.5099983215332 C8.550000190734863,48.75600051879883 6.553999900817871,57.42499923706055 3.9839999675750732,62.71500015258789 C-1.4780000448226929,54.66600036621094 -5.853000164031982,51.54100036621094 -13.185999870300293,46.887001037597656 C24.493999481201172,-2.5929999351501465 10.28600025177002,-84.58999633789062 10.28600025177002,-84.58999633789062 C16.525999069213867,-69.2300033569336 30.083999633789062,-33.145999908447266 10.980999946594238,39.5099983215332z"/></g><g opacity="1" transform="matrix(1,0,0,1,359.45098876953125,139.70599365234375)"><path stroke-linecap="round" stroke-linejoin="round" fill-opacity="0" stroke="rgb(143,97,108)" stroke-opacity="1" stroke-width="8" d=" M-24.554000854492188,32.80699920654297 C-25.516000747680664,1.0729999542236328 -20.92799949645996,-58.40299987792969 8.770000457763672,-91.3759994506836 C10.506999969482422,-93.30500030517578 13.651000022888184,-92.78600311279297 14.628000259399414,-90.38099670410156 C20.868999481201172,-75.0250015258789 36.60200119018555,-23.406999588012695 8.446000099182129,57.465999603271484 C-5.88700008392334,42.31100082397461 -24.554000854492188,32.80699920654297 -24.554000854492188,32.80699920654297z"/></g><g opacity="1" transform="matrix(1,0,0,1,360.9469909667969,116.35399627685547)"><path stroke-linecap="round" stroke-linejoin="round" fill-opacity="0" stroke="rgb(122,104,108)" stroke-opacity="1" stroke-width="8" d=" M-44.42599868774414,48.034000396728516 C-50.50899887084961,14.100000381469727 -39.61800003051758,-73.44499969482422 6.873000144958496,-103.0469970703125 C12,-106.31199645996094 18.80500030517578,-105.02400207519531 22.382999420166016,-100.11000061035156 C37.77899932861328,-78.96499633789062 67.92900085449219,-11.524999618530273 21.454999923706055,105.16000366210938"/></g></g><g style="display: block;" transform="matrix(0.8960000276565552,0,0,0.8960000276565552,25.96759033203125,20.321014404296875)" opacity="1"><g opacity="1" transform="matrix(1,0,0,1,0,0)"/><g opacity="0.4" transform="matrix(1,0,0,1,0,0)"/><g opacity="1" transform="matrix(1,0,0,1,150.94700622558594,116.35399627685547)"><path fill="url(#__lottie_element_42292)" fill-opacity="1" d=" M44.737998962402344,43.97200012207031 C51.327999114990234,4.431000232696533 39.61800003051758,-73.44499969482422 -6.873000144958496,-103.0469970703125 C-12,-106.31199645996094 -18.80500030517578,-105.02400207519531 -22.382999420166016,-100.11000061035156 C-37.77899932861328,-78.96499633789062 -67.94999694824219,-9.840999603271484 -23.329999923706055,104.8479995727539"/></g><g opacity="1" transform="matrix(1,0,0,1,152.44400024414062,139.70599365234375)"><path fill="url(#__lottie_element_42293)" fill-opacity="1" d=" M23.304000854492188,30.93199920654297 C24.266000747680664,-0.8019999861717224 20.92799949645996,-58.40299987792969 -8.770000457763672,-91.3759994506836 C-10.506999969482422,-93.30500030517578 -13.651000022888184,-92.78600311279297 -14.628000259399414,-90.38099670410156 C-20.868999481201172,-75.0250015258789 -36.132999420166016,-25.281999588012695 -7.9770002365112305,55.590999603271484 C5.651000022888184,40.59199905395508 23.304000854492188,30.93199920654297 23.304000854492188,30.93199920654297z"/></g><g opacity="1" transform="matrix(1,0,0,1,152.44400024414062,139.70599365234375)"><path stroke-linecap="round" stroke-linejoin="round" fill-opacity="0" stroke="rgb(143,97,108)" stroke-opacity="1" stroke-width="8" d=" M23.304000854492188,30.93199920654297 C24.266000747680664,-0.8019999861717224 20.92799949645996,-58.40299987792969 -8.770000457763672,-91.3759994506836 C-10.506999969482422,-93.30500030517578 -13.651000022888184,-92.78600311279297 -14.628000259399414,-90.38099670410156 C-20.868999481201172,-75.0250015258789 -36.132999420166016,-25.281999588012695 -7.9770002365112305,55.590999603271484 C5.651000022888184,40.59199905395508 23.304000854492188,30.93199920654297 23.304000854492188,30.93199920654297z"/></g><g opacity="0.4" transform="matrix(1,0,0,1,147.44400024414062,133.91299438476562)"><path fill="rgb(135,91,100)" fill-opacity="1" d=" M-4.105999946594238,63.2599983215332 C0.8069999814033508,55.91600036621094 8.307000160217285,51.229000091552734 11.779999732971191,47.20000076293945 C-25.899999618530273,-2.2799999713897705 -10.28600025177002,-84.58999633789062 -10.28600025177002,-84.58999633789062 C-16.525999069213867,-69.2300033569336 -32.25600051879883,-17.610000610351562 -4.105999946594238,63.2599983215332z"/></g><g opacity="1" transform="matrix(1,0,0,1,150.94700622558594,116.35399627685547)"><path stroke-linecap="round" stroke-linejoin="round" fill-opacity="0" stroke="rgb(122,104,108)" stroke-opacity="1" stroke-width="8" d=" M44.737998962402344,43.97200012207031 C49.49100112915039,5.038000106811523 38.24100112915039,-71.83699798583984 -6.873000144958496,-103.0469970703125 C-11.871999740600586,-106.50499725341797 -18.80500030517578,-105.02400207519531 -22.382999420166016,-100.11000061035156 C-37.77899932861328,-78.96499633789062 -67.94999694824219,-9.840999603271484 -23.329999923706055,104.8479995727539"/></g></g><g style="display: block;" transform="matrix(0.8960000276565552,0,0,0.8960000276565552,25.96759033203125,20.321014404296875)" opacity="1"><g opacity="1" transform="matrix(1,0,0,1,255.9980010986328,322.9330139160156)"><path fill="url(#__lottie_element_42222)" fill-opacity="1" d=" M149.4600067138672,-52.130001068115234 C138.88900756835938,-59.25899887084961 138.02000427246094,-69.19000244140625 135.9199981689453,-76.9800033569336 C118,-143.4199981689453 75,-174.7100067138672 0,-174.7100067138672 C-75,-174.7100067138672 -118,-143.4199981689453 -135.9199981689453,-76.9800033569336 C-138.02000427246094,-69.19000244140625 -138.88900756835938,-59.25899887084961 -149.4600067138672,-52.130001068115234 C-195,-21.420000076293945 -211.47999572753906,24.441999435424805 -199,72.58000183105469 C-185,126.58000183105469 -137,158.5800018310547 -58,156.5800018310547 C-37.00899887084961,156.0489959716797 -29,174.7100067138672 0,174.7100067138672 C29,174.7100067138672 37.00899887084961,156.0489959716797 58,156.5800018310547 C137,158.5800018310547 185,126.58000183105469 199,72.58000183105469 C211.47999572753906,24.441999435424805 195,-21.420000076293945 149.4600067138672,-52.130001068115234z"/><path stroke-linecap="round" stroke-linejoin="round" fill-opacity="0" stroke="rgb(106,92,95)" stroke-opacity="1" stroke-width="8" d=" M149.4600067138672,-52.130001068115234 C138.88900756835938,-59.25899887084961 138.02000427246094,-69.19000244140625 135.9199981689453,-76.9800033569336 C118,-143.4199981689453 75,-174.7100067138672 0,-174.7100067138672 C-75,-174.7100067138672 -118,-143.4199981689453 -135.9199981689453,-76.9800033569336 C-138.02000427246094,-69.19000244140625 -138.88900756835938,-59.25899887084961 -149.4600067138672,-52.130001068115234 C-195,-21.420000076293945 -211.47999572753906,24.441999435424805 -199,72.58000183105469 C-185,126.58000183105469 -137,158.5800018310547 -58,156.5800018310547 C-37.00899887084961,156.0489959716797 -29,174.7100067138672 0,174.7100067138672 C29,174.7100067138672 37.00899887084961,156.0489959716797 58,156.5800018310547 C137,158.5800018310547 185,126.58000183105469 199,72.58000183105469 C211.47999572753906,24.441999435424805 195,-21.420000076293945 149.4600067138672,-52.130001068115234z"/></g><g opacity="1" transform="matrix(1,0,0,1,255.9980010986328,296.0329895019531)"><path fill="url(#__lottie_element_42223)" fill-opacity="1" d=" M199,99.4800033569336 C194.07000732421875,118.5 184.9199981689453,134.77999877929688 171.69000244140625,147.80999755859375 C162.72000122070312,129.99000549316406 130.6199951171875,118.01000213623047 96.8499984741211,113.18000030517578 C63.09000015258789,108.36000061035156 42.9900016784668,93.88999938964844 29.1200008392334,65.55000305175781 C15.260000228881836,37.220001220703125 23.100000381469727,-57.439998626708984 1,-57.439998626708984 C-21.100000381469727,-57.439998626708984 -14.979999542236328,20.729999542236328 -23.719999313354492,62.540000915527344 C-28.959999084472656,87.58000183105469 -47.630001068115234,104.54000091552734 -79.88999938964844,110.56999969482422 C-112.13999938964844,116.58999633789062 -148.2209930419922,119.86900329589844 -171.69000244140625,147.80999755859375 C-184.9199981689453,134.77999877929688 -194.07000732421875,118.5 -199,99.4800033569336 C-211.47999572753906,51.34000015258789 -195,5.480000019073486 -149.4600067138672,-25.229999542236328 C-138.88999938964844,-32.36000061035156 -138.02000427246094,-42.290000915527344 -135.9199981689453,-50.08000183105469 C-118,-116.5199966430664 -75,-147.80999755859375 0,-147.80999755859375 C75,-147.80999755859375 118,-116.5199966430664 135.9199981689453,-50.08000183105469 C138.02000427246094,-42.290000915527344 138.88999938964844,-32.36000061035156 149.4600067138672,-25.229999542236328 C195,5.480000019073486 211.47999572753906,51.34000015258789 199,99.4800033569336z"/></g><g opacity="0.5" transform="matrix(1,0,0,0.550000011920929,256.25,225)"><path fill="url(#__lottie_element_42224)" fill-opacity="1" d=" M120.0469970703125,0 C120.0469970703125,66.30000305175781 68.15799713134766,107.90499877929688 1.8580000400543213,107.90499877929688 C-64.44200134277344,107.90499877929688 -120.0469970703125,66.30000305175781 -120.0469970703125,0 C-120.0469970703125,-66.30000305175781 -79.65899658203125,-142.3090057373047 -0.1509999930858612,-139.125 C66.09600067138672,-136.4720001220703 120.0469970703125,-66.30000305175781 120.0469970703125,0z"/></g><g opacity="0.3" transform="matrix(1,0,0,1,255.9980010986328,322.9330139160156)"><path fill="url(#__lottie_element_42225)" fill-opacity="1" d=" M149.4600067138672,-52.130001068115234 C138.88999938964844,-59.2599983215332 138.02000427246094,-69.19000244140625 135.9199981689453,-76.9800033569336 C118,-143.4199981689453 75,-174.7100067138672 0,-174.7100067138672 C-75,-174.7100067138672 -118,-143.4199981689453 -135.9199981689453,-76.9800033569336 C-138.02000427246094,-69.19000244140625 -138.88999938964844,-59.2599983215332 -149.4600067138672,-52.130001068115234 C-195,-21.420000076293945 -211.47999572753906,24.440000534057617 -199,72.58000183105469 C-185,126.58000183105469 -137,158.5800018310547 -58,156.5800018310547 C-37.0099983215332,156.0500030517578 -29,174.7100067138672 0,174.7100067138672 C29,174.7100067138672 37.0099983215332,156.0500030517578 58,156.5800018310547 C137,158.5800018310547 185,126.58000183105469 199,72.58000183105469 C211.47999572753906,24.440000534057617 195,-21.420000076293945 149.4600067138672,-52.130001068115234z M179.9199981689453,69.52999877929688 C167.47000122070312,117.54000091552734 121.80000305175781,145.99000549316406 51.560001373291016,144.2100067138672 C32.900001525878906,143.72999572753906 25.780000686645508,160.3300018310547 0,160.3300018310547 C-25.780000686645508,160.3300018310547 -32.900001525878906,143.72999572753906 -51.560001373291016,144.2100067138672 C-121.80000305175781,145.99000549316406 -167.47000122070312,117.54000091552734 -179.9199981689453,69.52999877929688 C-191.02000427246094,26.729999542236328 -174.36000061035156,-14.039999961853027 -133.8800048828125,-41.349998474121094 C-124.4800033569336,-47.68000030517578 -122.70999908447266,-56.5099983215332 -120.83999633789062,-63.439998626708984 C-104.91000366210938,-122.51000213623047 -66.68000030517578,-150.3300018310547 0,-150.3300018310547 C66.68000030517578,-150.3300018310547 104.91000366210938,-122.51000213623047 120.83999633789062,-63.439998626708984 C122.70999908447266,-56.5099983215332 124.4800033569336,-47.68000030517578 133.8800048828125,-41.349998474121094 C174.36000061035156,-14.039999961853027 191.02000427246094,26.729999542236328 179.9199981689453,69.52999877929688z"/></g><g opacity="0.3" transform="matrix(1,0,0,1,255.9949951171875,413.8179931640625)"><path fill="url(#__lottie_element_42226)" fill-opacity="1" d=" M199.0030059814453,-18.30500030517578 C185.0030059814453,35.69499969482422 137.0030059814453,67.69499969482422 58.00299835205078,65.69499969482422 C37.01300048828125,65.16500091552734 29.003000259399414,83.82499694824219 0.003000000026077032,83.82499694824219 C-28.996999740600586,83.82499694824219 -37.00699996948242,65.16500091552734 -57.99700164794922,65.69499969482422 C-136.9969940185547,67.69499969482422 -184.9969940185547,35.69499969482422 -198.9969940185547,-18.30500030517578 C-204.90699768066406,-41.084999084472656 -204.32699584960938,-63.3650016784668 -197.2469940185547,-83.76499938964844 C-197.2469940185547,-83.76499938964844 -197.2169952392578,-83.82499694824219 -197.2169952392578,-83.82499694824219 C-197.2169952392578,-44.00899887084961 -186.34500122070312,-13.63700008392334 -155.74899291992188,6.710999965667725 C-144.42599487304688,14.241000175476074 -130.40199279785156,20.39900016784668 -113.22799682617188,25.155000686645508 C-84.5979995727539,33.08300018310547 -47.2130012512207,37.1150016784668 1.003000020980835,37.1150016784668 C51.507999420166016,37.1150016784668 89.08899688720703,31.349000930786133 117.0719985961914,22.31999969482422 C133.656005859375,16.9689998626709 146.8679962158203,10.470999717712402 157.40199279785156,3.3480000495910645 C197.66700744628906,-23.881000518798828 198.78700256347656,-60.249000549316406 199.42300415039062,-76.66500091552734 C204.3730010986328,-58.244998931884766 204.23300170898438,-38.474998474121094 199.0030059814453,-18.30500030517578z"/></g><g opacity="1" transform="matrix(1,0,0,1,255.9980010986328,322.9330139160156)"><path stroke-linecap="round" stroke-linejoin="round" fill-opacity="0" stroke="rgb(106,92,95)" stroke-opacity="1" stroke-width="8" d=" M149.4600067138672,-52.130001068115234 C138.88900756835938,-59.25899887084961 138.02000427246094,-69.19000244140625 135.9199981689453,-76.9800033569336 C118,-143.4199981689453 75,-174.7100067138672 0,-174.7100067138672 C-75,-174.7100067138672 -118,-143.4199981689453 -135.9199981689453,-76.9800033569336 C-138.02000427246094,-69.19000244140625 -138.88900756835938,-59.25899887084961 -149.4600067138672,-52.130001068115234 C-195,-21.420000076293945 -211.47999572753906,24.441999435424805 -199,72.58000183105469 C-185,126.58000183105469 -137,158.5800018310547 -58,156.5800018310547 C-37.00899887084961,156.0489959716797 -29,174.7100067138672 0,174.7100067138672 C29,174.7100067138672 37.00899887084961,156.0489959716797 58,156.5800018310547 C137,158.5800018310547 185,126.58000183105469 199,72.58000183105469 C211.47999572753906,24.441999435424805 195,-21.420000076293945 149.4600067138672,-52.130001068115234z"/></g><g opacity="1" transform="matrix(1,0,0,1,255.9980010986328,322.9330139160156)"><path stroke-linecap="round" stroke-linejoin="round" fill-opacity="0" stroke="rgb(76,68,69)" stroke-opacity="1" stroke-width="8" d=" M-203.031005859375,41.30099868774414 C-203.08700561523438,51.5260009765625 -201.7429962158203,61.99800109863281 -199,72.58000183105469 C-185,126.58000183105469 -137,158.5800018310547 -58,156.5800018310547 C-37.00899887084961,156.0489959716797 -29,174.7100067138672 0,174.7100067138672 C29,174.7100067138672 37.00899887084961,156.0489959716797 58,156.5800018310547 C137,158.5800018310547 185,126.58000183105469 199,72.58000183105469 C202.18699645996094,60.2859992980957 203.48599243164062,48.14099884033203 202.8939971923828,36.35900115966797"/></g><g opacity="1" transform="matrix(1,0,0,1,255.9980010986328,322.9330139160156)"><path stroke-linecap="round" stroke-linejoin="round" fill-opacity="0" stroke="rgb(144,119,127)" stroke-opacity="1" stroke-width="8" d=" M-167.6269989013672,124.70800018310547 C-143.18899536132812,146.26100158691406 -106.41600036621094,157.80599975585938 -58,156.5800018310547 C-37.00899887084961,156.0489959716797 -29,174.7100067138672 0,174.7100067138672 C29,174.7100067138672 37.00899887084961,156.0489959716797 58,156.5800018310547 C106.85700225830078,157.81700134277344 143.85699462890625,146.0500030517578 168.29200744628906,124.11699676513672"/></g></g><g style="display: block;" transform="matrix(0.8960000276565552,0,0,0.8960000276565552,25.96759033203125,20.321014404296875)" opacity="0.01"><g opacity="1" transform="matrix(1,0,0,1,150.94700622558594,116.35399627685547)"><path fill="url(#__lottie_element_42282)" fill-opacity="1" d=" M44.737998962402344,43.97200012207031 C51.327999114990234,4.431000232696533 39.61800003051758,-73.44499969482422 -6.873000144958496,-103.0469970703125 C-12,-106.31199645996094 -18.80500030517578,-105.02400207519531 -22.382999420166016,-100.11000061035156 C-37.77899932861328,-78.96499633789062 -67.94999694824219,-9.840999603271484 -23.329999923706055,104.8479995727539"/></g><g opacity="1" transform="matrix(1,0,0,1,152.44400024414062,139.70599365234375)"><path fill="url(#__lottie_element_42283)" fill-opacity="1" d=" M23.304000854492188,30.93199920654297 C24.266000747680664,-0.8019999861717224 20.92799949645996,-58.40299987792969 -8.770000457763672,-91.3759994506836 C-10.506999969482422,-93.30500030517578 -13.651000022888184,-92.78600311279297 -14.628000259399414,-90.38099670410156 C-20.868999481201172,-75.0250015258789 -36.132999420166016,-25.281999588012695 -7.9770002365112305,55.590999603271484 C5.651000022888184,40.59199905395508 23.304000854492188,30.93199920654297 23.304000854492188,30.93199920654297z"/></g><g opacity="1" transform="matrix(1,0,0,1,152.44400024414062,139.70599365234375)"><path stroke-linecap="round" stroke-linejoin="round" fill-opacity="0" stroke="rgb(143,97,108)" stroke-opacity="1" stroke-width="8" d=" M23.304000854492188,30.93199920654297 C24.266000747680664,-0.8019999861717224 20.92799949645996,-58.40299987792969 -8.770000457763672,-91.3759994506836 C-10.506999969482422,-93.30500030517578 -13.651000022888184,-92.78600311279297 -14.628000259399414,-90.38099670410156 C-20.868999481201172,-75.0250015258789 -36.132999420166016,-25.281999588012695 -7.9770002365112305,55.590999603271484 C5.651000022888184,40.59199905395508 23.304000854492188,30.93199920654297 23.304000854492188,30.93199920654297z"/></g><g opacity="0.4" transform="matrix(1,0,0,1,147.44400024414062,133.91299438476562)"><path fill="rgb(135,91,100)" fill-opacity="1" d=" M-4.105999946594238,63.2599983215332 C0.8069999814033508,55.91600036621094 8.307000160217285,51.229000091552734 11.779999732971191,47.20000076293945 C-25.899999618530273,-2.2799999713897705 -10.28600025177002,-84.58999633789062 -10.28600025177002,-84.58999633789062 C-16.525999069213867,-69.2300033569336 -32.25600051879883,-17.610000610351562 -4.105999946594238,63.2599983215332z"/></g><g opacity="1" transform="matrix(1,0,0,1,150.94700622558594,116.35399627685547)"><path stroke-linecap="round" stroke-linejoin="round" fill-opacity="0" stroke="rgb(122,104,108)" stroke-opacity="1" stroke-width="8" d=" M44.737998962402344,43.97200012207031 C49.49100112915039,5.038000106811523 38.24100112915039,-71.83699798583984 -6.873000144958496,-103.0469970703125 C-11.871999740600586,-106.50499725341797 -18.80500030517578,-105.02400207519531 -22.382999420166016,-100.11000061035156 C-37.77899932861328,-78.96499633789062 -67.94999694824219,-9.840999603271484 -23.329999923706055,104.8479995727539"/></g></g><g style="display: block;" transform="matrix(0.8960000276565552,0,0,0.8960000276565552,25.9666748046875,23.1201171875)" opacity="1"><g opacity="0.7000000000000001" transform="matrix(0.7300000190734863,0,0,1,185,324.375)"><path fill="url(#__lottie_element_42276)" fill-opacity="1" d=" M0,57.73400115966797 C-31.885000228881836,57.73400115966797 -57.73400115966797,31.885000228881836 -57.73400115966797,0 C-57.73400115966797,-31.885000228881836 -31.885000228881836,-57.73400115966797 0,-57.73400115966797 C31.885000228881836,-57.73400115966797 57.73400115966797,-31.885000228881836 57.73400115966797,0 C57.73400115966797,31.885000228881836 31.885000228881836,57.73400115966797 0,57.73400115966797z"/></g><g opacity="0.1" transform="matrix(1,0,0,1,180.1929931640625,326.8450012207031)"><path fill="rgb(0,0,0)" fill-opacity="1" d=" M22.27199935913086,0 C22.27199935913086,22.10099983215332 12.300000190734863,40.016998291015625 0,40.016998291015625 C-12.300000190734863,40.016998291015625 -22.27199935913086,22.10099983215332 -22.27199935913086,0 C-22.27199935913086,-22.10099983215332 -12.300000190734863,-40.016998291015625 0,-40.016998291015625 C12.300000190734863,-40.016998291015625 22.27199935913086,-22.10099983215332 22.27199935913086,0z"/></g><g opacity="0.5" transform="matrix(1,0,0,1,180.1929931640625,342.4289855957031)"><path fill="rgb(255,255,255)" fill-opacity="1" d=" M22.27199935913086,0 C22.27199935913086,22.10099983215332 12.300000190734863,40.016998291015625 0,40.016998291015625 C-12.300000190734863,40.016998291015625 -22.27199935913086,22.10099983215332 -22.27199935913086,0 C-22.27199935913086,-22.10099983215332 -12.300000190734863,-40.016998291015625 0,-40.016998291015625 C12.300000190734863,-40.016998291015625 22.27199935913086,-22.10099983215332 22.27199935913086,0z"/></g><g opacity="1" transform="matrix(1,0,0,1,0,0)"><g opacity="1" transform="matrix(1,0,0,1,180.3769989013672,334.6369934082031)"><path fill="rgb(0,0,0)" fill-opacity="1" d=" M22.27199935913086,0 C22.27199935913086,22.10099983215332 12.300000190734863,40.016998291015625 0,40.016998291015625 C-12.300000190734863,40.016998291015625 -22.27199935913086,22.10099983215332 -22.27199935913086,0 C-22.27199935913086,-22.10099983215332 -12.300000190734863,-40.016998291015625 0,-40.016998291015625 C12.300000190734863,-40.016998291015625 22.27199935913086,-22.10099983215332 22.27199935913086,0z"/></g><g opacity="0.3" transform="matrix(0.7699999809265137,0,0,1,180.3769989013672,344.7090148925781)"><path fill="url(#__lottie_element_42277)" fill-opacity="1" d=" M23.18600082397461,0 C23.18600082397461,13.803999900817871 12.805999755859375,24.9950008392334 0,24.9950008392334 C-12.805999755859375,24.9950008392334 -23.18600082397461,13.803999900817871 -23.18600082397461,0 C-23.18600082397461,-13.803999900817871 -12.805999755859375,-24.9950008392334 0,-24.9950008392334 C12.805999755859375,-24.9950008392334 23.18600082397461,-13.803999900817871 23.18600082397461,0z"/></g><g opacity="1" transform="matrix(1,0,0,1,180.3769989013672,311.2749938964844)"><path fill="url(#__lottie_element_42278)" fill-opacity="1" d=" M10.54800033569336,2.819000005722046 C10.54800033569336,5.199999809265137 9.229000091552734,6.604000091552734 7.250999927520752,7.414000034332275 C5.2729997634887695,8.223999977111816 2.635999917984009,8.439000129699707 0,8.439000129699707 C-2.635999917984009,8.439000129699707 -5.2729997634887695,8.223999977111816 -7.250999927520752,7.414000034332275 C-9.229000091552734,6.604000091552734 -10.54800033569336,5.199999809265137 -10.54800033569336,2.819000005722046 C-10.54800033569336,-1.9420000314712524 -5.2729997634887695,-8.439000129699707 0,-8.439000129699707 C5.2729997634887695,-8.439000129699707 10.54800033569336,-1.9420000314712524 10.54800033569336,2.819000005722046z"/></g></g></g><g style="display: block;" transform="matrix(0.8960000276565552,0,0,0.8960000276565552,25.9666748046875,23.1201171875)" opacity="1"><g opacity="0.7000000000000001" transform="matrix(0.7300000190734863,0,0,1,330,324.375)"><path fill="url(#__lottie_element_42270)" fill-opacity="1" d=" M0,57.73400115966797 C-31.885000228881836,57.73400115966797 -57.73400115966797,31.885000228881836 -57.73400115966797,0 C-57.73400115966797,-31.885000228881836 -31.885000228881836,-57.73400115966797 0,-57.73400115966797 C31.885000228881836,-57.73400115966797 57.73400115966797,-31.885000228881836 57.73400115966797,0 C57.73400115966797,31.885000228881836 31.885000228881836,57.73400115966797 0,57.73400115966797z"/></g><g opacity="0.1" transform="matrix(1,0,0,1,334.69000244140625,326.8450012207031)"><path fill="rgb(0,0,0)" fill-opacity="1" d=" M22.27199935913086,0 C22.27199935913086,22.10099983215332 12.300000190734863,40.016998291015625 0,40.016998291015625 C-12.300000190734863,40.016998291015625 -22.27199935913086,22.10099983215332 -22.27199935913086,0 C-22.27199935913086,-22.10099983215332 -12.300000190734863,-40.016998291015625 0,-40.016998291015625 C12.300000190734863,-40.016998291015625 22.27199935913086,-22.10099983215332 22.27199935913086,0z"/></g><g opacity="0.5" transform="matrix(1,0,0,1,334.69000244140625,342.4289855957031)"><path fill="rgb(255,255,255)" fill-opacity="1" d=" M22.27199935913086,0 C22.27199935913086,22.10099983215332 12.300000190734863,40.016998291015625 0,40.016998291015625 C-12.300000190734863,40.016998291015625 -22.27199935913086,22.10099983215332 -22.27199935913086,0 C-22.27199935913086,-22.10099983215332 -12.300000190734863,-40.016998291015625 0,-40.016998291015625 C12.300000190734863,-40.016998291015625 22.27199935913086,-22.10099983215332 22.27199935913086,0z"/></g><g opacity="1" transform="matrix(1,0,0,1,0,0)"><g opacity="1" transform="matrix(1,0,0,1,334.8739929199219,334.6369934082031)"><path fill="rgb(0,0,0)" fill-opacity="1" d=" M22.27199935913086,0 C22.27199935913086,22.10099983215332 12.300000190734863,40.016998291015625 0,40.016998291015625 C-12.300000190734863,40.016998291015625 -22.27199935913086,22.10099983215332 -22.27199935913086,0 C-22.27199935913086,-22.10099983215332 -12.300000190734863,-40.016998291015625 0,-40.016998291015625 C12.300000190734863,-40.016998291015625 22.27199935913086,-22.10099983215332 22.27199935913086,0z"/></g><g opacity="0.3" transform="matrix(0.7699999809265137,0,0,1,334.4389953613281,344.7090148925781)"><path fill="url(#__lottie_element_42271)" fill-opacity="1" d=" M23.18600082397461,0 C23.18600082397461,13.803999900817871 12.805999755859375,24.9950008392334 0,24.9950008392334 C-12.805999755859375,24.9950008392334 -23.18600082397461,13.803999900817871 -23.18600082397461,0 C-23.18600082397461,-13.803999900817871 -12.805999755859375,-24.9950008392334 0,-24.9950008392334 C12.805999755859375,-24.9950008392334 23.18600082397461,-13.803999900817871 23.18600082397461,0z"/></g><g opacity="1" transform="matrix(1,0,0,1,334.8739929199219,311.2749938964844)"><path fill="url(#__lottie_element_42272)" fill-opacity="1" d=" M10.54800033569336,2.819000005722046 C10.54800033569336,5.199999809265137 9.229000091552734,6.604000091552734 7.250999927520752,7.414000034332275 C5.2729997634887695,8.223999977111816 2.635999917984009,8.439000129699707 0,8.439000129699707 C-2.635999917984009,8.439000129699707 -5.2729997634887695,8.223999977111816 -7.250999927520752,7.414000034332275 C-9.229000091552734,6.604000091552734 -10.54800033569336,5.199999809265137 -10.54800033569336,2.819000005722046 C-10.54800033569336,-1.9420000314712524 -5.2729997634887695,-8.439000129699707 0,-8.439000129699707 C5.2729997634887695,-8.439000129699707 10.54800033569336,-1.9420000314712524 10.54800033569336,2.819000005722046z"/></g></g></g><g style="display: block;" transform="matrix(0.8960000276565552,0,0,0.8960000276565552,25.9666748046875,23.121063232421875)" opacity="1"><g opacity="1" transform="matrix(1,0,0,1,377.0669860839844,450.3789978027344)"><path stroke-linecap="round" stroke-linejoin="round" fill-opacity="0" stroke="rgb(160,144,150)" stroke-opacity="1" stroke-width="4" d=" M52.74100112915039,20.70800018310547 C52.74100112915039,20.70800018310547 17.753000259399414,-23.55699920654297 -52.74100112915039,-20.562999725341797"/></g><g opacity="1" transform="matrix(1,0,0,1,379.1860046386719,468.4469909667969)"><path stroke-linecap="round" stroke-linejoin="round" fill-opacity="0" stroke="rgb(160,144,150)" stroke-opacity="1" stroke-width="4" d=" M54.85900115966797,29.195999145507812 C54.85900115966797,29.195999145507812 14.788999557495117,-29.195999145507812 -54.85900115966797,-29.195999145507812"/></g><g opacity="1" transform="matrix(1,0,0,1,374.5849914550781,480.35198974609375)"><path stroke-linecap="round" stroke-linejoin="round" fill-opacity="0" stroke="rgb(160,144,150)" stroke-opacity="1" stroke-width="4" d=" M45.96699905395508,29.517000198364258 C45.96699905395508,29.517000198364258 11.843999862670898,-26.166000366210938 -45.96699905395508,-29.517000198364258"/></g></g><g style="display: block;" transform="matrix(0.8960000276565552,0,0,0.8960000276565552,26.967498779296875,23.121063232421875)" opacity="1"><g opacity="1" transform="matrix(1,0,0,1,131.927001953125,450.3789978027344)"><path stroke-linecap="round" stroke-linejoin="round" fill-opacity="0" stroke="rgb(160,144,150)" stroke-opacity="1" stroke-width="4" d=" M-52.74100112915039,20.70800018310547 C-52.74100112915039,20.70800018310547 -17.753000259399414,-23.55699920654297 52.74100112915039,-20.562999725341797"/></g><g opacity="1" transform="matrix(1,0,0,1,129.8090057373047,468.4469909667969)"><path stroke-linecap="round" stroke-linejoin="round" fill-opacity="0" stroke="rgb(160,144,150)" stroke-opacity="1" stroke-width="4" d=" M-54.85900115966797,29.195999145507812 C-54.85900115966797,29.195999145507812 -14.788999557495117,-29.195999145507812 54.85900115966797,-29.195999145507812"/></g><g opacity="1" transform="matrix(1,0,0,1,134.41000366210938,480.35198974609375)"><path stroke-linecap="round" stroke-linejoin="round" fill-opacity="0" stroke="rgb(160,144,150)" stroke-opacity="1" stroke-width="4" d=" M-45.96699905395508,29.517000198364258 C-45.96699905395508,29.517000198364258 -11.843999862670898,-26.166000366210938 45.96699905395508,-29.517000198364258"/></g></g><g style="display: block;" transform="matrix(0.8960000276565552,0,0,0.8960000276565552,25.562576293945312,19.772705078125)" opacity="1"><g opacity="1" transform="matrix(1,0,0,1,256.7149963378906,480.3890075683594)"><path fill="url(#__lottie_element_42254)" fill-opacity="1" d=" M25.131999969482422,-5.906000137329102 C25.131999969482422,-5.906000137329102 25.131999969482422,19.386999130249023 25.131999969482422,19.386999130249023 C25.131999969482422,19.386999130249023 -25.131999969482422,19.386999130249023 -25.131999969482422,19.386999130249023 C-25.131999969482422,19.386999130249023 -25.131999969482422,-6.2230000495910645 -25.131999969482422,-6.2230000495910645 C-25.131999969482422,-6.2230000495910645 0.28299999237060547,-19.386999130249023 0.28299999237060547,-19.386999130249023 C0.28299999237060547,-19.386999130249023 25.131999969482422,-5.906000137329102 25.131999969482422,-5.906000137329102z"/></g><g opacity="1" transform="matrix(1,0,0,1,256.7149963378906,486.97100830078125)"><path stroke-linecap="round" stroke-linejoin="round" fill-opacity="0" stroke="rgb(181,167,168)" stroke-opacity="1" stroke-width="8" d=" M-26.659000396728516,-12.805000305175781 C-26.659000396728516,-12.805000305175781 -26.659000396728516,5.189000129699707 -26.659000396728516,5.189000129699707 C-26.659000396728516,9.395000457763672 -23.249000549316406,12.805000305175781 -19.042999267578125,12.805000305175781 C-19.042999267578125,12.805000305175781 19.042999267578125,12.805000305175781 19.042999267578125,12.805000305175781 C23.249000549316406,12.805000305175781 26.659000396728516,9.395000457763672 26.659000396728516,5.189000129699707 C26.659000396728516,5.189000129699707 26.659000396728516,-12.48799991607666 26.659000396728516,-12.48799991607666"/></g><g opacity="0.5" transform="matrix(1,0,0,1,257,468.8139953613281)"><path stroke-linecap="round" stroke-linejoin="round" fill-opacity="0" stroke="rgb(152,133,134)" stroke-opacity="1" stroke-width="8" d=" M0,-7.880000114440918 C0,-7.880000114440918 0,7.880000114440918 0,7.880000114440918"/></g></g><g style="display: block;" transform="matrix(0.8960000276565552,0,0,0.8960000276565552,25.562576293945312,19.772705078125)" opacity="1"><g opacity="0.5" transform="matrix(1,0,0,1,256.99798583984375,436.9200134277344)"><path fill="rgb(255,255,255)" fill-opacity="1" d=" M0,-25.082000732421875 C-17.792999267578125,-25.082000732421875 -33.220001220703125,-19.582000732421875 -33.220001220703125,-7.203999996185303 C-33.220001220703125,5.604000091552734 -9.737000465393066,25.082000732421875 0,25.082000732421875 C9.737000465393066,25.082000732421875 33.220001220703125,5.604000091552734 33.220001220703125,-7.203999996185303 C33.220001220703125,-19.582000732421875 17.792999267578125,-25.082000732421875 0,-25.082000732421875z"/></g><g opacity="1" transform="matrix(1,0,0,1,257.8059997558594,470.3179931640625)"><path stroke-linecap="round" stroke-linejoin="round" fill-opacity="0" stroke="rgb(145,120,128)" stroke-opacity="1" stroke-width="8" d=" M-55.340999603271484,9.383999824523926 C-55.340999603271484,9.383999824523926 -29.965999603271484,9.038000106811523 -0.8050000071525574,-9.383999824523926 C-0.8050000071525574,-9.383999824523926 25.79199981689453,9.385000228881836 55.340999603271484,9.1850004196167"/></g><g opacity="1" transform="matrix(1,0,0,1,0,0)"><g opacity="0.1" transform="matrix(1,0,0,1,256.99798583984375,426.65301513671875)"><path fill="rgb(0,0,0)" fill-opacity="1" d=" M0,-24.60700035095215 C-17.792999267578125,-24.60700035095215 -33.220001220703125,-21.628000259399414 -33.220001220703125,-8.8149995803833 C-33.220001220703125,4.443999767303467 -9.737000465393066,24.60700035095215 0,24.60700035095215 C9.737000465393066,24.60700035095215 33.220001220703125,4.443999767303467 33.220001220703125,-8.8149995803833 C33.220001220703125,-21.628000259399414 17.792999267578125,-24.60700035095215 0,-24.60700035095215z"/></g><g opacity="1" transform="matrix(1,0,0,1,256.99798583984375,432.1470031738281)"><path fill="url(#__lottie_element_42243)" fill-opacity="1" d=" M0,-20.30900001525879 C-15.857000350952148,-20.30900001525879 -29.606000900268555,-18.179000854492188 -29.606000900268555,-7.513000011444092 C-29.606000900268555,3.5239999294281006 -8.678000450134277,20.30900001525879 0,20.30900001525879 C4.296000003814697,20.30900001525879 11.595000267028809,16.195999145507812 17.8700008392334,10.70199966430664 C24.270000457763672,5.098999977111816 29.606000900268555,-1.940000057220459 29.606000900268555,-7.513000011444092 C29.606000900268555,-18.179000854492188 15.857000350952148,-20.30900001525879 0,-20.30900001525879z"/></g><g opacity="0.6" transform="matrix(1,0,0,1,257,420.15301513671875)"><path fill="url(#__lottie_element_42244)" fill-opacity="1" d=" M0.36000001430511475,5.205999851226807 C-9.048999786376953,5.255000114440918 -15.515999794006348,6.234000205993652 -19.611000061035156,6.386000156402588 C-23.900999069213867,6.546000003814697 -26.833999633789062,5.2210001945495605 -26.58300018310547,2.8269999027252197 C-25.92300033569336,-3.4690001010894775 -12.157999992370605,-6.431000232696533 0.36000001430511475,-6.431000232696533 C12.401000022888184,-6.431000232696533 27.211000442504883,-4.388999938964844 26.577999114990234,2.7890000343322754 C26.378000259399414,5.052999973297119 23.32200050354004,6.491000175476074 19.82200050354004,6.428999900817871 C15.706999778747559,6.35699987411499 9.26099967956543,5.158999919891357 0.36000001430511475,5.205999851226807z"/></g><g opacity="1" transform="matrix(1,0,0,1,256.99798583984375,432.1470031738281)"><path stroke-linecap="round" stroke-linejoin="round" fill-opacity="0" stroke="rgb(174,99,119)" stroke-opacity="1" stroke-width="8" d=" M0,-20.30900001525879 C-15.857000350952148,-20.30900001525879 -29.606000900268555,-18.179000854492188 -29.606000900268555,-7.513000011444092 C-29.606000900268555,3.5239999294281006 -8.678000450134277,20.30900001525879 0,20.30900001525879 C4.198999881744385,20.30900001525879 11.265999794006348,16.378999710083008 17.44300079345703,11.071999549865723 C24.0310001373291,5.410999774932861 29.606000900268555,-1.8170000314712524 29.606000900268555,-7.513000011444092 C29.606000900268555,-18.179000854492188 15.857000350952148,-20.30900001525879 0,-20.30900001525879z"/></g><g opacity="1" transform="matrix(1,0,0,1,256.90899658203125,443.510986328125)"><path stroke-linecap="round" stroke-linejoin="round" fill-opacity="0" stroke="rgb(123,46,71)" stroke-opacity="1" stroke-width="8" d=" M-25.465999603271484,-8.944999694824219 C-18.941999435424805,0.11599999666213989 -6.203999996185303,8.944999694824219 0.08900000154972076,8.944999694824219 C3.865999937057495,8.944999694824219 9.96500015258789,5.763999938964844 15.64799976348877,1.2619999647140503 C19.347999572753906,-1.6690000295639038 22.87299919128418,-5.160999774932861 25.465999603271484,-8.699999809265137"/></g></g><g opacity="1" transform="matrix(1,0,0,1,237.71499633789062,440.6239929199219)"><path stroke-linecap="round" stroke-linejoin="round" fill-opacity="0" stroke="rgb(0,0,0)" stroke-opacity="1" stroke-width="8" d=" M6.271999835968018,6.058000087738037 C1.7419999837875366,2.8480000495910645 -3.0920000076293945,-1.777999997138977 -6.271999835968018,-6.058000087738037 C-6.271999835968018,-6.058000087738037 4.251999855041504,-5.521999835968018 6.271999835968018,6.058000087738037z"/></g><g opacity="1" transform="matrix(1,0,0,1,276.45599365234375,440.5570068359375)"><path stroke-linecap="round" stroke-linejoin="round" fill-opacity="0" stroke="rgb(0,0,0)" stroke-opacity="1" stroke-width="8" d=" M5.918000221252441,-5.745999813079834 C2.878000020980835,-1.6660000085830688 -1.5980000495910645,2.615999937057495 -5.918000221252441,5.745999813079834 C-5.918000221252441,5.745999813079834 -4.968999862670898,-4.2789998054504395 5.918000221252441,-5.745999813079834z"/></g></g></g></svg>