<svg xmlns="http://www.w3.org/2000/svg" xmlns:xlink="http://www.w3.org/1999/xlink" viewBox="0 0 512 512" width="512" height="512" style="width: 100%; height: 100%; transform: translate3d(0,0,0);" preserveAspectRatio="xMidYMid meet"><defs><clipPath id="__lottie_element_1064"><rect width="512" height="512" x="0" y="0"/></clipPath><linearGradient id="__lottie_element_1073" spreadMethod="pad" gradientUnits="userSpaceOnUse" x1="0" y1="-116.5" x2="0.5" y2="114.5"><stop offset="0%" stop-color="rgb(95,97,100)"/><stop offset="12%" stop-color="rgb(88,93,100)"/><stop offset="25%" stop-color="rgb(81,89,100)"/><stop offset="35%" stop-color="rgb(126,134,143)"/><stop offset="41%" stop-color="rgb(172,178,185)"/><stop offset="52%" stop-color="rgb(146,151,155)"/><stop offset="63%" stop-color="rgb(120,124,125)"/><stop offset="79%" stop-color="rgb(103,105,106)"/><stop offset="96%" stop-color="rgb(85,86,86)"/><stop offset="97%" stop-color="rgb(77,77,77)"/><stop offset="98%" stop-color="rgb(68,67,67)"/></linearGradient><linearGradient id="__lottie_element_1076" spreadMethod="pad" gradientUnits="userSpaceOnUse" x1="-14" y1="-111" x2="-11.5" y2="111.5"><stop offset="24%" stop-color="rgb(125,138,155)"/><stop offset="33%" stop-color="rgb(168,182,197)"/><stop offset="41%" stop-color="rgb(211,226,238)"/><stop offset="69%" stop-color="rgb(174,185,195)"/><stop offset="97%" stop-color="rgb(137,144,151)"/><stop offset="98%" stop-color="rgb(120,128,137)"/><stop offset="100%" stop-color="rgb(104,112,124)"/></linearGradient><linearGradient id="__lottie_element_1079" spreadMethod="pad" gradientUnits="userSpaceOnUse" x1="-5.5" y1="5.75" x2="2" y2="-7.25"><stop offset="0%" stop-color="rgb(155,188,214)"/><stop offset="50%" stop-color="rgb(128,161,193)"/><stop offset="100%" stop-color="rgb(100,133,171)"/></linearGradient><linearGradient id="__lottie_element_1080" spreadMethod="pad" gradientUnits="userSpaceOnUse" x1="3.5" y1="-4.25" x2="-2.5" y2="3.5"><stop offset="0%" stop-color="rgb(139,174,201)"/><stop offset="50%" stop-color="rgb(127,160,191)"/><stop offset="100%" stop-color="rgb(116,146,181)"/></linearGradient><linearGradient id="__lottie_element_1084" spreadMethod="pad" gradientUnits="userSpaceOnUse" x1="-14" y1="-111" x2="-11.5" y2="111.5"><stop offset="24%" stop-color="rgb(128,139,154)"/><stop offset="33%" stop-color="rgb(170,183,196)"/><stop offset="41%" stop-color="rgb(211,226,238)"/><stop offset="69%" stop-color="rgb(174,185,195)"/><stop offset="97%" stop-color="rgb(137,144,151)"/><stop offset="98%" stop-color="rgb(120,128,137)"/><stop offset="100%" stop-color="rgb(104,112,124)"/></linearGradient><linearGradient id="__lottie_element_1088" spreadMethod="pad" gradientUnits="userSpaceOnUse"><stop/><stop/><stop/><stop/><stop/><stop/><stop/><stop/><stop/></linearGradient><linearGradient id="__lottie_element_1089" spreadMethod="pad" gradientUnits="userSpaceOnUse"><stop/><stop/><stop/><stop/><stop/><stop/><stop/><stop/><stop/></linearGradient><linearGradient id="__lottie_element_1094" spreadMethod="pad" gradientUnits="userSpaceOnUse" x1="0" y1="99.5" x2="0" y2="-75.5"><stop offset="23%" stop-color="rgb(255,251,246)"/><stop offset="27%" stop-color="rgb(210,202,193)"/><stop offset="31%" stop-color="rgb(165,153,141)"/><stop offset="33%" stop-color="rgb(190,176,162)"/><stop offset="34%" stop-color="rgb(215,199,183)"/><stop offset="54%" stop-color="rgb(235,222,208)"/><stop offset="73%" stop-color="rgb(255,245,232)"/></linearGradient><linearGradient id="__lottie_element_1100" spreadMethod="pad" gradientUnits="userSpaceOnUse" x1="0" y1="99.5" x2="0" y2="-75.5"><stop offset="0%" stop-color="rgb(255,245,232)"/><stop offset="16%" stop-color="rgb(210,199,186)"/><stop offset="31%" stop-color="rgb(165,153,141)"/><stop offset="33%" stop-color="rgb(192,179,166)"/><stop offset="34%" stop-color="rgb(218,205,192)"/><stop offset="54%" stop-color="rgb(236,225,212)"/><stop offset="73%" stop-color="rgb(255,245,232)"/></linearGradient><linearGradient id="__lottie_element_1104" spreadMethod="pad" gradientUnits="userSpaceOnUse" x1="-6.25" y1="-41.5" x2="-6.25" y2="71"><stop offset="18%" stop-color="rgb(16,16,17)"/><stop offset="24%" stop-color="rgb(35,35,36)"/><stop offset="30%" stop-color="rgb(55,55,56)"/><stop offset="73%" stop-color="rgb(74,78,82)"/><stop offset="100%" stop-color="rgb(93,100,108)"/></linearGradient><linearGradient id="__lottie_element_1105" spreadMethod="pad" gradientUnits="userSpaceOnUse" x1="-6.195000171661377" y1="-61.47800064086914" x2="-1.25" y2="67.25"><stop offset="8%" stop-color="rgb(16,16,17)"/><stop offset="18%" stop-color="rgb(34,34,35)"/><stop offset="22%" stop-color="rgb(53,53,53)"/><stop offset="34%" stop-color="rgb(73,76,78)"/><stop offset="46%" stop-color="rgb(94,98,103)"/><stop offset="88%" stop-color="rgb(126,130,134)"/><stop offset="90%" stop-color="rgb(158,162,166)"/><stop offset="95%" stop-color="rgb(106,108,110)"/><stop offset="100%" stop-color="rgb(53,54,55)"/></linearGradient><linearGradient id="__lottie_element_1106" spreadMethod="pad" gradientUnits="userSpaceOnUse" x1="-263.4779968261719" y1="-54.54899978637695" x2="-265" y2="67.25"><stop offset="8%" stop-color="rgb(16,16,17)"/><stop offset="18%" stop-color="rgb(34,34,35)"/><stop offset="22%" stop-color="rgb(53,53,53)"/><stop offset="34%" stop-color="rgb(73,76,78)"/><stop offset="46%" stop-color="rgb(94,98,103)"/><stop offset="88%" stop-color="rgb(126,130,134)"/><stop offset="90%" stop-color="rgb(158,162,166)"/><stop offset="95%" stop-color="rgb(106,108,110)"/><stop offset="100%" stop-color="rgb(53,54,55)"/></linearGradient><linearGradient id="__lottie_element_1110" spreadMethod="pad" gradientUnits="userSpaceOnUse" x1="-3.796999931335449" y1="45.5" x2="-3.796999931335449" y2="-59.5"><stop offset="0%" stop-color="rgb(85,87,89)"/><stop offset="50%" stop-color="rgb(107,108,111)"/><stop offset="100%" stop-color="rgb(129,130,133)"/></linearGradient></defs><g clip-path="url(#__lottie_element_1064)"><g style="display: block;" transform="matrix(1,0,0,1,126.56600189208984,75)" opacity="1"><g opacity="1" transform="matrix(1,0,0,1,128.93499755859375,66)"><path fill="url(#__lottie_element_1110)" fill-opacity="1" d=" M124.5,61 C124.5,61 -124.5,61 -124.5,61 C-124.5,61 -124.5,-61 -124.5,-61 C-124.5,-61 124.5,-61 124.5,-61 C124.5,-61 124.5,61 124.5,61z"/><path stroke-linecap="round" stroke-linejoin="round" fill-opacity="0" stroke="rgb(93,97,100)" stroke-opacity="1" stroke-width="8" d=" M124.5,61 C124.5,61 -124.5,61 -124.5,61 C-124.5,61 -124.5,-61 -124.5,-61 C-124.5,-61 124.5,-61 124.5,-61 C124.5,-61 124.5,61 124.5,61z"/></g><g opacity="0.8" transform="matrix(1,0,0,1,-11.5,0)"><path stroke-linecap="butt" stroke-linejoin="miter" fill-opacity="0" stroke-miterlimit="4" stroke="rgb(49,48,48)" stroke-opacity="1" stroke-width="8" d=" M250.25,1.0160000324249268 C250.25,1.0160000324249268 250.25,111.14099884033203 250.25,111.14099884033203"/></g><g opacity="1" transform="matrix(1,0,0,1,-1.5,0)"><path stroke-linecap="round" stroke-linejoin="round" fill-opacity="0" stroke="rgb(119,124,130)" stroke-opacity="1" stroke-width="21" d=" M253,4 C253,4 253,112 253,112"/></g><g opacity="1" transform="matrix(1,0,0,1,3,0)"><path stroke-linecap="round" stroke-linejoin="round" fill-opacity="0" stroke="rgb(89,93,97)" stroke-opacity="1" stroke-width="7" d=" M254.79600524902344,3.562000036239624 C254.79600524902344,3.562000036239624 254.79600524902344,111.56199645996094 254.79600524902344,111.56199645996094"/></g><g opacity="1" transform="matrix(1,0,0,1,-2.5,0)"><path stroke-linecap="round" stroke-linejoin="round" fill-opacity="0" stroke="rgb(168,174,178)" stroke-opacity="1" stroke-width="7" d=" M253,4 C253,4 253,112 253,112"/></g><g opacity="0.8" transform="matrix(1,0,0,1,3,0)"><path stroke-linecap="butt" stroke-linejoin="miter" fill-opacity="0" stroke-miterlimit="4" stroke="rgb(49,48,48)" stroke-opacity="1" stroke-width="8" d=" M16.434999465942383,1.0160000324249268 C16.434999465942383,1.0160000324249268 16.434999465942383,111.14099884033203 16.434999465942383,111.14099884033203"/></g><g opacity="1" transform="matrix(1,0,0,1,-0.5,0)"><path stroke-linecap="round" stroke-linejoin="round" fill-opacity="0" stroke="rgb(119,124,130)" stroke-opacity="1" stroke-width="21" d=" M6.965000152587891,4 C6.965000152587891,4 6.965000152587891,112 6.965000152587891,112"/></g><g opacity="1" transform="matrix(1,0,0,1,-3,0)"><path stroke-linecap="round" stroke-linejoin="round" fill-opacity="0" stroke="rgb(89,93,97)" stroke-opacity="1" stroke-width="7" d=" M3.059999942779541,3.437999963760376 C3.059999942779541,3.437999963760376 3.059999942779541,111.43800354003906 3.059999942779541,111.43800354003906"/></g><g opacity="1" transform="matrix(1,0,0,1,-1.25,0)"><path stroke-linecap="round" stroke-linejoin="round" fill-opacity="0" stroke="rgb(168,174,178)" stroke-opacity="1" stroke-width="7" d=" M7.960999965667725,4 C7.960999965667725,4 7.960999965667725,112 7.960999965667725,112"/></g><g opacity="1" transform="matrix(1,0,0,1,0,-1)"><path stroke-linecap="round" stroke-linejoin="miter" fill-opacity="0" stroke-miterlimit="4" stroke="rgb(154,155,159)" stroke-opacity="1" stroke-width="6" d=" M42.935001373291016,5 C44.89500045776367,4.952000141143799 49.51499938964844,4.922999858856201 55.683998107910156,4.9070000648498535"/></g><g opacity="1" transform="matrix(1,0,0,1,0,-1)"><path stroke-linecap="round" stroke-linejoin="miter" fill-opacity="0" stroke-miterlimit="4" stroke="rgb(154,155,159)" stroke-opacity="1" stroke-width="6" d=" M68.18499755859375,4.890999794006348 C95.072998046875,4.883999824523926 132.93499755859375,5 132.93499755859375,5"/></g></g><g style="display: block;" transform="matrix(1,0,0,1,71.75,188.75)" opacity="1"><g opacity="0.1" transform="matrix(1,0,0,1,183.25,107.75)"><path fill="rgb(0,0,0)" fill-opacity="1" d=" M183,118.5 C183,118.5 -183,118.5 -183,118.5 C-183,118.5 -183,-91.5 -183,-91.5 C-183,-91.5 183,-91.5 183,-91.5 C183,-91.5 183,118.5 183,118.5z"/></g><g opacity="0.15" transform="matrix(1,0,0,1,183.25,107.75)"><path fill="rgb(0,0,0)" fill-opacity="1" d=" M183,115.5 C183,115.5 -183,115.5 -183,115.5 C-183,115.5 -183,-94.5 -183,-94.5 C-183,-94.5 183,-94.5 183,-94.5 C183,-94.5 183,115.5 183,115.5z"/></g><g opacity="0.2" transform="matrix(1,0,0,1,183.25,105.25)"><path fill="rgb(0,0,0)" fill-opacity="1" d=" M183,115.5 C183,115.5 -183,115.5 -183,115.5 C-183,115.5 -183,-94.5 -183,-94.5 C-183,-94.5 183,-94.5 183,-94.5 C183,-94.5 183,115.5 183,115.5z"/></g><g opacity="0.25" transform="matrix(1,0,0,1,183.25,105.25)"><path fill="rgb(0,0,0)" fill-opacity="1" d=" M183,112.25 C183,112.25 -183,112.25 -183,112.25 C-183,112.25 -183,-97.75 -183,-97.75 C-183,-97.75 183,-97.75 183,-97.75 C183,-97.75 183,112.25 183,112.25z"/></g><g opacity="0.3" transform="matrix(1,0,0,1,183.25,105.25)"><path fill="rgb(0,0,0)" fill-opacity="1" d=" M183,108.75 C183,108.75 -183,108.75 -183,108.75 C-183,108.75 -183,-101.25 -183,-101.25 C-183,-101.25 183,-101.25 183,-101.25 C183,-101.25 183,108.75 183,108.75z"/></g><g opacity="1" transform="matrix(1,0,0,1,183.25,105.25)"><path fill="rgb(0,0,0)" fill-opacity="1" d=" M183,105 C183,105 -183,105 -183,105 C-183,105 -183,-105 -183,-105 C-183,-105 183,-105 183,-105 C183,-105 183,105 183,105z"/></g></g><g style="display: block;" transform="matrix(1,0,0,1,116.01899719238281,317.51898193359375)" opacity="1"><g opacity="1" transform="matrix(1,0,0,1,142.48199462890625,75.48100280761719)"><path fill="url(#__lottie_element_1104)" fill-opacity="1" d=" M-114.6240005493164,-72 C-114.6240005493164,-72 107.38999938964844,-72 107.38999938964844,-72 C107.38999938964844,-72 131.75799560546875,72 131.75799560546875,72 C131.75799560546875,72 -137.77499389648438,72 -137.77499389648438,72 C-137.77499389648438,72 -114.6240005493164,-72 -114.6240005493164,-72z"/><path stroke-linecap="round" stroke-linejoin="round" fill-opacity="0" stroke="rgb(143,148,152)" stroke-opacity="1" stroke-width="8" d=" M-114.6240005493164,-72 C-114.6240005493164,-72 107.38999938964844,-72 107.38999938964844,-72 C107.38999938964844,-72 131.75799560546875,72 131.75799560546875,72 C131.75799560546875,72 -137.77499389648438,72 -137.77499389648438,72 C-137.77499389648438,72 -114.6240005493164,-72 -114.6240005493164,-72z"/></g><g opacity="0.4" transform="matrix(1,0,0,1,9.918000221252441,73.98100280761719)"><path stroke-linecap="butt" stroke-linejoin="miter" fill-opacity="0" stroke-miterlimit="4" stroke="rgb(10,11,11)" stroke-opacity="1" stroke-width="8" d=" M250.2259979248047,68.78500366210938 C250.2259979248047,68.78500366210938 233.03599548339844,-51.25 233.03599548339844,-51.25"/></g><g opacity="1" transform="matrix(1,0,0,1,276.5450134277344,75.48100280761719)"><path fill="url(#__lottie_element_1105)" fill-opacity="1" d=" M-21.56399917602539,-68.25 C-21.56399917602539,-68.25 -30.829999923706055,-62.5 -31.27400016784668,-62.5 C-31.636999130249023,-62.5 -13.211999893188477,54.2239990234375 -13.25,59.74599838256836 C-13.29699993133545,66.5 -12.859999656677246,67.79199981689453 -12.859999656677246,67.74700164794922 C-12.859999656677246,67.49700164794922 1.4359999895095825,67.49700164794922 1.4359999895095825,67.49700164794922 C1.4359999895095825,67.49700164794922 0.5929999947547913,65.91600036621094 0.10199999809265137,57.584999084472656 C-0.5659999847412109,46.25 -21.56399917602539,-68.25 -21.56399917602539,-68.25z"/></g><g opacity="0.4" transform="matrix(1,0,0,1,17.167999267578125,73.98100280761719)"><path stroke-linecap="butt" stroke-linejoin="miter" fill-opacity="0" stroke-miterlimit="4" stroke="rgb(10,11,11)" stroke-opacity="1" stroke-width="8" d=" M2.4210000038146973,69.0979995727539 C2.4210000038146973,69.0979995727539 18.858999252319336,-72.75 18.858999252319336,-72.75"/></g><g opacity="1" transform="matrix(1,0,0,1,276.5450134277344,75.48100280761719)"><path fill="url(#__lottie_element_1106)" fill-opacity="1" d=" M-253.0679931640625,-70.75 C-253.0679931640625,-70.75 -244.4709930419922,-61.5 -244.01600646972656,-61.5 C-243.64300537109375,-61.5 -261.0369873046875,55.2239990234375 -260.99798583984375,60.74599838256836 C-260.95001220703125,67.5 -260.8840026855469,68.04299926757812 -260.8840026855469,67.99800109863281 C-260.8840026855469,67.74800109863281 -275.3819885253906,67.74800109863281 -275.3819885253906,67.74800109863281 C-275.3819885253906,67.74800109863281 -275.5639953613281,66.41600036621094 -275.0610046386719,58.084999084472656 C-274.3760070800781,46.75 -253.0679931640625,-70.75 -253.0679931640625,-70.75z"/></g></g><g style="display: block;" transform="matrix(1,0,0,1,148.75,40.75)" opacity="1"><g opacity="1" transform="matrix(1,0,0,1,106.75,93.75)"><path fill="url(#__lottie_element_1100)" fill-opacity="1" d=" M93.5,93.5 C93.5,93.5 -92,93.5 -92,93.5 C-92,93.5 -92,77 -92,-1 C-92,-79 -92,-93.5 -92,-93.5 C-92,-93.5 -78.5,-93.5 0,-93.5 C78.5,-93.5 93.5,-93.5 93.5,-93.5 C93.5,-93.5 93,-79 93.5,0.5 C94,80 93.5,93.5 93.5,93.5z"/><path stroke-linecap="round" stroke-linejoin="round" fill-opacity="0" stroke="rgb(189,182,156)" stroke-opacity="1" stroke-width="8" d=" M93.5,93.5 C93.5,93.5 -92,93.5 -92,93.5 C-92,93.5 -92,77 -92,-1 C-92,-79 -92,-93.5 -92,-93.5 C-92,-93.5 -78.5,-93.5 0,-93.5 C78.5,-93.5 93.5,-93.5 93.5,-93.5 C93.5,-93.5 93,-79 93.5,0.5 C94,80 93.5,93.5 93.5,93.5z"/></g><g opacity="1" transform="matrix(1,0,0,1,106.75,93.75)"><path stroke-linecap="round" stroke-linejoin="round" fill-opacity="0" stroke="rgb(255,255,255)" stroke-opacity="1" stroke-width="7" d=" M93.5,93.5 C93.5,93.5 -92,93.5 -92,93.5 C-92,93.5 -92,77 -92,-1 C-92,-79 -92,-86.25 -92,-86.25 C-92,-86.25 -78.5,-86.25 0,-86.25 C78.5,-86.25 93.5,-86.25 93.5,-86.25 C93.5,-86.25 93,-79 93.5,0.5 C94,80 93.5,93.5 93.5,93.5z"/></g><g opacity="1" transform="matrix(1,0,0,1,106.75,93.75)"><path stroke-linecap="round" stroke-linejoin="round" fill-opacity="0" stroke="rgb(189,182,156)" stroke-opacity="1" stroke-width="8" d=" M93.5,93.5 C93.5,93.5 -92,93.5 -92,93.5 C-92,93.5 -92,77 -92,-1 C-92,-79 -92,-93.5 -92,-93.5 C-92,-93.5 -78.5,-93.5 0,-93.5 C78.5,-93.5 93.5,-93.5 93.5,-93.5 C93.5,-93.5 93,-79 93.5,0.5 C94,80 93.5,93.5 93.5,93.5z"/></g></g><g style="display: block;" transform="matrix(1,0,0,1,148.75,40.75)" opacity="1"><g opacity="1" transform="matrix(1,0,0,1,106.75,93.75)"><path fill="url(#__lottie_element_1094)" fill-opacity="1" d=" M93.5,93.5 C93.5,93.5 -92,93.5 -92,93.5 C-92,93.5 -92,77 -92,-1 C-92,-79 -92,-93.5 -92,-93.5 C-92,-93.5 -78.5,-93.5 0,-93.5 C78.5,-93.5 93.5,-93.5 93.5,-93.5 C93.5,-93.5 93,-79 93.5,0.5 C94,80 93.5,93.5 93.5,93.5z"/><path stroke-linecap="round" stroke-linejoin="round" fill-opacity="0" stroke="rgb(189,182,156)" stroke-opacity="1" stroke-width="8" d=" M93.5,93.5 C93.5,93.5 -92,93.5 -92,93.5 C-92,93.5 -92,77 -92,-1 C-92,-79 -92,-93.5 -92,-93.5 C-92,-93.5 -78.5,-93.5 0,-93.5 C78.5,-93.5 93.5,-93.5 93.5,-93.5 C93.5,-93.5 93,-79 93.5,0.5 C94,80 93.5,93.5 93.5,93.5z"/></g><g opacity="1" transform="matrix(1,0,0,1,106.75,93.75)"><path stroke-linecap="round" stroke-linejoin="round" fill-opacity="0" stroke="rgb(255,255,255)" stroke-opacity="1" stroke-width="7" d=" M93.5,93.5 C93.5,93.5 -92,93.5 -92,93.5 C-92,93.5 -92,77 -92,-1 C-92,-79 -92,-86.25 -92,-86.25 C-92,-86.25 -78.5,-86.25 0,-86.25 C78.5,-86.25 93.5,-86.25 93.5,-86.25 C93.5,-86.25 93,-79 93.5,0.5 C94,80 93.5,93.5 93.5,93.5z"/></g><g opacity="1" transform="matrix(1,0,0,1,106.75,93.75)"><path stroke-linecap="round" stroke-linejoin="round" fill-opacity="0" stroke="rgb(189,182,156)" stroke-opacity="1" stroke-width="8" d=" M93.5,93.5 C93.5,93.5 -92,93.5 -92,93.5 C-92,93.5 -92,77 -92,-1 C-92,-79 -92,-93.5 -92,-93.5 C-92,-93.5 -78.5,-93.5 0,-93.5 C78.5,-93.5 93.5,-93.5 93.5,-93.5 C93.5,-93.5 93,-79 93.5,0.5 C94,80 93.5,93.5 93.5,93.5z"/></g></g><g style="display: block;" transform="matrix(1,0,0,1,100,176)" opacity="1"><g opacity="0.3" transform="matrix(1,0,0,1,0,0)"><path fill="rgb(48,45,42)" fill-opacity="1" d=" M284.5,158.5 C262.5,150.5 30.5,144.5 19.5,160 C8.5,175.5 19,236 19,237 C19,238 18.97800064086914,196.0279998779297 69,196.0279998779297 C124,196.0279998779297 194.88600158691406,195.7310028076172 249.5,196.5279998779297 C290.50799560546875,197.12600708007812 291.5,232.5 291.5,232.5 C291.5,232.5 306.5,166.5 284.5,158.5z"/></g><g opacity="0.2" transform="matrix(1,0,0,1,106.75,100.75)"><path fill="rgb(48,45,42)" fill-opacity="1" d=" M161.4219970703125,-47.361000061035156 C161.4219970703125,-47.361000061035156 -64,-47.361000061035156 -64,-47.361000061035156 C-64,-47.361000061035156 -63.448001861572266,-115.75 -63.448001861572266,-115.43000030517578 C-52.4109992980957,-103.98699951171875 153.97300720214844,-105.58799743652344 162.25,-115.43000030517578 C162.25,-115.11000061035156 161.4219970703125,-47.361000061035156 161.4219970703125,-47.361000061035156z"/></g><g opacity="1" transform="matrix(1,0,0,1,155.5,121.5)"><path fill="url(#__lottie_element_1073)" fill-opacity="1" d=" M132,-119 C132,-119 -130.93699645996094,-119 -131.31199645996094,-119 C-135.56300354003906,-119 -150,-74.5 -150.98199462890625,-32.970001220703125 C-151.82000732421875,2.490000009536743 -152.80099487304688,49.832000732421875 -151.25,117.75 C-151.25,117.75 -144.875,117.81300354003906 -137,117.66300201416016 C-137,117.66300201416016 -137,78.21800231933594 -137,78.21800231933594 C-137,63.79800033569336 -125.2020034790039,52 -110.78299713134766,52 C-110.78299713134766,52 109.78199768066406,52 109.78199768066406,52 C124.2020034790039,52 136,63.79800033569336 136,78.21800231933594 C136,78.21800231933594 136,116.83699798583984 136,116.83699798583984 C137.0780029296875,116.8290023803711 150,116.75 150,116.75 C152,52.25 151.89199829101562,0.5889999866485596 150.85000610351562,-33.99399948120117 C149.75100708007812,-70.5 136.83799743652344,-119 132,-119z"/><path stroke-linecap="round" stroke-linejoin="round" fill-opacity="0" stroke="rgb(52,52,52)" stroke-opacity="1" stroke-width="8" d=" M132,-119 C132,-119 -130.93699645996094,-119 -131.31199645996094,-119 C-135.56300354003906,-119 -150,-74.5 -150.98199462890625,-32.970001220703125 C-151.82000732421875,2.490000009536743 -152.80099487304688,49.832000732421875 -151.25,117.75 C-151.25,117.75 -144.875,117.81300354003906 -137,117.66300201416016 C-137,117.66300201416016 -137,78.21800231933594 -137,78.21800231933594 C-137,63.79800033569336 -125.2020034790039,52 -110.78299713134766,52 C-110.78299713134766,52 109.78199768066406,52 109.78199768066406,52 C124.2020034790039,52 136,63.79800033569336 136,78.21800231933594 C136,78.21800231933594 136,116.83699798583984 136,116.83699798583984 C137.0780029296875,116.8290023803711 150,116.75 150,116.75 C152,52.25 151.89199829101562,0.5889999866485596 150.85000610351562,-33.99399948120117 C149.75100708007812,-70.5 136.83799743652344,-119 132,-119z"/></g><g opacity="0.03" transform="matrix(1,0,0,1,155.5,18)"><path fill="rgb(214,211,207)" fill-opacity="1" d=" M96.10900115966797,20 C96.10900115966797,20 -93.86000061035156,20 -93.86000061035156,20 C-96.34500122070312,20 -98.35900115966797,17.215999603271484 -98.35900115966797,13.782999992370605 C-98.35900115966797,13.782999992370605 -98.35900115966797,-13.5 -98.35900115966797,-13.5 C-98.35900115966797,-13.5 100.61000061035156,-13.5 100.61000061035156,-13.5 C100.61000061035156,-13.5 100.61000061035156,13.782999992370605 100.61000061035156,13.782999992370605 C100.61000061035156,17.215999603271484 98.59500122070312,20 96.10900115966797,20z"/></g><g opacity="0.03" transform="matrix(1,0,0,1,155.5,18)"><path fill="rgb(214,211,207)" fill-opacity="1" d=" M93.5790023803711,15.25 C93.5790023803711,15.25 -91.70500183105469,15.25 -91.70500183105469,15.25 C-94.13700103759766,15.25 -96.10900115966797,12.805000305175781 -96.10900115966797,9.789999961853027 C-96.10900115966797,9.789999961853027 -96.10900115966797,-13.5 -96.10900115966797,-13.5 C-96.10900115966797,-13.5 97.98500061035156,-13.5 97.98500061035156,-13.5 C97.98500061035156,-13.5 97.98500061035156,9.789999961853027 97.98500061035156,9.789999961853027 C97.98500061035156,12.805000305175781 96.01200103759766,15.25 93.5790023803711,15.25z"/></g><g opacity="0.03" transform="matrix(1,0,0,1,155.5,18)"><path fill="rgb(214,211,207)" fill-opacity="1" d=" M91.41000366210938,11.75 C91.41000366210938,11.75 -89.91100311279297,11.75 -89.91100311279297,11.75 C-92.29900360107422,11.75 -94.23400115966797,9.555000305175781 -94.23400115966797,6.8480000495910645 C-94.23400115966797,6.8480000495910645 -94.23400115966797,-13.5 -94.23400115966797,-13.5 C-94.23400115966797,-13.5 95.73500061035156,-13.5 95.73500061035156,-13.5 C95.73500061035156,-13.5 95.73500061035156,6.8480000495910645 95.73500061035156,6.8480000495910645 C95.73500061035156,9.555000305175781 93.79900360107422,11.75 91.41000366210938,11.75z"/></g><g opacity="0.03" transform="matrix(1,0,0,1,155.5,18)"><path fill="rgb(214,211,207)" fill-opacity="1" d=" M89.8489990234375,9 C89.8489990234375,9 -88.3489990234375,9 -88.3489990234375,9 C-90.7020034790039,9 -92.60900115966797,7.001999855041504 -92.60900115966797,4.5370001792907715 C-92.60900115966797,4.5370001792907715 -92.60900115966797,-13.5 -92.60900115966797,-13.5 C-92.60900115966797,-13.5 94.11000061035156,-13.5 94.11000061035156,-13.5 C94.11000061035156,-13.5 94.11000061035156,4.5370001792907715 94.11000061035156,4.5370001792907715 C94.11000061035156,7.001999855041504 92.2030029296875,9 89.8489990234375,9z"/></g><g opacity="0.03" transform="matrix(1,0,0,1,155.5,18)"><path fill="rgb(214,211,207)" fill-opacity="1" d=" M88.05699920654297,5.5 C88.05699920654297,5.5 -86.05699920654297,5.5 -86.05699920654297,5.5 C-88.36399841308594,5.5 -90.23400115966797,3.752000093460083 -90.23400115966797,1.5950000286102295 C-90.23400115966797,1.5950000286102295 -90.23400115966797,-13.5 -90.23400115966797,-13.5 C-90.23400115966797,-13.5 92.23500061035156,-13.5 92.23500061035156,-13.5 C92.23500061035156,-13.5 92.23500061035156,1.5950000286102295 92.23500061035156,1.5950000286102295 C92.23500061035156,3.752000093460083 90.36499786376953,5.5 88.05699920654297,5.5z"/></g><g opacity="0.03" transform="matrix(1,0,0,1,155.5,18)"><path fill="rgb(214,211,207)" fill-opacity="1" d=" M85.9000015258789,2.75 C85.9000015258789,2.75 -83.6500015258789,2.75 -83.6500015258789,2.75 C-85.90499877929688,2.75 -87.73400115966797,1.1979999542236328 -87.73400115966797,-0.7170000076293945 C-87.73400115966797,-0.7170000076293945 -87.73400115966797,-13.5 -87.73400115966797,-13.5 C-87.73400115966797,-13.5 89.98500061035156,-13.5 89.98500061035156,-13.5 C89.98500061035156,-13.5 89.98500061035156,-0.7170000076293945 89.98500061035156,-0.7170000076293945 C89.98500061035156,1.1979999542236328 88.15599822998047,2.75 85.9000015258789,2.75z"/></g><g opacity="0.2" transform="matrix(1,0,0,1,0,0)"><path fill="rgb(220,241,255)" fill-opacity="1" d=" M23.5,3 C19.965999603271484,2.9040000438690186 5,50.14099884033203 3.5,81.64099884033203 C2.5250000953674316,102.11799621582031 6,249.25 6.5,236.25 C7,223.25 11.708999633789062,111.75700378417969 14,81.64099884033203 C17.5,35.64099884033203 27.59000015258789,18.965999603271484 32.75,16.25 C37.5,13.75 276.5719909667969,11.805999755859375 281.25,16.25 C286.25,21 295,45.14099884033203 297.5,77.64099884033203 C299.72698974609375,106.59400177001953 306,217.25 305.5,237.75 C305,258.25 307.5,101.14099884033203 306.5,80.14099884033203 C305.5,59.14099884033203 296,9.5 287,3 C286.5,2.5 42,3.5 23.5,3z"/></g><g opacity="1" transform="matrix(1,0,0,1,155.5,121.5)"><path stroke-linecap="round" stroke-linejoin="round" fill-opacity="0" stroke="rgb(52,52,52)" stroke-opacity="1" stroke-width="8" d=" M132,-119 C132,-119 -130.93699645996094,-119 -131.31199645996094,-119 C-135.56300354003906,-119 -150,-74.5 -150.98199462890625,-32.970001220703125 C-151.82000732421875,2.490000009536743 -152.80099487304688,49.832000732421875 -151.25,117.75 C-151.25,117.75 -144.875,117.81300354003906 -137,117.66300201416016 C-137,117.66300201416016 -137,78.21800231933594 -137,78.21800231933594 C-137,63.79800033569336 -125.2020034790039,52 -110.78299713134766,52 C-110.78299713134766,52 109.78199768066406,52 109.78199768066406,52 C124.2020034790039,52 136,63.79800033569336 136,78.21800231933594 C136,78.21800231933594 136,116.83699798583984 136,116.83699798583984 C137.0780029296875,116.8290023803711 150,116.75 150,116.75 C152,52.25 151.89199829101562,0.5889999866485596 150.85000610351562,-33.99399948120117 C149.75100708007812,-70.5 136.83799743652344,-119 132,-119z"/></g></g><g style="display: block;" transform="matrix(1,0,0,1,398.70098876953125,177.1540069580078)" opacity="1"><g opacity="1" transform="matrix(1,0,0,1,40.23699951171875,118.88999938964844)"><path fill="url(#__lottie_element_1076)" fill-opacity="1" d=" M2.499000072479248,-117.54499816894531 C2.499000072479248,-117.54499816894531 -35.909000396728516,-118.38899993896484 -35.909000396728516,-118.38899993896484 C-39.20899963378906,-118.45500183105469 -40.94900131225586,-115.24299621582031 -40.08100128173828,-112.05899810791016 C-35.16999816894531,-94.04499816894531 -28.961000442504883,-76.72100067138672 -25.981000900268555,-31.573999404907227 C-23.743999481201172,2.311000108718872 -25.375,48.983001708984375 -24.965999603271484,113.99600219726562 C-24.951000213623047,116.46299743652344 -22.94700050354004,118.45500183105469 -20.481000900268555,118.45500183105469 C-20.481000900268555,118.45500183105469 26.756999969482422,118.45500183105469 26.756999969482422,118.45500183105469 C29.163000106811523,118.45500183105469 31.214000701904297,116.55699920654297 31.239999771118164,114.1510009765625 C32.08000183105469,36.45500183105469 34.395999908447266,1.3609999418258667 30.520999908447266,-32.49800109863281 C25.079999923706055,-80.04499816894531 12.74899959564209,-117.29499816894531 2.499000072479248,-117.54499816894531z"/><path stroke-linecap="butt" stroke-linejoin="miter" fill-opacity="0" stroke-miterlimit="10" stroke="rgb(107,120,127)" stroke-opacity="1" stroke-width="8" d=" M2.499000072479248,-117.54499816894531 C2.499000072479248,-117.54499816894531 -35.909000396728516,-118.38899993896484 -35.909000396728516,-118.38899993896484 C-39.20899963378906,-118.45500183105469 -40.94900131225586,-115.24299621582031 -40.08100128173828,-112.05899810791016 C-35.16999816894531,-94.04499816894531 -28.961000442504883,-76.72100067138672 -25.981000900268555,-31.573999404907227 C-23.743999481201172,2.311000108718872 -25.375,48.983001708984375 -24.965999603271484,113.99600219726562 C-24.951000213623047,116.46299743652344 -22.94700050354004,118.45500183105469 -20.481000900268555,118.45500183105469 C-20.481000900268555,118.45500183105469 26.756999969482422,118.45500183105469 26.756999969482422,118.45500183105469 C29.163000106811523,118.45500183105469 31.214000701904297,116.55699920654297 31.239999771118164,114.1510009765625 C32.08000183105469,36.45500183105469 34.395999908447266,1.3609999418258667 30.520999908447266,-32.49800109863281 C25.079999923706055,-80.04499816894531 12.74899959564209,-117.29499816894531 2.499000072479248,-117.54499816894531z"/></g><g opacity="0.3" transform="matrix(1,0,0,1,0,0)"><path fill="rgb(220,241,255)" fill-opacity="1" d=" M6.25,4.75 C2.7160000801086426,4.6539998054504395 15.54800033569336,37.845001220703125 18.5,86.5 C19.740999221801758,106.96199798583984 20.04800033569336,222.59500122070312 19.75,222.25 C20.54800033569336,200.34500122070312 23.047000885009766,117.93499755859375 22,87.75 C20.79800033569336,53.095001220703125 11.54800033569336,13.095000267028809 11.5,12.75 C11.54800033569336,12.595000267028809 40.59000015258789,11.803999900817871 42.75,13.75 C44.79800033569336,15.595000267028809 58.79800033569336,48.845001220703125 62.5,87.75 C65.2509994506836,116.65799713134766 64.2979965209961,189.09500122070312 67.5,223.5 C67.5479965209961,224.34500122070312 70.5479965209961,115.09500122070312 67.75,87.5 C65.62899780273438,66.58300018310547 57.54800033569336,19.344999313354492 44,5.75 C43.5,5.25 24.75,5.25 6.25,4.75z"/></g><g opacity="0.8" transform="matrix(1,0,0,1,39.23699951171875,118.88999938964844)"><path stroke-linecap="round" stroke-linejoin="round" fill-opacity="0" stroke="rgb(71,81,82)" stroke-opacity="1" stroke-width="8" d=" M-24.020000457763672,104.48200225830078 C-24.003999710083008,107.60900115966797 -23.986000061035156,110.77999877929688 -23.965999603271484,113.99600219726562 C-23.951000213623047,116.46299743652344 -21.94700050354004,118.45500183105469 -19.481000900268555,118.45500183105469 C-19.481000900268555,118.45500183105469 27.756999969482422,118.45500183105469 27.756999969482422,118.45500183105469 C30.163000106811523,118.45500183105469 32.2140007019043,116.55699920654297 32.2400016784668,114.1510009765625 C32.2760009765625,110.82599639892578 32.3129997253418,107.58000183105469 32.349998474121094,104.40799713134766"/></g></g><g style="display: block;" transform="matrix(-1,0,0,1,112.31700134277344,177.1540069580078)" opacity="1"><g opacity="1" transform="matrix(1,0,0,1,40.23699951171875,118.88999938964844)"><path fill="url(#__lottie_element_1084)" fill-opacity="1" d=" M1.3730000257492065,-117.54499816894531 C1.3730000257492065,-117.54499816894531 -35.909000396728516,-118.38899993896484 -35.909000396728516,-118.38899993896484 C-39.20899963378906,-118.45500183105469 -40.94900131225586,-115.24299621582031 -40.08100128173828,-112.05899810791016 C-35.16999816894531,-94.04499816894531 -28.961000442504883,-76.72100067138672 -25.981000900268555,-31.573999404907227 C-23.743999481201172,2.311000108718872 -24.375,48.983001708984375 -23.965999603271484,113.99600219726562 C-23.951000213623047,116.46299743652344 -21.94700050354004,118.45500183105469 -19.481000900268555,118.45500183105469 C-19.481000900268555,118.45500183105469 27.756999969482422,118.45500183105469 27.756999969482422,118.45500183105469 C30.163000106811523,118.45500183105469 32.2140007019043,116.55699920654297 32.2400016784668,114.1510009765625 C33.08000183105469,36.45500183105469 34.395999908447266,1.3609999418258667 30.520999908447266,-32.49800109863281 C25.079999923706055,-80.04499816894531 12.329999923706055,-117.29499816894531 1.3730000257492065,-117.54499816894531z"/><path stroke-linecap="butt" stroke-linejoin="miter" fill-opacity="0" stroke-miterlimit="10" stroke="rgb(107,120,127)" stroke-opacity="1" stroke-width="8" d=" M1.3730000257492065,-117.54499816894531 C1.3730000257492065,-117.54499816894531 -35.909000396728516,-118.38899993896484 -35.909000396728516,-118.38899993896484 C-39.20899963378906,-118.45500183105469 -40.94900131225586,-115.24299621582031 -40.08100128173828,-112.05899810791016 C-35.16999816894531,-94.04499816894531 -28.961000442504883,-76.72100067138672 -25.981000900268555,-31.573999404907227 C-23.743999481201172,2.311000108718872 -24.375,48.983001708984375 -23.965999603271484,113.99600219726562 C-23.951000213623047,116.46299743652344 -21.94700050354004,118.45500183105469 -19.481000900268555,118.45500183105469 C-19.481000900268555,118.45500183105469 27.756999969482422,118.45500183105469 27.756999969482422,118.45500183105469 C30.163000106811523,118.45500183105469 32.2140007019043,116.55699920654297 32.2400016784668,114.1510009765625 C33.08000183105469,36.45500183105469 34.395999908447266,1.3609999418258667 30.520999908447266,-32.49800109863281 C25.079999923706055,-80.04499816894531 12.329999923706055,-117.29499816894531 1.3730000257492065,-117.54499816894531z"/></g><g opacity="0.3" transform="matrix(1,0,0,1,0,0)"><path fill="rgb(220,241,255)" fill-opacity="1" d=" M6.25,4.75 C2.7160000801086426,4.6539998054504395 15.54800033569336,37.845001220703125 18.5,86.5 C19.740999221801758,106.96199798583984 20.04800033569336,222.59500122070312 19.75,222.25 C20.54800033569336,200.34500122070312 23.047000885009766,117.93499755859375 22,87.75 C20.79800033569336,53.095001220703125 11.54800033569336,13.095000267028809 11.5,12.75 C11.54800033569336,12.595000267028809 40.59000015258789,11.803999900817871 42.75,13.75 C44.79800033569336,15.595000267028809 58.79800033569336,48.845001220703125 62.5,87.75 C65.2509994506836,116.65799713134766 64.2979965209961,189.09500122070312 67.5,223.5 C67.5479965209961,224.34500122070312 70.5479965209961,115.09500122070312 67.75,87.5 C65.62899780273438,66.58300018310547 57.54800033569336,19.344999313354492 44,5.75 C43.5,5.25 24.75,5.25 6.25,4.75z"/></g><g opacity="0.8" transform="matrix(1,0,0,1,40.23699951171875,118.88999938964844)"><path stroke-linecap="round" stroke-linejoin="round" fill-opacity="0" stroke="rgb(70,81,82)" stroke-opacity="1" stroke-width="8" d=" M-24.020000457763672,104.48200225830078 C-24.003999710083008,107.60900115966797 -23.986000061035156,110.77999877929688 -23.965999603271484,113.99600219726562 C-23.951000213623047,116.46299743652344 -21.94700050354004,118.45500183105469 -19.481000900268555,118.45500183105469 C-19.481000900268555,118.45500183105469 27.756999969482422,118.45500183105469 27.756999969482422,118.45500183105469 C30.163000106811523,118.45500183105469 32.2140007019043,116.55699920654297 32.2400016784668,114.1510009765625 C32.2760009765625,110.82599639892578 32.3129997253418,107.58000183105469 32.349998474121094,104.40799713134766"/></g></g><g style="display: block;" transform="matrix(1.2000000476837158,0,0,1.2000000476837158,424.0466003417969,252.74661254882812)" opacity="1"><g opacity="0.45" transform="matrix(1,0,0,1,12.876999855041504,12.876999855041504)"><path fill="rgb(16,43,60)" fill-opacity="1" d=" M14.503999710083008,4.953000068664551 C14.503999710083008,11.689000129699707 8.58899974822998,17.14900016784668 1.2920000553131104,17.14900016784668 C-6.005000114440918,17.14900016784668 -11.920999526977539,11.689000129699707 -11.920999526977539,4.953000068664551 C-11.920999526977539,-1.7829999923706055 -6.005000114440918,-7.243000030517578 1.2920000553131104,-7.243000030517578 C8.58899974822998,-7.243000030517578 14.503999710083008,-1.7829999923706055 14.503999710083008,4.953000068664551z"/></g><g opacity="1" transform="matrix(1,0,0,1,12.876999855041504,11.876999855041504)"><path stroke-linecap="butt" stroke-linejoin="miter" fill-opacity="0" stroke-miterlimit="4" stroke="rgb(88,119,156)" stroke-opacity="1" stroke-width="0" d=" M14.053999900817871,1.690000057220459 C14.053999900817871,8.47599983215332 8.291000366210938,13.97599983215332 1.180999994277954,13.97599983215332 C-5.928999900817871,13.97599983215332 -11.692999839782715,8.47599983215332 -11.692999839782715,1.690000057220459 C-11.692999839782715,-5.0960001945495605 -5.928999900817871,-10.595999717712402 1.180999994277954,-10.595999717712402 C8.291000366210938,-10.595999717712402 14.053999900817871,-5.0960001945495605 14.053999900817871,1.690000057220459z"/><path fill="url(#__lottie_element_1079)" fill-opacity="1" d=" M14.053999900817871,1.690000057220459 C14.053999900817871,8.47599983215332 8.291000366210938,13.97599983215332 1.180999994277954,13.97599983215332 C-5.928999900817871,13.97599983215332 -11.692999839782715,8.47599983215332 -11.692999839782715,1.690000057220459 C-11.692999839782715,-5.0960001945495605 -5.928999900817871,-10.595999717712402 1.180999994277954,-10.595999717712402 C8.291000366210938,-10.595999717712402 14.053999900817871,-5.0960001945495605 14.053999900817871,1.690000057220459z"/></g><g opacity="1" transform="matrix(1,0,0,1,12.876999855041504,11.876999855041504)"><path fill="url(#__lottie_element_1080)" fill-opacity="1" d=" M9.404999732971191,0.8809999823570251 C9.404999732971191,4.945000171661377 5.763999938964844,8.23799991607666 1.2730000019073486,8.23799991607666 C-3.2179999351501465,8.23799991607666 -6.860000133514404,4.945000171661377 -6.860000133514404,0.8809999823570251 C-6.860000133514404,-3.183000087738037 -3.2179999351501465,-6.4770002365112305 1.2730000019073486,-6.4770002365112305 C5.763999938964844,-6.4770002365112305 9.404999732971191,-3.183000087738037 9.404999732971191,0.8809999823570251z"/></g><g opacity="0" transform="matrix(1,0,0,1,12.876999855041504,11.876999855041504)"><path fill="rgb(249,0,0)" fill-opacity="1" d=" M9.404999732971191,0.8809999823570251 C9.404999732971191,4.945000171661377 5.763999938964844,8.23799991607666 1.2730000019073486,8.23799991607666 C-3.2179999351501465,8.23799991607666 -6.860000133514404,4.945000171661377 -6.860000133514404,0.8809999823570251 C-6.860000133514404,-3.183000087738037 -3.2179999351501465,-6.4770002365112305 1.2730000019073486,-6.4770002365112305 C5.763999938964844,-6.4770002365112305 9.404999732971191,-3.183000087738037 9.404999732971191,0.8809999823570251z"/></g><g opacity="0.6" transform="matrix(1,0,0,1,0,0)"><path stroke-linecap="round" stroke-linejoin="round" fill-opacity="0" stroke="rgb(255,255,255)" stroke-opacity="1" stroke-width="5" d=" M4.270999908447266,16.72100067138672 C4.986999988555908,18.582000732421875 6.848999977111816,20.371999740600586 8.746000289916992,21.231000900268555"/></g></g></g></svg>