<svg xmlns="http://www.w3.org/2000/svg" xmlns:xlink="http://www.w3.org/1999/xlink" viewBox="0 0 512 512" width="512" height="512" style="width: 100%; height: 100%; transform: translate3d(0,0,0);" preserveAspectRatio="xMidYMid meet"><defs><clipPath id="__lottie_element_760"><rect width="512" height="512" x="0" y="0"/></clipPath></defs><g clip-path="url(#__lottie_element_760)"><g style="display: block;" transform="matrix(1.100000023841858,0,0,1.100000023841858,292.35418701171875,350.6398010253906)" opacity="1"><g opacity="1" transform="matrix(1,0,0,1,0,0)"><path fill="rgb(252,206,44)" fill-opacity="1" d=" M39.840999603271484,-85.61499786376953 C38.520999908447266,-39.637001037597656 48.96900177001953,-38.59299850463867 65.54199981689453,-42.54999923706055 C82.11499786376953,-46.50699996948242 68.25900268554688,33.41299819946289 50.262001037597656,60.88800048828125 C32.26599884033203,88.36299896240234 3.8589999675750732,103.53500366210938 -23.334999084472656,107.72000122070312 C-49.92100143432617,111.81199645996094 -98.50299835205078,108.05400085449219 -123.73600006103516,76.26000213623047 C-151.3459930419922,41.470001220703125 -157.3699951171875,-20.125999450683594 -159.42799377441406,-41.57899856567383 C-159.42799377441406,-41.57899856567383 -142.54200744628906,-66.06800079345703 -113.3219985961914,-67.21800231933594 C-113.3219985961914,-67.21800231933594 -91.697998046875,-97.04900360107422 -60.321998596191406,-91.21800231933594 C-60.321998596191406,-91.21800231933594 -33.90299987792969,-115.322998046875 -5.322000026702881,-100.21800231933594 C-5.322000026702881,-100.21800231933594 41.064998626708984,-128.25599670410156 39.840999603271484,-85.61499786376953"/></g></g><g style="display: block;" transform="matrix(1.100000023841858,0,0,1.100000023841858,350.9996032714844,304.01409912109375)" opacity="1"><g opacity="0.15" transform="matrix(1,0,0,1,0,0)"><path fill="rgb(240,146,1)" fill-opacity="1" d=" M6.613999843597412,4.85699987411499 C-9.206000328063965,5.465000152587891 -24.257999420166016,7.369999885559082 -47.04199981689453,16.163999557495117 C-75.79499816894531,27.261999130249023 -78.50499725341797,44.374000549316406 -82.20800018310547,42.02299880981445 C-85.91300201416016,39.67100143432617 -78.05500030517578,21.173999786376953 -67.1050033569336,12.715999603271484 C-56.154998779296875,4.258999824523926 -47.41699981689453,-4.300000190734863 -34.141998291015625,-9.842000007629395 C-19.913000106811523,-15.781999588012695 -12.998000144958496,-42.242000579833984 -12.998000144958496,-42.242000579833984 C-13.581000328063965,-16.695999145507812 -12.48900032043457,-12.050000190734863 -8.446000099182129,-5.940999984741211 C-6.635000228881836,-3.2060000896453857 -3.135999917984009,0.04399999976158142 6.613999843597412,4.85699987411499z"/></g></g><g style="display: block;" transform="matrix(1.100000023841858,0,0,1.100000023841858,235.1949005126953,285.93560791015625)" opacity="1"><g opacity="1" transform="matrix(1,0,0,1,0,0)"><path fill="rgb(255,215,93)" fill-opacity="1" d=" M58.82899856567383,-7.309000015258789 C60.80400085449219,-14.524999618530273 41.29100036621094,-27.25 8.736000061035156,-21.158000946044922 C-23.82200050354004,-15.0649995803833 -61.73699951171875,6.085000038146973 -58.80500030517578,18.190000534057617 C-55.87200164794922,30.295000076293945 -35.361000061035156,15.291000366210938 -14.357999801635742,8.496000289916992 C6.886000156402588,1.6230000257492065 21.433000564575195,0.9520000219345093 32.987998962402344,0.37700000405311584 C46.19499969482422,-0.28200000524520874 56.74599838256836,0.30000001192092896 58.82899856567383,-7.309000015258789"/></g></g><g style="display: block;" transform="matrix(1.100000023841858,0,0,1.100000023841858,323.82080078125,163.83010864257812)" opacity="1"><g opacity="1" transform="matrix(1,0,0,1,0,0)"><path fill="rgb(252,206,44)" fill-opacity="1" d=" M11.234999656677246,84.21199798583984 C11.28600025177002,72.09500122070312 17.996999740600586,40.3489990234375 22.059999465942383,19.95599937438965 C23.08300018310547,14.819000244140625 30.320999145507812,-22.6200008392334 32.69300079345703,-35.165000915527344 C37.689998626708984,-61.590999603271484 38.84400177001953,-80.00399780273438 22.13599967956543,-84.00199890136719 C4.314000129699707,-86.41600036621094 -1.2389999628067017,-67.74500274658203 -6.60099983215332,-41.27399826049805 C-8.074000358581543,-34 -14.961999893188477,1.284999966621399 -16.740999221801758,10.984999656677246 C-22.312999725341797,41.36199951171875 -27.656999588012695,69.40399932861328 -35.95600128173828,68.41899871826172"/></g></g><g style="display: block;" transform="matrix(1.100000023841858,0,0,1.100000023841858,252.69589233398438,145.2884979248047)" opacity="1"><g opacity="1" transform="matrix(1,0,0,1,0,0)"><path fill="rgb(252,206,44)" fill-opacity="1" d=" M-25.944000244140625,95.24099731445312 C-16.44700050354004,94.0790023803711 -22.28499984741211,63.084999084472656 -25.656999588012695,18.187999725341797 C-26.069000244140625,12.696999549865723 -28.30299949645996,-26.01300048828125 -28.597000122070312,-38.555999755859375 C-29.33099937438965,-69.91699981689453 -26.60300064086914,-94.6709976196289 -9.532999992370605,-95.2229995727539 C11.67199993133545,-95.91000366210938 12.255000114440918,-76.66200256347656 13.588000297546387,-41.29800033569336 C13.845000267028809,-34.4900016784668 15.831999778747559,3.999000072479248 16.57900047302246,16.44499969482422 C18.639999389648438,50.7859992980957 21.704999923706055,85.4209976196289 28.702999114990234,85.2760009765625"/></g></g><g style="display: block;" transform="matrix(1.100000023841858,0,0,1.100000023841858,181.92520141601562,178.66139221191406)" opacity="1"><g opacity="1" transform="matrix(1,0,0,1,0,0)"><path fill="rgb(252,206,44)" fill-opacity="1" d=" M38.393001556396484,64.9010009765625 C31.805999755859375,66.01699829101562 24.204999923706055,36.301998138427734 17.486000061035156,6.894999980926514 C14.67300033569336,-5.418000221252441 6.323999881744385,-41.917999267578125 4.861999988555908,-48.19200134277344 C-2.0199999809265137,-77.7229995727539 -6.915999889373779,-93.697998046875 -23.530000686645508,-89.53600311279297 C-41.00699996948242,-85.15899658203125 -40.72600173950195,-66.3030014038086 -34.577999114990234,-36.84299850463867 C-32.415000915527344,-26.479999542236328 -22.239999771118164,15.243000030517578 -20.308000564575195,23.285999298095703 C-11.21500015258789,61.132999420166016 -5.288000106811523,89.28399658203125 -13.357999801635742,90.18800354003906"/></g></g><g style="display: block;" transform="matrix(1.100000023841858,0,0,1.100000023841858,118.6510009765625,231.2270965576172)" opacity="1"><g opacity="1" transform="matrix(1,0,0,1,0,0)"><path fill="rgb(252,206,44)" fill-opacity="1" d=" M44.16400146484375,42.39899826049805 C39.42499923706055,44.334999084472656 28.40399932861328,26.402999877929688 17.992000579833984,5.885000228881836 C11.21500015258789,-7.46999979019165 4.695000171661377,-21.922000885009766 0.33399999141693115,-32.70399856567383 C-10.333000183105469,-55.54899978637695 -19.045000076293945,-70.32599639892578 -33.733001708984375,-65.28099822998047 C-49.21699905395508,-59.9630012512207 -44.847999572753906,-40.367000579833984 -37.36399841308594,-20.77400016784668 C-34.31700134277344,-12.795999526977539 -24.65999984741211,9.33899974822998 -18.031999588012695,22.398000717163086 C-9.682000160217285,38.849998474121094 -1.3329999446868896,55.0369987487793 -0.41499999165534973,66.26899719238281"/></g></g><g style="display: block;" transform="matrix(1.100000023841858,0,0,1.100000023841858,97.48590087890625,185.4176025390625)" opacity="1"><g opacity="1" transform="matrix(1,0,0,1,0,0)"><path fill="rgb(255,215,93)" fill-opacity="1" d=" M-13.13700008392334,4.933000087738037 C-13.13700008392334,4.933000087738037 -12.597000122070312,-9.76200008392334 -4.074999809265137,-8.055999755859375 C4.447000026702881,-6.349999904632568 16.197999954223633,14.536999702453613 22.326000213623047,22.316999435424805 C22.326000213623047,22.316999435424805 14.069000244140625,-23.868000030517578 -10.654999732971191,-22.275999069213867 C-35.37900161743164,-20.68400001525879 -13.13700008392334,4.933000087738037 -13.13700008392334,4.933000087738037"/></g></g><g style="display: block;" transform="matrix(1.100000023841858,0,0,1.100000023841858,169.2751922607422,119.53639221191406)" opacity="1"><g opacity="1" transform="matrix(1,0,0,1,0,0)"><path fill="rgb(255,215,93)" fill-opacity="1" d=" M-19.95400047302246,-9.451000213623047 C-18.95199966430664,-17.700000762939453 -8.541999816894531,-23.667999267578125 -2.36899995803833,-16.55900001525879 C6.021999835968018,-6.896999835968018 11.699999809265137,14.607999801635742 22.542999267578125,35.55500030517578 C22.542999267578125,35.55500030517578 11.720999717712402,-29.034000396728516 0.07900000363588333,-33.891998291015625 C-16.145999908447266,-40.66299819946289 -28.009000778198242,-25.608999252319336 -19.95400047302246,-9.451000213623047z"/></g></g><g style="display: block;" transform="matrix(1.100000023841858,0,0,1.100000023841858,255.24899291992188,142.08860778808594)" opacity="1"><g opacity="1" transform="matrix(1,0,0,1,0,0)"><path fill="rgb(255,215,93)" fill-opacity="1" d=" M-26.916000366210938,-68.63099670410156 C-23.475000381469727,-74.46099853515625 -11.114999771118164,-79.49199676513672 -4.5269999504089355,-69.74199676513672 C3.3010001182556152,-58.154998779296875 1.7949999570846558,-21.417999267578125 3.131999969482422,5.578999996185303 C4.603000164031982,35.29100036621094 4.386000156402588,98.76799774169922 26.93600082397461,91.88200378417969 C26.93600082397461,91.88200378417969 19.35099983215332,82.14199829101562 18.156999588012695,65.88800048828125 C15.149999618530273,24.950000762939453 11.5,-68.39099884033203 5.789999961853027,-81.11100006103516 C-2.188999891281128,-98.87799835205078 -27.731000900268555,-96.36699676513672 -26.916000366210938,-68.63099670410156z"/></g></g><g style="display: block;" transform="matrix(1.100000023841858,0,0,1.100000023841858,344.154296875,178.29730224609375)" opacity="1"><g opacity="1" transform="matrix(1,0,0,1,0,0)"><path fill="rgb(255,215,93)" fill-opacity="1" d=" M-7.5370001792907715,97.52300262451172 C-17.27199935913086,88.83599853515625 -20.108999252319336,80.1969985961914 -14.553000450134277,41.68600082397461 C-12.61400032043457,28.246000289916992 -8.20199966430664,7.61299991607666 -4.043000221252441,-12.628999710083008 C1.125,-37.78499984741211 5.9029998779296875,-62.3390007019043 5.059999942779541,-71.74500274658203 C3.5399999618530273,-88.71800231933594 -13.147000312805176,-77.31500244140625 -13.147000312805176,-77.31500244140625 C-11.446999549865723,-89.88200378417969 -4.269999980926514,-99.25700378417969 5.084000110626221,-97.25199890136719 C18.87299919128418,-94.46499633789062 18.86400032043457,-73.75299835205078 15.527999877929688,-52.3380012512207 C13.937000274658203,-42.12699890136719 3.3940000534057617,4.020999908447266 -3.0859999656677246,43.32899856567383 C-6.982999801635742,66.96900177001953 -9.41100025177002,88.13600158691406 -7.5370001792907715,97.52300262451172z"/></g></g><g style="display: block;" transform="matrix(1.100000023841858,0,0,1.100000023841858,320.48779296875,157.94729614257812)" opacity="1"><g opacity="0.5" transform="matrix(1,0,0,1,0,0)"><path fill="rgb(240,146,1)" fill-opacity="1" d=" M34.617000579833984,-68.31900024414062 C34.617000579833984,-68.31900024414062 19.101999282836914,-83.36100006103516 9.543999671936035,-54.47100067138672 C4.791999816894531,-40.108001708984375 0.9330000281333923,-19.665000915527344 -2.4790000915527344,0.5199999809265137 C-3.115000009536743,4.28000020980835 -3.740999937057495,8.029000282287598 -4.36299991607666,11.72599983215332 C-6.330999851226807,23.417999267578125 -8.26200008392334,34.582000732421875 -10.348999977111816,43.8849983215332 C-16.915000915527344,73.15399932861328 -21.125,81.18399810791016 -34.617000579833984,76.80500030517578 C-34.617000579833984,76.80500030517578 -26.110000610351562,79.42500305175781 -21.496999740600586,57.84199905395508 C-18.224000930786133,42.53799819946289 -4.73199987411499,-37.12900161743164 -0.4300000071525574,-51.9379997253418 C3.872999906539917,-66.7490005493164 9.211000442504883,-82.37899780273438 26.52400016784668,-77.76599884033203 C33.43899917602539,-75.92400360107422 34.617000579833984,-68.31900024414062 34.617000579833984,-68.31900024414062z"/></g><g opacity="0.3" transform="matrix(1,0,0,1,0,0)"><path fill="rgb(240,146,1)" fill-opacity="1" d=" M34.617000579833984,-68.31900024414062 C34.617000579833984,-68.31900024414062 22.284000396728516,-79.04199981689453 14.543999671936035,-53.78900146484375 C10.111000061035156,-39.32500076293945 5.933000087738037,-18.982999801635742 2.5209999084472656,1.2020000219345093 C1.8849999904632568,4.961999893188477 1.2589999437332153,8.711000442504883 0.6370000243186951,12.407999992370605 C-1.3309999704360962,24.100000381469727 -3.26200008392334,35.263999938964844 -5.348999977111816,44.56700134277344 C-11.914999961853027,73.83599853515625 -18.85300064086914,82.32099914550781 -34.617000579833984,76.80500030517578 C-34.617000579833984,76.80500030517578 -26.110000610351562,79.42500305175781 -21.496999740600586,57.84199905395508 C-18.224000930786133,42.53799819946289 -4.73199987411499,-37.12900161743164 -0.4300000071525574,-51.9379997253418 C3.872999906539917,-66.7490005493164 9.211000442504883,-82.37899780273438 26.52400016784668,-77.76599884033203 C33.43899917602539,-75.92400360107422 34.617000579833984,-68.31900024414062 34.617000579833984,-68.31900024414062z"/></g><g opacity="0.1" transform="matrix(1,0,0,1,0,0)"><path fill="rgb(240,146,1)" fill-opacity="1" d=" M34.617000579833984,-68.31900024414062 C34.617000579833984,-68.31900024414062 27.93600082397461,-75.98500061035156 19.999000549316406,-52.880001068115234 C15.081999778747559,-38.573001861572266 11.387999534606934,-18.073999404907227 7.97599983215332,2.1110000610351562 C7.340000152587891,5.870999813079834 6.714000225067139,9.619999885559082 6.0920000076293945,13.317000389099121 C4.124000072479248,25.009000778198242 2.193000078201294,36.17300033569336 0.10599999874830246,45.47600173950195 C-6.460000038146973,74.74500274658203 -17.409000396728516,82.91799926757812 -34.617000579833984,76.80500030517578 C-34.617000579833984,76.80500030517578 -26.110000610351562,79.42500305175781 -21.496999740600586,57.84199905395508 C-18.224000930786133,42.53799819946289 -4.73199987411499,-37.12900161743164 -0.4300000071525574,-51.9379997253418 C3.872999906539917,-66.7490005493164 9.211000442504883,-82.37899780273438 26.52400016784668,-77.76599884033203 C33.43899917602539,-75.92400360107422 34.617000579833984,-68.31900024414062 34.617000579833984,-68.31900024414062z"/></g></g><g style="display: block;" transform="matrix(1.100000023841858,0,0,1.100000023841858,239.04049682617188,146.96270751953125)" opacity="1"><g opacity="0.5" transform="matrix(1,0,0,1,0,0)"><path fill="rgb(240,146,1)" fill-opacity="1" d=" M15.836999893188477,-91.51300048828125 C15.836999893188477,-91.51300048828125 -4.355000019073486,-100.64900207519531 -5.89300012588501,-69.51399993896484 C-6.815999984741211,-50.82600021362305 -6.1579999923706055,-29.253000259399414 -4.316999912261963,-2.3440001010894775 C-3.997999906539917,2.319000005722046 -3.6540000438690186,7.140999794006348 -3.2909998893737793,12.135000228881836 C-2.7699999809265137,19.312000274658203 -2.2100000381469727,26.84600067138672 -1.6349999904632568,34.770999908447266 C1.649999976158142,80.03800201416016 2.4630000591278076,99.35199737548828 -15.107000350952148,97.10299682617188 C-15.107000350952148,97.10299682617188 -4.440999984741211,94.39199829101562 -8.144000053405762,62.25600051879883 C-11.071999549865723,36.84400177001953 -15.961000442504883,-46.058998107910156 -15.833999633789062,-61.62300109863281 C-15.708000183105469,-77.18699645996094 -11.984999656677246,-111.0459976196289 15.836999893188477,-91.51300048828125"/></g><g opacity="0.3" transform="matrix(1,0,0,1,0,0)"><path fill="rgb(240,146,1)" fill-opacity="1" d=" M15.836999893188477,-91.51300048828125 C15.836999893188477,-91.51300048828125 0.8510000109672546,-99.06999969482422 -1.121000051498413,-69.74099731445312 C-2.377000093460083,-51.071998596191406 -1.3849999904632568,-29.479999542236328 0.4560000002384186,-2.571000099182129 C0.7749999761581421,2.0920000076293945 1.11899995803833,6.914000034332275 1.4819999933242798,11.907999992370605 C2.003000020980835,19.084999084472656 2.562000036239624,26.618999481201172 3.13700008392334,34.54399871826172 C6.421999931335449,79.81099700927734 5.418000221252441,99.5790023803711 -15.107000350952148,97.10299682617188 C-15.107000350952148,97.10299682617188 -4.440999984741211,94.39199829101562 -8.144000053405762,62.25600051879883 C-11.071999549865723,36.84400177001953 -15.961000442504883,-46.058998107910156 -15.833999633789062,-61.62300109863281 C-15.708000183105469,-77.18699645996094 -11.984999656677246,-111.0459976196289 15.836999893188477,-91.51300048828125"/></g><g opacity="0.1" transform="matrix(1,0,0,1,0,0)"><path fill="rgb(240,146,1)" fill-opacity="1" d=" M15.836999893188477,-91.51300048828125 C15.836999893188477,-91.51300048828125 6.306000232696533,-99.06999969482422 4.334000110626221,-69.74099731445312 C3.078000068664551,-51.071998596191406 4.068999767303467,-29.479999542236328 5.909999847412109,-2.571000099182129 C6.229000091552734,2.0920000076293945 6.572999954223633,6.914000034332275 6.935999870300293,11.907999992370605 C7.456999778747559,19.084999084472656 8.017000198364258,26.618999481201172 8.592000007629395,34.54399871826172 C11.876999855041504,79.81099700927734 6.952000141143799,100.26899719238281 -15.107000350952148,97.10299682617188 C-15.107000350952148,97.10299682617188 -4.440999984741211,94.39199829101562 -8.144000053405762,62.25600051879883 C-11.071999549865723,36.84400177001953 -15.961000442504883,-46.058998107910156 -15.833999633789062,-61.62300109863281 C-15.708000183105469,-77.18699645996094 -11.984999656677246,-111.0459976196289 15.836999893188477,-91.51300048828125"/></g></g><g style="display: block;" transform="matrix(1.100000023841858,0,0,1.100000023841858,160.91299438476562,180.81080627441406)" opacity="1"><g opacity="0.5" transform="matrix(1,0,0,1,0,0)"><path fill="rgb(240,146,1)" fill-opacity="1" d=" M4.98199987411499,-89.98100280761719 C4.98199987411499,-89.98100280761719 -12.590999603271484,-96.9280014038086 -9.32800006866455,-60.242000579833984 C-8.833999633789062,-54.68600082397461 -3.7060000896453857,-31.242000579833984 2.187999963760376,-5.607999801635742 C2.7360000610351562,-3.2249999046325684 3.2899999618530273,-0.8169999718666077 3.8480000495910645,1.6050000190734863 C8.614999771118164,22.290000915527344 13.638999938964844,43.946998596191406 16.981000900268555,59.39400100708008 C24.92099952697754,96.0989990234375 4.189000129699707,92.07099914550781 4.189000129699707,92.07099914550781 C4.189000129699707,92.07099914550781 13.277999877929688,85.68800354003906 2.697000026702881,44.84600067138672 C-4.257999897003174,15.60200023651123 -15.48900032043457,-30.9950008392334 -18.382999420166016,-49.00199890136719 C-21.277999877929688,-67.01000213623047 -23.117000579833984,-84.9990005493164 -10.482000350952148,-89.94300079345703 C2.1519999504089355,-94.88800048828125 4.98199987411499,-89.98100280761719 4.98199987411499,-89.98100280761719z"/></g><g opacity="0.3" transform="matrix(1,0,0,1,0,0)"><path fill="rgb(240,146,1)" fill-opacity="1" d=" M4.98199987411499,-89.98100280761719 C4.98199987411499,-89.98100280761719 -9.182000160217285,-97.15499877929688 -5.919000148773193,-60.46900177001953 C-5.425000190734863,-54.91299819946289 0.3840000033378601,-32.1510009765625 6.2779998779296875,-6.517000198364258 C6.826000213623047,-4.133999824523926 7.38100004196167,-1.7259999513626099 7.939000129699707,0.6959999799728394 C12.706000328063965,21.381000518798828 17.729000091552734,43.03799819946289 21.070999145507812,58.48500061035156 C29.01099967956543,95.19000244140625 4.189000129699707,92.07099914550781 4.189000129699707,92.07099914550781 C4.189000129699707,92.07099914550781 13.277999877929688,85.68800354003906 2.697000026702881,44.84600067138672 C-4.257999897003174,15.60200023651123 -15.48900032043457,-30.9950008392334 -18.382999420166016,-49.00199890136719 C-21.277999877929688,-67.01000213623047 -23.117000579833984,-84.9990005493164 -10.482000350952148,-89.94300079345703 C2.1519999504089355,-94.88800048828125 4.98199987411499,-89.98100280761719 4.98199987411499,-89.98100280761719z"/></g><g opacity="0.1" transform="matrix(1,0,0,1,0,0)"><path fill="rgb(240,146,1)" fill-opacity="1" d=" M4.98199987411499,-89.98100280761719 C4.98199987411499,-89.98100280761719 -4.409999847412109,-97.61000061035156 -1.1469999551773071,-60.92399978637695 C-0.652999997138977,-55.36800003051758 5.611999988555908,-33.28799819946289 11.505999565124512,-7.6539998054504395 C12.053999900817871,-5.270999908447266 12.607999801635742,-2.86299991607666 13.166000366210938,-0.4410000145435333 C17.933000564575195,20.243999481201172 23.410999298095703,40.992000579833984 26.753000259399414,56.43899917602539 C34.69300079345703,93.14399719238281 4.189000129699707,92.07099914550781 4.189000129699707,92.07099914550781 C4.189000129699707,92.07099914550781 13.277999877929688,85.68800354003906 2.697000026702881,44.84600067138672 C-4.257999897003174,15.60200023651123 -15.48900032043457,-30.9950008392334 -18.382999420166016,-49.00199890136719 C-21.277999877929688,-67.01000213623047 -23.117000579833984,-84.9990005493164 -10.482000350952148,-89.94300079345703 C2.1519999504089355,-94.88800048828125 4.98199987411499,-89.98100280761719 4.98199987411499,-89.98100280761719z"/></g></g><g style="display: block;" transform="matrix(1.100000023841858,0,0,1.100000023841858,323.82080078125,163.83010864257812)" opacity="1"><g opacity="1" transform="matrix(1,0,0,1,0,0)"><path stroke-linecap="round" stroke-linejoin="round" fill-opacity="0" stroke="rgb(225,124,0)" stroke-opacity="1" stroke-width="8" d=" M11.234999656677246,84.21199798583984 C11.28600025177002,72.09500122070312 17.996999740600586,40.3489990234375 22.059999465942383,19.95599937438965 C23.08300018310547,14.819000244140625 30.320999145507812,-22.6200008392334 32.69300079345703,-35.165000915527344 C37.689998626708984,-61.590999603271484 38.84400177001953,-80.00399780273438 22.13599967956543,-84.00199890136719 C4.314000129699707,-86.41600036621094 -1.2389999628067017,-67.74500274658203 -6.60099983215332,-41.27399826049805 C-8.074000358581543,-34 -14.961999893188477,1.284999966621399 -16.740999221801758,10.984999656677246 C-22.312999725341797,41.36199951171875 -27.656999588012695,69.40399932861328 -35.95600128173828,68.41899871826172"/></g></g><g style="display: block;" transform="matrix(1.100000023841858,0,0,1.100000023841858,252.69589233398438,145.2884979248047)" opacity="1"><g opacity="1" transform="matrix(1,0,0,1,0,0)"><path stroke-linecap="round" stroke-linejoin="round" fill-opacity="0" stroke="rgb(225,124,0)" stroke-opacity="1" stroke-width="8" d=" M-25.944000244140625,95.24099731445312 C-16.44700050354004,94.0790023803711 -22.28499984741211,63.084999084472656 -25.656999588012695,18.187999725341797 C-26.069000244140625,12.696999549865723 -28.30299949645996,-26.01300048828125 -28.597000122070312,-38.555999755859375 C-29.33099937438965,-69.91699981689453 -26.60300064086914,-94.6709976196289 -9.532999992370605,-95.2229995727539 C11.67199993133545,-95.91000366210938 12.255000114440918,-76.66200256347656 13.588000297546387,-41.29800033569336 C13.845000267028809,-34.4900016784668 15.831999778747559,3.999000072479248 16.57900047302246,16.44499969482422 C18.639999389648438,50.7859992980957 21.704999923706055,85.4209976196289 28.702999114990234,85.2760009765625"/></g></g><g style="display: block;" transform="matrix(1.100000023841858,0,0,1.100000023841858,181.92520141601562,178.66139221191406)" opacity="1"><g opacity="1" transform="matrix(1,0,0,1,0,0)"><path stroke-linecap="round" stroke-linejoin="round" fill-opacity="0" stroke="rgb(225,124,0)" stroke-opacity="1" stroke-width="8" d=" M38.393001556396484,64.9010009765625 C31.805999755859375,66.01699829101562 24.204999923706055,36.301998138427734 17.486000061035156,6.894999980926514 C14.67300033569336,-5.418000221252441 6.323999881744385,-41.917999267578125 4.861999988555908,-48.19200134277344 C-2.0199999809265137,-77.7229995727539 -6.915999889373779,-93.697998046875 -23.530000686645508,-89.53600311279297 C-41.00699996948242,-85.15899658203125 -40.72600173950195,-66.3030014038086 -34.577999114990234,-36.84299850463867 C-32.415000915527344,-26.479999542236328 -22.239999771118164,15.243000030517578 -20.308000564575195,23.285999298095703 C-11.21500015258789,61.132999420166016 -5.288000106811523,89.28399658203125 -13.357999801635742,90.18800354003906"/></g></g><g style="display: block;" transform="matrix(1.100000023841858,0,0,1.100000023841858,185.38360595703125,374.5086975097656)" opacity="0.7000000000000001"><g opacity="1" transform="matrix(1,0,0,1,0,0)"><path fill="rgb(255,215,93)" fill-opacity="1" d=" M-11.293000221252441,-31.573999404907227 C-15.024999618530273,-40.67100143432617 -25.65999984741211,-42.92100143432617 -29.1560001373291,-29.18400001525879 C-32.652000427246094,-15.446999549865723 -24.121999740600586,8.008000373840332 -15.461999893188477,17.983999252319336 C-1.1089999675750732,34.52199935913086 20.645999908447266,45.608001708984375 28.649999618530273,34.402000427246094 C34.32400131225586,26.45800018310547 19.930999755859375,20.427000045776367 5.164999961853027,0.6029999852180481 C-7.326000213623047,-16.16699981689453 -7.560999870300293,-22.476999282836914 -11.293000221252441,-31.573999404907227z"/></g></g><g style="display: block;" transform="matrix(1.100000023841858,0,0,1.100000023841858,293.8590087890625,363.2590026855469)" opacity="1"><g opacity="1" transform="matrix(1,0,0,1,0,0)"><path stroke-linecap="round" stroke-linejoin="round" fill-opacity="0" stroke="rgb(225,124,0)" stroke-opacity="1" stroke-width="8" d=" M38.472999572753906,-97.08699798583984 C35.94599914550781,-57.65999984741211 46.84600067138672,-54.24100112915039 56.56999969482422,-52.900001525878906"/></g></g><g style="display: block;" transform="matrix(1.100000023841858,0,0,1.100000023841858,293.8590087890625,363.2590026855469)" opacity="1"><g opacity="1" transform="matrix(1,0,0,1,0,0)"><path fill="rgb(252,206,44)" fill-opacity="1" d=" M56.56999969482422,-52.900001525878906 C73.8219985961914,-50.52000045776367 87.27799987792969,-74.97799682617188 102.37300109863281,-82.93599700927734 C117.46800231933594,-90.8949966430664 153.4010009765625,-86.61499786376953 158.68499755859375,-66.67900085449219 C163.97000122070312,-46.744998931884766 147.5590057373047,-43.387001037597656 131.8300018310547,-37.95100021362305 C119.59400177001953,-33.20000076293945 110.0530014038086,-26.48900032043457 102.16300201416016,-19.141000747680664 C95.66200256347656,-13.086999893188477 90.28199768066406,-6.599999904632568 85.44000244140625,-0.41999998688697815 C72.96700286865234,16.479000091552734 67.88300323486328,23.613000869750977 49.99399948120117,48.70899963378906 C39.909000396728516,64.1050033569336 26.55500030517578,75.63899993896484 11.97700023651123,83.54000091552734"/></g></g><g style="display: block;" transform="matrix(1.100000023841858,0,0,1.100000023841858,270,316.18341064453125)" opacity="1"><g opacity="0.5" transform="matrix(1,0,0,1,16.81800079345703,-1.8179999589920044)"><path fill="rgb(240,146,1)" fill-opacity="1" d=" M93.87699890136719,39.39699935913086 C82.72699737548828,53.696998596191406 75.68099975585938,63.242000579833984 58.40599822998047,89.15499877929688 C41.13600158691406,115.05999755859375 13.651000022888184,133.73300170898438 -12.847999572753906,139.21299743652344 C-38.749000549316406,144.57000732421875 -80.02100372314453,144.5709991455078 -108.49600219726562,121.42900085449219 C-142.38699340820312,93.88500213623047 -153.41200256347656,26.613000869750977 -153.89500427246094,1.2070000171661377 C-153.89500427246094,1.2070000171661377 -153.89500427246094,1.2070000171661377 -153.89500427246094,1.190999984741211 C-154.04100036621094,-17.584999084472656 -165.74099731445312,-42.72700119018555 -176.7779998779297,-64.19400024414062 C-196.46800231933594,-102.49299621582031 -209.11000061035156,-130.93299865722656 -187.8990020751953,-138.88499450683594 C-187.22000122070312,-139.14300537109375 -181.36700439453125,-140.63600158691406 -179.1580047607422,-140.15699768066406 C-180.14100646972656,-139.6699981689453 -191.54400634765625,-136.22799682617188 -191.6790008544922,-123.26200103759766 C-191.781005859375,-113.46399688720703 -183.29800415039062,-94.0510025024414 -176.14300537109375,-79.49299621582031 C-175.3070068359375,-77.79100036621094 -174.50399780273438,-76.177001953125 -173.75399780273438,-74.68000030517578 C-166.48199462890625,-60.152000427246094 -151.34800720214844,-30.208999633789062 -146.5050048828125,-16.216999053955078 C-142.9550018310547,-5.961999893188477 -141.11500549316406,18.260000228881836 -139.4499969482422,28.284000396728516 C-135.45399475097656,52.33399963378906 -128.6580047607422,75.78900146484375 -107.06999969482422,100.33599853515625 C-92.625,116.76100158691406 -77.5469970703125,125.6709976196289 -56.39699935913086,126.83899688720703 C-48.507999420166016,127.2750015258789 -43.40999984741211,125.62899780273438 -36.60200119018555,125.29299926757812 C-29.64900016784668,124.94999694824219 -19.152000427246094,125.9489974975586 -11.288000106811523,123.7770004272461 C-3.240999937057495,121.55400085449219 4.9670000076293945,118.57499694824219 12.652000427246094,114.81400299072266 C46.7140007019043,98.1449966430664 68.64199829101562,46.56800079345703 91.99800109863281,26.586000442504883 C122.18699645996094,0.7590000033378601 139.9219970703125,-0.8809999823570251 152.36500549316406,-6.857999801635742 C162.91200256347656,-11.925000190734863 156.30499267578125,-32.07500076293945 156.1269989013672,-32.56700134277344 C159.1199951171875,-30.06399917602539 161.3800048828125,-26.993999481201172 162.56500244140625,-23.297000885009766 C168.75399780273438,-3.99399995803833 148.1300048828125,2.125999927520752 132.95899963378906,8.253999710083008 C117.78399658203125,14.383000373840332 105.0270004272461,25.097000122070312 93.87699890136719,39.39699935913086z"/></g><g opacity="0.3" transform="matrix(1,0,0,1,16.81800079345703,-1.8179999589920044)"><path fill="rgb(240,146,1)" fill-opacity="1" d=" M93.87699890136719,39.39699935913086 C82.72699737548828,53.696998596191406 75.68099975585938,63.242000579833984 58.40599822998047,89.15499877929688 C41.13600158691406,115.05999755859375 13.651000022888184,133.73300170898438 -12.847999572753906,139.21299743652344 C-38.749000549316406,144.57000732421875 -80.02100372314453,144.5709991455078 -108.49600219726562,121.42900085449219 C-142.38699340820312,93.88500213623047 -153.41200256347656,26.613000869750977 -153.89500427246094,1.2070000171661377 C-153.89500427246094,1.2070000171661377 -153.89500427246094,1.2070000171661377 -153.89500427246094,1.190999984741211 C-154.04100036621094,-17.584999084472656 -165.74099731445312,-42.72700119018555 -176.7779998779297,-64.19400024414062 C-196.46800231933594,-102.49199676513672 -209.11000061035156,-130.93299865722656 -187.8990020751953,-138.88499450683594 C-187.22000122070312,-139.14300537109375 -181.4010009765625,-140.31700134277344 -179.16799926757812,-140.1840057373047 C-180.1510009765625,-139.69700622558594 -189.20899963378906,-135.87600708007812 -189.3520050048828,-123.73300170898438 C-189.468994140625,-113.7750015258789 -180.0489959716797,-94.68199920654297 -172.75100708007812,-80.25900268554688 C-172.0290069580078,-78.83200073242188 -171.33900451660156,-77.46600341796875 -170.69400024414062,-76.1780014038086 C-163.2310028076172,-61.268001556396484 -148.21200561523438,-28.84600067138672 -144.10000610351562,-17.094999313354492 C-140.6820068359375,-7.324999809265137 -138.052001953125,15.32699966430664 -136.07000732421875,27.239999771118164 C-132.2729949951172,50.06100082397461 -124.69999694824219,73.625 -104.72200012207031,95.55000305175781 C-91.46099853515625,110.10299682617188 -76.16400146484375,120.75800323486328 -58.604000091552734,120.98400115966797 C-49.79100036621094,121.09700012207031 -45.71699905395508,117.16100311279297 -39.84199905395508,116.52400207519531 C-33.24700164794922,115.80899810791016 -26.132999420166016,118.78800201416016 -15.366000175476074,117.75599670410156 C-6.74399995803833,116.93000030517578 2.928999900817871,114.27200317382812 10.968000411987305,110.33799743652344 C45.029998779296875,93.66899871826172 65.62200164794922,43.46799850463867 88.97799682617188,23.486000061035156 C119.16699981689453,-2.3410000801086426 138.78199768066406,-2.2799999713897705 151.22500610351562,-8.256999969482422 C161.77200317382812,-13.324000358581543 156.30499267578125,-32.07500076293945 156.1269989013672,-32.56700134277344 C159.1199951171875,-30.06399917602539 161.3800048828125,-26.993999481201172 162.56500244140625,-23.297000885009766 C168.75399780273438,-3.99399995803833 148.1300048828125,2.125999927520752 132.95899963378906,8.253999710083008 C117.78399658203125,14.383000373840332 105.0270004272461,25.097000122070312 93.87699890136719,39.39699935913086z"/></g><g opacity="0.15" transform="matrix(1,0,0,1,16.81800079345703,-1.8179999589920044)"><path fill="rgb(240,146,1)" fill-opacity="1" d=" M93.87699890136719,39.39699935913086 C82.72699737548828,53.696998596191406 75.68099975585938,63.242000579833984 58.40599822998047,89.15499877929688 C41.13600158691406,115.05999755859375 13.651000022888184,133.73300170898438 -12.847999572753906,139.21299743652344 C-38.749000549316406,144.57000732421875 -80.02100372314453,144.5709991455078 -108.49600219726562,121.42900085449219 C-142.38699340820312,93.88500213623047 -153.41200256347656,26.613000869750977 -153.89500427246094,1.2070000171661377 C-153.89500427246094,1.2070000171661377 -153.89500427246094,1.2070000171661377 -153.89500427246094,1.190999984741211 C-154.04100036621094,-17.584999084472656 -165.74099731445312,-42.72700119018555 -176.7779998779297,-64.19400024414062 C-196.46800231933594,-102.49299621582031 -209.11000061035156,-130.93299865722656 -187.8990020751953,-138.88499450683594 C-187.22000122070312,-139.14300537109375 -180.45199584960938,-140.15199279785156 -179.1580047607422,-140.15699768066406 C-180.14100646972656,-139.6699981689453 -186.56500244140625,-136.00799560546875 -186.86599731445312,-124.64900207519531 C-187.1320037841797,-114.60700225830078 -177.6649932861328,-95.3030014038086 -170.38400268554688,-80.875 C-169.73199462890625,-79.58399963378906 -169.10699462890625,-78.34300231933594 -168.5189971923828,-77.16799926757812 C-161.25599670410156,-62.65800094604492 -146.0229949951172,-29.485000610351562 -141.5709991455078,-17.902999877929688 C-138.2949981689453,-9.380999565124512 -135.17100524902344,16.617000579833984 -133.4459991455078,27.086999893188477 C-129.7729949951172,49.37900161743164 -124.677001953125,66.32099914550781 -102.78900146484375,90.5999984741211 C-88.96499633789062,105.93399810791016 -73.40899658203125,115.56400299072266 -58.76100158691406,114.24700164794922 C-49.040000915527344,113.37300109863281 -48.750999450683594,104.9469985961914 -43.53799819946289,104.4260025024414 C-37.441001892089844,103.81700134277344 -31.222000122070312,109.87100219726562 -19.746000289916992,111.14199829101562 C-10.454000473022461,112.1709976196289 0.16599999368190765,109.61399841308594 8.75100040435791,105.41300201416016 C42.8129997253418,88.74400329589844 62.672000885009766,41.04899978637695 86.10600280761719,21.159000396728516 C114.22200012207031,-2.7049999237060547 138.31300354003906,-3.134000062942505 150.31199645996094,-9.762999534606934 C160.5540008544922,-15.420999526977539 156.30499267578125,-32.07500076293945 156.1269989013672,-32.56700134277344 C159.1199951171875,-30.06399917602539 161.3800048828125,-26.993999481201172 162.56500244140625,-23.297000885009766 C168.75399780273438,-3.99399995803833 148.1300048828125,2.125999927520752 132.95899963378906,8.253999710083008 C117.78399658203125,14.383000373840332 105.0270004272461,25.097000122070312 93.87699890136719,39.39699935913086z"/></g><g opacity="0.1" transform="matrix(1,0,0,1,16.81800079345703,-1.8179999589920044)"><path fill="rgb(240,146,1)" fill-opacity="1" d=" M93.87699890136719,39.39699935913086 C82.72699737548828,53.696998596191406 75.68099975585938,63.242000579833984 58.40599822998047,89.15499877929688 C41.13600158691406,115.05999755859375 13.651000022888184,133.73300170898438 -12.847999572753906,139.21299743652344 C-38.749000549316406,144.57000732421875 -80.02100372314453,144.5709991455078 -108.49600219726562,121.42900085449219 C-142.38699340820312,93.88500213623047 -153.41200256347656,26.61199951171875 -153.89500427246094,1.2070000171661377 C-153.89500427246094,1.2070000171661377 -153.89500427246094,1.2070000171661377 -153.89500427246094,1.190999984741211 C-154.04100036621094,-17.584999084472656 -165.74099731445312,-42.72700119018555 -176.7779998779297,-64.19400024414062 C-196.46800231933594,-102.49299621582031 -209.11000061035156,-130.93299865722656 -187.8990020751953,-138.88499450683594 C-187.22000122070312,-139.14300537109375 -181.04200744628906,-140.1750030517578 -179.2480010986328,-140.1529998779297 C-180.2310028076172,-139.66600036621094 -184.6999969482422,-135.60299682617188 -184.79299926757812,-124.89399719238281 C-184.88099670410156,-114.83399963378906 -175.71499633789062,-95.947998046875 -168.48800659179688,-81.59300231933594 C-167.85299682617188,-80.33100128173828 -167.24200439453125,-79.11599731445312 -166.66299438476562,-77.95999908447266 C-159.48399353027344,-63.61899948120117 -143.63600158691406,-30.393999099731445 -138.94900512695312,-18.964000701904297 C-135.5540008544922,-10.684000015258789 -133.03900146484375,16.450000762939453 -130.7969970703125,27.17799949645996 C-125.68199920654297,51.652000427246094 -120.15399932861328,64.94599914550781 -100.54900360107422,86.47100067138672 C-82.08000183105469,106.7490005493164 -65.33799743652344,109.18900299072266 -57.619998931884766,104.77899932861328 C-53.183998107910156,102.24400329589844 -51.729000091552734,98.63200378417969 -50.70800018310547,92.96600341796875 C-50,89.03800201416016 -46.24800109863281,86.54900360107422 -43.268001556396484,91.6729965209961 C-38.52299880981445,99.83300018310547 -18.1200008392334,110.30999755859375 7.986000061035156,99.85700225830078 C43.191001892089844,85.76100158691406 58.9739990234375,40.91400146484375 82.33000183105469,20.93199920654297 C112.51899719238281,-4.894999980926514 137.57699584960938,-3.4719998836517334 149.3979949951172,-11.413999557495117 C159.11099243164062,-17.93899917602539 156.30499267578125,-32.07500076293945 156.1269989013672,-32.56700134277344 C159.1199951171875,-30.06399917602539 161.3800048828125,-26.993999481201172 162.56500244140625,-23.297000885009766 C168.75399780273438,-3.99399995803833 148.1300048828125,2.125999927520752 132.95899963378906,8.253999710083008 C117.78399658203125,14.383000373840332 105.0270004272461,25.097000122070312 93.87699890136719,39.39699935913086z"/></g><g opacity="0.1" transform="matrix(1,0,0,1,16.81800079345703,-1.8179999589920044)"><path fill="rgb(240,146,1)" fill-opacity="1" d=" M93.87699890136719,39.39699935913086 C82.72699737548828,53.696998596191406 75.68099975585938,63.242000579833984 58.40599822998047,89.15499877929688 C41.13600158691406,115.05999755859375 13.651000022888184,133.73300170898438 -12.847999572753906,139.21299743652344 C-38.749000549316406,144.57000732421875 -80.02100372314453,144.5709991455078 -108.49600219726562,121.42900085449219 C-142.38699340820312,93.88500213623047 -153.41200256347656,26.613000869750977 -153.89500427246094,1.2070000171661377 C-153.89500427246094,1.2070000171661377 -153.89500427246094,1.2070000171661377 -153.89500427246094,1.190999984741211 C-154.04100036621094,-17.584999084472656 -165.74099731445312,-42.72700119018555 -176.7779998779297,-64.19400024414062 C-196.46800231933594,-102.49199676513672 -209.11000061035156,-130.93299865722656 -187.8990020751953,-138.88499450683594 C-187.22000122070312,-139.14300537109375 -180.85699462890625,-140.58099365234375 -179.2010040283203,-140.11000061035156 C-180.1840057373047,-139.6230010986328 -182.31300354003906,-135.04100036621094 -182.73899841308594,-125.29499816894531 C-183.17799377441406,-115.24199676513672 -174.05499267578125,-96.40399932861328 -166.50999450683594,-82.2249984741211 C-165.8489990234375,-80.98300170898438 -165.20799255371094,-79.78800201416016 -164.59800720214844,-78.65299987792969 C-152.625,-56.38600158691406 -140,-28.235000610351562 -136.23199462890625,-19.982999801635742 C-132.2209930419922,-11.199000358581543 -129.8280029296875,12.91100025177002 -127.23999786376953,27.393999099731445 C-122.5,53.92399978637695 -110.08000183105469,71.43000030517578 -98.76599884033203,82.41500091552734 C-85.86399841308594,94.94100189208984 -68.41100311279297,100.65399932861328 -60.9630012512207,98.51799774169922 C-53.2400016784668,96.3030014038086 -56.130001068115234,89.71700286865234 -52.63600158691406,80.94100189208984 C-48.819000244140625,71.35399627685547 -45.34700012207031,72.1969985961914 -43.82400131225586,79.85900115966797 C-42.30099868774414,87.52100372314453 -19.764999389648438,107.02400207519531 7.578000068664551,94.69499969482422 C42.14899826049805,79.10700225830078 53.58000183105469,40.81100082397461 80.7020034790039,19.097000122070312 C111.71600341796875,-5.732999801635742 136.3159942626953,-3.931999921798706 148.51699829101562,-12.670000076293945 C158.02999877929688,-19.482999801635742 156.30499267578125,-32.07500076293945 156.1269989013672,-32.56700134277344 C159.1199951171875,-30.06399917602539 161.3800048828125,-26.993999481201172 162.56500244140625,-23.297000885009766 C168.75399780273438,-3.99399995803833 148.1300048828125,2.125999927520752 132.95899963378906,8.253999710083008 C117.78399658203125,14.383000373840332 105.0270004272461,25.097000122070312 93.87699890136719,39.39699935913086z"/></g></g><g style="display: block;" transform="matrix(1.100000023841858,0,0,1.100000023841858,311.5810852050781,352.7881164550781)" opacity="0.7000000000000001"><g opacity="1" transform="matrix(1,0,0,1,0,0)"><path fill="rgb(255,215,93)" fill-opacity="1" d=" M43.249000549316406,-29.99799919128418 C39.90399932861328,-36.95600128173828 30.099000930786133,-38.43000030517578 6.459000110626221,-32.887001037597656 C-26.722000122070312,-25.107999801635742 -43.659000396728516,-7.184999942779541 -47.435001373291016,11.204999923706055 C-51.84600067138672,32.69300079345703 -36.46099853515625,39.0629997253418 -17.44499969482422,30.570999145507812 C-1.7860000133514404,23.577999114990234 5.370999813079834,10.923999786376953 14.243000030517578,1.4930000305175781 C27.65399932861328,-12.76200008392334 46.290000915527344,-23.672000885009766 43.249000549316406,-29.99799919128418z"/></g></g><g style="display: block;" transform="matrix(1.100000023841858,0,0,1.100000023841858,425.01751708984375,283.2229919433594)" opacity="1"><g opacity="1" transform="matrix(1,0,0,1,0,0)"><path fill="rgb(255,215,93)" fill-opacity="1" d=" M-15.220999717712402,-10.664999961853027 C-27.0049991607666,-5.386000156402588 -36.707000732421875,10.137999534606934 -26.266000747680664,13.663000106811523 C-17.69499969482422,16.55699920654297 -12.40999984741211,2.6010000705718994 9.723999977111816,3.5940001010894775 C22.202999114990234,4.1529998779296875 29.405000686645508,1.6160000562667847 30.549999237060547,-1.7929999828338623 C30.98699951171875,-3.0929999351501465 30.542999267578125,-4.520999908447266 29.173999786376953,-5.951000213623047 C27.86199951171875,-7.322999954223633 25.698999404907227,-8.696999549865723 22.64900016784668,-9.965999603271484 C11.602999687194824,-14.560999870300293 -3.437000036239624,-15.944999694824219 -15.220999717712402,-10.664999961853027z"/></g></g><g style="display: block;" transform="matrix(1.100000023841858,0,0,1.100000023841858,293.8590087890625,363.2590026855469)" opacity="1"><g opacity="1" transform="matrix(1,0,0,1,0,0)"><path stroke-linecap="round" stroke-linejoin="round" fill-opacity="0" stroke="rgb(225,124,0)" stroke-opacity="1" stroke-width="8" d=" M56.56999969482422,-52.900001525878906 C73.8219985961914,-50.52000045776367 87.27799987792969,-74.97799682617188 102.37300109863281,-82.93599700927734 C117.46800231933594,-90.8949966430664 153.4010009765625,-86.61499786376953 158.68499755859375,-66.67900085449219 C163.97000122070312,-46.744998931884766 147.5590057373047,-43.387001037597656 131.8300018310547,-37.95100021362305 C119.59400177001953,-33.20000076293945 110.0530014038086,-26.48900032043457 102.16300201416016,-19.141000747680664 C95.66200256347656,-13.086999893188477 90.28199768066406,-6.599999904632568 85.44000244140625,-0.41999998688697815 C72.96700286865234,16.479000091552734 67.88300323486328,23.613000869750977 49.99399948120117,48.70899963378906 C39.909000396728516,64.1050033569336 26.55500030517578,75.63899993896484 11.97700023651123,83.54000091552734"/></g></g><g style="display: block;" transform="matrix(1.100000023841858,0,0,1.100000023841858,293.8590087890625,363.2590026855469)" opacity="1"><g opacity="1" transform="matrix(1,0,0,1,0,0)"><path stroke-linecap="round" stroke-linejoin="round" fill-opacity="0" stroke="rgb(225,124,0)" stroke-opacity="1" stroke-width="8" d=" M11.97700023651123,83.54000091552734 C0.5410000085830688,89.73799896240234 -11.64900016784668,93.70099639892578 -23.604000091552734,95.54100036621094 C-50.189998626708984,99.63300323486328 -91.1520004272461,96.83699798583984 -118.86799621582031,71.8550033569336 C-151.85899353027344,42.119998931884766 -156.82899475097656,-27.280000686645508 -159.6959991455078,-53.75699996948242"/></g></g><g style="display: block;" transform="matrix(1.100000023841858,0,0,1.100000023841858,118.6510009765625,231.2270965576172)" opacity="1"><g opacity="1" transform="matrix(1,0,0,1,0,0)"><path stroke-linecap="round" stroke-linejoin="round" fill-opacity="0" stroke="rgb(225,124,0)" stroke-opacity="1" stroke-width="8" d=" M44.16400146484375,42.39899826049805 C39.42499923706055,44.334999084472656 28.40399932861328,26.402999877929688 17.992000579833984,5.885000228881836 C11.21500015258789,-7.46999979019165 4.695000171661377,-21.922000885009766 0.33399999141693115,-32.70399856567383 C-10.333000183105469,-55.54899978637695 -19.045000076293945,-70.32599639892578 -33.733001708984375,-65.28099822998047 C-49.21699905395508,-59.9630012512207 -44.847999572753906,-40.367000579833984 -37.36399841308594,-20.77400016784668 C-34.31700134277344,-12.795999526977539 -24.65999984741211,9.33899974822998 -18.031999588012695,22.398000717163086 C-9.682000160217285,38.849998474121094 -1.3329999446868896,55.0369987487793 -0.41499999165534973,66.26899719238281"/></g></g></g></svg>