<svg xmlns="http://www.w3.org/2000/svg" xmlns:xlink="http://www.w3.org/1999/xlink" viewBox="0 0 512 512" width="512" height="512" style="width: 100%; height: 100%; transform: translate3d(0,0,0);" preserveAspectRatio="xMidYMid meet"><defs><clipPath id="__lottie_element_37929"><rect width="512" height="512" x="0" y="0"/></clipPath><radialGradient id="__lottie_element_37935" spreadMethod="pad" gradientUnits="userSpaceOnUse" cx="155.5" cy="-53" r="52.55949010407159" fx="155.64685923762207" fy="-52.512880667264106"><stop offset="0%" stop-color="rgb(238,220,172)"/><stop offset="50%" stop-color="rgb(204,180,140)"/><stop offset="100%" stop-color="rgb(170,139,108)"/></radialGradient><radialGradient id="__lottie_element_37936" spreadMethod="pad" gradientUnits="userSpaceOnUse" cx="-19.636999130249023" cy="25.010000228881836" r="171.35134259557412" fx="0.759914452022084" fy="80.11242815765291"><stop offset="77%" stop-color="rgb(170,139,108)"/><stop offset="88%" stop-color="rgb(209,185,147)"/><stop offset="100%" stop-color="rgb(247,231,186)"/></radialGradient><mask id="__lottie_element_37938"><path fill="url(#__lottie_element_37937)" d=" M121.25,81.25 C120,48.5 123.76200103759766,38.784000396728516 119.72699737548828,35.61199951171875 C100.5,20.5 98.2020034790039,50.6879997253418 96.16200256347656,75.26899719238281 C93.79100036621094,103.83399963378906 87.16200256347656,129.93099975585938 64,137.5 C-12.5,162.5 -35,178.5 23,183 C129.3489990234375,191.25100708007812 121.75800323486328,94.54900360107422 121.25,81.25z"/></mask><radialGradient id="__lottie_element_37937" spreadMethod="pad" gradientUnits="userSpaceOnUse" cx="-19.636999130249023" cy="25.010000228881836" r="171.35134259557412" fx="0.759914452022084" fy="80.11242815765291"><stop stop-color="rgb(255,255,255)" offset="68%" stop-opacity="0"/><stop stop-color="rgb(255,255,255)" offset="84%" stop-opacity="0.5"/><stop stop-color="rgb(255,255,255)" offset="100%" stop-opacity="1"/></radialGradient><linearGradient id="__lottie_element_37939" spreadMethod="pad" gradientUnits="userSpaceOnUse" x1="107.5" y1="-5" x2="74.5" y2="-19"><stop offset="0%" stop-color="rgb(170,139,108)" stop-opacity="0"/><stop offset="50%" stop-color="rgb(135,107,83)" stop-opacity="0.5"/><stop offset="100%" stop-color="rgb(100,74,57)" stop-opacity="1"/></linearGradient><radialGradient id="__lottie_element_37940" spreadMethod="pad" gradientUnits="userSpaceOnUse" cx="43.5" cy="125.5" r="50.88446965091888" fx="62.120280083564836" fy="131.55105444579394"><stop offset="0%" stop-color="rgb(247,231,186)"/><stop offset="50%" stop-color="rgb(209,185,147)"/><stop offset="100%" stop-color="rgb(170,139,108)"/></radialGradient><mask id="__lottie_element_37942"><path fill="url(#__lottie_element_37941)" d=" M73.52799987792969,197.5709991455078 C93.10700225830078,182.38099670410156 96.30400085449219,128.51199340820312 87.9540023803711,109.3949966430664 C70.85800170898438,70.25399780273438 36.986000061035156,70.4469985961914 25.381000518798828,78.8030014038086 C12.880999565124512,87.8030014038086 13.156999588012695,134.7429962158203 23.198999404907227,152.19500732421875 C33.14699935913086,169.48300170898438 53.676998138427734,212.9720001220703 73.52799987792969,197.5709991455078z"/></mask><radialGradient id="__lottie_element_37941" spreadMethod="pad" gradientUnits="userSpaceOnUse" cx="43.5" cy="125.5" r="50.88446965091888" fx="62.120280083564836" fy="131.55105444579394"><stop stop-color="rgb(255,255,255)" offset="24%" stop-opacity="1"/><stop stop-color="rgb(255,255,255)" offset="62%" stop-opacity="0.5"/><stop stop-color="rgb(255,255,255)" offset="100%" stop-opacity="0"/></radialGradient><linearGradient id="__lottie_element_37943" spreadMethod="pad" gradientUnits="userSpaceOnUse" x1="-38.7859992980957" y1="107.5" x2="-38.99100112915039" y2="156"><stop offset="0%" stop-color="rgb(79,38,0)"/><stop offset="50%" stop-color="rgb(125,88,54)"/><stop offset="100%" stop-color="rgb(170,139,108)"/></linearGradient><mask id="__lottie_element_37945"><path fill="url(#__lottie_element_37944)" d=" M-30,99.5 C-58.5,103 -89.71299743652344,152.5 -89.71299743652344,152.5 C-89.71299743652344,152.5 -55.74800109863281,162.14100646972656 -13.303999900817871,152.18499755859375 C10.930999755859375,146.5 36.67100143432617,122.5 35.69300079345703,80 C33.93600082397461,3.6760001182556152 -9.628999710083008,96.99800109863281 -30,99.5z"/></mask><linearGradient id="__lottie_element_37944" spreadMethod="pad" gradientUnits="userSpaceOnUse" x1="-38.7859992980957" y1="107.5" x2="-38.99100112915039" y2="156"><stop stop-color="rgb(255,255,255)" offset="0%" stop-opacity="1"/><stop stop-color="rgb(255,255,255)" offset="65%" stop-opacity="0.5"/><stop stop-color="rgb(255,255,255)" offset="100%" stop-opacity="0"/></linearGradient><linearGradient id="__lottie_element_37946" spreadMethod="pad" gradientUnits="userSpaceOnUse" x1="-14.102999687194824" y1="134.5" x2="-67.19999694824219" y2="140"><stop offset="0%" stop-color="rgb(79,38,0)"/><stop offset="50%" stop-color="rgb(125,88,54)"/><stop offset="100%" stop-color="rgb(170,139,108)"/></linearGradient><mask id="__lottie_element_37948"><path fill="url(#__lottie_element_37947)" d=" M-32.82099914550781,96.5 C-61.32099914550781,100 -87.94999694824219,133.5 -87.94999694824219,133.5 C-87.94999694824219,133.5 -56.696998596191406,156.33999633789062 -16.829999923706055,147.68499755859375 C7.052000045776367,142.5 40.902000427246094,123.5 34.10599899291992,77 C23.065000534057617,1.4579999446868896 -12.449999809265137,93.99800109863281 -32.82099914550781,96.5z"/></mask><linearGradient id="__lottie_element_37947" spreadMethod="pad" gradientUnits="userSpaceOnUse" x1="-14.102999687194824" y1="134.5" x2="-67.19999694824219" y2="140"><stop stop-color="rgb(255,255,255)" offset="0%" stop-opacity="1"/><stop stop-color="rgb(255,255,255)" offset="65%" stop-opacity="0.5"/><stop stop-color="rgb(255,255,255)" offset="100%" stop-opacity="0"/></linearGradient><linearGradient id="__lottie_element_37949" spreadMethod="pad" gradientUnits="userSpaceOnUse" x1="108.5" y1="-40.5" x2="176.5" y2="-49"><stop offset="0%" stop-color="rgb(255,252,233)"/><stop offset="25%" stop-color="rgb(212,195,171)"/><stop offset="50%" stop-color="rgb(170,139,108)"/><stop offset="74%" stop-color="rgb(212,194,161)"/><stop offset="100%" stop-color="rgb(255,249,215)"/></linearGradient><mask id="__lottie_element_37951"><path fill="url(#__lottie_element_37950)" d=" M155.5,-82 C96,-74 67,4 75,57 C75.20500183105469,58.35599899291992 75.97100067138672,39.2239990234375 82.56800079345703,15.340999603271484 C91.18499755859375,-15.852999687194824 109.74800109863281,-55.15299987792969 150,-67.5 C190.75,-80 207.57200622558594,-30.97599983215332 207.25,-32.75 C205.25,-43.75 188.20599365234375,-86.39700317382812 155.5,-82z"/></mask><linearGradient id="__lottie_element_37950" spreadMethod="pad" gradientUnits="userSpaceOnUse" x1="108.5" y1="-40.5" x2="176.5" y2="-49"><stop stop-color="rgb(255,255,255)" offset="0%" stop-opacity="0.5"/><stop stop-color="rgb(255,255,255)" offset="25%" stop-opacity="0.25"/><stop stop-color="rgb(255,255,255)" offset="50%" stop-opacity="0"/><stop stop-color="rgb(255,255,255)" offset="75%" stop-opacity="0.4000000059604645"/><stop stop-color="rgb(255,255,255)" offset="100%" stop-opacity="0.800000011920929"/></linearGradient><linearGradient id="__lottie_element_37952" spreadMethod="pad" gradientUnits="userSpaceOnUse" x1="-152" y1="148" x2="-145.5" y2="159"><stop offset="0%" stop-color="rgb(186,172,133)" stop-opacity="1"/><stop offset="50%" stop-color="rgb(167,145,111)" stop-opacity="0.5"/><stop offset="100%" stop-color="rgb(148,118,89)" stop-opacity="0"/></linearGradient><linearGradient id="__lottie_element_37953" spreadMethod="pad" gradientUnits="userSpaceOnUse" x1="-111.93900299072266" y1="151.00100708007812" x2="-107.0260009765625" y2="175.92999267578125"><stop offset="0%" stop-color="rgb(96,70,43)"/><stop offset="78%" stop-color="rgb(121,91,64)"/><stop offset="100%" stop-color="rgb(145,111,85)"/></linearGradient><mask id="__lottie_element_37955"><path fill="url(#__lottie_element_37954)" d=" M25.5,70 C-18.767000198364258,40.24399948120117 -74.15899658203125,148.55499267578125 -109.25,154 C-152.75,160.75 -177.08299255371094,172.44000244140625 -176.1649932861328,174.5050048828125 C-173.82000732421875,179.781005859375 -132,165.5 -69.5999984741211,168.6219940185547 C-45.529998779296875,169.8260040283203 121.66899871826172,134.6439971923828 25.5,70z"/></mask><linearGradient id="__lottie_element_37954" spreadMethod="pad" gradientUnits="userSpaceOnUse" x1="-111.93900299072266" y1="151.00100708007812" x2="-107.0260009765625" y2="175.92999267578125"><stop stop-color="rgb(255,255,255)" offset="0%" stop-opacity="0.800000011920929"/><stop stop-color="rgb(255,255,255)" offset="50%" stop-opacity="0.4000000059604645"/><stop stop-color="rgb(255,255,255)" offset="100%" stop-opacity="0"/></linearGradient><linearGradient id="__lottie_element_37956" spreadMethod="pad" gradientUnits="userSpaceOnUse" x1="-35.2599983215332" y1="118" x2="-31.233999252319336" y2="144.5"><stop offset="0%" stop-color="rgb(39,9,0)"/><stop offset="50%" stop-color="rgb(92,61,43)"/><stop offset="100%" stop-color="rgb(145,112,86)"/></linearGradient><mask id="__lottie_element_37958"><path fill="url(#__lottie_element_37957)" d=" M-81.2509994506836,141.48399353027344 C-81.2509994506836,141.48399353027344 -55.86600112915039,149.64100646972656 -24.788000106811523,142.3509979248047 C-7.043000221252441,138.18899536132812 10.512999534606934,123.36100006103516 10.571000099182129,88.39900207519531 C10.663999557495117,32.5 -81.2509994506836,141.48399353027344 -81.2509994506836,141.48399353027344z"/></mask><linearGradient id="__lottie_element_37957" spreadMethod="pad" gradientUnits="userSpaceOnUse" x1="-35.2599983215332" y1="118" x2="-31.233999252319336" y2="144.5"><stop stop-color="rgb(255,255,255)" offset="0%" stop-opacity="1"/><stop stop-color="rgb(255,255,255)" offset="65%" stop-opacity="0.5"/><stop stop-color="rgb(255,255,255)" offset="100%" stop-opacity="0"/></linearGradient><linearGradient id="__lottie_element_37959" spreadMethod="pad" gradientUnits="userSpaceOnUse" x1="-88.50299835205078" y1="140.5" x2="17.072999954223633" y2="119"><stop offset="0%" stop-color="rgb(39,9,0)"/><stop offset="50%" stop-color="rgb(39,9,0)"/><stop offset="100%" stop-color="rgb(39,9,0)"/></linearGradient><mask id="__lottie_element_37961"><path fill="url(#__lottie_element_37960)" d=" M-34.33599853515625,126.8740005493164 C-29.267000198364258,125.25 -7.228000164031982,141.5 15.241000175476074,127.97100067138672 C42.959999084472656,111.28099822998047 -17.445999145507812,65.94499969482422 -41.56100082397461,74.60900115966797 C-69.60800170898438,84.68599700927734 -92.51100158691406,148.37600708007812 -73.48799896240234,148.4320068359375 C-50.5989990234375,148.5 -40.724998474121094,128.92100524902344 -34.33599853515625,126.8740005493164z"/></mask><linearGradient id="__lottie_element_37960" spreadMethod="pad" gradientUnits="userSpaceOnUse" x1="-88.50299835205078" y1="140.5" x2="17.072999954223633" y2="119"><stop stop-color="rgb(255,255,255)" offset="0%" stop-opacity="0"/><stop stop-color="rgb(255,255,255)" offset="25%" stop-opacity="0.5"/><stop stop-color="rgb(255,255,255)" offset="50%" stop-opacity="1"/><stop stop-color="rgb(255,255,255)" offset="82%" stop-opacity="0.5"/><stop stop-color="rgb(255,255,255)" offset="100%" stop-opacity="0"/></linearGradient><radialGradient id="__lottie_element_37962" spreadMethod="pad" gradientUnits="userSpaceOnUse" cx="165" cy="1.5" r="54.93462023168996" fx="164.6914251243575" fy="1.7544027911053854"><stop offset="0%" stop-color="rgb(91,64,44)"/><stop offset="77%" stop-color="rgb(130,101,76)"/><stop offset="100%" stop-color="rgb(170,139,108)"/></radialGradient><mask id="__lottie_element_37964"><path fill="url(#__lottie_element_37963)" d=" M209,-34.5 C209,-34.25 204.25,-2 160,-14.25 C132.25399780273438,-21.930999755859375 119.5,8.5 121,18.25 C121.25,18.25 131.4980010986328,-9.211999893188477 148.75,-3.5 C186.5,9 205.75,0.75 209,-34.5z"/></mask><radialGradient id="__lottie_element_37963" spreadMethod="pad" gradientUnits="userSpaceOnUse" cx="165" cy="1.5" r="54.93462023168996" fx="164.6914251243575" fy="1.7544027911053854"><stop stop-color="rgb(255,255,255)" offset="0%" stop-opacity="1"/><stop stop-color="rgb(255,255,255)" offset="53%" stop-opacity="0.5"/><stop stop-color="rgb(255,255,255)" offset="100%" stop-opacity="0"/></radialGradient><radialGradient id="__lottie_element_37965" spreadMethod="pad" gradientUnits="userSpaceOnUse" cx="-179.17599487304688" cy="173.75" r="14.83004827407995" fx="-179.2566416689007" fy="173.90446755566865"><stop offset="0%" stop-color="rgb(255,235,205)"/><stop offset="50%" stop-color="rgb(206,175,137)"/><stop offset="100%" stop-color="rgb(156,114,70)"/></radialGradient><linearGradient id="__lottie_element_37968" spreadMethod="pad" gradientUnits="userSpaceOnUse" x1="115.0260009765625" y1="-65.95500183105469" x2="116.05799865722656" y2="-148.49400329589844"><stop offset="0%" stop-color="rgb(206,182,142)"/><stop offset="50%" stop-color="rgb(175,146,109)"/><stop offset="100%" stop-color="rgb(144,110,77)"/></linearGradient><radialGradient id="__lottie_element_37969" spreadMethod="pad" gradientUnits="userSpaceOnUse" cx="150.08900451660156" cy="-74.92400360107422" r="39.329930469694496" fx="149.92732321155634" fy="-74.84730495881766"><stop offset="0%" stop-color="rgb(255,235,180)" stop-opacity="1"/><stop offset="50%" stop-color="rgb(239,219,169)" stop-opacity="0.5"/><stop offset="100%" stop-color="rgb(224,203,158)" stop-opacity="0"/></radialGradient><linearGradient id="__lottie_element_37970" spreadMethod="pad" gradientUnits="userSpaceOnUse" x1="143.99400329589844" y1="-170.552001953125" x2="144.0050048828125" y2="-184.22999572753906"><stop offset="0%" stop-color="rgb(0,0,0)"/><stop offset="50%" stop-color="rgb(128,128,128)"/><stop offset="100%" stop-color="rgb(255,255,255)"/></linearGradient><linearGradient id="__lottie_element_37974" spreadMethod="pad" gradientUnits="userSpaceOnUse" x1="208.8070068359375" y1="-25.57900047302246" x2="209.60899353027344" y2="1.5110000371932983"><stop offset="0%" stop-color="rgb(192,166,129)"/><stop offset="22%" stop-color="rgb(215,188,145)"/><stop offset="50%" stop-color="rgb(238,211,161)"/><stop offset="76%" stop-color="rgb(189,162,119)"/><stop offset="100%" stop-color="rgb(140,113,78)"/></linearGradient><mask id="__lottie_element_37976"><path fill="url(#__lottie_element_37975)" d=" M208.9040069580078,-29.31100082397461 C205.63099670410156,-31.56399917602539 201.8769989013672,-28.9950008392334 201.8769989013672,-28.9950008392334 C201.8769989013672,-28.9950008392334 199.14300537109375,-25.035999298095703 202.22500610351562,-23.170000076293945 C204.41900634765625,-21.840999603271484 204.30999755859375,-20.687000274658203 205.81300354003906,-17.94700050354004 C207.56100463867188,-14.758999824523926 208.31700134277344,-8.067999839782715 208.2469940185547,-4.894000053405762 C208.14700317382812,-0.32100000977516174 203.45899963378906,2.306999921798706 207.54100036621094,3.3529999256134033 C212.98399353027344,4.747000217437744 219.72799682617188,-2.4100000858306885 219.4010009765625,-9.369999885559082 C219.02999877929688,-17.274999618530273 216.0919952392578,-24.363000869750977 208.9040069580078,-29.31100082397461z"/></mask><linearGradient id="__lottie_element_37975" spreadMethod="pad" gradientUnits="userSpaceOnUse" x1="208.8070068359375" y1="-25.57900047302246" x2="209.60899353027344" y2="1.5110000371932983"><stop stop-color="rgb(255,255,255)" offset="0%" stop-opacity="0"/><stop stop-color="rgb(255,255,255)" offset="6%" stop-opacity="0.5"/><stop stop-color="rgb(255,255,255)" offset="11%" stop-opacity="1"/></linearGradient><linearGradient id="__lottie_element_37989" spreadMethod="pad" gradientUnits="userSpaceOnUse" x1="-230" y1="6.5" x2="62" y2="7.5"><stop offset="0%" stop-color="rgb(255,215,128)"/><stop offset="25%" stop-color="rgb(255,221,147)"/><stop offset="50%" stop-color="rgb(255,227,167)"/><stop offset="74%" stop-color="rgb(255,221,147)"/><stop offset="100%" stop-color="rgb(255,215,128)"/></linearGradient><mask id="__lottie_element_37991"><path fill="url(#__lottie_element_37990)" d=" M-82.75,-116.75 C-181.3780059814453,-109.19499969482422 -229.5,-27.5 -211.625,56.125 C-211.5469970703125,55.89099884033203 -219.5,1 -185.67100524902344,-48.606998443603516 C-160.0709991455078,-86.14800262451172 -118.10299682617188,-103.65599822998047 -83.01799774169922,-103.82099914550781 C-45,-104 -12.934000015258789,-89.2229995727539 6.182000160217285,-63.15700149536133 C47,-7.5 49.5,49 65,63.25 C67.99600219726562,66.00399780273438 38,-126 -82.75,-116.75z"/></mask><linearGradient id="__lottie_element_37990" spreadMethod="pad" gradientUnits="userSpaceOnUse" x1="-230" y1="6.5" x2="62" y2="7.5"><stop stop-color="rgb(255,255,255)" offset="0%" stop-opacity="0"/><stop stop-color="rgb(255,255,255)" offset="25%" stop-opacity="0.44999998807907104"/><stop stop-color="rgb(255,255,255)" offset="50%" stop-opacity="0.8999999761581421"/><stop stop-color="rgb(255,255,255)" offset="75%" stop-opacity="0.44999998807907104"/><stop stop-color="rgb(255,255,255)" offset="100%" stop-opacity="0"/></linearGradient><linearGradient id="__lottie_element_37992" spreadMethod="pad" gradientUnits="userSpaceOnUse" x1="-171.5" y1="7" x2="-22.5" y2="10.5"><stop offset="0%" stop-color="rgb(255,215,128)"/><stop offset="25%" stop-color="rgb(255,215,128)"/><stop offset="50%" stop-color="rgb(255,215,128)"/><stop offset="74%" stop-color="rgb(255,215,128)"/><stop offset="100%" stop-color="rgb(255,215,128)"/></linearGradient><mask id="__lottie_element_37994"><path fill="url(#__lottie_element_37993)" d=" M-68.00700378417969,-29.586000442504883 C-125.69100189208984,-62.91899871826172 -175.5,-4.5 -162.48699951171875,32.75199890136719 C-162.447998046875,32.62799835205078 -159,-26.75 -103.64299774169922,-27.468000411987305 C-61.49800109863281,-28.014999389648438 -37.5,10.5 -31.01099967956543,69.03700256347656 C-30.77899932861328,71.12699890136719 -22,-3 -68.00700378417969,-29.586000442504883z"/></mask><linearGradient id="__lottie_element_37993" spreadMethod="pad" gradientUnits="userSpaceOnUse" x1="-171.5" y1="7" x2="-22.5" y2="10.5"><stop stop-color="rgb(255,255,255)" offset="0%" stop-opacity="0"/><stop stop-color="rgb(255,255,255)" offset="25%" stop-opacity="0.4000000059604645"/><stop stop-color="rgb(255,255,255)" offset="50%" stop-opacity="0.800000011920929"/><stop stop-color="rgb(255,255,255)" offset="75%" stop-opacity="0.4000000059604645"/><stop stop-color="rgb(255,255,255)" offset="100%" stop-opacity="0"/></linearGradient><linearGradient id="__lottie_element_37995" spreadMethod="pad" gradientUnits="userSpaceOnUse" x1="12" y1="99" x2="49" y2="88.5"><stop offset="0%" stop-color="rgb(255,255,255)" stop-opacity="1"/><stop offset="50%" stop-color="rgb(234,181,128)" stop-opacity="0.8999999761581421"/><stop offset="100%" stop-color="rgb(212,106,0)" stop-opacity="0.800000011920929"/></linearGradient><radialGradient id="__lottie_element_37999" spreadMethod="pad" gradientUnits="userSpaceOnUse" cx="-0.5" cy="-0.25" r="19.97029043354152" fx="0.14991192443996348" fy="0.2902598068251451"><stop offset="0%" stop-color="rgb(75,37,5)"/><stop offset="50%" stop-color="rgb(75,37,5)"/><stop offset="100%" stop-color="rgb(75,37,5)"/></radialGradient><mask id="__lottie_element_38001"><path fill="url(#__lottie_element_38000)" d=" M0,-21.375 C10.831037521362305,-21.375 19.625,-11.796862602233887 19.625,0 C19.625,11.796862602233887 10.831037521362305,21.375 0,21.375 C-10.831037521362305,21.375 -19.625,11.796862602233887 -19.625,0 C-19.625,-11.796862602233887 -10.831037521362305,-21.375 0,-21.375z"/></mask><radialGradient id="__lottie_element_38000" spreadMethod="pad" gradientUnits="userSpaceOnUse" cx="-0.5" cy="-0.25" r="19.97029043354152" fx="0.14991192443996348" fy="0.2902598068251451"><stop stop-color="rgb(255,255,255)" offset="36%" stop-opacity="1"/><stop stop-color="rgb(255,255,255)" offset="68%" stop-opacity="0.5"/><stop stop-color="rgb(255,255,255)" offset="100%" stop-opacity="0"/></radialGradient><radialGradient id="__lottie_element_38008" spreadMethod="pad" gradientUnits="userSpaceOnUse" cx="-94.71800231933594" cy="32.83700180053711" r="64.37594331327736" fx="-94.71800231933594" fy="32.83700180053711"><stop offset="77%" stop-color="rgb(170,139,108)"/><stop offset="88%" stop-color="rgb(157,102,66)"/><stop offset="100%" stop-color="rgb(143,65,23)"/></radialGradient><mask id="__lottie_element_38010"><path fill="url(#__lottie_element_38009)" d=" M-97.06800079345703,87.9209976196289 C-88.88300323486328,83.75599670410156 -65.6510009765625,53.42100143432617 -84.71099853515625,19.365999221801758 C-86.19499969482422,16.71500015258789 -75.875,5.394000053405762 -70.08899688720703,-10.265000343322754 C-57.13199996948242,-45.33399963378906 -113.4729995727539,-40.15399932861328 -135.97999572753906,-26.006000518798828 C-199.96099853515625,14.213000297546387 -157.36300659179688,118.60399627685547 -97.06800079345703,87.9209976196289z"/></mask><radialGradient id="__lottie_element_38009" spreadMethod="pad" gradientUnits="userSpaceOnUse" cx="-94.71800231933594" cy="32.83700180053711" r="64.37594331327736" fx="-94.71800231933594" fy="32.83700180053711"><stop stop-color="rgb(255,255,255)" offset="68%" stop-opacity="0"/><stop stop-color="rgb(255,255,255)" offset="84%" stop-opacity="0.5"/><stop stop-color="rgb(255,255,255)" offset="100%" stop-opacity="1"/></radialGradient><radialGradient id="__lottie_element_38011" spreadMethod="pad" gradientUnits="userSpaceOnUse" cx="-117.27100372314453" cy="44.10900115966797" r="92.11949326490472" fx="-117.27100372314453" fy="44.10900115966797"><stop offset="68%" stop-color="rgb(170,139,108)"/><stop offset="81%" stop-color="rgb(157,102,66)"/><stop offset="100%" stop-color="rgb(143,65,23)"/></radialGradient><mask id="__lottie_element_38013"><path fill="url(#__lottie_element_38012)" d=" M-204.48699951171875,43.83300018310547 C-213.4929962158203,45.82500076293945 -224.64300537109375,35.654998779296875 -206.7519989013672,76.91100311279297 C-179.90499877929688,138.81700134277344 -117.27100372314453,160.7519989013672 -67.5,133.99000549316406 C-56.1510009765625,127.88700103759766 -21.548999786376953,111.74299621582031 -28.993999481201172,38.255001068115234 C-33.709999084472656,-8.293999671936035 -69.56300354003906,-29.21500015258789 -69.56300354003906,-29.21500015258789 C-69.56300354003906,-29.21500015258789 -101.98500061035156,-51.362998962402344 -132.4720001220703,-28.94700050354004 C-216.5,32.83599853515625 -124.31500244140625,101.90699768066406 -133.87399291992188,87.62799835205078 C-165.6320037841797,40.1879997253418 -178.91299438476562,36.268001556396484 -204.48699951171875,43.83300018310547z"/></mask><radialGradient id="__lottie_element_38012" spreadMethod="pad" gradientUnits="userSpaceOnUse" cx="-117.27100372314453" cy="44.10900115966797" r="92.11949326490472" fx="-117.27100372314453" fy="44.10900115966797"><stop stop-color="rgb(255,255,255)" offset="68%" stop-opacity="0"/><stop stop-color="rgb(255,255,255)" offset="80%" stop-opacity="0.5"/><stop stop-color="rgb(255,255,255)" offset="100%" stop-opacity="1"/></radialGradient><radialGradient id="__lottie_element_38014" spreadMethod="pad" gradientUnits="userSpaceOnUse" cx="-113.75" cy="14.5" r="70.84137209286675" fx="-136.3685416876241" fy="44.96295554300438"><stop offset="52%" stop-color="rgb(170,139,108)"/><stop offset="64%" stop-color="rgb(157,102,66)"/><stop offset="75%" stop-color="rgb(143,65,23)"/><stop offset="88%" stop-color="rgb(100,40,11)"/><stop offset="100%" stop-color="rgb(58,15,0)"/></radialGradient><mask id="__lottie_element_38016"><path fill="url(#__lottie_element_38015)" d=" M-166.75,42.284000396728516 C-166.61300659179688,39.676998138427734 -178,93.16899871826172 -114.5,92.5 C-75.50199890136719,92.08899688720703 -74.5,56.58700180053711 -81.43000030517578,43.040000915527344 C-81.73799896240234,42.4370002746582 -80.85900115966797,36.874000549316406 -86.56900024414062,43.8129997253418 C-91.11799621582031,49.34000015258789 -103.37799835205078,59.369998931884766 -117.94400024414062,59.45500183105469 C-151.5,59.650001525878906 -167.5,56.58700180053711 -166.75,42.284000396728516z"/></mask><radialGradient id="__lottie_element_38015" spreadMethod="pad" gradientUnits="userSpaceOnUse" cx="-113.75" cy="14.5" r="70.84137209286675" fx="-136.3685416876241" fy="44.96295554300438"><stop stop-color="rgb(255,255,255)" offset="52%" stop-opacity="0"/><stop stop-color="rgb(255,255,255)" offset="63%" stop-opacity="0.5"/><stop stop-color="rgb(255,255,255)" offset="100%" stop-opacity="1"/></radialGradient><radialGradient id="__lottie_element_38017" spreadMethod="pad" gradientUnits="userSpaceOnUse" cx="-92" cy="33" r="105.04284840006957" fx="-92" fy="33"><stop offset="0%" stop-color="rgb(103,39,0)"/><stop offset="50%" stop-color="rgb(162,113,63)"/><stop offset="100%" stop-color="rgb(220,188,125)"/></radialGradient><mask id="__lottie_element_38019"><path fill="url(#__lottie_element_38018)" d=" M-118.5,-87 C-175,-78.5 -223,-28.5 -210.5,46 C-198.87399291992188,115.29199981689453 -100.5,125.5 -81.75,78.5 C-81.83300018310547,78.41699981689453 -87.53800201416016,88.19200134277344 -98.46700286865234,92.09100341796875 C-120.58899688720703,99.98300170898438 -159.64300537109375,97.73500061035156 -165.5,38.5 C-170.96099853515625,-16.731000900268555 -140.4010009765625,-35.37200164794922 -105.5,-39.25 C-60.5,-44.25 -29.75,2.5 -27.5,39 C-24.73699951171875,83.81800079345703 -33.875,106.25 -33.875,106.25 C-33.875,106.25 14.5,148 22.5,44.5 C29.73200035095215,-49.0629997253418 -62,-95.5 -118.5,-87z"/></mask><radialGradient id="__lottie_element_38018" spreadMethod="pad" gradientUnits="userSpaceOnUse" cx="-92" cy="33" r="105.04284840006957" fx="-92" fy="33"><stop stop-color="rgb(255,255,255)" offset="0%" stop-opacity="1"/><stop stop-color="rgb(255,255,255)" offset="74%" stop-opacity="0.5"/><stop stop-color="rgb(255,255,255)" offset="100%" stop-opacity="0"/></radialGradient><radialGradient id="__lottie_element_38020" spreadMethod="pad" gradientUnits="userSpaceOnUse" cx="-98.5" cy="38" r="53.688918782184466" fx="-98.5" fy="38"><stop offset="42%" stop-color="rgb(103,39,0)"/><stop offset="71%" stop-color="rgb(161,114,64)"/><stop offset="100%" stop-color="rgb(220,190,128)"/></radialGradient><mask id="__lottie_element_38022"><path fill="url(#__lottie_element_38021)" d=" M-111.34200286865234,-36.21799850463867 C-151.25,-29 -165.85899353027344,8.529000282287598 -164.11500549316406,21.115999221801758 C-163.75,23.75 -135.75,22 -123.24500274658203,27.999000549316406 C-120.53399658203125,29.299999237060547 -124.5,12.5 -105.81300354003906,10.190999984741211 C-87.14099884033203,7.883999824523926 -78.78900146484375,24.516000747680664 -78.4010009765625,39.707000732421875 C-77.5,75 -96.05000305175781,89.1510009765625 -96.05000305175781,89.1510009765625 C-96.05000305175781,89.1510009765625 -53.5,115.5 -44.625,46.492000579833984 C-39.6510009765625,7.815999984741211 -75.927001953125,-42.62300109863281 -111.34200286865234,-36.21799850463867z"/></mask><radialGradient id="__lottie_element_38021" spreadMethod="pad" gradientUnits="userSpaceOnUse" cx="-98.5" cy="38" r="53.688918782184466" fx="-98.5" fy="38"><stop stop-color="rgb(255,255,255)" offset="0%" stop-opacity="1"/><stop stop-color="rgb(255,255,255)" offset="95%" stop-opacity="0.5"/><stop stop-color="rgb(255,255,255)" offset="100%" stop-opacity="0"/></radialGradient><radialGradient id="__lottie_element_38023" spreadMethod="pad" gradientUnits="userSpaceOnUse" cx="-81" cy="17.5" r="124.28696633195293" fx="-81" fy="17.5"><stop offset="63%" stop-color="rgb(170,139,108)"/><stop offset="82%" stop-color="rgb(157,102,66)"/><stop offset="100%" stop-color="rgb(143,65,23)"/></radialGradient><mask id="__lottie_element_38025"><path fill="url(#__lottie_element_38024)" d=" M-67,-115 C-149,-123.5 -190,-62 -203.25,-34 C-215.8730010986328,-7.324999809265137 -214.16900634765625,12.859999656677246 -215.75,25.59600067138672 C-217.39300537109375,38.82400131225586 -219.01699829101562,57.65700149536133 -213.7010040283203,55.02299880981445 C-206.6959991455078,51.551998138427734 -188,39 -138.06199645996094,39.76599884033203 C-110.71099853515625,40.18600082397461 -17.690000534057617,-76.427001953125 -7,-22.5 C9.75,62 -23.875,75.75 -23.875,75.75 C-23.875,75.75 6,77.5 23.5,69.25 C38.88399887084961,61.99800109863281 52,52.5 58.75,39.5 C60.731998443603516,35.68299865722656 51.875,-9.125 32.25,-43.5 C18.812999725341797,-67.03600311279297 -6.820000171661377,-108.76200103759766 -67,-115z"/></mask><radialGradient id="__lottie_element_38024" spreadMethod="pad" gradientUnits="userSpaceOnUse" cx="-81" cy="17.5" r="124.28696633195293" fx="-81" fy="17.5"><stop stop-color="rgb(255,255,255)" offset="79%" stop-opacity="0"/><stop stop-color="rgb(255,255,255)" offset="89%" stop-opacity="0.5"/><stop stop-color="rgb(255,255,255)" offset="100%" stop-opacity="1"/></radialGradient><radialGradient id="__lottie_element_38026" spreadMethod="pad" gradientUnits="userSpaceOnUse" cx="66.5" cy="49" r="88.56212508742098" fx="66.5" fy="49"><stop offset="0%" stop-color="rgb(58,24,7)" stop-opacity="1"/><stop offset="50%" stop-color="rgb(100,45,15)" stop-opacity="0.5"/><stop offset="100%" stop-color="rgb(143,65,23)" stop-opacity="0"/></radialGradient><radialGradient id="__lottie_element_38027" spreadMethod="pad" gradientUnits="userSpaceOnUse" cx="-117" cy="45.5" r="97.0012886512339" fx="-117" fy="45.5"><stop offset="53%" stop-color="rgb(151,80,38)"/><stop offset="91%" stop-color="rgb(113,58,21)"/><stop offset="100%" stop-color="rgb(75,37,5)"/></radialGradient><mask id="__lottie_element_38029"><path fill="url(#__lottie_element_38028)" d=" M-214.25,24.75 C-214.25,24.75 -214,82.5 -167.08200073242188,116.38700103759766 C-149.3249969482422,129.21299743652344 -119.05599975585938,138.30099487304688 -91.25,129.25 C-27.5,108.5 -29.5,40 -29.5,40 C-29.5,40 -25.920000076293945,68.0469970703125 -33.29499816894531,94.9229965209961 C-41,123 -63.09299850463867,141.5070037841797 -88.25,146.5 C-121,153 -158.09300231933594,146.1179962158203 -181.91600036621094,121.16899871826172 C-226,75 -214.25,24.75 -214.25,24.75z"/></mask><radialGradient id="__lottie_element_38028" spreadMethod="pad" gradientUnits="userSpaceOnUse" cx="-117" cy="45.5" r="97.0012886512339" fx="-117" fy="45.5"><stop stop-color="rgb(255,255,255)" offset="75%" stop-opacity="0"/><stop stop-color="rgb(255,255,255)" offset="92%" stop-opacity="0.4000000059604645"/><stop stop-color="rgb(255,255,255)" offset="100%" stop-opacity="0.800000011920929"/></radialGradient><linearGradient id="__lottie_element_38030" spreadMethod="pad" gradientUnits="userSpaceOnUse" x1="-14.5" y1="74.5" x2="60.5" y2="62.5"><stop offset="0%" stop-color="rgb(224,188,97)"/><stop offset="16%" stop-color="rgb(224,188,97)"/><stop offset="44%" stop-color="rgb(224,188,97)"/><stop offset="58%" stop-color="rgb(184,126,60)"/><stop offset="73%" stop-color="rgb(143,65,23)"/><stop offset="85%" stop-color="rgb(116,43,11)"/><stop offset="100%" stop-color="rgb(88,21,0)"/></linearGradient><mask id="__lottie_element_38032"><path fill="url(#__lottie_element_38031)" d=" M34,-38.5 C31.364999771118164,-44.62799835205078 17.135000228881836,-23.660999298095703 3.010999917984009,-8.972000122070312 C-21,16 -33.90399932861328,15.013999938964844 -32.5,22.5 C-25,62.5 -33.5,97.5 -35,103 C-36.5,108.5 11.5,128.5 37,124 C77.48699951171875,116.8550033569336 77,61.5 34,-38.5z"/></mask><linearGradient id="__lottie_element_38031" spreadMethod="pad" gradientUnits="userSpaceOnUse" x1="-14.5" y1="74.5" x2="60.5" y2="62.5"><stop stop-color="rgb(255,255,255)" offset="0%" stop-opacity="0"/><stop stop-color="rgb(255,255,255)" offset="22%" stop-opacity="0.3499999940395355"/><stop stop-color="rgb(255,255,255)" offset="43%" stop-opacity="0.699999988079071"/><stop stop-color="rgb(255,255,255)" offset="72%" stop-opacity="0.8500000238418579"/><stop stop-color="rgb(255,255,255)" offset="100%" stop-opacity="1"/></linearGradient><radialGradient id="__lottie_element_38033" spreadMethod="pad" gradientUnits="userSpaceOnUse" cx="-91" cy="-87" r="33.66767358429659" fx="-91" fy="-87"><stop offset="0%" stop-color="rgb(255,242,184)" stop-opacity="1"/><stop offset="50%" stop-color="rgb(239,215,141)" stop-opacity="0.5"/><stop offset="100%" stop-color="rgb(224,188,97)" stop-opacity="0"/></radialGradient><radialGradient id="__lottie_element_38034" spreadMethod="pad" gradientUnits="userSpaceOnUse" cx="-85.5" cy="48" r="97.29337079164233" fx="-85.5" fy="48"><stop offset="0%" stop-color="rgb(103,39,0)"/><stop offset="50%" stop-color="rgb(116,58,13)"/><stop offset="100%" stop-color="rgb(130,78,26)"/></radialGradient><mask id="__lottie_element_38036"><path fill="url(#__lottie_element_38035)" d=" M15.583999633789062,-3.5840001106262207 C-1.2319999933242798,-58.18899917602539 -102,-63.5 -123.45600128173828,-38.749000549316406 C-123.45700073242188,-38.86600112915039 -62,-50 -38.05699920654297,8.428000450134277 C-20.715999603271484,50.74399948120117 -34.83399963378906,104.81500244140625 -34.83399963378906,104.81500244140625 C-34.83399963378906,104.81500244140625 67.5,165 15.583999633789062,-3.5840001106262207z"/></mask><radialGradient id="__lottie_element_38035" spreadMethod="pad" gradientUnits="userSpaceOnUse" cx="-85.5" cy="48" r="97.29337079164233" fx="-85.5" fy="48"><stop stop-color="rgb(255,255,255)" offset="0%" stop-opacity="1"/><stop stop-color="rgb(255,255,255)" offset="81%" stop-opacity="0.5"/><stop stop-color="rgb(255,255,255)" offset="100%" stop-opacity="0"/></radialGradient><linearGradient id="__lottie_element_38043" spreadMethod="pad" gradientUnits="userSpaceOnUse" x1="167" y1="132" x2="97" y2="124"><stop offset="0%" stop-color="rgb(163,123,97)"/><stop offset="50%" stop-color="rgb(116,83,61)"/><stop offset="100%" stop-color="rgb(69,42,25)"/></linearGradient><linearGradient id="__lottie_element_38047" spreadMethod="pad" gradientUnits="userSpaceOnUse"><stop/><stop/><stop/></linearGradient><mask id="__lottie_element_38049"><path fill="url(#__lottie_element_38048)"/></mask><linearGradient id="__lottie_element_38048" spreadMethod="pad" gradientUnits="userSpaceOnUse"><stop stop-color="rgb(255,255,255)"/><stop stop-color="rgb(255,255,255)"/><stop stop-color="rgb(255,255,255)"/></linearGradient><linearGradient id="__lottie_element_38053" spreadMethod="pad" gradientUnits="userSpaceOnUse" x1="165" y1="-73.5" x2="174.75" y2="-130.75"><stop offset="0%" stop-color="rgb(209,185,144)"/><stop offset="50%" stop-color="rgb(186,159,121)"/><stop offset="100%" stop-color="rgb(164,133,99)"/></linearGradient><radialGradient id="__lottie_element_38054" spreadMethod="pad" gradientUnits="userSpaceOnUse" cx="242.8820037841797" cy="-68.02899932861328" r="30.81418894007094" fx="242.83331663974653" fy="-68.16047891075917"><stop offset="0%" stop-color="rgb(255,235,180)" stop-opacity="1"/><stop offset="50%" stop-color="rgb(239,219,169)" stop-opacity="0.5"/><stop offset="100%" stop-color="rgb(224,203,158)" stop-opacity="0"/></radialGradient><linearGradient id="__lottie_element_38055" spreadMethod="pad" gradientUnits="userSpaceOnUse" x1="181.36900329589844" y1="-156.677001953125" x2="182.1300048828125" y2="-169.72999572753906"><stop offset="0%" stop-color="rgb(0,0,0)"/><stop offset="50%" stop-color="rgb(128,128,128)"/><stop offset="100%" stop-color="rgb(255,255,255)"/></linearGradient><linearGradient id="__lottie_element_38059" spreadMethod="pad" gradientUnits="userSpaceOnUse" x1="209.61700439453125" y1="-14.694000244140625" x2="215.7790069580078" y2="-15.104000091552734"><stop offset="0%" stop-color="rgb(109,80,57)"/><stop offset="50%" stop-color="rgb(145,116,87)"/><stop offset="100%" stop-color="rgb(181,152,118)"/></linearGradient></defs><g clip-path="url(#__lottie_element_37929)"><g style="display: block;" transform="matrix(0.9969854354858398,0.07758909463882446,-0.07758909463882446,0.9969854354858398,254.91761779785156,251.61378479003906)" opacity="1"><g opacity="1" transform="matrix(1,0,0,1,0,0)"><path fill="url(#__lottie_element_38059)" fill-opacity="1" d=" M207.5290069580078,-33.314998626708984 C187.68499755859375,-42.78900146484375 188.14700317382812,-37.51499938964844 198.6230010986328,-28.399999618530273 C207.60299682617188,-20.586999893188477 207.50399780273438,-13.230999946594238 206.89300537109375,-8.232000350952148 C205.09500122070312,6.480000019073486 216.06100463867188,2.747999906539917 217.33599853515625,-5.651000022888184 C218.7050018310547,-14.664999961853027 219.802001953125,-27.45599937438965 207.5290069580078,-33.314998626708984z"/><path stroke-linecap="round" stroke-linejoin="round" fill-opacity="0" stroke="rgb(108,82,60)" stroke-opacity="1" stroke-width="8" d=" M207.5290069580078,-33.314998626708984 C187.68499755859375,-42.78900146484375 188.14700317382812,-37.51499938964844 198.6230010986328,-28.399999618530273 C207.60299682617188,-20.586999893188477 207.50399780273438,-13.230999946594238 206.89300537109375,-8.232000350952148 C205.09500122070312,6.480000019073486 216.06100463867188,2.747999906539917 217.33599853515625,-5.651000022888184 C218.7050018310547,-14.664999961853027 219.802001953125,-27.45599937438965 207.5290069580078,-33.314998626708984z"/></g></g><g style="display: block;" transform="matrix(1,0,0,1,256,269)" opacity="1"><g opacity="1" transform="matrix(1,0,0,1,0,0)"><path fill="url(#__lottie_element_38053)" fill-opacity="1" d=" M157.5,-81 C157.5,-81 166.83999633789062,-104.52400207519531 168.75,-116.75 C171.25,-132.75 164.75,-135 167.42100524902344,-152.0970001220703 C170.1510009765625,-169.572998046875 180.08599853515625,-175.62100219726562 184.55099487304688,-174.68899536132812 C190.25,-173.5 195.19900512695312,-164.11500549316406 192.91099548339844,-149.27000427246094 C190.25,-132 180.5,-131.5 177,-115.875 C173.88900756835938,-101.98600006103516 176.75,-94.25 175.75,-82"/><path stroke-linecap="round" stroke-linejoin="miter" fill-opacity="0" stroke-miterlimit="4" stroke="rgb(143,110,85)" stroke-opacity="1" stroke-width="7" d=" M157.5,-81 C157.5,-81 166.83999633789062,-104.52400207519531 168.75,-116.75 C171.25,-132.75 164.75,-135 167.42100524902344,-152.0970001220703 C170.1510009765625,-169.572998046875 180.08599853515625,-175.62100219726562 184.55099487304688,-174.68899536132812 C190.25,-173.5 195.19900512695312,-164.11500549316406 192.91099548339844,-149.27000427246094 C190.25,-132 180.5,-131.5 177,-115.875 C173.88900756835938,-101.98600006103516 176.75,-94.25 175.75,-82"/></g><g opacity="1" transform="matrix(0.27961626648902893,0.01465406734496355,-0.061756424605846405,1.1783827543258667,94.51358032226562,0.64605712890625)"><path fill="url(#__lottie_element_38054)" fill-opacity="1" d=" M267.2720031738281,-110.8949966430664 C244.39300537109375,-110.18599700927734 268.3559875488281,-106.46199798583984 226.78599548339844,-78.20899963378906 C216.77499389648438,-71.40499877929688 197.1179962158203,-44.62900161743164 266.7049865722656,-47.04100036621094 C301.24700927734375,-48.237998962402344 267.3139953613281,-62.393001556396484 262.0769958496094,-81.21299743652344 C254.53700256347656,-108.30599975585938 282.72698974609375,-111.3740005493164 267.2720031738281,-110.8949966430664z"/></g><g opacity="1" transform="matrix(1,0,0,1,0,0)"><path stroke-linecap="round" stroke-linejoin="miter" fill-opacity="0" stroke-miterlimit="4" stroke="rgb(143,110,85)" stroke-opacity="1" stroke-width="7" d=" M157.5,-81 C157.5,-81 166.83999633789062,-104.52400207519531 168.75,-116.75 C171.25,-132.75 164.75,-135 167.42100524902344,-152.0970001220703 C170.1510009765625,-169.572998046875 180.08599853515625,-175.62100219726562 184.55099487304688,-174.68899536132812 C190.25,-173.5 195.19900512695312,-164.11500549316406 192.91099548339844,-149.27000427246094 C190.25,-132 180.5,-131.5 177,-115.875 C173.88900756835938,-101.98600006103516 176.75,-94.25 175.75,-82"/></g><g opacity="0.5" transform="matrix(1,0,0,1,0,0)"><path fill="rgb(234,211,173)" fill-opacity="1" d=" M181.81100463867188,-166.20399475097656 C177.0749969482422,-166.92599487304688 170.91099548339844,-162.2469940185547 169.7790069580078,-153.1230010986328 C168.64700317382812,-143.99899291992188 168.5,-130.5749969482422 176.41000366210938,-128.73300170898438 C186,-126.5 191.0679931640625,-143.36000061035156 191.38600158691406,-153.28900146484375 C191.6219940185547,-160.6649932861328 186.06100463867188,-165.55599975585938 181.81100463867188,-166.20399475097656z"/></g><g opacity="1" transform="matrix(1,0,0,1,0,0)"><path fill="rgb(11,6,0)" fill-opacity="1" d=" M184.6490020751953,-170.73300170898438 C179.447998046875,-171.97900390625 173.32899475097656,-168.18899536132812 170.56199645996094,-154.1719970703125 C167.61399841308594,-139.23899841308594 173.0019989013672,-133.26300048828125 176.6219940185547,-132.3040008544922 C181.88699340820312,-130.90899658203125 188.73800659179688,-136.71600341796875 190.9320068359375,-149.56900024414062 C193.02099609375,-161.80499267578125 189.65199279785156,-169.53399658203125 184.6490020751953,-170.73300170898438z"/></g><g opacity="1" transform="matrix(1,0,0,1,0,0)"><path fill="url(#__lottie_element_38055)" fill-opacity="1" d=" M183.8560028076172,-167.87100219726562 C181.13999938964844,-168.34300231933594 180.0489959716797,-165.33399963378906 179.42999267578125,-161.77000427246094 C178.88900756835938,-158.656005859375 179.4409942626953,-155.5800018310547 181.3000030517578,-155.09100341796875 C183.5399932861328,-154.5019989013672 185.15699768066406,-157.2310028076172 185.68600463867188,-160.60899353027344 C186.21499633789062,-163.98699951171875 186.2570037841797,-167.45399475097656 183.8560028076172,-167.87100219726562z"/></g></g><g style="display: block;" transform="matrix(1,0,0,1,256,271)" opacity="1"><g opacity="1" transform="matrix(1,0,0,1,0,0)"><path fill="url(#__lottie_element_38043)" fill-opacity="1" d=" M154.5,-49 C154.5,-49 95.5,-66.5 86,48 C76.5,162.5 -1.5,169 -1.5,169 C-1.5,169 77.5,181 116.85299682617188,173.20799255371094 C129.0970001220703,170.78399658203125 149.23599243164062,162.2259979248047 144,129.5 C138,92 135.4340057373047,67.16799926757812 137.5,53 C141,29 149.5,4 163,-2 C183.80799865722656,-11.248000144958496 154.5,-49 154.5,-49z"/><path stroke-linecap="butt" stroke-linejoin="miter" fill-opacity="0" stroke-miterlimit="4" stroke="rgb(92,58,40)" stroke-opacity="1" stroke-width="8" d=" M154.5,-49 C154.5,-49 95.5,-66.5 86,48 C76.5,162.5 -1.5,169 -1.5,169 C-1.5,169 77.5,181 116.85299682617188,173.20799255371094 C129.0970001220703,170.78399658203125 149.23599243164062,162.2259979248047 144,129.5 C138,92 135.4340057373047,67.16799926757812 137.5,53 C141,29 149.5,4 163,-2 C183.80799865722656,-11.248000144958496 154.5,-49 154.5,-49z"/></g></g><g style="display: block;" transform="matrix(1,0,0,1,256,268.5)" opacity="1"><g opacity="1" transform="matrix(1,0,0,1,0,0)"><path fill="url(#__lottie_element_37935)" fill-opacity="1" d=" M155.5,-83.5 C115.5,-83 68,-22.5 68.5,42 C68.93499755859375,98.0790023803711 63,117.5 -13,117.5 C-89,117.5 -197.07000732421875,162.64999389648438 -184.38699340820312,171.91900634765625 C-172.45599365234375,180.63699340820312 -178.0229949951172,171.72000122070312 -77.5,173 C1,174 34,201 83,174 C137.05599975585938,144.21400451660156 117,53.5 124,21 C128.6750030517578,-0.7059999704360962 140.78799438476562,-2.071000099182129 162.5,2 C194.5,8 221,-17.5 204.5,-45 C197.13400268554688,-57.277000427246094 189.01199340820312,-83.91899871826172 155.5,-83.5z"/></g><g opacity="1" transform="matrix(1,0,0,1,0,0)"><path fill="url(#__lottie_element_37936)" mask="url(#__lottie_element_37938)" fill-opacity="1" d="M0 0 M121.25,81.25 C120,48.5 123.76200103759766,38.784000396728516 119.72699737548828,35.61199951171875 C100.5,20.5 98.2020034790039,50.6879997253418 96.16200256347656,75.26899719238281 C93.79100036621094,103.83399963378906 87.16200256347656,129.93099975585938 64,137.5 C-12.5,162.5 -35,178.5 23,183 C129.3489990234375,191.25100708007812 121.75800323486328,94.54900360107422 121.25,81.25z"/></g><g opacity="1" transform="matrix(1,0,0,1,0,0)"><path fill="url(#__lottie_element_37939)" fill-opacity="1" d=" M67.31199645996094,64.77799987792969 C70.56900024414062,96.16100311279297 85.5,119 92.51599884033203,79.24400329589844 C97.49700164794922,51.016998291015625 97.3030014038086,37.534000396728516 110.25900268554688,16.89699935913086 C137.42300415039062,-26.371000289916992 150.5,-94 112.1729965209961,-61.595001220703125 C63.694000244140625,-20.606000900268555 65,42.5 67.31199645996094,64.77799987792969z"/></g><g opacity="0.8" transform="matrix(0.8713758587837219,1.0760595798492432,-0.5589933395385742,0.4526638686656952,81.01298522949219,0.13512420654296875)"><path fill="url(#__lottie_element_37940)" mask="url(#__lottie_element_37942)" fill-opacity="1" d="M0 0 M73.52799987792969,197.5709991455078 C93.10700225830078,182.38099670410156 96.30400085449219,128.51199340820312 87.9540023803711,109.3949966430664 C70.85800170898438,70.25399780273438 36.986000061035156,70.4469985961914 25.381000518798828,78.8030014038086 C12.880999565124512,87.8030014038086 13.156999588012695,134.7429962158203 23.198999404907227,152.19500732421875 C33.14699935913086,169.48300170898438 53.676998138427734,212.9720001220703 73.52799987792969,197.5709991455078z"/></g><g opacity="0.5" transform="matrix(1.4180099964141846,0,0,1,17,1.5)"><path fill="url(#__lottie_element_37943)" mask="url(#__lottie_element_37945)" fill-opacity="1" d="M0 0 M-30,99.5 C-58.5,103 -89.71299743652344,152.5 -89.71299743652344,152.5 C-89.71299743652344,152.5 -55.74800109863281,162.14100646972656 -13.303999900817871,152.18499755859375 C10.930999755859375,146.5 36.67100143432617,122.5 35.69300079345703,80 C33.93600082397461,3.6760001182556152 -9.628999710083008,96.99800109863281 -30,99.5z"/></g><g opacity="0.6" transform="matrix(1.4180099964141846,0,0,1,17,1.5)"><path fill="url(#__lottie_element_37946)" mask="url(#__lottie_element_37948)" fill-opacity="1" d="M0 0 M-32.82099914550781,96.5 C-61.32099914550781,100 -87.94999694824219,133.5 -87.94999694824219,133.5 C-87.94999694824219,133.5 -56.696998596191406,156.33999633789062 -16.829999923706055,147.68499755859375 C7.052000045776367,142.5 40.902000427246094,123.5 34.10599899291992,77 C23.065000534057617,1.4579999446868896 -12.449999809265137,93.99800109863281 -32.82099914550781,96.5z"/></g><g opacity="0.3" transform="matrix(1,0,0,1,-2.5,-0.5)"><path fill="url(#__lottie_element_37949)" mask="url(#__lottie_element_37951)" fill-opacity="1" d="M0 0 M155.5,-82 C96,-74 67,4 75,57 C75.20500183105469,58.35599899291992 75.97100067138672,39.2239990234375 82.56800079345703,15.340999603271484 C91.18499755859375,-15.852999687194824 109.74800109863281,-55.15299987792969 150,-67.5 C190.75,-80 207.57200622558594,-30.97599983215332 207.25,-32.75 C205.25,-43.75 188.20599365234375,-86.39700317382812 155.5,-82z"/></g><g opacity="1" transform="matrix(1,0,0,1,0,0)"><path fill="url(#__lottie_element_37952)" fill-opacity="1" d=" M-129.5,139 C-209,169.5 -184,178 -123.5,154.5 C-67.31900024414062,132.67799377441406 -50,108.5 -129.5,139z"/></g><g opacity="0.9" transform="matrix(0.9998477101325989,-0.017452405765652657,0.017452405765652657,0.9998477101325989,0,0)"><path fill="url(#__lottie_element_37953)" mask="url(#__lottie_element_37955)" fill-opacity="1" d="M0 0 M25.5,70 C-18.767000198364258,40.24399948120117 -74.15899658203125,148.55499267578125 -109.25,154 C-152.75,160.75 -177.08299255371094,172.44000244140625 -176.1649932861328,174.5050048828125 C-173.82000732421875,179.781005859375 -132,165.5 -69.5999984741211,168.6219940185547 C-45.529998779296875,169.8260040283203 121.66899871826172,134.6439971923828 25.5,70z"/></g><g opacity="0.4" transform="matrix(1.4180099964141846,0,0,1,17,1.5)"><path fill="url(#__lottie_element_37956)" mask="url(#__lottie_element_37958)" fill-opacity="1" d="M0 0 M-81.2509994506836,141.48399353027344 C-81.2509994506836,141.48399353027344 -55.86600112915039,149.64100646972656 -24.788000106811523,142.3509979248047 C-7.043000221252441,138.18899536132812 10.512999534606934,123.36100006103516 10.571000099182129,88.39900207519531 C10.663999557495117,32.5 -81.2509994506836,141.48399353027344 -81.2509994506836,141.48399353027344z"/></g><g opacity="0.6" transform="matrix(1.4180099964141846,0,0,1,17,1.5)"><path fill="url(#__lottie_element_37959)" mask="url(#__lottie_element_37961)" fill-opacity="1" d="M0 0 M-34.33599853515625,126.8740005493164 C-29.267000198364258,125.25 -7.228000164031982,141.5 15.241000175476074,127.97100067138672 C42.959999084472656,111.28099822998047 -17.445999145507812,65.94499969482422 -41.56100082397461,74.60900115966797 C-69.60800170898438,84.68599700927734 -92.51100158691406,148.37600708007812 -73.48799896240234,148.4320068359375 C-50.5989990234375,148.5 -40.724998474121094,128.92100524902344 -34.33599853515625,126.8740005493164z"/></g><g opacity="0.4" transform="matrix(1,0,0,1,0,0)"><path fill="url(#__lottie_element_37962)" mask="url(#__lottie_element_37964)" fill-opacity="1" d="M0 0 M209,-34.5 C209,-34.25 204.25,-2 160,-14.25 C132.25399780273438,-21.930999755859375 119.5,8.5 121,18.25 C121.25,18.25 131.4980010986328,-9.211999893188477 148.75,-3.5 C186.5,9 205.75,0.75 209,-34.5z"/></g><g opacity="1" transform="matrix(1,0,0,1,0,0)"><path stroke-linecap="round" stroke-linejoin="miter" fill-opacity="0" stroke-miterlimit="4" stroke="rgb(137,111,88)" stroke-opacity="1" stroke-width="8" d=" M-170.27499389648438,175.6820068359375 C-159.54200744628906,175.08399963378906 -137.281005859375,172.23899841308594 -77.5,173 C1,174 34,201 83,174 C137.05599975585938,144.21400451660156 117,53.5 124,21 C128.6750030517578,-0.7059999704360962 140.78799438476562,-2.071000099182129 162.5,2 C194.5,8 221,-17.5 204.5,-45 C197.13400268554688,-57.277000427246094 189.01199340820312,-83.91899871826172 155.5,-83.5 C155.5,-83.5 155.5,-83.5 155.5,-83.5 C115.5,-83 68,-22.5 68.5,42 C68.78500366210938,78.76599884033203 66.33200073242188,99.7750015258789 43.19300079345703,109.88500213623047"/></g><g opacity="1" transform="matrix(1,0,0,1,0,0)"><path stroke-linecap="round" stroke-linejoin="miter" fill-opacity="0" stroke-miterlimit="4" stroke="rgb(112,78,56)" stroke-opacity="1" stroke-width="8" d=" M-182.69200134277344,165.81399536132812 C-185.51600646972656,168.4459991455078 -186.23899841308594,170.56500244140625 -184.38699340820312,171.91900634765625 C-172.45599365234375,180.63699340820312 -178.0229949951172,171.72000122070312 -77.5,173 C1,174 34,201 83,174 C137.05599975585938,144.21400451660156 117,53.5 124,21 C128.5850067138672,-0.28600001335144043 140.32200622558594,-2.010999917984009 161.25100708007812,1.7699999809265137"/></g><g opacity="1" transform="matrix(1,0,0,1,0,0)"><path fill="url(#__lottie_element_37965)" fill-opacity="1" d=" M-176.93800354003906,164.5 C-186.68600463867188,165.0449981689453 -188.5,170.5 -188.75,175.75 C-189,181 -185,187.75 -176.5,187.75 C-168,187.75 -163.5,182 -163.5,176.25 C-163.5,172.25 -168,164 -176.93800354003906,164.5z"/></g><g opacity="1" transform="matrix(1,0,0,1,0,0)"><path stroke-linecap="round" stroke-linejoin="round" fill-opacity="0" stroke="rgb(145,117,75)" stroke-opacity="1" stroke-width="8" d=" M-169.28199768066406,167.16299438476562 C-160.10499572753906,171.29299926757812 -164.69400024414062,188.5 -177.54200744628906,187.58200073242188 C-183.3260040283203,187.16900634765625 -189.13400268554688,183.21600341796875 -189.6739959716797,175.7239990234375 C-190.38999938964844,165.78599548339844 -179.5,154 -142.5,142.75"/></g><g opacity="1" transform="matrix(1,0,0,1,0,0)"><path stroke-linecap="round" stroke-linejoin="round" fill-opacity="0" stroke="rgb(117,80,58)" stroke-opacity="1" stroke-width="8" d=" M-169.28199768066406,167.16299438476562 C-160.10499572753906,171.29299926757812 -164.69400024414062,188.5 -177.54200744628906,187.58200073242188 C-183.3260040283203,187.16900634765625 -189.13400268554688,183.21600341796875 -189.6739959716797,175.7239990234375"/></g><g opacity="1" transform="matrix(1,0,0,1,0,0)"><path stroke-linecap="round" stroke-linejoin="round" fill-opacity="0" stroke="rgb(99,67,48)" stroke-opacity="1" stroke-width="8.5" d=" M204.43099975585938,-11.855999946594238 C183.5,20.25 129.75,-16.25 126.302001953125,14.380999565124512"/></g><g opacity="1" transform="matrix(1,0,0,1,0,0)"><path stroke-linecap="round" stroke-linejoin="round" fill-opacity="0" stroke="rgb(113,78,58)" stroke-opacity="1" stroke-width="8" d=" M76.43099975585938,-5.605999946594238 C67,20.25 71.75,27.75 68.302001953125,58.38100051879883"/></g></g><g style="display: block;" transform="matrix(1,0,0,1,256,278.5)" opacity="1"><g opacity="1" transform="matrix(1,0,0,1,0,0)"><path fill="rgb(220,190,128)" fill-opacity="1" d=" M-87,-126.5 C-163.84100341796875,-123.18499755859375 -219,-57.5 -218.01800537109375,25.5 C-217.4550018310547,73.09400177001953 -184.99400329589844,130.68699645996094 -130.75,139 C-65.5,149 -35.75,97.875 -35.75,97.875 C-35.75,97.875 -26.055999755859375,103.32099914550781 -7.111999988555908,109.56900024414062 C23,119.5 38.06399917602539,121.59600067138672 53,105 C71,85 69,57.5 69,57.5 C69,57.5 62.26599884033203,41.32099914550781 57.21799850463867,19.06399917602539 C44.59600067138672,-36.58100128173828 13.631999969482422,-130.84100341796875 -87,-126.5z"/><path stroke-linecap="round" stroke-linejoin="round" fill-opacity="0" stroke="rgb(118,62,18)" stroke-opacity="1" stroke-width="8" d=" M-87,-126.5 C-163.84100341796875,-123.18499755859375 -219,-57.5 -218.01800537109375,25.5 C-217.4550018310547,73.09400177001953 -184.99400329589844,130.68699645996094 -130.75,139 C-65.5,149 -35.75,97.875 -35.75,97.875 C-35.75,97.875 -26.055999755859375,103.32099914550781 -7.111999988555908,109.56900024414062 C23,119.5 38.06399917602539,121.59600067138672 53,105 C71,85 69,57.5 69,57.5 C69,57.5 62.26599884033203,41.32099914550781 57.21799850463867,19.06399917602539 C44.59600067138672,-36.58100128173828 13.631999969482422,-130.84100341796875 -87,-126.5z"/></g></g><g style="display: block;" transform="matrix(1,0,0,1,256,269)" opacity="0.7000000000000001"><g opacity="1" transform="matrix(1,0,0,1,0,0)"><path stroke-linecap="butt" stroke-linejoin="miter" fill-opacity="0" stroke-miterlimit="4" stroke="rgb(255,231,141)" stroke-opacity="1" stroke-width="5" d=" M-28.375,76.125 C-28.375,76.125 30,88 56.625,45"/></g><g opacity="1" transform="matrix(1,0,0,1,0,0)"><path stroke-linecap="butt" stroke-linejoin="miter" fill-opacity="0" stroke-miterlimit="4" stroke="rgb(255,231,141)" stroke-opacity="1" stroke-width="5" d=" M-26.875,61.5 C-26.875,61.5 24.5,58 49.875,15.875"/></g><g opacity="1" transform="matrix(1,0,0,1,0,0)"><path stroke-linecap="butt" stroke-linejoin="miter" fill-opacity="0" stroke-miterlimit="4" stroke="rgb(255,231,141)" stroke-opacity="1" stroke-width="5" d=" M-27.875,41 C-27.875,41 11,34.5 43.6349983215332,-6.236000061035156"/></g><g opacity="1" transform="matrix(1,0,0,1,0,0)"><path stroke-linecap="butt" stroke-linejoin="miter" fill-opacity="0" stroke-miterlimit="4" stroke="rgb(255,231,141)" stroke-opacity="1" stroke-width="5" d=" M-30.75,23 C-30.75,23 2.5,4.5 33.25,-34.75"/></g><g opacity="1" transform="matrix(1,0,0,1,0,0)"><path stroke-linecap="butt" stroke-linejoin="miter" fill-opacity="0" stroke-miterlimit="4" stroke="rgb(255,231,141)" stroke-opacity="1" stroke-width="5" d=" M-36.75,3.5 C-36.75,3.5 -8.5,-23 15.86400032043457,-57.862998962402344"/></g><g opacity="1" transform="matrix(1,0,0,1,0,0)"><path stroke-linecap="butt" stroke-linejoin="miter" fill-opacity="0" stroke-miterlimit="4" stroke="rgb(255,231,141)" stroke-opacity="1" stroke-width="5" d=" M-46.75,-12.5 C-46.75,-12.5 -16,-55.5 -2.6589999198913574,-82.03399658203125"/></g><g opacity="1" transform="matrix(1,0,0,1,0,0)"><path stroke-linecap="butt" stroke-linejoin="miter" fill-opacity="0" stroke-miterlimit="4" stroke="rgb(255,231,141)" stroke-opacity="1" stroke-width="5" d=" M-57.75,-26 C-57.75,-26 -31.440000534057617,-86.86799621582031 -26.344999313354492,-100.68399810791016"/></g><g opacity="1" transform="matrix(1,0,0,1,0,0)"><path stroke-linecap="butt" stroke-linejoin="miter" fill-opacity="0" stroke-miterlimit="4" stroke="rgb(255,231,141)" stroke-opacity="1" stroke-width="5" d=" M-72.5,-32.25 C-72.5,-32.25 -59,-83.75 -52.367000579833984,-109.47000122070312"/></g><g opacity="1" transform="matrix(0.9984400272369385,0,0,0.9765400290489197,0,0)"><path stroke-linecap="butt" stroke-linejoin="miter" fill-opacity="0" stroke-miterlimit="4" stroke="rgb(255,231,141)" stroke-opacity="1" stroke-width="5" d=" M-86.5,-39.75 C-86.5,-39.75 -80.1259994506836,-93.95500183105469 -77.8550033569336,-116.73799896240234"/></g><g opacity="1" transform="matrix(1,0,0,1,0,0)"><path stroke-linecap="butt" stroke-linejoin="miter" fill-opacity="0" stroke-miterlimit="4" stroke="rgb(255,231,141)" stroke-opacity="1" stroke-width="5" d=" M-103.77999877929688,-111.22899627685547 C-102,-99.25 -100,-40.75 -100,-40.75"/></g><g opacity="1" transform="matrix(0.9854999780654907,0,0,0.9887499809265137,0,0)"><path stroke-linecap="butt" stroke-linejoin="miter" fill-opacity="0" stroke-miterlimit="4" stroke="rgb(255,231,141)" stroke-opacity="1" stroke-width="5" d=" M-124.78700256347656,-39.540000915527344 C-124.78700256347656,-39.540000915527344 -127.34600067138672,-72.56700134277344 -144.69400024414062,-98.73999786376953"/></g><g opacity="1" transform="matrix(1,0,0,1,0,0)"><path stroke-linecap="butt" stroke-linejoin="miter" fill-opacity="0" stroke-miterlimit="4" stroke="rgb(255,231,141)" stroke-opacity="1" stroke-width="5" d=" M-139.75,-28 C-139.75,-28 -144.75,-56 -168.1009979248047,-78.3239974975586"/></g><g opacity="1" transform="matrix(1,0,0,1,0,0)"><path stroke-linecap="butt" stroke-linejoin="miter" fill-opacity="0" stroke-miterlimit="4" stroke="rgb(255,231,141)" stroke-opacity="1" stroke-width="5" d=" M-194.28900146484375,-46.70000076293945 C-164.5,-36 -152,-17 -152,-17"/></g><g opacity="1" transform="matrix(0.994920015335083,0,0,0.9228900074958801,0,0)"><path stroke-linecap="butt" stroke-linejoin="miter" fill-opacity="0" stroke-miterlimit="4" stroke="rgb(255,231,141)" stroke-opacity="1" stroke-width="5" d=" M-209.68899536132812,-12.225000381469727 C-175.64199829101562,-11.107000350952148 -161,3.25 -161,3.25"/></g><g opacity="1" transform="matrix(1,0,0,1,0,0)"><path stroke-linecap="butt" stroke-linejoin="miter" fill-opacity="0" stroke-miterlimit="4" stroke="rgb(255,231,141)" stroke-opacity="1" stroke-width="5" d=" M-164.75,22.375 C-164.75,22.375 -203,14.75 -213.75100708007812,28.489999771118164"/></g><g opacity="1" transform="matrix(1,0,0,1,0,0)"><path stroke-linecap="butt" stroke-linejoin="miter" fill-opacity="0" stroke-miterlimit="4" stroke="rgb(255,231,141)" stroke-opacity="1" stroke-width="5" d=" M-86.25,18 C-86.25,18 -65.75,1.75 -64.95500183105469,-28.97100067138672"/></g><g opacity="1" transform="matrix(1,0,0,1,0,0)"><path stroke-linecap="butt" stroke-linejoin="miter" fill-opacity="0" stroke-miterlimit="4" stroke="rgb(255,231,141)" stroke-opacity="1" stroke-width="5" d=" M-77.75,34.75 C-77.75,34.75 -50.25,19.75 -38.882999420166016,10.673999786376953"/></g><g opacity="1" transform="matrix(1,0,0,1,0,0)"><path stroke-linecap="butt" stroke-linejoin="miter" fill-opacity="0" stroke-miterlimit="4" stroke="rgb(255,231,141)" stroke-opacity="1" stroke-width="5" d=" M-76.25,52 C-76.25,52 -49.75,53.75 -30.7450008392334,50.875"/></g><g opacity="1" transform="matrix(1,0,0,1,0,0)"><path stroke-linecap="butt" stroke-linejoin="miter" fill-opacity="0" stroke-miterlimit="4" stroke="rgb(255,231,141)" stroke-opacity="1" stroke-width="5" d=" M-79.5,70.25 C-79.5,70.25 -59,88.25 -32.513999938964844,88.96800231933594"/></g><g opacity="1" transform="matrix(1,0,0,1,0,0)"><path stroke-linecap="butt" stroke-linejoin="miter" fill-opacity="0" stroke-miterlimit="4" stroke="rgb(255,231,141)" stroke-opacity="1" stroke-width="5" d=" M-91.5,88.5 C-91.5,88.5 -82.25,106 -57.70500183105469,126.31999969482422"/></g><g opacity="1" transform="matrix(1,0,0,1,0,0)"><path stroke-linecap="butt" stroke-linejoin="miter" fill-opacity="0" stroke-miterlimit="4" stroke="rgb(255,231,141)" stroke-opacity="1" stroke-width="5" d=" M-107.79900360107422,96.1709976196289 C-96.5,126.5 -88.75,142.375 -88.75,142.375"/></g></g><g style="display: block;" transform="matrix(1,0,0,1,256,269)" opacity="1"><g opacity="1" transform="matrix(0.9976900219917297,0,0,1.0202000141143799,0,0)"><path fill="url(#__lottie_element_38008)" mask="url(#__lottie_element_38010)" fill-opacity="1" d="M0 0 M-97.06800079345703,87.9209976196289 C-88.88300323486328,83.75599670410156 -65.6510009765625,53.42100143432617 -84.71099853515625,19.365999221801758 C-86.19499969482422,16.71500015258789 -75.875,5.394000053405762 -70.08899688720703,-10.265000343322754 C-57.13199996948242,-45.33399963378906 -113.4729995727539,-40.15399932861328 -135.97999572753906,-26.006000518798828 C-199.96099853515625,14.213000297546387 -157.36300659179688,118.60399627685547 -97.06800079345703,87.9209976196289z"/></g><g opacity="1" transform="matrix(0.9976900219917297,0,0,1.0202000141143799,0,0)"><path fill="url(#__lottie_element_38011)" mask="url(#__lottie_element_38013)" fill-opacity="1" d="M0 0 M-204.48699951171875,43.83300018310547 C-213.4929962158203,45.82500076293945 -224.64300537109375,35.654998779296875 -206.7519989013672,76.91100311279297 C-179.90499877929688,138.81700134277344 -117.27100372314453,160.7519989013672 -67.5,133.99000549316406 C-56.1510009765625,127.88700103759766 -21.548999786376953,111.74299621582031 -28.993999481201172,38.255001068115234 C-33.709999084472656,-8.293999671936035 -69.56300354003906,-29.21500015258789 -69.56300354003906,-29.21500015258789 C-69.56300354003906,-29.21500015258789 -101.98500061035156,-51.362998962402344 -132.4720001220703,-28.94700050354004 C-216.5,32.83599853515625 -124.31500244140625,101.90699768066406 -133.87399291992188,87.62799835205078 C-165.6320037841797,40.1879997253418 -178.91299438476562,36.268001556396484 -204.48699951171875,43.83300018310547z"/></g><g opacity="1" transform="matrix(1,0,0,1.3872599601745605,1.5,-35)"><path fill="url(#__lottie_element_38014)" mask="url(#__lottie_element_38016)" fill-opacity="1" d="M0 0 M-166.75,42.284000396728516 C-166.61300659179688,39.676998138427734 -178,93.16899871826172 -114.5,92.5 C-75.50199890136719,92.08899688720703 -74.5,56.58700180053711 -81.43000030517578,43.040000915527344 C-81.73799896240234,42.4370002746582 -80.85900115966797,36.874000549316406 -86.56900024414062,43.8129997253418 C-91.11799621582031,49.34000015258789 -103.37799835205078,59.369998931884766 -117.94400024414062,59.45500183105469 C-151.5,59.650001525878906 -167.5,56.58700180053711 -166.75,42.284000396728516z"/></g><g opacity="1" transform="matrix(1,0,0,1,0,0)"><path fill="url(#__lottie_element_38017)" mask="url(#__lottie_element_38019)" fill-opacity="1" d="M0 0 M-118.5,-87 C-175,-78.5 -223,-28.5 -210.5,46 C-198.87399291992188,115.29199981689453 -100.5,125.5 -81.75,78.5 C-81.83300018310547,78.41699981689453 -87.53800201416016,88.19200134277344 -98.46700286865234,92.09100341796875 C-120.58899688720703,99.98300170898438 -159.64300537109375,97.73500061035156 -165.5,38.5 C-170.96099853515625,-16.731000900268555 -140.4010009765625,-35.37200164794922 -105.5,-39.25 C-60.5,-44.25 -29.75,2.5 -27.5,39 C-24.73699951171875,83.81800079345703 -33.875,106.25 -33.875,106.25 C-33.875,106.25 14.5,148 22.5,44.5 C29.73200035095215,-49.0629997253418 -62,-95.5 -118.5,-87z"/></g><g opacity="0.6" transform="matrix(1,0,0,1,0,0)"><path fill="url(#__lottie_element_38020)" mask="url(#__lottie_element_38022)" fill-opacity="1" d="M0 0 M-111.34200286865234,-36.21799850463867 C-151.25,-29 -165.85899353027344,8.529000282287598 -164.11500549316406,21.115999221801758 C-163.75,23.75 -135.75,22 -123.24500274658203,27.999000549316406 C-120.53399658203125,29.299999237060547 -124.5,12.5 -105.81300354003906,10.190999984741211 C-87.14099884033203,7.883999824523926 -78.78900146484375,24.516000747680664 -78.4010009765625,39.707000732421875 C-77.5,75 -96.05000305175781,89.1510009765625 -96.05000305175781,89.1510009765625 C-96.05000305175781,89.1510009765625 -53.5,115.5 -44.625,46.492000579833984 C-39.6510009765625,7.815999984741211 -75.927001953125,-42.62300109863281 -111.34200286865234,-36.21799850463867z"/></g><g opacity="1" transform="matrix(1,0,0,1,0,0)"><path fill="url(#__lottie_element_38023)" mask="url(#__lottie_element_38025)" fill-opacity="1" d="M0 0 M-67,-115 C-149,-123.5 -190,-62 -203.25,-34 C-215.8730010986328,-7.324999809265137 -214.16900634765625,12.859999656677246 -215.75,25.59600067138672 C-217.39300537109375,38.82400131225586 -219.01699829101562,57.65700149536133 -213.7010040283203,55.02299880981445 C-206.6959991455078,51.551998138427734 -188,39 -138.06199645996094,39.76599884033203 C-110.71099853515625,40.18600082397461 -17.690000534057617,-76.427001953125 -7,-22.5 C9.75,62 -23.875,75.75 -23.875,75.75 C-23.875,75.75 6,77.5 23.5,69.25 C38.88399887084961,61.99800109863281 52,52.5 58.75,39.5 C60.731998443603516,35.68299865722656 51.875,-9.125 32.25,-43.5 C18.812999725341797,-67.03600311279297 -6.820000171661377,-108.76200103759766 -67,-115z"/></g><g opacity="1" transform="matrix(1,0,0,1,0,0)"><path fill="url(#__lottie_element_38026)" fill-opacity="1" d=" M29,-47 C7,-80.5 -49.5,-24 -50.5,22 C-51.5,68 -12.5,119.5 11,124.5 C65.10800170898438,136.01300048828125 72,83 62,49 C61.417999267578125,47.02199935913086 55.04499816894531,-7.340000152587891 29,-47z"/></g><g opacity="1" transform="matrix(1,0,0,1,0,0)"><path fill="url(#__lottie_element_38027)" mask="url(#__lottie_element_38029)" fill-opacity="1" d="M0 0 M-214.25,24.75 C-214.25,24.75 -214,82.5 -167.08200073242188,116.38700103759766 C-149.3249969482422,129.21299743652344 -119.05599975585938,138.30099487304688 -91.25,129.25 C-27.5,108.5 -29.5,40 -29.5,40 C-29.5,40 -25.920000076293945,68.0469970703125 -33.29499816894531,94.9229965209961 C-41,123 -63.09299850463867,141.5070037841797 -88.25,146.5 C-121,153 -158.09300231933594,146.1179962158203 -181.91600036621094,121.16899871826172 C-226,75 -214.25,24.75 -214.25,24.75z"/></g><g opacity="0.45" transform="matrix(1,0,0,1,0,0)"><path fill="url(#__lottie_element_38030)" mask="url(#__lottie_element_38032)" fill-opacity="1" d="M0 0 M34,-38.5 C31.364999771118164,-44.62799835205078 17.135000228881836,-23.660999298095703 3.010999917984009,-8.972000122070312 C-21,16 -33.90399932861328,15.013999938964844 -32.5,22.5 C-25,62.5 -33.5,97.5 -35,103 C-36.5,108.5 11.5,128.5 37,124 C77.48699951171875,116.8550033569336 77,61.5 34,-38.5z"/></g><g opacity="1" transform="matrix(2.3475000858306885,0,0,0.75,136.34307861328125,-18.75)"><path fill="url(#__lottie_element_38033)" fill-opacity="1" d=" M-94.56500244140625,-134.16700744628906 C-117.29199981689453,-133 -135.37600708007812,-77.66699981689453 -135.37600708007812,-62.16699981689453 C-135.37600708007812,-46.66699981689453 -125.05400085449219,-37.952999114990234 -95.17500305175781,-28.33300018310547 C-51.689998626708984,-14.333000183105469 -42.361000061035156,-26.795000076293945 -46.542999267578125,-47.16699981689453 C-55.95100021362305,-93 -72.75399780273438,-135.28700256347656 -94.56500244140625,-134.16700744628906z"/></g><g opacity="0.7000000000000001" transform="matrix(1,0,0,1,0,0)"><path fill="url(#__lottie_element_38034)" mask="url(#__lottie_element_38036)" fill-opacity="1" d="M0 0 M15.583999633789062,-3.5840001106262207 C-1.2319999933242798,-58.18899917602539 -102,-63.5 -123.45600128173828,-38.749000549316406 C-123.45700073242188,-38.86600112915039 -62,-50 -38.05699920654297,8.428000450134277 C-20.715999603271484,50.74399948120117 -34.83399963378906,104.81500244140625 -34.83399963378906,104.81500244140625 C-34.83399963378906,104.81500244140625 67.5,165 15.583999633789062,-3.5840001106262207z"/></g></g><g style="display: block;" transform="matrix(1,0,0,1,256,269)" opacity="0.3"><g opacity="1" transform="matrix(1,0,0,1,0,0)"><path stroke-linecap="butt" stroke-linejoin="miter" fill-opacity="0" stroke-miterlimit="4" stroke="rgb(49,22,0)" stroke-opacity="1" stroke-width="5" d=" M-26,73 C-26,73 32.75,81.75 56,38"/></g><g opacity="1" transform="matrix(1,0,0,1,0,0)"><path stroke-linecap="butt" stroke-linejoin="miter" fill-opacity="0" stroke-miterlimit="4" stroke="rgb(49,22,0)" stroke-opacity="1" stroke-width="5" d=" M-24.75,57 C-24.75,57 31,50 49.75,7.25"/></g><g opacity="1" transform="matrix(1,0,0,1,0,0)"><path stroke-linecap="butt" stroke-linejoin="miter" fill-opacity="0" stroke-miterlimit="4" stroke="rgb(49,22,0)" stroke-opacity="1" stroke-width="5" d=" M43.02799987792969,-12.961999893188477 C23.75,21.5 -25.5,37 -25.5,37"/></g><g opacity="1" transform="matrix(1,0,0,1,0,0)"><path stroke-linecap="butt" stroke-linejoin="miter" fill-opacity="0" stroke-miterlimit="4" stroke="rgb(49,22,0)" stroke-opacity="1" stroke-width="5" d=" M30.572999954223633,-40.18600082397461 C11.5,-14 -12.75,8.5 -30.75,19.25"/></g><g opacity="1" transform="matrix(1,0,0,1,0,0)"><path stroke-linecap="butt" stroke-linejoin="miter" fill-opacity="0" stroke-miterlimit="4" stroke="rgb(49,22,0)" stroke-opacity="1" stroke-width="5" d=" M-39.25,1.25 C-39.25,1.25 -2,-36 16.468000411987305,-66.83599853515625"/></g><g opacity="1" transform="matrix(1,0,0,1,0,0)"><path stroke-linecap="butt" stroke-linejoin="miter" fill-opacity="0" stroke-miterlimit="4" stroke="rgb(49,22,0)" stroke-opacity="1" stroke-width="5" d=" M-3.5739998817443848,-88.64299774169922 C-12,-73.25 -39.987998962402344,-28.16699981689453 -50.5,-12"/></g><g opacity="1" transform="matrix(1,0,0,1,0,0)"><path stroke-linecap="butt" stroke-linejoin="miter" fill-opacity="0" stroke-miterlimit="4" stroke="rgb(49,22,0)" stroke-opacity="1" stroke-width="5" d=" M-30.812000274658203,-104.69000244140625 C-38,-84 -61.15599822998047,-25.062999725341797 -61.15599822998047,-25.062999725341797"/></g><g opacity="1" transform="matrix(1,0,0,1,0,0)"><path stroke-linecap="butt" stroke-linejoin="miter" fill-opacity="0" stroke-miterlimit="4" stroke="rgb(49,22,0)" stroke-opacity="1" stroke-width="5" d=" M-58.57500076293945,-113.20800018310547 C-60.5,-97.25 -74.59400177001953,-33.8129997253418 -74.59400177001953,-33.8129997253418"/></g><g opacity="1" transform="matrix(1,0,0,1,0,0)"><path stroke-linecap="butt" stroke-linejoin="miter" fill-opacity="0" stroke-miterlimit="4" stroke="rgb(49,22,0)" stroke-opacity="1" stroke-width="5" d=" M-83.01000213623047,-117.0479965209961 C-83.5,-98.75 -89.75,-39.5 -89.75,-39.5"/></g><g opacity="1" transform="matrix(1,0,0,1,0,0)"><path stroke-linecap="butt" stroke-linejoin="miter" fill-opacity="0" stroke-miterlimit="4" stroke="rgb(49,22,0)" stroke-opacity="1" stroke-width="5" d=" M-107.69200134277344,-112.02200317382812 C-104.5,-81.5 -102.5,-40.5 -102.5,-40.5"/></g><g opacity="1" transform="matrix(1,0,0,1,0,0)"><path stroke-linecap="butt" stroke-linejoin="miter" fill-opacity="0" stroke-miterlimit="4" stroke="rgb(49,22,0)" stroke-opacity="1" stroke-width="5" d=" M-139.20700073242188,-103.93299865722656 C-124.5,-80.75 -121.56500244140625,-47.762001037597656 -120.5,-38"/></g><g opacity="1" transform="matrix(1,0,0,1,0,0)"><path stroke-linecap="butt" stroke-linejoin="miter" fill-opacity="0" stroke-miterlimit="4" stroke="rgb(49,22,0)" stroke-opacity="1" stroke-width="5" d=" M-165.9969940185547,-83.37200164794922 C-146,-59.75 -140.75,-42.5 -137,-26"/></g><g opacity="1" transform="matrix(1,0,0,1,0,0)"><path stroke-linecap="butt" stroke-linejoin="miter" fill-opacity="0" stroke-miterlimit="4" stroke="rgb(49,22,0)" stroke-opacity="1" stroke-width="5" d=" M-193.75100708007812,-50.49800109863281 C-169.25,-41.5 -154.36700439453125,-24.618000030517578 -149.25,-15.5"/></g><g opacity="1" transform="matrix(1,0,0,1,0,0)"><path stroke-linecap="butt" stroke-linejoin="miter" fill-opacity="0" stroke-miterlimit="4" stroke="rgb(49,22,0)" stroke-opacity="1" stroke-width="5" d=" M-158.5,2 C-158.5,2 -176,-18.25 -210.45599365234375,-16.108999252319336"/></g><g opacity="1" transform="matrix(1,0,0,1,0,0)"><path stroke-linecap="butt" stroke-linejoin="miter" fill-opacity="0" stroke-miterlimit="4" stroke="rgb(49,22,0)" stroke-opacity="1" stroke-width="5" d=" M-162.5,20.25 C-162.5,20.25 -188.75,10 -215.2530059814453,22.934999465942383"/></g><g opacity="1" transform="matrix(1,0,0,1,0,0)"><path stroke-linecap="butt" stroke-linejoin="miter" fill-opacity="0" stroke-miterlimit="4" stroke="rgb(49,22,0)" stroke-opacity="1" stroke-width="5" d=" M-163.5,39.25 C-163.5,39.25 -196.75,37.75 -212.64999389648438,56.30699920654297"/></g><g opacity="1" transform="matrix(1,0,0,1,0,0)"><path stroke-linecap="butt" stroke-linejoin="miter" fill-opacity="0" stroke-miterlimit="4" stroke="rgb(49,22,0)" stroke-opacity="1" stroke-width="5" d=" M-162.75,57.75 C-162.75,57.75 -189.25,66.5 -200.80599975585938,92.66799926757812"/></g><g opacity="1" transform="matrix(1,0,0,1,0,0)"><path stroke-linecap="butt" stroke-linejoin="miter" fill-opacity="0" stroke-miterlimit="4" stroke="rgb(49,22,0)" stroke-opacity="1" stroke-width="5" d=" M-104.75,94.5 C-104.75,94.5 -90,130.25 -84.02799987792969,142.09300231933594"/></g><g opacity="1" transform="matrix(1,0,0,1,0,0)"><path stroke-linecap="butt" stroke-linejoin="miter" fill-opacity="0" stroke-miterlimit="4" stroke="rgb(49,22,0)" stroke-opacity="1" stroke-width="5" d=" M-91,84.5 C-91,84.5 -67.5,110.75 -52.345001220703125,124.8759994506836"/></g><g opacity="1" transform="matrix(1,0,0,1,0,0)"><path stroke-linecap="butt" stroke-linejoin="miter" fill-opacity="0" stroke-miterlimit="4" stroke="rgb(49,22,0)" stroke-opacity="1" stroke-width="5" d=" M-80.75,67.25 C-80.75,67.25 -53.75,84.5 -33.01100158691406,86.02799987792969"/></g><g opacity="1" transform="matrix(1,0,0,1,0,0)"><path stroke-linecap="butt" stroke-linejoin="miter" fill-opacity="0" stroke-miterlimit="4" stroke="rgb(49,22,0)" stroke-opacity="1" stroke-width="5" d=" M-77.5,50 C-77.5,50 -48.75,47.25 -31.48200035095215,45.935001373291016"/></g><g opacity="1" transform="matrix(1,0,0,1,0,0)"><path stroke-linecap="butt" stroke-linejoin="miter" fill-opacity="0" stroke-miterlimit="4" stroke="rgb(49,22,0)" stroke-opacity="1" stroke-width="5" d=" M-77.56300354003906,31.25 C-77.56300354003906,31.25 -54,16.5 -41.816001892089844,7.270999908447266"/></g><g opacity="1" transform="matrix(1,0,0,1,0,0)"><path stroke-linecap="butt" stroke-linejoin="miter" fill-opacity="0" stroke-miterlimit="4" stroke="rgb(49,22,0)" stroke-opacity="1" stroke-width="5" d=" M-87.25,16.125 C-87.25,16.125 -69.5,-3.25 -68.52200317382812,-30.857999801635742"/></g><g opacity="1" transform="matrix(1,0,0,1,0,0)"><path stroke-linecap="butt" stroke-linejoin="miter" fill-opacity="0" stroke-miterlimit="4" stroke="rgb(42,19,0)" stroke-opacity="1" stroke-width="5" d=" M-97,-37.5 C-97,-37.5 -94.5,-10.25 -101,9"/></g><g opacity="0.33" transform="matrix(1,0,0,1,0,0)"><path stroke-linecap="butt" stroke-linejoin="miter" fill-opacity="0" stroke-miterlimit="4" stroke="rgb(42,19,0)" stroke-opacity="1" stroke-width="5" d=" M-120.5,25.5 C-120.5,25.5 -138.75,19.25 -163.8090057373047,24.055999755859375"/></g><g opacity="0.44" transform="matrix(1,0,0,1,0,0)"><path stroke-linecap="butt" stroke-linejoin="miter" fill-opacity="0" stroke-miterlimit="4" stroke="rgb(42,19,0)" stroke-opacity="1" stroke-width="5" d=" M-143,-22.5 C-143,-22.5 -120.5,-12.5 -114.5,11"/></g><g opacity="0.28" transform="matrix(1,0,0,1,0,0)"><path stroke-linecap="butt" stroke-linejoin="miter" fill-opacity="0" stroke-miterlimit="4" stroke="rgb(42,19,0)" stroke-opacity="1" stroke-width="5" d=" M-171,131.5 C-171,131.5 -168.75,101.75 -142,85"/></g><g opacity="0.51" transform="matrix(1,0,0,1,0,0)"><path stroke-linecap="round" stroke-linejoin="miter" fill-opacity="0" stroke-miterlimit="4" stroke="rgb(42,19,0)" stroke-opacity="1" stroke-width="5" d=" M-120,93 C-120,93 -131,119.25 -124.5,149.25"/></g><g opacity="0.41000000000000003" transform="matrix(1,0,0,1,0,0)"><path stroke-linecap="round" stroke-linejoin="miter" fill-opacity="0" stroke-miterlimit="4" stroke="rgb(28,13,0)" stroke-opacity="1" stroke-width="5" d=" M-111,43.5 C-111,43.5 -104.5,67 -112.25,90.125"/></g><g opacity="0.23" transform="matrix(1,0,0,1,0,0)"><path stroke-linecap="round" stroke-linejoin="round" fill-opacity="0" stroke="rgb(28,13,0)" stroke-opacity="1" stroke-width="5" d=" M-156.75,65 C-156.75,65 -145.5,46 -120,38.5"/></g></g><g style="display: block;" transform="matrix(1,0,0,1,256,269)" opacity="0.8"><g opacity="1" transform="matrix(1,0,0,1,-111.375,36.375)"><path fill="url(#__lottie_element_37999)" mask="url(#__lottie_element_38001)" fill-opacity="1" d="M0 0 M0,-21.375 C10.831037521362305,-21.375 19.625,-11.796862602233887 19.625,0 C19.625,11.796862602233887 10.831037521362305,21.375 0,21.375 C-10.831037521362305,21.375 -19.625,11.796862602233887 -19.625,0 C-19.625,-11.796862602233887 -10.831037521362305,-21.375 0,-21.375z"/></g></g><g style="display: block;" transform="matrix(1,0,0,1,256,269)" opacity="0.4"><g opacity="1" transform="matrix(1,0,0,1,0,0)"><path fill="url(#__lottie_element_37989)" mask="url(#__lottie_element_37991)" fill-opacity="1" d="M0 0 M-82.75,-116.75 C-181.3780059814453,-109.19499969482422 -229.5,-27.5 -211.625,56.125 C-211.5469970703125,55.89099884033203 -219.5,1 -185.67100524902344,-48.606998443603516 C-160.0709991455078,-86.14800262451172 -118.10299682617188,-103.65599822998047 -83.01799774169922,-103.82099914550781 C-45,-104 -12.934000015258789,-89.2229995727539 6.182000160217285,-63.15700149536133 C47,-7.5 49.5,49 65,63.25 C67.99600219726562,66.00399780273438 38,-126 -82.75,-116.75z"/></g><g opacity="1" transform="matrix(1,0,0,1,0,0)"><path fill="url(#__lottie_element_37992)" mask="url(#__lottie_element_37994)" fill-opacity="1" d="M0 0 M-68.00700378417969,-29.586000442504883 C-125.69100189208984,-62.91899871826172 -175.5,-4.5 -162.48699951171875,32.75199890136719 C-162.447998046875,32.62799835205078 -159,-26.75 -103.64299774169922,-27.468000411987305 C-61.49800109863281,-28.014999389648438 -37.5,10.5 -31.01099967956543,69.03700256347656 C-30.77899932861328,71.12699890136719 -22,-3 -68.00700378417969,-29.586000442504883z"/></g><g opacity="1" transform="matrix(1,0,0,1,0,0)"><path fill="url(#__lottie_element_37995)" fill-opacity="1" d=" M21.576000213623047,127.00399780273438 C57.61600112915039,130.64500427246094 74,86 66.48899841308594,59.5 C66.49700164794922,59.56999969482422 66.4020004272461,100.26300048828125 35.768001556396484,112.99500274658203 C13.5,122.25 -12.25,104.5 -34.54100036621094,103.37699890136719 C-35.68299865722656,103.31900024414062 -7.169000148773193,124.0999984741211 21.576000213623047,127.00399780273438z"/></g></g><g style="display: block;" transform="matrix(1,0,0,1,256,269)" opacity="1"><g opacity="1" transform="matrix(1,0,0,1,-0.25,0)"><path stroke-linecap="round" stroke-linejoin="round" fill-opacity="0" stroke="rgb(117,51,0)" stroke-opacity="1" stroke-width="8" d=" M-108.75,34.25 C-108.75,34.25 -109,41.5 -116.25,37.25 C-123.5,33 -122.75,6 -102,10.25 C-81.25,14.5 -78.5,33.5 -78,42 C-77.5,50.5 -78.25,96 -119.75,93.75 C-158.75799560546875,91.63500213623047 -171.8040008544922,39.76100158691406 -165.25,11.25 C-160.25,-10.5 -140.28900146484375,-40.060001373291016 -95.65599822998047,-38.6879997253418 C-40.75,-37 -3.25,52.5 -39.5,113.5"/></g></g><g style="display: block;" transform="matrix(1,0,0,1,256,278.5)" opacity="1"><g opacity="1" transform="matrix(1,0,0,1,0,0)"><path stroke-linecap="round" stroke-linejoin="round" fill-opacity="0" stroke="rgb(120,50,1)" stroke-opacity="1" stroke-width="8" d=" M-87,-126.5 C-163.84100341796875,-123.18499755859375 -219,-57.5 -218.01800537109375,25.5 C-217.4550018310547,73.09400177001953 -184.99400329589844,130.68699645996094 -130.75,139 C-65.5,149 -35.75,97.875 -35.75,97.875 C-35.75,97.875 -26.055999755859375,103.32099914550781 -7.111999988555908,109.56900024414062 C23,119.5 38.06399917602539,121.59600067138672 53,105 C71,85 69,57.5 69,57.5 C69,57.5 62.26599884033203,41.32099914550781 57.21799850463867,19.06399917602539 C44.59600067138672,-36.58100128173828 13.631999969482422,-130.84100341796875 -87,-126.5z"/></g><g opacity="1" transform="matrix(1.0703099966049194,0,0,0.9976900219917297,0,0)"><path stroke-linecap="round" stroke-linejoin="round" fill-opacity="0" stroke="rgb(81,36,5)" stroke-opacity="1" stroke-width="8" d=" M-30.878000259399414,99.21900177001953 C6.539999961853027,117.52100372314453 33.6349983215332,126.79299926757812 49.23899841308594,105.80000305175781 C63.81100082397461,86.19599914550781 65.4020004272461,57.965999603271484 64.8740005493164,56.73400115966797 C55.590999603271484,35.08100128173828 48.117000579833984,-10.02299976348877 38.76499938964844,-34.582000732421875"/></g><g opacity="1" transform="matrix(1.0703099966049194,0,0,0.9976900219917297,0,0)"><path stroke-linecap="round" stroke-linejoin="round" fill-opacity="0" stroke="rgb(79,36,2)" stroke-opacity="1" stroke-width="8" d=" M-203.25799560546875,33.56800079345703 C-190.1320037841797,123.28500366210938 -137.29800415039062,142.14599609375 -102.58499908447266,140.3800048828125 C-71.94100189208984,138.8209991455078 -22.889999389648438,115.76699829101562 -23.833999633789062,55.125"/></g><g opacity="1" transform="matrix(1,0,0,1,-0.25,0)"><path stroke-linecap="round" stroke-linejoin="round" fill-opacity="0" stroke="rgb(79,36,2)" stroke-opacity="1" stroke-width="8" d=" M-78,32.5 C-77.5,41 -78.25,86.5 -119.75,84.25 C-158.75799560546875,82.13500213623047 -171.8040008544922,30.26099967956543 -165.25,1.75"/></g><g opacity="1" transform="matrix(1,0,0,1,-0.25,0)"><path stroke-linecap="round" stroke-linejoin="round" fill-opacity="0" stroke="rgb(79,36,2)" stroke-opacity="1" stroke-width="8" d=" M-108.75,24.75 C-108.75,24.75 -109,32 -116.25,27.75 C-119.35700225830078,25.929000854492188 -120.99400329589844,19.930999755859375 -120.21900177001953,14.003999710083008"/></g></g><g style="display: block;" transform="matrix(0.9969800114631653,0.07765869051218033,-0.07765869051218033,0.9969800114631653,230.87332153320312,246.10848999023438)" opacity="1"><g opacity="0.3" transform="matrix(1,0,0,1.0878299474716187,0,0)"><path fill="rgb(83,56,32)" fill-opacity="1" d=" M202.1840057373047,-19.992000579833984 C195.48699951171875,-22.67099952697754 200.41000366210938,-11.670000076293945 194.55099487304688,-1.7719999551773071 C186.54200744628906,11.756999969482422 204.56700134277344,13.659000396728516 209.7169952392578,5.210999965667725 C216.02200317382812,-5.131999969482422 212.20199584960938,-15.984999656677246 202.1840057373047,-19.992000579833984z"/></g><g opacity="1" transform="matrix(1,0,0,1,0,0)"><path fill="url(#__lottie_element_37974)" mask="url(#__lottie_element_37976)" fill-opacity="1" d="M0 0 M208.9040069580078,-29.31100082397461 C205.63099670410156,-31.56399917602539 201.8769989013672,-28.9950008392334 201.8769989013672,-28.9950008392334 C201.8769989013672,-28.9950008392334 199.14300537109375,-25.035999298095703 202.22500610351562,-23.170000076293945 C204.41900634765625,-21.840999603271484 204.30999755859375,-20.687000274658203 205.81300354003906,-17.94700050354004 C207.56100463867188,-14.758999824523926 208.31700134277344,-8.067999839782715 208.2469940185547,-4.894000053405762 C208.14700317382812,-0.32100000977516174 203.45899963378906,2.306999921798706 207.54100036621094,3.3529999256134033 C212.98399353027344,4.747000217437744 219.72799682617188,-2.4100000858306885 219.4010009765625,-9.369999885559082 C219.02999877929688,-17.274999618530273 216.0919952392578,-24.363000869750977 208.9040069580078,-29.31100082397461z"/></g><g opacity="1" transform="matrix(1,0,0,1,0,0)"><path stroke-linecap="round" stroke-linejoin="round" fill-opacity="0" stroke="rgb(143,110,85)" stroke-opacity="1" stroke-width="8" d=" M202.08900451660156,-20.888999938964844 C204.83099365234375,-17.211999893188477 207.5399932861328,-11.154999732971191 207.08299255371094,-3.0309998989105225 C206.44200134277344,8.376999855041504 220.0749969482422,8.687999725341797 219.7689971923828,-7.144999980926514 C219.46299743652344,-22.97800064086914 213.13999938964844,-25.97100067138672 210.5800018310547,-27.718000411987305"/></g></g><g style="display: block;" transform="matrix(1,0,0,1,256,269)" opacity="1"><g opacity="1" transform="matrix(0.9999999403953552,-0.00040142572834156454,0.00040142572834156454,0.9999999403953552,0.25,0)"><path fill="url(#__lottie_element_37968)" fill-opacity="1" d=" M123.15599822998047,-66.7040023803711 C123.15599822998047,-66.7040023803711 122.96199798583984,-78.42900085449219 128.60499572753906,-92.31900024414062 C133.56700134277344,-104.53299713134766 135.84300231933594,-115.09100341796875 136.3159942626953,-128.24600219726562 C136.78900146484375,-141.4010009765625 128.72799682617188,-152.6790008544922 130.14599609375,-167.82200622558594 C131.56399536132812,-182.96499633789062 140.89700317382812,-190.94500732421875 146.5679931640625,-190.4510040283203 C152.23899841308594,-189.95700073242188 158.25999450683594,-181.81300354003906 157.0189971923828,-165.4969940185547 C155.5570068359375,-146.27200317382812 145.64999389648438,-140.97500610351562 144.70399475097656,-127.60399627685547 C144.18600463867188,-120.27799987792969 145.00999450683594,-103.48300170898438 146.15899658203125,-94.93900299072266 C147.10800170898438,-87.88800048828125 148.93499755859375,-81.18900299072266 148.50799560546875,-77.93399810791016"/><path stroke-linecap="round" stroke-linejoin="miter" fill-opacity="0" stroke-miterlimit="4" stroke="rgb(143,110,85)" stroke-opacity="1" stroke-width="7" d=" M123.15599822998047,-66.7040023803711 C123.15599822998047,-66.7040023803711 122.96199798583984,-78.42900085449219 128.60499572753906,-92.31900024414062 C133.56700134277344,-104.53299713134766 135.84300231933594,-115.09100341796875 136.3159942626953,-128.24600219726562 C136.78900146484375,-141.4010009765625 128.72799682617188,-152.6790008544922 130.14599609375,-167.82200622558594 C131.56399536132812,-182.96499633789062 140.89700317382812,-190.94500732421875 146.5679931640625,-190.4510040283203 C152.23899841308594,-189.95700073242188 158.25999450683594,-181.81300354003906 157.0189971923828,-165.4969940185547 C155.5570068359375,-146.27200317382812 145.64999389648438,-140.97500610351562 144.70399475097656,-127.60399627685547 C144.18600463867188,-120.27799987792969 145.00999450683594,-103.48300170898438 146.15899658203125,-94.93900299072266 C147.10800170898438,-87.88800048828125 148.93499755859375,-81.18900299072266 148.50799560546875,-77.93399810791016"/></g><g opacity="1" transform="matrix(0.2757461667060852,-0.048621490597724915,0.20490483939647675,1.1620731353759766,116.98151397705078,20.05242919921875)"><path fill="url(#__lottie_element_37969)" fill-opacity="1" d=" M181.13900756835938,-123.7969970703125 C156.55499267578125,-123.12300109863281 145.70700073242188,-101.68399810791016 96.12999725341797,-85.87799835205078 C83.19000244140625,-81.75199890136719 67.11499786376953,-47.52000045776367 150.5240020751953,-50.51300048828125 C191.927001953125,-51.999000549316406 180.71600341796875,-67.32499694824219 175.06500244140625,-87.58200073242188 C172.44400024414062,-96.97799682617188 197.7449951171875,-124.25199890136719 181.13900756835938,-123.7969970703125z"/></g><g opacity="1" transform="matrix(0.9999999403953552,-0.00040142572834156454,0.00040142572834156454,0.9999999403953552,0.25,0)"><path stroke-linecap="round" stroke-linejoin="miter" fill-opacity="0" stroke-miterlimit="4" stroke="rgb(143,110,85)" stroke-opacity="1" stroke-width="7" d=" M123.15599822998047,-66.7040023803711 C123.15599822998047,-66.7040023803711 122.96199798583984,-78.42900085449219 128.60499572753906,-92.31900024414062 C133.56700134277344,-104.53299713134766 135.84300231933594,-115.09100341796875 136.3159942626953,-128.24600219726562 C136.78900146484375,-141.4010009765625 128.72799682617188,-152.6790008544922 130.14599609375,-167.82200622558594 C131.56399536132812,-182.96499633789062 140.89700317382812,-190.94500732421875 146.5679931640625,-190.4510040283203 C152.23899841308594,-189.95700073242188 158.25999450683594,-181.81300354003906 157.0189971923828,-165.4969940185547 C155.5570068359375,-146.27200317382812 145.64999389648438,-140.97500610351562 144.70399475097656,-127.60399627685547 C144.18600463867188,-120.27799987792969 145.00999450683594,-103.48300170898438 146.15899658203125,-94.93900299072266 C147.10800170898438,-87.88800048828125 148.93499755859375,-81.18900299072266 148.50799560546875,-77.93399810791016"/></g><g opacity="0.5" transform="matrix(1,0,0,1,0,0)"><path fill="rgb(233,210,172)" fill-opacity="1" d=" M144.5399932861328,-184.01499938964844 C137.2969970703125,-184.11900329589844 131.7729949951172,-177.58399963378906 131.04400634765625,-166.6929931640625 C130.31500244140625,-155.802001953125 132.0260009765625,-139.76600646972656 141.19200134277344,-138.7259979248047 C152,-137.5 156.2050018310547,-153.63800048828125 156.4739990234375,-165.43899536132812 C156.7429962158203,-177.24000549316406 153.02999877929688,-183.89300537109375 144.5399932861328,-184.01499938964844z"/></g><g opacity="1" transform="matrix(1,0,0,1,0,0)"><path fill="rgb(11,6,0)" fill-opacity="1" d=" M145.97000122070312,-187.6999969482422 C140.42300415039062,-188.36500549316406 132.74099731445312,-185.3350067138672 131.11099243164062,-165.80599975585938 C130,-152.5 136.36399841308594,-142.9499969482422 141.8090057373047,-142.63900756835938 C148.625,-142.25 156.26800537109375,-149.8459930419922 156.88800048828125,-164.88900756835938 C157.50799560546875,-179.9320068359375 151.5,-187.03700256347656 145.97000122070312,-187.6999969482422z"/></g><g opacity="1" transform="matrix(1,0,0,1,0,0)"><path fill="url(#__lottie_element_37970)" fill-opacity="1" d=" M144.8070068359375,-184.3489990234375 C142.55799865722656,-184.28500366210938 140.7760009765625,-180.1790008544922 140.697998046875,-176.52999877929688 C140.6199951171875,-172.88099670410156 142.03900146484375,-169.49099731445312 144.41900634765625,-169.30599975585938 C147.28700256347656,-169.08299255371094 148.6840057373047,-172.50900268554688 148.6060028076172,-176.45599365234375 C148.5279998779297,-180.4029998779297 147.4429931640625,-184.42300415039062 144.8070068359375,-184.3489990234375z"/></g></g></g></svg>