<svg xmlns="http://www.w3.org/2000/svg" xmlns:xlink="http://www.w3.org/1999/xlink" viewBox="0 0 512 512" width="512" height="512" style="width: 100%; height: 100%; transform: translate3d(0,0,0);" preserveAspectRatio="xMidYMid meet"><defs><clipPath id="__lottie_element_7205"><rect width="512" height="512" x="0" y="0"/></clipPath><linearGradient id="__lottie_element_7282" spreadMethod="pad" gradientUnits="userSpaceOnUse" x1="166" y1="-46" x2="204" y2="50.888999938964844"><stop offset="15%" stop-color="rgb(74,16,14)" stop-opacity="0.699999988079071"/><stop offset="26%" stop-color="rgb(78,12,12)" stop-opacity="0.3499999940395355"/><stop offset="100%" stop-color="rgb(81,8,10)" stop-opacity="0"/></linearGradient><linearGradient id="__lottie_element_7286" spreadMethod="pad" gradientUnits="userSpaceOnUse" x1="166" y1="-46" x2="204" y2="50.888999938964844"><stop offset="15%" stop-color="rgb(74,16,14)" stop-opacity="0.699999988079071"/><stop offset="26%" stop-color="rgb(78,12,12)" stop-opacity="0.3499999940395355"/><stop offset="100%" stop-color="rgb(81,8,10)" stop-opacity="0"/></linearGradient><linearGradient id="__lottie_element_7311" spreadMethod="pad" gradientUnits="userSpaceOnUse" x1="166" y1="-46" x2="204" y2="50.888999938964844"><stop offset="15%" stop-color="rgb(74,16,14)" stop-opacity="0.699999988079071"/><stop offset="26%" stop-color="rgb(78,12,12)" stop-opacity="0.3499999940395355"/><stop offset="100%" stop-color="rgb(81,8,10)" stop-opacity="0"/></linearGradient><linearGradient id="__lottie_element_7321" spreadMethod="pad" gradientUnits="userSpaceOnUse" x1="166" y1="-46" x2="204" y2="50.888999938964844"><stop offset="15%" stop-color="rgb(74,16,14)" stop-opacity="0.699999988079071"/><stop offset="26%" stop-color="rgb(78,12,12)" stop-opacity="0.3499999940395355"/><stop offset="100%" stop-color="rgb(81,8,10)" stop-opacity="0"/></linearGradient></defs><g clip-path="url(#__lottie_element_7205)"><g style="display: block;" transform="matrix(0.3415173590183258,-0.8864907026290894,0.8864907026290894,0.3415173590183258,367.2720642089844,-2.6001341342926025)" opacity="0.55"><g opacity="1" transform="matrix(1,0,0,1,0,0)"><path stroke-linecap="round" stroke-linejoin="round" fill-opacity="0" stroke-dasharray=" 56 529" stroke-dashoffset="65" stroke="rgb(243,248,255)" stroke-opacity="1" stroke-width="0" d=" M-443.25,-217.36599731445312 C-435.75299072265625,-213.09500122070312 -398.37298583984375,-187.81700134277344 -365.239990234375,-158.531005859375 C-306.9440002441406,-107.00399780273438 -254.91600036621094,-128.24600219726562 -176.88299560546875,-104.31999969482422 C-165.3489990234375,-100.78299713134766 -118.16799926757812,-89.47000122070312 -87.40799713134766,-48.54399871826172 C-55.10100173950195,-5.559999942779541 -46.058998107910156,22.599000930786133 -8.510000228881836,42.04499816894531"/></g></g><g style="display: block;" transform="matrix(0.949999988079071,0,0,0.949999988079071,150.6999969482422,196.0500030517578)" opacity="1"><g opacity="1" transform="matrix(0.9999901652336121,0.004433121997863054,-0.004433121997863054,0.9999901652336121,-0.25,0)"><path fill="rgb(31,29,27)" fill-opacity="1" d=" M236.26100158691406,21.548999786376953 C236.26100158691406,21.548999786376953 -26.610000610351562,172.58799743652344 -33.39899826049805,175.2760009765625 C-61.75,186.5 -87.09500122070312,166.4250030517578 -99.01300048828125,134.7899932861328 C-107,113.58899688720703 -110.2040023803711,93.89199829101562 -110.16899871826172,82.7229995727539 C-110.16100311279297,80.15899658203125 -109.14299774169922,86.1050033569336 -109.14299774169922,86.1050033569336 C-109.14299774169922,86.1050033569336 -102.6969985961914,161.51400756835938 -55.49800109863281,166.61599731445312 C-8.298999786376953,171.7169952392578 236.26100158691406,21.548999786376953 236.26100158691406,21.548999786376953z"/><path stroke-linecap="round" stroke-linejoin="round" fill-opacity="0" stroke="rgb(31,29,27)" stroke-opacity="1" stroke-width="5" d=" M236.26100158691406,21.548999786376953 C236.26100158691406,21.548999786376953 -26.610000610351562,172.58799743652344 -33.39899826049805,175.2760009765625 C-61.75,186.5 -87.09500122070312,166.4250030517578 -99.01300048828125,134.7899932861328 C-107,113.58899688720703 -110.2040023803711,93.89199829101562 -110.16899871826172,82.7229995727539 C-110.16100311279297,80.15899658203125 -109.14299774169922,86.1050033569336 -109.14299774169922,86.1050033569336 C-109.14299774169922,86.1050033569336 -102.6969985961914,161.51400756835938 -55.49800109863281,166.61599731445312 C-8.298999786376953,171.7169952392578 236.26100158691406,21.548999786376953 236.26100158691406,21.548999786376953z"/></g><g opacity="1" transform="matrix(1,0,0,1,-0.25,0)"><path fill="rgb(205,40,41)" fill-opacity="1" d=" M204.44900512695312,7.449999809265137 C204.44900512695312,7.449999809265137 218.31100463867188,13.593999862670898 218.31100463867188,13.593999862670898 C218.31100463867188,13.593999862670898 -33.39899826049805,158.2760009765625 -33.39899826049805,158.2760009765625 C-33.39899826049805,158.2760009765625 -49.375,169.875 -73.33200073242188,154.86500549316406 C-106.31600189208984,134.1999969482422 -95.2490005493164,87.92900085449219 -95.2490005493164,87.92900085449219 C-83.5,160.08999633789062 -60.013999938964844,159.4290008544922 -38.112998962402344,148.6199951171875 C48.75,105.75 204.44900512695312,7.449999809265137 204.44900512695312,7.449999809265137z"/><path stroke-linecap="round" stroke-linejoin="round" fill-opacity="0" stroke="rgb(169,24,23)" stroke-opacity="1" stroke-width="5" d=" M204.44900512695312,7.449999809265137 C204.44900512695312,7.449999809265137 218.31100463867188,13.593999862670898 218.31100463867188,13.593999862670898 C218.31100463867188,13.593999862670898 -33.39899826049805,158.2760009765625 -33.39899826049805,158.2760009765625 C-33.39899826049805,158.2760009765625 -49.375,169.875 -73.33200073242188,154.86500549316406 C-106.31600189208984,134.1999969482422 -95.2490005493164,87.92900085449219 -95.2490005493164,87.92900085449219 C-83.5,160.08999633789062 -60.013999938964844,159.4290008544922 -38.112998962402344,148.6199951171875 C48.75,105.75 204.44900512695312,7.449999809265137 204.44900512695312,7.449999809265137z"/></g><g opacity="1" transform="matrix(1,0,0,1,-0.5,0)"><path fill="rgb(156,24,23)" fill-opacity="1" d=" M218.31100463867188,13.593999862670898 C218.31100463867188,13.593999862670898 236.26100158691406,21.548999786376953 236.26100158691406,21.548999786376953 C236.26100158691406,21.548999786376953 -33.39899826049805,175.2760009765625 -33.39899826049805,175.2760009765625 C-50.75,183.25 -58.34600067138672,178.82699584960938 -69.64600372314453,171.58399963378906 C-88.75,159.33900451660156 -100.5979995727539,134.97900390625 -106.14299774169922,87.8550033569336 C-106.4990005493164,84.82599639892578 -95.76399993896484,84.9229965209961 -95.2490005493164,87.92900085449219 C-89.04100036621094,124.19400024414062 -73.625,154.625 -57.606998443603516,158.0989990234375 C-47.57099914550781,160.27499389648438 -42.875,161.875 -33.14899826049805,158.1510009765625 C-33.14899826049805,158.1510009765625 218.31100463867188,13.593999862670898 218.31100463867188,13.593999862670898z"/><path stroke-linecap="round" stroke-linejoin="round" fill-opacity="0" stroke="rgb(142,3,3)" stroke-opacity="1" stroke-width="5" d=" M218.31100463867188,13.593999862670898 C218.31100463867188,13.593999862670898 236.26100158691406,21.548999786376953 236.26100158691406,21.548999786376953 C236.26100158691406,21.548999786376953 -33.39899826049805,175.2760009765625 -33.39899826049805,175.2760009765625 C-50.75,183.25 -58.34600067138672,178.82699584960938 -69.64600372314453,171.58399963378906 C-88.75,159.33900451660156 -100.5979995727539,134.97900390625 -106.14299774169922,87.8550033569336 C-106.4990005493164,84.82599639892578 -95.76399993896484,84.9229965209961 -95.2490005493164,87.92900085449219 C-89.04100036621094,124.19400024414062 -73.625,154.625 -57.606998443603516,158.0989990234375 C-47.57099914550781,160.27499389648438 -42.875,161.875 -33.14899826049805,158.1510009765625 C-33.14899826049805,158.1510009765625 218.31100463867188,13.593999862670898 218.31100463867188,13.593999862670898z"/></g><g opacity="1" transform="matrix(1,0,0,1,-0.5,0)"><path stroke-linecap="round" stroke-linejoin="round" fill-opacity="0" stroke="rgb(234,69,69)" stroke-opacity="1" stroke-width="5" d=" M-95.2490005493164,87.92900085449219 C-91,123.58999633789062 -76.53399658203125,149.38800048828125 -57.981998443603516,157.8489990234375 C-50.25,161.375 -40,160.75 -33.39899826049805,158.2760009765625 C-33.39899826049805,158.2760009765625 218.31100463867188,13.593999862670898 218.31100463867188,13.593999862670898"/></g><g opacity="1" transform="matrix(1,0,0,1,0.20399999618530273,-0.2879999876022339)"><path stroke-linecap="round" stroke-linejoin="round" fill-opacity="0" stroke="rgb(31,29,27)" stroke-opacity="1" stroke-width="5" d=" M212.8990020751953,34.459999084472656 C212.8990020751953,34.459999084472656 -33.39899826049805,175.2760009765625 -33.39899826049805,175.2760009765625 C-52.55799865722656,183.8070068359375 -58.96099853515625,179.2530059814453 -70.14600372314453,171.83399963378906 C-92,157.33900451660156 -102.375,134.33900451660156 -108.39299774169922,86.6050033569336"/></g><g opacity="1" transform="matrix(1,0,0,1,0,0)"><path stroke-linecap="round" stroke-linejoin="round" fill-opacity="0" stroke="rgb(234,69,69)" stroke-opacity="1" stroke-width="5" d=" M218.31100463867188,13.593999862670898 C218.31100463867188,13.593999862670898 236.26100158691406,21.548999786376953 236.26100158691406,21.548999786376953"/></g></g><g style="display: block;" transform="matrix(0.949999988079071,0,0,0.949999988079071,145.2375030517578,183.6999969482422)" opacity="1"><g opacity="1" transform="matrix(1,0,0,1,0,0)"><path fill="rgb(144,25,25)" fill-opacity="1" d=" M176.1739959716797,-38.6510009765625 C176.1739959716797,-38.6510009765625 175.2570037841797,51.08100128173828 175.2570037841797,51.08100128173828 C175.2570037841797,51.08100128173828 163.69700622558594,58.23899841308594 163.69700622558594,58.23899841308594 C163.69700622558594,58.23899841308594 164.61399841308594,-41.79100036621094 164.61399841308594,-41.79100036621094 C164.61399841308594,-41.79100036621094 171.1699981689453,-39.04399871826172 171.1699981689453,-39.04399871826172 C171.1699981689453,-39.04399871826172 176.1739959716797,-38.6510009765625 176.1739959716797,-38.6510009765625z"/><path stroke-linecap="round" stroke-linejoin="round" fill-opacity="0" stroke="rgb(128,16,14)" stroke-opacity="1" stroke-width="5" d=" M176.1739959716797,-38.6510009765625 C176.1739959716797,-38.6510009765625 175.2570037841797,51.08100128173828 175.2570037841797,51.08100128173828 C175.2570037841797,51.08100128173828 163.69700622558594,58.23899841308594 163.69700622558594,58.23899841308594 C163.69700622558594,58.23899841308594 164.61399841308594,-41.79100036621094 164.61399841308594,-41.79100036621094 C164.61399841308594,-41.79100036621094 171.1699981689453,-39.04399871826172 171.1699981689453,-39.04399871826172 C171.1699981689453,-39.04399871826172 176.1739959716797,-38.6510009765625 176.1739959716797,-38.6510009765625z"/></g><g opacity="1" transform="matrix(1,0,0,1,0,0)"><path fill="rgb(175,39,39)" fill-opacity="1" d=" M164.61399841308594,-41.79100036621094 C164.61399841308594,-41.79100036621094 163.69700622558594,58.23899841308594 163.69700622558594,58.23899841308594 C163.69700622558594,58.23899841308594 155.12600708007812,53.04199981689453 155.12600708007812,53.04199981689453 C155.12600708007812,53.04199981689453 156.04400634765625,-46.97800064086914 156.04400634765625,-46.97800064086914 C156.04400634765625,-46.97800064086914 164.61399841308594,-41.79100036621094 164.61399841308594,-41.79100036621094z"/><path stroke-linecap="round" stroke-linejoin="round" fill-opacity="0" stroke="rgb(175,39,39)" stroke-opacity="1" stroke-width="5" d=" M164.61399841308594,-41.79100036621094 C164.61399841308594,-41.79100036621094 163.69700622558594,58.23899841308594 163.69700622558594,58.23899841308594 C163.69700622558594,58.23899841308594 155.12600708007812,53.04199981689453 155.12600708007812,53.04199981689453 C155.12600708007812,53.04199981689453 156.04400634765625,-46.97800064086914 156.04400634765625,-46.97800064086914 C156.04400634765625,-46.97800064086914 164.61399841308594,-41.79100036621094 164.61399841308594,-41.79100036621094z"/></g><g opacity="1" transform="matrix(1,0,0,1,0,0)"><path fill="url(#__lottie_element_7321)" fill-opacity="1" d=" M161.99899291992188,-43.4640007019043 C161.99899291992188,-43.4640007019043 161.45599365234375,57.07600021362305 161.45599365234375,57.07600021362305 C161.45599365234375,57.07600021362305 176.7550048828125,49.290000915527344 176.7550048828125,49.290000915527344 C176.7550048828125,49.290000915527344 178.67300415039062,-37.064998626708984 178.67300415039062,-37.064998626708984 C178.67300415039062,-37.064998626708984 161.99899291992188,-43.4640007019043 161.99899291992188,-43.4640007019043z"/></g></g><g style="display: block;" transform="matrix(0.949999988079071,0,0,0.949999988079071,231.80624389648438,237.0187530517578)" opacity="1"><g opacity="1" transform="matrix(1,0,0,1,0,0)"><path fill="rgb(51,51,51)" fill-opacity="1" d=" M74.38800048828125,-13.262999534606934 C74.38800048828125,-13.262999534606934 74.38800048828125,23.0939998626709 74.38800048828125,23.0939998626709 C74.38800048828125,23.0939998626709 87.76899719238281,15.321000099182129 87.76899719238281,15.321000099182129 C87.76899719238281,15.321000099182129 87.76899719238281,-19.158000946044922 87.76899719238281,-19.158000946044922 C87.76899719238281,-19.158000946044922 74.38800048828125,-13.262999534606934 74.38800048828125,-13.262999534606934z"/><path stroke-linecap="round" stroke-linejoin="round" fill-opacity="0" stroke="rgb(31,29,27)" stroke-opacity="1" stroke-width="5" d=" M74.38800048828125,-13.262999534606934 C74.38800048828125,-13.262999534606934 74.38800048828125,23.0939998626709 74.38800048828125,23.0939998626709 C74.38800048828125,23.0939998626709 87.76899719238281,15.321000099182129 87.76899719238281,15.321000099182129 C87.76899719238281,15.321000099182129 87.76899719238281,-19.158000946044922 87.76899719238281,-19.158000946044922 C87.76899719238281,-19.158000946044922 74.38800048828125,-13.262999534606934 74.38800048828125,-13.262999534606934z"/></g></g><g style="display: block;" transform="matrix(0.949999988079071,0,0,0.949999988079071,231.80624389648438,237.0187530517578)" opacity="1"><g opacity="1" transform="matrix(1,0,0,1,0,0)"><path fill="rgb(109,109,109)" fill-opacity="1" d=" M83.30400085449219,8.157999992370605 C83.30400085449219,9.722000122070312 82.48999786376953,10.989999771118164 81.48600006103516,10.989999771118164 C80.48200225830078,10.989999771118164 79.66799926757812,9.722000122070312 79.66799926757812,8.157999992370605 C79.66799926757812,6.593999862670898 80.48200225830078,5.326000213623047 81.48600006103516,5.326000213623047 C82.48999786376953,5.326000213623047 83.30400085449219,6.593999862670898 83.30400085449219,8.157999992370605z"/></g></g><g style="display: block;" transform="matrix(0.949999988079071,0,0,0.949999988079071,16.750003814697266,251.8625030517578)" opacity="1"><g opacity="1" transform="matrix(1,0,0,1,0,0)"><path fill="rgb(174,39,39)" fill-opacity="1" d=" M164.61399841308594,-41.79100036621094 C164.61399841308594,-41.79100036621094 163.69700622558594,58.23899841308594 163.69700622558594,58.23899841308594 C163.69700622558594,58.23899841308594 155.12600708007812,53.04199981689453 155.12600708007812,53.04199981689453 C155.12600708007812,53.04199981689453 156.04400634765625,-46.97800064086914 156.04400634765625,-46.97800064086914 C156.04400634765625,-46.97800064086914 164.61399841308594,-41.79100036621094 164.61399841308594,-41.79100036621094z"/><path stroke-linecap="round" stroke-linejoin="round" fill-opacity="0" stroke="rgb(175,39,39)" stroke-opacity="1" stroke-width="5" d=" M164.61399841308594,-41.79100036621094 C164.61399841308594,-41.79100036621094 163.69700622558594,58.23899841308594 163.69700622558594,58.23899841308594 C163.69700622558594,58.23899841308594 155.12600708007812,53.04199981689453 155.12600708007812,53.04199981689453 C155.12600708007812,53.04199981689453 156.04400634765625,-46.97800064086914 156.04400634765625,-46.97800064086914 C156.04400634765625,-46.97800064086914 164.61399841308594,-41.79100036621094 164.61399841308594,-41.79100036621094z"/></g><g opacity="1" transform="matrix(1,0,0,1,0,0)"><path fill="rgb(144,25,25)" fill-opacity="1" d=" M176.1739959716797,-38.6510009765625 C176.1739959716797,-38.6510009765625 175.2570037841797,51.08100128173828 175.2570037841797,51.08100128173828 C175.2570037841797,51.08100128173828 163.69700622558594,58.23899841308594 163.69700622558594,58.23899841308594 C163.69700622558594,58.23899841308594 164.61399841308594,-41.79100036621094 164.61399841308594,-41.79100036621094 C164.61399841308594,-41.79100036621094 171.1699981689453,-39.04399871826172 171.1699981689453,-39.04399871826172 C171.1699981689453,-39.04399871826172 176.1739959716797,-38.6510009765625 176.1739959716797,-38.6510009765625z"/><path stroke-linecap="round" stroke-linejoin="round" fill-opacity="0" stroke="rgb(128,16,14)" stroke-opacity="1" stroke-width="5" d=" M176.1739959716797,-38.6510009765625 C176.1739959716797,-38.6510009765625 175.2570037841797,51.08100128173828 175.2570037841797,51.08100128173828 C175.2570037841797,51.08100128173828 163.69700622558594,58.23899841308594 163.69700622558594,58.23899841308594 C163.69700622558594,58.23899841308594 164.61399841308594,-41.79100036621094 164.61399841308594,-41.79100036621094 C164.61399841308594,-41.79100036621094 171.1699981689453,-39.04399871826172 171.1699981689453,-39.04399871826172 C171.1699981689453,-39.04399871826172 176.1739959716797,-38.6510009765625 176.1739959716797,-38.6510009765625z"/></g><g opacity="1" transform="matrix(1,0,0,1,0,0)"><path fill="url(#__lottie_element_7311)" fill-opacity="1" d=" M161.99899291992188,-43.4640007019043 C161.99899291992188,-43.4640007019043 161.45599365234375,57.07600021362305 161.45599365234375,57.07600021362305 C161.45599365234375,57.07600021362305 176.7550048828125,49.290000915527344 176.7550048828125,49.290000915527344 C176.7550048828125,49.290000915527344 178.67300415039062,-37.064998626708984 178.67300415039062,-37.064998626708984 C178.67300415039062,-37.064998626708984 161.99899291992188,-43.4640007019043 161.99899291992188,-43.4640007019043z"/></g></g><g style="display: block;" transform="matrix(0.949999988079071,0,0,0.949999988079071,250.6875,243.07501220703125)" opacity="1"><g opacity="1" transform="matrix(1,0,0,1,0,0)"><path fill="rgb(51,51,51)" fill-opacity="1" d=" M-80.02300262451172,54.941001892089844 C-80.02300262451172,54.941001892089844 -80.02300262451172,91.96199798583984 -80.02300262451172,91.96199798583984 C-80.02300262451172,91.96199798583984 -67.45800018310547,86.375 -67.45800018310547,86.375 C-67.45800018310547,86.375 -67.45800018310547,49.487998962402344 -67.45800018310547,49.487998962402344 C-67.45800018310547,49.487998962402344 -80.02300262451172,54.941001892089844 -80.02300262451172,54.941001892089844z"/><path stroke-linecap="round" stroke-linejoin="round" fill-opacity="0" stroke="rgb(31,29,27)" stroke-opacity="1" stroke-width="5" d=" M-80.02300262451172,54.941001892089844 C-80.02300262451172,54.941001892089844 -80.02300262451172,91.96199798583984 -80.02300262451172,91.96199798583984 C-80.02300262451172,91.96199798583984 -67.45800018310547,86.375 -67.45800018310547,86.375 C-67.45800018310547,86.375 -67.45800018310547,49.487998962402344 -67.45800018310547,49.487998962402344 C-67.45800018310547,49.487998962402344 -80.02300262451172,54.941001892089844 -80.02300262451172,54.941001892089844z"/></g></g><g style="display: block;" transform="matrix(0.949999988079071,0,0,0.949999988079071,250.6875,243.07501220703125)" opacity="1"><g opacity="1" transform="matrix(1,0,0,1,0,0)"><path fill="rgb(109,109,109)" fill-opacity="1" d=" M-71.63500213623047,77.01399993896484 C-71.63500213623047,78.5780029296875 -72.4489974975586,79.84600067138672 -73.4530029296875,79.84600067138672 C-74.45700073242188,79.84600067138672 -75.27100372314453,78.5780029296875 -75.27100372314453,77.01399993896484 C-75.27100372314453,75.44999694824219 -74.45700073242188,74.18199920654297 -73.4530029296875,74.18199920654297 C-72.4489974975586,74.18199920654297 -71.63500213623047,75.44999694824219 -71.63500213623047,77.01399993896484z"/></g></g><g style="display: block;" transform="matrix(0.949999988079071,0,0,0.949999988079071,247.125,254)" opacity="1"><g opacity="1" transform="matrix(1,0,0,1,0,0)"><path stroke-linecap="round" stroke-linejoin="round" fill-opacity="0" stroke="rgb(76,76,76)" stroke-opacity="1" stroke-width="9" d=" M-40.323001861572266,-18.908000946044922 C-40.323001861572266,-18.908000946044922 -70.73999786376953,59 -70.73999786376953,59"/></g></g><g style="display: block;" transform="matrix(0.949999988079071,0,0,0.949999988079071,247.125,254)" opacity="1"><g opacity="1" transform="matrix(1,0,0,1,0,0)"><path stroke-linecap="round" stroke-linejoin="round" fill-opacity="0" stroke="rgb(76,76,76)" stroke-opacity="1" stroke-width="9" d=" M97.28800201416016,-99.48500061035156 C97.28800201416016,-99.48500061035156 64.62000274658203,-23.826000213623047 64.62000274658203,-23.826000213623047"/></g></g><g style="display: block;" transform="matrix(0.949999988079071,0,0,0.949999988079071,247.125,254)" opacity="1"><g opacity="1" transform="matrix(1,0,0,1,0,0)"><path stroke-linecap="round" stroke-linejoin="round" fill-opacity="0" stroke="rgb(76,76,76)" stroke-opacity="1" stroke-width="9" d=" M123.97799682617188,-82.68800354003906 C123.97799682617188,-82.68800354003906 159.67799377441406,27.392000198364258 159.67799377441406,27.392000198364258"/></g><g opacity="1" transform="matrix(1,0,0,1,0,0)"><path stroke-linecap="round" stroke-linejoin="round" fill-opacity="0" stroke="rgb(109,109,109)" stroke-opacity="1" stroke-width="5" d=" M137.60000610351562,-41.23699951171875 C137.60000610351562,-41.23699951171875 149.58099365234375,-4.460000038146973 149.58099365234375,-4.460000038146973"/></g></g><g style="display: block;" transform="matrix(0.949999988079071,0,0,0.949999988079071,247.125,254)" opacity="1"><g opacity="1" transform="matrix(1,0,0,1,0,0)"><path stroke-linecap="round" stroke-linejoin="round" fill-opacity="0" stroke="rgb(76,76,76)" stroke-opacity="1" stroke-width="9" d=" M-12.131999969482422,-7.361000061035156 C-12.131999969482422,-7.361000061035156 23.816999435424805,96.46900177001953 23.816999435424805,96.46900177001953"/></g><g opacity="1" transform="matrix(1,0,0,1,0,0)"><path stroke-linecap="round" stroke-linejoin="round" fill-opacity="0" stroke="rgb(109,109,109)" stroke-opacity="1" stroke-width="5" d=" M-1.159000039100647,24.98200035095215 C-1.159000039100647,24.98200035095215 11.916999816894531,63.65399932861328 11.916999816894531,63.65399932861328"/></g></g><g style="display: block;" transform="matrix(0.949999988079071,0,0,0.949999988079071,247.125,254)" opacity="1"><g opacity="1" transform="matrix(0.9999931454658508,0.003700089640915394,-0.003700089640915394,0.9999931454658508,-0.25,0)"><path fill="rgb(31,29,27)" fill-opacity="1" d=" M236.26100158691406,21.548999786376953 C236.26100158691406,21.548999786376953 -26.610000610351562,172.58799743652344 -33.39899826049805,175.2760009765625 C-61.75,186.5 -87.09500122070312,166.4250030517578 -99.01300048828125,134.7899932861328 C-107,113.58899688720703 -110.2040023803711,93.89199829101562 -110.16899871826172,82.7229995727539 C-110.16100311279297,80.15899658203125 -109.14299774169922,86.1050033569336 -109.14299774169922,86.1050033569336 C-109.14299774169922,86.1050033569336 -102.6969985961914,161.51400756835938 -55.49800109863281,166.61599731445312 C-8.298999786376953,171.7169952392578 236.26100158691406,21.548999786376953 236.26100158691406,21.548999786376953z"/><path stroke-linecap="round" stroke-linejoin="round" fill-opacity="0" stroke="rgb(31,29,27)" stroke-opacity="1" stroke-width="5" d=" M236.26100158691406,21.548999786376953 C236.26100158691406,21.548999786376953 -26.610000610351562,172.58799743652344 -33.39899826049805,175.2760009765625 C-61.75,186.5 -87.09500122070312,166.4250030517578 -99.01300048828125,134.7899932861328 C-107,113.58899688720703 -110.2040023803711,93.89199829101562 -110.16899871826172,82.7229995727539 C-110.16100311279297,80.15899658203125 -109.14299774169922,86.1050033569336 -109.14299774169922,86.1050033569336 C-109.14299774169922,86.1050033569336 -102.6969985961914,161.51400756835938 -55.49800109863281,166.61599731445312 C-8.298999786376953,171.7169952392578 236.26100158691406,21.548999786376953 236.26100158691406,21.548999786376953z"/></g><g opacity="1" transform="matrix(1,0,0,1,-0.25,0)"><path fill="rgb(226,49,50)" fill-opacity="1" d=" M204.44900512695312,7.449999809265137 C204.44900512695312,7.449999809265137 218.31100463867188,13.593999862670898 218.31100463867188,13.593999862670898 C218.31100463867188,13.593999862670898 -33.39899826049805,158.2760009765625 -33.39899826049805,158.2760009765625 C-33.39899826049805,158.2760009765625 -49.375,169.875 -73.33200073242188,154.86500549316406 C-106.31600189208984,134.1999969482422 -95.2490005493164,87.92900085449219 -95.2490005493164,87.92900085449219 C-83.5,160.08999633789062 -59.185001373291016,160.96800231933594 -38.112998962402344,148.6199951171875 C36.75,104.75 204.44900512695312,7.449999809265137 204.44900512695312,7.449999809265137z"/><path stroke-linecap="round" stroke-linejoin="round" fill-opacity="0" stroke="rgb(186,28,27)" stroke-opacity="1" stroke-width="5" d=" M204.44900512695312,7.449999809265137 C204.44900512695312,7.449999809265137 218.31100463867188,13.593999862670898 218.31100463867188,13.593999862670898 C218.31100463867188,13.593999862670898 -33.39899826049805,158.2760009765625 -33.39899826049805,158.2760009765625 C-33.39899826049805,158.2760009765625 -49.375,169.875 -73.33200073242188,154.86500549316406 C-106.31600189208984,134.1999969482422 -95.2490005493164,87.92900085449219 -95.2490005493164,87.92900085449219 C-83.5,160.08999633789062 -59.185001373291016,160.96800231933594 -38.112998962402344,148.6199951171875 C36.75,104.75 204.44900512695312,7.449999809265137 204.44900512695312,7.449999809265137z"/></g><g opacity="1" transform="matrix(1,0,0,1,-0.5,0)"><path fill="rgb(188,30,29)" fill-opacity="1" d=" M218.31100463867188,13.593999862670898 C218.31100463867188,13.593999862670898 236.26100158691406,21.548999786376953 236.26100158691406,21.548999786376953 C236.26100158691406,21.548999786376953 -33.39899826049805,175.2760009765625 -33.39899826049805,175.2760009765625 C-50.75,183.25 -58.34600067138672,178.82699584960938 -69.64600372314453,171.58399963378906 C-88.75,159.33900451660156 -100.5979995727539,134.97900390625 -106.14299774169922,87.8550033569336 C-106.4990005493164,84.82599639892578 -95.76399993896484,84.9229965209961 -95.2490005493164,87.92900085449219 C-89.04100036621094,124.19400024414062 -73.625,154.625 -57.606998443603516,158.0989990234375 C-47.57099914550781,160.27499389648438 -42.875,161.875 -33.14899826049805,158.1510009765625 C-33.14899826049805,158.1510009765625 218.31100463867188,13.593999862670898 218.31100463867188,13.593999862670898z"/><path stroke-linecap="round" stroke-linejoin="round" fill-opacity="0" stroke="rgb(142,3,3)" stroke-opacity="1" stroke-width="5" d=" M218.31100463867188,13.593999862670898 C218.31100463867188,13.593999862670898 236.26100158691406,21.548999786376953 236.26100158691406,21.548999786376953 C236.26100158691406,21.548999786376953 -33.39899826049805,175.2760009765625 -33.39899826049805,175.2760009765625 C-50.75,183.25 -58.34600067138672,178.82699584960938 -69.64600372314453,171.58399963378906 C-88.75,159.33900451660156 -100.5979995727539,134.97900390625 -106.14299774169922,87.8550033569336 C-106.4990005493164,84.82599639892578 -95.76399993896484,84.9229965209961 -95.2490005493164,87.92900085449219 C-89.04100036621094,124.19400024414062 -73.625,154.625 -57.606998443603516,158.0989990234375 C-47.57099914550781,160.27499389648438 -42.875,161.875 -33.14899826049805,158.1510009765625 C-33.14899826049805,158.1510009765625 218.31100463867188,13.593999862670898 218.31100463867188,13.593999862670898z"/></g><g opacity="1" transform="matrix(1,0,0,1,-0.5,0)"><path stroke-linecap="round" stroke-linejoin="round" fill-opacity="0" stroke="rgb(255,77,77)" stroke-opacity="1" stroke-width="5" d=" M-95.2490005493164,87.92900085449219 C-91,123.58999633789062 -76.53399658203125,149.38800048828125 -57.981998443603516,157.8489990234375 C-50.25,161.375 -40,160.75 -33.39899826049805,158.2760009765625 C-33.39899826049805,158.2760009765625 218.31100463867188,13.593999862670898 218.31100463867188,13.593999862670898"/></g><g opacity="1" transform="matrix(1,0,0,1,0.20399999618530273,-0.2879999876022339)"><path stroke-linecap="round" stroke-linejoin="round" fill-opacity="0" stroke="rgb(31,29,27)" stroke-opacity="1" stroke-width="5" d=" M212.8990020751953,34.459999084472656 C212.8990020751953,34.459999084472656 -33.39899826049805,175.2760009765625 -33.39899826049805,175.2760009765625 C-52.55799865722656,183.8070068359375 -58.96099853515625,179.2530059814453 -70.14600372314453,171.83399963378906 C-92,157.33900451660156 -102.375,134.33900451660156 -108.39299774169922,86.6050033569336"/></g><g opacity="1" transform="matrix(1,0,0,1,0,0)"><path stroke-linecap="round" stroke-linejoin="round" fill-opacity="0" stroke="rgb(255,77,77)" stroke-opacity="1" stroke-width="5" d=" M218.31100463867188,13.593999862670898 C218.31100463867188,13.593999862670898 236.26100158691406,21.548999786376953 236.26100158691406,21.548999786376953"/></g></g><g style="display: block;" transform="matrix(0.949999988079071,0,0,0.949999988079071,117.45000457763672,311.7124938964844)" opacity="1"><g opacity="1" transform="matrix(1,0,0,1,0,0)"><path fill="rgb(202,36,36)" fill-opacity="1" d=" M176.1739959716797,-38.6510009765625 C176.1739959716797,-38.6510009765625 175.2570037841797,51.08100128173828 175.2570037841797,51.08100128173828 C175.2570037841797,51.08100128173828 163.69700622558594,58.23899841308594 163.69700622558594,58.23899841308594 C163.69700622558594,58.23899841308594 164.61399841308594,-41.79100036621094 164.61399841308594,-41.79100036621094 C164.61399841308594,-41.79100036621094 171.1699981689453,-39.04399871826172 171.1699981689453,-39.04399871826172 C171.1699981689453,-39.04399871826172 176.1739959716797,-38.6510009765625 176.1739959716797,-38.6510009765625z"/><path stroke-linecap="round" stroke-linejoin="round" fill-opacity="0" stroke="rgb(178,21,21)" stroke-opacity="1" stroke-width="5" d=" M176.1739959716797,-38.6510009765625 C176.1739959716797,-38.6510009765625 175.2570037841797,51.08100128173828 175.2570037841797,51.08100128173828 C175.2570037841797,51.08100128173828 163.69700622558594,58.23899841308594 163.69700622558594,58.23899841308594 C163.69700622558594,58.23899841308594 164.61399841308594,-41.79100036621094 164.61399841308594,-41.79100036621094 C164.61399841308594,-41.79100036621094 171.1699981689453,-39.04399871826172 171.1699981689453,-39.04399871826172 C171.1699981689453,-39.04399871826172 176.1739959716797,-38.6510009765625 176.1739959716797,-38.6510009765625z"/></g><g opacity="1" transform="matrix(1,0,0,1,0,0)"><path fill="rgb(171,27,26)" fill-opacity="1" d=" M164.61399841308594,-41.79100036621094 C164.61399841308594,-41.79100036621094 163.69700622558594,58.23899841308594 163.69700622558594,58.23899841308594 C163.69700622558594,58.23899841308594 155.12600708007812,53.04199981689453 155.12600708007812,53.04199981689453 C155.12600708007812,53.04199981689453 156.04400634765625,-46.97800064086914 156.04400634765625,-46.97800064086914 C156.04400634765625,-46.97800064086914 164.61399841308594,-41.79100036621094 164.61399841308594,-41.79100036621094z"/><path stroke-linecap="round" stroke-linejoin="round" fill-opacity="0" stroke="rgb(171,27,26)" stroke-opacity="1" stroke-width="5" d=" M164.61399841308594,-41.79100036621094 C164.61399841308594,-41.79100036621094 163.69700622558594,58.23899841308594 163.69700622558594,58.23899841308594 C163.69700622558594,58.23899841308594 155.12600708007812,53.04199981689453 155.12600708007812,53.04199981689453 C155.12600708007812,53.04199981689453 156.04400634765625,-46.97800064086914 156.04400634765625,-46.97800064086914 C156.04400634765625,-46.97800064086914 164.61399841308594,-41.79100036621094 164.61399841308594,-41.79100036621094z"/></g><g opacity="1" transform="matrix(1,0,0,1,0,0)"><path fill="url(#__lottie_element_7286)" fill-opacity="1" d=" M161.99899291992188,-43.4640007019043 C161.99899291992188,-43.4640007019043 161.45599365234375,57.07600021362305 161.45599365234375,57.07600021362305 C161.45599365234375,57.07600021362305 176.7550048828125,49.290000915527344 176.7550048828125,49.290000915527344 C176.7550048828125,49.290000915527344 178.67300415039062,-37.064998626708984 178.67300415039062,-37.064998626708984 C178.67300415039062,-37.064998626708984 161.99899291992188,-43.4640007019043 161.99899291992188,-43.4640007019043z"/></g></g><g style="display: block;" transform="matrix(0.949999988079071,0,0,0.949999988079071,246.41250610351562,238.08749389648438)" opacity="1"><g opacity="1" transform="matrix(1,0,0,1,0,0)"><path fill="rgb(202,36,36)" fill-opacity="1" d=" M176.1739959716797,-38.6510009765625 C176.1739959716797,-38.6510009765625 175.2570037841797,51.08100128173828 175.2570037841797,51.08100128173828 C175.2570037841797,51.08100128173828 163.69700622558594,58.23899841308594 163.69700622558594,58.23899841308594 C163.69700622558594,58.23899841308594 164.61399841308594,-41.79100036621094 164.61399841308594,-41.79100036621094 C164.61399841308594,-41.79100036621094 171.1699981689453,-39.04399871826172 171.1699981689453,-39.04399871826172 C171.1699981689453,-39.04399871826172 176.1739959716797,-38.6510009765625 176.1739959716797,-38.6510009765625z"/><path stroke-linecap="round" stroke-linejoin="round" fill-opacity="0" stroke="rgb(177,20,20)" stroke-opacity="1" stroke-width="5" d=" M176.1739959716797,-38.6510009765625 C176.1739959716797,-38.6510009765625 175.2570037841797,51.08100128173828 175.2570037841797,51.08100128173828 C175.2570037841797,51.08100128173828 163.69700622558594,58.23899841308594 163.69700622558594,58.23899841308594 C163.69700622558594,58.23899841308594 164.61399841308594,-41.79100036621094 164.61399841308594,-41.79100036621094 C164.61399841308594,-41.79100036621094 171.1699981689453,-39.04399871826172 171.1699981689453,-39.04399871826172 C171.1699981689453,-39.04399871826172 176.1739959716797,-38.6510009765625 176.1739959716797,-38.6510009765625z"/></g><g opacity="1" transform="matrix(1,0,0,1,0,0)"><path fill="rgb(170,26,25)" fill-opacity="1" d=" M164.61399841308594,-41.79100036621094 C164.61399841308594,-41.79100036621094 163.69700622558594,58.23899841308594 163.69700622558594,58.23899841308594 C163.69700622558594,58.23899841308594 155.12600708007812,53.04199981689453 155.12600708007812,53.04199981689453 C155.12600708007812,53.04199981689453 156.04400634765625,-46.97800064086914 156.04400634765625,-46.97800064086914 C156.04400634765625,-46.97800064086914 164.61399841308594,-41.79100036621094 164.61399841308594,-41.79100036621094z"/><path stroke-linecap="round" stroke-linejoin="round" fill-opacity="0" stroke="rgb(171,27,26)" stroke-opacity="1" stroke-width="5" d=" M164.61399841308594,-41.79100036621094 C164.61399841308594,-41.79100036621094 163.69700622558594,58.23899841308594 163.69700622558594,58.23899841308594 C163.69700622558594,58.23899841308594 155.12600708007812,53.04199981689453 155.12600708007812,53.04199981689453 C155.12600708007812,53.04199981689453 156.04400634765625,-46.97800064086914 156.04400634765625,-46.97800064086914 C156.04400634765625,-46.97800064086914 164.61399841308594,-41.79100036621094 164.61399841308594,-41.79100036621094z"/></g><g opacity="1" transform="matrix(1,0,0,1,0,0)"><path fill="url(#__lottie_element_7282)" fill-opacity="1" d=" M161.99899291992188,-43.4640007019043 C161.99899291992188,-43.4640007019043 161.45599365234375,57.07600021362305 161.45599365234375,57.07600021362305 C161.45599365234375,57.07600021362305 176.7550048828125,49.290000915527344 176.7550048828125,49.290000915527344 C176.7550048828125,49.290000915527344 178.67300415039062,-37.064998626708984 178.67300415039062,-37.064998626708984 C178.67300415039062,-37.064998626708984 161.99899291992188,-43.4640007019043 161.99899291992188,-43.4640007019043z"/></g></g><g style="display: block;" transform="matrix(0.949999988079071,0,0,0.949999988079071,247.125,254)" opacity="1"><g opacity="1" transform="matrix(1,0,0,1,0,0)"><path fill="rgb(144,23,23)" fill-opacity="1" d=" M42.12699890136719,-124.4800033569336 C42.12699890136719,-124.4800033569336 42.12699890136719,-139.80099487304688 42.12699890136719,-139.80099487304688 C42.12699890136719,-139.80099487304688 173.4340057373047,-63.29899978637695 173.4340057373047,-63.29899978637695 C173.4340057373047,-63.29899978637695 184.01300048828125,-70.20800018310547 184.01300048828125,-70.20800018310547 C184.01300048828125,-70.20800018310547 184.01300048828125,-54.887001037597656 184.01300048828125,-54.887001037597656 C184.01300048828125,-54.887001037597656 173.4340057373047,-47.97800064086914 173.4340057373047,-47.97800064086914 C173.4340057373047,-47.97800064086914 42.12699890136719,-124.37100219726562 42.12699890136719,-124.37100219726562"/><path stroke-linecap="round" stroke-linejoin="round" fill-opacity="0" stroke="rgb(144,23,23)" stroke-opacity="1" stroke-width="5" d=" M42.12699890136719,-124.4800033569336 C42.12699890136719,-124.4800033569336 42.12699890136719,-139.80099487304688 42.12699890136719,-139.80099487304688 C42.12699890136719,-139.80099487304688 173.4340057373047,-63.29899978637695 173.4340057373047,-63.29899978637695 C173.4340057373047,-63.29899978637695 184.01300048828125,-70.20800018310547 184.01300048828125,-70.20800018310547 C184.01300048828125,-70.20800018310547 184.01300048828125,-54.887001037597656 184.01300048828125,-54.887001037597656 C184.01300048828125,-54.887001037597656 173.4340057373047,-47.97800064086914 173.4340057373047,-47.97800064086914 C173.4340057373047,-47.97800064086914 42.12699890136719,-124.37100219726562 42.12699890136719,-124.37100219726562"/></g><g opacity="1" transform="matrix(1,0,0,1,0,0)"><path stroke-linecap="round" stroke-linejoin="round" fill-opacity="0" stroke="rgb(128,16,14)" stroke-opacity="1" stroke-width="5" d=" M184.01300048828125,-54.887001037597656 C184.01300048828125,-54.887001037597656 173.4340057373047,-47.97800064086914 173.4340057373047,-47.97800064086914 C173.4340057373047,-47.97800064086914 42.12699890136719,-124.37100219726562 42.12699890136719,-124.37100219726562"/></g><g opacity="1" transform="matrix(1,0,0,1,0,0)"><path fill="rgb(219,28,28)" fill-opacity="1" d=" M53.20600128173828,-144.6020050048828 C53.20600128173828,-144.6020050048828 42.12699890136719,-139.69200134277344 42.12699890136719,-139.69200134277344 C42.12699890136719,-139.69200134277344 173.4340057373047,-63.29899978637695 173.4340057373047,-63.29899978637695 C173.4340057373047,-63.29899978637695 184.01300048828125,-70.20800018310547 184.01300048828125,-70.20800018310547 C184.01300048828125,-70.20800018310547 53.20600128173828,-144.6020050048828 53.20600128173828,-144.6020050048828z"/><path stroke-linecap="round" stroke-linejoin="round" fill-opacity="0" stroke="rgb(175,3,3)" stroke-opacity="1" stroke-width="5" d=" M53.20600128173828,-144.6020050048828 C53.20600128173828,-144.6020050048828 42.12699890136719,-139.69200134277344 42.12699890136719,-139.69200134277344 C42.12699890136719,-139.69200134277344 173.4340057373047,-63.29899978637695 173.4340057373047,-63.29899978637695 C173.4340057373047,-63.29899978637695 184.01300048828125,-70.20800018310547 184.01300048828125,-70.20800018310547 C184.01300048828125,-70.20800018310547 53.20600128173828,-144.6020050048828 53.20600128173828,-144.6020050048828z"/></g><g opacity="1" transform="matrix(1,0,0,1,0,0)"><path stroke-linecap="round" stroke-linejoin="round" fill-opacity="0" stroke="rgb(128,16,14)" stroke-opacity="1" stroke-width="5" d=" M42.12699890136719,-139.69200134277344 C42.12699890136719,-139.69200134277344 173.4340057373047,-63.29899978637695 173.4340057373047,-63.29899978637695"/></g><g opacity="1" transform="matrix(1,0,0,1,0,0)"><path stroke-linecap="round" stroke-linejoin="round" fill-opacity="0" stroke="rgb(128,16,14)" stroke-opacity="1" stroke-width="5" d=" M184.01300048828125,-54.887001037597656 C184.01300048828125,-54.887001037597656 173.4340057373047,-47.97800064086914 173.4340057373047,-47.97800064086914 C173.4340057373047,-47.97800064086914 154.1020050048828,-60.279998779296875 154.1020050048828,-60.279998779296875"/></g><g opacity="1" transform="matrix(1,0,0,1,0,0)"><path fill="rgb(199,30,30)" fill-opacity="1" d=" M173.4340057373047,-63.29899978637695 C173.4340057373047,-63.29899978637695 173.4340057373047,-47.97800064086914 173.4340057373047,-47.97800064086914 C173.4340057373047,-47.97800064086914 184.01300048828125,-54.887001037597656 184.01300048828125,-54.887001037597656 C184.01300048828125,-54.887001037597656 184.01300048828125,-70.20800018310547 184.01300048828125,-70.20800018310547 C184.01300048828125,-70.20800018310547 173.4340057373047,-63.29899978637695 173.4340057373047,-63.29899978637695z"/><path stroke-linecap="round" stroke-linejoin="round" fill-opacity="0" stroke="rgb(163,4,4)" stroke-opacity="1" stroke-width="5" d=" M173.4340057373047,-63.29899978637695 C173.4340057373047,-63.29899978637695 173.4340057373047,-47.97800064086914 173.4340057373047,-47.97800064086914 C173.4340057373047,-47.97800064086914 184.01300048828125,-54.887001037597656 184.01300048828125,-54.887001037597656 C184.01300048828125,-54.887001037597656 184.01300048828125,-70.20800018310547 184.01300048828125,-70.20800018310547 C184.01300048828125,-70.20800018310547 173.4340057373047,-63.29899978637695 173.4340057373047,-63.29899978637695z"/></g><g opacity="1" transform="matrix(1,0,0,1,0,0)"><path stroke-linecap="round" stroke-linejoin="round" fill-opacity="0" stroke="rgb(128,16,14)" stroke-opacity="1" stroke-width="5" d=" M166.50900268554688,-68.20800018310547 C166.50900268554688,-68.20800018310547 173.4340057373047,-63.29899978637695 173.4340057373047,-63.29899978637695 C173.4340057373047,-63.29899978637695 173.4340057373047,-47.97800064086914 173.4340057373047,-47.97800064086914 C173.4340057373047,-47.97800064086914 165.6269989013672,-53.474998474121094 165.6269989013672,-53.474998474121094"/></g><g opacity="1" transform="matrix(1,0,0,1,0,0)"><path stroke-linecap="round" stroke-linejoin="round" fill-opacity="0" stroke="rgb(128,16,14)" stroke-opacity="1" stroke-width="5" d=" M184.01300048828125,-54.887001037597656 C184.01300048828125,-54.887001037597656 173.4340057373047,-47.97800064086914 173.4340057373047,-47.97800064086914"/></g></g><g style="display: block;" transform="matrix(0.949999988079071,0,0,0.949999988079071,247.125,254)" opacity="1"><g opacity="1" transform="matrix(1,0,0,1,0,0)"><path fill="rgb(144,22,22)" fill-opacity="1" d=" M-88.37999725341797,-48.457000732421875 C-88.37999725341797,-48.457000732421875 -88.49299621582031,-63.57500076293945 -88.49299621582031,-63.57500076293945 C-88.49299621582031,-63.57500076293945 39.94200134277344,11.958000183105469 39.94200134277344,11.958000183105469 C39.94200134277344,11.958000183105469 50.999000549316406,7.004000186920166 50.999000549316406,7.004000186920166 C50.999000549316406,7.004000186920166 50.999000549316406,22.325000762939453 50.999000549316406,22.325000762939453 C50.999000549316406,22.325000762939453 39.94200134277344,27.27899932861328 39.94200134277344,27.27899932861328 C39.94200134277344,27.27899932861328 -88.37999725341797,-48.347999572753906 -88.37999725341797,-48.347999572753906"/><path stroke-linecap="round" stroke-linejoin="round" fill-opacity="0" stroke="rgb(144,23,23)" stroke-opacity="1" stroke-width="5" d=" M-88.37999725341797,-48.457000732421875 C-88.37999725341797,-48.457000732421875 -88.49299621582031,-63.57500076293945 -88.49299621582031,-63.57500076293945 C-88.49299621582031,-63.57500076293945 39.94200134277344,11.958000183105469 39.94200134277344,11.958000183105469 C39.94200134277344,11.958000183105469 50.999000549316406,7.004000186920166 50.999000549316406,7.004000186920166 C50.999000549316406,7.004000186920166 50.999000549316406,22.325000762939453 50.999000549316406,22.325000762939453 C50.999000549316406,22.325000762939453 39.94200134277344,27.27899932861328 39.94200134277344,27.27899932861328 C39.94200134277344,27.27899932861328 -88.37999725341797,-48.347999572753906 -88.37999725341797,-48.347999572753906"/></g><g opacity="1" transform="matrix(1,0,0,1,0,0)"><path stroke-linecap="round" stroke-linejoin="round" fill-opacity="0" stroke="rgb(128,16,14)" stroke-opacity="1" stroke-width="5" d=" M50.999000549316406,22.325000762939453 C50.999000549316406,22.325000762939453 39.94200134277344,27.27899932861328 39.94200134277344,27.27899932861328 C39.94200134277344,27.27899932861328 -88.37999725341797,-48.347999572753906 -88.37999725341797,-48.347999572753906"/></g><g opacity="1" transform="matrix(1,0,0,1,0,0)"><path fill="rgb(219,28,28)" fill-opacity="1" d=" M-77.27899932861328,-68.51100158691406 C-77.27899932861328,-68.51100158691406 -88.49299621582031,-63.465999603271484 -88.49299621582031,-63.465999603271484 C-88.49299621582031,-63.465999603271484 39.94200134277344,11.958000183105469 39.94200134277344,11.958000183105469 C39.94200134277344,11.958000183105469 50.999000549316406,7.004000186920166 50.999000549316406,7.004000186920166 C50.999000549316406,7.004000186920166 -77.27899932861328,-68.51100158691406 -77.27899932861328,-68.51100158691406z"/><path stroke-linecap="round" stroke-linejoin="round" fill-opacity="0" stroke="rgb(175,3,3)" stroke-opacity="1" stroke-width="5" d=" M-77.27899932861328,-68.51100158691406 C-77.27899932861328,-68.51100158691406 -88.49299621582031,-63.465999603271484 -88.49299621582031,-63.465999603271484 C-88.49299621582031,-63.465999603271484 39.94200134277344,11.958000183105469 39.94200134277344,11.958000183105469 C39.94200134277344,11.958000183105469 50.999000549316406,7.004000186920166 50.999000549316406,7.004000186920166 C50.999000549316406,7.004000186920166 -77.27899932861328,-68.51100158691406 -77.27899932861328,-68.51100158691406z"/></g><g opacity="1" transform="matrix(1,0,0,1,0,0)"><path stroke-linecap="round" stroke-linejoin="round" fill-opacity="0" stroke="rgb(128,16,14)" stroke-opacity="1" stroke-width="5" d=" M-88.49299621582031,-63.465999603271484 C-88.49299621582031,-63.465999603271484 39.94200134277344,11.958000183105469 39.94200134277344,11.958000183105469"/></g><g opacity="1" transform="matrix(1,0,0,1,0,0)"><path fill="rgb(199,29,29)" fill-opacity="1" d=" M39.94200134277344,11.958000183105469 C39.94200134277344,11.958000183105469 39.94200134277344,27.27899932861328 39.94200134277344,27.27899932861328 C39.94200134277344,27.27899932861328 50.999000549316406,22.325000762939453 50.999000549316406,22.325000762939453 C50.999000549316406,22.325000762939453 50.749000549316406,6.754000186920166 50.749000549316406,6.754000186920166 C50.749000549316406,6.754000186920166 39.94200134277344,11.958000183105469 39.94200134277344,11.958000183105469z"/><path stroke-linecap="round" stroke-linejoin="round" fill-opacity="0" stroke="rgb(163,4,4)" stroke-opacity="1" stroke-width="5" d=" M39.94200134277344,11.958000183105469 C39.94200134277344,11.958000183105469 39.94200134277344,27.27899932861328 39.94200134277344,27.27899932861328 C39.94200134277344,27.27899932861328 50.999000549316406,22.325000762939453 50.999000549316406,22.325000762939453 C50.999000549316406,22.325000762939453 50.749000549316406,6.754000186920166 50.749000549316406,6.754000186920166 C50.749000549316406,6.754000186920166 39.94200134277344,11.958000183105469 39.94200134277344,11.958000183105469z"/></g><g opacity="1" transform="matrix(1,0,0,1,0,0)"><path stroke-linecap="round" stroke-linejoin="round" fill-opacity="0" stroke="rgb(128,16,14)" stroke-opacity="1" stroke-width="5" d=" M30.777000427246094,21.013999938964844 C30.777000427246094,21.013999938964844 39.94200134277344,27.27899932861328 39.94200134277344,27.27899932861328 C39.94200134277344,27.27899932861328 39.94200134277344,11.958000183105469 39.94200134277344,11.958000183105469 C39.94200134277344,11.958000183105469 33.92399978637695,7.894000053405762 33.92399978637695,7.894000053405762"/></g><g opacity="1" transform="matrix(1,0,0,1,0,0)"><path stroke-linecap="round" stroke-linejoin="round" fill-opacity="0" stroke="rgb(128,16,14)" stroke-opacity="1" stroke-width="5" d=" M50.999000549316406,22.325000762939453 C50.999000549316406,22.325000762939453 39.94200134277344,27.27899932861328 39.94200134277344,27.27899932861328"/></g></g><g style="display: block;" transform="matrix(0.949999988079071,0,0,0.949999988079071,247.125,254)" opacity="1"><g opacity="1" transform="matrix(1,0,0,1,0,0)"><path fill="rgb(239,56,55)" fill-opacity="1" d=" M-94.75399780273438,70.68699645996094 C-94.75399780273438,70.68699645996094 190.76400756835938,-90.29000091552734 190.76400756835938,-90.29000091552734 C190.76400756835938,-90.29000091552734 190.49200439453125,-108.39700317382812 190.49200439453125,-108.39700317382812 C190.49200439453125,-108.39700317382812 -110.50800323486328,59.45100021362305 -110.50800323486328,59.45100021362305 C-110.50800323486328,59.45100021362305 -94.75399780273438,70.68699645996094 -94.75399780273438,70.68699645996094z"/></g><g opacity="1" transform="matrix(1,0,0,1,0,0)"><path fill="rgb(199,21,21)" fill-opacity="1" d=" M189.44900512695312,-95.66500091552734 C189.44900512695312,-95.66500091552734 189.40899658203125,-89.80500030517578 189.40899658203125,-89.80500030517578 C189.40899658203125,-89.80500030517578 -94.75399780273438,70.68699645996094 -94.75399780273438,70.68699645996094 C-94.75399780273438,70.68699645996094 -99.28399658203125,67.45700073242188 -99.28399658203125,67.45700073242188 C-99.28399658203125,67.45700073242188 189.44900512695312,-95.66500091552734 189.44900512695312,-95.66500091552734z"/></g><g opacity="1" transform="matrix(1,0,0,1,0,0)"><path stroke-linecap="round" stroke-linejoin="round" fill-opacity="0" stroke="rgb(199,21,21)" stroke-opacity="1" stroke-width="5" d=" M-94.75399780273438,70.68699645996094 C-94.75399780273438,70.68699645996094 190.76400756835938,-90.29000091552734 190.76400756835938,-90.29000091552734 C190.76400756835938,-90.29000091552734 190.49200439453125,-108.39700317382812 190.49200439453125,-108.39700317382812 C190.49200439453125,-108.39700317382812 -110.50800323486328,59.45100021362305 -110.50800323486328,59.45100021362305 C-110.50800323486328,59.45100021362305 -94.75399780273438,70.68699645996094 -94.75399780273438,70.68699645996094z"/></g></g><g style="display: block;" transform="matrix(0.949999988079071,0,0,0.949999988079071,247.125,254)" opacity="1"><g opacity="1" transform="matrix(1,0,0,1,0,0)"><path fill="rgb(238,55,54)" fill-opacity="1" d=" M-202.88499450683594,9.989999771118164 C-202.88499450683594,9.989999771118164 100.77400207519531,-159.29299926757812 100.77400207519531,-159.29299926757812 C100.77400207519531,-159.29299926757812 101.02400207519531,-164.9810028076172 101.02400207519531,-164.9810028076172 C101.02400207519531,-164.9810028076172 78.66500091552734,-167.3780059814453 78.66500091552734,-167.3780059814453 C78.66500091552734,-167.3780059814453 -217.6840057373047,-0.5910000205039978 -217.6840057373047,-0.5910000205039978 C-217.6840057373047,-0.5910000205039978 -202.88499450683594,9.989999771118164 -202.88499450683594,9.989999771118164z"/></g><g opacity="1" transform="matrix(1,0,0,1,0,0)"><path stroke-linecap="round" stroke-linejoin="round" fill-opacity="0" stroke="rgb(199,21,21)" stroke-opacity="1" stroke-width="5" d=" M-202.88499450683594,9.989999771118164 C-202.88499450683594,9.989999771118164 100.77400207519531,-159.29299926757812 100.77400207519531,-159.29299926757812 C100.77400207519531,-159.29299926757812 101.02400207519531,-164.9810028076172 101.02400207519531,-164.9810028076172 C101.02400207519531,-164.9810028076172 78.66500091552734,-167.3780059814453 78.66500091552734,-167.3780059814453 C78.66500091552734,-167.3780059814453 -217.6840057373047,-0.5910000205039978 -217.6840057373047,-0.5910000205039978 C-217.6840057373047,-0.5910000205039978 -202.88499450683594,9.989999771118164 -202.88499450683594,9.989999771118164z"/></g><g opacity="1" transform="matrix(1,0,0,1,0,0)"><path fill="rgb(199,21,21)" fill-opacity="1" d=" M101.02400207519531,-164.9810028076172 C101.02400207519531,-164.9810028076172 -206.9459991455078,6.769999980926514 -206.9459991455078,6.769999980926514 C-206.9459991455078,6.769999980926514 -202.88499450683594,9.989999771118164 -202.88499450683594,9.989999771118164 C-202.88499450683594,9.989999771118164 100.77400207519531,-159.29299926757812 100.77400207519531,-159.29299926757812 C100.77400207519531,-159.29299926757812 101.02400207519531,-164.9810028076172 101.02400207519531,-164.9810028076172z"/></g></g><g style="display: block;" transform="matrix(0.949999988079071,0,0,0.949999988079071,247.125,254)" opacity="1"><g opacity="1" transform="matrix(1,0,0,1,0,0)"><path fill="rgb(240,61,60)" fill-opacity="1" d=" M-60.14400100708008,-41.06999969482422 C-60.14400100708008,-41.06999969482422 137.71200561523438,-149.63699340820312 137.71200561523438,-149.63699340820312 C137.71200561523438,-149.63699340820312 137.7519989013672,-155.50799560546875 137.7519989013672,-155.50799560546875 C137.7519989013672,-155.50799560546875 119.73600006103516,-160.21400451660156 119.73600006103516,-160.21400451660156 C119.73600006103516,-160.21400451660156 -70.31500244140625,-52.96699905395508 -70.31500244140625,-52.96699905395508 C-70.31500244140625,-52.96699905395508 -60.14400100708008,-41.06999969482422 -60.14400100708008,-41.06999969482422z"/></g><g opacity="1" transform="matrix(1,0,0,1,0,0)"><path fill="rgb(199,21,21)" fill-opacity="1" d=" M137.7519989013672,-155.5709991455078 C137.7519989013672,-155.5709991455078 137.71200561523438,-149.71099853515625 137.71200561523438,-149.71099853515625 C137.71200561523438,-149.71099853515625 -59.242000579833984,-41.698001861572266 -59.242000579833984,-41.698001861572266 C-59.242000579833984,-41.698001861572266 -63.77299880981445,-44.928001403808594 -63.77299880981445,-44.928001403808594 C-63.77299880981445,-44.928001403808594 137.7519989013672,-155.5709991455078 137.7519989013672,-155.5709991455078z"/></g><g opacity="1" transform="matrix(1,0,0,1,0,0)"><path stroke-linecap="round" stroke-linejoin="round" fill-opacity="0" stroke="rgb(199,21,21)" stroke-opacity="1" stroke-width="5" d=" M-60.14400100708008,-41.06999969482422 C-60.14400100708008,-41.06999969482422 137.71200561523438,-149.63699340820312 137.71200561523438,-149.63699340820312 C137.71200561523438,-149.63699340820312 137.7519989013672,-155.50799560546875 137.7519989013672,-155.50799560546875 C137.7519989013672,-155.50799560546875 119.73600006103516,-160.21400451660156 119.73600006103516,-160.21400451660156 C119.73600006103516,-160.21400451660156 -70.31500244140625,-52.96699905395508 -70.31500244140625,-52.96699905395508 C-70.31500244140625,-52.96699905395508 -60.084999084472656,-46.513999938964844 -60.084999084472656,-46.513999938964844 C-60.084999084472656,-46.513999938964844 -60.14400100708008,-41.06999969482422 -60.14400100708008,-41.06999969482422z"/></g><g opacity="1" transform="matrix(1,0,0,1,0,0)"><path fill="rgb(193,24,24)" fill-opacity="1" d=" M-60.14400100708008,-41.06999969482422 C-60.14400100708008,-41.06999969482422 -70.31500244140625,-47.81100082397461 -70.31500244140625,-47.81100082397461 C-70.31500244140625,-47.81100082397461 -70.31500244140625,-52.96699905395508 -70.31500244140625,-52.96699905395508 C-70.31500244140625,-52.96699905395508 -60.084999084472656,-46.513999938964844 -60.084999084472656,-46.513999938964844 C-60.084999084472656,-46.513999938964844 -60.14400100708008,-41.06999969482422 -60.14400100708008,-41.06999969482422z"/><path stroke-linecap="round" stroke-linejoin="round" fill-opacity="0" stroke="rgb(165,23,23)" stroke-opacity="1" stroke-width="5" d=" M-60.14400100708008,-41.06999969482422 C-60.14400100708008,-41.06999969482422 -70.31500244140625,-47.81100082397461 -70.31500244140625,-47.81100082397461 C-70.31500244140625,-47.81100082397461 -70.31500244140625,-52.96699905395508 -70.31500244140625,-52.96699905395508 C-70.31500244140625,-52.96699905395508 -60.084999084472656,-46.513999938964844 -60.084999084472656,-46.513999938964844 C-60.084999084472656,-46.513999938964844 -60.14400100708008,-41.06999969482422 -60.14400100708008,-41.06999969482422z"/></g></g><g style="display: block;" transform="matrix(0.949999988079071,0,0,0.949999988079071,247.125,254)" opacity="1"><g opacity="1" transform="matrix(1,0,0,1,0,0)"><path fill="rgb(240,63,63)" fill-opacity="1" d=" M-33.45500183105469,-25.243999481201172 C-33.45500183105469,-25.243999481201172 163.66099548339844,-135.80099487304688 163.66099548339844,-135.80099487304688 C163.66099548339844,-135.80099487304688 163.7010040283203,-141.6719970703125 163.7010040283203,-141.6719970703125 C163.7010040283203,-141.6719970703125 151.85000610351562,-148.59500122070312 151.85000610351562,-148.59500122070312 C151.85000610351562,-148.59500122070312 -44.62699890136719,-37.39099884033203 -44.62699890136719,-37.39099884033203 C-44.62699890136719,-37.39099884033203 -33.45500183105469,-25.243999481201172 -33.45500183105469,-25.243999481201172z"/></g><g opacity="1" transform="matrix(1,0,0,1,0,0)"><path fill="rgb(199,21,21)" fill-opacity="1" d=" M163.7010040283203,-141.73399353027344 C163.7010040283203,-141.73399353027344 163.66099548339844,-135.87399291992188 163.66099548339844,-135.87399291992188 C163.66099548339844,-135.87399291992188 -32.84400177001953,-25.878999710083008 -32.84400177001953,-25.878999710083008 C-32.84400177001953,-25.878999710083008 -37.374000549316406,-29.108999252319336 -37.374000549316406,-29.108999252319336 C-37.374000549316406,-29.108999252319336 163.7010040283203,-141.73399353027344 163.7010040283203,-141.73399353027344z"/></g><g opacity="1" transform="matrix(1,0,0,1,0,0)"><path stroke-linecap="round" stroke-linejoin="round" fill-opacity="0" stroke="rgb(199,21,21)" stroke-opacity="1" stroke-width="5" d=" M-33.33000183105469,-25.493999481201172 C-33.33000183105469,-25.493999481201172 163.66099548339844,-135.80099487304688 163.66099548339844,-135.80099487304688 C163.66099548339844,-135.80099487304688 163.7010040283203,-141.6719970703125 163.7010040283203,-141.6719970703125 C163.7010040283203,-141.6719970703125 152.10000610351562,-148.59500122070312 152.10000610351562,-148.59500122070312 C152.10000610351562,-148.59500122070312 -44.37699890136719,-37.39099884033203 -44.37699890136719,-37.39099884033203 C-44.37699890136719,-37.39099884033203 -33.27199935913086,-30.937999725341797 -33.27199935913086,-30.937999725341797 C-33.27199935913086,-30.937999725341797 -33.33000183105469,-25.493999481201172 -33.33000183105469,-25.493999481201172z"/></g><g opacity="1" transform="matrix(1,0,0,1,0,0)"><path fill="rgb(198,0,0)" fill-opacity="1" d=" M-33.33000183105469,-25.493999481201172 C-33.33000183105469,-25.493999481201172 -33.26499938964844,-25.170000076293945 -33.26499938964844,-25.170000076293945 C-33.26499938964844,-25.170000076293945 -44.37699890136719,-32.23400115966797 -44.37699890136719,-32.23400115966797 C-44.37699890136719,-32.23400115966797 -44.37699890136719,-37.39099884033203 -44.37699890136719,-37.39099884033203 C-44.37699890136719,-37.39099884033203 -33.27199935913086,-30.937999725341797 -33.27199935913086,-30.937999725341797 C-33.27199935913086,-30.937999725341797 -33.33000183105469,-25.493999481201172 -33.33000183105469,-25.493999481201172z"/><path stroke-linecap="round" stroke-linejoin="round" fill-opacity="0" stroke="rgb(166,24,24)" stroke-opacity="1" stroke-width="5" d=" M-33.33000183105469,-25.493999481201172 C-33.33000183105469,-25.493999481201172 -33.26499938964844,-25.170000076293945 -33.26499938964844,-25.170000076293945 C-33.26499938964844,-25.170000076293945 -44.37699890136719,-32.23400115966797 -44.37699890136719,-32.23400115966797 C-44.37699890136719,-32.23400115966797 -44.37699890136719,-37.39099884033203 -44.37699890136719,-37.39099884033203 C-44.37699890136719,-37.39099884033203 -33.27199935913086,-30.937999725341797 -33.27199935913086,-30.937999725341797 C-33.27199935913086,-30.937999725341797 -33.33000183105469,-25.493999481201172 -33.33000183105469,-25.493999481201172z"/></g></g><g style="display: block;" transform="matrix(0.949999988079071,0,0,0.949999988079071,247.125,254)" opacity="1"><g opacity="1" transform="matrix(1,0,0,1,0,0)"><path fill="rgb(244,58,59)" fill-opacity="1" d=" M-7.714000225067139,-9.746000289916992 C-7.714000225067139,-9.746000289916992 182.44200134277344,-116.25700378417969 182.44200134277344,-116.25700378417969 C182.44200134277344,-116.25700378417969 182.48199462890625,-122.12799835205078 182.48199462890625,-122.12799835205078 C182.48199462890625,-122.12799835205078 173.61300659179688,-131.1840057373047 173.61300659179688,-131.1840057373047 C173.61300659179688,-131.1840057373047 -19.510000228881836,-22.39299964904785 -19.510000228881836,-22.39299964904785 C-19.510000228881836,-22.39299964904785 -7.714000225067139,-9.746000289916992 -7.714000225067139,-9.746000289916992z"/></g><g opacity="1" transform="matrix(1,0,0,1,0,0)"><path fill="rgb(199,21,21)" fill-opacity="1" d=" M182.48199462890625,-122.19000244140625 C182.48199462890625,-122.19000244140625 182.44200134277344,-116.33100128173828 182.44200134277344,-116.33100128173828 C182.44200134277344,-116.33100128173828 -7.2270002365112305,-10.130999565124512 -7.2270002365112305,-10.130999565124512 C-7.2270002365112305,-10.130999565124512 -11.756999969482422,-13.361000061035156 -11.756999969482422,-13.361000061035156 C-11.756999969482422,-13.361000061035156 182.48199462890625,-122.19000244140625 182.48199462890625,-122.19000244140625z"/></g><g opacity="1" transform="matrix(1,0,0,1,0,0)"><path stroke-linecap="round" stroke-linejoin="round" fill-opacity="0" stroke="rgb(199,21,21)" stroke-opacity="1" stroke-width="5" d=" M-7.714000225067139,-9.746000289916992 C-7.714000225067139,-9.746000289916992 182.44200134277344,-116.25700378417969 182.44200134277344,-116.25700378417969 C182.44200134277344,-116.25700378417969 182.48199462890625,-122.12799835205078 182.48199462890625,-122.12799835205078 C182.48199462890625,-122.12799835205078 173.61300659179688,-131.1840057373047 173.61300659179688,-131.1840057373047 C173.61300659179688,-131.1840057373047 -19.510000228881836,-22.39299964904785 -19.510000228881836,-22.39299964904785 C-19.510000228881836,-22.39299964904785 -7.65500020980835,-15.189000129699707 -7.65500020980835,-15.189000129699707 C-7.65500020980835,-15.189000129699707 -7.714000225067139,-9.746000289916992 -7.714000225067139,-9.746000289916992z"/></g><g opacity="1" transform="matrix(1,0,0,1,0,0)"><path fill="rgb(198,0,0)" fill-opacity="1" d=" M-7.714000225067139,-9.746000289916992 C-7.714000225067139,-9.746000289916992 -19.510000228881836,-17.236000061035156 -19.510000228881836,-17.236000061035156 C-19.510000228881836,-17.236000061035156 -19.510000228881836,-22.39299964904785 -19.510000228881836,-22.39299964904785 C-19.510000228881836,-22.39299964904785 -7.65500020980835,-15.189000129699707 -7.65500020980835,-15.189000129699707 C-7.65500020980835,-15.189000129699707 -7.714000225067139,-9.746000289916992 -7.714000225067139,-9.746000289916992z"/><path stroke-linecap="round" stroke-linejoin="round" fill-opacity="0" stroke="rgb(166,24,24)" stroke-opacity="1" stroke-width="5" d=" M-7.714000225067139,-9.746000289916992 C-7.714000225067139,-9.746000289916992 -19.510000228881836,-17.236000061035156 -19.510000228881836,-17.236000061035156 C-19.510000228881836,-17.236000061035156 -19.510000228881836,-22.39299964904785 -19.510000228881836,-22.39299964904785 C-19.510000228881836,-22.39299964904785 -7.65500020980835,-15.189000129699707 -7.65500020980835,-15.189000129699707 C-7.65500020980835,-15.189000129699707 -7.714000225067139,-9.746000289916992 -7.714000225067139,-9.746000289916992z"/></g></g><g style="display: block;" transform="matrix(0.9499872922897339,-0.0049078441224992275,0.0049078441224992275,0.9499872922897339,275.8000183105469,253.10618591308594)" opacity="1"><g opacity="1" transform="matrix(1,0,0,1,0,0)"><path fill="rgb(51,51,51)" fill-opacity="1" d=" M-118.072998046875,43.887001037597656 C-116.48300170898438,44.891998291015625 -115.4229965209961,46.750999450683594 -115.25599670410156,48.82400131225586 C-115.25599670410156,48.82400131225586 -114.1729965209961,62.275001525878906 -114.1729965209961,62.275001525878906 C-113.98899841308594,64.55799865722656 -114.72599792480469,66.78500366210938 -116.16899871826172,68.30599975585938 C-116.16899871826172,68.30599975585938 -118.072998046875,43.887001037597656 -118.072998046875,43.887001037597656z"/><path stroke-linecap="round" stroke-linejoin="round" fill-opacity="0" stroke="rgb(31,29,27)" stroke-opacity="1" stroke-width="5" d=" M-118.072998046875,43.887001037597656 C-116.48300170898438,44.891998291015625 -115.4229965209961,46.750999450683594 -115.25599670410156,48.82400131225586 C-115.25599670410156,48.82400131225586 -114.1729965209961,62.275001525878906 -114.1729965209961,62.275001525878906 C-113.98899841308594,64.55799865722656 -114.72599792480469,66.78500366210938 -116.16899871826172,68.30599975585938 C-116.16899871826172,68.30599975585938 -118.072998046875,43.887001037597656 -118.072998046875,43.887001037597656z"/></g><g opacity="1" transform="matrix(1,0,0,1,0,0)"><path fill="rgb(51,51,51)" fill-opacity="1" d=" M-149.23800659179688,84.16500091552734 C-149.23800659179688,84.16500091552734 -153.88999938964844,26.384000778198242 -153.88999938964844,26.384000778198242 C-154.15899658203125,23.042999267578125 -152.156005859375,21.143999099731445 -149.57699584960938,20.819000244140625 C-146.52699279785156,20.43400001525879 -141.50100708007812,19.729000091552734 -137.0489959716797,22.610000610351562 C-135.07200622558594,23.889999389648438 -128.2209930419922,27.572999954223633 -128.2209930419922,27.572999954223633 C-123.75199890136719,30.399999618530273 -120.7699966430664,35.625 -120.3010025024414,41.452999114990234 C-120.3010025024414,41.452999114990234 -116.84200286865234,82.62200164794922 -116.84200286865234,82.62200164794922 C-116.32499694824219,89.03900146484375 -118.81300354003906,91.94499969482422 -122.86900329589844,96.22200012207031 C-122.86900329589844,96.22200012207031 -124.39299774169922,97.8290023803711 -124.39299774169922,97.8290023803711 C-126.01899719238281,99.54299926757812 -128.44500732421875,99.80400085449219 -130.37600708007812,98.47000122070312 C-130.37600708007812,98.47000122070312 -146.70399475097656,88.79199981689453 -146.70399475097656,88.79199981689453 C-148.13800048828125,87.802001953125 -149.08399963378906,86.07599639892578 -149.23800659179688,84.16500091552734z"/><path stroke-linecap="round" stroke-linejoin="round" fill-opacity="0" stroke="rgb(31,29,27)" stroke-opacity="1" stroke-width="5" d=" M-149.23800659179688,84.16500091552734 C-149.23800659179688,84.16500091552734 -153.88999938964844,26.384000778198242 -153.88999938964844,26.384000778198242 C-154.15899658203125,23.042999267578125 -152.156005859375,21.143999099731445 -149.57699584960938,20.819000244140625 C-146.52699279785156,20.43400001525879 -141.50100708007812,19.729000091552734 -137.0489959716797,22.610000610351562 C-135.07200622558594,23.889999389648438 -128.2209930419922,27.572999954223633 -128.2209930419922,27.572999954223633 C-123.75199890136719,30.399999618530273 -120.7699966430664,35.625 -120.3010025024414,41.452999114990234 C-120.3010025024414,41.452999114990234 -116.84200286865234,82.62200164794922 -116.84200286865234,82.62200164794922 C-116.32499694824219,89.03900146484375 -118.81300354003906,91.94499969482422 -122.86900329589844,96.22200012207031 C-122.86900329589844,96.22200012207031 -124.39299774169922,97.8290023803711 -124.39299774169922,97.8290023803711 C-126.01899719238281,99.54299926757812 -128.44500732421875,99.80400085449219 -130.37600708007812,98.47000122070312 C-130.37600708007812,98.47000122070312 -146.70399475097656,88.79199981689453 -146.70399475097656,88.79199981689453 C-148.13800048828125,87.802001953125 -149.08399963378906,86.07599639892578 -149.23800659179688,84.16500091552734z"/></g><g opacity="0.6" transform="matrix(1,0,0,1,0,0)"><path fill="rgb(31,29,27)" fill-opacity="1" d=" M-120.6449966430664,34.5989990234375 C-120.6449966430664,34.5989990234375 -125.26399993896484,32.41299819946289 -128.8979949951172,33.005001068115234 C-132.53199768066406,33.59700012207031 -132.406005859375,35.1510009765625 -131.91600036621094,41.242000579833984 C-131.42599487304688,47.332000732421875 -126.60900115966797,97.91300201416016 -126.60900115966797,97.91300201416016 C-126.60900115966797,97.91300201416016 -116.59700012207031,90.572998046875 -116.81900024414062,85.41100311279297 C-117.04100036621094,80.2490005493164 -120.6449966430664,34.5989990234375 -120.6449966430664,34.5989990234375z"/></g><g opacity="1" transform="matrix(1,0,0,1,0,0)"><path stroke-linecap="round" stroke-linejoin="round" fill-opacity="0" stroke="rgb(31,29,27)" stroke-opacity="1" stroke-width="5" d=" M-153.29100036621094,23.180999755859375 C-153.29100036621094,23.180999755859375 -132.53199768066406,33.59700012207031 -132.53199768066406,33.59700012207031 C-132.53199768066406,33.59700012207031 -132.2729949951172,36.81399917602539 -132.2729949951172,36.81399917602539 C-132.2729949951172,36.81399917602539 -127.24299621582031,99.28800201416016 -127.24299621582031,99.28800201416016"/></g><g opacity="1" transform="matrix(1,0,0,1,0,0)"><path stroke-linecap="round" stroke-linejoin="round" fill-opacity="0" stroke="rgb(31,29,27)" stroke-opacity="1" stroke-width="5" d=" M-123.36299896240234,32.40800094604492 C-123.36299896240234,32.40800094604492 -132.531005859375,33.60300064086914 -132.531005859375,33.60300064086914"/></g><g opacity="1" transform="matrix(1,0,0,1,0,0)"><path fill="rgb(109,109,109)" fill-opacity="1" d=" M-123.36399841308594,32.409000396728516 C-123.36399841308594,32.409000396728516 -132.53399658203125,33.5989990234375 -132.53399658203125,33.5989990234375 C-132.53399658203125,33.5989990234375 -153.281005859375,23.17799949645996 -153.281005859375,23.17799949645996 C-152.531005859375,21.81800079345703 -151.17100524902344,21.01799964904785 -149.58099365234375,20.81800079345703 C-146.531005859375,20.437999725341797 -141.88400268554688,19.48900032043457 -137.4340057373047,22.368999481201172 C-135.45399475097656,23.64900016784668 -128.22300720214844,27.569000244140625 -128.22300720214844,27.569000244140625 C-126.3030014038086,28.788999557495117 -124.65399932861328,30.448999404907227 -123.36399841308594,32.409000396728516z"/><path stroke-linecap="round" stroke-linejoin="round" fill-opacity="0" stroke="rgb(56,56,56)" stroke-opacity="1" stroke-width="5" d=" M-123.36399841308594,32.409000396728516 C-123.36399841308594,32.409000396728516 -132.53399658203125,33.5989990234375 -132.53399658203125,33.5989990234375 C-132.53399658203125,33.5989990234375 -153.281005859375,23.17799949645996 -153.281005859375,23.17799949645996 C-152.531005859375,21.81800079345703 -151.17100524902344,21.01799964904785 -149.58099365234375,20.81800079345703 C-146.531005859375,20.437999725341797 -141.88400268554688,19.48900032043457 -137.4340057373047,22.368999481201172 C-135.45399475097656,23.64900016784668 -128.22300720214844,27.569000244140625 -128.22300720214844,27.569000244140625 C-126.3030014038086,28.788999557495117 -124.65399932861328,30.448999404907227 -123.36399841308594,32.409000396728516z"/></g></g><g style="display: block;" transform="matrix(0.9499872922897339,-0.0049078441224992275,0.0049078441224992275,0.9499872922897339,179.37501525878906,195.15618896484375)" opacity="1"><g opacity="1" transform="matrix(1,0,0,1,0,0)"><path fill="rgb(51,51,51)" fill-opacity="1" d=" M-118.072998046875,43.887001037597656 C-116.48300170898438,44.891998291015625 -115.4229965209961,46.750999450683594 -115.25599670410156,48.82400131225586 C-115.25599670410156,48.82400131225586 -114.1729965209961,62.275001525878906 -114.1729965209961,62.275001525878906 C-113.98899841308594,64.55799865722656 -114.72599792480469,66.78500366210938 -116.16899871826172,68.30599975585938 C-116.16899871826172,68.30599975585938 -118.072998046875,43.887001037597656 -118.072998046875,43.887001037597656z"/><path stroke-linecap="round" stroke-linejoin="round" fill-opacity="0" stroke="rgb(31,29,27)" stroke-opacity="1" stroke-width="5" d=" M-118.072998046875,43.887001037597656 C-116.48300170898438,44.891998291015625 -115.4229965209961,46.750999450683594 -115.25599670410156,48.82400131225586 C-115.25599670410156,48.82400131225586 -114.1729965209961,62.275001525878906 -114.1729965209961,62.275001525878906 C-113.98899841308594,64.55799865722656 -114.72599792480469,66.78500366210938 -116.16899871826172,68.30599975585938 C-116.16899871826172,68.30599975585938 -118.072998046875,43.887001037597656 -118.072998046875,43.887001037597656z"/></g><g opacity="1" transform="matrix(1,0,0,1,0,0)"><path fill="rgb(51,51,51)" fill-opacity="1" d=" M-149.23800659179688,84.16500091552734 C-149.23800659179688,84.16500091552734 -153.88999938964844,26.384000778198242 -153.88999938964844,26.384000778198242 C-154.15899658203125,23.042999267578125 -152.156005859375,21.143999099731445 -149.57699584960938,20.819000244140625 C-146.52699279785156,20.43400001525879 -141.50100708007812,19.729000091552734 -137.0489959716797,22.610000610351562 C-135.07200622558594,23.889999389648438 -128.2209930419922,27.572999954223633 -128.2209930419922,27.572999954223633 C-123.75199890136719,30.399999618530273 -120.7699966430664,35.625 -120.3010025024414,41.452999114990234 C-120.3010025024414,41.452999114990234 -116.84200286865234,82.62200164794922 -116.84200286865234,82.62200164794922 C-116.32499694824219,89.03900146484375 -118.81300354003906,91.94499969482422 -122.86900329589844,96.22200012207031 C-122.86900329589844,96.22200012207031 -124.39299774169922,97.8290023803711 -124.39299774169922,97.8290023803711 C-126.01899719238281,99.54299926757812 -128.44500732421875,99.80400085449219 -130.37600708007812,98.47000122070312 C-130.37600708007812,98.47000122070312 -146.70399475097656,88.79199981689453 -146.70399475097656,88.79199981689453 C-148.13800048828125,87.802001953125 -149.08399963378906,86.07599639892578 -149.23800659179688,84.16500091552734z"/><path stroke-linecap="round" stroke-linejoin="round" fill-opacity="0" stroke="rgb(31,29,27)" stroke-opacity="1" stroke-width="5" d=" M-149.23800659179688,84.16500091552734 C-149.23800659179688,84.16500091552734 -153.88999938964844,26.384000778198242 -153.88999938964844,26.384000778198242 C-154.15899658203125,23.042999267578125 -152.156005859375,21.143999099731445 -149.57699584960938,20.819000244140625 C-146.52699279785156,20.43400001525879 -141.50100708007812,19.729000091552734 -137.0489959716797,22.610000610351562 C-135.07200622558594,23.889999389648438 -128.2209930419922,27.572999954223633 -128.2209930419922,27.572999954223633 C-123.75199890136719,30.399999618530273 -120.7699966430664,35.625 -120.3010025024414,41.452999114990234 C-120.3010025024414,41.452999114990234 -116.84200286865234,82.62200164794922 -116.84200286865234,82.62200164794922 C-116.32499694824219,89.03900146484375 -118.81300354003906,91.94499969482422 -122.86900329589844,96.22200012207031 C-122.86900329589844,96.22200012207031 -124.39299774169922,97.8290023803711 -124.39299774169922,97.8290023803711 C-126.01899719238281,99.54299926757812 -128.44500732421875,99.80400085449219 -130.37600708007812,98.47000122070312 C-130.37600708007812,98.47000122070312 -146.70399475097656,88.79199981689453 -146.70399475097656,88.79199981689453 C-148.13800048828125,87.802001953125 -149.08399963378906,86.07599639892578 -149.23800659179688,84.16500091552734z"/></g><g opacity="0.6" transform="matrix(1,0,0,1,0,0)"><path fill="rgb(31,29,27)" fill-opacity="1" d=" M-120.6449966430664,34.5989990234375 C-120.6449966430664,34.5989990234375 -125.26399993896484,32.41299819946289 -128.8979949951172,33.005001068115234 C-132.53199768066406,33.59700012207031 -132.406005859375,35.1510009765625 -131.91600036621094,41.242000579833984 C-131.42599487304688,47.332000732421875 -126.60900115966797,97.91300201416016 -126.60900115966797,97.91300201416016 C-126.60900115966797,97.91300201416016 -116.59700012207031,90.572998046875 -116.81900024414062,85.41100311279297 C-117.04100036621094,80.2490005493164 -120.6449966430664,34.5989990234375 -120.6449966430664,34.5989990234375z"/></g><g opacity="1" transform="matrix(1,0,0,1,0,0)"><path stroke-linecap="round" stroke-linejoin="round" fill-opacity="0" stroke="rgb(31,29,27)" stroke-opacity="1" stroke-width="5" d=" M-153.29100036621094,23.180999755859375 C-153.29100036621094,23.180999755859375 -132.53199768066406,33.59700012207031 -132.53199768066406,33.59700012207031 C-132.53199768066406,33.59700012207031 -132.2729949951172,36.81399917602539 -132.2729949951172,36.81399917602539 C-132.2729949951172,36.81399917602539 -127.24299621582031,99.28800201416016 -127.24299621582031,99.28800201416016"/></g><g opacity="1" transform="matrix(1,0,0,1,0,0)"><path stroke-linecap="round" stroke-linejoin="round" fill-opacity="0" stroke="rgb(31,29,27)" stroke-opacity="1" stroke-width="5" d=" M-123.36299896240234,32.40800094604492 C-123.36299896240234,32.40800094604492 -132.531005859375,33.60300064086914 -132.531005859375,33.60300064086914"/></g><g opacity="1" transform="matrix(1,0,0,1,0,0)"><path fill="rgb(109,109,109)" fill-opacity="1" d=" M-123.36399841308594,32.409000396728516 C-123.36399841308594,32.409000396728516 -132.53399658203125,33.5989990234375 -132.53399658203125,33.5989990234375 C-132.53399658203125,33.5989990234375 -153.281005859375,23.17799949645996 -153.281005859375,23.17799949645996 C-152.531005859375,21.81800079345703 -151.17100524902344,21.01799964904785 -149.58099365234375,20.81800079345703 C-146.531005859375,20.437999725341797 -141.88400268554688,19.48900032043457 -137.4340057373047,22.368999481201172 C-135.45399475097656,23.64900016784668 -128.22300720214844,27.569000244140625 -128.22300720214844,27.569000244140625 C-126.3030014038086,28.788999557495117 -124.65399932861328,30.448999404907227 -123.36399841308594,32.409000396728516z"/><path stroke-linecap="round" stroke-linejoin="round" fill-opacity="0" stroke="rgb(56,56,56)" stroke-opacity="1" stroke-width="5" d=" M-123.36399841308594,32.409000396728516 C-123.36399841308594,32.409000396728516 -132.53399658203125,33.5989990234375 -132.53399658203125,33.5989990234375 C-132.53399658203125,33.5989990234375 -153.281005859375,23.17799949645996 -153.281005859375,23.17799949645996 C-152.531005859375,21.81800079345703 -151.17100524902344,21.01799964904785 -149.58099365234375,20.81800079345703 C-146.531005859375,20.437999725341797 -141.88400268554688,19.48900032043457 -137.4340057373047,22.368999481201172 C-135.45399475097656,23.64900016784668 -128.22300720214844,27.569000244140625 -128.22300720214844,27.569000244140625 C-126.3030014038086,28.788999557495117 -124.65399932861328,30.448999404907227 -123.36399841308594,32.409000396728516z"/></g></g><g style="display: block;" transform="matrix(0.9730959534645081,-0.03568181023001671,0.03568181023001671,0.9730959534645081,232.20811462402344,250.22447204589844)" opacity="1"><g opacity="1" transform="matrix(1,0,0,1,0,0)"><g opacity="1" transform="matrix(1,0,0,1,0,0)"><path fill="rgb(82,82,91)" fill-opacity="1" d=" M71.87799835205078,-136.1439971923828 C71.87799835205078,-135.22900390625 73.61000061035156,-134.48599243164062 75.74600219726562,-134.48599243164062 C77.88200378417969,-134.48599243164062 79.61399841308594,-135.22900390625 79.61399841308594,-136.1439971923828 C79.61399841308594,-136.1439971923828 79.61399841308594,-138.91299438476562 79.61399841308594,-138.91299438476562 C79.61399841308594,-138.91299438476562 71.87799835205078,-138.91299438476562 71.87799835205078,-138.91299438476562 C71.87799835205078,-138.91299438476562 71.87799835205078,-136.1439971923828 71.87799835205078,-136.1439971923828z"/></g><g opacity="1" transform="matrix(1,0,0,1,0,0)"><path fill="rgb(128,139,155)" fill-opacity="1" d=" M79.61399841308594,-138.91299438476562 C79.61399841308594,-137.9969940185547 77.88200378417969,-137.2550048828125 75.74600219726562,-137.2550048828125 C73.61000061035156,-137.2550048828125 71.87799835205078,-137.9969940185547 71.87799835205078,-138.91299438476562 C71.87799835205078,-139.8280029296875 73.61000061035156,-140.5709991455078 75.74600219726562,-140.5709991455078 C77.88200378417969,-140.5709991455078 79.61399841308594,-139.8280029296875 79.61399841308594,-138.91299438476562z"/></g></g></g><g style="display: block;" transform="matrix(0.9730959534645081,-0.03568181023001671,0.03568181023001671,0.9730959534645081,230.76829528808594,252.22705078125)" opacity="1"><g opacity="1" transform="matrix(1,0,0,1,0,0)"><g opacity="1" transform="matrix(1,0,0,1,0,0)"><path fill="rgb(82,82,91)" fill-opacity="1" d=" M96.96199798583984,-121.93299865722656 C96.96199798583984,-121.01799774169922 98.69400024414062,-120.2750015258789 100.83000183105469,-120.2750015258789 C102.96600341796875,-120.2750015258789 104.697998046875,-121.01799774169922 104.697998046875,-121.93299865722656 C104.697998046875,-121.93299865722656 104.697998046875,-124.7020034790039 104.697998046875,-124.7020034790039 C104.697998046875,-124.7020034790039 96.96199798583984,-124.7020034790039 96.96199798583984,-124.7020034790039 C96.96199798583984,-124.7020034790039 96.96199798583984,-121.93299865722656 96.96199798583984,-121.93299865722656z"/></g><g opacity="1" transform="matrix(1,0,0,1,0,0)"><path fill="rgb(128,139,155)" fill-opacity="1" d=" M104.697998046875,-124.7020034790039 C104.697998046875,-123.78700256347656 102.96600341796875,-123.04399871826172 100.83000183105469,-123.04399871826172 C98.69400024414062,-123.04399871826172 96.96199798583984,-123.78700256347656 96.96199798583984,-124.7020034790039 C96.96199798583984,-125.61799621582031 98.69400024414062,-126.35900115966797 100.83000183105469,-126.35900115966797 C102.96600341796875,-126.35900115966797 104.697998046875,-125.61799621582031 104.697998046875,-124.7020034790039z"/></g></g></g><g style="display: block;" transform="matrix(0.9714949727058411,-0.06622987985610962,0.06622987985610962,0.9714949727058411,236.36219787597656,255.01284790039062)" opacity="1"><g opacity="1" transform="matrix(1,0,0,1,0,0)"><g opacity="1" transform="matrix(1,0,0,1,0,0)"><path fill="rgb(82,82,91)" fill-opacity="1" d=" M118.96499633789062,-106.19499969482422 C118.96499633789062,-105.27999877929688 120.6969985961914,-104.53800201416016 122.83300018310547,-104.53800201416016 C124.96900177001953,-104.53800201416016 126.70099639892578,-105.27999877929688 126.70099639892578,-106.19499969482422 C126.70099639892578,-106.19499969482422 126.70099639892578,-108.96399688720703 126.70099639892578,-108.96399688720703 C126.70099639892578,-108.96399688720703 118.96499633789062,-108.96399688720703 118.96499633789062,-108.96399688720703 C118.96499633789062,-108.96399688720703 118.96499633789062,-106.19499969482422 118.96499633789062,-106.19499969482422z"/></g><g opacity="1" transform="matrix(1,0,0,1,0,0)"><path fill="rgb(128,139,155)" fill-opacity="1" d=" M126.70099639892578,-108.96399688720703 C126.70099639892578,-108.0479965209961 124.96900177001953,-107.30699920654297 122.83300018310547,-107.30699920654297 C120.6969985961914,-107.30699920654297 118.96499633789062,-108.0479965209961 118.96499633789062,-108.96399688720703 C118.96499633789062,-109.87899780273438 120.6969985961914,-110.62200164794922 122.83300018310547,-110.62200164794922 C124.96900177001953,-110.62200164794922 126.70099639892578,-109.87899780273438 126.70099639892578,-108.96399688720703z"/></g></g></g><g style="display: block;" transform="matrix(0.9730959534645081,-0.03568181023001671,0.03568181023001671,0.9730959534645081,235.1060791015625,250.09385681152344)" opacity="1"><g opacity="1" transform="matrix(1,0,0,1,0,0)"><g opacity="1" transform="matrix(1,0,0,1,0,0)"><path fill="rgb(82,82,91)" fill-opacity="1" d=" M140.5,-89.57499694824219 C140.5,-88.66000366210938 142.23199462890625,-87.91699981689453 144.3679962158203,-87.91699981689453 C146.50399780273438,-87.91699981689453 148.23599243164062,-88.66000366210938 148.23599243164062,-89.57499694824219 C148.23599243164062,-89.57499694824219 148.23599243164062,-92.34400177001953 148.23599243164062,-92.34400177001953 C148.23599243164062,-92.34400177001953 140.5,-92.34400177001953 140.5,-92.34400177001953 C140.5,-92.34400177001953 140.5,-89.57499694824219 140.5,-89.57499694824219z"/></g><g opacity="1" transform="matrix(1,0,0,1,0,0)"><path fill="rgb(128,139,155)" fill-opacity="1" d=" M148.23599243164062,-92.34400177001953 C148.23599243164062,-91.4280014038086 146.50399780273438,-90.68599700927734 144.3679962158203,-90.68599700927734 C142.23199462890625,-90.68599700927734 140.5,-91.4280014038086 140.5,-92.34400177001953 C140.5,-93.25900268554688 142.23199462890625,-94.00199890136719 144.3679962158203,-94.00199890136719 C146.50399780273438,-94.00199890136719 148.23599243164062,-93.25900268554688 148.23599243164062,-92.34400177001953z"/></g></g></g><g style="display: block;" transform="matrix(0.9730959534645081,-0.03568181023001671,0.03568181023001671,0.9730959534645081,238.8456268310547,249.051513671875)" opacity="1"><g opacity="1" transform="matrix(1,0,0,1,0,0)"><g opacity="1" transform="matrix(1,0,0,1,0,0)"><path fill="rgb(82,82,91)" fill-opacity="1" d=" M164.05599975585938,-71.26100158691406 C164.05599975585938,-70.34600067138672 165.78799438476562,-69.60299682617188 167.9239959716797,-69.60299682617188 C170.05999755859375,-69.60299682617188 171.79200744628906,-70.34600067138672 171.79200744628906,-71.26100158691406 C171.79200744628906,-71.26100158691406 171.79200744628906,-74.02999877929688 171.79200744628906,-74.02999877929688 C171.79200744628906,-74.02999877929688 164.05599975585938,-74.02999877929688 164.05599975585938,-74.02999877929688 C164.05599975585938,-74.02999877929688 164.05599975585938,-71.26100158691406 164.05599975585938,-71.26100158691406z"/></g><g opacity="1" transform="matrix(1,0,0,1,0,0)"><path fill="rgb(128,139,155)" fill-opacity="1" d=" M171.79200744628906,-74.02999877929688 C171.79200744628906,-73.11499786376953 170.05999755859375,-72.37200164794922 167.9239959716797,-72.37200164794922 C165.78799438476562,-72.37200164794922 164.05599975585938,-73.11499786376953 164.05599975585938,-74.02999877929688 C164.05599975585938,-74.94599914550781 165.78799438476562,-75.68800354003906 167.9239959716797,-75.68800354003906 C170.05999755859375,-75.68800354003906 171.79200744628906,-74.94599914550781 171.79200744628906,-74.02999877929688z"/></g></g></g><g style="display: block;" transform="matrix(0.9487478137016296,-0.06467913836240768,0.07023598998785019,1.0302586555480957,257.6222229003906,250.21119689941406)" opacity="1"><g opacity="1" transform="matrix(1,0,0,1,0,0)"><g opacity="1" transform="matrix(1,0,0,1,0,0)"><path fill="rgb(82,82,91)" fill-opacity="1" d=" M8.940999984741211,-2.614000082015991 C8.940999984741211,-1.6990000009536743 10.67300033569336,-0.9559999704360962 12.809000015258789,-0.9559999704360962 C14.944999694824219,-0.9559999704360962 16.677000045776367,-1.6990000009536743 16.677000045776367,-2.614000082015991 C16.677000045776367,-2.614000082015991 16.677000045776367,-5.382999897003174 16.677000045776367,-5.382999897003174 C16.677000045776367,-5.382999897003174 8.940999984741211,-5.382999897003174 8.940999984741211,-5.382999897003174 C8.940999984741211,-5.382999897003174 8.940999984741211,-2.614000082015991 8.940999984741211,-2.614000082015991z"/></g><g opacity="1" transform="matrix(1,0,0,1,0,0)"><path fill="rgb(128,139,155)" fill-opacity="1" d=" M16.677000045776367,-5.382999897003174 C16.677000045776367,-4.4679999351501465 14.944999694824219,-3.7249999046325684 12.809000015258789,-3.7249999046325684 C10.67300033569336,-3.7249999046325684 8.940999984741211,-4.4679999351501465 8.940999984741211,-5.382999897003174 C8.940999984741211,-6.298999786376953 10.67300033569336,-7.040999889373779 12.809000015258789,-7.040999889373779 C14.944999694824219,-7.040999889373779 16.677000045776367,-6.298999786376953 16.677000045776367,-5.382999897003174z"/></g></g></g><g style="display: block;" transform="matrix(0.9487478137016296,-0.06467913836240768,0.07023598998785019,1.0302586555480957,257.6222229003906,250.21119689941406)" opacity="1"><g opacity="1" transform="matrix(1,0,0,1,0,0)"><g opacity="1" transform="matrix(1,0,0,1,0,0)"><path fill="rgb(82,82,91)" fill-opacity="1" d=" M-15.001999855041504,-20.483999252319336 C-15.001999855041504,-19.569000244140625 -13.270000457763672,-18.82699966430664 -11.133999824523926,-18.82699966430664 C-8.998000144958496,-18.82699966430664 -7.265999794006348,-19.569000244140625 -7.265999794006348,-20.483999252319336 C-7.265999794006348,-20.483999252319336 -7.265999794006348,-23.253000259399414 -7.265999794006348,-23.253000259399414 C-7.265999794006348,-23.253000259399414 -15.001999855041504,-23.253000259399414 -15.001999855041504,-23.253000259399414 C-15.001999855041504,-23.253000259399414 -15.001999855041504,-20.483999252319336 -15.001999855041504,-20.483999252319336z"/></g><g opacity="1" transform="matrix(1,0,0,1,0,0)"><path fill="rgb(128,139,155)" fill-opacity="1" d=" M-7.265999794006348,-23.253000259399414 C-7.265999794006348,-22.33799934387207 -8.998000144958496,-21.594999313354492 -11.133999824523926,-21.594999313354492 C-13.270000457763672,-21.594999313354492 -15.001999855041504,-22.33799934387207 -15.001999855041504,-23.253000259399414 C-15.001999855041504,-24.16900062561035 -13.270000457763672,-24.910999298095703 -11.133999824523926,-24.910999298095703 C-8.998000144958496,-24.910999298095703 -7.265999794006348,-24.16900062561035 -7.265999794006348,-23.253000259399414z"/></g></g></g><g style="display: block;" transform="matrix(0.9460734724998474,-0.09700842201709747,0.100002221763134,1.0277185440063477,257.7486267089844,250.48419189453125)" opacity="1"><g opacity="1" transform="matrix(1,0,0,1,0,0)"><g opacity="1" transform="matrix(1,0,0,1,0,0)"><path fill="rgb(82,82,91)" fill-opacity="1" d=" M-37.20899963378906,-37.68899917602539 C-37.20899963378906,-36.77399826049805 -35.47700119018555,-36.03099822998047 -33.340999603271484,-36.03099822998047 C-31.204999923706055,-36.03099822998047 -29.472999572753906,-36.77399826049805 -29.472999572753906,-37.68899917602539 C-29.472999572753906,-37.68899917602539 -29.472999572753906,-40.45800018310547 -29.472999572753906,-40.45800018310547 C-29.472999572753906,-40.45800018310547 -37.20899963378906,-40.45800018310547 -37.20899963378906,-40.45800018310547 C-37.20899963378906,-40.45800018310547 -37.20899963378906,-37.68899917602539 -37.20899963378906,-37.68899917602539z"/></g><g opacity="1" transform="matrix(1,0,0,1,0,0)"><path fill="rgb(128,139,155)" fill-opacity="1" d=" M-29.472999572753906,-40.45800018310547 C-29.472999572753906,-39.54199981689453 -31.204999923706055,-38.79999923706055 -33.340999603271484,-38.79999923706055 C-35.47700119018555,-38.79999923706055 -37.20899963378906,-39.54199981689453 -37.20899963378906,-40.45800018310547 C-37.20899963378906,-41.37300109863281 -35.47700119018555,-42.1150016784668 -33.340999603271484,-42.1150016784668 C-31.204999923706055,-42.1150016784668 -29.472999572753906,-41.37300109863281 -29.472999572753906,-40.45800018310547z"/></g></g></g><g style="display: block;" transform="matrix(0.9487478137016296,-0.06467913836240768,0.07023598998785019,1.0302586555480957,255.42161560058594,251.1374969482422)" opacity="1"><g opacity="1" transform="matrix(1,0,0,1,0,0)"><g opacity="1" transform="matrix(1,0,0,1,0,0)"><path fill="rgb(82,82,91)" fill-opacity="1" d=" M-58.617000579833984,-53.020999908447266 C-58.617000579833984,-52.10599899291992 -56.8849983215332,-51.362998962402344 -54.749000549316406,-51.362998962402344 C-52.612998962402344,-51.362998962402344 -50.88100051879883,-52.10599899291992 -50.88100051879883,-53.020999908447266 C-50.88100051879883,-53.020999908447266 -50.88100051879883,-55.790000915527344 -50.88100051879883,-55.790000915527344 C-50.88100051879883,-55.790000915527344 -58.617000579833984,-55.790000915527344 -58.617000579833984,-55.790000915527344 C-58.617000579833984,-55.790000915527344 -58.617000579833984,-53.020999908447266 -58.617000579833984,-53.020999908447266z"/></g><g opacity="1" transform="matrix(1,0,0,1,0,0)"><path fill="rgb(128,139,155)" fill-opacity="1" d=" M-50.88100051879883,-55.790000915527344 C-50.88100051879883,-54.875 -52.612998962402344,-54.13199996948242 -54.749000549316406,-54.13199996948242 C-56.8849983215332,-54.13199996948242 -58.617000579833984,-54.875 -58.617000579833984,-55.790000915527344 C-58.617000579833984,-56.70600128173828 -56.8849983215332,-57.448001861572266 -54.749000549316406,-57.448001861572266 C-52.612998962402344,-57.448001861572266 -50.88100051879883,-56.70600128173828 -50.88100051879883,-55.790000915527344z"/></g></g></g><g style="display: block;" transform="matrix(0.9487478137016296,-0.06467913836240768,0.07023598998785019,1.0302586555480957,253.9764862060547,252.65921020507812)" opacity="1"><g opacity="1" transform="matrix(1,0,0,1,0,0)"><g opacity="1" transform="matrix(1,0,0,1,0,0)"><path fill="rgb(82,82,91)" fill-opacity="1" d=" M-80.73999786376953,-68.8280029296875 C-80.73999786376953,-67.91300201416016 -79.00800323486328,-67.16999816894531 -76.87200164794922,-67.16999816894531 C-74.73600006103516,-67.16999816894531 -73.00299835205078,-67.91300201416016 -73.00299835205078,-68.8280029296875 C-73.00299835205078,-68.8280029296875 -73.00299835205078,-71.59700012207031 -73.00299835205078,-71.59700012207031 C-73.00299835205078,-71.59700012207031 -80.73999786376953,-71.59700012207031 -80.73999786376953,-71.59700012207031 C-80.73999786376953,-71.59700012207031 -80.73999786376953,-68.8280029296875 -80.73999786376953,-68.8280029296875z"/></g><g opacity="1" transform="matrix(1,0,0,1,0,0)"><path fill="rgb(128,139,155)" fill-opacity="1" d=" M-73.00299835205078,-71.59700012207031 C-73.00299835205078,-70.68099975585938 -74.73600006103516,-69.93900299072266 -76.87200164794922,-69.93900299072266 C-79.00800323486328,-69.93900299072266 -80.73999786376953,-70.68099975585938 -80.73999786376953,-71.59700012207031 C-80.73999786376953,-72.51200103759766 -79.00800323486328,-73.25499725341797 -76.87200164794922,-73.25499725341797 C-74.73600006103516,-73.25499725341797 -73.00299835205078,-72.51200103759766 -73.00299835205078,-71.59700012207031z"/></g></g></g><g style="display: block;" transform="matrix(0.3415173590183258,-0.8864907026290894,0.8864907026290894,0.3415173590183258,498.3720397949219,315.64984130859375)" opacity="0.55"><g opacity="1" transform="matrix(1,0,0,1,0,0)"><path stroke-linecap="round" stroke-linejoin="round" fill-opacity="0" stroke-dasharray=" 56 529" stroke-dashoffset="65" stroke="rgb(243,248,255)" stroke-opacity="1" stroke-width="0" d=" M-331.8680114746094,-356.34600830078125 C-243.86599731445312,-316.9930114746094 -182.9759979248047,-285.5870056152344 -167.01199340820312,-255.91200256347656 C-103.8010025024414,-138.40699768066406 54.67399978637695,-99.7969970703125 95.13800048828125,-53.02299880981445"/></g></g><g style="display: block;" transform="matrix(0.3415173590183258,-0.8864907026290894,0.8864907026290894,0.3415173590183258,410.0220642089844,260.5498352050781)" opacity="0.55"><g opacity="1" transform="matrix(1,0,0,1,0,0)"><path stroke-linecap="round" stroke-linejoin="round" fill-opacity="0" stroke-dasharray=" 56 529" stroke-dashoffset="0" stroke="rgb(243,248,255)" stroke-opacity="1" stroke-width="0" d=" M-363.64801025390625,-288.3169860839844 C-356.1510009765625,-284.0459899902344 -324.7019958496094,-271.6090087890625 -288.49700927734375,-246.21800231933594 C-261.2279968261719,-227.093994140625 -214.50999450683594,-130.00900268554688 -140.1439971923828,-105.8479995727539 C-26.690000534057617,-68.98699951171875 -31.445999145507812,27.149999618530273 109.04299926757812,44.47700119018555"/></g></g><g style="display: block;" transform="matrix(0.3415173590183258,-0.8864907026290894,0.8864907026290894,0.3415173590183258,402.42205810546875,-95.70013427734375)" opacity="0.55"><g opacity="1" transform="matrix(1,0,0,1,0,0)"><path stroke-linecap="round" stroke-linejoin="round" fill-opacity="0" stroke-dasharray=" 56 529" stroke-dashoffset="0" stroke="rgb(243,248,255)" stroke-opacity="1" stroke-width="0" d=" M-363.64801025390625,-288.3169860839844 C-345.57501220703125,-270.8429870605469 -291.7929992675781,-262.3219909667969 -257.85400390625,-231.48300170898438 C-227.5749969482422,-203.05599975585938 -209.88600158691406,-149.51199340820312 -176.8780059814453,-119.79499816894531"/></g></g><g style="display: block;" transform="matrix(0.3415173590183258,-0.8864907026290894,0.8864907026290894,0.3415173590183258,653.2220458984375,261.4998474121094)" opacity="0.55"><g opacity="1" transform="matrix(1,0,0,1,0,0)"><path stroke-linecap="round" stroke-linejoin="round" fill-opacity="0" stroke-dasharray=" 60.262 529" stroke-dashoffset="-240.00399780273438" stroke="rgb(243,248,255)" stroke-opacity="1" stroke-width="0" d=" M-404.98199462890625,-381.70098876953125 C-357.1820068359375,-357.99700927734375 -321.4159851074219,-272.1130065917969 -257.85400390625,-231.48300170898438 C-227.5749969482422,-203.05599975585938 -209.88600158691406,-149.51199340820312 -176.8780059814453,-119.79499816894531"/></g></g></g></svg>