<svg xmlns="http://www.w3.org/2000/svg" xmlns:xlink="http://www.w3.org/1999/xlink" viewBox="0 0 512 512" width="512" height="512" style="width: 100%; height: 100%; transform: translate3d(0,0,0);" preserveAspectRatio="xMidYMid meet"><defs><clipPath id="__lottie_element_2986"><rect width="512" height="512" x="0" y="0"/></clipPath><linearGradient id="__lottie_element_2995" spreadMethod="pad" gradientUnits="userSpaceOnUse" x1="-1.0399999618530273" y1="-176.5" x2="0.9599999785423279" y2="188.88900756835938"><stop offset="0%" stop-color="rgb(253,207,24)"/><stop offset="47%" stop-color="rgb(245,171,12)"/><stop offset="93%" stop-color="rgb(237,135,0)"/></linearGradient><radialGradient id="__lottie_element_2996" spreadMethod="pad" gradientUnits="userSpaceOnUse" cx="-6.039999961853027" cy="-160.1230010986328" r="342.6724710471032" fx="-6.039999961853027" fy="-160.1230010986328"><stop offset="7%" stop-color="rgb(254,254,226)"/><stop offset="28%" stop-color="rgb(253,238,140)"/><stop offset="49%" stop-color="rgb(252,222,54)"/><stop offset="82%" stop-color="rgb(245,184,32)"/><stop offset="100%" stop-color="rgb(238,145,10)"/></radialGradient></defs><g clip-path="url(#__lottie_element_2986)"><g style="display: block;" transform="matrix(1.0299999713897705,0,0,1.0299999713897705,251.9835205078125,257.99884033203125)" opacity="1"><g opacity="1" transform="matrix(0.9700000286102295,0,0,0.9700000286102295,-205.2456817626953,-211.231689453125)"><g opacity="1" transform="matrix(1,0,0,1,215.6439971923828,215.64500427246094)"><path fill="url(#__lottie_element_2995)" fill-opacity="1" d=" M194.9969940185547,0 C194.9969940185547,107.69400024414062 107.69300079345703,194.9969940185547 0,194.9969940185547 C-107.69400024414062,194.9969940185547 -194.9969940185547,107.69400024414062 -194.9969940185547,0 C-194.9969940185547,-107.69400024414062 -107.69400024414062,-194.9969940185547 0,-194.9969940185547 C107.69300079345703,-194.9969940185547 194.9969940185547,-107.69400024414062 194.9969940185547,0z"/></g><g opacity="1" transform="matrix(1,0,0,1,215.70199584960938,213.7169952392578)"><path fill="url(#__lottie_element_2996)" fill-opacity="1" d=" M173.80799865722656,2.6630001068115234 C172.3040008544922,100.77200317382812 93.26899719238281,179.11199951171875 -2.7230000495910645,177.63999938964844 C-98.71399688720703,176.16799926757812 -175.31199645996094,95.44499969482422 -173.80799865722656,-2.6640000343322754 C-172.3040008544922,-100.77300262451172 -93.26899719238281,-179.11199951171875 2.7230000495910645,-177.64100646972656 C98.71399688720703,-176.16900634765625 175.31199645996094,-95.44499969482422 173.80799865722656,2.6630001068115234z"/></g><g opacity="1" transform="matrix(1,0,0,1,215.6439971923828,215.64500427246094)"><path stroke-linecap="butt" stroke-linejoin="miter" fill-opacity="0" stroke-miterlimit="10" stroke="rgb(231,105,0)" stroke-opacity="1" stroke-width="8.259" d=" M194.9969940185547,0 C194.9969940185547,107.69400024414062 107.69300079345703,194.9969940185547 0,194.9969940185547 C-107.69400024414062,194.9969940185547 -194.9969940185547,107.69400024414062 -194.9969940185547,0 C-194.9969940185547,-107.69400024414062 -107.69400024414062,-194.9969940185547 0,-194.9969940185547 C107.69300079345703,-194.9969940185547 194.9969940185547,-107.69400024414062 194.9969940185547,0z"/></g></g></g><g style="display: block;" transform="matrix(1.0299999713897705,0,0,1.0299999713897705,251.9835205078125,257.99884033203125)" opacity="1"><g opacity="1" transform="matrix(1,0,0,1,0,0)"><path fill="rgb(255,222,156)" fill-opacity="1" d=" M-30.517000198364258,-44.40599822998047 C-30.517000198364258,-26.54800033569336 -41.15999984741211,-12.071000099182129 -54.28900146484375,-12.071000099182129 C-67.41799926757812,-12.071000099182129 -78.05999755859375,-26.54800033569336 -78.05999755859375,-44.40599822998047 C-78.05999755859375,-62.263999938964844 -67.41799926757812,-76.74099731445312 -54.28900146484375,-76.74099731445312 C-41.15999984741211,-76.74099731445312 -30.517000198364258,-62.263999938964844 -30.517000198364258,-44.40599822998047z"/></g><g opacity="1" transform="matrix(1,0,0,1,0,0)"><path fill="rgb(234,172,31)" fill-opacity="1" d=" M-30.517000198364258,-47.73400115966797 C-30.517000198364258,-31.714000701904297 -41.15999984741211,-18.72800064086914 -54.28900146484375,-18.72800064086914 C-67.41799926757812,-18.72800064086914 -78.05999755859375,-31.714000701904297 -78.05999755859375,-47.73400115966797 C-78.05999755859375,-63.75400161743164 -67.41799926757812,-76.74099731445312 -54.28900146484375,-76.74099731445312 C-41.15999984741211,-76.74099731445312 -30.517000198364258,-63.75400161743164 -30.517000198364258,-47.73400115966797z"/></g><g opacity="1" transform="matrix(1,0,0,1,0,0)"><path fill="rgb(151,72,0)" fill-opacity="1" d=" M-32.43199920654297,-44.54899978637695 C-32.43199920654297,-29.45199966430664 -42.21799850463867,-17.214000701904297 -54.28900146484375,-17.214000701904297 C-66.36000061035156,-17.214000701904297 -76.14600372314453,-29.45199966430664 -76.14600372314453,-44.54899978637695 C-76.14600372314453,-59.645999908447266 -66.36000061035156,-71.88400268554688 -54.28900146484375,-71.88400268554688 C-42.21799850463867,-71.88400268554688 -32.43199920654297,-59.645999908447266 -32.43199920654297,-44.54899978637695z"/></g><g opacity="1" transform="matrix(1,0,0,1,0,0)"><path fill="rgb(99,41,0)" fill-opacity="1" d=" M-32.42900085449219,-44.54399871826172 C-32.42900085449219,-43.34400177001953 -32.48899841308594,-42.16400146484375 -32.61899948120117,-41.00400161743164 C-33.999000549316406,-54.433998107910156 -43.17900085449219,-64.81400299072266 -54.28900146484375,-64.81400299072266 C-65.39900207519531,-64.81400299072266 -74.5790023803711,-54.433998107910156 -75.95899963378906,-41.00400161743164 C-76.08899688720703,-42.16400146484375 -76.14900207519531,-43.34400177001953 -76.14900207519531,-44.54399871826172 C-76.14900207519531,-59.64400100708008 -66.35900115966797,-71.88400268554688 -54.28900146484375,-71.88400268554688 C-42.21900177001953,-71.88400268554688 -32.42900085449219,-59.64400100708008 -32.42900085449219,-44.54399871826172z"/></g></g><g style="display: block;" transform="matrix(-1.0299999713897705,0,0,1.0299999713897705,260.1431579589844,257.99884033203125)" opacity="1"><g opacity="1" transform="matrix(1,0,0,1,0,0)"><path fill="rgb(255,222,156)" fill-opacity="1" d=" M-30.517000198364258,-44.40599822998047 C-30.517000198364258,-26.54800033569336 -41.15999984741211,-12.071000099182129 -54.28900146484375,-12.071000099182129 C-67.41799926757812,-12.071000099182129 -78.05999755859375,-26.54800033569336 -78.05999755859375,-44.40599822998047 C-78.05999755859375,-62.263999938964844 -67.41799926757812,-76.74099731445312 -54.28900146484375,-76.74099731445312 C-41.15999984741211,-76.74099731445312 -30.517000198364258,-62.263999938964844 -30.517000198364258,-44.40599822998047z"/></g><g opacity="1" transform="matrix(1,0,0,1,0,0)"><path fill="rgb(234,172,31)" fill-opacity="1" d=" M-30.517000198364258,-47.73400115966797 C-30.517000198364258,-31.714000701904297 -41.15999984741211,-18.72800064086914 -54.28900146484375,-18.72800064086914 C-67.41799926757812,-18.72800064086914 -78.05999755859375,-31.714000701904297 -78.05999755859375,-47.73400115966797 C-78.05999755859375,-63.75400161743164 -67.41799926757812,-76.74099731445312 -54.28900146484375,-76.74099731445312 C-41.15999984741211,-76.74099731445312 -30.517000198364258,-63.75400161743164 -30.517000198364258,-47.73400115966797z"/></g><g opacity="1" transform="matrix(1,0,0,1,0,0)"><path fill="rgb(151,72,0)" fill-opacity="1" d=" M-32.43199920654297,-44.54899978637695 C-32.43199920654297,-29.45199966430664 -42.21799850463867,-17.214000701904297 -54.28900146484375,-17.214000701904297 C-66.36000061035156,-17.214000701904297 -76.14600372314453,-29.45199966430664 -76.14600372314453,-44.54899978637695 C-76.14600372314453,-59.645999908447266 -66.36000061035156,-71.88400268554688 -54.28900146484375,-71.88400268554688 C-42.21799850463867,-71.88400268554688 -32.43199920654297,-59.645999908447266 -32.43199920654297,-44.54899978637695z"/></g><g opacity="1" transform="matrix(1,0,0,1,0,0)"><path fill="rgb(99,41,0)" fill-opacity="1" d=" M-32.42900085449219,-44.54399871826172 C-32.42900085449219,-43.34400177001953 -32.48899841308594,-42.16400146484375 -32.61899948120117,-41.00400161743164 C-33.999000549316406,-54.433998107910156 -43.17900085449219,-64.81400299072266 -54.28900146484375,-64.81400299072266 C-65.39900207519531,-64.81400299072266 -74.5790023803711,-54.433998107910156 -75.95899963378906,-41.00400161743164 C-76.08899688720703,-42.16400146484375 -76.14900207519531,-43.34400177001953 -76.14900207519531,-44.54399871826172 C-76.14900207519531,-59.64400100708008 -66.35900115966797,-71.88400268554688 -54.28900146484375,-71.88400268554688 C-42.21900177001953,-71.88400268554688 -32.42900085449219,-59.64400100708008 -32.42900085449219,-44.54399871826172z"/></g></g><g style="display: block;" transform="matrix(1.0299999713897705,0,0,1.0299999713897705,251.9835205078125,257.99884033203125)" opacity="1"><g opacity="1" transform="matrix(1,0,0,1,0,0)"><path fill="rgb(254,221,120)" fill-opacity="1" d=" M49.141998291015625,84.58399963378906 C49.141998291015625,110.84100341796875 28.8799991607666,132.1269989013672 3.884999990463257,132.1269989013672 C-21.110000610351562,132.1269989013672 -41.37200164794922,110.84100341796875 -41.37200164794922,84.58399963378906 C-41.37200164794922,58.32699966430664 -21.110000610351562,37.04100036621094 3.884999990463257,37.04100036621094 C28.8799991607666,37.04100036621094 49.141998291015625,58.32699966430664 49.141998291015625,84.58399963378906z"/></g><g opacity="0.7000000000000001" transform="matrix(1,0,0,1,0,0)"><path fill="rgb(234,172,31)" fill-opacity="1" d=" M49.141998291015625,78.87000274658203 C49.141998291015625,104.73300170898438 28.8799991607666,125.697998046875 3.884999990463257,125.697998046875 C-21.110000610351562,125.697998046875 -41.37200164794922,104.73300170898438 -41.37200164794922,78.87000274658203 C-41.37200164794922,53.00699996948242 -21.110000610351562,32.04100036621094 3.884999990463257,32.04100036621094 C28.8799991607666,32.04100036621094 49.141998291015625,53.00699996948242 49.141998291015625,78.87000274658203z"/></g><g opacity="1" transform="matrix(1,0,0,1,0,0)"><path fill="rgb(151,72,0)" fill-opacity="1" d=" M47.428001403808594,82.58399963378906 C47.428001403808594,106.63200378417969 27.933000564575195,126.12699890136719 3.884999990463257,126.12699890136719 C-20.163000106811523,126.12699890136719 -39.65800094604492,106.63200378417969 -39.65800094604492,82.58399963378906 C-39.65800094604492,58.5359992980957 -20.163000106811523,39.04100036621094 3.884999990463257,39.04100036621094 C27.933000564575195,39.04100036621094 47.428001403808594,58.5359992980957 47.428001403808594,82.58399963378906z"/></g><g opacity="1" transform="matrix(1,0,0,1,0,0)"><path fill="rgb(99,41,0)" fill-opacity="1" d=" M45.071998596191406,96.74299621582031 C45.27199935913086,95.02300262451172 45.37200164794922,93.27300262451172 45.37200164794922,91.50299835205078 C45.37200164794922,67.4530029296875 26.79199981689453,47.952999114990234 3.881999969482422,47.952999114990234 C-19.027999877929688,47.952999114990234 -37.597999572753906,67.4530029296875 -37.597999572753906,91.50299835205078 C-37.597999572753906,93.27300262451172 -37.49800109863281,95.02300262451172 -37.29800033569336,96.74299621582031 C-38.827999114990234,92.3030014038086 -39.65800094604492,87.54299926757812 -39.65800094604492,82.58300018310547 C-39.65800094604492,58.53300094604492 -20.167999267578125,39.042999267578125 3.881999969482422,39.042999267578125 C27.93199920654297,39.042999267578125 47.43199920654297,58.53300094604492 47.43199920654297,82.58300018310547 C47.43199920654297,87.54299926757812 46.60200119018555,92.3030014038086 45.071998596191406,96.74299621582031z"/></g></g></g></svg>