<svg xmlns="http://www.w3.org/2000/svg" xmlns:xlink="http://www.w3.org/1999/xlink" viewBox="0 0 512 512" width="512" height="512" style="width: 100%; height: 100%; transform: translate3d(0,0,0);" preserveAspectRatio="xMidYMid meet"><defs><clipPath id="__lottie_element_2075"><rect width="512" height="512" x="0" y="0"/></clipPath><linearGradient id="__lottie_element_2083" spreadMethod="pad" gradientUnits="userSpaceOnUse" x1="-1.0399999618530273" y1="-176.5" x2="0.9599999785423279" y2="188.88900756835938"><stop offset="0%" stop-color="rgb(253,207,24)"/><stop offset="47%" stop-color="rgb(245,171,12)"/><stop offset="93%" stop-color="rgb(237,135,0)"/></linearGradient><radialGradient id="__lottie_element_2084" spreadMethod="pad" gradientUnits="userSpaceOnUse" cx="-6.039999961853027" cy="-160.1230010986328" r="342.6724710471032" fx="-6.039999961853027" fy="-160.1230010986328"><stop offset="7%" stop-color="rgb(254,254,226)"/><stop offset="28%" stop-color="rgb(253,238,140)"/><stop offset="49%" stop-color="rgb(252,222,54)"/><stop offset="82%" stop-color="rgb(245,184,32)"/><stop offset="100%" stop-color="rgb(238,145,10)"/></radialGradient></defs><g clip-path="url(#__lottie_element_2075)"><g style="display: block;" transform="matrix(0.8787500262260437,0,0,0.8787500262260437,30.03999900817871,31.627500534057617)" opacity="1"><g opacity="1" transform="matrix(1.1399999856948853,0,0,1.1399999856948853,11.042327880859375,9.593658447265625)"><g opacity="1" transform="matrix(1,0,0,1,215.6439971923828,215.64500427246094)"><path fill="url(#__lottie_element_2083)" fill-opacity="1" d=" M194.9969940185547,0 C194.9969940185547,107.69400024414062 107.69300079345703,194.9969940185547 0,194.9969940185547 C-107.69400024414062,194.9969940185547 -194.9969940185547,107.69400024414062 -194.9969940185547,0 C-194.9969940185547,-107.69400024414062 -107.69400024414062,-194.9969940185547 0,-194.9969940185547 C107.69300079345703,-194.9969940185547 194.9969940185547,-107.69400024414062 194.9969940185547,0z"/></g><g opacity="1" transform="matrix(1,0,0,1,215.70199584960938,213.7169952392578)"><path fill="url(#__lottie_element_2084)" fill-opacity="1" d=" M173.80799865722656,2.6630001068115234 C172.3040008544922,100.77200317382812 93.26899719238281,179.11199951171875 -2.7230000495910645,177.63999938964844 C-98.71399688720703,176.16799926757812 -175.31199645996094,95.44499969482422 -173.80799865722656,-2.6640000343322754 C-172.3040008544922,-100.77300262451172 -93.26899719238281,-179.11199951171875 2.7230000495910645,-177.64100646972656 C98.71399688720703,-176.16900634765625 175.31199645996094,-95.44499969482422 173.80799865722656,2.6630001068115234z"/></g><g opacity="1" transform="matrix(1,0,0,1,215.6439971923828,215.64500427246094)"><path stroke-linecap="butt" stroke-linejoin="miter" fill-opacity="0" stroke-miterlimit="10" stroke="rgb(231,105,0)" stroke-opacity="1" stroke-width="8.259" d=" M194.9969940185547,0 C194.9969940185547,107.69400024414062 107.69300079345703,194.9969940185547 0,194.9969940185547 C-107.69400024414062,194.9969940185547 -194.9969940185547,107.69400024414062 -194.9969940185547,0 C-194.9969940185547,-107.69400024414062 -107.69400024414062,-194.9969940185547 0,-194.9969940185547 C107.69300079345703,-194.9969940185547 194.9969940185547,-107.69400024414062 194.9969940185547,0z"/></g></g></g><g style="display: block;" transform="matrix(0.8787500262260437,0,0,0.8787500262260437,30.03999900817871,31.627500534057617)" opacity="1"><g opacity="1" transform="matrix(1,0,0,1,254.93099975585938,382.7950134277344)"><path fill="rgb(234,172,31)" fill-opacity="1" d=" M101.75800323486328,-12.810999870300293 C101.75800323486328,-12.810999870300293 88.81999969482422,-1.1330000162124634 88.81999969482422,-1.1330000162124634 C86.72699737548828,0.7559999823570251 83.56500244140625,0.8190000057220459 81.39800262451172,-0.984000027179718 C81.39800262451172,-0.984000027179718 46.224998474121094,-30.25200080871582 46.224998474121094,-30.25200080871582 C44.058998107910156,-32.05500030517578 40.89699935913086,-31.993000030517578 38.80400085449219,-30.104999542236328 C38.80400085449219,-30.104999542236328 3.7960000038146973,1.472000002861023 3.7960000038146973,1.472000002861023 C1.6390000581741333,3.4170000553131104 -1.6390000581741333,3.4170000553131104 -3.7960000038146973,1.472000002861023 C-3.7960000038146973,1.472000002861023 -38.80400085449219,-30.104999542236328 -38.80400085449219,-30.104999542236328 C-40.89699935913086,-31.993000030517578 -44.058998107910156,-32.05500030517578 -46.224998474121094,-30.25200080871582 C-46.224998474121094,-30.25200080871582 -81.39800262451172,-0.984000027179718 -81.39800262451172,-0.984000027179718 C-83.56500244140625,0.8190000057220459 -86.72699737548828,0.7559999823570251 -88.81999969482422,-1.1330000162124634 C-88.81999969482422,-1.1330000162124634 -101.75800323486328,-12.810999870300293 -101.75800323486328,-12.810999870300293 C-103.94000244140625,-14.779999732971191 -107.26499938964844,-14.753999710083008 -109.41600036621094,-12.751999855041504 C-109.41600036621094,-12.751999855041504 -115.89099884033203,-6.72599983215332 -115.89099884033203,-6.72599983215332 C-118.27300262451172,-4.508999824523926 -118.30400085449219,-0.7459999918937683 -115.95800018310547,1.5089999437332153 C-115.95800018310547,1.5089999437332153 -88.8550033569336,27.56100082397461 -88.8550033569336,27.56100082397461 C-86.76300048828125,29.57200050354004 -83.48999786376953,29.67799949645996 -81.27200317382812,27.805999755859375 C-81.27200317382812,27.805999755859375 -46.24100112915039,-1.7649999856948853 -46.24100112915039,-1.7649999856948853 C-44.07099914550781,-3.5969998836517334 -40.880001068115234,-3.5390000343322754 -38.777000427246094,-1.63100004196167 C-38.777000427246094,-1.63100004196167 -3.808000087738037,30.0939998626709 -3.808000087738037,30.0939998626709 C-1.6480000019073486,32.05400085449219 1.6480000019073486,32.05400085449219 3.808000087738037,30.0939998626709 C3.808000087738037,30.0939998626709 38.777000427246094,-1.63100004196167 38.777000427246094,-1.63100004196167 C40.880001068115234,-3.5390000343322754 44.07099914550781,-3.5969998836517334 46.24100112915039,-1.7649999856948853 C46.24100112915039,-1.7649999856948853 81.27200317382812,27.805999755859375 81.27200317382812,27.805999755859375 C83.48999786376953,29.67799949645996 86.76300048828125,29.57200050354004 88.8550033569336,27.56100082397461 C88.8550033569336,27.56100082397461 115.95800018310547,1.5080000162124634 115.95800018310547,1.5080000162124634 C118.30400085449219,-0.746999979019165 118.27300262451172,-4.508999824523926 115.89099884033203,-6.72599983215332 C115.89099884033203,-6.72599983215332 109.41699981689453,-12.751999855041504 109.41699981689453,-12.751999855041504 C107.26599884033203,-14.753999710083008 103.94000244140625,-14.779999732971191 101.75800323486328,-12.810999870300293z"/></g><g opacity="1" transform="matrix(1,0,0,1,254.93099975585938,394.56298828125)"><path fill="rgb(254,221,120)" fill-opacity="1" d=" M101.75800323486328,-12.810999870300293 C101.75800323486328,-12.810999870300293 88.81999969482422,-1.1330000162124634 88.81999969482422,-1.1330000162124634 C86.72699737548828,0.7559999823570251 83.56500244140625,0.8190000057220459 81.39800262451172,-0.984000027179718 C81.39800262451172,-0.984000027179718 46.224998474121094,-30.25200080871582 46.224998474121094,-30.25200080871582 C44.058998107910156,-32.05500030517578 40.89699935913086,-31.993000030517578 38.80400085449219,-30.104999542236328 C38.80400085449219,-30.104999542236328 3.7960000038146973,1.472000002861023 3.7960000038146973,1.472000002861023 C1.6390000581741333,3.4170000553131104 -1.6390000581741333,3.4170000553131104 -3.7960000038146973,1.472000002861023 C-3.7960000038146973,1.472000002861023 -38.80400085449219,-30.104999542236328 -38.80400085449219,-30.104999542236328 C-40.89699935913086,-31.993000030517578 -44.058998107910156,-32.05500030517578 -46.224998474121094,-30.25200080871582 C-46.224998474121094,-30.25200080871582 -81.39800262451172,-0.984000027179718 -81.39800262451172,-0.984000027179718 C-83.56500244140625,0.8190000057220459 -86.72699737548828,0.7559999823570251 -88.81999969482422,-1.1330000162124634 C-88.81999969482422,-1.1330000162124634 -101.75800323486328,-12.810999870300293 -101.75800323486328,-12.810999870300293 C-103.94000244140625,-14.779999732971191 -107.26499938964844,-14.753999710083008 -109.41600036621094,-12.751999855041504 C-109.41600036621094,-12.751999855041504 -115.89099884033203,-6.72599983215332 -115.89099884033203,-6.72599983215332 C-118.27300262451172,-4.508999824523926 -118.30400085449219,-0.7459999918937683 -115.95800018310547,1.5089999437332153 C-115.95800018310547,1.5089999437332153 -88.8550033569336,27.56100082397461 -88.8550033569336,27.56100082397461 C-86.76300048828125,29.57200050354004 -83.48999786376953,29.67799949645996 -81.27200317382812,27.805999755859375 C-81.27200317382812,27.805999755859375 -46.24100112915039,-1.7649999856948853 -46.24100112915039,-1.7649999856948853 C-44.07099914550781,-3.5969998836517334 -40.880001068115234,-3.5390000343322754 -38.777000427246094,-1.63100004196167 C-38.777000427246094,-1.63100004196167 -3.808000087738037,30.0939998626709 -3.808000087738037,30.0939998626709 C-1.6480000019073486,32.05400085449219 1.6480000019073486,32.05400085449219 3.808000087738037,30.0939998626709 C3.808000087738037,30.0939998626709 38.777000427246094,-1.63100004196167 38.777000427246094,-1.63100004196167 C40.880001068115234,-3.5390000343322754 44.07099914550781,-3.5969998836517334 46.24100112915039,-1.7649999856948853 C46.24100112915039,-1.7649999856948853 81.27200317382812,27.805999755859375 81.27200317382812,27.805999755859375 C83.48999786376953,29.67799949645996 86.76300048828125,29.57200050354004 88.8550033569336,27.56100082397461 C88.8550033569336,27.56100082397461 115.95800018310547,1.5080000162124634 115.95800018310547,1.5080000162124634 C118.30400085449219,-0.746999979019165 118.27300262451172,-4.508999824523926 115.89099884033203,-6.72599983215332 C115.89099884033203,-6.72599983215332 109.41699981689453,-12.751999855041504 109.41699981689453,-12.751999855041504 C107.26599884033203,-14.753999710083008 103.94000244140625,-14.779999732971191 101.75800323486328,-12.810999870300293z"/></g><g opacity="1" transform="matrix(1,0,0,1,254.93099975585938,388.6789855957031)"><path fill="rgb(151,72,0)" fill-opacity="1" d=" M101.75800323486328,-12.810999870300293 C101.75800323486328,-12.810999870300293 88.81999969482422,-1.1330000162124634 88.81999969482422,-1.1330000162124634 C86.72699737548828,0.7559999823570251 83.56500244140625,0.8190000057220459 81.39800262451172,-0.984000027179718 C81.39800262451172,-0.984000027179718 46.224998474121094,-30.25200080871582 46.224998474121094,-30.25200080871582 C44.058998107910156,-32.05500030517578 40.89699935913086,-31.993000030517578 38.80400085449219,-30.104999542236328 C38.80400085449219,-30.104999542236328 3.7960000038146973,1.472000002861023 3.7960000038146973,1.472000002861023 C1.6390000581741333,3.4170000553131104 -1.6390000581741333,3.4170000553131104 -3.7960000038146973,1.472000002861023 C-3.7960000038146973,1.472000002861023 -38.80400085449219,-30.104999542236328 -38.80400085449219,-30.104999542236328 C-40.89699935913086,-31.993000030517578 -44.058998107910156,-32.05500030517578 -46.224998474121094,-30.25200080871582 C-46.224998474121094,-30.25200080871582 -81.39800262451172,-0.984000027179718 -81.39800262451172,-0.984000027179718 C-83.56500244140625,0.8190000057220459 -86.72699737548828,0.7559999823570251 -88.81999969482422,-1.1330000162124634 C-88.81999969482422,-1.1330000162124634 -101.75800323486328,-12.810999870300293 -101.75800323486328,-12.810999870300293 C-103.94000244140625,-14.779999732971191 -107.26499938964844,-14.753999710083008 -109.41600036621094,-12.751999855041504 C-109.41600036621094,-12.751999855041504 -115.89099884033203,-6.72599983215332 -115.89099884033203,-6.72599983215332 C-118.27300262451172,-4.508999824523926 -118.30400085449219,-0.7459999918937683 -115.95800018310547,1.5089999437332153 C-115.95800018310547,1.5089999437332153 -88.8550033569336,27.56100082397461 -88.8550033569336,27.56100082397461 C-86.76300048828125,29.57200050354004 -83.48999786376953,29.67799949645996 -81.27200317382812,27.805999755859375 C-81.27200317382812,27.805999755859375 -46.24100112915039,-1.7649999856948853 -46.24100112915039,-1.7649999856948853 C-44.07099914550781,-3.5969998836517334 -40.880001068115234,-3.5390000343322754 -38.777000427246094,-1.63100004196167 C-38.777000427246094,-1.63100004196167 -3.808000087738037,30.0939998626709 -3.808000087738037,30.0939998626709 C-1.6480000019073486,32.05400085449219 1.6480000019073486,32.05400085449219 3.808000087738037,30.0939998626709 C3.808000087738037,30.0939998626709 38.777000427246094,-1.63100004196167 38.777000427246094,-1.63100004196167 C40.880001068115234,-3.5390000343322754 44.07099914550781,-3.5969998836517334 46.24100112915039,-1.7649999856948853 C46.24100112915039,-1.7649999856948853 81.27200317382812,27.805999755859375 81.27200317382812,27.805999755859375 C83.48999786376953,29.67799949645996 86.76300048828125,29.57200050354004 88.8550033569336,27.56100082397461 C88.8550033569336,27.56100082397461 115.95800018310547,1.5080000162124634 115.95800018310547,1.5080000162124634 C118.30400085449219,-0.746999979019165 118.27300262451172,-4.508999824523926 115.89099884033203,-6.72599983215332 C115.89099884033203,-6.72599983215332 109.41699981689453,-12.751999855041504 109.41699981689453,-12.751999855041504 C107.26599884033203,-14.753999710083008 103.94000244140625,-14.779999732971191 101.75800323486328,-12.810999870300293z"/></g><g opacity="1" transform="matrix(1,0,0,1,254.93099975585938,377.90399169921875)"><path fill="rgb(99,41,0)" fill-opacity="1" d=" M116.69300079345703,11.413999557495117 C116.69300079345703,11.413999557495117 108.51499938964844,3.8010001182556152 108.51499938964844,3.8010001182556152 C106.87899780273438,2.2709999084472656 104.33699798583984,2.247999906539917 102.6780014038086,3.753999948501587 C102.6780014038086,3.753999948501587 87.95700073242188,17.038999557495117 87.95700073242188,17.038999557495117 C86.35700225830078,18.475000381469727 83.94400024414062,18.52199935913086 82.2969970703125,17.145000457763672 C82.2969970703125,17.145000457763672 45.334999084472656,-13.614999771118164 45.334999084472656,-13.614999771118164 C43.67599868774414,-14.979999542236328 41.26300048828125,-14.934000015258789 39.67399978637695,-13.498000144958496 C39.67399978637695,-13.498000144958496 2.9010000228881836,19.674999237060547 2.9010000228881836,19.674999237060547 C1.253999948501587,21.158000946044922 -1.253999948501587,21.158000946044922 -2.9010000228881836,19.674999237060547 C-2.9010000228881836,19.674999237060547 -39.67399978637695,-13.498000144958496 -39.67399978637695,-13.498000144958496 C-41.26300048828125,-14.934000015258789 -43.67599868774414,-14.979999542236328 -45.334999084472656,-13.614999771118164 C-45.334999084472656,-13.614999771118164 -82.2969970703125,17.145000457763672 -82.2969970703125,17.145000457763672 C-83.94499969482422,18.52199935913086 -86.35600280761719,18.475000381469727 -87.95700073242188,17.038999557495117 C-87.95700073242188,17.038999557495117 -102.66600036621094,3.753999948501587 -102.66600036621094,3.753999948501587 C-104.33699798583984,2.247999906539917 -106.86799621582031,2.2709999084472656 -108.51499938964844,3.8010001182556152 C-108.51499938964844,3.8010001182556152 -116.69300079345703,11.413999557495117 -116.69300079345703,11.413999557495117 C-118.25800323486328,9.154999732971191 -117.98799896240234,6.000999927520752 -115.89299774169922,4.047999858856201 C-115.89299774169922,4.047999858856201 -109.4209976196289,-1.9769999980926514 -109.4209976196289,-1.9769999980926514 C-107.26699829101562,-3.9769999980926514 -103.93699645996094,-4.000999927520752 -101.76000213623047,-2.0360000133514404 C-101.76000213623047,-2.0360000133514404 -88.81600189208984,9.63700008392334 -88.81600189208984,9.63700008392334 C-86.73300170898438,11.531999588012695 -83.56700134277344,11.59000015258789 -81.4020004272461,9.789999961853027 C-81.4020004272461,9.789999961853027 -46.229000091552734,-19.47599983215332 -46.229000091552734,-19.47599983215332 C-44.06399917602539,-21.275999069213867 -40.89899826049805,-21.216999053955078 -38.80400085449219,-19.333999633789062 C-38.80400085449219,-19.333999633789062 -3.7950000762939453,12.25 -3.7950000762939453,12.25 C-1.6419999599456787,14.192000389099121 1.6410000324249268,14.192000389099121 3.7950000762939453,12.25 C3.7950000762939453,12.25 38.80400085449219,-19.333999633789062 38.80400085449219,-19.333999633789062 C40.89899826049805,-21.216999053955078 44.06399917602539,-21.275999069213867 46.229000091552734,-19.47599983215332 C46.229000091552734,-19.47599983215332 81.4020004272461,9.789999961853027 81.4020004272461,9.789999961853027 C83.56700134277344,11.59000015258789 86.73300170898438,11.531999588012695 88.81600189208984,9.63700008392334 C88.81600189208984,9.63700008392334 101.76000213623047,-2.0360000133514404 101.76000213623047,-2.0360000133514404 C103.93699645996094,-4.000999927520752 107.26699829101562,-3.9769999980926514 109.4209976196289,-1.9769999980926514 C109.4209976196289,-1.9769999980926514 115.89299774169922,4.047999858856201 115.89299774169922,4.047999858856201 C117.98799896240234,6.000999927520752 118.25800323486328,9.154999732971191 116.69300079345703,11.413999557495117z"/></g></g><g style="display: block;" transform="matrix(0.8787500262260437,0,0,0.8787500262260437,30.040014266967773,31.627500534057617)" opacity="1"><g opacity="1" transform="matrix(1,0,0,1,0,0)"><g opacity="1" transform="matrix(1,0,0,1,176.78399658203125,289.4490051269531)"><path fill="rgb(255,230,160)" fill-opacity="1" d=" M50.512001037597656,-1.3839999437332153 C50.512001037597656,-19.961000442504883 24.888999938964844,-24.823999404907227 -0.9700000286102295,-37.19300079345703 C-29.511999130249023,-50.845001220703125 -51.26499938964844,-66.64600372314453 -50.492000579833984,-53.19900131225586 C-50.00600051879883,-44.736000061035156 11.645999908447266,-12.942000389099121 11.515999794006348,-0.2070000022649765 C11.397000312805176,11.454000473022461 -44.104000091552734,46.768001556396484 -37.099998474121094,57.459999084472656 C-36.733001708984375,58.02000045776367 -36.14099884033203,58.35599899291992 -34.99100112915039,58.30799865722656 C-21.54599952697754,57.74599838256836 50.512001037597656,16.62299919128418 50.512001037597656,-1.3839999437332153z"/></g><g opacity="1" transform="matrix(1,0,0,1,176.79400634765625,287.05499267578125)"><path fill="rgb(151,72,0)" fill-opacity="1" d=" M49.32600021362305,-3.697000026702881 C49.32600021362305,-15.406000137329102 24.878999710083008,-27.136999130249023 -0.9800000190734863,-39.50600051879883 C-29.52199935913086,-53.15800094604492 -49.284000396728516,-59.19900131225586 -49.32600021362305,-54.334999084472656 C-49.39899826049805,-45.85900115966797 11.63599967956543,-15.255000114440918 11.505999565124512,-2.5199999809265137 C11.38700008392334,9.140999794006348 -39.722999572753906,47.98500061035156 -37.11000061035156,55.14699935913086 C-36.88100051879883,55.7760009765625 -36.1510009765625,56.042999267578125 -35.000999450683594,55.994998931884766 C-21.555999755859375,55.43299865722656 49.32600021362305,11.682999610900879 49.32600021362305,-3.697000026702881z"/></g><g opacity="1" transform="matrix(1.1610000133514404,0,0,1.1610000133514404,176.96200561523438,260.1759948730469)"><path fill="rgb(99,41,0)" fill-opacity="1" d=" M-41.915000915527344,-23.33099937438965 C-41.92499923706055,-22.42099952697754 -41.095001220703125,-21.201000213623047 -39.6349983215332,-19.740999221801758 C-34.255001068115234,-19.94099998474121 -19.825000762939453,-14.821000099182129 -0.8349999785423279,-5.730999946594238 C21.145000457763672,4.7789998054504395 39.915000915527344,14.74899959564209 39.915000915527344,24.698999404907227 C39.915000915527344,24.698999404907227 39.915000915527344,24.749000549316406 39.915000915527344,24.749000549316406 C41.20500183105469,22.82900047302246 41.915000915527344,21.118999481201172 41.915000915527344,19.698999404907227 C41.915000915527344,9.74899959564209 21.145000457763672,-0.22100000083446503 -0.8349999785423279,-10.730999946594238 C-25.084999084472656,-22.33099937438965 -41.8849983215332,-27.47100067138672 -41.915000915527344,-23.33099937438965z"/></g><g opacity="1" transform="matrix(1.1610000133514404,0,0,1.1610000133514404,165.72500610351562,310.81201171875)"><path fill="rgb(99,41,0)" fill-opacity="1" d=" M-21.61400032043457,26.10300064086914 C-21.423999786376953,26.632999420166016 -20.804000854492188,26.863000869750977 -19.823999404907227,26.822999954223633 C-11.394000053405762,15.432999610900879 21.69499969482422,-11.416999816894531 21.695999145507812,-19.89699935913086 C21.695999145507812,-22.617000579833984 20.965999603271484,-24.207000732421875 18.086000442504883,-26.82699966430664 C19.125999450683594,-25.37700080871582 19.70599937438965,-24.047000885009766 19.695999145507812,-22.89699935913086 C19.59600067138672,-12.987000465393066 -23.833999633789062,20.023000717163086 -21.61400032043457,26.10300064086914z"/></g></g><g opacity="1" transform="matrix(-1,0,0,1,513.6929931640625,0)"><g opacity="1" transform="matrix(1,0,0,1,176.78399658203125,289.4490051269531)"><path fill="rgb(255,230,160)" fill-opacity="1" d=" M50.512001037597656,-1.3839999437332153 C50.512001037597656,-19.961000442504883 24.888999938964844,-24.823999404907227 -0.9700000286102295,-37.19300079345703 C-29.511999130249023,-50.845001220703125 -51.26499938964844,-66.64600372314453 -50.492000579833984,-53.19900131225586 C-50.00600051879883,-44.736000061035156 11.645999908447266,-12.942000389099121 11.515999794006348,-0.2070000022649765 C11.397000312805176,11.454000473022461 -44.104000091552734,46.768001556396484 -37.099998474121094,57.459999084472656 C-36.733001708984375,58.02000045776367 -36.14099884033203,58.35599899291992 -34.99100112915039,58.30799865722656 C-21.54599952697754,57.74599838256836 50.512001037597656,16.62299919128418 50.512001037597656,-1.3839999437332153z"/></g><g opacity="1" transform="matrix(1,0,0,1,176.79400634765625,287.05499267578125)"><path fill="rgb(151,72,0)" fill-opacity="1" d=" M49.32600021362305,-3.697000026702881 C49.32600021362305,-15.406000137329102 24.878999710083008,-27.136999130249023 -0.9800000190734863,-39.50600051879883 C-29.52199935913086,-53.15800094604492 -49.284000396728516,-59.19900131225586 -49.32600021362305,-54.334999084472656 C-49.39899826049805,-45.85900115966797 11.63599967956543,-15.255000114440918 11.505999565124512,-2.5199999809265137 C11.38700008392334,9.140999794006348 -39.722999572753906,47.98500061035156 -37.11000061035156,55.14699935913086 C-36.88100051879883,55.7760009765625 -36.1510009765625,56.042999267578125 -35.000999450683594,55.994998931884766 C-21.555999755859375,55.43299865722656 49.32600021362305,11.682999610900879 49.32600021362305,-3.697000026702881z"/></g><g opacity="1" transform="matrix(1.1610000133514404,0,0,1.1610000133514404,176.79600524902344,260.1789855957031)"><path fill="rgb(99,41,0)" fill-opacity="1" d=" M-41.749000549316406,-23.333999633789062 C-41.75899887084961,-22.423999786376953 -40.92900085449219,-21.20400047302246 -39.46900177001953,-19.743999481201172 C-34.0890007019043,-19.944000244140625 -19.659000396728516,-14.824000358581543 -0.6690000295639038,-5.734000205993652 C21.31100082397461,4.776000022888184 40.08100128173828,14.746000289916992 40.08100128173828,24.695999145507812 C40.08100128173828,24.695999145507812 40.08100128173828,24.746000289916992 40.08100128173828,24.746000289916992 C41.37099838256836,22.826000213623047 42.08100128173828,21.115999221801758 42.08100128173828,19.695999145507812 C42.08100128173828,9.746000289916992 21.31100082397461,-0.2240000069141388 -0.6690000295639038,-10.734000205993652 C-24.91900062561035,-22.333999633789062 -41.71900177001953,-27.474000930786133 -41.749000549316406,-23.333999633789062z"/></g><g opacity="1" transform="matrix(1.1610000133514404,0,0,1.1610000133514404,165.12100219726562,311.4809875488281)"><path fill="rgb(99,41,0)" fill-opacity="1" d=" M-21.010000228881836,25.43400001525879 C-20.81999969482422,25.964000701904297 -20.200000762939453,26.194000244140625 -19.219999313354492,26.15399932861328 C-10.789999961853027,14.763999938964844 22.298999786376953,-12.086000442504883 22.299999237060547,-20.56599998474121 C22.299999237060547,-23.285999298095703 21.56999969482422,-24.875999450683594 18.690000534057617,-27.496000289916992 C19.729999542236328,-26.04599952697754 20.309999465942383,-24.715999603271484 20.299999237060547,-23.56599998474121 C20.200000762939453,-13.656000137329102 -23.229999542236328,19.354000091552734 -21.010000228881836,25.43400001525879z"/></g></g></g></g></svg>