<svg xmlns="http://www.w3.org/2000/svg" xmlns:xlink="http://www.w3.org/1999/xlink" viewBox="0 0 512 512" width="512" height="512" style="width: 100%; height: 100%; transform: translate3d(0,0,0);" preserveAspectRatio="xMidYMid meet"><defs><clipPath id="__lottie_element_14246"><rect width="512" height="512" x="0" y="0"/></clipPath><clipPath id="__lottie_element_14249"><path d="M0,0 L127,0 L127,125 L0,125z"/></clipPath><clipPath id="__lottie_element_14253"><path d="M0,0 L127,0 L127,125 L0,125z"/></clipPath><linearGradient id="__lottie_element_14260" spreadMethod="pad" gradientUnits="userSpaceOnUse"><stop/><stop/><stop/></linearGradient><linearGradient id="__lottie_element_14263" spreadMethod="pad" gradientUnits="userSpaceOnUse"><stop/><stop/><stop/></linearGradient><clipPath id="__lottie_element_14265"><path d="M0,0 L127,0 L127,125 L0,125z"/></clipPath><linearGradient id="__lottie_element_14272" spreadMethod="pad" gradientUnits="userSpaceOnUse"><stop/><stop/><stop/></linearGradient><linearGradient id="__lottie_element_14275" spreadMethod="pad" gradientUnits="userSpaceOnUse"><stop/><stop/><stop/></linearGradient><clipPath id="__lottie_element_14277"><path d="M0,0 L127,0 L127,125 L0,125z"/></clipPath><linearGradient id="__lottie_element_14284" spreadMethod="pad" gradientUnits="userSpaceOnUse"><stop/><stop/><stop/></linearGradient><linearGradient id="__lottie_element_14287" spreadMethod="pad" gradientUnits="userSpaceOnUse"><stop/><stop/><stop/></linearGradient><clipPath id="__lottie_element_14289"><path d="M0,0 L127,0 L127,125 L0,125z"/></clipPath><linearGradient id="__lottie_element_14296" spreadMethod="pad" gradientUnits="userSpaceOnUse"><stop/><stop/><stop/></linearGradient><linearGradient id="__lottie_element_14299" spreadMethod="pad" gradientUnits="userSpaceOnUse"><stop/><stop/><stop/></linearGradient><clipPath id="__lottie_element_14301"><path d="M0,0 L127,0 L127,125 L0,125z"/></clipPath><clipPath id="__lottie_element_14305"><path d="M0,0 L127,0 L127,125 L0,125z"/></clipPath><linearGradient id="__lottie_element_14312" spreadMethod="pad" gradientUnits="userSpaceOnUse"><stop/><stop/><stop/></linearGradient><linearGradient id="__lottie_element_14315" spreadMethod="pad" gradientUnits="userSpaceOnUse"><stop/><stop/><stop/></linearGradient><clipPath id="__lottie_element_14317"><path d="M0,0 L127,0 L127,125 L0,125z"/></clipPath><linearGradient id="__lottie_element_14324" spreadMethod="pad" gradientUnits="userSpaceOnUse"><stop/><stop/><stop/></linearGradient><linearGradient id="__lottie_element_14327" spreadMethod="pad" gradientUnits="userSpaceOnUse"><stop/><stop/><stop/></linearGradient><clipPath id="__lottie_element_14329"><path d="M0,0 L127,0 L127,125 L0,125z"/></clipPath><linearGradient id="__lottie_element_14336" spreadMethod="pad" gradientUnits="userSpaceOnUse"><stop/><stop/><stop/></linearGradient><linearGradient id="__lottie_element_14339" spreadMethod="pad" gradientUnits="userSpaceOnUse"><stop/><stop/><stop/></linearGradient><clipPath id="__lottie_element_14341"><path d="M0,0 L127,0 L127,125 L0,125z"/></clipPath><linearGradient id="__lottie_element_14348" spreadMethod="pad" gradientUnits="userSpaceOnUse"><stop/><stop/><stop/></linearGradient><linearGradient id="__lottie_element_14351" spreadMethod="pad" gradientUnits="userSpaceOnUse"><stop/><stop/><stop/></linearGradient><clipPath id="__lottie_element_14353"><path d="M0,0 L127,0 L127,125 L0,125z"/></clipPath><clipPath id="__lottie_element_14357"><path d="M0,0 L127,0 L127,125 L0,125z"/></clipPath><linearGradient id="__lottie_element_14364" spreadMethod="pad" gradientUnits="userSpaceOnUse"><stop/><stop/><stop/></linearGradient><linearGradient id="__lottie_element_14367" spreadMethod="pad" gradientUnits="userSpaceOnUse"><stop/><stop/><stop/></linearGradient><clipPath id="__lottie_element_14369"><path d="M0,0 L127,0 L127,125 L0,125z"/></clipPath><linearGradient id="__lottie_element_14376" spreadMethod="pad" gradientUnits="userSpaceOnUse"><stop/><stop/><stop/></linearGradient><linearGradient id="__lottie_element_14379" spreadMethod="pad" gradientUnits="userSpaceOnUse"><stop/><stop/><stop/></linearGradient><clipPath id="__lottie_element_14381"><path d="M0,0 L127,0 L127,125 L0,125z"/></clipPath><linearGradient id="__lottie_element_14388" spreadMethod="pad" gradientUnits="userSpaceOnUse"><stop/><stop/><stop/></linearGradient><linearGradient id="__lottie_element_14391" spreadMethod="pad" gradientUnits="userSpaceOnUse"><stop/><stop/><stop/></linearGradient><clipPath id="__lottie_element_14393"><path d="M0,0 L127,0 L127,125 L0,125z"/></clipPath><linearGradient id="__lottie_element_14400" spreadMethod="pad" gradientUnits="userSpaceOnUse" x1="134.85299682617188" y1="120.06800079345703" x2="135.18800354003906" y2="93.53399658203125"><stop offset="0%" stop-color="rgb(255,62,46)"/><stop offset="63%" stop-color="rgb(255,152,143)"/><stop offset="100%" stop-color="rgb(255,241,240)"/></linearGradient><linearGradient id="__lottie_element_14403" spreadMethod="pad" gradientUnits="userSpaceOnUse"><stop/><stop/><stop/></linearGradient><clipPath id="__lottie_element_14405"><path d="M0,0 L127,0 L127,125 L0,125z"/></clipPath><clipPath id="__lottie_element_14409"><path d="M0,0 L127,0 L127,125 L0,125z"/></clipPath><linearGradient id="__lottie_element_14416" spreadMethod="pad" gradientUnits="userSpaceOnUse"><stop/><stop/><stop/></linearGradient><linearGradient id="__lottie_element_14419" spreadMethod="pad" gradientUnits="userSpaceOnUse"><stop/><stop/><stop/></linearGradient><clipPath id="__lottie_element_14421"><path d="M0,0 L127,0 L127,125 L0,125z"/></clipPath><linearGradient id="__lottie_element_14428" spreadMethod="pad" gradientUnits="userSpaceOnUse"><stop/><stop/><stop/></linearGradient><linearGradient id="__lottie_element_14431" spreadMethod="pad" gradientUnits="userSpaceOnUse"><stop/><stop/><stop/></linearGradient><clipPath id="__lottie_element_14433"><path d="M0,0 L127,0 L127,125 L0,125z"/></clipPath><linearGradient id="__lottie_element_14440" spreadMethod="pad" gradientUnits="userSpaceOnUse"><stop/><stop/><stop/></linearGradient><linearGradient id="__lottie_element_14443" spreadMethod="pad" gradientUnits="userSpaceOnUse"><stop/><stop/><stop/></linearGradient><clipPath id="__lottie_element_14445"><path d="M0,0 L127,0 L127,125 L0,125z"/></clipPath><linearGradient id="__lottie_element_14452" spreadMethod="pad" gradientUnits="userSpaceOnUse"><stop/><stop/><stop/></linearGradient><linearGradient id="__lottie_element_14455" spreadMethod="pad" gradientUnits="userSpaceOnUse"><stop/><stop/><stop/></linearGradient><clipPath id="__lottie_element_14457"><path d="M0,0 L127,0 L127,125 L0,125z"/></clipPath><clipPath id="__lottie_element_14461"><path d="M0,0 L127,0 L127,125 L0,125z"/></clipPath><linearGradient id="__lottie_element_14468" spreadMethod="pad" gradientUnits="userSpaceOnUse"><stop/><stop/><stop/></linearGradient><linearGradient id="__lottie_element_14471" spreadMethod="pad" gradientUnits="userSpaceOnUse"><stop/><stop/><stop/></linearGradient><clipPath id="__lottie_element_14473"><path d="M0,0 L127,0 L127,125 L0,125z"/></clipPath><linearGradient id="__lottie_element_14480" spreadMethod="pad" gradientUnits="userSpaceOnUse"><stop/><stop/><stop/></linearGradient><linearGradient id="__lottie_element_14483" spreadMethod="pad" gradientUnits="userSpaceOnUse"><stop/><stop/><stop/></linearGradient><clipPath id="__lottie_element_14485"><path d="M0,0 L127,0 L127,125 L0,125z"/></clipPath><linearGradient id="__lottie_element_14492" spreadMethod="pad" gradientUnits="userSpaceOnUse"><stop/><stop/><stop/></linearGradient><linearGradient id="__lottie_element_14495" spreadMethod="pad" gradientUnits="userSpaceOnUse"><stop/><stop/><stop/></linearGradient><clipPath id="__lottie_element_14497"><path d="M0,0 L127,0 L127,125 L0,125z"/></clipPath><linearGradient id="__lottie_element_14504" spreadMethod="pad" gradientUnits="userSpaceOnUse" x1="134.85299682617188" y1="120.06800079345703" x2="135.18800354003906" y2="93.53399658203125"><stop offset="0%" stop-color="rgb(255,62,46)"/><stop offset="63%" stop-color="rgb(255,152,143)"/><stop offset="100%" stop-color="rgb(255,241,240)"/></linearGradient><linearGradient id="__lottie_element_14507" spreadMethod="pad" gradientUnits="userSpaceOnUse"><stop/><stop/><stop/></linearGradient><clipPath id="__lottie_element_14509"><path d="M0,0 L127,0 L127,125 L0,125z"/></clipPath><clipPath id="__lottie_element_14513"><path d="M0,0 L127,0 L127,125 L0,125z"/></clipPath><linearGradient id="__lottie_element_14520" spreadMethod="pad" gradientUnits="userSpaceOnUse"><stop/><stop/><stop/></linearGradient><linearGradient id="__lottie_element_14523" spreadMethod="pad" gradientUnits="userSpaceOnUse"><stop/><stop/><stop/></linearGradient><clipPath id="__lottie_element_14525"><path d="M0,0 L127,0 L127,125 L0,125z"/></clipPath><linearGradient id="__lottie_element_14532" spreadMethod="pad" gradientUnits="userSpaceOnUse"><stop/><stop/><stop/></linearGradient><linearGradient id="__lottie_element_14535" spreadMethod="pad" gradientUnits="userSpaceOnUse"><stop/><stop/><stop/></linearGradient><clipPath id="__lottie_element_14537"><path d="M0,0 L127,0 L127,125 L0,125z"/></clipPath><linearGradient id="__lottie_element_14544" spreadMethod="pad" gradientUnits="userSpaceOnUse"><stop/><stop/><stop/></linearGradient><linearGradient id="__lottie_element_14547" spreadMethod="pad" gradientUnits="userSpaceOnUse"><stop/><stop/><stop/></linearGradient><clipPath id="__lottie_element_14549"><path d="M0,0 L127,0 L127,125 L0,125z"/></clipPath><linearGradient id="__lottie_element_14556" spreadMethod="pad" gradientUnits="userSpaceOnUse"><stop/><stop/><stop/></linearGradient><linearGradient id="__lottie_element_14559" spreadMethod="pad" gradientUnits="userSpaceOnUse"><stop/><stop/><stop/></linearGradient><clipPath id="__lottie_element_14561"><path d="M0,0 L127,0 L127,125 L0,125z"/></clipPath><clipPath id="__lottie_element_14565"><path d="M0,0 L127,0 L127,125 L0,125z"/></clipPath><linearGradient id="__lottie_element_14572" spreadMethod="pad" gradientUnits="userSpaceOnUse"><stop/><stop/><stop/></linearGradient><linearGradient id="__lottie_element_14575" spreadMethod="pad" gradientUnits="userSpaceOnUse"><stop/><stop/><stop/></linearGradient><clipPath id="__lottie_element_14577"><path d="M0,0 L127,0 L127,125 L0,125z"/></clipPath><linearGradient id="__lottie_element_14584" spreadMethod="pad" gradientUnits="userSpaceOnUse"><stop/><stop/><stop/></linearGradient><linearGradient id="__lottie_element_14587" spreadMethod="pad" gradientUnits="userSpaceOnUse"><stop/><stop/><stop/></linearGradient><clipPath id="__lottie_element_14589"><path d="M0,0 L127,0 L127,125 L0,125z"/></clipPath><linearGradient id="__lottie_element_14596" spreadMethod="pad" gradientUnits="userSpaceOnUse"><stop/><stop/><stop/></linearGradient><linearGradient id="__lottie_element_14599" spreadMethod="pad" gradientUnits="userSpaceOnUse"><stop/><stop/><stop/></linearGradient><clipPath id="__lottie_element_14601"><path d="M0,0 L127,0 L127,125 L0,125z"/></clipPath><linearGradient id="__lottie_element_14608" spreadMethod="pad" gradientUnits="userSpaceOnUse" x1="134.85299682617188" y1="120.06800079345703" x2="135.18800354003906" y2="93.53399658203125"><stop offset="0%" stop-color="rgb(255,62,46)"/><stop offset="63%" stop-color="rgb(255,152,143)"/><stop offset="100%" stop-color="rgb(255,241,240)"/></linearGradient><linearGradient id="__lottie_element_14611" spreadMethod="pad" gradientUnits="userSpaceOnUse"><stop/><stop/><stop/></linearGradient><linearGradient id="__lottie_element_14641" spreadMethod="pad" gradientUnits="userSpaceOnUse" x1="-1.0399999618530273" y1="-177.5" x2="0.9599999785423279" y2="189.51400756835938"><stop offset="0%" stop-color="rgb(253,207,24)"/><stop offset="47%" stop-color="rgb(245,171,12)"/><stop offset="93%" stop-color="rgb(237,135,0)"/></linearGradient><radialGradient id="__lottie_element_14642" spreadMethod="pad" gradientUnits="userSpaceOnUse" cx="-6.039999961853027" cy="-160.1230010986328" r="342.6724710471032" fx="-6.039999961853027" fy="-160.1230010986328"><stop offset="7%" stop-color="rgb(254,254,226)"/><stop offset="28%" stop-color="rgb(253,238,140)"/><stop offset="49%" stop-color="rgb(252,222,54)"/><stop offset="82%" stop-color="rgb(245,184,32)"/><stop offset="100%" stop-color="rgb(238,145,10)"/></radialGradient><radialGradient id="__lottie_element_14661" spreadMethod="pad" gradientUnits="userSpaceOnUse" cx="130.32200622558594" cy="29.527000427246094" r="66.8699951171875" fx="130.32200622558594" fy="29.527000427246094"><stop offset="0%" stop-color="rgb(241,12,28)" stop-opacity="1"/><stop offset="59%" stop-color="rgb(224,29,33)" stop-opacity="0.5"/><stop offset="100%" stop-color="rgb(207,45,38)" stop-opacity="0"/></radialGradient><radialGradient id="__lottie_element_14662" spreadMethod="pad" gradientUnits="userSpaceOnUse" cx="-130.67799377441406" cy="29.527000427246094" r="66.8699951171875" fx="-130.67799377441406" fy="29.527000427246094"><stop offset="0%" stop-color="rgb(241,12,28)" stop-opacity="1"/><stop offset="59%" stop-color="rgb(224,29,33)" stop-opacity="0.5"/><stop offset="100%" stop-color="rgb(207,45,38)" stop-opacity="0"/></radialGradient></defs><g clip-path="url(#__lottie_element_14246)"><g style="display: block;" transform="matrix(1.034999966621399,0,0,1.034999966621399,256,265)" opacity="1"><g opacity="1" transform="matrix(0.9700000286102295,0,0,0.9700000286102295,-208.98867797851562,-217.20169067382812)"><g opacity="1" transform="matrix(1,0,0,1,215.6439971923828,215.64500427246094)"><path fill="url(#__lottie_element_14641)" fill-opacity="1" d=" M194.9969940185547,0 C194.9969940185547,107.69400024414062 107.69300079345703,194.9969940185547 0,194.9969940185547 C-107.69400024414062,194.9969940185547 -194.9969940185547,107.69400024414062 -194.9969940185547,0 C-194.9969940185547,-107.69400024414062 -107.69400024414062,-194.9969940185547 0,-194.9969940185547 C107.69300079345703,-194.9969940185547 194.9969940185547,-107.69400024414062 194.9969940185547,0z"/></g><g opacity="1" transform="matrix(1,0,0,1,215.70199584960938,213.7169952392578)"><path fill="url(#__lottie_element_14642)" fill-opacity="1" d=" M173.80799865722656,2.6630001068115234 C172.3040008544922,100.77200317382812 93.26899719238281,179.11199951171875 -2.7230000495910645,177.63999938964844 C-98.71399688720703,176.16799926757812 -175.31199645996094,95.44499969482422 -173.80799865722656,-2.6640000343322754 C-172.3040008544922,-100.77300262451172 -93.26899719238281,-179.11199951171875 2.7230000495910645,-177.64100646972656 C98.71399688720703,-176.16900634765625 175.31199645996094,-95.44499969482422 173.80799865722656,2.6630001068115234z"/></g><g opacity="1" transform="matrix(1,0,0,1,215.6439971923828,215.64500427246094)"><path stroke-linecap="butt" stroke-linejoin="miter" fill-opacity="0" stroke-miterlimit="10" stroke="rgb(231,105,0)" stroke-opacity="1" stroke-width="8.259" d=" M194.9969940185547,0 C194.9969940185547,107.69400024414062 107.69300079345703,194.9969940185547 0,194.9969940185547 C-107.69400024414062,194.9969940185547 -194.9969940185547,107.69400024414062 -194.9969940185547,0 C-194.9969940185547,-107.69400024414062 -107.69400024414062,-194.9969940185547 0,-194.9969940185547 C107.69300079345703,-194.9969940185547 194.9969940185547,-107.69400024414062 194.9969940185547,0z"/></g></g></g><g style="display: block;" transform="matrix(1.034999966621399,0,0,1.034999966621399,256,265)" opacity="1"><g opacity="1" transform="matrix(1,0,0,1,0,0)"><g opacity="1" transform="matrix(1,0,0,1,0,0)"><path fill="rgb(255,226,166)" fill-opacity="1" d=" M43.4379997253418,-85.33200073242188 C44.36800003051758,-86.8949966430664 47.840999603271484,-89.19300079345703 50.696998596191406,-90.59300231933594 C63.07400131225586,-96.65899658203125 90.06800079345703,-95.77300262451172 111.0770034790039,-84.2969970703125 C140.9949951171875,-67.9540023803711 135.38699340820312,-54.141998291015625 128.89199829101562,-57.334999084472656 C122.39700317382812,-60.52799987792969 99.48600006103516,-75.4800033569336 68.0260009765625,-74.56500244140625 C59.59600067138672,-74.31999969482422 53.6619987487793,-73.21700286865234 48.983001708984375,-73.49299621582031 C42.801998138427734,-73.85700225830078 40.88600158691406,-81.04399871826172 43.4379997253418,-85.33200073242188z"/></g></g></g><g style="display: block;" transform="matrix(1.034999966621399,0,0,1.034999966621399,256,265)" opacity="0.6"><g opacity="1" transform="matrix(1,0,0,1,0,0)"><path fill="rgb(238,137,1)" fill-opacity="1" d=" M130.8300018310547,128.2169952392578 C115.80999755859375,142.4969940185547 93.52100372314453,156.5279998779297 74.44100189208984,165.28799438476562 C69.9280014038086,146.36500549316406 71.96399688720703,121.6510009765625 74.44100189208984,110.73400115966797 C80.8270034790039,82.58899688720703 112.41999816894531,108.87699890136719 130.8300018310547,128.2169952392578z"/></g></g><g style="display: block;" transform="matrix(1.034999966621399,0,0,1.034999966621399,256,265)" opacity="0.6"><g opacity="1" transform="matrix(1,0,0,1,0,0)"><path fill="rgb(238,137,1)" fill-opacity="1" d=" M173.1529998779297,-85.5979995727539 C173.1529998779297,-85.5979995727539 173.1529998779297,-85.5979995727539 173.1529998779297,-85.5979995727539 C167.02999877929688,-78.89199829101562 152.5070037841797,-66.33499908447266 148.08399963378906,-67.80000305175781 C137.22300720214844,-71.39600372314453 103.31700134277344,-109.23600006103516 94.38600158691406,-144.16900634765625 C91.99700164794922,-153.51400756835938 108.54100036621094,-154.34300231933594 114.4209976196289,-159.3730010986328 C138.64100646972656,-141.06300354003906 160.0330047607422,-113.31800079345703 173.1529998779297,-85.5979995727539z"/></g></g><g style="display: block;" transform="matrix(1.034999966621399,0,0,1.034999966621399,256,265)" opacity="0.6"><g opacity="1" transform="matrix(1,0,0,1,0,0)"><path fill="rgb(238,137,1)" fill-opacity="1" d=" M-108.48999786376953,145.5030059814453 C-122.73999786376953,135.38299560546875 -135.67999267578125,123.28700256347656 -146.61000061035156,109.68699645996094 C-125.02999877929688,74.56700134277344 -97,39.547000885009766 -91.55000305175781,83.50700378417969 C-90.58000183105469,91.34700012207031 -94.06700134277344,121.9729995727539 -108.48999786376953,145.5030059814453z"/></g></g><g style="display: block;" transform="matrix(0.9730035066604614,0,0,0.9730035066604614,255.99807739257812,260.99981689453125)" opacity="1"><g opacity="0.5" transform="matrix(1,0,0,1,0,0)"><path fill="url(#__lottie_element_14661)" fill-opacity="1" d=" M197.7310028076172,29.985000610351562 C197.7310028076172,50.90299987792969 188.12600708007812,69.5780029296875 173.08599853515625,81.83999633789062 C161.572998046875,91.22699737548828 146.87399291992188,96.8550033569336 130.86099243164062,96.8550033569336 C93.93000030517578,96.8550033569336 63.99100112915039,66.91600036621094 63.99100112915039,29.985000610351562 C63.99100112915039,-6.946000099182129 93.93000030517578,-36.8849983215332 130.86099243164062,-36.8849983215332 C146.08799743652344,-36.8849983215332 160.12600708007812,-31.79599952697754 171.36700439453125,-23.22599983215332 C187.38999938964844,-11.010000228881836 197.7310028076172,8.279999732971191 197.7310028076172,29.985000610351562z"/></g><g opacity="0.5" transform="matrix(1,0,0,1,0,0)"><path fill="url(#__lottie_element_14662)" fill-opacity="1" d=" M-62.95100021362305,29.985000610351562 C-62.95100021362305,53.6150016784668 -75.20700073242188,74.38200378417969 -93.70999908447266,86.2760009765625 C-104.125,92.97100067138672 -116.5199966430664,96.8550033569336 -129.8209991455078,96.8550033569336 C-166.7519989013672,96.8550033569336 -196.6909942626953,66.91600036621094 -196.6909942626953,29.985000610351562 C-196.6909942626953,-1.9119999408721924 -174.35899353027344,-28.5939998626709 -144.4759979248047,-35.275001525878906 C-139.75999450683594,-36.32899856567383 -134.85499572753906,-36.8849983215332 -129.8209991455078,-36.8849983215332 C-92.88999938964844,-36.8849983215332 -62.95100021362305,-6.946000099182129 -62.95100021362305,29.985000610351562z"/></g></g><g style="display: block;" transform="matrix(1.034999966621399,0,0,1.034999966621399,256,265)" opacity="1"><g opacity="1" transform="matrix(1,0,0,1,0,0)"><path fill="rgb(234,172,31)" fill-opacity="1" d=" M45.35200119018555,93.58300018310547 C34.027000427246094,105.75700378417969 15.331000328063965,115.46800231933594 0.6209999918937683,115.46800231933594 C-14.112000465393066,115.46800231933594 -32.74399948120117,105.75700378417969 -44.069000244140625,93.58300018310547 C-54.35499954223633,82.5260009765625 -55.1510009765625,72.2969970703125 -51.80799865722656,71.01100158691406 C-47.61000061035156,69.39600372314453 -29.277000427246094,87.14600372314453 0.6209999918937683,87.46800231933594 C30.518999099731445,87.14600372314453 48.85200119018555,69.39600372314453 53.04999923706055,71.01100158691406 C56.393001556396484,72.2969970703125 55.63800048828125,82.5260009765625 45.35200119018555,93.58300018310547z"/></g><g opacity="1" transform="matrix(1,0,0,1,0,0)"><path fill="rgb(254,221,120)" fill-opacity="1" d=" M42.27799987792969,103.66799926757812 C30.952999114990234,115.84200286865234 15.331000328063965,125.55400085449219 0.6209999918937683,125.55400085449219 C-14.112000465393066,125.55400085449219 -29.711000442504883,115.84200286865234 -41.0359992980957,103.66799926757812 C-51.321998596191406,92.61100006103516 -55.1510009765625,76.28399658203125 -51.80799865722656,74.99800109863281 C-47.61000061035156,73.38300323486328 -29.277000427246094,97.23200225830078 0.6209999918937683,97.55400085449219 C30.518999099731445,97.23200225830078 48.85200119018555,73.38300323486328 53.04999923706055,74.99800109863281 C56.393001556396484,76.28399658203125 52.56399917602539,92.61100006103516 42.27799987792969,103.66799926757812z"/></g><g opacity="1" transform="matrix(1,0,0,1,0,0)"><path fill="rgb(151,72,0)" fill-opacity="1" d=" M42.27799987792969,97.66799926757812 C30.952999114990234,109.84200286865234 15.331000328063965,119.55400085449219 0.6209999918937683,119.55400085449219 C-14.112000465393066,119.55400085449219 -29.711000442504883,109.84200286865234 -41.0359992980957,97.66799926757812 C-51.321998596191406,86.61100006103516 -55.1510009765625,76.38300323486328 -51.80799865722656,75.09700012207031 C-47.61000061035156,73.48200225830078 -29.277000427246094,92.23200225830078 0.6209999918937683,92.55400085449219 C30.518999099731445,92.23200225830078 48.85200119018555,73.48200225830078 53.04999923706055,75.09700012207031 C56.393001556396484,76.38300323486328 52.56399917602539,86.61100006103516 42.27799987792969,97.66799926757812z"/></g><g opacity="1" transform="matrix(1,0,0,1,0,0)"><path fill="rgb(99,41,0)" fill-opacity="1" d=" M53.369998931884766,81.26699829101562 C53.27000045776367,81.1969985961914 53.17100143432617,81.13700103759766 53.05099868774414,81.09700012207031 C48.85100173950195,79.48699951171875 30.520000457763672,98.23699951171875 0.6200000047683716,98.55699920654297 C-29.280000686645508,98.23699951171875 -47.60900115966797,79.48699951171875 -51.808998107910156,81.09700012207031 C-51.92900085449219,81.13700103759766 -52.029998779296875,81.1969985961914 -52.130001068115234,81.26699829101562 C-53.36000061035156,77.9469985961914 -53.27899932861328,75.66699981689453 -51.808998107910156,75.09700012207031 C-47.60900115966797,73.48699951171875 -29.280000686645508,92.23699951171875 0.6200000047683716,92.55699920654297 C30.520000457763672,92.23699951171875 48.85100173950195,73.48699951171875 53.05099868774414,75.09700012207031 C54.520999908447266,75.66699981689453 54.599998474121094,77.9469985961914 53.369998931884766,81.26699829101562z"/></g></g><g style="display: block;" transform="matrix(1.034999966621399,0,0,1.034999966621399,254.96499633789062,256.2025146484375)" opacity="1"><g opacity="1" transform="matrix(1,0,0,1,0,0)"><path fill="rgb(255,226,166)" fill-opacity="1" d=" M96.96900177001953,-4.703000068664551 C86.84200286865234,-13.979000091552734 66.43499755859375,-21.829999923706055 45.71200180053711,-17.95599937438965 C20.195999145507812,-13.185999870300293 22.996999740600586,8.456000328063965 33.92100143432617,11.699999809265137 C46.04100036621094,15.298999786376953 56.95399856567383,3.4800000190734863 83.01699829101562,13.395000457763672 C102.48600006103516,20.802000045776367 107.39399719238281,4.8460001945495605 96.96900177001953,-4.703000068664551z"/></g><g opacity="1" transform="matrix(1,0,0,1,0,0)"><path fill="rgb(151,72,0)" fill-opacity="1" d=" M95.71700286865234,-6.943999767303467 C85.5510025024414,-15.657999992370605 67.43199920654297,-22.00200080871582 46.733001708984375,-18.476999282836914 C21.24799919128418,-14.13700008392334 24.714000701904297,3.6570000648498535 33.95199966430664,6.260000228881836 C46.084999084472656,9.678000450134277 56.939998626708984,-1.315999984741211 83.04000091552734,8.069999694824219 C102.53700256347656,15.081000328063965 106.18299865722656,2.0269999504089355 95.71700286865234,-6.943999767303467z"/></g><g opacity="1" transform="matrix(1,0,0,1,0,0)"><path fill="rgb(99,41,0)" fill-opacity="1" d=" M100.8219985961914,6.159999847412109 C99.97200012207031,3.8399999141693115 98.26200103759766,1.409999966621399 95.72200012207031,-0.7699999809265137 C85.552001953125,-9.489999771118164 67.43199920654297,-15.829999923706055 46.731998443603516,-12.3100004196167 C34.69200134277344,-10.260000228881836 29.11199951171875,-5.199999809265137 27.562000274658203,-0.1599999964237213 C25.54199981689453,-6.53000020980835 29.57200050354004,-15.5600004196167 46.731998443603516,-18.479999542236328 C67.43199920654297,-22 85.552001953125,-15.65999984741211 95.72200012207031,-6.940000057220459 C100.76200103759766,-2.619999885559082 102.53199768066406,2.6500000953674316 100.8219985961914,6.159999847412109z"/></g></g><g style="display: block;" transform="matrix(-1.034999966621399,0,0,1.034999966621399,258.2707824707031,256.2025146484375)" opacity="1"><g opacity="1" transform="matrix(1,0,0,1,0,0)"><path fill="rgb(255,226,166)" fill-opacity="1" d=" M96.96900177001953,-4.703000068664551 C86.84200286865234,-13.979000091552734 66.43499755859375,-21.829999923706055 45.71200180053711,-17.95599937438965 C20.195999145507812,-13.185999870300293 22.996999740600586,8.456000328063965 33.92100143432617,11.699999809265137 C46.04100036621094,15.298999786376953 56.95399856567383,3.4800000190734863 83.01699829101562,13.395000457763672 C102.48600006103516,20.802000045776367 107.39399719238281,4.8460001945495605 96.96900177001953,-4.703000068664551z"/></g><g opacity="1" transform="matrix(1,0,0,1,0,0)"><path fill="rgb(151,72,0)" fill-opacity="1" d=" M95.71700286865234,-6.943999767303467 C85.5510025024414,-15.657999992370605 67.43199920654297,-22.00200080871582 46.733001708984375,-18.476999282836914 C21.24799919128418,-14.13700008392334 24.714000701904297,3.6570000648498535 33.95199966430664,6.260000228881836 C46.084999084472656,9.678000450134277 56.939998626708984,-1.315999984741211 83.04000091552734,8.069999694824219 C102.53700256347656,15.081000328063965 106.18299865722656,2.0269999504089355 95.71700286865234,-6.943999767303467z"/></g><g opacity="1" transform="matrix(1,0,0,1,0,0)"><path fill="rgb(99,41,0)" fill-opacity="1" d=" M100.8219985961914,6.159999847412109 C99.97200012207031,3.8399999141693115 98.26200103759766,1.409999966621399 95.72200012207031,-0.7699999809265137 C85.552001953125,-9.489999771118164 67.43199920654297,-15.829999923706055 46.731998443603516,-12.3100004196167 C34.69200134277344,-10.260000228881836 29.11199951171875,-5.199999809265137 27.562000274658203,-0.1599999964237213 C25.54199981689453,-6.53000020980835 29.57200050354004,-15.5600004196167 46.731998443603516,-18.479999542236328 C67.43199920654297,-22 85.552001953125,-15.65999984741211 95.72200012207031,-6.940000057220459 C100.76200103759766,-2.619999885559082 102.53199768066406,2.6500000953674316 100.8219985961914,6.159999847412109z"/></g></g><g style="display: block;" transform="matrix(1.034999966621399,0,0,1.034999966621399,256,265)" opacity="1"><g opacity="1" transform="matrix(1,0,0,1,0,0)"><g opacity="1" transform="matrix(1,0,0,1,0,0)"><path fill="rgb(255,226,166)" fill-opacity="1" d=" M-42.18600082397461,-85.33200073242188 C-43.11600112915039,-86.8949966430664 -46.5890007019043,-89.19300079345703 -49.44499969482422,-90.59300231933594 C-61.821998596191406,-96.65899658203125 -88.81600189208984,-95.77300262451172 -109.82499694824219,-84.2969970703125 C-139.7429962158203,-67.9540023803711 -134.13400268554688,-54.141998291015625 -127.63899993896484,-57.334999084472656 C-121.14399719238281,-60.52799987792969 -98.23300170898438,-75.4800033569336 -66.77300262451172,-74.56500244140625 C-58.34299850463867,-74.31999969482422 -52.40999984741211,-73.21700286865234 -47.73099899291992,-73.49299621582031 C-41.54999923706055,-73.85700225830078 -39.63399887084961,-81.04399871826172 -42.18600082397461,-85.33200073242188z"/></g><g opacity="1" transform="matrix(1,0,0,1,0,0)"><path fill="rgb(151,72,0)" fill-opacity="1" d=" M-42.604000091552734,-86.1050033569336 C-43.534000396728516,-87.66699981689453 -46.5890007019043,-90.19300079345703 -49.44499969482422,-91.59300231933594 C-61.821998596191406,-97.65899658203125 -85.4729995727539,-100.51000213623047 -106.48200225830078,-89.03399658203125 C-136.39999389648438,-72.69100189208984 -134.02999877929688,-58.887001037597656 -127.53500366210938,-62.08000183105469 C-121.04000091552734,-65.27300262451172 -98.12899780273438,-80.2249984741211 -66.66899871826172,-79.30999755859375 C-58.23899841308594,-79.06500244140625 -52.30500030517578,-77.96299743652344 -47.625999450683594,-78.23899841308594 C-41.44499969482422,-78.60299682617188 -40.051998138427734,-81.81700134277344 -42.604000091552734,-86.1050033569336z"/></g></g><g opacity="1" transform="matrix(1,0,0,1,0,0)"><path fill="rgb(99,41,0)" fill-opacity="1" d=" M-42.55799865722656,-79.83599853515625 C-42.56800079345703,-79.86599731445312 -42.5880012512207,-79.90599822998047 -42.608001708984375,-79.93599700927734 C-43.53799819946289,-81.49600219726562 -46.5880012512207,-84.0260009765625 -49.448001861572266,-85.41600036621094 C-61.81800079345703,-91.48600006103516 -85.47799682617188,-94.33599853515625 -106.47799682617188,-82.86599731445312 C-121.447998046875,-74.68599700927734 -128.3280029296875,-67.13600158691406 -130.6580047607422,-62.04600143432617 C-133.71800231933594,-64.3759994506836 -130.54800415039062,-75.88600158691406 -106.47799682617188,-89.03600311279297 C-85.47799682617188,-100.50599670410156 -61.81800079345703,-97.65599822998047 -49.448001861572266,-91.59600067138672 C-46.5880012512207,-90.19599914550781 -43.53799819946289,-87.66600036621094 -42.608001708984375,-86.10600280761719 C-41.03799819946289,-83.47599792480469 -40.95800018310547,-81.24600219726562 -42.55799865722656,-79.83599853515625z"/></g></g><g style="display: block;" transform="matrix(1.034999966621399,0,0,1.034999966621399,256,265)" opacity="1"><g opacity="1" transform="matrix(1,0,0,1,0,0)"><g opacity="1" transform="matrix(1,0,0,1,0,0)"><path fill="rgb(151,72,0)" fill-opacity="1" d=" M43.85599899291992,-86.1050033569336 C44.7859992980957,-87.66699981689453 47.840999603271484,-90.19300079345703 50.696998596191406,-91.59300231933594 C63.07400131225586,-97.65899658203125 86.7249984741211,-100.51000213623047 107.73400115966797,-89.03399658203125 C137.65199279785156,-72.69100189208984 135.28199768066406,-58.887001037597656 128.78700256347656,-62.08000183105469 C122.29199981689453,-65.27300262451172 99.38099670410156,-80.2249984741211 67.9209976196289,-79.30999755859375 C59.49100112915039,-79.06500244140625 53.55799865722656,-77.96299743652344 48.87900161743164,-78.23899841308594 C42.698001861572266,-78.60299682617188 41.30400085449219,-81.81700134277344 43.85599899291992,-86.1050033569336z"/></g></g><g opacity="1" transform="matrix(1,0,0,1,0,0)"><path fill="rgb(99,41,0)" fill-opacity="1" d=" M43.810001373291016,-79.83599853515625 C43.81999969482422,-79.86599731445312 43.84000015258789,-79.90599822998047 43.86000061035156,-79.93599700927734 C44.790000915527344,-81.49600219726562 47.84000015258789,-84.0260009765625 50.70000076293945,-85.41600036621094 C63.06999969482422,-91.48600006103516 86.7300033569336,-94.33599853515625 107.7300033569336,-82.86599731445312 C122.69999694824219,-74.68599700927734 129.5800018310547,-67.13600158691406 131.91000366210938,-62.04600143432617 C134.97000122070312,-64.3759994506836 131.8000030517578,-75.88600158691406 107.7300033569336,-89.03600311279297 C86.7300033569336,-100.50599670410156 63.06999969482422,-97.65599822998047 50.70000076293945,-91.59600067138672 C47.84000015258789,-90.19599914550781 44.790000915527344,-87.66600036621094 43.86000061035156,-86.10600280761719 C42.290000915527344,-83.47599792480469 42.209999084472656,-81.24600219726562 43.810001373291016,-79.83599853515625z"/></g></g><g clip-path="url(#__lottie_element_14561)" style="display: block;" transform="matrix(1.0309057235717773,0.09196960926055908,-0.09196960926055908,1.0309057235717773,333.9405822753906,332.3833312988281)" opacity="1"><g clip-path="url(#__lottie_element_14601)" style="display: block;" transform="matrix(1,0,0,1,0,0)" opacity="1"><g style="display: block;" transform="matrix(0.9979559779167175,-0.06390528380870819,0.06390528380870819,0.9979559779167175,-78.7198486328125,-68.14627075195312)" opacity="1"><g opacity="1" transform="matrix(1,0,0,1,0,0)"><path fill="rgb(232,5,5)" fill-opacity="1" d=" M136.70199584960938,104.90399932861328 C136.26300048828125,105.66500091552734 135.2790069580078,105.69100189208984 134.843994140625,104.94300079345703 C131.468994140625,99.13700103759766 119.02899932861328,80.73200225830078 99.59700012207031,86.14399719238281 C76.00800323486328,92.71399688720703 72.30799865722656,122.35399627685547 82.35600280761719,142.53199768066406 C92.76699829101562,163.43899536132812 107.57099914550781,180.0260009765625 127.13500213623047,195.54800415039062 C128.28900146484375,196.46299743652344 129.82200622558594,196.57000732421875 131.09500122070312,195.8260040283203 C139.0279998779297,191.19200134277344 167.70899963378906,170.73399353027344 181.25999450683594,151.13699340820312 C197.0970001220703,128.23399353027344 191.97500610351562,100.81400299072266 177.28900146484375,93.08399963378906 C163.91600036621094,86.04499816894531 145.21200561523438,90.13099670410156 136.70199584960938,104.90399932861328z"/></g><g opacity="1" transform="matrix(1,0,0,1,0,0)"><path fill="url(#__lottie_element_14608)" fill-opacity="1" d=" M188.44400024414062,106.6780014038086 C190.1959991455078,117.302001953125 187.8679962158203,130.28700256347656 179.75799560546875,142.00900268554688 C177.1529998779297,145.77699279785156 173.58099365234375,149.69000244140625 169.54100036621094,153.53599548339844 C147.10299682617188,174.89300537109375 113.49800109863281,172.08200073242188 94.65699768066406,147.48800659179688 C91.27899932861328,143.07899475097656 88.19000244140625,138.4770050048828 85.68900299072266,133.81900024414062 C79.94499969482422,123.11900329589844 79.04900360107422,109.0999984741211 83.13300323486328,98.05599975585938 C83.14199829101562,98.05400085449219 83.13999938964844,98.04499816894531 83.13800048828125,98.03500366210938 C86.81500244140625,92.48100280761719 92.23899841308594,88.18800354003906 99.5999984741211,86.13899993896484 C119.02799987792969,80.73600006103516 131.4720001220703,99.13800048828125 134.84300231933594,104.94499969482422 C135.27699279785156,105.68800354003906 136.26400756835938,105.66100311279297 136.70199584960938,104.90699768066406 C145.21400451660156,90.12899780273438 163.91799926757812,86.04499816894531 177.29299926757812,93.08300018310547 C182.24200439453125,95.68099975585938 186.10699462890625,100.5270004272461 188.44400024414062,106.6780014038086z"/></g><g opacity="1" transform="matrix(1,0,0,1,0,0)"><path stroke-linecap="butt" stroke-linejoin="miter" fill-opacity="0" stroke-miterlimit="10" stroke="rgb(191,11,37)" stroke-opacity="1" stroke-width="8" d=" M136.70199584960938,104.90399932861328 C136.26300048828125,105.66500091552734 135.2790069580078,105.69100189208984 134.843994140625,104.94300079345703 C131.468994140625,99.13700103759766 119.02899932861328,80.73200225830078 99.59700012207031,86.14399719238281 C76.00800323486328,92.71399688720703 72.30799865722656,122.35399627685547 82.35600280761719,142.53199768066406 C92.76699829101562,163.43899536132812 107.57099914550781,180.0260009765625 127.13500213623047,195.54800415039062 C128.28900146484375,196.46299743652344 129.82200622558594,196.57000732421875 131.09500122070312,195.8260040283203 C139.0279998779297,191.19200134277344 167.70899963378906,170.73399353027344 181.25999450683594,151.13699340820312 C197.0970001220703,128.23399353027344 191.97500610351562,100.81400299072266 177.28900146484375,93.08399963378906 C163.91600036621094,86.04499816894531 145.21200561523438,90.13099670410156 136.70199584960938,104.90399932861328z"/></g></g></g></g><g clip-path="url(#__lottie_element_14457)" style="display: block;" transform="matrix(1.033399224281311,0.05754078924655914,-0.05754078924655914,1.033399224281311,351.2954406738281,50.823707580566406)" opacity="1"><g clip-path="url(#__lottie_element_14497)" style="display: block;" transform="matrix(-1,0,0,1,127,0)" opacity="1"><g style="display: block;" transform="matrix(0.9979559779167175,-0.06390528380870819,0.06390528380870819,0.9979559779167175,-78.7198486328125,-68.14627075195312)" opacity="1"><g opacity="1" transform="matrix(1,0,0,1,0,0)"><path fill="rgb(232,5,5)" fill-opacity="1" d=" M136.70199584960938,104.90399932861328 C136.26300048828125,105.66500091552734 135.2790069580078,105.69100189208984 134.843994140625,104.94300079345703 C131.468994140625,99.13700103759766 119.02899932861328,80.73200225830078 99.59700012207031,86.14399719238281 C76.00800323486328,92.71399688720703 72.30799865722656,122.35399627685547 82.35600280761719,142.53199768066406 C92.76699829101562,163.43899536132812 107.57099914550781,180.0260009765625 127.13500213623047,195.54800415039062 C128.28900146484375,196.46299743652344 129.82200622558594,196.57000732421875 131.09500122070312,195.8260040283203 C139.0279998779297,191.19200134277344 167.70899963378906,170.73399353027344 181.25999450683594,151.13699340820312 C197.0970001220703,128.23399353027344 191.97500610351562,100.81400299072266 177.28900146484375,93.08399963378906 C163.91600036621094,86.04499816894531 145.21200561523438,90.13099670410156 136.70199584960938,104.90399932861328z"/></g><g opacity="1" transform="matrix(1,0,0,1,0,0)"><path fill="url(#__lottie_element_14504)" fill-opacity="1" d=" M188.44400024414062,106.6780014038086 C190.1959991455078,117.302001953125 187.8679962158203,130.28700256347656 179.75799560546875,142.00900268554688 C177.1529998779297,145.77699279785156 173.58099365234375,149.69000244140625 169.54100036621094,153.53599548339844 C147.10299682617188,174.89300537109375 113.49800109863281,172.08200073242188 94.65699768066406,147.48800659179688 C91.27899932861328,143.07899475097656 88.19000244140625,138.4770050048828 85.68900299072266,133.81900024414062 C79.94499969482422,123.11900329589844 79.04900360107422,109.0999984741211 83.13300323486328,98.05599975585938 C83.14199829101562,98.05400085449219 83.13999938964844,98.04499816894531 83.13800048828125,98.03500366210938 C86.81500244140625,92.48100280761719 92.23899841308594,88.18800354003906 99.5999984741211,86.13899993896484 C119.02799987792969,80.73600006103516 131.4720001220703,99.13800048828125 134.84300231933594,104.94499969482422 C135.27699279785156,105.68800354003906 136.26400756835938,105.66100311279297 136.70199584960938,104.90699768066406 C145.21400451660156,90.12899780273438 163.91799926757812,86.04499816894531 177.29299926757812,93.08300018310547 C182.24200439453125,95.68099975585938 186.10699462890625,100.5270004272461 188.44400024414062,106.6780014038086z"/></g><g opacity="1" transform="matrix(1,0,0,1,0,0)"><path stroke-linecap="butt" stroke-linejoin="miter" fill-opacity="0" stroke-miterlimit="10" stroke="rgb(191,11,37)" stroke-opacity="1" stroke-width="8" d=" M136.70199584960938,104.90399932861328 C136.26300048828125,105.66500091552734 135.2790069580078,105.69100189208984 134.843994140625,104.94300079345703 C131.468994140625,99.13700103759766 119.02899932861328,80.73200225830078 99.59700012207031,86.14399719238281 C76.00800323486328,92.71399688720703 72.30799865722656,122.35399627685547 82.35600280761719,142.53199768066406 C92.76699829101562,163.43899536132812 107.57099914550781,180.0260009765625 127.13500213623047,195.54800415039062 C128.28900146484375,196.46299743652344 129.82200622558594,196.57000732421875 131.09500122070312,195.8260040283203 C139.0279998779297,191.19200134277344 167.70899963378906,170.73399353027344 181.25999450683594,151.13699340820312 C197.0970001220703,128.23399353027344 191.97500610351562,100.81400299072266 177.28900146484375,93.08399963378906 C163.91600036621094,86.04499816894531 145.21200561523438,90.13099670410156 136.70199584960938,104.90399932861328z"/></g></g></g></g><g clip-path="url(#__lottie_element_14353)" style="display: block;" transform="matrix(1.0282894372940063,-0.11766785383224487,0.11766785383224487,1.0282894372940063,29.651874542236328,309.1163024902344)" opacity="1"><g clip-path="url(#__lottie_element_14393)" style="display: block;" transform="matrix(-1,0,0,1,127,0)" opacity="1"><g style="display: block;" transform="matrix(0.9979559779167175,-0.06390528380870819,0.06390528380870819,0.9979559779167175,-78.7198486328125,-68.14627075195312)" opacity="1"><g opacity="1" transform="matrix(1,0,0,1,0,0)"><path fill="rgb(232,5,5)" fill-opacity="1" d=" M136.70199584960938,104.90399932861328 C136.26300048828125,105.66500091552734 135.2790069580078,105.69100189208984 134.843994140625,104.94300079345703 C131.468994140625,99.13700103759766 119.02899932861328,80.73200225830078 99.59700012207031,86.14399719238281 C76.00800323486328,92.71399688720703 72.30799865722656,122.35399627685547 82.35600280761719,142.53199768066406 C92.76699829101562,163.43899536132812 107.57099914550781,180.0260009765625 127.13500213623047,195.54800415039062 C128.28900146484375,196.46299743652344 129.82200622558594,196.57000732421875 131.09500122070312,195.8260040283203 C139.0279998779297,191.19200134277344 167.70899963378906,170.73399353027344 181.25999450683594,151.13699340820312 C197.0970001220703,128.23399353027344 191.97500610351562,100.81400299072266 177.28900146484375,93.08399963378906 C163.91600036621094,86.04499816894531 145.21200561523438,90.13099670410156 136.70199584960938,104.90399932861328z"/></g><g opacity="1" transform="matrix(1,0,0,1,0,0)"><path fill="url(#__lottie_element_14400)" fill-opacity="1" d=" M188.44400024414062,106.6780014038086 C190.1959991455078,117.302001953125 187.8679962158203,130.28700256347656 179.75799560546875,142.00900268554688 C177.1529998779297,145.77699279785156 173.58099365234375,149.69000244140625 169.54100036621094,153.53599548339844 C147.10299682617188,174.89300537109375 113.49800109863281,172.08200073242188 94.65699768066406,147.48800659179688 C91.27899932861328,143.07899475097656 88.19000244140625,138.4770050048828 85.68900299072266,133.81900024414062 C79.94499969482422,123.11900329589844 79.04900360107422,109.0999984741211 83.13300323486328,98.05599975585938 C83.14199829101562,98.05400085449219 83.13999938964844,98.04499816894531 83.13800048828125,98.03500366210938 C86.81500244140625,92.48100280761719 92.23899841308594,88.18800354003906 99.5999984741211,86.13899993896484 C119.02799987792969,80.73600006103516 131.4720001220703,99.13800048828125 134.84300231933594,104.94499969482422 C135.27699279785156,105.68800354003906 136.26400756835938,105.66100311279297 136.70199584960938,104.90699768066406 C145.21400451660156,90.12899780273438 163.91799926757812,86.04499816894531 177.29299926757812,93.08300018310547 C182.24200439453125,95.68099975585938 186.10699462890625,100.5270004272461 188.44400024414062,106.6780014038086z"/></g><g opacity="1" transform="matrix(1,0,0,1,0,0)"><path stroke-linecap="butt" stroke-linejoin="miter" fill-opacity="0" stroke-miterlimit="10" stroke="rgb(191,11,37)" stroke-opacity="1" stroke-width="8" d=" M136.70199584960938,104.90399932861328 C136.26300048828125,105.66500091552734 135.2790069580078,105.69100189208984 134.843994140625,104.94300079345703 C131.468994140625,99.13700103759766 119.02899932861328,80.73200225830078 99.59700012207031,86.14399719238281 C76.00800323486328,92.71399688720703 72.30799865722656,122.35399627685547 82.35600280761719,142.53199768066406 C92.76699829101562,163.43899536132812 107.57099914550781,180.0260009765625 127.13500213623047,195.54800415039062 C128.28900146484375,196.46299743652344 129.82200622558594,196.57000732421875 131.09500122070312,195.8260040283203 C139.0279998779297,191.19200134277344 167.70899963378906,170.73399353027344 181.25999450683594,151.13699340820312 C197.0970001220703,128.23399353027344 191.97500610351562,100.81400299072266 177.28900146484375,93.08399963378906 C163.91600036621094,86.04499816894531 145.21200561523438,90.13099670410156 136.70199584960938,104.90399932861328z"/></g></g></g></g></g></svg>