<svg xmlns="http://www.w3.org/2000/svg" xmlns:xlink="http://www.w3.org/1999/xlink" viewBox="0 0 512 512" width="512" height="512" style="width: 100%; height: 100%; transform: translate3d(0,0,0);" preserveAspectRatio="xMidYMid meet"><defs><clipPath id="__lottie_element_29"><rect width="512" height="512" x="0" y="0"/></clipPath><clipPath id="__lottie_element_33"><path d="M0,0 L512,0 L512,512 L0,512z"/></clipPath><clipPath id="__lottie_element_82"><path d="M0,0 L512,0 L512,512 L0,512z"/></clipPath><linearGradient id="__lottie_element_133" spreadMethod="pad" gradientUnits="userSpaceOnUse"><stop/><stop/><stop/><stop/><stop/></linearGradient><linearGradient id="__lottie_element_134" spreadMethod="pad" gradientUnits="userSpaceOnUse"><stop/><stop/><stop/><stop/><stop/></linearGradient><linearGradient id="__lottie_element_135" spreadMethod="pad" gradientUnits="userSpaceOnUse"><stop/><stop/><stop/></linearGradient><radialGradient id="__lottie_element_140" spreadMethod="pad" gradientUnits="userSpaceOnUse"><stop/><stop/><stop/></radialGradient><radialGradient id="__lottie_element_141" spreadMethod="pad" gradientUnits="userSpaceOnUse"><stop/><stop/><stop/></radialGradient><radialGradient id="__lottie_element_142" spreadMethod="pad" gradientUnits="userSpaceOnUse"><stop/><stop/><stop/></radialGradient><mask id="__lottie_element_144"><path fill="url(#__lottie_element_143)"/></mask><radialGradient id="__lottie_element_143" spreadMethod="pad" gradientUnits="userSpaceOnUse"><stop stop-color="rgb(255,255,255)"/><stop stop-color="rgb(255,255,255)"/><stop stop-color="rgb(255,255,255)"/></radialGradient><radialGradient id="__lottie_element_145" spreadMethod="pad" gradientUnits="userSpaceOnUse"><stop/><stop/><stop/><stop/><stop/></radialGradient><mask id="__lottie_element_147"><path fill="url(#__lottie_element_146)"/></mask><radialGradient id="__lottie_element_146" spreadMethod="pad" gradientUnits="userSpaceOnUse"><stop stop-color="rgb(255,255,255)"/><stop stop-color="rgb(255,255,255)"/><stop stop-color="rgb(255,255,255)"/><stop stop-color="rgb(255,255,255)"/><stop stop-color="rgb(255,255,255)"/></radialGradient><linearGradient id="__lottie_element_148" spreadMethod="pad" gradientUnits="userSpaceOnUse"><stop/><stop/><stop/><stop/><stop/></linearGradient><radialGradient id="__lottie_element_149" spreadMethod="pad" gradientUnits="userSpaceOnUse"><stop/><stop/><stop/></radialGradient><radialGradient id="__lottie_element_150" spreadMethod="pad" gradientUnits="userSpaceOnUse"><stop/><stop/><stop/></radialGradient><mask id="__lottie_element_152"><path fill="url(#__lottie_element_151)"/></mask><radialGradient id="__lottie_element_151" spreadMethod="pad" gradientUnits="userSpaceOnUse"><stop stop-color="rgb(255,255,255)"/><stop stop-color="rgb(255,255,255)"/><stop stop-color="rgb(255,255,255)"/></radialGradient><radialGradient id="__lottie_element_153" spreadMethod="pad" gradientUnits="userSpaceOnUse"><stop/><stop/><stop/></radialGradient><mask id="__lottie_element_155"><path fill="url(#__lottie_element_154)"/></mask><radialGradient id="__lottie_element_154" spreadMethod="pad" gradientUnits="userSpaceOnUse"><stop stop-color="rgb(255,255,255)"/><stop stop-color="rgb(255,255,255)"/><stop stop-color="rgb(255,255,255)"/></radialGradient><linearGradient id="__lottie_element_156" spreadMethod="pad" gradientUnits="userSpaceOnUse"><stop/><stop/><stop/><stop/><stop/></linearGradient><mask id="__lottie_element_158"><path fill="url(#__lottie_element_157)"/></mask><linearGradient id="__lottie_element_157" spreadMethod="pad" gradientUnits="userSpaceOnUse"><stop stop-color="rgb(255,255,255)"/><stop stop-color="rgb(255,255,255)"/><stop stop-color="rgb(255,255,255)"/><stop stop-color="rgb(255,255,255)"/><stop stop-color="rgb(255,255,255)"/><stop stop-color="rgb(255,255,255)"/><stop stop-color="rgb(255,255,255)"/></linearGradient><linearGradient id="__lottie_element_159" spreadMethod="pad" gradientUnits="userSpaceOnUse"><stop/><stop/><stop/></linearGradient><g id="__lottie_element_162"/><clipPath id="__lottie_element_163"><path d="M0,0 L512,0 L512,512 L0,512z"/></clipPath><clipPath id="__lottie_element_173"><path d="M0,0 L512,0 L512,512 L0,512z"/></clipPath><g id="__lottie_element_179"/><clipPath id="__lottie_element_180"><path d="M0,0 L512,0 L512,512 L0,512z"/></clipPath><mask id="__lottie_element_179_1" mask-type="alpha"><g id="__lottie_element_179"/></mask><g id="__lottie_element_202"/><clipPath id="__lottie_element_203"><path d="M0,0 L512,0 L512,512 L0,512z"/></clipPath><mask id="__lottie_element_202_1" mask-type="alpha"><g id="__lottie_element_202"/></mask><g id="__lottie_element_222"/><clipPath id="__lottie_element_223"><path d="M0,0 L512,0 L512,512 L0,512z"/></clipPath><clipPath id="__lottie_element_240"><path d="M0,0 L512,0 L512,512 L0,512z"/></clipPath><mask id="__lottie_element_222_1" mask-type="alpha"><g id="__lottie_element_222"/></mask><mask id="__lottie_element_162_1" mask-type="alpha"><g id="__lottie_element_162"/></mask><linearGradient id="__lottie_element_267" spreadMethod="pad" gradientUnits="userSpaceOnUse"><stop/><stop/><stop/><stop/><stop/></linearGradient><linearGradient id="__lottie_element_268" spreadMethod="pad" gradientUnits="userSpaceOnUse"><stop/><stop/><stop/><stop/><stop/></linearGradient><linearGradient id="__lottie_element_272" spreadMethod="pad" gradientUnits="userSpaceOnUse"><stop/><stop/><stop/><stop/><stop/></linearGradient><linearGradient id="__lottie_element_273" spreadMethod="pad" gradientUnits="userSpaceOnUse"><stop/><stop/><stop/><stop/><stop/></linearGradient><linearGradient id="__lottie_element_274" spreadMethod="pad" gradientUnits="userSpaceOnUse"><stop/><stop/><stop/></linearGradient><linearGradient id="__lottie_element_275" spreadMethod="pad" gradientUnits="userSpaceOnUse"><stop/><stop/><stop/></linearGradient><linearGradient id="__lottie_element_279" spreadMethod="pad" gradientUnits="userSpaceOnUse"><stop/><stop/><stop/><stop/><stop/></linearGradient><linearGradient id="__lottie_element_280" spreadMethod="pad" gradientUnits="userSpaceOnUse"><stop/><stop/><stop/><stop/><stop/></linearGradient><linearGradient id="__lottie_element_281" spreadMethod="pad" gradientUnits="userSpaceOnUse"><stop/><stop/><stop/></linearGradient><clipPath id="__lottie_element_286"><path d="M0,0 L512,0 L512,512 L0,512z"/></clipPath><clipPath id="__lottie_element_335"><path d="M0,0 L512,0 L512,512 L0,512z"/></clipPath><linearGradient id="__lottie_element_386" spreadMethod="pad" gradientUnits="userSpaceOnUse"><stop/><stop/><stop/><stop/><stop/></linearGradient><linearGradient id="__lottie_element_387" spreadMethod="pad" gradientUnits="userSpaceOnUse"><stop/><stop/><stop/><stop/><stop/></linearGradient><linearGradient id="__lottie_element_388" spreadMethod="pad" gradientUnits="userSpaceOnUse"><stop/><stop/><stop/></linearGradient><radialGradient id="__lottie_element_393" spreadMethod="pad" gradientUnits="userSpaceOnUse" cx="0" cy="-97.02899932861328" r="152.33900451660156" fx="0" fy="-97.02899932861328"><stop offset="0%" stop-color="rgb(255,255,255)" stop-opacity="0.20000000298023224"/><stop offset="72%" stop-color="rgb(233,236,248)" stop-opacity="0.4000000059604645"/><stop offset="100%" stop-color="rgb(210,218,241)" stop-opacity="0.6000000238418579"/></radialGradient><radialGradient id="__lottie_element_394" spreadMethod="pad" gradientUnits="userSpaceOnUse" cx="-1" cy="142.24200439453125" r="212.59981872357176" fx="-1" fy="142.24200439453125"><stop offset="0%" stop-color="rgb(255,255,255)" stop-opacity="0.20000000298023224"/><stop offset="72%" stop-color="rgb(233,236,248)" stop-opacity="0.4000000059604645"/><stop offset="100%" stop-color="rgb(210,218,241)" stop-opacity="0.6000000238418579"/></radialGradient><radialGradient id="__lottie_element_395" spreadMethod="pad" gradientUnits="userSpaceOnUse" cx="-2" cy="84.16699981689453" r="458.84213232588667" fx="-2" fy="84.16699981689453"><stop offset="0%" stop-color="rgb(154,87,45)"/><stop offset="50%" stop-color="rgb(141,76,40)"/><stop offset="100%" stop-color="rgb(127,65,34)"/></radialGradient><mask id="__lottie_element_397"><path fill="url(#__lottie_element_396)" d=" M122.22000122070312,218.41799926757812 C109.75,227.61099243164062 83,233 5.920000076293945,238.56700134277344 C-42.624000549316406,242.072998046875 -97,238.11099243164062 -120.87999725341797,217.16799926757812 C-122.03800201416016,216.1529998779297 -129.5679931640625,151.6479949951172 -128.39999389648438,125.97599792480469 C-125.5,62.22200012207031 -113.91500091552734,44.30799865722656 -101.31999969482422,7.923999786376953 C-90.5,-23.33300018310547 -63.93000030517578,-50.19300079345703 -61.52000045776367,-51.553001403808594 C-94.5,-26 -125.5,104.44499969482422 -85.59600067138672,156.1490020751953 C-14.454000473022461,248.3280029296875 91.25599670410156,191.39300537109375 102.02999877929688,96.0199966430664 C112.5,3.3329999446868896 68.7300033569336,-51.08100128173828 66.12000274658203,-52.611000061035156 C72.47000122070312,-49.4010009765625 86.90299987792969,-25.040000915527344 91.16000366210938,-18.131999969482422 C117.5,24.611000061035156 125.0479965209961,80.53500366210938 127.7300033569336,112.33699798583984 C130,139.25 124.27899932861328,216.89999389648438 122.22000122070312,218.41799926757812z"/></mask><radialGradient id="__lottie_element_396" spreadMethod="pad" gradientUnits="userSpaceOnUse" cx="-2" cy="84.16699981689453" r="458.84213232588667" fx="-2" fy="84.16699981689453"><stop stop-color="rgb(255,255,255)" offset="0%" stop-opacity="0"/><stop stop-color="rgb(255,255,255)" offset="66%" stop-opacity="0.5"/><stop stop-color="rgb(255,255,255)" offset="100%" stop-opacity="1"/></radialGradient><radialGradient id="__lottie_element_398" spreadMethod="pad" gradientUnits="userSpaceOnUse" cx="4.793000221252441" cy="-145.9759979248047" r="122.96065964773331" fx="4.793000221252441" fy="-145.9759979248047"><stop offset="0%" stop-color="rgb(217,181,150)"/><stop offset="44%" stop-color="rgb(155,123,94)"/><stop offset="88%" stop-color="rgb(93,66,38)"/><stop offset="94%" stop-color="rgb(93,66,38)"/><stop offset="100%" stop-color="rgb(93,66,38)"/></radialGradient><mask id="__lottie_element_400"><path fill="url(#__lottie_element_399)" d=" M56.750999450683594,-150.197998046875 C56.750999450683594,-150.197998046875 54.94900131225586,-160.4340057373047 3.7769999504089355,-158.16900634765625 C-23.701000213623047,-156.9530029296875 -36.722999572753906,-155.8979949951172 -48.02299880981445,-149.70799255371094 C-50.54499816894531,-135.10499572753906 -56.6870002746582,-96.98600006103516 -40.888999938964844,-58.81999969482422 C-33.46900177001953,-40.89400100708008 -29.540000915527344,-37.39099884033203 -22.459999084472656,-29.070999145507812 C-9.369999885559082,-13.687999725341797 -5.767000198364258,-5.539000034332275 -6.267000198364258,0.9610000252723694 C-6.267000198364258,9.961000442504883 15.552000045776367,9.461000442504883 15.552000045776367,0.460999995470047 C15.302000045776367,-8.333000183105469 25.611000061035156,-21.261999130249023 32.042999267578125,-28.054000854492188 C39.18600082397461,-35.59700012207031 46.77399826049805,-49.8849983215332 51.196998596191406,-60.37699890136719 C67.0469970703125,-97.9749984741211 56.750999450683594,-150.197998046875 56.750999450683594,-150.197998046875z"/></mask><radialGradient id="__lottie_element_399" spreadMethod="pad" gradientUnits="userSpaceOnUse" cx="4.793000221252441" cy="-145.9759979248047" r="122.96065964773331" fx="4.793000221252441" fy="-145.9759979248047"><stop stop-color="rgb(255,255,255)" offset="28%" stop-opacity="0.009999999776482582"/><stop stop-color="rgb(255,255,255)" offset="58%" stop-opacity="0.48500001430511475"/><stop stop-color="rgb(255,255,255)" offset="88%" stop-opacity="0.9599999785423279"/><stop stop-color="rgb(255,255,255)" offset="95%" stop-opacity="0.47999998927116394"/><stop stop-color="rgb(255,255,255)" offset="100%" stop-opacity="0"/></radialGradient><linearGradient id="__lottie_element_401" spreadMethod="pad" gradientUnits="userSpaceOnUse" x1="1" y1="67.5" x2="1" y2="-69.5"><stop offset="0%" stop-color="rgb(255,255,255)" stop-opacity="0"/><stop offset="25%" stop-color="rgb(255,255,255)" stop-opacity="0.5"/><stop offset="50%" stop-color="rgb(255,255,255)" stop-opacity="1"/><stop offset="75%" stop-color="rgb(255,255,255)" stop-opacity="0.5"/><stop offset="100%" stop-color="rgb(255,255,255)" stop-opacity="0"/></linearGradient><radialGradient id="__lottie_element_402" spreadMethod="pad" gradientUnits="userSpaceOnUse" cx="0.04500000178813934" cy="3.8519999980926514" r="67.40259095310958" fx="0.04500000178813934" fy="3.8519999980926514"><stop offset="0%" stop-color="rgb(255,255,255)" stop-opacity="1"/><stop offset="50%" stop-color="rgb(255,255,255)" stop-opacity="0.5"/><stop offset="100%" stop-color="rgb(255,255,255)" stop-opacity="0"/></radialGradient><radialGradient id="__lottie_element_403" spreadMethod="pad" gradientUnits="userSpaceOnUse" cx="0" cy="-156.5" r="126.00099205958658" fx="-0.8954296704009482" fy="-129.90492032700428"><stop offset="0%" stop-color="rgb(255,255,255)"/><stop offset="65%" stop-color="rgb(255,255,255)"/><stop offset="100%" stop-color="rgb(255,255,255)"/></radialGradient><mask id="__lottie_element_405"><path fill="url(#__lottie_element_404)" d=" M107.5,-153.5 C101.5,-155.5 42.94900131225586,-158.08299255371094 -1.9290000200271606,-159.83299255371094 C-43.43600082397461,-161.4510040283203 -104,-156 -111.5,-153.5 C-121.5,-101.5 -88.5,-21.04599952697754 -0.5,-21.5 C96.5,-22 122,-103 107.5,-153.5z"/></mask><radialGradient id="__lottie_element_404" spreadMethod="pad" gradientUnits="userSpaceOnUse" cx="0" cy="-156.5" r="126.00099205958658" fx="-0.8954296704009482" fy="-129.90492032700428"><stop stop-color="rgb(255,255,255)" offset="32%" stop-opacity="0.8299999833106995"/><stop stop-color="rgb(255,255,255)" offset="63%" stop-opacity="0.41499999165534973"/><stop stop-color="rgb(255,255,255)" offset="100%" stop-opacity="0"/></radialGradient><radialGradient id="__lottie_element_406" spreadMethod="pad" gradientUnits="userSpaceOnUse" cx="1.5" cy="-139.91299438476562" r="345.61970235617326" fx="2.4997974151942843" fy="-70.34693243042747"><stop offset="0%" stop-color="rgb(240,250,255)"/><stop offset="12%" stop-color="rgb(222,243,255)"/><stop offset="100%" stop-color="rgb(203,236,255)"/></radialGradient><mask id="__lottie_element_408"><path fill="url(#__lottie_element_407)" d=" M101.75,-151.73899841308594 C87,-176.08700561523438 -72.75,-166.75 -120.75,-151.25 C-126.25,-148.5 -132.83799743652344,-106.47200012207031 -130.25,-70.44599914550781 C-128,-39.13100051879883 -120.29399871826172,-60.36399841308594 -120,-73.12000274658203 C-118,-159.7830047607422 -109,-118.95600128173828 -109.5,-111.6520004272461 C-110,-104.3479995727539 -107,-65.72799682617188 0.5,-64.97799682617188 C101.5,-66.72799682617188 105.5,-149.48899841308594 101.75,-151.73899841308594z"/></mask><radialGradient id="__lottie_element_407" spreadMethod="pad" gradientUnits="userSpaceOnUse" cx="1.5" cy="-139.91299438476562" r="345.61970235617326" fx="2.4997974151942843" fy="-70.34693243042747"><stop stop-color="rgb(255,255,255)" offset="0%" stop-opacity="0"/><stop stop-color="rgb(255,255,255)" offset="33%" stop-opacity="0.5"/><stop stop-color="rgb(255,255,255)" offset="100%" stop-opacity="1"/></radialGradient><linearGradient id="__lottie_element_409" spreadMethod="pad" gradientUnits="userSpaceOnUse" x1="-97" y1="-135.5" x2="84.5" y2="-140"><stop offset="0%" stop-color="rgb(45,13,1)"/><stop offset="10%" stop-color="rgb(30,12,5)"/><stop offset="51%" stop-color="rgb(14,10,9)"/><stop offset="90%" stop-color="rgb(30,12,5)"/><stop offset="100%" stop-color="rgb(45,13,1)"/></linearGradient><mask id="__lottie_element_411"><path fill="url(#__lottie_element_410)" d=" M-2.5,-160 C-91,-158.5 -121,-150.5 -121,-150.5 C-121,-150.5 -58.9900016784668,-140.5070037841797 0,-142 C79,-144 121.5,-151.5 121.5,-151.5 C121.5,-151.5 82.98899841308594,-161.44900512695312 -2.5,-160z"/></mask><linearGradient id="__lottie_element_410" spreadMethod="pad" gradientUnits="userSpaceOnUse" x1="-97" y1="-135.5" x2="84.5" y2="-140"><stop stop-color="rgb(255,255,255)" offset="0%" stop-opacity="0"/><stop stop-color="rgb(255,255,255)" offset="0%" stop-opacity="0"/><stop stop-color="rgb(255,255,255)" offset="0%" stop-opacity="0"/><stop stop-color="rgb(255,255,255)" offset="16%" stop-opacity="0.35499998927116394"/><stop stop-color="rgb(255,255,255)" offset="51%" stop-opacity="0.7099999785423279"/><stop stop-color="rgb(255,255,255)" offset="88%" stop-opacity="0.3700000047683716"/><stop stop-color="rgb(255,255,255)" offset="100%" stop-opacity="0.029999999329447746"/></linearGradient><linearGradient id="__lottie_element_412" spreadMethod="pad" gradientUnits="userSpaceOnUse" x1="-31.5" y1="76.5" x2="-119" y2="37"><stop offset="0%" stop-color="rgb(255,255,255)" stop-opacity="0"/><stop offset="50%" stop-color="rgb(178,222,255)" stop-opacity="0.35499998927116394"/><stop offset="100%" stop-color="rgb(102,188,255)" stop-opacity="0.7099999785423279"/></linearGradient><g id="__lottie_element_415"><g clip-path="url(#__lottie_element_416)" style="display: block;" transform="matrix(0.9106651544570923,0,0,0.9106651544570923,22.869722366333008,22.519258499145508)" opacity="1"><g style="display: block;" transform="matrix(-1,0,0,-1.024999976158142,256.1659851074219,258.03466796875)" opacity="1"><path fill="rgb(255,255,255)" fill-opacity="1" d=" M139.72999572753906,-118.69300079345703 C138.19000244140625,-83.9729995727539 112.4800033569336,-54.222999572753906 83.16000366210938,-36.112998962402344 C68.51000213623047,-27.05299949645996 54.36000061035156,-20.913000106811523 43.880001068115234,-15.373000144958496 C33.40999984741211,-9.833000183105469 26.59000015258789,-4.873000144958496 26.59000015258789,1.8270000219345093 C26.59000015258789,1.8270000219345093 -26.25,1.8270000219345093 -26.25,1.8270000219345093 C-26.25,-11.572999954223633 -53.5099983215332,-17.993000030517578 -82.81999969482422,-36.112998962402344 C-112.13999938964844,-54.222999572753906 -137.85000610351562,-83.9729995727539 -139.38999938964844,-118.69300079345703 C-140.94000244140625,-153.4029998779297 -137.22999572753906,-162.7030029296875 -119.87999725341797,-165.6529998779297 C-85.87000274658203,-171.4429931640625 -48.4900016784668,-171.41299438476562 0.17000000178813934,-171.41299438476562 C48.83000183105469,-171.41299438476562 88.30999755859375,-171.4429931640625 120.22000122070312,-165.6529998779297 C137.5399932861328,-162.51300048828125 141.27999877929688,-153.4029998779297 139.72999572753906,-118.69300079345703z M120.22000122070312,169.3070068359375 C86.1989974975586,175.0970001220703 48.83000183105469,175.06700134277344 0.17000000178813934,175.06700134277344 C-48.5,175.06700134277344 -87.97000122070312,175.0970001220703 -119.87999725341797,169.3070068359375 C-137.1999969482422,166.16700744628906 -140.94000244140625,157.0469970703125 -139.39999389648438,122.33699798583984 C-137.85000610351562,87.62699890136719 -112.13999938964844,57.867000579833984 -82.81999969482422,39.75699996948242 C-68.16999816894531,30.69700050354004 -54.02000045776367,24.566999435424805 -43.540000915527344,19.017000198364258 C-33.06999969482422,13.47700023651123 -26.25,8.527000427246094 -26.25,1.8270000219345093 C-26.25,1.8270000219345093 26.59000015258789,1.8270000219345093 26.59000015258789,1.8270000219345093 C26.59000015258789,15.217000007629395 53.849998474121094,21.636999130249023 83.16000366210938,39.75699996948242 C112.4800033569336,57.867000579833984 138.19000244140625,87.62699890136719 139.72999572753906,122.33699798583984 C141.27999877929688,157.0469970703125 137.57000732421875,166.3470001220703 120.22000122070312,169.3070068359375z"/><g opacity="1" transform="matrix(1,0,0,1,0,0)"/><g opacity="1" transform="matrix(1,0,0,1,0,0)"/></g></g></g><clipPath id="__lottie_element_416"><path d="M0,0 L512,0 L512,512 L0,512z"/></clipPath><clipPath id="__lottie_element_426"><path d="M0,0 L512,0 L512,512 L0,512z"/></clipPath><g id="__lottie_element_432"><g clip-path="url(#__lottie_element_433)" style="display: block;" transform="matrix(1,0,0,1.024999976158142,0,-6.399993896484375)" opacity="1"><g style="display: block;" transform="matrix(1,0,0,1.024999976158142,255.83200073242188,254.28997802734375)" opacity="1"><g opacity="1" transform="matrix(1,0,0,1,0,0)"><path fill="rgb(255,255,255)" fill-opacity="1" d=" M92.63400268554688,73.41899871826172 C109.87000274658203,80.2760009765625 129.16799926757812,82.64399719238281 139.6999969482422,118.96800231933594 C141.41400146484375,124.87799835205078 137.16799926757812,157.16799926757812 135.41799926757812,163.97900390625 C112.16799926757812,176.41799926757812 49.49700164794922,176.8979949951172 3.8580000400543213,176.8979949951172 C-47.24399948120117,176.8979949951172 -107.58200073242188,176.66900634765625 -132.40899658203125,166.7969970703125 C-139.33200073242188,156.91900634765625 -139.03399658203125,119.3759994506836 -137.2550048828125,114.53800201416016 C-129.83200073242188,94.35099792480469 -116.08200073242188,83.57099914550781 -102.125,75.08399963378906 C-99.47799682617188,73.4739990234375 -81.83200073242188,66.5469970703125 -64.27400207519531,62.99700164794922 C-57.63600158691406,61.654998779296875 -45.034000396728516,55.64899826049805 -38.49100112915039,54.04199981689453 C-27.832000732421875,51.42499923706055 -13.456999778747559,43.75 -0.20200000703334808,43.75 C14.418000221252441,43.75 25.767000198364258,51.42399978637695 37.8129997253418,55.507999420166016 C51.667999267578125,60.20500183105469 50.849998474121094,59.3129997253418 60.17599868774414,62.22200012207031 C77.16799926757812,67.52200317382812 85.16799926757812,70.4489974975586 92.63400268554688,73.41899871826172z"/></g></g><g style="display: block;" transform="matrix(1,0,0,1,255.83200073242188,254.33200073242188)" opacity="1"/></g></g><clipPath id="__lottie_element_433"><path d="M0,0 L512,0 L512,512 L0,512z"/></clipPath><mask id="__lottie_element_432_1" mask-type="alpha"><g id="__lottie_element_432"><g clip-path="url(#__lottie_element_433)" style="display: block;" transform="matrix(1,0,0,1.024999976158142,0,-6.399993896484375)" opacity="1"><g style="display: block;" transform="matrix(1,0,0,1.024999976158142,255.83200073242188,254.28997802734375)" opacity="1"><g opacity="1" transform="matrix(1,0,0,1,0,0)"><path fill="rgb(255,255,255)" fill-opacity="1" d=" M92.63400268554688,73.41899871826172 C109.87000274658203,80.2760009765625 129.16799926757812,82.64399719238281 139.6999969482422,118.96800231933594 C141.41400146484375,124.87799835205078 137.16799926757812,157.16799926757812 135.41799926757812,163.97900390625 C112.16799926757812,176.41799926757812 49.49700164794922,176.8979949951172 3.8580000400543213,176.8979949951172 C-47.24399948120117,176.8979949951172 -107.58200073242188,176.66900634765625 -132.40899658203125,166.7969970703125 C-139.33200073242188,156.91900634765625 -139.03399658203125,119.3759994506836 -137.2550048828125,114.53800201416016 C-129.83200073242188,94.35099792480469 -116.08200073242188,83.57099914550781 -102.125,75.08399963378906 C-99.47799682617188,73.4739990234375 -81.83200073242188,66.5469970703125 -64.27400207519531,62.99700164794922 C-57.63600158691406,61.654998779296875 -45.034000396728516,55.64899826049805 -38.49100112915039,54.04199981689453 C-27.832000732421875,51.42499923706055 -13.456999778747559,43.75 -0.20200000703334808,43.75 C14.418000221252441,43.75 25.767000198364258,51.42399978637695 37.8129997253418,55.507999420166016 C51.667999267578125,60.20500183105469 50.849998474121094,59.3129997253418 60.17599868774414,62.22200012207031 C77.16799926757812,67.52200317382812 85.16799926757812,70.4489974975586 92.63400268554688,73.41899871826172z"/></g></g><g style="display: block;" transform="matrix(1,0,0,1,255.83200073242188,254.33200073242188)" opacity="1"/></g></g></mask><g id="__lottie_element_455"><g clip-path="url(#__lottie_element_456)" style="display: block;" transform="matrix(1,0,0,1.024999976158142,0,-6.399993896484375)" opacity="1"><g style="display: block;" transform="matrix(1,0,0,1.024999976158142,255.83200073242188,254.28997802734375)" opacity="1"><g opacity="1" transform="matrix(1,0,0,1,0,0)"><path fill="rgb(255,255,255)" fill-opacity="1" d=" M92.63400268554688,73.41899871826172 C109.87000274658203,80.2760009765625 129.16799926757812,82.64399719238281 139.6999969482422,118.96800231933594 C141.41400146484375,124.87799835205078 137.16799926757812,157.16799926757812 135.41799926757812,163.97900390625 C112.16799926757812,176.41799926757812 49.49700164794922,176.8979949951172 3.8580000400543213,176.8979949951172 C-47.24399948120117,176.8979949951172 -107.58200073242188,176.66900634765625 -132.40899658203125,166.7969970703125 C-139.33200073242188,156.91900634765625 -139.03399658203125,119.3759994506836 -137.2550048828125,114.53800201416016 C-129.83200073242188,94.35099792480469 -116.08200073242188,83.57099914550781 -102.125,75.08399963378906 C-99.47799682617188,73.4739990234375 -81.83200073242188,66.5469970703125 -64.27400207519531,62.99700164794922 C-57.63600158691406,61.654998779296875 -45.034000396728516,55.64899826049805 -38.49100112915039,54.04199981689453 C-27.832000732421875,51.42499923706055 -13.456999778747559,43.75 -0.20200000703334808,43.75 C14.418000221252441,43.75 25.767000198364258,51.42399978637695 37.8129997253418,55.507999420166016 C51.667999267578125,60.20500183105469 50.849998474121094,59.3129997253418 60.17599868774414,62.22200012207031 C77.16799926757812,67.52200317382812 85.16799926757812,70.4489974975586 92.63400268554688,73.41899871826172z"/></g></g><g style="display: block;" transform="matrix(1,0,0,1,255.83200073242188,254.33200073242188)" opacity="1"/></g></g><clipPath id="__lottie_element_456"><path d="M0,0 L512,0 L512,512 L0,512z"/></clipPath><mask id="__lottie_element_455_1" mask-type="alpha"><g id="__lottie_element_455"><g clip-path="url(#__lottie_element_456)" style="display: block;" transform="matrix(1,0,0,1.024999976158142,0,-6.399993896484375)" opacity="1"><g style="display: block;" transform="matrix(1,0,0,1.024999976158142,255.83200073242188,254.28997802734375)" opacity="1"><g opacity="1" transform="matrix(1,0,0,1,0,0)"><path fill="rgb(255,255,255)" fill-opacity="1" d=" M92.63400268554688,73.41899871826172 C109.87000274658203,80.2760009765625 129.16799926757812,82.64399719238281 139.6999969482422,118.96800231933594 C141.41400146484375,124.87799835205078 137.16799926757812,157.16799926757812 135.41799926757812,163.97900390625 C112.16799926757812,176.41799926757812 49.49700164794922,176.8979949951172 3.8580000400543213,176.8979949951172 C-47.24399948120117,176.8979949951172 -107.58200073242188,176.66900634765625 -132.40899658203125,166.7969970703125 C-139.33200073242188,156.91900634765625 -139.03399658203125,119.3759994506836 -137.2550048828125,114.53800201416016 C-129.83200073242188,94.35099792480469 -116.08200073242188,83.57099914550781 -102.125,75.08399963378906 C-99.47799682617188,73.4739990234375 -81.83200073242188,66.5469970703125 -64.27400207519531,62.99700164794922 C-57.63600158691406,61.654998779296875 -45.034000396728516,55.64899826049805 -38.49100112915039,54.04199981689453 C-27.832000732421875,51.42499923706055 -13.456999778747559,43.75 -0.20200000703334808,43.75 C14.418000221252441,43.75 25.767000198364258,51.42399978637695 37.8129997253418,55.507999420166016 C51.667999267578125,60.20500183105469 50.849998474121094,59.3129997253418 60.17599868774414,62.22200012207031 C77.16799926757812,67.52200317382812 85.16799926757812,70.4489974975586 92.63400268554688,73.41899871826172z"/></g></g><g style="display: block;" transform="matrix(1,0,0,1,255.83200073242188,254.33200073242188)" opacity="1"/></g></g></mask><g id="__lottie_element_475"><g clip-path="url(#__lottie_element_476)" style="display: block;" transform="matrix(1,0,0,1.024999976158142,0,-8.899964332580566)" opacity="1"><g style="display: block;" transform="matrix(1,0,0,1.024999976158142,255.83200073242188,254.28997802734375)" opacity="1"><g opacity="1" transform="matrix(1,0,0,1,0,0)"><path fill="rgb(255,255,255)" fill-opacity="1" d=" M92.63400268554688,73.41899871826172 C109.87000274658203,80.2760009765625 129.16799926757812,82.64399719238281 139.6999969482422,118.96800231933594 C141.41400146484375,124.87799835205078 137.16799926757812,157.16799926757812 135.41799926757812,163.97900390625 C112.16799926757812,176.41799926757812 49.49700164794922,176.8979949951172 3.8580000400543213,176.8979949951172 C-47.24399948120117,176.8979949951172 -107.58200073242188,176.66900634765625 -132.40899658203125,166.7969970703125 C-139.33200073242188,156.91900634765625 -139.03399658203125,119.3759994506836 -137.2550048828125,114.53800201416016 C-129.83200073242188,94.35099792480469 -116.08200073242188,83.57099914550781 -102.125,75.08399963378906 C-99.47799682617188,73.4739990234375 -81.83200073242188,66.5469970703125 -64.27400207519531,62.99700164794922 C-57.63600158691406,61.654998779296875 -45.034000396728516,55.64899826049805 -38.49100112915039,54.04199981689453 C-27.832000732421875,51.42499923706055 -13.456999778747559,43.75 -0.20200000703334808,43.75 C14.418000221252441,43.75 25.767000198364258,51.42399978637695 37.8129997253418,55.507999420166016 C51.667999267578125,60.20500183105469 50.849998474121094,59.3129997253418 60.17599868774414,62.22200012207031 C77.16799926757812,67.52200317382812 85.16799926757812,70.4489974975586 92.63400268554688,73.41899871826172z"/></g></g><g style="display: block;" transform="matrix(1,0,0,1,255.83200073242188,254.33200073242188)" opacity="1"/></g></g><clipPath id="__lottie_element_476"><path d="M0,0 L512,0 L512,512 L0,512z"/></clipPath><clipPath id="__lottie_element_493"><path d="M0,0 L512,0 L512,512 L0,512z"/></clipPath><mask id="__lottie_element_475_1" mask-type="alpha"><g id="__lottie_element_475"><g clip-path="url(#__lottie_element_476)" style="display: block;" transform="matrix(1,0,0,1.024999976158142,0,-8.899964332580566)" opacity="1"><g style="display: block;" transform="matrix(1,0,0,1.024999976158142,255.83200073242188,254.28997802734375)" opacity="1"><g opacity="1" transform="matrix(1,0,0,1,0,0)"><path fill="rgb(255,255,255)" fill-opacity="1" d=" M92.63400268554688,73.41899871826172 C109.87000274658203,80.2760009765625 129.16799926757812,82.64399719238281 139.6999969482422,118.96800231933594 C141.41400146484375,124.87799835205078 137.16799926757812,157.16799926757812 135.41799926757812,163.97900390625 C112.16799926757812,176.41799926757812 49.49700164794922,176.8979949951172 3.8580000400543213,176.8979949951172 C-47.24399948120117,176.8979949951172 -107.58200073242188,176.66900634765625 -132.40899658203125,166.7969970703125 C-139.33200073242188,156.91900634765625 -139.03399658203125,119.3759994506836 -137.2550048828125,114.53800201416016 C-129.83200073242188,94.35099792480469 -116.08200073242188,83.57099914550781 -102.125,75.08399963378906 C-99.47799682617188,73.4739990234375 -81.83200073242188,66.5469970703125 -64.27400207519531,62.99700164794922 C-57.63600158691406,61.654998779296875 -45.034000396728516,55.64899826049805 -38.49100112915039,54.04199981689453 C-27.832000732421875,51.42499923706055 -13.456999778747559,43.75 -0.20200000703334808,43.75 C14.418000221252441,43.75 25.767000198364258,51.42399978637695 37.8129997253418,55.507999420166016 C51.667999267578125,60.20500183105469 50.849998474121094,59.3129997253418 60.17599868774414,62.22200012207031 C77.16799926757812,67.52200317382812 85.16799926757812,70.4489974975586 92.63400268554688,73.41899871826172z"/></g></g><g style="display: block;" transform="matrix(1,0,0,1,255.83200073242188,254.33200073242188)" opacity="1"/></g></g></mask><mask id="__lottie_element_415_1" mask-type="alpha"><g id="__lottie_element_415"><g clip-path="url(#__lottie_element_416)" style="display: block;" transform="matrix(0.9106651544570923,0,0,0.9106651544570923,22.869722366333008,22.519258499145508)" opacity="1"><g style="display: block;" transform="matrix(-1,0,0,-1.024999976158142,256.1659851074219,258.03466796875)" opacity="1"><path fill="rgb(255,255,255)" fill-opacity="1" d=" M139.72999572753906,-118.69300079345703 C138.19000244140625,-83.9729995727539 112.4800033569336,-54.222999572753906 83.16000366210938,-36.112998962402344 C68.51000213623047,-27.05299949645996 54.36000061035156,-20.913000106811523 43.880001068115234,-15.373000144958496 C33.40999984741211,-9.833000183105469 26.59000015258789,-4.873000144958496 26.59000015258789,1.8270000219345093 C26.59000015258789,1.8270000219345093 -26.25,1.8270000219345093 -26.25,1.8270000219345093 C-26.25,-11.572999954223633 -53.5099983215332,-17.993000030517578 -82.81999969482422,-36.112998962402344 C-112.13999938964844,-54.222999572753906 -137.85000610351562,-83.9729995727539 -139.38999938964844,-118.69300079345703 C-140.94000244140625,-153.4029998779297 -137.22999572753906,-162.7030029296875 -119.87999725341797,-165.6529998779297 C-85.87000274658203,-171.4429931640625 -48.4900016784668,-171.41299438476562 0.17000000178813934,-171.41299438476562 C48.83000183105469,-171.41299438476562 88.30999755859375,-171.4429931640625 120.22000122070312,-165.6529998779297 C137.5399932861328,-162.51300048828125 141.27999877929688,-153.4029998779297 139.72999572753906,-118.69300079345703z M120.22000122070312,169.3070068359375 C86.1989974975586,175.0970001220703 48.83000183105469,175.06700134277344 0.17000000178813934,175.06700134277344 C-48.5,175.06700134277344 -87.97000122070312,175.0970001220703 -119.87999725341797,169.3070068359375 C-137.1999969482422,166.16700744628906 -140.94000244140625,157.0469970703125 -139.39999389648438,122.33699798583984 C-137.85000610351562,87.62699890136719 -112.13999938964844,57.867000579833984 -82.81999969482422,39.75699996948242 C-68.16999816894531,30.69700050354004 -54.02000045776367,24.566999435424805 -43.540000915527344,19.017000198364258 C-33.06999969482422,13.47700023651123 -26.25,8.527000427246094 -26.25,1.8270000219345093 C-26.25,1.8270000219345093 26.59000015258789,1.8270000219345093 26.59000015258789,1.8270000219345093 C26.59000015258789,15.217000007629395 53.849998474121094,21.636999130249023 83.16000366210938,39.75699996948242 C112.4800033569336,57.867000579833984 138.19000244140625,87.62699890136719 139.72999572753906,122.33699798583984 C141.27999877929688,157.0469970703125 137.57000732421875,166.3470001220703 120.22000122070312,169.3070068359375z"/><g opacity="1" transform="matrix(1,0,0,1,0,0)"/><g opacity="1" transform="matrix(1,0,0,1,0,0)"/></g></g></g></mask><linearGradient id="__lottie_element_520" spreadMethod="pad" gradientUnits="userSpaceOnUse"><stop/><stop/><stop/><stop/><stop/></linearGradient><linearGradient id="__lottie_element_521" spreadMethod="pad" gradientUnits="userSpaceOnUse"><stop/><stop/><stop/><stop/><stop/></linearGradient><linearGradient id="__lottie_element_525" spreadMethod="pad" gradientUnits="userSpaceOnUse" x1="-6" y1="213" x2="104.73999786376953" y2="213"><stop offset="0%" stop-color="rgb(155,79,41)"/><stop offset="11%" stop-color="rgb(95,45,22)"/><stop offset="52%" stop-color="rgb(35,10,3)"/><stop offset="93%" stop-color="rgb(95,45,22)"/><stop offset="100%" stop-color="rgb(155,79,41)"/></linearGradient><linearGradient id="__lottie_element_526" spreadMethod="pad" gradientUnits="userSpaceOnUse" x1="-17" y1="189" x2="93.73999786376953" y2="189"><stop offset="0%" stop-color="rgb(130,62,38)"/><stop offset="11%" stop-color="rgb(83,36,20)"/><stop offset="52%" stop-color="rgb(35,10,3)"/><stop offset="93%" stop-color="rgb(83,36,20)"/><stop offset="100%" stop-color="rgb(130,62,38)"/></linearGradient><linearGradient id="__lottie_element_527" spreadMethod="pad" gradientUnits="userSpaceOnUse" x1="0" y1="0" x2="100" y2="0"><stop offset="0%" stop-color="rgb(212,175,155)" stop-opacity="0.3400000035762787"/><stop offset="50%" stop-color="rgb(106,87,77)" stop-opacity="0.17000000178813934"/><stop offset="100%" stop-color="rgb(0,0,0)" stop-opacity="0"/></linearGradient><linearGradient id="__lottie_element_528" spreadMethod="pad" gradientUnits="userSpaceOnUse" x1="0" y1="0" x2="100" y2="0"><stop offset="0%" stop-color="rgb(212,175,155)" stop-opacity="0.3400000035762787"/><stop offset="50%" stop-color="rgb(106,87,77)" stop-opacity="0.17000000178813934"/><stop offset="100%" stop-color="rgb(0,0,0)" stop-opacity="0"/></linearGradient><linearGradient id="__lottie_element_532" spreadMethod="pad" gradientUnits="userSpaceOnUse" x1="-6" y1="-210" x2="104.73999786376953" y2="-210"><stop offset="0%" stop-color="rgb(155,79,41)"/><stop offset="11%" stop-color="rgb(95,45,22)"/><stop offset="52%" stop-color="rgb(35,10,3)"/><stop offset="93%" stop-color="rgb(95,45,22)"/><stop offset="100%" stop-color="rgb(155,79,41)"/></linearGradient><linearGradient id="__lottie_element_533" spreadMethod="pad" gradientUnits="userSpaceOnUse" x1="-17" y1="-186" x2="93.73999786376953" y2="-186"><stop offset="0%" stop-color="rgb(130,62,38)"/><stop offset="11%" stop-color="rgb(83,36,20)"/><stop offset="52%" stop-color="rgb(35,10,3)"/><stop offset="93%" stop-color="rgb(83,36,20)"/><stop offset="100%" stop-color="rgb(130,62,38)"/></linearGradient><linearGradient id="__lottie_element_534" spreadMethod="pad" gradientUnits="userSpaceOnUse" x1="0" y1="0" x2="100" y2="0"><stop offset="0%" stop-color="rgb(255,225,205)" stop-opacity="1"/><stop offset="50%" stop-color="rgb(212,160,129)" stop-opacity="0.5049999952316284"/><stop offset="100%" stop-color="rgb(169,96,53)" stop-opacity="0.009999999776482582"/></linearGradient></defs><g clip-path="url(#__lottie_element_29)"><g style="display: block;" transform="matrix(0.9106651544570923,0,0,0.9106651544570923,255.84701538085938,254.1305389404297)" opacity="1"><g opacity="1" transform="matrix(1,0,0,1,0,0)"><g opacity="1" transform="matrix(1,0,0,1,0,0)"><g opacity="1" transform="matrix(1,0,0,1,0,0)"><g opacity="1" transform="matrix(1,0,0,1,0,0)"><path fill="rgb(155,79,41)" fill-opacity="1" d=" M-155.0290069580078,-189.04600524902344 C-155.0290069580078,-189.04600524902344 -155.0290069580078,-216.5659942626953 -155.0290069580078,-216.5659942626953 C-155.0290069580078,-223.93600463867188 -85.54399871826172,-230.91000366210938 0.16899999976158142,-230.91000366210938 C85.88200378417969,-230.91000366210938 155.36599731445312,-223.93600463867188 155.36599731445312,-216.5659942626953 C155.36599731445312,-216.5659942626953 155.36599731445312,-189.04600524902344 155.36599731445312,-189.04600524902344 C155.36599731445312,-189.04600524902344 -155.0290069580078,-189.04600524902344 -155.0290069580078,-189.04600524902344z"/></g></g><g opacity="0.6" transform="matrix(1,0,0,1,0,0)"><path fill="rgb(178,108,61)" fill-opacity="1" d=" M155.3699951171875,-216.56300354003906 C155.3699951171875,-216.56300354003906 155.3699951171875,-189.04299926757812 155.3699951171875,-189.04299926757812 C155.3699951171875,-189.04299926757812 144.3300018310547,-189.04299926757812 144.3300018310547,-189.04299926757812 C143.72999572753906,-189.38299560546875 142.97000122070312,-189.72300720214844 142.0500030517578,-190.06300354003906 C142.0500030517578,-190.06300354003906 142.0500030517578,-206.29299926757812 142.0500030517578,-206.29299926757812 C142.0500030517578,-213.66299438476562 78.52999877929688,-220.63299560546875 0.17000000178813934,-220.63299560546875 C-78.19000244140625,-220.63299560546875 -141.7100067138672,-213.66299438476562 -141.7100067138672,-206.29299926757812 C-141.7100067138672,-206.29299926757812 -141.7100067138672,-190.06300354003906 -141.7100067138672,-190.06300354003906 C-142.6300048828125,-189.72300720214844 -143.39999389648438,-189.38299560546875 -144,-189.04299926757812 C-144,-189.04299926757812 -155.02999877929688,-189.04299926757812 -155.02999877929688,-189.04299926757812 C-155.02999877929688,-189.04299926757812 -155.02999877929688,-216.56300354003906 -155.02999877929688,-216.56300354003906 C-155.02999877929688,-223.93299865722656 -85.54000091552734,-230.91299438476562 0.17000000178813934,-230.91299438476562 C85.87999725341797,-230.91299438476562 155.3699951171875,-223.93299865722656 155.3699951171875,-216.56300354003906z"/></g><g opacity="0.5" transform="matrix(1,0,0,1,0,0)"><path fill="url(#__lottie_element_532)" fill-opacity="1" d=" M104.80000305175781,-226.97300720214844 C104.80000305175781,-226.97300720214844 104.80000305175781,-189.04299926757812 104.80000305175781,-189.04299926757812 C104.80000305175781,-189.04299926757812 -5.940000057220459,-189.04299926757812 -5.940000057220459,-189.04299926757812 C-5.940000057220459,-189.04299926757812 -5.940000057220459,-230.89300537109375 -5.940000057220459,-230.89300537109375 C-3.9100000858306885,-230.91299438476562 -1.8799999952316284,-230.91299438476562 0.17000000178813934,-230.91299438476562 C40.4900016784668,-230.91299438476562 77.20999908447266,-229.3730010986328 104.80000305175781,-226.97300720214844z"/></g><g opacity="1" transform="matrix(1,0,0,1,0,0)"><g opacity="1" transform="matrix(1,0,0,1,0,0)"><path fill="rgb(130,62,38)" fill-opacity="1" d=" M-145.60499572753906,-171.72999572753906 C-145.60499572753906,-171.72999572753906 -145.60499572753906,-187.17100524902344 -145.60499572753906,-187.17100524902344 C-145.60499572753906,-194.09300231933594 -80.33999633789062,-199.7050018310547 0.16899999976158142,-199.7050018310547 C80.6780014038086,-199.7050018310547 145.9429931640625,-194.09300231933594 145.9429931640625,-187.17100524902344 C145.9429931640625,-187.17100524902344 145.9429931640625,-171.72999572753906 145.9429931640625,-171.72999572753906 C145.9429931640625,-171.72999572753906 -145.60499572753906,-171.72999572753906 -145.60499572753906,-171.72999572753906z"/></g></g><g opacity="0.5" transform="matrix(1,0,0,1,0,0)"><path fill="url(#__lottie_element_533)" fill-opacity="1" d=" M93.80000305175781,-196.7830047607422 C93.80000305175781,-196.7830047607422 93.80000305175781,-171.73300170898438 93.80000305175781,-171.73300170898438 C93.80000305175781,-171.73300170898438 -16.940000534057617,-171.73300170898438 -16.940000534057617,-171.73300170898438 C-16.940000534057617,-171.73300170898438 -16.940000534057617,-199.6230010986328 -16.940000534057617,-199.6230010986328 C-11.329999923706055,-199.67300415039062 -5.619999885559082,-199.7030029296875 0.17000000178813934,-199.7030029296875 C35.81999969482422,-199.7030029296875 68.47000122070312,-198.60299682617188 93.80000305175781,-196.7830047607422z"/></g><g opacity="1" transform="matrix(1,0,0,1,0,0)"><g opacity="1" transform="matrix(1,0,0,1,0,0)"><path stroke-linecap="round" stroke-linejoin="round" fill-opacity="0" stroke="rgb(58,25,12)" stroke-opacity="1" stroke-width="8" d=" M-145.60499572753906,-171.72999572753906 C-145.60499572753906,-171.72999572753906 -145.60499572753906,-187.17100524902344 -145.60499572753906,-187.17100524902344 C-145.60499572753906,-194.09300231933594 -80.33999633789062,-199.7050018310547 0.16899999976158142,-199.7050018310547 C80.6780014038086,-199.7050018310547 145.9429931640625,-194.09300231933594 145.9429931640625,-187.17100524902344 C145.9429931640625,-187.17100524902344 145.9429931640625,-171.72999572753906 145.9429931640625,-171.72999572753906 C145.9429931640625,-171.72999572753906 -145.60499572753906,-171.72999572753906 -145.60499572753906,-171.72999572753906z"/></g></g><g opacity="1" transform="matrix(1,0,0,1,0,0)"><path fill="rgb(84,40,16)" fill-opacity="1" d=" M145.9429931640625,-171.72999572753906 C145.9429931640625,-178.65199279785156 80.6780014038086,-184.26400756835938 0.16899999976158142,-184.26400756835938 C-80.33999633789062,-184.26400756835938 -145.60499572753906,-178.65199279785156 -145.60499572753906,-171.72999572753906 C-145.60499572753906,-164.80799865722656 -80.33999633789062,-159.19700622558594 0.16899999976158142,-159.19700622558594 C80.6780014038086,-159.19700622558594 145.9429931640625,-164.80799865722656 145.9429931640625,-171.72999572753906z"/></g></g><g opacity="1" transform="matrix(1,0,0,1,0,0)"><path stroke-linecap="round" stroke-linejoin="round" fill-opacity="0" stroke="rgb(84,40,20)" stroke-opacity="1" stroke-width="8" d=" M155.36599731445312,-189.04600524902344 C155.36599731445312,-187.4340057373047 152.03900146484375,-185.88800048828125 145.9429931640625,-184.45700073242188 C145.9429931640625,-184.45700073242188 145.9429931640625,-171.72999572753906 145.9429931640625,-171.72999572753906 C145.9429931640625,-171.72999572753906 145.9429931640625,-171.72999572753906 145.9429931640625,-171.72999572753906 C145.94200134277344,-164.80799865722656 80.677001953125,-159.19700622558594 0.16899999976158142,-159.19700622558594 C-80.33899688720703,-159.19700622558594 -145.60400390625,-164.80799865722656 -145.60499572753906,-171.72999572753906 C-145.60499572753906,-171.72999572753906 -145.60499572753906,-171.72999572753906 -145.60499572753906,-171.72999572753906 C-145.60499572753906,-171.72999572753906 -145.60499572753906,-184.45700073242188 -145.60499572753906,-184.45700073242188 C-151.7010040283203,-185.88800048828125 -155.0290069580078,-187.4340057373047 -155.0290069580078,-189.04600524902344 C-155.0290069580078,-189.04600524902344 -155.0290069580078,-189.04600524902344 -155.0290069580078,-189.04600524902344 C-155.0290069580078,-189.04600524902344 -155.0290069580078,-216.5659942626953 -155.0290069580078,-216.5659942626953 C-155.0290069580078,-223.93600463867188 -85.54399871826172,-230.91000366210938 0.16899999976158142,-230.91000366210938 C85.88200378417969,-230.91000366210938 155.36599731445312,-223.93600463867188 155.36599731445312,-216.5659942626953 C155.36599731445312,-216.5659942626953 155.36599731445312,-189.04600524902344 155.36599731445312,-189.04600524902344 C155.36599731445312,-189.04600524902344 155.36599731445312,-189.04600524902344 155.36599731445312,-189.04600524902344z"/></g><g opacity="0.5" transform="matrix(1,0,0,1,0,0)"><path stroke-linecap="round" stroke-linejoin="round" fill-opacity="0" stroke="rgb(183,131,104)" stroke-opacity="1" stroke-width="6" d="M0 0"/></g><g opacity="0.5" transform="matrix(1,0,0,1,0,0)"><path stroke-linecap="round" stroke-linejoin="round" fill-opacity="0" stroke="rgb(183,131,104)" stroke-opacity="1" stroke-width="6" d="M0 0"/></g></g><g opacity="1" transform="matrix(1,0,0,1,0,0)"><path fill="rgb(29,29,27)" fill-opacity="1" d=" M116.14199829101562,-165.44900512695312 C116.14199829101562,-168.90199279785156 64.21900177001953,-171.70199584960938 0.16899999976158142,-171.70199584960938 C-63.88100051879883,-171.70199584960938 -115.80500030517578,-168.90199279785156 -115.80500030517578,-165.44900512695312 C-115.80500030517578,-161.99600219726562 -63.88100051879883,-159.19700622558594 0.16899999976158142,-159.19700622558594 C64.21900177001953,-159.19700622558594 116.14199829101562,-161.99600219726562 116.14199829101562,-165.44900512695312z"/></g><g opacity="0.35000000000000003" transform="matrix(1,0,0,1,0,0)"><path fill="url(#__lottie_element_534)" fill-opacity="1" d=" M-39.63800048828125,-226.62399291992188 C-126.93599700927734,-224.1529998779297 -150.27099609375,-215.093994140625 -150.27099609375,-215.093994140625 C-150.27099609375,-215.093994140625 -99.20899963378906,-222.5070037841797 -36.069000244140625,-223.60499572753906 C-5.599999904632568,-224.13499450683594 36.13100051879883,-226.0749969482422 36.13100051879883,-226.0749969482422 C36.13100051879883,-226.0749969482422 -9.447999954223633,-227.47799682617188 -39.63800048828125,-226.62399291992188z"/></g></g><g style="display: block;" transform="matrix(0.9106651544570923,0,0,0.9106651544570923,255.84701538085938,254.13055419921875)" opacity="1"><g opacity="1" transform="matrix(1,0,0,1,0,0)"><g opacity="1" transform="matrix(1,0,0,1,0,0)"><g opacity="1" transform="matrix(1,0,0,1,0,0)"><path fill="rgb(155,79,41)" fill-opacity="1" d=" M-155.0290069580078,192.406005859375 C-155.0290069580078,192.406005859375 -155.0290069580078,219.927001953125 -155.0290069580078,219.927001953125 C-155.0290069580078,227.2969970703125 -85.54399871826172,234.27099609375 0.16899999976158142,234.27099609375 C85.88200378417969,234.27099609375 155.36599731445312,227.2969970703125 155.36599731445312,219.927001953125 C155.36599731445312,219.927001953125 155.36599731445312,192.406005859375 155.36599731445312,192.406005859375 C155.36599731445312,192.406005859375 -155.0290069580078,192.406005859375 -155.0290069580078,192.406005859375z"/></g></g><g opacity="0.6" transform="matrix(1,0,0,1,0,0)"><path fill="rgb(178,108,61)" fill-opacity="1" d=" M155.3699951171875,219.9239959716797 C155.3699951171875,219.9239959716797 155.3699951171875,192.4040069580078 155.3699951171875,192.4040069580078 C155.3699951171875,192.4040069580078 144.3300018310547,192.4040069580078 144.3300018310547,192.4040069580078 C143.72999572753906,192.74400329589844 142.97000122070312,193.08399963378906 142.0500030517578,193.4239959716797 C142.0500030517578,193.4239959716797 142.0500030517578,209.6540069580078 142.0500030517578,209.6540069580078 C142.0500030517578,217.0240020751953 78.52999877929688,223.9929962158203 0.17000000178813934,223.9929962158203 C-78.19000244140625,223.9929962158203 -141.7100067138672,217.0240020751953 -141.7100067138672,209.6540069580078 C-141.7100067138672,209.6540069580078 -141.7100067138672,193.4239959716797 -141.7100067138672,193.4239959716797 C-142.6300048828125,193.08399963378906 -143.39999389648438,192.74400329589844 -144,192.4040069580078 C-144,192.4040069580078 -155.02999877929688,192.4040069580078 -155.02999877929688,192.4040069580078 C-155.02999877929688,192.4040069580078 -155.02999877929688,219.9239959716797 -155.02999877929688,219.9239959716797 C-155.02999877929688,227.29400634765625 -85.54000091552734,234.2740020751953 0.17000000178813934,234.2740020751953 C85.87999725341797,234.2740020751953 155.3699951171875,227.29400634765625 155.3699951171875,219.9239959716797z"/></g><g opacity="0.5" transform="matrix(1,0,0,1,0,0)"><path fill="url(#__lottie_element_525)" fill-opacity="1" d=" M104.80000305175781,192.40699768066406 C104.80000305175781,192.40699768066406 104.80000305175781,230.32699584960938 104.80000305175781,230.32699584960938 C77.20999908447266,232.7270050048828 40.4900016784668,234.26699829101562 0.17000000178813934,234.26699829101562 C-1.8799999952316284,234.26699829101562 -3.9100000858306885,234.26699829101562 -5.940000057220459,234.2469940185547 C-5.940000057220459,234.2469940185547 -5.940000057220459,192.40699768066406 -5.940000057220459,192.40699768066406 C-5.940000057220459,192.40699768066406 104.80000305175781,192.40699768066406 104.80000305175781,192.40699768066406z"/></g><g opacity="1" transform="matrix(1,0,0,1,0,0)"><g opacity="1" transform="matrix(1,0,0,1,0,0)"><path fill="rgb(130,62,38)" fill-opacity="1" d=" M-145.60499572753906,175.09100341796875 C-145.60499572753906,175.09100341796875 -145.60499572753906,190.53199768066406 -145.60499572753906,190.53199768066406 C-145.60499572753906,197.45399475097656 -80.33999633789062,203.06500244140625 0.16899999976158142,203.06500244140625 C80.6780014038086,203.06500244140625 145.9429931640625,197.45399475097656 145.9429931640625,190.53199768066406 C145.9429931640625,190.53199768066406 145.9429931640625,175.09100341796875 145.9429931640625,175.09100341796875 C145.9429931640625,175.09100341796875 -145.60499572753906,175.09100341796875 -145.60499572753906,175.09100341796875z"/></g></g><g opacity="0.5" transform="matrix(1,0,0,1,0,0)"><path fill="url(#__lottie_element_526)" fill-opacity="1" d=" M93.80000305175781,175.08700561523438 C93.80000305175781,175.08700561523438 93.80000305175781,200.14700317382812 93.80000305175781,200.14700317382812 C68.47000122070312,201.9669952392578 35.81999969482422,203.06700134277344 0.17000000178813934,203.06700134277344 C-5.619999885559082,203.06700134277344 -11.329999923706055,203.03700256347656 -16.940000534057617,202.98699951171875 C-16.940000534057617,202.98699951171875 -16.940000534057617,175.08700561523438 -16.940000534057617,175.08700561523438 C-16.940000534057617,175.08700561523438 93.80000305175781,175.08700561523438 93.80000305175781,175.08700561523438z"/></g><g opacity="1" transform="matrix(1,0,0,1,0,0)"><g opacity="1" transform="matrix(1,0,0,1,0,0)"><path stroke-linecap="round" stroke-linejoin="round" fill-opacity="0" stroke="rgb(58,25,12)" stroke-opacity="1" stroke-width="8" d=" M-145.60499572753906,175.09100341796875 C-145.60499572753906,175.09100341796875 -145.60499572753906,190.53199768066406 -145.60499572753906,190.53199768066406 C-145.60499572753906,197.45399475097656 -80.33999633789062,203.06500244140625 0.16899999976158142,203.06500244140625 C80.6780014038086,203.06500244140625 145.9429931640625,197.45399475097656 145.9429931640625,190.53199768066406 C145.9429931640625,190.53199768066406 145.9429931640625,175.09100341796875 145.9429931640625,175.09100341796875 C145.9429931640625,175.09100341796875 -145.60499572753906,175.09100341796875 -145.60499572753906,175.09100341796875z"/></g></g><g opacity="1" transform="matrix(1,0,0,1,0,0)"><path fill="rgb(84,40,16)" fill-opacity="1" d=" M145.9429931640625,175.09100341796875 C145.9429931640625,182.01300048828125 80.6780014038086,187.62399291992188 0.16899999976158142,187.62399291992188 C-80.33999633789062,187.62399291992188 -145.60499572753906,182.01300048828125 -145.60499572753906,175.09100341796875 C-145.60499572753906,168.16900634765625 -80.33999633789062,162.5570068359375 0.16899999976158142,162.5570068359375 C80.6780014038086,162.5570068359375 145.9429931640625,168.16900634765625 145.9429931640625,175.09100341796875z"/></g></g><g opacity="1" transform="matrix(1,0,0,1,0,0)"><path fill="url(#__lottie_element_527)" fill-opacity="1" d=" M-145.8780059814453,187.63099670410156 C-145.8780059814453,187.63099670410156 -154.38699340820312,188.3470001220703 -154.93800354003906,192.572998046875 C-155.76199340820312,198.88699340820312 -108.552001953125,211.23199462890625 -0.10700000077486038,209.8679962158203 C87.19100189208984,208.77000427246094 148.40499877929688,204.00100708007812 155.54800415039062,192.572998046875 C156.92100524902344,190.3769989013672 145.94000244140625,187.63099670410156 145.94000244140625,187.63099670410156 C145.94000244140625,187.63099670410156 153.2259979248047,188.45700073242188 149.64599609375,192.98399353027344 C140.31199645996094,204.78799438476562 33.452999114990234,208.03900146484375 0.7170000076293945,207.39700317382812 C-41.28499984741211,206.572998046875 -138.4669952392578,205.2010040283203 -148.62399291992188,193.39599609375 C-148.62399291992188,185.16000366210938 -145.8780059814453,187.63099670410156 -145.8780059814453,187.63099670410156z"/></g><g opacity="1" transform="matrix(1,0,0,1,0,-19.766000747680664)"><path fill="url(#__lottie_element_528)" fill-opacity="1" d=" M-146.83900451660156,196.00399780273438 C-146.26199340820312,202.34500122070312 -124.19100189208984,209.04400634765625 -0.10700000077486038,209.8679962158203 C94.33000183105469,210.4949951171875 140.31199645996094,203.8280029296875 146.07699584960938,197.3769989013672 C146.07699584960938,196.6909942626953 146.3520050048828,195.45599365234375 145.5279998779297,195.18099975585938 C137.42999267578125,205.4759979248047 32.90399932861328,208.03900146484375 0.1679999977350235,207.39700317382812 C-41.83399963378906,206.572998046875 -135.7209930419922,206.84800720214844 -145.8780059814453,195.04299926757812 C-145.8780059814453,194.906005859375 -146.9759979248047,194.49400329589844 -146.83900451660156,196.00399780273438z"/></g><g opacity="1" transform="matrix(1,0,0,1,0,0)"><path stroke-linecap="round" stroke-linejoin="round" fill-opacity="0" stroke="rgb(84,40,20)" stroke-opacity="1" stroke-width="8" d=" M155.36599731445312,192.406005859375 C155.36599731445312,190.79400634765625 152.03900146484375,189.2480010986328 145.9429931640625,187.81700134277344 C145.9429931640625,187.81700134277344 145.9429931640625,175.09100341796875 145.9429931640625,175.09100341796875 C145.9429931640625,175.09100341796875 145.9429931640625,175.09100341796875 145.9429931640625,175.09100341796875 C145.94200134277344,168.16900634765625 80.677001953125,162.5570068359375 0.16899999976158142,162.5570068359375 C-80.33899688720703,162.5570068359375 -145.60400390625,168.16900634765625 -145.60499572753906,175.09100341796875 C-145.60499572753906,175.09100341796875 -145.60499572753906,175.09100341796875 -145.60499572753906,175.09100341796875 C-145.60499572753906,175.09100341796875 -145.60499572753906,187.81700134277344 -145.60499572753906,187.81700134277344 C-151.7010040283203,189.2480010986328 -155.0290069580078,190.79400634765625 -155.0290069580078,192.406005859375 C-155.0290069580078,192.406005859375 -155.0290069580078,192.406005859375 -155.0290069580078,192.406005859375 C-155.0290069580078,192.406005859375 -155.0290069580078,219.927001953125 -155.0290069580078,219.927001953125 C-155.0290069580078,227.2969970703125 -85.54399871826172,234.27099609375 0.16899999976158142,234.27099609375 C85.88200378417969,234.27099609375 155.36599731445312,227.2969970703125 155.36599731445312,219.927001953125 C155.36599731445312,219.927001953125 155.36599731445312,192.406005859375 155.36599731445312,192.406005859375 C155.36599731445312,192.406005859375 155.36599731445312,192.406005859375 155.36599731445312,192.406005859375z"/></g><g opacity="0.5" transform="matrix(1,0,0,1,0,0)"><path stroke-linecap="round" stroke-linejoin="round" fill-opacity="0" stroke="rgb(183,131,104)" stroke-opacity="1" stroke-width="6" d="M0 0"/></g><g opacity="0.5" transform="matrix(1,0,0,1,0,0)"><path stroke-linecap="round" stroke-linejoin="round" fill-opacity="0" stroke="rgb(183,131,104)" stroke-opacity="1" stroke-width="6" d="M0 0"/></g><g opacity="0.5" transform="matrix(1,0,0,1,0,0)"><path stroke-linecap="round" stroke-linejoin="round" fill-opacity="0" stroke="rgb(183,131,104)" stroke-opacity="1" stroke-width="6" d="M0 0"/></g><g opacity="1" transform="matrix(1,0,0,1,0,0)"><path fill="rgb(29,29,27)" fill-opacity="1" d=" M116.14199829101562,168.83799743652344 C116.14199829101562,165.38499450683594 64.21900177001953,162.58599853515625 0.16899999976158142,162.58599853515625 C-63.88100051879883,162.58599853515625 -115.80500030517578,165.38499450683594 -115.80500030517578,168.83799743652344 C-115.80500030517578,172.29100036621094 -63.88100051879883,175.09100341796875 0.16899999976158142,175.09100341796875 C64.21900177001953,175.09100341796875 116.14199829101562,172.29100036621094 116.14199829101562,168.83799743652344z"/></g></g><g style="display: block;" mask="url(#__lottie_element_415_1)"><g clip-path="url(#__lottie_element_426)" transform="matrix(0.9106651544570923,0,0,0.9106651544570923,22.869722366333008,22.519258499145508)" opacity="1"><g style="display: block;" transform="matrix(1,0,0,1.024999976158142,255.83200073242188,254.29029846191406)" opacity="1"><g opacity="1" transform="matrix(1,0,0,1,0,0)"><path fill="rgb(198,168,136)" fill-opacity="1" d=" M92.63400268554688,73.41899871826172 C109.87000274658203,80.2760009765625 129.16799926757812,82.64399719238281 139.6999969482422,118.96800231933594 C141.41400146484375,124.87799835205078 137.16799926757812,157.16799926757812 135.41799926757812,163.97900390625 C112.16799926757812,176.41799926757812 49.49700164794922,176.8979949951172 3.8580000400543213,176.8979949951172 C-47.24399948120117,176.8979949951172 -107.58200073242188,176.66900634765625 -132.40899658203125,166.7969970703125 C-139.33200073242188,156.91900634765625 -139.03399658203125,119.3759994506836 -137.2550048828125,114.53800201416016 C-129.83200073242188,94.35099792480469 -116.08200073242188,83.57099914550781 -102.125,75.08399963378906 C-99.47799682617188,73.4739990234375 -81.83200073242188,66.5469970703125 -64.27400207519531,62.99700164794922 C-57.63600158691406,61.654998779296875 -45.034000396728516,55.64899826049805 -38.49100112915039,54.04199981689453 C-27.832000732421875,51.42499923706055 -13.456999778747559,43.75 -0.20200000703334808,43.75 C14.418000221252441,43.75 25.767000198364258,51.42399978637695 37.8129997253418,55.507999420166016 C51.667999267578125,60.20500183105469 50.849998474121094,59.3129997253418 60.17599868774414,62.22200012207031 C77.16799926757812,67.52200317382812 85.16799926757812,70.4489974975586 92.63400268554688,73.41899871826172z"/></g></g><g style="display: block;" mask="url(#__lottie_element_475_1)"><g clip-path="url(#__lottie_element_493)" transform="matrix(1,0,0,1.024999976158142,0,-6.399993896484375)" opacity="1"><g style="display: block;" transform="matrix(1,0,0,1,255.83201599121094,254.33200073242188)" opacity="1"><g opacity="0.1" transform="matrix(1,0,0,1,0,0)"><g opacity="1" transform="matrix(1,0,0,1,0,0)"><path fill="rgb(105,51,4)" fill-opacity="1" d=" M-69.48600006103516,-95.81600189208984 C-69.48600006103516,-93.77999877929688 -71.13600158691406,-92.12999725341797 -73.1719970703125,-92.12999725341797 C-75.20800018310547,-92.12999725341797 -76.85800170898438,-93.77999877929688 -76.85800170898438,-95.81600189208984 C-76.85800170898438,-97.85199737548828 -75.20800018310547,-99.50199890136719 -73.1719970703125,-99.50199890136719 C-71.13600158691406,-99.50199890136719 -69.48600006103516,-97.85199737548828 -69.48600006103516,-95.81600189208984z"/></g><g opacity="1" transform="matrix(1,0,0,1,0,0)"><path fill="rgb(105,51,4)" fill-opacity="1" d=" M-18.367000579833984,-32.95399856567383 C-18.367000579833984,-30.917999267578125 -20.017000198364258,-29.268999099731445 -22.05299949645996,-29.268999099731445 C-24.089000701904297,-29.268999099731445 -25.73900032043457,-30.917999267578125 -25.73900032043457,-32.95399856567383 C-25.73900032043457,-34.9900016784668 -24.089000701904297,-36.63999938964844 -22.05299949645996,-36.63999938964844 C-20.017000198364258,-36.63999938964844 -18.367000579833984,-34.9900016784668 -18.367000579833984,-32.95399856567383z"/></g><g opacity="1" transform="matrix(1,0,0,1,0,0)"><path fill="rgb(105,51,4)" fill-opacity="1" d=" M-46.165000915527344,-60.69200134277344 C-46.165000915527344,-58.65599822998047 -47.814998626708984,-57.00699996948242 -49.85100173950195,-57.00699996948242 C-51.887001037597656,-57.00699996948242 -53.5369987487793,-58.65599822998047 -53.5369987487793,-60.69200134277344 C-53.5369987487793,-62.72800064086914 -51.887001037597656,-64.37799835205078 -49.85100173950195,-64.37799835205078 C-47.814998626708984,-64.37799835205078 -46.165000915527344,-62.72800064086914 -46.165000915527344,-60.69200134277344z"/></g><g opacity="1" transform="matrix(1,0,0,1,0,0)"><path fill="rgb(105,51,4)" fill-opacity="1" d=" M-86.85299682617188,-63.73699951171875 C-86.85299682617188,-61.70100021362305 -88.50299835205078,-60.05099868774414 -90.53900146484375,-60.05099868774414 C-92.57499694824219,-60.05099868774414 -94.2239990234375,-61.70100021362305 -94.2239990234375,-63.73699951171875 C-94.2239990234375,-65.77300262451172 -92.57499694824219,-67.4219970703125 -90.53900146484375,-67.4219970703125 C-88.50299835205078,-67.4219970703125 -86.85299682617188,-65.77300262451172 -86.85299682617188,-63.73699951171875z"/></g><g opacity="1" transform="matrix(1,0,0,1,0,0)"><path fill="rgb(105,51,4)" fill-opacity="1" d=" M-16.336999893188477,-106.44499969482422 C-16.336999893188477,-104.40899658203125 -17.986000061035156,-102.75900268554688 -20.02199935913086,-102.75900268554688 C-22.058000564575195,-102.75900268554688 -23.70800018310547,-104.40899658203125 -23.70800018310547,-106.44499969482422 C-23.70800018310547,-108.48100280761719 -22.058000564575195,-110.12999725341797 -20.02199935913086,-110.12999725341797 C-17.986000061035156,-110.12999725341797 -16.336999893188477,-108.48100280761719 -16.336999893188477,-106.44499969482422z"/></g><g opacity="1" transform="matrix(1,0,0,1,0,0)"><path fill="rgb(105,51,4)" fill-opacity="1" d=" M-112.11900329589844,-103.18699645996094 C-112.11900329589844,-101.1510009765625 -113.76899719238281,-99.50199890136719 -115.80500030517578,-99.50199890136719 C-117.84100341796875,-99.50199890136719 -119.49099731445312,-101.1510009765625 -119.49099731445312,-103.18699645996094 C-119.49099731445312,-105.2229995727539 -117.84100341796875,-106.87300109863281 -115.80500030517578,-106.87300109863281 C-113.76899719238281,-106.87300109863281 -112.11900329589844,-105.2229995727539 -112.11900329589844,-103.18699645996094z"/></g><g opacity="1" transform="matrix(1,0,0,1,0,0)"><path fill="rgb(105,51,4)" fill-opacity="1" d=" M6.611000061035156,-76.52999877929688 C6.611000061035156,-74.49400329589844 4.960999965667725,-72.84400177001953 2.924999952316284,-72.84400177001953 C0.8889999985694885,-72.84400177001953 -0.7599999904632568,-74.49400329589844 -0.7599999904632568,-76.52999877929688 C-0.7599999904632568,-78.56600189208984 0.8889999985694885,-80.21600341796875 2.924999952316284,-80.21600341796875 C4.960999965667725,-80.21600341796875 6.611000061035156,-78.56600189208984 6.611000061035156,-76.52999877929688z"/></g><g opacity="1" transform="matrix(1,0,0,1,0,0)"><path fill="rgb(105,51,4)" fill-opacity="1" d=" M39.37799835205078,-102.75900268554688 C39.37799835205078,-100.7229995727539 37.729000091552734,-99.072998046875 35.69300079345703,-99.072998046875 C33.65700149536133,-99.072998046875 32.00699996948242,-100.7229995727539 32.00699996948242,-102.75900268554688 C32.00699996948242,-104.79499816894531 33.65700149536133,-106.44499969482422 35.69300079345703,-106.44499969482422 C37.729000091552734,-106.44499969482422 39.37799835205078,-104.79499816894531 39.37799835205078,-102.75900268554688z"/></g><g opacity="1" transform="matrix(1,0,0,1,0,0)"><path fill="rgb(105,51,4)" fill-opacity="1" d=" M27.232999801635742,-32.95399856567383 C27.232999801635742,-30.917999267578125 25.58300018310547,-29.268999099731445 23.547000885009766,-29.268999099731445 C21.51099967956543,-29.268999099731445 19.861000061035156,-30.917999267578125 19.861000061035156,-32.95399856567383 C19.861000061035156,-34.9900016784668 21.51099967956543,-36.63999938964844 23.547000885009766,-36.63999938964844 C25.58300018310547,-36.63999938964844 27.232999801635742,-34.9900016784668 27.232999801635742,-32.95399856567383z"/></g><g opacity="1" transform="matrix(1,0,0,1,0,0)"><path fill="rgb(105,51,4)" fill-opacity="1" d=" M76.95700073242188,-60.69200134277344 C76.95700073242188,-58.65599822998047 75.30699920654297,-57.00699996948242 73.27100372314453,-57.00699996948242 C71.23500061035156,-57.00699996948242 69.58499908447266,-58.65599822998047 69.58499908447266,-60.69200134277344 C69.58499908447266,-62.72800064086914 71.23500061035156,-64.37799835205078 73.27100372314453,-64.37799835205078 C75.30699920654297,-64.37799835205078 76.95700073242188,-62.72800064086914 76.95700073242188,-60.69200134277344z"/></g><g opacity="1" transform="matrix(1,0,0,1,0,0)"><path fill="rgb(105,51,4)" fill-opacity="1" d=" M86.80400085449219,-109.61599731445312 C86.80400085449219,-107.58000183105469 85.15399932861328,-105.93000030517578 83.11799621582031,-105.93000030517578 C81.08200073242188,-105.93000030517578 79.43299865722656,-107.58000183105469 79.43299865722656,-109.61599731445312 C79.43299865722656,-111.6520004272461 81.08200073242188,-113.302001953125 83.11799621582031,-113.302001953125 C85.15399932861328,-113.302001953125 86.80400085449219,-111.6520004272461 86.80400085449219,-109.61599731445312z"/></g><g opacity="1" transform="matrix(1,0,0,1,0,0)"><path fill="rgb(105,51,4)" fill-opacity="1" d=" M108.48600006103516,-86.55599975585938 C108.48600006103516,-84.5199966430664 106.83599853515625,-82.87000274658203 104.80000305175781,-82.87000274658203 C102.76399993896484,-82.87000274658203 101.11399841308594,-84.5199966430664 101.11399841308594,-86.55599975585938 C101.11399841308594,-88.59200286865234 102.76399993896484,-90.24199676513672 104.80000305175781,-90.24199676513672 C106.83599853515625,-90.24199676513672 108.48600006103516,-88.59200286865234 108.48600006103516,-86.55599975585938z"/></g></g></g><g style="display: block;" transform="matrix(-1,0,0,-1,256.1720275878906,301.8340148925781)" opacity="1"><g opacity="0.1" transform="matrix(1,0,0,1,0,0)"><g opacity="1" transform="matrix(1,0,0,1,0,0)"><path fill="rgb(105,51,4)" fill-opacity="1" d=" M-69.48600006103516,-95.81600189208984 C-69.48600006103516,-93.77999877929688 -71.13600158691406,-92.12999725341797 -73.1719970703125,-92.12999725341797 C-75.20800018310547,-92.12999725341797 -76.85800170898438,-93.77999877929688 -76.85800170898438,-95.81600189208984 C-76.85800170898438,-97.85199737548828 -75.20800018310547,-99.50199890136719 -73.1719970703125,-99.50199890136719 C-71.13600158691406,-99.50199890136719 -69.48600006103516,-97.85199737548828 -69.48600006103516,-95.81600189208984z"/></g><g opacity="1" transform="matrix(1,0,0,1,0,0)"><path fill="rgb(105,51,4)" fill-opacity="1" d=" M-18.367000579833984,-32.95399856567383 C-18.367000579833984,-30.917999267578125 -20.017000198364258,-29.268999099731445 -22.05299949645996,-29.268999099731445 C-24.089000701904297,-29.268999099731445 -25.73900032043457,-30.917999267578125 -25.73900032043457,-32.95399856567383 C-25.73900032043457,-34.9900016784668 -24.089000701904297,-36.63999938964844 -22.05299949645996,-36.63999938964844 C-20.017000198364258,-36.63999938964844 -18.367000579833984,-34.9900016784668 -18.367000579833984,-32.95399856567383z"/></g><g opacity="1" transform="matrix(1,0,0,1,0,0)"><path fill="rgb(105,51,4)" fill-opacity="1" d=" M-46.165000915527344,-60.69200134277344 C-46.165000915527344,-58.65599822998047 -47.814998626708984,-57.00699996948242 -49.85100173950195,-57.00699996948242 C-51.887001037597656,-57.00699996948242 -53.5369987487793,-58.65599822998047 -53.5369987487793,-60.69200134277344 C-53.5369987487793,-62.72800064086914 -51.887001037597656,-64.37799835205078 -49.85100173950195,-64.37799835205078 C-47.814998626708984,-64.37799835205078 -46.165000915527344,-62.72800064086914 -46.165000915527344,-60.69200134277344z"/></g><g opacity="1" transform="matrix(1,0,0,1,0,0)"><path fill="rgb(105,51,4)" fill-opacity="1" d=" M-86.85299682617188,-63.73699951171875 C-86.85299682617188,-61.70100021362305 -88.50299835205078,-60.05099868774414 -90.53900146484375,-60.05099868774414 C-92.57499694824219,-60.05099868774414 -94.2239990234375,-61.70100021362305 -94.2239990234375,-63.73699951171875 C-94.2239990234375,-65.77300262451172 -92.57499694824219,-67.4219970703125 -90.53900146484375,-67.4219970703125 C-88.50299835205078,-67.4219970703125 -86.85299682617188,-65.77300262451172 -86.85299682617188,-63.73699951171875z"/></g><g opacity="1" transform="matrix(1,0,0,1,0,0)"><path fill="rgb(105,51,4)" fill-opacity="1" d=" M-16.336999893188477,-106.44499969482422 C-16.336999893188477,-104.40899658203125 -17.986000061035156,-102.75900268554688 -20.02199935913086,-102.75900268554688 C-22.058000564575195,-102.75900268554688 -23.70800018310547,-104.40899658203125 -23.70800018310547,-106.44499969482422 C-23.70800018310547,-108.48100280761719 -22.058000564575195,-110.12999725341797 -20.02199935913086,-110.12999725341797 C-17.986000061035156,-110.12999725341797 -16.336999893188477,-108.48100280761719 -16.336999893188477,-106.44499969482422z"/></g><g opacity="1" transform="matrix(1,0,0,1,0,0)"><path fill="rgb(105,51,4)" fill-opacity="1" d=" M-112.11900329589844,-103.18699645996094 C-112.11900329589844,-101.1510009765625 -113.76899719238281,-99.50199890136719 -115.80500030517578,-99.50199890136719 C-117.84100341796875,-99.50199890136719 -119.49099731445312,-101.1510009765625 -119.49099731445312,-103.18699645996094 C-119.49099731445312,-105.2229995727539 -117.84100341796875,-106.87300109863281 -115.80500030517578,-106.87300109863281 C-113.76899719238281,-106.87300109863281 -112.11900329589844,-105.2229995727539 -112.11900329589844,-103.18699645996094z"/></g><g opacity="1" transform="matrix(1,0,0,1,0,0)"><path fill="rgb(105,51,4)" fill-opacity="1" d=" M6.611000061035156,-76.52999877929688 C6.611000061035156,-74.49400329589844 4.960999965667725,-72.84400177001953 2.924999952316284,-72.84400177001953 C0.8889999985694885,-72.84400177001953 -0.7599999904632568,-74.49400329589844 -0.7599999904632568,-76.52999877929688 C-0.7599999904632568,-78.56600189208984 0.8889999985694885,-80.21600341796875 2.924999952316284,-80.21600341796875 C4.960999965667725,-80.21600341796875 6.611000061035156,-78.56600189208984 6.611000061035156,-76.52999877929688z"/></g><g opacity="1" transform="matrix(1,0,0,1,0,0)"><path fill="rgb(105,51,4)" fill-opacity="1" d=" M39.37799835205078,-102.75900268554688 C39.37799835205078,-100.7229995727539 37.729000091552734,-99.072998046875 35.69300079345703,-99.072998046875 C33.65700149536133,-99.072998046875 32.00699996948242,-100.7229995727539 32.00699996948242,-102.75900268554688 C32.00699996948242,-104.79499816894531 33.65700149536133,-106.44499969482422 35.69300079345703,-106.44499969482422 C37.729000091552734,-106.44499969482422 39.37799835205078,-104.79499816894531 39.37799835205078,-102.75900268554688z"/></g><g opacity="1" transform="matrix(1,0,0,1,0,0)"><path fill="rgb(105,51,4)" fill-opacity="1" d=" M27.232999801635742,-32.95399856567383 C27.232999801635742,-30.917999267578125 25.58300018310547,-29.268999099731445 23.547000885009766,-29.268999099731445 C21.51099967956543,-29.268999099731445 19.861000061035156,-30.917999267578125 19.861000061035156,-32.95399856567383 C19.861000061035156,-34.9900016784668 21.51099967956543,-36.63999938964844 23.547000885009766,-36.63999938964844 C25.58300018310547,-36.63999938964844 27.232999801635742,-34.9900016784668 27.232999801635742,-32.95399856567383z"/></g><g opacity="1" transform="matrix(1,0,0,1,0,0)"><path fill="rgb(105,51,4)" fill-opacity="1" d=" M76.95700073242188,-60.69200134277344 C76.95700073242188,-58.65599822998047 75.30699920654297,-57.00699996948242 73.27100372314453,-57.00699996948242 C71.23500061035156,-57.00699996948242 69.58499908447266,-58.65599822998047 69.58499908447266,-60.69200134277344 C69.58499908447266,-62.72800064086914 71.23500061035156,-64.37799835205078 73.27100372314453,-64.37799835205078 C75.30699920654297,-64.37799835205078 76.95700073242188,-62.72800064086914 76.95700073242188,-60.69200134277344z"/></g><g opacity="1" transform="matrix(1,0,0,1,0,0)"><path fill="rgb(105,51,4)" fill-opacity="1" d=" M86.80400085449219,-109.61599731445312 C86.80400085449219,-107.58000183105469 85.15399932861328,-105.93000030517578 83.11799621582031,-105.93000030517578 C81.08200073242188,-105.93000030517578 79.43299865722656,-107.58000183105469 79.43299865722656,-109.61599731445312 C79.43299865722656,-111.6520004272461 81.08200073242188,-113.302001953125 83.11799621582031,-113.302001953125 C85.15399932861328,-113.302001953125 86.80400085449219,-111.6520004272461 86.80400085449219,-109.61599731445312z"/></g><g opacity="1" transform="matrix(1,0,0,1,0,0)"><path fill="rgb(105,51,4)" fill-opacity="1" d=" M108.48600006103516,-86.55599975585938 C108.48600006103516,-84.5199966430664 106.83599853515625,-82.87000274658203 104.80000305175781,-82.87000274658203 C102.76399993896484,-82.87000274658203 101.11399841308594,-84.5199966430664 101.11399841308594,-86.55599975585938 C101.11399841308594,-88.59200286865234 102.76399993896484,-90.24199676513672 104.80000305175781,-90.24199676513672 C106.83599853515625,-90.24199676513672 108.48600006103516,-88.59200286865234 108.48600006103516,-86.55599975585938z"/></g></g></g><g style="display: block;" transform="matrix(1,0,0,1,255.83200073242188,254.3319854736328)" opacity="1"><g opacity="0.1" transform="matrix(1,0,0,1,0,0)"><g opacity="0" transform="matrix(1,0,0,1,69,230.5)"><path fill="rgb(105,51,4)" fill-opacity="1" d=" M-69.48600006103516,-95.81600189208984 C-69.48600006103516,-93.77999877929688 -71.13600158691406,-92.12999725341797 -73.1719970703125,-92.12999725341797 C-75.20800018310547,-92.12999725341797 -76.85800170898438,-93.77999877929688 -76.85800170898438,-95.81600189208984 C-76.85800170898438,-97.85199737548828 -75.20800018310547,-99.50199890136719 -73.1719970703125,-99.50199890136719 C-71.13600158691406,-99.50199890136719 -69.48600006103516,-97.85199737548828 -69.48600006103516,-95.81600189208984z"/></g><g opacity="0.12477631996099746" transform="matrix(1,0,0,1,78.69574737548828,208.98773193359375)"><path fill="rgb(105,51,4)" fill-opacity="1" d=" M-69.48600006103516,-95.81600189208984 C-69.48600006103516,-93.77999877929688 -71.13600158691406,-92.12999725341797 -73.1719970703125,-92.12999725341797 C-75.20800018310547,-92.12999725341797 -76.85800170898438,-93.77999877929688 -76.85800170898438,-95.81600189208984 C-76.85800170898438,-97.85199737548828 -75.20800018310547,-99.50199890136719 -73.1719970703125,-99.50199890136719 C-71.13600158691406,-99.50199890136719 -69.48600006103516,-97.85199737548828 -69.48600006103516,-95.81600189208984z"/></g><g opacity="0" transform="matrix(1,0,0,1,74,230.5)"><path fill="rgb(105,51,4)" fill-opacity="1" d=" M-69.48600006103516,-95.81600189208984 C-69.48600006103516,-93.77999877929688 -71.13600158691406,-92.12999725341797 -73.1719970703125,-92.12999725341797 C-75.20800018310547,-92.12999725341797 -76.85800170898438,-93.77999877929688 -76.85800170898438,-95.81600189208984 C-76.85800170898438,-97.85199737548828 -75.20800018310547,-99.50199890136719 -73.1719970703125,-99.50199890136719 C-71.13600158691406,-99.50199890136719 -69.48600006103516,-97.85199737548828 -69.48600006103516,-95.81600189208984z"/></g></g></g><g style="display: block;" transform="matrix(1,0,0,1,255.83200073242188,254.33201599121094)" opacity="1"><g opacity="0.5" transform="matrix(1,0,0,1,0,0)"><path fill="rgb(115,70,23)" fill-opacity="1" d=" M70.41000366210938,31.746999740600586 C109.16799926757812,46.667999267578125 128.66799926757812,80.16799926757812 135.1300048828125,95.71499633789062 C143.8679962158203,116.73799896240234 141.04299926757812,131.16900634765625 134.8800048828125,164.14100646972656 C113.66799926757812,175.29400634765625 101.16940307617188,175.69140625 71.99939727783203,175.70140075683594 C71.99939727783203,167.1457977294922 77.56800079345703,147.3679962158203 71.57379913330078,129.49560546875 C58.321800231933594,89.94580078125 26.500999450683594,79.4000015258789 10.989999771118164,59.935001373291016 C-12.331999778747559,30.667999267578125 18.96500015258789,10.95199966430664 18.575000762939453,10.51200008392334 C18.565000534057617,10.501999855041504 18.565000534057617,10.126999855041504 18.565000534057617,10.126999855041504 C14.114999771118164,-2.6730000972747803 7.190000057220459,-10.003000259399414 2.4700000286102295,-15.053000450134277 C2.4600000381469727,-15.053000450134277 2.4600000381469727,-15.062999725341797 2.4600000381469727,-15.062999725341797 C-0.6000000238418579,-19.093000411987305 -6.239999771118164,-22.292999267578125 -6.289999961853027,-22.322999954223633 C-16.920000076293945,-28.902999877929688 -33.9900016784668,-35.59299850463867 -51.81999969482422,-46.612998962402344 C-54.459999084472656,-48.24300003051758 -57.060001373291016,-49.9630012512207 -59.619998931884766,-51.78300094604492 C-28.718000411987305,-42.862998962402344 -20.582000732421875,-41.582000732421875 -9.937999725341797,-55.94900131225586 C-7.813000202178955,-58.81700134277344 -10.333999633789062,-57.882999420166016 -10.333999633789062,-57.882999420166016 C44.823001861572266,-57.882999420166016 107.1729965209961,-72.08200073242188 120.54199981689453,-68.28500366210938 C119.00199890136719,-52.76599884033203 96.66799926757812,-43.082000732421875 83.16000366210938,-36.112998962402344 C67.85199737548828,-28.215999603271484 54.36000061035156,-20.913000106811523 43.880001068115234,-15.373000144958496 C36.59000015258789,-11.512999534606934 31.3700008392334,-7.982999801635742 27.059999465942383,-3.5829999446868896 C19.899999618530273,3.7070000171661377 46.04499816894531,22.367000579833984 70.41000366210938,31.746999740600586z"/></g></g></g></g><g style="display: block;" transform="matrix(-1,0,0,-1.024999976158142,256.1679992675781,257.7096862792969)" opacity="1"><g opacity="0.5" transform="matrix(1,0,0,1,0,0)"><path fill="rgb(120,74,25)" fill-opacity="1" d=" M-140.08200073242188,-118.44400024414062 C-143.83200073242188,-142.83200073242188 -133.3939971923828,-155.0330047607422 -135.29400634765625,-163.00399780273438 C-109.26527404785156,-178.0516357421875 97.14817810058594,-179.15354919433594 132.6580047607422,-164.6999969482422 C138.16799926757812,-153.83099365234375 144.86000061035156,-131.0070037841797 138.13499450683594,-114.11299896240234 C103.16799926757812,-130.83200073242188 -94.83200073242188,-129.83200073242188 -140.08200073242188,-118.44400024414062z"/></g></g><g style="display: block;" mask="url(#__lottie_element_432_1)"><g transform="matrix(-1,0,0,-1.024999976158142,256.1679992675781,257.7096862792969)" opacity="0.55"><g opacity="0.5" transform="matrix(1,0,0,1,0,0)"><path fill="rgb(120,74,25)" fill-opacity="1" d=" M-140.7550048828125,169.55599975585938 C-167.33200073242188,140.66799926757812 -132.83200073242188,23.667999267578125 -33.755001068115234,12.871000289916992 C-6.793000221252441,-0.9570000171661377 -3.3320000171661377,-9.331000328063965 33.196998596191406,11.300000190734863 C181.16799926757812,61.16899871826172 151.6439971923828,161.79299926757812 152.36099243164062,174.51199340820312 C97.16799926757812,242.6439971923828 -7.831999778747559,327.5220031738281 -140.7550048828125,169.55599975585938z"/></g></g></g></g></g><g style="display: block;" transform="matrix(0.9999923706054688,0,0,0.9999923706054688,256,256.0001525878906)" opacity="1"><g opacity="1" transform="matrix(1,0,0,1,0,0)"><path fill="url(#__lottie_element_393)" fill-opacity="1" d=" M128.22999572753906,-112.69300079345703 C127.55699920654297,-85.4530029296875 110.4800033569336,-56.722999572753906 81.16000366210938,-38.612998962402344 C66.51000213623047,-29.55299949645996 54.36000061035156,-20.913000106811523 43.880001068115234,-15.373000144958496 C33.40999984741211,-9.833000183105469 26.59000015258789,-4.873000144958496 26.59000015258789,1.8270000219345093 C26.59000015258789,1.8270000219345093 -26.25,1.8270000219345093 -26.25,1.8270000219345093 C-26.25,-11.572999954223633 -51.7599983215332,-20.243000030517578 -81.06999969482422,-38.362998962402344 C-110.38999938964844,-56.472999572753906 -128.25399780273438,-80.43900299072266 -128.38999938964844,-115.19300079345703 C-128.5,-143.25 -124.75,-148.75 -122.37999725341797,-149.9029998779297 C-106.38800048828125,-157.6820068359375 -51.2400016784668,-160.16299438476562 -2.5799999237060547,-160.16299438476562 C46.08000183105469,-160.16299438476562 89.84700012207031,-161.08399963378906 120.72000122070312,-151.1529998779297 C122.75,-150.5 128.75,-133.75 128.22999572753906,-112.69300079345703z"/></g><g opacity="1" transform="matrix(1,0,0,1,0,0)"><path fill="url(#__lottie_element_394)" fill-opacity="1" d=" M121.72000122070312,149.8070068359375 C111.5,157.5 52.33000183105469,160.56700134277344 3.6700000762939453,160.56700134277344 C-45,160.56700134277344 -112.78800201416016,160.67599487304688 -123.12999725341797,148.0570068359375 C-126.25,144.25 -129.75,125.25 -128.64999389648438,110.08699798583984 C-126.77899932861328,84.29199981689453 -112.13999938964844,57.867000579833984 -82.81999969482422,39.75699996948242 C-68.16999816894531,30.69700050354004 -54.02000045776367,24.566999435424805 -43.540000915527344,19.017000198364258 C-33.06999969482422,13.47700023651123 -26.25,8.527000427246094 -26.25,1.8270000219345093 C-26.25,1.8270000219345093 26.59000015258789,1.8270000219345093 26.59000015258789,1.8270000219345093 C26.59000015258789,15.217000007629395 53.849998474121094,21.636999130249023 83.16000366210938,39.75699996948242 C112.4800033569336,57.867000579833984 127,83.5 127.7300033569336,112.08699798583984 C128.61700439453125,146.82000732421875 123.74600219726562,148.28199768066406 121.72000122070312,149.8070068359375z"/></g><g opacity="0.87" transform="matrix(1,0,0,0.44999998807907104,-1,53)"><path fill="url(#__lottie_element_395)" mask="url(#__lottie_element_397)" fill-opacity="1" d="M0 0 M122.22000122070312,218.41799926757812 C109.75,227.61099243164062 83,233 5.920000076293945,238.56700134277344 C-42.624000549316406,242.072998046875 -97,238.11099243164062 -120.87999725341797,217.16799926757812 C-122.03800201416016,216.1529998779297 -129.5679931640625,151.6479949951172 -128.39999389648438,125.97599792480469 C-125.5,62.22200012207031 -113.91500091552734,44.30799865722656 -101.31999969482422,7.923999786376953 C-90.5,-23.33300018310547 -63.93000030517578,-50.19300079345703 -61.52000045776367,-51.553001403808594 C-94.5,-26 -125.5,104.44499969482422 -85.59600067138672,156.1490020751953 C-14.454000473022461,248.3280029296875 91.25599670410156,191.39300537109375 102.02999877929688,96.0199966430664 C112.5,3.3329999446868896 68.7300033569336,-51.08100128173828 66.12000274658203,-52.611000061035156 C72.47000122070312,-49.4010009765625 86.90299987792969,-25.040000915527344 91.16000366210938,-18.131999969482422 C117.5,24.611000061035156 125.0479965209961,80.53500366210938 127.7300033569336,112.33699798583984 C130,139.25 124.27899932861328,216.89999389648438 122.22000122070312,218.41799926757812z"/></g><g opacity="0.1" transform="matrix(1,0,0,1,0,0)"><path fill="rgb(29,29,27)" fill-opacity="1" d=" M120.97000122070312,-150.47000122070312 C93.13800048828125,-160.09300231933594 45.83000183105469,-159.72999572753906 -2.8299999237060547,-159.72999572753906 C-51.5,-159.72999572753906 -105.02300262451172,-156.11900329589844 -122.37999725341797,-150.22000122070312 C-124.5,-149.5 -128.32000732421875,-138.53599548339844 -128.64999389648438,-115 C-129,-90 -112.13999938964844,-57.529998779296875 -82.81999969482422,-39.41999816894531 C-80.37000274658203,-37.900001525878906 -76.68000030517578,-35.470001220703125 -74.2699966430664,-34.11000061035156 C-111.72000122070312,-56.060001373291016 -125.5,-107 -86.34600067138672,-124.81199645996094 C-17.099000930786133,-156.31399536132812 100.22599792480469,-143.87600708007812 100.77999877929688,-94.8499984741211 C101.2969970703125,-49.07600021362305 60.72999954223633,-26.860000610351562 58.119998931884766,-25.329999923706055 C64.47000122070312,-28.540000915527344 74.26000213623047,-34.650001525878906 81.16000366210938,-38.91999816894531 C110.4800033569336,-57.029998779296875 124.54499816894531,-78.1760025024414 127.9800033569336,-112.75 C128.75,-120.5 124.5,-149.25 120.97000122070312,-150.47000122070312z"/></g><g opacity="0.17" transform="matrix(2.319999933242798,0,0,1.0199999809265137,-11,1)"><path fill="url(#__lottie_element_398)" mask="url(#__lottie_element_400)" fill-opacity="1" d="M0 0 M56.750999450683594,-150.197998046875 C56.750999450683594,-150.197998046875 54.94900131225586,-160.4340057373047 3.7769999504089355,-158.16900634765625 C-23.701000213623047,-156.9530029296875 -36.722999572753906,-155.8979949951172 -48.02299880981445,-149.70799255371094 C-50.54499816894531,-135.10499572753906 -56.6870002746582,-96.98600006103516 -40.888999938964844,-58.81999969482422 C-33.46900177001953,-40.89400100708008 -29.540000915527344,-37.39099884033203 -22.459999084472656,-29.070999145507812 C-9.369999885559082,-13.687999725341797 -5.767000198364258,-5.539000034332275 -6.267000198364258,0.9610000252723694 C-6.267000198364258,9.961000442504883 15.552000045776367,9.461000442504883 15.552000045776367,0.460999995470047 C15.302000045776367,-8.333000183105469 25.611000061035156,-21.261999130249023 32.042999267578125,-28.054000854492188 C39.18600082397461,-35.59700012207031 46.77399826049805,-49.8849983215332 51.196998596191406,-60.37699890136719 C67.0469970703125,-97.9749984741211 56.750999450683594,-150.197998046875 56.750999450683594,-150.197998046875z"/></g><g opacity="0.77838" transform="matrix(1,0,0,1,0,0)"><path fill="url(#__lottie_element_401)" fill-opacity="1" d=" M4.261000156402588,-63.58700180053711 C-30.368000030517578,-65.3010025024414 -66.63899993896484,-52.00600051879883 -53.68199920654297,-35.909000396728516 C-38.5629997253418,-17.125 -19.823999404907227,-9.930000305175781 -23.16699981689453,5 C-26.100000381469727,18.10099983215332 -60.53900146484375,28.756000518798828 -58.138999938964844,47.612998962402344 C-55.32500076293945,69.7229995727539 27.917999267578125,69.55500030517578 50.547000885009766,58.24100112915039 C73.1760025024414,46.926998138427734 43.89799880981445,31.934999465942383 33.74700164794922,21.784000396728516 C24.40399932861328,12.440999984741211 14.119000434875488,0.9980000257492065 31.690000534057617,-12.843999862670898 C50.56800079345703,-27.71500015258789 89.62699890136719,-59.361000061035156 4.261000156402588,-63.58700180053711z"/></g><g opacity="0.96" transform="matrix(0.3400000035762787,0,0,0.1676499992609024,0,0)"><path fill="url(#__lottie_element_402)" fill-opacity="1" d=" M-1.7389999628067017,-75.06999969482422 C-18.496000289916992,-74.69100189208984 -71.86399841308594,-63 -72.66699981689453,4.5 C-73.5,74.5 -20,81.5 -1.9529999494552612,81.24099731445312 C15,80.99800109863281 73,73.5 73.74700164794922,0.2840000092983246 C74.35199737548828,-59.00199890136719 16.5,-75.48300170898438 -1.7389999628067017,-75.06999969482422z"/></g><g opacity="0.92" transform="matrix(1,0,0,1,0,0)"><path fill="url(#__lottie_element_403)" mask="url(#__lottie_element_405)" fill-opacity="1" d="M0 0 M107.5,-153.5 C101.5,-155.5 42.94900131225586,-158.08299255371094 -1.9290000200271606,-159.83299255371094 C-43.43600082397461,-161.4510040283203 -104,-156 -111.5,-153.5 C-121.5,-101.5 -88.5,-21.04599952697754 -0.5,-21.5 C96.5,-22 122,-103 107.5,-153.5z"/></g><g opacity="1" transform="matrix(1,0,0,0.46000000834465027,4.5,-83)"><path fill="url(#__lottie_element_406)" mask="url(#__lottie_element_408)" fill-opacity="1" d="M0 0 M101.75,-151.73899841308594 C87,-176.08700561523438 -72.75,-166.75 -120.75,-151.25 C-126.25,-148.5 -132.83799743652344,-106.47200012207031 -130.25,-70.44599914550781 C-128,-39.13100051879883 -120.29399871826172,-60.36399841308594 -120,-73.12000274658203 C-118,-159.7830047607422 -109,-118.95600128173828 -109.5,-111.6520004272461 C-110,-104.3479995727539 -107,-65.72799682617188 0.5,-64.97799682617188 C101.5,-66.72799682617188 105.5,-149.48899841308594 101.75,-151.73899841308594z"/></g><g opacity="1" transform="matrix(1,0,0,1,0,0)"><path fill="url(#__lottie_element_409)" mask="url(#__lottie_element_411)" fill-opacity="1" d="M0 0 M-2.5,-160 C-91,-158.5 -121,-150.5 -121,-150.5 C-121,-150.5 -58.9900016784668,-140.5070037841797 0,-142 C79,-144 121.5,-151.5 121.5,-151.5 C121.5,-151.5 82.98899841308594,-161.44900512695312 -2.5,-160z"/></g><g opacity="1" transform="matrix(1,0,0,1,0,0)"><path fill="rgb(202,249,255)" fill-opacity="0.45" d=" M115.25,-151.75 C115.25,-151.75 115,-138.75 107.25,-132.75 C108.25,-130.5 108.75,-126.75 108.75,-126.75 C108.75,-126.75 120.5,-132 121.75,-143 C122.2699966430664,-147.5800018310547 115.25,-151.75 115.25,-151.75z"/></g><g opacity="1" transform="matrix(1,0,0,1,0,0)"><path fill="rgb(202,249,255)" fill-opacity="0.45" d=" M103.25,-130.25 C103.25,-130.25 93,-124.25 79.25,-120.5 C95.25,-119.25 105,-125 105,-125 C105,-125 103.25,-130.25 103.25,-130.25z"/></g><g opacity="0.29" transform="matrix(1,0,0,1,0,0)"><path fill="rgb(227,230,165)" fill-opacity="1" d=" M121,-133.25 C121,-133.25 119.25,-127.75 116.5,-125.75 C118,-119.25 119,-112.75 119,-112.75 C119,-112.75 121,-113.5 123.25,-115.5 C123.75,-122.5 121,-133.25 121,-133.25z"/></g><g opacity="0.29" transform="matrix(1,0,0,1,0,0)"><path fill="rgb(227,230,165)" fill-opacity="1" d=" M112.75,-123.5 C112.75,-123.5 103,-118 95.25,-117.25 C95.25,-113.75 95.5,-109 95.5,-109 C95.5,-109 108,-109.25 114.25,-110.75 C114.25,-113.75 112.75,-123.5 112.75,-123.5z"/></g><g opacity="0.28" transform="matrix(1,0,0,1,0,0)"><path fill="rgb(202,249,255)" fill-opacity="1" d=" M107,73 C107.25,76 110.5,82 109.25,95.25 C114.75,99.25 117.5,102 117.5,102 C117.5,102 115.25,82 107,73z"/></g><g opacity="0.28" transform="matrix(1,0,0,1,0,0)"><path fill="rgb(202,249,255)" fill-opacity="1" d=" M107.75,98 C107.75,98 103.75,114.5 88.25,122.75 C93.25,128.25 95.25,130 95.25,130 C95.25,130 112,121.75 117,105.5 C113.75,102.25 107.75,98 107.75,98z"/></g><g opacity="0.28" transform="matrix(1,0,0,1,0,0)"><path fill="rgb(202,249,255)" fill-opacity="1" d=" M85.5,124.25 C85.5,124.25 74.75,132.75 55.25,137 C72.25,138.25 92.25,131.25 92.25,131.25 C92.25,131.25 85.5,124.25 85.5,124.25z"/></g><g opacity="0.28" transform="matrix(1,0,0,1,0,0)"><path fill="rgb(202,249,255)" fill-opacity="1" d=" M122.25,105.75 C122,107.25 122,107.5 118.75,110.5 C120,114 121.75,129.25 121.75,129.25 C121.75,129.25 124.25,112 122.25,105.75z"/></g><g opacity="0.28" transform="matrix(1,0,0,1,0,0)"><path fill="rgb(202,249,255)" fill-opacity="1" d=" M116.75,115.25 C113.5,125 99.5,132 99.5,132 C99.5,132 100.25,136.5 100.25,139 C106.25,138 118.75,131.75 118.75,131.75 C118.75,131.75 118.75,119.75 116.75,115.25z"/></g><g opacity="0.43" transform="matrix(1,0,0,1,0,0)"><path fill="url(#__lottie_element_412)" fill-opacity="1" d=" M-23,6.5 C-21.75,3.5 -21.75,-4.5 -25.75,3.5 C-29.75,11.5 -35.25,14.5 -44.25,19 C-53.25,23.5 -85.75,37.5 -101.75,55.5 C-117.75,73.5 -123.5,81.25 -126.5,98.25 C-128.64999389648438,110.43099975585938 -113.77999877929688,123.1510009765625 -109.25,100.25 C-107.37799835205078,90.78399658203125 -109.5,128.5 -40.70100021362305,136.88699340820312 C0.6460000276565552,141.927001953125 -76.99199676513672,126.98699951171875 -25,39.25 C-13,19 -25.5,12.5 -23,6.5z"/></g><g opacity="1" transform="matrix(1,0,0,1,0,0)"><path stroke-linecap="butt" stroke-linejoin="miter" fill-opacity="0" stroke-miterlimit="4" stroke="rgb(182,189,202)" stroke-opacity="1" stroke-width="7" d=" M121,-149 C117,-154.5 55,-159 -1.99399995803833,-159.625 C-62.74700164794922,-160.29100036621094 -117.5,-155.25 -122.5,-149.75 C-126.26000213623047,-145.61399841308594 -141.40199279785156,-101.58300018310547 -106,-60 C-74.5,-23 -25.952999114990234,-16.965999603271484 -24.5,-0.5 C-23,16.5 -70.5,26 -101.5,56 C-137.93899536132812,91.26300048828125 -129.33200073242188,127.31400299072266 -122.75,148 C-119.25,159 -18.301000595092773,160.5 3.75,160.5 C30.25,160.5 115.5,158.25 122,149.25 C128.2239990234375,140.6320037841797 141.5,80.5 89.5,44.5 C46.154998779296875,14.491999626159668 24.5,15 25,-1 C25.5,-17 73.5,-23.5 107.5,-61.5 C125.94300079345703,-82.11199951171875 134,-113 121,-149z"/></g><g opacity="0" transform="matrix(1,0,0,1,0,0)"><path stroke-linecap="round" stroke-linejoin="miter" fill-opacity="0" stroke-miterlimit="4" stroke="rgb(196,176,164)" stroke-opacity="1" stroke-width="7" d="M0 0"/></g><g opacity="0" transform="matrix(1,0,0,1,0,0)"><path stroke-linecap="round" stroke-linejoin="miter" fill-opacity="0" stroke-miterlimit="4" stroke="rgb(161,142,130)" stroke-opacity="1" stroke-width="7" d="M0 0"/></g><g opacity="1" transform="matrix(1,0,0,1,0,0)"><path stroke-linecap="round" stroke-linejoin="miter" fill-opacity="0" stroke-miterlimit="4" stroke="rgb(206,213,226)" stroke-opacity="1" stroke-width="7" d=" M-25.5,4.25 C-25.5,4.25 -25.75,8.5 -43.5,19 C-64.01499938964844,31.135000228881836 -87.5,41.25 -101.5,55.75"/></g><g opacity="1" transform="matrix(1,0,0,1,0,0)"><path stroke-linecap="round" stroke-linejoin="miter" fill-opacity="0" stroke-miterlimit="4" stroke="rgb(206,213,226)" stroke-opacity="1" stroke-width="7" d=" M25.25,2.25 C27.5,12.25 46.73699951171875,20.66200065612793 65.25,29.75 C79,36.5 85.25,40.5 91,44.75"/></g><g opacity="0" transform="matrix(1,0,0,1,0,0)"><path stroke-linecap="round" stroke-linejoin="miter" fill-opacity="0" stroke-miterlimit="4" stroke="rgb(196,176,164)" stroke-opacity="1" stroke-width="7" d="M0 0"/></g><g opacity="0" transform="matrix(1,0,0,1,43.92399978637695,0)"><path stroke-linecap="round" stroke-linejoin="miter" fill-opacity="0" stroke-miterlimit="4" stroke="rgb(161,142,130)" stroke-opacity="1" stroke-width="7" d="M0 0"/></g></g><g clip-path="url(#__lottie_element_335)" style="display: block;" transform="matrix(0.9999923706054688,0,0,0.9999948740005493,0.001960527850314975,-12.998082160949707)" opacity="1"/><g clip-path="url(#__lottie_element_286)" style="display: block;" transform="matrix(-0.9999923706054688,0,0,0.9999948740005493,511.998046875,-12.998082160949707)" opacity="1"/></g></svg>