<svg xmlns="http://www.w3.org/2000/svg" xmlns:xlink="http://www.w3.org/1999/xlink" viewBox="0 0 512 512" width="512" height="512" style="width: 100%; height: 100%; transform: translate3d(0,0,0);" preserveAspectRatio="xMidYMid meet"><defs><clipPath id="__lottie_element_40346"><rect width="512" height="512" x="0" y="0"/></clipPath><radialGradient id="__lottie_element_40352" spreadMethod="pad" gradientUnits="userSpaceOnUse" cx="0.2750000059604645" cy="17.493000030517578" r="98.08483153167988" fx="-2.9483717499940356" fy="21.25397022872228"><stop offset="0%" stop-color="rgb(83,83,80)"/><stop offset="50%" stop-color="rgb(52,54,53)"/><stop offset="100%" stop-color="rgb(20,24,25)"/></radialGradient><linearGradient id="__lottie_element_40353" spreadMethod="pad" gradientUnits="userSpaceOnUse" x1="0.8460000157356262" y1="-82.03900146484375" x2="0.7979999780654907" y2="86.03900146484375"><stop offset="0%" stop-color="rgb(20,24,24)" stop-opacity="0"/><stop offset="50%" stop-color="rgb(44,52,54)" stop-opacity="0.5"/><stop offset="100%" stop-color="rgb(67,79,84)" stop-opacity="1"/></linearGradient><radialGradient id="__lottie_element_40356" spreadMethod="pad" gradientUnits="userSpaceOnUse" cx="2.2750000953674316" cy="32.49300003051758" r="55.186005516655534" fx="0.530992343183601" fy="34.66675510103012"><stop offset="0%" stop-color="rgb(35,35,35)"/><stop offset="50%" stop-color="rgb(46,51,53)"/><stop offset="100%" stop-color="rgb(58,67,71)"/></radialGradient><linearGradient id="__lottie_element_40357" spreadMethod="pad" gradientUnits="userSpaceOnUse" x1="0.4269999861717224" y1="4.730999946594238" x2="0.6520000100135803" y2="-32.992000579833984"><stop offset="0%" stop-color="rgb(0,0,0)" stop-opacity="0"/><stop offset="50%" stop-color="rgb(33,40,42)" stop-opacity="0.5"/><stop offset="100%" stop-color="rgb(67,79,84)" stop-opacity="1"/></linearGradient><radialGradient id="__lottie_element_40360" spreadMethod="pad" gradientUnits="userSpaceOnUse" cx="-5.27400016784668" cy="19.07200050354004" r="44.06667414971929" fx="-5.27400016784668" fy="19.07200050354004"><stop offset="56%" stop-color="rgb(238,238,238)"/><stop offset="78%" stop-color="rgb(169,172,171)"/><stop offset="100%" stop-color="rgb(100,105,104)"/></radialGradient><radialGradient id="__lottie_element_40361" spreadMethod="pad" gradientUnits="userSpaceOnUse" cx="-6.864999771118164" cy="24.759000778198242" r="52.696595170771936" fx="-6.864999771118164" fy="24.759000778198242"><stop offset="56%" stop-color="rgb(239,240,236)"/><stop offset="78%" stop-color="rgb(170,172,170)"/><stop offset="100%" stop-color="rgb(100,105,104)"/></radialGradient><linearGradient id="__lottie_element_40365" spreadMethod="pad" gradientUnits="userSpaceOnUse" x1="31.833999633789062" y1="3.9809999465942383" x2="4.311999797821045" y2="124.927001953125"><stop offset="0%" stop-color="rgb(244,0,0)"/><stop offset="50%" stop-color="rgb(173,0,0)"/><stop offset="100%" stop-color="rgb(102,0,0)"/></linearGradient><radialGradient id="__lottie_element_40366" spreadMethod="pad" gradientUnits="userSpaceOnUse" cx="64.28600311279297" cy="-18.013999938964844" r="144.4070131887395" fx="64.28600311279297" fy="-18.013999938964844"><stop offset="0%" stop-color="rgb(255,135,42)" stop-opacity="0.9490000009536743"/><stop offset="50%" stop-color="rgb(224,88,21)" stop-opacity="0.4749999940395355"/><stop offset="100%" stop-color="rgb(194,41,0)" stop-opacity="0"/></radialGradient><linearGradient id="__lottie_element_40367" spreadMethod="pad" gradientUnits="userSpaceOnUse" x1="8.338000297546387" y1="21.604000091552734" x2="4.635000228881836" y2="73.76899719238281"><stop offset="0%" stop-color="rgb(255,188,29)" stop-opacity="1"/><stop offset="50%" stop-color="rgb(255,111,22)" stop-opacity="0.5899999737739563"/><stop offset="100%" stop-color="rgb(255,33,16)" stop-opacity="0.18000000715255737"/></linearGradient><linearGradient id="__lottie_element_40368" spreadMethod="pad" gradientUnits="userSpaceOnUse" x1="-4.610000133514404" y1="-5.038000106811523" x2="59.57500076293945" y2="-88.5"><stop offset="0%" stop-color="rgb(255,157,26)" stop-opacity="0"/><stop offset="50%" stop-color="rgb(255,169,30)" stop-opacity="0.5"/><stop offset="100%" stop-color="rgb(255,180,34)" stop-opacity="1"/></linearGradient><linearGradient id="__lottie_element_40369" spreadMethod="pad" gradientUnits="userSpaceOnUse" x1="-28.086999893188477" y1="156.64999389648438" x2="42.3849983215332" y2="-66.6500015258789"><stop offset="0%" stop-color="rgb(241,169,72)" stop-opacity="0"/><stop offset="50%" stop-color="rgb(248,188,101)" stop-opacity="0.5"/><stop offset="100%" stop-color="rgb(255,207,131)" stop-opacity="1"/></linearGradient><linearGradient id="__lottie_element_40370" spreadMethod="pad" gradientUnits="userSpaceOnUse" x1="-34.13600158691406" y1="44.20800018310547" x2="47.233001708984375" y2="-32.20800018310547"><stop offset="0%" stop-color="rgb(255,108,0)" stop-opacity="0.15700000524520874"/><stop offset="50%" stop-color="rgb(255,151,24)" stop-opacity="0.31200000643730164"/><stop offset="100%" stop-color="rgb(255,194,49)" stop-opacity="0.46700000762939453"/></linearGradient><radialGradient id="__lottie_element_40371" spreadMethod="pad" gradientUnits="userSpaceOnUse" cx="-16.382999420166016" cy="12.850000381469727" r="46.31224681279832" fx="-16.382999420166016" fy="12.850000381469727"><stop offset="0%" stop-color="rgb(152,56,9)"/><stop offset="50%" stop-color="rgb(76,28,5)"/><stop offset="100%" stop-color="rgb(0,0,0)"/></radialGradient><linearGradient id="__lottie_element_40372" spreadMethod="pad" gradientUnits="userSpaceOnUse" x1="-9.869000434875488" y1="13.25" x2="14.317000389099121" y2="-14"><stop offset="0%" stop-color="rgb(70,45,45)"/><stop offset="50%" stop-color="rgb(35,22,22)"/><stop offset="100%" stop-color="rgb(0,0,0)"/></linearGradient><radialGradient id="__lottie_element_40373" spreadMethod="pad" gradientUnits="userSpaceOnUse" cx="10.97599983215332" cy="-3.6110000610351562" r="33.91858040876238" fx="10.97599983215332" fy="-3.6110000610351562"><stop offset="0%" stop-color="rgb(132,91,38)"/><stop offset="50%" stop-color="rgb(88,59,29)"/><stop offset="100%" stop-color="rgb(45,27,20)"/></radialGradient><linearGradient id="__lottie_element_40374" spreadMethod="pad" gradientUnits="userSpaceOnUse" x1="-7.296000003814697" y1="124.87999725341797" x2="2.0299999713897705" y2="-127.51499938964844"><stop offset="0%" stop-color="rgb(84,0,0)"/><stop offset="50%" stop-color="rgb(110,0,0)"/><stop offset="100%" stop-color="rgb(137,0,0)"/></linearGradient><radialGradient id="__lottie_element_40375" spreadMethod="pad" gradientUnits="userSpaceOnUse" cx="-13.64900016784668" cy="-1.6030000448226929" r="60.7276508008027" fx="-13.64900016784668" fy="-1.6030000448226929"><stop offset="0%" stop-color="rgb(252,255,173)" stop-opacity="0.44999998807907104"/><stop offset="50%" stop-color="rgb(253,255,214)" stop-opacity="0.22499999403953552"/><stop offset="100%" stop-color="rgb(255,255,255)" stop-opacity="0"/></radialGradient><linearGradient id="__lottie_element_40379" spreadMethod="pad" gradientUnits="userSpaceOnUse" x1="-36.95399856567383" y1="11.357999801635742" x2="9.527999877929688" y2="104.90399932861328"><stop offset="0%" stop-color="rgb(243,0,0)"/><stop offset="50%" stop-color="rgb(172,0,0)"/><stop offset="100%" stop-color="rgb(102,0,0)"/></linearGradient><radialGradient id="__lottie_element_40380" spreadMethod="pad" gradientUnits="userSpaceOnUse" cx="-54.80799865722656" cy="11.756999969482422" r="94.90938020065592" fx="-54.80799865722656" fy="11.756999969482422"><stop offset="0%" stop-color="rgb(255,135,42)" stop-opacity="1"/><stop offset="50%" stop-color="rgb(255,94,21)" stop-opacity="0.5"/><stop offset="100%" stop-color="rgb(255,54,0)" stop-opacity="0"/></radialGradient><radialGradient id="__lottie_element_40381" spreadMethod="pad" gradientUnits="userSpaceOnUse" cx="8.335000038146973" cy="10.538000106811523" r="34.622650497467305" fx="8.335000038146973" fy="10.538000106811523"><stop offset="0%" stop-color="rgb(255,255,255)" stop-opacity="1"/><stop offset="50%" stop-color="rgb(254,216,173)" stop-opacity="0.6200000047683716"/><stop offset="100%" stop-color="rgb(254,178,92)" stop-opacity="0.23999999463558197"/></radialGradient><linearGradient id="__lottie_element_40382" spreadMethod="pad" gradientUnits="userSpaceOnUse" x1="75.8239974975586" y1="-6.927000045776367" x2="-50.92499923706055" y2="-93.6500015258789"><stop offset="0%" stop-color="rgb(255,96,0)" stop-opacity="0"/><stop offset="50%" stop-color="rgb(255,142,14)" stop-opacity="0.5"/><stop offset="100%" stop-color="rgb(255,188,28)" stop-opacity="1"/></linearGradient><linearGradient id="__lottie_element_40383" spreadMethod="pad" gradientUnits="userSpaceOnUse" x1="-39.176998138427734" y1="117.26200103759766" x2="-57.236000061035156" y2="-131.8000030517578"><stop offset="0%" stop-color="rgb(241,169,72)" stop-opacity="0.17599999904632568"/><stop offset="50%" stop-color="rgb(248,198,101)" stop-opacity="0.5879999995231628"/><stop offset="100%" stop-color="rgb(255,226,131)" stop-opacity="1"/></linearGradient><linearGradient id="__lottie_element_40384" spreadMethod="pad" gradientUnits="userSpaceOnUse" x1="44.000999450683594" y1="30.507999420166016" x2="-34.029998779296875" y2="-45.90700149536133"><stop offset="0%" stop-color="rgb(255,108,0)" stop-opacity="0.15700000524520874"/><stop offset="50%" stop-color="rgb(255,151,24)" stop-opacity="0.31200000643730164"/><stop offset="100%" stop-color="rgb(255,194,49)" stop-opacity="0.46700000762939453"/></linearGradient><radialGradient id="__lottie_element_40385" spreadMethod="pad" gradientUnits="userSpaceOnUse" cx="11.746000289916992" cy="23.38800048828125" r="39.95271434030529" fx="11.746000289916992" fy="23.38800048828125"><stop offset="0%" stop-color="rgb(152,56,9)"/><stop offset="50%" stop-color="rgb(76,28,5)"/><stop offset="100%" stop-color="rgb(0,0,0)"/></radialGradient><linearGradient id="__lottie_element_40386" spreadMethod="pad" gradientUnits="userSpaceOnUse" x1="28.13599967956543" y1="12.75" x2="-20.045000076293945" y2="-19.75"><stop offset="0%" stop-color="rgb(70,45,45)"/><stop offset="50%" stop-color="rgb(35,22,22)"/><stop offset="100%" stop-color="rgb(0,0,0)"/></linearGradient><linearGradient id="__lottie_element_40387" spreadMethod="pad" gradientUnits="userSpaceOnUse" x1="0.20800000429153442" y1="4.5" x2="0.9229999780654907" y2="-18.864999771118164"><stop offset="0%" stop-color="rgb(124,77,26)"/><stop offset="50%" stop-color="rgb(62,39,13)"/><stop offset="100%" stop-color="rgb(0,0,0)"/></linearGradient><linearGradient id="__lottie_element_40388" spreadMethod="pad" gradientUnits="userSpaceOnUse" x1="-7.296000003814697" y1="124.87999725341797" x2="2.0299999713897705" y2="-127.51499938964844"><stop offset="0%" stop-color="rgb(84,0,0)"/><stop offset="50%" stop-color="rgb(110,0,0)"/><stop offset="100%" stop-color="rgb(137,0,0)"/></linearGradient><radialGradient id="__lottie_element_40389" spreadMethod="pad" gradientUnits="userSpaceOnUse" cx="5.598999977111816" cy="0.2590000033378601" r="103.28383574703048" fx="5.598999977111816" fy="0.2590000033378601"><stop offset="13%" stop-color="rgb(255,255,255)" stop-opacity="0.5569999814033508"/><stop offset="56%" stop-color="rgb(232,179,149)" stop-opacity="0.27799999713897705"/><stop offset="100%" stop-color="rgb(209,103,43)" stop-opacity="0"/></radialGradient><linearGradient id="__lottie_element_40393" spreadMethod="pad" gradientUnits="userSpaceOnUse" x1="-40.50199890136719" y1="160.406005859375" x2="68.55400085449219" y2="-47.40599822998047"><stop offset="0%" stop-color="rgb(255,249,231)"/><stop offset="50%" stop-color="rgb(194,181,165)"/><stop offset="100%" stop-color="rgb(133,112,100)"/></linearGradient><linearGradient id="__lottie_element_40394" spreadMethod="pad" gradientUnits="userSpaceOnUse" x1="-136.552001953125" y1="167.96499633789062" x2="2.1449999809265137" y2="-73.64900207519531"><stop offset="0%" stop-color="rgb(255,255,255)" stop-opacity="0.3499999940395355"/><stop offset="50%" stop-color="rgb(255,255,255)" stop-opacity="0.22499999403953552"/><stop offset="100%" stop-color="rgb(255,255,255)" stop-opacity="0.10000000149011612"/></linearGradient><linearGradient id="__lottie_element_40398" spreadMethod="pad" gradientUnits="userSpaceOnUse" x1="-40.50199890136719" y1="160.406005859375" x2="68.55400085449219" y2="-47.40599822998047"><stop offset="0%" stop-color="rgb(255,249,231)"/><stop offset="50%" stop-color="rgb(194,181,165)"/><stop offset="100%" stop-color="rgb(133,112,100)"/></linearGradient><linearGradient id="__lottie_element_40399" spreadMethod="pad" gradientUnits="userSpaceOnUse" x1="-20.731000900268555" y1="251.61599731445312" x2="-15.715999603271484" y2="-63.6619987487793"><stop offset="0%" stop-color="rgb(255,255,255)" stop-opacity="0.3499999940395355"/><stop offset="50%" stop-color="rgb(255,255,255)" stop-opacity="0.20000000298023224"/><stop offset="100%" stop-color="rgb(255,255,255)" stop-opacity="0.05000000074505806"/></linearGradient><linearGradient id="__lottie_element_40403" spreadMethod="pad" gradientUnits="userSpaceOnUse" x1="-11.406000137329102" y1="-9.609999656677246" x2="-4.86299991607666" y2="17.589000701904297"><stop offset="0%" stop-color="rgb(30,30,30)"/><stop offset="50%" stop-color="rgb(73,73,73)"/><stop offset="100%" stop-color="rgb(116,116,116)"/></linearGradient><linearGradient id="__lottie_element_40404" spreadMethod="pad" gradientUnits="userSpaceOnUse" x1="-5.823999881744385" y1="-0.8289999961853027" x2="-1.1380000114440918" y2="-6.900000095367432"><stop offset="0%" stop-color="rgb(39,39,39)"/><stop offset="50%" stop-color="rgb(78,78,78)"/><stop offset="100%" stop-color="rgb(116,116,116)"/></linearGradient><linearGradient id="__lottie_element_40408" spreadMethod="pad" gradientUnits="userSpaceOnUse" x1="-9.699999809265137" y1="-8.692999839782715" x2="11.949999809265137" y2="9.057000160217285"><stop offset="0%" stop-color="rgb(39,39,39)"/><stop offset="50%" stop-color="rgb(78,78,78)"/><stop offset="100%" stop-color="rgb(116,116,116)"/></linearGradient><linearGradient id="__lottie_element_40409" spreadMethod="pad" gradientUnits="userSpaceOnUse" x1="-8.550000190734863" y1="4.406000137329102" x2="10.375" y2="-2.8389999866485596"><stop offset="0%" stop-color="rgb(39,39,39)"/><stop offset="50%" stop-color="rgb(78,78,78)"/><stop offset="100%" stop-color="rgb(116,116,116)"/></linearGradient><linearGradient id="__lottie_element_40410" spreadMethod="pad" gradientUnits="userSpaceOnUse" x1="6.474999904632568" y1="3.0980000495910645" x2="-4.675000190734863" y2="-1.4019999504089355"><stop offset="0%" stop-color="rgb(39,39,39)"/><stop offset="50%" stop-color="rgb(78,78,78)"/><stop offset="100%" stop-color="rgb(116,116,116)"/></linearGradient><linearGradient id="__lottie_element_40414" spreadMethod="pad" gradientUnits="userSpaceOnUse" x1="2.371000051498413" y1="-0.5270000100135803" x2="12.003999710083008" y2="-2.371000051498413"><stop offset="0%" stop-color="rgb(0,0,0)"/><stop offset="50%" stop-color="rgb(22,20,20)"/><stop offset="100%" stop-color="rgb(44,39,39)"/></linearGradient><linearGradient id="__lottie_element_40415" spreadMethod="pad" gradientUnits="userSpaceOnUse" x1="0.7089999914169312" y1="-10.317999839782715" x2="9.833999633789062" y2="15.756999969482422"><stop offset="0%" stop-color="rgb(39,39,39)"/><stop offset="50%" stop-color="rgb(78,78,78)"/><stop offset="100%" stop-color="rgb(116,116,116)"/></linearGradient><linearGradient id="__lottie_element_40416" spreadMethod="pad" gradientUnits="userSpaceOnUse" x1="-7.425000190734863" y1="-2.4179999828338623" x2="14.800000190734863" y2="5.9070000648498535"><stop offset="0%" stop-color="rgb(39,39,39)"/><stop offset="50%" stop-color="rgb(78,78,78)"/><stop offset="100%" stop-color="rgb(116,116,116)"/></linearGradient><linearGradient id="__lottie_element_40420" spreadMethod="pad" gradientUnits="userSpaceOnUse" x1="2.634999990463257" y1="-0.2630000114440918" x2="6.735000133514404" y2="-7.11299991607666"><stop offset="0%" stop-color="rgb(0,0,0)"/><stop offset="50%" stop-color="rgb(22,20,20)"/><stop offset="100%" stop-color="rgb(44,39,39)"/></linearGradient><linearGradient id="__lottie_element_40421" spreadMethod="pad" gradientUnits="userSpaceOnUse" x1="-11.406000137329102" y1="-9.609999656677246" x2="-4.86299991607666" y2="17.589000701904297"><stop offset="0%" stop-color="rgb(30,30,30)"/><stop offset="50%" stop-color="rgb(73,73,73)"/><stop offset="100%" stop-color="rgb(116,116,116)"/></linearGradient><linearGradient id="__lottie_element_40422" spreadMethod="pad" gradientUnits="userSpaceOnUse" x1="33.167999267578125" y1="24.989999771118164" x2="-47.50699996948242" y2="-43.78499984741211"><stop offset="0%" stop-color="rgb(39,39,39)"/><stop offset="50%" stop-color="rgb(78,78,78)"/><stop offset="100%" stop-color="rgb(116,116,116)"/></linearGradient><linearGradient id="__lottie_element_40426" spreadMethod="pad" gradientUnits="userSpaceOnUse" x1="-9.699999809265137" y1="-8.692999839782715" x2="11.949999809265137" y2="9.057000160217285"><stop offset="0%" stop-color="rgb(39,39,39)"/><stop offset="50%" stop-color="rgb(78,78,78)"/><stop offset="100%" stop-color="rgb(116,116,116)"/></linearGradient><linearGradient id="__lottie_element_40427" spreadMethod="pad" gradientUnits="userSpaceOnUse" x1="-8.550000190734863" y1="4.406000137329102" x2="10.375" y2="-2.8389999866485596"><stop offset="0%" stop-color="rgb(39,39,39)"/><stop offset="50%" stop-color="rgb(78,78,78)"/><stop offset="100%" stop-color="rgb(116,116,116)"/></linearGradient><linearGradient id="__lottie_element_40428" spreadMethod="pad" gradientUnits="userSpaceOnUse" x1="6.474999904632568" y1="3.0980000495910645" x2="-4.675000190734863" y2="-1.4019999504089355"><stop offset="0%" stop-color="rgb(39,39,39)"/><stop offset="50%" stop-color="rgb(78,78,78)"/><stop offset="100%" stop-color="rgb(116,116,116)"/></linearGradient><linearGradient id="__lottie_element_40432" spreadMethod="pad" gradientUnits="userSpaceOnUse" x1="0.7089999914169312" y1="-10.317999839782715" x2="9.833999633789062" y2="15.756999969482422"><stop offset="0%" stop-color="rgb(39,39,39)"/><stop offset="50%" stop-color="rgb(78,78,78)"/><stop offset="100%" stop-color="rgb(116,116,116)"/></linearGradient><linearGradient id="__lottie_element_40433" spreadMethod="pad" gradientUnits="userSpaceOnUse" x1="-7.425000190734863" y1="-2.4179999828338623" x2="14.800000190734863" y2="5.9070000648498535"><stop offset="0%" stop-color="rgb(39,39,39)"/><stop offset="50%" stop-color="rgb(78,78,78)"/><stop offset="100%" stop-color="rgb(116,116,116)"/></linearGradient><linearGradient id="__lottie_element_40440" spreadMethod="pad" gradientUnits="userSpaceOnUse" x1="3.687999963760376" y1="-13.218999862670898" x2="3.309999942779541" y2="3.375"><stop offset="0%" stop-color="rgb(55,55,55)"/><stop offset="50%" stop-color="rgb(28,28,28)"/><stop offset="100%" stop-color="rgb(0,0,0)"/></linearGradient><linearGradient id="__lottie_element_40444" spreadMethod="pad" gradientUnits="userSpaceOnUse" x1="3.687999963760376" y1="-13.218999862670898" x2="3.309999942779541" y2="3.375"><stop offset="0%" stop-color="rgb(55,55,55)"/><stop offset="50%" stop-color="rgb(28,28,28)"/><stop offset="100%" stop-color="rgb(0,0,0)"/></linearGradient></defs><g clip-path="url(#__lottie_element_40346)"><g style="display: block;" transform="matrix(0.9489122033119202,0,0,0.8888718485832214,9.898076057434082,12.171902656555176)" opacity="1"><g opacity="1" transform="matrix(-1.0316499471664429,0,0,1,237.64100646972656,68.06400299072266)"><path fill="url(#__lottie_element_40444)" fill-opacity="1" d=" M-7.834000110626221,17.149999618530273 C-4.076000213623047,20.85300064086914 6.434999942779541,11.199999809265137 8.583999633789062,-0.75 C9.9350004196167,-7.800000190734863 11.043000221252441,-17.143999099731445 3.7929999828338623,-18.243999481201172 C-3.9570000171661377,-16.643999099731445 0.32600000500679016,-7.584000110626221 0.5180000066757202,-1.3839999437332153 C0.9290000200271606,11.852999687194824 -7.690999984741211,16.881999969482422 -7.834000110626221,17.149999618530273z"/></g></g><g style="display: block;" transform="matrix(0.9489122033119202,0,0,0.8888718485832214,12.74481201171875,12.171902656555176)" opacity="1"><g opacity="1" transform="matrix(1,0,0,1,0,0)"><g opacity="1" transform="matrix(1,0,0,1,285.9840087890625,69.80000305175781)"><g opacity="1" transform="matrix(1,0,0,1,-3.1619999408721924,-2.25)"><path fill="url(#__lottie_element_40440)" fill-opacity="1" d=" M-7.834000110626221,17.149999618530273 C-4.076000213623047,20.85300064086914 6.434999942779541,11.199999809265137 8.583999633789062,-0.75 C9.9350004196167,-7.800000190734863 11.043000221252441,-17.143999099731445 3.7929999828338623,-18.243999481201172 C-3.9570000171661377,-16.643999099731445 0.32600000500679016,-7.584000110626221 0.5180000066757202,-1.3839999437332153 C0.9290000200271606,11.852999687194824 -7.690999984741211,16.881999969482422 -7.834000110626221,17.149999618530273z"/></g></g></g></g><g style="display: block;" transform="matrix(0.9489122033119202,0,0,0.8888718485832214,12.74481201171875,12.171902656555176)" opacity="1"><g opacity="1" transform="matrix(1,0,0,1,0,0)"><g opacity="1" transform="matrix(1,0,0,1,258.29998779296875,100)"><g opacity="1" transform="matrix(1,0,0,1,0,0)"><path fill="rgb(26,29,30)" fill-opacity="1" d=" M33.849998474121094,0 C31.19099998474121,-24.639999389648438 -31.19700050354004,-24.69300079345703 -33.849998474121094,-0.0010000000474974513 C-31.20400047302246,24.687000274658203 31.183000564575195,24.645999908447266 33.849998474121094,0z"/><path stroke-linecap="round" stroke-linejoin="round" fill-opacity="0" stroke="rgb(0,0,0)" stroke-opacity="1" stroke-width="8" d=" M33.849998474121094,0 C31.19099998474121,-24.639999389648438 -31.19700050354004,-24.69300079345703 -33.849998474121094,-0.0010000000474974513 C-31.20400047302246,24.687000274658203 31.183000564575195,24.645999908447266 33.849998474121094,0z"/></g></g></g></g><g style="display: block;" transform="matrix(0.9489122033119202,0,0,0.948906660079956,12.635307312011719,17.970703125)" opacity="1"><g opacity="1" transform="matrix(1,0,0,1,0,0)"><g opacity="1" transform="matrix(1,0,0,1,411.3190002441406,390.9049987792969)"><g opacity="1" transform="matrix(1,0,0,1,0,0)"><path fill="rgb(30,27,27)" fill-opacity="1" d=" M2.88100004196167,39.244998931884766 C3.1029999256134033,42.28099822998047 9.782999992370605,49.236000061035156 9.406000137329102,53.27000045776367 C9.196999549865723,56.56100082397461 5.244999885559082,61.5 6.031000137329102,64.91999816894531 C10.633000373840332,72.37100219726562 23.1200008392334,55.80699920654297 21.856000900268555,51.47100067138672 C21.180999755859375,47.970001220703125 15.180999755859375,43.52000045776367 4.38100004196167,38.619998931884766 M-16.569000244140625,-66.25499725341797 C-16.768999099731445,-66.38800048828125 -16.986000061035156,-66.52200317382812 -17.2189998626709,-66.65499877929688 C-28.79599952697754,-52.755001068115234 -9.63700008392334,-51.888999938964844 -2.5179998874664307,-47.805999755859375 C-5.730000019073486,-30.336000442504883 -9.265000343322754,5.105999946594238 -6.818999767303467,22.344999313354492 C-5.802000045776367,30.823999404907227 0.3059999942779541,37.595001220703125 4.330999851226807,42.19499969482422 C8.180999755859375,43.470001220703125 3.930999994277954,36.845001220703125 3.430999994277954,34.994998931884766 C24.341999053955078,22.56399917602539 2.0889999866485596,23.650999069213867 4.631999969482422,-16.354999542236328 C2.9749999046325684,-57.242000579833984 27.68000030517578,-49.62900161743164 -16.569000244140625,-66.25499725341797z"/><path stroke-linecap="round" stroke-linejoin="round" fill-opacity="0" stroke="rgb(0,0,0)" stroke-opacity="1" stroke-width="8" d=" M2.88100004196167,39.244998931884766 C3.1029999256134033,42.28099822998047 9.782999992370605,49.236000061035156 9.406000137329102,53.27000045776367 C9.196999549865723,56.56100082397461 5.244999885559082,61.5 6.031000137329102,64.91999816894531 C10.633000373840332,72.37100219726562 23.1200008392334,55.80699920654297 21.856000900268555,51.47100067138672 C21.180999755859375,47.970001220703125 15.180999755859375,43.52000045776367 4.38100004196167,38.619998931884766 M-16.569000244140625,-66.25499725341797 C-16.768999099731445,-66.38800048828125 -16.986000061035156,-66.52200317382812 -17.2189998626709,-66.65499877929688 C-28.79599952697754,-52.755001068115234 -9.63700008392334,-51.888999938964844 -2.5179998874664307,-47.805999755859375 C-5.730000019073486,-30.336000442504883 -9.265000343322754,5.105999946594238 -6.818999767303467,22.344999313354492 C-5.802000045776367,30.823999404907227 0.3059999942779541,37.595001220703125 4.330999851226807,42.19499969482422 C8.180999755859375,43.470001220703125 3.930999994277954,36.845001220703125 3.430999994277954,34.994998931884766 C24.341999053955078,22.56399917602539 2.0889999866485596,23.650999069213867 4.631999969482422,-16.354999542236328 C2.9749999046325684,-57.242000579833984 27.68000030517578,-49.62900161743164 -16.569000244140625,-66.25499725341797z"/></g></g></g><g opacity="1" transform="matrix(1,0,0,1,0,0)"><g opacity="1" transform="matrix(1,0,0,1,415.0840148925781,404.4320068359375)"><g opacity="1" transform="matrix(1,0,0,1,0,0)"><path fill="url(#__lottie_element_40432)" fill-opacity="1" d=" M-4.658999919891357,8.293000221252441 C-5.7230000495910645,2.005000114440918 -5.584000110626221,-9.182000160217285 -4.209000110626221,-17.381999969482422 C-3.7090001106262207,-0.4320000112056732 2.9159998893737793,5.317999839782715 2.3410000801086426,8.968000411987305 C3.0409998893737793,12.692999839782715 -3.5950000286102295,14.57800006866455 -4.658999919891357,8.293000221252441z"/></g></g></g><g opacity="1" transform="matrix(1,0,0,1,0,0)"><g opacity="1" transform="matrix(1,0,0,1,405.95001220703125,333.4570007324219)"><g opacity="1" transform="matrix(1,0,0,1,0,0)"><path fill="url(#__lottie_element_40433)" fill-opacity="1" d=" M9.975000381469727,5.067999839782715 C9.975000381469727,5.067999839782715 10.050000190734863,10.418000221252441 -8.649999618530273,-4.081999778747559 C-1.4500000476837158,-0.0820000022649765 10.175000190734863,2.1679999828338623 9.975000381469727,5.067999839782715z"/></g></g></g><g opacity="1" transform="matrix(1,0,0,1,0,0)"><path stroke-linecap="butt" stroke-linejoin="miter" fill-opacity="0" stroke-miterlimit="4" stroke="rgb(37,43,43)" stroke-opacity="1" stroke-width="8.25" d=" M414.0299987792969,427.6650085449219 C420.010009765625,421.2560119628906 425.82598876953125,418.781005859375 423.7760009765625,413.17999267578125 C402.6210021972656,355.3919982910156 423.7340087890625,347.6990051269531 420.614013671875,339.4110107421875 C417.9020080566406,332.2070007324219 394.26800537109375,324.9209899902344 394.26800537109375,324.9209899902344"/></g></g><g style="display: block;" transform="matrix(0.9489122033119202,0,0,0.948906660079956,18.124961853027344,10.430068016052246)" opacity="1"><g opacity="1" transform="matrix(1,0,0,1,0,0)"><g opacity="1" transform="matrix(1,0,0,1,418.9410095214844,232.7530059814453)"><g opacity="1" transform="matrix(1,0,0,1,0,0)"><path stroke-linecap="round" stroke-linejoin="round" fill-opacity="0" stroke="rgb(0,0,0)" stroke-opacity="1" stroke-width="8.25" d=" M28.80900001525879,13.597000122070312 C26.558000564575195,3.9600000381469727 12.619000434875488,1.7170000076293945 6.959000110626221,-3.1530001163482666 C-0.7789999842643738,-7.361000061035156 -12.220000267028809,-28.750999450683594 -18.540000915527344,-36.70399856567383 C-22.577999114990234,-33.78900146484375 -35.60599899291992,-23.719999313354492 -49.441001892089844,-19.55299949645996 C-46.73500061035156,-12.211000442504883 -34.79800033569336,-17.207000732421875 -28.392000198364258,-20.70199966430664 C-23.125,-23.770000457763672 -19.69099998474121,-24.253000259399414 -16.891000747680664,-18.60300064086914 C-14.812000274658203,-14.409000396728516 -10.508000373840332,-6.986000061035156 0.5590000152587891,3.8469998836517334 C11.659000396728516,14.647000312805176 17.80900001525879,19.797000885009766 19.009000778198242,19.797000885009766 C25.68400001525879,16.371999740600586 26.55900001525879,23.746999740600586 32.48400115966797,24.347999572753906 C40.558998107910156,22.871999740600586 37.183998107910156,33.12200164794922 40.90800094604492,34.847999572753906 C53.183998107910156,42.99700164794922 49.183998107910156,11.121999740600586 37.80799865722656,14.123000144958496 C32.058998107910156,16.121999740600586 30.424999237060547,15.85200023651123 28.80900001525879,13.597000122070312z"/><path fill="rgb(23,21,20)" fill-opacity="1" d=" M28.80900001525879,13.597000122070312 C26.558000564575195,3.9600000381469727 12.619000434875488,1.7170000076293945 6.959000110626221,-3.1530001163482666 C-0.7789999842643738,-7.361000061035156 -12.220000267028809,-28.750999450683594 -18.540000915527344,-36.70399856567383 C-22.577999114990234,-33.78900146484375 -35.60599899291992,-23.719999313354492 -49.441001892089844,-19.55299949645996 C-46.73500061035156,-12.211000442504883 -34.79800033569336,-17.207000732421875 -28.392000198364258,-20.70199966430664 C-23.125,-23.770000457763672 -19.69099998474121,-24.253000259399414 -16.891000747680664,-18.60300064086914 C-14.812000274658203,-14.409000396728516 -10.508000373840332,-6.986000061035156 0.5590000152587891,3.8469998836517334 C11.659000396728516,14.647000312805176 17.80900001525879,19.797000885009766 19.009000778198242,19.797000885009766 C25.68400001525879,16.371999740600586 26.55900001525879,23.746999740600586 32.48400115966797,24.347999572753906 C40.558998107910156,22.871999740600586 37.183998107910156,33.12200164794922 40.90800094604492,34.847999572753906 C53.183998107910156,42.99700164794922 49.183998107910156,11.121999740600586 37.80799865722656,14.123000144958496 C32.058998107910156,16.121999740600586 30.424999237060547,15.85200023651123 28.80900001525879,13.597000122070312z"/></g></g></g><g opacity="1" transform="matrix(1,0,0,1,0,0)"><g opacity="1" transform="matrix(1,0,0,1,432.04998779296875,239.3070068359375)"><g opacity="1" transform="matrix(1,0,0,1,0,0)"><path fill="url(#__lottie_element_40426)" fill-opacity="1" d=" M11.050000190734863,5.3429999351501465 C10.449999809265137,14.192999839782715 -5.285999774932861,-2.2720000743865967 -10.175000190734863,-7.631999969482422 C-7.690999984741211,-5.61899995803833 9.78499984741211,0.8619999885559082 11.050000190734863,5.3429999351501465z"/></g></g></g><g opacity="1" transform="matrix(1,0,0,1,0,0)"><g opacity="1" transform="matrix(1,0,0,1,392.70001220703125,205.406005859375)"><g opacity="1" transform="matrix(1,0,0,1,0,0)"><path fill="url(#__lottie_element_40427)" fill-opacity="1" d=" M7.150000095367432,-5.105999946594238 C7.150000095367432,-5.105999946594238 11.300000190734863,-1.906000018119812 -1.7000000476837158,3.0439999103546143 C-7.776000022888184,5.35699987411499 -8.149999618530273,4.894000053405762 -8.149999618530273,4.894000053405762 C-8.149999618530273,4.894000053405762 3.049999952316284,-3.9059998989105225 7.150000095367432,-5.105999946594238z"/></g></g></g><g opacity="1" transform="matrix(1,0,0,1,0,0)"><g opacity="1" transform="matrix(1,0,0,1,457.7250061035156,253.84800720214844)"><g opacity="1" transform="matrix(1,0,0,1,0,0)"><path fill="url(#__lottie_element_40428)" fill-opacity="1" d=" M1.225000023841858,-3.9230000972747803 C4.025000095367432,-2.9560000896453857 6.525000095367432,1.5269999504089355 5,5.0269999504089355 C4.632999897003174,5.126999855041504 5.041999816894531,4.468999862670898 4.974999904632568,4.802000045776367 C4.388999938964844,0.4309999942779541 0.8560000061988831,-1.6030000448226929 -5.625,-1.2979999780654907 C-3.3580000400543213,-4.264999866485596 -1.0750000476837158,-4.7230000495910645 1.225000023841858,-3.9230000972747803z"/></g></g></g><g opacity="1" transform="matrix(1,0,0,1,0,0)"><path stroke-linecap="butt" stroke-linejoin="miter" fill-opacity="0" stroke-miterlimit="4" stroke="rgb(37,43,43)" stroke-opacity="1" stroke-width="8.25" d=" M448.8070068359375,246.9320068359375 C445.64300537109375,236.66200256347656 428.73699951171875,231.69400024414062 424.3030090332031,227.70399475097656 C405.8609924316406,211.1060028076172 403.489013671875,189.5019989013672 399.010009765625,197.14199829101562 C389.760009765625,212.9219970703125 368.97601318359375,212.16000366210938 368.97601318359375,212.16000366210938"/></g></g><g style="display: block;" transform="matrix(-0.9489122033119202,0,0,0.948906660079956,502.2665710449219,0.6857419610023499)" opacity="1"><g opacity="1" transform="matrix(1,0,0,1,0,0)"><g opacity="1" transform="matrix(1,0,0,1,117.66500091552734,109.43099975585938)"><g opacity="1" transform="matrix(1,0,0,1,0,0)"><path fill="rgb(18,14,13)" fill-opacity="1" d=" M50.53499984741211,38.66899871826172 C58.1349983215332,38.236000061035156 60.71799850463867,34.26900100708008 58.28499984741211,26.768999099731445 C51.053001403808594,20.099000930786133 34.0359992980957,34.027000427246094 29.834999084472656,21.618999481201172 C21.10099983215332,8.185999870300293 9.335000038146973,-7.714000225067139 -9.96500015258789,-23.58099937438965 C-14.164999961853027,-28.305999755859375 -20.24799919128418,-30.7810001373291 -24.014999389648438,-25.881000518798828 C-29.170000076293945,-25.764999389648438 -27.415000915527344,-30.18000030517578 -32.939998626708984,-31.506000518798828 C-36.415000915527344,-33.43000030517578 -43.82500076293945,-30.34000015258789 -45.59000015258789,-34.38100051879883 C-48.29800033569336,-37.856998443603516 -49.71500015258789,-47.50699996948242 -55.939998626708984,-47.58000183105469 C-63.49399948120117,-47.93600082397461 -61.540000915527344,-36.805999755859375 -60.24100112915039,-31.631000518798828 C-57.165000915527344,-21.805999755859375 -55.52899932861328,-19.499000549316406 -48.01499938964844,-19.881000518798828 C-42.097999572753906,-20.24799919128418 -23.45599937438965,-26.006000518798828 -32.03900146484375,-14.928999900817871 C-43.104000091552734,-3.693000078201294 -9.045999526977539,-16.454999923706055 18.482999801635742,26.121000289916992 C35.11600112915039,57.76499938964844 20.94300079345703,41.44499969482422 50.53499984741211,38.66899871826172z"/><path stroke="url(#__lottie_element_40420)" stroke-linecap="round" stroke-linejoin="round" fill-opacity="0" stroke-opacity="1" stroke-width="8.25" d=" M50.53499984741211,38.66899871826172 C58.1349983215332,38.236000061035156 60.71799850463867,34.26900100708008 58.28499984741211,26.768999099731445 C51.053001403808594,20.099000930786133 34.0359992980957,34.027000427246094 29.834999084472656,21.618999481201172 C21.10099983215332,8.185999870300293 9.335000038146973,-7.714000225067139 -9.96500015258789,-23.58099937438965 C-14.164999961853027,-28.305999755859375 -20.24799919128418,-30.7810001373291 -24.014999389648438,-25.881000518798828 C-29.170000076293945,-25.764999389648438 -27.415000915527344,-30.18000030517578 -32.939998626708984,-31.506000518798828 C-36.415000915527344,-33.43000030517578 -43.82500076293945,-30.34000015258789 -45.59000015258789,-34.38100051879883 C-48.29800033569336,-37.856998443603516 -49.71500015258789,-47.50699996948242 -55.939998626708984,-47.58000183105469 C-63.49399948120117,-47.93600082397461 -61.540000915527344,-36.805999755859375 -60.24100112915039,-31.631000518798828 C-57.165000915527344,-21.805999755859375 -55.52899932861328,-19.499000549316406 -48.01499938964844,-19.881000518798828 C-42.097999572753906,-20.24799919128418 -23.45599937438965,-26.006000518798828 -32.03900146484375,-14.928999900817871 C-43.104000091552734,-3.693000078201294 -9.045999526977539,-16.454999923706055 18.482999801635742,26.121000289916992 C35.11600112915039,57.76499938964844 20.94300079345703,41.44499969482422 50.53499984741211,38.66899871826172z"/></g></g></g><g opacity="1" transform="matrix(1,0,0,1,0,0)"><g opacity="1" transform="matrix(1,0,0,1,117.66500091552734,109.43099975585938)"><g opacity="1" transform="matrix(1,0,0,1,0,0)"><path stroke-linecap="butt" stroke-linejoin="miter" fill-opacity="0" stroke-miterlimit="4" stroke="rgb(37,43,43)" stroke-opacity="1" stroke-width="8.25" d=" M-24.88800048828125,-24.947999954223633 C-24.361000061035156,-24.42099952697754 -21.045000076293945,-48.19900131225586 31.756000518798828,24.055999755859375 C36.762001037597656,30.9060001373291 53.09600067138672,21.158000946044922 57.57500076293945,26.163999557495117"/></g></g></g><g opacity="1" transform="matrix(1,0,0,1,0,0)"><g opacity="1" transform="matrix(0.9738699793815613,0,0,1.0294500589370728,75.27200317382812,75.26200103759766)"><path fill="url(#__lottie_element_40421)" fill-opacity="1" d=" M5.165999889373779,5.015999794006348 C-10.803999900817871,8.487000465393066 -7.4670000076293945,-7.054999828338623 -11.85099983215332,-8.07800006866455 C-15.425000190734863,-7.296999931335449 -12.47599983215332,0.9850000143051147 -12.472999572753906,2.687000036239624 C-8.204999923706055,15.774999618530273 6.6519999504089355,3.872999906539917 13.050999641418457,8.873000144958496 C9.956999778747559,6.335000038146973 8.86299991607666,5.105000019073486 5.165999889373779,5.015999794006348z"/></g></g><g opacity="1" transform="matrix(1,0,0,1,0,0)"><g opacity="1" transform="matrix(1,0,0,1,130.83200073242188,115.48999786376953)"><g opacity="1" transform="matrix(1,0,0,1,0,0)"><path fill="url(#__lottie_element_40422)" fill-opacity="1" d=" M33.417999267578125,23.40999984741211 C14.668000221252441,30.510000228881836 15.354000091552734,20.708999633789062 4.968999862670898,7.058000087738037 C-3.697999954223633,-4.255000114440918 -12.27299976348877,-12.010000228881836 -23.881999969482422,-23.240999221801758 C-30.743000030517578,-29.75 -33.457000732421875,-29.114999771118164 -36.481998443603516,-25.290000915527344 C-39.207000732421875,-22.489999771118164 -36.582000732421875,-20.364999771118164 -31.957000732421875,-18.59000015258789 C-13.831999778747559,-9.864999771118164 -5,-0.6100000143051147 6.01800012588501,12.458999633789062 C14.168000221252441,21.759000778198242 17.417999267578125,33.50899887084961 22.517000198364258,30.059999465942383 C31.167999267578125,27.759000778198242 40.167999267578125,29.260000228881836 41.768001556396484,26.959999084472656 C43.917999267578125,24.760000228881836 41.667999267578125,20.760000228881836 33.417999267578125,23.40999984741211z"/></g></g></g></g><g style="display: block;" transform="matrix(-0.9489122033119202,0,0,0.948906660079956,504.55126953125,18.766260147094727)" opacity="1"><g opacity="1" transform="matrix(1,0,0,1,0,0)"><g opacity="1" transform="matrix(1,0,0,1,411.3190002441406,390.9049987792969)"><g opacity="1" transform="matrix(1,0,0,1,0,0)"><path fill="rgb(30,27,27)" fill-opacity="1" d=" M2.88100004196167,39.244998931884766 C3.1029999256134033,42.28099822998047 9.782999992370605,49.236000061035156 9.406000137329102,53.27000045776367 C9.196999549865723,56.56100082397461 5.244999885559082,61.5 6.031000137329102,64.91999816894531 C10.633000373840332,72.37100219726562 23.1200008392334,55.80699920654297 21.856000900268555,51.47100067138672 C21.180999755859375,47.970001220703125 15.180999755859375,43.52000045776367 4.38100004196167,38.619998931884766 M-16.569000244140625,-66.25499725341797 C-16.768999099731445,-66.38800048828125 -16.986000061035156,-66.52200317382812 -17.2189998626709,-66.65499877929688 C-28.79599952697754,-52.755001068115234 -9.63700008392334,-51.888999938964844 -2.5179998874664307,-47.805999755859375 C-5.730000019073486,-30.336000442504883 -9.265000343322754,5.105999946594238 -6.818999767303467,22.344999313354492 C-5.802000045776367,30.823999404907227 0.3059999942779541,37.595001220703125 4.330999851226807,42.19499969482422 C8.180999755859375,43.470001220703125 3.930999994277954,36.845001220703125 3.430999994277954,34.994998931884766 C24.341999053955078,22.56399917602539 2.0889999866485596,23.650999069213867 4.631999969482422,-16.354999542236328 C2.9749999046325684,-57.242000579833984 27.68000030517578,-49.62900161743164 -16.569000244140625,-66.25499725341797z"/><path stroke="url(#__lottie_element_40414)" stroke-linecap="round" stroke-linejoin="round" fill-opacity="0" stroke-opacity="1" stroke-width="8.25" d=" M2.88100004196167,39.244998931884766 C3.1029999256134033,42.28099822998047 9.782999992370605,49.236000061035156 9.406000137329102,53.27000045776367 C9.196999549865723,56.56100082397461 5.244999885559082,61.5 6.031000137329102,64.91999816894531 C10.633000373840332,72.37100219726562 23.1200008392334,55.80699920654297 21.856000900268555,51.47100067138672 C21.180999755859375,47.970001220703125 15.180999755859375,43.52000045776367 4.38100004196167,38.619998931884766 M-16.569000244140625,-66.25499725341797 C-16.768999099731445,-66.38800048828125 -16.986000061035156,-66.52200317382812 -17.2189998626709,-66.65499877929688 C-28.79599952697754,-52.755001068115234 -9.63700008392334,-51.888999938964844 -2.5179998874664307,-47.805999755859375 C-5.730000019073486,-30.336000442504883 -9.265000343322754,5.105999946594238 -6.818999767303467,22.344999313354492 C-5.802000045776367,30.823999404907227 0.3059999942779541,37.595001220703125 4.330999851226807,42.19499969482422 C8.180999755859375,43.470001220703125 3.930999994277954,36.845001220703125 3.430999994277954,34.994998931884766 C24.341999053955078,22.56399917602539 2.0889999866485596,23.650999069213867 4.631999969482422,-16.354999542236328 C2.9749999046325684,-57.242000579833984 27.68000030517578,-49.62900161743164 -16.569000244140625,-66.25499725341797z"/></g></g></g><g opacity="1" transform="matrix(1,0,0,1,0,0)"><g opacity="1" transform="matrix(1,0,0,1,415.0840148925781,404.4320068359375)"><g opacity="1" transform="matrix(1,0,0,1,0,0)"><path fill="url(#__lottie_element_40415)" fill-opacity="1" d=" M-4.658999919891357,8.293000221252441 C-5.7230000495910645,2.005000114440918 -5.584000110626221,-9.182000160217285 -4.209000110626221,-17.381999969482422 C-3.7090001106262207,-0.4320000112056732 2.9159998893737793,5.317999839782715 2.3410000801086426,8.968000411987305 C3.0409998893737793,12.692999839782715 -3.5950000286102295,14.57800006866455 -4.658999919891357,8.293000221252441z"/></g></g></g><g opacity="1" transform="matrix(1,0,0,1,0,0)"><g opacity="1" transform="matrix(1,0,0,1,405.95001220703125,333.4570007324219)"><g opacity="1" transform="matrix(1,0,0,1,0,0)"><path fill="url(#__lottie_element_40416)" fill-opacity="1" d=" M9.975000381469727,5.067999839782715 C9.975000381469727,5.067999839782715 10.050000190734863,10.418000221252441 -8.649999618530273,-4.081999778747559 C-1.4500000476837158,-0.0820000022649765 10.175000190734863,2.1679999828338623 9.975000381469727,5.067999839782715z"/></g></g></g><g opacity="1" transform="matrix(1,0,0,1,0,0)"><path stroke-linecap="butt" stroke-linejoin="miter" fill-opacity="0" stroke-miterlimit="4" stroke="rgb(37,43,43)" stroke-opacity="1" stroke-width="8.25" d=" M414.0299987792969,427.6650085449219 C420.010009765625,421.2560119628906 425.82598876953125,418.781005859375 423.7760009765625,413.17999267578125 C402.6210021972656,355.3919982910156 423.7340087890625,347.6990051269531 420.614013671875,339.4110107421875 C417.9020080566406,332.2070007324219 394.26800537109375,324.9209899902344 394.26800537109375,324.9209899902344"/></g></g><g style="display: block;" transform="matrix(-0.9489122033119202,0,0,0.948906660079956,496.851318359375,12.225738525390625)" opacity="1"><g opacity="1" transform="matrix(1,0,0,1,0,0)"><g opacity="1" transform="matrix(1,0,0,1,418.9410095214844,232.7530059814453)"><g opacity="1" transform="matrix(1,0,0,1,0,0)"><path fill="rgb(23,21,20)" fill-opacity="1" d=" M28.80900001525879,13.597000122070312 C26.558000564575195,3.9600000381469727 12.619000434875488,1.7170000076293945 6.959000110626221,-3.1530001163482666 C-0.7789999842643738,-7.361000061035156 -12.220000267028809,-28.750999450683594 -18.540000915527344,-36.70399856567383 C-22.577999114990234,-33.78900146484375 -35.60599899291992,-23.719999313354492 -49.441001892089844,-19.55299949645996 C-46.73500061035156,-12.211000442504883 -34.79800033569336,-17.207000732421875 -28.392000198364258,-20.70199966430664 C-23.125,-23.770000457763672 -19.69099998474121,-24.253000259399414 -16.891000747680664,-18.60300064086914 C-14.812000274658203,-14.409000396728516 -10.508000373840332,-6.986000061035156 0.5590000152587891,3.8469998836517334 C11.659000396728516,14.647000312805176 17.80900001525879,19.797000885009766 19.009000778198242,19.797000885009766 C25.68400001525879,16.371999740600586 26.55900001525879,23.746999740600586 32.48400115966797,24.347999572753906 C40.558998107910156,22.871999740600586 37.183998107910156,33.12200164794922 40.90800094604492,34.847999572753906 C53.183998107910156,42.99700164794922 49.183998107910156,11.121999740600586 37.80799865722656,14.123000144958496 C32.058998107910156,16.121999740600586 30.424999237060547,15.85200023651123 28.80900001525879,13.597000122070312z"/><path stroke-linecap="round" stroke-linejoin="round" fill-opacity="0" stroke="rgb(0,0,0)" stroke-opacity="1" stroke-width="8.25" d=" M28.80900001525879,13.597000122070312 C26.558000564575195,3.9600000381469727 12.619000434875488,1.7170000076293945 6.959000110626221,-3.1530001163482666 C-0.7789999842643738,-7.361000061035156 -12.220000267028809,-28.750999450683594 -18.540000915527344,-36.70399856567383 C-22.577999114990234,-33.78900146484375 -35.60599899291992,-23.719999313354492 -49.441001892089844,-19.55299949645996 C-46.73500061035156,-12.211000442504883 -34.79800033569336,-17.207000732421875 -28.392000198364258,-20.70199966430664 C-23.125,-23.770000457763672 -19.69099998474121,-24.253000259399414 -16.891000747680664,-18.60300064086914 C-14.812000274658203,-14.409000396728516 -10.508000373840332,-6.986000061035156 0.5590000152587891,3.8469998836517334 C11.659000396728516,14.647000312805176 17.80900001525879,19.797000885009766 19.009000778198242,19.797000885009766 C25.68400001525879,16.371999740600586 26.55900001525879,23.746999740600586 32.48400115966797,24.347999572753906 C40.558998107910156,22.871999740600586 37.183998107910156,33.12200164794922 40.90800094604492,34.847999572753906 C53.183998107910156,42.99700164794922 49.183998107910156,11.121999740600586 37.80799865722656,14.123000144958496 C32.058998107910156,16.121999740600586 30.424999237060547,15.85200023651123 28.80900001525879,13.597000122070312z"/></g></g></g><g opacity="1" transform="matrix(1,0,0,1,0,0)"><g opacity="1" transform="matrix(1,0,0,1,432.04998779296875,239.3070068359375)"><g opacity="1" transform="matrix(1,0,0,1,0,0)"><path fill="url(#__lottie_element_40408)" fill-opacity="1" d=" M11.050000190734863,5.3429999351501465 C10.449999809265137,14.192999839782715 -5.285999774932861,-2.2720000743865967 -10.175000190734863,-7.631999969482422 C-7.690999984741211,-5.61899995803833 9.78499984741211,0.8619999885559082 11.050000190734863,5.3429999351501465z"/></g></g></g><g opacity="1" transform="matrix(1,0,0,1,0,0)"><g opacity="1" transform="matrix(1,0,0,1,392.70001220703125,205.406005859375)"><g opacity="1" transform="matrix(1,0,0,1,0,0)"><path fill="url(#__lottie_element_40409)" fill-opacity="1" d=" M7.150000095367432,-5.105999946594238 C7.150000095367432,-5.105999946594238 11.300000190734863,-1.906000018119812 -1.7000000476837158,3.0439999103546143 C-7.776000022888184,5.35699987411499 -8.149999618530273,4.894000053405762 -8.149999618530273,4.894000053405762 C-8.149999618530273,4.894000053405762 3.049999952316284,-3.9059998989105225 7.150000095367432,-5.105999946594238z"/></g></g></g><g opacity="1" transform="matrix(1,0,0,1,0,0)"><g opacity="1" transform="matrix(1,0,0,1,457.7250061035156,253.84800720214844)"><g opacity="1" transform="matrix(1,0,0,1,0,0)"><path fill="url(#__lottie_element_40410)" fill-opacity="1" d=" M1.225000023841858,-3.9230000972747803 C4.025000095367432,-2.9560000896453857 6.525000095367432,1.5269999504089355 5,5.0269999504089355 C4.632999897003174,5.126999855041504 5.041999816894531,4.468999862670898 4.974999904632568,4.802000045776367 C4.388999938964844,0.4309999942779541 0.8560000061988831,-1.6030000448226929 -5.625,-1.2979999780654907 C-3.3580000400543213,-4.264999866485596 -1.0750000476837158,-4.7230000495910645 1.225000023841858,-3.9230000972747803z"/></g></g></g><g opacity="1" transform="matrix(1,0,0,1,0,0)"><path stroke-linecap="butt" stroke-linejoin="miter" fill-opacity="0" stroke-miterlimit="4" stroke="rgb(37,43,43)" stroke-opacity="1" stroke-width="8.25" d=" M448.8070068359375,246.9320068359375 C445.64300537109375,236.66200256347656 428.73699951171875,231.69400024414062 424.3030090332031,227.70399475097656 C405.8609924316406,211.1060028076172 403.489013671875,189.5019989013672 399.010009765625,197.14199829101562 C389.760009765625,212.9219970703125 368.97601318359375,212.16000366210938 368.97601318359375,212.16000366210938"/></g></g><g style="display: block;" transform="matrix(0.9489122033119202,0,0,0.948906660079956,10.212703704833984,1.583102822303772)" opacity="1"><g opacity="1" transform="matrix(1,0,0,1,0,0)"><g opacity="1" transform="matrix(1,0,0,1,117.66500091552734,109.43099975585938)"><g opacity="1" transform="matrix(1,0,0,1,0,0)"><path fill="rgb(18,14,13)" fill-opacity="1" d=" M50.53499984741211,38.66899871826172 C58.1349983215332,38.236000061035156 60.71799850463867,34.26900100708008 58.28499984741211,26.768999099731445 C51.053001403808594,20.099000930786133 34.0359992980957,34.027000427246094 29.834999084472656,21.618999481201172 C21.10099983215332,8.185999870300293 9.335000038146973,-7.714000225067139 -9.96500015258789,-23.58099937438965 C-14.164999961853027,-28.305999755859375 -20.24799919128418,-30.7810001373291 -24.014999389648438,-25.881000518798828 C-29.170000076293945,-25.764999389648438 -27.415000915527344,-30.18000030517578 -32.939998626708984,-31.506000518798828 C-36.415000915527344,-33.43000030517578 -43.82500076293945,-30.34000015258789 -45.59000015258789,-34.38100051879883 C-48.29800033569336,-37.856998443603516 -49.71500015258789,-47.50699996948242 -55.939998626708984,-47.58000183105469 C-63.49399948120117,-47.93600082397461 -61.540000915527344,-36.805999755859375 -60.24100112915039,-31.631000518798828 C-57.165000915527344,-21.805999755859375 -55.52899932861328,-19.499000549316406 -48.01499938964844,-19.881000518798828 C-42.097999572753906,-20.24799919128418 -23.45599937438965,-26.006000518798828 -32.03900146484375,-14.928999900817871 C-43.104000091552734,-3.693000078201294 -9.045999526977539,-16.454999923706055 18.482999801635742,26.121000289916992 C35.11600112915039,57.76499938964844 20.94300079345703,41.44499969482422 50.53499984741211,38.66899871826172z"/><path stroke-linecap="round" stroke-linejoin="round" fill-opacity="0" stroke="rgb(0,0,0)" stroke-opacity="1" stroke-width="8.25" d=" M50.53499984741211,38.66899871826172 C58.1349983215332,38.236000061035156 60.71799850463867,34.26900100708008 58.28499984741211,26.768999099731445 C51.053001403808594,20.099000930786133 34.0359992980957,34.027000427246094 29.834999084472656,21.618999481201172 C21.10099983215332,8.185999870300293 9.335000038146973,-7.714000225067139 -9.96500015258789,-23.58099937438965 C-14.164999961853027,-28.305999755859375 -20.24799919128418,-30.7810001373291 -24.014999389648438,-25.881000518798828 C-29.170000076293945,-25.764999389648438 -27.415000915527344,-30.18000030517578 -32.939998626708984,-31.506000518798828 C-36.415000915527344,-33.43000030517578 -43.82500076293945,-30.34000015258789 -45.59000015258789,-34.38100051879883 C-48.29800033569336,-37.856998443603516 -49.71500015258789,-47.50699996948242 -55.939998626708984,-47.58000183105469 C-63.49399948120117,-47.93600082397461 -61.540000915527344,-36.805999755859375 -60.24100112915039,-31.631000518798828 C-57.165000915527344,-21.805999755859375 -55.52899932861328,-19.499000549316406 -48.01499938964844,-19.881000518798828 C-42.097999572753906,-20.24799919128418 -23.45599937438965,-26.006000518798828 -32.03900146484375,-14.928999900817871 C-43.104000091552734,-3.693000078201294 -9.045999526977539,-16.454999923706055 18.482999801635742,26.121000289916992 C35.11600112915039,57.76499938964844 20.94300079345703,41.44499969482422 50.53499984741211,38.66899871826172z"/></g></g></g><g opacity="1" transform="matrix(1,0,0,1,0,0)"><g opacity="1" transform="matrix(1,0,0,1,117.66500091552734,109.43099975585938)"><g opacity="1" transform="matrix(1,0,0,1,0,0)"><path stroke-linecap="butt" stroke-linejoin="miter" fill-opacity="0" stroke-miterlimit="4" stroke="rgb(37,43,43)" stroke-opacity="1" stroke-width="8.25" d=" M-24.88800048828125,-24.947999954223633 C-24.361000061035156,-24.42099952697754 -21.045000076293945,-48.19900131225586 31.756000518798828,24.055999755859375 C36.762001037597656,30.9060001373291 53.09600067138672,21.158000946044922 57.57500076293945,26.163999557495117"/></g></g></g><g opacity="1" transform="matrix(1,0,0,1,0,0)"><g opacity="1" transform="matrix(0.9738699793815613,0,0,1.0294500589370728,75.27200317382812,75.26200103759766)"><path fill="url(#__lottie_element_40403)" fill-opacity="1" d=" M4.072000026702881,5.5370001792907715 C-11.593000411987305,10.086000442504883 -9.446999549865723,-5.64300012588501 -13.897000312805176,-6.364999771118164 C-17.402000427246094,-5.3429999351501465 -13.831000328063965,2.7179999351501465 -13.699000358581543,4.414999961853027 C-8.446999549865723,17.179000854492188 5.4670000076293945,4.296999931335449 12.229999542236328,8.847999572753906 C8.951000213623047,6.5269999504089355 7.765999794006348,5.374000072479248 4.072000026702881,5.5370001792907715z"/></g></g><g opacity="1" transform="matrix(1,0,0,1,0,0)"><g opacity="1" transform="matrix(1,0,0,1,130.83200073242188,115.48999786376953)"><g opacity="1" transform="matrix(1,0,0,1,0,0)"><path fill="url(#__lottie_element_40404)" fill-opacity="1" d=" M33.417999267578125,23.40999984741211 C14.668000221252441,30.510000228881836 15.354000091552734,20.708999633789062 4.968999862670898,7.058000087738037 C-3.697999954223633,-4.255000114440918 -12.27299976348877,-12.010000228881836 -23.881999969482422,-23.240999221801758 C-30.743000030517578,-29.75 -33.457000732421875,-29.114999771118164 -36.481998443603516,-25.290000915527344 C-39.207000732421875,-22.489999771118164 -36.582000732421875,-20.364999771118164 -31.957000732421875,-18.59000015258789 C-13.831999778747559,-9.864999771118164 -5,-0.6100000143051147 6.01800012588501,12.458999633789062 C14.168000221252441,21.759000778198242 17.417999267578125,33.50899887084961 22.517000198364258,30.059999465942383 C31.167999267578125,27.759000778198242 40.167999267578125,29.260000228881836 41.768001556396484,26.959999084472656 C43.917999267578125,24.760000228881836 41.667999267578125,20.760000228881836 33.417999267578125,23.40999984741211z"/></g></g></g></g><g style="display: block;" transform="matrix(0.9286400079727173,0,0,0.9426100254058838,19.705276489257812,8.3809814453125)" opacity="1"><g opacity="1" transform="matrix(1,0,0,1,0,0)"><g opacity="1" transform="matrix(1,0,0,1,255.11900329589844,285.4330139160156)"><g opacity="1" transform="matrix(1,0,0,1,0,0)"><path fill="rgb(23,25,25)" fill-opacity="1" d=" M101.48100280761719,107.21700286865234 C182.1479949951172,19.118999481201172 132.97000122070312,-159.58799743652344 -4.269000053405762,-150.38299560546875 C-4.269000053405762,-150.38299560546875 -4.269000053405762,-150.2830047607422 -4.269000053405762,-150.2830047607422 C-137.33599853515625,-152.1219940185547 -179.22999572753906,22.099000930786133 -101.5199966430664,107.21600341796875 C-54.23899841308594,165.24600219726562 54.21099853515625,165.2100067138672 101.48100280761719,107.21700286865234z"/><path stroke-linecap="round" stroke-linejoin="round" fill-opacity="0" stroke="rgb(0,0,0)" stroke-opacity="1" stroke-width="8" d=" M101.48100280761719,107.21700286865234 C182.1479949951172,19.118999481201172 132.97000122070312,-159.58799743652344 -4.269000053405762,-150.38299560546875 C-4.269000053405762,-150.38299560546875 -4.269000053405762,-150.2830047607422 -4.269000053405762,-150.2830047607422 C-137.33599853515625,-152.1219940185547 -179.22999572753906,22.099000930786133 -101.5199966430664,107.21600341796875 C-54.23899841308594,165.24600219726562 54.21099853515625,165.2100067138672 101.48100280761719,107.21700286865234z"/></g></g></g><g opacity="1" transform="matrix(1,0,0,1,258.635009765625,274.6719970703125)"><path fill="url(#__lottie_element_40352)" fill-opacity="1" d=" M129.53599548339844,23.972999572753906 C130.8070068359375,21.402000427246094 124.36499786376953,-105.6719970703125 -0.492000013589859,-96.82499694824219 C-39.24599838256836,-97.43399810791016 -139.63499450683594,-101.6719970703125 -132.21200561523438,5.6539998054504395 C-128.63499450683594,131.3280029296875 -37.34299850463867,143.85699462890625 -24.45400047302246,146.69400024414062 C99.36499786376953,147.3280029296875 116.36499786376953,91.3280029296875 129.53599548339844,23.972999572753906z"/></g><g opacity="1" transform="matrix(1,0,0,1,0,0)"><g opacity="1" transform="matrix(1,0,0,1,0,0)"><g opacity="1" transform="matrix(1,0,0,1,253.20199584960938,322.96099853515625)"><path fill="url(#__lottie_element_40353)" fill-opacity="1" d=" M105.6240005493164,-47.76100158691406 C92.7979965209961,-107.96099853515625 -98.2020034790039,-114.96099853515625 -105.3280029296875,-47.76100158691406 C-108.36100006103516,-23.07900047302246 -86.197998046875,84.77200317382812 -0.1979999989271164,86.59600067138672 C67.7969970703125,88.03800201416016 103.54199981689453,16.575000762939453 105.6240005493164,-47.76100158691406z"/></g></g></g></g><g style="display: block;" transform="matrix(0.9200314879417419,0,0,0.9252565503120422,21.37036895751953,10.912246704101562)" opacity="1"><g opacity="1" transform="matrix(1,0,0,1,0,0)"><g opacity="1" transform="matrix(1,0,0,1,187.4459991455078,303.406005859375)"><g opacity="0.7000000000000001" transform="matrix(1,0,0,1,0,0)"><path fill="url(#__lottie_element_40398)" fill-opacity="1" d=" M38.56100082397461,-115.90599822998047 C25.70199966430664,-121.14700317382812 11.088000297546387,-121.76399993896484 -5.2820000648498535,-117.75599670410156 C-21.625,-113.72000122070312 -35.880001068115234,-102.50299835205078 -48.047000885009766,-84.10600280761719 C-60.21200180053711,-65.70999908447266 -66.0999984741211,-43.11000061035156 -65.70800018310547,-16.305999755859375 C-65.31700134277344,10.531999588012695 -61.02199935913086,33.5989990234375 -52.821998596191406,52.89400100708008 C-44.62300109863281,72.22000122070312 -28.05699920654297,90.68699645996094 -3.125999927520752,108.29399871826172 C21.844999313354492,125.90599822998047 40.32699966430664,124.23999786376953 52.31999969482422,103.29399871826172 C64.34300231933594,82.3499984741211 68.27899932861328,41.900001525878906 64.12799835205078,-18.055999755859375 C59.97700119018555,-78.01899719238281 51.45500183105469,-110.63600158691406 38.56100082397461,-115.90599822998047z"/><path stroke-linecap="round" stroke-linejoin="round" fill-opacity="0" stroke="rgb(123,101,81)" stroke-opacity="1" stroke-width="8" d=" M38.56100082397461,-115.90599822998047 C25.70199966430664,-121.14700317382812 11.088000297546387,-121.76399993896484 -5.2820000648498535,-117.75599670410156 C-21.625,-113.72000122070312 -35.880001068115234,-102.50299835205078 -48.047000885009766,-84.10600280761719 C-60.21200180053711,-65.70999908447266 -66.0999984741211,-43.11000061035156 -65.70800018310547,-16.305999755859375 C-65.31700134277344,10.531999588012695 -61.02199935913086,33.5989990234375 -52.821998596191406,52.89400100708008 C-44.62300109863281,72.22000122070312 -28.05699920654297,90.68699645996094 -3.125999927520752,108.29399871826172 C21.844999313354492,125.90599822998047 40.32699966430664,124.23999786376953 52.31999969482422,103.29399871826172 C64.34300231933594,82.3499984741211 68.27899932861328,41.900001525878906 64.12799835205078,-18.055999755859375 C59.97700119018555,-78.01899719238281 51.45500183105469,-110.63600158691406 38.56100082397461,-115.90599822998047z"/></g></g></g><g opacity="1" transform="matrix(1,0,0,1,196.16600036621094,304.70001220703125)"><g opacity="1" transform="matrix(1,0,0,1,0,0)"><path stroke-linecap="round" stroke-linejoin="round" fill-opacity="0" stroke="rgb(123,101,81)" stroke-opacity="1" stroke-width="4" d=" M-15.479999542236328,-118.5999984741211 C-32.935001373291016,-21.541000366210938 -20.100000381469727,57.5260009765625 23.02400016784668,118.5999984741211"/></g></g><g opacity="1" transform="matrix(1,0,0,1,169.0070037841797,364.42498779296875)"><g opacity="1" transform="matrix(1,0,0,1,0,0)"><path stroke-linecap="round" stroke-linejoin="round" fill-opacity="0" stroke="rgb(123,101,81)" stroke-opacity="1" stroke-width="4" d=" M12.963000297546387,-23.274999618530273 C12.963000297546387,-23.274999618530273 -12.963000297546387,23.274999618530273 -12.963000297546387,23.274999618530273"/></g></g><g opacity="1" transform="matrix(1,0,0,1,171.52200317382812,384.2250061035156)"><g opacity="1" transform="matrix(1,0,0,1,0,0)"><path stroke-linecap="round" stroke-linejoin="round" fill-opacity="0" stroke="rgb(123,101,81)" stroke-opacity="1" stroke-width="4" d=" M-2.5409998893737793,-19.825000762939453 C-2.5409998893737793,-19.825000762939453 2.5409998893737793,19.825000762939453 2.5409998893737793,19.825000762939453"/></g></g><g opacity="1" transform="matrix(1,0,0,1,213.41400146484375,310.8500061035156)"><g opacity="1" transform="matrix(1,0,0,1,0,0)"><path stroke-linecap="round" stroke-linejoin="round" fill-opacity="0" stroke="rgb(123,101,81)" stroke-opacity="1" stroke-width="4" d=" M-39.659000396728516,-25.049999237060547 C-39.659000396728516,-25.049999237060547 39.659000396728516,25.049999237060547 39.659000396728516,25.049999237060547"/></g></g><g opacity="1" transform="matrix(1,0,0,1,232.22999572753906,338.57501220703125)"><g opacity="1" transform="matrix(1,0,0,1,0,0)"><path stroke-linecap="round" stroke-linejoin="round" fill-opacity="0" stroke="rgb(123,101,81)" stroke-opacity="1" stroke-width="4" d=" M-18.840999603271484,-27.725000381469727 C-18.840999603271484,-27.725000381469727 18.840999603271484,27.725000381469727 18.840999603271484,27.725000381469727"/></g></g><g opacity="1" transform="matrix(1,0,0,1,149.80599975585938,271.7250061035156)"><g opacity="1" transform="matrix(1,0,0,1,0,0)"><path stroke-linecap="round" stroke-linejoin="round" fill-opacity="0" stroke="rgb(123,101,81)" stroke-opacity="1" stroke-width="4" d=" M25.48900032043457,-47.974998474121094 C25.48900032043457,-47.974998474121094 -25.48900032043457,47.974998474121094 -25.48900032043457,47.974998474121094"/></g></g><g opacity="1" transform="matrix(1,0,0,1,135.81700134277344,274.79998779296875)"><g opacity="1" transform="matrix(1,0,0,1,0,0)"><path stroke-linecap="round" stroke-linejoin="round" fill-opacity="0" stroke="rgb(123,101,81)" stroke-opacity="1" stroke-width="4" d=" M13.96399974822998,-3.0999999046325684 C13.96399974822998,-3.0999999046325684 -13.96399974822998,3.0999999046325684 -13.96399974822998,3.0999999046325684"/></g></g><g opacity="1" transform="matrix(1,0,0,1,0,0)"><g opacity="1" transform="matrix(1,0,0,1,192.32000732421875,307.20098876953125)"><g opacity="1" transform="matrix(1,0,0,1,0,0)"><path fill="url(#__lottie_element_40399)" fill-opacity="1" d=" M-25.864999771118164,77.9489974975586 C2.8299999237060547,105.48100280761719 24.323999404907227,108.2969970703125 38.61600112915039,86.39900207519531 C52.944000244140625,64.49299621582031 46.792999267578125,-41.553001403808594 31.759000778198242,-68.18499755859375 C27.406999588012695,-58.053001403808594 5.258999824523926,-40.24599838256836 -17.461999893188477,0.5550000071525574 C-40.17499923706055,41.35900115966797 -54.534000396728516,50.41999816894531 -25.864999771118164,77.9489974975586z"/></g></g></g></g><g style="display: block;" transform="matrix(-0.928500771522522,0,0,0.9173669219017029,491.1916198730469,13.305879592895508)" opacity="1"><g opacity="1" transform="matrix(1,0,0,1,0.261993408203125,-2.16400146484375)"><g opacity="0.7000000000000001" transform="matrix(1,0,0,1,187.4459991455078,303.406005859375)"><g opacity="1" transform="matrix(1,0,0,1,0,0)"><path fill="url(#__lottie_element_40393)" fill-opacity="1" d=" M38.56100082397461,-115.90599822998047 C25.70199966430664,-121.14700317382812 11.088000297546387,-121.76399993896484 -5.2820000648498535,-117.75599670410156 C-21.625,-113.72000122070312 -35.880001068115234,-102.50299835205078 -48.047000885009766,-84.10600280761719 C-60.21200180053711,-65.70999908447266 -66.0999984741211,-43.11000061035156 -65.70800018310547,-16.305999755859375 C-65.31700134277344,10.531999588012695 -61.02199935913086,33.5989990234375 -52.821998596191406,52.89400100708008 C-44.62300109863281,72.22000122070312 -28.05699920654297,90.68699645996094 -3.125999927520752,108.29399871826172 C21.844999313354492,125.90599822998047 40.32699966430664,124.23999786376953 52.31999969482422,103.29399871826172 C64.34300231933594,82.3499984741211 68.27899932861328,41.900001525878906 64.12799835205078,-18.055999755859375 C59.97700119018555,-78.01899719238281 51.45500183105469,-110.63600158691406 38.56100082397461,-115.90599822998047z"/><path stroke-linecap="round" stroke-linejoin="round" fill-opacity="0" stroke="rgb(123,101,81)" stroke-opacity="1" stroke-width="8" d=" M38.56100082397461,-115.90599822998047 C25.70199966430664,-121.14700317382812 11.088000297546387,-121.76399993896484 -5.2820000648498535,-117.75599670410156 C-21.625,-113.72000122070312 -35.880001068115234,-102.50299835205078 -48.047000885009766,-84.10600280761719 C-60.21200180053711,-65.70999908447266 -66.0999984741211,-43.11000061035156 -65.70800018310547,-16.305999755859375 C-65.31700134277344,10.531999588012695 -61.02199935913086,33.5989990234375 -52.821998596191406,52.89400100708008 C-44.62300109863281,72.22000122070312 -28.05699920654297,90.68699645996094 -3.125999927520752,108.29399871826172 C21.844999313354492,125.90599822998047 40.32699966430664,124.23999786376953 52.31999969482422,103.29399871826172 C64.34300231933594,82.3499984741211 68.27899932861328,41.900001525878906 64.12799835205078,-18.055999755859375 C59.97700119018555,-78.01899719238281 51.45500183105469,-110.63600158691406 38.56100082397461,-115.90599822998047z"/></g></g></g><g opacity="1" transform="matrix(1,0,0,1,196.16600036621094,304.70001220703125)"><g opacity="1" transform="matrix(1,0,0,1,0,0)"><path stroke-linecap="round" stroke-linejoin="round" fill-opacity="0" stroke="rgb(123,101,81)" stroke-opacity="1" stroke-width="4" d=" M-15.479999542236328,-118.5999984741211 C-32.935001373291016,-21.541000366210938 -20.100000381469727,57.5260009765625 23.02400016784668,118.5999984741211"/></g></g><g opacity="1" transform="matrix(1,0,0,1,169.0070037841797,364.42498779296875)"><g opacity="1" transform="matrix(1,0,0,1,0,0)"><path stroke-linecap="round" stroke-linejoin="round" fill-opacity="0" stroke="rgb(123,101,81)" stroke-opacity="1" stroke-width="4" d=" M12.963000297546387,-23.274999618530273 C12.963000297546387,-23.274999618530273 -12.963000297546387,23.274999618530273 -12.963000297546387,23.274999618530273"/></g></g><g opacity="1" transform="matrix(1,0,0,1,171.52200317382812,384.2250061035156)"><g opacity="1" transform="matrix(1,0,0,1,0,0)"><path stroke-linecap="round" stroke-linejoin="round" fill-opacity="0" stroke="rgb(123,101,81)" stroke-opacity="1" stroke-width="4" d=" M-2.5409998893737793,-19.825000762939453 C-2.5409998893737793,-19.825000762939453 2.5409998893737793,19.825000762939453 2.5409998893737793,19.825000762939453"/></g></g><g opacity="1" transform="matrix(1,0,0,1,213.41400146484375,310.8500061035156)"><g opacity="1" transform="matrix(1,0,0,1,0,0)"><path stroke-linecap="round" stroke-linejoin="round" fill-opacity="0" stroke="rgb(123,101,81)" stroke-opacity="1" stroke-width="4" d=" M-39.659000396728516,-25.049999237060547 C-39.659000396728516,-25.049999237060547 39.659000396728516,25.049999237060547 39.659000396728516,25.049999237060547"/></g></g><g opacity="1" transform="matrix(1,0,0,1,232.22999572753906,338.57501220703125)"><g opacity="1" transform="matrix(1,0,0,1,0,0)"><path stroke-linecap="round" stroke-linejoin="round" fill-opacity="0" stroke="rgb(123,101,81)" stroke-opacity="1" stroke-width="4" d=" M-18.840999603271484,-27.725000381469727 C-18.840999603271484,-27.725000381469727 18.840999603271484,27.725000381469727 18.840999603271484,27.725000381469727"/></g></g><g opacity="1" transform="matrix(1,0,0,1,149.80599975585938,271.7250061035156)"><g opacity="1" transform="matrix(1,0,0,1,0,0)"><path stroke-linecap="round" stroke-linejoin="round" fill-opacity="0" stroke="rgb(123,101,81)" stroke-opacity="1" stroke-width="4" d=" M25.48900032043457,-47.974998474121094 C25.48900032043457,-47.974998474121094 -25.48900032043457,47.974998474121094 -25.48900032043457,47.974998474121094"/></g></g><g opacity="1" transform="matrix(1,0,0,1,135.81700134277344,274.79998779296875)"><g opacity="1" transform="matrix(1,0,0,1,0,0)"><path stroke-linecap="round" stroke-linejoin="round" fill-opacity="0" stroke="rgb(123,101,81)" stroke-opacity="1" stroke-width="4" d=" M13.96399974822998,-3.0999999046325684 C13.96399974822998,-3.0999999046325684 -13.96399974822998,3.0999999046325684 -13.96399974822998,3.0999999046325684"/></g></g><g opacity="1" transform="matrix(1,0,0,1,0,0)"><g opacity="1" transform="matrix(1,0,0,1,192.32000732421875,307.20098876953125)"><g opacity="1" transform="matrix(1,0,0,1,0,0)"><path fill="url(#__lottie_element_40394)" fill-opacity="1" d=" M-25.864999771118164,77.9489974975586 C1.7330000400543213,106.58000183105469 24.323999404907227,108.2969970703125 38.61600112915039,86.39900207519531 C52.944000244140625,64.49299621582031 45.86199951171875,-55.60100173950195 34.05500030517578,-74.37799835205078 C29.702999114990234,-64.24600219726562 8.270999908447266,-45.250999450683594 -14.449999809265137,-4.449999809265137 C-37.16299819946289,36.354000091552734 -65.21499633789062,37.125999450683594 -25.864999771118164,77.9489974975586z"/></g></g></g></g><g style="display: block;" transform="matrix(0.9598608613014221,0,0,0.9779861569404602,12.036571502685547,0.848127007484436)" opacity="1"><g opacity="1" transform="matrix(1,0,0,1,0,0)"><g opacity="1" transform="matrix(1,0,0,1,330.75,298.8909912109375)"><g opacity="1" transform="matrix(1,0,0,1,0,0)"><path fill="url(#__lottie_element_40379)" fill-opacity="1" d=" M31.350000381469727,-124.44100189208984 C27.91699981689453,-128.54100036621094 24.200000762939453,-132.32400512695312 20.200000762939453,-135.79100036621094 C1.1670000553131104,-126.42400360107422 -29.132999420166016,-121.77400207519531 -70.69999694824219,-121.84100341796875 C-70.69999694824219,-121.84100341796875 -70.69999694824219,-10.128999710083008 -70.69999694824219,-10.128999710083008 C-70.69999694824219,-10.128999710083008 -70.69999694824219,135.50900268554688 -70.69999694824219,135.50900268554688 C5.285999774932861,140.57699584960938 63.31999969482422,76.50700378417969 70,5.458000183105469 C74.03099822998047,-39.957000732421875 60.584999084472656,-86.55999755859375 31.350000381469727,-124.44100189208984z"/></g></g></g><g opacity="1" transform="matrix(1,0,0,1,0,0)"><g opacity="1" transform="matrix(1,0,0,1,330.739990234375,279.4280090332031)"><g opacity="1" transform="matrix(1,0,0,1,0,0)"><path fill="url(#__lottie_element_40380)" fill-opacity="1" d=" M20.05699920654297,-114.02799987792969 C48.387001037597656,-93.06600189208984 66.19599914550781,-54.24399948120117 69.85700225830078,-22.878000259399414 C78.98100280761719,55.05799865722656 8.880000114440918,119.00399780273438 -70.65899658203125,113.72200012207031 C-70.65899658203125,113.72200012207031 -70.65899658203125,12.454000473022461 -70.65899658203125,12.454000473022461 C-70.65899658203125,12.454000473022461 -70.65899658203125,-102.3280029296875 -70.65899658203125,-102.3280029296875 C-29.187999725341797,-102.30400085449219 1.0509999990463257,-106.2040023803711 20.05699920654297,-114.02799987792969z"/></g></g></g><g opacity="1" transform="matrix(1,0,0,1,0,0)"><g opacity="1" transform="matrix(1,0,0,1,330.80999755859375,260.07598876953125)"><g opacity="1" transform="matrix(1,0,0,1,0,0)"><path fill="url(#__lottie_element_40381)" fill-opacity="1" d=" M44.81700134277344,-19.076000213623047 C60.72100067138672,32.314998626708984 38.191001892089844,61.17900085449219 -17.04599952697754,55.52399826049805 C-45.474998474121094,52.974998474121094 -55.4010009765625,44.874000549316406 -46.823001861572266,31.224000930786133 C-38.244998931884766,17.57200050354004 -32.42599868774414,3.305000066757202 -29.367000579833984,-11.576000213623047 C-23.92300033569336,-36.915000915527344 -15.98900032043457,-50.95000076293945 7.0320000648498535,-56.22600173950195 C7.0320000648498535,-56.22600173950195 7.0320000648498535,-56.17599868774414 7.0320000648498535,-56.17599868774414 C24.427000045776367,-56.62200164794922 37.020999908447266,-44.25600051879883 44.81700134277344,-19.076000213623047z"/></g></g></g><g opacity="1" transform="matrix(1,0,0,1,0,0)"><g opacity="1" transform="matrix(1,0,0,1,309.92498779296875,267.6499938964844)"><g opacity="1" transform="matrix(1,0,0,1,0,0)"><path fill="url(#__lottie_element_40382)" fill-opacity="1" d=" M10.968000411987305,-94.69999694824219 C16.444000244140625,-95.89700317382812 25.617000579833984,-97.9469985961914 38.486000061035156,-100.8499984741211 C134.2779998779297,27.09000015258789 60.926998138427734,100.8499984741211 -46.37799835205078,100.8499984741211 C-50.345001220703125,20.552000045776367 -48.85100173950195,3.421999931335449 -46.78799819946289,-51.54999923706055 C-46.487998962402344,-65.35199737548828 -47.137001037597656,-75.2020034790039 -48.73899841308594,-81.0999984741211 C-50.375999450683594,-87.0009994506836 -48.375,-89.85099792480469 -42.733001708984375,-89.6500015258789 C-33.229000091552734,-88.98799896240234 1.6920000314712524,-92.5 10.968000411987305,-94.69999694824219z"/></g></g></g><g opacity="1" transform="matrix(1,0,0,1,0,0)"><g opacity="1" transform="matrix(1,0,0,1,305.093994140625,300.6499938964844)"><g opacity="1" transform="matrix(1,0,0,1,0,0)"><path fill="url(#__lottie_element_40383)" fill-opacity="1" d=" M44.805999755859375,-132.25 C44.60599899291992,-132.58299255371094 44.45600128173828,-132.91700744628906 44.35599899291992,-133.25 C15.5649995803833,-126.22799682617188 -10.350000381469727,-121.94100189208984 -36.89400100708008,-122 C-42.52899932861328,-122.23500061035156 -44.645999908447266,-118.13500213623047 -43.24399948120117,-109.69999694824219 C-47.16699981689453,-36.18899917602539 -50.71900177001953,7.455999851226807 -44.270999908447266,133.25 C-44.2869987487793,135.55299377441406 -39.85900115966797,133.70899963378906 -39.82099914550781,133.58599853515625 C-40.380001068115234,134.10400390625 -34.599998474121094,-48.49800109863281 -34.676998138427734,-111.94999694824219 C-0.37700000405311584,-114.41699981689453 27.106000900268555,-122.8499984741211 44.805999755859375,-132.25z"/></g></g></g><g opacity="1" transform="matrix(1,0,0,1,0,0)"><g opacity="1" transform="matrix(1,0,0,1,321.5830078125,247.35800170898438)"><g opacity="1" transform="matrix(1,0,0,1,0,0)"><path fill="url(#__lottie_element_40384)" fill-opacity="1" d=" M-55.60599899291992,-65.15799713134766 C-55.60599899291992,-65.15799713134766 29.67799949645996,-76.15799713134766 29.67799949645996,-76.15799713134766 C90.79100036621094,10.642000198364258 90.79100036621094,46.641998291015625 -55.775001525878906,46.79199981689453 C-64.88099670410156,18.131999969482422 -69.5510025024414,-50.45800018310547 -55.60599899291992,-65.15799713134766z"/></g></g></g><g opacity="1" transform="matrix(1,0,0,1,0,0)"><g opacity="1" transform="matrix(1,0,0,1,338.7569885253906,232.54800415039062)"><g opacity="1" transform="matrix(1,0,0,1,0,0)"><path fill="url(#__lottie_element_40385)" fill-opacity="1" d=" M-23.392000198364258,-22.398000717163086 C-41.82500076293945,-2.7200000286102295 -23.981000900268555,32.52000045776367 2.3299999237060547,31.70199966430664 C19.29400062561035,32.08399963378906 32.43299865722656,16.805999755859375 30.82200050354004,0.0020000000949949026 C29.83300018310547,-26.266000747680664 -4.888000011444092,-43.209999084472656 -23.392000198364258,-22.398000717163086z"/></g></g></g><g opacity="1" transform="matrix(1,0,0,1,0,0)"><g opacity="1" transform="matrix(1,0,0,1,378.1449890136719,314.4330139160156)"><g opacity="1" transform="matrix(1,0,0,1,0,0)"><path fill="rgb(0,0,0)" fill-opacity="1" d=" M6.177000045776367,-31.18000030517578 C19.709999084472656,-25.81399917602539 8.835000038146973,32.33300018310547 -6.192999839782715,31.179000854492188 C-19.674999237060547,25.791000366210938 -8.88599967956543,-32.319000244140625 6.177000045776367,-31.18000030517578z"/></g></g></g><g opacity="1" transform="matrix(1,0,0,1,0,0)"><g opacity="1" transform="matrix(1,0,0,1,319.8590087890625,376.760986328125)"><g opacity="1" transform="matrix(1,0,0,1,0,0)"><path fill="rgb(0,0,0)" fill-opacity="1" d=" M23.490999221801758,-4.660999774932861 C25.360000610351562,-17.73900032043457 15.940999984741211,-27.729999542236328 2.8910000324249268,-24.76099967956543 C-9.97700023651123,-22.43899917602539 -22.371999740600586,-8.125 -23.55900001525879,4.888999938964844 C-26.145000457763672,29.94300079345703 1.5700000524520874,30.493000030517578 14.491000175476074,14.288000106811523 C19.658000946044922,8.48900032043457 22.658000946044922,2.171999931335449 23.490999221801758,-4.660999774932861z"/></g></g></g><g opacity="1" transform="matrix(1,0,0,1,0,0)"><g opacity="1" transform="matrix(1,0,0,1,329.9679870605469,303.47198486328125)"><g opacity="1" transform="matrix(1,0,0,1,0,0)"><path fill="rgb(0,0,0)" fill-opacity="1" d=" M2.9070000648498535,-14.680999755859375 C20.606000900268555,-10.159000396728516 16.097999572753906,19.034000396728516 -2.9179999828338623,14.680999755859375 C-20.576000213623047,10.135000228881836 -16.128000259399414,-19.030000686645508 2.9070000648498535,-14.680999755859375z"/></g></g></g><g opacity="1" transform="matrix(1,0,0,1,-2,0)"><g opacity="1" transform="matrix(1,0,0,1,276.0450134277344,275.75)"><g opacity="1" transform="matrix(1,0,0,1,0,0)"><path fill="url(#__lottie_element_40386)" fill-opacity="1" d=" M-15.071000099182129,28.649999618530273 C-15.071000099182129,28.649999618530273 -15.071000099182129,-28.649999618530273 -15.071000099182129,-28.649999618530273 C25.13800048828125,-25.621999740600586 25.097000122070312,25.641000747680664 -15.071000099182129,28.649999618530273z"/></g><g opacity="1" transform="matrix(1,0,0,1,0,0)"><path fill="url(#__lottie_element_40387)" fill-opacity="1" d=" M-12.104999542236328,10.114999771118164 C-12.104999542236328,10.114999771118164 -12.572999954223633,-26.864999771118164 -12.572999954223633,-26.864999771118164 C17.104999542236328,-27.131000518798828 25.701000213623047,12.651000022888184 -12.104999542236328,10.114999771118164z"/></g></g></g><g opacity="1" transform="matrix(1,0,0,1,328.3370056152344,298.875)"><g opacity="1" transform="matrix(1,0,0,1,0,0)"><path stroke="url(#__lottie_element_40388)" stroke-linecap="round" stroke-linejoin="round" fill-opacity="0" stroke-opacity="1" stroke-width="8" d=" M-71.0199966430664,-120.9749984741211 C-24.020000457763672,-122.00800323486328 6.563000202178955,-127.15799713134766 17.76300048828125,-136.4250030517578 C112.68000030517578,-50.03300094604492 74.6449966430664,137.625 -72.50299835205078,136.375 C-72.50299835205078,136.375 -71.64099884033203,-13.163000106811523 -71.64099884033203,-13.163000106811523 C-71.64099884033203,-13.163000106811523 -71.0199966430664,-120.9749984741211 -71.0199966430664,-120.9749984741211z"/></g></g><g opacity="1" transform="matrix(1,0,0,1,0,0)"><g opacity="1" transform="matrix(1,0,0,1,328.4010009765625,277.24200439453125)"><g opacity="1" transform="matrix(1,0,0,1,0,0)"><path fill="url(#__lottie_element_40389)" fill-opacity="1" d=" M65.54900360107422,6.007999897003174 C66.2030029296875,-89.40599822998047 -8.994000434875488,-137.2220001220703 -66.0510025024414,-62.641998291015625 C-66.0510025024414,-62.641998291015625 -65.0510025024414,87.20800018310547 -65.0510025024414,87.20800018310547 C-7.7769999504089355,161.697998046875 63.0989990234375,120.75800323486328 65.54900360107422,6.007999897003174z"/></g></g></g><g opacity="1" transform="matrix(1,0,0,1,328.3370056152344,298.875)"><g opacity="1" transform="matrix(1,0,0,1,0,0)"><path stroke-linecap="butt" stroke-linejoin="miter" fill-opacity="0" stroke-miterlimit="4" stroke="rgb(55,0,0)" stroke-opacity="1" stroke-width="8" d=" M-71.0459976196289,-120.86299896240234 C-71.0459976196289,-120.86299896240234 -70.99700164794922,-22.822999954223633 -70.99700164794922,-22.822999954223633 C-70.99700164794922,-22.822999954223633 -70.91600036621094,139.04100036621094 -70.91600036621094,139.04100036621094"/></g></g></g><g style="display: block;" transform="matrix(0.9594801664352417,0,0,0.9767702221870422,8.573357582092285,1.3737425804138184)" opacity="1"><g opacity="1" transform="matrix(1,0,0,1,0,0)"><g opacity="1" transform="matrix(1,0,0,1,185.64199829101562,299.7409973144531)"><g opacity="1" transform="matrix(1,0,0,1,0,0)"><path fill="url(#__lottie_element_40365)" fill-opacity="1" d=" M70.65799713134766,-121.84100341796875 C29.090999603271484,-121.77400207519531 -1.2089999914169312,-126.42400360107422 -20.242000579833984,-135.79100036621094 C-58.0620002746582,-99.46199798583984 -74.10600280761719,-44.06100082397461 -70.04399871826172,5.458000183105469 C-63.356998443603516,76.50900268554688 -2.2049999237060547,141.10299682617188 73.78399658203125,136.03599548339844 C73.78399658203125,136.03599548339844 73.78399658203125,-44.827999114990234 73.78399658203125,-44.827999114990234 C73.78399658203125,-44.827999114990234 70.65799713134766,-121.84100341796875 70.65799713134766,-121.84100341796875z"/></g></g></g><g opacity="1" transform="matrix(1,0,0,1,0,0)"><g opacity="1" transform="matrix(1,0,0,1,185.61000061035156,280.27801513671875)"><g opacity="1" transform="matrix(1,0,0,1,0,0)"><path fill="url(#__lottie_element_40366)" fill-opacity="1" d=" M-16.05699920654297,-110.02799987792969 C-44.387001037597656,-89.06600189208984 -58.19599914550781,-52.24399948120117 -61.856998443603516,-20.878000259399414 C-70.98100280761719,57.05799865722656 -6.451000213623047,135.92599487304688 73.08799743652344,130.6439971923828 C73.08799743652344,130.6439971923828 74.39600372314453,-21.049999237060547 74.39600372314453,-21.049999237060547 C74.39600372314453,-21.049999237060547 70.65899658203125,-102.3280029296875 70.65899658203125,-102.3280029296875 C29.187999725341797,-102.30400085449219 2.9489998817443848,-102.2040023803711 -16.05699920654297,-110.02799987792969z"/></g></g></g><g opacity="1" transform="matrix(1,0,0,1,0,0)"><g opacity="1" transform="matrix(1,0,0,1,185.58999633789062,260.9259948730469)"><g opacity="1" transform="matrix(1,0,0,1,0,0)"><path fill="url(#__lottie_element_40367)" fill-opacity="0.26" d=" M-44.81700134277344,-19.076000213623047 C-60.72100067138672,32.314998626708984 -42.36000061035156,77.51399993896484 12.876999855041504,71.85900115966797 C41.305999755859375,69.30999755859375 53.178001403808594,47.30500030517578 52.034000396728516,31.224000930786133 C50.39899826049805,8.243000030517578 56.39799880981445,-15.663999557495117 53.3390007019043,-30.545000076293945 C49.356998443603516,-68.68699645996094 21.216999053955078,-73.95600128173828 -4.947000026702881,-66.76399993896484 C-4.947000026702881,-66.76399993896484 -2.86299991607666,-67.76799774169922 -2.86299991607666,-67.76799774169922 C-20.257999420166016,-68.21399688720703 -37.020999908447266,-44.25600051879883 -44.81700134277344,-19.076000213623047z"/></g></g></g><g opacity="1" transform="matrix(1,0,0,1,0,0)"><g opacity="1" transform="matrix(1,0,0,1,206.4250030517578,268.5)"><g opacity="1" transform="matrix(1,0,0,1,0,0)"><path fill="url(#__lottie_element_40368)" fill-opacity="1" d=" M-10.968000411987305,-94.69999694824219 C-16.444000244140625,-95.89700317382812 -25.617000579833984,-97.9469985961914 -38.486000061035156,-100.8499984741211 C-110.21600341796875,-30 -95.38099670410156,55 44.400001525878906,19.850000381469727 C48.367000579833984,-60.448001861572266 48.85100173950195,3.421999931335449 46.78799819946289,-51.54999923706055 C46.487998962402344,-65.35199737548828 47.137001037597656,-75.2020034790039 48.73899841308594,-81.0999984741211 C50.375999450683594,-87.0009994506836 48.375,-89.85099792480469 42.733001708984375,-89.6500015258789 C33.229000091552734,-88.98799896240234 -1.6920000314712524,-92.5 -10.968000411987305,-94.69999694824219z"/></g></g></g><g opacity="1" transform="matrix(1,0,0,1,0,0)"><g opacity="1" transform="matrix(1,0,0,1,210.61500549316406,254.64999389648438)"><g opacity="1" transform="matrix(1,0,0,1,0,0)"><path fill="url(#__lottie_element_40369)" fill-opacity="1" d=" M-16.10700035095215,-80.25 C-21.617000579833984,-81.44999694824219 -30.80699920654297,-83.5 -43.67599868774414,-86.4000015258789 C-43.77899932861328,-86.06700134277344 -43.93299865722656,-85.73300170898438 -44.13800048828125,-85.4000015258789 C-26.405000686645508,-76.01100158691406 -0.3930000066757202,-70.0780029296875 33.89699935913086,-67.5999984741211 C37.56800079345703,-6.431000232696533 41.266998291015625,181.1580047607422 41.29399871826172,180.46400451660156 C41.52799987792969,181.2899932861328 45.17599868774414,180.8939971923828 46.00400161743164,180.69000244140625 C50.70500183105469,120.83999633789062 50.66400146484375,-73.72899627685547 43.52799987792969,-73.6500015258789 C32.52399826049805,-73.52799987792969 -3.9839999675750732,-77.66100311279297 -16.10700035095215,-80.25z"/></g></g></g><g opacity="1" transform="matrix(1,0,0,1,0,0)"><g opacity="1" transform="matrix(1,0,0,1,194.76699829101562,248.20799255371094)"><g opacity="1" transform="matrix(1,0,0,1,0,0)"><path fill="url(#__lottie_element_40370)" fill-opacity="1" d=" M58.202999114990234,-63.15800094604492 C58.202999114990234,-63.15800094604492 -28.667999267578125,-77.65799713134766 -28.667999267578125,-77.65799713134766 C-89.16300201416016,-13.208000183105469 -94.10800170898438,73.79199981689453 58.7400016784668,38.79199981689453 C56.24300003051758,-0.20800000429153442 57.233001708984375,-56.20800018310547 58.202999114990234,-63.15800094604492z"/></g></g></g><g opacity="1" transform="matrix(1,0,0,1,0,0)"><g opacity="1" transform="matrix(1,0,0,1,175.61000061035156,231.81300354003906)"><g opacity="1" transform="matrix(1,0,0,1,0,0)"><path fill="url(#__lottie_element_40371)" fill-opacity="1" d=" M2.3910000324249268,-31.67300033569336 C-23.95199966430664,-32.53200149536133 -41.70100021362305,2.7009999752044678 -23.368999481201172,22.388999938964844 C-12.310999870300293,35.21799850463867 8.446000099182129,34.35100173950195 20.216999053955078,22.38800048828125 C40.20800018310547,4.7170000076293945 30.899999618530273,-32.01100158691406 2.3910000324249268,-31.67300033569336z"/></g></g></g><g opacity="1" transform="matrix(1,0,0,1,0,0)"><g opacity="1" transform="matrix(1,0,0,1,136.2550048828125,313.6830139160156)"><g opacity="1" transform="matrix(1,0,0,1,0,0)"><path fill="rgb(0,0,0)" fill-opacity="1" d=" M-6.177000045776367,-31.18000030517578 C-19.709999084472656,-25.81399917602539 -8.835000038146973,32.33300018310547 6.192999839782715,31.179000854492188 C19.674999237060547,25.791000366210938 8.88599967956543,-32.319000244140625 -6.177000045776367,-31.18000030517578z"/></g></g></g><g opacity="1" transform="matrix(1,0,0,1,0,0)"><g opacity="1" transform="matrix(1,0,0,1,194.62899780273438,376.1369934082031)"><g opacity="1" transform="matrix(1,0,0,1,0,0)"><path fill="rgb(0,0,0)" fill-opacity="1" d=" M-18.663999557495117,-20.972000122070312 C-36.957000732421875,-1.7740000486373901 -2.4519999027252197,38.832000732421875 18.69099998474121,20.97599983215332 C36.90399932861328,1.777999997138977 2.5160000324249268,-38.8390007019043 -18.663999557495117,-20.972000122070312z"/></g></g></g><g opacity="1" transform="matrix(1,0,0,1,0,0)"><g opacity="1" transform="matrix(1,0,0,1,184.3820037841797,302.72198486328125)"><g opacity="1" transform="matrix(1,0,0,1,0,0)"><path fill="rgb(0,0,0)" fill-opacity="1" d=" M-2.9070000648498535,-14.680999755859375 C-20.606000900268555,-10.159000396728516 -16.097999572753906,19.034000396728516 2.9179999828338623,14.680999755859375 C20.576000213623047,10.135000228881836 16.128000259399414,-19.030000686645508 -2.9070000648498535,-14.680999755859375z"/></g></g></g><g opacity="1" transform="matrix(1,0,0,1,2.5,0)"><g opacity="1" transform="matrix(1,0,0,1,239.7050018310547,275)"><g opacity="1" transform="matrix(1,0,0,1,0,0)"><path fill="url(#__lottie_element_40372)" fill-opacity="1" d=" M14.8100004196167,29.966999053955078 C14.8100004196167,29.966999053955078 15.071000099182129,-28.649999618530273 15.071000099182129,-28.649999618530273 C-25.13800048828125,-25.621999740600586 -25.357999801635742,26.95800018310547 14.8100004196167,29.966999053955078z"/></g><g opacity="1" transform="matrix(1,0,0,1,0,0)"><path fill="url(#__lottie_element_40373)" fill-opacity="0.67" d=" M13.847999572753906,30.04400062561035 C13.847999572753906,30.04400062561035 13.380000114440918,-28.933000564575195 13.380000114440918,-28.933000564575195 C8.993000030517578,-28.892000198364258 6.551000118255615,-27.17099952697754 4.980000019073486,-25.85700035095215 C4.4670000076293945,-26.117000579833984 6.810999870300293,29.472999572753906 6.698999881744385,29.017000198364258 C9.678000450134277,29.472999572753906 12.803999900817871,30.26300048828125 13.847999572753906,30.04400062561035z"/></g></g></g><g opacity="1" transform="matrix(1,0,0,1,186.3939971923828,299.8399963378906)"><g opacity="1" transform="matrix(1,0,0,1,0,0)"><path stroke="url(#__lottie_element_40374)" stroke-linecap="round" stroke-linejoin="round" fill-opacity="0" stroke-opacity="1" stroke-width="8" d=" M74.56099700927734,135.3780059814453 C-4.809999942779541,140.6490020751953 -67.9749984741211,70.98999786376953 -70.59400177001953,-3.492000102996826 C-72.23300170898438,-48.09700012207031 -55.88100051879883,-102.4219970703125 -20.194000244140625,-135.7899932861328 C-1.1610000133514404,-126.4229965209961 31.117000579833984,-121.77300262451172 72.68399810791016,-121.83999633789062 C72.68399810791016,-121.83999633789062 72.80899810791016,-18.684999465942383 72.80899810791016,-18.684999465942383 C72.80899810791016,-18.684999465942383 74.56099700927734,135.3780059814453 74.56099700927734,135.3780059814453z"/></g></g><g opacity="1" transform="matrix(1,0,0,1,0,0)"><g opacity="1" transform="matrix(1,0,0,1,193.33700561523438,276.3970031738281)"><g opacity="1" transform="matrix(1,0,0,1,0,0)"><path fill="url(#__lottie_element_40375)" fill-opacity="1" d=" M-48.75299835205078,-75.74700164794922 C-83.83799743652344,-24.39699935913086 -70.927001953125,38.50299835205078 -70.927001953125,38.50299835205078 C-40.3380012512207,127.10299682617188 60.89699935913086,67.2490005493164 60.41400146484375,-2.4489998817443848 C70.16300201416016,-83.89800262451172 -4.423999786376953,-121.2040023803711 -48.75299835205078,-75.74700164794922z"/></g></g></g><g opacity="1" transform="matrix(1,0,0,1,328.3370056152344,298.875)"><g opacity="1" transform="matrix(1,0,0,1,0,0)"><path stroke-linecap="butt" stroke-linejoin="miter" fill-opacity="0" stroke-miterlimit="4" stroke="rgb(55,0,0)" stroke-opacity="1" stroke-width="8" d=" M-69.48200225830078,-120.86299896240234 C-69.48200225830078,-120.86299896240234 -68.55400085449219,-11.788000106811523 -68.55400085449219,-11.788000106811523 C-68.55400085449219,-11.788000106811523 -67.26799774169922,139.3040008544922 -67.26799774169922,139.3040008544922"/></g></g></g><g style="display: block;" transform="matrix(0.9489122033119202,0,0,0.8888718485832214,12.74481201171875,12.171902656555176)" opacity="1"><g opacity="1" transform="matrix(1,0,0,1,256.4219970703125,137.90199279785156)"><g opacity="1" transform="matrix(1,0,0,1,0,0)"><path fill="rgb(27,31,33)" fill-opacity="1" d=" M2.828000068664551,-42.75199890136719 C46.512001037597656,-42.41899871826172 69.81800079345703,-35.84700012207031 85.92900085449219,-1.6030000448226929 C91.08699798583984,2.813999891281128 90.2490005493164,23.20400047302246 88.81600189208984,26.104000091552734 C80.28500366210938,42.47100067138672 42.61000061035156,45.284000396728516 1.1030000448226929,45.61199951171875 C-28.26099967956543,46.12799835205078 -74.62899780273438,41.62699890136719 -89.33799743652344,30.323999404907227 C-91.75399780273438,25.59600067138672 -88.85600280761719,9.282999992370605 -85.9469985961914,-1.6019999980926514 C-70.06300354003906,-37.5260009765625 -40.915000915527344,-43.40800094604492 2.828000068664551,-42.75199890136719 C0.9509999752044678,-42.78499984741211 -0.9369999766349792,-42.62099838256836 -2.822000026702881,-42.777000427246094"/><path stroke-linecap="round" stroke-linejoin="round" fill-opacity="0" stroke="rgb(2,2,2)" stroke-opacity="1" stroke-width="8" d=" M2.828000068664551,-42.75199890136719 C46.512001037597656,-42.41899871826172 69.81800079345703,-35.84700012207031 85.92900085449219,-1.6030000448226929 C91.08699798583984,2.813999891281128 90.2490005493164,23.20400047302246 88.81600189208984,26.104000091552734 C80.28500366210938,42.47100067138672 42.61000061035156,45.284000396728516 1.1030000448226929,45.61199951171875 C-28.26099967956543,46.12799835205078 -74.62899780273438,41.62699890136719 -89.33799743652344,30.323999404907227 C-91.75399780273438,25.59600067138672 -88.85600280761719,9.282999992370605 -85.9469985961914,-1.6019999980926514 C-70.06300354003906,-37.5260009765625 -40.915000915527344,-43.40800094604492 2.828000068664551,-42.75199890136719 C0.9509999752044678,-42.78499984741211 -0.9369999766349792,-42.62099838256836 -2.822000026702881,-42.777000427246094"/></g></g><g opacity="1" transform="matrix(1,0,0,1,1,-6)"><g opacity="1" transform="matrix(1,0,0,1,0,0)"><g opacity="1" transform="matrix(1,0,0,1,256.635009765625,142.6719970703125)"><path fill="url(#__lottie_element_40356)" fill-opacity="1" d=" M71.5250015258789,27.566999435424805 C77.22899627685547,22.045000076293945 74.69599914550781,8.32699966430664 69.8499984741211,-3.315000057220459 C59.57600021362305,-25.20599937438965 41.249000549316406,-37.518001556396484 2.507999897003174,-37.82500076293945 C-36.24599838256836,-38.433998107910156 -57.388999938964844,-34.89799880981445 -71.47000122070312,-3.0339999198913574 C-76.29399871826172,8.614999771118164 -77.68599700927734,20.076000213623047 -75.47100067138672,25.597999572753906 C-72.94400024414062,31.326000213623047 -65.60700225830078,34.07600021362305 -52.71799850463867,36.91299819946289 C-27.89299964904785,43.983001708984375 58.52299880981445,44.263999938964844 71.5250015258789,27.566999435424805z"/></g></g></g><g opacity="1" transform="matrix(1,0,0,1,1,-6)"><g opacity="1" transform="matrix(1,0,0,1,0,0)"><g opacity="1" transform="matrix(1,0,0,1,256.6400146484375,141.7989959716797)"><path fill="url(#__lottie_element_40357)" fill-opacity="1" d=" M73.85600280761719,18.091999053955078 C75.00700378417969,15.762999534606934 73.38800048828125,9.326000213623047 68.99800109863281,-1.2200000286102295 C56.040000915527344,-28.72599983215332 37.362998962402344,-33.98500061035156 2.2709999084472656,-34.26300048828125 C-32.83300018310547,-34.814998626708984 -56.27899932861328,-30.082000732421875 -69.03399658203125,-1.218999981880188 C-73.40299987792969,9.333000183105469 -75.00900268554688,15.770000457763672 -73.85099792480469,18.091999053955078 C-67.96700286865234,23.20400047302246 -59.18899917602539,27.045000076293945 -47.513999938964844,29.614999771118164 C-13.619000434875488,36.14799880981445 46.51499938964844,38.64099884033203 73.85600280761719,18.091999053955078z"/></g></g></g></g><g style="display: block;" transform="matrix(0.9489122033119202,0,0,0.8888718485832214,13.219268798828125,10.394159317016602)" opacity="1"><g opacity="1" transform="matrix(-1.0049099922180176,0,0,1,203.63600158691406,125.89299774169922)"><g opacity="1" transform="matrix(1,0,0,1,0,0)"><path stroke-linecap="round" stroke-linejoin="round" fill-opacity="0" stroke="rgb(58,58,58)" stroke-opacity="1" stroke-width="16" d=" M-19.68400001525879,-14.199000358581543 C-16.090999603271484,2.7009999752044678 -12.774999618530273,18.41200065612793 5.7820000648498535,19.145000457763672 C23.472999572753906,19.295000076293945 33.76900100708008,15.697999954223633 28.06399917602539,3.506999969482422 C25.4060001373291,-11.321999549865723 7.978000164031982,-22.05699920654297 -5.486000061035156,-21.542999267578125 C-17.611000061035156,-18.933000564575195 -26.530000686645508,-32.676998138427734 -19.68400001525879,-14.199000358581543z"/></g></g><g opacity="1" transform="matrix(1,0,0,1,310.635986328125,125.89299774169922)"><g opacity="1" transform="matrix(1,0,0,1,0,0)"><path stroke-linecap="round" stroke-linejoin="round" fill-opacity="0" stroke="rgb(58,58,58)" stroke-opacity="1" stroke-width="16" d=" M-22.80299949645996,-13.918000221252441 C-15.102999687194824,7.48199987411499 -9.531000137329102,15.348999977111816 9.026000022888184,16.082000732421875 C32.0260009765625,13.732000350952148 31.893999099731445,9.791999816894531 28.56399917602539,2.006999969482422 C24.86400032043457,-11.392999649047852 7.9770002365112305,-22.05699920654297 -5.486000061035156,-21.542999267578125 C-17.611000061035156,-18.933000564575195 -31.07200050354004,-35.4900016784668 -22.80299949645996,-13.918000221252441z"/></g></g><g opacity="1" transform="matrix(-1.0049099922180176,0,0,1,203.63600158691406,125.89299774169922)"><g opacity="1" transform="matrix(1,0,0,1,0,0)"><path fill="url(#__lottie_element_40360)" fill-opacity="1" d=" M-28.336000442504883,-12.793000221252441 C-24.743000030517578,4.10699987411499 -16.70800018310547,25.724000930786133 1.8489999771118164,26.457000732421875 C19.540000915527344,26.60700035095215 39.44200134277344,25.60700035095215 28.06399917602539,3.506999969482422 C25.4060001373291,-11.321999549865723 7.9770002365112305,-22.05699920654297 -5.486000061035156,-21.542999267578125 C-17.611000061035156,-18.933000564575195 -31.298999786376953,-34.35599899291992 -28.336000442504883,-12.793000221252441z"/></g></g><g opacity="1" transform="matrix(1,0,0,1,310.635986328125,125.89299774169922)"><g opacity="1" transform="matrix(1,0,0,1,0,0)"><path fill="url(#__lottie_element_40361)" fill-opacity="1" d=" M-28.336000442504883,-12.793000221252441 C-20.63599967956543,8.607000350952148 -12.692999839782715,23.224000930786133 5.863999843597412,23.957000732421875 C28.86400032043457,21.60700035095215 36.86399841308594,19.10700035095215 28.56399917602539,2.006999969482422 C24.86400032043457,-11.392999649047852 7.9770002365112305,-22.05699920654297 -5.486000061035156,-21.542999267578125 C-17.611000061035156,-18.933000564575195 -31.298999786376953,-34.35599899291992 -28.336000442504883,-12.793000221252441z"/></g></g></g></g></svg>