<svg xmlns="http://www.w3.org/2000/svg" xmlns:xlink="http://www.w3.org/1999/xlink" viewBox="0 0 512 512" width="512" height="512" style="width: 100%; height: 100%; transform: translate3d(0,0,0);" preserveAspectRatio="xMidYMid meet"><defs><clipPath id="__lottie_element_2256"><rect width="512" height="512" x="0" y="0"/></clipPath><linearGradient id="__lottie_element_2262" spreadMethod="pad" gradientUnits="userSpaceOnUse" x1="-1.0399999618530273" y1="-176.5" x2="0.9599999785423279" y2="188.88900756835938"><stop offset="0%" stop-color="rgb(253,207,24)"/><stop offset="47%" stop-color="rgb(245,171,12)"/><stop offset="93%" stop-color="rgb(237,135,0)"/></linearGradient><radialGradient id="__lottie_element_2263" spreadMethod="pad" gradientUnits="userSpaceOnUse" cx="-6.039999961853027" cy="-160.1230010986328" r="342.6724710471032" fx="-6.039999961853027" fy="-160.1230010986328"><stop offset="7%" stop-color="rgb(254,254,226)"/><stop offset="28%" stop-color="rgb(253,238,140)"/><stop offset="49%" stop-color="rgb(252,222,54)"/><stop offset="82%" stop-color="rgb(245,184,32)"/><stop offset="100%" stop-color="rgb(238,145,10)"/></radialGradient><linearGradient id="__lottie_element_2270" spreadMethod="pad" gradientUnits="userSpaceOnUse" x1="-1" y1="100" x2="-1" y2="199.7480010986328"><stop offset="0%" stop-color="rgb(246,75,142)"/><stop offset="25%" stop-color="rgb(250,111,175)"/><stop offset="52%" stop-color="rgb(255,147,209)"/><stop offset="80%" stop-color="rgb(252,110,177)"/><stop offset="100%" stop-color="rgb(249,73,145)"/></linearGradient></defs><g clip-path="url(#__lottie_element_2256)"><g style="display: block;" transform="matrix(1.0329999923706055,0,0,1.0329999923706055,256,259)" opacity="1"><g opacity="1" transform="matrix(0.9700000286102295,0,0,0.9700000286102295,-209.24868774414062,-211.63267517089844)"><g opacity="1" transform="matrix(1,0,0,1,215.6439971923828,215.64500427246094)"><path fill="url(#__lottie_element_2262)" fill-opacity="1" d=" M194.9969940185547,0 C194.9969940185547,107.69400024414062 107.69300079345703,194.9969940185547 0,194.9969940185547 C-107.69400024414062,194.9969940185547 -194.9969940185547,107.69400024414062 -194.9969940185547,0 C-194.9969940185547,-107.69400024414062 -107.69400024414062,-194.9969940185547 0,-194.9969940185547 C107.69300079345703,-194.9969940185547 194.9969940185547,-107.69400024414062 194.9969940185547,0z"/></g><g opacity="1" transform="matrix(1,0,0,1,215.70199584960938,213.7169952392578)"><path fill="url(#__lottie_element_2263)" fill-opacity="1" d=" M173.80799865722656,2.6630001068115234 C172.3040008544922,100.77200317382812 93.26899719238281,179.11199951171875 -2.7230000495910645,177.63999938964844 C-98.71399688720703,176.16799926757812 -175.31199645996094,95.44499969482422 -173.80799865722656,-2.6640000343322754 C-172.3040008544922,-100.77300262451172 -93.26899719238281,-179.11199951171875 2.7230000495910645,-177.64100646972656 C98.71399688720703,-176.16900634765625 175.31199645996094,-95.44499969482422 173.80799865722656,2.6630001068115234z"/></g><g opacity="1" transform="matrix(1,0,0,1,215.6439971923828,215.64500427246094)"><path stroke-linecap="butt" stroke-linejoin="miter" fill-opacity="0" stroke-miterlimit="10" stroke="rgb(231,105,0)" stroke-opacity="1" stroke-width="8.259" d=" M194.9969940185547,0 C194.9969940185547,107.69400024414062 107.69300079345703,194.9969940185547 0,194.9969940185547 C-107.69400024414062,194.9969940185547 -194.9969940185547,107.69400024414062 -194.9969940185547,0 C-194.9969940185547,-107.69400024414062 -107.69400024414062,-194.9969940185547 0,-194.9969940185547 C107.69300079345703,-194.9969940185547 194.9969940185547,-107.69400024414062 194.9969940185547,0z"/></g></g></g><g style="display: block;" transform="matrix(1.0329999923706055,0,0,1.0329999923706055,256,259)" opacity="1"><g opacity="1" transform="matrix(1,0,0,1,0,0)"><path fill="rgb(237,135,0)" fill-opacity="1" d=" M60.255001068115234,105.55699920654297 C60.255001068115234,105.55699920654297 60.255001068115234,158.85699462890625 60.255001068115234,158.85699462890625 C60.255001068115234,164.2270050048828 60.25600051879883,170.23599243164062 55.875999450683594,172.98699951171875 C19.822999954223633,186.41799926757812 -26.92799949645996,184.52499389648438 -56.6150016784668,172.81700134277344 C-60.904998779296875,169.0489959716797 -60.90399932861328,163.86700439453125 -60.90399932861328,158.85699462890625 C-60.90399932861328,158.85699462890625 -60.90399932861328,105.55699920654297 -60.90399932861328,105.55699920654297 C-60.90399932861328,93.15699768066406 60.255001068115234,93.15699768066406 60.255001068115234,105.55699920654297z"/></g></g><g style="display: block;" transform="matrix(1.0329999923706055,0,0,1.0329999923706055,256,259)" opacity="1"><g opacity="1" transform="matrix(1,0,0,1,0,0)"><g opacity="1" transform="matrix(1,0,0,1,0,0)"><path fill="rgb(234,172,31)" fill-opacity="1" d=" M-0.004999999888241291,145.63800048828125 C-63.637001037597656,145.63800048828125 -118.6780014038086,96.7770004272461 -116.93299865722656,60.757999420166016 C-117.00499725341797,55.79100036621094 -115.35399627685547,52.1619987487793 -110.52999877929688,52.520999908447266 C-98.30500030517578,53.43199920654297 -67.1780014038086,66.14399719238281 -0.004999999888241291,67.19499969482422 C70.25199890136719,66.09500122070312 100.10099792480469,52.630001068115234 111.18000030517578,52.55500030517578 C114.87300109863281,52.529998779296875 116.99099731445312,55.50699996948242 116.92400360107422,60.757999420166016 C118.3219985961914,94.58699798583984 63.62699890136719,145.63800048828125 -0.004999999888241291,145.63800048828125z"/></g></g><g opacity="1" transform="matrix(1,0,0,1,0,0)"><g opacity="1" transform="matrix(1,0,0,1,0,0)"><path fill="rgb(254,221,120)" fill-opacity="1" d=" M115.63500213623047,68.73500061035156 C109.96900177001953,104.88500213623047 63.62699890136719,149.0590057373047 -0.004999999888241291,149.0590057373047 C-63.637001037597656,149.0590057373047 -108,110.86499786376953 -115.677001953125,69.46700286865234 C-115.7490005493164,69.07599639892578 -118.4280014038086,58.69300079345703 -110.52999877929688,59.34400177001953 C-98.31300354003906,60.35100173950195 -67.1780014038086,74.0739974975586 -0.004999999888241291,75.125 C70.25199890136719,74.0250015258789 100.14099884033203,60.31999969482422 111.18000030517578,59.37900161743164 C118.23899841308594,58.777000427246094 115.69599914550781,68.34300231933594 115.63500213623047,68.73500061035156z"/></g></g><g opacity="1" transform="matrix(1,0,0,1,0,0)"><g opacity="1" transform="matrix(1,0,0,1,0,0)"><path fill="rgb(151,72,0)" fill-opacity="1" d=" M98.38899993896484,97.08300018310547 C77.78700256347656,120.48300170898438 43.111000061035156,141.52200317382812 0,141.52200317382812 C-42.76599884033203,141.52200317382812 -77.2300033569336,124.02999877929688 -97.05500030517578,99.93599700927734 C-97.06700134277344,99.92500305175781 -97.0770034790039,99.91400146484375 -97.08899688720703,99.89199829101562 C-115.78900146484375,78.61100006103516 -113.3499984741211,60.2400016784668 -113.26899719238281,60.16299819946289 C-107.85299682617188,55.44200134277344 -81.77200317382812,72.75700378417969 0,74.04000091552734 C91.62699890136719,72.60299682617188 113.41000366210938,51.04999923706055 114.44499969482422,62.90299987792969 C114.70700073242188,64.19300079345703 112.63500213623047,80.9020004272461 98.38899993896484,97.08300018310547z"/></g></g><g opacity="1" transform="matrix(1,0,0,1,0,0)"><path fill="rgb(99,41,0)" fill-opacity="1" d=" M98.38899993896484,97.08300018310547 C105.447998046875,86.33899688720703 106.51000213623047,78.1520004272461 106.34600067138672,75.6989974975586 C105.625,64.9020004272461 83.35900115966797,84.54399871826172 0,85.8489990234375 C-83.37000274658203,84.54399871826172 -105.427001953125,64.91799926757812 -106.35800170898438,75.6989974975586 C-106.49099731445312,77.46499633789062 -104.4280014038086,88.46499633789062 -97.08899688720703,99.89199829101562 C-111.0260009765625,84.9800033569336 -116.97200012207031,62.527000427246094 -113.26899719238281,60.16299819946289 C-107.85299682617188,55.44200134277344 -81.77200317382812,72.75700378417969 0,74.04000091552734 C91.62699890136719,72.60299682617188 113.33699798583984,51.029998779296875 114.37200164794922,62.882999420166016 C114.38400268554688,63.01599884033203 113.73899841308594,79.61599731445312 98.38899993896484,97.08300018310547z"/></g></g><g style="display: block;" transform="matrix(1.0329999923706055,0,0,1.0329999923706055,434.54681396484375,259)" opacity="1"><g opacity="0.9" transform="matrix(1,0,0,1,0,0)"><path fill="rgb(255,224,164)" fill-opacity="1" d=" M-18.343000411987305,-13.270000457763672 C-18.343000411987305,22.312999725341797 -48.66400146484375,51.159000396728516 -86.06800079345703,51.159000396728516 C-123.47200012207031,51.159000396728516 -153.79400634765625,22.312999725341797 -153.79400634765625,-13.270000457763672 C-153.79400634765625,-48.85300064086914 -123.47200012207031,-77.69999694824219 -86.06800079345703,-77.69999694824219 C-48.66400146484375,-77.69999694824219 -18.343000411987305,-48.85300064086914 -18.343000411987305,-13.270000457763672z"/></g><g opacity="1" transform="matrix(1,0,0,1,0,0)"><path fill="rgb(234,172,31)" fill-opacity="1" d=" M-18.343000411987305,-35.27000045776367 C-18.343000411987305,0.31299999356269836 -48.66400146484375,29.159000396728516 -86.06800079345703,29.159000396728516 C-123.47200012207031,29.159000396728516 -153.79400634765625,0.31299999356269836 -153.79400634765625,-35.27000045776367 C-153.79400634765625,-70.85299682617188 -123.47200012207031,-99.69999694824219 -86.06800079345703,-99.69999694824219 C-48.66400146484375,-99.69999694824219 -18.343000411987305,-70.85299682617188 -18.343000411987305,-35.27000045776367z"/></g><g opacity="1" transform="matrix(1,0,0,1,0,0)"><path fill="rgb(209,209,209)" fill-opacity="1" d=" M-21.638999938964844,-24.270000457763672 C-21.638999938964844,11.312999725341797 -50.48500061035156,40.159000396728516 -86.06800079345703,40.159000396728516 C-121.6510009765625,40.159000396728516 -150.4969940185547,11.312999725341797 -150.4969940185547,-24.270000457763672 C-150.4969940185547,-59.85300064086914 -121.6510009765625,-88.69999694824219 -86.06800079345703,-88.69999694824219 C-50.48500061035156,-88.69999694824219 -21.638999938964844,-59.85300064086914 -21.638999938964844,-24.270000457763672z"/><path stroke-linecap="round" stroke-linejoin="round" fill-opacity="0" stroke="rgb(144,128,89)" stroke-opacity="1" stroke-width="8" d=" M-21.638999938964844,-24.270000457763672 C-21.638999938964844,11.312999725341797 -50.48500061035156,40.159000396728516 -86.06800079345703,40.159000396728516 C-121.6510009765625,40.159000396728516 -150.4969940185547,11.312999725341797 -150.4969940185547,-24.270000457763672 C-150.4969940185547,-59.85300064086914 -121.6510009765625,-88.69999694824219 -86.06800079345703,-88.69999694824219 C-50.48500061035156,-88.69999694824219 -21.638999938964844,-59.85300064086914 -21.638999938964844,-24.270000457763672z"/></g><g opacity="1" transform="matrix(1,0,0,1,0,0)"><path fill="rgb(236,236,237)" fill-opacity="1" d=" M-34.678001403808594,-24.270000457763672 C-34.678001403808594,4.111999988555908 -57.68600082397461,27.1200008392334 -86.06800079345703,27.1200008392334 C-114.44999694824219,27.1200008392334 -137.45799255371094,4.111999988555908 -137.45799255371094,-24.270000457763672 C-137.45799255371094,-52.652000427246094 -114.44999694824219,-75.66100311279297 -86.06800079345703,-75.66100311279297 C-57.68600082397461,-75.66100311279297 -34.678001403808594,-52.652000427246094 -34.678001403808594,-24.270000457763672z"/></g></g><g style="display: block;" transform="matrix(1.0329999923706055,0,0,1.0329999923706055,434.9806823730469,259)" opacity="1"><g opacity="1" transform="matrix(1,0,0,1,0,0)"><path fill="rgb(1,1,1)" fill-opacity="1" d=" M-64.51300048828125,-24.624000549316406 C-64.51300048828125,-12.967000007629395 -74.16400146484375,-3.5179998874664307 -86.06800079345703,-3.5179998874664307 C-97.97200012207031,-3.5179998874664307 -107.62300109863281,-12.967000007629395 -107.62300109863281,-24.624000549316406 C-107.62300109863281,-36.28099822998047 -97.97200012207031,-45.73099899291992 -86.06800079345703,-45.73099899291992 C-74.16400146484375,-45.73099899291992 -64.51300048828125,-36.28099822998047 -64.51300048828125,-24.624000549316406z"/></g><g opacity="1" transform="matrix(1,0,0,1,0,0)"><path stroke-linecap="round" stroke-linejoin="round" fill-opacity="0" stroke="rgb(255,255,255)" stroke-opacity="1" stroke-width="6" d=" M-69.98699951171875,-32.816001892089844 C-68.65899658203125,-33.64500045776367 -67.26699829101562,-34.4900016784668 -65.81600189208984,-35.34400177001953"/></g></g><g style="display: block;" transform="matrix(1.0329999923706055,0,0,1.0329999923706055,256,259)" opacity="1"><g opacity="0.9" transform="matrix(1,0,0,1,0,0)"><path fill="rgb(255,224,164)" fill-opacity="1" d=" M-33.51100158691406,-0.921999990940094 C-33.51100158691406,5.800000190734863 -53.96500015258789,-1.625 -81.81800079345703,-1.625 C-109.6709976196289,-1.625 -127.375,7.675000190734863 -127.375,0.953000009059906 C-127.375,-5.769000053405762 -109.9209976196289,-18.3439998626709 -82.06800079345703,-18.3439998626709 C-54.21500015258789,-18.3439998626709 -33.51100158691406,-7.644000053405762 -33.51100158691406,-0.921999990940094z"/></g><g opacity="1" transform="matrix(1,0,0,1,0,0)"><path fill="rgb(234,172,31)" fill-opacity="1" d=" M-33.51100158691406,-5.078000068664551 C-33.51100158691406,1.6440000534057617 -53.96500015258789,-5.781000137329102 -81.81800079345703,-5.781000137329102 C-109.6709976196289,-5.781000137329102 -127.375,3.5190000534057617 -127.375,-3.203000068664551 C-127.375,-9.925000190734863 -109.9209976196289,-22.5 -82.06800079345703,-22.5 C-54.21500015258789,-22.5 -33.51100158691406,-11.800000190734863 -33.51100158691406,-5.078000068664551z"/></g><g opacity="1" transform="matrix(1,0,0,1,0,0)"><path fill="rgb(209,209,209)" fill-opacity="1" d=" M-35.965999603271484,-3 C-35.965999603271484,3.7219998836517334 -55.32099914550781,-3.703000068664551 -81.81800079345703,-3.703000068664551 C-108.31500244140625,-3.703000068664551 -124.91999816894531,5.5970001220703125 -124.91999816894531,-1.125 C-124.91999816894531,-7.8470001220703125 -108.56500244140625,-20.422000885009766 -82.06800079345703,-20.422000885009766 C-55.57099914550781,-20.422000885009766 -35.965999603271484,-9.722000122070312 -35.965999603271484,-3z"/><path stroke-linecap="round" stroke-linejoin="round" fill-opacity="0" stroke="rgb(144,128,89)" stroke-opacity="1" stroke-width="8" d=" M-35.965999603271484,-3 C-35.965999603271484,3.7219998836517334 -55.32099914550781,-3.703000068664551 -81.81800079345703,-3.703000068664551 C-108.31500244140625,-3.703000068664551 -124.91999816894531,5.5970001220703125 -124.91999816894531,-1.125 C-124.91999816894531,-7.8470001220703125 -108.56500244140625,-20.422000885009766 -82.06800079345703,-20.422000885009766 C-55.57099914550781,-20.422000885009766 -35.965999603271484,-9.722000122070312 -35.965999603271484,-3z"/></g><g opacity="1" transform="matrix(1,0,0,1,0,0)"><path fill="rgb(236,236,237)" fill-opacity="1" d=" M-45.67499923706055,-3 C-45.67499923706055,2.361999988555908 -60.68299865722656,-6.165999889373779 -81.81800079345703,-6.165999889373779 C-102.9530029296875,-6.165999889373779 -115.21099853515625,4.236999988555908 -115.21099853515625,-1.125 C-115.21099853515625,-6.486999988555908 -103.2030029296875,-17.958999633789062 -82.06800079345703,-17.958999633789062 C-60.93299865722656,-17.958999633789062 -45.67499923706055,-8.362000465393066 -45.67499923706055,-3z"/></g></g><g style="display: block;" transform="matrix(1.0329999923706055,0,0,1.0329999923706055,256,259)" opacity="1"><g opacity="1" transform="matrix(1,0,0,1,0,0)"><path fill="rgb(1,1,1)" fill-opacity="1" d=" M-64.51300048828125,-10 C-64.51300048828125,-7.928999900817871 -74.16400146484375,-6.25 -86.06800079345703,-6.25 C-97.97200012207031,-6.25 -107.62300109863281,-7.928999900817871 -107.62300109863281,-10 C-107.62300109863281,-12.071000099182129 -97.97200012207031,-13.75 -86.06800079345703,-13.75 C-74.16400146484375,-13.75 -64.51300048828125,-12.071000099182129 -64.51300048828125,-10z"/></g><g opacity="1" transform="matrix(1,0,0,1,0,0)"><path stroke-linecap="round" stroke-linejoin="round" fill-opacity="0" stroke="rgb(255,255,255)" stroke-opacity="1" stroke-width="6" d=" M-69.98699951171875,-11.454999923706055 C-68.65899658203125,-11.60200023651123 -67.26699829101562,-11.753000259399414 -65.81600189208984,-11.904999732971191"/></g></g><g style="display: block;" transform="matrix(1.0329999923706055,0,0,1.0329999923706055,253.9340057373047,259)" opacity="1"><g opacity="1" transform="matrix(1,0,0,1,0,0)"><path fill="rgb(234,172,31)" fill-opacity="1" d=" M-76.77400207519531,-28.70400047302246 C-107.44000244140625,-28.666000366210938 -132.468994140625,-8.670000076293945 -126.91200256347656,3.9149999618530273 C-122.9229965209961,12.949000358581543 -106.2020034790039,-7.889999866485596 -77.77400207519531,-6.870999813079834 C-45.78300094604492,-5.724999904632568 -32.060001373291016,8.670999526977539 -29.29199981689453,1.694000005722046 C-24.534000396728516,-10.29800033569336 -46.12799835205078,-28.742000579833984 -76.77400207519531,-28.70400047302246z"/></g><g opacity="1" transform="matrix(1,0,0,1,0,0)"><path fill="rgb(255,225,156)" fill-opacity="1" d=" M-76.77400207519531,-21.628000259399414 C-112.08300018310547,-21.065000534057617 -132.1959991455078,-3.25600004196167 -125.7020034790039,6.093999862670898 C-121.26300048828125,12.484999656677246 -106.2020034790039,1.1100000143051147 -77.77400207519531,2.128999948501587 C-45.78300094604492,3.2750000953674316 -33.07600021362305,10.869999885559082 -30.05299949645996,4 C-24.94300079345703,-7.613999843597412 -46.13199996948242,-22.117000579833984 -76.77400207519531,-21.628000259399414z"/></g><g opacity="1" transform="matrix(1,0,0,1,0,0)"><path fill="rgb(151,72,0)" fill-opacity="1" d=" M-76.77400207519531,-23.70400047302246 C-107.44000244140625,-23.666000366210938 -130.12600708007812,-5.201000213623047 -125.7020034790039,2.0940001010894775 C-120.58100128173828,10.538000106811523 -106.2020034790039,-2.890000104904175 -77.77400207519531,-1.871000051498413 C-45.78300094604492,-0.7250000238418579 -32.72700119018555,7.013999938964844 -30.05299949645996,0 C-27.378999710083008,-7.013999938964844 -46.12799835205078,-23.742000579833984 -76.77400207519531,-23.70400047302246z"/></g><g opacity="1" transform="matrix(1,0,0,1,0,0)"><path fill="rgb(99,41,0)" fill-opacity="1" d=" M-30.05500030517578,-0.003000000026077032 C-30.30500030517578,0.6570000052452087 -30.643999099731445,1.187000036239624 -31.083999633789062,1.597000002861023 C-34.040000915527344,-6.763999938964844 -52.494998931884766,-17.732999801635742 -76.7750015258789,-17.71299934387207 C-100.82499694824219,-17.683000564575195 -121.68000030517578,-6.085999965667725 -124.96399688720703,3.1070001125335693 C-125.2239990234375,2.806999921798706 -125.4739990234375,2.4769999980926514 -125.7040023803711,2.0969998836517334 C-130.12399291992188,-5.203000068664551 -107.44499969482422,-23.663000106811523 -76.7750015258789,-23.702999114990234 C-46.125,-23.743000030517578 -27.375,-7.013000011444092 -30.05500030517578,-0.003000000026077032z"/></g></g><g style="display: block;" transform="matrix(1.0329999923706055,0,0,1.0329999923706055,256,259)" opacity="1"><g opacity="1" transform="matrix(1,0,0,1,0,0)"><path fill="url(#__lottie_element_2270)" fill-opacity="1" d=" M-36.58100128173828,92.47599792480469 C-44.064998626708984,95.50399780273438 -49.358001708984375,102.66500091552734 -49.358001708984375,110.96299743652344 C-49.358001708984375,110.96299743652344 -49.358001708984375,159.31900024414062 -49.358001708984375,159.31900024414062 C-49.358001708984375,170.33399963378906 -39.849998474121094,202.05599975585938 -0.3240000009536743,202.05599975585938 C37.91999816894531,202.05599975585938 48.70899963378906,170.33399963378906 48.70899963378906,159.31900024414062 C48.70899963378906,159.31900024414062 48.70899963378906,110.96299743652344 48.70899963378906,110.96299743652344 C48.70899963378906,102.7020034790039 43.4640007019043,95.56700134277344 36.03200149536133,92.51599884033203"/><path stroke-linecap="round" stroke-linejoin="round" fill-opacity="0" stroke="rgb(223,51,93)" stroke-opacity="1" stroke-width="8" d=" M-36.58100128173828,92.47599792480469 C-44.064998626708984,95.50399780273438 -49.358001708984375,102.66500091552734 -49.358001708984375,110.96299743652344 C-49.358001708984375,110.96299743652344 -49.358001708984375,159.31900024414062 -49.358001708984375,159.31900024414062 C-49.358001708984375,170.33399963378906 -39.849998474121094,202.05599975585938 -0.3240000009536743,202.05599975585938 C37.91999816894531,202.05599975585938 48.70899963378906,170.33399963378906 48.70899963378906,159.31900024414062 C48.70899963378906,159.31900024414062 48.70899963378906,110.96299743652344 48.70899963378906,110.96299743652344 C48.70899963378906,102.7020034790039 43.4640007019043,95.56700134277344 36.03200149536133,92.51599884033203"/></g><g opacity="0.7000000000000001" transform="matrix(1,0,0,1,0,0)"><path stroke-linecap="round" stroke-linejoin="round" fill-opacity="0" stroke="rgb(223,51,93)" stroke-opacity="1" stroke-width="8" d=" M-0.16699999570846558,98.22200012207031 C-0.16699999570846558,98.22200012207031 -0.16699999570846558,141.9250030517578 -0.16699999570846558,141.9250030517578"/></g><g opacity="0.4" transform="matrix(1,0,0,1,0,0)"><path fill="rgb(183,0,64)" fill-opacity="1" d=" M47.82699966430664,96.61900329589844 C43.37799835205078,103.85900115966797 21.93600082397461,109.53500366210938 -0.3190000057220459,109.53500366210938 C-22.573999404907227,109.53500366210938 -43.95100021362305,103.85900115966797 -48.39899826049805,96.61900329589844 C-43.96099853515625,90.2979965209961 -35.99700164794922,86.94300079345703 -28.472999572753906,86.94300079345703 C-28.472999572753906,86.94300079345703 -12.164999961853027,86.94300079345703 -12.164999961853027,86.94300079345703 C-7.895999908447266,86.94300079345703 -3.5850000381469727,88.7239990234375 -0.460999995470047,91.75800323486328 C1.0720000267028809,90.00599670410156 5.988999843597412,86.94300079345703 11.416999816894531,86.94300079345703 C11.416999816894531,86.94300079345703 27.892000198364258,86.94300079345703 27.892000198364258,86.94300079345703 C35.38800048828125,86.94300079345703 43.09000015258789,90.33100128173828 47.82699966430664,96.61900329589844z"/></g><g opacity="1" transform="matrix(1,0,0,1,0,0)"><path stroke-linecap="round" stroke-linejoin="round" fill-opacity="0" stroke="rgb(159,22,70)" stroke-opacity="1" stroke-width="8" d=" M-44.61000061035156,98.24299621582031 C-40.80099868774414,93.78800201416016 -35.04499816894531,90.93599700927734 -28.632999420166016,90.93599700927734 C-28.632999420166016,90.93599700927734 -12.234999656677246,90.93599700927734 -12.234999656677246,90.93599700927734 C-6.834000110626221,90.74600219726562 -2.1080000400543213,95.88099670410156 -2.1080000400543213,95.88099670410156 C-1.194000005722046,96.91799926757812 0.47999998927116394,96.86599731445312 1.3240000009536743,95.7760009765625 C1.3240000009536743,95.7760009765625 1.3240000009536743,95.7760009765625 1.3240000009536743,95.7760009765625 C3.681999921798706,92.7300033569336 7.388999938964844,90.93599700927734 11.326000213623047,90.93599700927734 C11.326000213623047,90.93599700927734 27.985000610351562,90.93599700927734 27.985000610351562,90.93599700927734 C34.39500045776367,90.93599700927734 40.150001525878906,93.78600311279297 43.95899963378906,98.23899841308594"/></g></g></g></svg>