<svg xmlns="http://www.w3.org/2000/svg" xmlns:xlink="http://www.w3.org/1999/xlink" viewBox="0 0 512 512" width="512" height="512" style="width: 100%; height: 100%; transform: translate3d(0,0,0);" preserveAspectRatio="xMidYMid meet"><defs><clipPath id="__lottie_element_1901"><rect width="512" height="512" x="0" y="0"/></clipPath><radialGradient id="__lottie_element_1905" spreadMethod="pad" gradientUnits="userSpaceOnUse"><stop/><stop/><stop/></radialGradient><mask id="__lottie_element_1907"><path fill="url(#__lottie_element_1906)"/></mask><radialGradient id="__lottie_element_1906" spreadMethod="pad" gradientUnits="userSpaceOnUse"><stop stop-color="rgb(255,255,255)"/><stop stop-color="rgb(255,255,255)"/><stop stop-color="rgb(255,255,255)"/></radialGradient><radialGradient id="__lottie_element_1912" spreadMethod="pad" gradientUnits="userSpaceOnUse"><stop/><stop/><stop/></radialGradient><mask id="__lottie_element_1914"><path fill="url(#__lottie_element_1913)"/></mask><radialGradient id="__lottie_element_1913" spreadMethod="pad" gradientUnits="userSpaceOnUse"><stop stop-color="rgb(255,255,255)"/><stop stop-color="rgb(255,255,255)"/><stop stop-color="rgb(255,255,255)"/></radialGradient><linearGradient id="__lottie_element_1918" spreadMethod="pad" gradientUnits="userSpaceOnUse" x1="0.18000000715255737" y1="-111.94999694824219" x2="0.18000000715255737" y2="105.21600341796875"><stop offset="0%" stop-color="rgb(255,237,91)"/><stop offset="58%" stop-color="rgb(255,187,45)"/><stop offset="100%" stop-color="rgb(255,138,0)"/></linearGradient><linearGradient id="__lottie_element_1919" spreadMethod="pad" gradientUnits="userSpaceOnUse" x1="0.18000000715255737" y1="-99.94999694824219" x2="0.18000000715255737" y2="99.5479965209961"><stop offset="3%" stop-color="rgb(255,255,193)"/><stop offset="32%" stop-color="rgb(255,240,122)"/><stop offset="51%" stop-color="rgb(255,226,52)"/><stop offset="72%" stop-color="rgb(255,193,28)"/><stop offset="100%" stop-color="rgb(255,159,3)"/></linearGradient><linearGradient id="__lottie_element_1924" spreadMethod="pad" gradientUnits="userSpaceOnUse" x1="-37.40700149536133" y1="-0.949999988079071" x2="54.917999267578125" y2="-0.017999999225139618"><stop offset="0%" stop-color="rgb(255,237,110)"/><stop offset="13%" stop-color="rgb(255,232,81)"/><stop offset="27%" stop-color="rgb(255,226,52)"/><stop offset="66%" stop-color="rgb(255,193,28)"/><stop offset="100%" stop-color="rgb(255,159,3)"/></linearGradient><linearGradient id="__lottie_element_1928" spreadMethod="pad" gradientUnits="userSpaceOnUse" x1="-34.641998291015625" y1="-35.790000915527344" x2="31.708999633789062" y2="30.56100082397461"><stop offset="0%" stop-color="rgb(255,237,110)"/><stop offset="13%" stop-color="rgb(255,232,81)"/><stop offset="27%" stop-color="rgb(255,226,52)"/><stop offset="66%" stop-color="rgb(255,193,28)"/><stop offset="100%" stop-color="rgb(255,159,3)"/></linearGradient><linearGradient id="__lottie_element_1932" spreadMethod="pad" gradientUnits="userSpaceOnUse" x1="1.1829999685287476" y1="-32.540000915527344" x2="0.25" y2="51.391998291015625"><stop offset="0%" stop-color="rgb(255,237,110)"/><stop offset="13%" stop-color="rgb(255,232,81)"/><stop offset="27%" stop-color="rgb(255,226,52)"/><stop offset="66%" stop-color="rgb(255,193,28)"/><stop offset="100%" stop-color="rgb(255,159,3)"/></linearGradient><linearGradient id="__lottie_element_1936" spreadMethod="pad" gradientUnits="userSpaceOnUse" x1="34.018001556396484" y1="-32.77000045776367" x2="-28.46500015258789" y2="27.847000122070312"><stop offset="0%" stop-color="rgb(255,237,110)"/><stop offset="13%" stop-color="rgb(255,232,81)"/><stop offset="27%" stop-color="rgb(255,226,52)"/><stop offset="66%" stop-color="rgb(255,193,28)"/><stop offset="100%" stop-color="rgb(255,159,3)"/></linearGradient><linearGradient id="__lottie_element_1940" spreadMethod="pad" gradientUnits="userSpaceOnUse" x1="25.76799964904785" y1="-0.949999988079071" x2="-44.29899978637695" y2="-0.949999988079071"><stop offset="0%" stop-color="rgb(255,237,110)"/><stop offset="13%" stop-color="rgb(255,232,81)"/><stop offset="27%" stop-color="rgb(255,226,52)"/><stop offset="66%" stop-color="rgb(255,193,28)"/><stop offset="100%" stop-color="rgb(255,159,3)"/></linearGradient><linearGradient id="__lottie_element_1944" spreadMethod="pad" gradientUnits="userSpaceOnUse" x1="0.003000000026077032" y1="-307.114990234375" x2="0.003000000026077032" y2="81.03800201416016"><stop offset="0%" stop-color="rgb(255,237,110)"/><stop offset="13%" stop-color="rgb(255,232,81)"/><stop offset="27%" stop-color="rgb(255,226,52)"/><stop offset="66%" stop-color="rgb(255,193,28)"/><stop offset="100%" stop-color="rgb(255,159,3)"/></linearGradient><linearGradient id="__lottie_element_1948" spreadMethod="pad" gradientUnits="userSpaceOnUse" x1="0.18299999833106995" y1="-370.3599853515625" x2="0.18299999833106995" y2="17.79400062561035"><stop offset="0%" stop-color="rgb(255,237,110)"/><stop offset="13%" stop-color="rgb(255,232,81)"/><stop offset="27%" stop-color="rgb(255,226,52)"/><stop offset="66%" stop-color="rgb(255,193,28)"/><stop offset="100%" stop-color="rgb(255,159,3)"/></linearGradient><linearGradient id="__lottie_element_1952" spreadMethod="pad" gradientUnits="userSpaceOnUse" x1="0.33799999952316284" y1="-307.125" x2="0.33799999952316284" y2="81.02899932861328"><stop offset="0%" stop-color="rgb(255,237,110)"/><stop offset="13%" stop-color="rgb(255,232,81)"/><stop offset="27%" stop-color="rgb(255,226,52)"/><stop offset="66%" stop-color="rgb(255,193,28)"/><stop offset="100%" stop-color="rgb(255,159,3)"/></linearGradient></defs><g clip-path="url(#__lottie_element_1901)"><g style="display: block;" transform="matrix(1,0,0,1,-0.001007080078125,0)" opacity="1"><g opacity="1" transform="matrix(1,0,0,1,136.84500122070312,375.17498779296875)"><path fill="url(#__lottie_element_1952)" fill-opacity="1" d=" M34.45000076293945,4.775000095367432 C34.45000076293945,4.775000095367432 -34.45000076293945,34.46500015258789 -34.45000076293945,34.46500015258789 C-34.45000076293945,34.46500015258789 -4.789999961853027,-34.46500015258789 -4.789999961853027,-34.46500015258789 C5.739999771118164,-19.084999084472656 19.059999465942383,-5.755000114440918 34.45000076293945,4.775000095367432z"/></g><g opacity="1" transform="matrix(1,0,0,1,136.84500122070312,375.17498779296875)"><path stroke-linecap="round" stroke-linejoin="round" fill-opacity="0" stroke="rgb(229,103,0)" stroke-opacity="1" stroke-width="8" d=" M34.45000076293945,4.775000095367432 C34.45000076293945,4.775000095367432 -34.45000076293945,34.46500015258789 -34.45000076293945,34.46500015258789 C-34.45000076293945,34.46500015258789 -4.789999961853027,-34.46500015258789 -4.789999961853027,-34.46500015258789 C5.739999771118164,-19.084999084472656 19.059999465942383,-5.755000114440918 34.45000076293945,4.775000095367432z"/></g></g><g style="display: block;" transform="matrix(1,0,0,1,-0.001007080078125,0)" opacity="1"><g opacity="1" transform="matrix(1,0,0,1,256,438.4100036621094)"><path fill="url(#__lottie_element_1948)" fill-opacity="1" d=" M27.725000381469727,-34.849998474121094 C27.725000381469727,-34.849998474121094 0.02500000037252903,34.849998474121094 0.02500000037252903,34.849998474121094 C0.02500000037252903,34.849998474121094 -27.725000381469727,-34.849998474121094 -27.725000381469727,-34.849998474121094 C-18.735000610351562,-33.16999816894531 -9.46500015258789,-32.290000915527344 0.004999999888241291,-32.290000915527344 C9.475000381469727,-32.290000915527344 18.7450008392334,-33.16999816894531 27.725000381469727,-34.849998474121094z"/></g><g opacity="1" transform="matrix(1,0,0,1,256,438.4100036621094)"><path stroke-linecap="round" stroke-linejoin="round" fill-opacity="0" stroke="rgb(229,103,0)" stroke-opacity="1" stroke-width="8" d=" M27.725000381469727,-34.849998474121094 C27.725000381469727,-34.849998474121094 0.02500000037252903,34.849998474121094 0.02500000037252903,34.849998474121094 C0.02500000037252903,34.849998474121094 -27.725000381469727,-34.849998474121094 -27.725000381469727,-34.849998474121094 C-18.735000610351562,-33.16999816894531 -9.46500015258789,-32.290000915527344 0.004999999888241291,-32.290000915527344 C9.475000381469727,-32.290000915527344 18.7450008392334,-33.16999816894531 27.725000381469727,-34.849998474121094z"/></g></g><g style="display: block;" transform="matrix(1,0,0,1,-0.001007080078125,0)" opacity="1"><g opacity="1" transform="matrix(1,0,0,1,375.17999267578125,375.1650085449219)"><path fill="url(#__lottie_element_1944)" fill-opacity="1" d=" M34.46500015258789,34.44499969482422 C34.46500015258789,34.44499969482422 -34.46500015258789,4.784999847412109 -34.46500015258789,4.784999847412109 C-19.075000762939453,-5.744999885559082 -5.764999866485596,-19.065000534057617 4.764999866485596,-34.44499969482422 C4.764999866485596,-34.44499969482422 34.46500015258789,34.44499969482422 34.46500015258789,34.44499969482422z"/></g><g opacity="1" transform="matrix(1,0,0,1,375.17999267578125,375.1650085449219)"><path stroke-linecap="round" stroke-linejoin="round" fill-opacity="0" stroke="rgb(229,103,0)" stroke-opacity="1" stroke-width="8" d=" M34.46500015258789,34.44499969482422 C34.46500015258789,34.44499969482422 -34.46500015258789,4.784999847412109 -34.46500015258789,4.784999847412109 C-19.075000762939453,-5.744999885559082 -5.764999866485596,-19.065000534057617 4.764999866485596,-34.44499969482422 C4.764999866485596,-34.44499969482422 34.46500015258789,34.44499969482422 34.46500015258789,34.44499969482422z"/></g></g><g style="display: block;" transform="matrix(1,0,0,1,-0.001007080078125,0)" opacity="1"><g opacity="1" transform="matrix(1,0,0,1,438.4150085449219,256)"><path fill="url(#__lottie_element_1940)" fill-opacity="1" d=" M-34.849998474121094,27.729999542236328 C-33.16999816894531,18.739999771118164 -32.290000915527344,9.470000267028809 -32.290000915527344,0 C-32.290000915527344,-9.470000267028809 -33.16999816894531,-18.739999771118164 -34.849998474121094,-27.729999542236328 C-34.849998474121094,-27.729999542236328 34.849998474121094,-0.019999999552965164 34.849998474121094,-0.019999999552965164 C34.849998474121094,-0.019999999552965164 -34.849998474121094,27.729999542236328 -34.849998474121094,27.729999542236328z"/></g><g opacity="1" transform="matrix(1,0,0,1,438.4150085449219,256)"><path stroke-linecap="round" stroke-linejoin="round" fill-opacity="0" stroke="rgb(234,128,0)" stroke-opacity="1" stroke-width="8" d=" M-34.849998474121094,27.729999542236328 C-33.16999816894531,18.739999771118164 -32.290000915527344,9.470000267028809 -32.290000915527344,0 C-32.290000915527344,-9.470000267028809 -33.16999816894531,-18.739999771118164 -34.849998474121094,-27.729999542236328 C-34.849998474121094,-27.729999542236328 34.849998474121094,-0.019999999552965164 34.849998474121094,-0.019999999552965164 C34.849998474121094,-0.019999999552965164 -34.849998474121094,27.729999542236328 -34.849998474121094,27.729999542236328z"/></g><g opacity="1" transform="matrix(1,0,0,1,438.4150085449219,256)"><path stroke-linecap="round" stroke-linejoin="round" fill-opacity="0" stroke="rgb(229,103,0)" stroke-opacity="1" stroke-width="8" d=" M34.849998474121094,-0.019999999552965164 C34.849998474121094,-0.019999999552965164 -34.849998474121094,27.729999542236328 -34.849998474121094,27.729999542236328 C-33.16999816894531,18.739999771118164 -32.290000915527344,9.470000267028809 -32.290000915527344,0 C-32.290000915527344,-9.470000267028809 -33.16999816894531,-18.739999771118164 -34.849998474121094,-27.729999542236328"/></g></g><g style="display: block;" transform="matrix(1,0,0,1,-0.001007080078125,0)" opacity="1"><g opacity="1" transform="matrix(1,0,0,1,375.1650085449219,136.82000732421875)"><path fill="url(#__lottie_element_1936)" fill-opacity="1" d=" M34.45000076293945,-34.459999084472656 C34.45000076293945,-34.459999084472656 4.78000020980835,34.459999084472656 4.78000020980835,34.459999084472656 C-5.75,19.079999923706055 -19.059999465942383,5.760000228881836 -34.45000076293945,-4.769999980926514 C-34.45000076293945,-4.769999980926514 34.45000076293945,-34.459999084472656 34.45000076293945,-34.459999084472656z"/></g><g opacity="1" transform="matrix(1,0,0,1,375.1650085449219,136.82000732421875)"><path stroke-linecap="round" stroke-linejoin="round" fill-opacity="0" stroke="rgb(234,128,0)" stroke-opacity="1" stroke-width="8" d=" M34.45000076293945,-34.459999084472656 C34.45000076293945,-34.459999084472656 4.78000020980835,34.459999084472656 4.78000020980835,34.459999084472656 C-5.75,19.079999923706055 -19.059999465942383,5.760000228881836 -34.45000076293945,-4.769999980926514 C-34.45000076293945,-4.769999980926514 34.45000076293945,-34.459999084472656 34.45000076293945,-34.459999084472656z"/></g><g opacity="1" transform="matrix(1,0,0,1,360.3299865722656,151.6649932861328)"><path stroke-linecap="round" stroke-linejoin="round" fill-opacity="0" stroke="rgb(226,91,0)" stroke-opacity="1" stroke-width="8" d=" M19.614999771118164,19.614999771118164 C9.085000038146973,4.235000133514404 -4.224999904632568,-9.085000038146973 -19.614999771118164,-19.614999771118164"/></g></g><g style="display: block;" transform="matrix(1,0,0,1,-0.001007080078125,0)" opacity="1"><g opacity="1" transform="matrix(1,0,0,1,256,73.58999633789062)"><path fill="url(#__lottie_element_1932)" fill-opacity="1" d=" M27.725000381469727,34.849998474121094 C18.7450008392334,33.16999816894531 9.475000381469727,32.290000915527344 0.004999999888241291,32.290000915527344 C-9.46500015258789,32.290000915527344 -18.735000610351562,33.16999816894531 -27.725000381469727,34.849998474121094 C-27.725000381469727,34.849998474121094 -0.02500000037252903,-34.849998474121094 -0.02500000037252903,-34.849998474121094 C-0.02500000037252903,-34.849998474121094 27.725000381469727,34.849998474121094 27.725000381469727,34.849998474121094z"/></g><g opacity="1" transform="matrix(1,0,0,1,256,73.58999633789062)"><path stroke-linecap="round" stroke-linejoin="round" fill-opacity="0" stroke="rgb(234,128,0)" stroke-opacity="1" stroke-width="8" d=" M27.725000381469727,34.849998474121094 C18.7450008392334,33.16999816894531 9.475000381469727,32.290000915527344 0.004999999888241291,32.290000915527344 C-9.46500015258789,32.290000915527344 -18.735000610351562,33.16999816894531 -27.725000381469727,34.849998474121094 C-27.725000381469727,34.849998474121094 -0.02500000037252903,-34.849998474121094 -0.02500000037252903,-34.849998474121094 C-0.02500000037252903,-34.849998474121094 27.725000381469727,34.849998474121094 27.725000381469727,34.849998474121094z"/></g><g opacity="1" transform="matrix(1,0,0,1,256,107.16000366210938)"><path stroke-linecap="round" stroke-linejoin="round" fill-opacity="0" stroke="rgb(226,91,0)" stroke-opacity="1" stroke-width="8" d=" M27.725000381469727,1.2799999713897705 C18.7450008392334,-0.4000000059604645 9.475000381469727,-1.2799999713897705 0.004999999888241291,-1.2799999713897705 C-9.46500015258789,-1.2799999713897705 -18.735000610351562,-0.4000000059604645 -27.725000381469727,1.2799999713897705"/></g></g><g style="display: block;" transform="matrix(1,0,0,1,-0.001007080078125,0)" opacity="1"><g opacity="1" transform="matrix(1,0,0,1,136.8249969482422,136.83999633789062)"><path fill="url(#__lottie_element_1928)" fill-opacity="1" d=" M34.470001220703125,-4.789999961853027 C19.079999923706055,5.739999771118164 5.760000228881836,19.06999969482422 -4.769999980926514,34.45000076293945 C-4.769999980926514,34.45000076293945 -34.470001220703125,-34.45000076293945 -34.470001220703125,-34.45000076293945 C-34.470001220703125,-34.45000076293945 34.470001220703125,-4.789999961853027 34.470001220703125,-4.789999961853027z"/></g><g opacity="1" transform="matrix(1,0,0,1,136.8249969482422,136.83999633789062)"><path stroke-linecap="round" stroke-linejoin="round" fill-opacity="0" stroke="rgb(234,128,0)" stroke-opacity="1" stroke-width="8" d=" M34.470001220703125,-4.789999961853027 C19.079999923706055,5.739999771118164 5.760000228881836,19.06999969482422 -4.769999980926514,34.45000076293945 C-4.769999980926514,34.45000076293945 -34.470001220703125,-34.45000076293945 -34.470001220703125,-34.45000076293945 C-34.470001220703125,-34.45000076293945 34.470001220703125,-4.789999961853027 34.470001220703125,-4.789999961853027z"/></g><g opacity="1" transform="matrix(1,0,0,1,151.6750030517578,151.6699981689453)"><path stroke-linecap="round" stroke-linejoin="round" fill-opacity="0" stroke="rgb(226,91,0)" stroke-opacity="1" stroke-width="8" d=" M19.6200008392334,-19.6200008392334 C4.230000019073486,-9.09000015258789 -9.09000015258789,4.239999771118164 -19.6200008392334,19.6200008392334"/></g></g><g style="display: block;" transform="matrix(1,0,0,1,-0.001007080078125,0)" opacity="1"><g opacity="1" transform="matrix(1,0,0,1,73.58999633789062,256)"><path fill="url(#__lottie_element_1924)" fill-opacity="1" d=" M32.29499816894531,0 C32.29499816894531,9.479999542236328 33.17499923706055,18.75 34.85499954223633,27.739999771118164 C34.85499954223633,27.739999771118164 -34.85499954223633,0.019999999552965164 -34.85499954223633,0.019999999552965164 C-34.85499954223633,0.019999999552965164 34.85499954223633,-27.739999771118164 34.85499954223633,-27.739999771118164 C33.17499923706055,-18.75 32.29499816894531,-9.479999542236328 32.29499816894531,0z"/></g><g opacity="1" transform="matrix(1,0,0,1,73.58999633789062,256)"><path stroke-linecap="round" stroke-linejoin="round" fill-opacity="0" stroke="rgb(234,128,0)" stroke-opacity="1" stroke-width="8" d=" M32.29499816894531,0 C32.29499816894531,9.479999542236328 33.17499923706055,18.75 34.85499954223633,27.739999771118164 C34.85499954223633,27.739999771118164 -34.85499954223633,0.019999999552965164 -34.85499954223633,0.019999999552965164 C-34.85499954223633,0.019999999552965164 34.85499954223633,-27.739999771118164 34.85499954223633,-27.739999771118164 C33.17499923706055,-18.75 32.29499816894531,-9.479999542236328 32.29499816894531,0z"/></g><g opacity="1" transform="matrix(1,0,0,1,73.58999633789062,256)"><path stroke-linecap="round" stroke-linejoin="round" fill-opacity="0" stroke="rgb(229,103,0)" stroke-opacity="1" stroke-width="8" d=" M34.85499954223633,-27.739999771118164 C33.17499923706055,-18.75 32.29499816894531,-9.479999542236328 32.29499816894531,0 C32.29499816894531,9.479999542236328 33.17499923706055,18.75 34.85499954223633,27.739999771118164 C34.85499954223633,27.739999771118164 -34.85499954223633,0.019999999552965164 -34.85499954223633,0.019999999552965164"/></g></g><g style="display: block;" transform="matrix(1,0,0,1,0,0)" opacity="1"><g opacity="1" transform="matrix(1,0,0,1,256.00201416015625,256)"><path fill="url(#__lottie_element_1918)" fill-opacity="1" d=" M128.6739959716797,0 C128.6739959716797,71.06400299072266 71.06500244140625,128.6739959716797 0,128.6739959716797 C-71.06400299072266,128.6739959716797 -128.6739959716797,71.06400299072266 -128.6739959716797,0 C-128.6739959716797,-71.06400299072266 -71.06400299072266,-128.6739959716797 0,-128.6739959716797 C71.06500244140625,-128.6739959716797 128.6739959716797,-71.06400299072266 128.6739959716797,0z"/></g><g opacity="1" transform="matrix(1,0,0,1,256.00201416015625,256)"><path stroke-linecap="round" stroke-linejoin="round" fill-opacity="0" stroke="rgb(229,103,0)" stroke-opacity="1" stroke-width="8" d=" M128.6739959716797,0 C128.6739959716797,71.06400299072266 71.06500244140625,128.6739959716797 0,128.6739959716797 C-71.06400299072266,128.6739959716797 -128.6739959716797,71.06400299072266 -128.6739959716797,0 C-128.6739959716797,-71.06400299072266 -71.06400299072266,-128.6739959716797 0,-128.6739959716797 C71.06500244140625,-128.6739959716797 128.6739959716797,-71.06400299072266 128.6739959716797,0z"/></g><g opacity="1" transform="matrix(1,0,0,1,256.00201416015625,191.66299438476562)"><path stroke-linecap="round" stroke-linejoin="round" fill-opacity="0" stroke="rgb(234,128,0)" stroke-opacity="1" stroke-width="8" d=" M-128.6739959716797,64.33699798583984 C-128.6739959716797,-6.7270002365112305 -71.06400299072266,-64.33699798583984 0,-64.33699798583984 C71.06500244140625,-64.33699798583984 128.6739959716797,-6.7270002365112305 128.6739959716797,64.33699798583984"/></g><g opacity="1" transform="matrix(1,0,0,1,256.00201416015625,256)"><path fill="url(#__lottie_element_1919)" fill-opacity="1" d=" M111.33899688720703,0 C111.33899688720703,61.49100112915039 61.49100112915039,111.33899688720703 0,111.33899688720703 C-61.49100112915039,111.33899688720703 -111.33899688720703,61.49100112915039 -111.33899688720703,0 C-111.33899688720703,-61.49100112915039 -61.49100112915039,-111.33899688720703 0,-111.33899688720703 C61.49100112915039,-111.33899688720703 111.33899688720703,-61.49100112915039 111.33899688720703,0z"/></g></g></g></svg>