<svg xmlns="http://www.w3.org/2000/svg" xmlns:xlink="http://www.w3.org/1999/xlink" viewBox="0 0 512 512" width="512" height="512" style="width: 100%; height: 100%; transform: translate3d(0,0,0);" preserveAspectRatio="xMidYMid meet"><defs><clipPath id="__lottie_element_22554"><rect width="512" height="512" x="0" y="0"/></clipPath><linearGradient id="__lottie_element_22573" spreadMethod="pad" gradientUnits="userSpaceOnUse" x1="-246" y1="1" x2="243" y2="0"><stop offset="0%" stop-color="rgb(0,0,0)"/><stop offset="25%" stop-color="rgb(0,0,0)"/><stop offset="50%" stop-color="rgb(0,0,0)"/><stop offset="75%" stop-color="rgb(0,0,0)"/><stop offset="100%" stop-color="rgb(0,0,0)"/></linearGradient><mask id="__lottie_element_22575"><path fill="url(#__lottie_element_22574)" d=" M-246.5,-145.5 C-246.5,-139 -246.5,144.218994140625 -246.5,146.593994140625 C-244.71200561523438,146.76499938964844 -241.55099487304688,147.5780029296875 -237.75900268554688,148.50999450683594 C-220.5,152.75 -191.07200622558594,159.75999450683594 -178.26499938964844,161.58399963378906 C-147.25,166 -127.13200378417969,165.62600708007812 -103.76799774169922,164.74600219726562 C-50.75,162.75 -4.125,146.125 27.19499969482422,139.3300018310547 C47.95800018310547,134.8249969482422 68.79000091552734,130.64500427246094 83.74700164794922,128.94000244140625 C106.25,126.375 122.875,126.75 143.25,128.35899353027344 C183.33700561523438,131.52499389648438 217.79400634765625,139.2030029296875 241.43800354003906,147.031005859375 C241.43800354003906,147.09300231933594 241.406005859375,147.09300231933594 241.406005859375,147.06199645996094 C241.406005859375,147.06199645996094 241.406005859375,147.06199645996094 241.406005859375,147.06199645996094 C241.56199645996094,120.56199645996094 241.23399353027344,82.29100036621094 241.25,49.90599822998047 C241.26600646972656,17.08300018310547 241.43699645996094,-15.739999771118164 241.5,-48.5629997253418 C241.56199645996094,-80.91699981689453 241.5,-128.75 241.625,-145.625 C151.281005859375,-172.5 103.15699768066406,-165.1009979248047 78.5,-162.81199645996094 C23.042999267578125,-156.04600524902344 -48.707000732421875,-130.79600524902344 -83.375,-129.06199645996094 C-157.875,-120.1240005493164 -212.75,-139.625 -246.5,-145.5z"/></mask><linearGradient id="__lottie_element_22574" spreadMethod="pad" gradientUnits="userSpaceOnUse" x1="-246" y1="1" x2="243" y2="0"><stop stop-color="rgb(255,255,255)" offset="0%" stop-opacity="1"/><stop stop-color="rgb(255,255,255)" offset="17%" stop-opacity="0.5"/><stop stop-color="rgb(255,255,255)" offset="33%" stop-opacity="0"/><stop stop-color="rgb(255,255,255)" offset="50%" stop-opacity="0"/><stop stop-color="rgb(255,255,255)" offset="66%" stop-opacity="0"/><stop stop-color="rgb(255,255,255)" offset="83%" stop-opacity="0.5"/><stop stop-color="rgb(255,255,255)" offset="100%" stop-opacity="1"/></linearGradient></defs><g clip-path="url(#__lottie_element_22554)"><g style="display: block;" transform="matrix(0.800000011920929,0,0,0.800000011920929,257.9656066894531,250.03680419921875)" opacity="1"><g opacity="1" transform="matrix(1,0,0,1,0,0)"><path fill="rgb(242,242,242)" fill-opacity="1" d=" M-246.5,-145.5 C-246.5,-139 -246.5,144.218994140625 -246.5,146.593994140625 C-244.71200561523438,146.76499938964844 -241.55099487304688,147.5780029296875 -237.75900268554688,148.50999450683594 C-220.5,152.75 -191.07200622558594,159.75999450683594 -178.26499938964844,161.58399963378906 C-147.25,166 -127.13200378417969,165.62600708007812 -103.76799774169922,164.74600219726562 C-50.75,162.75 -4.125,146.125 27.19499969482422,139.3300018310547 C47.95800018310547,134.8249969482422 68.79000091552734,130.64500427246094 83.74700164794922,128.94000244140625 C106.25,126.375 122.875,126.75 143.25,128.35899353027344 C183.33700561523438,131.52499389648438 217.79400634765625,139.2030029296875 241.43800354003906,147.031005859375 C241.43800354003906,147.09300231933594 241.406005859375,147.09300231933594 241.406005859375,147.06199645996094 C241.406005859375,147.06199645996094 241.406005859375,147.06199645996094 241.406005859375,147.06199645996094 C241.56199645996094,120.56199645996094 241.23399353027344,82.29100036621094 241.25,49.90599822998047 C241.26600646972656,17.08300018310547 241.43699645996094,-15.739999771118164 241.5,-48.5629997253418 C241.56199645996094,-80.91699981689453 241.5,-128.75 241.625,-145.625 C151.281005859375,-172.5 103.15699768066406,-165.1009979248047 78.5,-162.81199645996094 C23.042999267578125,-156.04600524902344 -48.707000732421875,-130.79600524902344 -83.375,-129.06199645996094 C-157.875,-120.1240005493164 -212.75,-139.625 -246.5,-145.5z"/></g></g><g style="display: block;" transform="matrix(0.800000011920929,0,0,0.800000011920929,173.29360961914062,270.2184143066406)" opacity="1"><g opacity="1" transform="matrix(1,0,0,1,0,0)"><path fill="rgb(45,138,25)" fill-opacity="1" d=" M11.85200023651123,54.25600051879883 C17.916000366210938,60.38399887084961 22.94300079345703,71.40599822998047 33.15599822998047,86.59700012207031 C35.19900131225586,87.10800170898438 43.099998474121094,85.4739990234375 44.50400161743164,83.55899810791016 C38.50400161743164,74.23999786376953 28.507999420166016,61.35200119018555 21.922000885009766,52.52199935913086 C19.433000564575195,47.79899978637695 35.0989990234375,46.38600158691406 31.142000198364258,32.47100067138672 C29.226999282836914,37.257999420166016 19.048999786376953,40.209999084472656 20.134000778198242,46.59299850463867 C15.027999877929688,39.571998596191406 30.632999420166016,33.22700119018555 24.091999053955078,18.988000869750977 C22.507999420166016,28.851999282836914 14.107999801635742,28.208999633789062 15.640000343322754,42.124000549316406 C2.382999897003174,28.601999282836914 25.534000396728516,30.143999099731445 16.788999557495117,7.994999885559082 C14.133000373840332,19.72599983215332 8.883000373840332,13.35200023651123 8.656000137329102,31.93400001525879 C-4.367000102996826,14.60200023651123 18.361000061035156,12.204999923706055 9.680000305175781,-4.454999923706055 C8.659000396728516,4.927999973297119 1.3609999418258667,1.8420000076293945 1.6160000562667847,18.437999725341797 C-7.447999954223633,1.0759999752044678 10.758000373840332,-2.0230000019073486 3.937999963760376,-15.944999694824219 C-6.784999847412109,-6.434000015258789 -2.436000108718872,-2.8529999256134033 -4.797999858856201,7.104000091552734 C-15.491999626159668,-11.89799976348877 6.757999897003174,-15.14799976348877 -5.875999927520752,-33.611000061035156 C-5.364999771118164,-26.29199981689453 -11.524999618530273,-28.56599998474121 -10.248000144958496,-6.693999767303467 C-18.929000854492188,-31.290000915527344 -6.492000102996826,-25.398000717163086 -23.445999145507812,-42.926998138427734 C-30.492000579833984,-20.148000717163086 -17.242000579833984,-27.023000717163086 -13.274999618530273,-8.885000228881836 C-28.083999633789062,-16.841999053955078 -17.867000579833984,-21.773000717163086 -37.362998962402344,-25.832000732421875 C-32.242000579833984,-3.2730000019073486 -10.772000312805176,-13.708999633789062 -9.069999694824219,6.673999786376953 C-21.239999771118164,-7.11299991607666 -18.79199981689453,0.17000000178813934 -30.749000549316406,-6.297999858856201 C-24.617000579833984,16.007999420166016 -12.616999626159668,-0.023000000044703484 -3.5269999504089355,17.54800033569336 C-12.378000259399414,12.059000015258789 -16.073999404907227,16.861000061035156 -26.0310001373291,14.392999649047852 C-17.242000579833984,32.22700119018555 -4.367000102996826,10.85099983215332 1.9210000038146973,30.618000030517578 C-4.242000102996826,23.97599983215332 -12.366999626159668,29.47599983215332 -20.702999114990234,28.895999908447266 C-13.991999626159668,41.35100173950195 3.007999897003174,28.351999282836914 5.627999782562256,41.40700149536133 C-2.3289999961853027,36.34299850463867 -10.109999656677246,42.861000061035156 -17.131000518798828,40.81800079345703 C-7.386000156402588,56.52000045776367 3.6540000438690186,41.39099884033203 10.633000373840332,49.73099899291992 C-2.069000005722046,47.720001220703125 -0.09200000017881393,55.61600112915039 -10.592000007629395,55.10499954223633 C2.4609999656677246,63.97700119018555 8.182000160217285,52.4370002746582 11.85200023651123,54.25600051879883z"/><path stroke-linecap="round" stroke-linejoin="round" fill-opacity="0" stroke="rgb(0,0,0)" stroke-opacity="1" stroke-width="2" d=" M11.85200023651123,54.25600051879883 C17.916000366210938,60.38399887084961 22.94300079345703,71.40599822998047 33.15599822998047,86.59700012207031 C35.19900131225586,87.10800170898438 43.099998474121094,85.4739990234375 44.50400161743164,83.55899810791016 C38.50400161743164,74.23999786376953 28.507999420166016,61.35200119018555 21.922000885009766,52.52199935913086 C19.433000564575195,47.79899978637695 35.0989990234375,46.38600158691406 31.142000198364258,32.47100067138672 C29.226999282836914,37.257999420166016 19.048999786376953,40.209999084472656 20.134000778198242,46.59299850463867 C15.027999877929688,39.571998596191406 30.632999420166016,33.22700119018555 24.091999053955078,18.988000869750977 C22.507999420166016,28.851999282836914 14.107999801635742,28.208999633789062 15.640000343322754,42.124000549316406 C2.382999897003174,28.601999282836914 25.534000396728516,30.143999099731445 16.788999557495117,7.994999885559082 C14.133000373840332,19.72599983215332 8.883000373840332,13.35200023651123 8.656000137329102,31.93400001525879 C-4.367000102996826,14.60200023651123 18.361000061035156,12.204999923706055 9.680000305175781,-4.454999923706055 C8.659000396728516,4.927999973297119 1.3609999418258667,1.8420000076293945 1.6160000562667847,18.437999725341797 C-7.447999954223633,1.0759999752044678 10.758000373840332,-2.0230000019073486 3.937999963760376,-15.944999694824219 C-6.784999847412109,-6.434000015258789 -2.436000108718872,-2.8529999256134033 -4.797999858856201,7.104000091552734 C-15.491999626159668,-11.89799976348877 6.757999897003174,-15.14799976348877 -5.875999927520752,-33.611000061035156 C-5.364999771118164,-26.29199981689453 -11.524999618530273,-28.56599998474121 -10.248000144958496,-6.693999767303467 C-18.929000854492188,-31.290000915527344 -6.492000102996826,-25.398000717163086 -23.445999145507812,-42.926998138427734 C-30.492000579833984,-20.148000717163086 -17.242000579833984,-27.023000717163086 -13.274999618530273,-8.885000228881836 C-28.083999633789062,-16.841999053955078 -17.867000579833984,-21.773000717163086 -37.362998962402344,-25.832000732421875 C-32.242000579833984,-3.2730000019073486 -10.772000312805176,-13.708999633789062 -9.069999694824219,6.673999786376953 C-21.239999771118164,-7.11299991607666 -18.79199981689453,0.17000000178813934 -30.749000549316406,-6.297999858856201 C-24.617000579833984,16.007999420166016 -12.616999626159668,-0.023000000044703484 -3.5269999504089355,17.54800033569336 C-12.378000259399414,12.059000015258789 -16.073999404907227,16.861000061035156 -26.0310001373291,14.392999649047852 C-17.242000579833984,32.22700119018555 -4.367000102996826,10.85099983215332 1.9210000038146973,30.618000030517578 C-4.242000102996826,23.97599983215332 -12.366999626159668,29.47599983215332 -20.702999114990234,28.895999908447266 C-13.991999626159668,41.35100173950195 3.007999897003174,28.351999282836914 5.627999782562256,41.40700149536133 C-2.3289999961853027,36.34299850463867 -10.109999656677246,42.861000061035156 -17.131000518798828,40.81800079345703 C-7.386000156402588,56.52000045776367 3.6540000438690186,41.39099884033203 10.633000373840332,49.73099899291992 C-2.069000005722046,47.720001220703125 -0.09200000017881393,55.61600112915039 -10.592000007629395,55.10499954223633 C2.4609999656677246,63.97700119018555 8.182000160217285,52.4370002746582 11.85200023651123,54.25600051879883z"/></g></g><g style="display: block;" transform="matrix(0.800000011920929,0,0,0.800000011920929,51.20000457763672,45.200008392333984)" opacity="1"><g opacity="1" transform="matrix(1,0,0,1,341.32000732421875,305.0509948730469)"><path fill="rgb(11,213,228)" fill-opacity="1" d=" M2.3929998874664307,23.618999481201172 C2.3929998874664307,23.618999481201172 -12.699000358581543,56.93899917602539 -12.699000358581543,56.93899917602539 C-12.699000358581543,56.93899917602539 -2.4690001010894775,51.893001556396484 -2.4690001010894775,51.893001556396484 C-2.4690001010894775,51.893001556396484 5.309999942779541,60.5 5.309999942779541,60.5 C5.309999942779541,60.5 13.180000305175781,24.347999572753906 13.180000305175781,24.347999572753906 C13.180000305175781,24.347999572753906 7.728000164031982,19.47100067138672 7.728000164031982,19.47100067138672 C7.728000164031982,19.47100067138672 25.91900062561035,-52.40599822998047 25.91900062561035,-52.40599822998047 C25.91900062561035,-52.40599822998047 31.76099967956543,-48.78200149536133 31.76099967956543,-48.78200149536133 C31.76099967956543,-48.78200149536133 31.277999877929688,-84.68699645996094 31.277999877929688,-84.68699645996094 C31.277999877929688,-84.68699645996094 13.901000022888184,-53.88600158691406 13.901000022888184,-53.88600158691406 C13.901000022888184,-53.88600158691406 21.514999389648438,-54.03799819946289 21.514999389648438,-54.03799819946289 C21.514999389648438,-54.03799819946289 2.3929998874664307,23.618999481201172 2.3929998874664307,23.618999481201172z"/><path stroke-linecap="round" stroke-linejoin="round" fill-opacity="0" stroke="rgb(0,0,0)" stroke-opacity="1" stroke-width="2" d=" M2.3929998874664307,23.618999481201172 C2.3929998874664307,23.618999481201172 -12.699000358581543,56.93899917602539 -12.699000358581543,56.93899917602539 C-12.699000358581543,56.93899917602539 -2.4690001010894775,51.893001556396484 -2.4690001010894775,51.893001556396484 C-2.4690001010894775,51.893001556396484 5.309999942779541,60.5 5.309999942779541,60.5 C5.309999942779541,60.5 13.180000305175781,24.347999572753906 13.180000305175781,24.347999572753906 C13.180000305175781,24.347999572753906 7.728000164031982,19.47100067138672 7.728000164031982,19.47100067138672 C7.728000164031982,19.47100067138672 25.91900062561035,-52.40599822998047 25.91900062561035,-52.40599822998047 C25.91900062561035,-52.40599822998047 31.76099967956543,-48.78200149536133 31.76099967956543,-48.78200149536133 C31.76099967956543,-48.78200149536133 31.277999877929688,-84.68699645996094 31.277999877929688,-84.68699645996094 C31.277999877929688,-84.68699645996094 13.901000022888184,-53.88600158691406 13.901000022888184,-53.88600158691406 C13.901000022888184,-53.88600158691406 21.514999389648438,-54.03799819946289 21.514999389648438,-54.03799819946289 C21.514999389648438,-54.03799819946289 2.3929998874664307,23.618999481201172 2.3929998874664307,23.618999481201172z"/></g><g opacity="1" transform="matrix(1,0,0,1,353.3999938964844,297.10699462890625)"><path fill="rgb(11,213,228)" fill-opacity="1" d=" M-8.984999656677246,18.68000030517578 C-8.984999656677246,18.68000030517578 -16.261999130249023,18.934999465942383 -16.261999130249023,18.934999465942383 C-16.261999130249023,18.934999465942383 -26.511999130249023,35.189998626708984 -26.511999130249023,35.189998626708984 C-26.511999130249023,35.189998626708984 -16.761999130249023,60.624000549316406 -16.761999130249023,60.624000549316406 C-16.761999130249023,60.624000549316406 -0.15000000596046448,27.2189998626709 -0.15000000596046448,27.2189998626709 C-0.15000000596046448,27.2189998626709 -4.1529998779296875,21.969999313354492 -4.1529998779296875,21.969999313354492 C-4.1529998779296875,21.969999313354492 6.099999904632568,-5.982999801635742 33.119998931884766,-55.233001708984375 C34.599998474121094,-53.483001708984375 38.07600021362305,-49.72100067138672 38.07600021362305,-49.72100067138672 C38.07600021362305,-49.72100067138672 46.792999267578125,-84.81099700927734 46.792999267578125,-84.81099700927734 C46.792999267578125,-84.81099700927734 21.822999954223633,-59.86399841308594 21.822999954223633,-59.86399841308594 C21.822999954223633,-59.86399841308594 26.350000381469727,-58.858001708984375 29.288000106811523,-58.10599899291992 C3.8499999046325684,-9.607999801635742 -8.984999656677246,18.68000030517578 -8.984999656677246,18.68000030517578z"/><path stroke-linecap="round" stroke-linejoin="round" fill-opacity="0" stroke="rgb(0,0,0)" stroke-opacity="1" stroke-width="2" d=" M-8.984999656677246,18.68000030517578 C-8.984999656677246,18.68000030517578 -16.261999130249023,18.934999465942383 -16.261999130249023,18.934999465942383 C-16.261999130249023,18.934999465942383 -26.511999130249023,35.189998626708984 -26.511999130249023,35.189998626708984 C-26.511999130249023,35.189998626708984 -16.761999130249023,60.624000549316406 -16.761999130249023,60.624000549316406 C-16.761999130249023,60.624000549316406 -0.15000000596046448,27.2189998626709 -0.15000000596046448,27.2189998626709 C-0.15000000596046448,27.2189998626709 -4.1529998779296875,21.969999313354492 -4.1529998779296875,21.969999313354492 C-4.1529998779296875,21.969999313354492 6.099999904632568,-5.982999801635742 33.119998931884766,-55.233001708984375 C34.599998474121094,-53.483001708984375 38.07600021362305,-49.72100067138672 38.07600021362305,-49.72100067138672 C38.07600021362305,-49.72100067138672 46.792999267578125,-84.81099700927734 46.792999267578125,-84.81099700927734 C46.792999267578125,-84.81099700927734 21.822999954223633,-59.86399841308594 21.822999954223633,-59.86399841308594 C21.822999954223633,-59.86399841308594 26.350000381469727,-58.858001708984375 29.288000106811523,-58.10599899291992 C3.8499999046325684,-9.607999801635742 -8.984999656677246,18.68000030517578 -8.984999656677246,18.68000030517578z"/></g><g opacity="1" transform="matrix(1,0,0,1,350.6809997558594,310.5320129394531)"><path fill="rgb(11,213,228)" fill-opacity="1" d=" M-11.647000312805176,13.020999908447266 C-11.647000312805176,13.020999908447266 -20.200000762939453,13.270999908447266 -20.200000762939453,13.270999908447266 C-20.200000762939453,13.270999908447266 -42.08599853515625,43.13600158691406 -42.08599853515625,43.13600158691406 C-42.08599853515625,43.13600158691406 -30.945999145507812,41.933998107910156 -30.945999145507812,41.933998107910156 C-30.945999145507812,41.933998107910156 -28.1560001373291,53.7130012512207 -28.1560001373291,53.7130012512207 C-28.1560001373291,53.7130012512207 -5.639999866485596,24.284000396728516 -5.639999866485596,24.284000396728516 C-5.639999866485596,24.284000396728516 -7.876999855041504,16.06100082397461 -7.876999855041504,16.06100082397461 C-7.876999855041504,16.06100082397461 20.069000244140625,-20.656999588012695 43.893001556396484,-48.486000061035156 C45.319000244140625,-46.65700149536133 47.654998779296875,-41.92599868774414 47.654998779296875,-41.92599868774414 C47.654998779296875,-41.92599868774414 62.7760009765625,-72.88999938964844 62.7760009765625,-72.88999938964844 C62.7760009765625,-72.88999938964844 33.6879997253418,-55.59299850463867 33.6879997253418,-55.59299850463867 C33.6879997253418,-55.59299850463867 38.069000244140625,-53.65700149536133 40.82600021362305,-51.93299865722656 C19.194000244140625,-27.406999588012695 -11.647000312805176,13.020999908447266 -11.647000312805176,13.020999908447266z"/><path stroke-linecap="round" stroke-linejoin="round" fill-opacity="0" stroke="rgb(0,0,0)" stroke-opacity="1" stroke-width="2" d=" M-11.647000312805176,13.020999908447266 C-11.647000312805176,13.020999908447266 -20.200000762939453,13.270999908447266 -20.200000762939453,13.270999908447266 C-20.200000762939453,13.270999908447266 -42.08599853515625,43.13600158691406 -42.08599853515625,43.13600158691406 C-42.08599853515625,43.13600158691406 -30.945999145507812,41.933998107910156 -30.945999145507812,41.933998107910156 C-30.945999145507812,41.933998107910156 -28.1560001373291,53.7130012512207 -28.1560001373291,53.7130012512207 C-28.1560001373291,53.7130012512207 -5.639999866485596,24.284000396728516 -5.639999866485596,24.284000396728516 C-5.639999866485596,24.284000396728516 -7.876999855041504,16.06100082397461 -7.876999855041504,16.06100082397461 C-7.876999855041504,16.06100082397461 20.069000244140625,-20.656999588012695 43.893001556396484,-48.486000061035156 C45.319000244140625,-46.65700149536133 47.654998779296875,-41.92599868774414 47.654998779296875,-41.92599868774414 C47.654998779296875,-41.92599868774414 62.7760009765625,-72.88999938964844 62.7760009765625,-72.88999938964844 C62.7760009765625,-72.88999938964844 33.6879997253418,-55.59299850463867 33.6879997253418,-55.59299850463867 C33.6879997253418,-55.59299850463867 38.069000244140625,-53.65700149536133 40.82600021362305,-51.93299865722656 C19.194000244140625,-27.406999588012695 -11.647000312805176,13.020999908447266 -11.647000312805176,13.020999908447266z"/></g></g><g style="display: block;" transform="matrix(0.800000011920929,0,0,0.800000011920929,51.200809478759766,45.200008392333984)" opacity="1"><g opacity="1" transform="matrix(1,0,0,1,256.1700134277344,250.71499633789062)"><path fill="rgb(241,206,25)" fill-opacity="1" d=" M190.48899841308594,-124.46800231933594 C175.55099487304688,-119.60199737548828 98.63500213623047,-117.90699768066406 69.0009994506836,-87.39900207519531 C60.08100128173828,-78.21499633789062 76.58100128173828,-67.33999633789062 73.04900360107422,-62.98400115966797 C69.3479995727539,-58.41899871826172 61.5629997253418,-62.34199905395508 51.39799880981445,-63.944000244140625 C43.54499816894531,-65.18199920654297 41.393001556396484,-57.37200164794922 29.66699981689453,-71.83999633789062 C31.922000885009766,-71.75499725341797 35.05099868774414,-74.04000091552734 36.1150016784668,-74.72100067138672 C14.329999923706055,-82.84100341796875 28.392000198364258,-100.40299987792969 18.367000579833984,-112.322998046875 C13.550999641418457,-118.04900360107422 -1.7949999570846558,-118.96499633789062 -7.546000003814697,-107.8949966430664 C-9.015000343322754,-107.90599822998047 -12.35200023651123,-105.072998046875 -12.267000198364258,-102.39199829101562 C-18.565000534057617,-102.56199645996094 -25.170000076293945,-97.09100341796875 -24.17099952697754,-87.46299743652344 C-20.426000595092773,-94.14399719238281 -8.170000076293945,-97.46600341796875 -5.313000202178955,-88.85399627685547 C-10.930000305175781,-86.4280014038086 -8.295000076293945,-72.96499633789062 -17.636999130249023,-68.89600372314453 C-16.274999618530273,-68.04499816894531 -14.829000473022461,-67.79000091552734 -13.63700008392334,-67.5770034790039 C-18.488000869750977,-64.98100280761719 -23.54400062561035,-43.465999603271484 -38.691001892089844,-40.03499984741211 C-46.41899871826172,-41.215999603271484 -56.41999816894531,-29.46500015258789 -59.111000061035156,-34.73400115966797 C-60.84600067138672,-38.13100051879883 -54.584999084472656,-42.92900085449219 -52.5629997253418,-51.89899826049805 C-47.41899871826172,-74.71499633789062 -125.16999816894531,-65.46600341796875 -182.61399841308594,-100.78099822998047 C-193.6479949951172,-107.56400299072266 -199.36900329589844,-97.80799865722656 -188.7519989013672,-90.40399932861328 C-190.9199981689453,-82.96499633789062 -185.16900634765625,-69.71600341796875 -166.37399291992188,-59.542999267578125 C-171.66900634765625,-50.215999603271484 -144.50799560546875,-31.11400032043457 -129.2100067138672,-28.26300048828125 C-134.4199981689453,-16.84000015258789 -102.61100006103516,-5.336999893188477 -93.29199981689453,-6.145999908447266 C-101.66999816894531,10.78499984741211 -64.16999816894531,28.53499984741211 -40.099998474121094,14.668000221252441 C-44.08300018310547,31.43000030517578 -59.46699905395508,40.35499954223633 -60.917999267578125,50.042999267578125 C-63.388999938964844,66.53500366210938 -61.79499816894531,66.28500366210938 -73.0199966430664,78.3280029296875 C-92.41999816894531,76.03500366210938 -99.41899871826172,90.53500366210938 -95.33699798583984,96.8550033569336 C-93.20600128173828,100.15499877929688 -89.41999816894531,104.41000366210938 -79.89900207519531,101.78099822998047 C-85.00199890136719,94.677001953125 -77.79399871826172,89.66000366210938 -72.79399871826172,95.60800170898438 C-70.79399871826172,92.41000366210938 -70.20700073242188,87.14199829101562 -68.54499816894531,84.91699981689453 C-54.29399871826172,75.66000366210938 -41.63600158691406,69.23400115966797 -39.59299850463867,62.16999816894531 C-37.599998474121094,55.27799987792969 -26.32699966430664,45.834999084472656 -17.665000915527344,43.01300048828125 C-25.420000076293945,58.159000396728516 -55.91899871826172,83.78399658203125 -41.22600173950195,89.31600189208984 C-41.91899871826172,98.03399658203125 -25.66900062561035,112.40899658203125 -14.902000427246094,109.44200134277344 C-14.607000350952148,121.31600189208984 -5.170000076293945,117.65899658203125 -1.440999984741211,107.81199645996094 C-3.1700000762939453,129.78399658203125 17.8700008392334,121.27799987792969 15.269000053405762,103.40599822998047 C17.694000244140625,111.57599639892578 29.336000442504883,110.50499725341797 28.825000762939453,98.50499725341797 C38.45600128173828,97.16000366210938 56.9900016784668,73.54399871826172 55.58599853515625,65.62899780273438 C68.83000183105469,55.28499984741211 40.45500183105469,43.409000396728516 32.59700012207031,30.389999389648438 C39.95500183105469,31.159000396728516 50.72200012207031,32.95000076293945 53.132999420166016,39.3129997253418 C56.58100128173828,48.40999984741211 68.89800262451172,47.249000549316406 82.90599822998047,52.8390007019043 C84.86799621582031,54.80500030517578 84.20500183105469,58.034000396728516 87.71199798583984,63.31800079345703 C90.20500183105469,55.159000396728516 98.70500183105469,57.941001892089844 95.17900085449219,66.53099822998047 C102.53700256347656,68.04399871826172 107.78600311279297,62.367000579833984 109.76499938964844,58.9739990234375 C113.0510025024414,53.34199905395508 107.95500183105469,39.284000396728516 87.29000091552734,44.64500045776367 C76.70500183105469,37.284000396728516 77.17900085449219,34.91299819946289 75.00399780273438,20.777000427246094 C73.4520034790039,10.690999984741211 54.14899826049805,4.85099983215332 52.948001861572266,-8.901000022888184 C76.33000183105469,-1.715999960899353 117.20500183105469,-30.527999877929688 107.41699981689453,-43.70899963378906 C118.95500183105469,-44.77799987792969 146.3679962158203,-53.486000061035156 142.8350067138672,-65.82599639892578 C160.24000549316406,-67.9540023803711 183.8300018310547,-78.96600341796875 180.74899291992188,-90.66799926757812 C201.0800018310547,-90.96600341796875 204.53199768066406,-108.27400207519531 203.1269989013672,-112.52899932861328 C213.74400329589844,-119.93299865722656 205.83099365234375,-129.46499633789062 190.48899841308594,-124.46800231933594z"/><path stroke-linecap="round" stroke-linejoin="round" fill-opacity="0" stroke="rgb(0,0,0)" stroke-opacity="1" stroke-width="2" d=" M190.48899841308594,-124.46800231933594 C175.55099487304688,-119.60199737548828 98.63500213623047,-117.90699768066406 69.0009994506836,-87.39900207519531 C60.08100128173828,-78.21499633789062 76.58100128173828,-67.33999633789062 73.04900360107422,-62.98400115966797 C69.3479995727539,-58.41899871826172 61.5629997253418,-62.34199905395508 51.39799880981445,-63.944000244140625 C43.54499816894531,-65.18199920654297 41.393001556396484,-57.37200164794922 29.66699981689453,-71.83999633789062 C31.922000885009766,-71.75499725341797 35.05099868774414,-74.04000091552734 36.1150016784668,-74.72100067138672 C14.329999923706055,-82.84100341796875 28.392000198364258,-100.40299987792969 18.367000579833984,-112.322998046875 C13.550999641418457,-118.04900360107422 -1.7949999570846558,-118.96499633789062 -7.546000003814697,-107.8949966430664 C-9.015000343322754,-107.90599822998047 -12.35200023651123,-105.072998046875 -12.267000198364258,-102.39199829101562 C-18.565000534057617,-102.56199645996094 -25.170000076293945,-97.09100341796875 -24.17099952697754,-87.46299743652344 C-20.426000595092773,-94.14399719238281 -8.170000076293945,-97.46600341796875 -5.313000202178955,-88.85399627685547 C-10.930000305175781,-86.4280014038086 -8.295000076293945,-72.96499633789062 -17.636999130249023,-68.89600372314453 C-16.274999618530273,-68.04499816894531 -14.829000473022461,-67.79000091552734 -13.63700008392334,-67.5770034790039 C-18.488000869750977,-64.98100280761719 -23.54400062561035,-43.465999603271484 -38.691001892089844,-40.03499984741211 C-46.41899871826172,-41.215999603271484 -56.41999816894531,-29.46500015258789 -59.111000061035156,-34.73400115966797 C-60.84600067138672,-38.13100051879883 -54.584999084472656,-42.92900085449219 -52.5629997253418,-51.89899826049805 C-47.41899871826172,-74.71499633789062 -125.16999816894531,-65.46600341796875 -182.61399841308594,-100.78099822998047 C-193.6479949951172,-107.56400299072266 -199.36900329589844,-97.80799865722656 -188.7519989013672,-90.40399932861328 C-190.9199981689453,-82.96499633789062 -185.16900634765625,-69.71600341796875 -166.37399291992188,-59.542999267578125 C-171.66900634765625,-50.215999603271484 -144.50799560546875,-31.11400032043457 -129.2100067138672,-28.26300048828125 C-134.4199981689453,-16.84000015258789 -102.61100006103516,-5.336999893188477 -93.29199981689453,-6.145999908447266 C-101.66999816894531,10.78499984741211 -64.16999816894531,28.53499984741211 -40.099998474121094,14.668000221252441 C-44.08300018310547,31.43000030517578 -59.46699905395508,40.35499954223633 -60.917999267578125,50.042999267578125 C-63.388999938964844,66.53500366210938 -61.79499816894531,66.28500366210938 -73.0199966430664,78.3280029296875 C-92.41999816894531,76.03500366210938 -99.41899871826172,90.53500366210938 -95.33699798583984,96.8550033569336 C-93.20600128173828,100.15499877929688 -89.41999816894531,104.41000366210938 -79.89900207519531,101.78099822998047 C-85.00199890136719,94.677001953125 -77.79399871826172,89.66000366210938 -72.79399871826172,95.60800170898438 C-70.79399871826172,92.41000366210938 -70.20700073242188,87.14199829101562 -68.54499816894531,84.91699981689453 C-54.29399871826172,75.66000366210938 -41.63600158691406,69.23400115966797 -39.59299850463867,62.16999816894531 C-37.599998474121094,55.27799987792969 -26.32699966430664,45.834999084472656 -17.665000915527344,43.01300048828125 C-25.420000076293945,58.159000396728516 -55.91899871826172,83.78399658203125 -41.22600173950195,89.31600189208984 C-41.91899871826172,98.03399658203125 -25.66900062561035,112.40899658203125 -14.902000427246094,109.44200134277344 C-14.607000350952148,121.31600189208984 -5.170000076293945,117.65899658203125 -1.440999984741211,107.81199645996094 C-3.1700000762939453,129.78399658203125 17.8700008392334,121.27799987792969 15.269000053405762,103.40599822998047 C17.694000244140625,111.57599639892578 29.336000442504883,110.50499725341797 28.825000762939453,98.50499725341797 C38.45600128173828,97.16000366210938 56.9900016784668,73.54399871826172 55.58599853515625,65.62899780273438 C68.83000183105469,55.28499984741211 40.45500183105469,43.409000396728516 32.59700012207031,30.389999389648438 C39.95500183105469,31.159000396728516 50.72200012207031,32.95000076293945 53.132999420166016,39.3129997253418 C56.58100128173828,48.40999984741211 68.89800262451172,47.249000549316406 82.90599822998047,52.8390007019043 C84.86799621582031,54.80500030517578 84.20500183105469,58.034000396728516 87.71199798583984,63.31800079345703 C90.20500183105469,55.159000396728516 98.70500183105469,57.941001892089844 95.17900085449219,66.53099822998047 C102.53700256347656,68.04399871826172 107.78600311279297,62.367000579833984 109.76499938964844,58.9739990234375 C113.0510025024414,53.34199905395508 107.95500183105469,39.284000396728516 87.29000091552734,44.64500045776367 C76.70500183105469,37.284000396728516 77.17900085449219,34.91299819946289 75.00399780273438,20.777000427246094 C73.4520034790039,10.690999984741211 54.14899826049805,4.85099983215332 52.948001861572266,-8.901000022888184 C76.33000183105469,-1.715999960899353 117.20500183105469,-30.527999877929688 107.41699981689453,-43.70899963378906 C118.95500183105469,-44.77799987792969 146.3679962158203,-53.486000061035156 142.8350067138672,-65.82599639892578 C160.24000549316406,-67.9540023803711 183.8300018310547,-78.96600341796875 180.74899291992188,-90.66799926757812 C201.0800018310547,-90.96600341796875 204.53199768066406,-108.27400207519531 203.1269989013672,-112.52899932861328 C213.74400329589844,-119.93299865722656 205.83099365234375,-129.46499633789062 190.48899841308594,-124.46800231933594z"/></g><g opacity="1" transform="matrix(1,0,0,1,96.31900024414062,158.1490020751953)"><path stroke-linecap="round" stroke-linejoin="round" fill-opacity="0" stroke="rgb(0,0,0)" stroke-opacity="1" stroke-width="2" d=" M31.4950008392334,26.243999481201172 C31.4950008392334,26.243999481201172 -4.195000171661377,19.72599983215332 -28.777000427246094,2.318000078201294"/></g><g opacity="1" transform="matrix(1,0,0,1,113.93599700927734,181.46800231933594)"><path stroke-linecap="round" stroke-linejoin="round" fill-opacity="0" stroke="rgb(0,0,0)" stroke-opacity="1" stroke-width="2" d=" M27.297000885009766,25.295000076293945 C27.297000885009766,25.295000076293945 -3.936000108718872,19.656999588012695 -24.235000610351562,9.829999923706055"/></g><g opacity="1" transform="matrix(1,0,0,1,139,205.38299560546875)"><path stroke-linecap="round" stroke-linejoin="round" fill-opacity="0" stroke="rgb(0,0,0)" stroke-opacity="1" stroke-width="2" d=" M17.601999282836914,22.118000030517578 C17.601999282836914,22.118000030517578 -0.75,20.117000579833984 -11.97700023651123,17.038000106811523"/></g><g opacity="1" transform="matrix(1,0,0,1,416.0199890136719,158.1490020751953)"><path stroke-linecap="round" stroke-linejoin="round" fill-opacity="0" stroke="rgb(0,0,0)" stroke-opacity="1" stroke-width="2" d=" M-16.402000427246094,-12.225000381469727 C-16.402000427246094,-12.225000381469727 28.729999542236328,-15.64900016784668 43.152000427246094,-20.21299934387207"/></g><g opacity="1" transform="matrix(1,0,0,1,398.40301513671875,181.46800231933594)"><path stroke-linecap="round" stroke-linejoin="round" fill-opacity="0" stroke="rgb(0,0,0)" stroke-opacity="1" stroke-width="2" d=" M-12.765999794006348,-13.642000198364258 C-12.765999794006348,-13.642000198364258 20.472000122070312,-19.968000411987305 38.39099884033203,-21.357999801635742"/></g><g opacity="1" transform="matrix(1,0,0,1,373.3389892578125,205.38299560546875)"><path stroke-linecap="round" stroke-linejoin="round" fill-opacity="0" stroke="rgb(0,0,0)" stroke-opacity="1" stroke-width="2" d=" M-2.946000099182129,-15.913000106811523 C-2.946000099182129,-15.913000106811523 20.724000930786133,-19.257999420166016 25.634000778198242,-20.461999893188477"/></g></g><g style="display: block;" transform="matrix(0.800000011920929,0,0,0.800000011920929,116.7728042602539,249.5384063720703)" opacity="1"><g opacity="1" transform="matrix(1,0,0,1,0,0)"><path fill="rgb(11,213,228)" fill-opacity="1" d=" M14.878999710083008,-24.632999420166016 C14.878999710083008,-24.632999420166016 -10.425999641418457,-28.36199951171875 -10.425999641418457,-28.36199951171875 C-3.8410000801086426,-26.361000061035156 -5.954999923706055,-17.658000946044922 -5.954999923706055,-17.658000946044922 C-5.954999923706055,-17.658000946044922 -20.490999221801758,26.6299991607666 -20.490999221801758,26.6299991607666 C-20.490999221801758,26.6299991607666 -35.520999908447266,-25.086999893188477 -35.520999908447266,-25.086999893188477 C-36.840999603271484,-30.860000610351562 -34.215999603271484,-32.486000061035156 -30.900999069213867,-32.39400100708008 C-30.900999069213867,-32.39400100708008 -30.81100082397461,-32.40599822998047 -30.81100082397461,-32.40599822998047 C-30.81100082397461,-32.40599822998047 -57.52799987792969,-38.9379997253418 -57.52799987792969,-38.9379997253418 C-54.37200164794922,-37.58000183105469 -52.20100021362305,-35.95100021362305 -51.106998443603516,-33.53499984741211 C-51.106998443603516,-33.53499984741211 -28.844999313354492,40.959999084472656 -28.844999313354492,40.959999084472656 C-27.590999603271484,47.263999938964844 -29.7549991607666,47.20500183105469 -32.92900085449219,47.7140007019043 C-32.92900085449219,47.7140007019043 -33.00699996948242,47.72700119018555 -33.00699996948242,47.72700119018555 C-33.00699996948242,47.72700119018555 -8.779999732971191,52.63800048828125 -8.838000297546387,52.62799835205078 C-12.008999824523926,52.09700012207031 -15.20199966430664,47.61000061035156 -13.541000366210938,43.8120002746582 C-13.541000366210938,43.8120002746582 8.906999588012695,-21.30900001525879 8.906999588012695,-21.30900001525879 C9.972000122070312,-24.048999786376953 12.015999794006348,-24.207000732421875 14.878999710083008,-24.632999420166016z"/><path stroke-linecap="round" stroke-linejoin="round" fill-opacity="0" stroke="rgb(0,0,0)" stroke-opacity="1" stroke-width="2" d=" M14.878999710083008,-24.632999420166016 C14.878999710083008,-24.632999420166016 -10.425999641418457,-28.36199951171875 -10.425999641418457,-28.36199951171875 C-3.8410000801086426,-26.361000061035156 -5.954999923706055,-17.658000946044922 -5.954999923706055,-17.658000946044922 C-5.954999923706055,-17.658000946044922 -20.490999221801758,26.6299991607666 -20.490999221801758,26.6299991607666 C-20.490999221801758,26.6299991607666 -35.520999908447266,-25.086999893188477 -35.520999908447266,-25.086999893188477 C-36.840999603271484,-30.860000610351562 -34.215999603271484,-32.486000061035156 -30.900999069213867,-32.39400100708008 C-30.900999069213867,-32.39400100708008 -30.81100082397461,-32.40599822998047 -30.81100082397461,-32.40599822998047 C-30.81100082397461,-32.40599822998047 -57.52799987792969,-38.9379997253418 -57.52799987792969,-38.9379997253418 C-54.37200164794922,-37.58000183105469 -52.20100021362305,-35.95100021362305 -51.106998443603516,-33.53499984741211 C-51.106998443603516,-33.53499984741211 -28.844999313354492,40.959999084472656 -28.844999313354492,40.959999084472656 C-27.590999603271484,47.263999938964844 -29.7549991607666,47.20500183105469 -32.92900085449219,47.7140007019043 C-32.92900085449219,47.7140007019043 -33.00699996948242,47.72700119018555 -33.00699996948242,47.72700119018555 C-33.00699996948242,47.72700119018555 -8.779999732971191,52.63800048828125 -8.838000297546387,52.62799835205078 C-12.008999824523926,52.09700012207031 -15.20199966430664,47.61000061035156 -13.541000366210938,43.8120002746582 C-13.541000366210938,43.8120002746582 8.906999588012695,-21.30900001525879 8.906999588012695,-21.30900001525879 C9.972000122070312,-24.048999786376953 12.015999794006348,-24.207000732421875 14.878999710083008,-24.632999420166016z"/></g></g><g style="display: block;" transform="matrix(0.800000011920929,0,0,0.800000011920929,414.1576232910156,239.2592010498047)" opacity="1"><g opacity="1" transform="matrix(1,0,0,1,0,0)"><path fill="rgb(11,213,228)" fill-opacity="1" d=" M6.698999881744385,37.17599868774414 C6.698999881744385,39.50600051879883 9.75100040435791,42.91899871826172 12.984999656677246,43.41899871826172 C10.631999969482422,43.41899871826172 -8.913000106811523,38.65399932861328 -11.265999794006348,38.65399932861328 C-8.031999588012695,38.15399932861328 -5.556000232696533,37.50600051879883 -5.556000232696533,35.17599868774414 C-5.556000232696533,25.982999801635742 -5.556000232696533,-27.420000076293945 -5.556000232696533,-36.612998962402344 C-5.556000232696533,-38.94300079345703 -8.008999824523926,-40.387001037597656 -11.694999694824219,-41.81800079345703 C-9.342000007629395,-41.81800079345703 10.305999755859375,-36.94300079345703 12.659000396728516,-36.94300079345703 C8.303000450134277,-36.82500076293945 6.730000019073486,-35.25600051879883 6.730000019073486,-32.92599868774414 C6.730000019073486,-23.732999801635742 6.698999881744385,27.982999801635742 6.698999881744385,37.17599868774414z"/><path stroke-linecap="round" stroke-linejoin="round" fill-opacity="0" stroke="rgb(0,0,0)" stroke-opacity="1" stroke-width="2" d=" M6.698999881744385,37.17599868774414 C6.698999881744385,39.50600051879883 9.75100040435791,42.91899871826172 12.984999656677246,43.41899871826172 C10.631999969482422,43.41899871826172 -8.913000106811523,38.65399932861328 -11.265999794006348,38.65399932861328 C-8.031999588012695,38.15399932861328 -5.556000232696533,37.50600051879883 -5.556000232696533,35.17599868774414 C-5.556000232696533,25.982999801635742 -5.556000232696533,-27.420000076293945 -5.556000232696533,-36.612998962402344 C-5.556000232696533,-38.94300079345703 -8.008999824523926,-40.387001037597656 -11.694999694824219,-41.81800079345703 C-9.342000007629395,-41.81800079345703 10.305999755859375,-36.94300079345703 12.659000396728516,-36.94300079345703 C8.303000450134277,-36.82500076293945 6.730000019073486,-35.25600051879883 6.730000019073486,-32.92599868774414 C6.730000019073486,-23.732999801635742 6.698999881744385,27.982999801635742 6.698999881744385,37.17599868774414z"/></g></g><g style="display: block;" transform="matrix(0.800000011920929,0,0,0.800000011920929,51.20000457763672,45.200008392333984)" opacity="1"><g opacity="1" transform="matrix(1,0,0,1,207.1060028076172,245.80499267578125)"><g opacity="1" transform="matrix(1,0,0,1,0,0)"><path fill="rgb(242,242,242)" fill-opacity="1" d=" M1.809999942779541,-4.409999847412109 C2.6440000534057617,31.361000061035156 18.56100082397461,51.36199951171875 55.939998626708984,64.41000366210938 C79.06099700927734,42.86199951171875 110.22799682617188,16.36199951171875 110.10700225830078,-29.493000030517578 C77.06099700927734,-23.30500030517578 34.06100082397461,-11.972000122070312 1.809999942779541,-4.409999847412109z"/><path stroke-linecap="round" stroke-linejoin="round" fill-opacity="0" stroke="rgb(0,0,0)" stroke-opacity="1" stroke-width="2" d=" M1.809999942779541,-4.409999847412109 C2.6440000534057617,31.361000061035156 18.56100082397461,51.36199951171875 55.939998626708984,64.41000366210938 C79.06099700927734,42.86199951171875 110.22799682617188,16.36199951171875 110.10700225830078,-29.493000030517578 C77.06099700927734,-23.30500030517578 34.06100082397461,-11.972000122070312 1.809999942779541,-4.409999847412109z"/></g></g><g opacity="1" transform="matrix(1,0,0,1,297,251.92799377441406)"><path fill="rgb(200,43,69)" fill-opacity="1" d=" M3.677000045776367,-32.28799819946289 C3.677000045776367,-32.28799819946289 3.693000078201294,17.709999084472656 3.693000078201294,17.709999084472656 C7.459000110626221,12.279999732971191 9.920000076293945,7.160999774932861 12.020999908447266,3.0220000743865967 C12.020999908447266,3.0220000743865967 12.020999908447266,-34.012001037597656 12.020999908447266,-34.012001037597656 C12.020999908447266,-34.012001037597656 3.677000045776367,-32.28799819946289 3.677000045776367,-32.28799819946289z"/><path stroke-linecap="round" stroke-linejoin="round" fill-opacity="0" stroke="rgb(0,0,0)" stroke-opacity="1" stroke-width="2" d=" M3.677000045776367,-32.28799819946289 C3.677000045776367,-32.28799819946289 3.693000078201294,17.709999084472656 3.693000078201294,17.709999084472656 C7.459000110626221,12.279999732971191 9.920000076293945,7.160999774932861 12.020999908447266,3.0220000743865967 C12.020999908447266,3.0220000743865967 12.020999908447266,-34.012001037597656 12.020999908447266,-34.012001037597656 C12.020999908447266,-34.012001037597656 3.677000045776367,-32.28799819946289 3.677000045776367,-32.28799819946289z"/></g><g opacity="1" transform="matrix(1,0,0,1,280.5320129394531,259.94500732421875)"><path fill="rgb(200,43,69)" fill-opacity="1" d=" M3.3010001182556152,-36.58100128173828 C3.3010001182556152,-36.58100128173828 3.3010001182556152,30.33300018310547 3.3010001182556152,30.33300018310547 C6.2179999351501465,27.368000030517578 9.406000137329102,23.638999938964844 11.50100040435791,21.142000198364258 C11.50100040435791,21.142000198364258 11.50100040435791,-38.40299987792969 11.50100040435791,-38.40299987792969 C11.50100040435791,-38.40299987792969 3.3010001182556152,-36.58100128173828 3.3010001182556152,-36.58100128173828z"/><path stroke-linecap="round" stroke-linejoin="round" fill-opacity="0" stroke="rgb(0,0,0)" stroke-opacity="1" stroke-width="2" d=" M3.3010001182556152,-36.58100128173828 C3.3010001182556152,-36.58100128173828 3.3010001182556152,30.33300018310547 3.3010001182556152,30.33300018310547 C6.2179999351501465,27.368000030517578 9.406000137329102,23.638999938964844 11.50100040435791,21.142000198364258 C11.50100040435791,21.142000198364258 11.50100040435791,-38.40299987792969 11.50100040435791,-38.40299987792969 C11.50100040435791,-38.40299987792969 3.3010001182556152,-36.58100128173828 3.3010001182556152,-36.58100128173828z"/></g><g opacity="1" transform="matrix(1,0,0,1,264.36199951171875,265.5060119628906)"><path fill="rgb(200,43,69)" fill-opacity="1" d=" M3.000999927520752,-38.26100158691406 C3.000999927520752,-38.26100158691406 3.000999927520752,40.73500061035156 3.000999927520752,40.73500061035156 C5.138000011444092,38.74399948120117 9.305000305175781,34.827999114990234 11.062000274658203,33.099998474121094 C11.062000274658203,33.099998474121094 11.062000274658203,-40.1879997253418 11.062000274658203,-40.1879997253418 C11.062000274658203,-40.1879997253418 3.000999927520752,-38.26100158691406 3.000999927520752,-38.26100158691406z"/><path stroke-linecap="round" stroke-linejoin="round" fill-opacity="0" stroke="rgb(0,0,0)" stroke-opacity="1" stroke-width="2" d=" M3.000999927520752,-38.26100158691406 C3.000999927520752,-38.26100158691406 3.000999927520752,40.73500061035156 3.000999927520752,40.73500061035156 C5.138000011444092,38.74399948120117 9.305000305175781,34.827999114990234 11.062000274658203,33.099998474121094 C11.062000274658203,33.099998474121094 11.062000274658203,-40.1879997253418 11.062000274658203,-40.1879997253418 C11.062000274658203,-40.1879997253418 3.000999927520752,-38.26100158691406 3.000999927520752,-38.26100158691406z"/></g><g opacity="1" transform="matrix(1,0,0,1,248.1490020751953,265.70599365234375)"><path fill="rgb(200,43,69)" fill-opacity="1" d=" M2.4549999237060547,-34.39899826049805 C2.4549999237060547,-34.39899826049805 2.4549999237060547,39.500999450683594 2.4549999237060547,39.500999450683594 C5.35099983215332,40.87699890136719 8.642999649047852,42.20600128173828 11.045000076293945,43.106998443603516 C11.045000076293945,43.106998443603516 11.045000076293945,-36.51900100708008 11.045000076293945,-36.51900100708008 C11.045000076293945,-36.51900100708008 2.4549999237060547,-34.39899826049805 2.4549999237060547,-34.39899826049805z"/><path stroke-linecap="round" stroke-linejoin="round" fill-opacity="0" stroke="rgb(0,0,0)" stroke-opacity="1" stroke-width="2" d=" M2.4549999237060547,-34.39899826049805 C2.4549999237060547,-34.39899826049805 2.4549999237060547,39.500999450683594 2.4549999237060547,39.500999450683594 C5.35099983215332,40.87699890136719 8.642999649047852,42.20600128173828 11.045000076293945,43.106998443603516 C11.045000076293945,43.106998443603516 11.045000076293945,-36.51900100708008 11.045000076293945,-36.51900100708008 C11.045000076293945,-36.51900100708008 2.4549999237060547,-34.39899826049805 2.4549999237060547,-34.39899826049805z"/></g><g opacity="1" transform="matrix(1,0,0,1,231.8509979248047,260.12701416015625)"><path fill="rgb(200,43,69)" fill-opacity="1" d=" M2.427999973297119,-24.86199951171875 C2.427999973297119,-24.86199951171875 2.427999973297119,35.638999938964844 2.427999973297119,35.638999938964844 C5.440999984741211,37.91400146484375 7.89900016784668,39.32099914550781 10.49899959564209,40.91899871826172 C10.49899959564209,40.91899871826172 10.49899959564209,-26.80500030517578 10.49899959564209,-26.80500030517578 C10.49899959564209,-26.80500030517578 2.427999973297119,-24.86199951171875 2.427999973297119,-24.86199951171875z"/><path stroke-linecap="round" stroke-linejoin="round" fill-opacity="0" stroke="rgb(0,0,0)" stroke-opacity="1" stroke-width="2" d=" M2.427999973297119,-24.86199951171875 C2.427999973297119,-24.86199951171875 2.427999973297119,35.638999938964844 2.427999973297119,35.638999938964844 C5.440999984741211,37.91400146484375 7.89900016784668,39.32099914550781 10.49899959564209,40.91899871826172 C10.49899959564209,40.91899871826172 10.49899959564209,-26.80500030517578 10.49899959564209,-26.80500030517578 C10.49899959564209,-26.80500030517578 2.427999973297119,-24.86199951171875 2.427999973297119,-24.86199951171875z"/></g><g opacity="1" transform="matrix(1,0,0,1,215.38299560546875,252.2689971923828)"><path fill="rgb(200,43,69)" fill-opacity="1" d=" M1.934000015258789,-12.868000030517578 C1.934000015258789,-12.868000030517578 1.934000015258789,24.632999420166016 1.934000015258789,24.632999420166016 C3.617000102996826,27.981000900268555 7.326000213623047,32.81399917602539 10.336999893188477,36.04999923706055 C10.336999893188477,36.04999923706055 10.336999893188477,-14.88599967956543 10.336999893188477,-14.88599967956543 C10.336999893188477,-14.88599967956543 1.934000015258789,-12.868000030517578 1.934000015258789,-12.868000030517578z"/><path stroke-linecap="round" stroke-linejoin="round" fill-opacity="0" stroke="rgb(0,0,0)" stroke-opacity="1" stroke-width="2" d=" M1.934000015258789,-12.868000030517578 C1.934000015258789,-12.868000030517578 1.934000015258789,24.632999420166016 1.934000015258789,24.632999420166016 C3.617000102996826,27.981000900268555 7.326000213623047,32.81399917602539 10.336999893188477,36.04999923706055 C10.336999893188477,36.04999923706055 10.336999893188477,-14.88599967956543 10.336999893188477,-14.88599967956543 C10.336999893188477,-14.88599967956543 1.934000015258789,-12.868000030517578 1.934000015258789,-12.868000030517578z"/></g><g opacity="1" transform="matrix(1,0,0,1,256.01800537109375,207.68099975585938)"><g opacity="1" transform="matrix(1,0,0,1,0,0)"><path fill="rgb(38,75,145)" fill-opacity="1" d=" M61.29100036621094,-32.85300064086914 C50.14899826049805,-24.263999938964844 27.98200035095215,-15.013999938964844 7.125,-22.235000610351562 C-0.9760000109672546,-14.826000213623047 -23.93400001525879,0.5899999737739563 -47.224998474121094,-7.831999778747559 C-47.224998474121094,6.389999866485596 -47.518001556396484,24.652000427246094 -47.060001373291016,33.63100051879883 C-14.767999649047852,26.152000427246094 28.232999801635742,14.819000244140625 61.17900085449219,8.630999565124512 C61.39899826049805,0.9020000100135803 61.040000915527344,-18.51799964904785 61.29100036621094,-32.85300064086914z"/><path stroke-linecap="round" stroke-linejoin="round" fill-opacity="0" stroke="rgb(0,0,0)" stroke-opacity="1" stroke-width="2" d=" M61.29100036621094,-32.85300064086914 C50.14899826049805,-24.263999938964844 27.98200035095215,-15.013999938964844 7.125,-22.235000610351562 C-0.9760000109672546,-14.826000213623047 -23.93400001525879,0.5899999737739563 -47.224998474121094,-7.831999778747559 C-47.224998474121094,6.389999866485596 -47.518001556396484,24.652000427246094 -47.060001373291016,33.63100051879883 C-14.767999649047852,26.152000427246094 28.232999801635742,14.819000244140625 61.17900085449219,8.630999565124512 C61.39899826049805,0.9020000100135803 61.040000915527344,-18.51799964904785 61.29100036621094,-32.85300064086914z"/></g></g></g><g style="display: block;" transform="matrix(0.800000011920929,0,0,0.800000011920929,257.9656066894531,250.03680419921875)" opacity="0.35000000000000003"><g opacity="1" transform="matrix(1,0,0,1,0,0)"><path fill="url(#__lottie_element_22573)" mask="url(#__lottie_element_22575)" fill-opacity="1" d="M0 0 M-246.5,-145.5 C-246.5,-139 -246.5,144.218994140625 -246.5,146.593994140625 C-244.71200561523438,146.76499938964844 -241.55099487304688,147.5780029296875 -237.75900268554688,148.50999450683594 C-220.5,152.75 -191.07200622558594,159.75999450683594 -178.26499938964844,161.58399963378906 C-147.25,166 -127.13200378417969,165.62600708007812 -103.76799774169922,164.74600219726562 C-50.75,162.75 -4.125,146.125 27.19499969482422,139.3300018310547 C47.95800018310547,134.8249969482422 68.79000091552734,130.64500427246094 83.74700164794922,128.94000244140625 C106.25,126.375 122.875,126.75 143.25,128.35899353027344 C183.33700561523438,131.52499389648438 217.79400634765625,139.2030029296875 241.43800354003906,147.031005859375 C241.43800354003906,147.09300231933594 241.406005859375,147.09300231933594 241.406005859375,147.06199645996094 C241.406005859375,147.06199645996094 241.406005859375,147.06199645996094 241.406005859375,147.06199645996094 C241.56199645996094,120.56199645996094 241.23399353027344,82.29100036621094 241.25,49.90599822998047 C241.26600646972656,17.08300018310547 241.43699645996094,-15.739999771118164 241.5,-48.5629997253418 C241.56199645996094,-80.91699981689453 241.5,-128.75 241.625,-145.625 C151.281005859375,-172.5 103.15699768066406,-165.1009979248047 78.5,-162.81199645996094 C23.042999267578125,-156.04600524902344 -48.707000732421875,-130.79600524902344 -83.375,-129.06199645996094 C-157.875,-120.1240005493164 -212.75,-139.625 -246.5,-145.5z"/></g></g><g style="display: block;" transform="matrix(0.800000011920929,0,0,0.800000011920929,257.9656066894531,250.03680419921875)" opacity="0.15"><g opacity="1" transform="matrix(1,0,0,1,0,0)"><path fill="rgb(255,255,255)" fill-opacity="1" d=" M-246.875,-146 C-246.83700561523438,-139.70399475097656 -246.875,-138 -246.79200744628906,-132.81100463867188 C-237.5,-136.25 -197.25,-114 -124.49600219726562,-114.31099700927734 C-38.992000579833984,-114.6760025024414 39.233001708984375,-153.25 121.70800018310547,-153.39700317382812 C179.75,-153.5 241,-132.25 240.91200256347656,-131.552001953125 C241,-140.5 241.375,-144.625 241.375,-144.625 C241.375,-144.625 179.75,-166.25 122.5,-166 C39.49700164794922,-165.63800048828125 -39.5,-128 -124.25,-126.81199645996094 C-197.0449981689453,-125.79199981689453 -237.75,-149 -246.875,-146z"/></g></g><g style="display: block;" transform="matrix(0.800000011920929,0,0,0.800000011920929,257.9656066894531,250.03680419921875)" opacity="0.15"><g opacity="1" transform="matrix(1,0,0,1,0,0)"><path fill="rgb(0,0,0)" fill-opacity="1" d=" M122.5,112.25 C34,112.25 -36,149.5 -123.5,152 C-140.61700439453125,152.48899841308594 -155.82000732421875,151.3489990234375 -170.41099548339844,149.1280059814453 C-195.23399353027344,145.35000610351562 -218.28900146484375,138.4459991455078 -246,131.125 C-246.25,134.5 -246,141.375 -246,145.125 C-218.5749969482422,153.30599975585938 -195.61700439453125,159.55499267578125 -170.83099365234375,163.0050048828125 C-155.8520050048828,165.08999633789062 -140.20399475097656,166.15199279785156 -122.5,166 C-35,165.25 33.5,126.625 121.75,126.5 C126.26799774169922,126.49400329589844 131.11399841308594,126.59500122070312 136.27699279785156,126.83899688720703 C163.25900268554688,128.11300659179688 198.88099670410156,133.2550048828125 241.375,147 C241.375,147 241.25,134.75 241.5,131.125 C199.093994140625,118.93299865722656 163.16200256347656,113.84500122070312 136.1439971923828,112.58000183105469 C131.30499267578125,112.35399627685547 126.75299835205078,112.25 122.5,112.25z"/></g></g><g style="display: block;" transform="matrix(0.800000011920929,0,0,0.800000011920929,257.9656066894531,250.03680419921875)" opacity="1"><g opacity="1" transform="matrix(1,0,0,1,0,0)"><path stroke-linecap="round" stroke-linejoin="round" fill-opacity="0" stroke="rgb(119,119,119)" stroke-opacity="1" stroke-width="8" d=" M-246.5,-145.5 C-246.5,-139 -246.5,144.218994140625 -246.5,146.593994140625 C-244.71200561523438,146.76499938964844 -241.55099487304688,147.5780029296875 -237.75900268554688,148.50999450683594 C-220.5,152.75 -191.07200622558594,159.75999450683594 -178.26499938964844,161.58399963378906 C-147.25,166 -127.13200378417969,165.62600708007812 -103.76799774169922,164.74600219726562 C-50.75,162.75 -4.125,146.125 27.19499969482422,139.3300018310547 C47.95800018310547,134.8249969482422 68.79000091552734,130.64500427246094 83.74700164794922,128.94000244140625 C106.25,126.375 122.875,126.75 143.25,128.35899353027344 C183.33700561523438,131.52499389648438 217.79400634765625,139.2030029296875 241.43800354003906,147.031005859375 C241.43800354003906,147.09300231933594 241.406005859375,147.09300231933594 241.406005859375,147.06199645996094 C241.406005859375,147.06199645996094 241.406005859375,147.06199645996094 241.406005859375,147.06199645996094 C241.56199645996094,120.56199645996094 241.23399353027344,82.29100036621094 241.25,49.90599822998047 C241.26600646972656,17.08300018310547 241.43699645996094,-15.739999771118164 241.5,-48.5629997253418 C241.56199645996094,-80.91699981689453 241.5,-128.75 241.625,-145.625 C151.281005859375,-172.5 103.15699768066406,-165.1009979248047 78.5,-162.81199645996094 C23.042999267578125,-156.04600524902344 -48.707000732421875,-130.79600524902344 -83.375,-129.06199645996094 C-157.875,-120.1240005493164 -212.75,-139.625 -246.5,-145.5z"/></g></g></g></svg>