<svg xmlns="http://www.w3.org/2000/svg" xmlns:xlink="http://www.w3.org/1999/xlink" viewBox="0 0 512 512" width="512" height="512" style="width: 100%; height: 100%; transform: translate3d(0,0,0);" preserveAspectRatio="xMidYMid meet"><defs><clipPath id="__lottie_element_56741"><rect width="512" height="512" x="0" y="0"/></clipPath><linearGradient id="__lottie_element_56749" spreadMethod="pad" gradientUnits="userSpaceOnUse" x1="-16.12299919128418" y1="179.6540069580078" x2="-7.36899995803833" y2="-143.24899291992188"><stop offset="0%" stop-color="rgb(247,166,6)"/><stop offset="17%" stop-color="rgb(251,121,17)"/><stop offset="49%" stop-color="rgb(255,77,27)"/><stop offset="79%" stop-color="rgb(255,72,27)"/><stop offset="100%" stop-color="rgb(255,67,27)"/></linearGradient><linearGradient id="__lottie_element_56750" spreadMethod="pad" gradientUnits="userSpaceOnUse" x1="-16.12299919128418" y1="179.6540069580078" x2="-7.36899995803833" y2="-143.24899291992188"><stop offset="0%" stop-color="rgb(247,166,6)"/><stop offset="17%" stop-color="rgb(251,121,17)"/><stop offset="49%" stop-color="rgb(255,77,27)"/><stop offset="79%" stop-color="rgb(255,72,27)"/><stop offset="100%" stop-color="rgb(255,67,27)"/></linearGradient><linearGradient id="__lottie_element_56751" spreadMethod="pad" gradientUnits="userSpaceOnUse" x1="-16.12299919128418" y1="179.6540069580078" x2="-7.36899995803833" y2="-143.24899291992188"><stop offset="0%" stop-color="rgb(247,166,6)"/><stop offset="17%" stop-color="rgb(251,121,17)"/><stop offset="49%" stop-color="rgb(255,77,27)"/><stop offset="79%" stop-color="rgb(255,72,27)"/><stop offset="100%" stop-color="rgb(255,67,27)"/></linearGradient><linearGradient id="__lottie_element_56752" spreadMethod="pad" gradientUnits="userSpaceOnUse" x1="-16.12299919128418" y1="179.6540069580078" x2="-7.36899995803833" y2="-143.24899291992188"><stop offset="0%" stop-color="rgb(247,166,6)"/><stop offset="17%" stop-color="rgb(251,121,17)"/><stop offset="49%" stop-color="rgb(255,77,27)"/><stop offset="79%" stop-color="rgb(255,72,27)"/><stop offset="100%" stop-color="rgb(255,67,27)"/></linearGradient><linearGradient id="__lottie_element_56753" spreadMethod="pad" gradientUnits="userSpaceOnUse" x1="-16.12299919128418" y1="179.6540069580078" x2="-7.36899995803833" y2="-143.24899291992188"><stop offset="0%" stop-color="rgb(247,166,6)"/><stop offset="17%" stop-color="rgb(251,121,17)"/><stop offset="49%" stop-color="rgb(255,77,27)"/><stop offset="79%" stop-color="rgb(255,72,27)"/><stop offset="100%" stop-color="rgb(255,67,27)"/></linearGradient><linearGradient id="__lottie_element_56754" spreadMethod="pad" gradientUnits="userSpaceOnUse" x1="-16.12299919128418" y1="179.6540069580078" x2="-7.36899995803833" y2="-143.24899291992188"><stop offset="0%" stop-color="rgb(247,166,6)"/><stop offset="17%" stop-color="rgb(251,121,17)"/><stop offset="49%" stop-color="rgb(255,77,27)"/><stop offset="79%" stop-color="rgb(255,72,27)"/><stop offset="100%" stop-color="rgb(255,67,27)"/></linearGradient><linearGradient id="__lottie_element_56755" spreadMethod="pad" gradientUnits="userSpaceOnUse" x1="-16.12299919128418" y1="179.6540069580078" x2="-7.36899995803833" y2="-143.24899291992188"><stop offset="0%" stop-color="rgb(247,166,6)"/><stop offset="17%" stop-color="rgb(251,121,17)"/><stop offset="49%" stop-color="rgb(255,77,27)"/><stop offset="79%" stop-color="rgb(255,72,27)"/><stop offset="100%" stop-color="rgb(255,67,27)"/></linearGradient><linearGradient id="__lottie_element_56756" spreadMethod="pad" gradientUnits="userSpaceOnUse" x1="-16.12299919128418" y1="179.6540069580078" x2="-7.36899995803833" y2="-143.24899291992188"><stop offset="0%" stop-color="rgb(247,166,6)"/><stop offset="17%" stop-color="rgb(251,121,17)"/><stop offset="49%" stop-color="rgb(255,77,27)"/><stop offset="79%" stop-color="rgb(255,72,27)"/><stop offset="100%" stop-color="rgb(255,67,27)"/></linearGradient><linearGradient id="__lottie_element_56757" spreadMethod="pad" gradientUnits="userSpaceOnUse" x1="-16.12299919128418" y1="179.6540069580078" x2="-7.36899995803833" y2="-143.24899291992188"><stop offset="0%" stop-color="rgb(247,166,6)"/><stop offset="17%" stop-color="rgb(251,121,17)"/><stop offset="49%" stop-color="rgb(255,77,27)"/><stop offset="79%" stop-color="rgb(255,72,27)"/><stop offset="100%" stop-color="rgb(255,67,27)"/></linearGradient><linearGradient id="__lottie_element_56758" spreadMethod="pad" gradientUnits="userSpaceOnUse" x1="-16.12299919128418" y1="179.6540069580078" x2="-7.36899995803833" y2="-143.24899291992188"><stop offset="0%" stop-color="rgb(247,166,6)"/><stop offset="17%" stop-color="rgb(251,121,17)"/><stop offset="49%" stop-color="rgb(255,77,27)"/><stop offset="79%" stop-color="rgb(255,72,27)"/><stop offset="100%" stop-color="rgb(255,67,27)"/></linearGradient><linearGradient id="__lottie_element_56759" spreadMethod="pad" gradientUnits="userSpaceOnUse" x1="-16.12299919128418" y1="179.6540069580078" x2="-7.36899995803833" y2="-143.24899291992188"><stop offset="0%" stop-color="rgb(247,166,6)"/><stop offset="17%" stop-color="rgb(251,121,17)"/><stop offset="49%" stop-color="rgb(255,77,27)"/><stop offset="79%" stop-color="rgb(255,72,27)"/><stop offset="100%" stop-color="rgb(255,67,27)"/></linearGradient><linearGradient id="__lottie_element_56760" spreadMethod="pad" gradientUnits="userSpaceOnUse" x1="-16.12299919128418" y1="179.6540069580078" x2="-7.36899995803833" y2="-143.24899291992188"><stop offset="0%" stop-color="rgb(247,166,6)"/><stop offset="17%" stop-color="rgb(251,121,17)"/><stop offset="49%" stop-color="rgb(255,77,27)"/><stop offset="79%" stop-color="rgb(255,72,27)"/><stop offset="100%" stop-color="rgb(255,67,27)"/></linearGradient><linearGradient id="__lottie_element_56761" spreadMethod="pad" gradientUnits="userSpaceOnUse" x1="-16.12299919128418" y1="179.6540069580078" x2="-7.36899995803833" y2="-143.24899291992188"><stop offset="0%" stop-color="rgb(247,166,6)"/><stop offset="17%" stop-color="rgb(251,121,17)"/><stop offset="49%" stop-color="rgb(255,77,27)"/><stop offset="79%" stop-color="rgb(255,72,27)"/><stop offset="100%" stop-color="rgb(255,67,27)"/></linearGradient><linearGradient id="__lottie_element_56762" spreadMethod="pad" gradientUnits="userSpaceOnUse" x1="-16.12299919128418" y1="179.6540069580078" x2="-7.36899995803833" y2="-143.24899291992188"><stop offset="0%" stop-color="rgb(247,166,6)"/><stop offset="17%" stop-color="rgb(251,121,17)"/><stop offset="49%" stop-color="rgb(255,77,27)"/><stop offset="79%" stop-color="rgb(255,72,27)"/><stop offset="100%" stop-color="rgb(255,67,27)"/></linearGradient><linearGradient id="__lottie_element_56763" spreadMethod="pad" gradientUnits="userSpaceOnUse" x1="-16.12299919128418" y1="179.6540069580078" x2="-7.36899995803833" y2="-143.24899291992188"><stop offset="0%" stop-color="rgb(247,166,6)"/><stop offset="17%" stop-color="rgb(251,121,17)"/><stop offset="49%" stop-color="rgb(255,77,27)"/><stop offset="79%" stop-color="rgb(255,72,27)"/><stop offset="100%" stop-color="rgb(255,67,27)"/></linearGradient><linearGradient id="__lottie_element_56764" spreadMethod="pad" gradientUnits="userSpaceOnUse" x1="-16.12299919128418" y1="179.6540069580078" x2="-7.36899995803833" y2="-143.24899291992188"><stop offset="0%" stop-color="rgb(247,166,6)"/><stop offset="17%" stop-color="rgb(251,121,17)"/><stop offset="49%" stop-color="rgb(255,77,27)"/><stop offset="79%" stop-color="rgb(255,72,27)"/><stop offset="100%" stop-color="rgb(255,67,27)"/></linearGradient><linearGradient id="__lottie_element_56767" spreadMethod="pad" gradientUnits="userSpaceOnUse" x1="-13.123000144958496" y1="159.6540069580078" x2="-6.442999839782715" y2="-75.65599822998047"><stop offset="0%" stop-color="rgb(254,231,42)"/><stop offset="27%" stop-color="rgb(255,187,46)"/><stop offset="100%" stop-color="rgb(255,144,51)"/></linearGradient><linearGradient id="__lottie_element_56768" spreadMethod="pad" gradientUnits="userSpaceOnUse" x1="-13.123000144958496" y1="159.6540069580078" x2="-6.442999839782715" y2="-75.65599822998047"><stop offset="0%" stop-color="rgb(254,231,42)"/><stop offset="27%" stop-color="rgb(255,187,46)"/><stop offset="100%" stop-color="rgb(255,144,51)"/></linearGradient><linearGradient id="__lottie_element_56769" spreadMethod="pad" gradientUnits="userSpaceOnUse" x1="-13.123000144958496" y1="159.6540069580078" x2="-6.442999839782715" y2="-75.65599822998047"><stop offset="0%" stop-color="rgb(254,231,42)"/><stop offset="27%" stop-color="rgb(255,187,46)"/><stop offset="100%" stop-color="rgb(255,144,51)"/></linearGradient><linearGradient id="__lottie_element_56770" spreadMethod="pad" gradientUnits="userSpaceOnUse" x1="-13.123000144958496" y1="159.6540069580078" x2="-6.442999839782715" y2="-75.65599822998047"><stop offset="0%" stop-color="rgb(254,231,42)"/><stop offset="27%" stop-color="rgb(255,187,46)"/><stop offset="100%" stop-color="rgb(255,144,51)"/></linearGradient><linearGradient id="__lottie_element_56771" spreadMethod="pad" gradientUnits="userSpaceOnUse" x1="-13.123000144958496" y1="159.6540069580078" x2="-6.442999839782715" y2="-75.65599822998047"><stop offset="0%" stop-color="rgb(254,231,42)"/><stop offset="27%" stop-color="rgb(255,187,46)"/><stop offset="100%" stop-color="rgb(255,144,51)"/></linearGradient><linearGradient id="__lottie_element_56772" spreadMethod="pad" gradientUnits="userSpaceOnUse" x1="-13.123000144958496" y1="159.6540069580078" x2="-6.442999839782715" y2="-75.65599822998047"><stop offset="0%" stop-color="rgb(254,231,42)"/><stop offset="27%" stop-color="rgb(255,187,46)"/><stop offset="100%" stop-color="rgb(255,144,51)"/></linearGradient><linearGradient id="__lottie_element_56773" spreadMethod="pad" gradientUnits="userSpaceOnUse" x1="-13.123000144958496" y1="159.6540069580078" x2="-6.442999839782715" y2="-75.65599822998047"><stop offset="0%" stop-color="rgb(254,231,42)"/><stop offset="27%" stop-color="rgb(255,187,46)"/><stop offset="100%" stop-color="rgb(255,144,51)"/></linearGradient><linearGradient id="__lottie_element_56774" spreadMethod="pad" gradientUnits="userSpaceOnUse" x1="-13.123000144958496" y1="159.6540069580078" x2="-6.442999839782715" y2="-75.65599822998047"><stop offset="0%" stop-color="rgb(254,231,42)"/><stop offset="27%" stop-color="rgb(255,187,46)"/><stop offset="100%" stop-color="rgb(255,144,51)"/></linearGradient><linearGradient id="__lottie_element_56775" spreadMethod="pad" gradientUnits="userSpaceOnUse" x1="-13.123000144958496" y1="159.6540069580078" x2="-6.442999839782715" y2="-75.65599822998047"><stop offset="0%" stop-color="rgb(254,231,42)"/><stop offset="27%" stop-color="rgb(255,187,46)"/><stop offset="100%" stop-color="rgb(255,144,51)"/></linearGradient><linearGradient id="__lottie_element_56776" spreadMethod="pad" gradientUnits="userSpaceOnUse" x1="-13.123000144958496" y1="159.6540069580078" x2="-6.442999839782715" y2="-75.65599822998047"><stop offset="0%" stop-color="rgb(254,231,42)"/><stop offset="27%" stop-color="rgb(255,187,46)"/><stop offset="100%" stop-color="rgb(255,144,51)"/></linearGradient><linearGradient id="__lottie_element_56777" spreadMethod="pad" gradientUnits="userSpaceOnUse" x1="-13.123000144958496" y1="159.6540069580078" x2="-6.442999839782715" y2="-75.65599822998047"><stop offset="0%" stop-color="rgb(254,231,42)"/><stop offset="27%" stop-color="rgb(255,187,46)"/><stop offset="100%" stop-color="rgb(255,144,51)"/></linearGradient><linearGradient id="__lottie_element_56778" spreadMethod="pad" gradientUnits="userSpaceOnUse" x1="-13.123000144958496" y1="159.6540069580078" x2="-6.442999839782715" y2="-75.65599822998047"><stop offset="0%" stop-color="rgb(254,231,42)"/><stop offset="27%" stop-color="rgb(255,187,46)"/><stop offset="100%" stop-color="rgb(255,144,51)"/></linearGradient><linearGradient id="__lottie_element_56779" spreadMethod="pad" gradientUnits="userSpaceOnUse" x1="-13.123000144958496" y1="159.6540069580078" x2="-6.442999839782715" y2="-75.65599822998047"><stop offset="0%" stop-color="rgb(254,231,42)"/><stop offset="27%" stop-color="rgb(255,187,46)"/><stop offset="100%" stop-color="rgb(255,144,51)"/></linearGradient><radialGradient id="__lottie_element_56782" spreadMethod="pad" gradientUnits="userSpaceOnUse" cx="-7.51200008392334" cy="156.41299438476562" r="113.70687677227686" fx="-7.51200008392334" fy="156.41299438476562"><stop offset="12%" stop-color="rgb(254,254,229)"/><stop offset="50%" stop-color="rgb(254,238,162)"/><stop offset="88%" stop-color="rgb(254,222,95)"/></radialGradient><radialGradient id="__lottie_element_56783" spreadMethod="pad" gradientUnits="userSpaceOnUse" cx="-7.51200008392334" cy="156.41299438476562" r="113.70687677227686" fx="-7.51200008392334" fy="156.41299438476562"><stop offset="12%" stop-color="rgb(254,254,229)"/><stop offset="50%" stop-color="rgb(254,238,162)"/><stop offset="88%" stop-color="rgb(254,222,95)"/></radialGradient><radialGradient id="__lottie_element_56784" spreadMethod="pad" gradientUnits="userSpaceOnUse" cx="-7.51200008392334" cy="156.41299438476562" r="113.70687677227686" fx="-7.51200008392334" fy="156.41299438476562"><stop offset="12%" stop-color="rgb(254,254,229)"/><stop offset="50%" stop-color="rgb(254,238,162)"/><stop offset="88%" stop-color="rgb(254,222,95)"/></radialGradient><radialGradient id="__lottie_element_56785" spreadMethod="pad" gradientUnits="userSpaceOnUse" cx="-7.51200008392334" cy="156.41299438476562" r="113.70687677227686" fx="-7.51200008392334" fy="156.41299438476562"><stop offset="12%" stop-color="rgb(254,254,229)"/><stop offset="50%" stop-color="rgb(254,238,162)"/><stop offset="88%" stop-color="rgb(254,222,95)"/></radialGradient><radialGradient id="__lottie_element_56786" spreadMethod="pad" gradientUnits="userSpaceOnUse" cx="-7.51200008392334" cy="156.41299438476562" r="113.70687677227686" fx="-7.51200008392334" fy="156.41299438476562"><stop offset="12%" stop-color="rgb(254,254,229)"/><stop offset="50%" stop-color="rgb(254,238,162)"/><stop offset="88%" stop-color="rgb(254,222,95)"/></radialGradient><radialGradient id="__lottie_element_56787" spreadMethod="pad" gradientUnits="userSpaceOnUse" cx="-7.51200008392334" cy="156.41299438476562" r="113.70687677227686" fx="-7.51200008392334" fy="156.41299438476562"><stop offset="12%" stop-color="rgb(254,254,229)"/><stop offset="50%" stop-color="rgb(254,238,162)"/><stop offset="88%" stop-color="rgb(254,222,95)"/></radialGradient><radialGradient id="__lottie_element_56788" spreadMethod="pad" gradientUnits="userSpaceOnUse" cx="-7.51200008392334" cy="156.41299438476562" r="113.70687677227686" fx="-7.51200008392334" fy="156.41299438476562"><stop offset="12%" stop-color="rgb(254,254,229)"/><stop offset="50%" stop-color="rgb(254,238,162)"/><stop offset="88%" stop-color="rgb(254,222,95)"/></radialGradient><radialGradient id="__lottie_element_56789" spreadMethod="pad" gradientUnits="userSpaceOnUse" cx="-7.51200008392334" cy="156.41299438476562" r="113.70687677227686" fx="-7.51200008392334" fy="156.41299438476562"><stop offset="12%" stop-color="rgb(254,254,229)"/><stop offset="50%" stop-color="rgb(254,238,162)"/><stop offset="88%" stop-color="rgb(254,222,95)"/></radialGradient><radialGradient id="__lottie_element_56790" spreadMethod="pad" gradientUnits="userSpaceOnUse" cx="-7.51200008392334" cy="156.41299438476562" r="113.70687677227686" fx="-7.51200008392334" fy="156.41299438476562"><stop offset="12%" stop-color="rgb(254,254,229)"/><stop offset="50%" stop-color="rgb(254,238,162)"/><stop offset="88%" stop-color="rgb(254,222,95)"/></radialGradient><radialGradient id="__lottie_element_56791" spreadMethod="pad" gradientUnits="userSpaceOnUse" cx="-7.51200008392334" cy="156.41299438476562" r="113.70687677227686" fx="-7.51200008392334" fy="156.41299438476562"><stop offset="12%" stop-color="rgb(254,254,229)"/><stop offset="50%" stop-color="rgb(254,238,162)"/><stop offset="88%" stop-color="rgb(254,222,95)"/></radialGradient><radialGradient id="__lottie_element_56792" spreadMethod="pad" gradientUnits="userSpaceOnUse" cx="-7.51200008392334" cy="156.41299438476562" r="113.70687677227686" fx="-7.51200008392334" fy="156.41299438476562"><stop offset="12%" stop-color="rgb(254,254,229)"/><stop offset="50%" stop-color="rgb(254,238,162)"/><stop offset="88%" stop-color="rgb(254,222,95)"/></radialGradient><radialGradient id="__lottie_element_56793" spreadMethod="pad" gradientUnits="userSpaceOnUse" cx="-7.51200008392334" cy="156.41299438476562" r="113.70687677227686" fx="-7.51200008392334" fy="156.41299438476562"><stop offset="12%" stop-color="rgb(254,254,229)"/><stop offset="50%" stop-color="rgb(254,238,162)"/><stop offset="88%" stop-color="rgb(254,222,95)"/></radialGradient><radialGradient id="__lottie_element_56794" spreadMethod="pad" gradientUnits="userSpaceOnUse" cx="-7.51200008392334" cy="156.41299438476562" r="113.70687677227686" fx="-7.51200008392334" fy="156.41299438476562"><stop offset="12%" stop-color="rgb(254,254,229)"/><stop offset="50%" stop-color="rgb(254,238,162)"/><stop offset="88%" stop-color="rgb(254,222,95)"/></radialGradient><radialGradient id="__lottie_element_56798" spreadMethod="pad" gradientUnits="userSpaceOnUse" cx="-7.51200008392334" cy="156.41299438476562" r="113.70687677227686" fx="-7.51200008392334" fy="156.41299438476562"><stop offset="12%" stop-color="rgb(254,254,229)"/><stop offset="50%" stop-color="rgb(254,238,162)"/><stop offset="88%" stop-color="rgb(254,222,95)"/></radialGradient><radialGradient id="__lottie_element_56799" spreadMethod="pad" gradientUnits="userSpaceOnUse" cx="-7.51200008392334" cy="156.41299438476562" r="113.70687677227686" fx="-7.51200008392334" fy="156.41299438476562"><stop offset="12%" stop-color="rgb(254,254,229)"/><stop offset="50%" stop-color="rgb(254,238,162)"/><stop offset="88%" stop-color="rgb(254,222,95)"/></radialGradient><radialGradient id="__lottie_element_56800" spreadMethod="pad" gradientUnits="userSpaceOnUse" cx="-7.51200008392334" cy="156.41299438476562" r="113.70687677227686" fx="-7.51200008392334" fy="156.41299438476562"><stop offset="12%" stop-color="rgb(254,254,229)"/><stop offset="50%" stop-color="rgb(254,238,162)"/><stop offset="88%" stop-color="rgb(254,222,95)"/></radialGradient><radialGradient id="__lottie_element_56801" spreadMethod="pad" gradientUnits="userSpaceOnUse" cx="-7.51200008392334" cy="156.41299438476562" r="113.70687677227686" fx="-7.51200008392334" fy="156.41299438476562"><stop offset="12%" stop-color="rgb(254,254,229)"/><stop offset="50%" stop-color="rgb(254,238,162)"/><stop offset="88%" stop-color="rgb(254,222,95)"/></radialGradient><radialGradient id="__lottie_element_56802" spreadMethod="pad" gradientUnits="userSpaceOnUse" cx="-7.51200008392334" cy="156.41299438476562" r="113.70687677227686" fx="-7.51200008392334" fy="156.41299438476562"><stop offset="12%" stop-color="rgb(254,254,229)"/><stop offset="50%" stop-color="rgb(254,238,162)"/><stop offset="88%" stop-color="rgb(254,222,95)"/></radialGradient><radialGradient id="__lottie_element_56803" spreadMethod="pad" gradientUnits="userSpaceOnUse" cx="-7.51200008392334" cy="156.41299438476562" r="113.70687677227686" fx="-7.51200008392334" fy="156.41299438476562"><stop offset="12%" stop-color="rgb(254,254,229)"/><stop offset="50%" stop-color="rgb(254,238,162)"/><stop offset="88%" stop-color="rgb(254,222,95)"/></radialGradient><radialGradient id="__lottie_element_56804" spreadMethod="pad" gradientUnits="userSpaceOnUse" cx="-7.51200008392334" cy="156.41299438476562" r="113.70687677227686" fx="-7.51200008392334" fy="156.41299438476562"><stop offset="12%" stop-color="rgb(254,254,229)"/><stop offset="50%" stop-color="rgb(254,238,162)"/><stop offset="88%" stop-color="rgb(254,222,95)"/></radialGradient><radialGradient id="__lottie_element_56805" spreadMethod="pad" gradientUnits="userSpaceOnUse" cx="-7.51200008392334" cy="156.41299438476562" r="113.70687677227686" fx="-7.51200008392334" fy="156.41299438476562"><stop offset="12%" stop-color="rgb(254,254,229)"/><stop offset="50%" stop-color="rgb(254,238,162)"/><stop offset="88%" stop-color="rgb(254,222,95)"/></radialGradient><radialGradient id="__lottie_element_56806" spreadMethod="pad" gradientUnits="userSpaceOnUse" cx="-7.51200008392334" cy="156.41299438476562" r="113.70687677227686" fx="-7.51200008392334" fy="156.41299438476562"><stop offset="12%" stop-color="rgb(254,254,229)"/><stop offset="50%" stop-color="rgb(254,238,162)"/><stop offset="88%" stop-color="rgb(254,222,95)"/></radialGradient><radialGradient id="__lottie_element_56807" spreadMethod="pad" gradientUnits="userSpaceOnUse" cx="-7.51200008392334" cy="156.41299438476562" r="113.70687677227686" fx="-7.51200008392334" fy="156.41299438476562"><stop offset="12%" stop-color="rgb(254,254,229)"/><stop offset="50%" stop-color="rgb(254,238,162)"/><stop offset="88%" stop-color="rgb(254,222,95)"/></radialGradient><radialGradient id="__lottie_element_56808" spreadMethod="pad" gradientUnits="userSpaceOnUse" cx="-7.51200008392334" cy="156.41299438476562" r="113.70687677227686" fx="-7.51200008392334" fy="156.41299438476562"><stop offset="12%" stop-color="rgb(254,254,229)"/><stop offset="50%" stop-color="rgb(254,238,162)"/><stop offset="88%" stop-color="rgb(254,222,95)"/></radialGradient><radialGradient id="__lottie_element_56809" spreadMethod="pad" gradientUnits="userSpaceOnUse" cx="-7.51200008392334" cy="156.41299438476562" r="113.70687677227686" fx="-7.51200008392334" fy="156.41299438476562"><stop offset="12%" stop-color="rgb(254,254,229)"/><stop offset="50%" stop-color="rgb(254,238,162)"/><stop offset="88%" stop-color="rgb(254,222,95)"/></radialGradient><radialGradient id="__lottie_element_56810" spreadMethod="pad" gradientUnits="userSpaceOnUse" cx="-7.51200008392334" cy="156.41299438476562" r="113.70687677227686" fx="-7.51200008392334" fy="156.41299438476562"><stop offset="12%" stop-color="rgb(254,254,229)"/><stop offset="50%" stop-color="rgb(254,238,162)"/><stop offset="88%" stop-color="rgb(254,222,95)"/></radialGradient><radialGradient id="__lottie_element_56814" spreadMethod="pad" gradientUnits="userSpaceOnUse" cx="-7.51200008392334" cy="156.41299438476562" r="113.70687677227686" fx="-7.51200008392334" fy="156.41299438476562"><stop offset="12%" stop-color="rgb(254,254,229)"/><stop offset="50%" stop-color="rgb(254,238,162)"/><stop offset="88%" stop-color="rgb(254,222,95)"/></radialGradient><radialGradient id="__lottie_element_56815" spreadMethod="pad" gradientUnits="userSpaceOnUse" cx="-7.51200008392334" cy="156.41299438476562" r="113.70687677227686" fx="-7.51200008392334" fy="156.41299438476562"><stop offset="12%" stop-color="rgb(254,254,229)"/><stop offset="50%" stop-color="rgb(254,238,162)"/><stop offset="88%" stop-color="rgb(254,222,95)"/></radialGradient><radialGradient id="__lottie_element_56816" spreadMethod="pad" gradientUnits="userSpaceOnUse" cx="-7.51200008392334" cy="156.41299438476562" r="113.70687677227686" fx="-7.51200008392334" fy="156.41299438476562"><stop offset="12%" stop-color="rgb(254,254,229)"/><stop offset="50%" stop-color="rgb(254,238,162)"/><stop offset="88%" stop-color="rgb(254,222,95)"/></radialGradient><radialGradient id="__lottie_element_56817" spreadMethod="pad" gradientUnits="userSpaceOnUse" cx="-7.51200008392334" cy="156.41299438476562" r="113.70687677227686" fx="-7.51200008392334" fy="156.41299438476562"><stop offset="12%" stop-color="rgb(254,254,229)"/><stop offset="50%" stop-color="rgb(254,238,162)"/><stop offset="88%" stop-color="rgb(254,222,95)"/></radialGradient><radialGradient id="__lottie_element_56818" spreadMethod="pad" gradientUnits="userSpaceOnUse" cx="-7.51200008392334" cy="156.41299438476562" r="113.70687677227686" fx="-7.51200008392334" fy="156.41299438476562"><stop offset="12%" stop-color="rgb(254,254,229)"/><stop offset="50%" stop-color="rgb(254,238,162)"/><stop offset="88%" stop-color="rgb(254,222,95)"/></radialGradient><radialGradient id="__lottie_element_56819" spreadMethod="pad" gradientUnits="userSpaceOnUse" cx="-7.51200008392334" cy="156.41299438476562" r="113.70687677227686" fx="-7.51200008392334" fy="156.41299438476562"><stop offset="12%" stop-color="rgb(254,254,229)"/><stop offset="50%" stop-color="rgb(254,238,162)"/><stop offset="88%" stop-color="rgb(254,222,95)"/></radialGradient><radialGradient id="__lottie_element_56820" spreadMethod="pad" gradientUnits="userSpaceOnUse" cx="-7.51200008392334" cy="156.41299438476562" r="113.70687677227686" fx="-7.51200008392334" fy="156.41299438476562"><stop offset="12%" stop-color="rgb(254,254,229)"/><stop offset="50%" stop-color="rgb(254,238,162)"/><stop offset="88%" stop-color="rgb(254,222,95)"/></radialGradient><radialGradient id="__lottie_element_56821" spreadMethod="pad" gradientUnits="userSpaceOnUse" cx="-7.51200008392334" cy="156.41299438476562" r="113.70687677227686" fx="-7.51200008392334" fy="156.41299438476562"><stop offset="12%" stop-color="rgb(254,254,229)"/><stop offset="50%" stop-color="rgb(254,238,162)"/><stop offset="88%" stop-color="rgb(254,222,95)"/></radialGradient><radialGradient id="__lottie_element_56822" spreadMethod="pad" gradientUnits="userSpaceOnUse" cx="-7.51200008392334" cy="156.41299438476562" r="113.70687677227686" fx="-7.51200008392334" fy="156.41299438476562"><stop offset="12%" stop-color="rgb(254,254,229)"/><stop offset="50%" stop-color="rgb(254,238,162)"/><stop offset="88%" stop-color="rgb(254,222,95)"/></radialGradient><radialGradient id="__lottie_element_56823" spreadMethod="pad" gradientUnits="userSpaceOnUse" cx="-7.51200008392334" cy="156.41299438476562" r="113.70687677227686" fx="-7.51200008392334" fy="156.41299438476562"><stop offset="12%" stop-color="rgb(254,254,229)"/><stop offset="50%" stop-color="rgb(254,238,162)"/><stop offset="88%" stop-color="rgb(254,222,95)"/></radialGradient><radialGradient id="__lottie_element_56824" spreadMethod="pad" gradientUnits="userSpaceOnUse" cx="-7.51200008392334" cy="156.41299438476562" r="113.70687677227686" fx="-7.51200008392334" fy="156.41299438476562"><stop offset="12%" stop-color="rgb(254,254,229)"/><stop offset="50%" stop-color="rgb(254,238,162)"/><stop offset="88%" stop-color="rgb(254,222,95)"/></radialGradient><radialGradient id="__lottie_element_56825" spreadMethod="pad" gradientUnits="userSpaceOnUse" cx="-7.51200008392334" cy="156.41299438476562" r="113.70687677227686" fx="-7.51200008392334" fy="156.41299438476562"><stop offset="12%" stop-color="rgb(254,254,229)"/><stop offset="50%" stop-color="rgb(254,238,162)"/><stop offset="88%" stop-color="rgb(254,222,95)"/></radialGradient><radialGradient id="__lottie_element_56826" spreadMethod="pad" gradientUnits="userSpaceOnUse" cx="-7.51200008392334" cy="156.41299438476562" r="113.70687677227686" fx="-7.51200008392334" fy="156.41299438476562"><stop offset="12%" stop-color="rgb(254,254,229)"/><stop offset="50%" stop-color="rgb(254,238,162)"/><stop offset="88%" stop-color="rgb(254,222,95)"/></radialGradient><linearGradient id="__lottie_element_56830" spreadMethod="pad" gradientUnits="userSpaceOnUse" x1="-1.0859999656677246" y1="91.5250015258789" x2="3.742000102996826" y2="-85.84100341796875"><stop offset="0%" stop-color="rgb(255,194,46)"/><stop offset="18%" stop-color="rgb(255,210,79)"/><stop offset="35%" stop-color="rgb(255,225,112)"/><stop offset="72%" stop-color="rgb(255,196,82)"/><stop offset="100%" stop-color="rgb(255,167,51)"/></linearGradient><mask id="__lottie_element_56832"><path fill="url(#__lottie_element_56831)" d=" M19.5,-99.25 C30,-29 -122,-105 -12,192.4290008544922 C-8,114 70,-1 19.5,-99.25z M19.5,-99.25 C21.847000122070312,-83.5479965209961 16.076000213623047,-75.15299987792969 6.927000045776367,-68.26100158691406 C-24.857999801635742,-44.31800079345703 -97.41400146484375,-38.52199935913086 -12,192.4290008544922 C-8,114 70,-1 19.5,-99.25z M66.25,51.5 C55.16999816894531,58.7869987487793 28.5,48.5 32.1510009765625,21.736000061035156 C36.20100021362305,-7.952000141143799 -25.349000930786133,81.12300109863281 -12,192.4290008544922 C-8,114 106.5,177 66.25,51.5z M-48.099998474121094,30.58300018310547 C-46.79999923706055,88 -28.033000946044922,134.06700134277344 -12,192.4290008544922 C-9.154999732971191,136.64100646972656 -28.145999908447266,32.38999938964844 -41.2599983215332,30.365999221801758 C-44.53300094604492,38.933998107910156 -32.222999572753906,32.81999969482422 -48.099998474121094,30.58300018310547z M-94.33300018310547,75.75 C-101.43299865722656,131.83299255371094 -50.03300094604492,151.86700439453125 -12,192.4290008544922 C-9.154999732971191,136.64100646972656 -49.58399963378906,5.684000015258789 -50.15999984741211,37.731998443603516 C-51.30099868774414,83.5989990234375 -79.61399841308594,76.68800354003906 -94.33300018310547,75.75z"/></mask><linearGradient id="__lottie_element_56831" spreadMethod="pad" gradientUnits="userSpaceOnUse" x1="-1.0859999656677246" y1="91.5250015258789" x2="3.742000102996826" y2="-85.84100341796875"><stop stop-color="rgb(255,255,255)" offset="35%" stop-opacity="1"/><stop stop-color="rgb(255,255,255)" offset="73%" stop-opacity="0.5"/><stop stop-color="rgb(255,255,255)" offset="100%" stop-opacity="0"/></linearGradient><linearGradient id="__lottie_element_56842" spreadMethod="pad" gradientUnits="userSpaceOnUse"><stop/><stop/><stop/></linearGradient><linearGradient id="__lottie_element_56846" spreadMethod="pad" gradientUnits="userSpaceOnUse"><stop/><stop/><stop/></linearGradient><linearGradient id="__lottie_element_56850" spreadMethod="pad" gradientUnits="userSpaceOnUse"><stop/><stop/><stop/></linearGradient><linearGradient id="__lottie_element_56854" spreadMethod="pad" gradientUnits="userSpaceOnUse"><stop/><stop/><stop/></linearGradient><linearGradient id="__lottie_element_56858" spreadMethod="pad" gradientUnits="userSpaceOnUse"><stop/><stop/><stop/></linearGradient><linearGradient id="__lottie_element_56862" spreadMethod="pad" gradientUnits="userSpaceOnUse" x1="-16.12299919128418" y1="179.6540069580078" x2="0.03799999877810478" y2="-137.6929931640625"><stop offset="0%" stop-color="rgb(247,166,6)"/><stop offset="18%" stop-color="rgb(250,121,14)"/><stop offset="100%" stop-color="rgb(253,77,21)"/></linearGradient><linearGradient id="__lottie_element_56866" spreadMethod="pad" gradientUnits="userSpaceOnUse"><stop/><stop/><stop/></linearGradient><linearGradient id="__lottie_element_56870" spreadMethod="pad" gradientUnits="userSpaceOnUse"><stop/><stop/><stop/></linearGradient><linearGradient id="__lottie_element_56874" spreadMethod="pad" gradientUnits="userSpaceOnUse" x1="-16.12299919128418" y1="179.6540069580078" x2="0.03799999877810478" y2="-137.6929931640625"><stop offset="0%" stop-color="rgb(247,166,6)"/><stop offset="18%" stop-color="rgb(250,121,14)"/><stop offset="100%" stop-color="rgb(253,77,21)"/></linearGradient><linearGradient id="__lottie_element_56878" spreadMethod="pad" gradientUnits="userSpaceOnUse"><stop/><stop/><stop/></linearGradient></defs><g clip-path="url(#__lottie_element_56741)"><g style="display: block;" transform="matrix(1.0800000429153442,0,0,1.0800000429153442,265,255.39999389648438)" opacity="1"><g opacity="1" transform="matrix(1,0,0,1,0,0.5)"><path stroke-linecap="round" stroke-linejoin="round" fill-opacity="0" stroke="rgb(186,23,2)" stroke-opacity="1" stroke-width="16" d=" M-17.542999267578125,-198 C10,-5 -204,27 -11,192 C114,-2 129,-141 -17.542999267578125,-198z"/></g><g opacity="1" transform="matrix(1,0,0,1,0,0.5)"><path stroke-linecap="round" stroke-linejoin="round" fill-opacity="0" stroke="rgb(186,23,2)" stroke-opacity="1" stroke-width="16" d=" M-57.042999267578125,-114.5 C-93,-42 -97,66 -11,192 C81.5,-23.5 -77,-5 -57.042999267578125,-114.5z"/></g><g opacity="1" transform="matrix(1,0,0,1,0,0.5)"><path stroke-linecap="round" stroke-linejoin="round" fill-opacity="0" stroke="rgb(186,23,2)" stroke-opacity="1" stroke-width="16" d=" M-57.042999267578125,-114.5 C-44.5,-107 -16.5,-129.5 -17.368000030517578,-197.8159942626953 C7.5320000648498535,37.48400115966797 -105.75,-26 -57.042999267578125,-114.5z"/></g><g opacity="1" transform="matrix(1,0,0,1,0,0.5)"><path stroke-linecap="round" stroke-linejoin="round" fill-opacity="0" stroke="rgb(186,23,2)" stroke-opacity="1" stroke-width="16" d=" M-135.04299926757812,-27.5 C-213,46 -118,192 -11,192 C81.5,-23.5 -143,84 -135.04299926757812,-27.5z"/></g><g opacity="1" transform="matrix(1,0,0,1,0,0.5)"><path stroke-linecap="round" stroke-linejoin="round" fill-opacity="0" stroke="rgb(186,23,2)" stroke-opacity="1" stroke-width="16" d=" M-132.87600708007812,147.66700744628906 C-117,171.5 -65,192 -11,192 C-19.5,121 -98,160.5 -132.87600708007812,147.66700744628906z"/></g><g opacity="1" transform="matrix(1,0,0,1,0,0.5)"><path stroke-linecap="round" stroke-linejoin="round" fill-opacity="0" stroke="rgb(186,23,2)" stroke-opacity="1" stroke-width="16" d=" M-63.375999450683594,164.16700744628906 C-41.5,164 -65,192 -11,192 C-23,165 -46.5,152 -63.375999450683594,164.16700744628906z"/></g><g opacity="1" transform="matrix(1,0,0,1,0,0.5)"><path stroke-linecap="round" stroke-linejoin="round" fill-opacity="0" stroke="rgb(186,23,2)" stroke-opacity="1" stroke-width="16" d=" M124.45700073242188,-28 C110,48 -11,-3 -11,192 C73,167 196,95 124.45700073242188,-28z"/></g><g opacity="1" transform="matrix(1,0,0,1,0,0.5)"><path stroke-linecap="round" stroke-linejoin="round" fill-opacity="0" stroke="rgb(186,23,2)" stroke-opacity="1" stroke-width="16" d=" M103.95700073242188,151.25 C55.75,151 -10.75,149.75 -11,192 C61.5,192 102.25,154.75 103.95700073242188,151.25z"/></g><g opacity="1" transform="matrix(1,0,0,1,0,0.5)"><path stroke-linecap="round" stroke-linejoin="round" fill-opacity="0" stroke="rgb(186,23,2)" stroke-opacity="1" stroke-width="16" d=" M14.937999725341797,182.197998046875 C4.2210001945495605,182.14199829101562 -10.562000274658203,181.86500549316406 -10.618000030517578,191.2570037841797 C5.499000072479248,191.2570037841797 14.557999610900879,182.9759979248047 14.937999725341797,182.197998046875z"/></g><g opacity="1" transform="matrix(1,0,0,1,0,0.5)"><path stroke-linecap="round" stroke-linejoin="round" fill-opacity="0" stroke="rgb(186,23,2)" stroke-opacity="1" stroke-width="16" d=" M-135.04299926757812,-27.5 C-139,-2 -104.26599884033203,28.847000122070312 -89.89199829101562,9.213000297546387 C-72.05000305175781,-15.157999992370605 -91,-51 -57,-113.5 C-10,76 -184,75.5 -135.04299926757812,-27.5z"/></g><g opacity="1" transform="matrix(1,0,0,1,0,0.5)"><path stroke-linecap="round" stroke-linejoin="round" fill-opacity="0" stroke="rgb(186,23,2)" stroke-opacity="1" stroke-width="16" d=" M-132.9429931640625,147.6439971923828 C-76.06700134277344,162.9770050048828 -221,76 -135.08299255371094,-27.5 C-157,24 -39.56700134277344,220.4770050048828 -132.9429931640625,147.6439971923828z"/></g><g opacity="1" transform="matrix(1,0,0,1,0,0.5)"><path stroke-linecap="round" stroke-linejoin="round" fill-opacity="0" stroke="rgb(186,23,2)" stroke-opacity="1" stroke-width="16" d=" M-63.44300079345703,163.8939971923828 C-61,173 -92.5,173 -132.70799255371094,147.5 C-125.25,151.25 -83.5,161 -63.44300079345703,163.8939971923828z"/></g><g opacity="1" transform="matrix(1,0,0,1,0,0.5)"><path stroke-linecap="round" stroke-linejoin="round" fill-opacity="0" stroke="rgb(186,23,2)" stroke-opacity="1" stroke-width="16" d=" M124.45700073242188,-28 C121.75,-14.5 108.68699645996094,0.5170000195503235 95.25800323486328,-2.638000011444092 C73.5,-7.75 128.5,-142 -17.025999069213867,-197.55499267578125 C-31.954999923706055,107.15899658203125 196,95 124.45700073242188,-28z"/></g><g opacity="1" transform="matrix(1,0,0,1,0,0.5)"><path stroke-linecap="round" stroke-linejoin="round" fill-opacity="0" stroke="rgb(186,23,2)" stroke-opacity="1" stroke-width="16" d=" M103.95700073242188,151.25 C96.4280014038086,147.10000610351562 95.1050033569336,142.9770050048828 97.40299987792969,138.072998046875 C107.14600372314453,117.27999877929688 181.98399353027344,82.4520034790039 124.66699981689453,-28 C113,46.5 -26.5,219 103.95700073242188,151.25z"/></g><g opacity="1" transform="matrix(1,0,0,1,0,0.5)"><path stroke-linecap="round" stroke-linejoin="round" fill-opacity="0" stroke="rgb(186,23,2)" stroke-opacity="1" stroke-width="16" d=" M15.206999778747559,182.25 C14.38700008392334,181.79800415039062 13.854999542236328,181.36700439453125 13.657999992370605,180.9250030517578 C12.04800033569336,177.30999755859375 32.97200012207031,173.01199340820312 103.66699981689453,151.28599548339844 C13,174.28599548339844 -33.75,160 15.206999778747559,182.25z"/></g></g><g style="display: block;" transform="matrix(1.0800000429153442,0,0,1.0800000429153442,265,255.39999389648438)" opacity="1"><g opacity="1" transform="matrix(1,0,0,1,0,0.5)"><path fill="url(#__lottie_element_56874)" fill-opacity="1" d=" M-116.04299926757812,-122.5 C-124,-97 -157.5,-83.5 -141,-50 C-122.5,-63.5 -110.5,-91 -116.04299926757812,-122.5z"/><path stroke-linecap="round" stroke-linejoin="round" fill-opacity="0" stroke="rgb(186,24,2)" stroke-opacity="1" stroke-width="7.5" d=" M-116.04299926757812,-122.5 C-124,-97 -157.5,-83.5 -141,-50 C-122.5,-63.5 -110.5,-91 -116.04299926757812,-122.5z"/></g></g><g style="display: block;" transform="matrix(1.0800000429153442,0,0,1.0800000429153442,265,255.39999389648438)" opacity="1"><g opacity="1" transform="matrix(1,0,0,1,0,0.5)"><path stroke-linecap="round" stroke-linejoin="round" fill-opacity="0" stroke="rgb(186,24,2)" stroke-opacity="1" stroke-width="16" d=" M-17.836000442504883,-197.99099731445312 C42.04199981689453,-151.9600067138672 -22.798999786376953,-84.97699737548828 76.00700378417969,-46.30099868774414 C77.88999938964844,-58.558998107910156 81.60399627685547,-72.9530029296875 81.36399841308594,-88.80799865722656 C80.87699890136719,-121.05699920654297 64.03399658203125,-159.3470001220703 -17.836000442504883,-197.99099731445312z"/><path fill="url(#__lottie_element_56862)" fill-opacity="1" d=" M-17.836000442504883,-197.99099731445312 C42.04199981689453,-151.9600067138672 -22.798999786376953,-84.97699737548828 76.00700378417969,-46.30099868774414 C77.88999938964844,-58.558998107910156 81.60399627685547,-72.9530029296875 81.36399841308594,-88.80799865722656 C80.87699890136719,-121.05699920654297 64.03399658203125,-159.3470001220703 -17.836000442504883,-197.99099731445312z"/></g></g><g style="display: block;" transform="matrix(1.0800000429153442,0,0,1.0800000429153442,265,255.39999389648438)" opacity="1"><g opacity="1" transform="matrix(1,0,0,1,0,0.5)"><path stroke-linecap="round" stroke-linejoin="round" fill-opacity="0" stroke="rgb(239,84,1)" stroke-opacity="1" stroke-width="16.5" d=" M-11,192 C-43.95800018310547,192 -75.7770004272461,178.1479949951172 -101.75399780273438,156.8300018310547"/></g><g opacity="1" transform="matrix(1,0,0,1,0,0.5)"><path stroke-linecap="round" stroke-linejoin="round" fill-opacity="0" stroke="rgb(239,84,1)" stroke-opacity="1" stroke-width="16.5" d=" M-11,192 C-65,192 -117,171.5 -132.87600708007812,147.66700744628906 C-128.58399963378906,149.24600219726562 -123.63099670410156,150.0330047607422 -118.22899627685547,150.33099365234375"/></g><g opacity="1" transform="matrix(1,0,0,1,0,0.5)"><path stroke-linecap="round" stroke-linejoin="round" fill-opacity="0" stroke="rgb(239,84,1)" stroke-opacity="1" stroke-width="16.5" d=" M-11,192 C-23,165 -46.5,152 -63.375999450683594,164.16700744628906 C-41.5,164 -65,192 -11,192z"/></g><g opacity="1" transform="matrix(1,0,0,1,0,0.5)"><path stroke-linecap="round" stroke-linejoin="round" fill-opacity="0" stroke="rgb(239,84,1)" stroke-opacity="1" stroke-width="16.5" d=" M-11,192 C61.5,192 102.25,154.75 103.95700073242188,151.25 C99.08399963378906,151.22500610351562 94.0250015258789,151.18899536132812 88.86499786376953,151.18899536132812"/></g><g opacity="1" transform="matrix(1,0,0,1,0,0.5)"><path stroke-linecap="round" stroke-linejoin="round" fill-opacity="0" stroke="rgb(239,84,1)" stroke-opacity="1" stroke-width="16.5" d=" M-10.618000030517578,191.2570037841797 C5.499000072479248,191.2570037841797 14.557999610900879,182.9759979248047 14.937999725341797,182.197998046875 C13.494000434875488,182.19000244140625 11.97599983215332,182.1790008544922 10.430000305175781,182.18800354003906"/></g></g><g style="display: block;" transform="matrix(1.0800000429153442,0,0,1.0800000429153442,265,255.39999389648438)" opacity="1"><g opacity="1" transform="matrix(1,0,0,1,0,0.5)"><path stroke-linecap="round" stroke-linejoin="round" fill-opacity="0" stroke="rgb(255,157,0)" stroke-opacity="1" stroke-width="16.5" d=" M-37.85300064086914,191.32699584960938 C-30.405000686645508,192.3179931640625 -21.52899932861328,192.92300415039062 -11,193 C-11,193 -11,193 -11,193 C1.034999966621399,192.927001953125 11.109999656677246,192.26100158691406 19.54400062561035,191.16400146484375"/><path fill="rgb(255,157,0)" fill-opacity="1" d=" M-37.85300064086914,191.32699584960938 C-30.405000686645508,192.3179931640625 -21.52899932861328,192.92300415039062 -11,193 C-11,193 -11,193 -11,193 C1.034999966621399,192.927001953125 11.109999656677246,192.26100158691406 19.54400062561035,191.16400146484375"/></g></g><g style="display: block;" transform="matrix(1.0800000429153442,0,0,1.0800000429153442,265,255.39999389648438)" opacity="1"><g opacity="1" transform="matrix(1,0,0,1,0,0.5)"><path fill="url(#__lottie_element_56749)" fill-opacity="1" d=" M-17.542999267578125,-198 C10,-5 -204,27 -11,192 C114,-2 129,-141 -17.542999267578125,-198z"/></g><g opacity="1" transform="matrix(1,0,0,1,0,0.5)"><path fill="url(#__lottie_element_56750)" fill-opacity="1" d=" M-57.042999267578125,-114.5 C-93,-42 -97,66 -11,192 C81.5,-23.5 -77,-5 -57.042999267578125,-114.5z"/></g><g opacity="1" transform="matrix(1,0,0,1,0,0.5)"><path fill="url(#__lottie_element_56751)" fill-opacity="1" d=" M-57.042999267578125,-114.5 C-44.5,-107 -16.5,-129.5 -17.368000030517578,-197.8159942626953 C7.5320000648498535,37.48400115966797 -105.75,-26 -57.042999267578125,-114.5z"/></g><g opacity="1" transform="matrix(1,0,0,1,0,0.5)"><path fill="url(#__lottie_element_56752)" fill-opacity="1" d=" M-135.04299926757812,-27.5 C-213,46 -118,192 -11,192 C81.5,-23.5 -143,84 -135.04299926757812,-27.5z"/></g><g opacity="1" transform="matrix(1,0,0,1,0,0.5)"><path fill="url(#__lottie_element_56753)" fill-opacity="1" d=" M-132.87600708007812,147.66700744628906 C-117,171.5 -65,192 -11,192 C-19.5,121 -98,160.5 -132.87600708007812,147.66700744628906z"/></g><g opacity="1" transform="matrix(1,0,0,1,0,0.5)"><path fill="url(#__lottie_element_56754)" fill-opacity="1" d=" M-63.375999450683594,164.16700744628906 C-41.5,164 -65,192 -11,192 C-23,165 -46.5,152 -63.375999450683594,164.16700744628906z"/></g><g opacity="1" transform="matrix(1,0,0,1,0,0.5)"><path fill="url(#__lottie_element_56755)" fill-opacity="1" d=" M124.45700073242188,-28 C110,48 -11,-3 -11,192 C73,167 196,95 124.45700073242188,-28z"/></g><g opacity="1" transform="matrix(1,0,0,1,0,0.5)"><path fill="url(#__lottie_element_56756)" fill-opacity="1" d=" M103.95700073242188,151.25 C55.75,151 -10.75,149.75 -11,192 C61.5,192 102.25,154.75 103.95700073242188,151.25z"/></g><g opacity="1" transform="matrix(1,0,0,1,0,0.5)"><path fill="url(#__lottie_element_56757)" fill-opacity="1" d=" M14.937999725341797,182.197998046875 C4.2210001945495605,182.14199829101562 -10.562000274658203,181.86500549316406 -10.618000030517578,191.2570037841797 C5.499000072479248,191.2570037841797 14.557999610900879,182.9759979248047 14.937999725341797,182.197998046875z"/></g><g opacity="1" transform="matrix(1,0,0,1,0,0.5)"><path fill="url(#__lottie_element_56758)" fill-opacity="1" d=" M-135.04299926757812,-27.5 C-139,-2 -104.26599884033203,28.847000122070312 -89.89199829101562,9.213000297546387 C-72.05000305175781,-15.157999992370605 -91,-51 -57,-113.5 C-10,76 -184,75.5 -135.04299926757812,-27.5z"/></g><g opacity="1" transform="matrix(1,0,0,1,0,0.5)"><path fill="url(#__lottie_element_56759)" fill-opacity="1" d=" M-132.9429931640625,147.6439971923828 C-76.06700134277344,162.9770050048828 -221,76 -135.08299255371094,-27.5 C-157,24 -39.56700134277344,220.4770050048828 -132.9429931640625,147.6439971923828z"/></g><g opacity="1" transform="matrix(1,0,0,1,0,0.5)"><path fill="url(#__lottie_element_56760)" fill-opacity="1" d=" M-63.44300079345703,163.8939971923828 C-61,173 -92.5,173 -132.70799255371094,147.5 C-125.25,151.25 -83.5,161 -63.44300079345703,163.8939971923828z"/></g><g opacity="1" transform="matrix(1,0,0,1,0,0.5)"><path fill="url(#__lottie_element_56761)" fill-opacity="1" d=" M124.45700073242188,-28 C121.75,-14.5 108.68699645996094,0.5170000195503235 95.25800323486328,-2.638000011444092 C73.5,-7.75 128.5,-142 -17.025999069213867,-197.55499267578125 C-31.954999923706055,107.15899658203125 196,95 124.45700073242188,-28z"/><path fill="url(#__lottie_element_56762)" fill-opacity="1" d=" M124.45700073242188,-28 C121.75,-14.5 108.68699645996094,0.5170000195503235 95.25800323486328,-2.638000011444092 C73.5,-7.75 128.5,-142 -17.025999069213867,-197.55499267578125 C-31.954999923706055,107.15899658203125 196,95 124.45700073242188,-28z"/></g><g opacity="1" transform="matrix(1,0,0,1,0,0.5)"><path fill="url(#__lottie_element_56763)" fill-opacity="1" d=" M103.95700073242188,151.25 C96.4280014038086,147.10000610351562 95.1050033569336,142.9770050048828 97.40299987792969,138.072998046875 C107.14600372314453,117.27999877929688 181.98399353027344,82.4520034790039 124.66699981689453,-28 C113,46.5 -26.5,219 103.95700073242188,151.25z"/></g><g opacity="1" transform="matrix(1,0,0,1,0,0.5)"><path fill="url(#__lottie_element_56764)" fill-opacity="1" d=" M15.206999778747559,182.25 C14.38700008392334,181.79800415039062 13.854999542236328,181.36700439453125 13.657999992370605,180.9250030517578 C12.04800033569336,177.30999755859375 32.97200012207031,173.01199340820312 103.66699981689453,151.28599548339844 C13,174.28599548339844 -33.75,160 15.206999778747559,182.25z"/></g></g><g style="display: block;" transform="matrix(1.0800000429153442,0,0,1.0800000429153442,265,255.39999389648438)" opacity="1"><g opacity="1" transform="matrix(1,0,0,1,0,0)"><path fill="url(#__lottie_element_56767)" fill-opacity="1" d=" M-11,192 C90,-1 73,-86 3.4570000171661377,-160 C15,-65 -144,-130 -11,192z"/></g><g opacity="1" transform="matrix(1,0,0,1,0,0)"><path fill="url(#__lottie_element_56768)" fill-opacity="1" d=" M-11,192 C65.5,161 114.5,46 104.95700073242188,12.5 C86,55.5 -11,-3 -11,192z"/></g><g opacity="1" transform="matrix(1,0,0,1,0,0)"><path fill="url(#__lottie_element_56769)" fill-opacity="1" d=" M-11,192 C65.5,161 121,116.25 117.95700073242188,88.75 C91.5,99.5 -4.5,76 -11,192z"/></g><g opacity="1" transform="matrix(1,0,0,1,0,0)"><path fill="url(#__lottie_element_56770)" fill-opacity="1" d=" M-11,192 C56.25,192 39.25,168.75 60.957000732421875,154.25 C35.25,143.25 -11,163.5 -11,192z"/></g><g opacity="1" transform="matrix(1,0,0,1,0,0)"><path fill="url(#__lottie_element_56771)" fill-opacity="1" d=" M-11,192 C10.25,192 21.25,183 17.457000732421875,174.75 C7.25,184 -11,163.5 -11,192z"/></g><g opacity="1" transform="matrix(1,0,0,1,0,0)"><path fill="url(#__lottie_element_56772)" fill-opacity="1" d=" M4.625,-157.5 C-5.875,121.5 80.5,130 104.95700073242188,12.5 C98.12799835205078,26.072999954223633 83.97000122070312,28.64900016784668 69.72100067138672,23.849000930786133 C39,13.5 97,-65.5 4.625,-157.5z"/></g><g opacity="1" transform="matrix(1,0,0,1,0,0)"><path fill="url(#__lottie_element_56773)" fill-opacity="1" d=" M105,12.75 C-3.25,112.25 81.75,157.5 117.95700073242188,88.75 C114.40299987792969,89.74199676513672 102.75,92 96.56099700927734,87.00399780273438 C86.95999908447266,79.25399780273438 111,44.25 105,12.75z"/></g><g opacity="1" transform="matrix(1,0,0,1,0,0)"><path fill="url(#__lottie_element_56774)" fill-opacity="1" d=" M118.25,88.75 C64.5,105.25 46.25,142 60.957000732421875,154.25 C63.729000091552734,151.23199462890625 66.53099822998047,147.24099731445312 69.76300048828125,142.51400756835938 C79.11199951171875,128.83700561523438 92.05400085449219,109.0009994506836 118.25,88.75z"/></g><g opacity="1" transform="matrix(1,0,0,1,0,0)"><path fill="url(#__lottie_element_56775)" fill-opacity="1" d=" M-11,192 C-11,-13 -91,100 -134.04299926757812,29.5 C-165,115 -63,192 -11,192z"/></g><g opacity="1" transform="matrix(1,0,0,1,0,0)"><path fill="url(#__lottie_element_56776)" fill-opacity="1" d=" M-11,192 C-11,127.5 -50.75,168 -82.79299926757812,158.25 C-59,192 -42,192 -11,192z"/></g><g opacity="1" transform="matrix(1,0,0,1,0,0)"><path fill="url(#__lottie_element_56777)" fill-opacity="1" d=" M-11,192 C-15.5,170.75 -35.75,181.25 -41.292999267578125,166.75 C-48,183.5 -42,192 -11,192z"/></g><g opacity="1" transform="matrix(1,0,0,1,0,0)"><path fill="url(#__lottie_element_56778)" fill-opacity="1" d=" M-48.93299865722656,-68.94999694824219 C-71.5,-44.5 -57.92499923706055,12.734999656677246 -72.83799743652344,40.31700134277344 C-83.72899627685547,60.459999084472656 -114.83000183105469,58.63199996948242 -133.87600708007812,29.33300018310547 C-161.05799865722656,109.94999694824219 20.5,210.51699829101562 -48.93299865722656,-68.94999694824219z"/></g><g opacity="1" transform="matrix(1,0,0,1,0,0)"><path fill="url(#__lottie_element_56779)" fill-opacity="1" d=" M-101.43299865722656,62.54999923706055 C-97,89.5 -65.5,139 -82.93900299072266,158.14599609375 C21,195 -55.5,85.5 -101.43299865722656,62.54999923706055z"/></g></g><g style="display: block;" transform="matrix(1.0800000429153442,0,0,1.0800000429153442,265,255.39999389648438)" opacity="0.4"><g opacity="1" transform="matrix(1,0,0,1,0,0)"><path fill="url(#__lottie_element_56830)" mask="url(#__lottie_element_56832)" fill-opacity="1" d="M0 0 M19.5,-99.25 C30,-29 -122,-105 -12,192.4290008544922 C-8,114 70,-1 19.5,-99.25z M19.5,-99.25 C21.847000122070312,-83.5479965209961 16.076000213623047,-75.15299987792969 6.927000045776367,-68.26100158691406 C-24.857999801635742,-44.31800079345703 -97.41400146484375,-38.52199935913086 -12,192.4290008544922 C-8,114 70,-1 19.5,-99.25z M66.25,51.5 C55.16999816894531,58.7869987487793 28.5,48.5 32.1510009765625,21.736000061035156 C36.20100021362305,-7.952000141143799 -25.349000930786133,81.12300109863281 -12,192.4290008544922 C-8,114 106.5,177 66.25,51.5z M-48.099998474121094,30.58300018310547 C-46.79999923706055,88 -28.033000946044922,134.06700134277344 -12,192.4290008544922 C-9.154999732971191,136.64100646972656 -28.145999908447266,32.38999938964844 -41.2599983215332,30.365999221801758 C-44.53300094604492,38.933998107910156 -32.222999572753906,32.81999969482422 -48.099998474121094,30.58300018310547z M-94.33300018310547,75.75 C-101.43299865722656,131.83299255371094 -50.03300094604492,151.86700439453125 -12,192.4290008544922 C-9.154999732971191,136.64100646972656 -49.58399963378906,5.684000015258789 -50.15999984741211,37.731998443603516 C-51.30099868774414,83.5989990234375 -79.61399841308594,76.68800354003906 -94.33300018310547,75.75z"/></g></g><g style="display: block;" transform="matrix(1.0800000429153442,0,0,1.0800000429153442,266.0799865722656,254.93667602539062)" opacity="1"><g opacity="1" transform="matrix(1,0,0,1,0,0)"><path fill="url(#__lottie_element_56814)" fill-opacity="1" d=" M11.5,-25.75 C-16,-10 -80,39 -12,192.4290008544922 C69.5,69.5 -17,74 11.5,-25.75z"/></g><g opacity="1" transform="matrix(1,0,0,1,0,0)"><path fill="url(#__lottie_element_56815)" fill-opacity="1" d=" M50,74.75 C22.5,90.5 -16.5,82.5 -12,192.4290008544922 C17.5,163 21.5,174.5 50,74.75z"/></g><g opacity="1" transform="matrix(1,0,0,1,0,0)"><path fill="url(#__lottie_element_56816)" fill-opacity="1" d=" M72.5,104.25 C45,120 -16.5,82.5 -12,192.4290008544922 C17.5,163 64.5,147.5 72.5,104.25z"/></g><g opacity="1" transform="matrix(1,0,0,1,0,0)"><path fill="url(#__lottie_element_56817)" fill-opacity="1" d=" M36.25,154.75 C19.5,147 4.5,145.5 -12,192.4290008544922 C25.25,192 15,179.75 36.25,154.75z"/></g><g opacity="1" transform="matrix(1,0,0,1,0,0)"><path fill="url(#__lottie_element_56818)" fill-opacity="1" d=" M36.25,154.75 C19.5,147 4.5,145.5 -12,192.4290008544922 C25.25,192 15,179.75 36.25,154.75z"/></g><g opacity="1" transform="matrix(1,0,0,1,0,0)"><path fill="url(#__lottie_element_56819)" fill-opacity="1" d=" M50,74.75 C22.5,90.5 -6,34.17900085449219 11,-24.570999145507812 C-38.5,79.92900085449219 21.5,174.5 50,74.75z"/></g><g opacity="1" transform="matrix(1,0,0,1,0,0)"><path fill="url(#__lottie_element_56820)" fill-opacity="1" d=" M72.5,104.25 C48.5,114.92900085449219 44.5,92.42900085449219 50,74.80400085449219 C-3.5,124.42900085449219 64.5,147.5 72.5,104.25z"/></g><g opacity="1" transform="matrix(1,0,0,1,0,0)"><path fill="url(#__lottie_element_56821)" fill-opacity="1" d=" M36.25,154.75 C33,141.76199340820312 66.66600036621094,112.76200103759766 72.57099914550781,104.14299774169922 C44.66600036621094,119.76200103759766 6,161.4290008544922 36.25,154.75z"/></g><g opacity="1" transform="matrix(1,0,0,1,0,0)"><path fill="url(#__lottie_element_56822)" fill-opacity="1" d=" M-80,106.25 C-81,120.67900085449219 -73,154.4290008544922 -12,192.4290008544922 C4.25,102.42900085449219 -51.25,112.67900085449219 -80,106.25z"/></g><g opacity="1" transform="matrix(1,0,0,1,0,0)"><path fill="url(#__lottie_element_56823)" fill-opacity="1" d=" M-49.875,163.25 C-37.875,174.4290008544922 -43.5,192.4290008544922 -12,192.4290008544922 C-7.25,159.4290008544922 -36.125,151.9290008544922 -49.875,163.25z"/></g><g opacity="1" transform="matrix(1,0,0,1,0,0)"><path fill="url(#__lottie_element_56824)" fill-opacity="1" d=" M-49.875,163.25 C-37.875,174.4290008544922 -43.5,192.4290008544922 -12,192.4290008544922 C-7.25,159.4290008544922 -36.125,151.9290008544922 -49.875,163.25z"/></g><g opacity="1" transform="matrix(1,0,0,1,0,0)"><path fill="url(#__lottie_element_56825)" fill-opacity="1" d=" M-80,106.25 C-81,120.67900085449219 2.5,166.9290008544922 -34.25,27.429000854492188 C-44.25,43.42900085449219 -43.75,113.92900085449219 -80,106.25z"/></g><g opacity="1" transform="matrix(1,0,0,1,0,0)"><path fill="url(#__lottie_element_56826)" fill-opacity="1" d=" M-49.75,163 C-44.25,154.6790008544922 -32.5,141.4290008544922 -79.75,106.17900085449219 C-50.75,113.67900085449219 1.5,173.4290008544922 -49.75,163z"/></g></g><g style="display: block;" transform="matrix(1.1880000829696655,0,0,1.123599648475647,267.3760070800781,246.54685974121094)" opacity="0.3"><g opacity="1" transform="matrix(1,0,0,1,0,0)"><path fill="url(#__lottie_element_56798)" fill-opacity="1" d=" M9.815999984741211,-16.628000259399414 C-14.836999893188477,-12.947999954223633 -80,39 -12,192.4290008544922 C69.5,69.5 -18.68400001525879,83.12200164794922 9.815999984741211,-16.628000259399414z"/></g><g opacity="1" transform="matrix(1,0,0,1,0,0)"><path fill="url(#__lottie_element_56799)" fill-opacity="1" d=" M50,74.75 C22.5,90.5 -16.5,82.5 -12,192.4290008544922 C17.5,163 21.5,174.5 50,74.75z"/></g><g opacity="1" transform="matrix(1,0,0,1,0,0)"><path fill="url(#__lottie_element_56800)" fill-opacity="1" d=" M72.5,104.25 C45,120 -16.5,82.5 -12,192.4290008544922 C17.5,163 64.5,147.5 72.5,104.25z"/></g><g opacity="1" transform="matrix(1,0,0,1,0,0)"><path fill="url(#__lottie_element_56801)" fill-opacity="1" d=" M36.25,154.75 C19.5,147 4.5,145.5 -12,192.4290008544922 C25.25,192 15,179.75 36.25,154.75z"/></g><g opacity="1" transform="matrix(1,0,0,1,0,0)"><path fill="url(#__lottie_element_56802)" fill-opacity="1" d=" M36.25,154.75 C19.5,147 4.5,145.5 -12,192.4290008544922 C25.25,192 15,179.75 36.25,154.75z"/></g><g opacity="1" transform="matrix(1,0,0,1,0,0)"><path fill="url(#__lottie_element_56803)" fill-opacity="1" d=" M50,74.75 C22.5,90.5 -7.684000015258789,43.30099868774414 9.315999984741211,-15.449000358581543 C-40.183998107910156,89.0510025024414 21.5,174.5 50,74.75z"/></g><g opacity="1" transform="matrix(1,0,0,1,0,0)"><path fill="url(#__lottie_element_56804)" fill-opacity="1" d=" M72.5,104.25 C48.5,114.92900085449219 44.5,92.42900085449219 50,74.80400085449219 C-3.5,124.42900085449219 64.5,147.5 72.5,104.25z"/></g><g opacity="1" transform="matrix(1,0,0,1,0,0)"><path fill="url(#__lottie_element_56805)" fill-opacity="1" d=" M36.25,154.75 C33,141.76199340820312 66.66600036621094,112.76200103759766 72.57099914550781,104.14299774169922 C44.66600036621094,119.76200103759766 6,161.4290008544922 36.25,154.75z"/></g><g opacity="1" transform="matrix(1,0,0,1,0,0)"><path fill="url(#__lottie_element_56806)" fill-opacity="1" d=" M-80,106.25 C-81,120.67900085449219 -73,154.4290008544922 -12,192.4290008544922 C4.25,102.42900085449219 -51.25,112.67900085449219 -80,106.25z"/></g><g opacity="1" transform="matrix(1,0,0,1,0,0)"><path fill="url(#__lottie_element_56807)" fill-opacity="1" d=" M-49.875,163.25 C-37.875,174.4290008544922 -43.5,192.4290008544922 -12,192.4290008544922 C-7.25,159.4290008544922 -36.125,151.9290008544922 -49.875,163.25z"/></g><g opacity="1" transform="matrix(1,0,0,1,0,0)"><path fill="url(#__lottie_element_56808)" fill-opacity="1" d=" M-49.875,163.25 C-37.875,174.4290008544922 -43.5,192.4290008544922 -12,192.4290008544922 C-7.25,159.4290008544922 -36.125,151.9290008544922 -49.875,163.25z"/></g><g opacity="1" transform="matrix(1,0,0,1,0,0)"><path fill="url(#__lottie_element_56809)" fill-opacity="1" d=" M-80,106.25 C-81,120.67900085449219 2.5,166.9290008544922 -34.25,27.429000854492188 C-44.25,43.42900085449219 -43.75,113.92900085449219 -80,106.25z"/></g><g opacity="1" transform="matrix(1,0,0,1,0,0)"><path fill="url(#__lottie_element_56810)" fill-opacity="1" d=" M-49.75,163 C-44.25,154.6790008544922 -32.5,141.4290008544922 -79.75,106.17900085449219 C-50.75,113.67900085449219 1.5,173.4290008544922 -49.75,163z"/></g></g><g style="display: block;" transform="matrix(1.274399995803833,0,0,1.1556000709533691,268.4128112792969,240.38902282714844)" opacity="0.15"><g opacity="1" transform="matrix(1,0,0,1,0,0)"><path fill="url(#__lottie_element_56782)" fill-opacity="1" d=" M7.577000141143799,-10.173999786376953 C-16.99799919128418,-3.365999937057495 -80,39 -12,192.4290008544922 C69.5,69.5 -20.92300033569336,89.57599639892578 7.577000141143799,-10.173999786376953z"/></g><g opacity="1" transform="matrix(1,0,0,1,0,0)"><path fill="url(#__lottie_element_56783)" fill-opacity="1" d=" M50,74.75 C22.5,90.5 -16.5,82.5 -12,192.4290008544922 C17.5,163 21.5,174.5 50,74.75z"/></g><g opacity="1" transform="matrix(1,0,0,1,0,0)"><path fill="url(#__lottie_element_56784)" fill-opacity="1" d=" M72.5,104.25 C45,120 -16.5,82.5 -12,192.4290008544922 C17.5,163 64.5,147.5 72.5,104.25z"/></g><g opacity="1" transform="matrix(1,0,0,1,0,0)"><path fill="url(#__lottie_element_56785)" fill-opacity="1" d=" M36.25,154.75 C19.5,147 4.5,145.5 -12,192.4290008544922 C25.25,192 15,179.75 36.25,154.75z"/></g><g opacity="1" transform="matrix(1,0,0,1,0,0)"><path fill="url(#__lottie_element_56786)" fill-opacity="1" d=" M36.25,154.75 C19.5,147 4.5,145.5 -12,192.4290008544922 C25.25,192 15,179.75 36.25,154.75z"/></g><g opacity="1" transform="matrix(1,0,0,1,0,0)"><path fill="url(#__lottie_element_56787)" fill-opacity="1" d=" M50,74.75 C22.5,90.5 -9.92300033569336,49.755001068115234 7.077000141143799,-8.994999885559082 C-42.42300033569336,95.50499725341797 21.5,174.5 50,74.75z"/></g><g opacity="1" transform="matrix(1,0,0,1,0,0)"><path fill="url(#__lottie_element_56788)" fill-opacity="1" d=" M72.5,104.25 C48.5,114.92900085449219 44.5,92.42900085449219 50,74.80400085449219 C-3.5,124.42900085449219 64.5,147.5 72.5,104.25z"/></g><g opacity="1" transform="matrix(1,0,0,1,0,0)"><path fill="url(#__lottie_element_56789)" fill-opacity="1" d=" M36.25,154.75 C33,141.76199340820312 66.66600036621094,112.76200103759766 72.57099914550781,104.14299774169922 C44.66600036621094,119.76200103759766 6,161.4290008544922 36.25,154.75z"/></g><g opacity="1" transform="matrix(1,0,0,1,0,0)"><path fill="url(#__lottie_element_56790)" fill-opacity="1" d=" M-80,106.25 C-81,120.67900085449219 -73,154.4290008544922 -12,192.4290008544922 C4.25,102.42900085449219 -51.25,112.67900085449219 -80,106.25z"/></g><g opacity="1" transform="matrix(1,0,0,1,0,0)"><path fill="url(#__lottie_element_56791)" fill-opacity="1" d=" M-49.875,163.25 C-37.875,174.4290008544922 -43.5,192.4290008544922 -12,192.4290008544922 C-7.25,159.4290008544922 -36.125,151.9290008544922 -49.875,163.25z"/></g><g opacity="1" transform="matrix(1,0,0,1,0,0)"><path fill="url(#__lottie_element_56792)" fill-opacity="1" d=" M-49.875,163.25 C-37.875,174.4290008544922 -43.5,192.4290008544922 -12,192.4290008544922 C-7.25,159.4290008544922 -36.125,151.9290008544922 -49.875,163.25z"/></g><g opacity="1" transform="matrix(1,0,0,1,0,0)"><path fill="url(#__lottie_element_56793)" fill-opacity="1" d=" M-80,106.25 C-81,120.67900085449219 2.5,166.9290008544922 -34.25,27.429000854492188 C-44.25,43.42900085449219 -43.75,113.92900085449219 -80,106.25z"/></g><g opacity="1" transform="matrix(1,0,0,1,0,0)"><path fill="url(#__lottie_element_56794)" fill-opacity="1" d=" M-49.75,163 C-44.25,154.6790008544922 -32.5,141.4290008544922 -79.75,106.17900085449219 C-50.75,113.67900085449219 1.5,173.4290008544922 -49.75,163z"/></g></g></g></svg>