<svg xmlns="http://www.w3.org/2000/svg" xmlns:xlink="http://www.w3.org/1999/xlink" viewBox="0 0 512 512" width="512" height="512" style="width: 100%; height: 100%; transform: translate3d(0,0,0);" preserveAspectRatio="xMidYMid meet"><defs><clipPath id="__lottie_element_22690"><rect width="512" height="512" x="0" y="0"/></clipPath><linearGradient id="__lottie_element_22709" spreadMethod="pad" gradientUnits="userSpaceOnUse" x1="-246" y1="1" x2="243" y2="0"><stop offset="0%" stop-color="rgb(0,0,0)"/><stop offset="25%" stop-color="rgb(0,0,0)"/><stop offset="50%" stop-color="rgb(0,0,0)"/><stop offset="75%" stop-color="rgb(0,0,0)"/><stop offset="100%" stop-color="rgb(0,0,0)"/></linearGradient><mask id="__lottie_element_22711"><path fill="url(#__lottie_element_22710)" d=" M-246.5,-145.5 C-246.5,-139 -246.5,144.218994140625 -246.5,146.593994140625 C-244.71200561523438,146.76499938964844 -241.55099487304688,147.5780029296875 -237.75900268554688,148.50999450683594 C-220.5,152.75 -191.07200622558594,159.75999450683594 -178.26499938964844,161.58399963378906 C-147.25,166 -127.13200378417969,165.62600708007812 -103.76799774169922,164.74600219726562 C-50.75,162.75 -4.125,146.125 27.19499969482422,139.3300018310547 C47.95800018310547,134.8249969482422 68.79000091552734,130.64500427246094 83.74700164794922,128.94000244140625 C106.25,126.375 122.875,126.75 143.25,128.35899353027344 C183.33700561523438,131.52499389648438 217.79400634765625,139.2030029296875 241.43800354003906,147.031005859375 C241.43800354003906,147.09300231933594 241.406005859375,147.09300231933594 241.406005859375,147.06199645996094 C241.406005859375,147.06199645996094 241.406005859375,147.06199645996094 241.406005859375,147.06199645996094 C241.56199645996094,120.56199645996094 241.23399353027344,82.29100036621094 241.25,49.90599822998047 C241.26600646972656,17.08300018310547 241.43699645996094,-15.739999771118164 241.5,-48.5629997253418 C241.56199645996094,-80.91699981689453 241.5,-128.75 241.625,-145.625 C151.281005859375,-172.5 103.15699768066406,-165.1009979248047 78.5,-162.81199645996094 C23.042999267578125,-156.04600524902344 -48.707000732421875,-130.79600524902344 -83.375,-129.06199645996094 C-157.875,-120.1240005493164 -212.75,-139.625 -246.5,-145.5z"/></mask><linearGradient id="__lottie_element_22710" spreadMethod="pad" gradientUnits="userSpaceOnUse" x1="-246" y1="1" x2="243" y2="0"><stop stop-color="rgb(255,255,255)" offset="0%" stop-opacity="1"/><stop stop-color="rgb(255,255,255)" offset="17%" stop-opacity="0.5"/><stop stop-color="rgb(255,255,255)" offset="33%" stop-opacity="0"/><stop stop-color="rgb(255,255,255)" offset="50%" stop-opacity="0"/><stop stop-color="rgb(255,255,255)" offset="66%" stop-opacity="0"/><stop stop-color="rgb(255,255,255)" offset="83%" stop-opacity="0.5"/><stop stop-color="rgb(255,255,255)" offset="100%" stop-opacity="1"/></linearGradient></defs><g clip-path="url(#__lottie_element_22690)"><g style="display: block;" transform="matrix(0.800000011920929,0,0,0.800000011920929,257.9656066894531,250.03680419921875)" opacity="1"><g opacity="1" transform="matrix(1,0,0,1,0,0)"><path fill="rgb(26,150,82)" fill-opacity="1" d=" M-246.5,-15.045999526977539 C-246.5,62.20199966430664 -246.5,145.31199645996094 -246.5,146.593994140625 C-244.71200561523438,146.76499938964844 -241.55099487304688,147.5780029296875 -237.75900268554688,148.50999450683594 C-220.5,152.75 -191.07200622558594,159.75999450683594 -178.26499938964844,161.58399963378906 C-147.25,166 -127.13200378417969,165.62600708007812 -103.76799774169922,164.74600219726562 C-50.75,162.75 -4.125,146.125 27.19499969482422,139.3300018310547 C47.95800018310547,134.8249969482422 68.79000091552734,130.64500427246094 83.74700164794922,128.94000244140625 C106.25,126.375 122.875,126.75 143.25,128.35899353027344 C183.33700561523438,131.52499389648438 217.79400634765625,139.2030029296875 241.43800354003906,147.031005859375 C241.43800354003906,147.09300231933594 241.406005859375,147.09300231933594 241.406005859375,147.06199645996094 C241.406005859375,147.06199645996094 241.406005859375,147.06199645996094 241.406005859375,147.06199645996094 C241.56199645996094,120.56199645996094 241.23399353027344,82.29100036621094 241.25,49.90599822998047 C241.26600646972656,17.08300018310547 241.43699645996094,-15.739999771118164 241.5,-48.5629997253418 C241.56199645996094,-80.91699981689453 -246.5,-80.90799713134766 -246.5,-15.045999526977539z"/></g><g opacity="1" transform="matrix(1,0,0,1,0,0)"><path fill="rgb(203,39,69)" fill-opacity="1" d=" M-246.5,-145.5 C-246.5,-142.28199768066406 -246.5,-71.2300033569336 -246.5,-0.014999999664723873 C-241.20700073242188,1.3289999961853027 -226.3939971923828,5.390999794006348 -208.00799560546875,9.211999893188477 C-182.31199645996094,14.552000045776367 -164.47999572753906,17.910999298095703 -126.3219985961914,19.41699981689453 C-46.207000732421875,22.57900047302246 28.042999267578125,-19.047000885009766 123.5,-19.551000595092773 C167.79299926757812,-19.78499984741211 235.29299926757812,-1.7970000505447388 241.35899353027344,0.07800000160932541 C241.41099548339844,-16.13599967956543 241.468994140625,-32.3489990234375 241.5,-48.5629997253418 C241.56199645996094,-80.91699981689453 241.5,-128.75 241.625,-145.625 C151.281005859375,-172.5 103.15699768066406,-165.1009979248047 78.5,-162.81199645996094 C23.042999267578125,-156.04600524902344 -48.707000732421875,-130.79600524902344 -83.375,-129.06199645996094 C-157.875,-120.1240005493164 -212.75,-139.625 -246.5,-145.5z"/></g></g><g style="display: block;" transform="matrix(0.800000011920929,0,0,0.800000011920929,256,250)" opacity="1"><g opacity="1" transform="matrix(1,0,0,1,0,0)"><path fill="rgb(20,20,20)" fill-opacity="1" d=" M-243.77999877929688,-145.93800354003906 C-243.81900024414062,-145.90699768066406 -243.85899353027344,147.375 -243.93800354003906,147.5 C-207.81300354003906,136.25 -158.70899963378906,122.45800018310547 -109.00399780273438,95.43499755859375 C-64.375,71.1719970703125 -27.187999725341797,41.875 -10,27.937999725341797 C22.187999725341797,20.937999725341797 58.944000244140625,7.1519999504089355 112.49600219726562,5.796999931335449 C157.40499877929688,4.660999774932861 210.31199645996094,14.687000274658203 244.20199584960938,26.54800033569336 C243.75,9.687000274658203 243.43699645996094,-12.812000274658203 243.75,-25.33099937438965 C236.875,-27.812000274658203 174.68800354003906,-45.56100082397461 115.30899810791016,-45.595001220703125 C63.125,-45.625 4.688000202178955,-25.625 -9.467000007629395,-23.283000946044922 C-60.78099822998047,-37.26499938964844 -101.72100067138672,-51.404998779296875 -137.16900634765625,-72.04100036621094 C-179.22999572753906,-96.52799987792969 -204.39199829101562,-116.14099884033203 -243.77999877929688,-145.93800354003906z"/></g></g><g style="display: block;" transform="matrix(0.800000011920929,0,0,0.800000011920929,255.47280883789062,249.58560180664062)" opacity="1"><g opacity="1" transform="matrix(1,0,0,1,0,0)"><path fill="rgb(250,208,32)" fill-opacity="1" d=" M-13.404000282287598,-4.546000003814697 C-62.81800079345703,-17.06800079345703 -101.79499816894531,-32.777000427246094 -137.5590057373047,-52.492000579833984 C-173.7790069580078,-72.45800018310547 -206.7030029296875,-96.53399658203125 -243.8300018310547,-125.56800079345703 C-243.8300018310547,-125.56800079345703 -243.8300018310547,-106.5459976196289 -243.8300018310547,-106.5459976196289 C-224.37100219726562,-93.78600311279297 -192.70399475097656,-64.5510025024414 -143.25999450683594,-36.624000549316406 C-113.55799865722656,-19.847999572753906 -77.44200134277344,-3.5450000762939453 -33.70199966430664,8.432000160217285 C-57.38199996948242,25.775999069213867 -85.00499725341797,47.45899963378906 -129.8990020751953,68.39299774169922 C-159.25100708007812,82.08000183105469 -195.98599243164062,95.4469985961914 -243.8300018310547,107.07099914550781 C-243.8300018310547,107.07099914550781 -243.8300018310547,125.56800079345703 -243.8300018310547,125.56800079345703 C-196.34100341796875,114.3290023803711 -157.5449981689453,101.28800201416016 -119.56600189208984,82.05999755859375 C-85.26200103759766,64.69300079345703 -51.625,42.277000427246094 -12.85099983215332,11.581000328063965 C34.82099914550781,-1.062999963760376 73.98999786376953,-10.407999992370605 118.15399932861328,-10.925999641418457 C154.2519989013672,-11.348999977111816 193.68699645996094,-5.874000072479248 243.8300018310547,8.517999649047852 C243.8300018310547,8.517999649047852 243.8300018310547,-8.121000289916992 243.8300018310547,-8.121000289916992 C194.24899291992188,-22.697999954223633 154.0469970703125,-27.687000274658203 120.15699768066406,-27.565000534057617 C62.3390007019043,-27.35700035095215 22.895000457763672,-12.27299976348877 -13.404000282287598,-4.546000003814697z"/></g></g><g style="display: block;" transform="matrix(0.800000011920929,0,0,0.800000011920929,52.80080795288086,44.39920425415039)" opacity="1"><g opacity="1" transform="matrix(1,0,0,1,73.92500305175781,270.8269958496094)"><path fill="rgb(250,208,32)" fill-opacity="1" d=" M-5.554999828338623,26.429000854492188 C-5.572999954223633,30.226999282836914 -5.554999828338623,39.06700134277344 -5.554999828338623,44.04600143432617 C1.968000054359436,47.49300003051758 29.757999420166016,45.62300109863281 37.584999084472656,14.300999641418457 C42.847999572753906,-6.763000011444092 31.840999603271484,-47.61399841308594 -13.861000061035156,-45.1879997253418 C-35.42900085449219,-44.042999267578125 -40.680999755859375,-26.8799991607666 -38.24399948120117,-10.593000411987305 C-32.62699890136719,26.93899917602539 16.905000686645508,36.513999938964844 17.542999267578125,-0.6349999904632568 C11.670999526977539,21.450000762939453 -11.420999526977539,16.972000122070312 -21.520999908447266,4.72599983215332 C-29.94700050354004,-5.489999771118164 -28.924999237060547,-30.124000549316406 -10.286999702453613,-32.16699981689453 C2.075000047683716,-33.52199935913086 24.819000244140625,-19.52899932861328 23.670000076293945,1.1519999504089355 C22.697999954223633,18.652000427246094 10.394000053405762,28.215999603271484 -5.554999828338623,26.429000854492188z"/></g><g opacity="1" transform="matrix(1,0,0,1,70.18099975585938,261.39898681640625)"><path fill="rgb(250,208,32)" fill-opacity="1" d=" M4.882999897003174,-2.697000026702881 C7.769000053405762,-5.848999977111816 10.82800006866455,-7.52400016784668 14.777000427246094,-10.675000190734863 C10.621000289916992,-11.053000450134277 5.368000030517578,-10.894000053405762 0.13500000536441803,-7.229000091552734 C-4.244999885559082,-11.25 -9.670999526977539,-15.633000373840332 -14.777000427246094,-15.612000465393066 C-10.522000312805176,-11.430000305175781 -7.704999923706055,-7.763999938964844 -4.818999767303467,-4.611999988555908 C-13.564000129699707,1.1330000162124634 -16.37299919128418,8.40999984741211 -13.309000015258789,10.89900016784668 C-10.152000427246094,13.46399974822998 -6.695000171661377,10.01200008392334 0.03200000151991844,1.753999948501587 C6.0320000648498535,10.069000244140625 9.979999542236328,17.514999389648438 13.309000015258789,15.175999641418457 C17.28700065612793,12.380999565124512 12.414999961853027,4.89900016784668 4.882999897003174,-2.697000026702881z"/></g></g><g style="display: block;" transform="matrix(0.800000011920929,0,0,0.800000011920929,257.9656066894531,250.03680419921875)" opacity="0.35000000000000003"><g opacity="1" transform="matrix(1,0,0,1,0,0)"><path fill="url(#__lottie_element_22709)" mask="url(#__lottie_element_22711)" fill-opacity="1" d="M0 0 M-246.5,-145.5 C-246.5,-139 -246.5,144.218994140625 -246.5,146.593994140625 C-244.71200561523438,146.76499938964844 -241.55099487304688,147.5780029296875 -237.75900268554688,148.50999450683594 C-220.5,152.75 -191.07200622558594,159.75999450683594 -178.26499938964844,161.58399963378906 C-147.25,166 -127.13200378417969,165.62600708007812 -103.76799774169922,164.74600219726562 C-50.75,162.75 -4.125,146.125 27.19499969482422,139.3300018310547 C47.95800018310547,134.8249969482422 68.79000091552734,130.64500427246094 83.74700164794922,128.94000244140625 C106.25,126.375 122.875,126.75 143.25,128.35899353027344 C183.33700561523438,131.52499389648438 217.79400634765625,139.2030029296875 241.43800354003906,147.031005859375 C241.43800354003906,147.09300231933594 241.406005859375,147.09300231933594 241.406005859375,147.06199645996094 C241.406005859375,147.06199645996094 241.406005859375,147.06199645996094 241.406005859375,147.06199645996094 C241.56199645996094,120.56199645996094 241.23399353027344,82.29100036621094 241.25,49.90599822998047 C241.26600646972656,17.08300018310547 241.43699645996094,-15.739999771118164 241.5,-48.5629997253418 C241.56199645996094,-80.91699981689453 241.5,-128.75 241.625,-145.625 C151.281005859375,-172.5 103.15699768066406,-165.1009979248047 78.5,-162.81199645996094 C23.042999267578125,-156.04600524902344 -48.707000732421875,-130.79600524902344 -83.375,-129.06199645996094 C-157.875,-120.1240005493164 -212.75,-139.625 -246.5,-145.5z"/></g></g><g style="display: block;" transform="matrix(0.800000011920929,0,0,0.800000011920929,257.9656066894531,250.03680419921875)" opacity="0.15"><g opacity="1" transform="matrix(1,0,0,1,0,0)"><path fill="rgb(255,255,255)" fill-opacity="1" d=" M-246.875,-146 C-246.83700561523438,-139.70399475097656 -246.875,-138 -246.79200744628906,-132.81100463867188 C-237.5,-136.25 -197.25,-114 -124.49600219726562,-114.31099700927734 C-38.992000579833984,-114.6760025024414 39.233001708984375,-153.25 121.70800018310547,-153.39700317382812 C179.75,-153.5 241,-132.25 240.91200256347656,-131.552001953125 C241,-140.5 241.375,-144.625 241.375,-144.625 C241.375,-144.625 179.75,-166.25 122.5,-166 C39.49700164794922,-165.63800048828125 -39.5,-128 -124.25,-126.81199645996094 C-197.0449981689453,-125.79199981689453 -237.75,-149 -246.875,-146z"/></g></g><g style="display: block;" transform="matrix(0.800000011920929,0,0,0.800000011920929,257.9656066894531,250.03680419921875)" opacity="0.15"><g opacity="1" transform="matrix(1,0,0,1,0,0)"><path fill="rgb(0,0,0)" fill-opacity="1" d=" M122.5,112.25 C34,112.25 -36,149.5 -123.5,152 C-140.61700439453125,152.48899841308594 -155.82000732421875,151.3489990234375 -170.41099548339844,149.1280059814453 C-195.23399353027344,145.35000610351562 -218.28900146484375,138.4459991455078 -246,131.125 C-246.25,134.5 -246,141.375 -246,145.125 C-218.5749969482422,153.30599975585938 -195.61700439453125,159.55499267578125 -170.83099365234375,163.0050048828125 C-155.8520050048828,165.08999633789062 -140.20399475097656,166.15199279785156 -122.5,166 C-35,165.25 33.5,126.625 121.75,126.5 C126.26799774169922,126.49400329589844 131.11399841308594,126.59500122070312 136.27699279785156,126.83899688720703 C163.25900268554688,128.11300659179688 198.88099670410156,133.2550048828125 241.375,147 C241.375,147 241.25,134.75 241.5,131.125 C199.093994140625,118.93299865722656 163.16200256347656,113.84500122070312 136.1439971923828,112.58000183105469 C131.30499267578125,112.35399627685547 126.75299835205078,112.25 122.5,112.25z"/></g></g><g style="display: block;" transform="matrix(0.800000011920929,0,0,0.800000011920929,257.9656066894531,250.03680419921875)" opacity="1"><g opacity="1" transform="matrix(1,0,0,1,0,0)"><path stroke-linecap="round" stroke-linejoin="round" fill-opacity="0" stroke="rgb(10,62,33)" stroke-opacity="1" stroke-width="8" d=" M-246.5,146.593994140625 C-244.71200561523438,146.76499938964844 -241.55099487304688,147.5780029296875 -237.75900268554688,148.50999450683594 C-220.5,152.75 -191.07200622558594,159.75999450683594 -178.26499938964844,161.58399963378906 C-147.25,166 -127.13200378417969,165.62600708007812 -103.76799774169922,164.74600219726562 C-50.75,162.75 -4.125,146.125 27.19499969482422,139.3300018310547 C47.95800018310547,134.8249969482422 68.79000091552734,130.64500427246094 83.74700164794922,128.94000244140625 C106.25,126.375 122.875,126.75 143.25,128.35899353027344 C183.33700561523438,131.52499389648438 217.79400634765625,139.2030029296875 241.43800354003906,147.031005859375 C241.43800354003906,147.09300231933594 241.406005859375,147.09300231933594 241.406005859375,147.06199645996094 C241.406005859375,147.06199645996094 241.406005859375,147.06199645996094 241.406005859375,147.06199645996094 C241.56199645996094,120.56199645996094 241.23399353027344,82.29100036621094 241.25,49.90599822998047 C241.25799560546875,33.297000885009766 241.30599975585938,16.687000274658203 241.35899353027344,0.07800000160932541"/></g><g opacity="1" transform="matrix(1,0,0,1,0,0)"><path stroke-linecap="butt" stroke-linejoin="round" fill-opacity="0" stroke="rgb(114,21,38)" stroke-opacity="1" stroke-width="8" d=" M241.35899353027344,0.07800000160932541 C241.41099548339844,-16.13599967956543 241.468994140625,-32.3489990234375 241.5,-48.5629997253418 C241.56199645996094,-80.91699981689453 241.5,-128.75 241.625,-145.625 C151.281005859375,-172.5 103.15699768066406,-165.1009979248047 78.5,-162.81199645996094 C23.042999267578125,-156.04600524902344 -48.707000732421875,-130.79600524902344 -83.375,-129.06199645996094 C-157.875,-120.1240005493164 -212.75,-139.625 -246.5,-145.5"/></g><g opacity="1" transform="matrix(1,0,0,1,0,0)"><path stroke-linecap="round" stroke-linejoin="miter" fill-opacity="0" stroke-miterlimit="4" stroke="rgb(0,0,0)" stroke-opacity="1" stroke-width="8" d=" M-246.5189971923828,-145.18099975585938 C-246.5189971923828,-145.18099975585938 -246.58200073242188,146.41099548339844 -246.58200073242188,146.41099548339844"/></g></g></g></svg>