<svg xmlns="http://www.w3.org/2000/svg" xmlns:xlink="http://www.w3.org/1999/xlink" viewBox="0 0 512 512" width="512" height="512" style="width: 100%; height: 100%; transform: translate3d(0,0,0);" preserveAspectRatio="xMidYMid meet"><defs><clipPath id="__lottie_element_23074"><rect width="512" height="512" x="0" y="0"/></clipPath><linearGradient id="__lottie_element_23093" spreadMethod="pad" gradientUnits="userSpaceOnUse" x1="-246" y1="1" x2="243" y2="0"><stop offset="0%" stop-color="rgb(0,0,0)"/><stop offset="25%" stop-color="rgb(0,0,0)"/><stop offset="50%" stop-color="rgb(0,0,0)"/><stop offset="75%" stop-color="rgb(0,0,0)"/><stop offset="100%" stop-color="rgb(0,0,0)"/></linearGradient><mask id="__lottie_element_23095"><path fill="url(#__lottie_element_23094)" d=" M-246.5,-145.5 C-246.5,-139 -246.5,144.218994140625 -246.5,146.593994140625 C-244.71200561523438,146.76499938964844 -241.55099487304688,147.5780029296875 -237.75900268554688,148.50999450683594 C-220.5,152.75 -191.07200622558594,159.75999450683594 -178.26499938964844,161.58399963378906 C-147.25,166 -127.13200378417969,165.62600708007812 -103.76799774169922,164.74600219726562 C-50.75,162.75 -4.125,146.125 27.19499969482422,139.3300018310547 C47.95800018310547,134.8249969482422 68.79000091552734,130.64500427246094 83.74700164794922,128.94000244140625 C106.25,126.375 122.875,126.75 143.25,128.35899353027344 C183.33700561523438,131.52499389648438 217.79400634765625,139.2030029296875 241.43800354003906,147.031005859375 C241.43800354003906,147.09300231933594 241.406005859375,147.09300231933594 241.406005859375,147.06199645996094 C241.406005859375,147.06199645996094 241.406005859375,147.06199645996094 241.406005859375,147.06199645996094 C241.56199645996094,120.56199645996094 241.23399353027344,82.29100036621094 241.25,49.90599822998047 C241.26600646972656,17.08300018310547 241.43699645996094,-15.739999771118164 241.5,-48.5629997253418 C241.56199645996094,-80.91699981689453 241.5,-128.75 241.625,-145.625 C151.281005859375,-172.5 103.15699768066406,-165.1009979248047 78.5,-162.81199645996094 C23.042999267578125,-156.04600524902344 -48.707000732421875,-130.79600524902344 -83.375,-129.06199645996094 C-157.875,-120.1240005493164 -212.75,-139.625 -246.5,-145.5z"/></mask><linearGradient id="__lottie_element_23094" spreadMethod="pad" gradientUnits="userSpaceOnUse" x1="-246" y1="1" x2="243" y2="0"><stop stop-color="rgb(255,255,255)" offset="0%" stop-opacity="1"/><stop stop-color="rgb(255,255,255)" offset="17%" stop-opacity="0.5"/><stop stop-color="rgb(255,255,255)" offset="33%" stop-opacity="0"/><stop stop-color="rgb(255,255,255)" offset="50%" stop-opacity="0"/><stop stop-color="rgb(255,255,255)" offset="66%" stop-opacity="0"/><stop stop-color="rgb(255,255,255)" offset="83%" stop-opacity="0.5"/><stop stop-color="rgb(255,255,255)" offset="100%" stop-opacity="1"/></linearGradient></defs><g clip-path="url(#__lottie_element_23074)"><g style="display: block;" transform="matrix(0.800000011920929,0,0,0.800000011920929,257.9656066894531,250.03680419921875)" opacity="1"><g opacity="1" transform="matrix(1,0,0,1,0,0)"><path fill="rgb(37,51,144)" fill-opacity="1" d=" M-112.13999938964844,164.70899963378906 C-112.08200073242188,164.82899475097656 -103.83100128173828,164.7030029296875 -103.76799774169922,164.74600219726562 C-50.75,162.75 -4.125,146.125 27.19499969482422,139.3300018310547 C47.95800018310547,134.8249969482422 68.79000091552734,130.64500427246094 83.74700164794922,128.94000244140625 C106.2509994506836,126.375 122.875,126.75 143.25,128.35899353027344 C183.33700561523438,131.52499389648438 217.79299926757812,139.2030029296875 241.43699645996094,147.031005859375 C241.43699645996094,147.09300231933594 241.406005859375,147.09300231933594 241.406005859375,147.06199645996094 C241.406005859375,147.06199645996094 241.406005859375,147.06199645996094 241.406005859375,147.06199645996094 C241.56199645996094,120.56199645996094 241.23399353027344,82.29100036621094 241.25,49.90599822998047 C241.26600646972656,17.08300018310547 -43.457000732421875,-33.54600143432617 -112.13999938964844,164.70899963378906z"/></g><g opacity="1" transform="matrix(1,0,0,1,0,0)"><path fill="rgb(203,66,50)" fill-opacity="1" d=" M-246.5,-145.5 C-246.5,-142.28199768066406 -91.45700073242188,-23.047000885009766 34.5,-37.55099868774414 C78.79299926757812,-37.78499984741211 241.468994140625,-32.3489990234375 241.5,-48.5629997253418 C241.56199645996094,-80.91699981689453 241.5,-128.75 241.625,-145.625 C151.281005859375,-172.5 103.15699768066406,-165.1009979248047 78.5,-162.81199645996094 C23.042999267578125,-156.04600524902344 -48.707000732421875,-130.79600524902344 -83.375,-129.06199645996094 C-157.875,-120.1240005493164 -212.75,-139.625 -246.5,-145.5z"/></g></g><g style="display: block;" transform="matrix(0.800000011920929,0,0,0.800000011920929,256,250)" opacity="1"><g opacity="1" transform="matrix(1,0,0,1,0,0)"><path fill="rgb(20,20,20)" fill-opacity="1" d=" M-243.75,-145.5 C-243.5,-110.25 -242.5,123 -243,146 C49,39 1,-19 -243.75,-145.5z"/><path stroke-linecap="butt" stroke-linejoin="miter" fill-opacity="0" stroke-miterlimit="4" stroke="rgb(13,52,35)" stroke-opacity="1" stroke-width="0" d=" M-243.75,-145.5 C-243.5,-110.25 -242.5,123 -243,146 C49,39 1,-19 -243.75,-145.5z"/></g><g opacity="1" transform="matrix(1,0,0,1,0,0)"><path fill="rgb(240,180,42)" fill-opacity="1" d=" M-243.75,-145.5 C-243.5,-110.25 -243.75,-108 -244,-103.25 C-189.5,-52 -162.5,-23.5 -97.25,17.75 C-116.11100006103516,32.03799819946289 -136.48699951171875,45.70000076293945 -158.427001953125,58.6619987487793 C-184.4709930419922,74.04900360107422 -212.718994140625,88.4520034790039 -243.25,101.75 C-243.18800354003906,105.43699645996094 -242.5,123 -243,146 C49,39 1,-19 -243.75,-145.5z"/><path stroke-linecap="butt" stroke-linejoin="miter" fill-opacity="0" stroke-miterlimit="4" stroke="rgb(13,52,35)" stroke-opacity="1" stroke-width="0" d=" M-243.75,-145.5 C-243.5,-110.25 -243.75,-108 -244,-103.25 C-189.5,-52 -162.5,-23.5 -97.25,17.75 C-116.11100006103516,32.03799819946289 -136.48699951171875,45.70000076293945 -158.427001953125,58.6619987487793 C-184.4709930419922,74.04900360107422 -212.718994140625,88.4520034790039 -243.25,101.75 C-243.18800354003906,105.43699645996094 -242.5,123 -243,146 C49,39 1,-19 -243.75,-145.5z"/></g><g opacity="1" transform="matrix(1,0,0,1,0,0)"><path fill="rgb(242,242,242)" fill-opacity="1" d=" M-200.75,-136.5 C25,-4 36,4 -218.25,152 C-205.75,154.75 -156.5,167.75 -110.5,164.5 C-79.58100128173828,141.25100708007812 -57.39400100708008,121.79299926757812 -38.67900085449219,104.30899810791016 C-18.35300064086914,85.31999969482422 -2.122999906539917,68.66000366210938 16.75,52 C50.83599853515625,42.98099899291992 84.14800262451172,36.917999267578125 122.99500274658203,37.393001556396484 C157.3719940185547,37.81399917602539 196.08299255371094,43.35499954223633 243.5,56.5 C243.25,45.25 243.75,-42.75 243.5,-57 C198.38400268554688,-68.85099792480469 163.06199645996094,-76.2770004272461 125.49700164794922,-76.73699951171875 C93.3290023803711,-77.13099670410156 59.51599884033203,-72.41699981689453 16.5,-61 C-23.75,-80.25 -62.5,-97 -111.25,-127.5 C-126.5,-125.5 -168.75,-128.25 -200.75,-136.5z"/><path stroke-linecap="butt" stroke-linejoin="miter" fill-opacity="0" stroke-miterlimit="4" stroke="rgb(13,52,35)" stroke-opacity="1" stroke-width="0" d=" M-200.75,-136.5 C25,-4 36,4 -218.25,152 C-205.75,154.75 -156.5,167.75 -110.5,164.5 C-79.58100128173828,141.25100708007812 -57.39400100708008,121.79299926757812 -38.67900085449219,104.30899810791016 C-18.35300064086914,85.31999969482422 -2.122999906539917,68.66000366210938 16.75,52 C50.83599853515625,42.98099899291992 84.14800262451172,36.917999267578125 122.99500274658203,37.393001556396484 C157.3719940185547,37.81399917602539 196.08299255371094,43.35499954223633 243.5,56.5 C243.25,45.25 243.75,-42.75 243.5,-57 C198.38400268554688,-68.85099792480469 163.06199645996094,-76.2770004272461 125.49700164794922,-76.73699951171875 C93.3290023803711,-77.13099670410156 59.51599884033203,-72.41699981689453 16.5,-61 C-23.75,-80.25 -62.5,-97 -111.25,-127.5 C-126.5,-125.5 -168.75,-128.25 -200.75,-136.5z"/></g><g opacity="1" transform="matrix(1,0,0,1,0,0)"><path fill="rgb(22,127,97)" fill-opacity="1" d=" M-243.75,-145.5 C-243.75,-145.5 -243.75,-134.5 -244,-129.75 C-187,-78.25 -156.5,-41.75 -59,13 C-88.00199890136719,39.91400146484375 -117.6510009765625,61.553001403808594 -146.7209930419922,79.46499633789062 C-180.2969970703125,100.15299987792969 -213.1020050048828,115.86900329589844 -243.25,129 C-243.18800354003906,132.68800354003906 -243,146 -243,146 C-243,146 -183.25,161.75 -150.25,164 C-106.19000244140625,136.42799377441406 -73.26499938964844,108.93299865722656 -46.32400131225586,84.19599914550781 C-24.65399932861328,64.2979965209961 -6.855999946594238,46.183998107910156 9.75,31.25 C38.98500061035156,23.514999389648438 68.79000091552734,16.865999221801758 102.2490005493164,14.885000228881836 C142.322998046875,12.51200008392334 187.63999938964844,16.83300018310547 243.5,34 C243.25,22.75 243.75,-20.25 243.5,-34.5 C201.39999389648438,-45.558998107910156 167.76499938964844,-52.89099884033203 132.02000427246094,-54.04999923706055 C96.65799713134766,-55.196998596191406 59.23099899291992,-50.303001403808594 9.5,-37 C-35.5,-56.25 -101.75,-88.5 -149.5,-128.25 C-180,-131 -243.75,-145.5 -243.75,-145.5z"/><path stroke-linecap="butt" stroke-linejoin="miter" fill-opacity="0" stroke-miterlimit="4" stroke="rgb(13,52,35)" stroke-opacity="1" stroke-width="0" d=" M-243.75,-145.5 C-243.75,-145.5 -243.75,-134.5 -244,-129.75 C-187,-78.25 -156.5,-41.75 -59,13 C-88.00199890136719,39.91400146484375 -117.6510009765625,61.553001403808594 -146.7209930419922,79.46499633789062 C-180.2969970703125,100.15299987792969 -213.1020050048828,115.86900329589844 -243.25,129 C-243.18800354003906,132.68800354003906 -243,146 -243,146 C-243,146 -183.25,161.75 -150.25,164 C-106.19000244140625,136.42799377441406 -73.26499938964844,108.93299865722656 -46.32400131225586,84.19599914550781 C-24.65399932861328,64.2979965209961 -6.855999946594238,46.183998107910156 9.75,31.25 C38.98500061035156,23.514999389648438 68.79000091552734,16.865999221801758 102.2490005493164,14.885000228881836 C142.322998046875,12.51200008392334 187.63999938964844,16.83300018310547 243.5,34 C243.25,22.75 243.75,-20.25 243.5,-34.5 C201.39999389648438,-45.558998107910156 167.76499938964844,-52.89099884033203 132.02000427246094,-54.04999923706055 C96.65799713134766,-55.196998596191406 59.23099899291992,-50.303001403808594 9.5,-37 C-35.5,-56.25 -101.75,-88.5 -149.5,-128.25 C-180,-131 -243.75,-145.5 -243.75,-145.5z"/></g></g><g style="display: block;" transform="matrix(0.800000011920929,0,0,0.800000011920929,257.9656066894531,250.03680419921875)" opacity="0.35000000000000003"><g opacity="1" transform="matrix(1,0,0,1,0,0)"><path fill="url(#__lottie_element_23093)" mask="url(#__lottie_element_23095)" fill-opacity="1" d="M0 0 M-246.5,-145.5 C-246.5,-139 -246.5,144.218994140625 -246.5,146.593994140625 C-244.71200561523438,146.76499938964844 -241.55099487304688,147.5780029296875 -237.75900268554688,148.50999450683594 C-220.5,152.75 -191.07200622558594,159.75999450683594 -178.26499938964844,161.58399963378906 C-147.25,166 -127.13200378417969,165.62600708007812 -103.76799774169922,164.74600219726562 C-50.75,162.75 -4.125,146.125 27.19499969482422,139.3300018310547 C47.95800018310547,134.8249969482422 68.79000091552734,130.64500427246094 83.74700164794922,128.94000244140625 C106.25,126.375 122.875,126.75 143.25,128.35899353027344 C183.33700561523438,131.52499389648438 217.79400634765625,139.2030029296875 241.43800354003906,147.031005859375 C241.43800354003906,147.09300231933594 241.406005859375,147.09300231933594 241.406005859375,147.06199645996094 C241.406005859375,147.06199645996094 241.406005859375,147.06199645996094 241.406005859375,147.06199645996094 C241.56199645996094,120.56199645996094 241.23399353027344,82.29100036621094 241.25,49.90599822998047 C241.26600646972656,17.08300018310547 241.43699645996094,-15.739999771118164 241.5,-48.5629997253418 C241.56199645996094,-80.91699981689453 241.5,-128.75 241.625,-145.625 C151.281005859375,-172.5 103.15699768066406,-165.1009979248047 78.5,-162.81199645996094 C23.042999267578125,-156.04600524902344 -48.707000732421875,-130.79600524902344 -83.375,-129.06199645996094 C-157.875,-120.1240005493164 -212.75,-139.625 -246.5,-145.5z"/></g></g><g style="display: block;" transform="matrix(0.800000011920929,0,0,0.800000011920929,257.9656066894531,250.03680419921875)" opacity="0.15"><g opacity="1" transform="matrix(1,0,0,1,0,0)"><path fill="rgb(255,255,255)" fill-opacity="1" d=" M-246.875,-146 C-246.83700561523438,-139.70399475097656 -246.875,-138 -246.79200744628906,-132.81100463867188 C-237.5,-136.25 -197.25,-114 -124.49600219726562,-114.31099700927734 C-38.992000579833984,-114.6760025024414 39.233001708984375,-153.25 121.70800018310547,-153.39700317382812 C179.75,-153.5 241,-132.25 240.91200256347656,-131.552001953125 C241,-140.5 241.375,-144.625 241.375,-144.625 C241.375,-144.625 179.75,-166.25 122.5,-166 C39.49700164794922,-165.63800048828125 -39.5,-128 -124.25,-126.81199645996094 C-197.0449981689453,-125.79199981689453 -237.75,-149 -246.875,-146z"/></g></g><g style="display: block;" transform="matrix(0.800000011920929,0,0,0.800000011920929,257.9656066894531,250.03680419921875)" opacity="0.15"><g opacity="1" transform="matrix(1,0,0,1,0,0)"><path fill="rgb(0,0,0)" fill-opacity="1" d=" M122.5,112.25 C34,112.25 -36,149.5 -123.5,152 C-140.61700439453125,152.48899841308594 -155.82000732421875,151.3489990234375 -170.41099548339844,149.1280059814453 C-195.23399353027344,145.35000610351562 -218.28900146484375,138.4459991455078 -246,131.125 C-246.25,134.5 -246,141.375 -246,145.125 C-218.5749969482422,153.30599975585938 -195.61700439453125,159.55499267578125 -170.83099365234375,163.0050048828125 C-155.8520050048828,165.08999633789062 -140.20399475097656,166.15199279785156 -122.5,166 C-35,165.25 33.5,126.625 121.75,126.5 C126.26799774169922,126.49400329589844 131.11399841308594,126.59500122070312 136.27699279785156,126.83899688720703 C163.25900268554688,128.11300659179688 198.88099670410156,133.2550048828125 241.375,147 C241.375,147 241.25,134.75 241.5,131.125 C199.093994140625,118.93299865722656 163.16200256347656,113.84500122070312 136.1439971923828,112.58000183105469 C131.30499267578125,112.35399627685547 126.75299835205078,112.25 122.5,112.25z"/></g></g><g style="display: block;" transform="matrix(0.800000011920929,0,0,0.800000011920929,257.9656066894531,250.03680419921875)" opacity="1"><g opacity="1" transform="matrix(1,0,0,1,0,0)"><path stroke-linecap="round" stroke-linejoin="round" fill-opacity="0" stroke="rgb(11,57,44)" stroke-opacity="1" stroke-width="8" d=" M241.20700073242188,55.90599822998047 C241.22300720214844,23.08300018310547 241.3939971923828,-24.552000045776367 241.45700073242188,-57.375"/></g><g opacity="1" transform="matrix(1,0,0,1,-480,-120)"><path stroke-linecap="round" stroke-linejoin="round" fill-opacity="0" stroke="rgb(11,57,44)" stroke-opacity="1" stroke-width="8" d=" M234.36300659179688,221.781005859375 C234.36300659179688,221.781005859375 234.10499572753906,265.2030029296875 234.1750030517578,265.4209899902344 C275.8550109863281,275.9530029296875 313.2929992675781,285.7040100097656 366.9179992675781,285.0159912109375"/></g><g opacity="1" transform="matrix(1,0,0,1,-480,-120)"><path stroke-linecap="round" stroke-linejoin="round" fill-opacity="0" stroke="rgb(11,57,44)" stroke-opacity="1" stroke-width="8" d=" M233.26600646972656,17.1560001373291 C233.26600646972656,17.1560001373291 233.3000030517578,-25.891000747680664 233.3000030517578,-25.891000747680664 C233.3000030517578,-25.891000747680664 312.2929992675781,-4.296000003814697 368.4809875488281,-6.734000205993652"/></g><g opacity="1" transform="matrix(1,0,0,1,0,0)"><path stroke-linecap="butt" stroke-linejoin="round" fill-opacity="0" stroke="rgb(14,20,62)" stroke-opacity="1" stroke-width="8" d=" M-112.13999938964844,164.70899963378906 C-112.08200073242188,164.82899475097656 -103.83100128173828,164.7030029296875 -103.76799774169922,164.74600219726562 C-50.75,162.75 -4.125,146.125 27.19499969482422,139.3300018310547 C47.95800018310547,134.8249969482422 68.79000091552734,130.64500427246094 83.74700164794922,128.94000244140625 C106.2509994506836,126.375 122.875,126.75 143.25,128.35899353027344 C183.33700561523438,131.52499389648438 217.79299926757812,139.2030029296875 241.43699645996094,147.031005859375 C241.43699645996094,147.09300231933594 241.406005859375,147.09300231933594 241.406005859375,147.06199645996094 C241.406005859375,147.06199645996094 241.406005859375,147.06199645996094 241.406005859375,147.06199645996094 C241.56199645996094,120.56199645996094 241.1909942626953,88.29100036621094 241.20700073242188,55.90599822998047"/></g><g opacity="1" transform="matrix(1,0,0,1,0,0)"><path stroke-linecap="butt" stroke-linejoin="round" fill-opacity="0" stroke="rgb(109,27,18)" stroke-opacity="1" stroke-width="8" d=" M241.5,-57.3129997253418 C241.56199645996094,-89.66699981689453 241.5,-128.75 241.625,-145.625 C151.281005859375,-172.5 103.15699768066406,-165.1009979248047 78.5,-162.81199645996094 C23.042999267578125,-156.04600524902344 -53.957000732421875,-125.5459976196289 -111.25,-126.56199645996094"/></g><g opacity="1" transform="matrix(1,0,0,1,0,0)"><path stroke-linecap="butt" stroke-linejoin="round" fill-opacity="0" stroke="rgb(0,0,0)" stroke-opacity="1" stroke-width="8" d=" M-245.875,101.81300354003906 C-245.875,101.81300354003906 -246.875,-102.75 -246.875,-102.75"/></g></g></g></svg>