<svg xmlns="http://www.w3.org/2000/svg" xmlns:xlink="http://www.w3.org/1999/xlink" viewBox="0 0 512 512" width="512" height="512" style="width: 100%; height: 100%; transform: translate3d(0,0,0);" preserveAspectRatio="xMidYMid meet"><defs><clipPath id="__lottie_element_21694"><rect width="512" height="512" x="0" y="0"/></clipPath><linearGradient id="__lottie_element_21713" spreadMethod="pad" gradientUnits="userSpaceOnUse" x1="-246" y1="1" x2="243" y2="0"><stop offset="0%" stop-color="rgb(0,0,0)"/><stop offset="25%" stop-color="rgb(0,0,0)"/><stop offset="50%" stop-color="rgb(0,0,0)"/><stop offset="75%" stop-color="rgb(0,0,0)"/><stop offset="100%" stop-color="rgb(0,0,0)"/></linearGradient><mask id="__lottie_element_21715"><path fill="url(#__lottie_element_21714)" d=" M-246.5,-145.5 C-246.5,-139 -246.5,144.218994140625 -246.5,146.593994140625 C-244.71200561523438,146.76499938964844 -241.55099487304688,147.5780029296875 -237.75900268554688,148.50999450683594 C-220.5,152.75 -191.07200622558594,159.75999450683594 -178.26499938964844,161.58399963378906 C-147.25,166 -127.13200378417969,165.62600708007812 -103.76799774169922,164.74600219726562 C-50.75,162.75 -4.125,146.125 27.19499969482422,139.3300018310547 C47.95800018310547,134.8249969482422 68.79000091552734,130.64500427246094 83.74700164794922,128.94000244140625 C106.25,126.375 122.875,126.75 143.25,128.35899353027344 C183.33700561523438,131.52499389648438 217.79400634765625,139.2030029296875 241.43800354003906,147.031005859375 C241.43800354003906,147.09300231933594 241.406005859375,147.09300231933594 241.406005859375,147.06199645996094 C241.406005859375,147.06199645996094 241.406005859375,147.06199645996094 241.406005859375,147.06199645996094 C241.56199645996094,120.56199645996094 241.23399353027344,82.29100036621094 241.25,49.90599822998047 C241.26600646972656,17.08300018310547 241.43699645996094,-15.739999771118164 241.5,-48.5629997253418 C241.56199645996094,-80.91699981689453 241.5,-128.75 241.625,-145.625 C151.281005859375,-172.5 103.15699768066406,-165.1009979248047 78.5,-162.81199645996094 C23.042999267578125,-156.04600524902344 -48.707000732421875,-130.79600524902344 -83.375,-129.06199645996094 C-157.875,-120.1240005493164 -212.75,-139.625 -246.5,-145.5z"/></mask><linearGradient id="__lottie_element_21714" spreadMethod="pad" gradientUnits="userSpaceOnUse" x1="-246" y1="1" x2="243" y2="0"><stop stop-color="rgb(255,255,255)" offset="0%" stop-opacity="1"/><stop stop-color="rgb(255,255,255)" offset="17%" stop-opacity="0.5"/><stop stop-color="rgb(255,255,255)" offset="33%" stop-opacity="0"/><stop stop-color="rgb(255,255,255)" offset="50%" stop-opacity="0"/><stop stop-color="rgb(255,255,255)" offset="66%" stop-opacity="0"/><stop stop-color="rgb(255,255,255)" offset="83%" stop-opacity="0.5"/><stop stop-color="rgb(255,255,255)" offset="100%" stop-opacity="1"/></linearGradient></defs><g clip-path="url(#__lottie_element_21694)"><g style="display: block;" transform="matrix(0.800000011920929,0,0,0.800000011920929,257.9656066894531,250.03680419921875)" opacity="1"><g opacity="1" transform="matrix(1,0,0,1,0,0)"><path fill="rgb(101,151,173)" fill-opacity="1" d=" M-246.5,-145.5 C-246.5,-139 -246.5,144.218994140625 -246.5,146.593994140625 C-244.71200561523438,146.76499938964844 -241.55099487304688,147.5780029296875 -237.75900268554688,148.50999450683594 C-220.5,152.75 -191.07200622558594,159.75999450683594 -178.26499938964844,161.58399963378906 C-147.25,166 -127.13200378417969,165.62600708007812 -103.76799774169922,164.74600219726562 C-50.75,162.75 -4.125,146.125 27.19499969482422,139.3300018310547 C47.95800018310547,134.8249969482422 68.79000091552734,130.64500427246094 83.74700164794922,128.94000244140625 C106.25,126.375 122.875,126.75 143.25,128.35899353027344 C183.33700561523438,131.52499389648438 217.79400634765625,139.2030029296875 241.43800354003906,147.031005859375 C241.43800354003906,147.09300231933594 241.406005859375,147.09300231933594 241.406005859375,147.06199645996094 C241.406005859375,147.06199645996094 241.406005859375,147.06199645996094 241.406005859375,147.06199645996094 C241.56199645996094,120.56199645996094 241.23399353027344,82.29100036621094 241.25,49.90599822998047 C241.26600646972656,17.08300018310547 241.43699645996094,-15.739999771118164 241.5,-48.5629997253418 C241.56199645996094,-80.91699981689453 241.5,-128.75 241.625,-145.625 C151.281005859375,-172.5 103.15699768066406,-165.1009979248047 78.5,-162.81199645996094 C23.042999267578125,-156.04600524902344 -48.707000732421875,-130.79600524902344 -83.375,-129.06199645996094 C-157.875,-120.1240005493164 -212.75,-139.625 -246.5,-145.5z"/></g></g><g style="display: block;" transform="matrix(0.800000011920929,0,0,0.800000011920929,173.15760803222656,192.7248077392578)" opacity="1"><g opacity="1" transform="matrix(1,0,0,1,0,0)"><path fill="rgb(32,32,119)" fill-opacity="1" d=" M140.93600463867188,56.29999923706055 C140.93600463867188,56.29999923706055 140.9040069580078,9.34000015258789 140.9040069580078,9.34000015258789 C140.9040069580078,9.34000015258789 140.9199981689453,-37.93000030517578 140.9199981689453,-37.93000030517578 C140.9199981689453,-37.93000030517578 140.93600463867188,-84.62300109863281 140.93600463867188,-84.62300109863281 C129.78500366210938,-82.28700256347656 63.41699981689453,-59.69900131225586 0.44699999690055847,-56.08100128173828 C-55.88399887084961,-52.84400177001953 -83.52100372314453,-61.058998107910156 -140.93600463867188,-75.30000305175781 C-140.93600463867188,-75.30000305175781 -140.93600463867188,65.63899993896484 -140.93600463867188,65.63899993896484 C-81.0009994506836,81.45099639892578 -60.82400131225586,84.46499633789062 -22.88800048828125,84.87300109863281 C-8.35200023651123,85.02899932861328 7.586999893188477,84.83799743652344 23.92799949645996,82.50199890136719 C62.90299987792969,76.93099975585938 104.83499908447266,65.2300033569336 140.93600463867188,56.29999923706055z"/></g></g><g style="display: block;" transform="matrix(0.800000011920929,0,0,0.800000011920929,52.80000305175781,44.599205017089844)" opacity="1"><g opacity="1" transform="matrix(1,0,0,1,150.44700622558594,179.6510009765625)"><g opacity="1" transform="matrix(1,0,0,1,0,0)"><path fill="rgb(242,242,242)" fill-opacity="1" d=" M140.93600463867188,45.86000061035156 C105.29399871826172,36.582000732421875 69.26499938964844,28.216999053955078 32.012001037597656,15.069999694824219 C62.02299880981445,-4.513000011444092 96.12899780273438,-29.617000579833984 140.93600463867188,-63.07600021362305 C140.93600463867188,-63.07600021362305 140.93600463867188,-78.86699676513672 140.93600463867188,-78.86699676513672 C130.77000427246094,-76.73699951171875 120.14900207519531,-74.1969985961914 109.09300231933594,-71.24199676513672 C109.06999969482422,-71.21700286865234 109.04399871826172,-71.18399810791016 109.02100372314453,-71.16100311279297 C71.60399627685547,-42.1510009765625 38.112998962402344,-17.724000930786133 0.4099999964237213,2.7730000019073486 C-34.571998596191406,-12.204999923706055 -70.78900146484375,-32.58300018310547 -108.89600372314453,-62.80799865722656 C-118.85600280761719,-64.91300201416016 -129.4409942626953,-67.18399810791016 -140.93600463867188,-69.54399871826172 C-140.93600463867188,-69.54399871826172 -140.93600463867188,-53.53799819946289 -140.93600463867188,-53.53799819946289 C-104.43699645996094,-28.447999954223633 -76.36399841308594,-4.059999942779541 -32.255001068115234,19.003999710083008 C-63.426998138427734,33.069000244140625 -98.40399932861328,44.930999755859375 -140.8509979248047,54.88100051879883 C-140.8769989013672,54.88199996948242 -140.9080047607422,54.87900161743164 -140.93600463867188,54.87900161743164 C-140.93600463867188,54.87900161743164 -140.93600463867188,71.3949966430664 -140.93600463867188,71.3949966430664 C-130.14999389648438,74.24099731445312 -119.88200378417969,76.72100067138672 -110.0739974975586,78.86699676513672 C-67.13200378417969,67.43399810791016 -34.680999755859375,54.505001068115234 0.4490000009536743,34.452999114990234 C29.274999618530273,46.74100112915039 64.56800079345703,58.59199905395508 110.36599731445312,69.89900207519531 C120.17400360107422,67.33499908447266 130.2949981689453,64.68699645996094 140.93600463867188,62.05500030517578 C140.93600463867188,62.05500030517578 140.93600463867188,45.86000061035156 140.93600463867188,45.86000061035156z"/></g></g><g opacity="1" transform="matrix(1,0,0,1,77.375,232.7480010986328)"><path fill="rgb(240,25,25)" fill-opacity="1" d=" M210.98899841308594,-130.16700744628906 C210.98899841308594,-130.16700744628906 192.52200317382812,-127.04199981689453 192.52200317382812,-127.04199981689453 C168.18699645996094,-105.84100341796875 114.43800354003906,-70.52899932861328 75.60299682617188,-39.42599868774414 C11.781999588012695,-54.435001373291016 -42.59400177001953,-107.40399932861328 -65.8949966430664,-121.42900085449219 C-66.65599822998047,-118.96600341796875 -66.65599822998047,-115.02100372314453 -67.23500061035156,-112.50399780273438 C-16.3439998626709,-74.552001953125 14.75,-48.810001373291016 65.4209976196289,-34.63800048828125 C17.093000411987305,0.5649999976158142 -41.944000244140625,11.786999702453613 -67.86399841308594,18.29800033569336 C-61.23400115966797,20.047000885009766 -54.80400085449219,21.6560001373291 -48.551998138427734,23.13599967956543 C-48.52199935913086,23.118000030517578 -48.48699951171875,23.097999572753906 -48.459999084472656,23.082000732421875 C-26.22599983215332,17.80500030517578 30.687000274658203,4.626999855041504 71.93399810791016,-28.81599998474121 C116.46900177001953,-17.24799919128418 191.781005859375,2.752000093460083 213.33999633789062,8.51099967956543 C213.343994140625,8.03600025177002 213.5,-0.8410000205039978 213.3179931640625,-1.909000039100647 C150.68699645996094,-18.965999603271484 117.71900177001953,-26.93600082397461 84.38899993896484,-36.191001892089844 C127.875,-67.24800109863281 176.625,-104.59100341796875 210.98899841308594,-130.16700744628906z"/></g></g><g style="display: block;" transform="matrix(0.800000011920929,0,0,0.800000011920929,52.80000305175781,44.599205017089844)" opacity="1"><g opacity="1" transform="matrix(1,0,0,1,150.44700622558594,198.3560028076172)"><g opacity="1" transform="matrix(1,0,0,1,0,0)"><path fill="rgb(242,242,242)" fill-opacity="1" d=" M24,-25.538000106811523 C24,-25.538000106811523 24,-71.6719970703125 24,-71.6719970703125 C6.656000137329102,-69.4219970703125 -8.670999526977539,-68.65799713134766 -23.233999252319336,-69.03099822998047 C-23.233999252319336,-69.03099822998047 -23.233999252319336,-22.201000213623047 -23.233999252319336,-22.201000213623047 C-56.680999755859375,-22.590999603271484 -90.12899780273438,-29.222999572753906 -140.93600463867188,-42.066001892089844 C-140.93600463867188,-42.066001892089844 -140.93600463867188,4.965000152587891 -140.93600463867188,4.965000152587891 C-90.12799835205078,18.27199935913086 -56.66600036621094,25.172000885009766 -23.233999252319336,25.663000106811523 C-23.233999252319336,25.663000106811523 -23.233999252319336,71.55799865722656 -23.233999252319336,71.55799865722656 C-6.339000225067139,71.99099731445312 9.168000221252441,71.16699981689453 24,69.4469985961914 C24,69.4469985961914 24,22.354999542236328 24,22.354999542236328 C54.4370002746582,17.965999603271484 90.1989974975586,9.244999885559082 140.93600463867188,-3.809999942779541 C140.93600463867188,-3.809999942779541 140.93600463867188,-51.220001220703125 140.93600463867188,-51.220001220703125 C90.1989974975586,-38.43299865722656 54.43000030517578,-29.878000259399414 24,-25.538000106811523z"/></g></g><g opacity="1" transform="matrix(1,0,0,1,150.44700622558594,198.88999938964844)"><g opacity="1" transform="matrix(1,0,0,1,0,0)"><path fill="rgb(240,25,25)" fill-opacity="1" d=" M14.809000015258789,-15.156999588012695 C14.809000015258789,-15.156999588012695 14.809000015258789,-71.13200378417969 14.809000015258789,-71.13200378417969 C4.807000160217285,-70.09600067138672 -4.551000118255615,-69.572998046875 -13.531999588012695,-69.48799896240234 C-13.531999588012695,-69.48799896240234 -13.531999588012695,-12.993000030517578 -13.531999588012695,-12.993000030517578 C-50.361000061035156,-11.958000183105469 -85.4010009765625,-18.368000030517578 -140.93600463867188,-32.89899826049805 C-140.93600463867188,-32.89899826049805 -140.93600463867188,-6.038000106811523 -140.93600463867188,-6.038000106811523 C-85.22200012207031,8.553999900817871 -50.36600112915039,15.439000129699707 -13.531999588012695,14.619999885559082 C-13.531999588012695,14.619999885559082 -13.531999588012695,71.13200378417969 -13.531999588012695,71.13200378417969 C-3.687000036239624,71.10700225830078 5.710999965667725,70.65799713134766 14.809000015258789,69.85399627685547 C14.809000015258789,69.85399627685547 14.809000015258789,12.562999725341797 14.809000015258789,12.562999725341797 C47.270999908447266,8.70300006866455 85.00700378417969,-0.421999990940094 140.93600463867188,-14.812999725341797 C140.93600463867188,-14.812999725341797 140.93600463867188,-41.72100067138672 140.93600463867188,-41.72100067138672 C85.15799713134766,-28.073999404907227 47.415000915527344,-19.09000015258789 14.809000015258789,-15.156999588012695z"/></g></g></g><g style="display: block;" transform="matrix(0.800000011920929,0,0,0.800000011920929,52.80080795288086,44.700008392333984)" opacity="1"><g opacity="1" transform="matrix(1,0,0,1,352.5320129394531,256.89599609375)"><path fill="rgb(255,213,36)" fill-opacity="1" d=" M-10.595999717712402,-14.53499984741211 C-10.595999717712402,-14.53499984741211 -0.07900000363588333,-7.809000015258789 -0.07900000363588333,-7.809000015258789 C-0.07900000363588333,-7.809000015258789 10.170000076293945,-15.72599983215332 10.170000076293945,-15.72599983215332 C10.170000076293945,-15.72599983215332 6.085000038146973,-3.811000108718872 6.085000038146973,-3.811000108718872 C6.085000038146973,-3.811000108718872 16.55299949645996,3.3380000591278076 16.55299949645996,3.3380000591278076 C16.55299949645996,3.3380000591278076 3.6670000553131104,3.9839999675750732 3.6670000553131104,3.9839999675750732 C3.6670000553131104,3.9839999675750732 -0.23399999737739563,15.72599983215332 -0.23399999737739563,15.72599983215332 C-0.23399999737739563,15.72599983215332 -3.9800000190734863,3.933000087738037 -3.9800000190734863,3.933000087738037 C-3.9800000190734863,3.933000087738037 -16.55299949645996,5.806000232696533 -16.55299949645996,5.806000232696533 C-16.55299949645996,5.806000232696533 -6.5960001945495605,-2.9600000381469727 -6.5960001945495605,-2.9600000381469727 C-6.5960001945495605,-2.9600000381469727 -10.595999717712402,-14.53499984741211 -10.595999717712402,-14.53499984741211z"/></g><g opacity="1" transform="matrix(1,0,0,1,393.5530090332031,201.3179931640625)"><path fill="rgb(255,213,36)" fill-opacity="1" d=" M-10.425999641418457,-15.722000122070312 C-10.425999641418457,-15.722000122070312 -0.17000000178813934,-7.813000202178955 -0.17000000178813934,-7.813000202178955 C-0.17000000178813934,-7.813000202178955 9.887999534606934,-15.020000457763672 9.887999534606934,-15.020000457763672 C9.887999534606934,-15.020000457763672 6.5960001945495605,-3.127000093460083 6.5960001945495605,-3.127000093460083 C6.5960001945495605,-3.127000093460083 16.63800048828125,5.468999862670898 16.63800048828125,5.468999862670898 C16.63800048828125,5.468999862670898 3.5759999752044678,3.9800000190734863 3.5759999752044678,3.9800000190734863 C3.5759999752044678,3.9800000190734863 -0.32499998807907104,15.722000122070312 -0.32499998807907104,15.722000122070312 C-0.32499998807907104,15.722000122070312 -4.071000099182129,3.930000066757202 -4.071000099182129,3.930000066757202 C-4.071000099182129,3.930000066757202 -16.63800048828125,3.0859999656677246 -16.63800048828125,3.0859999656677246 C-16.63800048828125,3.0859999656677246 -6.426000118255615,-3.7219998836517334 -6.426000118255615,-3.7219998836517334 C-6.426000118255615,-3.7219998836517334 -10.425999641418457,-15.722000122070312 -10.425999641418457,-15.722000122070312z"/></g><g opacity="1" transform="matrix(1,0,0,1,427.97900390625,191.68099975585938)"><path fill="rgb(255,213,36)" fill-opacity="1" d=" M-10.553000450134277,-16.21299934387207 C-10.553000450134277,-16.21299934387207 -0.17000000178813934,-7.702000141143799 -0.17000000178813934,-7.702000141143799 C-0.17000000178813934,-7.702000141143799 10.043000221252441,-12.979000091552734 10.043000221252441,-12.979000091552734 C10.043000221252441,-12.979000091552734 6.2129998207092285,-2.3399999141693115 6.2129998207092285,-2.3399999141693115 C6.2129998207092285,-2.3399999141693115 16.51099967956543,7.5320000648498535 16.51099967956543,7.5320000648498535 C16.51099967956543,7.5320000648498535 3.489000082015991,4.638000011444092 3.489000082015991,4.638000011444092 C3.489000082015991,4.638000011444092 -0.2549999952316284,16.21299934387207 -0.2549999952316284,16.21299934387207 C-0.2549999952316284,16.21299934387207 -3.9240000247955322,3.5820000171661377 -3.9240000247955322,3.5820000171661377 C-3.9240000247955322,3.5820000171661377 -16.51099967956543,1.7450000047683716 -16.51099967956543,1.7450000047683716 C-16.51099967956543,1.7450000047683716 -6.297999858856201,-4.127999782562256 -6.297999858856201,-4.127999782562256 C-6.297999858856201,-4.127999782562256 -10.553000450134277,-16.21299934387207 -10.553000450134277,-16.21299934387207z"/></g><g opacity="1" transform="matrix(1,0,0,1,352.489013671875,297.8450012207031)"><path fill="rgb(255,213,36)" fill-opacity="1" d=" M-10.722999572753906,-14.717000007629395 C-10.722999572753906,-14.717000007629395 -0.2070000022649765,-7.881999969482422 -0.2070000022649765,-7.881999969482422 C-0.2070000022649765,-7.881999969482422 9.786999702453613,-15.654000282287598 9.786999702453613,-15.654000282287598 C9.786999702453613,-15.654000282287598 6.297999858856201,-3.8239998817443848 6.297999858856201,-3.8239998817443848 C6.297999858856201,-3.8239998817443848 16.680999755859375,2.984999895095825 16.680999755859375,2.984999895095825 C16.680999755859375,2.984999895095825 3.5390000343322754,3.9110000133514404 3.5390000343322754,3.9110000133514404 C3.5390000343322754,3.9110000133514404 -0.3619999885559082,15.654000282287598 -0.3619999885559082,15.654000282287598 C-0.3619999885559082,15.654000282287598 -4.107999801635742,3.8610000610351562 -4.107999801635742,3.8610000610351562 C-4.107999801635742,3.8610000610351562 -16.680999755859375,5.453000068664551 -16.680999755859375,5.453000068664551 C-16.680999755859375,5.453000068664551 -6.4679999351501465,-3.058000087738037 -6.4679999351501465,-3.058000087738037 C-6.4679999351501465,-3.058000087738037 -10.722999572753906,-14.717000007629395 -10.722999572753906,-14.717000007629395z"/></g><g opacity="1" transform="matrix(1,0,0,1,393.59600830078125,286.0920104980469)"><path fill="rgb(255,213,36)" fill-opacity="1" d=" M-9.553999900817871,-15.418999671936035 C-9.553999900817871,-15.418999671936035 0.40799999237060547,-8.079999923706055 0.40799999237060547,-8.079999923706055 C0.40799999237060547,-8.079999923706055 10.465999603271484,-15.286999702453613 10.465999603271484,-15.286999702453613 C10.465999603271484,-15.286999702453613 6.7230000495910645,-3.305000066757202 6.7230000495910645,-3.305000066757202 C6.7230000495910645,-3.305000066757202 16.51099967956543,4.951000213623047 16.51099967956543,4.951000213623047 C16.51099967956543,4.951000213623047 4.1539998054504395,3.7130000591278076 4.1539998054504395,3.7130000591278076 C4.1539998054504395,3.7130000591278076 -0.08500000089406967,15.418999671936035 -0.08500000089406967,15.418999671936035 C-0.08500000089406967,15.418999671936035 -3.493000030517578,3.6630001068115234 -3.493000030517578,3.6630001068115234 C-3.493000030517578,3.6630001068115234 -16.51099967956543,2.6530001163482666 -16.51099967956543,2.6530001163482666 C-16.51099967956543,2.6530001163482666 -5.808000087738037,-3.625999927520752 -5.808000087738037,-3.625999927520752 C-5.808000087738037,-3.625999927520752 -9.553999900817871,-15.418999671936035 -9.553999900817871,-15.418999671936035z"/></g><g opacity="1" transform="matrix(1,0,0,1,311.2550048828125,310.9570007324219)"><path fill="rgb(255,213,36)" fill-opacity="1" d=" M-16.29800033569336,-1.7869999408721924 C-16.29800033569336,-1.7869999408721924 -4.127999782562256,-4.255000114440918 -4.127999782562256,-4.255000114440918 C-4.127999782562256,-4.255000114440918 -0.21299999952316284,-16.680999755859375 -0.21299999952316284,-16.680999755859375 C-0.21299999952316284,-16.680999755859375 3.7019999027252197,-6.043000221252441 3.7019999027252197,-6.043000221252441 C3.7019999027252197,-6.043000221252441 16.29800033569336,-7.659999847412109 16.29800033569336,-7.659999847412109 C16.29800033569336,-7.659999847412109 6.170000076293945,0.8510000109672546 6.170000076293945,0.8510000109672546 C6.170000076293945,0.8510000109672546 10.085000038146973,12.34000015258789 10.085000038146973,12.34000015258789 C10.085000038146973,12.34000015258789 -0.21299999952316284,6.7230000495910645 -0.21299999952316284,6.7230000495910645 C-0.21299999952316284,6.7230000495910645 -10.34000015258789,16.680999755859375 -10.34000015258789,16.680999755859375 C-10.34000015258789,16.680999755859375 -6.426000118255615,3.6600000858306885 -6.426000118255615,3.6600000858306885 C-6.426000118255615,3.6600000858306885 -16.29800033569336,-1.7869999408721924 -16.29800033569336,-1.7869999408721924z"/></g><g opacity="1" transform="matrix(1,0,0,1,428.3190002441406,257.8190002441406)"><path fill="rgb(255,213,36)" fill-opacity="1" d=" M-16.170000076293945,-6.35099983215332 C-16.170000076293945,-6.35099983215332 -3.9149999618530273,-4.989999771118164 -3.9149999618530273,-4.989999771118164 C-3.9149999618530273,-4.989999771118164 -0.17000000178813934,-15.883000373840332 -0.17000000178813934,-15.883000373840332 C-0.17000000178813934,-15.883000373840332 4.0929999351501465,-3.4739999771118164 4.0929999351501465,-3.4739999771118164 C4.0929999351501465,-3.4739999771118164 16.170000076293945,-1.0750000476837158 16.170000076293945,-1.0750000476837158 C16.170000076293945,-1.0750000476837158 6.045000076293945,3.9200000762939453 6.045000076293945,3.9200000762939453 C6.045000076293945,3.9200000762939453 9.204000473022461,15.883000373840332 9.204000473022461,15.883000373840332 C9.204000473022461,15.883000373840332 -0.382999986410141,8.062000274658203 -0.382999986410141,8.062000274658203 C-0.382999986410141,8.062000274658203 -10.383000373840332,13.904000282287598 -10.383000373840332,13.904000282287598 C-10.383000373840332,13.904000282287598 -6.894000053405762,1.9889999628067017 -6.894000053405762,1.9889999628067017 C-6.894000053405762,1.9889999628067017 -16.170000076293945,-6.35099983215332 -16.170000076293945,-6.35099983215332z"/></g><g opacity="1" transform="matrix(1,0,0,1,462.4469909667969,243.94700622558594)"><path fill="rgb(255,213,36)" fill-opacity="1" d=" M-15.914999961853027,-8.137999534606934 C-15.914999961853027,-8.137999534606934 -3.9149999618530273,-5.5 -3.9149999618530273,-5.5 C-3.9149999618530273,-5.5 -0.2619999945163727,-16.542999267578125 -0.2619999945163727,-16.542999267578125 C-0.2619999945163727,-16.542999267578125 3.9149999618530273,-3.7130000591278076 3.9149999618530273,-3.7130000591278076 C3.9149999618530273,-3.7130000591278076 15.914999961853027,-0.8190000057220459 15.914999961853027,-0.8190000057220459 C15.914999961853027,-0.8190000057220459 6.127999782562256,4.372000217437744 6.127999782562256,4.372000217437744 C6.127999782562256,4.372000217437744 9.616999626159668,16.542999267578125 9.616999626159668,16.542999267578125 C9.616999626159668,16.542999267578125 -0.3019999861717224,6.993000030517578 -0.3019999861717224,6.993000030517578 C-0.3019999861717224,6.993000030517578 -10.043000221252441,12.116999626159668 -10.043000221252441,12.116999626159668 C-10.043000221252441,12.116999626159668 -6.382999897003174,1.1380000114440918 -6.382999897003174,1.1380000114440918 C-6.382999897003174,1.1380000114440918 -15.914999961853027,-8.137999534606934 -15.914999961853027,-8.137999534606934z"/></g><g opacity="1" transform="matrix(1,0,0,1,462.5320129394531,165.9550018310547)"><path fill="rgb(255,213,36)" fill-opacity="1" d=" M-16.2549991607666,-8.614999771118164 C-16.2549991607666,-8.614999771118164 -4.085000038146973,-5.97599983215332 -4.085000038146973,-5.97599983215332 C-4.085000038146973,-5.97599983215332 -0.2619999945163727,-16.57699966430664 -0.2619999945163727,-16.57699966430664 C-0.2619999945163727,-16.57699966430664 3.5739998817443848,-4.27400016784668 3.5739998817443848,-4.27400016784668 C3.5739998817443848,-4.27400016784668 16.2549991607666,-1.2960000038146973 16.2549991607666,-1.2960000038146973 C16.2549991607666,-1.2960000038146973 5.956999778747559,3.6410000324249268 5.956999778747559,3.6410000324249268 C5.956999778747559,3.6410000324249268 9.786999702453613,16.57699966430664 9.786999702453613,16.57699966430664 C9.786999702453613,16.57699966430664 -0.3019999861717224,6.959000110626221 -0.3019999861717224,6.959000110626221 C-0.3019999861717224,6.959000110626221 -10.383000373840332,12.151000022888184 -10.383000373840332,12.151000022888184 C-10.383000373840332,12.151000022888184 -6.4679999351501465,0.9169999957084656 -6.4679999351501465,0.9169999957084656 C-6.4679999351501465,0.9169999957084656 -16.2549991607666,-8.614999771118164 -16.2549991607666,-8.614999771118164z"/></g></g><g style="display: block;" transform="matrix(0.800000011920929,0,0,0.800000011920929,257.9656066894531,250.03680419921875)" opacity="0.35000000000000003"><g opacity="1" transform="matrix(1,0,0,1,0,0)"><path fill="url(#__lottie_element_21713)" mask="url(#__lottie_element_21715)" fill-opacity="1" d="M0 0 M-246.5,-145.5 C-246.5,-139 -246.5,144.218994140625 -246.5,146.593994140625 C-244.71200561523438,146.76499938964844 -241.55099487304688,147.5780029296875 -237.75900268554688,148.50999450683594 C-220.5,152.75 -191.07200622558594,159.75999450683594 -178.26499938964844,161.58399963378906 C-147.25,166 -127.13200378417969,165.62600708007812 -103.76799774169922,164.74600219726562 C-50.75,162.75 -4.125,146.125 27.19499969482422,139.3300018310547 C47.95800018310547,134.8249969482422 68.79000091552734,130.64500427246094 83.74700164794922,128.94000244140625 C106.25,126.375 122.875,126.75 143.25,128.35899353027344 C183.33700561523438,131.52499389648438 217.79400634765625,139.2030029296875 241.43800354003906,147.031005859375 C241.43800354003906,147.09300231933594 241.406005859375,147.09300231933594 241.406005859375,147.06199645996094 C241.406005859375,147.06199645996094 241.406005859375,147.06199645996094 241.406005859375,147.06199645996094 C241.56199645996094,120.56199645996094 241.23399353027344,82.29100036621094 241.25,49.90599822998047 C241.26600646972656,17.08300018310547 241.43699645996094,-15.739999771118164 241.5,-48.5629997253418 C241.56199645996094,-80.91699981689453 241.5,-128.75 241.625,-145.625 C151.281005859375,-172.5 103.15699768066406,-165.1009979248047 78.5,-162.81199645996094 C23.042999267578125,-156.04600524902344 -48.707000732421875,-130.79600524902344 -83.375,-129.06199645996094 C-157.875,-120.1240005493164 -212.75,-139.625 -246.5,-145.5z"/></g></g><g style="display: block;" transform="matrix(0.800000011920929,0,0,0.800000011920929,257.9656066894531,250.03680419921875)" opacity="0.15"><g opacity="1" transform="matrix(1,0,0,1,0,0)"><path fill="rgb(255,255,255)" fill-opacity="1" d=" M-246.875,-146 C-246.83700561523438,-139.70399475097656 -246.875,-138 -246.79200744628906,-132.81100463867188 C-237.5,-136.25 -197.25,-114 -124.49600219726562,-114.31099700927734 C-38.992000579833984,-114.6760025024414 39.233001708984375,-153.25 121.70800018310547,-153.39700317382812 C179.75,-153.5 241,-132.25 240.91200256347656,-131.552001953125 C241,-140.5 241.375,-144.625 241.375,-144.625 C241.375,-144.625 179.75,-166.25 122.5,-166 C39.49700164794922,-165.63800048828125 -39.5,-128 -124.25,-126.81199645996094 C-197.0449981689453,-125.79199981689453 -237.75,-149 -246.875,-146z"/></g></g><g style="display: block;" transform="matrix(0.800000011920929,0,0,0.800000011920929,257.9656066894531,250.03680419921875)" opacity="0.15"><g opacity="1" transform="matrix(1,0,0,1,0,0)"><path fill="rgb(0,0,0)" fill-opacity="1" d=" M122.5,112.25 C34,112.25 -36,149.5 -123.5,152 C-140.61700439453125,152.48899841308594 -155.82000732421875,151.3489990234375 -170.41099548339844,149.1280059814453 C-195.23399353027344,145.35000610351562 -218.28900146484375,138.4459991455078 -246,131.125 C-246.25,134.5 -246,141.375 -246,145.125 C-218.5749969482422,153.30599975585938 -195.61700439453125,159.55499267578125 -170.83099365234375,163.0050048828125 C-155.8520050048828,165.08999633789062 -140.20399475097656,166.15199279785156 -122.5,166 C-35,165.25 33.5,126.625 121.75,126.5 C126.26799774169922,126.49400329589844 131.11399841308594,126.59500122070312 136.27699279785156,126.83899688720703 C163.25900268554688,128.11300659179688 198.88099670410156,133.2550048828125 241.375,147 C241.375,147 241.25,134.75 241.5,131.125 C199.093994140625,118.93299865722656 163.16200256347656,113.84500122070312 136.1439971923828,112.58000183105469 C131.30499267578125,112.35399627685547 126.75299835205078,112.25 122.5,112.25z"/></g></g><g style="display: block;" transform="matrix(0.800000011920929,0,0,0.800000011920929,257.9656066894531,250.03680419921875)" opacity="1"><g opacity="1" transform="matrix(1,0,0,1,0,0)"><path stroke-linecap="round" stroke-linejoin="round" fill-opacity="0" stroke="rgb(47,74,86)" stroke-opacity="1" stroke-width="8" d=" M-246.5,-145.5 C-246.5,-139 -246.5,144.218994140625 -246.5,146.593994140625 C-244.71200561523438,146.76499938964844 -241.55099487304688,147.5780029296875 -237.75900268554688,148.50999450683594 C-220.5,152.75 -191.07200622558594,159.75999450683594 -178.26499938964844,161.58399963378906 C-147.25,166 -127.13200378417969,165.62600708007812 -103.76799774169922,164.74600219726562 C-50.75,162.75 -4.125,146.125 27.19499969482422,139.3300018310547 C47.95800018310547,134.8249969482422 68.79000091552734,130.64500427246094 83.74700164794922,128.94000244140625 C106.25,126.375 122.875,126.75 143.25,128.35899353027344 C183.33700561523438,131.52499389648438 217.79400634765625,139.2030029296875 241.43800354003906,147.031005859375 C241.43800354003906,147.09300231933594 241.406005859375,147.09300231933594 241.406005859375,147.06199645996094 C241.406005859375,147.06199645996094 241.406005859375,147.06199645996094 241.406005859375,147.06199645996094 C241.56199645996094,120.56199645996094 241.23399353027344,82.29100036621094 241.25,49.90599822998047 C241.26600646972656,17.08300018310547 241.43699645996094,-15.739999771118164 241.5,-48.5629997253418 C241.56199645996094,-80.91699981689453 241.5,-128.75 241.625,-145.625 C151.281005859375,-172.5 103.15699768066406,-165.1009979248047 78.5,-162.81199645996094 C23.042999267578125,-156.04600524902344 -48.707000732421875,-130.79600524902344 -83.375,-129.06199645996094 C-157.875,-120.1240005493164 -212.75,-139.625 -246.5,-145.5z"/></g></g></g></svg>