<svg xmlns="http://www.w3.org/2000/svg" xmlns:xlink="http://www.w3.org/1999/xlink" viewBox="0 0 512 512" width="512" height="512" style="width: 100%; height: 100%; transform: translate3d(0,0,0);" preserveAspectRatio="xMidYMid meet"><defs><clipPath id="__lottie_element_16764"><rect width="512" height="512" x="0" y="0"/></clipPath><linearGradient id="__lottie_element_16783" spreadMethod="pad" gradientUnits="userSpaceOnUse" x1="-246" y1="1" x2="243" y2="0"><stop offset="0%" stop-color="rgb(0,0,0)"/><stop offset="25%" stop-color="rgb(0,0,0)"/><stop offset="50%" stop-color="rgb(0,0,0)"/><stop offset="75%" stop-color="rgb(0,0,0)"/><stop offset="100%" stop-color="rgb(0,0,0)"/></linearGradient><mask id="__lottie_element_16785"><path fill="url(#__lottie_element_16784)" d=" M-246.5,-145.5 C-246.5,-139 -246.5,144.218994140625 -246.5,146.593994140625 C-244.71200561523438,146.76499938964844 -241.55099487304688,147.5780029296875 -237.75900268554688,148.50999450683594 C-220.5,152.75 -191.07200622558594,159.75999450683594 -178.26499938964844,161.58399963378906 C-147.25,166 -127.13200378417969,165.62600708007812 -103.76799774169922,164.74600219726562 C-50.75,162.75 -4.125,146.125 27.19499969482422,139.3300018310547 C47.95800018310547,134.8249969482422 68.79000091552734,130.64500427246094 83.74700164794922,128.94000244140625 C106.25,126.375 122.875,126.75 143.25,128.35899353027344 C183.33700561523438,131.52499389648438 217.79400634765625,139.2030029296875 241.43800354003906,147.031005859375 C241.43800354003906,147.09300231933594 241.406005859375,147.09300231933594 241.406005859375,147.06199645996094 C241.406005859375,147.06199645996094 241.406005859375,147.06199645996094 241.406005859375,147.06199645996094 C241.56199645996094,120.56199645996094 241.23399353027344,82.29100036621094 241.25,49.90599822998047 C241.26600646972656,17.08300018310547 241.43699645996094,-15.739999771118164 241.5,-48.5629997253418 C241.56199645996094,-80.91699981689453 241.5,-128.75 241.625,-145.625 C151.281005859375,-172.5 103.15699768066406,-165.1009979248047 78.5,-162.81199645996094 C23.042999267578125,-156.04600524902344 -48.707000732421875,-130.79600524902344 -83.375,-129.06199645996094 C-157.875,-120.1240005493164 -212.75,-139.625 -246.5,-145.5z"/></mask><linearGradient id="__lottie_element_16784" spreadMethod="pad" gradientUnits="userSpaceOnUse" x1="-246" y1="1" x2="243" y2="0"><stop stop-color="rgb(255,255,255)" offset="0%" stop-opacity="1"/><stop stop-color="rgb(255,255,255)" offset="17%" stop-opacity="0.5"/><stop stop-color="rgb(255,255,255)" offset="33%" stop-opacity="0"/><stop stop-color="rgb(255,255,255)" offset="50%" stop-opacity="0"/><stop stop-color="rgb(255,255,255)" offset="66%" stop-opacity="0"/><stop stop-color="rgb(255,255,255)" offset="83%" stop-opacity="0.5"/><stop stop-color="rgb(255,255,255)" offset="100%" stop-opacity="1"/></linearGradient></defs><g clip-path="url(#__lottie_element_16764)"><g style="display: block;" transform="matrix(0.800000011920929,0,0,0.800000011920929,257.9656066894531,250.03680419921875)" opacity="1"><g opacity="1" transform="matrix(1,0,0,1,0,0)"><path fill="rgb(23,23,110)" fill-opacity="1" d=" M-246.5,-145.5 C-246.5,-139 -246.5,144.218994140625 -246.5,146.593994140625 C-244.71200561523438,146.76499938964844 -241.55099487304688,147.5780029296875 -237.75900268554688,148.50999450683594 C-220.5,152.75 -191.07200622558594,159.75999450683594 -178.26499938964844,161.58399963378906 C-147.25,166 -127.13200378417969,165.62600708007812 -103.76799774169922,164.74600219726562 C-50.75,162.75 -4.125,146.125 27.19499969482422,139.3300018310547 C47.95800018310547,134.8249969482422 68.79000091552734,130.64500427246094 83.74700164794922,128.94000244140625 C106.25,126.375 122.875,126.75 143.25,128.35899353027344 C183.33700561523438,131.52499389648438 217.79400634765625,139.2030029296875 241.43800354003906,147.031005859375 C241.43800354003906,147.09300231933594 241.406005859375,147.09300231933594 241.406005859375,147.06199645996094 C241.406005859375,147.06199645996094 241.406005859375,147.06199645996094 241.406005859375,147.06199645996094 C241.56199645996094,120.56199645996094 241.23399353027344,82.29100036621094 241.25,49.90599822998047 C241.26600646972656,17.08300018310547 241.43699645996094,-15.739999771118164 241.5,-48.5629997253418 C241.56199645996094,-80.91699981689453 241.5,-128.75 241.625,-145.625 C151.281005859375,-172.5 103.15699768066406,-165.1009979248047 78.5,-162.81199645996094 C23.042999267578125,-156.04600524902344 -48.707000732421875,-130.79600524902344 -83.375,-129.06199645996094 C-157.875,-120.1240005493164 -212.75,-139.625 -246.5,-145.5z"/></g></g><g style="display: block;" transform="matrix(0.800000011920929,0,0,0.800000011920929,52.80000305175781,44.599205017089844)" opacity="1"><g opacity="1" transform="matrix(1,0,0,1,150.44700622558594,179.6510009765625)"><g opacity="1" transform="matrix(1,0,0,1,0,0)"><path fill="rgb(242,242,242)" fill-opacity="1" d=" M140.93600463867188,45.86000061035156 C105.29399871826172,36.582000732421875 69.26499938964844,28.216999053955078 32.012001037597656,15.069999694824219 C62.02299880981445,-4.513000011444092 96.12899780273438,-29.617000579833984 140.93600463867188,-63.07600021362305 C140.93600463867188,-63.07600021362305 140.93600463867188,-78.86699676513672 140.93600463867188,-78.86699676513672 C130.77000427246094,-76.73699951171875 120.14900207519531,-74.1969985961914 109.09300231933594,-71.24199676513672 C109.06999969482422,-71.21700286865234 109.04399871826172,-71.18399810791016 109.02100372314453,-71.16100311279297 C71.60399627685547,-42.1510009765625 38.112998962402344,-17.724000930786133 0.4099999964237213,2.7730000019073486 C-34.571998596191406,-12.204999923706055 -70.78900146484375,-32.58300018310547 -108.89600372314453,-62.80799865722656 C-118.85600280761719,-64.91300201416016 -129.4409942626953,-67.18399810791016 -140.93600463867188,-69.54399871826172 C-140.93600463867188,-69.54399871826172 -140.93600463867188,-53.53799819946289 -140.93600463867188,-53.53799819946289 C-104.43699645996094,-28.447999954223633 -76.36399841308594,-4.059999942779541 -32.255001068115234,19.003999710083008 C-63.426998138427734,33.069000244140625 -98.40399932861328,44.930999755859375 -140.8509979248047,54.88100051879883 C-140.8769989013672,54.88199996948242 -140.9080047607422,54.87900161743164 -140.93600463867188,54.87900161743164 C-140.93600463867188,54.87900161743164 -140.93600463867188,71.3949966430664 -140.93600463867188,71.3949966430664 C-130.14999389648438,74.24099731445312 -119.88200378417969,76.72100067138672 -110.0739974975586,78.86699676513672 C-67.13200378417969,67.43399810791016 -34.680999755859375,54.505001068115234 0.4490000009536743,34.452999114990234 C29.274999618530273,46.74100112915039 64.56800079345703,58.59199905395508 110.36599731445312,69.89900207519531 C120.17400360107422,67.33499908447266 130.2949981689453,64.68699645996094 140.93600463867188,62.05500030517578 C140.93600463867188,62.05500030517578 140.93600463867188,45.86000061035156 140.93600463867188,45.86000061035156z"/></g></g><g opacity="1" transform="matrix(1,0,0,1,77.375,232.7480010986328)"><path fill="rgb(241,25,25)" fill-opacity="1" d=" M210.98899841308594,-130.16700744628906 C210.98899841308594,-130.16700744628906 192.52200317382812,-127.04199981689453 192.52200317382812,-127.04199981689453 C168.18699645996094,-105.84100341796875 114.43800354003906,-70.52899932861328 75.60299682617188,-39.42599868774414 C11.781999588012695,-54.435001373291016 -42.59400177001953,-107.40399932861328 -65.8949966430664,-121.42900085449219 C-66.65599822998047,-118.96600341796875 -66.65599822998047,-115.02100372314453 -67.23500061035156,-112.50399780273438 C-16.3439998626709,-74.552001953125 14.75,-48.810001373291016 65.4209976196289,-34.63800048828125 C17.093000411987305,0.5649999976158142 -41.944000244140625,11.786999702453613 -67.86399841308594,18.29800033569336 C-61.23400115966797,20.047000885009766 -54.80400085449219,21.6560001373291 -48.551998138427734,23.13599967956543 C-48.52199935913086,23.118000030517578 -48.48699951171875,23.097999572753906 -48.459999084472656,23.082000732421875 C-26.22599983215332,17.80500030517578 30.687000274658203,4.626999855041504 71.93399810791016,-28.81599998474121 C116.46900177001953,-17.24799919128418 191.781005859375,2.752000093460083 213.33999633789062,8.51099967956543 C213.343994140625,8.03600025177002 213.5,-0.8410000205039978 213.3179931640625,-1.909000039100647 C150.68699645996094,-18.965999603271484 117.71900177001953,-26.93600082397461 84.38899993896484,-36.191001892089844 C127.875,-67.24800109863281 176.625,-104.59100341796875 210.98899841308594,-130.16700744628906z"/></g></g><g style="display: block;" transform="matrix(0.800000011920929,0,0,0.800000011920929,52.80000305175781,44.599205017089844)" opacity="1"><g opacity="1" transform="matrix(1,0,0,1,150.44700622558594,198.3560028076172)"><g opacity="1" transform="matrix(1,0,0,1,0,0)"><path fill="rgb(242,242,242)" fill-opacity="1" d=" M24,-25.538000106811523 C24,-25.538000106811523 24,-71.6719970703125 24,-71.6719970703125 C6.656000137329102,-69.4219970703125 -8.670999526977539,-68.65799713134766 -23.233999252319336,-69.03099822998047 C-23.233999252319336,-69.03099822998047 -23.233999252319336,-22.201000213623047 -23.233999252319336,-22.201000213623047 C-56.680999755859375,-22.590999603271484 -90.12899780273438,-29.222999572753906 -140.93600463867188,-42.066001892089844 C-140.93600463867188,-42.066001892089844 -140.93600463867188,4.965000152587891 -140.93600463867188,4.965000152587891 C-90.12799835205078,18.27199935913086 -56.66600036621094,25.172000885009766 -23.233999252319336,25.663000106811523 C-23.233999252319336,25.663000106811523 -23.233999252319336,71.55799865722656 -23.233999252319336,71.55799865722656 C-6.339000225067139,71.99099731445312 9.168000221252441,71.16699981689453 24,69.4469985961914 C24,69.4469985961914 24,22.354999542236328 24,22.354999542236328 C54.4370002746582,17.965999603271484 90.1989974975586,9.244999885559082 140.93600463867188,-3.809999942779541 C140.93600463867188,-3.809999942779541 140.93600463867188,-51.220001220703125 140.93600463867188,-51.220001220703125 C90.1989974975586,-38.43299865722656 54.43000030517578,-29.878000259399414 24,-25.538000106811523z"/></g></g><g opacity="1" transform="matrix(1,0,0,1,150.44700622558594,198.88999938964844)"><g opacity="1" transform="matrix(1,0,0,1,0,0)"><path fill="rgb(241,25,25)" fill-opacity="1" d=" M14.809000015258789,-15.156999588012695 C14.809000015258789,-15.156999588012695 14.809000015258789,-71.13200378417969 14.809000015258789,-71.13200378417969 C4.807000160217285,-70.09600067138672 -4.551000118255615,-69.572998046875 -13.531999588012695,-69.48799896240234 C-13.531999588012695,-69.48799896240234 -13.531999588012695,-12.993000030517578 -13.531999588012695,-12.993000030517578 C-50.361000061035156,-11.958000183105469 -85.4010009765625,-18.368000030517578 -140.93600463867188,-32.89899826049805 C-140.93600463867188,-32.89899826049805 -140.93600463867188,-6.038000106811523 -140.93600463867188,-6.038000106811523 C-85.22200012207031,8.553999900817871 -50.36600112915039,15.439000129699707 -13.531999588012695,14.619999885559082 C-13.531999588012695,14.619999885559082 -13.531999588012695,71.13200378417969 -13.531999588012695,71.13200378417969 C-3.687000036239624,71.10700225830078 5.710999965667725,70.65799713134766 14.809000015258789,69.85399627685547 C14.809000015258789,69.85399627685547 14.809000015258789,12.562999725341797 14.809000015258789,12.562999725341797 C47.270999908447266,8.70300006866455 85.00700378417969,-0.421999990940094 140.93600463867188,-14.812999725341797 C140.93600463867188,-14.812999725341797 140.93600463867188,-41.72100067138672 140.93600463867188,-41.72100067138672 C85.15799713134766,-28.073999404907227 47.415000915527344,-19.09000015258789 14.809000015258789,-15.156999588012695z"/></g></g></g><g style="display: block;" transform="matrix(0.800000011920929,0,0,0.800000011920929,53.00080871582031,44.79920196533203)" opacity="1"><g opacity="1" transform="matrix(1,0,0,1,398.87200927734375,245.74200439453125)"><path stroke-linecap="round" stroke-linejoin="round" fill-opacity="0" stroke="rgb(255,255,255)" stroke-opacity="1" stroke-width="5" d=" M64.21299743652344,-69.37999725341797 C64.21299743652344,-48.316001892089844 64.08499908447266,5.281000137329102 64.08499908447266,31.5310001373291 C61.71099853515625,56.42499923706055 39.06399917602539,75.51300048828125 0,80.49199676513672 C-47.87200164794922,66.3219985961914 -61.78900146484375,43.92499923706055 -63.75199890136719,23.155000686645508 C-64.45600128173828,-3.9089999198913574 -64.21299743652344,-55.8489990234375 -64.21299743652344,-77.80599975585938 C-43.02199935913086,-82.01899719238281 7.659999847412109,-82.65699768066406 64.21299743652344,-69.37999725341797z"/></g><g opacity="1" transform="matrix(1,0,0,1,398.87200927734375,245.74200439453125)"><path fill="rgb(0,162,189)" fill-opacity="1" d=" M64.21299743652344,-69.37999725341797 C64.21299743652344,-48.316001892089844 64.08499908447266,5.281000137329102 64.08499908447266,31.5310001373291 C61.71099853515625,56.42499923706055 -61.78900146484375,43.92499923706055 -63.75199890136719,23.155000686645508 C-64.45600128173828,-3.9089999198913574 -64.21299743652344,-55.8489990234375 -64.21299743652344,-77.80599975585938 C-43.02199935913086,-82.01899719238281 7.659999847412109,-82.65699768066406 64.21299743652344,-69.37999725341797z"/></g><g opacity="1" transform="matrix(1,0,0,1,398.97601318359375,296.5480041503906)"><g opacity="1" transform="matrix(1,0,0,1,0,0)"><path fill="rgb(165,61,8)" fill-opacity="1" d=" M-63.98099899291992,-27.437999725341797 C-61.970001220703125,-5.165999889373779 -44.61899948120117,16.510000228881836 -0.10400000214576721,29.68600082397461 C38.959999084472656,24.707000732421875 62.27799987792969,4.5970001220703125 64.06500244140625,-19.274999618530273 C32.77399826049805,-25.881000518798828 -4.22599983215332,-34.7140007019043 -63.98099899291992,-27.437999725341797z"/></g></g><g opacity="1" transform="matrix(1,0,0,1,398.87200927734375,245.74200439453125)"><path stroke-linecap="round" stroke-linejoin="round" fill-opacity="0" stroke="rgb(0,0,0)" stroke-opacity="1" stroke-width="1" d=" M64.21299743652344,-69.37999725341797 C64.21299743652344,-48.316001892089844 64.08499908447266,5.281000137329102 64.08499908447266,31.5310001373291 C61.71099853515625,56.42499923706055 39.06399917602539,75.51300048828125 0,80.49199676513672 C-47.87200164794922,66.3219985961914 -61.78900146484375,43.92499923706055 -63.75199890136719,23.155000686645508 C-64.45600128173828,-3.9089999198913574 -64.21299743652344,-55.8489990234375 -64.21299743652344,-77.80599975585938 C-43.02199935913086,-82.01899719238281 7.659999847412109,-82.65699768066406 64.21299743652344,-69.37999725341797z"/></g></g><g style="display: block;" transform="matrix(0.800000011920929,0,0,0.800000011920929,53.00080871582031,44.39920425415039)" opacity="1"><g opacity="1" transform="matrix(1,0,0,1,398.7650146484375,234.64300537109375)"><path fill="rgb(0,0,0)" fill-opacity="1" d=" M29.34000015258789,-48.5369987487793 C22.447999954223633,-49.98400115966797 4.603000164031982,-51.643001556396484 4.603000164031982,-51.643001556396484 C4.603000164031982,-51.643001556396484 4.603000164031982,-62.749000549316406 4.603000164031982,-62.749000549316406 C4.603000164031982,-62.749000549316406 -4.814000129699707,-63.51499938964844 -4.814000129699707,-63.51499938964844 C-4.814000129699707,-63.51499938964844 -4.814000129699707,-52.06800079345703 -4.814000129699707,-52.06800079345703 C-4.814000129699707,-52.06800079345703 -29.34000015258789,-53.09000015258789 -29.34000015258789,-53.09000015258789 C-29.34000015258789,-53.09000015258789 -29.34000015258789,-45.599998474121094 -29.34000015258789,-43.599998474121094 C-20.70199966430664,-43.77000045776367 -4.814000129699707,-43.09000015258789 -4.814000129699707,-43.09000015258789 C-4.814000129699707,-43.09000015258789 -4.814000129699707,63.51499938964844 -4.814000129699707,63.51499938964844 C-4.814000129699707,63.51499938964844 4.603000164031982,63.51499938964844 4.603000164031982,63.51499938964844 C4.603000164031982,63.51499938964844 4.603000164031982,-42.57899856567383 4.603000164031982,-42.57899856567383 C4.603000164031982,-42.57899856567383 23.937999725341797,-40.15399932861328 29.34000015258789,-39.38800048828125 C29.34000015258789,-41.303001403808594 29.34000015258789,-46.87699890136719 29.34000015258789,-48.5369987487793z"/></g><g opacity="1" transform="matrix(1,0,0,1,385.85400390625,273.1789855957031)"><g opacity="1" transform="matrix(1,0,0,1,0,0)"><path fill="rgb(255,154,8)" fill-opacity="1" d=" M1.8530000448226929,-30.84000015258789 C-3.802000045776367,-32.2859992980957 -0.5559999942779541,-20.983999252319336 -10.045000076293945,-15.45199966430664 C-24.343000411987305,-9.878000259399414 -23.6200008392334,0.03799999877810478 -14.810999870300293,-0.8560000061988831 C-6.414999961853027,9.232999801635742 4.480999946594238,22.448999404907227 13.911999702453613,30.632999420166016 C29.386999130249023,21.954999923706055 17.586000442504883,-26.819000244140625 1.8530000448226929,-30.84000015258789z M11.487000465393066,21.569000244140625 C4.714000225067139,15.289999961853027 -5.861999988555908,4.581999778747559 -11.57699966430664,-2.4730000495910645 C-9.178000450134277,-3.884000062942505 -12.428000450134277,-10.260000228881836 -15.960000038146973,-6.388000011444092 C-21.6200008392334,-10.218000411987305 0.29600000381469727,-10.303000450134277 3.0190000534057617,-25.323999404907227 C13.741999626159668,-20.047000885009766 19.600000381469727,15.218999862670898 11.487000465393066,21.569000244140625z"/></g></g><g opacity="1" transform="matrix(1,0,0,1,412.6910095214844,200.8780059814453)"><path fill="rgb(255,225,207)" fill-opacity="1" d=" M-3.382999897003174,-0.6759999990463257 C-2.3010001182556152,2.569000005722046 -6.316999912261963,9.418999671936035 -6.2230000495910645,12.255000114440918 C-3.5959999561309814,14.656000137329102 6.015999794006348,9.265999794006348 7.340000152587891,5.9629998207092285 C3.1589999198913574,1.909999966621399 2.7200000286102295,-0.34299999475479126 3.0959999561309814,-2.2709999084472656 C1.7339999675750732,-4.946000099182129 3.319000005722046,-12.484000205993652 -3.11899995803833,-12.734000205993652 C-6.318999767303467,-13.664999961853027 -4.435999870300293,-8.845999717712402 -7.340000152587891,-7.60099983215332 C-5.881999969482422,-4.214000225067139 -9.128000259399414,-0.5799999833106995 -3.382999897003174,-0.6759999990463257z"/></g><g opacity="1" transform="matrix(1,0,0,1,421.09698486328125,306.81500244140625)"><path fill="rgb(255,225,207)" fill-opacity="1" d=" M1.6050000190734863,-7.867000102996826 C3.509000062942505,-7.908999919891357 3.5480000972747803,-2.492000102996826 4.238999843597412,-0.7170000076293945 C5.381999969482422,2.2179999351501465 3.746999979019165,6.630000114440918 -0.6520000100135803,7.607999801635742 C-8.277000427246094,9.303000450134277 -2.749000072479248,2.2939999103546143 -1.25600004196167,-1.9950000047683716 C0.13199999928474426,-5.980999946594238 -6.834000110626221,-7.678999900817871 1.6050000190734863,-7.867000102996826z"/></g><g opacity="1" transform="matrix(1,0,0,1,391.3340148925781,199.03900146484375)"><path fill="rgb(255,225,207)" fill-opacity="1" d=" M2.618000030517578,14.559000015258789 C2.618000030517578,14.559000015258789 2.618000030517578,7.997000217437744 2.618000030517578,7.997000217437744 C2.618000030517578,7.997000217437744 1.3279999494552612,8.35099983215332 -0.007000000216066837,8.72700023651123 C-0.26499998569488525,6.234000205993652 0.45500001311302185,4.656000137329102 0.9470000267028809,-7.103000164031982 C16.014999389648438,-18.145999908447266 -3.059000015258789,-15.847999572753906 -2.0420000553131104,-7.453999996185303 C-7.265999794006348,5.9039998054504395 -6.751999855041504,10.442999839782715 -6.751999855041504,13.994000434875488 C-3.191999912261963,14.770000457763672 2.618000030517578,14.559000015258789 2.618000030517578,14.559000015258789z"/></g><g opacity="1" transform="matrix(1,0,0,1,414.2770080566406,255.13699340820312)"><path fill="rgb(0,128,33)" fill-opacity="1" d=" M16,51.69300079345703 C7.107999801635742,30.50200080871582 14.234999656677246,17.7189998626709 12.76099967956543,5.160999774932861 C12.008999824523926,-1.2480000257492065 8.505999565124512,-13.604999542236328 4.432000160217285,-19.488000869750977 C9.83899974822998,-19.030000686645508 14.925000190734863,-47.73899841308594 3.552000045776367,-50.91400146484375 C1.2350000143051147,-46.750999450683594 -3.0220000743865967,-46.0620002746582 -4.927000045776367,-45.42399978637695 C-6.2789998054504395,-46.0989990234375 -5.309999942779541,-49.99300003051758 -4.959000110626221,-51.61600112915039 C-6.123000144958496,-52.483001708984375 -9.531999588012695,-51.2859992980957 -10.871999740600586,-50.435001373291016 C-10.871999740600586,-32.9379997253418 -10.871999740600586,6.686999797821045 -10.871999740600586,25.10099983215332 C-10.871999740600586,31.711000442504883 -15.298999786376953,41.69599914550781 -15.914999961853027,45.564998626708984 C-17.319000244140625,54.38399887084961 -1.0679999589920044,53.52299880981445 7.426000118255615,46.04399871826172 C9.36299991607666,47.70399856567383 14.342000007629395,52.60200119018555 16,51.69300079345703z"/></g><g opacity="1" transform="matrix(1,0,0,1,415.7969970703125,193.5229949951172)"><path fill="rgb(120,13,0)" fill-opacity="1" d=" M0.05400000140070915,-6.406000137329102 C-1.8250000476837158,-7.309999942779541 -8.645999908447266,-8.279999732971191 -7.573999881744385,-5.544000148773193 C-7.210999965667725,-4.618000030517578 -3.555999994277954,-3.885999917984009 -3.009999990463257,-3.055000066757202 C-0.44699999690055847,0.8489999771118164 -3.5339999198913574,2.7309999465942383 -2.371999979019165,4.1579999923706055 C-0.7919999957084656,6.098999977111816 5.894000053405762,8.593999862670898 7.426000118255615,6.614999771118164 C8.958000183105469,4.636000156402588 3.4019999504089355,-4.795000076293945 0.05400000140070915,-6.406000137329102z"/></g><g opacity="1" transform="matrix(1,0,0,1,403.1919860839844,230.13800048828125)"><path fill="rgb(255,225,207)" fill-opacity="1" d=" M-16.224000930786133,7.658999919891357 C-22.079999923706055,15.54800033569336 -15.458000183105469,23.808000564575195 -9.680999755859375,8.904000282287598 C-4.064000129699707,5.935999870300293 4.64900016784668,7.531000137329102 13.871999740600586,1.690999984741211 C24.020999908447266,-14.265999794006348 15.531000137329102,-28.884000778198242 7.041999816894531,-3.2239999771118164 C-3.2980000972747803,-1.9149999618530273 -6.698999881744385,3.990000009536743 -16.224000930786133,7.658999919891357z"/></g></g><g style="display: block;" transform="matrix(0.800000011920929,0,0,0.800000011920929,257.9656066894531,250.03680419921875)" opacity="0.35000000000000003"><g opacity="1" transform="matrix(1,0,0,1,0,0)"><path fill="url(#__lottie_element_16783)" mask="url(#__lottie_element_16785)" fill-opacity="1" d="M0 0 M-246.5,-145.5 C-246.5,-139 -246.5,144.218994140625 -246.5,146.593994140625 C-244.71200561523438,146.76499938964844 -241.55099487304688,147.5780029296875 -237.75900268554688,148.50999450683594 C-220.5,152.75 -191.07200622558594,159.75999450683594 -178.26499938964844,161.58399963378906 C-147.25,166 -127.13200378417969,165.62600708007812 -103.76799774169922,164.74600219726562 C-50.75,162.75 -4.125,146.125 27.19499969482422,139.3300018310547 C47.95800018310547,134.8249969482422 68.79000091552734,130.64500427246094 83.74700164794922,128.94000244140625 C106.25,126.375 122.875,126.75 143.25,128.35899353027344 C183.33700561523438,131.52499389648438 217.79400634765625,139.2030029296875 241.43800354003906,147.031005859375 C241.43800354003906,147.09300231933594 241.406005859375,147.09300231933594 241.406005859375,147.06199645996094 C241.406005859375,147.06199645996094 241.406005859375,147.06199645996094 241.406005859375,147.06199645996094 C241.56199645996094,120.56199645996094 241.23399353027344,82.29100036621094 241.25,49.90599822998047 C241.26600646972656,17.08300018310547 241.43699645996094,-15.739999771118164 241.5,-48.5629997253418 C241.56199645996094,-80.91699981689453 241.5,-128.75 241.625,-145.625 C151.281005859375,-172.5 103.15699768066406,-165.1009979248047 78.5,-162.81199645996094 C23.042999267578125,-156.04600524902344 -48.707000732421875,-130.79600524902344 -83.375,-129.06199645996094 C-157.875,-120.1240005493164 -212.75,-139.625 -246.5,-145.5z"/></g></g><g style="display: block;" transform="matrix(0.800000011920929,0,0,0.800000011920929,257.9656066894531,250.03680419921875)" opacity="0.15"><g opacity="1" transform="matrix(1,0,0,1,0,0)"><path fill="rgb(255,255,255)" fill-opacity="1" d=" M-246.875,-146 C-246.83700561523438,-139.70399475097656 -246.875,-138 -246.79200744628906,-132.81100463867188 C-237.5,-136.25 -197.25,-114 -124.49600219726562,-114.31099700927734 C-38.992000579833984,-114.6760025024414 39.233001708984375,-153.25 121.70800018310547,-153.39700317382812 C179.75,-153.5 241,-132.25 240.91200256347656,-131.552001953125 C241,-140.5 241.375,-144.625 241.375,-144.625 C241.375,-144.625 179.75,-166.25 122.5,-166 C39.49700164794922,-165.63800048828125 -39.5,-128 -124.25,-126.81199645996094 C-197.0449981689453,-125.79199981689453 -237.75,-149 -246.875,-146z"/></g></g><g style="display: block;" transform="matrix(0.800000011920929,0,0,0.800000011920929,257.9656066894531,250.03680419921875)" opacity="0.15"><g opacity="1" transform="matrix(1,0,0,1,0,0)"><path fill="rgb(0,0,0)" fill-opacity="1" d=" M122.5,112.25 C34,112.25 -36,149.5 -123.5,152 C-140.61700439453125,152.48899841308594 -155.82000732421875,151.3489990234375 -170.41099548339844,149.1280059814453 C-195.23399353027344,145.35000610351562 -218.28900146484375,138.4459991455078 -246,131.125 C-246.25,134.5 -246,141.375 -246,145.125 C-218.5749969482422,153.30599975585938 -195.61700439453125,159.55499267578125 -170.83099365234375,163.0050048828125 C-155.8520050048828,165.08999633789062 -140.20399475097656,166.15199279785156 -122.5,166 C-35,165.25 33.5,126.625 121.75,126.5 C126.26799774169922,126.49400329589844 131.11399841308594,126.59500122070312 136.27699279785156,126.83899688720703 C163.25900268554688,128.11300659179688 198.88099670410156,133.2550048828125 241.375,147 C241.375,147 241.25,134.75 241.5,131.125 C199.093994140625,118.93299865722656 163.16200256347656,113.84500122070312 136.1439971923828,112.58000183105469 C131.30499267578125,112.35399627685547 126.75299835205078,112.25 122.5,112.25z"/></g></g><g style="display: block;" transform="matrix(0.800000011920929,0,0,0.800000011920929,257.9656066894531,250.03680419921875)" opacity="1"><g opacity="1" transform="matrix(1,0,0,1,0,0)"><path stroke-linecap="round" stroke-linejoin="round" fill-opacity="0" stroke="rgb(9,9,47)" stroke-opacity="1" stroke-width="8" d=" M-246.5,-145.5 C-246.5,-139 -246.5,144.218994140625 -246.5,146.593994140625 C-244.71200561523438,146.76499938964844 -241.55099487304688,147.5780029296875 -237.75900268554688,148.50999450683594 C-220.5,152.75 -191.07200622558594,159.75999450683594 -178.26499938964844,161.58399963378906 C-147.25,166 -127.13200378417969,165.62600708007812 -103.76799774169922,164.74600219726562 C-50.75,162.75 -4.125,146.125 27.19499969482422,139.3300018310547 C47.95800018310547,134.8249969482422 68.79000091552734,130.64500427246094 83.74700164794922,128.94000244140625 C106.25,126.375 122.875,126.75 143.25,128.35899353027344 C183.33700561523438,131.52499389648438 217.79400634765625,139.2030029296875 241.43800354003906,147.031005859375 C241.43800354003906,147.09300231933594 241.406005859375,147.09300231933594 241.406005859375,147.06199645996094 C241.406005859375,147.06199645996094 241.406005859375,147.06199645996094 241.406005859375,147.06199645996094 C241.56199645996094,120.56199645996094 241.23399353027344,82.29100036621094 241.25,49.90599822998047 C241.26600646972656,17.08300018310547 241.43699645996094,-15.739999771118164 241.5,-48.5629997253418 C241.56199645996094,-80.91699981689453 241.5,-128.75 241.625,-145.625 C151.281005859375,-172.5 103.15699768066406,-165.1009979248047 78.5,-162.81199645996094 C23.042999267578125,-156.04600524902344 -48.707000732421875,-130.79600524902344 -83.375,-129.06199645996094 C-157.875,-120.1240005493164 -212.75,-139.625 -246.5,-145.5z"/></g></g></g></svg>