<svg xmlns="http://www.w3.org/2000/svg" xmlns:xlink="http://www.w3.org/1999/xlink" viewBox="0 0 512 512" width="512" height="512" style="width: 100%; height: 100%; transform: translate3d(0,0,0);" preserveAspectRatio="xMidYMid meet"><defs><clipPath id="__lottie_element_25101"><rect width="512" height="512" x="0" y="0"/></clipPath><radialGradient id="__lottie_element_25145" spreadMethod="pad" gradientUnits="userSpaceOnUse" cx="-4.764999866485596" cy="-46.29899978637695" r="130.05000352859497" fx="-4.764999866485596" fy="-46.29899978637695"><stop offset="0%" stop-color="rgb(255,255,255)"/><stop offset="82%" stop-color="rgb(233,236,239)"/><stop offset="100%" stop-color="rgb(211,218,224)"/></radialGradient><radialGradient id="__lottie_element_25146" spreadMethod="pad" gradientUnits="userSpaceOnUse" cx="1.2339999675750732" cy="4.289000034332275" r="232.16500210762024" fx="1.2339999675750732" fy="4.289000034332275"><stop offset="0%" stop-color="rgb(255,255,255)"/><stop offset="82%" stop-color="rgb(233,236,239)"/><stop offset="100%" stop-color="rgb(211,218,224)"/></radialGradient><linearGradient id="__lottie_element_25147" spreadMethod="pad" gradientUnits="userSpaceOnUse" x1="0.23399999737739563" y1="-126.67400360107422" x2="0.23399999737739563" y2="135.3260040283203"><stop offset="0%" stop-color="rgb(255,255,255)"/><stop offset="56%" stop-color="rgb(233,236,239)"/><stop offset="90%" stop-color="rgb(211,218,224)"/></linearGradient><linearGradient id="__lottie_element_25148" spreadMethod="pad" gradientUnits="userSpaceOnUse" x1="6.203000068664551" y1="120.01000213623047" x2="6.686999797821045" y2="62.659000396728516"><stop offset="0%" stop-color="rgb(255,207,0)"/><stop offset="50%" stop-color="rgb(255,231,128)"/><stop offset="100%" stop-color="rgb(255,255,255)"/></linearGradient><mask id="__lottie_element_25150"><path fill="url(#__lottie_element_25149)" d=" M119.06199645996094,95.71299743652344 C119.06199645996094,95.71299743652344 -117.14700317382812,95.71299743652344 -117.14700317382812,95.71299743652344 C-150.2969970703125,95.71299743652344 -206.7169952392578,72.68299865722656 -213.5070037841797,11.432999610900879 C-220.53700256347656,-52.05699920654297 -170.31700134277344,-81.66699981689453 -142.85699462890625,-84.74700164794922 C-142.85699462890625,-84.74700164794922 -142.8769989013672,-85.14700317382812 -142.86700439453125,-85.88700103759766 C-142.86700439453125,-85.88700103759766 -140.52699279785156,-85.63700103759766 -140.52699279785156,-85.63700103759766 C-140.52699279785156,-85.63700103759766 -83.15699768066406,-94.927001953125 -39.89699935913086,-56.49700164794922 C-39.89699935913086,-56.49700164794922 -10.79699993133545,-77.10700225830078 26.982999801635742,-56.46699905395508 C26.982999801635742,-56.46699905395508 71.6719970703125,-107.21700286865234 130.82200622558594,-93.2969970703125 C130.89199829101562,-93.28700256347656 130.95199584960938,-93.2770004272461 131.02200317382812,-93.25700378417969 C131.02200317382812,-93.25700378417969 134.91299438476562,-94.47699737548828 134.91299438476562,-94.47699737548828 C134.9429931640625,-93.80699920654297 134.96299743652344,-93.12699890136719 134.97300720214844,-92.45700073242188 C134.97300720214844,-92.45700073242188 134.31199645996094,-92.53700256347656 134.31199645996094,-92.53700256347656 C174.7519989013672,-83.06700134277344 209.11300659179688,-50.91600036621094 213.6230010986328,-9.696000099182129 C219.76300048828125,46.55400085449219 173.82200622558594,95.71299743652344 119.06199645996094,95.71299743652344z"/></mask><linearGradient id="__lottie_element_25149" spreadMethod="pad" gradientUnits="userSpaceOnUse" x1="6.203000068664551" y1="120.01000213623047" x2="6.686999797821045" y2="62.659000396728516"><stop stop-color="rgb(255,255,255)" offset="0%" stop-opacity="1"/><stop stop-color="rgb(255,255,255)" offset="68%" stop-opacity="0.5"/><stop stop-color="rgb(255,255,255)" offset="100%" stop-opacity="0"/></linearGradient><radialGradient id="__lottie_element_25156" spreadMethod="pad" gradientUnits="userSpaceOnUse"><stop/><stop/><stop/></radialGradient><clipPath id="__lottie_element_25166"><path d="M0,0 L512,0 L512,512 L0,512z"/></clipPath><clipPath id="__lottie_element_25171"><path d="M0,0 L512,0 L512,512 L0,512z"/></clipPath><linearGradient id="__lottie_element_25196" spreadMethod="pad" gradientUnits="userSpaceOnUse"><stop/><stop/><stop/><stop/><stop/></linearGradient><clipPath id="__lottie_element_25206"><path d="M0,0 L512,0 L512,512 L0,512z"/></clipPath><linearGradient id="__lottie_element_25231" spreadMethod="pad" gradientUnits="userSpaceOnUse"><stop/><stop/><stop/><stop/><stop/></linearGradient><clipPath id="__lottie_element_25241"><path d="M0,0 L512,0 L512,512 L0,512z"/></clipPath><clipPath id="__lottie_element_25246"><path d="M0,0 L512,0 L512,512 L0,512z"/></clipPath><linearGradient id="__lottie_element_25271" spreadMethod="pad" gradientUnits="userSpaceOnUse" x1="-154.39199829101562" y1="3.8980000019073486" x2="157.43499755859375" y2="3.8980000019073486"><stop offset="0%" stop-color="rgb(255,153,0)"/><stop offset="34%" stop-color="rgb(255,182,1)"/><stop offset="50%" stop-color="rgb(255,211,2)"/><stop offset="78%" stop-color="rgb(255,178,2)"/><stop offset="100%" stop-color="rgb(255,145,2)"/></linearGradient><clipPath id="__lottie_element_25281"><path d="M0,0 L512,0 L512,512 L0,512z"/></clipPath><linearGradient id="__lottie_element_25306" spreadMethod="pad" gradientUnits="userSpaceOnUse"><stop/><stop/><stop/><stop/><stop/></linearGradient></defs><g clip-path="url(#__lottie_element_25101)"><g clip-path="url(#__lottie_element_25241)" style="display: block;" transform="matrix(0.44999998807907104,0,0,0.44999998807907104,144.8000030517578,253.8000030517578)" opacity="1"><g clip-path="url(#__lottie_element_25246)" style="display: block;" transform="matrix(0.9399999976158142,0,0,0.9399999976158142,15.360000610351562,11.360000610351562)" opacity="1"><g style="display: block;" transform="matrix(1,0,0,1,256.0007019042969,255.99993896484375)" opacity="1"><g opacity="1" transform="matrix(1,0,0,1,0,0)"><path fill="url(#__lottie_element_25271)" fill-opacity="1" d=" M89.46205139160156,-216.34486389160156 C89.46205139160156,-216.34486389160156 -147.6864013671875,21.886154174804688 -147.6864013671875,21.886154174804688 C-147.6864013671875,21.886154174804688 0.8019999861717224,20.695999145507812 0.8019999861717224,20.695999145507812 C0.8019999861717224,20.695999145507812 -129.79600524902344,222.55599975585938 -129.79600524902344,222.55599975585938 C-129.79600524902344,222.55599975585938 155.49888610839844,-42.1953010559082 155.49888610839844,-42.1953010559082 C155.49888610839844,-42.1953010559082 3.1160688400268555,-39.26897430419922 3.1160688400268555,-39.26897430419922 C3.1160688400268555,-39.26897430419922 89.46205139160156,-216.34486389160156 89.46205139160156,-216.34486389160156z"/><path stroke-linecap="round" stroke-linejoin="round" fill-opacity="0" stroke="rgb(247,140,0)" stroke-opacity="1" stroke-width="18" d=" M89.46205139160156,-216.34486389160156 C89.46205139160156,-216.34486389160156 -147.6864013671875,21.886154174804688 -147.6864013671875,21.886154174804688 C-147.6864013671875,21.886154174804688 0.8019999861717224,20.695999145507812 0.8019999861717224,20.695999145507812 C0.8019999861717224,20.695999145507812 -129.79600524902344,222.55599975585938 -129.79600524902344,222.55599975585938 C-129.79600524902344,222.55599975585938 155.49888610839844,-42.1953010559082 155.49888610839844,-42.1953010559082 C155.49888610839844,-42.1953010559082 3.1160688400268555,-39.26897430419922 3.1160688400268555,-39.26897430419922 C3.1160688400268555,-39.26897430419922 89.46205139160156,-216.34486389160156 89.46205139160156,-216.34486389160156z"/></g></g><g style="display: block;" transform="matrix(1,0,0,1,256.0007019042969,255.99993896484375)" opacity="1"><g opacity="1" transform="matrix(1,0,0,1,0,0)"><path fill="rgb(255,255,217)" fill-opacity="1" d=" M34.73008346557617,-140.34109497070312 C34.73008346557617,-140.34109497070312 -95.05634307861328,2.329425573348999 -95.05634307861328,2.329425573348999 C-95.05634307861328,2.329425573348999 39.950843811035156,1.5877383947372437 39.950843811035156,1.5877383947372437 C39.950843811035156,1.5877383947372437 -50.5112190246582,127.78284454345703 -50.5112190246582,127.78284454345703 C-50.5112190246582,127.78284454345703 99.89198303222656,-21.728801727294922 99.89198303222656,-21.728801727294922 C99.89198303222656,-21.728801727294922 -33.6009635925293,-20.086265563964844 -33.6009635925293,-20.086265563964844 C-33.6009635925293,-20.086265563964844 34.73008346557617,-140.34109497070312 34.73008346557617,-140.34109497070312z"/><path stroke-linecap="butt" stroke-linejoin="miter" fill-opacity="0" stroke-miterlimit="4" stroke="rgb(254,248,40)" stroke-opacity="1" stroke-width="7" d=" M34.73008346557617,-140.34109497070312 C34.73008346557617,-140.34109497070312 -95.05634307861328,2.329425573348999 -95.05634307861328,2.329425573348999 C-95.05634307861328,2.329425573348999 39.950843811035156,1.5877383947372437 39.950843811035156,1.5877383947372437 C39.950843811035156,1.5877383947372437 -50.5112190246582,127.78284454345703 -50.5112190246582,127.78284454345703 C-50.5112190246582,127.78284454345703 99.89198303222656,-21.728801727294922 99.89198303222656,-21.728801727294922 C99.89198303222656,-21.728801727294922 -33.6009635925293,-20.086265563964844 -33.6009635925293,-20.086265563964844 C-33.6009635925293,-20.086265563964844 34.73008346557617,-140.34109497070312 34.73008346557617,-140.34109497070312z"/></g></g><g style="display: block;" transform="matrix(1,0,0,1,256.0007019042969,255.99993896484375)" opacity="1"><g opacity="1" transform="matrix(1,0,0,1,0,0)"><path stroke-linecap="round" stroke-linejoin="round" fill-opacity="0" stroke="rgb(239,124,0)" stroke-opacity="1" stroke-width="18" d=" M-147.6864013671875,21.886154174804688 C-147.6864013671875,21.886154174804688 0.8019999861717224,20.695999145507812 0.8019999861717224,20.695999145507812 C0.8019999861717224,20.695999145507812 -129.79600524902344,222.55599975585938 -129.79600524902344,222.55599975585938 C-129.79600524902344,222.55599975585938 155.49888610839844,-42.1953010559082 155.49888610839844,-42.1953010559082"/></g></g></g></g><g style="display: block;" transform="matrix(1,0,0,1,0,-0.0000152587890625)" opacity="1"><g opacity="1" transform="matrix(1,0,0,1,0,0)"/><g opacity="1" transform="matrix(1,0,0,1,253.03700256347656,187.72799682617188)"><path fill="url(#__lottie_element_25145)" fill-opacity="1" d=" M109.88899993896484,-48.659000396728516 C160.06300354003906,-48.659000396728516 208.22799682617188,-12.3149995803833 213.6199951171875,37.03099822998047 C219.76600646972656,93.2750015258789 173.81900024414062,142.44500732421875 119.06800079345703,142.44500732421875 C64.31700134277344,142.44500732421875 -93.49400329589844,142.44500732421875 -117.1510009765625,142.44500732421875 C-150.30099487304688,142.44500732421875 -206.718994140625,119.41000366210938 -213.5050048828125,58.15700149536133 C-220.53799438476562,-5.330999851226807 -170.3159942626953,-34.939998626708984 -142.86099243164062,-38.01499938964844 C-142.86099243164062,-38.01499938964844 -144.49899291992188,-74.39199829101562 -113.0770034790039,-93.64199829101562 C-85.53600311279297,-110.51399993896484 -55.696998596191406,-101.08799743652344 -55.696998596191406,-101.08799743652344 C-55.696998596191406,-101.08799743652344 -25.142000198364258,-146.10299682617188 39.58100128173828,-142.20599365234375 C95.37999725341797,-138.8459930419922 134.375,-89.88800048828125 134.97500610351562,-45.731998443603516 C134.97500610351562,-45.731998443603516 109.88899993896484,-48.659000396728516 109.88899993896484,-48.659000396728516z"/></g><g opacity="1" transform="matrix(1,0,0,1,253.03799438476562,234.4550018310547)"><path fill="url(#__lottie_element_25146)" fill-opacity="1" d=" M119.06199645996094,95.71299743652344 C119.06199645996094,95.71299743652344 -117.14700317382812,95.71299743652344 -117.14700317382812,95.71299743652344 C-150.2969970703125,95.71299743652344 -206.7169952392578,72.68299865722656 -213.5070037841797,11.432999610900879 C-220.53700256347656,-52.05699920654297 -170.31700134277344,-81.66699981689453 -142.85699462890625,-84.74700164794922 C-142.85699462890625,-84.74700164794922 -142.8769989013672,-85.14700317382812 -142.86700439453125,-85.88700103759766 C-142.86700439453125,-85.88700103759766 -140.52699279785156,-85.63700103759766 -140.52699279785156,-85.63700103759766 C-140.52699279785156,-85.63700103759766 -83.15699768066406,-94.927001953125 -39.89699935913086,-56.49700164794922 C-39.89699935913086,-56.49700164794922 -10.79699993133545,-77.10700225830078 26.982999801635742,-56.46699905395508 C26.982999801635742,-56.46699905395508 71.6719970703125,-107.21700286865234 130.82200622558594,-93.2969970703125 C130.89199829101562,-93.28700256347656 130.95199584960938,-93.2770004272461 131.02200317382812,-93.25700378417969 C131.02200317382812,-93.25700378417969 134.91299438476562,-94.47699737548828 134.91299438476562,-94.47699737548828 C134.9429931640625,-93.80699920654297 134.96299743652344,-93.12699890136719 134.97300720214844,-92.45700073242188 C134.97300720214844,-92.45700073242188 134.31199645996094,-92.53700256347656 134.31199645996094,-92.53700256347656 C174.7519989013672,-83.06700134277344 209.11300659179688,-50.91600036621094 213.6230010986328,-9.696000099182129 C219.76300048828125,46.55400085449219 173.82200622558594,95.71299743652344 119.06199645996094,95.71299743652344z"/></g><g opacity="0.7000000000000001" transform="matrix(1,0,0,1,253.03799438476562,187.7239990234375)"><path fill="url(#__lottie_element_25147)" fill-opacity="1" d=" M119.06199645996094,142.44400024414062 C119.06199645996094,142.44400024414062 -117.14700317382812,142.44400024414062 -117.14700317382812,142.44400024414062 C-150.2969970703125,142.44400024414062 -206.7169952392578,119.41400146484375 -213.5070037841797,58.16400146484375 C-220.53700256347656,-5.326000213623047 -170.31700134277344,-34.93600082397461 -142.85699462890625,-38.01599884033203 C-142.85699462890625,-38.01599884033203 -144.4969940185547,-74.38600158691406 -113.0770034790039,-93.63600158691406 C-85.53700256347656,-110.50599670410156 -55.698001861572266,-101.08599853515625 -55.698001861572266,-101.08599853515625 C-55.698001861572266,-101.08599853515625 -25.148000717163086,-146.0959930419922 39.582000732421875,-142.20599365234375 C95.38200378417969,-138.8459930419922 134.3730010986328,-89.88600158691406 134.97300720214844,-45.72600173950195 C134.97300720214844,-45.72600173950195 124.22200012207031,-48.79600143432617 119.08200073242188,-49.24599838256836 C115.802001953125,-83.84600067138672 85.21199798583984,-124.58100128173828 38.00199890136719,-127.01599884033203 C-14.913000106811523,-129.7449951171875 -40.54100036621094,-92.32599639892578 -40.54100036621094,-92.32599639892578 C-40.54100036621094,-92.32599639892578 -74.55899810791016,-100.45999908447266 -99.98799896240234,-85.51599884033203 C-127.48500061035156,-69.35700225830078 -124.3270034790039,-37.2760009765625 -124.3270034790039,-37.2760009765625 C-151.4770050048828,-34.20899963378906 -198.01800537109375,-7.696000099182129 -191.79800415039062,43.933998107910156 C-185.79800415039062,93.74400329589844 -132.90699768066406,112.48400115966797 -103.59700012207031,112.48400115966797 C-103.59700012207031,112.48400115966797 105.29199981689453,112.48400115966797 105.29199981689453,112.48400115966797 C153.70199584960938,112.48400115966797 197.33299255371094,72.49400329589844 191.9029998779297,26.753999710083008 C187.91299438476562,-6.776000022888184 152.0989990234375,-37.500999450683594 116.31900024414062,-45.191001892089844 C116.31900024414062,-45.191001892089844 116.31900024414062,-45.191001892089844 116.31900024414062,-45.191001892089844 C116.29900360107422,-46.520999908447266 116.26300048828125,-47.22600173950195 116.14299774169922,-48.57600021362305 C116.14299774169922,-48.57600021362305 134.31199645996094,-45.805999755859375 134.31199645996094,-45.805999755859375 C174.7519989013672,-36.33599853515625 209.11300659179688,-4.185999870300293 213.6230010986328,37.034000396728516 C219.76300048828125,93.28399658203125 173.82200622558594,142.44400024414062 119.06199645996094,142.44400024414062z"/></g><g opacity="0.66" transform="matrix(1,0,0,1,253.03799438476562,234.4550018310547)"><path fill="url(#__lottie_element_25148)" mask="url(#__lottie_element_25150)" fill-opacity="1" d="M0 0 M119.06199645996094,95.71299743652344 C119.06199645996094,95.71299743652344 -117.14700317382812,95.71299743652344 -117.14700317382812,95.71299743652344 C-150.2969970703125,95.71299743652344 -206.7169952392578,72.68299865722656 -213.5070037841797,11.432999610900879 C-220.53700256347656,-52.05699920654297 -170.31700134277344,-81.66699981689453 -142.85699462890625,-84.74700164794922 C-142.85699462890625,-84.74700164794922 -142.8769989013672,-85.14700317382812 -142.86700439453125,-85.88700103759766 C-142.86700439453125,-85.88700103759766 -140.52699279785156,-85.63700103759766 -140.52699279785156,-85.63700103759766 C-140.52699279785156,-85.63700103759766 -83.15699768066406,-94.927001953125 -39.89699935913086,-56.49700164794922 C-39.89699935913086,-56.49700164794922 -10.79699993133545,-77.10700225830078 26.982999801635742,-56.46699905395508 C26.982999801635742,-56.46699905395508 71.6719970703125,-107.21700286865234 130.82200622558594,-93.2969970703125 C130.89199829101562,-93.28700256347656 130.95199584960938,-93.2770004272461 131.02200317382812,-93.25700378417969 C131.02200317382812,-93.25700378417969 134.91299438476562,-94.47699737548828 134.91299438476562,-94.47699737548828 C134.9429931640625,-93.80699920654297 134.96299743652344,-93.12699890136719 134.97300720214844,-92.45700073242188 C134.97300720214844,-92.45700073242188 134.31199645996094,-92.53700256347656 134.31199645996094,-92.53700256347656 C174.7519989013672,-83.06700134277344 209.11300659179688,-50.91600036621094 213.6230010986328,-9.696000099182129 C219.76300048828125,46.55400085449219 173.82200622558594,95.71299743652344 119.06199645996094,95.71299743652344z"/></g><g opacity="1" transform="matrix(1,0,0,1,293.9620056152344,163.6020050048828)"><path stroke-linecap="round" stroke-linejoin="round" fill-opacity="0" stroke="rgb(202,212,216)" stroke-opacity="1" stroke-width="8" d=" M-94.03700256347656,24.533000946044922 C-94.03700256347656,24.533000946044922 -63.06700134277344,-10.175999641418457 -13.9399995803833,14.38700008392334 C-13.9399995803833,14.38700008392334 18.790000915527344,-24.533000946044922 68.96399688720703,-24.533000946044922 C77.44499969482422,-24.533000946044922 85.86799621582031,-23.4950008392334 94.03700256347656,-21.5310001373291"/></g><g opacity="1" transform="matrix(1,0,0,1,209.28199768066406,92.28399658203125)"><path stroke-linecap="round" stroke-linejoin="round" fill-opacity="0" stroke="rgb(202,212,216)" stroke-opacity="1" stroke-width="8" d=" M-11.942000389099121,-5.644000053405762 C1.2549999952316284,-1.9919999837875366 11.942000389099121,5.644000053405762 11.942000389099121,5.644000053405762"/></g><g opacity="1" transform="matrix(1,0,0,1,125.89399719238281,149.26400756835938)"><path stroke-linecap="round" stroke-linejoin="round" fill-opacity="0" stroke="rgb(202,212,216)" stroke-opacity="1" stroke-width="8" d=" M-15.718000411987305,0.4490000009536743 C-0.7639999985694885,-1.5709999799728394 15.718000411987305,0.4490000009536743 15.718000411987305,0.4490000009536743"/></g><g opacity="1" transform="matrix(1,0,0,1,253.03700256347656,187.72799682617188)"><path stroke-linecap="round" stroke-linejoin="round" fill-opacity="0" stroke="rgb(161,175,181)" stroke-opacity="1" stroke-width="8" d=" M134.97000122070312,-45.654998779296875 C175.1280059814453,-35.99700164794922 209.13999938964844,-3.9709999561309814 213.6199951171875,37.03099822998047 C219.76600646972656,93.2750015258789 173.81900024414062,142.44500732421875 119.06800079345703,142.44500732421875 C64.31700134277344,142.44500732421875 -93.49400329589844,142.44500732421875 -117.1510009765625,142.44500732421875 C-150.30099487304688,142.44500732421875 -206.718994140625,119.41000366210938 -213.5050048828125,58.15700149536133 C-220.53799438476562,-5.330999851226807 -170.3159942626953,-34.939998626708984 -142.86099243164062,-38.01499938964844 C-142.86099243164062,-38.01499938964844 -144.49899291992188,-74.39199829101562 -113.0770034790039,-93.64199829101562 C-85.53600311279297,-110.51399993896484 -55.696998596191406,-101.08799743652344 -55.696998596191406,-101.08799743652344 C-55.696998596191406,-101.08799743652344 -25.142000198364258,-146.10299682617188 39.58100128173828,-142.20599365234375 C95.37999725341797,-138.8459930419922 134.375,-89.88800048828125 134.97500610351562,-45.731998443603516"/></g></g><g style="display: block;" transform="matrix(1,0,0,1,253.23899841308594,314.364990234375)" opacity="1"><g opacity="1" transform="matrix(1,0,0,1,0,0)"><path stroke-linecap="round" stroke-linejoin="round" fill-opacity="0" stroke="rgb(138,151,155)" stroke-opacity="1" stroke-width="8" d=" M188.97900390625,-15.807999610900879 C171.41700744628906,3.515000104904175 146.24200439453125,15.807999610900879 118.86599731445312,15.807999610900879 C64.11499786376953,15.807999610900879 -93.69599914550781,15.807999610900879 -117.35299682617188,15.807999610900879 C-138.07200622558594,15.807999610900879 -167.8800048828125,6.809999942779541 -188.97900390625,-14.892999649047852"/></g></g></g></svg>