<svg xmlns="http://www.w3.org/2000/svg" xmlns:xlink="http://www.w3.org/1999/xlink" viewBox="0 0 512 512" width="512" height="512" style="width: 100%; height: 100%; transform: translate3d(0,0,0);" preserveAspectRatio="xMidYMid meet"><defs><clipPath id="__lottie_element_11272"><rect width="512" height="512" x="0" y="0"/></clipPath><linearGradient id="__lottie_element_11291" spreadMethod="pad" gradientUnits="userSpaceOnUse" x1="-246" y1="1" x2="243" y2="0"><stop offset="0%" stop-color="rgb(0,0,0)"/><stop offset="25%" stop-color="rgb(0,0,0)"/><stop offset="50%" stop-color="rgb(0,0,0)"/><stop offset="75%" stop-color="rgb(0,0,0)"/><stop offset="100%" stop-color="rgb(0,0,0)"/></linearGradient><mask id="__lottie_element_11293"><path fill="url(#__lottie_element_11292)" d=" M-246.5,-145.5 C-246.5,-139 -246.5,144.218994140625 -246.5,146.593994140625 C-244.71200561523438,146.76499938964844 -241.55099487304688,147.5780029296875 -237.75900268554688,148.50999450683594 C-220.5,152.75 -191.07200622558594,159.75999450683594 -178.26499938964844,161.58399963378906 C-147.25,166 -127.13200378417969,165.62600708007812 -103.76799774169922,164.74600219726562 C-50.75,162.75 -4.125,146.125 27.19499969482422,139.3300018310547 C47.95800018310547,134.8249969482422 68.79000091552734,130.64500427246094 83.74700164794922,128.94000244140625 C106.25,126.375 122.875,126.75 143.25,128.35899353027344 C183.33700561523438,131.52499389648438 227.81300354003906,143.81199645996094 241.43800354003906,147.031005859375 C241.43800354003906,147.09300231933594 241.406005859375,147.09300231933594 241.406005859375,147.06199645996094 C241.406005859375,147.06199645996094 241.406005859375,147.06199645996094 241.406005859375,147.06199645996094 C241.56199645996094,120.56199645996094 241.23399353027344,82.29100036621094 241.25,49.90599822998047 C241.26600646972656,17.08300018310547 241.43699645996094,-15.739999771118164 241.5,-48.5629997253418 C241.56199645996094,-80.91699981689453 241.5,-128.75 241.625,-145.625 C151.281005859375,-172.5 103.15699768066406,-165.1009979248047 78.5,-162.81199645996094 C40.125,-159.25 0.8299999833106995,-139.16400146484375 -83.375,-129.06199645996094 C-157.875,-120.1240005493164 -212.75,-139.625 -246.5,-145.5z"/></mask><linearGradient id="__lottie_element_11292" spreadMethod="pad" gradientUnits="userSpaceOnUse" x1="-246" y1="1" x2="243" y2="0"><stop stop-color="rgb(255,255,255)" offset="0%" stop-opacity="1"/><stop stop-color="rgb(255,255,255)" offset="17%" stop-opacity="0.5"/><stop stop-color="rgb(255,255,255)" offset="33%" stop-opacity="0"/><stop stop-color="rgb(255,255,255)" offset="50%" stop-opacity="0"/><stop stop-color="rgb(255,255,255)" offset="66%" stop-opacity="0"/><stop stop-color="rgb(255,255,255)" offset="83%" stop-opacity="0.5"/><stop stop-color="rgb(255,255,255)" offset="100%" stop-opacity="1"/></linearGradient></defs><g clip-path="url(#__lottie_element_11272)"><g style="display: block;" transform="matrix(0.800000011920929,0,0,0.800000011920929,257.9656066894531,250.03680419921875)" opacity="1"><g opacity="1" transform="matrix(1,0,0,1,0,0)"><path fill="rgb(231,208,39)" fill-opacity="1" d=" M-246.5,-48.79600143432617 C-246.5,-17.547000885009766 -246.5,17.108999252319336 -246.5,48.45399856567383 C-246.5,101.86900329589844 241.23399353027344,82.29100036621094 241.25,49.90599822998047 C241.26600646972656,17.08300018310547 241.43699645996094,-15.739999771118164 241.5,-48.5629997253418 C241.56199645996094,-80.91699981689453 -246.5,-100.59400177001953 -246.5,-48.79600143432617z"/></g></g><g style="display: block;" transform="matrix(0.800000011920929,0,0,0.800000011920929,257.9656066894531,250.03680419921875)" opacity="1"><g opacity="1" transform="matrix(1,0,0,1,0,0)"><path fill="rgb(216,46,46)" fill-opacity="1" d=" M-246.5,48.20399856567383 C-246.5,101.73200225830078 -246.5,145.6649932861328 -246.5,146.593994140625 C-244.71200561523438,146.76499938964844 -241.55099487304688,147.5780029296875 -237.75900268554688,148.50999450683594 C-220.5,152.75 -191.07200622558594,159.75999450683594 -178.26499938964844,161.58399963378906 C-147.25,166 -127.13200378417969,165.62600708007812 -103.76799774169922,164.74600219726562 C-50.75,162.75 -4.125,146.125 27.19499969482422,139.3300018310547 C47.95800018310547,134.8249969482422 68.79000091552734,130.64500427246094 83.74700164794922,128.94000244140625 C106.25,126.375 122.875,126.75 143.25,128.35899353027344 C183.33700561523438,131.52499389648438 218.41900634765625,139.32899475097656 241.43800354003906,147.031005859375 C241.43800354003906,147.093994140625 241.406005859375,147.09300231933594 241.406005859375,147.06199645996094 C241.406005859375,147.06199645996094 241.406005859375,147.06199645996094 241.406005859375,147.06199645996094 C241.56199645996094,120.56199645996094 241.23399353027344,82.29100036621094 241.25,49.90599822998047 C192.79299926757812,30.952999114990234 116.95899963378906,23.69499969482422 55.35599899291992,35.35499954223633 C23.792999267578125,41.32899856567383 -31.08099937438965,56.07899856567383 -73.03500366210938,63.36800003051758 C-106.5719985961914,69.19499969482422 -156.58099365234375,69.2040023803711 -203.0240020751953,58.18000030517578 C-221.2969970703125,53.84299850463867 -228.45599365234375,52.39099884033203 -234.78599548339844,50.972999572753906 C-240.1439971923828,49.70399856567383 -244.20700073242188,48.70399856567383 -246.5,48.20399856567383z"/></g></g><g style="display: block;" transform="matrix(0.800000011920929,0,0,0.800000011920929,257.9656066894531,250.03680419921875)" opacity="1"><g opacity="1" transform="matrix(1,0,0,1,0,0)"><path fill="rgb(25,116,63)" fill-opacity="1" d=" M-246.5,-145.5 C-246.5,-143.03799438476562 -246.5050048828125,-100.61699676513672 -246.5050048828125,-49.04600143432617 C-235.20700073242188,-46.54600143432617 -217.45700073242188,-42.04600143432617 -195.322998046875,-37.196998596191406 C-153.95700073242188,-29.54599952697754 -116.20700073242188,-27.29599952697754 -79.72699737548828,-33.01900100708008 C-47.97800064086914,-38 -27.39699935913086,-42.797000885009766 16.045000076293945,-54.13999938964844 C125.79299926757812,-82.7959976196289 190.29299926757812,-62.797000885009766 241.5,-48.5629997253418 C241.56199645996094,-80.91699981689453 241.5,-128.75 241.625,-145.625 C151.281005859375,-172.5 103.15699768066406,-165.1009979248047 78.5,-162.81199645996094 C40.125,-159.25 -52.957000732421875,-130.54600524902344 -83.375,-129.06199645996094 C-157.875,-120.1240005493164 -212.75,-139.625 -246.5,-145.5z"/></g></g><g style="display: block;" transform="matrix(0.800000011920929,0,0,0.800000011920929,53.20000457763672,44.79920196533203)" opacity="1"><g opacity="1" transform="matrix(1,0,0,1,253.64500427246094,256.2590026855469)"><path fill="rgb(36,89,189)" fill-opacity="1" d=" M72.46199798583984,-9.557000160217285 C71.03700256347656,12.211999893188477 58.935001373291016,33.849998474121094 41.665000915527344,49.88199996948242 C24.906999588012695,65.44000244140625 3.2820000648498535,75.72000122070312 -18.177000045776367,75.72000122070312 C-41.604000091552734,75.72000122070312 -58.08300018310547,62.810001373291016 -66.41799926757812,44.9630012512207 C-72.70800018310547,31.4950008392334 -74.35800170898438,15.21500015258789 -70.85700225830078,-0.44999998807907104 C-66.24600219726562,-21.07699966430664 -53.71799850463867,-39.37799835205078 -38.356998443603516,-52.76900100708008 C-21.395000457763672,-67.55599975585938 -0.9800000190734863,-76.35399627685547 16.035999298095703,-75.68399810791016 C51.0629997253418,-74.30500030517578 75.125,-50.22100067138672 72.46199798583984,-9.557000160217285z"/></g></g><g style="display: block;" transform="matrix(0.800000011920929,0,0,0.800000011920929,53.20000457763672,44.79920196533203)" opacity="1"><g opacity="1" transform="matrix(1,0,0,1,253.56399536132812,256.2449951171875)"><g opacity="1" transform="matrix(1,0,0,1,0,0)"><path fill="rgb(231,208,39)" fill-opacity="1" d=" M48.79800033569336,-26.770000457763672 C48.79800033569336,-26.770000457763672 14.593000411987305,-18.694000244140625 14.593000411987305,-18.694000244140625 C14.593000411987305,-18.694000244140625 31.576000213623047,-47.564998626708984 31.576000213623047,-47.564998626708984 C31.576000213623047,-47.564998626708984 27.143999099731445,-49.59299850463867 27.143999099731445,-49.59299850463867 C27.143999099731445,-49.59299850463867 10.430999755859375,-20.785999298095703 10.430999755859375,-20.785999298095703 C10.430999755859375,-20.785999298095703 -0.15299999713897705,-50.84000015258789 -0.15299999713897705,-50.84000015258789 C-0.15299999713897705,-50.84000015258789 -10.37399959564209,-15.975000381469727 -10.37399959564209,-15.975000381469727 C-10.37399959564209,-15.975000381469727 -27.451000213623047,-36.52199935913086 -27.451000213623047,-36.52199935913086 C-27.451000213623047,-36.52199935913086 -31.584999084472656,-32.28099822998047 -31.584999084472656,-32.28099822998047 C-31.584999084472656,-32.28099822998047 -14.897000312805176,-11.1899995803833 -14.897000312805176,-11.1899995803833 C-14.897000312805176,-11.1899995803833 -48.79800033569336,-3.5360000133514404 -48.79800033569336,-3.5360000133514404 C-48.79800033569336,-3.5360000133514404 -21.299999237060547,10.35200023651123 -21.299999237060547,10.35200023651123 C-21.299999237060547,10.35200023651123 -48.60200119018555,25.839000701904297 -48.60200119018555,25.839000701904297 C-48.60200119018555,25.839000701904297 -46.893001556396484,30.72599983215332 -46.893001556396484,30.72599983215332 C-46.893001556396484,30.72599983215332 -19.440000534057617,15.204999923706055 -19.440000534057617,15.204999923706055 C-19.440000534057617,15.204999923706055 -30.408000946044922,50.84000015258789 -30.408000946044922,50.84000015258789 C-30.408000946044922,50.84000015258789 -3.0829999446868896,24.113000869750977 -3.0829999446868896,24.113000869750977 C-3.0829999446868896,24.113000869750977 -2.9670000076293945,53.90599822998047 -2.9670000076293945,53.90599822998047 C-2.9670000076293945,53.90599822998047 2.546999931335449,52.763999938964844 2.546999931335449,52.763999938964844 C2.546999931335449,52.763999938964844 2.690999984741211,22.246000289916992 2.690999984741211,22.246000289916992 C2.690999984741211,22.246000289916992 29.975000381469727,35.84000015258789 29.975000381469727,35.84000015258789 C29.975000381469727,35.84000015258789 19.45800018310547,5.623000144958496 19.45800018310547,5.623000144958496 C19.45800018310547,5.623000144958496 46.60200119018555,9.149999618530273 46.60200119018555,9.149999618530273 C46.60200119018555,9.149999618530273 48.17599868774414,3.4549999237060547 48.17599868774414,3.4549999237060547 C48.17599868774414,3.4549999237060547 21.058000564575195,-0.125 21.058000564575195,-0.125 C21.058000564575195,-0.125 48.79800033569336,-26.770000457763672 48.79800033569336,-26.770000457763672z M31.117000579833984,-16.819000244140625 C31.117000579833984,-16.819000244140625 16.628000259399414,-2.7769999504089355 16.628000259399414,-2.7769999504089355 C16.628000259399414,-2.7769999504089355 13.371999740600586,-12.605999946594238 13.371999740600586,-12.605999946594238 C13.371999740600586,-12.605999946594238 31.117000579833984,-16.819000244140625 31.117000579833984,-16.819000244140625z M-0.03200000151991844,-32.39400100708008 C-0.03200000151991844,-32.39400100708008 5.520999908447266,-16.2450008392334 5.520999908447266,-16.2450008392334 C5.520999908447266,-16.2450008392334 -5.456999778747559,-13.628000259399414 -5.456999778747559,-13.628000259399414 C-5.456999778747559,-13.628000259399414 -0.03200000151991844,-32.39400100708008 -0.03200000151991844,-32.39400100708008z M-30.98900032043457,-1.690999984741211 C-30.98900032043457,-1.690999984741211 -13.116999626159668,-5.9679999351501465 -13.116999626159668,-5.9679999351501465 C-13.116999626159668,-5.9679999351501465 -16.69099998474121,5.520999908447266 -16.69099998474121,5.520999908447266 C-16.69099998474121,5.520999908447266 -30.98900032043457,-1.690999984741211 -30.98900032043457,-1.690999984741211z M-19.05299949645996,32.7130012512207 C-19.05299949645996,32.7130012512207 -13.628000259399414,14.20199966430664 -13.628000259399414,14.20199966430664 C-13.628000259399414,14.20199966430664 -4.947000026702881,18.479000091552734 -4.947000026702881,18.479000091552734 C-4.947000026702881,18.479000091552734 -19.05299949645996,32.7130012512207 -19.05299949645996,32.7130012512207z M-11.904000282287598,7.818999767303467 C-11.904000282287598,7.818999767303467 -7.181000232696533,-7.372000217437744 -7.181000232696533,-7.372000217437744 C-7.181000232696533,-7.372000217437744 7.244999885559082,-11.074000358581543 7.244999885559082,-11.074000358581543 C7.244999885559082,-11.074000358581543 11.904000282287598,2.010999917984009 11.904000282287598,2.010999917984009 C11.904000282287598,2.010999917984009 0.09600000083446503,13.628000259399414 0.09600000083446503,13.628000259399414 C0.09600000083446503,13.628000259399414 -11.904000282287598,7.818999767303467 -11.904000282287598,7.818999767303467z M19.2450008392334,23.329999923706055 C19.2450008392334,23.329999923706055 4.947000026702881,16.117000579833984 4.947000026702881,16.117000579833984 C4.947000026702881,16.117000579833984 13.819000244140625,7.309000015258789 13.819000244140625,7.309000015258789 C13.819000244140625,7.309000015258789 19.2450008392334,23.329999923706055 19.2450008392334,23.329999923706055z"/></g></g></g><g style="display: block;" transform="matrix(0.800000011920929,0,0,0.800000011920929,257.9656066894531,250.03680419921875)" opacity="0.35000000000000003"><g opacity="1" transform="matrix(1,0,0,1,0,0)"><path fill="url(#__lottie_element_11291)" mask="url(#__lottie_element_11293)" fill-opacity="1" d="M0 0 M-246.5,-145.5 C-246.5,-139 -246.5,144.218994140625 -246.5,146.593994140625 C-244.71200561523438,146.76499938964844 -241.55099487304688,147.5780029296875 -237.75900268554688,148.50999450683594 C-220.5,152.75 -191.07200622558594,159.75999450683594 -178.26499938964844,161.58399963378906 C-147.25,166 -127.13200378417969,165.62600708007812 -103.76799774169922,164.74600219726562 C-50.75,162.75 -4.125,146.125 27.19499969482422,139.3300018310547 C47.95800018310547,134.8249969482422 68.79000091552734,130.64500427246094 83.74700164794922,128.94000244140625 C106.25,126.375 122.875,126.75 143.25,128.35899353027344 C183.33700561523438,131.52499389648438 227.81300354003906,143.81199645996094 241.43800354003906,147.031005859375 C241.43800354003906,147.09300231933594 241.406005859375,147.09300231933594 241.406005859375,147.06199645996094 C241.406005859375,147.06199645996094 241.406005859375,147.06199645996094 241.406005859375,147.06199645996094 C241.56199645996094,120.56199645996094 241.23399353027344,82.29100036621094 241.25,49.90599822998047 C241.26600646972656,17.08300018310547 241.43699645996094,-15.739999771118164 241.5,-48.5629997253418 C241.56199645996094,-80.91699981689453 241.5,-128.75 241.625,-145.625 C151.281005859375,-172.5 103.15699768066406,-165.1009979248047 78.5,-162.81199645996094 C40.125,-159.25 0.8299999833106995,-139.16400146484375 -83.375,-129.06199645996094 C-157.875,-120.1240005493164 -212.75,-139.625 -246.5,-145.5z"/></g></g><g style="display: block;" transform="matrix(0.800000011920929,0,0,0.800000011920929,257.9656066894531,250.03680419921875)" opacity="0.15"><g opacity="1" transform="matrix(1,0,0,1,0,0)"><path fill="rgb(255,255,255)" fill-opacity="1" d=" M-246.875,-146 C-246.83700561523438,-139.70399475097656 -246.875,-138 -246.79200744628906,-132.81100463867188 C-237.5,-136.25 -197.25,-114 -124.49600219726562,-114.31099700927734 C-38.992000579833984,-114.6760025024414 39.233001708984375,-153.25 121.70800018310547,-153.39700317382812 C179.75,-153.5 241,-132.25 240.91200256347656,-131.552001953125 C241,-140.5 241.375,-144.625 241.375,-144.625 C241.375,-144.625 179.75,-166.25 122.5,-166 C39.49700164794922,-165.63800048828125 -39.5,-128 -124.25,-126.81199645996094 C-197.0449981689453,-125.79199981689453 -237.75,-149 -246.875,-146z"/></g></g><g style="display: block;" transform="matrix(0.800000011920929,0,0,0.800000011920929,257.9656066894531,250.03680419921875)" opacity="0.15"><g opacity="1" transform="matrix(1,0,0,1,0,0)"><path fill="rgb(0,0,0)" fill-opacity="1" d=" M122.5,112.25 C34,112.25 -36,149.5 -123.5,152 C-140.61700439453125,152.48899841308594 -155.82000732421875,151.3489990234375 -170.41099548339844,149.1280059814453 C-195.23399353027344,145.35000610351562 -218.28900146484375,138.4459991455078 -246,131.125 C-246.25,134.5 -246,141.375 -246,145.125 C-218.5749969482422,153.30599975585938 -195.61700439453125,159.55499267578125 -170.83099365234375,163.0050048828125 C-155.8520050048828,165.08999633789062 -140.20399475097656,166.15199279785156 -122.5,166 C-35,165.25 33.5,126.625 121.75,126.5 C126.26799774169922,126.49400329589844 131.11399841308594,126.59500122070312 136.27699279785156,126.83899688720703 C163.25900268554688,128.11300659179688 198.88099670410156,133.2550048828125 241.375,147 C241.375,147 241.25,134.75 241.5,131.125 C199.093994140625,118.93299865722656 163.16200256347656,113.84500122070312 136.1439971923828,112.58000183105469 C131.30499267578125,112.35399627685547 126.75299835205078,112.25 122.5,112.25z"/></g></g><g style="display: block;" transform="matrix(0.800000011920929,0,0,0.800000011920929,257.9656066894531,250.03680419921875)" opacity="1"><g opacity="1" transform="matrix(1,0,0,1,0,0)"><path stroke-linecap="round" stroke-linejoin="round" fill-opacity="0" stroke="rgb(107,16,16)" stroke-opacity="1" stroke-width="8" d=" M-246.5,48.20399856567383 C-246.5,101.73200225830078 -246.5,145.6649932861328 -246.5,146.593994140625 C-244.71200561523438,146.76499938964844 -241.55099487304688,147.5780029296875 -237.75900268554688,148.50999450683594 C-220.5,152.75 -191.07200622558594,159.75999450683594 -178.26499938964844,161.58399963378906 C-147.25,166 -127.13200378417969,165.62600708007812 -103.76799774169922,164.74600219726562 C-50.75,162.75 -4.125,146.125 27.19499969482422,139.3300018310547 C47.95800018310547,134.8249969482422 68.79000091552734,130.64500427246094 83.74700164794922,128.94000244140625 C106.25,126.375 122.875,126.75 143.25,128.35899353027344 C183.33700561523438,131.52499389648438 217.79400634765625,139.2030029296875 241.43800354003906,147.031005859375 C241.43800354003906,147.09300231933594 241.406005859375,147.09300231933594 241.406005859375,147.06199645996094 C241.406005859375,147.06199645996094 241.406005859375,147.06199645996094 241.406005859375,147.06199645996094 C241.56199645996094,120.56199645996094 241.23399353027344,82.29100036621094 241.25,49.90599822998047"/></g><g opacity="1" transform="matrix(1,0,0,1,0,0)"><path stroke-linecap="round" stroke-linejoin="round" fill-opacity="0" stroke="rgb(15,62,35)" stroke-opacity="1" stroke-width="8" d=" M241.5,-48.5629997253418 C241.56199645996094,-80.91699981689453 241.5,-128.75 241.625,-145.625 C151.281005859375,-172.5 103.15699768066406,-165.1009979248047 78.5,-162.81199645996094 C40.125,-159.25 -36.957000732421875,-134.04600524902344 -83.375,-129.06199645996094 C-157.875,-120.1240005493164 -212.75,-139.625 -246.5,-145.5 C-246.5,-143.0330047607422 -246.5,-100.6969985961914 -246.5,-48.98400115966797"/></g><g opacity="1" transform="matrix(1,0,0,1,0,0)"><path stroke-linecap="butt" stroke-linejoin="miter" fill-opacity="0" stroke-miterlimit="4" stroke="rgb(119,106,16)" stroke-opacity="1" stroke-width="8" d=" M241.5,-48.5629997253418 C241.43699645996094,-15.739999771118164 241.26600646972656,17.08300018310547 241.25,49.90599822998047"/></g><g opacity="1" transform="matrix(1,0,0,1,0,0)"><path stroke-linecap="butt" stroke-linejoin="miter" fill-opacity="0" stroke-miterlimit="4" stroke="rgb(119,106,16)" stroke-opacity="1" stroke-width="8" d=" M-246.48800659179688,-48.99399948120117 C-246.48800659179688,-48.99399948120117 -246.5189971923828,48.0359992980957 -246.5189971923828,48.0359992980957"/></g></g></g></svg>