<svg xmlns="http://www.w3.org/2000/svg" xmlns:xlink="http://www.w3.org/1999/xlink" viewBox="0 0 512 512" width="512" height="512" style="width: 100%; height: 100%; transform: translate3d(0,0,0);" preserveAspectRatio="xMidYMid meet"><defs><clipPath id="__lottie_element_9649"><rect width="512" height="512" x="0" y="0"/></clipPath><linearGradient id="__lottie_element_9668" spreadMethod="pad" gradientUnits="userSpaceOnUse" x1="-246" y1="1" x2="243" y2="0"><stop offset="0%" stop-color="rgb(0,0,0)"/><stop offset="25%" stop-color="rgb(0,0,0)"/><stop offset="50%" stop-color="rgb(0,0,0)"/><stop offset="75%" stop-color="rgb(0,0,0)"/><stop offset="100%" stop-color="rgb(0,0,0)"/></linearGradient><mask id="__lottie_element_9670"><path fill="url(#__lottie_element_9669)" d=" M-246.5,-145.5 C-246.5,-139 -246.5,144.218994140625 -246.5,146.593994140625 C-244.71200561523438,146.76499938964844 -241.55099487304688,147.5780029296875 -237.75900268554688,148.50999450683594 C-220.5,152.75 -191.07200622558594,159.75999450683594 -178.26499938964844,161.58399963378906 C-147.25,166 -127.13200378417969,165.62600708007812 -103.76799774169922,164.74600219726562 C-50.75,162.75 -4.125,146.125 27.19499969482422,139.3300018310547 C47.95800018310547,134.8249969482422 68.79000091552734,130.64500427246094 83.74700164794922,128.94000244140625 C106.25,126.375 122.875,126.75 143.25,128.35899353027344 C183.33700561523438,131.52499389648438 217.79400634765625,139.2030029296875 241.43800354003906,147.031005859375 C241.43800354003906,147.09300231933594 241.406005859375,147.09300231933594 241.406005859375,147.06199645996094 C241.406005859375,147.06199645996094 241.406005859375,147.06199645996094 241.406005859375,147.06199645996094 C241.56199645996094,120.56199645996094 241.23399353027344,82.29100036621094 241.25,49.90599822998047 C241.26600646972656,17.08300018310547 241.43699645996094,-15.739999771118164 241.5,-48.5629997253418 C241.56199645996094,-80.91699981689453 241.5,-128.75 241.625,-145.625 C151.281005859375,-172.5 103.15699768066406,-165.1009979248047 78.5,-162.81199645996094 C23.042999267578125,-156.04600524902344 -48.707000732421875,-130.79600524902344 -83.375,-129.06199645996094 C-157.875,-120.1240005493164 -212.75,-139.625 -246.5,-145.5z"/></mask><linearGradient id="__lottie_element_9669" spreadMethod="pad" gradientUnits="userSpaceOnUse" x1="-246" y1="1" x2="243" y2="0"><stop stop-color="rgb(255,255,255)" offset="0%" stop-opacity="1"/><stop stop-color="rgb(255,255,255)" offset="17%" stop-opacity="0.5"/><stop stop-color="rgb(255,255,255)" offset="33%" stop-opacity="0"/><stop stop-color="rgb(255,255,255)" offset="50%" stop-opacity="0"/><stop stop-color="rgb(255,255,255)" offset="66%" stop-opacity="0"/><stop stop-color="rgb(255,255,255)" offset="83%" stop-opacity="0.5"/><stop stop-color="rgb(255,255,255)" offset="100%" stop-opacity="1"/></linearGradient></defs><g clip-path="url(#__lottie_element_9649)"><g style="display: block;" transform="matrix(0.800000011920929,0,0,0.800000011920929,257.9656066894531,250.03680419921875)" opacity="1"><g opacity="1" transform="matrix(1,0,0,1,0,0)"><path fill="rgb(35,23,104)" fill-opacity="1" d=" M-246.5,-145.5 C-246.5,-139 -246.5,144.218994140625 -246.5,146.593994140625 C-244.71200561523438,146.76499938964844 -241.55099487304688,147.5780029296875 -237.75900268554688,148.50999450683594 C-220.5,152.75 -191.07200622558594,159.75999450683594 -178.26499938964844,161.58399963378906 C-147.25,166 -127.13200378417969,165.62600708007812 -103.76799774169922,164.74600219726562 C-50.75,162.75 -4.125,146.125 27.19499969482422,139.3300018310547 C47.95800018310547,134.8249969482422 68.79000091552734,130.64500427246094 83.74700164794922,128.94000244140625 C106.25,126.375 122.875,126.75 143.25,128.35899353027344 C183.33700561523438,131.52499389648438 217.79400634765625,139.2030029296875 241.43800354003906,147.031005859375 C241.43800354003906,147.09300231933594 241.406005859375,147.09300231933594 241.406005859375,147.06199645996094 C241.406005859375,147.06199645996094 241.406005859375,147.06199645996094 241.406005859375,147.06199645996094 C241.56199645996094,120.56199645996094 241.23399353027344,82.29100036621094 241.25,49.90599822998047 C241.26600646972656,17.08300018310547 241.43699645996094,-15.739999771118164 241.5,-48.5629997253418 C241.56199645996094,-80.91699981689453 241.5,-128.75 241.625,-145.625 C151.281005859375,-172.5 103.15699768066406,-165.1009979248047 78.5,-162.81199645996094 C23.042999267578125,-156.04600524902344 -48.707000732421875,-130.79600524902344 -83.375,-129.06199645996094 C-157.875,-120.1240005493164 -212.75,-139.625 -246.5,-145.5z"/></g></g><g style="display: block;" transform="matrix(0.800000011920929,0,0,0.800000011920929,52.80000305175781,44.599205017089844)" opacity="1"><g opacity="1" transform="matrix(1,0,0,1,150.44700622558594,179.6510009765625)"><g opacity="1" transform="matrix(1,0,0,1,0,0)"><path fill="rgb(242,242,242)" fill-opacity="1" d=" M140.93600463867188,45.86000061035156 C105.29399871826172,36.582000732421875 69.26499938964844,28.216999053955078 32.012001037597656,15.069999694824219 C62.02299880981445,-4.513000011444092 96.12899780273438,-29.617000579833984 140.93600463867188,-63.07600021362305 C140.93600463867188,-63.07600021362305 140.93600463867188,-78.86699676513672 140.93600463867188,-78.86699676513672 C130.77000427246094,-76.73699951171875 120.14900207519531,-74.1969985961914 109.09300231933594,-71.24199676513672 C109.06999969482422,-71.21700286865234 109.04399871826172,-71.18399810791016 109.02100372314453,-71.16100311279297 C71.60399627685547,-42.1510009765625 38.112998962402344,-17.724000930786133 0.4099999964237213,2.7730000019073486 C-34.571998596191406,-12.204999923706055 -70.78900146484375,-32.58300018310547 -108.89600372314453,-62.80799865722656 C-118.85600280761719,-64.91300201416016 -129.4409942626953,-67.18399810791016 -140.93600463867188,-69.54399871826172 C-140.93600463867188,-69.54399871826172 -140.93600463867188,-53.53799819946289 -140.93600463867188,-53.53799819946289 C-104.43699645996094,-28.447999954223633 -76.36399841308594,-4.059999942779541 -32.255001068115234,19.003999710083008 C-63.426998138427734,33.069000244140625 -98.40399932861328,44.930999755859375 -140.8509979248047,54.88100051879883 C-140.8769989013672,54.88199996948242 -140.9080047607422,54.87900161743164 -140.93600463867188,54.87900161743164 C-140.93600463867188,54.87900161743164 -140.93600463867188,71.3949966430664 -140.93600463867188,71.3949966430664 C-130.14999389648438,74.24099731445312 -119.88200378417969,76.72100067138672 -110.0739974975586,78.86699676513672 C-67.13200378417969,67.43399810791016 -34.680999755859375,54.505001068115234 0.4490000009536743,34.452999114990234 C29.274999618530273,46.74100112915039 64.56800079345703,58.59199905395508 110.36599731445312,69.89900207519531 C120.17400360107422,67.33499908447266 130.2949981689453,64.68699645996094 140.93600463867188,62.05500030517578 C140.93600463867188,62.05500030517578 140.93600463867188,45.86000061035156 140.93600463867188,45.86000061035156z"/></g></g><g opacity="1" transform="matrix(1,0,0,1,77.375,232.7480010986328)"><path fill="rgb(240,24,24)" fill-opacity="1" d=" M210.98899841308594,-130.16700744628906 C210.98899841308594,-130.16700744628906 192.52200317382812,-127.04199981689453 192.52200317382812,-127.04199981689453 C168.18699645996094,-105.84100341796875 114.43800354003906,-70.52899932861328 75.60299682617188,-39.42599868774414 C11.781999588012695,-54.435001373291016 -42.59400177001953,-107.40399932861328 -65.8949966430664,-121.42900085449219 C-66.65599822998047,-118.96600341796875 -66.65599822998047,-115.02100372314453 -67.23500061035156,-112.50399780273438 C-16.3439998626709,-74.552001953125 14.75,-48.810001373291016 65.4209976196289,-34.63800048828125 C17.093000411987305,0.5649999976158142 -41.944000244140625,11.786999702453613 -67.86399841308594,18.29800033569336 C-61.23400115966797,20.047000885009766 -54.80400085449219,21.6560001373291 -48.551998138427734,23.13599967956543 C-48.52199935913086,23.118000030517578 -48.48699951171875,23.097999572753906 -48.459999084472656,23.082000732421875 C-26.22599983215332,17.80500030517578 30.687000274658203,4.626999855041504 71.93399810791016,-28.81599998474121 C116.46900177001953,-17.24799919128418 191.781005859375,2.752000093460083 213.33999633789062,8.51099967956543 C213.343994140625,8.03600025177002 213.5,-0.8410000205039978 213.3179931640625,-1.909000039100647 C150.68699645996094,-18.965999603271484 117.71900177001953,-26.93600082397461 84.38899993896484,-36.191001892089844 C127.875,-67.24800109863281 176.625,-104.59100341796875 210.98899841308594,-130.16700744628906z"/></g></g><g style="display: block;" transform="matrix(0.800000011920929,0,0,0.800000011920929,52.80000305175781,44.599205017089844)" opacity="1"><g opacity="1" transform="matrix(1,0,0,1,150.44700622558594,198.3560028076172)"><g opacity="1" transform="matrix(1,0,0,1,0,0)"><path fill="rgb(242,242,242)" fill-opacity="1" d=" M24,-25.538000106811523 C24,-25.538000106811523 24,-71.6719970703125 24,-71.6719970703125 C6.656000137329102,-69.4219970703125 -8.670999526977539,-68.65799713134766 -23.233999252319336,-69.03099822998047 C-23.233999252319336,-69.03099822998047 -23.233999252319336,-22.201000213623047 -23.233999252319336,-22.201000213623047 C-56.680999755859375,-22.590999603271484 -90.12899780273438,-29.222999572753906 -140.93600463867188,-42.066001892089844 C-140.93600463867188,-42.066001892089844 -140.93600463867188,4.965000152587891 -140.93600463867188,4.965000152587891 C-90.12799835205078,18.27199935913086 -56.66600036621094,25.172000885009766 -23.233999252319336,25.663000106811523 C-23.233999252319336,25.663000106811523 -23.233999252319336,71.55799865722656 -23.233999252319336,71.55799865722656 C-6.339000225067139,71.99099731445312 9.168000221252441,71.16699981689453 24,69.4469985961914 C24,69.4469985961914 24,22.354999542236328 24,22.354999542236328 C54.4370002746582,17.965999603271484 90.1989974975586,9.244999885559082 140.93600463867188,-3.809999942779541 C140.93600463867188,-3.809999942779541 140.93600463867188,-51.220001220703125 140.93600463867188,-51.220001220703125 C90.1989974975586,-38.43299865722656 54.43000030517578,-29.878000259399414 24,-25.538000106811523z"/></g></g><g opacity="1" transform="matrix(1,0,0,1,150.44700622558594,198.88999938964844)"><g opacity="1" transform="matrix(1,0,0,1,0,0)"><path fill="rgb(240,24,24)" fill-opacity="1" d=" M14.809000015258789,-15.156999588012695 C14.809000015258789,-15.156999588012695 14.809000015258789,-71.13200378417969 14.809000015258789,-71.13200378417969 C4.807000160217285,-70.09600067138672 -4.551000118255615,-69.572998046875 -13.531999588012695,-69.48799896240234 C-13.531999588012695,-69.48799896240234 -13.531999588012695,-12.993000030517578 -13.531999588012695,-12.993000030517578 C-50.361000061035156,-11.958000183105469 -85.4010009765625,-18.368000030517578 -140.93600463867188,-32.89899826049805 C-140.93600463867188,-32.89899826049805 -140.93600463867188,-6.038000106811523 -140.93600463867188,-6.038000106811523 C-85.22200012207031,8.553999900817871 -50.36600112915039,15.439000129699707 -13.531999588012695,14.619999885559082 C-13.531999588012695,14.619999885559082 -13.531999588012695,71.13200378417969 -13.531999588012695,71.13200378417969 C-3.687000036239624,71.10700225830078 5.710999965667725,70.65799713134766 14.809000015258789,69.85399627685547 C14.809000015258789,69.85399627685547 14.809000015258789,12.562999725341797 14.809000015258789,12.562999725341797 C47.270999908447266,8.70300006866455 85.00700378417969,-0.421999990940094 140.93600463867188,-14.812999725341797 C140.93600463867188,-14.812999725341797 140.93600463867188,-41.72100067138672 140.93600463867188,-41.72100067138672 C85.15799713134766,-28.073999404907227 47.415000915527344,-19.09000015258789 14.809000015258789,-15.156999588012695z"/></g></g></g><g style="display: block;" transform="matrix(0.800000011920929,0,0,0.800000011920929,53.20000457763672,44.800010681152344)" opacity="1"><g opacity="1" transform="matrix(1,0,0,1,387.2640075683594,322.4639892578125)"><path fill="rgb(242,242,242)" fill-opacity="1" d=" M-2.0490000247955322,13.668000221252441 C-2.0490000247955322,13.668000221252441 3.183000087738037,4.834000110626221 3.183000087738037,4.834000110626221 C3.183000087738037,4.834000110626221 13.86400032043457,7.599999904632568 13.86400032043457,7.599999904632568 C13.86400032043457,7.599999904632568 6.715000152587891,-0.7400000095367432 6.715000152587891,-0.7400000095367432 C6.715000152587891,-0.7400000095367432 12.034000396728516,-10.484999656677246 12.034000396728516,-10.484999656677246 C12.034000396728516,-10.484999656677246 1.9550000429153442,-5.914000034332275 1.9550000429153442,-5.914000034332275 C1.9550000429153442,-5.914000034332275 -5.13700008392334,-13.668000221252441 -5.13700008392334,-13.668000221252441 C-5.13700008392334,-13.668000221252441 -4.136000156402588,-3.803999900817871 -4.136000156402588,-3.803999900817871 C-4.136000156402588,-3.803999900817871 -13.86400032043457,0.8669999837875366 -13.86400032043457,0.8669999837875366 C-13.86400032043457,0.8669999837875366 -3.2279999256134033,3.2269999980926514 -3.2279999256134033,3.2269999980926514 C-3.2279999256134033,3.2269999980926514 -2.0490000247955322,13.668000221252441 -2.0490000247955322,13.668000221252441z"/></g><g opacity="1" transform="matrix(1,0,0,1,336.7659912109375,269.6659851074219)"><path fill="rgb(242,242,242)" fill-opacity="1" d=" M-2.0290000438690186,13.666000366210938 C-2.0290000438690186,13.666000366210938 3.427999973297119,4.015999794006348 3.427999973297119,4.015999794006348 C3.427999973297119,4.015999794006348 13.935999870300293,5.078000068664551 13.935999870300293,5.078000068664551 C13.935999870300293,5.078000068664551 6.921000003814697,-2.302000045776367 6.921000003814697,-2.302000045776367 C6.921000003814697,-2.302000045776367 11.637999534606934,-11.77299976348877 11.637999534606934,-11.77299976348877 C11.637999534606934,-11.77299976348877 1.9359999895095825,-6.964000225067139 1.9359999895095825,-6.964000225067139 C1.9359999895095825,-6.964000225067139 -5.150000095367432,-13.666000366210938 -5.150000095367432,-13.666000366210938 C-5.150000095367432,-13.666000366210938 -4.271999835968018,-3.0409998893737793 -4.271999835968018,-3.0409998893737793 C-4.271999835968018,-3.0409998893737793 -13.935999870300293,2.6530001163482666 -13.935999870300293,2.6530001163482666 C-13.935999870300293,2.6530001163482666 -3.2209999561309814,3.2260000705718994 -3.2209999561309814,3.2260000705718994 C-3.2209999561309814,3.2260000705718994 -2.0290000438690186,13.666000366210938 -2.0290000438690186,13.666000366210938z"/></g><g opacity="1" transform="matrix(1,0,0,1,346.7019958496094,292.7439880371094)"><path fill="rgb(242,242,242)" fill-opacity="1" d=" M-14.043000221252441,8.723999977111816 C-14.043000221252441,8.723999977111816 -3.427000045776367,5.5320000648498535 -3.427000045776367,5.5320000648498535 C-3.427000045776367,5.5320000648498535 1.9900000095367432,14.170999526977539 1.9900000095367432,14.170999526977539 C1.9900000095367432,14.170999526977539 3.361999988555908,3.234999895095825 3.361999988555908,3.234999895095825 C3.361999988555908,3.234999895095825 14.043000221252441,0.2290000021457672 14.043000221252441,0.2290000021457672 C14.043000221252441,0.2290000021457672 4,-3.489000082015991 4,-3.489000082015991 C4,-3.489000082015991 4.841000080108643,-14.170999526977539 4.841000080108643,-14.170999526977539 C4.841000080108643,-14.170999526977539 -2.2980000972747803,-5.702000141143799 -2.2980000972747803,-5.702000141143799 C-2.2980000972747803,-5.702000141143799 -12.128000259399414,-8.637999534606934 -12.128000259399414,-8.637999534606934 C-12.128000259399414,-8.637999534606934 -6.8429999351501465,-0.37599998712539673 -6.8429999351501465,-0.37599998712539673 C-6.8429999351501465,-0.37599998712539673 -14.043000221252441,8.723999977111816 -14.043000221252441,8.723999977111816z"/></g><g opacity="1" transform="matrix(1,0,0,1,363.7449951171875,310.2640075683594)"><path fill="rgb(242,242,242)" fill-opacity="1" d=" M-8.829999923706055,13.501999855041504 C-8.829999923706055,13.501999855041504 -0.11800000071525574,6.485000133514404 -0.11800000071525574,6.485000133514404 C-0.11800000071525574,6.485000133514404 8.914999961853027,12.565999984741211 8.914999961853027,12.565999984741211 C8.914999961853027,12.565999984741211 5.127999782562256,2.6559998989105225 5.127999782562256,2.6559998989105225 C5.127999782562256,2.6559998989105225 14.277000427246094,-4.072000026702881 14.277000427246094,-4.072000026702881 C14.277000427246094,-4.072000026702881 3.255000114440918,-3.9019999504089355 3.255000114440918,-3.9019999504089355 C3.255000114440918,-3.9019999504089355 -0.16200000047683716,-13.501999855041504 -0.16200000047683716,-13.501999855041504 C-0.16200000047683716,-13.501999855041504 -3.38700008392334,-3.500999927520752 -3.38700008392334,-3.500999927520752 C-3.38700008392334,-3.500999927520752 -14.277000427246094,-2.88100004196167 -14.277000427246094,-2.88100004196167 C-14.277000427246094,-2.88100004196167 -5.504000186920166,3.063999891281128 -5.504000186920166,3.063999891281128 C-5.504000186920166,3.063999891281128 -8.829999923706055,13.501999855041504 -8.829999923706055,13.501999855041504z"/></g><g opacity="1" transform="matrix(1,0,0,1,455.52099609375,299.9630126953125)"><path fill="rgb(242,242,242)" fill-opacity="1" d=" M-2.181999921798706,14.196999549865723 C-2.181999921798706,14.196999549865723 -3.263000011444092,3.744999885559082 -3.263000011444092,3.744999885559082 C-3.263000011444092,3.744999885559082 -13.371999740600586,-1.2400000095367432 -13.371999740600586,-1.2400000095367432 C-13.371999740600586,-1.2400000095367432 -4.435999870300293,-3.6659998893737793 -4.435999870300293,-3.6659998893737793 C-4.435999870300293,-3.6659998893737793 -5.138000011444092,-14.196999549865723 -5.138000011444092,-14.196999549865723 C-5.138000011444092,-14.196999549865723 2.0739998817443848,-5.00600004196167 2.0739998817443848,-5.00600004196167 C2.0739998817443848,-5.00600004196167 11.394000053405762,-7.111999988555908 11.394000053405762,-7.111999988555908 C11.394000053405762,-7.111999988555908 6.414999961853027,0.8659999966621399 6.414999961853027,0.8659999966621399 C6.414999961853027,0.8659999966621399 13.371999740600586,10.631999969482422 13.371999740600586,10.631999969482422 C13.371999740600586,10.631999969482422 3.1600000858306885,5.908999919891357 3.1600000858306885,5.908999919891357 C3.1600000858306885,5.908999919891357 -2.181999921798706,14.196999549865723 -2.181999921798706,14.196999549865723z"/></g><g opacity="1" transform="matrix(1,0,0,1,439.010009765625,315.7980041503906)"><path fill="rgb(242,242,242)" fill-opacity="1" d=" M8.692000389099121,14.456999778747559 C8.692000389099121,14.456999778747559 -0.30799999833106995,6.414999961853027 -0.30799999833106995,6.414999961853027 C-0.30799999833106995,6.414999961853027 -8.670000076293945,10.946999549865723 -8.670000076293945,10.946999549865723 C-8.670000076293945,10.946999549865723 -5.541999816894531,1.628000020980835 -5.541999816894531,1.628000020980835 C-5.541999816894531,1.628000020980835 -13.925999641418457,-6.047999858856201 -13.925999641418457,-6.047999858856201 C-13.925999641418457,-6.047999858856201 -3.436000108718872,-4.627999782562256 -3.436000108718872,-4.627999782562256 C-3.436000108718872,-4.627999782562256 -0.11699999868869781,-14.456999778747559 -0.11699999868869781,-14.456999778747559 C-0.11699999868869781,-14.456999778747559 3.203000068664551,-3.3510000705718994 3.203000068664551,-3.3510000705718994 C3.203000068664551,-3.3510000705718994 13.925999641418457,-1.180999994277954 13.925999641418457,-1.180999994277954 C13.925999641418457,-1.180999994277954 5.244999885559082,3.6059999465942383 5.244999885559082,3.6059999465942383 C5.244999885559082,3.6059999465942383 8.692000389099121,14.456999778747559 8.692000389099121,14.456999778747559z"/></g><g opacity="1" transform="matrix(1,0,0,1,415.8299865722656,324.5069885253906)"><path fill="rgb(242,242,242)" fill-opacity="1" d=" M2.178999900817871,13.680999755859375 C2.178999900817871,13.680999755859375 -3.0799999237060547,4.584000110626221 -3.0799999237060547,4.584000110626221 C-3.0799999237060547,4.584000110626221 -13.680999755859375,5.13100004196167 -13.680999755859375,5.13100004196167 C-13.680999755859375,5.13100004196167 -6.798999786376953,-2.2300000190734863 -6.798999786376953,-2.2300000190734863 C-6.798999786376953,-2.2300000190734863 -12.064000129699707,-11.890000343322754 -12.064000129699707,-11.890000343322754 C-12.064000129699707,-11.890000343322754 -1.809000015258789,-6.400000095367432 -1.809000015258789,-6.400000095367432 C-1.809000015258789,-6.400000095367432 5.038000106811523,-13.680999755859375 5.038000106811523,-13.680999755859375 C5.038000106811523,-13.680999755859375 4.14900016784668,-2.7829999923706055 4.14900016784668,-2.7829999923706055 C4.14900016784668,-2.7829999923706055 13.680999755859375,2.9609999656677246 13.680999755859375,2.9609999656677246 C13.680999755859375,2.9609999656677246 3.2130000591278076,3.556999921798706 3.2130000591278076,3.556999921798706 C3.2130000591278076,3.556999921798706 2.178999900817871,13.680999755859375 2.178999900817871,13.680999755859375z"/></g><g opacity="1" transform="matrix(1,0,0,1,401.7019958496094,196)"><path fill="rgb(242,242,242)" fill-opacity="1" d=" M-0.06400000303983688,-13.722999572753906 C-0.06400000303983688,-13.722999572753906 3.5959999561309814,-3.2980000972747803 3.5959999561309814,-3.2980000972747803 C3.5959999561309814,-3.2980000972747803 14.190999984741211,-2.2769999504089355 14.190999984741211,-2.2769999504089355 C14.190999984741211,-2.2769999504089355 5.340000152587891,3 5.340000152587891,3 C5.340000152587891,3 8.956999778747559,13.722999572753906 8.956999778747559,13.722999572753906 C8.956999778747559,13.722999572753906 0,6.2769999504089355 0,6.2769999504089355 C0,6.2769999504089355 -8.70199966430664,12.234000205993652 -8.70199966430664,12.234000205993652 C-8.70199966430664,12.234000205993652 -5.5960001945495605,2.0209999084472656 -5.5960001945495605,2.0209999084472656 C-5.5960001945495605,2.0209999084472656 -14.190999984741211,-4.659999847412109 -14.190999984741211,-4.659999847412109 C-14.190999984741211,-4.659999847412109 -3.2980000972747803,-4.105999946594238 -3.2980000972747803,-4.105999946594238 C-3.2980000972747803,-4.105999946594238 -0.06400000303983688,-13.722999572753906 -0.06400000303983688,-13.722999572753906z"/></g><g opacity="1" transform="matrix(1,0,0,1,339.7279968261719,240.78700256347656)"><path fill="rgb(242,242,242)" fill-opacity="1" d=" M0.12300000339746475,-13.871999740600586 C0.12300000339746475,-13.871999740600586 3.5269999504089355,-4.170000076293945 3.5269999504089355,-4.170000076293945 C3.5269999504089355,-4.170000076293945 14.54800033569336,-5.361999988555908 14.54800033569336,-5.361999988555908 C14.54800033569336,-5.361999988555908 5.697000026702881,2 5.697000026702881,2 C5.697000026702881,2 9.16100025177002,11.902999877929688 9.16100025177002,11.902999877929688 C9.16100025177002,11.902999877929688 0.10499999672174454,6.572999954223633 0.10499999672174454,6.572999954223633 C0.10499999672174454,6.572999954223633 -8.472999572753906,13.871999740600586 -8.472999572753906,13.871999740600586 C-8.472999572753906,13.871999740600586 -5.492000102996826,3.2799999713897705 -5.492000102996826,3.2799999713897705 C-5.492000102996826,3.2799999713897705 -14.54800033569336,-2.049999952316284 -14.54800033569336,-2.049999952316284 C-14.54800033569336,-2.049999952316284 -3.3239998817443848,-3.447000026702881 -3.3239998817443848,-3.447000026702881 C-3.3239998817443848,-3.447000026702881 0.12300000339746475,-13.871999740600586 0.12300000339746475,-13.871999740600586z"/></g><g opacity="1" transform="matrix(1,0,0,1,354.6199951171875,217.625)"><path fill="rgb(242,242,242)" fill-opacity="1" d=" M-12.585000038146973,-9.190999984741211 C-12.585000038146973,-9.190999984741211 -2.505000114440918,-5.723999977111816 -2.505000114440918,-5.723999977111816 C-2.505000114440918,-5.723999977111816 5.01800012588501,-14.071999549865723 5.01800012588501,-14.071999549865723 C5.01800012588501,-14.071999549865723 4.081999778747559,-3.4760000705718994 4.081999778747559,-3.4760000705718994 C4.081999778747559,-3.4760000705718994 14.215999603271484,0.546999990940094 14.215999603271484,0.546999990940094 C14.215999603271484,0.546999990940094 3.1659998893737793,3.3259999752044678 3.1659998893737793,3.3259999752044678 C3.1659998893737793,3.3259999752044678 2.0989999771118164,14.071999549865723 2.0989999771118164,14.071999549865723 C2.0989999771118164,14.071999549865723 -3.4030001163482666,5.355999946594238 -3.4030001163482666,5.355999946594238 C-3.4030001163482666,5.355999946594238 -14.215999603271484,8.310999870300293 -14.215999603271484,8.310999870300293 C-14.215999603271484,8.310999870300293 -7.064000129699707,-0.4449999928474426 -7.064000129699707,-0.4449999928474426 C-7.064000129699707,-0.4449999928474426 -12.585000038146973,-9.190999984741211 -12.585000038146973,-9.190999984741211z"/></g><g opacity="1" transform="matrix(1,0,0,1,374.3909912109375,201.93299865722656)"><path fill="rgb(242,242,242)" fill-opacity="1" d=" M-5.236999988555908,-14.173999786376953 C-5.236999988555908,-14.173999786376953 1.871999979019165,-6.105999946594238 1.871999979019165,-6.105999946594238 C1.871999979019165,-6.105999946594238 12.187000274658203,-10.656999588012695 12.187000274658203,-10.656999588012695 C12.187000274658203,-10.656999588012695 6.863999843597412,-1.187999963760376 6.863999843597412,-1.187999963760376 C6.863999843597412,-1.187999963760376 14.289999961853027,7.1570000648498535 14.289999961853027,7.1570000648498535 C14.289999961853027,7.1570000648498535 3.0390000343322754,4.583000183105469 3.0390000343322754,4.583000183105469 C3.0390000343322754,4.583000183105469 -2.5829999446868896,14.173999786376953 -2.5829999446868896,14.173999786376953 C-2.5829999446868896,14.173999786376953 -3.3489999771118164,3.121999979019165 -3.3489999771118164,3.121999979019165 C-3.3489999771118164,3.121999979019165 -14.289999961853027,1.024999976158142 -14.289999961853027,1.024999976158142 C-14.289999961853027,1.024999976158142 -4.070000171661377,-3.484999895095825 -4.070000171661377,-3.484999895095825 C-4.070000171661377,-3.484999895095825 -5.236999988555908,-14.173999786376953 -5.236999988555908,-14.173999786376953z"/></g><g opacity="1" transform="matrix(1,0,0,1,462.1910095214844,250.02099609375)"><path fill="rgb(242,242,242)" fill-opacity="1" d=" M-0.2549999952316284,-14.362000465393066 C-0.2549999952316284,-14.362000465393066 -3.8299999237060547,-4.979000091552734 -3.8299999237060547,-4.979000091552734 C-3.8299999237060547,-4.979000091552734 -14.425999641418457,-7.340000152587891 -14.425999641418457,-7.340000152587891 C-14.425999641418457,-7.340000152587891 -5.427999973297119,0.8889999985694885 -5.427999973297119,0.8889999985694885 C-5.427999973297119,0.8889999985694885 -9.255000114440918,10.65999984741211 -9.255000114440918,10.65999984741211 C-9.255000114440918,10.65999984741211 -0.5740000009536743,5.935999870300293 -0.5740000009536743,5.935999870300293 C-0.5740000009536743,5.935999870300293 8.362000465393066,14.362000465393066 8.362000465393066,14.362000465393066 C8.362000465393066,14.362000465393066 5.043000221252441,3.5739998817443848 5.043000221252441,3.5739998817443848 C5.043000221252441,3.5739998817443848 14.425999641418457,-0.8939999938011169 14.425999641418457,-0.8939999938011169 C14.425999641418457,-0.8939999938011169 3.255000114440918,-3.510999917984009 3.255000114440918,-3.510999917984009 C3.255000114440918,-3.510999917984009 -0.2549999952316284,-14.362000465393066 -0.2549999952316284,-14.362000465393066z"/></g><g opacity="1" transform="matrix(1,0,0,1,465.4150085449219,278.4259948730469)"><path fill="rgb(242,242,242)" fill-opacity="1" d=" M4.5,-13.14900016784668 C4.5,-13.14900016784668 -2.4570000171661377,-7.659999847412109 -2.4570000171661377,-7.659999847412109 C-2.4570000171661377,-7.659999847412109 -11.84000015258789,-13.34000015258789 -11.84000015258789,-13.34000015258789 C-11.84000015258789,-13.34000015258789 -6.670000076293945,-3.255000114440918 -6.670000076293945,-3.255000114440918 C-6.670000076293945,-3.255000114440918 -13.628000259399414,3 -13.628000259399414,3 C-13.628000259399414,3 -3.6700000762939453,3.255000114440918 -3.6700000762939453,3.255000114440918 C-3.6700000762939453,3.255000114440918 1.8630000352859497,13.34000015258789 1.8630000352859497,13.34000015258789 C1.8630000352859497,13.34000015258789 2.7769999504089355,3.382999897003174 2.7769999504089355,3.382999897003174 C2.7769999504089355,3.382999897003174 13.628000259399414,3.7019999027252197 13.628000259399414,3.7019999027252197 C13.628000259399414,3.7019999027252197 3.628999948501587,-3.569999933242798 3.628999948501587,-3.569999933242798 C3.628999948501587,-3.569999933242798 4.5,-13.14900016784668 4.5,-13.14900016784668z"/></g><g opacity="1" transform="matrix(1,0,0,1,447.8940124511719,224.63400268554688)"><path fill="rgb(242,242,242)" fill-opacity="1" d=" M12,-7.61299991607666 C12,-7.61299991607666 2.180000066757202,-4.98199987411499 2.180000066757202,-4.98199987411499 C2.180000066757202,-4.98199987411499 -4.979000091552734,-14.571000099182129 -4.979000091552734,-14.571000099182129 C-4.979000091552734,-14.571000099182129 -3.8299999237060547,-3.6559998989105225 -3.8299999237060547,-3.6559998989105225 C-3.8299999237060547,-3.6559998989105225 -13.595999717712402,-1.2940000295639038 -13.595999717712402,-1.2940000295639038 C-13.595999717712402,-1.2940000295639038 -3.190999984741211,3.0460000038146973 -3.190999984741211,3.0460000038146973 C-3.190999984741211,3.0460000038146973 -1.965999960899353,14.571000099182129 -1.965999960899353,14.571000099182129 C-1.965999960899353,14.571000099182129 2.871999979019165,5.790999889373779 2.871999979019165,5.790999889373779 C2.871999979019165,5.790999889373779 13.595999717712402,10.067999839782715 13.595999717712402,10.067999839782715 C13.595999717712402,10.067999839782715 6.829999923706055,0.8119999766349792 6.829999923706055,0.8119999766349792 C6.829999923706055,0.8119999766349792 12,-7.61299991607666 12,-7.61299991607666z"/></g><g opacity="1" transform="matrix(1,0,0,1,428.6809997558594,206.78900146484375)"><path fill="rgb(242,242,242)" fill-opacity="1" d=" M4.88100004196167,-13.6850004196167 C4.88100004196167,-13.6850004196167 -2.0429999828338623,-7.000999927520752 -2.0429999828338623,-7.000999927520752 C-2.0429999828338623,-7.000999927520752 -11.935999870300293,-12.555000305175781 -11.935999870300293,-12.555000305175781 C-11.935999870300293,-12.555000305175781 -6.956999778747559,-2.6610000133514404 -6.956999778747559,-2.6610000133514404 C-6.956999778747559,-2.6610000133514404 -13.65999984741211,4.360000133514404 -13.65999984741211,4.360000133514404 C-13.65999984741211,4.360000133514404 -3.5739998817443848,3.4670000076293945 -3.5739998817443848,3.4670000076293945 C-3.5739998817443848,3.4670000076293945 2.0969998836517334,13.6850004196167 2.0969998836517334,13.6850004196167 C2.0969998836517334,13.6850004196167 3.1610000133514404,3.2300000190734863 3.1610000133514404,3.2300000190734863 C3.1610000133514404,3.2300000190734863 13.65999984741211,3.0840001106262207 13.65999984741211,3.0840001106262207 C13.65999984741211,3.0840001106262207 3.818000078201294,-3.2300000190734863 3.818000078201294,-3.2300000190734863 C3.818000078201294,-3.2300000190734863 4.88100004196167,-13.6850004196167 4.88100004196167,-13.6850004196167z"/></g></g><g style="display: block;" transform="matrix(0.800000011920929,0,0,0.800000011920929,257.9656066894531,250.03680419921875)" opacity="0.35000000000000003"><g opacity="1" transform="matrix(1,0,0,1,0,0)"><path fill="url(#__lottie_element_9668)" mask="url(#__lottie_element_9670)" fill-opacity="1" d="M0 0 M-246.5,-145.5 C-246.5,-139 -246.5,144.218994140625 -246.5,146.593994140625 C-244.71200561523438,146.76499938964844 -241.55099487304688,147.5780029296875 -237.75900268554688,148.50999450683594 C-220.5,152.75 -191.07200622558594,159.75999450683594 -178.26499938964844,161.58399963378906 C-147.25,166 -127.13200378417969,165.62600708007812 -103.76799774169922,164.74600219726562 C-50.75,162.75 -4.125,146.125 27.19499969482422,139.3300018310547 C47.95800018310547,134.8249969482422 68.79000091552734,130.64500427246094 83.74700164794922,128.94000244140625 C106.25,126.375 122.875,126.75 143.25,128.35899353027344 C183.33700561523438,131.52499389648438 217.79400634765625,139.2030029296875 241.43800354003906,147.031005859375 C241.43800354003906,147.09300231933594 241.406005859375,147.09300231933594 241.406005859375,147.06199645996094 C241.406005859375,147.06199645996094 241.406005859375,147.06199645996094 241.406005859375,147.06199645996094 C241.56199645996094,120.56199645996094 241.23399353027344,82.29100036621094 241.25,49.90599822998047 C241.26600646972656,17.08300018310547 241.43699645996094,-15.739999771118164 241.5,-48.5629997253418 C241.56199645996094,-80.91699981689453 241.5,-128.75 241.625,-145.625 C151.281005859375,-172.5 103.15699768066406,-165.1009979248047 78.5,-162.81199645996094 C23.042999267578125,-156.04600524902344 -48.707000732421875,-130.79600524902344 -83.375,-129.06199645996094 C-157.875,-120.1240005493164 -212.75,-139.625 -246.5,-145.5z"/></g></g><g style="display: block;" transform="matrix(0.800000011920929,0,0,0.800000011920929,257.9656066894531,250.03680419921875)" opacity="0.15"><g opacity="1" transform="matrix(1,0,0,1,0,0)"><path fill="rgb(255,255,255)" fill-opacity="1" d=" M-246.875,-146 C-246.83700561523438,-139.70399475097656 -246.875,-138 -246.79200744628906,-132.81100463867188 C-237.5,-136.25 -197.25,-114 -124.49600219726562,-114.31099700927734 C-38.992000579833984,-114.6760025024414 39.233001708984375,-153.25 121.70800018310547,-153.39700317382812 C179.75,-153.5 241,-132.25 240.91200256347656,-131.552001953125 C241,-140.5 241.375,-144.625 241.375,-144.625 C241.375,-144.625 179.75,-166.25 122.5,-166 C39.49700164794922,-165.63800048828125 -39.5,-128 -124.25,-126.81199645996094 C-197.0449981689453,-125.79199981689453 -237.75,-149 -246.875,-146z"/></g></g><g style="display: block;" transform="matrix(0.800000011920929,0,0,0.800000011920929,257.9656066894531,250.03680419921875)" opacity="0.15"><g opacity="1" transform="matrix(1,0,0,1,0,0)"><path fill="rgb(0,0,0)" fill-opacity="1" d=" M122.5,112.25 C34,112.25 -36,149.5 -123.5,152 C-140.61700439453125,152.48899841308594 -155.82000732421875,151.3489990234375 -170.41099548339844,149.1280059814453 C-195.23399353027344,145.35000610351562 -218.28900146484375,138.4459991455078 -246,131.125 C-246.25,134.5 -246,141.375 -246,145.125 C-218.5749969482422,153.30599975585938 -195.61700439453125,159.55499267578125 -170.83099365234375,163.0050048828125 C-155.8520050048828,165.08999633789062 -140.20399475097656,166.15199279785156 -122.5,166 C-35,165.25 33.5,126.625 121.75,126.5 C126.26799774169922,126.49400329589844 131.11399841308594,126.59500122070312 136.27699279785156,126.83899688720703 C163.25900268554688,128.11300659179688 198.88099670410156,133.2550048828125 241.375,147 C241.375,147 241.25,134.75 241.5,131.125 C199.093994140625,118.93299865722656 163.16200256347656,113.84500122070312 136.1439971923828,112.58000183105469 C131.30499267578125,112.35399627685547 126.75299835205078,112.25 122.5,112.25z"/></g></g><g style="display: block;" transform="matrix(0.800000011920929,0,0,0.800000011920929,257.9656066894531,250.03680419921875)" opacity="1"><g opacity="1" transform="matrix(1,0,0,1,0,0)"><path stroke-linecap="round" stroke-linejoin="round" fill-opacity="0" stroke="rgb(12,7,38)" stroke-opacity="1" stroke-width="8" d=" M-246.5,-145.5 C-246.5,-139 -246.5,144.218994140625 -246.5,146.593994140625 C-244.71200561523438,146.76499938964844 -241.55099487304688,147.5780029296875 -237.75900268554688,148.50999450683594 C-220.5,152.75 -191.07200622558594,159.75999450683594 -178.26499938964844,161.58399963378906 C-147.25,166 -127.13200378417969,165.62600708007812 -103.76799774169922,164.74600219726562 C-50.75,162.75 -4.125,146.125 27.19499969482422,139.3300018310547 C47.95800018310547,134.8249969482422 68.79000091552734,130.64500427246094 83.74700164794922,128.94000244140625 C106.25,126.375 122.875,126.75 143.25,128.35899353027344 C183.33700561523438,131.52499389648438 217.79400634765625,139.2030029296875 241.43800354003906,147.031005859375 C241.43800354003906,147.09300231933594 241.406005859375,147.09300231933594 241.406005859375,147.06199645996094 C241.406005859375,147.06199645996094 241.406005859375,147.06199645996094 241.406005859375,147.06199645996094 C241.56199645996094,120.56199645996094 241.23399353027344,82.29100036621094 241.25,49.90599822998047 C241.26600646972656,17.08300018310547 241.43699645996094,-15.739999771118164 241.5,-48.5629997253418 C241.56199645996094,-80.91699981689453 241.5,-128.75 241.625,-145.625 C151.281005859375,-172.5 103.15699768066406,-165.1009979248047 78.5,-162.81199645996094 C23.042999267578125,-156.04600524902344 -48.707000732421875,-130.79600524902344 -83.375,-129.06199645996094 C-157.875,-120.1240005493164 -212.75,-139.625 -246.5,-145.5z"/></g></g></g></svg>