<svg xmlns="http://www.w3.org/2000/svg" xmlns:xlink="http://www.w3.org/1999/xlink" viewBox="0 0 512 512" width="512" height="512" style="width: 100%; height: 100%; transform: translate3d(0,0,0);" preserveAspectRatio="xMidYMid meet"><defs><clipPath id="__lottie_element_47709"><rect width="512" height="512" x="0" y="0"/></clipPath><clipPath id="__lottie_element_47712"><path d="M0,0 L512,0 L512,512 L0,512z"/></clipPath><linearGradient id="__lottie_element_47722" spreadMethod="pad" gradientUnits="userSpaceOnUse" x1="20.62700080871582" y1="-89.74800109863281" x2="-74.66300201416016" y2="-87.90699768066406"><stop offset="0%" stop-color="rgb(255,255,255)"/><stop offset="100%" stop-color="rgb(0,0,0)"/></linearGradient><linearGradient id="__lottie_element_47734" spreadMethod="pad" gradientUnits="userSpaceOnUse"><stop/><stop/><stop/></linearGradient><linearGradient id="__lottie_element_47862" spreadMethod="pad" gradientUnits="userSpaceOnUse"><stop/><stop/><stop/></linearGradient><linearGradient id="__lottie_element_47899" spreadMethod="pad" gradientUnits="userSpaceOnUse"><stop/><stop/><stop/></linearGradient><linearGradient id="__lottie_element_47909" spreadMethod="pad" gradientUnits="userSpaceOnUse" x1="-89.79100036621094" y1="63.70500183105469" x2="39.650001525878906" y2="63.70500183105469"><stop offset="0%" stop-color="rgb(230,228,231)"/><stop offset="50%" stop-color="rgb(184,180,184)"/><stop offset="100%" stop-color="rgb(137,131,136)"/></linearGradient><linearGradient id="__lottie_element_47949" spreadMethod="pad" gradientUnits="userSpaceOnUse" x1="-5739.373046875" y1="1832.708984375" x2="-5683.89892578125" y2="1832.7869873046875"><stop offset="21%" stop-color="rgb(218,216,216)"/><stop offset="53%" stop-color="rgb(195,193,194)"/><stop offset="86%" stop-color="rgb(172,170,171)"/></linearGradient><linearGradient id="__lottie_element_48005" spreadMethod="pad" gradientUnits="userSpaceOnUse"><stop/><stop/><stop/></linearGradient><clipPath id="__lottie_element_48007"><path d="M0,0 L512,0 L512,512 L0,512z"/></clipPath><linearGradient id="__lottie_element_48017" spreadMethod="pad" gradientUnits="userSpaceOnUse"><stop/><stop/></linearGradient><linearGradient id="__lottie_element_48029" spreadMethod="pad" gradientUnits="userSpaceOnUse"><stop/><stop/><stop/></linearGradient><linearGradient id="__lottie_element_48157" spreadMethod="pad" gradientUnits="userSpaceOnUse"><stop/><stop/><stop/></linearGradient><linearGradient id="__lottie_element_48194" spreadMethod="pad" gradientUnits="userSpaceOnUse"><stop/><stop/><stop/></linearGradient><linearGradient id="__lottie_element_48204" spreadMethod="pad" gradientUnits="userSpaceOnUse"><stop/><stop/><stop/></linearGradient><linearGradient id="__lottie_element_48244" spreadMethod="pad" gradientUnits="userSpaceOnUse"><stop/><stop/><stop/></linearGradient><linearGradient id="__lottie_element_48300" spreadMethod="pad" gradientUnits="userSpaceOnUse"><stop/><stop/><stop/></linearGradient></defs><g clip-path="url(#__lottie_element_47709)"><g clip-path="url(#__lottie_element_47712)" style="display: block;" transform="matrix(1.0299999713897705,0,0,1.0299999713897705,-11.679994583129883,-3.6799941062927246)" opacity="1"><g style="display: block;" transform="matrix(0.6630526185035706,-0.6630526185035706,0.6630526185035706,0.6630526185035706,82.50899505615234,428.7561950683594)" opacity="1"><g opacity="1" transform="matrix(1,0,0,1,0,0)"><path fill="rgb(152,146,156)" fill-opacity="1" d=" M9.291999816894531,-35.66699981689453 C6.551000118255615,-35.5880012512207 0.3479999899864197,-35.67399978637695 0.3479999899864197,-35.67399978637695 C-7.408999919891357,-35.68199920654297 -14.27299976348877,-19.709999084472656 -14.305999755859375,-0.017999999225139618 C-14.33899974822998,19.68400001525879 -7.5289998054504395,35.659000396728516 0.2280000001192093,35.66699981689453 C0.2280000001192093,35.66699981689453 4.545000076293945,36.402000427246094 9.17199993133545,35.67399978637695 C13.798999786376953,34.94599914550781 22.69499969482422,27.16900062561035 23.19700050354004,1.0049999952316284 C23.698999404907227,-25.159000396728516 12.032999992370605,-35.74599838256836 9.291999816894531,-35.66699981689453z"/><path stroke-linecap="round" stroke-linejoin="round" fill-opacity="0" stroke="rgb(152,146,156)" stroke-opacity="1" stroke-width="8" d=" M9.291999816894531,-35.66699981689453 C6.551000118255615,-35.5880012512207 0.3479999899864197,-35.67399978637695 0.3479999899864197,-35.67399978637695 C-7.408999919891357,-35.68199920654297 -14.27299976348877,-19.709999084472656 -14.305999755859375,-0.017999999225139618 C-14.33899974822998,19.68400001525879 -7.5289998054504395,35.659000396728516 0.2280000001192093,35.66699981689453 C0.2280000001192093,35.66699981689453 4.545000076293945,36.402000427246094 9.17199993133545,35.67399978637695 C13.798999786376953,34.94599914550781 22.69499969482422,27.16900062561035 23.19700050354004,1.0049999952316284 C23.698999404907227,-25.159000396728516 12.032999992370605,-35.74599838256836 9.291999816894531,-35.66699981689453z"/></g></g><g style="display: block;" transform="matrix(0.6630526185035706,-0.6630526185035706,0.6630526185035706,0.6630526185035706,88.3319320678711,422.937255859375)" opacity="1"><g opacity="1" transform="matrix(1,0,0,1,0,0)"><path fill="rgb(217,215,216)" fill-opacity="1" d=" M0.3930000066757202,35.67100143432617 C-8.552000045776367,35.67100143432617 -15.234000205993652,19.687000274658203 -15.201000213623047,-0.014999999664723873 C-15.168000221252441,-19.70599937438965 -8.432000160217285,-35.67100143432617 0.5130000114440918,-35.67100143432617 C8.253999710083008,-35.67100143432617 15.234000205993652,-19.676000595092773 15.201000213623047,0.014999999664723873 C15.168000221252441,19.716999053955078 8.133999824523926,35.67100143432617 0.3930000066757202,35.67100143432617z"/><path stroke-linecap="round" stroke-linejoin="round" fill-opacity="0" stroke="rgb(152,146,156)" stroke-opacity="1" stroke-width="8" d=" M0.3930000066757202,35.67100143432617 C-8.552000045776367,35.67100143432617 -15.234000205993652,19.687000274658203 -15.201000213623047,-0.014999999664723873 C-15.168000221252441,-19.70599937438965 -8.432000160217285,-35.67100143432617 0.5130000114440918,-35.67100143432617 C8.253999710083008,-35.67100143432617 15.234000205993652,-19.676000595092773 15.201000213623047,0.014999999664723873 C15.168000221252441,19.716999053955078 8.133999824523926,35.67100143432617 0.3930000066757202,35.67100143432617z"/></g></g><g style="display: block;" transform="matrix(0.6630526185035706,-0.6630526185035706,0.6630526185035706,0.6630526185035706,122.68070220947266,388.66937255859375)" opacity="1"><g opacity="1" transform="matrix(1,0,0,1,0,0)"><path fill="url(#__lottie_element_47949)" fill-opacity="1" d=" M50.71799850463867,0.061000000685453415 C50.73400115966797,-9.269000053405762 48.22700119018555,-16.836000442504883 45.12099838256836,-16.839000701904297 C45.12099838256836,-16.839000701904297 -45.064998626708984,-16.947999954223633 -45.064998626708984,-16.947999954223633 C-48.17100143432617,-16.951000213623047 -50.70199966430664,-9.390000343322754 -50.71799850463867,-0.05999999865889549 C-50.73400115966797,9.270000457763672 -48.22800064086914,16.836000442504883 -45.12200164794922,16.839000701904297 C-45.12200164794922,16.839000701904297 45.064998626708984,16.947999954223633 45.064998626708984,16.947999954223633 C48.17100143432617,16.951000213623047 50.70199966430664,9.390999794006348 50.71799850463867,0.061000000685453415z"/></g></g><g style="display: block;" transform="matrix(0.6630526185035706,-0.6630526185035706,0.6630526185035706,0.6630526185035706,117.30931091308594,396.2566833496094)" opacity="0.5"><g opacity="1" transform="matrix(1,0,0,1,0,0)"><path fill="rgb(152,146,156)" fill-opacity="1" d=" M-40.95000076293945,6.261000156402588 C-40.95000076293945,6.261000156402588 -41.97800064086914,-2.303999900817871 -42.76599884033203,-6.3420000076293945 C-42.76599884033203,-6.3420000076293945 42.76599884033203,-6.256999969482422 42.76599884033203,-6.256999969482422 C42.76599884033203,-6.256999969482422 41.33100128173828,6.3420000076293945 41.33100128173828,6.3420000076293945 C41.33100128173828,6.3420000076293945 -40.95000076293945,6.261000156402588 -40.95000076293945,6.261000156402588z"/></g></g><g style="display: block;" transform="matrix(0.6630526185035706,-0.6630526185035706,0.6630526185035706,0.6630526185035706,120.81951141357422,390.51861572265625)" opacity="1"><g opacity="1" transform="matrix(1,0,0,1,0,0)"><path stroke-linecap="round" stroke-linejoin="round" fill-opacity="0" stroke="rgb(152,146,156)" stroke-opacity="1" stroke-width="8" d=" M47.91999816894531,-16.849000930786133 C47.91999816894531,-16.849000930786133 -42.26599884033203,-16.93899917602539 -42.26599884033203,-16.93899917602539 C-45.37200164794922,-16.941999435424805 -47.90299987792969,-9.380999565124512 -47.91899871826172,-0.050999999046325684 C-47.935001373291016,9.279000282287598 -45.42900085449219,16.84600067138672 -42.323001861572266,16.849000930786133 C-42.323001861572266,16.849000930786133 47.862998962402344,16.93899917602539 47.862998962402344,16.93899917602539 C47.862998962402344,16.93899917602539 47.91999816894531,-16.849000930786133 47.91999816894531,-16.849000930786133z"/></g></g><g style="display: block;" transform="matrix(0.6630526185035706,-0.6630526185035706,0.6630526185035706,0.6630526185035706,129.28933715820312,382.0832824707031)" opacity="0.3"><g opacity="1" transform="matrix(1,0,0,1,0,0)"><path fill="rgb(119,107,127)" fill-opacity="1" d=" M24.39900016784668,20.857999801635742 C24.39900016784668,20.857999801635742 -19.826000213623047,20.81399917602539 -19.826000213623047,20.81399917602539 C-22.222000122070312,17.400999069213867 -24.506000518798828,8.12600040435791 -24.444000244140625,-0.7839999794960022 C-24.393999099731445,-8.038000106811523 -23.08300018310547,-16.676000595092773 -19.756000518798828,-20.857999801635742 C-19.756000518798828,-20.857999801635742 24.44499969482422,-20.812999725341797 24.44499969482422,-20.812999725341797 C22.71299934387207,-14.246999740600586 21.78700065612793,-7.244999885559082 21.774999618530273,0.009999999776482582 C21.76300048828125,7.283999919891357 22.67799949645996,14.279000282287598 24.39900016784668,20.857999801635742z"/></g></g><g style="display: block;" transform="matrix(0.6630526185035706,-0.6630526185035706,0.6630526185035706,0.6630526185035706,136.28985595703125,375.1026611328125)" opacity="1"><g opacity="1" transform="matrix(1,0,0,1,0,0)"><path fill="rgb(165,172,178)" fill-opacity="1" d=" M15.178999900817871,56.20800018310547 C15.178999900817871,56.20800018310547 4.802999973297119,56.196998596191406 4.802999973297119,56.196998596191406 C-22.209999084472656,56.167999267578125 -22.03700065612793,-56.231998443603516 4.993000030517578,-56.202999114990234 C4.993000030517578,-56.202999114990234 15.369000434875488,-56.19200134277344 15.369000434875488,-56.19200134277344 C-10.163000106811523,-57.709999084472656 -14.493000030517578,47.23500061035156 15.178999900817871,56.20800018310547z"/></g></g><g style="display: block;" transform="matrix(0.6630526185035706,-0.6630526185035706,0.6630526185035706,0.6630526185035706,136.21095275878906,375.185546875)" opacity="1"><g opacity="1" transform="matrix(1,0,0,1,0,0)"><path stroke-linecap="round" stroke-linejoin="round" fill-opacity="0" stroke="rgb(165,172,178)" stroke-opacity="1" stroke-width="8" d=" M15.302000045776367,56.20500183105469 C15.302000045776367,56.20500183105469 4.926000118255615,56.194000244140625 4.926000118255615,56.194000244140625 C-6.419000148773193,56.18199920654297 -15.543000221252441,31.006000518798828 -15.491000175476074,-0.02800000086426735 C-15.439000129699707,-31.051000595092773 -6.230000019073486,-56.21699905395508 5.114999771118164,-56.20500183105469 C5.114999771118164,-56.20500183105469 15.491000175476074,-56.194000244140625 15.491000175476074,-56.194000244140625"/></g></g><g style="display: block;" transform="matrix(0.6630526185035706,-0.6630526185035706,0.6630526185035706,0.6630526185035706,146.85427856445312,365.4559020996094)" opacity="0.6"><g opacity="1" transform="matrix(1,0,0,1,0,0)"><path fill="rgb(230,228,231)" fill-opacity="1" d=" M-0.08299999684095383,56.196998596191406 C-11.42199993133545,56.185001373291016 -20.55299949645996,31.017000198364258 -20.500999450683594,-0.02199999988079071 C-20.448999404907227,-31.045000076293945 -11.232999801635742,-56.20899963378906 0.10599999874830246,-56.196998596191406 C11.42199993133545,-56.185001373291016 20.55299949645996,-31.000999450683594 20.500999450683594,0.02199999988079071 C20.448999404907227,31.06100082397461 11.232999801635742,56.20899963378906 -0.08299999684095383,56.196998596191406z"/></g></g><g style="display: block;" transform="matrix(0.6630526185035706,-0.6630526185035706,0.6630526185035706,0.6630526185035706,145.9472198486328,365.4559020996094)" opacity="1"><g opacity="1" transform="matrix(1,0,0,1,0,0)"><path stroke-linecap="round" stroke-linejoin="round" fill-opacity="0" stroke="rgb(165,172,178)" stroke-opacity="1" stroke-width="8" d=" M-0.08299999684095383,56.196998596191406 C-11.42199993133545,56.185001373291016 -20.55299949645996,31.017000198364258 -20.500999450683594,-0.02199999988079071 C-20.448999404907227,-31.045000076293945 -11.232999801635742,-56.20899963378906 0.10599999874830246,-56.196998596191406 C11.42199993133545,-56.185001373291016 20.55299949645996,-31.000999450683594 20.500999450683594,0.02199999988079071 C20.448999404907227,31.06100082397461 11.232999801635742,56.20899963378906 -0.08299999684095383,56.196998596191406z"/></g></g><g style="display: block;" transform="matrix(0.6630526185035706,-0.6630526185035706,0.6630526185035706,0.6630526185035706,149.4163055419922,361.9934387207031)" opacity="1"><g opacity="1" transform="matrix(1,0,0,1,0,0)"><path fill="rgb(160,169,177)" fill-opacity="1" d=" M-0.05299999937415123,33.520999908447266 C-3.2309999465942383,33.516998291015625 -5.776000022888184,18.509000778198242 -5.744999885559082,-0.006000000052154064 C-5.714000225067139,-18.51099967956543 -3.118000030517578,-33.52399826049805 0.05999999865889549,-33.520999908447266 C3.2309999465942383,-33.518001556396484 5.776000022888184,-18.499000549316406 5.744999885559082,0.006000000052154064 C5.714000225067139,18.520999908447266 3.118000030517578,33.52399826049805 -0.05299999937415123,33.520999908447266z"/><path stroke-linecap="round" stroke-linejoin="round" fill-opacity="0" stroke="rgb(125,133,144)" stroke-opacity="1" stroke-width="5" d=" M-0.05299999937415123,33.520999908447266 C-3.2309999465942383,33.516998291015625 -5.776000022888184,18.509000778198242 -5.744999885559082,-0.006000000052154064 C-5.714000225067139,-18.51099967956543 -3.118000030517578,-33.52399826049805 0.05999999865889549,-33.520999908447266 C3.2309999465942383,-33.518001556396484 5.776000022888184,-18.499000549316406 5.744999885559082,0.006000000052154064 C5.714000225067139,18.520999908447266 3.118000030517578,33.52399826049805 -0.05299999937415123,33.520999908447266z"/></g></g><g style="display: block;" transform="matrix(0.6630526185035706,-0.6630526185035706,0.6630526185035706,0.6630526185035706,245.7598419189453,266.6617431640625)" opacity="0.36"><g opacity="1" transform="matrix(1,0,0,1,0,0)"><path fill="url(#__lottie_element_47722)" fill-opacity="1" d=" M151.36099243164062,-0.4819999933242798 C151.39700317382812,-21.964000701904297 145.98899841308594,-39.38399887084961 136.73399353027344,-38.75899887084961 C129.57699584960938,-38.76599884033203 -126.45999908447266,-39.00299835205078 -141.697998046875,-39.016998291015625 C-145.85800170898438,-39.65700149536133 -151.3249969482422,-22.24799919128418 -151.36099243164062,-0.765999972820282 C-151.39700317382812,20.715999603271484 -145.98800659179688,38.13600158691406 -141.8280029296875,38.7760009765625 C-124.94499969482422,38.79199981689453 135.38999938964844,39.03300094604492 136.60299682617188,39.034000396728516 C145.85800170898438,38.409000396728516 151.3249969482422,21 151.36099243164062,-0.4819999933242798z"/></g></g><g style="display: block;" transform="matrix(0.6630526185035706,-0.6630526185035706,0.6630526185035706,0.6630526185035706,138.06419372558594,350.84820556640625)" opacity="1"><g opacity="1" transform="matrix(1,0,0,1,0,0)"><path stroke-linecap="round" stroke-linejoin="round" fill-opacity="0" stroke="rgb(141,134,145)" stroke-opacity="1" stroke-width="8" d=" M-5,0 C-5,0 5,0 5,0"/></g></g><g style="display: block;" transform="matrix(0.6630526185035706,-0.6630526185035706,0.6630526185035706,0.6630526185035706,160.94879150390625,372.7633972167969)" opacity="1"><g opacity="1" transform="matrix(1,0,0,1,0,0)"><path stroke-linecap="round" stroke-linejoin="round" fill-opacity="0" stroke="rgb(141,134,145)" stroke-opacity="1" stroke-width="8" d=" M-4.211999893188477,0 C-4.211999893188477,0 4.211999893188477,0 4.211999893188477,0"/></g></g><g style="display: block;" transform="matrix(0.6630526185035706,-0.6630526185035706,0.6630526185035706,0.6630526185035706,149.13650512695312,362.1300354003906)" opacity="0.4"><g opacity="1" transform="matrix(1,0,0,1,0,0)"><path fill="rgb(50,44,53)" fill-opacity="1" d=" M3.944999933242798,-20.93199920654297 C3.944999933242798,-20.93199920654297 -2.7850000858306885,-20.677000045776367 -2.7850000858306885,-20.677000045776367 C-2.7850000858306885,-20.677000045776367 -5.447999954223633,2.3959999084472656 -2.7039999961853027,20.93199920654297 C-2.7039999961853027,20.93199920654297 3.5399999618530273,20.93199920654297 3.5399999618530273,20.93199920654297 C3.5399999618530273,20.93199920654297 3.944999933242798,-20.93199920654297 3.944999933242798,-20.93199920654297z"/></g></g><g style="display: block;" transform="matrix(0.6630526185035706,-0.6630526185035706,0.6630526185035706,0.6630526185035706,202.95846557617188,309.29998779296875)" opacity="1"><g opacity="1" transform="matrix(1,0,0,1,0,0)"><path stroke-linecap="round" stroke-linejoin="round" fill-opacity="0" stroke="rgb(165,172,178)" stroke-opacity="1" stroke-width="8" d=" M86.72799682617188,-38.74100112915039 C86.72799682617188,-38.74100112915039 -77.26899719238281,-38.893001556396484 -77.26899719238281,-38.893001556396484 C-81.42900085449219,-39.53300094604492 -86.89600372314453,-22.124000549316406 -86.93199920654297,-0.6420000195503235 C-86.96800231933594,20.84000015258789 -81.55899810791016,38.2599983215332 -77.39900207519531,38.900001525878906 C-77.39900207519531,38.900001525878906 86.93199920654297,38.731998443603516 86.93199920654297,38.731998443603516"/></g></g><g style="display: block;" transform="matrix(0.6630526185035706,-0.6630526185035706,0.6630526185035706,0.6630526185035706,195.99575805664062,315.73492431640625)" opacity="1"><g opacity="1" transform="matrix(1,0,0,1,0,0)"><path fill="url(#__lottie_element_47909)" fill-opacity="1" d=" M71.1729965209961,24.183000564575195 C71.1729965209961,24.183000564575195 -61.737998962402344,23.496000289916992 -61.737998962402344,23.496000289916992 C-61.737998962402344,23.496000289916992 -66.26200103759766,17.510000228881836 -66.26200103759766,17.510000228881836 C-66.26200103759766,17.510000228881836 -64.62899780273438,17.496999740600586 -64.62899780273438,17.496999740600586 C-65.3949966430664,12.390999794006348 -67.82499694824219,5.830999851226807 -67.81500244140625,-0.22200000286102295 C-67.80500030517578,-6.275000095367432 -64.7750015258789,-13.331999778747559 -63.992000579833984,-18.43600082397461 C-63.992000579833984,-18.43600082397461 -65.09400177001953,-18.420000076293945 -65.09400177001953,-18.420000076293945 C-65.09400177001953,-18.420000076293945 -61.11000061035156,-24.183000564575195 -61.11000061035156,-24.183000564575195 C-61.11000061035156,-24.183000564575195 71.22899627685547,-23.499000549316406 71.22899627685547,-23.499000549316406 C74.33499908447266,-23.50200080871582 76.83799743652344,-8.8149995803833 76.83100128173828,0.5120000243186951 C76.81500244140625,9.845999717712402 74.27899932861328,24.179000854492188 71.1729965209961,24.183000564575195z"/></g></g><g style="display: block;" transform="matrix(0.6630526185035706,-0.6630526185035706,0.6630526185035706,0.6630526185035706,234.2286834716797,279.728515625)" opacity="0.3"><g opacity="1" transform="matrix(1,0,0,1,0,0)"><path fill="rgb(116,110,119)" fill-opacity="1" d=" M-125.08999633789062,8.126999855041504 C-125.08999633789062,8.126999855041504 -122.72699737548828,-5.308000087738037 -126.06300354003906,-8.71399974822998 C-126.06300354003906,-8.71399974822998 120.86699676513672,-8.300000190734863 120.86699676513672,-8.300000190734863 C120.86699676513672,-8.300000190734863 121.99700164794922,8.536999702453613 121.99700164794922,8.536999702453613 C121.99700164794922,8.536999702453613 -125.08999633789062,8.126999855041504 -125.08999633789062,8.126999855041504z"/></g></g><g style="display: block;" transform="matrix(0.6630526185035706,-0.6630526185035706,0.6630526185035706,0.6630526185035706,195.38243103027344,316.6943664550781)" opacity="1"><g opacity="1" transform="matrix(1,0,0,1,0,0)"><path stroke-linecap="round" stroke-linejoin="round" fill-opacity="0" stroke="rgb(149,144,153)" stroke-opacity="1" stroke-width="8" d=" M64.4469985961914,-23.035999298095703 C63.882999420166016,-23.035999298095703 69.88099670410156,-22.851999282836914 -62.90299987792969,-22.948999404907227 C-65.37699890136719,-23.32900047302246 -68.62899780273438,-12.97700023651123 -68.6500015258789,-0.20200000703334808 C-68.6709976196289,12.572999954223633 -65.45500183105469,22.93199920654297 -62.98099899291992,23.312000274658203 C76.71700286865234,23.197999954223633 63.018001556396484,23.035999298095703 64.56800079345703,23.03499984741211"/></g></g><g style="display: block;" transform="matrix(0.6630526185035706,-0.6630526185035706,0.6630526185035706,0.6630526185035706,236.68728637695312,275.8947448730469)" opacity="0.1"><g opacity="1" transform="matrix(1,0,0,1,0,0)"><path fill="rgb(50,44,53)" fill-opacity="1" d=" M29.549999237060547,27.20199966430664 C29.549999237060547,27.20199966430664 -24.437999725341797,27.145000457763672 -24.437999725341797,27.145000457763672 C-32.290000915527344,10.293999671936035 -30.333999633789062,-19.305999755859375 -24.347000122070312,-27.20199966430664 C-24.347000122070312,-27.20199966430664 29.610000610351562,-27.143999099731445 29.610000610351562,-27.143999099731445 C25.06399917602539,-9.904999732971191 24.886999130249023,9.378000259399414 29.549999237060547,27.20199966430664z"/></g></g><g style="display: block;" transform="matrix(0.6630526185035706,-0.6630526185035706,0.6630526185035706,0.6630526185035706,294.1275329589844,217.95852661132812)" opacity="1"><g opacity="1" transform="matrix(1,0,0,1,0,0)"><path fill="rgb(135,178,204)" fill-opacity="1" d=" M66.06600189208984,38.6510009765625 C66.06600189208984,38.6510009765625 -66.1969985961914,39.14400100708008 -66.1969985961914,39.14400100708008 C-73.2300033569336,39.137001037597656 -78.30799865722656,20.570999145507812 -78.27400207519531,0.23399999737739563 C-78.23999786376953,-20.180999755859375 -73.06500244140625,-38.65800094604492 -66.06600189208984,-38.650001525878906 C-66.06600189208984,-38.650001525878906 66.1969985961914,-39.14400100708008 66.1969985961914,-39.14400100708008 C72.90299987792969,-39.137001037597656 78.30999755859375,-21.707000732421875 78.27400207519531,-0.23399999737739563 C78.23799896240234,21.25 72.77200317382812,38.65800094604492 66.06600189208984,38.6510009765625z"/></g></g><g style="display: block;" transform="matrix(0.6630526185035706,-0.6630526185035706,0.6630526185035706,0.6630526185035706,336.3162536621094,175.43032836914062)" opacity="1"><g opacity="1" transform="matrix(1,0,0,1,0,0)"><path fill="rgb(186,203,214)" fill-opacity="1" d=" M2.447000026702881,38.89099884033203 C-0.21199999749660492,37.152000427246094 -2.2769999504089355,34.91699981689453 -2.2769999504089355,34.91699981689453 C-2.2769999504089355,34.91699981689453 -7.361000061035156,35.02299880981445 -7.361000061035156,35.02299880981445 C-16.357999801635742,20.95400047302246 -16.4060001373291,-20.0310001373291 -7.484000205993652,-34.63399887084961 C-7.484000205993652,-34.63399887084961 -2.611999988555908,-34.4010009765625 -2.611999988555908,-34.4010009765625 C-2.611999988555908,-34.4010009765625 -1.0640000104904175,-36.952999114990234 1.5950000286102295,-38.89099884033203 C1.5950000286102295,-38.89099884033203 2.203000068664551,-38.89099884033203 2.203000068664551,-38.89099884033203 C17.96500015258789,-38.858001708984375 18.195999145507812,37.35599899291992 2.447000026702881,38.89099884033203z"/></g></g><g style="display: block;" transform="matrix(0.6630526185035706,-0.6630526185035706,0.6630526185035706,0.6630526185035706,250.51060485839844,261.5741271972656)" opacity="0.4"><g opacity="1" transform="matrix(1,0,0,1,0,0)"><path fill="rgb(29,29,27)" fill-opacity="1" d=" M0.3499999940395355,38.65399932861328 C0.3499999940395355,38.65399932861328 -2.443000078201294,38.6609992980957 -2.443000078201294,38.6609992980957 C-17.229000091552734,31.086000442504883 -14.89799976348877,-38.65299987792969 -0.39500001072883606,-38.65399932861328 C-0.39500001072883606,-38.65399932861328 2.36899995803833,-38.6609992980957 2.36899995803833,-38.6609992980957 C17.020999908447266,-31.291000366210938 15.1850004196167,38.66899871826172 0.3499999940395355,38.65399932861328z"/><path stroke-linecap="round" stroke-linejoin="round" fill-opacity="0" stroke="rgb(0,0,0)" stroke-opacity="1" stroke-width="8" d=" M0.3499999940395355,38.65399932861328 C0.3499999940395355,38.65399932861328 -2.443000078201294,38.6609992980957 -2.443000078201294,38.6609992980957 C-17.229000091552734,31.086000442504883 -14.89799976348877,-38.65299987792969 -0.39500001072883606,-38.65399932861328 C-0.39500001072883606,-38.65399932861328 2.36899995803833,-38.6609992980957 2.36899995803833,-38.6609992980957 C17.020999908447266,-31.291000366210938 15.1850004196167,38.66899871826172 0.3499999940395355,38.65399932861328z"/></g></g><g style="display: block;" transform="matrix(0.6630526185035706,-0.6630526185035706,0.6630526185035706,0.6630526185035706,294.0552673339844,218.0308074951172)" opacity="1"><g opacity="1" transform="matrix(1,0,0,1,0,0)"><path stroke-linecap="round" stroke-linejoin="round" fill-opacity="0" stroke="rgb(88,110,127)" stroke-opacity="1" stroke-width="8" d=" M66.06600189208984,38.6510009765625 C66.06600189208984,38.6510009765625 -66.1969985961914,39.14400100708008 -66.1969985961914,39.14400100708008 C-73.2300033569336,39.137001037597656 -78.30799865722656,20.570999145507812 -78.27400207519531,0.23399999737739563 C-78.23999786376953,-20.180999755859375 -73.06500244140625,-38.65800094604492 -66.06600189208984,-38.650001525878906 C-66.06600189208984,-38.650001525878906 66.1969985961914,-39.14400100708008 66.1969985961914,-39.14400100708008 C72.90299987792969,-39.137001037597656 78.30999755859375,-21.707000732421875 78.27400207519531,-0.23399999737739563 C78.23799896240234,21.25 72.77200317382812,38.65800094604492 66.06600189208984,38.6510009765625z"/></g></g><g style="display: block;" transform="matrix(0.6630526185035706,-0.6630526185035706,0.6630526185035706,0.6630526185035706,276.2184753417969,261.8194580078125)" opacity="1"><g opacity="1" transform="matrix(1,0,0,1,0,0)"><path fill="rgb(165,191,211)" fill-opacity="1" d=" M134.54400634765625,-19.7450008392334 C134.56900024414062,-33.89799880981445 131.3459930419922,-45.63800048828125 127.11299896240234,-47.766998291015625 C125.9280014038086,-47.768001556396484 117.97000122070312,-47.77299880981445 118.41799926757812,-47.77299880981445 C113.52799987792969,-47.77799987792969 109.54199981689453,-35.077999114990234 109.51599884033203,-19.42099952697754 C109.48999786376953,-3.75600004196167 113.43199920654297,8.946000099182129 118.3219985961914,8.951000213623047 C125.88099670410156,8.967000007629395 124.76699829101562,8.982000350952148 125.70700073242188,8.913999557495117 C130.60000610351562,8.918999671936035 134.5189971923828,-4.076000213623047 134.54400634765625,-19.7450008392334z"/><path stroke-linecap="round" stroke-linejoin="round" fill-opacity="0" stroke="rgb(88,110,127)" stroke-opacity="1" stroke-width="8" d=" M134.54400634765625,-19.7450008392334 C134.56900024414062,-33.89799880981445 131.3459930419922,-45.63800048828125 127.11299896240234,-47.766998291015625 C125.9280014038086,-47.768001556396484 117.97000122070312,-47.77299880981445 118.41799926757812,-47.77299880981445 C113.52799987792969,-47.77799987792969 109.54199981689453,-35.077999114990234 109.51599884033203,-19.42099952697754 C109.48999786376953,-3.75600004196167 113.43199920654297,8.946000099182129 118.3219985961914,8.951000213623047 C125.88099670410156,8.967000007629395 124.76699829101562,8.982000350952148 125.70700073242188,8.913999557495117 C130.60000610351562,8.918999671936035 134.5189971923828,-4.076000213623047 134.54400634765625,-19.7450008392334z"/></g></g><g style="display: block;" transform="matrix(0.6630526185035706,-0.6630526185035706,0.6630526185035706,0.6630526185035706,276.2184753417969,261.8194580078125)" opacity="1"><g opacity="1" transform="matrix(1,0,0,1,0,0)"><path stroke-linecap="round" stroke-linejoin="round" fill-opacity="0" stroke="rgb(136,163,182)" stroke-opacity="1" stroke-width="8" d=" M121.08899688720703,-47.766998291015625 C121.08899688720703,-47.766998291015625 118.41799926757812,-47.77299880981445 118.41799926757812,-47.77299880981445 C113.52799987792969,-47.77799987792969 109.54199981689453,-35.077999114990234 109.51599884033203,-19.42099952697754 C109.48999786376953,-3.75600004196167 113.43199920654297,8.946000099182129 118.3219985961914,8.951000213623047 C118.3219985961914,8.951000213623047 120.72699737548828,8.956000328063965 120.72699737548828,8.956000328063965"/></g></g><g style="display: block;" transform="matrix(0.6630526185035706,-0.6630526185035706,0.6630526185035706,0.6630526185035706,276.2184753417969,261.8194580078125)" opacity="0.7000000000000001"><g opacity="1" transform="matrix(1,0,0,1,0,0)"><path stroke-linecap="round" stroke-linejoin="round" fill-opacity="0" stroke="rgb(255,255,255)" stroke-opacity="1" stroke-width="8" d=" M109.51599884033203,-19.42099952697754 C109.51599884033203,-19.42099952697754 109.51599884033203,-19.42099952697754 109.51599884033203,-19.42099952697754 M112.14299774169922,-39.470001220703125 C111.67400360107422,-37.974998474121094 111.25700378417969,-36.314998626708984 110.9000015258789,-34.51900100708008"/></g></g><g style="display: block;" transform="matrix(0.6630526185035706,-0.6630526185035706,0.6630526185035706,0.6630526185035706,297.3486328125,214.73477172851562)" opacity="1"><g opacity="1" transform="matrix(1,0,0,1,0,0)"><path stroke-linecap="round" stroke-linejoin="round" fill-opacity="0" stroke="rgb(88,110,127)" stroke-opacity="1" stroke-width="8" d=" M74.27100372314453,28.48699951171875 C73.31900024414062,28.55299949645996 74.20600128173828,28.538000106811523 69.29299926757812,28.530000686645508 C67.11499786376953,34.823001861572266 64.24500274658203,38.65599822998047 61.097999572753906,38.64899826049805 C61.097999572753906,38.64899826049805 -71.16600036621094,39.13999938964844 -71.16600036621094,39.13999938964844 C-86.7969970703125,39.17100143432617 -87.22200012207031,-38.680999755859375 -71.03399658203125,-38.64899826049805 C-71.03399658203125,-38.64899826049805 61.23099899291992,-39.13999938964844 61.23099899291992,-39.13999938964844 C64.51200103759766,-39.13999938964844 67.48100280761719,-34.96799850463867 69.6449966430664,-28.194000244140625 C74.40599822998047,-28.18600082397461 73.11399841308594,-28.18600082397461 75.66999816894531,-28.19499969482422 C86.43900299072266,-22.784000396728516 84.89900207519531,28.50200080871582 74.27100372314453,28.48699951171875z"/></g></g><g style="display: block;" transform="matrix(0.6630526185035706,-0.6630526185035706,0.6630526185035706,0.6630526185035706,241.55873107910156,270.84161376953125)" opacity="1"><g opacity="1" transform="matrix(1,0,0,1,0,0)"><path fill="rgb(29,29,27)" fill-opacity="1" d=" M13.21399974822998,38.90700149536133 C13.21399974822998,38.90700149536133 -1.4129999876022339,38.887001037597656 -1.4129999876022339,38.887001037597656 C-17.410999298095703,38.869998931884766 -17.274999618530273,-38.92399978637695 -1.2829999923706055,-38.90700149536133 C-1.2829999923706055,-38.90700149536133 13.345000267028809,-38.887001037597656 13.345000267028809,-38.887001037597656 C-2.302000045776367,-38.90399932861328 -2.931999921798706,38.88999938964844 13.21399974822998,38.90700149536133z"/><path stroke-linecap="round" stroke-linejoin="round" fill-opacity="0" stroke="rgb(0,0,0)" stroke-opacity="1" stroke-width="8" d=" M13.21399974822998,38.90700149536133 C13.21399974822998,38.90700149536133 -1.4129999876022339,38.887001037597656 -1.4129999876022339,38.887001037597656 C-17.410999298095703,38.869998931884766 -17.274999618530273,-38.92399978637695 -1.2829999923706055,-38.90700149536133 C-1.2829999923706055,-38.90700149536133 13.345000267028809,-38.887001037597656 13.345000267028809,-38.887001037597656 C-2.302000045776367,-38.90399932861328 -2.931999921798706,38.88999938964844 13.21399974822998,38.90700149536133z"/></g></g><g style="display: block;" transform="matrix(0.6630526185035706,-0.6630526185035706,0.6630526185035706,0.6630526185035706,230.88491821289062,258.57513427734375)" opacity="0.4"><g opacity="1" transform="matrix(1,0,0,1,0,0)"><path fill="rgb(255,255,255)" fill-opacity="1" d=" M-130.80499267578125,9.949000358581543 C-129.5659942626953,-4.072000026702881 -123.80899810791016,-10.076000213623047 -123.80899810791016,-10.076000213623047 C-123.80899810791016,-10.076000213623047 130.80499267578125,-9.675999641418457 130.80499267578125,-9.675999641418457 C130.80499267578125,-9.675999641418457 127.60700225830078,10.076000213623047 127.60700225830078,10.076000213623047 C127.60700225830078,10.076000213623047 -130.80499267578125,9.949000358581543 -130.80499267578125,9.949000358581543z"/></g></g><g style="display: block;" transform="matrix(0.6630526185035706,-0.6630526185035706,0.6630526185035706,0.6630526185035706,262.85931396484375,290.507080078125)" opacity="0.35000000000000003"><g opacity="1" transform="matrix(1,0,0,1,0,0)"><path fill="rgb(255,255,255)" fill-opacity="1" d=" M-128.94400024414062,3.4809999465942383 C-128.94400024414062,3.4809999465942383 -131.23899841308594,0.5090000033378601 -131.4969940185547,-3.7190001010894775 C-131.4969940185547,-3.7190001010894775 131.4969940185547,-3.4790000915527344 131.4969940185547,-3.4790000915527344 C131.4969940185547,-3.4790000915527344 131.48500061035156,3.7190001010894775 131.48500061035156,3.7190001010894775 C131.48500061035156,3.7190001010894775 -128.94400024414062,3.4809999465942383 -128.94400024414062,3.4809999465942383z"/></g></g><g style="display: block;" transform="matrix(0.6630526185035706,-0.6630526185035706,0.6630526185035706,0.6630526185035706,330.0039978027344,181.8367462158203)" opacity="1"><g opacity="1" transform="matrix(1,0,0,1,0,0)"><path stroke-linecap="round" stroke-linejoin="round" fill-opacity="0" stroke="rgb(123,146,165)" stroke-opacity="1" stroke-width="8" d=" M4.480000019073486,37.67300033569336 C4.480000019073486,37.67300033569336 4.202000141143799,37.3650016784668 4.050000190734863,37.220001220703125 C-7.6620001792907715,26.024999618530273 -7.285999774932861,-27.697999954223633 4.534999847412109,-37.67300033569336"/></g></g><g style="display: block;" transform="matrix(0.6630526185035706,-0.6630526185035706,0.6630526185035706,0.6630526185035706,319.69085693359375,176.83335876464844)" opacity="0.7000000000000001"><g opacity="1" transform="matrix(1,0,0,1,0,0)"><path stroke-linecap="round" stroke-linejoin="round" fill-opacity="0" stroke="rgb(255,255,255)" stroke-opacity="1" stroke-width="8" d=" M-0.06800000369548798,0.6909999847412109 C-0.02500000037252903,0.22699999809265137 0.019999999552965164,-0.23399999737739563 0.06800000369548798,-0.6909999847412109"/></g></g><g style="display: block;" transform="matrix(0.6630526185035706,-0.6630526185035706,0.6630526185035706,0.6630526185035706,348.56549072265625,199.63970947265625)" opacity="0.4"><g opacity="1" transform="matrix(1,0,0,1,0,0)"><path stroke-linecap="round" stroke-linejoin="round" fill-opacity="0" stroke="rgb(88,110,127)" stroke-opacity="1" stroke-width="8" d=" M3.9079999923706055,10.25 C3.9079999923706055,10.25 3.628999948501587,9.942999839782715 3.4769999980926514,9.79800033569336 C0.2290000021457672,6.692999839782715 -2.440999984741211,-0.6589999794960022 -3.9079999923706055,-10.25"/></g></g><g style="display: block;" transform="matrix(0.6630526185035706,-0.6630526185035706,0.6630526185035706,0.6630526185035706,309.1801452636719,151.29920959472656)" opacity="1"><g opacity="1" transform="matrix(1,0,0,1,0,0)"><path fill="rgb(59,78,91)" fill-opacity="1" d=" M-0.3440000116825104,4.258999824523926 C-0.3440000116825104,4.258999824523926 3.6040000915527344,-2.256999969482422 9.699000358581543,-2.3550000190734863 C9.699000358581543,-2.3550000190734863 8.092000007629395,-3.9200000762939453 5.361000061035156,-4.178999900817871 C3.8350000381469727,-4.323999881744385 0.9599999785423279,-4.2270002365112305 0.11800000071525574,-4.228000164031982 C-0.7239999771118164,-4.229000091552734 -2.437999963760376,-4.328999996185303 -5.059000015258789,-2.26200008392334 C-7.679999828338623,-0.19499999284744263 -8.565999984741211,1.7330000400543213 -9.699000358581543,3.8239998817443848 C-9.699000358581543,3.8239998817443848 -0.3440000116825104,4.258999824523926 -0.3440000116825104,4.258999824523926z"/></g></g><g style="display: block;" transform="matrix(0.6630526185035706,-0.6630526185035706,0.6630526185035706,0.6630526185035706,360.6622009277344,202.7176055908203)" opacity="1"><g opacity="1" transform="matrix(1,0,0,1,0,0)"><path fill="rgb(59,78,91)" fill-opacity="1" d=" M-0.06499999761581421,-4.019000053405762 C-0.06499999761581421,-4.019000053405762 5.172999858856201,1.6480000019073486 9.727999687194824,1.9290000200271606 C9.727999687194824,1.9290000200271606 7.980999946594238,3.694000005722046 5.249000072479248,3.947000026702881 C3.7230000495910645,4.0879998207092285 0.7649999856948853,3.9769999980926514 -0.07699999958276749,3.9760000705718994 C-0.9190000295639038,3.9749999046325684 -2.6700000762939453,4.076000213623047 -5.275000095367432,1.9910000562667847 C-7.331999778747559,0.3449999988079071 -8.602999687194824,-1.7319999933242798 -9.727999687194824,-3.8259999752044678 C-9.727999687194824,-3.8259999752044678 -0.06499999761581421,-4.019000053405762 -0.06499999761581421,-4.019000053405762z"/></g></g><g style="display: block;" transform="matrix(0.6630526185035706,-0.6630526185035706,0.6630526185035706,0.6630526185035706,356.7409362792969,155.6647186279297)" opacity="1"><g opacity="1" transform="matrix(1,0,0,1,0,0)"><path fill="rgb(226,228,229)" fill-opacity="1" d=" M-12.1850004196167,21.43000030517578 C-12.1850004196167,21.43000030517578 19.68600082397461,11.135000228881836 19.68600082397461,11.135000228881836 C19.68600082397461,11.135000228881836 19.684999465942383,-11.121999740600586 19.684999465942383,-11.121999740600586 C19.684999465942383,-11.121999740600586 -12.185999870300293,-21.415000915527344 -12.185999870300293,-21.415000915527344 C-15.388999938964844,-23.690000534057617 -19.68600082397461,-12.057999610900879 -19.68600082397461,0.20800000429153442 C-19.68600082397461,13.446999549865723 -15.111000061035156,23.506999969482422 -12.1850004196167,21.43000030517578z"/></g></g><g style="display: block;" transform="matrix(0.6630526185035706,-0.6630526185035706,0.6630526185035706,0.6630526185035706,361.7754821777344,161.78005981445312)" opacity="1"><g opacity="1" transform="matrix(1,0,0,1,0,0)"><path fill="rgb(206,210,219)" fill-opacity="1" d=" M18.452999114990234,-5.863999843597412 C18.452999114990234,-5.863999843597412 -18.452999114990234,-5.663000106811523 -18.452999114990234,-5.663000106811523 C-18.452999114990234,-5.663000106811523 -17.00200080871582,5.863999843597412 -17.00200080871582,5.863999843597412 C-17.00200080871582,5.863999843597412 18.42799949645996,-2.3940000534057617 18.42799949645996,-2.3940000534057617 C18.42799949645996,-2.3940000534057617 18.452999114990234,-5.863999843597412 18.452999114990234,-5.863999843597412z"/></g></g><g style="display: block;" transform="matrix(0.6630526185035706,-0.6630526185035706,0.6630526185035706,0.6630526185035706,356.7409362792969,155.6647186279297)" opacity="1"><g opacity="1" transform="matrix(1,0,0,1,0,0)"><path stroke-linecap="round" stroke-linejoin="round" fill-opacity="0" stroke="rgb(165,172,178)" stroke-opacity="1" stroke-width="8" d=" M-12.1850004196167,21.43000030517578 C-12.1850004196167,21.43000030517578 19.68600082397461,11.135000228881836 19.68600082397461,11.135000228881836 C19.68600082397461,11.135000228881836 19.684999465942383,-11.121999740600586 19.684999465942383,-11.121999740600586 C19.684999465942383,-11.121999740600586 -12.185999870300293,-21.415000915527344 -12.185999870300293,-21.415000915527344 C-15.388999938964844,-23.690000534057617 -19.68600082397461,-12.057999610900879 -19.68600082397461,0.20800000429153442 C-19.68600082397461,13.446999549865723 -15.111000061035156,23.506999969482422 -12.1850004196167,21.43000030517578z"/></g></g><g style="display: block;" transform="matrix(0.6630526185035706,-0.6630526185035706,0.6630526185035706,0.6630526185035706,370.19757080078125,142.21603393554688)" opacity="1"><g opacity="1" transform="matrix(1,0,0,1,0,0)"><path stroke-linecap="round" stroke-linejoin="round" fill-opacity="0" stroke="rgb(125,133,144)" stroke-opacity="1" stroke-width="5" d=" M0,12.079000473022461 C-1.6510000228881836,12.079000473022461 -2.990000009536743,6.671000003814697 -2.990000009536743,0 C-2.990000009536743,-6.671000003814697 -1.6510000228881836,-12.079000473022461 0,-12.079000473022461 C1.6510000228881836,-12.079000473022461 2.990000009536743,-6.671000003814697 2.990000009536743,0 C2.990000009536743,6.671000003814697 1.6510000228881836,12.079000473022461 0,12.079000473022461z"/></g></g><g style="display: block;" transform="matrix(0.6630526185035706,-0.6630526185035706,0.6630526185035706,0.6630526185035706,375.6591491699219,136.7544708251953)" opacity="1"><g opacity="1" transform="matrix(1,0,0,1,0,0)"><path stroke-linecap="round" stroke-linejoin="round" fill-opacity="0" stroke="rgb(125,133,144)" stroke-opacity="1" stroke-width="5" d=" M0.0010000000474974513,4.831999778747559 C-0.46299999952316284,4.831999778747559 -0.8389999866485596,2.6689999103546143 -0.8389999866485596,0 C-0.8389999866485596,-2.6670000553131104 -0.46399998664855957,-4.831999778747559 0,-4.831999778747559 C0.46299999952316284,-4.831999778747559 0.8389999866485596,-2.6670000553131104 0.8389999866485596,0 C0.8389999866485596,2.6689999103546143 0.46399998664855957,4.831999778747559 0.0010000000474974513,4.831999778747559z"/></g></g><g style="display: block;" transform="matrix(0.6630526185035706,-0.6630526185035706,0.6630526185035706,0.6630526185035706,372.6004943847656,139.81314086914062)" opacity="1"><g opacity="1" transform="matrix(1,0,0,1,0,0)"><path fill="rgb(230,228,231)" fill-opacity="1" d=" M4.691999912261963,4.831999778747559 C4.691999912261963,4.831999778747559 -3.4800000190734863,4.831999778747559 -3.4800000190734863,4.831999778747559 C-4.150000095367432,4.831999778747559 -4.691999912261963,2.6689999103546143 -4.691999912261963,0 C-4.691999912261963,-2.6670000553131104 -4.150000095367432,-4.831999778747559 -3.4800000190734863,-4.831999778747559 C-3.4800000190734863,-4.831999778747559 4.691999912261963,-4.831999778747559 4.691999912261963,-4.831999778747559 C4.327000141143799,-4.831999778747559 3.999000072479248,-4.188000202178955 3.7769999504089355,-3.1679999828338623 C3.5920000076293945,-2.319000005722046 3.4800000190734863,-1.2109999656677246 3.4800000190734863,0 C3.4800000190734863,1.2109999656677246 3.5920000076293945,2.318000078201294 3.7769999504089355,3.1670000553131104 C3.999000072479248,4.186999797821045 4.327000141143799,4.831999778747559 4.691999912261963,4.831999778747559z"/></g></g><g style="display: block;" transform="matrix(0.6630526185035706,-0.6630526185035706,0.6630526185035706,0.6630526185035706,372.1456298828125,140.26797485351562)" opacity="1"><g opacity="1" transform="matrix(1,0,0,1,0,0)"><path stroke-linecap="round" stroke-linejoin="round" fill-opacity="0" stroke="rgb(165,172,178)" stroke-opacity="1" stroke-width="5" d=" M-5.379000186920166,-4.831999778747559 C-5.379000186920166,-4.831999778747559 5.377999782562256,-4.831999778747559 5.377999782562256,-4.831999778747559 C5.013000011444092,-4.831999778747559 4.761000156402588,-1.9980000257492065 4.761000156402588,0 C4.761000156402588,1.9980000257492065 5.013999938964844,4.831999778747559 5.379000186920166,4.831999778747559 C5.379000186920166,4.831999778747559 -5.377999782562256,4.831999778747559 -5.377999782562256,4.831999778747559"/></g></g><g style="display: block;" transform="matrix(0.6630526185035706,-0.6630526185035706,0.6630526185035706,0.6630526185035706,369.2063293457031,143.20729064941406)" opacity="1"><g opacity="1" transform="matrix(1,0,0,1,0,0)"><path stroke-linecap="round" stroke-linejoin="round" fill-opacity="0" stroke="rgb(125,133,144)" stroke-opacity="1" stroke-width="5" d=" M1.4950000047683716,12.079000473022461 C-0.15600000321865082,12.079000473022461 -1.4950000047683716,6.671000003814697 -1.4950000047683716,0 C-1.4950000047683716,-6.671000003814697 -0.15700000524520874,-12.079000473022461 1.49399995803833,-12.079000473022461"/></g></g><g style="display: block;" transform="matrix(0.6630526185035706,-0.6630526185035706,0.6630526185035706,0.6630526185035706,375.50732421875,136.90631103515625)" opacity="1"><g opacity="1" transform="matrix(1,0,0,1,0,0)"><path stroke-linecap="round" stroke-linejoin="round" fill-opacity="0" stroke="rgb(125,133,144)" stroke-opacity="1" stroke-width="5" d=" M0.3089999854564667,-4.831999778747559 C-0.0560000017285347,-4.831999778747559 -0.3089999854564667,-1.9980000257492065 -0.3089999854564667,0 C-0.3089999854564667,1.9980000257492065 -0.0560000017285347,4.831999778747559 0.3089999854564667,4.831999778747559"/></g></g><g style="display: block;" transform="matrix(0.6630526185035706,-0.6630526185035706,0.6630526185035706,0.6630526185035706,276.2184753417969,261.8194580078125)" opacity="1"><g opacity="1" transform="matrix(1,0,0,1,0,0)"><path fill="rgb(83,85,100)" fill-opacity="1" d=" M172.05499267578125,-23.091999053955078 C170.46400451660156,-23.141000747680664 169.14199829101562,-21.86199951171875 169.14199829101562,-20.263999938964844 C169.14100646972656,-20.12299919128418 169.13299560546875,-18.17799949645996 169.13400268554688,-18.319000244140625 C169.13400268554688,-16.72100067138672 170.46400451660156,-15.434000015258789 172.06199645996094,-15.491000175476074 C239.9759979248047,-17.78499984741211 213.13699340820312,-16.882999420166016 286.2239990234375,-19.33099937438965 C286.08599853515625,-19.336000442504883 172.26499938964844,-23.084999084472656 172.05499267578125,-23.091999053955078z"/></g></g><g style="display: block;" transform="matrix(0.6630526185035706,-0.6630526185035706,0.6630526185035706,0.6630526185035706,413.1182861328125,96.79029083251953)" opacity="1"><g opacity="1" transform="matrix(1,0,0,1,0,0)"><path fill="rgb(126,128,145)" fill-opacity="1" d=" M58.54399871826172,1.8819999694824219 C58.54399871826172,1.8819999694824219 -58.54399871826172,1.5420000553131104 -58.54399871826172,1.5420000553131104 C-58.54399871826172,1.5420000553131104 -58.53900146484375,0.9480000138282776 -58.53900146484375,0.9480000138282776 C-58.53900146484375,-0.6499999761581421 -57.21699905395508,-1.9290000200271606 -55.625999450683594,-1.8799999952316284 C13.3100004196167,0.40299999713897705 -13.128999710083008,-0.46799999475479126 58.54399871826172,1.8819999694824219z"/></g></g><g style="display: block;" transform="matrix(0.6630526185035706,-0.6630526185035706,0.6630526185035706,0.6630526185035706,354.9692687988281,146.56100463867188)" opacity="0.9"><g opacity="1" transform="matrix(1,0,0,1,0,0)"><path stroke-linecap="round" stroke-linejoin="round" fill-opacity="0" stroke="rgb(255,255,255)" stroke-opacity="1" stroke-width="6" d=" M5.951000213623047,1.9129999876022339 C5.951000213623047,1.9129999876022339 -5.951000213623047,-1.9129999876022339 -5.951000213623047,-1.9129999876022339"/></g></g><g style="display: block;" transform="matrix(0.6630526185035706,-0.6630526185035706,0.6630526185035706,0.6630526185035706,123.2051773071289,381.5329284667969)" opacity="1"><g opacity="1" transform="matrix(1,0,0,1,0,0)"><path stroke-linecap="round" stroke-linejoin="round" fill-opacity="0" stroke="rgb(124,131,140)" stroke-opacity="1" stroke-width="8" d=" M-0.3840000033378601,17.797000885009766 C-0.7260000109672546,13.684000015258789 -0.9039999842643738,9.39799976348877 -0.8970000147819519,4.99399995803833 C-0.8830000162124634,-3.11899995803833 -0.24300000071525574,-10.831000328063965 0.8970000147819519,-17.797000885009766"/></g></g><g style="display: block;" transform="matrix(0.6630526185035706,-0.6630526185035706,0.6630526185035706,0.6630526185035706,105.54808044433594,358.89898681640625)" opacity="0.5"><g opacity="1" transform="matrix(1,0,0,1,0,0)"><path stroke-linecap="round" stroke-linejoin="round" fill-opacity="0" stroke="rgb(255,255,255)" stroke-opacity="1" stroke-width="8" d=" M-0.5009999871253967,1.680999994277954 C-0.18299999833106995,0.5249999761581421 0.15199999511241913,-0.597000002861023 0.5009999871253967,-1.680999994277954"/></g></g></g></g></svg>