<svg xmlns="http://www.w3.org/2000/svg" xmlns:xlink="http://www.w3.org/1999/xlink" viewBox="0 0 512 512" width="512" height="512" style="width: 100%; height: 100%; transform: translate3d(0,0,0);" preserveAspectRatio="xMidYMid meet"><defs><clipPath id="__lottie_element_22820"><rect width="512" height="512" x="0" y="0"/></clipPath><linearGradient id="__lottie_element_22839" spreadMethod="pad" gradientUnits="userSpaceOnUse" x1="-246" y1="1" x2="243" y2="0"><stop offset="0%" stop-color="rgb(0,0,0)"/><stop offset="25%" stop-color="rgb(0,0,0)"/><stop offset="50%" stop-color="rgb(0,0,0)"/><stop offset="75%" stop-color="rgb(0,0,0)"/><stop offset="100%" stop-color="rgb(0,0,0)"/></linearGradient><mask id="__lottie_element_22841"><path fill="url(#__lottie_element_22840)" d=" M-246.5,-145.5 C-246.5,-139 -246.5,144.218994140625 -246.5,146.593994140625 C-244.71200561523438,146.76499938964844 -241.55099487304688,147.5780029296875 -237.75900268554688,148.50999450683594 C-220.5,152.75 -191.07200622558594,159.75999450683594 -178.26499938964844,161.58399963378906 C-147.25,166 -127.13200378417969,165.62600708007812 -103.76799774169922,164.74600219726562 C-50.75,162.75 -4.125,146.125 27.19499969482422,139.3300018310547 C47.95800018310547,134.8249969482422 68.79000091552734,130.64500427246094 83.74700164794922,128.94000244140625 C106.25,126.375 122.875,126.75 143.25,128.35899353027344 C183.33700561523438,131.52499389648438 217.79400634765625,139.2030029296875 241.43800354003906,147.031005859375 C241.43800354003906,147.09300231933594 241.406005859375,147.09300231933594 241.406005859375,147.06199645996094 C241.406005859375,147.06199645996094 241.406005859375,147.06199645996094 241.406005859375,147.06199645996094 C241.56199645996094,120.56199645996094 241.23399353027344,82.29100036621094 241.25,49.90599822998047 C241.26600646972656,17.08300018310547 241.43699645996094,-15.739999771118164 241.5,-48.5629997253418 C241.56199645996094,-80.91699981689453 241.5,-128.75 241.625,-145.625 C151.281005859375,-172.5 103.15699768066406,-165.1009979248047 78.5,-162.81199645996094 C23.042999267578125,-156.04600524902344 -48.707000732421875,-130.79600524902344 -83.375,-129.06199645996094 C-157.875,-120.1240005493164 -212.75,-139.625 -246.5,-145.5z"/></mask><linearGradient id="__lottie_element_22840" spreadMethod="pad" gradientUnits="userSpaceOnUse" x1="-246" y1="1" x2="243" y2="0"><stop stop-color="rgb(255,255,255)" offset="0%" stop-opacity="1"/><stop stop-color="rgb(255,255,255)" offset="17%" stop-opacity="0.5"/><stop stop-color="rgb(255,255,255)" offset="33%" stop-opacity="0"/><stop stop-color="rgb(255,255,255)" offset="50%" stop-opacity="0"/><stop stop-color="rgb(255,255,255)" offset="66%" stop-opacity="0"/><stop stop-color="rgb(255,255,255)" offset="83%" stop-opacity="0.5"/><stop stop-color="rgb(255,255,255)" offset="100%" stop-opacity="1"/></linearGradient></defs><g clip-path="url(#__lottie_element_22820)"><g style="display: block;" transform="matrix(0.800000011920929,0,0,0.800000011920929,257.9656066894531,250.03680419921875)" opacity="1"><g opacity="1" transform="matrix(1,0,0,1,0,0)"><path fill="rgb(222,58,62)" fill-opacity="1" d=" M-246.5,-145.5 C-246.5,-139 -246.5,144.218994140625 -246.5,146.593994140625 C-244.71200561523438,146.76499938964844 -241.55099487304688,147.5780029296875 -237.75900268554688,148.50999450683594 C-220.5,152.75 -191.07200622558594,159.75999450683594 -178.26499938964844,161.58399963378906 C-147.25,166 -127.13200378417969,165.62600708007812 -103.76799774169922,164.74600219726562 C-50.75,162.75 -4.125,146.125 27.19499969482422,139.3300018310547 C47.95800018310547,134.8249969482422 68.79000091552734,130.64500427246094 83.74700164794922,128.94000244140625 C106.25,126.375 122.875,126.75 143.25,128.35899353027344 C183.33700561523438,131.52499389648438 217.79400634765625,139.2030029296875 241.43800354003906,147.031005859375 C241.43800354003906,147.09300231933594 241.406005859375,147.09300231933594 241.406005859375,147.06199645996094 C241.406005859375,147.06199645996094 241.406005859375,147.06199645996094 241.406005859375,147.06199645996094 C241.56199645996094,120.56199645996094 241.23399353027344,82.29100036621094 241.25,49.90599822998047 C241.26600646972656,17.08300018310547 241.43699645996094,-15.739999771118164 241.5,-48.5629997253418 C241.56199645996094,-80.91699981689453 241.5,-128.75 241.625,-145.625 C151.281005859375,-172.5 103.15699768066406,-165.1009979248047 78.5,-162.81199645996094 C23.042999267578125,-156.04600524902344 -48.707000732421875,-130.79600524902344 -83.375,-129.06199645996094 C-157.875,-120.1240005493164 -212.75,-139.625 -246.5,-145.5z"/></g></g><g style="display: block;" transform="matrix(0.800000011920929,0,0,0.800000011920929,53.20000457763672,44.399986267089844)" opacity="1"><g opacity="1" transform="matrix(1,0,0,1,141.8300018310547,185.84800720214844)"><path fill="rgb(41,51,121)" fill-opacity="1" d=" M132.31900024414062,56.895999908447266 C132.31900024414062,41.60100173950195 132.25399780273438,12.345000267028809 132.177001953125,-16.729000091552734 C132.11300659179688,-41.084999084472656 132.0399932861328,-65.31199645996094 131.99200439453125,-81.09400177001953 C99.35900115966797,-72.22000122070312 58.63999938964844,-57.25699996948242 -5.420000076293945,-55.790000915527344 C-54.9900016784668,-54.654998779296875 -95.62899780273438,-68.21099853515625 -132.31900024414062,-75.74199676513672 C-132.31900024414062,-75.74199676513672 -132.31900024414062,61.790000915527344 -132.31900024414062,61.790000915527344 C-80.91000366210938,76.87799835205078 -38.5260009765625,81.59300231933594 -3.1080000400543213,81.052001953125 C60.564998626708984,80.0790023803711 101.72200012207031,62.11899948120117 132.31900024414062,56.895999908447266z"/></g></g><g style="display: block;" transform="matrix(0.800000011920929,0,0,0.800000011920929,53.20000457763672,44.399986267089844)" opacity="1"><g opacity="1" transform="matrix(1,0,0,1,136.44700622558594,239.21299743652344)"><path fill="rgb(242,242,242)" fill-opacity="1" d=" M-7.956999778747559,4.170000076293945 C-7.956999778747559,4.170000076293945 -12.29800033569336,17.78700065612793 -12.29800033569336,17.78700065612793 C-12.29800033569336,17.78700065612793 -0.21299999952316284,9.362000465393066 -0.21299999952316284,9.362000465393066 C-0.21299999952316284,9.362000465393066 12.468000411987305,17.617000579833984 12.468000411987305,17.617000579833984 C12.468000411987305,17.617000579833984 7.617000102996826,4 7.617000102996826,4 C7.617000102996826,4 20.128000259399414,-5.190999984741211 20.128000259399414,-5.190999984741211 C20.128000259399414,-5.190999984741211 4.552999973297119,-4.5960001945495605 4.552999973297119,-4.5960001945495605 C4.552999973297119,-4.5960001945495605 -0.0430000014603138,-17.78700065612793 -0.0430000014603138,-17.78700065612793 C-0.0430000014603138,-17.78700065612793 -4.894000053405762,-4.255000114440918 -4.894000053405762,-4.255000114440918 C-4.894000053405762,-4.255000114440918 -20.128000259399414,-4.5960001945495605 -20.128000259399414,-4.5960001945495605 C-20.128000259399414,-4.5960001945495605 -7.956999778747559,4.170000076293945 -7.956999778747559,4.170000076293945z"/></g><g opacity="1" transform="matrix(1,0,0,1,157.46800231933594,205.55299377441406)"><path fill="rgb(242,242,242)" fill-opacity="1" d=" M-4.382999897003174,1.8300000429153442 C-4.382999897003174,1.8300000429153442 -6.511000156402588,9.574000358581543 -6.511000156402588,9.574000358581543 C-6.511000156402588,9.574000358581543 -0.12800000607967377,4.4679999351501465 -0.12800000607967377,4.4679999351501465 C-0.12800000607967377,4.4679999351501465 6.765999794006348,8.553000450134277 6.765999794006348,8.553000450134277 C6.765999794006348,8.553000450134277 4.127999782562256,1.4040000438690186 4.127999782562256,1.4040000438690186 C4.127999782562256,1.4040000438690186 10.51099967956543,-3.617000102996826 10.51099967956543,-3.617000102996826 C10.51099967956543,-3.617000102996826 2,-3.1059999465942383 2,-3.1059999465942383 C2,-3.1059999465942383 0.0430000014603138,-9.574000358581543 0.0430000014603138,-9.574000358581543 C0.0430000014603138,-9.574000358581543 -2.510999917984009,-2.5959999561309814 -2.510999917984009,-2.5959999561309814 C-2.510999917984009,-2.5959999561309814 -10.51099967956543,-1.9859999418258667 -10.51099967956543,-1.9859999418258667 C-10.51099967956543,-1.9859999418258667 -4.382999897003174,1.8300000429153442 -4.382999897003174,1.8300000429153442z"/></g><g opacity="1" transform="matrix(1,0,0,1,179.8090057373047,174.02099609375)"><path fill="rgb(242,242,242)" fill-opacity="1" d=" M-6.127999782562256,3.2339999675750732 C-6.127999782562256,3.2339999675750732 -9.446999549865723,14.29800033569336 -9.446999549865723,14.29800033569336 C-9.446999549865723,14.29800033569336 -0.08500000089406967,6.4679999351501465 -0.08500000089406967,6.4679999351501465 C-0.08500000089406967,6.4679999351501465 9.616999626159668,11.786999702453613 9.616999626159668,11.786999702453613 C9.616999626159668,11.786999702453613 5.702000141143799,1.9570000171661377 5.702000141143799,1.9570000171661377 C5.702000141143799,1.9570000171661377 15.319000244140625,-6.638000011444092 15.319000244140625,-6.638000011444092 C15.319000244140625,-6.638000011444092 3.4040000438690186,-4.511000156402588 3.4040000438690186,-4.511000156402588 C3.4040000438690186,-4.511000156402588 -0.08500000089406967,-14.29800033569336 -0.08500000089406967,-14.29800033569336 C-0.08500000089406967,-14.29800033569336 -3.489000082015991,-3.6600000858306885 -3.489000082015991,-3.6600000858306885 C-3.489000082015991,-3.6600000858306885 -15.319000244140625,-2.0429999828338623 -15.319000244140625,-2.0429999828338623 C-15.319000244140625,-2.0429999828338623 -6.127999782562256,3.2339999675750732 -6.127999782562256,3.2339999675750732z"/></g><g opacity="1" transform="matrix(1,0,0,1,136.42599487304688,150.8090057373047)"><path fill="rgb(242,242,242)" fill-opacity="1" d=" M-4.020999908447266,-3.5959999561309814 C-4.020999908447266,-3.5959999561309814 -16.020999908447266,-3.809000015258789 -16.020999908447266,-3.809000015258789 C-16.020999908447266,-3.809000015258789 -6.361999988555908,3.2130000591278076 -6.361999988555908,3.2130000591278076 C-6.361999988555908,3.2130000591278076 -10.234000205993652,14.362000465393066 -10.234000205993652,14.362000465393066 C-10.234000205993652,14.362000465393066 -0.3190000057220459,7.511000156402588 -0.3190000057220459,7.511000156402588 C-0.3190000057220459,7.511000156402588 9.85099983215332,14.020999908447266 9.85099983215332,14.020999908447266 C9.85099983215332,14.020999908447266 5.935999870300293,2.9570000171661377 5.935999870300293,2.9570000171661377 C5.935999870300293,2.9570000171661377 16.020999908447266,-4.234000205993652 16.020999908447266,-4.234000205993652 C16.020999908447266,-4.234000205993652 3.5959999561309814,-3.809000015258789 3.5959999561309814,-3.809000015258789 C3.5959999561309814,-3.809000015258789 -0.14900000393390656,-14.362000465393066 -0.14900000393390656,-14.362000465393066 C-0.14900000393390656,-14.362000465393066 -4.020999908447266,-3.5959999561309814 -4.020999908447266,-3.5959999561309814z"/></g><g opacity="1" transform="matrix(1,0,0,1,93.74500274658203,181.95700073242188)"><path fill="rgb(242,242,242)" fill-opacity="1" d=" M-0.19099999964237213,6.702000141143799 C-0.19099999964237213,6.702000141143799 -10.190999984741211,12.65999984741211 -10.190999984741211,12.65999984741211 C-10.190999984741211,12.65999984741211 -6.5320000648498535,1.6380000114440918 -6.5320000648498535,1.6380000114440918 C-6.5320000648498535,1.6380000114440918 -16.06399917602539,-6.4039998054504395 -16.06399917602539,-6.4039998054504395 C-16.06399917602539,-6.4039998054504395 -3.936000108718872,-4.7870001792907715 -3.936000108718872,-4.7870001792907715 C-3.936000108718872,-4.7870001792907715 -0.06400000303983688,-14.786999702453613 -0.06400000303983688,-14.786999702453613 C-0.06400000303983688,-14.786999702453613 3.7230000495910645,-3.9790000915527344 3.7230000495910645,-3.9790000915527344 C3.7230000495910645,-3.9790000915527344 16.06399917602539,-2.6600000858306885 16.06399917602539,-2.6600000858306885 C16.06399917602539,-2.6600000858306885 5.979000091552734,3.128000020980835 5.979000091552734,3.128000020980835 C5.979000091552734,3.128000020980835 9.979000091552734,14.786999702453613 9.979000091552734,14.786999702453613 C9.979000091552734,14.786999702453613 -0.19099999964237213,6.702000141143799 -0.19099999964237213,6.702000141143799z"/></g></g><g style="display: block;" transform="matrix(0.800000011920929,0,0,0.800000011920929,257.9656066894531,250.03680419921875)" opacity="0.35000000000000003"><g opacity="1" transform="matrix(1,0,0,1,0,0)"><path fill="url(#__lottie_element_22839)" mask="url(#__lottie_element_22841)" fill-opacity="1" d="M0 0 M-246.5,-145.5 C-246.5,-139 -246.5,144.218994140625 -246.5,146.593994140625 C-244.71200561523438,146.76499938964844 -241.55099487304688,147.5780029296875 -237.75900268554688,148.50999450683594 C-220.5,152.75 -191.07200622558594,159.75999450683594 -178.26499938964844,161.58399963378906 C-147.25,166 -127.13200378417969,165.62600708007812 -103.76799774169922,164.74600219726562 C-50.75,162.75 -4.125,146.125 27.19499969482422,139.3300018310547 C47.95800018310547,134.8249969482422 68.79000091552734,130.64500427246094 83.74700164794922,128.94000244140625 C106.25,126.375 122.875,126.75 143.25,128.35899353027344 C183.33700561523438,131.52499389648438 217.79400634765625,139.2030029296875 241.43800354003906,147.031005859375 C241.43800354003906,147.09300231933594 241.406005859375,147.09300231933594 241.406005859375,147.06199645996094 C241.406005859375,147.06199645996094 241.406005859375,147.06199645996094 241.406005859375,147.06199645996094 C241.56199645996094,120.56199645996094 241.23399353027344,82.29100036621094 241.25,49.90599822998047 C241.26600646972656,17.08300018310547 241.43699645996094,-15.739999771118164 241.5,-48.5629997253418 C241.56199645996094,-80.91699981689453 241.5,-128.75 241.625,-145.625 C151.281005859375,-172.5 103.15699768066406,-165.1009979248047 78.5,-162.81199645996094 C23.042999267578125,-156.04600524902344 -48.707000732421875,-130.79600524902344 -83.375,-129.06199645996094 C-157.875,-120.1240005493164 -212.75,-139.625 -246.5,-145.5z"/></g></g><g style="display: block;" transform="matrix(0.800000011920929,0,0,0.800000011920929,257.9656066894531,250.03680419921875)" opacity="0.15"><g opacity="1" transform="matrix(1,0,0,1,0,0)"><path fill="rgb(255,255,255)" fill-opacity="1" d=" M-246.875,-146 C-246.83700561523438,-139.70399475097656 -246.875,-138 -246.79200744628906,-132.81100463867188 C-237.5,-136.25 -197.25,-114 -124.49600219726562,-114.31099700927734 C-38.992000579833984,-114.6760025024414 39.233001708984375,-153.25 121.70800018310547,-153.39700317382812 C179.75,-153.5 241,-132.25 240.91200256347656,-131.552001953125 C241,-140.5 241.375,-144.625 241.375,-144.625 C241.375,-144.625 179.75,-166.25 122.5,-166 C39.49700164794922,-165.63800048828125 -39.5,-128 -124.25,-126.81199645996094 C-197.0449981689453,-125.79199981689453 -237.75,-149 -246.875,-146z"/></g></g><g style="display: block;" transform="matrix(0.800000011920929,0,0,0.800000011920929,257.9656066894531,250.03680419921875)" opacity="0.15"><g opacity="1" transform="matrix(1,0,0,1,0,0)"><path fill="rgb(0,0,0)" fill-opacity="1" d=" M122.5,112.25 C34,112.25 -36,149.5 -123.5,152 C-140.61700439453125,152.48899841308594 -155.82000732421875,151.3489990234375 -170.41099548339844,149.1280059814453 C-195.23399353027344,145.35000610351562 -218.28900146484375,138.4459991455078 -246,131.125 C-246.25,134.5 -246,141.375 -246,145.125 C-218.5749969482422,153.30599975585938 -195.61700439453125,159.55499267578125 -170.83099365234375,163.0050048828125 C-155.8520050048828,165.08999633789062 -140.20399475097656,166.15199279785156 -122.5,166 C-35,165.25 33.5,126.625 121.75,126.5 C126.26799774169922,126.49400329589844 131.11399841308594,126.59500122070312 136.27699279785156,126.83899688720703 C163.25900268554688,128.11300659179688 198.88099670410156,133.2550048828125 241.375,147 C241.375,147 241.25,134.75 241.5,131.125 C199.093994140625,118.93299865722656 163.16200256347656,113.84500122070312 136.1439971923828,112.58000183105469 C131.30499267578125,112.35399627685547 126.75299835205078,112.25 122.5,112.25z"/></g></g><g style="display: block;" transform="matrix(0.800000011920929,0,0,0.800000011920929,257.9656066894531,250.03680419921875)" opacity="1"><g opacity="1" transform="matrix(1,0,0,1,-256,-256)"><path stroke-linecap="round" stroke-linejoin="round" fill-opacity="0" stroke="rgb(13,20,60)" stroke-opacity="1" stroke-width="8" d=" M273.8219909667969,104.75499725341797 C241.18899536132812,113.62899780273438 200.468994140625,128.59100341796875 136.40899658203125,130.05799865722656 C86.83899688720703,131.1929931640625 46.20100021362305,117.63700103759766 9.51099967956543,110.10600280761719 C9.51099967956543,110.10600280761719 9.51099967956543,247.63800048828125 9.51099967956543,247.63800048828125"/></g><g opacity="1" transform="matrix(1,0,0,1,0,0)"><path stroke-linecap="butt" stroke-linejoin="round" fill-opacity="0" stroke="rgb(99,34,36)" stroke-opacity="1" stroke-width="8" d=" M-246.52699279785156,-8.416999816894531 C-246.51600646972656,31.20400047302246 -246.5,145.34500122070312 -246.5,146.593994140625 C-244.71200561523438,146.76499938964844 -241.55099487304688,147.5780029296875 -237.75900268554688,148.50999450683594 C-220.5,152.75 -191.07200622558594,159.75999450683594 -178.26499938964844,161.58399963378906 C-147.25,166 -127.13200378417969,165.62600708007812 -103.76799774169922,164.74600219726562 C-50.75,162.75 -4.125,146.125 27.19499969482422,139.3300018310547 C47.95800018310547,134.8249969482422 68.79000091552734,130.64500427246094 83.74700164794922,128.94000244140625 C106.25,126.375 122.875,126.75 143.25,128.35899353027344 C183.33700561523438,131.52499389648438 217.79400634765625,139.2030029296875 241.43800354003906,147.031005859375 C241.43800354003906,147.09300231933594 241.406005859375,147.09300231933594 241.406005859375,147.06199645996094 C241.406005859375,147.06199645996094 241.406005859375,147.06199645996094 241.406005859375,147.06199645996094 C241.56199645996094,120.56199645996094 241.23399353027344,82.29100036621094 241.25,49.90599822998047 C241.26600646972656,17.08300018310547 241.43699645996094,-15.739999771118164 241.5,-48.5629997253418 C241.56199645996094,-80.91699981689453 241.5,-128.75 241.625,-145.625 C151.281005859375,-172.5 103.15699768066406,-165.1009979248047 78.5,-162.81199645996094 C67.39399719238281,-161.42799377441406 27.736000061035156,-153.39999389648438 17.87700080871582,-151.53399658203125"/></g></g></g></svg>