<svg xmlns="http://www.w3.org/2000/svg" xmlns:xlink="http://www.w3.org/1999/xlink" viewBox="0 0 512 512" width="512" height="512" style="width: 100%; height: 100%; transform: translate3d(0,0,0);" preserveAspectRatio="xMidYMid meet"><defs><clipPath id="__lottie_element_8678"><rect width="512" height="512" x="0" y="0"/></clipPath><linearGradient id="__lottie_element_8687" spreadMethod="pad" gradientUnits="userSpaceOnUse" x1="-1.0399999618530273" y1="-176.5" x2="0.9599999785423279" y2="188.88900756835938"><stop offset="0%" stop-color="rgb(153,180,25)"/><stop offset="46%" stop-color="rgb(131,163,21)"/><stop offset="93%" stop-color="rgb(109,147,18)"/></linearGradient><radialGradient id="__lottie_element_8688" spreadMethod="pad" gradientUnits="userSpaceOnUse" cx="-6.039999961853027" cy="-160.1230010986328" r="342.6724710471032" fx="-6.039999961853027" fy="-160.1230010986328"><stop offset="7%" stop-color="rgb(236,246,191)"/><stop offset="28%" stop-color="rgb(198,215,101)"/><stop offset="49%" stop-color="rgb(159,185,12)"/><stop offset="82%" stop-color="rgb(138,169,12)"/><stop offset="100%" stop-color="rgb(118,154,13)"/></radialGradient><radialGradient id="__lottie_element_8707" spreadMethod="pad" gradientUnits="userSpaceOnUse" cx="122" cy="27" r="62.65199279785156" fx="122" fy="27"><stop offset="0%" stop-color="rgb(241,12,28)" stop-opacity="1"/><stop offset="59%" stop-color="rgb(224,29,33)" stop-opacity="0.5"/><stop offset="100%" stop-color="rgb(207,45,38)" stop-opacity="0"/></radialGradient><radialGradient id="__lottie_element_8708" spreadMethod="pad" gradientUnits="userSpaceOnUse" cx="-122" cy="27" r="62.652000427246094" fx="-122" fy="27"><stop offset="0%" stop-color="rgb(241,12,28)" stop-opacity="1"/><stop offset="59%" stop-color="rgb(224,29,33)" stop-opacity="0.5"/><stop offset="100%" stop-color="rgb(207,45,38)" stop-opacity="0"/></radialGradient></defs><g clip-path="url(#__lottie_element_8678)"><g style="display: block;" transform="matrix(1.034000039100647,0,0,1.034000039100647,253,261.6400146484375)" opacity="1"><g opacity="1" transform="matrix(0.9700000286102295,0,0,0.9700000286102295,-206.62368774414062,-214.21868896484375)"><g opacity="1" transform="matrix(1,0,0,1,215.6439971923828,215.64500427246094)"><path fill="url(#__lottie_element_8687)" fill-opacity="1" d=" M194.9969940185547,0 C194.9969940185547,107.69400024414062 107.69300079345703,194.9969940185547 0,194.9969940185547 C-107.69400024414062,194.9969940185547 -194.9969940185547,107.69400024414062 -194.9969940185547,0 C-194.9969940185547,-107.69400024414062 -107.69400024414062,-194.9969940185547 0,-194.9969940185547 C107.69300079345703,-194.9969940185547 194.9969940185547,-107.69400024414062 194.9969940185547,0z"/></g><g opacity="1" transform="matrix(1,0,0,1,215.70199584960938,213.7169952392578)"><path fill="url(#__lottie_element_8688)" fill-opacity="1" d=" M173.80799865722656,2.6630001068115234 C172.3040008544922,100.77200317382812 93.26899719238281,179.11199951171875 -2.7230000495910645,177.63999938964844 C-98.71399688720703,176.16799926757812 -175.31199645996094,95.44499969482422 -173.80799865722656,-2.6640000343322754 C-172.3040008544922,-100.77300262451172 -93.26899719238281,-179.11199951171875 2.7230000495910645,-177.64100646972656 C98.71399688720703,-176.16900634765625 175.31199645996094,-95.44499969482422 173.80799865722656,2.6630001068115234z"/></g><g opacity="1" transform="matrix(1,0,0,1,215.6439971923828,215.64500427246094)"><path stroke-linecap="butt" stroke-linejoin="miter" fill-opacity="0" stroke-miterlimit="10" stroke="rgb(95,124,8)" stroke-opacity="1" stroke-width="8.259" d=" M194.9969940185547,0 C194.9969940185547,107.69400024414062 107.69300079345703,194.9969940185547 0,194.9969940185547 C-107.69400024414062,194.9969940185547 -194.9969940185547,107.69400024414062 -194.9969940185547,0 C-194.9969940185547,-107.69400024414062 -107.69400024414062,-194.9969940185547 0,-194.9969940185547 C107.69300079345703,-194.9969940185547 194.9969940185547,-107.69400024414062 194.9969940185547,0z"/></g></g></g><g style="display: block;" transform="matrix(0.97007817029953,0,0,0.97007817029953,257.69659423828125,297.65411376953125)" opacity="0.58"><g opacity="0.5" transform="matrix(1,0,0,1,0,0)"><path fill="url(#__lottie_element_8707)" fill-opacity="1" d=" M185.43699645996094,27.448999404907227 C185.43699645996094,62.05099868774414 157.38699340820312,90.10199737548828 122.78500366210938,90.10199737548828 C88.18299865722656,90.10199737548828 60.132999420166016,62.05099868774414 60.132999420166016,27.448999404907227 C60.132999420166016,-7.1529998779296875 88.18299865722656,-35.202999114990234 122.78500366210938,-35.202999114990234 C157.38699340820312,-35.202999114990234 185.43699645996094,-7.1529998779296875 185.43699645996094,27.448999404907227z"/></g><g opacity="0.5" transform="matrix(1,0,0,1,0,0)"><path fill="url(#__lottie_element_8708)" fill-opacity="1" d=" M-58.80099868774414,27.448999404907227 C-58.80099868774414,62.05099868774414 -86.85099792480469,90.10199737548828 -121.4530029296875,90.10199737548828 C-156.05499267578125,90.10199737548828 -184.10499572753906,62.05099868774414 -184.10499572753906,27.448999404907227 C-184.10499572753906,-7.1529998779296875 -156.05499267578125,-35.202999114990234 -121.4530029296875,-35.202999114990234 C-86.85099792480469,-35.202999114990234 -58.80099868774414,-7.1529998779296875 -58.80099868774414,27.448999404907227z"/></g></g><g style="display: block;" transform="matrix(1.034000039100647,0,0,1.034000039100647,253,261.6400146484375)" opacity="1"><g opacity="1" transform="matrix(1,0,0,1,0,0)"><path fill="rgb(190,225,59)" fill-opacity="1" d=" M83.5260009765625,18.45599937438965 C83.31500244140625,18.02199935913086 82.8239974975586,17.798999786376953 82.36100006103516,17.92799949645996 C81.49500274658203,18.165000915527344 61.63100051879883,28.805999755859375 54.4109992980957,46.073001861572266 C46.01599884033203,39.861000061035156 28.986000061035156,30.492000579833984 2.6029999256134033,30.492000579833984 C-24.250999450683594,30.492000579833984 -41.051998138427734,40.196998596191406 -49.058998107910156,46.409000396728516 C-56.1609992980957,28.881999969482422 -76.26899719238281,18.16699981689453 -77.14099884033203,17.92799949645996 C-77.60600280761719,17.799999237060547 -78.09500122070312,18.02199935913086 -78.30599975585938,18.45599937438965 C-78.51599884033203,18.889999389648438 -78.38700103759766,19.41200065612793 -77.99800109863281,19.69700050354004 C-77.84300231933594,19.812000274658203 -62.3380012512207,36.32099914550781 -56.779998779296875,50.60900115966797 C-50.676998138427734,66.302001953125 -52.584999084472656,79.38400268554688 -52.60499954223633,79.56500244140625 C-52.65800094604492,80.04199981689453 -52.3650016784668,80.48899841308594 -51.90700149536133,80.63099670410156 C-51.808998107910156,80.66100311279297 -51.709999084472656,80.6760025024414 -51.611000061035156,80.6760025024414 C-51.25,80.6760025024414 -50.90700149536133,80.47899627685547 -50.729000091552734,80.14700317382812 C-50.37200164794922,79.47899627685547 -44.38999938964844,68.9209976196289 -44.38999938964844,50.46500015258789 C-35.90800094604492,47.207000732421875 -20.988000869750977,41.63199996948242 2.7170000076293945,41.448001861572266 C25.73900032043457,41.257999420166016 40.777000427246094,46.768001556396484 49.6870002746582,50.16999816894531 C49.6870002746582,68.8030014038086 55.5890007019043,79.47599792480469 55.948001861572266,80.14700317382812 C56.125999450683594,80.47899627685547 56.46900177001953,80.6760025024414 56.83000183105469,80.6760025024414 C56.92900085449219,80.6760025024414 57.02799987792969,80.66100311279297 57.125999450683594,80.63099670410156 C57.58399963378906,80.48899841308594 57.87699890136719,80.04199981689453 57.82400131225586,79.56500244140625 C57.80400085449219,79.38400268554688 55.89099884033203,66.31800079345703 61.999000549316406,50.60900115966797 C67.5510025024414,36.334999084472656 83.06199645996094,19.812000274658203 83.21700286865234,19.69700050354004 C83.60600280761719,19.41200065612793 83.73600006103516,18.889999389648438 83.5260009765625,18.45599937438965z"/></g><g opacity="0.7000000000000001" transform="matrix(1,0,0,1,0,0)"><path fill="rgb(137,161,1)" fill-opacity="1" d=" M82.35900115966797,17.92300033569336 C82.35900115966797,17.92300033569336 61.630001068115234,23.80299949645996 54.40999984741211,41.073001861572266 C46.02000045776367,34.862998962402344 28.989999771118164,25.493000030517578 2.5999999046325684,25.493000030517578 C-24.25,25.493000030517578 -41.05099868774414,35.19300079345703 -49.06100082397461,41.41299819946289 C-56.1609992980957,23.882999420166016 -76.25399780273438,18.08799934387207 -77.14099884033203,17.92300033569336 C-57.01499938964844,21.677000045776367 -48.06100082397461,37.01300048828125 -48.06100082397461,37.01300048828125 C-40.05099868774414,30.792999267578125 -24.25,21.0939998626709 2.5999999046325684,21.0939998626709 C28.989999771118164,21.0939998626709 45.02000045776367,30.46299934387207 53.40999984741211,36.67300033569336 C53.40999984741211,36.67300033569336 61.29899978637695,21.135000228881836 82.35900115966797,17.92300033569336z"/></g><g opacity="1" transform="matrix(1,0,0,1,0,0)"><path fill="rgb(64,127,6)" fill-opacity="1" d=" M83.5260009765625,18.45599937438965 C83.31500244140625,18.02199935913086 82.8239974975586,17.798999786376953 82.36100006103516,17.92799949645996 C81.49500274658203,18.165000915527344 61.63100051879883,23.805999755859375 54.4109992980957,41.073001861572266 C46.01599884033203,34.861000061035156 28.986000061035156,25.492000579833984 2.6029999256134033,25.492000579833984 C-24.250999450683594,25.492000579833984 -41.051998138427734,35.196998596191406 -49.058998107910156,41.409000396728516 C-56.1609992980957,23.881999969482422 -76.26899719238281,18.16699981689453 -77.14099884033203,17.92799949645996 C-77.60600280761719,17.799999237060547 -78.09500122070312,18.02199935913086 -78.30599975585938,18.45599937438965 C-78.51599884033203,18.889999389648438 -78.38700103759766,19.41200065612793 -77.99800109863281,19.69700050354004 C-77.84300231933594,19.812000274658203 -62.3380012512207,31.320999145507812 -56.779998779296875,45.60900115966797 C-50.676998138427734,61.301998138427734 -52.584999084472656,79.38400268554688 -52.60499954223633,79.56500244140625 C-52.65800094604492,80.04199981689453 -52.3650016784668,80.48899841308594 -51.90700149536133,80.63099670410156 C-51.808998107910156,80.66100311279297 -51.709999084472656,80.6760025024414 -51.611000061035156,80.6760025024414 C-51.25,80.6760025024414 -50.90700149536133,80.47899627685547 -50.729000091552734,80.14700317382812 C-50.37200164794922,79.47899627685547 -44.32400131225586,65.88899993896484 -47.38999938964844,47.46500015258789 C-38.90800094604492,44.207000732421875 -20.988000869750977,37.63199996948242 2.7170000076293945,37.448001861572266 C25.73900032043457,37.257999420166016 43.777000427246094,43.768001556396484 52.6870002746582,47.16999816894531 C49.52199935913086,65.35399627685547 55.5890007019043,79.47599792480469 55.948001861572266,80.14700317382812 C56.125999450683594,80.47899627685547 56.46900177001953,80.6760025024414 56.83000183105469,80.6760025024414 C56.92900085449219,80.6760025024414 57.02799987792969,80.66100311279297 57.125999450683594,80.63099670410156 C57.58399963378906,80.48899841308594 57.87699890136719,80.04199981689453 57.82400131225586,79.56500244140625 C57.80400085449219,79.38400268554688 55.89099884033203,61.31800079345703 61.999000549316406,45.60900115966797 C67.5510025024414,31.334999084472656 83.06199645996094,19.812000274658203 83.21700286865234,19.69700050354004 C83.60600280761719,19.41200065612793 83.73600006103516,18.889999389648438 83.5260009765625,18.45599937438965z"/></g><g opacity="1" transform="matrix(1,0,0,1,0,0)"><path fill="rgb(36,81,5)" fill-opacity="1" d=" M83.21900177001953,19.69300079345703 C83.16899871826172,19.722999572753906 81.87000274658203,20.70400047302246 79.88999938964844,22.40399932861328 C74.56999969482422,24.833999633789062 62.13999938964844,31.8439998626709 56.40999984741211,45.54399871826172 C48.02000045776367,39.33399963378906 28.989999771118164,29.964000701904297 2.5999999046325684,29.964000701904297 C-24.25,29.964000701904297 -43.05099868774414,39.67399978637695 -51.06100082397461,45.88399887084961 C-56.71099853515625,31.93400001525879 -69.33999633789062,24.822999954223633 -74.69000244140625,22.39299964904785 C-76.6500015258789,20.69300079345703 -77.95099639892578,19.722999572753906 -78.0009994506836,19.69300079345703 C-78.39099884033203,19.413000106811523 -78.52100372314453,18.89299964904785 -78.31099700927734,18.452999114990234 C-78.09100341796875,18.023000717163086 -77.61100006103516,17.80299949645996 -77.14099884033203,17.92300033569336 C-76.27100372314453,18.163000106811523 -56.1609992980957,23.882999420166016 -49.06100082397461,41.41299819946289 C-41.05099868774414,35.19300079345703 -24.25,25.493000030517578 2.5999999046325684,25.493000030517578 C28.989999771118164,25.493000030517578 46.02000045776367,34.862998962402344 54.40999984741211,41.073001861572266 C61.630001068115234,23.80299949645996 81.4990005493164,18.163000106811523 82.35900115966797,17.92300033569336 C82.81900024414062,17.80299949645996 83.31999969482422,18.023000717163086 83.52999877929688,18.452999114990234 C83.73999786376953,18.89299964904785 83.60900115966797,19.413000106811523 83.21900177001953,19.69300079345703z"/></g></g><g style="display: block;" transform="matrix(1.034000039100647,0,0,1.034000039100647,253,261.6400146484375)" opacity="1"><g opacity="0.7000000000000001" transform="matrix(1,0,0,1,0,0)"><path fill="rgb(137,161,1)" fill-opacity="1" d=" M-35.10499954223633,-48.93600082397461 C-35.10499954223633,-33.992000579833984 -45.61899948120117,-21.87700080871582 -58.59000015258789,-21.87700080871582 C-71.56099700927734,-21.87700080871582 -82.07599639892578,-33.992000579833984 -82.07599639892578,-48.93600082397461 C-82.07599639892578,-63.880001068115234 -71.56099700927734,-76.9520034790039 -58.59000015258789,-76.9520034790039 C-45.61899948120117,-76.9520034790039 -35.10499954223633,-63.880001068115234 -35.10499954223633,-48.93600082397461z"/></g><g opacity="1" transform="matrix(1,0,0,1,0,0)"><path fill="rgb(194,221,51)" fill-opacity="1" d=" M-35.10499954223633,-39.20899963378906 C-35.10499954223633,-24.264999389648438 -45.61899948120117,-12.149999618530273 -58.59000015258789,-12.149999618530273 C-71.56099700927734,-12.149999618530273 -82.07599639892578,-24.264999389648438 -82.07599639892578,-39.20899963378906 C-82.07599639892578,-54.15299987792969 -71.56099700927734,-66.26799774169922 -58.59000015258789,-66.26799774169922 C-45.61899948120117,-66.26799774169922 -35.10499954223633,-54.15299987792969 -35.10499954223633,-39.20899963378906z"/></g><g opacity="1" transform="matrix(1,0,0,1,0,0)"><path fill="rgb(64,127,6)" fill-opacity="1" d=" M-36.571998596191406,-44.415000915527344 C-36.571998596191406,-29.47100067138672 -46.43000030517578,-17.354999542236328 -58.59000015258789,-17.354999542236328 C-70.75,-17.354999542236328 -80.60800170898438,-29.47100067138672 -80.60800170898438,-44.415000915527344 C-80.60800170898438,-59.35900115966797 -70.75,-71.4739990234375 -58.59000015258789,-71.4739990234375 C-46.43000030517578,-71.4739990234375 -36.571998596191406,-59.35900115966797 -36.571998596191406,-44.415000915527344z"/></g><g opacity="1" transform="matrix(1,0,0,1,0,0)"><path fill="rgb(35,80,4)" fill-opacity="1" d=" M-36.571998596191406,-44.4109992980957 C-36.571998596191406,-43.22200012207031 -36.637001037597656,-42.05099868774414 -36.76499938964844,-40.90599822998047 C-38.145999908447266,-54.20600128173828 -47.39400100708008,-65.427001953125 -58.5890007019043,-65.427001953125 C-69.78399658203125,-65.427001953125 -79.03099822998047,-54.20600128173828 -80.41200256347656,-40.90599822998047 C-80.54000091552734,-42.05099868774414 -80.6050033569336,-43.22200012207031 -80.6050033569336,-44.4109992980957 C-80.6050033569336,-59.35900115966797 -70.74800109863281,-71.47100067138672 -58.5890007019043,-71.47100067138672 C-46.43000030517578,-71.47100067138672 -36.571998596191406,-59.35900115966797 -36.571998596191406,-44.4109992980957z"/></g></g><g style="display: block;" transform="matrix(1.034000039100647,0,0,1.034000039100647,253,261.6400146484375)" opacity="1"><g opacity="0.7000000000000001" transform="matrix(1,0,0,1,0,0)"><path fill="rgb(137,161,1)" fill-opacity="1" d=" M87.2959976196289,-48.93600082397461 C87.2959976196289,-33.992000579833984 76.78099822998047,-21.87700080871582 63.810001373291016,-21.87700080871582 C50.8390007019043,-21.87700080871582 40.32400131225586,-33.992000579833984 40.32400131225586,-48.93600082397461 C40.32400131225586,-63.880001068115234 50.8390007019043,-76.9520034790039 63.810001373291016,-76.9520034790039 C76.78099822998047,-76.9520034790039 87.2959976196289,-63.880001068115234 87.2959976196289,-48.93600082397461z"/></g><g opacity="1" transform="matrix(1,0,0,1,0,0)"><path fill="rgb(195,222,52)" fill-opacity="1" d=" M87.2959976196289,-39.20899963378906 C87.2959976196289,-24.264999389648438 76.78099822998047,-12.149999618530273 63.810001373291016,-12.149999618530273 C50.8390007019043,-12.149999618530273 40.32400131225586,-24.264999389648438 40.32400131225586,-39.20899963378906 C40.32400131225586,-54.15299987792969 50.8390007019043,-66.26799774169922 63.810001373291016,-66.26799774169922 C76.78099822998047,-66.26799774169922 87.2959976196289,-54.15299987792969 87.2959976196289,-39.20899963378906z"/></g><g opacity="1" transform="matrix(1,0,0,1,0,0)"><path fill="rgb(64,126,6)" fill-opacity="1" d=" M85.8280029296875,-44.415000915527344 C85.8280029296875,-29.47100067138672 75.97000122070312,-17.354999542236328 63.810001373291016,-17.354999542236328 C51.650001525878906,-17.354999542236328 41.79199981689453,-29.47100067138672 41.79199981689453,-44.415000915527344 C41.79199981689453,-59.35900115966797 51.650001525878906,-71.4739990234375 63.810001373291016,-71.4739990234375 C75.97000122070312,-71.4739990234375 85.8280029296875,-59.35900115966797 85.8280029296875,-44.415000915527344z"/></g><g opacity="1" transform="matrix(1,0,0,1,0,0)"><path fill="rgb(35,80,4)" fill-opacity="1" d=" M85.8280029296875,-44.4109992980957 C85.8280029296875,-43.22200012207031 85.76300048828125,-42.05099868774414 85.63500213623047,-40.90599822998047 C84.25399780273438,-54.20600128173828 75.00599670410156,-65.427001953125 63.81100082397461,-65.427001953125 C52.61600112915039,-65.427001953125 43.36899948120117,-54.20600128173828 41.987998962402344,-40.90599822998047 C41.86000061035156,-42.05099868774414 41.79499816894531,-43.22200012207031 41.79499816894531,-44.4109992980957 C41.79499816894531,-59.35900115966797 51.652000427246094,-71.47100067138672 63.81100082397461,-71.47100067138672 C75.97000122070312,-71.47100067138672 85.8280029296875,-59.35900115966797 85.8280029296875,-44.4109992980957z"/></g></g><g style="display: block;" transform="matrix(1.034000039100647,0,0,1.034000039100647,253,261.6400146484375)" opacity="1"><g opacity="1" transform="matrix(1,0,0,1,0,0)"><g opacity="1" transform="matrix(1,0,0,1,0,0)"><path fill="rgb(209,228,71)" fill-opacity="1" d=" M126.06500244140625,-66.60800170898438 C124.51899719238281,-65.7750015258789 120.56500244140625,-65.2959976196289 117.49500274658203,-65.38800048828125 C104.19000244140625,-65.78600311279297 80.87899780273438,-75.88700103759766 68.11000061035156,-95.15699768066406 C49.92499923706055,-122.5989990234375 61.70500183105469,-135.61700439453125 65.81300354003906,-129.96200561523438 C69.9209976196289,-124.30699920654297 82.2030029296875,-98.40399932861328 109.48300170898438,-85.00499725341797 C116.79299926757812,-81.41500091552734 124.01699829101562,-81.74600219726562 127.88899993896484,-79.4010009765625 C133.00399780273438,-76.30400085449219 131.74200439453125,-69.66600036621094 126.06500244140625,-66.60800170898438z"/></g><g opacity="1" transform="matrix(1,0,0,1,0,0)"><path fill="rgb(64,127,6)" fill-opacity="1" d=" M127.51799774169922,-71.16300201416016 C126.0199966430664,-70.24800109863281 122.27200317382812,-69.46700286865234 119.2020034790039,-69.55899810791016 C105.89700317382812,-69.95700073242188 84.41400146484375,-78.18299865722656 71.64399719238281,-97.4530029296875 C53.45899963378906,-124.8949966430664 61.70500183105469,-135.61700439453125 65.81300354003906,-129.96200561523438 C69.9209976196289,-124.30699920654297 82.74800109863281,-101.21199798583984 110.02799987792969,-87.81300354003906 C117.33799743652344,-84.2229995727539 122.9020004272461,-82.48899841308594 126.77400207519531,-80.14399719238281 C131.88900756835938,-77.0469970703125 131.6300048828125,-73.67500305175781 127.51799774169922,-71.16300201416016z"/></g><g opacity="1" transform="matrix(1,0,0,1,0,0)"><path fill="rgb(36,81,5)" fill-opacity="1" d=" M128.7429962158203,-72.03800201416016 C128.1490020751953,-72.97899627685547 127.09200286865234,-73.93800354003906 125.55400085449219,-74.87000274658203 C121.6780014038086,-77.21800231933594 116.11299896240234,-78.95600128173828 108.80699920654297,-82.5459976196289 C81.52200317382812,-95.94000244140625 68.69400024414062,-119.04299926757812 64.59300231933594,-124.69400024414062 C63.262001037597656,-126.5199966430664 61.50600051879883,-126.63999938964844 60.340999603271484,-125.03700256347656 C60.27899932861328,-131.3459930419922 63.62900161743164,-132.9669952392578 65.81600189208984,-129.96099853515625 C69.91699981689453,-124.30999755859375 82.74500274658203,-101.20700073242188 110.02999877929688,-87.81300354003906 C117.33599853515625,-84.2229995727539 122.9000015258789,-82.48600006103516 126.77899932861328,-80.14800262451172 C131.3159942626953,-77.39900207519531 131.61900329589844,-74.43299865722656 128.7429962158203,-72.03800201416016z"/></g></g></g><g style="display: block;" transform="matrix(1.034000039100647,0,0,1.034000039100647,253,261.6400146484375)" opacity="1"><g opacity="1" transform="matrix(1,0,0,1,0,0)"><g opacity="1" transform="matrix(1,0,0,1,0,0)"><path fill="rgb(209,228,71)" fill-opacity="1" d=" M-121.13899993896484,-66.60800170898438 C-119.59300231933594,-65.7750015258789 -115.63800048828125,-65.2959976196289 -112.56800079345703,-65.38800048828125 C-99.26300048828125,-65.78600311279297 -75.9530029296875,-75.88700103759766 -63.183998107910156,-95.15699768066406 C-44.999000549316406,-122.5989990234375 -56.77899932861328,-135.61700439453125 -60.887001037597656,-129.96200561523438 C-64.99500274658203,-124.30699920654297 -77.2770004272461,-98.40399932861328 -104.55699920654297,-85.00499725341797 C-111.86699676513672,-81.41500091552734 -119.09100341796875,-81.74600219726562 -122.96299743652344,-79.4010009765625 C-128.0780029296875,-76.30400085449219 -126.81600189208984,-69.66600036621094 -121.13899993896484,-66.60800170898438z"/></g><g opacity="1" transform="matrix(1,0,0,1,0,0)"><path fill="rgb(64,127,6)" fill-opacity="1" d=" M-122.59200286865234,-71.16300201416016 C-121.09400177001953,-70.24800109863281 -117.34600067138672,-69.46700286865234 -114.2760009765625,-69.55899810791016 C-100.97100067138672,-69.95700073242188 -79.48799896240234,-78.18299865722656 -66.71800231933594,-97.4530029296875 C-48.53300094604492,-124.8949966430664 -56.77899932861328,-135.61700439453125 -60.887001037597656,-129.96200561523438 C-64.99500274658203,-124.30699920654297 -77.8219985961914,-101.21199798583984 -105.10199737548828,-87.81300354003906 C-112.41200256347656,-84.2229995727539 -117.97599792480469,-82.48899841308594 -121.8479995727539,-80.14399719238281 C-126.96299743652344,-77.0469970703125 -126.70500183105469,-73.67500305175781 -122.59200286865234,-71.16300201416016z"/></g><g opacity="1" transform="matrix(1,0,0,1,0,0)"><path fill="rgb(36,81,5)" fill-opacity="1" d=" M-123.81600189208984,-72.03800201416016 C-123.22200012207031,-72.97899627685547 -122.16600036621094,-73.93800354003906 -120.62799835205078,-74.87000274658203 C-116.75199890136719,-77.21800231933594 -111.18699645996094,-78.95600128173828 -103.88099670410156,-82.5459976196289 C-76.59600067138672,-95.94000244140625 -63.768001556396484,-119.04299926757812 -59.66699981689453,-124.69400024414062 C-58.33599853515625,-126.5199966430664 -56.58000183105469,-126.63999938964844 -55.415000915527344,-125.03700256347656 C-55.35300064086914,-131.3459930419922 -58.702999114990234,-132.9669952392578 -60.88999938964844,-129.96099853515625 C-64.99099731445312,-124.30999755859375 -77.81900024414062,-101.20700073242188 -105.10399627685547,-87.81300354003906 C-112.41000366210938,-84.2229995727539 -117.9739990234375,-82.48600006103516 -121.85299682617188,-80.14800262451172 C-126.38999938964844,-77.39900207519531 -126.69200134277344,-74.43299865722656 -123.81600189208984,-72.03800201416016z"/></g></g></g></g></svg>