<svg xmlns="http://www.w3.org/2000/svg" xmlns:xlink="http://www.w3.org/1999/xlink" viewBox="0 0 512 512" width="512" height="512" style="width: 100%; height: 100%; transform: translate3d(0,0,0);" preserveAspectRatio="xMidYMid meet"><defs><clipPath id="__lottie_element_41871"><rect width="512" height="512" x="0" y="0"/></clipPath><radialGradient id="__lottie_element_41881" spreadMethod="pad" gradientUnits="userSpaceOnUse" cx="14.425000190734863" cy="-69.71600341796875" r="233.0739871313888" fx="14.425000190734863" fy="-69.71600341796875"><stop offset="0%" stop-color="rgb(222,238,240)"/><stop offset="29%" stop-color="rgb(180,209,210)"/><stop offset="57%" stop-color="rgb(138,180,179)"/><stop offset="79%" stop-color="rgb(94,129,131)"/><stop offset="100%" stop-color="rgb(50,78,83)"/></radialGradient><radialGradient id="__lottie_element_41882" spreadMethod="pad" gradientUnits="userSpaceOnUse" cx="7.7210001945495605" cy="-39.53799819946289" r="210.27116460377897" fx="7.7210001945495605" fy="-39.53799819946289"><stop offset="0%" stop-color="rgb(222,238,240)"/><stop offset="30%" stop-color="rgb(180,209,210)"/><stop offset="59%" stop-color="rgb(138,180,179)"/><stop offset="81%" stop-color="rgb(94,129,131)"/><stop offset="100%" stop-color="rgb(50,78,83)"/></radialGradient><linearGradient id="__lottie_element_41883" spreadMethod="pad" gradientUnits="userSpaceOnUse" x1="-62.474998474121094" y1="87.64900207519531" x2="-17.233999252319336" y2="-26.006000518798828"><stop offset="0%" stop-color="rgb(41,61,63)" stop-opacity="0.5"/><stop offset="50%" stop-color="rgb(41,61,63)" stop-opacity="0.25"/><stop offset="100%" stop-color="rgb(41,61,63)" stop-opacity="0"/></linearGradient><linearGradient id="__lottie_element_41886" spreadMethod="pad" gradientUnits="userSpaceOnUse" x1="-31.885000228881836" y1="61.244998931884766" x2="-12.479000091552734" y2="-12.746000289916992"><stop offset="0%" stop-color="rgb(61,61,60)"/><stop offset="62%" stop-color="rgb(91,91,90)"/><stop offset="100%" stop-color="rgb(121,120,119)"/></linearGradient><linearGradient id="__lottie_element_41887" spreadMethod="pad" gradientUnits="userSpaceOnUse" x1="38.08100128173828" y1="47.16600036621094" x2="-38.755001068115234" y2="-35.005001068115234"><stop offset="0%" stop-color="rgb(203,202,203)"/><stop offset="25%" stop-color="rgb(203,202,203)"/><stop offset="50%" stop-color="rgb(203,202,203)"/><stop offset="75%" stop-color="rgb(162,161,161)"/><stop offset="100%" stop-color="rgb(121,120,119)"/></linearGradient><radialGradient id="__lottie_element_41888" spreadMethod="pad" gradientUnits="userSpaceOnUse" cx="59.422000885009766" cy="93.99600219726562" r="168.268239595637" fx="59.422000885009766" fy="93.99600219726562"><stop offset="66%" stop-color="rgb(203,202,203)"/><stop offset="83%" stop-color="rgb(162,161,161)"/><stop offset="100%" stop-color="rgb(121,120,119)"/><stop offset="100%" stop-color="rgb(121,120,119)"/><stop offset="100%" stop-color="rgb(121,120,119)"/></radialGradient><radialGradient id="__lottie_element_41895" spreadMethod="pad" gradientUnits="userSpaceOnUse"><stop/><stop/><stop/></radialGradient><radialGradient id="__lottie_element_41896" spreadMethod="pad" gradientUnits="userSpaceOnUse"><stop/><stop/><stop/></radialGradient><radialGradient id="__lottie_element_41897" spreadMethod="pad" gradientUnits="userSpaceOnUse"><stop/><stop/><stop/></radialGradient><linearGradient id="__lottie_element_41898" spreadMethod="pad" gradientUnits="userSpaceOnUse"><stop/><stop/><stop/></linearGradient><radialGradient id="__lottie_element_41902" spreadMethod="pad" gradientUnits="userSpaceOnUse" cx="14.902000427246094" cy="12.647000312805176" r="93.26499938964844" fx="14.902000427246094" fy="12.647000312805176"><stop offset="0%" stop-color="rgb(255,255,255)"/><stop offset="50%" stop-color="rgb(232,233,234)"/><stop offset="100%" stop-color="rgb(209,211,212)"/></radialGradient><radialGradient id="__lottie_element_41903" spreadMethod="pad" gradientUnits="userSpaceOnUse" cx="-1.5540000200271606" cy="12.506999969482422" r="39.94424385524368" fx="-1.5540000200271606" fy="12.506999969482422"><stop offset="50%" stop-color="rgb(61,74,79)"/><stop offset="60%" stop-color="rgb(31,37,40)"/><stop offset="70%" stop-color="rgb(0,0,0)"/></radialGradient><radialGradient id="__lottie_element_41904" spreadMethod="pad" gradientUnits="userSpaceOnUse" cx="-0.5540000200271606" cy="-1.7649999856948853" r="39.52263494628868" fx="-0.5540000200271606" fy="-1.7649999856948853"><stop offset="53%" stop-color="rgb(0,0,0)" stop-opacity="1"/><stop offset="64%" stop-color="rgb(0,0,0)" stop-opacity="0.5"/><stop offset="76%" stop-color="rgb(0,0,0)" stop-opacity="0"/></radialGradient><linearGradient id="__lottie_element_41905" spreadMethod="pad" gradientUnits="userSpaceOnUse" x1="-0.6570000052452087" y1="5.764999866485596" x2="-0.6570000052452087" y2="-4.85699987411499"><stop offset="0%" stop-color="rgb(255,255,255)" stop-opacity="0"/><stop offset="50%" stop-color="rgb(255,255,255)" stop-opacity="0.5"/><stop offset="100%" stop-color="rgb(255,255,255)" stop-opacity="1"/></linearGradient></defs><g clip-path="url(#__lottie_element_41871)"><g style="display: block;" transform="matrix(0.8199999928474426,0,0,0.8199999928474426,43.57981872558594,46.08000183105469)" opacity="1"><g opacity="1" transform="matrix(1,0,0,1,301.7699890136719,256)"><path fill="url(#__lottie_element_41881)" fill-opacity="1" d=" M196.81199645996094,-2.128999948501587 C196.81199645996094,119.08499908447266 146.22799682617188,181.60000610351562 4.732999801635742,192.5760040283203 C-54.97800064086914,197.20799255371094 -98.03500366210938,181.3780059814453 -128.08200073242188,153.1959991455078 C-136.61599731445312,145.19200134277344 -145.53399658203125,138.03799438476562 -155.63099670410156,137.44000244140625 C-196.01499938964844,96.80000305175781 -206.93099975585938,41.99100112915039 -187.3470001220703,-2.128999948501587 C-193.07400512695312,-117.61499786376953 -101.3499984741211,-193.37399291992188 4.732999801635742,-193.37399291992188 C110.81600189208984,-193.37399291992188 196.81199645996094,-118.09200286865234 196.81199645996094,-2.128999948501587z"/><path stroke-linecap="round" stroke-linejoin="round" fill-opacity="0" stroke="rgb(62,106,104)" stroke-opacity="1" stroke-width="10" d=" M196.81199645996094,-2.128999948501587 C196.81199645996094,119.08499908447266 146.22799682617188,181.60000610351562 4.732999801635742,192.5760040283203 C-54.97800064086914,197.20799255371094 -98.03500366210938,181.3780059814453 -128.08200073242188,153.1959991455078 C-136.61599731445312,145.19200134277344 -145.53399658203125,138.03799438476562 -155.63099670410156,137.44000244140625 C-196.01499938964844,96.80000305175781 -206.93099975585938,41.99100112915039 -187.3470001220703,-2.128999948501587 C-193.07400512695312,-117.61499786376953 -101.3499984741211,-193.37399291992188 4.732999801635742,-193.37399291992188 C110.81600189208984,-193.37399291992188 196.81199645996094,-118.09200286865234 196.81199645996094,-2.128999948501587z"/></g><g opacity="1" transform="matrix(1,0,0,1,308.66900634765625,254.98399353027344)"><path fill="url(#__lottie_element_41882)" fill-opacity="1" d=" M168.15899658203125,-0.871999979019165 C168.15899658203125,106.62300109863281 123.29900360107422,162.06199645996094 -2.180999994277954,171.79600524902344 C-85.04900360107422,178.2239990234375 -122.10600280761719,135.83399963378906 -129.24400329589844,80.56099700927734 C-228.7259979248047,-59.47600173950195 -119.62300109863281,-172.44200134277344 -2.180999994277954,-172.44200134277344 C91.8949966430664,-172.44200134277344 168.15899658203125,-103.70999908447266 168.15899658203125,-0.871999979019165z"/></g><g opacity="1" transform="matrix(1,0,0,1,306.4750061035156,345.35101318359375)"><path fill="url(#__lottie_element_41883)" fill-opacity="1" d=" M191.49400329589844,-103.24500274658203 C194.98399353027344,95.26100158691406 -91.36000061035156,103.24600219726562 -126.19599914550781,-3.6710000038146973 C-160.4949951171875,-28.464000701904297 -185.1739959716797,-36.68199920654297 -192.2519989013672,-96.95800018310547 C-184.71400451660156,9.704999923706055 -150.23899841308594,113.22200012207031 8.690999984741211,102.4749984741211 C180.8730010986328,90.83200073242188 196.5229949951172,-29.51099967956543 191.49400329589844,-103.24500274658203z"/></g></g><g style="display: block;" transform="matrix(0.8199999928474426,0,0,0.8199999928474426,43.57981872558594,46.08000183105469)" opacity="1"><g opacity="1" transform="matrix(1,0,0,1,0,0)"><g opacity="0.5" transform="matrix(1,0,0,1,243.4320068359375,222.41600036621094)"><path fill="rgb(62,106,104)" fill-opacity="1" d=" M-9.279999732971191,-85.78199768066406 C43.98500061035156,-84.85700225830078 98.4020004272461,3.4809999465942383 88.12100219726562,43.38600158691406 C78.00700378417969,82.6449966430664 -52.74100112915039,107.5790023803711 -78.94999694824219,58.935001373291016 C-95.85800170898438,27.554000854492188 -90.95800018310547,-13.475000381469727 -73.25399780273438,-43.83100128173828 C-58.81700134277344,-68.58599853515625 -35.8650016784668,-86.24400329589844 -9.279999732971191,-85.78199768066406z"/></g><g opacity="0.2" transform="matrix(1,0,0,1,246.3300018310547,235.14999389648438)"><path fill="rgb(255,255,255)" fill-opacity="1" d=" M-10.177000045776367,-82.51499938964844 C31.41200065612793,-88.52300262451172 96.6520004272461,2.115000009536743 87.1780014038086,38.652000427246094 C77.00199890136719,77.89600372314453 -38.89799880981445,103.07599639892578 -74.80799865722656,61.08100128173828 C-93.25900268554688,39.50299835205078 -91.15399932861328,4.422999858856201 -76.7969970703125,-25.735000610351562 C-63.2130012512207,-54.270999908447266 -38.65999984741211,-78.4000015258789 -10.177000045776367,-82.51499938964844z"/></g><g opacity="1" transform="matrix(1,0,0,1,244.09800720214844,228.35299682617188)"><path fill="url(#__lottie_element_41902)" fill-opacity="1" d=" M-11.237000465393066,-81.71900177001953 C41.051998138427734,-80.79499816894531 93.69999694824219,5.741000175476074 87.45500183105469,37.44900131225586 C79.625,77.20099639892578 -39.481998443603516,101.87300109863281 -74.7969970703125,59.87799835205078 C-93.3759994506836,37.78499984741211 -90.92400360107422,-0.5370000004768372 -75.9530029296875,-31.746999740600586 C-62.46699905395508,-59.86199951171875 -38.82099914550781,-82.20600128173828 -11.237000465393066,-81.71900177001953z"/></g><g opacity="1" transform="matrix(1,0,0,1,0,0)"><g opacity="1" transform="matrix(1,0,0,1,226.8040008544922,243.4929962158203)"><path fill="rgb(255,255,255)" fill-opacity="1" d=" M-37.551998138427734,0 C-37.551998138427734,60.459999084472656 37.551998138427734,59.159000396728516 37.551998138427734,0 C37.551998138427734,-29.69700050354004 18.62700080871582,-44.81399917602539 -0.22300000488758087,-44.858001708984375 C-18.923999786376953,-44.902000427246094 -37.551998138427734,-30.110000610351562 -37.551998138427734,0z"/></g><g opacity="0.19" transform="matrix(1,0,0,1,226.8040008544922,229.87600708007812)"><path fill="rgb(35,31,32)" fill-opacity="1" d=" M-37.551998138427734,0 C-37.551998138427734,60.459999084472656 37.551998138427734,59.159000396728516 37.551998138427734,0 C37.551998138427734,-29.492000579833984 18.886999130249023,-44.604000091552734 0.16699999570846558,-44.85499954223633 C-18.663999557495117,-45.106998443603516 -37.551998138427734,-30.31999969482422 -37.551998138427734,0z"/></g><g opacity="1" transform="matrix(1,0,0,1,0,0)"><g opacity="1" transform="matrix(1,0,0,1,226.8040008544922,236.4929962158203)"><path fill="url(#__lottie_element_41903)" fill-opacity="1" d=" M-37.551998138427734,0 C-37.551998138427734,60.459999084472656 37.551998138427734,59.159000396728516 37.551998138427734,0 C37.551998138427734,-29.490999221801758 18.88800048828125,-44.60300064086914 0.16899999976158142,-44.85499954223633 C-18.663000106811523,-45.108001708984375 -37.551998138427734,-30.320999145507812 -37.551998138427734,0z"/></g><g opacity="1" transform="matrix(1,0,0,1,226.8040008544922,237.26499938964844)"><path fill="url(#__lottie_element_41904)" fill-opacity="1" d=" M-38.60499954223633,0 C-38.60499954223633,48.319000244140625 38.60499954223633,47.279998779296875 38.60499954223633,0 C38.60499954223633,-23.874000549316406 18.91900062561035,-35.957000732421875 -0.5720000267028809,-35.849998474121094 C-19.68199920654297,-35.744998931884766 -38.60499954223633,-23.92099952697754 -38.60499954223633,0z"/></g><g opacity="1" transform="matrix(1,0,0,1,222.65699768066406,211.23500061035156)"><path fill="url(#__lottie_element_41905)" fill-opacity="1" d=" M-10.835000038146973,0 C-10.835000038146973,13.236000061035156 10.835000038146973,12.951000213623047 10.835000038146973,0 C10.835000038146973,-12.951000213623047 -10.835000038146973,-13.236000061035156 -10.835000038146973,0z"/></g></g></g></g><g opacity="1" transform="matrix(1,0,0,1,0,0)"><path stroke-linecap="round" stroke-linejoin="round" fill-opacity="0" stroke="rgb(62,106,104)" stroke-opacity="1" stroke-width="0" d=" M174.28700256347656,169.98800659179688 C184.04800415039062,156.61000061035156 212.70700073242188,128.56100463867188 245.97999572753906,138.66799926757812"/></g></g><g style="display: block;" transform="matrix(0.8199999928474426,0,0,0.8199999928474426,43.57981872558594,46.08000183105469)" opacity="1"><g opacity="1" transform="matrix(1,0,0,1,301.7699890136719,256)"><path stroke-linecap="round" stroke-linejoin="round" fill-opacity="0" stroke="rgb(62,106,104)" stroke-opacity="1" stroke-width="10" d=" M196.81199645996094,-2.128999948501587 C196.81199645996094,119.08499908447266 146.22799682617188,181.60000610351562 4.732999801635742,192.5760040283203 C-54.97800064086914,197.20799255371094 -98.03500366210938,181.3780059814453 -128.08200073242188,153.1959991455078 C-136.61599731445312,145.19200134277344 -145.53399658203125,138.03799438476562 -155.63099670410156,137.44000244140625 C-196.01499938964844,96.80000305175781 -206.93099975585938,41.99100112915039 -187.3470001220703,-2.128999948501587 C-193.07400512695312,-117.61499786376953 -101.3499984741211,-193.37399291992188 4.732999801635742,-193.37399291992188 C110.81600189208984,-193.37399291992188 196.81199645996094,-118.09200286865234 196.81199645996094,-2.128999948501587z"/></g><g opacity="1" transform="matrix(1,0,0,1,301.7699890136719,256)"><path stroke-linecap="round" stroke-linejoin="round" fill-opacity="0" stroke="rgb(41,61,63)" stroke-opacity="1" stroke-width="10" d=" M196.78599548339844,-5.623000144958496 C196.80299377441406,-4.4629998207092285 196.81199645996094,-3.2980000972747803 196.81199645996094,-2.128999948501587 C196.81199645996094,-2.128999948501587 196.81199645996094,-2.128999948501587 196.81199645996094,-2.128999948501587 C196.81199645996094,119.08499908447266 146.22799682617188,181.60000610351562 4.732999801635742,192.5760040283203 C-54.97800064086914,197.20799255371094 -98.03500366210938,181.3780059814453 -128.08200073242188,153.1959991455078 C-136.61599731445312,145.19200134277344 -145.53399658203125,138.03799438476562 -155.63099670410156,137.44000244140625 C-190.75599670410156,102.09200286865234 -203.58799743652344,56.025001525878906 -193.447998046875,15.595999717712402"/></g></g><g style="display: block;" transform="matrix(0.8199999928474426,0,0,0.8199999928474426,45.62980651855469,46.08000183105469)" opacity="1"><g opacity="0.75" transform="matrix(1,0,0,1,0,0)"><path fill="rgb(51,77,81)" fill-opacity="1" d=" M116.44499969482422,356.5780029296875 C124.23200225830078,371.2439880371094 146.3719940185547,390.6239929199219 152.16400146484375,389.0580139160156 C157.15899658203125,387.7070007324219 168.13400268554688,366.97601318359375 179.43600463867188,344.2919921875"/></g><g opacity="1" transform="matrix(1,0,0,1,105.75499725341797,362.5570068359375)"><path fill="url(#__lottie_element_41886)" fill-opacity="1" d=" M74.52400207519531,-20.87700080871582 C76.1780014038086,-13.309000015258789 68.96299743652344,-1.5329999923706055 64.05000305175781,9.326000213623047 C60.29999923706055,17.614999771118164 57.152000427246094,25.1200008392334 55.38199996948242,30.20599937438965 C54.93000030517578,31.5049991607666 53.678001403808594,32.332000732421875 52.30400085449219,32.257999420166016 C19.920000076293945,30.511999130249023 -26.39900016784668,33.62900161743164 -74.76499938964844,11.892000198364258 C-79.25499725341797,-22.555999755859375 -71.25499725341797,-50.305999755859375 -41.41999816894531,-76.01200103759766 C-29.743999481201172,-67.48999786376953 54.63999938964844,-19.604000091552734 74.52400207519531,-20.87700080871582z"/><path stroke-linecap="round" stroke-linejoin="round" fill-opacity="0" stroke="rgb(45,41,42)" stroke-opacity="1" stroke-width="8" d=" M74.52400207519531,-20.87700080871582 C76.1780014038086,-13.309000015258789 68.96299743652344,-1.5329999923706055 64.05000305175781,9.326000213623047 C60.29999923706055,17.614999771118164 57.152000427246094,25.1200008392334 55.38199996948242,30.20599937438965 C54.93000030517578,31.5049991607666 53.678001403808594,32.332000732421875 52.30400085449219,32.257999420166016 C19.920000076293945,30.511999130249023 -26.39900016784668,33.62900161743164 -74.76499938964844,11.892000198364258 C-79.25499725341797,-22.555999755859375 -71.25499725341797,-50.305999755859375 -41.41999816894531,-76.01200103759766 C-29.743999481201172,-67.48999786376953 54.63999938964844,-19.604000091552734 74.52400207519531,-20.87700080871582z"/></g><g opacity="1" transform="matrix(1,0,0,1,109.572998046875,358.3380126953125)"><path fill="rgb(255,255,255)" fill-opacity="0.2" d=" M-68.04499816894531,16.909000396728516 C-48.72100067138672,15.180999755859375 -28.988000869750977,12.430000305175781 -10.753000259399414,9.116000175476074 C-2.5859999656677246,7.631999969482422 5.28000020980835,6.033999919891357 12.675000190734863,4.364999771118164 C17.19499969482422,3.3450000286102295 21.538000106811523,2.2980000972747803 25.666000366210938,1.2339999675750732 C29.507999420166016,0.24400000274181366 33.16299819946289,-0.7609999775886536 36.599998474121094,-1.7740000486373901 C42.40399932861328,-3.4839999675750732 47.58599853515625,-5.215000152587891 51.99599838256836,-6.929999828338623 C60.979000091552734,-10.423999786376953 66.75700378417969,-13.852999687194824 68.04499816894531,-16.909000396728516"/></g><g opacity="1" transform="matrix(1,0,0,1.0217900276184082,98.87699890136719,313.27899169921875)"><path fill="url(#__lottie_element_41887)" fill-opacity="1" d=" M12.23799991607666,-61.08100128173828 C-2.680000066757202,-52.86000061035156 -18.308000564575195,-43.3489990234375 -32.40700149536133,-32.17399978637695 C-34.56700134277344,-30.461999893188477 -36.69200134277344,-28.709999084472656 -38.77199935913086,-26.917999267578125 C-50.58300018310547,-16.746000289916992 -60.97700119018555,-5.271999835968018 -68.47699737548828,7.748000144958496 C-76.76499938964844,22.136999130249023 -81.51899719238281,38.41299819946289 -80.7490005493164,56.90999984741211 C-80.6240005493164,59.90399932861328 -78.06300354003906,62.20500183105469 -75.0770034790039,61.94900131225586 C-59.9370002746582,60.6510009765625 -38.08700180053711,56.22999954223633 -15.380000114440918,51.000999450683594 C21.18400001525879,42.58000183105469 59.970001220703125,32.0620002746582 76.54100036621094,29.110000610351562 C79.69300079345703,28.54800033569336 81.5770034790039,25.29800033569336 80.5479965209961,22.266000747680664 C77.63700103759766,13.687000274658203 67.53900146484375,7.999000072479248 52.85900115966797,-9.286999702453613 C42.426998138427734,-21.570999145507812 32.70600128173828,-33.67499923706055 21.756000518798828,-57.27899932861328 C19.725000381469727,-61.65800094604492 15.86299991607666,-63.07899856567383 12.23799991607666,-61.08100128173828z"/><path fill="url(#__lottie_element_41888)" fill-opacity="1" d=" M12.23799991607666,-61.08100128173828 C-2.680000066757202,-52.86000061035156 -18.308000564575195,-43.3489990234375 -32.40700149536133,-32.17399978637695 C-34.56700134277344,-30.461999893188477 -36.69200134277344,-28.709999084472656 -38.77199935913086,-26.917999267578125 C-50.58300018310547,-16.746000289916992 -60.97700119018555,-5.271999835968018 -68.47699737548828,7.748000144958496 C-76.76499938964844,22.136999130249023 -81.51899719238281,38.41299819946289 -80.7490005493164,56.90999984741211 C-80.6240005493164,59.90399932861328 -78.06300354003906,62.20500183105469 -75.0770034790039,61.94900131225586 C-59.9370002746582,60.6510009765625 -38.08700180053711,56.22999954223633 -15.380000114440918,51.000999450683594 C21.18400001525879,42.58000183105469 59.970001220703125,32.0620002746582 76.54100036621094,29.110000610351562 C79.69300079345703,28.54800033569336 81.5770034790039,25.29800033569336 80.5479965209961,22.266000747680664 C77.63700103759766,13.687000274658203 67.53900146484375,7.999000072479248 52.85900115966797,-9.286999702453613 C42.426998138427734,-21.570999145507812 32.70600128173828,-33.67499923706055 21.756000518798828,-57.27899932861328 C19.725000381469727,-61.65800094604492 15.86299991607666,-63.07899856567383 12.23799991607666,-61.08100128173828z"/><path stroke-linecap="round" stroke-linejoin="round" fill-opacity="0" stroke="rgb(65,64,66)" stroke-opacity="1" stroke-width="8" d=" M12.23799991607666,-61.08100128173828 C-2.680000066757202,-52.86000061035156 -18.308000564575195,-43.3489990234375 -32.40700149536133,-32.17399978637695 C-34.56700134277344,-30.461999893188477 -36.69200134277344,-28.709999084472656 -38.77199935913086,-26.917999267578125 C-50.58300018310547,-16.746000289916992 -60.97700119018555,-5.271999835968018 -68.47699737548828,7.748000144958496 C-76.76499938964844,22.136999130249023 -81.51899719238281,38.41299819946289 -80.7490005493164,56.90999984741211 C-80.6240005493164,59.90399932861328 -78.06300354003906,62.20500183105469 -75.0770034790039,61.94900131225586 C-59.9370002746582,60.6510009765625 -38.08700180053711,56.22999954223633 -15.380000114440918,51.000999450683594 C21.18400001525879,42.58000183105469 59.970001220703125,32.0620002746582 76.54100036621094,29.110000610351562 C79.69300079345703,28.54800033569336 81.5770034790039,25.29800033569336 80.5479965209961,22.266000747680664 C77.63700103759766,13.687000274658203 67.53900146484375,7.999000072479248 52.85900115966797,-9.286999702453613 C42.426998138427734,-21.570999145507812 32.70600128173828,-33.67499923706055 21.756000518798828,-57.27899932861328 C19.725000381469727,-61.65800094604492 15.86299991607666,-63.07899856567383 12.23799991607666,-61.08100128173828z"/></g><g opacity="1" transform="matrix(1,0,0,1,50.74599838256836,347.47698974609375)"><path fill="rgb(34,36,43)" fill-opacity="0.25" d=" M-17.020999908447266,-22.483999252319336 C-24.69099998474121,-9.420999526977539 -29.774999618530273,6.5920000076293945 -28.464000701904297,23.920000076293945 C-28.395000457763672,24.82699966430664 -27.770999908447266,25.304000854492188 -26.854000091552734,25.218000411987305 C-13.595999717712402,23.974000930786133 7.869999885559082,19.822999954223633 28.974000930786133,14.975000381469727 C11.628999710083008,-2.565999984741211 -5.160999774932861,-14.96399974822998 -17.020999908447266,-22.483999252319336z"/></g><g opacity="1" transform="matrix(1,0,0,1,75.81099700927734,285.66400146484375)"><path stroke-linecap="round" stroke-linejoin="round" fill-opacity="0" stroke="rgb(88,89,91)" stroke-opacity="1" stroke-width="8" d=" M44.744998931884766,-30.958999633789062 C42.7130012512207,-35.3380012512207 38.92900085449219,-36.874000549316406 35.30400085449219,-34.875999450683594 C20.35700035095215,-26.638999938964844 4.849999904632568,-16.611000061035156 -9.270000457763672,-5.4079999923706055 C-11.279999732971191,-3.813999891281128 -13.791000366210938,-1.4989999532699585 -15.732000350952148,0.164000004529953 C-27.382999420166016,10.14900016784668 -37.29499816894531,21.6200008392334 -44.821998596191406,34.354000091552734"/></g></g></g></svg>