<svg xmlns="http://www.w3.org/2000/svg" xmlns:xlink="http://www.w3.org/1999/xlink" viewBox="0 0 512 512" width="512" height="512" style="width: 100%; height: 100%; transform: translate3d(0,0,0);" preserveAspectRatio="xMidYMid meet"><defs><clipPath id="__lottie_element_2335"><rect width="512" height="512" x="0" y="0"/></clipPath><linearGradient id="__lottie_element_2341" spreadMethod="pad" gradientUnits="userSpaceOnUse" x1="-1.0399999618530273" y1="-176.5" x2="0.9599999785423279" y2="188.88900756835938"><stop offset="0%" stop-color="rgb(253,207,24)"/><stop offset="47%" stop-color="rgb(245,171,12)"/><stop offset="93%" stop-color="rgb(237,135,0)"/></linearGradient><radialGradient id="__lottie_element_2342" spreadMethod="pad" gradientUnits="userSpaceOnUse" cx="-6.039999961853027" cy="-160.1230010986328" r="342.6724710471032" fx="-6.039999961853027" fy="-160.1230010986328"><stop offset="7%" stop-color="rgb(254,254,226)"/><stop offset="28%" stop-color="rgb(253,238,140)"/><stop offset="49%" stop-color="rgb(252,222,54)"/><stop offset="82%" stop-color="rgb(245,184,32)"/><stop offset="100%" stop-color="rgb(238,145,10)"/></radialGradient></defs><g clip-path="url(#__lottie_element_2335)"><g style="display: block;" transform="matrix(0.8870000243186951,0,0,0.8870000243186951,40.69227600097656,40.338863372802734)" opacity="1"><g opacity="1" transform="matrix(1,0,0,1,0,0)"><g opacity="1" transform="matrix(1.128000020980835,0,0,1.128000020980835,-0.5704345703125,-0.5794219970703125)"><g opacity="1" transform="matrix(1,0,0,1,215.6439971923828,215.64500427246094)"><path fill="url(#__lottie_element_2341)" fill-opacity="1" d=" M194.9969940185547,0 C194.9969940185547,107.69400024414062 107.69300079345703,194.9969940185547 0,194.9969940185547 C-107.69400024414062,194.9969940185547 -194.9969940185547,107.69400024414062 -194.9969940185547,0 C-194.9969940185547,-107.69400024414062 -107.69400024414062,-194.9969940185547 0,-194.9969940185547 C107.69300079345703,-194.9969940185547 194.9969940185547,-107.69400024414062 194.9969940185547,0z"/></g><g opacity="1" transform="matrix(1,0,0,1,215.70199584960938,213.7169952392578)"><path fill="url(#__lottie_element_2342)" fill-opacity="1" d=" M173.80799865722656,2.6630001068115234 C172.3040008544922,100.77200317382812 93.26899719238281,179.11199951171875 -2.7230000495910645,177.63999938964844 C-98.71399688720703,176.16799926757812 -175.31199645996094,95.44499969482422 -173.80799865722656,-2.6640000343322754 C-172.3040008544922,-100.77300262451172 -93.26899719238281,-179.11199951171875 2.7230000495910645,-177.64100646972656 C98.71399688720703,-176.16900634765625 175.31199645996094,-95.44499969482422 173.80799865722656,2.6630001068115234z"/></g><g opacity="1" transform="matrix(1,0,0,1,215.6439971923828,215.64500427246094)"><path stroke-linecap="butt" stroke-linejoin="miter" fill-opacity="0" stroke-miterlimit="10" stroke="rgb(231,105,0)" stroke-opacity="1" stroke-width="8.259" d=" M194.9969940185547,0 C194.9969940185547,107.69400024414062 107.69300079345703,194.9969940185547 0,194.9969940185547 C-107.69400024414062,194.9969940185547 -194.9969940185547,107.69400024414062 -194.9969940185547,0 C-194.9969940185547,-107.69400024414062 -107.69400024414062,-194.9969940185547 0,-194.9969940185547 C107.69300079345703,-194.9969940185547 194.9969940185547,-107.69400024414062 194.9969940185547,0z"/></g></g></g></g><g style="display: block;" transform="matrix(0.8870068788528442,0,0,0.8870068788528442,209.6219482421875,383.7890319824219)" opacity="1"><g opacity="1" transform="matrix(1,0,0,1,48.39699935913086,10.093999862670898)"><path fill="rgb(239,150,12)" fill-opacity="1" d=" M0,3.7070000171661377 C-33.2239990234375,3.7070000171661377 -44.933998107910156,9.843999862670898 -46.3489990234375,6.5289998054504395 C-48.14699935913086,2.313999891281128 -32.01300048828125,-9.843999862670898 0,-9.843999862670898 C32.01300048828125,-9.843999862670898 48.14699935913086,2.313999891281128 46.3489990234375,6.5289998054504395 C44.933998107910156,9.843999862670898 33.2239990234375,3.7070000171661377 0,3.7070000171661377z"/></g></g><g style="display: block;" transform="matrix(0.8870068788528442,0,0,0.8870068788528442,163.6075897216797,315.0699462890625)" opacity="1"><g opacity="1" transform="matrix(1,0,0,1,100.27300262451172,43.242000579833984)"><path fill="rgb(254,221,120)" fill-opacity="1" d=" M0,-30.333999633789062 C-27.89299964904785,-30.333999633789062 -49.237998962402344,-19.413999557495117 -64.42400360107422,-7.131999969482422 C-83.93399810791016,8.647000312805176 -93.2770004272461,26.672000885009766 -93.2770004272461,26.672000885009766 C-85.0250015258789,28.714000701904297 -78.08100128173828,21.941999435424805 -61.78099822998047,15.550000190734863 C-48.849998474121094,10.479999542236328 -30.0310001373291,5.64900016784668 0,5.64900016784668 C31.18199920654297,5.64900016784668 50.2760009765625,10.857000350952148 63.242000579833984,16.134000778198242 C78.50399780273438,22.344999313354492 85.2760009765625,28.652000427246094 93.2770004272461,26.672000885009766 C93.2770004272461,26.672000885009766 84.56400299072266,9.862000465393066 66.39600372314453,-5.500999927520752 C51.106998443603516,-18.43000030517578 29.121999740600586,-30.333999633789062 0,-30.333999633789062z"/></g><g opacity="1" transform="matrix(1,0,0,1,100.27300262451172,36.46500015258789)"><path fill="rgb(234,172,31)" fill-opacity="1" d=" M0,-36.21500015258789 C-28.740999221801758,-36.21500015258789 -50.959999084472656,-24.64900016784668 -66.62200164794922,-10.940999984741211 C-88.33000183105469,8.057999610900879 -97.44300079345703,31.170000076293945 -93.86699676513672,33.30099868774414 C-91.11399841308594,34.94300079345703 -83.21600341796875,23.136999130249023 -64.7030029296875,12.515999794006348 C-50.358001708984375,4.285999774932861 -29.638999938964844,-3.2330000400543213 0,-3.2330000400543213 C30.552000045776367,-3.2330000400543213 51.625999450683594,4.756999969482422 66.01100158691406,13.279000282287598 C83.58999633789062,23.694000244140625 91.17900085449219,34.90399932861328 93.86699676513672,33.30099868774414 C97.36399841308594,31.216999053955078 88.72599792480469,9.067999839782715 68.04100036621094,-9.677000045776367 C52.3129997253418,-23.93000030517578 29.6200008392334,-36.21500015258789 0,-36.21500015258789z"/></g><g opacity="1" transform="matrix(1,0,0,1,100.27300262451172,37.941001892089844)"><path fill="rgb(151,72,0)" fill-opacity="1" d=" M0,4.73799991607666 C33.01900100708008,4.73799991607666 53.79100036621094,11.008999824523926 66.89399719238281,17.059999465942383 C80.73100280761719,23.450000762939453 86.01599884033203,29.594999313354492 88.13800048828125,27.854999542236328 C91.88099670410156,24.78700065612793 63.729000091552734,-31.243000030517578 0,-31.243000030517578 C-63.729000091552734,-31.243000030517578 -91.88099670410156,24.78700065612793 -88.13800048828125,27.854999542236328 C-85.9530029296875,29.64699935913086 -80.41500091552734,23.077999114990234 -65.63899993896484,16.489999771118164 C-52.47700119018555,10.621999740600586 -31.982999801635742,4.73799991607666 0,4.73799991607666z"/></g><g opacity="1" transform="matrix(1,0,0,1,100.27300262451172,36.4379997253418)"><path fill="rgb(99,41,0)" fill-opacity="1" d=" M-86.27100372314453,29.459999084472656 C-82.18599700927734,20.88800048828125 -72.35600280761719,7.005000114440918 -56.50699996948242,-4.14900016784668 C-42.46200180053711,-14.034000396728516 -23.690000534057617,-21.774999618530273 -0.0010000000474974513,-21.774999618530273 C24.493000030517578,-21.774999618530273 43.73099899291992,-13.5 57.922000885009766,-3.134999990463257 C72.94200134277344,7.835000038146973 82.30899810791016,21.145999908447266 86.27100372314453,29.459999084472656 C87.07599639892578,29.740999221801758 87.68000030517578,29.732999801635742 88.13700103759766,29.357999801635742 C90.12000274658203,27.732999801635742 83.1510009765625,11.241999626159668 66.68299865722656,-3.9070000648498535 C52.066001892089844,-17.35300064086914 29.96500015258789,-29.740999221801758 -0.0010000000474974513,-29.740999221801758 C-29.530000686645508,-29.740999221801758 -51.41999816894531,-17.711000442504883 -66.03900146484375,-4.49399995803833 C-82.97000122070312,10.812999725341797 -90.14700317382812,27.711999893188477 -88.13800048828125,29.357999801635742 C-87.68099975585938,29.732999801635742 -87.07599639892578,29.740999221801758 -86.27100372314453,29.459999084472656z"/></g></g><g style="display: block;" transform="matrix(0.85152667760849,0,0,0.85152667760849,16.181915283203125,84.44342803955078)" opacity="1"><g opacity="1" transform="matrix(1,0,0,1,188.8800048828125,201.77099609375)"><path fill="rgb(254,223,159)" fill-opacity="1" d=" M-0.0010000000474974513,-31.389999389648438 C-15.074000358581543,-31.389999389648438 -27.292999267578125,-17.336000442504883 -27.292999267578125,0 C-27.292999267578125,17.336999893188477 -15.074000358581543,31.389999389648438 -0.0010000000474974513,31.389999389648438 C15.072999954223633,31.389999389648438 27.6200008392334,15.854000091552734 27.292999267578125,0 C26.968000411987305,-15.767000198364258 15.072999954223633,-31.389999389648438 -0.0010000000474974513,-31.389999389648438z"/></g><g opacity="1" transform="matrix(1,0,0,1,188.8800048828125,189.71099853515625)"><path fill="rgb(234,172,31)" fill-opacity="1" d=" M-0.0010000000474974513,-31.389999389648438 C-15.074000358581543,-31.389999389648438 -27.292999267578125,-17.336000442504883 -27.292999267578125,0 C-27.292999267578125,17.336999893188477 -15.074000358581543,31.389999389648438 -0.0010000000474974513,31.389999389648438 C15.072999954223633,31.389999389648438 27.590999603271484,17.336000442504883 27.292999267578125,0 C26.9950008392334,-17.336000442504883 15.072999954223633,-31.389999389648438 -0.0010000000474974513,-31.389999389648438z"/></g><g opacity="1" transform="matrix(1,0,0,1,188.87899780273438,195.73199462890625)"><path fill="rgb(151,72,0)" fill-opacity="1" d=" M-0.0010000000474974513,-31.389999389648438 C-14.131999969482422,-31.389999389648438 -25.586999893188477,-17.336000442504883 -25.586999893188477,0 C-25.586999893188477,17.336999893188477 -14.131999969482422,31.389999389648438 -0.0010000000474974513,31.389999389648438 C14.130999565124512,31.389999389648438 25.746000289916992,14.517999649047852 25.586999893188477,0 C25.51799964904785,-6.263999938964844 14.130999565124512,-31.389999389648438 -0.0010000000474974513,-31.389999389648438z"/></g><g opacity="1" transform="matrix(1,0,0,1,188.88099670410156,182.07400512695312)"><path fill="rgb(99,41,0)" fill-opacity="1" d=" M0,-17.72800064086914 C-14.130000114440918,-17.72800064086914 -25.584999084472656,-3.678999900817871 -25.584999084472656,13.66100025177002 C-25.584999084472656,15.038999557495117 -25.51099967956543,16.39900016784668 -25.36199951171875,17.72800064086914 C-23.756999969482422,2.2980000972747803 -13.010000228881836,-9.607999801635742 0,-9.607999801635742 C13.01099967956543,-9.607999801635742 23.756999969482422,2.2980000972747803 25.36199951171875,17.72800064086914 C25.511999130249023,16.39900016784668 25.584999084472656,13.66100025177002 25.584999084472656,13.66100025177002 C25.584999084472656,-3.678999900817871 14.130000114440918,-17.72800064086914 0,-17.72800064086914z"/></g></g><g style="display: block;" transform="matrix(-0.85152667760849,0,0,0.85152667760849,494.41131591796875,84.44342803955078)" opacity="1"><g opacity="1" transform="matrix(1,0,0,1,188.8800048828125,201.77099609375)"><path fill="rgb(254,223,159)" fill-opacity="1" d=" M-0.0010000000474974513,-31.389999389648438 C-15.074000358581543,-31.389999389648438 -27.292999267578125,-17.336000442504883 -27.292999267578125,0 C-27.292999267578125,17.336999893188477 -15.074000358581543,31.389999389648438 -0.0010000000474974513,31.389999389648438 C15.072999954223633,31.389999389648438 27.6200008392334,15.854000091552734 27.292999267578125,0 C26.968000411987305,-15.767000198364258 15.072999954223633,-31.389999389648438 -0.0010000000474974513,-31.389999389648438z"/></g><g opacity="1" transform="matrix(1,0,0,1,188.8800048828125,189.71099853515625)"><path fill="rgb(234,172,31)" fill-opacity="1" d=" M-0.0010000000474974513,-31.389999389648438 C-15.074000358581543,-31.389999389648438 -27.292999267578125,-17.336000442504883 -27.292999267578125,0 C-27.292999267578125,17.336999893188477 -15.074000358581543,31.389999389648438 -0.0010000000474974513,31.389999389648438 C15.072999954223633,31.389999389648438 27.590999603271484,17.336000442504883 27.292999267578125,0 C26.9950008392334,-17.336000442504883 15.072999954223633,-31.389999389648438 -0.0010000000474974513,-31.389999389648438z"/></g><g opacity="1" transform="matrix(1,0,0,1,188.87899780273438,195.73199462890625)"><path fill="rgb(151,72,0)" fill-opacity="1" d=" M-0.0010000000474974513,-31.389999389648438 C-14.131999969482422,-31.389999389648438 -25.586999893188477,-17.336000442504883 -25.586999893188477,0 C-25.586999893188477,17.336999893188477 -14.131999969482422,31.389999389648438 -0.0010000000474974513,31.389999389648438 C14.130999565124512,31.389999389648438 25.746000289916992,14.517999649047852 25.586999893188477,0 C25.51799964904785,-6.263999938964844 14.130999565124512,-31.389999389648438 -0.0010000000474974513,-31.389999389648438z"/></g><g opacity="1" transform="matrix(1,0,0,1,188.88099670410156,182.07400512695312)"><path fill="rgb(99,41,0)" fill-opacity="1" d=" M0,-17.72800064086914 C-14.130000114440918,-17.72800064086914 -25.584999084472656,-3.678999900817871 -25.584999084472656,13.66100025177002 C-25.584999084472656,15.038999557495117 -25.51099967956543,16.39900016784668 -25.36199951171875,17.72800064086914 C-23.756999969482422,2.2980000972747803 -13.010000228881836,-9.607999801635742 0,-9.607999801635742 C13.01099967956543,-9.607999801635742 23.756999969482422,2.2980000972747803 25.36199951171875,17.72800064086914 C25.511999130249023,16.39900016784668 25.584999084472656,13.66100025177002 25.584999084472656,13.66100025177002 C25.584999084472656,-3.678999900817871 14.130000114440918,-17.72800064086914 0,-17.72800064086914z"/></g></g><g style="display: block;" transform="matrix(0.8870068788528442,0,0,0.8870068788528442,305.61651611328125,143.84036254882812)" opacity="1"><g opacity="1" transform="matrix(1,0,0,1,52.66400146484375,29.259000778198242)"><path fill="rgb(255,228,173)" fill-opacity="1" d=" M-51.827999114990234,-11.289999961853027 C-52.41400146484375,-17.097999572753906 -44.125,-27.52199935913086 -20.329999923706055,-24.930999755859375 C30.93600082397461,-19.347999572753906 52.41400146484375,17.759000778198242 46.15399932861328,22.874000549316406 C40.46500015258789,27.52199935913086 31.952999114990234,4.986000061035156 -14.295999526977539,-4.236000061035156 C-33.87699890136719,-8.142000198364258 -51.0620002746582,-3.694999933242798 -51.827999114990234,-11.289999961853027z"/></g><g opacity="1" transform="matrix(1,0,0,1,53.35900115966797,25.78700065612793)"><path fill="rgb(151,72,0)" fill-opacity="1" d=" M-49.5369987487793,-12.418999671936035 C-50.09700012207031,-18.097999572753906 -40.930999755859375,-25.53700065612793 -19.80299949645996,-23.65399932861328 C22.518999099731445,-19.881999969482422 50.09700012207031,15.98900032043457 44.112998962402344,20.990999221801758 C38.67599868774414,25.53700065612793 30.540000915527344,3.499000072479248 -13.663999557495117,-5.520999908447266 C-32.380001068115234,-9.33899974822998 -48.80500030517578,-4.992000102996826 -49.5369987487793,-12.418999671936035z"/></g><g opacity="1" transform="matrix(1,0,0,1,53.35900115966797,23.698999404907227)"><path fill="rgb(99,41,0)" fill-opacity="1" d=" M43.53900146484375,23.448999404907227 C37.66999816894531,11.588000297546387 13.519000053405762,-11.520999908447266 -19.80299949645996,-14.491000175476074 C-35.590999603271484,-15.89900016784668 -44.720001220703125,-11.814000129699707 -48.06700134277344,-7.616000175476074 C-48.9119987487793,-8.279999732971191 -49.42100143432617,-9.157999992370605 -49.5369987487793,-10.331000328063965 C-50.09700012207031,-16.010000228881836 -40.930999755859375,-23.448999404907227 -19.80299949645996,-21.566999435424805 C22.51799964904785,-17.79400062561035 50.09700012207031,18.07699966430664 44.112998962402344,23.07900047302246 C43.92599868774414,23.236000061035156 43.73400115966797,23.354000091552734 43.53900146484375,23.448999404907227z"/></g></g><g style="display: block;" transform="matrix(0.8870068788528442,0,0,0.8870068788528442,106.05769348144531,143.84036254882812)" opacity="1"><g opacity="1" transform="matrix(1,0,0,1,52.66400146484375,29.259000778198242)"><path fill="rgb(255,228,173)" fill-opacity="1" d=" M51.827999114990234,-11.289999961853027 C52.41400146484375,-17.097999572753906 44.125,-27.52199935913086 20.329999923706055,-24.930999755859375 C-30.93600082397461,-19.347999572753906 -52.41400146484375,17.759000778198242 -46.15399932861328,22.874000549316406 C-40.46500015258789,27.52199935913086 -31.952999114990234,4.986000061035156 14.295999526977539,-4.236000061035156 C33.87699890136719,-8.142000198364258 51.0620002746582,-3.694999933242798 51.827999114990234,-11.289999961853027z"/></g><g opacity="1" transform="matrix(1,0,0,1,51.96900177001953,25.78700065612793)"><path fill="rgb(151,72,0)" fill-opacity="1" d=" M49.5369987487793,-12.418999671936035 C50.09700012207031,-18.097999572753906 40.930999755859375,-25.53700065612793 19.80299949645996,-23.65399932861328 C-22.518999099731445,-19.881999969482422 -50.09700012207031,15.98900032043457 -44.112998962402344,20.990999221801758 C-38.67599868774414,25.53700065612793 -30.540000915527344,3.499000072479248 13.663999557495117,-5.520999908447266 C32.380001068115234,-9.33899974822998 48.80500030517578,-4.992000102996826 49.5369987487793,-12.418999671936035z"/></g><g opacity="1" transform="matrix(1,0,0,1,51.96900177001953,23.698999404907227)"><path fill="rgb(99,41,0)" fill-opacity="1" d=" M-43.53900146484375,23.448999404907227 C-37.66999816894531,11.588000297546387 -13.519000053405762,-11.520999908447266 19.80299949645996,-14.491000175476074 C35.590999603271484,-15.89900016784668 44.720001220703125,-11.814000129699707 48.06700134277344,-7.616000175476074 C48.9119987487793,-8.279999732971191 49.42100143432617,-9.157999992370605 49.5369987487793,-10.331000328063965 C50.09700012207031,-16.010000228881836 40.930999755859375,-23.448999404907227 19.80299949645996,-21.566999435424805 C-22.51799964904785,-17.79400062561035 -50.09700012207031,18.07699966430664 -44.112998962402344,23.07900047302246 C-43.92599868774414,23.236000061035156 -43.73400115966797,23.354000091552734 -43.53900146484375,23.448999404907227z"/></g></g></g></svg>