<svg xmlns="http://www.w3.org/2000/svg" xmlns:xlink="http://www.w3.org/1999/xlink" viewBox="0 0 512 512" width="512" height="512" style="width: 100%; height: 100%; transform: translate3d(0,0,0);" preserveAspectRatio="xMidYMid meet"><defs><clipPath id="__lottie_element_29670"><rect width="512" height="512" x="0" y="0"/></clipPath><radialGradient id="__lottie_element_29674" spreadMethod="pad" gradientUnits="userSpaceOnUse" cx="-0.25999999046325684" cy="-51.52399826049805" r="70.16620849974042" fx="-0.25999999046325684" fy="-51.52399826049805"><stop offset="36%" stop-color="rgb(255,255,255)"/><stop offset="60%" stop-color="rgb(217,217,217)"/><stop offset="83%" stop-color="rgb(179,179,179)"/></radialGradient><linearGradient id="__lottie_element_29675" spreadMethod="pad" gradientUnits="userSpaceOnUse" x1="-0.1720000058412552" y1="-28.882999420166016" x2="-0.6830000281333923" y2="3.7980000972747803"><stop offset="52%" stop-color="rgb(153,153,153)"/><stop offset="84%" stop-color="rgb(77,77,77)"/><stop offset="100%" stop-color="rgb(0,0,0)"/></linearGradient><radialGradient id="__lottie_element_29676" spreadMethod="pad" gradientUnits="userSpaceOnUse" cx="2.5139999389648438" cy="11.855999946594238" r="25.32386902357183" fx="2.5139999389648438" fy="11.855999946594238"><stop offset="0%" stop-color="rgb(255,255,255)" stop-opacity="0.5"/><stop offset="50%" stop-color="rgb(255,255,255)" stop-opacity="0.25"/><stop offset="100%" stop-color="rgb(255,255,255)" stop-opacity="0"/></radialGradient><radialGradient id="__lottie_element_29677" spreadMethod="pad" gradientUnits="userSpaceOnUse" cx="-2.99399995803833" cy="14.161999702453613" r="27.7040730891403" fx="-2.99399995803833" fy="14.161999702453613"><stop offset="0%" stop-color="rgb(255,255,255)" stop-opacity="0.5"/><stop offset="50%" stop-color="rgb(255,255,255)" stop-opacity="0.25"/><stop offset="100%" stop-color="rgb(255,255,255)" stop-opacity="0"/></radialGradient><radialGradient id="__lottie_element_29681" spreadMethod="pad" gradientUnits="userSpaceOnUse" cx="0.8880000114440918" cy="-1.6059999465942383" r="130.4090328325772" fx="0.8880000114440918" fy="-1.6059999465942383"><stop offset="91%" stop-color="rgb(255,255,255)"/><stop offset="97%" stop-color="rgb(255,255,255)"/><stop offset="100%" stop-color="rgb(255,255,255)"/></radialGradient><mask id="__lottie_element_29683"><path fill="url(#__lottie_element_29682)" d=" M-68.65399932861328,-130.2480010986328 C-68.65399932861328,-130.2480010986328 -117.0479965209961,-46.33599853515625 -73.36599731445312,32.1870002746582 C-57.61199951171875,60.50600051879883 -19.461999893188477,78.6500015258789 3.059999942779541,78.52200317382812 C36.25299835205078,78.33399963378906 56.38800048828125,68.00700378417969 77.49600219726562,40.69300079345703 C109.25700378417969,-0.4059999883174896 73.00700378417969,-130.2480010986328 73.00700378417969,-130.2480010986328 C73.00700378417969,-130.2480010986328 93.43199920654297,-131.3179931640625 93.43199920654297,-131.3179931640625 C93.43199920654297,-131.3179931640625 129.1269989013672,-34.37900161743164 118.45999908447266,21.451000213623047 C107.79299926757812,77.28099822998047 29.61400032043457,122.52799987792969 29.61400032043457,122.52799987792969 C29.61400032043457,122.52799987792969 24.836000442504883,133.48500061035156 -3.4189999103546143,130.9320068359375 C-31.673999786376953,128.37899780273438 -26.738000869750977,121.25800323486328 -26.738000869750977,121.25800323486328 C-26.738000869750977,121.25800323486328 -124.0790023803711,77.99500274658203 -120.34500122070312,-11.876999855041504 C-116.61100006103516,-101.7490005493164 -86.48200225830078,-131.04100036621094 -86.48200225830078,-131.04100036621094 C-86.48200225830078,-131.04100036621094 -68.65399932861328,-130.2480010986328 -68.65399932861328,-130.2480010986328z"/></mask><radialGradient id="__lottie_element_29682" spreadMethod="pad" gradientUnits="userSpaceOnUse" cx="0.8880000114440918" cy="-1.6059999465942383" r="130.4090328325772" fx="0.8880000114440918" fy="-1.6059999465942383"><stop stop-color="rgb(255,255,255)" offset="74%" stop-opacity="0"/><stop stop-color="rgb(255,255,255)" offset="87%" stop-opacity="0.15000000596046448"/><stop stop-color="rgb(255,255,255)" offset="100%" stop-opacity="0.30000001192092896"/></radialGradient><linearGradient id="__lottie_element_29684" spreadMethod="pad" gradientUnits="userSpaceOnUse" x1="-2.375999927520752" y1="123.19400024414062" x2="0.1770000010728836" y2="-112.21399688720703"><stop offset="0%" stop-color="rgb(255,255,255)" stop-opacity="0"/><stop offset="50%" stop-color="rgb(255,255,255)" stop-opacity="0.25"/><stop offset="100%" stop-color="rgb(255,255,255)" stop-opacity="0.5"/></linearGradient><linearGradient id="__lottie_element_29685" spreadMethod="pad" gradientUnits="userSpaceOnUse" x1="-1.0440000295639038" y1="106.85299682617188" x2="-0.02199999988079071" y2="-118.4000015258789"><stop offset="0%" stop-color="rgb(255,255,255)" stop-opacity="0"/><stop offset="50%" stop-color="rgb(255,255,255)" stop-opacity="0.25"/><stop offset="100%" stop-color="rgb(255,255,255)" stop-opacity="0.5"/></linearGradient><radialGradient id="__lottie_element_29686" spreadMethod="pad" gradientUnits="userSpaceOnUse" cx="1.277999997138977" cy="-63.89099884033203" r="85.27753008987573" fx="1.277999997138977" fy="-63.89099884033203"><stop offset="0%" stop-color="rgb(255,255,255)" stop-opacity="0.699999988079071"/><stop offset="50%" stop-color="rgb(255,255,255)" stop-opacity="0.3499999940395355"/><stop offset="100%" stop-color="rgb(255,255,255)" stop-opacity="0"/></radialGradient><radialGradient id="__lottie_element_29687" spreadMethod="pad" gradientUnits="userSpaceOnUse" cx="-0.01600000075995922" cy="-18.44300079345703" r="31.39855163916494" fx="-0.01600000075995922" fy="-18.44300079345703"><stop offset="62%" stop-color="rgb(54,10,8)" stop-opacity="1"/><stop offset="86%" stop-color="rgb(54,10,8)" stop-opacity="0.5"/><stop offset="100%" stop-color="rgb(54,10,8)" stop-opacity="0"/></radialGradient><radialGradient id="__lottie_element_29691" spreadMethod="pad" gradientUnits="userSpaceOnUse" cx="-3.509999990463257" cy="-115.86199951171875" r="187.33687670924314" fx="-3.509999990463257" fy="-115.86199951171875"><stop offset="44%" stop-color="rgb(223,13,4)"/><stop offset="67%" stop-color="rgb(138,11,6)"/><stop offset="85%" stop-color="rgb(54,10,8)"/></radialGradient><radialGradient id="__lottie_element_29698" spreadMethod="pad" gradientUnits="userSpaceOnUse" cx="-0.5099999904632568" cy="-1.8700000047683716" r="81.924001455307" fx="-0.5099999904632568" fy="-1.8700000047683716"><stop offset="0%" stop-color="rgb(161,7,1)"/><stop offset="75%" stop-color="rgb(126,4,1)"/><stop offset="100%" stop-color="rgb(92,0,0)"/></radialGradient><linearGradient id="__lottie_element_29705" spreadMethod="pad" gradientUnits="userSpaceOnUse" x1="-1.4800000190734863" y1="-44.77799987792969" x2="2.1059999465942383" y2="72.36299896240234"><stop offset="0%" stop-color="rgb(255,255,255)"/><stop offset="41%" stop-color="rgb(191,191,191)"/><stop offset="83%" stop-color="rgb(127,127,127)"/></linearGradient><radialGradient id="__lottie_element_29706" spreadMethod="pad" gradientUnits="userSpaceOnUse" cx="1.1749999523162842" cy="0.6940000057220459" r="65.44707802559584" fx="1.1749999523162842" fy="0.6940000057220459"><stop offset="0%" stop-color="rgb(255,255,255)" stop-opacity="0.5"/><stop offset="50%" stop-color="rgb(255,255,255)" stop-opacity="0.25"/><stop offset="100%" stop-color="rgb(255,255,255)" stop-opacity="0"/></radialGradient></defs><g clip-path="url(#__lottie_element_29670)"><g style="display: block;" transform="matrix(1.059999942779541,0,0,1.059999942779541,-16.35931396484375,-10.36004638671875)" opacity="1"><g opacity="0.8" transform="matrix(1,0,0,1,259.4800109863281,421.77801513671875)"><path fill="url(#__lottie_element_29705)" fill-opacity="1" d=" M110.7030029296875,0 C110.7030029296875,17.972999572753906 61.13999938964844,32.54399871826172 0,32.54399871826172 C-61.13999938964844,32.54399871826172 -110.7030029296875,17.972999572753906 -110.7030029296875,0 C-110.7030029296875,-17.972999572753906 -61.13999938964844,-32.54399871826172 0,-32.54399871826172 C61.13999938964844,-32.54399871826172 110.7030029296875,-17.972999572753906 110.7030029296875,0z"/></g><g opacity="1" transform="matrix(1,0,0,1,260.4679870605469,437.20599365234375)"><path fill="rgb(91,91,91)" fill-opacity="1" d=" M107.56400299072266,-11.850000381469727 C107.56400299072266,-10.223999977111816 102.1709976196289,-4.422999858856201 78.20899963378906,0.7269999980926514 C57.36199951171875,5.206999778747559 29.586000442504883,7.673999786376953 0,7.673999786376953 C-29.586000442504883,7.673999786376953 -57.36199951171875,5.206999778747559 -78.20899963378906,0.7269999980926514 C-102.1709976196289,-4.422999858856201 -107.56400299072266,-10.223999977111816 -107.56400299072266,-11.850000381469727 C-107.56400299072266,-11.850000381469727 -116,-22.761999130249023 -116,-20.277000427246094 C-116,-20.277000427246094 -116,-15.57800006866455 -116,-15.57800006866455 C-116,13.11299991607666 -40.12200164794922,20.645000457763672 0,20.645000457763672 C40.12200164794922,20.645000457763672 113.89399719238281,13.11299991607666 116,-14.503999710083008 C116,-14.503999710083008 116,-19.81100082397461 116,-19.81100082397461 C116,-22.29599952697754 107.56400299072266,-11.850000381469727 107.56400299072266,-11.850000381469727z"/></g><g opacity="1" transform="matrix(1,0,0,1,260.43798828125,403.677001953125)"><path stroke-linecap="round" stroke-linejoin="round" fill-opacity="0" stroke="rgb(166,166,163)" stroke-opacity="1" stroke-width="8" d=" M-112.08499908447266,13.3100004196167 C-112.08499908447266,-1.3919999599456787 -61.90299987792969,-13.3100004196167 0,-13.3100004196167 C61.90299987792969,-13.3100004196167 112.08499908447266,-1.3919999599456787 112.08499908447266,13.3100004196167"/></g><g opacity="1" transform="matrix(1,0,0,1,260.43798828125,430.2959899902344)"><path stroke-linecap="round" stroke-linejoin="round" fill-opacity="0" stroke="rgb(239,239,239)" stroke-opacity="1" stroke-width="8" d=" M112.08499908447266,-13.3100004196167 C112.08499908447266,1.3919999599456787 61.90299987792969,13.3100004196167 0,13.3100004196167 C-61.90299987792969,13.3100004196167 -112.08499908447266,1.3919999599456787 -112.08499908447266,-13.3100004196167"/></g><g opacity="1" transform="matrix(1,0,0,1,261.77099609375,451.4309997558594)"><path fill="url(#__lottie_element_29706)" fill-opacity="1" d=" M-55.37799835205078,-2.890000104904175 C-44.07699966430664,-2.2230000495910645 -36.935001373291016,-1.5839999914169312 -27.708999633789062,-1.5579999685287476 C-27.708999633789062,-1.5579999685287476 0,-1.3619999885559082 0,-1.3619999885559082 C9.208000183105469,-1.3420000076293945 17.961000442504883,-1.3029999732971191 27.488000869750977,-1.4609999656677246 C36.71099853515625,-1.4509999752044678 45.23099899291992,-2.0329999923706055 55.40299987792969,-2.882999897003174 C55.40299987792969,-2.882999897003174 55.435001373291016,-2.882999897003174 55.435001373291016,-2.882999897003174 C56.255001068115234,-2.871999979019165 56.90399932861328,-2.492000102996826 56.88399887084961,-2.0360000133514404 C56.867000579833984,-1.652999997138977 56.36600112915039,-1.409000039100647 55.742000579833984,-1.253000020980835 C48.393001556396484,0.5870000123977661 37.33700180053711,1.7869999408721924 28.018999099731445,2.2290000915527344 C25.69099998474121,2.38100004196167 23.357999801635742,2.4600000381469727 21.02400016784668,2.5350000858306885 C18.69099998474121,2.6089999675750732 16.356000900268555,2.7109999656677246 14.020000457763672,2.763000011444092 C9.347999572753906,2.815000057220459 4.672999858856201,2.924999952316284 0.0010000000474974513,2.880000114440918 C-9.343999862670898,2.8289999961853027 -18.68400001525879,2.621000051498413 -27.982999801635742,2.1080000400543213 C-37.28499984741211,1.6130000352859497 -50.97600173950195,-0.0020000000949949026 -55.720001220703125,-1.246000051498413 C-56.5260009765625,-1.3480000495910645 -57.029998779296875,-1.7949999570846558 -56.84600067138672,-2.243000030517578 C-56.68899917602539,-2.624000072479248 -56.084999084472656,-2.884000062942505 -55.4109992980957,-2.890000104904175 C-55.4109992980957,-2.890000104904175 -55.37799835205078,-2.890000104904175 -55.37799835205078,-2.890000104904175z"/></g></g><g style="display: block;" transform="matrix(1.059999942779541,0,0,1.059999942779541,259.25762939453125,185.29051208496094)" opacity="1"><g opacity="0.6" transform="matrix(1,0,0,1,0,0)"><path fill="rgb(191,191,191)" fill-opacity="1" d=" M-86.38700103759766,-129.12399291992188 C-86.38700103759766,-129.12399291992188 -135.9029998779297,-38.50699996948242 -113.85800170898438,32.733001708984375 C-94.72799682617188,94.552001953125 -33.707000732421875,130.96499633789062 3.569999933242798,130.4669952392578 C40.84700012207031,129.968994140625 96.2750015258789,85.97699737548828 114.73100280761719,37.15800094604492 C133.18699645996094,-11.66100025177002 92.27300262451172,-128.3300018310547 92.27300262451172,-128.3300018310547 C92.27300262451172,-128.3300018310547 35.2859992980957,-130.5540008544922 0.49300000071525574,-130.468994140625 C-34.29999923706055,-130.38400268554688 -86.38700103759766,-129.12399291992188 -86.38700103759766,-129.12399291992188z"/></g><g opacity="1" transform="matrix(1,0,0,1,0,0)"><path stroke-linecap="round" stroke-linejoin="round" fill-opacity="0" stroke="rgb(214,214,214)" stroke-opacity="1" stroke-width="8" d=" M-89.375,-128.25 C-86.875,-130.25 -31,-129.75 -2.25,-130 C38.749000549316406,-130.35699462890625 87.5,-130 92.25,-128.25"/></g></g><g style="display: block;" transform="matrix(1.059999942779541,0,0,1.059999942779541,-16.35931396484375,-10.36004638671875)" opacity="1"><g opacity="1" transform="matrix(1,0,0,1,260.510009765625,149.29800415039062)"><path fill="url(#__lottie_element_29698)" fill-opacity="1" d=" M115.5739974975586,-0.8140000104904175 C115.5739974975586,3.2780001163482666 116.23999786376953,31.20199966430664 0.5,29.09600067138672 C-108.45800018310547,27.113000869750977 -115.5739974975586,3.2780001163482666 -115.5739974975586,-0.8140000104904175 C-115.5739974975586,-4.906000137329102 -63.83000183105469,-6.5960001945495605 0,-6.5960001945495605 C63.83000183105469,-6.5960001945495605 115.5739974975586,-4.906000137329102 115.5739974975586,-0.8140000104904175z"/></g><g opacity="1" transform="matrix(1,0,0,1,0,0)"><path stroke-linecap="round" stroke-linejoin="miter" fill-opacity="0" stroke-miterlimit="4" stroke="rgb(192,7,0)" stroke-opacity="1" stroke-width="8" d=" M146.75,147.75 C150.75,145.25 165.48899841308594,141.5 260.75,141.75 C356,142 376.25,146.25 374.75,148"/></g></g><g style="display: block;" transform="matrix(1.059999942779541,0,0,1.059999942779541,-16.35931396484375,-10.36004638671875)" opacity="1"><g opacity="1" transform="matrix(1,0,0,1,260.510009765625,226.86199951171875)"><path fill="url(#__lottie_element_29691)" fill-opacity="1" d=" M115.78900146484375,-78.61299896240234 C115.79499816894531,-78.5739974975586 115.81300354003906,-78.53399658203125 115.80799865722656,-78.49500274658203 C115.23999786376953,-74.42500305175781 64.43800354003906,-71.13899993896484 0.6079999804496765,-71.13899993896484 C-63.22200012207031,-71.13899993896484 -115.65299987792969,-73.46600341796875 -115.65299987792969,-78.49500274658203 C-115.65299987792969,-78.71099853515625 -115.5510025024414,-78.9260025024414 -115.36199951171875,-79.13899993896484 C-117.29299926757812,-78.63400268554688 -131.7239990234375,-18.687999725341797 -100.7490005493164,18.958999633789062 C-69.7750015258789,56.60599899291992 -28.156999588012695,78.0530014038086 -28.156999588012695,78.0530014038086 C-28.156999588012695,78.0530014038086 -11.13700008392334,83.75499725341797 29.374000549316406,78.98899841308594 C29.374000549316406,78.98899841308594 78.78800201416016,56.36000061035156 99.83399963378906,22.243999481201172 C130.14100646972656,-26.884000778198242 117.4990005493164,-78.53800201416016 115.78900146484375,-78.61299896240234z"/></g><g opacity="1" transform="matrix(1,0,0,1,0,0)"><path stroke-linecap="round" stroke-linejoin="miter" fill-opacity="0" stroke-miterlimit="4" stroke="rgb(248,27,19)" stroke-opacity="1" stroke-width="8" d=" M144.75,148 C148,149.5 174.5,155.75 261.25,155.25 C343.5,154.7760009765625 377.25,151 377.75,147.25"/></g></g><g style="display: block;" transform="matrix(1.059999942779541,0,0,1.059999942779541,-16.35931396484375,-10.36004638671875)" opacity="1"><g opacity="1" transform="matrix(1,0,0,1,260.11199951171875,186.49400329589844)"><path fill="url(#__lottie_element_29681)" mask="url(#__lottie_element_29683)" fill-opacity="1" d="M0 0 M-68.65399932861328,-130.2480010986328 C-68.65399932861328,-130.2480010986328 -117.0479965209961,-46.33599853515625 -73.36599731445312,32.1870002746582 C-57.61199951171875,60.50600051879883 -19.461999893188477,78.6500015258789 3.059999942779541,78.52200317382812 C36.25299835205078,78.33399963378906 56.38800048828125,68.00700378417969 77.49600219726562,40.69300079345703 C109.25700378417969,-0.4059999883174896 73.00700378417969,-130.2480010986328 73.00700378417969,-130.2480010986328 C73.00700378417969,-130.2480010986328 93.43199920654297,-131.3179931640625 93.43199920654297,-131.3179931640625 C93.43199920654297,-131.3179931640625 129.1269989013672,-34.37900161743164 118.45999908447266,21.451000213623047 C107.79299926757812,77.28099822998047 29.61400032043457,122.52799987792969 29.61400032043457,122.52799987792969 C29.61400032043457,122.52799987792969 24.836000442504883,133.48500061035156 -3.4189999103546143,130.9320068359375 C-31.673999786376953,128.37899780273438 -26.738000869750977,121.25800323486328 -26.738000869750977,121.25800323486328 C-26.738000869750977,121.25800323486328 -124.0790023803711,77.99500274658203 -120.34500122070312,-11.876999855041504 C-116.61100006103516,-101.7490005493164 -86.48200225830078,-131.04100036621094 -86.48200225830078,-131.04100036621094 C-86.48200225830078,-131.04100036621094 -68.65399932861328,-130.2480010986328 -68.65399932861328,-130.2480010986328z"/></g><g opacity="1" transform="matrix(1,0,0,1,205.37600708007812,151.80599975585938)"><path fill="url(#__lottie_element_29684)" fill-opacity="1" d=" M40.76300048828125,-95.55999755859375 C40.76300048828125,-95.55999755859375 32.13999938964844,-49.83100128173828 29.018999099731445,12.939000129699707 C26.72100067138672,59.152000427246094 33.95500183105469,88.34300231933594 20.08300018310547,94.64099884033203 C10.449999809265137,99.01399993896484 -45.71099853515625,90.2979965209961 -40.4119987487793,12.59000015258789 C-35.112998962402344,-65.11799621582031 -16.81100082397461,-95.55999755859375 -16.81100082397461,-95.55999755859375 C-16.81100082397461,-95.55999755859375 40.76300048828125,-95.55999755859375 40.76300048828125,-95.55999755859375z"/></g><g opacity="1" transform="matrix(1,0,0,1,320.04400634765625,147.14700317382812)"><path fill="url(#__lottie_element_29685)" fill-opacity="1" d=" M-28.71299934387207,-90.9010009765625 C-28.71299934387207,-90.9010009765625 -19.775999069213867,-36.01900100708008 -18.7549991607666,20.66200065612793 C-17.733999252319336,77.34300231933594 -22.768999099731445,89.3290023803711 -14.713000297546387,90.69300079345703 C5.9679999351501465,94.19400024414062 28.704999923706055,52.83599853515625 28.71299934387207,18.108999252319336 C28.726999282836914,-43.167999267578125 16.20199966430664,-90.9010009765625 16.20199966430664,-90.9010009765625 C16.20199966430664,-90.9010009765625 -28.71299934387207,-90.9010009765625 -28.71299934387207,-90.9010009765625z"/></g><g opacity="1" transform="matrix(1,0,0,1,262.1579895019531,124.4489974975586)"><path fill="url(#__lottie_element_29686)" fill-opacity="1" d=" M-88.09300231933594,-68.43900299072266 C-88.09300231933594,-68.43900299072266 -0.7490000128746033,-67.76599884033203 -0.7490000128746033,-67.76599884033203 C-0.7490000128746033,-67.76599884033203 90.80000305175781,-67.06199645996094 90.80000305175781,-67.06199645996094 C90.80000305175781,-67.06199645996094 118.125,69.86599731445312 5.353000164031982,68.4280014038086 C-128.093994140625,66.72599792480469 -88.09300231933594,-68.43900299072266 -88.09300231933594,-68.43900299072266z"/></g><g opacity="1" transform="matrix(1,0,0,1,260.0159912109375,291.6419982910156)"><path fill="url(#__lottie_element_29687)" fill-opacity="1" d=" M-38.382999420166016,-17.875999450683594 C-38.382999420166016,-17.875999450683594 -31.441999435424805,17.295000076293945 0.7710000276565552,17.868999481201172 C33.659000396728516,18.45599937438965 38.382999420166016,-17.875999450683594 38.382999420166016,-17.875999450683594 C38.382999420166016,-17.875999450683594 -38.382999420166016,-17.875999450683594 -38.382999420166016,-17.875999450683594z"/></g></g><g style="display: block;" transform="matrix(1.059999942779541,0,0,1.059999942779541,-16.35931396484375,-10.36004638671875)" opacity="1"><g opacity="0.8" transform="matrix(1,0,0,1,262.260009765625,369.07501220703125)"><path fill="url(#__lottie_element_29674)" fill-opacity="1" d=" M23.13599967956543,-55.73500061035156 C19.051000595092773,-47.05400085449219 16.15999984741211,3.436000108718872 18.9689998626709,15.690999984741211 C21.777999877929688,27.945999145507812 24.986000061035156,38.60599899291992 24.986000061035156,38.60599899291992 C24.986000061035156,38.60599899291992 31.709999084472656,55.5629997253418 0.05000000074505806,55.733001708984375 C-31.610000610351562,55.90299987792969 -25.011999130249023,39.49599838256836 -25.011999130249023,39.49599838256836 C-25.011999130249023,39.49599838256836 -24.117000579833984,27.945999145507812 -21.308000564575195,15.690999984741211 C-18.499000549316406,3.436000108718872 -21.226999282836914,-47.05400085449219 -25.312000274658203,-55.73500061035156 C-25.312000274658203,-55.73500061035156 -1.5700000524520874,-55.73500061035156 -1.5700000524520874,-55.73500061035156 C-1.5700000524520874,-55.73500061035156 23.13599967956543,-55.73500061035156 23.13599967956543,-55.73500061035156z"/></g><g opacity="0.28" transform="matrix(1,0,0,1,260.7799987792969,362.9849853515625)"><path fill="rgb(119,119,119)" fill-opacity="1" d=" M-19.322999954223633,-19.643999099731445 C-19.322999954223633,-19.643999099731445 -12.54699993133545,-2.7790000438690186 -0.34299999475479126,-2.377000093460083 C14.267000198364258,-1.8960000276565552 19.485000610351562,-19.643999099731445 19.485000610351562,-19.643999099731445 C19.485000610351562,-19.643999099731445 20.28700065612793,14.753000259399414 20.28700065612793,14.753000259399414 C20.28700065612793,14.753000259399414 0.9039999842643738,25.759000778198242 -20.28700065612793,14.753000259399414 C-20.28700065612793,14.753000259399414 -19.322999954223633,-19.643999099731445 -19.322999954223633,-19.643999099731445z"/></g><g opacity="0.91" transform="matrix(1,0,0,1,261.1719970703125,421.0950012207031)"><path fill="rgb(255,255,255)" fill-opacity="1" d=" M39.301998138427734,0 C39.301998138427734,5.081999778747559 21.70599937438965,9.201000213623047 0,9.201000213623047 C-21.70599937438965,9.201000213623047 -39.301998138427734,5.081999778747559 -39.301998138427734,0 C-39.301998138427734,-5.081999778747559 -21.70599937438965,-9.201000213623047 0,-9.201000213623047 C21.70599937438965,-9.201000213623047 39.301998138427734,-5.081999778747559 39.301998138427734,0z"/></g><g opacity="0.34" transform="matrix(1,0,0,1,261.1719970703125,407.88299560546875)"><path fill="url(#__lottie_element_29675)" fill-opacity="1" d=" M18.378999710083008,-15.366000175476074 C18.378999710083008,-15.366000175476074 24.69700050354004,4.599999904632568 24.69700050354004,4.599999904632568 C24.69700050354004,4.599999904632568 21.349000930786133,11.621000289916992 21.349000930786133,11.621000289916992 C21.349000930786133,11.621000289916992 0.2879999876022339,20.047000885009766 -20.94099998474121,11.621000289916992 C-20.94099998474121,11.621000289916992 -24.69700050354004,4.684999942779541 -24.69700050354004,4.684999942779541 C-24.69700050354004,4.684999942779541 -19.90999984741211,-14.869999885559082 -19.90999984741211,-14.869999885559082 C-19.90999984741211,-14.869999885559082 -13.767999649047852,-10.286999702453613 0,-10.286999702453613 C11.043999671936035,-10.286999702453613 18.378999710083008,-15.366000175476074 18.378999710083008,-15.366000175476074z"/></g><g opacity="1" transform="matrix(1,0,0,1,261.0690002441406,318.97698974609375)"><path stroke-linecap="round" stroke-linejoin="round" fill-opacity="0" stroke="rgb(201,0,0)" stroke-opacity="1" stroke-width="6" d=" M-22.417999267578125,-0.6150000095367432 C-22.417999267578125,-0.6150000095367432 -1.6629999876022339,2.953000068664551 22.417999267578125,-0.8920000195503235"/></g><g opacity="1" transform="matrix(1,0,0,1,261.3739929199219,315.12799072265625)"><path stroke-linecap="round" stroke-linejoin="round" fill-opacity="0" stroke="rgb(102,2,2)" stroke-opacity="1" stroke-width="6" d=" M-22.722999572753906,-0.7670000195503235 C-22.722999572753906,-0.7670000195503235 -1.5210000276565552,2.683000087738037 22.722999572753906,-0.7670000195503235"/></g><g opacity="1" transform="matrix(1,0,0,1,261.1719970703125,222.88499450683594)"><path stroke-linecap="round" stroke-linejoin="round" fill-opacity="0" stroke="rgb(166,166,163)" stroke-opacity="1" stroke-width="8" d=" M-91.11799621582031,-166.63999938964844 C-91.11799621582031,-166.63999938964844 -144.2239990234375,-55.5880012512207 -107.45800018310547,12.838000297546387 C-81.08399963378906,61.92399978637695 -28.30900001525879,81.7750015258789 -24.224000930786133,90.45600128173828 C-20.138999938964844,99.13700103759766 -17.410999298095703,149.62600708007812 -20.219999313354492,161.88099670410156 C-20.219999313354492,161.88099670410156 -16.631999969482422,167.11500549316406 -0.08100000023841858,166.60400390625 C16.469999313354492,166.09300231933594 20.058000564575195,161.88099670410156 20.058000564575195,161.88099670410156 C17.249000549316406,149.62600708007812 20.138999938964844,99.13700103759766 24.224000930786133,90.45600128173828 C28.30900001525879,81.7750015258789 81.08399963378906,61.92399978637695 107.45800018310547,12.838000297546387 C144.2239990234375,-55.5880012512207 91.11799621582031,-166.63999938964844 91.11799621582031,-166.63999938964844"/></g><g opacity="1" transform="matrix(1,0,0,1,259.8529968261719,344.25)"><path stroke-linecap="round" stroke-linejoin="round" fill-opacity="0" stroke="rgb(125,125,122)" stroke-opacity="1" stroke-width="8" d=" M-42.439998626708984,-45.27399826049805 C-32.007999420166016,-38.52000045776367 -24.36199951171875,-34.005001068115234 -22.905000686645508,-30.90999984741211 C-18.81999969482422,-22.229000091552734 -16.091999053955078,28.26099967956543 -18.900999069213867,40.51599884033203 C-18.900999069213867,40.51599884033203 -15.312999725341797,45.75 1.2380000352859497,45.23899841308594 C17.788999557495117,44.72800064086914 21.375999450683594,40.51599884033203 21.375999450683594,40.51599884033203 C18.566999435424805,28.26099967956543 21.45800018310547,-22.229000091552734 25.542999267578125,-30.90999984741211 C26.874000549316406,-33.737998962402344 33.37099838256836,-37.750999450683594 42.439998626708984,-43.57400131225586"/></g><g opacity="1" transform="matrix(1,0,0,1,338.0350036621094,226.44500732421875)"><path stroke-linecap="round" stroke-linejoin="round" fill-opacity="0" stroke="rgb(102,2,2)" stroke-opacity="1" stroke-width="8" d=" M-43.56100082397461,79.27799987792969 C-26.451000213623047,67.97599792480469 10.067999839782715,47.48099899291992 30.594999313354492,9.277999877929688 C44.64699935913086,-16.874000549316406 45.57099914550781,-49.25199890136719 41.3489990234375,-79.27799987792969"/></g><g opacity="1" transform="matrix(1,0,0,1,184.3090057373047,225.85000610351562)"><path stroke-linecap="round" stroke-linejoin="round" fill-opacity="0" stroke="rgb(102,2,2)" stroke-opacity="1" stroke-width="8" d=" M-41.178001403808594,-79.87300109863281 C-45.59199905395508,-49.51499938964844 -44.83300018310547,-16.624000549316406 -30.594999313354492,9.87399959564209 C-10.987000465393066,46.367000579833984 25.624000549316406,68.2750015258789 43.560001373291016,79.87300109863281"/></g><g opacity="1" transform="matrix(1,0,0,1,261.8299865722656,416.3789978027344)"><path stroke-linecap="round" stroke-linejoin="round" fill-opacity="0" stroke="rgb(229,195,194)" stroke-opacity="1" stroke-width="4" d=" M-20.36199951171875,-1.4179999828338623 C-20.36199951171875,-1.4179999828338623 -2.4000000953674316,4.965000152587891 20.36199951171875,-1.4179999828338623"/></g><g opacity="1" transform="matrix(1,0,0,1,270.2250061035156,409.6839904785156)"><path fill="url(#__lottie_element_29676)" fill-opacity="0.6900000000000001" d=" M4.669000148773193,3.7009999752044678 C7.5,14.069000244140625 5.072000026702881,13.114999771118164 1.3370000123977661,13.781999588012695 C-2.3980000019073486,14.449000358581543 -4.017000198364258,16.733999252319336 -4.357999801635742,5.992000102996826 C-4.724999904632568,-5.559999942779541 -5.474999904632568,-13.9350004196167 -3.2660000324249268,-14.373000144958496 C-1.7009999752044678,-14.682999610900879 1.524999976158142,-7.809999942779541 4.669000148773193,3.7009999752044678z"/></g><g opacity="1" transform="matrix(1,0,0,1,252.22300720214844,410.1159973144531)"><path fill="url(#__lottie_element_29677)" fill-opacity="0.6900000000000001" d=" M3.128999948501587,5.659999847412109 C2.3369998931884766,16.378000259399414 1.3140000104904175,14.333999633789062 -2.4019999504089355,13.567999839782715 C-6.118000030517578,12.802000045776367 -9.232999801635742,13.779999732971191 -6.265999794006348,3.450000047683716 C-3.4110000133514404,-6.491000175476074 0.9639999866485596,-15.241000175476074 3.5769999027252197,-14.41100025177002 C5.058000087738037,-13.940999984741211 4.026000022888184,-6.491000175476074 3.128999948501587,5.659999847412109z"/></g><g opacity="1" transform="matrix(1,0,0,1,261.9750061035156,420.7229919433594)"><path stroke-linecap="round" stroke-linejoin="round" fill-opacity="0" stroke="rgb(166,166,163)" stroke-opacity="1" stroke-width="8" d=" M21.145000457763672,-1.871999979019165 C21.145000457763672,-1.871999979019165 0.08399999886751175,6.553999900817871 -21.145000457763672,-1.871999979019165"/></g><g opacity="1" transform="matrix(1,0,0,1,240.48300170898438,402.8739929199219)"><path stroke-linecap="round" stroke-linejoin="round" fill-opacity="0" stroke="rgb(125,125,122)" stroke-opacity="1" stroke-width="8" d=" M0.10999999940395355,15.699999809265137 C0.10999999940395355,15.699999809265137 -3.4089999198913574,9.041000366210938 -3.4089999198913574,9.041000366210938 C-3.4089999198913574,9.041000366210938 3.4089999198913574,-15.97700023651123 3.4089999198913574,-15.97700023651123"/></g><g opacity="1" transform="matrix(1,0,0,1,282.4590148925781,402.6719970703125)"><path stroke-linecap="round" stroke-linejoin="round" fill-opacity="0" stroke="rgb(125,125,122)" stroke-opacity="1" stroke-width="8" d=" M-4.008999824523926,-16.179000854492188 C-4.008999824523926,-16.179000854492188 4.008999824523926,9.157999992370605 4.008999824523926,9.157999992370605 C4.008999824523926,9.157999992370605 0.6610000133514404,16.179000854492188 0.6610000133514404,16.179000854492188"/></g><g opacity="1" transform="matrix(1,0,0,1,0,0)"><path stroke-linecap="round" stroke-linejoin="round" fill-opacity="0" stroke="rgb(214,214,214)" stroke-opacity="1" stroke-width="8" d=" M170.125,56.25 C172.625,54.25 228.5,54.75 257.25,54.5 C298.2489929199219,54.143001556396484 347,54.5 351.75,56.25"/></g></g></g></svg>