<svg xmlns="http://www.w3.org/2000/svg" xmlns:xlink="http://www.w3.org/1999/xlink" viewBox="0 0 512 512" width="512" height="512" style="width: 100%; height: 100%; transform: translate3d(0,0,0);" preserveAspectRatio="xMidYMid meet"><defs><clipPath id="__lottie_element_44717"><rect width="512" height="512" x="0" y="0"/></clipPath><clipPath id="__lottie_element_44719"><path d="M0,0 L200,0 L200,200 L0,200z"/></clipPath><filter id="__lottie_element_44721"><feColorMatrix type="matrix" color-interpolation-filters="sRGB" values="1 0 0 0 0 0 1 0 0 0 0 0 1 0 0 0 0 0 1 0" result="filter_result_0"/></filter><clipPath id="__lottie_element_44729"><path d="M0,0 L200,0 L200,200 L0,200z"/></clipPath><filter id="__lottie_element_44731"><feColorMatrix type="matrix" color-interpolation-filters="sRGB" values="1 0 0 0 0 0 1 0 0 0 0 0 1 0 0 0 0 0 1 0" result="filter_result_0"/></filter><clipPath id="__lottie_element_44739"><path d="M0,0 L200,0 L200,200 L0,200z"/></clipPath><filter id="__lottie_element_44741"><feColorMatrix type="matrix" color-interpolation-filters="sRGB" values="1 0 0 0 0 0 1 0 0 0 0 0 1 0 0 0 0 0 1 0" result="filter_result_0"/></filter><clipPath id="__lottie_element_44749"><path d="M0,0 L200,0 L200,200 L0,200z"/></clipPath><filter id="__lottie_element_44751"><feColorMatrix type="matrix" color-interpolation-filters="sRGB" values="1 0 0 0 0 0 1 0 0 0 0 0 1 0 0 0 0 0 1 0" result="filter_result_0"/></filter><clipPath id="__lottie_element_44759"><path d="M0,0 L200,0 L200,200 L0,200z"/></clipPath><filter id="__lottie_element_44761"><feColorMatrix type="matrix" color-interpolation-filters="sRGB" values="1 0 0 0 0 0 1 0 0 0 0 0 1 0 0 0 0 0 1 0" result="filter_result_0"/></filter><clipPath id="__lottie_element_44769"><path d="M0,0 L200,0 L200,200 L0,200z"/></clipPath><filter id="__lottie_element_44771"><feColorMatrix type="matrix" color-interpolation-filters="sRGB" values="1 0 0 0 0 0 1 0 0 0 0 0 1 0 0 0 0 0 1 0" result="filter_result_0"/></filter><linearGradient id="__lottie_element_44781" spreadMethod="pad" gradientUnits="userSpaceOnUse"><stop/><stop/><stop/></linearGradient><linearGradient id="__lottie_element_44788" spreadMethod="pad" gradientUnits="userSpaceOnUse"><stop/><stop/><stop/><stop/><stop/></linearGradient><linearGradient id="__lottie_element_44795" spreadMethod="pad" gradientUnits="userSpaceOnUse"><stop/><stop/><stop/><stop/><stop/></linearGradient><linearGradient id="__lottie_element_44808" spreadMethod="pad" gradientUnits="userSpaceOnUse"><stop/><stop/><stop/></linearGradient><linearGradient id="__lottie_element_44821" spreadMethod="pad" gradientUnits="userSpaceOnUse" x1="6.25" y1="-55.729000091552734" x2="6.25" y2="39.58300018310547"><stop offset="0%" stop-color="rgb(231,255,246)"/><stop offset="25%" stop-color="rgb(145,215,188)"/><stop offset="50%" stop-color="rgb(58,176,130)"/><stop offset="75%" stop-color="rgb(29,135,101)"/><stop offset="100%" stop-color="rgb(0,95,72)"/></linearGradient><linearGradient id="__lottie_element_44834" spreadMethod="pad" gradientUnits="userSpaceOnUse" x1="-135.41700744628906" y1="-30.20800018310547" x2="-134.375" y2="36.45800018310547"><stop offset="0%" stop-color="rgb(227,95,184)"/><stop offset="50%" stop-color="rgb(208,66,161)"/><stop offset="100%" stop-color="rgb(188,37,138)"/></linearGradient><linearGradient id="__lottie_element_44847" spreadMethod="pad" gradientUnits="userSpaceOnUse" x1="6.25" y1="-64.58300018310547" x2="6.25" y2="39.58300018310547"><stop offset="0%" stop-color="rgb(231,255,246)"/><stop offset="25%" stop-color="rgb(145,215,188)"/><stop offset="50%" stop-color="rgb(58,176,130)"/><stop offset="75%" stop-color="rgb(29,135,101)"/><stop offset="100%" stop-color="rgb(0,95,72)"/></linearGradient><linearGradient id="__lottie_element_44854" spreadMethod="pad" gradientUnits="userSpaceOnUse" x1="-135.41700744628906" y1="-30.20800018310547" x2="-134.375" y2="36.45800018310547"><stop offset="0%" stop-color="rgb(227,95,184)"/><stop offset="50%" stop-color="rgb(208,66,161)"/><stop offset="100%" stop-color="rgb(188,37,138)"/></linearGradient><linearGradient id="__lottie_element_44861" spreadMethod="pad" gradientUnits="userSpaceOnUse" x1="6.25" y1="-55.729000091552734" x2="6.25" y2="39.58300018310547"><stop offset="0%" stop-color="rgb(231,255,246)"/><stop offset="25%" stop-color="rgb(145,215,188)"/><stop offset="50%" stop-color="rgb(58,176,130)"/><stop offset="75%" stop-color="rgb(29,135,101)"/><stop offset="100%" stop-color="rgb(0,95,72)"/></linearGradient><linearGradient id="__lottie_element_44919" spreadMethod="pad" gradientUnits="userSpaceOnUse"><stop/><stop/><stop/><stop/><stop/><stop/><stop/><stop/><stop/></linearGradient><linearGradient id="__lottie_element_44923" spreadMethod="pad" gradientUnits="userSpaceOnUse"><stop/><stop/><stop/><stop/><stop/><stop/><stop/><stop/><stop/></linearGradient><linearGradient id="__lottie_element_44927" spreadMethod="pad" gradientUnits="userSpaceOnUse"><stop/><stop/><stop/><stop/><stop/><stop/><stop/><stop/><stop/></linearGradient><linearGradient id="__lottie_element_44931" spreadMethod="pad" gradientUnits="userSpaceOnUse"><stop/><stop/><stop/><stop/><stop/><stop/><stop/><stop/><stop/></linearGradient><linearGradient id="__lottie_element_44935" spreadMethod="pad" gradientUnits="userSpaceOnUse" x1="-200.76699829101562" y1="-0.824999988079071" x2="186.01600646972656" y2="-0.824999988079071"><stop offset="0%" stop-color="rgb(191,146,16)"/><stop offset="16%" stop-color="rgb(201,154,22)"/><stop offset="26%" stop-color="rgb(212,162,28)"/><stop offset="34%" stop-color="rgb(231,192,35)"/><stop offset="45%" stop-color="rgb(249,221,42)"/><stop offset="60%" stop-color="rgb(203,164,21)"/><stop offset="78%" stop-color="rgb(158,108,1)"/><stop offset="95%" stop-color="rgb(173,134,17)"/><stop offset="100%" stop-color="rgb(188,161,33)"/></linearGradient><linearGradient id="__lottie_element_44940" spreadMethod="pad" gradientUnits="userSpaceOnUse" x1="-187.81500244140625" y1="-0.32600000500679016" x2="187.72000122070312" y2="-0.32600000500679016"><stop offset="0%" stop-color="rgb(191,146,16)"/><stop offset="16%" stop-color="rgb(201,154,22)"/><stop offset="26%" stop-color="rgb(212,162,28)"/><stop offset="35%" stop-color="rgb(231,189,49)"/><stop offset="50%" stop-color="rgb(249,216,70)"/><stop offset="71%" stop-color="rgb(203,162,35)"/><stop offset="81%" stop-color="rgb(158,108,1)"/><stop offset="93%" stop-color="rgb(173,134,17)"/><stop offset="99%" stop-color="rgb(188,161,33)"/></linearGradient><radialGradient id="__lottie_element_44991" spreadMethod="pad" gradientUnits="userSpaceOnUse"><stop/><stop/><stop/></radialGradient><radialGradient id="__lottie_element_44995" spreadMethod="pad" gradientUnits="userSpaceOnUse"><stop/><stop/><stop/></radialGradient><radialGradient id="__lottie_element_44999" spreadMethod="pad" gradientUnits="userSpaceOnUse"><stop/><stop/><stop/></radialGradient><radialGradient id="__lottie_element_45003" spreadMethod="pad" gradientUnits="userSpaceOnUse"><stop/><stop/><stop/></radialGradient><radialGradient id="__lottie_element_45007" spreadMethod="pad" gradientUnits="userSpaceOnUse" cx="-4.054999828338623" cy="-205.8990020751953" r="354.01468984698994" fx="-4.054999828338623" fy="-205.8990020751953"><stop offset="14%" stop-color="rgb(207,158,29)"/><stop offset="78%" stop-color="rgb(161,107,18)"/><stop offset="97%" stop-color="rgb(116,56,6)"/></radialGradient><radialGradient id="__lottie_element_45011" spreadMethod="pad" gradientUnits="userSpaceOnUse" cx="-4.054999828338623" cy="-205.8990020751953" r="354.01468984698994" fx="-4.054999828338623" fy="-205.8990020751953"><stop offset="0%" stop-color="rgb(227,95,184)"/><stop offset="50%" stop-color="rgb(208,66,161)"/><stop offset="100%" stop-color="rgb(188,37,138)"/></radialGradient></defs><g clip-path="url(#__lottie_element_44717)"><g style="display: block;" transform="matrix(0.9599999785423279,0,0,0.9599999785423279,259.02301025390625,271.6400146484375)" opacity="1"><g opacity="1" transform="matrix(1,0,0,1,0,0)"><path fill="url(#__lottie_element_45011)" fill-opacity="1" d=" M178.9219970703125,-50.987998962402344 C178.9219970703125,-50.987998962402344 175.30499267578125,20.760000228881836 154.70199584960938,4.379000186920166 C128.99099731445312,-16.062999725341797 113.2760009765625,-89.40599822998047 113.2760009765625,-89.40599822998047 C113.2760009765625,-89.40599822998047 122.13600158691406,-96.90299987792969 122.46900177001953,-110.20600128173828 C122.92400360107422,-128.36900329589844 108.91699981689453,-135.75100708007812 96.7239990234375,-135.75100708007812 C83.61799621582031,-135.75100708007812 71.55899810791016,-124.77100372314453 71.55699920654297,-110.81800079345703 C71.55500030517578,-97.23999786376953 78.75700378417969,-92.47799682617188 78.75700378417969,-92.47799682617188 C78.75700378417969,-92.47799682617188 52.30500030517578,-12.741000175476074 -3.194999933242798,-8.401000022888184 C-55.10499954223633,-4.3420000076293945 -84.43399810791016,-92.81700134277344 -84.43399810791016,-92.81700134277344 C-84.43399810791016,-92.81700134277344 -79.69499969482422,-98.73999786376953 -79.25900268554688,-109.75700378417969 C-78.71399688720703,-123.5260009765625 -91.36599731445312,-136.25100708007812 -106.51899719238281,-136.25100708007812 C-118.77999877929688,-136.25100708007812 -132.21200561523438,-125.70999908447266 -131.2239990234375,-110.88700103759766 C-130.23599243164062,-96.06400299072266 -120.31400299072266,-90.85299682617188 -120.31400299072266,-90.85299682617188 C-128.2050018310547,-69.28500366210938 -142.19500732421875,-11.489999771118164 -162.4029998779297,4.2769999504089355 C-177.20599365234375,15.82699966430664 -187.46200561523438,-52.42300033569336 -187.46200561523438,-52.42300033569336 C-187.46200561523438,-52.42300033569336 -193.44500732421875,13.758000373840332 -157.85800170898438,68.44499969482422 C-132.80299377441406,106.9469985961914 -87.14299774169922,139.75100708007812 -4.284999847412109,139.75100708007812 C196.26300048828125,139.75100708007812 178.9219970703125,-50.987998962402344 178.9219970703125,-50.987998962402344z"/></g></g><g style="display: block;" transform="matrix(0.9599999785423279,0,0,0.9599999785423279,259.02301025390625,271.6400146484375)" opacity="1"><g opacity="1" transform="matrix(1,0,0,1,0,0)"><path fill="url(#__lottie_element_45007)" fill-opacity="1" d=" M178.9219970703125,-50.987998962402344 C178.9219970703125,-50.987998962402344 175.30499267578125,20.760000228881836 154.70199584960938,4.379000186920166 C128.99099731445312,-16.062999725341797 113.2760009765625,-89.40599822998047 113.2760009765625,-89.40599822998047 C113.2760009765625,-89.40599822998047 122.13600158691406,-96.90299987792969 122.46900177001953,-110.20600128173828 C122.92400360107422,-128.36900329589844 108.91699981689453,-135.75100708007812 96.7239990234375,-135.75100708007812 C83.61799621582031,-135.75100708007812 71.55899810791016,-124.77100372314453 71.55699920654297,-110.81800079345703 C71.55500030517578,-97.23999786376953 78.75700378417969,-92.47799682617188 78.75700378417969,-92.47799682617188 C78.75700378417969,-92.47799682617188 52.30500030517578,-12.741000175476074 -3.194999933242798,-8.401000022888184 C-55.10499954223633,-4.3420000076293945 -84.43399810791016,-92.81700134277344 -84.43399810791016,-92.81700134277344 C-84.43399810791016,-92.81700134277344 -79.69499969482422,-98.73999786376953 -79.25900268554688,-109.75700378417969 C-78.71399688720703,-123.5260009765625 -91.36599731445312,-136.25100708007812 -106.51899719238281,-136.25100708007812 C-118.77999877929688,-136.25100708007812 -132.21200561523438,-125.70999908447266 -131.2239990234375,-110.88700103759766 C-130.23599243164062,-96.06400299072266 -120.31400299072266,-90.85299682617188 -120.31400299072266,-90.85299682617188 C-128.2050018310547,-69.28500366210938 -142.19500732421875,-11.489999771118164 -162.4029998779297,4.2769999504089355 C-177.20599365234375,15.82699966430664 -187.46200561523438,-52.42300033569336 -187.46200561523438,-52.42300033569336 C-187.46200561523438,-52.42300033569336 -193.44500732421875,13.758000373840332 -157.85800170898438,68.44499969482422 C-132.80299377441406,106.9469985961914 -87.14299774169922,139.75100708007812 -4.284999847412109,139.75100708007812 C196.26300048828125,139.75100708007812 178.9219970703125,-50.987998962402344 178.9219970703125,-50.987998962402344z"/></g></g><g style="display: block;" transform="matrix(0.9599999785423279,0,0,0.9599999785423279,259.02301025390625,271.6400146484375)" opacity="1"><g opacity="1" transform="matrix(1,0,0,1,0,0)"><path stroke-linecap="round" stroke-linejoin="round" fill-opacity="0" stroke="rgb(153,98,0)" stroke-opacity="1" stroke-width="8" d=" M178.9219970703125,-50.987998962402344 C178.9219970703125,-50.987998962402344 175.30499267578125,20.760000228881836 154.70199584960938,4.379000186920166 C128.99099731445312,-16.062999725341797 113.2760009765625,-89.40599822998047 113.2760009765625,-89.40599822998047 C113.2760009765625,-89.40599822998047 122.13600158691406,-96.90299987792969 122.46900177001953,-110.20600128173828 C122.92400360107422,-128.36900329589844 108.91699981689453,-135.75100708007812 96.7239990234375,-135.75100708007812 C83.61799621582031,-135.75100708007812 71.55899810791016,-124.77100372314453 71.55699920654297,-110.81800079345703 C71.55500030517578,-97.23999786376953 78.75700378417969,-92.47799682617188 78.75700378417969,-92.47799682617188 C78.75700378417969,-92.47799682617188 52.30500030517578,-12.741000175476074 -3.194999933242798,-8.401000022888184 C-55.10499954223633,-4.3420000076293945 -84.43399810791016,-92.81700134277344 -84.43399810791016,-92.81700134277344 C-84.43399810791016,-92.81700134277344 -79.69499969482422,-98.73999786376953 -79.25900268554688,-109.75700378417969 C-78.71399688720703,-123.5260009765625 -91.36599731445312,-136.25100708007812 -106.51899719238281,-136.25100708007812 C-118.77999877929688,-136.25100708007812 -132.21200561523438,-125.70999908447266 -131.2239990234375,-110.88700103759766 C-130.23599243164062,-96.06400299072266 -120.31400299072266,-90.85299682617188 -120.31400299072266,-90.85299682617188 C-128.2050018310547,-69.28500366210938 -142.19500732421875,-11.489999771118164 -162.4029998779297,4.2769999504089355 C-177.20599365234375,15.82699966430664 -187.46200561523438,-52.42300033569336 -187.46200561523438,-52.42300033569336 C-187.46200561523438,-52.42300033569336 -193.44500732421875,13.758000373840332 -157.85800170898438,68.44499969482422 C-132.80299377441406,106.9469985961914 -87.14299774169922,139.75100708007812 -4.284999847412109,139.75100708007812 C196.26300048828125,139.75100708007812 178.9219970703125,-50.987998962402344 178.9219970703125,-50.987998962402344z"/></g></g><g style="display: block;" transform="matrix(0.9599999785423279,0,0,0.9599999785423279,259.02301025390625,271.6400146484375)" opacity="1"><g opacity="1" transform="matrix(1,0,0,1,0,0)"><path stroke-linecap="round" stroke-linejoin="round" fill-opacity="0" stroke="rgb(221,158,0)" stroke-opacity="1" stroke-width="9" d=" M123.20099639892578,-53.59299850463867 C116.78500366210938,-73.02799987792969 113.2760009765625,-89.40599822998047 113.2760009765625,-89.40599822998047 C113.2760009765625,-89.40599822998047 122.13600158691406,-96.90299987792969 122.46900177001953,-110.20600128173828 C122.92400360107422,-128.36900329589844 108.91699981689453,-135.75100708007812 96.7239990234375,-135.75100708007812 C83.61799621582031,-135.75100708007812 71.55899810791016,-124.77100372314453 71.55699920654297,-110.81800079345703 C71.55500030517578,-97.23999786376953 78.75700378417969,-92.47799682617188 78.75700378417969,-92.47799682617188 C78.75700378417969,-92.47799682617188 52.30500030517578,-12.741000175476074 -3.194999933242798,-8.401000022888184 C-55.10499954223633,-4.3420000076293945 -84.43399810791016,-92.81700134277344 -84.43399810791016,-92.81700134277344 C-84.43399810791016,-92.81700134277344 -79.69499969482422,-98.73999786376953 -79.25900268554688,-109.75700378417969 C-78.71399688720703,-123.5260009765625 -91.36599731445312,-136.25100708007812 -106.51899719238281,-136.25100708007812 C-118.77999877929688,-136.25100708007812 -132.21200561523438,-125.70999908447266 -131.2239990234375,-110.88700103759766 C-130.23599243164062,-96.06400299072266 -120.31400299072266,-90.85299682617188 -120.31400299072266,-90.85299682617188 C-123.86399841308594,-81.1500015258789 -128.6479949951172,-64.11499786376953 -134.67799377441406,-46.87300109863281"/></g></g><g style="display: block;" transform="matrix(0.9599999785423279,0,0,0.9599999785423279,259.02301025390625,271.6400146484375)" opacity="0.5"><g opacity="1" transform="matrix(1,0,0,1,0,0)"><path stroke-linecap="round" stroke-linejoin="round" fill-opacity="0" stroke="rgb(153,98,0)" stroke-opacity="1" stroke-width="9" d=" M67.7699966430664,-67.60399627685547 C55.215999603271484,-43.808998107910156 31.777999877929688,-11.13599967956543 -3.194999933242798,-8.401000022888184 C-34.59700012207031,-5.946000099182129 -57.73500061035156,-37.35200119018555 -71.11699676513672,-62.55099868774414"/></g></g><g style="display: block;" transform="matrix(1.0080000162124634,0,0,1.0080000162124634,255.91200256347656,425.64898681640625)" opacity="1"><g opacity="1" transform="matrix(1,0,0,1,0,0)"><path fill="url(#__lottie_element_44940)" fill-opacity="1" d=" M-181.11399841308594,-41.61199951171875 C-181.11399841308594,-41.61199951171875 -187.76600646972656,-38.5629997253418 -187.76600646972656,-32.81399917602539 C-187.76600646972656,-25.14699935913086 -187.83700561523438,-13.133000373840332 -186.97900390625,-9.493000030517578 C-186.48699951171875,-7.4070000648498535 -144.43699645996094,41.61199951171875 0.04500000178813934,41.61199951171875 C146.67300415039062,41.61199951171875 185.11599731445312,-3.5369999408721924 185.78399658203125,-7.925000190734863 C186.5800018310547,-13.154999732971191 187.76699829101562,-23.656999588012695 187.76699829101562,-30.698999404907227 C187.76699829101562,-36.25400161743164 181.61399841308594,-39.62200164794922 181.61399841308594,-39.62200164794922 C181.61399841308594,-39.62200164794922 -181.11399841308594,-41.61199951171875 -181.11399841308594,-41.61199951171875z"/></g></g><g style="display: block;" transform="matrix(1.0080000162124634,0,0,1.0080000162124634,255.91200256347656,425.64898681640625)" opacity="1"><g opacity="1" transform="matrix(1,0,0,1,0,0)"><path stroke-linecap="round" stroke-linejoin="round" fill-opacity="0" stroke="rgb(153,98,0)" stroke-opacity="1" stroke-width="8" d=" M-181.11399841308594,-41.61199951171875 C-181.11399841308594,-41.61199951171875 -187.76600646972656,-38.5629997253418 -187.76600646972656,-32.81399917602539 C-187.76600646972656,-25.14699935913086 -187.83700561523438,-13.133000373840332 -186.97900390625,-9.493000030517578 C-186.48699951171875,-7.4070000648498535 -144.43699645996094,41.61199951171875 0.04500000178813934,41.61199951171875 C146.67300415039062,41.61199951171875 185.11599731445312,-3.5369999408721924 185.78399658203125,-7.925000190734863 C186.5800018310547,-13.154999732971191 187.76699829101562,-23.656999588012695 187.76699829101562,-30.698999404907227 C187.76699829101562,-36.25400161743164 181.61399841308594,-39.62200164794922 181.61399841308594,-39.62200164794922 C181.61399841308594,-39.62200164794922 -181.11399841308594,-41.61199951171875 -181.11399841308594,-41.61199951171875z"/></g></g><g style="display: block;" transform="matrix(0.9599999785423279,0,0,0.9599999785423279,254.906005859375,304.2080078125)" opacity="1"><g opacity="1" transform="matrix(1,0,0,1,0,0)"><path fill="url(#__lottie_element_44935)" fill-opacity="1" d=" M-187.6820068359375,-85.00299835205078 C-188.156005859375,-5.915999889373779 -187.06500244140625,43.08599853515625 -187.06500244140625,81.38899993896484 C-187.06500244140625,95.83399963378906 -126.5530014038086,128.51300048828125 2.0940001010894775,128.51300048828125 C131.4429931640625,128.51300048828125 188.41200256347656,97.33300018310547 188.41200256347656,78.37899780273438 C188.41200256347656,13.562999725341797 188.593994140625,-30.416000366210938 188.12600708007812,-86.67400360107422 C188.12600708007812,-86.67400360107422 211.093994140625,-91.91600036621094 211.6510009765625,-113.7490005493164 C212.3699951171875,-141.93699645996094 188.56100463867188,-143.4759979248047 180.64100646972656,-143.29200744628906 C176.00399780273438,-143.1840057373047 156.09500122070312,-139.91600036621094 153.76199340820312,-117.96099853515625 C151.375,-95.49299621582031 175.41000366210938,-88.00299835205078 175.41000366210938,-88.00299835205078 C175.41000366210938,-88.00299835205078 169.74899291992188,-34.10499954223633 148.61399841308594,-0.3709999918937683 C127.47899627685547,33.362998962402344 94.06999969482422,27.52400016784668 74.36199951171875,6.598999977111816 C47.7400016784668,-21.66699981689453 24.672000885009766,-71.47699737548828 24.672000885009766,-71.47699737548828 C29.2189998626709,-77.54100036621094 32.09400177001953,-83.79100036621094 32.2130012512207,-94.09300231933594 C32.4109992980957,-111.19400024414062 16.635000228881836,-123.91699981689453 1.3960000276565552,-123.91200256347656 C-12.298999786376953,-123.90799713134766 -29.417999267578125,-113.56600189208984 -29.47599983215332,-96.48400115966797 C-29.5310001373291,-80.29100036621094 -22.492000579833984,-72.43900299072266 -22.492000579833984,-72.43900299072266 C-22.492000579833984,-72.43900299072266 -26.55500030517578,-60.805999755859375 -50.16999816894531,-19.08300018310547 C-71.45099639892578,18.516000747680664 -93.40599822998047,29.833999633789062 -119.93699645996094,21.895000457763672 C-158.32200622558594,10.409000396728516 -168.447998046875,-87.81700134277344 -168.447998046875,-87.81700134277344 C-168.447998046875,-87.81700134277344 -151.656005859375,-98.16600036621094 -151.98800659179688,-116.13300323486328 C-152.343994140625,-135.41299438476562 -170.01100158691406,-144.0030059814453 -181.9320068359375,-143.9219970703125 C-201.156005859375,-143.79100036621094 -209.9550018310547,-124.79299926757812 -209.68600463867188,-112.63700103759766 C-209.281005859375,-94.29100036621094 -187.6820068359375,-85.00299835205078 -187.6820068359375,-85.00299835205078z"/></g></g><g style="display: block;" transform="matrix(0.9599999785423279,0,0,0.9599999785423279,254.906005859375,304.2080078125)" opacity="1"><g opacity="1" transform="matrix(1,0,0,1,0,0)"><path stroke-linecap="round" stroke-linejoin="round" fill-opacity="0" stroke="rgb(153,98,0)" stroke-opacity="1" stroke-width="8" d=" M-187.6820068359375,-85.00299835205078 C-188.156005859375,-5.915999889373779 -187.06500244140625,43.08599853515625 -187.06500244140625,81.38899993896484 C-187.06500244140625,95.83399963378906 -126.5530014038086,128.51300048828125 2.0940001010894775,128.51300048828125 C131.4429931640625,128.51300048828125 188.41200256347656,97.33300018310547 188.41200256347656,78.37899780273438 C188.41200256347656,13.562999725341797 188.593994140625,-30.416000366210938 188.12600708007812,-86.67400360107422 C188.12600708007812,-86.67400360107422 211.093994140625,-91.91600036621094 211.6510009765625,-113.7490005493164 C212.3699951171875,-141.93699645996094 188.56100463867188,-143.4759979248047 180.64100646972656,-143.29200744628906 C176.00399780273438,-143.1840057373047 156.09500122070312,-139.91600036621094 153.76199340820312,-117.96099853515625 C151.375,-95.49299621582031 175.41000366210938,-88.00299835205078 175.41000366210938,-88.00299835205078 C175.41000366210938,-88.00299835205078 169.74899291992188,-34.10499954223633 148.61399841308594,-0.3709999918937683 C127.47899627685547,33.362998962402344 94.06999969482422,27.52400016784668 74.36199951171875,6.598999977111816 C47.7400016784668,-21.66699981689453 24.672000885009766,-71.47699737548828 24.672000885009766,-71.47699737548828 C29.2189998626709,-77.54100036621094 32.09400177001953,-83.79100036621094 32.2130012512207,-94.09300231933594 C32.4109992980957,-111.19400024414062 16.635000228881836,-123.91699981689453 1.3960000276565552,-123.91200256347656 C-12.298999786376953,-123.90799713134766 -29.417999267578125,-113.56600189208984 -29.47599983215332,-96.48400115966797 C-29.5310001373291,-80.29100036621094 -22.492000579833984,-72.43900299072266 -22.492000579833984,-72.43900299072266 C-22.492000579833984,-72.43900299072266 -26.55500030517578,-60.805999755859375 -50.16999816894531,-19.08300018310547 C-71.45099639892578,18.516000747680664 -93.40599822998047,29.833999633789062 -119.93699645996094,21.895000457763672 C-158.32200622558594,10.409000396728516 -168.447998046875,-87.81700134277344 -168.447998046875,-87.81700134277344 C-168.447998046875,-87.81700134277344 -151.656005859375,-98.16600036621094 -151.98800659179688,-116.13300323486328 C-152.343994140625,-135.41299438476562 -170.01100158691406,-144.0030059814453 -181.9320068359375,-143.9219970703125 C-201.156005859375,-143.79100036621094 -209.9550018310547,-124.79299926757812 -209.68600463867188,-112.63700103759766 C-209.281005859375,-94.29100036621094 -187.6820068359375,-85.00299835205078 -187.6820068359375,-85.00299835205078z"/></g></g><g style="display: block;" transform="matrix(0.9599999785423279,0,0,0.9599999785423279,254.906005859375,304.2080078125)" opacity="0.75"><g opacity="1" transform="matrix(1,0,0,1,0,0)"><path stroke-linecap="round" stroke-linejoin="round" fill-opacity="0" stroke="rgb(221,158,0)" stroke-opacity="1" stroke-width="9" d=" M139.3509979248047,11.281000137329102 C118.6240005493164,31.490999221801758 91.38300323486328,24.67099952697754 74.36199951171875,6.598999977111816 C47.7400016784668,-21.66699981689453 24.672000885009766,-71.47699737548828 24.672000885009766,-71.47699737548828 C29.2189998626709,-77.54100036621094 32.09400177001953,-83.79100036621094 32.2130012512207,-94.09300231933594 C32.4109992980957,-111.19400024414062 16.635000228881836,-123.91699981689453 1.3960000276565552,-123.91200256347656 C-12.298999786376953,-123.90799713134766 -29.417999267578125,-113.56600189208984 -29.47599983215332,-96.48400115966797 C-29.5310001373291,-80.29100036621094 -22.492000579833984,-72.43900299072266 -22.492000579833984,-72.43900299072266 C-22.492000579833984,-72.43900299072266 -26.55500030517578,-60.805999755859375 -50.16999816894531,-19.08300018310547 C-71.45099639892578,18.516000747680664 -93.40599822998047,29.833999633789062 -119.93699645996094,21.895000457763672 C-124.86000061035156,20.422000885009766 -129.3179931640625,17.52199935913086 -133.3489990234375,13.586000442504883"/></g></g><g style="display: block;" transform="matrix(0.9599999785423279,0,0,0.9599999785423279,254.906005859375,304.2080078125)" opacity="0.75"><g opacity="1" transform="matrix(1,0,0,1,0,0)"><path stroke-linecap="round" stroke-linejoin="round" fill-opacity="0" stroke="rgb(242,206,41)" stroke-opacity="1" stroke-width="9" d=" M29.42799949645996,-79.48400115966797 C31.145000457763672,-83.49199676513672 32.14400100708008,-88.10900115966797 32.2130012512207,-94.09300231933594 C32.4109992980957,-111.19400024414062 16.635000228881836,-123.91699981689453 1.3960000276565552,-123.91200256347656 C-12.298999786376953,-123.90799713134766 -29.417999267578125,-113.56600189208984 -29.47599983215332,-96.48400115966797 C-29.496000289916992,-90.50900268554688 -28.551000595092773,-85.66899871826172 -27.349000930786133,-81.94100189208984"/></g></g><g style="display: block;" transform="matrix(0.9599999785423279,0,0,0.9599999785423279,256.1520080566406,404.2409973144531)" opacity="0.5"><g opacity="1" transform="matrix(1,0,0,1,0,0)"><path stroke-linecap="round" stroke-linejoin="round" fill-opacity="0" stroke="rgb(153,98,0)" stroke-opacity="1" stroke-width="8" d=" M-186.86300659179688,-27.812000274658203 C-187.0800018310547,-15.85200023651123 -128.6009979248047,16.562000274658203 0.04600000008940697,16.562000274658203 C129.39500427246094,16.562000274658203 186.61399841308594,-16.2189998626709 186.61399841308594,-28.57200050354004"/></g></g><g style="display: block;" transform="matrix(0.9599999785423279,0,0,0.9599999785423279,256.1520080566406,411.9209899902344)" opacity="1"><g opacity="1" transform="matrix(1,0,0,1,0,0)"><path stroke-linecap="round" stroke-linejoin="round" fill-opacity="0" stroke="rgb(221,158,0)" stroke-opacity="1" stroke-width="9" d=" M-186.86300659179688,-27.812000274658203 C-187.0800018310547,-15.85200023651123 -128.6009979248047,16.562000274658203 0.04600000008940697,16.562000274658203 C129.39500427246094,16.562000274658203 186.61399841308594,-16.2189998626709 186.61399841308594,-28.57200050354004"/></g></g><g style="display: block;" transform="matrix(0.9599999785423279,0,0,0.9599999785423279,10.196044921875,51.569000244140625)" opacity="0.2"><g opacity="1" transform="matrix(1,0,0,1,254.906005859375,346.8789978027344)"><g opacity="1" transform="matrix(1,0,0,1,0,0)"><path fill="rgb(40,191,132)" fill-opacity="1" d=" M-169.906005859375,-28.378999710083008 C-169.906005859375,-9.876999855041504 -176.50999450683594,5.120999813079834 -184.656005859375,5.120999813079834 C-192.802001953125,5.120999813079834 -199.406005859375,-9.876999855041504 -199.406005859375,-28.378999710083008 C-199.406005859375,-28.378999710083008 -199.406005859375,-28.378999710083008 -199.406005859375,-28.378999710083008"/></g></g></g><g style="display: block;" transform="matrix(0.9599999785423279,0,0,0.9599999785423279,10.196044921875,41.009002685546875)" opacity="1"><g opacity="1" transform="matrix(1,0,0,1,0,-8.5)"><g opacity="1" transform="matrix(1,0,0,1,254.906005859375,355.3789978027344)"><g opacity="1" transform="matrix(1,0,0,1,0,0)"><path fill="url(#__lottie_element_44861)" fill-opacity="1" d=" M-169.906005859375,-28.378999710083008 C-169.906005859375,-9.876999855041504 -176.50999450683594,5.120999813079834 -184.656005859375,5.120999813079834 C-192.802001953125,5.120999813079834 -199.406005859375,-9.876999855041504 -199.406005859375,-28.378999710083008 C-199.406005859375,-46.88100051879883 -192.802001953125,-61.87900161743164 -184.656005859375,-61.87900161743164 C-176.50999450683594,-61.87900161743164 -169.906005859375,-46.88100051879883 -169.906005859375,-28.378999710083008z"/></g></g><g opacity="0.6" transform="matrix(1,0,0,1,254.906005859375,335.4159851074219)"><g opacity="1" transform="matrix(1,0,0,1,0,0)"><path fill="rgb(255,255,255)" fill-opacity="1" d=" M-174.60000610351562,-21.524999618530273 C-174.60000610351562,-12.491999626159668 -176.1699981689453,-28.320999145507812 -184.656005859375,-28.320999145507812 C-192.93099975585938,-28.320999145507812 -194.71200561523438,-12.491999626159668 -194.71200561523438,-21.524999618530273 C-194.71200561523438,-30.558000564575195 -190.2100067138672,-37.88100051879883 -184.656005859375,-37.88100051879883 C-179.1020050048828,-37.88100051879883 -174.60000610351562,-30.558000564575195 -174.60000610351562,-21.524999618530273z"/></g></g></g><g opacity="1" transform="matrix(1,0,0,1,254.906005859375,346.8789978027344)"><g opacity="1" transform="matrix(1,0,0,1,0,0)"><path stroke-linecap="round" stroke-linejoin="round" fill-opacity="0" stroke="rgb(0,124,91)" stroke-opacity="1" stroke-width="8" d=" M-169.906005859375,-28.378999710083008 C-169.906005859375,-9.876999855041504 -176.50999450683594,5.120999813079834 -184.656005859375,5.120999813079834 C-192.802001953125,5.120999813079834 -199.406005859375,-9.876999855041504 -199.406005859375,-28.378999710083008 C-199.406005859375,-46.88100051879883 -192.802001953125,-61.87900161743164 -184.656005859375,-61.87900161743164 C-176.50999450683594,-61.87900161743164 -169.906005859375,-46.88100051879883 -169.906005859375,-28.378999710083008z"/></g></g><g opacity="1" transform="matrix(1,0,0,1,254.906005859375,346.8789978027344)"><g opacity="1" transform="matrix(1,0,0,1,0,0)"><path stroke-linecap="round" stroke-linejoin="round" fill-opacity="0" stroke="rgb(0,84,68)" stroke-opacity="1" stroke-width="8" d=" M-169.906005859375,-28.378999710083008 C-169.906005859375,-9.876999855041504 -176.50999450683594,5.120999813079834 -184.656005859375,5.120999813079834 C-192.802001953125,5.120999813079834 -199.406005859375,-9.876999855041504 -199.406005859375,-28.378999710083008 C-199.406005859375,-28.378999710083008 -199.406005859375,-28.378999710083008 -199.406005859375,-28.378999710083008"/></g></g></g><g style="display: block;" transform="matrix(0.9599999785423279,0,0,0.9599999785423279,10.195327758789062,48.6890869140625)" opacity="0.2"><g opacity="1" transform="matrix(1,0,0,1,135.68499755859375,347.0509948730469)"><path fill="rgb(181,18,150)" fill-opacity="1" d=" M-2.118000030517578,-21.464000701904297 C-15.057000160217285,-20.424999237060547 -20.621000289916992,-7.5 -18.66200065612793,5.239999771118164 C-16.915000915527344,16.60300064086914 -7.348999977111816,27.55500030517578 4.796000003814697,26.43899917602539 C13.824999809265137,25.608999252319336 21.34000015258789,16.802000045776367 19.857999801635742,1.4900000095367432 C18.375999450683594,-13.821999549865723 8.006999969482422,-22.277000427246094 -2.118000030517578,-21.464000701904297z"/></g></g><g style="display: block;" transform="matrix(0.9599999785423279,0,0,0.9599999785423279,10.195327758789062,39.089080810546875)" opacity="1"><g opacity="1" transform="matrix(1,0,0,1,135.68499755859375,347.0509948730469)"><path fill="url(#__lottie_element_44854)" fill-opacity="1" d=" M-2.118000030517578,-21.464000701904297 C-15.057000160217285,-20.424999237060547 -20.621000289916992,-7.5 -18.66200065612793,5.239999771118164 C-16.915000915527344,16.60300064086914 -7.348999977111816,27.55500030517578 4.796000003814697,26.43899917602539 C13.824999809265137,25.608999252319336 21.34000015258789,16.802000045776367 19.857999801635742,1.4900000095367432 C18.375999450683594,-13.821999549865723 8.006999969482422,-22.277000427246094 -2.118000030517578,-21.464000701904297z"/></g><g opacity="0.5" transform="matrix(1,0,0,1,132.51699829101562,335.59698486328125)"><path fill="rgb(255,255,255)" fill-opacity="1" d=" M-5.7129998207092285,-3.8410000801086426 C-13.003999710083008,0.652999997138977 -11.774999618530273,8.843999862670898 -10.045000076293945,10.97700023651123 C-8.04800033569336,13.437999725341797 -10.598999977111816,5.585000038146973 -2.688999891281128,0.37599998712539673 C5.0329999923706055,-4.709000110626221 15.399999618530273,2.368000030517578 11.531000137329102,-2.634999990463257 C7.6620001792907715,-7.638000011444092 -0.00800000037997961,-7.35699987411499 -5.7129998207092285,-3.8410000801086426z"/></g><g opacity="1" transform="matrix(1,0,0,1,135.68499755859375,347.0509948730469)"><path stroke-linecap="round" stroke-linejoin="round" fill-opacity="0" stroke="rgb(181,18,150)" stroke-opacity="1" stroke-width="8" d=" M-2.118000030517578,-21.464000701904297 C-15.057000160217285,-20.424999237060547 -20.621000289916992,-7.5 -18.66200065612793,5.239999771118164 C-16.915000915527344,16.60300064086914 -7.348999977111816,27.55500030517578 4.796000003814697,26.43899917602539 C13.824999809265137,25.608999252319336 21.34000015258789,16.802000045776367 19.857999801635742,1.4900000095367432 C18.375999450683594,-13.821999549865723 8.006999969482422,-22.277000427246094 -2.118000030517578,-21.464000701904297z"/></g><g opacity="1" transform="matrix(1,0,0,1,138.2729949951172,358.55499267578125)"><path stroke-linecap="round" stroke-linejoin="round" fill-opacity="0" stroke="rgb(147,0,126)" stroke-opacity="1" stroke-width="8" d=" M-16.457000732421875,5.4629998207092285 C-12.166000366210938,11.494000434875488 -5.499000072479248,15.642999649047852 2.2070000171661377,14.9350004196167 C11.236000061035156,14.104999542236328 18.750999450683594,5.297999858856201 17.268999099731445,-10.013999938964844"/></g></g><g style="display: block;" transform="matrix(0.9599999785423279,0,0,0.9599999785423279,254.906005859375,392.25201416015625)" opacity="0.2"><path fill="rgb(40,191,132)" fill-opacity="1" d=" M40.560001373291016,-2.878999948501587 C40.560001373291016,16.451000213623047 25.25200080871582,32.12099838256836 6.369999885559082,32.12099838256836 C-12.51200008392334,32.12099838256836 -27.81999969482422,16.451000213623047 -27.81999969482422,-2.878999948501587 C-27.81999969482422,-22.208999633789062 -12.512999534606934,-37.87900161743164 6.369999885559082,-37.87900161743164 C25.253000259399414,-37.87900161743164 40.560001373291016,-22.208999633789062 40.560001373291016,-2.878999948501587z"/><g opacity="1" transform="matrix(1,0,0,1,0,0)"/></g><g style="display: block;" transform="matrix(0.9599999785423279,0,0,0.9599999785423279,10.195236206054688,39.08819580078125)" opacity="1"><g opacity="1" transform="matrix(1,0,0,1,254.906005859375,355.3789978027344)"><g opacity="1" transform="matrix(1,0,0,1,0,0)"><path fill="url(#__lottie_element_44847)" fill-opacity="1" d=" M40.560001373291016,-2.878999948501587 C40.560001373291016,16.451000213623047 25.25200080871582,32.12099838256836 6.369999885559082,32.12099838256836 C-12.51200008392334,32.12099838256836 -27.81999969482422,16.451000213623047 -27.81999969482422,-2.878999948501587 C-27.81999969482422,-22.208999633789062 -12.512999534606934,-37.87900161743164 6.369999885559082,-37.87900161743164 C25.253000259399414,-37.87900161743164 40.560001373291016,-22.208999633789062 40.560001373291016,-2.878999948501587z"/></g></g><g opacity="0.6" transform="matrix(1,0,0,1,254.906005859375,335.4159851074219)"><g opacity="1" transform="matrix(1,0,0,1,0,0)"><path fill="rgb(255,255,255)" fill-opacity="1" d=" M29.679000854492188,3.388000011444092 C29.679000854492188,12.826000213623047 26.038999557495117,-3.7119998931884766 6.369999885559082,-3.7119998931884766 C-12.812000274658203,-3.7119998931884766 -16.93899917602539,12.826000213623047 -16.93899917602539,3.388000011444092 C-16.93899917602539,-6.050000190734863 -6.502999782562256,-13.699999809265137 6.369999885559082,-13.699999809265137 C19.243000030517578,-13.699999809265137 29.679000854492188,-6.050000190734863 29.679000854492188,3.388000011444092z"/></g></g></g><g style="display: block;" transform="matrix(0.9599999785423279,0,0,0.9599999785423279,254.906005859375,380.25201416015625)" opacity="1"><g opacity="1" transform="matrix(1,0,0,1,0,0)"><path stroke-linecap="round" stroke-linejoin="round" fill-opacity="0" stroke="rgb(0,124,91)" stroke-opacity="1" stroke-width="8" d=" M40.560001373291016,-2.878999948501587 C40.560001373291016,16.451000213623047 25.25200080871582,32.12099838256836 6.369999885559082,32.12099838256836 C-12.51200008392334,32.12099838256836 -27.81999969482422,16.451000213623047 -27.81999969482422,-2.878999948501587 C-27.81999969482422,-22.208999633789062 -12.512999534606934,-37.87900161743164 6.369999885559082,-37.87900161743164 C25.253000259399414,-37.87900161743164 40.560001373291016,-22.208999633789062 40.560001373291016,-2.878999948501587z"/></g></g><g style="display: block;" transform="matrix(0.9599999785423279,0,0,0.9599999785423279,254.906005859375,380.25201416015625)" opacity="1"><g opacity="1" transform="matrix(1,0,0,1,0,0)"><path stroke-linecap="round" stroke-linejoin="round" fill-opacity="0" stroke="rgb(0,84,68)" stroke-opacity="1" stroke-width="8" d=" M40.560001373291016,-2.878999948501587 C40.560001373291016,16.451000213623047 25.25200080871582,32.12099838256836 6.369999885559082,32.12099838256836 C-12.51200008392334,32.12099838256836 -27.81999969482422,16.451000213623047 -27.81999969482422,-2.878999948501587 C-27.81999969482422,-2.878999948501587 -27.81999969482422,-2.878999948501587 -27.81999969482422,-2.878999948501587"/></g></g><g style="display: block;" transform="matrix(0.9599999785423279,0,0,0.9599999785423279,10.195831298828125,53.008270263671875)" opacity="0.2"><g opacity="1" transform="matrix(1,0,0,1,374.6109924316406,347.1310119628906)"><path fill="rgb(216,67,167)" fill-opacity="1" d=" M2.868000030517578,-21.714000701904297 C15.807000160217285,-20.674999237060547 21.371000289916992,-7.75 19.41200065612793,4.989999771118164 C17.665000915527344,16.35300064086914 8.098999977111816,27.30500030517578 -4.046000003814697,26.18899917602539 C-13.074999809265137,25.358999252319336 -20.59000015258789,16.552000045776367 -19.107999801635742,1.2400000095367432 C-17.625999450683594,-14.071999549865723 -7.256999969482422,-22.527000427246094 2.868000030517578,-21.714000701904297z"/></g></g><g style="display: block;" transform="matrix(0.9599999785423279,0,0,0.9599999785423279,10.195831298828125,43.40826416015625)" opacity="1"><g opacity="1" transform="matrix(1,0,0,1,374.6109924316406,347.1310119628906)"><path fill="url(#__lottie_element_44834)" fill-opacity="1" d=" M2.868000030517578,-21.714000701904297 C15.807000160217285,-20.674999237060547 21.371000289916992,-7.75 19.41200065612793,4.989999771118164 C17.665000915527344,16.35300064086914 8.098999977111816,27.30500030517578 -4.046000003814697,26.18899917602539 C-13.074999809265137,25.358999252319336 -20.59000015258789,16.552000045776367 -19.107999801635742,1.2400000095367432 C-17.625999450683594,-14.071999549865723 -7.256999969482422,-22.527000427246094 2.868000030517578,-21.714000701904297z"/></g><g opacity="0.5" transform="matrix(1,0,0,1,373.8110046386719,334.66400146484375)"><path fill="rgb(255,255,255)" fill-opacity="1" d=" M-1.187999963760376,-5.109000205993652 C7.064000129699707,-7.400000095367432 12.236000061035156,-0.9290000200271606 12.623000144958496,1.7899999618530273 C13.069999694824219,4.927000045776367 9.04699993133545,-2.2829999923706055 -0.1509999930858612,-0.024000000208616257 C-9.130000114440918,2.180999994277954 -10.989999771118164,14.593999862670898 -12.027999877929688,8.354999542236328 C-13.065999984741211,2.115999937057495 -7.644999980926514,-3.316999912261963 -1.187999963760376,-5.109000205993652z"/></g><g opacity="1" transform="matrix(1,0,0,1,374.6109924316406,347.1310119628906)"><path stroke-linecap="round" stroke-linejoin="round" fill-opacity="0" stroke="rgb(181,18,150)" stroke-opacity="1" stroke-width="8" d=" M2.868000030517578,-21.714000701904297 C15.807000160217285,-20.674999237060547 21.371000289916992,-7.75 19.41200065612793,4.989999771118164 C17.665000915527344,16.35300064086914 8.098999977111816,27.30500030517578 -4.046000003814697,26.18899917602539 C-13.074999809265137,25.358999252319336 -20.59000015258789,16.552000045776367 -19.107999801635742,1.2400000095367432 C-17.625999450683594,-14.071999549865723 -7.256999969482422,-22.527000427246094 2.868000030517578,-21.714000701904297z"/></g><g opacity="1" transform="matrix(1,0,0,1,375.41900634765625,360.510009765625)"><path stroke-linecap="round" stroke-linejoin="round" fill-opacity="0" stroke="rgb(147,0,126)" stroke-opacity="1" stroke-width="8" d=" M18.604000091552734,-8.388999938964844 C16.85700035095215,2.9739999771118164 7.290999889373779,13.925999641418457 -4.854000091552734,12.8100004196167 C-10.442000389099121,12.295999526977539 -15.449999809265137,8.727999687194824 -18.104000091552734,2.4519999027252197"/></g></g><g style="display: block;" transform="matrix(0.9599999785423279,0,0,0.9599999785423279,10.196044921875,51.569000244140625)" opacity="0.2"><g opacity="1" transform="matrix(1,0,0,1,254.906005859375,346.8789978027344)"><g opacity="1" transform="matrix(1,0,0,1,0,0)"><path fill="rgb(40,191,132)" fill-opacity="1" d=" M203.593994140625,-30.56100082397461 C203.593994140625,-11.883999824523926 196.6540069580078,3.25600004196167 188.093994140625,3.25600004196167 C179.53399658203125,3.25600004196167 172.593994140625,-11.883999824523926 172.593994140625,-30.56100082397461 C172.593994140625,-30.56100082397461 172.593994140625,-30.56100082397461 172.593994140625,-30.56100082397461"/></g></g></g><g style="display: block;" transform="matrix(0.9599999785423279,0,0,0.9599999785423279,10.196044921875,41.009002685546875)" opacity="1"><g opacity="1" transform="matrix(1,0,0,1,0,-8.5)"><g opacity="1" transform="matrix(1,0,0,1,254.906005859375,355.3789978027344)"><g opacity="1" transform="matrix(1,0,0,1,0,0)"><path fill="url(#__lottie_element_44821)" fill-opacity="1" d=" M203.593994140625,-30.56100082397461 C203.593994140625,-11.883999824523926 196.6540069580078,3.25600004196167 188.093994140625,3.25600004196167 C179.53399658203125,3.25600004196167 172.593994140625,-11.883999824523926 172.593994140625,-30.56100082397461 C172.593994140625,-49.237998962402344 179.53399658203125,-64.37899780273438 188.093994140625,-64.37899780273438 C196.6540069580078,-64.37899780273438 203.593994140625,-49.237998962402344 203.593994140625,-30.56100082397461z"/></g></g><g opacity="0.6" transform="matrix(1,0,0,1,254.906005859375,335.4159851074219)"><g opacity="1" transform="matrix(1,0,0,1,0,0)"><path fill="rgb(255,255,255)" fill-opacity="1" d=" M198.66099548339844,-23.832000732421875 C198.66099548339844,-14.713000297546387 197.01100158691406,-30.691999435424805 188.093994140625,-30.691999435424805 C179.3979949951172,-30.691999435424805 177.52699279785156,-14.713000297546387 177.52699279785156,-23.832000732421875 C177.52699279785156,-32.95100021362305 182.25799560546875,-40.34299850463867 188.093994140625,-40.34299850463867 C193.92999267578125,-40.34299850463867 198.66099548339844,-32.95100021362305 198.66099548339844,-23.832000732421875z"/></g></g></g><g opacity="1" transform="matrix(1,0,0,1,254.906005859375,346.8789978027344)"><g opacity="1" transform="matrix(1,0,0,1,0,0)"><path stroke-linecap="round" stroke-linejoin="round" fill-opacity="0" stroke="rgb(0,124,91)" stroke-opacity="1" stroke-width="8" d=" M203.593994140625,-30.56100082397461 C203.593994140625,-11.883999824523926 196.6540069580078,3.25600004196167 188.093994140625,3.25600004196167 C179.53399658203125,3.25600004196167 172.593994140625,-11.883999824523926 172.593994140625,-30.56100082397461 C172.593994140625,-49.237998962402344 179.53399658203125,-64.37899780273438 188.093994140625,-64.37899780273438 C196.6540069580078,-64.37899780273438 203.593994140625,-49.237998962402344 203.593994140625,-30.56100082397461z"/></g></g><g opacity="1" transform="matrix(1,0,0,1,254.906005859375,346.8789978027344)"><g opacity="1" transform="matrix(1,0,0,1,0,0)"><path stroke-linecap="round" stroke-linejoin="round" fill-opacity="0" stroke="rgb(0,84,68)" stroke-opacity="1" stroke-width="8" d=" M203.593994140625,-30.56100082397461 C203.593994140625,-11.883999824523926 196.6540069580078,3.25600004196167 188.093994140625,3.25600004196167 C179.53399658203125,3.25600004196167 172.593994140625,-11.883999824523926 172.593994140625,-30.56100082397461 C172.593994140625,-30.56100082397461 172.593994140625,-30.56100082397461 172.593994140625,-30.56100082397461"/></g></g></g></g></svg>