<svg xmlns="http://www.w3.org/2000/svg" xmlns:xlink="http://www.w3.org/1999/xlink" viewBox="0 0 512 512" width="512" height="512" style="width: 100%; height: 100%; transform: translate3d(0,0,0);" preserveAspectRatio="xMidYMid meet"><defs><clipPath id="__lottie_element_5135"><rect width="512" height="512" x="0" y="0"/></clipPath><linearGradient id="__lottie_element_5155" spreadMethod="pad" gradientUnits="userSpaceOnUse" x1="-0.4180000126361847" y1="-17.968000411987305" x2="6.39900016784668" y2="-13.329999923706055"><stop offset="0%" stop-color="rgb(132,130,124)" stop-opacity="1"/><stop offset="50%" stop-color="rgb(132,130,124)" stop-opacity="0.5"/><stop offset="100%" stop-color="rgb(132,130,124)" stop-opacity="0"/></linearGradient></defs><g clip-path="url(#__lottie_element_5135)"><g style="display: block;" transform="matrix(1.0469999313354492,0,0,1.0469999313354492,376.22235107421875,313.7886962890625)" opacity="1"><g opacity="1" transform="matrix(1,0,0,1,0,0)"><path fill="rgb(252,206,44)" fill-opacity="1" d=" M25.1560001373291,-57.65800094604492 C40.86199951171875,-53.43299865722656 49.16899871826172,-53.01499938964844 68.76799774169922,-52.61899948120117 C83.57099914550781,-51.452999114990234 85.83300018310547,-21.89900016784668 83.32499694824219,17.48200035095215 C81.4540023803711,46.858001708984375 74.01100158691406,84.20899963378906 62.12200164794922,83.14600372314453 C35.95199966430664,80.80500030517578 15.954999923706055,81.23200225830078 4.770999908447266,82.08200073242188 C-30.059999465942383,84.72899627685547 -83.78500366210938,126.75499725341797 -161.80499267578125,59.2859992980957 C-193.3679962158203,31.992000579833984 -138.58999633789062,-84.20500183105469 -85.28099822998047,-96.69599914550781 C-50.58100128173828,-89.83999633789062 3.2279999256134033,-64.50299835205078 25.1560001373291,-57.65800094604492z"/></g><g opacity="0.93" transform="matrix(1,0,0,1,0,0)"><path fill="rgb(240,146,1)" fill-opacity="1" d=" M-12.602999687194824,85.54100036621094 C-47.10599899291992,95.04299926757812 -95.74700164794922,116.41000366210938 -161.80499267578125,59.2859992980957 C-173.0590057373047,49.55400085449219 -173.33599853515625,28.520999908447266 -166.6179962158203,4.915999889373779 C-157.6909942626953,-26.450000762939453 -62.930999755859375,29.746999740600586 -18.038999557495117,61.90599822998047 C-1.9609999656677246,73.42400360107422 -6.355000019073486,83.81999969482422 -12.602999687194824,85.54100036621094z"/></g><g opacity="1" transform="matrix(1,0,0,1,0,0)"><path fill="rgb(240,146,1)" fill-opacity="1" d=" M-188.36900329589844,-93.8759994506836 C-234.35400390625,-122.9010009765625 -271.65301513671875,-23.732999801635742 -247.77499389648438,-9.406000137329102 C-230.92599487304688,0.7039999961853027 -152.1739959716797,-71.02999877929688 -188.36900329589844,-93.8759994506836z"/></g></g><g style="display: block;" transform="matrix(1.0469999313354492,0,0,1.0469999313354492,229.9732208251953,269.6785888671875)" opacity="1"><g opacity="1" transform="matrix(1,0,0,1,0,0)"><path fill="rgb(252,206,44)" fill-opacity="1" d=" M164.11399841308594,-15.75 C133.406005859375,-22.94700050354004 105.92500305175781,-43.02000045776367 75.12000274658203,-60.194000244140625 C40.17100143432617,-79.67900085449219 21.573999404907227,-89.33499908447266 7.289000034332275,-96.98200225830078 C-10.659000396728516,-106.58999633789062 -25.80699920654297,-107.77300262451172 -38.19900131225586,-104.87999725341797 C-46.30799865722656,-102.98600006103516 -53.23699951171875,-99.34700012207031 -58.99599838256836,-95.18199920654297 C-112.08399963378906,-56.79100036621094 -155.2740020751953,-52.891998291015625 -157.0019989013672,-17.632999420166016 C-159.48899841308594,33.10300064086914 -162.46600341796875,46.32500076293945 -164.072998046875,82 C-165.6490020751953,116.99800109863281 -120.91500091552734,111.38999938964844 -115.38300323486328,82.677001953125 C-109.08499908447266,49.98400115966797 -100.98600006103516,26.59000015258789 -93.18800354003906,-5.802999973297119 C-79.38500213623047,-10.255999565124512 -71.29299926757812,-15.10099983215332 -54.797000885009766,-24.698999404907227"/></g></g><g style="display: block;" transform="matrix(1.0469999313354492,0,0,1.0469999313354492,261.7465515136719,247.8601531982422)" opacity="1"><g opacity="1" transform="matrix(1,0,0,1,0,0)"><path fill="rgb(255,215,93)" fill-opacity="1" d=" M167.97500610351562,25.917999267578125 C179.5749969482422,21.965999603271484 186.95399475097656,29.283000946044922 191.1199951171875,64.83399963378906 C192.2209930419922,30.634000778198242 192.55599975585938,9.20300006866455 175.30299377441406,10.083999633789062 C158.0489959716797,10.965999603271484 133.76699829101562,5.089000225067139 133.76699829101562,5.089000225067139 C103.05899810791016,-2.1080000400543213 75.5780029296875,-22.180999755859375 44.77299880981445,-39.35499954223633 C9.824000358581543,-58.84000015258789 -8.77299976348877,-68.49600219726562 -23.058000564575195,-76.14299774169922 C-41.00600051879883,-85.7509994506836 -56.15399932861328,-86.93399810791016 -68.5459976196289,-84.04100036621094 C-76.65499877929688,-82.14700317382812 -83.58399963378906,-78.50800323486328 -89.34300231933594,-74.34300231933594 C-142.43099975585938,-35.95199966430664 -188.10899353027344,-26.200000762939453 -187.3489990234375,3.2060000896453857 C-186.48800659179688,36.54199981689453 -189.10899353027344,57.79999923706055 -191.52099609375,85.427001953125 C-183.25100708007812,56.92100143432617 -180.2469940185547,15.61299991607666 -173.92599487304688,-3.1410000324249268 C-167.11900329589844,-23.336999893188477 -118.33999633789062,-39.439998626708984 -78.56400299072266,-67.66899871826172 C-52.86800003051758,-85.90499877929688 -5.4730000495910645,-55.35599899291992 44.555999755859375,-27.423999786376953 C102.947998046875,5.177999973297119 103.9219970703125,6.4770002365112305 125.03199768066406,22.06599998474121 C138.20599365234375,31.795000076293945 157.8820037841797,29.357999801635742 167.97500610351562,25.917999267578125z"/></g></g><g style="display: block;" transform="matrix(1.0469999313354492,0,0,1.0469999313354492,166.9720916748047,279.322509765625)" opacity="1"><g opacity="0.5" transform="matrix(1,0,0,1,0,0)"><path fill="rgb(240,146,1)" fill-opacity="1" d=" M54.64099884033203,-43.72800064086914 C61.332000732421875,-46.21200180053711 38.85300064086914,-64.33499908447266 18.1299991607666,-54.823001861572266 C-16.860000610351562,-36.81800079345703 -46.612998962402344,-38.755001068115234 -50.03799819946289,-19.367000579833984 C-52.26599884033203,-6.755000114440918 -56.56399917602539,24.524999618530273 -69.14099884033203,37.72800064086914 C-76.3479995727539,45.29399871826172 -82.59100341796875,47.20899963378906 -88.78299713134766,60.06999969482422 C-93.88600158691406,70.66899871826172 -91.66400146484375,87.8010025024414 -102.4489974975586,81.6729965209961 C-92.47799682617188,107.8489990234375 -63.724998474121094,106.79399871826172 -55.209999084472656,73.46600341796875 C-46.96900177001953,41.20800018310547 -40.8129997253418,17.378999710083008 -33.01499938964844,-15.013999938964844 C-19.211999893188477,-19.466999053955078 50.98099899291992,-42.36899948120117 54.64099884033203,-43.72800064086914z"/></g><g opacity="0.2" transform="matrix(1,0,0,1,0,0)"><path fill="rgb(240,146,1)" fill-opacity="1" d=" M54.64099884033203,-43.72800064086914 C61.332000732421875,-46.21200180053711 38.375,-69.58799743652344 17.652000427246094,-60.07600021362305 C-17.881999969482422,-42.33300018310547 -50.35499954223633,-42.81100082397461 -54.8129997253418,-20.56100082397461 C-57.37099838256836,-7.794000148773193 -59.189998626708984,21.65999984741211 -71.40899658203125,35.459999084472656 C-81.31700134277344,46.650001525878906 -85.21700286865234,49.47700119018555 -89.97699737548828,59.59199905395508 C-94.98500061035156,70.23600006103516 -93.2760009765625,85.35299682617188 -102.4489974975586,81.6729965209961 C-92.47799682617188,107.8489990234375 -63.724998474121094,106.79399871826172 -55.209999084472656,73.46600341796875 C-46.96900177001953,41.20800018310547 -40.8129997253418,17.378999710083008 -33.01499938964844,-15.013999938964844 C-19.211999893188477,-19.466999053955078 50.98099899291992,-42.36899948120117 54.64099884033203,-43.72800064086914z"/></g><g opacity="0.2" transform="matrix(1,0,0,1,0,0)"><path fill="rgb(240,146,1)" fill-opacity="1" d=" M54.64099884033203,-43.72800064086914 C61.332000732421875,-46.21200180053711 38.375,-74.84100341796875 17.652000427246094,-65.3290023803711 C-17.33799934387207,-47.32400131225586 -54.415000915527344,-45.198001861572266 -58.87300109863281,-22.947999954223633 C-61.430999755859375,-10.180999755859375 -62.83300018310547,18.827999114990234 -74.03600311279297,34.505001068115234 C-82.72599792480469,46.665000915527344 -84.26200103759766,43.86600112915039 -91.3499984741211,58.518001556396484 C-96.47200012207031,69.10700225830078 -93.33499908447266,82.5479965209961 -102.4489974975586,81.6729965209961 C-92.47799682617188,107.8489990234375 -63.724998474121094,106.79399871826172 -55.209999084472656,73.46600341796875 C-46.96900177001953,41.20800018310547 -40.8129997253418,17.378999710083008 -33.01499938964844,-15.013999938964844 C-19.211999893188477,-19.466999053955078 50.98099899291992,-42.36899948120117 54.64099884033203,-43.72800064086914z"/></g><g opacity="0.1" transform="matrix(1,0,0,1,0,0)"><path fill="rgb(240,146,1)" fill-opacity="1" d=" M54.64099884033203,-43.72800064086914 C61.332000732421875,-46.21200180053711 50.64699935913086,-84.83499908447266 17.652000427246094,-70.82099914550781 C-17.40399932861328,-53.316001892089844 -56.98699951171875,-48.768001556396484 -62.93199920654297,-26.768999099731445 C-66.33000183105469,-14.199000358581543 -64.74299621582031,17.395000457763672 -75.94599914550781,33.071998596191406 C-84.63600158691406,45.231998443603516 -85.14199829101562,42.23500061035156 -92.7229995727539,57.5629997253418 C-97.93800354003906,68.10700225830078 -94.29000091552734,79.08499908447266 -102.4489974975586,81.6729965209961 C-92.47799682617188,107.8489990234375 -63.724998474121094,106.79399871826172 -55.209999084472656,73.46600341796875 C-46.96900177001953,41.20800018310547 -40.8129997253418,17.378999710083008 -33.01499938964844,-15.013999938964844 C-19.211999893188477,-19.466999053955078 50.98099899291992,-42.36899948120117 54.64099884033203,-43.72800064086914z"/></g></g><g style="display: block;" transform="matrix(1.0469999313354492,0,0,1.0469999313354492,166.9720916748047,279.322509765625)" opacity="1"><g opacity="0.5" transform="matrix(1,0,0,1,0,0)"><path fill="rgb(240,146,1)" fill-opacity="1" d=" M64.43099975585938,-46.35499954223633 C71.12200164794922,-48.8390007019043 82.89299774169922,-73.53700256347656 102.4489974975586,-88.18099975585938 C91.6780014038086,-93.71900177001953 85.9520034790039,-96.5780029296875 79.04199981689453,-100.01899719238281 C36.98699951171875,-65.33200073242188 9.211000442504883,-38 5.375999927520752,-33.90999984741211 C4.8480000495910645,-26.06399917602539 13.6899995803833,-19.242000579833984 24.229999542236328,-22.445999145507812 C41.81100082397461,-27.790000915527344 60.770999908447266,-44.99599838256836 64.43099975585938,-46.35499954223633z"/></g><g opacity="0.3" transform="matrix(1.0820000171661377,0,0,0.9520000219345093,-4.706138610839844,-2.2235031127929688)"><path fill="rgb(240,146,1)" fill-opacity="1" d=" M64.43099975585938,-46.35499954223633 C71.12200164794922,-48.8390007019043 82.89299774169922,-73.53700256347656 102.4489974975586,-88.18099975585938 C91.6780014038086,-93.71900177001953 85.9520034790039,-96.5780029296875 79.04199981689453,-100.01899719238281 C36.98699951171875,-65.33200073242188 13.6899995803833,-19.242000579833984 24.229999542236328,-22.445999145507812 C41.81100082397461,-27.790000915527344 60.770999908447266,-44.99599838256836 64.43099975585938,-46.35499954223633z"/></g><g opacity="0.2" transform="matrix(1.2070000171661377,0,0,0.9309999942779541,-12.794769287109375,-3.1962890625)"><path fill="rgb(240,146,1)" fill-opacity="1" d=" M64.43099975585938,-46.35499954223633 C71.12200164794922,-48.8390007019043 82.89299774169922,-73.53700256347656 102.4489974975586,-88.18099975585938 C91.6780014038086,-93.71900177001953 85.9520034790039,-96.5780029296875 79.04199981689453,-100.01899719238281 C36.98699951171875,-65.33200073242188 13.6899995803833,-19.242000579833984 24.229999542236328,-22.445999145507812 C41.81100082397461,-27.790000915527344 60.770999908447266,-44.99599838256836 64.43099975585938,-46.35499954223633z"/></g></g><g style="display: block;" transform="matrix(1.0469999313354492,0,0,1.0469999313354492,229.9732208251953,269.6785888671875)" opacity="1"><g opacity="1" transform="matrix(1,0,0,1,0,0)"><path stroke-linecap="round" stroke-linejoin="round" fill-opacity="0" stroke="rgb(225,124,0)" stroke-opacity="1" stroke-width="8" d=" M164.11399841308594,-15.75 C133.406005859375,-22.94700050354004 105.92500305175781,-43.02000045776367 75.12000274658203,-60.194000244140625 C40.17100143432617,-79.67900085449219 21.573999404907227,-89.33499908447266 7.289000034332275,-96.98200225830078 C-10.659000396728516,-106.58999633789062 -25.80699920654297,-107.77300262451172 -38.19900131225586,-104.87999725341797 C-46.30799865722656,-102.98600006103516 -53.23699951171875,-99.34700012207031 -58.99599838256836,-95.18199920654297 C-112.08399963378906,-56.79100036621094 -155.2740020751953,-52.891998291015625 -157.0019989013672,-17.632999420166016 C-159.48899841308594,33.10300064086914 -162.46600341796875,46.32500076293945 -164.072998046875,82 C-165.6490020751953,116.99800109863281 -120.91500091552734,111.38999938964844 -115.38300323486328,82.677001953125 C-109.08499908447266,49.98400115966797 -100.98600006103516,26.59000015258789 -93.18800354003906,-5.802999973297119 C-79.38500213623047,-10.255999565124512 -71.29299926757812,-15.10099983215332 -54.797000885009766,-24.698999404907227"/></g></g><g style="display: block;" transform="matrix(1.0469999313354492,0,0,1.0469999313354492,224.53404235839844,384.1575622558594)" opacity="1"><g opacity="1" transform="matrix(1,0,0,1,0,0)"><path fill="rgb(252,206,44)" fill-opacity="1" d=" M-64.74299621582031,-16.81999969482422 C-36.266998291015625,17.371000289916992 -11.307999610900879,25.229000091552734 -2.1429998874664307,27.19300079345703 C7.020999908447266,29.156999588012695 26.277999877929688,31.447999954223633 28.490999221801758,16.9060001373291 C30.608999252319336,2.986999988555908 12.942000389099121,-2.818000078201294 -0.1720000058412552,-7.947000026702881 C-10.605999946594238,-12.027999877929688 -17.406999588012695,-16.138999938964844 -28.663999557495117,-28.641000747680664"/><path fill="rgb(240,146,1)" fill-opacity="1" d=" M-64.74299621582031,-16.81999969482422 C-36.266998291015625,17.371000289916992 -11.307999610900879,25.229000091552734 -2.1429998874664307,27.19300079345703 C7.020999908447266,29.156999588012695 26.277999877929688,31.447999954223633 28.490999221801758,16.9060001373291 C30.608999252319336,2.986999988555908 12.942000389099121,-2.818000078201294 -0.1720000058412552,-7.947000026702881 C-10.605999946594238,-12.027999877929688 -17.406999588012695,-16.138999938964844 -28.663999557495117,-28.641000747680664"/></g><g opacity="0.25" transform="matrix(1,0,0,1,0,0)"><path fill="rgb(252,206,44)" fill-opacity="1" d=" M-27.85099983215332,-7.074999809265137 C-21.64299964904785,4.863999843597412 -13.170000076293945,12.0649995803833 1.399999976158142,16.086999893188477 C24.322999954223633,22.415000915527344 27.077999114990234,10.967000007629395 21.457000732421875,5.579999923706055 C15.72599983215332,0.08799999952316284 -1.8240000009536743,-7.193999767303467 -11.619000434875488,-9.392000198364258 C-22.395999908447266,-11.8100004196167 -29.958999633789062,-11.128999710083008 -27.85099983215332,-7.074999809265137z"/></g><g opacity="0.3" transform="matrix(1,0,0,1,0,0)"><path fill="rgb(252,206,44)" fill-opacity="1" d=" M-18.06100082397461,-1.8220000267028809 C-14.906999588012695,5.48199987411499 -5.4019999504089355,10.34000015258789 1.0410000085830688,12.027000427246094 C11.069999694824219,14.654000282287598 23.844999313354492,13.340999603271484 19.547000885009766,7.610000133514404 C11.71399974822998,-2.8329999446868896 -20.32900047302246,-7.074999809265137 -18.06100082397461,-1.8220000267028809z"/></g><g opacity="1" transform="matrix(1,0,0,1,0,0)"><path stroke-linecap="round" stroke-linejoin="round" fill-opacity="0" stroke="rgb(225,124,0)" stroke-opacity="1" stroke-width="8" d=" M-64.74299621582031,-16.81999969482422 C-36.266998291015625,17.371000289916992 -11.307999610900879,25.229000091552734 -2.1429998874664307,27.19300079345703 C7.020999908447266,29.156999588012695 26.277999877929688,31.447999954223633 28.490999221801758,16.9060001373291 C30.608999252319336,2.986999988555908 12.942000389099121,-2.818000078201294 -0.1720000058412552,-7.947000026702881 C-10.605999946594238,-12.027999877929688 -17.406999588012695,-16.138999938964844 -28.663999557495117,-28.641000747680664"/></g></g><g style="display: block;" transform="matrix(1.0469999313354492,0,0,1.0469999313354492,176.10508728027344,389.14862060546875)" opacity="1"><g opacity="1" transform="matrix(1,0,0,1,0,0)"><path fill="rgb(252,206,44)" fill-opacity="1" d=" M-42.14500045776367,-27.871000289916992 C-30.46500015258789,-5.9679999351501465 -20.00200080871582,10.043000221252441 -11.461999893188477,18.302000045776367 C0.7509999871253967,30.113000869750977 10.053000450134277,30.672000885009766 17.29800033569336,27.700000762939453 C24.426000595092773,24.774999618530273 25.503000259399414,12.920000076293945 20.770999908447266,5.400000095367432 C15.51099967956543,-2.9570000171661377 4.270999908447266,-15.649999618530273 -3.437000036239624,-29.215999603271484"/><path fill="rgb(240,146,1)" fill-opacity="1" d=" M-42.14500045776367,-27.871000289916992 C-30.46500015258789,-5.9679999351501465 -20.00200080871582,10.043000221252441 -11.461999893188477,18.302000045776367 C0.7509999871253967,30.113000869750977 10.053000450134277,30.672000885009766 17.29800033569336,27.700000762939453 C24.426000595092773,24.774999618530273 25.503000259399414,12.920000076293945 20.770999908447266,5.400000095367432 C15.51099967956543,-2.9570000171661377 4.270999908447266,-15.649999618530273 -3.437000036239624,-29.215999603271484"/></g><g opacity="0.25" transform="matrix(1,0,0,1,0,0)"><path fill="rgb(252,206,44)" fill-opacity="1" d=" M-5.285999774932861,-7.552000045776367 C-7.539999961853027,-2.302999973297119 -9.293000221252441,11.201000213623047 1.399999976158142,16.086999893188477 C17.191999435424805,23.30299949645996 24.360000610351562,13.036999702453613 20.26300048828125,6.415999889373779 C17.090999603271484,1.2910000085830688 13.51200008392334,-4.613999843597412 4.499000072479248,-9.034000396728516 C1.4509999752044678,-10.529000282287598 -3.444000005722046,-11.840999603271484 -5.285999774932861,-7.552000045776367z"/></g><g opacity="0.3" transform="matrix(1,0,0,1,0,0)"><path fill="rgb(252,206,44)" fill-opacity="1" d=" M1.0420000553131104,-3.134999990463257 C-1.7719999551773071,0.6940000057220459 -3.3239998817443848,7.85699987411499 0.921999990940094,11.907999992370605 C8.42300033569336,19.06399917602539 22.790000915527344,13.684000015258789 19.18899917602539,7.491000175476074 C13.98799991607666,-1.4550000429153442 4.429999828338623,-7.745999813079834 1.0420000553131104,-3.134999990463257z"/></g><g opacity="1" transform="matrix(1,0,0,1,0,0)"><path stroke-linecap="round" stroke-linejoin="round" fill-opacity="0" stroke="rgb(225,124,0)" stroke-opacity="1" stroke-width="8" d=" M-42.14500045776367,-27.871000289916992 C-30.46500015258789,-5.9679999351501465 -20.00200080871582,10.043000221252441 -11.461999893188477,18.302000045776367 C0.7509999871253967,30.113000869750977 10.053000450134277,30.672000885009766 17.29800033569336,27.700000762939453 C24.426000595092773,24.774999618530273 25.503000259399414,12.920000076293945 20.770999908447266,5.400000095367432 C15.51099967956543,-2.9570000171661377 4.270999908447266,-15.649999618530273 -3.437000036239624,-29.215999603271484"/></g></g><g style="display: block;" transform="matrix(1.0469999313354492,0,0,1.0469999313354492,135.14537048339844,395.61383056640625)" opacity="1"><g opacity="1" transform="matrix(1,0,0,1,0,0)"><path fill="rgb(252,206,44)" fill-opacity="1" d=" M-23.724000930786133,-27.027999877929688 C-23.64299964904785,-26.583999633789062 -14.9350004196167,1.8860000371932983 -13.333000183105469,5.15500020980835 C-6.552999973297119,18.986000061035156 2.364000082015991,21.788999557495117 9.07800006866455,20.42799949645996 C19.072999954223633,18.402000427246094 19.291000366210938,8.225000381469727 16.334999084472656,-2.242000102996826 C12.359000205993652,-16.320999145507812 2.7339999675750732,-32.3849983215332 2.5439999103546143,-32.698001861572266"/><path fill="rgb(240,146,1)" fill-opacity="1" d=" M-23.724000930786133,-27.027999877929688 C-23.64299964904785,-26.583999633789062 -14.9350004196167,1.8860000371932983 -13.333000183105469,5.15500020980835 C-6.552999973297119,18.986000061035156 2.364000082015991,21.788999557495117 9.07800006866455,20.42799949645996 C19.072999954223633,18.402000427246094 19.291000366210938,8.225000381469727 16.334999084472656,-2.242000102996826 C12.359000205993652,-16.320999145507812 2.7339999675750732,-32.3849983215332 2.5439999103546143,-32.698001861572266"/><path stroke-linecap="round" stroke-linejoin="round" fill-opacity="0" stroke="rgb(225,124,0)" stroke-opacity="1" stroke-width="8" d=" M-23.724000930786133,-27.027999877929688 C-23.64299964904785,-26.583999633789062 -14.9350004196167,1.8860000371932983 -13.333000183105469,5.15500020980835 C-6.552999973297119,18.986000061035156 2.364000082015991,21.788999557495117 9.07800006866455,20.42799949645996 C19.072999954223633,18.402000427246094 19.291000366210938,8.225000381469727 16.334999084472656,-2.242000102996826 C12.359000205993652,-16.320999145507812 2.7339999675750732,-32.3849983215332 2.5439999103546143,-32.698001861572266"/></g><g opacity="0.25" transform="matrix(1,0,0,1,0,0)"><path fill="rgb(252,206,44)" fill-opacity="0.7000000000000001" d=" M3.6679999828338623,-2.6579999923706055 C-1.6920000314712524,-1.781000018119812 -0.2919999957084656,2.0980000495910645 1.6380000114440918,5.3420000076293945 C3.509000062942505,8.48799991607666 12.444999694824219,9.11400032043457 11.309000015258789,2.7149999141693115 C10.553999900817871,-1.5410000085830688 9.404999732971191,-3.5969998836517334 3.6679999828338623,-2.6579999923706055z"/></g></g><g style="display: block;" transform="matrix(1.0469999313354492,0,0,1.0469999313354492,-16.031982421875,-7.031982421875)" opacity="1"><g opacity="1" transform="matrix(1,0,0,1,194.99099731445312,245.33900451660156)"><path fill="rgb(53,53,53)" fill-opacity="1" d=" M-137.9340057373047,192.99899291992188 C-137.9340057373047,192.99899291992188 -118.02799987792969,128.4929962158203 -118.02799987792969,128.4929962158203 C-118.02799987792969,128.4929962158203 105.47599792480469,-192.68299865722656 105.47599792480469,-192.68299865722656 C105.47599792480469,-192.68299865722656 107.72000122070312,-195.57699584960938 124.14600372314453,-183.8470001220703 C139.26400756835938,-173.0500030517578 137.9029998779297,-168.91099548339844 137.9029998779297,-168.91099548339844 C137.9029998779297,-168.91099548339844 -83.83200073242188,150.08700561523438 -83.83200073242188,150.08700561523438 C-83.83200073242188,150.08700561523438 -137.9340057373047,192.99899291992188 -137.9340057373047,192.99899291992188z"/></g><g opacity="1" transform="matrix(1,0,0,1,188.93800354003906,245.4969940185547)"><path fill="url(#__lottie_element_5155)" fill-opacity="1" d=" M-131.8820037841797,192.84100341796875 C-131.8820037841797,192.84100341796875 -111.9749984741211,128.3350067138672 -111.9749984741211,128.3350067138672 C-111.9749984741211,128.3350067138672 111.52899932861328,-192.84100341796875 111.52899932861328,-192.84100341796875 C111.52899932861328,-192.84100341796875 125.38700103759766,-185.2480010986328 132.0070037841797,-179.0260009765625 C127.02300262451172,-181.61099243164062 145.08099365234375,-169.3939971923828 142.28799438476562,-165.51499938964844 C141.1719970703125,-163.96600341796875 138.5279998779297,-160.3939971923828 138.5279998779297,-160.3939971923828 C138.5279998779297,-160.3939971923828 -78.12300109863281,150.24400329589844 -78.12300109863281,150.24400329589844 C-78.12300109863281,150.24400329589844 -131.8820037841797,192.84100341796875 -131.8820037841797,192.84100341796875z"/></g><g opacity="1" transform="matrix(0.8480480909347534,0.5299192667007446,-0.5299192667007446,0.8480480909347534,307.3970031738281,85.85199737548828)"><path fill="rgb(122,120,115)" fill-opacity="1" d=" M-4.0920000076293945,-25.628000259399414 C6.021999835968018,-25.628000259399414 16.035999298095703,-23.101999282836914 15.718000411987305,-21.371999740600586 C15.456000328063965,-19.947999954223633 5.810999870300293,-23.663000106811523 -4.302999973297119,-23.663000106811523 C-14.416999816894531,-23.663000106811523 -24.042999267578125,-22.535999298095703 -23.79599952697754,-23.399999618530273 C-23.389999389648438,-25.506000518798828 -14.206000328063965,-25.628000259399414 -4.0920000076293945,-25.628000259399414z"/></g><g opacity="1" transform="matrix(1,0,0,1,194.99099731445312,245.33900451660156)"><path stroke-linecap="round" stroke-linejoin="round" fill-opacity="0" stroke="rgb(37,37,37)" stroke-opacity="1" stroke-width="6" d=" M-137.9340057373047,192.99899291992188 C-137.9340057373047,192.99899291992188 -118.02799987792969,128.4929962158203 -118.02799987792969,128.4929962158203 C-118.02799987792969,128.4929962158203 105.47599792480469,-192.68299865722656 105.47599792480469,-192.68299865722656 C105.47599792480469,-192.68299865722656 107.72000122070312,-195.57699584960938 124.14600372314453,-183.8470001220703 C139.26400756835938,-173.0500030517578 137.9029998779297,-168.91099548339844 137.9029998779297,-168.91099548339844 C137.9029998779297,-168.91099548339844 -83.83200073242188,150.08700561523438 -83.83200073242188,150.08700561523438 C-83.83200073242188,150.08700561523438 -137.9340057373047,192.99899291992188 -137.9340057373047,192.99899291992188z"/></g><g opacity="1" transform="matrix(1,0,0,1,0,0)"><path fill="rgb(45,45,45)" fill-opacity="0.5" d=" M91.12200164794922,356.68701171875 C91.125,360.06201171875 93.18699645996094,368.18798828125 93.19999694824219,370.31298828125 C96.125,373.625 101.375,378.125 103.80799865722656,379.1969909667969 C106.875,381.125 112.5,385.625 114.43099975585938,390.6199951171875 C117.25,387 134.5,361.56298828125 134.5,361.56298828125 C134.5,361.56298828125 112.7770004272461,343.1189880371094 99.13099670410156,343.2720031738281 C95.5,347.875 92.50199890136719,354.4460144042969 91.12200164794922,356.68701171875z"/></g></g><g style="display: block;" transform="matrix(1.0469999313354492,0,0,1.0469999313354492,-16.031982421875,-7.031982421875)" opacity="1"><g opacity="1" transform="matrix(1,0,0,1,234.11599731445312,303.60101318359375)"><path fill="rgb(252,206,44)" fill-opacity="1" d=" M2.9690001010894775,-74.12300109863281 C-21.615999221801758,-46.97600173950195 -51.097999572753906,-49.22100067138672 -76.72100067138672,-27.663000106811523 C-92.1760025024414,-14.659000396728516 -90.15499877929688,-12.682000160217285 -130.78500366210938,20.490999221801758 C-159.78399658203125,44.16899871826172 -128.55499267578125,76.34300231933594 -97.4010009765625,64.23799896240234 C-65.38200378417969,51.79800033569336 -48.11000061035156,34.8120002746582 -5.39300012588501,36.71900177001953 C28.22100067138672,38.220001220703125 31.72599983215332,66.77400207519531 68.79299926757812,75.63700103759766 C98.25800323486328,82.68299865722656 117.89600372314453,77.13300323486328 142.302001953125,65.31999969482422"/></g><g opacity="1" transform="matrix(1,0,0,1,180.3090057373047,294.7439880371094)"><path fill="rgb(255,215,93)" fill-opacity="1" d=" M59.150001525878906,-66.33200073242188 C37.691001892089844,-42.99399948120117 2.7100000381469727,-40.36399841308594 -22.913000106811523,-18.805999755859375 C-38.36800003051758,-5.802000045776367 -55.520999908447266,12.623000144958496 -76.97799682617188,29.347999572753906 C-94.21099853515625,42.78099822998047 -98.77100372314453,72.9489974975586 -54.882999420166016,70.71499633789062 C-77.38500213623047,59.2239990234375 -83.52999877929688,48.75299835205078 -59.82400131225586,32.611000061035156 C-42.79999923706055,21.018999099731445 -28.33099937438965,4.9770002365112305 -11.519000053405762,-8.585000038146973 C3.802000045776367,-20.94300079345703 11.251999855041504,-19.392000198364258 45.37200164794922,-30.788999557495117 C130.73300170898438,-59.303001403808594 60.691001892089844,-67.24400329589844 59.150001525878906,-66.33200073242188z"/></g><g opacity="0.8" transform="matrix(1,0,0,1,253.38699340820312,351.7539978027344)"><path fill="rgb(240,146,1)" fill-opacity="1" d=" M95.21399688720703,28.628999710083008 C98.58000183105469,27.871000289916992 124.86799621582031,26.5 107.4990005493164,41.9630012512207 C133.22500610351562,32.946998596191406 164.281005859375,36.74300003051758 183.61300659179688,37.52899932861328 C185.07699584960938,37.5890007019043 186.8350067138672,35.8849983215332 188.66200256347656,33.09400177001953 C190.343994140625,30.524999618530273 193.15699768066406,22.91900062561035 196.33599853515625,15.508999824523926 C148.98300170898438,-7.644999980926514 148.0290069580078,1.4290000200271606 95.21399688720703,28.628999710083008z"/></g><g opacity="0.55" transform="matrix(1,0,0,1,253.38699340820312,351.7539978027344)"><path fill="rgb(240,146,1)" fill-opacity="1" d=" M157.67799377441406,-7.561999797821045 C133.46299743652344,-8.598999977111816 119.63099670410156,8.682999610900879 88.9520034790039,8.437999725341797 C48.45800018310547,8.114999771118164 31.118999481201172,0.1809999942779541 9.039999961853027,-15.418000221252441 C-3.953000068664551,-24.597000122070312 -22.100000381469727,-29.37299919128418 -41.279998779296875,-27.493000030517578 C-50.75,-26.565000534057617 -62.59299850463867,-24.488000869750977 -73.6259994506836,-20.304000854492188 C-84.52899932861328,-16.16900062561035 -96.24700164794922,-9.920000076293945 -110.30799865722656,-2.109999895095825 C-126.56600189208984,6.921000003814697 -154.26300048828125,16.948999404907227 -160.11900329589844,-3.7170000076293945 C-156.90499877929688,20.989999771118164 -133.56199645996094,22.648000717163086 -116.6719970703125,16.084999084472656 C-84.65299987792969,3.6449999809265137 -67.38099670410156,-13.340999603271484 -24.663999557495117,-11.434000015258789 C8.949999809265137,-9.932999610900879 12.258999824523926,19.48200035095215 49.52199935913086,27.483999252319336 C74.96199798583984,32.946998596191406 84.51399993896484,31.03700065612793 95.21399688720703,28.628999710083008 C98.58000183105469,27.871000289916992 124.86799621582031,26.5 107.4990005493164,41.9630012512207 C133.22500610351562,32.946998596191406 164.281005859375,36.74300003051758 183.61300659179688,37.52899932861328 C188.3820037841797,37.722999572753906 196.26199340820312,19.216999053955078 199.52099609375,5.349999904632568 C182.05499267578125,0.23499999940395355 170.7969970703125,-7 157.67799377441406,-7.561999797821045z"/></g><g opacity="0.3" transform="matrix(1,0,0,1,253.38699340820312,351.7539978027344)"><path fill="rgb(240,146,1)" fill-opacity="1" d=" M159.468994140625,-15.562000274658203 C133.10499572753906,-16.599000930786133 125.14800262451172,2.322000026702881 88.71299743652344,2.2300000190734863 C55.14400100708008,2.1449999809265137 33.02899932861328,-3.5199999809265137 10.949999809265137,-19.118999481201172 C-2.0429999828338623,-28.29800033569336 -22.816999435424805,-34.98400115966797 -41.99700164794922,-33.104000091552734 C-51.46699905395508,-32.17599868774414 -63.54800033569336,-29.382999420166016 -74.58100128173828,-25.198999404907227 C-85.48400115966797,-21.06399917602539 -98.7040023803711,-13.833999633789062 -112.57599639892578,-5.691999912261963 C-127.75900268554688,3.2190001010894775 -153.5469970703125,13.845000267028809 -160.11900329589844,-3.7170000076293945 C-156.90499877929688,20.989999771118164 -133.56199645996094,22.648000717163086 -116.6719970703125,16.084999084472656 C-84.65299987792969,3.6449999809265137 -67.38099670410156,-13.34000015258789 -24.663999557495117,-11.432999610900879 C8.949999809265137,-9.932000160217285 12.258999824523926,19.48200035095215 49.52199935913086,27.483999252319336 C74.96199798583984,32.946998596191406 84.51399993896484,31.03700065612793 95.21399688720703,28.628999710083008 C98.58000183105469,27.871000289916992 124.86799621582031,26.5 107.4990005493164,41.9630012512207 C133.22500610351562,32.946998596191406 164.281005859375,36.74300003051758 183.61300659179688,37.52899932861328 C188.3820037841797,37.722999572753906 198.29100036621094,10.263999938964844 201.19200134277344,-4.677999973297119 C184.56100463867188,-7.882999897003174 172.58999633789062,-15.045999526977539 159.468994140625,-15.562000274658203z"/></g><g opacity="0.2" transform="matrix(1,0,0,1,253.38699340820312,351.7539978027344)"><path fill="rgb(240,146,1)" fill-opacity="1" d=" M161.73699951171875,-24.753999710083008 C141.82899475097656,-26.38599967956543 128.58200073242188,-5.005000114440918 88.83300018310547,-4.455999851226807 C60.39799880981445,-4.063000202178955 35.38399887084961,-8 12.621000289916992,-22.582000732421875 C-2.640000104904175,-32.358001708984375 -23.174999237060547,-40.47600173950195 -42.35499954223633,-38.59600067138672 C-51.82500076293945,-37.667999267578125 -65.50399780273438,-34.24399948120117 -76.25299835205078,-29.37700080871582 C-86.80899810791016,-24.597999572753906 -101.13400268554688,-18.298999786376953 -114.60600280761719,-9.51200008392334 C-129.5500030517578,0.23499999940395355 -154.02499389648438,10.262999534606934 -160.11900329589844,-3.7170000076293945 C-156.90499877929688,20.989999771118164 -133.56199645996094,22.648000717163086 -116.6719970703125,16.084999084472656 C-84.65299987792969,3.6449999809265137 -67.38099670410156,-13.340999603271484 -24.663999557495117,-11.434000015258789 C8.949999809265137,-9.932999610900879 12.258999824523926,19.482999801635742 49.52199935913086,27.485000610351562 C74.96299743652344,32.948001861572266 84.51399993896484,31.03700065612793 95.21399688720703,28.628999710083008 C98.58000183105469,27.871000289916992 124.86799621582031,26.5 107.4990005493164,41.9630012512207 C133.22500610351562,32.946998596191406 164.281005859375,36.74300003051758 183.61300659179688,37.52899932861328 C188.3820037841797,37.722999572753906 200.08200073242188,10.024999618530273 202.74400329589844,-13.27400016784668 C188.85899353027344,-15.52400016784668 172.38400268554688,-23.881000518798828 161.73699951171875,-24.753999710083008z"/></g><g opacity="0.1" transform="matrix(1,0,0,1,253.38699340820312,351.7539978027344)"><path fill="rgb(240,146,1)" fill-opacity="1" d=" M162.45399475097656,-37.40999984741211 C143.97000122070312,-39.402000427246094 126.89700317382812,-14.211000442504883 88.4749984741211,-13.767999649047852 C60.49700164794922,-13.446000099182129 38.66899871826172,-15.045999526977539 14.890000343322754,-27.35700035095215 C-2.2860000133514404,-36.249000549316406 -16.701000213623047,-49.566001892089844 -42.95199966430664,-47.78900146484375 C-52.44499969482422,-47.14699935913086 -67.28500366210938,-41.98500061035156 -78.04299926757812,-37.13800048828125 C-88.12200164794922,-32.59700012207031 -103.36900329589844,-22.700000762939453 -116.99299621582031,-14.645999908447266 C-134.08599853515625,-4.540999889373779 -153.78599548339844,6.682000160217285 -160.11900329589844,-3.7170000076293945 C-156.90499877929688,20.989999771118164 -133.56199645996094,22.648000717163086 -116.6719970703125,16.084999084472656 C-84.65299987792969,3.6449999809265137 -67.38099670410156,-13.340999603271484 -24.663999557495117,-11.434000015258789 C8.949999809265137,-9.932999610900879 12.260000228881836,19.48200035095215 49.52199935913086,27.483999252319336 C74.96299743652344,32.946998596191406 84.51399993896484,31.03700065612793 95.21399688720703,28.628999710083008 C98.58000183105469,27.871000289916992 124.86799621582031,26.5 107.4990005493164,41.9630012512207 C133.22500610351562,32.946998596191406 164.26600646972656,37.722999572753906 183.61300659179688,37.52899932861328 C192.45599365234375,37.439998626708984 201.03700256347656,4.054999828338623 204.177001953125,-22.347999572753906 C182.41299438476562,-26.0310001373291 171.85299682617188,-36.39699935913086 162.45399475097656,-37.40999984741211z"/></g><g opacity="1" transform="matrix(1,0,0,1,234.11599731445312,303.60101318359375)"><path stroke-linecap="round" stroke-linejoin="round" fill-opacity="0" stroke="rgb(225,124,0)" stroke-opacity="1" stroke-width="8" d=" M2.9690001010894775,-74.12300109863281 C-21.615999221801758,-46.47600173950195 -51.097999572753906,-49.22100067138672 -76.72100067138672,-27.663000106811523 C-92.1760025024414,-14.659000396728516 -90.15499877929688,-12.682000160217285 -130.78500366210938,20.490999221801758 C-159.78399658203125,44.16899871826172 -128.55499267578125,76.34300231933594 -97.4010009765625,64.23799896240234 C-65.38200378417969,51.79800033569336 -48.11000061035156,34.8120002746582 -5.39300012588501,36.71900177001953 C28.22100067138672,38.220001220703125 31.72599983215332,66.77400207519531 68.79299926757812,75.63700103759766 C98.25800323486328,82.68299865722656 117.89600372314453,77.13300323486328 142.302001953125,65.31999969482422"/></g></g><g style="display: block;" transform="matrix(1.0469999313354492,0,0,1.0469999313354492,422.8013000488281,327.1431884765625)" opacity="1"><g opacity="1" transform="matrix(1,0,0,1,0,0)"><path stroke-linecap="round" stroke-linejoin="round" fill-opacity="0" stroke="rgb(225,124,0)" stroke-opacity="1" stroke-width="8" d=" M-19.332000732421875,-70.41300201416016 C-7.974999904632568,-67.60900115966797 4.681000232696533,-65.7699966430664 24.280000686645508,-65.3740005493164 C39.08300018310547,-64.20800018310547 41.345001220703125,-34.65399932861328 38.83700180053711,4.7270002365112305 C36.965999603271484,34.10300064086914 29.523000717163086,71.4540023803711 17.634000778198242,70.39099884033203 C-8.53600025177002,68.05000305175781 -28.572999954223633,68.44300079345703 -39.71699905395508,69.3270034790039"/></g></g><g style="display: block;" transform="matrix(1.0469999313354492,0,0,1.0469999313354492,321.1700439453125,407.8773498535156)" opacity="1"><g opacity="1" transform="matrix(1,0,0,1,0,0)"><path stroke-linecap="round" stroke-linejoin="round" fill-opacity="0" stroke="rgb(225,124,0)" stroke-opacity="1" stroke-width="8" d=" M-62.77199935913086,-1.0829999446868896 C-49.064998626708984,5.1570000648498535 -30.716999053955078,8.600000381469727 -13.956000328063965,7.809000015258789 C12.866999626159668,6.544000148773193 45.499000549316406,-7.5289998054504395 60.92300033569336,-7.994999885559082"/></g></g></g></svg>