<svg xmlns="http://www.w3.org/2000/svg" xmlns:xlink="http://www.w3.org/1999/xlink" viewBox="0 0 512 512" width="512" height="512" style="width: 100%; height: 100%; transform: translate3d(0,0,0);" preserveAspectRatio="xMidYMid meet"><defs><clipPath id="__lottie_element_45910"><rect width="512" height="512" x="0" y="0"/></clipPath></defs><g clip-path="url(#__lottie_element_45910)"><g style="display: block;" transform="matrix(1,0,0,1,374.25,313.72100830078125)" opacity="1"><g opacity="1" transform="matrix(1,0,0,1,0,0)"><path fill="rgb(143,143,143)" fill-opacity="1" d=" M49.595001220703125,-122.75700378417969 C44.33599853515625,-135.68600463867188 26.586999893188477,-162.98899841308594 -1.4889999628067017,-159.25399780273438 C-14.913000106811523,-157.46800231933594 -15.720000267028809,-150.35400390625 -35.665000915527344,-145.21200561523438 C-51.270999908447266,-141.18899536132812 -58.75299835205078,-120.72000122070312 -61.30099868774414,-103.71399688720703 C-63.382999420166016,-89.81800079345703 -69.56999969482422,-57.68000030517578 -38.41400146484375,-44.207000732421875 C-27.12299919128418,-39.32400131225586 -16.746999740600586,-33.22100067138672 -16.136999130249023,-22.844999313354492 C-15.204999923706055,-7.000999927520752 -23.50200080871582,21.05900001525879 -42.07600021362305,48.5629997253418 C-57.944000244140625,72.06099700927734 -74.62000274658203,104.447998046875 -62.215999603271484,137.06100463867188 C-51.36199951171875,165.5970001220703 -10.092000007629395,171.65199279785156 2.1730000972747803,127.90599822998047 C8.692000389099121,104.65499877929688 8.005000114440918,78.12899780273438 41.53900146484375,11.333000183105469 C48.63199996948242,-2.7960000038146973 74.94499969482422,-57.71099853515625 63.8380012512207,-83.58699798583984 C55.13199996948242,-103.87000274658203 55.30500030517578,-108.71800231933594 49.595001220703125,-122.75700378417969z"/><path stroke-linecap="round" stroke-linejoin="round" fill-opacity="0" stroke="rgb(105,105,105)" stroke-opacity="1" stroke-width="8" d=" M49.595001220703125,-122.75700378417969 C44.33599853515625,-135.68600463867188 26.586999893188477,-162.98899841308594 -1.4889999628067017,-159.25399780273438 C-14.913000106811523,-157.46800231933594 -15.720000267028809,-150.35400390625 -35.665000915527344,-145.21200561523438 C-51.270999908447266,-141.18899536132812 -58.75299835205078,-120.72000122070312 -61.30099868774414,-103.71399688720703 C-63.382999420166016,-89.81800079345703 -69.56999969482422,-57.68000030517578 -38.41400146484375,-44.207000732421875 C-27.12299919128418,-39.32400131225586 -16.746999740600586,-33.22100067138672 -16.136999130249023,-22.844999313354492 C-15.204999923706055,-7.000999927520752 -23.50200080871582,21.05900001525879 -42.07600021362305,48.5629997253418 C-57.944000244140625,72.06099700927734 -74.62000274658203,104.447998046875 -62.215999603271484,137.06100463867188 C-51.36199951171875,165.5970001220703 -10.092000007629395,171.65199279785156 2.1730000972747803,127.90599822998047 C8.692000389099121,104.65499877929688 8.005000114440918,78.12899780273438 41.53900146484375,11.333000183105469 C48.63199996948242,-2.7960000038146973 74.94499969482422,-57.71099853515625 63.8380012512207,-83.58699798583984 C55.13199996948242,-103.87000274658203 55.30500030517578,-108.71800231933594 49.595001220703125,-122.75700378417969z"/></g></g><g style="display: block;" transform="matrix(1,0,0,1,441.92901611328125,170.44000244140625)" opacity="1"><g opacity="1" transform="matrix(1,0,0,1,0,0)"><path fill="rgb(143,143,143)" fill-opacity="1" d=" M-5.998000144958496,-5.5970001220703125 C-10.880999565124512,-1.0199999809265137 -12.303999900817871,4.861000061035156 -7.828999996185303,8.440999984741211 C-3.252000093460083,12.102999687194824 4.86299991607666,9.583999633789062 8.343999862670898,4.169000148773193 C11.090999603271484,-0.10300000011920929 11.817999839782715,-5.057000160217285 7.124000072479248,-8.343000411987305 C1.0210000276565552,-12.614999771118164 -3.003000020980835,-8.404999732971191 -5.998000144958496,-5.5970001220703125z"/><path stroke-linecap="round" stroke-linejoin="round" fill-opacity="0" stroke="rgb(105,105,105)" stroke-opacity="1" stroke-width="8" d=" M-5.998000144958496,-5.5970001220703125 C-10.880999565124512,-1.0199999809265137 -12.303999900817871,4.861000061035156 -7.828999996185303,8.440999984741211 C-3.252000093460083,12.102999687194824 4.86299991607666,9.583999633789062 8.343999862670898,4.169000148773193 C11.090999603271484,-0.10300000011920929 11.817999839782715,-5.057000160217285 7.124000072479248,-8.343000411987305 C1.0210000276565552,-12.614999771118164 -3.003000020980835,-8.404999732971191 -5.998000144958496,-5.5970001220703125z"/></g></g><g style="display: block;" transform="matrix(1,0,0,1,421.16400146484375,140.99798583984375)" opacity="1"><g opacity="1" transform="matrix(1,0,0,1,0,0)"><path fill="rgb(143,143,143)" fill-opacity="1" d=" M-8.425999641418457,-5.75600004196167 C-13.331999778747559,0.4869999885559082 -12.975000381469727,7.140999794006348 -8.656999588012695,10.083000183105469 C-3.239000082015991,13.77400016784668 3.61299991607666,10.303000450134277 8.052000045776367,5.230000019073486 C12.324000358581543,0.34700000286102295 14.461000442504883,-6.367000102996826 7.441999912261963,-10.638999938964844 C2.9790000915527344,-13.354999542236328 -5.068999767303467,-10.027999877929688 -8.425999641418457,-5.75600004196167z"/><path stroke-linecap="round" stroke-linejoin="round" fill-opacity="0" stroke="rgb(105,105,105)" stroke-opacity="1" stroke-width="8" d=" M-8.425999641418457,-5.75600004196167 C-13.331999778747559,0.4869999885559082 -12.975000381469727,7.140999794006348 -8.656999588012695,10.083000183105469 C-3.239000082015991,13.77400016784668 3.61299991607666,10.303000450134277 8.052000045776367,5.230000019073486 C12.324000358581543,0.34700000286102295 14.461000442504883,-6.367000102996826 7.441999912261963,-10.638999938964844 C2.9790000915527344,-13.354999542236328 -5.068999767303467,-10.027999877929688 -8.425999641418457,-5.75600004196167z"/></g></g><g style="display: block;" transform="matrix(1,0,0,1,390.5350036621094,119.84600067138672)" opacity="1"><g opacity="1" transform="matrix(1,0,0,1,0,0)"><path fill="rgb(143,143,143)" fill-opacity="1" d=" M-10.144000053405762,-1.9989999532699585 C-11.07800006866455,4.8480000495910645 -8.008999824523926,12.642000198364258 -2.680000066757202,13.473999977111816 C5.723999977111816,14.78600025177002 8.470999717712402,7.156000137329102 9.800999641418457,2.1519999504089355 C11.70300006866455,-5.005000114440918 8.166000366210938,-12.984999656677246 1.1469999551773071,-13.595000267028809 C-4.22599983215332,-14.062000274658203 -9.227999687194824,-8.713000297546387 -10.144000053405762,-1.9989999532699585z"/><path stroke-linecap="round" stroke-linejoin="round" fill-opacity="0" stroke="rgb(105,105,105)" stroke-opacity="1" stroke-width="8" d=" M-10.144000053405762,-1.9989999532699585 C-11.07800006866455,4.8480000495910645 -8.008999824523926,12.642000198364258 -2.680000066757202,13.473999977111816 C5.723999977111816,14.78600025177002 8.470999717712402,7.156000137329102 9.800999641418457,2.1519999504089355 C11.70300006866455,-5.005000114440918 8.166000366210938,-12.984999656677246 1.1469999551773071,-13.595000267028809 C-4.22599983215332,-14.062000274658203 -9.227999687194824,-8.713000297546387 -10.144000053405762,-1.9989999532699585z"/></g></g><g style="display: block;" transform="matrix(1,0,0,1,340.24798583984375,120.42200469970703)" opacity="1"><g opacity="1" transform="matrix(1,0,0,1,0,0)"><path fill="rgb(143,143,143)" fill-opacity="1" d=" M-19.05900001525879,-0.43799999356269836 C-18.448999404907227,13.293999671936035 -10.824000358581543,26.64299964904785 0.7760000228881836,26.72100067138672 C11.598999977111816,26.79400062561035 19.274999618530273,11.253000259399414 19.086000442504883,-1.0490000247955322 C18.7810001373291,-20.885000228881836 10.541999816894531,-27.29199981689453 -0.4440000057220459,-26.68199920654297 C-10.213000297546387,-26.138999938964844 -19.69700050354004,-14.795999526977539 -19.05900001525879,-0.43799999356269836z"/><path stroke-linecap="round" stroke-linejoin="round" fill-opacity="0" stroke="rgb(105,105,105)" stroke-opacity="1" stroke-width="8" d=" M-19.05900001525879,-0.43799999356269836 C-18.448999404907227,13.293999671936035 -10.824000358581543,26.64299964904785 0.7760000228881836,26.72100067138672 C11.598999977111816,26.79400062561035 19.274999618530273,11.253000259399414 19.086000442504883,-1.0490000247955322 C18.7810001373291,-20.885000228881836 10.541999816894531,-27.29199981689453 -0.4440000057220459,-26.68199920654297 C-10.213000297546387,-26.138999938964844 -19.69700050354004,-14.795999526977539 -19.05900001525879,-0.43799999356269836z"/></g></g><g style="display: block;" transform="matrix(1,0,0,1,452.25201416015625,203.677001953125)" opacity="1"><g opacity="1" transform="matrix(1,0,0,1,0,0)"><path fill="rgb(143,143,143)" fill-opacity="1" d=" M-6.997000217437744,-2.7820000648498535 C-8.083000183105469,2.9739999771118164 -7.550000190734863,6.760000228881836 -2.9839999675750732,8.8100004196167 C1.8860000371932983,10.996999740600586 4.914000034332275,6.96999979019165 6.559000015258789,2.7750000953674316 C8.395999908447266,-1.909000039100647 7.785999774932861,-8.012999534606934 1.8109999895095825,-9.270000457763672 C-3.003999948501587,-10.282999992370605 -6.361999988555908,-6.150000095367432 -6.997000217437744,-2.7820000648498535z"/><path stroke-linecap="round" stroke-linejoin="round" fill-opacity="0" stroke="rgb(105,105,105)" stroke-opacity="1" stroke-width="8" d=" M-6.997000217437744,-2.7820000648498535 C-8.083000183105469,2.9739999771118164 -7.550000190734863,6.760000228881836 -2.9839999675750732,8.8100004196167 C1.8860000371932983,10.996999740600586 4.914000034332275,6.96999979019165 6.559000015258789,2.7750000953674316 C8.395999908447266,-1.909000039100647 7.785999774932861,-8.012999534606934 1.8109999895095825,-9.270000457763672 C-3.003999948501587,-10.282999992370605 -6.361999988555908,-6.150000095367432 -6.997000217437744,-2.7820000648498535z"/></g></g><g style="display: block;" transform="matrix(1,0,0,1,137.75,240.27899169921875)" opacity="1"><g opacity="1" transform="matrix(1,0,0,1,0,0)"><path fill="rgb(143,143,143)" fill-opacity="1" d=" M-4.908999919891357,-154.0919952392578 C-4.604000091552734,-154.04200744628906 -4.300000190734863,-153.97900390625 -3.996000051498413,-153.91099548339844 C6.785999774932861,-151.48800659179688 13.673999786376953,-140.07200622558594 28.719999313354492,-136.7740020751953 C46.86199951171875,-132.7969970703125 52.61199951171875,-117.92900085449219 52.83000183105469,-102.59500122070312 C53.02299880981445,-89.01000213623047 57.89400100708008,-54.053001403808594 29.636999130249023,-38.51100158691406 C17.43000030517578,-31.797000885009766 17.437000274658203,-15.640999794006348 20.174999237060547,1.1610000133514404 C21.969999313354492,12.17300033569336 29.027000427246094,36.558998107910156 46.72700119018555,57.92100143432617 C63.24800109863281,77.86000061035156 86.09100341796875,112.23999786376953 76.93599700927734,136.04299926757812 C66.41500091552734,163.3979949951172 30.551000595092773,158.01499938964844 12.85099983215332,133.6020050048828 C-6.138999938964844,107.40899658203125 -10.871999740600586,65.50599670410156 -31.399999618530273,29.84600067138672 C-52.42100143432617,-6.671000003814697 -74.9729995727539,-50.691001892089844 -78.28099822998047,-68.83399963378906 C-79.3550033569336,-74.7249984741211 -80.19999694824219,-81.46900177001953 -73.91100311279297,-90.85700225830078 C-68.31500244140625,-99.20999908447266 -66.56300354003906,-102.0260009765625 -62.23899841308594,-110.33999633789062 C-48.93600082397461,-135.9199981689453 -22.058000564575195,-156.9080047607422 -4.908999919891357,-154.0919952392578z"/><path stroke-linecap="round" stroke-linejoin="round" fill-opacity="0" stroke="rgb(105,105,105)" stroke-opacity="1" stroke-width="8" d=" M-4.908999919891357,-154.0919952392578 C-4.604000091552734,-154.04200744628906 -4.300000190734863,-153.97900390625 -3.996000051498413,-153.91099548339844 C6.785999774932861,-151.48800659179688 13.673999786376953,-140.07200622558594 28.719999313354492,-136.7740020751953 C46.86199951171875,-132.7969970703125 52.61199951171875,-117.92900085449219 52.83000183105469,-102.59500122070312 C53.02299880981445,-89.01000213623047 57.89400100708008,-54.053001403808594 29.636999130249023,-38.51100158691406 C17.43000030517578,-31.797000885009766 17.437000274658203,-15.640999794006348 20.174999237060547,1.1610000133514404 C21.969999313354492,12.17300033569336 29.027000427246094,36.558998107910156 46.72700119018555,57.92100143432617 C63.24800109863281,77.86000061035156 86.09100341796875,112.23999786376953 76.93599700927734,136.04299926757812 C66.41500091552734,163.3979949951172 30.551000595092773,158.01499938964844 12.85099983215332,133.6020050048828 C-6.138999938964844,107.40899658203125 -10.871999740600586,65.50599670410156 -31.399999618530273,29.84600067138672 C-52.42100143432617,-6.671000003814697 -74.9729995727539,-50.691001892089844 -78.28099822998047,-68.83399963378906 C-79.3550033569336,-74.7249984741211 -80.19999694824219,-81.46900177001953 -73.91100311279297,-90.85700225830078 C-68.31500244140625,-99.20999908447266 -66.56300354003906,-102.0260009765625 -62.23899841308594,-110.33999633789062 C-48.93600082397461,-135.9199981689453 -22.058000564575195,-156.9080047607422 -4.908999919891357,-154.0919952392578z"/></g></g><g style="display: block;" transform="matrix(1,0,0,1,51.19999694824219,130.95599365234375)" opacity="1"><g opacity="1" transform="matrix(1,0,0,1,0,0)"><path fill="rgb(143,143,143)" fill-opacity="1" d=" M6.020999908447266,-4.257999897003174 C8.28499984741211,-0.48399999737739563 8.767999649047852,4.895999908447266 4.801000118255615,7.947999954223633 C0.5699999928474426,11.20300006866455 -3.609999895095825,8.178000450134277 -5.880000114440918,4.285999774932861 C-8.015999794006348,0.6240000128746033 -9.347999572753906,-5.502999782562256 -4.048999786376953,-8.531000137329102 C0.22300000488758087,-10.972000122070312 4.190000057220459,-7.309999942779541 6.020999908447266,-4.257999897003174z"/><path stroke-linecap="round" stroke-linejoin="round" fill-opacity="0" stroke="rgb(105,105,105)" stroke-opacity="1" stroke-width="8" d=" M6.020999908447266,-4.257999897003174 C8.28499984741211,-0.48399999737739563 8.767999649047852,4.895999908447266 4.801000118255615,7.947999954223633 C0.5699999928474426,11.20300006866455 -3.609999895095825,8.178000450134277 -5.880000114440918,4.285999774932861 C-8.015999794006348,0.6240000128746033 -9.347999572753906,-5.502999782562256 -4.048999786376953,-8.531000137329102 C0.22300000488758087,-10.972000122070312 4.190000057220459,-7.309999942779541 6.020999908447266,-4.257999897003174z"/></g></g><g style="display: block;" transform="matrix(1,0,0,1,66.14700317382812,98.11699676513672)" opacity="1"><g opacity="1" transform="matrix(1,0,0,1,0,0)"><path fill="rgb(143,143,143)" fill-opacity="1" d=" M8.468999862670898,-1.3250000476837158 C10.300000190734863,7.21999979019165 6.875,10.576000213623047 1.1449999809265137,10.576000213623047 C-5.263000011444092,10.576000213623047 -8.315999984741211,5.083000183105469 -8.925999641418457,-1.3250000476837158 C-9.192999839782715,-4.125999927520752 -8.177000045776367,-9.586000442504883 -2.5169999599456787,-10.479999542236328 C3.2809998989105225,-11.395000457763672 7.551000118255615,-5.610000133514404 8.468999862670898,-1.3250000476837158z"/><path stroke-linecap="round" stroke-linejoin="round" fill-opacity="0" stroke="rgb(105,105,105)" stroke-opacity="1" stroke-width="8" d=" M8.468999862670898,-1.3250000476837158 C10.300000190734863,7.21999979019165 6.875,10.576000213623047 1.1449999809265137,10.576000213623047 C-5.263000011444092,10.576000213623047 -8.315999984741211,5.083000183105469 -8.925999641418457,-1.3250000476837158 C-9.192999839782715,-4.125999927520752 -8.177000045776367,-9.586000442504883 -2.5169999599456787,-10.479999542236328 C3.2809998989105225,-11.395000457763672 7.551000118255615,-5.610000133514404 8.468999862670898,-1.3250000476837158z"/></g></g><g style="display: block;" transform="matrix(1,0,0,1,88.81399536132812,74.6669921875)" opacity="1"><g opacity="1" transform="matrix(1,0,0,1,0,0)"><path fill="rgb(143,143,143)" fill-opacity="1" d=" M9.90999984741211,0.15299999713897705 C10.21500015258789,8.086999893188477 6.284999847412109,12.968999862670898 1.059999942779541,12.968999862670898 C-4.164999961853027,12.968999862670898 -9.925999641418457,5.368000030517578 -9.925999641418457,-1.3730000257492065 C-9.925999641418457,-8.114999771118164 -6.301000118255615,-12.968999862670898 -1.0759999752044678,-12.968999862670898 C4.14900016784668,-12.968999862670898 9.651000022888184,-6.584000110626221 9.90999984741211,0.15299999713897705z"/><path stroke-linecap="round" stroke-linejoin="round" fill-opacity="0" stroke="rgb(105,105,105)" stroke-opacity="1" stroke-width="8" d=" M9.90999984741211,0.15299999713897705 C10.21500015258789,8.086999893188477 6.284999847412109,12.968999862670898 1.059999942779541,12.968999862670898 C-4.164999961853027,12.968999862670898 -9.925999641418457,5.368000030517578 -9.925999641418457,-1.3730000257492065 C-9.925999641418457,-8.114999771118164 -6.301000118255615,-12.968999862670898 -1.0759999752044678,-12.968999862670898 C4.14900016784668,-12.968999862670898 9.651000022888184,-6.584000110626221 9.90999984741211,0.15299999713897705z"/></g></g><g style="display: block;" transform="matrix(1,0,0,1,120.54199981689453,59.260986328125)" opacity="1"><g opacity="1" transform="matrix(1,0,0,1,0,0)"><path fill="rgb(143,143,143)" fill-opacity="1" d=" M9.307999610900879,-0.6150000095367432 C9.307999610900879,6.295000076293945 5.843999862670898,12.543000221252441 0.4580000042915344,12.812000274658203 C-5.644999980926514,13.116999626159668 -9.307999610900879,5.989999771118164 -9.307999610900879,-0.9200000166893005 C-9.307999610900879,-7.829999923706055 -5.239999771118164,-12.821999549865723 0.15299999713897705,-12.821999549865723 C5.546000003814697,-12.821999549865723 9.307999610900879,-7.525000095367432 9.307999610900879,-0.6150000095367432z"/><path stroke-linecap="round" stroke-linejoin="round" fill-opacity="0" stroke="rgb(105,105,105)" stroke-opacity="1" stroke-width="8" d=" M9.307999610900879,-0.6150000095367432 C9.307999610900879,6.295000076293945 5.843999862670898,12.543000221252441 0.4580000042915344,12.812000274658203 C-5.644999980926514,13.116999626159668 -9.307999610900879,5.989999771118164 -9.307999610900879,-0.9200000166893005 C-9.307999610900879,-7.829999923706055 -5.239999771118164,-12.821999549865723 0.15299999713897705,-12.821999549865723 C5.546000003814697,-12.821999549865723 9.307999610900879,-7.525000095367432 9.307999610900879,-0.6150000095367432z"/></g></g><g style="display: block;" transform="matrix(1,0,0,1,168.77700805664062,60.290985107421875)" opacity="1"><g opacity="1" transform="matrix(1,0,0,1,0,0)"><path fill="rgb(143,143,143)" fill-opacity="1" d=" M18.138999938964844,0.1860000044107437 C17.319000244140625,13.03499984741211 10.814000129699707,23.378000259399414 -0.7820000052452087,23.072999954223633 C-11.60200023651123,22.788000106811523 -18.84600067138672,7.894000053405762 -18.176000595092773,-4.390999794006348 C-17.260000228881836,-21.174999237060547 -6.813000202178955,-23.573999404907227 2.2699999809265137,-23.006000518798828 C12.03499984741211,-22.395999908447266 19.054000854492188,-14.156999588012695 18.138999938964844,0.1860000044107437z"/><path stroke-linecap="round" stroke-linejoin="round" fill-opacity="0" stroke="rgb(105,105,105)" stroke-opacity="1" stroke-width="8" d=" M18.138999938964844,0.1860000044107437 C17.319000244140625,13.03499984741211 10.814000129699707,23.378000259399414 -0.7820000052452087,23.072999954223633 C-11.60200023651123,22.788000106811523 -18.84600067138672,7.894000053405762 -18.176000595092773,-4.390999794006348 C-17.260000228881836,-21.174999237060547 -6.813000202178955,-23.573999404907227 2.2699999809265137,-23.006000518798828 C12.03499984741211,-22.395999908447266 19.054000854492188,-14.156999588012695 18.138999938964844,0.1860000044107437z"/></g></g></g></svg>