<svg xmlns="http://www.w3.org/2000/svg" xmlns:xlink="http://www.w3.org/1999/xlink" viewBox="0 0 512 512" width="512" height="512" style="width: 100%; height: 100%; transform: translate3d(0,0,0);" preserveAspectRatio="xMidYMid meet"><defs><clipPath id="__lottie_element_27880"><rect width="512" height="512" x="0" y="0"/></clipPath><clipPath id="__lottie_element_27882"><path d="M0,0 L512,0 L512,512 L0,512z"/></clipPath><clipPath id="__lottie_element_27892"><path d="M0,0 L512,0 L512,512 L0,512z"/></clipPath><clipPath id="__lottie_element_27911"><path d="M0,0 L512,0 L512,512 L0,512z"/></clipPath><linearGradient id="__lottie_element_27964" spreadMethod="pad" gradientUnits="userSpaceOnUse"><stop/><stop/><stop/></linearGradient><linearGradient id="__lottie_element_27980" spreadMethod="pad" gradientUnits="userSpaceOnUse"><stop/><stop/><stop/><stop/><stop/></linearGradient><clipPath id="__lottie_element_27982"><path d="M0,0 L512,0 L512,512 L0,512z"/></clipPath><linearGradient id="__lottie_element_28035" spreadMethod="pad" gradientUnits="userSpaceOnUse"><stop/><stop/><stop/></linearGradient><linearGradient id="__lottie_element_28051" spreadMethod="pad" gradientUnits="userSpaceOnUse"><stop/><stop/><stop/><stop/><stop/></linearGradient><clipPath id="__lottie_element_28053"><path d="M0,0 L512,0 L512,512 L0,512z"/></clipPath><linearGradient id="__lottie_element_28060" spreadMethod="pad" gradientUnits="userSpaceOnUse"><stop/><stop/><stop/></linearGradient><linearGradient id="__lottie_element_28072" spreadMethod="pad" gradientUnits="userSpaceOnUse"><stop/><stop/><stop/></linearGradient><clipPath id="__lottie_element_28074"><path d="M0,0 L512,0 L512,512 L0,512z"/></clipPath><linearGradient id="__lottie_element_28081" spreadMethod="pad" gradientUnits="userSpaceOnUse"><stop/><stop/><stop/></linearGradient><linearGradient id="__lottie_element_28093" spreadMethod="pad" gradientUnits="userSpaceOnUse"><stop/><stop/><stop/></linearGradient><clipPath id="__lottie_element_28101"><path d="M0,0 L512,0 L512,512 L0,512z"/></clipPath><clipPath id="__lottie_element_28111"><path d="M0,0 L512,0 L512,512 L0,512z"/></clipPath><clipPath id="__lottie_element_28130"><path d="M0,0 L512,0 L512,512 L0,512z"/></clipPath><linearGradient id="__lottie_element_28183" spreadMethod="pad" gradientUnits="userSpaceOnUse" x1="-25.490999221801758" y1="-39.35900115966797" x2="31.42799949645996" y2="45.270999908447266"><stop offset="0%" stop-color="rgb(255,206,129)"/><stop offset="42%" stop-color="rgb(244,183,109)"/><stop offset="100%" stop-color="rgb(232,160,89)"/></linearGradient><linearGradient id="__lottie_element_28199" spreadMethod="pad" gradientUnits="userSpaceOnUse" x1="-33.106998443603516" y1="-47.132999420166016" x2="29.000999450683594" y2="39.400001525878906"><stop offset="0%" stop-color="rgb(226,174,105)"/><stop offset="25%" stop-color="rgb(211,152,88)"/><stop offset="82%" stop-color="rgb(196,130,71)"/><stop offset="91%" stop-color="rgb(196,121,69)"/><stop offset="100%" stop-color="rgb(196,113,66)"/></linearGradient><clipPath id="__lottie_element_28201"><path d="M0,0 L512,0 L512,512 L0,512z"/></clipPath><linearGradient id="__lottie_element_28254" spreadMethod="pad" gradientUnits="userSpaceOnUse"><stop/><stop/><stop/></linearGradient><linearGradient id="__lottie_element_28270" spreadMethod="pad" gradientUnits="userSpaceOnUse"><stop/><stop/><stop/><stop/><stop/></linearGradient><clipPath id="__lottie_element_28272"><path d="M0,0 L512,0 L512,512 L0,512z"/></clipPath><linearGradient id="__lottie_element_28279" spreadMethod="pad" gradientUnits="userSpaceOnUse" x1="-76.55500030517578" y1="-80.20600128173828" x2="24.18199920654297" y2="24.405000686645508"><stop offset="0%" stop-color="rgb(196,184,187)"/><stop offset="69%" stop-color="rgb(167,156,159)"/><stop offset="100%" stop-color="rgb(138,127,130)"/></linearGradient><linearGradient id="__lottie_element_28291" spreadMethod="pad" gradientUnits="userSpaceOnUse" x1="-51.8129997253418" y1="-61.96500015258789" x2="4.635000228881836" y2="2.8450000286102295"><stop offset="0%" stop-color="rgb(164,155,158)"/><stop offset="55%" stop-color="rgb(180,170,172)"/><stop offset="100%" stop-color="rgb(195,185,186)"/></linearGradient><clipPath id="__lottie_element_28293"><path d="M0,0 L512,0 L512,512 L0,512z"/></clipPath><linearGradient id="__lottie_element_28300" spreadMethod="pad" gradientUnits="userSpaceOnUse"><stop/><stop/><stop/></linearGradient><linearGradient id="__lottie_element_28312" spreadMethod="pad" gradientUnits="userSpaceOnUse"><stop/><stop/><stop/></linearGradient></defs><g clip-path="url(#__lottie_element_27880)"><g clip-path="url(#__lottie_element_28101)" style="display: block;" transform="matrix(1,0,0,1,4.52099609375,-5.6510009765625)" opacity="1"><g style="display: block;" transform="matrix(1.0735071897506714,-0.07886259257793427,0.07886259257793427,1.0735071897506714,-42.87961196899414,28.243982315063477)" opacity="1"><g opacity="1" transform="matrix(1,0,0,1,278.5740051269531,289.0140075683594)"><path fill="rgb(204,142,59)" fill-opacity="1" d=" M132.3280029296875,151.96099853515625 C132.3280029296875,151.96099853515625 145.73399353027344,147.46800231933594 149.6999969482422,133.8800048828125 C149.6999969482422,133.8800048828125 -137.0780029296875,-151.96099853515625 -137.0780029296875,-151.96099853515625 C-137.0780029296875,-151.96099853515625 -146.76600646972656,-151.29600524902344 -149.6999969482422,-140.06700134277344 C-149.6999969482422,-140.06700134277344 132.3280029296875,151.96099853515625 132.3280029296875,151.96099853515625z"/></g><g opacity="1" transform="matrix(1,0,0,1,280.5350036621094,285.3819885253906)"><path fill="rgb(247,196,121)" fill-opacity="1" d=" M141.3820037841797,148.32899475097656 C141.3820037841797,148.32899475097656 -147.73899841308594,-143.84300231933594 -147.73899841308594,-143.84300231933594 C-147.73899841308594,-143.84300231933594 -139.03799438476562,-148.32899475097656 -139.03799438476562,-148.32899475097656 C-139.03799438476562,-148.32899475097656 147.73899841308594,138.63699340820312 147.73899841308594,138.63699340820312 C147.73899841308594,138.63699340820312 141.3820037841797,148.32899475097656 141.3820037841797,148.32899475097656z"/></g><g opacity="1" transform="matrix(1,0,0,1,278.5740051269531,289.0140075683594)"><path stroke-linecap="round" stroke-linejoin="round" fill-opacity="0" stroke="rgb(170,106,53)" stroke-opacity="1" stroke-width="8" d=" M132.3280029296875,151.96099853515625 C132.3280029296875,151.96099853515625 145.73399353027344,147.46800231933594 149.6999969482422,133.8800048828125 C149.6999969482422,133.8800048828125 -137.0780029296875,-151.96099853515625 -137.0780029296875,-151.96099853515625 C-137.0780029296875,-151.96099853515625 -146.76600646972656,-151.29600524902344 -149.6999969482422,-140.06700134277344 C-149.6999969482422,-140.06700134277344 132.3280029296875,151.96099853515625 132.3280029296875,151.96099853515625z"/></g><g opacity="1" transform="matrix(1,0,0,1,278.5740051269531,294.9620056152344)"><path stroke-linecap="round" stroke-linejoin="round" fill-opacity="0" stroke="rgb(140,80,31)" stroke-opacity="1" stroke-width="8" d=" M-149.6999969482422,-146.01400756835938 C-149.6999969482422,-146.01400756835938 132.3280029296875,146.01400756835938 132.3280029296875,146.01400756835938 C132.3280029296875,146.01400756835938 145.73399353027344,141.52099609375 149.6999969482422,127.93299865722656"/></g></g><g clip-path="url(#__lottie_element_28272)" style="display: block;" transform="matrix(1.0759660005569458,-0.030561210587620735,0.030561210587620735,1.0759660005569458,-48.74553680419922,-5.285793781280518)" opacity="1"><g style="display: block;" transform="matrix(1,0,0,1,152.9459991455078,163.15699768066406)" opacity="1"><g opacity="1" transform="matrix(1,0,0,1,0,0)"><path fill="url(#__lottie_element_28279)" fill-opacity="1" d=" M-50.36199951171875,78.48999786376953 C-40.79899978637695,80.31199645996094 -31.40999984741211,71.96199798583984 -14.744999885559082,56.27799987792969 C1.9199999570846558,40.59400177001953 68.9020004272461,-26.06800079345703 74.78600311279297,-32.27399826049805 C86.44599914550781,-44.573001861572266 81.65899658203125,-55.176998138427734 67.11699676513672,-57.46900177001953 C55.066001892089844,-59.36899948120117 -50.58549880981445,-77.65650177001953 -64.62249755859375,-78.55650329589844 C-76.95249938964844,-79.34649658203125 -82.49600219726562,-72.66600036621094 -80.9800033569336,-60.9119987487793 C-79.67400360107422,-50.79100036621094 -65.41300201416016,44.51499938964844 -63.45199966430664,54.97100067138672 C-61.492000579833984,65.427001953125 -59.42900085449219,76.76300048828125 -50.36199951171875,78.48999786376953z"/></g></g><g style="display: block;" transform="matrix(1,0,0,1,149.20399475097656,159.91600036621094)" opacity="1"><g opacity="1" transform="matrix(1,0,0,1,0,0)"><path fill="url(#__lottie_element_28291)" fill-opacity="1" d=" M-40.81800079345703,62.46099853515625 C-35.064998626708984,63.41999816894531 -26.382999420166016,53.91400146484375 -13.430999755859375,41.7239990234375 C-0.4790000021457672,29.534000396728516 51.439998626708984,-22.40999984741211 56.152000427246094,-27.097000122070312 C66.77799987792969,-37.66600036621094 69.59400177001953,-42.573001861572266 51.14400100708008,-45.72600173950195 C41.79800033569336,-47.32400131225586 -40.37699890136719,-60.94850158691406 -51.24599838256836,-62.11750030517578 C-64.14900207519531,-63.50450134277344 -65.56999969482422,-60.653499603271484 -63.95899963378906,-48.40449905395508 C-62.92499923706055,-40.541500091552734 -51.856998443603516,33.534000396728516 -50.33300018310547,41.65999984741211 C-48.808998107910156,49.7859992980957 -47.33399963378906,61.375 -40.81800079345703,62.46099853515625z"/></g></g><g style="display: block;" transform="matrix(0.9991500377655029,0,0,0.9991199970245361,0.1063995361328125,0.164154052734375)" opacity="0.15"><g opacity="1" transform="matrix(1,0,0,1,98.99299621582031,148.4510040283203)"><path fill="rgb(91,80,85)" fill-opacity="1" d=" M0.5400000214576721,2.5 C4.798999786376953,4.10699987411499 2.5959999561309814,-1.9279999732971191 -0.652999997138977,-2.683000087738037 C-3.9019999504089355,-3.437999963760376 -3.7190001010894775,0.8930000066757202 0.5400000214576721,2.5z"/></g><g opacity="1" transform="matrix(1,0,0,1,117.08799743652344,188.89100646972656)"><path fill="rgb(91,80,85)" fill-opacity="1" d=" M0.10100000351667404,2.933000087738037 C2.6579999923706055,3.928999900817871 2.6029999256134033,-1.621999979019165 0.32499998807907104,-2.872999906539917 C-1.9529999494552612,-4.124000072479248 -3.4690001010894775,1.5429999828338623 0.10100000351667404,2.933000087738037z"/></g><g opacity="1" transform="matrix(1,0,0,1,113.28399658203125,120.91100311279297)"><path fill="rgb(91,80,85)" fill-opacity="1" d=" M-1.7079999446868896,2.2920000553131104 C-0.28200000524520874,4.63700008392334 3.0460000038146973,0.19300000369548798 1.996999979019165,-2.184000015258789 C0.9480000138282776,-4.560999870300293 -3.6989998817443848,-0.9810000061988831 -1.7079999446868896,2.2920000553131104z"/></g><g opacity="1" transform="matrix(1,0,0,1,110.53399658203125,161.59300231933594)"><path fill="rgb(91,80,85)" fill-opacity="1" d=" M-0.0689999982714653,2.50600004196167 C1.9900000095367432,2.8440001010894775 2.9730000495910645,-1.8359999656677246 0.46399998664855957,-2.4690001010894775 C-2.0450000762939453,-3.1019999980926514 -3.180999994277954,1.9950000047683716 -0.0689999982714653,2.50600004196167z"/></g><g opacity="1" transform="matrix(1,0,0,1,144.1719970703125,142.89300537109375)"><path fill="rgb(91,80,85)" fill-opacity="1" d=" M0.5590000152587891,2.312000036239624 C3.194000005722046,2.3469998836517334 3.2799999713897705,-1.7280000448226929 -0.17599999904632568,-2.2709999084472656 C-3.631999969482422,-2.813999891281128 -3.052000045776367,2.2639999389648438 0.5590000152587891,2.312000036239624z"/></g><g opacity="1" transform="matrix(1,0,0,1,146.5189971923828,182.8249969482422)"><path fill="rgb(91,80,85)" fill-opacity="1" d=" M0.5590000152587891,1.6109999418258667 C2.9049999713897705,0.8220000267028809 2.2360000610351562,-1.2970000505447388 -0.503000020980835,-1.680999994277954 C-3.242000102996826,-2.065000057220459 -1.7869999408721924,2.4000000953674316 0.5590000152587891,1.6109999418258667z"/></g><g opacity="1" transform="matrix(1,0,0,1,135.28799438476562,172.13699340820312)"><path fill="rgb(91,80,85)" fill-opacity="1" d=" M0.5529999732971191,2.8570001125335693 C2.3499999046325684,2.73799991607666 1.6260000467300415,-2.9779999256134033 0.06400000303983688,-2.861999988555908 C-1.4980000257492065,-2.746000051498413 -2.9519999027252197,3.0889999866485596 0.5529999732971191,2.8570001125335693z"/></g><g opacity="1" transform="matrix(1,0,0,1,132.7949981689453,120.91100311279297)"><path fill="rgb(91,80,85)" fill-opacity="1" d=" M-1.8600000143051147,2.1630001068115234 C0.4350000023841858,3.7249999046325684 3.953000068664551,-1.0850000381469727 1.9570000171661377,-2.246000051498413 C-0.1469999998807907,-3.4700000286102295 -4.156000137329102,0.6010000109672546 -1.8600000143051147,2.1630001068115234z"/></g><g opacity="1" transform="matrix(1,0,0,1,163.3280029296875,137.05499267578125)"><path fill="rgb(91,80,85)" fill-opacity="1" d=" M-0.48500001430511475,1.8890000581741333 C2.558000087738037,2.6410000324249268 2.177000045776367,-1.4809999465942383 0.718999981880188,-1.940000057220459 C-0.7390000224113464,-2.3989999294281006 -3.4590001106262207,1.1540000438690186 -0.48500001430511475,1.8890000581741333z"/></g><g opacity="1" transform="matrix(1,0,0,1,165.7949981689453,120.3280029296875)"><path fill="rgb(91,80,85)" fill-opacity="1" d=" M0.777999997138977,2.821000099182129 C3.2109999656677246,2.558000087738037 1.1649999618530273,-2.867000102996826 -0.6480000019073486,-2.8359999656677246 C-2.4609999656677246,-2.805000066757202 -2.5399999618530273,3.180000066757202 0.777999997138977,2.821000099182129z"/></g><g opacity="1" transform="matrix(1,0,0,1,153.63400268554688,155.34800720214844)"><path fill="rgb(91,80,85)" fill-opacity="1" d=" M-0.671999990940094,2.253999948501587 C1.7259999513626099,3.007999897003174 2.750999927520752,-1.6469999551773071 0.753000020980835,-2.2750000953674316 C-1.2450000047683716,-2.9030001163482666 -3.069999933242798,1.5 -0.671999990940094,2.253999948501587z"/></g><g opacity="1" transform="matrix(1,0,0,1,126.97899627685547,155.08999633789062)"><path fill="rgb(91,80,85)" fill-opacity="1" d=" M-0.671999990940094,2.253999948501587 C1.7259999513626099,3.007999897003174 2.75,-1.6469999551773071 0.7519999742507935,-2.2750000953674316 C-1.246000051498413,-2.9030001163482666 -3.069999933242798,1.5 -0.671999990940094,2.253999948501587z"/></g><g opacity="1" transform="matrix(1,0,0,1,182.60699462890625,142.01199340820312)"><path fill="rgb(91,80,85)" fill-opacity="1" d=" M-2.2690000534057617,2.3420000076293945 C0.3880000114440918,4.763000011444092 4.506999969482422,-1.7120000123977661 2.2190001010894775,-2.7209999561309814 C-0.0689999982714653,-3.7300000190734863 -4.519000053405762,0.2919999957084656 -2.2690000534057617,2.3420000076293945z"/></g><g opacity="1" transform="matrix(1,0,0,1,97.08100128173828,125.48699951171875)"><path fill="rgb(91,80,85)" fill-opacity="1" d=" M-0.5690000057220459,1.5490000247955322 C1.590999960899353,2.4149999618530273 2.563999891281128,-1.2999999523162842 0.43700000643730164,-1.649999976158142 C-1.690000057220459,-2 -2.4140000343322754,0.8090000152587891 -0.5690000057220459,1.5490000247955322z"/></g><g opacity="1" transform="matrix(1,0,0,1,126.94599914550781,139.77999877929688)"><path fill="rgb(91,80,85)" fill-opacity="1" d=" M-0.08799999952316284,1.3769999742507935 C2.2230000495910645,1.4819999933242798 1.4010000228881836,-1.8700000047683716 -0.28999999165534973,-1.3179999589920044 C-1.9809999465942383,-0.765999972820282 -1.4049999713897705,1.3170000314712524 -0.08799999952316284,1.3769999742507935z"/></g><g opacity="1" transform="matrix(1,0,0,1,165.12100219726562,163.875)"><path fill="rgb(91,80,85)" fill-opacity="1" d=" M0.061000000685453415,1.3969999551773071 C0.9599999785423279,1.3730000257492065 1.6640000343322754,-0.777999997138977 0.15399999916553497,-1.3350000381469727 C-1.3559999465942383,-1.8919999599456787 -1.4730000495910645,1.437999963760376 0.061000000685453415,1.3969999551773071z"/></g></g><g style="display: block;" transform="matrix(1,0,0,1,153.072998046875,163.1129913330078)" opacity="1"><g opacity="1" transform="matrix(1,0,0,1,0,0)"><path stroke-linecap="round" stroke-linejoin="round" fill-opacity="0" stroke="rgb(91,80,85)" stroke-opacity="1" stroke-width="8" d=" M-50.36199951171875,78.48999786376953 C-40.79899978637695,80.31199645996094 -31.40999984741211,71.96199798583984 -14.744999885559082,56.27799987792969 C1.9199999570846558,40.59400177001953 68.9020004272461,-26.06800079345703 74.78600311279297,-32.27399826049805 C86.44599914550781,-44.573001861572266 81.65899658203125,-55.176998138427734 67.11699676513672,-57.46900177001953 C55.066001892089844,-59.36899948120117 -50.58549880981445,-77.65650177001953 -64.62249755859375,-78.55650329589844 C-76.95249938964844,-79.34649658203125 -82.49600219726562,-72.66600036621094 -80.9800033569336,-60.9119987487793 C-79.67400360107422,-50.79100036621094 -65.41300201416016,44.51499938964844 -63.45199966430664,54.97100067138672 C-61.492000579833984,65.427001953125 -59.42900085449219,76.76300048828125 -50.36199951171875,78.48999786376953z"/></g></g><g style="display: block;" transform="matrix(0.9990000128746033,0,0,0.9986650347709656,0.148223876953125,0.2609710693359375)" opacity="0.1"><g opacity="1" transform="matrix(1,0,0,1,177.08799743652344,115.79900360107422)"><path fill="rgb(91,80,85)" fill-opacity="1" d=" M-1.2200000286102295,-2.2929999828338623 C-5.764999866485596,-2.5480000972747803 -1.8519999980926514,2.5480000972747803 1.4739999771118164,2.2929999828338623 C4.800000190734863,2.0380001068115234 3.325000047683716,-2.0380001068115234 -1.2200000286102295,-2.2929999828338623z"/></g><g opacity="1" transform="matrix(1,0,0,1,136.60299682617188,110.70700073242188)"><path fill="rgb(91,80,85)" fill-opacity="1" d=" M-0.902999997138977,-2.815999984741211 C-3.6410000324249268,-2.997999906539917 -1.9229999780654907,2.2799999713897705 0.625,2.7899999618530273 C3.1730000972747803,3.299999952316284 2.9189999103546143,-2.561000108718872 -0.902999997138977,-2.815999984741211z"/></g><g opacity="1" transform="matrix(1,0,0,1,128.9429931640625,191.99899291992188)"><path fill="rgb(91,80,85)" fill-opacity="1" d=" M0.8709999918937683,-2.7309999465942383 C-1.1929999589920044,-4.539999961853027 -3.0339999198913574,0.6970000267028809 -1.3200000524520874,2.6500000953674316 C0.39399999380111694,4.603000164031982 3.752000093460083,-0.2070000022649765 0.8709999918937683,-2.7309999465942383z"/></g><g opacity="1" transform="matrix(1,0,0,1,155.7050018310547,134.36700439453125)"><path fill="rgb(91,80,85)" fill-opacity="1" d=" M-0.6859999895095825,-2.440999984741211 C-2.752000093460083,-2.1459999084472656 -2.2850000858306885,2.614000082015991 0.2980000078678131,2.4649999141693115 C2.88100004196167,2.315999984741211 2.436000108718872,-2.88700008392334 -0.6859999895095825,-2.440999984741211z"/></g><g opacity="1" transform="matrix(1,0,0,1,114.47899627685547,142.01199340820312)"><path fill="rgb(91,80,85)" fill-opacity="1" d=" M-1.24399995803833,-2.0239999294281006 C-3.7679998874664307,-1.2669999599456787 -2.628999948501587,2.6459999084472656 0.8309999704360962,2.127000093460083 C4.290999889373779,1.6080000400543213 2.2160000801086426,-3.062000036239624 -1.24399995803833,-2.0239999294281006z"/></g><g opacity="1" transform="matrix(1,0,0,1,109.18199920654297,111.98799896240234)"><path fill="rgb(91,80,85)" fill-opacity="1" d=" M-1.0870000123977661,-1.281999945640564 C-3.0880000591278076,0.17399999499320984 -1.815000057220459,1.99399995803833 0.9139999747276306,1.5390000343322754 C3.6419999599456787,1.0839999914169312 0.9139999747276306,-2.73799991607666 -1.0870000123977661,-1.281999945640564z"/></g><g opacity="1" transform="matrix(1,0,0,1,96.57499694824219,107.65699768066406)"><path fill="rgb(91,80,85)" fill-opacity="1" d=" M-1.2120000123977661,-2.5880000591278076 C-2.890000104904175,-1.934999942779541 -0.48399999737739563,3.2990000247955322 0.9710000157356262,2.7200000286102295 C2.4260001182556152,2.1410000324249268 2.062000036239624,-3.8610000610351562 -1.2120000123977661,-2.5880000591278076z"/></g><g opacity="1" transform="matrix(1,0,0,1,143.75,160.39100646972656)"><path fill="rgb(91,80,85)" fill-opacity="1" d=" M1.097000002861023,-2.6570000648498535 C-1.5609999895095825,-3.4579999446868896 -3.4739999771118164,2.186000108718872 -1.2209999561309814,2.694999933242798 C1.152999997138977,3.2320001125335693 3.755000114440918,-1.8559999465942383 1.097000002861023,-2.6570000648498535z"/></g><g opacity="1" transform="matrix(1,0,0,1,115.70700073242188,211.61399841308594)"><path fill="rgb(91,80,85)" fill-opacity="1" d=" M0.014999999664723873,-2.003999948501587 C-3.11299991607666,-1.8079999685287476 -1.5140000581741333,2.009999990463257 0.014999999664723873,2.009999990463257 C1.5440000295639038,2.009999990463257 3.072999954223633,-2.194999933242798 0.014999999664723873,-2.003999948501587z"/></g><g opacity="1" transform="matrix(1,0,0,1,109.39800262451172,177.427001953125)"><path fill="rgb(91,80,85)" fill-opacity="1" d=" M-1.5119999647140503,-2.4079999923706055 C-3.753999948501587,-1.4270000457763672 -0.17399999499320984,3.132999897003174 1.5460000038146973,2.559999942779541 C3.2660000324249268,1.9869999885559082 1.5460000038146973,-3.746000051498413 -1.5119999647140503,-2.4079999923706055z"/></g><g opacity="1" transform="matrix(1,0,0,1,108.802001953125,197.11099243164062)"><path fill="rgb(91,80,85)" fill-opacity="1" d=" M0,-2.374000072479248 C-2.513000011444092,-2.374000072479248 -2.0940001010894775,2.374000072479248 0,2.374000072479248 C2.0950000286102295,2.374000072479248 2.5139999389648438,-2.374000072479248 0,-2.374000072479248z"/></g><g opacity="1" transform="matrix(1,0,0,1,136.03799438476562,132.69200134277344)"><path fill="rgb(91,80,85)" fill-opacity="1" d=" M0,-2.374000072479248 C-2.5139999389648438,-2.374000072479248 -2.0940001010894775,2.374000072479248 0,2.374000072479248 C2.0940001010894775,2.374000072479248 2.513000011444092,-2.374000072479248 0,-2.374000072479248z"/></g><g opacity="1" transform="matrix(1,0,0,1,189.18600463867188,127.9739990234375)"><path fill="rgb(91,80,85)" fill-opacity="1" d=" M1.3919999599456787,-2.992000102996826 C-1.86899995803833,-4.504000186920166 -3.8559999465942383,2.9079999923706055 -1.3700000047683716,3.184000015258789 C1.1160000562667847,3.4600000381469727 4.1539998054504395,-1.7109999656677246 1.3919999599456787,-2.992000102996826z"/></g><g opacity="1" transform="matrix(1,0,0,1,168.7169952392578,155.3260040283203)"><path fill="rgb(91,80,85)" fill-opacity="1" d=" M0.06300000101327896,-1.6829999685287476 C-2.256999969482422,-1.8609999418258667 -2.071000099182129,1.9759999513626099 0.06300000101327896,1.6710000038146973 C2.197000026702881,1.3660000562667847 2.0450000762939453,-1.531000018119812 0.06300000101327896,-1.6829999685287476z"/></g><g opacity="1" transform="matrix(1,0,0,1,145.96800231933594,119.51699829101562)"><path fill="rgb(91,80,85)" fill-opacity="1" d=" M-0.3059999942779541,-1.343000054359436 C-2.5420000553131104,-0.75 -0.753000020980835,2.2009999752044678 0.6949999928474426,1.1670000553131104 C2.1429998874664307,0.13300000131130219 0.968999981880188,-1.680999994277954 -0.3059999942779541,-1.343000054359436z"/></g><g opacity="1" transform="matrix(1,0,0,1,97.08100128173828,135.71099853515625)"><path fill="rgb(91,80,85)" fill-opacity="1" d=" M-0.5059999823570251,-1.2910000085830688 C-1.3569999933242798,-0.9980000257492065 -1.3839999437332153,1.2640000581741333 0.2240000069141388,1.343000054359436 C1.8320000171661377,1.4220000505447388 0.9449999928474426,-1.7899999618530273 -0.5059999823570251,-1.2910000085830688z"/></g></g></g><g clip-path="url(#__lottie_element_28130)" style="display: block;" transform="matrix(1.0439722537994385,-0.2622189521789551,0.2622189521789551,1.0439722537994385,-93.97195434570312,57.23750686645508)" opacity="1"><g style="display: block;" transform="matrix(1,0,0,1,234.51100158691406,243.0570068359375)" opacity="1"><g opacity="1" transform="matrix(1,0,0,1,0,0)"><path fill="url(#__lottie_element_28199)" fill-opacity="1" d=" M11.725000381469727,-71.97699737548828 C-13.053999900817871,-75.41799926757812 -33.31100082397461,-63.3849983215332 -43.89099884033203,-54.78300094604492 C-50.28099822998047,-49.5880012512207 -61.08599853515625,-36.5989990234375 -66.6449966430664,-26.996000289916992 C-72.2040023803711,-17.39299964904785 -76.64299774169922,-0.43700000643730164 -71.18299865722656,17.094999313354492 C-66.93699645996094,30.729999542236328 -61.07500076293945,40.83100128173828 -52.483001708984375,51.90399932861328 C-43.89099884033203,62.97700119018555 -30.750999450683594,72.58000183105469 -4.974999904632568,72.58000183105469 C20.801000595092773,72.58000183105469 40.99599838256836,62.59600067138672 50.104000091552734,48.90399932861328 C59.21200180053711,35.21200180053711 71.34100341796875,20.606000900268555 73.36299896240234,2.628000020980835 C75.38500213623047,-15.350000381469727 67.29900360107422,-37.5989990234375 54.15800094604492,-49.729000091552734 C41.016998291015625,-61.85900115966797 29.920000076293945,-69.44999694824219 11.725000381469727,-71.97699737548828z"/></g></g><g style="display: block;" transform="matrix(1,0,0,1,175.7080078125,213.46200561523438)" opacity="0.2"><g opacity="1" transform="matrix(1,0,0,1,0,0)"><path fill="rgb(193,95,30)" fill-opacity="1" d=" M14.911999702453613,-25.187000274658203 C14.859000205993652,-13.609000205993652 15.868000030517578,-8.642999649047852 4.013000011444092,-3.0220000743865967 C-7.8420000076293945,2.5989999771118164 0.4650000035762787,29.586000442504883 -12.380000114440918,24.569000244140625 C-25.225000381469727,19.552000045776367 14.911999702453613,-25.187000274658203 14.911999702453613,-25.187000274658203z"/></g></g><g style="display: block;" transform="matrix(1,0,0,1,263.8420104980469,293.864990234375)" opacity="0.29"><g opacity="1" transform="matrix(1,0,0,1,0,0)"><path fill="rgb(165,78,20)" fill-opacity="1" d=" M15.432999610900879,2.8410000801086426 C35.305999755859375,-23.861000061035156 15.996000289916992,-17.97800064086914 12.138999938964844,-14.256999969482422 C8.095000267028809,-10.354999542236328 -0.257999986410141,9.206000328063965 -10.833999633789062,5.822999954223633 C-16.694000244140625,3.947999954223633 -28.139999389648438,14.39799976348877 -22.95599937438965,16.856000900268555 C-17.38800048828125,19.496000289916992 -1.3420000076293945,13.715999603271484 6.807000160217285,12.260000228881836 C13.402999877929688,11.081999778747559 12.579000473022461,6.676000118255615 15.432999610900879,2.8410000801086426z"/></g></g><g style="display: block;" transform="matrix(1,0,0,1,190.09100341796875,278.3739929199219)" opacity="0.29"><g opacity="1" transform="matrix(1,0,0,1,0,0)"><path fill="rgb(165,78,20)" fill-opacity="1" d=" M-29.131000518798828,-31.04400062561035 C-28.097999572753906,-3.178999900817871 -4.5970001220703125,23.215999603271484 6.921000003814697,28.69099998474121 C12.59000015258789,31.38599967956543 33.5989990234375,35.45899963378906 28.28700065612793,29.608999252319336 C15.465999603271484,15.491000175476074 18.850000381469727,12.781999588012695 11.380999565124512,7.008999824523926 C7.381999969482422,3.9179999828338623 -3.6389999389648438,-3.4830000400543213 -11.454000473022461,-8.508000373840332 C-22.929000854492188,-15.88700008392334 -29.415000915527344,-38.71900177001953 -29.131000518798828,-31.04400062561035z"/></g></g><g style="display: block;" transform="matrix(1,0,0,1,287.8550109863281,220.23500061035156)" opacity="0.29"><g opacity="1" transform="matrix(1,0,0,1,0,0)"><path fill="rgb(165,78,20)" fill-opacity="1" d=" M17.349000930786133,-5.185999870300293 C13.145000457763672,-12.824999809265137 -1.4220000505447388,-34.395999908447266 -16.23200035095215,-40.303001403808594 C-20.2549991607666,-41.90800094604492 -6.068999767303467,-26.45800018310547 -10.668999671936035,-24.177000045776367 C-14.463000297546387,-22.295000076293945 -23.959999084472656,-28.183000564575195 -16.695999145507812,-20.750999450683594 C-11.298999786376953,-15.229999542236328 0.4320000112056732,-5.723999977111816 2.2929999828338623,12.355999946594238 C7.24399995803833,60.46900177001953 17.516000747680664,36.391998291015625 18.895999908447266,16.111000061035156 C19.68000030517578,4.581999778747559 19.648000717163086,-1.0080000162124634 17.349000930786133,-5.185999870300293z"/></g></g><g style="display: block;" transform="matrix(1,0,0,1,232.89599609375,240.2830047607422)" opacity="1"><g opacity="1" transform="matrix(1,0,0,1,0,0)"><path fill="url(#__lottie_element_28183)" fill-opacity="1" d=" M-15.362000465393066,-52.569000244140625 C3.625999927520752,-55.82500076293945 22.31800079345703,-62.50899887084961 34.75199890136719,-45.928001403808594 C47.18600082397461,-29.347000122070312 50.61199951171875,-34.930999755859375 56.62200164794922,-21.385000228881836 C60.797000885009766,-11.973999977111816 54.154998779296875,4.015999794006348 50.060001373291016,11.319000244140625 C45.965999603271484,18.621999740600586 49.95800018310547,32.47100067138672 26.850000381469727,45.64899826049805 C3.742000102996826,58.82699966430664 -13.413000106811523,60.689998626708984 -27.974000930786133,48.61000061035156 C-42.53499984741211,36.529998779296875 -54.763999938964844,37.183998107910156 -56.617000579833984,16.236000061035156 C-58.46900177001953,-4.711999893188477 -60.60100173950195,-18.406999588012695 -46.31800079345703,-29.461000442504883 C-32.03499984741211,-40.51499938964844 -35.505001068115234,-49.1150016784668 -15.362000465393066,-52.569000244140625z"/></g></g><g style="display: block;" transform="matrix(1,0,0,1,234.51100158691406,243.0570068359375)" opacity="1"><g opacity="1" transform="matrix(1,0,0,1,0,0)"><path stroke-linecap="round" stroke-linejoin="round" fill-opacity="0" stroke="rgb(142,88,52)" stroke-opacity="1" stroke-width="8" d=" M11.725000381469727,-71.97699737548828 C-13.053999900817871,-75.41799926757812 -33.31100082397461,-63.3849983215332 -43.89099884033203,-54.78300094604492 C-50.28099822998047,-49.5880012512207 -61.08599853515625,-36.5989990234375 -66.6449966430664,-26.996000289916992 C-72.2040023803711,-17.39299964904785 -76.64299774169922,-0.43700000643730164 -71.18299865722656,17.094999313354492 C-66.93699645996094,30.729999542236328 -61.07500076293945,40.83100128173828 -52.483001708984375,51.90399932861328 C-43.89099884033203,62.97700119018555 -30.750999450683594,72.58000183105469 -4.974999904632568,72.58000183105469 C20.801000595092773,72.58000183105469 40.99599838256836,62.59600067138672 50.104000091552734,48.90399932861328 C59.21200180053711,35.21200180053711 71.34100341796875,20.606000900268555 73.36299896240234,2.628000020980835 C75.38500213623047,-15.350000381469727 67.29900360107422,-37.5989990234375 54.15800094604492,-49.729000091552734 C41.016998291015625,-61.85900115966797 29.920000076293945,-69.44999694824219 11.725000381469727,-71.97699737548828z"/></g></g><g style="display: block;" transform="matrix(1,0,0,1,235.75599670410156,254.48300170898438)" opacity="1"><g opacity="1" transform="matrix(1,0,0,1,0,0)"><path stroke-linecap="round" stroke-linejoin="round" fill-opacity="0" stroke="rgb(111,63,31)" stroke-opacity="1" stroke-width="8" d=" M-72.4280014038086,5.669000148773193 C-68.18199920654297,19.304000854492188 -62.319000244140625,29.4060001373291 -53.72700119018555,40.479000091552734 C-45.1349983215332,51.551998138427734 -31.9950008392334,61.15399932861328 -6.218999862670898,61.15399932861328 C19.55699920654297,61.15399932861328 39.75199890136719,51.17100143432617 48.86000061035156,37.479000091552734 C57.96799850463867,23.78700065612793 70.09700012207031,9.180000305175781 72.11900329589844,-8.79800033569336 C74.14099884033203,-26.775999069213867 66.05500030517578,-49.02399826049805 52.91400146484375,-61.15399932861328"/></g></g><g style="display: block;" transform="matrix(1,0,0,1,0,-0.001007080078125)" opacity="0.1"><g opacity="1" transform="matrix(1,0,0,1,243.0469970703125,193.29100036621094)"><path fill="rgb(193,95,30)" fill-opacity="1" d=" M-7.290999889373779,-7.7179999351501465 C-13.156999588012695,-2.7239999771118164 -6.002999782562256,-4.826000213623047 -6.002999782562256,1.812999963760376 C-6.002999782562256,8.45199966430664 0.36899998784065247,14.116999626159668 6.38700008392334,8.45300006866455 C12.404999732971191,2.7890000343322754 8.520999908447266,-2.809999942779541 6.38700008392334,-4.396999835968018 C4.251999855041504,-5.984000205993652 1.9429999589920044,-15.57800006866455 -7.290999889373779,-7.7179999351501465z"/></g></g><g style="display: block;" transform="matrix(1,0,0,1,0.001007080078125,0)" opacity="0.1"><g opacity="1" transform="matrix(1,0,0,1,271.15899658203125,210.44000244140625)"><path fill="rgb(193,95,30)" fill-opacity="1" d=" M-3.1029999256134033,-4.767000198364258 C-7.372000217437744,-3.1070001125335693 -2.6489999294281006,-0.9169999957084656 -0.15800000727176666,3.61299991607666 C2.3329999446868896,8.142999649047852 5.730999946594238,1.3480000495910645 4.5980000495910645,-0.5770000219345093 C3.4660000801086426,-2.502000093460083 0.9739999771118164,-6.3520002365112305 -3.1029999256134033,-4.767000198364258z"/></g></g><g style="display: block;" transform="matrix(1,0,0,1,0.0000152587890625,-0.0009918212890625)" opacity="0.1"><g opacity="1" transform="matrix(1,0,0,1,275.9809875488281,238.6490020751953)"><path fill="rgb(193,95,30)" fill-opacity="1" d=" M4.359000205993652,-10.809000015258789 C0.375,-10.553999900817871 4.192999839782715,-0.531000018119812 -0.46399998664855957,-0.35499998927116394 C-5.120999813079834,-0.17900000512599945 -10.605999946594238,6.336999893188477 -7.86299991607666,9.42300033569336 C-5.119999885559082,12.508999824523926 4.620999813079834,10.496999740600586 6.952000141143799,3.2730000019073486 C9.282999992370605,-3.9509999752044678 9.722999572753906,-11.152000427246094 4.359000205993652,-10.809000015258789z"/></g></g><g style="display: block;" transform="matrix(1,0,0,1,0,0)" opacity="0.1"><g opacity="1" transform="matrix(1,0,0,1,267.5929870605469,226.17999267578125)"><path fill="rgb(193,95,30)" fill-opacity="1" d=" M-1.25600004196167,-5.085000038146973 C-6.329999923706055,-4.566999912261963 -2.0510001182556152,-1.1349999904632568 -1.25600004196167,3.513000011444092 C-0.460999995470047,8.16100025177002 4.572999954223633,1.6540000438690186 3.565999984741211,-0.7860000133514404 C2.559000015258789,-3.2260000705718994 3.2939999103546143,-5.550000190734863 -1.25600004196167,-5.085000038146973z"/></g></g><g style="display: block;" transform="matrix(1,0,0,1,0,0)" opacity="0.1"><g opacity="1" transform="matrix(1,0,0,1,208.8769989013672,278.7179870605469)"><path fill="rgb(193,95,30)" fill-opacity="1" d=" M-11.45199966430664,-8.050999641418457 C-10.711000442504883,-4.745999813079834 -7.4070000648498535,4.2220001220703125 -0.7549999952316284,7.547999858856201 C5.896999835968018,10.87399959564209 10.885000228881836,9.729000091552734 11.508999824523926,6.664000034332275 C12.133000373840332,3.5989999771118164 4.650000095367432,4.1479997634887695 1.531999945640564,0.7549999952316284 C-1.5859999656677246,-2.638000011444092 -12.678999900817871,-13.520000457763672 -11.45199966430664,-8.050999641418457z"/></g></g><g style="display: block;" transform="matrix(1,0,0,1,0.0009918212890625,0)" opacity="0.1"><g opacity="1" transform="matrix(1,0,0,1,232.6540069580078,272.8210144042969)"><path fill="rgb(193,95,30)" fill-opacity="1" d=" M13.277999877929688,-5.304999828338623 C9.517999649047852,-9.395000457763672 5.434999942779541,-3.7239999771118164 1.5,-3.6649999618530273 C-2.434999942779541,-3.6059999465942383 -15.057000160217285,-4.894999980926514 -14.284000396728516,-0.257999986410141 C-13.51099967956543,4.379000186920166 -4.875999927520752,8.70300006866455 1.753999948501587,5.896999835968018 C8.383999824523926,3.0910000801086426 17.399999618530273,-0.8209999799728394 13.277999877929688,-5.304999828338623z"/></g></g><g style="display: block;" transform="matrix(1,0,0,1,0,0)" opacity="0.1"><g opacity="1" transform="matrix(1,0,0,1,205.55599975585938,252.8090057373047)"><path fill="rgb(193,95,30)" fill-opacity="1" d=" M-8.225000381469727,-6.123000144958496 C-7.921999931335449,-2.3510000705718994 -5.007999897003174,1.0789999961853027 -2.9809999465942383,5.133999824523926 C-0.9539999961853027,9.189000129699707 7.946000099182129,8.60099983215332 8.22700023651123,2.6440000534057617 C8.508000373840332,-3.312999963760376 2.2279999256134033,-1.9609999656677246 0.8059999942779541,-3.312999963760376 C-0.6159999966621399,-4.664999961853027 -8.57800006866455,-10.517999649047852 -8.225000381469727,-6.123000144958496z"/></g></g><g style="display: block;" transform="matrix(1,0,0,1,0,-0.0009918212890625)" opacity="0.1"><g opacity="1" transform="matrix(1,0,0,1,182.36599731445312,260.3240051269531)"><path fill="rgb(193,95,30)" fill-opacity="1" d=" M-2.246000051498413,-5.841000080108643 C-6.5980000495910645,-0.4749999940395355 -0.6340000033378601,6.418000221252441 1.3070000410079956,7.192999839782715 C3.247999906539917,7.9679999351501465 4.3480000495910645,2.632999897003174 3.5239999294281006,0.21799999475479126 C2.700000047683716,-2.197000026702881 1.600000023841858,-10.583999633789062 -2.246000051498413,-5.841000080108643z"/></g></g><g style="display: block;" transform="matrix(1,0,0,1,0.0000152587890625,0)" opacity="0.1"><g opacity="1" transform="matrix(1,0,0,1,259.8970031738281,270.00299072265625)"><path fill="rgb(193,95,30)" fill-opacity="1" d=" M7.697000026702881,-3.9679999351501465 C8.64900016784668,-0.10499999672174454 2.5320000648498535,7.205999851226807 -3.496999979019165,7.506999969482422 C-9.526000022888184,7.808000087738037 -8.92300033569336,1.0479999780654907 -3.496999979019165,-0.847000002861023 C1.9290000200271606,-2.742000102996826 5.538000106811523,-12.730999946594238 7.697000026702881,-3.9679999351501465z"/></g></g><g style="display: block;" transform="matrix(1,0,0,1,0.0009918212890625,-0.001007080078125)" opacity="0.1"><g opacity="1" transform="matrix(1,0,0,1,242.07000732421875,243.21800231933594)"><path fill="rgb(193,95,30)" fill-opacity="1" d=" M15.776000022888184,-13.345000267028809 C10.189000129699707,-14.437999725341797 9.418000221252441,-1.343000054359436 1.4079999923706055,-0.9290000200271606 C-6.6020002365112305,-0.5149999856948853 -24.104999542236328,7.23799991607666 -20.12700080871582,11.71500015258789 C-16.14900016784668,16.191999435424805 -1.0329999923706055,10.128999710083008 9.309000015258789,12.364999771118164 C19.650999069213867,14.60099983215332 25.424999237060547,-11.456999778747559 15.776000022888184,-13.345000267028809z"/></g></g><g style="display: block;" transform="matrix(1,0,0,1,-0.0000152587890625,0)" opacity="0.1"><g opacity="1" transform="matrix(1,0,0,1,232.46099853515625,223.2830047607422)"><path fill="rgb(193,95,30)" fill-opacity="1" d=" M-4.749000072479248,-9.65999984741211 C-7.802999973297119,-4.451000213623047 -5.019000053405762,2.7820000648498535 -9.564000129699707,9.307999610900879 C-14.109000205993652,15.833999633789062 -2.9030001163482666,15.3100004196167 3.615999937057495,8.041999816894531 C10.135000228881836,0.7739999890327454 13.440999984741211,-5.892000198364258 7.564000129699707,-7.702000141143799 C1.687000036239624,-9.51200008392334 0.9380000233650208,-19.358999252319336 -4.749000072479248,-9.65999984741211z"/></g></g><g style="display: block;" transform="matrix(1,0,0,1,0.0009918212890625,-0.001007080078125)" opacity="0.1"><g opacity="1" transform="matrix(1,0,0,1,200.79800415039062,226.51600646972656)"><path fill="rgb(193,95,30)" fill-opacity="1" d=" M-18.43199920654297,0.2370000034570694 C-18.34600067138672,7.007999897003174 -8.086000442504883,7.306000232696533 -4.116000175476074,12.491999626159668 C-0.1459999978542328,17.67799949645996 10.980999946594238,10.307999610900879 16.47100067138672,0.2370000034570694 C21.961000442504883,-9.833999633789062 15.083999633789062,-20.28700065612793 6.241000175476074,-9.902000427246094 C-2.6019999980926514,0.4830000102519989 -18.541000366210938,-8.359999656677246 -18.43199920654297,0.2370000034570694z"/></g></g><g style="display: block;" transform="matrix(1,0,0,1,0.0009918212890625,-0.0000152587890625)" opacity="0.1"><g opacity="1" transform="matrix(1,0,0,1,212.77999877929688,197.11099243164062)"><path fill="rgb(193,95,30)" fill-opacity="1" d=" M7.644000053405762,-8.218000411987305 C2.700000047683716,-8.083000183105469 2.486999988555908,0.9919999837875366 -7.2230000495910645,1.6579999923706055 C-16.933000564575195,2.3239998817443848 -7.354000091552734,8.722999572753906 1.0130000114440918,8.187999725341797 C9.380000114440918,7.6529998779296875 15.567000389099121,-8.434000015258789 7.644000053405762,-8.218000411987305z"/></g></g></g><g clip-path="url(#__lottie_element_28111)" style="display: block;" transform="matrix(1.0753757953643799,-0.04694341495633125,0.04694341495633125,1.0753757953643799,-54.058345794677734,-4.686511516571045)" opacity="1"><g style="display: block;" transform="matrix(1,0,0,1,0,0)" opacity="1"><g opacity="1" transform="matrix(1,0,0,1,325.5299987792969,335.7070007324219)"><path fill="rgb(246,233,205)" fill-opacity="1" d=" M41.230960845947266,-85.92005157470703 C52.63218307495117,-85.87985229492188 81.35951232910156,-60.8094367980957 86.4955825805664,-47.10054016113281 C89.22615051269531,-39.81159973144531 86.07920837402344,-37.785335540771484 66.72515869140625,-19.435606002807617 C43.0973014831543,2.9674875736236572 34.72899627685547,19.346181869506836 -8.692361831665039,56.97130584716797 C-28.012401580810547,73.71147155761719 -33.65700149536133,84.40626525878906 -41.83916473388672,86.01187133789062 C-50.015323638916016,87.61646270751953 -84.35124206542969,60.14445495605469 -87.17134857177734,42.37013244628906 C-88.01708221435547,37.03604507446289 -78.79561614990234,29.380441665649414 -70.23101806640625,19.379777908325195 C-57.66813659667969,4.710290908813477 -40.4640007019043,-13.182000160217285 -29.91200065612793,-23.02400016784668 C-7.752999782562256,-43.69200134277344 -1.4750899076461792,-47.408287048339844 15.56506061553955,-63.90581130981445 C28.30143165588379,-76.23695373535156 33.70083236694336,-85.9465103149414 41.230960845947266,-85.92005157470703z"/><path stroke-linecap="butt" stroke-linejoin="miter" fill-opacity="0" stroke-miterlimit="4" stroke="rgb(178,139,103)" stroke-opacity="1" stroke-width="8" d=" M41.230960845947266,-85.92005157470703 C52.63218307495117,-85.87985229492188 81.35951232910156,-60.8094367980957 86.4955825805664,-47.10054016113281 C89.22615051269531,-39.81159973144531 86.07920837402344,-37.785335540771484 66.72515869140625,-19.435606002807617 C43.0973014831543,2.9674875736236572 34.72899627685547,19.346181869506836 -8.692361831665039,56.97130584716797 C-28.012401580810547,73.71147155761719 -33.65700149536133,84.40626525878906 -41.83916473388672,86.01187133789062 C-50.015323638916016,87.61646270751953 -84.35124206542969,60.14445495605469 -87.17134857177734,42.37013244628906 C-88.01708221435547,37.03604507446289 -78.79561614990234,29.380441665649414 -70.23101806640625,19.379777908325195 C-57.66813659667969,4.710290908813477 -40.4640007019043,-13.182000160217285 -29.91200065612793,-23.02400016784668 C-7.752999782562256,-43.69200134277344 -1.4750899076461792,-47.408287048339844 15.56506061553955,-63.90581130981445 C28.30143165588379,-76.23695373535156 33.70083236694336,-85.9465103149414 41.230960845947266,-85.92005157470703z"/></g></g><g style="display: block;" transform="matrix(1,0,0,1,0,0)" opacity="1"><g opacity="0.3" transform="matrix(1,0,0,1,326.8819885253906,340.6789855957031)"><path fill="rgb(178,139,103)" fill-opacity="1" d=" M65.36921691894531,-24.36189079284668 C41.73235321044922,-1.9690732955932617 33.305965423583984,14.440633773803711 -10.009671211242676,52.03569412231445 C-29.301000595092773,68.79568481445312 -34.998695373535156,79.46092987060547 -43.183780670166016,81.06665802001953 C-50.26985549926758,82.45042419433594 -77.01524353027344,61.97941589355469 -85.83769226074219,44.92104721069336 C-74.3499984741211,55.09548568725586 -61.49329376220703,64.49697875976562 -51.87017059326172,62.06829071044922 C-42.257049560546875,59.64960861206055 -19.197267532348633,30.422805786132812 -4.487829208374023,19.42228126525879 C27.36525535583496,-4.393889904022217 35.427730560302734,-25.974000930786133 47.49018096923828,-36.85991668701172 C59.5516471862793,-47.7358283996582 67.60017395019531,-56.50846481323242 67.60902404785156,-58.916500091552734 C67.61787414550781,-61.32453536987305 67.1462173461914,-71.26863098144531 59.618499755859375,-80.85928344726562 C70.73719787597656,-72.3238754272461 82.10213470458984,-60.169464111328125 85.14869689941406,-52.0245475769043 C87.87919616699219,-44.7396354675293 84.73428344726562,-42.7133903503418 65.36921691894531,-24.36189079284668z"/></g></g><g style="display: block;" transform="matrix(1,0,0,1,0,0)" opacity="1"><g opacity="1" transform="matrix(1,0,0,1,318.27301025390625,327.4960021972656)"><path fill="rgb(255,252,238)" fill-opacity="1" d=" M80.20539093017578,-57.07905197143555 C58.849063873291016,-69.2707290649414 51.360050201416016,-68.13758850097656 45.906150817871094,-60.87945556640625 C31.011428833007812,-41.05809020996094 -4.758999824523926,-14.65999984741211 -18.948999404907227,0.7200000286102295 C-33.14899826049805,16.100000381469727 -66.11038970947266,48.711326599121094 -67.1744384765625,52.96332550048828 C-69.41453552246094,61.91131591796875 -61.06869888305664,77.971435546875 -61.06869888305664,77.971435546875 C-61.06869888305664,77.971435546875 -61.07870101928711,77.971435546875 -61.07870101928711,77.971435546875 C-70.30062103271484,69.38532257080078 -78.52852630615234,58.94620895385742 -79.85443115234375,50.625179290771484 C-80.70037841796875,45.2901611328125 -71.49027252197266,37.625247955322266 -62.93614959716797,27.62332534790039 C-50.378963470458984,12.951436042785645 -33.20899963378906,-4.96999979019165 -22.659000396728516,-14.8100004196167 C-0.49900001287460327,-35.47999954223633 5.840268611907959,-39.23556137084961 22.900060653686523,-55.70395278930664 C35.64490509033203,-68.0012435913086 41.03782653808594,-77.68045043945312 48.566864013671875,-77.64158630371094 C55.6859016418457,-77.6047134399414 69.55514526367188,-67.78791809082031 80.20539093017578,-57.07905197143555z"/></g></g><g style="display: block;" transform="matrix(1,0,0,1,0,0)" opacity="1"><g opacity="1" transform="matrix(1,0,0,1,325.5299987792969,335.7070007324219)"><path stroke-linecap="butt" stroke-linejoin="miter" fill-opacity="0" stroke-miterlimit="4" stroke="rgb(178,139,103)" stroke-opacity="1" stroke-width="8" d=" M41.230960845947266,-85.92005157470703 C52.63218307495117,-85.87985229492188 81.35951232910156,-60.8094367980957 86.4955825805664,-47.10054016113281 C89.22615051269531,-39.81159973144531 86.07920837402344,-37.785335540771484 66.72515869140625,-19.435606002807617 C43.0973014831543,2.9674875736236572 34.72899627685547,19.346181869506836 -8.692361831665039,56.97130584716797 C-28.012401580810547,73.71147155761719 -33.65700149536133,84.40626525878906 -41.83916473388672,86.01187133789062 C-50.015323638916016,87.61646270751953 -84.35124206542969,60.14445495605469 -87.17134857177734,42.37013244628906 C-88.01708221435547,37.03604507446289 -78.79561614990234,29.380441665649414 -70.23101806640625,19.379777908325195 C-57.66813659667969,4.710290908813477 -40.4640007019043,-13.182000160217285 -29.91200065612793,-23.02400016784668 C-7.752999782562256,-43.69200134277344 -1.4750899076461792,-47.408287048339844 15.56506061553955,-63.90581130981445 C28.30143165588379,-76.23695373535156 33.70083236694336,-85.9465103149414 41.230960845947266,-85.92005157470703z"/></g></g><g style="display: block;" transform="matrix(1,0,0,1,0,0)" opacity="1"><g opacity="1" transform="matrix(1,0,0,1,325.5299987792969,335.7070007324219)"><path stroke-linecap="round" stroke-linejoin="miter" fill-opacity="0" stroke-miterlimit="4" stroke="rgb(153,117,88)" stroke-opacity="1" stroke-width="8" d=" M68.18099975585938,-69.9000015258789 C76.64099884033203,-62.27899932861328 84.11100006103516,-53.46500015258789 86.49600219726562,-47.10100173950195 C89.22615051269531,-39.81159973144531 86.07920837402344,-37.785335540771484 66.72515869140625,-19.435606002807617 C43.0973014831543,2.9674875736236572 34.72899627685547,19.346181869506836 -8.692361831665039,56.97130584716797 C-28.012401580810547,73.71147155761719 -33.65700149536133,84.40626525878906 -41.83916473388672,86.01187133789062 C-47.18199920654297,87.05999755859375 -63.69499969482422,75.69300079345703 -75.28500366210938,62.729000091552734"/></g></g></g></g></g></svg>