<svg xmlns="http://www.w3.org/2000/svg" xmlns:xlink="http://www.w3.org/1999/xlink" viewBox="0 0 512 512" width="512" height="512" style="width: 100%; height: 100%; transform: translate3d(0,0,0);" preserveAspectRatio="xMidYMid meet"><defs><clipPath id="__lottie_element_2344"><rect width="512" height="512" x="0" y="0"/></clipPath><clipPath id="__lottie_element_2346"><path d="M0,0 L512,0 L512,512 L0,512z"/></clipPath><linearGradient id="__lottie_element_2353" spreadMethod="pad" gradientUnits="userSpaceOnUse" x1="-0.25200000405311584" y1="112.12200164794922" x2="-0.25200000405311584" y2="-25.555999755859375"><stop offset="0%" stop-color="rgb(212,212,212)"/><stop offset="50%" stop-color="rgb(234,234,234)"/><stop offset="100%" stop-color="rgb(255,255,255)"/></linearGradient><linearGradient id="__lottie_element_2356" spreadMethod="pad" gradientUnits="userSpaceOnUse" x1="-0.25200000405311584" y1="112.12200164794922" x2="-0.25200000405311584" y2="-25.555999755859375"><stop offset="0%" stop-color="rgb(212,212,212)"/><stop offset="50%" stop-color="rgb(234,234,234)"/><stop offset="100%" stop-color="rgb(255,255,255)"/></linearGradient><linearGradient id="__lottie_element_2367" spreadMethod="pad" gradientUnits="userSpaceOnUse" x1="-0.6660000085830688" y1="133.7969970703125" x2="-0.6660000085830688" y2="-226.3730010986328"><stop offset="0%" stop-color="rgb(168,167,166)"/><stop offset="50%" stop-color="rgb(101,100,99)"/><stop offset="100%" stop-color="rgb(34,34,32)"/></linearGradient><linearGradient id="__lottie_element_2370" spreadMethod="pad" gradientUnits="userSpaceOnUse" x1="5.334000110626221" y1="412.7969970703125" x2="-3.740000009536743" y2="-220.5679931640625"><stop offset="0%" stop-color="rgb(252,254,254)"/><stop offset="50%" stop-color="rgb(152,153,153)"/><stop offset="100%" stop-color="rgb(52,52,52)"/></linearGradient><clipPath id="__lottie_element_2378"><path d="M0,0 L512,0 L512,512 L0,512z"/></clipPath><linearGradient id="__lottie_element_2385" spreadMethod="pad" gradientUnits="userSpaceOnUse"><stop/><stop/><stop/></linearGradient><linearGradient id="__lottie_element_2388" spreadMethod="pad" gradientUnits="userSpaceOnUse"><stop/><stop/><stop/></linearGradient><linearGradient id="__lottie_element_2399" spreadMethod="pad" gradientUnits="userSpaceOnUse"><stop/><stop/><stop/></linearGradient><linearGradient id="__lottie_element_2402" spreadMethod="pad" gradientUnits="userSpaceOnUse"><stop/><stop/><stop/></linearGradient></defs><g clip-path="url(#__lottie_element_2344)"><g clip-path="url(#__lottie_element_2346)" style="display: block;" transform="matrix(1,0,0,1,0,0)" opacity="1"><g style="display: block;" transform="matrix(1,0,0,1,256.3659973144531,256)" opacity="1"><g opacity="1" transform="matrix(1,0,0,1,0,0)"><path fill="url(#__lottie_element_2367)" fill-opacity="1" d=" M125.18699645996094,210.5 C125.18699645996094,210.5 -125.43800354003906,210.5 -125.43800354003906,210.5 C-172.55499267578125,210.5 -210.75,172.30499267578125 -210.75,125.18800354003906 C-210.75,125.18800354003906 -210.75,-125.43699645996094 -210.75,-125.43699645996094 C-210.75,-172.5540008544922 -172.55499267578125,-210.75 -125.43800354003906,-210.75 C-125.43800354003906,-210.75 125.18699645996094,-210.75 125.18699645996094,-210.75 C172.3040008544922,-210.75 210.5,-172.5540008544922 210.5,-125.43699645996094 C210.5,-125.43699645996094 210.5,125.18800354003906 210.5,125.18800354003906 C210.5,172.30499267578125 172.3040008544922,210.5 125.18699645996094,210.5z"/></g></g><g style="display: block;" transform="matrix(1,0,0,1,256.3659973144531,256)" opacity="1"><g opacity="1" transform="matrix(1,0,0,1,0,0)"><path stroke-linecap="round" stroke-linejoin="round" fill-opacity="0" stroke="rgb(43,43,41)" stroke-opacity="1" stroke-width="8" d=" M125.18699645996094,210.5 C125.18699645996094,210.5 -125.43800354003906,210.5 -125.43800354003906,210.5 C-172.55499267578125,210.5 -210.75,172.30499267578125 -210.75,125.18800354003906 C-210.75,125.18800354003906 -210.75,-125.43699645996094 -210.75,-125.43699645996094 C-210.75,-172.5540008544922 -172.55499267578125,-210.75 -125.43800354003906,-210.75 C-125.43800354003906,-210.75 125.18699645996094,-210.75 125.18699645996094,-210.75 C172.3040008544922,-210.75 210.5,-172.5540008544922 210.5,-125.43699645996094 C210.5,-125.43699645996094 210.5,125.18800354003906 210.5,125.18800354003906 C210.5,172.30499267578125 172.3040008544922,210.5 125.18699645996094,210.5z"/></g></g><g style="display: block;" transform="matrix(1,0,0,1,256.3659973144531,338.927001953125)" opacity="1"><g opacity="1" transform="matrix(1,0,0,1,0,0)"><path stroke-linecap="round" stroke-linejoin="round" fill-opacity="0" stroke="rgb(63,63,61)" stroke-opacity="1" stroke-width="8" d=" M210.50900268554688,-57.10499954223633 C210.50900268554688,-57.10499954223633 210.50900268554688,41.56700134277344 210.50900268554688,41.56700134277344 C210.50900268554688,88.72100067138672 172.3070068359375,126.947998046875 125.18299865722656,126.947998046875 C125.18299865722656,126.947998046875 -125.47899627685547,126.947998046875 -125.47899627685547,126.947998046875 C-172.60299682617188,126.947998046875 -210.8040008544922,88.72100067138672 -210.8040008544922,41.56700134277344 C-210.8040008544922,41.56700134277344 -210.8040008544922,-49.83300018310547 -210.8040008544922,-49.83300018310547"/></g></g><g style="display: block;" transform="matrix(1,0,0,1,256.3659973144531,256)" opacity="1"><g opacity="1" transform="matrix(1,0,0,1,0,0)"><path fill="url(#__lottie_element_2370)" fill-opacity="1" d=" M120.56999969482422,195.75 C120.56999969482422,195.75 -120.18699645996094,195.75 -120.18699645996094,195.75 C-161.70799255371094,195.75 -195.36599731445312,162.09100341796875 -195.36599731445312,120.56999969482422 C-195.36599731445312,120.56999969482422 -195.36599731445312,-120.18699645996094 -195.36599731445312,-120.18699645996094 C-195.36599731445312,-161.70799255371094 -161.70799255371094,-195.36700439453125 -120.18699645996094,-195.36700439453125 C-120.18699645996094,-195.36700439453125 120.56999969482422,-195.36700439453125 120.56999969482422,-195.36700439453125 C162.09100341796875,-195.36700439453125 195.75,-161.70799255371094 195.75,-120.18699645996094 C195.75,-120.18699645996094 195.75,120.56999969482422 195.75,120.56999969482422 C195.75,162.09100341796875 162.09100341796875,195.75 120.56999969482422,195.75z"/></g></g><g style="display: block;" transform="matrix(1,0,0,1,254.95199584960938,269.67498779296875)" opacity="1"><g opacity="1" transform="matrix(1,0,0,1,0,0)"><path fill="rgb(110,110,109)" fill-opacity="1" d=" M-162.24200439453125,7.073999881744385 C-162.24200439453125,7.073999881744385 -113.55500030517578,-40.84000015258789 -113.55500030517578,-40.84000015258789 C-111.177001953125,-43.180999755859375 -107.33799743652344,-43.10200119018555 -105.05699920654297,-40.66699981689453 C-105.05699920654297,-40.66699981689453 10.041999816894531,85.5260009765625 10.041999816894531,85.5260009765625 C11.295999526977539,86.86499786376953 -37.766998291015625,140.3719940185547 -37.766998291015625,140.3719940185547 C-40.090999603271484,143.0189971923828 -44.194000244140625,143.072998046875 -46.58700180053711,140.48800659179688 C-46.58700180053711,140.48800659179688 -162.4340057373047,15.34000015258789 -162.4340057373047,15.34000015258789 C-164.61399841308594,12.984999656677246 -164.5290069580078,9.324999809265137 -162.24200439453125,7.073999881744385z"/></g></g><g style="display: block;" transform="matrix(1,0,0,1,254.95199584960938,269.67498779296875)" opacity="1"><g opacity="1" transform="matrix(1,0,0,1,0,0)"><path fill="rgb(110,110,109)" fill-opacity="1" d=" M-93.86499786376953,87.93900299072266 C-93.86499786376953,87.93900299072266 102.68900299072266,-140.3459930419922 102.68900299072266,-140.3459930419922 C104.8479995727539,-142.83399963378906 108.61900329589844,-143.08900451660156 111.09300231933594,-140.9149932861328 C111.09300231933594,-140.9149932861328 161.9969940185547,-96.18099975585938 161.9969940185547,-96.18099975585938 C164.4600067138672,-94.01699829101562 164.70199584960938,-90.26799774169922 162.53900146484375,-87.80400085449219 C162.53900146484375,-87.80400085449219 -37.766998291015625,140.3719940185547 -37.766998291015625,140.3719940185547 C-40.090999603271484,143.0189971923828 -44.194000244140625,143.072998046875 -46.58700180053711,140.48800659179688 C-46.58700180053711,140.48800659179688 -95.06700134277344,89.3239974975586 -93.86499786376953,87.93900299072266z"/></g></g><g style="display: block;" transform="matrix(1,0,0,1,254.95199584960938,256.67498779296875)" opacity="1"><g opacity="1" transform="matrix(1,0,0,1,0,0)"><path fill="url(#__lottie_element_2353)" fill-opacity="1" d=" M-162.24200439453125,7.073999881744385 C-162.24200439453125,7.073999881744385 -113.55500030517578,-40.84000015258789 -113.55500030517578,-40.84000015258789 C-111.177001953125,-43.180999755859375 -107.33799743652344,-43.10200119018555 -105.05699920654297,-40.66699981689453 C-105.05699920654297,-40.66699981689453 10.041999816894531,85.5260009765625 10.041999816894531,85.5260009765625 C11.295999526977539,86.86499786376953 -37.766998291015625,140.3719940185547 -37.766998291015625,140.3719940185547 C-40.090999603271484,143.0189971923828 -44.194000244140625,143.072998046875 -46.58700180053711,140.48800659179688 C-46.58700180053711,140.48800659179688 -162.4340057373047,15.34000015258789 -162.4340057373047,15.34000015258789 C-164.61399841308594,12.984999656677246 -164.5290069580078,9.324999809265137 -162.24200439453125,7.073999881744385z"/></g></g><g style="display: block;" transform="matrix(1,0,0,1,254.95199584960938,256.67498779296875)" opacity="1"><g opacity="1" transform="matrix(1,0,0,1,0,0)"><path fill="url(#__lottie_element_2356)" fill-opacity="1" d=" M-93.86499786376953,87.93900299072266 C-93.86499786376953,87.93900299072266 102.68900299072266,-140.3459930419922 102.68900299072266,-140.3459930419922 C104.8479995727539,-142.83399963378906 108.61900329589844,-143.08900451660156 111.09300231933594,-140.9149932861328 C111.09300231933594,-140.9149932861328 161.9969940185547,-96.18099975585938 161.9969940185547,-96.18099975585938 C164.4600067138672,-94.01699829101562 164.70199584960938,-90.26799774169922 162.53900146484375,-87.80400085449219 C162.53900146484375,-87.80400085449219 -37.766998291015625,140.3719940185547 -37.766998291015625,140.3719940185547 C-40.090999603271484,143.0189971923828 -44.194000244140625,143.072998046875 -46.58700180053711,140.48800659179688 C-46.58700180053711,140.48800659179688 -95.06700134277344,89.3239974975586 -93.86499786376953,87.93900299072266z"/></g></g></g></g></svg>