<svg xmlns="http://www.w3.org/2000/svg" xmlns:xlink="http://www.w3.org/1999/xlink" viewBox="0 0 512 512" width="512" height="512" style="width: 100%; height: 100%; transform: translate3d(0,0,0);" preserveAspectRatio="xMidYMid meet"><defs><clipPath id="__lottie_element_21669"><rect width="512" height="512" x="0" y="0"/></clipPath><linearGradient id="__lottie_element_21678" spreadMethod="pad" gradientUnits="userSpaceOnUse" x1="-1.0399999618530273" y1="-176.5" x2="0.9599999785423279" y2="188.88900756835938"><stop offset="0%" stop-color="rgb(253,207,24)"/><stop offset="47%" stop-color="rgb(245,171,12)"/><stop offset="93%" stop-color="rgb(237,135,0)"/></linearGradient><radialGradient id="__lottie_element_21679" spreadMethod="pad" gradientUnits="userSpaceOnUse" cx="-6.039999961853027" cy="-160.1230010986328" r="342.6724710471032" fx="-6.039999961853027" fy="-160.1230010986328"><stop offset="7%" stop-color="rgb(254,254,226)"/><stop offset="28%" stop-color="rgb(253,238,140)"/><stop offset="49%" stop-color="rgb(252,222,54)"/><stop offset="82%" stop-color="rgb(245,184,32)"/><stop offset="100%" stop-color="rgb(238,145,10)"/></radialGradient><linearGradient id="__lottie_element_21684" spreadMethod="pad" gradientUnits="userSpaceOnUse" x1="57.28499984741211" y1="-102.4209976196289" x2="58.25" y2="-9.708000183105469"><stop offset="0%" stop-color="rgb(255,255,255)"/><stop offset="57%" stop-color="rgb(255,255,255)"/><stop offset="100%" stop-color="rgb(255,255,255)"/></linearGradient><mask id="__lottie_element_21686"><path fill="url(#__lottie_element_21685)" d=" M125.83599853515625,-58.106998443603516 C125.83599853515625,-19.85099983215332 94.8219985961914,11.163000106811523 56.566001892089844,11.163000106811523 C18.309999465942383,11.163000106811523 -12.70300006866455,-19.85099983215332 -12.70300006866455,-58.106998443603516 C-12.70300006866455,-96.36299896240234 18.309999465942383,-127.3759994506836 56.566001892089844,-127.3759994506836 C94.8219985961914,-127.3759994506836 125.83599853515625,-96.36299896240234 125.83599853515625,-58.106998443603516z"/></mask><linearGradient id="__lottie_element_21685" spreadMethod="pad" gradientUnits="userSpaceOnUse" x1="57.28499984741211" y1="-102.4209976196289" x2="58.25" y2="-9.708000183105469"><stop stop-color="rgb(255,255,255)" offset="0%" stop-opacity="1"/><stop stop-color="rgb(255,255,255)" offset="54%" stop-opacity="0.75"/><stop stop-color="rgb(255,255,255)" offset="100%" stop-opacity="0.5"/></linearGradient><linearGradient id="__lottie_element_21687" spreadMethod="pad" gradientUnits="userSpaceOnUse" x1="142.7270050048828" y1="100.47899627685547" x2="139.80799865722656" y2="-48.05500030517578"><stop offset="0%" stop-color="rgb(239,146,4)"/><stop offset="33%" stop-color="rgb(236,159,18)"/><stop offset="100%" stop-color="rgb(234,172,31)"/></linearGradient></defs><g clip-path="url(#__lottie_element_21669)"><g style="display: block;" transform="matrix(1.0300021171569824,0,0,1.0300021171569824,253.39947509765625,266.00042724609375)" opacity="1"><g opacity="1" transform="matrix(1,0,0,1,3.0319998264312744,-5.188000202178955)"><g opacity="1" transform="matrix(0.9700000286102295,0,0,0.9700000286102295,0.04500000178813934,-4.2769999504089355)"><path fill="url(#__lottie_element_21678)" fill-opacity="1" d=" M194.9969940185547,0 C194.9969940185547,107.69400024414062 107.69300079345703,194.9969940185547 0,194.9969940185547 C-107.69400024414062,194.9969940185547 -194.9969940185547,107.69400024414062 -194.9969940185547,0 C-194.9969940185547,-107.69400024414062 -107.69400024414062,-194.9969940185547 0,-194.9969940185547 C107.69300079345703,-194.9969940185547 194.9969940185547,-107.69400024414062 194.9969940185547,0z"/><path stroke-linecap="butt" stroke-linejoin="miter" fill-opacity="0" stroke-miterlimit="4" stroke="rgb(231,105,0)" stroke-opacity="1" stroke-width="8.26" d=" M194.9969940185547,0 C194.9969940185547,107.69400024414062 107.69300079345703,194.9969940185547 0,194.9969940185547 C-107.69400024414062,194.9969940185547 -194.9969940185547,107.69400024414062 -194.9969940185547,0 C-194.9969940185547,-107.69400024414062 -107.69400024414062,-194.9969940185547 0,-194.9969940185547 C107.69300079345703,-194.9969940185547 194.9969940185547,-107.69400024414062 194.9969940185547,0z"/></g><g opacity="1" transform="matrix(0.9700000286102295,0,0,0.9700000286102295,0.10199999809265137,-6.083000183105469)"><path fill="url(#__lottie_element_21679)" fill-opacity="1" d=" M173.80799865722656,2.6630001068115234 C172.3040008544922,100.77200317382812 93.26899719238281,179.11199951171875 -2.7230000495910645,177.63999938964844 C-98.71399688720703,176.16799926757812 -175.31199645996094,95.44499969482422 -173.80799865722656,-2.6640000343322754 C-172.3040008544922,-100.77300262451172 -93.26899719238281,-179.11199951171875 2.7230000495910645,-177.64100646972656 C98.71399688720703,-176.16900634765625 175.31199645996094,-95.44499969482422 173.80799865722656,2.6630001068115234z"/></g></g></g><g style="display: block;" transform="matrix(1.0300021171569824,0,0,1.0300021171569824,253.3992919921875,266.0003967285156)" opacity="1"><g opacity="1" transform="matrix(1,0,0,1,0,0)"><g opacity="1" transform="matrix(1,0,0,1,0,0)"><path fill="rgb(234,172,31)" fill-opacity="1" d=" M36.27799987792969,58.21799850463867 C35.672000885009766,58.21799850463867 35.055999755859375,58.07899856567383 34.47800064086914,57.78799819946289 C-18.01099967956543,31.295000076293945 -62.93600082397461,43.5890007019043 -63.38399887084961,43.715999603271484 C-65.50700378417969,44.314998626708984 -68.93800354003906,48.566001892089844 -69.9209976196289,46.5880012512207 C-72.7020034790039,40.98899841308594 -68.47699737548828,35.6619987487793 -65.57099914550781,35.02000045776367 C-60.64099884033203,33.930999755859375 -17.108999252319336,21.64299964904785 38.08300018310547,49.64500045776367 C42.527000427246094,51.900001525878906 43.96699905395508,56.96099853515625 42.06800079345703,61.21799850463867 C41.43199920654297,62.64400100708008 37.7400016784668,58.21799850463867 36.27799987792969,58.21799850463867z"/></g></g><g opacity="1" transform="matrix(1,0,0,1,0,0)"><g opacity="1" transform="matrix(1,0,0,1,0,0)"><path fill="rgb(254,221,120)" fill-opacity="1" d=" M34.47800064086914,64.78800201416016 C-18.01099967956543,38.29499816894531 -62.92300033569336,50.650001525878906 -63.38399887084961,50.715999603271484 C-65.52799987792969,51.025001525878906 -69.06199645996094,50.409000396728516 -69.7979965209961,46.58300018310547 C-70.43900299072266,43.25199890136719 -68.46399688720703,40.2599983215332 -66.33899688720703,39.65599822998047 C-64.38899993896484,39.10100173950195 -16.173999786376953,26.472000122070312 39.077999114990234,54.35599899291992 C41.04999923706055,55.35200119018555 43.26300048828125,59.6510009765625 41.31100082397461,62.790000915527344 C38.97999954223633,66.53900146484375 35.055999755859375,65.0790023803711 34.47800064086914,64.78800201416016z"/></g></g><g opacity="1" transform="matrix(1,0,0,1,0,0)"><g opacity="1" transform="matrix(1,0,0,1,0,0)"><path fill="rgb(139,67,1)" fill-opacity="1" d=" M36.27799987792969,61.21799850463867 C35.672000885009766,61.21799850463867 35.055999755859375,61.07899856567383 34.47800064086914,60.78799819946289 C-18.01099967956543,34.29499816894531 -62.93600082397461,46.5890007019043 -63.38399887084961,46.715999603271484 C-65.50700378417969,47.314998626708984 -67.72100067138672,46.08700180053711 -68.32499694824219,43.96200180053711 C-68.92900085449219,41.83700180053711 -67.69599914550781,39.624000549316406 -65.57099914550781,39.02000045776367 C-63.62099838256836,38.46500015258789 -17.16900062561035,25.76099967956543 38.08300018310547,53.64500045776367 C40.05500030517578,54.64099884033203 40.84700012207031,57.04600143432617 39.85200119018555,59.01900100708008 C39.14799880981445,60.41299819946289 37.7400016784668,61.21799850463867 36.27799987792969,61.21799850463867z"/></g></g></g><g style="display: block;" transform="matrix(1.0300021171569824,0,0,1.0300021171569824,253.39990234375,266.0002746582031)" opacity="1"><g opacity="1" transform="matrix(1,0,0,1,0,0)"><g opacity="1" transform="matrix(1,0,0,1,0,0)"><path fill="rgb(234,172,31)" fill-opacity="1" d=" M-46.98500061035156,-65.55400085449219 C-49.96900177001953,-51.15599822998047 -61.22600173950195,-41.316001892089844 -72.12799835205078,-43.57500076293945 C-83.02999877929688,-45.83399963378906 -89.4489974975586,-59.33700180053711 -86.46499633789062,-73.73500061035156 C-83.48100280761719,-88.13300323486328 -72.2249984741211,-97.9729995727539 -61.323001861572266,-95.71399688720703 C-50.42100143432617,-93.45500183105469 -44.000999450683594,-79.9520034790039 -46.98500061035156,-65.55400085449219z"/></g></g><g opacity="1" transform="matrix(1,0,0,1,0,0)"><g opacity="1" transform="matrix(1,0,0,1,0,0)"><path fill="rgb(255,225,156)" fill-opacity="1" d=" M-48.926998138427734,-56.18199920654297 C-51.9109992980957,-41.784000396728516 -63.167999267578125,-31.944000244140625 -74.06999969482422,-34.202999114990234 C-84.97200012207031,-36.46200180053711 -91.39099884033203,-49.965999603271484 -88.40699768066406,-64.36399841308594 C-85.4229965209961,-78.76200103759766 -74.16699981689453,-88.60199737548828 -63.26499938964844,-86.34300231933594 C-52.362998962402344,-84.08399963378906 -45.94300079345703,-70.58000183105469 -48.926998138427734,-56.18199920654297z"/></g><g opacity="1" transform="matrix(1,0,0,1,0,0)"><path fill="rgb(151,72,0)" fill-opacity="1" d=" M-49.12200164794922,-61.452999114990234 C-52.10599899291992,-47.05500030517578 -62.808998107910156,-37.099998474121094 -73.02999877929688,-39.21799850463867 C-83.2509994506836,-41.33599853515625 -89.11799621582031,-54.724998474121094 -86.13400268554688,-69.12300109863281 C-83.1500015258789,-83.52100372314453 -72.44599914550781,-93.47599792480469 -62.224998474121094,-91.35800170898438 C-52.00400161743164,-89.23999786376953 -46.13800048828125,-75.85099792480469 -49.12200164794922,-61.452999114990234z"/></g><g opacity="1" transform="matrix(1,0,0,1,0,0)"><path fill="rgb(99,41,0)" fill-opacity="1" d=" M-49.12200164794922,-61.45000076293945 C-49.35900115966797,-60.30500030517578 -49.64699935913086,-59.1879997253418 -49.98400115966797,-58.106998443603516 C-48.48899841308594,-71.16100311279297 -54.2130012512207,-82.66000366210938 -63.62300109863281,-84.61000061035156 C-73.03299713134766,-86.55999755859375 -82.85399627685547,-78.28199768066406 -86.66999816894531,-65.70899963378906 C-86.54900360107422,-66.83499908447266 -86.36900329589844,-67.9749984741211 -86.13200378417969,-69.12000274658203 C-83.14800262451172,-83.52200317382812 -72.44400024414062,-93.4729995727539 -62.224998474121094,-91.3550033569336 C-52.00600051879883,-89.23699951171875 -46.13800048828125,-75.85199737548828 -49.12200164794922,-61.45000076293945z"/></g></g></g><g style="display: block;" transform="matrix(-0.955290675163269,-0.3851287364959717,-0.3851287364959717,0.955290675163269,208.0803985595703,248.42913818359375)" opacity="1"><g opacity="1" transform="matrix(1,0,0,1,0,0)"><g opacity="1" transform="matrix(1,0,0,1,0,0)"><path fill="rgb(234,172,31)" fill-opacity="1" d=" M-46.98500061035156,-65.55400085449219 C-49.96900177001953,-51.15599822998047 -61.22600173950195,-41.316001892089844 -72.12799835205078,-43.57500076293945 C-83.02999877929688,-45.83399963378906 -89.4489974975586,-59.33700180053711 -86.46499633789062,-73.73500061035156 C-83.48100280761719,-88.13300323486328 -72.2249984741211,-97.9729995727539 -61.323001861572266,-95.71399688720703 C-50.42100143432617,-93.45500183105469 -44.000999450683594,-79.9520034790039 -46.98500061035156,-65.55400085449219z"/></g></g><g opacity="1" transform="matrix(1,0,0,1,0,0)"><g opacity="1" transform="matrix(1,0,0,1,0,0)"><path fill="rgb(255,225,156)" fill-opacity="1" d=" M-48.926998138427734,-56.18199920654297 C-51.9109992980957,-41.784000396728516 -63.167999267578125,-31.944000244140625 -74.06999969482422,-34.202999114990234 C-84.97200012207031,-36.46200180053711 -91.39099884033203,-49.965999603271484 -88.40699768066406,-64.36399841308594 C-85.4229965209961,-78.76200103759766 -74.16699981689453,-88.60199737548828 -63.26499938964844,-86.34300231933594 C-52.362998962402344,-84.08399963378906 -45.94300079345703,-70.58000183105469 -48.926998138427734,-56.18199920654297z"/></g><g opacity="1" transform="matrix(1,0,0,1,0,0)"><path fill="rgb(151,72,0)" fill-opacity="1" d=" M-49.12200164794922,-61.452999114990234 C-52.10599899291992,-47.05500030517578 -62.808998107910156,-37.099998474121094 -73.02999877929688,-39.21799850463867 C-83.2509994506836,-41.33599853515625 -89.11799621582031,-54.724998474121094 -86.13400268554688,-69.12300109863281 C-83.1500015258789,-83.52100372314453 -72.44599914550781,-93.47599792480469 -62.224998474121094,-91.35800170898438 C-52.00400161743164,-89.23999786376953 -46.13800048828125,-75.85099792480469 -49.12200164794922,-61.452999114990234z"/></g><g opacity="1" transform="matrix(1,0,0,1,0,0)"><path fill="rgb(99,41,0)" fill-opacity="1" d=" M-49.12200164794922,-61.45000076293945 C-49.35900115966797,-60.30500030517578 -49.64699935913086,-59.1879997253418 -49.98400115966797,-58.106998443603516 C-48.48899841308594,-71.16100311279297 -54.2130012512207,-82.66000366210938 -63.62300109863281,-84.61000061035156 C-73.03299713134766,-86.55999755859375 -82.85399627685547,-78.28199768066406 -86.66999816894531,-65.70899963378906 C-86.54900360107422,-66.83499908447266 -86.36900329589844,-67.9749984741211 -86.13200378417969,-69.12000274658203 C-83.14800262451172,-83.52200317382812 -72.44400024414062,-93.4729995727539 -62.224998474121094,-91.3550033569336 C-52.00600051879883,-89.23699951171875 -46.13800048828125,-75.85199737548828 -49.12200164794922,-61.45000076293945z"/></g></g></g><g style="display: block;" transform="matrix(1.0300021171569824,0,0,1.0300021171569824,253.4005126953125,266.0011291503906)" opacity="1"><g opacity="1" transform="matrix(1,0,0,1,0,0)"><path fill="rgb(255,226,166)" fill-opacity="1" d=" M88.5,-129.48300170898438 C81.15599822998047,-137.55799865722656 64.29900360107422,-138.55299377441406 46.70399856567383,-132.74899291992188 C28.756000518798828,-126.8280029296875 15.498000144958496,-130.6790008544922 13.175000190734863,-122.98100280761719 C11.413999557495117,-117.14399719238281 16.38800048828125,-111.91899871826172 21.895000457763672,-111.93900299072266 C29.979999542236328,-111.96800231933594 36.6619987487793,-115.41400146484375 44.95800018310547,-119.3499984741211 C58.26599884033203,-125.66500091552734 67.83899688720703,-126.44999694824219 78.06099700927734,-121.91300201416016 C85.68800354003906,-118.52799987792969 88.53399658203125,-113.6500015258789 90.59300231933594,-114.77200317382812 C93.94300079345703,-116.5979995727539 93.71299743652344,-123.7509994506836 88.5,-129.48300170898438z"/></g><g opacity="1" transform="matrix(1,0,0,1,0,0)"><path fill="rgb(151,72,0)" fill-opacity="1" d=" M86.26899719238281,-131.62399291992188 C77.93000030517578,-138.66799926757812 64.61499786376953,-142.54100036621094 47.02000045776367,-136.73699951171875 C29.07200050354004,-130.8159942626953 15.829000473022461,-132.3509979248047 13.505999565124512,-124.65299987792969 C11.744999885559082,-118.81600189208984 16.70400047302246,-115.90699768066406 22.211000442504883,-115.927001953125 C30.29599952697754,-115.95600128173828 36.97800064086914,-119.4020004272461 45.27399826049805,-123.33799743652344 C58.582000732421875,-129.6529998779297 68.15399932861328,-130.43800354003906 78.3759994506836,-125.9010009765625 C86.00299835205078,-122.51599884033203 88.8499984741211,-117.63700103759766 90.90899658203125,-118.75900268554688 C94.25900268554688,-120.58499908447266 91.90399932861328,-126.86399841308594 86.26899719238281,-131.62399291992188z"/></g><g opacity="1" transform="matrix(1,0,0,1,0,0)"><path fill="rgb(99,41,0)" fill-opacity="1" d=" M91.99400329589844,-119.78600311279297 C91.35700225830078,-122.38400268554688 89.26000213623047,-125.75299835205078 85.9280014038086,-128.30799865722656 C77.88200378417969,-134.47799682617188 67.94300079345703,-139.3000030517578 46.68000030517578,-132.42100524902344 C27.459999084472656,-126.2030029296875 15.565999984741211,-129.03500366210938 13.241000175476074,-121.33499908447266 C13.057000160217285,-122.31300354003906 13.135000228881836,-123.41999816894531 13.503999710083008,-124.65499877929688 C15.829000473022461,-132.3560028076172 29.06800079345703,-130.8159942626953 47.020999908447266,-136.73800659179688 C64.61399841308594,-142.53799438476562 77.92900085449219,-138.6649932861328 86.2699966430664,-131.625 C91.10299682617188,-127.54100036621094 93.5199966430664,-122.34300231933594 91.99400329589844,-119.78600311279297z"/></g></g><g style="display: block;" transform="matrix(1.0300021171569824,0,0,1.0300021171569824,253.4009246826172,266)" opacity="1"><g opacity="1" transform="matrix(1,0,0,1,0,0)"><path fill="rgb(255,226,166)" fill-opacity="1" d=" M-55.35599899291992,-109.95600128173828 C-64.06600189208984,-114.57099914550781 -79.37000274658203,-123.32099914550781 -96.79299926757812,-114.43800354003906 C-115.71800231933594,-104.79000091552734 -110.18900299072266,-93.75299835205078 -102.84400177001953,-97.68199920654297 C-95.4990005493164,-101.61100006103516 -81.97799682617188,-110.66300201416016 -68.66699981689453,-103.48899841308594 C-55.35599899291992,-96.31500244140625 -50.06100082397461,-91.04499816894531 -36.224998474121094,-91.89900207519531 C-22.388999938964844,-92.75299835205078 -22.430999755859375,-110.09400177001953 -29.434999465942383,-110.43599700927734 C-36.43899917602539,-110.77799987792969 -43.96799850463867,-103.9229965209961 -55.35599899291992,-109.95600128173828z"/></g><g opacity="1" transform="matrix(1,0,0,1,0,0)"><path fill="rgb(151,72,0)" fill-opacity="1" d=" M-55.35599899291992,-113.95600128173828 C-64.06600189208984,-118.57099914550781 -77.56300354003906,-125.27999877929688 -94.98600006103516,-116.39700317382812 C-113.91100311279297,-106.7490005493164 -110.18900299072266,-97.75299835205078 -102.84400177001953,-101.68199920654297 C-95.4990005493164,-105.61100006103516 -81.97799682617188,-114.66300201416016 -68.66699981689453,-107.48899841308594 C-55.35599899291992,-100.31500244140625 -50.06100082397461,-95.04499816894531 -36.224998474121094,-95.89900207519531 C-22.388999938964844,-96.75299835205078 -23.7549991607666,-111.24700164794922 -30.759000778198242,-111.58899688720703 C-37.76300048828125,-111.93099975585938 -43.96799850463867,-107.9229965209961 -55.35599899291992,-113.95600128173828z"/></g><g opacity="1" transform="matrix(1,0,0,1,0,0)"><path fill="rgb(99,41,0)" fill-opacity="1" d=" M-25.749000549316406,-103.46299743652344 C-26.268999099731445,-106.14299774169922 -28.108999252319336,-107.29299926757812 -30.759000778198242,-107.4229965209961 C-37.75899887084961,-107.76300048828125 -43.96900177001953,-103.75299835205078 -55.35900115966797,-109.78299713134766 C-64.06900024414062,-114.40299987792969 -77.55899810791016,-121.11299896240234 -94.98899841308594,-112.23300170898438 C-103.36900329589844,-107.9530029296875 -107.30899810791016,-104.81300354003906 -108.45899963378906,-101.86299896240234 C-109.95899963378906,-104.26300048828125 -107.14900207519531,-110.19300079345703 -94.98899841308594,-116.39299774169922 C-77.55899810791016,-125.28299713134766 -64.06900024414062,-118.572998046875 -55.35900115966797,-113.9530029296875 C-43.96900177001953,-107.9229965209961 -37.75899887084961,-111.93299865722656 -30.759000778198242,-111.59300231933594 C-27.108999252319336,-111.41300201416016 -24.98900032043457,-107.39299774169922 -25.749000549316406,-103.46299743652344z"/></g></g><g style="display: block;" transform="matrix(1.0300021171569824,0,0,1.0300021171569824,253.39926147460938,266.0005798339844)" opacity="1"><g opacity="0.85" transform="matrix(1,0,0,1,0,0)"><path fill="rgb(234,172,31)" fill-opacity="1" d=" M134.25100708007812,-52.62300109863281 C134.25100708007812,-12.793000221252441 99.88099670410156,20.506999969482422 60.05099868774414,20.506999969482422 C15.532999992370605,20.506999969482422 -16.07900047302246,-12.793000221252441 -16.07900047302246,-52.62300109863281 C-16.07900047302246,-69.6729965209961 -10.168999671936035,-85.33300018310547 -0.27900001406669617,-97.68299865722656 C-8.109000205993652,-86.4729995727539 -12.699000358581543,-72.822998046875 -12.699000358581543,-58.10300064086914 C-12.699000358581543,-19.85300064086914 18.31100082397461,11.166999816894531 56.56100082397461,11.166999816894531 C94.82099914550781,11.166999816894531 125.83100128173828,-19.85300064086914 125.83100128173828,-58.10300064086914 C125.83100128173828,-58.10300064086914 134.25100708007812,-52.62300109863281 134.25100708007812,-52.62300109863281z"/></g><g opacity="0.47000000000000003" transform="matrix(1,0,0,1,0,0)"><path fill="url(#__lottie_element_21684)" mask="url(#__lottie_element_21686)" fill-opacity="1" d="M0 0 M125.83599853515625,-58.106998443603516 C125.83599853515625,-19.85099983215332 94.8219985961914,11.163000106811523 56.566001892089844,11.163000106811523 C18.309999465942383,11.163000106811523 -12.70300006866455,-19.85099983215332 -12.70300006866455,-58.106998443603516 C-12.70300006866455,-96.36299896240234 18.309999465942383,-127.3759994506836 56.566001892089844,-127.3759994506836 C94.8219985961914,-127.3759994506836 125.83599853515625,-96.36299896240234 125.83599853515625,-58.106998443603516z"/></g><g opacity="0.85" transform="matrix(1,0,0,1,0,0)"><g opacity="1" transform="matrix(1,0,0,1,0,0)"><path fill="url(#__lottie_element_21687)" fill-opacity="1" d=" M157.781005859375,61.676998138427734 C155.49099731445312,75.97699737548828 152.68600463867188,86.60299682617188 152.28599548339844,101.85299682617188 C149.71600341796875,105.2030029296875 147.03599548339844,108.46399688720703 144.23599243164062,111.6240005493164 C143.67599487304688,92.25399780273438 146.05099487304688,78.12699890136719 148.88099670410156,60.41699981689453 C152.2010040283203,39.6870002746582 156.33099365234375,20.10700035095215 153.66099548339844,-0.4830000102519989 C149.6510009765625,-31.503000259399414 137.4709930419922,-46.053001403808594 130.43099975585938,-52.03300094604492 C130.2310028076172,-46.3129997253418 128.93099975585938,-68.21299743652344 129.83099365234375,-62.27299880981445 C135.3509979248047,-59.19300079345703 155.9810028076172,-44.952999114990234 161.6009979248047,-1.5130000114440918 C164.41099548339844,20.226999282836914 161.1909942626953,40.367000579833984 157.781005859375,61.676998138427734z"/></g></g><g opacity="1" transform="matrix(1,0,0,1,0,0)"><path stroke-linecap="butt" stroke-linejoin="miter" fill-opacity="0" stroke-miterlimit="10" stroke="rgb(37,37,41)" stroke-opacity="1" stroke-width="6" d=" M122.6510009765625,-58.106998443603516 C122.6510009765625,-21.608999252319336 93.06400299072266,7.978000164031982 56.566001892089844,7.978000164031982 C20.06800079345703,7.978000164031982 -9.517999649047852,-21.608999252319336 -9.517999649047852,-58.106998443603516 C-9.517999649047852,-94.6050033569336 20.06800079345703,-124.19200134277344 56.566001892089844,-124.19200134277344 C93.06400299072266,-124.19200134277344 122.6510009765625,-94.6050033569336 122.6510009765625,-58.106998443603516z"/></g><g opacity="1" transform="matrix(1,0,0,1,0,0)"><path stroke-linecap="round" stroke-linejoin="round" fill-opacity="0" stroke="rgb(64,64,68)" stroke-opacity="1" stroke-width="8" d=" M132.88600158691406,-63.28799819946289 C132.88600158691406,-63.28799819946289 157.48399353027344,-52.547000885009766 163.63299560546875,-5 C170.86599731445312,50.926998138427734 136.4720001220703,99.79900360107422 168.7570037841797,170.7740020751953"/></g><g opacity="1" transform="matrix(1,0,0,1,0,0)"><g opacity="1" transform="matrix(1,0,0,1,0,0)"><path fill="rgb(37,37,41)" fill-opacity="1" d=" M129.08099365234375,-36.80099868774414 C129.08099365234375,-36.80099868774414 125.13800048828125,-38.86600112915039 125.13800048828125,-38.86600112915039 C124.0719985961914,-39.42399978637695 123.62799835205078,-40.715999603271484 124.12200164794922,-41.8129997253418 C130.57699584960938,-56.132999420166016 126.01399993896484,-70.78500366210938 124.01000213623047,-75.91000366210938 C123.58000183105469,-77.00900268554688 124.06900024414062,-78.24700164794922 125.1259994506836,-78.7699966430664 C125.1259994506836,-78.7699966430664 129.1230010986328,-80.7490005493164 129.1230010986328,-80.7490005493164 C130.31100463867188,-81.33699798583984 131.74899291992188,-80.80000305175781 132.24400329589844,-79.56999969482422 C134.72000122070312,-73.41400146484375 140.38600158691406,-55.66999816894531 132.21499633789062,-37.86600112915039 C131.67100524902344,-36.680999755859375 130.23599243164062,-36.19599914550781 129.08099365234375,-36.80099868774414z"/></g></g><g opacity="1" transform="matrix(1,0,0,1,0,0)"><path stroke-linecap="butt" stroke-linejoin="miter" fill-opacity="0" stroke-miterlimit="10" stroke="rgb(64,64,68)" stroke-opacity="1" stroke-width="5" d=" M125.83599853515625,-58.106998443603516 C125.83599853515625,-19.85099983215332 94.8219985961914,11.163000106811523 56.566001892089844,11.163000106811523 C18.309999465942383,11.163000106811523 -12.70300006866455,-19.85099983215332 -12.70300006866455,-58.106998443603516 C-12.70300006866455,-96.36299896240234 18.309999465942383,-127.3759994506836 56.566001892089844,-127.3759994506836 C94.8219985961914,-127.3759994506836 125.83599853515625,-96.36299896240234 125.83599853515625,-58.106998443603516z"/></g></g></g></svg>