<svg xmlns="http://www.w3.org/2000/svg" xmlns:xlink="http://www.w3.org/1999/xlink" viewBox="0 0 512 512" width="512" height="512" style="width: 100%; height: 100%; transform: translate3d(0,0,0);" preserveAspectRatio="xMidYMid meet"><defs><clipPath id="__lottie_element_12670"><rect width="512" height="512" x="0" y="0"/></clipPath><linearGradient id="__lottie_element_12678" spreadMethod="pad" gradientUnits="userSpaceOnUse"><stop/><stop/><stop/></linearGradient><linearGradient id="__lottie_element_12685" spreadMethod="pad" gradientUnits="userSpaceOnUse" x1="-0.6869999766349792" y1="-0.9660000205039978" x2="-1.2699999809265137" y2="-22.533000946044922"><stop offset="0%" stop-color="rgb(255,255,255)"/><stop offset="46%" stop-color="rgb(241,241,241)"/><stop offset="100%" stop-color="rgb(228,228,228)"/></linearGradient><linearGradient id="__lottie_element_12692" spreadMethod="pad" gradientUnits="userSpaceOnUse" x1="-78.19999694824219" y1="-2.371000051498413" x2="71.85099792480469" y2="0.1509999930858612"><stop offset="0%" stop-color="rgb(230,230,230)"/><stop offset="6%" stop-color="rgb(230,230,230)"/><stop offset="13%" stop-color="rgb(230,230,230)"/><stop offset="30%" stop-color="rgb(212,212,213)"/><stop offset="45%" stop-color="rgb(195,195,196)"/><stop offset="60%" stop-color="rgb(195,195,196)"/><stop offset="68%" stop-color="rgb(195,195,196)"/><stop offset="82%" stop-color="rgb(212,212,213)"/><stop offset="96%" stop-color="rgb(230,230,230)"/></linearGradient><linearGradient id="__lottie_element_12693" spreadMethod="pad" gradientUnits="userSpaceOnUse" x1="-99.69000244140625" y1="-0.6449999809265137" x2="99.58999633789062" y2="-0.6449999809265137"><stop offset="0%" stop-color="rgb(239,63,63)"/><stop offset="35%" stop-color="rgb(211,52,52)"/><stop offset="60%" stop-color="rgb(182,41,41)"/><stop offset="86%" stop-color="rgb(198,48,49)"/><stop offset="100%" stop-color="rgb(213,56,56)"/></linearGradient></defs><g clip-path="url(#__lottie_element_12670)"><g style="display: block;" transform="matrix(0.9963527321815491,0,0,0.9548039436340332,7.809170246124268,18.828392028808594)" opacity="1"><g opacity="1" transform="matrix(1,0,0,1,0,0)"><g opacity="1" transform="matrix(1,0,0,1,0,0)"><g opacity="1" transform="matrix(1,0,0,1,250.26100158691406,147.1959991455078)"><path fill="rgb(221,206,197)" fill-opacity="1" d=" M106.40899658203125,0.6489999890327454 C106.40899658203125,15.234000205993652 47.68600082397461,24.398000717163086 0,24.398000717163086 C-47.79999923706055,24.398000717163086 -106.40899658203125,15.406999588012695 -106.40899658203125,0.6489999890327454 C-106.40899658203125,-13.645999908447266 -58.768001556396484,-24.398000717163086 0,-24.398000717163086 C58.768001556396484,-24.398000717163086 106.40899658203125,-13.9350004196167 106.40899658203125,0.6489999890327454z"/></g><g opacity="0.3" transform="matrix(1,0,0,1,250.28500366210938,160.64999389648438)"><path fill="rgb(153,135,129)" fill-opacity="1" d=" M87.91500091552734,0.3199999928474426 C66.76499938964844,7.059999942779541 31.03499984741211,10.9399995803833 -0.02500000037252903,10.9399995803833 C-31.114999771118164,10.9399995803833 -66.7750015258789,7.139999866485596 -87.91500091552734,0.41999998688697815 C-68.75499725341797,-5.559999942779541 -36.53499984741211,-10.9399995803833 -0.02500000037252903,-10.9399995803833 C36.51499938964844,-10.9399995803833 68.75499725341797,-5.670000076293945 87.91500091552734,0.3199999928474426z"/></g></g></g></g><g style="display: block;" transform="matrix(0.9963527321815491,0,0,0.9548039436340332,7.809170246124268,18.828392028808594)" opacity="1"><g opacity="1" transform="matrix(1,0,0,1,0,0)"><g opacity="1" transform="matrix(1,0,0,1,250.26100158691406,147.1959991455078)"><path stroke-linecap="round" stroke-linejoin="round" fill-opacity="0" stroke="rgb(153,135,129)" stroke-opacity="1" stroke-width="8" d=" M106.40899658203125,0.6489999890327454 C97.23200225830078,-18.361000061035156 48.73899841308594,-24.548999786376953 1.0529999732971191,-24.548999786376953 C-46.74700164794922,-24.548999786376953 -104.61000061035156,-14.545000076293945 -106.40899658203125,0.6489999890327454 C-106.40899658203125,-13.645999908447266 -58.768001556396484,-24.398000717163086 0,-24.398000717163086 C58.768001556396484,-24.398000717163086 105.97599792480469,-13.928000450134277 106.40899658203125,0.6489999890327454z"/></g></g></g><g style="display: block;" transform="matrix(0.9963527321815491,0,0,0.9548039436340332,7.809170246124268,18.828392028808594)" opacity="1"><g opacity="1" transform="matrix(1,0,0,1,250.1999969482422,308.3710021972656)"><path fill="url(#__lottie_element_12692)" fill-opacity="1" d=" M106.3479995727539,-159.42599487304688 C106.3479995727539,-159.42599487304688 99.85700225830078,-83.11799621582031 93.45700073242188,-9.461000442504883 C87.60700225830078,57.86600112915039 81.83300018310547,122.97899627685547 81.16000366210938,125.5790023803711 C79.41699981689453,132.3159942626953 57.70500183105469,160.26199340820312 -0.32899999618530273,160.26199340820312 C-52.70899963378906,160.26199340820312 -75.78800201416016,134.2030029296875 -78.00299835205078,125.98699951171875 C-79.25499725341797,121.34600067138672 -84.87699890136719,65.52899932861328 -90.78900146484375,4.401000022888184 C-98.33300018310547,-73.6050033569336 -106.3479995727539,-160.26199340820312 -106.3479995727539,-160.26199340820312 C-106.3479995727539,-160.26199340820312 -71.68800354003906,-136.30299377441406 -3.194000005722046,-134.83700561523438 C65.30000305175781,-133.37100219726562 106.3479995727539,-159.42599487304688 106.3479995727539,-159.42599487304688z"/></g><g opacity="0.5" transform="matrix(1,0,0,1,164.7949981689453,297.5249938964844)"><path fill="rgb(255,255,255)" fill-opacity="1" d=" M18.94499969482422,149.4149932861328 C13.21500015258789,144.3249969482422 10.145000457763672,139.5749969482422 9.404999732971191,136.8350067138672 C6.554999828338623,126.26499938964844 -18.94499969482422,-149.4149932861328 -18.94499969482422,-149.4149932861328 C-18.94499969482422,-149.4149932861328 -11.744999885559082,-141.1320037841797 -11.744999885559082,-141.1320037841797 C-11.744999885559082,-141.1320037841797 -3.994999885559082,-138.43499755859375 -3.994999885559082,-138.43499755859375 C-3.994999885559082,-138.43499755859375 8.654000282287598,20.284000396728516 8.654000282287598,20.284000396728516 C8.654000282287598,20.284000396728516 18.94499969482422,149.4149932861328 18.94499969482422,149.4149932861328z"/></g><g opacity="0.5" transform="matrix(1,0,0,1,336.885009765625,297.95001220703125)"><path fill="rgb(255,255,255)" fill-opacity="1" d=" M17.665000915527344,-149 C17.665000915527344,-149 10.704000473022461,-67.16699981689453 4.091000080108643,8.812000274658203 C-1.5190000534057617,73.26200103759766 -6.877999782562256,133.49899291992188 -7.525000095367432,136 C-8.145000457763672,138.38999938964844 -11.274999618530273,143.4600067138672 -17.665000915527344,149 C-17.665000915527344,149 -7.625,8.635000228881836 -7.625,8.635000228881836 C-7.625,8.635000228881836 2.9049999713897705,-138.5800018310547 2.9049999713897705,-138.5800018310547 C2.9049999713897705,-138.5800018310547 11.444999694824219,-142.12899780273438 11.444999694824219,-142.12899780273438 C11.444999694824219,-142.12899780273438 17.665000915527344,-149 17.665000915527344,-149z"/></g><g opacity="0.25" transform="matrix(1,0,0,1,336.885009765625,297.95001220703125)"><path fill="rgb(255,255,255)" fill-opacity="1" d=" M17.665000915527344,-149 C17.665000915527344,-149 10.579000473022461,-65.697998046875 3.9140000343322754,10.845999717712402 C-1.63100004196167,74.52400207519531 -6.885000228881836,133.52499389648438 -7.525000095367432,136 C-8.145000457763672,138.38999938964844 -11.274999618530273,143.4600067138672 -17.665000915527344,149 C-17.665000915527344,149 -7.642000198364258,8.87600040435791 -7.642000198364258,8.87600040435791 C-7.642000198364258,8.87600040435791 2.9049999713897705,-138.5800018310547 2.9049999713897705,-138.5800018310547 C2.9049999713897705,-138.5800018310547 11.444999694824219,-142.12899780273438 11.444999694824219,-142.12899780273438 C11.444999694824219,-142.12899780273438 17.665000915527344,-149 17.665000915527344,-149z"/></g><g opacity="0.25" transform="matrix(1,0,0,1,164.7949981689453,297.5249938964844)"><path fill="rgb(255,255,255)" fill-opacity="1" d=" M18.94499969482422,149.4149932861328 C13.21500015258789,144.3249969482422 10.145000457763672,139.5749969482422 9.404999732971191,136.8350067138672 C8.057999610900879,131.83999633789062 1.652999997138977,67.63800048828125 -4.729000091552734,1.3049999475479126 C-11.85200023651123,-72.72699737548828 -18.94499969482422,-149.4149932861328 -18.94499969482422,-149.4149932861328 C-18.94499969482422,-149.4149932861328 -11.744999885559082,-141.1320037841797 -11.744999885559082,-141.1320037841797 C-11.744999885559082,-141.1320037841797 -3.994999885559082,-138.43499755859375 -3.994999885559082,-138.43499755859375 C-3.994999885559082,-138.43499755859375 8.654000282287598,20.284000396728516 8.654000282287598,20.284000396728516 C8.654000282287598,20.284000396728516 18.94499969482422,149.4149932861328 18.94499969482422,149.4149932861328z"/></g><g opacity="0.3" transform="matrix(1,0,0,1,250.66099548339844,177.6300048828125)"><path fill="rgb(155,151,151)" fill-opacity="1" d=" M106.01000213623047,-24.010000228881836 C105.54000091552734,-18.450000762939453 103.76899719238281,-3.819999933242798 103.02899932861328,4.809999942779541 C84.30000305175781,14.487000465393066 45.92900085449219,24.010000228881836 -6.801000118255615,24.010000228881836 C-48.62099838256836,24.010000228881836 -81.89800262451172,17.73200035095215 -103.13099670410156,10.039999961853027 C-103.89099884033203,1.8600000143051147 -105.44999694824219,-15.96500015258789 -106.01000213623047,-21.905000686645508 C-87.51000213623047,-14.145000457763672 -41.790000915527344,-6.035999774932861 -0.4000000059604645,-6.035999774932861 C47.220001220703125,-6.035999774932861 88.9000015258789,-14.510000228881836 106.01000213623047,-24.010000228881836z"/></g><g opacity="1" transform="matrix(1,0,0,1,250.1999969482422,308.3710021972656)"><path stroke-linecap="round" stroke-linejoin="round" fill-opacity="0" stroke="rgb(175,173,172)" stroke-opacity="1" stroke-width="8" d=" M106.3479995727539,-159.42599487304688 C106.3479995727539,-159.42599487304688 99.37300109863281,-77.41999816894531 92.75399780273438,-1.3739999532699585 C87.1520004272461,62.98899841308594 81.80599975585938,123.08300018310547 81.16000366210938,125.5790023803711 C79.41699981689453,132.3159942626953 57.70500183105469,160.26199340820312 -0.32899999618530273,160.26199340820312 C-52.70899963378906,160.26199340820312 -75.78800201416016,134.2030029296875 -78.00299835205078,125.98699951171875 C-79.33599853515625,121.04499816894531 -85.625,58.07500076293945 -91.94200134277344,-7.545000076293945 C-99.12799835205078,-82.18800354003906 -106.3479995727539,-160.26199340820312 -106.3479995727539,-160.26199340820312"/></g><g opacity="1" transform="matrix(1,0,0,1,251.7790069580078,451.2909851074219)"><path stroke-linecap="round" stroke-linejoin="round" fill-opacity="0" stroke="rgb(158,147,147)" stroke-opacity="1" stroke-width="8" d=" M79.58100128173828,-17.341999053955078 C77.83799743652344,-10.604999542236328 56.125999450683594,17.341999053955078 -1.9079999923706055,17.341999053955078 C-54.28799819946289,17.341999053955078 -77.36599731445312,-8.718000411987305 -79.58100128173828,-16.93400001525879"/></g><g opacity="1" transform="matrix(1,0,0,1,250.69000244140625,303.6449890136719)"><path fill="url(#__lottie_element_12693)" fill-opacity="1" d=" M99.63999938964844,-82.04499816894531 C99.63999938964844,-82.04499816894531 96.93199920654297,-50.64400100708008 93.93800354003906,-16.108999252319336 C91.76899719238281,8.906000137329102 89.44999694824219,35.566001892089844 87.9000015258789,53.125 C82.49500274658203,59.69200134277344 54.59000015258789,82.1050033569336 -0.009999999776482582,82.04499816894531 C-58.97999954223633,81.9749984741211 -82.22200012207031,59.45399856567383 -86.95999908447266,53.255001068115234 C-88.74400329589844,35.28099822998047 -90.66400146484375,15.550999641418457 -92.58399963378906,-4.381999969482422 C-95.03399658203125,-29.816999435424805 -97.48200225830078,-55.584999084472656 -99.63999938964844,-78.46499633789062 C-90.55599975585938,-68.7020034790039 -55.518001556396484,-54.979000091552734 -1.5399999618530273,-55.78499984741211 C52.34400177001953,-56.5890007019043 92.2750015258789,-71.56500244140625 99.63999938964844,-82.04499816894531z"/></g><g opacity="1" transform="matrix(1,0,0,1,250.69000244140625,303.6449890136719)"><path stroke-linecap="round" stroke-linejoin="round" fill-opacity="0" stroke="rgb(155,27,29)" stroke-opacity="1" stroke-width="8" d=" M99.63999938964844,-82.04499816894531 C99.63999938964844,-82.04499816894531 96.40499877929688,-44.516998291015625 93.09600067138672,-6.394000053405762 C91.18599700927734,15.616000175476074 89.2509994506836,37.82500076293945 87.9000015258789,53.125 C82.49500274658203,59.69200134277344 54.59000015258789,82.1050033569336 -0.009999999776482582,82.04499816894531 C-58.97999954223633,81.9749984741211 -82.22200012207031,59.45399856567383 -86.95999908447266,53.255001068115234 C-91.0199966430664,12.345000267028809 -95.79000091552734,-37.654998779296875 -99.63999938964844,-78.46499633789062 C-90.55599975585938,-68.7020034790039 -55.518001556396484,-54.979000091552734 -1.5399999618530273,-55.78499984741211 C52.34400177001953,-56.5890007019043 92.2750015258789,-71.56500244140625 99.63999938964844,-82.04499816894531z"/></g></g><g style="display: block;" transform="matrix(0.9963527321815491,0,0,0.9548039436340332,7.809170246124268,18.828392028808594)" opacity="1"><g opacity="1" transform="matrix(1,0,0,1,0,0)"><g opacity="1" transform="matrix(1,0,0,1,250.26100158691406,147.1959991455078)"><path stroke-linecap="round" stroke-linejoin="round" fill-opacity="0" stroke="rgb(153,135,129)" stroke-opacity="1" stroke-width="8" d=" M106.40899658203125,0.6489999890327454 C106.40899658203125,15.234000205993652 47.68600082397461,24.398000717163086 0,24.398000717163086 C-47.79999923706055,24.398000717163086 -106.40899658203125,15.406999588012695 -106.40899658203125,0.6489999890327454 C-93.03099822998047,31.2450008392334 72.75800323486328,37.560001373291016 106.40899658203125,0.6489999890327454z"/></g></g></g><g style="display: block;" transform="matrix(0.9963527321815491,0,0,0.9548039436340332,7.809170246124268,18.828392028808594)" opacity="1"><g opacity="1" transform="matrix(1,0,0,1,0,0)"><g opacity="1" transform="matrix(1,0,0,1,250.68699645996094,151.96600341796875)"><path fill="url(#__lottie_element_12685)" fill-opacity="1" d=" M116.33999633789062,7.836999893188477 C117.1520004272461,5.590000152587891 113.87100219726562,-11.37399959564209 112.95700073242188,-15.072999954223633 C110.67900085449219,-24.292999267578125 73.71700286865234,-34.32400131225586 -2.0450000762939453,-33.643001556396484 C-77.5459976196289,-32.96500015258789 -112.0510025024414,-19.104999542236328 -114.04399871826172,-10.133000373840332 C-115.03399658203125,-5.677000045776367 -117.13099670410156,11.923999786376953 -116.26200103759766,13.717000007629395 C-112.19999694824219,22.099000930786133 -66.5260009765625,33.67599868774414 -6.823999881744385,33.67599868774414 C66.0719985961914,33.67599868774414 113.18099975585938,16.57900047302246 116.33999633789062,7.836999893188477z"/><path stroke-linecap="round" stroke-linejoin="round" fill-opacity="0" stroke="rgb(183,174,171)" stroke-opacity="1" stroke-width="8" d=" M116.33999633789062,7.836999893188477 C117.1520004272461,5.590000152587891 113.87100219726562,-11.37399959564209 112.95700073242188,-15.072999954223633 C110.67900085449219,-24.292999267578125 73.71700286865234,-34.32400131225586 -2.0450000762939453,-33.643001556396484 C-77.5459976196289,-32.96500015258789 -112.0510025024414,-19.104999542236328 -114.04399871826172,-10.133000373840332 C-115.03399658203125,-5.677000045776367 -117.13099670410156,11.923999786376953 -116.26200103759766,13.717000007629395 C-112.19999694824219,22.099000930786133 -66.5260009765625,33.67599868774414 -6.823999881744385,33.67599868774414 C66.0719985961914,33.67599868774414 113.18099975585938,16.57900047302246 116.33999633789062,7.836999893188477z"/></g><g opacity="1" transform="matrix(1,0,0,1,251.27499389648438,139.8979949951172)"><path fill="rgb(219,215,213)" fill-opacity="1" d=" M78.18599700927734,-1.4559999704360962 C78.18599700927734,5.324999809265137 35.03799819946289,10.878999710083008 0,10.878999710083008 C-35.12200164794922,10.878999710083008 -78.18599700927734,5.406000137329102 -78.18599700927734,-1.4559999704360962 C-78.18599700927734,-8.10200023651123 -43.180999755859375,-10.878999710083008 0,-10.878999710083008 C43.180999755859375,-10.878999710083008 78.18599700927734,-8.237000465393066 78.18599700927734,-1.4559999704360962z"/><path stroke-linecap="round" stroke-linejoin="round" fill-opacity="0" stroke="rgb(183,174,171)" stroke-opacity="1" stroke-width="8" d=" M78.18599700927734,-1.4559999704360962 C78.18599700927734,5.324999809265137 35.03799819946289,10.878999710083008 0,10.878999710083008 C-35.12200164794922,10.878999710083008 -78.18599700927734,5.406000137329102 -78.18599700927734,-1.4559999704360962 C-78.18599700927734,-8.10200023651123 -43.180999755859375,-10.878999710083008 0,-10.878999710083008 C43.180999755859375,-10.878999710083008 78.18599700927734,-8.237000465393066 78.18599700927734,-1.4559999704360962z"/></g><g opacity="1" transform="matrix(1,0,0,1,251.27499389648438,137.7899932861328)"><path fill="rgb(211,207,205)" fill-opacity="1" d=" M47.494998931884766,-12.989999771118164 C47.494998931884766,-12.989999771118164 47.494998931884766,3.009999990463257 47.494998931884766,3.009999990463257 C47.494998931884766,9.109999656677246 30.53499984741211,12.989999771118164 -0.004999999888241291,12.989999771118164 C-29.825000762939453,12.989999771118164 -47.494998931884766,9.180000305175781 -47.494998931884766,3.009999990463257 C-47.494998931884766,3.009999990463257 -47.494998931884766,-12.989999771118164 -47.494998931884766,-12.989999771118164 C-47.494998931884766,-6.820000171661377 -26.225000381469727,-3.700000047683716 -0.004999999888241291,-3.700000047683716 C26.225000381469727,-3.700000047683716 47.494998931884766,-6.889999866485596 47.494998931884766,-12.989999771118164z"/><path stroke-linecap="round" stroke-linejoin="round" fill-opacity="0" stroke="rgb(158,147,147)" stroke-opacity="1" stroke-width="8" d=" M47.494998931884766,-12.989999771118164 C47.494998931884766,-12.989999771118164 47.494998931884766,3.009999990463257 47.494998931884766,3.009999990463257 C47.494998931884766,9.109999656677246 30.53499984741211,12.989999771118164 -0.004999999888241291,12.989999771118164 C-29.825000762939453,12.989999771118164 -47.494998931884766,9.180000305175781 -47.494998931884766,3.009999990463257 C-47.494998931884766,3.009999990463257 -47.494998931884766,-12.989999771118164 -47.494998931884766,-12.989999771118164 C-47.494998931884766,-6.820000171661377 -26.225000381469727,-3.700000047683716 -0.004999999888241291,-3.700000047683716 C26.225000381469727,-3.700000047683716 47.494998931884766,-6.889999866485596 47.494998931884766,-12.989999771118164z"/></g><g opacity="1" transform="matrix(1,0,0,1,251.27499389648438,125.20800018310547)"><path fill="rgb(255,255,255)" fill-opacity="1" d=" M47.49100112915039,-0.4099999964237213 C47.49100112915039,5.689000129699707 26.229000091552734,8.885000228881836 0,8.885000228881836 C-26.229000091552734,8.885000228881836 -47.49100112915039,5.76200008392334 -47.49100112915039,-0.4099999964237213 C-47.49100112915039,-6.388000011444092 -26.229000091552734,-8.885000228881836 0,-8.885000228881836 C26.229000091552734,-8.885000228881836 47.49100112915039,-6.508999824523926 47.49100112915039,-0.4099999964237213z"/><path stroke-linecap="round" stroke-linejoin="round" fill-opacity="0" stroke="rgb(183,174,171)" stroke-opacity="1" stroke-width="8" d=" M47.49100112915039,-0.4099999964237213 C47.49100112915039,5.689000129699707 26.229000091552734,8.885000228881836 0,8.885000228881836 C-26.229000091552734,8.885000228881836 -47.49100112915039,5.76200008392334 -47.49100112915039,-0.4099999964237213 C-47.49100112915039,-6.388000011444092 -26.229000091552734,-8.885000228881836 0,-8.885000228881836 C26.229000091552734,-8.885000228881836 47.49100112915039,-6.508999824523926 47.49100112915039,-0.4099999964237213z"/></g><g opacity="1" transform="matrix(1,0,0,1,251.27499389648438,125.49400329589844)"><path fill="rgb(175,173,172)" fill-opacity="1" d=" M20.70199966430664,-0.1720000058412552 C20.70199966430664,2.382999897003174 11.432999610900879,3.7219998836517334 0,3.7219998836517334 C-11.432999610900879,3.7219998836517334 -20.70199966430664,2.4130001068115234 -20.70199966430664,-0.1720000058412552 C-20.70199966430664,-2.6760001182556152 -11.432999610900879,-3.7219998836517334 0,-3.7219998836517334 C11.432999610900879,-3.7219998836517334 20.70199966430664,-2.7269999980926514 20.70199966430664,-0.1720000058412552z"/></g><g opacity="1" transform="matrix(1,0,0,1,251.27499389648438,144.61000061035156)"><path stroke-linecap="round" stroke-linejoin="round" fill-opacity="0" stroke="rgb(158,147,147)" stroke-opacity="1" stroke-width="8" d=" M78.18599700927734,-6.168000221252441 C78.18599700927734,0.6129999756813049 35.03799819946289,6.168000221252441 0,6.168000221252441 C-35.12200164794922,6.168000221252441 -78.18599700927734,0.6940000057220459 -78.18599700927734,-6.168000221252441"/></g><g opacity="1" transform="matrix(1,0,0,1,250.6909942626953,162.15499877929688)"><path fill="rgb(211,207,205)" fill-opacity="1" d=" M116.33899688720703,-2.3550000190734863 C113.17900085449219,6.385000228881836 66.06900024414062,23.485000610351562 -6.830999851226807,23.485000610351562 C-66.53099822998047,23.485000610351562 -112.20099639892578,11.904999732971191 -116.26100158691406,3.5250000953674316 C-117.09100341796875,1.815000057220459 -115.23100280761719,-14.234999656677246 -114.19100189208984,-19.604999542236328 C-116.0009994506836,-6.014999866485596 -59.55099868774414,2.505000114440918 -2.9509999752044678,2.505000114440918 C58.249000549316406,2.505000114440918 113.53900146484375,-11.045000076293945 113.35900115966797,-23.485000610351562 C114.5790023803711,-17.825000762939453 117.05899810791016,-4.335000038146973 116.33899688720703,-2.3550000190734863z"/><path stroke-linecap="round" stroke-linejoin="round" fill-opacity="0" stroke="rgb(158,147,147)" stroke-opacity="1" stroke-width="8" d=" M116.33899688720703,-2.3550000190734863 C113.17900085449219,6.385000228881836 66.06900024414062,23.485000610351562 -6.830999851226807,23.485000610351562 C-66.53099822998047,23.485000610351562 -112.20099639892578,11.904999732971191 -116.26100158691406,3.5250000953674316 C-117.09100341796875,1.815000057220459 -115.23100280761719,-14.234999656677246 -114.19100189208984,-19.604999542236328 C-116.0009994506836,-6.014999866485596 -59.55099868774414,2.505000114440918 -2.9509999752044678,2.505000114440918 C58.249000549316406,2.505000114440918 113.53900146484375,-11.045000076293945 113.35900115966797,-23.485000610351562 C114.5790023803711,-17.825000762939453 117.05899810791016,-4.335000038146973 116.33899688720703,-2.3550000190734863z"/></g><g opacity="0.1" transform="matrix(1,0,0,1,251.11300659179688,139.00900268554688)"><path fill="rgb(153,0,26)" fill-opacity="1" d=" M13.586000442504883,15.338000297546387 C-1.8489999771118164,16.39900016784668 -13.586000442504883,15.338000297546387 -13.586000442504883,15.338000297546387 C-13.586000442504883,15.338000297546387 -13.586000442504883,-15.8100004196167 -13.586000442504883,-15.8100004196167 C-13.586000442504883,-15.8100004196167 13.586000442504883,-15.8100004196167 13.586000442504883,-15.8100004196167 C13.586000442504883,-15.8100004196167 13.586000442504883,15.338000297546387 13.586000442504883,15.338000297546387z"/></g><g opacity="1" transform="matrix(1,0,0,1,0,0)"><g opacity="1" transform="matrix(1,0,0,1,247.74000549316406,175.1510009765625)"><path stroke-linecap="round" stroke-linejoin="round" fill-opacity="0" stroke="rgb(155,151,151)" stroke-opacity="1" stroke-width="8" d=" M0,-10.491000175476074 C0,-10.491000175476074 0,10.491000175476074 0,10.491000175476074"/></g><g opacity="1" transform="matrix(1,0,0,1,220.30799865722656,174.49400329589844)"><path stroke-linecap="round" stroke-linejoin="round" fill-opacity="0" stroke="rgb(155,151,151)" stroke-opacity="1" stroke-width="8" d=" M0.34599998593330383,-10.482999801635742 C0.34599998593330383,-10.482999801635742 -0.34599998593330383,10.482999801635742 -0.34599998593330383,10.482999801635742"/></g><g opacity="1" transform="matrix(1,0,0,1,191.33799743652344,172.67999267578125)"><path stroke-linecap="round" stroke-linejoin="round" fill-opacity="0" stroke="rgb(155,151,151)" stroke-opacity="1" stroke-width="8" d=" M0.8489999771118164,-9.600000381469727 C0.8489999771118164,-9.600000381469727 -0.8489999771118164,9.600000381469727 -0.8489999771118164,9.600000381469727"/></g><g opacity="1" transform="matrix(1,0,0,1,166.5240020751953,168.20700073242188)"><path stroke-linecap="round" stroke-linejoin="round" fill-opacity="0" stroke="rgb(155,151,151)" stroke-opacity="1" stroke-width="8" d=" M1.065000057220459,-10.003000259399414 C1.065000057220459,-10.003000259399414 -1.065000057220459,10.003000259399414 -1.065000057220459,10.003000259399414"/></g><g opacity="1" transform="matrix(1,0,0,1,147.9250030517578,163.19400024414062)"><path stroke-linecap="round" stroke-linejoin="round" fill-opacity="0" stroke="rgb(155,151,151)" stroke-opacity="1" stroke-width="8" d=" M0.7400000095367432,-10.01200008392334 C0.7400000095367432,-10.01200008392334 -0.7400000095367432,10.01200008392334 -0.7400000095367432,10.01200008392334"/></g><g opacity="1" transform="matrix(1,0,0,1,275.4460144042969,173.71600341796875)"><path stroke-linecap="round" stroke-linejoin="round" fill-opacity="0" stroke="rgb(155,151,151)" stroke-opacity="1" stroke-width="8" d=" M-0.5230000019073486,-9.704000473022461 C-0.5230000019073486,-9.704000473022461 0.5230000019073486,9.704000473022461 0.5230000019073486,9.704000473022461"/></g><g opacity="1" transform="matrix(1,0,0,1,302.00799560546875,171.5469970703125)"><path stroke-linecap="round" stroke-linejoin="round" fill-opacity="0" stroke="rgb(155,151,151)" stroke-opacity="1" stroke-width="8" d=" M-0.7820000052452087,-10.194999694824219 C-0.7820000052452087,-10.194999694824219 0.7820000052452087,10.194999694824219 0.7820000052452087,10.194999694824219"/></g><g opacity="1" transform="matrix(1,0,0,1,327.42999267578125,166.9320068359375)"><path stroke-linecap="round" stroke-linejoin="round" fill-opacity="0" stroke="rgb(155,151,151)" stroke-opacity="1" stroke-width="8" d=" M-0.9769999980926514,-9.845000267028809 C-0.9769999980926514,-9.845000267028809 0.9769999980926514,9.845000267028809 0.9769999980926514,9.845000267028809"/></g><g opacity="1" transform="matrix(1,0,0,1,350.09600830078125,160.3040008544922)"><path stroke-linecap="round" stroke-linejoin="round" fill-opacity="0" stroke="rgb(155,151,151)" stroke-opacity="1" stroke-width="8" d=" M-1.2339999675750732,-9.526000022888184 C-1.2339999675750732,-9.526000022888184 1.2339999675750732,9.526000022888184 1.2339999675750732,9.526000022888184"/></g></g><g opacity="1" transform="matrix(1,0,0,1,147.9250030517578,163.19400024414062)"><path stroke-linecap="round" stroke-linejoin="round" fill-opacity="0" stroke="rgb(155,151,151)" stroke-opacity="1" stroke-width="8" d=" M-12.227999687194824,-17.25200080871582 C-12.227999687194824,-17.25200080871582 -13.708000183105469,2.7709999084472656 -13.708000183105469,2.7709999084472656"/></g><g opacity="1" transform="matrix(1,0,0,1,147.9250030517578,163.19400024414062)"><path stroke-linecap="round" stroke-linejoin="round" fill-opacity="0" stroke="rgb(155,151,151)" stroke-opacity="1" stroke-width="8" d=" M-12.227999687194824,-17.25200080871582 C-12.227999687194824,-17.25200080871582 -13.708000183105469,2.7709999084472656 -13.708000183105469,2.7709999084472656"/></g><g opacity="1" transform="matrix(1,0,0,1,147.9250030517578,163.19400024414062)"><path stroke-linecap="round" stroke-linejoin="round" fill-opacity="0" stroke="rgb(155,151,151)" stroke-opacity="1" stroke-width="8" d=" M-12.227999687194824,-17.25200080871582 C-12.227999687194824,-17.25200080871582 -13.708000183105469,2.7709999084472656 -13.708000183105469,2.7709999084472656"/></g></g></g><g style="display: block;" transform="matrix(0.9963527321815491,0,0,0.9548039436340332,7.809170246124268,18.828392028808594)" opacity="1"><g opacity="1" transform="matrix(1,0,0,1,0,0)"><g opacity="1" transform="matrix(1,0,0,1,0,0)"><g opacity="1" transform="matrix(1,0,0,1,298.4079895019531,81.81099700927734)"><path fill="rgb(209,26,26)" fill-opacity="1" d=" M-57.064998626708984,41.39699935913086 C-57.064998626708984,41.39699935913086 -57.064998626708984,13.866000175476074 -57.064998626708984,3.1059999465942383 C-57.064998626708984,-7.6539998054504395 -53.66699981689453,-17.972000122070312 -41.40800094604492,-22.148000717163086 C-37.95600128173828,-23.323999404907227 -29.766000747680664,-25.447999954223633 -19.687999725341797,-27.91200065612793 C-1.9670000076293945,-32.24399948120117 21.591999053955078,-37.624000549316406 35.500999450683594,-40.742000579833984 C41.770999908447266,-42.14699935913086 46.08000183105469,-43.09299850463867 47.00899887084961,-43.2760009765625 C57.23699951171875,-45.2869987487793 61.257999420166016,-26.323999404907227 51.430999755859375,-24.358999252319336 C48.39699935913086,-23.75200080871582 40.165000915527344,-21.92300033569336 30.075000762939453,-19.618999481201172 C19.45199966430664,-17.19300079345703 6.769999980926514,-14.241000175476074 -4.074999809265137,-11.635000228881836 C-16.297000885009766,-8.697999954223633 -26.187000274658203,-6.201000213623047 -28.16699981689453,-5.390999794006348 C-33.571998596191406,-3.180000066757202 -38.2400016784668,-1.7059999704360962 -37.99399948120117,8.857999801635742 C-37.74800109863281,19.422000885009766 -37.74800109863281,42.39699935913086 -37.74800109863281,42.39699935913086 C-37.74800109863281,42.39699935913086 -49.849998474121094,45.27799987792969 -57.064998626708984,41.39699935913086z"/></g><g opacity="1" transform="matrix(1,0,0,1,297.3349914550781,81.60099792480469)"><path fill="rgb(219,69,70)" fill-opacity="1" d=" M55.994998931884766,-36.25 C17.48200035095215,-27.229000091552734 -8.392000198364258,-21.323999404907227 -23.945999145507812,-17.16200065612793 C-32.59000015258789,-14.848999977111816 -38.04600143432617,-13.074999809265137 -40.71500015258789,-11.60099983215332 C-43.64400100708008,-9.984000205993652 -47.25699996948242,-6.711999893188477 -47.70600128173828,1.3619999885559082 C-48.09000015258789,8.272000312805176 -47.76499938964844,20.420000076293945 -47.81700134277344,43.19900131225586 C-50.58700180053711,43.02899932861328 -53.665000915527344,42.85900115966797 -55.994998931884766,41.60900115966797 C-55.994998931884766,41.60900115966797 -55.994998931884766,14.079000473022461 -55.994998931884766,3.319000005722046 C-55.994998931884766,-7.440999984741211 -52.595001220703125,-17.76099967956543 -40.334999084472656,-21.94099998474121 C-33.3380012512207,-24.320999145507812 -6.880000114440918,-30.600000381469727 15.317999839782715,-35.702999114990234 C32.01300048828125,-39.54100036621094 46.29899978637695,-42.7130012512207 48.084999084472656,-43.06100082397461 C52.654998779296875,-43.96099853515625 54.584999084472656,-40.34000015258789 55.994998931884766,-36.25z"/></g><g opacity="0.3" transform="matrix(1,0,0,1,257.67401123046875,70.99700164794922)"><path stroke-linecap="round" stroke-linejoin="round" fill-opacity="0" stroke="rgb(163,0,31)" stroke-opacity="1" stroke-width="5" d=" M-6.795000076293945,-8.28499984741211 C-6.795000076293945,-8.28499984741211 -6.986999988555908,2.996000051498413 6.795000076293945,8.28499984741211"/></g><g opacity="0.3" transform="matrix(1,0,0,1,250.95199584960938,84.02200317382812)"><path stroke-linecap="round" stroke-linejoin="round" fill-opacity="0" stroke="rgb(163,0,31)" stroke-opacity="1" stroke-width="5" d=" M-9.461999893188477,-2.812999963760376 C-9.461999893188477,-2.812999963760376 -3.2869999408721924,5.420000076293945 9.461999893188477,1.9670000076293945"/></g><g opacity="0.3" transform="matrix(1,0,0,1,250.87899780273438,92.0979995727539)"><path stroke-linecap="round" stroke-linejoin="round" fill-opacity="0" stroke="rgb(163,0,31)" stroke-opacity="1" stroke-width="5" d=" M-9.53600025177002,-1.88100004196167 C-9.53600025177002,-1.88100004196167 -3.4040000438690186,5.083000183105469 9.53600025177002,0.05999999865889549"/></g><g opacity="0.3" transform="matrix(1,0,0,1,252.6580047607422,76.9739990234375)"><path stroke-linecap="round" stroke-linejoin="round" fill-opacity="0" stroke="rgb(163,0,31)" stroke-opacity="1" stroke-width="5" d=" M-8.970999717712402,-5.291999816894531 C-8.970999717712402,-5.291999816894531 -5.401000022888184,3.561000108718872 8.970999717712402,5.291999816894531"/></g><g opacity="0.3" transform="matrix(1,0,0,1,264.1570129394531,67.93499755859375)"><path stroke-linecap="round" stroke-linejoin="round" fill-opacity="0" stroke="rgb(163,0,31)" stroke-opacity="1" stroke-width="5" d=" M-3.0859999656677246,-9.503000259399414 C-3.0859999656677246,-9.503000259399414 -6.48799991607666,1.4950000047683716 3.635999917984009,9.503000259399414"/></g><g opacity="1" transform="matrix(1,0,0,1,298.4079895019531,81.81099700927734)"><path stroke-linecap="round" stroke-linejoin="round" fill-opacity="0" stroke="rgb(191,0,37)" stroke-opacity="1" stroke-width="8" d=" M-57.064998626708984,41.39699935913086 C-57.064998626708984,41.39699935913086 -57.064998626708984,13.866000175476074 -57.064998626708984,3.1059999465942383 C-57.064998626708984,-7.6539998054504395 -53.66699981689453,-17.972000122070312 -41.40800094604492,-22.148000717163086 C-34.56399917602539,-24.479999542236328 -9.098999977111816,-30.538999557495117 12.78600025177002,-35.57899856567383 C30.099000930786133,-39.566001892089844 45.17100143432617,-42.915000915527344 47.00899887084961,-43.2760009765625 C57.23699951171875,-45.2869987487793 61.257999420166016,-26.323999404907227 51.430999755859375,-24.358999252319336 C47.659000396728516,-23.604999542236328 35.854000091552734,-20.961999893188477 22.43199920654297,-17.864999771118164 C11.015999794006348,-15.230999946594238 -1.5709999799728394,-12.267999649047852 -11.378999710083008,-9.86299991607666 C-20.084999084472656,-7.728000164031982 -26.60099983215332,-6.0320000648498535 -28.16699981689453,-5.390999794006348 C-33.571998596191406,-3.180000066757202 -38.2400016784668,-1.7059999704360962 -37.99399948120117,8.857999801635742 C-37.74800109863281,19.422000885009766 -37.74800109863281,42.39699935913086 -37.74800109863281,42.39699935913086 C-37.74800109863281,42.39699935913086 -49.849998474121094,45.27799987792969 -57.064998626708984,41.39699935913086z"/></g><g opacity="1" transform="matrix(1,0,0,1,298.4079895019531,81.81099700927734)"><path stroke-linecap="round" stroke-linejoin="round" fill-opacity="0" stroke="rgb(147,0,18)" stroke-opacity="1" stroke-width="8" d=" M47.00899887084961,-43.2760009765625 C57.23699951171875,-45.2869987487793 61.257999420166016,-26.323999404907227 51.430999755859375,-24.358999252319336 C48.242000579833984,-23.72100067138672 39.310001373291016,-21.732999801635742 28.51300048828125,-19.261999130249023 C15.949999809265137,-16.386999130249023 0.8610000014305115,-12.857999801635742 -10.640999794006348,-10.043999671936035 C-19.71500015258789,-7.823999881744385 -26.55699920654297,-6.050000190734863 -28.16699981689453,-5.390999794006348 C-30.799999237060547,-4.314000129699707 -33.257999420166016,-3.4110000133514404 -35.05799865722656,-1.5479999780654907 C-36.95399856567383,0.414000004529953 -38.119998931884766,3.440000057220459 -37.99399948120117,8.857999801635742 C-37.74800109863281,19.422000885009766 -37.74800109863281,42.39699935913086 -37.74800109863281,42.39699935913086 C-37.74800109863281,42.39699935913086 -49.849998474121094,45.27799987792969 -57.064998626708984,41.39699935913086"/></g><g opacity="1" transform="matrix(1,0,0,1,348.10699462890625,47.95600128173828)"><path fill="rgb(150,0,0)" fill-opacity="1" d=" M1.7330000400543213,9.494000434875488 C-7.867000102996826,10.87399959564209 -10.72700023651123,-7.666999816894531 -2.687000036239624,-9.416999816894531 C7.543000221252441,-11.437000274658203 11.562999725341797,7.533999919891357 1.7330000400543213,9.494000434875488z"/><path stroke-linecap="round" stroke-linejoin="round" fill-opacity="0" stroke="rgb(122,0,0)" stroke-opacity="1" stroke-width="8" d=" M1.7330000400543213,9.494000434875488 C-7.867000102996826,10.87399959564209 -10.72700023651123,-7.666999816894531 -2.687000036239624,-9.416999816894531 C7.543000221252441,-11.437000274658203 11.562999725341797,7.533999919891357 1.7330000400543213,9.494000434875488z"/></g></g></g></g></g></svg>