<svg xmlns="http://www.w3.org/2000/svg" xmlns:xlink="http://www.w3.org/1999/xlink" viewBox="0 0 512 512" width="512" height="512" style="width: 100%; height: 100%; transform: translate3d(0,0,0);" preserveAspectRatio="xMidYMid meet"><defs><clipPath id="__lottie_element_6993"><rect width="512" height="512" x="0" y="0"/></clipPath><linearGradient id="__lottie_element_7012" spreadMethod="pad" gradientUnits="userSpaceOnUse" x1="-246" y1="1" x2="243" y2="0"><stop offset="0%" stop-color="rgb(0,0,0)"/><stop offset="25%" stop-color="rgb(0,0,0)"/><stop offset="50%" stop-color="rgb(0,0,0)"/><stop offset="75%" stop-color="rgb(0,0,0)"/><stop offset="100%" stop-color="rgb(0,0,0)"/></linearGradient><mask id="__lottie_element_7014"><path fill="url(#__lottie_element_7013)" d=" M-246.5,-145.5 C-246.5,-139 -246.5,144.218994140625 -246.5,146.593994140625 C-244.71200561523438,146.76499938964844 -241.55099487304688,147.5780029296875 -237.75900268554688,148.50999450683594 C-220.5,152.75 -191.07200622558594,159.75999450683594 -178.26499938964844,161.58399963378906 C-147.25,166 -127.13200378417969,165.62600708007812 -103.76799774169922,164.74600219726562 C-50.75,162.75 -4.125,146.125 27.19499969482422,139.3300018310547 C47.95800018310547,134.8249969482422 68.79000091552734,130.64500427246094 83.74700164794922,128.94000244140625 C106.25,126.375 122.875,126.75 143.25,128.35899353027344 C183.33700561523438,131.52499389648438 217.79400634765625,139.2030029296875 241.43800354003906,147.031005859375 C241.43800354003906,147.09300231933594 241.406005859375,147.09300231933594 241.406005859375,147.06199645996094 C241.406005859375,147.06199645996094 241.406005859375,147.06199645996094 241.406005859375,147.06199645996094 C241.56199645996094,120.56199645996094 241.23399353027344,82.29100036621094 241.25,49.90599822998047 C241.26600646972656,17.08300018310547 241.43699645996094,-15.739999771118164 241.5,-48.5629997253418 C241.56199645996094,-80.91699981689453 241.5,-128.75 241.625,-145.625 C151.281005859375,-172.5 103.15699768066406,-165.1009979248047 78.5,-162.81199645996094 C23.042999267578125,-156.04600524902344 -48.707000732421875,-130.79600524902344 -83.375,-129.06199645996094 C-157.875,-120.1240005493164 -212.75,-139.625 -246.5,-145.5z"/></mask><linearGradient id="__lottie_element_7013" spreadMethod="pad" gradientUnits="userSpaceOnUse" x1="-246" y1="1" x2="243" y2="0"><stop stop-color="rgb(255,255,255)" offset="0%" stop-opacity="1"/><stop stop-color="rgb(255,255,255)" offset="17%" stop-opacity="0.5"/><stop stop-color="rgb(255,255,255)" offset="33%" stop-opacity="0"/><stop stop-color="rgb(255,255,255)" offset="50%" stop-opacity="0"/><stop stop-color="rgb(255,255,255)" offset="66%" stop-opacity="0"/><stop stop-color="rgb(255,255,255)" offset="83%" stop-opacity="0.5"/><stop stop-color="rgb(255,255,255)" offset="100%" stop-opacity="1"/></linearGradient></defs><g clip-path="url(#__lottie_element_6993)"><g style="display: block;" transform="matrix(0.800000011920929,0,0,0.800000011920929,257.9656066894531,250.03680419921875)" opacity="1"><g opacity="1" transform="matrix(1,0,0,1,0,0)"><path fill="rgb(196,37,37)" fill-opacity="1" d=" M-83.76799774169922,163.27699279785156 C-70.08100128173828,162.9530029296875 -33.430999755859375,155.85899353027344 -2.680000066757202,146.8300018310547 C23.292999267578125,139.20399475097656 64.41799926757812,131.5780029296875 78.18800354003906,129.31100463867188 C100.53600311279297,125.63099670410156 103.15699768066406,-165.1009979248047 78.5,-162.81199645996094 C23.042999267578125,-156.04600524902344 -48.707000732421875,-130.79600524902344 -83.375,-129.06199645996094 C-157.875,-120.1240005493164 -107.14199829101562,163.8300018310547 -83.76799774169922,163.27699279785156z"/></g><g opacity="1" transform="matrix(1,0,0,1,0,0)"><path fill="rgb(30,160,29)" fill-opacity="1" d=" M241.406005859375,147.06199645996094 C241.56199645996094,120.56199645996094 241.23399353027344,82.29100036621094 241.25,49.90599822998047 C241.26600646972656,17.08300018310547 241.43699645996094,-15.739999771118164 241.5,-48.5629997253418 C241.56199645996094,-80.91699981689453 241.5,-128.75 241.625,-145.625 C151.281005859375,-172.5 103.15699768066406,-165.1009979248047 78.5,-162.81199645996094 C78.54299926757812,-148.04600524902344 78.7239990234375,-51.95899963378906 78.80599975585938,3.4679999351501465 C78.84400177001953,29.06100082397461 78.98699951171875,54.654998779296875 78.86000061035156,80.24800109863281 C78.80899810791016,90.48100280761719 78.50199890136719,102.66699981689453 78.31400299072266,113.13999938964844 C78.20099639892578,119.40699768066406 78.13099670410156,125.06099700927734 78.18399810791016,129.31500244140625 C82.79299926757812,128.70399475097656 95.38700103759766,127.7969970703125 102.0009994506836,127.50299835205078 C104.4209976196289,127.3949966430664 112.30000305175781,127.25 121.89600372314453,127.39399719238281 C131.32400512695312,127.53500366210938 142.4080047607422,127.95600128173828 151.59800720214844,128.96499633789062 C210.66799926757812,135.45399475097656 241.406005859375,147.06199645996094 241.406005859375,147.06199645996094z"/></g><g opacity="1" transform="matrix(1,0,0,1,0,0)"><path fill="rgb(20,20,20)" fill-opacity="1" d=" M-246.5,-145.5 C-246.5,-139 -246.5,144.218994140625 -246.5,146.593994140625 C-237.01199340820312,147.23800659179688 -199.2220001220703,161.7729949951172 -144.3179931640625,164.906005859375 C-125.91400146484375,165.95599365234375 -105.58699798583984,165.72500610351562 -83.75900268554688,163.25999450683594 C-83.83100128173828,158.95599365234375 -83.60299682617188,142.11300659179688 -83.48300170898438,100.40299987792969 C-83.36199951171875,58.2130012512207 -83.37699890136719,47.42900085449219 -83.32099914550781,3.3340001106262207 C-83.29199981689453,-19.281999588012695 -83.10700225830078,-62.74300003051758 -83.14700317382812,-78.58200073242188 C-83.16400146484375,-85.07599639892578 -83.34300231933594,-124.29199981689453 -83.375,-129.06199645996094 C-157.875,-120.1240005493164 -212.75,-139.625 -246.5,-145.5z"/></g></g><g style="display: block;" transform="matrix(0.800000011920929,0,0,0.800000011920929,51.20000457763672,45.19920349121094)" opacity="1"><g opacity="1" transform="matrix(1,0,0,1,256.1650085449219,206.67599487304688)"><path stroke-linecap="round" stroke-linejoin="round" fill-opacity="0" stroke="rgb(255,255,255)" stroke-opacity="1" stroke-width="2" d=" M-38.012001037597656,9.437000274658203 C-7.164999961853027,-19.426000595092773 21.709999084472656,-18.049999237060547 37.792999267578125,-8.505999565124512"/></g><g opacity="1" transform="matrix(1,0,0,1,256.1650085449219,197.9949951171875)"><path stroke-linecap="round" stroke-linejoin="round" fill-opacity="0" stroke="rgb(255,255,255)" stroke-opacity="1" stroke-width="2" d=" M-38.012001037597656,8.812000274658203 C-9.289999961853027,-19.2450008392334 22.334999084472656,-19.30699920654297 38.012001037597656,-9.475000381469727"/></g><g opacity="1" transform="matrix(1,0,0,1,216.76600646972656,294.5010070800781)"><path fill="rgb(255,255,255)" fill-opacity="1" d=" M-21.902999877929688,16.746999740600586 C-10.222000122070312,32.066001892089844 2.9839999675750732,6.999000072479248 13.46500015258789,9.692999839782715 C0.984000027179718,-1.2510000467300415 -7.203999996185303,18 -21.902999877929688,16.746999740600586z"/></g><g opacity="1" transform="matrix(1,0,0,1,137.98899841308594,262.3030090332031)"><path fill="rgb(255,255,255)" fill-opacity="1" d=" M45.0890007019043,12.881999969482422 C47.13600158691406,31.695999145507812 64.63500213623047,19.44700050354004 74.9729995727539,25.993000030517578 C73.51000213623047,6.572000026702881 55.76100158691406,24.445999145507812 45.0890007019043,12.881999969482422z"/></g><g opacity="1" transform="matrix(1,0,0,1,150.8520050048828,221.8719940185547)"><path fill="rgb(255,255,255)" fill-opacity="1" d=" M54.17499923706055,53.10900115966797 C51.8129997253418,43.6619987487793 44.27399826049805,37.39699935913086 40.70000076293945,33.75899887084961 C42.58599853515625,33.189998626708984 44.492000579833984,32.814998626708984 46.46500015258789,32.749000549316406 C46.709999084472656,31.159000396728516 47.02299880981445,28.22100067138672 47.32899856567383,26.141000747680664 C54.71099853515625,33.689998626708984 60.43000030517578,47.428001403808594 54.17499923706055,53.10900115966797z"/></g><g opacity="1" transform="matrix(1,0,0,1,295.12799072265625,294.5010070800781)"><path fill="rgb(255,255,255)" fill-opacity="1" d=" M21.21500015258789,-9.878000259399414 C8.996999740600586,6.875 0.8730000257492065,-9.00100040435791 -13.34000015258789,-3.181999921798706 C-4.501999855041504,-17.625999450683594 8.57699966430664,-6.559000015258789 21.21500015258789,-9.878000259399414z"/></g><g opacity="1" transform="matrix(1,0,0,1,308.40399169921875,268.0530090332031)"><path fill="rgb(255,255,255)" fill-opacity="1" d=" M20.1299991607666,-23.336000442504883 C17.832000732421875,-5.7829999923706055 0.06400000303983688,-9.654000282287598 -9.255000114440918,-1.1009999513626099 C-6.702000141143799,-20.18600082397461 8.57699966430664,-10.76200008392334 20.1299991607666,-23.336000442504883z"/></g><g opacity="1" transform="matrix(1,0,0,1,307.0409851074219,250.3719940185547)"><path fill="rgb(255,255,255)" fill-opacity="1" d=" M-0.7059999704360962,1.3279999494552612 C1.656000018119812,-8.119000434875488 9.038999557495117,-19.134000778198242 12.61299991607666,-22.77199935913086 C12.031000137329102,-23.951000213623047 8.347999572753906,-21.924999237060547 7.379000186920166,-22.81399917602539 C6.409999847412109,-23.702999114990234 7.692999839782715,-27.650999069213867 6.421000003814697,-27.983999252319336 C1.378000020980835,-22.174999237060547 -6.540999889373779,-4.7779998779296875 -0.7059999704360962,1.3279999494552612z"/></g><g opacity="1" transform="matrix(1,0,0,1,218.40499877929688,305.2120056152344)"><path fill="rgb(213,177,95)" fill-opacity="1" d=" M-17.320999145507812,12.008000373840332 C-13.236000061035156,20.43400001525879 6.71999979019165,22.913000106811523 9.755000114440918,15.104000091552734 C12.104000091552734,9.057999610900879 -12.217000007629395,8.944000244140625 -17.320999145507812,12.008000373840332z"/></g><g opacity="1" transform="matrix(1,0,0,1,231.0279998779297,299.6090087890625)"><path fill="rgb(213,177,95)" fill-opacity="1" d=" M-8.652999877929688,4.3470001220703125 C-11.029000282287598,12.017000198364258 -0.7879999876022339,22.680999755859375 3.546999931335449,18.17099952697754 C9.222000122070312,12.265999794006348 -0.6539999842643738,5.642000198364258 -8.652999877929688,4.3470001220703125z"/></g><g opacity="1" transform="matrix(1,0,0,1,195.5019989013672,250.08599853515625)"><path fill="rgb(213,177,95)" fill-opacity="1" d=" M-6.322000026702881,-0.17399999499320984 C-12.751999855041504,9.069999694824219 -12.156999588012695,28.091999053955078 -5.683000087738037,27.795000076293945 C0.7910000085830688,27.49799919128418 -1.7519999742507935,4.070000171661377 -6.322000026702881,-0.17399999499320984z"/></g><g opacity="1" transform="matrix(1,0,0,1,163.9010009765625,205.2740020751953)"><path fill="rgb(213,177,95)" fill-opacity="1" d=" M46.689998626708984,12.401000022888184 C36.9739990234375,16.72599983215332 27.135000228881836,38.775001525878906 32.94200134277344,41.652000427246094 C38.749000549316406,44.52899932861328 48.42499923706055,18.006999969482422 46.689998626708984,12.401000022888184z"/></g><g opacity="1" transform="matrix(1,0,0,1,146.7310028076172,243.39500427246094)"><path fill="rgb(213,177,95)" fill-opacity="1" d=" M50.87200164794922,16.503999710083008 C46.39400100708008,23.229000091552734 46.2869987487793,36.345001220703125 52.3390007019043,35.58700180053711 C57.54999923706055,34.933998107910156 56.14400100708008,21.604000091552734 50.87200164794922,16.503999710083008z"/></g><g opacity="1" transform="matrix(1,0,0,1,174.08799743652344,205.2270050048828)"><path fill="rgb(213,177,95)" fill-opacity="1" d=" M46.38800048828125,14.960000038146973 C39.7869987487793,19.14900016784668 30.003000259399414,31.89699935913086 35.43299865722656,34.67499923706055 C39.69200134277344,36.854000091552734 46.5369987487793,22.02400016784668 46.38800048828125,14.960000038146973z"/></g><g opacity="1" transform="matrix(1,0,0,1,139.6750030517578,291.2449951171875)"><path fill="rgb(213,177,95)" fill-opacity="1" d=" M43.97800064086914,-7.580999851226807 C46.35599899291992,6.691999912261963 56.632999420166016,21.02899932861328 62.96699905395508,16.805999755859375 C67.56300354003906,13.741999626159668 59.95000076293945,0.41100001335144043 51.62200164794922,-7.854000091552734 C51.159000396728516,-6.098999977111816 50.983001708984375,-3.877000093460083 50.79199981689453,-2.9200000762939453 C48.82500076293945,-4.244999885559082 44.95000076293945,-6.433000087738037 43.97800064086914,-7.580999851226807z"/></g><g opacity="1" transform="matrix(1,0,0,1,156.56100463867188,292.9129943847656)"><path fill="rgb(213,177,95)" fill-opacity="1" d=" M51.367000579833984,-7.383999824523926 C49.439998626708984,0.7129999995231628 52.742000579833984,13.454999923706055 59.02899932861328,9.986000061035156 C65.18900299072266,6.5879998207092285 57.939998626708984,-3.9119999408721924 51.367000579833984,-7.383999824523926z"/></g><g opacity="1" transform="matrix(1,0,0,1,293.885986328125,305.2120056152344)"><path fill="rgb(213,177,95)" fill-opacity="1" d=" M16.790000915527344,-12.836000442504883 C9.23900032043457,-0.5870000123977661 -8.652999877929688,6.947999954223633 -9.847999572753906,0.5730000138282776 C-10.885000228881836,-4.961999893188477 12.704999923706055,-14.45300006866455 16.790000915527344,-12.836000442504883z"/></g><g opacity="1" transform="matrix(1,0,0,1,281.2619934082031,299.6090087890625)"><path fill="rgb(213,177,95)" fill-opacity="1" d=" M9.371000289916992,-11.871999740600586 C9.862000465393066,-3.8589999675750732 1.4290000200271606,9.138999938964844 -3.328000068664551,5.077000141143799 C-8.859999656677246,0.3540000021457672 5.111999988555908,-9.984000205993652 9.371000289916992,-11.871999740600586z"/></g><g opacity="1" transform="matrix(1,0,0,1,376.0379943847656,225.58599853515625)"><path fill="rgb(213,177,95)" fill-opacity="1" d=" M-52.58399963378906,-4.861000061035156 C-45.91299819946289,3.2890000343322754 -47.78099822998047,23.18600082397461 -54.255001068115234,22.888999938964844 C-60.729000091552734,22.591999053955078 -56.53799819946289,-1.3359999656677246 -52.58399963378906,-4.861000061035156z"/></g><g opacity="1" transform="matrix(1,0,0,1,308.8900146484375,207.8990020751953)"><path fill="rgb(213,177,95)" fill-opacity="1" d=" M-7.001999855041504,-12.41100025177002 C2.1110000610351562,-10.77400016784668 12.734999656677246,7.97599983215332 6.308000087738037,12.277000427246094 C-0.5109999775886536,16.839000701904297 -9.513999938964844,-7.39900016784668 -7.001999855041504,-12.41100025177002z"/></g><g opacity="1" transform="matrix(1,0,0,1,367.80999755859375,231.89500427246094)"><path fill="rgb(213,177,95)" fill-opacity="1" d=" M-53.058998107910156,0.7540000081062317 C-49.125,6.816999912261963 -48.94300079345703,21.969999313354492 -54.994998931884766,21.211999893188477 C-60.20600128173828,20.55900001525879 -56.715999603271484,4.21999979019165 -53.058998107910156,0.7540000081062317z"/></g><g opacity="1" transform="matrix(1,0,0,1,294.2030029296875,224.2270050048828)"><path fill="rgb(213,177,95)" fill-opacity="1" d=" M-2.138000011444092,-21.540000915527344 C3.421999931335449,-20.10099983215332 13.92300033569336,-11.60200023651123 8.317000389099121,-6.574999809265137 C3.565999984741211,-2.315000057220459 -2.4570000171661377,-16.242000579833984 -2.138000011444092,-21.540000915527344z"/></g><g opacity="1" transform="matrix(1,0,0,1,312.6159973144531,279.8949890136719)"><path fill="rgb(213,177,95)" fill-opacity="1" d=" M15.833999633789062,-26.799999237060547 C13.758999824523926,-13.932999610900879 3.053999900817871,7.059999942779541 -3.2799999713897705,2.8369998931884766 C-7.875999927520752,-0.22699999809265137 3.11299991607666,-18.469999313354492 8.347000122070312,-24.91699981689453 C8.8100004196167,-23.16200065612793 8.954999923706055,-21.47100067138672 9.145999908447266,-20.513999938964844 C11.444000244140625,-22.812000274658203 14.918999671936035,-26.420000076293945 15.833999633789062,-26.799999237060547z"/></g><g opacity="1" transform="matrix(1,0,0,1,363.9800109863281,288.4129943847656)"><path fill="rgb(213,177,95)" fill-opacity="1" d=" M-59.52299880981445,-24.19700050354004 C-57.35499954223633,-17.413000106811523 -62.07899856567383,-3.25 -67.56099700927734,-5.452000141143799 C-73.93599700927734,-8.012999534606934 -63.60499954223633,-21.788000106811523 -59.52299880981445,-24.19700050354004z"/></g><g opacity="1" transform="matrix(1,0,0,1,255.98500061035156,312.0719909667969)"><path fill="rgb(255,255,255)" fill-opacity="1" d=" M34.82099914550781,2.2660000324249268 C37.4739990234375,0.2240000069141388 33.513999938964844,-1.9850000143051147 29.25,-4.265999794006348 C25.639999389648438,-6.197000026702881 23.275999069213867,-9.401000022888184 21.906999588012695,-8.684000015258789 C9.765000343322754,-2.322000026702881 -1.6100000143051147,5.677999973297119 -20.065000534057617,1.503999948501587 C-21.572999954223633,1.1629999876022339 -25.450000762939453,5.808000087738037 -27.75200080871582,8.734000205993652 C-30.95400047302246,12.803000450134277 -37.44499969482422,16.395999908447266 -34.854000091552734,18.516000747680664 C-27.364999771118164,24.643999099731445 25.514999389648438,9.428000450134277 34.82099914550781,2.2660000324249268z"/></g></g><g style="display: block;" transform="matrix(0.800000011920929,0,0,0.800000011920929,51.20000457763672,45.19920349121094)" opacity="1"><g opacity="1" transform="matrix(1,0,0,1,230.2830047607422,255)"><path stroke-linecap="round" stroke-linejoin="round" fill-opacity="0" stroke="rgb(255,255,255)" stroke-opacity="1" stroke-width="0.5" d=" M3.1610000133514404,14.489999771118164 C3.1610000133514404,14.489999771118164 -8.942000389099121,-2.8959999084472656 -8.942000389099121,-2.8959999084472656"/></g><g opacity="1" transform="matrix(1,0,0,1,0,0)"><g opacity="1" transform="matrix(1,0,0,1,219.6479949951172,265.33599853515625)"><path fill="rgb(255,255,255)" fill-opacity="1" d=" M-7.181000232696533,5.453000068664551 C-7.239999771118164,7.025000095367432 -7.313000202178955,9.053999900817871 -7.669000148773193,10.59000015258789 C-6.473999977111816,11.54699993133545 -4.181000232696533,12.866000175476074 -1.7920000553131104,15.54699993133545 C-0.796999990940094,13.932999610900879 -0.020999999716877937,11.055000305175781 0.2939999997615814,9.654000282287598 C-0.9919999837875366,5.043000221252441 -4.375,7.090000152587891 -7.181000232696533,5.453000068664551z"/><path stroke-linecap="round" stroke-linejoin="round" fill-opacity="0" stroke="rgb(213,177,95)" stroke-opacity="1" stroke-width="1" d=" M-7.181000232696533,5.453000068664551 C-7.239999771118164,7.025000095367432 -7.313000202178955,9.053999900817871 -7.669000148773193,10.59000015258789 C-6.473999977111816,11.54699993133545 -4.181000232696533,12.866000175476074 -1.7920000553131104,15.54699993133545 C-0.796999990940094,13.932999610900879 -0.020999999716877937,11.055000305175781 0.2939999997615814,9.654000282287598 C-0.9919999837875366,5.043000221252441 -4.375,7.090000152587891 -7.181000232696533,5.453000068664551z"/></g><g opacity="1" transform="matrix(1,0,0,1,224.7480010986328,251.95199584960938)"><path fill="rgb(255,255,255)" fill-opacity="1" d=" M2.9709999561309814,9.133000373840332 C1.5640000104904175,7.172999858856201 -0.8100000023841858,3.9230000972747803 -2.9030001163482666,1.2380000352859497 C-5.392000198364258,3.015000104904175 -7.795000076293945,6.170000076293945 -9.032999992370605,7.732999801635742 C-8.199999809265137,12.532999992370605 -4.1479997634887695,9.550999641418457 -2.5980000495910645,13.88700008392334 C-1.7430000305175781,12.687999725341797 -0.12300000339746475,10.267000198364258 2.9709999561309814,9.133000373840332z"/><path stroke-linecap="round" stroke-linejoin="round" fill-opacity="0" stroke="rgb(213,177,95)" stroke-opacity="1" stroke-width="1" d=" M2.9709999561309814,9.133000373840332 C1.5640000104904175,7.172999858856201 -0.8100000023841858,3.9230000972747803 -2.9030001163482666,1.2380000352859497 C-5.392000198364258,3.015000104904175 -7.795000076293945,6.170000076293945 -9.032999992370605,7.732999801635742 C-8.199999809265137,12.532999992370605 -4.1479997634887695,9.550999641418457 -2.5980000495910645,13.88700008392334 C-1.7430000305175781,12.687999725341797 -0.12300000339746475,10.267000198364258 2.9709999561309814,9.133000373840332z"/></g></g><g opacity="1" transform="matrix(1,0,0,1,218.29200744628906,255.6179962158203)"><path stroke-linecap="round" stroke-linejoin="round" fill-opacity="0" stroke="rgb(213,177,95)" stroke-opacity="1" stroke-width="1" d=" M-2.5880000591278076,4.060999870300293 C-5.823999881744385,9.10099983215332 -5.738999843597412,11.920999526977539 -5.849999904632568,15.189000129699707"/></g><g opacity="1" transform="matrix(1,0,0,1,224.58200073242188,261.67999267578125)"><path stroke-linecap="round" stroke-linejoin="round" fill-opacity="0" stroke="rgb(213,177,95)" stroke-opacity="1" stroke-width="1" d=" M-4.730000019073486,13.371000289916992 C-3.6710000038146973,9.409000396728516 -4.081999778747559,7.10099983215332 -2.489000082015991,4.129000186920166"/></g><g opacity="1" transform="matrix(1,0,0,1,281.7170104980469,255)"><path stroke-linecap="round" stroke-linejoin="round" fill-opacity="0" stroke="rgb(255,255,255)" stroke-opacity="1" stroke-width="0.5" d=" M-3.380000114440918,3.5209999084472656 C-3.380000114440918,3.5209999084472656 8.942000389099121,-19.833999633789062 8.942000389099121,-19.833999633789062"/></g><g opacity="1" transform="matrix(1,0,0,1,0,0)"><g opacity="1" transform="matrix(1,0,0,1,292.35198974609375,265.33599853515625)"><path fill="rgb(255,255,255)" fill-opacity="1" d=" M7.243000030517578,-15.109999656677246 C7.302000045776367,-13.538000106811523 7.25,-12.008999824523926 7.60699987411499,-10.472999572753906 C6.4120001792907715,-9.515999794006348 3.8919999599456787,-5.633999824523926 1.503000020980835,-2.953000068664551 C-0.16500000655651093,-5.210999965667725 -0.38499999046325684,-7.320000171661377 -0.699999988079071,-8.720999717712402 C0.8669999837875366,-12.27299976348877 4.436999797821045,-13.472999572753906 7.243000030517578,-15.109999656677246z"/><path stroke-linecap="round" stroke-linejoin="round" fill-opacity="0" stroke="rgb(213,177,95)" stroke-opacity="1" stroke-width="1" d=" M7.243000030517578,-15.109999656677246 C7.302000045776367,-13.538000106811523 7.25,-12.008999824523926 7.60699987411499,-10.472999572753906 C6.4120001792907715,-9.515999794006348 3.8919999599456787,-5.633999824523926 1.503000020980835,-2.953000068664551 C-0.16500000655651093,-5.210999965667725 -0.38499999046325684,-7.320000171661377 -0.699999988079071,-8.720999717712402 C0.8669999837875366,-12.27299976348877 4.436999797821045,-13.472999572753906 7.243000030517578,-15.109999656677246z"/></g><g opacity="1" transform="matrix(1,0,0,1,287.25201416015625,251.95199584960938)"><path fill="rgb(255,255,255)" fill-opacity="1" d=" M-2.7829999923706055,-5.428999900817871 C-1.49399995803833,-7.63100004196167 1.4559999704360962,-13.04699993133545 3.184999942779541,-15.88700008392334 C5.560999870300293,-14.265000343322754 7.795000076293945,-13.017999649047852 9.032999992370605,-11.454999923706055 C8.199999809265137,-6.65500020980835 3.8980000019073486,-7.01200008392334 2.3480000495910645,-2.6760001182556152 C1.4930000305175781,-3.875 -0.25600001215934753,-4.498000144958496 -2.7829999923706055,-5.428999900817871z"/><path stroke-linecap="round" stroke-linejoin="round" fill-opacity="0" stroke="rgb(213,177,95)" stroke-opacity="1" stroke-width="1" d=" M-2.7829999923706055,-5.428999900817871 C-1.49399995803833,-7.63100004196167 1.4559999704360962,-13.04699993133545 3.184999942779541,-15.88700008392334 C5.560999870300293,-14.265000343322754 7.795000076293945,-13.017999649047852 9.032999992370605,-11.454999923706055 C8.199999809265137,-6.65500020980835 3.8980000019073486,-7.01200008392334 2.3480000495910645,-2.6760001182556152 C1.4930000305175781,-3.875 -0.25600001215934753,-4.498000144958496 -2.7829999923706055,-5.428999900817871z"/></g></g><g opacity="1" transform="matrix(1,0,0,1,293.7080078125,255.6179962158203)"><path stroke-linecap="round" stroke-linejoin="round" fill-opacity="0" stroke="rgb(213,177,95)" stroke-opacity="1" stroke-width="1" d=" M2.5250000953674316,-15.064000129699707 C4.916999816894531,-13.243000030517578 5.801000118255615,-8.767000198364258 5.9120001792907715,-5.499000072479248"/></g><g opacity="1" transform="matrix(1,0,0,1,287.4179992675781,261.67999267578125)"><path stroke-linecap="round" stroke-linejoin="round" fill-opacity="0" stroke="rgb(213,177,95)" stroke-opacity="1" stroke-width="1" d=" M4.261000156402588,-5.129000186920166 C3.2019999027252197,-9.090999603271484 4.269000053405762,-9.868000030517578 2.1449999809265137,-12.371000289916992"/></g><g opacity="1" transform="matrix(1,0,0,1,255.906005859375,285.5429992675781)"><path fill="rgb(255,255,255)" fill-opacity="1" d=" M33.39099884033203,-2.7950000762939453 C33.39099884033203,-2.7950000762939453 27.902000427246094,-6.517000198364258 27.902000427246094,-6.517000198364258 C27.902000427246094,-6.517000198364258 -27.69300079345703,6.961999893188477 -27.69300079345703,6.961999893188477 C-27.69300079345703,6.961999893188477 -33.68299865722656,13.704999923706055 -33.68299865722656,13.704999923706055 C-33.68299865722656,13.704999923706055 33.39099884033203,-2.7950000762939453 33.39099884033203,-2.7950000762939453z"/></g><g opacity="1" transform="matrix(1,0,0,1,273.4169921875,278.3299865722656)"><path fill="rgb(255,255,255)" fill-opacity="1" d=" M-4.105000019073486,1.9459999799728394 C-4.105000019073486,1.9459999799728394 7.5370001792907715,-0.9710000157356262 7.5370001792907715,-0.9710000157356262 C7.5370001792907715,-0.9710000157356262 4.485000133514404,-3.2939999103546143 4.359000205993652,-6.804999828338623 C4.359000205993652,-6.804999828338623 4.426000118255615,-38.04199981689453 4.426000118255615,-38.04199981689453 C4.426000118255615,-38.04199981689453 -1.9930000305175781,-36.24700164794922 -1.9930000305175781,-36.24700164794922 C-1.9930000305175781,-36.24700164794922 -2.0929999351501465,-5.11299991607666 -2.0929999351501465,-5.11299991607666 C-2.0929999351501465,-5.11299991607666 -1.4170000553131104,-0.6629999876022339 -4.105000019073486,1.9459999799728394z"/><path stroke-linecap="round" stroke-linejoin="round" fill-opacity="0" stroke="rgb(213,177,95)" stroke-opacity="1" stroke-width="1" d=" M-4.105000019073486,1.9459999799728394 C-4.105000019073486,1.9459999799728394 7.5370001792907715,-0.9710000157356262 7.5370001792907715,-0.9710000157356262 C7.5370001792907715,-0.9710000157356262 4.485000133514404,-3.2939999103546143 4.359000205993652,-6.804999828338623 C4.359000205993652,-6.804999828338623 4.426000118255615,-38.04199981689453 4.426000118255615,-38.04199981689453 C4.426000118255615,-38.04199981689453 -1.9930000305175781,-36.24700164794922 -1.9930000305175781,-36.24700164794922 C-1.9930000305175781,-36.24700164794922 -2.0929999351501465,-5.11299991607666 -2.0929999351501465,-5.11299991607666 C-2.0929999351501465,-5.11299991607666 -1.4170000553131104,-0.6629999876022339 -4.105000019073486,1.9459999799728394z"/></g><g opacity="1" transform="matrix(1,0,0,1,240.24099731445312,278.4150085449219)"><path fill="rgb(255,255,255)" fill-opacity="1" d=" M-9.944000244140625,11.529000282287598 C-9.944000244140625,11.529000282287598 7.006999969482422,7.5920000076293945 7.006999969482422,7.5920000076293945 C7.006999969482422,7.5920000076293945 6.677999973297119,5.251999855041504 6.677999973297119,3.496999979019165 C5.321000099182129,3.5850000381469727 -0.40799999237060547,6.7729997634887695 -0.12200000137090683,3.3459999561309814 C-0.12200000137090683,3.3459999561309814 0.4180000126361847,-28.996999740600586 0.4180000126361847,-28.996999740600586 C0.4180000126361847,-28.996999740600586 -6.25,-27.229000091552734 -6.25,-27.229000091552734 C-6.25,-27.229000091552734 -5.953999996185303,4.0329999923706055 -5.953999996185303,4.0329999923706055 C-5.953999996185303,4.0329999923706055 -6.736999988555908,9.847999572753906 -9.944000244140625,11.529000282287598z"/><path stroke-linecap="round" stroke-linejoin="round" fill-opacity="0" stroke="rgb(213,177,95)" stroke-opacity="1" stroke-width="1" d=" M-9.944000244140625,11.529000282287598 C-9.944000244140625,11.529000282287598 7.006999969482422,7.5920000076293945 7.006999969482422,7.5920000076293945 C7.006999969482422,7.5920000076293945 6.677999973297119,5.251999855041504 6.677999973297119,3.496999979019165 C5.321000099182129,3.5850000381469727 -0.40799999237060547,6.7729997634887695 -0.12200000137090683,3.3459999561309814 C-0.12200000137090683,3.3459999561309814 0.4180000126361847,-28.996999740600586 0.4180000126361847,-28.996999740600586 C0.4180000126361847,-28.996999740600586 -6.25,-27.229000091552734 -6.25,-27.229000091552734 C-6.25,-27.229000091552734 -5.953999996185303,4.0329999923706055 -5.953999996185303,4.0329999923706055 C-5.953999996185303,4.0329999923706055 -6.736999988555908,9.847999572753906 -9.944000244140625,11.529000282287598z"/></g><g opacity="1" transform="matrix(1,0,0,1,255.9530029296875,240.73399353027344)"><path fill="rgb(255,255,255)" fill-opacity="1" d=" M-22.733999252319336,7.323999881744385 C-22.733999252319336,7.323999881744385 -26.420000076293945,4.198999881744385 -26.420000076293945,4.198999881744385 C-26.420000076293945,4.198999881744385 -14.333000183105469,1.4490000009536743 -14.333000183105469,1.4490000009536743 C-14.333000183105469,1.4490000009536743 -9.045000076293945,-4.116000175476074 -9.045000076293945,-4.116000175476074 C-9.045000076293945,-4.116000175476074 9.253000259399414,-8.491000175476074 9.253000259399414,-8.491000175476074 C9.253000259399414,-8.491000175476074 14.291999816894531,-5.7179999351501465 14.291999816894531,-5.7179999351501465 C14.291999816894531,-5.7179999351501465 26.086999893188477,-8.635000228881836 26.086999893188477,-8.635000228881836 C26.086999893188477,-8.635000228881836 22.858999252319336,-3.9260001182556152 22.858999252319336,-3.9260001182556152 C22.858999252319336,-3.9260001182556152 -22.733999252319336,7.323999881744385 -22.733999252319336,7.323999881744385z"/></g><g opacity="1" transform="matrix(1,0,0,1,256.38800048828125,267.6910095214844)"><path fill="rgb(255,255,255)" fill-opacity="1" d=" M13.63599967956543,8.130999565124512 C13.63599967956543,8.130999565124512 8.067999839782715,9.67300033569336 8.067999839782715,9.67300033569336 C8.067999839782715,9.67300033569336 11.031999588012695,13.411999702453613 11.031999588012695,13.411999702453613 C11.031999588012695,13.411999702453613 -3.2339999675750732,16.541000366210938 -3.2339999675750732,16.541000366210938 C-3.2339999675750732,16.541000366210938 -4.480000019073486,12.423999786376953 -4.480000019073486,12.423999786376953 C-4.480000019073486,12.423999786376953 -8.949999809265137,14.13700008392334 -8.949999809265137,14.13700008392334 C-8.949999809265137,14.13700008392334 -8.965999603271484,10.125 -8.965999603271484,10.125 C-8.965999603271484,10.125 -13.470000267028809,11.333000183105469 -13.470000267028809,11.333000183105469 C-13.470000267028809,11.333000183105469 -13.38599967956543,-6.965000152587891 -13.38599967956543,-6.965000152587891 C-13.38599967956543,-6.965000152587891 -1.5190000534057617,-9.911999702453613 -1.5190000534057617,-9.911999702453613 C-1.5190000534057617,-9.911999702453613 -1.5190000534057617,-7.7179999351501465 -1.5190000534057617,-7.7179999351501465 C-1.5190000534057617,-7.7179999351501465 3.8540000915527344,-6.935999870300293 3.8540000915527344,-6.935999870300293 C3.8540000915527344,-6.935999870300293 13.63599967956543,8.130999565124512 13.63599967956543,8.130999565124512z"/><path stroke-linecap="round" stroke-linejoin="round" fill-opacity="0" stroke="rgb(213,177,95)" stroke-opacity="1" stroke-width="1" d=" M13.63599967956543,8.130999565124512 C13.63599967956543,8.130999565124512 8.067999839782715,9.67300033569336 8.067999839782715,9.67300033569336 C8.067999839782715,9.67300033569336 11.031999588012695,13.411999702453613 11.031999588012695,13.411999702453613 C11.031999588012695,13.411999702453613 -3.2339999675750732,16.541000366210938 -3.2339999675750732,16.541000366210938 C-3.2339999675750732,16.541000366210938 -4.480000019073486,12.423999786376953 -4.480000019073486,12.423999786376953 C-4.480000019073486,12.423999786376953 -8.949999809265137,14.13700008392334 -8.949999809265137,14.13700008392334 C-8.949999809265137,14.13700008392334 -8.965999603271484,10.125 -8.965999603271484,10.125 C-8.965999603271484,10.125 -13.470000267028809,11.333000183105469 -13.470000267028809,11.333000183105469 C-13.470000267028809,11.333000183105469 -13.38599967956543,-6.965000152587891 -13.38599967956543,-6.965000152587891 C-13.38599967956543,-6.965000152587891 -1.5190000534057617,-9.911999702453613 -1.5190000534057617,-9.911999702453613 C-1.5190000534057617,-9.911999702453613 -1.5190000534057617,-7.7179999351501465 -1.5190000534057617,-7.7179999351501465 C-1.5190000534057617,-7.7179999351501465 3.8540000915527344,-6.935999870300293 3.8540000915527344,-6.935999870300293 C3.8540000915527344,-6.935999870300293 13.63599967956543,8.130999565124512 13.63599967956543,8.130999565124512z"/></g><g opacity="1" transform="matrix(1,0,0,1,239.01300048828125,223.2989959716797)"><path fill="rgb(255,255,255)" fill-opacity="1" d=" M-4.598999977111816,3.203000068664551 C-3.76200008392334,0.11800000071525574 -1.0540000200271606,-5.091000080108643 1.2869999408721924,1.6610000133514404 C1.2419999837875366,1.6710000038146973 1.0479999780654907,16.95599937438965 1.0479999780654907,16.95599937438965 C1.0479999780654907,16.95599937438965 -4.517000198364258,18.343000411987305 -4.517000198364258,18.343000411987305 C-4.517000198364258,18.343000411987305 -4.625,3.2139999866485596 -4.598999977111816,3.203000068664551z"/><path stroke-linecap="round" stroke-linejoin="round" fill-opacity="0" stroke="rgb(213,177,95)" stroke-opacity="1" stroke-width="1" d=" M-4.598999977111816,3.203000068664551 C-3.76200008392334,0.11800000071525574 -1.0540000200271606,-5.091000080108643 1.2869999408721924,1.6610000133514404 C1.2419999837875366,1.6710000038146973 1.0479999780654907,16.95599937438965 1.0479999780654907,16.95599937438965 C1.0479999780654907,16.95599937438965 -4.517000198364258,18.343000411987305 -4.517000198364258,18.343000411987305 C-4.517000198364258,18.343000411987305 -4.625,3.2139999866485596 -4.598999977111816,3.203000068664551z"/></g><g opacity="1" transform="matrix(1,0,0,1,273.04998779296875,223.2989959716797)"><path fill="rgb(255,255,255)" fill-opacity="1" d=" M-1.3910000324249268,-6.057000160217285 C0.20000000298023224,-11.17300033569336 2.9089999198913574,-12.881999969482422 4.50600004196167,-7.765999794006348 C4.48799991607666,-7.723999977111816 4.52400016784668,7.651000022888184 4.51200008392334,7.63700008392334 C3.2699999809265137,8.031999588012695 0.9049999713897705,8.64900016784668 -1.11899995803833,9.208999633789062 C-1.1119999885559082,9.187999725341797 -1.3880000114440918,-6.060999870300293 -1.3910000324249268,-6.057000160217285z"/><path stroke-linecap="round" stroke-linejoin="round" fill-opacity="0" stroke="rgb(213,177,95)" stroke-opacity="1" stroke-width="1" d=" M-1.3910000324249268,-6.057000160217285 C0.20000000298023224,-11.17300033569336 2.9089999198913574,-12.881999969482422 4.50600004196167,-7.765999794006348 C4.48799991607666,-7.723999977111816 4.52400016784668,7.651000022888184 4.51200008392334,7.63700008392334 C3.2699999809265137,8.031999588012695 0.9049999713897705,8.64900016784668 -1.11899995803833,9.208999633789062 C-1.1119999885559082,9.187999725341797 -1.3880000114440918,-6.060999870300293 -1.3910000324249268,-6.057000160217285z"/></g><g opacity="1" transform="matrix(1,0,0,1,256.010986328125,228)"><path fill="rgb(255,255,255)" fill-opacity="1" d=" M7.520999908447266,3.882999897003174 C11.73900032043457,-0.3330000042915344 11.13599967956543,-6.28000020980835 8.168000221252441,-9.093999862670898 C5.307000160217285,-11.807000160217285 0.5550000071525574,-8.897000312805176 -0.020999999716877937,-12.694999694824219 C-0.5139999985694885,-8.928999900817871 -4.093999862670898,-9.416999816894531 -7.418000221252441,-6.011000156402588 C-11.255999565124512,-2.078000068664551 -11.678000450134277,5.666999816894531 -7.855000019073486,7.570000171661377 C-5.593999862670898,7 5.238999843597412,4.230000019073486 7.520999908447266,3.882999897003174z"/></g><g opacity="1" transform="matrix(1,0,0,1,255.875,253.7449951171875)"><path stroke-linecap="round" stroke-linejoin="round" fill-opacity="0" stroke="rgb(255,255,255)" stroke-opacity="1" stroke-width="2" d=" M-12.87399959564209,6.923999786376953 C-12.708999633789062,-9.03600025177002 11.49899959564209,-16.577999114990234 12.82699966430664,0.8399999737739563 C12.82699966430664,0.8399999737739563 12.82699966430664,3.9630000591278076 12.82699966430664,3.9630000591278076"/></g></g><g style="display: block;" transform="matrix(0.800000011920929,0,0,0.800000011920929,257.9656066894531,250.03680419921875)" opacity="0.35000000000000003"><g opacity="1" transform="matrix(1,0,0,1,0,0)"><path fill="url(#__lottie_element_7012)" mask="url(#__lottie_element_7014)" fill-opacity="1" d="M0 0 M-246.5,-145.5 C-246.5,-139 -246.5,144.218994140625 -246.5,146.593994140625 C-244.71200561523438,146.76499938964844 -241.55099487304688,147.5780029296875 -237.75900268554688,148.50999450683594 C-220.5,152.75 -191.07200622558594,159.75999450683594 -178.26499938964844,161.58399963378906 C-147.25,166 -127.13200378417969,165.62600708007812 -103.76799774169922,164.74600219726562 C-50.75,162.75 -4.125,146.125 27.19499969482422,139.3300018310547 C47.95800018310547,134.8249969482422 68.79000091552734,130.64500427246094 83.74700164794922,128.94000244140625 C106.25,126.375 122.875,126.75 143.25,128.35899353027344 C183.33700561523438,131.52499389648438 217.79400634765625,139.2030029296875 241.43800354003906,147.031005859375 C241.43800354003906,147.09300231933594 241.406005859375,147.09300231933594 241.406005859375,147.06199645996094 C241.406005859375,147.06199645996094 241.406005859375,147.06199645996094 241.406005859375,147.06199645996094 C241.56199645996094,120.56199645996094 241.23399353027344,82.29100036621094 241.25,49.90599822998047 C241.26600646972656,17.08300018310547 241.43699645996094,-15.739999771118164 241.5,-48.5629997253418 C241.56199645996094,-80.91699981689453 241.5,-128.75 241.625,-145.625 C151.281005859375,-172.5 103.15699768066406,-165.1009979248047 78.5,-162.81199645996094 C23.042999267578125,-156.04600524902344 -48.707000732421875,-130.79600524902344 -83.375,-129.06199645996094 C-157.875,-120.1240005493164 -212.75,-139.625 -246.5,-145.5z"/></g></g><g style="display: block;" transform="matrix(0.800000011920929,0,0,0.800000011920929,257.9656066894531,250.03680419921875)" opacity="0.15"><g opacity="1" transform="matrix(1,0,0,1,0,0)"><path fill="rgb(255,255,255)" fill-opacity="1" d=" M-246.875,-146 C-246.83700561523438,-139.70399475097656 -246.875,-138 -246.79200744628906,-132.81100463867188 C-237.5,-136.25 -197.25,-114 -124.49600219726562,-114.31099700927734 C-38.992000579833984,-114.6760025024414 39.233001708984375,-153.25 121.70800018310547,-153.39700317382812 C179.75,-153.5 241,-132.25 240.91200256347656,-131.552001953125 C241,-140.5 241.375,-144.625 241.375,-144.625 C241.375,-144.625 179.75,-166.25 122.5,-166 C39.49700164794922,-165.63800048828125 -39.5,-128 -124.25,-126.81199645996094 C-197.0449981689453,-125.79199981689453 -237.75,-149 -246.875,-146z"/></g></g><g style="display: block;" transform="matrix(0.800000011920929,0,0,0.800000011920929,257.9656066894531,250.03680419921875)" opacity="0.15"><g opacity="1" transform="matrix(1,0,0,1,0,0)"><path fill="rgb(0,0,0)" fill-opacity="1" d=" M122.5,112.25 C34,112.25 -36,149.5 -123.5,152 C-140.61700439453125,152.48899841308594 -155.82000732421875,151.3489990234375 -170.41099548339844,149.1280059814453 C-195.23399353027344,145.35000610351562 -218.28900146484375,138.4459991455078 -246,131.125 C-246.25,134.5 -246,141.375 -246,145.125 C-218.5749969482422,153.30599975585938 -195.61700439453125,159.55499267578125 -170.83099365234375,163.0050048828125 C-155.8520050048828,165.08999633789062 -140.20399475097656,166.15199279785156 -122.5,166 C-35,165.25 33.5,126.625 121.75,126.5 C126.26799774169922,126.49400329589844 131.11399841308594,126.59500122070312 136.27699279785156,126.83899688720703 C163.25900268554688,128.11300659179688 198.88099670410156,133.2550048828125 241.375,147 C241.375,147 241.25,134.75 241.5,131.125 C199.093994140625,118.93299865722656 163.16200256347656,113.84500122070312 136.1439971923828,112.58000183105469 C131.30499267578125,112.35399627685547 126.75299835205078,112.25 122.5,112.25z"/></g></g><g style="display: block;" transform="matrix(0.800000011920929,0,0,0.800000011920929,257.9656066894531,250.03680419921875)" opacity="1"><g opacity="1" transform="matrix(1,0,0,1,0,0)"><path stroke-linecap="round" stroke-linejoin="round" fill-opacity="0" stroke="rgb(14,79,13)" stroke-opacity="1" stroke-width="8" d=" M78.18399810791016,129.31500244140625 C82.79299926757812,128.70399475097656 95.38700103759766,127.7969970703125 102.0009994506836,127.50299835205078 C104.4209976196289,127.3949966430664 112.30000305175781,127.25 121.89600372314453,127.39399719238281 C131.32400512695312,127.53500366210938 142.4080047607422,127.95600128173828 151.59800720214844,128.96499633789062 C210.66799926757812,135.45399475097656 241.406005859375,147.06199645996094 241.406005859375,147.06199645996094 C241.56199645996094,120.56199645996094 241.23399353027344,82.29100036621094 241.25,49.90599822998047 C241.26600646972656,17.08300018310547 241.43699645996094,-15.739999771118164 241.5,-48.5629997253418 C241.56199645996094,-80.91699981689453 241.5,-128.75 241.625,-145.625 C151.281005859375,-172.5 103.15699768066406,-165.1009979248047 78.5,-162.81199645996094"/></g><g opacity="1" transform="matrix(1,0,0,1,0,0)"><path stroke-linecap="round" stroke-linejoin="round" fill-opacity="0" stroke="rgb(0,0,0)" stroke-opacity="1" stroke-width="8" d=" M-83.375,-129.06199645996094 C-157.875,-120.1240005493164 -212.75,-139.625 -246.5,-145.5 C-246.5,-139 -246.5,144.218994140625 -246.5,146.593994140625 C-237.01199340820312,147.23800659179688 -199.2220001220703,161.7729949951172 -144.3179931640625,164.906005859375 C-125.91400146484375,165.95599365234375 -105.58699798583984,165.72500610351562 -83.75900268554688,163.25999450683594"/></g><g opacity="1" transform="matrix(1,0,0,1,0,0)"><path stroke-linecap="butt" stroke-linejoin="miter" fill-opacity="0" stroke-miterlimit="4" stroke="rgb(125,23,23)" stroke-opacity="1" stroke-width="8" d=" M-83.76799774169922,163.27699279785156 C-70.08100128173828,162.9530029296875 -33.430999755859375,155.85899353027344 -2.680000066757202,146.8300018310547 C23.292999267578125,139.20399475097656 64.41799926757812,131.5780029296875 78.18800354003906,129.31100463867188"/></g><g opacity="1" transform="matrix(1,0,0,1,0,0)"><path stroke-linecap="butt" stroke-linejoin="miter" fill-opacity="0" stroke-miterlimit="4" stroke="rgb(125,23,23)" stroke-opacity="1" stroke-width="8" d=" M78.5,-162.81199645996094 C23.042999267578125,-156.04600524902344 -48.707000732421875,-130.79600524902344 -83.375,-129.06199645996094"/></g></g></g></svg>