<svg xmlns="http://www.w3.org/2000/svg" xmlns:xlink="http://www.w3.org/1999/xlink" viewBox="0 0 512 512" width="512" height="512" style="width: 100%; height: 100%; transform: translate3d(0,0,0);" preserveAspectRatio="xMidYMid meet"><defs><clipPath id="__lottie_element_14743"><rect width="512" height="512" x="0" y="0"/></clipPath><linearGradient id="__lottie_element_14762" spreadMethod="pad" gradientUnits="userSpaceOnUse" x1="-246" y1="1" x2="243" y2="0"><stop offset="0%" stop-color="rgb(0,0,0)"/><stop offset="25%" stop-color="rgb(0,0,0)"/><stop offset="50%" stop-color="rgb(0,0,0)"/><stop offset="75%" stop-color="rgb(0,0,0)"/><stop offset="100%" stop-color="rgb(0,0,0)"/></linearGradient><mask id="__lottie_element_14764"><path fill="url(#__lottie_element_14763)" d=" M-246.5,-145.5 C-246.5,-139 -246.5,144.218994140625 -246.5,146.593994140625 C-244.71200561523438,146.76499938964844 -241.55099487304688,147.5780029296875 -237.75900268554688,148.50999450683594 C-220.5,152.75 -191.07200622558594,159.75999450683594 -178.26499938964844,161.58399963378906 C-147.25,166 -127.13200378417969,165.62600708007812 -103.76799774169922,164.74600219726562 C-50.75,162.75 -4.125,146.125 27.19499969482422,139.3300018310547 C47.95800018310547,134.8249969482422 68.79000091552734,130.64500427246094 83.74700164794922,128.94000244140625 C106.25,126.375 122.875,126.75 143.25,128.35899353027344 C183.33700561523438,131.52499389648438 217.79400634765625,139.2030029296875 241.43800354003906,147.031005859375 C241.43800354003906,147.09300231933594 241.406005859375,147.09300231933594 241.406005859375,147.06199645996094 C241.406005859375,147.06199645996094 241.406005859375,147.06199645996094 241.406005859375,147.06199645996094 C241.56199645996094,120.56199645996094 241.23399353027344,82.29100036621094 241.25,49.90599822998047 C241.26600646972656,17.08300018310547 241.43699645996094,-15.739999771118164 241.5,-48.5629997253418 C241.56199645996094,-80.91699981689453 241.5,-128.75 241.625,-145.625 C151.281005859375,-172.5 103.15699768066406,-165.1009979248047 78.5,-162.81199645996094 C23.042999267578125,-156.04600524902344 -48.707000732421875,-130.79600524902344 -83.375,-129.06199645996094 C-157.875,-120.1240005493164 -212.75,-139.625 -246.5,-145.5z"/></mask><linearGradient id="__lottie_element_14763" spreadMethod="pad" gradientUnits="userSpaceOnUse" x1="-246" y1="1" x2="243" y2="0"><stop stop-color="rgb(255,255,255)" offset="0%" stop-opacity="1"/><stop stop-color="rgb(255,255,255)" offset="17%" stop-opacity="0.5"/><stop stop-color="rgb(255,255,255)" offset="33%" stop-opacity="0"/><stop stop-color="rgb(255,255,255)" offset="50%" stop-opacity="0"/><stop stop-color="rgb(255,255,255)" offset="66%" stop-opacity="0"/><stop stop-color="rgb(255,255,255)" offset="83%" stop-opacity="0.5"/><stop stop-color="rgb(255,255,255)" offset="100%" stop-opacity="1"/></linearGradient></defs><g clip-path="url(#__lottie_element_14743)"><g style="display: block;" transform="matrix(0.800000011920929,0,0,0.800000011920929,257.9656066894531,250.03680419921875)" opacity="1"><g opacity="1" transform="matrix(1,0,0,1,0,0)"><path fill="rgb(201,40,57)" fill-opacity="1" d=" M-246.5,146.593994140625 C-244.71200561523438,146.76499938964844 -241.55099487304688,147.5780029296875 -237.75900268554688,148.50999450683594 C-220.5,152.75 -191.07200622558594,159.75999450683594 -178.26499938964844,161.58399963378906 C-147.25,166 -127.13200378417969,165.62600708007812 -103.76799774169922,164.74600219726562 C-50.75,162.75 -4.125,146.125 27.19499969482422,139.3300018310547 C47.95800018310547,134.8249969482422 68.79000091552734,130.64500427246094 83.74700164794922,128.94000244140625 C106.25,126.375 122.875,126.75 143.25,128.35899353027344 C183.33700561523438,131.52499389648438 217.79400634765625,139.2030029296875 241.43800354003906,147.031005859375 C241.43800354003906,147.09300231933594 241.406005859375,147.09300231933594 241.406005859375,147.06199645996094 C241.406005859375,147.06199645996094 241.406005859375,147.06199645996094 241.406005859375,147.06199645996094 C241.56199645996094,120.56199645996094 241.23399353027344,82.29100036621094 241.25,49.90599822998047 C241.26600646972656,17.08300018310547 241.43699645996094,-15.739999771118164 241.5,-48.5629997253418 C241.56199645996094,-80.91699981689453 241.5,-128.75 241.625,-145.625 C151.281005859375,-172.5 -246.5,144.218994140625 -246.5,146.593994140625z"/></g></g><g style="display: block;" transform="matrix(0.800000011920929,0,0,0.800000011920929,257.9656066894531,250.03680419921875)" opacity="1"><g opacity="1" transform="matrix(1,0,0,1,0,0)"><path fill="rgb(19,152,79)" fill-opacity="1" d=" M-246.5,-145.5 C-246.5,-139 -246.5,144.218994140625 -246.5,146.593994140625 C-194.95700073242188,127.9540023803711 -127.45600128173828,112.4540023803711 -2.6559998989105225,0.18199999630451202 C130.04400634765625,-124.5459976196289 235.54299926757812,-144.54600524902344 241.625,-145.625 C151.281005859375,-172.5 103.15699768066406,-165.1009979248047 78.5,-162.81199645996094 C23.042999267578125,-156.04600524902344 -48.707000732421875,-130.79600524902344 -83.375,-129.06199645996094 C-157.875,-120.1240005493164 -212.75,-139.625 -246.5,-145.5z"/></g></g><g style="display: block;" transform="matrix(0.800000011920929,0,0,0.800000011920929,256,250)" opacity="1"><g opacity="1" transform="matrix(1,0,0,1,0,0)"><path fill="rgb(233,190,16)" fill-opacity="1" d=" M96.03600311279297,-164.31199645996094 C72.73899841308594,-147.60499572753906 56.21200180053711,-132.62600708007812 32.39099884033203,-111.56300354003906 C11.121000289916992,-92.75599670410156 -11.791000366210938,-71.5270004272461 -37.72200012207031,-47.83399963378906 C-69.21099853515625,-19.06100082397461 -98.16200256347656,2.263000011444092 -128.04800415039062,21.680999755859375 C-171.48500061035156,49.90399932861328 -211.6179962158203,67.88200378417969 -243.76499938964844,79.15599822998047 C-244.0780029296875,87.29100036621094 -243.38900756835938,146.61700439453125 -243.38900756835938,146.61700439453125 C-243.38900756835938,146.61700439453125 -164.593994140625,169.68699645996094 -95.88800048828125,164.06199645996094 C-70.62200164794922,146.75900268554688 -52.957000732421875,130.7310028076172 -28.511999130249023,108.39399719238281 C-7.926000118255615,89.58300018310547 14.215999603271484,68.52200317382812 38.71900177001953,46.44200134277344 C69.11900329589844,19.04800033569336 96.61199951171875,-2.997999906539917 133.50399780273438,-26.018999099731445 C163.4709930419922,-44.71900177001953 197.85000610351562,-60.58399963378906 244.5749969482422,-79.28500366210938 C244.88800048828125,-84.29100036621094 243.76499938964844,-145.92599487304688 243.76499938964844,-145.92599487304688 C243.76499938964844,-145.92599487304688 172.18699645996094,-170 96.03600311279297,-164.31199645996094z"/><path stroke-linecap="butt" stroke-linejoin="miter" fill-opacity="0" stroke-miterlimit="4" stroke="rgb(6,6,97)" stroke-opacity="1" stroke-width="0" d=" M96.03600311279297,-164.31199645996094 C72.73899841308594,-147.60499572753906 56.21200180053711,-132.62600708007812 32.39099884033203,-111.56300354003906 C11.121000289916992,-92.75599670410156 -11.791000366210938,-71.5270004272461 -37.72200012207031,-47.83399963378906 C-69.21099853515625,-19.06100082397461 -98.16200256347656,2.263000011444092 -128.04800415039062,21.680999755859375 C-171.48500061035156,49.90399932861328 -211.6179962158203,67.88200378417969 -243.76499938964844,79.15599822998047 C-244.0780029296875,87.29100036621094 -243.38900756835938,146.61700439453125 -243.38900756835938,146.61700439453125 C-243.38900756835938,146.61700439453125 -164.593994140625,169.68699645996094 -95.88800048828125,164.06199645996094 C-70.62200164794922,146.75900268554688 -52.957000732421875,130.7310028076172 -28.511999130249023,108.39399719238281 C-7.926000118255615,89.58300018310547 14.215999603271484,68.52200317382812 38.71900177001953,46.44200134277344 C69.11900329589844,19.04800033569336 96.61199951171875,-2.997999906539917 133.50399780273438,-26.018999099731445 C163.4709930419922,-44.71900177001953 197.85000610351562,-60.58399963378906 244.5749969482422,-79.28500366210938 C244.88800048828125,-84.29100036621094 243.76499938964844,-145.92599487304688 243.76499938964844,-145.92599487304688 C243.76499938964844,-145.92599487304688 172.18699645996094,-170 96.03600311279297,-164.31199645996094z"/></g><g opacity="1" transform="matrix(1,0,0,1,0,0)"><path fill="rgb(20,20,20)" fill-opacity="1" d=" M132.8179931640625,-165.656005859375 C99.41000366210938,-144.49099731445312 74.44300079345703,-124.76399993896484 47.319000244140625,-101.19300079345703 C23.820999145507812,-80.77400207519531 1.0889999866485596,-59.38600158691406 -22.472000122070312,-38.08399963378906 C-56.84299850463867,-7.007999897003174 -82.60700225830078,15.63700008392334 -118.4729995727539,39.4739990234375 C-150.72500610351562,60.909000396728516 -189.12399291992188,80.3489990234375 -243.63999938964844,103.03099822998047 C-243.9530029296875,111.16600036621094 -243.38900756835938,146.61700439453125 -243.38900756835938,146.61700439453125 C-243.38900756835938,146.61700439453125 -173.593994140625,165.18800354003906 -130.88800048828125,164.43800354003906 C-96.16000366210938,142.46600341796875 -72.64700317382812,123.21499633789062 -46.56999969482422,100.37100219726562 C-20.426000595092773,77.46900177001953 3.4240000247955322,54.33300018310547 26.5939998626709,33.56700134277344 C62.224998474121094,1.6330000162124634 89.83799743652344,-20.700000762939453 122.93399810791016,-42.465999603271484 C155.65899658203125,-63.987998962402344 191.65699768066406,-80.85800170898438 244.51100158691406,-102.41000366210938 C244.82400512695312,-107.41600036621094 243.76499938964844,-145.92599487304688 243.76499938964844,-145.92599487304688 C243.76499938964844,-145.92599487304688 181.468994140625,-167.656005859375 132.8179931640625,-165.656005859375z"/><path stroke-linecap="butt" stroke-linejoin="miter" fill-opacity="0" stroke-miterlimit="4" stroke="rgb(6,6,97)" stroke-opacity="1" stroke-width="0" d=" M132.8179931640625,-165.656005859375 C99.41000366210938,-144.49099731445312 74.44300079345703,-124.76399993896484 47.319000244140625,-101.19300079345703 C23.820999145507812,-80.77400207519531 1.0889999866485596,-59.38600158691406 -22.472000122070312,-38.08399963378906 C-56.84299850463867,-7.007999897003174 -82.60700225830078,15.63700008392334 -118.4729995727539,39.4739990234375 C-150.72500610351562,60.909000396728516 -189.12399291992188,80.3489990234375 -243.63999938964844,103.03099822998047 C-243.9530029296875,111.16600036621094 -243.38900756835938,146.61700439453125 -243.38900756835938,146.61700439453125 C-243.38900756835938,146.61700439453125 -173.593994140625,165.18800354003906 -130.88800048828125,164.43800354003906 C-96.16000366210938,142.46600341796875 -72.64700317382812,123.21499633789062 -46.56999969482422,100.37100219726562 C-20.426000595092773,77.46900177001953 3.4240000247955322,54.33300018310547 26.5939998626709,33.56700134277344 C62.224998474121094,1.6330000162124634 89.83799743652344,-20.700000762939453 122.93399810791016,-42.465999603271484 C155.65899658203125,-63.987998962402344 191.65699768066406,-80.85800170898438 244.51100158691406,-102.41000366210938 C244.82400512695312,-107.41600036621094 243.76499938964844,-145.92599487304688 243.76499938964844,-145.92599487304688 C243.76499938964844,-145.92599487304688 181.468994140625,-167.656005859375 132.8179931640625,-165.656005859375z"/></g></g><g style="display: block;" transform="matrix(0.800000011920929,0,0,0.800000011920929,256,250)" opacity="1"><g opacity="1" transform="matrix(1,0,0,1,0,0)"><path fill="rgb(242,242,242)" fill-opacity="1" d=" M-142.593994140625,100.11599731445312 C-142.593994140625,100.11599731445312 -108.7760009765625,101.6449966430664 -108.7760009765625,101.6449966430664 C-108.7760009765625,101.6449966430664 -100.37699890136719,132.52699279785156 -100.37699890136719,132.52699279785156 C-100.37699890136719,132.52699279785156 -88.91600036621094,101.03099822998047 -88.91600036621094,101.03099822998047 C-88.91600036621094,101.03099822998047 -55.566001892089844,97.62999725341797 -55.566001892089844,97.62999725341797 C-55.566001892089844,97.62999725341797 -81.61000061035156,81.50499725341797 -81.61000061035156,81.50499725341797 C-81.61000061035156,81.50499725341797 -69.85199737548828,49.57099914550781 -69.85199737548828,49.57099914550781 C-69.85199737548828,49.57099914550781 -97.61199951171875,71.4489974975586 -97.61199951171875,71.4489974975586 C-97.61199951171875,71.4489974975586 -123.97799682617188,51.869998931884766 -123.97799682617188,51.869998931884766 C-123.97799682617188,51.869998931884766 -114.5719985961914,82.82599639892578 -114.5719985961914,82.82599639892578 C-114.5719985961914,82.82599639892578 -142.593994140625,100.11599731445312 -142.593994140625,100.11599731445312z"/></g></g><g style="display: block;" transform="matrix(0.800000011920929,0,0,0.800000011920929,411.8000183105469,116.79999542236328)" opacity="1"><g opacity="1" transform="matrix(1,0,0,1,0,0)"><path fill="rgb(242,242,242)" fill-opacity="1" d=" M-141.718994140625,104.99099731445312 C-141.718994140625,104.99099731445312 -108.7760009765625,101.5199966430664 -108.7760009765625,101.5199966430664 C-108.7760009765625,101.5199966430664 -100.12699890136719,131.90199279785156 -100.12699890136719,131.90199279785156 C-100.12699890136719,131.90199279785156 -88.91600036621094,100.53099822998047 -88.91600036621094,100.53099822998047 C-88.91600036621094,100.53099822998047 -55.566001892089844,102.00499725341797 -55.566001892089844,102.00499725341797 C-55.566001892089844,102.00499725341797 -81.61000061035156,81.50499725341797 -81.61000061035156,81.50499725341797 C-81.61000061035156,81.50499725341797 -69.22699737548828,50.82099914550781 -69.22699737548828,50.82099914550781 C-69.22699737548828,50.82099914550781 -97.61199951171875,70.1989974975586 -97.61199951171875,70.1989974975586 C-97.61199951171875,70.1989974975586 -123.79100036621094,53.119998931884766 -123.79100036621094,53.119998931884766 C-123.79100036621094,53.119998931884766 -114.5719985961914,82.82599639892578 -114.5719985961914,82.82599639892578 C-114.5719985961914,82.82599639892578 -141.718994140625,104.99099731445312 -141.718994140625,104.99099731445312z"/></g></g><g style="display: block;" transform="matrix(0.800000011920929,0,0,0.800000011920929,257.9656066894531,250.03680419921875)" opacity="0.35000000000000003"><g opacity="1" transform="matrix(1,0,0,1,0,0)"><path fill="url(#__lottie_element_14762)" mask="url(#__lottie_element_14764)" fill-opacity="1" d="M0 0 M-246.5,-145.5 C-246.5,-139 -246.5,144.218994140625 -246.5,146.593994140625 C-244.71200561523438,146.76499938964844 -241.55099487304688,147.5780029296875 -237.75900268554688,148.50999450683594 C-220.5,152.75 -191.07200622558594,159.75999450683594 -178.26499938964844,161.58399963378906 C-147.25,166 -127.13200378417969,165.62600708007812 -103.76799774169922,164.74600219726562 C-50.75,162.75 -4.125,146.125 27.19499969482422,139.3300018310547 C47.95800018310547,134.8249969482422 68.79000091552734,130.64500427246094 83.74700164794922,128.94000244140625 C106.25,126.375 122.875,126.75 143.25,128.35899353027344 C183.33700561523438,131.52499389648438 217.79400634765625,139.2030029296875 241.43800354003906,147.031005859375 C241.43800354003906,147.09300231933594 241.406005859375,147.09300231933594 241.406005859375,147.06199645996094 C241.406005859375,147.06199645996094 241.406005859375,147.06199645996094 241.406005859375,147.06199645996094 C241.56199645996094,120.56199645996094 241.23399353027344,82.29100036621094 241.25,49.90599822998047 C241.26600646972656,17.08300018310547 241.43699645996094,-15.739999771118164 241.5,-48.5629997253418 C241.56199645996094,-80.91699981689453 241.5,-128.75 241.625,-145.625 C151.281005859375,-172.5 103.15699768066406,-165.1009979248047 78.5,-162.81199645996094 C23.042999267578125,-156.04600524902344 -48.707000732421875,-130.79600524902344 -83.375,-129.06199645996094 C-157.875,-120.1240005493164 -212.75,-139.625 -246.5,-145.5z"/></g></g><g style="display: block;" transform="matrix(0.800000011920929,0,0,0.800000011920929,257.9656066894531,250.03680419921875)" opacity="0.15"><g opacity="1" transform="matrix(1,0,0,1,0,0)"><path fill="rgb(255,255,255)" fill-opacity="1" d=" M-246.875,-146 C-246.83700561523438,-139.70399475097656 -246.875,-138 -246.79200744628906,-132.81100463867188 C-237.5,-136.25 -197.25,-114 -124.49600219726562,-114.31099700927734 C-38.992000579833984,-114.6760025024414 39.233001708984375,-153.25 121.70800018310547,-153.39700317382812 C179.75,-153.5 241,-132.25 240.91200256347656,-131.552001953125 C241,-140.5 241.375,-144.625 241.375,-144.625 C241.375,-144.625 179.75,-166.25 122.5,-166 C39.49700164794922,-165.63800048828125 -39.5,-128 -124.25,-126.81199645996094 C-197.0449981689453,-125.79199981689453 -237.75,-149 -246.875,-146z"/></g></g><g style="display: block;" transform="matrix(0.800000011920929,0,0,0.800000011920929,257.9656066894531,250.03680419921875)" opacity="0.15"><g opacity="1" transform="matrix(1,0,0,1,0,0)"><path fill="rgb(0,0,0)" fill-opacity="1" d=" M122.5,112.25 C34,112.25 -36,149.5 -123.5,152 C-140.61700439453125,152.48899841308594 -155.82000732421875,151.3489990234375 -170.41099548339844,149.1280059814453 C-195.23399353027344,145.35000610351562 -218.28900146484375,138.4459991455078 -246,131.125 C-246.25,134.5 -246,141.375 -246,145.125 C-218.5749969482422,153.30599975585938 -195.61700439453125,159.55499267578125 -170.83099365234375,163.0050048828125 C-155.8520050048828,165.08999633789062 -140.20399475097656,166.15199279785156 -122.5,166 C-35,165.25 33.5,126.625 121.75,126.5 C126.26799774169922,126.49400329589844 131.11399841308594,126.59500122070312 136.27699279785156,126.83899688720703 C163.25900268554688,128.11300659179688 198.88099670410156,133.2550048828125 241.375,147 C241.375,147 241.25,134.75 241.5,131.125 C199.093994140625,118.93299865722656 163.16200256347656,113.84500122070312 136.1439971923828,112.58000183105469 C131.30499267578125,112.35399627685547 126.75299835205078,112.25 122.5,112.25z"/></g></g><g style="display: block;" transform="matrix(0.800000011920929,0,0,0.800000011920929,257.57281494140625,250)" opacity="1"><g opacity="1" transform="matrix(1,0,0,1,0,0)"><path stroke-linecap="round" stroke-linejoin="round" fill-opacity="0" stroke="rgb(6,66,33)" stroke-opacity="1" stroke-width="8" d=" M241.625,-145.625 C151.281005859375,-172.5 103.15699768066406,-165.1009979248047 78.5,-162.81199645996094 C23.042999267578125,-156.04600524902344 -48.707000732421875,-130.79600524902344 -83.375,-129.06199645996094 C-157.875,-120.1240005493164 -212.75,-139.625 -246.5,-145.5 C-246.5,-139 -246.5,144.218994140625 -246.5,146.593994140625"/></g><g opacity="1" transform="matrix(1,0,0,1,0,0)"><path stroke-linecap="round" stroke-linejoin="round" fill-opacity="0" stroke="rgb(92,24,31)" stroke-opacity="1" stroke-width="8" d=" M-246.5,146.593994140625 C-244.71200561523438,146.76499938964844 -241.55099487304688,147.5780029296875 -237.75900268554688,148.50999450683594 C-220.5,152.75 -191.07200622558594,159.75999450683594 -178.26499938964844,161.58399963378906 C-147.25,166 -127.13200378417969,165.62600708007812 -103.76799774169922,164.74600219726562 C-50.75,162.75 -4.125,146.125 27.19499969482422,139.3300018310547 C47.95800018310547,134.8249969482422 68.79000091552734,130.64500427246094 83.74700164794922,128.94000244140625 C106.25,126.375 122.875,126.75 143.25,128.35899353027344 C183.33700561523438,131.52499389648438 217.79400634765625,139.2030029296875 241.43800354003906,147.031005859375 C241.43800354003906,147.09300231933594 241.406005859375,147.09300231933594 241.406005859375,147.06199645996094 C241.406005859375,147.06199645996094 241.406005859375,147.06199645996094 241.406005859375,147.06199645996094 C241.56199645996094,120.56199645996094 241.23399353027344,82.29100036621094 241.25,49.90599822998047 C241.26600646972656,17.08300018310547 241.43699645996094,-15.739999771118164 241.5,-48.5629997253418 C241.56199645996094,-80.91699981689453 241.5,-128.75 241.625,-145.625"/></g></g></g></svg>