<svg xmlns="http://www.w3.org/2000/svg" xmlns:xlink="http://www.w3.org/1999/xlink" viewBox="0 0 512 512" width="512" height="512" style="width: 100%; height: 100%; transform: translate3d(0,0,0);" preserveAspectRatio="xMidYMid meet"><defs><clipPath id="__lottie_element_42854"><rect width="512" height="512" x="0" y="0"/></clipPath><linearGradient id="__lottie_element_42858" spreadMethod="pad" gradientUnits="userSpaceOnUse"><stop/><stop/><stop/></linearGradient><linearGradient id="__lottie_element_42866" spreadMethod="pad" gradientUnits="userSpaceOnUse"><stop/><stop/><stop/></linearGradient><radialGradient id="__lottie_element_42873" spreadMethod="pad" gradientUnits="userSpaceOnUse"><stop/><stop/><stop/></radialGradient><linearGradient id="__lottie_element_42874" spreadMethod="pad" gradientUnits="userSpaceOnUse"><stop/><stop/><stop/></linearGradient><linearGradient id="__lottie_element_42875" spreadMethod="pad" gradientUnits="userSpaceOnUse"><stop/><stop/><stop/></linearGradient><linearGradient id="__lottie_element_42876" spreadMethod="pad" gradientUnits="userSpaceOnUse"><stop/><stop/><stop/></linearGradient><radialGradient id="__lottie_element_42883" spreadMethod="pad" gradientUnits="userSpaceOnUse"><stop/><stop/><stop/></radialGradient><linearGradient id="__lottie_element_42884" spreadMethod="pad" gradientUnits="userSpaceOnUse"><stop/><stop/><stop/></linearGradient><linearGradient id="__lottie_element_42885" spreadMethod="pad" gradientUnits="userSpaceOnUse"><stop/><stop/><stop/></linearGradient><linearGradient id="__lottie_element_42886" spreadMethod="pad" gradientUnits="userSpaceOnUse"><stop/><stop/><stop/></linearGradient><radialGradient id="__lottie_element_42893" spreadMethod="pad" gradientUnits="userSpaceOnUse"><stop/><stop/><stop/></radialGradient><linearGradient id="__lottie_element_42894" spreadMethod="pad" gradientUnits="userSpaceOnUse"><stop/><stop/><stop/></linearGradient><linearGradient id="__lottie_element_42895" spreadMethod="pad" gradientUnits="userSpaceOnUse"><stop/><stop/><stop/></linearGradient><linearGradient id="__lottie_element_42896" spreadMethod="pad" gradientUnits="userSpaceOnUse"><stop/><stop/><stop/></linearGradient><radialGradient id="__lottie_element_42903" spreadMethod="pad" gradientUnits="userSpaceOnUse"><stop/><stop/><stop/></radialGradient><linearGradient id="__lottie_element_42904" spreadMethod="pad" gradientUnits="userSpaceOnUse"><stop/><stop/><stop/></linearGradient><linearGradient id="__lottie_element_42905" spreadMethod="pad" gradientUnits="userSpaceOnUse"><stop/><stop/><stop/></linearGradient><linearGradient id="__lottie_element_42906" spreadMethod="pad" gradientUnits="userSpaceOnUse"><stop/><stop/><stop/></linearGradient><radialGradient id="__lottie_element_42914" spreadMethod="pad" gradientUnits="userSpaceOnUse" cx="-0.003000000026077032" cy="7.940999984741211" r="214.40400097658858" fx="-0.003000000026077032" fy="7.940999984741211"><stop offset="49%" stop-color="rgb(255,255,255)"/><stop offset="83%" stop-color="rgb(215,206,207)"/><stop offset="100%" stop-color="rgb(175,157,159)"/></radialGradient><radialGradient id="__lottie_element_42915" spreadMethod="pad" gradientUnits="userSpaceOnUse" cx="-50.72200012207031" cy="41.058998107910156" r="196.86000061035156" fx="-50.72200012207031" fy="41.058998107910156"><stop offset="0%" stop-color="rgb(255,212,106)"/><stop offset="52%" stop-color="rgb(255,165,71)"/><stop offset="100%" stop-color="rgb(255,119,36)"/></radialGradient><linearGradient id="__lottie_element_42916" spreadMethod="pad" gradientUnits="userSpaceOnUse" x1="-0.004000000189989805" y1="-145.0590057373047" x2="-0.004000000189989805" y2="92.7969970703125"><stop offset="21%" stop-color="rgb(255,255,255)" stop-opacity="1"/><stop offset="60%" stop-color="rgb(255,255,255)" stop-opacity="0.6000000238418579"/><stop offset="100%" stop-color="rgb(255,255,255)" stop-opacity="0.20000000298023224"/></linearGradient><radialGradient id="__lottie_element_42917" spreadMethod="pad" gradientUnits="userSpaceOnUse" cx="-0.4300000071525574" cy="-0.0949999988079071" r="260.6829907298088" fx="-0.4300000071525574" fy="-0.0949999988079071"><stop offset="39%" stop-color="rgb(152,120,119)" stop-opacity="1"/><stop offset="67%" stop-color="rgb(152,120,119)" stop-opacity="0.5"/><stop offset="85%" stop-color="rgb(152,120,119)" stop-opacity="0"/></radialGradient><linearGradient id="__lottie_element_42920" spreadMethod="pad" gradientUnits="userSpaceOnUse" x1="-0.9700000286102295" y1="-19.964000701904297" x2="-0.9700000286102295" y2="20.885000228881836"><stop offset="0%" stop-color="rgb(255,160,174)"/><stop offset="13%" stop-color="rgb(255,173,186)"/><stop offset="27%" stop-color="rgb(255,187,198)"/><stop offset="42%" stop-color="rgb(212,127,150)"/><stop offset="91%" stop-color="rgb(170,67,102)"/></linearGradient><linearGradient id="__lottie_element_42921" spreadMethod="pad" gradientUnits="userSpaceOnUse" x1="-0.9729999899864197" y1="-4.943999767303467" x2="-0.9729999899864197" y2="10.362000465393066"><stop offset="0%" stop-color="rgb(255,255,255)" stop-opacity="1"/><stop offset="41%" stop-color="rgb(255,255,255)" stop-opacity="0.5"/><stop offset="100%" stop-color="rgb(255,255,255)" stop-opacity="0"/></linearGradient><linearGradient id="__lottie_element_42925" spreadMethod="pad" gradientUnits="userSpaceOnUse" x1="2.0409998893737793" y1="227.88800048828125" x2="1.1200000047683716" y2="145.89100646972656"><stop offset="17%" stop-color="rgb(252,113,135)"/><stop offset="35%" stop-color="rgb(253,144,164)"/><stop offset="53%" stop-color="rgb(255,174,193)"/><stop offset="64%" stop-color="rgb(243,127,149)"/><stop offset="76%" stop-color="rgb(232,80,105)"/></linearGradient><radialGradient id="__lottie_element_42926" spreadMethod="pad" gradientUnits="userSpaceOnUse" cx="-153.45700073242188" cy="-333.16900634765625" r="53.004567093563146" fx="-153.45850490851538" fy="-333.03385307160397"><stop offset="22%" stop-color="rgb(192,112,39)"/><stop offset="59%" stop-color="rgb(157,75,27)"/><stop offset="100%" stop-color="rgb(121,38,15)"/></radialGradient><radialGradient id="__lottie_element_42938" spreadMethod="pad" gradientUnits="userSpaceOnUse" cx="-0.5609999895095825" cy="-0.5070000290870667" r="14.838764971603291" fx="-0.5609999895095825" fy="-0.5070000290870667"><stop offset="0%" stop-color="rgb(255,255,255)" stop-opacity="1"/><stop offset="61%" stop-color="rgb(255,255,255)" stop-opacity="0.5"/><stop offset="100%" stop-color="rgb(255,255,255)" stop-opacity="0"/></radialGradient><linearGradient id="__lottie_element_42939" spreadMethod="pad" gradientUnits="userSpaceOnUse" x1="-0.061000000685453415" y1="-5.895999908447266" x2="-0.061000000685453415" y2="10.52400016784668"><stop offset="0%" stop-color="rgb(255,255,255)" stop-opacity="1"/><stop offset="32%" stop-color="rgb(255,255,255)" stop-opacity="0.5"/><stop offset="100%" stop-color="rgb(255,255,255)" stop-opacity="0"/></linearGradient><linearGradient id="__lottie_element_42940" spreadMethod="pad" gradientUnits="userSpaceOnUse" x1="-0.7110000252723694" y1="4.935999870300293" x2="-0.7110000252723694" y2="-7.686999797821045"><stop offset="0%" stop-color="rgb(255,255,255)" stop-opacity="1"/><stop offset="32%" stop-color="rgb(255,255,255)" stop-opacity="0.5"/><stop offset="100%" stop-color="rgb(255,255,255)" stop-opacity="0"/></linearGradient><radialGradient id="__lottie_element_42944" spreadMethod="pad" gradientUnits="userSpaceOnUse" cx="-0.6949999928474426" cy="-0.6460000276565552" r="15.887011388862149" fx="-0.6949999928474426" fy="-0.6460000276565552"><stop offset="0%" stop-color="rgb(255,255,255)" stop-opacity="1"/><stop offset="61%" stop-color="rgb(255,255,255)" stop-opacity="0.5"/><stop offset="100%" stop-color="rgb(255,255,255)" stop-opacity="0"/></radialGradient><linearGradient id="__lottie_element_42945" spreadMethod="pad" gradientUnits="userSpaceOnUse" x1="-0.15800000727176666" y1="-5.895999908447266" x2="-0.15800000727176666" y2="10.52400016784668"><stop offset="0%" stop-color="rgb(255,255,255)" stop-opacity="1"/><stop offset="32%" stop-color="rgb(255,255,255)" stop-opacity="0.5"/><stop offset="100%" stop-color="rgb(255,255,255)" stop-opacity="0"/></linearGradient><linearGradient id="__lottie_element_42946" spreadMethod="pad" gradientUnits="userSpaceOnUse" x1="-0.8080000281333923" y1="4.935999870300293" x2="-0.8080000281333923" y2="-7.686999797821045"><stop offset="0%" stop-color="rgb(255,255,255)" stop-opacity="1"/><stop offset="32%" stop-color="rgb(255,255,255)" stop-opacity="0.5"/><stop offset="100%" stop-color="rgb(255,255,255)" stop-opacity="0"/></linearGradient><radialGradient id="__lottie_element_42962" spreadMethod="pad" gradientUnits="userSpaceOnUse" cx="-25.170000076293945" cy="4.666999816894531" r="101.0570011138916" fx="-25.170000076293945" fy="4.666999816894531"><stop offset="21%" stop-color="rgb(255,175,188)"/><stop offset="68%" stop-color="rgb(234,97,139)"/><stop offset="95%" stop-color="rgb(212,19,90)"/></radialGradient><linearGradient id="__lottie_element_42963" spreadMethod="pad" gradientUnits="userSpaceOnUse" x1="10.33899974822998" y1="-1.1469999551773071" x2="70.39700317382812" y2="-7.228000164031982"><stop offset="21%" stop-color="rgb(244,239,241)"/><stop offset="58%" stop-color="rgb(194,185,194)"/><stop offset="100%" stop-color="rgb(143,130,147)"/></linearGradient><radialGradient id="__lottie_element_42967" spreadMethod="pad" gradientUnits="userSpaceOnUse" cx="19.322999954223633" cy="1.4170000553131104" r="104.08132388226362" fx="19.322999954223633" fy="1.4170000553131104"><stop offset="21%" stop-color="rgb(255,175,188)"/><stop offset="68%" stop-color="rgb(234,97,139)"/><stop offset="95%" stop-color="rgb(212,19,90)"/></radialGradient><linearGradient id="__lottie_element_42968" spreadMethod="pad" gradientUnits="userSpaceOnUse" x1="39.332000732421875" y1="-1.1469999551773071" x2="-20.72599983215332" y2="4.934999942779541"><stop offset="21%" stop-color="rgb(244,239,241)"/><stop offset="58%" stop-color="rgb(194,185,194)"/><stop offset="100%" stop-color="rgb(143,130,147)"/></linearGradient></defs><g clip-path="url(#__lottie_element_42854)"><g style="display: block;" transform="matrix(0.8999999761581421,0,0,0.8999999761581421,24.518003463745117,45.910213470458984)" opacity="1"><g opacity="1" transform="matrix(1,0,0,1,375.822998046875,112.33300018310547)"><path fill="url(#__lottie_element_42967)" fill-opacity="1" d=" M0,-101.33300018310547 C53.611000061035156,-101.33300018310547 97.07099914550781,-55.96500015258789 97.07099914550781,0 C97.07099914550781,55.96500015258789 53.611000061035156,101.33300018310547 0,101.33300018310547 C-53.611000061035156,101.33300018310547 -97.07099914550781,55.96500015258789 -97.07099914550781,0 C-97.07099914550781,-55.96500015258789 -53.611000061035156,-101.33300018310547 0,-101.33300018310547z"/></g><g opacity="0.3" transform="matrix(1,0,0,1,371.9070129394531,82.09400177001953)"><path fill="rgb(151,42,65)" fill-opacity="1" d=" M-93.15499877929688,30.23900032043457 C-93.15499877929688,43.15700149536133 -90.83499908447266,55.50600051879883 -86.61100006103516,66.87000274658203 C-86.61100006103516,66.87000274658203 -41.51300048828125,71.09400177001953 -41.51300048828125,71.09400177001953 C-41.51300048828125,71.09400177001953 -47.42399978637695,-5.638999938964844 -3.3559999465942383,-41.321998596191406 C55.577999114990234,-89.04199981689453 93.15499877929688,-9.697999954223633 93.15499877929688,-9.697999954223633 C78.30500030517578,-45.80799865722656 43.9379997253418,-71.09400177001953 3.9159998893737793,-71.09400177001953 C-49.69599914550781,-71.09400177001953 -93.15499877929688,-25.72100067138672 -93.15499877929688,30.23900032043457z"/></g><g opacity="1" transform="matrix(1,0,0,1,375.822998046875,112.33300018310547)"><path stroke-linecap="round" stroke-linejoin="round" fill-opacity="0" stroke="rgb(159,23,60)" stroke-opacity="1" stroke-width="8" d=" M0,-101.33300018310547 C53.611000061035156,-101.33300018310547 97.07099914550781,-55.96500015258789 97.07099914550781,0 C97.07099914550781,55.96500015258789 53.611000061035156,101.33300018310547 0,101.33300018310547 C-53.611000061035156,101.33300018310547 -97.07099914550781,55.96500015258789 -97.07099914550781,0 C-97.07099914550781,-55.96500015258789 -53.611000061035156,-101.33300018310547 0,-101.33300018310547z"/></g><g opacity="1" transform="matrix(1,0,0,1,357.3320007324219,103.14700317382812)"><path fill="url(#__lottie_element_42968)" fill-opacity="1" d=" M-78.58000183105469,9.185999870300293 C-78.58000183105469,43.487998962402344 -62.25299835205078,73.81199645996094 -37.26100158691406,92.14700317382812 C-62.48099899291992,65.98999786376953 -63.08700180053711,-13.305999755859375 -23.652000427246094,-57.10599899291992 C10.42199993133545,-94.96900177001953 50.16899871826172,-92.14700317382812 78.58000183105469,-70.40299987792969 C62.05400085449219,-84.02100372314453 41.18199920654297,-92.14700317382812 18.490999221801758,-92.14700317382812 C-35.12099838256836,-92.14700317382812 -78.58000183105469,-46.77399826049805 -78.58000183105469,9.185999870300293z"/></g><g opacity="0.5" transform="matrix(1,0,0,1,357.5119934082031,91.03900146484375)"><path fill="rgb(255,255,255)" fill-opacity="1" d=" M-67.0270004272461,72.43399810791016 C-67.0270004272461,72.43399810791016 -61.722999572753906,74.0719985961914 -61.722999572753906,74.0719985961914 C-61.722999572753906,74.0719985961914 -48.4739990234375,76.74299621582031 -48.4739990234375,76.74299621582031 C-57.70800018310547,41.35200119018555 -50.75600051879883,-11.937000274658203 -20.990999221801758,-44.99800109863281 C7.591000080108643,-76.75199890136719 40.150001525878906,-79.88700103759766 66.6760025024414,-67.24400329589844 C66.6760025024414,-67.24400329589844 67.05500030517578,-68.00199890136719 67.05500030517578,-68.00199890136719 C67.05500030517578,-68.00199890136719 67.05500030517578,-68.01100158691406 67.05500030517578,-68.01100158691406 C67.05500030517578,-68.01100158691406 67.03500366210938,-68.02100372314453 67.00700378417969,-68.02999877929688 C65.08499908447266,-68.93000030517578 9.350000381469727,-97.33999633789062 -37.59299850463867,-46.457000732421875 C-64.64299774169922,-17.136999130249023 -67.23500061035156,21.29400062561035 -67.0459976196289,56.53300094604492 C-66.99299621582031,66.37300109863281 -67.0270004272461,72.43399810791016 -67.0270004272461,72.43399810791016z"/></g><g opacity="1" transform="matrix(1,0,0,1,357.3320007324219,103.14700317382812)"><path stroke-linecap="round" stroke-linejoin="round" fill-opacity="0" stroke="rgb(105,89,105)" stroke-opacity="1" stroke-width="8" d=" M-78.58000183105469,9.185999870300293 C-78.58000183105469,43.487998962402344 -62.25299835205078,73.81199645996094 -37.26100158691406,92.14700317382812 C-62.48099899291992,65.98999786376953 -63.08700180053711,-13.305999755859375 -23.652000427246094,-57.10599899291992 C10.42199993133545,-94.96900177001953 50.16899871826172,-92.14700317382812 78.58000183105469,-70.40299987792969 C62.05400085449219,-84.02100372314453 41.18199920654297,-92.14700317382812 18.490999221801758,-92.14700317382812 C-35.12099838256836,-92.14700317382812 -78.58000183105469,-46.77399826049805 -78.58000183105469,9.185999870300293z"/></g><g opacity="1" transform="matrix(1,0,0,1,357.3320007324219,106.0790023803711)"><path stroke-linecap="round" stroke-linejoin="round" fill-opacity="0" stroke="rgb(159,23,60)" stroke-opacity="1" stroke-width="8" d=" M-78.58000183105469,6.254000186920166 C-78.58000183105469,40.555999755859375 -62.25299835205078,70.87899780273438 -37.26100158691406,89.21399688720703 C-62.48099899291992,63.05699920654297 -63.08700180053711,-16.23900032043457 -23.652000427246094,-60.03900146484375 C10.42199993133545,-97.9020004272461 50.16899871826172,-95.0790023803711 78.58000183105469,-73.33499908447266"/></g></g><g style="display: block;" transform="matrix(0.8999999761581421,0,0,0.8999999761581421,24.518003463745117,45.910213470458984)" opacity="1"><g opacity="1" transform="matrix(1,0,0,1,137.1699981689453,112.33300018310547)"><path fill="url(#__lottie_element_42962)" fill-opacity="1" d=" M0,-101.33300018310547 C53.611000061035156,-101.33300018310547 97.07099914550781,-55.96500015258789 97.07099914550781,0 C97.07099914550781,55.96500015258789 53.611000061035156,101.33300018310547 0,101.33300018310547 C-53.611000061035156,101.33300018310547 -97.07099914550781,55.96500015258789 -97.07099914550781,0 C-97.07099914550781,-55.96500015258789 -53.611000061035156,-101.33300018310547 0,-101.33300018310547z"/></g><g opacity="0.3" transform="matrix(1,0,0,1,141.08599853515625,82.09400177001953)"><path fill="rgb(151,42,65)" fill-opacity="1" d=" M93.15499877929688,30.23900032043457 C93.15499877929688,43.15700149536133 90.83499908447266,55.50600051879883 86.61100006103516,66.87000274658203 C86.61100006103516,66.87000274658203 41.51300048828125,71.09400177001953 41.51300048828125,71.09400177001953 C41.51300048828125,71.09400177001953 47.42399978637695,-5.638999938964844 3.3559999465942383,-41.321998596191406 C-55.577999114990234,-89.04199981689453 -93.15499877929688,-9.697999954223633 -93.15499877929688,-9.697999954223633 C-78.30500030517578,-45.80799865722656 -43.9379997253418,-71.09400177001953 -3.9159998893737793,-71.09400177001953 C49.69599914550781,-71.09400177001953 93.15499877929688,-25.72100067138672 93.15499877929688,30.23900032043457z"/></g><g opacity="1" transform="matrix(1,0,0,1,137.1699981689453,112.33300018310547)"><path stroke-linecap="round" stroke-linejoin="round" fill-opacity="0" stroke="rgb(159,23,60)" stroke-opacity="1" stroke-width="8" d=" M0,-101.33300018310547 C53.611000061035156,-101.33300018310547 97.07099914550781,-55.96500015258789 97.07099914550781,0 C97.07099914550781,55.96500015258789 53.611000061035156,101.33300018310547 0,101.33300018310547 C-53.611000061035156,101.33300018310547 -97.07099914550781,55.96500015258789 -97.07099914550781,0 C-97.07099914550781,-55.96500015258789 -53.611000061035156,-101.33300018310547 0,-101.33300018310547z"/></g><g opacity="1" transform="matrix(1,0,0,1,155.66099548339844,103.14700317382812)"><path fill="url(#__lottie_element_42963)" fill-opacity="1" d=" M78.58000183105469,9.185999870300293 C78.58000183105469,43.487998962402344 62.25299835205078,73.81199645996094 37.26100158691406,92.14700317382812 C62.48099899291992,65.98999786376953 63.08700180053711,-13.305999755859375 23.652000427246094,-57.10599899291992 C-10.42199993133545,-94.96900177001953 -50.16899871826172,-92.14700317382812 -78.58000183105469,-70.40299987792969 C-62.05400085449219,-84.02100372314453 -41.18199920654297,-92.14700317382812 -18.490999221801758,-92.14700317382812 C35.12099838256836,-92.14700317382812 78.58000183105469,-46.77399826049805 78.58000183105469,9.185999870300293z"/></g><g opacity="0.5" transform="matrix(1,0,0,1,155.4810028076172,91.03900146484375)"><path fill="rgb(255,255,255)" fill-opacity="1" d=" M67.0270004272461,72.43399810791016 C67.0270004272461,72.43399810791016 61.722999572753906,74.0719985961914 61.722999572753906,74.0719985961914 C61.722999572753906,74.0719985961914 48.4739990234375,76.74299621582031 48.4739990234375,76.74299621582031 C57.70800018310547,41.35200119018555 50.75600051879883,-11.937000274658203 20.990999221801758,-44.99800109863281 C-7.591000080108643,-76.75199890136719 -40.150001525878906,-79.88700103759766 -66.6760025024414,-67.24400329589844 C-66.6760025024414,-67.24400329589844 -67.05500030517578,-68.00199890136719 -67.05500030517578,-68.00199890136719 C-67.05500030517578,-68.00199890136719 -67.05500030517578,-68.01100158691406 -67.05500030517578,-68.01100158691406 C-67.05500030517578,-68.01100158691406 -67.03500366210938,-68.02100372314453 -67.00700378417969,-68.02999877929688 C-65.08499908447266,-68.93000030517578 -9.350000381469727,-97.33999633789062 37.59299850463867,-46.457000732421875 C64.64299774169922,-17.136999130249023 67.23500061035156,21.29400062561035 67.0459976196289,56.53300094604492 C66.99299621582031,66.37300109863281 67.0270004272461,72.43399810791016 67.0270004272461,72.43399810791016z"/></g><g opacity="1" transform="matrix(1,0,0,1,155.66099548339844,103.14700317382812)"><path stroke-linecap="round" stroke-linejoin="round" fill-opacity="0" stroke="rgb(105,89,105)" stroke-opacity="1" stroke-width="8" d=" M78.58000183105469,9.185999870300293 C78.58000183105469,43.487998962402344 62.25299835205078,73.81199645996094 37.26100158691406,92.14700317382812 C62.48099899291992,65.98999786376953 63.08700180053711,-13.305999755859375 23.652000427246094,-57.10599899291992 C-10.42199993133545,-94.96900177001953 -50.16899871826172,-92.14700317382812 -78.58000183105469,-70.40299987792969 C-62.05400085449219,-84.02100372314453 -41.18199920654297,-92.14700317382812 -18.490999221801758,-92.14700317382812 C35.12099838256836,-92.14700317382812 78.58000183105469,-46.77399826049805 78.58000183105469,9.185999870300293z"/></g><g opacity="1" transform="matrix(1,0,0,1,155.66099548339844,106.0790023803711)"><path stroke-linecap="round" stroke-linejoin="round" fill-opacity="0" stroke="rgb(159,23,60)" stroke-opacity="1" stroke-width="8" d=" M78.58000183105469,6.254000186920166 C78.58000183105469,40.555999755859375 62.25299835205078,70.87899780273438 37.26100158691406,89.21399688720703 C62.48099899291992,63.05699920654297 63.08700180053711,-16.23900032043457 23.652000427246094,-60.03900146484375 C-10.42199993133545,-97.9020004272461 -50.16899871826172,-95.0790023803711 -78.58000183105469,-73.33499908447266"/></g></g><g style="display: block;" transform="matrix(0.8999999761581421,0,0,0.8999999761581421,24.518003463745117,45.910213470458984)" opacity="1"><g opacity="1" transform="matrix(1,0,0,1,256.00299072265625,268.0589904785156)"><path fill="url(#__lottie_element_42914)" fill-opacity="1" d=" M155.98300170898438,-58.28099822998047 C149.49200439453125,-62.25899887084961 144.66799926757812,-68.42900085449219 142.20700073242188,-75.63300323486328 C123.68800354003906,-129.8350067138672 80.39099884033203,-178.55999755859375 0.019999999552965164,-178.5760040283203 C0.019999999552965164,-178.5760040283203 0.019999999552965164,-178.57699584960938 0.019999999552965164,-178.57699584960938 C0.013000000268220901,-178.57699584960938 0.007000000216066837,-178.57699584960938 0,-178.57699584960938 C-0.007000000216066837,-178.57699584960938 -0.013000000268220901,-178.57699584960938 -0.019999999552965164,-178.57699584960938 C-0.019999999552965164,-178.57699584960938 -0.019999999552965164,-178.5760040283203 -0.019999999552965164,-178.5760040283203 C-80.39099884033203,-178.55999755859375 -123.68800354003906,-129.8350067138672 -142.20700073242188,-75.63300323486328 C-144.66799926757812,-68.42900085449219 -149.49200439453125,-62.25899887084961 -155.98300170898438,-58.28099822998047 C-178.51400756835938,-44.474998474121094 -229.5030059814453,-4.574999809265137 -214.00999450683594,66.8270034790039 C-196.0760040283203,149.47999572753906 -109.74400329589844,148.7570037841797 -74.18900299072266,151.81100463867188 C-51.30099868774414,153.77699279785156 -33.39099884033203,178.8419952392578 -0.16899999976158142,178.8419952392578 C-0.16899999976158142,178.8419952392578 -0.16899999976158142,178.8419952392578 -0.16899999976158142,178.8419952392578 C-0.1599999964237213,178.8419952392578 -0.15199999511241913,178.8419952392578 -0.14300000667572021,178.8419952392578 C-0.1340000033378601,178.8419952392578 -0.125,178.8419952392578 -0.11599999666213989,178.8419952392578 C-0.11599999666213989,178.8419952392578 -0.11599999666213989,178.8419952392578 -0.11599999666213989,178.8419952392578 C34.42300033569336,178.8419952392578 53.87300109863281,152.80499267578125 74.18900299072266,151.81100463867188 C105.11199951171875,150.2989959716797 196.0760040283203,149.47999572753906 214.00999450683594,66.8270034790039 C229.5030059814453,-4.574999809265137 178.51400756835938,-44.474998474121094 155.98300170898438,-58.28099822998047z"/></g><g opacity="1" transform="matrix(1,0,0,1,306.72198486328125,223.9409942626953)"><path fill="url(#__lottie_element_42915)" fill-opacity="1" d=" M149.6739959716797,28.552000045776367 C170.4409942626953,74.96600341796875 147.37100219726562,103.46900177001953 107.96600341796875,101.5510025024414 C74.38300323486328,99.91600036621094 61.058998107910156,110.61000061035156 39.49300003051758,126.24500274658203 C17.927000045776367,141.8800048828125 -30.334999084472656,139.802001953125 -44.07600021362305,90.12200164794922 C-51.084999084472656,64.78199768066406 -30.597000122070312,39.98099899291992 -38.683998107910156,22.72800064086914 C-46.770999908447266,5.474999904632568 -65.64199829101562,5.474999904632568 -108.77400207519531,-16.090999603271484 C-151.906005859375,-37.65700149536133 -169.16000366210938,-69.46700286865234 -149.21099853515625,-99.66000366210938 C-129.26199340820312,-129.85299682617188 -23.334999084472656,-156.09100341796875 35.305999755859375,-109.54399871826172 C93.9469985961914,-62.99700164794922 85.4739990234375,-36.08700180053711 96.1969985961914,-23.1299991607666 C106.91999816894531,-10.17300033569336 138.81500244140625,4.281000137329102 149.6739959716797,28.552000045776367z"/></g><g opacity="0.3" transform="matrix(1,0,0,1,256.0039978027344,268.0589904785156)"><path fill="url(#__lottie_element_42916)" fill-opacity="1" d=" M155.98599243164062,-58.2760009765625 C149.48899841308594,-62.25400161743164 144.66900634765625,-68.4280014038086 142.20700073242188,-75.63500213623047 C123.68299865722656,-129.83399963378906 80.39399719238281,-178.5590057373047 0.01899999938905239,-178.5780029296875 C0.009999999776482582,-178.5780029296875 0.008999999612569809,-178.5780029296875 0,-178.5780029296875 C-0.008999999612569809,-178.5780029296875 -0.009999999776482582,-178.5780029296875 -0.01899999938905239,-178.5780029296875 C-40.21099853515625,-178.56900024414062 -71.12300109863281,-166.3800048828125 -94.30599975585938,-147.4199981689453 C-117.4990005493164,-128.47000122070312 -132.94500732421875,-102.7300033569336 -142.20700073242188,-75.63500213623047 C-144.66900634765625,-68.4280014038086 -149.48899841308594,-62.25400161743164 -155.98599243164062,-58.2760009765625 C-178.51600646972656,-44.47800064086914 -229.50399780273438,-4.578000068664551 -214.01100158691406,66.8280029296875 C-196.07400512695312,149.48500061035156 -109.70600128173828,148.33900451660156 -74.19100189208984,151.81399536132812 C-51.99599838256836,153.98500061035156 -33.38800048828125,178.84300231933594 -0.1679999977350235,178.84300231933594 C-0.1550000011920929,178.84300231933594 -0.1550000011920929,178.84300231933594 -0.1420000046491623,178.84300231933594 C-0.1289999932050705,178.84300231933594 -0.12999999523162842,178.84300231933594 -0.11699999868869781,178.84300231933594 C33.97999954223633,179.125 54.393001556396484,152.80499267578125 74.19100189208984,151.81399536132812 C105.10900115966797,150.26699829101562 196.07400512695312,149.48500061035156 214.01100158691406,66.8280029296875 C229.5050048828125,-4.578000068664551 178.51600646972656,-44.47800064086914 155.98599243164062,-58.2760009765625z M193.4320068359375,64.19499969482422 C177.22799682617188,138.89700317382812 94.96399688720703,138.91700744628906 67.05999755859375,141.00900268554688 C42.17100143432617,142.875 32.72600173950195,158.8470001220703 1.2369999885559082,159.63900756835938 C-30.25200080871582,160.43099975585938 -45.191001892089844,144.95799255371094 -67.05999755859375,141.00900268554688 C-98.79900360107422,135.27699279785156 -177.22799682617188,138.89700317382812 -193.4320068359375,64.19499969482422 C-207.43899536132812,-0.3449999988079071 -161.3560028076172,-36.409000396728516 -140.98500061035156,-48.89099884033203 C-135.1230010986328,-52.47999954223633 -130.75799560546875,-58.05799865722656 -128.53199768066406,-64.5739974975586 C-120.16000366210938,-89.0739974975586 -106.20099639892578,-112.322998046875 -85.24299621582031,-129.46400451660156 C-64.28500366210938,-146.5959930419922 -36.34700012207031,-157.61099243164062 -0.01899999938905239,-157.6199951171875 C-0.009999999776482582,-157.6199951171875 -0.008999999612569809,-157.6199951171875 0,-157.6199951171875 C0.008999999612569809,-157.6199951171875 0.009999999776482582,-157.6199951171875 0.01899999938905239,-157.6199951171875 C72.66600036621094,-157.6009979248047 111.7979965209961,-113.56400299072266 128.53199768066406,-64.5739974975586 C130.75799560546875,-58.05799865722656 135.1230010986328,-52.47999954223633 140.98500061035156,-48.89099884033203 C161.3560028076172,-36.409000396728516 207.43899536132812,-0.3449999988079071 193.4320068359375,64.19499969482422z"/></g><g opacity="0.3" transform="matrix(1,0,0,1,256.42999267578125,340.0950012207031)"><path fill="url(#__lottie_element_42917)" fill-opacity="1" d=" M186.88800048828125,-106.54100036621094 C215.61300659179688,-67.01899719238281 211.17799377441406,16.73200035095215 139.05299377441406,36.54600143432617 C73.24299621582031,54.625 48.60200119018555,37.237998962402344 22.614999771118164,59.87200164794922 C4.669000148773193,75.50800323486328 -4.669000148773193,75.50800323486328 -22.614999771118164,59.87200164794922 C-48.60200119018555,37.237998962402344 -73.24299621582031,54.625 -139.05299377441406,36.54600143432617 C-211.17799377441406,16.73200035095215 -215.61300659179688,-67.01899719238281 -186.88800048828125,-106.54100036621094 C-207.12600708007812,-85.29000091552734 -225.54600524902344,-52.020999908447266 -215.38400268554688,-5.209000110626221 C-197.44700622558594,77.447998046875 -111.0739974975586,76.25299835205078 -75.56400299072266,79.77799987792969 C-51.5890007019043,82.15799713134766 -35.07699966430664,106.80699920654297 -1.8569999933242798,106.80699920654297 C-1.843999981880188,106.80699920654297 -1.8450000286102295,106.80699920654297 -1.8320000171661377,106.80699920654297 C-1.819000005722046,106.80699920654297 -1.8200000524520874,106.80699920654297 -1.8070000410079956,106.80699920654297 C-1.2000000476837158,106.80699920654297 -0.593999981880188,106.80599975585938 0,106.80000305175781 C0.593999981880188,106.80599975585938 1.2009999752044678,106.80699920654297 1.8070000410079956,106.80699920654297 C1.8200000524520874,106.80699920654297 1.819000005722046,106.80699920654297 1.8320000171661377,106.80699920654297 C1.8450000286102295,106.80699920654297 1.843999981880188,106.80699920654297 1.8569999933242798,106.80699920654297 C35.07699966430664,106.80699920654297 53.34199905395508,80.6989974975586 75.56400299072266,79.77799987792969 C111.21800231933594,78.30000305175781 197.44700622558594,77.447998046875 215.38400268554688,-5.209000110626221 C225.54600524902344,-52.020999908447266 207.12600708007812,-85.29000091552734 186.88800048828125,-106.54100036621094z"/></g><g opacity="1" transform="matrix(1,0,0,1,256.00299072265625,268.0589904785156)"><path stroke-linecap="round" stroke-linejoin="round" fill-opacity="0" stroke="rgb(152,120,119)" stroke-opacity="1" stroke-width="8" d=" M155.98300170898438,-58.28099822998047 C149.49200439453125,-62.25899887084961 144.66799926757812,-68.42900085449219 142.20700073242188,-75.63300323486328 C123.68800354003906,-129.8350067138672 80.39099884033203,-178.55999755859375 0.019999999552965164,-178.5760040283203 C0.019999999552965164,-178.5760040283203 0.019999999552965164,-178.57699584960938 0.019999999552965164,-178.57699584960938 C0.013000000268220901,-178.57699584960938 0.007000000216066837,-178.57699584960938 0,-178.57699584960938 C-0.007000000216066837,-178.57699584960938 -0.013000000268220901,-178.57699584960938 -0.019999999552965164,-178.57699584960938 C-0.019999999552965164,-178.57699584960938 -0.019999999552965164,-178.5760040283203 -0.019999999552965164,-178.5760040283203 C-80.39099884033203,-178.55999755859375 -123.68800354003906,-129.8350067138672 -142.20700073242188,-75.63300323486328 C-144.66799926757812,-68.42900085449219 -149.49200439453125,-62.25899887084961 -155.98300170898438,-58.28099822998047 C-178.51400756835938,-44.474998474121094 -229.5030059814453,-4.574999809265137 -214.00999450683594,66.8270034790039 C-196.0760040283203,149.47999572753906 -109.65599822998047,147.8679962158203 -74.18900299072266,151.81100463867188 C-51.50899887084961,154.33200073242188 -33.39099884033203,178.8419952392578 -0.16899999976158142,178.8419952392578 C-0.16899999976158142,178.8419952392578 -0.16899999976158142,178.8419952392578 -0.16899999976158142,178.8419952392578 C-0.1599999964237213,178.8419952392578 -0.15199999511241913,178.8419952392578 -0.14300000667572021,178.8419952392578 C-0.1340000033378601,178.8419952392578 -0.125,178.8419952392578 -0.11599999666213989,178.8419952392578 C-0.11599999666213989,178.8419952392578 -0.11599999666213989,178.8419952392578 -0.11599999666213989,178.8419952392578 C34.42300033569336,178.8419952392578 54.11600112915039,153.01300048828125 74.18900299072266,151.81100463867188 C105.09300231933594,149.96099853515625 196.0760040283203,149.47999572753906 214.00999450683594,66.8270034790039 C229.5030059814453,-4.574999809265137 178.51400756835938,-44.474998474121094 155.98300170898438,-58.28099822998047z"/></g><g opacity="1" transform="matrix(1,0,0,1,257.4429931640625,328.2070007324219)"><path stroke-linecap="round" stroke-linejoin="round" fill-opacity="0" stroke="rgb(134,103,103)" stroke-opacity="1" stroke-width="8" d=" M-215.4510040283203,6.678999900817871 C-197.51699829101562,89.33200073242188 -111.10299682617188,87.78199768066406 -75.62899780273438,91.66300201416016 C-53.85200119018555,94.04499816894531 -34.83100128173828,118.69400024414062 -1.6089999675750732,118.69400024414062 C-1.6089999675750732,118.69400024414062 -1.6089999675750732,118.69400024414062 -1.6089999675750732,118.69400024414062 C-1.600000023841858,118.69400024414062 -1.5920000076293945,118.69400024414062 -1.5829999446868896,118.69400024414062 C-1.5740000009536743,118.69400024414062 -1.565999984741211,118.69400024414062 -1.5570000410079956,118.69400024414062 C-1.5570000410079956,118.69400024414062 -1.5570000410079956,118.69400024414062 -1.5570000410079956,118.69400024414062 C32.981998443603516,118.69400024414062 52.81399917602539,92.58699798583984 72.74800109863281,91.66300201416016 C103.67500305175781,90.22899627685547 194.63600158691406,89.33200073242188 212.57000732421875,6.678999900817871 C228.06300354003906,-64.7229995727539 177.072998046875,-104.62300109863281 154.54200744628906,-118.42900085449219"/></g><g opacity="1" transform="matrix(1,0,0,1,309.3630065917969,179.6750030517578)"><path stroke-linecap="round" stroke-linejoin="round" fill-opacity="0" stroke="rgb(133,72,61)" stroke-opacity="1" stroke-width="8" d=" M156.00399780273438,90.19200134277344 C143.17300415039062,58.50400161743164 117.05699920654297,38.94900131225586 102.62200164794922,30.104000091552734 C96.13099670410156,26.125999450683594 91.30699920654297,19.95599937438965 88.84600067138672,12.751999855041504 C70.3270034790039,-41.45000076293945 27.030000686645508,-90.1760025024414 -53.340999603271484,-90.19200134277344 C-53.340999603271484,-90.19200134277344 -53.340999603271484,-90.19200134277344 -53.340999603271484,-90.19200134277344 C-53.347999572753906,-90.19200134277344 -53.35300064086914,-90.19200134277344 -53.36000061035156,-90.19200134277344 C-53.367000579833984,-90.19200134277344 -53.37300109863281,-90.19200134277344 -53.380001068115234,-90.19200134277344 C-53.380001068115234,-90.19200134277344 -53.380001068115234,-90.19200134277344 -53.380001068115234,-90.19200134277344 C-98.58899688720703,-90.18299865722656 -132.0679931640625,-74.76100158691406 -156.00399780273438,-51.62300109863281"/></g></g><g style="display: block;" transform="matrix(0.8999999761581421,0,0,0.8999999761581421,24.51801872253418,45.910213470458984)" opacity="1"><g opacity="0.1" transform="matrix(1,0,0,1,183.98399353027344,287.46600341796875)"><path fill="rgb(0,0,0)" fill-opacity="1" d=" M0,-37.89799880981445 C11.64900016784668,-37.89799880981445 21.091999053955078,-20.93000030517578 21.091999053955078,0 C21.091999053955078,20.93000030517578 11.64900016784668,37.89799880981445 0,37.89799880981445 C-11.64900016784668,37.89799880981445 -21.091999053955078,20.93000030517578 -21.091999053955078,0 C-21.091999053955078,-20.93000030517578 -11.64900016784668,-37.89799880981445 0,-37.89799880981445z"/></g><g opacity="1" transform="matrix(1,0,0,1,183.98399353027344,302.2229919433594)"><path fill="rgb(255,255,255)" fill-opacity="1" d=" M0,-37.89799880981445 C11.64900016784668,-37.89799880981445 21.091999053955078,-20.93000030517578 21.091999053955078,0 C21.091999053955078,20.93000030517578 11.64900016784668,37.89799880981445 0,37.89799880981445 C-11.64900016784668,37.89799880981445 -21.091999053955078,20.93000030517578 -21.091999053955078,0 C-21.091999053955078,-20.93000030517578 -11.64900016784668,-37.89799880981445 0,-37.89799880981445z"/></g><g opacity="1" transform="matrix(1,0,0,1,0,0)"><g opacity="1" transform="matrix(1,0,0,1,184.1580047607422,294.843994140625)"><path fill="rgb(0,0,0)" fill-opacity="1" d=" M0,-37.89799880981445 C11.64900016784668,-37.89799880981445 21.091999053955078,-20.93000030517578 21.091999053955078,0 C21.091999053955078,20.93000030517578 11.64900016784668,37.89799880981445 0,37.89799880981445 C-11.64900016784668,37.89799880981445 -21.091999053955078,20.93000030517578 -21.091999053955078,0 C-21.091999053955078,-20.93000030517578 -11.64900016784668,-37.89799880981445 0,-37.89799880981445z"/></g><g opacity="0.3" transform="matrix(1,0,0,1,184.1580047607422,304.38299560546875)"><path fill="url(#__lottie_element_42944)" fill-opacity="1" d=" M0,-23.67099952697754 C8.836000442504883,-23.67099952697754 15.998000144958496,-13.072999954223633 15.998000144958496,0 C15.998000144958496,13.072999954223633 8.836000442504883,23.67099952697754 0,23.67099952697754 C-8.836000442504883,23.67099952697754 -15.998000144958496,13.072999954223633 -15.998000144958496,0 C-15.998000144958496,-13.072999954223633 -8.836000442504883,-23.67099952697754 0,-23.67099952697754z"/></g><g opacity="1" transform="matrix(1,0,0,1,184.1580047607422,272.89599609375)"><path fill="url(#__lottie_element_42945)" fill-opacity="1" d=" M0,-7.815999984741211 C3.6389999389648438,-7.815999984741211 6.590000152587891,-4.316999912261963 6.590000152587891,0 C6.590000152587891,4.316999912261963 3.6389999389648438,7.815999984741211 0,7.815999984741211 C-3.6389999389648438,7.815999984741211 -6.590000152587891,4.316999912261963 -6.590000152587891,0 C-6.590000152587891,-4.316999912261963 -3.6389999389648438,-7.815999984741211 0,-7.815999984741211z"/></g><g opacity="0.5" transform="matrix(1,0,0,1,184.80799865722656,322.0639953613281)"><path fill="url(#__lottie_element_42946)" fill-opacity="1" d=" M-0.6489999890327454,0.871999979019165 C-5.9629998207092285,0.871999979019165 -10.967000007629395,-5.629000186920166 -11.800999641418457,-5.3480000495910645 C-13.15999984741211,-4.889999866485596 -7.816999912261963,5.386000156402588 -0.8230000138282776,5.386000156402588 C7.1020002365112305,5.386000156402588 13.875,-5.386000156402588 11.550000190734863,-5.386000156402588 C10.456000328063965,-5.386000156402588 4.4770002365112305,0.871999979019165 -0.6489999890327454,0.871999979019165z"/></g></g></g><g style="display: block;" transform="matrix(0.8999999761581421,0,0,0.8999999761581421,24.518911361694336,45.910213470458984)" opacity="1"><g opacity="0.1" transform="matrix(1,0,0,1,327.8869934082031,287.46600341796875)"><path fill="rgb(0,0,0)" fill-opacity="1" d=" M0,-37.89799880981445 C11.64900016784668,-37.89799880981445 21.091999053955078,-20.93000030517578 21.091999053955078,0 C21.091999053955078,20.93000030517578 11.64900016784668,37.89799880981445 0,37.89799880981445 C-11.64900016784668,37.89799880981445 -21.091999053955078,20.93000030517578 -21.091999053955078,0 C-21.091999053955078,-20.93000030517578 -11.64900016784668,-37.89799880981445 0,-37.89799880981445z"/></g><g opacity="0.4" transform="matrix(1,0,0,1,327.8869934082031,302.2229919433594)"><path fill="rgb(255,255,255)" fill-opacity="1" d=" M0,-37.89799880981445 C11.64900016784668,-37.89799880981445 21.091999053955078,-20.93000030517578 21.091999053955078,0 C21.091999053955078,20.93000030517578 11.64900016784668,37.89799880981445 0,37.89799880981445 C-11.64900016784668,37.89799880981445 -21.091999053955078,20.93000030517578 -21.091999053955078,0 C-21.091999053955078,-20.93000030517578 -11.64900016784668,-37.89799880981445 0,-37.89799880981445z"/></g><g opacity="1" transform="matrix(1,0,0,1,0,0)"><g opacity="1" transform="matrix(1,0,0,1,328.0610046386719,294.843994140625)"><path fill="rgb(0,0,0)" fill-opacity="1" d=" M0,-37.89799880981445 C11.64900016784668,-37.89799880981445 21.091999053955078,-20.93000030517578 21.091999053955078,0 C21.091999053955078,20.93000030517578 11.64900016784668,37.89799880981445 0,37.89799880981445 C-11.64900016784668,37.89799880981445 -21.091999053955078,20.93000030517578 -21.091999053955078,0 C-21.091999053955078,-20.93000030517578 -11.64900016784668,-37.89799880981445 0,-37.89799880981445z"/></g><g opacity="0.3" transform="matrix(1,0,0,1,328.0610046386719,304.38299560546875)"><path fill="url(#__lottie_element_42938)" fill-opacity="1" d=" M0,-23.67099952697754 C8.836000442504883,-23.67099952697754 15.998000144958496,-13.072999954223633 15.998000144958496,0 C15.998000144958496,13.072999954223633 8.836000442504883,23.67099952697754 0,23.67099952697754 C-8.836000442504883,23.67099952697754 -15.998000144958496,13.072999954223633 -15.998000144958496,0 C-15.998000144958496,-13.072999954223633 -8.836000442504883,-23.67099952697754 0,-23.67099952697754z"/></g><g opacity="1" transform="matrix(1,0,0,1,328.0610046386719,272.89599609375)"><path fill="url(#__lottie_element_42939)" fill-opacity="1" d=" M0,-7.815999984741211 C3.6389999389648438,-7.815999984741211 6.590000152587891,-4.316999912261963 6.590000152587891,0 C6.590000152587891,4.316999912261963 3.6389999389648438,7.815999984741211 0,7.815999984741211 C-3.6389999389648438,7.815999984741211 -6.590000152587891,4.316999912261963 -6.590000152587891,0 C-6.590000152587891,-4.316999912261963 -3.6389999389648438,-7.815999984741211 0,-7.815999984741211z"/></g><g opacity="0.5" transform="matrix(1,0,0,1,328.71099853515625,322.0639953613281)"><path fill="url(#__lottie_element_42940)" fill-opacity="1" d=" M-0.6489999890327454,0.871999979019165 C-5.9629998207092285,0.871999979019165 -10.967000007629395,-5.629000186920166 -11.800999641418457,-5.3480000495910645 C-13.15999984741211,-4.889999866485596 -7.816999912261963,5.386000156402588 -0.8230000138282776,5.386000156402588 C7.1020002365112305,5.386000156402588 13.875,-5.386000156402588 11.550000190734863,-5.386000156402588 C10.456000328063965,-5.386000156402588 4.4770002365112305,0.871999979019165 -0.6489999890327454,0.871999979019165z"/></g></g></g><g style="display: block;" transform="matrix(0.8999999761581421,0,0,0.8999999761581421,24.518003463745117,45.910213470458984)" opacity="1"><g opacity="0.1" transform="matrix(1,0,0,1,375.5270080566406,377.2300109863281)"><path stroke-linecap="round" stroke-linejoin="round" fill-opacity="0" stroke="rgb(0,0,0)" stroke-opacity="1" stroke-width="4" d=" M63.66400146484375,10.843999862670898 C63.66400146484375,10.843999862670898 15.11299991607666,-18.413000106811523 -63.66400146484375,-8.96500015258789"/></g><g opacity="0.1" transform="matrix(1,0,0,1,373.35699462890625,380.4779968261719)"><path stroke-linecap="round" stroke-linejoin="round" fill-opacity="0" stroke="rgb(0,0,0)" stroke-opacity="1" stroke-width="4" d=" M-61.49399948120117,-12.211999893188477 C-61.49399948120117,-12.211999893188477 4.989999771118164,-19.187999725341797 61.49399948120117,12.854000091552734"/></g><g opacity="0.1" transform="matrix(1,0,0,1,362.09698486328125,390.3240051269531)"><path stroke-linecap="round" stroke-linejoin="round" fill-opacity="0" stroke="rgb(0,0,0)" stroke-opacity="1" stroke-width="4" d=" M54.75899887084961,12.878999710083008 C54.75899887084961,12.878999710083008 16.4060001373291,-11.932000160217285 -54.75899887084961,-12.878999710083008"/></g><g opacity="0.1" transform="matrix(1,0,0,1,349.4679870605469,398.9150085449219)"><path stroke-linecap="round" stroke-linejoin="round" fill-opacity="0" stroke="rgb(0,0,0)" stroke-opacity="1" stroke-width="4" d=" M45.77000045776367,13.335000038146973 C45.77000045776367,13.335000038146973 13.862000465393066,-6.260000228881836 -45.77000045776367,-13.335000038146973"/></g><g opacity="1" transform="matrix(1,0,0,1,0,0)"><g opacity="1" transform="matrix(1,0,0,1,386.5669860839844,388.0740051269531)"><path stroke-linecap="round" stroke-linejoin="round" fill-opacity="0" stroke="rgb(142,134,137)" stroke-opacity="1" stroke-width="4" d=" M77.81199645996094,21.334999084472656 C77.81199645996094,21.334999084472656 26.450000762939453,-31.875 -77.81199645996094,-19.45599937438965"/></g><g opacity="1" transform="matrix(1,0,0,1,388.6239929199219,408.5459899902344)"><path stroke-linecap="round" stroke-linejoin="round" fill-opacity="0" stroke="rgb(142,134,137)" stroke-opacity="1" stroke-width="4" d=" M82.89800262451172,31.905000686645508 C82.89800262451172,31.905000686645508 23.253999710083008,-40.262001037597656 -82.89800262451172,-31.10099983215332"/></g><g opacity="1" transform="matrix(1,0,0,1,382.1470031738281,420.45098876953125)"><path stroke-linecap="round" stroke-linejoin="round" fill-opacity="0" stroke="rgb(142,134,137)" stroke-opacity="1" stroke-width="4" d=" M78.4489974975586,34.87099838256836 C78.4489974975586,34.87099838256836 16.910999298095703,-34.91400146484375 -78.4489974975586,-34.87099838256836"/></g></g></g><g style="display: block;" transform="matrix(-0.8999999761581421,0,0,0.8999999761581421,485.2171936035156,45.910213470458984)" opacity="1"><g opacity="0.1" transform="matrix(1,0,0,1,375.5270080566406,377.2300109863281)"><path stroke-linecap="round" stroke-linejoin="round" fill-opacity="0" stroke="rgb(0,0,0)" stroke-opacity="1" stroke-width="4" d=" M63.66400146484375,10.843999862670898 C63.66400146484375,10.843999862670898 15.11299991607666,-18.413000106811523 -63.66400146484375,-8.96500015258789"/></g><g opacity="0.1" transform="matrix(1,0,0,1,373.35699462890625,380.4779968261719)"><path stroke-linecap="round" stroke-linejoin="round" fill-opacity="0" stroke="rgb(0,0,0)" stroke-opacity="1" stroke-width="4" d=" M-61.49399948120117,-12.211999893188477 C-61.49399948120117,-12.211999893188477 4.989999771118164,-19.187999725341797 61.49399948120117,12.854000091552734"/></g><g opacity="0.1" transform="matrix(1,0,0,1,362.09698486328125,390.3240051269531)"><path stroke-linecap="round" stroke-linejoin="round" fill-opacity="0" stroke="rgb(0,0,0)" stroke-opacity="1" stroke-width="4" d=" M54.75899887084961,12.878999710083008 C54.75899887084961,12.878999710083008 16.4060001373291,-11.932000160217285 -54.75899887084961,-12.878999710083008"/></g><g opacity="0.1" transform="matrix(1,0,0,1,349.4679870605469,398.9150085449219)"><path stroke-linecap="round" stroke-linejoin="round" fill-opacity="0" stroke="rgb(0,0,0)" stroke-opacity="1" stroke-width="4" d=" M45.77000045776367,13.335000038146973 C45.77000045776367,13.335000038146973 13.862000465393066,-6.260000228881836 -45.77000045776367,-13.335000038146973"/></g><g opacity="1" transform="matrix(1,0,0,1,0,0)"><g opacity="1" transform="matrix(1,0,0,1,386.5669860839844,388.0740051269531)"><path stroke-linecap="round" stroke-linejoin="round" fill-opacity="0" stroke="rgb(142,134,137)" stroke-opacity="1" stroke-width="4" d=" M77.81199645996094,21.334999084472656 C77.81199645996094,21.334999084472656 26.450000762939453,-31.875 -77.81199645996094,-19.45599937438965"/></g><g opacity="1" transform="matrix(1,0,0,1,388.6239929199219,408.5459899902344)"><path stroke-linecap="round" stroke-linejoin="round" fill-opacity="0" stroke="rgb(142,134,137)" stroke-opacity="1" stroke-width="4" d=" M82.89800262451172,31.905000686645508 C82.89800262451172,31.905000686645508 23.253999710083008,-40.262001037597656 -82.89800262451172,-31.10099983215332"/></g><g opacity="1" transform="matrix(1,0,0,1,382.1470031738281,420.45098876953125)"><path stroke-linecap="round" stroke-linejoin="round" fill-opacity="0" stroke="rgb(142,134,137)" stroke-opacity="1" stroke-width="4" d=" M78.4489974975586,34.87099838256836 C78.4489974975586,34.87099838256836 16.910999298095703,-34.91400146484375 -78.4489974975586,-34.87099838256836"/></g></g></g><g style="display: block;" transform="matrix(0.999998927116394,0,0,0.999998927116394,254.87490844726562,301.2748718261719)" opacity="1"><g opacity="1" transform="matrix(1,0,0,1,0,0)"><path fill="rgb(102,24,46)" fill-opacity="1" d=" M1.3300000429153442,125.06300354003906 C1.3300000429153442,125.06300354003906 -3.622999906539917,123.35199737548828 -10.99899959564209,119.49199676513672 C-16,116.875 -19.110000610351562,117.3499984741211 -10.949000358581543,121.86499786376953 C-2.7880001068115234,126.37999725341797 2.2079999446868896,128.125 9.802000045776367,123.572998046875 C17.395999908447266,119.02100372314453 23.187999725341797,116 18.027000427246094,118.07499694824219 C6.324999809265137,122.77999877929688 1.3300000429153442,125.06300354003906 1.3300000429153442,125.06300354003906z"/></g><g opacity="1" transform="matrix(1,0,0,1,0,0.06300000101327896)"><path fill="url(#__lottie_element_42925)" fill-opacity="1" d=" M15.75,119.34400177001953 C15.75,119.34400177001953 10.687999725341797,120.5 1.375,125.21900177001953 C-9.312999725341797,119.5 -13.437999725341797,120.375 -13.437999725341797,120.375 C-13.437999725341797,120.375 -7.313000202178955,125.56199645996094 1.375,125.625 C10.062999725341797,125.68800354003906 15.75,119.34400177001953 15.75,119.34400177001953z"/><path stroke-linecap="round" stroke-linejoin="round" fill-opacity="0" stroke="rgb(169,46,79)" stroke-opacity="1" stroke-width="6" d=" M15.75,119.34400177001953 C15.75,119.34400177001953 10.687999725341797,120.5 1.375,125.21900177001953 C-9.312999725341797,119.5 -13.437999725341797,120.375 -13.437999725341797,120.375 C-13.437999725341797,120.375 -7.313000202178955,125.56199645996094 1.375,125.625 C10.062999725341797,125.68800354003906 15.75,119.34400177001953 15.75,119.34400177001953z"/></g><g opacity="0" transform="matrix(1,0,0,1,149.06399536132812,452.4729919433594)"><path fill="url(#__lottie_element_42926)" fill-opacity="1" d=" M-157.08299255371094,-279.9570007324219 C-154.5489959716797,-280.33099365234375 -151.51499938964844,-283.8169860839844 -145.21099853515625,-287.63299560546875 C-135.7429962158203,-293.364990234375 -125.52400207519531,-300.95098876953125 -123.2760009765625,-313.875 C-121.02799987792969,-326.79901123046875 -131.87100219726562,-344.2539978027344 -156.10499572753906,-346.3190002441406 C-180.3090057373047,-348.3810119628906 -194.4040069580078,-337.00201416015625 -195.02000427246094,-320.27301025390625 C-195.57400512695312,-305.2359924316406 -189.85400390625,-291.8429870605469 -179.06399536132812,-285.7619934082031 C-169,-280.0899963378906 -160.1300048828125,-279.50799560546875 -157.08299255371094,-279.9570007324219z"/></g><g opacity="0" transform="matrix(1,0,0,1,149.13999938964844,493.489013671875)"><path fill="rgb(100,43,26)" fill-opacity="1" d=" M-123.03700256347656,-358.8269958496094 C-123.02300262451172,-357.4840087890625 -123.12899780273438,-356.1679992675781 -123.35099792480469,-354.89300537109375 C-125.5979995727539,-341.9670104980469 -135.81700134277344,-334.3819885253906 -145.28500366210938,-328.6510009765625 C-151.59100341796875,-324.8340148925781 -154.625,-321.3450012207031 -157.15899658203125,-320.9729919433594 C-160.20599365234375,-320.5260009765625 -169.0749969482422,-321.1059875488281 -179.14100646972656,-326.77899169921875 C-189.1649932861328,-332.4280090332031 -194.32200622558594,-345.0350036621094 -195.0659942626953,-358.1929931640625 C-195.0659942626953,-358.1929931640625 -195.06300354003906,-358.1969909667969 -195.06300354003906,-358.1969909667969 C-186.48800659179688,-346.7229919433594 -171.81900024414062,-340.8219909667969 -158.3520050048828,-341.22601318359375 C-144.80799865722656,-341.63299560546875 -131.33099365234375,-347.7200012207031 -123.03700256347656,-358.8269958496094z"/></g><g opacity="0" transform="matrix(1,0,0,1,147.3560028076172,371.8599853515625)"><path fill="rgb(221,184,153)" fill-opacity="1" d=" M-177.25,-262.010009765625 C-177.25,-262.010009765625 -177.24899291992188,-262.0140075683594 -177.24899291992188,-262.0140075683594 C-170.81300354003906,-264.9179992675781 -163.86000061035156,-266.447998046875 -154.28500366210938,-265.6029968261719 C-148.19200134277344,-265.06500244140625 -141.79299926757812,-263.38299560546875 -137.41400146484375,-261.3139953613281 C-137.4040069580078,-261.3160095214844 -137.39599609375,-261.3080139160156 -137.38900756835938,-261.3009948730469 C-137.41400146484375,-261.3139953613281 -138.62600708007812,-255.61900329589844 -149.2790069580078,-257.24700927734375 C-156.84800720214844,-258.40399169921875 -156.99600219726562,-253.3520050048828 -167.38900756835938,-256.4280090332031 C-173.24600219726562,-258.1610107421875 -177.25,-262.010009765625 -177.25,-262.010009765625z"/></g><g opacity="0" transform="matrix(1,0,0,1,149.06399536132812,452.4580078125)"><path stroke-linecap="round" stroke-linejoin="round" fill-opacity="0" stroke="rgb(94,35,22)" stroke-opacity="1" stroke-width="7" d=" M-157.08299255371094,-279.9429931640625 C-154.5489959716797,-280.3169860839844 -151.51400756835938,-283.8030090332031 -145.2100067138672,-287.6189880371094 C-135.74200439453125,-293.35101318359375 -125.52400207519531,-300.93701171875 -123.2760009765625,-313.8609924316406 C-121.02799987792969,-326.7850036621094 -131.8780059814453,-344.1610107421875 -156.10499572753906,-346.30499267578125 C-179.9770050048828,-348.4169921875 -194.4040069580078,-336.9880065917969 -195.02000427246094,-320.2590026855469 C-195.57400512695312,-305.22198486328125 -189.85400390625,-291.8280029296875 -179.06399536132812,-285.74700927734375 C-169,-280.07501220703125 -160.1300048828125,-279.4939880371094 -157.08299255371094,-279.9429931640625z"/></g><g opacity="1" transform="matrix(1,0,0,1,0,0)"><path fill="rgb(255,255,255)" fill-opacity="1" d=" M9.88700008392334,122.06099700927734 C5.2270002365112305,121.53199768066406 -2.621999979019165,121.58300018310547 -7.372000217437744,122.07599639892578 C-8.425000190734863,122.18499755859375 -8.277000427246094,122.79299926757812 -8.050999641418457,122.91200256347656 C-7.824999809265137,123.03099822998047 10.633999824523926,122.99500274658203 10.791999816894531,122.88500213623047 C10.949999809265137,122.7750015258789 11.062000274658203,122.19400024414062 9.88700008392334,122.06099700927734z"/><path stroke-linecap="butt" stroke-linejoin="miter" fill-opacity="0" stroke-miterlimit="4" stroke="rgb(226,226,226)" stroke-opacity="1" stroke-width="6" d=" M9.88700008392334,122.06099700927734 C5.2270002365112305,121.53199768066406 -2.621999979019165,121.58300018310547 -7.372000217437744,122.07599639892578 C-8.425000190734863,122.18499755859375 -8.277000427246094,122.79299926757812 -8.050999641418457,122.91200256347656 C-7.824999809265137,123.03099822998047 10.633999824523926,122.99500274658203 10.791999816894531,122.88500213623047 C10.949999809265137,122.7750015258789 11.062000274658203,122.19400024414062 9.88700008392334,122.06099700927734z"/></g><g opacity="1" transform="matrix(1,0,0,1,0,0)"><path fill="rgb(255,255,255)" fill-opacity="1" d=" M1.4270000457763672,121.73799896240234 C1.4270000457763672,121.73799896240234 1.4270000457763672,122.95700073242188 1.4270000457763672,122.95700073242188"/><path stroke-linecap="butt" stroke-linejoin="miter" fill-opacity="0" stroke-miterlimit="4" stroke="rgb(226,226,226)" stroke-opacity="1" stroke-width="6" d=" M1.4270000457763672,121.73799896240234 C1.4270000457763672,121.73799896240234 1.4270000457763672,122.95700073242188 1.4270000457763672,122.95700073242188"/></g><g opacity="1" transform="matrix(1,0,0,1,0.06300000101327896,0)"><path stroke-linecap="round" stroke-linejoin="round" fill-opacity="0" stroke="rgb(133,72,61)" stroke-opacity="1" stroke-width="8" d=" M1.3300000429153442,125.06300354003906 C1.3300000429153442,125.06300354003906 -3.622999906539917,123.35199737548828 -10.99899959564209,119.49199676513672 C-16,116.875 -19.110000610351562,117.3499984741211 -10.949000358581543,121.86499786376953 C-2.7880001068115234,126.37999725341797 2.2079999446868896,128.125 9.802000045776367,123.572998046875 C17.395999908447266,119.02100372314453 23.187999725341797,116 18.027000427246094,118.07499694824219 C6.324999809265137,122.77999877929688 1.3300000429153442,125.06300354003906 1.3300000429153442,125.06300354003906z"/></g></g><g style="display: block;" transform="matrix(0.8999999761581421,0,0,0.8999999761581421,24.518003463745117,45.910213470458984)" opacity="1"><g opacity="0.5" transform="matrix(1,0,0,1,256.9700012207031,406.8039855957031)"><path fill="rgb(255,255,255)" fill-opacity="1" d=" M0,-28.413000106811523 C-20.1560001373291,-28.413000106811523 -37.63199996948242,-22.183000564575195 -37.63199996948242,-8.16100025177002 C-37.63199996948242,6.3480000495910645 -11.029999732971191,28.413000106811523 0,28.413000106811523 C11.029999732971191,28.413000106811523 37.63199996948242,6.3480000495910645 37.63199996948242,-8.16100025177002 C37.63199996948242,-22.183000564575195 20.1560001373291,-28.413000106811523 0,-28.413000106811523z"/></g><g opacity="0.1" transform="matrix(1,0,0,1,256.9700012207031,398.0069885253906)"><path fill="rgb(0,0,0)" fill-opacity="1" d=" M0,-28.441999435424805 C-20.1560001373291,-28.441999435424805 -37.63199996948242,-23.934999465942383 -37.63199996948242,-9.420000076293945 C-37.63199996948242,5.598999977111816 -11.029999732971191,28.441999435424805 0,28.441999435424805 C11.029999732971191,28.441999435424805 37.63199996948242,5.598999977111816 37.63199996948242,-9.420000076293945 C37.63199996948242,-23.934999465942383 20.1560001373291,-28.441999435424805 0,-28.441999435424805z"/></g><g opacity="1" transform="matrix(1,0,0,1,256.9700012207031,401.9639892578125)"><path fill="url(#__lottie_element_42920)" fill-opacity="1" d=" M0,-23.572999954223633 C-17.96299934387207,-23.572999954223633 -33.53900146484375,-20.027000427246094 -33.53900146484375,-7.943999767303467 C-33.53900146484375,4.559000015258789 -9.829999923706055,23.572999954223633 0,23.572999954223633 C9.829999923706055,23.572999954223633 33.53900146484375,4.559000015258789 33.53900146484375,-7.943999767303467 C33.53900146484375,-20.027000427246094 17.96299934387207,-23.572999954223633 0,-23.572999954223633z"/></g><g opacity="0.6" transform="matrix(1,0,0,1,256.9729919433594,388.9440002441406)"><path fill="url(#__lottie_element_42921)" fill-opacity="1" d=" M0.40700000524520874,5.896999835968018 C-10.251999855041504,5.953000068664551 -17.576000213623047,7.060999870300293 -22.21500015258789,7.234000205993652 C-27.073999404907227,7.414999961853027 -30.39699935913086,5.914000034332275 -30.113000869750977,3.2019999027252197 C-29.365999221801758,-3.930000066757202 -13.77400016784668,-7.284999847412109 0.40700000524520874,-7.284999847412109 C14.04800033569336,-7.284999847412109 30.825000762939453,-4.9730000495910645 30.107999801635742,3.1589999198913574 C29.881999969482422,5.723999977111816 26.41900062561035,7.353000164031982 22.45400047302246,7.2829999923706055 C17.792999267578125,7.201000213623047 10.489999771118164,5.843999862670898 0.40700000524520874,5.896999835968018z"/></g><g opacity="1" transform="matrix(1,0,0,1,256.9700012207031,401.9639892578125)"><path stroke-linecap="round" stroke-linejoin="round" fill-opacity="0" stroke="rgb(189,98,113)" stroke-opacity="1" stroke-width="8" d=" M0,-23.572999954223633 C-17.96299934387207,-23.572999954223633 -33.53900146484375,-20.027000427246094 -33.53900146484375,-7.943999767303467 C-33.53900146484375,4.559000015258789 -9.829999923706055,23.572999954223633 0,23.572999954223633 C9.829999923706055,23.572999954223633 33.53900146484375,4.559000015258789 33.53900146484375,-7.943999767303467 C33.53900146484375,-20.027000427246094 17.96299934387207,-23.572999954223633 0,-23.572999954223633z"/></g><g opacity="1" transform="matrix(1,0,0,1,256.6830139160156,412.25)"><path stroke-linecap="round" stroke-linejoin="round" fill-opacity="0" stroke="rgb(133,49,73)" stroke-opacity="1" stroke-width="8" d=" M-32.2140007019043,-13.286999702453613 C-27.54199981689453,-1.2719999551773071 -8.314000129699707,13.286999702453613 0.28700000047683716,13.286999702453613 C8.571999549865723,13.286999702453613 26.71500015258789,-0.2199999988079071 32.2140007019043,-11.951000213623047"/></g></g></g></svg>