<svg xmlns="http://www.w3.org/2000/svg" xmlns:xlink="http://www.w3.org/1999/xlink" viewBox="0 0 512 512" width="512" height="512" style="width: 100%; height: 100%; transform: translate3d(0,0,0);" preserveAspectRatio="xMidYMid meet"><defs><clipPath id="__lottie_element_23772"><rect width="512" height="512" x="0" y="0"/></clipPath><linearGradient id="__lottie_element_23784" spreadMethod="pad" gradientUnits="userSpaceOnUse" x1="-0.07800000160932541" y1="89.22100067138672" x2="-0.07800000160932541" y2="-90.0510025024414"><stop offset="0%" stop-color="rgb(177,11,3)"/><stop offset="3%" stop-color="rgb(210,31,22)"/><stop offset="5%" stop-color="rgb(244,51,41)"/></linearGradient><linearGradient id="__lottie_element_23785" spreadMethod="pad" gradientUnits="userSpaceOnUse" x1="-192.21400451660156" y1="-0.3540000021457672" x2="192.1199951171875" y2="-0.3540000021457672"><stop offset="0%" stop-color="rgb(241,249,253)"/><stop offset="29%" stop-color="rgb(225,241,251)"/><stop offset="58%" stop-color="rgb(209,234,250)"/><stop offset="76%" stop-color="rgb(197,223,248)"/><stop offset="93%" stop-color="rgb(184,212,245)"/></linearGradient><linearGradient id="__lottie_element_23786" spreadMethod="pad" gradientUnits="userSpaceOnUse" x1="-192.21400451660156" y1="-0.9539999961853027" x2="192.1199951171875" y2="-0.9539999961853027"><stop offset="0%" stop-color="rgb(241,249,253)"/><stop offset="29%" stop-color="rgb(225,241,251)"/><stop offset="58%" stop-color="rgb(209,234,250)"/><stop offset="76%" stop-color="rgb(197,223,248)"/><stop offset="93%" stop-color="rgb(184,212,245)"/></linearGradient><linearGradient id="__lottie_element_23789" spreadMethod="pad" gradientUnits="userSpaceOnUse"><stop/><stop/><stop/><stop/><stop/></linearGradient><linearGradient id="__lottie_element_23790" spreadMethod="pad" gradientUnits="userSpaceOnUse"><stop/><stop/><stop/></linearGradient><linearGradient id="__lottie_element_23796" spreadMethod="pad" gradientUnits="userSpaceOnUse"><stop/><stop/><stop/><stop/><stop/></linearGradient><linearGradient id="__lottie_element_23800" spreadMethod="pad" gradientUnits="userSpaceOnUse"><stop/><stop/><stop/><stop/><stop/></linearGradient><linearGradient id="__lottie_element_23816" spreadMethod="pad" gradientUnits="userSpaceOnUse"><stop/><stop/><stop/></linearGradient><linearGradient id="__lottie_element_23820" spreadMethod="pad" gradientUnits="userSpaceOnUse"><stop/><stop/><stop/><stop/><stop/></linearGradient><linearGradient id="__lottie_element_23828" spreadMethod="pad" gradientUnits="userSpaceOnUse"><stop/><stop/><stop/></linearGradient><linearGradient id="__lottie_element_23837" spreadMethod="pad" gradientUnits="userSpaceOnUse" x1="-0.006000000052154064" y1="48.36600112915039" x2="-0.006000000052154064" y2="-48.551998138427734"><stop offset="0%" stop-color="rgb(33,33,33)"/><stop offset="50%" stop-color="rgb(49,49,49)"/><stop offset="100%" stop-color="rgb(66,66,66)"/></linearGradient></defs><g clip-path="url(#__lottie_element_23772)"><g style="display: block;" transform="matrix(1,0,0,1,256,256)" opacity="1"><g opacity="1" transform="matrix(1,0,0,1,0,0)"><path fill="rgb(255,117,110)" fill-opacity="1" d=" M-194.875,-91.23600006103516 C-194.875,-91.23600006103516 -145.8509979248047,-91.85700225830078 -138.9219970703125,-91.98400115966797 C-133.92799377441406,-92.07599639892578 -125.67500305175781,-92.14199829101562 -114.6709976196289,-92.14199829101562 C-103.66699981689453,-92.14199829101562 118.05000305175781,-92.14199829101562 128.64700317382812,-92.14199829101562 C139.24400329589844,-92.14199829101562 145.55999755859375,-92.09300231933594 150.65499877929688,-91.96900177001953 C155.75,-91.84500122070312 197.5,-91.15599822998047 197.5,-91.15599822998047"/><path stroke-linecap="round" stroke-linejoin="round" fill-opacity="0" stroke="rgb(165,12,12)" stroke-opacity="1" stroke-width="8" d=" M-194.875,-91.23600006103516 C-194.875,-91.23600006103516 -145.8509979248047,-91.85700225830078 -138.9219970703125,-91.98400115966797 C-133.92799377441406,-92.07599639892578 -125.67500305175781,-92.14199829101562 -114.6709976196289,-92.14199829101562 C-103.66699981689453,-92.14199829101562 118.05000305175781,-92.14199829101562 128.64700317382812,-92.14199829101562 C139.24400329589844,-92.14199829101562 145.55999755859375,-92.09300231933594 150.65499877929688,-91.96900177001953 C155.75,-91.84500122070312 197.5,-91.15599822998047 197.5,-91.15599822998047"/></g></g><g style="display: block;" transform="matrix(1,0,0,1,0,0)" opacity="1"><g opacity="1" transform="matrix(1,0,0,1,152.80599975585938,146.33299255371094)"><path fill="rgb(183,204,226)" fill-opacity="1" d=" M9.246999740600586,-9.246999740600586 C9.246999740600586,-9.246999740600586 9.246999740600586,9.246999740600586 9.246999740600586,9.246999740600586 C9.246999740600586,9.246999740600586 -9.246999740600586,9.246999740600586 -9.246999740600586,9.246999740600586 C-9.246999740600586,9.246999740600586 -9.246999740600586,-9.246999740600586 -9.246999740600586,-9.246999740600586 C-9.246999740600586,-9.246999740600586 9.246999740600586,-9.246999740600586 9.246999740600586,-9.246999740600586z"/><path stroke-linecap="round" stroke-linejoin="round" fill-opacity="0" stroke="rgb(100,116,147)" stroke-opacity="1" stroke-width="8" d=" M9.246999740600586,-9.246999740600586 C9.246999740600586,-9.246999740600586 9.246999740600586,9.246999740600586 9.246999740600586,9.246999740600586 C9.246999740600586,9.246999740600586 -9.246999740600586,9.246999740600586 -9.246999740600586,9.246999740600586 C-9.246999740600586,9.246999740600586 -9.246999740600586,-9.246999740600586 -9.246999740600586,-9.246999740600586 C-9.246999740600586,-9.246999740600586 9.246999740600586,-9.246999740600586 9.246999740600586,-9.246999740600586z"/></g><g opacity="1" transform="matrix(1,0,0,1,361.02801513671875,146.33299255371094)"><path fill="rgb(183,204,226)" fill-opacity="1" d=" M9.246999740600586,-9.246999740600586 C9.246999740600586,-9.246999740600586 9.246999740600586,9.246999740600586 9.246999740600586,9.246999740600586 C9.246999740600586,9.246999740600586 -9.246999740600586,9.246999740600586 -9.246999740600586,9.246999740600586 C-9.246999740600586,9.246999740600586 -9.246999740600586,-9.246999740600586 -9.246999740600586,-9.246999740600586 C-9.246999740600586,-9.246999740600586 9.246999740600586,-9.246999740600586 9.246999740600586,-9.246999740600586z"/><path stroke-linecap="round" stroke-linejoin="round" fill-opacity="0" stroke="rgb(100,116,147)" stroke-opacity="1" stroke-width="8" d=" M9.246999740600586,-9.246999740600586 C9.246999740600586,-9.246999740600586 9.246999740600586,9.246999740600586 9.246999740600586,9.246999740600586 C9.246999740600586,9.246999740600586 -9.246999740600586,9.246999740600586 -9.246999740600586,9.246999740600586 C-9.246999740600586,9.246999740600586 -9.246999740600586,-9.246999740600586 -9.246999740600586,-9.246999740600586 C-9.246999740600586,-9.246999740600586 9.246999740600586,-9.246999740600586 9.246999740600586,-9.246999740600586z"/></g><g opacity="1" transform="matrix(1,0,0,1,0,0)"><g opacity="1" transform="matrix(1,0,0,1,256.9169921875,107.12100219726562)"><path fill="url(#__lottie_element_23837)" fill-opacity="1" d=" M57.47600173950195,-48.45899963378906 C57.47600173950195,-48.45899963378906 -57.47600173950195,-48.45899963378906 -57.47600173950195,-48.45899963378906 C-95.22200012207031,-48.45899963378906 -125.81999969482422,-17.860000610351562 -125.81999969482422,19.88599967956543 C-125.81999969482422,19.88599967956543 -125.81999969482422,48.45899963378906 -125.81999969482422,48.45899963378906 C-125.81999969482422,48.45899963378906 -113.35800170898438,48.45899963378906 -113.35800170898438,48.45899963378906 C-113.35800170898438,48.45899963378906 -113.35800170898438,29.96500015258789 -113.35800170898438,29.96500015258789 C-113.35800170898438,29.96500015258789 -94.86399841308594,29.96500015258789 -94.86399841308594,29.96500015258789 C-94.86399841308594,29.96500015258789 -94.86399841308594,19.2549991607666 -94.86399841308594,19.2549991607666 C-94.86399841308594,-2.690000057220459 -77.0739974975586,-20.479999542236328 -55.12900161743164,-20.479999542236328 C-55.12900161743164,-20.479999542236328 55.12900161743164,-20.479999542236328 55.12900161743164,-20.479999542236328 C77.0739974975586,-20.479999542236328 94.86399841308594,-2.690000057220459 94.86399841308594,19.2549991607666 C94.86399841308594,19.2549991607666 94.86399841308594,29.96500015258789 94.86399841308594,29.96500015258789 C94.86399841308594,29.96500015258789 113.35800170898438,29.96500015258789 113.35800170898438,29.96500015258789 C113.35800170898438,29.96500015258789 113.35800170898438,48.45899963378906 113.35800170898438,48.45899963378906 C113.35800170898438,48.45899963378906 125.81999969482422,48.45899963378906 125.81999969482422,48.45899963378906 C125.81999969482422,48.45899963378906 125.81999969482422,19.88599967956543 125.81999969482422,19.88599967956543 C125.81999969482422,-17.860000610351562 95.22200012207031,-48.45899963378906 57.47600173950195,-48.45899963378906z"/></g><g opacity="1" transform="matrix(1,0,0,1,256.9169921875,81.00900268554688)"><path fill="rgb(142,142,142)" fill-opacity="1" d=" M-121.60900115966797,22.336000442504883 C-121.38700103759766,22.378000259399414 -121.1449966430664,22.292999267578125 -121.00700378417969,22.003000259399414 C-110.7770004272461,0.5189999938011169 -90.03399658203125,-13.529999732971191 -66.09300231933594,-13.529999732971191 C-66.09300231933594,-13.529999732971191 66.09300231933594,-13.529999732971191 66.09300231933594,-13.529999732971191 C90.03399658203125,-13.529999732971191 110.7770004272461,0.5180000066757202 121.00700378417969,22.00200080871582 C121.1449966430664,22.29199981689453 121.38700103759766,22.378000259399414 121.60900115966797,22.336000442504883 C111.98200225830078,-3.746999979019165 86.90299987792969,-22.347000122070312 57.47600173950195,-22.347000122070312 C57.47600173950195,-22.347000122070312 -57.47600173950195,-22.347000122070312 -57.47600173950195,-22.347000122070312 C-86.90299987792969,-22.347000122070312 -111.98200225830078,-3.746999979019165 -121.60900115966797,22.336000442504883z"/></g><g opacity="1" transform="matrix(1,0,0,1,256.9169921875,107.12100219726562)"><path stroke-linecap="round" stroke-linejoin="round" fill-opacity="0" stroke="rgb(9,9,9)" stroke-opacity="1" stroke-width="8" d=" M57.47600173950195,-48.45899963378906 C57.47600173950195,-48.45899963378906 -57.47600173950195,-48.45899963378906 -57.47600173950195,-48.45899963378906 C-95.22200012207031,-48.45899963378906 -125.81999969482422,-17.860000610351562 -125.81999969482422,19.88599967956543 C-125.81999969482422,19.88599967956543 -125.81999969482422,48.45899963378906 -125.81999969482422,48.45899963378906 C-125.81999969482422,48.45899963378906 -113.35800170898438,48.45899963378906 -113.35800170898438,48.45899963378906 C-113.35800170898438,48.45899963378906 -113.35800170898438,29.96500015258789 -113.35800170898438,29.96500015258789 C-113.35800170898438,29.96500015258789 -94.86399841308594,29.96500015258789 -94.86399841308594,29.96500015258789 C-94.86399841308594,29.96500015258789 -94.86399841308594,19.2549991607666 -94.86399841308594,19.2549991607666 C-94.86399841308594,-2.690000057220459 -77.0739974975586,-20.479999542236328 -55.12900161743164,-20.479999542236328 C-55.12900161743164,-20.479999542236328 55.12900161743164,-20.479999542236328 55.12900161743164,-20.479999542236328 C77.0739974975586,-20.479999542236328 94.86399841308594,-2.690000057220459 94.86399841308594,19.2549991607666 C94.86399841308594,19.2549991607666 94.86399841308594,29.96500015258789 94.86399841308594,29.96500015258789 C94.86399841308594,29.96500015258789 113.35800170898438,29.96500015258789 113.35800170898438,29.96500015258789 C113.35800170898438,29.96500015258789 113.35800170898438,48.45899963378906 113.35800170898438,48.45899963378906 C113.35800170898438,48.45899963378906 125.81999969482422,48.45899963378906 125.81999969482422,48.45899963378906 C125.81999969482422,48.45899963378906 125.81999969482422,19.88599967956543 125.81999969482422,19.88599967956543 C125.81999969482422,-17.860000610351562 95.22200012207031,-48.45899963378906 57.47600173950195,-48.45899963378906z"/></g></g></g><g style="display: block;" transform="matrix(1,0,0,1,0,0)" opacity="1"><g opacity="1" transform="matrix(1,0,0,1,256.989013671875,352.2669982910156)"><path fill="rgb(255,125,125)" fill-opacity="1" d=" M211.06300354003906,-101.63600158691406 C211.06300354003906,-101.63600158691406 -211.06300354003906,-101.63600158691406 -211.06300354003906,-101.63600158691406 C-211.06300354003906,-101.63600158691406 -211.06300354003906,80.44000244140625 -211.06300354003906,80.44000244140625 C-211.06300354003906,92.14600372314453 -201.57400512695312,101.63600158691406 -189.8679962158203,101.63600158691406 C-189.8679962158203,101.63600158691406 189.8679962158203,101.63600158691406 189.8679962158203,101.63600158691406 C201.57400512695312,101.63600158691406 211.06300354003906,92.14600372314453 211.06300354003906,80.44000244140625 C211.06300354003906,80.44000244140625 211.06300354003906,-101.63600158691406 211.06300354003906,-101.63600158691406z"/><path stroke-linecap="round" stroke-linejoin="round" fill-opacity="0" stroke="rgb(165,12,12)" stroke-opacity="1" stroke-width="8" d=" M211.06300354003906,-101.63600158691406 C211.06300354003906,-101.63600158691406 -211.06300354003906,-101.63600158691406 -211.06300354003906,-101.63600158691406 C-211.06300354003906,-101.63600158691406 -211.06300354003906,80.44000244140625 -211.06300354003906,80.44000244140625 C-211.06300354003906,92.14600372314453 -201.57400512695312,101.63600158691406 -189.8679962158203,101.63600158691406 C-189.8679962158203,101.63600158691406 189.8679962158203,101.63600158691406 189.8679962158203,101.63600158691406 C201.57400512695312,101.63600158691406 211.06300354003906,92.14600372314453 211.06300354003906,80.44000244140625 C211.06300354003906,80.44000244140625 211.06300354003906,-101.63600158691406 211.06300354003906,-101.63600158691406z"/></g><g opacity="1" transform="matrix(1,0,0,1,256.989013671875,352.2659912109375)"><path fill="url(#__lottie_element_23784)" fill-opacity="1" d=" M-189.8679962158203,89.63600158691406 C-194.9459991455078,89.63600158691406 -199.06300354003906,85.51799774169922 -199.06300354003906,80.44000244140625 C-199.06300354003906,80.44000244140625 -199.06300354003906,-89.63600158691406 -199.06300354003906,-89.63600158691406 C-199.06300354003906,-89.63600158691406 199.06300354003906,-89.63600158691406 199.06300354003906,-89.63600158691406 C199.06300354003906,-89.63600158691406 199.06300354003906,80.44000244140625 199.06300354003906,80.44000244140625 C199.06300354003906,85.51799774169922 194.9459991455078,89.63600158691406 189.8679962158203,89.63600158691406 C189.8679962158203,89.63600158691406 -189.8679962158203,89.63600158691406 -189.8679962158203,89.63600158691406z"/></g><g opacity="1" transform="matrix(1,0,0,1,0,0)"><g opacity="1" transform="matrix(1,0,0,1,256.1239929199219,345.625)"><path fill="rgb(250,56,46)" fill-opacity="1" d=" M192.16700744628906,-7.633999824523926 C192.16700744628906,-7.633999824523926 192.16700744628906,7.633999824523926 192.16700744628906,7.633999824523926 C192.16700744628906,7.633999824523926 -192.16700744628906,7.633999824523926 -192.16700744628906,7.633999824523926 C-192.16700744628906,7.633999824523926 -192.16700744628906,-7.633999824523926 -192.16700744628906,-7.633999824523926 C-192.16700744628906,-7.633999824523926 192.16700744628906,-7.633999824523926 192.16700744628906,-7.633999824523926z"/><path stroke-linecap="round" stroke-linejoin="round" fill-opacity="0" stroke="rgb(81,16,16)" stroke-opacity="1" stroke-width="6" d=" M192.16700744628906,-7.633999824523926 C192.16700744628906,-7.633999824523926 192.16700744628906,7.633999824523926 192.16700744628906,7.633999824523926 C192.16700744628906,7.633999824523926 -192.16700744628906,7.633999824523926 -192.16700744628906,7.633999824523926 C-192.16700744628906,7.633999824523926 -192.16700744628906,-7.633999824523926 -192.16700744628906,-7.633999824523926 C-192.16700744628906,-7.633999824523926 192.16700744628906,-7.633999824523926 192.16700744628906,-7.633999824523926z"/></g><g opacity="1" transform="matrix(1,0,0,1,256.1239929199219,359.3160095214844)"><path stroke-linecap="round" stroke-linejoin="round" fill-opacity="0" stroke="rgb(255,125,125)" stroke-opacity="1" stroke-width="4" d=" M192.16700744628906,0 C192.16700744628906,0 -192.16700744628906,0 -192.16700744628906,0"/></g><g opacity="1" transform="matrix(1,0,0,1,256.1239929199219,327.84100341796875)"><path fill="url(#__lottie_element_23785)" fill-opacity="1" d=" M192.16700744628906,-12.503000259399414 C192.16700744628906,-12.503000259399414 192.16700744628906,12.503000259399414 192.16700744628906,12.503000259399414 C192.16700744628906,12.503000259399414 -192.16700744628906,12.503000259399414 -192.16700744628906,12.503000259399414 C-192.16700744628906,12.503000259399414 -192.16700744628906,-12.503000259399414 -192.16700744628906,-12.503000259399414 C-192.16700744628906,-12.503000259399414 192.16700744628906,-12.503000259399414 192.16700744628906,-12.503000259399414z"/><path stroke-linecap="round" stroke-linejoin="round" fill-opacity="0" stroke="rgb(114,137,160)" stroke-opacity="1" stroke-width="6" d=" M192.16700744628906,-12.503000259399414 C192.16700744628906,-12.503000259399414 192.16700744628906,12.503000259399414 192.16700744628906,12.503000259399414 C192.16700744628906,12.503000259399414 -192.16700744628906,12.503000259399414 -192.16700744628906,12.503000259399414 C-192.16700744628906,12.503000259399414 -192.16700744628906,-12.503000259399414 -192.16700744628906,-12.503000259399414 C-192.16700744628906,-12.503000259399414 192.16700744628906,-12.503000259399414 192.16700744628906,-12.503000259399414z"/></g><g opacity="1" transform="matrix(1,0,0,1,256.1239929199219,340.3450012207031)"><path stroke-linecap="round" stroke-linejoin="round" fill-opacity="0" stroke="rgb(9,9,9)" stroke-opacity="1" stroke-width="6" d=" M192.16700744628906,0 C192.16700744628906,0 -192.16700744628906,0 -192.16700744628906,0"/></g></g><g opacity="1" transform="matrix(1,0,0,1,0,0)"><g opacity="1" transform="matrix(1,0,0,1,256.1239929199219,403.2239990234375)"><path fill="rgb(250,56,46)" fill-opacity="1" d=" M192.16700744628906,-7.633999824523926 C192.16700744628906,-7.633999824523926 192.16700744628906,7.633999824523926 192.16700744628906,7.633999824523926 C192.16700744628906,7.633999824523926 -192.16700744628906,7.633999824523926 -192.16700744628906,7.633999824523926 C-192.16700744628906,7.633999824523926 -192.16700744628906,-7.633999824523926 -192.16700744628906,-7.633999824523926 C-192.16700744628906,-7.633999824523926 192.16700744628906,-7.633999824523926 192.16700744628906,-7.633999824523926z"/><path stroke-linecap="round" stroke-linejoin="round" fill-opacity="0" stroke="rgb(81,16,16)" stroke-opacity="1" stroke-width="6" d=" M192.16700744628906,-7.633999824523926 C192.16700744628906,-7.633999824523926 192.16700744628906,7.633999824523926 192.16700744628906,7.633999824523926 C192.16700744628906,7.633999824523926 -192.16700744628906,7.633999824523926 -192.16700744628906,7.633999824523926 C-192.16700744628906,7.633999824523926 -192.16700744628906,-7.633999824523926 -192.16700744628906,-7.633999824523926 C-192.16700744628906,-7.633999824523926 192.16700744628906,-7.633999824523926 192.16700744628906,-7.633999824523926z"/></g><g opacity="1" transform="matrix(1,0,0,1,256.1239929199219,416.9159851074219)"><path stroke-linecap="round" stroke-linejoin="round" fill-opacity="0" stroke="rgb(255,125,125)" stroke-opacity="1" stroke-width="4" d=" M192.16700744628906,0 C192.16700744628906,0 -192.16700744628906,0 -192.16700744628906,0"/></g><g opacity="1" transform="matrix(1,0,0,1,256.1239929199219,385.4410095214844)"><path fill="url(#__lottie_element_23786)" fill-opacity="1" d=" M192.16700744628906,-12.503000259399414 C192.16700744628906,-12.503000259399414 192.16700744628906,12.503000259399414 192.16700744628906,12.503000259399414 C192.16700744628906,12.503000259399414 -192.16700744628906,12.503000259399414 -192.16700744628906,12.503000259399414 C-192.16700744628906,12.503000259399414 -192.16700744628906,-12.503000259399414 -192.16700744628906,-12.503000259399414 C-192.16700744628906,-12.503000259399414 192.16700744628906,-12.503000259399414 192.16700744628906,-12.503000259399414z"/><path stroke-linecap="round" stroke-linejoin="round" fill-opacity="0" stroke="rgb(114,137,160)" stroke-opacity="1" stroke-width="6" d=" M192.16700744628906,-12.503000259399414 C192.16700744628906,-12.503000259399414 192.16700744628906,12.503000259399414 192.16700744628906,12.503000259399414 C192.16700744628906,12.503000259399414 -192.16700744628906,12.503000259399414 -192.16700744628906,12.503000259399414 C-192.16700744628906,12.503000259399414 -192.16700744628906,-12.503000259399414 -192.16700744628906,-12.503000259399414 C-192.16700744628906,-12.503000259399414 192.16700744628906,-12.503000259399414 192.16700744628906,-12.503000259399414z"/></g><g opacity="1" transform="matrix(1,0,0,1,256.1239929199219,397.9440002441406)"><path stroke-linecap="round" stroke-linejoin="round" fill-opacity="0" stroke="rgb(9,9,9)" stroke-opacity="1" stroke-width="6" d=" M192.16700744628906,0 C192.16700744628906,0 -192.16700744628906,0 -192.16700744628906,0"/></g></g></g><g style="display: block;" transform="matrix(1,0,0,1,0,0)" opacity="1"><g opacity="1" transform="matrix(1,0,0,1,256.989013671875,203.10499572753906)"><path fill="rgb(255,125,125)" fill-opacity="1" d=" M211.06300354003906,39.525001525878906 C211.06300354003906,39.525001525878906 -211.06300354003906,39.525001525878906 -211.06300354003906,39.525001525878906 C-211.06300354003906,39.525001525878906 -211.06300354003906,-18.329999923706055 -211.06300354003906,-18.329999923706055 C-211.06300354003906,-30.035999298095703 -201.57400512695312,-39.525001525878906 -189.8679962158203,-39.525001525878906 C-189.8679962158203,-39.525001525878906 189.8679962158203,-39.525001525878906 189.8679962158203,-39.525001525878906 C201.57400512695312,-39.525001525878906 211.06300354003906,-30.035999298095703 211.06300354003906,-18.329999923706055 C211.06300354003906,-18.329999923706055 211.06300354003906,39.525001525878906 211.06300354003906,39.525001525878906z"/><path stroke-linecap="round" stroke-linejoin="round" fill-opacity="0" stroke="rgb(165,12,12)" stroke-opacity="1" stroke-width="8" d=" M211.06300354003906,39.525001525878906 C211.06300354003906,39.525001525878906 -211.06300354003906,39.525001525878906 -211.06300354003906,39.525001525878906 C-211.06300354003906,39.525001525878906 -211.06300354003906,-18.329999923706055 -211.06300354003906,-18.329999923706055 C-211.06300354003906,-30.035999298095703 -201.57400512695312,-39.525001525878906 -189.8679962158203,-39.525001525878906 C-189.8679962158203,-39.525001525878906 189.8679962158203,-39.525001525878906 189.8679962158203,-39.525001525878906 C201.57400512695312,-39.525001525878906 211.06300354003906,-30.035999298095703 211.06300354003906,-18.329999923706055 C211.06300354003906,-18.329999923706055 211.06300354003906,39.525001525878906 211.06300354003906,39.525001525878906z"/></g><g opacity="1" transform="matrix(1,0,0,1,256.989013671875,203.10499572753906)"><path fill="rgb(251,56,46)" fill-opacity="1" d=" M-199.06300354003906,27.524999618530273 C-199.06300354003906,27.524999618530273 -199.06300354003906,-18.329999923706055 -199.06300354003906,-18.329999923706055 C-199.06300354003906,-23.399999618530273 -194.93800354003906,-27.524999618530273 -189.8679962158203,-27.524999618530273 C-189.8679962158203,-27.524999618530273 189.8679962158203,-27.524999618530273 189.8679962158203,-27.524999618530273 C194.93800354003906,-27.524999618530273 199.06300354003906,-23.399999618530273 199.06300354003906,-18.329999923706055 C199.06300354003906,-18.329999923706055 199.06300354003906,27.524999618530273 199.06300354003906,27.524999618530273 C199.06300354003906,27.524999618530273 -199.06300354003906,27.524999618530273 -199.06300354003906,27.524999618530273z"/></g><g opacity="1" transform="matrix(1,0,0,1,255.0240020751953,242.63099670410156)"><path stroke-linecap="round" stroke-linejoin="round" fill-opacity="0" stroke="rgb(81,16,16)" stroke-opacity="1" stroke-width="8" d=" M207.13499450683594,0 C207.13499450683594,0 -207.13499450683594,0 -207.13499450683594,0"/></g></g><g style="display: block;" transform="matrix(1,0,0,1,0,0)" opacity="1"><g opacity="1" transform="matrix(1,0,0,1,0,0)"><g opacity="1" transform="matrix(1,0,0,1,256.989013671875,268.947998046875)"><path fill="rgb(27,11,11)" fill-opacity="1" d=" M30.031999588012695,-31.05500030517578 C30.031999588012695,-31.05500030517578 -30.031999588012695,-31.05500030517578 -30.031999588012695,-31.05500030517578 C-33.400001525878906,-31.05500030517578 -36.13100051879883,-28.325000762939453 -36.13100051879883,-24.957000732421875 C-36.13100051879883,-24.957000732421875 -36.13100051879883,24.957000732421875 -36.13100051879883,24.957000732421875 C-36.13100051879883,28.325000762939453 -33.400001525878906,31.05500030517578 -30.031999588012695,31.05500030517578 C-30.031999588012695,31.05500030517578 30.031999588012695,31.05500030517578 30.031999588012695,31.05500030517578 C33.400001525878906,31.05500030517578 36.13100051879883,28.325000762939453 36.13100051879883,24.957000732421875 C36.13100051879883,24.957000732421875 36.13100051879883,-24.957000732421875 36.13100051879883,-24.957000732421875 C36.13100051879883,-28.325000762939453 33.400001525878906,-31.05500030517578 30.031999588012695,-31.05500030517578z"/></g><g opacity="1" transform="matrix(1,0,0,1,256.989013671875,256.2720031738281)"><path fill="rgb(160,147,154)" fill-opacity="1" d=" M29.326000213623047,-33.41600036621094 C29.326000213623047,-33.41600036621094 -29.326000213623047,-33.41600036621094 -29.326000213623047,-33.41600036621094 C-31.797000885009766,-33.41600036621094 -33.79999923706055,-31.499000549316406 -33.79999923706055,-29.132999420166016 C-33.79999923706055,-29.132999420166016 -33.79999923706055,29.132999420166016 -33.79999923706055,29.132999420166016 C-33.79999923706055,31.499000549316406 -31.797000885009766,33.41600036621094 -29.326000213623047,33.41600036621094 C-29.326000213623047,33.41600036621094 29.326000213623047,33.41600036621094 29.326000213623047,33.41600036621094 C31.797000885009766,33.41600036621094 33.79999923706055,31.499000549316406 33.79999923706055,29.132999420166016 C33.79999923706055,29.132999420166016 33.79999923706055,-29.132999420166016 33.79999923706055,-29.132999420166016 C33.79999923706055,-31.499000549316406 31.797000885009766,-33.41600036621094 29.326000213623047,-33.41600036621094z"/><path stroke-linecap="round" stroke-linejoin="round" fill-opacity="0" stroke="rgb(77,87,102)" stroke-opacity="1" stroke-width="8" d=" M29.326000213623047,-33.41600036621094 C29.326000213623047,-33.41600036621094 -29.326000213623047,-33.41600036621094 -29.326000213623047,-33.41600036621094 C-31.797000885009766,-33.41600036621094 -33.79999923706055,-31.499000549316406 -33.79999923706055,-29.132999420166016 C-33.79999923706055,-29.132999420166016 -33.79999923706055,29.132999420166016 -33.79999923706055,29.132999420166016 C-33.79999923706055,31.499000549316406 -31.797000885009766,33.41600036621094 -29.326000213623047,33.41600036621094 C-29.326000213623047,33.41600036621094 29.326000213623047,33.41600036621094 29.326000213623047,33.41600036621094 C31.797000885009766,33.41600036621094 33.79999923706055,31.499000549316406 33.79999923706055,29.132999420166016 C33.79999923706055,29.132999420166016 33.79999923706055,-29.132999420166016 33.79999923706055,-29.132999420166016 C33.79999923706055,-31.499000549316406 31.797000885009766,-33.41600036621094 29.326000213623047,-33.41600036621094z"/></g><g opacity="1" transform="matrix(1,0,0,1,288.552001953125,256.2720031738281)"><path stroke-linecap="round" stroke-linejoin="round" fill-opacity="0" stroke="rgb(218,229,239)" stroke-opacity="1" stroke-width="8" d=" M-2.236999988555908,33.41600036621094 C0.23399999737739563,33.41600036621094 2.236999988555908,31.499000549316406 2.236999988555908,29.132999420166016 C2.236999988555908,29.132999420166016 2.236999988555908,-29.132999420166016 2.236999988555908,-29.132999420166016 C2.236999988555908,-31.499000549316406 0.23399999737739563,-33.41600036621094 -2.236999988555908,-33.41600036621094"/></g><g opacity="1" transform="matrix(1,0,0,1,256.989013671875,244.9709930419922)"><path fill="rgb(160,147,154)" fill-opacity="1" d=" M17.333999633789062,-28.197999954223633 C17.333999633789062,-28.197999954223633 17.333999633789062,28.197999954223633 17.333999633789062,28.197999954223633 C17.333999633789062,28.197999954223633 -17.333999633789062,28.197999954223633 -17.333999633789062,28.197999954223633 C-17.333999633789062,28.197999954223633 -17.333999633789062,-28.197999954223633 -17.333999633789062,-28.197999954223633 C-17.333999633789062,-28.197999954223633 17.333999633789062,-28.197999954223633 17.333999633789062,-28.197999954223633z"/><path stroke-linecap="round" stroke-linejoin="round" fill-opacity="0" stroke="rgb(77,87,102)" stroke-opacity="1" stroke-width="8" d=" M17.333999633789062,-28.197999954223633 C17.333999633789062,-28.197999954223633 17.333999633789062,28.197999954223633 17.333999633789062,28.197999954223633 C17.333999633789062,28.197999954223633 -17.333999633789062,28.197999954223633 -17.333999633789062,28.197999954223633 C-17.333999633789062,28.197999954223633 -17.333999633789062,-28.197999954223633 -17.333999633789062,-28.197999954223633 C-17.333999633789062,-28.197999954223633 17.333999633789062,-28.197999954223633 17.333999633789062,-28.197999954223633z"/></g></g><g opacity="1" transform="matrix(1,0,0,1,0,0)"><g opacity="1" transform="matrix(1,0,0,1,256.989013671875,256.2720031738281)"><path fill="rgb(160,147,154)" fill-opacity="1" d=" M29.326000213623047,-33.41600036621094 C29.326000213623047,-33.41600036621094 17.333999633789062,-33.41600036621094 17.333999633789062,-33.41600036621094 C17.333999633789062,-33.41600036621094 17.333999633789062,14.048999786376953 17.333999633789062,14.048999786376953 C17.333999633789062,15.621999740600586 16.000999450683594,16.89699935913086 14.357999801635742,16.89699935913086 C14.357999801635742,16.89699935913086 -14.357999801635742,16.89699935913086 -14.357999801635742,16.89699935913086 C-16.000999450683594,16.89699935913086 -17.333999633789062,15.621999740600586 -17.333999633789062,14.048999786376953 C-17.333999633789062,14.048999786376953 -17.333999633789062,-33.41600036621094 -17.333999633789062,-33.41600036621094 C-17.333999633789062,-33.41600036621094 -29.326000213623047,-33.41600036621094 -29.326000213623047,-33.41600036621094 C-31.797000885009766,-33.41600036621094 -33.79999923706055,-31.499000549316406 -33.79999923706055,-29.132999420166016 C-33.79999923706055,-29.132999420166016 -33.79999923706055,29.132999420166016 -33.79999923706055,29.132999420166016 C-33.79999923706055,31.499000549316406 -31.797000885009766,33.41600036621094 -29.326000213623047,33.41600036621094 C-29.326000213623047,33.41600036621094 29.326000213623047,33.41600036621094 29.326000213623047,33.41600036621094 C31.797000885009766,33.41600036621094 33.79999923706055,31.499000549316406 33.79999923706055,29.132999420166016 C33.79999923706055,29.132999420166016 33.79999923706055,-29.132999420166016 33.79999923706055,-29.132999420166016 C33.79999923706055,-31.499000549316406 31.797000885009766,-33.41600036621094 29.326000213623047,-33.41600036621094z"/><path stroke-linecap="round" stroke-linejoin="round" fill-opacity="0" stroke="rgb(77,87,102)" stroke-opacity="1" stroke-width="8" d=" M29.326000213623047,-33.41600036621094 C29.326000213623047,-33.41600036621094 17.333999633789062,-33.41600036621094 17.333999633789062,-33.41600036621094 C17.333999633789062,-33.41600036621094 17.333999633789062,14.048999786376953 17.333999633789062,14.048999786376953 C17.333999633789062,15.621999740600586 16.000999450683594,16.89699935913086 14.357999801635742,16.89699935913086 C14.357999801635742,16.89699935913086 -14.357999801635742,16.89699935913086 -14.357999801635742,16.89699935913086 C-16.000999450683594,16.89699935913086 -17.333999633789062,15.621999740600586 -17.333999633789062,14.048999786376953 C-17.333999633789062,14.048999786376953 -17.333999633789062,-33.41600036621094 -17.333999633789062,-33.41600036621094 C-17.333999633789062,-33.41600036621094 -29.326000213623047,-33.41600036621094 -29.326000213623047,-33.41600036621094 C-31.797000885009766,-33.41600036621094 -33.79999923706055,-31.499000549316406 -33.79999923706055,-29.132999420166016 C-33.79999923706055,-29.132999420166016 -33.79999923706055,29.132999420166016 -33.79999923706055,29.132999420166016 C-33.79999923706055,31.499000549316406 -31.797000885009766,33.41600036621094 -29.326000213623047,33.41600036621094 C-29.326000213623047,33.41600036621094 29.326000213623047,33.41600036621094 29.326000213623047,33.41600036621094 C31.797000885009766,33.41600036621094 33.79999923706055,31.499000549316406 33.79999923706055,29.132999420166016 C33.79999923706055,29.132999420166016 33.79999923706055,-29.132999420166016 33.79999923706055,-29.132999420166016 C33.79999923706055,-31.499000549316406 31.797000885009766,-33.41600036621094 29.326000213623047,-33.41600036621094z"/></g><g opacity="1" transform="matrix(1,0,0,1,286.1730041503906,256.2720031738281)"><path stroke-linecap="round" stroke-linejoin="round" fill-opacity="0" stroke="rgb(218,229,239)" stroke-opacity="1" stroke-width="8" d=" M0.1420000046491623,33.41600036621094 C2.61299991607666,33.41600036621094 4.616000175476074,31.499000549316406 4.616000175476074,29.132999420166016 C4.616000175476074,29.132999420166016 4.616000175476074,-29.132999420166016 4.616000175476074,-29.132999420166016 C4.616000175476074,-31.499000549316406 2.61299991607666,-33.41600036621094 0.1420000046491623,-33.41600036621094 C0.1420000046491623,-33.41600036621094 -4.616000175476074,-33.41600036621094 -4.616000175476074,-33.41600036621094"/></g><g opacity="1" transform="matrix(1,0,0,1,231.1840057373047,222.85499572753906)"><path stroke-linecap="round" stroke-linejoin="round" fill-opacity="0" stroke="rgb(218,229,239)" stroke-opacity="1" stroke-width="8" d=" M1.7920000553131104,0 C1.7920000553131104,0 -1.7920000553131104,0 -1.7920000553131104,0"/></g><g opacity="1" transform="matrix(1,0,0,1,252.68299865722656,279.3160095214844)"><path stroke-linecap="round" stroke-linejoin="round" fill-opacity="0" stroke="rgb(218,229,239)" stroke-opacity="1" stroke-width="8" d=" M21.639999389648438,0 C21.639999389648438,0 -21.639999389648438,0 -21.639999389648438,0"/></g></g></g><g style="display: block;" transform="matrix(1,0,0,1,0,0)" opacity="1"><g opacity="1" transform="matrix(1,0,0,1,256.989013671875,211.1699981689453)"><path fill="rgb(160,147,154)" fill-opacity="1" d=" M29.326000213623047,-11.6850004196167 C29.326000213623047,-11.6850004196167 -29.326000213623047,-11.6850004196167 -29.326000213623047,-11.6850004196167 C-31.797000885009766,-11.6850004196167 -33.79999923706055,-9.767999649047852 -33.79999923706055,-7.4019999504089355 C-33.79999923706055,-7.4019999504089355 -33.79999923706055,7.4019999504089355 -33.79999923706055,7.4019999504089355 C-33.79999923706055,9.767999649047852 -31.797000885009766,11.6850004196167 -29.326000213623047,11.6850004196167 C-29.326000213623047,11.6850004196167 -17.333999633789062,11.6850004196167 -17.333999633789062,11.6850004196167 C-17.333999633789062,11.6850004196167 -17.333999633789062,8.451000213623047 -17.333999633789062,8.451000213623047 C-17.333999633789062,6.877999782562256 -16.000999450683594,5.603000164031982 -14.357999801635742,5.603000164031982 C-14.357999801635742,5.603000164031982 14.357999801635742,5.603000164031982 14.357999801635742,5.603000164031982 C16.000999450683594,5.603000164031982 17.333999633789062,6.877999782562256 17.333999633789062,8.451000213623047 C17.333999633789062,8.451000213623047 17.333999633789062,11.6850004196167 17.333999633789062,11.6850004196167 C17.333999633789062,11.6850004196167 29.326000213623047,11.6850004196167 29.326000213623047,11.6850004196167 C31.797000885009766,11.6850004196167 33.79999923706055,9.767999649047852 33.79999923706055,7.4019999504089355 C33.79999923706055,7.4019999504089355 33.79999923706055,-7.4019999504089355 33.79999923706055,-7.4019999504089355 C33.79999923706055,-9.767999649047852 31.797000885009766,-11.6850004196167 29.326000213623047,-11.6850004196167z"/><path stroke-linecap="round" stroke-linejoin="round" fill-opacity="0" stroke="rgb(77,87,102)" stroke-opacity="1" stroke-width="8" d=" M29.326000213623047,-11.6850004196167 C29.326000213623047,-11.6850004196167 -29.326000213623047,-11.6850004196167 -29.326000213623047,-11.6850004196167 C-31.797000885009766,-11.6850004196167 -33.79999923706055,-9.767999649047852 -33.79999923706055,-7.4019999504089355 C-33.79999923706055,-7.4019999504089355 -33.79999923706055,7.4019999504089355 -33.79999923706055,7.4019999504089355 C-33.79999923706055,9.767999649047852 -31.797000885009766,11.6850004196167 -29.326000213623047,11.6850004196167 C-29.326000213623047,11.6850004196167 -17.333999633789062,11.6850004196167 -17.333999633789062,11.6850004196167 C-17.333999633789062,11.6850004196167 -17.333999633789062,8.451000213623047 -17.333999633789062,8.451000213623047 C-17.333999633789062,6.877999782562256 -16.000999450683594,5.603000164031982 -14.357999801635742,5.603000164031982 C-14.357999801635742,5.603000164031982 14.357999801635742,5.603000164031982 14.357999801635742,5.603000164031982 C16.000999450683594,5.603000164031982 17.333999633789062,6.877999782562256 17.333999633789062,8.451000213623047 C17.333999633789062,8.451000213623047 17.333999633789062,11.6850004196167 17.333999633789062,11.6850004196167 C17.333999633789062,11.6850004196167 29.326000213623047,11.6850004196167 29.326000213623047,11.6850004196167 C31.797000885009766,11.6850004196167 33.79999923706055,9.767999649047852 33.79999923706055,7.4019999504089355 C33.79999923706055,7.4019999504089355 33.79999923706055,-7.4019999504089355 33.79999923706055,-7.4019999504089355 C33.79999923706055,-9.767999649047852 31.797000885009766,-11.6850004196167 29.326000213623047,-11.6850004196167z"/></g><g opacity="1" transform="matrix(1,0,0,1,259.22601318359375,211.1699981689453)"><path stroke-linecap="round" stroke-linejoin="round" fill-opacity="0" stroke="rgb(218,229,239)" stroke-opacity="1" stroke-width="8" d=" M15.097000122070312,11.6850004196167 C15.097000122070312,11.6850004196167 27.089000701904297,11.6850004196167 27.089000701904297,11.6850004196167 C29.559999465942383,11.6850004196167 31.562999725341797,9.767999649047852 31.562999725341797,7.4019999504089355 C31.562999725341797,7.4019999504089355 31.562999725341797,-7.4019999504089355 31.562999725341797,-7.4019999504089355 C31.562999725341797,-9.767999649047852 29.559999465942383,-11.6850004196167 27.089000701904297,-11.6850004196167 C27.089000701904297,-11.6850004196167 -31.562999725341797,-11.6850004196167 -31.562999725341797,-11.6850004196167"/></g></g></g></svg>