<svg xmlns="http://www.w3.org/2000/svg" xmlns:xlink="http://www.w3.org/1999/xlink" viewBox="0 0 512 512" width="512" height="512" style="width: 100%; height: 100%; transform: translate3d(0,0,0);" preserveAspectRatio="xMidYMid meet"><defs><clipPath id="__lottie_element_14888"><rect width="512" height="512" x="0" y="0"/></clipPath><linearGradient id="__lottie_element_14907" spreadMethod="pad" gradientUnits="userSpaceOnUse" x1="-246" y1="1" x2="243" y2="0"><stop offset="0%" stop-color="rgb(0,0,0)"/><stop offset="25%" stop-color="rgb(0,0,0)"/><stop offset="50%" stop-color="rgb(0,0,0)"/><stop offset="75%" stop-color="rgb(0,0,0)"/><stop offset="100%" stop-color="rgb(0,0,0)"/></linearGradient><mask id="__lottie_element_14909"><path fill="url(#__lottie_element_14908)" d=" M-246.5,-145.5 C-246.5,-139 -246.5,144.218994140625 -246.5,146.593994140625 C-244.71200561523438,146.76499938964844 -241.55099487304688,147.5780029296875 -237.75900268554688,148.50999450683594 C-220.5,152.75 -191.07200622558594,159.75999450683594 -178.26499938964844,161.58399963378906 C-147.25,166 -127.13200378417969,165.62600708007812 -103.76799774169922,164.74600219726562 C-50.75,162.75 -4.125,146.125 27.19499969482422,139.3300018310547 C47.95800018310547,134.8249969482422 68.79000091552734,130.64500427246094 83.74700164794922,128.94000244140625 C106.25,126.375 122.875,126.75 143.25,128.35899353027344 C183.33700561523438,131.52499389648438 217.79400634765625,139.2030029296875 241.43800354003906,147.031005859375 C241.43800354003906,147.09300231933594 241.406005859375,147.09300231933594 241.406005859375,147.06199645996094 C241.406005859375,147.06199645996094 241.406005859375,147.06199645996094 241.406005859375,147.06199645996094 C241.56199645996094,120.56199645996094 241.23399353027344,82.29100036621094 241.25,49.90599822998047 C241.26600646972656,17.08300018310547 241.43699645996094,-15.739999771118164 241.5,-48.5629997253418 C241.56199645996094,-80.91699981689453 241.5,-128.75 241.625,-145.625 C151.281005859375,-172.5 103.15699768066406,-165.1009979248047 78.5,-162.81199645996094 C23.042999267578125,-156.04600524902344 -48.707000732421875,-130.79600524902344 -83.375,-129.06199645996094 C-157.875,-120.1240005493164 -212.75,-139.625 -246.5,-145.5z"/></mask><linearGradient id="__lottie_element_14908" spreadMethod="pad" gradientUnits="userSpaceOnUse" x1="-246" y1="1" x2="243" y2="0"><stop stop-color="rgb(255,255,255)" offset="0%" stop-opacity="1"/><stop stop-color="rgb(255,255,255)" offset="17%" stop-opacity="0.5"/><stop stop-color="rgb(255,255,255)" offset="33%" stop-opacity="0"/><stop stop-color="rgb(255,255,255)" offset="50%" stop-opacity="0"/><stop stop-color="rgb(255,255,255)" offset="66%" stop-opacity="0"/><stop stop-color="rgb(255,255,255)" offset="83%" stop-opacity="0.5"/><stop stop-color="rgb(255,255,255)" offset="100%" stop-opacity="1"/></linearGradient></defs><g clip-path="url(#__lottie_element_14888)"><g style="display: block;" transform="matrix(0.800000011920929,0,0,0.800000011920929,257.9656066894531,250.03680419921875)" opacity="1"><g opacity="1" transform="matrix(1,0,0,1,0,0)"><path fill="rgb(242,242,242)" fill-opacity="1" d=" M-246.5,-145.5 C-246.5,-139 -246.5,144.218994140625 -246.5,146.593994140625 C-244.71200561523438,146.76499938964844 -241.55099487304688,147.5780029296875 -237.75900268554688,148.50999450683594 C-220.5,152.75 -191.07200622558594,159.75999450683594 -178.26499938964844,161.58399963378906 C-147.25,166 -127.13200378417969,165.62600708007812 -103.76799774169922,164.74600219726562 C-50.75,162.75 -4.125,146.125 27.19499969482422,139.3300018310547 C47.95800018310547,134.8249969482422 68.79000091552734,130.64500427246094 83.74700164794922,128.94000244140625 C106.25,126.375 122.875,126.75 143.25,128.35899353027344 C183.33700561523438,131.52499389648438 217.79400634765625,139.2030029296875 241.43800354003906,147.031005859375 C241.43800354003906,147.09300231933594 241.406005859375,147.09300231933594 241.406005859375,147.06199645996094 C241.406005859375,147.06199645996094 241.406005859375,147.06199645996094 241.406005859375,147.06199645996094 C241.56199645996094,120.56199645996094 241.23399353027344,82.29100036621094 241.25,49.90599822998047 C241.26600646972656,17.08300018310547 241.43699645996094,-15.739999771118164 241.5,-48.5629997253418 C241.56199645996094,-80.91699981689453 241.5,-128.75 241.625,-145.625 C151.281005859375,-172.5 103.15699768066406,-165.1009979248047 78.5,-162.81199645996094 C23.042999267578125,-156.04600524902344 -48.707000732421875,-130.79600524902344 -83.375,-129.06199645996094 C-157.875,-120.1240005493164 -212.75,-139.625 -246.5,-145.5z"/></g></g><g style="display: block;" transform="matrix(0.8640000224113464,0,0,0.8640000224113464,256,254.8000030517578)" opacity="1"><g opacity="1" transform="matrix(1,0,0,1,0,0)"><path fill="rgb(20,20,20)" fill-opacity="1" d=" M-111.78099822998047,-106.09400177001953 C-126.15599822998047,-84.09400177001953 -139.5,-65.25 -153.093994140625,-46.0620002746582 C-153.093994140625,-46.0620002746582 -142.56199645996094,-38.375 -142.5,-38.375 C-127.875,-59.5 -112.18800354003906,-83.25 -101.18800354003906,-99.43800354003906 C-101.18800354003906,-99.43800354003906 -111.59300231933594,-106.03199768066406 -111.78099822998047,-106.09400177001953z"/></g><g opacity="1" transform="matrix(1,0,0,1,0,0)"><path fill="rgb(20,20,20)" fill-opacity="1" d=" M-96.125,-96.68800354003906 C-109.5,-76 -122.75,-56.375 -137.68800354003906,-34.78099822998047 C-137.68800354003906,-34.78099822998047 -127.15599822998047,-27.5310001373291 -127.15599822998047,-27.5310001373291 C-112.875,-48.75 -99.75,-68.625 -85.84400177001953,-90.75 C-85.84400177001953,-90.78099822998047 -96.06300354003906,-96.71900177001953 -96.125,-96.68800354003906z"/></g><g opacity="1" transform="matrix(1,0,0,1,0,0)"><path fill="rgb(20,20,20)" fill-opacity="1" d=" M-80.84400177001953,-88.28099822998047 C-92.75,-68.875 -108.25,-44.875 -122.25,-24.2810001373291 C-122.18800354003906,-24.2810001373291 -111.71900177001953,-17.6560001373291 -111.71900177001953,-17.5939998626709 C-97.875,-38.25 -84,-60.625 -70.59400177001953,-82.59400177001953 C-70.59400177001953,-82.53199768066406 -80.65599822998047,-88.21900177001953 -80.84400177001953,-88.28099822998047z"/></g></g><g style="display: block;" transform="matrix(0.8640000224113464,0,0,0.8640000224113464,256,254.8000030517578)" opacity="1"><g opacity="1" transform="matrix(0.47081172466278076,-0.882233738899231,0.882233738899231,0.47081172466278076,0,0)"><path fill="rgb(20,20,20)" fill-opacity="1" d=" M-133.1280059814453,-102.60299682617188 C-144.5800018310547,-81.88500213623047 -158.26499938964844,-57.08399963378906 -168.77699279785156,-36.61399841308594 C-168.6790008544922,-36.507999420166016 -157.06700134277344,-30.94499969482422 -157.06399536132812,-30.88599967956543 C-145.5800018310547,-55.35200119018555 -133.4499969482422,-76.56099700927734 -122.5979995727539,-96.2040023803711 C-122.6500015258789,-96.28099822998047 -132.9720001220703,-102.74500274658203 -133.1280059814453,-102.60299682617188z"/></g><g opacity="1" transform="matrix(0.47081172466278076,-0.882233738899231,0.882233738899231,0.47081172466278076,0,0)"><path fill="rgb(20,20,20)" fill-opacity="1" d=" M-117.88899993896484,-93.1780014038086 C-123.47799682617188,-83.22899627685547 -129.82400512695312,-71.6240005493164 -134.0019989013672,-63.229000091552734 C-133.96099853515625,-63.18199920654297 -122.75800323486328,-57.18899917602539 -122.75800323486328,-57.125999450683594 C-118.45500183105469,-65.71900177001953 -112.00499725341797,-77.66200256347656 -106.89199829101562,-86.94300079345703 C-106.96700286865234,-86.93900299072266 -117.76000213623047,-93.2229995727539 -117.88899993896484,-93.1780014038086z"/></g><g opacity="1" transform="matrix(0.47081172466278076,-0.882233738899231,0.882233738899231,0.47081172466278076,0,1.25)"><path fill="rgb(20,20,20)" fill-opacity="1" d=" M-135.52999877929688,-58.4010009765625 C-140.60400390625,-49.08100128173828 -146.58999633789062,-37.597999572753906 -150.64700317382812,-28.841999053955078 C-150.58099365234375,-28.8799991607666 -138.84800720214844,-22.957000732421875 -138.8520050048828,-23.034000396728516 C-135.3350067138672,-30.711000442504883 -128.72500610351562,-42.88199996948242 -124.12100219726562,-52.387001037597656 C-124.13899993896484,-52.34299850463867 -135.54100036621094,-58.44200134277344 -135.52999877929688,-58.4010009765625z"/></g><g opacity="1" transform="matrix(0.47081172466278076,-0.882233738899231,0.882233738899231,0.47081172466278076,0,0)"><path fill="rgb(20,20,20)" fill-opacity="1" d=" M-101.86100006103516,-83.9739990234375 C-112.87699890136719,-63.0989990234375 -124.45899963378906,-40.19900131225586 -133.72000122070312,-20.128999710083008 C-133.75399780273438,-20.11400032043457 -121.69300079345703,-15.038000106811523 -121.66300201416016,-15.057999610900879 C-114.27799987792969,-31.145000457763672 -100.19100189208984,-59.73899841308594 -90.50199890136719,-78.50599670410156 C-90.48500061035156,-78.52100372314453 -101.85600280761719,-83.9990005493164 -101.86100006103516,-83.9739990234375z"/></g></g><g style="display: block;" transform="matrix(0.8640000224113464,0,0,0.8640000224113464,256,254.8000030517578)" opacity="1"><g opacity="1" transform="matrix(0.47081172466278076,-0.882233738899231,0.882233738899231,0.47081172466278076,0,0)"><path fill="rgb(20,20,20)" fill-opacity="1" d=" M133.37600708007812,8.888999938964844 C126.77799987792969,21.8439998626709 123.48200225830078,29.87299919128418 119.50700378417969,37.50299835205078 C119.51899719238281,37.51300048828125 131.20700073242188,42.9379997253418 131.2100067138672,42.99700164794922 C133.927001953125,37.41400146484375 141.343994140625,22.19099998474121 145.3179931640625,14.135000228881836 C145.26600646972656,14.057999610900879 133.3260040283203,8.892000198364258 133.37600708007812,8.888999938964844z"/></g><g opacity="1" transform="matrix(0.47081172466278076,-0.882233738899231,0.882233738899231,0.47081172466278076,0,0)"><path fill="rgb(20,20,20)" fill-opacity="1" d=" M116.90299987792969,42.6870002746582 C110.30500030517578,55.641998291015625 106.11599731445312,64.50299835205078 102.14099884033203,72.13300323486328 C102.15299987792969,72.14299774169922 113.4000015258789,77.8030014038086 113.40299987792969,77.86199951171875 C116.12000274658203,72.27899932861328 124.63800048828125,56.28300094604492 128.61199951171875,48.22700119018555 C128.55999755859375,48.150001525878906 116.85299682617188,42.689998626708984 116.90299987792969,42.6870002746582z"/></g><g opacity="1" transform="matrix(0.47081172466278076,-0.882233738899231,0.882233738899231,0.47081172466278076,70,0)"><path fill="rgb(20,20,20)" fill-opacity="1" d=" M135.99600219726562,-37.0369987487793 C130.40699768066406,-27.08799934387207 124.62899780273438,-15.618000030517578 120.45099639892578,-7.2230000495910645 C120.49199676513672,-7.176000118255615 131.57400512695312,-1.3760000467300415 131.57400512695312,-1.312999963760376 C135.8769989013672,-9.906000137329102 142.04600524902344,-21.89299964904785 147.15899658203125,-31.173999786376953 C147.08399963378906,-31.170000076293945 136.125,-37.082000732421875 135.99600219726562,-37.0369987487793z"/></g><g opacity="1" transform="matrix(0.47081172466278076,-0.882233738899231,0.882233738899231,0.47081172466278076,70,1.25)"><path fill="rgb(20,20,20)" fill-opacity="1" d=" M118.84300231933594,-2.628000020980835 C113.76899719238281,6.691999912261963 106.85800170898438,19.165000915527344 102.43399810791016,27.76300048828125 C102.5,27.725000381469727 112.81600189208984,33.97999954223633 112.81199645996094,33.90299987792969 C116.7509994506836,26.354000091552734 124.5250015258789,12.180999755859375 129.76499938964844,3.4700000286102295 C129.7469940185547,3.5139999389648438 118.83200073242188,-2.6689999103546143 118.84300231933594,-2.628000020980835z"/></g><g opacity="1" transform="matrix(0.47081172466278076,-0.882233738899231,0.882233738899231,0.47081172466278076,0,0)"><path fill="rgb(20,20,20)" fill-opacity="1" d=" M151.4040069580078,16.916000366210938 C140.76699829101562,38.36800003051758 128.48699951171875,62.3489990234375 118.71099853515625,80.9229965209961 C118.677001953125,80.93800354003906 129.37399291992188,86.7770004272461 129.4040069580078,86.75700378417969 C137.29100036621094,71.677001953125 153.82699584960938,41.599998474121094 162.9510040283203,22.07200050354004 C162.96800231933594,22.05699920654297 151.40899658203125,16.891000747680664 151.4040069580078,16.916000366210938z"/></g></g><g style="display: block;" transform="matrix(0.8640000224113464,0,0,0.8640000224113464,256,254.8000030517578)" opacity="1"><g opacity="1" transform="matrix(1,0,0,1,0,0)"><path fill="rgb(20,20,20)" fill-opacity="1" d=" M89.375,39.1879997253418 C84.25,47.375999450683594 75.1240005493164,61.75 70.56199645996094,69.5 C70.56199645996094,69.5 80.74299621582031,75.23400115966797 80.80500030517578,75.23400115966797 C86.55500030517578,65.73400115966797 94.1240005493164,53.0629997253418 99.81199645996094,45.375 C99.81199645996094,45.375 89.56300354003906,39.25 89.375,39.1879997253418z"/></g><g opacity="1" transform="matrix(1,0,0,1,0,0)"><path fill="rgb(20,20,20)" fill-opacity="1" d=" M104.68800354003906,48.40599822998047 C100.84400177001953,54.21799850463867 91.375,68.75 86.09400177001953,77.625 C86.09400177001953,77.625 96.15599822998047,83.78099822998047 96.15599822998047,83.78099822998047 C101.5,75.5 110.53099822998047,61.78099822998047 115.125,54.65599822998047 C115.125,54.625 104.75,48.375 104.68800354003906,48.40599822998047z"/></g><g opacity="1" transform="matrix(1,0,0,1,0,0)"><path fill="rgb(20,20,20)" fill-opacity="1" d=" M120.3280029296875,57.90599822998047 C114.7969970703125,65.81199645996094 105.875,79.8759994506836 101.28099822998047,86.43800354003906 C101.34300231933594,86.43800354003906 111.65599822998047,92.90699768066406 111.65599822998047,92.96900177001953 C116.84400177001953,85.34400177001953 125.93000030517578,71.2969970703125 130.71099853515625,64.7030029296875 C130.71099853515625,64.76499938964844 120.51599884033203,57.96799850463867 120.3280029296875,57.90599822998047z"/></g><g opacity="1" transform="matrix(1,0,0,1,22.5,-35.625)"><path fill="rgb(20,20,20)" fill-opacity="1" d=" M89.06199645996094,40.28099822998047 C83.93699645996094,48.46900177001953 74.96800231933594,61.75 70.40599822998047,69.5 C70.40599822998047,69.5 80.58599853515625,75.5469970703125 80.64800262451172,75.5469970703125 C86.39800262451172,66.0469970703125 93.96800231933594,54.625999450683594 99.65599822998047,46.9379997253418 C99.65599822998047,46.9379997253418 89.25,40.34299850463867 89.06199645996094,40.28099822998047z"/></g><g opacity="1" transform="matrix(1,0,0,1,22.375,-34.375)"><path fill="rgb(20,20,20)" fill-opacity="1" d=" M104.68800354003906,49.03099822998047 C100.84400177001953,54.84299850463867 90.59300231933594,69.98400115966797 85.78099822998047,77.3280029296875 C85.78099822998047,77.3280029296875 96.15599822998047,83.78099822998047 96.15599822998047,83.78099822998047 C101.75,75.875 110.53099822998047,63.34400177001953 115.125,56.21900177001953 C115.125,56.1879997253418 104.75,49 104.68800354003906,49.03099822998047z"/></g><g opacity="1" transform="matrix(1,0,0,1,22.5,-33.25)"><path fill="rgb(20,20,20)" fill-opacity="1" d=" M120.01599884033203,58.6879997253418 C114.48500061035156,66.59400177001953 105.56300354003906,79.56300354003906 100.96900177001953,86.125 C101.03099822998047,86.125 111.65599822998047,93.06300354003906 111.65599822998047,93.125 C116.84400177001953,85.5 125.77400207519531,73.01599884033203 130.55499267578125,66.4219970703125 C130.55499267578125,66.48400115966797 120.2040023803711,58.75 120.01599884033203,58.6879997253418z"/></g></g><g style="display: block;" transform="matrix(0.8640000224113464,0,0,0.8640000224113464,256,254.8000030517578)" opacity="1"><g opacity="1" transform="matrix(1,0,0,1,0,0)"><path fill="rgb(51,79,150)" fill-opacity="1" d=" M65.25,10.875 C69.01200103759766,1.4110000133514404 77,-37.25 26.374000549316406,-51.85599899291992 C-2.2109999656677246,-60.10300064086914 -54.23699951171875,-44.099998474121094 -62,-30.375 C-73.71099853515625,-9.670000076293945 -75.3270034790039,12.758999824523926 -69.22599792480469,31.075000762939453 C-62.69300079345703,50.68600082397461 -47.3120002746582,65.58100128173828 -26,68.59400177001953 C-5.543000221252441,71.48600006103516 15.222999572753906,63.74100112915039 32.077999114990234,51.422000885009766 C47.45899963378906,40.18000030517578 59.58399963378906,25.128999710083008 65.25,10.875z"/></g><g opacity="1" transform="matrix(1,0,0,1,0,0)"><path fill="rgb(202,53,68)" fill-opacity="1" d=" M24.5,-81.625 C6.5920000076293945,-83.83899688720703 -10.680000305175781,-78.27799987792969 -25.207000732421875,-69.37000274658203 C-42.632999420166016,-58.683998107910156 -56.11000061035156,-43.180999755859375 -62,-30.5 C-73.0780029296875,-6.64900016784668 -62.617000579833984,11.970000267028809 -46.237998962402344,16.961999893188477 C-31.200000762939453,21.545000076293945 -10.5,13 2.375,-10.187999725341797 C10.27299976348877,-24.41200065612793 31.81100082397461,-35.724998474121094 48.61899948120117,-29.253999710083008 C66,-22.562999725341797 68.36799621582031,-2.7170000076293945 65.25,11 C75.61199951171875,-9.28600025177002 75.49400329589844,-35.5369987487793 64.54900360107422,-54.99399948120117 C56.744998931884766,-68.86599731445312 43.4379997253418,-79.28399658203125 24.5,-81.625z"/></g></g><g style="display: block;" transform="matrix(0.800000011920929,0,0,0.800000011920929,257.9656066894531,250.03680419921875)" opacity="0.35000000000000003"><g opacity="1" transform="matrix(1,0,0,1,0,0)"><path fill="url(#__lottie_element_14907)" mask="url(#__lottie_element_14909)" fill-opacity="1" d="M0 0 M-246.5,-145.5 C-246.5,-139 -246.5,144.218994140625 -246.5,146.593994140625 C-244.71200561523438,146.76499938964844 -241.55099487304688,147.5780029296875 -237.75900268554688,148.50999450683594 C-220.5,152.75 -191.07200622558594,159.75999450683594 -178.26499938964844,161.58399963378906 C-147.25,166 -127.13200378417969,165.62600708007812 -103.76799774169922,164.74600219726562 C-50.75,162.75 -4.125,146.125 27.19499969482422,139.3300018310547 C47.95800018310547,134.8249969482422 68.79000091552734,130.64500427246094 83.74700164794922,128.94000244140625 C106.25,126.375 122.875,126.75 143.25,128.35899353027344 C183.33700561523438,131.52499389648438 217.79400634765625,139.2030029296875 241.43800354003906,147.031005859375 C241.43800354003906,147.09300231933594 241.406005859375,147.09300231933594 241.406005859375,147.06199645996094 C241.406005859375,147.06199645996094 241.406005859375,147.06199645996094 241.406005859375,147.06199645996094 C241.56199645996094,120.56199645996094 241.23399353027344,82.29100036621094 241.25,49.90599822998047 C241.26600646972656,17.08300018310547 241.43699645996094,-15.739999771118164 241.5,-48.5629997253418 C241.56199645996094,-80.91699981689453 241.5,-128.75 241.625,-145.625 C151.281005859375,-172.5 103.15699768066406,-165.1009979248047 78.5,-162.81199645996094 C23.042999267578125,-156.04600524902344 -48.707000732421875,-130.79600524902344 -83.375,-129.06199645996094 C-157.875,-120.1240005493164 -212.75,-139.625 -246.5,-145.5z"/></g></g><g style="display: block;" transform="matrix(0.800000011920929,0,0,0.800000011920929,257.9656066894531,250.03680419921875)" opacity="0.15"><g opacity="1" transform="matrix(1,0,0,1,0,0)"><path fill="rgb(255,255,255)" fill-opacity="1" d=" M-246.875,-146 C-246.83700561523438,-139.70399475097656 -246.875,-138 -246.79200744628906,-132.81100463867188 C-237.5,-136.25 -197.25,-114 -124.49600219726562,-114.31099700927734 C-38.992000579833984,-114.6760025024414 39.233001708984375,-153.25 121.70800018310547,-153.39700317382812 C179.75,-153.5 241,-132.25 240.91200256347656,-131.552001953125 C241,-140.5 241.375,-144.625 241.375,-144.625 C241.375,-144.625 179.75,-166.25 122.5,-166 C39.49700164794922,-165.63800048828125 -39.5,-128 -124.25,-126.81199645996094 C-197.0449981689453,-125.79199981689453 -237.75,-149 -246.875,-146z"/></g></g><g style="display: block;" transform="matrix(0.800000011920929,0,0,0.800000011920929,257.9656066894531,250.03680419921875)" opacity="0.15"><g opacity="1" transform="matrix(1,0,0,1,0,0)"><path fill="rgb(0,0,0)" fill-opacity="1" d=" M122.5,112.25 C34,112.25 -36,149.5 -123.5,152 C-140.61700439453125,152.48899841308594 -155.82000732421875,151.3489990234375 -170.41099548339844,149.1280059814453 C-195.23399353027344,145.35000610351562 -218.28900146484375,138.4459991455078 -246,131.125 C-246.25,134.5 -246,141.375 -246,145.125 C-218.5749969482422,153.30599975585938 -195.61700439453125,159.55499267578125 -170.83099365234375,163.0050048828125 C-155.8520050048828,165.08999633789062 -140.20399475097656,166.15199279785156 -122.5,166 C-35,165.25 33.5,126.625 121.75,126.5 C126.26799774169922,126.49400329589844 131.11399841308594,126.59500122070312 136.27699279785156,126.83899688720703 C163.25900268554688,128.11300659179688 198.88099670410156,133.2550048828125 241.375,147 C241.375,147 241.25,134.75 241.5,131.125 C199.093994140625,118.93299865722656 163.16200256347656,113.84500122070312 136.1439971923828,112.58000183105469 C131.30499267578125,112.35399627685547 126.75299835205078,112.25 122.5,112.25z"/></g></g><g style="display: block;" transform="matrix(0.800000011920929,0,0,0.800000011920929,257.9656066894531,250.03680419921875)" opacity="1"><g opacity="1" transform="matrix(1,0,0,1,0,0)"><path stroke-linecap="round" stroke-linejoin="round" fill-opacity="0" stroke="rgb(135,135,135)" stroke-opacity="1" stroke-width="8" d=" M-246.5,-145.5 C-246.5,-139 -246.5,144.218994140625 -246.5,146.593994140625 C-244.71200561523438,146.76499938964844 -241.55099487304688,147.5780029296875 -237.75900268554688,148.50999450683594 C-220.5,152.75 -191.07200622558594,159.75999450683594 -178.26499938964844,161.58399963378906 C-147.25,166 -127.13200378417969,165.62600708007812 -103.76799774169922,164.74600219726562 C-50.75,162.75 -4.125,146.125 27.19499969482422,139.3300018310547 C47.95800018310547,134.8249969482422 68.79000091552734,130.64500427246094 83.74700164794922,128.94000244140625 C106.25,126.375 122.875,126.75 143.25,128.35899353027344 C183.33700561523438,131.52499389648438 217.79400634765625,139.2030029296875 241.43800354003906,147.031005859375 C241.43800354003906,147.09300231933594 241.406005859375,147.09300231933594 241.406005859375,147.06199645996094 C241.406005859375,147.06199645996094 241.406005859375,147.06199645996094 241.406005859375,147.06199645996094 C241.56199645996094,120.56199645996094 241.23399353027344,82.29100036621094 241.25,49.90599822998047 C241.26600646972656,17.08300018310547 241.43699645996094,-15.739999771118164 241.5,-48.5629997253418 C241.56199645996094,-80.91699981689453 241.5,-128.75 241.625,-145.625 C151.281005859375,-172.5 103.15699768066406,-165.1009979248047 78.5,-162.81199645996094 C23.042999267578125,-156.04600524902344 -48.707000732421875,-130.79600524902344 -83.375,-129.06199645996094 C-157.875,-120.1240005493164 -212.75,-139.625 -246.5,-145.5z"/></g></g></g></svg>