<svg xmlns="http://www.w3.org/2000/svg" xmlns:xlink="http://www.w3.org/1999/xlink" viewBox="0 0 512 512" width="512" height="512" style="width: 100%; height: 100%; transform: translate3d(0,0,0);" preserveAspectRatio="xMidYMid meet"><defs><clipPath id="__lottie_element_26238"><rect width="512" height="512" x="0" y="0"/></clipPath><radialGradient id="__lottie_element_26242" spreadMethod="pad" gradientUnits="userSpaceOnUse"><stop/><stop/><stop/></radialGradient><mask id="__lottie_element_26244"><path fill="url(#__lottie_element_26243)"/></mask><radialGradient id="__lottie_element_26243" spreadMethod="pad" gradientUnits="userSpaceOnUse"><stop stop-color="rgb(255,255,255)"/><stop stop-color="rgb(255,255,255)"/><stop stop-color="rgb(255,255,255)"/></radialGradient><radialGradient id="__lottie_element_26248" spreadMethod="pad" gradientUnits="userSpaceOnUse"><stop/><stop/><stop/></radialGradient><mask id="__lottie_element_26250"><path fill="url(#__lottie_element_26249)"/></mask><radialGradient id="__lottie_element_26249" spreadMethod="pad" gradientUnits="userSpaceOnUse"><stop stop-color="rgb(255,255,255)"/><stop stop-color="rgb(255,255,255)"/><stop stop-color="rgb(255,255,255)"/></radialGradient><radialGradient id="__lottie_element_26254" spreadMethod="pad" gradientUnits="userSpaceOnUse"><stop/><stop/><stop/></radialGradient><mask id="__lottie_element_26256"><path fill="url(#__lottie_element_26255)"/></mask><radialGradient id="__lottie_element_26255" spreadMethod="pad" gradientUnits="userSpaceOnUse"><stop stop-color="rgb(255,255,255)"/><stop stop-color="rgb(255,255,255)"/><stop stop-color="rgb(255,255,255)"/></radialGradient><radialGradient id="__lottie_element_26260" spreadMethod="pad" gradientUnits="userSpaceOnUse"><stop/><stop/><stop/></radialGradient><mask id="__lottie_element_26262"><path fill="url(#__lottie_element_26261)"/></mask><radialGradient id="__lottie_element_26261" spreadMethod="pad" gradientUnits="userSpaceOnUse"><stop stop-color="rgb(255,255,255)"/><stop stop-color="rgb(255,255,255)"/><stop stop-color="rgb(255,255,255)"/></radialGradient><radialGradient id="__lottie_element_26266" spreadMethod="pad" gradientUnits="userSpaceOnUse"><stop/><stop/><stop/></radialGradient><mask id="__lottie_element_26268"><path fill="url(#__lottie_element_26267)"/></mask><radialGradient id="__lottie_element_26267" spreadMethod="pad" gradientUnits="userSpaceOnUse"><stop stop-color="rgb(255,255,255)"/><stop stop-color="rgb(255,255,255)"/><stop stop-color="rgb(255,255,255)"/></radialGradient><radialGradient id="__lottie_element_26272" spreadMethod="pad" gradientUnits="userSpaceOnUse"><stop/><stop/><stop/></radialGradient><mask id="__lottie_element_26274"><path fill="url(#__lottie_element_26273)"/></mask><radialGradient id="__lottie_element_26273" spreadMethod="pad" gradientUnits="userSpaceOnUse"><stop stop-color="rgb(255,255,255)"/><stop stop-color="rgb(255,255,255)"/><stop stop-color="rgb(255,255,255)"/></radialGradient><radialGradient id="__lottie_element_26278" spreadMethod="pad" gradientUnits="userSpaceOnUse"><stop/><stop/><stop/></radialGradient><radialGradient id="__lottie_element_26282" spreadMethod="pad" gradientUnits="userSpaceOnUse"><stop/><stop/><stop/></radialGradient><radialGradient id="__lottie_element_26286" spreadMethod="pad" gradientUnits="userSpaceOnUse"><stop/><stop/><stop/></radialGradient><radialGradient id="__lottie_element_26290" spreadMethod="pad" gradientUnits="userSpaceOnUse"><stop/><stop/><stop/></radialGradient><radialGradient id="__lottie_element_26294" spreadMethod="pad" gradientUnits="userSpaceOnUse"><stop/><stop/><stop/></radialGradient><radialGradient id="__lottie_element_26298" spreadMethod="pad" gradientUnits="userSpaceOnUse"><stop/><stop/><stop/></radialGradient><radialGradient id="__lottie_element_26302" spreadMethod="pad" gradientUnits="userSpaceOnUse"><stop/><stop/><stop/></radialGradient><radialGradient id="__lottie_element_26307" spreadMethod="pad" gradientUnits="userSpaceOnUse" cx="0.04100000113248825" cy="2.1389999389648438" r="22.852048517146002" fx="0.04100000113248825" fy="2.1389999389648438"><stop offset="0%" stop-color="rgb(176,255,83)"/><stop offset="50%" stop-color="rgb(159,254,89)"/><stop offset="100%" stop-color="rgb(141,254,95)"/></radialGradient><linearGradient id="__lottie_element_26311" spreadMethod="pad" gradientUnits="userSpaceOnUse" x1="-10.256999969482422" y1="-61.29800033569336" x2="1.0369999408721924" y2="75.64299774169922"><stop offset="0%" stop-color="rgb(119,226,34)"/><stop offset="50%" stop-color="rgb(100,207,27)"/><stop offset="100%" stop-color="rgb(81,188,19)"/></linearGradient><radialGradient id="__lottie_element_26312" spreadMethod="pad" gradientUnits="userSpaceOnUse" cx="72.74299621582031" cy="37.70199966430664" r="49.92312978395137" fx="72.74299621582031" fy="37.70199966430664"><stop offset="0%" stop-color="rgb(171,229,69)" stop-opacity="0.5"/><stop offset="50%" stop-color="rgb(173,231,79)" stop-opacity="0.25"/><stop offset="100%" stop-color="rgb(176,232,89)" stop-opacity="0"/></radialGradient><radialGradient id="__lottie_element_26313" spreadMethod="pad" gradientUnits="userSpaceOnUse" cx="-27.256999969482422" cy="-73.2979965209961" r="46.228204302281775" fx="-27.256999969482422" fy="-73.2979965209961"><stop offset="0%" stop-color="rgb(171,229,69)" stop-opacity="0.5"/><stop offset="50%" stop-color="rgb(173,231,79)" stop-opacity="0.25"/><stop offset="100%" stop-color="rgb(176,232,89)" stop-opacity="0"/></radialGradient><linearGradient id="__lottie_element_26314" spreadMethod="pad" gradientUnits="userSpaceOnUse" x1="-74.03099822998047" y1="-57.79899978637695" x2="-22.14900016784668" y2="18.43600082397461"><stop offset="0%" stop-color="rgb(170,255,115)" stop-opacity="1"/><stop offset="50%" stop-color="rgb(184,255,114)" stop-opacity="0.5"/><stop offset="100%" stop-color="rgb(197,255,113)" stop-opacity="0"/></linearGradient><radialGradient id="__lottie_element_26315" spreadMethod="pad" gradientUnits="userSpaceOnUse" cx="94.96900177001953" cy="28.201000213623047" r="89.12448032260794" fx="94.96900177001953" fy="28.201000213623047"><stop offset="0%" stop-color="rgb(170,255,115)" stop-opacity="1"/><stop offset="50%" stop-color="rgb(184,255,114)" stop-opacity="0.5"/><stop offset="100%" stop-color="rgb(197,255,113)" stop-opacity="0"/></radialGradient><linearGradient id="__lottie_element_26319" spreadMethod="pad" gradientUnits="userSpaceOnUse" x1="77.52400207519531" y1="-62.26100158691406" x2="-25.979999542236328" y2="61.08700180053711"><stop offset="0%" stop-color="rgb(119,226,34)"/><stop offset="50%" stop-color="rgb(100,207,27)"/><stop offset="100%" stop-color="rgb(81,188,19)"/></linearGradient><radialGradient id="__lottie_element_26320" spreadMethod="pad" gradientUnits="userSpaceOnUse" cx="-55.47600173950195" cy="33.73899841308594" r="45.14584619611003" fx="-55.47600173950195" fy="33.73899841308594"><stop offset="0%" stop-color="rgb(171,229,69)" stop-opacity="0.5"/><stop offset="50%" stop-color="rgb(173,231,79)" stop-opacity="0.25"/><stop offset="100%" stop-color="rgb(176,232,89)" stop-opacity="0"/></radialGradient><radialGradient id="__lottie_element_26321" spreadMethod="pad" gradientUnits="userSpaceOnUse" cx="-55.47600173950195" cy="-31.26099967956543" r="38.87461202458185" fx="-55.47600173950195" fy="-31.26099967956543"><stop offset="0%" stop-color="rgb(171,229,69)" stop-opacity="0.5"/><stop offset="50%" stop-color="rgb(173,231,79)" stop-opacity="0.25"/><stop offset="100%" stop-color="rgb(176,232,89)" stop-opacity="0"/></radialGradient><radialGradient id="__lottie_element_26322" spreadMethod="pad" gradientUnits="userSpaceOnUse" cx="70.52400207519531" cy="-53.26100158691406" r="57.538439046000875" fx="70.52400207519531" fy="-53.26100158691406"><stop offset="0%" stop-color="rgb(171,229,69)" stop-opacity="0.5"/><stop offset="50%" stop-color="rgb(173,231,79)" stop-opacity="0.25"/><stop offset="100%" stop-color="rgb(176,232,89)" stop-opacity="0"/></radialGradient><linearGradient id="__lottie_element_26323" spreadMethod="pad" gradientUnits="userSpaceOnUse" x1="-57.47600173950195" y1="76.97100067138672" x2="11.347999572753906" y2="18.736000061035156"><stop offset="0%" stop-color="rgb(170,255,115)" stop-opacity="1"/><stop offset="50%" stop-color="rgb(184,255,114)" stop-opacity="0.5"/><stop offset="100%" stop-color="rgb(197,255,113)" stop-opacity="0"/></linearGradient><radialGradient id="__lottie_element_26324" spreadMethod="pad" gradientUnits="userSpaceOnUse" cx="52.52399826049805" cy="-89.02899932861328" r="87.63352737569336" fx="52.52399826049805" fy="-89.02899932861328"><stop offset="0%" stop-color="rgb(170,255,115)" stop-opacity="1"/><stop offset="50%" stop-color="rgb(183,255,114)" stop-opacity="0.5180000066757202"/><stop offset="100%" stop-color="rgb(195,255,113)" stop-opacity="0.035999998450279236"/></radialGradient><radialGradient id="__lottie_element_26328" spreadMethod="pad" gradientUnits="userSpaceOnUse" cx="-24.99799919128418" cy="-24.216999053955078" r="123.47087163888467" fx="-24.99799919128418" fy="-24.216999053955078"><stop offset="0%" stop-color="rgb(82,157,18)"/><stop offset="50%" stop-color="rgb(100,192,26)"/><stop offset="100%" stop-color="rgb(119,226,34)"/></radialGradient><radialGradient id="__lottie_element_26329" spreadMethod="pad" gradientUnits="userSpaceOnUse" cx="89.00199890136719" cy="-16.216999053955078" r="55.15058877356989" fx="89.00199890136719" fy="-16.216999053955078"><stop offset="0%" stop-color="rgb(152,224,36)" stop-opacity="0.800000011920929"/><stop offset="50%" stop-color="rgb(135,225,35)" stop-opacity="0.4000000059604645"/><stop offset="100%" stop-color="rgb(119,226,34)" stop-opacity="0"/></radialGradient><radialGradient id="__lottie_element_26330" spreadMethod="pad" gradientUnits="userSpaceOnUse" cx="-24.99799919128418" cy="67.78299713134766" r="69.98605954343921" fx="-24.99799919128418" fy="67.78299713134766"><stop offset="0%" stop-color="rgb(152,224,36)" stop-opacity="1"/><stop offset="50%" stop-color="rgb(135,225,35)" stop-opacity="0.5"/><stop offset="100%" stop-color="rgb(119,226,34)" stop-opacity="0"/></radialGradient><linearGradient id="__lottie_element_26331" spreadMethod="pad" gradientUnits="userSpaceOnUse" x1="25.812000274658203" y1="38.358001708984375" x2="40.349998474121094" y2="-49.356998443603516"><stop offset="0%" stop-color="rgb(41,127,0)" stop-opacity="0.5"/><stop offset="50%" stop-color="rgb(41,127,0)" stop-opacity="0.75"/><stop offset="100%" stop-color="rgb(41,127,0)" stop-opacity="1"/></linearGradient><radialGradient id="__lottie_element_26332" spreadMethod="pad" gradientUnits="userSpaceOnUse" cx="22.940000534057617" cy="5.890999794006348" r="41.727652234265065" fx="22.940000534057617" fy="5.890999794006348"><stop offset="1%" stop-color="rgb(170,255,115)" stop-opacity="1"/><stop offset="51%" stop-color="rgb(184,255,114)" stop-opacity="0.5"/><stop offset="100%" stop-color="rgb(197,255,113)" stop-opacity="0"/></radialGradient><linearGradient id="__lottie_element_26333" spreadMethod="pad" gradientUnits="userSpaceOnUse" x1="-57.43600082397461" y1="-9.008999824523926" x2="67.50499725341797" y2="6.874000072479248"><stop offset="1%" stop-color="rgb(170,255,115)" stop-opacity="1"/><stop offset="51%" stop-color="rgb(184,255,114)" stop-opacity="0.5"/><stop offset="100%" stop-color="rgb(197,255,113)" stop-opacity="0"/></linearGradient><linearGradient id="__lottie_element_26337" spreadMethod="pad" gradientUnits="userSpaceOnUse" x1="-26.979000091552734" y1="-76.32599639892578" x2="41.845001220703125" y2="28.49799919128418"><stop offset="0%" stop-color="rgb(117,211,36)"/><stop offset="50%" stop-color="rgb(99,184,27)"/><stop offset="100%" stop-color="rgb(82,157,18)"/></linearGradient><radialGradient id="__lottie_element_26338" spreadMethod="pad" gradientUnits="userSpaceOnUse" cx="24.141000747680664" cy="-71.87200164794922" r="82.98684440192694" fx="24.141000747680664" fy="-71.87200164794922"><stop offset="0%" stop-color="rgb(67,200,21)" stop-opacity="1"/><stop offset="50%" stop-color="rgb(67,200,21)" stop-opacity="0.5"/><stop offset="100%" stop-color="rgb(67,200,21)" stop-opacity="0"/></radialGradient><radialGradient id="__lottie_element_26339" spreadMethod="pad" gradientUnits="userSpaceOnUse" cx="-68.36699676513672" cy="-3.3570001125335693" r="44.69714395857007" fx="-68.36699676513672" fy="-3.3570001125335693"><stop offset="0%" stop-color="rgb(152,224,36)" stop-opacity="1"/><stop offset="50%" stop-color="rgb(135,225,35)" stop-opacity="0.5"/><stop offset="100%" stop-color="rgb(119,226,34)" stop-opacity="0"/></radialGradient><radialGradient id="__lottie_element_26340" spreadMethod="pad" gradientUnits="userSpaceOnUse" cx="-77.45800018310547" cy="-44.608001708984375" r="51.45205053584651" fx="-77.45800018310547" fy="-44.608001708984375"><stop offset="0%" stop-color="rgb(175,239,53)" stop-opacity="1"/><stop offset="50%" stop-color="rgb(147,233,44)" stop-opacity="0.5"/><stop offset="100%" stop-color="rgb(119,226,34)" stop-opacity="0"/></radialGradient><linearGradient id="__lottie_element_26341" spreadMethod="pad" gradientUnits="userSpaceOnUse" x1="-70.05699920654297" y1="-77.80400085449219" x2="13.718999862670898" y2="0.07000000029802322"><stop offset="0%" stop-color="rgb(41,127,0)" stop-opacity="0.5"/><stop offset="50%" stop-color="rgb(41,127,0)" stop-opacity="0.75"/><stop offset="100%" stop-color="rgb(41,127,0)" stop-opacity="1"/></linearGradient><radialGradient id="__lottie_element_26342" spreadMethod="pad" gradientUnits="userSpaceOnUse" cx="-22.38599967956543" cy="9.673999786376953" r="79.2918575642899" fx="-22.38599967956543" fy="9.673999786376953"><stop offset="1%" stop-color="rgb(170,255,115)" stop-opacity="1"/><stop offset="51%" stop-color="rgb(184,255,114)" stop-opacity="0.5"/><stop offset="100%" stop-color="rgb(197,255,113)" stop-opacity="0"/></radialGradient><linearGradient id="__lottie_element_26343" spreadMethod="pad" gradientUnits="userSpaceOnUse" x1="-13.38599967956543" y1="-110.32599639892578" x2="-2.7980000972747803" y2="-55.266998291015625"><stop offset="1%" stop-color="rgb(170,255,115)" stop-opacity="1"/><stop offset="51%" stop-color="rgb(184,255,114)" stop-opacity="0.5"/><stop offset="100%" stop-color="rgb(197,255,113)" stop-opacity="0"/></linearGradient><linearGradient id="__lottie_element_26347" spreadMethod="pad" gradientUnits="userSpaceOnUse" x1="-9.284000396728516" y1="-3.0850000381469727" x2="48.597999572753906" y2="57.62099838256836"><stop offset="0%" stop-color="rgb(118,225,34)"/><stop offset="50%" stop-color="rgb(100,192,26)"/><stop offset="100%" stop-color="rgb(83,159,18)"/></linearGradient></defs><g clip-path="url(#__lottie_element_26238)"><g style="display: block;" transform="matrix(1,0,0,1,0,0)" opacity="1"><g opacity="1" transform="matrix(1,0,0,1,260.21099853515625,359.02899169921875)"><path fill="url(#__lottie_element_26347)" fill-opacity="1" d=" M-12.402000427246094,-108.0260009765625 C-45.21099853515625,-43.02899932861328 -21.211000442504883,73.47000122070312 -0.4020000100135803,105.85600280761719 C6.6570000648498535,110.7969970703125 25.715999603271484,107.9739990234375 28.540000915527344,90.3270034790039 C-1.2100000381469727,54.47100067138672 -23.711000442504883,-38.52899932861328 -12.402000427246094,-108.0260009765625z"/></g><g opacity="0.5" transform="matrix(1,0,0,1,264.39300537109375,359.02899169921875)"><path fill="rgb(41,127,0)" fill-opacity="1" d=" M-16.583999633789062,-108.0260009765625 C-21.47100067138672,-94.11799621582031 -37.39400100708008,-1.0290000438690186 -1.0549999475479126,73.62100219726562 C13.996999740600586,104.54299926757812 -11.407999992370605,91.9739990234375 -17.290000915527344,77.62100219726562 C-15.022000312805176,82.93800354003906 -7.314000129699707,100.59100341796875 -4.584000110626221,105.85600280761719 C2.4749999046325684,110.7969970703125 21.533000946044922,107.9739990234375 24.35700035095215,90.3270034790039 C21.493999481201172,84.24400329589844 1.8509999513626099,57.250999450683594 -8.819000244140625,17.621000289916992 C-23.64299964904785,-37.4379997253418 -15.17199993133545,-96.0260009765625 -16.583999633789062,-108.0260009765625z"/></g><g opacity="1" transform="matrix(1,0,0,1,260.21099853515625,359.02899169921875)"><path stroke-linecap="round" stroke-linejoin="round" fill-opacity="0" stroke="rgb(51,147,0)" stroke-opacity="1" stroke-width="8" d=" M-12.402000427246094,-108.0260009765625 C-45.21099853515625,-43.02899932861328 -21.211000442504883,73.47000122070312 -0.4020000100135803,105.85600280761719 C6.6570000648498535,110.7969970703125 25.715999603271484,107.9739990234375 28.540000915527344,90.3270034790039 C-1.2100000381469727,54.47100067138672 -23.711000442504883,-38.52899932861328 -12.402000427246094,-108.0260009765625z"/></g><g opacity="1" transform="matrix(1,0,0,1,260.21099853515625,359.02899169921875)"><path stroke-linecap="round" stroke-linejoin="round" fill-opacity="0" stroke="rgb(42,109,3)" stroke-opacity="1" stroke-width="8" d=" M0.30799999833106995,106.30400085449219 C7.854000091552734,110.60199737548828 25.805999755859375,107.41200256347656 28.540000915527344,90.3270034790039 C-1.2100000381469727,54.47100067138672 -23.711000442504883,-38.52899932861328 -12.402000427246094,-108.0260009765625"/></g></g><g style="display: block;" transform="matrix(1,0,0,1,0.0005069258040748537,-0.00010993771866196766)" opacity="1"><g opacity="1" transform="matrix(1,0,0,1,146.90499877929688,306.2699890136719)"><path fill="url(#__lottie_element_26337)" fill-opacity="1" d=" M52.90399932861328,59.79199981689453 C20.433000564575195,98.85099792480469 -20.12299919128418,93.12100219726562 -36.507999420166016,69.67400360107422 C-49.44499969482422,51.1619987487793 -44.0369987487793,22.145000457763672 -24.084999084472656,4.27400016784668 C-45.66600036621094,16.736000061035156 -74.48100280761719,14.664999961853027 -91.09600067138672,-12.678999900817871 C-107.08799743652344,-38.99800109863281 -90.4229965209961,-70.552001953125 -65.21399688720703,-81.38500213623047 C-0.3580000102519989,-109.25499725341797 58.558998107910156,-41.79199981689453 88.197998046875,-54.56100082397461 C97.75599670410156,-58.67900085449219 100.7300033569336,-49.198001861572266 92.90399932861328,-44.20800018310547 C60.43299865722656,-23.50200080871582 86.58100128173828,19.281999588012695 52.90399932861328,59.79199981689453z"/><path fill="url(#__lottie_element_26338)" fill-opacity="1" d=" M52.90399932861328,59.79199981689453 C20.433000564575195,98.85099792480469 -20.12299919128418,93.12100219726562 -36.507999420166016,69.67400360107422 C-49.44499969482422,51.1619987487793 -44.0369987487793,22.145000457763672 -24.084999084472656,4.27400016784668 C-45.66600036621094,16.736000061035156 -74.48100280761719,14.664999961853027 -91.09600067138672,-12.678999900817871 C-107.08799743652344,-38.99800109863281 -90.4229965209961,-70.552001953125 -65.21399688720703,-81.38500213623047 C-0.3580000102519989,-109.25499725341797 58.558998107910156,-41.79199981689453 88.197998046875,-54.56100082397461 C97.75599670410156,-58.67900085449219 100.7300033569336,-49.198001861572266 92.90399932861328,-44.20800018310547 C60.43299865722656,-23.50200080871582 86.58100128173828,19.281999588012695 52.90399932861328,59.79199981689453z"/><path fill="url(#__lottie_element_26339)" fill-opacity="1" d=" M52.90399932861328,59.79199981689453 C20.433000564575195,98.85099792480469 -20.12299919128418,93.12100219726562 -36.507999420166016,69.67400360107422 C-49.44499969482422,51.1619987487793 -44.0369987487793,22.145000457763672 -24.084999084472656,4.27400016784668 C-45.66600036621094,16.736000061035156 -74.48100280761719,14.664999961853027 -91.09600067138672,-12.678999900817871 C-107.08799743652344,-38.99800109863281 -90.4229965209961,-70.552001953125 -65.21399688720703,-81.38500213623047 C-0.3580000102519989,-109.25499725341797 58.558998107910156,-41.79199981689453 88.197998046875,-54.56100082397461 C97.75599670410156,-58.67900085449219 100.7300033569336,-49.198001861572266 92.90399932861328,-44.20800018310547 C60.43299865722656,-23.50200080871582 86.58100128173828,19.281999588012695 52.90399932861328,59.79199981689453z"/><path fill="url(#__lottie_element_26340)" fill-opacity="1" d=" M52.90399932861328,59.79199981689453 C20.433000564575195,98.85099792480469 -20.12299919128418,93.12100219726562 -36.507999420166016,69.67400360107422 C-49.44499969482422,51.1619987487793 -44.0369987487793,22.145000457763672 -24.084999084472656,4.27400016784668 C-45.66600036621094,16.736000061035156 -74.48100280761719,14.664999961853027 -91.09600067138672,-12.678999900817871 C-107.08799743652344,-38.99800109863281 -90.4229965209961,-70.552001953125 -65.21399688720703,-81.38500213623047 C-0.3580000102519989,-109.25499725341797 58.558998107910156,-41.79199981689453 88.197998046875,-54.56100082397461 C97.75599670410156,-58.67900085449219 100.7300033569336,-49.198001861572266 92.90399932861328,-44.20800018310547 C60.43299865722656,-23.50200080871582 86.58100128173828,19.281999588012695 52.90399932861328,59.79199981689453z"/></g><g opacity="0.4" transform="matrix(1,0,0,1,157.30499267578125,307.76300048828125)"><path fill="url(#__lottie_element_26341)" fill-opacity="1" d=" M43.68000030517578,58.2400016784668 C12.194000244140625,94.23699951171875 -30.200000762939453,92.06900024414062 -46.584999084472656,68.62200164794922 C-4.7820000648498535,53.85200119018555 1.246000051498413,-19.341999053955078 -34.48500061035156,2.7809998989105225 C-52.058998107910156,17.645999908447266 -82.00599670410156,8.713000297546387 -89.56300354003906,-2.8980000019073486 C-52.95600128173828,14.279000282287598 16.30699920654297,-28.83799934387207 -12.119000434875488,-45.0099983215332 C20.384000778198242,-47.415000915527344 11.529999732971191,-77.2770004272461 -26.20199966430664,-88.05400085449219 C19.011999130249023,-82.25599670410156 52.856998443603516,-42.40700149536133 89.56300354003906,-56.05400085449219 C43.19499969482422,-10.262999534606934 79.89399719238281,16.83799934387207 43.68000030517578,58.2400016784668z"/></g><g opacity="1" transform="matrix(1,0,0,1,0,0)"><g opacity="0.4" transform="matrix(1,0,0,1,179.08599853515625,293.4280090332031)"><path fill="rgb(135,250,88)" fill-opacity="1" d=" M56.917999267578125,-36.624000549316406 C50.7859992980957,-35.23899841308594 -33.54999923706055,0.9810000061988831 -50.417999267578125,15.390000343322754 C-30.183000564575195,5.355999946594238 -27.229000091552734,8.11299991607666 -37.59400177001953,33.624000549316406 C-31.566999435424805,17.583999633789062 5.374000072479248,-13.95199966430664 1.753999948501587,14.166999816894531 C6.210000038146973,-7.054999828338623 31.2189998626709,-29.399999618530273 30.194000244140625,-6.63100004196167 C34.90800094604492,-24.70599937438965 56.457000732421875,-33.970001220703125 56.917999267578125,-36.624000549316406z"/></g><g opacity="0.5" transform="matrix(1,0,0,1,178.82000732421875,274.0469970703125)"><path fill="rgb(135,250,88)" fill-opacity="1" d=" M4.826000213623047,-34.194000244140625 C30.697999954223633,-18.785999298095703 3.630000114440918,3.4790000915527344 -40.8489990234375,-10.520999908447266 C-12.95300006866455,-3.249000072479248 -11.736000061035156,18.871000289916992 -47.611000061035156,14.484999656677246 C-36.1150016784668,18.875 -35.80400085449219,23.865999221801758 -44.981998443603516,28.694000244140625 C-32.32099914550781,19.702999114990234 57.255001068115234,-19.46500015258789 57.930999755859375,-17.64900016784668 C49.84400177001953,-19.875999450683594 16.43199920654297,-28.621000289916992 4.826000213623047,-34.194000244140625z"/></g></g><g opacity="1" transform="matrix(1,0,0,1,0,0)"><g opacity="0.3" transform="matrix(1,0,0,1,175.51100158691406,319.7640075683594)"><path fill="rgb(140,253,94)" fill-opacity="1" d=" M16.457000732421875,-43.185001373291016 C16.22599983215332,-37.47600173950195 -12.062000274658203,37.3129997253418 -16.46500015258789,46.70199966430664 C-14.36299991607666,39.17599868774414 10.70300006866455,-34.32600021362305 11.350000381469727,-42.21900177001953 C11.73900032043457,-46.96500015258789 16.687999725341797,-48.90999984741211 16.457000732421875,-43.185001373291016z"/><path stroke-linecap="round" stroke-linejoin="round" fill-opacity="0" stroke="rgb(140,253,94)" stroke-opacity="1" stroke-width="2" d=" M16.457000732421875,-43.185001373291016 C16.22599983215332,-37.47600173950195 -12.062000274658203,37.3129997253418 -16.46500015258789,46.70199966430664 C-14.36299991607666,39.17599868774414 10.70300006866455,-34.32600021362305 11.350000381469727,-42.21900177001953 C11.73900032043457,-46.96500015258789 16.687999725341797,-48.90999984741211 16.457000732421875,-43.185001373291016z"/></g><g opacity="0.2" transform="matrix(1,0,0,1,143.46600341796875,323.010009765625)"><path fill="rgb(140,253,94)" fill-opacity="1" d=" M12.307000160217285,-26.749000549316406 C12.076000213623047,-21.040000915527344 -7.9120001792907715,20.878000259399414 -12.3149995803833,30.267000198364258 C-10.213000297546387,22.740999221801758 6.552000045776367,-17.889999389648438 7.198999881744385,-25.783000946044922 C7.5879998207092285,-30.52899932861328 12.538000106811523,-32.4739990234375 12.307000160217285,-26.749000549316406z"/><path stroke-linecap="round" stroke-linejoin="round" fill-opacity="0" stroke="rgb(140,253,94)" stroke-opacity="1" stroke-width="2" d=" M12.307000160217285,-26.749000549316406 C12.076000213623047,-21.040000915527344 -7.9120001792907715,20.878000259399414 -12.3149995803833,30.267000198364258 C-10.213000297546387,22.740999221801758 6.552000045776367,-17.889999389648438 7.198999881744385,-25.783000946044922 C7.5879998207092285,-30.52899932861328 12.538000106811523,-32.4739990234375 12.307000160217285,-26.749000549316406z"/></g><g opacity="0.5" transform="matrix(1,0,0,1,148.74200439453125,267.7130126953125)"><path fill="rgb(140,253,94)" fill-opacity="1" d=" M31.295000076293945,10.991000175476074 C15.435999870300293,3.619999885559082 -29.152999877929688,-7.802000045776367 -38.79999923706055,-11.607000350952148 C-31.156999588012695,-9.980999946594238 19.988000869750977,2.2339999675750732 37.0099983215332,6.793000221252441 C41.60900115966797,8.024999618530273 36.4900016784668,13.406000137329102 31.295000076293945,10.991000175476074z"/><path stroke-linecap="round" stroke-linejoin="round" fill-opacity="0" stroke="rgb(140,253,94)" stroke-opacity="1" stroke-width="2" d=" M31.295000076293945,10.991000175476074 C15.435999870300293,3.619999885559082 -29.152999877929688,-7.802000045776367 -38.79999923706055,-11.607000350952148 C-31.156999588012695,-9.980999946594238 19.988000869750977,2.2339999675750732 37.0099983215332,6.793000221252441 C41.60900115966797,8.024999618530273 36.4900016784668,13.406000137329102 31.295000076293945,10.991000175476074z"/></g><g opacity="0.5" transform="matrix(1,0,0,1,126.36499786376953,289.2650146484375)"><path fill="rgb(140,253,94)" fill-opacity="1" d=" M23.496000289916992,5.485000133514404 C4.436999797821045,-0.14800000190734863 -19.55699920654297,-2.0450000762939453 -29.20400047302246,-5.849999904632568 C-21.56100082397461,-4.223999977111816 12.928000450134277,-2.5829999446868896 26.788999557495117,1.5130000114440918 C31.354999542236328,2.861999988555908 28.989999771118164,7.109000205993652 23.496000289916992,5.485000133514404z"/><path stroke-linecap="round" stroke-linejoin="round" fill-opacity="0" stroke="rgb(140,253,94)" stroke-opacity="1" stroke-width="2" d=" M23.496000289916992,5.485000133514404 C4.436999797821045,-0.14800000190734863 -19.55699920654297,-2.0450000762939453 -29.20400047302246,-5.849999904632568 C-21.56100082397461,-4.223999977111816 12.928000450134277,-2.5829999446868896 26.788999557495117,1.5130000114440918 C31.354999542236328,2.861999988555908 28.989999771118164,7.109000205993652 23.496000289916992,5.485000133514404z"/></g></g><g opacity="1" transform="matrix(1,0,0,1,185.0800018310547,282.0169982910156)"><path fill="rgb(141,254,95)" fill-opacity="1" d=" M57.31700134277344,-23.483999252319336 C40.75699996948242,-17.38800048828125 -30.899999618530273,8.03600025177002 -59.57600021362305,27.506999969482422 C-33.137001037597656,3.9200000762939453 44.007999420166016,-25.117000579833984 54.87099838256836,-28.660999298095703 C60.19599914550781,-30.398000717163086 61.72800064086914,-25.107999801635742 57.31700134277344,-23.483999252319336z"/><path stroke-linecap="round" stroke-linejoin="round" fill-opacity="0" stroke="rgb(140,253,94)" stroke-opacity="1" stroke-width="2" d=" M57.31700134277344,-23.483999252319336 C40.75699996948242,-17.38800048828125 -30.899999618530273,8.03600025177002 -59.57600021362305,27.506999969482422 C-33.137001037597656,3.9200000762939453 44.007999420166016,-25.117000579833984 54.87099838256836,-28.660999298095703 C60.19599914550781,-30.398000717163086 61.72800064086914,-25.107999801635742 57.31700134277344,-23.483999252319336z"/></g><g opacity="0.8" transform="matrix(1,0,0,1,142.31300354003906,306.2699890136719)"><path fill="url(#__lottie_element_26342)" fill-opacity="1" d=" M-0.38600000739097595,-7.501999855041504 C-18.73900032043457,1.909999966621399 -65.3280029296875,88.0270004272461 30.84000015258789,81.77999877929688 C5.401000022888184,94.62200164794922 -19.83099937438965,86.96700286865234 -31.916000366210938,69.67400360107422 C-44.85300064086914,51.1619987487793 -39.44499969482422,22.145000457763672 -19.493000030517578,4.27400016784668 C-41.07400131225586,16.736000061035156 -69.88899993896484,14.664999961853027 -86.50399780273438,-12.678999900817871 C-102.49600219726562,-38.99800109863281 -85.83100128173828,-70.552001953125 -60.62200164794922,-81.38500213623047 C4.234000205993652,-109.25499725341797 63.1510009765625,-41.79199981689453 92.79000091552734,-54.56100082397461 C61.26100158691406,-31.50200080871582 2.1429998874664307,-95.19599914550781 -56.856998443603516,-71.9729995727539 C-101.09200286865234,-54.56100082397461 -87.44499969482422,27.32200050354004 -0.38600000739097595,-7.501999855041504z"/><path fill="url(#__lottie_element_26343)" fill-opacity="1" d=" M-0.38600000739097595,-7.501999855041504 C-18.73900032043457,1.909999966621399 -65.3280029296875,88.0270004272461 30.84000015258789,81.77999877929688 C5.401000022888184,94.62200164794922 -19.83099937438965,86.96700286865234 -31.916000366210938,69.67400360107422 C-44.85300064086914,51.1619987487793 -39.44499969482422,22.145000457763672 -19.493000030517578,4.27400016784668 C-41.07400131225586,16.736000061035156 -69.88899993896484,14.664999961853027 -86.50399780273438,-12.678999900817871 C-102.49600219726562,-38.99800109863281 -85.83100128173828,-70.552001953125 -60.62200164794922,-81.38500213623047 C4.234000205993652,-109.25499725341797 63.1510009765625,-41.79199981689453 92.79000091552734,-54.56100082397461 C61.26100158691406,-31.50200080871582 2.1429998874664307,-95.19599914550781 -56.856998443603516,-71.9729995727539 C-101.09200286865234,-54.56100082397461 -87.44499969482422,27.32200050354004 -0.38600000739097595,-7.501999855041504z"/></g><g opacity="1" transform="matrix(1,0,0,1,146.90499877929688,306.2699890136719)"><path stroke-linecap="round" stroke-linejoin="round" fill-opacity="0" stroke="rgb(51,147,0)" stroke-opacity="1" stroke-width="8" d=" M52.90399932861328,59.79199981689453 C20.433000564575195,98.85099792480469 -20.12299919128418,93.12100219726562 -36.507999420166016,69.67400360107422 C-49.44499969482422,51.1619987487793 -44.0369987487793,22.145000457763672 -24.084999084472656,4.27400016784668 C-45.66600036621094,16.736000061035156 -74.48100280761719,14.664999961853027 -91.09600067138672,-12.678999900817871 C-107.08799743652344,-38.99800109863281 -90.4229965209961,-70.552001953125 -65.21399688720703,-81.38500213623047 C-0.3580000102519989,-109.25499725341797 58.558998107910156,-41.79199981689453 88.197998046875,-54.56100082397461 C97.75599670410156,-58.67900085449219 100.7300033569336,-49.198001861572266 92.90399932861328,-44.20800018310547 C60.43299865722656,-23.50200080871582 86.58100128173828,19.281999588012695 52.90399932861328,59.79199981689453z"/></g><g opacity="1" transform="matrix(1,0,0,1,146.90499877929688,306.2699890136719)"><path stroke-linecap="round" stroke-linejoin="round" fill-opacity="0" stroke="rgb(42,109,3)" stroke-opacity="1" stroke-width="8" d=" M97.09400177001953,-49.25199890136719 C96.54100036621094,-47.487998962402344 95.1780014038086,-45.65800094604492 92.90399932861328,-44.20800018310547 C60.43299865722656,-23.50200080871582 86.58100128173828,19.281999588012695 52.90399932861328,59.79199981689453 C52.90399932861328,59.79199981689453 52.90399932861328,59.79199981689453 52.90399932861328,59.79199981689453 C22.06100082397461,96.89199829101562 -16.076000213623047,93.58300018310547 -33.8650016784668,73.06400299072266"/></g></g><g style="display: block;" transform="matrix(1,0,0,1,-0.000055818618420744315,0.0005669515812769532)" opacity="1"><g opacity="1" transform="matrix(1,0,0,1,344.92498779296875,337.1619873046875)"><path fill="url(#__lottie_element_26328)" fill-opacity="1" d=" M64.04299926757812,-64.67500305175781 C98.677001953125,-42.71900177001953 96.76699829101562,-16.746000289916992 89.23799896240234,1.1360000371932983 C81.54499816894531,19.4060001373291 50.12699890136719,27.756000518798828 24.29599952697754,16.19499969482422 C29.618000030517578,27.708999633789062 29.47800064086914,58.39400100708008 13.836999893188477,72.98100280761719 C-5.880000114440918,91.37000274658203 -35.06700134277344,86.23699951171875 -52.12799835205078,67.11399841308594 C-83.97100067138672,31.42300033569336 -70.15899658203125,-52.553001403808594 -89.11499786376953,-70.39399719238281 C-97.11499786376953,-77.9229965209961 -94.77100372314453,-89.27799987792969 -82.05599975585938,-82.15799713134766 C-58.527000427246094,-68.98200225830078 25.22800064086914,-89.28199768066406 64.04299926757812,-64.67500305175781z"/><path fill="url(#__lottie_element_26329)" fill-opacity="1" d=" M64.04299926757812,-64.67500305175781 C98.677001953125,-42.71900177001953 96.76699829101562,-16.746000289916992 89.23799896240234,1.1360000371932983 C81.54499816894531,19.4060001373291 50.12699890136719,27.756000518798828 24.29599952697754,16.19499969482422 C29.618000030517578,27.708999633789062 29.47800064086914,58.39400100708008 13.836999893188477,72.98100280761719 C-5.880000114440918,91.37000274658203 -35.06700134277344,86.23699951171875 -52.12799835205078,67.11399841308594 C-83.97100067138672,31.42300033569336 -70.15899658203125,-52.553001403808594 -89.11499786376953,-70.39399719238281 C-97.11499786376953,-77.9229965209961 -94.77100372314453,-89.27799987792969 -82.05599975585938,-82.15799713134766 C-58.527000427246094,-68.98200225830078 25.22800064086914,-89.28199768066406 64.04299926757812,-64.67500305175781z"/><path fill="url(#__lottie_element_26330)" fill-opacity="1" d=" M64.04299926757812,-64.67500305175781 C98.677001953125,-42.71900177001953 96.76699829101562,-16.746000289916992 89.23799896240234,1.1360000371932983 C81.54499816894531,19.4060001373291 50.12699890136719,27.756000518798828 24.29599952697754,16.19499969482422 C29.618000030517578,27.708999633789062 29.47800064086914,58.39400100708008 13.836999893188477,72.98100280761719 C-5.880000114440918,91.37000274658203 -35.06700134277344,86.23699951171875 -52.12799835205078,67.11399841308594 C-83.97100067138672,31.42300033569336 -70.15899658203125,-52.553001403808594 -89.11499786376953,-70.39399719238281 C-97.11499786376953,-77.9229965209961 -94.77100372314453,-89.27799987792969 -82.05599975585938,-82.15799713134766 C-58.527000427246094,-68.98200225830078 25.22800064086914,-89.28199768066406 64.04299926757812,-64.67500305175781z"/></g><g opacity="0.4" transform="matrix(1,0,0,1,339.74200439453125,337.406005859375)"><path fill="url(#__lottie_element_26331)" fill-opacity="1" d=" M17.009000778198242,3.3610000610351562 C53.22700119018555,12.961000442504883 70.2229995727539,25.402000427246094 90.06700134277344,7.24399995803833 C80.5250015258789,20.847000122070312 53.59600067138672,26.36400032043457 29.009000778198242,16.066999435424805 C34.33100128173828,27.58099937438965 34.6609992980957,58.14899826049805 19.020000457763672,72.73600006103516 C-0.6970000267028809,91.125 -29.884000778198242,85.99199676513672 -46.94499969482422,66.86900329589844 C-79.15599822998047,30.766000747680664 -60.284000396728516,-50.055999755859375 -85.34400177001953,-72.16799926757812 C-91.34400177001953,-77.46199798583984 -90.99099731445312,-80.63899993896484 -87.81500244140625,-84.16799926757812 C-65.80599975585938,-69.79399871826172 -26.670000076293945,-32.74800109863281 17.009000778198242,3.3610000610351562z"/></g><g opacity="1" transform="matrix(1,0,0,1,0,0)"><g opacity="0.4" transform="matrix(1,0,0,1,308.1600036621094,302.5329895019531)"><path fill="rgb(135,250,88)" fill-opacity="1" d=" M-44.35100173950195,-21.176000595092773 C-45.435001373291016,-29.496000289916992 -51.97700119018555,-43.143001556396484 -51.733001708984375,-45.64699935913086 C-46.68899917602539,-40.35300064086914 30.913999557495117,16.41200065612793 53.737998962402344,44.64699935913086 C39.9739990234375,35.46900177001953 15.34000015258789,13.467000007629395 16.70800018310547,36.73500061035156 C11.84000015258789,20.966999053955078 3.8259999752044678,21.41200065612793 2.4140000343322754,38.70600128173828 C2.061000108718872,22.823999404907227 -6.103000164031982,-8.82699966430664 -12.821000099182129,1.5290000438690186 C-12.119999885559082,-6.616000175476074 -17.09000015258789,-16.437000274658203 -20.93899917602539,-9.059000015258789 C-20.76300048828125,-16.59000015258789 -35.125,-30.364999771118164 -44.35100173950195,-21.176000595092773z"/></g><g opacity="0.5" transform="matrix(1,0,0,1,324.7929992675781,298.5989990234375)"><path fill="rgb(135,250,88)" fill-opacity="1" d=" M-12.369999885559082,-39.17499923706055 C-42.50699996948242,-40.0629997253418 -52.48899841308594,-24.281999588012695 -14.984000205993652,-16.41900062561035 C-18.743000030517578,-12.868000030517578 -19.420000076293945,-1.5470000505447388 4.486999988555908,-0.4779999852180481 C-4.563000202178955,4.199999809265137 7.250999927520752,11.211999893188477 26.309999465942383,15.345999717712402 C6.074999809265137,21.72599983215332 26.027000427246094,32.678001403808594 59.48699951171875,32.16899871826172 C49.957000732421875,32.52199935913086 24.49799919128418,35.04600143432617 31.559999465942383,41.67499923706055 C20.90399932861328,34.316001892089844 -62.79199981689453,-36.808998107910156 -64.48699951171875,-38.869998931884766 C-56.652000427246094,-38.86399841308594 -24.204999923706055,-37.04399871826172 -12.369999885559082,-39.17499923706055z"/></g></g><g opacity="1" transform="matrix(1,0,0,1,0,0)"><g opacity="0.2" transform="matrix(1,0,0,1,344.6730041503906,356.010009765625)"><path fill="rgb(140,253,94)" fill-opacity="1" d=" M-5.250999927520752,-27.4950008392334 C-5.39900016784668,-19.312999725341797 -0.3009999990463257,17.482999801635742 5.254000186920166,30.28700065612793 C-0.7900000214576721,11.47700023651123 -3.0460000038146973,-20.625999450683594 -3.128000020980835,-26.082000732421875 C-3.2100000381469727,-31.538000106811523 -5.182000160217285,-31.329999923706055 -5.250999927520752,-27.4950008392334z"/><path stroke-linecap="round" stroke-linejoin="round" fill-opacity="0" stroke="rgb(140,253,94)" stroke-opacity="1" stroke-width="2" d=" M-5.250999927520752,-27.4950008392334 C-5.39900016784668,-19.312999725341797 -0.3009999990463257,17.482999801635742 5.254000186920166,30.28700065612793 C-0.7900000214576721,11.47700023651123 -3.0460000038146973,-20.625999450683594 -3.128000020980835,-26.082000732421875 C-3.2100000381469727,-31.538000106811523 -5.182000160217285,-31.329999923706055 -5.250999927520752,-27.4950008392334z"/></g><g opacity="0.2" transform="matrix(1,0,0,1,311.62799072265625,343.4540100097656)"><path fill="rgb(140,253,94)" fill-opacity="1" d=" M0.11299999803304672,-39.54100036621094 C-2.1570000648498535,-28.707000732421875 -4.821000099182129,24.69099998474121 -0.796999990940094,43.02899932861328 C-3.937000036239624,16.5939998626709 1.25600004196167,-29.88800048828125 2.5339999198913574,-37.15599822998047 C3.812000036239624,-44.42399978637695 1.1770000457763672,-44.61899948120117 0.11299999803304672,-39.54100036621094z"/><path stroke-linecap="round" stroke-linejoin="round" fill-opacity="0" stroke="rgb(140,253,94)" stroke-opacity="1" stroke-width="2" d=" M0.11299999803304672,-39.54100036621094 C-2.1570000648498535,-28.707000732421875 -4.821000099182129,24.69099998474121 -0.796999990940094,43.02899932861328 C-3.937000036239624,16.5939998626709 1.25600004196167,-29.88800048828125 2.5339999198913574,-37.15599822998047 C3.812000036239624,-44.42399978637695 1.1770000457763672,-44.61899948120117 0.11299999803304672,-39.54100036621094z"/></g><g opacity="0.5" transform="matrix(1,0,0,1,349.0459899902344,297.0429992675781)"><path fill="rgb(140,253,94)" fill-opacity="1" d=" M-34.779998779296875,2.2780001163482666 C-29.70400047302246,0.6309999823570251 27.93600082397461,-5.677999973297119 37.58700180053711,-4.86299991607666 C30.312999725341797,-4.267000198364258 -25.87700080871582,2.558000087738037 -33.000999450683594,4.548999786376953 C-37.284000396728516,5.745999813079834 -39.869998931884766,3.930000066757202 -34.779998779296875,2.2780001163482666z"/><path stroke-linecap="round" stroke-linejoin="round" fill-opacity="0" stroke="rgb(140,253,94)" stroke-opacity="1" stroke-width="2" d=" M-34.779998779296875,2.2780001163482666 C-29.70400047302246,0.6309999823570251 27.93600082397461,-5.677999973297119 37.58700180053711,-4.86299991607666 C30.312999725341797,-4.267000198364258 -25.87700080871582,2.558000087738037 -33.000999450683594,4.548999786376953 C-37.284000396728516,5.745999813079834 -39.869998931884766,3.930000066757202 -34.779998779296875,2.2780001163482666z"/></g></g><g opacity="1" transform="matrix(1,0,0,1,307.8500061035156,301.49798583984375)"><path fill="rgb(141,254,95)" fill-opacity="1" d=" M-51.65800094604492,-47.02399826049805 C-35.347999572753906,-35.62099838256836 32.66600036621094,17.03499984741211 55.25400161743164,46.68199920654297 C34.78300094604492,25.506000518798828 -44.40599822998047,-37.37099838256836 -54.5989990234375,-42.013999938964844 C-59.36000061035156,-44.18199920654297 -55.25600051879883,-49.53900146484375 -51.65800094604492,-47.02399826049805z"/><path stroke-linecap="round" stroke-linejoin="round" fill-opacity="0" stroke="rgb(140,253,94)" stroke-opacity="1" stroke-width="2" d=" M-51.65800094604492,-47.02399826049805 C-35.347999572753906,-35.62099838256836 32.66600036621094,17.03499984741211 55.25400161743164,46.68199920654297 C34.78300094604492,25.506000518798828 -44.40599822998047,-37.37099838256836 -54.5989990234375,-42.013999938964844 C-59.36000061035156,-44.18199920654297 -55.25600051879883,-49.53900146484375 -51.65800094604492,-47.02399826049805z"/></g><g opacity="1" transform="matrix(1,0,0,1,0,0)"><g opacity="0.5" transform="matrix(1,0,0,1,342.8500061035156,383.27099609375)"><path fill="url(#__lottie_element_26332)" fill-opacity="1" d=" M27.312000274658203,-29.913999557495117 C23.547000885009766,-32.50199890136719 17.11199951171875,-38.51499938964844 17.11199951171875,-38.51499938964844 C17.11199951171875,-38.51499938964844 36.959999084472656,34.08599853515625 -29.18400001525879,35.25 C-22.099000930786133,41.849998474121094 40.7239990234375,45.85100173950195 27.312000274658203,-29.913999557495117z"/></g><g opacity="0.5" transform="matrix(1,0,0,1,362.3630065917969,306.9530029296875)"><path fill="url(#__lottie_element_26333)" fill-opacity="1" d=" M46.387001037597656,48.28499984741211 C63.327999114990234,40.75600051879883 75.56400299072266,13.696999549865723 52.27000045776367,-14.538000106811523 C20.952999114990234,-52.49800109863281 -47.2599983215332,-29.36199951171875 -77.8479995727539,-45.36199951171875 C-37.37699890136719,-45.59700012207031 11.32800006866455,-57.59700012207031 50.33100128173828,-31.479999542236328 C100.2969970703125,1.9780000448226929 71.79900360107422,49.696998596191406 46.387001037597656,48.28499984741211z"/></g></g><g opacity="1" transform="matrix(1,0,0,1,344.92498779296875,337.1619873046875)"><path stroke-linecap="round" stroke-linejoin="round" fill-opacity="0" stroke="rgb(51,147,0)" stroke-opacity="1" stroke-width="8" d=" M64.04299926757812,-64.67500305175781 C98.677001953125,-42.71900177001953 96.76699829101562,-16.746000289916992 89.23799896240234,1.1360000371932983 C81.54499816894531,19.4060001373291 50.12699890136719,27.756000518798828 24.29599952697754,16.19499969482422 C29.618000030517578,27.708999633789062 29.47800064086914,58.39400100708008 13.836999893188477,72.98100280761719 C-5.880000114440918,91.37000274658203 -35.06700134277344,86.23699951171875 -52.12799835205078,67.11399841308594 C-83.97100067138672,31.42300033569336 -70.15899658203125,-52.553001403808594 -89.11499786376953,-70.39399719238281 C-97.11499786376953,-77.9229965209961 -94.77100372314453,-89.27799987792969 -82.05599975585938,-82.15799713134766 C-58.527000427246094,-68.98200225830078 25.22800064086914,-89.28199768066406 64.04299926757812,-64.67500305175781z"/></g><g opacity="1" transform="matrix(1,0,0,1,344.92498779296875,337.1619873046875)"><path stroke-linecap="round" stroke-linejoin="round" fill-opacity="0" stroke="rgb(42,109,3)" stroke-opacity="1" stroke-width="8" d=" M89.46199798583984,0.5979999899864197 C89.38800048828125,0.777999997138977 89.31300354003906,0.9570000171661377 89.23799896240234,1.1360000371932983 C81.54499816894531,19.4060001373291 50.12699890136719,27.756000518798828 24.29599952697754,16.19499969482422 C29.618000030517578,27.708999633789062 29.47800064086914,58.39400100708008 13.836999893188477,72.98100280761719 C-5.880000114440918,91.37000274658203 -35.06700134277344,86.23699951171875 -52.12799835205078,67.11399841308594 C-83.97100067138672,31.42300033569336 -70.15899658203125,-52.553001403808594 -89.11499786376953,-70.39399719238281 C-97.11499786376953,-77.9229965209961 -94.77100372314453,-89.27799987792969 -82.05599975585938,-82.15799713134766 C-66.05699920654297,-73.197998046875 -22.208999633789062,-79.71800231933594 16.41900062561035,-77.07099914550781"/></g></g><g style="display: block;" transform="matrix(1,0,0,1,0.0003630237770266831,0.00008963226719060913)" opacity="1"><g opacity="1" transform="matrix(1,0,0,1,174.4029998779297,147.20599365234375)"><path fill="url(#__lottie_element_26319)" fill-opacity="1" d=" M-47.53499984741211,55.5620002746582 C-80.47599792480469,40.9739990234375 -104.47599792480469,6.620999813079834 -83.7699966430664,-27.26099967956543 C-69.37300109863281,-50.819000244140625 -32.47600173950195,-52.67300033569336 -6.593999862670898,-35.26100158691406 C-7.534999847412109,-47.96699905395508 -10.888999938964844,-81.01799774169922 21.920000076293945,-97.73799896240234 C47.99399948120117,-111.0260009765625 73.40699768066406,-98.31999969482422 85.64199829101562,-73.37899780273438 C108.21399688720703,-27.365999221801758 56.935001373291016,58.38600158691406 73.40599822998047,94.1510009765625 C77.98200225830078,104.08699798583984 67.27200317382812,107.33399963378906 62.11199951171875,95.56199645996094 C47.053001403808594,61.20899963378906 -12.071000099182129,71.26699829101562 -47.53499984741211,55.5620002746582z"/><path fill="url(#__lottie_element_26320)" fill-opacity="1" d=" M-47.53499984741211,55.5620002746582 C-80.47599792480469,40.9739990234375 -104.47599792480469,6.620999813079834 -83.7699966430664,-27.26099967956543 C-69.37300109863281,-50.819000244140625 -32.47600173950195,-52.67300033569336 -6.593999862670898,-35.26100158691406 C-7.534999847412109,-47.96699905395508 -10.888999938964844,-81.01799774169922 21.920000076293945,-97.73799896240234 C47.99399948120117,-111.0260009765625 73.40699768066406,-98.31999969482422 85.64199829101562,-73.37899780273438 C108.21399688720703,-27.365999221801758 56.935001373291016,58.38600158691406 73.40599822998047,94.1510009765625 C77.98200225830078,104.08699798583984 67.27200317382812,107.33399963378906 62.11199951171875,95.56199645996094 C47.053001403808594,61.20899963378906 -12.071000099182129,71.26699829101562 -47.53499984741211,55.5620002746582z"/><path fill="url(#__lottie_element_26321)" fill-opacity="1" d=" M-47.53499984741211,55.5620002746582 C-80.47599792480469,40.9739990234375 -104.47599792480469,6.620999813079834 -83.7699966430664,-27.26099967956543 C-69.37300109863281,-50.819000244140625 -32.47600173950195,-52.67300033569336 -6.593999862670898,-35.26100158691406 C-7.534999847412109,-47.96699905395508 -10.888999938964844,-81.01799774169922 21.920000076293945,-97.73799896240234 C47.99399948120117,-111.0260009765625 73.40699768066406,-98.31999969482422 85.64199829101562,-73.37899780273438 C108.21399688720703,-27.365999221801758 56.935001373291016,58.38600158691406 73.40599822998047,94.1510009765625 C77.98200225830078,104.08699798583984 67.27200317382812,107.33399963378906 62.11199951171875,95.56199645996094 C47.053001403808594,61.20899963378906 -12.071000099182129,71.26699829101562 -47.53499984741211,55.5620002746582z"/><path fill="url(#__lottie_element_26322)" fill-opacity="1" d=" M-47.53499984741211,55.5620002746582 C-80.47599792480469,40.9739990234375 -104.47599792480469,6.620999813079834 -83.7699966430664,-27.26099967956543 C-69.37300109863281,-50.819000244140625 -32.47600173950195,-52.67300033569336 -6.593999862670898,-35.26100158691406 C-7.534999847412109,-47.96699905395508 -10.888999938964844,-81.01799774169922 21.920000076293945,-97.73799896240234 C47.99399948120117,-111.0260009765625 73.40699768066406,-98.31999969482422 85.64199829101562,-73.37899780273438 C108.21399688720703,-27.365999221801758 56.935001373291016,58.38600158691406 73.40599822998047,94.1510009765625 C77.98200225830078,104.08699798583984 67.27200317382812,107.33399963378906 62.11199951171875,95.56199645996094 C47.053001403808594,61.20899963378906 -12.071000099182129,71.26699829101562 -47.53499984741211,55.5620002746582z"/></g><g opacity="0.2" transform="matrix(1,0,0,1,164.1269989013672,174.5399932861328)"><path fill="rgb(41,127,0)" fill-opacity="1" d=" M-57.08399963378906,17.06999969482422 C-92.88500213623047,-14.281999588012695 -81.37300109863281,-48.04399871826172 -68.88700103759766,-60.707000732421875 C-56.4010009765625,-73.37000274658203 -26.736000061035156,-82.1729965209961 3.447000026702881,-62.125 C30.187999725341797,-15.781999588012695 66.97599792480469,40.93299865722656 81.09400177001953,72.697998046875 C72.62300109863281,79.0510025024414 75.4469985961914,59.99300003051758 57.79999923706055,51.52199935913086 C27.420000076293945,36.939998626708984 -30.357999801635742,40.474998474121094 -57.08399963378906,17.06999969482422z"/></g><g opacity="1" transform="matrix(1,0,0,1,0,0)"><g opacity="0.5" transform="matrix(1,0,0,1,223.87399291992188,164.8350067138672)"><path fill="rgb(140,253,94)" fill-opacity="1" d=" M-6.718999862670898,30.591999053955078 C-5.624000072479248,24.413999557495117 2.6389999389648438,-25.820999145507812 7.229000091552734,-35.479000091552734 C5.020999908447266,-27.729999542236328 -1.843999981880188,25.570999145507812 -3.197000026702881,33.624000549316406 C-3.624000072479248,36.165000915527344 -7.25600004196167,33.62099838256836 -6.718999862670898,30.591999053955078z"/><path stroke-linecap="round" stroke-linejoin="round" fill-opacity="0" stroke="rgb(140,253,94)" stroke-opacity="1" stroke-width="2" d=" M-6.718999862670898,30.591999053955078 C-5.624000072479248,24.413999557495117 2.6389999389648438,-25.820999145507812 7.229000091552734,-35.479000091552734 C5.020999908447266,-27.729999542236328 -1.843999981880188,25.570999145507812 -3.197000026702881,33.624000549316406 C-3.624000072479248,36.165000915527344 -7.25600004196167,33.62099838256836 -6.718999862670898,30.591999053955078z"/></g><g opacity="0.5" transform="matrix(1,0,0,1,168.3939971923828,182.47300720214844)"><path fill="rgb(140,253,94)" fill-opacity="1" d=" M44.44900131225586,7.566999912261963 C38.606998443603516,7.2769999504089355 -33.68600082397461,-3.8589999675750732 -43.68000030517578,-7.660999774932861 C-35.77899932861328,-6.079999923706055 34.895999908447266,2.25600004196167 43.06100082397461,2.390000104904175 C45.85599899291992,2.436000108718872 48.12200164794922,7.75 44.44900131225586,7.566999912261963z"/><path stroke-linecap="round" stroke-linejoin="round" fill-opacity="0" stroke="rgb(140,253,94)" stroke-opacity="1" stroke-width="2" d=" M44.44900131225586,7.566999912261963 C38.606998443603516,7.2769999504089355 -33.68600082397461,-3.8589999675750732 -43.68000030517578,-7.660999774932861 C-35.77899932861328,-6.079999923706055 34.895999908447266,2.25600004196167 43.06100082397461,2.390000104904175 C45.85599899291992,2.436000108718872 48.12200164794922,7.75 44.44900131225586,7.566999912261963z"/></g><g opacity="0.5" transform="matrix(1,0,0,1,197.7689971923828,118.33899688720703)"><path fill="rgb(140,253,94)" fill-opacity="1" d=" M0.8560000061988831,40.6349983215332 C2.1649999618530273,34.89099884033203 3.428999900817871,-29.71500015258789 1.2510000467300415,-40.183998107910156 C1.565999984741211,-32.132999420166016 -1.49399995803833,30.042999267578125 -2.2669999599456787,38.17300033569336 C-2.5269999504089355,40.9109992980957 0.22300000488758087,43.4109992980957 0.8560000061988831,40.6349983215332z"/><path stroke-linecap="round" stroke-linejoin="round" fill-opacity="0" stroke="rgb(140,253,94)" stroke-opacity="1" stroke-width="2" d=" M0.8560000061988831,40.6349983215332 C2.1649999618530273,34.89099884033203 3.428999900817871,-29.71500015258789 1.2510000467300415,-40.183998107910156 C1.565999984741211,-32.132999420166016 -1.49399995803833,30.042999267578125 -2.2669999599456787,38.17300033569336 C-2.5269999504089355,40.9109992980957 0.22300000488758087,43.4109992980957 0.8560000061988831,40.6349983215332z"/></g><g opacity="0.3" transform="matrix(1,0,0,1,166.31199645996094,148.96800231933594)"><path fill="rgb(140,253,94)" fill-opacity="1" d=" M27.18600082397461,8.227999687194824 C21.329999923706055,7.580999851226807 -18.30299949645996,-2.5160000324249268 -27.410999298095703,-8.118000030517578 C-19.944000244140625,-5.089000225067139 17.81999969482422,3.49399995803833 25.93000030517578,4.454999923706055 C28.687999725341797,4.7820000648498535 29.937999725341797,8.531999588012695 27.18600082397461,8.227999687194824z"/><path stroke-linecap="round" stroke-linejoin="round" fill-opacity="0" stroke="rgb(140,253,94)" stroke-opacity="1" stroke-width="2" d=" M27.18600082397461,8.227999687194824 C21.329999923706055,7.580999851226807 -18.30299949645996,-2.5160000324249268 -27.410999298095703,-8.118000030517578 C-19.944000244140625,-5.089000225067139 17.81999969482422,3.49399995803833 25.93000030517578,4.454999923706055 C28.687999725341797,4.7820000648498535 29.937999725341797,8.531999588012695 27.18600082397461,8.227999687194824z"/></g></g><g opacity="1" transform="matrix(1,0,0,1,0,0)"><g opacity="0.4" transform="matrix(1,0,0,1,207.6540069580078,179.79600524902344)"><path fill="rgb(135,250,88)" fill-opacity="1" d=" M36.24300003051758,62.928001403808594 C32.560001373291016,55.74399948120117 -26.20800018310547,-43.6349983215332 -35.24300003051758,-59.428001403808594 C-20.827999114990234,-37.04800033569336 -8.454999923706055,-34.46099853515625 -8.97700023651123,-53.40999984741211 C-10.230999946594238,-25.097999572753906 -3.9519999027252197,-8.156999588012695 6.15500020980835,-26.086999893188477 C4.72599983215332,-10.541999816894531 5.567999839782715,4.021999835968018 15.02299976348877,-8.395000457763672 C13.270999908447266,1.437000036239624 22.743000030517578,34.26599884033203 30.861000061035156,4.265999794006348 C26.625999450683594,22.618999481201172 27.39699935913086,44.45600128173828 36.24300003051758,62.928001403808594z"/></g><g opacity="0.6" transform="matrix(1,0,0,1,200.50999450683594,180.41799926757812)"><path fill="rgb(135,250,88)" fill-opacity="1" d=" M-15.230999946594238,4.0269999504089355 C-8.706999778747559,4.447000026702881 4.328999996185303,5.504000186920166 -11.142000198364258,-8.826000213623047 C-0.09700000286102295,-10.944999694824219 -5.25,-18.368999481201172 -19.524999618530273,-28.281999588012695 C-16.006000518798828,-31.052000045776367 -10.347999572753906,-41.8849983215332 -41.33000183105469,-59.03900146484375 C-31.98200035095215,-54.446998596191406 -24.756000518798828,-53.974998474121094 -30.158000946044922,-63.202999114990234 C-21.18000030517578,-52.07699966430664 44.48899841308594,56.582000732421875 42.827999114990234,62.952999114990234 C34.73899841308594,54.082000732421875 23.98900032043457,25.08300018310547 -1.465999960899353,21.43899917602539 C9.48900032043457,15.583000183105469 -3.937000036239624,8.614999771118164 -15.230999946594238,4.0269999504089355z"/></g></g><g opacity="1" transform="matrix(1,0,0,1,207.9340057373047,182.18800354003906)"><path fill="rgb(141,254,95)" fill-opacity="1" d=" M32.88600158691406,65.24700164794922 C27.937000274658203,43.840999603271484 -21.746000289916992,-37.60599899291992 -36.83100128173828,-63.183998107910156 C-23.17799949645996,-44.61000061035156 31.551000595092773,42.05099868774414 39,63.3120002746582 C40.90999984741211,68.76300048828125 33.97800064086914,69.96900177001953 32.88600158691406,65.24700164794922z"/><path stroke-linecap="round" stroke-linejoin="round" fill-opacity="0" stroke="rgb(140,253,94)" stroke-opacity="1" stroke-width="2" d=" M32.88600158691406,65.24700164794922 C27.937000274658203,43.840999603271484 -21.746000289916992,-37.60599899291992 -36.83100128173828,-63.183998107910156 C-23.17799949645996,-44.61000061035156 31.551000595092773,42.05099868774414 39,63.3120002746582 C40.90999984741211,68.76300048828125 33.97800064086914,69.96900177001953 32.88600158691406,65.24700164794922z"/></g><g opacity="1" transform="matrix(1,0,0,1,174.4029998779297,137.97300720214844)"><path fill="url(#__lottie_element_26323)" fill-opacity="1" d=" M-47.53499984741211,64.79499816894531 C-80.47599792480469,50.207000732421875 -104.47599792480469,15.852999687194824 -83.7699966430664,-18.02899932861328 C-69.37300109863281,-41.58700180053711 -32.47600173950195,-43.441001892089844 -6.593999862670898,-26.02899932861328 C-7.534999847412109,-38.73500061035156 -10.888999938964844,-71.78600311279297 21.920000076293945,-88.50599670410156 C47.99399948120117,-101.79399871826172 73.40699768066406,-89.08799743652344 85.64199829101562,-64.14700317382812 C105.36100006103516,-23.951000213623047 68.72100067138672,46.57099914550781 70.12200164794922,87.60299682617188 C54.93600082397461,54.20600128173828 101.88400268554688,-29.52199935913086 73.99500274658203,-66.14700317382812 C44.70100021362305,-104.61799621582031 -10.829000473022461,-73.55799865722656 1.8769999742507935,-10.029000282287598 C-53.652000427246094,-54.73500061035156 -95.36799621582031,-8.48799991607666 -77.41699981689453,25.618000030517578 C-49.18199920654297,79.26499938964844 39.05400085449219,56.32400131225586 54.53200149536133,93.85700225830078 C32.641998291015625,72.55400085449219 -16.503999710083008,78.53700256347656 -47.53499984741211,64.79499816894531z"/><path fill="url(#__lottie_element_26324)" fill-opacity="1" d=" M-47.53499984741211,64.79499816894531 C-80.47599792480469,50.207000732421875 -104.47599792480469,15.852999687194824 -83.7699966430664,-18.02899932861328 C-69.37300109863281,-41.58700180053711 -32.47600173950195,-43.441001892089844 -6.593999862670898,-26.02899932861328 C-7.534999847412109,-38.73500061035156 -10.888999938964844,-71.78600311279297 21.920000076293945,-88.50599670410156 C47.99399948120117,-101.79399871826172 73.40699768066406,-89.08799743652344 85.64199829101562,-64.14700317382812 C105.36100006103516,-23.951000213623047 68.72100067138672,46.57099914550781 70.12200164794922,87.60299682617188 C54.93600082397461,54.20600128173828 101.88400268554688,-29.52199935913086 73.99500274658203,-66.14700317382812 C44.70100021362305,-104.61799621582031 -10.829000473022461,-73.55799865722656 1.8769999742507935,-10.029000282287598 C-53.652000427246094,-54.73500061035156 -95.36799621582031,-8.48799991607666 -77.41699981689453,25.618000030517578 C-49.18199920654297,79.26499938964844 39.05400085449219,56.32400131225586 54.53200149536133,93.85700225830078 C32.641998291015625,72.55400085449219 -16.503999710083008,78.53700256347656 -47.53499984741211,64.79499816894531z"/></g><g opacity="1" transform="matrix(1,0,0,1,174.4029998779297,147.20599365234375)"><path stroke-linecap="round" stroke-linejoin="round" fill-opacity="0" stroke="rgb(51,147,0)" stroke-opacity="1" stroke-width="8" d=" M-47.53499984741211,55.5620002746582 C-80.47599792480469,40.9739990234375 -104.47599792480469,6.620999813079834 -83.7699966430664,-27.26099967956543 C-69.37300109863281,-50.819000244140625 -32.47600173950195,-52.67300033569336 -6.593999862670898,-35.26100158691406 C-7.534999847412109,-47.96699905395508 -10.888999938964844,-81.01799774169922 21.920000076293945,-97.73799896240234 C47.99399948120117,-111.0260009765625 73.40699768066406,-98.31999969482422 85.64199829101562,-73.37899780273438 C108.21399688720703,-27.365999221801758 56.935001373291016,58.38600158691406 73.40599822998047,94.1510009765625 C77.98200225830078,104.08699798583984 67.27200317382812,107.33399963378906 62.11199951171875,95.56199645996094 C47.053001403808594,61.20899963378906 -12.071000099182129,71.26699829101562 -47.53499984741211,55.5620002746582z"/></g><g opacity="1" transform="matrix(1,0,0,1,174.4029998779297,147.20599365234375)"><path stroke-linecap="round" stroke-linejoin="round" fill-opacity="0" stroke="rgb(42,109,3)" stroke-opacity="1" stroke-width="8" d=" M85.64199829101562,-73.37899780273438 C108.21399688720703,-27.365999221801758 56.935001373291016,58.38600158691406 73.40599822998047,94.1510009765625 C77.98200225830078,104.08699798583984 67.27200317382812,107.33399963378906 62.11199951171875,95.56199645996094 C47.053001403808594,61.20899963378906 -12.071000099182129,71.26699829101562 -47.53499984741211,55.5620002746582"/></g></g><g style="display: block;" transform="matrix(1,0,0,1,-0.0007080898503772914,0.00020629081700462848)" opacity="1"><g opacity="1" transform="matrix(1,0,0,1,342.1839904785156,164.24200439453125)"><path fill="url(#__lottie_element_26311)" fill-opacity="1" d=" M-65.90399932861328,-34.88600158691406 C-54.61000061035156,-69.4739990234375 -28.485000610351562,-99.68699645996094 9.625,-88.53299713134766 C38.566001892089844,-80.06199645996094 41.38999938964844,-46.88600158691406 30.802000045776367,-22.18000030517578 C48.44900131225586,-21.474000930786133 77.38999938964844,-17.94499969482422 90.09600067138672,7.4670000076293945 C100.00399780273438,27.281999588012695 88.68399810791016,56.87799835205078 66.09600067138672,69.58399963378906 C21.427000045776367,94.70999908447266 -49.66899871826172,62.525001525878906 -84.96299743652344,88.64299774169922 C-93.75599670410156,95.1500015258789 -97.73200225830078,86.28900146484375 -88.15399932861328,77.71800231933594 C-68.02200317382812,59.70199966430664 -77.94300079345703,1.9839999675750732 -65.90399932861328,-34.88600158691406z"/><path fill="url(#__lottie_element_26312)" fill-opacity="1" d=" M-65.90399932861328,-34.88600158691406 C-54.61000061035156,-69.4739990234375 -28.485000610351562,-99.68699645996094 9.625,-88.53299713134766 C38.566001892089844,-80.06199645996094 41.38999938964844,-46.88600158691406 30.802000045776367,-22.18000030517578 C48.44900131225586,-21.474000930786133 77.38999938964844,-17.94499969482422 90.09600067138672,7.4670000076293945 C100.00399780273438,27.281999588012695 88.68399810791016,56.87799835205078 66.09600067138672,69.58399963378906 C21.427000045776367,94.70999908447266 -49.66899871826172,62.525001525878906 -84.96299743652344,88.64299774169922 C-93.75599670410156,95.1500015258789 -97.73200225830078,86.28900146484375 -88.15399932861328,77.71800231933594 C-68.02200317382812,59.70199966430664 -77.94300079345703,1.9839999675750732 -65.90399932861328,-34.88600158691406z"/><path fill="url(#__lottie_element_26313)" fill-opacity="1" d=" M-65.90399932861328,-34.88600158691406 C-54.61000061035156,-69.4739990234375 -28.485000610351562,-99.68699645996094 9.625,-88.53299713134766 C38.566001892089844,-80.06199645996094 41.38999938964844,-46.88600158691406 30.802000045776367,-22.18000030517578 C48.44900131225586,-21.474000930786133 77.38999938964844,-17.94499969482422 90.09600067138672,7.4670000076293945 C100.00399780273438,27.281999588012695 88.68399810791016,56.87799835205078 66.09600067138672,69.58399963378906 C21.427000045776367,94.70999908447266 -49.66899871826172,62.525001525878906 -84.96299743652344,88.64299774169922 C-93.75599670410156,95.1500015258789 -97.73200225830078,86.28900146484375 -88.15399932861328,77.71800231933594 C-68.02200317382812,59.70199966430664 -77.94300079345703,1.9839999675750732 -65.90399932861328,-34.88600158691406z"/></g><g opacity="0.2" transform="matrix(1,0,0,1,342.1839904785156,198.5970001220703)"><path fill="rgb(41,127,0)" fill-opacity="1" d=" M30.802000045776367,-56.53499984741211 C48.44900131225586,-55.82899856567383 77.38999938964844,-52.29999923706055 90.09600067138672,-26.88800048828125 C100.00399780273438,-7.072999954223633 88.68399810791016,22.52400016784668 66.09600067138672,35.22999954223633 C21.427000045776367,60.35599899291992 -49.66899871826172,28.17099952697754 -84.96299743652344,54.28900146484375 C-93.75599670410156,60.79600143432617 -97.73200225830078,51.933998107910156 -88.15399932861328,43.362998962402344 C-85.5770034790039,41.055999755859375 -69.43399810791016,20.4060001373291 -74.375,-20.53499984741211 C-69.22899627685547,-6.610000133514404 -66.75700378417969,26.121999740600586 -48.9630012512207,12.642000198364258 C-25.66900062561035,-5.005000114440918 26.985000610351562,-53.38199996948242 30.802000045776367,-56.53499984741211z"/></g><g opacity="0.3" transform="matrix(1,0,0,1,329.0509948730469,238.77200317382812)"><path fill="rgb(41,127,0)" fill-opacity="1" d=" M-28.770999908447266,-16.23900032043457 C2.2880001068115234,-18.35700035095215 13.581999778747559,8.467000007629395 79.22899627685547,-4.945000171661377 C34.560001373291016,20.180999755859375 -36.5359992980957,-12.005000114440918 -71.83000183105469,14.11299991607666 C-75.12699890136719,16.55299949645996 -77.74700164794922,16.832000732421875 -79.22899627685547,15.776000022888184 C-64.77100372314453,3.5250000953674316 -51.481998443603516,-14.690999984741211 -28.770999908447266,-16.23900032043457z"/></g><g opacity="1" transform="matrix(1,0,0,1,0,0)"><g opacity="0.5" transform="matrix(1,0,0,1,309.0780029296875,156.65899658203125)"><path fill="rgb(140,253,94)" fill-opacity="1" d=" M-2.3959999084472656,40.98699951171875 C-3.378000020980835,35.178001403808594 -0.7710000276565552,-33.77199935913086 1.6729999780654907,-44.18199920654297 C1.152999997138977,-36.14099884033203 1.524999976158142,30.823999404907227 2.552000045776367,38.92499923706055 C3.1700000762939453,43.79600143432617 -1.4110000133514404,46.8120002746582 -2.3959999084472656,40.98699951171875z"/><path stroke-linecap="round" stroke-linejoin="round" fill-opacity="0" stroke="rgb(140,253,94)" stroke-opacity="1" stroke-width="2" d=" M-2.3959999084472656,40.98699951171875 C-3.378000020980835,35.178001403808594 -0.7710000276565552,-33.77199935913086 1.6729999780654907,-44.18199920654297 C1.152999997138977,-36.14099884033203 1.524999976158142,30.823999404907227 2.552000045776367,38.92499923706055 C3.1700000762939453,43.79600143432617 -1.4110000133514404,46.8120002746582 -2.3959999084472656,40.98699951171875z"/></g><g opacity="0.5" transform="matrix(1,0,0,1,349.177001953125,203.16700744628906)"><path fill="rgb(140,253,94)" fill-opacity="1" d=" M-39.41899871826172,0.32100000977516174 C-33.65999984741211,1.562000036239624 31.926000595092773,4.172999858856201 42.435001373291016,2.196000099182129 C34.37900161743164,2.3559999465942383 -28.85099983215332,-1.3650000095367432 -36.89799880981445,-2.753000020980835 C-41.736000061035156,-3.5880000591278076 -45.194000244140625,-0.9229999780654907 -39.41899871826172,0.32100000977516174z"/><path stroke-linecap="round" stroke-linejoin="round" fill-opacity="0" stroke="rgb(140,253,94)" stroke-opacity="1" stroke-width="2" d=" M-39.41899871826172,0.32100000977516174 C-33.65999984741211,1.562000036239624 31.926000595092773,4.172999858856201 42.435001373291016,2.196000099182129 C34.37900161743164,2.3559999465942383 -28.85099983215332,-1.3650000095367432 -36.89799880981445,-2.753000020980835 C-41.736000061035156,-3.5880000591278076 -45.194000244140625,-0.9229999780654907 -39.41899871826172,0.32100000977516174z"/></g><g opacity="0.3" transform="matrix(1,0,0,1,342.4590148925781,151.5229949951172)"><path fill="rgb(140,253,94)" fill-opacity="1" d=" M-3.703000068664551,16.73200035095215 C-3.740999937057495,10.840999603271484 0.527999997138977,-9.461999893188477 3.7039999961853027,-20.049999237060547 C1.9019999504089355,-12.196999549865723 0.10599999874830246,6.730999946594238 -0.17900000512599945,14.892000198364258 C-0.3499999940395355,19.798999786376953 -3.6649999618530273,22.639999389648438 -3.703000068664551,16.73200035095215z"/><path stroke-linecap="round" stroke-linejoin="round" fill-opacity="0" stroke="rgb(140,253,94)" stroke-opacity="1" stroke-width="2" d=" M-3.703000068664551,16.73200035095215 C-3.740999937057495,10.840999603271484 0.527999997138977,-9.461999893188477 3.7039999961853027,-20.049999237060547 C1.9019999504089355,-12.196999549865723 0.10599999874830246,6.730999946594238 -0.17900000512599945,14.892000198364258 C-0.3499999940395355,19.798999786376953 -3.6649999618530273,22.639999389648438 -3.703000068664551,16.73200035095215z"/></g></g><g opacity="1" transform="matrix(1,0,0,1,0,0)"><g opacity="0.4" transform="matrix(1,0,0,1,314.5150146484375,195.12100219726562)"><path fill="rgb(135,250,88)" fill-opacity="1" d=" M-51.65345764160156,46.94595718383789 C-45.40483093261719,41.83633804321289 38.081329345703125,-34.78137969970703 51.62028121948242,-46.932376861572266 C32.77265930175781,-28.13807487487793 22.38862419128418,-9.493276596069336 40.801326751708984,-13.986846923828125 C10.880749702453613,-5.771066665649414 11.19107723236084,7.196309566497803 33.504947662353516,8.604459762573242 C-5.74310827255249,10.888134956359863 -21.544200897216797,24.36301040649414 -10.716886520385742,27.187397003173828 C-29.301860809326172,27.42366600036621 -40.79593276977539,36.780826568603516 -51.65345764160156,46.94595718383789z"/></g><g opacity="0.6" transform="matrix(1,0,0,1,307.8089904785156,201.23899841308594)"><path fill="rgb(135,250,88)" fill-opacity="1" d=" M-17.64699935913086,-2.234999895095825 C-12.940999984741211,6.236000061035156 -0.23499999940395355,-8.58899974822998 0,-33.76499938964844 C-0.3089999854564667,-10.23900032043457 12.440999984741211,-12.98799991607666 19.29400062561035,-36.5880012512207 C21.176000595092773,-21.764999389648438 37.0890007019043,-34.0359992980957 44.941001892089844,-41.29399871826172 C27.764999389648438,-26.235000610351562 -37.64699935913086,38 -44.941001892089844,41.29399871826172 C-37.5890007019043,35.95199966430664 -17.881999969482422,12.824000358581543 -17.64699935913086,-2.234999895095825z"/></g></g><g opacity="1" transform="matrix(1,0,0,1,308.14300537109375,200.8939971923828)"><path fill="rgb(141,254,95)" fill-opacity="1" d=" M-58.040000915527344,47.67399978637695 C-31.156999588012695,25.16699981689453 37.05099868774414,-35.63399887084961 59.902000427246094,-54.59700012207031 C40.137001037597656,-36.95000076293945 -33.98099899291992,34.34400177001953 -55.15700149536133,53.40299987792969 C-59.45000076293945,57.266998291015625 -61.75600051879883,50.78499984741211 -58.040000915527344,47.67399978637695z"/><path stroke-linecap="round" stroke-linejoin="round" fill-opacity="0" stroke="rgb(140,253,94)" stroke-opacity="1" stroke-width="2" d=" M-58.040000915527344,47.67399978637695 C-31.156999588012695,25.16699981689453 37.05099868774414,-35.63399887084961 59.902000427246094,-54.59700012207031 C40.137001037597656,-36.95000076293945 -33.98099899291992,34.34400177001953 -55.15700149536133,53.40299987792969 C-59.45000076293945,57.266998291015625 -61.75600051879883,50.78499984741211 -58.040000915527344,47.67399978637695z"/></g><g opacity="0.8" transform="matrix(1,0,0,1,344.9580078125,158.7429962158203)"><path fill="url(#__lottie_element_26314)" fill-opacity="1" d=" M-68.6780014038086,-29.386999130249023 C-57.38399887084961,-63.974998474121094 -31.259000778198242,-94.18800354003906 6.85099983215332,-83.03399658203125 C35.79199981689453,-74.56300354003906 38.61600112915039,-41.387001037597656 28.027999877929688,-16.680999755859375 C45.67499923706055,-15.975000381469727 74.61599731445312,-12.446000099182129 87.3219985961914,12.965999603271484 C97.2300033569336,32.78099822998047 85.91000366210938,62.37699890136719 63.321998596191406,75.08300018310547 C39.4739990234375,88.49800109863281 8.093000411987305,85.5770034790039 -21.35099983215332,83.91400146484375 C32.26300048828125,81.6719970703125 84.66600036621094,71.41100311279297 79.3219985961914,23.319000244140625 C77.44000244140625,6.377999782562256 48.26300048828125,-13.857999801635742 13.439000129699707,-4.446000099182129 C30.797000885009766,-40.48099899291992 21.070999145507812,-64.20500183105469 3.4210000038146973,-71.44999694824219 C-16.729999542236328,-79.72200012207031 -47.209999084472656,-66.51399993896484 -59.50199890136719,-25.62299919128418 C-73.08300018310547,19.554000854492188 -62.79600143432617,70.8479995727539 -90.9280014038086,83.21700286865234 C-70.7959976196289,65.20099639892578 -80.71700286865234,7.482999801635742 -68.6780014038086,-29.386999130249023z"/><path fill="url(#__lottie_element_26315)" fill-opacity="1" d=" M-68.6780014038086,-29.386999130249023 C-57.38399887084961,-63.974998474121094 -31.259000778198242,-94.18800354003906 6.85099983215332,-83.03399658203125 C35.79199981689453,-74.56300354003906 38.61600112915039,-41.387001037597656 28.027999877929688,-16.680999755859375 C45.67499923706055,-15.975000381469727 74.61599731445312,-12.446000099182129 87.3219985961914,12.965999603271484 C97.2300033569336,32.78099822998047 85.91000366210938,62.37699890136719 63.321998596191406,75.08300018310547 C39.4739990234375,88.49800109863281 8.093000411987305,85.5770034790039 -21.35099983215332,83.91400146484375 C32.26300048828125,81.6719970703125 84.66600036621094,71.41100311279297 79.3219985961914,23.319000244140625 C77.44000244140625,6.377999782562256 48.26300048828125,-13.857999801635742 13.439000129699707,-4.446000099182129 C30.797000885009766,-40.48099899291992 21.070999145507812,-64.20500183105469 3.4210000038146973,-71.44999694824219 C-16.729999542236328,-79.72200012207031 -47.209999084472656,-66.51399993896484 -59.50199890136719,-25.62299919128418 C-73.08300018310547,19.554000854492188 -62.79600143432617,70.8479995727539 -90.9280014038086,83.21700286865234 C-70.7959976196289,65.20099639892578 -80.71700286865234,7.482999801635742 -68.6780014038086,-29.386999130249023z"/></g><g opacity="1" transform="matrix(1,0,0,1,342.1839904785156,164.24200439453125)"><path stroke-linecap="round" stroke-linejoin="round" fill-opacity="0" stroke="rgb(51,147,0)" stroke-opacity="1" stroke-width="8" d=" M-65.90399932861328,-34.88600158691406 C-54.61000061035156,-69.4739990234375 -28.485000610351562,-99.68699645996094 9.625,-88.53299713134766 C38.566001892089844,-80.06199645996094 41.38999938964844,-46.88600158691406 30.802000045776367,-22.18000030517578 C48.44900131225586,-21.474000930786133 77.38999938964844,-17.94499969482422 90.09600067138672,7.4670000076293945 C100.00399780273438,27.281999588012695 88.68399810791016,56.87799835205078 66.09600067138672,69.58399963378906 C21.427000045776367,94.70999908447266 -49.66899871826172,62.525001525878906 -84.96299743652344,88.64299774169922 C-93.75599670410156,95.1500015258789 -97.73200225830078,86.28900146484375 -88.15399932861328,77.71800231933594 C-68.02200317382812,59.70199966430664 -77.94300079345703,1.9839999675750732 -65.90399932861328,-34.88600158691406z"/></g><g opacity="1" transform="matrix(1,0,0,1,342.1839904785156,164.24200439453125)"><path stroke-linecap="round" stroke-linejoin="round" fill-opacity="0" stroke="rgb(42,109,3)" stroke-opacity="1" stroke-width="8" d=" M9.482000350952148,-88.57499694824219 C9.529000282287598,-88.56099700927734 9.57699966430664,-88.5469970703125 9.625,-88.53299713134766 C38.566001892089844,-80.06199645996094 41.38999938964844,-46.88600158691406 30.802000045776367,-22.18000030517578 C48.44900131225586,-21.474000930786133 77.38999938964844,-17.94499969482422 90.09600067138672,7.4670000076293945 C100.00399780273438,27.281999588012695 88.68399810791016,56.87799835205078 66.09600067138672,69.58399963378906 C21.427000045776367,94.70999908447266 -49.66899871826172,62.525001525878906 -84.96299743652344,88.64299774169922 C-85.27300262451172,88.87300109863281 -85.5770034790039,89.08300018310547 -85.875,89.2750015258789"/></g></g><g style="display: block;" transform="matrix(1,0,0,1,244.8858184814453,248.80589294433594)" opacity="1"><g opacity="1" transform="matrix(1,0,0,1,0,0)"><path fill="url(#__lottie_element_26307)" fill-opacity="1" d=" M-23.135000228881836,10.255999565124512 C-20.437000274658203,9.121000289916992 -6.678999900817871,6.835999965667725 -4.959000110626221,-0.3319999873638153 C-3.9000000953674316,-4.74399995803833 -12.616000175476074,-19.259000778198242 -14.48799991607666,-23.097000122070312 C-18.017000198364258,-30.332000732421875 -11.840999603271484,-34.2140007019043 -7.252999782562256,-24.861000061035156 C-3.6670000553131104,-17.549999237060547 0.1589999943971634,-4.214000225067139 3.687999963760376,-2.9790000915527344 C10.116999626159668,-0.7289999723434448 13.923999786376953,-6.861999988555908 19.570999145507812,-13.390999794006348 C23.701000213623047,-18.16699981689453 29.200000762939453,-13.079000473022461 23.277000427246094,-6.861000061035156 C21.176000595092773,-4.65500020980835 13.395000457763672,0.7269999980926514 13.29699993133545,5.109000205993652 C13.1899995803833,9.887999534606934 19.393999099731445,10.432999610900879 23.98200035095215,13.609000205993652 C28.875999450683594,16.996999740600586 27.264999389648438,24.68000030517578 20.100000381469727,19.785999298095703 C11.52400016784668,13.928000450134277 -0.8849999904632568,5.300000190734863 -3.884999990463257,29.124000549316406 C-1.0609999895095825,9.53600025177002 -7.428999900817871,11.138999938964844 -18.3700008392334,16.433000564575195 C-24.69300079345703,19.493000030517578 -30.990999221801758,13.5600004196167 -23.135000228881836,10.255999565124512z"/></g></g></g></svg>