<svg xmlns="http://www.w3.org/2000/svg" xmlns:xlink="http://www.w3.org/1999/xlink" viewBox="0 0 512 512" width="512" height="512" style="width: 100%; height: 100%; transform: translate3d(0,0,0);" preserveAspectRatio="xMidYMid meet"><defs><clipPath id="__lottie_element_12728"><rect width="512" height="512" x="0" y="0"/></clipPath><linearGradient id="__lottie_element_12733" spreadMethod="pad" gradientUnits="userSpaceOnUse"><stop/><stop/><stop/></linearGradient><linearGradient id="__lottie_element_12737" spreadMethod="pad" gradientUnits="userSpaceOnUse"><stop/><stop/><stop/></linearGradient><linearGradient id="__lottie_element_12741" spreadMethod="pad" gradientUnits="userSpaceOnUse"><stop/><stop/><stop/></linearGradient><linearGradient id="__lottie_element_12745" spreadMethod="pad" gradientUnits="userSpaceOnUse"><stop/><stop/><stop/></linearGradient><linearGradient id="__lottie_element_12749" spreadMethod="pad" gradientUnits="userSpaceOnUse"><stop/><stop/><stop/></linearGradient><linearGradient id="__lottie_element_12753" spreadMethod="pad" gradientUnits="userSpaceOnUse" x1="6.380000114440918" y1="121.2770004272461" x2="-6.46999979019165" y2="-93.14900207519531"><stop offset="0%" stop-color="rgb(255,255,255)" stop-opacity="0.800000011920929"/><stop offset="67%" stop-color="rgb(255,255,255)" stop-opacity="0.4000000059604645"/><stop offset="100%" stop-color="rgb(255,255,255)" stop-opacity="0"/></linearGradient><linearGradient id="__lottie_element_12754" spreadMethod="pad" gradientUnits="userSpaceOnUse" x1="2.134000062942505" y1="126.80000305175781" x2="-1.4759999513626099" y2="-70.99199676513672"><stop offset="0%" stop-color="rgb(255,255,255)" stop-opacity="1"/><stop offset="67%" stop-color="rgb(255,255,255)" stop-opacity="0.5"/><stop offset="100%" stop-color="rgb(255,255,255)" stop-opacity="0"/></linearGradient><linearGradient id="__lottie_element_12755" spreadMethod="pad" gradientUnits="userSpaceOnUse" x1="7.633999824523926" y1="86.80000305175781" x2="-4.47599983215332" y2="-23.992000579833984"><stop offset="0%" stop-color="rgb(255,255,255)" stop-opacity="1"/><stop offset="67%" stop-color="rgb(255,255,255)" stop-opacity="0.5"/><stop offset="100%" stop-color="rgb(255,255,255)" stop-opacity="0"/></linearGradient><linearGradient id="__lottie_element_12764" spreadMethod="pad" gradientUnits="userSpaceOnUse" x1="-202.0760040283203" y1="-0.15299999713897705" x2="201.23699951171875" y2="-0.15299999713897705"><stop offset="7%" stop-color="rgb(88,90,92)"/><stop offset="26%" stop-color="rgb(108,111,113)"/><stop offset="36%" stop-color="rgb(127,132,135)"/><stop offset="54%" stop-color="rgb(165,168,170)"/><stop offset="67%" stop-color="rgb(204,204,204)"/><stop offset="81%" stop-color="rgb(159,162,163)"/><stop offset="91%" stop-color="rgb(113,120,122)"/></linearGradient><linearGradient id="__lottie_element_12765" spreadMethod="pad" gradientUnits="userSpaceOnUse" x1="-311.45599365234375" y1="-5.611000061035156" x2="157.09100341796875" y2="1.5240000486373901"><stop offset="9%" stop-color="rgb(113,120,122)"/><stop offset="19%" stop-color="rgb(159,162,163)"/><stop offset="33%" stop-color="rgb(204,204,204)"/><stop offset="44%" stop-color="rgb(165,168,170)"/><stop offset="58%" stop-color="rgb(127,132,135)"/><stop offset="68%" stop-color="rgb(108,111,113)"/><stop offset="89%" stop-color="rgb(88,90,92)"/></linearGradient><linearGradient id="__lottie_element_12766" spreadMethod="pad" gradientUnits="userSpaceOnUse" x1="-45.05099868774414" y1="-65.91999816894531" x2="32.762001037597656" y2="75.73999786376953"><stop offset="0%" stop-color="rgb(153,153,153)"/><stop offset="34%" stop-color="rgb(121,121,122)"/><stop offset="93%" stop-color="rgb(88,90,92)"/></linearGradient><linearGradient id="__lottie_element_12767" spreadMethod="pad" gradientUnits="userSpaceOnUse" x1="100.552001953125" y1="268.760986328125" x2="370.1409912109375" y2="452.62799072265625"><stop offset="0%" stop-color="rgb(153,153,153)"/><stop offset="34%" stop-color="rgb(121,121,122)"/><stop offset="93%" stop-color="rgb(88,90,92)"/></linearGradient><linearGradient id="__lottie_element_12770" spreadMethod="pad" gradientUnits="userSpaceOnUse"><stop/><stop/><stop/></linearGradient><linearGradient id="__lottie_element_12774" spreadMethod="pad" gradientUnits="userSpaceOnUse" x1="-0.39100000262260437" y1="57.417999267578125" x2="-1.6410000324249268" y2="-130.14599609375"><stop offset="0%" stop-color="rgb(234,127,38)"/><stop offset="67%" stop-color="rgb(245,154,46)"/><stop offset="100%" stop-color="rgb(255,181,54)"/></linearGradient><linearGradient id="__lottie_element_12775" spreadMethod="pad" gradientUnits="userSpaceOnUse" x1="-0.39100000262260437" y1="57.417999267578125" x2="-1.6410000324249268" y2="-130.14599609375"><stop offset="0%" stop-color="rgb(234,127,38)"/><stop offset="67%" stop-color="rgb(245,154,46)"/><stop offset="100%" stop-color="rgb(255,181,54)"/></linearGradient><radialGradient id="__lottie_element_12776" spreadMethod="pad" gradientUnits="userSpaceOnUse" cx="3.953000068664551" cy="-68.89600372314453" r="224.80594485558032" fx="3.953000068664551" fy="-68.89600372314453"><stop offset="0%" stop-color="rgb(250,233,141)"/><stop offset="24%" stop-color="rgb(252,206,96)"/><stop offset="47%" stop-color="rgb(255,180,51)"/><stop offset="74%" stop-color="rgb(235,147,26)"/><stop offset="100%" stop-color="rgb(216,114,0)"/></radialGradient><linearGradient id="__lottie_element_12780" spreadMethod="pad" gradientUnits="userSpaceOnUse"><stop/><stop/><stop/></linearGradient><radialGradient id="__lottie_element_12781" spreadMethod="pad" gradientUnits="userSpaceOnUse"><stop/><stop/><stop/><stop/><stop/></radialGradient><linearGradient id="__lottie_element_12782" spreadMethod="pad" gradientUnits="userSpaceOnUse"><stop/><stop/><stop/></linearGradient><linearGradient id="__lottie_element_12786" spreadMethod="pad" gradientUnits="userSpaceOnUse"><stop/><stop/><stop/><stop/><stop/><stop/><stop/></linearGradient><linearGradient id="__lottie_element_12793" spreadMethod="pad" gradientUnits="userSpaceOnUse"><stop/><stop/><stop/></linearGradient><linearGradient id="__lottie_element_12794" spreadMethod="pad" gradientUnits="userSpaceOnUse"><stop/><stop/><stop/></linearGradient></defs><g clip-path="url(#__lottie_element_12728)"><g style="display: block;" transform="matrix(0.8881000280380249,0,0,0.8881000280380249,32.19880294799805,14.531394004821777)" opacity="1"><g opacity="1" transform="matrix(1,0,0,1,251.91900634765625,371.0769958496094)"><path fill="url(#__lottie_element_12764)" fill-opacity="1" d=" M-0.7400000095367432,-1.3480000495910645 C-180.91900634765625,-6.577000141143799 -201.65699768066406,-86.78199768066406 -201.65699768066406,-86.78199768066406 C-201.65699768066406,-86.78199768066406 -174.0780029296875,10.71399974822998 -163.2570037841797,26.67300033569336 C-150.47799682617188,45.52000045776367 -104.572998046875,91.39600372314453 -0.6200000047683716,91.39600372314453 C103.33300018310547,91.39600372314453 149.23800659179688,45.52000045776367 162.01699829101562,26.67300033569336 C172.83799743652344,10.71399974822998 201.65699768066406,-91.39600372314453 201.65699768066406,-91.39600372314453 C201.65699768066406,-91.39600372314453 191.08099365234375,-8.07699966430664 -0.7400000095367432,-1.3480000495910645z"/></g><g opacity="0.3" transform="matrix(1,0,0,1,351.59698486328125,383.0119934082031)"><path fill="rgb(255,255,255)" fill-opacity="1" d=" M102.30999755859375,-103.42900085449219 C102.30999755859375,-103.42900085449219 73.16000366210938,-1.2209999561309814 62.34000015258789,14.73900032043457 C49.75,33.319000244140625 4.989999771118164,78.12899780273438 -95.80999755859375,79.42900085449219 C-2.3499999046325684,78.02899932861328 39.16999816894531,33.29899978637695 50.86000061035156,14.73900032043457 C58.119998931884766,3.2190001010894775 74.5,-51.249000549316406 79,-66.63899993896484 C97.40299987792969,-82.26100158691406 102.30999755859375,-103.42900085449219 102.30999755859375,-103.42900085449219z"/></g><g opacity="0.3" transform="matrix(1,0,0,1,151.36199951171875,384.92498779296875)"><path fill="rgb(255,255,255)" fill-opacity="1" d=" M95.44499969482422,77.51599884033203 C-5.34499979019165,76.21600341796875 -50.1150016784668,31.4060001373291 -62.69499969482422,12.826000213623047 C-73.5250015258789,-3.134000062942505 -101.44499969482422,-100.76599884033203 -101.44499969482422,-100.76599884033203 C-101.44499969482422,-100.76599884033203 -89.80500030517578,-73.44599914550781 -79.38500213623047,-67.72599792480469 C-74.88500213623047,-52.33599853515625 -58.474998474121094,1.305999994277954 -51.21500015258789,12.826000213623047 C-39.53499984741211,31.38599967956543 1.9950000047683716,76.11599731445312 95.44499969482422,77.51599884033203z"/></g><g opacity="1" transform="matrix(1,0,0,1,251.91900634765625,371.0769958496094)"><path stroke-linecap="round" stroke-linejoin="round" fill-opacity="0" stroke="rgb(70,72,73)" stroke-opacity="1" stroke-width="7" d=" M-0.7400000095367432,-1.3480000495910645 C-180.91900634765625,-6.577000141143799 -201.65699768066406,-86.78199768066406 -201.65699768066406,-86.78199768066406 C-201.65699768066406,-86.78199768066406 -174.0780029296875,10.71399974822998 -163.2570037841797,26.67300033569336 C-150.47799682617188,45.52000045776367 -104.572998046875,91.39600372314453 -0.6200000047683716,91.39600372314453 C103.33300018310547,91.39600372314453 149.23800659179688,45.52000045776367 162.01699829101562,26.67300033569336 C172.83799743652344,10.71399974822998 201.65699768066406,-91.39600372314453 201.65699768066406,-91.39600372314453 C201.65699768066406,-91.39600372314453 191.08099365234375,-8.07699966430664 -0.7400000095367432,-1.3480000495910645z"/></g><g opacity="0.3" transform="matrix(1,0,0,1,0,0)"><path fill="rgb(70,72,73)" fill-opacity="1" d=" M435,340.2049865722656 C435,340.2049865722656 431.3949890136719,352.4049987792969 424.61700439453125,370.5769958496094 C417.09698486328125,378.51300048828125 411.92999267578125,382.30999755859375 396.87701416015625,384.5950012207031 C377.5769958496094,387.5249938964844 362.4179992675781,403.3080139160156 343.5480041503906,409.39801025390625 C324.6780090332031,415.4880065917969 300.94000244140625,409.5469970703125 272.3320007324219,418.06201171875 C243.71800231933594,426.5790100097656 222.68499755859375,419.4679870605469 205.97799682617188,414.7409973144531 C187.3459930419922,409.468994140625 160.91099548339844,412.81500244140625 147.77699279785156,409.77099609375 C125.822998046875,404.6830139160156 114.25900268554688,388.2969970703125 100.06700134277344,384.5950012207031 C89.39099884033203,381.80999755859375 84.1780014038086,379.1789855957031 78.93800354003906,374.4670104980469 C71.68900299072266,355.47900390625 65.5,340.2049865722656 65.5,340.2049865722656 C65.5,340.2049865722656 141.53900146484375,395.0360107421875 250.25,383.8970031738281 C358.96099853515625,395.0360107421875 435,340.2049865722656 435,340.2049865722656z"/></g><g opacity="1" transform="matrix(1,0,0,1,352.43701171875,366.46099853515625)"><path stroke-linecap="round" stroke-linejoin="round" fill-opacity="0" stroke="rgb(106,109,109)" stroke-opacity="1" stroke-width="7" d=" M-26.766000747680664,86.77999877929688 C25.976999282836914,72.38600158691406 52.30699920654297,44.845001220703125 61.499000549316406,31.288999557495117 C72.31999969482422,15.329999923706055 101.13800048828125,-86.77999877929688 101.13800048828125,-86.77999877929688"/></g><g opacity="1" transform="matrix(1,0,0,1,251.2989959716797,268.5350036621094)"><path fill="url(#__lottie_element_12765)" fill-opacity="1" d=" M203.5030059814453,0 C203.5030059814453,55.75699996948242 112.39099884033203,100.95700073242188 0,100.95700073242188 C-112.39099884033203,100.95700073242188 -203.5030059814453,55.75699996948242 -203.5030059814453,0 C-203.5030059814453,-55.75699996948242 -112.39099884033203,-100.95700073242188 0,-100.95700073242188 C112.39099884033203,-100.95700073242188 203.5030059814453,-55.75699996948242 203.5030059814453,0z"/></g><g opacity="0" transform="matrix(1,0,0,1,379.3659973144531,255.9409942626953)"><path fill="rgb(70,72,73)" fill-opacity="1" d=" M77.05899810791016,176.1540069580078 C76.65799713134766,185.07899475097656 -5.434999942779541,197.03199768066406 -42.428001403808594,199.41700744628906 C-25.38800048828125,170.88099670410156 -28.131000518798828,155.04100036621094 -27.312000274658203,149.15499877929688 C-26.802000045776367,145.49200439453125 -56.672000885009766,146.69000244140625 -56.672000885009766,146.69000244140625 C40.60300064086914,151.91700744628906 77.21700286865234,172.63699340820312 77.05899810791016,176.1540069580078z"/></g><g opacity="0" transform="matrix(1,0,0,1,251.29800415039062,239.9409942626953)"><path fill="rgb(255,255,255)" fill-opacity="1" d=" M180.8769989013672,247.39100646972656 C190.0970001220703,236.65699768066406 205.83799743652344,194.95399475097656 193.46200561523438,167.5850067138672 C156.88600158691406,86.7020034790039 -72.38899993896484,70.90799713134766 -165.20399475097656,138.07699584960938 C-229.2220001220703,184.406005859375 -181.75,246.03700256347656 -181.75,246.03700256347656 C-193.84100341796875,235.302001953125 -207.35400390625,226.2270050048828 -206.1320037841797,199.10400390625 C-202.7429962158203,123.86100006103516 -71.64299774169922,96.36699676513672 -0.26899999380111694,95.39099884033203 C90.87699890136719,94.14399719238281 193.45700073242188,121.50700378417969 206.76400756835938,197.6490020751953 C208.25,206.14999389648438 199.54200744628906,230.87899780273438 180.8769989013672,247.39100646972656z"/></g><g opacity="0" transform="matrix(1,0,0,1,0,0)"><g opacity="0.1" transform="matrix(1,0,0,1,249.35699462890625,217.9980010986328)"><path stroke-linecap="round" stroke-linejoin="round" fill-opacity="0" stroke="rgb(70,72,73)" stroke-opacity="1" stroke-width="7" d=" M-37.83599853515625,26.39299964904785 C-37.83599853515625,26.39299964904785 -36.29800033569336,41.27899932861328 -36.29800033569336,41.27899932861328"/></g><g opacity="0.1" transform="matrix(1,0,0,1,186.99099731445312,222.24200439453125)"><path stroke-linecap="round" stroke-linejoin="round" fill-opacity="0" stroke="rgb(70,72,73)" stroke-opacity="1" stroke-width="7" d=" M-56.0890007019043,50.345001220703125 C-56.0890007019043,50.345001220703125 -43.34400177001953,71.2030029296875 -43.34400177001953,71.2030029296875"/></g><g opacity="0.1" transform="matrix(1,0,0,1,315.0469970703125,220.24200439453125)"><path stroke-linecap="round" stroke-linejoin="round" fill-opacity="0" stroke="rgb(37,38,38)" stroke-opacity="1" stroke-width="7" d=" M-13.24899959564209,44.0989990234375 C-13.24899959564209,44.0989990234375 -7.065000057220459,28.249000549316406 -7.065000057220459,28.249000549316406"/></g><g opacity="0.1" transform="matrix(1,0,0,1,129.53500366210938,240.38900756835938)"><path stroke-linecap="round" stroke-linejoin="round" fill-opacity="0" stroke="rgb(70,72,73)" stroke-opacity="1" stroke-width="7" d=" M-64.59100341796875,100.32499694824219 C-64.59100341796875,100.32499694824219 -33.819000244140625,116.52100372314453 -33.819000244140625,116.52100372314453"/></g><g opacity="0.1" transform="matrix(1,0,0,1,81.447998046875,274.0329895019531)"><path stroke-linecap="round" stroke-linejoin="round" fill-opacity="0" stroke="rgb(70,72,73)" stroke-opacity="1" stroke-width="7" d=" M-37.25699996948242,152.54299926757812 C-37.25699996948242,152.54299926757812 -1.6950000524520874,151.95199584960938 -1.6950000524520874,151.95199584960938"/></g><g opacity="0.1" transform="matrix(1,0,0,1,373.37298583984375,239.10699462890625)"><path stroke-linecap="round" stroke-linejoin="round" fill-opacity="0" stroke="rgb(37,38,38)" stroke-opacity="1" stroke-width="7" d=" M2.115999937057495,67.38600158691406 C2.115999937057495,67.38600158691406 15.545999526977539,51.972999572753906 15.545999526977539,51.972999572753906"/></g><g opacity="0.1" transform="matrix(1,0,0,1,424.2279968261719,277.99700927734375)"><path stroke-linecap="round" stroke-linejoin="round" fill-opacity="0" stroke="rgb(37,38,38)" stroke-opacity="1" stroke-width="7" d=" M-7.50600004196167,95.58200073242188 C-7.50600004196167,95.58200073242188 16.816999435424805,86.52200317382812 16.816999435424805,86.52200317382812"/></g></g><g opacity="1" transform="matrix(1,0,0,1,250.89300537109375,312.843994140625)"><path fill="url(#__lottie_element_12766)" fill-opacity="1" d=" M165,15.079999923706055 C127.98999786376953,40.279998779296875 68.05999755859375,56.650001525878906 0.4099999964237213,56.650001525878906 C-67.73999786376953,56.650001525878906 -128.05999755859375,40.029998779296875 -165,14.520000457763672 C-144.80999755859375,-26.540000915527344 -78.6500015258789,-56.650001525878906 -0.12999999523162842,-56.650001525878906 C78.73999786376953,-56.650001525878906 145.14999389648438,-26.270000457763672 165,15.079999923706055z"/></g><g opacity="0" transform="matrix(1,0,0,1,241.75799560546875,295.239013671875)"><path fill="rgb(255,255,255)" fill-opacity="1" d=" M166.18299865722656,50.236000061035156 C166.18299865722656,50.236000061035156 165.73800659179688,50.0620002746582 165.73800659179688,50.0620002746582 C165.73800659179688,50.0620002746582 108.84500122070312,-57.37699890136719 -20.968000411987305,-34.35200119018555 C-145.64700317382812,-12.237000465393066 -166.27499389648438,115.22599792480469 -160.37399291992188,157.77099609375 C-162.99200439453125,150.36000061035156 -164.6649932861328,126.86699676513672 -162.80099487304688,115.83699798583984 C-149.92599487304688,0.652999997138977 -71.59200286865234,-44.946998596191406 6.927000045776367,-45.284000396728516 C91.28600311279297,-45.645999908447266 146.67999267578125,3.5460000038146973 166.18299865722656,50.236000061035156z"/></g><g opacity="1" transform="matrix(1,0,0,1,251.2989959716797,268.5350036621094)"><path stroke-linecap="round" stroke-linejoin="round" fill-opacity="0" stroke="rgb(70,72,73)" stroke-opacity="1" stroke-width="7" d=" M203.5030059814453,0 C203.5030059814453,55.75699996948242 112.39099884033203,100.95700073242188 0,100.95700073242188 C-112.39099884033203,100.95700073242188 -203.5030059814453,55.75699996948242 -203.5030059814453,0 C-203.5030059814453,-55.75699996948242 -112.39099884033203,-100.95700073242188 0,-100.95700073242188 C112.39099884033203,-100.95700073242188 203.5030059814453,-55.75699996948242 203.5030059814453,0z"/></g><g opacity="0" transform="matrix(1,0,0,1,251.2989959716797,218.05599975585938)"><g opacity="1" transform="matrix(1,0,0,1,0,0)"><path stroke-linecap="round" stroke-linejoin="round" fill-opacity="0" stroke="rgb(106,109,109)" stroke-opacity="1" stroke-width="7" d=" M-202.47300720214844,148.0760040283203 C-199.99400329589844,226.55599975585938 -154.2469940185547,347.2829895019531 1.5640000104904175,345.9309997558594 C116.1449966430664,344.93701171875 203.9499969482422,252.77699279785156 199.91299438476562,150.01800537109375"/></g></g><g opacity="0" transform="matrix(1,0,0,1,0,0)"><path fill="url(#__lottie_element_12767)" fill-opacity="1" d=" M250.91099548339844,381.2239990234375 C171.7530059814453,381.2239990234375 86.19100189208984,380.7770080566406 71.66100311279297,367.7239990234375 C73.69100189208984,377.2770080566406 167.41200256347656,382.7239990234375 250.41200256347656,381.7239990234375 C345.93798828125,380.572998046875 412.6910095214844,377.2770080566406 421.9110107421875,366.9739990234375 C416.6910095214844,375.2770080566406 354.9110107421875,381.2239990234375 250.91099548339844,381.2239990234375z"/><path stroke-linecap="round" stroke-linejoin="round" fill-opacity="0" stroke="rgb(70,72,73)" stroke-opacity="1" stroke-width="7" d=" M250.91099548339844,381.2239990234375 C171.7530059814453,381.2239990234375 86.19100189208984,380.7770080566406 71.66100311279297,367.7239990234375 C73.69100189208984,377.2770080566406 167.41200256347656,382.7239990234375 250.41200256347656,381.7239990234375 C345.93798828125,380.572998046875 412.6910095214844,377.2770080566406 421.9110107421875,366.9739990234375 C416.6910095214844,375.2770080566406 354.9110107421875,381.2239990234375 250.91099548339844,381.2239990234375z"/></g></g><g style="display: block;" transform="matrix(0.8881000280380249,0,0,0.8881000280380249,32.19880294799805,14.531394004821777)" opacity="1"><g opacity="1" transform="matrix(1,0,0,1,252.23300170898438,273.5060119628906)"><path fill="url(#__lottie_element_12774)" fill-opacity="1" d=" M-0.11800000071525574,-126.23100280761719 C-12.581000328063965,-122.89700317382812 -30.94099998474121,-139.91200256347656 -60.11600112915039,-124.23100280761719 C-74.87899780273438,-116.2959976196289 -95.25399780273438,-124.3030014038086 -110.30999755859375,-117.79499816894531 C-123.37100219726562,-112.1500015258789 -126.33200073242188,-100.74700164794922 -145.01199340820312,-101.06400299072266 C-166.65499877929688,-101.43099975585938 -174.7570037841797,-89.77100372314453 -180.95399475097656,-81.04499816894531 C-187.1510009765625,-72.31900024414062 -202.8209991455078,-80.04499816894531 -216.89500427246094,-52.617000579833984 C-220.4250030517578,-45.73699951171875 -230.927001953125,-39.05500030517578 -235.48500061035156,-22.30500030517578 C-239.4530029296875,-7.723999977111816 -234.9969940185547,0.10300000011920929 -234.86599731445312,17.25200080871582 C-234.6479949951172,45.900001525878906 -210.28199768066406,51.84199905395508 -197.0659942626953,70.58799743652344 C-187.38099670410156,84.32499694824219 -171.03900146484375,93.00499725341797 -151.82899475097656,98.52799987792969 C-132.61900329589844,104.0510025024414 -124.60199737548828,114.98300170898438 -102.25399780273438,120.16200256347656 C-88.89099884033203,123.25800323486328 -61.35499954223633,120.84500122070312 -44.00400161743164,124.22200012207031 C-26.652999877929688,127.5989990234375 -5.584000110626221,136.27499389648438 23.541000366210938,127.5989990234375 C52.66600036621094,118.92400360107422 76.83399963378906,126.97899627685547 96.04399871826172,120.78199768066406 C115.25399780273438,114.58499908447266 129.50599670410156,99.8290023803711 149.33599853515625,98.53199768066406 C169.16600036621094,97.23500061035156 183.5540008544922,82.58300018310547 191.23500061035156,70.96800231933594 C201.75900268554688,55.05500030517578 212.30799865722656,57.040000915527344 222.60000610351562,44.48699951171875 C231.8090057373047,33.255001068115234 230.3780059814453,24.999000549316406 234.44400024414062,10.234000205993652 C242.13800048828125,-17.707000732421875 232.11000061035156,-26.80900001525879 219.2239990234375,-43.22100067138672 C213.80799865722656,-50.11899948120117 216.6230010986328,-63.722999572753906 190.87399291992188,-73.57099914550781 C170.44000244140625,-81.38600158691406 173.5229949951172,-94.96099853515625 139.53700256347656,-102.38899993896484 C123.4749984741211,-105.89900207519531 111.5999984741211,-120.45099639892578 88.06199645996094,-120.45099639892578 C64.52400207519531,-120.45099639892578 62.34400177001953,-121.5719985961914 50.34400177001953,-126.40599822998047 C32.18199920654297,-133.7220001220703 22.393999099731445,-132.25399780273438 -0.11800000071525574,-126.23100280761719z"/></g><g opacity="0.7000000000000001" transform="matrix(1,0,0,1,251.4029998779297,332.7279968261719)"><path fill="rgb(255,166,35)" fill-opacity="1" d=" M180.7729949951172,3.8499999046325684 C160.781005859375,35.54100036621094 145.97500610351562,16.121999740600586 118.86399841308594,33.720001220703125 C82.41600036621094,57.37900161743164 64.08200073242188,45.67900085449219 46.624000549316406,49.599998474121094 C18.44300079345703,55.93000030517578 1.121000051498413,66.28299713134766 -27.95599937438965,55.27000045776367 C-60.108001708984375,43.09199905395508 -84.37300109863281,57.40700149536133 -101.10600280761719,45.130001068115234 C-125.33599853515625,27.351999282836914 -140.58099365234375,35.99399948120117 -163.39100646972656,24.18400001525879 C-186.2010040283203,12.37399959564209 -177.3459930419922,-6.551000118255615 -202.20599365234375,-17.500999450683594 C-227.0659942626953,-28.461000442504883 -217.39700317382812,-60.11000061035156 -217.39700317382812,-60.11000061035156 C-217.39700317382812,-60.11000061035156 -217.39599609375,-60.11000061035156 -217.38600158691406,-60.11000061035156 C-217.39599609375,-58.459999084472656 -217.32699584960938,-56.77000045776367 -217.15699768066406,-55.029998779296875 C-216.0570068359375,-43.560001373291016 -210.77699279785156,-32.630001068115234 -194.8470001220703,-22.969999313354492 C-170.88699340820312,-8.4399995803833 -176.3260040283203,4.300000190734863 -158.61599731445312,14.619999885559082 C-142.1959991455078,24.18000030517578 -131.156005859375,15.600000381469727 -97.05599975585938,34.790000915527344 C-78.84600067138672,45.029998779296875 -51.17599868774414,32.75 -23.93600082397461,44.83000183105469 C3.2939999103546143,56.90999984741211 17.722999572753906,42.56999969482422 48.78300094604492,39.70000076293945 C79.84300231933594,36.83000183105469 86.8239974975586,41.16999816894531 108.51399993896484,28.549999237060547 C130.50399780273438,15.770000457763672 134.54400634765625,18.959999084472656 153.4340057373047,14.619999885559082 C165.08399963378906,11.949999809265137 170.07400512695312,-1.7300000190734863 189.95399475097656,-13.90999984741211 C208.45399475097656,-25.25 213.36300659179688,-34.4900016784668 217.0330047607422,-44.650001525878906 C217.9530029296875,-47.209999084472656 218.59300231933594,-49.77000045776367 218.9929962158203,-52.29999923706055 C222.2530059814453,-24.040000915527344 193.3300018310547,-16.05500030517578 180.7729949951172,3.8499999046325684z"/></g><g opacity="1" transform="matrix(1,0,0,1,252.23300170898438,273.5060119628906)"><path stroke-linecap="round" stroke-linejoin="round" fill-opacity="0" stroke="rgb(186,93,15)" stroke-opacity="1" stroke-width="7" d=" M-0.11800000071525574,-126.23100280761719 C-12.581000328063965,-122.89700317382812 -30.94099998474121,-139.91200256347656 -60.11600112915039,-124.23100280761719 C-74.87899780273438,-116.2959976196289 -95.25399780273438,-124.3030014038086 -110.30999755859375,-117.79499816894531 C-123.37100219726562,-112.1500015258789 -126.33200073242188,-100.74700164794922 -145.01199340820312,-101.06400299072266 C-166.65499877929688,-101.43099975585938 -174.7570037841797,-89.77100372314453 -180.95399475097656,-81.04499816894531 C-187.1510009765625,-72.31900024414062 -202.8209991455078,-80.04499816894531 -216.89500427246094,-52.617000579833984 C-220.4250030517578,-45.73699951171875 -230.927001953125,-39.05500030517578 -235.48500061035156,-22.30500030517578 C-239.4530029296875,-7.723999977111816 -234.9969940185547,0.10300000011920929 -234.86599731445312,17.25200080871582 C-234.6479949951172,45.900001525878906 -210.28199768066406,51.84199905395508 -197.0659942626953,70.58799743652344 C-187.38099670410156,84.32499694824219 -171.03900146484375,93.00499725341797 -151.82899475097656,98.52799987792969 C-132.61900329589844,104.0510025024414 -124.60199737548828,114.98300170898438 -102.25399780273438,120.16200256347656 C-88.89099884033203,123.25800323486328 -61.35499954223633,120.84500122070312 -44.00400161743164,124.22200012207031 C-26.652999877929688,127.5989990234375 -5.584000110626221,136.27499389648438 23.541000366210938,127.5989990234375 C52.66600036621094,118.92400360107422 76.83399963378906,126.97899627685547 96.04399871826172,120.78199768066406 C115.25399780273438,114.58499908447266 129.50599670410156,99.8290023803711 149.33599853515625,98.53199768066406 C169.16600036621094,97.23500061035156 183.5540008544922,82.58300018310547 191.23500061035156,70.96800231933594 C201.75900268554688,55.05500030517578 212.30799865722656,57.040000915527344 222.60000610351562,44.48699951171875 C231.8090057373047,33.255001068115234 230.3780059814453,24.999000549316406 234.44400024414062,10.234000205993652 C242.13800048828125,-17.707000732421875 232.11000061035156,-26.80900001525879 219.2239990234375,-43.22100067138672 C213.80799865722656,-50.11899948120117 216.6230010986328,-63.722999572753906 190.87399291992188,-73.57099914550781 C170.44000244140625,-81.38600158691406 173.5229949951172,-94.96099853515625 139.53700256347656,-102.38899993896484 C123.4749984741211,-105.89900207519531 111.5999984741211,-120.45099639892578 88.06199645996094,-120.45099639892578 C64.52400207519531,-120.45099639892578 62.34400177001953,-121.5719985961914 50.34400177001953,-126.40599822998047 C32.18199920654297,-133.7220001220703 22.393999099731445,-132.25399780273438 -0.11800000071525574,-126.23100280761719z"/></g><g opacity="1" transform="matrix(1,0,0,1,239.2220001220703,181.52699279785156)"><path stroke-linecap="round" stroke-linejoin="round" fill-opacity="0" stroke="rgb(221,129,20)" stroke-opacity="1" stroke-width="7" d=" M203.88499450683594,18.406999588012695 C183.4510040283203,10.592000007629395 186.5330047607422,-2.9830000400543213 152.5469970703125,-10.41100025177002 C136.48500061035156,-13.920999526977539 124.61000061035156,-28.472000122070312 101.0719985961914,-28.472000122070312 C77.53399658203125,-28.472000122070312 75.3550033569336,-29.5939998626709 63.35499954223633,-34.428001403808594 C45.19300079345703,-41.74399948120117 35.40399932861328,-40.2760009765625 12.892000198364258,-34.25299835205078 C0.42899999022483826,-30.91900062561035 -17.93000030517578,-47.933998107910156 -47.10499954223633,-32.25299835205078 C-61.86800003051758,-24.31800079345703 -82.24299621582031,-32.32400131225586 -97.29900360107422,-25.81599998474121 C-110.36000061035156,-20.17099952697754 -113.3219985961914,-8.767999649047852 -132.0019989013672,-9.085000038146973 C-153.64500427246094,-9.45199966430664 -161.74600219726562,2.2079999446868896 -167.9429931640625,10.934000015258789 C-174.13999938964844,19.65999984741211 -189.81100463867188,11.932999610900879 -203.88499450683594,39.361000061035156"/></g><g opacity="1" transform="matrix(1,0,0,1,252.49200439453125,264.47100830078125)"><path fill="url(#__lottie_element_12775)" fill-opacity="1" d=" M213.25100708007812,-14.524999618530273 C217.26800537109375,-5.684999942779541 221.20899963378906,9.03499984741211 215.9429931640625,23.601999282836914 C212.27000427246094,33.76300048828125 207.36399841308594,43.01100158691406 188.86500549316406,54.34600067138672 C168.9810028076172,66.52999877929688 163.9949951171875,80.20600128173828 152.34500122070312,82.8759994506836 C133.4550018310547,87.21600341796875 129.4149932861328,84.0260009765625 107.42500305175781,96.80599975585938 C85.73500061035156,109.4260025024414 78.75499725341797,105.08599853515625 47.69499969482422,107.95600128173828 C16.635000228881836,110.82599639892578 2.2049999237060547,125.16600036621094 -25.024999618530273,113.08599853515625 C-52.26499938964844,101.00599670410156 -79.93499755859375,113.28600311279297 -98.1449966430664,103.0459976196289 C-132.2449951171875,83.85600280761719 -143.28500366210938,92.43599700927734 -159.7050018310547,82.8759994506836 C-177.4149932861328,72.55599975585938 -171.97500610351562,59.816001892089844 -195.93499755859375,45.2859992980957 C-211.86500549316406,35.625999450683594 -217.1439971923828,24.691999435424805 -218.2449951171875,13.22599983215332 C-219.20899963378906,3.184000015258789 -217.04400634765625,-5.508999824523926 -214.94500732421875,-11.663999557495117 C-192.43699645996094,-77.66699981689453 -98.34500122070312,-117.85399627685547 -0.375,-117.85399627685547 C115.58499908447266,-117.85399627685547 188.72000122070312,-68.50499725341797 213.25100708007812,-14.524999618530273z"/></g><g opacity="1" transform="matrix(1,0,0,1,249.3179931640625,374.4700012207031)"><path stroke-linecap="round" stroke-linejoin="round" fill-opacity="0" stroke="rgb(142,66,14)" stroke-opacity="1" stroke-width="7" d=" M-194.14999389648438,-30.375999450683594 C-184.46499633789062,-16.638999938964844 -168.12399291992188,-7.959000110626221 -148.91400146484375,-2.436000108718872 C-129.70399475097656,3.0869998931884766 -121.68699645996094,14.020000457763672 -99.33899688720703,19.198999404907227 C-85.97599792480469,22.295000076293945 -58.439998626708984,19.881000518798828 -41.0890007019043,23.257999420166016 C-23.738000869750977,26.635000228881836 -2.6689999103546143,35.31100082397461 26.45599937438965,26.635000228881836 C55.58100128173828,17.958999633789062 79.7490005493164,26.014999389648438 98.95899963378906,19.81800079345703 C118.16899871826172,13.621000289916992 132.42100524902344,-1.1349999904632568 152.25100708007812,-2.431999921798706 C172.08099365234375,-3.7290000915527344 186.46800231933594,-18.381000518798828 194.14999389648438,-29.996000289916992"/></g><g opacity="1" transform="matrix(1,0,0,1,252.49200439453125,264.47100830078125)"><path fill="url(#__lottie_element_12776)" fill-opacity="1" d=" M213.25100708007812,-14.524999618530273 C217.26800537109375,-5.684999942779541 221.20899963378906,9.03499984741211 215.9429931640625,23.601999282836914 C212.27000427246094,33.76300048828125 207.36399841308594,43.01100158691406 188.86500549316406,54.34600067138672 C168.9810028076172,66.52999877929688 163.9949951171875,80.20600128173828 152.34500122070312,82.8759994506836 C133.4550018310547,87.21600341796875 129.4149932861328,84.0260009765625 107.42500305175781,96.80599975585938 C85.73500061035156,109.4260025024414 78.75499725341797,105.08599853515625 47.69499969482422,107.95600128173828 C16.635000228881836,110.82599639892578 2.2049999237060547,125.16600036621094 -25.024999618530273,113.08599853515625 C-52.26499938964844,101.00599670410156 -79.93499755859375,113.28600311279297 -98.1449966430664,103.0459976196289 C-132.2449951171875,83.85600280761719 -143.28500366210938,92.43599700927734 -159.7050018310547,82.8759994506836 C-177.4149932861328,72.55599975585938 -171.97500610351562,59.816001892089844 -195.93499755859375,45.2859992980957 C-211.86500549316406,35.625999450683594 -217.1439971923828,24.691999435424805 -218.2449951171875,13.22599983215332 C-219.20899963378906,3.184000015258789 -217.04400634765625,-5.508999824523926 -214.94500732421875,-11.663999557495117 C-192.43699645996094,-77.66699981689453 -98.34500122070312,-117.85399627685547 -0.375,-117.85399627685547 C115.58499908447266,-117.85399627685547 188.72000122070312,-68.50499725341797 213.25100708007812,-14.524999618530273z"/></g><g opacity="0.3" transform="matrix(1,0,0,1,248.77099609375,215.20399475097656)"><path fill="rgb(255,234,148)" fill-opacity="1" d=" M-70.16300201416016,-50.34199905395508 C-91.21700286865234,-52.04399871826172 -107.55699920654297,-40.084999084472656 -92.77300262451172,-29.89699935913086 C-82.08399963378906,-22.5310001373291 -114.4260025024414,-19.197999954223633 -119.24400329589844,-7.355000019073486 C-123.00399780273438,1.8890000581741333 -97.94999694824219,-3.4240000247955322 -98.16000366210938,3.061000108718872 C-98.38400268554688,9.991000175476074 -110.43099975585938,16.41699981689453 -100.61399841308594,25.49799919128418 C-90.7969970703125,34.57899856567383 -77.04000091552734,33.46699905395508 -73.18099975585938,36.426998138427734 C-69.3219985961914,39.387001037597656 -71.7770004272461,59.13800048828125 -55.82400131225586,59.4119987487793 C-39.87099838256836,59.68600082397461 -26.367000579833984,42.027000427246094 -15.935999870300293,40.7130012512207 C-5.505000114440918,39.39899826049805 9.79699993133545,65.0199966430664 20.993000030517578,64.54100036621094 C33.0989990234375,64.02300262451172 33.652000427246094,46.59400177001953 38.053001403808594,36.426998138427734 C41.59700012207031,28.23900032043457 53.391998291015625,43.85900115966797 71.79900360107422,44.56100082397461 C90.20600128173828,45.26300048828125 84.07099914550781,27.523000717163086 84.07099914550781,19.83300018310547 C84.07099914550781,12.142999649047852 103.86499786376953,21.895000457763672 116.13600158691406,14.949999809265137 C128.40699768066406,8.005000114440918 104.93199920654297,-8.690999984741211 98.18299865722656,-14.032999992370605 C91.43399810791016,-19.375 118.14700317382812,-19.836999893188477 115.0790023803711,-29.98699951171875 C112.01100158691406,-40.137001037597656 98.5530014038086,-40.53499984741211 82.2300033569336,-46.61899948120117 C72.41400146484375,-50.27799987792969 69.34500122070312,-62.111000061035156 52.165000915527344,-62.64500045776367 C34.98500061035156,-63.17900085449219 19.107999801635742,-61.04199981689453 2.503999948501587,-62.64500045776367 C-14.100000381469727,-64.24800109863281 -31.613000869750977,-67.60299682617188 -43.999000549316406,-58.084999084472656 C-51.827999114990234,-52.06800079345703 -51.93199920654297,-48.86899948120117 -70.16300201416016,-50.34199905395508z"/></g><g opacity="0.2" transform="matrix(1,0,0,1,252.49099731445312,272.6159973144531)"><path fill="rgb(192,67,0)" fill-opacity="1" d=" M215.94500732421875,15.461000442504883 C212.27499389648438,25.621000289916992 207.36500549316406,34.861000061035156 188.86500549316406,46.20100021362305 C168.98500061035156,58.38100051879883 163.9949951171875,72.06099700927734 152.34500122070312,74.73100280761719 C133.4550018310547,79.07099914550781 129.4149932861328,75.88099670410156 107.42500305175781,88.66100311279297 C85.73500061035156,101.28099822998047 78.75499725341797,96.94100189208984 47.69499969482422,99.81099700927734 C16.635000228881836,102.68099975585938 2.2049999237060547,117.02100372314453 -25.024999618530273,104.94100189208984 C-52.26499938964844,92.86100006103516 -79.93499755859375,105.14099884033203 -98.1449966430664,94.9010009765625 C-132.2449951171875,75.71099853515625 -143.28500366210938,84.29100036621094 -159.7050018310547,74.73100280761719 C-177.4149932861328,64.41100311279297 -171.97500610351562,51.67100143432617 -195.93499755859375,37.14099884033203 C-211.86500549316406,27.481000900268555 -217.14500427246094,16.551000595092773 -218.2449951171875,5.080999851226807 C-219.2050018310547,-4.959000110626221 -217.0449981689453,-13.659000396728516 -214.94500732421875,-19.80900001525879 C-203.4250030517578,-53.5890007019043 -173.14500427246094,-80.61900329589844 -133.18499755859375,-98.93900299072266 C-136.1649932861328,-97.25900268554688 -205.74099731445312,-72.76499938964844 -198.1580047607422,-19.20199966430664 C-190.98699951171875,31.451000213623047 -94.01399993896484,69.21099853515625 2.315000057220459,67.5009994506836 C106.63800048828125,65.64900207519531 183.5919952392578,24.131999969482422 196.36399841308594,-13.083000183105469 C206.10899353027344,-41.479000091552734 189.53500366210938,-74.79900360107422 105.56500244140625,-109.70899963378906 C160.89500427246094,-90.81900024414062 197.3249969482422,-57.71900177001953 213.2550048828125,-22.66900062561035 C217.26499938964844,-13.829000473022461 221.2050018310547,0.890999972820282 215.94500732421875,15.461000442504883z"/></g><g opacity="0.6" transform="matrix(1,0,0,1,252.49099731445312,249.27200317382812)"><path fill="rgb(255,240,164)" fill-opacity="1" d=" M215.94500732421875,38.80500030517578 C212.27499389648438,48.96500015258789 207.36500549316406,58.20500183105469 188.86500549316406,69.54499816894531 C168.98500061035156,81.7249984741211 163.9949951171875,95.40499877929688 152.34500122070312,98.07499694824219 C151.71499633789062,98.21499633789062 151.11500549316406,98.3550033569336 150.51499938964844,98.48500061035156 C159.68499755859375,94.40499877929688 165.31500244140625,82.74500274658203 182.625,72.23500061035156 C200.51499938964844,61.3849983215332 209.2550048828125,52.525001525878906 212.80499267578125,42.79499816894531 C217.89500427246094,28.844999313354492 212.0850067138672,14.755000114440918 208.2050018310547,6.284999847412109 C184.48500061035156,-45.404998779296875 111.76499938964844,-90.66500091552734 -0.36500000953674316,-90.66500091552734 C-95.09500122070312,-90.66500091552734 -188.0749969482422,-54.17499923706055 -209.84500122070312,9.024999618530273 C-211.875,14.914999961853027 -214.96499633789062,23.2450008392334 -214.03500366210938,32.8650016784668 C-212.96499633789062,43.845001220703125 -211.71800231933594,51.053001403808594 -189.4550018310547,63.564998626708984 C-173.41600036621094,72.5790023803711 -171.55499267578125,89.67500305175781 -154.4250030517578,99.55500030517578 C-152.03500366210938,100.93499755859375 -149.76499938964844,101.91500091552734 -147.51499938964844,102.65499877929688 C-151.5449981689453,101.81500244140625 -155.44500732421875,100.55500030517578 -159.7050018310547,98.07499694824219 C-177.4149932861328,87.75499725341797 -171.97500610351562,75.01499938964844 -195.93499755859375,60.48500061035156 C-211.86500549316406,50.82500076293945 -217.14500427246094,39.89500045776367 -218.2449951171875,28.424999237060547 C-219.2050018310547,18.385000228881836 -217.0449981689453,9.6850004196167 -214.94500732421875,3.5350000858306885 C-192.43499755859375,-62.46500015258789 -98.34500122070312,-102.65499877929688 -0.375,-102.65499877929688 C115.58499908447266,-102.65499877929688 188.71499633789062,-53.30500030517578 213.2550048828125,0.675000011920929 C217.26499938964844,9.515000343322754 221.2050018310547,24.235000610351562 215.94500732421875,38.80500030517578z"/></g><g opacity="1" transform="matrix(1,0,0,1,252.49200439453125,264.47100830078125)"><path stroke-linecap="round" stroke-linejoin="round" fill-opacity="0" stroke="rgb(178,84,15)" stroke-opacity="1" stroke-width="7" d=" M213.25100708007812,-14.524999618530273 C217.26800537109375,-5.684999942779541 221.20899963378906,9.03499984741211 215.9429931640625,23.601999282836914 C212.27000427246094,33.76300048828125 207.36399841308594,43.01100158691406 188.86500549316406,54.34600067138672 C168.9810028076172,66.52999877929688 163.9949951171875,80.20600128173828 152.34500122070312,82.8759994506836 C133.4550018310547,87.21600341796875 129.4149932861328,84.0260009765625 107.42500305175781,96.80599975585938 C85.73500061035156,109.4260025024414 78.75499725341797,105.08599853515625 47.69499969482422,107.95600128173828 C16.635000228881836,110.82599639892578 2.2049999237060547,125.16600036621094 -25.024999618530273,113.08599853515625 C-52.26499938964844,101.00599670410156 -79.93499755859375,113.28600311279297 -98.1449966430664,103.0459976196289 C-132.2449951171875,83.85600280761719 -143.28500366210938,92.43599700927734 -159.7050018310547,82.8759994506836 C-177.4149932861328,72.55599975585938 -171.97500610351562,59.816001892089844 -195.93499755859375,45.2859992980957 C-211.86500549316406,35.625999450683594 -217.1439971923828,24.69300079345703 -218.2449951171875,13.22599983215332 C-219.20899963378906,3.184000015258789 -217.04400634765625,-5.508999824523926 -214.94500732421875,-11.663999557495117 C-192.43699645996094,-77.66699981689453 -98.34500122070312,-117.85399627685547 -0.375,-117.85399627685547 C115.58499908447266,-117.85399627685547 188.72000122070312,-68.50499725341797 213.25100708007812,-14.524999618530273z"/></g><g opacity="1" transform="matrix(1,0,0,1,252.49200439453125,217.34500122070312)"><path stroke-linecap="round" stroke-linejoin="round" fill-opacity="0" stroke="rgb(193,106,20)" stroke-opacity="1" stroke-width="7" d=" M-218.2449951171875,60.35200119018555 C-219.20899963378906,50.310001373291016 -217.04400634765625,41.617000579833984 -214.94500732421875,35.46200180053711 C-192.43699645996094,-30.541000366210938 -98.34500122070312,-70.72799682617188 -0.375,-70.72799682617188 C115.58499908447266,-70.72799682617188 188.72000122070312,-21.378999710083008 213.25100708007812,32.60100173950195 C217.26800537109375,41.441001892089844 221.20899963378906,56.15999984741211 215.9429931640625,70.72799682617188"/></g><g opacity="1" transform="matrix(1,0,0,1,0,0)"><g opacity="1" transform="matrix(1,0,0,1,252.4239959716797,164.46200561523438)"><path fill="rgb(255,238,164)" fill-opacity="1" d=" M1.277999997138977,9.979000091552734 C1.277999997138977,9.979000091552734 7.330999851226807,3.005000114440918 2.753000020980835,-6.456999778747559 C0.02800000086426735,-12.088000297546387 -5.039999961853027,-10.968999862670898 -4.410999774932861,-3.078000068664551 C-3.8570001125335693,3.861999988555908 1.277999997138977,9.979000091552734 1.277999997138977,9.979000091552734z"/></g><g opacity="0.4" transform="matrix(1,0,0,1,187.4929962158203,240.55799865722656)"><path fill="rgb(211,77,0)" fill-opacity="1" d=" M27.072999954223633,-19.38800048828125 C27.07699966430664,-23.430999755859375 -3.109999895095825,-10.730999946594238 -20.242000579833984,4.0279998779296875 C-31.913000106811523,14.081999778747559 -28.673999786376953,27.3700008392334 -10.173999786376953,15.42199993133545 C12.39799976348877,0.843999981880188 27.072999954223633,-19.38800048828125 27.072999954223633,-19.38800048828125z"/></g><g opacity="1" transform="matrix(1,0,0,1,188.6479949951172,241.48399353027344)"><path fill="rgb(255,229,118)" fill-opacity="1" d=" M-10.638999938964844,3.193000078201294 C-20.68899917602539,9.604999542236328 -34.1349983215332,20.972000122070312 -19.378999710083008,20.284000396728516 C-3.247999906539917,19.531999588012695 25.92099952697754,-12.817000389099121 25.91699981689453,-20.31399917602539 C25.91699981689453,-20.31399917602539 -10.638999938964844,3.193000078201294 -10.638999938964844,3.193000078201294z"/></g><g opacity="1" transform="matrix(1,0,0,1,191.5800018310547,238.1999969482422)"><path fill="rgb(142,74,28)" fill-opacity="1" d=" M22.02899932861328,-16.98699951171875 C21.68899917602539,-17.509000778198242 10.862000465393066,-10.354999542236328 0.02800000086426735,-3.0899999141693115 C-12.206999778747559,5.113999843597412 -24.451000213623047,13.732000350952148 -21.614999771118164,16.75 C-19.798999786376953,18.683000564575195 -7.9019999504089355,9.666999816894531 3.4140000343322754,0.4480000138282776 C13.234000205993652,-7.552000045776367 22.02899932861328,-16.98699951171875 22.02899932861328,-16.98699951171875z"/><path stroke-linecap="round" stroke-linejoin="round" fill-opacity="0" stroke="rgb(142,74,28)" stroke-opacity="1" stroke-width="2" d=" M22.02899932861328,-16.98699951171875 C21.68899917602539,-17.509000778198242 10.862000465393066,-10.354999542236328 0.02800000086426735,-3.0899999141693115 C-12.206999778747559,5.113999843597412 -24.451000213623047,13.732000350952148 -21.614999771118164,16.75 C-19.798999786376953,18.683000564575195 -7.9019999504089355,9.666999816894531 3.4140000343322754,0.4480000138282776 C13.234000205993652,-7.552000045776367 22.02899932861328,-16.98699951171875 22.02899932861328,-16.98699951171875z"/></g><g opacity="1" transform="matrix(1,0,0,1,319.9119873046875,241.48399353027344)"><path fill="rgb(255,229,118)" fill-opacity="1" d=" M19.900999069213867,3.1019999980926514 C27.777000427246094,9.62399959564209 32.63999938964844,20.972000122070312 17.884000778198242,20.284000396728516 C1.753000020980835,19.531999588012695 -27.41699981689453,-12.817000389099121 -27.413000106811523,-20.31399917602539 C-27.413000106811523,-20.31399917602539 2.3459999561309814,-11.4350004196167 19.900999069213867,3.1019999980926514z"/></g><g opacity="0.4" transform="matrix(1,0,0,1,319.9620056152344,239.53799438476562)"><path fill="rgb(211,77,0)" fill-opacity="1" d=" M-27.46299934387207,-18.368000030517578 C-27.466999053955078,-22.410999298095703 2.7190001010894775,-9.711000442504883 19.85099983215332,5.047999858856201 C31.52199935913086,15.10200023651123 30.43899917602539,25.798999786376953 11.939000129699707,13.85099983215332 C-10.633000373840332,-0.7269999980926514 -27.46299934387207,-18.368000030517578 -27.46299934387207,-18.368000030517578z"/></g><g opacity="1" transform="matrix(1,0,0,1,315.4840087890625,238.1999969482422)"><path fill="rgb(142,74,28)" fill-opacity="1" d=" M-22.02899932861328,-16.98699951171875 C-21.68899917602539,-17.509000778198242 -10.862000465393066,-10.354999542236328 -0.02800000086426735,-3.0899999141693115 C12.206999778747559,5.113999843597412 24.451000213623047,13.732000350952148 21.614999771118164,16.75 C19.798999786376953,18.683000564575195 7.9019999504089355,9.666999816894531 -3.4140000343322754,0.4480000138282776 C-13.234000205993652,-7.552000045776367 -22.02899932861328,-16.98699951171875 -22.02899932861328,-16.98699951171875z"/><path stroke-linecap="round" stroke-linejoin="round" fill-opacity="0" stroke="rgb(142,74,28)" stroke-opacity="1" stroke-width="2" d=" M-22.02899932861328,-16.98699951171875 C-21.68899917602539,-17.509000778198242 -10.862000465393066,-10.354999542236328 -0.02800000086426735,-3.0899999141693115 C12.206999778747559,5.113999843597412 24.451000213623047,13.732000350952148 21.614999771118164,16.75 C19.798999786376953,18.683000564575195 7.9019999504089355,9.666999816894531 -3.4140000343322754,0.4480000138282776 C-13.234000205993652,-7.552000045776367 -22.02899932861328,-16.98699951171875 -22.02899932861328,-16.98699951171875z"/></g><g opacity="0.4" transform="matrix(1,0,0,1,256.96099853515625,164.718994140625)"><path fill="rgb(211,77,0)" fill-opacity="1" d=" M-2.6689999103546143,9.722000122070312 C13.116999626159668,-4.531000137329102 2.3910000324249268,-18.03700065612793 -5.454999923706055,-3.4149999618530273 C-5.454999923706055,-3.4149999618530273 -2.6689999103546143,9.722000122070312 -2.6689999103546143,9.722000122070312z"/></g><g opacity="1" transform="matrix(1,0,0,1,254.50900268554688,166.1060028076172)"><path fill="rgb(142,74,28)" fill-opacity="1" d=" M-0.4020000100135803,7.593999862670898 C-0.4020000100135803,7.593999862670898 -4.354000091552734,-6.682000160217285 -0.492000013589859,-7.519000053405762 C3.8310000896453857,-8.456000328063965 2.2109999656677246,-0.4189999997615814 -0.4020000100135803,7.593999862670898z"/><path stroke-linecap="round" stroke-linejoin="round" fill-opacity="0" stroke="rgb(142,74,28)" stroke-opacity="1" stroke-width="2" d=" M-0.4020000100135803,7.593999862670898 C-0.4020000100135803,7.593999862670898 -4.354000091552734,-6.682000160217285 -0.492000013589859,-7.519000053405762 C3.8310000896453857,-8.456000328063965 2.2109999656677246,-0.4189999997615814 -0.4020000100135803,7.593999862670898z"/></g><g opacity="1" transform="matrix(1,0,0,1,190.25,175.46800231933594)"><path fill="rgb(255,233,141)" fill-opacity="1" d=" M0.2669999897480011,-6.111000061035156 C-10.640999794006348,-8.902000427246094 -26.322999954223633,-1.1050000190734863 -20.698999404907227,1.2879999876022339 C-14.777000427246094,3.808000087738037 14.829999923706055,8.07800006866455 21.881000518798828,6.27400016784668 C21.881000518798828,6.27400016784668 0.2669999897480011,-6.111000061035156 0.2669999897480011,-6.111000061035156z"/></g><g opacity="0.4" transform="matrix(1,0,0,1,194.9969940185547,174.66900634765625)"><path fill="rgb(211,77,0)" fill-opacity="1" d=" M-14.227999687194824,-1.0549999475479126 C-23.194000244140625,-4.2170000076293945 -11.28499984741211,-9.336999893188477 1.4509999752044678,-5.171999931335449 C14.11400032043457,-1.031000018119812 19.770999908447266,7.482999801635742 16.39299964904785,6.683000087738037 C11.729999542236328,5.578999996185303 -4.008999824523926,2.5490000247955322 -14.227999687194824,-1.0549999475479126z"/></g><g opacity="1" transform="matrix(1,0,0,1,196.85899353027344,176.7550048828125)"><path fill="rgb(142,74,28)" fill-opacity="1" d=" M14.531000137329102,4.5970001220703125 C14.531000137329102,4.5970001220703125 -6.3429999351501465,-6.441999912261963 -14.140999794006348,-4.328000068664551 C-17.284000396728516,-3.4760000705718994 -0.8370000123977661,1.4850000143051147 14.531000137329102,4.5970001220703125z"/><path stroke-linecap="round" stroke-linejoin="round" fill-opacity="0" stroke="rgb(142,74,28)" stroke-opacity="1" stroke-width="2" d=" M14.531000137329102,4.5970001220703125 C14.531000137329102,4.5970001220703125 -6.3429999351501465,-6.441999912261963 -14.140999794006348,-4.328000068664551 C-17.284000396728516,-3.4760000705718994 -0.8370000123977661,1.4850000143051147 14.531000137329102,4.5970001220703125z"/></g><g opacity="1" transform="matrix(1,0,0,1,313.802001953125,174.62100219726562)"><path fill="rgb(255,233,141)" fill-opacity="1" d=" M-0.12399999797344208,-6.636000156402588 C10.581999778747559,-10.121999740600586 24.96500015258789,-3.683000087738037 19.506999969482422,-0.9330000281333923 C13.758999824523926,1.9630000591278076 -13.550000190734863,8.819999694824219 -20.702999114990234,7.4720001220703125 C-20.702999114990234,7.4720001220703125 -0.12399999797344208,-6.636000156402588 -0.12399999797344208,-6.636000156402588z"/></g><g opacity="0.4" transform="matrix(1,0,0,1,310.0589904785156,173.92300415039062)"><path fill="rgb(211,77,0)" fill-opacity="1" d=" M13.619999885559082,-2.315000057220459 C23.226999282836914,-6.386000156402588 12.01099967956543,-11.015999794006348 -2.118000030517578,-4.76800012588501 C-14.12600040435791,0.5419999957084656 -19.56599998474121,8.75100040435791 -16.246000289916992,7.735000133514404 C-11.663999557495117,6.333000183105469 3.6429998874664307,1.9129999876022339 13.619999885559082,-2.315000057220459z"/></g><g opacity="1" transform="matrix(1,0,0,1,307.9410095214844,176.0330047607422)"><path fill="rgb(142,74,28)" fill-opacity="1" d=" M-14.128999710083008,5.625 C-14.128999710083008,5.625 5.797999858856201,-7.093999862670898 13.715999603271484,-5.485000133514404 C16.906999588012695,-4.836999893188477 1.0069999694824219,1.531999945640564 -14.128999710083008,5.625z"/><path stroke-linecap="round" stroke-linejoin="round" fill-opacity="0" stroke="rgb(142,74,28)" stroke-opacity="1" stroke-width="2" d=" M-14.128999710083008,5.625 C-14.128999710083008,5.625 5.797999858856201,-7.093999862670898 13.715999603271484,-5.485000133514404 C16.906999588012695,-4.836999893188477 1.0069999694824219,1.531999945640564 -14.128999710083008,5.625z"/></g></g><g opacity="1" transform="matrix(1,0,0,1,0,0)"><g opacity="0.15" transform="matrix(1,0,0,1,243.29400634765625,360.6199951171875)"><path fill="rgb(193,89,5)" fill-opacity="1" d=" M7.4770002365112305,-2.3289999961853027 C2.3480000495910645,-7.34499979019165 -10.086000442504883,-1.1390000581741333 -7.703999996185303,2.8310000896453857 C-5.322000026702881,6.801000118255615 11.130000114440918,1.24399995803833 7.4770002365112305,-2.3289999961853027z"/></g><g opacity="0.15" transform="matrix(1,0,0,1,190.79200744628906,349.2179870605469)"><path fill="rgb(193,89,5)" fill-opacity="1" d=" M8.020000457763672,2.7090001106262207 C10.220999717712402,-4.046999931335449 -6.6529998779296875,-9.916000366210938 -8.119999885559082,-2.5799999237060547 C-9.586999893188477,4.75600004196167 5.818999767303467,9.46500015258789 8.020000457763672,2.7090001106262207z"/></g><g opacity="0.3" transform="matrix(1,0,0,1,168.36900329589844,279.75201416015625)"><path fill="rgb(255,234,148)" fill-opacity="1" d=" M8.010000228881836,0.5699999928474426 C4.877999782562256,-4.519000053405762 -8.265999794006348,-5.302000045776367 -8.348999977111816,-0.6039999723434448 C-8.432000160217285,4.093999862670898 11.142000198364258,5.658999919891357 8.010000228881836,0.5699999928474426z"/></g><g opacity="0.15" transform="matrix(1,0,0,1,107.60199737548828,337.8489990234375)"><path fill="rgb(193,89,5)" fill-opacity="1" d=" M8.967000007629395,-0.5379999876022339 C8.291999816894531,-5.7220001220703125 -9.008000373840332,-5.488999843597412 -9.008000373840332,-0.5379999876022339 C-9.008000373840332,4.413000106811523 9.994000434875488,7.349999904632568 8.967000007629395,-0.5379999876022339z"/></g><g opacity="0.15" transform="matrix(1,0,0,1,92.01399993896484,311.27099609375)"><path fill="rgb(193,89,5)" fill-opacity="1" d=" M-1.850000023841858,-4.791999816894531 C-7.175000190734863,-3.6570000648498535 -1.850000023841858,5.163000106811523 2.1019999980926514,4.88100004196167 C6.053999900817871,4.598999977111816 3.7960000038146973,-5.995999813079834 -1.850000023841858,-4.791999816894531z"/></g><g opacity="0.15" transform="matrix(1,0,0,1,53.11800003051758,283.739990234375)"><path fill="rgb(193,89,5)" fill-opacity="1" d=" M-0.5090000033378601,-7.125999927520752 C-8.82699966430664,-5.7769999504089355 -2.5980000495910645,7.179999828338623 1.5809999704360962,7.179999828338623 C5.760000228881836,7.179999828338623 6.10699987411499,-8.199000358581543 -0.5090000033378601,-7.125999927520752z"/></g><g opacity="0.15" transform="matrix(1,0,0,1,75.52799987792969,268.64801025390625)"><path fill="rgb(193,89,5)" fill-opacity="1" d=" M-0.593999981880188,-4.177000045776367 C-3.753999948501587,-4.300000190734863 -5.103000164031982,1.0850000381469727 -0.593999981880188,3.742000102996826 C3.9149999618530273,6.3979997634887695 5.7179999351501465,-3.931999921798706 -0.593999981880188,-4.177000045776367z"/></g><g opacity="0.15" transform="matrix(1,0,0,1,67.21600341796875,243.2899932861328)"><path fill="rgb(193,89,5)" fill-opacity="1" d=" M2.555000066757202,-5.343999862670898 C-0.5180000066757202,-7.328000068664551 -6.26200008392334,2.2060000896453857 -2.6059999465942383,5.125999927520752 C1.0499999523162842,8.045999526977539 6.1570000648498535,-3.0190000534057617 2.555000066757202,-5.343999862670898z"/></g><g opacity="0.3" transform="matrix(1,0,0,1,102.98500061035156,210.89999389648438)"><path fill="rgb(255,234,148)" fill-opacity="1" d=" M2.934999942779541,-4.25600004196167 C-3.7730000019073486,-5.374000072479248 -9.362000465393066,3.5460000038146973 -3.0269999504089355,4.302999973297119 C3.308000087738037,5.059999942779541 9.642999649047852,-3.138000011444092 2.934999942779541,-4.25600004196167z"/></g><g opacity="0.3" transform="matrix(1,0,0,1,127.72799682617188,229.84800720214844)"><path fill="rgb(255,234,148)" fill-opacity="1" d=" M1.4140000343322754,-2.5380001068115234 C-4.204999923706055,-1.875 -6.514999866485596,2.7780001163482666 -1.0420000553131104,2.571000099182129 C4.431000232696533,2.364000082015991 6.124000072479248,-3.0940001010894775 1.4140000343322754,-2.5380001068115234z"/></g><g opacity="0.3" transform="matrix(1,0,0,1,115.93299865722656,245.30799865722656)"><path fill="rgb(255,234,148)" fill-opacity="1" d=" M-1.3650000095367432,-2.0179998874664307 C-4.019000053405762,-2.0179998874664307 -2.125,2.0179998874664307 0.6759999990463257,2.0179998874664307 C3.4769999980926514,2.0179998874664307 3.678999900817871,-2.0179998874664307 -1.3650000095367432,-2.0179998874664307z"/></g><g opacity="0.3" transform="matrix(1,0,0,1,375.7919921875,198.6790008544922)"><path fill="rgb(255,234,148)" fill-opacity="1" d=" M-1.3660000562667847,-2.0179998874664307 C-4.019999980926514,-2.0179998874664307 -2.125,2.0179998874664307 0.6759999990463257,2.0179998874664307 C3.4769999980926514,2.0179998874664307 3.677999973297119,-2.0179998874664307 -1.3660000562667847,-2.0179998874664307z"/></g><g opacity="0.15" transform="matrix(1,0,0,1,424.6499938964844,299.27099609375)"><path fill="rgb(193,89,5)" fill-opacity="1" d=" M-1.8509999513626099,-3.6530001163482666 C-9.737000465393066,-3.26200008392334 -7.859000205993652,4.985000133514404 1.9049999713897705,3.4830000400543213 C11.668999671936035,1.9809999465942383 4.757999897003174,-3.9800000190734863 -1.8509999513626099,-3.6530001163482666z"/></g><g opacity="0.15" transform="matrix(1,0,0,1,301.5509948730469,341.614013671875)"><path fill="rgb(193,89,5)" fill-opacity="1" d=" M-2.0209999084472656,-4.449999809265137 C-11.480999946594238,-5.419000148773193 -7.375,3.9679999351501465 1.6859999895095825,4.495999813079834 C10.746999740600586,5.02400016784668 8.715999603271484,-3.3499999046325684 -2.0209999084472656,-4.449999809265137z"/></g><g opacity="0.15" transform="matrix(1,0,0,1,264.1669921875,329.8039855957031)"><path fill="rgb(193,89,5)" fill-opacity="1" d=" M-1.75600004196167,-3.885999917984009 C-7.525000095367432,-4.942999839782715 -11.20199966430664,4.565000057220459 0.9430000185966492,3.937999963760376 C13.088000297546387,3.311000108718872 4.703000068664551,-2.7019999027252197 -1.75600004196167,-3.885999917984009z"/></g><g opacity="0.15" transform="matrix(1,0,0,1,294.1390075683594,357.864990234375)"><path fill="rgb(193,89,5)" fill-opacity="1" d=" M-2.2760000228881836,-2.674999952316284 C-7.232999801635742,-1.9789999723434448 -3.2219998836517334,3.125 1.8559999465942383,2.755000114440918 C6.934000015258789,2.384999990463257 4.381999969482422,-3.609999895095825 -2.2760000228881836,-2.674999952316284z"/></g><g opacity="0.15" transform="matrix(1,0,0,1,452.44000244140625,285.90301513671875)"><path fill="rgb(193,89,5)" fill-opacity="1" d=" M-0.4169999957084656,-6.1519999504089355 C-6.072000026702881,-4.738999843597412 -5.9120001792907715,6.7820000648498535 -0.4169999957084656,6.323999881744385 C5.078000068664551,5.866000175476074 7.367000102996826,-8.095999717712402 -0.4169999957084656,-6.1519999504089355z"/></g><g opacity="0.15" transform="matrix(1,0,0,1,342.11199951171875,335.2770080566406)"><path fill="rgb(193,89,5)" fill-opacity="1" d=" M-0.4169999957084656,-6.1519999504089355 C-6.072000026702881,-4.738999843597412 -5.9120001792907715,6.7820000648498535 -0.4169999957084656,6.323999881744385 C5.078000068664551,5.866000175476074 7.367000102996826,-8.095999717712402 -0.4169999957084656,-6.1519999504089355z"/></g><g opacity="0.15" transform="matrix(1,0,0,1,403.7149963378906,325.83599853515625)"><path fill="rgb(193,89,5)" fill-opacity="1" d=" M3.8929998874664307,-4.303999900817871 C-3.75600004196167,-2.8610000610351562 -10.302000045776367,1.9859999418258667 -2.9760000705718994,4.10699987411499 C4.349999904632568,6.228000164031982 9.279999732971191,-5.320000171661377 3.8929998874664307,-4.303999900817871z"/></g><g opacity="0.15" transform="matrix(1,0,0,1,455.00201416015625,261.5899963378906)"><path fill="rgb(193,89,5)" fill-opacity="1" d=" M-2.562000036239624,-4.057000160217285 C-6.868000030517578,-3.2090001106262207 -2.5869998931884766,3.7960000038146973 2.0369999408721924,4.160999774932861 C6.660999774932861,4.526000022888184 3.921999931335449,-5.334000110626221 -2.562000036239624,-4.057000160217285z"/></g><g opacity="0.3" transform="matrix(1,0,0,1,391.3940124511719,219.3280029296875)"><path fill="rgb(255,234,148)" fill-opacity="1" d=" M-3.4739999771118164,-4.5 C-11.4350004196167,-4.171999931335449 -1.0709999799728394,4.9070000648498535 4.369999885559082,4.492000102996826 C9.810999870300293,4.077000141143799 3.1679999828338623,-4.77400016784668 -3.4739999771118164,-4.5z"/></g></g></g><g style="display: block;" transform="matrix(0.8881000280380249,0,0,0.8881000280380249,31.31007957458496,14.531377792358398)" opacity="1"><g opacity="1" transform="matrix(1,0,0,1,227.46299743652344,121.64700317382812)"><path fill="url(#__lottie_element_12753)" fill-opacity="1" d=" M37.90700149536133,85.21900177001953 C24.658000946044922,80.8030014038086 33.124000549316406,67.51799774169922 30.142000198364258,50.44900131225586 C27.160999298095703,33.380001068115234 11.354999542236328,29.586999893188477 -3.184999942779541,20.104000091552734 C-17.725000381469727,10.621000289916992 -23.415000915527344,4.298999786376953 -10.138999938964844,-8.97700023651123 C3.13700008392334,-22.253000259399414 -11.402999877929688,-26.04599952697754 -21.51799964904785,-35.52899932861328 C-31.632999420166016,-45.012001037597656 -25.836000442504883,-50.512001037597656 -39.733001708984375,-60.183998107910156 C-56.486000061035156,-71.84400177001953 -17.475000381469727,-97.5469970703125 12.619999885559082,-82.31099700927734 C28.711999893188477,-74.16500091552734 16.44499969482422,-54.60499954223633 5.836999893188477,-53.94200134277344 C-3.7100000381469727,-53.345001220703125 -7.698999881744385,-67.91999816894531 -11.923999786376953,-62.058998107910156 C-17.2549991607666,-54.66299819946289 -12.03499984741211,-38.68899917602539 6.297999858856201,-24.7810001373291 C24.631000518798828,-10.873000144958496 -0.656000018119812,-1.6490000486373901 -0.656000018119812,4.802000045776367 C-0.656000018119812,11.253000259399414 33.481998443603516,25.160999298095703 36.643001556396484,37.17300033569336 C39.80400085449219,49.185001373291016 35.37900161743164,72.57599639892578 36.643001556396484,78.89800262451172 C37.90700149536133,85.22000122070312 51.18299865722656,89.64399719238281 37.90700149536133,85.21900177001953z"/></g><g opacity="1" transform="matrix(1,0,0,1,268.7090148925781,121.1240005493164)"><path fill="url(#__lottie_element_12754)" fill-opacity="1" d=" M6.27400016784668,58.930999755859375 C5.117000102996826,61.68899917602539 11.013999938964844,56.50899887084961 13.973999977111816,50.16299819946289 C16.632999420166016,44.4640007019043 8.173999786376953,42.387001037597656 21.42099952697754,34.604000091552734 C32.95899963378906,27.825000762939453 17.097999572753906,22.670000076293945 1.5880000591278076,11.654000282287598 C-13.92199993133545,0.6380000114440918 7.191999912261963,-10.836999893188477 -4.742000102996826,-24.148000717163086 C-16.676000595092773,-37.45899963378906 0.5649999976158142,-45.26100158691406 10.303999900817871,-41.5890007019043 C20.042999267578125,-37.91699981689453 -1.3539999723434448,-30.792999267578125 8.394000053405762,-28.2810001373291 C28.10700035095215,-23.200000762939453 43.9119987487793,-57.19499969482422 11.322999954223633,-59.4900016784668 C-21.266000747680664,-61.78499984741211 -38.42599868774414,-43.74300003051758 -26.033000946044922,-32.268001556396484 C-13.640000343322754,-20.792999267578125 -4.742000102996826,-10.133000373840332 -18.05299949645996,-0.3869999945163727 C-31.36400032043457,9.359000205993652 -7.495999813079834,17.621000289916992 3.9790000915527344,22.670000076293945 C15.454000473022461,27.7189998626709 13.61400032043457,36.33300018310547 4.896999835968018,39.194000244140625 C-3.819999933242798,42.05500030517578 12.241000175476074,44.70199966430664 6.27400016784668,58.930999755859375z"/></g><g opacity="1" transform="matrix(1,0,0,1,188.43899536132812,112.01799774169922)"><path fill="url(#__lottie_element_12755)" fill-opacity="1" d=" M-20.020999908447266,-4.270999908447266 C-22.084999084472656,-12.295000076293945 -10.586999893188477,-22.819000244140625 3.9089999198913574,-20.57900047302246 C18.405000686645508,-18.339000701904297 27.718000411987305,0.996999979019165 12.348999977111816,5.328999996185303 C-3.0199999809265137,9.66100025177002 6.442999839782715,16.031999588012695 4.321000099182129,20.156999588012695 C2.1989998817443848,24.281999588012695 -15.284000396728516,9.967000007629395 -3.756999969482422,0.3009999990463257 C7.769999980926514,-9.364999771118164 -6.890999794006348,-9.515999794006348 -12.463000297546387,-5.491000175476074 C-15.970999717712402,-2.9570000171661377 -18.079999923706055,3.2769999504089355 -20.020999908447266,-4.270999908447266z"/></g></g></g></svg>