<svg xmlns="http://www.w3.org/2000/svg" xmlns:xlink="http://www.w3.org/1999/xlink" viewBox="0 0 512 512" width="512" height="512" style="width: 100%; height: 100%; transform: translate3d(0,0,0);" preserveAspectRatio="xMidYMid meet"><defs><clipPath id="__lottie_element_42970"><rect width="512" height="512" x="0" y="0"/></clipPath><radialGradient id="__lottie_element_43000" spreadMethod="pad" gradientUnits="userSpaceOnUse" cx="-1.4249999523162842" cy="-51.93000030517578" r="207.7720000743866" fx="-1.4249999523162842" fy="-51.93000030517578"><stop offset="6%" stop-color="rgb(181,126,76)"/><stop offset="55%" stop-color="rgb(147,93,39)"/><stop offset="100%" stop-color="rgb(113,59,2)"/></radialGradient><linearGradient id="__lottie_element_43001" spreadMethod="pad" gradientUnits="userSpaceOnUse" x1="-0.42500001192092896" y1="180.07000732421875" x2="2.066999912261963" y2="130.0260009765625"><stop offset="14%" stop-color="rgb(59,31,15)" stop-opacity="1"/><stop offset="57%" stop-color="rgb(59,31,15)" stop-opacity="0.5"/><stop offset="91%" stop-color="rgb(59,31,15)" stop-opacity="0"/></linearGradient><radialGradient id="__lottie_element_43002" spreadMethod="pad" gradientUnits="userSpaceOnUse" cx="-1.444000005722046" cy="1.319000005722046" r="66.09280892435928" fx="-1.444000005722046" fy="1.319000005722046"><stop offset="21%" stop-color="rgb(255,212,181)" stop-opacity="1"/><stop offset="65%" stop-color="rgb(255,212,181)" stop-opacity="0.5"/><stop offset="100%" stop-color="rgb(255,212,181)" stop-opacity="0"/></radialGradient><radialGradient id="__lottie_element_43003" spreadMethod="pad" gradientUnits="userSpaceOnUse" cx="0.9779999852180481" cy="0.17000000178813934" r="65.65876510595531" fx="0.9779999852180481" fy="0.17000000178813934"><stop offset="21%" stop-color="rgb(255,212,181)" stop-opacity="1"/><stop offset="65%" stop-color="rgb(255,212,181)" stop-opacity="0.5"/><stop offset="100%" stop-color="rgb(255,212,181)" stop-opacity="0"/></radialGradient><radialGradient id="__lottie_element_43004" spreadMethod="pad" gradientUnits="userSpaceOnUse" cx="0.5370000004768372" cy="0.004999999888241291" r="65.44666684636893" fx="0.5370000004768372" fy="0.004999999888241291"><stop offset="21%" stop-color="rgb(255,212,181)" stop-opacity="1"/><stop offset="65%" stop-color="rgb(255,212,181)" stop-opacity="0.5"/><stop offset="100%" stop-color="rgb(255,212,181)" stop-opacity="0"/></radialGradient><linearGradient id="__lottie_element_43005" spreadMethod="pad" gradientUnits="userSpaceOnUse" x1="-0.42500001192092896" y1="-159.9320068359375" x2="-0.42500001192092896" y2="178.7259979248047"><stop offset="21%" stop-color="rgb(255,212,181)" stop-opacity="1"/><stop offset="60%" stop-color="rgb(255,234,218)" stop-opacity="0.6000000238418579"/><stop offset="100%" stop-color="rgb(255,255,255)" stop-opacity="0.20000000298023224"/></linearGradient><radialGradient id="__lottie_element_43006" spreadMethod="pad" gradientUnits="userSpaceOnUse" cx="-5.756999969482422" cy="78.97699737548828" r="133.63863617541304" fx="-5.756999969482422" fy="78.97699737548828"><stop offset="33%" stop-color="rgb(59,31,15)" stop-opacity="1"/><stop offset="60%" stop-color="rgb(59,31,15)" stop-opacity="0.5"/><stop offset="84%" stop-color="rgb(59,31,15)" stop-opacity="0"/></radialGradient><radialGradient id="__lottie_element_43009" spreadMethod="pad" gradientUnits="userSpaceOnUse" cx="-0.26600000262260437" cy="-1.1369999647140503" r="85.39270694937964" fx="-0.26600000262260437" fy="-1.1369999647140503"><stop offset="44%" stop-color="rgb(235,192,132)"/><stop offset="77%" stop-color="rgb(207,163,103)"/><stop offset="100%" stop-color="rgb(178,135,73)"/></radialGradient><radialGradient id="__lottie_element_43012" spreadMethod="pad" gradientUnits="userSpaceOnUse" cx="-0.5009999871253967" cy="-15.89799976348877" r="52.47715025212613" fx="-0.5009999871253967" fy="-15.89799976348877"><stop offset="13%" stop-color="rgb(51,51,51)"/><stop offset="61%" stop-color="rgb(26,26,26)"/><stop offset="100%" stop-color="rgb(0,0,0)"/></radialGradient><radialGradient id="__lottie_element_43013" spreadMethod="pad" gradientUnits="userSpaceOnUse" cx="-0.5450000166893005" cy="1.9800000190734863" r="44.982134141470915" fx="-0.5450000166893005" fy="1.9800000190734863"><stop offset="0%" stop-color="rgb(255,255,255)" stop-opacity="1"/><stop offset="41%" stop-color="rgb(255,255,255)" stop-opacity="0.5"/><stop offset="100%" stop-color="rgb(255,255,255)" stop-opacity="0"/></radialGradient><linearGradient id="__lottie_element_43017" spreadMethod="pad" gradientUnits="userSpaceOnUse"><stop/><stop/><stop/></linearGradient><linearGradient id="__lottie_element_43018" spreadMethod="pad" gradientUnits="userSpaceOnUse"><stop/><stop/><stop/></linearGradient><linearGradient id="__lottie_element_43019" spreadMethod="pad" gradientUnits="userSpaceOnUse"><stop/><stop/><stop/><stop/><stop/></linearGradient><linearGradient id="__lottie_element_43020" spreadMethod="pad" gradientUnits="userSpaceOnUse"><stop/><stop/><stop/></linearGradient><linearGradient id="__lottie_element_43021" spreadMethod="pad" gradientUnits="userSpaceOnUse"><stop/><stop/><stop/></linearGradient><radialGradient id="__lottie_element_43025" spreadMethod="pad" gradientUnits="userSpaceOnUse" cx="-0.5649999976158142" cy="0.3970000147819519" r="42.92956541396489" fx="-0.5649999976158142" fy="0.3970000147819519"><stop offset="7%" stop-color="rgb(59,31,15)" stop-opacity="1"/><stop offset="61%" stop-color="rgb(59,31,15)" stop-opacity="0.5"/><stop offset="100%" stop-color="rgb(59,31,15)" stop-opacity="0"/></radialGradient><radialGradient id="__lottie_element_43026" spreadMethod="pad" gradientUnits="userSpaceOnUse" cx="-0.5630000233650208" cy="2.7690000534057617" r="19.538055253936317" fx="-0.5630000233650208" fy="2.7690000534057617"><stop offset="0%" stop-color="rgb(255,255,255)" stop-opacity="1"/><stop offset="61%" stop-color="rgb(255,255,255)" stop-opacity="0.5"/><stop offset="100%" stop-color="rgb(255,255,255)" stop-opacity="0"/></radialGradient><linearGradient id="__lottie_element_43027" spreadMethod="pad" gradientUnits="userSpaceOnUse" x1="-0.8209999799728394" y1="-6.166999816894531" x2="-0.8209999799728394" y2="11.78499984741211"><stop offset="0%" stop-color="rgb(255,255,255)" stop-opacity="1"/><stop offset="32%" stop-color="rgb(255,255,255)" stop-opacity="0.5"/><stop offset="100%" stop-color="rgb(255,255,255)" stop-opacity="0"/></linearGradient><radialGradient id="__lottie_element_43031" spreadMethod="pad" gradientUnits="userSpaceOnUse" cx="-0.28200000524520874" cy="0.29600000381469727" r="42.82189804338549" fx="-0.28200000524520874" fy="0.29600000381469727"><stop offset="7%" stop-color="rgb(59,31,15)" stop-opacity="1"/><stop offset="61%" stop-color="rgb(59,31,15)" stop-opacity="0.5"/><stop offset="100%" stop-color="rgb(59,31,15)" stop-opacity="0"/></radialGradient><radialGradient id="__lottie_element_43032" spreadMethod="pad" gradientUnits="userSpaceOnUse" cx="-0.5630000233650208" cy="2.7690000534057617" r="19.538055253936317" fx="-0.5630000233650208" fy="2.7690000534057617"><stop offset="0%" stop-color="rgb(255,255,255)" stop-opacity="1"/><stop offset="61%" stop-color="rgb(255,255,255)" stop-opacity="0.5"/><stop offset="100%" stop-color="rgb(255,255,255)" stop-opacity="0"/></radialGradient><linearGradient id="__lottie_element_43033" spreadMethod="pad" gradientUnits="userSpaceOnUse" x1="-0.8209999799728394" y1="-6.166999816894531" x2="-0.8209999799728394" y2="11.78499984741211"><stop offset="0%" stop-color="rgb(255,255,255)" stop-opacity="1"/><stop offset="32%" stop-color="rgb(255,255,255)" stop-opacity="0.5"/><stop offset="100%" stop-color="rgb(255,255,255)" stop-opacity="0"/></linearGradient><linearGradient id="__lottie_element_43037" spreadMethod="pad" gradientUnits="userSpaceOnUse" x1="-0.22100000083446503" y1="-11.58899974822998" x2="-0.22100000083446503" y2="12.067000389099121"><stop offset="25%" stop-color="rgb(234,191,131)"/><stop offset="50%" stop-color="rgb(210,167,107)"/><stop offset="86%" stop-color="rgb(185,143,83)"/></linearGradient><linearGradient id="__lottie_element_43042" spreadMethod="pad" gradientUnits="userSpaceOnUse" x1="-55.7760009765625" y1="-55.30099868774414" x2="4.5289998054504395" y2="1.2740000486373901"><stop offset="0%" stop-color="rgb(176,107,47)"/><stop offset="49%" stop-color="rgb(156,96,42)"/><stop offset="81%" stop-color="rgb(136,86,36)"/></linearGradient><linearGradient id="__lottie_element_43043" spreadMethod="pad" gradientUnits="userSpaceOnUse" x1="-76.38999938964844" y1="-0.33000001311302185" x2="75.9800033569336" y2="-0.33000001311302185"><stop offset="16%" stop-color="rgb(255,204,150)" stop-opacity="1"/><stop offset="58%" stop-color="rgb(255,204,150)" stop-opacity="0.5"/><stop offset="100%" stop-color="rgb(255,204,150)" stop-opacity="0"/></linearGradient><radialGradient id="__lottie_element_43044" spreadMethod="pad" gradientUnits="userSpaceOnUse" cx="-0.47200000286102295" cy="-0.9729999899864197" r="67.41600024700165" fx="-0.47200000286102295" fy="-0.9729999899864197"><stop offset="17%" stop-color="rgb(210,142,112)"/><stop offset="72%" stop-color="rgb(155,98,65)"/><stop offset="100%" stop-color="rgb(99,55,18)"/></radialGradient><linearGradient id="__lottie_element_43048" spreadMethod="pad" gradientUnits="userSpaceOnUse" x1="-55.7760009765625" y1="-55.30099868774414" x2="4.5289998054504395" y2="1.2740000486373901"><stop offset="0%" stop-color="rgb(176,107,47)"/><stop offset="49%" stop-color="rgb(156,96,42)"/><stop offset="81%" stop-color="rgb(136,86,36)"/></linearGradient><linearGradient id="__lottie_element_43049" spreadMethod="pad" gradientUnits="userSpaceOnUse" x1="-76.38999938964844" y1="-0.33000001311302185" x2="75.9800033569336" y2="-0.33000001311302185"><stop offset="16%" stop-color="rgb(255,204,150)" stop-opacity="1"/><stop offset="58%" stop-color="rgb(255,204,150)" stop-opacity="0.5"/><stop offset="100%" stop-color="rgb(255,204,150)" stop-opacity="0"/></linearGradient><radialGradient id="__lottie_element_43050" spreadMethod="pad" gradientUnits="userSpaceOnUse" cx="-0.47200000286102295" cy="-0.9729999899864197" r="67.41600024700165" fx="-0.47200000286102295" fy="-0.9729999899864197"><stop offset="17%" stop-color="rgb(210,142,112)"/><stop offset="72%" stop-color="rgb(155,98,65)"/><stop offset="100%" stop-color="rgb(99,55,18)"/></radialGradient></defs><g clip-path="url(#__lottie_element_42970)"><g style="display: block;" transform="matrix(0.8899281620979309,-0.0006691836169920862,0.0006691836169920862,0.8899281620979309,28.338912963867188,21.59758186340332)" opacity="1"><g opacity="1" transform="matrix(1,0,0,1,124.7760009765625,138.30099487304688)"><path fill="url(#__lottie_element_43048)" fill-opacity="1" d=" M76.56600189208984,-50.698001861572266 C46.64899826049805,-83.64199829101562 -1.9769999980926514,-104.58000183105469 -44.35100173950195,-75.64199829101562 C-85.35099792480469,-47.641998291015625 -80.53700256347656,3.440000057220459 -66.35099792480469,35.358001708984375 C-50.35100173950195,71.35800170898438 -29.35099983215332,89.35800170898438 -29.35099983215332,89.35800170898438 C-29.35099983215332,89.35800170898438 76.56600189208984,-50.698001861572266 76.56600189208984,-50.698001861572266z"/></g><g opacity="0.4" transform="matrix(1,0,0,1,124.38999938964844,90.33000183105469)"><path fill="url(#__lottie_element_43049)" fill-opacity="1" d=" M76.18499755859375,-3.5820000171661377 C76.18499755859375,-3.5820000171661377 75.375,-0.6420000195503235 75.375,-0.6420000195503235 C75.375,-0.6420000195503235 72.50499725341797,9.79800033569336 72.50499725341797,9.79800033569336 C72.50499725341797,9.79800033569336 69.48500061035156,7.1479997634887695 69.48500061035156,7.1479997634887695 C69.48500061035156,7.1479997634887695 67.75,19.839000701904297 67.75,19.839000701904297 C67.75,19.839000701904297 38.72100067138672,-33.224998474121094 -9.656000137329102,-28.59000015258789 C-70.7249984741211,-22.73900032043457 -76.05500030517578,41.38800048828125 -76.05500030517578,41.38800048828125 C-76.05500030517578,41.38800048828125 -76.09500122070312,40.6879997253418 -76.09500122070312,40.6879997253418 C-77.13500213623047,15.727999687194824 -69.29499816894531,-10.371999740600586 -43.96500015258789,-27.672000885009766 C-1.9550000429153442,-56.36199951171875 46.19499969482422,-36.03200149536133 76.18499755859375,-3.5820000171661377z"/></g><g opacity="1" transform="matrix(1,0,0,1,124.7760009765625,138.30099487304688)"><path stroke-linecap="round" stroke-linejoin="round" fill-opacity="0" stroke="rgb(124,68,21)" stroke-opacity="1" stroke-width="8" d=" M76.56600189208984,-50.698001861572266 C46.64899826049805,-83.64199829101562 -1.9769999980926514,-104.58000183105469 -44.35100173950195,-75.64199829101562 C-85.35099792480469,-47.641998291015625 -80.53700256347656,3.440000057220459 -66.35099792480469,35.358001708984375 C-50.35100173950195,71.35800170898438 -29.35099983215332,89.35800170898438 -29.35099983215332,89.35800170898438 C-29.35099983215332,89.35800170898438 76.56600189208984,-50.698001861572266 76.56600189208984,-50.698001861572266z"/></g><g opacity="1" transform="matrix(1,0,0,1,72.36199951171875,184.73899841308594)"><path stroke-linecap="round" stroke-linejoin="round" fill-opacity="0" stroke="rgb(97,48,14)" stroke-opacity="1" stroke-width="8" d=" M-23.062999725341797,-42.91999816894531 C-21.42799949645996,-31.37299919128418 -18.08300018310547,-20.408000946044922 -13.937000274658203,-11.079999923706055 C2.062999963760376,24.920000076293945 23.062999725341797,42.91999816894531 23.062999725341797,42.91999816894531"/></g><g opacity="1" transform="matrix(1,0,0,1,0,0)"><g opacity="1" transform="matrix(1,0,0,1,127.47200012207031,141.97300720214844)"><path fill="url(#__lottie_element_43050)" fill-opacity="1" d=" M56.869998931884766,-37.35900115966797 C41.952999114990234,-61.314998626708984 -0.33399999141693115,-84.7300033569336 -34.98099899291992,-60.415000915527344 C-65.0469970703125,-39.314998626708984 -59.04100036621094,5.09499979019165 -47.047000885009766,26.684999465942383 C-27.047000885009766,62.685001373291016 -10.04699993133545,70.68499755859375 -10.04699993133545,70.68499755859375 C-10.04699993133545,70.68499755859375 56.869998931884766,-37.35900115966797 56.869998931884766,-37.35900115966797z"/></g><g opacity="0.2" transform="matrix(1,0,0,1,128.0290069580078,92.57099914550781)"><path fill="rgb(86,48,12)" fill-opacity="1" d=" M-49.71799850463867,4.4710001945495605 C-9.631999969482422,-24.756999969482422 22.684999465942383,21.243999481201172 22.684999465942383,21.243999481201172 C22.684999465942383,21.243999481201172 49.71799850463867,3.4159998893737793 49.71799850463867,3.4159998893737793 C49.71799850463867,3.4159998893737793 30.820999145507812,-23.812999725341797 -8.538999557495117,-21.04599952697754 C-39.53300094604492,-18.867000579833984 -49.71799850463867,4.4710001945495605 -49.71799850463867,4.4710001945495605z"/></g><g opacity="1" transform="matrix(1,0,0,1,127.47200012207031,141.97300720214844)"><path stroke-linecap="round" stroke-linejoin="round" fill-opacity="0" stroke="rgb(59,31,15)" stroke-opacity="1" stroke-width="8" d=" M56.869998931884766,-37.35900115966797 C41.952999114990234,-61.314998626708984 -0.33399999141693115,-84.7300033569336 -34.98099899291992,-60.415000915527344 C-65.0469970703125,-39.314998626708984 -59.04100036621094,5.09499979019165 -47.047000885009766,26.684999465942383 C-27.047000885009766,62.685001373291016 -10.04699993133545,70.68499755859375 -10.04699993133545,70.68499755859375 C-10.04699993133545,70.68499755859375 56.869998931884766,-37.35900115966797 56.869998931884766,-37.35900115966797z"/></g></g></g><g style="display: block;" transform="matrix(-0.8899281620979309,0.0006691836169920862,0.0006691836169920862,0.8899281620979309,484.5907897949219,21.254514694213867)" opacity="1"><g opacity="1" transform="matrix(1,0,0,1,124.7760009765625,138.30099487304688)"><path fill="url(#__lottie_element_43042)" fill-opacity="1" d=" M86.2750015258789,-37.810001373291016 C52.60599899291992,-85.0260009765625 -1.9769999980926514,-104.58000183105469 -44.35100173950195,-75.64199829101562 C-85.35099792480469,-47.641998291015625 -80.53700256347656,3.440000057220459 -66.35099792480469,35.358001708984375 C-50.35100173950195,71.35800170898438 -29.35099983215332,89.35800170898438 -29.35099983215332,89.35800170898438 C-29.35099983215332,89.35800170898438 86.2750015258789,-37.810001373291016 86.2750015258789,-37.810001373291016z"/></g><g opacity="0.4" transform="matrix(1,0,0,1,124.38999938964844,90.33000183105469)"><path fill="url(#__lottie_element_43043)" fill-opacity="1" d=" M85.89399719238281,9.307000160217285 C85.89399719238281,9.307000160217285 85.08399963378906,12.246999740600586 85.08399963378906,12.246999740600586 C85.08399963378906,12.246999740600586 72.50499725341797,9.79800033569336 72.50499725341797,9.79800033569336 C72.50499725341797,9.79800033569336 69.48500061035156,7.1479997634887695 69.48500061035156,7.1479997634887695 C69.48500061035156,7.1479997634887695 67.75,19.839000701904297 67.75,19.839000701904297 C67.75,19.839000701904297 38.72100067138672,-33.224998474121094 -9.656000137329102,-28.59000015258789 C-70.7249984741211,-22.73900032043457 -76.05500030517578,41.38800048828125 -76.05500030517578,41.38800048828125 C-76.05500030517578,41.38800048828125 -76.09500122070312,40.6879997253418 -76.09500122070312,40.6879997253418 C-77.13500213623047,15.727999687194824 -69.29499816894531,-10.371999740600586 -43.96500015258789,-27.672000885009766 C-1.9550000429153442,-56.36199951171875 49.310001373291016,-39.04199981689453 85.89399719238281,9.307000160217285z"/></g><g opacity="1" transform="matrix(1,0,0,1,124.7760009765625,138.30099487304688)"><path stroke-linecap="round" stroke-linejoin="round" fill-opacity="0" stroke="rgb(124,68,21)" stroke-opacity="1" stroke-width="8" d=" M86.79199981689453,-37.827999114990234 C53.65599822998047,-84.53299713134766 -1.9769999980926514,-104.58000183105469 -44.35100173950195,-75.64199829101562 C-85.35099792480469,-47.641998291015625 -80.53700256347656,3.440000057220459 -66.35099792480469,35.358001708984375 C-50.35100173950195,71.35800170898438 -29.35099983215332,89.35800170898438 -29.35099983215332,89.35800170898438 C-29.35099983215332,89.35800170898438 86.79199981689453,-37.827999114990234 86.79199981689453,-37.827999114990234z"/></g><g opacity="1" transform="matrix(1,0,0,1,72.36199951171875,184.73899841308594)"><path stroke-linecap="round" stroke-linejoin="round" fill-opacity="0" stroke="rgb(97,48,14)" stroke-opacity="1" stroke-width="8" d=" M-23.062999725341797,-42.91999816894531 C-21.42799949645996,-31.37299919128418 -18.08300018310547,-20.408000946044922 -13.937000274658203,-11.079999923706055 C2.062999963760376,24.920000076293945 23.062999725341797,42.91999816894531 23.062999725341797,42.91999816894531"/></g><g opacity="1" transform="matrix(1,0,0,1,0,0)"><g opacity="1" transform="matrix(1,0,0,1,127.47200012207031,141.97300720214844)"><path fill="url(#__lottie_element_43044)" fill-opacity="1" d=" M56.869998931884766,-37.35900115966797 C41.952999114990234,-61.314998626708984 -0.33399999141693115,-84.7300033569336 -34.98099899291992,-60.415000915527344 C-65.0469970703125,-39.314998626708984 -59.04100036621094,5.09499979019165 -47.047000885009766,26.684999465942383 C-27.047000885009766,62.685001373291016 -10.04699993133545,70.68499755859375 -10.04699993133545,70.68499755859375 C-10.04699993133545,70.68499755859375 56.869998931884766,-37.35900115966797 56.869998931884766,-37.35900115966797z"/></g><g opacity="0.2" transform="matrix(1,0,0,1,128.0290069580078,92.57099914550781)"><path fill="rgb(86,48,12)" fill-opacity="1" d=" M-49.71799850463867,4.4710001945495605 C-9.631999969482422,-24.756999969482422 22.684999465942383,21.243999481201172 22.684999465942383,21.243999481201172 C22.684999465942383,21.243999481201172 49.71799850463867,3.4159998893737793 49.71799850463867,3.4159998893737793 C49.71799850463867,3.4159998893737793 30.820999145507812,-23.812999725341797 -8.538999557495117,-21.04599952697754 C-39.53300094604492,-18.867000579833984 -49.71799850463867,4.4710001945495605 -49.71799850463867,4.4710001945495605z"/></g><g opacity="1" transform="matrix(1,0,0,1,127.47200012207031,141.97300720214844)"><path stroke-linecap="round" stroke-linejoin="round" fill-opacity="0" stroke="rgb(59,31,15)" stroke-opacity="1" stroke-width="8" d=" M56.869998931884766,-37.35900115966797 C41.952999114990234,-61.314998626708984 -0.33399999141693115,-84.7300033569336 -34.98099899291992,-60.415000915527344 C-65.0469970703125,-39.314998626708984 -59.04100036621094,5.09499979019165 -47.047000885009766,26.684999465942383 C-27.047000885009766,62.685001373291016 -10.04699993133545,70.68499755859375 -10.04699993133545,70.68499755859375 C-10.04699993133545,70.68499755859375 56.869998931884766,-37.35900115966797 56.869998931884766,-37.35900115966797z"/></g></g></g><g style="display: block;" transform="matrix(0.8899281620979309,-0.0006691836169920862,0.0006691836169920862,0.8899281620979309,28.339807510375977,21.59758186340332)" opacity="1"><g opacity="1" transform="matrix(1,0,0,1,255.4250030517578,269.92999267578125)"><path fill="url(#__lottie_element_43000)" fill-opacity="1" d=" M223,41.72800064086914 C214,-6.271999835968018 185.2220001220703,-19.95800018310547 167,-66.27200317382812 C143,-127.27200317382812 103,-189.3249969482422 0,-189.3249969482422 C-103,-189.3249969482422 -143,-127.27200317382812 -167,-66.27200317382812 C-185.2220001220703,-19.95800018310547 -214,-6.271999835968018 -223,41.72800064086914 C-230.02499389648438,79.19300079345703 -217,149.72799682617188 -154,177.72799682617188 C-100.87300109863281,201.33999633789062 0,181.5850067138672 0,181.5850067138672 C0,181.5850067138672 100.87300109863281,201.33999633789062 154,177.72799682617188 C217,149.72799682617188 230.02499389648438,79.19300079345703 223,41.72800064086914z"/></g><g opacity="0.4" transform="matrix(1,0,0,1,255.4250030517578,269.92999267578125)"><path fill="url(#__lottie_element_43001)" fill-opacity="1" d=" M223,41.72800064086914 C214,-6.271999835968018 185.2220001220703,-19.95800018310547 167,-66.27200317382812 C143,-127.27200317382812 103,-189.3249969482422 0,-189.3249969482422 C-103,-189.3249969482422 -143,-127.27200317382812 -167,-66.27200317382812 C-185.2220001220703,-19.95800018310547 -214,-6.271999835968018 -223,41.72800064086914 C-230.02499389648438,79.19300079345703 -217,149.72799682617188 -154,177.72799682617188 C-100.87300109863281,201.33999633789062 0,181.5850067138672 0,181.5850067138672 C0,181.5850067138672 100.87300109863281,201.33999633789062 154,177.72799682617188 C217,149.72799682617188 230.02499389648438,79.19300079345703 223,41.72800064086914z"/></g><g opacity="0.3" transform="matrix(1.6699999570846558,0,0,1,258,188)"><path fill="url(#__lottie_element_43002)" fill-opacity="1" d=" M0,-66.55899810791016 C36.75899887084961,-66.55899810791016 66.55899810791016,-36.75899887084961 66.55899810791016,0 C66.55899810791016,36.75899887084961 36.75899887084961,66.55899810791016 0,66.55899810791016 C-36.75899887084961,66.55899810791016 -66.55899810791016,36.75899887084961 -66.55899810791016,0 C-66.55899810791016,-36.75899887084961 -36.75899887084961,-66.55899810791016 0,-66.55899810791016z"/></g><g opacity="0.2" transform="matrix(1,0,0,1,99.69000244140625,347.51800537109375)"><path fill="url(#__lottie_element_43003)" fill-opacity="1" d=" M29.856000900268555,66.40799713134766 C-4.794000148773193,77.69499969482422 -46.250999450683594,57.112998962402344 -62.7400016784668,20.437000274658203 C-79.22899627685547,-16.23900032043457 -64.50599670410156,-55.12099838256836 -29.856000900268555,-66.40799713134766 C4.794000148773193,-77.69499969482422 46.250999450683594,-57.112998962402344 62.7400016784668,-20.437000274658203 C79.22899627685547,16.23900032043457 64.50599670410156,55.12099838256836 29.856000900268555,66.40799713134766z"/></g><g opacity="0.2" transform="matrix(1,0,0,1,414.5249938964844,347.51800537109375)"><path fill="url(#__lottie_element_43004)" fill-opacity="1" d=" M-29.856000900268555,66.40799713134766 C4.794000148773193,77.69499969482422 46.250999450683594,57.112998962402344 62.7400016784668,20.437000274658203 C79.22899627685547,-16.23900032043457 64.50599670410156,-55.12099838256836 29.856000900268555,-66.40799713134766 C-4.794000148773193,-77.69499969482422 -46.250999450683594,-57.112998962402344 -62.7400016784668,-20.437000274658203 C-79.22899627685547,16.23900032043457 -64.50599670410156,55.12099838256836 -29.856000900268555,66.40799713134766z"/></g><g opacity="0.2" transform="matrix(1,0,0,1,255.4250030517578,269.9320068359375)"><path fill="url(#__lottie_element_43005)" fill-opacity="1" d=" M223,41.72700119018555 C214,-6.2729997634887695 185.22000122070312,-19.96299934387207 167,-66.27300262451172 C143,-127.27300262451172 103,-189.322998046875 0,-189.322998046875 C-103,-189.322998046875 -143,-127.27300262451172 -167,-66.27300262451172 C-185.22000122070312,-19.96299934387207 -214,-6.2729997634887695 -223,41.72700119018555 C-230.02000427246094,79.1969985961914 -217,149.7270050048828 -154,177.7270050048828 C-100.87000274658203,201.33700561523438 0,181.58700561523438 0,181.58700561523438 C0,181.58700561523438 100.87000274658203,201.33700561523438 154,177.7270050048828 C217,149.7270050048828 230.02000427246094,79.1969985961914 223,41.72700119018555z M139.00999450683594,164.43699645996094 C91.05999755859375,185.7469940185547 0,167.91700744628906 0,167.91700744628906 C0,167.91700744628906 -91.05999755859375,185.7469940185547 -139.00999450683594,164.43699645996094 C-195.8800048828125,139.15699768066406 -207.63999938964844,75.48699951171875 -201.3000030517578,41.66699981689453 C-193.17999267578125,-1.6629999876022339 -167.1999969482422,-14.012999534606934 -150.75,-55.823001861572266 C-129.0800018310547,-110.89299774169922 -92.9800033569336,-166.9029998779297 0,-166.9029998779297 C92.9800033569336,-166.9029998779297 129.0800018310547,-110.89299774169922 150.75,-55.823001861572266 C167.1999969482422,-14.012999534606934 193.17999267578125,-1.6629999876022339 201.3000030517578,41.66699981689453 C207.63999938964844,75.48699951171875 195.8800048828125,139.15699768066406 139.00999450683594,164.43699645996094z"/></g><g opacity="0.4" transform="matrix(1,0,0,1,255.4250030517578,386.0820007324219)"><path fill="url(#__lottie_element_43006)" fill-opacity="1" d=" M154,61.57699966430664 C100.87000274658203,85.18699645996094 0,65.43699645996094 0,65.43699645996094 C0,65.43699645996094 -100.87000274658203,85.18699645996094 -154,61.57699966430664 C-216.30999755859375,33.887001037597656 -229.72999572753906,-35.40299987792969 -223.22000122070312,-73.1729965209961 C-218.00999450683594,-37.62300109863281 -198.44000244140625,0.296999990940094 -154,20.047000885009766 C-100.87000274658203,43.66699981689453 0,23.906999588012695 0,23.906999588012695 C0,23.906999588012695 100.87000274658203,43.66699981689453 154,20.047000885009766 C198.44000244140625,0.296999990940094 218.00999450683594,-37.62300109863281 223.22000122070312,-73.1729965209961 C229.72999572753906,-35.40299987792969 216.30999755859375,33.887001037597656 154,61.57699966430664z"/></g><g opacity="1" transform="matrix(1,0,0,1,255.4250030517578,269.92999267578125)"><path stroke-linecap="round" stroke-linejoin="round" fill-opacity="0" stroke="rgb(81,42,16)" stroke-opacity="1" stroke-width="8" d=" M0,-189.3249969482422 C-103,-189.3249969482422 -143,-127.27200317382812 -167,-66.27200317382812 C-185.2220001220703,-19.95800018310547 -214,-6.271999835968018 -223,41.72800064086914 C-230.02499389648438,79.19300079345703 -217,149.72799682617188 -154,177.72799682617188 C-100.87300109863281,201.33999633789062 0,181.5850067138672 0,181.5850067138672 C0,181.5850067138672 100.87300109863281,201.33999633789062 154,177.72799682617188 C217,149.72799682617188 230.02499389648438,79.19300079345703 223,41.72800064086914 C214,-6.271999835968018 185.2220001220703,-19.95800018310547 167,-66.27200317382812 C143,-127.27200317382812 103,-189.3249969482422 0,-189.3249969482422z"/><path stroke-linecap="round" stroke-linejoin="round" fill-opacity="0" stroke-dasharray=" 466 614" stroke-dashoffset="623" stroke="rgb(43,21,10)" stroke-opacity="1" stroke-width="8" d=" M0,-189.3249969482422 C-103,-189.3249969482422 -143,-127.27200317382812 -167,-66.27200317382812 C-185.2220001220703,-19.95800018310547 -214,-6.271999835968018 -223,41.72800064086914 C-230.02499389648438,79.19300079345703 -217,149.72799682617188 -154,177.72799682617188 C-100.87300109863281,201.33999633789062 0,181.5850067138672 0,181.5850067138672 C0,181.5850067138672 100.87300109863281,201.33999633789062 154,177.72799682617188 C217,149.72799682617188 230.02499389648438,79.19300079345703 223,41.72800064086914 C214,-6.271999835968018 185.2220001220703,-19.95800018310547 167,-66.27200317382812 C143,-127.27200317382812 103,-189.3249969482422 0,-189.3249969482422z"/></g></g><g style="display: block;" transform="matrix(0.8899281620979309,-0.0006691836169920862,0.0006691836169920862,0.8899281620979309,28.338544845581055,21.607685089111328)" opacity="1"><g opacity="1" transform="matrix(1,0,0,1,256.22100830078125,465.5889892578125)"><path fill="url(#__lottie_element_43037)" fill-opacity="1" d=" M48.125,-8.493000030517578 C37.487998962402344,7.7210001945495605 16.65999984741211,15.532999992370605 1.2079999446868896,15.532999992370605 C-14.244000434875488,15.532999992370605 -34.78900146484375,8.678000450134277 -48.125,-8.267999649047852 C-48.125,-8.267999649047852 1.2029999494552612,-15.532999992370605 1.2029999494552612,-15.532999992370605 C1.2029999494552612,-15.532999992370605 48.125,-8.493000030517578 48.125,-8.493000030517578z"/></g><g opacity="1" transform="matrix(1,0,0,1,256.22100830078125,469.6090087890625)"><path stroke-linecap="round" stroke-linejoin="round" fill-opacity="0" stroke="rgb(153,102,52)" stroke-opacity="1" stroke-width="8" d=" M-48.125,-11.288000106811523 C-34.78900146484375,5.6579999923706055 -14.244000434875488,11.512999534606934 1.2079999446868896,11.512999534606934 C16.65999984741211,11.512999534606934 37.487998962402344,4.701000213623047 48.125,-11.512999534606934"/></g></g><g style="display: block;" transform="matrix(0.8899281620979309,-0.0006691836169920862,0.0006691836169920862,0.8899281620979309,28.33982276916504,21.623546600341797)" opacity="1"><g opacity="1" transform="matrix(1,0,0,1,257.2659912109375,389.3139953613281)"><path fill="url(#__lottie_element_43009)" fill-opacity="1" d=" M70.04199981689453,-7.298999786376953 C94.36100006103516,5.7210001945495605 98.28675079345703,44.27964401245117 76.32475280761719,61.64164352416992 C56.97374725341797,76.93964385986328 0.1597474366426468,60.73164367675781 0.1597474366426468,60.73164367675781 C0.1597474366426468,60.73164367675781 -56.655250549316406,76.93964385986328 -76.0062484741211,61.64164352416992 C-97.96825408935547,44.27964401245117 -94.99800109863281,6.604000091552734 -69.7249984741211,-7.298999786376953 C-13.748000144958496,-38.09299850463867 -15.595000267028809,-68.2229995727539 0.164000004529953,-68.2229995727539 C16.218000411987305,-68.2229995727539 12.52299976348877,-38.09299850463867 70.04199981689453,-7.298999786376953z"/></g><g opacity="0.4" transform="matrix(1,0,0,1,257.42999267578125,414.2120056152344)"><path fill="rgb(255,243,213)" fill-opacity="1" d=" M46.506351470947266,-18.1392765045166 C43.688350677490234,-28.44835090637207 33.669349670410156,-37.287841796875 0.0013501002686098218,-37.287841796875 C-33.666648864746094,-37.287841796875 -43.68564987182617,-28.44835090637207 -46.5036506652832,-18.1392765045166 C-48.980648040771484,-9.077847480773926 -39.90755844116211,4.195943832397461 -28.778560638427734,16.106565475463867 C-18.401559829711914,27.21341323852539 -6.2366485595703125,37.29899597167969 -0.004648325964808464,37.29899597167969 C-0.004648325964808464,37.29899597167969 -0.004648325964808464,37.27899932861328 -0.004648325964808464,37.27899932861328 C-0.004648325964808464,37.27899932861328 0.007350100204348564,37.29899597167969 0.007350100204348564,37.29899597167969 C6.239350318908691,37.29899597167969 18.40372657775879,27.213207244873047 28.78072738647461,16.106359481811523 C39.909725189208984,4.195737838745117 48.98335266113281,-9.077847480773926 46.506351470947266,-18.1392765045166z"/></g><g opacity="1" transform="matrix(1,0,0,1,257.2619934082031,389.3139953613281)"><path stroke-linecap="round" stroke-linejoin="round" fill-opacity="0" stroke-dasharray=" 379 0" stroke-dashoffset="222" stroke="rgb(153,102,52)" stroke-opacity="1" stroke-width="8" d=" M70.0469970703125,-8.298999786376953 C94.36599731445312,4.7210001945495605 97.291748046875,44.27964401245117 75.32975006103516,61.64164352416992 C55.9787483215332,76.93964385986328 0.16374900937080383,60.73164367675781 0.16374900937080383,60.73164367675781 C0.16374900937080383,60.73164367675781 -55.65125274658203,76.93964385986328 -75.00225067138672,61.64164352416992 C-96.96424865722656,44.27964401245117 -94.99400329589844,5.604000091552734 -69.72100067138672,-8.298999786376953 C-13.744000434875488,-39.09299850463867 -18.257999420166016,-68.2229995727539 0.1679999977350235,-68.2229995727539 C18.88800048828125,-68.2229995727539 12.527999877929688,-39.09299850463867 70.0469970703125,-8.298999786376953z"/></g></g><g style="display: block;" transform="matrix(0.8899281620979309,-0.0006691836169920862,0.0006691836169920862,0.8899281620979309,28.339794158935547,21.59760856628418)" opacity="1"><g opacity="0.6" transform="matrix(0.9700000286102295,0,0,1.3394427299499512,181.29940795898438,305.826904296875)"><path fill="url(#__lottie_element_43031)" fill-opacity="1" d=" M0,-42.72999954223633 C23.599000930786133,-42.72999954223633 42.72999954223633,-23.599000930786133 42.72999954223633,0 C42.72999954223633,23.599000930786133 23.599000930786133,42.72999954223633 0,42.72999954223633 C-23.599000930786133,42.72999954223633 -42.72999954223633,23.599000930786133 -42.72999954223633,0 C-42.72999954223633,-23.599000930786133 -23.599000930786133,-42.72999954223633 0,-42.72999954223633z"/></g><g opacity="0.1" transform="matrix(1,0,0,1,179.8209991455078,310.4549865722656)"><path fill="rgb(0,0,0)" fill-opacity="1" d=" M22.282442092895508,0.0010478830663487315 C22.282442092895508,21.023048400878906 12.300000190734863,38.0629997253418 0,38.0629997253418 C-12.300000190734863,38.0629997253418 -22.281965255737305,21.022693634033203 -22.281965255737305,0.0006928858929313719 C-22.281965255737305,-21.02130699157715 -12.301833152770996,-38.0195198059082 -0.0018327260622754693,-38.0195198059082 C12.29816722869873,-38.0195198059082 22.282442092895508,-21.020952224731445 22.282442092895508,0.0010478830663487315z"/></g><g opacity="0.4" transform="matrix(1,0,0,1,179.8209991455078,325.2770080566406)"><path fill="rgb(255,215,146)" fill-opacity="1" d=" M22.282421112060547,0 C22.282421112060547,21.02199935913086 12.306289672851562,38.0629997253418 0.00119116494897753,38.0629997253418 C-12.30390739440918,38.0629997253418 -22.28003692626953,21.02199935913086 -22.28003692626953,0 C-22.28003692626953,-21.02199935913086 -12.305451393127441,-38.02638244628906 -0.0003528585657477379,-38.02638244628906 C12.3047456741333,-38.02638244628906 22.282421112060547,-21.02199935913086 22.282421112060547,0z"/></g><g opacity="1" transform="matrix(1,0,0,1,0,0)"><g opacity="1" transform="matrix(1,0,0,1,180.0050048828125,317.8659973144531)"><path fill="rgb(0,0,0)" fill-opacity="1" d=" M22.280399322509766,0 C22.280399322509766,21.02199935913086 12.304640769958496,38.0629997253418 0,38.0629997253418 C-12.304640769958496,38.0629997253418 -22.280399322509766,21.02199935913086 -22.280399322509766,0 C-22.280399322509766,-21.02199935913086 -12.301993370056152,-38.01572799682617 0.0026475084014236927,-38.01572799682617 C12.30728816986084,-38.01572799682617 22.280399322509766,-21.02199935913086 22.280399322509766,0z"/></g><g opacity="0.29975017708010127" transform="matrix(1,0,0,0.9995722770690918,180.0044403076172,330.4306945800781)"><path fill="url(#__lottie_element_43032)" fill-opacity="1" d=" M16.89299964904785,0 C16.89299964904785,11.489999771118164 9.329999923706055,20.804000854492188 0,20.804000854492188 C-9.329999923706055,20.804000854492188 -16.89299964904785,11.489999771118164 -16.89299964904785,0 C-16.89299964904785,-11.489999771118164 -9.329999923706055,-20.804000854492188 0,-20.804000854492188 C9.329999923706055,-20.804000854492188 16.89299964904785,-11.489999771118164 16.89299964904785,0z"/></g><g opacity="1" transform="matrix(1.0007270574569702,0,0,0.9989948868751526,179.81976318359375,297.1961669921875)"><path fill="url(#__lottie_element_43033)" fill-opacity="1" d=" M0.1770000010728836,6.639999866485596 C-4.394000053405762,6.690999984741211 -7.534999847412109,8.34000015258789 -9.524999618530273,8.49899959564209 C-11.609000205993652,8.664999961853027 -12.428999900817871,7.285999774932861 -12.307000160217285,4.796000003814697 C-11.987000465393066,-1.7519999742507935 -5.903920650482178,-8.537421226501465 0.17707912623882294,-8.537421226501465 C6.027079105377197,-8.537421226501465 12.616999626159668,-2.7090001106262207 12.309000015258789,4.756999969482422 C12.211999893188477,7.111999988555908 11.331000328063965,8.607000350952148 9.630999565124512,8.543000221252441 C7.631999969482422,8.468000411987305 4.500999927520752,6.591000080108643 0.1770000010728836,6.639999866485596z"/></g></g></g><g style="display: block;" transform="matrix(-0.8899281620979309,0.0006691836169920862,0.0006691836169920862,0.8899281620979309,485.6258239746094,21.253755569458008)" opacity="1"><g opacity="0.6" transform="matrix(0.9700000286102295,0,0,1.3394427299499512,181.50115966796875,306.515380859375)"><path fill="url(#__lottie_element_43025)" fill-opacity="1" d=" M0,-42.72999954223633 C23.599000930786133,-42.72999954223633 42.72999954223633,-23.599000930786133 42.72999954223633,0 C42.72999954223633,23.599000930786133 23.599000930786133,42.72999954223633 0,42.72999954223633 C-23.599000930786133,42.72999954223633 -42.72999954223633,23.599000930786133 -42.72999954223633,0 C-42.72999954223633,-23.599000930786133 -23.599000930786133,-42.72999954223633 0,-42.72999954223633z"/></g><g opacity="0.1" transform="matrix(1,0,0,1,179.8209991455078,310.4549865722656)"><path fill="rgb(0,0,0)" fill-opacity="1" d=" M22.282442092895508,0.0010478830663487315 C22.282442092895508,21.023048400878906 12.300000190734863,38.0629997253418 0,38.0629997253418 C-12.300000190734863,38.0629997253418 -22.281965255737305,21.022693634033203 -22.281965255737305,0.0006928858929313719 C-22.281965255737305,-21.02130699157715 -12.301833152770996,-38.0195198059082 -0.0018327260622754693,-38.0195198059082 C12.29816722869873,-38.0195198059082 22.282442092895508,-21.020952224731445 22.282442092895508,0.0010478830663487315z"/></g><g opacity="0.4" transform="matrix(1,0,0,1,179.8209991455078,325.2770080566406)"><path fill="rgb(255,215,146)" fill-opacity="1" d=" M22.282421112060547,0 C22.282421112060547,21.02199935913086 12.306289672851562,38.0629997253418 0.00119116494897753,38.0629997253418 C-12.30390739440918,38.0629997253418 -22.28003692626953,21.02199935913086 -22.28003692626953,0 C-22.28003692626953,-21.02199935913086 -12.305451393127441,-38.02638244628906 -0.0003528585657477379,-38.02638244628906 C12.3047456741333,-38.02638244628906 22.282421112060547,-21.02199935913086 22.282421112060547,0z"/></g><g opacity="1" transform="matrix(1,0,0,1,0,0)"><g opacity="1" transform="matrix(1,0,0,1,180.0050048828125,317.8659973144531)"><path fill="rgb(0,0,0)" fill-opacity="1" d=" M22.280399322509766,0 C22.280399322509766,21.02199935913086 12.304640769958496,38.0629997253418 0,38.0629997253418 C-12.304640769958496,38.0629997253418 -22.280399322509766,21.02199935913086 -22.280399322509766,0 C-22.280399322509766,-21.02199935913086 -12.301993370056152,-38.01572799682617 0.0026475084014236927,-38.01572799682617 C12.30728816986084,-38.01572799682617 22.280399322509766,-21.02199935913086 22.280399322509766,0z"/></g><g opacity="0.29975017708010127" transform="matrix(1,0,0,0.9995722770690918,180.0044403076172,330.4306945800781)"><path fill="url(#__lottie_element_43026)" fill-opacity="1" d=" M16.89299964904785,0 C16.89299964904785,11.489999771118164 9.329999923706055,20.804000854492188 0,20.804000854492188 C-9.329999923706055,20.804000854492188 -16.89299964904785,11.489999771118164 -16.89299964904785,0 C-16.89299964904785,-11.489999771118164 -9.329999923706055,-20.804000854492188 0,-20.804000854492188 C9.329999923706055,-20.804000854492188 16.89299964904785,-11.489999771118164 16.89299964904785,0z"/></g><g opacity="1" transform="matrix(1.0007270574569702,0,0,0.9989948868751526,179.81976318359375,297.1961669921875)"><path fill="url(#__lottie_element_43027)" fill-opacity="1" d=" M0.1770000010728836,6.639999866485596 C-4.394000053405762,6.690999984741211 -7.534999847412109,8.34000015258789 -9.524999618530273,8.49899959564209 C-11.609000205993652,8.664999961853027 -12.428999900817871,7.285999774932861 -12.307000160217285,4.796000003814697 C-11.987000465393066,-1.7519999742507935 -5.903920650482178,-8.537421226501465 0.17707912623882294,-8.537421226501465 C6.027079105377197,-8.537421226501465 12.616999626159668,-2.7090001106262207 12.309000015258789,4.756999969482422 C12.211999893188477,7.111999988555908 11.331000328063965,8.607000350952148 9.630999565124512,8.543000221252441 C7.631999969482422,8.468000411987305 4.500999927520752,6.591000080108643 0.1770000010728836,6.639999866485596z"/></g></g></g><g style="display: block;" transform="matrix(0.8899281620979309,-0.0006691836169920862,0.0006691836169920862,0.8899281620979309,28.33982276916504,21.623546600341797)" opacity="1"><g opacity="0.2" transform="matrix(1,0,0,1,257.42999267578125,404.89801025390625)"><path fill="rgb(136,88,36)" fill-opacity="1" d=" M46.505001068115234,-18.82699966430664 C43.6870002746582,-29.52400016784668 33.667999267578125,-38.69599914550781 0,-38.69599914550781 C-33.667999267578125,-38.69599914550781 -43.6870002746582,-29.52400016784668 -46.505001068115234,-18.82699966430664 C-48.981998443603516,-9.425000190734863 -39.90299987792969,4.341000080108643 -28.77400016784668,16.700000762939453 C-18.39699935913086,28.225000381469727 -6.23799991607666,38.69599914550781 -0.006000000052154064,38.69599914550781 C-0.006000000052154064,38.69599914550781 -0.006000000052154064,38.67599868774414 -0.006000000052154064,38.67599868774414 C-0.006000000052154064,38.67599868774414 0.006000000052154064,38.69599914550781 0.006000000052154064,38.69599914550781 C6.23799991607666,38.69599914550781 18.39699935913086,28.225000381469727 28.77400016784668,16.700000762939453 C39.90299987792969,4.341000080108643 48.981998443603516,-9.425000190734863 46.505001068115234,-18.82699966430664z"/></g><g opacity="1" transform="matrix(1,0,0,1,257.42999267578125,408.5799865722656)"><path fill="url(#__lottie_element_43012)" fill-opacity="1" d=" M46.505001068115234,-17.41900062561035 C43.6870002746582,-26.982999801635742 33.667999267578125,-34.013999938964844 0,-34.013999938964844 C-33.667999267578125,-34.013999938964844 -43.6870002746582,-26.982999801635742 -46.505001068115234,-17.41900062561035 C-48.981998443603516,-9.01200008392334 -39.90299987792969,3.2960000038146973 -28.77400016784668,14.345999717712402 C-18.39699935913086,24.649999618530273 -6.23799991607666,34.013999938964844 -0.006000000052154064,34.013999938964844 C-0.006000000052154064,34.013999938964844 -0.006000000052154064,33.99599838256836 -0.006000000052154064,33.99599838256836 C-0.006000000052154064,33.99599838256836 0.006000000052154064,34.013999938964844 0.006000000052154064,34.013999938964844 C6.23799991607666,34.013999938964844 18.39699935913086,24.649999618530273 28.77400016784668,14.345999717712402 C39.90299987792969,3.2960000038146973 48.981998443603516,-9.01200008392334 46.505001068115234,-17.41900062561035z"/></g><g opacity="0.4" transform="matrix(1,0,0,1,256.5320129394531,389.6910095214844)"><path fill="url(#__lottie_element_43013)" fill-opacity="1" d=" M35.76100158691406,1.4630000591278076 C25.493000030517578,-7.400000095367432 -26.94700050354004,-7.179999828338623 -36.263999938964844,2.86899995803833 C-39.305999755859375,6.150000095367432 -30.735000610351562,4.548999786376953 0.328000009059906,4.548999786376953 C32.66699981689453,4.548999786376953 39.95899963378906,5.085999965667725 35.76100158691406,1.4630000591278076z"/></g></g></g></svg>