<svg xmlns="http://www.w3.org/2000/svg" xmlns:xlink="http://www.w3.org/1999/xlink" viewBox="0 0 512 512" width="512" height="512" style="width: 100%; height: 100%; transform: translate3d(0,0,0);" preserveAspectRatio="xMidYMid meet"><defs><clipPath id="__lottie_element_9206"><rect width="512" height="512" x="0" y="0"/></clipPath><linearGradient id="__lottie_element_9225" spreadMethod="pad" gradientUnits="userSpaceOnUse" x1="-246" y1="1" x2="243" y2="0"><stop offset="0%" stop-color="rgb(0,0,0)"/><stop offset="25%" stop-color="rgb(0,0,0)"/><stop offset="50%" stop-color="rgb(0,0,0)"/><stop offset="75%" stop-color="rgb(0,0,0)"/><stop offset="100%" stop-color="rgb(0,0,0)"/></linearGradient><mask id="__lottie_element_9227"><path fill="url(#__lottie_element_9226)" d=" M-246.5,-145.5 C-246.5,-139 -246.5,144.218994140625 -246.5,146.593994140625 C-244.71200561523438,146.76499938964844 -241.55099487304688,147.5780029296875 -237.75900268554688,148.50999450683594 C-220.5,152.75 -191.07200622558594,159.75999450683594 -178.26499938964844,161.58399963378906 C-147.25,166 -127.13200378417969,165.62600708007812 -103.76799774169922,164.74600219726562 C-50.75,162.75 -4.125,146.125 27.19499969482422,139.3300018310547 C47.95800018310547,134.8249969482422 68.79000091552734,130.64500427246094 83.74700164794922,128.94000244140625 C106.25,126.375 122.875,126.75 143.25,128.35899353027344 C183.33700561523438,131.52499389648438 217.79400634765625,139.2030029296875 241.43800354003906,147.031005859375 C241.43800354003906,147.09300231933594 241.406005859375,147.09300231933594 241.406005859375,147.06199645996094 C241.406005859375,147.06199645996094 241.406005859375,147.06199645996094 241.406005859375,147.06199645996094 C241.56199645996094,120.56199645996094 241.23399353027344,82.29100036621094 241.25,49.90599822998047 C241.26600646972656,17.08300018310547 241.43699645996094,-15.739999771118164 241.5,-48.5629997253418 C241.56199645996094,-80.91699981689453 241.5,-128.75 241.625,-145.625 C151.281005859375,-172.5 103.15699768066406,-165.1009979248047 78.5,-162.81199645996094 C23.042999267578125,-156.04600524902344 -48.707000732421875,-130.79600524902344 -83.375,-129.06199645996094 C-157.875,-120.1240005493164 -212.75,-139.625 -246.5,-145.5z"/></mask><linearGradient id="__lottie_element_9226" spreadMethod="pad" gradientUnits="userSpaceOnUse" x1="-246" y1="1" x2="243" y2="0"><stop stop-color="rgb(255,255,255)" offset="0%" stop-opacity="1"/><stop stop-color="rgb(255,255,255)" offset="17%" stop-opacity="0.5"/><stop stop-color="rgb(255,255,255)" offset="33%" stop-opacity="0"/><stop stop-color="rgb(255,255,255)" offset="50%" stop-opacity="0"/><stop stop-color="rgb(255,255,255)" offset="66%" stop-opacity="0"/><stop stop-color="rgb(255,255,255)" offset="83%" stop-opacity="0.5"/><stop stop-color="rgb(255,255,255)" offset="100%" stop-opacity="1"/></linearGradient></defs><g clip-path="url(#__lottie_element_9206)"><g style="display: block;" transform="matrix(0.800000011920929,0,0,0.800000011920929,257.9656066894531,250.03680419921875)" opacity="1"><g opacity="1" transform="matrix(1,0,0,1,0,0)"><path fill="rgb(242,242,242)" fill-opacity="1" d=" M-123.95600128173828,165.77699279785156 C-85.95700073242188,165.4530029296875 -33.430999755859375,155.85899353027344 -2.680000066757202,146.8300018310547 C23.292999267578125,139.20399475097656 67.79299926757812,125.7040023803711 118.875,127.38999938964844 C141.51199340820312,128.13699340820312 143.84500122070312,-167.6479949951172 119.18800354003906,-165.35899353027344 C70.08899688720703,-166.3489990234375 27.844999313354492,-153.40699768066406 -17.961000442504883,-142.1959991455078 C-50.18899917602539,-134.30799865722656 -84.18099975585938,-127.27799987792969 -123.56300354003906,-126.56199645996094 C-198.06300354003906,-117.6240005493164 -134.3939971923828,165.76600646972656 -123.95600128173828,165.77699279785156z"/></g><g opacity="1" transform="matrix(1,0,0,1,0,0)"><path fill="rgb(255,38,38)" fill-opacity="1" d=" M241.406005859375,147.06199645996094 C241.56199645996094,120.56199645996094 241.23399353027344,82.29100036621094 241.25,49.90599822998047 C241.26600646972656,17.08300018310547 241.43699645996094,-15.739999771118164 241.5,-48.5629997253418 C241.56199645996094,-80.91699981689453 241.5,-128.75 241.625,-145.625 C197.29299926757812,-160.29600524902344 143.84500122070312,-167.6479949951172 119.18800354003906,-165.35899353027344 C119.23100280761719,-150.59300231933594 119.41200256347656,-53.88100051879883 119.49400329589844,1.5460000038146973 C119.53199768066406,27.138999938964844 119.67400360107422,52.733001708984375 119.5469970703125,78.32599639892578 C119.49600219726562,88.55899810791016 119.19000244140625,100.74500274658203 119.00199890136719,111.21800231933594 C118.88899993896484,117.48500061035156 118.87100219726562,127.39299774169922 118.87100219726562,127.39299774169922 C118.87100219726562,127.39299774169922 121.60600280761719,127.26599884033203 121.89600372314453,127.39399719238281 C131.32400512695312,127.53500366210938 142.4080047607422,127.95600128173828 151.59800720214844,128.96499633789062 C210.66799926757812,135.45399475097656 241.406005859375,147.06199645996094 241.406005859375,147.06199645996094z"/></g><g opacity="1" transform="matrix(1,0,0,1,0,0)"><path fill="rgb(255,38,38)" fill-opacity="1" d=" M-246.5,-145.5 C-246.5,-139 -246.5,144.218994140625 -246.5,146.593994140625 C-237.01199340820312,147.23800659179688 -199.2220001220703,161.7729949951172 -144.3179931640625,164.906005859375 C-125.91400146484375,165.95599365234375 -124.70600128173828,165.89199829101562 -123.94599914550781,165.75999450683594 C-124.01799774169922,161.45599365234375 -123.79000091552734,144.61300659179688 -123.66999816894531,102.90299987792969 C-123.54900360107422,60.7130012512207 -123.56400299072266,49.92900085449219 -123.50800323486328,5.834000110626221 C-123.47899627685547,-16.7810001373291 -123.29499816894531,-60.24300003051758 -123.33499908447266,-76.08200073242188 C-123.35199737548828,-82.57599639892578 -123.52999877929688,-121.79199981689453 -123.56199645996094,-126.56199645996094 C-170.20599365234375,-127.2959976196289 -212.75,-139.625 -246.5,-145.5z"/></g></g><g style="display: block;" transform="matrix(1,0,0,1,256,256)" opacity="1"><g opacity="1" transform="matrix(1,0,0,1,0,0)"><path fill="rgb(255,38,38)" fill-opacity="1" d=" M0,-89 C0,-89 -15,-55.875 -15,-55.875 C-15,-55.875 -27.75,-60.40599822998047 -30.875,-61.78099822998047 C-28.75,-49.03099822998047 -19.875,-18.75 -23.5,-16.25 C-26.125,-14.125 -43.875,-31.5 -43.875,-31.5 C-43.875,-31.5 -49.71900177001953,-18.4689998626709 -49.71900177001953,-18.4689998626709 C-49.71900177001953,-18.4689998626709 -74.09400177001953,-20.0939998626709 -74.09400177001953,-20.0939998626709 C-74.09400177001953,-20.0939998626709 -66,4.625 -66,4.625 C-66,4.625 -76.75,11.062000274658203 -76.75,11.062000274658203 C-76.75,11.062000274658203 -36.375,37.75 -36.375,37.75 C-36.375,37.75 -41.5,53.875 -41.5,53.875 C-41.5,53.875 -2.25,38.125 -2.25,38.125 C-2.25,38.125 -3.5,78.375 -3.5,78.375 C-3.5,78.375 3.625,77.125 3.625,77.125 C3.625,77.125 2.5,36.375 2.5,36.375 C2.5,36.375 42,34.25 42,34.25 C42,34.25 36.09400177001953,20.4060001373291 36.09400177001953,20.4060001373291 C36.09400177001953,20.4060001373291 76.75,-18.75 76.75,-18.75 C76.75,-18.75 65.75,-22.4689998626709 65.75,-22.4689998626709 C65.75,-22.4689998626709 74.18800354003906,-49.25 74.18800354003906,-49.25 C74.18800354003906,-49.25 49.5629997253418,-41.1879997253418 49.5629997253418,-41.1879997253418 C49.5629997253418,-41.1879997253418 44.15599822998047,-52.125 44.15599822998047,-52.125 C44.15599822998047,-52.125 26.774999618530273,-27.32200050354004 23.187000274658203,-27.687999725341797 C20.125,-28 28.125,-59.875 30.25,-76.25 C30.25,-76.25 14.812000274658203,-63.5620002746582 14.812000274658203,-63.5620002746582 C14.812000274658203,-63.5620002746582 0,-89 0,-89z"/><path stroke-linecap="butt" stroke-linejoin="miter" fill-opacity="0" stroke-miterlimit="4" stroke="rgb(117,15,15)" stroke-opacity="1" stroke-width="0" d=" M0,-89 C0,-89 -15,-55.875 -15,-55.875 C-15,-55.875 -27.75,-60.40599822998047 -30.875,-61.78099822998047 C-28.75,-49.03099822998047 -19.875,-18.75 -23.5,-16.25 C-26.125,-14.125 -43.875,-31.5 -43.875,-31.5 C-43.875,-31.5 -49.71900177001953,-18.4689998626709 -49.71900177001953,-18.4689998626709 C-49.71900177001953,-18.4689998626709 -74.09400177001953,-20.0939998626709 -74.09400177001953,-20.0939998626709 C-74.09400177001953,-20.0939998626709 -66,4.625 -66,4.625 C-66,4.625 -76.75,11.062000274658203 -76.75,11.062000274658203 C-76.75,11.062000274658203 -36.375,37.75 -36.375,37.75 C-36.375,37.75 -41.5,53.875 -41.5,53.875 C-41.5,53.875 -2.25,38.125 -2.25,38.125 C-2.25,38.125 -3.5,78.375 -3.5,78.375 C-3.5,78.375 3.625,77.125 3.625,77.125 C3.625,77.125 2.5,36.375 2.5,36.375 C2.5,36.375 42,34.25 42,34.25 C42,34.25 36.09400177001953,20.4060001373291 36.09400177001953,20.4060001373291 C36.09400177001953,20.4060001373291 76.75,-18.75 76.75,-18.75 C76.75,-18.75 65.75,-22.4689998626709 65.75,-22.4689998626709 C65.75,-22.4689998626709 74.18800354003906,-49.25 74.18800354003906,-49.25 C74.18800354003906,-49.25 49.5629997253418,-41.1879997253418 49.5629997253418,-41.1879997253418 C49.5629997253418,-41.1879997253418 44.15599822998047,-52.125 44.15599822998047,-52.125 C44.15599822998047,-52.125 26.774999618530273,-27.32200050354004 23.187000274658203,-27.687999725341797 C20.125,-28 28.125,-59.875 30.25,-76.25 C30.25,-76.25 14.812000274658203,-63.5620002746582 14.812000274658203,-63.5620002746582 C14.812000274658203,-63.5620002746582 0,-89 0,-89z"/></g></g><g style="display: block;" transform="matrix(0.800000011920929,0,0,0.800000011920929,257.9656066894531,250.03680419921875)" opacity="0.35000000000000003"><g opacity="1" transform="matrix(1,0,0,1,0,0)"><path fill="url(#__lottie_element_9225)" mask="url(#__lottie_element_9227)" fill-opacity="1" d="M0 0 M-246.5,-145.5 C-246.5,-139 -246.5,144.218994140625 -246.5,146.593994140625 C-244.71200561523438,146.76499938964844 -241.55099487304688,147.5780029296875 -237.75900268554688,148.50999450683594 C-220.5,152.75 -191.07200622558594,159.75999450683594 -178.26499938964844,161.58399963378906 C-147.25,166 -127.13200378417969,165.62600708007812 -103.76799774169922,164.74600219726562 C-50.75,162.75 -4.125,146.125 27.19499969482422,139.3300018310547 C47.95800018310547,134.8249969482422 68.79000091552734,130.64500427246094 83.74700164794922,128.94000244140625 C106.25,126.375 122.875,126.75 143.25,128.35899353027344 C183.33700561523438,131.52499389648438 217.79400634765625,139.2030029296875 241.43800354003906,147.031005859375 C241.43800354003906,147.09300231933594 241.406005859375,147.09300231933594 241.406005859375,147.06199645996094 C241.406005859375,147.06199645996094 241.406005859375,147.06199645996094 241.406005859375,147.06199645996094 C241.56199645996094,120.56199645996094 241.23399353027344,82.29100036621094 241.25,49.90599822998047 C241.26600646972656,17.08300018310547 241.43699645996094,-15.739999771118164 241.5,-48.5629997253418 C241.56199645996094,-80.91699981689453 241.5,-128.75 241.625,-145.625 C151.281005859375,-172.5 103.15699768066406,-165.1009979248047 78.5,-162.81199645996094 C23.042999267578125,-156.04600524902344 -48.707000732421875,-130.79600524902344 -83.375,-129.06199645996094 C-157.875,-120.1240005493164 -212.75,-139.625 -246.5,-145.5z"/></g></g><g style="display: block;" transform="matrix(0.800000011920929,0,0,0.800000011920929,257.9656066894531,250.03680419921875)" opacity="0.15"><g opacity="1" transform="matrix(1,0,0,1,0,0)"><path fill="rgb(255,255,255)" fill-opacity="1" d=" M-246.875,-146 C-246.83700561523438,-139.70399475097656 -246.875,-138 -246.79200744628906,-132.81100463867188 C-237.5,-136.25 -197.25,-114 -124.49600219726562,-114.31099700927734 C-38.992000579833984,-114.6760025024414 39.233001708984375,-153.25 121.70800018310547,-153.39700317382812 C179.75,-153.5 241,-132.25 240.91200256347656,-131.552001953125 C241,-140.5 241.375,-144.625 241.375,-144.625 C241.375,-144.625 179.75,-166.25 122.5,-166 C39.49700164794922,-165.63800048828125 -39.5,-128 -124.25,-126.81199645996094 C-197.0449981689453,-125.79199981689453 -237.75,-149 -246.875,-146z"/></g></g><g style="display: block;" transform="matrix(0.800000011920929,0,0,0.800000011920929,257.9656066894531,250.03680419921875)" opacity="0.15"><g opacity="1" transform="matrix(1,0,0,1,0,0)"><path fill="rgb(0,0,0)" fill-opacity="1" d=" M122.5,112.25 C34,112.25 -36,149.5 -123.5,152 C-140.61700439453125,152.48899841308594 -155.82000732421875,151.3489990234375 -170.41099548339844,149.1280059814453 C-195.23399353027344,145.35000610351562 -218.28900146484375,138.4459991455078 -246,131.125 C-246.25,134.5 -246,141.375 -246,145.125 C-218.5749969482422,153.30599975585938 -195.61700439453125,159.55499267578125 -170.83099365234375,163.0050048828125 C-155.8520050048828,165.08999633789062 -140.20399475097656,166.15199279785156 -122.5,166 C-35,165.25 33.5,126.625 121.75,126.5 C126.26799774169922,126.49400329589844 131.11399841308594,126.59500122070312 136.27699279785156,126.83899688720703 C163.25900268554688,128.11300659179688 198.88099670410156,133.2550048828125 241.375,147 C241.375,147 241.25,134.75 241.5,131.125 C199.093994140625,118.93299865722656 163.16200256347656,113.84500122070312 136.1439971923828,112.58000183105469 C131.30499267578125,112.35399627685547 126.75299835205078,112.25 122.5,112.25z"/></g></g><g style="display: block;" transform="matrix(0.800000011920929,0,0,0.800000011920929,257.9656066894531,250.03680419921875)" opacity="1"><g opacity="1" transform="matrix(1,0,0,1,0,0)"><path stroke-linecap="round" stroke-linejoin="round" fill-opacity="0" stroke="rgb(117,15,15)" stroke-opacity="1" stroke-width="8" d=" M118.87100219726562,127.39299774169922 C118.87100219726562,127.39299774169922 121.60600280761719,127.26599884033203 121.89600372314453,127.39399719238281 C131.32400512695312,127.53500366210938 142.4080047607422,127.95600128173828 151.59800720214844,128.96499633789062 C210.66799926757812,135.45399475097656 241.406005859375,147.06199645996094 241.406005859375,147.06199645996094 C241.56199645996094,120.56199645996094 241.23399353027344,82.29100036621094 241.25,49.90599822998047 C241.26600646972656,17.08300018310547 241.43699645996094,-15.739999771118164 241.5,-48.5629997253418 C241.56199645996094,-80.91699981689453 241.5,-128.75 241.625,-145.625 C197.29299926757812,-160.29600524902344 143.84500122070312,-167.6479949951172 119.18800354003906,-165.35899353027344"/></g><g opacity="1" transform="matrix(1,0,0,1,0,0)"><path stroke-linecap="round" stroke-linejoin="round" fill-opacity="0" stroke="rgb(117,15,15)" stroke-opacity="1" stroke-width="8" d=" M-123.56199645996094,-126.56199645996094 C-170.20599365234375,-127.2959976196289 -212.75,-139.625 -246.5,-145.5 C-246.5,-139 -246.5,144.218994140625 -246.5,146.593994140625 C-237.01199340820312,147.23800659179688 -199.2220001220703,161.7729949951172 -144.3179931640625,164.906005859375 C-125.91400146484375,165.95599365234375 -124.70600128173828,165.89199829101562 -123.94599914550781,165.75999450683594"/></g><g opacity="1" transform="matrix(1,0,0,1,0,0)"><path stroke-linecap="butt" stroke-linejoin="miter" fill-opacity="0" stroke-miterlimit="4" stroke="rgb(127,127,127)" stroke-opacity="1" stroke-width="8" d=" M-123.95600128173828,165.77699279785156 C-85.95700073242188,165.4530029296875 -33.430999755859375,155.85899353027344 -2.680000066757202,146.8300018310547 C23.292999267578125,139.20399475097656 67.79299926757812,125.7040023803711 118.875,127.38999938964844"/></g><g opacity="1" transform="matrix(1,0,0,1,0,0)"><path stroke-linecap="butt" stroke-linejoin="miter" fill-opacity="0" stroke-miterlimit="4" stroke="rgb(127,127,127)" stroke-opacity="1" stroke-width="8" d=" M119.18800354003906,-165.35899353027344 C70.08899688720703,-166.3489990234375 27.844999313354492,-153.40699768066406 -17.961000442504883,-142.1959991455078 C-50.18899917602539,-134.30799865722656 -84.18099975585938,-127.27799987792969 -123.56300354003906,-126.56199645996094"/></g></g></g></svg>