<svg xmlns="http://www.w3.org/2000/svg" xmlns:xlink="http://www.w3.org/1999/xlink" viewBox="0 0 512 512" width="512" height="512" style="width: 100%; height: 100%; transform: translate3d(0,0,0);" preserveAspectRatio="xMidYMid meet"><defs><clipPath id="__lottie_element_9841"><rect width="512" height="512" x="0" y="0"/></clipPath><linearGradient id="__lottie_element_9860" spreadMethod="pad" gradientUnits="userSpaceOnUse" x1="-246" y1="1" x2="243" y2="0"><stop offset="0%" stop-color="rgb(0,0,0)"/><stop offset="25%" stop-color="rgb(0,0,0)"/><stop offset="50%" stop-color="rgb(0,0,0)"/><stop offset="75%" stop-color="rgb(0,0,0)"/><stop offset="100%" stop-color="rgb(0,0,0)"/></linearGradient><mask id="__lottie_element_9862"><path fill="url(#__lottie_element_9861)" d=" M-246.5,-145.5 C-246.5,-139 -246.5,144.218994140625 -246.5,146.593994140625 C-244.71200561523438,146.76499938964844 -241.55099487304688,147.5780029296875 -237.75900268554688,148.50999450683594 C-220.5,152.75 -191.07200622558594,159.75999450683594 -178.26499938964844,161.58399963378906 C-147.25,166 -127.13200378417969,165.62600708007812 -103.76799774169922,164.74600219726562 C-50.75,162.75 -4.125,146.125 27.19499969482422,139.3300018310547 C47.95800018310547,134.8249969482422 68.79000091552734,130.64500427246094 83.74700164794922,128.94000244140625 C106.25,126.375 122.875,126.75 143.25,128.35899353027344 C183.33700561523438,131.52499389648438 217.79400634765625,139.2030029296875 241.43800354003906,147.031005859375 C241.43800354003906,147.09300231933594 241.406005859375,147.09300231933594 241.406005859375,147.06199645996094 C241.406005859375,147.06199645996094 241.406005859375,147.06199645996094 241.406005859375,147.06199645996094 C241.56199645996094,120.56199645996094 241.23399353027344,82.29100036621094 241.25,49.90599822998047 C241.26600646972656,17.08300018310547 241.43699645996094,-15.739999771118164 241.5,-48.5629997253418 C241.56199645996094,-80.91699981689453 241.5,-128.75 241.625,-145.625 C151.281005859375,-172.5 103.15699768066406,-165.1009979248047 78.5,-162.81199645996094 C23.042999267578125,-156.04600524902344 -48.707000732421875,-130.79600524902344 -83.375,-129.06199645996094 C-157.875,-120.1240005493164 -212.75,-139.625 -246.5,-145.5z"/></mask><linearGradient id="__lottie_element_9861" spreadMethod="pad" gradientUnits="userSpaceOnUse" x1="-246" y1="1" x2="243" y2="0"><stop stop-color="rgb(255,255,255)" offset="0%" stop-opacity="1"/><stop stop-color="rgb(255,255,255)" offset="17%" stop-opacity="0.5"/><stop stop-color="rgb(255,255,255)" offset="33%" stop-opacity="0"/><stop stop-color="rgb(255,255,255)" offset="50%" stop-opacity="0"/><stop stop-color="rgb(255,255,255)" offset="66%" stop-opacity="0"/><stop stop-color="rgb(255,255,255)" offset="83%" stop-opacity="0.5"/><stop stop-color="rgb(255,255,255)" offset="100%" stop-opacity="1"/></linearGradient></defs><g clip-path="url(#__lottie_element_9841)"><g style="display: block;" transform="matrix(0.800000011920929,0,0,0.800000011920929,257.9656066894531,250.03680419921875)" opacity="1"><g opacity="1" transform="matrix(1,0,0,1,0,0)"><path fill="rgb(209,49,66)" fill-opacity="1" d=" M-246.5,-145.5 C-246.5,-139 -246.5,144.218994140625 -246.5,146.593994140625 C-244.71200561523438,146.76499938964844 -241.55099487304688,147.5780029296875 -237.75900268554688,148.50999450683594 C-220.5,152.75 -191.07200622558594,159.75999450683594 -178.26499938964844,161.58399963378906 C-147.25,166 -127.13200378417969,165.62600708007812 -103.76799774169922,164.74600219726562 C-50.75,162.75 -4.125,146.125 27.19499969482422,139.3300018310547 C47.95800018310547,134.8249969482422 68.79000091552734,130.64500427246094 83.74700164794922,128.94000244140625 C106.25,126.375 122.875,126.75 143.25,128.35899353027344 C183.33700561523438,131.52499389648438 217.79400634765625,139.2030029296875 241.43800354003906,147.031005859375 C241.43800354003906,147.09300231933594 241.406005859375,147.09300231933594 241.406005859375,147.06199645996094 C241.406005859375,147.06199645996094 241.406005859375,147.06199645996094 241.406005859375,147.06199645996094 C241.56199645996094,120.56199645996094 241.23399353027344,82.29100036621094 241.25,49.90599822998047 C241.26600646972656,17.08300018310547 241.43699645996094,-15.739999771118164 241.5,-48.5629997253418 C241.56199645996094,-80.91699981689453 241.5,-128.75 241.625,-145.625 C151.281005859375,-172.5 103.15699768066406,-165.1009979248047 78.5,-162.81199645996094 C23.042999267578125,-156.04600524902344 -48.707000732421875,-130.79600524902344 -83.375,-129.06199645996094 C-157.875,-120.1240005493164 -212.75,-139.625 -246.5,-145.5z"/></g></g><g style="display: block;" transform="matrix(0.800000011920929,0,0,0.800000011920929,53.40081024169922,44.200008392333984)" opacity="1"><g opacity="1" transform="matrix(1,0,0,1,83.12799835205078,196.31900024414062)"><path fill="rgb(249,233,14)" fill-opacity="1" d=" M-17.106000900268555,5.190999984741211 C-17.106000900268555,5.190999984741211 -26.63800048828125,33.957000732421875 -26.63800048828125,33.957000732421875 C-26.63800048828125,33.957000732421875 -1.1059999465942383,19.48900032043457 -1.1059999465942383,19.48900032043457 C-1.1059999465942383,19.48900032043457 24.93600082397461,41.446998596191406 24.93600082397461,41.446998596191406 C24.93600082397461,41.446998596191406 15.234000205993652,9.956999778747559 15.234000205993652,9.956999778747559 C15.234000205993652,9.956999778747559 41.957000732421875,-7.064000129699707 41.957000732421875,-7.064000129699707 C41.957000732421875,-7.064000129699707 9.277000427246094,-9.616999626159668 9.277000427246094,-9.616999626159668 C9.277000427246094,-9.616999626159668 -0.9359999895095825,-41.446998596191406 -0.9359999895095825,-41.446998596191406 C-0.9359999895095825,-41.446998596191406 -10.809000015258789,-12.51099967956543 -10.809000015258789,-12.51099967956543 C-10.809000015258789,-12.51099967956543 -41.957000732421875,-18.29800033569336 -41.957000732421875,-18.29800033569336 C-41.957000732421875,-18.29800033569336 -17.106000900268555,5.190999984741211 -17.106000900268555,5.190999984741211z"/></g><g opacity="1" transform="matrix(1,0,0,1,157.56399536132812,157.88299560546875)"><path fill="rgb(249,233,14)" fill-opacity="1" d=" M-6.734000205993652,-0.41499999165534973 C-6.734000205993652,-0.41499999165534973 -13.755000114440918,8.137999534606934 -13.755000114440918,8.137999534606934 C-13.755000114440918,8.137999534606934 -3.3510000705718994,5.138000011444092 -3.3510000705718994,5.138000011444092 C-3.3510000705718994,5.138000011444092 2.3940000534057617,13.946999549865723 2.3940000534057617,13.946999549865723 C2.3940000534057617,13.946999549865723 3.4790000915527344,3.2230000495910645 3.4790000915527344,3.2230000495910645 C3.4790000915527344,3.2230000495910645 13.755000114440918,-0.41499999165534973 13.755000114440918,-0.41499999165534973 C13.755000114440918,-0.41499999165534973 3.989000082015991,-3.5429999828338623 3.989000082015991,-3.5429999828338623 C3.989000082015991,-3.5429999828338623 4.818999767303467,-13.946999549865723 4.818999767303467,-13.946999549865723 C4.818999767303467,-13.946999549865723 -2.2660000324249268,-5.520999908447266 -2.2660000324249268,-5.520999908447266 C-2.2660000324249268,-5.520999908447266 -11.968000411987305,-8.904000282287598 -11.968000411987305,-8.904000282287598 C-11.968000411987305,-8.904000282287598 -6.734000205993652,-0.41499999165534973 -6.734000205993652,-0.41499999165534973z"/></g><g opacity="1" transform="matrix(1,0,0,1,185.6490020751953,184.72300720214844)"><path fill="rgb(249,233,14)" fill-opacity="1" d=" M-4.435999870300293,-3.510999917984009 C-4.435999870300293,-3.510999917984009 -13.755000114440918,2.744999885559082 -13.755000114440918,2.744999885559082 C-13.755000114440918,2.744999885559082 -3.4790000915527344,3.382999897003174 -3.4790000915527344,3.382999897003174 C-3.4790000915527344,3.382999897003174 -1.7549999952316284,13.595999717712402 -1.7549999952316284,13.595999717712402 C-1.7549999952316284,13.595999717712402 3.2869999408721924,3.447000026702881 3.2869999408721924,3.447000026702881 C3.2869999408721924,3.447000026702881 13.755000114440918,3.382999897003174 13.755000114440918,3.382999897003174 C13.755000114440918,3.382999897003174 6.479000091552734,-3.128000020980835 6.479000091552734,-3.128000020980835 C6.479000091552734,-3.128000020980835 11.329999923706055,-13.085000038146973 11.329999923706055,-13.085000038146973 C11.329999923706055,-13.085000038146973 1.628000020980835,-7.020999908447266 1.628000020980835,-7.020999908447266 C1.628000020980835,-7.020999908447266 -5.9679999351501465,-13.595999717712402 -5.9679999351501465,-13.595999717712402 C-5.9679999351501465,-13.595999717712402 -4.435999870300293,-3.510999917984009 -4.435999870300293,-3.510999917984009z"/></g><g opacity="1" transform="matrix(1,0,0,1,186.1280059814453,227.23399353027344)"><path fill="rgb(249,233,14)" fill-opacity="1" d=" M-3.5739998817443848,-3.382999897003174 C-3.5739998817443848,-3.382999897003174 -0.382999986410141,-14.105999946594238 -0.382999986410141,-14.105999946594238 C-0.382999986410141,-14.105999946594238 3.255000114440918,-5.170000076293945 3.255000114440918,-5.170000076293945 C3.255000114440918,-5.170000076293945 13.914999961853027,-7.020999908447266 13.914999961853027,-7.020999908447266 C13.914999961853027,-7.020999908447266 5.681000232696533,1.4040000438690186 5.681000232696533,1.4040000438690186 C5.681000232696533,1.4040000438690186 9.255000114440918,10.786999702453613 9.255000114440918,10.786999702453613 C9.255000114440918,10.786999702453613 0.19099999964237213,6.190999984741211 0.19099999964237213,6.190999984741211 C0.19099999964237213,6.190999984741211 -8.29800033569336,14.105999946594238 -8.29800033569336,14.105999946594238 C-8.29800033569336,14.105999946594238 -5.426000118255615,3.255000114440918 -5.426000118255615,3.255000114440918 C-5.426000118255615,3.255000114440918 -13.914999961853027,-1.468000054359436 -13.914999961853027,-1.468000054359436 C-13.914999961853027,-1.468000054359436 -3.5739998817443848,-3.382999897003174 -3.5739998817443848,-3.382999897003174z"/></g><g opacity="1" transform="matrix(1,0,0,1,157.88299560546875,260.6809997558594)"><path fill="rgb(249,233,14)" fill-opacity="1" d=" M-2.7130000591278076,-5.552999973297119 C-2.7130000591278076,-5.552999973297119 3.861999988555908,-13.914999961853027 3.861999988555908,-13.914999961853027 C3.861999988555908,-13.914999961853027 3.7980000972747803,-3.190999984741211 3.7980000972747803,-3.190999984741211 C3.7980000972747803,-3.190999984741211 13.564000129699707,-0.8939999938011169 13.564000129699707,-0.8939999938011169 C13.564000129699707,-0.8939999938011169 3.2230000495910645,3.319000005722046 3.2230000495910645,3.319000005722046 C3.2230000495910645,3.319000005722046 2.9679999351501465,13.914999961853027 2.9679999351501465,13.914999961853027 C2.9679999351501465,13.914999961853027 -3.2869999408721924,5.552999973297119 -3.2869999408721924,5.552999973297119 C-3.2869999408721924,5.552999973297119 -13.564000129699707,9 -13.564000129699707,9 C-13.564000129699707,9 -7.117000102996826,0.12800000607967377 -7.117000102996826,0.12800000607967377 C-7.117000102996826,0.12800000607967377 -13.053000450134277,-8.29800033569336 -13.053000450134277,-8.29800033569336 C-13.053000450134277,-8.29800033569336 -2.7130000591278076,-5.552999973297119 -2.7130000591278076,-5.552999973297119z"/></g></g><g style="display: block;" transform="matrix(0.800000011920929,0,0,0.800000011920929,257.9656066894531,250.03680419921875)" opacity="0.35000000000000003"><g opacity="1" transform="matrix(1,0,0,1,0,0)"><path fill="url(#__lottie_element_9860)" mask="url(#__lottie_element_9862)" fill-opacity="1" d="M0 0 M-246.5,-145.5 C-246.5,-139 -246.5,144.218994140625 -246.5,146.593994140625 C-244.71200561523438,146.76499938964844 -241.55099487304688,147.5780029296875 -237.75900268554688,148.50999450683594 C-220.5,152.75 -191.07200622558594,159.75999450683594 -178.26499938964844,161.58399963378906 C-147.25,166 -127.13200378417969,165.62600708007812 -103.76799774169922,164.74600219726562 C-50.75,162.75 -4.125,146.125 27.19499969482422,139.3300018310547 C47.95800018310547,134.8249969482422 68.79000091552734,130.64500427246094 83.74700164794922,128.94000244140625 C106.25,126.375 122.875,126.75 143.25,128.35899353027344 C183.33700561523438,131.52499389648438 217.79400634765625,139.2030029296875 241.43800354003906,147.031005859375 C241.43800354003906,147.09300231933594 241.406005859375,147.09300231933594 241.406005859375,147.06199645996094 C241.406005859375,147.06199645996094 241.406005859375,147.06199645996094 241.406005859375,147.06199645996094 C241.56199645996094,120.56199645996094 241.23399353027344,82.29100036621094 241.25,49.90599822998047 C241.26600646972656,17.08300018310547 241.43699645996094,-15.739999771118164 241.5,-48.5629997253418 C241.56199645996094,-80.91699981689453 241.5,-128.75 241.625,-145.625 C151.281005859375,-172.5 103.15699768066406,-165.1009979248047 78.5,-162.81199645996094 C23.042999267578125,-156.04600524902344 -48.707000732421875,-130.79600524902344 -83.375,-129.06199645996094 C-157.875,-120.1240005493164 -212.75,-139.625 -246.5,-145.5z"/></g></g><g style="display: block;" transform="matrix(0.800000011920929,0,0,0.800000011920929,257.9656066894531,250.03680419921875)" opacity="0.15"><g opacity="1" transform="matrix(1,0,0,1,0,0)"><path fill="rgb(255,255,255)" fill-opacity="1" d=" M-246.875,-146 C-246.83700561523438,-139.70399475097656 -246.875,-138 -246.79200744628906,-132.81100463867188 C-237.5,-136.25 -197.25,-114 -124.49600219726562,-114.31099700927734 C-38.992000579833984,-114.6760025024414 39.233001708984375,-153.25 121.70800018310547,-153.39700317382812 C179.75,-153.5 241,-132.25 240.91200256347656,-131.552001953125 C241,-140.5 241.375,-144.625 241.375,-144.625 C241.375,-144.625 179.75,-166.25 122.5,-166 C39.49700164794922,-165.63800048828125 -39.5,-128 -124.25,-126.81199645996094 C-197.0449981689453,-125.79199981689453 -237.75,-149 -246.875,-146z"/></g></g><g style="display: block;" transform="matrix(0.800000011920929,0,0,0.800000011920929,257.9656066894531,250.03680419921875)" opacity="0.15"><g opacity="1" transform="matrix(1,0,0,1,0,0)"><path fill="rgb(0,0,0)" fill-opacity="1" d=" M122.5,112.25 C34,112.25 -36,149.5 -123.5,152 C-140.61700439453125,152.48899841308594 -155.82000732421875,151.3489990234375 -170.41099548339844,149.1280059814453 C-195.23399353027344,145.35000610351562 -218.28900146484375,138.4459991455078 -246,131.125 C-246.25,134.5 -246,141.375 -246,145.125 C-218.5749969482422,153.30599975585938 -195.61700439453125,159.55499267578125 -170.83099365234375,163.0050048828125 C-155.8520050048828,165.08999633789062 -140.20399475097656,166.15199279785156 -122.5,166 C-35,165.25 33.5,126.625 121.75,126.5 C126.26799774169922,126.49400329589844 131.11399841308594,126.59500122070312 136.27699279785156,126.83899688720703 C163.25900268554688,128.11300659179688 198.88099670410156,133.2550048828125 241.375,147 C241.375,147 241.25,134.75 241.5,131.125 C199.093994140625,118.93299865722656 163.16200256347656,113.84500122070312 136.1439971923828,112.58000183105469 C131.30499267578125,112.35399627685547 126.75299835205078,112.25 122.5,112.25z"/></g></g><g style="display: block;" transform="matrix(0.800000011920929,0,0,0.800000011920929,257.9656066894531,250.03680419921875)" opacity="1"><g opacity="1" transform="matrix(1,0,0,1,0,0)"><path stroke-linecap="round" stroke-linejoin="round" fill-opacity="0" stroke="rgb(102,17,26)" stroke-opacity="1" stroke-width="8" d=" M-246.5,-145.5 C-246.5,-139 -246.5,144.218994140625 -246.5,146.593994140625 C-244.71200561523438,146.76499938964844 -241.55099487304688,147.5780029296875 -237.75900268554688,148.50999450683594 C-220.5,152.75 -191.07200622558594,159.75999450683594 -178.26499938964844,161.58399963378906 C-147.25,166 -127.13200378417969,165.62600708007812 -103.76799774169922,164.74600219726562 C-50.75,162.75 -4.125,146.125 27.19499969482422,139.3300018310547 C47.95800018310547,134.8249969482422 68.79000091552734,130.64500427246094 83.74700164794922,128.94000244140625 C106.25,126.375 122.875,126.75 143.25,128.35899353027344 C183.33700561523438,131.52499389648438 217.79400634765625,139.2030029296875 241.43800354003906,147.031005859375 C241.43800354003906,147.09300231933594 241.406005859375,147.09300231933594 241.406005859375,147.06199645996094 C241.406005859375,147.06199645996094 241.406005859375,147.06199645996094 241.406005859375,147.06199645996094 C241.56199645996094,120.56199645996094 241.23399353027344,82.29100036621094 241.25,49.90599822998047 C241.26600646972656,17.08300018310547 241.43699645996094,-15.739999771118164 241.5,-48.5629997253418 C241.56199645996094,-80.91699981689453 241.5,-128.75 241.625,-145.625 C151.281005859375,-172.5 103.15699768066406,-165.1009979248047 78.5,-162.81199645996094 C23.042999267578125,-156.04600524902344 -48.707000732421875,-130.79600524902344 -83.375,-129.06199645996094 C-157.875,-120.1240005493164 -212.75,-139.625 -246.5,-145.5z"/></g></g></g></svg>