<svg xmlns="http://www.w3.org/2000/svg" xmlns:xlink="http://www.w3.org/1999/xlink" viewBox="0 0 512 512" width="512" height="512" style="width: 100%; height: 100%; transform: translate3d(0,0,0);" preserveAspectRatio="xMidYMid meet"><defs><clipPath id="__lottie_element_41907"><rect width="512" height="512" x="0" y="0"/></clipPath><radialGradient id="__lottie_element_41913" spreadMethod="pad" gradientUnits="userSpaceOnUse" cx="0.27799999713897705" cy="-28.815000534057617" r="162.75355500991913" fx="0.27799999713897705" fy="-28.815000534057617"><stop offset="63%" stop-color="rgb(88,89,91)"/><stop offset="82%" stop-color="rgb(58,58,59)"/><stop offset="100%" stop-color="rgb(28,28,28)"/></radialGradient><radialGradient id="__lottie_element_41914" spreadMethod="pad" gradientUnits="userSpaceOnUse" cx="9.130000114440918" cy="-28.847999572753906" r="144.52752075237038" fx="9.130000114440918" fy="-28.847999572753906"><stop offset="0%" stop-color="rgb(81,81,79)"/><stop offset="29%" stop-color="rgb(73,72,72)"/><stop offset="57%" stop-color="rgb(65,64,66)"/><stop offset="79%" stop-color="rgb(46,46,47)"/><stop offset="100%" stop-color="rgb(28,28,28)"/></radialGradient><radialGradient id="__lottie_element_41915" spreadMethod="pad" gradientUnits="userSpaceOnUse" cx="-5.668000221252441" cy="-344.0820007324219" r="511.12342186130195" fx="-5.668000221252441" fy="-344.0820007324219"><stop offset="0%" stop-color="rgb(0,0,0)" stop-opacity="0"/><stop offset="35%" stop-color="rgb(0,0,0)" stop-opacity="0.30000001192092896"/><stop offset="70%" stop-color="rgb(0,0,0)" stop-opacity="0.6000000238418579"/><stop offset="85%" stop-color="rgb(124,124,124)" stop-opacity="0.800000011920929"/><stop offset="100%" stop-color="rgb(249,249,249)" stop-opacity="1"/></radialGradient><linearGradient id="__lottie_element_41916" spreadMethod="pad" gradientUnits="userSpaceOnUse" x1="5.855000019073486" y1="-60.1870002746582" x2="-11.315999984741211" y2="59.106998443603516"><stop offset="0%" stop-color="rgb(246,197,69)" stop-opacity="1"/><stop offset="29%" stop-color="rgb(246,174,58)" stop-opacity="1"/><stop offset="60%" stop-color="rgb(246,151,48)" stop-opacity="1"/><stop offset="82%" stop-color="rgb(250,154,24)" stop-opacity="0.5"/><stop offset="100%" stop-color="rgb(255,157,0)" stop-opacity="0"/></linearGradient><linearGradient id="__lottie_element_41917" spreadMethod="pad" gradientUnits="userSpaceOnUse" x1="-0.3409999907016754" y1="-17.92099952697754" x2="1.2200000286102295" y2="111.16000366210938"><stop offset="0%" stop-color="rgb(241,242,242)"/><stop offset="50%" stop-color="rgb(186,186,186)"/><stop offset="100%" stop-color="rgb(131,131,131)"/></linearGradient><linearGradient id="__lottie_element_41918" spreadMethod="pad" gradientUnits="userSpaceOnUse" x1="-0.3409999907016754" y1="-17.92099952697754" x2="1.2200000286102295" y2="111.16000366210938"><stop offset="0%" stop-color="rgb(241,242,242)"/><stop offset="50%" stop-color="rgb(186,186,186)"/><stop offset="100%" stop-color="rgb(131,131,131)"/></linearGradient><radialGradient id="__lottie_element_41919" spreadMethod="pad" gradientUnits="userSpaceOnUse" cx="5.434999942779541" cy="-71.42900085449219" r="161.99053918839232" fx="5.434999942779541" fy="-71.42900085449219"><stop offset="75%" stop-color="rgb(0,0,0)" stop-opacity="0"/><stop offset="87%" stop-color="rgb(0,0,0)" stop-opacity="0.125"/><stop offset="100%" stop-color="rgb(0,0,0)" stop-opacity="0.25"/></radialGradient><radialGradient id="__lottie_element_41922" spreadMethod="pad" gradientUnits="userSpaceOnUse"><stop/><stop/><stop/><stop/><stop/></radialGradient><linearGradient id="__lottie_element_41923" spreadMethod="pad" gradientUnits="userSpaceOnUse"><stop/><stop/><stop/><stop/><stop/><stop/><stop/></linearGradient><radialGradient id="__lottie_element_41924" spreadMethod="pad" gradientUnits="userSpaceOnUse"><stop/><stop/><stop/><stop/><stop/><stop/><stop/></radialGradient><radialGradient id="__lottie_element_41925" spreadMethod="pad" gradientUnits="userSpaceOnUse"><stop/><stop/><stop/><stop/><stop/><stop/><stop/></radialGradient><linearGradient id="__lottie_element_41929" spreadMethod="pad" gradientUnits="userSpaceOnUse" x1="-128.5489959716797" y1="-38.98099899291992" x2="-127.06999969482422" y2="95.99600219726562"><stop offset="0%" stop-color="rgb(225,141,70)"/><stop offset="40%" stop-color="rgb(224,135,63)"/><stop offset="80%" stop-color="rgb(224,130,57)"/><stop offset="90%" stop-color="rgb(188,104,45)"/><stop offset="100%" stop-color="rgb(152,77,33)"/></linearGradient><linearGradient id="__lottie_element_41930" spreadMethod="pad" gradientUnits="userSpaceOnUse" x1="-130.77499389648438" y1="63" x2="-126.2239990234375" y2="19.552000045776367"><stop offset="0%" stop-color="rgb(225,139,67)" stop-opacity="0"/><stop offset="50%" stop-color="rgb(233,163,84)" stop-opacity="0.5"/><stop offset="100%" stop-color="rgb(240,187,102)" stop-opacity="1"/></linearGradient><linearGradient id="__lottie_element_41931" spreadMethod="pad" gradientUnits="userSpaceOnUse" x1="-577.8410034179688" y1="-415.0329895019531" x2="-552.6959838867188" y2="-445.9880065917969"><stop offset="0%" stop-color="rgb(225,139,67)" stop-opacity="1"/><stop offset="50%" stop-color="rgb(233,163,84)" stop-opacity="0.5"/><stop offset="100%" stop-color="rgb(240,187,102)" stop-opacity="0"/></linearGradient><linearGradient id="__lottie_element_41932" spreadMethod="pad" gradientUnits="userSpaceOnUse" x1="-94.9010009765625" y1="30.672000885009766" x2="-63.21099853515625" y2="30.753999710083008"><stop offset="0%" stop-color="rgb(225,141,70)"/><stop offset="25%" stop-color="rgb(240,159,73)"/><stop offset="50%" stop-color="rgb(255,177,76)"/><stop offset="75%" stop-color="rgb(224,143,61)"/><stop offset="100%" stop-color="rgb(194,108,47)"/></linearGradient><radialGradient id="__lottie_element_41936" spreadMethod="pad" gradientUnits="userSpaceOnUse" cx="-0.5590000152587891" cy="8.383000373840332" r="35.889129351830896" fx="-0.5590000152587891" fy="8.383000373840332"><stop offset="50%" stop-color="rgb(61,74,79)"/><stop offset="60%" stop-color="rgb(31,37,40)"/><stop offset="70%" stop-color="rgb(0,0,0)"/></radialGradient><radialGradient id="__lottie_element_41937" spreadMethod="pad" gradientUnits="userSpaceOnUse" cx="-0.05900000035762787" cy="-5.998000144958496" r="40.56998701670986" fx="-0.05900000035762787" fy="-5.998000144958496"><stop offset="53%" stop-color="rgb(0,0,0)" stop-opacity="1"/><stop offset="64%" stop-color="rgb(0,0,0)" stop-opacity="0.5"/><stop offset="76%" stop-color="rgb(0,0,0)" stop-opacity="0"/></radialGradient><linearGradient id="__lottie_element_41938" spreadMethod="pad" gradientUnits="userSpaceOnUse" x1="-0.9890000224113464" y1="4.7820000648498535" x2="-0.9890000224113464" y2="-3.9019999504089355"><stop offset="0%" stop-color="rgb(255,255,255)" stop-opacity="0"/><stop offset="50%" stop-color="rgb(255,255,255)" stop-opacity="0.5"/><stop offset="100%" stop-color="rgb(255,255,255)" stop-opacity="1"/></linearGradient><radialGradient id="__lottie_element_41942" spreadMethod="pad" gradientUnits="userSpaceOnUse"><stop/><stop/><stop/></radialGradient><radialGradient id="__lottie_element_41943" spreadMethod="pad" gradientUnits="userSpaceOnUse"><stop/><stop/><stop/></radialGradient><linearGradient id="__lottie_element_41944" spreadMethod="pad" gradientUnits="userSpaceOnUse"><stop/><stop/><stop/></linearGradient></defs><g clip-path="url(#__lottie_element_41907)"><g style="display: block;" transform="matrix(1,0,0,1,0,0)" opacity="1"><g opacity="1" transform="matrix(1,0,0,1,288.9469909667969,255.81500244140625)"><path fill="url(#__lottie_element_41913)" fill-opacity="1" d=" M162.3470001220703,-1.7410000562667847 C162.3470001220703,97.35600280761719 120.99199676513672,148.46499633789062 5.315000057220459,157.43800354003906 C-43.89799880981445,161.25599670410156 -79.27400207519531,148.0709991455078 -103.86399841308594,124.6780014038086 C-110.29399871826172,118.56099700927734 -116.24099731445312,114.27899932861328 -124.08200073242188,113.61100006103516 C-164.33099365234375,85.86199951171875 -171.55499267578125,43.06800079345703 -151.7169952392578,-1.7410000562667847 C-156.3990020751953,-96.15499877929688 -81.41100311279297,-158.08999633789062 5.315000057220459,-158.08999633789062 C92.04100036621094,-158.08999633789062 162.3470001220703,-96.54499816894531 162.3470001220703,-1.7410000562667847z"/></g><g opacity="1" transform="matrix(1,0,0,1,295.093994140625,255.84800720214844)"><path fill="url(#__lottie_element_41914)" fill-opacity="1" d=" M140.85800170898438,-1.6050000190734863 C140.85800170898438,87.81700134277344 103.54000091552734,133.93600463867188 -0.8429999947547913,142.0330047607422 C-81.12200164794922,148.25999450683594 -127.30999755859375,109.84600067138672 -128.31199645996094,41.2859992980957 C-132.26199340820312,25.9950008392334 -138.2310028076172,14.24899959564209 -140.0399932861328,-2.240999937057495 C-149.26300048828125,-86.3219985961914 -79.10199737548828,-142.69000244140625 -0.8429999947547913,-142.69000244140625 C77.41600036621094,-142.69000244140625 140.85800170898438,-87.15299987792969 140.85800170898438,-1.6050000190734863z"/></g><g opacity="1" transform="matrix(1,0,0,1,288.9469909667969,255.81500244140625)"><path fill="url(#__lottie_element_41915)" fill-opacity="0" d=" M162.3470001220703,-1.7410000562667847 C162.3470001220703,97.35600280761719 120.99199676513672,148.46499633789062 5.315000057220459,157.43800354003906 C-43.89799880981445,161.25599670410156 -79.27400207519531,148.0709991455078 -103.86399841308594,124.6780014038086 C-110.29399871826172,118.56099700927734 -116.24099731445312,114.27899932861328 -124.08200073242188,113.61100006103516 C-164.33099365234375,85.86199951171875 -171.55499267578125,43.06800079345703 -151.7169952392578,-1.7410000562667847 C-156.3990020751953,-96.15499877929688 -81.41100311279297,-158.08999633789062 5.315000057220459,-158.08999633789062 C92.04100036621094,-158.08999633789062 162.3470001220703,-96.54499816894531 162.3470001220703,-1.7410000562667847z"/><path stroke-linecap="butt" stroke-linejoin="miter" fill-opacity="0" stroke-miterlimit="10" stroke="rgb(0,0,0)" stroke-opacity="1" stroke-width="8" d=" M162.3470001220703,-1.7410000562667847 C162.3470001220703,97.35600280761719 120.99199676513672,148.46499633789062 5.315000057220459,157.43800354003906 C-43.89799880981445,161.25599670410156 -79.27400207519531,148.0709991455078 -103.86399841308594,124.6780014038086 C-110.29399871826172,118.56099700927734 -116.24099731445312,114.27899932861328 -124.08200073242188,113.61100006103516 C-164.33099365234375,85.86199951171875 -171.55499267578125,43.06800079345703 -151.7169952392578,-1.7410000562667847 C-156.3990020751953,-96.15499877929688 -81.41100311279297,-158.08999633789062 5.315000057220459,-158.08999633789062 C92.04100036621094,-158.08999633789062 162.3470001220703,-96.54499816894531 162.3470001220703,-1.7410000562667847z"/></g><g opacity="1" transform="matrix(1,0,0,1,386.3689880371094,231.18699645996094)"><path fill="url(#__lottie_element_41916)" fill-opacity="1" d=" M-22.101999282836914,7.965000152587891 C-31.121999740600586,-20.28499984741211 -50.527000427246094,-45.652000427246094 -29.979999542236328,-62.81800079345703 C-9.432999610900879,-79.98400115966797 35.268001556396484,-49.72700119018555 38.685001373291016,-7.1579999923706055 C43.38800048828125,51.42300033569336 4.918000221252441,71.15799713134766 -4.750999927520752,67.22899627685547 C-12.428000450134277,64.10900115966797 -12.314000129699707,38.619998931884766 -22.101999282836914,7.965000152587891z"/></g><g opacity="1" transform="matrix(1,0,0,1,236.56500244140625,292.9209899902344)"><path fill="url(#__lottie_element_41917)" fill-opacity="1" d=" M66.08599853515625,-3.4779999256134033 C64.5250015258789,-42.10200119018555 54.53099822998047,-88.13899993896484 24.915000915527344,-110.37699890136719 C-4.701000213623047,-132.61500549316406 -49.39500045776367,-118.21099853515625 -63.71900177001953,-81.15299987792969 C-78.02400207519531,-44.143001556396484 -47.62300109863281,-16.027000427246094 -44.13800048828125,-1.284999966621399 C-40.1349983215332,15.647000312805176 -40.19300079345703,47.08700180053711 -41.630001068115234,72.72899627685547 C-42.04199981689453,80.08000183105469 -46.26100158691406,85.36199951171875 -53.20800018310547,85.8949966430664 C-31.332000732421875,109.1240005493164 9.187000274658203,122.44999694824219 50.117000579833984,120.79000091552734 C72.28199768066406,100.04100036621094 67.52999877929688,32.26100158691406 66.08599853515625,-3.4779999256134033z"/></g><g opacity="0" transform="matrix(1,0,0,1,236.56500244140625,292.9209899902344)"><path fill="url(#__lottie_element_41918)" fill-opacity="1" d=" M-90.64199829101562,3.9860000610351562 C-98.87100219726562,-33.76900100708008 -95.68900299072266,-75.94999694824219 -83.73500061035156,-103.5009994506836 C-80.54499816894531,-110.85299682617188 -80.21900177001953,-111.5770034790039 -83.5790023803711,-103.69100189208984 C-101.04000091552734,-62.71799850463867 -94.08300018310547,-11.541999816894531 -91.43299865722656,3.193000078201294 C-87.94999694824219,22.55900001525879 -78.11499786376953,46.28300094604492 -61.93000030517578,72.21600341796875 C-54.25400161743164,84.51399993896484 -32.59700012207031,98.16899871826172 -26.709999084472656,101.66300201416016 C-29.340999603271484,101.33799743652344 -38.38100051879883,94.49800109863281 -40.3489990234375,93.37100219726562 C-60.724998474121094,80.07599639892578 -81.31400299072266,46.77899932861328 -90.64199829101562,3.9860000610351562z"/></g><g opacity="1" transform="matrix(1,0,0,1,293.7900085449219,328.4289855957031)"><path fill="url(#__lottie_element_41919)" fill-opacity="1" d=" M153.4980010986328,-82.75900268554688 C156.29600524902344,76.35900115966797 -90.25299835205078,98.18499755859375 -125.39399719238281,-30.590999603271484 C-136.71200561523438,-38.03300094604492 -143.02699279785156,-46.12799835205078 -154.10499572753906,-77.72000122070312 C-149.0399932861328,1.3209999799728394 -121.53900146484375,90.57099914550781 6.0920000076293945,80.89199829101562 C144.0290069580078,70.43199920654297 157.5290069580078,-23.655000686645508 153.4980010986328,-82.75900268554688z"/></g><g opacity="0" transform="matrix(1,0,0,1,288.9469909667969,255.81500244140625)"><path stroke-linecap="butt" stroke-linejoin="miter" fill-opacity="0" stroke-miterlimit="10" stroke="rgb(75,79,80)" stroke-opacity="1" stroke-width="8" d=" M139.125,96.49700164794922 C115.8280029296875,132.23599243164062 73.47200012207031,152.1510009765625 5.315000057220459,157.43800354003906 C-43.89799880981445,161.25599670410156 -79.27400207519531,148.0709991455078 -103.86399841308594,124.6780014038086 C-110.29399871826172,118.56099700927734 -116.24099731445312,114.27899932861328 -124.08200073242188,113.61100006103516 C-127.91600036621094,110.96800231933594 -131.4499969482422,108.18800354003906 -134.69000244140625,105.28299713134766"/></g><g opacity="1" transform="matrix(1,0,0,1,235.9459991455078,397.3450012207031)"><path stroke-linecap="round" stroke-linejoin="round" fill-opacity="0" stroke="rgb(88,89,91)" stroke-opacity="0" stroke-width="8" d=" M-39.68199920654297,-6.934999942779541 C-40.82099914550781,-7.7820000648498535 -43.82099914550781,-10.031999588012695 -44.915000915527344,-10.904999732971191"/></g><g opacity="1" transform="matrix(1,0,0,1,235.9459991455078,397.3450012207031)"><path stroke-linecap="round" stroke-linejoin="round" fill-opacity="0" stroke="rgb(88,89,91)" stroke-opacity="1" stroke-width="8" d=" M-51.98699951171875,-16.930999755859375 C-28.8700008392334,4.71999979019165 5.065000057220459,18.586999893188477 51.98699951171875,16.770999908447266"/></g></g><g style="display: block;" transform="matrix(1,0,0,1,0,0)" opacity="1"><g opacity="1" transform="matrix(1,0,0,1,0,0)"><g opacity="1" transform="matrix(1,0,0,1,228.677001953125,245.58999633789062)"><path fill="rgb(255,255,255)" fill-opacity="1" d=" M-30.073999404907227,0 C-30.073999404907227,49.428001403808594 30.073999404907227,48.3650016784668 30.073999404907227,0 C30.073999404907227,-24.333999633789062 14.847999572753906,-36.69300079345703 -0.28200000524520874,-36.67300033569336 C-15.223999977111816,-36.65299987792969 -30.073999404907227,-24.55900001525879 -30.073999404907227,0z"/></g><g opacity="0.19" transform="matrix(1,0,0,1,228.677001953125,234.45700073242188)"><path fill="rgb(35,31,32)" fill-opacity="1" d=" M-30.073999404907227,0 C-30.073999404907227,49.428001403808594 30.073999404907227,48.3650016784668 30.073999404907227,0 C30.073999404907227,-24.444000244140625 14.711000442504883,-36.80500030517578 -0.4869999885559082,-36.672000885009766 C-15.359999656677246,-36.54199981689453 -30.073999404907227,-24.44700050354004 -30.073999404907227,0z"/></g><g opacity="1" transform="matrix(1,0,0,1,228.677001953125,239.86700439453125)"><path fill="url(#__lottie_element_41936)" fill-opacity="1" d=" M-30.073999404907227,0 C-30.073999404907227,49.428001403808594 30.073999404907227,48.3650016784668 30.073999404907227,0 C30.073999404907227,-24.503999710083008 14.635000228881836,-36.86600112915039 -0.5989999771118164,-36.67100143432617 C-15.432999610900879,-36.48099899291992 -30.073999404907227,-24.385000228881836 -30.073999404907227,0z"/></g><g opacity="1" transform="matrix(1,0,0,1,228.677001953125,240.4980010986328)"><path fill="url(#__lottie_element_41937)" fill-opacity="1" d=" M-30.91699981689453,0 C-30.91699981689453,39.50199890136719 30.91699981689453,38.65299987792969 30.91699981689453,0 C30.91699981689453,-19.364999771118164 15.397000312805176,-29.240999221801758 -0.09200000017881393,-29.30900001525879 C-15.520000457763672,-29.375999450683594 -30.91699981689453,-19.711999893188477 -30.91699981689453,0z"/></g><g opacity="1" transform="matrix(1,0,0,1,226.21299743652344,219.21800231933594)"><path fill="url(#__lottie_element_41938)" fill-opacity="1" d=" M-8.677000045776367,0 C-8.677000045776367,10.821000099182129 8.677000045776367,10.588000297546387 8.677000045776367,0 C8.677000045776367,-10.588000297546387 -8.677000045776367,-10.821000099182129 -8.677000045776367,0z"/></g></g></g><g style="display: block;" transform="matrix(0.9902680516242981,-0.13917310535907745,0.13917310535907745,0.9902680516242981,230.45986938476562,247.87051391601562)" opacity="1"><g opacity="1" transform="matrix(1,0,0,1,0,0)"><path fill="url(#__lottie_element_41929)" fill-opacity="1" d=" M-68.56400299072266,41.005001068115234 C-77.59500122070312,72.78900146484375 -65.54900360107422,109.9520034790039 -67.39299774169922,111.73899841308594 C-69.75800323486328,114.03099822998047 -115.3280029296875,107.75299835205078 -149.6179962158203,93.87300109863281 C-155.5989990234375,91.4520034790039 -167.96800231933594,86.21700286865234 -172.1060028076172,81.0790023803711 C-174.60699462890625,82.25399780273438 -180.52999877929688,83.9280014038086 -182.38999938964844,81.0250015258789 C-184.25,78.12200164794922 -181.94000244140625,36.53900146484375 -120.94000244140625,7.650000095367432 C-107.39099884033203,1.2339999675750732 -96.40299987792969,-4.455999851226807 -92.85900115966797,-6.229000091552734 C-89.625,-7.8470001220703125 -86.61799621582031,-8.508000373840332 -85.5790023803711,-5.459000110626221 C-84.21600341796875,-1.4589999914169312 -86.03099822998047,8.866999626159668 -68.56400299072266,41.005001068115234z"/><path stroke-linecap="round" stroke-linejoin="round" fill-opacity="0" stroke="rgb(173,99,45)" stroke-opacity="1" stroke-width="8" d=" M-68.56400299072266,41.005001068115234 C-77.59500122070312,72.78900146484375 -65.54900360107422,109.9520034790039 -67.39299774169922,111.73899841308594 C-69.75800323486328,114.03099822998047 -115.3280029296875,107.75299835205078 -149.6179962158203,93.87300109863281 C-155.5989990234375,91.4520034790039 -167.96800231933594,86.21700286865234 -172.1060028076172,81.0790023803711 C-174.60699462890625,82.25399780273438 -180.52999877929688,83.9280014038086 -182.38999938964844,81.0250015258789 C-184.25,78.12200164794922 -181.94000244140625,36.53900146484375 -120.94000244140625,7.650000095367432 C-107.39099884033203,1.2339999675750732 -96.40299987792969,-4.455999851226807 -92.85900115966797,-6.229000091552734 C-89.625,-7.8470001220703125 -86.61799621582031,-8.508000373840332 -85.5790023803711,-5.459000110626221 C-84.21600341796875,-1.4589999914169312 -86.03099822998047,8.866999626159668 -68.56400299072266,41.005001068115234z"/></g><g opacity="1" transform="matrix(1,0,0,1,0,0)"><path stroke-linecap="round" stroke-linejoin="round" fill-opacity="0" stroke="rgb(122,57,21)" stroke-opacity="1" stroke-width="8" d=" M-71.75399780273438,60.74399948120117 C-73.26599884033203,86.45500183105469 -65.92400360107422,110.31600189208984 -67.39299774169922,111.73899841308594 C-69.75800323486328,114.03099822998047 -115.3280029296875,107.75299835205078 -149.6179962158203,93.87300109863281 C-155.5989990234375,91.4520034790039 -167.96800231933594,86.21700286865234 -172.1060028076172,81.0790023803711 C-172.802001953125,81.40599822998047 -173.76400756835938,81.77200317382812 -174.82899475097656,82.06700134277344"/></g><g opacity="1" transform="matrix(1,0,0,1,0,0)"><path fill="url(#__lottie_element_41930)" fill-opacity="1" d=" M-72.93499755859375,40.941001892089844 C-78.5719985961914,32.132999420166016 -85.625,16.75 -87.21399688720703,8.434000015258789 C-93.0989990234375,10.651000022888184 -98.19599914550781,13.3149995803833 -103.19999694824219,15.987000465393066 C-109.46499633789062,19.33300018310547 -129.9040069580078,29.216999053955078 -137.468994140625,34.91299819946289 C-154.9029998779297,48.03900146484375 -164.1699981689453,61.882999420166016 -167.66299438476562,76.36299896240234 C-170.6020050048828,88.54900360107422 -121.22599792480469,83.02799987792969 -98.41600036621094,70.99800109863281 C-83.48400115966797,63.12300109863281 -72.00800323486328,52.29800033569336 -72.93499755859375,40.941001892089844z"/></g><g opacity="1" transform="matrix(1,0,0,1,0,0)"><path fill="url(#__lottie_element_41931)" fill-opacity="1" d=" M-167.8769989013672,80.66300201416016 C-127.72699737548828,73.8219985961914 -106.71299743652344,77.16799926757812 -95.87000274658203,74.72599792480469 C-85.62200164794922,72.41799926757812 -78.91899871826172,66.03800201416016 -76.66600036621094,62.65700149536133 C-80.23400115966797,63.104000091552734 -99.60700225830078,65.09600067138672 -119.73300170898438,68.177001953125 C-140.46400451660156,71.3499984741211 -161.9949951171875,75.67900085449219 -167.8769989013672,80.66300201416016z"/></g><g opacity="1" transform="matrix(1,0,0,1,0,0)"><path stroke-linecap="round" stroke-linejoin="round" fill-opacity="0" stroke="rgb(135,72,32)" stroke-opacity="1" stroke-width="8" d=" M-170.1580047607422,80.1240005493164 C-164.5679931640625,78.10099792480469 -107.70600128173828,62.49800109863281 -72.03099822998047,60.900001525878906 C-107.9540023803711,62.4640007019043 -166.06300354003906,79.14099884033203 -169.8560028076172,80.47200012207031 C-179.50100708007812,83.85700225830078 -181.13099670410156,83.9000015258789 -182.68099975585938,81.0199966430664 C-180.625,83.80000305175781 -178.66299438476562,83.2020034790039 -170.1580047607422,80.1240005493164z"/></g><g opacity="0" transform="matrix(1,0,0,1,0,0)"><path fill="url(#__lottie_element_41932)" fill-opacity="1" d=" M-204.35400390625,4.466000080108643 C-218.00599670410156,10.156999588012695 -238.21400451660156,38.00199890136719 -201.31900024414062,78.2040023803711 C-225.44400024414062,30.177000045776367 -198.57000732421875,13.258999824523926 -178.64700317382812,22.22800064086914 C-157.6320037841797,31.327999114990234 -121.36599731445312,34.16699981689453 -114.80999755859375,20.57200050354004 C-124.01000213623047,22.70199966430664 -131.6790008544922,23.611000061035156 -138.16700744628906,23.643999099731445 C-177.6719970703125,23.844999313354492 -173.38400268554688,-8.444999694824219 -204.35400390625,4.466000080108643z"/></g></g></g></svg>