<svg xmlns="http://www.w3.org/2000/svg" xmlns:xlink="http://www.w3.org/1999/xlink" viewBox="0 0 512 512" width="512" height="512" style="width: 100%; height: 100%; transform: translate3d(0,0,0);" preserveAspectRatio="xMidYMid meet"><defs><clipPath id="__lottie_element_27233"><rect width="512" height="512" x="0" y="0"/></clipPath></defs><g clip-path="url(#__lottie_element_27233)"><g style="display: block;" transform="matrix(1.031999945640564,0,0,-1.031999945640564,300.9844665527344,255.38307189941406)" opacity="1"><g opacity="1" transform="matrix(1,0,0,1,0,0)"><path fill="rgb(252,206,44)" fill-opacity="1" d=" M-33.01599884033203,22.091999053955078 C-24.013999938964844,12.612000465393066 -8.633999824523926,-0.23800000548362732 -2.496000051498413,-3.7880001068115234 C-0.8759999871253967,-11.180999755859375 0.8899999856948853,-20.8799991607666 10.482999801635742,-25.31100082397461 C20.076000213623047,-29.742000579833984 34.45199966430664,-25.047000885009766 32.9010009765625,-12.718000411987305 C31.06100082397461,1.909999966621399 23.95599937438965,12.28499984741211 7.96999979019165,26.945999145507812"/><path fill="rgb(240,146,1)" fill-opacity="0.8" d=" M-33.01599884033203,22.091999053955078 C-24.013999938964844,12.612000465393066 -8.633999824523926,-0.23800000548362732 -2.496000051498413,-3.7880001068115234 C-0.8759999871253967,-11.180999755859375 0.8899999856948853,-20.8799991607666 10.482999801635742,-25.31100082397461 C20.076000213623047,-29.742000579833984 34.45199966430664,-25.047000885009766 32.9010009765625,-12.718000411987305 C31.06100082397461,1.909999966621399 23.95599937438965,12.28499984741211 7.96999979019165,26.945999145507812"/></g><g opacity="0.1" transform="matrix(1,0,0,1,0,0)"><path fill="rgb(251,205,43)" fill-opacity="1" d=" M-22.67099952697754,22.065000534057617 C-16.92099952697754,13.0649995803833 -2.5769999027252197,2.681999921798706 2.6730000972747803,-0.3179999887943268 C3.4230000972747803,-4.567999839782715 6.989999771118164,-12.027000427246094 10.833000183105469,-16.371000289916992 C16.488000869750977,-22.76300048828125 26.009000778198242,-21.809999465942383 25.759000778198242,-12.371999740600586 C25.393999099731445,1.409000039100647 21.07900047302246,11.5649995803833 1.5789999961853027,26.815000534057617"/></g><g opacity="0.3" transform="matrix(1,0,0,1,0,0)"><path fill="rgb(251,205,43)" fill-opacity="1" d=" M-19.534000396728516,22.959999084472656 C-13.784000396728516,13.960000038146973 -0.4749999940395355,3.9130001068115234 4.775000095367432,0.9129999876022339 C5.525000095367432,-3.3369998931884766 8.89799976348877,-10.04800033569336 11.824999809265137,-13.803999900817871 C16.729999542236328,-20.097999572753906 24.360000610351562,-18.929000854492188 23.509000778198242,-11.156999588012695 C22.180999755859375,0.9769999980926514 18.32900047302246,10.0649995803833 -1.1710000038146973,25.315000534057617"/></g><g opacity="0.5" transform="matrix(1,0,0,1,0,0)"><path fill="rgb(251,205,43)" fill-opacity="1" d=" M-17.04599952697754,24.065000534057617 C-11.295999526977539,15.0649995803833 2.122999906539917,5.869999885559082 7.373000144958496,2.869999885559082 C9.583999633789062,-3.384000062942505 11.038000106811523,-8.227999687194824 13.3100004196167,-11.295999526977539 C15.494999885559082,-14.246000289916992 22.42300033569336,-17.191999435424805 21.075000762939453,-10.253999710083008 C19.014999389648438,0.3479999899864197 12.126999855041504,10.788000106811523 -3.5460000038146973,24.690000534057617"/></g><g opacity="1" transform="matrix(1,0,0,1,0,0)"><path stroke-linecap="round" stroke-linejoin="round" fill-opacity="0" stroke="rgb(225,124,0)" stroke-opacity="1" stroke-width="8" d=" M-33.01599884033203,22.091999053955078 C-24.013999938964844,12.612000465393066 -8.633999824523926,-0.23800000548362732 -2.496000051498413,-3.7880001068115234 C-0.8759999871253967,-11.180999755859375 0.8899999856948853,-20.8799991607666 10.482999801635742,-25.31100082397461 C20.076000213623047,-29.742000579833984 34.45199966430664,-25.047000885009766 32.9010009765625,-12.718000411987305 C31.06100082397461,1.909999966621399 23.95599937438965,12.28499984741211 7.96999979019165,26.945999145507812"/></g></g><g style="display: block;" transform="matrix(1.031999945640564,0,0,-1.031999945640564,343.5286560058594,270.598876953125)" opacity="1"><g opacity="1" transform="matrix(1,0,0,1,0,0)"><path fill="rgb(252,206,44)" fill-opacity="1" d=" M-66.22000122070312,36.512001037597656 C-53.57400131225586,32.0369987487793 -38.39500045776367,27.363000869750977 -25.784000396728516,20.261999130249023 C-18.72800064086914,13.17300033569336 3.0799999237060547,1.218999981880188 14.532999992370605,-2.872999906539917 C21.735000610351562,-13.779000282287598 27.423999786376953,-26.511999130249023 39.78200149536133,-34.198001861572266 C55.20399856567383,-43.790000915527344 75.10399627685547,-28.72800064086914 61.9119987487793,-9.758999824523926 C52.196998596191406,4.211999893188477 38.130001068115234,22.839000701904297 13.555999755859375,37.172000885009766"/><path fill="rgb(240,146,1)" fill-opacity="0.8" d=" M-66.22000122070312,36.512001037597656 C-53.57400131225586,32.0369987487793 -38.39500045776367,27.363000869750977 -25.784000396728516,20.261999130249023 C-18.72800064086914,13.17300033569336 3.0799999237060547,1.218999981880188 14.532999992370605,-2.872999906539917 C21.735000610351562,-13.779000282287598 27.423999786376953,-26.511999130249023 39.78200149536133,-34.198001861572266 C55.20399856567383,-43.790000915527344 75.10399627685547,-28.72800064086914 61.9119987487793,-9.758999824523926 C52.196998596191406,4.211999893188477 38.130001068115234,22.839000701904297 13.555999755859375,37.172000885009766"/></g><g opacity="0.1" transform="matrix(1,0,0,1,0,0)"><path fill="rgb(251,205,43)" fill-opacity="1" d=" M-57.058998107910156,35.612998962402344 C-46.34000015258789,31.923999786376953 -24.895000457763672,27.694000244140625 -18.895000457763672,23.444000244140625 C-12.895000457763672,19.194000244140625 13.237000465393066,3.1760001182556152 20.483999252319336,-0.5210000276565552 C23.229000091552734,-5.355000019073486 28.030000686645508,-17.261999130249023 36.87200164794922,-25.97599983215332 C50.361000061035156,-39.27000045776367 64.92900085449219,-27.673999786376953 58.75299835205078,-14.493000030517578 C56.04600143432617,-8.717000007629395 47.97700119018555,0.11299999803304672 44.49300003051758,5.218999862670898 C39.229000091552734,12.934000015258789 25.31100082397461,23.202999114990234 12.885000228881836,30.884000778198242"/></g><g opacity="0.3" transform="matrix(1,0,0,1,0,0)"><path fill="rgb(251,205,43)" fill-opacity="1" d=" M-56.0890007019043,36.7760009765625 C-45.369998931884766,33.08700180053711 -18.93000030517578,29.530000686645508 -13.406000137329102,24.67799949645996 C-5.230000019073486,17.496999740600586 17.339000701904297,3.697000026702881 23.402000427246094,1.0099999904632568 C25.045000076293945,-5.47599983215332 33.64500045776367,-20.131999969482422 39.02799987792969,-24.35700035095215 C50.48500061035156,-33.349998474121094 63.683998107910156,-28.125999450683594 56.22100067138672,-15.04800033569336 C53.84600067138672,-10.885000228881836 45.654998779296875,0.47600001096725464 42.303001403808594,5.414000034332275 C36.60499954223633,13.809000015258789 19.326000213623047,21.209999084472656 6.650000095367432,29.70400047302246"/></g><g opacity="0.3" transform="matrix(1,0,0,1,0,0)"><path fill="rgb(251,205,43)" fill-opacity="1" d=" M-55.29600143432617,37.51900100708008 C-44.57699966430664,33.83000183105469 -14.519000053405762,30.114999771118164 -9.33899974822998,24.89699935913086 C0.02500000037252903,15.465999603271484 19.395000457763672,5.559999942779541 26.4060001373291,2.303999900817871 C27.468000411987305,-2.568000078201294 37.15800094604492,-19.405000686645508 41.83000183105469,-23.33099937438965 C49.573001861572266,-29.836999893188477 59.20199966430664,-24.976999282836914 54.05699920654297,-15.895999908447266 C52.08700180053711,-12.420000076293945 45.00899887084961,-1.0889999866485596 38.959999084472656,6.690000057220459 C34.97999954223633,11.809000015258789 16.336000442504883,20.082000732421875 2.943000078201294,26.93400001525879"/></g><g opacity="0.5" transform="matrix(1,0,0,1,0,0)"><path fill="rgb(251,205,43)" fill-opacity="1" d=" M-54.38399887084961,38.7869987487793 C-36.145999908447266,34.933998107910156 -9.70300006866455,31.24799919128418 -4.702000141143799,25.857999801635742 C2.5989999771118164,17.98900032043457 21.25,6.276000022888184 29,3.5260000228881836 C31.551000595092773,-1.593000054359436 37.52899932861328,-13.050999641418457 44.63999938964844,-20.198999404907227 C49.875,-25.461999893188477 55.20500183105469,-22.312000274658203 50.95500183105469,-15.892000198364258 C48.30699920654297,-11.892000198364258 39.75600051879883,-0.9649999737739563 35.71900177001953,3.806999921798706 C31.152999877929688,9.20300006866455 10.472000122070312,18.50200080871582 -2.5969998836517334,26.590999603271484"/></g><g opacity="1" transform="matrix(1,0,0,1,0,0)"><path stroke-linecap="round" stroke-linejoin="round" fill-opacity="0" stroke="rgb(225,124,0)" stroke-opacity="1" stroke-width="8" d=" M-66.22000122070312,36.512001037597656 C-53.57400131225586,32.0369987487793 -38.39500045776367,27.363000869750977 -25.784000396728516,20.261999130249023 C-18.72800064086914,13.17300033569336 3.0799999237060547,1.218999981880188 14.532999992370605,-2.872999906539917 C21.735000610351562,-13.779000282287598 27.423999786376953,-26.511999130249023 39.78200149536133,-34.198001861572266 C55.20399856567383,-43.790000915527344 75.10399627685547,-28.72800064086914 61.9119987487793,-9.758999824523926 C52.196998596191406,4.211999893188477 38.130001068115234,22.839000701904297 13.555999755859375,37.172000885009766"/></g></g><g style="display: block;" transform="matrix(1.031999945640564,0,0,-1.031999945640564,393.5042724609375,257.69268798828125)" opacity="1"><g opacity="1" transform="matrix(1,0,0,1,0,0)"><path fill="rgb(252,206,44)" fill-opacity="1" d=" M-68.25900268554688,33.7869987487793 C-61.90999984741211,18.643999099731445 -55.744998931884766,23.30900001525879 -41.5260009765625,16.82699966430664 C-31.166000366210938,8.39799976348877 -0.5059999823570251,-5.201000213623047 5.1519999504089355,-8.699000358581543 C12.743000030517578,-19.871999740600586 25.226999282836914,-33.12200164794922 35.02000045776367,-38.24599838256836 C54.03799819946289,-48.196998596191406 77.59400177001953,-30.44700050354004 64.44300079345703,-15.204999923706055 C49.8849983215332,1.6679999828338623 40.57899856567383,16.183000564575195 30.91699981689453,21.490999221801758 C21.2549991607666,26.798999786376953 7.10699987411499,36.52299880981445 -16.047000885009766,41.13399887084961"/><path fill="rgb(240,146,1)" fill-opacity="0.8" d=" M-68.25900268554688,33.7869987487793 C-61.90999984741211,18.643999099731445 -55.744998931884766,23.30900001525879 -41.5260009765625,16.82699966430664 C-31.166000366210938,8.39799976348877 -0.5059999823570251,-5.201000213623047 5.1519999504089355,-8.699000358581543 C12.743000030517578,-19.871999740600586 25.226999282836914,-33.12200164794922 35.02000045776367,-38.24599838256836 C54.03799819946289,-48.196998596191406 77.59400177001953,-30.44700050354004 64.44300079345703,-15.204999923706055 C49.8849983215332,1.6679999828338623 40.57899856567383,16.183000564575195 30.91699981689453,21.490999221801758 C21.2549991607666,26.798999786376953 7.10699987411499,36.52299880981445 -16.047000885009766,41.13399887084961"/></g><g opacity="0.1" transform="matrix(1,0,0,1,0,0)"><path fill="rgb(251,205,43)" fill-opacity="1" d=" M-63.571998596191406,32.053001403808594 C-55.071998596191406,24.55299949645996 -44.071998596191406,23.80299949645996 -38.071998596191406,19.55299949645996 C-32.071998596191406,15.303000450134277 5.083000183105469,-1.871999979019165 10.583000183105469,-3.799999952316284 C13.682999610900879,-8.897000312805176 24.768999099731445,-24.195999145507812 35.18199920654297,-30.95599937438965 C51.93199920654297,-41.83100128173828 71.09600067138672,-28.39900016784668 59.77799987792969,-14.569999694824219 C51.05699920654297,-3.9140000343322754 37.428001403808594,12.303000450134277 26.67799949645996,18.30299949645996 C15.928000450134277,24.30299949645996 -12.571999549865723,36.428001403808594 -18.94700050354004,38.553001403808594"/></g><g opacity="0.3" transform="matrix(1,0,0,1,0,0)"><path fill="rgb(251,205,43)" fill-opacity="1" d=" M-61.571998596191406,32.553001403808594 C-53.071998596191406,25.05299949645996 -42.95899963378906,25.916000366210938 -36.95899963378906,21.666000366210938 C-30.958999633789062,17.416000366210938 7.86899995803833,-0.6610000133514404 12.12399959564209,-2.3310000896453857 C14.74899959564209,-5.580999851226807 25.83099937438965,-21.288000106811523 36.7130012512207,-28.636999130249023 C51.150001525878906,-38.387001037597656 69.03600311279297,-28.882999420166016 57.36899948120117,-15.206000328063965 C48.36899948120117,-4.656000137329102 36.053001403808594,9.803000450134277 25.30299949645996,15.803000450134277 C14.553000450134277,21.80299949645996 -16.57200050354004,35.928001403808594 -20.57200050354004,35.928001403808594"/></g><g opacity="0.3" transform="matrix(1,0,0,1,0,0)"><path fill="rgb(251,205,43)" fill-opacity="1" d=" M-60.571998596191406,33.553001403808594 C-52.071998596191406,26.05299949645996 -42.26900100708008,27.409000396728516 -36.26900100708008,23.159000396728516 C-30.268999099731445,18.909000396728516 8.958999633789062,1.3980000019073486 14.32800006866455,-1.1610000133514404 C16.711000442504883,-4.415999889373779 28.666000366210938,-19.562000274658203 38.66699981689453,-26.917999267578125 C51.66699981689453,-36.48099899291992 66.37200164794922,-27.187000274658203 55.50600051879883,-15.35200023651123 C45.13100051879883,-4.052000045776367 34.053001403808594,7.677999973297119 23.30299949645996,13.678000450134277 C12.553000450134277,19.67799949645996 -18.94700050354004,34.053001403808594 -22.94700050354004,34.053001403808594"/></g><g opacity="0.5" transform="matrix(1,0,0,1,0,0)"><path fill="rgb(251,205,43)" fill-opacity="1" d=" M-59.696998596191406,34.428001403808594 C-51.196998596191406,26.92799949645996 -40.89799880981445,28.726999282836914 -34.89799880981445,24.476999282836914 C-28.898000717163086,20.226999282836914 9.388999938964844,2.3940000534057617 17.138999938964844,-0.35600000619888306 C19.618000030517578,-3.325000047683716 31.051000595092773,-16.868000030517578 40.62200164794922,-24.774999618530273 C50.683998107910156,-33.0880012512207 63.95000076293945,-26.94499969482422 53.643001556396484,-16.04800033569336 C42.555999755859375,-4.326000213623047 34.39500045776367,5.880000114440918 21.80299949645996,11.803000450134277 C10.663000106811523,17.042999267578125 -20.44700050354004,32.803001403808594 -24.44700050354004,32.803001403808594"/></g><g opacity="1" transform="matrix(1,0,0,1,0,0)"><path fill="rgb(251,205,43)" fill-opacity="1" d=" M-58.571998596191406,35.303001403808594 C-50.071998596191406,27.80299949645996 -39.78900146484375,30.499000549316406 -33.78900146484375,26.249000549316406 C-27.788999557495117,21.999000549316406 12.522000312805176,4.422999858856201 20.27199935913086,1.6729999780654907 C22.833999633789062,-0.3269999921321869 34.0989990234375,-14.532999992370605 43.50899887084961,-22.631000518798828 C53.82099914550781,-31.506000518798828 59.5890007019043,-24.038000106811523 51.8380012512207,-16.67300033569336 C40.141998291015625,-5.559000015258789 31.80299949645996,4.677999973297119 21.05299949645996,10.678000450134277 C10.303000450134277,16.67799949645996 -20.94700050354004,32.178001403808594 -24.94700050354004,32.178001403808594"/></g><g opacity="1" transform="matrix(1,0,0,1,0,0)"><path stroke-linecap="round" stroke-linejoin="round" fill-opacity="0" stroke="rgb(225,124,0)" stroke-opacity="1" stroke-width="8" d=" M-68.25900268554688,33.7869987487793 C-61.90999984741211,18.643999099731445 -55.744998931884766,23.30900001525879 -41.5260009765625,16.82699966430664 C-31.166000366210938,8.39799976348877 -0.5059999823570251,-5.201000213623047 5.1519999504089355,-8.699000358581543 C12.743000030517578,-19.871999740600586 25.226999282836914,-33.12200164794922 35.02000045776367,-38.24599838256836 C54.03799819946289,-48.196998596191406 77.59400177001953,-30.44700050354004 64.44300079345703,-15.204999923706055 C49.8849983215332,1.6679999828338623 40.57899856567383,16.183000564575195 30.91699981689453,21.490999221801758 C21.2549991607666,26.798999786376953 7.10699987411499,36.52299880981445 -16.047000885009766,41.13399887084961"/></g></g><g style="display: block;" transform="matrix(1.031999945640564,0,0,-1.031999945640564,71.61215209960938,202.88214111328125)" opacity="1"><g opacity="1" transform="matrix(1,0,0,1,0,0)"><path fill="rgb(252,206,44)" fill-opacity="1" d=" M72.16400146484375,-38.15700149536133 C54.9630012512207,-36.65599822998047 -17.135000228881836,-45.382999420166016 -28.277999877929688,-47.59000015258789 C-36.52899932861328,-31.650999069213867 -35.65999984741211,36.707000732421875 -28.121000289916992,46.928001403808594 C-21.12299919128418,47.42399978637695 33.347999572753906,46.987998962402344 45.37300109863281,47.59000015258789"/><path fill="rgb(240,146,1)" fill-opacity="0.8" d=" M72.16400146484375,-38.15700149536133 C54.9630012512207,-36.65599822998047 -17.135000228881836,-45.382999420166016 -28.277999877929688,-47.59000015258789 C-36.52899932861328,-31.650999069213867 -35.65999984741211,36.707000732421875 -28.121000289916992,46.928001403808594 C-21.12299919128418,47.42399978637695 33.347999572753906,46.987998962402344 45.37300109863281,47.59000015258789"/></g></g><g style="display: block;" transform="matrix(1.031999945640564,0,0,-1.031999945640564,349.9559631347656,206.36410522460938)" opacity="1"><g opacity="1" transform="matrix(1,0,0,1,0,0)"><path fill="rgb(252,206,44)" fill-opacity="1" d=" M83.66999816894531,-46.9109992980957 C65.83300018310547,-46.784000396728516 53.435001373291016,-43.10100173950195 47.70800018310547,-38.94200134277344 C37.57899856567383,-40.27399826049805 8.449999809265137,-36.095001220703125 0.017999999225139618,-32.220001220703125 C-19.18600082397461,-33.81999969482422 -43.54999923706055,-30.562000274658203 -54.7140007019043,-31.260000228881836 C-65.58000183105469,-31.93899917602539 -81.9990005493164,-35.02199935913086 -100.8219985961914,-41.92100143432617 C-119.6449966430664,-48.81999969482422 -202.87399291992188,-32.68299865722656 -233.12399291992188,-35.93299865722656 C-249.57699584960938,-37.70100021362305 -273.2130126953125,48.319000244140625 -226.27499389648438,50.87099838256836 C-167.13099670410156,54.08700180053711 -121.6719970703125,47.858001708984375 -102.44599914550781,46.9119987487793 C-75.1240005493164,45.56700134277344 -64.86599731445312,34.22700119018555 -43.90599822998047,30.10700035095215 C-17.933000564575195,25.00200080871582 10.758000373840332,18.457000732421875 35.98400115966797,11.157999992370605 C56.345001220703125,5.267000198364258 74.44999694824219,-1.1139999628067017 87.04900360107422,-7.625999927520752 C113.94200134277344,-21.525999069213867 100.87799835205078,-47.034000396728516 83.66999816894531,-46.9109992980957z"/><path fill="rgb(240,146,1)" fill-opacity="0.8" d=" M83.66999816894531,-46.9109992980957 C65.83300018310547,-46.784000396728516 53.435001373291016,-43.10100173950195 47.70800018310547,-38.94200134277344 C37.57899856567383,-40.27399826049805 8.449999809265137,-36.095001220703125 0.017999999225139618,-32.220001220703125 C-19.18600082397461,-33.81999969482422 -43.54999923706055,-30.562000274658203 -54.7140007019043,-31.260000228881836 C-65.58000183105469,-31.93899917602539 -81.9990005493164,-35.02199935913086 -100.8219985961914,-41.92100143432617 C-119.6449966430664,-48.81999969482422 -202.87399291992188,-32.68299865722656 -233.12399291992188,-35.93299865722656 C-249.57699584960938,-37.70100021362305 -273.2130126953125,48.319000244140625 -226.27499389648438,50.87099838256836 C-167.13099670410156,54.08700180053711 -121.6719970703125,47.858001708984375 -102.44599914550781,46.9119987487793 C-75.1240005493164,45.56700134277344 -64.86599731445312,34.22700119018555 -43.90599822998047,30.10700035095215 C-17.933000564575195,25.00200080871582 10.758000373840332,18.457000732421875 35.98400115966797,11.157999992370605 C56.345001220703125,5.267000198364258 74.44999694824219,-1.1139999628067017 87.04900360107422,-7.625999927520752 C113.94200134277344,-21.525999069213867 100.87799835205078,-47.034000396728516 83.66999816894531,-46.9109992980957z"/></g></g><g style="display: block;" transform="matrix(1.031999945640564,0,0,-1.031999945640564,349.43994140625,206.49310302734375)" opacity="1"><g opacity="0.1" transform="matrix(1,0,0,1,0,0)"><path fill="rgb(252,206,44)" fill-opacity="1" d=" M90.48799896240234,-38.36600112915039 C78.63099670410156,-43.59299850463867 55.895999908447266,-36.94900131225586 49.551998138427734,-29.26799964904785 C38.93899917602539,-30.408000946044922 9.97700023651123,-29.408000946044922 1.49399995803833,-21.70599937438965 C-17.709999084472656,-24.042999267578125 -54.82500076293945,-21.474000930786133 -68.18399810791016,-22.072999954223633 C-121.6719970703125,-24.472999572753906 -129.677001953125,7.488999843597412 -138.2050018310547,15.767999649047852 C-186.95799255371094,63.099998474121094 -96.84700012207031,46.3489990234375 -72.08399963378906,39.06399917602539 C-45.47999954223633,31.238000869750977 -0.49900001287460327,16.316999435424805 35.111000061035156,9.432000160217285 C55.73699951171875,5.443999767303467 79.51000213623047,-7.265999794006348 90.65799713134766,-11.428000450134277 C102.23500061035156,-15.75 103.48300170898438,-32.63800048828125 90.48799896240234,-38.36600112915039z"/></g><g opacity="0.2" transform="matrix(1,0,0,1,0,0)"><path fill="rgb(252,206,44)" fill-opacity="1" d=" M88.98600006103516,-36.2239990234375 C75.36900329589844,-42.53900146484375 55.52899932861328,-32.305999755859375 49.801998138427734,-26.663999557495117 C36.45600128173828,-27.743000030517578 12.229999542236328,-25.562999725341797 1.86899995803833,-19.059999465942383 C-17.08099937438965,-20.29400062561035 -54.3120002746582,-18.240999221801758 -68.15499877929688,-18.52199935913086 C-104.71399688720703,-19.263999938964844 -114.16799926757812,-2.9570000171661377 -127.36499786376953,10.437000274658203 C-182.59800720214844,66.49199676513672 -90.03700256347656,41.1349983215332 -72.73600006103516,36.6150016784668 C-48.89799880981445,30.38800048828125 9.503000259399414,12.175999641418457 34.486000061035156,7.729000091552734 C55.25299835205078,4.0320000648498535 77.95999908447266,-8.59000015258789 89.09200286865234,-12.763999938964844 C99.54399871826172,-16.683000564575195 101.13600158691406,-30.589000701904297 88.98600006103516,-36.2239990234375z"/></g><g opacity="0.3" transform="matrix(1,0,0,1,0,0)"><path fill="rgb(252,206,44)" fill-opacity="1" d=" M87.5459976196289,-34.2760009765625 C77.39399719238281,-38.61800003051758 59.09400177001953,-33.47100067138672 50.11399841308594,-25.09000015258789 C39.90700149536133,-25.441999435424805 15.258999824523926,-23.867000579833984 2.056999921798706,-17.326000213623047 C-16.051000595092773,-18.11400032043457 -55.78099822998047,-14.515999794006348 -67.26799774169922,-14.72700023651123 C-90.05799865722656,-15.145999908447266 -102.6719970703125,-9.894000053405762 -119.91100311279297,8.319999694824219 C-170.7270050048828,62.0099983215332 -104.2969970703125,42.974998474121094 -74.00599670410156,34.65399932861328 C-50.42100143432617,28.174999237060547 8.878000259399414,10.706000328063965 33.861000061035156,6.258999824523926 C54.62799835205078,2.562000036239624 76.0009994506836,-9.508999824523926 87.34600067138672,-13.513999938964844 C96.5479965209961,-16.76300048828125 98.71399688720703,-29.499000549316406 87.5459976196289,-34.2760009765625z"/></g><g opacity="0.5" transform="matrix(1,0,0,1,0,0)"><path fill="rgb(252,206,44)" fill-opacity="1" d=" M86.1709976196289,-32.375 C76.09500122070312,-36.37799835205078 56.095001220703125,-29.266000747680664 50.36800003051758,-23.624000549316406 C39.36199951171875,-23.56399917602539 14.289999961853027,-20.718000411987305 2.306999921798706,-15.774999618530273 C-13.6899995803833,-15.569999694824219 -56.62799835205078,-11.633999824523926 -66.52100372314453,-11.369000434875488 C-85.45500183105469,-10.862000465393066 -100.2229995727539,-8.04800033569336 -113.08300018310547,5.361999988555908 C-166.24600219726562,60.79800033569336 -96.80599975585938,39.301998138427734 -74.53199768066406,33.02000045776367 C-53.895999908447266,27.200000762939453 12.37600040435791,8.345999717712402 33.236000061035156,4.633999824523926 C54.00400161743164,0.9380000233650208 74.60900115966797,-10.579000473022461 86.08799743652344,-14.472999572753906 C95.66500091552734,-17.722000122070312 94.15399932861328,-29.20400047302246 86.1709976196289,-32.375z"/></g><g opacity="1" transform="matrix(1,0,0,1,0,0)"><path fill="rgb(252,206,44)" fill-opacity="1" d=" M85.02999877929688,-30.253999710083008 C74.4229965209961,-34.13999938964844 56.80500030517578,-25.926000595092773 50.685001373291016,-21.808000564575195 C40.150001525878906,-21.323999404907227 11.140999794006348,-17.93199920654297 2.681999921798706,-13.767000198364258 C-11.508999824523926,-13.086999893188477 -56.00699996948242,-8.855999946594238 -65.08300018310547,-8.25100040435791 C-88.84700012207031,-6.666999816894531 -96.77100372314453,-3.7219998836517334 -107.32099914550781,6.909999847412109 C-160.43099975585938,60.43600082397461 -87.26000213623047,34.33700180053711 -75.06700134277344,31.177000045776367 C-46.81700134277344,23.854999542236328 11.87600040435791,7.03000020980835 32.736000061035156,3.318000078201294 C53.50400161743164,-0.3779999911785126 72.94499969482422,-11.598999977111816 84.53299713134766,-15.39900016784668 C94.23500061035156,-18.58099937438965 92.14199829101562,-27.648000717163086 85.02999877929688,-30.253999710083008z"/></g><g opacity="0.8" transform="matrix(1,0,0,1,0,0)"><path fill="rgb(255,215,93)" fill-opacity="1" d=" M83.54900360107422,-27.895999908447266 C73.25399780273438,-30.267000198364258 57.7130012512207,-23.746000289916992 51.185001373291016,-20.11199951171875 C37.24300003051758,-18.295000076293945 10.595999717712402,-13.9350004196167 3.061000108718872,-10.664999961853027 C-11.812000274658203,-8.847999572753906 -53.38399887084961,-3.4130001068115234 -62.45399856567383,-2.7190001010894775 C-75.76599884033203,-1.7009999752044678 -96.35600280761719,4.355000019073486 -106.15399932861328,13.916000366210938 C-137.73800659179688,44.73699951171875 -103.01799774169922,38.27000045776367 -76.12000274658203,29.28700065612793 C-52.79600143432617,21.49799919128418 10.76200008392334,4.76800012588501 31.861000061035156,1.6150000095367432 C50.000999450683594,-1.0959999561309814 71.84300231933594,-13.14799976348877 83.52899932861328,-16.861000061035156 C91.85600280761719,-19.506000518798828 89.47000122070312,-26.531999588012695 83.54900360107422,-27.895999908447266z"/></g></g><g style="display: block;" transform="matrix(1.031999945640564,0,0,-1.031999945640564,349.9559631347656,206.36410522460938)" opacity="1"><g opacity="1" transform="matrix(1,0,0,1,0,0)"><path stroke-linecap="round" stroke-linejoin="round" fill-opacity="0" stroke="rgb(225,124,0)" stroke-opacity="1" stroke-width="8" d=" M-100.8219985961914,-41.92100143432617 C-81.9990005493164,-35.02199935913086 -65.58000183105469,-31.93899917602539 -54.7140007019043,-31.260000228881836 C-43.54999923706055,-30.562000274658203 -19.18600082397461,-33.81999969482422 0.017999999225139618,-32.220001220703125 C8.449999809265137,-36.095001220703125 37.57899856567383,-40.27399826049805 47.70800018310547,-38.94200134277344 C53.435001373291016,-43.10100173950195 65.83300018310547,-46.784000396728516 83.66999816894531,-46.9109992980957 C100.87699890136719,-47.034000396728516 113.94200134277344,-21.525999069213867 87.04900360107422,-7.625999927520752 C74.24500274658203,-1.0080000162124634 55.75299835205078,5.474999904632568 34.986000061035156,11.446000099182129 C10.003000259399414,18.628999710083008 -18.274999618530273,25.069000244140625 -43.90599822998047,30.10700035095215 C-64.86499786376953,34.22700119018555 -72.19300079345703,45.08300018310547 -102.44599914550781,46.9119987487793"/></g></g><g style="display: block;" transform="matrix(1.031999945640564,0,0,-1.031999945640564,242.5,229)" opacity="1"><g opacity="0.1" transform="matrix(1,0,0,1,0,0)"><path fill="rgb(251,205,43)" fill-opacity="1" d=" M-147.06199645996094,1.628999948501587 C-155.8090057373047,0.23499999940395355 -183.54299926757812,-2.6649999618530273 -192.87100219726562,-1.7949999570846558 C-202.63999938964844,-0.8840000033378601 -201.5399932861328,57.53300094604492 -193.656005859375,68.52400207519531 C-191.156005859375,72.00900268554688 -133.4149932861328,71.2300033569336 -127.35099792480469,69.08000183105469 C-115.22599792480469,64.78099822998047 -139.906005859375,57.83599853515625 -140.906005859375,17.406999588012695 C-141.16200256347656,7.068999767303467 -138.80799865722656,2.944999933242798 -147.06199645996094,1.628999948501587z"/></g><g opacity="0.2" transform="matrix(1,0,0,1,0,0)"><path fill="rgb(251,205,43)" fill-opacity="1" d=" M-149.75399780273438,8.097999572753906 C-158.88900756835938,6.90500020980835 -182.06300354003906,4.118000030517578 -193.58999633789062,4.642000198364258 C-201.30799865722656,4.993000030517578 -201.7949981689453,53.33000183105469 -194.0469970703125,64.22000122070312 C-191.13400268554688,68.31400299072266 -141.11000061035156,67.09600067138672 -133.8820037841797,65.66200256347656 C-125.14700317382812,63.92900085449219 -138.5659942626953,59.125999450683594 -142.66400146484375,25.006999969482422 C-143.8780059814453,14.89900016784668 -141.87899780273438,9.12600040435791 -149.75399780273438,8.097999572753906z"/></g><g opacity="0.3" transform="matrix(1,0,0,1,0,0)"><path fill="rgb(251,205,43)" fill-opacity="1" d=" M-151.656005859375,13.32800006866455 C-157.9459991455078,11.741999626159668 -184.10899353027344,9.810999870300293 -193.8560028076172,11.293999671936035 C-202.63400268554688,12.630000114440918 -201.30799865722656,58.94300079345703 -192.906005859375,61.36800003051758 C-179.7469940185547,65.16600036621094 -148.447998046875,64.00199890136719 -139.697998046875,62.67300033569336 C-133.30099487304688,61.70199966430664 -143.04800415039062,48.5369987487793 -144.66799926757812,27.246000289916992 C-145.44200134277344,17.07900047302246 -146.06199645996094,14.73799991607666 -151.656005859375,13.32800006866455z"/></g><g opacity="0.5" transform="matrix(1,0,0,1,0,0)"><path fill="rgb(251,205,43)" fill-opacity="1" d=" M-154.50799560546875,19.464000701904297 C-161.9429931640625,17.957000732421875 -184.71400451660156,16.229999542236328 -193.875,17.45599937438965 C-198.95799255371094,18.13599967956543 -204.13299560546875,49.066001892089844 -193.13299560546875,56.611000061035156 C-186.97500610351562,60.834999084472656 -151.94900512695312,59.27399826049805 -145.4949951171875,58.70000076293945 C-137.23300170898438,57.965999603271484 -145.10699462890625,44.66400146484375 -146.7969970703125,30.070999145507812 C-147.23199462890625,26.31599998474121 -147.57400512695312,20.868999481201172 -154.50799560546875,19.464000701904297z"/></g><g opacity="1" transform="matrix(1,0,0,1,0,0)"><path fill="rgb(251,205,43)" fill-opacity="1" d=" M-157.18699645996094,25.319000244140625 C-162.68699645996094,24.332000732421875 -187.1320037841797,23.49799919128418 -191.61300659179688,25.49799919128418 C-197.36300659179688,28.06399917602539 -198.76499938964844,46.69499969482422 -191.50799560546875,51.80400085449219 C-186.88299560546875,55.060001373291016 -156.63400268554688,55.27000045776367 -147.76100158691406,53.67499923706055 C-143.16900634765625,52.849998474121094 -147.28700256347656,40.229000091552734 -148.57400512695312,32.709999084472656 C-149.17599487304688,29.190000534057617 -151.68699645996094,26.305999755859375 -157.18699645996094,25.319000244140625z"/></g></g><g style="display: block;" transform="matrix(1.031999945640564,0,0,-1.031999945640564,71.61215209960938,202.88214111328125)" opacity="1"><g opacity="1" transform="matrix(1,0,0,1,0,0)"><path stroke-linecap="round" stroke-linejoin="round" fill-opacity="0" stroke="rgb(225,124,0)" stroke-opacity="1" stroke-width="8" d=" M72.16400146484375,-38.15700149536133 C54.9630012512207,-36.65599822998047 -17.135000228881836,-45.382999420166016 -28.277999877929688,-47.59000015258789 C-36.52899932861328,-31.650999069213867 -35.65999984741211,36.707000732421875 -28.121000289916992,46.928001403808594 C-21.12299919128418,47.42399978637695 3.309000015258789,46.987998962402344 15.333999633789062,47.59000015258789"/></g></g><g style="display: block;" transform="matrix(1.031999945640564,0,0,-1.031999945640564,194.8876495361328,290.9169006347656)" opacity="1"><g opacity="1" transform="matrix(1,0,0,1,0,0)"><path fill="rgb(252,206,44)" fill-opacity="1" d=" M-95.36599731445312,59.4640007019043 C-88.16500091552734,47.891998291015625 -80.58000183105469,33.23400115966797 -57.178001403808594,23.461999893188477 C-36.375,14.774999618530273 -20.76799964904785,19.260000228881836 -3.250999927520752,8.347000122070312 C17.329999923706055,-4.473999977111816 28.013999938964844,-17.125 42.05799865722656,-40.608001708984375 C54.70800018310547,-61.7599983215332 72.48600006103516,-63.249000549316406 85.48200225830078,-54.23899841308594 C98.13400268554688,-45.46699905395508 101.19599914550781,-26.823999404907227 79.23999786376953,-0.42500001192092896 C68.13300323486328,12.928999900817871 61.71900177001953,20.961999893188477 51.74300003051758,33.3129997253418 C48.20000076293945,37.69900131225586 48.250999450683594,46.564998626708984 47.303001403808594,54.52799987792969"/><path fill="rgb(240,146,1)" fill-opacity="0.8" d=" M-95.36599731445312,59.4640007019043 C-88.16500091552734,47.891998291015625 -80.58000183105469,33.23400115966797 -57.178001403808594,23.461999893188477 C-36.375,14.774999618530273 -20.76799964904785,19.260000228881836 -3.250999927520752,8.347000122070312 C17.329999923706055,-4.473999977111816 28.013999938964844,-17.125 42.05799865722656,-40.608001708984375 C54.70800018310547,-61.7599983215332 72.48600006103516,-63.249000549316406 85.48200225830078,-54.23899841308594 C98.13400268554688,-45.46699905395508 101.19599914550781,-26.823999404907227 79.23999786376953,-0.42500001192092896 C68.13300323486328,12.928999900817871 61.71900177001953,20.961999893188477 51.74300003051758,33.3129997253418 C48.20000076293945,37.69900131225586 48.250999450683594,46.564998626708984 47.303001403808594,54.52799987792969"/></g></g><g style="display: block;" transform="matrix(1.031999945640564,0,0,-1.031999945640564,242.5,212.99986267089844)" opacity="1"><g opacity="0.1" transform="matrix(1,0,0,1,0,0)"><path fill="rgb(251,205,43)" fill-opacity="1" d=" M18.875999450683594,-126.30000305175781 C1.2330000400543213,-118.06800079345703 -7.484000205993652,-89.53800201416016 -33.73400115966797,-66.53800201416016 C-61.94200134277344,-41.823001861572266 -90.19499969482422,-43.784000396728516 -117.40699768066406,-28.812999725341797 C-160.9739990234375,-4.84499979019165 -164.48699951171875,20.590999603271484 -144.01300048828125,50.09400177001953 C-133.093994140625,65.8290023803711 -54.59700012207031,59.2130012512207 -34.45800018310547,55.69499969482422 C-15.866999626159668,52.446998596191406 -8.944999694824219,2.9119999408721924 -6.5,-14 C-3.5,-34.75 30.614999771118164,-69.8949966430664 41.625999450683594,-89.11100006103516 C54.375999450683594,-111.36100006103516 35.42900085449219,-134.0229949951172 18.875999450683594,-126.30000305175781z"/></g><g opacity="0.2" transform="matrix(1,0,0,1,0,0)"><path fill="rgb(251,205,43)" fill-opacity="1" d=" M19.270000457763672,-122.88600158691406 C2.2750000953674316,-113.6500015258789 -7.324999809265137,-87.13099670410156 -33.82500076293945,-62.38100051879883 C-61.233001708984375,-36.78300094604492 -82.93099975585938,-38.37200164794922 -111.52300262451172,-24.891000747680664 C-137.5970001220703,-12.597000122070312 -154.55499267578125,29.312000274658203 -136.75900268554688,49.380001068115234 C-123.89299774169922,63.88800048828125 -58.50299835205078,55.8380012512207 -38.73099899291992,52.720001220703125 C-19.856000900268555,49.74300003051758 -15.75,1.25 -11.5,-15.75 C-5.9679999351501465,-37.87799835205078 28.155000686645508,-71.86699676513672 39.750999450683594,-90.73600006103516 C53.500999450683594,-113.11100006103516 32.520999908447266,-130.08799743652344 19.270000457763672,-122.88600158691406z"/></g><g opacity="0.3" transform="matrix(1,0,0,1,0,0)"><path fill="rgb(251,205,43)" fill-opacity="1" d=" M20.07900047302246,-120.92400360107422 C2.559999942779541,-112.72599792480469 -6.6620001792907715,-82.0009994506836 -33.05500030517578,-58.965999603271484 C-61.31100082397461,-34.305999755859375 -81.26599884033203,-33.880001068115234 -104.54199981689453,-22.183000564575195 C-137.5970001220703,-5.572000026702881 -147.28700256347656,31.25 -133.77099609375,48.099998474121094 C-123.24700164794922,61.220001220703125 -64.68000030517578,53.65700149536133 -41.9640007019043,48.36000061035156 C-25.232999801635742,44.45800018310547 -20.974000930786133,1.2200000286102295 -13.25,-17.25 C-4.625,-37.875 25.476999282836914,-74.76000213623047 37.875999450683594,-93.11100006103516 C50.375999450683594,-111.61100006103516 33.1879997253418,-127.05899810791016 20.07900047302246,-120.92400360107422z"/></g><g opacity="0.5" transform="matrix(1,0,0,1,0,0)"><path fill="rgb(251,205,43)" fill-opacity="1" d=" M19.981000900268555,-118.83799743652344 C2.122999906539917,-111.40699768066406 -6.7829999923706055,-76.06600189208984 -33.00899887084961,-54.21099853515625 C-61.81999969482422,-30.20199966430664 -70.22799682617188,-32.24399948120117 -99.56099700927734,-19.85099983215332 C-124.75800323486328,-9.206000328063965 -144.6219940185547,28.584999084472656 -129.73599243164062,46.46699905395508 C-120.98899841308594,56.974998474121094 -62.137001037597656,51.96200180053711 -44.939998626708984,45.64899826049805 C-24.527999877929688,38.15599822998047 -22.947999954223633,-1.184000015258789 -14.875,-17.875 C-5.625,-37 23.86400032043457,-75.51399993896484 36.23899841308594,-93.88099670410156 C48.11399841308594,-111.50599670410156 33.1879997253418,-124.33399963378906 19.981000900268555,-118.83799743652344z"/></g><g opacity="0.7000000000000001" transform="matrix(1,0,0,1,0,0)"><path fill="rgb(251,205,43)" fill-opacity="1" d=" M19.763999938964844,-116.8219985961914 C1.875,-107.71099853515625 -9.569000244140625,-68.79900360107422 -32.7239990234375,-50.047000885009766 C-56.1879997253418,-31.045000076293945 -71.87899780273438,-25.663000106811523 -94.11499786376953,-17.89299964904785 C-119.66999816894531,-8.963000297546387 -135.65899658203125,33.67300033569336 -124.61199951171875,43.6619987487793 C-114.48500061035156,52.819000244140625 -66.3759994506836,47.60200119018555 -48.861000061035156,41.8129997253418 C-33.16400146484375,36.625 -24.43400001525879,-2.2850000858306885 -16.5,-18.25 C-6.25,-38.875 21.158000946044922,-76.43000030517578 34.1870002746582,-94.33999633789062 C45.30099868774414,-109.61799621582031 34.15700149536133,-124.1520004272461 19.763999938964844,-116.8219985961914z"/></g><g opacity="1" transform="matrix(1,0,0,1,0,0)"><path fill="rgb(251,205,43)" fill-opacity="1" d=" M19.63800048828125,-114.4729995727539 C-3.0280001163482666,-100.41200256347656 -5.208000183105469,-64.07499694824219 -33.4119987487793,-44.814998626708984 C-53.345001220703125,-31.202999114990234 -61.01300048828125,-22.722999572753906 -85.40399932861328,-15.779999732971191 C-115.30999755859375,-7.267000198364258 -127.54399871826172,30.523000717163086 -115.4010009765625,40.513999938964844 C-105.5260009765625,48.638999938964844 -65.9209976196289,41.513999938964844 -49.805999755859375,36.23500061035156 C-35.305999755859375,31.485000610351562 -27.048999786376953,-3.549999952316284 -18.375,-19.125 C-7.375,-38.875 18.33799934387207,-77.0719985961914 32.055999755859375,-94.45899963378906 C42.805999755859375,-108.08399963378906 33.16600036621094,-122.86499786376953 19.63800048828125,-114.4729995727539z"/></g><g opacity="0.8" transform="matrix(1,0,0,1,0,0)"><path fill="rgb(255,215,93)" fill-opacity="1" d=" M19.448999404907227,-112.64800262451172 C-0.36399999260902405,-97.86799621582031 -1.937999963760376,-67.95099639892578 -30.81399917602539,-42.12300109863281 C-40.430999755859375,-33.520999908447266 -54.141998291015625,-20.590999603271484 -83.24099731445312,-11.623000144958496 C-107.24500274658203,-4.224999904632568 -113.1780014038086,20.94499969482422 -105.05000305175781,29.777000427246094 C-95.44499969482422,40.2130012512207 -57.698001861572266,33.34000015258789 -47.50699996948242,25.878999710083008 C-37.305999755859375,18.410999298095703 -27.25,-8.5 -20.5,-20 C-9.45300006866455,-38.82099914550781 15.47700023651123,-75.54299926757812 28.54800033569336,-93.4219970703125 C39.42300033569336,-108.2969970703125 29.836000442504883,-120.39600372314453 19.448999404907227,-112.64800262451172z"/></g></g><g style="display: block;" transform="matrix(1.031999945640564,0,0,-1.031999945640564,165.4632568359375,155.30384826660156)" opacity="1"><g opacity="1" transform="matrix(1,0,0,1,0,0)"><path stroke-linecap="round" stroke-linejoin="round" fill-opacity="0" stroke="rgb(225,124,0)" stroke-opacity="1" stroke-width="8" d=" M75.78099822998047,-2.4189999103546143 C49.5880012512207,-0.921999990940094 20.070999145507812,2.989000082015991 -8.392000198364258,2.3489999771118164 C-29.87700080871582,1.8660000562667847 -54.303001403808594,2.124000072479248 -75.78099822998047,1.3799999952316284"/></g></g><g style="display: block;" transform="matrix(1.031999945640564,0,0,-1.031999945640564,194.8876495361328,290.9169006347656)" opacity="1"><g opacity="1" transform="matrix(1,0,0,1,0,0)"><path stroke-linecap="round" stroke-linejoin="round" fill-opacity="0" stroke="rgb(225,124,0)" stroke-opacity="1" stroke-width="8" d=" M-95.36599731445312,59.4640007019043 C-88.16500091552734,47.891998291015625 -80.58000183105469,33.23400115966797 -57.178001403808594,23.461999893188477 C-36.375,14.774999618530273 -20.76799964904785,19.260000228881836 -3.250999927520752,8.347000122070312 C17.329999923706055,-4.473999977111816 28.013999938964844,-17.125 42.05799865722656,-40.608001708984375 C54.70800018310547,-61.7599983215332 72.48600006103516,-63.249000549316406 85.48200225830078,-54.23899841308594 C98.13400268554688,-45.46699905395508 101.19599914550781,-26.823999404907227 79.23999786376953,-0.42500001192092896 C68.13300323486328,12.928999900817871 61.71900177001953,20.961999893188477 51.74300003051758,33.3129997253418 C48.20000076293945,37.69900131225586 48.250999450683594,46.564998626708984 47.303001403808594,54.52799987792969"/></g></g></g></svg>