<svg xmlns="http://www.w3.org/2000/svg" xmlns:xlink="http://www.w3.org/1999/xlink" viewBox="0 0 512 512" width="512" height="512" style="width: 100%; height: 100%; transform: translate3d(0,0,0);" preserveAspectRatio="xMidYMid meet"><defs><clipPath id="__lottie_element_2100"><rect width="512" height="512" x="0" y="0"/></clipPath><linearGradient id="__lottie_element_2106" spreadMethod="pad" gradientUnits="userSpaceOnUse" x1="-1.0399999618530273" y1="-176.5" x2="0.9599999785423279" y2="188.88900756835938"><stop offset="0%" stop-color="rgb(253,207,24)"/><stop offset="47%" stop-color="rgb(245,171,12)"/><stop offset="93%" stop-color="rgb(237,135,0)"/></linearGradient><radialGradient id="__lottie_element_2107" spreadMethod="pad" gradientUnits="userSpaceOnUse" cx="-6.039999961853027" cy="-160.1230010986328" r="342.6724710471032" fx="-6.039999961853027" fy="-160.1230010986328"><stop offset="7%" stop-color="rgb(254,254,226)"/><stop offset="28%" stop-color="rgb(253,238,140)"/><stop offset="49%" stop-color="rgb(252,222,54)"/><stop offset="82%" stop-color="rgb(245,184,32)"/><stop offset="100%" stop-color="rgb(238,145,10)"/></radialGradient></defs><g clip-path="url(#__lottie_element_2100)"><g style="display: block;" transform="matrix(1.0329999923706055,0,0,1.0329999923706055,256,260)" opacity="1"><g opacity="1" transform="matrix(0.9700000286102295,0,0,0.9700000286102295,0.04500000178813934,-4.2769999504089355)"><path fill="url(#__lottie_element_2106)" fill-opacity="1" d=" M194.9969940185547,0 C194.9969940185547,107.69400024414062 107.69300079345703,194.9969940185547 0,194.9969940185547 C-107.69400024414062,194.9969940185547 -194.9969940185547,107.69400024414062 -194.9969940185547,0 C-194.9969940185547,-107.69400024414062 -107.69400024414062,-194.9969940185547 0,-194.9969940185547 C107.69300079345703,-194.9969940185547 194.9969940185547,-107.69400024414062 194.9969940185547,0z"/><path stroke-linecap="butt" stroke-linejoin="miter" fill-opacity="0" stroke-miterlimit="4" stroke="rgb(231,105,0)" stroke-opacity="1" stroke-width="8.26" d=" M194.9969940185547,0 C194.9969940185547,107.69400024414062 107.69300079345703,194.9969940185547 0,194.9969940185547 C-107.69400024414062,194.9969940185547 -194.9969940185547,107.69400024414062 -194.9969940185547,0 C-194.9969940185547,-107.69400024414062 -107.69400024414062,-194.9969940185547 0,-194.9969940185547 C107.69300079345703,-194.9969940185547 194.9969940185547,-107.69400024414062 194.9969940185547,0z"/></g><g opacity="1" transform="matrix(0.9700000286102295,0,0,0.9700000286102295,0.10199999809265137,-6.083000183105469)"><path fill="url(#__lottie_element_2107)" fill-opacity="1" d=" M173.80799865722656,2.6630001068115234 C172.3040008544922,100.77200317382812 93.26899719238281,179.11199951171875 -2.7230000495910645,177.63999938964844 C-98.71399688720703,176.16799926757812 -175.31199645996094,95.44499969482422 -173.80799865722656,-2.6640000343322754 C-172.3040008544922,-100.77300262451172 -93.26899719238281,-179.11199951171875 2.7230000495910645,-177.64100646972656 C98.71399688720703,-176.16900634765625 175.31199645996094,-95.44499969482422 173.80799865722656,2.6630001068115234z"/></g></g><g style="display: block;" transform="matrix(1.0329999923706055,0,0,1.0329999923706055,256,260.00103759765625)" opacity="1"><g opacity="1" transform="matrix(1,0,0,1,0,0)"><path fill="rgb(254,221,120)" fill-opacity="1" d=" M0.9129999876022339,46.527000427246094 C5.071000099182129,45.08399963378906 36.55500030517578,47.465999603271484 49.4119987487793,60.323001861572266 C59.85900115966797,70.7699966430664 39.05699920654297,88.6989974975586 29.628000259399414,93.5469970703125 C28.235000610351562,94.26399993896484 28.7810001373291,98.39600372314453 30,99.37999725341797 C36.928001403808594,104.9729995727539 50.35200119018555,112.11799621582031 51.457000732421875,120.78700256347656 C53.08599853515625,133.55799865722656 15.656000137329102,143.21299743652344 1.25600004196167,140.47000122070312 C-2.000999927520752,139.85000610351562 -1.4839999675750732,134.61500549316406 1.9420000314712524,133.09800720214844 C12.416000366210938,128.46099853515625 36.22800064086914,127.03700256347656 36.22800064086914,121.84400177001953 C36.22800064086914,112.5270004272461 6.228000164031982,104.64199829101562 6.228000164031982,91.95600128173828 C6.228000164031982,82.7239990234375 36.45600128173828,81.61599731445312 36.02799987792969,72.18699645996094 C35.62300109863281,63.27199935913086 -11.687000274658203,50.89799880981445 0.9129999876022339,46.527000427246094z"/></g><g opacity="1" transform="matrix(1,0,0,1,0,0)"><path fill="rgb(151,72,0)" fill-opacity="1" d=" M1.9980000257492065,136.69700622558594 C-1.2619999647140503,136.07699584960938 -0.3019999861717224,133.40699768066406 3.128000020980835,131.88699340820312 C13.597999572753906,127.24700164794922 36.52799987792969,120.5770034790039 36.3380012512207,115.38700103759766 C36.178001403808594,110.76699829101562 23.757999420166016,105.177001953125 14.977999687194824,99.78700256347656 C10.067999839782715,96.78700256347656 6.297999858856201,93.83699798583984 6.438000202178955,91.15699768066406 C6.638000011444092,87.20700073242188 12.208000183105469,83.70700073242188 18.468000411987305,80.24700164794922 C26.808000564575195,75.63700103759766 36.38800048828125,71.11699676513672 36.13800048828125,65.72699737548828 C35.737998962402344,56.80699920654297 -10.661999702453613,50.0369987487793 1.937999963760376,45.66699981689453 C6.0980000495910645,44.22700119018555 35.71799850463867,46.527000427246094 48.56800079345703,59.387001037597656 C55.077999114990234,65.88700103759766 49.268001556396484,73.89700317382812 42.108001708984375,80.24700164794922 C37.768001556396484,84.10700225830078 32.9379997253418,87.35700225830078 30.04800033569336,89.2969970703125 C28.74799919128418,90.16699981689453 28.898000717163086,91.93699645996094 30.118000030517578,92.91699981689453 C32.6879997253418,94.99700164794922 36.14799880981445,97.28700256347656 39.54800033569336,99.78700256347656 C45.30799865722656,104.0270004272461 50.87799835205078,108.87699890136719 51.56800079345703,114.3270034790039 C53.198001861572266,127.09700012207031 16.398000717163086,139.43699645996094 1.9980000257492065,136.69700622558594z"/></g><g opacity="1" transform="matrix(1,0,0,1,0,0)"><path fill="rgb(99,41,0)" fill-opacity="1" d=" M34.361000061035156,69.96199798583984 C28.173999786376953,77.46299743652344 6.840000152587891,83.37699890136719 6.438000202178955,91.15699768066406 C6.3979997634887695,91.87699890136719 6.6479997634887695,92.61699676513672 7.127999782562256,93.37699890136719 C11.618000030517578,85.25700378417969 36.52799987792969,78.83699798583984 36.13800048828125,70.18699645996094 C36.13800048828125,70.18699645996094 36.13800048828125,65.927001953125 36.13800048828125,65.927001953125 C36.13800048828125,66.82099914550781 35.446998596191406,68.6449966430664 34.361000061035156,69.96199798583984z"/></g><g opacity="1" transform="matrix(1,0,0,1,0,0)"><path fill="rgb(99,41,0)" fill-opacity="1" d=" M51.097999572753906,67.97699737548828 C50.70800018310547,66.55699920654297 49.89799880981445,65.16699981689453 48.56800079345703,63.83700180053711 C36.487998962402344,51.75699996948242 9.57800006866455,48.99700164794922 2.947999954223633,49.90700149536133 C-0.492000013589859,48.30699920654297 -1.6019999980926514,46.89699935913086 1.937999963760376,45.66699981689453 C6.0980000495910645,44.22700119018555 35.71799850463867,46.527000427246094 48.56800079345703,59.387001037597656 C51.24800109863281,62.06700134277344 51.8380012512207,65.00700378417969 51.097999572753906,67.97699737548828z"/></g><g opacity="1" transform="matrix(1,0,0,1,0,0)"><path fill="rgb(99,41,0)" fill-opacity="1" d=" M51.56800079345703,114.3270034790039 C50.49800109863281,105.87699890136719 37.70800018310547,98.87699890136719 30.658000946044922,93.33699798583984 C30.6560001373291,93.33799743652344 30.655000686645508,93.33899688720703 30.652999877929688,93.33999633789062 C30.472999572753906,93.1989974975586 29.13800048828125,91.677001953125 29.13800048828125,90.97699737548828 C29.13800048828125,90.97699737548828 27.34000015258789,94.91899871826172 30.118000030517578,97.37699890136719 C36.40599822998047,102.94200134277344 48.97800064086914,109.31700134277344 51.257999420166016,117.33699798583984 C51.5880012512207,116.33699798583984 51.698001861572266,115.33699798583984 51.56800079345703,114.3270034790039z"/></g><g opacity="1" transform="matrix(1,0,0,1,0,0)"><path fill="rgb(99,41,0)" fill-opacity="1" d=" M35.28799819946289,117.49600219726562 C30.711000442504883,122.29000091552734 12.220000267028809,127.8550033569336 3.128000020980835,131.88699340820312 C-0.3019999861717224,133.40699768066406 -1.2619999647140503,136.07699584960938 1.9980000257492065,136.69700622558594 C2.1080000400543213,136.7169952392578 2.8480000495910645,136.4669952392578 3.128000020980835,136.3470001220703 C13.597999572753906,131.70700073242188 36.52799987792969,125.0270004272461 36.3380012512207,119.83699798583984 C36.3380012512207,119.83699798583984 36.3380012512207,115.4469985961914 36.3380012512207,115.4469985961914 C36.3380012512207,116.10900115966797 35.95600128173828,116.79499816894531 35.28799819946289,117.49600219726562z"/></g></g><g style="display: block;" transform="matrix(1.0329999923706055,0,0,1.0329999923706055,256,260)" opacity="1"><g opacity="1" transform="matrix(1,0,0,1,0,0)"><g opacity="1" transform="matrix(1,0,0,1,0,0)"><path fill="rgb(255,225,156)" fill-opacity="1" d=" M-33.935001373291016,-40.137001037597656 C-33.935001373291016,-23.059999465942383 -44.112998962402344,-9.215999603271484 -56.66699981689453,-9.215999603271484 C-69.22200012207031,-9.215999603271484 -79.39900207519531,-23.059999465942383 -79.39900207519531,-40.137001037597656 C-79.39900207519531,-57.2140007019043 -33.935001373291016,-57.2140007019043 -33.935001373291016,-40.137001037597656z"/></g><g opacity="1" transform="matrix(1,0,0,1,0,0)"><path fill="rgb(234,172,31)" fill-opacity="1" d=" M-33.935001373291016,-43.31999969482422 C-33.935001373291016,-28.000999450683594 -44.112998962402344,-15.581999778747559 -56.66699981689453,-15.581999778747559 C-69.22200012207031,-15.581999778747559 -79.39900207519531,-28.000999450683594 -79.39900207519531,-43.31999969482422 C-79.39900207519531,-58.638999938964844 -69.22200012207031,-71.05699920654297 -56.66699981689453,-71.05699920654297 C-44.112998962402344,-71.05699920654297 -33.935001373291016,-58.638999938964844 -33.935001373291016,-43.31999969482422z"/></g><g opacity="1" transform="matrix(1,0,0,1,0,0)"><path fill="rgb(151,72,0)" fill-opacity="1" d=" M-35.76499938964844,-40.27299880981445 C-35.76499938964844,-25.836999893188477 -45.12300109863281,-14.133999824523926 -56.66699981689453,-14.133999824523926 C-68.21099853515625,-14.133999824523926 -77.56800079345703,-25.836999893188477 -77.56800079345703,-40.27299880981445 C-77.56800079345703,-54.70899963378906 -68.21099853515625,-66.41300201416016 -56.66699981689453,-66.41300201416016 C-45.12300109863281,-66.41300201416016 -35.76499938964844,-54.70899963378906 -35.76499938964844,-40.27299880981445z"/></g><g opacity="1" transform="matrix(1,0,0,1,0,0)"><path fill="rgb(100,42,1)" fill-opacity="1" d=" M-35.76300048828125,-40.26900100708008 C-35.76300048828125,-39.12099838256836 -35.81999969482422,-37.992000579833984 -35.944000244140625,-36.882999420166016 C-37.263999938964844,-49.72600173950195 -46.042999267578125,-59.652000427246094 -56.66699981689453,-59.652000427246094 C-67.29100036621094,-59.652000427246094 -76.06900024414062,-49.72600173950195 -77.38899993896484,-36.882999420166016 C-77.51300048828125,-37.992000579833984 -77.57099914550781,-39.12099838256836 -77.57099914550781,-40.26900100708008 C-77.57099914550781,-54.70899963378906 -68.20899963378906,-66.41300201416016 -56.66699981689453,-66.41300201416016 C-45.125,-66.41300201416016 -35.76300048828125,-54.70899963378906 -35.76300048828125,-40.26900100708008z"/></g></g><g opacity="1" transform="matrix(1,0,0,1,0,0)"><g opacity="1" transform="matrix(1,0,0,1,0,0)"><path fill="rgb(255,225,156)" fill-opacity="1" d=" M76.95800018310547,-40.137001037597656 C76.95800018310547,-23.059999465942383 66.78099822998047,-9.215999603271484 54.22700119018555,-9.215999603271484 C41.672000885009766,-9.215999603271484 31.493999481201172,-23.059999465942383 31.493999481201172,-40.137001037597656 C31.493999481201172,-57.2140007019043 76.95800018310547,-57.2140007019043 76.95800018310547,-40.137001037597656z"/></g><g opacity="1" transform="matrix(1,0,0,1,0,0)"><path fill="rgb(234,172,31)" fill-opacity="1" d=" M76.95800018310547,-43.31999969482422 C76.95800018310547,-28.000999450683594 66.78099822998047,-15.581999778747559 54.22700119018555,-15.581999778747559 C41.672000885009766,-15.581999778747559 31.493999481201172,-28.000999450683594 31.493999481201172,-43.31999969482422 C31.493999481201172,-58.638999938964844 41.672000885009766,-71.05699920654297 54.22700119018555,-71.05699920654297 C66.78099822998047,-71.05699920654297 76.95800018310547,-58.638999938964844 76.95800018310547,-43.31999969482422z"/></g><g opacity="1" transform="matrix(1,0,0,1,0,0)"><path fill="rgb(151,72,0)" fill-opacity="1" d=" M75.12799835205078,-40.27299880981445 C75.12799835205078,-25.836999893188477 65.77100372314453,-14.133999824523926 54.22700119018555,-14.133999824523926 C42.68299865722656,-14.133999824523926 33.32500076293945,-25.836999893188477 33.32500076293945,-40.27299880981445 C33.32500076293945,-54.70899963378906 42.68299865722656,-66.41300201416016 54.22700119018555,-66.41300201416016 C65.77100372314453,-66.41300201416016 75.12799835205078,-54.70899963378906 75.12799835205078,-40.27299880981445z"/></g><g opacity="1" transform="matrix(1,0,0,1,0,0)"><path fill="rgb(100,42,1)" fill-opacity="1" d=" M75.12999725341797,-40.26900100708008 C75.12999725341797,-39.12099838256836 75.072998046875,-37.992000579833984 74.9489974975586,-36.882999420166016 C73.62899780273438,-49.72600173950195 64.85099792480469,-59.652000427246094 54.22700119018555,-59.652000427246094 C43.60300064086914,-59.652000427246094 34.82400131225586,-49.72600173950195 33.50400161743164,-36.882999420166016 C33.380001068115234,-37.992000579833984 33.321998596191406,-39.12099838256836 33.321998596191406,-40.26900100708008 C33.321998596191406,-54.70899963378906 42.685001373291016,-66.41300201416016 54.22700119018555,-66.41300201416016 C65.76899719238281,-66.41300201416016 75.12999725341797,-54.70899963378906 75.12999725341797,-40.26900100708008z"/></g></g></g></g></svg>