<svg xmlns="http://www.w3.org/2000/svg" xmlns:xlink="http://www.w3.org/1999/xlink" viewBox="0 0 512 512" width="512" height="512" style="width: 100%; height: 100%; transform: translate3d(0,0,0);" preserveAspectRatio="xMidYMid meet"><defs><clipPath id="__lottie_element_7365"><rect width="512" height="512" x="0" y="0"/></clipPath><linearGradient id="__lottie_element_7384" spreadMethod="pad" gradientUnits="userSpaceOnUse" x1="-246" y1="1" x2="243" y2="0"><stop offset="0%" stop-color="rgb(0,0,0)"/><stop offset="25%" stop-color="rgb(0,0,0)"/><stop offset="50%" stop-color="rgb(0,0,0)"/><stop offset="75%" stop-color="rgb(0,0,0)"/><stop offset="100%" stop-color="rgb(0,0,0)"/></linearGradient><mask id="__lottie_element_7386"><path fill="url(#__lottie_element_7385)" d=" M-246.5,-145.5 C-246.5,-139 -246.5,144.218994140625 -246.5,146.593994140625 C-244.71200561523438,146.76499938964844 -241.55099487304688,147.5780029296875 -237.75900268554688,148.50999450683594 C-220.5,152.75 -191.07200622558594,159.75999450683594 -178.26499938964844,161.58399963378906 C-147.25,166 -127.13200378417969,165.62600708007812 -103.76799774169922,164.74600219726562 C-50.75,162.75 -4.125,146.125 27.19499969482422,139.3300018310547 C47.95800018310547,134.8249969482422 68.79000091552734,130.64500427246094 83.74700164794922,128.94000244140625 C106.25,126.375 122.875,126.75 143.25,128.35899353027344 C183.33700561523438,131.52499389648438 217.79400634765625,139.2030029296875 241.43800354003906,147.031005859375 C241.43800354003906,147.09300231933594 241.406005859375,147.09300231933594 241.406005859375,147.06199645996094 C241.406005859375,147.06199645996094 241.406005859375,147.06199645996094 241.406005859375,147.06199645996094 C241.56199645996094,120.56199645996094 241.23399353027344,82.29100036621094 241.25,49.90599822998047 C241.26600646972656,17.08300018310547 241.43699645996094,-15.739999771118164 241.5,-48.5629997253418 C241.56199645996094,-80.91699981689453 241.5,-128.75 241.625,-145.625 C151.281005859375,-172.5 103.15699768066406,-165.1009979248047 78.5,-162.81199645996094 C23.042999267578125,-156.04600524902344 -48.707000732421875,-130.79600524902344 -83.375,-129.06199645996094 C-157.875,-120.1240005493164 -212.75,-139.625 -246.5,-145.5z"/></mask><linearGradient id="__lottie_element_7385" spreadMethod="pad" gradientUnits="userSpaceOnUse" x1="-246" y1="1" x2="243" y2="0"><stop stop-color="rgb(255,255,255)" offset="0%" stop-opacity="1"/><stop stop-color="rgb(255,255,255)" offset="17%" stop-opacity="0.5"/><stop stop-color="rgb(255,255,255)" offset="33%" stop-opacity="0"/><stop stop-color="rgb(255,255,255)" offset="50%" stop-opacity="0"/><stop stop-color="rgb(255,255,255)" offset="66%" stop-opacity="0"/><stop stop-color="rgb(255,255,255)" offset="83%" stop-opacity="0.5"/><stop stop-color="rgb(255,255,255)" offset="100%" stop-opacity="1"/></linearGradient></defs><g clip-path="url(#__lottie_element_7365)"><g style="display: block;" transform="matrix(0.800000011920929,0,0,0.800000011920929,257.9656066894531,250.03680419921875)" opacity="1"><g opacity="1" transform="matrix(1,0,0,1,0,0)"><path fill="rgb(76,134,206)" fill-opacity="1" d=" M-246.5,-145.5 C-246.5,-139 -246.5,144.218994140625 -246.5,146.593994140625 C-244.71200561523438,146.76499938964844 -241.55099487304688,147.5780029296875 -237.75900268554688,148.50999450683594 C-220.5,152.75 -191.07200622558594,159.75999450683594 -178.26499938964844,161.58399963378906 C-147.25,166 -127.13200378417969,165.62600708007812 -103.76799774169922,164.74600219726562 C-50.75,162.75 -4.125,146.125 27.19499969482422,139.3300018310547 C47.95800018310547,134.8249969482422 68.79000091552734,130.64500427246094 83.74700164794922,128.94000244140625 C106.25,126.375 122.875,126.75 143.25,128.35899353027344 C183.33700561523438,131.52499389648438 217.79400634765625,139.2030029296875 241.43800354003906,147.031005859375 C241.43800354003906,147.09300231933594 241.406005859375,147.09300231933594 241.406005859375,147.06199645996094 C241.406005859375,147.06199645996094 241.406005859375,147.06199645996094 241.406005859375,147.06199645996094 C241.56199645996094,120.56199645996094 241.23399353027344,82.29100036621094 241.25,49.90599822998047 C241.26600646972656,17.08300018310547 241.43699645996094,-15.739999771118164 241.5,-48.5629997253418 C241.56199645996094,-80.91699981689453 241.5,-128.75 241.625,-145.625 C151.281005859375,-172.5 103.15699768066406,-165.1009979248047 78.5,-162.81199645996094 C23.042999267578125,-156.04600524902344 -48.707000732421875,-130.79600524902344 -83.375,-129.06199645996094 C-157.875,-120.1240005493164 -212.75,-139.625 -246.5,-145.5z"/></g></g><g style="display: block;" transform="matrix(0.800000011920929,0,0,0.800000011920929,53.200809478759766,44.79920196533203)" opacity="1"><g opacity="1" transform="matrix(1,0,0,1,243.24200439453125,258.7239990234375)"><path fill="rgb(242,242,242)" fill-opacity="1" d=" M-97.39099884033203,-26.575000762939453 C-102.13800048828125,-33.415000915527344 -110.53900146484375,-32.76599884033203 -115.00399780273438,-35.65299987792969 C-119.79499816894531,-38.750999450683594 -124.64600372314453,-44.255001068115234 -134.09300231933594,-47.255001068115234 C-138.1739959716797,-48.55099868774414 -144.78900146484375,-65.08100128173828 -147.68899536132812,-63.020999908447266 C-150.11500549316406,-61.29800033569336 -145.3719940185547,-43.400001525878906 -143.34800720214844,-37.553001403808594 C-141.0500030517578,-30.915000915527344 -131.60299682617188,-27.714000701904297 -125.41200256347656,-21.468000411987305 C-131.17799377441406,-20.680999755859375 -134.46499633789062,-16.98200035095215 -133.83700561523438,-14.894000053405762 C-132.36500549316406,-9.996999740600586 -129.0500030517578,-2.7239999771118164 -123.13500213623047,-10.043000221252441 C-122.87300109863281,-8.430999755859375 -120.87999725341797,-5.702000141143799 -117.3479995727539,-5.552999973297119 C-117.47599792480469,-1.7230000495910645 -117.81600189208984,3.8940000534057617 -115.64600372314453,4.85099983215332 C-114.0739974975586,5.545000076293945 -110.98600006103516,0.7450000047683716 -110.98600006103516,0.7450000047683716 C-110.98600006103516,0.7450000047683716 -110.9229965209961,7.89300012588501 -108.41200256347656,10.637999534606934 C-112.58200073242188,10.574000358581543 -111.56099700927734,11.595000267028809 -114.0719985961914,15.892999649047852 C-115.60099792480469,18.510000228881836 -119.15699768066406,19.55299949645996 -118.77400207519531,22.89299964904785 C-118.43299865722656,25.864999771118164 -116.96499633789062,34.14899826049805 -116.02899932861328,36.51100158691406 C-119.30599975585938,36.446998596191406 -122.53800201416016,35.58000183105469 -123.43299865722656,36.319000244140625 C-124.87999725341797,37.51499938964844 -124.70999908447266,50.06399917602539 -111.26300048828125,50.76599884033203 C-109.39600372314453,50.862998962402344 -106.66699981689453,52.70199966430664 -104.94400024414062,54.76599884033203 C-106.41200256347656,56.7869987487793 -107.55999755859375,59.16999816894531 -106.4540023803711,60.617000579833984 C-104.81800079345703,62.75600051879883 -100.81600189208984,60.12699890136719 -100.70999908447266,60.87200164794922 C-100.60399627685547,61.617000579833984 -99.45500183105469,69.38300323486328 -98.02899932861328,71.10600280761719 C-98.02899932861328,71.10600280761719 -99.12200164794922,79.71299743652344 -99.14900207519531,81.36000061035156 C-99.1780014038086,83.14800262451172 -93.98699951171875,82.57499694824219 -92.70999908447266,81.76599884033203 C-92.70999908447266,81.76599884033203 -93.25199890136719,89.3479995727539 -92.625,89.76599884033203 C-90.83799743652344,90.95700073242188 -85.73100280761719,85.51100158691406 -80.56600189208984,90.78800201416016 C-79.11299896240234,92.27200317382812 -76.3270034790039,93.80899810791016 -69.81600189208984,94.4469985961914 C-62.63399887084961,95.1510009765625 -55.007999420166016,100.95700073242188 -56.709999084472656,94.78700256347656 C-47.35300064086914,94.63600158691406 -37.84299850463867,95.45899963378906 -36.83700180053711,91.93599700927734 C-36.42399978637695,90.48799896240234 -34.45399856567383,88.31900024414062 -32.75199890136719,89 C-29.395999908447266,90.34200286865234 -20.582000732421875,89.21299743652344 -13.859000205993652,85.76599884033203 C-13.859000205993652,85.76599884033203 1.8769999742507935,90.16500091552734 6.992000102996826,87.93599700927734 C12.949000358581543,85.33999633789062 13.673999786376953,78.61699676513672 15.248000144958496,79.5530014038086 C16.82200050354004,80.48899841308594 21.047000885009766,91.51799774169922 21.215999603271484,93.89099884033203 C21.8439998626709,102.68099975585938 14.057000160217285,106.63800048828125 14.013999938964844,109.76599884033203 C14,110.77899932861328 14.480999946594238,112.31900024414062 13.375,113.76599884033203 C12.269000053405762,115.21299743652344 6.2210001945495605,120.21900177001953 9.503000259399414,120.53199768066406 C18.864999771118164,121.4260025024414 18.354000091552734,125.04199981689453 19.843000411987305,125.08499908447266 C21.332000732421875,125.12799835205078 21.427000045776367,120.86699676513672 23.33300018310547,121.7229995727539 C27.503000259399414,123.59500122070312 30.268999099731445,122.31900024414062 32.14099884033203,119.93599700927734 C32.42499923706055,119.5739974975586 38.53499984741211,121.3759994506836 41.152000427246094,121.7979965209961 C53.63100051879883,123.80899810791016 64.0989990234375,108.61699676513672 66.6520004272461,109.2229995727539 C68.41699981689453,109.64199829101562 65.46099853515625,115.33999633789062 71.63099670410156,110.7020034790039 C73.27200317382812,109.46800231933594 71.70899963378906,113.71499633789062 73.74800109863281,114.37200164794922 C75.03500366210938,114.78700256347656 81.10900115966797,105.36199951171875 82.1449966430664,106.16400146484375 C82.44100189208984,106.39299774169922 82.23100280761719,107.05799865722656 83.21600341796875,107.21299743652344 C85.3759994506836,107.5530014038086 94.26899719238281,95.85099792480469 98.66300201416016,96.45700073242188 C100.4749984741211,96.70700073242188 102.73699951171875,97.63899993896484 103.12000274658203,96.83000183105469 C103.72100067138672,95.55999755859375 97.29000091552734,94.65899658203125 105.58799743652344,87.45700073242188 C107.81400299072266,85.5250015258789 110.27999877929688,85.89399719238281 109.06700134277344,84.26599884033203 C107.85399627685547,82.63800048828125 104.21499633789062,78.93599700927734 105.875,78.16999816894531 C107.53500366210938,77.40399932861328 122.31199645996094,73.51000213623047 122.5989990234375,66.5530014038086 C122.63400268554688,65.71099853515625 118.48100280761719,59.97800064086914 122.6449966430664,52.57400131225586 C122.6449966430664,52.57400131225586 127.24800109863281,55.42599868774414 129.2050018310547,50.117000579833984 C129.82699584960938,48.430999755859375 134.21499633789062,49.678001403808594 134.53500366210938,47.722999572753906 C134.85400390625,45.7760009765625 134.8260040283203,41.625999450683594 132.17300415039062,36.7130012512207 C130.4499969482422,33.52199935913086 136.197998046875,31.055999755859375 137.1840057373047,27.584999084472656 C137.91799926757812,25 141.01400756835938,23.243999481201172 144.71600341796875,23.40399932861328 C144.71600341796875,23.40399932861328 143.66299438476562,16.670000076293945 144.77999877929688,12.616999626159668 C145.6719970703125,9.380999565124512 148.5449981689453,4.671000003814697 148.35400390625,1.8619999885559082 C148.35400390625,1.8619999885559082 144.0260009765625,0.5709999799728394 141.84300231933594,-2.7239999771118164 C139.5449981689453,-6.191999912261963 147.88600158691406,-14.70199966430664 146.15199279785156,-17.031999588012695 C138.96600341796875,-26.687000274658203 145.1199951171875,-33.125999450683594 144.4600067138672,-33.85100173950195 C143.375,-35.04199981689453 137.29100036621094,-31.80900001525879 133.63099670410156,-35.042999267578125 C130.86599731445312,-37.486000061035156 125.72699737548828,-42.053001403808594 118.83300018310547,-41.76599884033203 C118.83300018310547,-41.76599884033203 127.41799926757812,-51.946998596191406 121.16300201416016,-55.808998107910156 C121.16300201416016,-55.808998107910156 125.40699768066406,-60.340999603271484 124.83300018310547,-62.95800018310547 C124.25900268554688,-65.57499694824219 114.77899932861328,-86.06400299072266 117.45999908447266,-99.34100341796875 C117.45999908447266,-99.34100341796875 110.99199676513672,-110.06400299072266 104.6520004272461,-102.91500091552734 C104.6520004272461,-102.91500091552734 104.75800323486328,-107.38300323486328 97.6729965209961,-109.2979965209961 C93.0530014038086,-110.5469970703125 79.8010025024414,-113.25499725341797 78.6520004272461,-111.46800231933594 C77.50299835205078,-109.68099975585938 74.58399963378906,-105.47200012207031 74.18399810791016,-107.12799835205078 C70.61000061035156,-121.93699645996094 66.78299713134766,-113.34300231933594 61.290000915527344,-121.16999816894531 C59.5880012512207,-123.59600067138672 50.4739990234375,-109.31099700927734 41.30400085449219,-119.35199737548828 C39.03099822998047,-121.84100341796875 37.54999923706055,-117.53099822998047 31.722000122070312,-124.23200225830078 C29.757999420166016,-126.48899841308594 23.80900001525879,-123.76100158691406 17.163000106811523,-121.89399719238281 C6.864999771118164,-119 5.502999782562256,-122.57499694824219 -4.327000141143799,-118.57499694824219 C-4.327000141143799,-118.57499694824219 -5.511000156402588,-124.48400115966797 -6.453999996185303,-123.85099792480469 C-9.687999725341797,-121.68099975585938 -8.781000137329102,-117.0250015258789 -11.986000061035156,-114.53199768066406 C-16.582000732421875,-110.95800018310547 -20.79400062561035,-115.68099975585938 -22.45400047302246,-113.38300323486328 C-23.145999908447266,-112.42500305175781 -19.51799964904785,-109.2979965209961 -21.26300048828125,-107.97899627685547 C-23.007999420166016,-106.66000366210938 -30.1560001373291,-108.36199951171875 -31.135000228881836,-96.19200134277344 C-31.135000228881836,-96.19200134277344 -34.32699966430664,-94.36199951171875 -38.32699966430664,-90.91500091552734 C-45.58100128173828,-84.66500091552734 -41.220001220703125,-79.76599884033203 -41.518001556396484,-77.68099975585938 C-41.96799850463867,-74.52899932861328 -49.902000427246094,-73.4260025024414 -45.09299850463867,-68.95800018310547 C-47.98699951171875,-62.31999969482422 -52.19900131225586,-58.23400115966797 -51.60300064086914,-42.23400115966797 C-51.60300064086914,-42.23400115966797 -58.880001068115234,-41.255001068115234 -58.284000396728516,-39.16999816894531 C-57.6879997253418,-37.084999084472656 -56.880001068115234,-34.70199966430664 -56.880001068115234,-34.70199966430664 C-56.880001068115234,-34.70199966430664 -63.89500045776367,-30.363000869750977 -68.3270034790039,-30.65999984741211 C-77.85900115966797,-31.29800033569336 -89.47599792480469,-15.170999526977539 -97.39099884033203,-26.575000762939453z"/></g></g><g style="display: block;" transform="matrix(0.800000011920929,0,0,0.800000011920929,257.9656066894531,250.03680419921875)" opacity="0.35000000000000003"><g opacity="1" transform="matrix(1,0,0,1,0,0)"><path fill="url(#__lottie_element_7384)" mask="url(#__lottie_element_7386)" fill-opacity="1" d="M0 0 M-246.5,-145.5 C-246.5,-139 -246.5,144.218994140625 -246.5,146.593994140625 C-244.71200561523438,146.76499938964844 -241.55099487304688,147.5780029296875 -237.75900268554688,148.50999450683594 C-220.5,152.75 -191.07200622558594,159.75999450683594 -178.26499938964844,161.58399963378906 C-147.25,166 -127.13200378417969,165.62600708007812 -103.76799774169922,164.74600219726562 C-50.75,162.75 -4.125,146.125 27.19499969482422,139.3300018310547 C47.95800018310547,134.8249969482422 68.79000091552734,130.64500427246094 83.74700164794922,128.94000244140625 C106.25,126.375 122.875,126.75 143.25,128.35899353027344 C183.33700561523438,131.52499389648438 217.79400634765625,139.2030029296875 241.43800354003906,147.031005859375 C241.43800354003906,147.09300231933594 241.406005859375,147.09300231933594 241.406005859375,147.06199645996094 C241.406005859375,147.06199645996094 241.406005859375,147.06199645996094 241.406005859375,147.06199645996094 C241.56199645996094,120.56199645996094 241.23399353027344,82.29100036621094 241.25,49.90599822998047 C241.26600646972656,17.08300018310547 241.43699645996094,-15.739999771118164 241.5,-48.5629997253418 C241.56199645996094,-80.91699981689453 241.5,-128.75 241.625,-145.625 C151.281005859375,-172.5 103.15699768066406,-165.1009979248047 78.5,-162.81199645996094 C23.042999267578125,-156.04600524902344 -48.707000732421875,-130.79600524902344 -83.375,-129.06199645996094 C-157.875,-120.1240005493164 -212.75,-139.625 -246.5,-145.5z"/></g></g><g style="display: block;" transform="matrix(0.800000011920929,0,0,0.800000011920929,257.9656066894531,250.03680419921875)" opacity="0.15"><g opacity="1" transform="matrix(1,0,0,1,0,0)"><path fill="rgb(255,255,255)" fill-opacity="1" d=" M-246.875,-146 C-246.83700561523438,-139.70399475097656 -246.875,-138 -246.79200744628906,-132.81100463867188 C-237.5,-136.25 -197.25,-114 -124.49600219726562,-114.31099700927734 C-38.992000579833984,-114.6760025024414 39.233001708984375,-153.25 121.70800018310547,-153.39700317382812 C179.75,-153.5 241,-132.25 240.91200256347656,-131.552001953125 C241,-140.5 241.375,-144.625 241.375,-144.625 C241.375,-144.625 179.75,-166.25 122.5,-166 C39.49700164794922,-165.63800048828125 -39.5,-128 -124.25,-126.81199645996094 C-197.0449981689453,-125.79199981689453 -237.75,-149 -246.875,-146z"/></g></g><g style="display: block;" transform="matrix(0.800000011920929,0,0,0.800000011920929,257.9656066894531,250.03680419921875)" opacity="0.15"><g opacity="1" transform="matrix(1,0,0,1,0,0)"><path fill="rgb(0,0,0)" fill-opacity="1" d=" M122.5,112.25 C34,112.25 -36,149.5 -123.5,152 C-140.61700439453125,152.48899841308594 -155.82000732421875,151.3489990234375 -170.41099548339844,149.1280059814453 C-195.23399353027344,145.35000610351562 -218.28900146484375,138.4459991455078 -246,131.125 C-246.25,134.5 -246,141.375 -246,145.125 C-218.5749969482422,153.30599975585938 -195.61700439453125,159.55499267578125 -170.83099365234375,163.0050048828125 C-155.8520050048828,165.08999633789062 -140.20399475097656,166.15199279785156 -122.5,166 C-35,165.25 33.5,126.625 121.75,126.5 C126.26799774169922,126.49400329589844 131.11399841308594,126.59500122070312 136.27699279785156,126.83899688720703 C163.25900268554688,128.11300659179688 198.88099670410156,133.2550048828125 241.375,147 C241.375,147 241.25,134.75 241.5,131.125 C199.093994140625,118.93299865722656 163.16200256347656,113.84500122070312 136.1439971923828,112.58000183105469 C131.30499267578125,112.35399627685547 126.75299835205078,112.25 122.5,112.25z"/></g></g><g style="display: block;" transform="matrix(0.800000011920929,0,0,0.800000011920929,257.9656066894531,250.03680419921875)" opacity="1"><g opacity="1" transform="matrix(1,0,0,1,0,0)"><path stroke-linecap="round" stroke-linejoin="round" fill-opacity="0" stroke="rgb(40,72,111)" stroke-opacity="1" stroke-width="8" d=" M-246.5,-145.5 C-246.5,-139 -246.5,144.218994140625 -246.5,146.593994140625 C-244.71200561523438,146.76499938964844 -241.55099487304688,147.5780029296875 -237.75900268554688,148.50999450683594 C-220.5,152.75 -191.07200622558594,159.75999450683594 -178.26499938964844,161.58399963378906 C-147.25,166 -127.13200378417969,165.62600708007812 -103.76799774169922,164.74600219726562 C-50.75,162.75 -4.125,146.125 27.19499969482422,139.3300018310547 C47.95800018310547,134.8249969482422 68.79000091552734,130.64500427246094 83.74700164794922,128.94000244140625 C106.25,126.375 122.875,126.75 143.25,128.35899353027344 C183.33700561523438,131.52499389648438 217.79400634765625,139.2030029296875 241.43800354003906,147.031005859375 C241.43800354003906,147.09300231933594 241.406005859375,147.09300231933594 241.406005859375,147.06199645996094 C241.406005859375,147.06199645996094 241.406005859375,147.06199645996094 241.406005859375,147.06199645996094 C241.56199645996094,120.56199645996094 241.23399353027344,82.29100036621094 241.25,49.90599822998047 C241.26600646972656,17.08300018310547 241.43699645996094,-15.739999771118164 241.5,-48.5629997253418 C241.56199645996094,-80.91699981689453 241.5,-128.75 241.625,-145.625 C151.281005859375,-172.5 103.15699768066406,-165.1009979248047 78.5,-162.81199645996094 C23.042999267578125,-156.04600524902344 -48.707000732421875,-130.79600524902344 -83.375,-129.06199645996094 C-157.875,-120.1240005493164 -212.75,-139.625 -246.5,-145.5z"/></g></g></g></svg>