<svg xmlns="http://www.w3.org/2000/svg" xmlns:xlink="http://www.w3.org/1999/xlink" viewBox="0 0 512 512" width="512" height="512" style="width: 100%; height: 100%; transform: translate3d(0,0,0);" preserveAspectRatio="xMidYMid meet"><defs><clipPath id="__lottie_element_3504"><rect width="512" height="512" x="0" y="0"/></clipPath><linearGradient id="__lottie_element_3509" spreadMethod="pad" gradientUnits="userSpaceOnUse" x1="111.18299865722656" y1="220.17100524902344" x2="119.875" y2="283.3030090332031"><stop offset="0%" stop-color="rgb(255,255,255)"/><stop offset="50%" stop-color="rgb(255,255,255)"/><stop offset="99%" stop-color="rgb(255,255,255)"/></linearGradient><mask id="__lottie_element_3511"><path fill="url(#__lottie_element_3510)" d=" M200,-116 C200,-116 200,116 200,116 C200,162.39199829101562 162.39199829101562,200 116,200 C116,200 -116,200 -116,200 C-162.39199829101562,200 -200,162.39199829101562 -200,116 C-200,116 -200,-116 -200,-116 C-200,-162.39199829101562 -162.39199829101562,-200 -116,-200 C-116,-200 116,-200 116,-200 C162.39199829101562,-200 200,-162.39199829101562 200,-116z"/></mask><linearGradient id="__lottie_element_3510" spreadMethod="pad" gradientUnits="userSpaceOnUse" x1="111.18299865722656" y1="220.17100524902344" x2="119.875" y2="283.3030090332031"><stop stop-color="rgb(255,255,255)" offset="0%" stop-opacity="0"/><stop stop-color="rgb(255,255,255)" offset="1%" stop-opacity="0.42500001192092896"/><stop stop-color="rgb(255,255,255)" offset="1%" stop-opacity="0.8500000238418579"/><stop stop-color="rgb(255,255,255)" offset="51%" stop-opacity="0.42500001192092896"/><stop stop-color="rgb(255,255,255)" offset="100%" stop-opacity="0"/></linearGradient><radialGradient id="__lottie_element_3516" spreadMethod="pad" gradientUnits="userSpaceOnUse"><stop/><stop/><stop/></radialGradient><radialGradient id="__lottie_element_3517" spreadMethod="pad" gradientUnits="userSpaceOnUse"><stop/><stop/><stop/></radialGradient><radialGradient id="__lottie_element_3518" spreadMethod="pad" gradientUnits="userSpaceOnUse"><stop/><stop/><stop/></radialGradient><radialGradient id="__lottie_element_3519" spreadMethod="pad" gradientUnits="userSpaceOnUse"><stop/><stop/><stop/></radialGradient><radialGradient id="__lottie_element_3520" spreadMethod="pad" gradientUnits="userSpaceOnUse"><stop/><stop/><stop/></radialGradient><radialGradient id="__lottie_element_3521" spreadMethod="pad" gradientUnits="userSpaceOnUse"><stop/><stop/><stop/></radialGradient><radialGradient id="__lottie_element_3522" spreadMethod="pad" gradientUnits="userSpaceOnUse"><stop/><stop/><stop/></radialGradient><radialGradient id="__lottie_element_3523" spreadMethod="pad" gradientUnits="userSpaceOnUse"><stop/><stop/><stop/></radialGradient><radialGradient id="__lottie_element_3524" spreadMethod="pad" gradientUnits="userSpaceOnUse"><stop/><stop/><stop/></radialGradient><radialGradient id="__lottie_element_3525" spreadMethod="pad" gradientUnits="userSpaceOnUse"><stop/><stop/><stop/></radialGradient><clipPath id="__lottie_element_3542"><path d="M0,0 L512,0 L512,512 L0,512z"/></clipPath><linearGradient id="__lottie_element_3548" spreadMethod="pad" gradientUnits="userSpaceOnUse" x1="-3.4519999027252197" y1="-167.9949951171875" x2="-5.142000198364258" y2="171.56500244140625"><stop offset="0%" stop-color="rgb(220,178,229)"/><stop offset="13%" stop-color="rgb(195,122,214)"/><stop offset="28%" stop-color="rgb(170,67,199)"/><stop offset="32%" stop-color="rgb(170,67,199)"/><stop offset="48%" stop-color="rgb(170,67,199)"/><stop offset="74%" stop-color="rgb(156,59,184)"/><stop offset="100%" stop-color="rgb(141,52,169)"/></linearGradient><linearGradient id="__lottie_element_3552" spreadMethod="pad" gradientUnits="userSpaceOnUse"><stop/><stop/><stop/></linearGradient><mask id="__lottie_element_3554"><path fill="url(#__lottie_element_3553)"/></mask><linearGradient id="__lottie_element_3553" spreadMethod="pad" gradientUnits="userSpaceOnUse"><stop stop-color="rgb(255,255,255)"/><stop stop-color="rgb(255,255,255)"/><stop stop-color="rgb(255,255,255)"/><stop stop-color="rgb(255,255,255)"/><stop stop-color="rgb(255,255,255)"/></linearGradient><linearGradient id="__lottie_element_3555" spreadMethod="pad" gradientUnits="userSpaceOnUse"><stop/><stop/><stop/></linearGradient><mask id="__lottie_element_3557"><path fill="url(#__lottie_element_3556)"/></mask><linearGradient id="__lottie_element_3556" spreadMethod="pad" gradientUnits="userSpaceOnUse"><stop stop-color="rgb(255,255,255)"/><stop stop-color="rgb(255,255,255)"/><stop stop-color="rgb(255,255,255)"/><stop stop-color="rgb(255,255,255)"/><stop stop-color="rgb(255,255,255)"/><stop stop-color="rgb(255,255,255)"/><stop stop-color="rgb(255,255,255)"/></linearGradient><linearGradient id="__lottie_element_3561" spreadMethod="pad" gradientUnits="userSpaceOnUse"><stop/><stop/><stop/></linearGradient><mask id="__lottie_element_3563"><path fill="url(#__lottie_element_3562)"/></mask><linearGradient id="__lottie_element_3562" spreadMethod="pad" gradientUnits="userSpaceOnUse"><stop stop-color="rgb(255,255,255)"/><stop stop-color="rgb(255,255,255)"/><stop stop-color="rgb(255,255,255)"/><stop stop-color="rgb(255,255,255)"/><stop stop-color="rgb(255,255,255)"/></linearGradient><linearGradient id="__lottie_element_3564" spreadMethod="pad" gradientUnits="userSpaceOnUse"><stop/><stop/><stop/></linearGradient><mask id="__lottie_element_3566"><path fill="url(#__lottie_element_3565)"/></mask><linearGradient id="__lottie_element_3565" spreadMethod="pad" gradientUnits="userSpaceOnUse"><stop stop-color="rgb(255,255,255)"/><stop stop-color="rgb(255,255,255)"/><stop stop-color="rgb(255,255,255)"/><stop stop-color="rgb(255,255,255)"/><stop stop-color="rgb(255,255,255)"/><stop stop-color="rgb(255,255,255)"/><stop stop-color="rgb(255,255,255)"/></linearGradient><linearGradient id="__lottie_element_3570" spreadMethod="pad" gradientUnits="userSpaceOnUse" x1="86.38200378417969" y1="202.3000030517578" x2="56.55400085449219" y2="57.21699905395508"><stop offset="0%" stop-color="rgb(117,27,147)"/><stop offset="50%" stop-color="rgb(117,27,147)"/><stop offset="100%" stop-color="rgb(117,27,147)"/></linearGradient><mask id="__lottie_element_3572"><path fill="url(#__lottie_element_3571)" d=" M104.13200378417969,-197.88699340820312 C104.41300201416016,-187.68600463867188 108.55899810791016,198.38999938964844 108.55899810791016,198.38999938964844 C108.55899810791016,198.38999938964844 139.25399780273438,201.66900634765625 161.0260009765625,186.6269989013672 C191.17599487304688,165.79800415039062 199.9810028076172,131.78900146484375 199.8419952392578,115.07599639892578 C199.76499938964844,105.7969970703125 199.39300537109375,-98.6050033569336 199.27999877929688,-119.58000183105469 C199.1230010986328,-148.7100067138672 185.32200622558594,-168.69500732421875 169.9239959716797,-180.36199951171875 C157.49600219726562,-189.7779998779297 142.35699462890625,-197.14999389648438 104.13200378417969,-197.88699340820312z"/></mask><linearGradient id="__lottie_element_3571" spreadMethod="pad" gradientUnits="userSpaceOnUse" x1="86.38200378417969" y1="202.3000030517578" x2="56.55400085449219" y2="57.21699905395508"><stop stop-color="rgb(255,255,255)" offset="0%" stop-opacity="0"/><stop stop-color="rgb(255,255,255)" offset="9%" stop-opacity="0.5"/><stop stop-color="rgb(255,255,255)" offset="17%" stop-opacity="1"/><stop stop-color="rgb(255,255,255)" offset="59%" stop-opacity="0.5"/><stop stop-color="rgb(255,255,255)" offset="100%" stop-opacity="0"/></linearGradient><linearGradient id="__lottie_element_3573" spreadMethod="pad" gradientUnits="userSpaceOnUse" x1="106.61499786376953" y1="-204.72999572753906" x2="10.336999893188477" y2="36.05400085449219"><stop offset="0%" stop-color="rgb(235,171,254)"/><stop offset="50%" stop-color="rgb(205,141,224)"/><stop offset="100%" stop-color="rgb(175,111,194)"/></linearGradient><mask id="__lottie_element_3575"><path fill="url(#__lottie_element_3574)" d=" M104.13200378417969,-197.88699340820312 C104.41300201416016,-187.68600463867188 108.55899810791016,198.38999938964844 108.55899810791016,198.38999938964844 C108.55899810791016,198.38999938964844 139.25399780273438,201.66900634765625 161.0260009765625,186.6269989013672 C191.17599487304688,165.79800415039062 199.9810028076172,131.78900146484375 199.8419952392578,115.07599639892578 C199.76499938964844,105.7969970703125 199.39300537109375,-98.6050033569336 199.27999877929688,-119.58000183105469 C199.1230010986328,-148.7100067138672 185.32200622558594,-168.69500732421875 169.9239959716797,-180.36199951171875 C157.49600219726562,-189.7779998779297 142.35699462890625,-197.14999389648438 104.13200378417969,-197.88699340820312z"/></mask><linearGradient id="__lottie_element_3574" spreadMethod="pad" gradientUnits="userSpaceOnUse" x1="106.61499786376953" y1="-204.72999572753906" x2="10.336999893188477" y2="36.05400085449219"><stop stop-color="rgb(255,255,255)" offset="0%" stop-opacity="0"/><stop stop-color="rgb(255,255,255)" offset="6%" stop-opacity="0.5"/><stop stop-color="rgb(255,255,255)" offset="12%" stop-opacity="1"/><stop stop-color="rgb(255,255,255)" offset="16%" stop-opacity="0.9100000262260437"/><stop stop-color="rgb(255,255,255)" offset="20%" stop-opacity="0.8199999928474426"/><stop stop-color="rgb(255,255,255)" offset="60%" stop-opacity="0.41499999165534973"/><stop stop-color="rgb(255,255,255)" offset="100%" stop-opacity="0.009999999776482582"/></linearGradient></defs><g clip-path="url(#__lottie_element_3504)"><g clip-path="url(#__lottie_element_3542)" style="display: block;" transform="matrix(0.9999969005584717,0,0,0.9999969005584717,0.0007955442415550351,0.0007955442415550351)" opacity="1"><g style="display: block;" transform="matrix(1.0419999361038208,0,0,1.0419999361038208,256,256)" opacity="1"><g opacity="1" transform="matrix(0.999999463558197,0.0010471973801031709,-0.0010471973801031709,0.999999463558197,-1,0)"><path fill="rgb(108,36,131)" fill-opacity="1" d=" M104.13200378417969,-197.88699340820312 C104.41300201416016,-187.68600463867188 108.55899810791016,198.38999938964844 108.55899810791016,198.38999938964844 C108.55899810791016,198.38999938964844 139.25399780273438,201.66900634765625 161.0260009765625,186.6269989013672 C191.17599487304688,165.79800415039062 199.9810028076172,131.78900146484375 199.8419952392578,115.07599639892578 C199.76499938964844,105.7969970703125 199.39300537109375,-98.6050033569336 199.27999877929688,-119.58000183105469 C199.1230010986328,-148.7100067138672 185.32200622558594,-168.69500732421875 169.9239959716797,-180.36199951171875 C157.49600219726562,-189.7779998779297 142.35699462890625,-197.14999389648438 104.13200378417969,-197.88699340820312z"/><path fill="url(#__lottie_element_3570)" mask="url(#__lottie_element_3572)" fill-opacity="1" d="M0 0 M104.13200378417969,-197.88699340820312 C104.41300201416016,-187.68600463867188 108.55899810791016,198.38999938964844 108.55899810791016,198.38999938964844 C108.55899810791016,198.38999938964844 139.25399780273438,201.66900634765625 161.0260009765625,186.6269989013672 C191.17599487304688,165.79800415039062 199.9810028076172,131.78900146484375 199.8419952392578,115.07599639892578 C199.76499938964844,105.7969970703125 199.39300537109375,-98.6050033569336 199.27999877929688,-119.58000183105469 C199.1230010986328,-148.7100067138672 185.32200622558594,-168.69500732421875 169.9239959716797,-180.36199951171875 C157.49600219726562,-189.7779998779297 142.35699462890625,-197.14999389648438 104.13200378417969,-197.88699340820312z"/><path fill="url(#__lottie_element_3573)" mask="url(#__lottie_element_3575)" fill-opacity="0.5" d="M0 0 M104.13200378417969,-197.88699340820312 C104.41300201416016,-187.68600463867188 108.55899810791016,198.38999938964844 108.55899810791016,198.38999938964844 C108.55899810791016,198.38999938964844 139.25399780273438,201.66900634765625 161.0260009765625,186.6269989013672 C191.17599487304688,165.79800415039062 199.9810028076172,131.78900146484375 199.8419952392578,115.07599639892578 C199.76499938964844,105.7969970703125 199.39300537109375,-98.6050033569336 199.27999877929688,-119.58000183105469 C199.1230010986328,-148.7100067138672 185.32200622558594,-168.69500732421875 169.9239959716797,-180.36199951171875 C157.49600219726562,-189.7779998779297 142.35699462890625,-197.14999389648438 104.13200378417969,-197.88699340820312z"/><path stroke-linecap="butt" stroke-linejoin="round" fill-opacity="0" stroke="rgb(92,22,115)" stroke-opacity="1" stroke-width="8" d=" M104.13200378417969,-197.88699340820312 C104.41300201416016,-187.68600463867188 108.55899810791016,198.38999938964844 108.55899810791016,198.38999938964844 C108.55899810791016,198.38999938964844 139.25399780273438,201.66900634765625 161.0260009765625,186.6269989013672 C191.17599487304688,165.79800415039062 199.9810028076172,131.78900146484375 199.8419952392578,115.07599639892578 C199.76499938964844,105.7969970703125 199.39300537109375,-98.6050033569336 199.27999877929688,-119.58000183105469 C199.1230010986328,-148.7100067138672 185.32200622558594,-168.69500732421875 169.9239959716797,-180.36199951171875 C157.49600219726562,-189.7779998779297 142.35699462890625,-197.14999389648438 104.13200378417969,-197.88699340820312z"/></g></g><g style="display: block;" transform="matrix(1.0419999361038208,0,0,1.0419999361038208,256.52099609375,257.56304931640625)" opacity="1"><g opacity="1" transform="matrix(1,0,0,1,-0.5,-1.5)"><path fill="rgb(133,49,160)" fill-opacity="1" d=" M200,-116 C200,-116 200,116 200,116 C200,162.39199829101562 162.39199829101562,200 116,200 C116,200 -116,200 -116,200 C-162.39199829101562,200 -200,162.39199829101562 -200,116 C-200,116 -200,-116 -200,-116 C-200,-162.39199829101562 -162.39199829101562,-200 -116,-200 C-116,-200 116,-200 116,-200 C162.39199829101562,-200 200,-162.39199829101562 200,-116z"/><path stroke-linecap="butt" stroke-linejoin="miter" fill-opacity="0" stroke-miterlimit="4" stroke="rgb(92,21,115)" stroke-opacity="1" stroke-width="9" d=" M200,-116 C200,-116 200,116 200,116 C200,162.39199829101562 162.39199829101562,200 116,200 C116,200 -116,200 -116,200 C-162.39199829101562,200 -200,162.39199829101562 -200,116 C-200,116 -200,-116 -200,-116 C-200,-162.39199829101562 -162.39199829101562,-200 -116,-200 C-116,-200 116,-200 116,-200 C162.39199829101562,-200 200,-162.39199829101562 200,-116z"/></g><g opacity="1" transform="matrix(0.9808099865913391,0,0,0.9808099865913391,4.633975505828857,-12.721793174743652)"><path fill="url(#__lottie_element_3548)" fill-opacity="1" d=" M185.0279998779297,-103.56600189208984 C185.0279998779297,-143.5540008544922 150.16600036621094,-178.41700744628906 110.1780014038086,-178.41700744628906 C110.1780014038086,-178.41700744628906 -120.25900268554688,-178.41700744628906 -120.25900268554688,-178.41700744628906 C-160.2469940185547,-178.41700744628906 -195.10899353027344,-143.5540008544922 -195.10899353027344,-103.56600189208984 C-195.10899353027344,-103.56600189208984 -195.10899353027344,126.87000274658203 -195.10899353027344,126.87000274658203 C-195.10899353027344,166.85800170898438 -160.2469940185547,201.72000122070312 -120.25900268554688,201.72000122070312 C-120.25900268554688,201.72000122070312 110.1780014038086,201.72000122070312 110.1780014038086,201.72000122070312 C150.16600036621094,201.72000122070312 185.0279998779297,166.85800170898438 185.0279998779297,126.87000274658203 C185.0279998779297,126.87000274658203 185.0279998779297,-103.56600189208984 185.0279998779297,-103.56600189208984z"/></g></g></g><g style="display: block;" transform="matrix(2.669999837875366,0,0,2.669999837875366,256.9002990722656,252.0404052734375)" opacity="0.2"><g opacity="1" transform="matrix(1,0,0,1,0,0)"><path fill="rgb(0,0,0)" fill-opacity="1" d=" M-43.95000076293945,-6.058000087738037 C-43.95000076293945,-6.058000087738037 -25.267000198364258,-6.058000087738037 -25.267000198364258,-6.058000087738037 C-26.474000930786133,-22.777000427246094 -32.62699890136719,-35.89799880981445 -40.95000076293945,-38.03799819946289 C-40.95000076293945,-38.03799819946289 -40.95000076293945,-47.555999755859375 -40.95000076293945,-47.555999755859375 C-40.3849983215332,-48.01900100708008 -39.10200119018555,-48.57699966430664 -37.79999923706055,-48.638999938964844 C-24.270000457763672,-49.279998779296875 -13.081000328063965,-30.15399932861328 -11.454000473022461,-6.058000087738037 C-11.454000473022461,-6.058000087738037 11.454000473022461,-6.058000087738037 11.454000473022461,-6.058000087738037 C13.081000328063965,-30.15399932861328 24.270000457763672,-49.279998779296875 37.79999923706055,-48.638999938964844 C39.10200119018555,-48.57699966430664 40.3849983215332,-48.01900100708008 40.95000076293945,-47.555999755859375 C40.95000076293945,-47.555999755859375 40.95000076293945,-38.03799819946289 40.95000076293945,-38.03799819946289 C32.62699890136719,-35.89799880981445 26.474000930786133,-22.777000427246094 25.267000198364258,-6.058000087738037 C25.267000198364258,-6.058000087738037 43.95000076293945,-6.058000087738037 43.95000076293945,-6.058000087738037 C43.95000076293945,-6.058000087738037 43.95000076293945,5.191999912261963 43.95000076293945,5.191999912261963 C43.95000076293945,5.191999912261963 25.208999633789062,5.191999912261963 25.208999633789062,5.191999912261963 C26.261999130249023,22.32200050354004 32.48400115966797,35.861000061035156 40.95000076293945,38.03799819946289 C40.95000076293945,38.03799819946289 40.95000076293945,47.555999755859375 40.95000076293945,47.555999755859375 C40.25400161743164,48.14899826049805 39.10200119018555,48.57699966430664 37.79999923706055,48.638999938964844 C24.108999252319336,49.28900146484375 12.8149995803833,29.69300079345703 11.399999618530273,5.191999912261963 C11.399999618530273,5.191999912261963 -11.399999618530273,5.191999912261963 -11.399999618530273,5.191999912261963 C-12.8149995803833,29.69300079345703 -24.108999252319336,49.28900146484375 -37.79999923706055,48.638999938964844 C-39.10200119018555,48.57699966430664 -40.25400161743164,48.14899826049805 -40.95000076293945,47.555999755859375 C-40.95000076293945,47.555999755859375 -40.95000076293945,38.03799819946289 -40.95000076293945,38.03799819946289 C-32.48400115966797,35.861000061035156 -26.261999130249023,22.32200050354004 -25.208999633789062,5.191999912261963 C-25.208999633789062,5.191999912261963 -43.95000076293945,5.191999912261963 -43.95000076293945,5.191999912261963 C-43.95000076293945,5.191999912261963 -43.95000076293945,-6.058000087738037 -43.95000076293945,-6.058000087738037z"/></g></g><g style="display: block;" transform="matrix(2.669999837875366,0,0,2.669999837875366,256.9002990722656,259.0405578613281)" opacity="1"><g opacity="1" transform="matrix(1,0,0,1,0,0)"><path fill="rgb(255,255,255)" fill-opacity="1" d=" M-43.95000076293945,-6.058000087738037 C-43.95000076293945,-6.058000087738037 -25.267000198364258,-6.058000087738037 -25.267000198364258,-6.058000087738037 C-26.474000930786133,-22.777000427246094 -32.62699890136719,-35.89799880981445 -40.95000076293945,-38.03799819946289 C-40.95000076293945,-38.03799819946289 -40.95000076293945,-47.555999755859375 -40.95000076293945,-47.555999755859375 C-40.3849983215332,-48.01900100708008 -39.10200119018555,-48.57699966430664 -37.79999923706055,-48.638999938964844 C-24.270000457763672,-49.279998779296875 -13.081000328063965,-30.15399932861328 -11.454000473022461,-6.058000087738037 C-11.454000473022461,-6.058000087738037 11.454000473022461,-6.058000087738037 11.454000473022461,-6.058000087738037 C13.081000328063965,-30.15399932861328 24.270000457763672,-49.279998779296875 37.79999923706055,-48.638999938964844 C39.10200119018555,-48.57699966430664 40.3849983215332,-48.01900100708008 40.95000076293945,-47.555999755859375 C40.95000076293945,-47.555999755859375 40.95000076293945,-38.03799819946289 40.95000076293945,-38.03799819946289 C32.62699890136719,-35.89799880981445 26.474000930786133,-22.777000427246094 25.267000198364258,-6.058000087738037 C25.267000198364258,-6.058000087738037 43.95000076293945,-6.058000087738037 43.95000076293945,-6.058000087738037 C43.95000076293945,-6.058000087738037 43.95000076293945,5.191999912261963 43.95000076293945,5.191999912261963 C43.95000076293945,5.191999912261963 25.208999633789062,5.191999912261963 25.208999633789062,5.191999912261963 C26.261999130249023,22.32200050354004 32.48400115966797,35.861000061035156 40.95000076293945,38.03799819946289 C40.95000076293945,38.03799819946289 40.95000076293945,47.555999755859375 40.95000076293945,47.555999755859375 C40.25400161743164,48.14899826049805 39.10200119018555,48.57699966430664 37.79999923706055,48.638999938964844 C24.108999252319336,49.28900146484375 12.8149995803833,29.69300079345703 11.399999618530273,5.191999912261963 C11.399999618530273,5.191999912261963 -11.399999618530273,5.191999912261963 -11.399999618530273,5.191999912261963 C-12.8149995803833,29.69300079345703 -24.108999252319336,49.28900146484375 -37.79999923706055,48.638999938964844 C-39.10200119018555,48.57699966430664 -40.25400161743164,48.14899826049805 -40.95000076293945,47.555999755859375 C-40.95000076293945,47.555999755859375 -40.95000076293945,38.03799819946289 -40.95000076293945,38.03799819946289 C-32.48400115966797,35.861000061035156 -26.261999130249023,22.32200050354004 -25.208999633789062,5.191999912261963 C-25.208999633789062,5.191999912261963 -43.95000076293945,5.191999912261963 -43.95000076293945,5.191999912261963 C-43.95000076293945,5.191999912261963 -43.95000076293945,-6.058000087738037 -43.95000076293945,-6.058000087738037z"/></g></g><g style="display: block;" transform="matrix(1.0419999361038208,0,0,1.0419999361038208,256.52099609375,257.56298828125)" opacity="1"><g opacity="0" transform="matrix(1,0,0,1,-0.5,-1.5)"><path fill="url(#__lottie_element_3509)" mask="url(#__lottie_element_3511)" fill-opacity="1" d="M0 0 M200,-116 C200,-116 200,116 200,116 C200,162.39199829101562 162.39199829101562,200 116,200 C116,200 -116,200 -116,200 C-162.39199829101562,200 -200,162.39199829101562 -200,116 C-200,116 -200,-116 -200,-116 C-200,-162.39199829101562 -162.39199829101562,-200 -116,-200 C-116,-200 116,-200 116,-200 C162.39199829101562,-200 200,-162.39199829101562 200,-116z"/></g></g></g></svg>