<svg xmlns="http://www.w3.org/2000/svg" xmlns:xlink="http://www.w3.org/1999/xlink" viewBox="0 0 512 512" width="512" height="512" style="width: 100%; height: 100%; transform: translate3d(0,0,0);" preserveAspectRatio="xMidYMid meet"><defs><clipPath id="__lottie_element_1940"><rect width="512" height="512" x="0" y="0"/></clipPath><linearGradient id="__lottie_element_1948" spreadMethod="pad" gradientUnits="userSpaceOnUse" x1="-1.0399999618530273" y1="-176.5" x2="0.9599999785423279" y2="188.88900756835938"><stop offset="0%" stop-color="rgb(253,207,24)"/><stop offset="47%" stop-color="rgb(245,171,12)"/><stop offset="93%" stop-color="rgb(237,135,0)"/></linearGradient><radialGradient id="__lottie_element_1949" spreadMethod="pad" gradientUnits="userSpaceOnUse" cx="-6.039999961853027" cy="-160.1230010986328" r="342.6724710471032" fx="-6.039999961853027" fy="-160.1230010986328"><stop offset="7%" stop-color="rgb(254,254,226)"/><stop offset="28%" stop-color="rgb(253,238,140)"/><stop offset="49%" stop-color="rgb(252,222,54)"/><stop offset="82%" stop-color="rgb(245,184,32)"/><stop offset="100%" stop-color="rgb(238,145,10)"/></radialGradient></defs><g clip-path="url(#__lottie_element_1940)"><g style="display: block;" transform="matrix(1.0329999923706055,0,0,1.0329999923706055,258,266.197998046875)" opacity="1"><g opacity="1" transform="matrix(0.9700000286102295,0,0,0.9700000286102295,-211.2456817626953,-218.981689453125)"><g opacity="1" transform="matrix(1,0,0,1,215.6439971923828,215.64500427246094)"><path fill="url(#__lottie_element_1948)" fill-opacity="1" d=" M194.9969940185547,0 C194.9969940185547,107.69400024414062 107.69300079345703,194.9969940185547 0,194.9969940185547 C-107.69400024414062,194.9969940185547 -194.9969940185547,107.69400024414062 -194.9969940185547,0 C-194.9969940185547,-107.69400024414062 -107.69400024414062,-194.9969940185547 0,-194.9969940185547 C107.69300079345703,-194.9969940185547 194.9969940185547,-107.69400024414062 194.9969940185547,0z"/></g><g opacity="1" transform="matrix(1,0,0,1,215.70199584960938,213.7169952392578)"><path fill="url(#__lottie_element_1949)" fill-opacity="1" d=" M173.80799865722656,2.6630001068115234 C172.3040008544922,100.77200317382812 93.26899719238281,179.11199951171875 -2.7230000495910645,177.63999938964844 C-98.71399688720703,176.16799926757812 -175.31199645996094,95.44499969482422 -173.80799865722656,-2.6640000343322754 C-172.3040008544922,-100.77300262451172 -93.26899719238281,-179.11199951171875 2.7230000495910645,-177.64100646972656 C98.71399688720703,-176.16900634765625 175.31199645996094,-95.44499969482422 173.80799865722656,2.6630001068115234z"/></g><g opacity="1" transform="matrix(1,0,0,1,215.6439971923828,215.64500427246094)"><path stroke-linecap="butt" stroke-linejoin="miter" fill-opacity="0" stroke-miterlimit="10" stroke="rgb(231,105,0)" stroke-opacity="1" stroke-width="8.259" d=" M194.9969940185547,0 C194.9969940185547,107.69400024414062 107.69300079345703,194.9969940185547 0,194.9969940185547 C-107.69400024414062,194.9969940185547 -194.9969940185547,107.69400024414062 -194.9969940185547,0 C-194.9969940185547,-107.69400024414062 -107.69400024414062,-194.9969940185547 0,-194.9969940185547 C107.69300079345703,-194.9969940185547 194.9969940185547,-107.69400024414062 194.9969940185547,0z"/></g></g></g><g style="display: block;" transform="matrix(1.0329999923706055,0,0,1.0329999923706055,258,266.197998046875)" opacity="1"><g opacity="1" transform="matrix(1,0,0,1,122,0)"><g opacity="1" transform="matrix(1,0,0,1,0,0)"><path fill="rgb(234,172,31)" fill-opacity="1" d=" M-39.67300033569336,-54.67599868774414 C-39.67300033569336,-36.23899841308594 -50.1879997253418,-21.292999267578125 -63.159000396728516,-21.292999267578125 C-76.12999725341797,-21.292999267578125 -86.64399719238281,-36.23899841308594 -86.64399719238281,-54.67599868774414 C-86.64399719238281,-73.11299896240234 -76.12999725341797,-88.05799865722656 -63.159000396728516,-88.05799865722656 C-50.1879997253418,-88.05799865722656 -39.67300033569336,-73.11299896240234 -39.67300033569336,-54.67599868774414z"/></g><g opacity="1" transform="matrix(1,0,0,1,0,0)"><g opacity="1" transform="matrix(1,0,0,1,0,0)"><path fill="rgb(255,222,156)" fill-opacity="1" d=" M-39.67300033569336,-42.67599868774414 C-39.67300033569336,-24.23900032043457 -50.1879997253418,-9.293000221252441 -63.159000396728516,-9.293000221252441 C-76.12999725341797,-9.293000221252441 -86.64399719238281,-24.23900032043457 -86.64399719238281,-42.67599868774414 C-86.64399719238281,-61.112998962402344 -76.12999725341797,-76.05799865722656 -63.159000396728516,-76.05799865722656 C-50.1879997253418,-76.05799865722656 -39.67300033569336,-61.112998962402344 -39.67300033569336,-42.67599868774414z"/></g><g opacity="1" transform="matrix(1,0,0,1,0,0)"><path fill="rgb(151,72,0)" fill-opacity="1" d=" M-41.14099884033203,-49.097999572753906 C-41.14099884033203,-30.660999298095703 -50.999000549316406,-15.71500015258789 -63.159000396728516,-15.71500015258789 C-75.31900024414062,-15.71500015258789 -85.1760025024414,-30.660999298095703 -85.1760025024414,-49.097999572753906 C-85.1760025024414,-67.53500366210938 -75.31900024414062,-82.4800033569336 -63.159000396728516,-82.4800033569336 C-50.999000549316406,-82.4800033569336 -41.14099884033203,-67.53500366210938 -41.14099884033203,-49.097999572753906z"/></g><g opacity="1" transform="matrix(1,0,0,1,0,0)"><path fill="rgb(99,41,0)" fill-opacity="1" d=" M-41.14099884033203,-49.09400177001953 C-41.14099884033203,-47.62799835205078 -41.20500183105469,-46.18299865722656 -41.33300018310547,-44.77000045776367 C-42.7140007019043,-61.178001403808594 -51.96200180053711,-73.83899688720703 -63.15700149536133,-73.83899688720703 C-74.35199737548828,-73.83899688720703 -83.5999984741211,-61.178001403808594 -84.98100280761719,-44.77000045776367 C-85.10900115966797,-46.18299865722656 -85.1729965209961,-47.62799835205078 -85.1729965209961,-49.09400177001953 C-85.1729965209961,-67.53500366210938 -75.31600189208984,-82.47699737548828 -63.15700149536133,-82.47699737548828 C-50.99800109863281,-82.47699737548828 -41.14099884033203,-67.53500366210938 -41.14099884033203,-49.09400177001953z"/></g></g></g></g><g style="display: block;" transform="matrix(1.0329999923706055,0,0,1.0329999923706055,258,266.197998046875)" opacity="1"><g opacity="1" transform="matrix(1,0,0,1,0,0)"><path fill="rgb(234,172,31)" fill-opacity="1" d=" M-39.67300033569336,-54.67599868774414 C-39.67300033569336,-36.23899841308594 -50.1879997253418,-21.292999267578125 -63.159000396728516,-21.292999267578125 C-76.12999725341797,-21.292999267578125 -86.64399719238281,-36.23899841308594 -86.64399719238281,-54.67599868774414 C-86.64399719238281,-73.11299896240234 -76.12999725341797,-88.05799865722656 -63.159000396728516,-88.05799865722656 C-50.1879997253418,-88.05799865722656 -39.67300033569336,-73.11299896240234 -39.67300033569336,-54.67599868774414z"/></g><g opacity="1" transform="matrix(1,0,0,1,0,0)"><path fill="rgb(255,222,156)" fill-opacity="1" d=" M-39.67300033569336,-42.67599868774414 C-39.67300033569336,-24.23900032043457 -50.1879997253418,-9.293000221252441 -63.159000396728516,-9.293000221252441 C-76.12999725341797,-9.293000221252441 -86.64399719238281,-24.23900032043457 -86.64399719238281,-42.67599868774414 C-86.64399719238281,-61.112998962402344 -76.12999725341797,-76.05799865722656 -63.159000396728516,-76.05799865722656 C-50.1879997253418,-76.05799865722656 -39.67300033569336,-61.112998962402344 -39.67300033569336,-42.67599868774414z"/></g><g opacity="1" transform="matrix(1,0,0,1,0,0)"><path fill="rgb(151,72,0)" fill-opacity="1" d=" M-41.14099884033203,-49.097999572753906 C-41.14099884033203,-30.660999298095703 -50.999000549316406,-15.71500015258789 -63.159000396728516,-15.71500015258789 C-75.31900024414062,-15.71500015258789 -85.1760025024414,-30.660999298095703 -85.1760025024414,-49.097999572753906 C-85.1760025024414,-67.53500366210938 -75.31900024414062,-82.4800033569336 -63.159000396728516,-82.4800033569336 C-50.999000549316406,-82.4800033569336 -41.14099884033203,-67.53500366210938 -41.14099884033203,-49.097999572753906z"/></g><g opacity="1" transform="matrix(1,0,0,1,0,0)"><path fill="rgb(99,41,0)" fill-opacity="1" d=" M-41.14099884033203,-49.09400177001953 C-41.14099884033203,-47.62799835205078 -41.20500183105469,-46.18299865722656 -41.33300018310547,-44.77000045776367 C-42.7140007019043,-61.178001403808594 -51.96200180053711,-73.83899688720703 -63.15700149536133,-73.83899688720703 C-74.35199737548828,-73.83899688720703 -83.5999984741211,-61.178001403808594 -84.98100280761719,-44.77000045776367 C-85.10900115966797,-46.18299865722656 -85.1729965209961,-47.62799835205078 -85.1729965209961,-49.09400177001953 C-85.1729965209961,-67.53500366210938 -75.31600189208984,-82.47699737548828 -63.15700149536133,-82.47699737548828 C-50.99800109863281,-82.47699737548828 -41.14099884033203,-67.53500366210938 -41.14099884033203,-49.09400177001953z"/></g></g><g style="display: block;" transform="matrix(1.0329999923706055,0,0,1.0329999923706055,258,266.197998046875)" opacity="1"><g opacity="0.7000000000000001" transform="matrix(1,0,0,1,0,0)"><path fill="rgb(234,172,31)" fill-opacity="1" d=" M87.15399932861328,59.99700164794922 C87.15399932861328,59.99700164794922 -90.9469985961914,59.99700164794922 -90.9469985961914,59.99700164794922 C-96.64199829101562,59.99700164794922 -101.302001953125,55.3380012512207 -101.302001953125,49.643001556396484 C-101.302001953125,49.643001556396484 -101.302001953125,45.48699951171875 -101.302001953125,45.48699951171875 C-101.302001953125,39.79199981689453 -96.64199829101562,35.132999420166016 -90.9469985961914,35.132999420166016 C-90.9469985961914,35.132999420166016 87.15399932861328,35.132999420166016 87.15399932861328,35.132999420166016 C92.8489990234375,35.132999420166016 97.50900268554688,39.79199981689453 97.50900268554688,45.48699951171875 C97.50900268554688,45.48699951171875 97.50900268554688,49.643001556396484 97.50900268554688,49.643001556396484 C97.50900268554688,55.3380012512207 92.8489990234375,59.99700164794922 87.15399932861328,59.99700164794922z"/></g><g opacity="1" transform="matrix(1,0,0,1,0,0)"><path fill="rgb(254,221,120)" fill-opacity="1" d=" M87.15399932861328,66.83499908447266 C87.15399932861328,66.83499908447266 -90.9469985961914,66.83499908447266 -90.9469985961914,66.83499908447266 C-96.64199829101562,66.83499908447266 -101.302001953125,62.17499923706055 -101.302001953125,56.47999954223633 C-101.302001953125,56.47999954223633 -101.302001953125,52.32500076293945 -101.302001953125,52.32500076293945 C-101.302001953125,46.630001068115234 -96.64199829101562,41.970001220703125 -90.9469985961914,41.970001220703125 C-90.9469985961914,41.970001220703125 87.15399932861328,41.970001220703125 87.15399932861328,41.970001220703125 C92.8489990234375,41.970001220703125 97.50900268554688,46.630001068115234 97.50900268554688,52.32500076293945 C97.50900268554688,52.32500076293945 97.50900268554688,56.47999954223633 97.50900268554688,56.47999954223633 C97.50900268554688,62.17499923706055 92.8489990234375,66.83499908447266 87.15399932861328,66.83499908447266z"/></g><g opacity="1" transform="matrix(1,0,0,1,0,0)"><path fill="rgb(151,72,0)" fill-opacity="1" d=" M85.78800201416016,60.99700164794922 C85.78800201416016,60.99700164794922 -89.58100128173828,60.99700164794922 -89.58100128173828,60.99700164794922 C-95.2760009765625,60.99700164794922 -99.93599700927734,56.3380012512207 -99.93599700927734,50.643001556396484 C-99.93599700927734,50.643001556396484 -99.93599700927734,50.643001556396484 -99.93599700927734,50.643001556396484 C-99.93599700927734,44.948001861572266 -95.2760009765625,40.28900146484375 -89.58100128173828,40.28900146484375 C-89.58100128173828,40.28900146484375 85.78800201416016,40.28900146484375 85.78800201416016,40.28900146484375 C91.48300170898438,40.28900146484375 96.14299774169922,44.948001861572266 96.14299774169922,50.643001556396484 C96.14299774169922,50.643001556396484 96.14299774169922,50.643001556396484 96.14299774169922,50.643001556396484 C96.14299774169922,56.3380012512207 91.48300170898438,60.99700164794922 85.78800201416016,60.99700164794922z"/></g><g opacity="1" transform="matrix(1,0,0,1,0,0)"><path fill="rgb(99,41,0)" fill-opacity="1" d=" M96.13999938964844,50.645999908447266 C96.13999938964844,51.805999755859375 95.94999694824219,52.92599868774414 95.58999633789062,53.965999603271484 C94.19999694824219,49.875999450683594 90.31999969482422,46.91600036621094 85.79000091552734,46.91600036621094 C85.79000091552734,46.91600036621094 -89.58100128173828,46.91600036621094 -89.58100128173828,46.91600036621094 C-92.43099975585938,46.91600036621094 -95.02100372314453,48.07600021362305 -96.89099884033203,49.95600128173828 C-98.01100158691406,51.07600021362305 -98.87100219726562,52.43600082397461 -99.38099670410156,53.965999603271484 C-99.74099731445312,52.92599868774414 -99.93099975585938,51.805999755859375 -99.93099975585938,50.645999908447266 C-99.93099975585938,47.79600143432617 -98.77100372314453,45.20600128173828 -96.89099884033203,43.32600021362305 C-95.02100372314453,41.45600128173828 -92.43099975585938,40.2859992980957 -89.58100128173828,40.2859992980957 C-89.58100128173828,40.2859992980957 85.79000091552734,40.2859992980957 85.79000091552734,40.2859992980957 C91.4800033569336,40.2859992980957 96.13999938964844,44.94599914550781 96.13999938964844,50.645999908447266z"/></g></g></g></svg>