<svg xmlns="http://www.w3.org/2000/svg" xmlns:xlink="http://www.w3.org/1999/xlink" viewBox="0 0 512 512" width="512" height="512" style="width: 100%; height: 100%; transform: translate3d(0,0,0);" preserveAspectRatio="xMidYMid meet"><defs><clipPath id="__lottie_element_25316"><rect width="512" height="512" x="0" y="0"/></clipPath><linearGradient id="__lottie_element_25328" spreadMethod="pad" gradientUnits="userSpaceOnUse" x1="-62.5629997253418" y1="60.551998138427734" x2="15.315999984741211" y2="-14.687000274658203"><stop offset="0%" stop-color="rgb(198,101,17)"/><stop offset="24%" stop-color="rgb(213,128,37)"/><stop offset="48%" stop-color="rgb(229,155,57)"/><stop offset="70%" stop-color="rgb(238,187,103)"/><stop offset="100%" stop-color="rgb(248,219,149)"/></linearGradient><linearGradient id="__lottie_element_25333" spreadMethod="pad" gradientUnits="userSpaceOnUse" x1="-29.874000549316406" y1="29.02199935913086" x2="24.170000076293945" y2="-23.384000778198242"><stop offset="0%" stop-color="rgb(129,50,34)"/><stop offset="27%" stop-color="rgb(150,57,37)"/><stop offset="48%" stop-color="rgb(172,65,40)"/><stop offset="70%" stop-color="rgb(201,94,70)"/><stop offset="100%" stop-color="rgb(231,122,100)"/></linearGradient><linearGradient id="__lottie_element_25339" spreadMethod="pad" gradientUnits="userSpaceOnUse" x1="96.27999877929688" y1="-110.04299926757812" x2="28.075000762939453" y2="-35.702999114990234"><stop offset="0%" stop-color="rgb(197,103,16)"/><stop offset="24%" stop-color="rgb(214,131,37)"/><stop offset="48%" stop-color="rgb(232,159,59)"/><stop offset="70%" stop-color="rgb(240,190,107)"/><stop offset="100%" stop-color="rgb(248,221,154)"/></linearGradient><linearGradient id="__lottie_element_25340" spreadMethod="pad" gradientUnits="userSpaceOnUse" x1="116.94100189208984" y1="146.947998046875" x2="-149.7689971923828" y2="-134.64599609375"><stop offset="0%" stop-color="rgb(228,156,58)"/><stop offset="24%" stop-color="rgb(238,190,109)"/><stop offset="48%" stop-color="rgb(248,224,161)"/><stop offset="70%" stop-color="rgb(237,189,109)"/><stop offset="100%" stop-color="rgb(227,154,58)"/></linearGradient></defs><g clip-path="url(#__lottie_element_25316)"><g style="display: block;" transform="matrix(0.949999988079071,0,0,0.949999988079071,18.800003051757812,4.8000030517578125)" opacity="1"><g opacity="0" transform="matrix(1,0,0,1,272.72601318359375,257.52301025390625)"><path fill="rgb(224,108,0)" fill-opacity="1" d=" M-81.89600372314453,-178.06300354003906 C-116.31700134277344,-195.56700134277344 -184.42599487304688,-172.60000610351562 -182.08700561523438,-109.8740005493164 C-178.64199829101562,-17.465999603271484 -33.18199920654297,166.6909942626953 85.98500061035156,182.6280059814453 C179.3070068359375,195.10800170898438 198.677001953125,99.9219970703125 169.8040008544922,63.972999572753906 C142.31399536132812,29.746000289916992 75.71900177001953,1.2230000495910645 22.518999099731445,-60.61899948120117 C-38.23400115966797,-131.24099731445312 -42.117000579833984,-157.8350067138672 -81.89600372314453,-178.06300354003906z"/></g><g opacity="1" transform="matrix(1,0,0,1,272.72601318359375,257.52301025390625)"><path fill="url(#__lottie_element_25339)" fill-opacity="1" d=" M-81.89600372314453,-178.06300354003906 C-116.31700134277344,-195.56700134277344 -184.42599487304688,-172.60000610351562 -182.08700561523438,-109.8740005493164 C-178.64199829101562,-17.465999603271484 -33.18199920654297,166.6909942626953 85.98500061035156,182.6280059814453 C179.3070068359375,195.10800170898438 198.677001953125,99.9219970703125 169.8040008544922,63.972999572753906 C142.31399536132812,29.746000289916992 75.71900177001953,1.2230000495910645 22.518999099731445,-60.61899948120117 C-38.23400115966797,-131.24099731445312 -42.117000579833984,-157.8350067138672 -81.89600372314453,-178.06300354003906z"/><path fill="url(#__lottie_element_25340)" fill-opacity="1" d=" M-81.89600372314453,-178.06300354003906 C-116.31700134277344,-195.56700134277344 -184.42599487304688,-172.60000610351562 -182.08700561523438,-109.8740005493164 C-178.64199829101562,-17.465999603271484 -33.18199920654297,166.6909942626953 85.98500061035156,182.6280059814453 C179.3070068359375,195.10800170898438 198.677001953125,99.9219970703125 169.8040008544922,63.972999572753906 C142.31399536132812,29.746000289916992 75.71900177001953,1.2230000495910645 22.518999099731445,-60.61899948120117 C-38.23400115966797,-131.24099731445312 -42.117000579833984,-157.8350067138672 -81.89600372314453,-178.06300354003906z"/></g><g opacity="0.5" transform="matrix(1,0,0,1,288.0400085449219,254.625)"><path fill="rgb(255,250,204)" fill-opacity="1" d=" M-164.59500122070312,-169.13499450683594 C-84.27899932861328,-182.58099365234375 -84.15499877929688,-138.64999389648438 -9.694999694824219,-52.25199890136719 C67.78500366210938,37.650001525878906 136.42100524902344,53.54600143432617 153.36000061035156,99.11499786376953 C172.63999938964844,150.97999572753906 127.91000366210938,176.91799926757812 127.91000366210938,176.91799926757812 C152.6719970703125,162.9600067138672 162.25999450683594,134.88900756835938 162.25999450683594,134.88900756835938 C181.375,51.882999420166016 79.98600006103516,51.882999420166016 -25.781999588012695,-84.8740005493164 C-66.65799713134766,-137.7259979248047 -76.33200073242188,-159.31500244140625 -106.19100189208984,-172.28900146484375 C-133.83999633789062,-184.30299377441406 -164.59500122070312,-169.13499450683594 -164.59500122070312,-169.13499450683594z"/></g><g opacity="0.8" transform="matrix(1,0,0,1,268.4169921875,261.8030090332031)"><path fill="rgb(200,115,49)" fill-opacity="1" d=" M175.28900146484375,136.63999938964844 C162.50599670410156,163.6320037841797 137.26699829101562,184.63400268554688 90.29000091552734,178.3459930419922 C-28.8700008392334,162.41299438476562 -174.33200073242188,-21.75 -177.781005859375,-114.15399932861328 C-178.8509979248047,-143.00799560546875 -165.0240020751953,-163.45599365234375 -146.41799926757812,-175.4149932861328 C-146.41799926757812,-175.4149932861328 -146.4080047607422,-175.40499877929688 -146.4080047607422,-175.40499877929688 C-146.4080047607422,-175.40499877929688 -93.18800354003906,-195.4340057373047 -58.106998443603516,-146.54600524902344 C-23.466999053955078,-98.27400207519531 26.611000061035156,-30.42799949645996 94.54900360107422,18.94099998474121 C143.30499267578125,54.369998931884766 189.28799438476562,79.11299896240234 175.28900146484375,136.63999938964844z"/></g><g opacity="1" transform="matrix(1,0,0,1,272.72601318359375,257.52301025390625)"><path stroke-linecap="round" stroke-linejoin="round" fill-opacity="0" stroke="rgb(191,105,0)" stroke-opacity="1" stroke-width="8" d=" M-81.89600372314453,-178.06300354003906 C-116.31700134277344,-195.56700134277344 -184.42599487304688,-172.60000610351562 -182.08700561523438,-109.8740005493164 C-178.64199829101562,-17.465999603271484 -33.18199920654297,166.6909942626953 85.98500061035156,182.6280059814453 C179.3070068359375,195.10800170898438 198.677001953125,99.9219970703125 169.8040008544922,63.972999572753906 C142.31399536132812,29.746000289916992 75.71900177001953,1.2230000495910645 22.518999099731445,-60.61899948120117 C-38.23400115966797,-131.24099731445312 -42.117000579833984,-157.8350067138672 -81.89600372314453,-178.06300354003906z"/></g></g><g style="display: block;" transform="matrix(0.949999988079071,0,0,0.949999988079071,18.800003051757812,4.8000030517578125)" opacity="1"><g opacity="1" transform="matrix(1,0,0,1,267.8739929199219,250.32000732421875)"><path fill="url(#__lottie_element_25333)" fill-opacity="1" d=" M-172.00100708007812,-192.0800018310547 C-195.02099609375,-178.50599670410156 -208.5749969482422,-150.18600463867188 -178.6510009765625,-100.97799682617188 C-148.7270050048828,-51.77000045776367 -11.87399959564209,119.40299987792969 118.44100189208984,189.61900329589844 C154.85299682617188,209.23800659179688 186.59800720214844,194.81399536132812 194.4199981689453,162.552001953125 C201.05499267578125,135.18299865722656 184.50799560546875,119.01100158691406 154.81199645996094,99.61900329589844 C129.3730010986328,83.00700378417969 43.470001220703125,15.642000198364258 -4.059999942779541,-39.808998107910156 C-51.59000015258789,-95.26000213623047 -96.96700286865234,-160.08799743652344 -109.29299926757812,-176.06199645996094 C-129.11399841308594,-201.75 -153.6790008544922,-202.88400268554688 -172.00100708007812,-192.0800018310547z"/></g><g opacity="0.5" transform="matrix(1,0,0,1,267.7760009765625,250.3209991455078)"><path fill="rgb(124,27,8)" fill-opacity="1" d=" M194.51400756835938,162.5500030517578 C186.69400024414062,194.80999755859375 154.95399475097656,209.24000549316406 118.53399658203125,189.6199951171875 C-11.776000022888184,119.4000015258789 -148.62600708007812,-51.77000045776367 -178.55599975585938,-100.9800033569336 C-208.4759979248047,-150.19000244140625 -194.92599487304688,-178.50999450683594 -171.906005859375,-192.0800018310547 C-161.6959991455078,-198.10000610351562 -149.54600524902344,-200.4199981689453 -137.3560028076172,-196.8300018310547 C-173.18499755859375,-201.7270050048828 -172.343994140625,-160.81900024414062 -158.6840057373047,-139.1219940185547 C-106.72100067138672,-56.58399963378906 -54.49300003051758,3.484999895095825 -5.734000205993652,48.691001892089844 C35.93299865722656,87.3219985961914 75.06700134277344,115.0989990234375 109.33899688720703,136.77000427246094 C168.6510009765625,174.2740020751953 202.92100524902344,164.8159942626953 187.51100158691406,126.96299743652344 C194.4010009765625,136.7830047607422 197.8040008544922,148.99000549316406 194.51400756835938,162.5500030517578z"/></g><g opacity="0.3" transform="matrix(1,0,0,1,281.81298828125,231.9600067138672)"><path fill="rgb(255,232,210)" fill-opacity="1" d=" M138.29400634765625,160.03399658203125 C115.6510009765625,153.75799560546875 71.88500213623047,118.75900268554688 25.58300018310547,75.68499755859375 C4.573999881744385,56.14099884033203 -16.95800018310547,34.933998107910156 -37.27399826049805,13.994000434875488 C-55.452999114990234,-4.743000030517578 -72.66000366210938,-23.26799964904785 -87.6500015258789,-40.19599914550781 C-104.4260025024414,-59.14099884033203 -118.427001953125,-76.08799743652344 -127.90699768066406,-89.0989990234375 C-176.18800354003906,-155.3719940185547 -163.14500427246094,-170.03199768066406 -148.61300659179688,-160.30099487304688 C-135.55599975585938,-151.55799865722656 -131.53599548339844,-145.23199462890625 -125.53500366210938,-137.49099731445312 C-122.2699966430664,-133.28500366210938 -116.94300079345703,-125.7509994506836 -109.97599792480469,-115.94000244140625 C-100.66799926757812,-102.83100128173828 -88.43299865722656,-85.65599822998047 -74.28099822998047,-66.91500091552734 C-61.3390007019043,-49.777000427246094 -46.79399871826172,-31.329999923706055 -31.41699981689453,-13.484999656677246 C3.2320001125335693,26.726999282836914 59.20600128173828,78.35600280761719 95.98799896240234,101.91400146484375 C154.5749969482422,139.43800354003906 186.78700256347656,173.4739990234375 138.29400634765625,160.03399658203125z"/></g><g opacity="1" transform="matrix(1,0,0,1,267.8739929199219,250.32000732421875)"><path stroke-linecap="round" stroke-linejoin="round" fill-opacity="0" stroke="rgb(129,38,26)" stroke-opacity="1" stroke-width="8" d=" M-172.00100708007812,-192.0800018310547 C-195.02099609375,-178.50599670410156 -208.5749969482422,-150.18600463867188 -178.6510009765625,-100.97799682617188 C-148.7270050048828,-51.77000045776367 -11.87399959564209,119.40299987792969 118.44100189208984,189.61900329589844 C154.85299682617188,209.23800659179688 186.59800720214844,194.81399536132812 194.4199981689453,162.552001953125 C201.05499267578125,135.18299865722656 184.50799560546875,119.01100158691406 154.81199645996094,99.61900329589844 C129.3730010986328,83.00700378417969 43.470001220703125,15.642000198364258 -4.059999942779541,-39.808998107910156 C-51.59000015258789,-95.26000213623047 -96.96700286865234,-160.08799743652344 -109.29299926757812,-176.06199645996094 C-129.11399841308594,-201.75 -153.6790008544922,-202.88400268554688 -172.00100708007812,-192.0800018310547z"/></g><g opacity="1" transform="matrix(1,0,0,1,267.14599609375,253.54600524902344)"><path stroke-linecap="round" stroke-linejoin="round" fill-opacity="0" stroke="rgb(94,24,15)" stroke-opacity="1" stroke-width="8" d=" M-171.2729949951172,-195.3070068359375 C-194.29299926757812,-181.73300170898438 -207.8470001220703,-153.41299438476562 -177.92300415039062,-104.20500183105469 C-147.99899291992188,-54.99700164794922 -11.145999908447266,116.177001953125 119.16899871826172,186.39300537109375 C155.58099365234375,206.01199340820312 187.3260040283203,191.58700561523438 195.1479949951172,159.3249969482422"/></g><g opacity="0" transform="matrix(1,0,0,1,0,0)"><path fill="rgb(255,249,204)" fill-opacity="1" d=" M264.5899963378906,211.76600646972656 C264.5899963378906,211.76600646972656 264.8810119628906,217.72300720214844 264.8699951171875,212.42300415039062"/><path stroke-linecap="round" stroke-linejoin="miter" fill-opacity="0" stroke-miterlimit="4" stroke="rgb(175,50,34)" stroke-opacity="1" stroke-width="8" d=" M264.5899963378906,211.76600646972656 C264.5899963378906,211.76600646972656 264.8810119628906,217.72300720214844 264.8699951171875,212.42300415039062"/></g><g opacity="0" transform="matrix(1,0,0,1,0,0)"><path fill="rgb(255,249,204)" fill-opacity="1" d="M0 0"/><path stroke-linecap="round" stroke-linejoin="miter" fill-opacity="0" stroke-miterlimit="4" stroke="rgb(175,50,34)" stroke-opacity="1" stroke-width="8" d="M0 0"/></g></g><g style="display: block;" transform="matrix(0.949999988079071,0,0,0.949999988079071,18.800003051757812,4.8000030517578125)" opacity="1"><g opacity="0.5" transform="matrix(1,0,0,1,281.4259948730469,231.37600708007812)"><path fill="rgb(96,7,0)" fill-opacity="1" d=" M-131.6909942626953,-160.86300659179688 C-137.7209930419922,-166.0449981689453 -151.24000549316406,-162.281005859375 -149.91000366210938,-124.3949966430664 C-148.5800018310547,-86.50900268554688 -106.677001953125,-72.30599975585938 -90.3239974975586,-63.07400131225586 C-73.97100067138672,-53.84199905395508 -64.4749984741211,-39.86199951171875 -64.21099853515625,-12.166999816894531 C-63.946998596191406,15.527999877929688 -54.97999954223633,44.01499938964844 -18.579999923706055,44.01499938964844 C17.81999969482422,44.01499938964844 22.304000854492188,67.22699737548828 25.204999923706055,88.06400299072266 C28.106000900268555,108.9010009765625 43.40599822998047,131.05799865722656 73.21099853515625,130.52999877929688 C103.01599884033203,130.0019989013672 119.89700317382812,122.61699676513672 129.39300537109375,136.86000061035156 C138.88900756835938,151.10299682617188 135.45899963378906,162.18099975585938 143.3719940185547,162.70899963378906 C151.28500366210938,163.23699951171875 155.54299926757812,134.58399963378906 135.8699951171875,120.29199981689453 C116.197998046875,106 80.33200073242188,119.45099639892578 60.54999923706055,111.01100158691406 C40.768001556396484,102.57099914550781 41.03200149536133,78.30500030517578 37.3390007019043,64.32499694824219 C33.645999908447266,50.345001220703125 23.886999130249023,30.378000259399414 -6.446000099182129,28.624000549316406 C-36.77899932861328,26.8700008392334 -45.220001220703125,13.682000160217285 -46.803001403808594,-6.892000198364258 C-48.38600158691406,-27.465999603271484 -47.066001892089844,-60.43600082397461 -80.03700256347656,-76.26200103759766 C-113.00800323486328,-92.08799743652344 -132.5260009765625,-102.11100006103516 -132.7899932861328,-123.73999786376953 C-133.0540008544922,-145.36900329589844 -125.49800109863281,-155.54100036621094 -131.6909942626953,-160.86300659179688z"/><path stroke-linecap="round" stroke-linejoin="round" fill-opacity="0" stroke="rgb(96,7,0)" stroke-opacity="1" stroke-width="8" d=" M-131.6909942626953,-160.86300659179688 C-137.7209930419922,-166.0449981689453 -151.24000549316406,-162.281005859375 -149.91000366210938,-124.3949966430664 C-148.5800018310547,-86.50900268554688 -106.677001953125,-72.30599975585938 -90.3239974975586,-63.07400131225586 C-73.97100067138672,-53.84199905395508 -64.4749984741211,-39.86199951171875 -64.21099853515625,-12.166999816894531 C-63.946998596191406,15.527999877929688 -54.97999954223633,44.01499938964844 -18.579999923706055,44.01499938964844 C17.81999969482422,44.01499938964844 22.304000854492188,67.22699737548828 25.204999923706055,88.06400299072266 C28.106000900268555,108.9010009765625 43.40599822998047,131.05799865722656 73.21099853515625,130.52999877929688 C103.01599884033203,130.0019989013672 119.89700317382812,122.61699676513672 129.39300537109375,136.86000061035156 C138.88900756835938,151.10299682617188 135.45899963378906,162.18099975585938 143.3719940185547,162.70899963378906 C151.28500366210938,163.23699951171875 155.54299926757812,134.58399963378906 135.8699951171875,120.29199981689453 C116.197998046875,106 80.33200073242188,119.45099639892578 60.54999923706055,111.01100158691406 C40.768001556396484,102.57099914550781 41.03200149536133,78.30500030517578 37.3390007019043,64.32499694824219 C33.645999908447266,50.345001220703125 23.886999130249023,30.378000259399414 -6.446000099182129,28.624000549316406 C-36.77899932861328,26.8700008392334 -45.220001220703125,13.682000160217285 -46.803001403808594,-6.892000198364258 C-48.38600158691406,-27.465999603271484 -47.066001892089844,-60.43600082397461 -80.03700256347656,-76.26200103759766 C-113.00800323486328,-92.08799743652344 -132.5260009765625,-102.11100006103516 -132.7899932861328,-123.73999786376953 C-133.0540008544922,-145.36900329589844 -125.49800109863281,-155.54100036621094 -131.6909942626953,-160.86300659179688z"/></g><g opacity="1" transform="matrix(1,0,0,1,286.4259948730469,224.37600708007812)"><path fill="rgb(255,232,39)" fill-opacity="1" d=" M-131.6909942626953,-160.86300659179688 C-137.7209930419922,-166.0449981689453 -151.24000549316406,-162.281005859375 -149.91000366210938,-124.3949966430664 C-148.5800018310547,-86.50900268554688 -106.677001953125,-72.30599975585938 -90.3239974975586,-63.07400131225586 C-73.97100067138672,-53.84199905395508 -64.4749984741211,-39.86199951171875 -64.21099853515625,-12.166999816894531 C-63.946998596191406,15.527999877929688 -54.97999954223633,44.01499938964844 -18.579999923706055,44.01499938964844 C17.81999969482422,44.01499938964844 22.304000854492188,67.22699737548828 25.204999923706055,88.06400299072266 C28.106000900268555,108.9010009765625 43.40599822998047,131.05799865722656 73.21099853515625,130.52999877929688 C103.01599884033203,130.0019989013672 119.89700317382812,122.61699676513672 129.39300537109375,136.86000061035156 C138.88900756835938,151.10299682617188 135.45899963378906,162.18099975585938 143.3719940185547,162.70899963378906 C151.28500366210938,163.23699951171875 155.54299926757812,134.58399963378906 135.8699951171875,120.29199981689453 C116.197998046875,106 80.33200073242188,119.45099639892578 60.54999923706055,111.01100158691406 C40.768001556396484,102.57099914550781 41.03200149536133,78.30500030517578 37.3390007019043,64.32499694824219 C33.645999908447266,50.345001220703125 23.886999130249023,30.378000259399414 -6.446000099182129,28.624000549316406 C-36.77899932861328,26.8700008392334 -45.220001220703125,13.682000160217285 -46.803001403808594,-6.892000198364258 C-48.38600158691406,-27.465999603271484 -47.066001892089844,-60.43600082397461 -80.03700256347656,-76.26200103759766 C-113.00800323486328,-92.08799743652344 -132.5260009765625,-102.11100006103516 -132.7899932861328,-123.73999786376953 C-133.0540008544922,-145.36900329589844 -125.49800109863281,-155.54100036621094 -131.6909942626953,-160.86300659179688z"/><path stroke-linecap="round" stroke-linejoin="round" fill-opacity="0" stroke="rgb(198,133,10)" stroke-opacity="1" stroke-width="8" d=" M-131.6909942626953,-160.86300659179688 C-137.7209930419922,-166.0449981689453 -151.24000549316406,-162.281005859375 -149.91000366210938,-124.3949966430664 C-148.5800018310547,-86.50900268554688 -106.677001953125,-72.30599975585938 -90.3239974975586,-63.07400131225586 C-73.97100067138672,-53.84199905395508 -64.4749984741211,-39.86199951171875 -64.21099853515625,-12.166999816894531 C-63.946998596191406,15.527999877929688 -54.97999954223633,44.01499938964844 -18.579999923706055,44.01499938964844 C17.81999969482422,44.01499938964844 22.304000854492188,67.22699737548828 25.204999923706055,88.06400299072266 C28.106000900268555,108.9010009765625 43.40599822998047,131.05799865722656 73.21099853515625,130.52999877929688 C103.01599884033203,130.0019989013672 119.89700317382812,122.61699676513672 129.39300537109375,136.86000061035156 C138.88900756835938,151.10299682617188 135.45899963378906,162.18099975585938 143.3719940185547,162.70899963378906 C151.28500366210938,163.23699951171875 155.54299926757812,134.58399963378906 135.8699951171875,120.29199981689453 C116.197998046875,106 80.33200073242188,119.45099639892578 60.54999923706055,111.01100158691406 C40.768001556396484,102.57099914550781 41.03200149536133,78.30500030517578 37.3390007019043,64.32499694824219 C33.645999908447266,50.345001220703125 23.886999130249023,30.378000259399414 -6.446000099182129,28.624000549316406 C-36.77899932861328,26.8700008392334 -45.220001220703125,13.682000160217285 -46.803001403808594,-6.892000198364258 C-48.38600158691406,-27.465999603271484 -47.066001892089844,-60.43600082397461 -80.03700256347656,-76.26200103759766 C-113.00800323486328,-92.08799743652344 -132.5260009765625,-102.11100006103516 -132.7899932861328,-123.73999786376953 C-133.0540008544922,-145.36900329589844 -125.49800109863281,-155.54100036621094 -131.6909942626953,-160.86300659179688z"/></g><g opacity="1" transform="matrix(1,0,0,1,295.02801513671875,223.76600646972656)"><path stroke-linecap="round" stroke-linejoin="round" fill-opacity="0" stroke="rgb(229,171,25)" stroke-opacity="1" stroke-width="8" d=" M135.5240020751953,162.9040069580078 C145.2220001220703,159.48500061035156 142.57200622558594,131.87100219726562 126.99099731445312,120.552001953125 C107.31800079345703,106.26000213623047 72.2030029296875,120.46199798583984 52.42100143432617,112.02200317382812 C32.638999938964844,103.58200073242188 32.15299987792969,79.31500244140625 28.459999084472656,65.33499908447266 C24.767000198364258,51.35499954223633 15.008000373840332,30.888999938964844 -15.324999809265137,29.135000228881836 C-45.65800094604492,27.381000518798828 -53.597999572753906,15.192999839782715 -55.180999755859375,-5.38100004196167 C-56.763999938964844,-25.954999923706055 -55.944000244140625,-58.17499923706055 -88.41600036621094,-75.0009994506836 C-134.2790069580078,-98.76499938964844 -138.78900146484375,-101.9800033569336 -141.16900634765625,-123.47899627685547 C-142.7790069580078,-138.01600646972656 -134.5279998779297,-155.76499938964844 -139.57000732421875,-160.1020050048828"/></g></g><g style="display: block;" transform="matrix(0.949999988079071,0,0,0.949999988079071,18.800003051757812,4.8000030517578125)" opacity="1"><g opacity="1" transform="matrix(1,0,0,1,208.56300354003906,296.78900146484375)"><path fill="url(#__lottie_element_25328)" fill-opacity="1" d=" M-140.25999450683594,-179.96800231933594 C-171.66799926757812,-165.0019989013672 -192.38999938964844,-127.27100372314453 -166.3249969482422,-60.409000396728516 C-140.25999450683594,6.453000068664551 -71.13099670410156,90.31400299072266 7.630000114440918,145.27699279785156 C86.39099884033203,200.24000549316406 145.88800048828125,194.0070037841797 168.55299377441406,157.7429962158203 C191.21800231933594,121.47899627685547 171.38699340820312,89.18099975585938 133.98899841308594,64.2490005493164 C96.59100341796875,39.31700134277344 33.45800018310547,-10.640000343322754 -19.000999450683594,-80.80799865722656 C-78.02799987792969,-159.76199340820312 -94.13200378417969,-201.947998046875 -140.25999450683594,-179.96800231933594z"/></g><g opacity="0.7000000000000001" transform="matrix(1,0,0,1,208.7259979248047,292.2749938964844)"><path fill="rgb(255,250,204)" fill-opacity="1" d=" M-140.42599487304688,-175.45399475097656 C-140.42599487304688,-175.45399475097656 -140.42599487304688,-175.20399475097656 -140.42599487304688,-175.20399475097656 C-160.11599731445312,-165.81399536132812 -175.6060028076172,-147.73399353027344 -177.99600219726562,-118.89399719238281 C-177.99600219726562,-118.89399719238281 -177.99600219726562,-118.84400177001953 -177.99600219726562,-118.84400177001953 C-177.99600219726562,-118.84400177001953 -164.88299560546875,-175.36900329589844 -118.01599884033203,-166.51400756835938 C-79.60900115966797,-159.2570037841797 -67.302001953125,-86.16100311279297 46.11399841308594,20.06599998474121 C124.35700225830078,93.3489990234375 198.3939971923828,101.88600158691406 148.70399475097656,181.24600219726562 C156.87399291992188,176.5260009765625 163.49400329589844,170.0959930419922 168.3939971923828,162.25599670410156 C191.0540008544922,125.99600219726562 171.2239990234375,93.69599914550781 133.82400512695312,68.76599884033203 C96.42400360107422,43.83599853515625 33.29399871826172,-6.124000072479248 -19.166000366210938,-76.29399871826172 C-78.19599914550781,-155.24400329589844 -94.2959976196289,-197.4340057373047 -140.42599487304688,-175.45399475097656z"/></g><g opacity="0.3" transform="matrix(1,0,0,1,208.76499938964844,308.5929870605469)"><path fill="rgb(181,73,0)" fill-opacity="1" d=" M177.95700073242188,118.87999725341797 C176.94200134277344,130.2790069580078 170.27499389648438,142.8679962158203 168.35499572753906,145.93800354003906 C145.68499755859375,182.20799255371094 86.18499755859375,188.43800354003906 7.425000190734863,133.47799682617188 C-71.33499908447266,78.50800323486328 -140.46499633789062,-5.3520002365112305 -166.52499389648438,-72.21199798583984 C-181.4250030517578,-110.41200256347656 -183.15899658203125,-150.19500732421875 -163.33099365234375,-173.95899963378906 C-163.4239959716797,-173.67300415039062 -164.86000061035156,-169.68499755859375 -165.15899658203125,-161.91299438476562 C-166.11399841308594,-137.072998046875 -155.44500732421875,-73.58599853515625 -52.13600158691406,31.180999755859375 C52.279998779296875,137.0709991455078 168.3509979248047,160.677001953125 177.95700073242188,118.87999725341797z"/></g><g opacity="1" transform="matrix(1,0,0,1,227.51199340820312,282.781005859375)"><path stroke-linecap="round" stroke-linejoin="round" fill-opacity="0" stroke="rgb(191,104,0)" stroke-opacity="1" stroke-width="8" d=" M149.60400390625,171.7519989013672 C172.2689971923828,135.48800659179688 152.43800354003906,103.19000244140625 115.04000091552734,78.25800323486328 C77.64199829101562,53.32600021362305 14.508999824523926,3.36899995803833 -37.95000076293945,-66.79900360107422 C-96.97699737548828,-145.7530059814453 -113.08100128173828,-187.93899536132812 -159.20899963378906,-165.95899963378906"/></g><g opacity="1" transform="matrix(1,0,0,1,227.51199340820312,282.781005859375)"><path stroke-linecap="round" stroke-linejoin="round" fill-opacity="0" stroke="rgb(249,199,120)" stroke-opacity="1" stroke-width="8" d="M0 0"/></g><g opacity="1" transform="matrix(1,0,0,1,203.75999450683594,299.6860046386719)"><path stroke-linecap="round" stroke-linejoin="round" fill-opacity="0" stroke="rgb(153,75,1)" stroke-opacity="1" stroke-width="8" d=" M-135.45700073242188,-182.86399841308594 C-166.86500549316406,-167.8979949951172 -187.58700561523438,-130.16700744628906 -161.52200317382812,-63.30500030517578 C-135.45700073242188,3.556999921798706 -66.3280029296875,87.41799926757812 12.432999610900879,142.38099670410156 C91.19400024414062,197.343994140625 150.69000244140625,191.11099243164062 173.35499572753906,154.8470001220703"/></g><g opacity="1" transform="matrix(1,0,0,1,203.75999450683594,312.9670104980469)"><path stroke-linecap="round" stroke-linejoin="round" fill-opacity="0" stroke="rgb(153,75,1)" stroke-opacity="1" stroke-width="8" d=" M-164.25999450683594,-169.58299255371094 C-175.81399536132812,-148.99600219726562 -177.86900329589844,-118.5199966430664 -161.52200317382812,-76.58599853515625 C-135.45700073242188,-9.723999977111816 -66.3280029296875,74.13700103759766 12.432999610900879,129.10000610351562 C91.19400024414062,184.06300354003906 150.69000244140625,177.8300018310547 173.35499572753906,141.5659942626953"/></g><g opacity="1" transform="matrix(1,0,0,1,0,0)"><path stroke-linecap="round" stroke-linejoin="round" fill-opacity="0" stroke="rgb(181,73,0)" stroke-opacity="1" stroke-width="8" d="M0 0"/></g><g opacity="1" transform="matrix(1,0,0,1,0,0)"><path stroke-linecap="round" stroke-linejoin="miter" fill-opacity="0" stroke-miterlimit="4" stroke="rgb(181,73,0)" stroke-opacity="1" stroke-width="8" d="M0 0"/></g></g></g></svg>