<svg xmlns="http://www.w3.org/2000/svg" xmlns:xlink="http://www.w3.org/1999/xlink" viewBox="0 0 512 512" width="512" height="512" style="width: 100%; height: 100%; transform: translate3d(0,0,0);" preserveAspectRatio="xMidYMid meet"><defs><clipPath id="__lottie_element_42300"><rect width="512" height="512" x="0" y="0"/></clipPath><linearGradient id="__lottie_element_42305" spreadMethod="pad" gradientUnits="userSpaceOnUse"><stop/><stop/><stop/></linearGradient><linearGradient id="__lottie_element_42306" spreadMethod="pad" gradientUnits="userSpaceOnUse"><stop/><stop/><stop/></linearGradient><linearGradient id="__lottie_element_42307" spreadMethod="pad" gradientUnits="userSpaceOnUse"><stop/><stop/><stop/></linearGradient><radialGradient id="__lottie_element_42308" spreadMethod="pad" gradientUnits="userSpaceOnUse"><stop/><stop/><stop/></radialGradient><linearGradient id="__lottie_element_42309" spreadMethod="pad" gradientUnits="userSpaceOnUse"><stop/><stop/><stop/></linearGradient><radialGradient id="__lottie_element_42310" spreadMethod="pad" gradientUnits="userSpaceOnUse"><stop/><stop/><stop/></radialGradient><linearGradient id="__lottie_element_42311" spreadMethod="pad" gradientUnits="userSpaceOnUse"><stop/><stop/><stop/></linearGradient><radialGradient id="__lottie_element_42312" spreadMethod="pad" gradientUnits="userSpaceOnUse"><stop/><stop/><stop/></radialGradient><linearGradient id="__lottie_element_42313" spreadMethod="pad" gradientUnits="userSpaceOnUse"><stop/><stop/><stop/></linearGradient><radialGradient id="__lottie_element_42314" spreadMethod="pad" gradientUnits="userSpaceOnUse"><stop/><stop/><stop/></radialGradient><radialGradient id="__lottie_element_42315" spreadMethod="pad" gradientUnits="userSpaceOnUse"><stop/><stop/><stop/></radialGradient><linearGradient id="__lottie_element_42319" spreadMethod="pad" gradientUnits="userSpaceOnUse" x1="-112" y1="-190" x2="-99.48899841308594" y2="-100.71800231933594"><stop offset="0%" stop-color="rgb(255,233,164)"/><stop offset="28%" stop-color="rgb(248,208,82)"/><stop offset="100%" stop-color="rgb(241,182,0)"/></linearGradient><linearGradient id="__lottie_element_42320" spreadMethod="pad" gradientUnits="userSpaceOnUse" x1="-115" y1="-71" x2="-156.63299560546875" y2="-98.3949966430664"><stop offset="21%" stop-color="rgb(182,104,0)" stop-opacity="1"/><stop offset="47%" stop-color="rgb(182,104,0)" stop-opacity="0.6499999761581421"/><stop offset="86%" stop-color="rgb(182,104,0)" stop-opacity="0.30000001192092896"/></linearGradient><linearGradient id="__lottie_element_42321" spreadMethod="pad" gradientUnits="userSpaceOnUse" x1="-83" y1="-194" x2="-70.48899841308594" y2="-104.71800231933594"><stop offset="0%" stop-color="rgb(255,233,164)"/><stop offset="28%" stop-color="rgb(248,208,82)"/><stop offset="100%" stop-color="rgb(241,182,0)"/></linearGradient><linearGradient id="__lottie_element_42322" spreadMethod="pad" gradientUnits="userSpaceOnUse" x1="-100" y1="-192" x2="-87.48899841308594" y2="-102.71800231933594"><stop offset="0%" stop-color="rgb(255,233,164)"/><stop offset="28%" stop-color="rgb(248,208,82)"/><stop offset="100%" stop-color="rgb(241,182,0)"/></linearGradient><radialGradient id="__lottie_element_42335" spreadMethod="pad" gradientUnits="userSpaceOnUse" cx="1" cy="13" r="192.656005859375" fx="1" fy="13"><stop offset="3%" stop-color="rgb(255,236,143)"/><stop offset="23%" stop-color="rgb(255,228,71)"/><stop offset="44%" stop-color="rgb(255,220,0)"/><stop offset="69%" stop-color="rgb(247,197,0)"/><stop offset="100%" stop-color="rgb(239,173,0)"/></radialGradient><radialGradient id="__lottie_element_42336" spreadMethod="pad" gradientUnits="userSpaceOnUse" cx="1" cy="147" r="150.33999633789062" fx="1" fy="147"><stop offset="33%" stop-color="rgb(182,104,0)" stop-opacity="0"/><stop offset="55%" stop-color="rgb(182,104,0)" stop-opacity="0.5"/><stop offset="83%" stop-color="rgb(182,104,0)" stop-opacity="1"/><stop offset="93%" stop-color="rgb(182,104,0)" stop-opacity="0.6499999761581421"/><stop offset="100%" stop-color="rgb(182,104,0)" stop-opacity="0.30000001192092896"/></radialGradient><radialGradient id="__lottie_element_42337" spreadMethod="pad" gradientUnits="userSpaceOnUse" cx="1" cy="-8.119000434875488" r="403.47900390625" fx="1" fy="-8.119000434875488"><stop offset="41%" stop-color="rgb(182,104,0)" stop-opacity="0"/><stop offset="74%" stop-color="rgb(182,104,0)" stop-opacity="0.5"/><stop offset="88%" stop-color="rgb(182,104,0)" stop-opacity="1"/></radialGradient><radialGradient id="__lottie_element_42338" spreadMethod="pad" gradientUnits="userSpaceOnUse" cx="0.41100001335144043" cy="0.9890000224113464" r="68.6048995608309" fx="0.41100001335144043" fy="0.9890000224113464"><stop offset="0%" stop-color="rgb(255,255,255)" stop-opacity="1"/><stop offset="68%" stop-color="rgb(255,255,255)" stop-opacity="0.5"/><stop offset="100%" stop-color="rgb(255,255,255)" stop-opacity="0"/></radialGradient><radialGradient id="__lottie_element_42339" spreadMethod="pad" gradientUnits="userSpaceOnUse" cx="2.0360000133514404" cy="-2.1589999198913574" r="107.51519911869894" fx="2.0360000133514404" fy="-2.1589999198913574"><stop offset="0%" stop-color="rgb(255,255,255)" stop-opacity="1"/><stop offset="68%" stop-color="rgb(255,255,255)" stop-opacity="0.5"/><stop offset="100%" stop-color="rgb(255,255,255)" stop-opacity="0"/></radialGradient><linearGradient id="__lottie_element_42340" spreadMethod="pad" gradientUnits="userSpaceOnUse" x1="1" y1="-124" x2="1" y2="207.3179931640625"><stop offset="21%" stop-color="rgb(255,255,255)" stop-opacity="1"/><stop offset="60%" stop-color="rgb(255,255,255)" stop-opacity="0.6000000238418579"/><stop offset="100%" stop-color="rgb(255,255,255)" stop-opacity="0.20000000298023224"/></linearGradient><radialGradient id="__lottie_element_42343" spreadMethod="pad" gradientUnits="userSpaceOnUse" cx="0.35499998927116394" cy="0.9120000004768372" r="58.73999911546707" fx="0.35499998927116394" fy="0.9120000004768372"><stop offset="7%" stop-color="rgb(182,104,0)" stop-opacity="1"/><stop offset="61%" stop-color="rgb(182,104,0)" stop-opacity="0.5"/><stop offset="100%" stop-color="rgb(182,104,0)" stop-opacity="0"/></radialGradient><radialGradient id="__lottie_element_42344" spreadMethod="pad" gradientUnits="userSpaceOnUse" cx="0.35499998927116394" cy="0.9120000004768372" r="58.73999911546707" fx="0.35499998927116394" fy="0.9120000004768372"><stop offset="7%" stop-color="rgb(182,104,0)" stop-opacity="1"/><stop offset="61%" stop-color="rgb(182,104,0)" stop-opacity="0.5"/><stop offset="100%" stop-color="rgb(182,104,0)" stop-opacity="0"/></radialGradient><radialGradient id="__lottie_element_42345" spreadMethod="pad" gradientUnits="userSpaceOnUse" cx="0.27300000190734863" cy="0.42100000381469727" r="20.815236349349508" fx="0.27300000190734863" fy="0.42100000381469727"><stop offset="0%" stop-color="rgb(255,255,255)" stop-opacity="1"/><stop offset="61%" stop-color="rgb(255,255,255)" stop-opacity="0.5"/><stop offset="100%" stop-color="rgb(255,255,255)" stop-opacity="0"/></radialGradient><linearGradient id="__lottie_element_42346" spreadMethod="pad" gradientUnits="userSpaceOnUse" x1="78" y1="35" x2="78" y2="54.37900161743164"><stop offset="0%" stop-color="rgb(255,255,255)" stop-opacity="1"/><stop offset="32%" stop-color="rgb(255,255,255)" stop-opacity="0.5"/><stop offset="100%" stop-color="rgb(255,255,255)" stop-opacity="0"/></linearGradient><radialGradient id="__lottie_element_42347" spreadMethod="pad" gradientUnits="userSpaceOnUse" cx="0.25999999046325684" cy="0.42100000381469727" r="19.312057943878152" fx="0.25999999046325684" fy="0.42100000381469727"><stop offset="0%" stop-color="rgb(255,255,255)" stop-opacity="1"/><stop offset="61%" stop-color="rgb(255,255,255)" stop-opacity="0.5"/><stop offset="100%" stop-color="rgb(255,255,255)" stop-opacity="0"/></radialGradient><linearGradient id="__lottie_element_42348" spreadMethod="pad" gradientUnits="userSpaceOnUse" x1="-75" y1="35" x2="-75" y2="54.37900161743164"><stop offset="0%" stop-color="rgb(255,255,255)" stop-opacity="1"/><stop offset="32%" stop-color="rgb(255,255,255)" stop-opacity="0.5"/><stop offset="100%" stop-color="rgb(255,255,255)" stop-opacity="0"/></linearGradient><linearGradient id="__lottie_element_42351" spreadMethod="pad" gradientUnits="userSpaceOnUse" x1="2" y1="124" x2="2" y2="174.8280029296875"><stop offset="0%" stop-color="rgb(250,193,0)" stop-opacity="0"/><stop offset="64%" stop-color="rgb(216,148,0)" stop-opacity="0.5"/><stop offset="100%" stop-color="rgb(182,104,0)" stop-opacity="1"/></linearGradient><radialGradient id="__lottie_element_42352" spreadMethod="pad" gradientUnits="userSpaceOnUse" cx="55.76900100708008" cy="160.42100524902344" r="39.880973351161465" fx="55.76900100708008" fy="160.42100524902344"><stop offset="7%" stop-color="rgb(253,255,194)" stop-opacity="1"/><stop offset="61%" stop-color="rgb(254,255,224)" stop-opacity="0.5"/><stop offset="100%" stop-color="rgb(255,255,255)" stop-opacity="0"/></radialGradient><radialGradient id="__lottie_element_42353" spreadMethod="pad" gradientUnits="userSpaceOnUse" cx="55.76900100708008" cy="160.42100524902344" r="39.880973351161465" fx="55.76900100708008" fy="160.42100524902344"><stop offset="7%" stop-color="rgb(253,255,194)" stop-opacity="1"/><stop offset="61%" stop-color="rgb(254,255,224)" stop-opacity="0.5"/><stop offset="100%" stop-color="rgb(255,255,255)" stop-opacity="0"/></radialGradient><radialGradient id="__lottie_element_42354" spreadMethod="pad" gradientUnits="userSpaceOnUse" cx="1.4019999504089355" cy="149.2429962158203" r="18.416079324864626" fx="1.4019999504089355" fy="149.2429962158203"><stop offset="0%" stop-color="rgb(255,255,255)" stop-opacity="1"/><stop offset="68%" stop-color="rgb(255,255,255)" stop-opacity="0.5"/><stop offset="100%" stop-color="rgb(255,255,255)" stop-opacity="0"/></radialGradient><g id="__lottie_element_42357"><g style="display: block;" transform="matrix(0.8470607995986938,0,0,0.8470607995986938,256.0003662109375,254.68212890625)" opacity="1"><g opacity="1" transform="matrix(1,0,0,1,0,0)"><path fill="rgb(255,0,0)" fill-opacity="1" d=" M166.7969970703125,-32.176998138427734 C150.6540069580078,-82.80699920654297 130.7969970703125,-102.177001953125 111.1760025024414,-116.24099731445312 C83.89299774169922,-135.7969970703125 43.7599983215332,-149.0399932861328 1.7970000505447388,-149.0399932861328 C-40.16600036621094,-149.0399932861328 -80.29900360107422,-135.7969970703125 -107.58200073242188,-116.24099731445312 C-127.2030029296875,-102.177001953125 -147.05999755859375,-82.80699920654297 -163.2030029296875,-32.176998138427734 C-185.2030029296875,36.823001861572266 -199.4810028076172,66.23300170898438 -186.4810028076172,119.23300170898438 C-177.6959991455078,155.0489959716797 -154.61300659179688,193.28199768066406 -68.61299896240234,196.28199768066406 C-51.625999450683594,196.87399291992188 -31.202999114990234,222.73699951171875 1.7970000505447388,222.73699951171875 C34.797000885009766,222.73699951171875 55.21900177001953,196.2830047607422 72.20600128173828,195.6909942626953 C158.20599365234375,192.6909942626953 181.58399963378906,154.16400146484375 190.36900329589844,118.3479995727539 C203.36900329589844,65.3479995727539 188.7969970703125,36.823001861572266 166.7969970703125,-32.176998138427734z"/></g></g></g><mask id="__lottie_element_42357_1" mask-type="alpha"><g id="__lottie_element_42357"><g style="display: block;" transform="matrix(0.8470607995986938,0,0,0.8470607995986938,256.0003662109375,254.68212890625)" opacity="1"><g opacity="1" transform="matrix(1,0,0,1,0,0)"><path fill="rgb(255,0,0)" fill-opacity="1" d=" M166.7969970703125,-32.176998138427734 C150.6540069580078,-82.80699920654297 130.7969970703125,-102.177001953125 111.1760025024414,-116.24099731445312 C83.89299774169922,-135.7969970703125 43.7599983215332,-149.0399932861328 1.7970000505447388,-149.0399932861328 C-40.16600036621094,-149.0399932861328 -80.29900360107422,-135.7969970703125 -107.58200073242188,-116.24099731445312 C-127.2030029296875,-102.177001953125 -147.05999755859375,-82.80699920654297 -163.2030029296875,-32.176998138427734 C-185.2030029296875,36.823001861572266 -199.4810028076172,66.23300170898438 -186.4810028076172,119.23300170898438 C-177.6959991455078,155.0489959716797 -154.61300659179688,193.28199768066406 -68.61299896240234,196.28199768066406 C-51.625999450683594,196.87399291992188 -31.202999114990234,222.73699951171875 1.7970000505447388,222.73699951171875 C34.797000885009766,222.73699951171875 55.21900177001953,196.2830047607422 72.20600128173828,195.6909942626953 C158.20599365234375,192.6909942626953 181.58399963378906,154.16400146484375 190.36900329589844,118.3479995727539 C203.36900329589844,65.3479995727539 188.7969970703125,36.823001861572266 166.7969970703125,-32.176998138427734z"/></g></g></g></mask><radialGradient id="__lottie_element_42366" spreadMethod="pad" gradientUnits="userSpaceOnUse" cx="2.3340001106262207" cy="185.36099243164062" r="27.56973931034999" fx="2.3340001106262207" fy="185.36099243164062"><stop offset="7%" stop-color="rgb(253,255,149)" stop-opacity="0.800000011920929"/><stop offset="55%" stop-color="rgb(216,173,74)" stop-opacity="0.75"/><stop offset="100%" stop-color="rgb(179,91,0)" stop-opacity="0.699999988079071"/></radialGradient><linearGradient id="__lottie_element_42367" spreadMethod="pad" gradientUnits="userSpaceOnUse" x1="-36.112998962402344" y1="13" x2="-36.112998962402344" y2="0.5099999904632568"><stop offset="21%" stop-color="rgb(255,255,255)"/><stop offset="64%" stop-color="rgb(226,221,214)"/><stop offset="100%" stop-color="rgb(198,186,174)"/></linearGradient><linearGradient id="__lottie_element_42368" spreadMethod="pad" gradientUnits="userSpaceOnUse" x1="-36.112998962402344" y1="34" x2="-36.112998962402344" y2="70.75"><stop offset="0%" stop-color="rgb(230,76,109)"/><stop offset="28%" stop-color="rgb(243,126,151)"/><stop offset="58%" stop-color="rgb(255,176,193)"/><stop offset="82%" stop-color="rgb(255,143,165)"/><stop offset="100%" stop-color="rgb(255,110,138)"/></linearGradient><linearGradient id="__lottie_element_42372" spreadMethod="pad" gradientUnits="userSpaceOnUse" x1="43.21099853515625" y1="-176" x2="151.17100524902344" y2="-141.10499572753906"><stop offset="0%" stop-color="rgb(248,210,77)"/><stop offset="37%" stop-color="rgb(245,196,39)"/><stop offset="100%" stop-color="rgb(241,182,0)"/></linearGradient><radialGradient id="__lottie_element_42373" spreadMethod="pad" gradientUnits="userSpaceOnUse" cx="160.70399475097656" cy="-190.5" r="114.4331741713598" fx="160.70399475097656" fy="-190.5"><stop offset="0%" stop-color="rgb(247,194,13)"/><stop offset="52%" stop-color="rgb(213,150,6)"/><stop offset="100%" stop-color="rgb(179,106,0)"/></radialGradient><linearGradient id="__lottie_element_42380" spreadMethod="pad" gradientUnits="userSpaceOnUse" x1="43.21099853515625" y1="-176" x2="151.17100524902344" y2="-141.10499572753906"><stop offset="0%" stop-color="rgb(248,210,77)"/><stop offset="37%" stop-color="rgb(245,196,39)"/><stop offset="100%" stop-color="rgb(241,182,0)"/></linearGradient><radialGradient id="__lottie_element_42381" spreadMethod="pad" gradientUnits="userSpaceOnUse" cx="160.70399475097656" cy="-190.5" r="114.4331741713598" fx="160.70399475097656" fy="-190.5"><stop offset="0%" stop-color="rgb(247,194,13)"/><stop offset="52%" stop-color="rgb(213,150,6)"/><stop offset="100%" stop-color="rgb(179,106,0)"/></radialGradient></defs><g clip-path="url(#__lottie_element_42300)"><g style="display: block;" transform="matrix(0.8470607995986938,0,0,0.8470607995986938,256.0003662109375,254.68212890625)" opacity="1"><g opacity="1" transform="matrix(1,0,0,1,0,0)"><path fill="url(#__lottie_element_42335)" fill-opacity="1" d=" M166.7969970703125,-32.176998138427734 C150.6540069580078,-82.80699920654297 130.7969970703125,-102.177001953125 111.1760025024414,-116.24099731445312 C83.89299774169922,-135.7969970703125 43.7599983215332,-149.0399932861328 1.7970000505447388,-149.0399932861328 C-40.16600036621094,-149.0399932861328 -80.29900360107422,-135.7969970703125 -107.58200073242188,-116.24099731445312 C-127.2030029296875,-102.177001953125 -147.05999755859375,-82.80699920654297 -163.2030029296875,-32.176998138427734 C-185.2030029296875,36.823001861572266 -204.2030029296875,66.822998046875 -191.2030029296875,119.822998046875 C-182.41799926757812,155.63900756835938 -155.2030029296875,196.822998046875 -69.2030029296875,199.822998046875 C-52.215999603271484,200.4149932861328 -31.202999114990234,226.86900329589844 1.7970000505447388,226.86900329589844 C34.797000885009766,226.86900329589844 55.810001373291016,200.4149932861328 72.7969970703125,199.822998046875 C158.7969970703125,196.822998046875 186.01199340820312,155.63900756835938 194.7969970703125,119.822998046875 C207.7969970703125,66.822998046875 188.7969970703125,36.823001861572266 166.7969970703125,-32.176998138427734z"/></g><g opacity="0.5" transform="matrix(1,0,0,1,0,0)"><path fill="url(#__lottie_element_42336)" fill-opacity="1" d=" M194.7969970703125,119.822998046875 C186.0070037841797,155.64300537109375 158.7969970703125,196.822998046875 72.7969970703125,199.822998046875 C55.80699920654297,200.41299438476562 34.797000885009766,226.8730010986328 1.7970000505447388,226.8730010986328 C-31.202999114990234,226.8730010986328 -52.2130012512207,200.41299438476562 -69.2030029296875,199.822998046875 C-155.2030029296875,196.822998046875 -182.41299438476562,155.64300537109375 -191.2030029296875,119.822998046875 C-195.93299865722656,100.5530014038086 -196.42300415039062,84.31300354003906 -194.08299255371094,68.14299774169922 C-193.4029998779297,72.86299896240234 -192.4530029296875,77.73300170898438 -191.2030029296875,82.822998046875 C-182.41299438476562,118.64299774169922 -171.2030029296875,157.822998046875 -85.2030029296875,160.822998046875 C-68.21299743652344,161.41299438476562 -57.91400146484375,182.8730010986328 1.7970000505447388,182.8730010986328 C61.70199966430664,182.8730010986328 71.80699920654297,161.41299438476562 88.7969970703125,160.822998046875 C174.7969970703125,157.822998046875 186.0070037841797,118.64299774169922 194.7969970703125,82.822998046875 C196.0469970703125,77.73300170898438 196.9969940185547,72.86299896240234 197.677001953125,68.14299774169922 C200.01699829101562,84.31300354003906 199.52699279785156,100.5530014038086 194.7969970703125,119.822998046875z"/></g><g opacity="0.3" transform="matrix(1,0,0,1,0,0)"><path fill="url(#__lottie_element_42337)" fill-opacity="1" d=" M166.7969970703125,-32.176998138427734 C150.6540069580078,-82.80699920654297 130.7969970703125,-102.177001953125 111.1760025024414,-116.24099731445312 C83.89299774169922,-135.7969970703125 43.7599983215332,-149.0399932861328 1.7970000505447388,-149.0399932861328 C-40.16600036621094,-149.0399932861328 -80.29900360107422,-135.7969970703125 -107.58200073242188,-116.24099731445312 C-127.2030029296875,-102.177001953125 -147.05999755859375,-82.80699920654297 -163.2030029296875,-32.176998138427734 C-185.2030029296875,36.823001861572266 -204.2030029296875,66.822998046875 -191.2030029296875,119.822998046875 C-182.41799926757812,155.63900756835938 -155.2030029296875,196.822998046875 -69.2030029296875,199.822998046875 C-52.215999603271484,200.4149932861328 -31.202999114990234,226.86900329589844 1.7970000505447388,226.86900329589844 C34.797000885009766,226.86900329589844 55.810001373291016,200.4149932861328 72.7969970703125,199.822998046875 C158.7969970703125,196.822998046875 186.01199340820312,155.63900756835938 194.7969970703125,119.822998046875 C207.7969970703125,66.822998046875 188.7969970703125,36.823001861572266 166.7969970703125,-32.176998138427734z"/></g><g opacity="0.4" transform="matrix(0.5397300124168396,0,0,1,1.13100004196167,57.95399856567383)"><path fill="url(#__lottie_element_42338)" fill-opacity="1" d=" M0,-68.34700012207031 C40.090999603271484,-68.34700012207031 72.59200286865234,-37.74700164794922 72.59200286865234,0 C72.59200286865234,37.74700164794922 40.090999603271484,68.34700012207031 0,68.34700012207031 C-40.090999603271484,68.34700012207031 -72.59200286865234,37.74700164794922 -72.59200286865234,0 C-72.59200286865234,-37.74700164794922 -40.090999603271484,-68.34700012207031 0,-68.34700012207031z"/></g><g opacity="0.4" transform="matrix(1,0,0,0.717960000038147,-0.2199999988079071,-32.792999267578125)"><path fill="url(#__lottie_element_42339)" fill-opacity="1" d=" M0,-114.19000244140625 C64.20099639892578,-114.19000244140625 116.24500274658203,-63.066001892089844 116.24500274658203,0 C116.24500274658203,63.066001892089844 64.20099639892578,114.19000244140625 0,114.19000244140625 C-64.20099639892578,114.19000244140625 -116.24500274658203,63.066001892089844 -116.24500274658203,0 C-116.24500274658203,-63.066001892089844 -64.20099639892578,-114.19000244140625 0,-114.19000244140625z"/></g><g opacity="0.3" transform="matrix(1,0,0,1,0,0)"><path fill="url(#__lottie_element_42340)" fill-opacity="1" d=" M166.7969970703125,-32.176998138427734 C150.65699768066406,-82.80699920654297 130.7969970703125,-102.177001953125 111.177001953125,-116.23699951171875 C83.89700317382812,-135.7969970703125 43.75699996948242,-149.03700256347656 1.7970000505447388,-149.03700256347656 C-40.16299819946289,-149.03700256347656 -80.3030014038086,-135.7969970703125 -107.58300018310547,-116.23699951171875 C-127.2030029296875,-102.177001953125 -147.06300354003906,-82.80699920654297 -163.2030029296875,-32.176998138427734 C-185.2030029296875,36.823001861572266 -204.2030029296875,66.822998046875 -191.2030029296875,119.822998046875 C-182.41299438476562,155.64300537109375 -155.2030029296875,196.822998046875 -69.2030029296875,199.822998046875 C-52.21799850463867,200.41099548339844 -31.202999114990234,226.8730010986328 1.7970000505447388,226.8730010986328 C34.797000885009766,226.8730010986328 55.8120002746582,200.41099548339844 72.7969970703125,199.822998046875 C158.7969970703125,196.822998046875 186.0070037841797,155.64300537109375 194.7969970703125,119.822998046875 C207.7969970703125,66.822998046875 188.7969970703125,36.823001861572266 166.7969970703125,-32.176998138427734z M177.18699645996094,117.0530014038086 C169.19700622558594,149.39300537109375 144.4669952392578,186.58299255371094 66.31700134277344,189.29299926757812 C50.512001037597656,189.8419952392578 31.41699981689453,213.71400451660156 1.7970000505447388,213.71400451660156 C-27.822999954223633,213.71400451660156 -46.917999267578125,189.8419952392578 -62.722999572753906,189.29299926757812 C-140.8730010986328,186.58299255371094 -165.60299682617188,149.39300537109375 -173.59300231933594,117.0530014038086 C-185.4029998779297,69.2030029296875 -168.13299560546875,40.112998962402344 -148.14300537109375,-22.19700050354004 C-133.47300720214844,-67.91699981689453 -115.43299865722656,-85.40699768066406 -97.60299682617188,-98.10700225830078 C-87.36100006103516,-105.39600372314453 -75.12799835205078,-111.71499633789062 -61.61000061035156,-116.62200164794922 C-42.395999908447266,-123.59600067138672 -20.584999084472656,-127.71700286865234 1.7970000505447388,-127.71700286865234 C24.937000274658203,-127.71700286865234 47.465999603271484,-123.31099700927734 67.14600372314453,-115.90299987792969 C79.89399719238281,-111.10399627685547 91.447998046875,-105.0459976196289 101.1969985961914,-98.10700225830078 C119.0270004272461,-85.40699768066406 137.06700134277344,-67.91699981689453 151.73699951171875,-22.19700050354004 C171.7270050048828,40.112998962402344 188.9969940185547,69.2030029296875 177.18699645996094,117.0530014038086z"/></g><g opacity="1" transform="matrix(1,0,0,1,0,0)"><path stroke-linecap="round" stroke-linejoin="round" fill-opacity="0" stroke="rgb(182,104,0)" stroke-opacity="1" stroke-width="8" d=" M166.7969970703125,-32.176998138427734 C150.6540069580078,-82.80699920654297 130.7969970703125,-102.177001953125 111.1760025024414,-116.24099731445312 C83.89299774169922,-135.7969970703125 43.7599983215332,-149.0399932861328 1.7970000505447388,-149.0399932861328 C-40.16600036621094,-149.0399932861328 -80.29900360107422,-135.7969970703125 -107.58200073242188,-116.24099731445312 C-127.2030029296875,-102.177001953125 -147.05999755859375,-82.80699920654297 -163.2030029296875,-32.176998138427734 C-185.2030029296875,36.823001861572266 -204.2030029296875,66.822998046875 -191.2030029296875,119.822998046875 C-182.41799926757812,155.63900756835938 -155.2030029296875,196.822998046875 -69.2030029296875,199.822998046875 C-52.215999603271484,200.4149932861328 -31.202999114990234,226.86900329589844 1.7970000505447388,226.86900329589844 C34.797000885009766,226.86900329589844 55.810001373291016,200.4149932861328 72.7969970703125,199.822998046875 C158.7969970703125,196.822998046875 186.01199340820312,155.63900756835938 194.7969970703125,119.822998046875 C207.7969970703125,66.822998046875 188.7969970703125,36.823001861572266 166.7969970703125,-32.176998138427734z"/></g><g opacity="1" transform="matrix(1,0,0,1,0,0)"><path stroke-linecap="round" stroke-linejoin="round" fill-opacity="0" stroke="rgb(155,85,0)" stroke-opacity="1" stroke-width="8" d=" M-194.73800659179688,99.96199798583984 C-194.06900024414062,106.27899932861328 -192.91299438476562,112.85199737548828 -191.2030029296875,119.822998046875 C-182.41799926757812,155.63900756835938 -155.2030029296875,196.822998046875 -69.2030029296875,199.822998046875 C-52.215999603271484,200.4149932861328 -31.202999114990234,226.86900329589844 1.7970000505447388,226.86900329589844 C34.797000885009766,226.86900329589844 55.810001373291016,200.4149932861328 72.7969970703125,199.822998046875 C158.7969970703125,196.822998046875 186.01199340820312,155.63900756835938 194.7969970703125,119.822998046875 C196.73800659179688,111.91000366210938 197.96499633789062,104.51000213623047 198.5760040283203,97.41699981689453"/></g></g><g style="display: block;" transform="matrix(0.8470607995986938,0,0,0.8470607995986938,256.0003662109375,254.68212890625)" opacity="1"><g opacity="1" transform="matrix(1,0,0,1,0,0)"><path fill="url(#__lottie_element_42380)" fill-opacity="1" d=" M161.71499633789062,-220.60400390625 C146.13299560546875,-217.52000427246094 66.70099639892578,-196.7779998779297 23.96299934387207,-147.31399536132812 C28.628000259399414,-146.60400390625 33.645999908447266,-146.8990020751953 48.78799819946289,-142.66400146484375 C54.09000015258789,-139.82699584960938 67.88200378417969,-138.0449981689453 80.05999755859375,-132.35000610351562 C107.9010009765625,-119.33100128173828 136.35499572753906,-107.94100189208984 160.41700744628906,-50.676998138427734 C165.84500122070312,-57.97600173950195 191.25,-154.8679962158203 165.8800048828125,-218.18499755859375 C165.1959991455078,-219.89199829101562 163.5189971923828,-220.96099853515625 161.71499633789062,-220.60400390625z"/></g><g opacity="1" transform="matrix(1,0,0,1,0,0)"><path stroke-linecap="round" stroke-linejoin="round" fill-opacity="0" stroke="rgb(182,104,0)" stroke-opacity="1" stroke-width="8" d=" M160.4340057373047,-49.16400146484375 C190.8990020751953,-138.04600524902344 170.68499755859375,-203.7169952392578 165.8800048828125,-218.18499755859375 C165.3000030517578,-219.92999267578125 163.5189971923828,-220.96099853515625 161.71499633789062,-220.60400390625 C146.13299560546875,-217.52000427246094 75.20800018310547,-200.9980010986328 24.30699920654297,-147.5449981689453"/></g><g opacity="1" transform="matrix(1,0,0,1,0,0)"><path fill="url(#__lottie_element_42381)" fill-opacity="1" d=" M148.3939971923828,-74.5459976196289 C165.8679962158203,-134.5030059814453 156.7729949951172,-177.20899963378906 152.35400390625,-190.8350067138672 C151.67100524902344,-192.94200134277344 149.5659942626953,-194.2310028076172 147.37899780273438,-193.88400268554688 C133.59800720214844,-191.69500732421875 69.35700225830078,-168.74000549316406 49.22700119018555,-142.25399780273438 C129.86099243164062,-122.40299987792969 148.3939971923828,-74.5459976196289 148.3939971923828,-74.5459976196289z"/></g><g opacity="0.4" transform="matrix(1,0,0,1,0,0)"><path fill="rgb(182,104,0)" fill-opacity="1" d=" M48.935001373291016,-142.5469970703125 C48.935001373291016,-142.5469970703125 79.88899993896484,-132.97999572753906 79.88899993896484,-132.97999572753906 C90.01699829101562,-130.0760040283203 101.822998046875,-123.87899780273438 110.19999694824219,-116.24099731445312 C74.4000015258789,-162.2550048828125 149.3800048828125,-190.88699340820312 149.3800048828125,-190.88699340820312 C135.60000610351562,-188.69700622558594 93.55899810791016,-183.79200744628906 48.935001373291016,-142.5469970703125z"/></g><g opacity="1" transform="matrix(1,0,0,1,0,0)"><path stroke-linecap="round" stroke-linejoin="round" fill-opacity="0" stroke="rgb(163,91,0)" stroke-opacity="1" stroke-width="8" d=" M148.3939971923828,-74.2509994506836 C166.16400146484375,-131.2570037841797 156.7729949951172,-177.20899963378906 152.35400390625,-190.8350067138672 C151.67100524902344,-192.94200134277344 149.5659942626953,-194.2310028076172 147.37899780273438,-193.88400268554688 C133.59800720214844,-191.69500732421875 82.0479965209961,-177.00399780273438 49.52199935913086,-142.843994140625 C49.52199935913086,-142.843994140625 30.69499969482422,-146.60400390625 24.364999771118164,-147.4219970703125"/></g><g opacity="1" transform="matrix(1,0,0,1,0,0)"><path stroke-linecap="round" stroke-linejoin="round" fill-opacity="0" stroke="rgb(182,104,0)" stroke-opacity="1" stroke-width="8" d=" M160.4600067138672,-48.81100082397461 C133.10699462890625,-126.23899841308594 65.52100372314453,-140.70199584960938 24.077999114990234,-147.80799865722656"/></g></g><g style="display: block;" transform="matrix(-0.8470607995986938,0,0,0.8470607995986938,256.5001220703125,254.68212890625)" opacity="1"><g opacity="1" transform="matrix(1,0,0,1,0,0)"><path fill="url(#__lottie_element_42372)" fill-opacity="1" d=" M161.71499633789062,-220.60400390625 C153.4709930419922,-218.9720001220703 127.35399627685547,-212.3979949951172 98.25499725341797,-199.24200439453125 C72.35399627685547,-187.53199768066406 44.09000015258789,-170.60800170898438 23.96299934387207,-147.31399536132812 C28.628000259399414,-146.01400756835938 34.310001373291016,-146.08799743652344 49.15700149536133,-142.73800659179688 C55.92900085449219,-140.9969940185547 76.14600372314453,-134.7989959716797 88.3239974975586,-127.62799835205078 C114.80899810791016,-112.03399658203125 140.78199768066406,-97.90599822998047 158.64599609375,-45.069000244140625 C167.9340057373047,-66.62100219726562 191.25,-154.8679962158203 165.8800048828125,-218.18499755859375 C165.1959991455078,-219.89199829101562 163.5189971923828,-220.96099853515625 161.71499633789062,-220.60400390625z"/></g><g opacity="1" transform="matrix(1,0,0,1,0,0)"><path stroke-linecap="round" stroke-linejoin="round" fill-opacity="0" stroke="rgb(182,104,0)" stroke-opacity="1" stroke-width="8" d=" M158.95899963378906,-45.327999114990234 C192.13600158691406,-138.63600158691406 170.68499755859375,-203.7169952392578 165.8800048828125,-218.18499755859375 C165.3000030517578,-219.92999267578125 163.5189971923828,-220.96099853515625 161.71499633789062,-220.60400390625 C152.4290008544922,-218.76600646972656 123.48699951171875,-212.15499877929688 90.84200286865234,-195.8000030517578 C68.70899963378906,-184.71099853515625 44.87300109863281,-169.14199829101562 24.30699920654297,-147.5449981689453"/></g><g opacity="1" transform="matrix(1,0,0,1,0,0)"><path fill="url(#__lottie_element_42373)" fill-opacity="1" d=" M147.21299743652344,-71.30000305175781 C167.343994140625,-130.3719940185547 156.7740020751953,-177.20899963378906 152.35400390625,-190.8350067138672 C151.67100524902344,-192.94200134277344 149.5659942626953,-194.2310028076172 147.37899780273438,-193.88400268554688 C133.59800720214844,-191.69500732421875 98.46600341796875,-185.45199584960938 49.117000579833984,-142.73300170898438 C108.7959976196289,-127.30899810791016 135.17300415039062,-95.25 147.21299743652344,-71.30000305175781z"/></g><g opacity="0.4" transform="matrix(1,0,0,1,0,0)"><path fill="rgb(182,104,0)" fill-opacity="1" d=" M49.194000244140625,-142.69400024414062 C64.30400085449219,-139.3730010986328 88.447998046875,-127.66699981689453 88.447998046875,-127.66699981689453 C97.69100189208984,-122.697998046875 102.70899963378906,-120.927001953125 110.19999694824219,-116.24099731445312 C74.4000015258789,-162.2550048828125 149.3800048828125,-190.88699340820312 149.3800048828125,-190.88699340820312 C135.60000610351562,-188.69700622558594 96.4739990234375,-186.0050048828125 49.194000244140625,-142.69400024414062z"/></g><g opacity="1" transform="matrix(1,0,0,1,0,0)"><path stroke-linecap="round" stroke-linejoin="round" fill-opacity="0" stroke="rgb(163,91,0)" stroke-opacity="1" stroke-width="8" d=" M147.50799560546875,-71.30000305175781 C167.9340057373047,-134.20799255371094 156.7740020751953,-177.20899963378906 152.35400390625,-190.8350067138672 C151.67100524902344,-192.94200134277344 149.5659942626953,-194.2310028076172 147.37899780273438,-193.88400268554688 C133.59800720214844,-191.69500732421875 91.49299621582031,-181.54100036621094 49.22700119018555,-142.65899658203125 C49.22700119018555,-142.65899658203125 29.77199935913086,-146.8990020751953 23.958999633789062,-147.31100463867188"/></g><g opacity="1" transform="matrix(1,0,0,1,0,0)"><path stroke-linecap="round" stroke-linejoin="round" fill-opacity="0" stroke="rgb(182,104,0)" stroke-opacity="1" stroke-width="8" d=" M158.68899536132812,-45.86000061035156 C138.125,-107.94100189208984 86.77100372314453,-139.52000427246094 24.37299919128418,-147.2169952392578"/></g></g><g style="display: block;" transform="matrix(0.846544086933136,0,0,0.846544086933136,287.9989318847656,412.68536376953125)" opacity="1"><g opacity="1" transform="matrix(1,0,0,1,-38.95800018310547,-186.5279998779297)"><path fill="rgb(239,175,0)" fill-opacity="1" d=" M-71.59600067138672,198.08900451660156 C-54.60900115966797,198.68099975585938 -36.020999908447266,225.60499572753906 3.49399995803833,226.6699981689453 C36.481998443603516,227.5590057373047 59.685001373291016,199.48199462890625 76.6719970703125,198.88999938964844"/><path stroke-linecap="round" stroke-linejoin="round" fill-opacity="0" stroke="rgb(155,85,0)" stroke-opacity="1" stroke-width="8" d=" M-71.59600067138672,198.08900451660156 C-54.60900115966797,198.68099975585938 -36.020999908447266,225.60499572753906 3.49399995803833,226.6699981689453 C36.481998443603516,227.5590057373047 59.685001373291016,199.48199462890625 76.6719970703125,198.88999938964844"/></g><g opacity="0.4" transform="matrix(1,0,0,1,-38.95800018310547,-186.5279998779297)"><path fill="url(#__lottie_element_42366)" fill-opacity="1" d=" M60.310001373291016,203.7100067138672 C50.03499984741211,209.71299743652344 31.89699935913086,226.01100158691406 1.7940000295639038,226.86900329589844 C-25.71500015258789,227.6529998779297 -48.75,208.16200256347656 -57.459999084472656,202.75 C-57.459999084472656,202.75 3.125999927520752,180.41400146484375 3.125999927520752,180.41400146484375 C3.125999927520752,180.41400146484375 60.310001373291016,203.7100067138672 60.310001373291016,203.7100067138672z"/></g><g opacity="0" transform="matrix(1,0,0,1,0,0)"><path stroke-linecap="round" stroke-linejoin="round" fill-opacity="0" stroke="rgb(255,251,189)" stroke-opacity="1" stroke-width="8" d=" M-90.2490005493164,6.888000011444092 C-64.06400299072266,7.99399995803833 -44.11000061035156,-1.2910000085830688 -35.15399932861328,-6.448999881744385 C-24.87700080871582,1.1649999618530273 -3.187000036239624,6.638000011444092 10.060999870300293,6.7129998207092285"/></g><g opacity="1" transform="matrix(1,0,0,1,0,0)"><path fill="rgb(137,52,75)" fill-opacity="1" d=" M19.891000747680664,10.468999862670898 C19.891000747680664,10.468999862670898 -9.37399959564209,15.13700008392334 -36.02199935913086,-6.4019999504089355 C-63.27000045776367,14.472999572753906 -88.87799835205078,10.821999549865723 -88.87799835205078,10.821999549865723 C-88.87799835205078,10.821999549865723 -65.11599731445312,14.39900016784668 -35.83100128173828,-6.235000133514404 C-35.83100128173828,-6.235000133514404 -17.60700035095215,12.090999603271484 19.891000747680664,10.468999862670898z"/></g><g opacity="1" transform="matrix(1,0,0,1,-36.78099822998047,44.5629997253418)"><path fill="rgb(109,36,59)" fill-opacity="1" d=" M0.8370000123977661,-50.54399871826172 C11.017000198364258,-43.15800094604492 26.49799919128418,-35.45199966430664 34.98400115966797,-35.78200149536133 C28.30500030517578,-35.34400177001953 10.890999794006348,-43.196998596191406 1.4229999780654907,-51.084999084472656 C-9.854999542236328,-45.04600143432617 -22.003999710083008,-35.51100158691406 -32.917999267578125,-35.066001892089844 C-24.858999252319336,-33.263999938964844 -10.468000411987305,-42.124000549316406 0.8370000123977661,-50.54399871826172z"/></g><g opacity="1" transform="matrix(1,0,0,1,0,0)"><path fill="url(#__lottie_element_42367)" fill-opacity="1" d=" M-35.98699951171875,-6.9720001220703125 C-35.98699951171875,-6.9720001220703125 -57.66899871826172,10.366000175476074 -78.07599639892578,10.960000038146973 C-78.07599639892578,10.960000038146973 -74.93099975585938,10.487000465393066 -71.88200378417969,10.286999702453613 C-68.83300018310547,10.086999893188477 -66.43699645996094,9.36299991607666 -66.43699645996094,9.36299991607666 C-66.43699645996094,9.36299991607666 -46.237998962402344,0.44699999690055847 -36.04199981689453,-6.234000205993652 C-26.80299949645996,1.4620000123977661 -3.7100000381469727,8.5 -3.7100000381469727,8.5 C-3.7100000381469727,8.5 0.367000013589859,9.616999626159668 3.4159998893737793,9.817000389099121 C6.465000152587891,10.017000198364258 9.40999984741211,10.425999641418457 9.40999984741211,10.425999641418457 C-17.422000885009766,9.970000267028809 -35.98699951171875,-6.9720001220703125 -35.98699951171875,-6.9720001220703125z"/></g><g opacity="1" transform="matrix(1,0,0,1,0,0)"><path stroke-linecap="round" stroke-linejoin="round" fill-opacity="0" stroke="rgb(86,37,24)" stroke-opacity="1" stroke-width="7.5" d=" M-88.72699737548828,10.831000328063965 C-88.72699737548828,10.831000328063965 -60.4640007019043,13.439000129699707 -36.02199935913086,-6.4019999504089355 C-16.905000686645508,9.010000228881836 7.015999794006348,11.151000022888184 19.917999267578125,10.503999710083008"/></g><g opacity="1" transform="matrix(1,0,0,1,0,0)"><path fill="url(#__lottie_element_42368)" fill-opacity="1" d=" M-34.10300064086914,-6.3420000076293945 C-34.178001403808594,-5.951000213623047 -37.20800018310547,-5.46999979019165 -37.28099822998047,-5.473999977111816 C-39.5880012512207,-5.616000175476074 -40.125,-6.34499979019165 -40.051998138427734,-6.7220001220703125 C-40.051998138427734,-6.7220001220703125 -39.93299865722656,-7.132999897003174 -39.395999908447266,-7.178999900817871 C-38.85100173950195,-7.22599983215332 -37.37099838256836,-7.232999801635742 -36.95800018310547,-6.96999979019165 C-36.69900131225586,-7.218999862670898 -35.257999420166016,-7.078000068664551 -34.777000427246094,-6.96999979019165 C-34.237998962402344,-6.848999977111816 -34.00400161743164,-6.776000022888184 -34.06399917602539,-6.445000171661377 C-34.104000091552734,-6.224999904632568 -34.10300064086914,-6.3420000076293945 -34.10300064086914,-6.3420000076293945z"/></g><g opacity="0" transform="matrix(1,0,0,1,0,0)"><path stroke-linecap="round" stroke-linejoin="round" fill-opacity="0" stroke="rgb(209,90,126)" stroke-opacity="1" stroke-width="8" d=" M-37.01599884033203,-7 C-37.01599884033203,-7 -37.069000244140625,-6.681000232696533 -37.069000244140625,-6.681000232696533 C-37.069000244140625,-6.681000232696533 -37.07899856567383,-6.618000030517578 -37.07899856567383,-6.618000030517578 C-37.07899856567383,-6.618000030517578 -37.17900085449219,-6.011000156402588 -37.17900085449219,-6.011000156402588"/></g><g opacity="0" transform="matrix(1,0,0,1,0,0)"><path stroke-linecap="round" stroke-linejoin="round" fill-opacity="0" stroke="rgb(202,58,97)" stroke-opacity="1" stroke-width="8" d=" M-39.242000579833984,-7.202000141143799 C-39.7130012512207,-7.145999908447266 -40.07899856567383,-6.706999778747559 -40.07899856567383,-6.706999778747559 C-40.11899948120117,-6.418000221252441 -39.650001525878906,-5.553999900817871 -37.21900177001953,-5.427999973297119 C-34.867000579833984,-5.306000232696533 -34.0880012512207,-6.105000019073486 -34.04800033569336,-6.394000053405762 C-34.04800033569336,-6.394000053405762 -34.06399917602539,-6.445000171661377 -34.06399917602539,-6.445000171661377 C-34.034000396728516,-6.6620001792907715 -34.33100128173828,-6.866000175476074 -34.777000427246094,-6.96999979019165"/></g><g opacity="0" transform="matrix(1,0,0,1,0,0)"><path fill="rgb(202,58,97)" fill-opacity="1" d=" M-34.349998474121094,-6.605000019073486 C-34.349998474121094,-6.605000019073486 -35.49700164794922,-6.341000080108643 -37.106998443603516,-6.439000129699707 C-38.709999084472656,-6.5370001792907715 -39.75299835205078,-6.896999835968018 -39.75299835205078,-6.896999835968018 C-40.266998291015625,-7.692999839782715 -36.930999755859375,-7.10099983215332 -36.91299819946289,-7 C-36.91299819946289,-7 -36.9109992980957,-7.015999794006348 -36.9109992980957,-7.015999794006348 C-36.902000427246094,-7.01200008392334 -36.917999267578125,-7.01200008392334 -36.9109992980957,-7.015999794006348 C-36.5620002746582,-7.184000015258789 -33.84000015258789,-7.302000045776367 -34.349998474121094,-6.605000019073486z"/></g><g opacity="0" transform="matrix(1,0,0,1,0,0)"><path stroke-linecap="round" stroke-linejoin="round" fill-opacity="0" stroke="rgb(181,51,92)" stroke-opacity="1" stroke-width="8" d=" M-39.75699996948242,-7.076000213623047 C-39.50699996948242,-7.181000232696533 -39.141998291015625,-7.23799991607666 -38.74800109863281,-7.2179999351501465 C-38.74800109863281,-7.2179999351501465 -37.73899841308594,-7.164999961853027 -37.73899841308594,-7.164999961853027 C-37.40599822998047,-7.1529998779296875 -37.1349983215332,-7.002999782562256 -37.1349983215332,-7.002999782562256 C-37.08300018310547,-6.9730000495910645 -36.979000091552734,-6.968999862670898 -36.92300033569336,-6.994999885559082 C-36.92300033569336,-6.994999885559082 -36.92300033569336,-6.994999885559082 -36.92300033569336,-6.994999885559082 C-36.766998291015625,-7.067999839782715 -36.53200149536133,-7.103000164031982 -36.290000915527344,-7.090000152587891 C-36.290000915527344,-7.090000152587891 -35.26599884033203,-7.0370001792907715 -35.26599884033203,-7.0370001792907715 C-34.87200164794922,-7.017000198364258 -34.52799987792969,-6.922999858856201 -34.310001373291016,-6.794000148773193"/></g></g><g style="display: block;" transform="matrix(0.8470607995986938,0,0,0.8470607995986938,256.0003662109375,254.68212890625)" opacity="1"><g opacity="0.3" transform="matrix(1,0,0,1,0,0)"><path fill="url(#__lottie_element_42351)" fill-opacity="1" d=" M87.43099975585938,181.74899291992188 C56.56999969482422,217.77699279785156 1.7970000505447388,180.33999633789062 1.7970000505447388,180.33999633789062 C-27.007999420166016,202.2030029296875 -67.552001953125,203.7449951171875 -82.11599731445312,183.00100708007812 C-104.87300109863281,150.58799743652344 -35.25,126.302001953125 1.7970000505447388,126.302001953125 C38.84400177001953,126.302001953125 110.08300018310547,155.3040008544922 87.43099975585938,181.74899291992188z"/></g><g opacity="0.3" transform="matrix(0.9795085191726685,-0.20140275359153748,0.13447058200836182,0.6539884805679321,-124.18500518798828,65.31340789794922)"><path fill="url(#__lottie_element_42352)" fill-opacity="1" d=" M88.6050033569336,177.2050018310547 C77.2959976196289,195.03500366210938 53.02199935913086,200.5070037841797 34.387001037597656,189.427001953125 C15.751999855041504,178.3470001220703 9.814000129699707,154.91000366210938 21.12299919128418,137.0800018310547 C32.43199920654297,119.25 56.70600128173828,113.77799987792969 75.34100341796875,124.85800170898438 C93.97599792480469,135.93800354003906 99.91400146484375,159.375 88.6050033569336,177.2050018310547z"/></g><g opacity="0.3" transform="matrix(0.9884648323059082,0.15145058929920197,-0.1011190190911293,0.6599683165550232,13.500572204589844,44.84385681152344)"><path fill="url(#__lottie_element_42353)" fill-opacity="1" d=" M88.6050033569336,177.2050018310547 C77.2959976196289,195.03500366210938 53.02199935913086,200.5070037841797 34.387001037597656,189.427001953125 C15.751999855041504,178.3470001220703 9.814000129699707,154.91000366210938 21.12299919128418,137.0800018310547 C32.43199920654297,119.25 56.70600128173828,113.77799987792969 75.34100341796875,124.85800170898438 C93.97599792480469,135.93800354003906 99.91400146484375,159.375 88.6050033569336,177.2050018310547z"/></g><g opacity="0.4" transform="matrix(1,0,0,1,0,0)"><path stroke-linecap="round" stroke-linejoin="round" fill-opacity="0" stroke="rgb(255,251,189)" stroke-opacity="1" stroke-width="8" d=" M-54.44300079345703,197.74200439453125 C-37.505001068115234,198.63900756835938 -14.406000137329102,199.63800048828125 1.7970000505447388,187.33999633789062 C1.7970000505447388,187.33999633789062 27.305999755859375,202.07400512695312 52.00299835205078,197.23699951171875"/></g><g opacity="0.4" transform="matrix(1,0,0,1,0,0)"><path stroke-linecap="round" stroke-linejoin="round" fill-opacity="0" stroke="rgb(255,251,189)" stroke-opacity="1" stroke-width="8" d=" M1.7970000505447388,141.2689971923828 C-20.479999542236328,141.2689971923828 -26.6560001373291,151.06300354003906 -24.503000259399414,159.6020050048828 C-22.350000381469727,168.14100646972656 -14.241000175476074,170.56399536132812 -7.880000114440918,180.33299255371094 C-3.509000062942505,187.04600524902344 1.093000054359436,177.97300720214844 1.093000054359436,177.97300720214844 C1.093000054359436,177.97300720214844 7.103000164031982,187.04600524902344 11.473999977111816,180.33299255371094 C17.834999084472656,170.56399536132812 25.94300079345703,168.14100646972656 28.09600067138672,159.6020050048828 C30.249000549316406,151.06300354003906 24.073999404907227,141.2689971923828 1.7970000505447388,141.2689971923828z"/></g><g opacity="0.3" transform="matrix(1,0,0,1,0,0)"><path stroke-linecap="round" stroke-linejoin="round" fill-opacity="0" stroke="rgb(182,104,0)" stroke-opacity="1" stroke-width="8" d=" M1.7970000505447388,130.2689971923828 C-20.479999542236328,130.2689971923828 -26.6560001373291,140.88900756835938 -24.503000259399414,150.1479949951172 C-22.350000381469727,159.40699768066406 -13.241000175476074,162.03399658203125 -6.880000114440918,172.6269989013672 C-2.509000062942505,179.906005859375 1.7970000505447388,180.33999633789062 1.7970000505447388,180.33999633789062 C1.7970000505447388,180.33999633789062 6.103000164031982,179.906005859375 10.473999977111816,172.6269989013672 C16.834999084472656,162.03399658203125 25.94300079345703,159.40699768066406 28.09600067138672,150.1479949951172 C30.249000549316406,140.88900756835938 24.073999404907227,130.2689971923828 1.7970000505447388,130.2689971923828z"/></g><g opacity="1" transform="matrix(1,0,0,1,0,0)"><path stroke-linecap="round" stroke-linejoin="round" fill-opacity="0" stroke="rgb(113,67,0)" stroke-opacity="1" stroke-width="8" d=" M-82.11599731445312,183.00100708007812 C-67.75599670410156,203.88699340820312 -27.007999420166016,202.2030029296875 1.7970000505447388,180.33999633789062 C1.7970000505447388,180.33999633789062 56.138999938964844,217.4029998779297 87.43099975585938,181.74899291992188"/></g><g opacity="1" transform="matrix(1,0,0,1,0,0)"><path fill="rgb(152,111,76)" fill-opacity="1" d=" M1.7970000505447388,137.2689971923828 C-20.479999542236328,137.2689971923828 -26.6560001373291,146.4040069580078 -24.503000259399414,154.36900329589844 C-22.350000381469727,162.33399963378906 -13.241000175476074,164.59300231933594 -6.880000114440918,173.7050018310547 C-2.509000062942505,179.9669952392578 1.7970000505447388,180.33999633789062 1.7970000505447388,180.33999633789062 C1.7970000505447388,180.33999633789062 6.103000164031982,179.9669952392578 10.473999977111816,173.7050018310547 C16.834999084472656,164.59300231933594 25.94300079345703,162.33399963378906 28.09600067138672,154.36900329589844 C30.249000549316406,146.4040069580078 24.073999404907227,137.2689971923828 1.7970000505447388,137.2689971923828z"/></g><g opacity="1" transform="matrix(1,0,0,0.4122999906539917,0,86.08601379394531)"><path fill="url(#__lottie_element_42354)" fill-opacity="0.5" d=" M1.7710000276565552,133.781005859375 C-14.756999969482422,133.9290008544922 -21.545000076293945,141.8000030517578 -19.035999298095703,152.7259979248047 C-16.740999221801758,162.7209930419922 -7.2270002365112305,168.2469940185547 1.7710000276565552,167.843994140625 C11.657999992370605,167.4010009765625 20.297000885009766,160 22.94700050354004,150.15499877929688 C25.677000045776367,140.01100158691406 13.725000381469727,133.6739959716797 1.7710000276565552,133.781005859375z"/></g><g opacity="1" transform="matrix(1,0,0,1,0,0)"><path stroke-linecap="round" stroke-linejoin="round" fill-opacity="0" stroke="rgb(77,47,0)" stroke-opacity="1" stroke-width="8" d=" M1.7970000505447388,137.2689971923828 C-20.479999542236328,137.2689971923828 -26.6560001373291,146.4040069580078 -24.503000259399414,154.36900329589844 C-22.350000381469727,162.33399963378906 -13.241000175476074,164.59300231933594 -6.880000114440918,173.7050018310547 C-2.509000062942505,179.9669952392578 1.7970000505447388,180.33999633789062 1.7970000505447388,180.33999633789062 C1.7970000505447388,180.33999633789062 6.103000164031982,179.9669952392578 10.473999977111816,173.7050018310547 C16.834999084472656,164.59300231933594 25.94300079345703,162.33399963378906 28.09600067138672,154.36900329589844 C30.249000549316406,146.4040069580078 24.073999404907227,137.2689971923828 1.7970000505447388,137.2689971923828z"/></g><g opacity="1" transform="matrix(1,0,0,1,0,0)"><path stroke-linecap="round" stroke-linejoin="round" fill-opacity="0" stroke="rgb(104,69,21)" stroke-opacity="1" stroke-width="8" d=" M28.09600067138672,154.36900329589844 C30.249000549316406,146.4040069580078 24.073999404907227,137.2689971923828 1.7970000505447388,137.2689971923828 C-20.479999542236328,137.2689971923828 -26.6560001373291,146.4040069580078 -24.503000259399414,154.36900329589844"/></g></g><g style="display: block;" transform="matrix(0.8470607995986938,0,0,0.8470607995986938,256.0003662109375,254.68212890625)" opacity="1"><g opacity="0.6" transform="matrix(0.7230799794197083,0,0,1,78.7229995727539,47.5880012512207)"><path fill="url(#__lottie_element_42343)" fill-opacity="1" d=" M0,-57.73400115966797 C31.40399932861328,-57.73400115966797 56.862998962402344,-31.885000228881836 56.862998962402344,0 C56.862998962402344,31.885000228881836 31.40399932861328,57.73400115966797 0,57.73400115966797 C-31.40399932861328,57.73400115966797 -56.862998962402344,31.885000228881836 -56.862998962402344,0 C-56.862998962402344,-31.885000228881836 -31.40399932861328,-57.73400115966797 0,-57.73400115966797z"/></g><g opacity="0.6" transform="matrix(0.7230799794197083,0,0,1,-75.2770004272461,47.5880012512207)"><path fill="url(#__lottie_element_42344)" fill-opacity="1" d=" M0,-57.73400115966797 C31.40399932861328,-57.73400115966797 56.862998962402344,-31.885000228881836 56.862998962402344,0 C56.862998962402344,31.885000228881836 31.40399932861328,57.73400115966797 0,57.73400115966797 C-31.40399932861328,57.73400115966797 -56.862998962402344,31.885000228881836 -56.862998962402344,0 C-56.862998962402344,-31.885000228881836 -31.40399932861328,-57.73400115966797 0,-57.73400115966797z"/></g><g opacity="0.1" transform="matrix(1,0,0,1,78.41000366210938,56.34299850463867)"><path fill="rgb(0,0,0)" fill-opacity="1" d=" M0,-41.0880012512207 C12.300000190734863,-41.0880012512207 22.27199935913086,-22.691999435424805 22.27199935913086,0 C22.27199935913086,22.691999435424805 12.300000190734863,41.0880012512207 0,41.0880012512207 C-12.300000190734863,41.0880012512207 -22.27199935913086,22.691999435424805 -22.27199935913086,0 C-22.27199935913086,-22.691999435424805 -12.300000190734863,-41.0880012512207 0,-41.0880012512207z"/></g><g opacity="0.5" transform="matrix(1,0,0,1,78.41000366210938,72.34300231933594)"><path fill="rgb(255,251,189)" fill-opacity="1" d=" M0,-41.0880012512207 C12.300000190734863,-41.0880012512207 22.27199935913086,-22.691999435424805 22.27199935913086,0 C22.27199935913086,22.691999435424805 12.300000190734863,41.0880012512207 0,41.0880012512207 C-12.300000190734863,41.0880012512207 -22.27199935913086,22.691999435424805 -22.27199935913086,0 C-22.27199935913086,-22.691999435424805 -12.300000190734863,-41.0880012512207 0,-41.0880012512207z"/></g><g opacity="1" transform="matrix(1,0,0,1,78.59400177001953,64.34300231933594)"><path fill="rgb(0,0,0)" fill-opacity="1" d=" M0,-41.0880012512207 C12.300000190734863,-41.0880012512207 22.27199935913086,-22.691999435424805 22.27199935913086,0 C22.27199935913086,22.691999435424805 12.300000190734863,41.0880012512207 0,41.0880012512207 C-12.300000190734863,41.0880012512207 -22.27199935913086,22.691999435424805 -22.27199935913086,0 C-22.27199935913086,-22.691999435424805 -12.300000190734863,-41.0880012512207 0,-41.0880012512207z"/></g><g opacity="0.3" transform="matrix(1,0,0,1,78.59400177001953,77.89099884033203)"><path fill="url(#__lottie_element_42345)" fill-opacity="1" d=" M0,-22.457000732421875 C9.329999923706055,-22.457000732421875 16.89299964904785,-12.402999877929688 16.89299964904785,0 C16.89299964904785,12.402999877929688 9.329999923706055,22.457000732421875 0,22.457000732421875 C-9.329999923706055,22.457000732421875 -16.89299964904785,12.402999877929688 -16.89299964904785,0 C-16.89299964904785,-12.402999877929688 -9.329999923706055,-22.457000732421875 0,-22.457000732421875z"/></g><g opacity="1" transform="matrix(1,0,0,1,0,0)"><path fill="url(#__lottie_element_42346)" fill-opacity="1" d=" M78.58699798583984,49.16699981689453 C74.01599884033203,49.22200012207031 70.8759994506836,51.00199890136719 68.88600158691406,51.17300033569336 C66.802001953125,51.35200119018555 65.98100280761719,49.8650016784668 66.10299682617188,47.176998138427734 C66.4229965209961,40.108001708984375 72.50599670410156,32.775001525878906 78.58699798583984,32.775001525878906 C84.43699645996094,32.775001525878906 91.0270004272461,39.07400131225586 90.71900177001953,47.13399887084961 C90.62200164794922,49.67599868774414 89.74099731445312,51.290000915527344 88.04100036621094,51.22100067138672 C86.04199981689453,51.13999938964844 82.91100311279297,49.1150016784668 78.58699798583984,49.16699981689453z"/></g><g opacity="0.1" transform="matrix(1,0,0,1,-74.99099731445312,56.34299850463867)"><path fill="rgb(0,0,0)" fill-opacity="1" d=" M0,-41.0880012512207 C12.300000190734863,-41.0880012512207 22.27199935913086,-22.691999435424805 22.27199935913086,0 C22.27199935913086,22.691999435424805 12.300000190734863,41.0880012512207 0,41.0880012512207 C-12.300000190734863,41.0880012512207 -22.27199935913086,22.691999435424805 -22.27199935913086,0 C-22.27199935913086,-22.691999435424805 -12.300000190734863,-41.0880012512207 0,-41.0880012512207z"/></g><g opacity="0.5" transform="matrix(1,0,0,1,-74.99099731445312,72.34300231933594)"><path fill="rgb(255,251,189)" fill-opacity="1" d=" M0,-41.0880012512207 C12.300000190734863,-41.0880012512207 22.27199935913086,-22.691999435424805 22.27199935913086,0 C22.27199935913086,22.691999435424805 12.300000190734863,41.0880012512207 0,41.0880012512207 C-12.300000190734863,41.0880012512207 -22.27199935913086,22.691999435424805 -22.27199935913086,0 C-22.27199935913086,-22.691999435424805 -12.300000190734863,-41.0880012512207 0,-41.0880012512207z"/></g><g opacity="1" transform="matrix(1,0,0,1,-74.80699920654297,64.34300231933594)"><path fill="rgb(0,0,0)" fill-opacity="1" d=" M0,-41.0880012512207 C12.300000190734863,-41.0880012512207 22.27199935913086,-22.691999435424805 22.27199935913086,0 C22.27199935913086,22.691999435424805 12.300000190734863,41.0880012512207 0,41.0880012512207 C-12.300000190734863,41.0880012512207 -22.27199935913086,22.691999435424805 -22.27199935913086,0 C-22.27199935913086,-22.691999435424805 -12.300000190734863,-41.0880012512207 0,-41.0880012512207z"/></g><g opacity="0.3" transform="matrix(1,0,0,1,-74.80699920654297,77.89099884033203)"><path fill="url(#__lottie_element_42347)" fill-opacity="1" d=" M0,-22.457000732421875 C9.329999923706055,-22.457000732421875 16.89299964904785,-12.402999877929688 16.89299964904785,0 C16.89299964904785,12.402999877929688 9.329999923706055,22.457000732421875 0,22.457000732421875 C-9.329999923706055,22.457000732421875 -16.89299964904785,12.402999877929688 -16.89299964904785,0 C-16.89299964904785,-12.402999877929688 -9.329999923706055,-22.457000732421875 0,-22.457000732421875z"/></g><g opacity="1" transform="matrix(1,0,0,1,0,0)"><path fill="url(#__lottie_element_42348)" fill-opacity="1" d=" M-74.81500244140625,49.16699981689453 C-79.38600158691406,49.22200012207031 -82.5260009765625,51.00199890136719 -84.51599884033203,51.17300033569336 C-86.5999984741211,51.35200119018555 -87.4209976196289,49.8650016784668 -87.29900360107422,47.176998138427734 C-86.97899627685547,40.108001708984375 -80.89600372314453,32.775001525878906 -74.81500244140625,32.775001525878906 C-68.96499633789062,32.775001525878906 -62.374000549316406,39.07400131225586 -62.68199920654297,47.13399887084961 C-62.77899932861328,49.67599868774414 -63.65999984741211,51.290000915527344 -65.36000061035156,51.22100067138672 C-67.35900115966797,51.13999938964844 -70.49099731445312,49.1150016784668 -74.81500244140625,49.16699981689453z"/></g></g><g style="display: block;" mask="url(#__lottie_element_42357_1)"><g transform="matrix(0.8470607995986938,0,0,0.8470607995986938,256.0003662109375,257.43255615234375)" opacity="0.2"><g opacity="1" transform="matrix(1,0,0,1,0,0)"><path stroke-linecap="round" stroke-linejoin="round" fill-opacity="0" stroke="rgb(104,69,21)" stroke-opacity="1" stroke-width="4" d=" M-182.87600708007812,205.61500549316406 C-182.87600708007812,205.61500549316406 -153.47300720214844,157.38900756835938 -81.5260009765625,157.8520050048828"/></g><g opacity="1" transform="matrix(1,0,0,1,0,0)"><path stroke-linecap="round" stroke-linejoin="round" fill-opacity="0" stroke="rgb(104,69,21)" stroke-opacity="1" stroke-width="4" d=" M-187.11199951171875,232.17100524902344 C-187.11199951171875,232.17100524902344 -151.70199584960938,171.8509979248047 -81.5260009765625,167.28599548339844"/></g><g opacity="1" transform="matrix(1,0,0,1,0,0)"><path stroke-linecap="round" stroke-linejoin="round" fill-opacity="0" stroke="rgb(104,69,21)" stroke-opacity="1" stroke-width="4" d=" M-170.3730010986328,246.46400451660156 C-170.3730010986328,246.46400451660156 -137.8300018310547,187.4929962158203 -85.81700134277344,178.8699951171875"/></g><g opacity="1" transform="matrix(1,0,0,1,0,0)"><path stroke-linecap="round" stroke-linejoin="round" fill-opacity="0" stroke="rgb(104,69,21)" stroke-opacity="1" stroke-width="4" d=" M191.30799865722656,205.91099548339844 C191.30799865722656,205.91099548339844 154.6529998779297,157.6840057373047 87.00700378417969,157.8520050048828"/></g><g opacity="1" transform="matrix(1,0,0,1,0,0)"><path stroke-linecap="round" stroke-linejoin="round" fill-opacity="0" stroke="rgb(104,69,21)" stroke-opacity="1" stroke-width="4" d=" M191.70799255371094,233.0570068359375 C191.70799255371094,233.0570068359375 151.9969940185547,170.6699981689453 87.00700378417969,167.28599548339844"/></g><g opacity="1" transform="matrix(1,0,0,1,0,0)"><path stroke-linecap="round" stroke-linejoin="round" fill-opacity="0" stroke="rgb(104,69,21)" stroke-opacity="1" stroke-width="4" d=" M175.26400756835938,245.2830047607422 C175.26400756835938,245.2830047607422 138.125,185.1320037841797 91.2979965209961,178.8699951171875"/></g></g></g><g style="display: block;" transform="matrix(0.8470607995986938,0,0,0.8470607995986938,256.0003662109375,254.68212890625)" opacity="1"><g opacity="1" transform="matrix(1,0,0,1,0,0)"><path stroke-linecap="round" stroke-linejoin="round" fill-opacity="0" stroke="rgb(143,89,0)" stroke-opacity="1" stroke-width="4" d=" M-187.59800720214844,202.07400512695312 C-187.59800720214844,202.07400512695312 -152.61000061035156,157.8090057373047 -82.11599731445312,160.80299377441406"/></g><g opacity="1" transform="matrix(1,0,0,1,0,0)"><path stroke-linecap="round" stroke-linejoin="round" fill-opacity="0" stroke="rgb(143,89,0)" stroke-opacity="1" stroke-width="4" d=" M-191.8350067138672,228.6300048828125 C-191.8350067138672,228.6300048828125 -151.76400756835938,170.23699951171875 -82.11599731445312,170.23699951171875"/></g><g opacity="1" transform="matrix(1,0,0,1,0,0)"><path stroke-linecap="round" stroke-linejoin="round" fill-opacity="0" stroke="rgb(143,89,0)" stroke-opacity="1" stroke-width="4" d=" M-178.3419952392578,240.8560028076172 C-178.3419952392578,240.8560028076172 -144.21800231933594,185.17300415039062 -86.40699768066406,181.82200622558594"/></g><g opacity="1" transform="matrix(1,0,0,1,0,0)"><path stroke-linecap="round" stroke-linejoin="round" fill-opacity="0" stroke="rgb(143,89,0)" stroke-opacity="1" stroke-width="4" d=" M192.48899841308594,202.07400512695312 C192.48899841308594,202.07400512695312 157.50100708007812,157.8090057373047 87.00700378417969,160.80299377441406"/></g><g opacity="1" transform="matrix(1,0,0,1,0,0)"><path stroke-linecap="round" stroke-linejoin="round" fill-opacity="0" stroke="rgb(143,89,0)" stroke-opacity="1" stroke-width="4" d=" M196.7259979248047,228.6300048828125 C196.7259979248047,228.6300048828125 156.65499877929688,170.23699951171875 87.00700378417969,170.23699951171875"/></g><g opacity="1" transform="matrix(1,0,0,1,0,0)"><path stroke-linecap="round" stroke-linejoin="round" fill-opacity="0" stroke="rgb(143,89,0)" stroke-opacity="1" stroke-width="4" d=" M183.23300170898438,240.8560028076172 C183.23300170898438,240.8560028076172 149.10899353027344,185.17300415039062 91.2979965209961,181.82200622558594"/></g></g><g style="display: block;" transform="matrix(0,0,0,0,35,471)" opacity="1"><g opacity="1" transform="matrix(1,0,0,1,0,0)"><path fill="url(#__lottie_element_42319)" fill-opacity="1" d=" M-49.332000732421875,-179.97500610351562 C-59.76100158691406,-192.22000122070312 -73.22899627685547,-196.4949951171875 -100.55999755859375,-188.29200744628906 C-102.22899627685547,-187.81300354003906 -103.92900085449219,-187.24099731445312 -105.6520004272461,-186.58599853515625 C-105.77999877929688,-186.53900146484375 -105.90599822998047,-186.49899291992188 -106.03399658203125,-186.4510040283203 C-106.03399658203125,-186.4510040283203 -106.02999877929688,-186.4459991455078 -106.02999877929688,-186.4459991455078 C-115.58799743652344,-182.7449951171875 -125.85700225830078,-176.26600646972656 -135.81199645996094,-166.1529998779297 C-166.87899780273438,-134.59500122070312 -178.31900024414062,-87.62699890136719 -154.36700439453125,-72.00599670410156 C-130.4149932861328,-56.3849983215332 -107.8740005493164,-74.94400024414062 -103.70800018310547,-96.04000091552734 C-103.70800018310547,-96.04000091552734 -100.48699951171875,-146.5399932861328 -100.48699951171875,-146.5399932861328 C-100.48699951171875,-146.5399932861328 -70.23799896240234,-132.22500610351562 -70.23799896240234,-132.22500610351562 C-47.321998596191406,-140.5970001220703 -35.391998291015625,-163.60800170898438 -49.332000732421875,-179.97500610351562z"/></g><g opacity="0.4" transform="matrix(1,0,0,1,0,0)"><path fill="url(#__lottie_element_42320)" fill-opacity="1" d=" M-166.552001953125,-108.48100280761719 C-162.94900512695312,-85.5479965209961 -142.84100341796875,-78.2750015258789 -119.06999969482422,-90.91799926757812 C-119.06999969482422,-90.91799926757812 -103.23100280761719,-95.99400329589844 -103.23100280761719,-95.99400329589844 C-103.23100280761719,-95.99400329589844 -113.43900299072266,-62.314998626708984 -143.5260009765625,-67.1240005493164 C-167.93600463867188,-71.0260009765625 -166.552001953125,-108.48100280761719 -166.552001953125,-108.48100280761719z"/></g><g opacity="0.4" transform="matrix(1,0,0,1,0,0)"><path stroke-linecap="round" stroke-linejoin="round" fill-opacity="0" stroke="rgb(255,251,189)" stroke-opacity="1" stroke-width="8" d=" M-166.54600524902344,-91.69400024414062 C-169.0050048828125,-129.16200256347656 -147.99200439453125,-157.44700622558594 -113.99800109863281,-175.77699279785156 C-80.00399780273438,-194.10699462890625 -46.17499923706055,-187.5679931640625 -46.21799850463867,-154.58799743652344"/></g><g opacity="1" transform="matrix(1,0,0,1,0,0)"><path stroke-linecap="round" stroke-linejoin="round" fill-opacity="0" stroke="rgb(182,104,0)" stroke-opacity="1" stroke-width="8" d=" M-49.220001220703125,-179.6909942626953 C-60.54499816894531,-194.21200561523438 -77.74400329589844,-195.32699584960938 -99.99099731445312,-188.51600646972656 C-101.66000366210938,-188.03700256347656 -103.92900085449219,-187.24099731445312 -105.6520004272461,-186.58599853515625 C-105.77999877929688,-186.53900146484375 -105.90599822998047,-186.49899291992188 -106.03399658203125,-186.4510040283203 C-106.03399658203125,-186.4510040283203 -106.02999877929688,-186.4459991455078 -106.02999877929688,-186.4459991455078 C-115.58799743652344,-182.7449951171875 -125.85700225830078,-176.26600646972656 -135.81199645996094,-166.1529998779297 C-166.87899780273438,-134.59500122070312 -178.31900024414062,-87.62699890136719 -154.36700439453125,-72.00599670410156 C-130.4149932861328,-56.3849983215332 -107.8740005493164,-74.94400024414062 -103.70800018310547,-96.04000091552734 C-103.70800018310547,-96.04000091552734 -100.48699951171875,-146.5399932861328 -100.48699951171875,-146.5399932861328 C-100.48699951171875,-146.5399932861328 -70.23799896240234,-132.22500610351562 -70.23799896240234,-132.22500610351562 C-47.3129997253418,-142.2429962158203 -35.99800109863281,-162.73899841308594 -49.220001220703125,-179.6909942626953z"/></g><g opacity="1" transform="matrix(1,0,0,1,0,0)"><path stroke-linecap="round" stroke-linejoin="round" fill-opacity="0" stroke="rgb(155,85,0)" stroke-opacity="1" stroke-width="8" d=" M-106.03399658203125,-186.4510040283203"/></g><g opacity="1" transform="matrix(1,0,0,1,0,0)"><path stroke-linecap="round" stroke-linejoin="round" fill-opacity="0" stroke="rgb(155,85,0)" stroke-opacity="1" stroke-width="8" d=" M-165.57899475097656,-87.5530014038086 C-163.6510009765625,-81.05000305175781 -159.9810028076172,-75.66699981689453 -154.36700439453125,-72.00599670410156 C-130.4149932861328,-56.3849983215332 -107.8740005493164,-74.94400024414062 -103.70800018310547,-96.04000091552734"/></g><g opacity="1" transform="matrix(1,0,0,1,0,0)"><path fill="url(#__lottie_element_42321)" fill-opacity="1" d=" M-129.87399291992188,-172.03199768066406 C-109.88500213623047,-181.4199981689453 -89.70999908447266,-187.32899475097656 -68.02400207519531,-167.98699951171875 C-44.143001556396484,-146.68800354003906 -72.48999786376953,-116.88600158691406 -87.0979995727539,-112.5459976196289"/></g><g opacity="0.4" transform="matrix(1,0,0,1,0,0)"><path stroke-linecap="round" stroke-linejoin="round" fill-opacity="0" stroke="rgb(255,251,189)" stroke-opacity="1" stroke-width="8" d=" M-129.87399291992188,-172.03199768066406 C-103.29399871826172,-181.66900634765625 -54.435001373291016,-174.35000610351562 -64.40299987792969,-132.24400329589844"/></g><g opacity="1" transform="matrix(1,0,0,1,0,0)"><path stroke-linecap="round" stroke-linejoin="round" fill-opacity="0" stroke="rgb(182,104,0)" stroke-opacity="1" stroke-width="8" d=" M-138.66900634765625,-162.6540069580078 C-125.44400024414062,-183.77499389648438 -84.94300079345703,-186.906005859375 -67.73899841308594,-168.0989990234375 C-45.124000549316406,-143.3769989013672 -75.79199981689453,-115.25700378417969 -86.52899932861328,-112.7699966430664"/></g><g opacity="1" transform="matrix(1,0,0,1,0,0)"><path fill="url(#__lottie_element_42322)" fill-opacity="1" d=" M-159.68299865722656,-132.07000732421875 C-129.08399963378906,-172.15499877929688 -96.83599853515625,-161.19200134277344 -86.02999877929688,-147.27200317382812 C-67.21700286865234,-123.03800201416016 -96.56300354003906,-96.23500061035156 -119.7239990234375,-91.39399719238281"/></g><g opacity="0.4" transform="matrix(1,0,0,1,0,0)"><path stroke-linecap="round" stroke-linejoin="round" fill-opacity="0" stroke="rgb(255,251,189)" stroke-opacity="1" stroke-width="8" d=" M-157.26199340820312,-135.58200073242188 C-157.26199340820312,-135.58200073242188 -124.90299987792969,-168.21400451660156 -96.28500366210938,-149.7259979248047 C-83.33599853515625,-141.36099243164062 -80.36799621582031,-127.06800079345703 -84.95500183105469,-111.90399932861328"/></g><g opacity="1" transform="matrix(1,0,0,1,0,0)"><path stroke-linecap="round" stroke-linejoin="round" fill-opacity="0" stroke="rgb(182,104,0)" stroke-opacity="1" stroke-width="8" d=" M-159.33799743652344,-132.86300659179688 C-130.7310028076172,-172.16400146484375 -96.04199981689453,-160.8470001220703 -85.96900177001953,-147.9530029296875 C-63.02199935913086,-118.58100128173828 -104.36599731445312,-91.8489990234375 -119.30400085449219,-91.67500305175781"/></g><g opacity="1" transform="matrix(1,0,0,1,0,0)"><path stroke-linecap="round" stroke-linejoin="round" fill-opacity="0" stroke="rgb(155,85,0)" stroke-opacity="1" stroke-width="8" d=" M-85.78299713134766,-147.0760040283203 C-67.20500183105469,-117.6520004272461 -100.32099914550781,-94.09700012207031 -118.92400360107422,-91.79900360107422"/></g></g></g></svg>