<svg xmlns="http://www.w3.org/2000/svg" xmlns:xlink="http://www.w3.org/1999/xlink" viewBox="0 0 512 512" width="512" height="512" style="width: 100%; height: 100%; transform: translate3d(0,0,0);" preserveAspectRatio="xMidYMid meet"><defs><clipPath id="__lottie_element_11139"><rect width="512" height="512" x="0" y="0"/></clipPath><linearGradient id="__lottie_element_11158" spreadMethod="pad" gradientUnits="userSpaceOnUse" x1="-246" y1="1" x2="243" y2="0"><stop offset="0%" stop-color="rgb(0,0,0)"/><stop offset="25%" stop-color="rgb(0,0,0)"/><stop offset="50%" stop-color="rgb(0,0,0)"/><stop offset="75%" stop-color="rgb(0,0,0)"/><stop offset="100%" stop-color="rgb(0,0,0)"/></linearGradient><mask id="__lottie_element_11160"><path fill="url(#__lottie_element_11159)" d=" M-246.5,-145.5 C-246.5,-139 -246.5,144.218994140625 -246.5,146.593994140625 C-244.71200561523438,146.76499938964844 -241.55099487304688,147.5780029296875 -237.75900268554688,148.50999450683594 C-220.5,152.75 -191.07200622558594,159.75999450683594 -178.26499938964844,161.58399963378906 C-147.25,166 -127.13200378417969,165.62600708007812 -103.76799774169922,164.74600219726562 C-50.75,162.75 -4.125,146.125 27.19499969482422,139.3300018310547 C47.95800018310547,134.8249969482422 68.79000091552734,130.64500427246094 83.74700164794922,128.94000244140625 C106.25,126.375 122.875,126.75 143.25,128.35899353027344 C183.33700561523438,131.52499389648438 217.79400634765625,139.2030029296875 241.43800354003906,147.031005859375 C241.43800354003906,147.09300231933594 241.406005859375,147.09300231933594 241.406005859375,147.06199645996094 C241.406005859375,147.06199645996094 241.406005859375,147.06199645996094 241.406005859375,147.06199645996094 C241.56199645996094,120.56199645996094 241.23399353027344,82.29100036621094 241.25,49.90599822998047 C241.26600646972656,17.08300018310547 241.43699645996094,-15.739999771118164 241.5,-48.5629997253418 C241.56199645996094,-80.91699981689453 241.5,-128.75 241.625,-145.625 C151.281005859375,-172.5 103.15699768066406,-165.1009979248047 78.5,-162.81199645996094 C23.042999267578125,-156.04600524902344 -48.707000732421875,-130.79600524902344 -83.375,-129.06199645996094 C-157.875,-120.1240005493164 -212.75,-139.625 -246.5,-145.5z"/></mask><linearGradient id="__lottie_element_11159" spreadMethod="pad" gradientUnits="userSpaceOnUse" x1="-246" y1="1" x2="243" y2="0"><stop stop-color="rgb(255,255,255)" offset="0%" stop-opacity="1"/><stop stop-color="rgb(255,255,255)" offset="17%" stop-opacity="0.5"/><stop stop-color="rgb(255,255,255)" offset="33%" stop-opacity="0"/><stop stop-color="rgb(255,255,255)" offset="50%" stop-opacity="0"/><stop stop-color="rgb(255,255,255)" offset="66%" stop-opacity="0"/><stop stop-color="rgb(255,255,255)" offset="83%" stop-opacity="0.5"/><stop stop-color="rgb(255,255,255)" offset="100%" stop-opacity="1"/></linearGradient></defs><g clip-path="url(#__lottie_element_11139)"><g style="display: block;" transform="matrix(0.800000011920929,0,0,0.800000011920929,257.9656066894531,250.03680419921875)" opacity="1"><g opacity="1" transform="matrix(1,0,0,1,0,0)"><path fill="rgb(72,133,204)" fill-opacity="1" d=" M-246.5,-15.045999526977539 C-246.5,62.20199966430664 -246.5,145.31199645996094 -246.5,146.593994140625 C-244.71200561523438,146.76499938964844 -241.55099487304688,147.5780029296875 -237.75900268554688,148.50999450683594 C-220.5,152.75 -191.07200622558594,159.75999450683594 -178.26499938964844,161.58399963378906 C-147.25,166 -127.13200378417969,165.62600708007812 -103.76799774169922,164.74600219726562 C-50.75,162.75 -4.125,146.125 27.19499969482422,139.3300018310547 C47.95800018310547,134.8249969482422 68.79000091552734,130.64500427246094 83.74700164794922,128.94000244140625 C106.25,126.375 122.875,126.75 143.25,128.35899353027344 C183.33700561523438,131.52499389648438 217.79400634765625,139.2030029296875 241.43800354003906,147.031005859375 C241.43800354003906,147.09300231933594 241.406005859375,147.09300231933594 241.406005859375,147.06199645996094 C241.406005859375,147.06199645996094 241.406005859375,147.06199645996094 241.406005859375,147.06199645996094 C241.56199645996094,120.56199645996094 241.23399353027344,82.29100036621094 241.25,49.90599822998047 C241.26600646972656,17.08300018310547 241.43699645996094,-15.739999771118164 241.5,-48.5629997253418 C241.56199645996094,-80.91699981689453 -246.5,-80.90799713134766 -246.5,-15.045999526977539z"/></g><g opacity="1" transform="matrix(1,0,0,1,0,0)"><path fill="rgb(34,163,56)" fill-opacity="1" d=" M-246.5,-145.5 C-246.5,-142.28199768066406 -246.5,-71.2300033569336 -246.5,-0.014999999664723873 C-241.20700073242188,1.3289999961853027 -226.3939971923828,5.390999794006348 -208.00799560546875,9.211999893188477 C-182.31199645996094,14.552000045776367 -164.47999572753906,17.910999298095703 -126.3219985961914,19.41699981689453 C-46.207000732421875,22.57900047302246 28.042999267578125,-19.047000885009766 123.5,-19.551000595092773 C167.79299926757812,-19.78499984741211 235.29299926757812,-1.7970000505447388 241.35899353027344,0.07800000160932541 C241.41099548339844,-16.13599967956543 241.468994140625,-32.3489990234375 241.5,-48.5629997253418 C241.56199645996094,-80.91699981689453 241.5,-128.75 241.625,-145.625 C151.281005859375,-172.5 103.15699768066406,-165.1009979248047 78.5,-162.81199645996094 C23.042999267578125,-156.04600524902344 -48.707000732421875,-130.79600524902344 -83.375,-129.06199645996094 C-157.875,-120.1240005493164 -212.75,-139.625 -246.5,-145.5z"/></g></g><g style="display: block;" transform="matrix(0.800000011920929,0,0,0.800000011920929,256,250)" opacity="1"><g opacity="1" transform="matrix(1,0,0,1,0,0)"><path fill="rgb(222,25,69)" fill-opacity="1" d=" M-243.375,-146 C-243.375,-112.875 -243.625,118.75 -243.625,145.75 C-198.04200744628906,145.80099487304688 -160.1999969482422,139.86399841308594 -126.93399810791016,130.35699462890625 C-71.05000305175781,114.38600158691406 -28.079999923706055,88.33799743652344 16.976999282836914,63.667999267578125 C43.459999084472656,49.167999267578125 70.66400146484375,35.14400100708008 101.63400268554688,23.92300033569336 C140.83099365234375,9.720999717712402 186.06100463867188,0.00800000037997961 243.5,-0.5 C136.06399536132812,-63.834999084472656 71.76899719238281,-70.38500213623047 10.560999870300293,-73.2750015258789 C-58.69599914550781,-76.54499816894531 -124,-75.13200378417969 -243.375,-146z"/></g></g><g style="display: block;" transform="matrix(0.800000011920929,0,0,0.800000011920929,153.0968017578125,265.0504150390625)" opacity="1"><g opacity="1" transform="matrix(1,0,0,1,0,0)"><path fill="rgb(255,199,44)" fill-opacity="1" d=" M69.76300048828125,2.489000082015991 C64.50199890136719,15.119000434875488 54.95399856567383,22.59600067138672 54.95399856567383,22.59600067138672 C54.95399856567383,22.59600067138672 77.93299865722656,-6.956999778747559 64.52899932861328,-15.765999794006348 C64.4010009765625,-9.383000373840332 61.64099884033203,-3.1449999809265137 58.9119987487793,-1.9149999618530273 C64.92400360107422,-20.325000762939453 67.14600372314453,-34.340999603271484 58.082000732421875,-43.59600067138672 C53.95899963378906,-43.750999450683594 60.06100082397461,-28.594999313354492 56.678001403808594,-27.573999404907227 C55.92599868774414,-44.37900161743164 52.33700180053711,-54.63800048828125 44.03900146484375,-54.70199966430664 C49.51499938964844,-46.459999084472656 47.80500030517578,-38.93600082397461 47.80500030517578,-38.93600082397461 C47.80500030517578,-38.93600082397461 42.82600021362305,-52.340999603271484 17.868999481201172,-68.74500274658203 C18.29800033569336,-57.933998107910156 25.466999053955078,-55.6619987487793 27.506999969482422,-51.70199966430664 C15.59000015258789,-59.301998138427734 10.975000381469727,-61.14899826049805 -2.109999895095825,-55.277000427246094 C7.123000144958496,-40.720001220703125 15.315999984741211,-53.10599899291992 29.868999481201172,-46.722999572753906 C29.562999725341797,-44.060001373291016 23.395000457763672,-45.939998626708984 19.273000717163086,-45.382999420166016 C28.93600082397461,-29.541000366210938 37.65599822998047,-53.617000579833984 48.44300079345703,-31.40399932861328 C42.215999603271484,-30.655000686645508 41.73899841308594,-39.86899948120117 37.33700180053711,-40.40399932861328 C32.61399841308594,-30.06399917602539 41.92900085449219,-23.892000198364258 46.974998474121094,-20.680999755859375 C46.4379997253418,-7.729000091552734 56.94200134277344,-1.9040000438690186 53.61399841308594,6.765999794006348 C49.319000244140625,4.839000225067139 48.400001525878906,-2.753000020980835 48.50699996948242,-9 C38.73699951171875,-7.394000053405762 48.82600021362305,21.63800048828125 39.95399856567383,29.233999252319336 C40.117000579833984,26.750999450683594 40.49399948120117,24.691999435424805 39.6349983215332,22.979000091552734 C24.211999893188477,33.542999267578125 36.0099983215332,45.32899856567383 1.2730000019073486,53.10599899291992 C-0.05999999865889549,48.27199935913086 1.8339999914169312,43.854000091552734 3.763000011444092,40.722999572753906 C6.071000099182129,36.97700119018555 24.92300033569336,43.67900085449219 18.111000061035156,14.734000205993652 C16.554000854492188,19.176000595092773 12.517000198364258,20.954999923706055 10.595000267028809,22.97599983215332 C13.27299976348877,6.765999794006348 1.3609999418258667,24.152999877929688 1.4149999618530273,33.4119987487793 C-0.35600000619888306,20.299999237060547 -5.263999938964844,15.204999923706055 -2.365000009536743,11.29800033569336 C1.3040000200271606,6.353000164031982 17.549999237060547,18.893999099731445 19.61400032043457,-0.25099998712539673 C17.03700065612793,3.6559998989105225 10.46500015258789,5.936999797821045 6.698999881744385,4.2769999504089355 C10.135000228881836,2.135999917984009 20.270999908447266,-7.872000217437744 7.656000137329102,-13.277000427246094 C6.743000030517578,-7.764999866485596 -3.63100004196167,-3.8369998931884766 -4.113999843597412,1.3539999723434448 C-4.2210001945495605,-1.8569999933242798 -3.805000066757202,-11.059000015258789 -0.9610000252723694,-14.48900032043457 C2.3289999961853027,-18.457000732421875 18.826000213623047,-6.89300012588501 18.889999389648438,-23.106000900268555 C17.33300018310547,-21.232999801635742 11.755999565124512,-18.631000518798828 10.145999908447266,-19.915000915527344 C13.529000282287598,-22.14900016784668 21.28700065612793,-24.25 17.422000885009766,-33.83000183105469 C15.220999717712402,-29.92300033569336 12.161999702453613,-28.288999557495117 10.336999893188477,-28.020999908447266 C10.784000396728516,-31.659000396728516 13.265999794006348,-35.029998779296875 15.251999855041504,-36.957000732421875 C4.783999919891357,-37.91999816894531 3.4089999198913574,-29.85300064086914 2.549999952316284,-27.766000747680664 C1.7450000047683716,-30.816999435424805 0.906000018119812,-34.07500076293945 0.6349999904632568,-36.51100158691406 C7.401000022888184,-43.2130012512207 0.8270000219345093,-51 -3.7049999237060547,-50.808998107910156 C-3.9600000381469727,-48.25600051879883 -5,-44.233001708984375 -3.066999912261963,-42.57400131225586 C-6.066999912261963,-44.10599899291992 -8.812000274658203,-46.084999084472656 -16.215999603271484,-43.46799850463867 C-14.498000144958496,-40.09600067138672 -7.984000205993652,-37.29399871826172 -4.28000020980835,-39.70199966430664 C-7.598999977111816,-35.87200164794922 -11.493000030517578,-38.36199951171875 -13.663000106811523,-38.93600082397461 C-10.335000038146973,-32.78099822998047 -6.960999965667725,-31.97800064086914 -2.875999927520752,-32.48899841308594 C1.3109999895095825,-23.77899932861328 -4.464000225067139,-18.562000274658203 -6.449999809265137,-15.51099967956543 C-5.484000205993652,-26.107999801635742 -14.335000038146973,-32.604000091552734 -19.917999267578125,-33.446998596191406 C-22.280000686645508,-23.80900001525879 -18.822999954223633,-18.715999603271484 -16.889999389648438,-15.772000312805176 C-18.472000122070312,-14.779999732971191 -20.941999435424805,-17.514999389648438 -22.98200035095215,-20.29800033569336 C-23.46500015258789,-9.593999862670898 -16.472000122070312,-2.936000108718872 -8.557000160217285,-6.318999767303467 C-6.947000026702881,-1.6629999876022339 -9.38599967956543,4.276000022888184 -7.6570000648498535,15.696999549865723 C-11.145999908447266,10.77299976348877 -14.743000030517578,6.929999828338623 -21.131000518798828,2.809000015258789 C-22.579999923706055,6.341000080108643 -19.797000885009766,9.6850004196167 -16.791000366210938,14.234000205993652 C-20.110000610351562,13.213000297546387 -21.78499984741211,9.802000045776367 -26.93899917602539,7.340000152587891 C-29.729999542236328,13.654999732971191 -25.408000946044922,36.83000183105469 -5.295000076293945,28.006999969482422 C-3.867000102996826,35.54499816894531 -4.870999813079834,44.30799865722656 -3.8329999446868896,53.10599899291992 C-39.513999938964844,46.85100173950195 -32.54499816894531,19.246000289916992 -45.577999114990234,14.425999641418457 C-46.652000427246094,16.7810001373291 -45.02199935913086,21.474000930786133 -45.96099853515625,23.617000579833984 C-52.5099983215332,10.130000114440918 -41.303001403808594,12.564000129699707 -48.06700134277344,-10.020999908447266 C-51.066001892089844,-7.502999782562256 -50.492000579833984,2.74399995803833 -52.917999267578125,2.871999979019165 C-52.48899841308594,-10.935999870300293 -46.05400085449219,-12.517999649047852 -47.55699920654297,-21.829999923706055 C-49.38199996948242,-20.54599952697754 -50.071998596191406,-16.429000854492188 -51.89699935913086,-15.894000053405762 C-52.32600021362305,-28.41699981689453 -31.408000946044922,-25.979000091552734 -38.04600143432617,-40.915000915527344 C-41.69599914550781,-37.2760009765625 -43.59299850463867,-34.65299987792969 -46.5989990234375,-32.29800033569336 C-39.321998596191406,-53.29800033569336 -15.322999954223633,-40.14899826049805 -4.025000095367432,-54.319000244140625 C-9.607999801635742,-52.28499984741211 -16.216999053955078,-53.54600143432617 -17.04599952697754,-54.83000183105469 C-9.067000389099121,-57.06399917602539 1.0379999876022339,-58.13600158691406 4.656000137329102,-62.29800033569336 C-11.340999603271484,-67.00800323486328 -21.73699951171875,-57.404998779296875 -25.280000686645508,-57.191001892089844 C-22.166000366210938,-60.61600112915039 -18.291000366210938,-62.79100036621094 -17.110000610351562,-65.68099975585938 C-26.493000030517578,-68.74500274658203 -42.513999938964844,-44.808998107910156 -48.06700134277344,-40.65999984741211 C-46.99300003051758,-51.47100067138672 -45.22700119018555,-51.9119987487793 -44.04600143432617,-59.29800033569336 C-56.3650016784668,-53.744998931884766 -53.64400100708008,-45.520999908447266 -55.79100036621094,-23.042999267578125 C-56.840999603271484,-29.466999053955078 -54.77000045776367,-34.59600067138672 -59.17399978637695,-43.7869987487793 C-65.93800354003906,-34.047000885009766 -63.24100112915039,-21.16200065612793 -60.45000076293945,-5.105999946594238 C-63.027000427246094,-10.5649995803833 -64.89199829101562,-14.338000297546387 -65.42900085449219,-18.19099998474121 C-70.36799621582031,-7.875999927520752 -67.34400177001953,3.127000093460083 -52.79100036621094,22.34000015258789 C-57.29999923706055,19.770999908447266 -64.18299865722656,10.112000465393066 -70.08799743652344,2.2980000972747803 C-69.12200164794922,18.033000946044922 -61.5989990234375,24.319000244140625 -43.215999603271484,38.10599899291992 C-46.4370002746582,36.5 -55.9119987487793,29.993000030517578 -61.279998779296875,34.59600067138672 C-36.96099853515625,42.12799835205078 -44.8120002746582,56.23400115966797 -7.7270002365112305,58.65999984741211 C-11.1899995803833,59.50299835205078 -14.9399995803833,61.2760009765625 -14.743000030517578,68.16999816894531 C-11.682999610900879,68.16999816894531 5.119999885559082,68.74500274658203 11.024999618530273,68.74500274658203 C10.8100004196167,60.28900146484375 6.188000202178955,59.87200164794922 2.9719998836517334,58.939998626708984 C23.357999801635742,58.722999572753906 45.571998596191406,50.4900016784668 55.145999908447266,38.744998931884766 C51.49599838256836,37.99599838256836 47.715999603271484,40.06100082397461 43.52899932861328,40.59600067138672 C43.52899932861328,40.59600067138672 73.52100372314453,23.040000915527344 69.76300048828125,2.489000082015991z"/></g></g><g style="display: block;" transform="matrix(0.800000011920929,0,0,0.800000011920929,257.9656066894531,250.03680419921875)" opacity="0.35000000000000003"><g opacity="1" transform="matrix(1,0,0,1,0,0)"><path fill="url(#__lottie_element_11158)" mask="url(#__lottie_element_11160)" fill-opacity="1" d="M0 0 M-246.5,-145.5 C-246.5,-139 -246.5,144.218994140625 -246.5,146.593994140625 C-244.71200561523438,146.76499938964844 -241.55099487304688,147.5780029296875 -237.75900268554688,148.50999450683594 C-220.5,152.75 -191.07200622558594,159.75999450683594 -178.26499938964844,161.58399963378906 C-147.25,166 -127.13200378417969,165.62600708007812 -103.76799774169922,164.74600219726562 C-50.75,162.75 -4.125,146.125 27.19499969482422,139.3300018310547 C47.95800018310547,134.8249969482422 68.79000091552734,130.64500427246094 83.74700164794922,128.94000244140625 C106.25,126.375 122.875,126.75 143.25,128.35899353027344 C183.33700561523438,131.52499389648438 217.79400634765625,139.2030029296875 241.43800354003906,147.031005859375 C241.43800354003906,147.09300231933594 241.406005859375,147.09300231933594 241.406005859375,147.06199645996094 C241.406005859375,147.06199645996094 241.406005859375,147.06199645996094 241.406005859375,147.06199645996094 C241.56199645996094,120.56199645996094 241.23399353027344,82.29100036621094 241.25,49.90599822998047 C241.26600646972656,17.08300018310547 241.43699645996094,-15.739999771118164 241.5,-48.5629997253418 C241.56199645996094,-80.91699981689453 241.5,-128.75 241.625,-145.625 C151.281005859375,-172.5 103.15699768066406,-165.1009979248047 78.5,-162.81199645996094 C23.042999267578125,-156.04600524902344 -48.707000732421875,-130.79600524902344 -83.375,-129.06199645996094 C-157.875,-120.1240005493164 -212.75,-139.625 -246.5,-145.5z"/></g></g><g style="display: block;" transform="matrix(0.800000011920929,0,0,0.800000011920929,257.9656066894531,250.03680419921875)" opacity="0.15"><g opacity="1" transform="matrix(1,0,0,1,0,0)"><path fill="rgb(255,255,255)" fill-opacity="1" d=" M-246.875,-146 C-246.83700561523438,-139.70399475097656 -246.875,-138 -246.79200744628906,-132.81100463867188 C-237.5,-136.25 -197.25,-114 -124.49600219726562,-114.31099700927734 C-38.992000579833984,-114.6760025024414 39.233001708984375,-153.25 121.70800018310547,-153.39700317382812 C179.75,-153.5 241,-132.25 240.91200256347656,-131.552001953125 C241,-140.5 241.375,-144.625 241.375,-144.625 C241.375,-144.625 179.75,-166.25 122.5,-166 C39.49700164794922,-165.63800048828125 -39.5,-128 -124.25,-126.81199645996094 C-197.0449981689453,-125.79199981689453 -237.75,-149 -246.875,-146z"/></g></g><g style="display: block;" transform="matrix(0.800000011920929,0,0,0.800000011920929,257.9656066894531,250.03680419921875)" opacity="0.15"><g opacity="1" transform="matrix(1,0,0,1,0,0)"><path fill="rgb(0,0,0)" fill-opacity="1" d=" M122.5,112.25 C34,112.25 -36,149.5 -123.5,152 C-140.61700439453125,152.48899841308594 -155.82000732421875,151.3489990234375 -170.41099548339844,149.1280059814453 C-195.23399353027344,145.35000610351562 -218.28900146484375,138.4459991455078 -246,131.125 C-246.25,134.5 -246,141.375 -246,145.125 C-218.5749969482422,153.30599975585938 -195.61700439453125,159.55499267578125 -170.83099365234375,163.0050048828125 C-155.8520050048828,165.08999633789062 -140.20399475097656,166.15199279785156 -122.5,166 C-35,165.25 33.5,126.625 121.75,126.5 C126.26799774169922,126.49400329589844 131.11399841308594,126.59500122070312 136.27699279785156,126.83899688720703 C163.25900268554688,128.11300659179688 198.88099670410156,133.2550048828125 241.375,147 C241.375,147 241.25,134.75 241.5,131.125 C199.093994140625,118.93299865722656 163.16200256347656,113.84500122070312 136.1439971923828,112.58000183105469 C131.30499267578125,112.35399627685547 126.75299835205078,112.25 122.5,112.25z"/></g></g><g style="display: block;" transform="matrix(0.800000011920929,0,0,0.800000011920929,257.9656066894531,250.03680419921875)" opacity="1"><g opacity="1" transform="matrix(1,0,0,1,0,0)"><path stroke-linecap="round" stroke-linejoin="round" fill-opacity="0" stroke="rgb(24,53,88)" stroke-opacity="1" stroke-width="8" d=" M-246.5,-0.014999999664723873 C-246.5,72.6050033569336 -246.5,145.39500427246094 -246.5,146.593994140625 C-244.71200561523438,146.76499938964844 -241.55099487304688,147.5780029296875 -237.75900268554688,148.50999450683594 C-220.5,152.75 -191.07200622558594,159.75999450683594 -178.26499938964844,161.58399963378906 C-147.25,166 -127.13200378417969,165.62600708007812 -103.76799774169922,164.74600219726562 C-50.75,162.75 -4.125,146.125 27.19499969482422,139.3300018310547 C47.95800018310547,134.8249969482422 68.79000091552734,130.64500427246094 83.74700164794922,128.94000244140625 C106.25,126.375 122.875,126.75 143.25,128.35899353027344 C183.33700561523438,131.52499389648438 217.79400634765625,139.2030029296875 241.43800354003906,147.031005859375 C241.43800354003906,147.09300231933594 241.406005859375,147.09300231933594 241.406005859375,147.06199645996094 C241.406005859375,147.06199645996094 241.406005859375,147.06199645996094 241.406005859375,147.06199645996094 C241.56199645996094,120.56199645996094 241.23399353027344,82.29100036621094 241.25,49.90599822998047 C241.25799560546875,33.297000885009766 241.30599975585938,16.687000274658203 241.35899353027344,0.07800000160932541"/></g><g opacity="1" transform="matrix(1,0,0,1,0,0)"><path stroke-linecap="butt" stroke-linejoin="round" fill-opacity="0" stroke="rgb(17,79,28)" stroke-opacity="1" stroke-width="8" d=" M241.35899353027344,0.07800000160932541 C241.41099548339844,-16.13599967956543 241.468994140625,-32.3489990234375 241.5,-48.5629997253418 C241.56199645996094,-80.91699981689453 241.5,-128.75 241.625,-145.625 C151.281005859375,-172.5 103.15699768066406,-165.1009979248047 78.5,-162.81199645996094 C23.042999267578125,-156.04600524902344 -48.707000732421875,-130.79600524902344 -83.375,-129.06199645996094 C-157.875,-120.1240005493164 -212.75,-139.625 -246.5,-145.5 C-246.5,-142.28199768066406 -246.5,-71.2300033569336 -246.5,-0.014999999664723873"/></g><g opacity="1" transform="matrix(1,0,0,1,0,0)"><path stroke-linecap="round" stroke-linejoin="round" fill-opacity="0" stroke="rgb(100,12,32)" stroke-opacity="1" stroke-width="8" d=" M-246.5,-145.5 C-246.5,-139 -246.5,144.218994140625 -246.5,146.593994140625"/></g></g></g></svg>