<svg xmlns="http://www.w3.org/2000/svg" xmlns:xlink="http://www.w3.org/1999/xlink" viewBox="0 0 512 512" width="512" height="512" style="width: 100%; height: 100%; transform: translate3d(0,0,0);" preserveAspectRatio="xMidYMid meet"><defs><clipPath id="__lottie_element_41769"><rect width="512" height="512" x="0" y="0"/></clipPath><radialGradient id="__lottie_element_41787" spreadMethod="pad" gradientUnits="userSpaceOnUse" cx="17.402000427246094" cy="-57" r="224.90543931722618" fx="17.402000427246094" fy="-57"><stop offset="61%" stop-color="rgb(255,229,92)"/><stop offset="80%" stop-color="rgb(246,199,71)"/><stop offset="100%" stop-color="rgb(236,170,51)"/></radialGradient><radialGradient id="__lottie_element_41788" spreadMethod="pad" gradientUnits="userSpaceOnUse" cx="4.821000099182129" cy="-43.94900131225586" r="179.5452109400215" fx="4.821000099182129" fy="-43.94900131225586"><stop offset="0%" stop-color="rgb(255,229,92)"/><stop offset="33%" stop-color="rgb(255,227,79)"/><stop offset="60%" stop-color="rgb(255,226,65)"/><stop offset="80%" stop-color="rgb(246,198,58)"/><stop offset="100%" stop-color="rgb(236,170,51)"/></radialGradient><radialGradient id="__lottie_element_41789" spreadMethod="pad" gradientUnits="userSpaceOnUse" cx="165.64100646972656" cy="-150.9239959716797" r="451.5939587364144" fx="165.64100646972656" fy="-150.9239959716797"><stop offset="8%" stop-color="rgb(205,128,0)" stop-opacity="0"/><stop offset="54%" stop-color="rgb(205,128,0)" stop-opacity="0.25"/><stop offset="100%" stop-color="rgb(205,128,0)" stop-opacity="0.5"/></radialGradient><radialGradient id="__lottie_element_41792" spreadMethod="pad" gradientUnits="userSpaceOnUse" cx="1.319000005722046" cy="9" r="39.851542650804184" fx="1.319000005722046" fy="9"><stop offset="50%" stop-color="rgb(119,97,0)"/><stop offset="60%" stop-color="rgb(59,48,0)"/><stop offset="70%" stop-color="rgb(0,0,0)"/></radialGradient><radialGradient id="__lottie_element_41793" spreadMethod="pad" gradientUnits="userSpaceOnUse" cx="-0.9679999947547913" cy="-0.8709999918937683" r="33.384546201434254" fx="-0.9679999947547913" fy="-0.8709999918937683"><stop offset="71%" stop-color="rgb(0,0,0)" stop-opacity="1"/><stop offset="86%" stop-color="rgb(0,0,0)" stop-opacity="0.5"/><stop offset="100%" stop-color="rgb(0,0,0)" stop-opacity="0"/></radialGradient><linearGradient id="__lottie_element_41794" spreadMethod="pad" gradientUnits="userSpaceOnUse" x1="-0.5879999995231628" y1="-8.697999954223633" x2="-0.5879999995231628" y2="6.769000053405762"><stop offset="0%" stop-color="rgb(255,255,255)" stop-opacity="1"/><stop offset="50%" stop-color="rgb(255,255,255)" stop-opacity="0.5"/><stop offset="100%" stop-color="rgb(255,255,255)" stop-opacity="0"/></linearGradient><radialGradient id="__lottie_element_41795" spreadMethod="pad" gradientUnits="userSpaceOnUse" cx="0.1340000033378601" cy="9.5" r="39.85154265049308" fx="0.1340000033378601" fy="9.5"><stop offset="50%" stop-color="rgb(119,97,0)"/><stop offset="60%" stop-color="rgb(59,48,0)"/><stop offset="70%" stop-color="rgb(0,0,0)"/></radialGradient><radialGradient id="__lottie_element_41796" spreadMethod="pad" gradientUnits="userSpaceOnUse" cx="-0.6240000128746033" cy="-0.8709999918937683" r="33.384562721329516" fx="-0.6240000128746033" fy="-0.8709999918937683"><stop offset="71%" stop-color="rgb(0,0,0)" stop-opacity="1"/><stop offset="86%" stop-color="rgb(0,0,0)" stop-opacity="0.5"/><stop offset="100%" stop-color="rgb(0,0,0)" stop-opacity="0"/></radialGradient><linearGradient id="__lottie_element_41797" spreadMethod="pad" gradientUnits="userSpaceOnUse" x1="-0.24300000071525574" y1="-8.697999954223633" x2="-0.24300000071525574" y2="6.769000053405762"><stop offset="0%" stop-color="rgb(255,255,255)" stop-opacity="1"/><stop offset="50%" stop-color="rgb(255,255,255)" stop-opacity="0.5"/><stop offset="100%" stop-color="rgb(255,255,255)" stop-opacity="0"/></linearGradient><linearGradient id="__lottie_element_41800" spreadMethod="pad" gradientUnits="userSpaceOnUse" x1="-70.08499908447266" y1="-0.6230000257492065" x2="68.69000244140625" y2="-0.6230000257492065"><stop offset="0%" stop-color="rgb(213,112,28)"/><stop offset="50%" stop-color="rgb(187,93,15)"/><stop offset="100%" stop-color="rgb(161,74,1)"/></linearGradient><radialGradient id="__lottie_element_41801" spreadMethod="pad" gradientUnits="userSpaceOnUse" cx="15.399999618530273" cy="-16.371000289916992" r="71.8903622513349" fx="19.343009597381293" fy="-87.43315052237716"><stop offset="0%" stop-color="rgb(197,50,50)"/><stop offset="50%" stop-color="rgb(226,89,89)"/><stop offset="100%" stop-color="rgb(255,128,128)"/></radialGradient><linearGradient id="__lottie_element_41807" spreadMethod="pad" gradientUnits="userSpaceOnUse" x1="29.179000854492188" y1="-21.940000534057617" x2="-10.350000381469727" y2="53.292999267578125"><stop offset="0%" stop-color="rgb(255,163,88)"/><stop offset="44%" stop-color="rgb(255,156,75)"/><stop offset="87%" stop-color="rgb(255,149,62)"/></linearGradient><linearGradient id="__lottie_element_41808" spreadMethod="pad" gradientUnits="userSpaceOnUse" x1="18.187000274658203" y1="-11.600000381469727" x2="-71.24500274658203" y2="-43.332000732421875"><stop offset="0%" stop-color="rgb(255,148,63)"/><stop offset="25%" stop-color="rgb(255,173,85)"/><stop offset="50%" stop-color="rgb(255,199,108)"/><stop offset="75%" stop-color="rgb(255,173,85)"/><stop offset="100%" stop-color="rgb(255,148,63)"/></linearGradient><radialGradient id="__lottie_element_41812" spreadMethod="pad" gradientUnits="userSpaceOnUse"><stop/><stop/><stop/></radialGradient><mask id="__lottie_element_41814"><path fill="url(#__lottie_element_41813)"/></mask><radialGradient id="__lottie_element_41813" spreadMethod="pad" gradientUnits="userSpaceOnUse"><stop stop-color="rgb(255,255,255)"/><stop stop-color="rgb(255,255,255)"/><stop stop-color="rgb(255,255,255)"/></radialGradient></defs><g clip-path="url(#__lottie_element_41769)"><g style="display: block;" transform="matrix(0.8330000042915344,0,0,0.8330000042915344,40.66950607299805,42.75200653076172)" opacity="1"><g opacity="1" transform="matrix(1,0,0,1,297.5979919433594,256)"><path fill="url(#__lottie_element_41787)" fill-opacity="1" d=" M197.1790008544922,-2.128999948501587 C197.1790008544922,119.08499908447266 146.593994140625,181.60000610351562 5.098999977111816,192.5760040283203 C-56.65800094604492,197.36700439453125 -100.5999984741211,180.2689971923828 -130.75900268554688,150.2550048828125 C-131.78700256347656,149.23199462890625 -138.0970001220703,137.25 -154.60899353027344,138.51100158691406 C-195.5970001220703,107 -212.11099243164062,44.611000061035156 -186.9810028076172,-2.128999948501587 C-192.31100463867188,-109.61499786376953 -101.37999725341797,-193.37399291992188 5.098999977111816,-193.37399291992188 C111.18199920654297,-193.37399291992188 197.1790008544922,-118.09200286865234 197.1790008544922,-2.128999948501587z"/><path stroke-linecap="round" stroke-linejoin="round" fill-opacity="0" stroke="rgb(221,140,11)" stroke-opacity="1" stroke-width="10" d=" M197.1790008544922,-2.128999948501587 C197.1790008544922,119.08499908447266 146.593994140625,181.60000610351562 5.098999977111816,192.5760040283203 C-56.65800094604492,197.36700439453125 -100.5999984741211,180.2689971923828 -130.75900268554688,150.2550048828125 C-131.78700256347656,149.23199462890625 -138.0970001220703,137.25 -154.60899353027344,138.51100158691406 C-195.5970001220703,107 -212.11099243164062,44.611000061035156 -186.9810028076172,-2.128999948501587 C-192.31100463867188,-109.61499786376953 -101.37999725341797,-193.37399291992188 5.098999977111816,-193.37399291992188 C111.18199920654297,-193.37399291992188 197.1790008544922,-118.09200286865234 197.1790008544922,-2.128999948501587z"/></g><g opacity="1" transform="matrix(1,0,0,1,304.1789855957031,255.94900512695312)"><path fill="url(#__lottie_element_41788)" fill-opacity="1" d=" M171.21299743652344,-1.8639999628067017 C171.21299743652344,107.1259994506836 125.59500122070312,161.72999572753906 -1.4950000047683716,173.2050018310547 C-73.38200378417969,179.6959991455078 -127.70600128173828,133.9029998779297 -127.70600128173828,85.7300033569336 C-240.4739990234375,-49.42900085449219 -110.85800170898438,-173.82200622558594 -1.4950000047683716,-173.82200622558594 C93.88899993896484,-173.82200622558594 171.21299743652344,-106.13200378417969 171.21299743652344,-1.8639999628067017z"/></g><g opacity="1" transform="matrix(1,0,0,1,304.3590087890625,346.92401123046875)"><path fill="url(#__lottie_element_41789)" fill-opacity="1" d=" M189.68800354003906,-101.62799835205078 C182.79600524902344,-5.122000217437744 116.22200012207031,33.446998596191406 47.33399963378906,40.57400131225586 C-24.18899917602539,47.9739990234375 -98.20600128173828,21.48200035095215 -110.50700378417969,-9.244000434875488 C-115.90599822998047,-22.729999542236328 -130.06900024414062,-27.79400062561035 -147.01499938964844,-38.27399826049805 C-154.8560028076172,-43.12300109863281 -163.29200744628906,-49.13100051879883 -171.73300170898438,-57.66999816894531 C-173.28399658203125,-59.23899841308594 -174.8350067138672,-60.893001556396484 -176.3820037841797,-62.64099884033203 C-182.68499755859375,-69.76200103759766 -188.92799377441406,-78.44100189208984 -194.86500549316406,-89.25199890136719 C-198.85800170898438,-82.42400360107422 -203.60899353027344,-66.4229965209961 -205.1300048828125,-54.55799865722656 C-207.7169952392578,-22.334999084472656 -196.48399353027344,18.826000213623047 -161.4669952392578,47.547000885009766 C-153.48399353027344,46.07600021362305 -144.72900390625,52.375999450683594 -137.62600708007812,59.534000396728516 C-102.10900115966797,95.32599639892578 -57.70100021362305,105.23600006103516 8.21500015258789,100.77899932861328 C63.31999969482422,97.0530014038086 102.25599670410156,82.53199768066406 129.56300354003906,62.090999603271484 C187.58099365234375,18.66200065612793 193.10800170898438,-51.492000579833984 189.68800354003906,-101.62799835205078z"/></g><g opacity="1" transform="matrix(1,0,0,1,297.5979919433594,256)"><path stroke-linecap="round" stroke-linejoin="round" fill-opacity="0" stroke="rgb(191,116,8)" stroke-opacity="1" stroke-width="10" d=" M197.1790008544922,-2.128999948501587 C197.1790008544922,119.08499908447266 146.593994140625,181.60000610351562 5.098999977111816,192.5760040283203 C-56.65800094604492,197.36700439453125 -100.5999984741211,180.2689971923828 -130.75900268554688,150.2550048828125 C-131.78700256347656,149.23199462890625 -138.0970001220703,137.25 -154.60899353027344,138.51100158691406 C-174.47500610351562,123.23899841308594 -188.59100341796875,100.71299743652344 -195.00399780273438,76.23100280761719"/></g></g><g style="display: block;" transform="matrix(0.8309708833694458,0.05810714140534401,-0.05810714140534401,0.8309708833694458,55.85295486450195,34.45103454589844)" opacity="1"><g opacity="0" transform="matrix(0.10000000149011612,0,0,0.6600000262260437,105.07120513916016,87.03999328613281)"><g opacity="1" transform="matrix(1,0,0,1,58.96799850463867,256)"><path fill="rgb(216,132,57)" fill-opacity="1" d=" M-41.805999755859375,0.46299999952316284 C-41.805999755859375,31.84600067138672 -20.94700050354004,47.55500030517578 -0.06599999964237213,47.5880012512207 C20.858999252319336,47.62099838256836 41.805999755859375,31.91200065612793 41.805999755859375,0.46299999952316284 C41.805999755859375,-63.60499954223633 -41.805999755859375,-63.60499954223633 -41.805999755859375,0.46299999952316284z"/></g><g opacity="1" transform="matrix(1,0,0,1,58.96799850463867,256)"><path fill="url(#__lottie_element_41792)" fill-opacity="1" d=" M-34.104000091552734,0.382999986410141 C-34.104000091552734,7.995999813079834 -32.637001037597656,14.491999626159668 -30.132999420166016,19.871999740600586 C-24.351999282836914,32.29199981689453 -13.043000221252441,38.76100158691406 -1.5049999952316284,39.27799987792969 C16.034000396728516,40.06399917602539 34.104000091552734,27.100000381469727 34.104000091552734,0.382999986410141 C34.104000091552734,-45.30400085449219 -16.722000122070312,-51.553001403808594 -30.625,-18.363000869750977 C-32.827999114990234,-13.104000091552734 -34.104000091552734,-6.855999946594238 -34.104000091552734,0.382999986410141z"/></g><g opacity="1" transform="matrix(1,0,0,1,58.96799850463867,253.87100219726562)"><path fill="url(#__lottie_element_41793)" fill-opacity="1" d=" M-34.69499969482422,0 C-34.69499969482422,7.576000213623047 -32.85300064086914,13.890000343322754 -29.768999099731445,18.957000732421875 C-23.525999069213867,29.211999893188477 -12.196000099182129,34.354000091552734 -0.7559999823570251,34.492000579833984 C16.84000015258789,34.70399856567383 34.69499969482422,23.076000213623047 34.69499969482422,0 C34.69499969482422,-38.73400115966797 -15.609999656677246,-45.21200180053711 -30.555999755859375,-17.584999084472656 C-33.16400146484375,-12.765000343322754 -34.69499969482422,-6.9070000648498535 -34.69499969482422,0z"/></g><g opacity="1" transform="matrix(1,0,0,1,58.5880012512207,231.697998046875)"><path fill="url(#__lottie_element_41794)" fill-opacity="1" d=" M-8.79800033569336,0 C-8.79800033569336,13.236000061035156 8.79800033569336,12.951000213623047 8.79800033569336,0 C8.79800033569336,-12.951000213623047 -8.79800033569336,-13.236000061035156 -8.79800033569336,0z"/></g></g><g opacity="1" transform="matrix(1,0,0,1,0,0)"><g opacity="1" transform="matrix(1,0,0,1,244.62399291992188,256)"><path fill="rgb(216,132,57)" fill-opacity="1" d=" M-41.805999755859375,0.46299999952316284 C-41.805999755859375,32.30799865722656 -20.32900047302246,48.01300048828125 0.8550000190734863,47.57899856567383 C21.4689998626709,47.15599822998047 41.805999755859375,31.451000213623047 41.805999755859375,0.46299999952316284 C41.805999755859375,-63.60499954223633 -41.805999755859375,-63.60499954223633 -41.805999755859375,0.46299999952316284z"/></g><g opacity="1" transform="matrix(1,0,0,1,244.62399291992188,256)"><path fill="url(#__lottie_element_41795)" fill-opacity="1" d=" M-34.104000091552734,0.382999986410141 C-34.104000091552734,26.92300033569336 -16.27199935913086,39.891998291015625 1.156999945640564,39.29199981689453 C11.878999710083008,38.92300033569336 22.448999404907227,33.417999267578125 28.6200008392334,22.777000427246094 C32.0359992980957,16.88599967956543 34.104000091552734,9.42199993133545 34.104000091552734,0.382999986410141 C34.104000091552734,-8.11400032043457 32.34700012207031,-15.246999740600586 29.395000457763672,-21.016000747680664 C13.961999893188477,-51.17900085449219 -34.104000091552734,-44.04600143432617 -34.104000091552734,0.382999986410141z"/></g><g opacity="1" transform="matrix(1,0,0,1,244.62399291992188,253.87100219726562)"><path fill="url(#__lottie_element_41796)" fill-opacity="1" d=" M-34.69499969482422,0 C-34.69499969482422,24.299999237060547 -15.73900032043457,35.625999450683594 2.3580000400543213,34.40599822998047 C12.909000396728516,33.69499969482422 23.16699981689453,28.7189998626709 29.207000732421875,19.56399917602539 C32.62799835205078,14.378000259399414 34.69499969482422,7.8520002365112305 34.69499969482422,0 C34.69499969482422,-7.686999797821045 32.7140007019043,-14.102999687194824 29.42099952697754,-19.235000610351562 C13.22599983215332,-44.472999572753906 -34.69499969482422,-38.6349983215332 -34.69499969482422,0z"/></g><g opacity="1" transform="matrix(1,0,0,1,244.2429962158203,231.697998046875)"><path fill="url(#__lottie_element_41797)" fill-opacity="1" d=" M-8.79800033569336,0 C-8.79800033569336,13.236000061035156 8.79800033569336,12.951000213623047 8.79800033569336,0 C8.79800033569336,-12.951000213623047 -8.79800033569336,-13.236000061035156 -8.79800033569336,0z"/></g></g></g><g style="display: block;" transform="matrix(0.8309708833694458,0.05810714140534401,-0.05810714140534401,0.8309708833694458,56.26844024658203,34.4800910949707)" opacity="1"><g opacity="1" transform="matrix(1,0,0,1,0,0)"><g opacity="1" transform="matrix(1,0,0,1,107.08499908447266,362.62298583984375)"><path fill="url(#__lottie_element_41800)" fill-opacity="1" d=" M69.38800048828125,-20.944000244140625 C68.11499786376953,-8.218000411987305 56.542999267578125,22.450000762939453 49.52399826049805,32.32899856567383 C18.690000534057617,30.381000518798828 -20.420000076293945,33.38800048828125 -66.71499633789062,14.62600040435791 C-69.9219970703125,13.326000213623047 -70.34500122070312,8.934000015258789 -67.42900085449219,7.070000171661377 C-34.731998443603516,-13.836000442504883 -2.3559999465942383,-28.52199935913086 16.194000244140625,-32.32899856567383 C27.8700008392334,-23.80699920654297 49.50400161743164,-19.67099952697754 69.38800048828125,-20.944000244140625z"/><path stroke-linecap="round" stroke-linejoin="round" fill-opacity="0" stroke="rgb(145,57,13)" stroke-opacity="1" stroke-width="10" d=" M69.38800048828125,-20.944000244140625 C68.11499786376953,-8.218000411987305 56.542999267578125,22.450000762939453 49.52399826049805,32.32899856567383 C18.690000534057617,30.381000518798828 -20.420000076293945,33.38800048828125 -66.71499633789062,14.62600040435791 C-69.9219970703125,13.326000213623047 -70.34500122070312,8.934000015258789 -67.42900085449219,7.070000171661377 C-34.731998443603516,-13.836000442504883 -2.3559999465942383,-28.52199935913086 16.194000244140625,-32.32899856567383 C27.8700008392334,-23.80699920654297 49.50400161743164,-19.67099952697754 69.38800048828125,-20.944000244140625z"/></g><g opacity="0.5" transform="matrix(1,0,0,1,106.5989990234375,354.3479919433594)"><path fill="rgb(242,155,68)" fill-opacity="1" d=" M15.696999549865723,-19.70400047302246 C-0.7889999747276306,-16.320999145507812 -35.904998779296875,-0.2540000081062317 -65.12899780273438,18.884000778198242 C-57.608001708984375,21.368000030517578 -45.12099838256836,17.90999984741211 -27.301000595092773,12.559000015258789 C-5.045000076293945,5.875999927520752 25.527999877929688,-3.759999990463257 65.12899780273438,-8.461000442504883 C42.2760009765625,-8.814000129699707 26.06100082397461,-13.133000373840332 15.696999549865723,-19.70400047302246z"/></g><g opacity="1" transform="matrix(1,0,0,1,105.47100067138672,345.65399169921875)"><path fill="url(#__lottie_element_41801)" fill-opacity="1" d=" M16.825000762939453,-11.010000228881836 C3.809000015258789,-8.413999557495117 -30.65999984741211,3.385999917984009 -58.42399978637695,21.85300064086914 C-34.92499923706055,12.041000366210938 -13.381999969482422,7.359000205993652 3.878999948501587,3.4140000343322754 C23.500999450683594,-1.0700000524520874 39.558998107910156,-2.375999927520752 48.8390007019043,-2.430000066757202 C62.569000244140625,-2.509999990463257 55.71699905395508,-17.104000091552734 47.53300094604492,-24.458999633789062 C45.26900100708008,-26.493999481201172 30.398000717163086,-22.926000595092773 27.4950008392334,-24.413999557495117 C25.829999923706055,-25.267000198364258 29.840999603271484,-13.605999946594238 16.825000762939453,-11.010000228881836z"/><path stroke-linecap="round" stroke-linejoin="round" fill-opacity="0" stroke="rgb(145,57,13)" stroke-opacity="1" stroke-width="10" d=" M16.825000762939453,-11.010000228881836 C3.809000015258789,-8.413999557495117 -30.65999984741211,3.385999917984009 -58.42399978637695,21.85300064086914 C-34.92499923706055,12.041000366210938 -13.381999969482422,7.359000205993652 3.878999948501587,3.4140000343322754 C23.500999450683594,-1.0700000524520874 39.558998107910156,-2.375999927520752 48.8390007019043,-2.430000066757202 C62.569000244140625,-2.509999990463257 55.71699905395508,-17.104000091552734 47.53300094604492,-24.458999633789062 C45.26900100708008,-26.493999481201172 30.398000717163086,-22.926000595092773 27.4950008392334,-24.413999557495117 C25.829999923706055,-25.267000198364258 29.840999603271484,-13.605999946594238 16.825000762939453,-11.010000228881836z"/></g></g><g opacity="1" transform="matrix(1,0,0,1,0,0)"><path stroke-linecap="round" stroke-linejoin="round" fill-opacity="0" stroke="rgb(226,69,69)" stroke-opacity="1" stroke-width="10" d=" M99,301.7869873046875 C99,301.7869873046875 103.06700134277344,293.77301025390625 119.62300109863281,288.2090148925781 C133.24099731445312,293.6130065917969 142.93600463867188,301.1289978027344 142.93600463867188,301.1289978027344"/></g></g><g style="display: block;" transform="matrix(0.8309708833694458,0.05810714140534401,-0.05810714140534401,0.8309708833694458,56.26844024658203,34.4800910949707)" opacity="1"><g opacity="1" transform="matrix(1,0,0,1,0,0)"><g opacity="1" transform="matrix(1,0,0,1,103.82099914550781,312.94000244140625)"><path fill="url(#__lottie_element_41807)" fill-opacity="1" d=" M5.664000034332275,-57.16600036621094 C-24.304000854492188,-31.472000122070312 -60.77899932861328,-2.496999979019165 -73.16200256347656,53.68000030517578 C-73.91200256347656,57.08399963378906 -70.52200317382812,59.92399978637695 -67.29199981689453,58.61399841308594 C-49.88399887084961,51.55099868774414 -31.524999618530273,45.26900100708008 -11.42199993133545,40.2859992980957 C13.435999870300293,34.124000549316406 40.96099853515625,29.947999954223633 72.6520004272461,28.73900032043457 C73.73500061035156,24.860000610351562 73.78800201416016,18.88599967956543 69.44200134277344,14.567999839782715 C46.84400177001953,-7.883999824523926 37.83399963378906,-22.118999481201172 16.672000885009766,-55.518001556396484 C14.270999908447266,-59.30699920654297 9.069000244140625,-60.08599853515625 5.664000034332275,-57.16600036621094z"/><path stroke-linecap="round" stroke-linejoin="round" fill-opacity="0" stroke="rgb(173,88,30)" stroke-opacity="1" stroke-width="10" d=" M5.664000034332275,-57.16600036621094 C-24.304000854492188,-31.472000122070312 -60.77899932861328,-2.496999979019165 -73.16200256347656,53.68000030517578 C-73.91200256347656,57.08399963378906 -70.52200317382812,59.92399978637695 -67.29199981689453,58.61399841308594 C-49.88399887084961,51.55099868774414 -31.524999618530273,45.26900100708008 -11.42199993133545,40.2859992980957 C13.435999870300293,34.124000549316406 40.96099853515625,29.947999954223633 72.6520004272461,28.73900032043457 C73.73500061035156,24.860000610351562 73.78800201416016,18.88599967956543 69.44200134277344,14.567999839782715 C46.84400177001953,-7.883999824523926 37.83399963378906,-22.118999481201172 16.672000885009766,-55.518001556396484 C14.270999908447266,-59.30699920654297 9.069000244140625,-60.08599853515625 5.664000034332275,-57.16600036621094z"/></g><g opacity="1" transform="matrix(1,0,0,1,103.51300048828125,356.7799987792969)"><path stroke-linecap="round" stroke-linejoin="round" fill-opacity="0" stroke="rgb(145,57,13)" stroke-opacity="1" stroke-width="10" d=" M-72.85399627685547,9.84000015258789 C-73.60399627685547,13.244000434875488 -70.21499633789062,16.083999633789062 -66.98500061035156,14.77400016784668 C-49.672000885009766,7.75 -31.417999267578125,1.4980000257492065 -11.444000244140625,-3.4719998836517334 C13.5,-9.678999900817871 41.12799835205078,-13.88599967956543 72.95899963378906,-15.100000381469727"/></g><g opacity="1" transform="matrix(1,0,0,1,112.69200134277344,318.4020080566406)"><path fill="url(#__lottie_element_41808)" fill-opacity="1" d=" M-60.80500030517578,41.55500030517578 C-47.61800003051758,36.6150016784668 -32.19200134277344,31.881999969482422 -14.59000015258789,27.94099998474121 C7.03000020980835,23.100000381469727 31.39699935913086,19.34000015258789 59.457000732421875,17.966999053955078 C59.23500061035156,15.204000473022461 57.40299987792969,12.657999992370605 56.12799835205078,11.461999893188477 C38.14699935913086,-5.400000095367432 28.405000686645508,-19.507999420166016 15.468000411987305,-39.23099899291992 C13.010000228881836,-42.97800064086914 7.8420000076293945,-43.79100036621094 4.370999813079834,-40.957000732421875 C-21.45599937438965,-19.864999771118164 -45.40299987792969,-1.1710000038146973 -60.80500030517578,41.55500030517578z"/></g><g opacity="1" transform="matrix(1,0,0,1,73.4540023803711,310.30999755859375)"><path stroke-linecap="round" stroke-linejoin="round" fill-opacity="0" stroke="rgb(220,116,58)" stroke-opacity="1" stroke-width="10" d=" M42.79399871826172,-56.040000915527344 C40.527000427246094,-56.667999267578125 37.98400115966797,-56.209999084472656 36.03099822998047,-54.5359992980957 C6.063000202178955,-28.841999053955078 -30.410999298095703,0.13300000131130219 -42.79399871826172,56.310001373291016"/></g></g></g></g></svg>