<svg xmlns="http://www.w3.org/2000/svg" xmlns:xlink="http://www.w3.org/1999/xlink" viewBox="0 0 512 512" width="512" height="512" style="width: 100%; height: 100%; transform: translate3d(0,0,0);" preserveAspectRatio="xMidYMid meet"><defs><clipPath id="__lottie_element_35541"><rect width="512" height="512" x="0" y="0"/></clipPath><radialGradient id="__lottie_element_35550" spreadMethod="pad" gradientUnits="userSpaceOnUse" cx="-20.708999633789062" cy="-196.0590057373047" r="61.904998779296875" fx="-20.708999633789062" fy="-196.0590057373047"><stop offset="14%" stop-color="rgb(166,235,38)"/><stop offset="69%" stop-color="rgb(121,190,27)"/><stop offset="100%" stop-color="rgb(76,146,16)"/></radialGradient><radialGradient id="__lottie_element_35551" spreadMethod="pad" gradientUnits="userSpaceOnUse" cx="-21.708999633789062" cy="-200.0590057373047" r="50.930999755859375" fx="-21.708999633789062" fy="-200.0590057373047"><stop offset="1%" stop-color="rgb(197,246,93)"/><stop offset="64%" stop-color="rgb(138,199,49)"/><stop offset="100%" stop-color="rgb(80,153,5)"/></radialGradient><radialGradient id="__lottie_element_35555" spreadMethod="pad" gradientUnits="userSpaceOnUse" cx="-100.70899963378906" cy="-164.73800659179688" r="38.1281540176065" fx="-100.70899963378906" fy="-164.73800659179688"><stop offset="14%" stop-color="rgb(147,222,9)"/><stop offset="69%" stop-color="rgb(109,173,18)"/><stop offset="100%" stop-color="rgb(72,124,27)"/></radialGradient><radialGradient id="__lottie_element_35556" spreadMethod="pad" gradientUnits="userSpaceOnUse" cx="-94.70899963378906" cy="-146.0590057373047" r="72.14999961853027" fx="-94.70899963378906" fy="-146.0590057373047"><stop offset="0%" stop-color="rgb(181,230,81)"/><stop offset="64%" stop-color="rgb(124,176,41)"/><stop offset="100%" stop-color="rgb(68,123,1)"/></radialGradient><radialGradient id="__lottie_element_35560" spreadMethod="pad" gradientUnits="userSpaceOnUse" cx="-113.70899963378906" cy="-203.66299438476562" r="59.427719648669495" fx="-113.70899963378906" fy="-203.66299438476562"><stop offset="14%" stop-color="rgb(147,222,9)"/><stop offset="69%" stop-color="rgb(109,173,18)"/><stop offset="100%" stop-color="rgb(72,124,27)"/></radialGradient><radialGradient id="__lottie_element_35564" spreadMethod="pad" gradientUnits="userSpaceOnUse" cx="47.29100036621094" cy="-172.0590057373047" r="64.33599853515625" fx="47.29100036621094" fy="-172.0590057373047"><stop offset="8%" stop-color="rgb(121,182,2)"/><stop offset="67%" stop-color="rgb(89,145,2)"/><stop offset="100%" stop-color="rgb(57,108,1)"/></radialGradient><radialGradient id="__lottie_element_35565" spreadMethod="pad" gradientUnits="userSpaceOnUse" cx="49.29100036621094" cy="-167.0590057373047" r="63.84300231933594" fx="49.29100036621094" fy="-167.0590057373047"><stop offset="0%" stop-color="rgb(202,250,96)"/><stop offset="64%" stop-color="rgb(137,193,48)"/><stop offset="100%" stop-color="rgb(72,135,1)"/></radialGradient><radialGradient id="__lottie_element_35569" spreadMethod="pad" gradientUnits="userSpaceOnUse" cx="76.29100036621094" cy="-203.0590057373047" r="56.063995361328125" fx="76.29100036621094" fy="-203.0590057373047"><stop offset="14%" stop-color="rgb(147,222,9)"/><stop offset="69%" stop-color="rgb(109,173,18)"/><stop offset="100%" stop-color="rgb(72,124,27)"/></radialGradient><radialGradient id="__lottie_element_35573" spreadMethod="pad" gradientUnits="userSpaceOnUse"><stop/><stop/><stop/><stop/><stop/></radialGradient><linearGradient id="__lottie_element_35587" spreadMethod="pad" gradientUnits="userSpaceOnUse" x1="2.2909998893737793" y1="127.94100189208984" x2="14.178999900817871" y2="58.9900016784668"><stop offset="0%" stop-color="rgb(255,242,54)"/><stop offset="50%" stop-color="rgb(253,198,60)"/><stop offset="100%" stop-color="rgb(252,154,67)"/></linearGradient><radialGradient id="__lottie_element_35614" spreadMethod="pad" gradientUnits="userSpaceOnUse" cx="15.258999824523926" cy="171.28799438476562" r="293.4150114059448" fx="15.258999824523926" fy="171.28799438476562"><stop offset="22%" stop-color="rgb(235,251,216)"/><stop offset="35%" stop-color="rgb(211,251,215)"/><stop offset="47%" stop-color="rgb(187,251,214)"/><stop offset="66%" stop-color="rgb(149,249,233)"/><stop offset="100%" stop-color="rgb(111,246,251)"/></radialGradient></defs><g clip-path="url(#__lottie_element_35541)"><g style="display: block;" transform="matrix(0.8500000238418579,0,0,0.8500000238418579,249.6999969482422,250.8000030517578)" opacity="1"><g opacity="1" transform="matrix(1,0,0,1,0,0)"><path fill="url(#__lottie_element_35614)" fill-opacity="1" d=" M-169.26800537109375,100.9520034790039 C-169.26800537109375,100.9520034790039 -180.1510009765625,103.60600280761719 -191.0260009765625,110.79900360107422 C-191.0260009765625,110.79900360107422 -219.093994140625,127.6729965209961 -209.52999877929688,161.8070068359375 C-198.58099365234375,200.88400268554688 -139.11700439453125,243.0679931640625 -41.237998962402344,248.7010040283203 C56.63999938964844,254.33399963378906 142.58200073242188,237.27200317382812 187.61399841308594,200.3769989013672 C227.85499572753906,167.40699768066406 207.0279998779297,127.41100311279297 198.39999389648438,117.52400207519531 C194.5449981689453,113.10700225830078 189.9499969482422,107.86499786376953 179.44900512695312,100.9520034790039"/></g><g opacity="1" transform="matrix(1,0,0,1,0,0)"><path fill="rgb(255,255,255)" fill-opacity="1" d=" M-66.62699890136719,138.5229949951172 C-21.207000732421875,138.843994140625 24.152999877929688,164.55599975585938 70.03299713134766,165.41600036621094 C106.01399993896484,166.08999633789062 105.29399871826172,150.2830047607422 122.7030029296875,144.75 C142.16900634765625,138.56300354003906 156.10000610351562,153.072998046875 178.08399963378906,150.86099243164062 C206.92999267578125,147.95899963378906 198.39999389648438,117.52400207519531 198.39999389648438,117.52400207519531 C194.5449981689453,113.10700225830078 190.1820068359375,107.4990005493164 179.44900512695312,100.9520034790039 C135.93800354003906,74.41100311279297 -144.5330047607422,93.23500061035156 -169.26800537109375,100.9520034790039 C-176.22500610351562,103.12300109863281 -180.1510009765625,103.60600280761719 -191.0260009765625,110.79900360107422 C-195.843994140625,132.31500244140625 -185.96099853515625,141.05499267578125 -168.82400512695312,143.79600524902344 C-142.79600524902344,147.9600067138672 -100.03399658203125,138.28700256347656 -66.62699890136719,138.5229949951172z"/></g><g opacity="0.6" transform="matrix(0.5,0,0,0.5,7,24)"><path fill="rgb(255,255,255)" fill-opacity="1" d=" M-314.6520080566406,396.97198486328125 C-315.0459899902344,400.74700927734375 -302.0459899902344,401.635009765625 -302.0459899902344,398.0820007324219 C-302.0459899902344,394.52899169921875 -314.3039855957031,393.635009765625 -314.6520080566406,396.97198486328125z M-340.9230041503906,386.1679992675781 C-342.7749938964844,390.5639953613281 -320.77801513671875,397.375 -319.6700134277344,393.0740051269531 C-318.56201171875,388.77301025390625 -339.2860107421875,382.2820129394531 -340.9230041503906,386.1679992675781z"/></g><g opacity="0.6" transform="matrix(0.5,0,0,0.5,7,-36)"><path fill="rgb(255,255,255)" fill-opacity="1" d=" M-254.072998046875,541.4409790039062 C-238.72999572753906,546.85400390625 -213.70199584960938,554.1530151367188 -201.3459930419922,555.843994140625 C-193.01699829101562,556.8270263671875 -178.91200256347656,561.8099975585938 -166.81399536132812,564.4099731445312 C-140.2530059814453,570.1170043945312 -115.17500305175781,572.2620239257812 -99.98500061035156,573.4910278320312 C-90.9219970703125,574.2239990234375 -65.40399932861328,575.427001953125 -54.02000045776367,575.3989868164062 C-37.8489990234375,575.3590087890625 -4.031000137329102,573.2899780273438 9.020000457763672,572.8309936523438 C22.590999603271484,572.35302734375 45.499000549316406,570.5460205078125 67.83799743652344,569.3350219726562 C88.49600219726562,568.2150268554688 111.62100219726562,562.8909912109375 135.86300659179688,561.18798828125 C154.94400024414062,559.8469848632812 160.91200256347656,556.9749755859375 170.99400329589844,555.5499877929688 C179.00799560546875,554.4169921875 185.0189971923828,552.2050170898438 190.30999755859375,551.1680297851562 C196.46099853515625,549.676025390625 208.5240020751953,545.5490112304688 216.58599853515625,540.5880126953125 C206.04200744628906,545.2109985351562 150.6230010986328,557.7930297851562 135.12100219726562,559.1890258789062 C123.34200286865234,560.25 115.13800048828125,560.0419921875 89.35600280761719,562.6500244140625 C68.93000030517578,564.7160034179688 42.11600112915039,568.0399780273438 16.025999069213867,566.8319702148438 C0.9150000214576721,566.1320190429688 -42.624000549316406,571.7139892578125 -71.63300323486328,570.4920043945312 C-135.67599487304688,567.7940063476562 -156.78599548339844,565.0339965820312 -192.4530029296875,555.6069946289062 C-211.49000549316406,550.5750122070312 -231.8719940185547,549.6649780273438 -254.072998046875,541.4409790039062z"/></g><g opacity="0.6" transform="matrix(0.5,0,0,0.5,201.5,27)"><path fill="rgb(255,255,255)" fill-opacity="1" d=" M-306.5299987792969,441.6419982910156 C-306.92401123046875,445.4169921875 -293.92401123046875,446.30499267578125 -293.92401123046875,442.75201416015625 C-293.92401123046875,439.1990051269531 -306.1820068359375,438.30499267578125 -306.5299987792969,441.6419982910156z M-337.489990234375,443.2850036621094 C-337.90899658203125,448.0360107421875 -314.8840026855469,447.7969970703125 -315.1440124511719,443.364013671875 C-315.40399169921875,438.9309997558594 -337.1189880371094,439.0849914550781 -337.489990234375,443.2850036621094z"/></g><g opacity="0.6" transform="matrix(0.5,0,0,0.5,7,-36)"><path fill="rgb(255,255,255)" fill-opacity="1" d=" M-254.072998046875,541.4409790039062 C-238.72999572753906,546.85400390625 -213.70199584960938,554.1530151367188 -201.3459930419922,555.843994140625 C-193.01699829101562,556.8270263671875 -178.91200256347656,561.8099975585938 -166.81399536132812,564.4099731445312 C-140.2530059814453,570.1170043945312 -115.17500305175781,572.2620239257812 -99.98500061035156,573.4910278320312 C-90.9219970703125,574.2239990234375 -65.40399932861328,575.427001953125 -54.02000045776367,575.3989868164062 C-37.8489990234375,575.3590087890625 -4.031000137329102,573.2899780273438 9.020000457763672,572.8309936523438 C22.590999603271484,572.35302734375 45.499000549316406,570.5460205078125 67.83799743652344,569.3350219726562 C88.49600219726562,568.2150268554688 111.62100219726562,562.8909912109375 135.86300659179688,561.18798828125 C154.94400024414062,559.8469848632812 160.91200256347656,556.9749755859375 170.99400329589844,555.5499877929688 C179.00799560546875,554.4169921875 185.0189971923828,552.2050170898438 190.30999755859375,551.1680297851562 C196.46099853515625,549.676025390625 208.5240020751953,545.5490112304688 216.58599853515625,540.5880126953125 C206.04200744628906,545.2109985351562 150.6230010986328,557.7930297851562 135.12100219726562,559.1890258789062 C123.34200286865234,560.25 115.13800048828125,560.0419921875 89.35600280761719,562.6500244140625 C68.93000030517578,564.7160034179688 42.11600112915039,568.0399780273438 16.025999069213867,566.8319702148438 C0.9150000214576721,566.1320190429688 -42.624000549316406,571.7139892578125 -71.63300323486328,570.4920043945312 C-135.67599487304688,567.7940063476562 -156.78599548339844,565.0339965820312 -192.4530029296875,555.6069946289062 C-211.49000549316406,550.5750122070312 -231.8719940185547,549.6649780273438 -254.072998046875,541.4409790039062z"/></g><g opacity="1" transform="matrix(0.5,0,0,0.5,7,-36)"><path stroke-linecap="round" stroke-linejoin="round" fill-opacity="0" stroke="rgb(134,232,209)" stroke-opacity="1" stroke-width="12" d=" M-145.5019989013672,562.8109741210938 C-136.7050018310547,563.4110107421875 -131.5919952392578,564.8410034179688 -123.98300170898438,565.926025390625"/></g><g opacity="1" transform="matrix(0.5,0,0,0.5,7,-36)"><path stroke-linecap="round" stroke-linejoin="round" fill-opacity="0" stroke="rgb(134,232,209)" stroke-opacity="1" stroke-width="12" d=" M-42.604000091552734,572.5789794921875 C-23.583999633789062,570.9240112304688 -4.802000045776367,569.4010009765625 14.220999717712402,570.1480102539062"/></g><g opacity="1" transform="matrix(0.5,0,0,0.5,7,-36)"><path stroke-linecap="round" stroke-linejoin="round" fill-opacity="0" stroke="rgb(134,232,209)" stroke-opacity="1" stroke-width="12" d=" M39.14500045776367,569.8740234375 C47.9900016784668,570.416015625 53.066001892089844,569.9080200195312 60.73400115966797,569.0159912109375"/></g><g opacity="0" transform="matrix(0.5,0,0,0.5,7,-36)"><path stroke-linecap="round" stroke-linejoin="round" fill-opacity="0" stroke="rgb(134,232,209)" stroke-opacity="1" stroke-width="12" d=" M134.7270050048828,408.4519958496094 C154.58900451660156,408.9939880371094 168.29400634765625,406.9639892578125 182.44700622558594,400.3599853515625"/></g><g opacity="0" transform="matrix(0.5,0,0,0.5,7,-36)"><path stroke-linecap="round" stroke-linejoin="round" fill-opacity="0" stroke="rgb(134,232,209)" stroke-opacity="1" stroke-width="12" d=" M-355.1210021972656,365.81298828125 C-343.3810119628906,367.3710021972656 -327.6449890136719,367.87799072265625 -317.0450134277344,367.87298583984375"/></g><g opacity="0" transform="matrix(0.5,0,0,0.5,7,-36)"><path stroke-linecap="round" stroke-linejoin="round" fill-opacity="0" stroke="rgb(134,232,209)" stroke-opacity="1" stroke-width="12" d=" M-226.76499938964844,548.843017578125 C-221.69900512695312,550.4409790039062 -214.81700134277344,551.7769775390625 -210.16000366210938,552.5"/></g><g opacity="0" transform="matrix(0.5,0,0,0.5,7,-36)"><path stroke-linecap="round" stroke-linejoin="round" fill-opacity="0" stroke="rgb(134,232,209)" stroke-opacity="1" stroke-width="12" d=" M317.947998046875,496.78900146484375 C330,494 336,489 347.9079895019531,478.7659912109375"/></g><g class="2" opacity="0" transform="matrix(0.5,0,0,0.5,7,-36)"><path stroke-linecap="round" stroke-linejoin="round" fill-opacity="0" stroke="rgb(134,232,209)" stroke-opacity="1" stroke-width="12" d=" M-108.02799987792969,564.344970703125 C-97.69100189208984,565.5020141601562 -90.32099914550781,566.073974609375 -83.28600311279297,565.7890014648438"/></g><g opacity="1" transform="matrix(1,0,0,1,-11,38)"><path fill="rgb(255,255,255)" fill-opacity="1" d=" M141.6719970703125,102.9749984741211 C141.6719970703125,103.95800018310547 140.00100708007812,104.75499725341797 137.93899536132812,104.75499725341797 C135.8769989013672,104.75499725341797 134.20599365234375,103.95800018310547 134.20599365234375,102.9749984741211 C134.20599365234375,101.99199676513672 135.8769989013672,101.19499969482422 137.93899536132812,101.19499969482422 C140.00100708007812,101.19499969482422 141.6719970703125,101.99199676513672 141.6719970703125,102.9749984741211z"/></g><g opacity="1" transform="matrix(1,0,0,1,0,28)"><path fill="rgb(255,255,255)" fill-opacity="1" d=" M-40.387001037597656,107.94599914550781 C-40.387001037597656,109.68000030517578 -43.279998779296875,111.08599853515625 -46.847999572753906,111.08599853515625 C-50.41600036621094,111.08599853515625 -53.30799865722656,109.68000030517578 -53.30799865722656,107.94599914550781 C-53.30799865722656,106.21199798583984 -50.41600036621094,104.80599975585938 -46.847999572753906,104.80599975585938 C-43.279998779296875,104.80599975585938 -40.387001037597656,106.21199798583984 -40.387001037597656,107.94599914550781z"/></g><g opacity="1" transform="matrix(1,0,0,1,0,26)"><path fill="rgb(255,255,255)" fill-opacity="1" d=" M-58.54999923706055,109.21199798583984 C-58.54999923706055,110.19499969482422 -60.22100067138672,110.99199676513672 -62.28300094604492,110.99199676513672 C-64.34500122070312,110.99199676513672 -66.01599884033203,110.19499969482422 -66.01599884033203,109.21199798583984 C-66.01599884033203,108.22899627685547 -64.34500122070312,107.43199920654297 -62.28300094604492,107.43199920654297 C-60.22100067138672,107.43199920654297 -58.54999923706055,108.22899627685547 -58.54999923706055,109.21199798583984z"/></g><g opacity="1" transform="matrix(1,0,0,1,0,0)"><path stroke-linecap="round" stroke-linejoin="round" fill-opacity="0" stroke="rgb(11,191,214)" stroke-opacity="1" stroke-width="8" d=" M-169.26800537109375,100.9520034790039 C-169.26800537109375,100.9520034790039 -180.1510009765625,103.60600280761719 -191.0260009765625,110.79900360107422 C-191.0260009765625,110.79900360107422 -219.093994140625,127.6729965209961 -209.52999877929688,161.8070068359375 C-198.58099365234375,200.88400268554688 -139.11700439453125,243.0679931640625 -41.237998962402344,248.7010040283203 C56.63999938964844,254.33399963378906 142.58200073242188,237.27200317382812 187.61399841308594,200.3769989013672 C227.85499572753906,167.40699768066406 207.0279998779297,127.41100311279297 198.39999389648438,117.52400207519531 C194.5449981689453,113.10700225830078 189.9499969482422,107.86499786376953 179.44900512695312,100.9520034790039"/></g></g><g style="display: block;" transform="matrix(0.8500000238418579,0,0,0.8500000238418579,249.6999969482422,250.8000030517578)" opacity="1"><g opacity="1" transform="matrix(1,0,0,1,0,0)"><path fill="url(#__lottie_element_35587)" fill-opacity="1" d=" M-172.44700622558594,124.31800079345703 C-177.218994140625,119.51499938964844 -175.99600219726562,110.91300201416016 -169.31900024414062,101.0270004272461 C-158.8350067138672,85.50399780273438 -134.906005859375,66.81700134277344 -99.63099670410156,54.70000076293945 C-41.88999938964844,34.867000579833984 57.275001525878906,26.243999481201172 120.2239990234375,54.70000076293945 C153.86099243164062,69.90599822998047 171.58099365234375,86.62999725341797 179.41600036621094,100.9010009765625 C186.2429962158203,113.33599853515625 185.56500244140625,123.90799713134766 181.37100219726562,129.98899841308594 C172.36500549316406,143.04800415039062 144.73800659179688,130.8780059814453 128.75100708007812,130.95700073242188 C114.22899627685547,131.0290069580078 112.4729995727539,141.2469940185547 87.70600128173828,146.6510009765625 C62.93899917602539,152.05499267578125 25.201000213623047,139.44900512695312 -12.538000106811523,131.9239959716797 C-48.67399978637695,124.71900177001953 -71.38500213623047,122.41100311279297 -123.49199676513672,127.80400085449219 C-152.82699584960938,130.83999633789062 -164.57699584960938,132.24099731445312 -172.44700622558594,124.31800079345703z"/></g><g opacity="0.3" transform="matrix(1,0,0,1,0,0)"><path fill="rgb(196,98,0)" fill-opacity="1" d=" M181.3719940185547,129.98599243164062 C172.36599731445312,143.0449981689453 142.1959991455078,131.7949981689453 127.78299713134766,129.98599243164062 C113.37000274658203,128.18699645996094 112.46199798583984,141.2100067138672 87.70600128173828,146.6529998779297 C57.25699996948242,153.34800720214844 4.960999965667725,132.51400756835938 -12.538000106811523,129.02200317382812 C4.554999828338623,132.17599487304688 73.29100036621094,148.13099670410156 96.56400299072266,130.4510040283203 C116.31600189208984,115.44599914550781 121.13700103759766,114.1989974975586 156.39599609375,116.82099914550781 C181.83900451660156,118.71299743652344 178.17100524902344,100.39600372314453 174.6009979248047,93.50900268554688 C186.3730010986328,109.08300018310547 186.3730010986328,122.73100280761719 181.3719940185547,129.98599243164062z"/></g><g opacity="0.3" transform="matrix(1,0,0,1,0,0)"><path fill="rgb(93,43,0)" fill-opacity="1" d=" M-97.13099670410156,53.856998443603516 C-103.4749984741211,56.13600158691406 -108.87200164794922,67.71700286865234 -85.59200286865234,65.30899810791016 C-62.3120002746582,62.9010009765625 -50.61600112915039,59.66400146484375 -46.19499969482422,64.2760009765625 C-41.77399826049805,68.88800048828125 -41.775001525878906,78.2979965209961 -11.656999588012695,67.35199737548828 C18.461000442504883,56.40599822998047 53.448001861572266,69.30500030517578 65.38700103759766,67.91699981689453 C77.32599639892578,66.52899932861328 63.215999603271484,52.04199981689453 80.03900146484375,57.38600158691406 C96.86199951171875,62.72999954223633 160.27000427246094,77.69100189208984 131.00799560546875,59.900001525878906 C101.74600219726562,42.10900115966797 4.630000114440918,17.308000564575195 -97.13099670410156,53.856998443603516z"/></g><g opacity="1" transform="matrix(1,0,0,1,0,0)"><path stroke-linecap="round" stroke-linejoin="round" fill-opacity="0" stroke="rgb(229,163,0)" stroke-opacity="1" stroke-width="8" d=" M-172.44700622558594,124.31800079345703 C-177.218994140625,119.51499938964844 -175.99600219726562,110.91300201416016 -169.31900024414062,101.0270004272461 C-158.8350067138672,85.50399780273438 -134.906005859375,66.81700134277344 -99.63099670410156,54.70000076293945 C-41.88999938964844,34.867000579833984 57.275001525878906,26.243999481201172 120.2239990234375,54.70000076293945 C153.86099243164062,69.90599822998047 171.58099365234375,86.62999725341797 179.41600036621094,100.9010009765625 C186.2429962158203,113.33599853515625 185.56500244140625,123.90799713134766 181.37100219726562,129.98899841308594 C172.36500549316406,143.04800415039062 144.73800659179688,130.8780059814453 128.75100708007812,130.95700073242188 C114.22899627685547,131.0290069580078 112.4729995727539,141.2469940185547 87.70600128173828,146.6510009765625 C62.93899917602539,152.05499267578125 25.201000213623047,139.44900512695312 -12.538000106811523,131.9239959716797 C-48.67399978637695,124.71900177001953 -71.38500213623047,122.41100311279297 -123.49199676513672,127.80400085449219 C-152.82699584960938,130.83999633789062 -164.57699584960938,132.24099731445312 -172.44700622558594,124.31800079345703z"/></g><g opacity="1" transform="matrix(1,0,0,1,0,0)"><path stroke-linecap="round" stroke-linejoin="round" fill-opacity="0" stroke="rgb(196,98,0)" stroke-opacity="1" stroke-width="8" d=" M5.394000053405762,36.68199920654297 C46.215999603271484,35.275001525878906 87.9729995727539,40.12099838256836 120.2239990234375,54.70000076293945 C153.86099243164062,69.90599822998047 171.58099365234375,86.62999725341797 179.41600036621094,100.9010009765625 C186.2429962158203,113.33599853515625 185.56500244140625,123.90799713134766 181.37100219726562,129.98899841308594 C172.36500549316406,143.04800415039062 144.73800659179688,130.8780059814453 128.75100708007812,130.95700073242188 C114.51599884033203,131.0279998779297 112.5469970703125,140.8470001220703 89.14900207519531,146.3249969482422"/></g><g opacity="1" transform="matrix(1,0,0,1,0,0)"><path stroke-linecap="round" stroke-linejoin="round" fill-opacity="0" stroke="rgb(150,83,23)" stroke-opacity="1" stroke-width="8" d=" M-99.7770004272461,54.75 C-99.72799682617188,54.733001708984375 -99.68000030517578,54.71699905395508 -99.63099670410156,54.70000076293945 C-41.88999938964844,34.867000579833984 57.2760009765625,26.243999481201172 120.2239990234375,54.70000076293945 C126.20899963378906,57.404998779296875 131.6699981689453,60.16999816894531 136.6510009765625,62.965999603271484"/></g><g opacity="0.2" transform="matrix(1,0,0,1,0,0)"><path stroke-linecap="round" stroke-linejoin="round" fill-opacity="0" stroke="rgb(11,191,214)" stroke-opacity="1" stroke-width="8" d=" M179.16400146484375,100.4469985961914 C179.24899291992188,100.5979995727539 179.33299255371094,100.75 179.41600036621094,100.9010009765625 C186.2429962158203,113.33599853515625 185.56500244140625,123.90799713134766 181.37100219726562,129.98899841308594 C172.36500549316406,143.04800415039062 144.73800659179688,130.8780059814453 128.75100708007812,130.95700073242188 C114.22899627685547,131.0290069580078 112.4729995727539,141.2469940185547 87.70600128173828,146.6510009765625 C62.93899917602539,152.05499267578125 25.201000213623047,139.44900512695312 -12.538000106811523,131.9239959716797 C-48.67399978637695,124.71900177001953 -71.38500213623047,122.41100311279297 -123.49199676513672,127.80400085449219 C-152.82699584960938,130.83999633789062 -164.57699584960938,132.24099731445312 -172.44700622558594,124.31800079345703 C-172.44700622558594,124.31800079345703 -172.44700622558594,124.31800079345703 -172.44700622558594,124.31800079345703 C-177.13900756835938,119.59600067138672 -176.03599548339844,111.2020034790039 -169.65199279785156,101.5260009765625"/></g></g><g style="display: block;" transform="matrix(0.8500000238418579,0,0,0.8500000238418579,245.38540649414062,232.24705505371094)" opacity="1"><g opacity="0" transform="matrix(1,0,0,1,-0.5080000162124634,0)"><path fill="rgb(196,98,0)" fill-opacity="0.3" d=" M24.319000244140625,98.38899993896484 C23.868000030517578,102.53600311279297 42.43299865722656,103.12300109863281 42.527000427246094,99.1259994506836 C42.67100143432617,92.99299621582031 24.770000457763672,94.24199676513672 24.319000244140625,98.38899993896484z"/></g></g><g style="display: block;" transform="matrix(0.4220399260520935,-0.08970735222101212,0.08970735222101212,0.4220399260520935,335.42657470703125,316.494873046875)" opacity="1"><g opacity="0" transform="matrix(1,0,0,1,0,0)"><path stroke-linecap="round" stroke-linejoin="round" fill-opacity="0" stroke="rgb(160,44,13)" stroke-opacity="0" stroke-width="8" d=" M-49.459999084472656,125.19000244140625 C-47.51100158691406,129.3679962158203 -43.457000732421875,131.65499877929688 -40.41899871826172,131.46499633789062 M-44.47999954223633,120.84700012207031 C-38.40999984741211,125.13700103759766 -36.382999420166016,138.67799377441406 -52.840999603271484,142.08900451660156"/></g><g opacity="1" transform="matrix(-1,0,0,1,-169,0)"><path stroke-linecap="round" stroke-linejoin="round" fill-opacity="0" stroke="rgb(160,44,13)" stroke-opacity="1" stroke-width="8" d=" M-49.459999084472656,125.19000244140625 C-47.51100158691406,129.3679962158203 -43.457000732421875,131.65499877929688 -40.41899871826172,131.46499633789062 M-44.47999954223633,120.84700012207031 C-38.40999984741211,125.13700103759766 -36.382999420166016,138.67799377441406 -52.840999603271484,142.08900451660156"/></g><g opacity="0" transform="matrix(1,0,0,1,0,0)"><path stroke-linecap="round" stroke-linejoin="round" fill-opacity="0" stroke="rgb(160,44,13)" stroke-opacity="1" stroke-width="8" d=" M-42.96200180053711,150.9720001220703 C-42.96200180053711,150.9720001220703 -33.08300018310547,142.4980010986328 -33.08300018310547,142.4980010986328 C-33.08300018310547,142.4980010986328 -26.562000274658203,153.197998046875 -26.562000274658203,153.197998046875"/></g><g opacity="0" transform="matrix(1,0,0,1,0,0)"><path stroke-linecap="round" stroke-linejoin="round" fill-opacity="0" stroke="rgb(160,44,13)" stroke-opacity="1" stroke-width="8" d=" M-46.31999969482422,165.93899536132812 C-46.31999969482422,165.93899536132812 -32.86899948120117,160.8300018310547 -32.86899948120117,160.8300018310547 C-32.86899948120117,160.8300018310547 -16.54199981689453,169.60699462890625 -16.54199981689453,169.60699462890625"/></g><g opacity="0" transform="matrix(1,0,0,1,1,0)"><path stroke-linecap="round" stroke-linejoin="round" fill-opacity="0" stroke="rgb(160,44,13)" stroke-opacity="1" stroke-width="8" d=" M-134.843994140625,172.42799377441406 C-134.843994140625,172.42799377441406 -134.5449981689453,153.8280029296875 -134.5449981689453,153.8280029296875 C-134.5449981689453,153.8280029296875 -122.53199768066406,161.40699768066406 -122.53199768066406,161.40699768066406"/></g><g opacity="0" transform="matrix(1,0,0,1,1,0)"><path stroke-linecap="round" stroke-linejoin="round" fill-opacity="0" stroke="rgb(160,44,13)" stroke-opacity="1" stroke-width="8" d=" M-159.39999389648438,160.14100646972656 C-159.39999389648438,160.14100646972656 -139.11000061035156,149.1280059814453 -139.11000061035156,149.1280059814453 C-139.11000061035156,149.1280059814453 -125.14299774169922,148.53900146484375 -125.14299774169922,148.53900146484375"/></g><g opacity="0" transform="matrix(1,0,0,1,-83,154)"><path fill="rgb(200,69,39)" fill-opacity="1" d=" M-0.5,-23.5 C22.143999099731445,-23.5 42.13100051879883,-14.3149995803833 41,0 C40.57400131225586,5.392000198364258 19.04800033569336,5.184000015258789 8.864999771118164,2.4010000228881836 C-12.977999687194824,-3.568000078201294 -41.573001861572266,-6.849999904632568 -39.99100112915039,-14.77299976348877 C-38.332000732421875,-23.07900047302246 -23.143999099731445,-23.5 -0.5,-23.5z"/><path stroke-linecap="butt" stroke-linejoin="miter" fill-opacity="0" stroke-miterlimit="4" stroke="rgb(160,44,13)" stroke-opacity="1" stroke-width="12" d=" M-0.5,-23.5 C22.143999099731445,-23.5 42.13100051879883,-14.3149995803833 41,0 C40.57400131225586,5.392000198364258 19.04800033569336,5.184000015258789 8.864999771118164,2.4010000228881836 C-12.977999687194824,-3.568000078201294 -41.573001861572266,-6.849999904632568 -39.99100112915039,-14.77299976348877 C-38.332000732421875,-23.07900047302246 -23.143999099731445,-23.5 -0.5,-23.5z"/></g><g opacity="0" transform="matrix(1,0,0,1,0,0)"><path fill="rgb(231,85,51)" fill-opacity="1" d=" M-66.00499725341797,121.37799835205078 C-66.00499725341797,121.37799835205078 -66.87699890136719,124.26000213623047 -66.87699890136719,124.26000213623047 C-66.87699890136719,124.26000213623047 -66.00499725341797,121.37799835205078 -66.00499725341797,121.37799835205078z M-104.64800262451172,120.87899780273438 C-104.64800262451172,120.87899780273438 -103.10600280761719,124.58100128173828 -103.10600280761719,124.58100128173828 C-103.10600280761719,124.58100128173828 -104.64800262451172,120.87899780273438 -104.64800262451172,120.87899780273438z"/><path stroke-linecap="round" stroke-linejoin="round" fill-opacity="0" stroke="rgb(80,22,0)" stroke-opacity="1" stroke-width="12" d=" M-66.00499725341797,121.37799835205078 C-66.00499725341797,121.37799835205078 -66.87699890136719,124.26000213623047 -66.87699890136719,124.26000213623047 C-66.87699890136719,124.26000213623047 -66.00499725341797,121.37799835205078 -66.00499725341797,121.37799835205078z M-104.64800262451172,120.87899780273438 C-104.64800262451172,120.87899780273438 -103.10600280761719,124.58100128173828 -103.10600280761719,124.58100128173828 C-103.10600280761719,124.58100128173828 -104.64800262451172,120.87899780273438 -104.64800262451172,120.87899780273438z"/></g><g opacity="0" transform="matrix(1,0,0,1,0,0)"><path fill="rgb(231,85,51)" fill-opacity="1" d=" M-60.6879997253418,158.0760040283203 C-60.6879997253418,158.0760040283203 -62.29800033569336,161.21299743652344 -62.29800033569336,161.21299743652344 C-62.29800033569336,161.21299743652344 -60.6879997253418,158.0760040283203 -60.6879997253418,158.0760040283203z M-97.56800079345703,161.6230010986328 C-97.56800079345703,161.6230010986328 -99.77300262451172,158.98199462890625 -99.77300262451172,158.98199462890625 C-99.77300262451172,158.98199462890625 -97.56800079345703,161.6230010986328 -97.56800079345703,161.6230010986328z"/><path stroke-linecap="round" stroke-linejoin="round" fill-opacity="0" stroke="rgb(80,22,0)" stroke-opacity="1" stroke-width="12" d=" M-60.6879997253418,158.0760040283203 C-60.6879997253418,158.0760040283203 -62.29800033569336,161.21299743652344 -62.29800033569336,161.21299743652344 C-62.29800033569336,161.21299743652344 -60.6879997253418,158.0760040283203 -60.6879997253418,158.0760040283203z M-97.56800079345703,161.6230010986328 C-97.56800079345703,161.6230010986328 -99.77300262451172,158.98199462890625 -99.77300262451172,158.98199462890625 C-99.77300262451172,158.98199462890625 -97.56800079345703,161.6230010986328 -97.56800079345703,161.6230010986328z"/></g><g opacity="0" transform="matrix(1,0,0,1,0,0)"><path fill="rgb(249,125,79)" fill-opacity="1" d=" M-101.47100067138672,148.5679931640625 C-101.68000030517578,162.31399536132812 -53.11000061035156,162.6280059814453 -53.59299850463867,152.06900024414062 C-54.07600021362305,141.50999450683594 -101.26100158691406,134.82200622558594 -101.47100067138672,148.5679931640625z"/></g></g><g style="display: block;" transform="matrix(0.8500000238418579,0,0,0.8500000238418579,249.6999969482422,250.8000030517578)" opacity="0.99"><g opacity="1" transform="matrix(1,0,0,1,0,0)"><path fill="rgb(255,255,255)" fill-opacity="1" d=" M-3.121999979019165,150.4250030517578 C21.173999786376953,157.4080047607422 45.52899932861328,164.95700073242188 70.03299713134766,165.41600036621094 C106.01399993896484,166.08999633789062 105.29399871826172,150.2830047607422 122.7030029296875,144.75 C142.16900634765625,138.56300354003906 126.24099731445312,127.60299682617188 116.9489974975586,133.95199584960938 C92,151 72.5,154 -0.49799999594688416,134.41400146484375 C-21.867000579833984,128.68099975585938 -12.473999977111816,147.73699951171875 -3.121999979019165,150.4250030517578z"/><path fill="rgb(255,255,255)" fill-opacity="1" d=" M-3.121999979019165,150.4250030517578 C21.173999786376953,157.4080047607422 45.52899932861328,164.95700073242188 70.03299713134766,165.41600036621094 C106.01399993896484,166.08999633789062 105.29399871826172,150.2830047607422 122.7030029296875,144.75 C142.16900634765625,138.56300354003906 126.24099731445312,127.60299682617188 116.9489974975586,133.95199584960938 C92,151 72.5,154 -0.49799999594688416,134.41400146484375 C-21.867000579833984,128.68099975585938 -12.473999977111816,147.73699951171875 -3.121999979019165,150.4250030517578z"/></g><g opacity="1" transform="matrix(1,0,0,1,0,0)"><path stroke-linecap="butt" stroke-linejoin="miter" fill-opacity="0" stroke-miterlimit="4" stroke="rgb(229,163,0)" stroke-opacity="1" stroke-width="2" d=" M-172.44700622558594,124.31800079345703 C-177.218994140625,119.51499938964844 -175.99600219726562,110.91300201416016 -169.31900024414062,101.0270004272461 C-158.8350067138672,85.50399780273438 -134.906005859375,66.81700134277344 -99.63099670410156,54.70000076293945 C-41.88999938964844,34.867000579833984 57.275001525878906,26.243999481201172 120.2239990234375,54.70000076293945 C153.86099243164062,69.90599822998047 171.58099365234375,86.62999725341797 179.41600036621094,100.9010009765625 C186.2429962158203,113.33599853515625 185.56500244140625,123.90799713134766 181.37100219726562,129.98899841308594 C172.36500549316406,143.04800415039062 144.73800659179688,130.8780059814453 128.75100708007812,130.95700073242188 C114.22899627685547,131.0290069580078 112.4729995727539,141.2469940185547 87.70600128173828,146.6510009765625 C62.93899917602539,152.05499267578125 25.201000213623047,139.44900512695312 -12.538000106811523,131.9239959716797 C-48.67399978637695,124.71900177001953 -71.38500213623047,122.41100311279297 -123.49199676513672,127.80400085449219 C-152.82699584960938,130.83999633789062 -164.57699584960938,132.24099731445312 -172.44700622558594,124.31800079345703z"/><path stroke-linecap="round" stroke-linejoin="round" fill-opacity="0" stroke="rgb(229,163,0)" stroke-opacity="1" stroke-width="8" d=" M-172.44700622558594,124.31800079345703 C-177.218994140625,119.51499938964844 -175.99600219726562,110.91300201416016 -169.31900024414062,101.0270004272461 C-158.8350067138672,85.50399780273438 -134.906005859375,66.81700134277344 -99.63099670410156,54.70000076293945 C-41.88999938964844,34.867000579833984 57.275001525878906,26.243999481201172 120.2239990234375,54.70000076293945 C153.86099243164062,69.90599822998047 171.58099365234375,86.62999725341797 179.41600036621094,100.9010009765625 C186.2429962158203,113.33599853515625 185.56500244140625,123.90799713134766 181.37100219726562,129.98899841308594 C172.36500549316406,143.04800415039062 144.73800659179688,130.8780059814453 128.75100708007812,130.95700073242188 C114.22899627685547,131.0290069580078 112.4729995727539,141.2469940185547 87.70600128173828,146.6510009765625 C62.93899917602539,152.05499267578125 25.201000213623047,139.44900512695312 -12.538000106811523,131.9239959716797 C-48.67399978637695,124.71900177001953 -71.38500213623047,122.41100311279297 -123.49199676513672,127.80400085449219 C-152.82699584960938,130.83999633789062 -164.57699584960938,132.24099731445312 -172.44700622558594,124.31800079345703z"/></g><g opacity="1" transform="matrix(1,0,0,1,0,0)"><path stroke-linecap="round" stroke-linejoin="round" fill-opacity="0" stroke="rgb(196,98,0)" stroke-opacity="1" stroke-width="8" d=" M33.553001403808594,36.744998931884766 C64.9020004272461,38.01499938964844 95.38300323486328,43.47100067138672 120.2239990234375,54.70000076293945 C153.86099243164062,69.90599822998047 171.58099365234375,86.62999725341797 179.41600036621094,100.9010009765625 C186.2429962158203,113.33599853515625 185.56500244140625,123.90799713134766 181.37100219726562,129.98899841308594 C172.36500549316406,143.04800415039062 144.73800659179688,130.8780059814453 128.75100708007812,130.95700073242188 C114.51599884033203,131.0279998779297 112.5469970703125,140.8470001220703 89.14900207519531,146.3249969482422"/></g><g opacity="1" transform="matrix(1,0,0,1,0,0)"><path stroke-linecap="round" stroke-linejoin="round" fill-opacity="0" stroke="rgb(150,83,23)" stroke-opacity="1" stroke-width="8" d=" M-99.7770004272461,54.75 C-99.72799682617188,54.733001708984375 -99.68000030517578,54.71699905395508 -99.63099670410156,54.70000076293945 C-41.88999938964844,34.867000579833984 57.2760009765625,26.243999481201172 120.2239990234375,54.70000076293945 C126.20899963378906,57.404998779296875 131.6699981689453,60.16999816894531 136.6510009765625,62.965999603271484"/></g><g opacity="0.2" transform="matrix(1,0,0,1,0,0)"><path stroke-linecap="round" stroke-linejoin="round" fill-opacity="0" stroke="rgb(11,191,214)" stroke-opacity="1" stroke-width="8" d=" M179.16400146484375,100.4469985961914 C179.24899291992188,100.5979995727539 179.33299255371094,100.75 179.41600036621094,100.9010009765625 C186.2429962158203,113.33599853515625 185.56500244140625,123.90799713134766 181.37100219726562,129.98899841308594 C172.36500549316406,143.04800415039062 144.73800659179688,130.8780059814453 128.75100708007812,130.95700073242188 C114.22899627685547,131.0290069580078 112.4729995727539,141.2469940185547 87.70600128173828,146.6510009765625 C62.93899917602539,152.05499267578125 25.201000213623047,139.44900512695312 -12.538000106811523,131.9239959716797 C-48.67399978637695,124.71900177001953 -71.38500213623047,122.41100311279297 -123.49199676513672,127.80400085449219 C-152.82699584960938,130.83999633789062 -164.57699584960938,132.24099731445312 -172.44700622558594,124.31800079345703 C-172.44700622558594,124.31800079345703 -172.44700622558594,124.31800079345703 -172.44700622558594,124.31800079345703 C-177.13900756835938,119.59600067138672 -176.03599548339844,111.2020034790039 -169.65199279785156,101.5260009765625"/></g></g><g style="display: block;" transform="matrix(0.8500000238418579,0,0,0.8500000238418579,249.6999969482422,250.8000030517578)" opacity="1"><g opacity="1" transform="matrix(1,0,0,1,0,0)"><path fill="rgb(175,115,28)" fill-opacity="1" d=" M28.520999908447266,51.83100128173828 C28.520999908447266,51.83100128173828 22.76099967956543,31.47100067138672 21.968000411987305,28.898000717163086 C19.349000930786133,25.35300064086914 -1.2389999628067017,11.470999717712402 -15.08899974822998,13.854000091552734 C-16.88599967956543,19.35300064086914 -17.92099952697754,30.364999771118164 -27.8439998626709,54.69200134277344"/></g><g opacity="0.4" transform="matrix(1,0,0,1,0,0)"><path fill="rgb(255,189,95)" fill-opacity="1" d=" M-11.486000061035156,51.152000427246094 C-10.885000228881836,47.5880012512207 -7.236999988555908,23.430999755859375 3.436000108718872,25.358999252319336 C13.819999694824219,27.235000610351562 14.76099967956543,45.470001220703125 14.946999549865723,50.119998931884766 C14.946999549865723,50.119998931884766 -8.29699993133545,50.52899932861328 -11.486000061035156,51.152000427246094z"/></g><g opacity="0.4" transform="matrix(1,0,0,1,0,0)"><path fill="rgb(65,33,0)" fill-opacity="1" d=" M9.088000297546387,41.55099868774414 C9.088000297546387,41.55099868774414 9.802000045776367,24.10300064086914 9.802000045776367,24.10300064086914 C9.802000045776367,24.10300064086914 6.754000186920166,37.189998626708984 6.754000186920166,37.189998626708984 C6.3429999351501465,38.81100082397461 4.561999797821045,39.321998596191406 3.065999984741211,38.57400131225586 C-5.375999927520752,34.354000091552734 -15.590999603271484,32.51599884033203 -19.430999755859375,41.393001556396484 C-20.04800033569336,32.40800094604492 -15.08899974822998,13.854999542236328 -15.08899974822998,13.854999542236328 C5.4710001945495605,13.21399974822998 21.965999603271484,28.898000717163086 21.965999603271484,28.898000717163086 C21.965999603271484,28.898000717163086 23.70199966430664,49.70600128173828 23.70199966430664,49.70600128173828 C20.996000289916992,44.88199996948242 13.043999671936035,45.104000091552734 10.348999977111816,43.6619987487793 C9.569999694824219,43.244998931884766 9.088000297546387,42.435001373291016 9.088000297546387,41.55099868774414z"/></g><g opacity="1" transform="matrix(1,0,0,1,0,0)"><path stroke-linecap="round" stroke-linejoin="round" fill-opacity="0" stroke="rgb(91,40,1)" stroke-opacity="1" stroke-width="8" d=" M28.520999908447266,51.83100128173828 C28.520999908447266,51.83100128173828 22.76099967956543,31.47100067138672 21.968000411987305,28.898000717163086 C19.349000930786133,25.35300064086914 -1.2389999628067017,11.470999717712402 -15.08899974822998,13.854000091552734 C-16.88599967956543,19.35300064086914 -17.92099952697754,30.364999771118164 -27.8439998626709,54.69200134277344"/></g><g opacity="1" transform="matrix(1,0,0,1,0,0)"><path stroke-linecap="round" stroke-linejoin="round" fill-opacity="0" stroke="rgb(150,83,23)" stroke-opacity="1" stroke-width="8" d=" M28.520999908447266,51.83100128173828 C-2.4149999618530273,46.52899932861328 -21.35700035095215,53.117000579833984 -27.8439998626709,54.69200134277344"/></g></g><g style="display: block;" transform="matrix(0.8500000238418579,0,0,0.8500000238418579,249.80795288085938,250.8000030517578)" opacity="1"><g opacity="1" transform="matrix(1,0,0,1,0,0)"><path fill="rgb(175,115,28)" fill-opacity="1" d=" M-5.559999942779541,-25.197999954223633 C-5.559999942779541,-25.197999954223633 -20.072999954223633,9.829999923706055 -22.20400047302246,20.2549991607666 C-5.171999931335449,18.624000549316406 16.274999618530273,29.0310001373291 29.01099967956543,44.90299987792969 C29.01099967956543,44.90299987792969 29.969999313354492,13.213000297546387 24.52899932861328,-4.711999893188477 C19.086999893188477,-22.636999130249023 -5.559999942779541,-25.197999954223633 -5.559999942779541,-25.197999954223633z"/></g><g opacity="0.4" transform="matrix(1,0,0,1,0,0)"><path fill="rgb(255,189,95)" fill-opacity="1" d=" M9.802000045776367,31.13599967956543 C9.802000045776367,31.13599967956543 9.802000045776367,16.72800064086914 9.802000045776367,16.72800064086914 C9.802000045776367,16.72800064086914 3.7209999561309814,27.617000579833984 3.7209999561309814,27.617000579833984 C-0.49000000953674316,24.07200050354004 -2.805000066757202,22.732999801635742 -6.76200008392334,21.667999267578125 C-1.5549999475479126,4.304999828338623 0.0430000014603138,-14.708000183105469 8.565999984741211,-5.38100004196167 C15.770999908447266,2.503000020980835 17.540000915527344,18.524999618530273 17.538999557495117,35.76599884033203 C11.621999740600586,31.479000091552734 9.802000045776367,31.13599967956543 9.802000045776367,31.13599967956543z"/></g><g opacity="0.4" transform="matrix(1,0,0,1,0,0)"><path fill="rgb(188,144,68)" fill-opacity="1" d=" M4.988999843597412,21.18600082397461 C4.988999843597412,21.18600082397461 3.7209999561309814,27.617000579833984 3.7209999561309814,27.617000579833984 C-8.442000389099121,17.375 -22.204999923706055,20.253999710083008 -22.204999923706055,20.253999710083008 C-21.525999069213867,18.003000259399414 -20.297000885009766,16.64699935913086 -19.430999755859375,15.378000259399414 C-15.651000022888184,12.970999717712402 -5.468999862670898,12.376999855041504 4.988999843597412,21.18600082397461z"/></g><g opacity="0.3" transform="matrix(1,0,0,1,0,0)"><path fill="rgb(188,144,68)" fill-opacity="1" d=" M29.01099967956543,44.90399932861328 C18.128000259399414,34.979000091552734 9.802000045776367,31.13599967956543 9.802000045776367,31.13599967956543 C9.802000045776367,31.13599967956543 9.802000045776367,23.80500030517578 9.802000045776367,23.80500030517578 C9.802000045776367,23.80500030517578 25.78700065612793,32.79100036621094 28.663000106811523,39.340999603271484 C28.996999740600586,41.941001892089844 29.01099967956543,44.90399932861328 29.01099967956543,44.90399932861328z"/></g><g opacity="0.4" transform="matrix(1,0,0,1,0,0)"><path fill="rgb(65,33,0)" fill-opacity="1" d=" M26.826000213623047,34.8849983215332 C26.05500030517578,20.41200065612793 17.402000427246094,15.706999778747559 -2.619999885559082,-0.3580000102519989 C-9.081000328063965,-5.541999816894531 -13.590999603271484,1.6069999933242798 -13.590999603271484,1.6069999933242798 C-12.532999992370605,-5.4710001945495605 -5.558000087738037,-25.197999954223633 -5.558000087738037,-25.197999954223633 C-5.558000087738037,-25.197999954223633 19.086999893188477,-22.63599967956543 24.527999877929688,-4.714000225067139 C27.400999069213867,4.748000144958496 29.076000213623047,24.261999130249023 26.826000213623047,34.8849983215332z"/></g><g opacity="1" transform="matrix(1,0,0,1,0,0)"><path stroke-linecap="round" stroke-linejoin="round" fill-opacity="0" stroke="rgb(86,37,1)" stroke-opacity="1" stroke-width="8" d=" M29.01099967956543,44.90299987792969 C29.01099967956543,44.90299987792969 29.969999313354492,13.213000297546387 24.52899932861328,-4.711999893188477 C19.086999893188477,-22.636999130249023 -5.559999942779541,-25.197999954223633 -5.559999942779541,-25.197999954223633 C-5.559999942779541,-25.197999954223633 -13.881999969482422,-7.2729997634887695 -22.20400047302246,20.2549991607666"/></g><g opacity="1" transform="matrix(1,0,0,1,0,0)"><path stroke-linecap="round" stroke-linejoin="round" fill-opacity="0" stroke="rgb(58,26,5)" stroke-opacity="1" stroke-width="8" d=" M-22.20400047302246,20.2549991607666 C-22.20400047302246,20.2549991607666 -8.440999984741211,17.375 3.7230000495910645,27.618000030517578 C3.7230000495910645,27.618000030517578 9.805000305175781,16.729000091552734 9.805000305175781,16.729000091552734 C9.805000305175781,16.729000091552734 9.805000305175781,31.138999938964844 9.805000305175781,31.138999938964844 C9.805000305175781,31.138999938964844 18.128000259399414,34.97999954223633 29.01099967956543,44.90299987792969"/></g></g><g style="display: block;" transform="matrix(0.8500000238418579,0,0,0.8500000238418579,249.80795288085938,250.8000030517578)" opacity="1"><g opacity="1" transform="matrix(1,0,0,1,0,0)"><path fill="rgb(138,86,20)" fill-opacity="1" d=" M-13.590999603271484,-13.151000022888184 C-13.590999603271484,-13.151000022888184 -9.156000137329102,-16.92099952697754 -3.390000104904175,-14.038000106811523 C2.375999927520752,-11.154999732971191 31.871000289916992,22.55299949645996 31.871000289916992,22.55299949645996 C31.871000289916992,22.55299949645996 31.69499969482422,-34.441001892089844 29.01099967956543,-43.97700119018555 C26.32699966430664,-53.51300048828125 10.803999900817871,-70.1449966430664 -6.716000080108643,-58.612998962402344 C-6.716000080108643,-58.612998962402344 -10.930000305175781,-32.66699981689453 -13.590999603271484,-13.151000022888184z"/></g><g opacity="0.2" transform="matrix(1,0,0,1,0,0)"><path fill="rgb(255,189,95)" fill-opacity="1" d=" M18.687000274658203,7.823999881744385 C11.10200023651123,-0.5149999856948853 0.8790000081062317,-11.470999717712402 -1.555999994277954,-12.767999649047852 C1.1139999628067017,-28.64699935913086 4.921999931335449,-56.79399871826172 9.140000343322754,-53.22600173950195 C20.020999908447266,-44.02199935913086 19.42300033569336,-28.667999267578125 18.687000274658203,7.823999881744385z"/></g><g opacity="0.4" transform="matrix(1,0,0,1,0,0)"><path fill="rgb(188,144,68)" fill-opacity="1" d=" M31.871999740600586,22.555999755859375 C31.871999740600586,22.555999755859375 2.375999927520752,-11.156999588012695 -3.3889999389648438,-14.03600025177002 C-9.154000282287598,-16.92099952697754 -13.593000411987305,-13.14799976348877 -13.593000411987305,-13.14799976348877 C-13.244000434875488,-15.704000473022461 -12.67300033569336,-16.209999084472656 -12.28600025177002,-18.91200065612793 C-10.418000221252441,-20.993000030517578 -6.8379998207092285,-23.371000289916992 -2.119999885559082,-21.011999130249023 C2.9089999198913574,-18.500999450683594 25.993000030517578,7.474999904632568 31.802000045776367,14.064000129699707 C31.858999252319336,19.600000381469727 31.871999740600586,22.555999755859375 31.871999740600586,22.555999755859375z"/></g><g opacity="0.4" transform="matrix(1,0,0,1,0,0)"><path fill="rgb(65,33,0)" fill-opacity="1" d=" M29.076000213623047,-14.487000465393066 C28.089000701904297,-25.444000244140625 14.21500015258789,-38.58300018310547 8.055999755859375,-42.90700149536133 C3.8239998817443848,-45.87799835205078 -5.88100004196167,-50.0629997253418 -7.820000171661377,-36.88399887084961 C-8.96399974822998,-45.013999938964844 -6.7179999351501465,-58.612998962402344 -6.7179999351501465,-58.612998962402344 C10.803999900817871,-70.14900207519531 26.32900047302246,-53.513999938964844 29.01099967956543,-43.97600173950195 C29.77199935913086,-41.262001037597656 31.000999450683594,-27.125999450683594 29.076000213623047,-14.487000465393066z"/></g><g opacity="1" transform="matrix(1,0,0,1,0,0)"><path stroke-linecap="round" stroke-linejoin="round" fill-opacity="0" stroke="rgb(68,23,0)" stroke-opacity="1" stroke-width="8" d=" M31.871000289916992,22.55299949645996 C31.871000289916992,22.55299949645996 31.69499969482422,-34.441001892089844 29.01099967956543,-43.97700119018555 C26.32699966430664,-53.51300048828125 10.803999900817871,-70.1449966430664 -6.716000080108643,-58.612998962402344 C-6.716000080108643,-58.612998962402344 -10.930000305175781,-32.66699981689453 -13.590999603271484,-13.151000022888184"/></g><g opacity="1" transform="matrix(1,0,0,1,0,0)"><path stroke-linecap="round" stroke-linejoin="round" fill-opacity="0" stroke="rgb(51,20,5)" stroke-opacity="1" stroke-width="8" d=" M-13.590999603271484,-13.151000022888184 C-13.590999603271484,-13.151000022888184 -9.156000137329102,-16.92099952697754 -3.390000104904175,-14.038000106811523 C2.375999927520752,-11.154999732971191 31.871000289916992,22.55299949645996 31.871000289916992,22.55299949645996"/></g></g><g style="display: block;" transform="matrix(0.8500000238418579,0,0,0.8500000238418579,249.80795288085938,250.8000030517578)" opacity="1"><g opacity="1" transform="matrix(1,0,0,1,0,0)"><path fill="rgb(106,61,19)" fill-opacity="1" d=" M-10.050999641418457,-53.86800003051758 C-10.050999641418457,-53.86800003051758 -0.4449999928474426,-57.268001556396484 6.381999969482422,-55.60300064086914 C14.270999908447266,-53.67900085449219 25.631000518798828,-33.79999923706055 33.183998107910156,-33.79999923706055 C33.183998107910156,-33.79999923706055 28.541000366210938,-71.51000213623047 25.895000457763672,-79.4489974975586 C23.249000549316406,-87.38800048828125 0.7549999952316284,-89.1520004272461 -7.625,-85.40299987792969 C-7.625,-85.40299987792969 -8.947999954223633,-70.40699768066406 -10.050999641418457,-53.86800003051758z"/></g><g opacity="0.1" transform="matrix(1,0,0,1,0,0)"><path fill="rgb(247,184,104)" fill-opacity="1" d=" M1.899999976158142,-56.0629997253418 C1.899999976158142,-56.0629997253418 1.3240000009536743,-80.52799987792969 8.809000015258789,-79.5979995727539 C14.071999549865723,-78.94400024414062 17.707000732421875,-69.33100128173828 21.14299964904785,-42.90700149536133 C21.14299964904785,-42.90700149536133 13.85099983215332,-58.257999420166016 1.899999976158142,-56.0629997253418z"/></g><g opacity="0.2" transform="matrix(1,0,0,1,0,0)"><path fill="rgb(188,144,68)" fill-opacity="1" d=" M33.183998107910156,-33.803001403808594 C25.631000518798828,-33.803001403808594 14.27299976348877,-53.678001403808594 6.383999824523926,-55.599998474121094 C-0.44600000977516174,-57.268001556396484 -10.053999900817871,-53.86899948120117 -10.053999900817871,-53.86899948120117 C-9.902000427246094,-56.119998931884766 -9.880000114440918,-56.46500015258789 -9.727999687194824,-58.62799835205078 C-5.336999893188477,-61.91600036621094 2.946000099182129,-63.025001525878906 8.508000373840332,-61.667999267578125 C15.687000274658203,-59.917999267578125 24.87700080871582,-43.595001220703125 32.316001892089844,-40.608001708984375 C32.85499954223633,-36.505001068115234 33.183998107910156,-33.803001403808594 33.183998107910156,-33.803001403808594z"/></g><g opacity="0.4" transform="matrix(1,0,0,1,0,0)"><path fill="rgb(23,11,0)" fill-opacity="1" d=" M27.22100067138672,-60.41299819946289 C25.649999618530273,-67.1449966430664 18.024999618530273,-71.072998046875 10.085000038146973,-73.21700286865234 C1.9229999780654907,-75.42400360107422 -6.040999889373779,-72.04199981689453 -7.065999984741211,-64.35600280761719 C-8.571000099182129,-71.63400268554688 -7.625,-85.4000015258789 -7.625,-85.4000015258789 C0.061000000685453415,-88.84300231933594 19.618999481201172,-87.63899993896484 24.844999313354492,-81.2969970703125 C25.51099967956543,-79.33100128173828 29.076000213623047,-64.78900146484375 27.22100067138672,-60.41299819946289z"/></g><g opacity="1" transform="matrix(1,0,0,1,0,0)"><path stroke-linecap="round" stroke-linejoin="round" fill-opacity="0" stroke="rgb(61,25,1)" stroke-opacity="1" stroke-width="8" d=" M33.183998107910156,-33.79999923706055 C33.183998107910156,-33.79999923706055 28.541000366210938,-71.51000213623047 25.895000457763672,-79.4489974975586 C23.249000549316406,-87.38800048828125 0.7549999952316284,-89.1520004272461 -7.625,-85.40299987792969 C-7.625,-85.40299987792969 -8.947999954223633,-70.40699768066406 -10.050999641418457,-53.86800003051758"/></g><g opacity="1" transform="matrix(1,0,0,1,0,0)"><path stroke-linecap="round" stroke-linejoin="round" fill-opacity="0" stroke="rgb(40,16,0)" stroke-opacity="1" stroke-width="8" d=" M-10.050999641418457,-53.86800003051758 C-10.050999641418457,-53.86800003051758 0.27000001072883606,-57.06399917602539 6.381999969482422,-55.60300064086914 C14.279999732971191,-53.71500015258789 24.479999542236328,-35.64899826049805 33.183998107910156,-33.79999923706055"/></g></g><g style="display: block;" transform="matrix(0.8500000238418579,0,0,0.8500000238418579,249.80795288085938,250.8000030517578)" opacity="1"><g opacity="1" transform="matrix(1,0,0,1,0,0)"><path fill="rgb(76,45,16)" fill-opacity="1" d=" M-10.050999641418457,-80.99099731445312 C0.29100000858306885,-85.35299682617188 8.055999755859375,-83.35299682617188 30.569000244140625,-74.26200103759766 C23.23200035095215,-94.52999877929688 22.17300033569336,-98.52899932861328 18.09600067138672,-117.10299682617188 C16.761999130249023,-117.58799743652344 3.4170000553131104,-122.18399810791016 -8.855999946594238,-114.79900360107422 C-8.855999946594238,-114.79900360107422 -9.805000305175781,-100.35700225830078 -10.050999641418457,-80.99099731445312z"/></g><g opacity="0.1" transform="matrix(1,0,0,1,0,0)"><path fill="rgb(247,184,104)" fill-opacity="1" d=" M16.746000289916992,-79.5979995727539 C16.746000289916992,-79.5979995727539 12.937999725341797,-111.01300048828125 5.260000228881836,-109.5510025024414 C-1.5299999713897705,-108.25800323486328 -0.3880000114440918,-82.98600006103516 -0.3880000114440918,-82.98600006103516 C-0.3880000114440918,-82.98600006103516 16.746000289916992,-79.5979995727539 16.746000289916992,-79.5979995727539z"/></g><g opacity="0.1" transform="matrix(1,0,0,1,0,0)"><path fill="rgb(188,144,68)" fill-opacity="1" d=" M30.565000534057617,-74.2699966430664 C30.235000610351562,-74.40899658203125 19.733999252319336,-79.06400299072266 9.142999649047852,-81.93099975585938 C-1.61899995803833,-84.83499908447266 -10.053999900817871,-80.99299621582031 -10.053999900817871,-80.99299621582031 C-10.029000282287598,-83.19400024414062 -9.552000045776367,-84.04199981689453 -9.508000373840332,-86.10299682617188 C-8.145000457763672,-87.5459976196289 -0.9089999794960022,-90.35299682617188 9.142999649047852,-87.63899993896484 C16.246000289916992,-85.71800231933594 22.926000595092773,-83.00900268554688 27.292999267578125,-81.35399627685547 C29.011999130249023,-77.13700103759766 30.48900032043457,-74.447998046875 30.565000534057617,-74.2699966430664z"/></g><g opacity="0.4" transform="matrix(1,0,0,1,0,0)"><path fill="rgb(23,11,0)" fill-opacity="1" d=" M19.42300033569336,-99.05400085449219 C16.589000701904297,-109.13200378417969 -7.526000022888184,-105.33799743652344 -7.526000022888184,-94.44599914550781 C-9.295999526977539,-104.5 -8.854999542236328,-114.8010025024414 -8.854999542236328,-114.8010025024414 C1.121000051498413,-120.80000305175781 12.680999755859375,-118.56700134277344 16.663999557495117,-117.52100372314453 C17.552000045776367,-115.51699829101562 18.756999969482422,-101.8949966430664 19.42300033569336,-99.05400085449219z"/></g><g opacity="1" transform="matrix(1,0,0,1,0,0)"><path stroke-linecap="round" stroke-linejoin="round" fill-opacity="0" stroke="rgb(43,19,1)" stroke-opacity="1" stroke-width="8" d=" M-10.050999641418457,-80.99099731445312 C0.29100000858306885,-85.35299682617188 8.055999755859375,-83.35299682617188 30.569000244140625,-74.26200103759766 C23.23200035095215,-94.52999877929688 22.17300033569336,-98.52899932861328 18.09600067138672,-117.10299682617188 C16.761999130249023,-117.58799743652344 3.4170000553131104,-122.18399810791016 -8.855999946594238,-114.79900360107422 C-8.855999946594238,-114.79900360107422 -9.805000305175781,-100.35700225830078 -10.050999641418457,-80.99099731445312z"/></g></g><g style="display: block;" transform="matrix(0.8500000238418579,0,0,0.8500000238418579,249.80795288085938,250.8000030517578)" opacity="1"><g opacity="1" transform="matrix(1,0,0,1,0,0)"><path fill="rgb(61,37,7)" fill-opacity="1" d=" M-11.913000106811523,-109.5510025024414 C-11.913000106811523,-109.5510025024414 4.285999774932861,-119.26000213623047 22.527999877929688,-113.22799682617188 C22.527999877929688,-113.22799682617188 11.616999626159668,-139.5970001220703 7.077000141143799,-146.2519989013672 C2.5369999408721924,-152.90699768066406 -11.913000106811523,-143.37399291992188 -11.913000106811523,-143.37399291992188 C-11.913000106811523,-143.37399291992188 -12.972000122070312,-128.38600158691406 -11.913000106811523,-109.5510025024414z"/></g><g opacity="0.1" transform="matrix(1,0,0,1,0,0)"><path fill="rgb(247,184,104)" fill-opacity="1" d=" M-3.11299991607666,-113.58100128173828 C-3.11299991607666,-113.58100128173828 -5.781000137329102,-139.15199279785156 -0.5009999871253967,-139.82400512695312 C6.306000232696533,-140.69000244140625 12.038000106811523,-115.76300048828125 12.038000106811523,-115.76300048828125 C12.038000106811523,-115.76300048828125 -3.11299991607666,-113.58100128173828 -3.11299991607666,-113.58100128173828z"/></g><g opacity="0.1" transform="matrix(1,0,0,1,0,0)"><path fill="rgb(188,144,68)" fill-opacity="1" d=" M22.530000686645508,-113.22799682617188 C4.284999847412109,-119.25900268554688 -11.911999702453613,-109.55000305175781 -11.911999702453613,-109.55000305175781 C-12.026000022888184,-111.56700134277344 -11.954000473022461,-113.28500366210938 -12.02400016784668,-115.19999694824219 C-9.633000373840332,-116.46800231933594 4.3379998207092285,-123.36799621582031 19.94499969482422,-119.46800231933594 C21.5939998626709,-115.625 22.530000686645508,-113.22799682617188 22.530000686645508,-113.22799682617188z"/></g><g opacity="0.4" transform="matrix(1,0,0,1,0,0)"><path fill="rgb(23,11,0)" fill-opacity="1" d=" M10.767000198364258,-133.01800537109375 C6.389999866485596,-138.98599243164062 -8.597000122070312,-137.38800048828125 -10.321000099182129,-125.98899841308594 C-12.654000282287598,-134.89700317382812 -11.911999702453613,-143.3769989013672 -11.911999702453613,-143.3769989013672 C-11.911999702453613,-143.3769989013672 2.5339999198913574,-152.9080047607422 7.074999809265137,-146.24899291992188 C8.07699966430664,-144.78399658203125 10.767000198364258,-133.01800537109375 10.767000198364258,-133.01800537109375z"/></g><g opacity="1" transform="matrix(1,0,0,1,0,0)"><path stroke-linecap="round" stroke-linejoin="round" fill-opacity="0" stroke="rgb(33,15,0)" stroke-opacity="1" stroke-width="8" d=" M-11.913000106811523,-109.5510025024414 C-11.913000106811523,-109.5510025024414 4.285999774932861,-119.26000213623047 22.527999877929688,-113.22799682617188 C22.527999877929688,-113.22799682617188 11.616999626159668,-139.5970001220703 7.077000141143799,-146.2519989013672 C2.5369999408721924,-152.90699768066406 -11.913000106811523,-143.37399291992188 -11.913000106811523,-143.37399291992188 C-11.913000106811523,-143.37399291992188 -12.972000122070312,-128.38600158691406 -11.913000106811523,-109.5510025024414z"/></g></g><g style="display: block;" transform="matrix(0.8500000238418579,0,0,0.8500000238418579,249.80795288085938,250.8000030517578)" opacity="1"><g opacity="1" transform="matrix(1,0,0,1,0,0)"><path fill="rgb(61,37,7)" fill-opacity="1" d=" M11.567000389099121,-145.2010040283203 C11.567000389099121,-145.2010040283203 -0.42399999499320984,-147.9929962158203 -13.407999992370605,-139.4770050048828 C-13.407999992370605,-139.4770050048828 -19.902000427246094,-182.83799743652344 -19.902000427246094,-182.83799743652344 C-19.902000427246094,-182.83799743652344 -4.1570000648498535,-186.8939971923828 -4.1570000648498535,-186.8939971923828 C-4.1570000648498535,-186.8939971923828 5.728000164031982,-162.67300415039062 11.567000389099121,-145.2010040283203z"/></g><g opacity="0.1" transform="matrix(1,0,0,1,0,0)"><path fill="rgb(188,144,68)" fill-opacity="1" d=" M11.5649995803833,-145.2030029296875 C11.5649995803833,-145.2030029296875 -0.42100000381469727,-147.9929962158203 -13.409000396728516,-139.4759979248047 C-13.409000396728516,-139.4759979248047 -13.734999656677246,-147.8769989013672 -13.734999656677246,-147.8769989013672 C-3.6519999504089355,-154.44700622558594 4.363999843597412,-153.77200317382812 8.055000305175781,-153.35299682617188 C8.803000450134277,-151.44400024414062 10.803999900817871,-147.27099609375 11.5649995803833,-145.2030029296875z"/></g><g opacity="1" transform="matrix(1,0,0,1,0,0)"><path stroke-linecap="round" stroke-linejoin="round" fill-opacity="0" stroke="rgb(23,11,0)" stroke-opacity="1" stroke-width="8" d=" M11.567000389099121,-145.2010040283203 C11.567000389099121,-145.2010040283203 -0.42399999499320984,-147.9929962158203 -13.407999992370605,-139.4770050048828 C-13.407999992370605,-139.4770050048828 -19.902000427246094,-182.83799743652344 -19.902000427246094,-182.83799743652344 C-19.902000427246094,-182.83799743652344 -4.1570000648498535,-186.8939971923828 -4.1570000648498535,-186.8939971923828 C-4.1570000648498535,-186.8939971923828 5.728000164031982,-162.67300415039062 11.567000389099121,-145.2010040283203z"/></g></g><g style="display: block;" transform="matrix(0.8499930500984192,0,0,0.8499930500984192,249.69998168945312,250.7976837158203)" opacity="1"><g opacity="1" transform="matrix(1,0,0,1,0,0)"><path fill="url(#__lottie_element_35569)" fill-opacity="1" d=" M-7.551000118255615,-233.9239959716797 C-7.551000118255615,-233.9239959716797 14.451000213623047,-247.0679931640625 44.284000396728516,-244.58200073242188 C74.11699676513672,-242.0959930419922 100.13999938964844,-225.78799438476562 115.19200134277344,-192.2790069580078 C128.6199951171875,-162.38600158691406 127.71199798583984,-139.4759979248047 119.31500244140625,-122.07099914550781 C119.31500244140625,-122.07099914550781 110.26499938964844,-133.38800048828125 106.3270034790039,-144.98199462890625 C106.3270034790039,-144.98199462890625 112.6709976196289,-160.2949981689453 112.6709976196289,-160.2949981689453 C112.6709976196289,-160.2949981689453 102.16999816894531,-149.13800048828125 102.16999816894531,-149.13800048828125 C102.16999816894531,-149.13800048828125 88.8270034790039,-162.0449981689453 83.13899993896484,-170.7949981689453 C83.13899993896484,-170.7949981689453 90.79499816894531,-189.60800170898438 90.79499816894531,-189.60800170898438 C90.79499816894531,-189.60800170898438 78.54499816894531,-174.9510040283203 78.54499816894531,-174.9510040283203 C78.54499816894531,-174.9510040283203 62.444000244140625,-188.9510040283203 57.91600036621094,-193.76400756835938 C57.91600036621094,-193.76400756835938 62.611000061035156,-209.67999267578125 62.88999938964844,-219.447998046875 C62.88999938964844,-219.447998046875 59.540000915527344,-208.00599670410156 51.72600173950195,-196.56300354003906 C51.72600173950195,-196.56300354003906 28.92300033569336,-217.30099487304688 0.3269999921321869,-222.81700134277344 C0.3269999921321869,-222.81700134277344 -7.551000118255615,-233.9239959716797 -7.551000118255615,-233.9239959716797z"/></g><g opacity="0.2" transform="matrix(1,0,0,1,0,0)"><path fill="rgb(37,78,0)" fill-opacity="1" d=" M112.58100128173828,-190.281005859375 C102.2020034790039,-207.3470001220703 83.88800048828125,-228.84500122070312 55.694000244140625,-233.64999389648438 C14.644000053405762,-240.64700317382812 38.643001556396484,-209.9409942626953 41.11399841308594,-206.76499938964844 C28.76099967956543,-213.4709930419922 11.54800033569336,-220.65699768066406 0.32899999618530273,-222.8159942626953 C0.32899999618530273,-222.8159942626953 -7.551000118255615,-233.9239959716797 -7.551000118255615,-233.9239959716797 C-7.551000118255615,-233.9239959716797 14.539999961853027,-247.9759979248047 44.2859992980957,-244.58200073242188 C88.05500030517578,-239.58799743652344 102.87899780273438,-216.64700317382812 112.58100128173828,-190.281005859375z"/></g><g opacity="1" transform="matrix(1,0,0,1,0,0)"><path stroke-linecap="round" stroke-linejoin="round" fill-opacity="0" stroke="rgb(51,84,0)" stroke-opacity="1" stroke-width="8" d=" M-7.551000118255615,-233.9239959716797 C-7.551000118255615,-233.9239959716797 14.451000213623047,-247.0679931640625 44.284000396728516,-244.58200073242188 C74.11699676513672,-242.0959930419922 100.13999938964844,-225.78799438476562 115.19200134277344,-192.2790069580078 C128.6199951171875,-162.38600158691406 127.71199798583984,-139.4759979248047 119.31500244140625,-122.07099914550781 C119.31500244140625,-122.07099914550781 110.26499938964844,-133.38800048828125 106.3270034790039,-144.98199462890625 C106.3270034790039,-144.98199462890625 112.6709976196289,-160.2949981689453 112.6709976196289,-160.2949981689453 C112.6709976196289,-160.2949981689453 102.16999816894531,-149.13800048828125 102.16999816894531,-149.13800048828125 C102.16999816894531,-149.13800048828125 88.8270034790039,-162.0449981689453 83.13899993896484,-170.7949981689453 C83.13899993896484,-170.7949981689453 90.79499816894531,-189.60800170898438 90.79499816894531,-189.60800170898438 C90.79499816894531,-189.60800170898438 78.54499816894531,-174.9510040283203 78.54499816894531,-174.9510040283203 C78.54499816894531,-174.9510040283203 62.444000244140625,-188.9510040283203 57.91600036621094,-193.76400756835938 C57.91600036621094,-193.76400756835938 62.611000061035156,-209.67999267578125 62.88999938964844,-219.447998046875 C62.88999938964844,-219.447998046875 59.540000915527344,-208.00599670410156 51.72600173950195,-196.56300354003906 C51.72600173950195,-196.56300354003906 28.92300033569336,-217.30099487304688 0.3269999921321869,-222.81700134277344 C0.3269999921321869,-222.81700134277344 -7.551000118255615,-233.9239959716797 -7.551000118255615,-233.9239959716797z"/></g><g opacity="1" transform="matrix(1,0,0,1,0,0)"><path stroke-linecap="round" stroke-linejoin="round" fill-opacity="0" stroke="rgb(46,75,0)" stroke-opacity="1" stroke-width="8" d=" M-7.551000118255615,-233.9239959716797 C-7.551000118255615,-233.9239959716797 14.451000213623047,-247.0679931640625 44.284000396728516,-244.58200073242188"/></g></g><g style="display: block;" transform="matrix(0.8499930500984192,0,0,0.8499930500984192,249.70005798339844,250.79827880859375)" opacity="1"><g opacity="1" transform="matrix(1,0,0,1,0,0)"><path fill="url(#__lottie_element_35564)" fill-opacity="1" d=" M-8.855999946594238,-235.22900390625 C-8.855999946594238,-235.22900390625 22.329999923706055,-230.95799255371094 41.85499954223633,-212.7519989013672 C41.85499954223633,-212.7519989013672 23.121000289916992,-209.05799865722656 23.121000289916992,-209.05799865722656 C23.121000289916992,-209.05799865722656 36.99800109863281,-209.36099243164062 50.29800033569336,-204.0449981689453 C50.29800033569336,-204.0449981689453 63.49100112915039,-194.80999755859375 74.04499816894531,-172.11900329589844 C74.04499816894531,-172.11900329589844 60.85200119018555,-173.43800354003906 51.35300064086914,-168.95199584960938 C51.35300064086914,-168.95199584960938 71.61599731445312,-164.15699768066406 77.69400024414062,-157.01600646972656 C85.41999816894531,-147.93899536132812 88.75499725341797,-125.88400268554688 88.75499725341797,-125.88400268554688 C88.75499725341797,-125.88400268554688 70.31700134277344,-129.71600341796875 70.31700134277344,-129.71600341796875 C70.31700134277344,-129.71600341796875 82.27799987792969,-121.40599822998047 85.73699951171875,-114.21299743652344 C88.06600189208984,-109.36900329589844 82.2239990234375,-92.04199981689453 75.2229995727539,-81.92900085449219 C75.2229995727539,-81.92900085449219 61.55799865722656,-95.54299926757812 57.91600036621094,-102.76599884033203 C57.91600036621094,-102.76599884033203 59.46699905395508,-117.28199768066406 62.29199981689453,-123.9749984741211 C62.29199981689453,-123.9749984741211 50.66299819946289,-108.87799835205078 50.66299819946289,-108.87799835205078 C50.66299819946289,-108.87799835205078 28.437000274658203,-131.37100219726562 22.325000762939453,-142.48899841308594 C22.325000762939453,-142.48899841308594 27.457000732421875,-153.32400512695312 35.10499954223633,-162.38499450683594 C35.10499954223633,-162.38499450683594 26.902000427246094,-162.38499450683594 15.875,-149.16099548339844 C15.875,-149.16099548339844 -1.9769999980926514,-164.718994140625 -8.855999946594238,-189.7220001220703 C-15.734999656677246,-214.72500610351562 -8.855999946594238,-235.22900390625 -8.855999946594238,-235.22900390625z"/></g><g opacity="0.2" transform="matrix(1,0,0,1,0,0)"><path fill="rgb(37,78,0)" fill-opacity="1" d=" M62.152000427246094,-133.3939971923828 C61.4739990234375,-134.69900512695312 38.35200119018555,-177.60400390625 19.273000717163086,-193.0570068359375 C15.932999610900879,-195.7570037841797 6.072000026702881,-161.0540008544922 -0.3919999897480011,-173.1790008544922 C-16.415000915527344,-203.23500061035156 -10.947999954223633,-226.3679962158203 -9.355999946594238,-233.9409942626953 C9.70300006866455,-225.47000122070312 53.46699905395508,-164.0590057373047 62.152000427246094,-133.3939971923828z"/></g><g opacity="1" transform="matrix(1,0,0,1,0,0)"><path stroke-linecap="round" stroke-linejoin="round" fill-opacity="0" stroke="rgb(74,134,1)" stroke-opacity="1" stroke-width="8" d=" M23.121000289916992,-209.05799865722656 C23.121000289916992,-209.05799865722656 36.99800109863281,-209.36099243164062 50.29800033569336,-204.0449981689453 C50.29800033569336,-204.0449981689453 63.49100112915039,-194.80999755859375 74.04499816894531,-172.11900329589844 C74.04499816894531,-172.11900329589844 60.85200119018555,-173.43800354003906 51.35300064086914,-168.95199584960938 C51.35300064086914,-168.95199584960938 71.61599731445312,-164.15699768066406 77.69400024414062,-157.01600646972656 C85.41999816894531,-147.93899536132812 88.75499725341797,-125.88400268554688 88.75499725341797,-125.88400268554688 C88.75499725341797,-125.88400268554688 70.31700134277344,-129.71600341796875 70.31700134277344,-129.71600341796875 C70.31700134277344,-129.71600341796875 82.27799987792969,-121.40599822998047 85.73699951171875,-114.21299743652344 C88.06600189208984,-109.36900329589844 82.2239990234375,-92.04199981689453 75.2229995727539,-81.92900085449219"/></g><g opacity="1" transform="matrix(1,0,0,1,0,0)"><path stroke-linecap="round" stroke-linejoin="round" fill-opacity="0" stroke="rgb(52,100,1)" stroke-opacity="1" stroke-width="8" d=" M75.2229995727539,-81.92900085449219 C75.2229995727539,-81.92900085449219 61.55799865722656,-95.54299926757812 57.91600036621094,-102.76599884033203 C57.91600036621094,-102.76599884033203 59.46699905395508,-117.28199768066406 62.29199981689453,-123.9749984741211 C62.29199981689453,-123.9749984741211 50.66299819946289,-108.87799835205078 50.66299819946289,-108.87799835205078 C50.66299819946289,-108.87799835205078 28.437000274658203,-131.37100219726562 22.325000762939453,-142.48899841308594 C22.325000762939453,-142.48899841308594 27.457000732421875,-153.32400512695312 35.10499954223633,-162.38499450683594 C35.10499954223633,-162.38499450683594 26.902000427246094,-162.38499450683594 15.875,-149.16099548339844 C15.875,-149.16099548339844 -1.9769999980926514,-164.718994140625 -8.855999946594238,-189.7220001220703 C-15.734999656677246,-214.72500610351562 -8.855999946594238,-235.22900390625 -8.855999946594238,-235.22900390625 C-8.855999946594238,-235.22900390625 22.329999923706055,-230.95799255371094 41.85499954223633,-212.7519989013672 C41.85499954223633,-212.7519989013672 23.121000289916992,-209.05799865722656 23.121000289916992,-209.05799865722656"/></g><g opacity="1" transform="matrix(1,0,0,1,0,0)"><path fill="url(#__lottie_element_35565)" fill-opacity="1" d=" M72.73100280761719,-99.10099792480469 C67.46800231933594,-126.05899810791016 55.29899978637695,-151.4980010986328 39.90800094604492,-174.50900268554688 C29.21500015258789,-190.4969940185547 1.350000023841858,-223.23500061035156 -9.482000350952148,-231.93099975585938 C-11.12600040435791,-233.25 -11.845999717712402,-235.02999877929688 -10.784000396728516,-236.9739990234375 C-9.526000022888184,-237.697998046875 -7.631999969482422,-237.0919952392578 -5.369999885559082,-235.63099670410156 C3.257999897003174,-230.05999755859375 34.95600128173828,-193.62100219726562 45.31999969482422,-176.77999877929688 C73.3499984741211,-131.23500061035156 72.87899780273438,-112.88300323486328 72.73100280761719,-99.10099792480469z"/></g></g><g style="display: block;" transform="matrix(0.8499930500984192,0,0,0.8499930500984192,249.69984436035156,250.79867553710938)" opacity="1"><g opacity="1" transform="matrix(1,0,0,1,0,0)"><path fill="rgb(5,52,7)" fill-opacity="1" d=" M-161.00399780273438,-142.48899841308594 C-161.00399780273438,-142.48899841308594 -151.88600158691406,-162.38499450683594 -132.33099365234375,-169.32699584960938 C-132.33099365234375,-169.32699584960938 -129.47000122070312,-185.43499755859375 -129.47000122070312,-185.43499755859375 C-129.47000122070312,-185.43499755859375 -123.20700073242188,-176.2779998779297 -123.20700073242188,-176.2779998779297 C-123.20700073242188,-176.2779998779297 -111.37799835205078,-186.55799865722656 -100.94999694824219,-189.68600463867188 C-100.94999694824219,-189.68600463867188 -98.78900146484375,-201.81900024414062 -98.78900146484375,-201.81900024414062 C-98.78900146484375,-201.81900024414062 -93.29499816894531,-193.85699462890625 -93.29499816894531,-193.85699462890625 C-93.29499816894531,-193.85699462890625 -78.56700134277344,-207.63800048828125 -69.00399780273438,-212.69500732421875 C-69.00399780273438,-212.69500732421875 -128.25100708007812,-262.135009765625 -161.00399780273438,-142.48899841308594z"/><path stroke-linecap="round" stroke-linejoin="round" fill-opacity="0" stroke="rgb(0,17,2)" stroke-opacity="1" stroke-width="8" d=" M-161.00399780273438,-142.48899841308594 C-161.00399780273438,-142.48899841308594 -151.88600158691406,-162.38499450683594 -132.33099365234375,-169.32699584960938 C-132.33099365234375,-169.32699584960938 -129.47000122070312,-185.43499755859375 -129.47000122070312,-185.43499755859375 C-129.47000122070312,-185.43499755859375 -123.20700073242188,-176.2779998779297 -123.20700073242188,-176.2779998779297 C-123.20700073242188,-176.2779998779297 -111.37799835205078,-186.55799865722656 -100.94999694824219,-189.68600463867188 C-100.94999694824219,-189.68600463867188 -98.78900146484375,-201.81900024414062 -98.78900146484375,-201.81900024414062 C-98.78900146484375,-201.81900024414062 -93.29499816894531,-193.85699462890625 -93.29499816894531,-193.85699462890625 C-93.29499816894531,-193.85699462890625 -78.56700134277344,-207.63800048828125 -69.00399780273438,-212.69500732421875 C-69.00399780273438,-212.69500732421875 -128.25100708007812,-262.135009765625 -161.00399780273438,-142.48899841308594z"/></g><g opacity="1" transform="matrix(1,0,0,1,0,0)"><path fill="url(#__lottie_element_35560)" fill-opacity="1" d=" M-161.00399780273438,-142.48899841308594 C-161.00399780273438,-142.48899841308594 -159.7969970703125,-181.8939971923828 -133.25900268554688,-209.23699951171875 C-106.72000122070312,-236.5800018310547 -58.97700119018555,-254.3800048828125 -25.586999893188477,-231.7550048828125 C-25.586999893188477,-231.7550048828125 -47.42900085449219,-225.63999938964844 -63.16600036621094,-215.48699951171875 C-63.16600036621094,-215.48699951171875 -66.54900360107422,-225.4320068359375 -64.94300079345703,-233.76199340820312 C-64.94300079345703,-233.76199340820312 -69.00399780273438,-212.69500732421875 -69.00399780273438,-212.69500732421875 C-69.00399780273438,-212.69500732421875 -84.42400360107422,-206.64999389648438 -98.19400024414062,-197.4080047607422 C-98.19400024414062,-197.4080047607422 -102.56900024414062,-208.5240020751953 -99.71700286865234,-221.0709991455078 C-99.71700286865234,-221.0709991455078 -102.51000213623047,-205.56300354003906 -102.26599884033203,-193.9340057373047 C-102.26599884033203,-193.9340057373047 -113.36399841308594,-190.36099243164062 -125.25800323486328,-183.67999267578125 C-125.25800323486328,-183.67999267578125 -127.73500061035156,-191.4010009765625 -128.93499755859375,-199.7949981689453 C-128.93499755859375,-199.7949981689453 -132.67599487304688,-192.31199645996094 -132.40899658203125,-180.28700256347656 C-132.40899658203125,-180.28700256347656 -145.5050048828125,-167.49000549316406 -161.00399780273438,-142.48899841308594z"/></g><g opacity="0.2" transform="matrix(1,0,0,1,0,0)"><path fill="rgb(37,78,0)" fill-opacity="1" d=" M-63.16400146484375,-215.48399353027344 C-63.16400146484375,-215.48399353027344 -60.91299819946289,-231.87100219726562 -73.2239990234375,-232.53199768066406 C-96.69599914550781,-233.79200744628906 -120.34500122070312,-215.87399291992188 -134.71200561523438,-202.34500122070312 C-122.88600158691406,-225.1179962158203 -70.41500091552734,-260.4119873046875 -25.586000442504883,-231.7519989013672 C-25.586000442504883,-231.7519989013672 -47.430999755859375,-225.63999938964844 -63.16400146484375,-215.48399353027344z"/></g><g opacity="1" transform="matrix(1,0,0,1,0,0)"><path stroke-linecap="round" stroke-linejoin="round" fill-opacity="0" stroke="rgb(47,85,1)" stroke-opacity="1" stroke-width="8" d=" M-161.00399780273438,-142.48899841308594 C-161.00399780273438,-142.48899841308594 -159.7969970703125,-181.8939971923828 -133.25900268554688,-209.23699951171875 C-106.72000122070312,-236.5800018310547 -58.97700119018555,-254.3800048828125 -25.586999893188477,-231.7550048828125 C-25.586999893188477,-231.7550048828125 -47.42900085449219,-225.63999938964844 -63.16600036621094,-215.48699951171875 C-63.16600036621094,-215.48699951171875 -66.54900360107422,-225.4320068359375 -64.94300079345703,-233.76199340820312 C-64.94300079345703,-233.76199340820312 -69.00399780273438,-212.69500732421875 -69.00399780273438,-212.69500732421875 C-69.00399780273438,-212.69500732421875 -84.42400360107422,-206.64999389648438 -98.19400024414062,-197.4080047607422 C-98.19400024414062,-197.4080047607422 -102.56900024414062,-208.5240020751953 -99.71700286865234,-221.0709991455078 C-99.71700286865234,-221.0709991455078 -102.51000213623047,-205.56300354003906 -102.26599884033203,-193.9340057373047 C-102.26599884033203,-193.9340057373047 -113.36399841308594,-190.36099243164062 -125.25800323486328,-183.67999267578125 C-125.25800323486328,-183.67999267578125 -127.73500061035156,-191.4010009765625 -128.93499755859375,-199.7949981689453 C-128.93499755859375,-199.7949981689453 -132.67599487304688,-192.31199645996094 -132.40899658203125,-180.28700256347656 C-132.40899658203125,-180.28700256347656 -145.5050048828125,-167.49000549316406 -161.00399780273438,-142.48899841308594z"/></g><g opacity="1" transform="matrix(1,0,0,1,0,0)"><path stroke-linecap="round" stroke-linejoin="round" fill-opacity="0" stroke="rgb(46,75,0)" stroke-opacity="1" stroke-width="8" d=" M-68.95700073242188,-241.6269989013672 C-53.7239990234375,-243.23800659179688 -38.56999969482422,-240.55299377441406 -25.586999893188477,-231.7550048828125"/></g></g><g style="display: block;" transform="matrix(0.8499930500984192,0,0,0.8499930500984192,249.6998291015625,250.7981414794922)" opacity="1"><g opacity="1" transform="matrix(1,0,0,1,0,0)"><path fill="rgb(72,124,27)" fill-opacity="1" d=" M-123.04000091552734,-110.19999694824219 C-123.04000091552734,-110.19999694824219 -133.54400634765625,-105.8499984741211 -139.0279998779297,-98.4209976196289 C-139.0279998779297,-98.4209976196289 -140.531005859375,-82.46199798583984 -127.95700073242188,-69.10600280761719 C-127.95700073242188,-69.10600280761719 -117.4739990234375,-77.52999877929688 -113.98600006103516,-89.65599822998047 C-113.98600006103516,-89.65599822998047 -118.37300109863281,-101.1969985961914 -123.04000091552734,-110.19999694824219z"/><path stroke-linecap="round" stroke-linejoin="round" fill-opacity="0" stroke="rgb(58,99,4)" stroke-opacity="1" stroke-width="8" d=" M-123.04000091552734,-110.19999694824219 C-123.04000091552734,-110.19999694824219 -133.54400634765625,-105.8499984741211 -139.0279998779297,-98.4209976196289 C-139.0279998779297,-98.4209976196289 -140.531005859375,-82.46199798583984 -127.95700073242188,-69.10600280761719 C-127.95700073242188,-69.10600280761719 -117.4739990234375,-77.52999877929688 -113.98600006103516,-89.65599822998047 C-113.98600006103516,-89.65599822998047 -118.37300109863281,-101.1969985961914 -123.04000091552734,-110.19999694824219z"/></g><g opacity="1" transform="matrix(1,0,0,1,0,0)"><path fill="url(#__lottie_element_35555)" fill-opacity="1" d=" M-142.21499633789062,-107.427001953125 C-142.21499633789062,-107.427001953125 -133.61599731445312,-112.97699737548828 -121.10700225830078,-117.10299682617188 C-121.10700225830078,-117.10299682617188 -113.49500274658203,-107.64900207519531 -108.81999969482422,-96.29499816894531 C-108.81999969482422,-96.29499816894531 -89.16799926757812,-114.2959976196289 -78.38600158691406,-132.3769989013672 C-78.38600158691406,-132.3769989013672 -83.9010009765625,-147.42799377441406 -97.64199829101562,-157.01600646972656 C-97.64199829101562,-157.01600646972656 -87.86499786376953,-156.27999877929688 -71.97899627685547,-139.37600708007812 C-71.97899627685547,-139.37600708007812 -55.27399826049805,-155.1719970703125 -49.04499816894531,-173.52099609375 C-49.04499816894531,-173.52099609375 -56.14500045776367,-188.5709991455078 -65.84100341796875,-197.46099853515625 C-65.84100341796875,-197.46099853515625 -55.52899932861328,-194.64599609375 -45.14899826049805,-184.28700256347656 C-45.14899826049805,-184.28700256347656 -30.333999633789062,-208.05299377441406 -25.586999893188477,-226.72500610351562 C-42.8849983215332,-232.64700317382812 -74.6510009765625,-231.70599365234375 -109.06099700927734,-197.4080047607422 C-109.06099700927734,-197.4080047607422 -98.60800170898438,-202.11700439453125 -83.9010009765625,-201.12899780273438 C-83.9010009765625,-201.12899780273438 -100.50299835205078,-197.1750030517578 -116.97799682617188,-183.9949951171875 C-116.97799682617188,-183.9949951171875 -124.87899780273438,-177.40499877929688 -132.45700073242188,-155.32899475097656 C-132.45700073242188,-155.32899475097656 -123.177001953125,-159.3939971923828 -111.03600311279297,-159.81399536132812 C-111.03600311279297,-159.81399536132812 -122.44200134277344,-154.1479949951172 -131.81199645996094,-144.45599365234375 C-131.81199645996094,-144.45599365234375 -139.04800415039062,-135.51499938964844 -142.21499633789062,-107.427001953125z"/></g><g opacity="1" transform="matrix(1,0,0,1,0,0)"><path fill="rgb(37,78,0)" fill-opacity="1" d=" M-25.586000442504883,-226.72300720214844 C-30.334999084472656,-208.05499267578125 -45.14799880981445,-184.28500366210938 -45.14799880981445,-184.28500366210938 C-55.5260009765625,-194.64300537109375 -59.986000061035156,-195.6300048828125 -65.83899688720703,-197.46099853515625 C-71.83300018310547,-199.33599853515625 -78.63800048828125,-198.9219970703125 -77.11599731445312,-202.37899780273438 C-71.88800048828125,-214.2519989013672 -53.23899841308594,-226.17599487304688 -53.23899841308594,-226.17599487304688 C-47.4739990234375,-227.9409942626953 -25.586000442504883,-226.72300720214844 -25.586000442504883,-226.72300720214844z"/></g><g opacity="0.5" transform="matrix(1,0,0,1,0,0)"><path fill="rgb(37,78,0)" fill-opacity="1" d=" M-49.042999267578125,-173.5229949951172 C-49.95600128173828,-170.82899475097656 -51.09700012207031,-168.1929931640625 -52.38199996948242,-165.656005859375 C-52.38199996948242,-165.656005859375 -60.13800048828125,-163.92100524902344 -80.09100341796875,-157.26800537109375 C-82.2040023803711,-156.56399536132812 -80.9990005493164,-179.50100708007812 -78.75199890136719,-185.197998046875 C-77.10199737548828,-189.38099670410156 -65.83899688720703,-197.46099853515625 -65.83899688720703,-197.46099853515625 C-56.145999908447266,-188.57000732421875 -49.042999267578125,-173.5229949951172 -49.042999267578125,-173.5229949951172z"/></g><g opacity="0.3" transform="matrix(1,0,0,1,0,0)"><path fill="rgb(37,78,0)" fill-opacity="1" d=" M-83.34600067138672,-149.76600646972656 C-83.34600067138672,-149.76600646972656 -53.00400161743164,-162.38499450683594 -53.00400161743164,-162.38499450683594 C-60.17900085449219,-150.9499969482422 -71.97699737548828,-139.37600708007812 -71.97699737548828,-139.37600708007812 C-76.2300033569336,-143.9029998779297 -80.04499816894531,-147.26100158691406 -83.34600067138672,-149.76600646972656z"/></g><g opacity="0.2" transform="matrix(1,0,0,1,0,0)"><path fill="rgb(36,93,0)" fill-opacity="1" d=" M-83.9010009765625,-216.86199951171875 C-83.9010009765625,-216.86199951171875 -69.31800079345703,-222.47900390625 -70.92900085449219,-217.5030059814453 C-73.35600280761719,-210.00399780273438 -98.78900146484375,-201.8179931640625 -122.32099914550781,-122.07099914550781 C-122.32099914550781,-122.07099914550781 -103.24099731445312,-190.7050018310547 -47.566001892089844,-221.8560028076172 C-47.566001892089844,-221.8560028076172 -55.72100067138672,-233.64199829101562 -83.9010009765625,-216.86199951171875z"/></g><g opacity="1" transform="matrix(1,0,0,1,0,0)"><path stroke-linecap="round" stroke-linejoin="round" fill-opacity="0" stroke="rgb(37,78,0)" stroke-opacity="1" stroke-width="8" d=" M-71.97899627685547,-139.37600708007812 C-71.97899627685547,-139.37600708007812 -55.27399826049805,-155.1719970703125 -49.04499816894531,-173.52099609375 C-49.04499816894531,-173.52099609375 -56.14500045776367,-188.5709991455078 -65.84100341796875,-197.46099853515625 C-65.84100341796875,-197.46099853515625 -55.52899932861328,-194.64599609375 -45.14899826049805,-184.28700256347656 C-45.14899826049805,-184.28700256347656 -30.333999633789062,-208.05299377441406 -25.586999893188477,-226.72500610351562 C-35.4109992980957,-228.60899353027344 -46.48899841308594,-229.76800537109375 -59.124000549316406,-227.01199340820312"/></g><g opacity="1" transform="matrix(1,0,0,1,0,0)"><path stroke-linecap="round" stroke-linejoin="round" fill-opacity="0" stroke="rgb(74,134,1)" stroke-opacity="1" stroke-width="8" d=" M-108.81999969482422,-96.29499816894531 C-108.81999969482422,-96.29499816894531 -89.16799926757812,-114.2959976196289 -78.38600158691406,-132.3769989013672 C-78.38600158691406,-132.3769989013672 -83.9010009765625,-147.42799377441406 -97.64199829101562,-157.01600646972656 C-97.64199829101562,-157.01600646972656 -87.86499786376953,-156.27999877929688 -71.97899627685547,-139.37600708007812"/></g><g opacity="1" transform="matrix(1,0,0,1,0,0)"><path stroke-linecap="round" stroke-linejoin="round" fill-opacity="0" stroke="rgb(58,99,4)" stroke-opacity="1" stroke-width="8" d=" M-108.81999969482422,-96.29499816894531 C-113.49500274658203,-107.64900207519531 -121.10700225830078,-117.10299682617188 -121.10700225830078,-117.10299682617188 C-133.61599731445312,-112.97699737548828 -142.21499633789062,-107.427001953125 -142.21499633789062,-107.427001953125 C-139.04800415039062,-135.51499938964844 -131.81199645996094,-144.45599365234375 -131.81199645996094,-144.45599365234375 C-122.44200134277344,-154.1479949951172 -111.03600311279297,-159.81399536132812 -111.03600311279297,-159.81399536132812 C-123.177001953125,-159.3939971923828 -132.45700073242188,-155.32899475097656 -132.45700073242188,-155.32899475097656 C-124.87899780273438,-177.40499877929688 -116.97799682617188,-183.9949951171875 -116.97799682617188,-183.9949951171875 C-100.50299835205078,-197.1750030517578 -83.9010009765625,-201.12899780273438 -83.9010009765625,-201.12899780273438 C-98.60800170898438,-202.11700439453125 -109.06099700927734,-197.4080047607422 -109.06099700927734,-197.4080047607422 C-83.9010009765625,-220.968994140625 -65.88800048828125,-226.45199584960938 -52.02899932861328,-228.03599548339844"/></g><g opacity="1" transform="matrix(1,0,0,1,0,0)"><path fill="url(#__lottie_element_35556)" fill-opacity="1" d=" M-25.301000595092773,-224.4029998779297 C-53.108001708984375,-218.9720001220703 -74.6240005493164,-199.86500549316406 -90.6240005493164,-176.8280029296875 C-105.94000244140625,-154.77699279785156 -120.88600158691406,-122.41200256347656 -128.4739990234375,-81.11799621582031 C-128.29800415039062,-123.8239974975586 -105.8489990234375,-164.38999938964844 -95.66000366210938,-179.83099365234375 C-78.46499633789062,-205.89100646972656 -55.72200012207031,-225.0659942626953 -26.143999099731445,-229.55299377441406 C-22.884000778198242,-230.0570068359375 -21.992000579833984,-224.9600067138672 -25.301000595092773,-224.4029998779297z"/></g></g><g style="display: block;" transform="matrix(0.8499930500984192,0,0,0.8499930500984192,249.70004272460938,250.79803466796875)" opacity="1"><g opacity="1" transform="matrix(1,0,0,1,0,0)"><path fill="rgb(100,170,10)" fill-opacity="1" d=" M-29.607999801635742,-119.71299743652344 C-29.607999801635742,-119.71299743652344 -39.81100082397461,-129.08200073242188 -42.68299865722656,-144.41900634765625 C-42.68299865722656,-144.41900634765625 -28.04599952697754,-157.01600646972656 -28.04599952697754,-157.01600646972656 C-28.04599952697754,-157.01600646972656 -16.136999130249023,-140.87100219726562 -16.136999130249023,-140.87100219726562 C-16.136999130249023,-140.87100219726562 -17.82900047302246,-131.2050018310547 -29.607999801635742,-119.71299743652344z"/><path stroke-linecap="round" stroke-linejoin="round" fill-opacity="0" stroke="rgb(67,122,1)" stroke-opacity="1" stroke-width="8" d=" M-29.607999801635742,-119.71299743652344 C-29.607999801635742,-119.71299743652344 -39.81100082397461,-129.08200073242188 -42.68299865722656,-144.41900634765625 C-42.68299865722656,-144.41900634765625 -28.04599952697754,-157.01600646972656 -28.04599952697754,-157.01600646972656 C-28.04599952697754,-157.01600646972656 -16.136999130249023,-140.87100219726562 -16.136999130249023,-140.87100219726562 C-16.136999130249023,-140.87100219726562 -17.82900047302246,-131.2050018310547 -29.607999801635742,-119.71299743652344z"/></g><g opacity="1" transform="matrix(1,0,0,1,0,0)"><path fill="url(#__lottie_element_35550)" fill-opacity="1" d=" M-44.569000244140625,-152.44400024414062 C-44.569000244140625,-152.44400024414062 -27.36199951171875,-165.65499877929688 -27.36199951171875,-165.65499877929688 C-27.36199951171875,-165.65499877929688 -12.805000305175781,-147.42799377441406 -12.805000305175781,-147.42799377441406 C-12.805000305175781,-147.42799377441406 -4.447000026702881,-157.45899963378906 -1.1030000448226929,-170.3560028076172 C-1.1030000448226929,-170.3560028076172 -7.939000129699707,-182.6529998779297 -17.104000091552734,-189.94000244140625 C-17.104000091552734,-189.94000244140625 3.434999942779541,-177.75999450683594 3.434999942779541,-177.75999450683594 C3.434999942779541,-177.75999450683594 10.090999603271484,-188.4709930419922 12.74899959564209,-202.35899353027344 C12.74899959564209,-202.35899353027344 6.230000019073486,-218.3260040283203 -4.684999942779541,-227.91299438476562 C-4.684999942779541,-227.91299438476562 17.391000747680664,-211.656005859375 17.391000747680664,-211.656005859375 C17.391000747680664,-211.656005859375 20.069000244140625,-221.81300354003906 17.920000076293945,-230.19400024414062 C5.702000141143799,-247.23500061035156 -18.88599967956543,-260.4119873046875 -49.529998779296875,-238.2530059814453 C-49.529998779296875,-238.2530059814453 -56.268001556396484,-231.26699829101562 -56.14400100708008,-217.5030059814453 C-56.14400100708008,-217.5030059814453 -29.038000106811523,-231.2570037841797 -29.038000106811523,-231.2570037841797 C-29.038000106811523,-231.2570037841797 -39.7859992980957,-225.0850067138672 -52.816001892089844,-209.2830047607422 C-52.816001892089844,-209.2830047607422 -54.99300003051758,-197.44400024414062 -51.79399871826172,-183.25999450683594 C-51.79399871826172,-183.25999450683594 -32.042999267578125,-190.77099609375 -32.042999267578125,-190.77099609375 C-32.042999267578125,-190.77099609375 -40.93600082397461,-185.59100341796875 -49.106998443603516,-176.32699584960938 C-49.106998443603516,-176.32699584960938 -49.345001220703125,-163.1909942626953 -44.569000244140625,-152.44400024414062z"/></g><g opacity="1" transform="matrix(1,0,0,1,0,0)"><path stroke-linecap="round" stroke-linejoin="round" fill-opacity="0" stroke="rgb(74,134,1)" stroke-opacity="1" stroke-width="8" d=" M-44.569000244140625,-152.44400024414062 C-44.569000244140625,-152.44400024414062 -27.36199951171875,-165.65499877929688 -27.36199951171875,-165.65499877929688 C-27.36199951171875,-165.65499877929688 -12.805000305175781,-147.42799377441406 -12.805000305175781,-147.42799377441406 C-12.805000305175781,-147.42799377441406 -4.447000026702881,-157.45899963378906 -1.1030000448226929,-170.3560028076172 C-1.1030000448226929,-170.3560028076172 -7.939000129699707,-182.6529998779297 -17.104000091552734,-189.94000244140625 C-17.104000091552734,-189.94000244140625 3.434999942779541,-177.75999450683594 3.434999942779541,-177.75999450683594 C3.434999942779541,-177.75999450683594 10.090999603271484,-188.4709930419922 12.74899959564209,-202.35899353027344 C12.74899959564209,-202.35899353027344 6.230000019073486,-218.3260040283203 -4.684999942779541,-227.91299438476562 C-4.684999942779541,-227.91299438476562 17.391000747680664,-211.656005859375 17.391000747680664,-211.656005859375 C17.391000747680664,-211.656005859375 20.069000244140625,-221.81300354003906 17.920000076293945,-230.19400024414062 C5.702000141143799,-247.23500061035156 -18.88599967956543,-260.4119873046875 -49.529998779296875,-238.2530059814453 C-49.529998779296875,-238.2530059814453 -56.268001556396484,-231.26699829101562 -56.14400100708008,-217.5030059814453 C-56.14400100708008,-217.5030059814453 -29.038000106811523,-231.2570037841797 -29.038000106811523,-231.2570037841797 C-29.038000106811523,-231.2570037841797 -39.7859992980957,-225.0850067138672 -52.816001892089844,-209.2830047607422 C-52.816001892089844,-209.2830047607422 -54.99300003051758,-197.44400024414062 -51.79399871826172,-183.25999450683594 C-51.79399871826172,-183.25999450683594 -32.042999267578125,-190.77099609375 -32.042999267578125,-190.77099609375 C-32.042999267578125,-190.77099609375 -40.93600082397461,-185.59100341796875 -49.106998443603516,-176.32699584960938 C-49.106998443603516,-176.32699584960938 -49.345001220703125,-163.1909942626953 -44.569000244140625,-152.44400024414062z"/></g><g opacity="0.2" transform="matrix(1,0,0,1,0,0)"><path fill="rgb(36,93,0)" fill-opacity="1" d=" M-14.11299991607666,-250.0290069580078 C-24.915000915527344,-219.24099731445312 -29.158000946044922,-166.4250030517578 -29.158000946044922,-166.4250030517578 C-32.8489990234375,-210.56399536132812 -26.39900016784668,-233.33900451660156 -28.80299949645996,-238.843994140625 C-31.56599998474121,-245.17100524902344 -47.566001892089844,-237.55499267578125 -47.566001892089844,-237.55499267578125 C-35.79600143432617,-249.2239990234375 -22.76799964904785,-249.94200134277344 -14.11299991607666,-250.0290069580078z"/></g><g opacity="1" transform="matrix(1,0,0,1,0,0)"><path stroke-linecap="round" stroke-linejoin="round" fill-opacity="0" stroke="rgb(65,117,1)" stroke-opacity="1" stroke-width="8" d=" M17.920000076293945,-230.19400024414062 C5.820000171661377,-248.5290069580078 -23.121000289916992,-259.4700012207031 -49.529998779296875,-238.2530059814453"/></g><g opacity="1" transform="matrix(1,0,0,1,0,0)"><path fill="url(#__lottie_element_35551)" fill-opacity="1" d=" M-11.935999870300293,-250.61300659179688 C-15.267999649047852,-240.96400451660156 -17.945999145507812,-227.656005859375 -19.906999588012695,-215.96800231933594 C-23.479999542236328,-194.66799926757812 -28.368000030517578,-137.02699279785156 -28.76799964904785,-134.58799743652344 C-30.356000900268555,-139.8820037841797 -30.982999801635742,-183.46800231933594 -25.274999618530273,-216.78399658203125 C-23.121999740600586,-229.35299682617188 -20.474000930786133,-244.35299682617188 -18.226999282836914,-249.37399291992188 C-15.144000053405762,-256.2619934082031 -11.121000289916992,-252.82400512695312 -11.935999870300293,-250.61300659179688z"/></g></g></g></svg>