<svg xmlns="http://www.w3.org/2000/svg" xmlns:xlink="http://www.w3.org/1999/xlink" viewBox="0 0 512 512" width="512" height="512" style="width: 100%; height: 100%; transform: translate3d(0,0,0);" preserveAspectRatio="xMidYMid meet"><defs><clipPath id="__lottie_element_37632"><rect width="512" height="512" x="0" y="0"/></clipPath><clipPath id="__lottie_element_37637"><path d="M0,0 L893,0 L893,757 L0,757z"/></clipPath><linearGradient id="__lottie_element_37645" spreadMethod="pad" gradientUnits="userSpaceOnUse" x1="-100.06199645996094" y1="-81.69499969482422" x2="191.7469940185547" y2="211.91099548339844"><stop offset="0%" stop-color="rgb(196,196,196)"/><stop offset="85%" stop-color="rgb(172,172,173)"/><stop offset="98%" stop-color="rgb(148,147,150)"/></linearGradient><linearGradient id="__lottie_element_37646" spreadMethod="pad" gradientUnits="userSpaceOnUse" x1="-35.93000030517578" y1="-10.597999572753906" x2="107.61799621582031" y2="141.86500549316406"><stop offset="0%" stop-color="rgb(133,135,139)" stop-opacity="0"/><stop offset="40%" stop-color="rgb(115,116,118)" stop-opacity="0.5"/><stop offset="89%" stop-color="rgb(97,97,97)" stop-opacity="1"/></linearGradient><radialGradient id="__lottie_element_37647" spreadMethod="pad" gradientUnits="userSpaceOnUse" cx="57" cy="-21" r="145.28199768066406" fx="57" fy="-21"><stop offset="0%" stop-color="rgb(240,240,240)" stop-opacity="1"/><stop offset="65%" stop-color="rgb(240,240,240)" stop-opacity="0.5"/><stop offset="100%" stop-color="rgb(240,240,240)" stop-opacity="0"/></radialGradient><radialGradient id="__lottie_element_37648" spreadMethod="pad" gradientUnits="userSpaceOnUse" cx="-83.97100067138672" cy="-28.207000732421875" r="54.16632321067757" fx="-83.97100067138672" fy="-28.207000732421875"><stop offset="0%" stop-color="rgb(240,240,240)" stop-opacity="1"/><stop offset="64%" stop-color="rgb(240,240,240)" stop-opacity="0.5"/><stop offset="98%" stop-color="rgb(240,240,240)" stop-opacity="0"/></radialGradient><radialGradient id="__lottie_element_37649" spreadMethod="pad" gradientUnits="userSpaceOnUse" cx="51.32099914550781" cy="64.44499969482422" r="88.63959212137088" fx="51.32099914550781" fy="64.44499969482422"><stop offset="0%" stop-color="rgb(240,240,240)" stop-opacity="1"/><stop offset="64%" stop-color="rgb(240,240,240)" stop-opacity="0.5"/><stop offset="98%" stop-color="rgb(240,240,240)" stop-opacity="0"/></radialGradient><radialGradient id="__lottie_element_37650" spreadMethod="pad" gradientUnits="userSpaceOnUse" cx="45.34700012207031" cy="63.465999603271484" r="100.21071327571553" fx="45.34700012207031" fy="63.465999603271484"><stop offset="0%" stop-color="rgb(240,240,240)" stop-opacity="1"/><stop offset="64%" stop-color="rgb(240,240,240)" stop-opacity="0.5"/><stop offset="98%" stop-color="rgb(240,240,240)" stop-opacity="0"/></radialGradient><radialGradient id="__lottie_element_37651" spreadMethod="pad" gradientUnits="userSpaceOnUse" cx="173.19200134277344" cy="149.47300720214844" r="42.41328236814841" fx="173.19200134277344" fy="149.47300720214844"><stop offset="16%" stop-color="rgb(240,240,240)" stop-opacity="1"/><stop offset="73%" stop-color="rgb(240,240,240)" stop-opacity="0.5"/><stop offset="98%" stop-color="rgb(240,240,240)" stop-opacity="0"/></radialGradient><radialGradient id="__lottie_element_37652" spreadMethod="pad" gradientUnits="userSpaceOnUse" cx="206" cy="127" r="48.031005859375" fx="206" fy="127"><stop offset="0%" stop-color="rgb(240,240,240)" stop-opacity="1"/><stop offset="65%" stop-color="rgb(240,240,240)" stop-opacity="0.5"/><stop offset="100%" stop-color="rgb(240,240,240)" stop-opacity="0"/></radialGradient><linearGradient id="__lottie_element_37653" spreadMethod="pad" gradientUnits="userSpaceOnUse" x1="-64" y1="122" x2="-10.555999755859375" y2="78.19300079345703"><stop offset="0%" stop-color="rgb(115,115,115)" stop-opacity="1"/><stop offset="46%" stop-color="rgb(115,115,115)" stop-opacity="0.5"/><stop offset="100%" stop-color="rgb(115,115,115)" stop-opacity="0"/></linearGradient><linearGradient id="__lottie_element_37654" spreadMethod="pad" gradientUnits="userSpaceOnUse" x1="-41.59400177001953" y1="129.031005859375" x2="-26.465999603271484" y2="95.2490005493164"><stop offset="0%" stop-color="rgb(115,115,115)" stop-opacity="1"/><stop offset="46%" stop-color="rgb(115,115,115)" stop-opacity="0.5"/><stop offset="100%" stop-color="rgb(115,115,115)" stop-opacity="0"/></linearGradient><linearGradient id="__lottie_element_37655" spreadMethod="pad" gradientUnits="userSpaceOnUse" x1="-145" y1="-5" x2="-90.0719985961914" y2="-31.091999053955078"><stop offset="0%" stop-color="rgb(117,117,117)" stop-opacity="1"/><stop offset="31%" stop-color="rgb(164,164,164)" stop-opacity="0.5"/><stop offset="62%" stop-color="rgb(212,212,212)" stop-opacity="0"/></linearGradient><radialGradient id="__lottie_element_37658" spreadMethod="pad" gradientUnits="userSpaceOnUse" cx="-21.047000885009766" cy="26.051000595092773" r="48.31438411984419" fx="-21.047000885009766" fy="26.051000595092773"><stop offset="0%" stop-color="rgb(132,132,132)" stop-opacity="1"/><stop offset="52%" stop-color="rgb(132,132,132)" stop-opacity="0.5"/><stop offset="94%" stop-color="rgb(132,132,132)" stop-opacity="0"/></radialGradient><radialGradient id="__lottie_element_37662" spreadMethod="pad" gradientUnits="userSpaceOnUse" cx="26.79400062561035" cy="71.79399871826172" r="69.91210768302686" fx="26.79400062561035" fy="71.79399871826172"><stop offset="0%" stop-color="rgb(108,108,108)" stop-opacity="1"/><stop offset="52%" stop-color="rgb(120,120,120)" stop-opacity="0.5"/><stop offset="94%" stop-color="rgb(132,132,132)" stop-opacity="0"/></radialGradient><linearGradient id="__lottie_element_37666" spreadMethod="pad" gradientUnits="userSpaceOnUse" x1="-125.03299713134766" y1="69.79499816894531" x2="-31.26099967956543" y2="-27.392000198364258"><stop offset="0%" stop-color="rgb(191,191,191)" stop-opacity="1"/><stop offset="23%" stop-color="rgb(213,213,213)" stop-opacity="1"/><stop offset="47%" stop-color="rgb(235,235,235)" stop-opacity="1"/><stop offset="71%" stop-color="rgb(237,237,237)" stop-opacity="0.5"/><stop offset="98%" stop-color="rgb(240,240,240)" stop-opacity="0"/></linearGradient><radialGradient id="__lottie_element_37667" spreadMethod="pad" gradientUnits="userSpaceOnUse" cx="-112" cy="14" r="46.0773466569867" fx="-112" fy="14"><stop offset="0%" stop-color="rgb(240,240,240)" stop-opacity="1"/><stop offset="65%" stop-color="rgb(240,240,240)" stop-opacity="0.5"/><stop offset="100%" stop-color="rgb(240,240,240)" stop-opacity="0"/></radialGradient><radialGradient id="__lottie_element_37668" spreadMethod="pad" gradientUnits="userSpaceOnUse" cx="-68.31199645996094" cy="-11.081000328063965" r="47.75298828565544" fx="-68.31199645996094" fy="-11.081000328063965"><stop offset="15%" stop-color="rgb(255,255,255)" stop-opacity="1"/><stop offset="79%" stop-color="rgb(248,248,248)" stop-opacity="0.5"/><stop offset="98%" stop-color="rgb(240,240,240)" stop-opacity="0"/></radialGradient><linearGradient id="__lottie_element_37672" spreadMethod="pad" gradientUnits="userSpaceOnUse" x1="128" y1="65" x2="69.427001953125" y2="152.16900634765625"><stop offset="23%" stop-color="rgb(255,255,255)" stop-opacity="0"/><stop offset="46%" stop-color="rgb(246,246,246)" stop-opacity="0.5"/><stop offset="66%" stop-color="rgb(236,236,236)" stop-opacity="1"/></linearGradient><radialGradient id="__lottie_element_37673" spreadMethod="pad" gradientUnits="userSpaceOnUse" cx="80.9260025024414" cy="112.65499877929688" r="58.936064199314025" fx="80.9260025024414" fy="112.65499877929688"><stop offset="0%" stop-color="rgb(255,255,255)" stop-opacity="1"/><stop offset="77%" stop-color="rgb(255,255,255)" stop-opacity="0.5"/><stop offset="100%" stop-color="rgb(255,255,255)" stop-opacity="0"/></radialGradient><linearGradient id="__lottie_element_37674" spreadMethod="pad" gradientUnits="userSpaceOnUse" x1="123.02899932861328" y1="181.9040069580078" x2="66.09500122070312" y2="149.93699645996094"><stop offset="0%" stop-color="rgb(162,161,164)" stop-opacity="1"/><stop offset="41%" stop-color="rgb(177,177,180)" stop-opacity="0.5"/><stop offset="100%" stop-color="rgb(193,193,195)" stop-opacity="0"/></linearGradient><linearGradient id="__lottie_element_37678" spreadMethod="pad" gradientUnits="userSpaceOnUse" x1="42" y1="211" x2="43.44499969482422" y2="162.60699462890625"><stop offset="9%" stop-color="rgb(122,124,126)" stop-opacity="1"/><stop offset="45%" stop-color="rgb(167,168,169)" stop-opacity="0.5"/><stop offset="81%" stop-color="rgb(212,212,212)" stop-opacity="0"/></linearGradient><radialGradient id="__lottie_element_37682" spreadMethod="pad" gradientUnits="userSpaceOnUse" cx="78.77799987792969" cy="106.87699890136719" r="65.82133085622085" fx="78.77799987792969" fy="106.87699890136719"><stop offset="0%" stop-color="rgb(255,255,255)" stop-opacity="1"/><stop offset="77%" stop-color="rgb(255,255,255)" stop-opacity="0.5"/><stop offset="100%" stop-color="rgb(255,255,255)" stop-opacity="0"/></radialGradient><linearGradient id="__lottie_element_37683" spreadMethod="pad" gradientUnits="userSpaceOnUse" x1="130" y1="129" x2="54.858001708984375" y2="171.66099548339844"><stop offset="0%" stop-color="rgb(162,161,164)" stop-opacity="1"/><stop offset="41%" stop-color="rgb(177,177,180)" stop-opacity="0.5"/><stop offset="100%" stop-color="rgb(193,193,195)" stop-opacity="0"/></linearGradient><linearGradient id="__lottie_element_37689" spreadMethod="pad" gradientUnits="userSpaceOnUse" x1="-123" y1="-118" x2="-196.2740020751953" y2="-139.1439971923828"><stop offset="13%" stop-color="rgb(196,196,196)"/><stop offset="54%" stop-color="rgb(182,182,182)"/><stop offset="95%" stop-color="rgb(168,168,168)"/></linearGradient><radialGradient id="__lottie_element_37690" spreadMethod="pad" gradientUnits="userSpaceOnUse" cx="-187.7530059814453" cy="-98.56800079345703" r="18.8680375236576" fx="-187.7530059814453" fy="-98.56800079345703"><stop offset="0%" stop-color="rgb(240,240,240)" stop-opacity="1"/><stop offset="62%" stop-color="rgb(240,240,240)" stop-opacity="0.5"/><stop offset="95%" stop-color="rgb(240,240,240)" stop-opacity="0"/></radialGradient><radialGradient id="__lottie_element_37691" spreadMethod="pad" gradientUnits="userSpaceOnUse" cx="-157.96299743652344" cy="-164.625" r="46.71027786894216" fx="-157.96299743652344" fy="-164.625"><stop offset="0%" stop-color="rgb(255,255,255)" stop-opacity="0.699999988079071"/><stop offset="50%" stop-color="rgb(255,255,255)" stop-opacity="0.3499999940395355"/><stop offset="100%" stop-color="rgb(255,255,255)" stop-opacity="0"/></radialGradient><radialGradient id="__lottie_element_37692" spreadMethod="pad" gradientUnits="userSpaceOnUse" cx="-81.34600067138672" cy="-114.3949966430664" r="34.181484867437334" fx="-81.34600067138672" fy="-114.3949966430664"><stop offset="0%" stop-color="rgb(92,92,92)" stop-opacity="0.8999999761581421"/><stop offset="73%" stop-color="rgb(152,152,152)" stop-opacity="0.44999998807907104"/><stop offset="100%" stop-color="rgb(212,212,212)" stop-opacity="0"/></radialGradient><radialGradient id="__lottie_element_37693" spreadMethod="pad" gradientUnits="userSpaceOnUse" cx="-156.572998046875" cy="-61.999000549316406" r="35.88213917125014" fx="-156.572998046875" fy="-61.999000549316406"><stop offset="0%" stop-color="rgb(92,92,92)" stop-opacity="0.8999999761581421"/><stop offset="73%" stop-color="rgb(152,152,152)" stop-opacity="0.44999998807907104"/><stop offset="100%" stop-color="rgb(212,212,212)" stop-opacity="0"/></radialGradient><radialGradient id="__lottie_element_37694" spreadMethod="pad" gradientUnits="userSpaceOnUse" cx="-137.3280029296875" cy="-118.31800079345703" r="40.203150318950705" fx="-137.3280029296875" fy="-118.31800079345703"><stop offset="0%" stop-color="rgb(240,240,240)" stop-opacity="1"/><stop offset="64%" stop-color="rgb(240,240,240)" stop-opacity="0.5"/><stop offset="95%" stop-color="rgb(240,240,240)" stop-opacity="0"/></radialGradient><radialGradient id="__lottie_element_37695" spreadMethod="pad" gradientUnits="userSpaceOnUse" cx="-137.3280029296875" cy="-118.31800079345703" r="40.203150318950705" fx="-137.3280029296875" fy="-118.31800079345703"><stop offset="0%" stop-color="rgb(240,240,240)" stop-opacity="1"/><stop offset="64%" stop-color="rgb(240,240,240)" stop-opacity="0.5"/><stop offset="95%" stop-color="rgb(240,240,240)" stop-opacity="0"/></radialGradient><linearGradient id="__lottie_element_37699" spreadMethod="pad" gradientUnits="userSpaceOnUse"><stop/><stop/><stop/></linearGradient><linearGradient id="__lottie_element_37700" spreadMethod="pad" gradientUnits="userSpaceOnUse"><stop/><stop/><stop/></linearGradient><linearGradient id="__lottie_element_37701" spreadMethod="pad" gradientUnits="userSpaceOnUse"><stop/><stop/><stop/></linearGradient><linearGradient id="__lottie_element_37702" spreadMethod="pad" gradientUnits="userSpaceOnUse"><stop/><stop/><stop/></linearGradient><linearGradient id="__lottie_element_37706" spreadMethod="pad" gradientUnits="userSpaceOnUse" x1="-48" y1="-167" x2="-56.790000915527344" y2="-191.7429962158203"><stop offset="0%" stop-color="rgb(226,226,226)"/><stop offset="37%" stop-color="rgb(205,205,205)"/><stop offset="89%" stop-color="rgb(183,183,183)"/></linearGradient><linearGradient id="__lottie_element_37707" spreadMethod="pad" gradientUnits="userSpaceOnUse" x1="-5.959000110626221" y1="-171.51100158691406" x2="-94.83300018310547" y2="-179.92599487304688"><stop offset="0%" stop-color="rgb(202,150,147)"/><stop offset="50%" stop-color="rgb(194,125,120)"/><stop offset="99%" stop-color="rgb(186,101,92)"/></linearGradient><linearGradient id="__lottie_element_37708" spreadMethod="pad" gradientUnits="userSpaceOnUse" x1="-22.0939998626709" y1="-184.34300231933594" x2="-92.27400207519531" y2="-164.08700561523438"><stop offset="37%" stop-color="rgb(135,84,83)" stop-opacity="0"/><stop offset="68%" stop-color="rgb(120,65,63)" stop-opacity="0.5"/><stop offset="100%" stop-color="rgb(105,46,44)" stop-opacity="1"/></linearGradient><linearGradient id="__lottie_element_37709" spreadMethod="pad" gradientUnits="userSpaceOnUse" x1="-48.987998962402344" y1="-174.06900024414062" x2="-62.5989990234375" y2="-191.70799255371094"><stop offset="0%" stop-color="rgb(137,56,54)" stop-opacity="0"/><stop offset="50%" stop-color="rgb(137,56,54)" stop-opacity="0.5"/><stop offset="100%" stop-color="rgb(137,56,54)" stop-opacity="1"/></linearGradient><radialGradient id="__lottie_element_37713" spreadMethod="pad" gradientUnits="userSpaceOnUse"><stop/><stop/><stop/></radialGradient><radialGradient id="__lottie_element_37714" spreadMethod="pad" gradientUnits="userSpaceOnUse"><stop/><stop/><stop/></radialGradient><linearGradient id="__lottie_element_37715" spreadMethod="pad" gradientUnits="userSpaceOnUse"><stop/><stop/><stop/></linearGradient><linearGradient id="__lottie_element_37716" spreadMethod="pad" gradientUnits="userSpaceOnUse"><stop/><stop/><stop/></linearGradient><radialGradient id="__lottie_element_37720" spreadMethod="pad" gradientUnits="userSpaceOnUse"><stop/><stop/><stop/></radialGradient><radialGradient id="__lottie_element_37721" spreadMethod="pad" gradientUnits="userSpaceOnUse"><stop/><stop/><stop/></radialGradient><linearGradient id="__lottie_element_37722" spreadMethod="pad" gradientUnits="userSpaceOnUse"><stop/><stop/><stop/></linearGradient><linearGradient id="__lottie_element_37723" spreadMethod="pad" gradientUnits="userSpaceOnUse"><stop/><stop/><stop/></linearGradient><radialGradient id="__lottie_element_37727" spreadMethod="pad" gradientUnits="userSpaceOnUse" cx="-152" cy="-128" r="19.070999145507812" fx="-152" fy="-128"><stop offset="13%" stop-color="rgb(255,255,255)" stop-opacity="1"/><stop offset="54%" stop-color="rgb(255,255,255)" stop-opacity="0.5"/><stop offset="85%" stop-color="rgb(255,255,255)" stop-opacity="0"/></radialGradient><radialGradient id="__lottie_element_37728" spreadMethod="pad" gradientUnits="userSpaceOnUse" cx="-160" cy="-140" r="10.028766243874141" fx="-160" fy="-140"><stop offset="5%" stop-color="rgb(105,0,0)"/><stop offset="40%" stop-color="rgb(143,17,14)"/><stop offset="77%" stop-color="rgb(181,34,27)"/></radialGradient><linearGradient id="__lottie_element_37729" spreadMethod="pad" gradientUnits="userSpaceOnUse" x1="-157" y1="-147" x2="-160.3000030517578" y2="-135.6009979248047"><stop offset="5%" stop-color="rgb(105,0,0)" stop-opacity="1"/><stop offset="57%" stop-color="rgb(106,0,0)" stop-opacity="0.5"/><stop offset="100%" stop-color="rgb(106,0,0)" stop-opacity="0"/></linearGradient><linearGradient id="__lottie_element_37730" spreadMethod="pad" gradientUnits="userSpaceOnUse" x1="-162" y1="-144" x2="-159.86099243164062" y2="-140.2310028076172"><stop offset="0%" stop-color="rgb(255,255,255)" stop-opacity="1"/><stop offset="69%" stop-color="rgb(245,245,245)" stop-opacity="0.5"/><stop offset="100%" stop-color="rgb(234,234,234)" stop-opacity="0"/></linearGradient><linearGradient id="__lottie_element_37737" spreadMethod="pad" gradientUnits="userSpaceOnUse"><stop/><stop/><stop/></linearGradient><linearGradient id="__lottie_element_37738" spreadMethod="pad" gradientUnits="userSpaceOnUse"><stop/><stop/><stop/></linearGradient><linearGradient id="__lottie_element_37739" spreadMethod="pad" gradientUnits="userSpaceOnUse"><stop/><stop/><stop/></linearGradient><linearGradient id="__lottie_element_37740" spreadMethod="pad" gradientUnits="userSpaceOnUse"><stop/><stop/><stop/></linearGradient><linearGradient id="__lottie_element_37744" spreadMethod="pad" gradientUnits="userSpaceOnUse"><stop/><stop/><stop/></linearGradient><linearGradient id="__lottie_element_37745" spreadMethod="pad" gradientUnits="userSpaceOnUse"><stop/><stop/><stop/></linearGradient><linearGradient id="__lottie_element_37746" spreadMethod="pad" gradientUnits="userSpaceOnUse"><stop/><stop/><stop/></linearGradient><linearGradient id="__lottie_element_37747" spreadMethod="pad" gradientUnits="userSpaceOnUse"><stop/><stop/><stop/></linearGradient><linearGradient id="__lottie_element_37751" spreadMethod="pad" gradientUnits="userSpaceOnUse" x1="-89" y1="-168" x2="-50.57400131225586" y2="-225.41400146484375"><stop offset="0%" stop-color="rgb(122,122,124)"/><stop offset="37%" stop-color="rgb(152,152,154)"/><stop offset="89%" stop-color="rgb(183,183,183)"/></linearGradient><linearGradient id="__lottie_element_37752" spreadMethod="pad" gradientUnits="userSpaceOnUse" x1="-5.959000110626221" y1="-171.51100158691406" x2="-94.83300018310547" y2="-179.92599487304688"><stop offset="0%" stop-color="rgb(202,150,147)"/><stop offset="50%" stop-color="rgb(194,125,120)"/><stop offset="99%" stop-color="rgb(186,101,92)"/></linearGradient><linearGradient id="__lottie_element_37753" spreadMethod="pad" gradientUnits="userSpaceOnUse" x1="-22.0939998626709" y1="-184.34300231933594" x2="-92.27400207519531" y2="-164.08700561523438"><stop offset="37%" stop-color="rgb(135,84,83)" stop-opacity="0"/><stop offset="68%" stop-color="rgb(120,65,63)" stop-opacity="0.5"/><stop offset="100%" stop-color="rgb(105,46,44)" stop-opacity="1"/></linearGradient><linearGradient id="__lottie_element_37754" spreadMethod="pad" gradientUnits="userSpaceOnUse" x1="-48.987998962402344" y1="-174.06900024414062" x2="-62.5989990234375" y2="-191.70799255371094"><stop offset="0%" stop-color="rgb(137,56,54)" stop-opacity="0"/><stop offset="50%" stop-color="rgb(137,56,54)" stop-opacity="0.5"/><stop offset="100%" stop-color="rgb(137,56,54)" stop-opacity="1"/></linearGradient><linearGradient id="__lottie_element_37758" spreadMethod="pad" gradientUnits="userSpaceOnUse"><stop/><stop/><stop/></linearGradient><linearGradient id="__lottie_element_37762" spreadMethod="pad" gradientUnits="userSpaceOnUse" x1="-107" y1="16" x2="-169.73500061035156" y2="69.24600219726562"><stop offset="28%" stop-color="rgb(122,122,124)"/><stop offset="54%" stop-color="rgb(152,152,154)"/><stop offset="89%" stop-color="rgb(183,183,183)"/></linearGradient><linearGradient id="__lottie_element_37763" spreadMethod="pad" gradientUnits="userSpaceOnUse" x1="-157" y1="50" x2="-122.31600189208984" y2="20.652000427246094"><stop offset="7%" stop-color="rgb(162,161,164)" stop-opacity="0"/><stop offset="45%" stop-color="rgb(137,136,138)" stop-opacity="0.5"/><stop offset="100%" stop-color="rgb(112,112,112)" stop-opacity="1"/></linearGradient></defs><g clip-path="url(#__lottie_element_37632)"><g clip-path="url(#__lottie_element_37637)" style="display: block;" transform="matrix(1,0,0,1,-198.5,-110.5)" opacity="1"><g style="display: block;" transform="matrix(1,0,0,1,446.5,378.5)" opacity="1"><g opacity="1" transform="matrix(1,0,0,1,0,0)"><path fill="rgb(160,160,163)" fill-opacity="1" d=" M57,196 C57,196 53,185 53,185 C53,185 -16.32699966430664,176.94200134277344 -16.32699966430664,176.94200134277344 C-31.613000869750977,163.08599853515625 -76.08699798583984,151.0399932861328 -79.39399719238281,196.95899963378906 C-79.39399719238281,196.95899963378906 57,196 57,196z"/></g><g opacity="1" transform="matrix(1,0,0,1,0,0)"><path stroke-linecap="round" stroke-linejoin="round" fill-opacity="0" stroke="rgb(120,120,120)" stroke-opacity="1" stroke-width="8" d=" M57,196.95899963378906 C57,196.95899963378906 53,184 53,184 C53,184 -16.32699966430664,176.94200134277344 -16.32699966430664,176.94200134277344 C-30.8439998626709,167.70399475097656 -75.6510009765625,151.718994140625 -79.17400360107422,192.05499267578125 C-79.40499877929688,194.6999969482422 -77.27400207519531,196.95899963378906 -74.61900329589844,196.95899963378906 C-74.61900329589844,196.95899963378906 57,196.95899963378906 57,196.95899963378906z"/></g><g opacity="0.5" transform="matrix(1,0,0,1,0,0)"><path stroke-linecap="round" stroke-linejoin="round" fill-opacity="0" stroke="rgb(120,120,120)" stroke-opacity="1" stroke-width="8" d=" M-54.7239990234375,180.3070068359375 C-54.7239990234375,180.3070068359375 -63.26100158691406,182.97300720214844 -63.26100158691406,196.95899963378906"/></g></g><g style="display: block;" transform="matrix(1,0,0,1,446.5,378.5)" opacity="1"><g opacity="1" transform="matrix(1,0,0,1,0,0)"><path fill="rgb(130,130,130)" fill-opacity="1" d=" M-40.266998291015625,62.37799835205078 C-56.81700134277344,81.97699737548828 -52.902000427246094,224.53199768066406 69.9219970703125,169.51800537109375 C215.64599609375,104.24700164794922 3.3610000610351562,-25.719999313354492 -40.266998291015625,62.37799835205078z"/><path stroke-linecap="round" stroke-linejoin="round" fill-opacity="0" stroke="rgb(99,99,99)" stroke-opacity="1" stroke-width="8" d=" M-40.266998291015625,62.37799835205078 C-56.81700134277344,81.97699737548828 -52.902000427246094,224.53199768066406 69.9219970703125,169.51800537109375 C215.64599609375,104.24700164794922 3.3610000610351562,-25.719999313354492 -40.266998291015625,62.37799835205078z"/></g></g><g style="display: block;" transform="matrix(1,0,0,1,464.5,377.5)" opacity="1"><g opacity="1" transform="matrix(1,0,0,1,0,0)"><g opacity="1" transform="matrix(1,0,0,1,0,0)"><path fill="rgb(194,194,194)" fill-opacity="1" d=" M-122.86100006103516,7.164999961853027 C-139.83999633789062,12.579000473022461 -158.29600524902344,27.341999053955078 -166.1699981689453,45.79800033569336 C-174.04400634765625,64.25399780273438 -180.68899536132812,64.5009994506836 -184.62600708007812,72.62100219726562 C-188.56300354003906,80.74099731445312 -184.625,91.07599639892578 -180.68800354003906,91.3219985961914 C-176.75100708007812,91.56800079345703 -155.53199768066406,77.39600372314453 -146.72999572753906,61.792999267578125 C-135.9029998779297,42.5989990234375 -119.90799713134766,38.16999816894531 -108.09600067138672,39.15399932861328 C-96.28399658203125,40.13800048828125 -80.53600311279297,26.604999542236328 -85.21099853515625,14.300999641418457 C-89.88600158691406,1.996999979019165 -122.86100006103516,7.164999961853027 -122.86100006103516,7.164999961853027z"/><path fill="url(#__lottie_element_37762)" fill-opacity="1" d=" M-122.86100006103516,7.164999961853027 C-139.83999633789062,12.579000473022461 -158.29600524902344,27.341999053955078 -166.1699981689453,45.79800033569336 C-174.04400634765625,64.25399780273438 -180.68899536132812,64.5009994506836 -184.62600708007812,72.62100219726562 C-188.56300354003906,80.74099731445312 -184.625,91.07599639892578 -180.68800354003906,91.3219985961914 C-176.75100708007812,91.56800079345703 -155.53199768066406,77.39600372314453 -146.72999572753906,61.792999267578125 C-135.9029998779297,42.5989990234375 -119.90799713134766,38.16999816894531 -108.09600067138672,39.15399932861328 C-96.28399658203125,40.13800048828125 -80.53600311279297,26.604999542236328 -85.21099853515625,14.300999641418457 C-89.88600158691406,1.996999979019165 -122.86100006103516,7.164999961853027 -122.86100006103516,7.164999961853027z"/></g><g opacity="1" transform="matrix(1,0,0,1,0,0)"><path fill="url(#__lottie_element_37763)" fill-opacity="1" d=" M-151.93899536132812,23.676000595092773 C-130.62600708007812,25.68000030517578 -140.97000122070312,52.43199920654297 -140.97000122070312,52.43199920654297 C-140.97000122070312,52.43199920654297 -109.5469970703125,33.45899963378906 -109.5469970703125,33.45899963378906 C-109.5469970703125,33.45899963378906 -132.3730010986328,6.7789998054504395 -132.3730010986328,6.7789998054504395 C-132.3730010986328,6.7789998054504395 -151.93899536132812,23.676000595092773 -151.93899536132812,23.676000595092773z"/></g><g opacity="1" transform="matrix(1,0,0,1,0,0)"><path stroke-linecap="round" stroke-linejoin="round" fill-opacity="0" stroke="rgb(120,120,120)" stroke-opacity="1" stroke-width="8" d=" M-122.86100006103516,7.164999961853027 C-139.83999633789062,12.579000473022461 -158.29600524902344,27.341999053955078 -166.1699981689453,45.79800033569336 C-174.04400634765625,64.25399780273438 -180.68899536132812,64.5009994506836 -184.62600708007812,72.62100219726562 C-188.56300354003906,80.74099731445312 -184.625,91.07599639892578 -180.68800354003906,91.3219985961914 C-176.75100708007812,91.56800079345703 -155.53199768066406,77.39600372314453 -146.72999572753906,61.792999267578125 C-135.9029998779297,42.5989990234375 -119.90799713134766,38.16999816894531 -108.09600067138672,39.15399932861328 C-96.28399658203125,40.13800048828125 -80.53600311279297,26.604999542236328 -85.21099853515625,14.300999641418457 C-89.88600158691406,1.996999979019165 -122.86100006103516,7.164999961853027 -122.86100006103516,7.164999961853027z"/></g></g><g opacity="0.5" transform="matrix(1,0,0,1,0,0)"><path stroke-linecap="round" stroke-linejoin="round" fill-opacity="0" stroke="rgb(120,120,120)" stroke-opacity="1" stroke-width="8" d=" M-172.60400390625,75.19599914550781 C-172.60400390625,75.19599914550781 -175.1300048828125,79.78900146484375 -170.7530059814453,86.3499984741211"/></g></g><g style="display: block;" transform="matrix(1,0,0,1,464.5,377.5)" opacity="1"><g opacity="1" transform="matrix(1,0,0,1,0,0)"><path fill="url(#__lottie_element_37751)" fill-opacity="1" d=" M-116.21900177001953,-161.8780059814453 C-116.21900177001953,-161.8780059814453 -106.50399780273438,-189.86199951171875 -92.2760009765625,-199.69200134277344 C-72.70999908447266,-213.20899963378906 -34.33000183105469,-224.67300415039062 -29.9689998626709,-219.66900634765625 C-23.940000534057617,-212.7519989013672 -54.79100036621094,-175.4530029296875 -74.18399810791016,-162.6540069580078 C-91.1780014038086,-151.43800354003906 -106.3759994506836,-150.2429962158203 -106.3759994506836,-150.2429962158203"/><path stroke-linecap="round" stroke-linejoin="round" fill-opacity="0" stroke="rgb(120,120,120)" stroke-opacity="1" stroke-width="8" d=" M-116.21900177001953,-161.8780059814453 C-116.21900177001953,-161.8780059814453 -106.50399780273438,-189.86199951171875 -92.2760009765625,-199.69200134277344 C-72.70999908447266,-213.20899963378906 -34.33000183105469,-224.67300415039062 -29.9689998626709,-219.66900634765625 C-23.940000534057617,-212.7519989013672 -54.79100036621094,-175.4530029296875 -74.18399810791016,-162.6540069580078 C-91.1780014038086,-151.43800354003906 -106.3759994506836,-150.2429962158203 -106.3759994506836,-150.2429962158203"/></g><g opacity="0" transform="matrix(0.9829224944114685,-0.18401996791362762,0.18401996791362762,0.9829224944114685,10.027687072753906,-20.937896728515625)"><g opacity="1" transform="matrix(1,0,0,1,0,0)"><path fill="url(#__lottie_element_37752)" fill-opacity="1" d=" M-103.27200317382812,-149.06500244140625 C-104.58100128173828,-148.8520050048828 -105.60900115966797,-150.21200561523438 -105.23899841308594,-151.47300720214844 C-103.22200012207031,-158.35000610351562 -83.4010009765625,-159.3300018310547 -52.564998626708984,-171.9929962158203 C-21.64900016784668,-184.68899536132812 -11.085000038146973,-196.8489990234375 -7.580999851226807,-197.39500427246094 C-6.324999809265137,-197.59100341796875 -5.598999977111816,-195.9149932861328 -6.103000164031982,-194.75999450683594 C-19.551000595092773,-163.95399475097656 -57.198001861572266,-156.5679931640625 -103.27200317382812,-149.06500244140625z"/></g><g opacity="0.47000000000000003" transform="matrix(1,0,0,1,0,0)"><path fill="url(#__lottie_element_37753)" fill-opacity="1" d=" M-103.31400299072266,-149.06199645996094 C-104.60099792480469,-148.8419952392578 -105.61399841308594,-150.19200134277344 -105.2509994506836,-151.4340057373047 C-103.25299835205078,-158.2779998779297 -83.45899963378906,-159.30599975585938 -52.564998626708984,-171.9929962158203 C-21.58799934387207,-184.71400451660156 -10.565999984741211,-196.96299743652344 -7.540999889373779,-197.38999938964844 C-6.302000045776367,-197.56500244140625 -5.591000080108643,-195.9340057373047 -6.086999893188477,-194.79600524902344 C-19.527000427246094,-163.95700073242188 -53.25600051879883,-157.60899353027344 -103.31400299072266,-149.06199645996094z"/></g><g opacity="1" transform="matrix(1,0,0,1,0,0)"><path fill="url(#__lottie_element_37754)" fill-opacity="1" d=" M-6.559000015258789,-196.43499755859375 C-1.2940000295639038,-186.4409942626953 -55.05799865722656,-164.13699340820312 -81.51899719238281,-151.5229949951172 C-88.42500305175781,-150.4409942626953 -95.69999694824219,-149.6300048828125 -103.30999755859375,-149.06700134277344 C-104.61699676513672,-148.96499633789062 -105.61599731445312,-150.1959991455078 -105.25199890136719,-151.4290008544922 C-103.2509994506836,-158.27699279785156 -83.45500183105469,-159.3070068359375 -52.560001373291016,-171.99000549316406 C-21.58799934387207,-184.7169952392578 -8.289999961853027,-199.7209930419922 -6.559000015258789,-196.43499755859375z"/></g></g></g><g style="display: block;" transform="matrix(1,0,0,1,464.5,377.5)" opacity="1"><g opacity="1" transform="matrix(1,0,0,1,0,0)"><path fill="url(#__lottie_element_37645)" fill-opacity="1" d=" M201.3489990234375,118.82099914550781 C189.9040069580078,101.92500305175781 179.31700134277344,112.38800048828125 167.55799865722656,110.64600372314453 C163.14300537109375,109.99199676513672 159.11700439453125,107.6240005493164 155.80999755859375,104.9209976196289 C157.10699462890625,62.854000091552734 139.48800659179688,15.444000244140625 111.01000213623047,-6.418000221252441 C71.7969970703125,-36.520999908447266 8.020000457763672,-48.59400177001953 -12.96500015258789,-57.51300048828125 C-33.95000076293945,-66.43199920654297 -42.479000091552734,-88.11199951171875 -74.87200164794922,-100.48799896240234 C-87.85199737548828,-105.4469985961914 -87.68599700927734,-116.58399963378906 -87.68599700927734,-116.58399963378906 C-87.68599700927734,-116.58399963378906 -151.49600219726562,-71.85099792480469 -151.49600219726562,-71.85099792480469 C-135.06100463867188,-50.933998107910156 -145.23800659179688,-8.291000366210938 -125.8270034790039,21.089000701904297 C-106.41600036621094,50.46900177001953 -74.26499938964844,50.637001037597656 -60.099998474121094,73.19599914550781 C-45.935001373291016,95.75499725341797 -6.755000114440918,208.6179962158203 104.48799896240234,182.1510009765625 C110.91500091552734,180.6219940185547 116.66200256347656,178.25399780273438 121.7959976196289,175.20799255371094 C123.10099792480469,181.97300720214844 127.71800231933594,189.47799682617188 141.3489990234375,191.2949981689453 C177.73800659179688,196.14700317382812 213.49099731445312,136.7449951171875 201.3489990234375,118.82099914550781z"/></g><g opacity="0.49" transform="matrix(1,0,0,1,-0.1809999942779541,0.1850000023841858)"><path fill="url(#__lottie_element_37646)" fill-opacity="1" d=" M201.3489990234375,118.82099914550781 C189.9040069580078,101.92500305175781 179.31700134277344,112.38800048828125 167.55799865722656,110.64600372314453 C163.14300537109375,109.99199676513672 159.11700439453125,107.6240005493164 155.80999755859375,104.9209976196289 C157.10699462890625,62.854000091552734 139.48800659179688,15.444000244140625 111.01000213623047,-6.418000221252441 C71.7969970703125,-36.520999908447266 8.020000457763672,-48.59400177001953 -12.96500015258789,-57.51300048828125 C-33.95000076293945,-66.43199920654297 -42.479000091552734,-88.11199951171875 -74.87200164794922,-100.48799896240234 C-87.85199737548828,-105.4469985961914 -87.68599700927734,-116.58399963378906 -87.68599700927734,-116.58399963378906 C-87.68599700927734,-116.58399963378906 -151.49600219726562,-71.85099792480469 -151.49600219726562,-71.85099792480469 C-135.06100463867188,-50.933998107910156 -145.23800659179688,-8.291000366210938 -125.8270034790039,21.089000701904297 C-106.41600036621094,50.46900177001953 -74.26499938964844,50.637001037597656 -60.099998474121094,73.19599914550781 C-45.935001373291016,95.75499725341797 -6.755000114440918,208.6179962158203 104.48799896240234,182.1510009765625 C110.91500091552734,180.6219940185547 116.66200256347656,178.25399780273438 121.7959976196289,175.20799255371094 C123.10099792480469,181.97300720214844 127.71800231933594,189.47799682617188 141.3489990234375,191.2949981689453 C177.73800659179688,196.14700317382812 213.49099731445312,136.7449951171875 201.3489990234375,118.82099914550781z"/></g><g opacity="0.5" transform="matrix(1,0,0,1,0,0)"><path fill="url(#__lottie_element_37647)" fill-opacity="1" d=" M147.15499877929688,46.422000885009766 C139.6580047607422,20.763999938964844 123.86399841308594,-7.882999897003174 95.24800109863281,-19.80500030517578 C63.64099884033203,-32.972999572753906 16.523000717163086,-43.15599822998047 -16.26099967956543,-60.07400131225586 C-46.21799850463867,-75.53299713134766 -62.72100067138672,-98.37799835205078 -74.71800231933594,-98.37799835205078 C-55.45000076293945,-87.64199829101562 -44.362998962402344,-62.446998596191406 -24.065000534057617,-51.249000549316406 C2.3510000705718994,-36.67499923706055 25.85300064086914,-36.65599822998047 63.88800048828125,-20.051000595092773 C148.02099609375,16.68000030517578 146.76100158691406,77.91000366210938 153.80999755859375,103.9209976196289 C153.80999755859375,103.9209976196289 158.57200622558594,85.49400329589844 147.15499877929688,46.422000885009766z"/></g><g opacity="1" transform="matrix(0.7312082052230835,0.8006909489631653,-0.6994093060493469,0.6387156248092651,-43.72700119018555,53.14799880981445)"><path fill="url(#__lottie_element_37648)" fill-opacity="1" d=" M-7.685999870300293,-58.0629997253418 C14.928000450134277,-18.895000457763672 -7.4670000076293945,20.731000900268555 -34.93600082397461,36.59000015258789 C-62.404998779296875,52.44900131225586 -99.9260025024414,45.35100173950195 -122.54000091552734,6.183000087738037 C-145.1540069580078,-32.98500061035156 -141.21800231933594,-77.59500122070312 -113.7490005493164,-93.4540023803711 C-86.27999877929688,-109.31300354003906 -30.299999237060547,-97.23100280761719 -7.685999870300293,-58.0629997253418z"/></g><g opacity="1" transform="matrix(1,0,0,1,0,0)"><g opacity="1" transform="matrix(1,0,0,1,0,0)"><path fill="url(#__lottie_element_37649)" fill-opacity="1" d=" M95.93599700927734,-1.4500000476837158 C142.61000061035156,32.96099853515625 158.86099243164062,90.13600158691406 132.23300170898438,126.25399780273438 C105.6050033569336,162.3719940185547 46.180999755859375,163.75599670410156 -0.49300000071525574,129.34500122070312 C-47.16699981689453,94.93399810791016 -63.417999267578125,37.75899887084961 -36.790000915527344,1.6410000324249268 C-10.161999702453613,-34.47700119018555 49.262001037597656,-35.861000061035156 95.93599700927734,-1.4500000476837158z"/></g><g opacity="1" transform="matrix(0.3754096031188965,-0.546367347240448,0.8289098143577576,0.5695448517799377,-23.777000427246094,53.332000732421875)"><path fill="url(#__lottie_element_37650)" fill-opacity="1" d=" M186.05299377441406,65.81600189208984 C183.69000244140625,122.9489974975586 73.36299896240234,176.08399963378906 28.569000244140625,178.7530059814453 C-16.225000381469727,181.4219970703125 -76.68699645996094,125.88800048828125 -80.13700103759766,68.00299835205078 C-83.58699798583984,10.118000030517578 -19.687999725341797,-26.500999450683594 21.941999435424805,-43.250999450683594 C96.97000122070312,-73.44000244140625 188.44900512695312,7.877999782562256 186.05299377441406,65.81600189208984z"/></g></g><g opacity="1" transform="matrix(1,0,0,1,0,0)"><g opacity="0.79" transform="matrix(0.4785197079181671,0.24809403717517853,-0.3701595664024353,0.7139577269554138,145.19601440429688,-0.1674346923828125)"><path fill="url(#__lottie_element_37651)" fill-opacity="1" d=" M206.65899658203125,176.1219940185547 C194.9969940185547,196.2570037841797 163.5,201.5 144.6719970703125,189.83999633789062 C134.3280029296875,183.4340057373047 111.1719970703125,176.38800048828125 130.70199584960938,127.66200256347656 C147,87 190.96499633789062,91.79000091552734 207.67999267578125,105.78800201416016 C217.00799560546875,113.5999984741211 227,141 206.65899658203125,176.1219940185547z"/></g><g opacity="1" transform="matrix(1,0,0,1,0,0)"><path fill="url(#__lottie_element_37652)" fill-opacity="1" d=" M154.94900512695312,107.44100189208984 C160.10499572753906,119.00199890136719 170.96400451660156,120.17400360107422 184.26600646972656,120.01899719238281 C201.3489990234375,119.81999969482422 186.01400756835938,168.64700317382812 161.27999877929688,185.44500732421875 C161.27999877929688,185.44500732421875 205.35800170898438,160.7790069580078 203.76400756835938,130.93800354003906 C202.1699981689453,101.09700012207031 182.1280059814453,109.76699829101562 174.84300231933594,110.20600128173828 C167.55799865722656,110.6449966430664 154.94900512695312,107.44100189208984 154.94900512695312,107.44100189208984z"/></g></g><g opacity="1" transform="matrix(1,0,0,1,0,0)"><path stroke-linecap="round" stroke-linejoin="round" fill-opacity="0" stroke="rgb(132,132,132)" stroke-opacity="1" stroke-width="8" d=" M155.85699462890625,104.73400115966797 C157.6300048828125,62.297000885009766 139.82899475097656,15.706000328063965 111.01000213623047,-6.418000221252441 C71.7969970703125,-36.520999908447266 8.020000457763672,-48.59400177001953 -12.96500015258789,-57.51300048828125 C-33.95000076293945,-66.43199920654297 -42.479000091552734,-88.11199951171875 -74.87200164794922,-100.48799896240234 C-87.85199737548828,-105.4469985961914 -87.68599700927734,-116.58399963378906 -87.68599700927734,-116.58399963378906"/></g><g opacity="1" transform="matrix(1,0,0,1,0,0)"><path fill="url(#__lottie_element_37653)" fill-opacity="1" d=" M-21.69099998474121,40.10300064086914 C-13.081000328063965,75.45899963378906 19.766000747680664,102.3030014038086 71.30599975585938,63.784000396728516 C96.69499969482422,44.808998107910156 39.50400161743164,177.072998046875 39.50400161743164,177.072998046875 C-31.148000717163086,162.92599487304688 -50.77399826049805,62.749000549316406 -77.64299774169922,52.73899841308594 C-77.64299774169922,52.73899841308594 -70.60600280761719,59.44599914550781 -54.07099914550781,56.60300064086914 C-25.166000366210938,51.63399887084961 -22.094999313354492,38.44300079345703 -21.69099998474121,40.10300064086914z"/></g><g opacity="0.7000000000000001" transform="matrix(1,0,0,1,0,0)"><path fill="url(#__lottie_element_37654)" fill-opacity="1" d=" M-21.69099998474121,40.10300064086914 C-13.081000328063965,75.45899963378906 19.766000747680664,102.3030014038086 71.30599975585938,63.784000396728516 C96.69499969482422,44.808998107910156 39.50400161743164,177.072998046875 39.50400161743164,177.072998046875 C-31.148000717163086,162.92599487304688 -50.77399826049805,62.749000549316406 -77.64299774169922,52.73899841308594 C-77.64299774169922,52.73899841308594 -70.60600280761719,59.44599914550781 -54.07099914550781,56.60300064086914 C-25.166000366210938,51.63399887084961 -22.094999313354492,38.44300079345703 -21.69099998474121,40.10300064086914z"/></g><g opacity="1" transform="matrix(1,0,0,1,0,0)"><path fill="url(#__lottie_element_37655)" fill-opacity="1" d=" M-115.88700103759766,32.11899948120117 C-115.88700103759766,32.11899948120117 -66.072998046875,7.210999965667725 -76.03600311279297,-20.684999465942383 C-85.9990005493164,-48.58100128173828 -128.83900451660156,-80.96099853515625 -139.79800415039062,-74.48500061035156 C-150.7570037841797,-68.00900268554688 -140.29600524902344,25.145000457763672 -115.88700103759766,32.11899948120117z"/></g><g opacity="1" transform="matrix(1,0,0,1,0,0)"><path stroke-linecap="round" stroke-linejoin="round" fill-opacity="0" stroke="rgb(99,99,99)" stroke-opacity="1" stroke-width="8" d=" M-60.099998474121094,73.19599914550781 C-45.935001373291016,95.75499725341797 -6.755000114440918,208.6179962158203 104.48799896240234,182.1510009765625 C110.93199920654297,180.6179962158203 116.71299743652344,178.19900512695312 121.86299896240234,175.04299926757812"/></g><g opacity="1" transform="matrix(1,0,0,1,0,0)"><path stroke-linecap="round" stroke-linejoin="round" fill-opacity="0" stroke="rgb(99,99,99)" stroke-opacity="1" stroke-width="8" d=" M-151.49600219726562,-71.85099792480469 C-135.06199645996094,-50.933998107910156 -145.23800659179688,-8.291000366210938 -125.8270034790039,21.089000701904297 C-106.41600036621094,50.46900177001953 -74.26499938964844,50.637001037597656 -60.099998474121094,73.19599914550781"/></g><g opacity="1" transform="matrix(1,0,0,1,0,0)"><path stroke-linecap="round" stroke-linejoin="round" fill-opacity="0" stroke="rgb(129,129,129)" stroke-opacity="1" stroke-width="8" d=" M156.11199951171875,99.19999694824219 C156.11199951171875,99.19999694824219 155.7989959716797,108.90399932861328 167.55799865722656,110.64600372314453 C179.31700134277344,112.38800048828125 189.9040069580078,101.92500305175781 201.3489990234375,118.82099914550781 C213.49099731445312,136.7449951171875 177.73800659179688,196.14700317382812 141.3489990234375,191.2949981689453 C115.21700286865234,187.81100463867188 122.18499755859375,163.42100524902344 122.18499755859375,163.42100524902344"/></g><g opacity="1" transform="matrix(1,0,0,1,0,0)"><path stroke-linecap="round" stroke-linejoin="round" fill-opacity="0" stroke="rgb(99,99,99)" stroke-opacity="1" stroke-width="8" d=" M171.44000244140625,182.07000732421875 C162.2100067138672,188.7779998779297 151.80599975585938,192.68899536132812 141.3489990234375,191.2949981689453 C115.21700286865234,187.81100463867188 122.18499755859375,163.42100524902344 122.18499755859375,163.42100524902344"/></g></g><g style="display: block;" transform="matrix(1,0,0,1,464.5,377.5)" opacity="1"><g opacity="1" transform="matrix(1,0,0,1,0,0)"><path fill="url(#__lottie_element_37689)" fill-opacity="1" d=" M-87.68599700927734,-115.75299835205078 C-87.68599700927734,-115.75299835205078 -83.33200073242188,-141.54800415039062 -97.49700164794922,-160.43499755859375 C-116.82499694824219,-186.2050018310547 -151.53399658203125,-170.927001953125 -168.8470001220703,-158.33599853515625 C-186.16000366210938,-145.7449951171875 -209.24400329589844,-113.21700286865234 -210.29299926757812,-109.54499816894531 C-211.3090057373047,-105.98999786376953 -207.0709991455078,-78.85299682617188 -186.0540008544922,-77.91899871826172 C-156.00399780273438,-76.58399963378906 -152.83799743652344,-73.42500305175781 -150.98399353027344,-71.3010025024414"/></g><g opacity="1" transform="matrix(1,0,0,1,0,0)"><path fill="url(#__lottie_element_37690)" fill-opacity="1" d=" M-170.38699340820312,-109.44499969482422 C-164.83099365234375,-99.8219985961914 -167.76600646972656,-87.7239990234375 -176.9429931640625,-82.4260025024414 C-186.4969940185547,-76.91000366210938 -194.43800354003906,-74.3550033569336 -203.6199951171875,-90.25800323486328 C-209.17599487304688,-99.88099670410156 -206.24099731445312,-111.97799682617188 -197.06399536132812,-117.2760009765625 C-187.88699340820312,-122.5739974975586 -175.9429931640625,-119.06800079345703 -170.38699340820312,-109.44499969482422z"/></g><g opacity="1" transform="matrix(1,0,0,1,0,0)"><path fill="url(#__lottie_element_37691)" fill-opacity="1" d=" M-202.67300415039062,-115.6050033569336 C-202.67300415039062,-115.6050033569336 -183.0989990234375,-159.04600524902344 -149.3719940185547,-169.302001953125 C-81.85700225830078,-189.83299255371094 -88.59600067138672,-137.6230010986328 -88.59600067138672,-137.6230010986328 C-114.677001953125,-176.44000244140625 -159.76100158691406,-163.67999267578125 -202.67300415039062,-115.6050033569336z"/></g><g opacity="0.74" transform="matrix(1,0,0,1,0,0)"><path fill="url(#__lottie_element_37692)" fill-opacity="1" d=" M-52.529998779296875,-79.37300109863281 C-52.055999755859375,-90.74800109863281 -80.875,-95.625 -86.24800109863281,-103.31400299072266 C-99.72100067138672,-122.59600067138672 -80.10700225830078,-142.5540008544922 -91.35399627685547,-140.79200744628906 C-123.61000061035156,-135.73800659179688 -123.40299987792969,-102.21399688720703 -115.5780029296875,-80.03099822998047 C-107.75299835205078,-57.847999572753906 -53.06399917602539,-66.56199645996094 -52.529998779296875,-79.37300109863281z"/></g><g opacity="0.91" transform="matrix(1,0,0,1,0,0)"><path fill="url(#__lottie_element_37693)" fill-opacity="1" d=" M-133.40199279785156,-33.61800003051758 C-140.29100036621094,-24.554000854492188 -132.5189971923828,-60.512001037597656 -151.2469940185547,-74.74600219726562 C-166.10400390625,-86.03800201416016 -191.4510040283203,-74.3759994506836 -185.1300048828125,-86.93800354003906 C-170.4550018310547,-116.10399627685547 -138.6009979248047,-105.65599822998047 -119.87300109863281,-91.4219970703125 C-101.1449966430664,-77.18800354003906 -126.51300048828125,-42.68199920654297 -133.40199279785156,-33.61800003051758z"/></g><g opacity="1" transform="matrix(0.9097657799720764,-0.41512200236320496,0.34062838554382324,0.7465083003044128,25.141830444335938,-88.18890380859375)"><path fill="url(#__lottie_element_37694)" fill-opacity="1" d=" M-96.40299987792969,-139.1540069580078 C-87.4749984741211,-123.69000244140625 -92.03299713134766,-95.87999725341797 -113.98400115966797,-83.20700073242188 C-135.93499755859375,-70.53399658203125 -166.9669952392578,-77.7959976196289 -175.89500427246094,-93.26000213623047 C-184.822998046875,-108.7239990234375 -181.26600646972656,-142.03399658203125 -159.31500244140625,-154.70700073242188 C-137.36399841308594,-167.3800048828125 -105.33100128173828,-154.6179962158203 -96.40299987792969,-139.1540069580078z"/></g><g opacity="0" transform="matrix(0.5667945146560669,0.8238591551780701,-0.08283904194831848,0.05699119344353676,-99.2747573852539,11.182937622070312)"><path fill="url(#__lottie_element_37695)" fill-opacity="1" d=" M-96.40299987792969,-139.1540069580078 C-87.4749984741211,-123.69000244140625 -97.52799987792969,-13.243000030517578 -119.47899627685547,-0.5699999928474426 C-141.42999267578125,12.102999687194824 -161.625,-65.23200225830078 -170.55299377441406,-80.69599914550781 C-179.4810028076172,-96.16000366210938 -178.2989959716797,-132.25999450683594 -156.34800720214844,-144.93299865722656 C-134.39700317382812,-157.6060028076172 -105.33100128173828,-154.6179962158203 -96.40299987792969,-139.1540069580078z"/></g><g opacity="1" transform="matrix(1,0,0,1,0,0)"><path stroke-linecap="round" stroke-linejoin="round" fill-opacity="0" stroke="rgb(112,112,112)" stroke-opacity="1" stroke-width="8" d=" M-210.29299926757812,-109.54499816894531 C-211.3090057373047,-105.98999786376953 -207.0709991455078,-78.85299682617188 -186.0540008544922,-77.91899871826172 C-156.00399780273438,-76.58399963378906 -152.83799743652344,-73.42500305175781 -150.98399353027344,-71.3010025024414"/></g><g opacity="1" transform="matrix(1,0,0,1,0,0)"><path stroke-linecap="round" stroke-linejoin="round" fill-opacity="0" stroke="rgb(145,145,145)" stroke-opacity="1" stroke-width="8" d=" M-87.68599700927734,-115.75299835205078 C-87.68599700927734,-115.75299835205078 -83.33200073242188,-141.54800415039062 -97.49700164794922,-160.43499755859375 C-116.82499694824219,-186.2050018310547 -153.23399353027344,-170.32400512695312 -170.5469970703125,-157.73300170898438 C-187.86000061035156,-145.14199829101562 -209.24400329589844,-113.21700286865234 -210.29299926757812,-109.54499816894531"/></g><g opacity="1" transform="matrix(1,0,0,1,0,0)"><path stroke-linecap="round" stroke-linejoin="round" fill-opacity="0" stroke="rgb(132,132,132)" stroke-opacity="1" stroke-width="8" d=" M-87.68599700927734,-115.75299835205078 C-87.68599700927734,-115.75299835205078 -83.33200073242188,-141.54800415039062 -97.49700164794922,-160.43499755859375"/></g></g><g style="display: block;" transform="matrix(1,0,0,1,464.4990234375,377.4989929199219)" opacity="1"><g opacity="1" transform="matrix(1,0,0,1,0,0)"><path fill="rgb(72,55,59)" fill-opacity="1" d=" M-211.39100646972656,-94.09100341796875 C-209.98300170898438,-102.46199798583984 -196.16299438476562,-109.74600219726562 -195.0970001220703,-111.80699920654297 C-193.94200134277344,-114.04000091552734 -206.41900634765625,-104.03500366210938 -214.13400268554688,-109.3499984741211 C-216.53399658203125,-103.3489990234375 -211.39100646972656,-94.09100341796875 -211.39100646972656,-94.09100341796875z"/></g></g><g style="display: block;" transform="matrix(1,0,0,1,464.5,377.5)" opacity="1"><g opacity="1" transform="matrix(1,0,0,1,0,0)"><path fill="url(#__lottie_element_37727)" fill-opacity="1" d=" M-144.0330047607422,-145.4010009765625 C-139.11399841308594,-139.6929931640625 -140.47900390625,-130.4510040283203 -147.08299255371094,-124.76000213623047 C-153.68699645996094,-119.06900024414062 -164.46400451660156,-118.91500091552734 -169.38299560546875,-124.62300109863281 C-174.302001953125,-130.33099365234375 -171.5019989013672,-139.74099731445312 -164.8979949951172,-145.4320068359375 C-158.29400634765625,-151.1230010986328 -148.95199584960938,-151.10899353027344 -144.0330047607422,-145.4010009765625z"/></g><g opacity="1" transform="matrix(1,0,0,1,0,0)"><g opacity="1" transform="matrix(1,0,0,1,0,0)"><path fill="url(#__lottie_element_37728)" fill-opacity="1" d=" M-149.14500427246094,-145.31399536132812 C-145.40499877929688,-140.97500610351562 -146.44400024414062,-133.9499969482422 -151.46400451660156,-129.62399291992188 C-156.48399353027344,-125.2979965209961 -165.76100158691406,-126.26599884033203 -169.50100708007812,-130.60499572753906 C-173.24099731445312,-134.94400024414062 -170.0260009765625,-141.01199340820312 -165.00599670410156,-145.33799743652344 C-159.98599243164062,-149.66400146484375 -152.88499450683594,-149.6529998779297 -149.14500427246094,-145.31399536132812z"/></g><g opacity="1" transform="matrix(1,0,0,1,0,0)"><path fill="url(#__lottie_element_37729)" fill-opacity="1" d=" M-149.14500427246094,-145.31399536132812 C-145.40499877929688,-140.97500610351562 -146.44400024414062,-133.9499969482422 -151.46400451660156,-129.62399291992188 C-156.48399353027344,-125.2979965209961 -165.76100158691406,-126.26599884033203 -169.50100708007812,-130.60499572753906 C-173.24099731445312,-134.94400024414062 -170.0260009765625,-141.01199340820312 -165.00599670410156,-145.33799743652344 C-159.98599243164062,-149.66400146484375 -152.88499450683594,-149.6529998779297 -149.14500427246094,-145.31399536132812z"/></g><g opacity="1" transform="matrix(1,0,0,1,0,0)"><path fill="url(#__lottie_element_37730)" fill-opacity="1" d=" M-155.77699279785156,-143.09800720214844 C-154.92100524902344,-141.5919952392578 -157.0260009765625,-141.27699279785156 -159.28399658203125,-139.99400329589844 C-161.54200744628906,-138.71099853515625 -163.0989990234375,-136.94400024414062 -163.9550018310547,-138.4499969482422 C-164.81100463867188,-139.95599365234375 -163.67300415039062,-142.2169952392578 -161.4149932861328,-143.5 C-159.15699768066406,-144.7830047607422 -156.63299560546875,-144.60400390625 -155.77699279785156,-143.09800720214844z"/></g><g opacity="1" transform="matrix(1,0,0,1,0,0)"><path stroke-linecap="round" stroke-linejoin="round" fill-opacity="0" stroke="rgb(35,29,29)" stroke-opacity="1" stroke-width="4" d=" M-149.14500427246094,-145.31399536132812 C-144.1719970703125,-139.54299926757812 -145.24200439453125,-133.7220001220703 -151.46400451660156,-129.62399291992188 C-156.9980010986328,-125.97899627685547 -165.76100158691406,-126.26599884033203 -169.50100708007812,-130.60499572753906 C-173.24099731445312,-134.94400024414062 -170.0260009765625,-141.01199340820312 -165.00599670410156,-145.33799743652344 C-159.98599243164062,-149.66400146484375 -152.88499450683594,-149.6529998779297 -149.14500427246094,-145.31399536132812z"/></g></g></g><g style="display: block;" transform="matrix(1,0,0,1,464.5,377.4989929199219)" opacity="1"><g opacity="1" transform="matrix(1,0,0,1,0,0)"><path fill="url(#__lottie_element_37706)" fill-opacity="1" d=" M5.041999816894531,-208.61500549316406 C-86.11000061035156,-214.468994140625 -112.47200012207031,-163.75599670410156 -112.47200012207031,-163.75599670410156 C-112.47200012207031,-163.75599670410156 -109.84400177001953,-161.6649932861328 -109.84400177001953,-161.6649932861328 C-111.28700256347656,-158.63099670410156 -111.29900360107422,-152.51100158691406 -109.73699951171875,-149.92999267578125 C-108.0469970703125,-147.13800048828125 -104.30899810791016,-146.5469970703125 -97.29399871826172,-146.3249969482422 C-97.29399871826172,-146.3249969482422 -94.11399841308594,-143.79400634765625 -94.11399841308594,-143.79400634765625 C-61.319000244140625,-143.79400634765625 6.8429999351501465,-169.0019989013672 5.041999816894531,-208.61500549316406z"/></g><g opacity="1" transform="matrix(1,0,0,1,0,0)"><path stroke-linecap="round" stroke-linejoin="round" fill-opacity="0" stroke="rgb(145,145,145)" stroke-opacity="1" stroke-width="8" d=" M-111.15799713134766,-165.3730010986328 C-101.23799896240234,-178.8780059814453 -68.48200225830078,-213.33700561523438 5.041999816894531,-208.61500549316406 C-1.1549999713897705,-161.26800537109375 -60.821998596191406,-143.79400634765625 -94.11399841308594,-143.79400634765625"/></g><g opacity="1" transform="matrix(1,0,0,1,0,0)"><g opacity="1" transform="matrix(1,0,0,1,0,0)"><path fill="url(#__lottie_element_37707)" fill-opacity="1" d=" M-103.27200317382812,-149.06500244140625 C-104.59500122070312,-148.9669952392578 -105.60900115966797,-150.21200561523438 -105.23899841308594,-151.47300720214844 C-103.22200012207031,-158.35000610351562 -95.01599884033203,-177.41900634765625 -64.18000030517578,-190.08200073242188 C-33.263999938964844,-202.7779998779297 -12.625,-201.70899963378906 -5.881999969482422,-200.84100341796875 C-4.622000217437744,-200.6790008544922 -3.9000000953674316,-199.36199951171875 -4.4039998054504395,-198.20700073242188 C-17.851999282836914,-167.4010009765625 -53.167999267578125,-152.76499938964844 -103.27200317382812,-149.06500244140625z"/></g><g opacity="0.47000000000000003" transform="matrix(1,0,0,1,0,0)"><path fill="url(#__lottie_element_37708)" fill-opacity="1" d=" M-103.31400299072266,-149.06199645996094 C-104.61599731445312,-148.96600341796875 -105.61399841308594,-150.19200134277344 -105.2509994506836,-151.4340057373047 C-103.25299835205078,-158.2779998779297 -95.0739974975586,-177.39500427246094 -64.18000030517578,-190.08200073242188 C-33.202999114990234,-202.80299377441406 -12.543999671936035,-201.7050018310547 -5.8420000076293945,-200.83599853515625 C-4.60099983215332,-200.6750030517578 -3.8919999599456787,-199.3800048828125 -4.388000011444092,-198.24200439453125 C-17.827999114990234,-167.4029998779297 -53.167999267578125,-152.75900268554688 -103.31400299072266,-149.06199645996094z"/></g><g opacity="1" transform="matrix(1,0,0,1,0,0)"><path fill="url(#__lottie_element_37709)" fill-opacity="1" d=" M-5.8470001220703125,-200.8419952392578 C-5.8470001220703125,-200.8419952392578 -79.05699920654297,-188.48399353027344 -81.51899719238281,-151.5229949951172 C-88.42500305175781,-150.4409942626953 -95.69999694824219,-149.6300048828125 -103.30999755859375,-149.06700134277344 C-104.61699676513672,-148.96499633789062 -105.61599731445312,-150.1959991455078 -105.25199890136719,-151.4290008544922 C-103.2509994506836,-158.27699279785156 -95.07099914550781,-177.39500427246094 -64.1760025024414,-190.0780029296875 C-33.20399856567383,-202.80499267578125 -12.539999961853027,-201.7050018310547 -5.8470001220703125,-200.8419952392578z"/></g></g></g><g style="display: block;" transform="matrix(1,0,0,1,464.5,377.5)" opacity="1"><g opacity="1" transform="matrix(0.900409996509552,0,0,1.1276500225067139,12.1614990234375,-21.095413208007812)"><path fill="url(#__lottie_element_37682)" fill-opacity="1" d=" M127.7030029296875,32.268001556396484 C170.052001953125,65.85800170898438 148.83900451660156,146.6060028076172 124.52799987792969,170.91700744628906 C100.21700286865234,195.22799682617188 43.630001068115234,182.48899841308594 22.566999435424805,156.20899963378906 C8.538000106811523,138.7050018310547 3.1459999084472656,95.76399993896484 39.80500030517578,52.46099853515625 C62.02000045776367,26.219999313354492 101.38800048828125,11.395999908447266 127.7030029296875,32.268001556396484z"/></g><g opacity="1" transform="matrix(1,0,0,1,0,0)"><path fill="rgb(226,226,226)" fill-opacity="1" d=" M147.86900329589844,117.2770004272461"/><path stroke-linecap="round" stroke-linejoin="round" fill-opacity="0" stroke="rgb(199,199,199)" stroke-opacity="1" stroke-width="8" d=" M147.86900329589844,117.2770004272461"/></g><g opacity="1" transform="matrix(1,0,0,1,0,0)"><path fill="url(#__lottie_element_37683)" fill-opacity="1" d=" M11.623000144958496,131.31500244140625 C11.623000144958496,131.31500244140625 41.652000427246094,177.31300354003906 88.86399841308594,172.7050018310547 C132.63800048828125,168.43299865722656 141.98699951171875,122.01899719238281 141.98699951171875,122.01899719238281 C141.98699951171875,122.01899719238281 146.10899353027344,161 119.58200073242188,179.23800659179688 C111.875,184.53700256347656 128.63400268554688,202.3070068359375 114.9000015258789,202.63900756835938 C102.28900146484375,202.94400024414062 64.58300018310547,186.4600067138672 55.6150016784668,182.68099975585938 C21.201000213623047,168.17799377441406 11.623000144958496,131.31500244140625 11.623000144958496,131.31500244140625z"/></g></g><g style="display: block;" transform="matrix(1,0,0,1,464.5,377.5)" opacity="1"><g opacity="1" transform="matrix(1,0,0,1,0,0)"><path fill="rgb(236,236,236)" fill-opacity="1" d=" M121.55500030517578,202.63900756835938 C122.4219970703125,198.322998046875 123.02100372314453,183.81900024414062 125.0999984741211,171.9239959716797 C131.90499877929688,132.98500061035156 52.27899932861328,151.3509979248047 51.683998107910156,179.85800170898438 C51.683998107910156,179.85800170898438 48.17599868774414,178.46200561523438 42.624000549316406,176.5260009765625 C26.176000595092773,170.79200744628906 -8.211000442504883,160.32000732421875 -22.479999542236328,167.35400390625 C-40.172000885009766,176.0760040283203 -40.30799865722656,198.49600219726562 -38.94900131225586,202.63900756835938 C-38.94900131225586,202.63900756835938 72.20600128173828,202.63900756835938 72.20600128173828,202.63900756835938 C72.20600128173828,202.63900756835938 121.55500030517578,202.63900756835938 121.55500030517578,202.63900756835938z"/></g><g opacity="1" transform="matrix(1,0,0,1,0,0)"><path fill="url(#__lottie_element_37678)" fill-opacity="1" d=" M121.55500030517578,202.63900756835938 C122.4219970703125,198.322998046875 122.9749984741211,183.81100463867188 125.0999984741211,171.9239959716797 C130.2270050048828,143.24400329589844 47.38999938964844,138.51499938964844 51.683998107910156,179.85800170898438 C51.683998107910156,179.85800170898438 47.13600158691406,178.04800415039062 40.19900131225586,175.69200134277344 C22.999000549316406,169.85000610351562 -8.878999710083008,160.6490020751953 -22.479999542236328,167.35400390625 C-40.172000885009766,176.0760040283203 -40.30799865722656,198.49600219726562 -38.94900131225586,202.63900756835938 C-38.94900131225586,202.63900756835938 44.06100082397461,202.63900756835938 44.06100082397461,202.63900756835938 C44.06100082397461,202.63900756835938 121.55500030517578,202.63900756835938 121.55500030517578,202.63900756835938z"/></g><g opacity="0.5" transform="matrix(1,0,0,1,0,0)"><path stroke-linecap="round" stroke-linejoin="round" fill-opacity="0" stroke="rgb(143,143,143)" stroke-opacity="1" stroke-width="8" d=" M-3.2690000534057617,178.82400512695312 C-3.2690000534057617,178.82400512695312 -20.94300079345703,178.8459930419922 -21.128000259399414,200.42599487304688"/></g><g opacity="1" transform="matrix(1,0,0,1,0,0)"><path stroke-linecap="round" stroke-linejoin="round" fill-opacity="0" stroke="rgb(129,129,129)" stroke-opacity="1" stroke-width="8" d=" M54.08300018310547,179.94500732421875 C54.08300018310547,179.94500732421875 39.18299865722656,174.24200439453125 22.03700065612793,169.88499450683594 C5.506999969482422,165.68499755859375 -13.112000465393066,162.73599243164062 -22.479999542236328,167.35400390625 C-35.65599822998047,173.8489990234375 -39.09400177001953,187.9409942626953 -39.43000030517578,196.4239959716797 C-39.56399917602539,199.80999755859375 -36.88800048828125,202.63900756835938 -33.499000549316406,202.63900756835938 C-33.499000549316406,202.63900756835938 -1.0820000171661377,202.63900756835938 -1.0820000171661377,202.63900756835938 C-1.0820000171661377,202.63900756835938 39.5,202.63900756835938 39.5,202.63900756835938 C39.5,202.63900756835938 114.9000015258789,202.63900756835938 114.9000015258789,202.63900756835938 C118.68000030517578,202.63900756835938 121.67400360107422,199.45399475097656 121.43900299072266,195.6820068359375 C121.00900268554688,188.7899932861328 120.56700134277344,178.8979949951172 125.0999984741211,171.9239959716797"/></g><g opacity="1" transform="matrix(1,0,0,1,0,0)"><path stroke-linecap="round" stroke-linejoin="round" fill-opacity="0" stroke="rgb(112,112,112)" stroke-opacity="1" stroke-width="8" d=" M121.43900299072266,195.6820068359375 C121.00900268554688,188.7899932861328 120.56700134277344,178.8979949951172 125.0999984741211,171.9239959716797"/></g></g><g style="display: block;" transform="matrix(1,0,0,1,464.5,377.5)" opacity="1"><g opacity="1" transform="matrix(1,0,0,1,0,0)"><path fill="url(#__lottie_element_37672)" fill-opacity="1" d=" M147.86900329589844,117.2770004272461 C145.96800231933594,139.24600219726562 136.85899353027344,156.78700256347656 123.28199768066406,167.9010009765625 C112.8030014038086,176.47900390625 99.66200256347656,181.22799682617188 85.11900329589844,181.22799682617188 C51.73500061035156,181.22799682617188 11.630999565124512,160.50100708007812 11.630999565124512,121.01899719238281 C11.630999565124512,81.53700256347656 48.066001892089844,32.15999984741211 92.5250015258789,35.06800079345703 C151.82400512695312,38.946998596191406 147.86900329589844,117.2770004272461 147.86900329589844,117.2770004272461z"/></g><g opacity="1" transform="matrix(1,0,0,1,0,0)"><path fill="url(#__lottie_element_37673)" fill-opacity="1" d=" M147.86900329589844,117.2770004272461 C145.96800231933594,139.24600219726562 136.85899353027344,156.78700256347656 123.28199768066406,167.9010009765625 C112.8030014038086,176.47900390625 99.66200256347656,181.22799682617188 85.11900329589844,181.22799682617188 C51.73500061035156,181.22799682617188 11.630999565124512,160.50100708007812 11.630999565124512,121.01899719238281 C11.630999565124512,81.53700256347656 48.066001892089844,32.15999984741211 92.5250015258789,35.06800079345703 C151.82400512695312,38.946998596191406 147.86900329589844,117.2770004272461 147.86900329589844,117.2770004272461z"/></g><g opacity="1" transform="matrix(1,0,0,1,0,0)"><path fill="url(#__lottie_element_37674)" fill-opacity="1" d=" M10.817999839782715,125.31500244140625 C10.817999839782715,125.31500244140625 34,170.5 88.05799865722656,166.7050018310547 C131.9320068359375,163.625 144.68099975585938,117.76899719238281 144.68099975585938,117.76899719238281 C144.68099975585938,117.76899719238281 145,149.25 123.2770004272461,169.23800659179688 C115.70700073242188,176.2030029296875 117.875,195.9320068359375 117.59500122070312,197.88900756835938 C117.31500244140625,199.8459930419922 47,201.5 54.810001373291016,176.68099975585938 C15,164.5 10.817999839782715,125.31500244140625 10.817999839782715,125.31500244140625z"/></g><g opacity="1" transform="matrix(1,0,0,1,0,0)"><g opacity="1" transform="matrix(1,0,0,1,0,0)"><path stroke-linecap="round" stroke-linejoin="round" fill-opacity="0" stroke="rgb(145,145,145)" stroke-opacity="1" stroke-width="8" d=" M54.08300018310547,179.94500732421875 C29.17799949645996,168.37100219726562 11.630999565124512,147.6009979248047 11.630999565124512,121.01899719238281"/></g><g opacity="1" transform="matrix(1,0,0,1,0,0)"><path stroke-linecap="round" stroke-linejoin="round" fill-opacity="0" stroke="rgb(112,112,112)" stroke-opacity="1" stroke-width="8" d=" M147.96400451660156,121.36900329589844 C145.4499969482422,141.5540008544922 137.62399291992188,158.46400451660156 124.77300262451172,172.23300170898438"/></g></g><g opacity="1" transform="matrix(1,0,0,1,0,0)"><path stroke-linecap="round" stroke-linejoin="round" fill-opacity="0" stroke="rgb(145,145,145)" stroke-opacity="1" stroke-width="8" d=" M11.630999565124512,121.01899719238281 C11.630999565124512,100.52300262451172 20.20400047302246,78.30500030517578 34.68000030517578,61.83599853515625"/></g></g><g style="display: block;" transform="matrix(1,0,0,1,464.5,377.5)" opacity="1"><g opacity="1" transform="matrix(1,0,0,1,0,0)"><path fill="url(#__lottie_element_37666)" fill-opacity="1" d=" M-32.49800109863281,51.03200149536133 C-62.82600021362305,65.72200012207031 -91.83599853515625,45.520999908447266 -99.31400299072266,63.35300064086914 C-104.8010025024414,76.43800354003906 -112.07499694824219,87.83100128173828 -119.20800018310547,95.81600189208984 C-128.0919952392578,105.76000213623047 -136.75900268554688,110.41899871826172 -141.49000549316406,106.47599792480469 C-153.43099975585938,96.5250015258789 -146.70199584960938,81.83399963378906 -137.697998046875,75.67400360107422 C-128.69400024414062,69.51399993896484 -131.06399536132812,56.244998931884766 -127.27300262451172,44.87200164794922 C-123.48200225830078,33.499000549316406 -108.79199981689453,14.543999671936035 -108.79199981689453,14.543999671936035 C-108.79199981689453,14.543999671936035 -125.78500366210938,-22.986000061035156 -106.20700073242188,-49.904998779296875 C-86.62899780273438,-76.8239974975586 -57.262001037597656,-74.37699890136719 -30.343000411987305,-43.7869987487793 C-3.4240000247955322,-13.196999549865723 -27.041000366210938,48.388999938964844 -32.49800109863281,51.03200149536133z"/></g><g opacity="0.8" transform="matrix(1,0,0,1,0,0)"><path fill="url(#__lottie_element_37667)" fill-opacity="1" d=" M-110.072998046875,-43.861000061035156 C-110.072998046875,-43.861000061035156 -109.16300201416016,-0.36399999260902405 -94.53199768066406,17.18000030517578 C-91.89099884033203,20.347000122070312 -119.95600128173828,35.55799865722656 -127.87999725341797,63.946998596191406 C-127.87999725341797,63.946998596191406 -129.81900024414062,35.8849983215332 -109.5469970703125,18.81399917602539 C-109.5469970703125,18.81399917602539 -122.26499938964844,-26.572999954223633 -110.072998046875,-43.861000061035156z"/></g><g opacity="1" transform="matrix(1,0,0,1,0,0)"><path stroke-linecap="round" stroke-linejoin="round" fill-opacity="0" stroke="rgb(145,145,145)" stroke-opacity="1" stroke-width="8" d=" M-115.9000015258789,-37.176998138427734 C-120.23999786376953,-17.840999603271484 -117.125,4.678999900817871 -108.79199981689453,16.68000030517578"/></g><g opacity="1" transform="matrix(1,0,0,1,0,0)"><path stroke-linecap="round" stroke-linejoin="round" fill-opacity="0" stroke="rgb(145,145,145)" stroke-opacity="1" stroke-width="8" d=" M-109.8489990234375,16.826000213623047 C-109.8489990234375,16.826000213623047 -123.48200225830078,33.499000549316406 -127.27300262451172,44.87200164794922 C-131.06399536132812,56.244998931884766 -128.69400024414062,69.51399993896484 -137.697998046875,75.67400360107422 C-146.70199584960938,81.83399963378906 -153.43099975585938,96.5250015258789 -141.49000549316406,106.47599792480469 C-136.427001953125,110.69499969482422 -126.85600280761719,105.06400299072266 -117.33699798583984,93.64700317382812 C-110.81800079345703,85.8280029296875 -104.3219985961914,75.29499816894531 -99.31400299072266,63.35300064086914 C-91.83599853515625,45.520999908447266 -62.82600021362305,65.72200012207031 -32.49800109863281,51.03200149536133 C-27.041000366210938,48.388999938964844 -23.058000564575195,39.33100128173828 -21.128000259399414,27.23900032043457"/></g><g opacity="0.68" transform="matrix(0.868716835975647,-0.26559337973594666,0.3420427441596985,1.1187714338302612,-5.199668884277344,-17.13338851928711)"><path fill="url(#__lottie_element_37668)" fill-opacity="1" d=" M-43.0099983215332,35.74700164794922 C-62.518001556396484,44.88399887084961 -106.6780014038086,34.20199966430664 -119.44000244140625,6.953999996185303 C-132.20199584960938,-20.29400062561035 -109.98799896240234,-57.18299865722656 -89.22599792480469,-62.926998138427734 C-63.73099899291992,-69.98100280761719 -26.76799964904785,-58.685001373291016 -14.067000389099121,-31.408000946044922 C7.241000175476074,14.35200023651123 -23.50200080871582,26.610000610351562 -43.0099983215332,35.74700164794922z"/></g><g opacity="0.5" transform="matrix(1,0,0,1,0,0)"><path stroke-linecap="round" stroke-linejoin="round" fill-opacity="0" stroke="rgb(145,145,145)" stroke-opacity="1" stroke-width="8" d=" M-131.94000244140625,88.66500091552734 C-131.94000244140625,88.66500091552734 -134.61399841308594,95.76399993896484 -126.86699676513672,102.86199951171875"/></g></g><g style="display: block;" transform="matrix(0.22853189706802368,0.2057710438966751,-0.5768842697143555,0.6406948566436768,521.7926635742188,396.5010986328125)" opacity="1"><g opacity="0.4" transform="matrix(1,0,0,1,0,0)"><path fill="url(#__lottie_element_37662)" fill-opacity="1" d=" M97.69200134277344,120.2300033569336 C72.18499755859375,150.2899932861328 38.35900115966797,171.71099853515625 -17.145999908447266,118.375 C-55,82 -46.12099838256836,40.724998474121094 -20.61400032043457,10.664999961853027 C4.89300012588501,-19.395000457763672 61,-21 81.2239990234375,1.5190000534057617 C115.53700256347656,39.72600173950195 123.1989974975586,90.16999816894531 97.69200134277344,120.2300033569336z"/></g></g><g style="display: block;" transform="matrix(0.273278146982193,0.11041154712438583,-0.29849401116371155,0.7387986183166504,456.4475402832031,389.7007141113281)" opacity="1"><g opacity="0.4" transform="matrix(1,0,0,1,0,0)"><path fill="url(#__lottie_element_37658)" fill-opacity="1" d=" M40.32099914550781,40.52299880981445 C34.95600128173828,65.89800262451172 19,100 -37.47800064086914,86.22100067138672 C-48.49300003051758,83.53399658203125 -87.21399688720703,46.40399932861328 -81.8489990234375,21.02899932861328 C-76.48400115966797,-4.3460001945495605 -48,-31 -12.050000190734863,-23.66900062561035 C34.38399887084961,-14.199999809265137 45.68600082397461,15.14799976348877 40.32099914550781,40.52299880981445z"/></g></g></g></g></svg>