<svg xmlns="http://www.w3.org/2000/svg" xmlns:xlink="http://www.w3.org/1999/xlink" viewBox="0 0 512 512" width="512" height="512" style="width: 100%; height: 100%; transform: translate3d(0,0,0);" preserveAspectRatio="xMidYMid meet"><defs><clipPath id="__lottie_element_7458"><rect width="512" height="512" x="0" y="0"/></clipPath><clipPath id="__lottie_element_7464"><path d="M0,0 L512,0 L512,512 L0,512z"/></clipPath><g id="__lottie_element_7470"/><filter id="__lottie_element_7476" filterUnits="objectBoundingBox" x="0%" y="0%" width="100%" height="100%"><feComponentTransfer in="SourceGraphic"><feFuncA type="table" tableValues="1.0 0.0"/></feComponentTransfer></filter><mask id="__lottie_element_7470_2" mask-type="alpha"><g filter="url(#__lottie_element_7476)"><rect width="512" height="512" x="0" y="0" fill="#ffffff" opacity="0"/><g id="__lottie_element_7470"/></g></mask><linearGradient id="__lottie_element_7483" spreadMethod="pad" gradientUnits="userSpaceOnUse"><stop/><stop/><stop/></linearGradient><mask id="__lottie_element_7485"><path fill="url(#__lottie_element_7484)"/></mask><linearGradient id="__lottie_element_7484" spreadMethod="pad" gradientUnits="userSpaceOnUse"><stop stop-color="rgb(255,255,255)"/><stop stop-color="rgb(255,255,255)"/><stop stop-color="rgb(255,255,255)"/></linearGradient><linearGradient id="__lottie_element_7489" spreadMethod="pad" gradientUnits="userSpaceOnUse"><stop/><stop/><stop/></linearGradient><mask id="__lottie_element_7491"><path fill="url(#__lottie_element_7490)"/></mask><linearGradient id="__lottie_element_7490" spreadMethod="pad" gradientUnits="userSpaceOnUse"><stop stop-color="rgb(255,255,255)"/><stop stop-color="rgb(255,255,255)"/><stop stop-color="rgb(255,255,255)"/></linearGradient><radialGradient id="__lottie_element_7495" spreadMethod="pad" gradientUnits="userSpaceOnUse"><stop/><stop/><stop/></radialGradient><mask id="__lottie_element_7497"><path fill="url(#__lottie_element_7496)"/></mask><radialGradient id="__lottie_element_7496" spreadMethod="pad" gradientUnits="userSpaceOnUse"><stop stop-color="rgb(255,255,255)"/><stop stop-color="rgb(255,255,255)"/><stop stop-color="rgb(255,255,255)"/></radialGradient><linearGradient id="__lottie_element_7498" spreadMethod="pad" gradientUnits="userSpaceOnUse"><stop/><stop/><stop/></linearGradient><linearGradient id="__lottie_element_7499" spreadMethod="pad" gradientUnits="userSpaceOnUse"><stop/><stop/><stop/></linearGradient><radialGradient id="__lottie_element_7500" spreadMethod="pad" gradientUnits="userSpaceOnUse"><stop/><stop/><stop/></radialGradient><mask id="__lottie_element_7502"><path fill="url(#__lottie_element_7501)"/></mask><radialGradient id="__lottie_element_7501" spreadMethod="pad" gradientUnits="userSpaceOnUse"><stop stop-color="rgb(255,255,255)"/><stop stop-color="rgb(255,255,255)"/><stop stop-color="rgb(255,255,255)"/></radialGradient><g id="__lottie_element_7506"><g style="display: block;" transform="matrix(1,0,0,1,256,256)" opacity="1"><g opacity="1" transform="matrix(1,0,0,1,0,0)"><path fill="rgb(255,255,255)" fill-opacity="1" d=" M-135,-156 C-207,-117 -166,-15 -139,16 C-165,-28 -33,-109.5 -1,-90.5 C-13,-129.5 -74.83399963378906,-188.58999633789062 -135,-156z"/></g></g></g><filter id="__lottie_element_7512" filterUnits="objectBoundingBox" x="0%" y="0%" width="100%" height="100%"><feComponentTransfer in="SourceGraphic"><feFuncA type="table" tableValues="1.0 0.0"/></feComponentTransfer></filter><mask id="__lottie_element_7506_2" mask-type="alpha"><g filter="url(#__lottie_element_7512)"><rect width="512" height="512" x="0" y="0" fill="#ffffff" opacity="0"/><g id="__lottie_element_7506"><g style="display: block;" transform="matrix(1,0,0,1,256,256)" opacity="1"><g opacity="1" transform="matrix(1,0,0,1,0,0)"><path fill="rgb(255,255,255)" fill-opacity="1" d=" M-135,-156 C-207,-117 -166,-15 -139,16 C-165,-28 -33,-109.5 -1,-90.5 C-13,-129.5 -74.83399963378906,-188.58999633789062 -135,-156z"/></g></g></g></g></mask><linearGradient id="__lottie_element_7519" spreadMethod="pad" gradientUnits="userSpaceOnUse" x1="-88.1449966430664" y1="-109.84600067138672" x2="-89.31800079345703" y2="-160.66799926757812"><stop offset="0%" stop-color="rgb(255,255,255)"/><stop offset="50%" stop-color="rgb(255,255,253)"/><stop offset="100%" stop-color="rgb(255,255,251)"/></linearGradient><mask id="__lottie_element_7521"><path fill="url(#__lottie_element_7520)" d=" M-135,-156 C-207,-117 -172,-11 -131,27 C-108,-27 -25,-87 -3,-92.5 C-15,-131.5 -74.83399963378906,-188.58999633789062 -135,-156z"/></mask><linearGradient id="__lottie_element_7520" spreadMethod="pad" gradientUnits="userSpaceOnUse" x1="-88.1449966430664" y1="-109.84600067138672" x2="-89.31800079345703" y2="-160.66799926757812"><stop stop-color="rgb(255,255,255)" offset="0%" stop-opacity="0"/><stop stop-color="rgb(255,255,255)" offset="69%" stop-opacity="0.5"/><stop stop-color="rgb(255,255,255)" offset="100%" stop-opacity="1"/></linearGradient><linearGradient id="__lottie_element_7525" spreadMethod="pad" gradientUnits="userSpaceOnUse" x1="-88.1449966430664" y1="-109.84600067138672" x2="-89.31800079345703" y2="-160.66799926757812"><stop offset="0%" stop-color="rgb(255,255,255)"/><stop offset="50%" stop-color="rgb(255,255,253)"/><stop offset="100%" stop-color="rgb(255,255,251)"/></linearGradient><mask id="__lottie_element_7527"><path fill="url(#__lottie_element_7526)" d=" M-135,-156 C-207,-117 -168,-14 -141,17 C-118,-37 -23,-85 -1,-90.5 C-13,-129.5 -74.83399963378906,-188.58999633789062 -135,-156z"/></mask><linearGradient id="__lottie_element_7526" spreadMethod="pad" gradientUnits="userSpaceOnUse" x1="-88.1449966430664" y1="-109.84600067138672" x2="-89.31800079345703" y2="-160.66799926757812"><stop stop-color="rgb(255,255,255)" offset="0%" stop-opacity="0"/><stop stop-color="rgb(255,255,255)" offset="69%" stop-opacity="0.5"/><stop stop-color="rgb(255,255,255)" offset="100%" stop-opacity="1"/></linearGradient><linearGradient id="__lottie_element_7531" spreadMethod="pad" gradientUnits="userSpaceOnUse" x1="-1.1369999647140503" y1="10.491999626159668" x2="1.9019999504089355" y2="243.57000732421875"><stop offset="0%" stop-color="rgb(127,75,38)"/><stop offset="50%" stop-color="rgb(118,66,29)"/><stop offset="100%" stop-color="rgb(108,56,19)"/></linearGradient><linearGradient id="__lottie_element_7532" spreadMethod="pad" gradientUnits="userSpaceOnUse" x1="-2.5390000343322754" y1="227.91400146484375" x2="-4.807000160217285" y2="19.395000457763672"><stop offset="0%" stop-color="rgb(108,56,19)"/><stop offset="50%" stop-color="rgb(125,73,36)"/><stop offset="100%" stop-color="rgb(143,91,54)"/></linearGradient><radialGradient id="__lottie_element_7533" spreadMethod="pad" gradientUnits="userSpaceOnUse" cx="-3.125" cy="28.483999252319336" r="113.83509808651847" fx="-3.1071512027823713" fy="66.07462110496245"><stop offset="0%" stop-color="rgb(140,86,48)"/><stop offset="88%" stop-color="rgb(140,87,48)"/><stop offset="100%" stop-color="rgb(140,87,48)"/></radialGradient><mask id="__lottie_element_7535"><path fill="url(#__lottie_element_7534)" d=" M172.2220001220703,-81.0780029296875 C174.25,-123.25 145.35000610351562,-165.4980010986328 90.7969970703125,-164.8159942626953 C27.608999252319336,-164.0260009765625 0.28299999237060547,-95.39600372314453 -1.4160000085830688,-90.96399688720703 C-1.4730000495910645,-90.81600189208984 -1.5010000467300415,-90.73999786376953 -1.5010000467300415,-90.73999786376953 C-1.5010000467300415,-90.73999786376953 -31,-166 -95.7979965209961,-165.8159942626953 C-150.35499572753906,-165.66099548339844 -177.5,-122 -176.4739990234375,-82.3280029296875 C-175.6649932861328,-51.04999923706055 -163.72000122070312,-14.642999649047852 -121.0260009765625,42.41699981689453 C-106,62.5 -94.3290023803711,76.8010025024414 -76.78700256347656,95.72799682617188 C-20,157 13,160 71.78600311279297,96.72799682617188 C86.68099975585938,80.6969985961914 101.4990005493164,64 117.0250015258789,44.41699981689453 C161.3000030517578,-11.425000190734863 170.718994140625,-49.82600021362305 172.2220001220703,-81.0780029296875z"/></mask><radialGradient id="__lottie_element_7534" spreadMethod="pad" gradientUnits="userSpaceOnUse" cx="-3.125" cy="28.483999252319336" r="113.83509808651847" fx="-3.1071512027823713" fy="66.07462110496245"><stop stop-color="rgb(255,255,255)" offset="0%" stop-opacity="1"/><stop stop-color="rgb(255,255,255)" offset="50%" stop-opacity="0.5"/><stop stop-color="rgb(255,255,255)" offset="100%" stop-opacity="0"/></radialGradient></defs><g clip-path="url(#__lottie_element_7458)"><g clip-path="url(#__lottie_element_7464)" style="display: block;" transform="matrix(1.0700000524520874,0,0,1.0700000524520874,-15.920013427734375,-21.780014038085938)" opacity="1"><g style="display: block;" transform="matrix(1,0,0,1,256,256)" opacity="1"><g opacity="1" transform="matrix(1,0,0,1,0,0)"><path stroke-linecap="round" stroke-linejoin="round" fill-opacity="0" stroke="rgb(66,29,2)" stroke-opacity="1" stroke-width="16" d=" M184.2429962158203,-89.86599731445312 C181.85699462890625,-127.55999755859375 151.79800415039062,-177.66000366210938 91.6780014038086,-176.22799682617188 C40.176998138427734,-175.0019989013672 8.166999816894531,-128.95700073242188 0.04800000041723251,-115.78099822998047 C-0.8930000066757202,-114.25399780273438 -3.1080000400543213,-114.25399780273438 -4.048999786376953,-115.78099822998047 C-12.168000221252441,-128.95700073242188 -44.178001403808594,-175.0019989013672 -95.67900085449219,-176.22799682617188 C-155.7989959716797,-177.66000366210938 -185.85800170898438,-127.55999755859375 -188.24400329589844,-89.86599731445312 C-190.6300048828125,-52.172000885009766 -181.56500244140625,-9.706000328063965 -130.98800659179688,56.138999938964844 C-91.9990005493164,106.89800262451172 -36.46900177001953,163.0449981689453 -13.071000099182129,186.10800170898438 C-6.927999973297119,192.16299438476562 2.9260001182556152,192.16299438476562 9.069000244140625,186.10800170898438 C32.46699905395508,163.0449981689453 87.99700164794922,106.89800262451172 126.98600006103516,56.138999938964844 C177.56300354003906,-9.706000328063965 186.62899780273438,-52.172000885009766 184.2429962158203,-89.86599731445312z"/></g><g opacity="1" transform="matrix(1,0,0,1,0,0)"><path fill="url(#__lottie_element_7531)" fill-opacity="1" d=" M184.2429962158203,-89.86599731445312 C181.85699462890625,-127.55999755859375 151.79800415039062,-177.66000366210938 91.6780014038086,-176.22799682617188 C40.176998138427734,-175.0019989013672 8.166999816894531,-128.95700073242188 0.04800000041723251,-115.78099822998047 C-0.8930000066757202,-114.25399780273438 -3.1080000400543213,-114.25399780273438 -4.048999786376953,-115.78099822998047 C-12.168000221252441,-128.95700073242188 -44.178001403808594,-175.0019989013672 -95.67900085449219,-176.22799682617188 C-155.7989959716797,-177.66000366210938 -185.85800170898438,-127.55999755859375 -188.24400329589844,-89.86599731445312 C-190.6300048828125,-52.172000885009766 -181.56500244140625,-9.706000328063965 -130.98800659179688,56.138999938964844 C-91.9990005493164,106.89800262451172 -36.46900177001953,163.0449981689453 -13.071000099182129,186.10800170898438 C-6.927999973297119,192.16299438476562 2.9260001182556152,192.16299438476562 9.069000244140625,186.10800170898438 C32.46699905395508,163.0449981689453 87.99700164794922,106.89800262451172 126.98600006103516,56.138999938964844 C177.56300354003906,-9.706000328063965 186.62899780273438,-52.172000885009766 184.2429962158203,-89.86599731445312z"/></g><g opacity="1" transform="matrix(1,0,0,1,0,0)"><g opacity="1" transform="matrix(1,0,0,1,0,0)"><path fill="url(#__lottie_element_7532)" fill-opacity="1" d=" M172.2220001220703,-81.0780029296875 C174.25,-123.25 145.35000610351562,-165.4980010986328 90.7969970703125,-164.8159942626953 C27.608999252319336,-164.0260009765625 0.28299999237060547,-95.39600372314453 -1.4160000085830688,-90.96399688720703 C-1.4730000495910645,-90.81600189208984 -1.5010000467300415,-90.73999786376953 -1.5010000467300415,-90.73999786376953 C-1.5010000467300415,-90.73999786376953 -31,-166 -95.7979965209961,-165.8159942626953 C-150.35499572753906,-165.66099548339844 -177.5,-122 -176.4739990234375,-82.3280029296875 C-175.6649932861328,-51.04999923706055 -163.72000122070312,-14.642999649047852 -121.0260009765625,42.41699981689453 C-106,62.5 -94.3290023803711,76.8010025024414 -76.78700256347656,95.72799682617188 C-20,157 13,160 71.78600311279297,96.72799682617188 C86.68099975585938,80.6969985961914 101.4990005493164,64 117.0250015258789,44.41699981689453 C161.3000030517578,-11.425000190734863 170.718994140625,-49.82600021362305 172.2220001220703,-81.0780029296875z"/><path fill="url(#__lottie_element_7533)" mask="url(#__lottie_element_7535)" fill-opacity="1" d="M0 0 M172.2220001220703,-81.0780029296875 C174.25,-123.25 145.35000610351562,-165.4980010986328 90.7969970703125,-164.8159942626953 C27.608999252319336,-164.0260009765625 0.28299999237060547,-95.39600372314453 -1.4160000085830688,-90.96399688720703 C-1.4730000495910645,-90.81600189208984 -1.5010000467300415,-90.73999786376953 -1.5010000467300415,-90.73999786376953 C-1.5010000467300415,-90.73999786376953 -31,-166 -95.7979965209961,-165.8159942626953 C-150.35499572753906,-165.66099548339844 -177.5,-122 -176.4739990234375,-82.3280029296875 C-175.6649932861328,-51.04999923706055 -163.72000122070312,-14.642999649047852 -121.0260009765625,42.41699981689453 C-106,62.5 -94.3290023803711,76.8010025024414 -76.78700256347656,95.72799682617188 C-20,157 13,160 71.78600311279297,96.72799682617188 C86.68099975585938,80.6969985961914 101.4990005493164,64 117.0250015258789,44.41699981689453 C161.3000030517578,-11.425000190734863 170.718994140625,-49.82600021362305 172.2220001220703,-81.0780029296875z"/></g></g></g><g style="display: block;" transform="matrix(1,0,0,1,256,256)" opacity="0.9"><g opacity="1" transform="matrix(1,0,0,1,0,0)"><path fill="url(#__lottie_element_7525)" mask="url(#__lottie_element_7527)" fill-opacity="0.85" d="M0 0 M-135,-156 C-207,-117 -168,-14 -141,17 C-118,-37 -23,-85 -1,-90.5 C-13,-129.5 -74.83399963378906,-188.58999633789062 -135,-156z"/></g></g><g style="display: block;" transform="matrix(-1,0,0,1,252,256)" opacity="0.9"><g opacity="1" transform="matrix(1,0,0,1,0,0)"><path fill="url(#__lottie_element_7519)" mask="url(#__lottie_element_7521)" fill-opacity="0.85" d="M0 0 M-135,-156 C-207,-117 -172,-11 -131,27 C-108,-27 -25,-87 -3,-92.5 C-15,-131.5 -74.83399963378906,-188.58999633789062 -135,-156z"/></g></g><g style="display: block;" transform="matrix(1,0,0,1,256,256)" opacity="1"><g opacity="1" transform="matrix(1,0,0,1,0,0)"><path fill="rgb(255,255,255)" fill-opacity="0.02" d=" M-135,-156 C-207,-117 -166,-15 -139,16 C-165,-28 -146,-69.75 -118.98799896240234,-90.21900177001953 C-83.70500183105469,-116.95600128173828 -33,-109.5 -1,-90.5 C-13,-129.5 -74.83399963378906,-188.58999633789062 -135,-156z"/></g><g opacity="1" transform="matrix(1,0,0,1,0,0)"><path fill="rgb(255,255,255)" fill-opacity="0.02" d=" M-135,-156 C-207,-117 -165,-17.5 -146.25,5 C-168,-31 -150.41400146484375,-73.51000213623047 -121.73799896240234,-94.71900177001953 C-83.5,-123 -31.5,-115.5 -2.5,-94.25 C-14.25,-129.75 -74.83399963378906,-188.58999633789062 -135,-156z"/></g><g opacity="1" transform="matrix(1,0,0,1,0,0)"><path fill="rgb(255,255,255)" fill-opacity="0.03" d=" M-135,-156 C-207,-117 -165,-17.5 -146.25,5 C-173.75,-33.25 -153.1719970703125,-76.93699645996094 -124.73799896240234,-98.46900177001953 C-84.75,-128.75 -23.5,-119.75 -2.5,-94.25 C-14.25,-129.75 -74.83399963378906,-188.58999633789062 -135,-156z"/></g><g opacity="1" transform="matrix(1,0,0,1,0,0)"><path fill="rgb(255,255,255)" fill-opacity="0.03" d=" M-135,-156 C-207,-117 -163.25,-21 -153.25,-5.75 C-174.75,-42.25 -155.1719970703125,-80.93699645996094 -126.73799896240234,-102.46900177001953 C-86.75,-132.75 -26,-123 -5.5,-101 C-17,-129.25 -74.83399963378906,-188.58999633789062 -135,-156z"/></g><g opacity="1" transform="matrix(1,0,0,1,0,0)"><path fill="rgb(255,255,255)" fill-opacity="0.03" d=" M-135,-156 C-203.5,-118.75 -166.125,-30.5 -157.75,-13.875 C-175.625,-48.375 -156.75,-86 -127.48799896240234,-107.46900177001953 C-89.58599853515625,-135.27699279785156 -28.875,-128.625 -8.375,-106.625 C-19.125,-129.875 -75.54399871826172,-188.33200073242188 -135,-156z"/></g><g opacity="1" transform="matrix(1,0,0,1,0,0)"><path fill="rgb(255,255,255)" fill-opacity="0.04" d=" M-135,-156 C-199.25,-121 -170,-41.625 -161.375,-21.75 C-177.5,-55.5 -156.73399353027344,-92.69999694824219 -127.73799896240234,-113.46900177001953 C-90,-140.5 -30.5,-130.5 -12.125,-112.875 C-22.75,-130.875 -75.56800079345703,-188.375 -135,-156z"/></g><g opacity="1" transform="matrix(1,0,0,1,0,0)"><path fill="rgb(255,255,255)" fill-opacity="0.08" d=" M-135,-156 C-195.5,-124.5 -172.75,-48.75 -164,-28 C-180.125,-61.75 -156,-100.25 -128.73800659179688,-118.46900177001953 C-89.64600372314453,-144.593994140625 -33,-134.25 -15.875,-118.5 C-26.5,-132.625 -74.97100067138672,-187.2550048828125 -135,-156z"/></g><g opacity="1" transform="matrix(1,0,0,1,0,0)"><path fill="rgb(255,255,255)" fill-opacity="0.09" d=" M-135,-156 C-194,-124.75 -172.75,-54.875 -166.75,-35.875 C-180.375,-74.25 -152.1320037841797,-110.71800231933594 -128.86300659179688,-125.21900177001953 C-89.5,-149.75 -33.875,-137.125 -21,-125 C-33,-139.25 -79.6520004272461,-185.3159942626953 -135,-156z"/></g><g opacity="1" transform="matrix(1,0,0,1,0,0)"><path fill="rgb(255,255,255)" fill-opacity="0.1" d=" M-135,-156 C-192.25,-126.25 -172.625,-58.25 -170.125,-46.5 C-177.5,-81.875 -156,-116 -129.48800659179688,-131.843994140625 C-89.13600158691406,-155.95899963378906 -37.625,-138.875 -27.5,-131.75 C-41.875,-146.5 -83.99099731445312,-182.5070037841797 -135,-156z"/></g><g opacity="1" transform="matrix(1,0,0,1,0,0)"><path fill="rgb(255,255,255)" fill-opacity="0.11" d=" M-135,-156 C-185.64199829101562,-129.593994140625 -175.125,-74.375 -173.375,-61.375 C-174.5,-88.875 -159.5,-121.5 -130.36300659179688,-138.343994140625 C-89.66500091552734,-161.87100219726562 -42,-142.75 -34.875,-138.875 C-45.125,-146.875 -85.375,-181.875 -135,-156z"/></g><g opacity="1" transform="matrix(1,0,0,1,0,0)"><path fill="rgb(255,255,255)" fill-opacity="0.12" d=" M-135,-156 C-180,-132 -175.75,-86.125 -174.875,-71.625 C-174.75,-94.625 -161.58299255371094,-127.58899688720703 -132.11300659179688,-143.843994140625 C-92.625,-165.625 -48.5,-148 -41.375,-144.125 C-50.25,-150.5 -88.5260009765625,-180.78599548339844 -135,-156z"/></g><g opacity="1" transform="matrix(1,0,0,1,0,0)"><path fill="rgb(255,255,255)" fill-opacity="0.13" d=" M-135,-156 C-170.18499755859375,-138.61700439453125 -176.25,-101 -175.5,-85.5 C-173.375,-106.125 -162.95799255371094,-133.21400451660156 -133.48800659179688,-149.468994140625 C-94,-171.25 -54.5,-152.375 -51.375,-151.125 C-62,-156.5 -93,-176.75 -135,-156z"/></g></g><g style="display: block;" mask="url(#__lottie_element_7506_2)"><g transform="matrix(-1,0,0,1,252.5,256)" opacity="1"><g opacity="1" transform="matrix(1,0,0,1,0,0)"><path fill="rgb(255,255,255)" fill-opacity="0.02" d=" M-135,-156 C-207,-117 -166,-15 -139,16 C-165,-28 -146,-69.75 -118.98799896240234,-90.21900177001953 C-83.70500183105469,-116.95600128173828 -33,-109.5 -1,-90.5 C-13,-129.5 -74.83399963378906,-188.58999633789062 -135,-156z"/></g><g opacity="1" transform="matrix(1,0,0,1,0,0)"><path fill="rgb(255,255,255)" fill-opacity="0.02" d=" M-135,-156 C-207,-117 -165,-17.5 -146.25,5 C-168,-31 -150.41400146484375,-73.51000213623047 -121.73799896240234,-94.71900177001953 C-83.5,-123 -31.5,-115.5 -2.5,-94.25 C-14.25,-129.75 -74.83399963378906,-188.58999633789062 -135,-156z"/></g><g opacity="1" transform="matrix(1,0,0,1,0,0)"><path fill="rgb(255,255,255)" fill-opacity="0.03" d=" M-135,-156 C-207,-117 -165,-17.5 -146.25,5 C-173.75,-33.25 -153.1719970703125,-76.93699645996094 -124.73799896240234,-98.46900177001953 C-84.75,-128.75 -23.5,-119.75 -2.5,-94.25 C-14.25,-129.75 -74.83399963378906,-188.58999633789062 -135,-156z"/></g><g opacity="1" transform="matrix(1,0,0,1,0,0)"><path fill="rgb(255,255,255)" fill-opacity="0.03" d=" M-135,-156 C-207,-117 -163.25,-21 -153.25,-5.75 C-174.75,-42.25 -155.1719970703125,-80.93699645996094 -126.73799896240234,-102.46900177001953 C-86.75,-132.75 -26,-123 -5.5,-101 C-17,-129.25 -74.83399963378906,-188.58999633789062 -135,-156z"/></g><g opacity="1" transform="matrix(1,0,0,1,0,0)"><path fill="rgb(255,255,255)" fill-opacity="0.03" d=" M-135,-156 C-203.5,-118.75 -166.125,-30.5 -157.75,-13.875 C-175.625,-48.375 -156.75,-86 -127.48799896240234,-107.46900177001953 C-89.58599853515625,-135.27699279785156 -28.875,-128.625 -8.375,-106.625 C-19.125,-129.875 -75.54399871826172,-188.33200073242188 -135,-156z"/></g><g opacity="1" transform="matrix(1,0,0,1,0,0)"><path fill="rgb(255,255,255)" fill-opacity="0.04" d=" M-135,-156 C-199.25,-121 -170,-41.625 -161.375,-21.75 C-177.5,-55.5 -156.73399353027344,-92.69999694824219 -127.73799896240234,-113.46900177001953 C-90,-140.5 -30.5,-130.5 -12.125,-112.875 C-22.75,-130.875 -75.56800079345703,-188.375 -135,-156z"/></g><g opacity="1" transform="matrix(1,0,0,1,0,0)"><path fill="rgb(255,255,255)" fill-opacity="0.08" d=" M-135,-156 C-195.5,-124.5 -172.75,-48.75 -164,-28 C-180.125,-61.75 -156,-100.25 -128.73800659179688,-118.46900177001953 C-89.64600372314453,-144.593994140625 -33,-134.25 -15.875,-118.5 C-26.5,-132.625 -74.97100067138672,-187.2550048828125 -135,-156z"/></g><g opacity="1" transform="matrix(1,0,0,1,0,0)"><path fill="rgb(255,255,255)" fill-opacity="0.09" d=" M-135,-156 C-194,-124.75 -172.75,-54.875 -166.75,-35.875 C-180.375,-74.25 -152.1320037841797,-110.71800231933594 -128.86300659179688,-125.21900177001953 C-89.5,-149.75 -33.875,-137.125 -21,-125 C-33,-139.25 -79.6520004272461,-185.3159942626953 -135,-156z"/></g><g opacity="1" transform="matrix(1,0,0,1,0,0)"><path fill="rgb(255,255,255)" fill-opacity="0.1" d=" M-135,-156 C-192.25,-126.25 -172.625,-58.25 -170.125,-46.5 C-177.5,-81.875 -156,-116 -129.48800659179688,-131.843994140625 C-89.13600158691406,-155.95899963378906 -37.625,-138.875 -27.5,-131.75 C-41.875,-146.5 -83.99099731445312,-182.5070037841797 -135,-156z"/></g><g opacity="1" transform="matrix(1,0,0,1,0,0)"><path fill="rgb(255,255,255)" fill-opacity="0.11" d=" M-135,-156 C-185.64199829101562,-129.593994140625 -175.125,-74.375 -173.375,-61.375 C-174.5,-88.875 -159.5,-121.5 -130.36300659179688,-138.343994140625 C-89.66500091552734,-161.87100219726562 -42,-142.75 -34.875,-138.875 C-45.125,-146.875 -85.375,-181.875 -135,-156z"/></g><g opacity="1" transform="matrix(1,0,0,1,0,0)"><path fill="rgb(255,255,255)" fill-opacity="0.12" d=" M-135,-156 C-180,-132 -175.75,-86.125 -174.875,-71.625 C-174.75,-94.625 -161.58299255371094,-127.58899688720703 -132.11300659179688,-143.843994140625 C-92.625,-165.625 -48.5,-148 -41.375,-144.125 C-50.25,-150.5 -88.5260009765625,-180.78599548339844 -135,-156z"/></g><g opacity="1" transform="matrix(1,0,0,1,0,0)"><path fill="rgb(255,255,255)" fill-opacity="0.13" d=" M-135,-156 C-170.18499755859375,-138.61700439453125 -176.25,-101 -175.5,-85.5 C-173.375,-106.125 -162.95799255371094,-133.21400451660156 -133.48800659179688,-149.468994140625 C-94,-171.25 -54.5,-152.375 -51.375,-151.125 C-62,-156.5 -93,-176.75 -135,-156z"/></g></g></g><g style="display: block;" transform="matrix(1,0,0,1,256,256)" opacity="1"><g opacity="1" transform="matrix(1,0,0,1,0,0)"><path stroke-linecap="round" stroke-linejoin="round" fill-opacity="0" stroke="rgb(66,29,2)" stroke-opacity="1" stroke-width="0" d=" M-10.687999725341797,-133.25 C-8.291999816894531,-130.08299255371094 -3.875,-123.75 -1.75,-119.625"/></g></g></g></g></svg>