<svg xmlns="http://www.w3.org/2000/svg" xmlns:xlink="http://www.w3.org/1999/xlink" viewBox="0 0 512 512" width="512" height="512" style="width: 100%; height: 100%; transform: translate3d(0,0,0);" preserveAspectRatio="xMidYMid meet"><defs><clipPath id="__lottie_element_13808"><rect width="512" height="512" x="0" y="0"/></clipPath><linearGradient id="__lottie_element_13827" spreadMethod="pad" gradientUnits="userSpaceOnUse" x1="-246" y1="1" x2="243" y2="0"><stop offset="0%" stop-color="rgb(0,0,0)"/><stop offset="25%" stop-color="rgb(0,0,0)"/><stop offset="50%" stop-color="rgb(0,0,0)"/><stop offset="75%" stop-color="rgb(0,0,0)"/><stop offset="100%" stop-color="rgb(0,0,0)"/></linearGradient><mask id="__lottie_element_13829"><path fill="url(#__lottie_element_13828)" d=" M-246.5,-145.5 C-246.5,-139 -246.5,144.218994140625 -246.5,146.593994140625 C-244.71200561523438,146.76499938964844 -241.55099487304688,147.5780029296875 -237.75900268554688,148.50999450683594 C-220.5,152.75 -191.07200622558594,159.75999450683594 -178.26499938964844,161.58399963378906 C-147.25,166 -127.13200378417969,165.62600708007812 -103.76799774169922,164.74600219726562 C-50.75,162.75 -4.125,146.125 27.19499969482422,139.3300018310547 C47.95800018310547,134.8249969482422 68.79000091552734,130.64500427246094 83.74700164794922,128.94000244140625 C106.25,126.375 122.875,126.75 143.25,128.35899353027344 C183.33700561523438,131.52499389648438 217.79400634765625,139.2030029296875 241.43800354003906,147.031005859375 C241.43800354003906,147.09300231933594 241.406005859375,147.09300231933594 241.406005859375,147.06199645996094 C241.406005859375,147.06199645996094 241.406005859375,147.06199645996094 241.406005859375,147.06199645996094 C241.56199645996094,120.56199645996094 241.23399353027344,82.29100036621094 241.25,49.90599822998047 C241.26600646972656,17.08300018310547 241.43699645996094,-15.739999771118164 241.5,-48.5629997253418 C241.56199645996094,-80.91699981689453 241.5,-128.75 241.625,-145.625 C151.281005859375,-172.5 103.15699768066406,-165.1009979248047 78.5,-162.81199645996094 C23.042999267578125,-156.04600524902344 -48.707000732421875,-130.79600524902344 -83.375,-129.06199645996094 C-157.875,-120.1240005493164 -212.75,-139.625 -246.5,-145.5z"/></mask><linearGradient id="__lottie_element_13828" spreadMethod="pad" gradientUnits="userSpaceOnUse" x1="-246" y1="1" x2="243" y2="0"><stop stop-color="rgb(255,255,255)" offset="0%" stop-opacity="1"/><stop stop-color="rgb(255,255,255)" offset="17%" stop-opacity="0.5"/><stop stop-color="rgb(255,255,255)" offset="33%" stop-opacity="0"/><stop stop-color="rgb(255,255,255)" offset="50%" stop-opacity="0"/><stop stop-color="rgb(255,255,255)" offset="66%" stop-opacity="0"/><stop stop-color="rgb(255,255,255)" offset="83%" stop-opacity="0.5"/><stop stop-color="rgb(255,255,255)" offset="100%" stop-opacity="1"/></linearGradient></defs><g clip-path="url(#__lottie_element_13808)"><g style="display: block;" transform="matrix(0.800000011920929,0,0,0.800000011920929,257.9656066894531,250.03680419921875)" opacity="1"><g opacity="1" transform="matrix(1,0,0,1,0,0)"><path fill="rgb(242,242,242)" fill-opacity="1" d=" M-246.5,-145.5 C-246.5,-139 -246.5,144.218994140625 -246.5,146.593994140625 C-244.71200561523438,146.76499938964844 -241.55099487304688,147.5780029296875 -237.75900268554688,148.50999450683594 C-220.5,152.75 -191.07200622558594,159.75999450683594 -178.26499938964844,161.58399963378906 C-147.25,166 -127.13200378417969,165.62600708007812 -103.76799774169922,164.74600219726562 C-50.75,162.75 -4.125,146.125 27.19499969482422,139.3300018310547 C47.95800018310547,134.8249969482422 68.79000091552734,130.64500427246094 83.74700164794922,128.94000244140625 C106.25,126.375 122.875,126.75 143.25,128.35899353027344 C183.33700561523438,131.52499389648438 217.79400634765625,139.2030029296875 241.43800354003906,147.031005859375 C241.43800354003906,147.09300231933594 241.406005859375,147.09300231933594 241.406005859375,147.06199645996094 C241.406005859375,147.06199645996094 241.406005859375,147.06199645996094 241.406005859375,147.06199645996094 C241.56199645996094,120.56199645996094 241.23399353027344,82.29100036621094 241.25,49.90599822998047 C241.26600646972656,17.08300018310547 241.43699645996094,-15.739999771118164 241.5,-48.5629997253418 C241.56199645996094,-80.91699981689453 241.5,-128.75 241.625,-145.625 C151.281005859375,-172.5 103.15699768066406,-165.1009979248047 78.5,-162.81199645996094 C23.042999267578125,-156.04600524902344 -48.707000732421875,-130.79600524902344 -83.375,-129.06199645996094 C-157.875,-120.1240005493164 -212.75,-139.625 -246.5,-145.5z"/></g></g><g style="display: block;" transform="matrix(0.800000011920929,0,0,0.800000011920929,53.200809478759766,44.40000915527344)" opacity="1"><g opacity="1" transform="matrix(1,0,0,1,253.33999633789062,137.0240020751953)"><path fill="rgb(27,62,126)" fill-opacity="1" d=" M30.527000427246094,9.5 C51.90999984741211,-1.8990000486373901 43.53099822998047,-10.550000190734863 64.7229995727539,-13.359000205993652 C87.5739974975586,-17.06100082397461 95.76200103759766,1.3329999446868896 123.16600036621094,1.3220000267028809 C153.125,1.309999942779541 146.59300231933594,-15.006999969482422 169.14599609375,-15.006999969482422 C188.68600463867188,-15.006999969482422 214.21600341796875,22.21500015258789 243.8300018310547,17.739999771118164 C243.8300018310547,17.739999771118164 243.8300018310547,-5.901000022888184 243.8300018310547,-5.901000022888184 C214.21600341796875,-1.4259999990463257 188.68600463867188,-38.64799880981445 169.14599609375,-38.64799880981445 C146.59300231933594,-38.64799880981445 153.125,-22.33099937438965 123.16600036621094,-22.319000244140625 C95.76200103759766,-22.308000564575195 87.5739974975586,-40.70199966430664 64.7229995727539,-37 C43.53099822998047,-34.191001892089844 47.65999984741211,-20.52400016784668 30.527000427246094,-16.016000747680664 C10.430999755859375,-10.729000091552734 12.1899995803833,19.274999618530273 30.527000427246094,9.5z"/></g><g opacity="1" transform="matrix(1,0,0,1,253.33999633789062,185.843994140625)"><path fill="rgb(27,62,126)" fill-opacity="1" d=" M169.14599609375,-38.64799880981445 C146.59300231933594,-38.64799880981445 153.125,-22.33099937438965 123.16600036621094,-22.319000244140625 C95.76200103759766,-22.308000564575195 87.5739974975586,-40.70199966430664 64.7229995727539,-37 C43.53099822998047,-34.191001892089844 49.40999984741211,-19.8439998626709 26.527000427246094,-15.765999794006348 C6.068999767303467,-12.119999885559082 6.392000198364258,14.890000343322754 26.527000427246094,9.75 C49.90999984741211,3.7809998989105225 43.53099822998047,-10.550000190734863 64.7229995727539,-13.359000205993652 C87.5739974975586,-17.06100082397461 95.76200103759766,1.3329999446868896 123.16600036621094,1.3220000267028809 C153.125,1.309999942779541 146.59300231933594,-15.006999969482422 169.14599609375,-15.006999969482422 C188.68600463867188,-15.006999969482422 214.21600341796875,22.21500015258789 243.8300018310547,17.739999771118164 C243.8300018310547,17.739999771118164 243.8300018310547,-5.901000022888184 243.8300018310547,-5.901000022888184 C214.21600341796875,-1.4259999990463257 188.68600463867188,-38.64799880981445 169.14599609375,-38.64799880981445z"/></g><g opacity="1" transform="matrix(1,0,0,1,253.33999633789062,228.12600708007812)"><path fill="rgb(27,62,126)" fill-opacity="1" d=" M169.14599609375,-31.83300018310547 C146.59300231933594,-31.83300018310547 153.125,-15.515999794006348 123.16600036621094,-15.503999710083008 C95.76200103759766,-15.493000030517578 87.5739974975586,-33.887001037597656 64.7229995727539,-30.184999465942383 C43.53099822998047,-27.37700080871582 45.40999984741211,-12.25100040435791 30.402000427246094,-7.826000213623047 C27.53499984741211,-1.5010000467300415 31.03499984741211,6.124000072479248 31.156999588012695,14.38700008392334 C50.65999984741211,10.99899959564209 43.53099822998047,-3.734999895095825 64.7229995727539,-6.544000148773193 C87.5739974975586,-10.246000289916992 95.76200103759766,8.14799976348877 123.16600036621094,8.13700008392334 C153.125,8.125 146.59300231933594,-8.192000389099121 169.14599609375,-8.192000389099121 C188.68600463867188,-8.192000389099121 214.21600341796875,29.030000686645508 243.8300018310547,24.55500030517578 C243.8300018310547,24.55500030517578 243.8300018310547,0.9139999747276306 243.8300018310547,0.9139999747276306 C214.21600341796875,5.388999938964844 188.68600463867188,-31.83300018310547 169.14599609375,-31.83300018310547z"/></g><g opacity="1" transform="matrix(1,0,0,1,253.33999633789062,381.8559875488281)"><path fill="rgb(27,62,126)" fill-opacity="1" d=" M169.14599609375,-38.808998107910156 C146.59300231933594,-38.808998107910156 153.125,-22.492000579833984 123.16600036621094,-22.479999542236328 C95.76200103759766,-22.4689998626709 87.5739974975586,-40.862998962402344 64.7229995727539,-37.1609992980957 C43.53099822998047,-34.35200119018555 44.9370002746582,-13.16100025177002 13.277000427246094,-7.927000045776367 C-7.224999904632568,-4.538000106811523 -16.10700035095215,-15.592000007629395 -39.319000244140625,-13.543999671936035 C-61.020999908447266,-11.628999710083008 -59.744998931884766,11.98900032043457 -88.71800231933594,14.663999557495117 C-114.36599731445312,17.031999588012695 -126.15799713134766,-4.328999996185303 -148.21400451660156,-4.711999893188477 C-169.17599487304688,-5.076000213623047 -168.76499938964844,11.574000358581543 -192.38299560546875,8.668999671936035 C-211.3350067138672,6.3379998207092285 -228.50799560546875,-14.329999923706055 -243.8300018310547,-21.360000610351562 C-243.8300018310547,-21.360000610351562 -243.8300018310547,2.6019999980926514 -243.8300018310547,2.6019999980926514 C-231.16600036621094,8.411999702453613 -211.83999633789062,29.39299964904785 -194.10299682617188,32.209999084472656 C-170.33999633789062,36.143001556396484 -167.4340057373047,18.915000915527344 -148.21400451660156,19.249000549316406 C-126.15799713134766,19.631999969482422 -114.36599731445312,40.99300003051758 -88.71800231933594,38.625 C-59.744998931884766,35.95000076293945 -61.020999908447266,12.333000183105469 -39.319000244140625,10.418000221252441 C-16.10700035095215,8.369999885559082 -7.224999904632568,19.423999786376953 13.277000427246094,16.03499984741211 C44.9370002746582,10.800999641418457 43.53099822998047,-10.390000343322754 64.7229995727539,-13.199000358581543 C87.5739974975586,-16.900999069213867 95.76200103759766,1.4930000305175781 123.16600036621094,1.4819999933242798 C153.125,1.4700000286102295 146.59500122070312,-15.166999816894531 169.14599609375,-14.847000122070312 C194.90899658203125,-14.482000350952148 209.91000366210938,22.143999099731445 243.8300018310547,17.899999618530273 C243.8300018310547,17.899999618530273 243.8300018310547,-6.061999797821045 243.8300018310547,-6.061999797821045 C214.21600341796875,-1.5870000123977661 188.68600463867188,-38.808998107910156 169.14599609375,-38.808998107910156z"/></g><g opacity="1" transform="matrix(1,0,0,1,253.33999633789062,332.7239990234375)"><path fill="rgb(27,62,126)" fill-opacity="1" d=" M169.14599609375,-38.64799880981445 C146.59300231933594,-38.64799880981445 153.125,-22.33099937438965 123.16600036621094,-22.319000244140625 C95.76200103759766,-22.308000564575195 87.5739974975586,-40.70199966430664 64.7229995727539,-37 C43.53099822998047,-34.191001892089844 44.9370002746582,-13 13.277000427246094,-7.765999794006348 C-7.224999904632568,-4.376999855041504 -16.10700035095215,-15.430999755859375 -39.319000244140625,-13.383000373840332 C-61.020999908447266,-11.468000411987305 -59.744998931884766,12.14900016784668 -88.71800231933594,14.824000358581543 C-114.36599731445312,17.191999435424805 -126.15799713134766,-4.169000148773193 -148.21400451660156,-4.552000045776367 C-169.17599487304688,-4.915999889373779 -168.76499938964844,11.734999656677246 -192.38299560546875,8.829999923706055 C-211.3350067138672,6.499000072479248 -228.50799560546875,-14.170000076293945 -243.8300018310547,-21.200000762939453 C-243.8300018310547,-21.200000762939453 -243.8300018310547,2.440999984741211 -243.8300018310547,2.440999984741211 C-228.50799560546875,9.470999717712402 -211.3350067138672,30.139999389648438 -192.38299560546875,32.47100067138672 C-168.76499938964844,35.375999450683594 -169.17599487304688,18.725000381469727 -148.21400451660156,19.089000701904297 C-126.15799713134766,19.472000122070312 -114.36599731445312,40.83300018310547 -88.71800231933594,38.46500015258789 C-59.744998931884766,35.790000915527344 -61.020999908447266,12.17300033569336 -39.319000244140625,10.258000373840332 C-16.10700035095215,8.210000038146973 -7.224999904632568,19.263999938964844 13.277000427246094,15.875 C44.9370002746582,10.640999794006348 43.53099822998047,-10.550999641418457 64.7229995727539,-13.359000205993652 C87.5739974975586,-17.06100082397461 95.76200103759766,1.3329999446868896 123.16600036621094,1.3220000267028809 C153.125,1.309999942779541 146.59300231933594,-15.006999969482422 169.14599609375,-15.006999969482422 C188.68600463867188,-15.006999969482422 214.21600341796875,22.21500015258789 243.8300018310547,17.739999771118164 C243.8300018310547,17.739999771118164 243.8300018310547,-5.901000022888184 243.8300018310547,-5.901000022888184 C214.21600341796875,-1.4259999990463257 188.68600463867188,-38.64799880981445 169.14599609375,-38.64799880981445z"/></g><g opacity="1" transform="matrix(1,0,0,1,253.33999633789062,283.9960021972656)"><path fill="rgb(27,62,126)" fill-opacity="1" d=" M169.14599609375,-38.64799880981445 C146.59300231933594,-38.64799880981445 153.125,-22.33099937438965 123.16600036621094,-22.319000244140625 C95.76200103759766,-22.308000564575195 87.5739974975586,-40.70199966430664 64.7229995727539,-37 C43.53099822998047,-34.191001892089844 44.9370002746582,-13 13.277000427246094,-7.765999794006348 C-7.224999904632568,-4.376999855041504 -16.10700035095215,-15.430999755859375 -39.319000244140625,-13.383000373840332 C-61.020999908447266,-11.468000411987305 -59.744998931884766,12.14900016784668 -88.71800231933594,14.824000358581543 C-114.36599731445312,17.191999435424805 -126.15799713134766,-4.169000148773193 -148.21400451660156,-4.552000045776367 C-169.17599487304688,-4.915999889373779 -168.76499938964844,11.734999656677246 -192.38299560546875,8.829999923706055 C-211.3350067138672,6.499000072479248 -228.50799560546875,-14.170000076293945 -243.8300018310547,-21.200000762939453 C-243.8300018310547,-21.200000762939453 -243.8300018310547,2.440999984741211 -243.8300018310547,2.440999984741211 C-228.50799560546875,9.470999717712402 -211.3350067138672,30.139999389648438 -192.38299560546875,32.47100067138672 C-168.76499938964844,35.375999450683594 -169.17599487304688,18.725000381469727 -148.21400451660156,19.089000701904297 C-126.15799713134766,19.472000122070312 -114.36599731445312,40.83300018310547 -88.71800231933594,38.46500015258789 C-59.744998931884766,35.790000915527344 -61.020999908447266,12.17300033569336 -39.319000244140625,10.258000373840332 C-16.10700035095215,8.210000038146973 -7.224999904632568,19.263999938964844 13.277000427246094,15.875 C44.9370002746582,10.640999794006348 43.53099822998047,-10.550000190734863 64.7229995727539,-13.359000205993652 C87.5739974975586,-17.06100082397461 95.76200103759766,1.3329999446868896 123.16600036621094,1.3220000267028809 C153.125,1.309999942779541 146.59300231933594,-15.006999969482422 169.14599609375,-15.006999969482422 C188.68600463867188,-15.006999969482422 214.21600341796875,22.21500015258789 243.8300018310547,17.739999771118164 C243.8300018310547,17.739999771118164 243.8300018310547,-5.901000022888184 243.8300018310547,-5.901000022888184 C214.21600341796875,-1.4259999990463257 188.68600463867188,-38.64799880981445 169.14599609375,-38.64799880981445z"/></g><g opacity="0" transform="matrix(1,0,0,1,0,0)"><path fill="rgb(27,62,126)" fill-opacity="1" d=" M421.375,437.75 C421.375,437.75 420.25,437.75 420.25,437.75 C420.25,437.75 441.625,463.125 441.625,463.125 C441.625,463.125 442.375,462.75 442.375,462.75 C442.375,462.75 421.375,437.75 421.375,437.75z"/></g><g opacity="0" transform="matrix(1,0,0,1,0,0)"><path fill="rgb(27,62,126)" fill-opacity="1" d=" M433.9960021972656,403.9639892578125 C433.9960021972656,403.9639892578125 433.3680114746094,404.3739929199219 433.3680114746094,404.3739929199219 C433.3680114746094,404.3739929199219 451.07000732421875,424.1650085449219 451.07000732421875,424.1650085449219 C451.07000732421875,424.1650085449219 452.0069885253906,424.0010070800781 452.0069885253906,424.0010070800781 C452.0069885253906,424.0010070800781 433.9960021972656,403.9639892578125 433.9960021972656,403.9639892578125z"/></g></g><g style="display: block;" transform="matrix(0.800000011920929,0,0,0.800000011920929,173.15760803222656,192.7248077392578)" opacity="1"><g opacity="1" transform="matrix(1,0,0,1,0,0)"><path fill="rgb(27,62,126)" fill-opacity="1" d=" M140.93600463867188,56.29999923706055 C140.93600463867188,56.29999923706055 140.9040069580078,9.34000015258789 140.9040069580078,9.34000015258789 C140.9040069580078,9.34000015258789 140.9199981689453,-37.93000030517578 140.9199981689453,-37.93000030517578 C140.9199981689453,-37.93000030517578 140.93600463867188,-84.62300109863281 140.93600463867188,-84.62300109863281 C129.78500366210938,-82.28700256347656 63.41699981689453,-59.69900131225586 0.44699999690055847,-56.08100128173828 C-55.88399887084961,-52.84400177001953 -83.52100372314453,-61.058998107910156 -140.93600463867188,-75.30000305175781 C-140.93600463867188,-75.30000305175781 -140.93600463867188,65.63899993896484 -140.93600463867188,65.63899993896484 C-81.0009994506836,81.45099639892578 -60.82400131225586,84.46499633789062 -22.88800048828125,84.87300109863281 C-8.35200023651123,85.02899932861328 7.586999893188477,84.83799743652344 23.92799949645996,82.50199890136719 C62.90299987792969,76.93099975585938 104.83499908447266,65.2300033569336 140.93600463867188,56.29999923706055z"/></g></g><g style="display: block;" transform="matrix(0.800000011920929,0,0,0.800000011920929,52.80000305175781,44.599205017089844)" opacity="1"><g opacity="1" transform="matrix(1,0,0,1,150.44700622558594,179.6510009765625)"><g opacity="1" transform="matrix(1,0,0,1,0,0)"><path fill="rgb(242,242,242)" fill-opacity="1" d=" M140.93600463867188,45.86000061035156 C105.29399871826172,36.582000732421875 69.26499938964844,28.216999053955078 32.012001037597656,15.069999694824219 C62.02299880981445,-4.513000011444092 96.12899780273438,-29.617000579833984 140.93600463867188,-63.07600021362305 C140.93600463867188,-63.07600021362305 140.93600463867188,-78.86699676513672 140.93600463867188,-78.86699676513672 C130.77000427246094,-76.73699951171875 120.14900207519531,-74.1969985961914 109.09300231933594,-71.24199676513672 C109.06999969482422,-71.21700286865234 109.04399871826172,-71.18399810791016 109.02100372314453,-71.16100311279297 C71.60399627685547,-42.1510009765625 38.112998962402344,-17.724000930786133 0.4099999964237213,2.7730000019073486 C-34.571998596191406,-12.204999923706055 -70.78900146484375,-32.58300018310547 -108.89600372314453,-62.80799865722656 C-118.85600280761719,-64.91300201416016 -129.4409942626953,-67.18399810791016 -140.93600463867188,-69.54399871826172 C-140.93600463867188,-69.54399871826172 -140.93600463867188,-53.53799819946289 -140.93600463867188,-53.53799819946289 C-104.43699645996094,-28.447999954223633 -76.36399841308594,-4.059999942779541 -32.255001068115234,19.003999710083008 C-63.426998138427734,33.069000244140625 -98.40399932861328,44.930999755859375 -140.8509979248047,54.88100051879883 C-140.8769989013672,54.88199996948242 -140.9080047607422,54.87900161743164 -140.93600463867188,54.87900161743164 C-140.93600463867188,54.87900161743164 -140.93600463867188,71.3949966430664 -140.93600463867188,71.3949966430664 C-130.14999389648438,74.24099731445312 -119.88200378417969,76.72100067138672 -110.0739974975586,78.86699676513672 C-67.13200378417969,67.43399810791016 -34.680999755859375,54.505001068115234 0.4490000009536743,34.452999114990234 C29.274999618530273,46.74100112915039 64.56800079345703,58.59199905395508 110.36599731445312,69.89900207519531 C120.17400360107422,67.33499908447266 130.2949981689453,64.68699645996094 140.93600463867188,62.05500030517578 C140.93600463867188,62.05500030517578 140.93600463867188,45.86000061035156 140.93600463867188,45.86000061035156z"/></g></g><g opacity="1" transform="matrix(1,0,0,1,77.375,232.7480010986328)"><path fill="rgb(194,42,59)" fill-opacity="1" d=" M210.98899841308594,-130.16700744628906 C210.98899841308594,-130.16700744628906 192.52200317382812,-127.04199981689453 192.52200317382812,-127.04199981689453 C168.18699645996094,-105.84100341796875 114.43800354003906,-70.52899932861328 75.60299682617188,-39.42599868774414 C11.781999588012695,-54.435001373291016 -42.59400177001953,-107.40399932861328 -65.8949966430664,-121.42900085449219 C-66.65599822998047,-118.96600341796875 -66.65599822998047,-115.02100372314453 -67.23500061035156,-112.50399780273438 C-16.3439998626709,-74.552001953125 14.75,-48.810001373291016 65.4209976196289,-34.63800048828125 C17.093000411987305,0.5649999976158142 -41.944000244140625,11.786999702453613 -67.86399841308594,18.29800033569336 C-61.23400115966797,20.047000885009766 -54.80400085449219,21.6560001373291 -48.551998138427734,23.13599967956543 C-48.52199935913086,23.118000030517578 -48.48699951171875,23.097999572753906 -48.459999084472656,23.082000732421875 C-26.22599983215332,17.80500030517578 30.687000274658203,4.626999855041504 71.93399810791016,-28.81599998474121 C116.46900177001953,-17.24799919128418 191.781005859375,2.752000093460083 213.33999633789062,8.51099967956543 C213.343994140625,8.03600025177002 213.5,-0.8410000205039978 213.3179931640625,-1.909000039100647 C150.68699645996094,-18.965999603271484 117.71900177001953,-26.93600082397461 84.38899993896484,-36.191001892089844 C127.875,-67.24800109863281 176.625,-104.59100341796875 210.98899841308594,-130.16700744628906z"/></g></g><g style="display: block;" transform="matrix(0.800000011920929,0,0,0.800000011920929,52.80000305175781,44.599205017089844)" opacity="1"><g opacity="1" transform="matrix(1,0,0,1,150.44700622558594,198.3560028076172)"><g opacity="1" transform="matrix(1,0,0,1,0,0)"><path fill="rgb(242,242,242)" fill-opacity="1" d=" M24,-25.538000106811523 C24,-25.538000106811523 24,-71.6719970703125 24,-71.6719970703125 C6.656000137329102,-69.4219970703125 -8.670999526977539,-68.65799713134766 -23.233999252319336,-69.03099822998047 C-23.233999252319336,-69.03099822998047 -23.233999252319336,-22.201000213623047 -23.233999252319336,-22.201000213623047 C-56.680999755859375,-22.590999603271484 -90.12899780273438,-29.222999572753906 -140.93600463867188,-42.066001892089844 C-140.93600463867188,-42.066001892089844 -140.93600463867188,4.965000152587891 -140.93600463867188,4.965000152587891 C-90.12799835205078,18.27199935913086 -56.66600036621094,25.172000885009766 -23.233999252319336,25.663000106811523 C-23.233999252319336,25.663000106811523 -23.233999252319336,71.55799865722656 -23.233999252319336,71.55799865722656 C-6.339000225067139,71.99099731445312 9.168000221252441,71.16699981689453 24,69.4469985961914 C24,69.4469985961914 24,22.354999542236328 24,22.354999542236328 C54.4370002746582,17.965999603271484 90.1989974975586,9.244999885559082 140.93600463867188,-3.809999942779541 C140.93600463867188,-3.809999942779541 140.93600463867188,-51.220001220703125 140.93600463867188,-51.220001220703125 C90.1989974975586,-38.43299865722656 54.43000030517578,-29.878000259399414 24,-25.538000106811523z"/></g></g><g opacity="1" transform="matrix(1,0,0,1,150.44700622558594,198.88999938964844)"><g opacity="1" transform="matrix(1,0,0,1,0,0)"><path fill="rgb(194,42,59)" fill-opacity="1" d=" M14.809000015258789,-15.156999588012695 C14.809000015258789,-15.156999588012695 14.809000015258789,-71.13200378417969 14.809000015258789,-71.13200378417969 C4.807000160217285,-70.09600067138672 -4.551000118255615,-69.572998046875 -13.531999588012695,-69.48799896240234 C-13.531999588012695,-69.48799896240234 -13.531999588012695,-12.993000030517578 -13.531999588012695,-12.993000030517578 C-50.361000061035156,-11.958000183105469 -85.4010009765625,-18.368000030517578 -140.93600463867188,-32.89899826049805 C-140.93600463867188,-32.89899826049805 -140.93600463867188,-6.038000106811523 -140.93600463867188,-6.038000106811523 C-85.22200012207031,8.553999900817871 -50.36600112915039,15.439000129699707 -13.531999588012695,14.619999885559082 C-13.531999588012695,14.619999885559082 -13.531999588012695,71.13200378417969 -13.531999588012695,71.13200378417969 C-3.687000036239624,71.10700225830078 5.710999965667725,70.65799713134766 14.809000015258789,69.85399627685547 C14.809000015258789,69.85399627685547 14.809000015258789,12.562999725341797 14.809000015258789,12.562999725341797 C47.270999908447266,8.70300006866455 85.00700378417969,-0.421999990940094 140.93600463867188,-14.812999725341797 C140.93600463867188,-14.812999725341797 140.93600463867188,-41.72100067138672 140.93600463867188,-41.72100067138672 C85.15799713134766,-28.073999404907227 47.415000915527344,-19.09000015258789 14.809000015258789,-15.156999588012695z"/></g></g></g><g style="display: block;" transform="matrix(0.800000011920929,0,0,0.800000011920929,53.00002670288086,44.19920349121094)" opacity="1"><g opacity="1" transform="matrix(1,0,0,1,394.0849914550781,238.56700134277344)"><path stroke-linecap="round" stroke-linejoin="round" fill-opacity="0" stroke="rgb(255,255,255)" stroke-opacity="1" stroke-width="9" d=" M-3.128000020980835,116.88600158691406 C-3.128000020980835,116.88600158691406 -3.128000020980835,-35.38800048828125 -3.128000020980835,-35.38800048828125 C-3.128000020980835,-35.38800048828125 5.935999870300293,-35.38800048828125 5.935999870300293,-35.38800048828125 C5.935999870300293,-35.38800048828125 5.935999870300293,116.88600158691406 5.935999870300293,116.88600158691406 C5.289999961853027,122.68299865722656 -2.0850000381469727,122.18299865722656 -3.128000020980835,116.88600158691406z M-6.829999923706055,-37.821998596191406 C-6.829999923706055,-37.821998596191406 -30.500999450683594,-13.439000129699707 -47.680999755859375,-13.439000129699707 C-47.680999755859375,-13.439000129699707 -38.999000549316406,-32.132999420166016 -18.573999404907227,-47.652000427246094 C-18.573999404907227,-47.652000427246094 -43.46799850463867,-44.07699966430664 -60.83000183105469,-48.67300033569336 C-60.83000183105469,-48.67300033569336 -43.005001068115234,-63.22700119018555 -17.426000595092773,-61.31100082397461 C-17.426000595092773,-61.31100082397461 -50.744998931884766,-74.58799743652344 -54.446998596191406,-89.90699768066406 C-54.446998596191406,-89.90699768066406 -23.042999267578125,-86.0770034790039 -6.74399995803833,-68.49600219726562 C-6.74399995803833,-68.49600219726562 -10.942999839782715,-105.28199768066406 -3.2119998931884766,-120.8010025024414 C-3.2119998931884766,-120.8010025024414 7.953999996185303,-96.46800231933594 7,-73.09400177001953 C7,-73.09400177001953 17.170000076293945,-101.26799774169922 48.70199966430664,-102.16200256347656 C44.4010009765625,-89.76399993896484 27.9950008392334,-75.27899932861328 18.957000732421875,-66.9280014038086 C18.957000732421875,-66.9280014038086 32.36199951171875,-71.14099884033203 60.83000183105469,-67.94999694824219 C60.83000183105469,-67.94999694824219 38.36199951171875,-52.375999450683594 12.53600025177002,-49.9119987487793 C12.53600025177002,-49.9119987487793 54.83000183105469,-26.8439998626709 60.83000183105469,-8.333000183105469 C60.83000183105469,-8.333000183105469 35.297000885009766,-18.16200065612793 11.581000328063965,-34.58399963378906 C11.581000328063965,-34.58399963378906 20.17099952697754,-11.78499984741211 18.452999114990234,-1.8220000267028809 C18.452999114990234,-1.8220000267028809 0.041999999433755875,-10.99899959564209 -6.829999923706055,-37.821998596191406z M0.8389999866485596,17.913000106811523 C-42.334999084472656,2.683000087738037 -30.586000442504883,33.68299865722656 -22.68400001525879,41.19200134277344 C-22.68400001525879,41.19200134277344 -22.709999084472656,54.68299865722656 -22.472999572753906,59.14899826049805 C-14.960000038146973,61.80799865722656 10.789999961853027,63.933998107910156 24.038000106811523,61.608001708984375 C24.415000915527344,56.808998107910156 24.30900001525879,42.972999572753906 24.30900001525879,42.972999572753906 C43.040000915527344,27.058000564575195 26.165000915527344,7.308000087738037 0.8389999866485596,17.913000106811523z"/></g><g opacity="1" transform="matrix(1,0,0,1,395.489013671875,281.27301025390625)"><path fill="rgb(162,67,0)" fill-opacity="1" d=" M-4.5320000648498535,74.17900085449219 C-4.5320000648498535,74.17900085449219 -4.5320000648498535,-78.09400177001953 -4.5320000648498535,-78.09400177001953 C-4.5320000648498535,-78.09400177001953 4.5320000648498535,-78.09400177001953 4.5320000648498535,-78.09400177001953 C4.5320000648498535,-78.09400177001953 4.5320000648498535,74.17900085449219 4.5320000648498535,74.17900085449219 C3.885999917984009,79.97599792480469 -3.489000082015991,79.47599792480469 -4.5320000648498535,74.17900085449219z"/><path stroke-linecap="round" stroke-linejoin="round" fill-opacity="0" stroke="rgb(0,0,0)" stroke-opacity="1" stroke-width="1" d=" M-4.5320000648498535,74.17900085449219 C-4.5320000648498535,74.17900085449219 -4.5320000648498535,-78.09400177001953 -4.5320000648498535,-78.09400177001953 C-4.5320000648498535,-78.09400177001953 4.5320000648498535,-78.09400177001953 4.5320000648498535,-78.09400177001953 C4.5320000648498535,-78.09400177001953 4.5320000648498535,74.17900085449219 4.5320000648498535,74.17900085449219 C3.885999917984009,79.97599792480469 -3.489000082015991,79.47599792480469 -4.5320000648498535,74.17900085449219z"/></g><g opacity="1" transform="matrix(1,0,0,1,394.0849914550781,177.2550048828125)"><path fill="rgb(0,109,0)" fill-opacity="1" d=" M-6.829999923706055,23.48900032043457 C-6.829999923706055,23.48900032043457 -30.500999450683594,47.87200164794922 -47.680999755859375,47.87200164794922 C-47.680999755859375,47.87200164794922 -38.999000549316406,29.179000854492188 -18.573999404907227,13.65999984741211 C-18.573999404907227,13.65999984741211 -43.46799850463867,17.233999252319336 -60.83000183105469,12.637999534606934 C-60.83000183105469,12.637999534606934 -43.005001068115234,-1.9160000085830688 -17.426000595092773,0 C-17.426000595092773,0 -50.744998931884766,-13.277000427246094 -54.446998596191406,-28.59600067138672 C-54.446998596191406,-28.59600067138672 -23.042999267578125,-24.766000747680664 -6.74399995803833,-7.184999942779541 C-6.74399995803833,-7.184999942779541 -10.942999839782715,-43.970001220703125 -3.2119998931884766,-59.48899841308594 C-3.2119998931884766,-59.48899841308594 7.953999996185303,-35.15700149536133 7,-11.782999992370605 C7,-11.782999992370605 17.170000076293945,-39.957000732421875 48.70199966430664,-40.85100173950195 C44.4010009765625,-28.452999114990234 27.9950008392334,-13.968000411987305 18.957000732421875,-5.617000102996826 C18.957000732421875,-5.617000102996826 32.36199951171875,-9.829000473022461 60.83000183105469,-6.638000011444092 C60.83000183105469,-6.638000011444092 38.36199951171875,8.935999870300293 12.53600025177002,11.399999618530273 C12.53600025177002,11.399999618530273 54.83000183105469,34.46799850463867 60.83000183105469,52.979000091552734 C60.83000183105469,52.979000091552734 35.297000885009766,43.14899826049805 11.581000328063965,26.726999282836914 C11.581000328063965,26.726999282836914 20.17099952697754,49.5260009765625 18.452999114990234,59.48899841308594 C18.452999114990234,59.48899841308594 0.041999999433755875,50.3120002746582 -6.829999923706055,23.48900032043457z"/><path stroke-linecap="round" stroke-linejoin="round" fill-opacity="0" stroke="rgb(0,0,0)" stroke-opacity="1" stroke-width="1" d=" M-6.829999923706055,23.48900032043457 C-6.829999923706055,23.48900032043457 -30.500999450683594,47.87200164794922 -47.680999755859375,47.87200164794922 C-47.680999755859375,47.87200164794922 -38.999000549316406,29.179000854492188 -18.573999404907227,13.65999984741211 C-18.573999404907227,13.65999984741211 -43.46799850463867,17.233999252319336 -60.83000183105469,12.637999534606934 C-60.83000183105469,12.637999534606934 -43.005001068115234,-1.9160000085830688 -17.426000595092773,0 C-17.426000595092773,0 -50.744998931884766,-13.277000427246094 -54.446998596191406,-28.59600067138672 C-54.446998596191406,-28.59600067138672 -23.042999267578125,-24.766000747680664 -6.74399995803833,-7.184999942779541 C-6.74399995803833,-7.184999942779541 -10.942999839782715,-43.970001220703125 -3.2119998931884766,-59.48899841308594 C-3.2119998931884766,-59.48899841308594 7.953999996185303,-35.15700149536133 7,-11.782999992370605 C7,-11.782999992370605 17.170000076293945,-39.957000732421875 48.70199966430664,-40.85100173950195 C44.4010009765625,-28.452999114990234 27.9950008392334,-13.968000411987305 18.957000732421875,-5.617000102996826 C18.957000732421875,-5.617000102996826 32.36199951171875,-9.829000473022461 60.83000183105469,-6.638000011444092 C60.83000183105469,-6.638000011444092 38.36199951171875,8.935999870300293 12.53600025177002,11.399999618530273 C12.53600025177002,11.399999618530273 54.83000183105469,34.46799850463867 60.83000183105469,52.979000091552734 C60.83000183105469,52.979000091552734 35.297000885009766,43.14899826049805 11.581000328063965,26.726999282836914 C11.581000328063965,26.726999282836914 20.17099952697754,49.5260009765625 18.452999114990234,59.48899841308594 C18.452999114990234,59.48899841308594 0.041999999433755875,50.3120002746582 -6.829999923706055,23.48900032043457z"/></g><g opacity="1" transform="matrix(1,0,0,1,394.98699951171875,269.25201416015625)"><path fill="rgb(254,254,254)" fill-opacity="1" d=" M-0.06300000101327896,-12.772000312805176 C-43.604000091552734,-28.336999893188477 -33.64699935913086,4.769000053405762 -18.711000442504883,14.663000106811523 C-18.711000442504883,14.663000106811523 11.62399959564209,19.625 19.9060001373291,14.663000106811523 C44.736000061035156,-1.8049999475479126 25.458999633789062,-24.273000717163086 -0.06300000101327896,-12.772000312805176z"/></g><g opacity="1" transform="matrix(1,0,0,1,394.5190124511719,274.0400085449219)"><g opacity="1" transform="matrix(1,0,0,1,0,0)"><path fill="rgb(200,16,46)" fill-opacity="1" d=" M-28.009000778198242,-1.2519999742507935 C-25.650999069213867,3.181999921798706 -22.115999221801758,7.309000015258789 -18.243000030517578,9.875 C-18.243000030517578,9.875 12.092000007629395,14.836999893188477 20.374000549316406,9.875 C23.667999267578125,7.690000057220459 26.179000854492188,5.39900016784668 28.009000778198242,3.0969998836517334 C10.013999938964844,-16.04800033569336 -7.198999881744385,-16.606000900268555 -28.009000778198242,-1.2519999742507935z"/><path stroke-linecap="round" stroke-linejoin="round" fill-opacity="0" stroke="rgb(0,0,0)" stroke-opacity="1" stroke-width="1" d=" M-28.009000778198242,-1.2519999742507935 C-25.650999069213867,3.181999921798706 -22.115999221801758,7.309000015258789 -18.243000030517578,9.875 C-18.243000030517578,9.875 12.092000007629395,14.836999893188477 20.374000549316406,9.875 C23.667999267578125,7.690000057220459 26.179000854492188,5.39900016784668 28.009000778198242,3.0969998836517334 C10.013999938964844,-16.04800033569336 -7.198999881744385,-16.606000900268555 -28.009000778198242,-1.2519999742507935z"/></g></g><g opacity="1" transform="matrix(1,0,0,1,394.92401123046875,289.5469970703125)"><path fill="rgb(254,209,0)" fill-opacity="1" d=" M-23.28700065612793,8.154999732971191 C-23.28700065612793,8.154999732971191 23.378000259399414,9.972999572753906 23.378000259399414,9.972999572753906 C23.378000259399414,9.972999572753906 23.378000259399414,-3.9149999618530273 23.378000259399414,-7.754000186920166 C23.410999298095703,-7.794000148773193 -23.3799991607666,-9.972999572753906 -23.3799991607666,-9.972999572753906 C-23.347999572753906,-9.932999610900879 -23.28700065612793,8.154999732971191 -23.28700065612793,8.154999732971191z"/><path stroke-linecap="round" stroke-linejoin="round" fill-opacity="0" stroke="rgb(0,0,0)" stroke-opacity="1" stroke-width="1" d=" M-23.28700065612793,8.154999732971191 C-23.28700065612793,8.154999732971191 23.378000259399414,9.972999572753906 23.378000259399414,9.972999572753906 C23.378000259399414,9.972999572753906 23.378000259399414,-3.9149999618530273 23.378000259399414,-7.754000186920166 C23.410999298095703,-7.794000148773193 -23.3799991607666,-9.972999572753906 -23.3799991607666,-9.972999572753906 C-23.347999572753906,-9.932999610900879 -23.28700065612793,8.154999732971191 -23.28700065612793,8.154999732971191z"/></g><g opacity="1" transform="matrix(1,0,0,1,394.968994140625,259.5920104980469)"><path stroke-linecap="round" stroke-linejoin="round" fill-opacity="0" stroke="rgb(254,209,0)" stroke-opacity="1" stroke-width="3" d=" M0,-22.08099937438965 C0,-22.08099937438965 0,22.08099937438965 0,22.08099937438965"/></g><g opacity="1" transform="matrix(1,0,0,1,394.8240051269531,242.13499450683594)"><path stroke-linecap="round" stroke-linejoin="round" fill-opacity="0" stroke="rgb(254,209,0)" stroke-opacity="1" stroke-width="3" d=" M-3.930999994277954,-0.2199999988079071 C-3.930999994277954,-0.2199999988079071 3.930999994277954,0.2199999988079071 3.930999994277954,0.2199999988079071"/></g><g opacity="1" transform="matrix(1,0,0,1,394.99700927734375,298.3479919433594)"><path fill="rgb(255,255,255)" fill-opacity="1" d=" M23.398000717163086,1.1729999780654907 C19.128000259399414,4.340000152587891 -22.496999740600586,1.6519999504089355 -23.360000610351562,-0.7089999914169312 C-16.684999465942383,-4.660999774932861 14.628000259399414,-2.3469998836517334 23.398000717163086,1.1729999780654907z"/><path stroke-linecap="round" stroke-linejoin="round" fill-opacity="0" stroke="rgb(0,0,0)" stroke-opacity="1" stroke-width="1" d=" M23.398000717163086,1.1729999780654907 C19.128000259399414,4.340000152587891 -22.496999740600586,1.6519999504089355 -23.360000610351562,-0.7089999914169312 C-16.684999465942383,-4.660999774932861 14.628000259399414,-2.3469998836517334 23.398000717163086,1.1729999780654907z"/></g><g opacity="1" transform="matrix(1,0,0,1,394.98699951171875,268.14898681640625)"><path stroke-linecap="round" stroke-linejoin="round" fill-opacity="0" stroke="rgb(254,209,0)" stroke-opacity="1" stroke-width="3" d=" M19.9060001373291,15.765999794006348 C44.736000061035156,-0.7020000219345093 25.458999633789062,-23.17099952697754 -0.06300000101327896,-11.670000076293945 C-43.604000091552734,-27.235000610351562 -33.64699935913086,5.872000217437744 -18.711000442504883,15.765999794006348"/></g></g><g style="display: block;" transform="matrix(0.800000011920929,0,0,0.800000011920929,257.9656066894531,250.03680419921875)" opacity="0.35000000000000003"><g opacity="1" transform="matrix(1,0,0,1,0,0)"><path fill="url(#__lottie_element_13827)" mask="url(#__lottie_element_13829)" fill-opacity="1" d="M0 0 M-246.5,-145.5 C-246.5,-139 -246.5,144.218994140625 -246.5,146.593994140625 C-244.71200561523438,146.76499938964844 -241.55099487304688,147.5780029296875 -237.75900268554688,148.50999450683594 C-220.5,152.75 -191.07200622558594,159.75999450683594 -178.26499938964844,161.58399963378906 C-147.25,166 -127.13200378417969,165.62600708007812 -103.76799774169922,164.74600219726562 C-50.75,162.75 -4.125,146.125 27.19499969482422,139.3300018310547 C47.95800018310547,134.8249969482422 68.79000091552734,130.64500427246094 83.74700164794922,128.94000244140625 C106.25,126.375 122.875,126.75 143.25,128.35899353027344 C183.33700561523438,131.52499389648438 217.79400634765625,139.2030029296875 241.43800354003906,147.031005859375 C241.43800354003906,147.09300231933594 241.406005859375,147.09300231933594 241.406005859375,147.06199645996094 C241.406005859375,147.06199645996094 241.406005859375,147.06199645996094 241.406005859375,147.06199645996094 C241.56199645996094,120.56199645996094 241.23399353027344,82.29100036621094 241.25,49.90599822998047 C241.26600646972656,17.08300018310547 241.43699645996094,-15.739999771118164 241.5,-48.5629997253418 C241.56199645996094,-80.91699981689453 241.5,-128.75 241.625,-145.625 C151.281005859375,-172.5 103.15699768066406,-165.1009979248047 78.5,-162.81199645996094 C23.042999267578125,-156.04600524902344 -48.707000732421875,-130.79600524902344 -83.375,-129.06199645996094 C-157.875,-120.1240005493164 -212.75,-139.625 -246.5,-145.5z"/></g></g><g style="display: block;" transform="matrix(0.800000011920929,0,0,0.800000011920929,257.9656066894531,250.03680419921875)" opacity="0.15"><g opacity="1" transform="matrix(1,0,0,1,0,0)"><path fill="rgb(255,255,255)" fill-opacity="1" d=" M-246.875,-146 C-246.83700561523438,-139.70399475097656 -246.875,-138 -246.79200744628906,-132.81100463867188 C-237.5,-136.25 -197.25,-114 -124.49600219726562,-114.31099700927734 C-38.992000579833984,-114.6760025024414 39.233001708984375,-153.25 121.70800018310547,-153.39700317382812 C179.75,-153.5 241,-132.25 240.91200256347656,-131.552001953125 C241,-140.5 241.375,-144.625 241.375,-144.625 C241.375,-144.625 179.75,-166.25 122.5,-166 C39.49700164794922,-165.63800048828125 -39.5,-128 -124.25,-126.81199645996094 C-197.0449981689453,-125.79199981689453 -237.75,-149 -246.875,-146z"/></g></g><g style="display: block;" transform="matrix(0.800000011920929,0,0,0.800000011920929,257.9656066894531,250.03680419921875)" opacity="0.15"><g opacity="1" transform="matrix(1,0,0,1,0,0)"><path fill="rgb(0,0,0)" fill-opacity="1" d=" M122.5,112.25 C34,112.25 -36,149.5 -123.5,152 C-140.61700439453125,152.48899841308594 -155.82000732421875,151.3489990234375 -170.41099548339844,149.1280059814453 C-195.23399353027344,145.35000610351562 -218.28900146484375,138.4459991455078 -246,131.125 C-246.25,134.5 -246,141.375 -246,145.125 C-218.5749969482422,153.30599975585938 -195.61700439453125,159.55499267578125 -170.83099365234375,163.0050048828125 C-155.8520050048828,165.08999633789062 -140.20399475097656,166.15199279785156 -122.5,166 C-35,165.25 33.5,126.625 121.75,126.5 C126.26799774169922,126.49400329589844 131.11399841308594,126.59500122070312 136.27699279785156,126.83899688720703 C163.25900268554688,128.11300659179688 198.88099670410156,133.2550048828125 241.375,147 C241.375,147 241.25,134.75 241.5,131.125 C199.093994140625,118.93299865722656 163.16200256347656,113.84500122070312 136.1439971923828,112.58000183105469 C131.30499267578125,112.35399627685547 126.75299835205078,112.25 122.5,112.25z"/></g></g><g style="display: block;" transform="matrix(0.800000011920929,0,0,0.800000011920929,257.9656066894531,250.03680419921875)" opacity="1"><g opacity="1" transform="matrix(1,0,0,1,0,0)"><path stroke-linecap="round" stroke-linejoin="round" fill-opacity="0" stroke="rgb(122,122,122)" stroke-opacity="1" stroke-width="8" d=" M-246.5,-145.5 C-246.5,-139 -246.5,144.218994140625 -246.5,146.593994140625 C-244.71200561523438,146.76499938964844 -241.55099487304688,147.5780029296875 -237.75900268554688,148.50999450683594 C-220.5,152.75 -191.07200622558594,159.75999450683594 -178.26499938964844,161.58399963378906 C-147.25,166 -127.13200378417969,165.62600708007812 -103.76799774169922,164.74600219726562 C-50.75,162.75 -4.125,146.125 27.19499969482422,139.3300018310547 C47.95800018310547,134.8249969482422 68.79000091552734,130.64500427246094 83.74700164794922,128.94000244140625 C106.25,126.375 122.875,126.75 143.25,128.35899353027344 C183.33700561523438,131.52499389648438 217.79400634765625,139.2030029296875 241.43800354003906,147.031005859375 C241.43800354003906,147.09300231933594 241.406005859375,147.09300231933594 241.406005859375,147.06199645996094 C241.406005859375,147.06199645996094 241.406005859375,147.06199645996094 241.406005859375,147.06199645996094 C241.56199645996094,120.56199645996094 241.23399353027344,82.29100036621094 241.25,49.90599822998047 C241.26600646972656,17.08300018310547 241.43699645996094,-15.739999771118164 241.5,-48.5629997253418 C241.56199645996094,-80.91699981689453 241.5,-128.75 241.625,-145.625 C151.281005859375,-172.5 103.15699768066406,-165.1009979248047 78.5,-162.81199645996094 C23.042999267578125,-156.04600524902344 -48.707000732421875,-130.79600524902344 -83.375,-129.06199645996094 C-157.875,-120.1240005493164 -212.75,-139.625 -246.5,-145.5z"/></g></g></g></svg>