<svg xmlns="http://www.w3.org/2000/svg" xmlns:xlink="http://www.w3.org/1999/xlink" viewBox="0 0 512 512" width="512" height="512" style="width: 100%; height: 100%; transform: translate3d(0,0,0);" preserveAspectRatio="xMidYMid meet"><defs><clipPath id="__lottie_element_43565"><rect width="512" height="512" x="0" y="0"/></clipPath></defs><g clip-path="url(#__lottie_element_43565)"><g style="display: block;" transform="matrix(0.8700000047683716,0,0,0.8700000047683716,335.3970642089844,383.0108642578125)" opacity="1"><g opacity="1" transform="matrix(1,0,0,1,0,0)"><path fill="rgb(143,143,143)" fill-opacity="1" d=" M36.47700119018555,84.5510025024414 C19.695999145507812,78.51200103759766 13.583000183105469,69.53600311279297 7.111000061035156,60.03099822998047 C1.2690000534057617,51.45199966430664 -4.771999835968018,42.58000183105469 -18.48200035095215,34.68600082397461 C-31.062999725341797,27.444000244140625 -99.91799926757812,12.522000312805176 -88.62200164794922,-29.30500030517578 C-82.09100341796875,-53.486000061035156 -59.909000396728516,-54.37799835205078 -40.59199905395508,-63.10200119018555 C-22.833999633789062,-71.11900329589844 -9.29699993133545,-86.18199920654297 19.975000381469727,-86.18199920654297 C54.279998779296875,-86.18199920654297 87.05799865722656,-62.290000915527344 85.8949966430664,-28.003999710083008 C83.96700286865234,28.851999282836914 95.072998046875,41.30799865722656 86.70700073242188,61.75699996948242 C78.27200317382812,82.3759994506836 51.08700180053711,89.81300354003906 36.47700119018555,84.5510025024414z"/><path stroke-linecap="round" stroke-linejoin="round" fill-opacity="0" stroke="rgb(105,105,105)" stroke-opacity="1" stroke-width="8" d=" M36.47700119018555,84.5510025024414 C19.695999145507812,78.51200103759766 13.583000183105469,69.53600311279297 7.111000061035156,60.03099822998047 C1.2690000534057617,51.45199966430664 -4.771999835968018,42.58000183105469 -18.48200035095215,34.68600082397461 C-31.062999725341797,27.444000244140625 -99.91799926757812,12.522000312805176 -88.62200164794922,-29.30500030517578 C-82.09100341796875,-53.486000061035156 -59.909000396728516,-54.37799835205078 -40.59199905395508,-63.10200119018555 C-22.833999633789062,-71.11900329589844 -9.29699993133545,-86.18199920654297 19.975000381469727,-86.18199920654297 C54.279998779296875,-86.18199920654297 87.05799865722656,-62.290000915527344 85.8949966430664,-28.003999710083008 C83.96700286865234,28.851999282836914 95.072998046875,41.30799865722656 86.70700073242188,61.75699996948242 C78.27200317382812,82.3759994506836 51.08700180053711,89.81300354003906 36.47700119018555,84.5510025024414z"/></g></g><g style="display: block;" transform="matrix(0.8700000047683716,0,0,0.8700000047683716,452.1302185058594,402.2891845703125)" opacity="1"><g opacity="1" transform="matrix(1,0,0,1,0,0)"><path fill="rgb(143,143,143)" fill-opacity="1" d=" M-1.7610000371932983,33.76100158691406 C-18.173999786376953,33.757999420166016 -25.170000076293945,14.939000129699707 -23.027000427246094,-2.1459999084472656 C-21.216999053955078,-16.569000244140625 -15.656999588012695,-33.76100158691406 0.5540000200271606,-33.76100158691406 C0.7540000081062317,-33.76100158691406 0.9580000042915344,-33.75899887084961 1.1619999408721924,-33.75400161743164 C19.799999237060547,-33.28799819946289 25.183000564575195,-16.329999923706055 22.91699981689453,2.171999931335449 C20.591999053955078,21.17099952697754 11.027000427246094,33.569000244140625 -1.4509999752044678,33.757999420166016 C-1.4509999752044678,33.757999420166016 -1.7610000371932983,33.76100158691406 -1.7610000371932983,33.76100158691406z"/><path stroke-linecap="round" stroke-linejoin="round" fill-opacity="0" stroke="rgb(105,105,105)" stroke-opacity="1" stroke-width="8" d=" M-1.7610000371932983,33.76100158691406 C-18.173999786376953,33.757999420166016 -25.170000076293945,14.939000129699707 -23.027000427246094,-2.1459999084472656 C-21.216999053955078,-16.569000244140625 -15.656999588012695,-33.76100158691406 0.5540000200271606,-33.76100158691406 C0.7540000081062317,-33.76100158691406 0.9580000042915344,-33.75899887084961 1.1619999408721924,-33.75400161743164 C19.799999237060547,-33.28799819946289 25.183000564575195,-16.329999923706055 22.91699981689453,2.171999931335449 C20.591999053955078,21.17099952697754 11.027000427246094,33.569000244140625 -1.4509999752044678,33.757999420166016 C-1.4509999752044678,33.757999420166016 -1.7610000371932983,33.76100158691406 -1.7610000371932983,33.76100158691406z"/></g></g><g style="display: block;" transform="matrix(0.8700000047683716,0,0,0.8700000047683716,443.2866516113281,319.629638671875)" opacity="1"><g opacity="1" transform="matrix(1,0,0,1,0,0)"><path fill="rgb(143,143,143)" fill-opacity="1" d=" M-27.864999771118164,-5.561999797821045 C-26.740999221801758,-25.80500030517578 -13.805000305175781,-38.09400177001953 6.2729997634887695,-35.28099822998047 C24.83799934387207,-32.680999755859375 30.66200065612793,-12.083999633789062 26.972000122070312,6.281000137329102 C23.447999954223633,23.81800079345703 11.607000350952148,35.60200119018555 -2.490999937057495,35.60200119018555 C-2.3910000324249268,35.60200119018555 -30.36400032043457,39.36000061035156 -27.864999771118164,-5.561999797821045z"/><path stroke-linecap="round" stroke-linejoin="round" fill-opacity="0" stroke="rgb(105,105,105)" stroke-opacity="1" stroke-width="8" d=" M-27.864999771118164,-5.561999797821045 C-26.740999221801758,-25.80500030517578 -13.805000305175781,-38.09400177001953 6.2729997634887695,-35.28099822998047 C24.83799934387207,-32.680999755859375 30.66200065612793,-12.083999633789062 26.972000122070312,6.281000137329102 C23.447999954223633,23.81800079345703 11.607000350952148,35.60200119018555 -2.490999937057495,35.60200119018555 C-2.3910000324249268,35.60200119018555 -30.36400032043457,39.36000061035156 -27.864999771118164,-5.561999797821045z"/></g></g><g style="display: block;" transform="matrix(0.8700000047683716,0,0,0.8700000047683716,381.6514892578125,267.3495788574219)" opacity="1"><g opacity="1" transform="matrix(1,0,0,1,0,0)"><path fill="rgb(143,143,143)" fill-opacity="1" d=" M-10.661999702453613,33.69599914550781 C-17.378999710083008,33.69599914550781 -23.143999099731445,31.336000442504883 -27.79800033569336,26.68199920654297 C-40.43000030517578,14.04699993133545 -33.54800033569336,-7.2820000648498535 -20.80299949645996,-19.60300064086914 C-8.579000473022461,-31.420000076293945 11.503000259399414,-39.41899871826172 24.347000122070312,-28.716999053955078 C40.49100112915039,-15.265000343322754 35.849998474121094,3.700000047683716 21.125,18.80299949645996 C5.056000232696533,35.28499984741211 -13.286999702453613,33.69599914550781 -10.661999702453613,33.69599914550781z"/><path stroke-linecap="round" stroke-linejoin="round" fill-opacity="0" stroke="rgb(105,105,105)" stroke-opacity="1" stroke-width="8" d=" M-10.661999702453613,33.69599914550781 C-17.378999710083008,33.69599914550781 -23.143999099731445,31.336000442504883 -27.79800033569336,26.68199920654297 C-40.43000030517578,14.04699993133545 -33.54800033569336,-7.2820000648498535 -20.80299949645996,-19.60300064086914 C-8.579000473022461,-31.420000076293945 11.503000259399414,-39.41899871826172 24.347000122070312,-28.716999053955078 C40.49100112915039,-15.265000343322754 35.849998474121094,3.700000047683716 21.125,18.80299949645996 C5.056000232696533,35.28499984741211 -13.286999702453613,33.69599914550781 -10.661999702453613,33.69599914550781z"/></g></g><g style="display: block;" transform="matrix(0.8700000047683716,0,0,0.8700000047683716,299.0328063964844,274.61322021484375)" opacity="1"><g opacity="1" transform="matrix(1,0,0,1,0,0)"><path fill="rgb(143,143,143)" fill-opacity="1" d=" M-22.575000762939453,28.6560001373291 C-33.082000732421875,21.04800033569336 -33.49100112915039,-0.0020000000949949026 -23.416000366210938,-14.656999588012695 C-14.387999534606934,-27.78700065612793 2.5250000953674316,-38.933998107910156 19.094999313354492,-28.990999221801758 C37.72800064086914,-17.81100082397461 30.29599952697754,6.607999801635742 22.05500030517578,17.202999114990234 C10.458999633789062,32.112998962402344 -10.743000030517578,37.222999572753906 -22.575000762939453,28.6560001373291z"/><path stroke-linecap="round" stroke-linejoin="round" fill-opacity="0" stroke="rgb(105,105,105)" stroke-opacity="1" stroke-width="8" d=" M-22.575000762939453,28.6560001373291 C-33.082000732421875,21.04800033569336 -33.49100112915039,-0.0020000000949949026 -23.416000366210938,-14.656999588012695 C-14.387999534606934,-27.78700065612793 2.5250000953674316,-38.933998107910156 19.094999313354492,-28.990999221801758 C37.72800064086914,-17.81100082397461 30.29599952697754,6.607999801635742 22.05500030517578,17.202999114990234 C10.458999633789062,32.112998962402344 -10.743000030517578,37.222999572753906 -22.575000762939453,28.6560001373291z"/></g></g><g style="display: block;" transform="matrix(0.8700000047683716,0,0,0.8700000047683716,179.70013427734375,204.9523162841797)" opacity="1"><g opacity="1" transform="matrix(1,0,0,1,0,0)"><path fill="rgb(143,143,143)" fill-opacity="1" d=" M-87.77300262451172,65.58699798583984 C-104.85900115966797,46.2859992980957 -88.83599853515625,15.741000175476074 -84.2699966430664,-1.0010000467300415 C-79.26799774169922,-19.34600067138672 -83.22100067138672,-55.0620002746582 -48.465999603271484,-72.12100219726562 C-27.429000854492188,-82.44599914550781 -1.9989999532699585,-81.24199676513672 21.395999908447266,-63.547000885009766 C29.951000213623047,-57.07600021362305 43.73699951171875,-49.316001892089844 52.689998626708984,-43.70399856567383 C66.01399993896484,-35.354000091552734 79.58899688720703,-31.20400047302246 88.91799926757812,-16.280000686645508 C105.2509994506836,9.850000381469727 86.96399688720703,31.023000717163086 78.34200286865234,36.5880012512207 C50.185001373291016,54.76100158691406 31.29800033569336,37.569000244140625 0.5339999794960022,50.81800079345703 C-13.083999633789062,56.683998107910156 -57.4630012512207,99.82599639892578 -87.77300262451172,65.58699798583984z"/><path stroke-linecap="round" stroke-linejoin="round" fill-opacity="0" stroke="rgb(105,105,105)" stroke-opacity="1" stroke-width="8" d=" M-87.77300262451172,65.58699798583984 C-104.85900115966797,46.2859992980957 -88.83599853515625,15.741000175476074 -84.2699966430664,-1.0010000467300415 C-79.26799774169922,-19.34600067138672 -83.22100067138672,-55.0620002746582 -48.465999603271484,-72.12100219726562 C-27.429000854492188,-82.44599914550781 -1.9989999532699585,-81.24199676513672 21.395999908447266,-63.547000885009766 C29.951000213623047,-57.07600021362305 43.73699951171875,-49.316001892089844 52.689998626708984,-43.70399856567383 C66.01399993896484,-35.354000091552734 79.58899688720703,-31.20400047302246 88.91799926757812,-16.280000686645508 C105.2509994506836,9.850000381469727 86.96399688720703,31.023000717163086 78.34200286865234,36.5880012512207 C50.185001373291016,54.76100158691406 31.29800033569336,37.569000244140625 0.5339999794960022,50.81800079345703 C-13.083999633789062,56.683998107910156 -57.4630012512207,99.82599639892578 -87.77300262451172,65.58699798583984z"/></g></g><g style="display: block;" transform="matrix(0.8700000047683716,0,0,0.8700000047683716,249.97698974609375,125.7344741821289)" opacity="1"><g opacity="1" transform="matrix(1,0,0,1,0,0)"><path fill="rgb(143,143,143)" fill-opacity="1" d=" M-24.552000045776367,5.63100004196167 C-30.131999969482422,-14.27299976348877 -20.08099937438965,-30.27199935913086 -1.149999976158142,-30.27199935913086 C10.192999839782715,-30.27199935913086 19.336000442504883,-22.04400062561035 23.934999465942383,-7.696000099182129 C29.31999969482422,9.105999946594238 24.374000549316406,23.714000701904297 11.62600040435791,28.655000686645508 C-4.23799991607666,34.80400085449219 -19.791000366210938,22.617000579833984 -24.552000045776367,5.63100004196167z"/><path stroke-linecap="round" stroke-linejoin="round" fill-opacity="0" stroke="rgb(105,105,105)" stroke-opacity="1" stroke-width="8" d=" M-24.552000045776367,5.63100004196167 C-30.131999969482422,-14.27299976348877 -20.08099937438965,-30.27199935913086 -1.149999976158142,-30.27199935913086 C10.192999839782715,-30.27199935913086 19.336000442504883,-22.04400062561035 23.934999465942383,-7.696000099182129 C29.31999969482422,9.105999946594238 24.374000549316406,23.714000701904297 11.62600040435791,28.655000686645508 C-4.23799991607666,34.80400085449219 -19.791000366210938,22.617000579833984 -24.552000045776367,5.63100004196167z"/></g></g><g style="display: block;" transform="matrix(0.8700000047683716,0,0,0.8700000047683716,188.34619140625,88.82907104492188)" opacity="1"><g opacity="1" transform="matrix(1,0,0,1,0,0)"><path fill="rgb(143,143,143)" fill-opacity="1" d=" M-28.67099952697754,-0.9890000224113464 C-31.68899917602539,-27.77400016784668 -17.56800079345703,-42.19599914550781 -2.499000072479248,-41.654998779296875 C10.52299976348877,-41.1870002746582 24.25200080871582,-29.545000076293945 28.239999771118164,-5.050000190734863 C31.406999588012695,14.401000022888184 25.98900032043457,41.66999816894531 6.017000198364258,41.66999816894531 C-12.843000411987305,41.66999816894531 -26.551000595092773,17.826000213623047 -28.67099952697754,-0.9890000224113464z"/><path stroke-linecap="round" stroke-linejoin="round" fill-opacity="0" stroke="rgb(105,105,105)" stroke-opacity="1" stroke-width="8" d=" M-28.67099952697754,-0.9890000224113464 C-31.68899917602539,-27.77400016784668 -17.56800079345703,-42.19599914550781 -2.499000072479248,-41.654998779296875 C10.52299976348877,-41.1870002746582 24.25200080871582,-29.545000076293945 28.239999771118164,-5.050000190734863 C31.406999588012695,14.401000022888184 25.98900032043457,41.66999816894531 6.017000198364258,41.66999816894531 C-12.843000411987305,41.66999816894531 -26.551000595092773,17.826000213623047 -28.67099952697754,-0.9890000224113464z"/></g></g><g style="display: block;" transform="matrix(0.8700000047683716,0,0,0.8700000047683716,113.15383911132812,90.57342529296875)" opacity="1"><g opacity="1" transform="matrix(1,0,0,1,0,0)"><path fill="rgb(143,143,143)" fill-opacity="1" d=" M-30.086999893188477,-1.7719999551773071 C-31.149999618530273,-23.393999099731445 -23.489999771118164,-44.39500045776367 -1.7519999742507935,-44.39500045776367 C17.483999252319336,-44.39500045776367 28.823999404907227,-22.733999252319336 30.082000732421875,-1.3370000123977661 C31.145000457763672,16.72599983215332 23.8700008392334,44.39500045776367 4.6020002365112305,44.39500045776367 C-14.472999572753906,44.39500045776367 -29.007999420166016,20.16900062561035 -30.086999893188477,-1.7719999551773071z"/><path stroke-linecap="round" stroke-linejoin="round" fill-opacity="0" stroke="rgb(105,105,105)" stroke-opacity="1" stroke-width="8" d=" M-30.086999893188477,-1.7719999551773071 C-31.149999618530273,-23.393999099731445 -23.489999771118164,-44.39500045776367 -1.7519999742507935,-44.39500045776367 C17.483999252319336,-44.39500045776367 28.823999404907227,-22.733999252319336 30.082000732421875,-1.3370000123977661 C31.145000457763672,16.72599983215332 23.8700008392334,44.39500045776367 4.6020002365112305,44.39500045776367 C-14.472999572753906,44.39500045776367 -29.007999420166016,20.16900062561035 -30.086999893188477,-1.7719999551773071z"/></g></g><g style="display: block;" transform="matrix(0.8700000047683716,0,0,0.8700000047683716,63.783939361572266,157.4042205810547)" opacity="1"><g opacity="1" transform="matrix(1,0,0,1,0,0)"><path fill="rgb(143,143,143)" fill-opacity="1" d=" M-26.726999282836914,9.65999984741211 C-32.08700180053711,-8.029999732971191 -31.216999053955078,-31.422000885009766 -14.307999610900879,-39.2760009765625 C4.576000213623047,-48.047000885009766 21.39699935913086,-28.054000854492188 27.351999282836914,-7.947000026702881 C31.49799919128418,6.054999828338623 31.69700050354004,34.665000915527344 13.513999938964844,40.58399963378906 C1.253999948501587,44.577999114990234 -19.416000366210938,33.7859992980957 -26.726999282836914,9.65999984741211z"/><path stroke-linecap="round" stroke-linejoin="round" fill-opacity="0" stroke="rgb(105,105,105)" stroke-opacity="1" stroke-width="8" d=" M-26.726999282836914,9.65999984741211 C-32.08700180053711,-8.029999732971191 -31.216999053955078,-31.422000885009766 -14.307999610900879,-39.2760009765625 C4.576000213623047,-48.047000885009766 21.39699935913086,-28.054000854492188 27.351999282836914,-7.947000026702881 C31.49799919128418,6.054999828338623 31.69700050354004,34.665000915527344 13.513999938964844,40.58399963378906 C1.253999948501587,44.577999114990234 -19.416000366210938,33.7859992980957 -26.726999282836914,9.65999984741211z"/></g></g></g></svg>