<svg xmlns="http://www.w3.org/2000/svg" xmlns:xlink="http://www.w3.org/1999/xlink" viewBox="0 0 512 512" width="512" height="512" style="width: 100%; height: 100%; transform: translate3d(0,0,0);" preserveAspectRatio="xMidYMid meet"><defs><clipPath id="__lottie_element_4107"><rect width="512" height="512" x="0" y="0"/></clipPath><clipPath id="__lottie_element_4110"><path d="M0,0 L512,0 L512,512 L0,512z"/></clipPath><linearGradient id="__lottie_element_4123" spreadMethod="pad" gradientUnits="userSpaceOnUse" x1="-1.0399999618530273" y1="-176.5" x2="0.9599999785423279" y2="188.88900756835938"><stop offset="0%" stop-color="rgb(253,207,24)"/><stop offset="47%" stop-color="rgb(245,171,12)"/><stop offset="93%" stop-color="rgb(237,135,0)"/></linearGradient><radialGradient id="__lottie_element_4124" spreadMethod="pad" gradientUnits="userSpaceOnUse" cx="-6.039999961853027" cy="-160.1230010986328" r="342.6724710471032" fx="-6.039999961853027" fy="-160.1230010986328"><stop offset="7%" stop-color="rgb(254,254,226)"/><stop offset="28%" stop-color="rgb(253,238,140)"/><stop offset="49%" stop-color="rgb(252,222,54)"/><stop offset="82%" stop-color="rgb(245,184,32)"/><stop offset="100%" stop-color="rgb(238,145,10)"/></radialGradient><clipPath id="__lottie_element_4148"><path d="M0,0 L512,0 L512,512 L0,512z"/></clipPath><linearGradient id="__lottie_element_4161" spreadMethod="pad" gradientUnits="userSpaceOnUse"><stop/><stop/><stop/></linearGradient><radialGradient id="__lottie_element_4162" spreadMethod="pad" gradientUnits="userSpaceOnUse"><stop/><stop/><stop/><stop/><stop/></radialGradient></defs><g clip-path="url(#__lottie_element_4107)"><g clip-path="url(#__lottie_element_4110)" style="display: block;" transform="matrix(1,0,0,1,0,0)" opacity="1"><g style="display: block;" transform="matrix(1.0329999923706055,0,0,1.0329999923706055,256,265)" opacity="1"><g opacity="1" transform="matrix(0.9700000286102295,0,0,0.9700000286102295,-208.9956817626953,-217.481689453125)"><g opacity="1" transform="matrix(1,0,0,1,215.6439971923828,215.64500427246094)"><path fill="url(#__lottie_element_4123)" fill-opacity="1" d=" M194.9969940185547,0 C194.9969940185547,107.69400024414062 107.69300079345703,194.9969940185547 0,194.9969940185547 C-107.69400024414062,194.9969940185547 -194.9969940185547,107.69400024414062 -194.9969940185547,0 C-194.9969940185547,-107.69400024414062 -107.69400024414062,-194.9969940185547 0,-194.9969940185547 C107.69300079345703,-194.9969940185547 194.9969940185547,-107.69400024414062 194.9969940185547,0z"/></g><g opacity="1" transform="matrix(1,0,0,1,215.70199584960938,213.7169952392578)"><path fill="url(#__lottie_element_4124)" fill-opacity="1" d=" M173.80799865722656,2.6630001068115234 C172.3040008544922,100.77200317382812 93.26899719238281,179.11199951171875 -2.7230000495910645,177.63999938964844 C-98.71399688720703,176.16799926757812 -175.31199645996094,95.44499969482422 -173.80799865722656,-2.6640000343322754 C-172.3040008544922,-100.77300262451172 -93.26899719238281,-179.11199951171875 2.7230000495910645,-177.64100646972656 C98.71399688720703,-176.16900634765625 175.31199645996094,-95.44499969482422 173.80799865722656,2.6630001068115234z"/></g><g opacity="1" transform="matrix(1,0,0,1,215.6439971923828,215.64500427246094)"><path stroke-linecap="butt" stroke-linejoin="miter" fill-opacity="0" stroke-miterlimit="10" stroke="rgb(231,105,0)" stroke-opacity="1" stroke-width="8.259" d=" M194.9969940185547,0 C194.9969940185547,107.69400024414062 107.69300079345703,194.9969940185547 0,194.9969940185547 C-107.69400024414062,194.9969940185547 -194.9969940185547,107.69400024414062 -194.9969940185547,0 C-194.9969940185547,-107.69400024414062 -107.69400024414062,-194.9969940185547 0,-194.9969940185547 C107.69300079345703,-194.9969940185547 194.9969940185547,-107.69400024414062 194.9969940185547,0z"/></g></g></g><g style="display: block;" transform="matrix(1.0329999923706055,0,0,1.0329999923706055,256,265)" opacity="1"><g opacity="1" transform="matrix(1,0,0,1,0,0)"><path fill="rgb(255,222,156)" fill-opacity="1" d=" M155.8209991455078,0.48500001430511475 C155.8209991455078,36.06800079345703 125.5,64.91400146484375 88.09600067138672,64.91400146484375 C50.69200134277344,64.91400146484375 20.3700008392334,36.06800079345703 20.3700008392334,0.48500001430511475 C20.3700008392334,-35.097999572753906 50.69200134277344,-63.944000244140625 88.09600067138672,-63.944000244140625 C125.5,-63.944000244140625 155.8209991455078,-35.097999572753906 155.8209991455078,0.48500001430511475z"/></g><g opacity="1" transform="matrix(1,0,0,1,0,0)"><path fill="rgb(234,172,31)" fill-opacity="1" d=" M155.8209991455078,-21.514999389648438 C155.8209991455078,14.067999839782715 125.5,42.91400146484375 88.09600067138672,42.91400146484375 C50.69200134277344,42.91400146484375 20.3700008392334,14.067999839782715 20.3700008392334,-21.514999389648438 C20.3700008392334,-57.097999572753906 50.69200134277344,-85.94400024414062 88.09600067138672,-85.94400024414062 C125.5,-85.94400024414062 155.8209991455078,-57.097999572753906 155.8209991455078,-21.514999389648438z"/></g><g opacity="1" transform="matrix(1,0,0,1,0,0)"><path fill="rgb(211,211,211)" fill-opacity="1" d=" M152.52499389648438,-10.515000343322754 C152.52499389648438,25.06800079345703 123.67900085449219,53.91400146484375 88.09600067138672,53.91400146484375 C52.51300048828125,53.91400146484375 23.66699981689453,25.06800079345703 23.66699981689453,-10.515000343322754 C23.66699981689453,-46.097999572753906 52.51300048828125,-74.94400024414062 88.09600067138672,-74.94400024414062 C123.67900085449219,-74.94400024414062 152.52499389648438,-46.097999572753906 152.52499389648438,-10.515000343322754z"/></g><g opacity="1" transform="matrix(1,0,0,1,0,0)"><path fill="rgb(238,238,239)" fill-opacity="1" d=" M141.43299865722656,-18.07900047302246 C141.43299865722656,11.378000259399414 117.5530014038086,35.25899887084961 88.09600067138672,35.25899887084961 C58.638999938964844,35.25899887084961 34.757999420166016,11.378000259399414 34.757999420166016,-18.07900047302246 C34.757999420166016,-47.5359992980957 58.638999938964844,-71.41600036621094 88.09600067138672,-71.41600036621094 C117.5530014038086,-71.41600036621094 141.43299865722656,-47.5359992980957 141.43299865722656,-18.07900047302246z"/></g></g><g style="display: block;" transform="matrix(1.0329999923706055,0,0,1.0329999923706055,255.9994354248047,265.5165100097656)" opacity="1"><g opacity="1" transform="matrix(1,0,0,1,0,0)"><path fill="rgb(1,1,1)" fill-opacity="1" d=" M109.6510009765625,-51.28300094604492 C109.6510009765625,-38.82699966430664 100,-28.729000091552734 88.09600067138672,-28.729000091552734 C76.19200134277344,-28.729000091552734 66.54100036621094,-38.82699966430664 66.54100036621094,-51.28300094604492 C66.54100036621094,-63.73899841308594 76.19200134277344,-73.83699798583984 88.09600067138672,-73.83699798583984 C100,-73.83699798583984 109.6510009765625,-63.73899841308594 109.6510009765625,-51.28300094604492z"/></g><g opacity="1" transform="matrix(1,0,0,1,0,0)"><path stroke-linecap="round" stroke-linejoin="round" fill-opacity="0" stroke="rgb(255,255,255)" stroke-opacity="1" stroke-width="6" d=" M106.92900085449219,-52.75899887084961 C108.43599700927734,-52.305999755859375 109.99800109863281,-51.814998626708984 111.60600280761719,-51.28300094604492"/></g></g><g style="display: block;" transform="matrix(1.0329999923706055,0,0,1.0329999923706055,256,265)" opacity="1"><g opacity="0.35000000000000003" transform="matrix(1,0,0,1,0,0)"><path fill="rgb(255,255,255)" fill-opacity="1" d=" M152.5260009765625,-10.510000228881836 C152.5260009765625,-7.25 152.28599548339844,-4.050000190734863 151.8159942626953,-0.9300000071525574 C147.18600463867188,-31.969999313354492 120.41600036621094,-55.779998779296875 88.09600067138672,-55.779998779296875 C55.76599884033203,-55.779998779296875 28.996000289916992,-31.969999313354492 24.375999450683594,-0.9300000071525574 C23.9060001373291,-4.050000190734863 23.666000366210938,-7.25 23.666000366210938,-10.510000228881836 C23.666000366210938,-46.099998474121094 52.50600051879883,-74.94000244140625 88.09600067138672,-74.94000244140625 C123.6760025024414,-74.94000244140625 152.5260009765625,-46.099998474121094 152.5260009765625,-10.510000228881836z"/></g><g opacity="1" transform="matrix(1,0,0,1,0,0)"><path stroke-linecap="butt" stroke-linejoin="round" fill-opacity="0" stroke="rgb(145,129,89)" stroke-opacity="1" stroke-width="6" d=" M152.52499389648438,-10.515000343322754 C152.52499389648438,25.06800079345703 123.67900085449219,53.91400146484375 88.09600067138672,53.91400146484375 C52.51300048828125,53.91400146484375 23.66699981689453,25.06800079345703 23.66699981689453,-10.515000343322754 C23.66699981689453,-46.097999572753906 52.51300048828125,-74.94400024414062 88.09600067138672,-74.94400024414062 C123.67900085449219,-74.94400024414062 152.52499389648438,-46.097999572753906 152.52499389648438,-10.515000343322754z"/></g></g><g style="display: block;" transform="matrix(1.0329999923706055,0,0,1.0329999923706055,256,265)" opacity="1"><g opacity="1" transform="matrix(1,0,0,1,0,0)"><path fill="rgb(255,222,156)" fill-opacity="1" d=" M-19.57200050354004,0.48500001430511475 C-19.57200050354004,36.06800079345703 -49.80500030517578,64.91400146484375 -87.0989990234375,64.91400146484375 C-124.39299774169922,64.91400146484375 -154.625,36.06800079345703 -154.625,0.48500001430511475 C-154.625,-35.097999572753906 -124.39299774169922,-63.944000244140625 -87.0989990234375,-63.944000244140625 C-49.80500030517578,-63.944000244140625 -19.57200050354004,-35.097999572753906 -19.57200050354004,0.48500001430511475z"/></g><g opacity="1" transform="matrix(1,0,0,1,0,0)"><path fill="rgb(234,172,31)" fill-opacity="1" d=" M-19.57200050354004,-21.514999389648438 C-19.57200050354004,14.067999839782715 -49.80500030517578,42.91400146484375 -87.0989990234375,42.91400146484375 C-124.39299774169922,42.91400146484375 -154.625,14.067999839782715 -154.625,-21.514999389648438 C-154.625,-57.097999572753906 -124.39299774169922,-85.94400024414062 -87.0989990234375,-85.94400024414062 C-49.80500030517578,-85.94400024414062 -19.57200050354004,-57.097999572753906 -19.57200050354004,-21.514999389648438z"/></g><g opacity="1" transform="matrix(1,0,0,1,0,0)"><path fill="rgb(211,211,211)" fill-opacity="1" d=" M-22.670000076293945,-10.515000343322754 C-22.670000076293945,25.06800079345703 -51.51599884033203,53.91400146484375 -87.0989990234375,53.91400146484375 C-122.68199920654297,53.91400146484375 -151.5279998779297,25.06800079345703 -151.5279998779297,-10.515000343322754 C-151.5279998779297,-46.097999572753906 -122.68199920654297,-74.94400024414062 -87.0989990234375,-74.94400024414062 C-51.51599884033203,-74.94400024414062 -22.670000076293945,-46.097999572753906 -22.670000076293945,-10.515000343322754z"/></g><g opacity="1" transform="matrix(1,0,0,1,0,0)"><path fill="rgb(238,238,239)" fill-opacity="1" d=" M-33.76100158691406,-18.07900047302246 C-33.76100158691406,11.378000259399414 -57.641998291015625,35.25899887084961 -87.0989990234375,35.25899887084961 C-116.55599975585938,35.25899887084961 -140.43600463867188,11.378000259399414 -140.43600463867188,-18.07900047302246 C-140.43600463867188,-47.5359992980957 -116.55599975585938,-71.41600036621094 -87.0989990234375,-71.41600036621094 C-57.641998291015625,-71.41600036621094 -33.76100158691406,-47.5359992980957 -33.76100158691406,-18.07900047302246z"/></g></g><g style="display: block;" transform="matrix(1.0329999923706055,0,0,1.0329999923706055,255.9994354248047,265.5165100097656)" opacity="1"><g opacity="1" transform="matrix(1,0,0,1,0,0)"><path fill="rgb(1,1,1)" fill-opacity="1" d=" M-65.54399871826172,-51.28300094604492 C-65.54399871826172,-38.82699966430664 -75.19499969482422,-28.729000091552734 -87.0989990234375,-28.729000091552734 C-99.00299835205078,-28.729000091552734 -108.65399932861328,-38.82699966430664 -108.65399932861328,-51.28300094604492 C-108.65399932861328,-63.73899841308594 -99.00299835205078,-73.83699798583984 -87.0989990234375,-73.83699798583984 C-75.19499969482422,-73.83699798583984 -65.54399871826172,-63.73899841308594 -65.54399871826172,-51.28300094604492z"/></g><g opacity="1" transform="matrix(1,0,0,1,0,0)"><path stroke-linecap="round" stroke-linejoin="round" fill-opacity="0" stroke="rgb(255,255,255)" stroke-opacity="1" stroke-width="6" d=" M-69.27100372314453,-53.57600021362305 C-67.76399993896484,-53.12300109863281 -66.2020034790039,-52.63199996948242 -64.59400177001953,-52.099998474121094"/></g></g><g style="display: block;" transform="matrix(1.0329999923706055,0,0,1.0329999923706055,256,265)" opacity="1"><g opacity="0.35000000000000003" transform="matrix(1,0,0,1,0,0)"><path fill="rgb(255,255,255)" fill-opacity="1" d=" M-22.665000915527344,-10.510000228881836 C-22.665000915527344,-7.25 -22.905000686645508,-4.050000190734863 -23.375,-0.9300000071525574 C-28.0049991607666,-31.969999313354492 -54.775001525878906,-55.779998779296875 -87.09500122070312,-55.779998779296875 C-119.42500305175781,-55.779998779296875 -146.19500732421875,-31.969999313354492 -150.81500244140625,-0.9300000071525574 C-151.28500366210938,-4.050000190734863 -151.52499389648438,-7.25 -151.52499389648438,-10.510000228881836 C-151.52499389648438,-46.099998474121094 -122.68499755859375,-74.94000244140625 -87.09500122070312,-74.94000244140625 C-51.51499938964844,-74.94000244140625 -22.665000915527344,-46.099998474121094 -22.665000915527344,-10.510000228881836z"/></g><g opacity="1" transform="matrix(1,0,0,1,0,0)"><path stroke-linecap="butt" stroke-linejoin="round" fill-opacity="0" stroke="rgb(145,129,89)" stroke-opacity="1" stroke-width="6" d=" M-22.670000076293945,-10.515000343322754 C-22.670000076293945,25.06800079345703 -51.51599884033203,53.91400146484375 -87.0989990234375,53.91400146484375 C-122.68199920654297,53.91400146484375 -151.5279998779297,25.06800079345703 -151.5279998779297,-10.515000343322754 C-151.5279998779297,-46.097999572753906 -122.68199920654297,-74.94400024414062 -87.0989990234375,-74.94400024414062 C-51.51599884033203,-74.94400024414062 -22.670000076293945,-46.097999572753906 -22.670000076293945,-10.515000343322754z"/></g></g><g style="display: block;" transform="matrix(1.0329999923706055,0,0,1.0329999923706055,256,265)" opacity="1"><g opacity="1" transform="matrix(1,0,0,1,0,0)"><path fill="rgb(234,172,31)" fill-opacity="1" d=" M31.113000869750977,118.26799774169922 C31.113000869750977,118.26799774169922 -30.115999221801758,118.26799774169922 -30.115999221801758,118.26799774169922 C-35.55400085449219,118.26799774169922 -40.00299835205078,114.2040023803711 -40.00299835205078,109.23799896240234 C-40.00299835205078,109.23799896240234 -40.00299835205078,105.61399841308594 -40.00299835205078,105.61399841308594 C-40.00299835205078,100.64800262451172 -35.55400085449219,96.58399963378906 -30.115999221801758,96.58399963378906 C-30.115999221801758,96.58399963378906 31.113000869750977,96.58399963378906 31.113000869750977,96.58399963378906 C36.55099868774414,96.58399963378906 41,100.64800262451172 41,105.61399841308594 C41,105.61399841308594 41,109.23799896240234 41,109.23799896240234 C41,114.2040023803711 36.55099868774414,118.26799774169922 31.113000869750977,118.26799774169922z"/></g><g opacity="1" transform="matrix(1,0,0,1,0,0)"><path fill="rgb(254,221,120)" fill-opacity="1" d=" M31.113000869750977,123.5 C31.113000869750977,123.5 -30.115999221801758,123.5 -30.115999221801758,123.5 C-35.55400085449219,123.5 -40.00299835205078,119.43599700927734 -40.00299835205078,114.47000122070312 C-40.00299835205078,114.47000122070312 -40.00299835205078,110.84600067138672 -40.00299835205078,110.84600067138672 C-40.00299835205078,105.87999725341797 -35.55400085449219,101.81700134277344 -30.115999221801758,101.81700134277344 C-30.115999221801758,101.81700134277344 31.113000869750977,101.81700134277344 31.113000869750977,101.81700134277344 C36.55099868774414,101.81700134277344 41,105.87999725341797 41,110.84600067138672 C41,110.84600067138672 41,114.47000122070312 41,114.47000122070312 C41,119.43599700927734 36.55099868774414,123.5 31.113000869750977,123.5z"/></g><g opacity="1" transform="matrix(1,0,0,1,0,0)"><path fill="rgb(151,72,0)" fill-opacity="1" d=" M29.808000564575195,118.40899658203125 C29.808000564575195,118.40899658203125 -28.81100082397461,118.40899658203125 -28.81100082397461,118.40899658203125 C-34.249000549316406,118.40899658203125 -38.69900131225586,114.34600067138672 -38.69900131225586,109.37999725341797 C-38.69900131225586,109.37999725341797 -38.69900131225586,109.37999725341797 -38.69900131225586,109.37999725341797 C-38.69900131225586,104.41400146484375 -34.249000549316406,100.3499984741211 -28.81100082397461,100.3499984741211 C-28.81100082397461,100.3499984741211 29.808000564575195,100.3499984741211 29.808000564575195,100.3499984741211 C35.24599838256836,100.3499984741211 39.69599914550781,104.41400146484375 39.69599914550781,109.37999725341797 C39.69599914550781,109.37999725341797 39.69599914550781,109.37999725341797 39.69599914550781,109.37999725341797 C39.69599914550781,114.34600067138672 35.24599838256836,118.40899658203125 29.808000564575195,118.40899658203125z"/></g><g opacity="1" transform="matrix(1,0,0,1,0,0)"><path fill="rgb(99,41,0)" fill-opacity="1" d=" M39.69300079345703,109.38200378417969 C39.69300079345703,110.39399719238281 39.512001037597656,111.37100219726562 39.167999267578125,112.27799987792969 C37.840999603271484,108.71099853515625 34.13600158691406,106.12999725341797 29.809999465942383,106.12999725341797 C29.809999465942383,106.12999725341797 -28.81100082397461,106.12999725341797 -28.81100082397461,106.12999725341797 C-31.533000946044922,106.12999725341797 -33.99800109863281,107.14399719238281 -35.79100036621094,108.78099822998047 C-36.86000061035156,109.75800323486328 -37.68199920654297,110.94400024414062 -38.16899871826172,112.27799987792969 C-38.51300048828125,111.37100219726562 -38.694000244140625,110.39399719238281 -38.694000244140625,109.38200378417969 C-38.694000244140625,106.89700317382812 -37.58599853515625,104.63800048828125 -35.79100036621094,102.9990005493164 C-34.005001068115234,101.36799621582031 -31.533000946044922,100.3479995727539 -28.81100082397461,100.3479995727539 C-28.81100082397461,100.3479995727539 29.809999465942383,100.3479995727539 29.809999465942383,100.3479995727539 C35.24300003051758,100.3479995727539 39.69300079345703,104.41100311279297 39.69300079345703,109.38200378417969z"/></g></g></g></g></svg>