<svg xmlns="http://www.w3.org/2000/svg" xmlns:xlink="http://www.w3.org/1999/xlink" viewBox="0 0 512 512" width="512" height="512" style="width: 100%; height: 100%; transform: translate3d(0,0,0);" preserveAspectRatio="xMidYMid meet"><defs><clipPath id="__lottie_element_29471"><rect width="512" height="512" x="0" y="0"/></clipPath><radialGradient id="__lottie_element_29493" spreadMethod="pad" gradientUnits="userSpaceOnUse"><stop/><stop/><stop/></radialGradient><radialGradient id="__lottie_element_29494" spreadMethod="pad" gradientUnits="userSpaceOnUse"><stop/><stop/><stop/></radialGradient><radialGradient id="__lottie_element_29500" spreadMethod="pad" gradientUnits="userSpaceOnUse"><stop/><stop/><stop/></radialGradient><radialGradient id="__lottie_element_29501" spreadMethod="pad" gradientUnits="userSpaceOnUse"><stop/><stop/><stop/></radialGradient><radialGradient id="__lottie_element_29505" spreadMethod="pad" gradientUnits="userSpaceOnUse"><stop/><stop/><stop/></radialGradient><radialGradient id="__lottie_element_29506" spreadMethod="pad" gradientUnits="userSpaceOnUse"><stop/><stop/><stop/></radialGradient><linearGradient id="__lottie_element_29538" spreadMethod="pad" gradientUnits="userSpaceOnUse"><stop/><stop/><stop/></linearGradient><linearGradient id="__lottie_element_29542" spreadMethod="pad" gradientUnits="userSpaceOnUse"><stop/><stop/><stop/></linearGradient><radialGradient id="__lottie_element_29562" spreadMethod="pad" gradientUnits="userSpaceOnUse" cx="-0.5649999976158142" cy="-0.2840000092983246" r="189.5429968237877" fx="-0.5649999976158142" fy="-0.2840000092983246"><stop offset="63%" stop-color="rgb(62,61,60)"/><stop offset="77%" stop-color="rgb(41,40,39)"/><stop offset="85%" stop-color="rgb(20,19,18)"/><stop offset="89%" stop-color="rgb(18,17,16)"/><stop offset="93%" stop-color="rgb(15,15,14)"/></radialGradient><linearGradient id="__lottie_element_29565" spreadMethod="pad" gradientUnits="userSpaceOnUse" x1="-114.56500244140625" y1="-109.28399658203125" x2="130.5189971923828" y2="124.65899658203125"><stop offset="0%" stop-color="rgb(195,185,180)"/><stop offset="18%" stop-color="rgb(138,132,128)"/><stop offset="33%" stop-color="rgb(82,78,76)"/><stop offset="46%" stop-color="rgb(68,66,65)"/><stop offset="68%" stop-color="rgb(54,54,53)"/><stop offset="91%" stop-color="rgb(84,82,81)"/><stop offset="100%" stop-color="rgb(115,110,108)"/></linearGradient><linearGradient id="__lottie_element_29569" spreadMethod="pad" gradientUnits="userSpaceOnUse"><stop/><stop/><stop/><stop/><stop/></linearGradient><radialGradient id="__lottie_element_29573" spreadMethod="pad" gradientUnits="userSpaceOnUse"><stop/><stop/><stop/><stop/><stop/></radialGradient><linearGradient id="__lottie_element_29605" spreadMethod="pad" gradientUnits="userSpaceOnUse" x1="-42.650001525878906" y1="-7.1529998779296875" x2="42.52000045776367" y2="6.15500020980835"><stop offset="10%" stop-color="rgb(216,125,44)"/><stop offset="64%" stop-color="rgb(235,170,55)"/><stop offset="91%" stop-color="rgb(255,215,67)"/></linearGradient><linearGradient id="__lottie_element_29609" spreadMethod="pad" gradientUnits="userSpaceOnUse" x1="-50.64899826049805" y1="-12.152999877929688" x2="54.547000885009766" y2="12.831000328063965"><stop offset="0%" stop-color="rgb(244,151,0)"/><stop offset="52%" stop-color="rgb(249,184,21)"/><stop offset="100%" stop-color="rgb(255,216,42)"/></linearGradient><linearGradient id="__lottie_element_29637" spreadMethod="pad" gradientUnits="userSpaceOnUse" x1="-114.56500244140625" y1="-44.284000396728516" x2="105.61100006103516" y2="40.893001556396484"><stop offset="0%" stop-color="rgb(151,144,141)"/><stop offset="19%" stop-color="rgb(114,108,107)"/><stop offset="49%" stop-color="rgb(77,73,72)"/><stop offset="89%" stop-color="rgb(96,92,90)"/><stop offset="100%" stop-color="rgb(115,110,108)"/></linearGradient><linearGradient id="__lottie_element_29660" spreadMethod="pad" gradientUnits="userSpaceOnUse" x1="-7.432000160217285" y1="5.639999866485596" x2="4.627999782562256" y2="-6.676000118255615"><stop offset="0%" stop-color="rgb(207,207,207)"/><stop offset="24%" stop-color="rgb(159,160,159)"/><stop offset="48%" stop-color="rgb(110,112,110)"/><stop offset="51%" stop-color="rgb(110,112,110)"/><stop offset="55%" stop-color="rgb(110,112,110)"/><stop offset="77%" stop-color="rgb(182,183,182)"/><stop offset="100%" stop-color="rgb(254,254,254)"/></linearGradient><linearGradient id="__lottie_element_29664" spreadMethod="pad" gradientUnits="userSpaceOnUse" x1="25.41699981689453" y1="-5.598999977111816" x2="9.059000015258789" y2="15.71500015258789"><stop offset="0%" stop-color="rgb(84,81,81)" stop-opacity="1"/><stop offset="50%" stop-color="rgb(83,81,81)" stop-opacity="0.5"/><stop offset="100%" stop-color="rgb(83,81,81)" stop-opacity="0"/></linearGradient><linearGradient id="__lottie_element_29668" spreadMethod="pad" gradientUnits="userSpaceOnUse" x1="-24.253000259399414" y1="-22.625999450683594" x2="25.7810001373291" y2="28.016000747680664"><stop offset="0%" stop-color="rgb(124,118,118)" stop-opacity="1"/><stop offset="34%" stop-color="rgb(90,86,86)" stop-opacity="0.5"/><stop offset="100%" stop-color="rgb(55,54,54)" stop-opacity="0"/></linearGradient></defs><g clip-path="url(#__lottie_element_29471)"><g style="display: block;" transform="matrix(0.8370000123977661,0,0,0.8370000123977661,412.1965637207031,410.4892883300781)" opacity="1"><g opacity="1" transform="matrix(1,0,0,1,0,0)"><path fill="rgb(43,43,43)" fill-opacity="1" d=" M56.349998474121094,67.25399780273438 C58.95000076293945,66 66.70800018310547,59.37900161743164 67.3759994506836,55.290000915527344 C68.05400085449219,51.13999938964844 57.941001892089844,23.3700008392334 27.840999603271484,-3.431999921798706 C-2.259000062942505,-30.232999801635742 -26.9950008392334,-36.58700180053711 -45.965999603271484,-67.52100372314453 C-45.965999603271484,-67.52100372314453 -67.40699768066406,-45.87300109863281 -67.40699768066406,-45.87300109863281 C-67.40699768066406,-45.87300109863281 -47.970001220703125,-35.39799880981445 -26.499000549316406,-0.2800000011920929 C6.816999912261963,54.21200180053711 51.00699996948242,69.83100128173828 56.349998474121094,67.25399780273438z"/></g><g opacity="1" transform="matrix(1,0,0,1,0,0)"><path fill="url(#__lottie_element_29668)" fill-opacity="1" d=" M-50.11800003051758,-59.85599899291992 C-53.17399978637695,-56.52299880981445 -57.340999603271484,-51.52299880981445 -61.78499984741211,-47.63399887084961 C-41.229000091552734,-33.744998931884766 -32.340999603271484,-19.299999237060547 -19.28499984741211,-2.3559999465942383 C3.187000036239624,26.809999465942383 42.10499954223633,61.810001373291016 50.4379997253418,60.69900131225586 C51.65800094604492,60.5359992980957 58.73899841308594,57.00199890136719 58.02199935913086,54.8380012512207 C53.84400177001953,42.22600173950195 24.048999786376953,6.810999870300293 -3.7290000915527344,-14.855999946594238 C-16.79199981689453,-25.045000076293945 -36.229000091552734,-40.68899917602539 -50.11800003051758,-59.85599899291992z"/></g></g><g style="display: block;" transform="matrix(0.8370000123977661,0,0,0.8370000123977661,412.1965637207031,410.4892883300781)" opacity="1"><g opacity="1" transform="matrix(1,0,0,1,0,0)"><path stroke-linecap="round" stroke-linejoin="round" fill-opacity="0" stroke="rgb(33,34,35)" stroke-opacity="1" stroke-width="8" d=" M56.349998474121094,67.25399780273438 C58.95000076293945,66 66.70800018310547,59.37900161743164 67.3759994506836,55.290000915527344 C68.05400085449219,51.13999938964844 57.941001892089844,23.3700008392334 27.840999603271484,-3.431999921798706 C-2.259000062942505,-30.232999801635742 -26.9950008392334,-36.58700180053711 -45.965999603271484,-67.52100372314453 C-45.965999603271484,-67.52100372314453 -67.40699768066406,-45.87300109863281 -67.40699768066406,-45.87300109863281 C-67.40699768066406,-45.87300109863281 -47.970001220703125,-35.39799880981445 -26.499000549316406,-0.2800000011920929 C6.816999912261963,54.21200180053711 51.00699996948242,69.83100128173828 56.349998474121094,67.25399780273438z"/></g><g opacity="1" transform="matrix(1,0,0,1,0,0)"><path fill="url(#__lottie_element_29664)" fill-opacity="1" d=" M-41.78499984741211,-65.5510025024414 C-49.00699996948242,-59.1619987487793 -51.92300033569336,-55.55099868774414 -51.92300033569336,-55.55099868774414 C-51.92300033569336,-55.55099868774414 60.99300003051758,67.9219970703125 60.99300003051758,67.9219970703125 C60.99300003051758,67.9219970703125 71.8270034790039,61.11600112915039 70.02100372314453,52.36600112915039 C62.9379997253418,27.5049991607666 46.82699966430664,9.866000175476074 28.215999603271484,-6.801000118255615 C18.101999282836914,-15.859000205993652 -26.368000030517578,-44.02299880981445 -41.78499984741211,-65.5510025024414z"/></g></g><g style="display: block;" transform="matrix(0.8370000123977661,0,0,0.8370000123977661,350.3564758300781,348.88189697265625)" opacity="1"><g opacity="1" transform="matrix(1,0,0,1,0,0)"><path fill="url(#__lottie_element_29660)" fill-opacity="1" d=" M-12.27400016784668,-36.75400161743164 C-12.27400016784668,-36.75400161743164 -35.42300033569336,-13.605999946594238 -35.42300033569336,-13.605999946594238 C-35.42300033569336,-13.605999946594238 -2.3259999752044678,20.82200050354004 -2.3259999752044678,20.82200050354004 C-2.3259999752044678,20.82200050354004 20.82200050354004,-2.3259999752044678 20.82200050354004,-2.3259999752044678 C20.82200050354004,-2.3259999752044678 -12.27400016784668,-36.75400161743164 -12.27400016784668,-36.75400161743164z"/></g></g><g style="display: block;" transform="matrix(0.8370000123977661,0,0,0.8370000123977661,350.3564758300781,348.88189697265625)" opacity="1"><g opacity="1" transform="matrix(1,0,0,1,0,0)"><path stroke-linecap="round" stroke-linejoin="round" fill-opacity="0" stroke="rgb(100,103,107)" stroke-opacity="1" stroke-width="8" d=" M-10.753999710083008,-35.224998474121094 C-10.753999710083008,-35.224998474121094 -33.902000427246094,-12.07699966430664 -33.902000427246094,-12.07699966430664 C-33.902000427246094,-12.07699966430664 -6.076000213623047,17.57200050354004 -6.076000213623047,17.57200050354004 C-6.076000213623047,17.57200050354004 17.07200050354004,-5.576000213623047 17.07200050354004,-5.576000213623047 C17.07200050354004,-5.576000213623047 -10.753999710083008,-35.224998474121094 -10.753999710083008,-35.224998474121094z"/></g></g><g style="display: block;" transform="matrix(0.8370000123977661,0,0,0.8370000123977661,340.6690368652344,358.5693359375)" opacity="1"><g opacity="1" transform="matrix(1,0,0,1,0,0)"><path stroke-linecap="round" stroke-linejoin="round" fill-opacity="0" stroke="rgb(64,68,71)" stroke-opacity="1" stroke-width="8" d=" M-26.031999588012695,-25.871000289916992 C-26.031999588012695,-25.871000289916992 9.248000144958496,9.248000144958496 9.248000144958496,9.248000144958496"/></g></g><g style="display: block;" transform="matrix(0.8370000123977661,0,0,0.8370000123977661,360.19207763671875,358.5442199707031)" opacity="1"><g opacity="1" transform="matrix(1,0,0,1,0,0)"><path fill="rgb(97,93,95)" fill-opacity="1" d=" M-5.276000022888184,16.187000274658203 C-5.276000022888184,16.187000274658203 -12.645000457763672,19.413000106811523 -17.072999954223633,12.274999618530273 C-17.072999954223633,12.274999618530273 12.116000175476074,-16.913999557495117 12.116000175476074,-16.913999557495117 C12.116000175476074,-16.913999557495117 19.615999221801758,-12.199000358581543 16.166000366210938,-5.460000038146973 C16.166000366210938,-5.460000038146973 -5.276000022888184,16.187000274658203 -5.276000022888184,16.187000274658203z"/></g></g><g style="display: block;" transform="matrix(0.8370000123977661,0,0,0.8370000123977661,356.6549072265625,364.55389404296875)" opacity="0.4"><g opacity="1" transform="matrix(1,0,0,1,0,0)"><path fill="rgb(255,255,255)" fill-opacity="1" d=" M12.847000122070312,-5.09499979019165 C12.847000122070312,-5.09499979019165 -5.09499979019165,12.847000122070312 -5.09499979019165,12.847000122070312 C-5.09499979019165,12.847000122070312 -12.847000122070312,5.09499979019165 -12.847000122070312,5.09499979019165 C-12.847000122070312,5.09499979019165 5.09499979019165,-12.847000122070312 5.09499979019165,-12.847000122070312 C5.09499979019165,-12.847000122070312 12.847000122070312,-5.09499979019165 12.847000122070312,-5.09499979019165z"/></g></g><g style="display: block;" transform="matrix(0.8370000123977661,0,0,0.8370000123977661,360.19207763671875,358.5442199707031)" opacity="1"><g opacity="1" transform="matrix(1,0,0,1,0,0)"><path stroke-linecap="round" stroke-linejoin="round" fill-opacity="0" stroke="rgb(33,34,35)" stroke-opacity="1" stroke-width="8" d=" M-5.276000022888184,16.187000274658203 C-5.276000022888184,16.187000274658203 -12.645000457763672,19.413000106811523 -17.072999954223633,12.274999618530273 C-17.072999954223633,12.274999618530273 12.116000175476074,-16.913999557495117 12.116000175476074,-16.913999557495117 C12.116000175476074,-16.913999557495117 19.615999221801758,-12.199000358581543 16.166000366210938,-5.460000038146973 C16.166000366210938,-5.460000038146973 -5.276000022888184,16.187000274658203 -5.276000022888184,16.187000274658203z"/></g></g><g style="display: block;" transform="matrix(0.8370000123977661,0,0,0.8370000123977661,360.9495544433594,353.7699890136719)" opacity="1"><g opacity="1" transform="matrix(1,0,0,1,0,0)"><path stroke-linecap="round" stroke-linejoin="round" fill-opacity="0" stroke="rgb(53,53,53)" stroke-opacity="1" stroke-width="8" d=" M-11.210000038146973,11.210000038146973 C-11.210000038146973,11.210000038146973 11.210000038146973,-11.210000038146973 11.210000038146973,-11.210000038146973"/></g></g><g style="display: block;" transform="matrix(0.9201884865760803,0,0,0.9201884865760803,214.00750732421875,216.50411987304688)" opacity="1"><g opacity="1" transform="matrix(1,0,0,1,0,0)"><path fill="url(#__lottie_element_29562)" fill-opacity="1" d=" M189.54299926757812,0 C189.54299926757812,104.68199920654297 104.68199920654297,189.54299926757812 0,189.54299926757812 C-104.68199920654297,189.54299926757812 -189.54299926757812,104.68199920654297 -189.54299926757812,0 C-189.54299926757812,-104.68199920654297 -104.68199920654297,-189.54299926757812 0,-189.54299926757812 C104.68199920654297,-189.54299926757812 189.54299926757812,-104.68199920654297 189.54299926757812,0z"/></g></g><g style="display: block;" transform="matrix(0.9201884865760803,0,0,0.9201884865760803,214.00750732421875,216.50411987304688)" opacity="1"><g opacity="1" transform="matrix(1,0,0,1,0,0)"><path fill="url(#__lottie_element_29637)" fill-opacity="1" d=" M131.13699340820312,0 C131.13699340820312,72.42500305175781 72.42500305175781,131.13699340820312 0,131.13699340820312 C-72.42500305175781,131.13699340820312 -131.13699340820312,72.42500305175781 -131.13699340820312,0 C-131.13699340820312,-72.42500305175781 -72.42500305175781,-131.13699340820312 0,-131.13699340820312 C72.42500305175781,-131.13699340820312 131.13699340820312,-72.42500305175781 131.13699340820312,0z"/></g></g><g style="display: block;" transform="matrix(0.9201884865760803,0,0,0.9201884865760803,143.48886108398438,182.78933715820312)" opacity="0.5"><g opacity="1" transform="matrix(1,0,0,1,0,0)"><path fill="rgb(255,255,255)" fill-opacity="1" d=" M54.5,-92.63500213623047 C25.80900001525879,-84.28199768066406 2.5759999752044678,-74.80599975585938 -24.70599937438965,-35.525001525878906 C-67.78700256347656,26.50200080871582 -41.970001220703125,92.63500213623047 -41.970001220703125,92.63500213623047 C-41.970001220703125,92.63500213623047 -41.97999954223633,92.63500213623047 -41.97999954223633,92.63500213623047 C-50.0099983215332,75.65499877929688 -54.5,56.67499923706055 -54.5,36.6349983215332 C-54.5,-28.2450008392334 -7.380000114440918,-82.11499786376953 54.5,-92.63500213623047z"/></g></g><g style="display: block;" transform="matrix(0.9201884865760803,0,0,0.9201884865760803,99.020751953125,204.99624633789062)" opacity="0.05"><g opacity="1" transform="matrix(1,0,0,1,0,0)"><path fill="rgb(255,255,255)" fill-opacity="1" d=" M29.851999282836914,-104.13899993896484 C21.381999969482422,-109.60600280761719 -26.878000259399414,-70.68199920654297 -30.35700035095215,1.36899995803833 C-33.097999572753906,58.125 -1.0049999952316284,101.56999969482422 4.086999893188477,104.11900329589844 C15.904999732971191,110.03600311279297 -24.41699981689453,65.5770034790039 -18.461999893188477,1.36899995803833 C-11.321000099182129,-75.62999725341797 36.72999954223633,-99.69999694824219 29.851999282836914,-104.13899993896484z"/></g></g><g style="display: block;" transform="matrix(0.9201884865760803,0,0,0.9201884865760803,304.05255126953125,251.970947265625)" opacity="0.05"><g opacity="1" transform="matrix(1,0,0,1,0,0)"><path fill="rgb(255,255,255)" fill-opacity="1" d=" M32.608001708984375,-109.29199981689453 C26.45599937438965,-108.90399932861328 60.63199996948242,-70.73600006103516 41.30500030517578,2.1730000972747803 C25.270999908447266,62.6609992980957 -27.381999969482422,92.17400360107422 -52.91899871826172,104.50199890136719 C-78.45600128173828,116.83000183105469 -1.6030000448226929,108.2020034790039 36.28099822998047,44.97100067138672 C83.5989990234375,-34.00699996948242 39.999000549316406,-109.75800323486328 32.608001708984375,-109.29199981689453z"/></g></g><g style="display: block;" transform="matrix(0.9299999475479126,0,0,0.9299999475479126,207.9373779296875,212.4234161376953)" opacity="0.4"><g opacity="1" transform="matrix(1,0,0,1,0,0)"><path fill="rgb(0,0,0)" fill-opacity="1" d=" M-116.76699829101562,60.75899887084961 C-121.91500091552734,55.685001373291016 -126.65899658203125,47.44599914550781 -124.05999755859375,37.23400115966797 C-121.85700225830078,28.57900047302246 -118.23500061035156,27.113000869750977 -114.18000030517578,14.8149995803833 C-109.02100372314453,-0.828000009059906 -102.25700378417969,-1.440000057220459 -92.33200073242188,-10.553000450134277 C-80.06199645996094,-21.81800079345703 -93.19499969482422,-49.67499923706055 -69.89099884033203,-78.87200164794922 C-41.22999954223633,-114.77999877929688 2.0880000591278076,-125.14900207519531 36.82699966430664,-104.2750015258789 C60.91699981689453,-89.80000305175781 61.027000427246094,-71.23899841308594 94.67400360107422,-58.316001892089844 C125.94499969482422,-46.305999755859375 132.76499938964844,8.519000053405762 115.61100006103516,57.75899887084961 C96.00499725341797,114.03900146484375 56.275001525878906,122.81900024414062 31.340999603271484,109.49199676513672 C6.4070000648498535,96.16500091552734 9.89799976348877,79.61100006103516 -14.038999557495117,86.39199829101562 C-37.97600173950195,93.1729965209961 -50.44300079345703,88.18699645996094 -63.90700149536133,76.71700286865234 C-77.37100219726562,65.24700164794922 -99.66799926757812,77.61199951171875 -116.76699829101562,60.75899887084961z"/><path stroke-linecap="round" stroke-linejoin="round" fill-opacity="0" stroke="rgb(0,0,0)" stroke-opacity="1" stroke-width="8" d=" M-116.76699829101562,60.75899887084961 C-121.91500091552734,55.685001373291016 -126.65899658203125,47.44599914550781 -124.05999755859375,37.23400115966797 C-121.85700225830078,28.57900047302246 -118.23500061035156,27.113000869750977 -114.18000030517578,14.8149995803833 C-109.02100372314453,-0.828000009059906 -102.25700378417969,-1.440000057220459 -92.33200073242188,-10.553000450134277 C-80.06199645996094,-21.81800079345703 -93.19499969482422,-49.67499923706055 -69.89099884033203,-78.87200164794922 C-41.22999954223633,-114.77999877929688 2.0880000591278076,-125.14900207519531 36.82699966430664,-104.2750015258789 C60.91699981689453,-89.80000305175781 61.027000427246094,-71.23899841308594 94.67400360107422,-58.316001892089844 C125.94499969482422,-46.305999755859375 132.76499938964844,8.519000053405762 115.61100006103516,57.75899887084961 C96.00499725341797,114.03900146484375 56.275001525878906,122.81900024414062 31.340999603271484,109.49199676513672 C6.4070000648498535,96.16500091552734 9.89799976348877,79.61100006103516 -14.038999557495117,86.39199829101562 C-37.97600173950195,93.1729965209961 -50.44300079345703,88.18699645996094 -63.90700149536133,76.71700286865234 C-77.37100219726562,65.24700164794922 -99.66799926757812,77.61199951171875 -116.76699829101562,60.75899887084961z"/></g></g><g style="display: block;" transform="matrix(0.9299999475479126,0,0,0.9299999475479126,215.3779296875,205.5363311767578)" opacity="1"><g opacity="1" transform="matrix(1,0,0,1,0,0)"><path fill="rgb(237,243,226)" fill-opacity="1" d=" M-116.76699829101562,60.75899887084961 C-121.91500091552734,55.685001373291016 -126.65899658203125,47.44599914550781 -124.05999755859375,37.23400115966797 C-121.85700225830078,28.57900047302246 -118.23500061035156,27.113000869750977 -114.18000030517578,14.8149995803833 C-109.02100372314453,-0.828000009059906 -102.25700378417969,-1.440000057220459 -92.33200073242188,-10.553000450134277 C-80.06199645996094,-21.81800079345703 -93.19499969482422,-49.67499923706055 -69.89099884033203,-78.87200164794922 C-41.22999954223633,-114.77999877929688 2.0880000591278076,-125.14900207519531 36.82699966430664,-104.2750015258789 C60.91699981689453,-89.80000305175781 61.027000427246094,-71.23899841308594 94.67400360107422,-58.316001892089844 C125.94499969482422,-46.305999755859375 132.76499938964844,8.519000053405762 115.61100006103516,57.75899887084961 C96.00499725341797,114.03900146484375 56.275001525878906,122.81900024414062 31.340999603271484,109.49199676513672 C6.4070000648498535,96.16500091552734 9.89799976348877,79.61100006103516 -14.038999557495117,86.39199829101562 C-37.97600173950195,93.1729965209961 -50.44300079345703,88.18699645996094 -63.90700149536133,76.71700286865234 C-77.37100219726562,65.24700164794922 -99.66799926757812,77.61199951171875 -116.76699829101562,60.75899887084961z"/><path stroke-linecap="round" stroke-linejoin="round" fill-opacity="0" stroke="rgb(200,195,182)" stroke-opacity="1" stroke-width="8" d=" M-116.76699829101562,60.75899887084961 C-121.91500091552734,55.685001373291016 -126.65899658203125,47.44599914550781 -124.05999755859375,37.23400115966797 C-121.85700225830078,28.57900047302246 -118.23500061035156,27.113000869750977 -114.18000030517578,14.8149995803833 C-109.02100372314453,-0.828000009059906 -102.25700378417969,-1.440000057220459 -92.33200073242188,-10.553000450134277 C-80.06199645996094,-21.81800079345703 -93.19499969482422,-49.67499923706055 -69.89099884033203,-78.87200164794922 C-41.22999954223633,-114.77999877929688 2.0880000591278076,-125.14900207519531 36.82699966430664,-104.2750015258789 C60.91699981689453,-89.80000305175781 61.027000427246094,-71.23899841308594 94.67400360107422,-58.316001892089844 C125.94499969482422,-46.305999755859375 132.76499938964844,8.519000053405762 115.61100006103516,57.75899887084961 C96.00499725341797,114.03900146484375 56.275001525878906,122.81900024414062 31.340999603271484,109.49199676513672 C6.4070000648498535,96.16500091552734 9.89799976348877,79.61100006103516 -14.038999557495117,86.39199829101562 C-37.97600173950195,93.1729965209961 -50.44300079345703,88.18699645996094 -63.90700149536133,76.71700286865234 C-77.37100219726562,65.24700164794922 -99.66799926757812,77.61199951171875 -116.76699829101562,60.75899887084961z"/></g></g><g style="display: block;" transform="matrix(0.9299999475479126,0,0,0.9299999475479126,164.0498809814453,193.750244140625)" opacity="0.7000000000000001"><g opacity="1" transform="matrix(1,0,0,1,0,0)"><path fill="rgb(210,211,189)" fill-opacity="1" d=" M17.091999053955078,-40.941001892089844 C24.89900016784668,-45.78499984741211 35.20600128173828,-49.444000244140625 42.11600112915039,-51.59400177001953 C52.74800109863281,-54.902000427246094 57.58100128173828,-59.7140007019043 41.64699935913086,-60.7760009765625 C15.357999801635742,-62.52899932861328 66.39199829101562,-100.83100128173828 41.64699935913086,-100.76000213623047 C14.881999969482422,-100.68299865722656 -16.773000717163086,-72.13400268554688 -25.743000030517578,-46.459999084472656 C-30.64299964904785,-32.435001373291016 -30.2549991607666,-23.163999557495117 -32.33399963378906,-6.506999969482422 C-34.72200012207031,-3.2079999446868896 -51.90999984741211,14.413999557495117 -51.90999984741211,14.413999557495117 C-37.13999938964844,2.119999885559082 -23.69300079345703,0.8450000286102295 -29.575000762939453,10.914999961853027 C-39.96099853515625,28.69700050354004 -52.6870002746582,46.8489990234375 -37.07500076293945,63.09400177001953 C-10.315999984741211,90.93699645996094 -68.61499786376953,80.5469970703125 -30.795000076293945,84.37699890136719 C-9.064000129699707,86.5780029296875 -0.0010000000474974513,99.48999786376953 15.763999938964844,100.68699645996094 C31.52899932861328,101.88400268554688 49.22100067138672,88.05400085449219 36.4119987487793,85.4209976196289 C-14.78499984741211,74.89600372314453 -23.486000061035156,24.19099998474121 -14.144000053405762,-2.3329999446868896 C-9.13700008392334,-16.548999786376953 -2.9130001068115234,-28.52899932861328 17.091999053955078,-40.941001892089844z"/></g></g><g style="display: block;" transform="matrix(0.9299999475479126,0,0,0.9299999475479126,277.9600830078125,228.77247619628906)" opacity="0.7000000000000001"><g opacity="1" transform="matrix(1,0,0,1,0,0)"><path fill="rgb(210,211,189)" fill-opacity="1" d=" M48.31999969482422,32.76900100708008 C28.709999084472656,89.04900360107422 -11.020000457763672,97.8290023803711 -35.95000076293945,84.50900268554688 C-44.06999969482422,80.16899871826172 -49.18000030517578,75.47899627685547 -53.209999084472656,71.36900329589844 C-53.2400016784668,71.33899688720703 -53.2599983215332,71.30899810791016 -53.290000915527344,71.27899932861328 C-69.4010009765625,40.757999420166016 -36.137001037597656,65.5979995727539 -6.869999885559082,49.999000549316406 C9.163999557495117,41.452999114990234 22.63800048828125,1.3869999647140503 16.43899917602539,-31.614999771118164 C8.958999633789062,-71.44000244140625 -10.404999732971191,-89.46499633789062 13.4399995803833,-89.97100067138672 C13.4399995803833,-89.97100067138672 13.449999809265137,-89.97100067138672 13.449999809265137,-89.97100067138672 C17.3799991607666,-87.62100219726562 21.940000534057617,-85.39099884033203 27.3799991607666,-83.3010025024414 C58.650001525878906,-71.29100036621094 65.47000122070312,-16.47100067138672 48.31999969482422,32.76900100708008z"/></g></g><g style="display: block;" transform="matrix(0.9299999475479126,0,0,0.9299999475479126,215.37921142578125,205.53599548339844)" opacity="0.5"><g opacity="1" transform="matrix(1,0,0,1,0,0)"><path fill="rgb(255,255,255)" fill-opacity="1" d=" M115.61199951171875,57.75400161743164 C96.00199890136719,114.03399658203125 56.27199935913086,122.81400299072266 31.341999053955078,109.49400329589844 C88.8010025024414,123.2509994506836 112.26200103759766,50.33399963378906 112.26200103759766,8.314000129699707 C112.26200103759766,-33.69599914550781 98.33599853515625,-44.04100036621094 75.03900146484375,-54.65800094604492 C50.827999114990234,-65.69100189208984 47.08399963378906,-90.48500061035156 17.472000122070312,-98.8759994506836 C-25.361000061035156,-111.01300048828125 -65.27999877929688,-76.37100219726562 -71.12799835205078,-47.7859992980957 C-76.59200286865234,-21.082000732421875 -72.2979965209961,-8.10200023651123 -89.98799896240234,1.74399995803833 C-105.27899932861328,10.255000114440918 -104.33799743652344,19.124000549316406 -112.64800262451172,35.183998107910156 C-120.947998046875,51.24399948120117 -102.47799682617188,68.94400024414062 -89.98799896240234,70.7040023803711 C-99.06800079345703,70.21399688720703 -108.52799987792969,68.88400268554688 -116.76799774169922,60.75400161743164 C-121.91799926757812,55.683998107910156 -126.65799713134766,47.444000244140625 -124.05799865722656,37.23400115966797 C-121.85800170898438,28.583999633789062 -118.23799896240234,27.11400032043457 -114.1780014038086,14.814000129699707 C-109.01799774169922,-0.8259999752044678 -102.25800323486328,-1.4359999895095825 -92.3280029296875,-10.555999755859375 C-80.06800079345703,-21.81599998474121 -93.197998046875,-49.67599868774414 -69.88800048828125,-78.8759994506836 C-41.22800064086914,-114.7760009765625 2.0820000171661377,-125.14600372314453 36.821998596191406,-104.2760009765625 C60.9119987487793,-89.7959976196289 61.02199935913086,-71.23600006103516 94.6719970703125,-58.316001892089844 C125.94200134277344,-46.305999755859375 132.76199340820312,8.513999938964844 115.61199951171875,57.75400161743164z"/></g></g><g style="display: block;" transform="matrix(0.9299999475479126,0,0,0.9299999475479126,213.41799926757812,211.81092834472656)" opacity="1"><g opacity="1" transform="matrix(1,0,0,1,0,0)"><path fill="url(#__lottie_element_29609)" fill-opacity="1" d=" M58.99599838256836,0 C58.99599838256836,32.582000732421875 32.58300018310547,58.99599838256836 0,58.99599838256836 C-32.582000732421875,58.99599838256836 -58.99599838256836,32.582000732421875 -58.99599838256836,0 C-58.99599838256836,-32.58300018310547 -32.582000732421875,-58.99599838256836 0,-58.99599838256836 C32.58300018310547,-58.99599838256836 58.99599838256836,-32.58300018310547 58.99599838256836,0z"/></g></g><g style="display: block;" transform="matrix(0.7905000448226929,0,0,0.7905000448226929,213.41799926757812,211.81092834472656)" opacity="1"><g opacity="1" transform="matrix(1,0,0,1,0,0)"><path fill="url(#__lottie_element_29605)" fill-opacity="1" d=" M58.99599838256836,0 C58.99599838256836,32.582000732421875 32.58300018310547,58.99599838256836 0,58.99599838256836 C-32.582000732421875,58.99599838256836 -58.99599838256836,32.582000732421875 -58.99599838256836,0 C-58.99599838256836,-32.58300018310547 -32.582000732421875,-58.99599838256836 0,-58.99599838256836 C32.58300018310547,-58.99599838256836 58.99599838256836,-32.58300018310547 58.99599838256836,0z"/></g></g><g style="display: block;" transform="matrix(0.9299999475479126,0,0,0.9299999475479126,197.9127655029297,195.32627868652344)" opacity="0.2"><g opacity="1" transform="matrix(1,0,0,1,0,0)"><path fill="rgb(255,255,255)" fill-opacity="1" d=" M14.875,-13.623000144958496 C0.8730000257492065,-8.350000381469727 -7.688000202178955,-0.4950000047683716 -15.881999969482422,18.892000198364258 C-20.996000289916992,30.990999221801758 -27.621999740600586,28.347000122070312 -27.621999740600586,18.858999252319336 C-27.621999740600586,-8.305000305175781 -8.270999908447266,-27.00200080871582 18.89299964904785,-27.00200080871582 C20.281999588012695,-27.00200080871582 21.650999069213867,-26.940000534057617 23.010000228881836,-26.82699966430664 C28.20800018310547,-25.05900001525879 32.67100143432617,-20.325000762939453 14.875,-13.623000144958496z"/></g></g><g style="display: block;" transform="matrix(0.9299999475479126,0,0,0.9299999475479126,213.41799926757812,211.81092834472656)" opacity="1"><g opacity="1" transform="matrix(1,0,0,1,0,0)"><path stroke-linecap="round" stroke-linejoin="round" fill-opacity="0" stroke="rgb(219,147,31)" stroke-opacity="1" stroke-width="8" d=" M58.99599838256836,0 C58.99599838256836,32.582000732421875 32.58300018310547,58.99599838256836 0,58.99599838256836 C-32.582000732421875,58.99599838256836 -58.99599838256836,32.582000732421875 -58.99599838256836,0 C-58.99599838256836,-32.58300018310547 -32.582000732421875,-58.99599838256836 0,-58.99599838256836 C32.58300018310547,-58.99599838256836 58.99599838256836,-32.58300018310547 58.99599838256836,0z"/></g></g><g style="display: block;" transform="matrix(0.9299999475479126,0,0,0.9299999475479126,215.5812225341797,204.52728271484375)" opacity="1"><g opacity="1" transform="matrix(1,0,0,1,0,0)"><path stroke-linecap="round" stroke-linejoin="round" fill-opacity="0" stroke="rgb(173,165,147)" stroke-opacity="1" stroke-width="8" d=" M-117.01699829101562,61.25899887084961 C-122.16500091552734,56.185001373291016 -126.90899658203125,47.94599914550781 -124.30999755859375,37.73400115966797 C-122.10700225830078,29.07900047302246 -118.48500061035156,27.613000869750977 -114.43000030517578,15.3149995803833 C-109.27100372314453,-0.328000009059906 -102.50700378417969,-0.9399999976158142 -92.58200073242188,-10.053000450134277 C-80.31199645996094,-21.31800079345703 -93.44499969482422,-49.17499923706055 -70.14099884033203,-78.37200164794922 C-41.47999954223633,-114.27999877929688 1.8380000591278076,-124.64900207519531 36.57699966430664,-103.7750015258789 C60.66699981689453,-89.30000305175781 60.777000427246094,-70.73899841308594 94.42400360107422,-57.816001892089844 C125.69499969482422,-45.805999755859375 132.51499938964844,9.019000053405762 115.36100006103516,58.25899887084961 C95.75499725341797,114.53900146484375 56.025001525878906,123.31900024414062 31.090999603271484,109.99199676513672 C6.1570000648498535,96.66500091552734 9.64799976348877,80.11100006103516 -14.288999557495117,86.89199829101562 C-38.22600173950195,93.6729965209961 -50.69300079345703,88.68699645996094 -64.15699768066406,77.21700286865234 C-77.62100219726562,65.74700164794922 -99.91799926757812,78.11199951171875 -117.01699829101562,61.25899887084961z"/></g></g><g style="display: block;" transform="matrix(0.9299999475479126,0,0,0.9299999475479126,251.8588409423828,212.26217651367188)" opacity="1"><g opacity="1" transform="matrix(1,0,0,1,0,0)"><path fill="rgb(255,255,191)" fill-opacity="1" d=" M1.0479999780654907,-15.946999549865723 C-7.297999858856201,-15.946999549865723 -9.628999710083008,10.407999992370605 -3.2790000438690186,15.053999900817871 C6.498000144958496,22.20800018310547 11.609000205993652,-15.946999549865723 1.0479999780654907,-15.946999549865723z"/></g></g><g style="display: block;" transform="matrix(0.9299999475479126,0,0,0.9299999475479126,255.26881408691406,148.6108856201172)" opacity="0.7000000000000001"><g opacity="1" transform="matrix(1,0,0,1,0,0)"><path fill="rgb(210,211,189)" fill-opacity="1" d=" M3.239000082015991,-7.4629998207092285 C-12.956999778747559,-17.041000366210938 -16.992000579833984,-1.1330000162124634 -1.6160000562667847,7.876999855041504 C13.760000228881836,16.886999130249023 15.348999977111816,-0.3019999861717224 3.239000082015991,-7.4629998207092285z"/></g></g><g style="display: block;" transform="matrix(0.9299999475479126,0,0,0.9299999475479126,246.7683563232422,129.91835021972656)" opacity="0.7000000000000001"><g opacity="1" transform="matrix(1,0,0,1,0,0)"><path fill="rgb(210,211,189)" fill-opacity="1" d=" M-1.4320000410079956,-3.690999984741211 C-9.368000030517578,-4.9679999351501465 -6.915999889373779,2.8980000019073486 1.1169999837875366,3.756999969482422 C9.149999618530273,4.616000175476074 7.465000152587891,-2.259000062942505 -1.4320000410079956,-3.690999984741211z"/></g></g><g style="display: block;" transform="matrix(0.9299999475479126,0,0,0.9299999475479126,261.233154296875,252.8954315185547)" opacity="0.7000000000000001"><g opacity="1" transform="matrix(1,0,0,1,0,0)"><path fill="rgb(210,211,189)" fill-opacity="1" d=" M13.104000091552734,-16.643999099731445 C5.571000099182129,-15.329999923706055 7.406000137329102,-5.086999893188477 -13.312999725341797,11.135000228881836 C-26.045000076293945,21.10300064086914 -2.377000093460083,16.729999542236328 7.61299991607666,5.61899995803833 C19.687000274658203,-7.809999942779541 18.437999725341797,-17.575000762939453 13.104000091552734,-16.643999099731445z"/></g></g><g style="display: block;" transform="matrix(0.9299999475479126,0,0,0.9299999475479126,234.9204559326172,114.33956909179688)" opacity="1"><g opacity="1" transform="matrix(1,0,0,1,0,0)"><path stroke-linecap="round" stroke-linejoin="round" fill-opacity="0" stroke="rgb(255,255,255)" stroke-opacity="1" stroke-width="6" d=" M-1.312000036239624,-0.5109999775886536 C-0.4399999976158142,-0.20600000023841858 0.4359999895095825,0.13300000131130219 1.312000036239624,0.5109999775886536"/></g></g><g style="display: block;" transform="matrix(0.9299999475479126,0,0,0.9299999475479126,208.22064208984375,109.90178680419922)" opacity="1"><g opacity="1" transform="matrix(1,0,0,1,0,0)"><path stroke-linecap="round" stroke-linejoin="round" fill-opacity="0" stroke="rgb(255,255,255)" stroke-opacity="1" stroke-width="6" d=" M-5.005000114440918,0.23499999940395355 C-5.005000114440918,0.23499999940395355 -0.8640000224113464,-0.5189999938011169 5.005000114440918,-0.11699999868869781"/></g></g><g style="display: block;" transform="matrix(0.9201884865760803,0,0,0.9201884865760803,214.00750732421875,216.50411987304688)" opacity="1"><g opacity="1" transform="matrix(1,0,0,1,0,0)"><path fill="url(#__lottie_element_29565)" fill-opacity="1" d=" M0,193.54299926757812 C-106.72000122070312,193.54299926757812 -193.54200744628906,106.72000122070312 -193.54200744628906,0 C-193.54200744628906,-106.72000122070312 -106.72000122070312,-193.54299926757812 0,-193.54299926757812 C106.72000122070312,-193.54299926757812 193.54200744628906,-106.72000122070312 193.54200744628906,0 C193.54200744628906,106.72000122070312 106.72000122070312,193.54299926757812 0,193.54299926757812z M0,-185.54299926757812 C-102.30899810791016,-185.54299926757812 -185.54200744628906,-102.30899810791016 -185.54200744628906,0 C-185.54200744628906,102.30899810791016 -102.30899810791016,185.54299926757812 0,185.54299926757812 C102.30899810791016,185.54299926757812 185.54200744628906,102.30899810791016 185.54200744628906,0 C185.54200744628906,-102.30899810791016 102.30899810791016,-185.54299926757812 0,-185.54299926757812z"/></g></g></g></svg>