<svg xmlns="http://www.w3.org/2000/svg" xmlns:xlink="http://www.w3.org/1999/xlink" viewBox="0 0 512 512" width="512" height="512" style="width: 100%; height: 100%; transform: translate3d(0,0,0);" preserveAspectRatio="xMidYMid meet"><defs><clipPath id="__lottie_element_40726"><rect width="512" height="512" x="0" y="0"/></clipPath><radialGradient id="__lottie_element_40733" spreadMethod="pad" gradientUnits="userSpaceOnUse" cx="52" cy="13" r="150.27424236232886" fx="52" fy="13"><stop offset="0%" stop-color="rgb(98,125,65)"/><stop offset="50%" stop-color="rgb(66,96,50)"/><stop offset="100%" stop-color="rgb(33,68,35)"/></radialGradient><linearGradient id="__lottie_element_40734" spreadMethod="pad" gradientUnits="userSpaceOnUse" x1="18" y1="0" x2="23.072999954223633" y2="-43.75400161743164"><stop offset="0%" stop-color="rgb(79,147,79)"/><stop offset="50%" stop-color="rgb(128,186,108)"/><stop offset="100%" stop-color="rgb(176,226,137)"/></linearGradient><linearGradient id="__lottie_element_40735" spreadMethod="pad" gradientUnits="userSpaceOnUse" x1="22" y1="-45" x2="23.007999420166016" y2="-30.492000579833984"><stop offset="0%" stop-color="rgb(197,247,148)" stop-opacity="1"/><stop offset="50%" stop-color="rgb(197,247,148)" stop-opacity="0.6000000238418579"/><stop offset="100%" stop-color="rgb(197,247,148)" stop-opacity="0.20000000298023224"/></linearGradient><linearGradient id="__lottie_element_40736" spreadMethod="pad" gradientUnits="userSpaceOnUse" x1="91" y1="15" x2="80.5719985961914" y2="-38.367000579833984"><stop offset="0%" stop-color="rgb(79,147,79)"/><stop offset="50%" stop-color="rgb(128,186,108)"/><stop offset="100%" stop-color="rgb(176,226,137)"/></linearGradient><linearGradient id="__lottie_element_40737" spreadMethod="pad" gradientUnits="userSpaceOnUse" x1="89" y1="-39" x2="90.66400146484375" y2="-15.041999816894531"><stop offset="0%" stop-color="rgb(197,247,148)" stop-opacity="1"/><stop offset="50%" stop-color="rgb(197,247,148)" stop-opacity="0.6000000238418579"/><stop offset="100%" stop-color="rgb(197,247,148)" stop-opacity="0.20000000298023224"/></linearGradient><linearGradient id="__lottie_element_40738" spreadMethod="pad" gradientUnits="userSpaceOnUse" x1="158" y1="71" x2="126.85800170898438" y2="4.603000164031982"><stop offset="0%" stop-color="rgb(38,97,54)"/><stop offset="59%" stop-color="rgb(93,147,88)"/><stop offset="100%" stop-color="rgb(148,198,122)"/></linearGradient><linearGradient id="__lottie_element_40739" spreadMethod="pad" gradientUnits="userSpaceOnUse" x1="105" y1="105" x2="90.73300170898438" y2="31.288999557495117"><stop offset="0%" stop-color="rgb(38,97,54)"/><stop offset="59%" stop-color="rgb(93,147,88)"/><stop offset="100%" stop-color="rgb(148,198,122)"/></linearGradient><linearGradient id="__lottie_element_40740" spreadMethod="pad" gradientUnits="userSpaceOnUse" x1="16" y1="92" x2="50.62200164794922" y2="17.191999435424805"><stop offset="0%" stop-color="rgb(38,97,54)"/><stop offset="59%" stop-color="rgb(93,147,88)"/><stop offset="100%" stop-color="rgb(148,198,122)"/></linearGradient><linearGradient id="__lottie_element_40741" spreadMethod="pad" gradientUnits="userSpaceOnUse" x1="-50" y1="37" x2="-11.861000061035156" y2="-2.9560000896453857"><stop offset="0%" stop-color="rgb(38,97,54)"/><stop offset="59%" stop-color="rgb(93,147,88)"/><stop offset="100%" stop-color="rgb(148,198,122)"/></linearGradient><linearGradient id="__lottie_element_40742" spreadMethod="pad" gradientUnits="userSpaceOnUse" x1="-72" y1="-7" x2="-29.642000198364258" y2="-30.719999313354492"><stop offset="0%" stop-color="rgb(38,97,54)"/><stop offset="59%" stop-color="rgb(93,147,88)"/><stop offset="100%" stop-color="rgb(148,198,122)"/></linearGradient><radialGradient id="__lottie_element_40745" spreadMethod="pad" gradientUnits="userSpaceOnUse"><stop/><stop/><stop/><stop/><stop/></radialGradient><mask id="__lottie_element_40747"><path fill="url(#__lottie_element_40746)"/></mask><radialGradient id="__lottie_element_40746" spreadMethod="pad" gradientUnits="userSpaceOnUse"><stop stop-color="rgb(255,255,255)"/><stop stop-color="rgb(255,255,255)"/><stop stop-color="rgb(255,255,255)"/><stop stop-color="rgb(255,255,255)"/><stop stop-color="rgb(255,255,255)"/></radialGradient><radialGradient id="__lottie_element_40748" spreadMethod="pad" gradientUnits="userSpaceOnUse"><stop/><stop/><stop/><stop/><stop/></radialGradient><mask id="__lottie_element_40750"><path fill="url(#__lottie_element_40749)"/></mask><radialGradient id="__lottie_element_40749" spreadMethod="pad" gradientUnits="userSpaceOnUse"><stop stop-color="rgb(255,255,255)"/><stop stop-color="rgb(255,255,255)"/><stop stop-color="rgb(255,255,255)"/><stop stop-color="rgb(255,255,255)"/><stop stop-color="rgb(255,255,255)"/></radialGradient><radialGradient id="__lottie_element_40754" spreadMethod="pad" gradientUnits="userSpaceOnUse" cx="95" cy="152" r="45.802001953125" fx="95" fy="152"><stop offset="0%" stop-color="rgb(199,211,95)"/><stop offset="50%" stop-color="rgb(164,182,81)"/><stop offset="100%" stop-color="rgb(130,153,67)"/></radialGradient><linearGradient id="__lottie_element_40755" spreadMethod="pad" gradientUnits="userSpaceOnUse" x1="106" y1="161" x2="106" y2="140.33299255371094"><stop offset="0%" stop-color="rgb(67,96,25)" stop-opacity="0"/><stop offset="47%" stop-color="rgb(67,96,25)" stop-opacity="0.5"/><stop offset="100%" stop-color="rgb(67,96,25)" stop-opacity="1"/></linearGradient><linearGradient id="__lottie_element_40756" spreadMethod="pad" gradientUnits="userSpaceOnUse" x1="59" y1="190" x2="107.36000061035156" y2="205.7010040283203"><stop offset="2%" stop-color="rgb(200,208,95)"/><stop offset="50%" stop-color="rgb(165,181,81)"/><stop offset="100%" stop-color="rgb(130,153,67)"/></linearGradient><radialGradient id="__lottie_element_40760" spreadMethod="pad" gradientUnits="userSpaceOnUse" cx="-80" cy="164" r="84.99359820327386" fx="-80" fy="164"><stop offset="0%" stop-color="rgb(130,153,67)"/><stop offset="27%" stop-color="rgb(130,153,67)"/><stop offset="54%" stop-color="rgb(130,153,67)"/><stop offset="76%" stop-color="rgb(107,132,52)"/><stop offset="100%" stop-color="rgb(83,110,36)"/></radialGradient><radialGradient id="__lottie_element_40761" spreadMethod="pad" gradientUnits="userSpaceOnUse" cx="-67" cy="97" r="65.00999999046326" fx="-67" fy="97"><stop offset="0%" stop-color="rgb(201,216,95)"/><stop offset="50%" stop-color="rgb(165,185,81)"/><stop offset="100%" stop-color="rgb(130,153,67)"/></radialGradient><mask id="__lottie_element_40763"><path fill="url(#__lottie_element_40762)" d=" M-46.58300018310547,89.75 C-49.58300018310547,89.125 -77.95800018310547,83.375 -89.89299774169922,99.33999633789062 C-93.0510025024414,103.56400299072266 -93.6729965209961,107.7699966430664 -93.44300079345703,115.95999908447266 C-82.89299774169922,134.11000061035156 -46.893001556396484,126.7699966430664 -41.62300109863281,125.56999969482422 C-34.45000076293945,123.93800354003906 -18.948999404907227,99.38500213623047 -46.58300018310547,89.75z"/></mask><radialGradient id="__lottie_element_40762" spreadMethod="pad" gradientUnits="userSpaceOnUse" cx="-67" cy="97" r="65.00999999046326" fx="-67" fy="97"><stop stop-color="rgb(255,255,255)" offset="0%" stop-opacity="1"/><stop stop-color="rgb(255,255,255)" offset="50%" stop-opacity="0.5"/><stop stop-color="rgb(255,255,255)" offset="100%" stop-opacity="0"/></radialGradient><linearGradient id="__lottie_element_40764" spreadMethod="pad" gradientUnits="userSpaceOnUse" x1="-70" y1="132" x2="-58.417999267578125" y2="92.15599822998047"><stop offset="0%" stop-color="rgb(255,255,255)" stop-opacity="0"/><stop offset="50%" stop-color="rgb(255,255,234)" stop-opacity="0.5"/><stop offset="100%" stop-color="rgb(255,255,213)" stop-opacity="1"/></linearGradient><radialGradient id="__lottie_element_40765" spreadMethod="pad" gradientUnits="userSpaceOnUse" cx="-80" cy="188" r="24.48051645077733" fx="-80" fy="188"><stop offset="0%" stop-color="rgb(201,211,95)"/><stop offset="50%" stop-color="rgb(165,182,81)"/><stop offset="100%" stop-color="rgb(129,152,67)"/></radialGradient><linearGradient id="__lottie_element_40770" spreadMethod="pad" gradientUnits="userSpaceOnUse" x1="24.113000869750977" y1="40.737998962402344" x2="8.95300006866455" y2="224.60699462890625"><stop offset="0%" stop-color="rgb(47,73,47)"/><stop offset="50%" stop-color="rgb(32,59,32)"/><stop offset="100%" stop-color="rgb(17,46,17)"/></linearGradient><linearGradient id="__lottie_element_40781" spreadMethod="pad" gradientUnits="userSpaceOnUse" x1="-128" y1="-68" x2="-77.49800109863281" y2="104.49299621582031"><stop offset="1%" stop-color="rgb(142,161,54)"/><stop offset="43%" stop-color="rgb(103,126,35)"/><stop offset="100%" stop-color="rgb(64,91,16)"/></linearGradient><linearGradient id="__lottie_element_40782" spreadMethod="pad" gradientUnits="userSpaceOnUse" x1="-142" y1="26" x2="-48.70100021362305" y2="26"><stop offset="0%" stop-color="rgb(144,164,59)" stop-opacity="1"/><stop offset="44%" stop-color="rgb(112,135,52)" stop-opacity="0.6499999761581421"/><stop offset="88%" stop-color="rgb(81,106,44)" stop-opacity="0.30000001192092896"/></linearGradient><linearGradient id="__lottie_element_40783" spreadMethod="pad" gradientUnits="userSpaceOnUse" x1="-77" y1="90" x2="-59.66699981689453" y2="75.33300018310547"><stop offset="0%" stop-color="rgb(59,73,16)" stop-opacity="0"/><stop offset="50%" stop-color="rgb(59,73,16)" stop-opacity="0.5"/><stop offset="100%" stop-color="rgb(59,73,16)" stop-opacity="1"/></linearGradient><linearGradient id="__lottie_element_40784" spreadMethod="pad" gradientUnits="userSpaceOnUse" x1="-144" y1="-69" x2="-183.1739959716797" y2="-97.10299682617188"><stop offset="1%" stop-color="rgb(142,161,54)" stop-opacity="0"/><stop offset="45%" stop-color="rgb(103,126,35)" stop-opacity="0.5"/><stop offset="100%" stop-color="rgb(64,91,16)" stop-opacity="1"/></linearGradient><linearGradient id="__lottie_element_40787" spreadMethod="pad" gradientUnits="userSpaceOnUse" x1="-161" y1="-136" x2="-159.4290008544922" y2="-116.76000213623047"><stop offset="2%" stop-color="rgb(196,208,95)"/><stop offset="59%" stop-color="rgb(169,185,75)"/><stop offset="100%" stop-color="rgb(142,161,55)"/></linearGradient><radialGradient id="__lottie_element_40788" spreadMethod="pad" gradientUnits="userSpaceOnUse" cx="-150" cy="-104" r="34.612998962402344" fx="-150" fy="-104"><stop offset="0%" stop-color="rgb(200,209,92)" stop-opacity="1"/><stop offset="60%" stop-color="rgb(193,202,92)" stop-opacity="0.5"/><stop offset="100%" stop-color="rgb(185,196,92)" stop-opacity="0"/></radialGradient><linearGradient id="__lottie_element_40789" spreadMethod="pad" gradientUnits="userSpaceOnUse" x1="-159" y1="-110" x2="-157.38800048828125" y2="-136.0240020751953"><stop offset="0%" stop-color="rgb(255,255,255)" stop-opacity="0"/><stop offset="50%" stop-color="rgb(255,255,234)" stop-opacity="0.5"/><stop offset="100%" stop-color="rgb(255,255,213)" stop-opacity="1"/></linearGradient><linearGradient id="__lottie_element_40790" spreadMethod="pad" gradientUnits="userSpaceOnUse" x1="-125" y1="-58" x2="-109.12100219726562" y2="-85.00700378417969"><stop offset="20%" stop-color="rgb(255,255,255)" stop-opacity="0"/><stop offset="63%" stop-color="rgb(255,255,234)" stop-opacity="0.5"/><stop offset="100%" stop-color="rgb(255,255,213)" stop-opacity="1"/></linearGradient><linearGradient id="__lottie_element_40793" spreadMethod="pad" gradientUnits="userSpaceOnUse" x1="-152" y1="-127" x2="-151.80299377441406" y2="-120.79299926757812"><stop offset="0%" stop-color="rgb(255,255,255)" stop-opacity="1"/><stop offset="50%" stop-color="rgb(255,255,255)" stop-opacity="0.5"/><stop offset="100%" stop-color="rgb(255,255,255)" stop-opacity="0"/></linearGradient><linearGradient id="__lottie_element_40794" spreadMethod="pad" gradientUnits="userSpaceOnUse" x1="-155" y1="-109" x2="-155" y2="-116.14399719238281"><stop offset="0%" stop-color="rgb(255,255,255)" stop-opacity="0.20000000298023224"/><stop offset="61%" stop-color="rgb(129,129,129)" stop-opacity="0.10000000149011612"/><stop offset="100%" stop-color="rgb(2,2,2)" stop-opacity="0"/></linearGradient><radialGradient id="__lottie_element_40801" spreadMethod="pad" gradientUnits="userSpaceOnUse" cx="-75" cy="79" r="153" fx="-75" fy="79"><stop offset="0%" stop-color="rgb(29,43,16)"/><stop offset="50%" stop-color="rgb(25,38,12)"/><stop offset="100%" stop-color="rgb(21,33,9)"/></radialGradient><linearGradient id="__lottie_element_40808" spreadMethod="pad" gradientUnits="userSpaceOnUse" x1="190" y1="108" x2="184.88900756835938" y2="115.93099975585938"><stop offset="1%" stop-color="rgb(194,202,95)"/><stop offset="50%" stop-color="rgb(162,177,81)"/><stop offset="100%" stop-color="rgb(130,153,67)"/></linearGradient><linearGradient id="__lottie_element_40809" spreadMethod="pad" gradientUnits="userSpaceOnUse" x1="169" y1="100" x2="163.64500427246094" y2="118.51399993896484"><stop offset="0%" stop-color="rgb(67,96,25)" stop-opacity="0"/><stop offset="5%" stop-color="rgb(67,96,25)" stop-opacity="0.054999999701976776"/><stop offset="10%" stop-color="rgb(67,96,25)" stop-opacity="0.11100000143051147"/><stop offset="53%" stop-color="rgb(67,96,25)" stop-opacity="0.5550000071525574"/><stop offset="100%" stop-color="rgb(67,96,25)" stop-opacity="1"/></linearGradient><linearGradient id="__lottie_element_40813" spreadMethod="pad" gradientUnits="userSpaceOnUse" x1="169" y1="178" x2="139.98300170898438" y2="155.45799255371094"><stop offset="0%" stop-color="rgb(130,153,67)"/><stop offset="50%" stop-color="rgb(106,130,56)"/><stop offset="100%" stop-color="rgb(81,106,44)"/></linearGradient><linearGradient id="__lottie_element_40814" spreadMethod="pad" gradientUnits="userSpaceOnUse" x1="158" y1="166" x2="190.98500061035156" y2="182.82899475097656"><stop offset="0%" stop-color="rgb(255,255,255)" stop-opacity="0"/><stop offset="50%" stop-color="rgb(255,255,234)" stop-opacity="0.5"/><stop offset="100%" stop-color="rgb(255,255,213)" stop-opacity="1"/></linearGradient><linearGradient id="__lottie_element_40815" spreadMethod="pad" gradientUnits="userSpaceOnUse" x1="149" y1="166" x2="132.99400329589844" y2="147.9429931640625"><stop offset="0%" stop-color="rgb(59,73,16)" stop-opacity="0"/><stop offset="47%" stop-color="rgb(59,73,16)" stop-opacity="0.5"/><stop offset="100%" stop-color="rgb(59,73,16)" stop-opacity="1"/></linearGradient><linearGradient id="__lottie_element_40819" spreadMethod="pad" gradientUnits="userSpaceOnUse" x1="-135" y1="170" x2="-98.36900329589844" y2="153.35000610351562"><stop offset="2%" stop-color="rgb(191,200,94)"/><stop offset="25%" stop-color="rgb(160,176,81)"/><stop offset="47%" stop-color="rgb(130,153,67)"/><stop offset="57%" stop-color="rgb(119,143,62)"/><stop offset="66%" stop-color="rgb(108,132,57)"/><stop offset="82%" stop-color="rgb(95,119,50)"/><stop offset="100%" stop-color="rgb(81,106,44)"/></linearGradient><linearGradient id="__lottie_element_40820" spreadMethod="pad" gradientUnits="userSpaceOnUse" x1="-115" y1="165" x2="-70.85800170898438" y2="137.30299377441406"><stop offset="0%" stop-color="rgb(59,73,16)" stop-opacity="0"/><stop offset="50%" stop-color="rgb(59,73,16)" stop-opacity="0.5"/><stop offset="100%" stop-color="rgb(59,73,16)" stop-opacity="1"/></linearGradient></defs><g clip-path="url(#__lottie_element_40726)"><g style="display: block;" transform="matrix(1,0,0,1,256,256)" opacity="1"><g opacity="1" transform="matrix(1,0,0,1,0,0)"><path fill="url(#__lottie_element_40819)" fill-opacity="1" d=" M-72.947998046875,112.28600311279297 C-76.04499816894531,138.68299865722656 -75.83799743652344,165.01400756835938 -73.75299835205078,191.50999450683594 C-91.73999786376953,195.03799438476562 -120.36000061035156,196.04600524902344 -133.3070068359375,193.6479949951172 C-142.83399963378906,191.88400268554688 -126.81800079345703,178.48699951171875 -123.47100067138672,175.6179962158203 C-109.76599884033203,155.53799438476562 -115.50199890136719,136.0959930419922 -109.75199890136719,116.7770004272461 C-104.08999633789062,97.75399780273438 -72.10199737548828,105.0770034790039 -72.947998046875,112.28600311279297z"/><path stroke-linecap="round" stroke-linejoin="round" fill-opacity="0" stroke="rgb(59,73,16)" stroke-opacity="1" stroke-width="6" d=" M-72.947998046875,112.28600311279297 C-76.04499816894531,138.68299865722656 -75.83799743652344,165.01400756835938 -73.75299835205078,191.50999450683594 C-91.73999786376953,195.03799438476562 -120.36000061035156,196.04600524902344 -133.3070068359375,193.6479949951172 C-142.83399963378906,191.88400268554688 -126.81800079345703,178.48699951171875 -123.47100067138672,175.6179962158203 C-109.76599884033203,155.53799438476562 -115.50199890136719,136.0959930419922 -109.75199890136719,116.7770004272461 C-104.08999633789062,97.75399780273438 -72.10199737548828,105.0770034790039 -72.947998046875,112.28600311279297z"/></g><g opacity="1" transform="matrix(1,0,0,1,0,0)"><path fill="url(#__lottie_element_40820)" fill-opacity="1" d=" M-73.75,191.50900268554688 C-81.70500183105469,193.0679931640625 -91.73500061035156,194.13900756835938 -101.5739974975586,194.6269989013672 C-90.4729995727539,187.5229949951172 -106.99600219726562,125.24700164794922 -112.33100128173828,130.67799377441406 C-111.84300231933594,126.03099822998047 -111.12699890136719,121.40299987792969 -109.75,116.7750015258789 C-104.08899688720703,97.75700378417969 -72.1050033569336,105.08000183105469 -72.94599914550781,112.29000091552734 C-76.04399871826172,138.67999267578125 -75.83399963378906,165.01300048828125 -73.75,191.50900268554688z"/></g><g opacity="1" transform="matrix(1,0,0,1,0,0)"><path stroke-linecap="round" stroke-linejoin="round" fill-opacity="0" stroke="rgb(74,94,25)" stroke-opacity="1" stroke-width="6" d=" M-109.12799835205078,177.8489990234375 C-116.13999938964844,176.57400512695312 -121.23999786376953,174.26300048828125 -125.7020034790039,177.7689971923828 C-131.83099365234375,182.5850067138672 -141.0399932861328,192.21600341796875 -133.3070068359375,193.6479949951172 C-120.36000061035156,196.04600524902344 -91.73999786376953,195.03799438476562 -73.75299835205078,191.50999450683594"/></g><g opacity="0" transform="matrix(1,0,0,1,0,0)"><path fill="rgb(59,73,16)" fill-opacity="1" d=" M-152,100.5 C-169.552001953125,100.0719985961914 -170.17599487304688,150.4080047607422 -141.5,159.5 C-130.91900634765625,162.85499572753906 -128.5970001220703,147.16299438476562 -131.64500427246094,131.1230010986328 C-134.5030059814453,116.08599853515625 -142.08099365234375,100.74199676513672 -152,100.5z"/><path stroke-linecap="butt" stroke-linejoin="miter" fill-opacity="0" stroke-miterlimit="4" stroke="rgb(74,94,25)" stroke-opacity="1" stroke-width="6" d=" M-152,100.5 C-169.552001953125,100.0719985961914 -170.17599487304688,150.4080047607422 -141.5,159.5 C-130.91900634765625,162.85499572753906 -128.5970001220703,147.16299438476562 -131.64500427246094,131.1230010986328 C-134.5030059814453,116.08599853515625 -142.08099365234375,100.74199676513672 -152,100.5z"/></g></g><g style="display: block;" transform="matrix(1,0,0,1,256,256)" opacity="1"><g opacity="1" transform="matrix(1,0,0,1,0,0)"><path fill="url(#__lottie_element_40813)" fill-opacity="1" d=" M161.00799560546875,113.40299987792969 C146.69000244140625,139.6909942626953 171.3489990234375,152.9290008544922 183.3939971923828,170.14500427246094 C188.83700561523438,177.9239959716797 192.63600158691406,190.96200561523438 183.80499267578125,193.8260040283203 C172.08999633789062,197.625 134.01800537109375,196.7239990234375 116.36000061035156,197.02999877929688 C115.38300323486328,185.6020050048828 123.08000183105469,177.6540069580078 132.19400024414062,176.08299255371094 C124.0479965209961,163.1320037841797 112.78099822998047,142.59800720214844 113.83100128173828,127.33399963378906 C114.48799896240234,117.7770004272461 125.24099731445312,110.26399993896484 134.697998046875,108.74299621582031 C144.15499877929688,107.22200012207031 155.66099548339844,105.45500183105469 161.00799560546875,113.40299987792969z"/><path stroke-linecap="round" stroke-linejoin="round" fill-opacity="0" stroke="rgb(59,73,16)" stroke-opacity="1" stroke-width="6" d=" M161.00799560546875,113.40299987792969 C146.69000244140625,139.6909942626953 171.3489990234375,152.9290008544922 183.3939971923828,170.14500427246094 C188.83700561523438,177.9239959716797 192.63600158691406,190.96200561523438 183.80499267578125,193.8260040283203 C172.08999633789062,197.625 134.01800537109375,196.7239990234375 116.36000061035156,197.02999877929688 C115.38300323486328,185.6020050048828 123.08000183105469,177.6540069580078 132.19400024414062,176.08299255371094 C124.0479965209961,163.1320037841797 112.78099822998047,142.59800720214844 113.83100128173828,127.33399963378906 C114.48799896240234,117.7770004272461 125.24099731445312,110.26399993896484 134.697998046875,108.74299621582031 C144.15499877929688,107.22200012207031 155.66099548339844,105.45500183105469 161.00799560546875,113.40299987792969z"/></g><g opacity="0.5" transform="matrix(1,0,0,1,0,0)"><path fill="url(#__lottie_element_40814)" fill-opacity="1" d=" M185.6999969482422,188.25999450683594 C185.35499572753906,189.67300415039062 181.75,191.625 174.68499755859375,192.60499572753906 C179.72500610351562,188.15499877929688 180.22000122070312,180.6999969482422 173.9600067138672,170.7899932861328 C168.82000732421875,162.67999267578125 165.2899932861328,156.0800018310547 162.85000610351562,150.94000244140625 C165.39999389648438,154.16000366210938 188.875,175.25 185.6999969482422,188.25999450683594z"/></g><g opacity="0.8" transform="matrix(1,0,0,1,0,0)"><path fill="url(#__lottie_element_40815)" fill-opacity="1" d=" M159.69700622558594,140.72799682617188 C155.84800720214844,133.06700134277344 155.03399658203125,124.37100219726562 161.00799560546875,113.40299987792969 C152.7480010986328,101.1259994506836 115.14800262451172,108.18099975585938 113.83100128173828,127.33399963378906 C112.78099822998047,142.59800720214844 124.0479965209961,163.1320037841797 132.19400024414062,176.08299255371094 C123.08000183105469,177.6540069580078 115.38300323486328,185.6020050048828 116.36000061035156,197.02999877929688 C120.7760009765625,196.95399475097656 136.08999633789062,198.1179962158203 142.3280029296875,198.10000610351562 C142.80299377441406,171.0290069580078 146.52099609375,150.41400146484375 159.69700622558594,140.72799682617188z"/></g></g><g style="display: block;" transform="matrix(1,0,0,1,256,256)" opacity="1"><g opacity="1" transform="matrix(1,0,0,1,0,0)"><path fill="url(#__lottie_element_40808)" fill-opacity="1" d=" M164.18600463867188,85.78900146484375 C175.3939971923828,96.4010009765625 201.7259979248047,115.77899932861328 212.93499755859375,126.38500213623047 C187.60499572753906,125.43499755859375 157.69200134277344,121.93599700927734 138.08900451660156,121.93599700927734 C136.9929962158203,105.95700073242188 153.4040069580078,89.1709976196289 164.18600463867188,85.78900146484375z"/><path stroke-linecap="round" stroke-linejoin="round" fill-opacity="0" stroke="rgb(67,96,25)" stroke-opacity="1" stroke-width="6" d=" M164.18600463867188,85.78900146484375 C175.3939971923828,96.4010009765625 201.7259979248047,115.77899932861328 212.93499755859375,126.38500213623047 C187.60499572753906,125.43499755859375 157.69200134277344,121.93599700927734 138.08900451660156,121.93599700927734 C136.9929962158203,105.95700073242188 153.4040069580078,89.1709976196289 164.18600463867188,85.78900146484375z"/></g><g opacity="0.8" transform="matrix(1,0,0,1,0,0)"><path fill="url(#__lottie_element_40809)" fill-opacity="1" d=" M181.3249969482422,101.16899871826172 C178.61900329589844,98.14900207519531 167.45700073242188,88.21900177001953 164.6699981689453,85.14900207519531 C152.13900756835938,91.90899658203125 136.4340057373047,108.31400299072266 133.0330047607422,122.13999938964844 C142.8470001220703,121.87200164794922 167.57200622558594,125.4489974975586 177.33900451660156,125.51699829101562 C176.2550048828125,117.2239990234375 178.05799865722656,108.94400024414062 181.3249969482422,101.16899871826172z"/></g><g opacity="1" transform="matrix(1,0,0,1,0,0)"><path stroke-linecap="round" stroke-linejoin="round" fill-opacity="0" stroke="rgb(59,73,16)" stroke-opacity="1" stroke-width="6" d=" M212.93499755859375,126.38500213623047 C187.60499572753906,125.43499755859375 157.69200134277344,121.93599700927734 138.08900451660156,121.93599700927734"/></g></g><g style="display: block;" transform="matrix(1,0,0,1,256,256)" opacity="1"><g opacity="1" transform="matrix(1,0,0,1,0,0)"><path fill="url(#__lottie_element_40801)" fill-opacity="1" d=" M-19.863000869750977,147.04400634765625 C-79,142.8300018310547 -133,27.83099937438965 -80.55599975585938,-2.9089999198913574 C-11.616000175476074,15.029000282287598 75.50900268554688,153.83999633789062 -19.863000869750977,147.04400634765625z"/><path stroke-linecap="round" stroke-linejoin="round" fill-opacity="0" stroke="rgb(27,43,27)" stroke-opacity="1" stroke-width="6" d=" M-19.863000869750977,147.04400634765625 C-79,142.8300018310547 -133,27.83099937438965 -80.55599975585938,-2.9089999198913574 C-11.616000175476074,15.029000282287598 75.50900268554688,153.83999633789062 -19.863000869750977,147.04400634765625z"/></g><g opacity="1" transform="matrix(1,0,0,1,0,0)"><path fill="rgb(35,61,33)" fill-opacity="1" d=" M-61,-6.5 C-103,0 -101,27 -102,50 C-98,22 -86,11 -50.5,19 C-28.58799934387207,23.937999725341797 -55.215999603271484,-7.394999980926514 -61,-6.5z"/><path stroke-linecap="round" stroke-linejoin="round" fill-opacity="0" stroke="rgb(35,61,33)" stroke-opacity="1" stroke-width="6" d=" M-61,-6.5 C-103,0 -101,27 -102,50 C-98,22 -86,11 -50.5,19 C-28.58799934387207,23.937999725341797 -55.215999603271484,-7.394999980926514 -61,-6.5z"/></g></g><g style="display: block;" transform="matrix(1,0,0,1,256,256)" opacity="1"><g opacity="1" transform="matrix(1,0,0,1,0,0)"><path fill="url(#__lottie_element_40781)" fill-opacity="1" d=" M-97.91300201416016,107.90499877929688 C-153.33200073242188,68.43900299072266 -152.21600341796875,-0.8569999933242798 -151.47799682617188,-41.78200149536133 C-152.00999450683594,-68.13200378417969 -184.4290008544922,-55.04199981689453 -194.8780059814453,-82.58799743652344 C-200.35800170898438,-97.03399658203125 -194.20199584960938,-112.68800354003906 -155.75100708007812,-115.44599914550781 C-117.2979965209961,-118.2040023803711 -105.14900207519531,-103.82599639892578 -107.86000061035156,-69.2249984741211 C-109.33399963378906,-36.244998931884766 -111.80799865722656,18.80500030517578 -87.2699966430664,19.195999145507812 C-38.902000427246094,19.968000411987305 23,102 -31.253000259399414,134.38299560546875 C-65.71499633789062,128.98599243164062 -77.86199951171875,122.18399810791016 -97.91300201416016,107.90499877929688z"/><path stroke-linecap="round" stroke-linejoin="round" fill-opacity="0" stroke="rgb(66,94,16)" stroke-opacity="1" stroke-width="6" d=" M-97.91300201416016,107.90499877929688 C-153.33200073242188,68.43900299072266 -152.21600341796875,-0.8569999933242798 -151.47799682617188,-41.78200149536133 C-152.00999450683594,-68.13200378417969 -184.4290008544922,-55.04199981689453 -194.8780059814453,-82.58799743652344 C-200.35800170898438,-97.03399658203125 -194.20199584960938,-112.68800354003906 -155.75100708007812,-115.44599914550781 C-117.2979965209961,-118.2040023803711 -105.14900207519531,-103.82599639892578 -107.86000061035156,-69.2249984741211 C-109.33399963378906,-36.244998931884766 -111.80799865722656,18.80500030517578 -87.2699966430664,19.195999145507812 C-38.902000427246094,19.968000411987305 23,102 -31.253000259399414,134.38299560546875 C-65.71499633789062,128.98599243164062 -77.86199951171875,122.18399810791016 -97.91300201416016,107.90499877929688z"/></g><g opacity="1" transform="matrix(1,0,0,1,0,0)"><path fill="url(#__lottie_element_40782)" fill-opacity="1" d=" M-141.05099487304688,-4.38100004196167 C-142.06199645996094,-35.04999923706055 -123.0770034790039,-45.691001892089844 -112.33300018310547,-45.66699981689453 C-112.5250015258789,-15.461999893188477 -113,17 -85,24.33300018310547 C-12.437000274658203,43.3380012512207 -64.66300201416016,102.44000244140625 -85.95899963378906,97.5719985961914 C-108.12300109863281,92.50599670410156 -139.1510009765625,53.244998931884766 -141.05099487304688,-4.38100004196167z"/></g><g opacity="0.8" transform="matrix(1,0,0,1,0,0)"><path fill="url(#__lottie_element_40783)" fill-opacity="1" d=" M-79.6259994506836,112.7699966430664 C-69.49400329589844,75.40799713134766 -82.79299926757812,45.645999908447266 -98.33300018310547,17.26300048828125 C-48.74100112915039,14.163000106811523 6.257999897003174,75.80400085449219 -17.964000701904297,132.79600524902344 C-35.0620002746582,139.44500732421875 -53.35200119018555,127.3280029296875 -79.6259994506836,112.7699966430664z"/></g><g opacity="0.6" transform="matrix(1,0,0,1,0,0)"><path fill="rgb(67,96,25)" fill-opacity="1" d=" M-151.63499450683594,-29.479999542236328 C-129.25,-56.25 -128.64199829101562,-69.28700256347656 -144.01400756835938,-67.8499984741211 C-159.0989990234375,-66.44000244140625 -177.14599609375,-65.33200073242188 -189.07400512695312,-74.16200256347656 C-185,-58 -146.75,-69.5 -151.63499450683594,-29.479999542236328z"/></g><g opacity="1" transform="matrix(1,0,0,1,0,0)"><path fill="url(#__lottie_element_40784)" fill-opacity="1" d=" M-128.53599548339844,-88.97200012207031 C-143.75,-80.5 -177.25,-96 -195.25,-85.0719985961914 C-186,-53.25 -148.5,-71 -151.43600463867188,-33.25 C-137,-44.5 -124.15799713134766,-67.76300048828125 -118.10600280761719,-76.72699737548828 C-112.05400085449219,-85.69100189208984 -120.4000015258789,-93.50199890136719 -128.53599548339844,-88.97200012207031z"/></g><g opacity="1" transform="matrix(1,0,0,1,0,0)"><path stroke-linecap="round" stroke-linejoin="round" fill-opacity="0" stroke="rgb(59,73,16)" stroke-opacity="1" stroke-width="6" d=" M-14.876999855041504,119.02300262451172 C-14.164999961853027,127.5719985961914 -23.187000274658203,135.64599609375 -31.253000259399414,134.38299560546875 C-65.71499633789062,128.98599243164062 -77.86199951171875,122.18399810791016 -97.91300201416016,107.90499877929688 C-153.33200073242188,68.43900299072266 -152.21600341796875,-0.8569999933242798 -151.47799682617188,-41.78200149536133 C-152.00999450683594,-68.13200378417969 -184.4290008544922,-55.04199981689453 -194.8780059814453,-82.58799743652344"/></g></g><g style="display: block;" transform="matrix(1,0,0,1,266,236)" opacity="1"><g opacity="1" transform="matrix(1,0,0,1,0,0)"><path fill="rgb(142,161,54)" fill-opacity="1" d=" M-153.5,-84.5 C-159,-88.5 -186.95599365234375,-85.8270034790039 -186,-77.5 C-182.5,-47 -178,-95.5 -180.5,-82 C-183.531005859375,-65.63500213623047 -133.6739959716797,-71.04299926757812 -134,-78 C-135.5,-110 -148,-80.5 -153.5,-84.5z"/></g><g opacity="1" transform="matrix(1,0,0,1,0,0)"><path fill="rgb(142,161,54)" fill-opacity="1" d=" M-153.5,-84.5 C-159,-88.5 -187.3780059814453,-85.76699829101562 -186,-77.5 C-185,-71.5 -177.5,-86.5 -177.5,-83.5 C-177.5,-65.88600158691406 -141,-72 -137.5,-76.5 C-132.35400390625,-83.11599731445312 -135.5,-85 -136,-93"/><path stroke-linecap="round" stroke-linejoin="miter" fill-opacity="0" stroke-miterlimit="4" stroke="rgb(59,73,16)" stroke-opacity="1" stroke-width="6" d=" M-153.5,-84.5 C-159,-88.5 -187.3780059814453,-85.76699829101562 -186,-77.5 C-185,-71.5 -177.5,-86.5 -177.5,-83.5 C-177.5,-65.88600158691406 -141,-72 -137.5,-76.5 C-132.35400390625,-83.11599731445312 -135.5,-85 -136,-93"/></g><g opacity="1" transform="matrix(1,0,0,1,0,0)"><path fill="rgb(12,17,0)" fill-opacity="1" d=" M-171.75,-92.25 C-171,-85.25 -175.5,-88 -173.5,-75.75 C-172.31500244140625,-68.49299621582031 -141,-71 -139.343994140625,-76.88200378417969 C-136.34500122070312,-87.53299713134766 -144.75,-94 -152,-98 C-161.10499572753906,-103.02300262451172 -173.0019989013672,-103.93599700927734 -171.75,-92.25z"/><path stroke-linecap="butt" stroke-linejoin="miter" fill-opacity="0" stroke-miterlimit="4" stroke="rgb(59,73,16)" stroke-opacity="1" stroke-width="6" d=" M-171.75,-92.25 C-171,-85.25 -175.5,-88 -173.5,-75.75 C-172.31500244140625,-68.49299621582031 -141,-71 -139.343994140625,-76.88200378417969 C-136.34500122070312,-87.53299713134766 -144.75,-94 -152,-98 C-161.10499572753906,-103.02300262451172 -173.0019989013672,-103.93599700927734 -171.75,-92.25z"/></g><g opacity="1" transform="matrix(1,0,0,1,0,0)"><path fill="rgb(121,28,39)" fill-opacity="1" d=" M-169.50399780273438,-79.98600006103516 C-168.80799865722656,-78.55899810791016 -148.79200744628906,-78.82099914550781 -149.50399780273438,-81.23600006103516 C-150.98800659179688,-86.26499938964844 -170.73800659179688,-82.51499938964844 -169.50399780273438,-79.98600006103516z"/></g></g><g style="display: block;" transform="matrix(1,0,0,1,256,256)" opacity="1"><g opacity="1" transform="matrix(1,0,0,1,0,0)"><path fill="url(#__lottie_element_40787)" fill-opacity="1" d=" M-110.5,-96.33300018310547 C-108.33300018310547,-117.33300018310547 -114.24199676513672,-137.9149932861328 -153.71600341796875,-135.781005859375 C-177.14599609375,-134.51499938964844 -204.22300720214844,-121.6259994506836 -205.5469970703125,-113.94000244140625 C-206.5260009765625,-108.26000213623047 -206.13999938964844,-92.27799987792969 -203.3990020751953,-87.63400268554688 C-202.41200256347656,-85.96199798583984 -198.98199462890625,-82.86900329589844 -197.0489959716797,-83.86199951171875 C-170.5,-97.5 -140.5,-77.75 -128.677001953125,-90.05400085449219"/><path stroke-linecap="round" stroke-linejoin="round" fill-opacity="0" stroke="rgb(66,94,16)" stroke-opacity="1" stroke-width="6" d=" M-110.5,-96.33300018310547 C-108.33300018310547,-117.33300018310547 -114.24199676513672,-137.9149932861328 -153.71600341796875,-135.781005859375 C-177.14599609375,-134.51499938964844 -204.22300720214844,-121.6259994506836 -205.5469970703125,-113.94000244140625 C-206.5260009765625,-108.26000213623047 -206.13999938964844,-92.27799987792969 -203.3990020751953,-87.63400268554688 C-202.41200256347656,-85.96199798583984 -198.98199462890625,-82.86900329589844 -197.0489959716797,-83.86199951171875 C-170.5,-97.5 -140.5,-77.75 -128.677001953125,-90.05400085449219"/></g><g opacity="1" transform="matrix(1,0,0,1,0,0)"><path fill="url(#__lottie_element_40788)" fill-opacity="1" d=" M-140.1179962158203,-116.98699951171875 C-123.23200225830078,-123.94100189208984 -113.82099914550781,-98.89399719238281 -130.91900634765625,-91.7699966430664 C-146.822998046875,-80.56099700927734 -158.46600341796875,-99.68599700927734 -192.0279998779297,-88.76200103759766 C-179.83799743652344,-97.31099700927734 -168.4010009765625,-97.57499694824219 -167.36399841308594,-101.12000274658203 C-166.1020050048828,-105.43599700927734 -173.10499572753906,-113.33799743652344 -168.9149932861328,-116.6969985961914 C-164.95599365234375,-119.87000274658203 -158.24899291992188,-109.52100372314453 -140.1179962158203,-116.98699951171875z"/></g><g opacity="1" transform="matrix(1,0,0,1,0,0)"><path stroke-linecap="round" stroke-linejoin="round" fill-opacity="0" stroke="rgb(59,73,16)" stroke-opacity="1" stroke-width="6" d=" M-205.33299255371094,-112.66699981689453 C-205.33299255371094,-112.66699981689453 -196.66700744628906,-113 -196.66700744628906,-113"/></g><g opacity="1" transform="matrix(1,0,0,1,0,0)"><path stroke-linecap="round" stroke-linejoin="round" fill-opacity="0" stroke="rgb(59,73,16)" stroke-opacity="1" stroke-width="6" d=" M-205.39599609375,-112.66699981689453 C-205.39599609375,-112.66699981689453 -205.41700744628906,-112.75 -205.41700744628906,-112.75"/></g><g opacity="1" transform="matrix(1,0,0,1,0,0)"><path stroke-linecap="round" stroke-linejoin="round" fill-opacity="0" stroke="rgb(59,73,16)" stroke-opacity="1" stroke-width="6" d=" M-128.5780029296875,-89.7750015258789 C-144.4010009765625,-77.24299621582031 -163.31900024414062,-98.16000366210938 -195.927001953125,-84.05400085449219 C-198.26600646972656,-83.04199981689453 -202.10400390625,-85.44000244140625 -203.3990020751953,-87.63400268554688"/></g><g opacity="0.5" transform="matrix(1,0,0,1,0,0)"><path fill="url(#__lottie_element_40789)" fill-opacity="1" d=" M-207.41400146484375,-106.59300231933594 C-207.17300415039062,-108.24500274658203 -205.69000244140625,-110.0739974975586 -203.27099609375,-111.94400024414062 C-188.76600646972656,-123.15399932861328 -140.5800018310547,-135.8509979248047 -124.25399780273438,-120.87300109863281 C-112.16699981689453,-109.78399658203125 -116.21499633789062,-81 -116.21499633789062,-81 C-98.68299865722656,-118.36699676513672 -116.44599914550781,-143.1929931640625 -166.64999389648438,-134.65899658203125 C-201.35899353027344,-128.75900268554688 -208.1219940185547,-117.7030029296875 -207.41400146484375,-106.59300231933594z"/></g><g opacity="1" transform="matrix(1,0,0,1,0,0)"><path stroke-linecap="round" stroke-linejoin="round" fill-opacity="0" stroke="rgb(66,94,16)" stroke-opacity="1" stroke-width="6" d=" M-203.3990020751953,-87.63400268554688 C-206.13999938964844,-92.27799987792969 -206.5260009765625,-108.26000213623047 -205.5469970703125,-113.94000244140625 C-204.22300720214844,-121.6259994506836 -177.14599609375,-134.51499938964844 -153.71600341796875,-135.781005859375 C-98.0469970703125,-138.7899932861328 -109.93499755859375,-95.79100036621094 -114.45500183105469,-78.78800201416016"/></g><g opacity="1" transform="matrix(1,0,0,1,0,0)"><g opacity="1" transform="matrix(1,0,0,1,0,0)"><path fill="rgb(139,158,53)" fill-opacity="1" d=" M-120.55000305175781,-74.51399993896484 C-113.66300201416016,-84.01300048828125 -106.7770004272461,-94.2229995727539 -108.4020004272461,-101.50399780273438 C-102.02799987792969,-89.71099853515625 -107.2509994506836,-79.5009994506836 -108.51899719238281,-64.41500091552734 C-110.89800262451172,-60.007999420166016 -112.23799896240234,-57.88999938964844 -115.08799743652344,-54.090999603271484"/><path stroke-linecap="round" stroke-linejoin="round" fill-opacity="0" stroke="rgb(67,96,25)" stroke-opacity="1" stroke-width="6" d=" M-120.55000305175781,-74.51399993896484 C-113.66300201416016,-84.01300048828125 -106.7770004272461,-94.2229995727539 -108.4020004272461,-101.50399780273438 C-102.02799987792969,-89.71099853515625 -107.2509994506836,-79.5009994506836 -108.51899719238281,-64.41500091552734 C-110.89800262451172,-60.007999420166016 -112.23799896240234,-57.88999938964844 -115.08799743652344,-54.090999603271484"/></g><g opacity="0.5" transform="matrix(1,0,0,1,0,0)"><path fill="url(#__lottie_element_40790)" fill-opacity="1" d=" M-108.31999969482422,-88.0199966430664 C-108.44999694824219,-83.51599884033203 -109.59700012207031,-78.11900329589844 -109.98999786376953,-75.58999633789062 C-117.48999786376953,-62.380001068115234 -133.16000366210938,-48.5 -129.08999633789062,-54.61000061035156 C-124.72000122070312,-61.189998626708984 -121.06999969482422,-67.37999725341797 -118.13999938964844,-72.72000122070312 C-118.13999938964844,-72.72000122070312 -111.60299682617188,-81.427001953125 -108.31999969482422,-88.0199966430664z"/></g></g></g><g style="display: block;" transform="matrix(1,0,0,1,256,256)" opacity="1"><g opacity="1" transform="matrix(1,0,0,1,0,0)"><path fill="rgb(217,221,128)" fill-opacity="1" d=" M-142,-117.33300018310547 C-142,-109.23300170898438 -147.82000732421875,-102.66699981689453 -155,-102.66699981689453 C-162.17999267578125,-102.66699981689453 -168,-109.23300170898438 -168,-117.33300018310547 C-168,-125.43299865722656 -162.17999267578125,-132 -155,-132 C-147.82000732421875,-132 -142,-125.43299865722656 -142,-117.33300018310547z"/></g><g opacity="1" transform="matrix(1,0,0,1,0,0)"><path fill="rgb(16,17,6)" fill-opacity="1" d=" M-142,-118.33300018310547 C-142,-110.78500366210938 -147.82000732421875,-104.66699981689453 -155,-104.66699981689453 C-162.17999267578125,-104.66699981689453 -168,-110.78500366210938 -168,-118.33300018310547 C-168,-125.88099670410156 -162.17999267578125,-132 -155,-132 C-147.82000732421875,-132 -142,-125.88099670410156 -142,-118.33300018310547z"/></g><g opacity="1" transform="matrix(1,0,0,1,0,0)"><path fill="url(#__lottie_element_40793)" fill-opacity="1" d=" M-147.75,-123.43800354003906 C-147.75,-121.4010009765625 -149.4010009765625,-119.75 -151.43800354003906,-119.75 C-153.47500610351562,-119.75 -155.125,-121.4010009765625 -155.125,-123.43800354003906 C-155.125,-125.4749984741211 -153.47500610351562,-127.125 -151.43800354003906,-127.125 C-149.4010009765625,-127.125 -147.75,-125.4749984741211 -147.75,-123.43800354003906z"/></g><g opacity="1" transform="matrix(1,0,0,1,0,0)"><path fill="url(#__lottie_element_40794)" fill-opacity="1" d=" M-163.5,-115.447998046875 C-163.5,-111.34200286865234 -159.51400756835938,-108.01300048828125 -154.5970001220703,-108.01300048828125 C-149.67999267578125,-108.01300048828125 -145.69500732421875,-111.34200286865234 -145.69500732421875,-115.447998046875 C-145.69500732421875,-119.55400085449219 -149.62899780273438,-115.01499938964844 -154.54600524902344,-115.01499938964844 C-159.46299743652344,-115.01499938964844 -163.5,-119.55400085449219 -163.5,-115.447998046875z"/></g><g opacity="0" transform="matrix(1,0,0,1,0,0)"><path fill="rgb(255,255,255)" fill-opacity="1" d=" M-144.90499877929688,-123.60600280761719 C-144.90499877929688,-121.625 -146.38999938964844,-120.00900268554688 -148.64599609375,-120.00900268554688 C-150.531005859375,-120.00900268554688 -152.0590057373047,-121.61499786376953 -152.0590057373047,-123.59600067138672 C-152.0590057373047,-125.5770034790039 -150.531005859375,-127.18399810791016 -148.64599609375,-127.18399810791016 C-146.76100158691406,-127.18399810791016 -144.90499877929688,-125.58699798583984 -144.90499877929688,-123.60600280761719z"/></g></g><g style="display: block;" transform="matrix(1,0,0,1,256,256)" opacity="1"><g opacity="1" transform="matrix(1,0,0,1,0,0)"><path fill="url(#__lottie_element_40770)" fill-opacity="1" d=" M-60.275001525878906,126.78800201416016 C-27.256999969482422,162.74200439453125 88.18499755859375,161.52999877929688 122.37999725341797,138.10000610351562 C101.10099792480469,111.29100036621094 -0.7549999952316284,87.83300018310547 -34.9630012512207,87.17400360107422 C-18.027999877929688,103.51599884033203 -41.099998474121094,137.09300231933594 -60.275001525878906,126.78800201416016z"/><path stroke-linecap="round" stroke-linejoin="round" fill-opacity="0" stroke="rgb(27,43,27)" stroke-opacity="1" stroke-width="6" d=" M-60.275001525878906,126.78800201416016 C-27.256999969482422,162.74200439453125 88.18499755859375,161.52999877929688 122.37999725341797,138.10000610351562 C101.10099792480469,111.29100036621094 -0.7549999952316284,87.83300018310547 -34.9630012512207,87.17400360107422 C-18.027999877929688,103.51599884033203 -41.099998474121094,137.09300231933594 -60.275001525878906,126.78800201416016z"/></g><g opacity="0" transform="matrix(1,0,0,1,0,0)"><path fill="rgb(80,124,71)" fill-opacity="1" d=" M11.36299991607666,108.36000061035156 C-3.5199999809265137,127.48100280761719 -24.829999923706055,140.70799255371094 -32.60499954223633,139.56500244140625 C-32.667999267578125,139.48300170898438 -32.667999267578125,139.97300720214844 -32.625999450683594,139.73199462890625 C-22.625999450683594,140.46299743652344 -0.3370000123977661,123.31700134277344 12.631999969482422,108.78099822998047 C15.75100040435791,108.78099822998047 14.482000350952148,110.8290023803711 11.36299991607666,108.36000061035156z"/></g></g><g style="display: block;" transform="matrix(0.6733999848365784,0,0,0.8514299988746643,282.4432067871094,245.811767578125)" opacity="1"><g opacity="1" transform="matrix(1,0,0,1,-72,162)"><path fill="rgb(24,38,12)" fill-opacity="1" d=" M0,-21 C15.72914981842041,-21 28.5,-11.589900016784668 28.5,0 C28.5,11.589900016784668 15.72914981842041,21 0,21 C-15.72914981842041,21 -28.5,11.589900016784668 -28.5,0 C-28.5,-11.589900016784668 -15.72914981842041,-21 0,-21z"/><path stroke-linecap="butt" stroke-linejoin="miter" fill-opacity="0" stroke-miterlimit="4" stroke="rgb(27,43,27)" stroke-opacity="1" stroke-width="7" d=" M0,-21 C15.72914981842041,-21 28.5,-11.589900016784668 28.5,0 C28.5,11.589900016784668 15.72914981842041,21 0,21 C-15.72914981842041,21 -28.5,11.589900016784668 -28.5,0 C-28.5,-11.589900016784668 -15.72914981842041,-21 0,-21z"/></g></g><g style="display: block;" transform="matrix(1,0,0,1,256,256)" opacity="1"><g opacity="1" transform="matrix(1,0,0,1,0,0)"><path fill="url(#__lottie_element_40760)" fill-opacity="1" d=" M-37.6609992980957,206.322998046875 C-30.599000930786133,204.3260040283203 -26.18899917602539,196.88299560546875 -25.44700050354004,189.58200073242188 C-24.548999786376953,180.7469940185547 -26.56399917602539,175.82000732421875 -39.70800018310547,133.0260009765625 C-35.84600067138672,133.7209930419922 -32.82500076293945,134.41400146484375 -30.093000411987305,134.9219970703125 C-22.37700080871582,136.3560028076172 -14.756999969482422,131.26699829101562 -13.631999969482422,123.5 C-10.842000007629395,104.23500061035156 -41.612998962402344,89.76000213623047 -49.566001892089844,88.51300048828125 C-60.49599838256836,86.79900360107422 -83.79499816894531,86.89099884033203 -91.11100006103516,99.50399780273438 C-97.47699737548828,110.47799682617188 -95,117.43900299072266 -86.0719985961914,190.94500732421875"/><path stroke-linecap="round" stroke-linejoin="round" fill-opacity="0" stroke="rgb(74,94,25)" stroke-opacity="1" stroke-width="6" d=" M-37.6609992980957,206.322998046875 C-30.599000930786133,204.3260040283203 -26.18899917602539,196.88299560546875 -25.44700050354004,189.58200073242188 C-24.548999786376953,180.7469940185547 -26.56399917602539,175.82000732421875 -39.70800018310547,133.0260009765625 C-35.84600067138672,133.7209930419922 -32.82500076293945,134.41400146484375 -30.093000411987305,134.9219970703125 C-22.37700080871582,136.3560028076172 -14.756999969482422,131.26699829101562 -13.631999969482422,123.5 C-10.842000007629395,104.23500061035156 -41.612998962402344,89.76000213623047 -49.566001892089844,88.51300048828125 C-60.49599838256836,86.79900360107422 -83.79499816894531,86.89099884033203 -91.11100006103516,99.50399780273438 C-97.47699737548828,110.47799682617188 -95,117.43900299072266 -86.0719985961914,190.94500732421875"/></g><g opacity="1" transform="matrix(1,0,0,1,0,0)"><path fill="url(#__lottie_element_40761)" mask="url(#__lottie_element_40763)" fill-opacity="1" d="M0 0 M-46.58300018310547,89.75 C-49.58300018310547,89.125 -77.95800018310547,83.375 -89.89299774169922,99.33999633789062 C-93.0510025024414,103.56400299072266 -93.6729965209961,107.7699966430664 -93.44300079345703,115.95999908447266 C-82.89299774169922,134.11000061035156 -46.893001556396484,126.7699966430664 -41.62300109863281,125.56999969482422 C-34.45000076293945,123.93800354003906 -18.948999404907227,99.38500213623047 -46.58300018310547,89.75z"/></g><g opacity="0.5" transform="matrix(1,0,0,1,0,0)"><path fill="url(#__lottie_element_40764)" fill-opacity="1" d=" M-29.96500015258789,98.9020004272461 C-29.96500015258789,98.9020004272461 -66.35199737548828,92.31400299072266 -77.34700012207031,105.12899780273438 C-91.4219970703125,121.53399658203125 -83.50599670410156,187.43099975585938 -83.50599670410156,187.43099975585938 C-83.50599670410156,187.43099975585938 -93.6760025024414,128.5290069580078 -92.89900207519531,114.0979995727539 C-92.12200164794922,99.66699981689453 -84.83999633789062,89.70500183105469 -61.83300018310547,89.16699981689453 C-38.82600021362305,88.62899780273438 -29.96500015258789,98.9020004272461 -29.96500015258789,98.9020004272461z"/></g><g opacity="0" transform="matrix(1,0,0,1,0,0)"><path fill="rgb(81,109,34)" fill-opacity="1" d=" M-53.5,81.5 C-74.10800170898438,75.81500244140625 -86,88 -83.5,87.5 C-66,83 -38.5,98 -34.5,106 C-31.697999954223633,111.60399627685547 -39.000999450683594,85.5 -53.5,81.5z"/></g><g opacity="1" transform="matrix(1,0,0,1,0,0)"><path stroke-linecap="round" stroke-linejoin="round" fill-opacity="0" stroke="rgb(59,73,16)" stroke-opacity="1" stroke-width="6" d=" M-35.367000579833984,147.11300659179688 C-35.367000579833984,147.11300659179688 -38.0989990234375,138.26300048828125 -39.70800018310547,133.0260009765625 C-35.84600067138672,133.7209930419922 -32.82500076293945,134.41400146484375 -30.093000411987305,134.9219970703125 C-22.37700080871582,136.3560028076172 -14.756999969482422,131.26699829101562 -13.631999969482422,123.5 C-10.842000007629395,104.23500061035156 -41.612998962402344,89.76000213623047 -49.566001892089844,88.51300048828125 C-60.49599838256836,86.79900360107422 -83.79499816894531,86.89099884033203 -91.11100006103516,99.50399780273438 C-97.47699737548828,110.47799682617188 -95,117.43900299072266 -86.0719985961914,190.94500732421875"/></g><g opacity="1" transform="matrix(1,0,0,1,0,0)"><path fill="url(#__lottie_element_40765)" fill-opacity="1" d=" M-59.36199951171875,183.69400024414062 C-65.06099700927734,182.42799377441406 -81.5260009765625,181.16000366210938 -87.39600372314453,185.00799560546875 C-93.39600372314453,188.9409942626953 -95.6449966430664,199.43099975585938 -94.44599914550781,205.8459930419922 C-74.55999755859375,210.92300415039062 -48.54999923706055,210.6199951171875 -34.66600036621094,205.2239990234375"/><path stroke-linecap="round" stroke-linejoin="round" fill-opacity="0" stroke="rgb(74,94,25)" stroke-opacity="1" stroke-width="6" d=" M-59.36199951171875,183.69400024414062 C-65.06099700927734,182.42799377441406 -81.5260009765625,181.16000366210938 -87.39600372314453,185.00799560546875 C-93.39600372314453,188.9409942626953 -95.6449966430664,199.43099975585938 -94.44599914550781,205.8459930419922 C-74.55999755859375,210.92300415039062 -48.54999923706055,210.6199951171875 -34.66600036621094,205.2239990234375"/></g><g opacity="0" transform="matrix(1,0.000017453292457503267,-0.000017453292457503267,1,0,0)"><path fill="rgb(59,73,16)" fill-opacity="1" d=" M-5.177999973297119,152.11700439453125 C-3.569000005722046,135.6820068359375 -1.309999942779541,113.53299713134766 -13.968999862670898,110.01200103759766 C-24.4950008392334,107.08399963378906 -33.779998779296875,140.33799743652344 -35.016998291015625,145.2030029296875 C-41.202999114990234,169.53199768066406 -31.792999267578125,174.9669952392578 -23.118000030517578,178.7239990234375 C-14.442999839782715,182.4810028076172 -7.238999843597412,173.1719970703125 -5.177999973297119,152.11700439453125z"/><path stroke-linecap="butt" stroke-linejoin="miter" fill-opacity="0" stroke-miterlimit="4" stroke="rgb(74,94,25)" stroke-opacity="1" stroke-width="6" d=" M-5.177999973297119,152.11700439453125 C-3.569000005722046,135.6820068359375 -1.309999942779541,113.53299713134766 -13.968999862670898,110.01200103759766 C-24.4950008392334,107.08399963378906 -33.779998779296875,140.33799743652344 -35.016998291015625,145.2030029296875 C-41.202999114990234,169.53199768066406 -31.792999267578125,174.9669952392578 -23.118000030517578,178.7239990234375 C-14.442999839782715,182.4810028076172 -7.238999843597412,173.1719970703125 -5.177999973297119,152.11700439453125z"/></g></g><g style="display: block;" transform="matrix(1,0,0,1,256,256)" opacity="1"><g opacity="1" transform="matrix(1,0,0,1,0,0)"><path fill="url(#__lottie_element_40754)" fill-opacity="1" d=" M61.112998962402344,195.72500610351562 C61.112998962402344,179.70799255371094 65.02300262451172,164.0050048828125 70.23699951171875,148.9550018310547 C94.90499877929688,77.75599670410156 160.8070068359375,101.78700256347656 143.47300720214844,130.88900756835938 C133.7169952392578,147.2689971923828 137.2779998779297,163.58200073242188 133.14500427246094,199.84100341796875"/><path stroke-linecap="round" stroke-linejoin="round" fill-opacity="0" stroke="rgb(74,94,25)" stroke-opacity="1" stroke-width="6" d=" M61.112998962402344,195.72500610351562 C61.112998962402344,179.70799255371094 65.02300262451172,164.0050048828125 70.23699951171875,148.9550018310547 C94.90499877929688,77.75599670410156 160.8070068359375,101.78700256347656 143.47300720214844,130.88900756835938 C133.7169952392578,147.2689971923828 137.2779998779297,163.58200073242188 133.14500427246094,199.84100341796875"/></g><g opacity="0.8" transform="matrix(1,0,0,1,0,0)"><path fill="url(#__lottie_element_40755)" fill-opacity="1" d=" M134.41700744628906,162.71200561523438 C127.68800354003906,146.21499633789062 88.88400268554688,139.8070068359375 66.31900024414062,163.41299438476562 C88.3550033569336,72.11799621582031 164.86099243164062,100.30599975585938 142.3280029296875,133.50900268554688 C137.23599243164062,141.01199340820312 137.427001953125,154.031005859375 134.41700744628906,162.71200561523438z"/></g><g opacity="1" transform="matrix(1,0,0,1,0,0)"><path stroke-linecap="round" stroke-linejoin="round" fill-opacity="0" stroke="rgb(59,73,16)" stroke-opacity="1" stroke-width="6" d=" M143.47300720214844,130.88900756835938 C133.7169952392578,147.2689971923828 137.2779998779297,163.58200073242188 133.14500427246094,199.84100341796875"/></g><g opacity="1" transform="matrix(1,0,0,1,0,0)"><path fill="url(#__lottie_element_40756)" fill-opacity="1" d=" M94.51699829101562,196.99200439453125 C78.0530014038086,194.45899963378906 67.81500244140625,189.9239959716797 61.5880012512207,191.92599487304688 C54.34700012207031,194.25399780273438 52.37799835205078,201.13900756835938 50.50600051879883,205.2239990234375 C67.6709976196289,208.77999877929688 132.5,214.5 133.5290069580078,197.30799865722656"/><path stroke-linecap="round" stroke-linejoin="round" fill-opacity="0" stroke="rgb(74,94,25)" stroke-opacity="1" stroke-width="6" d=" M94.51699829101562,196.99200439453125 C78.0530014038086,194.45899963378906 67.81500244140625,189.9239959716797 61.5880012512207,191.92599487304688 C54.34700012207031,194.25399780273438 52.37799835205078,201.13900756835938 50.50600051879883,205.2239990234375 C67.6709976196289,208.77999877929688 132.5,214.5 133.5290069580078,197.30799865722656"/></g></g><g style="display: block;" transform="matrix(1,0,0,1,256,256)" opacity="1"><g opacity="1" transform="matrix(1,0,0,1,0,0)"><g opacity="1" transform="matrix(1,0,0,1,0,0)"><path fill="url(#__lottie_element_40733)" fill-opacity="1" d=" M174.1479949951172,89.33899688720703 C127.12899780273438,-86.38800048828125 -17.250999450683594,-50.766998291015625 -93.71600341796875,-5.172999858856201 C-57.92100143432617,117.9540023803711 109.12000274658203,191.10499572753906 174.1479949951172,89.33899688720703z"/><path stroke-linecap="round" stroke-linejoin="round" fill-opacity="0" stroke="rgb(43,76,41)" stroke-opacity="1" stroke-width="6" d=" M174.1479949951172,89.33899688720703 C127.12899780273438,-86.38800048828125 -17.250999450683594,-50.766998291015625 -93.71600341796875,-5.172999858856201 C-57.92100143432617,117.9540023803711 109.12000274658203,191.10499572753906 174.1479949951172,89.33899688720703z"/></g><g opacity="1" transform="matrix(1,0,0,1,0,0)"><g opacity="1" transform="matrix(1,0,0,1,0,0)"><path fill="url(#__lottie_element_40734)" fill-opacity="1" d=" M61.665000915527344,-41.98699951171875 C55.08399963378906,-26.969999313354492 48.22200012207031,-12.74899959564209 41.64099884033203,2.2679998874664307 C31.826000213623047,1.9509999752044678 22.643999099731445,3.8510000705718994 12.75,5.104000091552734 C-1.1030000448226929,-8.498000144958496 -11.552000045776367,-25.1200008392334 -15.826000213623047,-39.36800003051758 C10.13700008392334,-46.96699905395508 34.57400131225586,-48.196998596191406 61.665000915527344,-41.98699951171875z"/></g><g opacity="1" transform="matrix(1,0,0,1,0,0)"><path fill="url(#__lottie_element_40735)" fill-opacity="1" d=" M-3.861999988555908,-15.572999954223633 C-3.861999988555908,-15.572999954223633 -6.914000034332275,-32.882999420166016 -6.001999855041504,-33.612998962402344 C-5.090000152587891,-34.34299850463867 22.38599967956543,-42.590999603271484 50.75,-35.255001068115234 C52.8849983215332,-34.702999114990234 47.611000061035156,-10.414999961853027 47.611000061035156,-10.414999961853027 C47.611000061035156,-10.414999961853027 60.79499816894531,-38.32500076293945 60.54600143432617,-41.194000244140625 C41,-47 15,-50 -15.777999877929688,-39.95500183105469 C-15.777999877929688,-39.95500183105469 -3.861999988555908,-15.572999954223633 -3.861999988555908,-15.572999954223633z"/></g><g opacity="1" transform="matrix(1,0,0,1,0,0)"><path stroke-linecap="round" stroke-linejoin="round" fill-opacity="0" stroke="rgb(51,89,47)" stroke-opacity="1" stroke-width="6" d=" M61.665000915527344,-41.98699951171875 C55.08399963378906,-26.969999313354492 48.22200012207031,-12.74899959564209 41.64099884033203,2.2679998874664307 C31.826000213623047,1.9509999752044678 22.643999099731445,3.8510000705718994 12.75,5.104000091552734 C-1.1030000448226929,-8.498000144958496 -11.552000045776367,-25.1200008392334 -15.826000213623047,-39.36800003051758 C10.13700008392334,-46.96699905395508 34.57400131225586,-48.196998596191406 61.665000915527344,-41.98699951171875z"/></g><g opacity="1" transform="matrix(1,0,0,1,0,0)"><path stroke-linecap="round" stroke-linejoin="round" fill-opacity="0" stroke="rgb(42,71,39)" stroke-opacity="1" stroke-width="6" d=" M61.665000915527344,-41.98699951171875 C55.08399963378906,-26.969999313354492 48.22200012207031,-12.74899959564209 41.64099884033203,2.2679998874664307 C31.826000213623047,1.9509999752044678 22.643999099731445,3.8510000705718994 12.75,5.104000091552734"/></g></g><g opacity="1" transform="matrix(1,0,0,1,0,0)"><g opacity="1" transform="matrix(1,0,0,1,0,0)"><path fill="url(#__lottie_element_40736)" fill-opacity="1" d=" M125.70500183105469,-4.697999954223633 C111.46299743652344,-23.427000045776367 91.66699981689453,-35.72700119018555 69.18699645996094,-39.84299850463867 C64.052001953125,-26.31999969482422 56.6609992980957,-12.057999610900879 51.5260009765625,1.465000033378601 C61.37300109863281,8.430999755859375 70.88700103759766,16.142000198364258 79.00299835205078,25.065000534057617 C99.9000015258789,23.165000915527344 116.822998046875,13.385000228881836 125.70500183105469,-4.697999954223633z"/></g><g opacity="1" transform="matrix(1,0,0,1,0,0)"><path fill="url(#__lottie_element_40737)" fill-opacity="1" d=" M57.654998779296875,-14.62399959564209 C57.654998779296875,-14.62399959564209 70.33999633789062,-30.459999084472656 72.35900115966797,-31.277999877929688 C75.05000305175781,-32.36899948120117 105.0260009765625,-21.542999267578125 116.08799743652344,-4.210999965667725 C116.82599639892578,-3.055000066757202 111.16000366210938,11.732999801635742 98.27200317382812,20.309999465942383 C98.27200317382812,20.309999465942383 121.96900177001953,9.97599983215332 124.79199981689453,-6.2179999351501465 C124.79199981689453,-6.2179999351501465 100.43199920654297,-39.65800094604492 68.79900360107422,-40.43299865722656 C68.79900360107422,-40.43299865722656 57.654998779296875,-14.62399959564209 57.654998779296875,-14.62399959564209z"/></g><g opacity="1" transform="matrix(1,0,0,1,0,0)"><path stroke-linecap="round" stroke-linejoin="round" fill-opacity="0" stroke="rgb(51,89,47)" stroke-opacity="1" stroke-width="6" d=" M125.70500183105469,-4.697999954223633 C111.46299743652344,-23.427000045776367 91.66699981689453,-35.72700119018555 69.18699645996094,-39.84299850463867 C64.052001953125,-26.31999969482422 56.6609992980957,-12.057999610900879 51.5260009765625,1.465000033378601 C61.37300109863281,8.430999755859375 70.88700103759766,16.142000198364258 79.00299835205078,25.065000534057617 C99.9000015258789,23.165000915527344 116.822998046875,13.385000228881836 125.70500183105469,-4.697999954223633z"/></g><g opacity="1" transform="matrix(1,0,0,1,0,0)"><path stroke-linecap="round" stroke-linejoin="round" fill-opacity="0" stroke="rgb(42,71,39)" stroke-opacity="1" stroke-width="6" d=" M51.5260009765625,1.465000033378601 C61.37300109863281,8.430999755859375 70.88700103759766,16.142000198364258 79.00299835205078,25.065000534057617 C99.9000015258789,23.165000915527344 116.822998046875,13.385000228881836 125.70500183105469,-4.697999954223633"/></g></g><g opacity="1" transform="matrix(1,0,0,1,0,0)"><g opacity="1" transform="matrix(1,0,0,1,0,0)"><path fill="url(#__lottie_element_40738)" fill-opacity="1" d=" M166.5489959716797,60.36800003051758 C160.58200073242188,35.09400177001953 151.15899658203125,20.197999954223633 132.95199584960938,1.680999994277954 C130.29400634765625,8.678999900817871 127.12999725341797,13.350000381469727 120.83899688720703,19.77400016784668 C135.4459991455078,43.060001373291016 144.1750030517578,62.36199951171875 149.45199584960938,89.33899688720703 C156.56199645996094,81.36000061035156 162.44200134277344,70.23400115966797 166.5489959716797,60.36800003051758z"/></g><g opacity="0.5" transform="matrix(1,0,0,1,0,0)"><path stroke-linecap="round" stroke-linejoin="round" fill-opacity="0" stroke="rgb(197,247,148)" stroke-opacity="1" stroke-width="6" d=" M134.27499389648438,3.2360000610351562 C134.27499389648438,3.2360000610351562 133.85000610351562,8.411999702453613 125.79399871826172,17.999000549316406 C125.79399871826172,17.999000549316406 132.45199584960938,34.00600051879883 136.302001953125,47.314998626708984"/></g><g opacity="1" transform="matrix(1,0,0,1,0,0)"><path stroke-linecap="round" stroke-linejoin="round" fill-opacity="0" stroke="rgb(44,76,40)" stroke-opacity="1" stroke-width="6" d=" M166.5489959716797,60.36800003051758 C160.58200073242188,35.09400177001953 151.15899658203125,20.197999954223633 132.95199584960938,1.680999994277954 C130.29400634765625,8.678999900817871 127.12999725341797,13.350000381469727 120.83899688720703,19.77400016784668 C135.4459991455078,43.060001373291016 144.1750030517578,62.36199951171875 149.45199584960938,89.33899688720703"/></g><g opacity="1" transform="matrix(1,0,0,1,0,0)"><path stroke-linecap="round" stroke-linejoin="round" fill-opacity="0" stroke="rgb(35,61,33)" stroke-opacity="1" stroke-width="6" d=" M149.45199584960938,89.33899688720703 C156.56199645996094,81.36000061035156 162.44200134277344,70.23400115966797 166.5489959716797,60.36800003051758"/></g></g><g opacity="1" transform="matrix(1,0,0,1,0,0)"><g opacity="1" transform="matrix(1,0,0,1,0,0)"><path fill="url(#__lottie_element_40739)" fill-opacity="1" d=" M138.5279998779297,97.41300201416016 C120.01599884033203,113.93900299072266 97.68399810791016,116.41100311279297 73.46199798583984,113.56099700927734 C75.98799896240234,85.21700286865234 74.5770034790039,61.95800018310547 77.10299682617188,33.61399841308594 C88.0459976196289,33.263999938964844 101.4489974975586,29.214000701904297 111.24800109863281,24.329999923706055 C126.81300354003906,46.595001220703125 133.86399841308594,70.03700256347656 138.5279998779297,97.41300201416016z"/><path stroke-linecap="round" stroke-linejoin="round" fill-opacity="0" stroke="rgb(39,63,36)" stroke-opacity="1" stroke-width="6" d=" M138.5279998779297,97.41300201416016 C120.01599884033203,113.93900299072266 97.68399810791016,116.41100311279297 73.46199798583984,113.56099700927734 C75.98799896240234,85.21700286865234 74.5770034790039,61.95800018310547 77.10299682617188,33.61399841308594 C88.0459976196289,33.263999938964844 101.4489974975586,29.214000701904297 111.24800109863281,24.329999923706055 C126.81300354003906,46.595001220703125 133.86399841308594,70.03700256347656 138.5279998779297,97.41300201416016z"/></g><g opacity="0.5" transform="matrix(1,0,0,1,0,0)"><path stroke-linecap="round" stroke-linejoin="round" fill-opacity="0" stroke="rgb(197,247,148)" stroke-opacity="1" stroke-width="6" d=" M76.75,45.75 C76.75,45.75 79.94000244140625,37.16899871826172 79.94000244140625,37.16899871826172 C79.94000244140625,37.16899871826172 97.78500366210938,34.56800079345703 112,27"/></g><g opacity="1" transform="matrix(1,0,0,1,0,0)"><path stroke-linecap="round" stroke-linejoin="round" fill-opacity="0" stroke="rgb(44,76,40)" stroke-opacity="1" stroke-width="6" d=" M73.46199798583984,113.56099700927734 C75.98799896240234,85.21700286865234 74.5770034790039,61.95800018310547 77.10299682617188,33.61399841308594 C88.0459976196289,33.263999938964844 101.4489974975586,29.214000701904297 111.24800109863281,24.329999923706055 C112.427001953125,26.016000747680664 113.55699920654297,27.708999633789062 114.64099884033203,29.40999984741211"/></g></g><g opacity="1" transform="matrix(1,0,0,1,0,0)"><g opacity="1" transform="matrix(1,0,0,1,0,0)"><path fill="url(#__lottie_element_40740)" fill-opacity="1" d=" M66.33799743652344,26.648000717163086 C62.08399963378906,21.035999298095703 49.12200164794922,10.253000259399414 46.38999938964844,10.182999610900879 C40.215999603271484,10.024999618530273 19.95199966430664,12.875 17.57699966430664,14.932999610900879 C0.9200000166893005,29.368999481201172 -15.022000312805176,49.48899841308594 -23.424999237060547,69.86699676513672 C-1.3559999465942383,94.31300354003906 21.694000244140625,107.38800048828125 58.73899841308594,111.18699645996094 C61.055999755859375,82.47899627685547 64.02100372314453,55.35599899291992 66.33799743652344,26.648000717163086z"/><path stroke-linecap="round" stroke-linejoin="round" fill-opacity="0" stroke="rgb(39,63,36)" stroke-opacity="1" stroke-width="6" d=" M66.33799743652344,26.648000717163086 C62.08399963378906,21.035999298095703 49.12200164794922,10.253000259399414 46.38999938964844,10.182999610900879 C40.215999603271484,10.024999618530273 19.95199966430664,12.875 17.57699966430664,14.932999610900879 C0.9200000166893005,29.368999481201172 -15.022000312805176,49.48899841308594 -23.424999237060547,69.86699676513672 C-1.3559999465942383,94.31300354003906 21.694000244140625,107.38800048828125 58.73899841308594,111.18699645996094 C61.055999755859375,82.47899627685547 64.02100372314453,55.35599899291992 66.33799743652344,26.648000717163086z"/></g><g opacity="0.5" transform="matrix(1,0,0,1,0,0)"><path stroke-linecap="round" stroke-linejoin="round" fill-opacity="0" stroke="rgb(197,247,148)" stroke-opacity="1" stroke-width="6" d=" M18,15.5 C18,15.5 42.691001892089844,14.187999725341797 45.5,14.75 C48.308998107910156,15.312000274658203 65,27.75 65,27.75"/></g><g opacity="1" transform="matrix(1,0,0,1,0,0)"><path stroke-linecap="round" stroke-linejoin="round" fill-opacity="0" stroke="rgb(44,76,40)" stroke-opacity="1" stroke-width="6" d=" M-23.424999237060547,69.86699676513672 C-15.022000312805176,49.48899841308594 0.9200000166893005,29.368999481201172 17.57699966430664,14.932999610900879 C19.95199966430664,12.875 40.215999603271484,10.024999618530273 46.38999938964844,10.182999610900879 C49.12200164794922,10.253000259399414 62.08399963378906,21.035999298095703 66.33799743652344,26.648000717163086 C66.33799743652344,26.648000717163086 66,30.75 66,30.75"/></g></g><g opacity="1" transform="matrix(1,0,0,1,0,0)"><g opacity="1" transform="matrix(1,0,0,1,0,0)"><path fill="url(#__lottie_element_40741)" fill-opacity="1" d=" M6.178999900817871,12.715999603271484 C-8.670000076293945,27.392000198364258 -22.215999603271484,41.19200134277344 -31.499000549316406,59.893001556396484 C-47.6619987487793,47.39099884033203 -56.5989990234375,32.12200164794922 -65.69499969482422,13.824999809265137 C-50.73699951171875,-1.187000036239624 -35.77299880981445,-8.496999740600586 -16.851999282836914,-16.783000946044922 C-9.177000045776367,-6.123000144958496 -3.003000020980835,2.4260001182556152 6.178999900817871,12.715999603271484z"/><path stroke-linecap="round" stroke-linejoin="round" fill-opacity="0" stroke="rgb(39,63,36)" stroke-opacity="1" stroke-width="6" d=" M6.178999900817871,12.715999603271484 C-8.670000076293945,27.392000198364258 -22.215999603271484,41.19200134277344 -31.499000549316406,59.893001556396484 C-47.6619987487793,47.39099884033203 -56.5989990234375,32.12200164794922 -65.69499969482422,13.824999809265137 C-50.73699951171875,-1.187000036239624 -35.77299880981445,-8.496999740600586 -16.851999282836914,-16.783000946044922 C-9.177000045776367,-6.123000144958496 -3.003000020980835,2.4260001182556152 6.178999900817871,12.715999603271484z"/></g><g opacity="0.5" transform="matrix(1,0,0,1,0,0)"><path stroke-linecap="round" stroke-linejoin="round" fill-opacity="0" stroke="rgb(197,247,148)" stroke-opacity="1" stroke-width="6" d=" M-36.5,-6.75 C-36.5,-6.75 -18.5,-11.5 -18.5,-11.5 C-18.5,-11.5 3.5,14.25 3.5,14.25"/></g><g opacity="1" transform="matrix(1,0,0,1,0,0)"><path stroke-linecap="round" stroke-linejoin="round" fill-opacity="0" stroke="rgb(43,76,41)" stroke-opacity="1" stroke-width="6" d=" M-65.69499969482422,13.824999809265137 C-50.73699951171875,-1.187000036239624 -35.77299880981445,-8.496999740600586 -16.851999282836914,-16.783000946044922 C-9.177000045776367,-6.123000144958496 -3.003000020980835,2.4260001182556152 6.178999900817871,12.715999603271484 C4.750999927520752,14.128000259399414 3.3350000381469727,15.531999588012695 1.9329999685287476,16.933000564575195"/></g></g><g opacity="1" transform="matrix(1,0,0,1,0,0)"><g opacity="1" transform="matrix(1,0,0,1,0,0)"><path fill="url(#__lottie_element_40742)" fill-opacity="1" d=" M-25.325000762939453,-37.46900177001953 C-24.25,-33.34400177001953 -21.35300064086914,-27.73200035095215 -20.277999877929688,-23.60700035095215 C-38.14799880981445,-17.04599952697754 -53.94300079345703,-7.9770002365112305 -69.96900177001953,5.276000022888184 C-75.06500244140625,-0.8360000252723694 -77.66899871826172,-7.692999839782715 -78.01899719238281,-15.642000198364258 C-60.314998626708984,-26.430999755859375 -45.28799819946289,-31.871999740600586 -25.325000762939453,-37.46900177001953z"/><path stroke-linecap="round" stroke-linejoin="round" fill-opacity="0" stroke="rgb(39,63,36)" stroke-opacity="1" stroke-width="6" d=" M-25.325000762939453,-37.46900177001953 C-24.25,-33.34400177001953 -21.35300064086914,-27.73200035095215 -20.277999877929688,-23.60700035095215 C-38.14799880981445,-17.04599952697754 -53.94300079345703,-7.9770002365112305 -69.96900177001953,5.276000022888184 C-75.06500244140625,-0.8360000252723694 -77.66899871826172,-7.692999839782715 -78.01899719238281,-15.642000198364258 C-60.314998626708984,-26.430999755859375 -45.28799819946289,-31.871999740600586 -25.325000762939453,-37.46900177001953z"/></g><g opacity="0.5" transform="matrix(1,0,0,1,0,0)"><path stroke-linecap="round" stroke-linejoin="round" fill-opacity="0" stroke="rgb(197,247,148)" stroke-opacity="1" stroke-width="6" d=" M-51.16699981689453,-29.826000213623047 C-51.16699981689453,-29.826000213623047 -28.538999557495117,-33.11899948120117 -28.538999557495117,-33.11899948120117 C-28.538999557495117,-33.11899948120117 -23.92799949645996,-22.891000747680664 -23.92799949645996,-22.891000747680664"/></g><g opacity="1" transform="matrix(1,0,0,1,0,0)"><path stroke-linecap="round" stroke-linejoin="round" fill-opacity="0" stroke="rgb(43,76,41)" stroke-opacity="1" stroke-width="6" d=" M-78.01899719238281,-15.642000198364258 C-60.314998626708984,-26.430999755859375 -45.28799819946289,-31.871999740600586 -25.325000762939453,-37.46900177001953 C-24.25,-33.34400177001953 -21.35300064086914,-27.73200035095215 -20.277999877929688,-23.60700035095215 C-22.583999633789062,-22.760000228881836 -24.85700035095215,-21.871999740600586 -27.099000930786133,-20.937999725341797"/></g></g><g opacity="1" transform="matrix(1,0,0,1,0,0)"><g opacity="1" transform="matrix(1,0,0,1,0,0)"><path stroke-linecap="round" stroke-linejoin="round" fill-opacity="0" stroke="rgb(35,61,33)" stroke-opacity="1" stroke-width="23" d=" M-94.66600036621094,-15.147000312805176 C-60.94499969482422,135.17100524902344 140.9029998779297,190.50100708007812 179.84800720214844,69.39199829101562"/><path stroke-linecap="round" stroke-linejoin="round" fill-opacity="0" stroke="rgb(43,102,57)" stroke-opacity="1" stroke-width="11" d=" M-94.66600036621094,-15.147000312805176 C-60.94499969482422,135.17100524902344 140.9029998779297,190.50100708007812 179.84800720214844,69.39199829101562"/></g><g opacity="0" transform="matrix(1,0,0,1,0,0)"><path fill="rgb(43,102,57)" fill-opacity="1" d=" M-84.54900360107422,10.01099967956543 C-94.89700317382812,13.960000038146973 -110.49099731445312,24.541000366210938 -112.78900146484375,50.00600051879883 C-108.13099670410156,38.959999084472656 -102.33300018310547,26.940000534057617 -81.24500274658203,20.825000762939453 C-87.18699645996094,18.082000732421875 -85.81999969482422,14.277999877929688 -84.54900360107422,10.01099967956543z"/></g><g opacity="1" transform="matrix(1,0,0,1,0,0)"><path stroke-linecap="round" stroke-linejoin="miter" fill-opacity="0" stroke-miterlimit="10" stroke="rgb(75,131,76)" stroke-opacity="1" stroke-width="5" d=" M-91.34100341796875,-15.147000312805176 C-88.43099975585938,-2.375999927520752 -84.2979965209961,9.682999610900879 -79.1520004272461,20.981000900268555 C-24.44700050354004,141.08099365234375 144.781005859375,175.35299682617188 176.9980010986328,67.49199676513672"/></g><g opacity="1" transform="matrix(1,0,0,1,0,0)"><path stroke-linecap="round" stroke-linejoin="round" fill-opacity="0" stroke="rgb(35,61,33)" stroke-opacity="1" stroke-width="6" d=" M152.7480010986328,102.34100341796875 C157.20899963378906,105.48799896240234 159.31900024414062,110.2300033569336 159.89999389648438,114.98600006103516"/></g><g opacity="1" transform="matrix(1,0,0,1,0,0)"><path stroke-linecap="round" stroke-linejoin="round" fill-opacity="0" stroke="rgb(35,61,33)" stroke-opacity="1" stroke-width="6" d=" M63.487998962402344,142.53199768066406 C63.805999755859375,138.52200317382812 65.06999969482422,130.39500427246094 65.38800048828125,126.38500213623047"/></g><g opacity="1" transform="matrix(1,0,0,1,0,0)"><path stroke-linecap="round" stroke-linejoin="round" fill-opacity="0" stroke="rgb(35,61,33)" stroke-opacity="1" stroke-width="6" d=" M-43.316001892089844,88.06300354003906 C-42.82899856567383,83.23300170898438 -39.856998443603516,78.72000122070312 -35.611000061035156,76.36599731445312"/></g><g opacity="1" transform="matrix(1,0,0,1,0,0)"><path stroke-linecap="round" stroke-linejoin="round" fill-opacity="0" stroke="rgb(35,61,33)" stroke-opacity="1" stroke-width="6" d=" M-89.67900085449219,22.611000061035156 C-88.49199676513672,18.812000274658203 -79.6259994506836,16.910999298095703 -76.14299774169922,17.861000061035156"/></g></g></g><g opacity="0" transform="matrix(1,0,0,1,0,0)"><path fill="rgb(35,61,33)" fill-opacity="1" d=" M-83.69200134277344,9.161999702453613 C-108.09100341796875,20.70199966430664 -113.3010025024414,38.111000061035156 -112.45899963378906,57.694000244140625 C-126.08699798583984,41.09700012207031 -97.05400085449219,3.187000036239624 -83.69200134277344,9.161999702453613z"/></g></g></g></svg>