<svg xmlns="http://www.w3.org/2000/svg" xmlns:xlink="http://www.w3.org/1999/xlink" viewBox="0 0 512 512" width="512" height="512" style="width: 100%; height: 100%; transform: translate3d(0,0,0);" preserveAspectRatio="xMidYMid meet"><defs><clipPath id="__lottie_element_15222"><rect width="512" height="512" x="0" y="0"/></clipPath><linearGradient id="__lottie_element_15241" spreadMethod="pad" gradientUnits="userSpaceOnUse" x1="-246" y1="1" x2="243" y2="0"><stop offset="0%" stop-color="rgb(0,0,0)"/><stop offset="25%" stop-color="rgb(0,0,0)"/><stop offset="50%" stop-color="rgb(0,0,0)"/><stop offset="75%" stop-color="rgb(0,0,0)"/><stop offset="100%" stop-color="rgb(0,0,0)"/></linearGradient><mask id="__lottie_element_15243"><path fill="url(#__lottie_element_15242)" d=" M-246.5,-145.5 C-246.5,-139 -246.5,144.218994140625 -246.5,146.593994140625 C-244.71200561523438,146.76499938964844 -241.55099487304688,147.5780029296875 -237.75900268554688,148.50999450683594 C-220.5,152.75 -191.07200622558594,159.75999450683594 -178.26499938964844,161.58399963378906 C-147.25,166 -127.13200378417969,165.62600708007812 -103.76799774169922,164.74600219726562 C-50.75,162.75 -4.125,146.125 27.19499969482422,139.3300018310547 C47.95800018310547,134.8249969482422 68.79000091552734,130.64500427246094 83.74700164794922,128.94000244140625 C106.25,126.375 122.875,126.75 143.25,128.35899353027344 C183.33700561523438,131.52499389648438 217.79400634765625,139.2030029296875 241.43800354003906,147.031005859375 C241.43800354003906,147.09300231933594 241.406005859375,147.09300231933594 241.406005859375,147.06199645996094 C241.406005859375,147.06199645996094 241.406005859375,147.06199645996094 241.406005859375,147.06199645996094 C241.56199645996094,120.56199645996094 241.23399353027344,82.29100036621094 241.25,49.90599822998047 C241.26600646972656,17.08300018310547 241.43699645996094,-15.739999771118164 241.5,-48.5629997253418 C241.56199645996094,-80.91699981689453 241.5,-128.75 241.625,-145.625 C151.281005859375,-172.5 103.15699768066406,-165.1009979248047 78.5,-162.81199645996094 C23.042999267578125,-156.04600524902344 -48.707000732421875,-130.79600524902344 -83.375,-129.06199645996094 C-157.875,-120.1240005493164 -212.75,-139.625 -246.5,-145.5z"/></mask><linearGradient id="__lottie_element_15242" spreadMethod="pad" gradientUnits="userSpaceOnUse" x1="-246" y1="1" x2="243" y2="0"><stop stop-color="rgb(255,255,255)" offset="0%" stop-opacity="1"/><stop stop-color="rgb(255,255,255)" offset="17%" stop-opacity="0.5"/><stop stop-color="rgb(255,255,255)" offset="33%" stop-opacity="0"/><stop stop-color="rgb(255,255,255)" offset="50%" stop-opacity="0"/><stop stop-color="rgb(255,255,255)" offset="66%" stop-opacity="0"/><stop stop-color="rgb(255,255,255)" offset="83%" stop-opacity="0.5"/><stop stop-color="rgb(255,255,255)" offset="100%" stop-opacity="1"/></linearGradient></defs><g clip-path="url(#__lottie_element_15222)"><g style="display: block;" transform="matrix(0.800000011920929,0,0,0.800000011920929,257.9656066894531,250.03680419921875)" opacity="1"><g opacity="1" transform="matrix(1,0,0,1,0,0)"><path fill="rgb(226,71,51)" fill-opacity="1" d=" M-246.5,-145.5 C-246.5,-139 -246.5,144.218994140625 -246.5,146.593994140625 C-244.71200561523438,146.76499938964844 -241.55099487304688,147.5780029296875 -237.75900268554688,148.50999450683594 C-220.5,152.75 -191.07200622558594,159.75999450683594 -178.26499938964844,161.58399963378906 C-147.25,166 -127.13200378417969,165.62600708007812 -103.76799774169922,164.74600219726562 C-50.75,162.75 -4.125,146.125 27.19499969482422,139.3300018310547 C47.95800018310547,134.8249969482422 68.79000091552734,130.64500427246094 83.74700164794922,128.94000244140625 C106.25,126.375 122.875,126.75 143.25,128.35899353027344 C183.33700561523438,131.52499389648438 217.79400634765625,139.2030029296875 241.43800354003906,147.031005859375 C241.43800354003906,147.09300231933594 241.406005859375,147.09300231933594 241.406005859375,147.06199645996094 C241.406005859375,147.06199645996094 241.406005859375,147.06199645996094 241.406005859375,147.06199645996094 C241.56199645996094,120.56199645996094 241.23399353027344,82.29100036621094 241.25,49.90599822998047 C241.26600646972656,17.08300018310547 241.43699645996094,-15.739999771118164 241.5,-48.5629997253418 C241.56199645996094,-80.91699981689453 241.5,-128.75 241.625,-145.625 C151.281005859375,-172.5 103.15699768066406,-165.1009979248047 78.5,-162.81199645996094 C23.042999267578125,-156.04600524902344 -48.707000732421875,-130.79600524902344 -83.375,-129.06199645996094 C-157.875,-120.1240005493164 -212.75,-139.625 -246.5,-145.5z"/></g></g><g style="display: block;" transform="matrix(0.800000011920929,0,0,0.800000011920929,257.9656066894531,250.03680419921875)" opacity="1"><g opacity="1" transform="matrix(1,0,0,1,0,0)"><path fill="rgb(242,242,242)" fill-opacity="1" d=" M-246.5,-81.91200256347656 C-246.5,-50.66299819946289 -246.5,49.82699966430664 -246.5,81.1719970703125 C-217.61300659179688,89.1719970703125 -170.11500549316406,100.74700164794922 -123.86599731445312,100.54199981689453 C-90.41600036621094,100.39399719238281 -63.125,95.80500030517578 -37.57500076293945,89.83599853515625 C11.468000411987305,78.37699890136719 54.09600067138672,61.83100128173828 121.56099700927734,61.83399963378906 C163.01499938964844,61.83599853515625 204.26199340820312,71.2040023803711 241.25,81.25800323486328 C241.26600646972656,48.435001373291016 241.43699645996094,-49.0989990234375 241.5,-81.9219970703125 C220.9810028076172,-87.85900115966797 170.35699462890625,-101.28900146484375 121.44100189208984,-101.81500244140625 C38.94900131225586,-102.7020034790039 -37.76900100708008,-62.64500045776367 -121.0250015258789,-62.58399963378906 C-148.93299865722656,-62.5629997253418 -175.95399475097656,-66.48799896240234 -198.96499633789062,-71.0510025024414 C-218.23300170898438,-74.87100219726562 -234.68800354003906,-79.13899993896484 -246.5,-81.91200256347656z"/></g></g><g style="display: block;" transform="matrix(0.800000011920929,0,0,0.800000011920929,256.910400390625,253.25440979003906)" opacity="1"><g opacity="1" transform="matrix(1,0,0,1,0,0)"><path fill="rgb(0,166,81)" fill-opacity="1" d=" M47.46900177001953,5.665999889373779 C51.111000061035156,1.5820000171661377 65.11599731445312,7.290999889373779 67.0009994506836,3.0490000247955322 C69.04399871826172,-1.5470000505447388 41.340999603271484,-8.121999740600586 39.9370002746582,-10.994000434875488 C38.104000091552734,-14.744000434875488 57.617000579833984,-16.100000381469727 59.65999984741211,-18.333999633789062 C64.84700012207031,-24.006999969482422 28.767000198364258,-20.121000289916992 40.000999450683594,-26.184999465942383 C79.25599670410156,-27.844999313354492 28.256000518798828,-37.803001403808594 22.829999923706055,-44.7599983215332 C19.048999786376953,-49.60900115966797 25.743999481201172,-52.297000885009766 35.08599853515625,-50.12200164794922 C44.404998779296875,-47.95199966430664 36.680999755859375,-64.29199981689453 20.531999588012695,-68.12200164794922 C7.250999927520752,-71.27200317382812 5.341000080108643,-63.909000396728516 -3.2119998931884766,-81.01499938964844 C-8.190999984741211,-66.5260009765625 -28.7549991607666,-55.10200119018555 -17.82900047302246,-57.07899856567383 C-11.126999855041504,-58.29199981689453 -21.37299919128418,-50.62099838256836 -26.82900047302246,-46.099998474121094 C-33.53099822998047,-40.547000885009766 -25.232999801635742,-42.5260009765625 -24.5310001373291,-40.67499923706055 C-22.804000854492188,-36.12300109863281 -54.97800064086914,-16.356000900268555 -52.297000885009766,-12.142999649047852 C-49.33100128173828,-7.482999801635742 -42.2760009765625,-18.844999313354492 -37.999000549316406,-12.39799976348877 C-33.78200149536133,-6.040999889373779 -66.14399719238281,14.812999725341797 -64.48899841308594,19.197999954223633 C-61.93600082397461,25.964000701904297 -51.595001220703125,7.730000019073486 -46.16999816894531,14.793000221252441 C-39.617000579833984,23.325000762939453 -78.46700286865234,41.090999603271484 -74.12699890136719,46.64400100708008 C-69.5999984741211,52.435001373291016 -43.4640007019043,23.26099967956543 -39.34000015258789,33.43199920654297 C-36.5099983215332,40.4109992980957 -70.18800354003906,50.98899841308594 -67.48899841308594,54.750999450683594 C-59.87200164794922,65.36799621582031 -26.82900047302246,26.666000366210938 -20.510000228881836,41.856998443603516 C-12.894000053405762,60.16600036621094 -51.5880012512207,76.16899871826172 -46.999000549316406,80.79299926757812 C-44.21200180053711,83.60199737548828 -17.709999084472656,58.83399963378906 -10.105999946594238,57.6870002746582 C-2.062999963760376,56.4739990234375 3.447000026702881,65.32499694824219 8.213000297546387,65.15499877929688 C12.979000091552734,64.98500061035156 14.468999862670898,54.87799835205078 25.191999435424805,62.154998779296875 C30.743999481201172,65.9229965209961 37.73699951171875,62.91299819946289 24.554000854492188,55.198001861572266 C10.70300006866455,47.09199905395508 11.66100025177002,30.368000030517578 15.618000030517578,26.090999603271484 C22.152999877929688,19.02899932861328 24.80900001525879,30.239999771118164 48.042999267578125,22.006000518798828 C60.44900131225586,17.608999252319336 70.7229995727539,32.26100158691406 74.14900207519531,26.40999984741211 C78.24700164794922,19.40999984741211 41.150001525878906,12.75100040435791 47.46900177001953,5.665999889373779z"/></g><g opacity="1" transform="matrix(1,0,0,1,0,0)"><path fill="rgb(242,242,242)" fill-opacity="1" d=" M-44.191001892089844,9.942000389099121 C-44.854000091552734,6.3520002365112305 -28.701000213623047,2.8570001125335693 -28.999000549316406,6.494999885559082 C-29.297000885009766,10.133000373840332 -42.659000396728516,18.239999771118164 -44.191001892089844,9.942000389099121z"/></g><g opacity="1" transform="matrix(1,0,0,1,0,0)"><path fill="rgb(242,242,242)" fill-opacity="1" d=" M-35.76499938964844,-15.270000457763672 C-38.893001556396484,-18.972000122070312 -34.07899856567383,-23.86199951171875 -29.957000732421875,-19.611000061035156 C-25.834999084472656,-15.359999656677246 -31.94300079345703,-10.746000289916992 -35.76499938964844,-15.270000457763672z"/></g><g opacity="1" transform="matrix(1,0,0,1,0,0)"><path fill="rgb(242,242,242)" fill-opacity="1" d=" M-21.656999588012695,26.75 C-24.11400032043457,27.13800048828125 -29.06800079345703,20.38800048828125 -23.7450008392334,18.441999435424805 C-20.573999404907227,17.283000946044922 -19.200000762939453,26.36199951171875 -21.656999588012695,26.75z"/></g><g opacity="1" transform="matrix(1,0,0,1,0,0)"><path fill="rgb(242,242,242)" fill-opacity="1" d=" M-21.5310001373291,-20.249000549316406 C-26.05299949645996,-15.701000213623047 -28.582000732421875,-22.43400001525879 -24.43000030517578,-24.886999130249023 C-20.277999877929688,-27.34000015258789 -17.025999069213867,-24.780000686645508 -21.5310001373291,-20.249000549316406z"/></g><g opacity="1" transform="matrix(1,0,0,1,0,0)"><path fill="rgb(242,242,242)" fill-opacity="1" d=" M-20.121000289916992,-35.86199951171875 C-16.02400016784668,-40.43600082397461 -10.234000205993652,-40.22800064086914 -15.678000450134277,-33.191001892089844 C-18.513999938964844,-29.525999069213867 -24.218000411987305,-31.28700065612793 -20.121000289916992,-35.86199951171875z"/></g><g opacity="1" transform="matrix(1,0,0,1,0,0)"><path fill="rgb(242,242,242)" fill-opacity="1" d=" M-11.126999855041504,23.92099952697754 C-12.727999687194824,24.695999145507812 -17.381000518798828,21.788999557495117 -14.178999900817871,19.316999435424805 C-11.956999778747559,17.60099983215332 -9.526000022888184,23.145999908447266 -11.126999855041504,23.92099952697754z"/></g><g opacity="1" transform="matrix(1,0,0,1,0,0)"><path fill="rgb(242,242,242)" fill-opacity="1" d=" M-6.59499979019165,-11.951000213623047 C-3.9709999561309814,-11.951000213623047 -4.598999977111816,-8.111000061035156 -7.2230000495910645,-8.111000061035156 C-9.847000122070312,-8.111000061035156 -9.218999862670898,-11.951000213623047 -6.59499979019165,-11.951000213623047z"/></g><g opacity="1" transform="matrix(1,0,0,1,0,0)"><path fill="rgb(242,242,242)" fill-opacity="1" d=" M-3.86299991607666,21.167999267578125 C-6.914000034332275,20.283000946044922 -7.723999977111816,14.506999969482422 -2.190999984741211,15.432000160217285 C0.2240000069141388,15.836000442504883 -1.4769999980926514,21.860000610351562 -3.86299991607666,21.167999267578125z"/></g><g opacity="1" transform="matrix(1,0,0,1,0,0)"><path fill="rgb(242,242,242)" fill-opacity="1" d=" M-4.425000190734863,-41.7599983215332 C-10.4399995803833,-38.47200012207031 -11.461000442504883,-43.641998291015625 -5.446000099182129,-46.93000030517578 C0.5690000057220459,-50.21799850463867 1.590000033378601,-45.04800033569336 -4.425000190734863,-41.7599983215332z"/></g><g opacity="1" transform="matrix(1,0,0,1,0,0)"><path fill="rgb(242,242,242)" fill-opacity="1" d=" M14.022000312805176,-52.547000885009766 C17.496999740600586,-52.547000885009766 16.60300064086914,-47.05799865722656 13.128000259399414,-47.05799865722656 C9.652999877929688,-47.05799865722656 10.54699993133545,-52.547000885009766 14.022000312805176,-52.547000885009766z"/></g><g opacity="1" transform="matrix(1,0,0,1,0,0)"><path fill="rgb(242,242,242)" fill-opacity="1" d=" M12.619000434875488,-29.503999710083008 C10.973999977111816,-32.4119987487793 19.489999771118164,-40.266998291015625 22.06399917602539,-33.5260009765625 C23.187000274658203,-30.583999633789062 14.531999588012695,-26.121999740600586 12.619000434875488,-29.503999710083008z"/></g><g opacity="1" transform="matrix(1,0,0,1,0,0)"><path fill="rgb(242,242,242)" fill-opacity="1" d=" M29.21299934387207,-26.07900047302246 C33.75199890136719,-26.07900047302246 32.09299850463867,-19.44099998474121 27.554000854492188,-19.44099998474121 C23.014999389648438,-19.44099998474121 24.673999786376953,-26.07900047302246 29.21299934387207,-26.07900047302246z"/></g><g opacity="1" transform="matrix(1,0,0,1,0,0)"><path fill="rgb(242,242,242)" fill-opacity="1" d=" M-0.9139999747276306,-11.24899959564209 C2.2139999866485596,-13.071999549865723 6.064000129699707,-4.181000232696533 0.38199999928474426,-2.9639999866485596 C-2.9570000171661377,-2.249000072479248 -3.0810000896453857,-9.986000061035156 -0.9139999747276306,-11.24899959564209z"/></g><g opacity="1" transform="matrix(1,0,0,1,0,0)"><path fill="rgb(242,242,242)" fill-opacity="1" d=" M22.040000915527344,5.0980000495910645 C19.4689998626709,1.2829999923706055 30.18400001525879,-6.209000110626221 32.915000915527344,0.4950000047683716 C34.106998443603516,3.4210000038146973 23.82200050354004,7.742000102996826 22.040000915527344,5.0980000495910645z"/></g><g opacity="1" transform="matrix(1,0,0,1,0,0)"><path fill="rgb(242,242,242)" fill-opacity="1" d=" M36.744998931884766,6.432000160217285 C34.94300079345703,3.802000045776367 41.595001220703125,-5.544000148773193 45.680999755859375,0.4320000112056732 C47.46500015258789,3.0399999618530273 39.52299880981445,10.487000465393066 36.744998931884766,6.432000160217285z"/></g></g><g style="display: block;" transform="matrix(0.800000011920929,0,0,0.800000011920929,257.9656066894531,250.03680419921875)" opacity="0.35000000000000003"><g opacity="1" transform="matrix(1,0,0,1,0,0)"><path fill="url(#__lottie_element_15241)" mask="url(#__lottie_element_15243)" fill-opacity="1" d="M0 0 M-246.5,-145.5 C-246.5,-139 -246.5,144.218994140625 -246.5,146.593994140625 C-244.71200561523438,146.76499938964844 -241.55099487304688,147.5780029296875 -237.75900268554688,148.50999450683594 C-220.5,152.75 -191.07200622558594,159.75999450683594 -178.26499938964844,161.58399963378906 C-147.25,166 -127.13200378417969,165.62600708007812 -103.76799774169922,164.74600219726562 C-50.75,162.75 -4.125,146.125 27.19499969482422,139.3300018310547 C47.95800018310547,134.8249969482422 68.79000091552734,130.64500427246094 83.74700164794922,128.94000244140625 C106.25,126.375 122.875,126.75 143.25,128.35899353027344 C183.33700561523438,131.52499389648438 217.79400634765625,139.2030029296875 241.43800354003906,147.031005859375 C241.43800354003906,147.09300231933594 241.406005859375,147.09300231933594 241.406005859375,147.06199645996094 C241.406005859375,147.06199645996094 241.406005859375,147.06199645996094 241.406005859375,147.06199645996094 C241.56199645996094,120.56199645996094 241.23399353027344,82.29100036621094 241.25,49.90599822998047 C241.26600646972656,17.08300018310547 241.43699645996094,-15.739999771118164 241.5,-48.5629997253418 C241.56199645996094,-80.91699981689453 241.5,-128.75 241.625,-145.625 C151.281005859375,-172.5 103.15699768066406,-165.1009979248047 78.5,-162.81199645996094 C23.042999267578125,-156.04600524902344 -48.707000732421875,-130.79600524902344 -83.375,-129.06199645996094 C-157.875,-120.1240005493164 -212.75,-139.625 -246.5,-145.5z"/></g></g><g style="display: block;" transform="matrix(0.800000011920929,0,0,0.800000011920929,257.9656066894531,250.03680419921875)" opacity="0.15"><g opacity="1" transform="matrix(1,0,0,1,0,0)"><path fill="rgb(255,255,255)" fill-opacity="1" d=" M-246.875,-146 C-246.83700561523438,-139.70399475097656 -246.875,-138 -246.79200744628906,-132.81100463867188 C-237.5,-136.25 -197.25,-114 -124.49600219726562,-114.31099700927734 C-38.992000579833984,-114.6760025024414 39.233001708984375,-153.25 121.70800018310547,-153.39700317382812 C179.75,-153.5 241,-132.25 240.91200256347656,-131.552001953125 C241,-140.5 241.375,-144.625 241.375,-144.625 C241.375,-144.625 179.75,-166.25 122.5,-166 C39.49700164794922,-165.63800048828125 -39.5,-128 -124.25,-126.81199645996094 C-197.0449981689453,-125.79199981689453 -237.75,-149 -246.875,-146z"/></g></g><g style="display: block;" transform="matrix(0.800000011920929,0,0,0.800000011920929,257.9656066894531,250.03680419921875)" opacity="0.15"><g opacity="1" transform="matrix(1,0,0,1,0,0)"><path fill="rgb(0,0,0)" fill-opacity="1" d=" M122.5,112.25 C34,112.25 -36,149.5 -123.5,152 C-140.61700439453125,152.48899841308594 -155.82000732421875,151.3489990234375 -170.41099548339844,149.1280059814453 C-195.23399353027344,145.35000610351562 -218.28900146484375,138.4459991455078 -246,131.125 C-246.25,134.5 -246,141.375 -246,145.125 C-218.5749969482422,153.30599975585938 -195.61700439453125,159.55499267578125 -170.83099365234375,163.0050048828125 C-155.8520050048828,165.08999633789062 -140.20399475097656,166.15199279785156 -122.5,166 C-35,165.25 33.5,126.625 121.75,126.5 C126.26799774169922,126.49400329589844 131.11399841308594,126.59500122070312 136.27699279785156,126.83899688720703 C163.25900268554688,128.11300659179688 198.88099670410156,133.2550048828125 241.375,147 C241.375,147 241.25,134.75 241.5,131.125 C199.093994140625,118.93299865722656 163.16200256347656,113.84500122070312 136.1439971923828,112.58000183105469 C131.30499267578125,112.35399627685547 126.75299835205078,112.25 122.5,112.25z"/></g></g><g style="display: block;" transform="matrix(0.800000011920929,0,0,0.800000011920929,257.9656066894531,250.03680419921875)" opacity="1"><g opacity="1" transform="matrix(1,0,0,1,0,0)"><path stroke-linecap="round" stroke-linejoin="round" fill-opacity="0" stroke="rgb(104,29,20)" stroke-opacity="1" stroke-width="8" d=" M-246.66799926757812,81.64099884033203 C-246.66799926757812,135.16900634765625 -246.5,145.6649932861328 -246.5,146.593994140625 C-244.71200561523438,146.76499938964844 -241.55099487304688,147.5780029296875 -237.75900268554688,148.50999450683594 C-220.5,152.75 -191.07200622558594,159.75999450683594 -178.26499938964844,161.58399963378906 C-147.25,166 -127.13200378417969,165.62600708007812 -103.76799774169922,164.74600219726562 C-50.75,162.75 -4.125,146.125 27.19499969482422,139.3300018310547 C47.95800018310547,134.8249969482422 68.79000091552734,130.64500427246094 83.74700164794922,128.94000244140625 C106.25,126.375 122.875,126.75 143.25,128.35899353027344 C183.33700561523438,131.52499389648438 217.79400634765625,139.2030029296875 241.43800354003906,147.031005859375 C241.43800354003906,147.09300231933594 241.406005859375,147.09300231933594 241.406005859375,147.06199645996094 C241.406005859375,147.06199645996094 241.406005859375,147.06199645996094 241.406005859375,147.06199645996094 C241.56199645996094,120.56199645996094 241.2050018310547,114.01000213623047 241.2209930419922,81.625"/></g><g opacity="1" transform="matrix(1,0,0,1,0,0)"><path stroke-linecap="round" stroke-linejoin="round" fill-opacity="0" stroke="rgb(104,29,20)" stroke-opacity="1" stroke-width="8" d=" M241.30799865722656,-81.5780029296875 C241.3699951171875,-113.93199920654297 241.5,-128.75 241.625,-145.625 C151.281005859375,-172.5 103.15699768066406,-165.1009979248047 78.5,-162.81199645996094 C40.125,-159.25 -36.957000732421875,-134.04600524902344 -83.375,-129.06199645996094 C-157.875,-120.1240005493164 -212.75,-139.625 -246.5,-145.5 C-246.5,-143.0330047607422 -246.54299926757812,-133.00900268554688 -246.54299926757812,-81.2959976196289"/></g><g opacity="1" transform="matrix(1,0,0,1,0,0)"><path stroke-linecap="butt" stroke-linejoin="miter" fill-opacity="0" stroke-miterlimit="4" stroke="rgb(122,122,122)" stroke-opacity="1" stroke-width="8" d=" M241.468994140625,-81.125 C241.406005859375,-48.301998138427734 241.14100646972656,49.0359992980957 241.125,81.85900115966797"/></g><g opacity="1" transform="matrix(1,0,0,1,0,0)"><path stroke-linecap="butt" stroke-linejoin="miter" fill-opacity="0" stroke-miterlimit="4" stroke="rgb(122,122,122)" stroke-opacity="1" stroke-width="8" d=" M-246.5189971923828,-82.0719985961914 C-246.5189971923828,-82.0719985961914 -246.5500030517578,80.78600311279297 -246.5500030517578,80.78600311279297"/></g></g></g></svg>