<svg xmlns="http://www.w3.org/2000/svg" xmlns:xlink="http://www.w3.org/1999/xlink" viewBox="0 0 512 512" width="512" height="512" style="width: 100%; height: 100%; transform: translate3d(0,0,0);" preserveAspectRatio="xMidYMid meet"><defs><clipPath id="__lottie_element_20544"><rect width="512" height="512" x="0" y="0"/></clipPath><linearGradient id="__lottie_element_20563" spreadMethod="pad" gradientUnits="userSpaceOnUse" x1="-246" y1="1" x2="243" y2="0"><stop offset="0%" stop-color="rgb(0,0,0)"/><stop offset="25%" stop-color="rgb(0,0,0)"/><stop offset="50%" stop-color="rgb(0,0,0)"/><stop offset="75%" stop-color="rgb(0,0,0)"/><stop offset="100%" stop-color="rgb(0,0,0)"/></linearGradient><mask id="__lottie_element_20565"><path fill="url(#__lottie_element_20564)" d=" M-246.5,-145.5 C-246.5,-139 -246.5,144.218994140625 -246.5,146.593994140625 C-244.71200561523438,146.76499938964844 -241.55099487304688,147.5780029296875 -237.75900268554688,148.50999450683594 C-220.5,152.75 -191.07200622558594,159.75999450683594 -178.26499938964844,161.58399963378906 C-147.25,166 -127.13200378417969,165.62600708007812 -103.76799774169922,164.74600219726562 C-50.75,162.75 -4.125,146.125 27.19499969482422,139.3300018310547 C47.95800018310547,134.8249969482422 68.79000091552734,130.64500427246094 83.74700164794922,128.94000244140625 C106.25,126.375 122.875,126.75 143.25,128.35899353027344 C183.33700561523438,131.52499389648438 227.81300354003906,143.81199645996094 241.43800354003906,147.031005859375 C241.43800354003906,147.09300231933594 241.406005859375,147.09300231933594 241.406005859375,147.06199645996094 C241.406005859375,147.06199645996094 241.406005859375,147.06199645996094 241.406005859375,147.06199645996094 C241.56199645996094,120.56199645996094 241.23399353027344,82.29100036621094 241.25,49.90599822998047 C241.26600646972656,17.08300018310547 241.43699645996094,-15.739999771118164 241.5,-48.5629997253418 C241.56199645996094,-80.91699981689453 241.5,-128.75 241.625,-145.625 C151.281005859375,-172.5 103.15699768066406,-165.1009979248047 78.5,-162.81199645996094 C40.125,-159.25 0.8299999833106995,-139.16400146484375 -83.375,-129.06199645996094 C-157.875,-120.1240005493164 -212.75,-139.625 -246.5,-145.5z"/></mask><linearGradient id="__lottie_element_20564" spreadMethod="pad" gradientUnits="userSpaceOnUse" x1="-246" y1="1" x2="243" y2="0"><stop stop-color="rgb(255,255,255)" offset="0%" stop-opacity="1"/><stop stop-color="rgb(255,255,255)" offset="17%" stop-opacity="0.5"/><stop stop-color="rgb(255,255,255)" offset="33%" stop-opacity="0"/><stop stop-color="rgb(255,255,255)" offset="50%" stop-opacity="0"/><stop stop-color="rgb(255,255,255)" offset="66%" stop-opacity="0"/><stop stop-color="rgb(255,255,255)" offset="83%" stop-opacity="0.5"/><stop stop-color="rgb(255,255,255)" offset="100%" stop-opacity="1"/></linearGradient></defs><g clip-path="url(#__lottie_element_20544)"><g style="display: block;" transform="matrix(0.800000011920929,0,0,0.800000011920929,257.9656066894531,250.03680419921875)" opacity="1"><g opacity="1" transform="matrix(1,0,0,1,0,0)"><path fill="rgb(242,242,242)" fill-opacity="1" d=" M-246.5,-48.79600143432617 C-246.5,-17.547000885009766 -246.5,17.108999252319336 -246.5,48.45399856567383 C-246.5,101.86900329589844 241.23399353027344,82.29100036621094 241.25,49.90599822998047 C241.26600646972656,17.08300018310547 241.43699645996094,-15.739999771118164 241.5,-48.5629997253418 C241.56199645996094,-80.91699981689453 -246.5,-100.59400177001953 -246.5,-48.79600143432617z"/></g></g><g style="display: block;" transform="matrix(0.800000011920929,0,0,0.800000011920929,257.9656066894531,250.03680419921875)" opacity="1"><g opacity="1" transform="matrix(1,0,0,1,0,0)"><path fill="rgb(22,47,152)" fill-opacity="1" d=" M-246.5,48.20399856567383 C-246.5,101.73200225830078 -246.5,145.6649932861328 -246.5,146.593994140625 C-244.71200561523438,146.76499938964844 -241.55099487304688,147.5780029296875 -237.75900268554688,148.50999450683594 C-220.5,152.75 -191.07200622558594,159.75999450683594 -178.26499938964844,161.58399963378906 C-147.25,166 -127.13200378417969,165.62600708007812 -103.76799774169922,164.74600219726562 C-50.75,162.75 -4.125,146.125 27.19499969482422,139.3300018310547 C47.95800018310547,134.8249969482422 68.79000091552734,130.64500427246094 83.74700164794922,128.94000244140625 C106.25,126.375 122.875,126.75 143.25,128.35899353027344 C183.33700561523438,131.52499389648438 218.41900634765625,139.32899475097656 241.43800354003906,147.031005859375 C241.43800354003906,147.093994140625 241.406005859375,147.09300231933594 241.406005859375,147.06199645996094 C241.406005859375,147.06199645996094 241.406005859375,147.06199645996094 241.406005859375,147.06199645996094 C241.56199645996094,120.56199645996094 241.23399353027344,82.29100036621094 241.25,49.90599822998047 C192.79299926757812,30.952999114990234 116.95899963378906,23.69499969482422 55.35599899291992,35.35499954223633 C23.792999267578125,41.32899856567383 -31.08099937438965,56.07899856567383 -73.03500366210938,63.36800003051758 C-106.5719985961914,69.19499969482422 -156.58099365234375,69.2040023803711 -203.0240020751953,58.18000030517578 C-221.2969970703125,53.84299850463867 -228.45599365234375,52.39099884033203 -234.78599548339844,50.972999572753906 C-240.1439971923828,49.70399856567383 -244.20700073242188,48.70399856567383 -246.5,48.20399856567383z"/></g></g><g style="display: block;" transform="matrix(0.800000011920929,0,0,0.800000011920929,257.9656066894531,250.03680419921875)" opacity="1"><g opacity="1" transform="matrix(1,0,0,1,0,0)"><path fill="rgb(22,47,152)" fill-opacity="1" d=" M-246.5,-145.5 C-246.5,-143.03799438476562 -246.5050048828125,-100.61699676513672 -246.5050048828125,-49.04600143432617 C-235.20700073242188,-46.54600143432617 -217.45700073242188,-42.04600143432617 -195.322998046875,-37.196998596191406 C-153.95700073242188,-29.54599952697754 -116.20700073242188,-27.29599952697754 -79.72699737548828,-33.01900100708008 C-47.97800064086914,-38 -27.39699935913086,-42.797000885009766 16.045000076293945,-54.13999938964844 C125.79299926757812,-82.7959976196289 190.29299926757812,-62.797000885009766 241.5,-48.5629997253418 C241.56199645996094,-80.91699981689453 241.5,-128.75 241.625,-145.625 C151.281005859375,-172.5 103.15699768066406,-165.1009979248047 78.5,-162.81199645996094 C40.125,-159.25 -52.957000732421875,-130.54600524902344 -83.375,-129.06199645996094 C-157.875,-120.1240005493164 -212.75,-139.625 -246.5,-145.5z"/></g></g><g style="display: block;" transform="matrix(0.800000011920929,0,0,0.800000011920929,53.20000457763672,44.800010681152344)" opacity="1"><g opacity="1" transform="matrix(1,0,0,1,271.0660095214844,256.59100341796875)"><path fill="rgb(0,75,179)" fill-opacity="1" d=" M9.019000053405762,-16.847000122070312 C7.184999942779541,-15.298999786376953 5.354000091552734,-13.729000091552734 3.5880000591278076,-12.199000358581543 C6.480999946594238,7.769000053405762 -4.788000106811523,14.763999938964844 -9.777999877929688,16.844999313354492 C0.12700000405311584,16.988000869750977 13.057000160217285,5.289999961853027 9.019000053405762,-16.847000122070312z"/></g><g opacity="1" transform="matrix(1,0,0,1,261.08599853515625,260.68798828125)"/><g opacity="1" transform="matrix(1,0,0,1,235.75999450683594,266.37799072265625)"><g opacity="1" transform="matrix(1,0,0,1,0,0)"><path fill="rgb(0,75,179)" fill-opacity="1" d=" M-4.105999946594238,-11.270000457763672 C-5.828999996185303,-11.885000228881836 -7.51800012588501,-12.46399974822998 -9.057999610900879,-12.95300006866455 C-12.362000465393066,12.08899974822998 0.004000000189989805,16.246999740600586 9.604000091552734,10.902999877929688 C-0.7429999709129333,10.928000450134277 -5.2820000648498535,4.723999977111816 -4.105999946594238,-11.270000457763672z"/></g></g><g opacity="1" transform="matrix(1,0,0,1,271.0719909667969,247.6479949951172)"><path stroke-linecap="round" stroke-linejoin="round" fill-opacity="0" stroke="rgb(227,182,0)" stroke-opacity="1" stroke-width="0.5" d=" M-9.012999534606934,7.9039998054504395 C-5.866000175476074,5.054999828338623 1.5549999475479126,-1.6080000400543213 9.012999534606934,-7.9039998054504395"/></g><g opacity="1" transform="matrix(1,0,0,1,236.25399780273438,256.9830017089844)"><path stroke-linecap="round" stroke-linejoin="round" fill-opacity="0" stroke="rgb(227,182,0)" stroke-opacity="1" stroke-width="0.5" d=" M-9.552000045776367,-3.556999921798706 C-2.9170000553131104,-1.4509999752044678 6.468999862670898,2.305999994277954 9.552000045776367,3.556999921798706"/></g><g opacity="1" transform="matrix(1,0,0,1,244.46400451660156,249.2969970703125)"><path fill="rgb(0,75,179)" fill-opacity="1" d=" M-0.7200000286102295,4.815000057220459 C1.0210000276565552,1.2380000352859497 2.0460000038146973,-1.2549999952316284 2.0460000038146973,-1.2549999952316284 C2.0460000038146973,-1.2549999952316284 -1.9980000257492065,-4.815000057220459 -1.9980000257492065,-4.815000057220459 C-2.1410000324249268,-1.3380000591278076 -2.0309998989105225,2.507999897003174 -0.7200000286102295,4.815000057220459z"/></g><g opacity="1" transform="matrix(1,0,0,1,237.58399963378906,251.77699279785156)"><g opacity="1" transform="matrix(1,0,0,1,0,0)"><path fill="rgb(0,75,179)" fill-opacity="1" d=" M1.0010000467300415,-10.710000038146973 C1.0010000467300415,-10.710000038146973 -2.9049999713897705,-14.284000396728516 -3.3289999961853027,-14.520999908447266 C-3.6540000438690186,-2.6730000972747803 -8.055000305175781,16.802000045776367 7.684999942779541,22.011999130249023 C12.263999938964844,23.825000762939453 12.708000183105469,22.725000381469727 14.065999984741211,20.165000915527344 C-1.781000018119812,10.527999877929688 0.8539999723434448,-6.252999782562256 1.0010000467300415,-10.710000038146973z"/></g></g><g opacity="1" transform="matrix(1,0,0,1,240.38299560546875,242.6490020751953)"><path stroke-linecap="round" stroke-linejoin="round" fill-opacity="0" stroke="rgb(227,182,0)" stroke-opacity="1" stroke-width="0.5" d=" M6.127999782562256,5.394000053405762 C6.127999782562256,5.394000053405762 -6.127999782562256,-5.394000053405762 -6.127999782562256,-5.394000053405762"/></g><g opacity="1" transform="matrix(1,0,0,1,269.593994140625,242.66000366210938)"><path fill="rgb(0,75,179)" fill-opacity="1" d=" M2.7669999599456787,-14.765999794006348 C2.7669999599456787,-14.765999794006348 -1.4359999895095825,-9.21500015258789 -1.4359999895095825,-9.21500015258789 C-1.0240000486373901,-6.054999828338623 1.5089999437332153,11.218999862670898 -14.086000442504883,28.753000259399414 C-15.53600025177002,30.384000778198242 -10.383000373840332,30.413999557495117 -7.64300012588501,27.5939998626709 C9.093000411987305,15.152000427246094 2.7669999599456787,-14.765999794006348 2.7669999599456787,-14.765999794006348z"/></g><g opacity="1" transform="matrix(1,0,0,1,262.072998046875,243.39199829101562)"><g opacity="1" transform="matrix(1,0,0,1,0,0)"><path fill="rgb(0,75,179)" fill-opacity="1" d=" M1.9359999895095825,-4.4670000076293945 C1.9359999895095825,-4.4670000076293945 -2.052000045776367,0.7990000247955322 -2.052000045776367,0.7990000247955322 C-2.052000045776367,0.7990000247955322 0.7670000195503235,4.4670000076293945 0.7670000195503235,4.4670000076293945 C2.26200008392334,0.9229999780654907 2.130000114440918,-2.7139999866485596 1.9359999895095825,-4.4670000076293945z"/></g></g><g opacity="1" transform="matrix(1,0,0,1,266.3739929199219,235.802001953125)"><path stroke-linecap="round" stroke-linejoin="round" fill-opacity="0" stroke="rgb(227,182,0)" stroke-opacity="1" stroke-width="0.5" d=" M5.98799991607666,-7.9079999923706055 C5.98799991607666,-7.9079999923706055 -5.98799991607666,7.9079999923706055 -5.98799991607666,7.9079999923706055"/></g></g><g style="display: block;" transform="matrix(0.800000011920929,0,0,0.800000011920929,53.20000457763672,44.800010681152344)" opacity="1"><g opacity="1" transform="matrix(1,0,0,1,253.21299743652344,253.66000366210938)"><path fill="rgb(242,242,242)" fill-opacity="1" d=" M0.33899998664855957,-22.18199920654297 C0.33899998664855957,-22.18199920654297 -22.214000701904297,22.56399917602539 -22.214000701904297,22.56399917602539 C-22.214000701904297,22.56399917602539 22.40999984741211,11.588000297546387 22.40999984741211,11.588000297546387 C22.40999984741211,11.588000297546387 0.33899998664855957,-22.18199920654297 0.33899998664855957,-22.18199920654297z"/></g><g opacity="1" transform="matrix(1,0,0,1,253.21299743652344,266.32598876953125)"><g opacity="1" transform="matrix(1,0,0,1,0,0)"><path fill="rgb(0,136,232)" fill-opacity="1" d=" M23.617000579833984,-0.6029999852180481 C23.617000579833984,-0.6029999852180481 16.812000274658203,-11.013999938964844 16.812000274658203,-11.013999938964844 C16.812000274658203,-11.013999938964844 -16.964000701904297,-2.184999942779541 -16.964000701904297,-2.184999942779541 C-16.964000701904297,-2.184999942779541 -23.617000579833984,11.013999938964844 -23.617000579833984,11.013999938964844 C-23.617000579833984,11.013999938964844 23.617000579833984,-0.6029999852180481 23.617000579833984,-0.6029999852180481z"/></g></g><g opacity="1" transform="matrix(1,0,0,1,252.28399658203125,262.8240051269531)"><g opacity="1" transform="matrix(1,0,0,1,0,0)"><path fill="rgb(0,96,0)" fill-opacity="1" d=" M9.545999526977539,-6.228000164031982 C8.07800006866455,-7.281000137329102 6.673999786376953,-6.291999816894531 5.875999927520752,-5.302999973297119 C-1.4320000410079956,-8.175000190734863 -2.9809999465942383,-3.9519999027252197 -4.209000110626221,-4.696000099182129 C-10.21399974822998,-8.335000038146973 -11.178000450134277,-1.2259999513626099 -17.20800018310547,3.6449999809265137 C-17.20800018310547,3.6449999809265137 -18.738000869750977,6.679999828338623 -18.738000869750977,6.679999828338623 C-18.738000869750977,6.679999828338623 18.738000869750977,-2.5260000228881836 18.738000869750977,-2.5260000228881836 C18.738000869750977,-2.5260000228881836 14.559000015258789,-7.499000072479248 9.545999526977539,-6.228000164031982z"/><path stroke-linecap="butt" stroke-linejoin="miter" fill-opacity="0" stroke-miterlimit="10" stroke="rgb(0,0,0)" stroke-opacity="1" stroke-width="0.15" d=" M9.545999526977539,-6.228000164031982 C8.07800006866455,-7.281000137329102 6.673999786376953,-6.291999816894531 5.875999927520752,-5.302999973297119 C-1.4320000410079956,-8.175000190734863 -2.9809999465942383,-3.9519999027252197 -4.209000110626221,-4.696000099182129 C-10.21399974822998,-8.335000038146973 -11.178000450134277,-1.2259999513626099 -17.20800018310547,3.6449999809265137 C-17.20800018310547,3.6449999809265137 -18.738000869750977,6.679999828338623 -18.738000869750977,6.679999828338623 C-18.738000869750977,6.679999828338623 18.738000869750977,-2.5260000228881836 18.738000869750977,-2.5260000228881836 C18.738000869750977,-2.5260000228881836 14.559000015258789,-7.499000072479248 9.545999526977539,-6.228000164031982z"/></g></g><g opacity="1" transform="matrix(1,0,0,1,253.2949981689453,248.70899963378906)"><path fill="rgb(230,0,0)" fill-opacity="1" d=" M-1.0399999618530273,-0.4429999887943268 C-2.4119999408721924,1.312000036239624 -0.20600000023841858,2.5859999656677246 1.0670000314712524,1.121000051498413 C2.757999897003174,-0.8259999752044678 -1.3910000324249268,-3.3469998836517334 -1.0399999618530273,-0.4429999887943268z"/></g><g opacity="1" transform="matrix(1,0,0,1,253.11500549316406,253.468994140625)"><path fill="rgb(255,204,0)" fill-opacity="1" d=" M-24.922000885009766,24.989999771118164 C-24.922000885009766,24.989999771118164 0.27000001072883606,-24.989999771118164 0.27000001072883606,-24.989999771118164 C0.27000001072883606,-24.989999771118164 24.922000885009766,12.730999946594238 24.922000885009766,12.730999946594238 C24.922000885009766,12.730999946594238 -24.922000885009766,24.989999771118164 -24.922000885009766,24.989999771118164z M0.43799999356269836,-21.989999771118164 C0.43799999356269836,-21.989999771118164 -22.115999221801758,22.7549991607666 -22.115999221801758,22.7549991607666 C-22.115999221801758,22.7549991607666 22.507999420166016,11.779999732971191 22.507999420166016,11.779999732971191 C22.507999420166016,11.779999732971191 0.43799999356269836,-21.989999771118164 0.43799999356269836,-21.989999771118164z"/><path stroke-linecap="butt" stroke-linejoin="miter" fill-opacity="0" stroke-miterlimit="10" stroke="rgb(0,0,0)" stroke-opacity="1" stroke-width="0.15" d=" M-24.922000885009766,24.989999771118164 C-24.922000885009766,24.989999771118164 0.27000001072883606,-24.989999771118164 0.27000001072883606,-24.989999771118164 C0.27000001072883606,-24.989999771118164 24.922000885009766,12.730999946594238 24.922000885009766,12.730999946594238 C24.922000885009766,12.730999946594238 -24.922000885009766,24.989999771118164 -24.922000885009766,24.989999771118164z M0.43799999356269836,-21.989999771118164 C0.43799999356269836,-21.989999771118164 -22.115999221801758,22.7549991607666 -22.115999221801758,22.7549991607666 C-22.115999221801758,22.7549991607666 22.507999420166016,11.779999732971191 22.507999420166016,11.779999732971191 C22.507999420166016,11.779999732971191 0.43799999356269836,-21.989999771118164 0.43799999356269836,-21.989999771118164z"/></g></g><g style="display: block;" transform="matrix(0.800000011920929,0,0,0.800000011920929,53.20000457763672,44.800010681152344)" opacity="1"><g opacity="1" transform="matrix(1,0,0,1,263.2550048828125,284.9939880371094)"><path fill="rgb(0,96,0)" fill-opacity="1" d=" M-7.020999908447266,4.644000053405762 C-5.052999973297119,3.132999897003174 -3.765000104904175,-6.185999870300293 0.8090000152587891,-6.505000114440918 C0.8090000152587891,-6.505000114440918 1.0210000276565552,-4.035999774932861 0.6380000114440918,-1.4830000400543213 C1.7020000219345093,-1.6319999694824219 4.127999782562256,-2.2920000553131104 4.979000091552734,-1.7389999628067017 C4.979000091552734,-1.7389999628067017 4.127999782562256,0.1550000011920929 3.063999891281128,1.5809999704360962 C4.382999897003174,1.6660000085830688 5.7230000495910645,1.8569999933242798 7.020999908447266,3.1549999713897705 C5.702000141143799,4.368000030517578 -0.8930000066757202,9.069999694824219 -7.020999908447266,4.644000053405762z"/><path stroke-linecap="butt" stroke-linejoin="miter" fill-opacity="0" stroke-miterlimit="10" stroke="rgb(0,0,0)" stroke-opacity="1" stroke-width="0.15" d=" M-7.020999908447266,4.644000053405762 C-5.052999973297119,3.132999897003174 -3.765000104904175,-6.185999870300293 0.8090000152587891,-6.505000114440918 C0.8090000152587891,-6.505000114440918 1.0210000276565552,-4.035999774932861 0.6380000114440918,-1.4830000400543213 C1.7020000219345093,-1.6319999694824219 4.127999782562256,-2.2920000553131104 4.979000091552734,-1.7389999628067017 C4.979000091552734,-1.7389999628067017 4.127999782562256,0.1550000011920929 3.063999891281128,1.5809999704360962 C4.382999897003174,1.6660000085830688 5.7230000495910645,1.8569999933242798 7.020999908447266,3.1549999713897705 C5.702000141143799,4.368000030517578 -0.8930000066757202,9.069999694824219 -7.020999908447266,4.644000053405762z"/></g><g opacity="1" transform="matrix(1,0,0,1,275.14898681640625,276.11199951171875)"><path fill="rgb(0,96,0)" fill-opacity="1" d=" M-6.105999946594238,5.578999996185303 C-5.690999984741211,2.865000009536743 -5.318999767303467,-3.378000020980835 -1.5529999732971191,-5.579999923706055 C-1.5529999732971191,-5.579999923706055 -0.335999995470047,-3.2300000190734863 -0.871999979019165,-1.1549999713897705 C-0.06300000101327896,-1.7079999446868896 1.8730000257492065,-2.7920000553131104 3.5959999561309814,-2.6010000705718994 C3.5959999561309814,-2.6010000705718994 3.25600004196167,-0.9419999718666077 2.361999988555908,0.5899999737739563 C3.3410000801086426,0.546999990940094 4.617000102996826,0.37700000405311584 6.105999946594238,1.312999963760376 C2.74399995803833,4.675000190734863 -2.319000005722046,5.611000061035156 -6.105999946594238,5.578999996185303z"/><path stroke-linecap="butt" stroke-linejoin="miter" fill-opacity="0" stroke-miterlimit="10" stroke="rgb(0,0,0)" stroke-opacity="1" stroke-width="0.15" d=" M-6.105999946594238,5.578999996185303 C-5.690999984741211,2.865000009536743 -5.318999767303467,-3.378000020980835 -1.5529999732971191,-5.579999923706055 C-1.5529999732971191,-5.579999923706055 -0.335999995470047,-3.2300000190734863 -0.871999979019165,-1.1549999713897705 C-0.06300000101327896,-1.7079999446868896 1.8730000257492065,-2.7920000553131104 3.5959999561309814,-2.6010000705718994 C3.5959999561309814,-2.6010000705718994 3.25600004196167,-0.9419999718666077 2.361999988555908,0.5899999737739563 C3.3410000801086426,0.546999990940094 4.617000102996826,0.37700000405311584 6.105999946594238,1.312999963760376 C2.74399995803833,4.675000190734863 -2.319000005722046,5.611000061035156 -6.105999946594238,5.578999996185303z"/></g><g opacity="1" transform="matrix(1,0,0,1,282.72601318359375,266.05499267578125)"><path fill="rgb(0,96,0)" fill-opacity="1" d=" M-4.363999843597412,5.031000137329102 C-6.0960001945495605,2.624000072479248 -5.054999828338623,-2.500999927520752 -3.299999952316284,-5.053999900817871 C-3.299999952316284,-5.053999900817871 -2.2699999809265137,-3.4560000896453857 -1.9809999465942383,-1.8630000352859497 C-1.215000033378601,-2.756999969482422 1.371999979019165,-4.171999931335449 2.615000009536743,-4.585999965667725 C2.615000009536743,-4.585999965667725 2.5510001182556152,-2.9690001010894775 1.7209999561309814,-1.8200000524520874 C2.4790000915527344,-2.236999988555908 3.7639999389648438,-2.927000045776367 5.252999782562256,-3.01200008392334 C2.9549999237060547,0.09399999678134918 0.9980000257492065,5.456999778747559 -4.363999843597412,5.031000137329102z"/><path stroke-linecap="butt" stroke-linejoin="miter" fill-opacity="0" stroke-miterlimit="10" stroke="rgb(0,0,0)" stroke-opacity="1" stroke-width="0.15" d=" M-4.363999843597412,5.031000137329102 C-6.0960001945495605,2.624000072479248 -5.054999828338623,-2.500999927520752 -3.299999952316284,-5.053999900817871 C-3.299999952316284,-5.053999900817871 -2.2699999809265137,-3.4560000896453857 -1.9809999465942383,-1.8630000352859497 C-1.215000033378601,-2.756999969482422 1.371999979019165,-4.171999931335449 2.615000009536743,-4.585999965667725 C2.615000009536743,-4.585999965667725 2.5510001182556152,-2.9690001010894775 1.7209999561309814,-1.8200000524520874 C2.4790000915527344,-2.236999988555908 3.7639999389648438,-2.927000045776367 5.252999782562256,-3.01200008392334 C2.9549999237060547,0.09399999678134918 0.9980000257492065,5.456999778747559 -4.363999843597412,5.031000137329102z"/></g><g opacity="1" transform="matrix(1,0,0,1,284.885986328125,254.92599487304688)"><path fill="rgb(0,96,0)" fill-opacity="1" d=" M-1.694000005722046,4.7769999504089355 C-4.565999984741211,3.4790000915527344 -4.704999923706055,-0.8190000057220459 -4.1620001792907715,-3.1489999294281006 C-4.1620001792907715,-3.1489999294281006 -2.736999988555908,-2.691999912261963 -1.4390000104904175,-1.309000015258789 C-0.28999999165534973,-2.2239999771118164 1.1779999732971191,-3.2660000324249268 2.7309999465942383,-4.7769999504089355 C2.7309999465942383,-4.7769999504089355 2.684999942779541,-3.0199999809265137 2.434000015258789,-1.7339999675750732 C2.99399995803833,-2.0239999294281006 3.7260000705718994,-2.684999942779541 4.4120001792907715,-2.9040000438690186 C4.454999923706055,0.7770000100135803 1.3700000047683716,4.373000144958496 -1.694000005722046,4.7769999504089355z"/><path stroke-linecap="butt" stroke-linejoin="miter" fill-opacity="0" stroke-miterlimit="10" stroke="rgb(0,0,0)" stroke-opacity="1" stroke-width="0.15" d=" M-1.694000005722046,4.7769999504089355 C-4.565999984741211,3.4790000915527344 -4.704999923706055,-0.8190000057220459 -4.1620001792907715,-3.1489999294281006 C-4.1620001792907715,-3.1489999294281006 -2.736999988555908,-2.691999912261963 -1.4390000104904175,-1.309000015258789 C-0.28999999165534973,-2.2239999771118164 1.1779999732971191,-3.2660000324249268 2.7309999465942383,-4.7769999504089355 C2.7309999465942383,-4.7769999504089355 2.684999942779541,-3.0199999809265137 2.434000015258789,-1.7339999675750732 C2.99399995803833,-2.0239999294281006 3.7260000705718994,-2.684999942779541 4.4120001792907715,-2.9040000438690186 C4.454999923706055,0.7770000100135803 1.3700000047683716,4.373000144958496 -1.694000005722046,4.7769999504089355z"/></g><g opacity="1" transform="matrix(1,0,0,1,284.81201171875,245.57400512695312)"><path fill="rgb(0,96,0)" fill-opacity="1" d=" M-0.44999998807907104,4.617000102996826 C-2.7049999237060547,4.234000205993652 -4.485000133514404,0.6359999775886536 -4.025000095367432,-1.340000033378601 C-4.025000095367432,-1.340000033378601 -2.365000009536743,-1.340999960899353 -0.9819999933242798,-0.8090000152587891 C-0.6790000200271606,-1.6710000038146973 0.3370000123977661,-3.371999979019165 1.8049999475479126,-4.617000102996826 C1.8049999475479126,-4.617000102996826 2.193000078201294,-3.5429999828338623 2.3369998931884766,-2.744999885559082 C2.513000011444092,-3.0880000591278076 3.671999931335449,-3.7820000648498535 3.9749999046325684,-3.7660000324249268 C4.63100004196167,-1.1009999513626099 2.571000099182129,3.9570000171661377 -0.44999998807907104,4.617000102996826z"/><path stroke-linecap="butt" stroke-linejoin="miter" fill-opacity="0" stroke-miterlimit="10" stroke="rgb(0,0,0)" stroke-opacity="1" stroke-width="0.15" d=" M-0.44999998807907104,4.617000102996826 C-2.7049999237060547,4.234000205993652 -4.485000133514404,0.6359999775886536 -4.025000095367432,-1.340000033378601 C-4.025000095367432,-1.340000033378601 -2.365000009536743,-1.340999960899353 -0.9819999933242798,-0.8090000152587891 C-0.6790000200271606,-1.6710000038146973 0.3370000123977661,-3.371999979019165 1.8049999475479126,-4.617000102996826 C1.8049999475479126,-4.617000102996826 2.193000078201294,-3.5429999828338623 2.3369998931884766,-2.744999885559082 C2.513000011444092,-3.0880000591278076 3.671999931335449,-3.7820000648498535 3.9749999046325684,-3.7660000324249268 C4.63100004196167,-1.1009999513626099 2.571000099182129,3.9570000171661377 -0.44999998807907104,4.617000102996826z"/></g><g opacity="1" transform="matrix(1,0,0,1,281.5719909667969,238.3090057373047)"><path fill="rgb(0,96,0)" fill-opacity="1" d=" M-1.4869999885559082,-1.159999966621399 C-1.4869999885559082,-1.159999966621399 -1.4759999513626099,-2.5799999237060547 -1.3799999952316284,-2.947000026702881 C-1.3799999952316284,-2.947000026702881 0.41200000047683716,-2.372999906539917 0.8109999895095825,-1.9259999990463257 C0.8109999895095825,-1.9259999990463257 1.1640000343322754,-3.0810000896453857 1.5980000495910645,-3.4149999618530273 C3.61899995803833,-2.052999973297119 3.385999917984009,1.628000020980835 1.875,3.4149999618530273 C1.875,3.4149999618530273 -2.2790000438690186,3.3510000705718994 -3.061000108718872,-0.9259999990463257 C-3.061000108718872,-0.9259999990463257 -1.7100000381469727,-1.25600004196167 -1.4869999885559082,-1.159999966621399z"/><path stroke-linecap="butt" stroke-linejoin="miter" fill-opacity="0" stroke-miterlimit="10" stroke="rgb(0,0,0)" stroke-opacity="1" stroke-width="0.15" d=" M-1.4869999885559082,-1.159999966621399 C-1.4869999885559082,-1.159999966621399 -1.4759999513626099,-2.5799999237060547 -1.3799999952316284,-2.947000026702881 C-1.3799999952316284,-2.947000026702881 0.41200000047683716,-2.372999906539917 0.8109999895095825,-1.9259999990463257 C0.8109999895095825,-1.9259999990463257 1.1640000343322754,-3.0810000896453857 1.5980000495910645,-3.4149999618530273 C3.61899995803833,-2.052999973297119 3.385999917984009,1.628000020980835 1.875,3.4149999618530273 C1.875,3.4149999618530273 -2.2790000438690186,3.3510000705718994 -3.061000108718872,-0.9259999990463257 C-3.061000108718872,-0.9259999990463257 -1.7100000381469727,-1.25600004196167 -1.4869999885559082,-1.159999966621399z"/></g><g opacity="1" transform="matrix(1,0,0,1,277.27899169921875,232.21299743652344)"><path fill="rgb(0,96,0)" fill-opacity="1" d=" M-2.683000087738037,0.3610000014305115 C-2.683000087738037,0.3610000014305115 -1.3209999799728394,0.14900000393390656 -1.3209999799728394,0.14900000393390656 C-1.3209999799728394,0.14900000393390656 -1.406999945640564,-1.149999976158142 -1.5130000114440918,-2.0220000743865967 C-1.5130000114440918,-2.0220000743865967 0.13099999725818634,-1.659000039100647 0.49799999594688416,-1.4199999570846558 C0.49799999594688416,-1.4199999570846558 0.6570000052452087,-2.25 0.7850000262260437,-2.569000005722046 C0.7850000262260437,-2.569000005722046 3.1070001125335693,-0.36500000953674316 2.615000009536743,2.447000026702881 C2.615000009536743,2.447000026702881 -1.2790000438690186,3.3289999961853027 -2.683000087738037,0.3610000014305115z"/><path stroke-linecap="butt" stroke-linejoin="miter" fill-opacity="0" stroke-miterlimit="10" stroke="rgb(0,0,0)" stroke-opacity="1" stroke-width="0.15" d=" M-2.683000087738037,0.3610000014305115 C-2.683000087738037,0.3610000014305115 -1.3209999799728394,0.14900000393390656 -1.3209999799728394,0.14900000393390656 C-1.3209999799728394,0.14900000393390656 -1.406999945640564,-1.149999976158142 -1.5130000114440918,-2.0220000743865967 C-1.5130000114440918,-2.0220000743865967 0.13099999725818634,-1.659000039100647 0.49799999594688416,-1.4199999570846558 C0.49799999594688416,-1.4199999570846558 0.6570000052452087,-2.25 0.7850000262260437,-2.569000005722046 C0.7850000262260437,-2.569000005722046 3.1070001125335693,-0.36500000953674316 2.615000009536743,2.447000026702881 C2.615000009536743,2.447000026702881 -1.2790000438690186,3.3289999961853027 -2.683000087738037,0.3610000014305115z"/></g><g opacity="1" transform="matrix(1,0,0,1,243.0800018310547,290.3269958496094)"><path fill="rgb(0,96,0)" fill-opacity="1" d=" M6.559000015258789,1.6619999408721924 C4.931000232696533,-2.3910000324249268 4.770999908447266,-7.306000232696533 -0.6859999895095825,-6.763000011444092 C-0.6859999895095825,-6.763000011444092 -0.7400000095367432,-3.9549999237060547 -0.07999999821186066,-1.4019999504089355 C-1.2289999723434448,-1.434000015258789 -3.367000102996826,-1.0509999990463257 -4.455999851226807,-0.828000009059906 C-4.455999851226807,-0.828000009059906 -3.760999917984009,1.4490000009536743 -2.697000026702881,2.875 C-3.930999994277954,3.257999897003174 -5.261000156402588,4.76800012588501 -6.559000015258789,6.065999984741211 C-5.239999771118164,7.2789998054504395 1.2289999723434448,7.693999767303467 6.559000015258789,1.6619999408721924z"/><path stroke-linecap="butt" stroke-linejoin="miter" fill-opacity="0" stroke-miterlimit="10" stroke="rgb(0,0,0)" stroke-opacity="1" stroke-width="0.15" d=" M6.559000015258789,1.6619999408721924 C4.931000232696533,-2.3910000324249268 4.770999908447266,-7.306000232696533 -0.6859999895095825,-6.763000011444092 C-0.6859999895095825,-6.763000011444092 -0.7400000095367432,-3.9549999237060547 -0.07999999821186066,-1.4019999504089355 C-1.2289999723434448,-1.434000015258789 -3.367000102996826,-1.0509999990463257 -4.455999851226807,-0.828000009059906 C-4.455999851226807,-0.828000009059906 -3.760999917984009,1.4490000009536743 -2.697000026702881,2.875 C-3.930999994277954,3.257999897003174 -5.261000156402588,4.76800012588501 -6.559000015258789,6.065999984741211 C-5.239999771118164,7.2789998054504395 1.2289999723434448,7.693999767303467 6.559000015258789,1.6619999408721924z"/></g><g opacity="1" transform="matrix(1,0,0,1,231.66799926757812,286.0450134277344)"><path fill="rgb(0,96,0)" fill-opacity="1" d=" M5.934000015258789,3.5820000171661377 C5.519000053405762,0.8679999709129333 6.386000156402588,-3.183000087738037 1.7899999618530273,-5.863999843597412 C1.7899999618530273,-5.863999843597412 0.16200000047683716,-3.3429999351501465 0.7049999833106995,-0.5979999899864197 C-0.3799999952316284,-0.7900000214576721 -2.007999897003174,-0.6620000004768372 -3.5399999618530273,-0.24699999392032623 C-3.5399999618530273,-0.24699999392032623 -3.3489999771118164,1.1890000104904175 -2.2320001125335693,2.7209999561309814 C-3.234999895095825,3.0320000648498535 -4.4019999504089355,3.7100000381469727 -5.934000015258789,4.827000141143799 C-2.200000047683716,7.443999767303467 3.0940001010894775,4.380000114440918 5.934000015258789,3.5820000171661377z"/><path stroke-linecap="butt" stroke-linejoin="miter" fill-opacity="0" stroke-miterlimit="10" stroke="rgb(0,0,0)" stroke-opacity="1" stroke-width="0.15" d=" M5.934000015258789,3.5820000171661377 C5.519000053405762,0.8679999709129333 6.386000156402588,-3.183000087738037 1.7899999618530273,-5.863999843597412 C1.7899999618530273,-5.863999843597412 0.16200000047683716,-3.3429999351501465 0.7049999833106995,-0.5979999899864197 C-0.3799999952316284,-0.7900000214576721 -2.007999897003174,-0.6620000004768372 -3.5399999618530273,-0.24699999392032623 C-3.5399999618530273,-0.24699999392032623 -3.3489999771118164,1.1890000104904175 -2.2320001125335693,2.7209999561309814 C-3.234999895095825,3.0320000648498535 -4.4019999504089355,3.7100000381469727 -5.934000015258789,4.827000141143799 C-2.200000047683716,7.443999767303467 3.0940001010894775,4.380000114440918 5.934000015258789,3.5820000171661377z"/></g><g opacity="1" transform="matrix(1,0,0,1,223.96200561523438,278.989990234375)"><path fill="rgb(0,96,0)" fill-opacity="1" d=" M4.184000015258789,4.745999813079834 C5.915999889373779,2.3389999866485596 5.538000106811523,-3.2139999866485596 3.4639999866485596,-5.288000106811523 C2.3469998836517334,-3.500999927520752 2.1570000648498535,-2.859999895095825 1.8680000305175781,-1.2669999599456787 C0.9110000133514404,-1.937000036239624 -1.3240000009536743,-1.746000051498413 -3.015000104904175,-1.937000036239624 C-3.015000104904175,-1.937000036239624 -2.6459999084472656,-0.5220000147819519 -1.6430000066757202,0.6159999966621399 C-2.4010000228881836,0.19900000095367432 -3.8450000286102295,0.30799999833106995 -5.281000137329102,0.7440000176429749 C-2.8550000190734863,3.489000082015991 -0.4620000123977661,6.552000045776367 4.184000015258789,4.745999813079834z"/><path stroke-linecap="butt" stroke-linejoin="miter" fill-opacity="0" stroke-miterlimit="10" stroke="rgb(0,0,0)" stroke-opacity="1" stroke-width="0.15" d=" M4.184000015258789,4.745999813079834 C5.915999889373779,2.3389999866485596 5.538000106811523,-3.2139999866485596 3.4639999866485596,-5.288000106811523 C2.3469998836517334,-3.500999927520752 2.1570000648498535,-2.859999895095825 1.8680000305175781,-1.2669999599456787 C0.9110000133514404,-1.937000036239624 -1.3240000009536743,-1.746000051498413 -3.015000104904175,-1.937000036239624 C-3.015000104904175,-1.937000036239624 -2.6459999084472656,-0.5220000147819519 -1.6430000066757202,0.6159999966621399 C-2.4010000228881836,0.19900000095367432 -3.8450000286102295,0.30799999833106995 -5.281000137329102,0.7440000176429749 C-2.8550000190734863,3.489000082015991 -0.4620000123977661,6.552000045776367 4.184000015258789,4.745999813079834z"/></g><g opacity="1" transform="matrix(1,0,0,1,221.61000061035156,269.8609924316406)"><path fill="rgb(0,96,0)" fill-opacity="1" d=" M1.909000039100647,4.607999801635742 C4.921999931335449,2.819999933242798 4.666999816894531,-2.509999990463257 4.124000072479248,-4.840000152587891 C4.124000072479248,-4.840000152587891 1.4329999685287476,-1.8849999904632568 1.187999963760376,-0.531000018119812 C0.7739999890327454,-1.340000033378601 -0.47200000286102295,-2.4140000343322754 -2.5460000038146973,-3.2119998931884766 C-2.5460000038146973,-3.2119998931884766 -2.736999988555908,-1.0420000553131104 -2.003000020980835,0.010999999940395355 C-2.562999963760376,-0.27900001406669617 -3.6630001068115234,-0.30799999833106995 -4.460999965667725,-0.3400000035762787 C-3.9660000801086426,2.7880001068115234 -2.066999912261963,5.691999912261963 1.909000039100647,4.607999801635742z"/><path stroke-linecap="butt" stroke-linejoin="miter" fill-opacity="0" stroke-miterlimit="10" stroke="rgb(0,0,0)" stroke-opacity="1" stroke-width="0.15" d=" M1.909000039100647,4.607999801635742 C4.921999931335449,2.819999933242798 4.666999816894531,-2.509999990463257 4.124000072479248,-4.840000152587891 C4.124000072479248,-4.840000152587891 1.4329999685287476,-1.8849999904632568 1.187999963760376,-0.531000018119812 C0.7739999890327454,-1.340000033378601 -0.47200000286102295,-2.4140000343322754 -2.5460000038146973,-3.2119998931884766 C-2.5460000038146973,-3.2119998931884766 -2.736999988555908,-1.0420000553131104 -2.003000020980835,0.010999999940395355 C-2.562999963760376,-0.27900001406669617 -3.6630001068115234,-0.30799999833106995 -4.460999965667725,-0.3400000035762787 C-3.9660000801086426,2.7880001068115234 -2.066999912261963,5.691999912261963 1.909000039100647,4.607999801635742z"/></g><g opacity="1" transform="matrix(1,0,0,1,221.82899475097656,261.1860046386719)"><path fill="rgb(0,96,0)" fill-opacity="1" d=" M0.4830000102519989,4.198999881744385 C2.453000068664551,3.052999973297119 4.428999900817871,-1.465999960899353 3.9690001010894775,-3.441999912261963 C3.9690001010894775,-3.441999912261963 1.718999981880188,-2.005000114440918 1.0010000467300415,-0.9200000166893005 C0.6499999761581421,-1.9730000495910645 -0.21199999749660492,-2.9619998931884766 -1.6799999475479126,-4.206999778747559 C-1.6799999475479126,-4.206999778747559 -2.305999994277954,-2.5480000972747803 -2.450000047683716,-1.75 C-2.9560000896453857,-2.117000102996826 -3.5789999961853027,-2.244999885559082 -3.881999969482422,-2.2290000915527344 C-4.538000106811523,0.4359999895095825 -3.115999937057495,4.408999919891357 0.4830000102519989,4.198999881744385z"/><path stroke-linecap="butt" stroke-linejoin="miter" fill-opacity="0" stroke-miterlimit="10" stroke="rgb(0,0,0)" stroke-opacity="1" stroke-width="0.15" d=" M0.4830000102519989,4.198999881744385 C2.453000068664551,3.052999973297119 4.428999900817871,-1.465999960899353 3.9690001010894775,-3.441999912261963 C3.9690001010894775,-3.441999912261963 1.718999981880188,-2.005000114440918 1.0010000467300415,-0.9200000166893005 C0.6499999761581421,-1.9730000495910645 -0.21199999749660492,-2.9619998931884766 -1.6799999475479126,-4.206999778747559 C-1.6799999475479126,-4.206999778747559 -2.305999994277954,-2.5480000972747803 -2.450000047683716,-1.75 C-2.9560000896453857,-2.117000102996826 -3.5789999961853027,-2.244999885559082 -3.881999969482422,-2.2290000915527344 C-4.538000106811523,0.4359999895095825 -3.115999937057495,4.408999919891357 0.4830000102519989,4.198999881744385z"/></g><g opacity="1" transform="matrix(1,0,0,1,225.03399658203125,252.71800231933594)"><path fill="rgb(0,96,0)" fill-opacity="1" d=" M1.465999960899353,-2.378000020980835 C1.465999960899353,-2.378000020980835 1.371000051498413,-3.191999912261963 1.274999976158142,-3.559000015258789 C1.274999976158142,-3.559000015258789 -0.5329999923706055,-2.0910000801086426 -0.9319999814033508,-1.6440000534057617 C-0.9319999814033508,-1.6440000534057617 -1.0729999542236328,-2.7139999866485596 -1.5069999694824219,-3.0480000972747803 C-2.8310000896453857,-1.628000020980835 -3.927000045776367,1.1970000267028809 -1.8049999475479126,3.559000015258789 C0.3490000069141388,2.8410000801086426 1.88100004196167,1.5800000429153442 2.997999906539917,-2.6010000705718994 C2.997999906539917,-2.6010000705718994 1.6890000104904175,-2.4739999771118164 1.465999960899353,-2.378000020980835z"/><path stroke-linecap="butt" stroke-linejoin="miter" fill-opacity="0" stroke-miterlimit="10" stroke="rgb(0,0,0)" stroke-opacity="1" stroke-width="0.15" d=" M1.465999960899353,-2.378000020980835 C1.465999960899353,-2.378000020980835 1.371000051498413,-3.191999912261963 1.274999976158142,-3.559000015258789 C1.274999976158142,-3.559000015258789 -0.5329999923706055,-2.0910000801086426 -0.9319999814033508,-1.6440000534057617 C-0.9319999814033508,-1.6440000534057617 -1.0729999542236328,-2.7139999866485596 -1.5069999694824219,-3.0480000972747803 C-2.8310000896453857,-1.628000020980835 -3.927000045776367,1.1970000267028809 -1.8049999475479126,3.559000015258789 C0.3490000069141388,2.8410000801086426 1.88100004196167,1.5800000429153442 2.997999906539917,-2.6010000705718994 C2.997999906539917,-2.6010000705718994 1.6890000104904175,-2.4739999771118164 1.465999960899353,-2.378000020980835z"/></g><g opacity="1" transform="matrix(0.9999994039535522,-0.0011170104844495654,0.0011170104844495654,0.9999994039535522,229.468994140625,244.4429931640625)"><path fill="rgb(0,96,0)" fill-opacity="1" d=" M2.7279999256134033,-1.2510000467300415 C2.7279999256134033,-1.2510000467300415 1.2599999904632568,-1.1230000257492065 1.2599999904632568,-1.1230000257492065 C1.2599999904632568,-1.1230000257492065 1.1959999799728394,-2.0810000896453857 1.2599999904632568,-2.9590001106262207 C1.2599999904632568,-2.9590001106262207 0.03099999949336052,-2.111999988555908 -0.335999995470047,-1.8730000257492065 C-0.335999995470047,-1.8730000257492065 -0.6389999985694885,-2.5920000076293945 -0.7670000195503235,-2.9110000133514404 C-0.7670000195503235,-2.9110000133514404 -3.2720000743865967,0.5360000133514404 -2.619999885559082,2.9590001106262207 C-1.0540000200271606,2.881999969482422 1.3240000009536743,1.7170000076293945 2.7279999256134033,-1.2510000467300415z"/><path stroke-linecap="butt" stroke-linejoin="miter" fill-opacity="0" stroke-miterlimit="10" stroke="rgb(0,0,0)" stroke-opacity="1" stroke-width="0.15" d=" M2.7279999256134033,-1.2510000467300415 C2.7279999256134033,-1.2510000467300415 1.2599999904632568,-1.1230000257492065 1.2599999904632568,-1.1230000257492065 C1.2599999904632568,-1.1230000257492065 1.1959999799728394,-2.0810000896453857 1.2599999904632568,-2.9590001106262207 C1.2599999904632568,-2.9590001106262207 0.03099999949336052,-2.111999988555908 -0.335999995470047,-1.8730000257492065 C-0.335999995470047,-1.8730000257492065 -0.6389999985694885,-2.5920000076293945 -0.7670000195503235,-2.9110000133514404 C-0.7670000195503235,-2.9110000133514404 -3.2720000743865967,0.5360000133514404 -2.619999885559082,2.9590001106262207 C-1.0540000200271606,2.881999969482422 1.3240000009536743,1.7170000076293945 2.7279999256134033,-1.2510000467300415z"/></g><g opacity="1" transform="matrix(1,0,0,1,253.75100708007812,293.2019958496094)"><path stroke-linecap="round" stroke-linejoin="bevel" fill-opacity="0" stroke="rgb(0,75,179)" stroke-opacity="1" stroke-width="1.5" d=" M3.546999931335449,1.4359999895095825 C3.546999931335449,1.4359999895095825 2.749000072479248,-2.552999973297119 0.2280000001192093,-3.319000005722046 C-1.7020000219345093,-7.254000186920166 -3.7730000019073486,-7.7230000495910645 -4.335000038146973,-4.304999828338623 C-4.868000030517578,-1.0609999895095825 -0.3919999897480011,-2.690000057220459 0.21699999272823334,-3.1579999923706055 C0.1940000057220459,-4.257999897003174 1.5750000476837158,-10.859999656677246 3.681999921798706,-7.488999843597412 C5.789000034332275,-4.118000030517578 2.11299991607666,-3.7320001125335693 0.3109999895095825,-3.00600004196167 C-1.4910000562667847,-2.2799999713897705 -3.609999895095825,0.34200000762939453 -3.3289999961853027,3.2909998893737793"/></g></g><g style="display: block;" transform="matrix(0.800000011920929,0,0,0.800000011920929,53.20000457763672,44.800010681152344)" opacity="1"><g opacity="1" transform="matrix(1,0,0,1,253.11199951171875,257.8399963378906)"><path stroke-linecap="butt" stroke-linejoin="miter" fill-opacity="0" stroke-miterlimit="10" stroke="rgb(255,209,26)" stroke-opacity="1" stroke-width="4" d=" M-17.89900016784668,44.39400100708008 C-34.70000076293945,37.65599822998047 -42.03200149536133,25.41699981689453 -42.61000061035156,12.131999969482422 C-43.67399978637695,-12.336000442504883 -21.82699966430664,-40.35100173950195 5.9730000495910645,-44.07400131225586 C27.82699966430664,-47.000999450683594 43.20600128173828,-29.429000854492188 42.63100051879883,-7.881999969482422 C42.25699996948242,6.144999980926514 35.12200164794922,21.856000900268555 18.61199951171875,34.69200134277344"/></g></g><g style="display: block;" transform="matrix(0.800000011920929,0,0,0.800000011920929,257.9656066894531,250.03680419921875)" opacity="0.35000000000000003"><g opacity="1" transform="matrix(1,0,0,1,0,0)"><path fill="url(#__lottie_element_20563)" mask="url(#__lottie_element_20565)" fill-opacity="1" d="M0 0 M-246.5,-145.5 C-246.5,-139 -246.5,144.218994140625 -246.5,146.593994140625 C-244.71200561523438,146.76499938964844 -241.55099487304688,147.5780029296875 -237.75900268554688,148.50999450683594 C-220.5,152.75 -191.07200622558594,159.75999450683594 -178.26499938964844,161.58399963378906 C-147.25,166 -127.13200378417969,165.62600708007812 -103.76799774169922,164.74600219726562 C-50.75,162.75 -4.125,146.125 27.19499969482422,139.3300018310547 C47.95800018310547,134.8249969482422 68.79000091552734,130.64500427246094 83.74700164794922,128.94000244140625 C106.25,126.375 122.875,126.75 143.25,128.35899353027344 C183.33700561523438,131.52499389648438 227.81300354003906,143.81199645996094 241.43800354003906,147.031005859375 C241.43800354003906,147.09300231933594 241.406005859375,147.09300231933594 241.406005859375,147.06199645996094 C241.406005859375,147.06199645996094 241.406005859375,147.06199645996094 241.406005859375,147.06199645996094 C241.56199645996094,120.56199645996094 241.23399353027344,82.29100036621094 241.25,49.90599822998047 C241.26600646972656,17.08300018310547 241.43699645996094,-15.739999771118164 241.5,-48.5629997253418 C241.56199645996094,-80.91699981689453 241.5,-128.75 241.625,-145.625 C151.281005859375,-172.5 103.15699768066406,-165.1009979248047 78.5,-162.81199645996094 C40.125,-159.25 0.8299999833106995,-139.16400146484375 -83.375,-129.06199645996094 C-157.875,-120.1240005493164 -212.75,-139.625 -246.5,-145.5z"/></g></g><g style="display: block;" transform="matrix(0.800000011920929,0,0,0.800000011920929,257.9656066894531,250.03680419921875)" opacity="0.15"><g opacity="1" transform="matrix(1,0,0,1,0,0)"><path fill="rgb(255,255,255)" fill-opacity="1" d=" M-246.875,-146 C-246.83700561523438,-139.70399475097656 -246.875,-138 -246.79200744628906,-132.81100463867188 C-237.5,-136.25 -197.25,-114 -124.49600219726562,-114.31099700927734 C-38.992000579833984,-114.6760025024414 39.233001708984375,-153.25 121.70800018310547,-153.39700317382812 C179.75,-153.5 241,-132.25 240.91200256347656,-131.552001953125 C241,-140.5 241.375,-144.625 241.375,-144.625 C241.375,-144.625 179.75,-166.25 122.5,-166 C39.49700164794922,-165.63800048828125 -39.5,-128 -124.25,-126.81199645996094 C-197.0449981689453,-125.79199981689453 -237.75,-149 -246.875,-146z"/></g></g><g style="display: block;" transform="matrix(0.800000011920929,0,0,0.800000011920929,257.9656066894531,250.03680419921875)" opacity="0.15"><g opacity="1" transform="matrix(1,0,0,1,0,0)"><path fill="rgb(0,0,0)" fill-opacity="1" d=" M122.5,112.25 C34,112.25 -36,149.5 -123.5,152 C-140.61700439453125,152.48899841308594 -155.82000732421875,151.3489990234375 -170.41099548339844,149.1280059814453 C-195.23399353027344,145.35000610351562 -218.28900146484375,138.4459991455078 -246,131.125 C-246.25,134.5 -246,141.375 -246,145.125 C-218.5749969482422,153.30599975585938 -195.61700439453125,159.55499267578125 -170.83099365234375,163.0050048828125 C-155.8520050048828,165.08999633789062 -140.20399475097656,166.15199279785156 -122.5,166 C-35,165.25 33.5,126.625 121.75,126.5 C126.26799774169922,126.49400329589844 131.11399841308594,126.59500122070312 136.27699279785156,126.83899688720703 C163.25900268554688,128.11300659179688 198.88099670410156,133.2550048828125 241.375,147 C241.375,147 241.25,134.75 241.5,131.125 C199.093994140625,118.93299865722656 163.16200256347656,113.84500122070312 136.1439971923828,112.58000183105469 C131.30499267578125,112.35399627685547 126.75299835205078,112.25 122.5,112.25z"/></g></g><g style="display: block;" transform="matrix(0.800000011920929,0,0,0.800000011920929,257.9656066894531,250.03680419921875)" opacity="1"><g opacity="1" transform="matrix(1,0,0,1,0,0)"><path stroke-linecap="round" stroke-linejoin="round" fill-opacity="0" stroke="rgb(11,25,83)" stroke-opacity="1" stroke-width="8" d=" M-246.5,48.20399856567383 C-246.5,101.73200225830078 -246.5,145.6649932861328 -246.5,146.593994140625 C-244.71200561523438,146.76499938964844 -241.55099487304688,147.5780029296875 -237.75900268554688,148.50999450683594 C-220.5,152.75 -191.07200622558594,159.75999450683594 -178.26499938964844,161.58399963378906 C-147.25,166 -127.13200378417969,165.62600708007812 -103.76799774169922,164.74600219726562 C-50.75,162.75 -4.125,146.125 27.19499969482422,139.3300018310547 C47.95800018310547,134.8249969482422 68.79000091552734,130.64500427246094 83.74700164794922,128.94000244140625 C106.25,126.375 122.875,126.75 143.25,128.35899353027344 C183.33700561523438,131.52499389648438 217.79400634765625,139.2030029296875 241.43800354003906,147.031005859375 C241.43800354003906,147.09300231933594 241.406005859375,147.09300231933594 241.406005859375,147.06199645996094 C241.406005859375,147.06199645996094 241.406005859375,147.06199645996094 241.406005859375,147.06199645996094 C241.56199645996094,120.56199645996094 241.23399353027344,82.29100036621094 241.25,49.90599822998047"/></g><g opacity="1" transform="matrix(1,0,0,1,0,0)"><path stroke-linecap="round" stroke-linejoin="round" fill-opacity="0" stroke="rgb(11,25,83)" stroke-opacity="1" stroke-width="8" d=" M241.5,-48.5629997253418 C241.56199645996094,-80.91699981689453 241.5,-128.75 241.625,-145.625 C151.281005859375,-172.5 103.15699768066406,-165.1009979248047 78.5,-162.81199645996094 C40.125,-159.25 -36.957000732421875,-134.04600524902344 -83.375,-129.06199645996094 C-157.875,-120.1240005493164 -212.75,-139.625 -246.5,-145.5 C-246.5,-143.0330047607422 -246.5,-100.6969985961914 -246.5,-48.98400115966797"/></g><g opacity="1" transform="matrix(1,0,0,1,0,0)"><path stroke-linecap="butt" stroke-linejoin="miter" fill-opacity="0" stroke-miterlimit="4" stroke="rgb(111,111,111)" stroke-opacity="1" stroke-width="8" d=" M241.5,-48.5629997253418 C241.43699645996094,-15.739999771118164 241.26600646972656,17.08300018310547 241.25,49.90599822998047"/></g><g opacity="1" transform="matrix(1,0,0,1,0,0)"><path stroke-linecap="butt" stroke-linejoin="miter" fill-opacity="0" stroke-miterlimit="4" stroke="rgb(111,111,111)" stroke-opacity="1" stroke-width="8" d=" M-246.48800659179688,-48.99399948120117 C-246.48800659179688,-48.99399948120117 -246.5189971923828,48.0359992980957 -246.5189971923828,48.0359992980957"/></g></g></g></svg>