<svg xmlns="http://www.w3.org/2000/svg" xmlns:xlink="http://www.w3.org/1999/xlink" viewBox="0 0 512 512" width="512" height="512" style="width: 100%; height: 100%; transform: translate3d(0,0,0);" preserveAspectRatio="xMidYMid meet"><defs><clipPath id="__lottie_element_28654"><rect width="512" height="512" x="0" y="0"/></clipPath><radialGradient id="__lottie_element_28667" spreadMethod="pad" gradientUnits="userSpaceOnUse" cx="-0.7630000114440918" cy="-0.014000000432133675" r="77.163001537323" fx="-0.7630000114440918" fy="-0.014000000432133675"><stop offset="20%" stop-color="rgb(245,206,118)"/><stop offset="74%" stop-color="rgb(220,168,81)"/><stop offset="100%" stop-color="rgb(195,130,45)"/></radialGradient><radialGradient id="__lottie_element_28668" spreadMethod="pad" gradientUnits="userSpaceOnUse" cx="-0.3970000147819519" cy="4.322000026702881" r="68.25914139777731" fx="-0.3970000147819519" fy="4.322000026702881"><stop offset="47%" stop-color="rgb(249,225,150)"/><stop offset="76%" stop-color="rgb(239,192,106)"/><stop offset="100%" stop-color="rgb(230,159,61)"/></radialGradient><radialGradient id="__lottie_element_28669" spreadMethod="pad" gradientUnits="userSpaceOnUse" cx="-0.8970000147819519" cy="8.503000259399414" r="77.50139090141742" fx="-0.8970000147819519" fy="8.503000259399414"><stop offset="47%" stop-color="rgb(249,225,150)"/><stop offset="76%" stop-color="rgb(239,192,106)"/><stop offset="100%" stop-color="rgb(230,159,61)"/></radialGradient><radialGradient id="__lottie_element_28670" spreadMethod="pad" gradientUnits="userSpaceOnUse" cx="6.103000164031982" cy="35.73400115966797" r="88.77344253685536" fx="6.103000164031982" fy="35.73400115966797"><stop offset="47%" stop-color="rgb(249,225,150)"/><stop offset="76%" stop-color="rgb(239,192,106)"/><stop offset="100%" stop-color="rgb(230,159,61)"/></radialGradient><linearGradient id="__lottie_element_28671" spreadMethod="pad" gradientUnits="userSpaceOnUse" x1="0.5080000162124634" y1="81.39800262451172" x2="0.14900000393390656" y2="-81.35199737548828"><stop offset="0%" stop-color="rgb(230,159,61)"/><stop offset="15%" stop-color="rgb(239,192,106)"/><stop offset="31%" stop-color="rgb(249,225,150)"/><stop offset="53%" stop-color="rgb(249,225,150)"/><stop offset="71%" stop-color="rgb(249,225,150)"/><stop offset="85%" stop-color="rgb(239,192,106)"/><stop offset="100%" stop-color="rgb(230,159,61)"/></linearGradient><linearGradient id="__lottie_element_28672" spreadMethod="pad" gradientUnits="userSpaceOnUse" x1="0.5080000162124634" y1="81.39800262451172" x2="0.14900000393390656" y2="-81.35199737548828"><stop offset="0%" stop-color="rgb(230,159,61)"/><stop offset="15%" stop-color="rgb(239,192,106)"/><stop offset="31%" stop-color="rgb(249,225,150)"/><stop offset="53%" stop-color="rgb(249,225,150)"/><stop offset="71%" stop-color="rgb(249,225,150)"/><stop offset="85%" stop-color="rgb(239,192,106)"/><stop offset="100%" stop-color="rgb(230,159,61)"/></linearGradient><linearGradient id="__lottie_element_28673" spreadMethod="pad" gradientUnits="userSpaceOnUse" x1="0.5080000162124634" y1="81.39800262451172" x2="0.14900000393390656" y2="-81.35199737548828"><stop offset="0%" stop-color="rgb(230,159,61)"/><stop offset="15%" stop-color="rgb(239,192,106)"/><stop offset="31%" stop-color="rgb(249,225,150)"/><stop offset="53%" stop-color="rgb(249,225,150)"/><stop offset="71%" stop-color="rgb(249,225,150)"/><stop offset="85%" stop-color="rgb(239,192,106)"/><stop offset="100%" stop-color="rgb(230,159,61)"/></linearGradient><linearGradient id="__lottie_element_28674" spreadMethod="pad" gradientUnits="userSpaceOnUse" x1="0.5080000162124634" y1="81.39800262451172" x2="0.14900000393390656" y2="-81.35199737548828"><stop offset="0%" stop-color="rgb(230,159,61)"/><stop offset="15%" stop-color="rgb(239,192,106)"/><stop offset="31%" stop-color="rgb(249,225,150)"/><stop offset="53%" stop-color="rgb(249,225,150)"/><stop offset="71%" stop-color="rgb(249,225,150)"/><stop offset="85%" stop-color="rgb(239,192,106)"/><stop offset="100%" stop-color="rgb(230,159,61)"/></linearGradient><linearGradient id="__lottie_element_28675" spreadMethod="pad" gradientUnits="userSpaceOnUse" x1="0.5080000162124634" y1="81.39800262451172" x2="0.14900000393390656" y2="-81.35199737548828"><stop offset="0%" stop-color="rgb(230,159,61)"/><stop offset="15%" stop-color="rgb(239,192,106)"/><stop offset="31%" stop-color="rgb(249,225,150)"/><stop offset="53%" stop-color="rgb(249,225,150)"/><stop offset="71%" stop-color="rgb(249,225,150)"/><stop offset="85%" stop-color="rgb(239,192,106)"/><stop offset="100%" stop-color="rgb(230,159,61)"/></linearGradient><radialGradient id="__lottie_element_28678" spreadMethod="pad" gradientUnits="userSpaceOnUse"><stop/><stop/><stop/></radialGradient><radialGradient id="__lottie_element_28679" spreadMethod="pad" gradientUnits="userSpaceOnUse"><stop/><stop/><stop/></radialGradient><linearGradient id="__lottie_element_28684" spreadMethod="pad" gradientUnits="userSpaceOnUse" x1="-11.704000473022461" y1="-62.779998779296875" x2="5.189000129699707" y2="84.6520004272461"><stop offset="0%" stop-color="rgb(255,255,255)"/><stop offset="28%" stop-color="rgb(249,247,243)"/><stop offset="56%" stop-color="rgb(243,238,231)"/><stop offset="82%" stop-color="rgb(225,212,184)"/><stop offset="100%" stop-color="rgb(207,186,137)"/></linearGradient><linearGradient id="__lottie_element_28685" spreadMethod="pad" gradientUnits="userSpaceOnUse" x1="41.9010009765625" y1="14.3149995803833" x2="-84.06500244140625" y2="-11.109000205993652"><stop offset="0%" stop-color="rgb(255,255,255)"/><stop offset="28%" stop-color="rgb(249,247,243)"/><stop offset="56%" stop-color="rgb(243,238,231)"/><stop offset="82%" stop-color="rgb(225,212,184)"/><stop offset="100%" stop-color="rgb(207,186,137)"/></linearGradient><radialGradient id="__lottie_element_28698" spreadMethod="pad" gradientUnits="userSpaceOnUse" cx="0.39800000190734863" cy="-2.499000072479248" r="104.7400004863739" fx="0.39800000190734863" fy="-2.499000072479248"><stop offset="10%" stop-color="rgb(249,225,150)"/><stop offset="55%" stop-color="rgb(239,192,106)"/><stop offset="100%" stop-color="rgb(230,159,61)"/></radialGradient><radialGradient id="__lottie_element_28699" spreadMethod="pad" gradientUnits="userSpaceOnUse" cx="-1.5290000438690186" cy="3.4749999046325684" r="80.09200358390808" fx="-1.5290000438690186" fy="3.4749999046325684"><stop offset="10%" stop-color="rgb(249,222,151)"/><stop offset="60%" stop-color="rgb(239,190,106)"/><stop offset="100%" stop-color="rgb(230,159,61)"/></radialGradient></defs><g clip-path="url(#__lottie_element_28654)"><g style="display: block;" transform="matrix(0.9800000190734863,0,0,0.9800000190734863,-327.9200134277344,-0.8800048828125)" opacity="1"><g opacity="1" transform="matrix(1,0,0,1,602.6060180664062,409.93798828125)"><path fill="url(#__lottie_element_28667)" fill-opacity="1" d=" M-72.71800231933594,-69.88099670410156 C-72.71800231933594,-69.88099670410156 -56.80799865722656,56.904998779296875 -56.80799865722656,56.904998779296875 C-56.44200134277344,59.82099914550781 -54.393001556396484,62.2599983215332 -51.577999114990234,63.10499954223633 C-7.671000003814697,76.27999877929688 34.63399887084961,66.85299682617188 48.43600082397461,63.03499984741211 C51.27299880981445,62.25 53.38199996948242,59.875 53.816001892089844,56.9630012512207 C53.816001892089844,56.9630012512207 72.71800231933594,-69.88099670410156 72.71800231933594,-69.88099670410156"/><path stroke-linecap="round" stroke-linejoin="round" fill-opacity="0" stroke="rgb(184,129,69)" stroke-opacity="1" stroke-width="8" d=" M-72.71800231933594,-69.88099670410156 C-72.71800231933594,-69.88099670410156 -56.80799865722656,56.904998779296875 -56.80799865722656,56.904998779296875 C-56.44200134277344,59.82099914550781 -54.393001556396484,62.2599983215332 -51.577999114990234,63.10499954223633 C-7.671000003814697,76.27999877929688 34.63399887084961,66.85299682617188 48.43600082397461,63.03499984741211 C51.27299880981445,62.25 53.38199996948242,59.875 53.816001892089844,56.9630012512207 C53.816001892089844,56.9630012512207 72.71800231933594,-69.88099670410156 72.71800231933594,-69.88099670410156"/></g><g opacity="1" transform="matrix(1,0,0,1,601.739013671875,441.60198974609375)"><path fill="url(#__lottie_element_28668)" fill-opacity="1" d=" M-44.349998474121094,-5.90500020980835 C-54.18199920654297,-7.184999942779541 -59.9010009765625,-8.086000442504883 -59.9010009765625,-8.086000442504883 C-63.36399841308594,-8.715999603271484 -66.02400207519531,0.7789999842643738 -58.72999954223633,2.5230000019073486 C-53.946998596191406,3.6670000553131104 -48.784000396728516,4.610000133514404 -43.3849983215332,5.379000186920166 C-43.3849983215332,5.379000186920166 -29.704999923706055,6.927000045776367 -29.704999923706055,6.927000045776367 C-21.805999755859375,7.611000061035156 -13.670000076293945,7.98799991607666 -5.660999774932861,8.116000175476074 C-5.660999774932861,8.116000175476074 8.295000076293945,8.093000411987305 8.295000076293945,8.093000411987305 C16.461000442504883,7.936999797821045 24.236000061035156,7.539999961853027 31.187000274658203,6.9670000076293945 C31.187000274658203,6.9670000076293945 44.90999984741211,5.460000038146973 44.90999984741211,5.460000038146973 C51.909000396728516,4.453000068664551 57.06800079345703,3.242000102996826 59.48699951171875,1.9630000591278076 C65.80699920654297,-1.378000020980835 63.01599884033203,-8.444999694824219 60.80400085449219,-8.086000442504883 C55.77199935913086,-7.269999980926514 50.79399871826172,-6.580999851226807 45.88999938964844,-6.004000186920166 C45.88999938964844,-6.004000186920166 1.0130000114440918,0 -44.349998474121094,-5.90500020980835z"/><path stroke-linecap="round" stroke-linejoin="round" fill-opacity="0" stroke="rgb(221,167,82)" stroke-opacity="1" stroke-width="6" d=" M-44.349998474121094,-5.90500020980835 C-54.18199920654297,-7.184999942779541 -59.9010009765625,-8.086000442504883 -59.9010009765625,-8.086000442504883 C-63.36399841308594,-8.715999603271484 -66.02400207519531,0.7789999842643738 -58.72999954223633,2.5230000019073486 C-53.946998596191406,3.6670000553131104 -48.784000396728516,4.610000133514404 -43.3849983215332,5.379000186920166 C-43.3849983215332,5.379000186920166 -29.704999923706055,6.927000045776367 -29.704999923706055,6.927000045776367 C-21.805999755859375,7.611000061035156 -13.670000076293945,7.98799991607666 -5.660999774932861,8.116000175476074 C-5.660999774932861,8.116000175476074 8.295000076293945,8.093000411987305 8.295000076293945,8.093000411987305 C16.461000442504883,7.936999797821045 24.236000061035156,7.539999961853027 31.187000274658203,6.9670000076293945 C31.187000274658203,6.9670000076293945 44.90999984741211,5.460000038146973 44.90999984741211,5.460000038146973 C51.909000396728516,4.453000068664551 57.06800079345703,3.242000102996826 59.48699951171875,1.9630000591278076 C65.80699920654297,-1.378000020980835 63.01599884033203,-8.444999694824219 60.80400085449219,-8.086000442504883 C55.77199935913086,-7.269999980926514 50.79399871826172,-6.580999851226807 45.88999938964844,-6.004000186920166 C45.88999938964844,-6.004000186920166 1.0130000114440918,0 -44.349998474121094,-5.90500020980835z"/></g><g opacity="1" transform="matrix(1,0,0,1,601.739013671875,410.1700134277344)"><path fill="url(#__lottie_element_28669)" fill-opacity="1" d=" M-47.05799865722656,-6.084000110626221 C-57.915000915527344,-7.324999809265137 -64.22699737548828,-8.317000389099121 -64.22699737548828,-8.317000389099121 C-67.94100189208984,-8.946999549865723 -70.79199981689453,0.5479999780654907 -62.97100067138672,2.2920000553131104 C-57.71699905395508,3.4639999866485596 -52.02199935913086,4.326000213623047 -46.09199905395508,5.204999923706055 C1.1890000104904175,12.217000007629395 47.61600112915039,5.300000190734863 47.61600112915039,5.300000190734863 C55.391998291015625,4.2789998054504395 61.12799835205078,3.0420000553131104 63.78300094604492,1.7330000400543213 C70.55899810791016,-1.6080000400543213 67.56800079345703,-8.675999641418457 65.19599914550781,-8.317000389099121 C59.59199905395508,-7.468999862670898 54.051998138427734,-6.758999824523926 48.59700012207031,-6.169000148773193 C48.59700012207031,-6.169000148773193 1.5800000429153442,-0.5230000019073486 -47.05799865722656,-6.084000110626221z"/><path stroke-linecap="round" stroke-linejoin="round" fill-opacity="0" stroke="rgb(221,167,82)" stroke-opacity="1" stroke-width="6" d=" M-47.05799865722656,-6.084000110626221 C-57.915000915527344,-7.324999809265137 -64.22699737548828,-8.317000389099121 -64.22699737548828,-8.317000389099121 C-67.94100189208984,-8.946999549865723 -70.79199981689453,0.5479999780654907 -62.97100067138672,2.2920000553131104 C-57.71699905395508,3.4639999866485596 -52.02199935913086,4.326000213623047 -46.09199905395508,5.204999923706055 C1.1890000104904175,12.217000007629395 47.61600112915039,5.300000190734863 47.61600112915039,5.300000190734863 C55.391998291015625,4.2789998054504395 61.12799835205078,3.0420000553131104 63.78300094604492,1.7330000400543213 C70.55899810791016,-1.6080000400543213 67.56800079345703,-8.675999641418457 65.19599914550781,-8.317000389099121 C59.59199905395508,-7.468999862670898 54.051998138427734,-6.758999824523926 48.59700012207031,-6.169000148773193 C48.59700012207031,-6.169000148773193 1.5800000429153442,-0.5230000019073486 -47.05799865722656,-6.084000110626221z"/></g><g opacity="1" transform="matrix(1,0,0,1,600.239013671875,378.19000244140625)"><path fill="url(#__lottie_element_28670)" fill-opacity="1" d=" M68.92400360107422,2.240999937057495 C76.10700225830078,-1.100000023841858 73.17400360107422,-9.526000022888184 70.66000366210938,-9.166999816894531 C64.6500015258789,-8.309000015258789 57.154998779296875,-7.236000061035156 51.30699920654297,-6.640999794006348 C51.30699920654297,-6.640999794006348 36.96500015258789,-5.406000137329102 36.96500015258789,-5.406000137329102 C27.180999755859375,-4.711999893188477 17.756000518798828,-4.340000152587891 8.836000442504883,-4.204999923706055 C8.836000442504883,-4.204999923706055 -6.202000141143799,-4.190999984741211 -6.202000141143799,-4.190999984741211 C-17.0939998626709,-4.335000038146973 -26.952999114990234,-4.796999931335449 -35.441001892089844,-5.377999782562256 C-35.441001892089844,-5.377999782562256 -49.76900100708008,-6.565000057220459 -49.76900100708008,-6.565000057220459 C-61.35900115966797,-7.701000213623047 -66.64299774169922,-9.059000015258789 -66.64299774169922,-9.059000015258789 C-70.5790023803711,-9.689000129699707 -73.66400146484375,0.8690000176429749 -65.3740005493164,2.61299991607666 C-59.78900146484375,3.7880001068115234 -55.11800003051758,4.896999835968018 -48.80400085449219,5.71999979019165 C4.519999980926514,12.668000221252441 50.32699966430664,5.826000213623047 50.32699966430664,5.826000213623047 C58.64400100708008,4.802000045776367 66.09300231933594,3.558000087738037 68.92400360107422,2.240999937057495z"/><path stroke-linecap="round" stroke-linejoin="round" fill-opacity="0" stroke="rgb(221,167,82)" stroke-opacity="1" stroke-width="6" d=" M68.92400360107422,2.240999937057495 C76.10700225830078,-1.100000023841858 73.17400360107422,-9.526000022888184 70.66000366210938,-9.166999816894531 C64.6500015258789,-8.309000015258789 57.154998779296875,-7.236000061035156 51.30699920654297,-6.640999794006348 C51.30699920654297,-6.640999794006348 36.96500015258789,-5.406000137329102 36.96500015258789,-5.406000137329102 C27.180999755859375,-4.711999893188477 17.756000518798828,-4.340000152587891 8.836000442504883,-4.204999923706055 C8.836000442504883,-4.204999923706055 -6.202000141143799,-4.190999984741211 -6.202000141143799,-4.190999984741211 C-17.0939998626709,-4.335000038146973 -26.952999114990234,-4.796999931335449 -35.441001892089844,-5.377999782562256 C-35.441001892089844,-5.377999782562256 -49.76900100708008,-6.565000057220459 -49.76900100708008,-6.565000057220459 C-61.35900115966797,-7.701000213623047 -66.64299774169922,-9.059000015258789 -66.64299774169922,-9.059000015258789 C-70.5790023803711,-9.689000129699707 -73.66400146484375,0.8690000176429749 -65.3740005493164,2.61299991607666 C-59.78900146484375,3.7880001068115234 -55.11800003051758,4.896999835968018 -48.80400085449219,5.71999979019165 C4.519999980926514,12.668000221252441 50.32699966430664,5.826000213623047 50.32699966430664,5.826000213623047 C58.64400100708008,4.802000045776367 66.09300231933594,3.558000087738037 68.92400360107422,2.240999937057495z"/></g><g opacity="1" transform="matrix(1,0,0,1,0,0)"><path stroke-linecap="round" stroke-linejoin="round" fill-opacity="0" stroke="rgb(197,136,63)" stroke-opacity="1" stroke-width="5" d=" M557.375,435.68798828125 C557.375,435.68798828125 552.125,434.875 541.75,433.375 C537.5,434.125 536.5260009765625,442.322998046875 543,444.125 C555.125,447.5 613.75,454.75 659.875,444.375 C665.375,442.875 667.125,433.25 661.75,433.625 C654.625,434.75 649.875,435.375 647.625,435.625"/></g><g opacity="1" transform="matrix(1,0,0,1,0,0)"><path stroke-linecap="round" stroke-linejoin="round" fill-opacity="0" stroke="rgb(197,135,63)" stroke-opacity="1" stroke-width="5" d=" M555.625,415.5 C555.625,415.5 545,413.5 538.875,412.625 C532.75,411.75 532.375,401.875 537.875,401.625 C542.625,402.5 554.75,404.125 554.75,404.125"/></g><g opacity="1" transform="matrix(1,0,0,1,0,0)"><path stroke-linecap="round" stroke-linejoin="round" fill-opacity="0" stroke="rgb(197,135,63)" stroke-opacity="1" stroke-width="5" d=" M552.5,384.125 C552.5,384.125 539.4959716796875,382.0220031738281 535.25,381.25 C528.375,380 527.625,369.125 533.75,369.25 C538,369.875 551.93798828125,371.718994140625 551.93798828125,371.718994140625"/></g><g opacity="1" transform="matrix(1,0,0,1,0,0)"><path stroke-linecap="round" stroke-linejoin="round" fill-opacity="0" stroke="rgb(197,135,63)" stroke-opacity="1" stroke-width="5" d=" M653.125,371.375 C653.125,371.375 665.625,370 670.5,369.125 C674.625,369.625 675.5499877929688,378.239013671875 668.5,380.5 C661.875,382.625 652,383.625 652,383.625"/></g><g opacity="1" transform="matrix(1,0,0,1,0,0)"><path stroke-linecap="round" stroke-linejoin="round" fill-opacity="0" stroke="rgb(197,135,63)" stroke-opacity="1" stroke-width="5" d=" M650.25,404 C650.25,404 663,402.5 666.25,401.75 C669.5,401 672.5,407.375 665.75,412 C656.875,414.75 649.25,415.5 649.25,415.5"/></g><g opacity="1" transform="matrix(1,0,0,1,602.9910278320312,410.4330139160156)"><path fill="url(#__lottie_element_28671)" fill-opacity="1" d=" M7.826000213623047,-69.37699890136719 C7.826000213623047,-69.37699890136719 6.826000213623047,69.16699981689453 6.826000213623047,69.16699981689453 C6.826000213623047,69.16699981689453 -4.959000110626221,69.69200134277344 -6.696000099182129,69.38600158691406 C-6.985000133514404,54.632999420166016 -8.22700023651123,-65.91799926757812 -7.696000099182129,-69.37699890136719 C-7.413000106811523,-71.22000122070312 7.928999900817871,-70.58499908447266 7.826000213623047,-69.37699890136719z"/></g><g opacity="1" transform="matrix(1,0,0,1,561.7509765625,408.3800048828125)"><path fill="url(#__lottie_element_28672)" fill-opacity="1" d=" M-12.52299976348877,-68.70099639892578 C-12.52299976348877,-68.70099639892578 -0.9509999752044678,67.23100280761719 -0.9509999752044678,67.23100280761719 C-0.9509999752044678,67.23100280761719 8.878000259399414,70.28199768066406 12.52299976348877,69.48600006103516 C11.503000259399414,57.957000732421875 2.8269999027252197,-64.78500366210938 2.2960000038146973,-68.24400329589844 C2.013000011444092,-70.08699798583984 -12.62600040435791,-69.90899658203125 -12.52299976348877,-68.70099639892578z"/></g><g opacity="1" transform="matrix(1,0,0,1,643.0999755859375,406.7760009765625)"><path fill="url(#__lottie_element_28673)" fill-opacity="1" d=" M12.710000038146973,-66.78099822998047 C12.710000038146973,-66.78099822998047 1,67.95099639892578 1,67.95099639892578 C1,67.95099639892578 -11.913000106811523,70.66200256347656 -11.991999626159668,70.70099639892578 C-12.100000381469727,70.7249984741211 -2.0380001068115234,-66.55699920654297 -2.062999963760376,-66.625 C-2.2249999046325684,-68.48200225830078 12.812999725341797,-67.98899841308594 12.710000038146973,-66.78099822998047z"/></g><g opacity="1" transform="matrix(1,0,0,1,643.0999755859375,406.7760009765625)"><path fill="url(#__lottie_element_28674)" fill-opacity="0" d=" M-113.10900115966797,-67.13500213623047 C-113.10900115966797,-67.13500213623047 -96.40399932861328,64.43900299072266 -96.40399932861328,64.43900299072266 C-96.40399932861328,64.43900299072266 -92.97799682617188,65.55000305175781 -96.62300109863281,64.75399780273438 C-96.83899688720703,64.2020034790039 -113.13500213623047,-64.01799774169922 -112.60399627685547,-67.47699737548828 C-112.32099914550781,-69.31999969482422 -113.00599670410156,-68.34300231933594 -113.10900115966797,-67.13500213623047z"/></g><g opacity="1" transform="matrix(1,0,0,1,643.0999755859375,406.7760009765625)"><path fill="url(#__lottie_element_28675)" fill-opacity="0" d=" M32.125999450683594,-66.8740005493164 C32.125999450683594,-66.8740005493164 13.352999687194824,60.590999603271484 13.352999687194824,60.590999603271484 C13.352999687194824,60.590999603271484 13.616000175476074,59.395999908447266 13.210000038146973,60.391998291015625 C15.663000106811523,49.41600036621094 31.378999710083008,-63.119998931884766 31.90999984741211,-66.5790023803711 C32.19300079345703,-68.4219970703125 32.229000091552734,-68.08200073242188 32.125999450683594,-66.8740005493164z"/></g><g opacity="1" transform="matrix(1,0,0,1,557.7630004882812,355.427001953125)"><path stroke-linecap="round" stroke-linejoin="round" fill-opacity="0" stroke="rgb(221,167,82)" stroke-opacity="1" stroke-width="6" d=" M8.315999984741211,17.29599952697754 C7.163000106811523,-0.2280000001192093 6.452000141143799,-14.192000389099121 6.283999919891357,-15.289999961853027 C6.000999927520752,-17.132999420166016 -8.699999809265137,-16.982999801635742 -8.597000122070312,-15.774999618530273 C-8.597000122070312,-15.774999618530273 -5.823999881744385,16.297000885009766 -5.823999881744385,16.297000885009766"/></g><g opacity="1" transform="matrix(1,0,0,1,567.9520263671875,395.1709899902344)"><path stroke-linecap="round" stroke-linejoin="round" fill-opacity="0" stroke="rgb(221,167,82)" stroke-opacity="1" stroke-width="6" d=" M0.7730000019073486,10.116000175476074 C0.3009999990463257,3.180000066757202 -0.33899998664855957,-2.816999912261963 -0.7730000019073486,-9.366000175476074"/></g><g opacity="1" transform="matrix(1,0,0,1,570.3790283203125,426.9200134277344)"><path stroke-linecap="round" stroke-linejoin="round" fill-opacity="0" stroke="rgb(221,167,82)" stroke-opacity="1" stroke-width="6" d=" M0.5540000200271606,10.13599967956543 C0.07699999958276749,3.686000108718872 -0.2879999876022339,-2.76200008392334 -0.7720000147819519,-9.729999542236328"/></g><g opacity="1" transform="matrix(1,0,0,1,566.3140258789062,462.5060119628906)"><path stroke-linecap="round" stroke-linejoin="round" fill-opacity="0" stroke="rgb(184,129,69)" stroke-opacity="1" stroke-width="6" d=" M-7.960000038146973,-15.493000030517578 C-7.960000038146973,-15.493000030517578 -5.514999866485596,13.104999542236328 -5.514999866485596,13.104999542236328 C-5.514999866485596,13.104999542236328 3.8420000076293945,15.276000022888184 7.991000175476074,15.392000198364258 C7.5920000076293945,12.182000160217285 6.831999778747559,0.2669999897480011 5.718999862670898,-13.946000099182129"/></g><g opacity="1" transform="matrix(1,0,0,1,556.5659790039062,425.4410095214844)"><path stroke-linecap="round" stroke-linejoin="round" fill-opacity="0" stroke="rgb(221,167,82)" stroke-opacity="1" stroke-width="6" d=" M-0.9789999723434448,-9.944000244140625 C-0.9789999723434448,-9.944000244140625 0.8230000138282776,10.288000106811523 0.8230000138282776,10.288000106811523"/></g><g opacity="1" transform="matrix(1,0,0,1,553.8079833984375,393.84600830078125)"><path stroke-linecap="round" stroke-linejoin="round" fill-opacity="0" stroke="rgb(221,167,82)" stroke-opacity="1" stroke-width="6" d=" M-1.2480000257492065,-9.713000297546387 C-1.2480000257492065,-9.713000297546387 0.8730000257492065,10.213000297546387 0.8730000257492065,10.213000297546387"/></g><g opacity="0" transform="matrix(1,0,0,1,4.263000011444092,-36.073001861572266)"><path stroke-linecap="round" stroke-linejoin="round" fill-opacity="0" stroke="rgb(221,167,82)" stroke-opacity="1" stroke-width="6" d=" M665.9400024414062,405.1780090332031 C668.7369995117188,391.822998046875 671.6129760742188,377.72698974609375 671.4450073242188,376.6289978027344 C671.1619873046875,374.7860107421875 671.3200073242188,375.760986328125 671.4229736328125,376.968994140625 C671.4229736328125,376.968994140625 665.93701171875,404.6719970703125 665.93701171875,404.6719970703125"/></g><g opacity="0" transform="matrix(1,0,0,1,14.45199966430664,3.6710000038146973)"><path stroke-linecap="round" stroke-linejoin="round" fill-opacity="0" stroke="rgb(221,167,82)" stroke-opacity="1" stroke-width="6" d=" M651.6950073242188,397.8080139160156 C652.5479736328125,391.3290100097656 654.0479736328125,383.3290100097656 654.5670166015625,376.4939880371094"/></g><g opacity="0" transform="matrix(1,0,0,1,16.878999710083008,35.41999816894531)"><path stroke-linecap="round" stroke-linejoin="round" fill-opacity="0" stroke="rgb(221,167,82)" stroke-opacity="1" stroke-width="6" d=" M644.530029296875,398.2959899902344 C645.3699951171875,392.3299865722656 646.1209716796875,386.0799865722656 647.7009887695312,377.4129943847656"/></g><g opacity="0" transform="matrix(1,0,0,1,12.814000129699707,71.00599670410156)"><path stroke-linecap="round" stroke-linejoin="round" fill-opacity="0" stroke="rgb(204,140,64)" stroke-opacity="1" stroke-width="6" d=" M647.0770263671875,373.3399963378906 C647.0770263671875,373.3399963378906 642.9719848632812,397.7430114746094 642.9719848632812,397.7430114746094 C642.9719848632812,397.7430114746094 642.10400390625,398.6029968261719 643.14599609375,397.8299865722656 C643.7269897460938,394.7980041503906 644.9329833984375,386.1300048828125 647.0599975585938,372.8699951171875"/></g><g opacity="0" transform="matrix(1,0,0,1,3.065999984741211,33.941001892089844)"><path stroke-linecap="round" stroke-linejoin="round" fill-opacity="0" stroke="rgb(221,167,82)" stroke-opacity="1" stroke-width="6" d=" M661.4000244140625,379.1310119628906 C661.4000244140625,379.1310119628906 658.39501953125,399.4909973144531 658.39501953125,399.4909973144531"/></g><g opacity="0" transform="matrix(1,0,0,1,0.30799999833106995,2.3459999561309814)"><path stroke-linecap="round" stroke-linejoin="round" fill-opacity="0" stroke="rgb(221,167,82)" stroke-opacity="1" stroke-width="6" d=" M668.68798828125,378.45599365234375 C668.68798828125,378.45599365234375 665.0800170898438,399.2130126953125 665.0800170898438,399.2130126953125"/></g><g opacity="1" transform="matrix(1,0,0,1,647.1309814453125,355.8840026855469)"><path stroke-linecap="round" stroke-linejoin="round" fill-opacity="0" stroke="rgb(221,167,82)" stroke-opacity="1" stroke-width="6" d=" M-8.493000030517578,16.69700050354004 C-7.340000152587891,-0.8270000219345093 -6.005000114440918,-15.727999687194824 -6.045000076293945,-15.78499984741211 C-5.724999904632568,-17.621999740600586 8.782999992370605,-17.040000915527344 8.680000305175781,-15.831999778747559 C8.680000305175781,-15.831999778747559 5.785999774932861,15.593999862670898 5.785999774932861,15.593999862670898"/></g><g opacity="1" transform="matrix(1,0,0,1,637.0330200195312,395.2340087890625)"><path stroke-linecap="round" stroke-linejoin="round" fill-opacity="0" stroke="rgb(221,167,82)" stroke-opacity="1" stroke-width="6" d=" M0.7720000147819519,-9.522000312805176 C0.7720000147819519,-9.522000312805176 -0.7720000147819519,10.022000312805176 -0.7720000147819519,10.022000312805176"/></g><g opacity="1" transform="matrix(1,0,0,1,634.2239990234375,427.0769958496094)"><path stroke-linecap="round" stroke-linejoin="round" fill-opacity="0" stroke="rgb(221,167,82)" stroke-opacity="1" stroke-width="6" d=" M-0.2409999966621399,9.916999816894531 C-0.2240000069141388,9.890999794006348 0.7260000109672546,-3.1050000190734863 1.2100000381469727,-10.072999954223633"/></g><g opacity="1" transform="matrix(1,0,0,1,638.5120239257812,461.94000244140625)"><path stroke-linecap="round" stroke-linejoin="round" fill-opacity="0" stroke="rgb(184,129,69)" stroke-opacity="1" stroke-width="6" d=" M7.934999942779541,-14.798999786376953 C7.934999942779541,-14.798999786376953 5.5879998207092285,12.656000137329102 5.5879998207092285,12.656000137329102 C5.5879998207092285,12.656000137329102 -3.26200008392334,15.184000015258789 -7.434999942779541,15.531000137329102 C-6.7829999923706055,12.61299991607666 -6.511000156402588,0.7799999713897705 -5.3979997634887695,-13.432999610900879"/></g><g opacity="1" transform="matrix(1,0,0,1,648.4920043945312,425.5360107421875)"><path stroke-linecap="round" stroke-linejoin="round" fill-opacity="0" stroke="rgb(221,167,82)" stroke-opacity="1" stroke-width="6" d=" M0.7689999938011169,-10.093999862670898 C0.7689999938011169,-10.093999862670898 -0.9879999756813049,10.093999862670898 -0.9879999756813049,10.093999862670898"/></g><g opacity="1" transform="matrix(1,0,0,1,651.0919799804688,393.9779968261719)"><path stroke-linecap="round" stroke-linejoin="round" fill-opacity="0" stroke="rgb(221,167,82)" stroke-opacity="1" stroke-width="6" d=" M0.9739999771118164,-10.23900032043457 C0.9739999771118164,-10.23900032043457 -0.8489999771118164,9.98900032043457 -0.8489999771118164,9.98900032043457"/></g><g opacity="1" transform="matrix(1,0,0,1,595.75,396.56500244140625)"><path stroke-linecap="round" stroke-linejoin="round" fill-opacity="0" stroke="rgb(221,167,82)" stroke-opacity="1" stroke-width="6" d=" M0.12999999523162842,9.753999710083008 C0.10999999940395355,2.867000102996826 0.1289999932050705,-2.9779999256134033 0.11999999731779099,-9.503999710083008"/></g><g opacity="1" transform="matrix(1,0,0,1,595.97900390625,428.28399658203125)"><path stroke-linecap="round" stroke-linejoin="round" fill-opacity="0" stroke="rgb(221,167,82)" stroke-opacity="1" stroke-width="6" d=" M0.12999999523162842,10.253999710083008 C0.10100000351667404,4.243000030517578 -0.10700000077486038,-3.2960000038146973 -0.12999999523162842,-9.753999710083008"/></g><g opacity="1" transform="matrix(1,0,0,1,603.0560302734375,465.34600830078125)"><path stroke-linecap="round" stroke-linejoin="round" fill-opacity="0" stroke="rgb(184,129,69)" stroke-opacity="1" stroke-width="6" d=" M6.978000164031982,-15.619999885559082 C6.978000164031982,-15.619999885559082 6.761000156402588,14.222999572753906 6.761000156402588,14.222999572753906 C6.761000156402588,14.222999572753906 -3.180000066757202,14.779000282287598 -6.761000156402588,14.472999572753906 C-6.835000038146973,10.694000244140625 -6.900000095367432,-1.9179999828338623 -6.978000164031982,-15.597000122070312"/></g><g opacity="1" transform="matrix(1,0,0,1,610.0709838867188,428.1319885253906)"><path stroke-linecap="round" stroke-linejoin="round" fill-opacity="0" stroke="rgb(221,167,82)" stroke-opacity="1" stroke-width="6" d=" M-0.04699999839067459,-9.383000373840332 C-0.04699999839067459,-9.383000373840332 0.04699999839067459,10.414999961853027 0.04699999839067459,10.414999961853027"/></g><g opacity="1" transform="matrix(1,0,0,1,610.4180297851562,396.3599853515625)"><path stroke-linecap="round" stroke-linejoin="round" fill-opacity="0" stroke="rgb(221,167,82)" stroke-opacity="1" stroke-width="6" d=" M0.19699999690055847,-9.3149995803833 C0.19699999690055847,-9.3149995803833 -0.07199999690055847,10.0649995803833 -0.07199999690055847,10.0649995803833"/></g><g opacity="1" transform="matrix(1,0,0,1,603.0390014648438,356.9989929199219)"><path stroke-linecap="round" stroke-linejoin="round" fill-opacity="0" stroke="rgb(221,167,82)" stroke-opacity="1" stroke-width="6" d=" M-7.38700008392334,16.724000930786133 C-7.386000156402588,-1.1740000247955322 -7.916999816894531,-14.817000389099121 -7.74399995803833,-15.942999839782715 C-7.460999965667725,-17.785999298095703 7.88100004196167,-17.150999069213867 7.7779998779296875,-15.942999839782715 C7.7779998779296875,-15.942999839782715 7.535999774932861,16.70800018310547 7.535999774932861,16.70800018310547"/></g><g opacity="0" transform="matrix(1,0,0,1,595.75,396.56500244140625)"><path stroke-linecap="round" stroke-linejoin="round" fill-opacity="0" stroke="rgb(221,167,82)" stroke-opacity="1" stroke-width="6" d=" M69.9000015258789,6.007999897003174 C71.00199890136719,0.1289999932050705 72.43900299072266,-9.39900016784668 72.43000030517578,-15.925000190734863"/></g><g opacity="0" transform="matrix(1,0,0,1,595.97900390625,428.28399658203125)"><path stroke-linecap="round" stroke-linejoin="round" fill-opacity="0" stroke="rgb(221,167,82)" stroke-opacity="1" stroke-width="6" d=" M65.625,5.035999774932861 C66.48600006103516,-1.6039999723434448 68.1050033569336,-9.633000373840332 68.2509994506836,-15.928000450134277"/></g><g opacity="0" transform="matrix(1,0,0,1,603.0560302734375,465.34600830078125)"><path stroke-linecap="round" stroke-linejoin="round" fill-opacity="0" stroke="rgb(204,140,64)" stroke-opacity="1" stroke-width="6" d=" M56.70899963378906,-20.94700050354004 C56.70899963378906,-20.94700050354004 53.4379997253418,2.374000072479248 53.4379997253418,2.374000072479248 C53.4379997253418,2.374000072479248 52.57899856567383,7.25 50.37300109863281,6.443999767303467 C53.665000915527344,3.9030001163482666 55.67499923706055,-8.758000373840332 56.630001068115234,-21.030000686645508"/></g><g opacity="0" transform="matrix(1,0,0,1,610.0709838867188,428.1319885253906)"><path stroke-linecap="round" stroke-linejoin="round" fill-opacity="0" stroke="rgb(221,167,82)" stroke-opacity="1" stroke-width="6" d=" M54.090999603271484,-15.701000213623047 C54.090999603271484,-15.701000213623047 51.676998138427734,5.289999961853027 51.676998138427734,5.289999961853027"/></g><g opacity="0" transform="matrix(1,0,0,1,610.4180297851562,396.3599853515625)"><path stroke-linecap="round" stroke-linejoin="round" fill-opacity="0" stroke="rgb(221,167,82)" stroke-opacity="1" stroke-width="6" d=" M58.26499938964844,-15.72599983215332 C58.26499938964844,-15.72599983215332 55.202999114990234,5.956999778747559 55.202999114990234,5.956999778747559"/></g><g opacity="0" transform="matrix(1,0,0,1,603.0390014648438,356.9989929199219)"><path stroke-linecap="round" stroke-linejoin="round" fill-opacity="0" stroke="rgb(221,167,82)" stroke-opacity="1" stroke-width="6" d=" M67.68399810791016,12.208999633789062 C69.47899627685547,-3.6440000534057617 71.26399993896484,-15.102999687194824 71.43699645996094,-16.229000091552734 C71.72000122070312,-18.07200050354004 71.85900115966797,-17.93199920654297 71.75599670410156,-16.724000930786133 C71.75599670410156,-16.724000930786133 67.10099792480469,11.864999771118164 67.10099792480469,11.864999771118164"/></g><g opacity="0" transform="matrix(1,0,0,1,595.75,396.56500244140625)"><path stroke-linecap="round" stroke-linejoin="round" fill-opacity="0" stroke="rgb(221,167,82)" stroke-opacity="1" stroke-width="6" d=" M-57.994998931884766,5.254000186920166 C-59.25,-2.440000057220459 -59.875,-8.8149995803833 -60.630001068115234,-15.128999710083008"/></g><g opacity="0" transform="matrix(1,0,0,1,595.97900390625,428.28399658203125)"><path stroke-linecap="round" stroke-linejoin="round" fill-opacity="0" stroke="rgb(221,167,82)" stroke-opacity="1" stroke-width="6" d=" M-54.369998931884766,5.129000186920166 C-54.979000091552734,-1.284000039100647 -56.229000091552734,-9.15999984741211 -56.880001068115234,-15.378999710083008"/></g><g opacity="0" transform="matrix(1,0,0,1,603.0560302734375,465.34600830078125)"><path stroke-linecap="round" stroke-linejoin="round" fill-opacity="0" stroke="rgb(204,140,64)" stroke-opacity="1" stroke-width="6" d=" M-60.02199935913086,-21.2450008392334 C-60.02199935913086,-21.2450008392334 -56.48899841308594,5.0980000495910645 -56.48899841308594,5.0980000495910645 C-56.48899841308594,5.0980000495910645 -56.18000030517578,6.1539998054504395 -56.63600158691406,5.0980000495910645 C-57.18000030517578,1.6540000438690186 -59.180999755859375,-7.2220001220703125 -59.97800064086914,-21.222000122070312"/></g><g opacity="0" transform="matrix(1,0,0,1,610.0709838867188,428.1319885253906)"><path stroke-linecap="round" stroke-linejoin="round" fill-opacity="0" stroke="rgb(221,167,82)" stroke-opacity="1" stroke-width="6" d=" M-71.0469970703125,-15.258000373840332 C-71.0469970703125,-15.258000373840332 -68.5780029296875,5.257999897003174 -68.5780029296875,5.257999897003174"/></g><g opacity="0" transform="matrix(1,0,0,1,610.4180297851562,396.3599853515625)"><path stroke-linecap="round" stroke-linejoin="round" fill-opacity="0" stroke="rgb(221,167,82)" stroke-opacity="1" stroke-width="6" d=" M-75.177001953125,-14.8149995803833 C-75.177001953125,-14.8149995803833 -72.822998046875,5.190000057220459 -72.822998046875,5.190000057220459"/></g><g opacity="0" transform="matrix(1,0,0,1,603.0390014648438,356.9989929199219)"><path stroke-linecap="round" stroke-linejoin="round" fill-opacity="0" stroke="rgb(221,167,82)" stroke-opacity="1" stroke-width="6" d=" M-69.38700103759766,12.598999977111816 C-71.53900146484375,-5.5 -73.16699981689453,-16.066999435424805 -72.99400329589844,-17.19300079345703 C-72.71099853515625,-19.035999298095703 -72.36900329589844,-18.650999069213867 -72.47200012207031,-17.44300079345703 C-72.47200012207031,-17.44300079345703 -69.21399688720703,12.208000183105469 -69.21399688720703,12.208000183105469"/></g><g opacity="1" transform="matrix(1,0,0,1,602.5390014648438,355.7019958496094)"><path stroke-linecap="round" stroke-linejoin="round" fill-opacity="0" stroke="rgb(184,128,68)" stroke-opacity="1" stroke-width="6" d=" M-37.106998443603516,5.84499979019165 C-37.106998443603516,5.84499979019165 -38.48899841308594,-15.572999954223633 -38.48899841308594,-15.572999954223633 C-38.48899841308594,-15.572999954223633 -53.32400131225586,-16.04199981689453 -53.32400131225586,-16.04199981689453 C-53.32400131225586,-16.04199981689453 -50.599998474121094,16.052000045776367 -50.599998474121094,16.052000045776367 M8.11299991607666,7.559000015258789 C8.11299991607666,7.559000015258789 8.277999877929688,-14.645999908447266 8.277999877929688,-14.645999908447266 C8.277999877929688,-14.645999908447266 -7.24399995803833,-14.645999908447266 -7.24399995803833,-14.645999908447266 C-7.24399995803833,-14.645999908447266 -7.078999996185303,7.552000045776367 -7.078999996185303,7.552000045776367 M50.50699996948242,15.569999694824219 C50.50699996948242,15.569999694824219 53.262001037597656,-15.677000045776367 53.262001037597656,-15.677000045776367 C53.262001037597656,-15.677000045776367 38.551998138427734,-15.614999771118164 38.551998138427734,-15.614999771118164 C38.551998138427734,-15.614999771118164 37.03300094604492,5.860000133514404 37.03300094604492,5.860000133514404"/></g><g opacity="0" transform="matrix(1,0,0,1,602.5390014648438,355.7019958496094)"><path stroke-linecap="round" stroke-linejoin="round" fill-opacity="0" stroke="rgb(204,140,64)" stroke-opacity="1" stroke-width="6" d=" M-69.24299621582031,12.819999694824219 C-69.24299621582031,12.819999694824219 -72.73799896240234,-16.895999908447266 -72.73799896240234,-16.895999908447266 C-72.73799896240234,-16.895999908447266 -73.01100158691406,-16.895999908447266 -73.01100158691406,-16.895999908447266 C-73.01100158691406,-16.895999908447266 -68.71600341796875,13.859999656677246 -68.71600341796875,13.859999656677246"/></g><g opacity="0.5" transform="matrix(1,0,0,1,601.823974609375,352.4570007324219)"><path fill="rgb(188,125,41)" fill-opacity="1" d=" M-68.63800048828125,13.881999969482422 C-68.63800048828125,13.881999969482422 -64.94400024414062,4.015999794006348 -52.547000885009766,6.744999885559082 C-35.525001525878906,10.491999626159668 15.262999534606934,13.71500015258789 53.97700119018555,6.855000019073486 C60.52399826049805,5.695000171661377 68.03500366210938,7.296999931335449 69.02200317382812,16.64699935913086 C69.02200317382812,16.64699935913086 71.93599700927734,-16.64699935913086 71.93599700927734,-16.64699935913086 C71.93599700927734,-16.64699935913086 -71.93599700927734,-15.211999893188477 -71.93599700927734,-15.211999893188477"/></g><g opacity="1" transform="matrix(1,0,0,1,601.1099853515625,473.33099365234375)"><path stroke-linecap="round" stroke-linejoin="round" fill-opacity="0" stroke="rgb(184,129,69)" stroke-opacity="1" stroke-width="8" d=" M55.3120002746582,-6.429999828338623 C54.87799835205078,-3.5179998874664307 52.76900100708008,-1.1430000066757202 49.93199920654297,-0.3580000102519989 C36.130001068115234,3.4600000381469727 -6.175000190734863,12.88700008392334 -50.082000732421875,-0.2879999876022339 C-52.89699935913086,-1.1330000162124634 -54.94599914550781,-3.572000026702881 -55.3120002746582,-6.48799991607666"/></g></g><g style="display: block;" transform="matrix(0.9800000190734863,0,0,0.9800000190734863,-327.9200134277344,-0.8800048828125)" opacity="1"><g opacity="1" transform="matrix(1,0,0,1,602.3709716796875,254.4459991455078)"><path fill="rgb(242,209,151)" fill-opacity="1" d=" M117.20800018310547,0 C117.20800018310547,6.479000091552734 64.73200225830078,11.730999946594238 0,11.730999946594238 C-64.73200225830078,11.730999946594238 -117.20800018310547,6.479000091552734 -117.20800018310547,0 C-117.20800018310547,-6.479000091552734 -64.73200225830078,-11.730999946594238 0,-11.730999946594238 C64.73200225830078,-11.730999946594238 117.20800018310547,-6.479000091552734 117.20800018310547,0z"/><path stroke-linecap="round" stroke-linejoin="round" fill-opacity="0" stroke="rgb(184,129,69)" stroke-opacity="1" stroke-width="8" d=" M117.20800018310547,0 C117.20800018310547,6.479000091552734 64.73200225830078,11.730999946594238 0,11.730999946594238 C-64.73200225830078,11.730999946594238 -117.20800018310547,6.479000091552734 -117.20800018310547,0 C-117.20800018310547,-6.479000091552734 -64.73200225830078,-11.730999946594238 0,-11.730999946594238 C64.73200225830078,-11.730999946594238 117.20800018310547,-6.479000091552734 117.20800018310547,0z"/></g><g opacity="1" transform="matrix(1,0,0,1,602.4439697265625,298.72100830078125)"><path fill="url(#__lottie_element_28698)" fill-opacity="1" d=" M107.5469970703125,-26.070999145507812 C105.21800231933594,-4.4679999351501465 95.05999755859375,16.8439998626709 74.23200225830078,28.655000686645508 C74.23200225830078,28.655000686645508 0.546999990940094,44.270999908447266 0.546999990940094,44.270999908447266 C0.546999990940094,44.270999908447266 -74.91300201416016,28.659000396728516 -74.91300201416016,28.659000396728516 C-93.1729965209961,18.009000778198242 -104.79499816894531,-3.700000047683716 -107.46299743652344,-26.070999145507812 C-107.46299743652344,-26.070999145507812 -117.28299713134766,-33.250999450683594 -117.28299713134766,-44.24100112915039 C-117.12300109863281,-37.89099884033203 -66.35299682617188,-32.71099853515625 -3.132999897003174,-32.55099868774414 C-2.122999906539917,-32.54100036621094 -1.093000054359436,-32.54100036621094 -0.0729999989271164,-32.54100036621094 C1.9470000267028809,-32.54100036621094 3.9570000171661377,-32.55099868774414 5.956999778747559,-32.56100082397461 C67.88700103759766,-32.87099838256836 117.13700103759766,-38.000999450683594 117.13700103759766,-44.270999908447266 C118.677001953125,-32.54100036621094 107.5469970703125,-26.070999145507812 107.5469970703125,-26.070999145507812z"/></g><g opacity="0.35000000000000003" transform="matrix(1,0,0,1,602.4439697265625,300.4849853515625)"><path fill="rgb(192,127,26)" fill-opacity="1" d=" M107.5469970703125,-27.834999084472656 C105.21700286865234,-6.235000133514404 95.05699920654297,15.074999809265137 74.22699737548828,26.895000457763672 C74.22699737548828,26.895000457763672 22.047000885009766,46.03499984741211 22.047000885009766,46.03499984741211 C9.467000007629395,36.32500076293945 4.789000034332275,30.261999130249023 15.107000350952148,29.9950008392334 C69.62300109863281,28.583999633789062 86.4260025024414,7.349999904632568 81.01100158691406,1.6430000066757202 C77.80599975585938,-1.7350000143051147 49.167999267578125,17.606000900268555 -3.8429999351501465,-9.595000267028809 C-20.194000244140625,-17.985000610351562 -74.44400024414062,-9.734999656677246 -76.46099853515625,-4.823999881744385 C-82.25900268554688,9.293000221252441 -58.54499816894531,32.81700134277344 -1.3329999446868896,29.9950008392334 C-1.3329999446868896,29.9950008392334 -38.87300109863281,39.935001373291016 -38.87300109863281,39.935001373291016 C-38.87300109863281,39.935001373291016 -74.91300201416016,26.895000457763672 -74.91300201416016,26.895000457763672 C-93.1729965209961,16.2450008392334 -104.79299926757812,-5.465000152587891 -107.46299743652344,-27.834999084472656 C-107.46299743652344,-27.834999084472656 -117.28299713134766,-35.01499938964844 -117.28299713134766,-46.005001068115234 C-117.12300109863281,-39.654998779296875 -66.35299682617188,-34.474998474121094 -3.132999897003174,-34.314998626708984 C-2.122999906539917,-34.30500030517578 -1.093000054359436,-34.30500030517578 -0.0729999989271164,-34.30500030517578 C1.9470000267028809,-34.30500030517578 3.9570000171661377,-34.314998626708984 5.956999778747559,-34.32500076293945 C67.88700103759766,-34.6349983215332 117.13700103759766,-39.76499938964844 117.13700103759766,-46.03499984741211 C118.677001953125,-34.30500030517578 107.5469970703125,-27.834999084472656 107.5469970703125,-27.834999084472656z"/></g><g opacity="1" transform="matrix(1,0,0,1,602.4439697265625,297.75299072265625)"><path stroke-linecap="round" stroke-linejoin="round" fill-opacity="0" stroke="rgb(184,129,69)" stroke-opacity="1" stroke-width="8" d=" M107.5469970703125,-25.10300064086914 C105.21800231933594,-3.5 95.05999755859375,17.81100082397461 74.23200225830078,29.62299919128418 C74.23200225830078,29.62299919128418 0.546999990940094,43.303001403808594 0.546999990940094,43.303001403808594 C0.546999990940094,43.303001403808594 -74.91300201416016,29.62700080871582 -74.91300201416016,29.62700080871582 C-93.1729965209961,18.976999282836914 -104.79499816894531,-2.7320001125335693 -107.46299743652344,-25.10300064086914 C-107.46299743652344,-25.10300064086914 -117.28299713134766,-32.28300094604492 -117.28299713134766,-43.27299880981445 C-117.12300109863281,-36.92300033569336 -66.35299682617188,-31.743000030517578 -3.132999897003174,-31.58300018310547 C-2.122999906539917,-31.572999954223633 -1.093000054359436,-31.572999954223633 -0.0729999989271164,-31.572999954223633 C1.9470000267028809,-31.572999954223633 3.9570000171661377,-31.58300018310547 5.956999778747559,-31.593000411987305 C67.88700103759766,-31.902999877929688 117.13700103759766,-37.03300094604492 117.13700103759766,-43.303001403808594 C118.677001953125,-31.572999954223633 107.5469970703125,-25.10300064086914 107.5469970703125,-25.10300064086914z"/></g><g opacity="1" transform="matrix(1,0,0,1,602.3709716796875,338.3009948730469)"><path fill="url(#__lottie_element_28699)" fill-opacity="1" d=" M-74.83799743652344,-10.923999786376953 C-74.83799743652344,-10.923999786376953 -84.46700286865234,1.5920000076293945 -83.1259994506836,3.697000026702881 C-81.11000061035156,6.861000061035156 -47.75699996948242,10.923999786376953 0.23399999737739563,10.923999786376953 C48.224998474121094,10.923999786376953 80.09300231933594,7.25 82.99700164794922,3.806999921798706 C85.03099822998047,1.3960000276565552 74.30400085449219,-10.923999786376953 74.30400085449219,-10.923999786376953 C74.30400085449219,-10.923999786376953 -2.2149999141693115,-3.924999952316284 -74.83799743652344,-10.923999786376953z"/></g><g opacity="0.25" transform="matrix(1,0,0,1,602.3590087890625,337.2449951171875)"><path fill="rgb(173,112,14)" fill-opacity="1" d=" M-56.57400131225586,9.74899959564209 C-61.09000015258789,9.24899959564209 -65.06400299072266,5.583000183105469 -62.83599853515625,3.6029999256134033 C-59.12200164794922,0.3019999861717224 -43.10300064086914,0.949999988079071 -2.503999948501587,1 C30.204999923706055,1.0399999618530273 59.84400177001953,0.23199999332427979 62.99599838256836,3.6029999256134033 C66.11499786376953,6.940000057220459 58.018001556396484,9.680000305175781 54.36399841308594,9.869000434875488 C54.36399841308594,9.869000434875488 80.43800354003906,7.953999996185303 83.00900268554688,4.86299991607666 C85.58000183105469,1.7719999551773071 74.31600189208984,-9.869000434875488 74.31600189208984,-9.869000434875488 C74.31600189208984,-9.869000434875488 -22.17099952697754,-1.9470000267028809 -74.82599639892578,-9.869000434875488 C-74.82599639892578,-9.869000434875488 -85.19999694824219,0.28299999237060547 -83.11399841308594,4.752999782562256 C-81.02899932861328,9.222999572753906 -56.57400131225586,9.74899959564209 -56.57400131225586,9.74899959564209z"/></g><g opacity="1" transform="matrix(1,0,0,1,602.3709716796875,338.3009948730469)"><path stroke-linecap="round" stroke-linejoin="round" fill-opacity="0" stroke="rgb(184,129,69)" stroke-opacity="1" stroke-width="8" d=" M-74.83799743652344,-10.923999786376953 C-74.83799743652344,-10.923999786376953 -84.46700286865234,1.5920000076293945 -83.1259994506836,3.697000026702881 C-81.11000061035156,6.861000061035156 -47.75699996948242,10.923999786376953 0.23399999737739563,10.923999786376953 C48.224998474121094,10.923999786376953 80.09300231933594,7.25 82.99700164794922,3.806999921798706 C85.03099822998047,1.3960000276565552 74.30400085449219,-10.923999786376953 74.30400085449219,-10.923999786376953 C74.30400085449219,-10.923999786376953 -2.2149999141693115,-3.924999952316284 -74.83799743652344,-10.923999786376953z"/></g><g opacity="1" transform="matrix(1,0,0,1,0,0)"><path stroke-linecap="round" stroke-linejoin="miter" fill-opacity="0" stroke-miterlimit="4" stroke="rgb(184,129,69)" stroke-opacity="1" stroke-width="6" d=" M709.5,272.75 C709.5,272.75 668.8300170898438,279.14898681640625 606.56201171875,279.3030090332031"/></g></g><g style="display: block;" transform="matrix(0.9800000190734863,0,0,0.9800000190734863,12.139995574951172,12.349995613098145)" opacity="1"><g opacity="1" transform="matrix(1,0,0,1,317.1449890136719,143.72300720214844)"><path fill="rgb(216,203,167)" fill-opacity="1" d=" M15.010000228881836,-17.05299949645996 C15.010000228881836,-17.05299949645996 29.04800033569336,-9.60099983215332 19.749000549316406,8.623000144958496 C10.449999809265137,26.847000122070312 -23.73699951171875,12.625 -22.91699981689453,4.692999839782715 C-22.097000122070312,-3.239000082015991 -0.3959999978542328,-20.474000930786133 15.010000228881836,-17.05299949645996z"/><path stroke-linecap="round" stroke-linejoin="round" fill-opacity="0" stroke="rgb(175,149,114)" stroke-opacity="1" stroke-width="8" d=" M15.010000228881836,-17.05299949645996 C15.010000228881836,-17.05299949645996 29.04800033569336,-9.60099983215332 19.749000549316406,8.623000144958496 C10.449999809265137,26.847000122070312 -23.73699951171875,12.625 -22.91699981689453,4.692999839782715 C-22.097000122070312,-3.239000082015991 -0.3959999978542328,-20.474000930786133 15.010000228881836,-17.05299949645996z"/></g><g opacity="1" transform="matrix(1,0,0,1,336.68499755859375,177.06399536132812)"><path fill="rgb(216,203,167)" fill-opacity="1" d=" M-42.13199996948242,-24.867000579833984 C-42.13199996948242,-24.867000579833984 6.065999984741211,-19.81399917602539 18.812999725341797,30.683000564575195 C25.56599998474121,26.93600082397461 38.80799865722656,16.218000411987305 25.64699935913086,-6.223999977111816 C8.923999786376953,-34.73899841308594 -42.13199996948242,-24.867000579833984 -42.13199996948242,-24.867000579833984z"/></g><g opacity="1" transform="matrix(1,0,0,1,173.7550048828125,230.09100341796875)"><path fill="rgb(226,215,181)" fill-opacity="1" d=" M-20.392000198364258,-36.095001220703125 C-27.52899932861328,-36.099998474121094 -44.75600051879883,-32.590999603271484 -51.805999755859375,-11.935999870300293 C-55.20899963378906,-1.9670000076293945 -52.42900085449219,19.923999786376953 -22.55900001525879,30.82900047302246 C9.899999618530273,42.67900085449219 52.53900146484375,30.82900047302246 52.53900146484375,30.82900047302246 C52.53900146484375,30.82900047302246 74.24500274658203,24.409000396728516 73.74500274658203,20.409000396728516 C73.24500274658203,16.409000396728516 44.244998931884766,-7.591000080108643 24.2450008392334,-16.590999603271484 C4.244999885559082,-25.590999603271484 -13.255000114440918,-36.09000015258789 -20.392000198364258,-36.095001220703125z"/></g><g opacity="0.4" transform="matrix(1,0,0,1,332.44000244140625,172.656005859375)"><path fill="rgb(255,255,255)" fill-opacity="1" d=" M-5.573999881744385,-7.5 C-5.573999881744385,-7.5 30.392000198364258,-0.8159999847412109 30.392000198364258,28.31800079345703 C30.392000198364258,28.31800079345703 42.060001373291016,20.594999313354492 30.006000518798828,-1.7649999856948853 C14.989999771118164,-29.618000030517578 -38.606998443603516,-20.398000717163086 -38.606998443603516,-20.398000717163086 C-38.606998443603516,-20.398000717163086 -5.573999881744385,-7.5 -5.573999881744385,-7.5z"/></g><g opacity="1" transform="matrix(1,0,0,1,167.4709930419922,234.8979949951172)"><path fill="rgb(204,175,117)" fill-opacity="1" d=" M46.84400177001953,26.606000900268555 C-38.52299880981445,16.240999221801758 -46.84400177001953,-20.054000854492188 -36.6150016784668,-31.64299964904785 C-36.6150016784668,-31.64299964904785 -64.95999908447266,-4.807000160217285 -27.284000396728516,21.656999588012695 C-0.11599999666213989,40.7400016784668 46.84400177001953,26.606000900268555 46.84400177001953,26.606000900268555z"/></g><g opacity="1" transform="matrix(1,0,0,1,170.86099243164062,231.37899780273438)"><path stroke-linecap="round" stroke-linejoin="round" fill-opacity="0" stroke="rgb(249,245,232)" stroke-opacity="1" stroke-width="8" d=" M43.45399856567383,28.125 C-41.91299819946289,17.760000228881836 -50.23400115966797,-16.535999298095703 -40.005001068115234,-28.125"/></g><g opacity="1" transform="matrix(1,0,0,1,173.7550048828125,230.09100341796875)"><path stroke-linecap="round" stroke-linejoin="round" fill-opacity="0" stroke="rgb(188,167,134)" stroke-opacity="1" stroke-width="8" d=" M-20.392000198364258,-36.095001220703125 C-27.52899932861328,-36.099998474121094 -44.75600051879883,-32.590999603271484 -51.805999755859375,-11.935999870300293 C-55.20899963378906,-1.9670000076293945 -52.42900085449219,19.923999786376953 -22.55900001525879,30.82900047302246 C9.899999618530273,42.67900085449219 52.53900146484375,30.82900047302246 52.53900146484375,30.82900047302246 C52.53900146484375,30.82900047302246 74.24500274658203,24.409000396728516 73.74500274658203,20.409000396728516 C73.24500274658203,16.409000396728516 44.244998931884766,-7.591000080108643 24.2450008392334,-16.590999603271484 C4.244999885559082,-25.590999603271484 -13.255000114440918,-36.09000015258789 -20.392000198364258,-36.095001220703125z"/></g><g opacity="1" transform="matrix(1,0,0,1,336.68499755859375,177.06399536132812)"><path stroke-linecap="round" stroke-linejoin="round" fill-opacity="0" stroke="rgb(175,149,114)" stroke-opacity="1" stroke-width="8" d=" M-42.38199996948242,-24.617000579833984 C-42.38199996948242,-24.617000579833984 -52.185001373291016,-24.56399917602539 -51.685001373291016,-14.564000129699707 C-51.185001373291016,-4.564000129699707 -35.685001373291016,26.93600082397461 -16.684999465942383,31.93600082397461 C2.315000057220459,36.93600082397461 12.815999984741211,32.93600082397461 18.812999725341797,30.183000564575195 C24.809999465942383,27.43000030517578 38.80799865722656,16.218000411987305 25.64699935913086,-6.223999977111816 C8.925000190734863,-34.73899841308594 -42.38199996948242,-24.617000579833984 -42.38199996948242,-24.617000579833984z"/></g><g opacity="1" transform="matrix(1,0,0,1,251.5469970703125,123.73600006103516)"><path fill="url(#__lottie_element_28684)" fill-opacity="1" d=" M-39.8120002746582,91.10800170898438 C-52.459999084472656,86.29000091552734 -77.85800170898438,73.83699798583984 -92.41400146484375,47.01599884033203 C-107.65499877929688,18.933000564575195 -91.72899627685547,-4.0980000495910645 -54.01499938964844,-17.726999282836914 C-10.156000137329102,-33.57699966430664 -2.303999900817871,-53.29199981689453 -12.043999671936035,-71.86000061035156 C-20.700000762939453,-88.36100006103516 -41.95899963378906,-86.48799896240234 -41.95899963378906,-86.48799896240234 C-41.95899963378906,-86.48799896240234 -8.194000244140625,-98.81199645996094 39.85599899291992,-83.20099639892578 C95.4520034790039,-65.13899993896484 118.43699645996094,2.0329999923706055 42.441001892089844,28.610000610351562 C42.441001892089844,28.610000610351562 87.4530029296875,31.013999938964844 104.14900207519531,83.89800262451172"/></g><g opacity="0.3" transform="matrix(1,0,0,1,267.38299560546875,121.68199920654297)"><path fill="rgb(220,198,146)" fill-opacity="1" d=" M-57.79600143432617,-84.43499755859375 C-57.79600143432617,-84.43499755859375 0.843999981880188,-96.85700225830078 31.19499969482422,-53.707000732421875 C59.23500061035156,-13.842000007629395 31.607999801635742,25.565000534057617 -28.996999740600586,28.375 C-34.332000732421875,28.621999740600586 5.11899995803833,63.24100112915039 59.483001708984375,82.79399871826172 C59.483001708984375,82.79399871826172 39.16999816894531,86.09300231933594 39.16999816894531,86.09300231933594 C39.16999816894531,86.09300231933594 7.250999927520752,81.2040023803711 7.250999927520752,81.2040023803711 C7.250999927520752,81.2040023803711 -63.68199920654297,44.479000091552734 -59.2859992980957,19.81100082397461 C-56.564998626708984,4.543000221252441 -9.581999778747559,9.883000373840332 10.545999526977539,-4.840000152587891 C32.650001525878906,-21.009000778198242 27.915000915527344,-84.27300262451172 -57.79600143432617,-84.43499755859375z"/></g><g opacity="1" transform="matrix(1,0,0,1,334.4419860839844,158.86000061035156)"><path stroke-linecap="round" stroke-linejoin="round" fill-opacity="0" stroke="rgb(188,167,134)" stroke-opacity="1" stroke-width="8" d=" M-40.138999938964844,-6.414000034332275 C-40.138999938964844,-6.414000034332275 11.166000366210938,-16.53499984741211 27.888999938964844,11.979999542236328"/></g><g opacity="0.7000000000000001" transform="matrix(1,0,0,1,229.5919952392578,170.343994140625)"><path fill="rgb(220,198,146)" fill-opacity="1" d=" M2.8340001106262207,32.9109992980957 C2.8340001106262207,32.9109992980957 -25.89900016784668,19.242000579833984 -42.821998596191406,-3.5989999771118164 C-59.21099853515625,-25.719999313354492 -35.316001892089844,-28.408000946044922 -20.0049991607666,-32.9109992980957 C-20.0049991607666,-32.9109992980957 -37.65800094604492,-17.6299991607666 48.33700180053711,32.395999908447266 C48.33700180053711,32.395999908447266 2.8340001106262207,32.9109992980957 2.8340001106262207,32.9109992980957z"/></g><g opacity="0.4" transform="matrix(1,0,0,1,217.37899780273438,182.68299865722656)"><path fill="rgb(220,198,146)" fill-opacity="1" d=" M-51.4370002746582,-1.3389999866485596 C-51.4370002746582,-1.3389999866485596 15.045999526977539,20.57200050354004 -6.249000072479248,-30.320999145507812 C-6.249000072479248,-30.320999145507812 51.4370002746582,20.52400016784668 51.4370002746582,20.52400016784668 C51.4370002746582,20.52400016784668 18.069000244140625,13.119000434875488 -3.063999891281128,30.320999145507812 C-3.063999891281128,30.320999145507812 -38.14400100708008,20.020000457763672 -51.4370002746582,-1.3389999866485596z"/></g><g opacity="0.7000000000000001" transform="matrix(1,0,0,1,253.6739959716797,84.54900360107422)"><path fill="rgb(219,197,145)" fill-opacity="1" d=" M-36.5,-48.380001068115234 C-36.5,-48.380001068115234 14.892000198364258,-40.71099853515625 12.515999794006348,-4.359000205993652 C10.793000221252441,22.00200080871582 -13.255000114440918,22.00200080871582 -28.679000854492188,48.380001068115234 C-28.679000854492188,48.380001068115234 33.17300033569336,48.358001708984375 36.29899978637695,12.458000183105469 C39.42499923706055,-23.441999435424805 5.625999927520752,-43.821998596191406 -36.5,-48.380001068115234z"/></g><g opacity="0.4" transform="matrix(1,0,0,1,288.0060119628906,180.06199645996094)"><path fill="rgb(207,186,137)" fill-opacity="1" d=" M67.19000244140625,27.57200050354004 C67.19000244140625,27.57200050354004 50.36000061035156,21.2450008392334 18.549999237060547,27.71500015258789 C18.549999237060547,27.71500015258789 14.619999885559082,27.735000610351562 -4.940000057220459,26.895000457763672 C-4.940000057220459,26.895000457763672 -60.939998626708984,-8.954999923706055 -60.939998626708984,-8.954999923706055 C-60.130001068115234,-8.614999771118164 -39.694000244140625,4.817999839782715 -7.855999946594238,8.35099983215332 C52.07099914550781,15.00100040435791 37.380001068115234,-25.21500015258789 5.980000019073486,-27.71500015258789 C5.980000019073486,-27.71500015258789 34.44300079345703,-28.22800064086914 54.28300094604492,1.281999945640564 C62.50299835205078,13.501999855041504 67.19000244140625,27.57200050354004 67.19000244140625,27.57200050354004z"/></g><g opacity="1" transform="matrix(1,0,0,1,248.468994140625,121.66300201416016)"><path stroke-linecap="round" stroke-linejoin="round" fill-opacity="0" stroke="rgb(255,251,244)" stroke-opacity="1" stroke-width="8" d=" M35.2130012512207,84.822998046875 C10.784000396728516,74.57099914550781 -25.759000778198242,48.20600128173828 -37.3380012512207,30.698999404907227 C-48.20500183105469,14.270000457763672 -41.13199996948242,14.197999954223633 -1.1039999723434448,7.400000095367432 C49.05699920654297,-1.11899995803833 50.12699890136719,-36.986000061035156 28.672000885009766,-60.16299819946289 C1.093000054359436,-89.95500183105469 -38.88100051879883,-84.41500091552734 -38.88100051879883,-84.41500091552734"/></g><g opacity="1" transform="matrix(1,0,0,1,252.03599548339844,123.60900115966797)"><path stroke-linecap="round" stroke-linejoin="round" fill-opacity="0" stroke="rgb(190,167,125)" stroke-opacity="1" stroke-width="8" d=" M-39.8120002746582,91.10800170898438 C-52.459999084472656,86.29000091552734 -77.85800170898438,73.83699798583984 -92.41400146484375,47.01599884033203 C-107.65499877929688,18.933000564575195 -91.72899627685547,-4.0980000495910645 -54.01499938964844,-17.726999282836914 C-10.156000137329102,-33.57699966430664 -2.303999900817871,-53.29199981689453 -12.043999671936035,-71.86000061035156 C-20.700000762939453,-88.36100006103516 -41.95899963378906,-86.48799896240234 -41.95899963378906,-86.48799896240234 C-41.95899963378906,-86.48799896240234 -8.194000244140625,-98.81199645996094 39.85599899291992,-83.20099639892578 C95.4520034790039,-65.13899993896484 118.43699645996094,2.0329999923706055 42.441001892089844,28.610000610351562 C42.441001892089844,28.610000610351562 87.4530029296875,31.013999938964844 104.14900207519531,83.89800262451172"/></g><g opacity="1" transform="matrix(1,0,0,1,321.8420104980469,178.99000549316406)"><path stroke-linecap="round" stroke-linejoin="round" fill-opacity="0" stroke="rgb(249,245,232)" stroke-opacity="1" stroke-width="8" d=" M-27.854000091552734,-26.643999099731445 C-27.854000091552734,-26.643999099731445 19.158000946044922,-23.989999771118164 33.854000091552734,28.393999099731445"/></g><g opacity="1" transform="matrix(1,0,0,1,345.32000732421875,231.093994140625)"><path fill="rgb(226,215,181)" fill-opacity="1" d=" M-44.165000915527344,-20.822999954223633 C-44.165000915527344,-20.822999954223633 2.4189999103546143,-34.32600021362305 29.60300064086914,-15.25100040435791 C51.70000076293945,0.2549999952316284 48.16600036621094,18.29400062561035 22.277999877929688,25.461000442504883"/></g><g opacity="0.4" transform="matrix(1,0,0,1,344.29400634765625,223.8520050048828)"><path fill="rgb(255,255,255)" fill-opacity="1" d=" M42.71099853515625,20.5939998626709 C42.53799819946289,5.480999946594238 15.4350004196167,-8.008999824523926 -11.854000091552734,0.7570000290870667 C-45.29800033569336,11.5 -62.4370002746582,-7.513999938964844 -42.63399887084961,-13.616000175476074 C-7.794000148773193,-24.351999282836914 26.392000198364258,-16.149999618530273 40.268001556396484,0.7570000290870667 C49.207000732421875,11.64799976348877 42.71099853515625,20.5939998626709 42.71099853515625,20.5939998626709z"/></g><g opacity="1" transform="matrix(1,0,0,1,345.66400146484375,231.22300720214844)"><path stroke-linecap="round" stroke-linejoin="round" fill-opacity="0" stroke="rgb(165,131,89)" stroke-opacity="1" stroke-width="8" d=" M-44.165000915527344,-20.822999954223633 C-44.165000915527344,-20.822999954223633 2.4189999103546143,-34.32600021362305 29.60300064086914,-15.25100040435791 C51.70000076293945,0.2549999952316284 48.16600036621094,18.29400062561035 22.277999877929688,25.461000442504883"/></g><g opacity="1" transform="matrix(1,0,0,1,338.03900146484375,210.73899841308594)"><path stroke-linecap="round" stroke-linejoin="round" fill-opacity="0" stroke="rgb(188,167,134)" stroke-opacity="1" stroke-width="8" d=" M-36.88399887084961,-0.46700000762939453 C-36.88399887084961,-0.46700000762939453 9.699999809265137,-13.970000267028809 36.88399887084961,5.105000019073486"/></g><g opacity="1" transform="matrix(1,0,0,1,256.9419860839844,224.60899353027344)"><path fill="url(#__lottie_element_28685)" fill-opacity="1" d=" M-95.63200378417969,-50.0890007019043 C-106.40499877929688,-45.5629997253418 -103.5790023803711,-30.61400032043457 -103.5790023803711,-30.61400032043457 C-103.5790023803711,-30.61400032043457 -111.61799621582031,-25.541000366210938 -112.9729995727539,-15.151000022888184 C-114.76599884033203,-1.4049999713897705 -81.90599822998047,23.632999420166016 -14.739999771118164,40.67599868774414 C52.42599868774414,57.71799850463867 113.04199981689453,51.527000427246094 113.04199981689453,22.858999252319336 C113.04199981689453,12.036999702453613 58.21099853515625,-15.468999862670898 21.069000244140625,-18.656999588012695 C-0.004999999888241291,-20.465999603271484 -24.516000747680664,-25.53499984741211 -45.207000732421875,-9.765999794006348"/></g><g opacity="0.2" transform="matrix(1,0,0,1,235.6540069580078,218.81700134277344)"><path fill="rgb(207,186,137)" fill-opacity="1" d=" M-27.968000411987305,-5.579999923706055 C-1.9880000352859497,10.979999542236328 32.34199905395508,37.68000030517578 82.62200164794922,43.91999816894531 C58.04199981689453,41.880001068115234 23.23200035095215,36.290000915527344 -14.057999610900879,21.790000915527344 C-53.007999420166016,6.650000095367432 -72.61799621582031,-11.829999923706055 -82.37799835205078,-25.389999389648438 C-82.74800109863281,-28.06999969482422 -83.7979965209961,-39.59000015258789 -75.15799713134766,-43.91999816894531 C-74.41799926757812,-42.849998474121094 -73.56800079345703,-41.70000076293945 -72.5780029296875,-40.470001220703125 C-72.55799865722656,-40.459999084472656 -72.55799865722656,-40.45000076293945 -72.55799865722656,-40.439998626708984 C-66.26799774169922,-32.689998626708984 -54.38800048828125,-21.84000015258789 -31.95800018310547,-8.079999923706055 C-30.648000717163086,-7.28000020980835 -29.31800079345703,-6.440000057220459 -27.968000411987305,-5.579999923706055z"/></g><g opacity="1" transform="matrix(1,0,0,1,173.7550048828125,242.17100524902344)"><path stroke-linecap="round" stroke-linejoin="round" fill-opacity="0" stroke="rgb(165,131,89)" stroke-opacity="1" stroke-width="8" d=" M52.53900146484375,18.749000549316406 C52.53900146484375,18.749000549316406 9.899999618530273,30.599000930786133 -22.55900001525879,18.749000549316406 C-52.42900085449219,7.843999862670898 -54.15599822998047,-13.746000289916992 -51.805999755859375,-24.014999389648438"/></g><g opacity="0.7000000000000001" transform="matrix(1,0,0,1,253.98300170898438,234.8780059814453)"><path fill="rgb(207,186,137)" fill-opacity="1" d=" M110.38400268554688,25.909000396728516 C36.40599822998047,39.82099914550781 -79.22200012207031,-1.5230000019073486 -97.24700164794922,-39.814998626708984 C-97.24700164794922,-39.814998626708984 -124.43499755859375,-29.312999725341797 -100.58599853515625,-8.91100025177002 C-85.55400085449219,3.9489998817443848 -50.38800048828125,19.952999114990234 -11.807000160217285,30.030000686645508 C10.821999549865723,35.941001892089844 34.62699890136719,39.8120002746582 56.233001708984375,39.814998626708984 C101.2490005493164,39.81999969482422 110.38400268554688,25.909000396728516 110.38400268554688,25.909000396728516z"/></g><g opacity="0.6" transform="matrix(1,0,0,1,299.0830078125,232.07699584960938)"><path fill="rgb(229,217,170)" fill-opacity="1" d=" M-71.0199966430664,-25.590999603271484 C-15.175999641418457,-28.500999450683594 11.133999824523926,42.61600112915039 68.51599884033203,24.47800064086914 C68.51599884033203,24.47800064086914 85.2959976196289,13.802000045776367 31.981000900268555,-11.315999984741211 C-18.339000701904297,-35.02299880981445 -71.0199966430664,-25.590999603271484 -71.0199966430664,-25.590999603271484z"/></g><g opacity="1" transform="matrix(1,0,0,1,317.9670104980469,129.447998046875)"><path stroke-linecap="round" stroke-linejoin="round" fill-opacity="0" stroke="rgb(188,167,134)" stroke-opacity="1" stroke-width="8" d=" M23.979000091552734,-22.898000717163086 C21.066999435424805,-4.960999965667725 6.508999824523926,12.236000061035156 -23.979000091552734,22.898000717163086"/></g><g opacity="1" transform="matrix(1,0,0,1,185.4340057373047,192.79800415039062)"><path stroke-linecap="round" stroke-linejoin="round" fill-opacity="0" stroke="rgb(188,167,134)" stroke-opacity="1" stroke-width="8" d=" M26.301000595092773,22.04599952697754 C13.652999877929688,17.22800064086914 -11.744999885559082,4.775000095367432 -26.301000595092773,-22.04599952697754"/></g><g opacity="1" transform="matrix(1,0,0,1,259.3699951171875,222.26699829101562)"><path stroke-linecap="round" stroke-linejoin="round" fill-opacity="0" stroke="rgb(255,246,226)" stroke-opacity="1" stroke-width="8" d=" M104.99700164794922,38.52000045776367 C31.018999099731445,52.43199920654297 -110.94999694824219,3.3289999961853027 -104.80400085449219,-40.92300033569336"/></g><g opacity="1" transform="matrix(1,0,0,1,291.6260070800781,238.21600341796875)"><path fill="rgb(255,250,241)" fill-opacity="1" d=" M-79.31099700927734,-23.211000442504883 C-79.31099700927734,-23.211000442504883 -60.172000885009766,-27.424999237060547 -32.986000061035156,-25.55900001525879 C-8.017000198364258,-23.84600067138672 23.73900032043457,-17.0049991607666 53.694000244140625,2.934999942779541 C83.25199890136719,22.611000061035156 48.45100021362305,33.84000015258789 48.45100021362305,33.84000015258789 C48.45100021362305,33.84000015258789 82.05799865722656,26.5 78.69100189208984,9.192999839782715 C76.375,-2.7160000801086426 30.360000610351562,-26.905000686645508 -13.446000099182129,-32.40999984741211 C-37.91999816894531,-35.48500061035156 -64.8759994506836,-36.71500015258789 -79.31099700927734,-23.211000442504883z"/></g><g opacity="1" transform="matrix(1,0,0,1,256.9419860839844,224.60899353027344)"><path stroke-linecap="round" stroke-linejoin="round" fill-opacity="0" stroke="rgb(175,149,114)" stroke-opacity="1" stroke-width="8" d=" M-95.63200378417969,-50.0890007019043 C-106.40499877929688,-45.5629997253418 -103.5790023803711,-30.61400032043457 -103.5790023803711,-30.61400032043457 C-103.5790023803711,-30.61400032043457 -111.61799621582031,-25.541000366210938 -112.9729995727539,-15.151000022888184 C-114.76599884033203,-1.4049999713897705 -81.90599822998047,23.634000778198242 -14.739999771118164,40.67599868774414 C52.42599868774414,57.71799850463867 113.04199981689453,51.527000427246094 113.04199981689453,22.858999252319336 C113.04199981689453,12.036999702453613 58.209999084472656,-15.468999862670898 21.069000244140625,-18.656999588012695 C-0.004999999888241291,-20.465999603271484 -24.516000747680664,-25.53499984741211 -45.207000732421875,-9.765999794006348"/></g><g opacity="1" transform="matrix(1,0,0,1,294.3039855957031,261.0830078125)"><path stroke-linecap="round" stroke-linejoin="round" fill-opacity="0" stroke="rgb(165,131,89)" stroke-opacity="1" stroke-width="8" d=" M-75.68099975585938,-2.5260000228881836 C-68.35800170898438,-0.18400000035762787 -60.49800109863281,2.072000026702881 -52.10200119018555,4.202000141143799 C15.064000129699707,21.243999481201172 75.68099975585938,15.053000450134277 75.68099975585938,-13.614999771118164"/></g><g opacity="1" transform="matrix(1,0,0,1,290.8590087890625,225.5959930419922)"><path stroke-linecap="round" stroke-linejoin="round" fill-opacity="0" stroke="rgb(211,198,174)" stroke-opacity="1" stroke-width="8" d=" M79.125,21.871999740600586 C79.125,11.050000190734863 24.29199981689453,-16.70599937438965 -12.848999977111816,-19.893999099731445 C-33.92300033569336,-21.702999114990234 -58.433998107910156,-26.520999908447266 -79.125,-10.751999855041504"/></g></g></g></svg>