<svg xmlns="http://www.w3.org/2000/svg" xmlns:xlink="http://www.w3.org/1999/xlink" viewBox="0 0 512 512" width="512" height="512" style="width: 100%; height: 100%; transform: translate3d(0,0,0);" preserveAspectRatio="xMidYMid meet"><defs><clipPath id="__lottie_element_46051"><rect width="512" height="512" x="0" y="0"/></clipPath><g id="__lottie_element_46052"><g style="display: block;" transform="matrix(1.0498600006103516,0,0,1,254.72300720214844,-353.4200134277344)" opacity="1"><g opacity="1" transform="matrix(1,0,0,1,0,0)"><path fill="rgb(255,255,255)" fill-opacity="1" d=" M200.19000244140625,843.177001953125 C200.19000244140625,843.177001953125 -199.25999450683594,843.2979736328125 -199.25999450683594,843.2979736328125 C-199.25999450683594,843.2979736328125 -199.25999450683594,375.5409851074219 -199.25999450683594,375.5409851074219 C-199.25999450683594,375.5409851074219 200.19000244140625,375.4200134277344 200.19000244140625,375.4200134277344 C200.19000244140625,375.4200134277344 200.19000244140625,843.177001953125 200.19000244140625,843.177001953125z"/></g></g></g><clipPath id="__lottie_element_46056"><path d="M0,0 L512,0 L512,512 L0,512z"/></clipPath><linearGradient id="__lottie_element_46063" spreadMethod="pad" gradientUnits="userSpaceOnUse" x1="-80.6989974975586" y1="781.1240234375" x2="-93.4800033569336" y2="491.3399963378906"><stop offset="0%" stop-color="rgb(68,104,139)"/><stop offset="59%" stop-color="rgb(96,134,167)"/><stop offset="100%" stop-color="rgb(123,163,195)"/></linearGradient><linearGradient id="__lottie_element_46076" spreadMethod="pad" gradientUnits="userSpaceOnUse" x1="77.70700073242188" y1="782.0689697265625" x2="69.94999694824219" y2="489.8710021972656"><stop offset="0%" stop-color="rgb(68,104,139)"/><stop offset="59%" stop-color="rgb(96,134,167)"/><stop offset="100%" stop-color="rgb(123,163,195)"/></linearGradient><linearGradient id="__lottie_element_46088" spreadMethod="pad" gradientUnits="userSpaceOnUse"><stop/><stop/><stop/></linearGradient><linearGradient id="__lottie_element_46089" spreadMethod="pad" gradientUnits="userSpaceOnUse"><stop/><stop/><stop/></linearGradient><mask id="__lottie_element_46052_1" mask-type="alpha"><g id="__lottie_element_46052"><g style="display: block;" transform="matrix(1.0498600006103516,0,0,1,254.72300720214844,-353.4200134277344)" opacity="1"><g opacity="1" transform="matrix(1,0,0,1,0,0)"><path fill="rgb(255,255,255)" fill-opacity="1" d=" M200.19000244140625,843.177001953125 C200.19000244140625,843.177001953125 -199.25999450683594,843.2979736328125 -199.25999450683594,843.2979736328125 C-199.25999450683594,843.2979736328125 -199.25999450683594,375.5409851074219 -199.25999450683594,375.5409851074219 C-199.25999450683594,375.5409851074219 200.19000244140625,375.4200134277344 200.19000244140625,375.4200134277344 C200.19000244140625,375.4200134277344 200.19000244140625,843.177001953125 200.19000244140625,843.177001953125z"/></g></g></g></mask></defs><g clip-path="url(#__lottie_element_46051)"><g style="display: block;" mask="url(#__lottie_element_46052_1)"><g clip-path="url(#__lottie_element_46056)" transform="matrix(1,0,0,1,0,0)" opacity="1"><g style="display: block;" transform="matrix(1.0199999809265137,0,0,1.0199999809265137,262.64544677734375,-348.14453125)" opacity="1"><g opacity="1" transform="matrix(1,0,0,1,0,0)"><path fill="url(#__lottie_element_46076)" fill-opacity="1" d=" M261.375,786.2780151367188 C260.58099365234375,780.719970703125 258.3840026855469,745.7039794921875 229.2169952392578,725.5449829101562 C202.2209930419922,706.885986328125 144.25900268554688,712.0469970703125 137.50999450683594,690.2119750976562 C133.86700439453125,678.4240112304688 134.3470001220703,664.9420166015625 136.71600341796875,659.906982421875 C138.83299255371094,655.4080200195312 141.84100341796875,652.4030151367188 144.12600708007812,650.3790283203125 C170.1510009765625,627.3309936523438 174.03399658203125,596.1220092773438 174.03399658203125,596.1220092773438 C184.3560028076172,596.916015625 193.08999633789062,562.7739868164062 176.0189971923828,556.4219970703125 C182.37100219726562,492.9010009765625 149.41900634765625,454.78900146484375 97.80899810791016,454.78900146484375 C98.02799987792969,454.78900146484375 98.5719985961914,454.78900146484375 98.35399627685547,454.78900146484375 C98.35399627685547,454.78900146484375 98.94999694824219,454.78900146484375 98.94999694824219,454.78900146484375 C47.34000015258789,454.78900146484375 14.387999534606934,492.9010009765625 20.739999771118164,556.4219970703125 C3.6689999103546143,562.7739868164062 12.402999877929688,596.916015625 22.725000381469727,596.1220092773438 C22.725000381469727,596.1220092773438 26.607999801635742,627.3309936523438 52.632999420166016,650.3790283203125 C54.917999267578125,652.4030151367188 57.92599868774414,655.4080200195312 60.042999267578125,659.906982421875 C62.4119987487793,664.9420166015625 62.891998291015625,678.4240112304688 59.249000549316406,690.2119750976562 C52.5,712.0469970703125 -5.461999893188477,706.885986328125 -32.45800018310547,725.5449829101562 C-61.625,745.7039794921875 -63.821998596191406,780.719970703125 -64.61599731445312,786.2780151367188"/></g></g><g style="display: block;" transform="matrix(1.0199999809265137,0,0,1.0199999809265137,262.64544677734375,-348.14453125)" opacity="1"><g opacity="1" transform="matrix(1,0,0,1,0,0)"><path stroke-linecap="round" stroke-linejoin="round" fill-opacity="0" stroke="rgb(51,83,117)" stroke-opacity="1" stroke-width="8" d=" M148.29200744628906,701.1290283203125 C142.8470001220703,698.4140014648438 138.9739990234375,694.948974609375 137.50999450683594,690.2119750976562 C133.86700439453125,678.4240112304688 134.3470001220703,664.9420166015625 136.71600341796875,659.906982421875 C138.83299255371094,655.4080200195312 141.84100341796875,652.4030151367188 144.12600708007812,650.3790283203125 C170.1510009765625,627.3309936523438 174.03399658203125,596.1220092773438 174.03399658203125,596.1220092773438 C184.3560028076172,596.916015625 193.08999633789062,562.7739868164062 176.0189971923828,556.4219970703125"/></g><g opacity="1" transform="matrix(1,0,0,1,0,0)"><path stroke-linecap="round" stroke-linejoin="round" fill-opacity="0" stroke="rgb(51,83,117)" stroke-opacity="1" stroke-width="8" d=" M20.739999771118164,556.4219970703125 C3.6689999103546143,562.7739868164062 12.402999877929688,596.916015625 22.725000381469727,596.1220092773438 C22.725000381469727,596.1220092773438 26.607999801635742,627.3309936523438 52.632999420166016,650.3790283203125 C54.917999267578125,652.4030151367188 57.92599868774414,655.4080200195312 60.042999267578125,659.906982421875 C62.4119987487793,664.9420166015625 62.891998291015625,678.4240112304688 59.249000549316406,690.2119750976562 C57.645999908447266,695.3989868164062 53.15299987792969,699.06298828125 46.87099838256836,701.8839721679688"/></g></g><g style="display: block;" transform="matrix(1.0199999809265137,0,0,1.0199999809265137,262.64544677734375,-348.14453125)" opacity="1"><g opacity="1" transform="matrix(1,0,0,1,0,0)"><path stroke-linecap="round" stroke-linejoin="round" fill-opacity="0" stroke="rgb(165,214,234)" stroke-opacity="1" stroke-width="8" d=" M260.32501220703125,773.6749877929688 C258.2080078125,762.3209838867188 251.78799438476562,741.14599609375 229.2169952392578,725.5449829101562 C208.04200744628906,710.9089965820312 167.81399536132812,710.9290161132812 148.19400024414062,701.0800170898438"/></g><g opacity="1" transform="matrix(1,0,0,1,0,0)"><path stroke-linecap="round" stroke-linejoin="round" fill-opacity="0" stroke="rgb(165,214,234)" stroke-opacity="1" stroke-width="8" d=" M48.79800033569336,700.9619750976562 C29.264999389648438,710.9290161132812 -11.197999954223633,710.8510131835938 -32.45800018310547,725.5449829101562 C-55.34700012207031,741.3660278320312 -61.62699890136719,762.9180297851562 -63.65299987792969,774.1489868164062"/></g><g opacity="1" transform="matrix(1,0,0,1,0,0)"><path stroke-linecap="round" stroke-linejoin="round" fill-opacity="0" stroke="rgb(165,214,234)" stroke-opacity="1" stroke-width="8" d=" M183.33399963378906,563.0189819335938 C181.7899932861328,560.0490112304688 179.4149932861328,557.6859741210938 176.0189971923828,556.4219970703125 C182.37100219726562,492.9010009765625 149.41900634765625,454.78900146484375 97.80899810791016,454.78900146484375 C98.02799987792969,454.78900146484375 98.5719985961914,454.78900146484375 98.35399627685547,454.78900146484375 C98.35399627685547,454.78900146484375 98.94999694824219,454.78900146484375 98.94999694824219,454.78900146484375 C47.34000015258789,454.78900146484375 14.387999534606934,492.9010009765625 20.739999771118164,556.4219970703125 C16.86199951171875,557.864990234375 14.315999984741211,560.7420043945312 12.817000389099121,564.3179931640625"/></g></g><g style="display: block;" transform="matrix(1.0199999809265137,0,0,1.0199999809265137,262.64520263671875,-348.14453125)" opacity="1"><g opacity="1" transform="matrix(1,0,0,1,0,0)"><path fill="url(#__lottie_element_46063)" fill-opacity="1" d=" M66.88500213623047,786.2780151367188 C66.09100341796875,780.719970703125 63.89500045776367,745.7039794921875 34.72800064086914,725.5449829101562 C7.73199987411499,706.885986328125 -50.23099899291992,712.0469970703125 -56.97999954223633,690.2119750976562 C-60.62300109863281,678.4240112304688 -60.143001556396484,664.9420166015625 -57.77399826049805,659.906982421875 C-55.65700149536133,655.4080200195312 -52.64799880981445,652.4030151367188 -50.362998962402344,650.3790283203125 C-24.33799934387207,627.3309936523438 -20.45599937438965,596.1220092773438 -20.45599937438965,596.1220092773438 C-10.133999824523926,596.916015625 -1.399999976158142,562.7739868164062 -18.47100067138672,556.4219970703125 C-12.119000434875488,492.9010009765625 -45.06999969482422,454.78900146484375 -96.68000030517578,454.78900146484375 C-96.46099853515625,454.78900146484375 -95.91799926757812,454.78900146484375 -96.13600158691406,454.78900146484375 C-96.13600158691406,454.78900146484375 -95.54000091552734,454.78900146484375 -95.54000091552734,454.78900146484375 C-147.14999389648438,454.78900146484375 -180.1020050048828,492.9010009765625 -173.75,556.4219970703125 C-190.8209991455078,562.7739868164062 -182.08700561523438,596.916015625 -171.76499938964844,596.1220092773438 C-171.76499938964844,596.1220092773438 -167.8820037841797,627.3309936523438 -141.85699462890625,650.3790283203125 C-139.57200622558594,652.4030151367188 -136.56300354003906,655.4080200195312 -134.4459991455078,659.906982421875 C-132.07699584960938,664.9420166015625 -131.5970001220703,678.4240112304688 -135.24000549316406,690.2119750976562 C-141.98899841308594,712.0469970703125 -199.95199584960938,706.885986328125 -226.947998046875,725.5449829101562 C-256.114990234375,745.7039794921875 -258.3110046386719,780.719970703125 -259.1050109863281,786.2780151367188"/></g></g><g style="display: block;" transform="matrix(1.0199999809265137,0,0,1.0199999809265137,262.64520263671875,-348.14453125)" opacity="1"><g opacity="1" transform="matrix(1,0,0,1,0,0)"><path stroke-linecap="round" stroke-linejoin="round" fill-opacity="0" stroke="rgb(51,83,117)" stroke-opacity="1" stroke-width="8" d=" M-43.61800003051758,702.31298828125 C-50.41299819946289,699.4359741210938 -55.29399871826172,695.666015625 -56.97999954223633,690.2119750976562 C-60.62300109863281,678.4240112304688 -60.143001556396484,664.9420166015625 -57.77399826049805,659.906982421875 C-55.65700149536133,655.4080200195312 -52.64799880981445,652.4030151367188 -50.362998962402344,650.3790283203125 C-24.33799934387207,627.3309936523438 -20.45599937438965,596.1220092773438 -20.45599937438965,596.1220092773438 C-10.133999824523926,596.916015625 -1.399999976158142,562.7739868164062 -18.47100067138672,556.4219970703125"/></g><g opacity="1" transform="matrix(1,0,0,1,0,0)"><path stroke-linecap="round" stroke-linejoin="round" fill-opacity="0" stroke="rgb(51,83,117)" stroke-opacity="1" stroke-width="8" d=" M-173.75,556.4219970703125 C-190.8209991455078,562.7739868164062 -182.08700561523438,596.916015625 -171.76499938964844,596.1220092773438 C-171.76499938964844,596.1220092773438 -167.8820037841797,627.3309936523438 -141.85699462890625,650.3790283203125 C-139.57200622558594,652.4030151367188 -136.56300354003906,655.4080200195312 -134.4459991455078,659.906982421875 C-132.07699584960938,664.9420166015625 -131.5970001220703,678.4240112304688 -135.24000549316406,690.2119750976562 C-136.90499877929688,695.5969848632812 -141.68499755859375,699.3410034179688 -148.3470001220703,702.2039794921875"/></g></g><g style="display: block;" transform="matrix(1.0199999809265137,0,0,1.0199999809265137,262.64520263671875,-348.14453125)" opacity="1"><g opacity="1" transform="matrix(1,0,0,1,0,0)"><path stroke-linecap="round" stroke-linejoin="round" fill-opacity="0" stroke="rgb(165,214,234)" stroke-opacity="1" stroke-width="8" d=" M65.83499908447266,773.6749877929688 C63.71799850463867,762.3209838867188 57.29899978637695,741.14599609375 34.72800064086914,725.5449829101562 C12.895999908447266,710.4550170898438 -29.18899917602539,710.9439697265625 -48.060001373291016,700.135009765625"/></g><g opacity="1" transform="matrix(1,0,0,1,0,0)"><path stroke-linecap="round" stroke-linejoin="round" fill-opacity="0" stroke="rgb(165,214,234)" stroke-opacity="1" stroke-width="8" d=" M-145.89999389648438,701.0679931640625 C-163.0540008544922,711.1710205078125 -190.04200744628906,711.97802734375 -210.2760009765625,717.5180053710938"/></g><g opacity="1" transform="matrix(1,0,0,1,0,0)"><path stroke-linecap="round" stroke-linejoin="round" fill-opacity="0" stroke="rgb(165,214,234)" stroke-opacity="1" stroke-width="8" d=" M-11.154999732971191,563.0189819335938 C-12.699000358581543,560.0490112304688 -15.074999809265137,557.6859741210938 -18.47100067138672,556.4219970703125 C-12.119000434875488,492.9010009765625 -45.06999969482422,454.78900146484375 -96.68000030517578,454.78900146484375 C-96.46099853515625,454.78900146484375 -95.91799926757812,454.78900146484375 -96.13600158691406,454.78900146484375 C-96.13600158691406,454.78900146484375 -95.54000091552734,454.78900146484375 -95.54000091552734,454.78900146484375 C-147.14999389648438,454.78900146484375 -180.1020050048828,492.9010009765625 -173.75,556.4219970703125 C-177.6280059814453,557.864990234375 -180.1739959716797,560.7420043945312 -181.67300415039062,564.3179931640625"/></g></g></g></g></g></svg>