<svg xmlns="http://www.w3.org/2000/svg" xmlns:xlink="http://www.w3.org/1999/xlink" viewBox="0 0 512 512" width="512" height="512" style="width: 100%; height: 100%; transform: translate3d(0,0,0);" preserveAspectRatio="xMidYMid meet"><defs><clipPath id="__lottie_element_45013"><rect width="512" height="512" x="0" y="0"/></clipPath><clipPath id="__lottie_element_45069"><path d="M0,0 L512,0 L512,512 L0,512z"/></clipPath><clipPath id="__lottie_element_45074"><path d="M0,0 L512,0 L512,512 L0,512z"/></clipPath><clipPath id="__lottie_element_45105"><path d="M0,0 L512,0 L512,512 L0,512z"/></clipPath><clipPath id="__lottie_element_45136"><path d="M0,0 L512,0 L512,512 L0,512z"/></clipPath><clipPath id="__lottie_element_45167"><path d="M0,0 L512,0 L512,512 L0,512z"/></clipPath><clipPath id="__lottie_element_45198"><path d="M0,0 L512,0 L512,512 L0,512z"/></clipPath><clipPath id="__lottie_element_45229"><path d="M0,0 L512,0 L512,512 L0,512z"/></clipPath><clipPath id="__lottie_element_45261"><path d="M0,0 L512,0 L512,512 L0,512z"/></clipPath><clipPath id="__lottie_element_45266"><path d="M0,0 L512,0 L512,512 L0,512z"/></clipPath><clipPath id="__lottie_element_45297"><path d="M0,0 L512,0 L512,512 L0,512z"/></clipPath><clipPath id="__lottie_element_45328"><path d="M0,0 L512,0 L512,512 L0,512z"/></clipPath><clipPath id="__lottie_element_45359"><path d="M0,0 L512,0 L512,512 L0,512z"/></clipPath><clipPath id="__lottie_element_45390"><path d="M0,0 L512,0 L512,512 L0,512z"/></clipPath><clipPath id="__lottie_element_45421"><path d="M0,0 L512,0 L512,512 L0,512z"/></clipPath><clipPath id="__lottie_element_45453"><path d="M0,0 L512,0 L512,512 L0,512z"/></clipPath><clipPath id="__lottie_element_45458"><path d="M0,0 L512,0 L512,512 L0,512z"/></clipPath><clipPath id="__lottie_element_45489"><path d="M0,0 L512,0 L512,512 L0,512z"/></clipPath><clipPath id="__lottie_element_45520"><path d="M0,0 L512,0 L512,512 L0,512z"/></clipPath><clipPath id="__lottie_element_45551"><path d="M0,0 L512,0 L512,512 L0,512z"/></clipPath><clipPath id="__lottie_element_45582"><path d="M0,0 L512,0 L512,512 L0,512z"/></clipPath><clipPath id="__lottie_element_45613"><path d="M0,0 L512,0 L512,512 L0,512z"/></clipPath></defs><g clip-path="url(#__lottie_element_45013)"><g style="display: block;" transform="matrix(0.9900000095367432,0,0,0.9900000095367432,33.836326599121094,157.25912475585938)" opacity="1"><g opacity="1" transform="matrix(1,0,0,1,223.81700134277344,162.8470001220703)"><path stroke-linecap="butt" stroke-linejoin="miter" fill-opacity="0" stroke-miterlimit="10" stroke="rgb(188,0,103)" stroke-opacity="1" stroke-width="8" d=" M135.61000061035156,-51.867000579833984 C109.38099670410156,-74.552001953125 130.61000061035156,-109.18199920654297 108.23799896240234,-123.77400207519531 C79,-142.8470001220703 -79.0270004272461,-142.8280029296875 -108.23699951171875,-123.77400207519531 C-130.60800170898438,-109.18199920654297 -109.37999725341797,-74.552001953125 -135.60800170898438,-51.867000579833984 C-161.83700561523438,-29.18199920654297 -203.81700134277344,-5.230999946594238 -203.49400329589844,50.10599899291992 C-203.1909942626953,102.16600036621094 -155.1580047607422,127.83599853515625 -119.40899658203125,135.1320037841797 C-84.89399719238281,142.17599487304688 -13.119000434875488,142.78799438476562 -0.8989999890327454,142.84100341796875 C-0.8989999890327454,142.84100341796875 -0.8989999890327454,142.8470001220703 -0.8989999890327454,142.8470001220703 C-0.8989999890327454,142.8470001220703 0.8999999761581421,142.8470001220703 0.8999999761581421,142.8470001220703 C0.8999999761581421,142.8470001220703 0.8999999761581421,142.84100341796875 0.8999999761581421,142.84100341796875 C13.119999885559082,142.78799438476562 84.89600372314453,142.17599487304688 119.41000366210938,135.1320037841797 C155.15899658203125,127.83599853515625 203.19200134277344,102.16600036621094 203.4949951171875,50.10599899291992 C203.81700134277344,-5.230999946594238 161.83900451660156,-29.18199920654297 135.61000061035156,-51.867000579833984z"/><path fill="rgb(188,0,103)" fill-opacity="1" d=" M135.61000061035156,-51.867000579833984 C109.38099670410156,-74.552001953125 130.61000061035156,-109.18199920654297 108.23799896240234,-123.77400207519531 C79,-142.8470001220703 -79.0270004272461,-142.8280029296875 -108.23699951171875,-123.77400207519531 C-130.60800170898438,-109.18199920654297 -109.37999725341797,-74.552001953125 -135.60800170898438,-51.867000579833984 C-161.83700561523438,-29.18199920654297 -203.81700134277344,-5.230999946594238 -203.49400329589844,50.10599899291992 C-203.1909942626953,102.16600036621094 -155.1580047607422,127.83599853515625 -119.40899658203125,135.1320037841797 C-84.89399719238281,142.17599487304688 -13.119000434875488,142.78799438476562 -0.8989999890327454,142.84100341796875 C-0.8989999890327454,142.84100341796875 -0.8989999890327454,142.8470001220703 -0.8989999890327454,142.8470001220703 C-0.8989999890327454,142.8470001220703 0.8999999761581421,142.8470001220703 0.8999999761581421,142.8470001220703 C0.8999999761581421,142.8470001220703 0.8999999761581421,142.84100341796875 0.8999999761581421,142.84100341796875 C13.119999885559082,142.78799438476562 84.89600372314453,142.17599487304688 119.41000366210938,135.1320037841797 C155.15899658203125,127.83599853515625 203.19200134277344,102.16600036621094 203.4949951171875,50.10599899291992 C203.81700134277344,-5.230999946594238 161.83900451660156,-29.18199920654297 135.61000061035156,-51.867000579833984z"/></g></g><g style="display: block;" transform="matrix(0.9900000095367432,0,0,0.9900000095367432,108.10118103027344,153.05955505371094)" opacity="1"><g opacity="1" transform="matrix(1,0,0,1,149.2209930419922,80.03299713134766)"><path fill="rgb(164,164,164)" fill-opacity="1" d=" M-144.65899658203125,42.34199905395508 C-144.65899658203125,42.34199905395508 -148.9720001220703,-23.55500030517578 -134.9149932861328,-43.78300094604492 C-120.85800170898438,-64.01200103759766 -84.1719970703125,-75.66799926757812 -4.9720001220703125,-77.7249984741211 C74.22799682617188,-79.78199768066406 120.2229995727539,-61.49599838256836 132.51400756835938,-49.03300094604492 C148.4550018310547,-32.86800003051758 148.9709930419922,25.475000381469727 148.28500366210938,46.731998443603516 C147.60000610351562,67.98899841308594 -136.23199462890625,79.78199768066406 -144.65899658203125,42.34199905395508z"/></g></g><g style="display: block;" transform="matrix(0.9702000021934509,0,0,0.9702000021934509,119.85687255859375,166.15921020507812)" opacity="1"><g opacity="1" transform="matrix(1,0,0,1,139.7220001220703,73.80000305175781)"><path fill="rgb(188,0,103)" fill-opacity="1" d=" M-135.4340057373047,39.03499984741211 C-135.4340057373047,39.03499984741211 -139.4720001220703,-21.71500015258789 -126.31099700927734,-40.362998962402344 C-113.1500015258789,-59.01100158691406 -78.80400085449219,-69.75800323486328 -4.6539998054504395,-71.65399932861328 C69.49500274658203,-73.55000305175781 112.55699920654297,-56.69300079345703 124.06400299072266,-45.202999114990234 C138.98899841308594,-30.301000595092773 139.4720001220703,23.485000610351562 138.8300018310547,43.08100128173828 C138.18800354003906,62.676998138427734 -127.54399871826172,73.55000305175781 -135.4340057373047,39.03499984741211z"/><path stroke-linecap="butt" stroke-linejoin="miter" fill-opacity="0" stroke-miterlimit="4" stroke="rgb(116,2,65)" stroke-opacity="1" stroke-width="8" d=" M-135.4340057373047,39.03499984741211 C-135.4340057373047,39.03499984741211 -139.4720001220703,-21.71500015258789 -126.31099700927734,-40.362998962402344 C-113.1500015258789,-59.01100158691406 -78.80400085449219,-69.75800323486328 -4.6539998054504395,-71.65399932861328 C69.49500274658203,-73.55000305175781 112.55699920654297,-56.69300079345703 124.06400299072266,-45.202999114990234 C138.98899841308594,-30.301000595092773 139.4720001220703,23.485000610351562 138.8300018310547,43.08100128173828 C138.18800354003906,62.676998138427734 -127.54399871826172,73.55000305175781 -135.4340057373047,39.03499984741211z"/></g></g><g style="display: block;" transform="matrix(0.9900000095367432,0,0,0.9900000095367432,88.5486831665039,133.50704956054688)" opacity="1"><g opacity="1" transform="matrix(1,0,0,1,168.9709930419922,99.78299713134766)"><path stroke-linecap="butt" stroke-linejoin="miter" fill-opacity="0" stroke-miterlimit="10" stroke="rgb(94,94,94)" stroke-opacity="1" stroke-width="8" d=" M-144.65899658203125,42.34199905395508 C-144.65899658203125,42.34199905395508 -148.9720001220703,-23.55500030517578 -134.9149932861328,-43.78300094604492 C-120.85800170898438,-64.01200103759766 -84.1719970703125,-75.66799926757812 -4.9720001220703125,-77.7249984741211 C74.22799682617188,-79.78199768066406 120.2229995727539,-61.49599838256836 132.51400756835938,-49.03300094604492 C148.4550018310547,-32.86800003051758 148.9709930419922,25.475000381469727 148.28500366210938,46.731998443603516 C147.60000610351562,67.98899841308594 -136.23199462890625,79.78199768066406 -144.65899658203125,42.34199905395508z"/></g></g><g style="display: block;" transform="matrix(0.9900000095367432,0,0,0.9900000095367432,108.10218048095703,153.05955505371094)" opacity="1"><g opacity="1" transform="matrix(1,0,0,1,149.2209930419922,80.03299713134766)"><path fill="rgb(225,225,225)" fill-opacity="1" d=" M-144.65899658203125,42.34199905395508 C-144.65899658203125,42.34199905395508 -148.9720001220703,-23.55500030517578 -134.9149932861328,-43.78300094604492 C-120.85800170898438,-64.01200103759766 -84.1719970703125,-75.66799926757812 -4.9720001220703125,-77.7249984741211 C74.22799682617188,-79.78199768066406 120.2229995727539,-61.49599838256836 132.51400756835938,-49.03300094604492 C148.4550018310547,-32.86800003051758 148.9709930419922,25.475000381469727 148.28500366210938,46.731998443603516 C147.60000610351562,67.98899841308594 -136.23199462890625,79.78199768066406 -144.65899658203125,42.34199905395508z"/></g></g><g style="display: block;" transform="matrix(0.9900000095367432,0,0,0.9900000095367432,117.60717010498047,163.74562072753906)" opacity="1"><g opacity="1" transform="matrix(1,0,0,1,139.7220001220703,73.80000305175781)"><path fill="rgb(163,163,163)" fill-opacity="1" d=" M-135.4340057373047,39.03499984741211 C-135.4340057373047,39.03499984741211 -139.4720001220703,-21.71500015258789 -126.31099700927734,-40.362998962402344 C-113.1500015258789,-59.01100158691406 -78.80400085449219,-69.75800323486328 -4.6539998054504395,-71.65399932861328 C69.49500274658203,-73.55000305175781 112.55699920654297,-56.69300079345703 124.06400299072266,-45.202999114990234 C138.98899841308594,-30.301000595092773 139.4720001220703,23.485000610351562 138.8300018310547,43.08100128173828 C138.18800354003906,62.676998138427734 -127.54399871826172,73.55000305175781 -135.4340057373047,39.03499984741211z"/></g></g><g style="display: block;" transform="matrix(0.9900000095367432,0,0,0.9900000095367432,88.5496826171875,133.50704956054688)" opacity="1"><g opacity="1" transform="matrix(1,0,0,1,168.9709930419922,99.78299713134766)"><path stroke-linecap="butt" stroke-linejoin="miter" fill-opacity="0" stroke-miterlimit="10" stroke="rgb(94,94,94)" stroke-opacity="1" stroke-width="8" d=" M-144.65899658203125,42.34199905395508 C-144.65899658203125,42.34199905395508 -148.9720001220703,-23.55500030517578 -134.9149932861328,-43.78300094604492 C-120.85800170898438,-64.01200103759766 -84.1719970703125,-75.66799926757812 -4.9720001220703125,-77.7249984741211 C74.22799682617188,-79.78199768066406 120.2229995727539,-61.49599838256836 132.51400756835938,-49.03300094604492 C148.4550018310547,-32.86800003051758 148.9709930419922,25.475000381469727 148.28500366210938,46.731998443603516 C147.60000610351562,67.98899841308594 -136.23199462890625,79.78199768066406 -144.65899658203125,42.34199905395508z"/></g></g><g style="display: block;" transform="matrix(0.9900000095367432,0,0,0.9900000095367432,53.388832092285156,176.81163024902344)" opacity="1"><g opacity="1" transform="matrix(1,0,0,1,204.06700134277344,143.0970001220703)"><path fill="rgb(255,188,219)" fill-opacity="1" d=" M135.61000061035156,-51.867000579833984 C109.38099670410156,-74.552001953125 130.61000061035156,-109.18199920654297 108.23799896240234,-123.77400207519531 C79,-142.8470001220703 -79.0270004272461,-142.8280029296875 -108.23699951171875,-123.77400207519531 C-130.60800170898438,-109.18199920654297 -109.37999725341797,-74.552001953125 -135.60800170898438,-51.867000579833984 C-161.83700561523438,-29.18199920654297 -203.81700134277344,-5.230999946594238 -203.49400329589844,50.10599899291992 C-203.1909942626953,102.16600036621094 -155.1580047607422,127.83599853515625 -119.40899658203125,135.1320037841797 C-84.89399719238281,142.17599487304688 -13.119000434875488,142.78799438476562 -0.8989999890327454,142.84100341796875 C-0.8989999890327454,142.84100341796875 -0.8989999890327454,142.8470001220703 -0.8989999890327454,142.8470001220703 C-0.8989999890327454,142.8470001220703 0.8999999761581421,142.8470001220703 0.8999999761581421,142.8470001220703 C0.8999999761581421,142.8470001220703 0.8999999761581421,142.84100341796875 0.8999999761581421,142.84100341796875 C13.119999885559082,142.78799438476562 84.89600372314453,142.17599487304688 119.41000366210938,135.1320037841797 C155.15899658203125,127.83599853515625 203.19200134277344,102.16600036621094 203.4949951171875,50.10599899291992 C203.81700134277344,-5.230999946594238 161.83900451660156,-29.18199920654297 135.61000061035156,-51.867000579833984z"/></g></g><g style="display: block;" transform="matrix(0.9900000095367432,0,0,0.9900000095367432,62.017662048339844,192.23683166503906)" opacity="1"><g opacity="1" transform="matrix(1,0,0,1,194.85000610351562,128.6009979248047)"><path fill="rgb(255,115,179)" fill-opacity="1" d=" M108.29299926757812,-54.37900161743164 C84.5510025024414,-73.9749984741211 102.7490005493164,-102.88899993896484 82.49800109863281,-115.49400329589844 C63.45000076293945,-127.35099792480469 8.822999954223633,-126.00900268554688 0.5019999742507935,-125.83999633789062 C-7.818999767303467,-126.00900268554688 -62.44599914550781,-128.3509979248047 -81.49400329589844,-116.49400329589844 C-101.74400329589844,-103.88899993896484 -83.5459976196289,-74.9749984741211 -107.28900146484375,-55.37900161743164 C-131.031005859375,-35.78300094604492 -194.60000610351562,-26.152000427246094 -194.60000610351562,43.70800018310547 C-194.60000610351562,88.6780014038086 -149.57200622558594,117.96900177001953 -101.58799743652344,122.26599884033203 C-42.25600051879883,127.58000183105469 71.3499984741211,128.3509979248047 102.59300231933594,122.26599884033203 C134.9530029296875,115.96399688720703 194.60000610351562,101.7699966430664 194.60000610351562,40.70800018310547 C194.60000610351562,-25.506999969482422 132.03500366210938,-34.78300094604492 108.29299926757812,-54.37900161743164z"/></g></g><g style="display: block;" transform="matrix(0.9900000095367432,0,0,0.9900000095367432,44.919376373291016,297.99951171875)" opacity="1"><g opacity="1" transform="matrix(1,0,0,1,214.31199645996094,76.73600006103516)"><path fill="rgb(234,74,147)" fill-opacity="1" d=" M111.61799621582031,65.9800033569336 C66.7979965209961,75.46700286865234 -65.38500213623047,76.48600006103516 -115.00199890136719,65.9800033569336 C-148.9219970703125,58.78900146484375 -197.5019989013672,33.50299835205078 -197.79200744628906,-17.777999877929688 C-197.90199279785156,-37.43000030517578 -189.79299926757812,-53.0620002746582 -182.05299377441406,-66.0739974975586 C-182.05299377441406,-66.0739974975586 -171.46200561523438,-76.48600006103516 -171.46200561523438,-76.48600006103516 C-214.06199645996094,-29.69700050354004 -146.552001953125,3.7699999809265137 -114.50199890136719,11.77299976348877 C-70.7750015258789,22.69099998474121 63.72100067138672,21.083999633789062 111.12699890136719,11.77299976348877 C146.7169952392578,4.789000034332275 207.93699645996094,-23.43199920654297 169.08700561523438,-73.29499816894531 C174.02699279785156,-68.30999755859375 179.44700622558594,-62.53799819946289 184.43699645996094,-55.76100158691406 C214.06199645996094,2.072000026702881 174.10499572753906,52.733001708984375 111.61799621582031,65.9800033569336z"/></g></g><g style="display: block;" transform="matrix(0.9900000095367432,0,0,0.9900000095367432,135.6905059814453,181.786376953125)" opacity="0.1"><g opacity="1" transform="matrix(1,0,0,1,120.9209976196289,37.321998596191406)"><path fill="rgb(204,0,82)" fill-opacity="1" d=" M96.77400207519531,36.54899978637695 C12.385000228881836,16.24799919128418 -55.58700180053711,28.589000701904297 -96.87100219726562,36.917999267578125 C-109.93900299072266,39.55400085449219 -121.96499633789062,28.933000564575195 -120.8489990234375,15.64799976348877 C-119.552001953125,0.19499999284744263 -121.00499725341797,-14.682999610900879 -108.2229995727539,-23.020999908447266 C-78.98899841308594,-42.097999572753906 79.04199981689453,-42.07899856567383 108.24700164794922,-23.020999908447266 C120.93900299072266,-14.746000289916992 119.6050033569336,-0.028999999165534973 120.85399627685547,15.298999786376953 C121.94000244140625,28.628000259399414 109.7760009765625,39.676998138427734 96.77400207519531,36.54899978637695z"/><g opacity="1" transform="matrix(1,0,0,1,0,0)"/></g></g><g style="display: block;" transform="matrix(0.9900000095367432,0,0,0.9900000095367432,57.0013313293457,172.540771484375)" opacity="1"><g opacity="1" transform="matrix(1,0,0,1,343.3659973144531,77.62799835205078)"><path fill="rgb(234,74,159)" fill-opacity="1" d=" M37.38999938964844,57.62799835205078 C0,11.800999641418457 -37.38999938964844,27.99799919128418 -37.38999938964844,-30.98200035095215 C-37.38999938964844,-57.62799835205078 -23.726999282836914,-44.42599868774414 -23.59000015258789,-34.512001037597656 C-23.33799934387207,-16.216999053955078 -25.040000915527344,2.6080000400543213 -7.340000152587891,17.917999267578125 C6.039999961853027,29.488000869750977 23.530000686645508,41.38800048828125 37.38999938964844,57.62799835205078z"/><path stroke-linecap="butt" stroke-linejoin="miter" fill-opacity="0" stroke-miterlimit="10" stroke="rgb(187,0,103)" stroke-opacity="1" stroke-width="8" d=" M37.38999938964844,57.62799835205078 C0,11.800999641418457 -37.38999938964844,27.99799919128418 -37.38999938964844,-30.98200035095215 C-37.38999938964844,-57.62799835205078 -23.726999282836914,-44.42599868774414 -23.59000015258789,-34.512001037597656 C-23.33799934387207,-16.216999053955078 -25.040000915527344,2.6080000400543213 -7.340000152587891,17.917999267578125 C6.039999961853027,29.488000869750977 23.530000686645508,41.38800048828125 37.38999938964844,57.62799835205078z"/></g><g opacity="1" transform="matrix(1,0,0,1,57.38999938964844,77.62799835205078)"><path fill="rgb(234,74,159)" fill-opacity="1" d=" M-37.38999938964844,57.62799835205078 C0,11.800999641418457 37.38999938964844,27.99799919128418 37.38999938964844,-30.98200035095215 C37.38999938964844,-57.62799835205078 24.06599998474121,-42.19900131225586 23.59000015258789,-34.512001037597656 C23.579999923706055,-34.35200119018555 23.75,-34.50199890136719 23.59000015258789,-34.512001037597656 C21.1299991607666,-18.152000427246094 25.040000915527344,2.6080000400543213 7.340000152587891,17.917999267578125 C-6.039999961853027,29.488000869750977 -23.530000686645508,41.38800048828125 -37.38999938964844,57.62799835205078z"/><path stroke-linecap="butt" stroke-linejoin="miter" fill-opacity="0" stroke-miterlimit="10" stroke="rgb(187,0,103)" stroke-opacity="1" stroke-width="8" d=" M-37.38999938964844,57.62799835205078 C0,11.800999641418457 37.38999938964844,27.99799919128418 37.38999938964844,-30.98200035095215 C37.38999938964844,-57.62799835205078 24.06599998474121,-42.19900131225586 23.59000015258789,-34.512001037597656 C23.579999923706055,-34.35200119018555 23.75,-34.50199890136719 23.59000015258789,-34.512001037597656 C21.1299991607666,-18.152000427246094 25.040000915527344,2.6080000400543213 7.340000152587891,17.917999267578125 C-6.039999961853027,29.488000869750977 -23.530000686645508,41.38800048828125 -37.38999938964844,57.62799835205078z"/></g></g><g style="display: block;" transform="matrix(0.9900000095367432,0,0,0.9900000095367432,33.836326599121094,157.25912475585938)" opacity="1"><g opacity="1" transform="matrix(1,0,0,1,223.81700134277344,162.8470001220703)"><path stroke-linecap="butt" stroke-linejoin="miter" fill-opacity="0" stroke-miterlimit="10" stroke="rgb(187,0,103)" stroke-opacity="1" stroke-width="8" d=" M135.61000061035156,-51.867000579833984 C109.38099670410156,-74.552001953125 130.61000061035156,-109.18199920654297 108.23799896240234,-123.77400207519531 C79,-142.8470001220703 -79.0270004272461,-142.8280029296875 -108.23699951171875,-123.77400207519531 C-130.60800170898438,-109.18199920654297 -109.37999725341797,-74.552001953125 -135.60800170898438,-51.867000579833984 C-161.83700561523438,-29.18199920654297 -203.81700134277344,-5.230999946594238 -203.49400329589844,50.10599899291992 C-203.1909942626953,102.16600036621094 -155.1580047607422,127.83599853515625 -119.40899658203125,135.1320037841797 C-84.89399719238281,142.17599487304688 -13.119000434875488,142.78799438476562 -0.8989999890327454,142.84100341796875 C-0.8989999890327454,142.84100341796875 -0.8989999890327454,142.8470001220703 -0.8989999890327454,142.8470001220703 C-0.8989999890327454,142.8470001220703 0.8999999761581421,142.8470001220703 0.8999999761581421,142.8470001220703 C0.8999999761581421,142.8470001220703 0.8999999761581421,142.84100341796875 0.8999999761581421,142.84100341796875 C13.119999885559082,142.78799438476562 84.89600372314453,142.17599487304688 119.41000366210938,135.1320037841797 C155.15899658203125,127.83599853515625 203.19200134277344,102.16600036621094 203.4949951171875,50.10599899291992 C203.81700134277344,-5.230999946594238 161.83900451660156,-29.18199920654297 135.61000061035156,-51.867000579833984z"/></g></g><g style="display: block;" transform="matrix(0.9900000095367432,0,0,0.9900000095367432,113.35116577148438,306.4442138671875)" opacity="0.3"><g opacity="1" transform="matrix(1,0,0,1,142.91099548339844,30.367000579833984)"><path fill="rgb(255,175,215)" fill-opacity="1" d=" M94.72799682617188,-22.10700035095215 C28.731000900268555,-33.40399932861328 -50.500999450683594,-32.83399963378906 -108.4280014038086,-22.10700035095215 C-175.31199645996094,-9.720999717712402 -146.5959930419922,31.066999435424805 -7.419000148773193,30.35700035095215 C155.4550018310547,29.527000427246094 180.17599487304688,-7.480999946594238 94.72799682617188,-22.10700035095215z"/><g opacity="1" transform="matrix(1,0,0,1,0,0)"/></g></g><g style="display: block;" transform="matrix(0.9900000095367432,0,0,0.9900000095367432,33.99968338012695,286.6441955566406)" opacity="1"><g opacity="1" transform="matrix(1,0,0,1,223.65499877929688,98.9729995727539)"><path fill="rgb(221,24,119)" fill-opacity="1" d=" M203.4949951171875,-16.71299934387207 C203.18499755859375,35.34700012207031 155.15499877929688,61.016998291015625 119.40499877929688,68.31700134277344 C72.27200317382812,77.92900085449219 -67.16500091552734,78.9729995727539 -119.41500091552734,68.31700134277344 C-155.1649932861328,61.016998291015625 -203.19500732421875,35.34700012207031 -203.4949951171875,-16.71299934387207 C-203.65499877929688,-43.8129997253418 -193.6750030517578,-63.382999420166016 -180.36500549316406,-78.96299743652344 C-188.10499572753906,-65.75299835205078 -196.21499633789062,-49.882999420166016 -196.10499572753906,-29.933000564575195 C-195.81500244140625,22.12700080871582 -147.23500061035156,47.797000885009766 -113.31500244140625,55.09700012207031 C-63.63999938964844,65.7750015258789 68.50700378417969,64.7229995727539 113.30500030517578,55.09700012207031 C147.22500610351562,47.797000885009766 195.80499267578125,22.12700080871582 196.09500122070312,-29.933000564575195 C196.2050018310547,-49.893001556396484 188.09500122070312,-65.76300048828125 180.3350067138672,-78.9729995727539 C193.6649932861328,-63.393001556396484 203.65499877929688,-43.8129997253418 203.4949951171875,-16.71299934387207z"/><path stroke-linecap="round" stroke-linejoin="round" fill-opacity="0" stroke="rgb(187,0,103)" stroke-opacity="1" stroke-width="8" d=" M203.4949951171875,-16.71299934387207 C203.18499755859375,35.34700012207031 155.15499877929688,61.016998291015625 119.40499877929688,68.31700134277344 C72.27200317382812,77.92900085449219 -67.16500091552734,78.9729995727539 -119.41500091552734,68.31700134277344 C-155.1649932861328,61.016998291015625 -203.19500732421875,35.34700012207031 -203.4949951171875,-16.71299934387207 C-203.65499877929688,-43.8129997253418 -193.6750030517578,-63.382999420166016 -180.36500549316406,-78.96299743652344 C-188.10499572753906,-65.75299835205078 -196.21499633789062,-49.882999420166016 -196.10499572753906,-29.933000564575195 C-195.81500244140625,22.12700080871582 -147.23500061035156,47.797000885009766 -113.31500244140625,55.09700012207031 C-63.63999938964844,65.7750015258789 68.50700378417969,64.7229995727539 113.30500030517578,55.09700012207031 C147.22500610351562,47.797000885009766 195.80499267578125,22.12700080871582 196.09500122070312,-29.933000564575195 C196.2050018310547,-49.893001556396484 188.09500122070312,-65.76300048828125 180.3350067138672,-78.9729995727539 C193.6649932861328,-63.393001556396484 203.65499877929688,-43.8129997253418 203.4949951171875,-16.71299934387207z"/></g></g><g style="display: block;" transform="matrix(0.9900000095367432,0,0,0.9900000095367432,255.5379180908203,119.20352935791016)" opacity="1"><g opacity="1" transform="matrix(1,0,0,1,36.80500030517578,26.67300033569336)"><path stroke-linecap="round" stroke-linejoin="round" fill-opacity="0" stroke="rgb(94,94,94)" stroke-opacity="1" stroke-width="8" d=" M-16.80500030517578,-6.672999858856201 C-16.80500030517578,-6.672999858856201 -12.020000457763672,0.7239999771118164 -12.020000457763672,0.7239999771118164 C-9.630999565124512,4.414999961853027 -5.330999851226807,6.672999858856201 -0.6919999718666077,6.672999858856201 C-0.6919999718666077,6.672999858856201 16.80500030517578,6.672999858856201 16.80500030517578,6.672999858856201"/></g></g><g style="display: block;" transform="matrix(0.9900000095367432,0,0,0.9900000095367432,232.25015258789062,89.99456787109375)" opacity="1"><g opacity="1" transform="matrix(1,0,0,1,35.770999908447266,35.770999908447266)"><path fill="rgb(163,163,163)" fill-opacity="1" d=" M-15.770999908447266,0 C-15.770999908447266,8.710000038146973 -8.711000442504883,15.770999908447266 -0.0010000000474974513,15.770999908447266 C8.710000038146973,15.770999908447266 15.770999908447266,8.710000038146973 15.770999908447266,0 C15.770999908447266,-8.710000038146973 8.710000038146973,-15.770999908447266 -0.0010000000474974513,-15.770999908447266 C-8.711000442504883,-15.770999908447266 -15.770999908447266,-8.710000038146973 -15.770999908447266,0z"/></g><g opacity="1" transform="matrix(1,0,0,1,38.542999267578125,31.409000396728516)"><path fill="rgb(225,225,225)" fill-opacity="1" d=" M6.461999893188477,0 C6.461999893188477,3.569000005722046 3.568000078201294,6.461999893188477 -0.0010000000474974513,6.461999893188477 C-3.569000005722046,6.461999893188477 -6.461999893188477,3.569000005722046 -6.461999893188477,0 C-6.461999893188477,-3.569000005722046 -3.569000005722046,-6.461999893188477 -0.0010000000474974513,-6.461999893188477 C3.568000078201294,-6.461999893188477 6.461999893188477,-3.569000005722046 6.461999893188477,0z"/></g><g opacity="1" transform="matrix(1,0,0,1,35.770999908447266,35.770999908447266)"><path stroke-linecap="butt" stroke-linejoin="miter" fill-opacity="0" stroke-miterlimit="10" stroke="rgb(94,94,94)" stroke-opacity="1" stroke-width="8" d=" M-15.770999908447266,0 C-15.770999908447266,8.710000038146973 -8.711000442504883,15.770999908447266 -0.0010000000474974513,15.770999908447266 C8.710000038146973,15.770999908447266 15.770999908447266,8.710000038146973 15.770999908447266,0 C15.770999908447266,-8.710000038146973 8.710000038146973,-15.770999908447266 -0.0010000000474974513,-15.770999908447266 C-8.711000442504883,-15.770999908447266 -15.770999908447266,-8.710000038146973 -15.770999908447266,0z"/></g></g><g style="display: block;" transform="matrix(0.9900000095367432,0,0,0.9900000095367432,181.2136688232422,114.88514709472656)" opacity="1"><g opacity="1" transform="matrix(1,0,0,1,39.61000061035156,28.391000747680664)"><path stroke-linecap="round" stroke-linejoin="round" fill-opacity="0" stroke="rgb(94,94,94)" stroke-opacity="1" stroke-width="8" d=" M19.610000610351562,-8.390999794006348 C19.610000610351562,-8.390999794006348 14.024999618530273,0.9100000262260437 14.024999618530273,0.9100000262260437 C11.23799991607666,5.551000118255615 6.2210001945495605,8.390999794006348 0.8069999814033508,8.390999794006348 C0.8069999814033508,8.390999794006348 -19.610000610351562,8.390999794006348 -19.610000610351562,8.390999794006348"/></g></g><g style="display: block;" transform="matrix(0.9900000095367432,0,0,0.9900000095367432,211.319580078125,85.6751937866211)" opacity="1"><g opacity="1" transform="matrix(1,0,0,1,35.770999908447266,35.770999908447266)"><path fill="rgb(163,163,163)" fill-opacity="1" d=" M15.770999908447266,0 C15.770999908447266,8.710000038146973 8.710000038146973,15.770999908447266 0,15.770999908447266 C-8.711000442504883,15.770999908447266 -15.770999908447266,8.710000038146973 -15.770999908447266,0 C-15.770999908447266,-8.710000038146973 -8.711000442504883,-15.770999908447266 0,-15.770999908447266 C8.710000038146973,-15.770999908447266 15.770999908447266,-8.710000038146973 15.770999908447266,0z"/></g><g opacity="1" transform="matrix(1,0,0,1,33.46200180053711,30.823999404907227)"><path fill="rgb(225,225,225)" fill-opacity="1" d=" M6.461999893188477,0 C6.461999893188477,3.569000005722046 3.569000005722046,6.461999893188477 0,6.461999893188477 C-3.568000078201294,6.461999893188477 -6.461999893188477,3.569000005722046 -6.461999893188477,0 C-6.461999893188477,-3.569000005722046 -3.568000078201294,-6.461999893188477 0,-6.461999893188477 C3.569000005722046,-6.461999893188477 6.461999893188477,-3.569000005722046 6.461999893188477,0z"/></g><g opacity="1" transform="matrix(1,0,0,1,35.770999908447266,35.770999908447266)"><path stroke-linecap="butt" stroke-linejoin="miter" fill-opacity="0" stroke-miterlimit="10" stroke="rgb(94,94,94)" stroke-opacity="1" stroke-width="8" d=" M15.770999908447266,0 C15.770999908447266,8.710000038146973 8.710000038146973,15.770999908447266 0,15.770999908447266 C-8.711000442504883,15.770999908447266 -15.770999908447266,8.710000038146973 -15.770999908447266,0 C-15.770999908447266,-8.710000038146973 -8.711000442504883,-15.770999908447266 0,-15.770999908447266 C8.710000038146973,-15.770999908447266 15.770999908447266,-8.710000038146973 15.770999908447266,0z"/></g></g></g></svg>