<svg xmlns="http://www.w3.org/2000/svg" xmlns:xlink="http://www.w3.org/1999/xlink" viewBox="0 0 512 512" width="512" height="512" style="width: 100%; height: 100%; transform: translate3d(0,0,0);" preserveAspectRatio="xMidYMid meet"><defs><clipPath id="__lottie_element_26372"><rect width="512" height="512" x="0" y="0"/></clipPath><linearGradient id="__lottie_element_26397" spreadMethod="pad" gradientUnits="userSpaceOnUse" x1="-68.67500305175781" y1="-34.757999420166016" x2="98.84300231933594" y2="83.78199768066406"><stop offset="0%" stop-color="rgb(253,205,43)"/><stop offset="26%" stop-color="rgb(254,214,55)"/><stop offset="52%" stop-color="rgb(255,223,67)"/><stop offset="76%" stop-color="rgb(253,221,58)"/><stop offset="100%" stop-color="rgb(252,219,50)"/></linearGradient><linearGradient id="__lottie_element_26398" spreadMethod="pad" gradientUnits="userSpaceOnUse" x1="-118.67400360107422" y1="-41.39400100708008" x2="98.38500213623047" y2="89.02799987792969"><stop offset="5%" stop-color="rgb(215,158,19)"/><stop offset="18%" stop-color="rgb(225,174,18)"/><stop offset="52%" stop-color="rgb(235,190,16)"/><stop offset="76%" stop-color="rgb(231,192,19)"/><stop offset="100%" stop-color="rgb(226,193,23)"/></linearGradient><linearGradient id="__lottie_element_26399" spreadMethod="pad" gradientUnits="userSpaceOnUse" x1="-118.67400360107422" y1="-41.39400100708008" x2="98.38500213623047" y2="89.02799987792969"><stop offset="5%" stop-color="rgb(215,158,19)"/><stop offset="18%" stop-color="rgb(225,174,18)"/><stop offset="52%" stop-color="rgb(235,190,16)"/><stop offset="76%" stop-color="rgb(231,192,19)"/><stop offset="100%" stop-color="rgb(226,193,23)"/></linearGradient><linearGradient id="__lottie_element_26402" spreadMethod="pad" gradientUnits="userSpaceOnUse" x1="2.691999912261963" y1="-123.3949966430664" x2="-7.175000190734863" y2="39.847999572753906"><stop offset="0%" stop-color="rgb(244,226,191)"/><stop offset="50%" stop-color="rgb(219,196,156)"/><stop offset="100%" stop-color="rgb(194,166,121)"/></linearGradient><linearGradient id="__lottie_element_26406" spreadMethod="pad" gradientUnits="userSpaceOnUse"><stop/><stop/><stop/></linearGradient><linearGradient id="__lottie_element_26410" spreadMethod="pad" gradientUnits="userSpaceOnUse" x1="-25.740999221801758" y1="-37.652000427246094" x2="67.22699737548828" y2="112.23400115966797"><stop offset="0%" stop-color="rgb(254,236,198)"/><stop offset="50%" stop-color="rgb(224,201,159)"/><stop offset="100%" stop-color="rgb(194,166,121)"/></linearGradient><linearGradient id="__lottie_element_26414" spreadMethod="pad" gradientUnits="userSpaceOnUse"><stop/><stop/><stop/></linearGradient><linearGradient id="__lottie_element_26418" spreadMethod="pad" gradientUnits="userSpaceOnUse" x1="-40.31999969482422" y1="42.6879997253418" x2="-25.999000549316406" y2="-82.0510025024414"><stop offset="0%" stop-color="rgb(127,66,0)" stop-opacity="1"/><stop offset="32%" stop-color="rgb(127,66,0)" stop-opacity="0.75"/><stop offset="100%" stop-color="rgb(127,66,0)" stop-opacity="0.5"/></linearGradient><radialGradient id="__lottie_element_26422" spreadMethod="pad" gradientUnits="userSpaceOnUse" cx="-131.0919952392578" cy="-110.80000305175781" r="222.56418661886627" fx="-131.239491831641" fy="-111.29019070770183"><stop offset="0%" stop-color="rgb(255,252,246)"/><stop offset="48%" stop-color="rgb(242,224,198)"/><stop offset="70%" stop-color="rgb(229,197,151)"/><stop offset="90%" stop-color="rgb(211,175,123)"/><stop offset="100%" stop-color="rgb(193,153,95)"/></radialGradient><linearGradient id="__lottie_element_26426" spreadMethod="pad" gradientUnits="userSpaceOnUse"><stop/><stop/><stop/></linearGradient><linearGradient id="__lottie_element_26430" spreadMethod="pad" gradientUnits="userSpaceOnUse"><stop/><stop/><stop/></linearGradient><linearGradient id="__lottie_element_26434" spreadMethod="pad" gradientUnits="userSpaceOnUse"><stop/><stop/><stop/></linearGradient><linearGradient id="__lottie_element_26438" spreadMethod="pad" gradientUnits="userSpaceOnUse"><stop/><stop/><stop/></linearGradient><linearGradient id="__lottie_element_26442" spreadMethod="pad" gradientUnits="userSpaceOnUse"><stop/><stop/><stop/></linearGradient></defs><g clip-path="url(#__lottie_element_26372)"><g style="display: block;" transform="matrix(0.9157027006149292,-0.053921621292829514,0.053921621292829514,0.9157027006149292,298.6854248046875,251.30252075195312)" opacity="1"><g opacity="1" transform="matrix(0.45844998955726624,0,0,1,-41,-1)"><path fill="url(#__lottie_element_26422)" fill-opacity="1" d=" M-149.6179962158203,-214.197998046875 C-191.76199340820312,-216.39199829101562 -243.47799682617188,-196.97300720214844 -274.0039978027344,-137.6540069580078 C-307.06500244140625,-73.40899658203125 -278.45599365234375,6.426000118255615 -212.2050018310547,69.35099792480469 C-142.41700744628906,135.63600158691406 -4.9670000076293945,177.85800170898438 104.76399993896484,181.7689971923828 C211.73599243164062,185.58200073242188 252.31900024414062,168.34100341796875 249.1490020751953,154.10400390625 C244.23199462890625,132.02200317382812 184.572998046875,135.87399291992188 76.61199951171875,81.89099884033203 C-17.576000213623047,34.79499816894531 -55.308998107910156,-24.398000717163086 -76.52899932861328,-80.7030029296875 C-87.37699890136719,-109.48899841308594 -73.99600219726562,-210.25999450683594 -149.6179962158203,-214.197998046875z"/></g></g><g style="display: block;" transform="matrix(0.8939811587333679,0.10391153395175934,-0.10391153395175934,0.8939811587333679,43.375850677490234,0.19309251010417938)" opacity="1"><g opacity="0.07" transform="matrix(1,0,0,1,276.3320007324219,238.55599975585938)"><path fill="url(#__lottie_element_26418)" fill-opacity="1" d=" M59.641998291015625,186.677001953125 C14.871999740600586,182.76699829101562 -56.88800048828125,156.2570037841797 -99.12799835205078,87.11699676513672 C-139.09800720214844,21.677000045776367 -158.22000122070312,-49.33700180053711 -154.98199462890625,-105.8030014038086 C-151.41700744628906,-167.97799682617188 -128.8719940185547,-192.85400390625 -110.19300079345703,-188.18499755859375 C-134.9929962158203,-180.7989959716797 -132.8260040283203,-94.7249984741211 -116.1240005493164,-52.01100158691406 C-101.0469970703125,-13.45199966430664 -74.20800018310547,1.0440000295639038 -61.84700012207031,-4.004000186920166 C-48.762001037597656,-9.347000122070312 -51.85300064086914,-50.375999450683594 -61.72100067138672,-97.83499908447266 C-61.72100067138672,-97.83499908447266 -52.391998291015625,-47.79600143432617 -29.340999603271484,-1.1180000305175781 C39.314998626708984,137.90699768066406 138.66299438476562,111.37699890136719 138.44200134277344,147.01699829101562 C141.9219970703125,172.5070037841797 103.29199981689453,190.48699951171875 59.641998291015625,186.677001953125z"/></g><g opacity="0.5" transform="matrix(1,0,0,1,219.802001953125,179.44400024414062)"><path fill="rgb(255,255,255)" fill-opacity="1" d=" M81.74099731445312,129.87899780273438 C79.54100036621094,130.6490020751953 76.33599853515625,130.3820037841797 73.64099884033203,127.1989974975586 C45.46099853515625,93.91500091552734 17.871999740600586,50.194000244140625 -4.758999824523926,-13.310999870300293 C-14.064000129699707,-39.422000885009766 -20.086999893188477,-72 -28.19099998474121,-94.68000030517578 C-37.21200180053711,-119.927001953125 -49.34400177001953,-124.15599822998047 -62.66299819946289,-115.25 C-92.19200134277344,-95.50499725341797 -92.47699737548828,-16.326000213623047 -84.74099731445312,47.04999923706055 C-96.45700073242188,9.583999633789062 -99.41100311279297,-29.9689998626709 -98.4520034790039,-46.691001892089844 C-98.06900024414062,-53.36199951171875 -97.4530029296875,-59.573001861572266 -96.63700103759766,-65.34700012207031 C-89.84400177001953,-113.38899993896484 -69.18199920654297,-131.19000244140625 -53.834999084472656,-132.0679931640625 C-34.7760009765625,-133.1580047607422 -23.923999786376953,-110.48200225830078 -17.422000885009766,-81.92500305175781 C-11.687000274658203,-56.73400115966797 -4.354000091552734,-26.80900001525879 2.7820000648498535,-4.809999942779541 C17.66200065612793,41.06399917602539 36.37099838256836,88.16899871826172 81.74099731445312,129.87899780273438z"/></g><g opacity="1" transform="matrix(1,0,0,1,276.3320007324219,237.4720001220703)"><path stroke-linecap="butt" stroke-linejoin="miter" fill-opacity="0" stroke-miterlimit="10" stroke="rgb(221,196,166)" stroke-opacity="1" stroke-width="8" d=" M-110.36799621582031,-190.09800720214844 C-125.98600006103516,-189.2050018310547 -147.10800170898438,-170.7790069580078 -153.51300048828125,-120.7969970703125 C-154.1580047607422,-115.76399993896484 -154.6529998779297,-110.41100311279297 -154.97900390625,-104.7229995727539 C-158.21400451660156,-48.25600051879883 -139.0970001220703,22.763999938964844 -99.12300109863281,88.19999694824219 C-56.8849983215332,157.34100341796875 14.871999740600586,183.8489990234375 59.64400100708008,187.75999450683594 C103.29000091552734,191.572998046875 141.91700744628906,173.59500122070312 138.44500732421875,148.10400390625 C135.52200317382812,126.64600372314453 84.61299896240234,121.73200225830078 37.97100067138672,82.97599792480469 C-17.54400062561035,36.84700012207031 -36.45500183105469,-13.048999786376953 -53.74800109863281,-62.834999084472656 C-60.7869987487793,-83.0989990234375 -67.7030029296875,-110.47599792480469 -72.73899841308594,-134.41099548339844 C-79.28700256347656,-165.531005859375 -90.09100341796875,-191.25799560546875 -110.36799621582031,-190.09800720214844z"/></g><g opacity="1" transform="matrix(1,0,0,1,276.3320007324219,278.81500244140625)"><path stroke-linecap="round" stroke-linejoin="round" fill-opacity="0" stroke="rgb(198,164,123)" stroke-opacity="1" stroke-width="8" d=" M-155.24200439453125,-143.52000427246094 C-157.37899780273438,-87.87799835205078 -139.0970001220703,-18.579999923706055 -99.12300109863281,46.85599899291992 C-56.8849983215332,115.99700164794922 14.873000144958496,142.50599670410156 59.64500045776367,146.41700744628906 C103.29100036621094,150.22999572753906 141.91700744628906,132.25100708007812 138.44500732421875,106.76000213623047 C135.52200317382812,85.302001953125 84.61299896240234,80.38899993896484 37.97100067138672,41.632999420166016 C-17.54400062561035,-4.495999813079834 -35.29399871826172,-49.2130012512207 -52.875999450683594,-101.48300170898438"/></g></g><g style="display: block;" transform="matrix(0.8984436392784119,-0.05290531739592552,0.05290531739592552,0.8984436392784119,7.282153606414795,53.99129867553711)" opacity="1"><g opacity="0.73" transform="matrix(1,0,0,1,223.01499938964844,247.2779998779297)"><path fill="rgb(122,60,14)" fill-opacity="1" d=" M-21.016000747680664,-28.202999114990234 C-21.016000747680664,-28.202999114990234 -11.770999908447266,-20.027000427246094 -5.7789998054504395,-20.562000274658203 C-0.09200000017881393,-21.06999969482422 4.309999942779541,-33.44499969482422 13.317000389099121,-42.112998962402344 C22.874000549316406,-51.310001373291016 12.545000076293945,6.49399995803833 0.5640000104904175,7.109000205993652 C-11.416999816894531,7.723999977111816 -29.753000259399414,-18.229999542236328 -21.016000747680664,-28.202999114990234z"/></g><g opacity="1" transform="matrix(1,0,0,1,300.364013671875,314.2959899902344)"><path fill="url(#__lottie_element_26397)" fill-opacity="1" d=" M-56.452999114990234,-111.74400329589844 C-61.75199890136719,-106.0790023803711 -68.6449966430664,-94.52899932861328 -71.36699676513672,-89.23600006103516 C-72.81700134277344,-86.41799926757812 -74.00499725341797,-83.13500213623047 -74.94100189208984,-80.53800201416016 C-75.96199798583984,-77.70600128173828 -77.08200073242188,-68.92900085449219 -77.68099975585938,-66.46099853515625 C-79.85199737548828,-57.50600051879883 -77.55400085449219,-67.28800201416016 -80.12899780273438,-66.2979965209961 C-81.97799682617188,-65.58699798583984 -82.91699981689453,-66.95099639892578 -84.79000091552734,-69.47100067138672 C-86.02100372314453,-71.12799835205078 -83.75700378417969,-67.21199798583984 -85.12699890136719,-69.53700256347656 C-85.60900115966797,-70.35600280761719 -88.13500213623047,-74.51799774169922 -88.64299774169922,-75.37100219726562 C-89.88400268554688,-77.4540023803711 -91.77899932861328,-81.72200012207031 -93.21900177001953,-83.75199890136719 C-96.99700164794922,-89.07499694824219 -101.35199737548828,-94.96199798583984 -107.31099700927734,-95.34400177001953 C-117.40799713134766,-95.99099731445312 -136.31300354003906,-48.722999572753906 -136.31300354003906,-18.999000549316406 C-136.31300354003906,-2.8459999561309814 -117.35399627685547,29.808000564575195 -82.23300170898438,63.029998779296875 C-53.29399871826172,90.40399932861328 6.258999824523926,121.17900085449219 70.29100036621094,109.53399658203125 C129.1580047607422,98.8280029296875 138.16900634765625,70.67500305175781 136.03399658203125,64.61499786376953 C132.65199279785156,55.01900100708008 126.77899932861328,53.40299987792969 74.48400115966797,33.8489990234375 C17.290000915527344,12.463000297546387 -16.697999954223633,-36.30699920654297 -27.148000717163086,-67.95099639892578 C-36.595001220703125,-96.55699920654297 -28.82699966430664,-119.25599670410156 -27.242000579833984,-126.125 C-25.656999588012695,-132.99400329589844 -51.6510009765625,-116.87799835205078 -56.452999114990234,-111.74400329589844z"/></g><g opacity="0.4" transform="matrix(1,0,0,1,285.41400146484375,270.4800109863281)"><path fill="rgb(246,176,14)" fill-opacity="1" d=" M-16.67300033569336,15.369999885559082 C-41.303001403808594,-6.320000171661377 -52.6510009765625,-40.50299835205078 -52.6510009765625,-40.50299835205078 C-52.6510009765625,-40.50299835205078 -59.1609992980957,-12.220999717712402 -61.520999908447266,-20.731000900268555 C-61.38100051879883,-20.76099967956543 -59.970001220703125,-4.586999893188477 -59.83000183105469,-4.63700008392334 C-58.152000427246094,-5.281000137329102 -62.1349983215332,-13.006999969482422 -61.319000244140625,-17.402999877929688 C-60.874000549316406,-19.799999237060547 -57.05400085449219,-34.005001068115234 -56.270999908447266,-37.20100021362305 C-55.374000549316406,-40.86399841308594 -54.117000579833984,-44.97800064086914 -52.183998107910156,-49.375 C-49.38999938964844,-55.72999954223633 -45.183998107910156,-62.67599868774414 -38.611000061035156,-69.70099639892578 C-33.81100082397461,-74.84100341796875 -12.081000328063965,-89.54100036621094 -13.66100025177002,-82.6709976196289 C-15.25100040435791,-75.8010025024414 -22.21500015258789,-52.49700164794922 -12.765000343322754,-23.886999130249023 C-8.904999732971191,-12.196999549865723 7.244999885559082,25.43899917602539 53.49399948120117,60.09000015258789 C62.15800094604492,66.58100128173828 24.7549991607666,51.85200119018555 -16.67300033569336,15.369999885559082z"/></g><g opacity="0.3" transform="matrix(1,0,0,1,251.51100158691406,238.87399291992188)"><path fill="rgb(178,114,0)" fill-opacity="1" d=" M-26.999000549316406,18.809999465942383 C-24.437000274658203,-8.173999786376953 8.326000213623047,-13.21399974822998 21.493000030517578,7.3460001945495605 C21.493000030517578,7.3460001945495605 8.696999549865723,-23.139999389648438 23.041000366210938,-50.66699981689453 C23.041000366210938,-50.66699981689453 -5.892000198364258,-46.30699920654297 -22.64299964904785,-14.401000022888184 C-35.22100067138672,9.555999755859375 -26.999000549316406,18.809999465942383 -26.999000549316406,18.809999465942383z"/></g><g opacity="1" transform="matrix(1,0,0,1,300.364013671875,331.9330139160156)"><path fill="url(#__lottie_element_26398)" fill-opacity="1" d=" M70.29000091552734,91.9000015258789 C6.260000228881836,103.54000091552734 -53.290000915527344,72.7699966430664 -82.2300033569336,45.38999938964844 C-117.3499984741211,12.170000076293945 -136.30999755859375,-20.479999542236328 -136.30999755859375,-36.63999938964844 C-136.30999755859375,-66.36000061035156 -117.40899658203125,-113.62300109863281 -107.30899810791016,-112.98300170898438 C-100.46800231933594,-112.54199981689453 -96.29900360107422,-106.43299865722656 -92.21800231933594,-100.1259994506836 C-90.74199676513672,-97.84400177001953 -91.197998046875,-97.83999633789062 -89.92500305175781,-95.68399810791016 C-88.85299682617188,-93.86799621582031 -89.78700256347656,-94.52200317382812 -88.80400085449219,-93.1050033569336 C-86.72000122070312,-90.10199737548828 -81.927001953125,-82.44300079345703 -79.89299774169922,-83.2249984741211 C-79.89299774169922,-83.2249984741211 -57.749000549316406,-6.5929999351501465 11.020999908447266,27.35700035095215 C80.24099731445312,61.516998291015625 133.30999755859375,41.869998931884766 133.30999755859375,41.869998931884766 C133.30999755859375,41.869998931884766 133.32000732421875,41.869998931884766 133.32000732421875,41.869998931884766 C134.55999755859375,43.380001068115234 135.33999633789062,45.0099983215332 136.02999877929688,46.97999954223633 C138.1699981689453,53.040000915527344 129.16000366210938,81.19000244140625 70.29000091552734,91.9000015258789z"/></g><g opacity="0" transform="matrix(1,0,0,1,300.364013671875,331.9330139160156)"><path fill="url(#__lottie_element_26399)" fill-opacity="1" d=" M71.31400299072266,91.31800079345703 C8.112000465393066,106.83599853515625 -53.55799865722656,72.69599914550781 -82.49800109863281,45.316001892089844 C-117.61799621582031,12.095999717712402 -136.54100036621094,-32.50299835205078 -144.6219940185547,-46.49800109863281 C-156.74899291992188,-67.5 -158.2239990234375,-73.03600311279297 -163.0850067138672,-81.91200256347656 C-169.21600341796875,-93.10800170898438 -169.5590057373047,-119.10099792480469 -166.1909942626953,-119.19999694824219 C-160.927001953125,-119.3550033569336 -148.21800231933594,-90.8219985961914 -145.84100341796875,-91.60800170898438 C-136.09300231933594,-94.83100128173828 -128.23199462890625,-73.18199920654297 -126.5770034790039,-72.6989974975586 C-123.06800079345703,-71.6760025024414 -117.03600311279297,-46.183998107910156 -112.9469985961914,-39.77000045776367 C-112.9469985961914,-39.77000045776367 -66.93800354003906,39.347999572753906 -17.35099983215332,65.41600036621094 C112.08999633789062,133.46099853515625 134.69500732421875,43.11600112915039 134.69500732421875,43.11600112915039 C134.69500732421875,43.11600112915039 134.7050018310547,43.11600112915039 134.7050018310547,43.11600112915039 C135.94500732421875,44.625999450683594 136.72500610351562,46.25600051879883 137.4149932861328,48.22600173950195 C139.55499267578125,54.2859992980957 128.11900329589844,77.37000274658203 71.31400299072266,91.31800079345703z"/></g><g opacity="0.3" transform="matrix(1,0,0,1,299.60699462890625,352.2080078125)"><path fill="rgb(255,234,86)" fill-opacity="1" d=" M134.31100463867188,25.613000869750977 C142.20700073242188,44.90599822998047 111.43599700927734,64.2750015258789 71.0459976196289,71.625 C7.015999794006348,83.26499938964844 -52.534000396728516,52.494998931884766 -81.4739990234375,25.114999771118164 C-116.59400177001953,-8.104999542236328 -143.19200134277344,-61.69300079345703 -142.2779998779297,-77.8270034790039 C-142.06399536132812,-81.60099792480469 -139.55599975585938,-92.99700164794922 -138.68800354003906,-96.64399719238281 C-136.5070037841797,-83.89800262451172 -129.5760040283203,-65.12300109863281 -121.13899993896484,-50.439998626708984 C-92.45800018310547,-0.5260000228881836 -34.16400146484375,42.983001708984375 20.530000686645508,51.39899826049805 C82.22899627685547,60.893001556396484 129.85699462890625,45.125999450683594 134.31100463867188,25.613000869750977 C136.3939971923828,16.48900032043457 134.31100463867188,25.613000869750977 134.31100463867188,25.613000869750977z"/></g><g opacity="0.4" transform="matrix(1,0,0,1,209.71200561523438,335.6629943847656)"><path fill="rgb(188,127,4)" fill-opacity="1" d=" M8.460000038146973,-82.52400207519531 C-12.295999526977539,-89.71499633789062 -37.470001220703125,-84.21199798583984 -47.1609992980957,-77.56900024414062 C-56.19200134277344,-71.37899780273438 -45.20199966430664,12.394000053405762 44.426998138427734,67.30699920654297 C44.426998138427734,67.30699920654297 -30.538000106811523,18.545000076293945 -21.496000289916992,-49.17100143432617 C-17.461000442504883,-79.38899993896484 14.36299991607666,-77.63099670410156 14.36299991607666,-77.63099670410156 C14.36299991607666,-77.63099670410156 8.460000038146973,-82.52400207519531 8.460000038146973,-82.52400207519531z"/></g><g opacity="1" transform="matrix(1,0,0,1,329.6300048828125,323.3420104980469)"><path stroke-linecap="round" stroke-linejoin="round" fill-opacity="0" stroke="rgb(255,228,113)" stroke-opacity="1" stroke-width="8" d=" M-109.2030029296875,-74.88200378417969 C-109.2030029296875,-74.88200378417969 -107.1510009765625,-64.81800079345703 -100.40699768066406,-50.32400131225586 C-90.30699920654297,-28.615999221801758 -59.185001373291016,15.329000473022461 -17.950000762939453,35.68299865722656 C51.26900100708008,69.85099792480469 104.04499816894531,50.45800018310547 104.04499816894531,50.45800018310547"/></g><g opacity="0" transform="matrix(1,0,0,1,329.6300048828125,323.3420104980469)"><path stroke-linecap="round" stroke-linejoin="round" fill-opacity="0" stroke="rgb(255,228,113)" stroke-opacity="1" stroke-width="8" d=" M-197.40199279785156,-165.2270050048828 C-199.572998046875,-143.01100158691406 -198.3979949951172,-116.9020004272461 -191.54800415039062,-84.51899719238281 C-187.06100463867188,-63.308998107910156 -156.3260040283203,12.4350004196167 -116.37799835205078,53.66600036621094 C-91.90799713134766,78.9219970703125 -42.57600021362305,108.24299621582031 36.23400115966797,101.55599975585938"/></g><g opacity="1" transform="matrix(1,0,0,1,300.364013671875,314.2959899902344)"><path stroke-linecap="round" stroke-linejoin="round" fill-opacity="0" stroke="rgb(232,171,0)" stroke-opacity="1" stroke-width="8" d=" M-54.7239990234375,-113.34200286865234 C-60.334999084472656,-107.98600006103516 -64.40699768066406,-102.59500122070312 -67.42400360107422,-97.46399688720703 C-69.03099822998047,-94.73200225830078 -70.33899688720703,-92.0739974975586 -71.4209976196289,-89.53399658203125 C-72.60099792480469,-86.76399993896484 -73.51200103759766,-84.13600158691406 -74.2490005493164,-81.70500183105469 C-76.92400360107422,-72.88700103759766 -77.31099700927734,-66.68000030517578 -79.93699645996094,-65.83699798583984 C-81.8239974975586,-65.23200225830078 -83.51200103759766,-66.74199676513672 -85.23899841308594,-69.36399841308594 C-86.375,-71.08799743652344 -87.52799987792969,-73.29199981689453 -88.76399993896484,-75.69100189208984 C-89.1989974975586,-76.53600311279297 -89.6449966430664,-77.40499877929688 -90.10399627685547,-78.28600311279297 C-91.2249984741211,-80.43599700927734 -92.4260025024414,-82.65499877929688 -93.7490005493164,-84.76300048828125 C-97.21900177001953,-90.29100036621094 -101.53299713134766,-95.052001953125 -107.46099853515625,-95.7699966430664 C-117.50499725341797,-96.98699951171875 -141.35699462890625,-69.58599853515625 -143.03799438476562,-39.90999984741211 C-143.95199584960938,-23.783000946044922 -117.35399627685547,29.808000564575195 -82.23300170898438,63.029998779296875 C-53.29399871826172,90.40399932861328 6.258999824523926,121.17900085449219 70.29100036621094,109.53399658203125 C129.1580047607422,98.8280029296875 138.16900634765625,70.67500305175781 136.03399658203125,64.61499786376953 C132.65199279785156,55.01900100708008 127.02300262451172,53.9739990234375 74.48400115966797,33.8489990234375 C17.46299934387207,12.006999969482422 -18.111000061035156,-36.45100021362305 -26.753999710083008,-68.63500213623047 C-34.56700134277344,-97.7300033569336 -28.503999710083008,-118.78900146484375 -26.533000946044922,-125.55699920654297 C-24.562000274658203,-132.3249969482422 -49.638999938964844,-118.19599914550781 -54.7239990234375,-113.34200286865234z"/></g><g opacity="1" transform="matrix(1,0,0,1,300.364013671875,314.2959899902344)"><path stroke-linecap="round" stroke-linejoin="round" fill-opacity="0" stroke="rgb(208,152,12)" stroke-opacity="1" stroke-width="8" d=" M-1.0579999685287476,-20.910999298095703 C-14.635000228881836,-37.444000244140625 -23.572999954223633,-54.41999816894531 -27.325000762939453,-68.38999938964844 C-35.13800048828125,-97.48500061035156 -28.503999710083008,-118.78900146484375 -26.533000946044922,-125.55699920654297 C-24.562000274658203,-132.3249969482422 -49.638999938964844,-118.19599914550781 -54.7239990234375,-113.34200286865234 C-54.7239990234375,-113.34200286865234 -54.7239990234375,-113.34200286865234 -54.7239990234375,-113.34200286865234 C-60.334999084472656,-107.98600006103516 -64.40699768066406,-102.59500122070312 -67.42400360107422,-97.46399688720703 C-69.03099822998047,-94.73200225830078 -70.33899688720703,-92.0739974975586 -71.4209976196289,-89.53399658203125 C-72.60099792480469,-86.76399993896484 -73.51200103759766,-84.13600158691406 -74.2490005493164,-81.70500183105469 C-76.92400360107422,-72.88700103759766 -77.31099700927734,-66.68000030517578 -79.93699645996094,-65.83699798583984 C-81.8239974975586,-65.23200225830078 -83.51200103759766,-66.74199676513672 -85.23899841308594,-69.36399841308594 C-86.375,-71.08799743652344 -87.52799987792969,-73.29199981689453 -88.76399993896484,-75.69100189208984 C-89.1989974975586,-76.53600311279297 -89.6449966430664,-77.40499877929688 -90.10399627685547,-78.28600311279297 C-91.2249984741211,-80.43599700927734 -92.4260025024414,-82.65499877929688 -93.7490005493164,-84.76300048828125 C-97.21900177001953,-90.29100036621094 -101.53299713134766,-95.052001953125 -107.46099853515625,-95.7699966430664 C-115.69100189208984,-96.76699829101562 -133.1929931640625,-78.55000305175781 -140.1699981689453,-55.61000061035156"/></g><g opacity="1" transform="matrix(1,0,0,1,300.364013671875,314.2959899902344)"><path stroke-linecap="round" stroke-linejoin="round" fill-opacity="0" stroke="rgb(187,138,1)" stroke-opacity="1" stroke-width="8" d=" M-103.25499725341797,-94.5 C-104.56199645996094,-95.14700317382812 -105.95999908447266,-95.58799743652344 -107.46099853515625,-95.7699966430664 C-117.50499725341797,-96.98699951171875 -141.35699462890625,-69.58699798583984 -143.03799438476562,-39.9109992980957 C-143.95199584960938,-23.783000946044922 -117.35399627685547,29.808000564575195 -82.23300170898438,63.029998779296875 C-53.29399871826172,90.40399932861328 6.258999824523926,121.17900085449219 70.29100036621094,109.53399658203125 C109.41500091552734,102.41899871826172 126.51699829101562,87.59600067138672 132.96099853515625,76.6760025024414"/></g><g opacity="1" transform="matrix(1,0,0,1,300.364013671875,314.2959899902344)"><path stroke-linecap="round" stroke-linejoin="round" fill-opacity="0" stroke="rgb(167,107,1)" stroke-opacity="1" stroke-width="8" d=" M-32.26599884033203,-126.3219985961914 C-39.5369987487793,-123.64900207519531 -51.400001525878906,-116.51499938964844 -54.7239990234375,-113.34200286865234 C-54.7239990234375,-113.34200286865234 -54.7239990234375,-113.34200286865234 -54.7239990234375,-113.34200286865234 C-60.334999084472656,-107.98600006103516 -64.40699768066406,-102.59500122070312 -67.42400360107422,-97.46399688720703 C-69.03099822998047,-94.73200225830078 -70.33899688720703,-92.0739974975586 -71.4209976196289,-89.53399658203125 C-72.60099792480469,-86.76399993896484 -73.51200103759766,-84.13600158691406 -74.2490005493164,-81.70500183105469 C-76.92400360107422,-72.88700103759766 -77.31099700927734,-66.68000030517578 -79.93699645996094,-65.83699798583984 C-81.8239974975586,-65.23200225830078 -83.51200103759766,-66.74199676513672 -85.23899841308594,-69.36399841308594 C-86.375,-71.08799743652344 -87.52799987792969,-73.29199981689453 -88.76399993896484,-75.69100189208984 C-89.1989974975586,-76.53600311279297 -89.6449966430664,-77.40499877929688 -90.10399627685547,-78.28600311279297 C-91.2249984741211,-80.43599700927734 -92.4260025024414,-82.65499877929688 -93.7490005493164,-84.76300048828125 C-97.21900177001953,-90.29100036621094 -101.53299713134766,-95.052001953125 -107.46099853515625,-95.7699966430664 C-111.63400268554688,-96.2760009765625 -118.19000244140625,-91.84200286865234 -124.55000305175781,-84.35700225830078"/></g><g opacity="1" transform="matrix(1,0,0,1,433.9179992675781,377.6960144042969)"><path fill="rgb(104,55,40)" fill-opacity="1" d=" M-4.4029998779296875,-8.942999839782715 C-5,-7.802000045776367 -0.24300000071525574,-3.8959999084472656 2.759000062942505,8.8149995803833 C3.134999990463257,10.406000137329102 5.0229997634887695,4.396999835968018 4.283999919891357,-0.16300000250339508 C3.5450000762939453,-4.7230000495910645 -3.8559999465942383,-9.987000465393066 -4.4029998779296875,-8.942999839782715z"/><path stroke-linecap="butt" stroke-linejoin="miter" fill-opacity="0" stroke-miterlimit="10" stroke="rgb(104,55,40)" stroke-opacity="1" stroke-width="5" d=" M-4.4029998779296875,-8.942999839782715 C-5,-7.802000045776367 -0.24300000071525574,-3.8959999084472656 2.759000062942505,8.8149995803833 C3.134999990463257,10.406000137329102 5.0229997634887695,4.396999835968018 4.283999919891357,-0.16300000250339508 C3.5450000762939453,-4.7230000495910645 -3.8559999465942383,-9.987000465393066 -4.4029998779296875,-8.942999839782715z"/></g></g><g style="display: block;" transform="matrix(0.8984436392784119,-0.05290531739592552,0.05290531739592552,0.8984436392784119,7.282153606414795,53.99129867553711)" opacity="1"><g opacity="1" transform="matrix(1,0,0,1,337.42999267578125,246.1909942626953)"><path fill="url(#__lottie_element_26410)" fill-opacity="1" d=" M-90.23300170898438,-47.30099868774414 C-90.23300170898438,-47.30099868774414 -45.4630012512207,-83.26000213623047 19.97800064086914,-10.04699993133545 C70.02799987792969,45.948001861572266 84.87999725341797,68.95700073242188 92.64900207519531,64.11199951171875 C100.41799926757812,59.266998291015625 91.61900329589844,13.378999710083008 57.612998962402344,-33.22700119018555 C19.764999389648438,-85.0999984741211 -7.8520002365112305,-85.20500183105469 -22.905000686645508,-84.90899658203125 C-54.347999572753906,-84.29100036621094 -85.33100128173828,-55.67300033569336 -90.23300170898438,-47.30099868774414z"/></g><g opacity="0.4" transform="matrix(1,0,0,1,350.5369873046875,239.46200561523438)"><path stroke-linecap="round" stroke-linejoin="round" fill-opacity="0" stroke="rgb(255,243,225)" stroke-opacity="1" stroke-width="8" d=" M-71.9520034790039,-67.04299926757812 C-71.9520034790039,-67.04299926757812 -13.605999946594238,-88.6780014038086 33.946998596191406,-28.381999969482422 C73.08899688720703,21.25 80.64099884033203,49.237998962402344 80.64099884033203,49.237998962402344"/></g><g opacity="0.4" transform="matrix(1,0,0,1,337.78900146484375,254.48199462890625)"><path stroke-linecap="round" stroke-linejoin="round" fill-opacity="0" stroke="rgb(255,243,225)" stroke-opacity="1" stroke-width="8" d=" M-81.78600311279297,-65.51200103759766 C-81.78600311279297,-65.51200103759766 -43.50699996948242,-91.16799926757812 -3.6080000400543213,-62.32600021362305 C48.18899917602539,-24.882999420166016 86.98100280761719,55.57099914550781 86.98100280761719,55.57099914550781"/></g><g opacity="0.6" transform="matrix(1,0,0,1,337.4309997558594,245.8470001220703)"><path fill="rgb(255,255,255)" fill-opacity="1" d=" M92.64600372314453,64.45999908447266 C97.21099853515625,16.115999221801758 38.641998291015625,-69.31500244140625 -14.555999755859375,-72.88600158691406 C-29.909000396728516,-73.91600036621094 -41.97999954223633,-70.12999725341797 -54.25699996948242,-64.18199920654297 C-55.83000183105469,-63.41999816894531 -68.39199829101562,-55.21900177001953 -68.39199829101562,-55.21900177001953 C-82.36100006103516,-53.27799987792969 -90.23100280761719,-46.95199966430664 -90.23100280761719,-46.95199966430664 C-85.33200073242188,-55.327999114990234 -54.35200119018555,-83.93299865722656 -22.905000686645508,-84.56199645996094 C-7.853000164031982,-84.86299896240234 19.770000457763672,-84.75800323486328 57.61600112915039,-32.88100051879883 C91.61599731445312,13.723999977111816 100.41300201416016,59.61000061035156 92.64600372314453,64.45999908447266z"/></g><g opacity="1" transform="matrix(1,0,0,1,337.42999267578125,246.1909942626953)"><path stroke-linecap="round" stroke-linejoin="round" fill-opacity="0" stroke="rgb(188,154,113)" stroke-opacity="1" stroke-width="8" d=" M-90.23300170898438,-47.30099868774414 C-90.23300170898438,-47.30099868774414 -45.4630012512207,-83.26000213623047 19.97800064086914,-10.04699993133545 C70.02799987792969,45.948001861572266 84.87999725341797,68.95700073242188 92.64900207519531,64.11199951171875 C100.41799926757812,59.266998291015625 91.61900329589844,13.378999710083008 57.612998962402344,-33.22700119018555 C19.764999389648438,-85.0999984741211 -7.8520002365112305,-85.20500183105469 -22.905000686645508,-84.90899658203125 C-54.347999572753906,-84.29100036621094 -85.33100128173828,-55.67300033569336 -90.23300170898438,-47.30099868774414z"/></g><g opacity="1" transform="matrix(1,0,0,1,336.37701416015625,260.6369934082031)"><path stroke-linecap="round" stroke-linejoin="round" fill-opacity="0" stroke="rgb(209,153,13)" stroke-opacity="1" stroke-width="8" d=" M-89.18000030517578,-61.74700164794922 C-89.18000030517578,-61.74700164794922 -44.40999984741211,-97.70700073242188 21.0310001373291,-24.493999481201172 C71.08100128173828,31.500999450683594 85.93299865722656,54.5099983215332 93.7020034790039,49.665000915527344"/></g></g><g style="display: block;" transform="matrix(0.8984436392784119,-0.05290531739592552,0.05290531739592552,0.8984436392784119,7.65008544921875,53.91642761230469)" opacity="1"><g opacity="1" transform="matrix(1,0,0,1,139.9980010986328,349.9330139160156)"><path fill="url(#__lottie_element_26402)" fill-opacity="1" d=" M52.57699966430664,-132.5240020751953 C52.57699966430664,-132.5240020751953 42.12200164794922,-134.2729949951172 27.165000915527344,-134.20700073242188 C-0.6240000128746033,-134.08399963378906 -41.29199981689453,-129.6300048828125 -61.00299835205078,-115.48699951171875 C-72.72699737548828,-107.07499694824219 -74.75700378417969,-60.428001403808594 -61.61199951171875,-1.3830000162124634 C-50.124000549316406,50.220001220703125 -25.28499984741211,103.35299682617188 -2.755000114440918,102.99199676513672 C16.211000442504883,102.68800354003906 28.26300048828125,52.034000396728516 28.674999237060547,5.613999843597412 C29.086999893188477,-40.805999755859375 20.125,-132.1739959716797 52.57699966430664,-132.5240020751953z"/></g><g opacity="0.25" transform="matrix(1,0,0,1,166.3459930419922,343.635009765625)"><path stroke-linecap="round" stroke-linejoin="round" fill-opacity="0" stroke="rgb(243,226,191)" stroke-opacity="1" stroke-width="8" d=" M5.202000141143799,-127.8759994506836 C-3.0789999961853027,-127.86299896240234 -16.97800064086914,-119.8550033569336 -19.167999267578125,-85.35900115966797 C-22.166000366210938,-38.12900161743164 -8.510000228881836,49.61899948120117 -13.951000213623047,96.75299835205078"/></g><g opacity="0.25" transform="matrix(1,0,0,1,144.28500366210938,351.6130065917969)"><path stroke-linecap="round" stroke-linejoin="round" fill-opacity="0" stroke="rgb(243,226,191)" stroke-opacity="1" stroke-width="8" d=" M-4.146999835968018,-134.51199340820312 C-17.70599937438965,-131.4510040283203 -30.58799934387207,-113.89099884033203 -23.784000396728516,-47.8129997253418 C-19.099000930786133,-2.315000057220459 -9.343000411987305,61.862998962402344 -7.040999889373779,101.31300354003906"/></g><g opacity="0.25" transform="matrix(1,0,0,1,124.71199798583984,353.5820007324219)"><path stroke-linecap="round" stroke-linejoin="round" fill-opacity="0" stroke="rgb(243,226,191)" stroke-opacity="1" stroke-width="8" d=" M-18.148000717163086,-130.71099853515625 C-18.148000717163086,-130.71099853515625 -36.224998474121094,-126.8239974975586 -34.874000549316406,-83.95999908447266 C-33.604000091552734,-43.683998107910156 -19.707000732421875,37.86600112915039 0.3610000014305115,94.74800109863281"/></g><g opacity="0.5" transform="matrix(1,0,0,1,139.9510040283203,311.4700012207031)"><path fill="rgb(255,255,255)" fill-opacity="1" d=" M27.937999725341797,62.79399871826172 C27.937999725341797,62.79399871826172 11.020999908447266,-48.611000061035156 23.857999801635742,-83.26399993896484 C23.857999801635742,-83.26399993896484 -21.273000717163086,-85.69100189208984 -51.904998779296875,-71.91699981689453 C-67.46600341796875,-64.91999816894531 -69.90299987792969,-52.54499816894531 -69.90299987792969,-52.54499816894531 C-69.90299987792969,-52.54499816894531 -70.34400177001953,-69.02400207519531 -60.95600128173828,-77.02400207519531 C-51.56800079345703,-85.02400207519531 -27.731000900268555,-92.07099914550781 12.534000396728516,-95.59100341796875 C44.970001220703125,-98.4260025024414 52.624000549316406,-94.06099700927734 52.624000549316406,-94.06099700927734 C52.624000549316406,-94.06099700927734 31.91200065612793,-98.36799621582031 26.14900016784668,-37.61899948120117 C23.972000122070312,-14.673999786376953 23.92799949645996,17.551000595092773 27.937999725341797,62.79399871826172z"/></g><g opacity="1" transform="matrix(1,0,0,1,139.9980010986328,349.9330139160156)"><path stroke-linecap="round" stroke-linejoin="round" fill-opacity="0" stroke="rgb(188,154,113)" stroke-opacity="1" stroke-width="8" d=" M52.57699966430664,-132.5240020751953 C52.57699966430664,-132.5240020751953 42.12200164794922,-134.2729949951172 27.165000915527344,-134.20700073242188 C-0.6240000128746033,-134.08399963378906 -41.29199981689453,-129.6300048828125 -61.00299835205078,-115.48699951171875 C-72.72699737548828,-107.07499694824219 -74.75700378417969,-60.428001403808594 -61.61199951171875,-1.3830000162124634 C-50.124000549316406,50.220001220703125 -25.28499984741211,103.35299682617188 -2.755000114440918,102.99199676513672 C16.211000442504883,102.68800354003906 28.26300048828125,52.034000396728516 28.674999237060547,5.613999843597412 C29.086999893188477,-40.805999755859375 20.125,-132.1739959716797 52.57699966430664,-132.5240020751953z"/></g><g opacity="1" transform="matrix(1,0,0,1,177.64700317382812,350.135009765625)"><path stroke-linecap="round" stroke-linejoin="round" fill-opacity="0" stroke="rgb(173,133,89)" stroke-opacity="1" stroke-width="8" d=" M-40.40299987792969,102.79100036621094 C-21.437000274658203,102.48699951171875 -9.385000228881836,51.832000732421875 -8.972999572753906,5.4120001792907715 C-8.560999870300293,-41.007999420166016 -17.52400016784668,-132.375 14.928000450134277,-132.72500610351562"/></g><g opacity="1" transform="matrix(1,0,0,1,149.71499633789062,251.0019989013672)"><path stroke-linecap="round" stroke-linejoin="round" fill-opacity="0" stroke="rgb(255,255,255)" stroke-opacity="1" stroke-width="6" d="M0 0"/></g></g></g></svg>