<svg xmlns="http://www.w3.org/2000/svg" xmlns:xlink="http://www.w3.org/1999/xlink" viewBox="0 0 512 512" width="512" height="512" style="width: 100%; height: 100%; transform: translate3d(0,0,0);" preserveAspectRatio="xMidYMid meet"><defs><clipPath id="__lottie_element_43458"><rect width="512" height="512" x="0" y="0"/></clipPath><g id="__lottie_element_43466"><g style="display: block;" transform="matrix(1.2000000476837158,0,0,1.2000000476837158,256,216)" opacity="1"><g opacity="1" transform="matrix(1.0000900030136108,0,0,1,0,0)"><path fill="rgb(18,167,102)" fill-opacity="1" d=" M329.2149963378906,118.6719970703125 C334.23199462890625,100.65499877929688 316.97198486328125,106 292.5769958496094,123.19000244140625 C283.75,129.41000366210938 265.0870056152344,134.60499572753906 264.08599853515625,138.58999633789062 C262.47601318359375,145 273.47601318359375,149.5 290.00201416015625,147.9029998779297 C307.4150085449219,146.22000122070312 323.97198486328125,137.5 329.2149963378906,118.6719970703125z"/></g></g></g><clipPath id="__lottie_element_43470"><path d="M0,0 L512,0 L512,512 L0,512z"/></clipPath><linearGradient id="__lottie_element_43479" spreadMethod="pad" gradientUnits="userSpaceOnUse"><stop/><stop/><stop/></linearGradient><mask id="__lottie_element_43481"><path fill="url(#__lottie_element_43480)"/></mask><linearGradient id="__lottie_element_43480" spreadMethod="pad" gradientUnits="userSpaceOnUse"><stop stop-color="rgb(255,255,255)"/><stop stop-color="rgb(255,255,255)"/><stop stop-color="rgb(255,255,255)"/></linearGradient><linearGradient id="__lottie_element_43485" spreadMethod="pad" gradientUnits="userSpaceOnUse"><stop/><stop/><stop/></linearGradient><mask id="__lottie_element_43487"><path fill="url(#__lottie_element_43486)"/></mask><linearGradient id="__lottie_element_43486" spreadMethod="pad" gradientUnits="userSpaceOnUse"><stop stop-color="rgb(255,255,255)"/><stop stop-color="rgb(255,255,255)"/><stop stop-color="rgb(255,255,255)"/></linearGradient><linearGradient id="__lottie_element_43491" spreadMethod="pad" gradientUnits="userSpaceOnUse"><stop/><stop/><stop/></linearGradient><mask id="__lottie_element_43493"><path fill="url(#__lottie_element_43492)"/></mask><linearGradient id="__lottie_element_43492" spreadMethod="pad" gradientUnits="userSpaceOnUse"><stop stop-color="rgb(255,255,255)"/><stop stop-color="rgb(255,255,255)"/><stop stop-color="rgb(255,255,255)"/></linearGradient><linearGradient id="__lottie_element_43497" spreadMethod="pad" gradientUnits="userSpaceOnUse"><stop/><stop/><stop/></linearGradient><mask id="__lottie_element_43499"><path fill="url(#__lottie_element_43498)"/></mask><linearGradient id="__lottie_element_43498" spreadMethod="pad" gradientUnits="userSpaceOnUse"><stop stop-color="rgb(255,255,255)"/><stop stop-color="rgb(255,255,255)"/><stop stop-color="rgb(255,255,255)"/></linearGradient><linearGradient id="__lottie_element_43503" spreadMethod="pad" gradientUnits="userSpaceOnUse"><stop/><stop/><stop/></linearGradient><mask id="__lottie_element_43505"><path fill="url(#__lottie_element_43504)"/></mask><linearGradient id="__lottie_element_43504" spreadMethod="pad" gradientUnits="userSpaceOnUse"><stop stop-color="rgb(255,255,255)"/><stop stop-color="rgb(255,255,255)"/><stop stop-color="rgb(255,255,255)"/></linearGradient><linearGradient id="__lottie_element_43509" spreadMethod="pad" gradientUnits="userSpaceOnUse"><stop/><stop/><stop/></linearGradient><mask id="__lottie_element_43511"><path fill="url(#__lottie_element_43510)"/></mask><linearGradient id="__lottie_element_43510" spreadMethod="pad" gradientUnits="userSpaceOnUse"><stop stop-color="rgb(255,255,255)"/><stop stop-color="rgb(255,255,255)"/><stop stop-color="rgb(255,255,255)"/></linearGradient><linearGradient id="__lottie_element_43515" spreadMethod="pad" gradientUnits="userSpaceOnUse"><stop/><stop/><stop/></linearGradient><mask id="__lottie_element_43517"><path fill="url(#__lottie_element_43516)"/></mask><linearGradient id="__lottie_element_43516" spreadMethod="pad" gradientUnits="userSpaceOnUse"><stop stop-color="rgb(255,255,255)"/><stop stop-color="rgb(255,255,255)"/><stop stop-color="rgb(255,255,255)"/></linearGradient><linearGradient id="__lottie_element_43521" spreadMethod="pad" gradientUnits="userSpaceOnUse" x1="75.1449966430664" y1="59.60499954223633" x2="61.487998962402344" y2="233.56199645996094"><stop offset="0%" stop-color="rgb(255,255,255)"/><stop offset="50%" stop-color="rgb(255,255,255)"/><stop offset="100%" stop-color="rgb(255,255,255)"/></linearGradient><mask id="__lottie_element_43523"><path fill="url(#__lottie_element_43522)" d=" M327,88 C307,74 366.5119934082031,83.02200317382812 314.7799987792969,108.12200164794922 C293.1510009765625,118.61599731445312 282.4750061035156,120.97599792480469 276.1629943847656,123.54199981689453 C273.43798828125,124.6500015258789 271.5260009765625,125.7969970703125 269.8970031738281,127.65399932861328 C268.7430114746094,128.968994140625 267.73199462890625,130.64100646972656 266.67401123046875,132.9080047607422 C266.093994140625,134.14999389648438 265.9939880371094,135.23599243164062 266.3059997558594,136.1909942626953 C267.0320129394531,138.4149932861328 269.9880065917969,139.92300415039062 274.302001953125,141.0030059814453 C287.6449890136719,144.343994140625 313.9840087890625,143.59500122070312 327.552001953125,147.2740020751953 C370.0429992675781,158.7969970703125 337,186.5 345.5,196.5 C388.6400146484375,247.2530059814453 347,102 327,88z"/></mask><linearGradient id="__lottie_element_43522" spreadMethod="pad" gradientUnits="userSpaceOnUse" x1="75.1449966430664" y1="59.60499954223633" x2="61.487998962402344" y2="233.56199645996094"><stop stop-color="rgb(255,255,255)" offset="0%" stop-opacity="1"/><stop stop-color="rgb(255,255,255)" offset="26%" stop-opacity="0.5"/><stop stop-color="rgb(255,255,255)" offset="52%" stop-opacity="0"/></linearGradient><filter id="__lottie_element_43524" filterUnits="objectBoundingBox" x="0%" y="0%" width="100%" height="100%"><feComponentTransfer in="SourceGraphic"><feFuncA type="table" tableValues="1.0 0.0"/></feComponentTransfer></filter><mask id="__lottie_element_43466_2" mask-type="alpha"><g filter="url(#__lottie_element_43524)"><rect width="512" height="512" x="0" y="0" fill="#ffffff" opacity="0"/><g id="__lottie_element_43466"><g style="display: block;" transform="matrix(1.2000000476837158,0,0,1.2000000476837158,256,216)" opacity="1"><g opacity="1" transform="matrix(1.0000900030136108,0,0,1,0,0)"><path fill="rgb(18,167,102)" fill-opacity="1" d=" M329.2149963378906,118.6719970703125 C334.23199462890625,100.65499877929688 316.97198486328125,106 292.5769958496094,123.19000244140625 C283.75,129.41000366210938 265.0870056152344,134.60499572753906 264.08599853515625,138.58999633789062 C262.47601318359375,145 273.47601318359375,149.5 290.00201416015625,147.9029998779297 C307.4150085449219,146.22000122070312 323.97198486328125,137.5 329.2149963378906,118.6719970703125z"/></g></g></g></g></mask><linearGradient id="__lottie_element_43530" spreadMethod="pad" gradientUnits="userSpaceOnUse" x1="0" y1="-158" x2="0" y2="148.76400756835938"><stop offset="1%" stop-color="rgb(234,180,206)"/><stop offset="50%" stop-color="rgb(234,141,164)"/><stop offset="100%" stop-color="rgb(233,102,122)"/></linearGradient><radialGradient id="__lottie_element_43531" spreadMethod="pad" gradientUnits="userSpaceOnUse" cx="-11" cy="-123" r="270.4975715037731" fx="-11" fy="-123"><stop offset="20%" stop-color="rgb(235,179,205)" stop-opacity="0"/><stop offset="30%" stop-color="rgb(235,179,205)" stop-opacity="0"/><stop offset="40%" stop-color="rgb(235,179,205)" stop-opacity="0"/><stop offset="84%" stop-color="rgb(211,107,135)" stop-opacity="0.5"/><stop offset="100%" stop-color="rgb(187,34,66)" stop-opacity="1"/></radialGradient><radialGradient id="__lottie_element_43532" spreadMethod="pad" gradientUnits="userSpaceOnUse" cx="0" cy="-146.11300659179688" r="177.0715577658214" fx="0" fy="-146.11300659179688"><stop offset="20%" stop-color="rgb(255,255,255)" stop-opacity="1"/><stop offset="62%" stop-color="rgb(255,255,255)" stop-opacity="0.5"/><stop offset="82%" stop-color="rgb(255,255,255)" stop-opacity="0"/></radialGradient><linearGradient id="__lottie_element_43533" spreadMethod="pad" gradientUnits="userSpaceOnUse" x1="0" y1="153" x2="0" y2="24.525999069213867"><stop offset="0%" stop-color="rgb(163,19,52)" stop-opacity="1"/><stop offset="34%" stop-color="rgb(161,18,52)" stop-opacity="0.5"/><stop offset="87%" stop-color="rgb(160,16,51)" stop-opacity="0"/></linearGradient><radialGradient id="__lottie_element_43539" spreadMethod="pad" gradientUnits="userSpaceOnUse" cx="-90" cy="-11.085000038146973" r="82.57083054334667" fx="-90" fy="-11.085000038146973"><stop offset="49%" stop-color="rgb(168,0,0)" stop-opacity="1"/><stop offset="84%" stop-color="rgb(171,0,14)" stop-opacity="0.5"/><stop offset="97%" stop-color="rgb(174,0,28)" stop-opacity="0"/></radialGradient><linearGradient id="__lottie_element_43540" spreadMethod="pad" gradientUnits="userSpaceOnUse" x1="-90" y1="-74" x2="-90" y2="52.909000396728516"><stop offset="0%" stop-color="rgb(143,28,51)"/><stop offset="11%" stop-color="rgb(135,34,54)"/><stop offset="21%" stop-color="rgb(128,41,56)"/><stop offset="61%" stop-color="rgb(159,60,77)"/><stop offset="100%" stop-color="rgb(189,80,98)"/></linearGradient><linearGradient id="__lottie_element_43541" spreadMethod="pad" gradientUnits="userSpaceOnUse" x1="-90" y1="-12" x2="-90" y2="-55.37200164794922"><stop offset="0%" stop-color="rgb(71,9,20)"/><stop offset="64%" stop-color="rgb(62,9,10)"/><stop offset="100%" stop-color="rgb(54,9,0)"/></linearGradient><linearGradient id="__lottie_element_43542" spreadMethod="pad" gradientUnits="userSpaceOnUse" x1="-91.18000030517578" y1="-44.72700119018555" x2="-90" y2="49.49700164794922"><stop offset="19%" stop-color="rgb(86,16,26)"/><stop offset="44%" stop-color="rgb(97,20,32)"/><stop offset="70%" stop-color="rgb(108,24,37)"/></linearGradient><linearGradient id="__lottie_element_43543" spreadMethod="pad" gradientUnits="userSpaceOnUse" x1="-98.73600006103516" y1="-4.980999946594238" x2="-95.80500030517578" y2="51.50899887084961"><stop offset="0%" stop-color="rgb(87,12,23)" stop-opacity="0"/><stop offset="35%" stop-color="rgb(121,39,51)" stop-opacity="0.5"/><stop offset="86%" stop-color="rgb(155,66,79)" stop-opacity="1"/></linearGradient><radialGradient id="__lottie_element_43547" spreadMethod="pad" gradientUnits="userSpaceOnUse" cx="-90" cy="-11.085000038146973" r="82.57083054334667" fx="-90" fy="-11.085000038146973"><stop offset="49%" stop-color="rgb(168,0,0)" stop-opacity="1"/><stop offset="84%" stop-color="rgb(171,0,14)" stop-opacity="0.5"/><stop offset="97%" stop-color="rgb(174,0,28)" stop-opacity="0"/></radialGradient><linearGradient id="__lottie_element_43548" spreadMethod="pad" gradientUnits="userSpaceOnUse" x1="-90" y1="-74" x2="-90" y2="52.909000396728516"><stop offset="0%" stop-color="rgb(143,28,51)"/><stop offset="11%" stop-color="rgb(135,34,54)"/><stop offset="21%" stop-color="rgb(128,41,56)"/><stop offset="61%" stop-color="rgb(159,60,77)"/><stop offset="100%" stop-color="rgb(189,80,98)"/></linearGradient><linearGradient id="__lottie_element_43549" spreadMethod="pad" gradientUnits="userSpaceOnUse" x1="-90" y1="-12" x2="-90" y2="-55.37200164794922"><stop offset="0%" stop-color="rgb(71,9,20)"/><stop offset="64%" stop-color="rgb(62,9,10)"/><stop offset="100%" stop-color="rgb(54,9,0)"/></linearGradient><linearGradient id="__lottie_element_43550" spreadMethod="pad" gradientUnits="userSpaceOnUse" x1="-91.18000030517578" y1="-44.72700119018555" x2="-90" y2="49.49700164794922"><stop offset="19%" stop-color="rgb(86,16,26)"/><stop offset="44%" stop-color="rgb(97,20,32)"/><stop offset="70%" stop-color="rgb(108,24,37)"/></linearGradient><linearGradient id="__lottie_element_43551" spreadMethod="pad" gradientUnits="userSpaceOnUse" x1="-98.73600006103516" y1="-4.980999946594238" x2="-95.80500030517578" y2="51.50899887084961"><stop offset="0%" stop-color="rgb(87,12,23)" stop-opacity="0"/><stop offset="35%" stop-color="rgb(121,39,51)" stop-opacity="0.5"/><stop offset="86%" stop-color="rgb(155,66,79)" stop-opacity="1"/></linearGradient><radialGradient id="__lottie_element_43555" spreadMethod="pad" gradientUnits="userSpaceOnUse" cx="86" cy="32.84600067138672" r="65.90299987792969" fx="86" fy="32.84600067138672"><stop offset="0%" stop-color="rgb(255,217,211)" stop-opacity="1"/><stop offset="50%" stop-color="rgb(255,219,213)" stop-opacity="0.5"/><stop offset="100%" stop-color="rgb(255,221,215)" stop-opacity="0"/></radialGradient><radialGradient id="__lottie_element_43559" spreadMethod="pad" gradientUnits="userSpaceOnUse" cx="-92" cy="32.84600067138672" r="65.90299987792969" fx="-92" fy="32.84600067138672"><stop offset="0%" stop-color="rgb(255,217,211)" stop-opacity="1"/><stop offset="50%" stop-color="rgb(255,219,213)" stop-opacity="0.5"/><stop offset="100%" stop-color="rgb(255,221,215)" stop-opacity="0"/></radialGradient><linearGradient id="__lottie_element_43563" spreadMethod="pad" gradientUnits="userSpaceOnUse" x1="-181.69000244140625" y1="-22.19499969482422" x2="-159.2100067138672" y2="90.63700103759766"><stop offset="0%" stop-color="rgb(255,207,196)"/><stop offset="50%" stop-color="rgb(243,176,163)"/><stop offset="100%" stop-color="rgb(230,146,130)"/></linearGradient></defs><g clip-path="url(#__lottie_element_43458)"><g style="display: block;" transform="matrix(1.0204099416732788,0,0,0.9803900122642517,255.97999572753906,234.45098876953125)" opacity="1"><g opacity="1" transform="matrix(1.0199999809265137,0,0,1.0199999809265137,0,0)"><path fill="url(#__lottie_element_43563)" fill-opacity="1" d=" M-94.37899780273438,-24.60099983215332 C-150,34 -160.92300415039062,87.31500244140625 -124.3499984741211,133.843994140625 C-92,175 -19.753999710083008,176.82899475097656 6.7179999351501465,164.7270050048828 C33.189998626708984,152.625 43.520999908447266,-59.073001861572266 43.520999908447266,-59.073001861572266 C43.520999908447266,-59.073001861572266 -77.4489974975586,-42.4379997253418 -94.37899780273438,-24.60099983215332z"/></g><g opacity="1" transform="matrix(1,0,0,1,0,0)"><path stroke-linecap="round" stroke-linejoin="round" fill-opacity="0" stroke="rgb(211,116,106)" stroke-opacity="1" stroke-width="9" d=" M-85.61699676513672,161.41799926757812 C-51.84600067138672,174.80499267578125 -11.60200023651123,173.1020050048828 6.7179999351501465,164.7270050048828 C33.189998626708984,152.625 43.520999908447266,-59.073001861572266 43.520999908447266,-59.073001861572266 C43.520999908447266,-59.073001861572266 -70.63700103759766,-43.375 -92.67900085449219,-26.125999450683594"/></g><g opacity="1" transform="matrix(1,0,0,1,0,0)"><path stroke-linecap="round" stroke-linejoin="round" fill-opacity="0" stroke="rgb(251,174,166)" stroke-opacity="1" stroke-width="9" d=" M40.55799865722656,-12.793000221252441 C42.58599853515625,-39.91299819946289 43.520999908447266,-59.073001861572266 43.520999908447266,-59.073001861572266 C43.520999908447266,-59.073001861572266 -70.63700103759766,-43.375 -92.67900085449219,-26.125999450683594"/></g></g><g style="display: block;" transform="matrix(1,0,0,1,256,256)" opacity="1"><g opacity="1" transform="matrix(1,0,0,1,0,0)"><path fill="url(#__lottie_element_43530)" fill-opacity="1" d=" M200.76600646972656,-4.136000156402588 C200.76600646972656,82.78399658203125 138.01600646972656,149.24600219726562 0.34299999475479126,149.24600219726562 C-134.23899841308594,149.24600219726562 -200.08099365234375,82.78399658203125 -200.08099365234375,-4.136000156402588 C-200.08099365234375,-91.05599975585938 -122.09400177001953,-157.51699829101562 0.34299999475479126,-157.51699829101562 C124.85900115966797,-157.51699829101562 200.76600646972656,-91.05599975585938 200.76600646972656,-4.136000156402588z"/></g><g opacity="1" transform="matrix(1,0,0,1,0,0)"><path fill="url(#__lottie_element_43531)" fill-opacity="1" d=" M200.76600646972656,-4.136000156402588 C200.76600646972656,82.78399658203125 138.01600646972656,149.24600219726562 0.34299999475479126,149.24600219726562 C-134.23899841308594,149.24600219726562 -200.08099365234375,82.78399658203125 -200.08099365234375,-4.136000156402588 C-200.08099365234375,-91.05599975585938 -122.09400177001953,-157.51699829101562 0.34299999475479126,-157.51699829101562 C124.85900115966797,-157.51699829101562 200.76600646972656,-91.05599975585938 200.76600646972656,-4.136000156402588z"/></g><g opacity="0.5" transform="matrix(1,0,0,1,0,0)"><path fill="url(#__lottie_element_43532)" fill-opacity="1" d=" M200.76300048828125,-4.136000156402588 C200.76300048828125,82.18399810791016 138.8730010986328,148.2740020751953 3.1630001068115234,149.23399353027344 C122.04299926757812,148.24400329589844 176.26300048828125,88.94400024414062 176.26300048828125,10.984000205993652 C176.26300048828125,-67.58599853515625 109.63300323486328,-127.2760009765625 0.34299999475479126,-127.2760009765625 C-107.12699890136719,-127.2760009765625 -175.57699584960938,-67.58599853515625 -175.57699584960938,10.984000205993652 C-175.57699584960938,88.94400024414062 -118.68699645996094,148.24400329589844 -2.4170000553131104,149.23399353027344 C-135.13699340820312,148.2740020751953 -200.07699584960938,82.18399810791016 -200.07699584960938,-4.136000156402588 C-200.07699584960938,-91.05599975585938 -122.09700012207031,-157.51600646972656 0.34299999475479126,-157.51600646972656 C124.86299896240234,-157.51600646972656 200.76300048828125,-91.05599975585938 200.76300048828125,-4.136000156402588z"/></g><g opacity="0.3" transform="matrix(1,0,0,1,0,0)"><path fill="url(#__lottie_element_43533)" fill-opacity="1" d=" M200.76300048828125,-4.136000156402588 C200.76300048828125,82.78399658203125 138.01300048828125,149.24400329589844 0.34299999475479126,149.24400329589844 C-134.23699951171875,149.24400329589844 -200.07699584960938,82.78399658203125 -200.07699584960938,-4.136000156402588 C-200.07699584960938,-20.865999221801758 -197.18699645996094,-36.986000061035156 -191.63699340820312,-52.10599899291992 C-192.23699951171875,-46.74599838256836 -192.53700256347656,-41.29600143432617 -192.53700256347656,-35.7859992980957 C-192.53700256347656,51.13399887084961 -134.50999450683594,117.59400177001953 0.34299999475479126,117.59400177001953 C138.16600036621094,117.59400177001953 193.22300720214844,51.13399887084961 193.22300720214844,-35.7859992980957 C193.22300720214844,-41.5359992980957 192.9029998779297,-47.22600173950195 192.2729949951172,-52.816001892089844 C197.86300659179688,-37.486000061035156 200.76300048828125,-21.125999450683594 200.76300048828125,-4.136000156402588z"/></g></g><g style="display: block;" transform="matrix(1,0,0,1,258,246)" opacity="1"><g opacity="1" transform="matrix(1,0,0,1,0,0)"><path fill="url(#__lottie_element_43559)" fill-opacity="1" d=" M-14.53499984741211,22.58099937438965 C-14.53499984741211,63.48099899291992 -55.540000915527344,114.63700103759766 -91.93699645996094,114.63700103759766 C-128.33399963378906,114.63700103759766 -168,81 -168.33999633789062,15.581000328063965 C-168.55299377441406,-25.31800079345703 -127.83399963378906,-57.9739990234375 -91.43699645996094,-57.9739990234375 C-55.040000915527344,-57.9739990234375 -14.53499984741211,-18.319000244140625 -14.53499984741211,22.58099937438965z"/></g></g><g style="display: block;" transform="matrix(1,0,0,1,258,246)" opacity="1"><g opacity="1" transform="matrix(1.0017600059509277,0,0,1,0.49000000953674316,0.44699999690055847)"><path fill="url(#__lottie_element_43555)" fill-opacity="1" d=" M174.0709991455078,15.581000328063965 C174.20399475097656,89.052001953125 122.5989990234375,113.59300231933594 86.20600128173828,114.13700103759766 C24.965999603271484,115.0530014038086 5.178999900817871,56.974998474121094 5.828999996185303,16.08099937438965 C6.998000144958496,-57.448001861572266 50.30799865722656,-98.4739990234375 86.70500183105469,-98.4739990234375 C123.10199737548828,-98.4739990234375 173.9969940185547,-25.319000244140625 174.0709991455078,15.581000328063965z"/></g></g><g style="display: block;" transform="matrix(1,0,0,1,256,256)" opacity="1"><g opacity="1" transform="matrix(0.6138899922370911,0,0,1.0014100074768066,-35.60915756225586,0.013672828674316406)"><path fill="url(#__lottie_element_43547)" fill-opacity="1" d=" M9.479999542236328,-7.123000144958496 C9.479999542236328,38.61899948120117 -33,85.68299865722656 -89.60099792480469,85.68299865722656 C-149,85.68299865722656 -189.6820068359375,38.61899948120117 -189.6820068359375,-7.123000144958496 C-189.6820068359375,-52.86600112915039 -148.1009979248047,-101.88600158691406 -89.7020034790039,-101.88600158691406 C-25.60099983215332,-101.88600158691406 9.479999542236328,-52.86600112915039 9.479999542236328,-7.123000144958496z"/></g><g opacity="1" transform="matrix(1,0,0,1,0,0)"><path fill="rgb(255,184,204)" fill-opacity="1" d=" M-45.5890007019043,2.0799999237060547 C-45.5890007019043,40.41400146484375 -64.94200134277344,67.48899841308594 -88.81500244140625,67.48899841308594 C-112.68800354003906,67.48899841308594 -132.04100036621094,40.41400146484375 -132.04100036621094,2.0799999237060547 C-132.04100036621094,-36.25400161743164 -112.68800354003906,-67.3290023803711 -88.81500244140625,-67.3290023803711 C-64.94200134277344,-67.3290023803711 -45.5890007019043,-36.25400161743164 -45.5890007019043,2.0799999237060547z"/></g><g opacity="1" transform="matrix(1,0,0,1,0,0)"><path fill="url(#__lottie_element_43548)" fill-opacity="1" d=" M-46.375,-7.35099983215332 C-46.375,30.982999801635742 -65.72799682617188,59.05799865722656 -89.60099792480469,59.05799865722656 C-113.4739990234375,59.05799865722656 -132.82699584960938,30.982999801635742 -132.82699584960938,-7.35099983215332 C-132.82699584960938,-45.685001373291016 -113.4739990234375,-76.76000213623047 -89.60099792480469,-76.76000213623047 C-65.72799682617188,-76.76000213623047 -46.375,-45.685001373291016 -46.375,-7.35099983215332z"/></g><g opacity="0.8" transform="matrix(1,0,0,1,0,0)"><path fill="url(#__lottie_element_43549)" fill-opacity="1" d=" M-50.89400100708008,0.7419999837875366 C-50.89400100708008,33.16999816894531 -69.05799865722656,59.05799865722656 -90.33000183105469,59.05799865722656 C-111.60199737548828,59.05799865722656 -127.9280014038086,33.16999816894531 -127.9280014038086,0.7419999837875366 C-127.9280014038086,-31.68600082397461 -110.68299865722656,-57.9739990234375 -89.41100311279297,-57.9739990234375 C-68.13899993896484,-57.9739990234375 -50.89400100708008,-31.68600082397461 -50.89400100708008,0.7419999837875366z"/></g><g opacity="1" transform="matrix(1,0,0,1,0,0)"><path fill="url(#__lottie_element_43550)" fill-opacity="1" d=" M-55.99800109863281,5.6620001792907715 C-55.99800109863281,35.292999267578125 -71.75399780273438,58.94900131225586 -90.20800018310547,58.94900131225586 C-108.66200256347656,58.94900131225586 -122.8239974975586,35.292999267578125 -122.8239974975586,5.6620001792907715 C-122.8239974975586,-23.9689998626709 -107.86499786376953,-47.9900016784668 -89.41100311279297,-47.9900016784668 C-70.95700073242188,-47.9900016784668 -55.99800109863281,-23.9689998626709 -55.99800109863281,5.6620001792907715z"/></g><g opacity="1" transform="matrix(1,0,0,1,0,0)"><path fill="url(#__lottie_element_43551)" fill-opacity="1" d=" M-63.63199996948242,18.191999435424805 C-62.83100128173828,36.875 -75.58300018310547,53.50899887084961 -89.64900207519531,54.11199951171875 C-103.71499633789062,54.71500015258789 -115.76599884033203,39.058998107910156 -116.56700134277344,20.375999450683594 C-117.36799621582031,1.6929999589920044 -106.56099700927734,3.5220000743865967 -92.49500274658203,2.9189999103546143 C-78.42900085449219,2.315999984741211 -64.43299865722656,-0.4909999966621399 -63.63199996948242,18.191999435424805z"/></g></g><g style="display: block;" transform="matrix(-1,0,0,1,255.79800415039062,256)" opacity="1"><g opacity="1" transform="matrix(0.6138899922370911,0,0,1.0014100074768066,-35.60915756225586,0.013672828674316406)"><path fill="url(#__lottie_element_43539)" fill-opacity="1" d=" M9.479999542236328,-7.123000144958496 C9.479999542236328,38.61899948120117 -33,85.68299865722656 -89.60099792480469,85.68299865722656 C-149,85.68299865722656 -189.6820068359375,38.61899948120117 -189.6820068359375,-7.123000144958496 C-189.6820068359375,-52.86600112915039 -148.1009979248047,-101.88600158691406 -89.7020034790039,-101.88600158691406 C-25.60099983215332,-101.88600158691406 9.479999542236328,-52.86600112915039 9.479999542236328,-7.123000144958496z"/></g><g opacity="1" transform="matrix(1,0,0,1,0,0)"><path fill="rgb(255,184,204)" fill-opacity="1" d=" M-45.5890007019043,2.0799999237060547 C-45.5890007019043,40.41400146484375 -64.94200134277344,67.48899841308594 -88.81500244140625,67.48899841308594 C-112.68800354003906,67.48899841308594 -132.04100036621094,40.41400146484375 -132.04100036621094,2.0799999237060547 C-132.04100036621094,-36.25400161743164 -112.68800354003906,-67.3290023803711 -88.81500244140625,-67.3290023803711 C-64.94200134277344,-67.3290023803711 -45.5890007019043,-36.25400161743164 -45.5890007019043,2.0799999237060547z"/></g><g opacity="1" transform="matrix(1,0,0,1,0,0)"><path fill="url(#__lottie_element_43540)" fill-opacity="1" d=" M-46.375,-7.35099983215332 C-46.375,30.982999801635742 -65.72799682617188,59.05799865722656 -89.60099792480469,59.05799865722656 C-113.4739990234375,59.05799865722656 -132.82699584960938,30.982999801635742 -132.82699584960938,-7.35099983215332 C-132.82699584960938,-45.685001373291016 -113.4739990234375,-76.76000213623047 -89.60099792480469,-76.76000213623047 C-65.72799682617188,-76.76000213623047 -46.375,-45.685001373291016 -46.375,-7.35099983215332z"/></g><g opacity="0.8" transform="matrix(1,0,0,1,0,0)"><path fill="url(#__lottie_element_43541)" fill-opacity="1" d=" M-50.89400100708008,0.7419999837875366 C-50.89400100708008,33.16999816894531 -69.05799865722656,59.05799865722656 -90.33000183105469,59.05799865722656 C-111.60199737548828,59.05799865722656 -127.9280014038086,33.16999816894531 -127.9280014038086,0.7419999837875366 C-127.9280014038086,-31.68600082397461 -110.68299865722656,-57.9739990234375 -89.41100311279297,-57.9739990234375 C-68.13899993896484,-57.9739990234375 -50.89400100708008,-31.68600082397461 -50.89400100708008,0.7419999837875366z"/></g><g opacity="1" transform="matrix(1,0,0,1,0,0)"><path fill="url(#__lottie_element_43542)" fill-opacity="1" d=" M-55.99800109863281,5.6620001792907715 C-55.99800109863281,35.292999267578125 -71.75399780273438,58.94900131225586 -90.20800018310547,58.94900131225586 C-108.66200256347656,58.94900131225586 -122.8239974975586,35.292999267578125 -122.8239974975586,5.6620001792907715 C-122.8239974975586,-23.9689998626709 -107.86499786376953,-47.9900016784668 -89.41100311279297,-47.9900016784668 C-70.95700073242188,-47.9900016784668 -55.99800109863281,-23.9689998626709 -55.99800109863281,5.6620001792907715z"/></g><g opacity="1" transform="matrix(1,0,0,1,0,0)"><path fill="url(#__lottie_element_43543)" fill-opacity="1" d=" M-63.63199996948242,18.191999435424805 C-62.83100128173828,36.875 -75.58300018310547,53.50899887084961 -89.64900207519531,54.11199951171875 C-103.71499633789062,54.71500015258789 -115.76599884033203,39.058998107910156 -116.56700134277344,20.375999450683594 C-117.36799621582031,1.6929999589920044 -106.56099700927734,3.5220000743865967 -92.49500274658203,2.9189999103546143 C-78.42900085449219,2.315999984741211 -64.43299865722656,-0.4909999966621399 -63.63199996948242,18.191999435424805z"/></g></g><g style="display: block;" transform="matrix(1,0,0,1,256,256)" opacity="1"><g opacity="1" transform="matrix(1,0,0,1,0,0)"><g opacity="1" transform="matrix(1,0,0,1,0,0)"><path stroke-linecap="butt" stroke-linejoin="miter" fill-opacity="0" stroke-miterlimit="10" stroke="rgb(206,91,127)" stroke-opacity="1" stroke-width="9" d=" M200.76600646972656,-4.136000156402588 C200.76600646972656,82.78399658203125 138.01600646972656,149.24600219726562 0.34299999475479126,149.24600219726562 C-134.23899841308594,149.24600219726562 -200.08099365234375,82.78399658203125 -200.08099365234375,-4.136000156402588 C-200.08099365234375,-91.05599975585938 -122.09400177001953,-157.51699829101562 0.34299999475479126,-157.51699829101562 C124.85900115966797,-157.51699829101562 200.76600646972656,-91.05599975585938 200.76600646972656,-4.136000156402588z"/></g><g opacity="1" transform="matrix(1,0,0,1,0,0)"><path stroke-linecap="round" stroke-linejoin="round" fill-opacity="0" stroke="rgb(155,18,57)" stroke-opacity="1" stroke-width="9" d=" M200.76600646972656,-4.136000156402588 C200.76600646972656,82.78399658203125 138.01600646972656,149.24600219726562 0.34299999475479126,149.24600219726562 C-126.98500061035156,149.24600219726562 -192.7830047607422,89.75599670410156 -199.5070037841797,9.734000205993652"/></g></g></g><g style="display: block;" mask="url(#__lottie_element_43466_2)"><g clip-path="url(#__lottie_element_43470)" transform="matrix(1.2000000476837158,0,0,1.2000000476837158,-51.200008392333984,-91.20001220703125)" opacity="1"><g style="display: block;" transform="matrix(1,0,0,1,0,0)" opacity="0.64"><g opacity="1" transform="matrix(1,0,0,1,256,256)"><g opacity="1" transform="matrix(1,0,0,1,0,0)"><path fill="rgb(200,220,187)" fill-opacity="1" d=" M327,88 C307,74 366.5119934082031,83.02200317382812 314.7799987792969,108.12200164794922 C293.1510009765625,118.61599731445312 282.4750061035156,120.97599792480469 276.1629943847656,123.54199981689453 C273.43798828125,124.6500015258789 271.5260009765625,125.7969970703125 269.8970031738281,127.65399932861328 C268.7430114746094,128.968994140625 267.73199462890625,130.64100646972656 266.67401123046875,132.9080047607422 C266.093994140625,134.14999389648438 265.9939880371094,135.23599243164062 266.3059997558594,136.1909942626953 C267.0320129394531,138.4149932861328 269.9880065917969,139.92300415039062 274.302001953125,141.0030059814453 C287.6449890136719,144.343994140625 313.9840087890625,143.59500122070312 327.552001953125,147.2740020751953 C370.0429992675781,158.7969970703125 337,186.5 345.5,196.5 C388.6400146484375,247.2530059814453 347,102 327,88z"/><path fill="url(#__lottie_element_43521)" mask="url(#__lottie_element_43523)" fill-opacity="1" d="M0 0 M327,88 C307,74 366.5119934082031,83.02200317382812 314.7799987792969,108.12200164794922 C293.1510009765625,118.61599731445312 282.4750061035156,120.97599792480469 276.1629943847656,123.54199981689453 C273.43798828125,124.6500015258789 271.5260009765625,125.7969970703125 269.8970031738281,127.65399932861328 C268.7430114746094,128.968994140625 267.73199462890625,130.64100646972656 266.67401123046875,132.9080047607422 C266.093994140625,134.14999389648438 265.9939880371094,135.23599243164062 266.3059997558594,136.1909942626953 C267.0320129394531,138.4149932861328 269.9880065917969,139.92300415039062 274.302001953125,141.0030059814453 C287.6449890136719,144.343994140625 313.9840087890625,143.59500122070312 327.552001953125,147.2740020751953 C370.0429992675781,158.7969970703125 337,186.5 345.5,196.5 C388.6400146484375,247.2530059814453 347,102 327,88z"/></g></g></g><g style="display: block;" transform="matrix(1,0,0,1,0,0)" opacity="0.73"><g opacity="1" transform="matrix(1,0,0,1,256,256)"><g opacity="1" transform="matrix(1,0,0,1,0,0)"><path stroke-linecap="butt" stroke-linejoin="miter" fill-opacity="0" stroke-miterlimit="4" stroke="rgb(159,192,159)" stroke-opacity="1" stroke-width="7" d=" M327,88 C307,74 366.5119934082031,83.02200317382812 314.7799987792969,108.12200164794922 C293.1510009765625,118.61599731445312 282.4750061035156,120.97599792480469 276.1629943847656,123.54199981689453 C273.43798828125,124.6500015258789 271.5260009765625,125.7969970703125 269.8970031738281,127.65399932861328 C268.7430114746094,128.968994140625 267.73199462890625,130.64100646972656 266.67401123046875,132.9080047607422 C266.093994140625,134.14999389648438 265.9939880371094,135.23599243164062 266.3059997558594,136.1909942626953 C267.0320129394531,138.4149932861328 269.9880065917969,139.92300415039062 274.302001953125,141.0030059814453 C287.6449890136719,144.343994140625 313.9840087890625,143.59500122070312 327.552001953125,147.2740020751953 C370.0429992675781,158.7969970703125 337,186.5 345.5,196.5 C388.6400146484375,247.2530059814453 347,102 327,88z"/></g></g><g opacity="0" transform="matrix(1,0,0,1,256,256)"><g opacity="1" transform="matrix(1,0,0,1,0,0)"><path stroke-linecap="butt" stroke-linejoin="miter" fill-opacity="0" stroke-miterlimit="4" stroke="rgb(159,192,159)" stroke-opacity="1" stroke-width="7" d=" M264.9989929199219,139.5 C238.4600067138672,143.96200561523438 220.3939971923828,74.53299713134766 176.82200622558594,66.78900146484375 C133,59 76.67400360107422,124.5479965209961 30.375,145.29800415039062 C-104.36100006103516,205.68299865722656 -105.30599975585938,138.4340057373047 -116.94300079345703,107.16500091552734 C-120.27999877929688,98.197998046875 -124.49700164794922,92.19000244140625 -133,93 C-142.9550018310547,93.947998046875 -150.9010009765625,116.47100067138672 -152.3800048828125,142.5279998779297 C-154.02099609375,171.43699645996094 -147.70199584960938,204.69500732421875 -127.33499908447266,217.66700744628906 C-75,251 30,228 95.28600311279297,191.5489959716797 C136.86300659179688,168.3350067138672 133.0659942626953,214.90899658203125 170.99899291992188,219.5 C249.5,229 321.7040100097656,129.96600341796875 264.9989929199219,139.5z"/></g></g><g opacity="0" transform="matrix(1,0,0,1,256,256)"><g opacity="1" transform="matrix(1,0,0,1,0,0)"><path stroke-linecap="butt" stroke-linejoin="miter" fill-opacity="0" stroke-miterlimit="4" stroke="rgb(159,192,159)" stroke-opacity="1" stroke-width="7" d=" M187.82200622558594,115.28900146484375 C158.2209930419922,103.26399993896484 129,148 62.875,162.79800415039062 C-54.823001861572266,189.13699340820312 -21.118000030517578,85.20500183105469 -43.237998962402344,52.46799850463867 C-56.805999755859375,32.38800048828125 -102.43399810791016,50.97700119018555 -137.968994140625,76.54499816894531 C-158.1219940185547,91.0459976196289 -175.0290069580078,107.79100036621094 -181,121 C-185.677001953125,131.3459930419922 -117,82 -106.41899871826172,114.12100219726562 C-93.25499725341797,154.08399963378906 -128.58700561523438,171.1959991455078 -103.83499908447266,212.16700744628906 C-84,245 40.57899856567383,247.5540008544922 109.28600311279297,217.5489959716797 C165.5,193 258.5,144 187.82200622558594,115.28900146484375z"/></g></g><g opacity="0" transform="matrix(1,0,0,1,256,256)"><g opacity="1" transform="matrix(1,0,0,1,0,0)"><path stroke-linecap="butt" stroke-linejoin="miter" fill-opacity="0" stroke-miterlimit="4" stroke="rgb(159,192,159)" stroke-opacity="1" stroke-width="7" d=" M97.375,137.79800415039062 C104,102 121,54 93.76200103759766,27.968000411987305 C68.0770034790039,3.4200000762939453 -17.360000610351562,68.24500274658203 -85.60900115966797,117.5260009765625 C-124.31500244140625,145.4759979248047 -157.5,158 -148.5,175.5 C-124.60700225830078,221.95799255371094 -31.659000396728516,142.45599365234375 -15.418999671936035,172.12100219726562 C-7,187.5 10.081999778747559,231.61500549316406 64.16500091552734,221.66700744628906 C114,212.5 93.26599884033203,160.0030059814453 97.375,137.79800415039062z"/></g></g><g opacity="0" transform="matrix(1,0,0,1,256,256)"><g opacity="1" transform="matrix(1,0,0,1,0,0)"><path stroke-linecap="butt" stroke-linejoin="miter" fill-opacity="0" stroke-miterlimit="4" stroke="rgb(159,192,159)" stroke-opacity="1" stroke-width="7" d=" M115.875,148.79800415039062 C128.19900512695312,114.54199981689453 150.5,69 123.26200103759766,42.96799850463867 C97.5770034790039,18.420000076293945 15.5,71.5 -70.10900115966797,133.0260009765625 C-89.53900146484375,146.99000549316406 -114.96099853515625,151.84800720214844 -134.73300170898438,156.5570068359375 C-138.98500061035156,157.57000732421875 -142.97500610351562,158.5749969482422 -146.58900451660156,159.66299438476562 C-150.08999633789062,160.7169952392578 -153.23599243164062,161.84800720214844 -155.9239959716797,163.13699340820312 C-163.302001953125,166.6750030517578 -167.22000122070312,171.40499877929688 -165.5,179 C-157.23599243164062,215.4980010986328 -124.60399627685547,216.2729949951172 -88.09100341796875,206.80799865722656 C-36.612998962402344,193.46400451660156 22.579999923706055,159.76499938964844 32.08100128173828,177.12100219726562 C40.5,192.5 89,223.5 115.875,148.79800415039062z"/></g></g><g opacity="0" transform="matrix(1,0,0,1,256,256)"><g opacity="1" transform="matrix(1,0,0,1,0,0)"><path stroke-linecap="butt" stroke-linejoin="miter" fill-opacity="0" stroke-miterlimit="4" stroke="rgb(159,192,159)" stroke-opacity="1" stroke-width="7" d=" M-140.3990020751953,208.99000549316406 C-101.5,217.5 74,154.5 -3.6540000438690186,107.80599975585938 C-6.0980000495910645,106.33699798583984 -2.822999954223633,100.45500183105469 1.1390000581741333,93.27200317382812 C7.989999771118164,80.85299682617188 16.895000457763672,64.54499816894531 1.8509999513626099,60.43000030517578 C-18,55 -43.5,84.5 -65.40599822998047,81.04399871826172 C-92.5979995727539,76.75399780273438 -103.97200012207031,66.27300262451172 -143.13400268554688,69.59700012207031 C-155.97000122070312,70.68699645996094 -93.90899658203125,87.63700103759766 -96.85199737548828,126.64600372314453 C-100.5,175 -176.79600524902344,201.02699279785156 -140.3990020751953,208.99000549316406z"/></g></g><g opacity="0" transform="matrix(1,0,0,1,256,256)"><g opacity="1" transform="matrix(1,0,0,1,0,0)"><path stroke-linecap="butt" stroke-linejoin="miter" fill-opacity="0" stroke-miterlimit="4" stroke="rgb(159,192,159)" stroke-opacity="1" stroke-width="7" d=" M9.178000450134277,96.82499694824219 C32.840999603271484,79.28199768066406 30.5,50.5 21.35099983215332,43.93000030517578 C4.635000228881836,31.924999237060547 14.5,81.5 -36.90599822998047,82.54399871826172 C-89.072998046875,83.60299682617188 -58.5,147 9.178000450134277,96.82499694824219z"/></g></g><g opacity="0" transform="matrix(1,0,0,1,256,256)"><g opacity="1" transform="matrix(1,0,0,1,0,0)"><path stroke-linecap="butt" stroke-linejoin="miter" fill-opacity="0" stroke-miterlimit="4" stroke="rgb(159,192,159)" stroke-opacity="1" stroke-width="7" d=" M-62.26499938964844,100.90899658203125 C-73.2959976196289,80.70500183105469 -87.37100219726562,100.72599792480469 -132.0229949951172,89.55699920654297 C-171.697998046875,79.25499725341797 -146.26800537109375,30.392000198364258 -169.13400268554688,42.94599914550781 C-192,55.5 -195.5749969482422,94.14399719238281 -160.90199279785156,111.9280014038086 C-93.5,146.5 -52.66999816894531,119.76100158691406 -62.26499938964844,100.90899658203125z"/></g></g><g opacity="0" transform="matrix(1,0,0,1,256,256)"><g opacity="1" transform="matrix(1,0,0,1,0,0)"><path stroke-linecap="butt" stroke-linejoin="miter" fill-opacity="0" stroke-miterlimit="4" stroke="rgb(159,192,159)" stroke-opacity="1" stroke-width="7" d=" M-110.79199981689453,100.9729995727539 C-123.5,86 -131.6510009765625,92.78500366210938 -143.0570068359375,87.66100311279297 C-159,80.5 -146.03599548339844,37.520999908447266 -173.13400268554688,57.59700012207031 C-186.5,67.5 -192.6840057373047,96.86499786376953 -168.3520050048828,113.14600372314453 C-120,145.5 -103.96399688720703,109.01899719238281 -110.79199981689453,100.9729995727539z"/></g></g></g></g></g><g style="display: block;" transform="matrix(1,0,0,1,256,256)" opacity="1"><g opacity="1" transform="matrix(1,0,0,1,-0.023000000044703484,-43.64500045776367)"><path stroke-linecap="round" stroke-linejoin="round" fill-opacity="0" stroke="rgb(159,193,159)" stroke-opacity="1" stroke-width="8" d="M0 0"/></g><g opacity="1" transform="matrix(1,0,0,1,0,0)"><path stroke-linecap="round" stroke-linejoin="round" fill-opacity="0" stroke="rgb(159,193,159)" stroke-opacity="1" stroke-width="8" d="M0 0"/></g></g></g></svg>