<svg xmlns="http://www.w3.org/2000/svg" xmlns:xlink="http://www.w3.org/1999/xlink" viewBox="0 0 512 512" width="512" height="512" style="width: 100%; height: 100%; transform: translate3d(0,0,0);" preserveAspectRatio="xMidYMid meet"><defs><clipPath id="__lottie_element_8541"><rect width="512" height="512" x="0" y="0"/></clipPath></defs><g clip-path="url(#__lottie_element_8541)"><g style="display: block;" transform="matrix(1,0,0,1,194.0419921875,328.72601318359375)" opacity="1"><g opacity="1" transform="matrix(1,0,0,1,0,0)"><path fill="rgb(252,206,44)" fill-opacity="1" d=" M108.56900024414062,-105.84700012207031 C117.45800018310547,-83.72599792480469 110.34600067138672,-52.60900115966797 120.59200286865234,-41.7400016784668 C147.70700073242188,-12.97599983215332 178.7969970703125,-56.84600067138672 198.89199829101562,-63.900001525878906 C225.45799255371094,-73.22599792480469 269.4570007324219,-65.22599792480469 258.6969909667969,-33.30500030517578 C255.3509979248047,-23.378000259399414 208.57400512695312,-12.005999565124512 189.56300354003906,4.9670000076293945 C163.45799255371094,28.27400016784668 142.45799255371094,57.77399826049805 125.2750015258789,77.18199920654297 C100.70600128173828,104.93299865722656 60.9370002746582,127.9469985961914 12.842000007629395,128.1649932861328 C-53.77399826049805,128.4669952392578 -87.44400024414062,103.35700225830078 -104.53800201416016,61.777000427246094 C-115.90299987792969,34.13399887084961 -116.54299926757812,-22.97599983215332 -115.9010009765625,-64.6969985961914 C-71.54299926757812,-99.22599792480469 41.95800018310547,-101.22599792480469 108.56900024414062,-105.84700012207031z"/></g></g><g style="display: block;" transform="matrix(1,0,0,1,-53,-4.5)" opacity="1"><g opacity="1" transform="matrix(1,0,0,1,332.9469909667969,156.65199279785156)"><path fill="rgb(252,206,44)" fill-opacity="1" d=" M32.803001403808594,129.59800720214844 C29.714000701904297,104.88500213623047 26.77400016784668,23.364999771118164 25.594999313354492,-23.535999298095703 C25.246999740600586,-37.36600112915039 25.05299949645996,-48.1870002746582 25.05299949645996,-53.652000427246094 C25.05299949645996,-77.6520004272461 24.132999420166016,-103.6520004272461 -0.9470000267028809,-103.6520004272461 C-26.94700050354004,-103.6520004272461 -26.099000930786133,-76.63899993896484 -26.94700050354004,-48.652000427246094 C-27.235000610351562,-39.1609992980957 -27.481000900268555,-22.909000396728516 -27.68600082397461,-4.570000171661377 C-28.194000244140625,40.86000061035156 -28.44700050354004,99.0979995727539 -28.44700050354004,99.0979995727539 C-28.44700050354004,99.0979995727539 -16.69700050354004,101.0979995727539 -2.197000026702881,105.5979995727539 C23.09000015258789,113.44599914550781 32.803001403808594,129.59800720214844 32.803001403808594,129.59800720214844z"/></g><g opacity="1" transform="matrix(1,0,0,1,330.2980041503906,125.5)"><path fill="rgb(255,215,93)" fill-opacity="1" d=" M24.70199966430664,-39.5 C24.70199966430664,-39.5 21.266000747680664,-59.494998931884766 -0.2980000078678131,-58.5 C-16.54800033569336,-57.75 -15.54800033569336,-25.75 -17.41900062561035,22.577999114990234 C-17.63800048828125,28.23900032043457 -17.993000030517578,33.99599838256836 -18.2810001373291,39.733001708984375 C-18.551000595092773,45.10300064086914 -19.29800033569336,49 -19.67099952697754,53.422000885009766 C-20.141000747680664,58.99300003051758 -21.54800033569336,65.5 -23.29800033569336,72.5 C-23.29800033569336,72.5 -26.29800033569336,14.5 -23.937000274658203,-29.847000122070312 C-22.357999801635742,-59.50299835205078 -16.29800033569336,-72.5 2.7019999027252197,-72.5 C21.70199966430664,-72.5 25.70199966430664,-54.5 24.70199966430664,-39.5z"/></g><g opacity="0.5" transform="matrix(1,0,0,1,342.9219970703125,146.1750030517578)"><path fill="rgb(240,146,1)" fill-opacity="1" d=" M-15.92199993133545,-89.17500305175781 C-5.921999931335449,-88.17500305175781 4.078000068664551,-84.17500305175781 5.078000068664551,-53.17499923706055 C5.4039998054504395,-43.058998107910156 6.3379998207092285,-8.618000030517578 7.0289998054504395,8.8100004196167 C7.1620001792907715,12.154000282287598 7.302999973297119,15.571000099182129 7.455999851226807,19.038000106811523 C7.622000217437744,22.80500030517578 7.818999767303467,26.631000518798828 7.992000102996826,30.486000061035156 C8.57800006866455,43.57500076293945 10.57800006866455,107.57599639892578 17.503000259399414,138.71400451660156 C17.656999588012695,139.406005859375 22.106000900268555,140.1649932861328 22.19300079345703,140.5780029296875 C22.19300079345703,140.5780029296875 15.993000030517578,31.827999114990234 15.53600025177002,2.3269999027252197 C15.079000473022461,-27.173999786376953 19.781999588012695,-72.09500122070312 5.429999828338623,-86.63500213623047 C-8.92199993133545,-101.17500305175781 -15.92199993133545,-89.17500305175781 -15.92199993133545,-89.17500305175781z"/></g><g opacity="0.3" transform="matrix(1,0,0,1,342.9219970703125,146.1750030517578)"><path fill="rgb(240,146,1)" fill-opacity="1" d=" M-15.92199993133545,-89.17500305175781 C-8.17199993133545,-88.42500305175781 -2.671999931335449,-83.92500305175781 -1.6720000505447388,-52.92499923706055 C-1.3459999561309814,-42.808998107910156 -0.41200000047683716,-8.368000030517578 0.27900001406669617,9.0600004196167 C0.41200000047683716,12.404000282287598 0.5529999732971191,15.821000099182129 0.7059999704360962,19.288000106811523 C0.871999979019165,23.05500030517578 1.069000005722046,26.881000518798828 1.2419999837875366,30.736000061035156 C1.8279999494552612,43.82500076293945 7.828000068664551,120.82599639892578 17.503000259399414,138.71400451660156 C17.84000015258789,139.33799743652344 22.106000900268555,140.1649932861328 22.19300079345703,140.5780029296875 C22.19300079345703,140.5780029296875 15.993000030517578,31.827999114990234 15.53600025177002,2.3269999027252197 C15.079000473022461,-27.173999786376953 19.781999588012695,-72.09500122070312 5.429999828338623,-86.63500213623047 C-8.92199993133545,-101.17500305175781 -15.92199993133545,-89.17500305175781 -15.92199993133545,-89.17500305175781z"/></g><g opacity="0.1" transform="matrix(1,0,0,1,342.9219970703125,146.1750030517578)"><path fill="rgb(240,146,1)" fill-opacity="1" d=" M-15.92199993133545,-89.17500305175781 C-7.671999931335449,-88.17500305175781 -7.671999931335449,-75.42500305175781 -7.421999931335449,-52.67499923706055 C-7.310999870300293,-42.55500030517578 -6.1620001792907715,-8.118000030517578 -5.4710001945495605,9.3100004196167 C-5.3379998207092285,12.654000282287598 -5.197000026702881,16.070999145507812 -5.044000148773193,19.538000106811523 C-4.877999782562256,23.30500030517578 -4.76800012588501,27.135000228881836 -4.507999897003174,30.986000061035156 C-0.921999990940094,84.07499694824219 9.32800006866455,128.3260040283203 17.503000259399414,138.71400451660156 C17.941999435424805,139.27099609375 22.106000900268555,140.1649932861328 22.19300079345703,140.5780029296875 C22.19300079345703,140.5780029296875 15.993000030517578,31.827999114990234 15.53600025177002,2.3269999027252197 C15.079000473022461,-27.173999786376953 19.781999588012695,-72.09500122070312 5.429999828338623,-86.63500213623047 C-8.92199993133545,-101.17500305175781 -15.92199993133545,-89.17500305175781 -15.92199993133545,-89.17500305175781z"/></g></g><g style="display: block;" transform="matrix(1,0,0,1,-53,-4.5)" opacity="1"><g opacity="1" transform="matrix(1,0,0,1,333,153)"><path stroke-linecap="round" stroke-linejoin="round" fill-opacity="0" stroke="rgb(225,124,0)" stroke-opacity="1" stroke-width="8" d=" M29.125,121.25 C28.5,110.75 25.893999099731445,25.75200080871582 25.339000701904297,-12.053999900817871 C25.0939998626709,-28.73900032043457 25,-42.6510009765625 25,-50 C25,-74 24.079999923706055,-100 -1,-100 C-27,-100 -26.152000427246094,-72.98699951171875 -27,-45 C-27.299999237060547,-35.09000015258789 -27.69099998474121,-21.753000259399414 -28.09000015258789,-7.940999984741211 C-29.020999908447266,24.239999771118164 -30,59 -30,59"/></g></g><g style="display: block;" transform="matrix(1,0,0,1,218.65399169921875,353.79901123046875)" opacity="1"><g opacity="1" transform="matrix(1,0,0,1,0,0)"><path fill="rgb(255,215,93)" fill-opacity="1" d=" M57.935001373291016,-37.17100143432617 C39.09600067138672,-26.54800033569336 15.095999717712402,-1.0479999780654907 0.020999999716877937,18.538000106811523 C-7.730999946594238,28.611000061035156 -9.154000282287598,-8.548999786376953 21.562000274658203,-38.8120002746582 C23.388999938964844,-40.61199951171875 25.333999633789062,-42.12699890136719 27.343000411987305,-43.38600158691406 C46.257999420166016,-55.2400016784668 70.92900085449219,-44.49800109863281 57.935001373291016,-37.17100143432617z"/><path fill="rgb(240,146,1)" fill-opacity="0" d=" M57.935001373291016,-37.17100143432617 C39.09600067138672,-26.54800033569336 15.095999717712402,-1.0479999780654907 0.020999999716877937,18.538000106811523 C-7.730999946594238,28.611000061035156 -9.154000282287598,-8.548999786376953 21.562000274658203,-38.8120002746582 C23.388999938964844,-40.61199951171875 25.333999633789062,-42.12699890136719 27.343000411987305,-43.38600158691406 C46.257999420166016,-55.2400016784668 70.92900085449219,-44.49800109863281 57.935001373291016,-37.17100143432617z"/></g><g opacity="1" transform="matrix(1.0199999809265137,0,0,1.0460000038146973,-0.495880126953125,0.6830539703369141)"><path fill="rgb(255,215,93)" fill-opacity="1" d=" M57.935001373291016,-37.17100143432617 C39.09600067138672,-26.54800033569336 15.095999717712402,-1.0479999780654907 0.020999999716877937,18.538000106811523 C-7.730999946594238,28.611000061035156 -9.154000282287598,-8.548999786376953 21.562000274658203,-38.8120002746582 C40.590999603271484,-57.56100082397461 72.30899810791016,-45.2760009765625 57.935001373291016,-37.17100143432617z"/><path fill="rgb(240,146,1)" fill-opacity="0" d=" M57.935001373291016,-37.17100143432617 C39.09600067138672,-26.54800033569336 15.095999717712402,-1.0479999780654907 0.020999999716877937,18.538000106811523 C-7.730999946594238,28.611000061035156 -9.154000282287598,-8.548999786376953 21.562000274658203,-38.8120002746582 C40.590999603271484,-57.56100082397461 72.30899810791016,-45.2760009765625 57.935001373291016,-37.17100143432617z"/></g></g><g style="display: block;" transform="matrix(1,0,0,1,95.6240005493164,189.1719970703125)" opacity="1"><g opacity="1" transform="matrix(1,0,0,1,0,0)"><path fill="rgb(252,206,44)" fill-opacity="1" d=" M-16.610000610351562,73.9010009765625 C-17.624000549316406,49.077999114990234 -26.990999221801758,2.132999897003174 -32.167999267578125,-21.302000045776367 C-37.345001220703125,-44.73699951171875 -42.275001525878906,-72.21900177001953 -17.78499984741211,-77.62899780273438 C7.603000164031982,-83.23799896240234 10.553999900817871,-54.45199966430664 17.41900062561035,-27.30699920654297 C25.513999938964844,4.701000213623047 39.400001525878906,64.98300170898438 39.400001525878906,64.98300170898438 C39.400001525878906,64.98300170898438 25.375999450683594,64.0780029296875 8.684000015258789,66.95500183105469 C-6.603000164031982,69.58999633789062 -16.549999237060547,74.34300231933594 -16.549999237060547,74.34300231933594"/></g></g><g style="display: block;" transform="matrix(1,0,0,1,91.04299926757812,161.81500244140625)" opacity="1"><g opacity="1" transform="matrix(1,0,0,1,0,0)"><path fill="rgb(255,215,93)" fill-opacity="1" d=" M-30.10700035095215,-12.22599983215332 C-30.10700035095215,-12.22599983215332 -33.33700180053711,-29.268999099731445 -12.746000289916992,-35.74700164794922 C11.734000205993652,-43.44900131225586 14.576000213623047,19.062999725341797 32.393001556396484,50.34400177001953 C32.393001556396484,50.34400177001953 22.274999618530273,2.11899995803833 19.336999893188477,-13.069999694824219 C16.398000717163086,-28.257999420166016 8.904999732971191,-54.48500061035156 -15.194999694824219,-49.78799819946289 C-33.84400177001953,-46.15299987792969 -34.59199905395508,-26.575000762939453 -30.10700035095215,-12.22599983215332"/></g></g><g style="display: block;" transform="matrix(1,0,0,1,198.39700317382812,356.2340087890625)" opacity="1"><g opacity="0.5" transform="matrix(1,0,0,1,1.5,0.75)"><path fill="rgb(240,146,1)" fill-opacity="1" d=" M248.968994140625,-85.48200225830078 C253.85299682617188,-83.10900115966797 264.9779968261719,-60.35900115966797 237.30599975585938,-52.23699951171875 C224.69000244140625,-48.534000396728516 187.24099731445312,-31.437000274658203 166.41600036621094,-8.005999565124512 C137.82699584960938,24.15999984741211 115.54100036621094,63.51599884033203 75.76300048828125,83.84600067138672 C75.74099731445312,83.86399841308594 75.72000122070312,83.87100219726562 75.697998046875,83.88899993896484 C60.0629997253418,94.01499938964844 37.66600036621094,100.5250015258789 8.486000061035156,100.65499877929688 C-58.124000549316406,100.95500183105469 -94.68599700927734,75.76000213623047 -110,33.48899841308594 C-118.89399719238281,8.939000129699707 -125.8759994506836,-54.569000244140625 -121.59400177001953,-101.07499694824219 C-122.0009994506836,-114.2969970703125 -137.69700622558594,-202.41799926757812 -139.10699462890625,-208.8070068359375 C-140.75,-216.25 -140.5,-242.5 -119.47799682617188,-243.14599609375 C-128.25,-242.5 -133.72799682617188,-221.5 -130.61599731445312,-205.8719940185547 C-129.2760009765625,-199.1439971923828 -125.80899810791016,-183.1219940185547 -123.50700378417969,-172.35299682617188 C-122.63999938964844,-168.2969970703125 -121.93800354003906,-164.98599243164062 -121.5770034790039,-163.197998046875 C-116.3030014038086,-137.06500244140625 -110.89600372314453,-109.98400115966797 -111.20999908447266,-99.54499816894531 C-111.4000015258789,-93.2300033569336 -111.43800354003906,-57.9739990234375 -111.43800354003906,-57.9739990234375 C-110.9010009765625,-36.513999938964844 -109.81900024414062,-12.34000015258789 -103.53199768066406,6.790999889373779 C-91.78900146484375,42.52799987792969 -70.71499633789062,80.2770004272461 -8.57699966430664,83.5530014038086 C38.17300033569336,86.01799774169922 66.28099822998047,71.91400146484375 90.86699676513672,53.86800003051758 C134.60299682617188,21.766000747680664 133.677001953125,6.229000091552734 159.72900390625,-17.974000930786133 C203.60299682617188,-58.73400115966797 261.8529968261719,-51.23400115966797 248.968994140625,-85.48200225830078z"/></g><g opacity="0.3" transform="matrix(1,0,0,1,1.5,0.75)"><path fill="rgb(240,146,1)" fill-opacity="1" d=" M249.11900329589844,-85.58000183105469 C253.60400390625,-82.73400115966797 265.4779968261719,-60.48400115966797 237.30599975585938,-52.23699951171875 C224.9550018310547,-48.62200164794922 187.28199768066406,-31.354000091552734 166.3040008544922,-7.763999938964844 C137.74200439453125,24.354999542236328 115.60399627685547,63.51599884033203 75.76300048828125,83.84600067138672 C75.74099731445312,83.86399841308594 75.72000122070312,83.87100219726562 75.697998046875,83.88899993896484 C60.0629997253418,94.01499938964844 37.66600036621094,100.5250015258789 8.486000061035156,100.65499877929688 C-58.124000549316406,100.95500183105469 -94.68599700927734,75.75900268554688 -110,33.48899841308594 C-118.89399719238281,8.939000129699707 -125.8759994506836,-54.569000244140625 -121.59400177001953,-101.07499694824219 C-122.95999908447266,-108.68000030517578 -136.71600341796875,-195.0919952392578 -138.85800170898438,-208.79600524902344 C-139.91400146484375,-215.5500030517578 -142.75,-244 -114.94999694824219,-244.12399291992188 C-129,-244 -129.6009979248047,-217.28900146484375 -127.01000213623047,-206.7469940185547 C-126.0469970703125,-202.8280029296875 -122.16300201416016,-185.0399932861328 -119.62899780273438,-173.23800659179688 C-118.62999725341797,-168.5850067138672 -117.83999633789062,-164.86300659179688 -117.52200317382812,-163.28700256347656 C-112.12999725341797,-136.5679931640625 -106.64600372314453,-108.73400115966797 -106.83699798583984,-98.83000183105469 C-106.94000244140625,-93.46700286865234 -106.93399810791016,-58.137001037597656 -106.93399810791016,-58.137001037597656 C-106.39700317382812,-36.676998138427734 -105.0459976196289,-13.758000373840332 -98.75900268554688,5.373000144958496 C-88.0770034790039,37.880001068115234 -69.81300354003906,65.88899993896484 -23.156999588012695,75.28900146484375 C-14.576000213623047,77.01799774169922 -13.04699993133545,74.52899932861328 -7.827000141143799,74.8030014038086 C-2.821000099182129,75.06600189208984 1.4199999570846558,77.19300079345703 5.923999786376953,77.18299865722656 C42.76300048828125,77.10299682617188 64.01000213623047,65.19100189208984 86.35099792480469,49.63600158691406 C121.35299682617188,25.266000747680664 126.8270034790039,3.5409998893737793 156.69200134277344,-21.881000518798828 C194.35400390625,-53.941001892089844 257.35400390625,-57.48400115966797 249.11900329589844,-85.58000183105469z"/></g><g opacity="0.25" transform="matrix(1,0,0,1,1.5,0.75)"><path fill="rgb(240,146,1)" fill-opacity="1" d=" M248.968994140625,-85.73200225830078 C252.97799682617188,-82.23400115966797 266.2279968261719,-62.48400115966797 237.30599975585938,-52.23699951171875 C225.9429931640625,-48.21099853515625 187.281005859375,-31.496000289916992 166.16400146484375,-7.790999889373779 C137.5399932861328,24.340999603271484 115.54100036621094,63.57899856567383 75.76300048828125,83.84600067138672 C75.74099731445312,83.86399841308594 75.72000122070312,83.87100219726562 75.697998046875,83.88899993896484 C60.0629997253418,94.01499938964844 37.66600036621094,100.5250015258789 8.486000061035156,100.65499877929688 C-58.124000549316406,100.95500183105469 -94.68599700927734,75.75900268554688 -110,33.48899841308594 C-118.89399719238281,8.939000129699707 -125.8759994506836,-54.569000244140625 -121.59400177001953,-101.07499694824219 C-125,-121.5 -137.08900451660156,-196.55499267578125 -138.95700073242188,-209.02999877929688 C-140.75,-221 -140.25,-245 -115.00199890136719,-243.88800048828125 C-125.25,-241.75 -125.75,-222.25 -122.73300170898438,-207.8090057373047 C-121.00499725341797,-199.53900146484375 -117.91699981689453,-184.66700744628906 -115.7959976196289,-174.30599975585938 C-114.85099792480469,-169.6909942626953 -114.0979995727539,-165.9709930419922 -113.74199676513672,-164.1280059814453 C-108.71399688720703,-138.0760040283203 -102.64700317382812,-110.73400115966797 -102.61100006103516,-97.4000015258789 C-102.58999633789062,-89.47000122070312 -102.69400024414062,-57.55500030517578 -102.69400024414062,-57.55500030517578 C-102.15699768066406,-36.095001220703125 -100.53199768066406,-15.6899995803833 -94.24500274658203,3.440999984741211 C-83.89700317382812,34.93299865722656 -64.93299865722656,56.89500045776367 -24.67799949645996,67.28900146484375 C-15.076000213623047,69.76799774169922 -14.069000244140625,65.1259994506836 -7.827000141143799,65.5530014038086 C-1.1660000085830688,66.00900268554688 1.4249999523162842,69.31700134277344 14.920999526977539,69.6760025024414 C37.104000091552734,70.26599884033203 63.17399978637695,58.334999084472656 83.58200073242188,44.14699935913086 C116.85299682617188,21.016000747680664 123.04199981689453,-0.9100000262260437 153.75799560546875,-25.639999389648438 C196.10400390625,-59.73400115966797 248.85299682617188,-59.23400115966797 248.968994140625,-85.73200225830078z"/></g><g opacity="0.15" transform="matrix(1,0,0,1,1.5,0.75)"><path fill="rgb(240,146,1)" fill-opacity="1" d=" M249.218994140625,-85.60700225830078 C253.47799682617188,-81.60900115966797 265.7279968261719,-61.60900115966797 237.30599975585938,-52.23699951171875 C227.69700622558594,-49.069000244140625 187.99000549316406,-32.24300003051758 166.17999267578125,-7.867000102996826 C137.5570068359375,24.124000549316406 115.60399627685547,63.51599884033203 75.76300048828125,83.84600067138672 C75.74099731445312,83.86399841308594 75.72000122070312,83.87100219726562 75.697998046875,83.88899993896484 C60.0629997253418,94.01499938964844 37.66600036621094,100.5250015258789 8.486000061035156,100.65499877929688 C-58.124000549316406,100.95500183105469 -94.68599700927734,75.75900268554688 -110,33.48899841308594 C-118.89399719238281,8.939000129699707 -125.8759994506836,-54.569000244140625 -121.59400177001953,-101.07499694824219 C-125,-121.5 -137.08900451660156,-196.55499267578125 -138.95700073242188,-209.02999877929688 C-140.75,-221 -140.25,-245 -115.00199890136719,-243.88800048828125 C-125.25,-241.75 -121.25,-223.125 -118.23300170898438,-208.6840057373047 C-116.53800201416016,-200.57200622558594 -113.41899871826172,-185.93299865722656 -111.22899627685547,-175.57200622558594 C-110.19200134277344,-170.66600036621094 -109.36299896240234,-166.72000122070312 -108.99199676513672,-164.8780059814453 C-103.75299835205078,-138.8679962158203 -98.14700317382812,-112.23400115966797 -97.86100006103516,-96.6500015258789 C-97.70600128173828,-88.2229995727539 -97.19400024414062,-58.30500030517578 -97.19400024414062,-58.30500030517578 C-96.65699768066406,-36.845001220703125 -94.69499969482422,-17.5049991607666 -87.87000274658203,1.440999984741211 C-77.39600372314453,30.516000747680664 -61.02199935913086,48.51599884033203 -30.67799949645996,57.41400146484375 C-9.789999961853027,63.53900146484375 -14.319000244140625,50.625999450683594 -8.07699966430664,51.053001403808594 C-1.4160000085830688,51.50899887084961 -2.4010000228881836,61.37099838256836 21.04599952697754,61.30099868774414 C32.854000091552734,61.26599884033203 58.03200149536133,53.965999603271484 78.18499755859375,39.417999267578125 C110.60299682617188,16.016000747680664 120.21600341796875,-4.285999774932861 151.28700256347656,-28.87700080871582 C189.8979949951172,-59.43600082397461 240.10299682617188,-61.73400115966797 249.218994140625,-85.60700225830078z"/></g><g opacity="0" transform="matrix(1,0,0,1,0,0)"><path fill="rgb(240,146,1)" fill-opacity="1" d=" M-76.14700317382812,-153.23399353027344 C-77.50900268554688,-167.6719970703125 -122.64700317382812,-141.48399353027344 -120.64700317382812,-133.23399353027344 C-118.64700317382812,-124.98400115966797 -114.39700317382812,-113.48400115966797 -100.14700317382812,-116.98400115966797 C-90.37200164794922,-119.38500213623047 -73.64700317382812,-126.73400115966797 -76.14700317382812,-153.23399353027344z"/></g><g opacity="0" transform="matrix(1,0,0,1,0,0)"><path fill="rgb(240,146,1)" fill-opacity="1" d=" M-76.14700317382812,-153.23399353027344 C-78.83799743652344,-167.48399353027344 -122.64700317382812,-141.48399353027344 -120.64700317382812,-133.23399353027344 C-118.64700317382812,-124.98400115966797 -113.3759994506836,-109.72000122070312 -99.33999633789062,-113.9990005493164 C-87.65699768066406,-117.56099700927734 -70.79299926757812,-124.88200378417969 -76.14700317382812,-153.23399353027344z"/></g></g><g style="display: block;" transform="matrix(1,0,0,1,-54,-15.5)" opacity="1"><g opacity="0.5" transform="matrix(1,0,0,1,235.25,284)"><path fill="rgb(240,146,1)" fill-opacity="1" d=" M-60.03300094604492,-64.85700225830078 C-52.75600051879883,-22.767000198364258 -37.67399978637695,-7.743000030517578 -33.85300064086914,-6.058000087738037 C-28.433000564575195,-3.6670000553131104 65.03299713134766,-10.918999671936035 65.1259994506836,-3.99399995803833 C65.49400329589844,23.482999801635742 53.73699951171875,43.262001037597656 32.3129997253418,43.999000549316406 C18.243999481201172,44.483001708984375 9.244000434875488,36.983001708984375 5.86299991607666,29.2810001373291 C1.74399995803833,38.233001708984375 -7.50600004196167,45.233001708984375 -24.55299949645996,44.35300064086914 C-39.74800109863281,43.569000244140625 -47.47999954223633,28.860000610351562 -51.45199966430664,16.81399917602539 C-57.499000549316406,-1.5260000228881836 -59.191001892089844,-35.68600082397461 -62.1150016784668,-69.31700134277344"/></g><g opacity="0.3" transform="matrix(1,0,0,1,235.25,284)"><path fill="rgb(240,146,1)" fill-opacity="1" d=" M-60.03300094604492,-64.85700225830078 C-52.75600051879883,-22.767000198364258 -37.67399978637695,-7.743000030517578 -33.85300064086914,-6.058000087738037 C-28.433000564575195,-3.6670000553131104 65.03299713134766,-10.918999671936035 65.1259994506836,-3.99399995803833 C65.49400329589844,23.482999801635742 52.23699951171875,45.512001037597656 30.812999725341797,46.249000549316406 C16.743999481201172,46.733001708984375 8.994000434875488,39.233001708984375 5.61299991607666,31.5310001373291 C1.49399995803833,40.483001708984375 -9.005999565124512,47.483001708984375 -26.05299949645996,46.60300064086914 C-41.24800109863281,45.819000244140625 -48.97999954223633,31.110000610351562 -52.95199966430664,19.06399917602539 C-58.999000549316406,0.7239999771118164 -59.191001892089844,-35.68600082397461 -62.1150016784668,-69.31700134277344"/></g></g><g style="display: block;" transform="matrix(1,0,0,1,193.6219940185547,330.64599609375)" opacity="1"><g opacity="1" transform="matrix(1,0,0,1,0,0)"><path stroke-linecap="round" stroke-linejoin="round" fill-opacity="0" stroke="rgb(225,124,0)" stroke-opacity="1" stroke-width="8" d=" M47.66299819946289,122.22699737548828 C37.87300109863281,124.81099700927734 26.527999877929688,126.18499755859375 13.26200008392334,126.24500274658203 C-53.354000091552734,126.5469970703125 -87.02400207519531,101.43699645996094 -104.11799621582031,59.856998443603516 C-115.48300170898438,32.2140007019043 -117.37200164794922,-20.645999908447266 -115.4800033569336,-65.24199676513672"/></g></g><g style="display: block;" transform="matrix(1,0,0,1,-53,-4.5)" opacity="1"><g opacity="1" transform="matrix(1,0,0,1,276.00299072265625,235.11900329589844)"><path fill="rgb(252,206,44)" fill-opacity="1" d=" M28.996999740600586,-23.118999481201172 C27.302000045776367,-40.06399917602539 18.993000030517578,-56.2140007019043 -4.002999782562256,-55.11899948120117 C-25.003000259399414,-54.11899948120117 -32.17300033569336,-37.724998474121094 -30.58799934387207,-17.422000885009766 C-29.003000259399414,2.88100004196167 -39.887001037597656,66.2750015258789 -1.4450000524520874,69.0780029296875 C36.99700164794922,71.88099670410156 30.996999740600586,-3.11899995803833 28.996999740600586,-23.118999481201172z"/><path fill="rgb(255,215,93)" fill-opacity="0" d=" M28.996999740600586,-23.118999481201172 C27.302000045776367,-40.06399917602539 18.993000030517578,-56.2140007019043 -4.002999782562256,-55.11899948120117 C-25.003000259399414,-54.11899948120117 -32.17300033569336,-37.724998474121094 -30.58799934387207,-17.422000885009766 C-29.003000259399414,2.88100004196167 -39.887001037597656,66.2750015258789 -1.4450000524520874,69.0780029296875 C36.99700164794922,71.88099670410156 30.996999740600586,-3.11899995803833 28.996999740600586,-23.118999481201172z"/></g><g opacity="0.6" transform="matrix(1,0,0,1,276.7539978027344,258.7919921875)"><path fill="rgb(240,146,1)" fill-opacity="1" d=" M-27.299999237060547,-21.70800018310547 C-27.253999710083008,-13.291999816894531 -25.253999710083008,11.708000183105469 -1.253999948501587,11.708000183105469 C25.763999938964844,11.708000183105469 27.275999069213867,-12.12399959564209 27.01099967956543,-21.70800018310547 C27.01099967956543,-21.70800018310547 36.24599838256836,48.20800018310547 -1.753999948501587,45.20800018310547 C-40.632999420166016,42.138999938964844 -27.299999237060547,-21.70800018310547 -27.299999237060547,-21.70800018310547z"/></g><g opacity="1" transform="matrix(1,0,0,1,276,205.47500610351562)"><path fill="rgb(255,215,93)" fill-opacity="1" d=" M-28.618999481201172,25.538000106811523 C-28.618999481201172,25.538000106811523 -27.013999938964844,-10.640000343322754 -5,-12.475000381469727 C19,-14.475000381469727 26.520999908447266,12.550000190734863 28.76099967956543,25.538000106811523 C28.76099967956543,25.538000106811523 40,-24.475000381469727 -4,-25.475000381469727 C-4,-25.475000381469727 -37.237998962402344,-29.450000762939453 -28.618999481201172,25.538000106811523z"/></g><g opacity="1" transform="matrix(1,0,0,1,276.00299072265625,235.11900329589844)"><path stroke-linecap="butt" stroke-linejoin="miter" fill-opacity="0" stroke-miterlimit="10" stroke="rgb(225,124,0)" stroke-opacity="1" stroke-width="8" d=" M28.996999740600586,-23.118999481201172 C27.302000045776367,-40.06399917602539 18.993000030517578,-56.2140007019043 -4.002999782562256,-55.11899948120117 C-15.567999839782715,-54.56800079345703 -22.937999725341797,-49.3489990234375 -26.961999893188477,-41.37900161743164 C-30.2450008392334,-34.87699890136719 -31.299999237060547,-26.54400062561035 -30.58799934387207,-17.422000885009766 C-29.003000259399414,2.88100004196167 -39.887001037597656,66.2750015258789 -1.4450000524520874,69.0780029296875 C36.99700164794922,71.88099670410156 30.996999740600586,-3.11899995803833 28.996999740600586,-23.118999481201172z"/></g><g opacity="1" transform="matrix(1,0,0,1,218.57200622558594,270.83599853515625)"><path stroke-linecap="round" stroke-linejoin="round" fill-opacity="0" stroke="rgb(225,124,0)" stroke-opacity="1" stroke-width="8" d=" M53.0099983215332,0.9319999814033508 C53.0099983215332,0.9319999814033508 58.375,2.3459999561309814 63.7400016784668,0.5410000085830688"/></g></g><g style="display: block;" transform="matrix(1,0,0,1,-52.936004638671875,-4.069000244140625)" opacity="1"><g opacity="1" transform="matrix(1,0,0,1,216.58399963378906,240.0030059814453)"><path fill="rgb(252,206,44)" fill-opacity="1" d=" M-5.380000114440918,-51.91299819946289 C-25.64900016784668,-49.67300033569336 -34.15399932861328,-31.5310001373291 -30.64699935913086,6.11299991607666 C-27.36199951171875,41.374000549316406 -16.898000717163086,62.56700134277344 3.240000009536743,62.15800094604492 C27.100000381469727,61.67399978637695 31.31599998474121,39.24399948120117 31.415000915527344,6.192999839782715 C31.5049991607666,-24.01099967956543 24.740999221801758,-55.242000579833984 -5.380000114440918,-51.91299819946289z"/><path fill="rgb(255,215,93)" fill-opacity="0" d=" M-5.380000114440918,-51.91299819946289 C-25.64900016784668,-49.67300033569336 -34.15399932861328,-31.5310001373291 -30.64699935913086,6.11299991607666 C-27.36199951171875,41.374000549316406 -16.898000717163086,62.56700134277344 3.240000009536743,62.15800094604492 C27.100000381469727,61.67399978637695 31.31599998474121,39.24399948120117 31.415000915527344,6.192999839782715 C31.5049991607666,-24.01099967956543 24.740999221801758,-55.242000579833984 -5.380000114440918,-51.91299819946289z"/></g><g opacity="0.6" transform="matrix(1,0,0,1,216.38699340820312,261.58599853515625)"><path fill="rgb(240,146,1)" fill-opacity="1" d=" M28.417999267578125,-16.322999954223633 C30.548999786376953,20.733999252319336 27.54400062561035,40.07600021362305 3.434999942779541,40.573001861572266 C-16.451000213623047,40.983001708984375 -31.22100067138672,11.878999710083008 -29.454999923706055,-23.409000396728516 C-26.915000915527344,-18.999000549316406 -29.224000930786133,8.281999588012695 -0.42100000381469727,8.385000228881836 C27.048999786376953,8.482999801635742 28.417999267578125,-16.322999954223633 28.417999267578125,-16.322999954223633z"/></g><g opacity="1" transform="matrix(1,0,0,1,216.5850067138672,221.61099243164062)"><path fill="rgb(255,215,93)" fill-opacity="1" d=" M31.417999267578125,24.586999893188477 C31.417999267578125,24.586999893188477 24.51799964904785,-19.55299949645996 -1.0720000267028809,-19.593000411987305 C-26.66200065612793,-19.632999420166016 -29.031999588012695,17.906999588012695 -29.461999893188477,33.73699951171875 C-29.461999893188477,33.73699951171875 -29.461999893188477,33.766998291015625 -29.461999893188477,33.766998291015625 C-29.941999435424805,30.886999130249023 -30.341999053955078,27.80699920654297 -30.652000427246094,24.506999969482422 C-34.152000427246094,-13.142999649047852 -25.652000427246094,-31.283000946044922 -5.381999969482422,-33.52299880981445 C24.738000869750977,-36.85300064086914 31.507999420166016,-5.623000144958496 31.417999267578125,24.586999893188477z"/></g><g opacity="1" transform="matrix(1,0,0,1,216.08399963378906,240.0030059814453)"><path stroke-linecap="butt" stroke-linejoin="miter" fill-opacity="0" stroke-miterlimit="10" stroke="rgb(225,124,0)" stroke-opacity="1" stroke-width="8" d=" M-4.880000114440918,-51.91299819946289 C-12.32699966430664,-51.09000015258789 -18.18600082397461,-48.119998931884766 -22.44499969482422,-42.82500076293945 C-29.777999877929688,-33.70899963378906 -32.36600112915039,-17.700000762939453 -30.14699935913086,6.11299991607666 C-26.86199951171875,41.374000549316406 -16.648000717163086,62.56700134277344 3.740000009536743,62.15800094604492 C27.847999572753906,61.67499923706055 30.81599998474121,39.24399948120117 30.915000915527344,6.192999839782715 C30.969999313354492,-12.07699966430664 28.881999969482422,-30.724000930786133 20.55699920654297,-41.86899948120117 C15.119000434875488,-49.14899826049805 7.020999908447266,-53.22800064086914 -4.880000114440918,-51.91299819946289z"/></g><g opacity="1" transform="matrix(1,0,0,1,218.57200622558594,270.83599853515625)"><path stroke-linecap="round" stroke-linejoin="round" fill-opacity="0" stroke="rgb(225,124,0)" stroke-opacity="1" stroke-width="8" d=" M-6.239999771118164,0.5569999814033508 C-6.239999771118164,0.5569999814033508 -0.875,1.9709999561309814 4.489999771118164,0.16599999368190765"/></g></g><g style="display: block;" transform="matrix(0.7156927585601807,0.6984152793884277,-0.6984152793884277,0.7156927585601807,303.76715087890625,-136.5806884765625)" opacity="1"><g opacity="0" transform="matrix(1,0,0,1,288.6400146484375,353.34100341796875)"><path fill="rgb(252,206,44)" fill-opacity="1" d=" M98.36199951171875,-16.889999389648438 C98.23699951171875,-18.013999938964844 98.11399841308594,-19.124000549316406 97.99400329589844,-20.22100067138672 C95.18800354003906,-45.92900085449219 95.14800262451172,-58.37200164794922 96.87200164794922,-70.38300323486328 C98.38500213623047,-80.91899871826172 102.58000183105469,-97.9540023803711 106.71399688720703,-107.99600219726562 C114.46199798583984,-126.81800079345703 126.51899719238281,-143.96400451660156 114.62799835205078,-155.70899963378906 C103.625,-166.57699584960938 80.0530014038086,-165.1649932861328 59.72700119018555,-135.58700561523438 C48.16999816894531,-118.7699966430664 49.48699951171875,-101.28099822998047 47.625999450683594,-91.2750015258789 C44.01300048828125,-71.84500122070312 33.20000076293945,-52.50899887084961 13.581999778747559,-57.641998291015625"/></g><g opacity="0" transform="matrix(1,0,0,1,289.2590026855469,332.40399169921875)"><path fill="rgb(255,215,93)" fill-opacity="0" d=" M96.06400299072266,83.02300262451172 C97.38200378417969,51.516998291015625 85.68000030517578,34.83599853515625 83.00800323486328,12.378000259399414 C80.0780029296875,-12.251999855041504 83.74700164794922,-33.332000732421875 86.6510009765625,-51.08700180053711 C89.99500274658203,-71.53299713134766 100.73300170898438,-96.68199920654297 108.7959976196289,-112.8010025024414 C118.84200286865234,-132.88499450683594 101.61100006103516,-139.51699829101562 100.90399932861328,-139.49400329589844 C106.9209976196289,-140.0970001220703 111.5,-138.62600708007812 116.3239974975586,-130.66200256347656 C122.6510009765625,-120.21800231933594 112.44499969482422,-104.11900329589844 105.29000091552734,-86.46199798583984 C98.13500213623047,-68.80500030517578 97.39600372314453,-61.064998626708984 96.07599639892578,-49.67499923706055 C95.48600006103516,-44.584999084472656 92.375,-21.569000244140625 96.14700317382812,3.0929999351501465 C98.8479995727539,20.750999450683594 102.69300079345703,54.49100112915039 96.06400299072266,83.02300262451172z"/><path fill="rgb(240,146,1)" fill-opacity="0.6" d=" M96.06400299072266,83.02300262451172 C97.38200378417969,51.516998291015625 85.68000030517578,34.83599853515625 83.00800323486328,12.378000259399414 C80.0780029296875,-12.251999855041504 83.74700164794922,-33.332000732421875 86.6510009765625,-51.08700180053711 C89.99500274658203,-71.53299713134766 100.73300170898438,-96.68199920654297 108.7959976196289,-112.8010025024414 C118.84200286865234,-132.88499450683594 101.61100006103516,-139.51699829101562 100.90399932861328,-139.49400329589844 C106.9209976196289,-140.0970001220703 111.5,-138.62600708007812 116.3239974975586,-130.66200256347656 C122.6510009765625,-120.21800231933594 112.44499969482422,-104.11900329589844 105.29000091552734,-86.46199798583984 C98.13500213623047,-68.80500030517578 97.39600372314453,-61.064998626708984 96.07599639892578,-49.67499923706055 C95.48600006103516,-44.584999084472656 92.375,-21.569000244140625 96.14700317382812,3.0929999351501465 C98.8479995727539,20.750999450683594 102.69300079345703,54.49100112915039 96.06400299072266,83.02300262451172z"/></g><g opacity="1" transform="matrix(1,0,0,1,249.77699279785156,308.60198974609375)"><path fill="rgb(240,146,1)" fill-opacity="0" d=" M155.3509979248047,-106.51799774169922 C136.08599853515625,-111.11699676513672 122.1050033569336,-97.98899841308594 115.31099700927734,-90.08599853515625 C102.58799743652344,-75.28500366210938 93.74199676513672,-51.619998931884766 91.49800109863281,-27.075000762939453 C88.51799774169922,5.513000011444092 55.3129997253418,2.984999895095825 40.76499938964844,-17.531999588012695 C40.76499938964844,-17.531999588012695 75.08499908447266,5.348999977111816 86.60600280761719,-46.387001037597656 C88.94499969482422,-56.891998291015625 83.38700103759766,-71.32499694824219 99.80699920654297,-91.86900329589844 C129.94700622558594,-129.57899475097656 150.2790069580078,-115.18699645996094 155.3509979248047,-106.51799774169922z"/><path fill="rgb(255,215,93)" fill-opacity="1" d=" M155.3509979248047,-106.51799774169922 C136.08599853515625,-111.11699676513672 122.1050033569336,-97.98899841308594 115.31099700927734,-90.08599853515625 C102.58799743652344,-75.28500366210938 93.74199676513672,-51.619998931884766 91.49800109863281,-27.075000762939453 C88.51799774169922,5.513000011444092 55.3129997253418,2.984999895095825 40.76499938964844,-17.531999588012695 C40.76499938964844,-17.531999588012695 75.08499908447266,5.348999977111816 86.60600280761719,-46.387001037597656 C88.94499969482422,-56.891998291015625 83.38700103759766,-71.32499694824219 99.80699920654297,-91.86900329589844 C129.94700622558594,-129.57899475097656 150.2790069580078,-115.18699645996094 155.3509979248047,-106.51799774169922z"/></g><g opacity="1" transform="matrix(1,0,0,1,249.77699279785156,308.60198974609375)"><path fill="rgb(240,146,1)" fill-opacity="0" d=" M155.3509979248047,-106.51799774169922 C136.08599853515625,-111.11699676513672 122.1050033569336,-97.98899841308594 115.31099700927734,-90.08599853515625 C102.58799743652344,-75.28500366210938 93.74199676513672,-51.619998931884766 91.49800109863281,-27.075000762939453 C88.51799774169922,5.513000011444092 55.3129997253418,2.984999895095825 40.76499938964844,-17.531999588012695 C40.76499938964844,-17.531999588012695 75.08499908447266,5.348999977111816 86.60600280761719,-46.387001037597656 C88.94499969482422,-56.891998291015625 83.38700103759766,-71.32499694824219 99.80699920654297,-91.86900329589844 C129.94700622558594,-129.57899475097656 150.2790069580078,-115.18699645996094 155.3509979248047,-106.51799774169922z"/><path fill="rgb(255,215,93)" fill-opacity="1" d=" M155.3509979248047,-106.51799774169922 C136.08599853515625,-111.11699676513672 122.1050033569336,-97.98899841308594 115.31099700927734,-90.08599853515625 C102.58799743652344,-75.28500366210938 93.74199676513672,-51.619998931884766 91.49800109863281,-27.075000762939453 C88.51799774169922,5.513000011444092 55.3129997253418,2.984999895095825 40.76499938964844,-17.531999588012695 C40.76499938964844,-17.531999588012695 75.08499908447266,5.348999977111816 86.60600280761719,-46.387001037597656 C88.94499969482422,-56.891998291015625 83.38700103759766,-71.32499694824219 99.80699920654297,-91.86900329589844 C129.94700622558594,-129.57899475097656 150.2790069580078,-115.18699645996094 155.3509979248047,-106.51799774169922z"/></g><g opacity="1" transform="matrix(1,0,0,1,249.77699279785156,308.60198974609375)"><path fill="rgb(240,146,1)" fill-opacity="0" d=" M155.3509979248047,-106.51799774169922 C136.08599853515625,-111.11699676513672 122.1050033569336,-97.98899841308594 115.31099700927734,-90.08599853515625 C102.58799743652344,-75.28500366210938 93.74199676513672,-51.619998931884766 91.49800109863281,-27.075000762939453 C88.51799774169922,5.513000011444092 55.3129997253418,2.984999895095825 40.76499938964844,-17.531999588012695 C40.76499938964844,-17.531999588012695 75.08499908447266,5.348999977111816 86.60600280761719,-46.387001037597656 C88.94499969482422,-56.891998291015625 83.38700103759766,-71.32499694824219 99.80699920654297,-91.86900329589844 C129.94700622558594,-129.57899475097656 150.2790069580078,-115.18699645996094 155.3509979248047,-106.51799774169922z"/><path fill="rgb(255,215,93)" fill-opacity="1" d=" M155.3509979248047,-106.51799774169922 C136.08599853515625,-111.11699676513672 122.1050033569336,-97.98899841308594 115.31099700927734,-90.08599853515625 C102.58799743652344,-75.28500366210938 93.74199676513672,-51.619998931884766 91.49800109863281,-27.075000762939453 C88.51799774169922,5.513000011444092 55.3129997253418,2.984999895095825 40.76499938964844,-17.531999588012695 C40.76499938964844,-17.531999588012695 75.08499908447266,5.348999977111816 86.60600280761719,-46.387001037597656 C88.94499969482422,-56.891998291015625 83.38700103759766,-71.32499694824219 99.80699920654297,-91.86900329589844 C129.94700622558594,-129.57899475097656 150.2790069580078,-115.18699645996094 155.3509979248047,-106.51799774169922z"/></g><g opacity="1" transform="matrix(1,0,0,1,288.6400146484375,353.34100341796875)"><path stroke-linecap="round" stroke-linejoin="round" fill-opacity="0" stroke="rgb(225,124,0)" stroke-opacity="1" stroke-width="8" d=" M74.83999633789062,117.32599639892578 C109.86499786376953,68.29199981689453 101.99700164794922,16.450000762939453 97.99400329589844,-20.22100067138672 C95.18800354003906,-45.92900085449219 95.14800262451172,-58.37200164794922 96.87200164794922,-70.38300323486328 C98.38500213623047,-80.91899871826172 102.58000183105469,-97.9540023803711 106.71399688720703,-107.99600219726562 C114.46199798583984,-126.81800079345703 126.51899719238281,-143.96400451660156 114.62799835205078,-155.70899963378906 C103.625,-166.57699584960938 80.0530014038086,-165.1649932861328 59.72700119018555,-135.58700561523438 C48.16999816894531,-118.7699966430664 49.48699951171875,-101.28099822998047 47.625999450683594,-91.2750015258789 C44.01300048828125,-71.84500122070312 28.52199935913086,-45.847999572753906 1.1160000562667847,-64.68900299072266"/></g></g><g style="display: block;" transform="matrix(1,0,0,1,97.23200225830078,187.81700134277344)" opacity="1"><g opacity="1" transform="matrix(1,0,0,1,0,0)"><path stroke-linecap="round" stroke-linejoin="round" fill-opacity="0" stroke="rgb(225,124,0)" stroke-opacity="1" stroke-width="8" d=" M-19.00200080871582,76.78199768066406 C-19.176000595092773,59.99300003051758 -21.94099998474121,40.65800094604492 -25.336000442504883,21.72599983215332 C-28.792999267578125,2.447999954223633 -32.902000427246094,-16.41200065612793 -35.59299850463867,-31.73900032043457 C-37.85100173950195,-44.60300064086914 -43.025001525878906,-70.25499725341797 -21.93400001525879,-75.83699798583984 C-3.4070000648498535,-80.73999786376953 7.861999988555908,-66.25599670410156 13.329000473022461,-39.53799819946289 C14.949999809265137,-31.61400032043457 22.211999893188477,1.5829999446868896 24.235000610351562,10.40999984741211 C28.33799934387207,28.312999725341797 30.857999801635742,35.86399841308594 35.83599853515625,56.67599868774414"/></g><g opacity="1" transform="matrix(1,0,0,1,0,0)"><path fill="rgb(255,223,121)" fill-opacity="1" d="M0 0"/><path stroke-linecap="round" stroke-linejoin="miter" fill-opacity="0" stroke-miterlimit="4" stroke="rgb(225,124,0)" stroke-opacity="1" stroke-width="8" d="M0 0"/></g></g></g></svg>