<svg xmlns="http://www.w3.org/2000/svg" xmlns:xlink="http://www.w3.org/1999/xlink" viewBox="0 0 512 512" width="512" height="512" style="width: 100%; height: 100%; transform: translate3d(0,0,0);" preserveAspectRatio="xMidYMid meet"><defs><clipPath id="__lottie_element_34296"><rect width="512" height="512" x="0" y="0"/></clipPath><linearGradient id="__lottie_element_34317" spreadMethod="pad" gradientUnits="userSpaceOnUse"><stop/><stop/><stop/><stop/><stop/></linearGradient><radialGradient id="__lottie_element_34321" spreadMethod="pad" gradientUnits="userSpaceOnUse"><stop/><stop/><stop/></radialGradient><radialGradient id="__lottie_element_34322" spreadMethod="pad" gradientUnits="userSpaceOnUse"><stop/><stop/><stop/></radialGradient><radialGradient id="__lottie_element_34326" spreadMethod="pad" gradientUnits="userSpaceOnUse"><stop/><stop/><stop/><stop/><stop/></radialGradient><mask id="__lottie_element_34328"><path fill="url(#__lottie_element_34327)"/></mask><radialGradient id="__lottie_element_34327" spreadMethod="pad" gradientUnits="userSpaceOnUse"><stop stop-color="rgb(255,255,255)"/><stop stop-color="rgb(255,255,255)"/><stop stop-color="rgb(255,255,255)"/><stop stop-color="rgb(255,255,255)"/><stop stop-color="rgb(255,255,255)"/></radialGradient><radialGradient id="__lottie_element_34329" spreadMethod="pad" gradientUnits="userSpaceOnUse"><stop/><stop/><stop/><stop/><stop/></radialGradient><mask id="__lottie_element_34331"><path fill="url(#__lottie_element_34330)"/></mask><radialGradient id="__lottie_element_34330" spreadMethod="pad" gradientUnits="userSpaceOnUse"><stop stop-color="rgb(255,255,255)"/><stop stop-color="rgb(255,255,255)"/><stop stop-color="rgb(255,255,255)"/><stop stop-color="rgb(255,255,255)"/><stop stop-color="rgb(255,255,255)"/></radialGradient><radialGradient id="__lottie_element_34335" spreadMethod="pad" gradientUnits="userSpaceOnUse"><stop/><stop/><stop/><stop/><stop/></radialGradient><radialGradient id="__lottie_element_34336" spreadMethod="pad" gradientUnits="userSpaceOnUse"><stop/><stop/><stop/><stop/><stop/></radialGradient><linearGradient id="__lottie_element_34355" spreadMethod="pad" gradientUnits="userSpaceOnUse" x1="-16.374000549316406" y1="-116.8010025024414" x2="13.383000373840332" y2="118.38800048828125"><stop offset="0%" stop-color="rgb(56,41,41)"/><stop offset="17%" stop-color="rgb(37,31,32)"/><stop offset="42%" stop-color="rgb(19,21,22)"/><stop offset="83%" stop-color="rgb(43,52,57)"/><stop offset="100%" stop-color="rgb(67,82,93)"/></linearGradient><radialGradient id="__lottie_element_34359" spreadMethod="pad" gradientUnits="userSpaceOnUse" cx="5.019000053405762" cy="-1.2940000295639038" r="8.169534888139967" fx="5.019000053405762" fy="-1.2940000295639038"><stop offset="0%" stop-color="rgb(255,255,255)" stop-opacity="1"/><stop offset="54%" stop-color="rgb(161,169,174)" stop-opacity="0.5"/><stop offset="100%" stop-color="rgb(67,82,93)" stop-opacity="0"/></radialGradient><radialGradient id="__lottie_element_34360" spreadMethod="pad" gradientUnits="userSpaceOnUse" cx="4.497000217437744" cy="-0.8690000176429749" r="8.169534870242966" fx="4.497000217437744" fy="-0.8690000176429749"><stop offset="0%" stop-color="rgb(255,255,255)" stop-opacity="1"/><stop offset="54%" stop-color="rgb(161,169,174)" stop-opacity="0.5"/><stop offset="100%" stop-color="rgb(67,82,93)" stop-opacity="0"/></radialGradient><radialGradient id="__lottie_element_34364" spreadMethod="pad" gradientUnits="userSpaceOnUse" cx="-24.656999588012695" cy="-1.6449999809265137" r="50.51983436676398" fx="-24.656999588012695" fy="-1.6449999809265137"><stop offset="0%" stop-color="rgb(235,235,235)"/><stop offset="9%" stop-color="rgb(196,200,201)"/><stop offset="19%" stop-color="rgb(157,165,168)"/><stop offset="45%" stop-color="rgb(112,123,131)"/><stop offset="69%" stop-color="rgb(67,82,93)"/></radialGradient><mask id="__lottie_element_34366"><path fill="url(#__lottie_element_34365)" d=" M36.314998626708984,-33.755001068115234 C36.459999084472656,-35.69499969482422 50.81100082397461,-40.62300109863281 51.19300079345703,-31.466999053955078 C52.25400161743164,-5.99399995803833 46.98899841308594,11.199000358581543 15.751999855041504,25.349000930786133 C-36.18299865722656,48.875 -50.354000091552734,30.299999237060547 -51.202999114990234,21.915000915527344 C-51.965999603271484,14.380999565124512 -49.55699920654297,-2.1600000858306885 -23.19700050354004,-11.628999710083008 C8.774999618530273,-23.11400032043457 35.17100143432617,-18.4950008392334 36.314998626708984,-33.755001068115234z"/></mask><radialGradient id="__lottie_element_34365" spreadMethod="pad" gradientUnits="userSpaceOnUse" cx="-24.656999588012695" cy="-1.6449999809265137" r="50.51983436676398" fx="-24.656999588012695" fy="-1.6449999809265137"><stop stop-color="rgb(255,255,255)" offset="0%" stop-opacity="1"/><stop stop-color="rgb(255,255,255)" offset="9%" stop-opacity="1"/><stop stop-color="rgb(255,255,255)" offset="19%" stop-opacity="1"/><stop stop-color="rgb(255,255,255)" offset="43%" stop-opacity="0.6000000238418579"/><stop stop-color="rgb(255,255,255)" offset="67%" stop-opacity="0.20000000298023224"/></radialGradient><radialGradient id="__lottie_element_34367" spreadMethod="pad" gradientUnits="userSpaceOnUse" cx="-23.804000854492188" cy="-8.013999938964844" r="70.55301305581479" fx="-23.804000854492188" fy="-8.013999938964844"><stop offset="0%" stop-color="rgb(235,235,235)"/><stop offset="6%" stop-color="rgb(196,200,202)"/><stop offset="13%" stop-color="rgb(157,165,168)"/><stop offset="36%" stop-color="rgb(112,123,131)"/><stop offset="59%" stop-color="rgb(67,82,93)"/></radialGradient><mask id="__lottie_element_34369"><path fill="url(#__lottie_element_34368)" d=" M36.314998626708984,-33.63100051879883 C36.459999084472656,-35.57099914550781 50.81100082397461,-40.49800109863281 51.19300079345703,-31.341999053955078 C52.25400161743164,-5.86899995803833 46.98899841308594,11.322999954223633 15.751999855041504,25.472999572753906 C-36.18299865722656,48.999000549316406 -50.354000091552734,29.56399917602539 -51.202999114990234,21.179000854492188 C-51.965999603271484,13.645000457763672 -49.55699920654297,-2.0360000133514404 -23.19700050354004,-11.505000114440918 C8.774999618530273,-22.989999771118164 35.17100143432617,-18.371000289916992 36.314998626708984,-33.63100051879883z"/></mask><radialGradient id="__lottie_element_34368" spreadMethod="pad" gradientUnits="userSpaceOnUse" cx="-23.804000854492188" cy="-8.013999938964844" r="70.55301305581479" fx="-23.804000854492188" fy="-8.013999938964844"><stop stop-color="rgb(255,255,255)" offset="0%" stop-opacity="1"/><stop stop-color="rgb(255,255,255)" offset="6%" stop-opacity="1"/><stop stop-color="rgb(255,255,255)" offset="12%" stop-opacity="1"/><stop stop-color="rgb(255,255,255)" offset="36%" stop-opacity="0.6000000238418579"/><stop stop-color="rgb(255,255,255)" offset="60%" stop-opacity="0.20000000298023224"/></radialGradient><radialGradient id="__lottie_element_34373" spreadMethod="pad" gradientUnits="userSpaceOnUse" cx="-0.13899999856948853" cy="10.458000183105469" r="67.0388000824284" fx="-0.13899999856948853" fy="10.458000183105469"><stop offset="0%" stop-color="rgb(19,21,22)"/><stop offset="64%" stop-color="rgb(37,31,32)"/><stop offset="77%" stop-color="rgb(56,41,41)"/><stop offset="86%" stop-color="rgb(61,61,67)"/><stop offset="100%" stop-color="rgb(67,82,93)"/></radialGradient><radialGradient id="__lottie_element_34374" spreadMethod="pad" gradientUnits="userSpaceOnUse" cx="-0.6600000262260437" cy="7.76200008392334" r="68.85023072078063" fx="-0.6600000262260437" fy="7.76200008392334"><stop offset="0%" stop-color="rgb(19,21,22)"/><stop offset="64%" stop-color="rgb(37,31,32)"/><stop offset="77%" stop-color="rgb(56,41,41)"/><stop offset="86%" stop-color="rgb(61,61,67)"/><stop offset="100%" stop-color="rgb(67,82,93)"/></radialGradient><linearGradient id="__lottie_element_34394" spreadMethod="pad" gradientUnits="userSpaceOnUse"><stop/><stop/><stop/><stop/><stop/></linearGradient><radialGradient id="__lottie_element_34398" spreadMethod="pad" gradientUnits="userSpaceOnUse"><stop/><stop/><stop/></radialGradient><radialGradient id="__lottie_element_34399" spreadMethod="pad" gradientUnits="userSpaceOnUse"><stop/><stop/><stop/></radialGradient><radialGradient id="__lottie_element_34403" spreadMethod="pad" gradientUnits="userSpaceOnUse"><stop/><stop/><stop/><stop/><stop/></radialGradient><mask id="__lottie_element_34405"><path fill="url(#__lottie_element_34404)"/></mask><radialGradient id="__lottie_element_34404" spreadMethod="pad" gradientUnits="userSpaceOnUse"><stop stop-color="rgb(255,255,255)"/><stop stop-color="rgb(255,255,255)"/><stop stop-color="rgb(255,255,255)"/><stop stop-color="rgb(255,255,255)"/><stop stop-color="rgb(255,255,255)"/></radialGradient><radialGradient id="__lottie_element_34406" spreadMethod="pad" gradientUnits="userSpaceOnUse"><stop/><stop/><stop/><stop/><stop/></radialGradient><mask id="__lottie_element_34408"><path fill="url(#__lottie_element_34407)"/></mask><radialGradient id="__lottie_element_34407" spreadMethod="pad" gradientUnits="userSpaceOnUse"><stop stop-color="rgb(255,255,255)"/><stop stop-color="rgb(255,255,255)"/><stop stop-color="rgb(255,255,255)"/><stop stop-color="rgb(255,255,255)"/><stop stop-color="rgb(255,255,255)"/></radialGradient><radialGradient id="__lottie_element_34412" spreadMethod="pad" gradientUnits="userSpaceOnUse"><stop/><stop/><stop/><stop/><stop/></radialGradient><radialGradient id="__lottie_element_34413" spreadMethod="pad" gradientUnits="userSpaceOnUse"><stop/><stop/><stop/><stop/><stop/></radialGradient><linearGradient id="__lottie_element_34433" spreadMethod="pad" gradientUnits="userSpaceOnUse" x1="-16.374000549316406" y1="-116.8010025024414" x2="13.383000373840332" y2="118.38800048828125"><stop offset="0%" stop-color="rgb(56,41,41)"/><stop offset="17%" stop-color="rgb(37,31,32)"/><stop offset="42%" stop-color="rgb(19,21,22)"/><stop offset="83%" stop-color="rgb(43,52,57)"/><stop offset="100%" stop-color="rgb(67,82,93)"/></linearGradient><radialGradient id="__lottie_element_34437" spreadMethod="pad" gradientUnits="userSpaceOnUse" cx="5.019000053405762" cy="-1.2940000295639038" r="8.169534888139967" fx="5.019000053405762" fy="-1.2940000295639038"><stop offset="0%" stop-color="rgb(255,255,255)" stop-opacity="1"/><stop offset="54%" stop-color="rgb(161,169,174)" stop-opacity="0.5"/><stop offset="100%" stop-color="rgb(67,82,93)" stop-opacity="0"/></radialGradient><radialGradient id="__lottie_element_34438" spreadMethod="pad" gradientUnits="userSpaceOnUse" cx="4.497000217437744" cy="-0.8690000176429749" r="8.169534870242966" fx="4.497000217437744" fy="-0.8690000176429749"><stop offset="0%" stop-color="rgb(255,255,255)" stop-opacity="1"/><stop offset="54%" stop-color="rgb(161,169,174)" stop-opacity="0.5"/><stop offset="100%" stop-color="rgb(67,82,93)" stop-opacity="0"/></radialGradient><radialGradient id="__lottie_element_34442" spreadMethod="pad" gradientUnits="userSpaceOnUse" cx="-24.656999588012695" cy="-1.6449999809265137" r="50.51983436676398" fx="-24.656999588012695" fy="-1.6449999809265137"><stop offset="0%" stop-color="rgb(218,218,218)"/><stop offset="9%" stop-color="rgb(187,192,193)"/><stop offset="19%" stop-color="rgb(157,165,168)"/><stop offset="45%" stop-color="rgb(112,123,131)"/><stop offset="69%" stop-color="rgb(67,82,93)"/></radialGradient><mask id="__lottie_element_34444"><path fill="url(#__lottie_element_34443)" d=" M36.314998626708984,-33.755001068115234 C36.459999084472656,-35.69499969482422 50.81100082397461,-40.62300109863281 51.19300079345703,-31.466999053955078 C52.25400161743164,-5.99399995803833 46.98899841308594,11.199000358581543 15.751999855041504,25.349000930786133 C-36.18299865722656,48.875 -50.354000091552734,30.299999237060547 -51.202999114990234,21.915000915527344 C-51.965999603271484,14.380999565124512 -49.55699920654297,-2.1600000858306885 -23.19700050354004,-11.628999710083008 C8.774999618530273,-23.11400032043457 35.17100143432617,-18.4950008392334 36.314998626708984,-33.755001068115234z"/></mask><radialGradient id="__lottie_element_34443" spreadMethod="pad" gradientUnits="userSpaceOnUse" cx="-24.656999588012695" cy="-1.6449999809265137" r="50.51983436676398" fx="-24.656999588012695" fy="-1.6449999809265137"><stop stop-color="rgb(255,255,255)" offset="0%" stop-opacity="1"/><stop stop-color="rgb(255,255,255)" offset="9%" stop-opacity="1"/><stop stop-color="rgb(255,255,255)" offset="19%" stop-opacity="1"/><stop stop-color="rgb(255,255,255)" offset="43%" stop-opacity="0.6000000238418579"/><stop stop-color="rgb(255,255,255)" offset="67%" stop-opacity="0.20000000298023224"/></radialGradient><radialGradient id="__lottie_element_34445" spreadMethod="pad" gradientUnits="userSpaceOnUse" cx="-23.804000854492188" cy="-8.013999938964844" r="70.55301305581479" fx="-23.804000854492188" fy="-8.013999938964844"><stop offset="0%" stop-color="rgb(235,235,235)"/><stop offset="6%" stop-color="rgb(196,200,201)"/><stop offset="13%" stop-color="rgb(157,165,168)"/><stop offset="36%" stop-color="rgb(112,123,131)"/><stop offset="59%" stop-color="rgb(67,82,93)"/></radialGradient><mask id="__lottie_element_34447"><path fill="url(#__lottie_element_34446)" d=" M36.314998626708984,-33.63100051879883 C36.459999084472656,-35.57099914550781 50.81100082397461,-40.49800109863281 51.19300079345703,-31.341999053955078 C52.25400161743164,-5.86899995803833 46.98899841308594,11.322999954223633 15.751999855041504,25.472999572753906 C-36.18299865722656,48.999000549316406 -50.354000091552734,29.56399917602539 -51.202999114990234,21.179000854492188 C-51.965999603271484,13.645000457763672 -49.55699920654297,-2.0360000133514404 -23.19700050354004,-11.505000114440918 C8.774999618530273,-22.989999771118164 35.17100143432617,-18.371000289916992 36.314998626708984,-33.63100051879883z"/></mask><radialGradient id="__lottie_element_34446" spreadMethod="pad" gradientUnits="userSpaceOnUse" cx="-23.804000854492188" cy="-8.013999938964844" r="70.55301305581479" fx="-23.804000854492188" fy="-8.013999938964844"><stop stop-color="rgb(255,255,255)" offset="0%" stop-opacity="1"/><stop stop-color="rgb(255,255,255)" offset="6%" stop-opacity="1"/><stop stop-color="rgb(255,255,255)" offset="12%" stop-opacity="1"/><stop stop-color="rgb(255,255,255)" offset="36%" stop-opacity="0.6000000238418579"/><stop stop-color="rgb(255,255,255)" offset="60%" stop-opacity="0.20000000298023224"/></radialGradient><radialGradient id="__lottie_element_34451" spreadMethod="pad" gradientUnits="userSpaceOnUse" cx="-0.13899999856948853" cy="10.458000183105469" r="67.0388000824284" fx="-0.13899999856948853" fy="10.458000183105469"><stop offset="0%" stop-color="rgb(19,21,22)"/><stop offset="64%" stop-color="rgb(37,31,32)"/><stop offset="77%" stop-color="rgb(56,41,41)"/><stop offset="86%" stop-color="rgb(61,61,67)"/><stop offset="100%" stop-color="rgb(67,82,93)"/></radialGradient><radialGradient id="__lottie_element_34452" spreadMethod="pad" gradientUnits="userSpaceOnUse" cx="-0.6600000262260437" cy="7.76200008392334" r="68.85023072078063" fx="-0.6600000262260437" fy="7.76200008392334"><stop offset="0%" stop-color="rgb(19,21,22)"/><stop offset="64%" stop-color="rgb(37,31,32)"/><stop offset="77%" stop-color="rgb(56,41,41)"/><stop offset="86%" stop-color="rgb(61,61,67)"/><stop offset="100%" stop-color="rgb(67,82,93)"/></radialGradient><linearGradient id="__lottie_element_34472" spreadMethod="pad" gradientUnits="userSpaceOnUse"><stop/><stop/><stop/><stop/><stop/></linearGradient><radialGradient id="__lottie_element_34476" spreadMethod="pad" gradientUnits="userSpaceOnUse"><stop/><stop/><stop/></radialGradient><radialGradient id="__lottie_element_34477" spreadMethod="pad" gradientUnits="userSpaceOnUse"><stop/><stop/><stop/></radialGradient><radialGradient id="__lottie_element_34481" spreadMethod="pad" gradientUnits="userSpaceOnUse"><stop/><stop/><stop/><stop/><stop/></radialGradient><mask id="__lottie_element_34483"><path fill="url(#__lottie_element_34482)"/></mask><radialGradient id="__lottie_element_34482" spreadMethod="pad" gradientUnits="userSpaceOnUse"><stop stop-color="rgb(255,255,255)"/><stop stop-color="rgb(255,255,255)"/><stop stop-color="rgb(255,255,255)"/><stop stop-color="rgb(255,255,255)"/><stop stop-color="rgb(255,255,255)"/></radialGradient><radialGradient id="__lottie_element_34484" spreadMethod="pad" gradientUnits="userSpaceOnUse"><stop/><stop/><stop/><stop/><stop/></radialGradient><mask id="__lottie_element_34486"><path fill="url(#__lottie_element_34485)"/></mask><radialGradient id="__lottie_element_34485" spreadMethod="pad" gradientUnits="userSpaceOnUse"><stop stop-color="rgb(255,255,255)"/><stop stop-color="rgb(255,255,255)"/><stop stop-color="rgb(255,255,255)"/><stop stop-color="rgb(255,255,255)"/><stop stop-color="rgb(255,255,255)"/></radialGradient><radialGradient id="__lottie_element_34490" spreadMethod="pad" gradientUnits="userSpaceOnUse"><stop/><stop/><stop/><stop/><stop/></radialGradient><radialGradient id="__lottie_element_34491" spreadMethod="pad" gradientUnits="userSpaceOnUse"><stop/><stop/><stop/><stop/><stop/></radialGradient></defs><g clip-path="url(#__lottie_element_34296)"><g style="display: block;" transform="matrix(0,0,0,0,331.4729919433594,452.322998046875)" opacity="1"><g opacity="1" transform="matrix(1,0,0,1,345.8399963378906,364.0400085449219)"><path fill="url(#__lottie_element_34451)" fill-opacity="1" d=" M35.01300048828125,-56.89500045776367 C34.63100051879883,-44.6870002746582 31.238000869750977,-44.435001373291016 -1,-39.755001068115234 C-32.099998474121094,-35.2400016784668 -60.560001373291016,-21.96500015258789 -57.07899856567383,16.323999404907227 C-54.21799850463867,47.797000885009766 -28.466999053955078,60.95899963378906 8.156000137329102,55.808998107910156 C44.77899932861328,50.659000396728516 57.36800003051758,22.618999481201172 57.36800003051758,-3.7039999961853027 C57.36800003051758,-3.7039999961853027 56.70100021362305,-23.201000213623047 56.757999420166016,-54.2239990234375 C49.80099868774414,-56.40700149536133 41.97800064086914,-54.779998779296875 35.01300048828125,-56.89500045776367z"/></g><g opacity="1" transform="matrix(1,0,0,1,141.36099243164062,405.2409973144531)"><path fill="url(#__lottie_element_34452)" fill-opacity="1" d=" M35.01300048828125,-56.89500045776367 C34.63100051879883,-44.6870002746582 31.238000869750977,-44.435001373291016 -1,-39.755001068115234 C-32.099998474121094,-35.2400016784668 -60.560001373291016,-21.96500015258789 -57.07899856567383,16.323999404907227 C-54.21799850463867,47.797000885009766 -28.466999053955078,60.95899963378906 8.156000137329102,55.808998107910156 C44.77899932861328,50.659000396728516 57.36800003051758,22.618999481201172 57.36800003051758,-3.7039999961853027 C57.36800003051758,-3.7039999961853027 56.70100021362305,-23.201000213623047 56.757999420166016,-54.2239990234375 C49.80099868774414,-56.40700149536133 41.97800064086914,-54.779998779296875 35.01300048828125,-56.89500045776367z"/></g></g><g style="display: block;" transform="matrix(0,0,0,0,331.4729919433594,452.322998046875)" opacity="1"><g opacity="0.1" transform="matrix(1,0,0,1,347.375,389.2179870605469)"><path fill="rgb(207,248,255)" fill-opacity="1" d=" M55.83599853515625,-28.885000228881836 C55.83599853515625,-2.556999921798706 43.2400016784668,25.483999252319336 6.620999813079834,30.628999710083008 C-24.524999618530273,35.007999420166016 -47.80799865722656,26.145999908447266 -55.83599853515625,4.033999919891357 C-47.80400085449219,15.63599967956543 -24.8439998626709,26.98900032043457 7.790999889373779,21.371000289916992 C37.2599983215332,16.30299949645996 54.27000045776367,-8.819000244140625 55.75,-31.71500015258789 C55.801998138427734,-29.85700035095215 55.83599853515625,-28.885000228881836 55.83599853515625,-28.885000228881836z"/></g><g opacity="1" transform="matrix(1.0103800296783447,0,0,1,345.6820068359375,343.5719909667969)"><path fill="url(#__lottie_element_34442)" mask="url(#__lottie_element_34444)" fill-opacity="1" d="M0 0 M36.314998626708984,-33.755001068115234 C36.459999084472656,-35.69499969482422 50.81100082397461,-40.62300109863281 51.19300079345703,-31.466999053955078 C52.25400161743164,-5.99399995803833 46.98899841308594,11.199000358581543 15.751999855041504,25.349000930786133 C-36.18299865722656,48.875 -50.354000091552734,30.299999237060547 -51.202999114990234,21.915000915527344 C-51.965999603271484,14.380999565124512 -49.55699920654297,-2.1600000858306885 -23.19700050354004,-11.628999710083008 C8.774999618530273,-23.11400032043457 35.17100143432617,-18.4950008392334 36.314998626708984,-33.755001068115234z"/></g><g opacity="0.1" transform="matrix(1,0,0,1,143.06100463867188,430.6029968261719)"><path fill="rgb(207,248,255)" fill-opacity="1" d=" M55.667999267578125,-29.065000534057617 C55.667999267578125,-2.744999885559082 43.08000183105469,25.29400062561035 6.453000068664551,30.447999954223633 C-24.26300048828125,34.766998291015625 -47.3390007019043,26.207000732421875 -55.667999267578125,4.756999969482422 C-45.95899963378906,15.982999801635742 -23.55299949645996,27.202999114990234 9.439000129699707,20.476999282836914 C41.00600051879883,14.041000366210938 51.709999084472656,-12.475000381469727 55.59000015258789,-31.53499984741211 C55.641998291015625,-29.909000396728516 55.667999267578125,-29.065000534057617 55.667999267578125,-29.065000534057617z"/></g><g opacity="1" transform="matrix(1,0,0,1,141.2030029296875,383.885009765625)"><path fill="url(#__lottie_element_34445)" mask="url(#__lottie_element_34447)" fill-opacity="1" d="M0 0 M36.314998626708984,-33.63100051879883 C36.459999084472656,-35.57099914550781 50.81100082397461,-40.49800109863281 51.19300079345703,-31.341999053955078 C52.25400161743164,-5.86899995803833 46.98899841308594,11.322999954223633 15.751999855041504,25.472999572753906 C-36.18299865722656,48.999000549316406 -50.354000091552734,29.56399917602539 -51.202999114990234,21.179000854492188 C-51.965999603271484,13.645000457763672 -49.55699920654297,-2.0360000133514404 -23.19700050354004,-11.505000114440918 C8.774999618530273,-22.989999771118164 35.17100143432617,-18.371000289916992 36.314998626708984,-33.63100051879883z"/></g></g><g style="display: block;" transform="matrix(0,0,0,0,331.4729919433594,452.322998046875)" opacity="0.63"><g opacity="1" transform="matrix(1,0,0,1,378.6820068359375,317.5039978027344)"><path fill="url(#__lottie_element_34437)" fill-opacity="1" d=" M-12.335000038146973,8.831999778747559 C5.546999931335449,1.6790000200271606 1.4079999923706055,-8.831999778747559 5.986000061035156,-8.831999778747559 C19.719999313354492,-8.831999778747559 10.067000389099121,6.560999870300293 -12.335000038146973,8.831999778747559z"/></g><g opacity="1" transform="matrix(1,0,0,1,174.2030029296875,358.7049865722656)"><path fill="url(#__lottie_element_34438)" fill-opacity="1" d=" M-12.335000038146973,8.831999778747559 C5.546999931335449,1.6790000200271606 1.4079999923706055,-8.831999778747559 5.986000061035156,-8.831999778747559 C19.719999313354492,-8.831999778747559 10.067000389099121,6.560999870300293 -12.335000038146973,8.831999778747559z"/></g></g><g style="display: block;" transform="matrix(0,0,0,0,331.4729919433594,452.322998046875)" opacity="1"><g opacity="1" transform="matrix(1,0,0,1,0,0)"><path fill="url(#__lottie_element_34433)" fill-opacity="1" d=" M94.8219985961914,-42.66899871826172 C94.8219985961914,-42.66899871826172 95.3949966430664,76.35600280761719 93.6780014038086,92.37899780273438 C93.48400115966797,94.18900299072266 92.17900085449219,101.64900207519531 91.92400360107422,103.18299865722656 C99.2760009765625,104.59700012207031 106.97799682617188,104.46199798583984 114.27799987792969,106.11199951171875 C113.61799621582031,31.886999130249023 113.13400268554688,-110.79499816894531 113.13400268554688,-126.21499633789062 C113.13400268554688,-155.3990020751953 111.98999786376953,-157.11599731445312 83.37799835205078,-150.8209991455078 C83.37799835205078,-150.8209991455078 -75.12899780273438,-119.33399963378906 -87.14900207519531,-117.05999755859375 C-108.3219985961914,-113.05400085449219 -112.3270034790039,-113.05400085449219 -111.75499725341797,-90.73699951171875 C-111.75499725341797,-90.73699951171875 -111.73799896240234,106.625 -112.3270034790039,128.42999267578125 C-112.50900268554688,135.1750030517578 -112.80899810791016,140.1739959716797 -114.27799987792969,144.02699279785156 C-106.43699645996094,146.5590057373047 -98.92500305175781,149.9239959716797 -91.63500213623047,153.802001953125 C-91.52400207519531,98.15299987792969 -91.38999938964844,4.638000011444092 -91.72599792480469,-3.756999969482422 C-92.2979965209961,-18.062999725341797 -89.43699645996094,-21.496000289916992 -72.2699966430664,-25.50200080871582 C-72.2699966430664,-25.50200080871582 63.275001525878906,-54.10599899291992 74.22200012207031,-55.257999420166016 C85.09400177001953,-56.402000427246094 94.25,-60.98099899291992 94.8219985961914,-42.66899871826172z"/></g></g><g style="display: block;" transform="matrix(0,0,0,0,331.4729919433594,452.322998046875)" opacity="1"><g opacity="1" transform="matrix(1,0,0,1,194.6999969482422,287.9490051269531)"><path stroke-linecap="round" stroke-linejoin="round" fill-opacity="0" stroke="rgb(67,82,93)" stroke-opacity="1" stroke-width="6" d=" M0.07199999690055847,-99.8550033569336 C0.07199999690055847,-99.8550033569336 -0.07199999690055847,99.8550033569336 -0.07199999690055847,99.8550033569336"/></g><g opacity="1" transform="matrix(1,0,0,1,287.9930114746094,167.11599731445312)"><path fill="rgb(67,82,93)" fill-opacity="1" d=" M95.94999694824219,-23.371000289916992 C95.94999694824219,-28.235000610351562 89.6500015258789,-30.87299919128418 85.45899963378906,-29.951000213623047 C85.45899963378906,-29.951000213623047 -69.11399841308594,3.2139999866485596 -79.53600311279297,4.860000133514404 C-90.40799713134766,6.577000141143799 -96.22599792480469,13.109000205993652 -95.94000244140625,19.40399932861328 C-95.94000244140625,19.40399932861328 -95.65399932861328,30.132999420166016 -95.65399932861328,30.132999420166016 C-95.65399932861328,30.132999420166016 -90.79000091552734,28.917999267578125 -90.79000091552734,28.917999267578125 C-90.77799987792969,28.916000366210938 -90.76599884033203,28.913999557495117 -90.75399780273438,28.91200065612793 C-90.07599639892578,19.57900047302246 -85.7490005493164,16.615999221801758 -71.33399963378906,13.251999855041504 C-71.33399963378906,13.251999855041504 64.21199798583984,-15.35200023651123 75.15899658203125,-16.503999710083008 C84.41500091552734,-17.47800064086914 92.4219970703125,-20.930999755859375 94.9530029296875,-10.640000343322754 C95.03099822998047,-10.661999702453613 95.87200164794922,-6.372000217437744 95.94999694824219,-6.394000053405762 C95.94999694824219,-6.394000053405762 95.94999694824219,-23.371000289916992 95.94999694824219,-23.371000289916992z"/></g></g><g style="display: block;" transform="matrix(0,0,0,0,331.4729919433594,452.322998046875)" opacity="1"><g opacity="1" transform="matrix(1,0,0,1,0,0)"><path stroke-linecap="round" stroke-linejoin="round" fill-opacity="0" stroke="rgb(67,82,93)" stroke-opacity="1" stroke-width="6" d=" M5.7220001220703125,144.9239959716797 C5.7220001220703125,144.9239959716797 4.578000068664551,-132.18099975585938 4.578000068664551,-132.18099975585938 C4.578000068664551,-132.18099975585938 5.006999969482422,-147.20199584960938 -5.7220001220703125,-144.6269989013672"/></g></g><g style="display: block;" transform="matrix(0,0,0,0,331.4729919433594,452.322998046875)" opacity="1"><g opacity="1" transform="matrix(1,0,0,1,0,0)"><path stroke-linecap="round" stroke-linejoin="round" fill-opacity="0" stroke="rgb(157,165,168)" stroke-opacity="1" stroke-width="6" d=" M102.14399719238281,-20.600000381469727 C102.14399719238281,-20.600000381469727 -102.14399719238281,20.600000381469727 -102.14399719238281,20.600000381469727"/></g></g><g style="display: block;" transform="matrix(0,0,0,0,331.4729919433594,452.322998046875)" opacity="1"><g opacity="1" transform="matrix(1,0,0,1,0,0)"><path stroke-linecap="round" stroke-linejoin="round" fill-opacity="0" stroke="rgb(36,31,45)" stroke-opacity="1" stroke-width="8" d=" M-43.000999450683594,-54.097999572753906 C-43.55799865722656,-68.0999984741211 -40.775001525878906,-71.45999908447266 -24.077999114990234,-75.38099670410156 C-24.077999114990234,-75.38099670410156 107.75199890136719,-103.37799835205078 118.39900207519531,-104.50599670410156 C128.97300720214844,-105.6259994506836 137.87899780273438,-110.10700225830078 138.43499755859375,-92.18399810791016 C138.63600158691406,-55.334999084472656 138.96400451660156,8.013999938964844 136.9980010986328,41.43000030517578 C136,58.654998779296875 134.9219970703125,60.573001861572266 101.3239974975586,65.44999694824219 C68.91200256347656,70.15499877929688 39.250999450683594,83.99099731445312 42.87900161743164,123.8949966430664 C45.861000061035156,156.6959991455078 72.697998046875,170.41299438476562 110.86599731445312,165.0449981689453 C149.03399658203125,159.67799377441406 162.1540069580078,130.4550018310547 162.1540069580078,103.02200317382812 C162.85699462890625,85.4540023803711 159.85499572753906,96.43800354003906 159.85499572753906,-179.02499389648438 C159.85499572753906,-208.53500366210938 158.697998046875,-210.27099609375 129.76600646972656,-203.906005859375 C129.76600646972656,-203.906005859375 -30.51300048828125,-172.0659942626953 -42.66699981689453,-169.76699829101562 C-64.07599639892578,-165.7169952392578 -68.12799835205078,-165.7169952392578 -67.54900360107422,-143.14999389648438 C-66.71800231933594,-103.53700256347656 -67.48100280761719,73.85700225830078 -67.83999633789062,82.1729965209961 C-68.83799743652344,99.39800262451172 -69.91600036621094,101.31600189208984 -103.51399993896484,106.19300079345703 C-135.92599487304688,110.89800262451172 -165.58700561523438,124.73400115966797 -161.95899963378906,164.63800048828125 C-158.9770050048828,197.43899536132812 -132.13999938964844,211.15499877929688 -93.97200012207031,205.78799438476562 C-55.80400085449219,200.42100524902344 -42.683998107910156,171.197998046875 -42.683998107910156,143.76499938964844 C-42.680999755859375,143.67799377441406 -42.99800109863281,-54.01100158691406 -43.000999450683594,-54.097999572753906z"/></g></g><g style="display: block;" transform="matrix(0,0,0,0,331.4729919433594,452.322998046875)" opacity="1"><g opacity="1" transform="matrix(1,0,0,1,346.0429992675781,250.8990020751953)"><path stroke-linecap="round" stroke-linejoin="round" fill-opacity="0" stroke="rgb(5,6,7)" stroke-opacity="1" stroke-width="8" d=" M-59.691001892089844,130.31900024414062 C-56.70899963378906,163.1199951171875 -29.871999740600586,176.83599853515625 8.295999526977539,171.468994140625 C46.4640007019043,166.1020050048828 59.58399963378906,136.87899780273438 59.58399963378906,109.44599914550781 C60.2869987487793,91.87799835205078 57.28499984741211,102.86199951171875 57.28499984741211,-172.6009979248047"/></g><g opacity="1" transform="matrix(1,0,0,1,231.78799438476562,307.8699951171875)"><path stroke-linecap="round" stroke-linejoin="round" fill-opacity="0" stroke="rgb(5,6,7)" stroke-opacity="1" stroke-width="8" d=" M-150.2740020751953,114.09100341796875 C-147.29200744628906,146.89199829101562 -120.45500183105469,160.60800170898438 -82.28700256347656,155.24099731445312 C-44.11899948120117,149.87399291992188 -30.999000549316406,120.6500015258789 -30.999000549316406,93.21700286865234 C-30.996000289916992,93.12999725341797 -31.312999725341797,-104.55899810791016 -31.31599998474121,-104.64600372314453 C-31.87299919128418,-118.64800262451172 -29.09000015258789,-122.00800323486328 -12.392999649047852,-125.92900085449219 C-12.392999649047852,-125.92900085449219 119.43699645996094,-153.9250030517578 130.08399963378906,-155.05299377441406 C140.6580047607422,-156.17300415039062 149.56399536132812,-160.65499877929688 150.1199951171875,-142.73199462890625 C150.3209991455078,-105.88300323486328 150.6490020751953,-42.53300094604492 148.68299865722656,-9.116999626159668"/></g></g><g style="display: block;" transform="matrix(1,0,0,1,0,0)" opacity="1"><g opacity="1" transform="matrix(1,0,0,1,345.8399963378906,364.0400085449219)"><path fill="url(#__lottie_element_34373)" fill-opacity="1" d=" M35.01300048828125,-56.89500045776367 C34.63100051879883,-44.6870002746582 31.238000869750977,-44.435001373291016 -1,-39.755001068115234 C-32.099998474121094,-35.2400016784668 -60.560001373291016,-21.96500015258789 -57.07899856567383,16.323999404907227 C-54.21799850463867,47.797000885009766 -28.466999053955078,60.95899963378906 8.156000137329102,55.808998107910156 C44.77899932861328,50.659000396728516 57.36800003051758,22.618999481201172 57.36800003051758,-3.7039999961853027 C57.36800003051758,-3.7039999961853027 56.70100021362305,-23.201000213623047 56.757999420166016,-54.2239990234375 C49.80099868774414,-56.40700149536133 41.97800064086914,-54.779998779296875 35.01300048828125,-56.89500045776367z"/></g><g opacity="1" transform="matrix(1,0,0,1,141.36099243164062,405.2409973144531)"><path fill="url(#__lottie_element_34374)" fill-opacity="1" d=" M35.01300048828125,-56.89500045776367 C34.63100051879883,-44.6870002746582 31.238000869750977,-44.435001373291016 -1,-39.755001068115234 C-32.099998474121094,-35.2400016784668 -60.560001373291016,-21.96500015258789 -57.07899856567383,16.323999404907227 C-54.21799850463867,47.797000885009766 -28.466999053955078,60.95899963378906 8.156000137329102,55.808998107910156 C44.77899932861328,50.659000396728516 57.36800003051758,22.618999481201172 57.36800003051758,-3.7039999961853027 C57.36800003051758,-3.7039999961853027 56.70100021362305,-23.201000213623047 56.757999420166016,-54.2239990234375 C49.80099868774414,-56.40700149536133 41.97800064086914,-54.779998779296875 35.01300048828125,-56.89500045776367z"/></g></g><g style="display: block;" transform="matrix(1,0,0,1,0,-0.000030517578125)" opacity="1"><g opacity="0.1" transform="matrix(1,0,0,1,347.375,389.2179870605469)"><path fill="rgb(207,248,255)" fill-opacity="1" d=" M55.83599853515625,-28.885000228881836 C55.83599853515625,-2.556999921798706 43.2400016784668,25.483999252319336 6.620999813079834,30.628999710083008 C-24.524999618530273,35.007999420166016 -47.80799865722656,26.145999908447266 -55.83599853515625,4.033999919891357 C-47.80400085449219,15.63599967956543 -24.8439998626709,26.98900032043457 7.790999889373779,21.371000289916992 C37.2599983215332,16.30299949645996 54.27000045776367,-8.819000244140625 55.75,-31.71500015258789 C55.801998138427734,-29.85700035095215 55.83599853515625,-28.885000228881836 55.83599853515625,-28.885000228881836z"/></g><g opacity="1" transform="matrix(1.0103800296783447,0,0,1,345.6820068359375,343.5719909667969)"><path fill="url(#__lottie_element_34364)" mask="url(#__lottie_element_34366)" fill-opacity="1" d="M0 0 M36.314998626708984,-33.755001068115234 C36.459999084472656,-35.69499969482422 50.81100082397461,-40.62300109863281 51.19300079345703,-31.466999053955078 C52.25400161743164,-5.99399995803833 46.98899841308594,11.199000358581543 15.751999855041504,25.349000930786133 C-36.18299865722656,48.875 -50.354000091552734,30.299999237060547 -51.202999114990234,21.915000915527344 C-51.965999603271484,14.380999565124512 -49.55699920654297,-2.1600000858306885 -23.19700050354004,-11.628999710083008 C8.774999618530273,-23.11400032043457 35.17100143432617,-18.4950008392334 36.314998626708984,-33.755001068115234z"/></g><g opacity="0.1" transform="matrix(1,0,0,1,143.06100463867188,430.6029968261719)"><path fill="rgb(207,248,255)" fill-opacity="1" d=" M55.667999267578125,-29.065000534057617 C55.667999267578125,-2.744999885559082 43.08000183105469,25.29400062561035 6.453000068664551,30.447999954223633 C-24.26300048828125,34.766998291015625 -47.3390007019043,26.207000732421875 -55.667999267578125,4.756999969482422 C-45.95899963378906,15.982999801635742 -23.55299949645996,27.202999114990234 9.439000129699707,20.476999282836914 C41.00600051879883,14.041000366210938 51.709999084472656,-12.475000381469727 55.59000015258789,-31.53499984741211 C55.641998291015625,-29.909000396728516 55.667999267578125,-29.065000534057617 55.667999267578125,-29.065000534057617z"/></g><g opacity="1" transform="matrix(1,0,0,1,141.2030029296875,383.885009765625)"><path fill="url(#__lottie_element_34367)" mask="url(#__lottie_element_34369)" fill-opacity="1" d="M0 0 M36.314998626708984,-33.63100051879883 C36.459999084472656,-35.57099914550781 50.81100082397461,-40.49800109863281 51.19300079345703,-31.341999053955078 C52.25400161743164,-5.86899995803833 46.98899841308594,11.322999954223633 15.751999855041504,25.472999572753906 C-36.18299865722656,48.999000549316406 -50.354000091552734,29.56399917602539 -51.202999114990234,21.179000854492188 C-51.965999603271484,13.645000457763672 -49.55699920654297,-2.0360000133514404 -23.19700050354004,-11.505000114440918 C8.774999618530273,-22.989999771118164 35.17100143432617,-18.371000289916992 36.314998626708984,-33.63100051879883z"/></g></g><g style="display: block;" transform="matrix(1,0,0,1,0,0.0009765625)" opacity="0.63"><g opacity="1" transform="matrix(1,0,0,1,378.6820068359375,317.5039978027344)"><path fill="url(#__lottie_element_34359)" fill-opacity="1" d=" M-12.335000038146973,8.831999778747559 C5.546999931335449,1.6790000200271606 1.4079999923706055,-8.831999778747559 5.986000061035156,-8.831999778747559 C19.719999313354492,-8.831999778747559 10.067000389099121,6.560999870300293 -12.335000038146973,8.831999778747559z"/></g><g opacity="1" transform="matrix(1,0,0,1,174.2030029296875,358.7049865722656)"><path fill="url(#__lottie_element_34360)" fill-opacity="1" d=" M-12.335000038146973,8.831999778747559 C5.546999931335449,1.6790000200271606 1.4079999923706055,-8.831999778747559 5.986000061035156,-8.831999778747559 C19.719999313354492,-8.831999778747559 10.067000389099121,6.560999870300293 -12.335000038146973,8.831999778747559z"/></g></g><g style="display: block;" transform="matrix(1,0,0,1,290.0740051269531,205.8699951171875)" opacity="1"><g opacity="1" transform="matrix(1,0,0,1,0,0)"><path fill="url(#__lottie_element_34355)" fill-opacity="1" d=" M94.8219985961914,-42.66899871826172 C94.8219985961914,-42.66899871826172 95.3949966430664,76.35600280761719 93.6780014038086,92.37899780273438 C93.48400115966797,94.18900299072266 92.17900085449219,101.64900207519531 91.92400360107422,103.18299865722656 C99.2760009765625,104.59700012207031 106.97799682617188,104.46199798583984 114.27799987792969,106.11199951171875 C113.61799621582031,31.886999130249023 113.13400268554688,-110.79499816894531 113.13400268554688,-126.21499633789062 C113.13400268554688,-155.3990020751953 111.98999786376953,-157.11599731445312 83.37799835205078,-150.8209991455078 C83.37799835205078,-150.8209991455078 -75.12899780273438,-119.33399963378906 -87.14900207519531,-117.05999755859375 C-108.3219985961914,-113.05400085449219 -112.3270034790039,-113.05400085449219 -111.75499725341797,-90.73699951171875 C-111.75499725341797,-90.73699951171875 -111.73799896240234,106.625 -112.3270034790039,128.42999267578125 C-112.50900268554688,135.1750030517578 -112.80899810791016,140.1739959716797 -114.27799987792969,144.02699279785156 C-106.43699645996094,146.5590057373047 -98.92500305175781,149.9239959716797 -91.63500213623047,153.802001953125 C-91.52400207519531,98.15299987792969 -91.38999938964844,4.638000011444092 -91.72599792480469,-3.756999969482422 C-92.2979965209961,-18.062999725341797 -89.43699645996094,-21.496000289916992 -72.2699966430664,-25.50200080871582 C-72.2699966430664,-25.50200080871582 63.275001525878906,-54.10599899291992 74.22200012207031,-55.257999420166016 C85.09400177001953,-56.402000427246094 94.25,-60.98099899291992 94.8219985961914,-42.66899871826172z"/></g></g><g style="display: block;" transform="matrix(1,0,0,1,-0.000030517578125,-0.000030517578125)" opacity="1"><g opacity="1" transform="matrix(1,0,0,1,194.6999969482422,287.9490051269531)"><path stroke-linecap="round" stroke-linejoin="round" fill-opacity="0" stroke="rgb(67,82,93)" stroke-opacity="1" stroke-width="6" d=" M0.07199999690055847,-99.8550033569336 C0.07199999690055847,-99.8550033569336 -0.07199999690055847,99.8550033569336 -0.07199999690055847,99.8550033569336"/></g><g opacity="1" transform="matrix(1,0,0,1,287.9930114746094,167.11599731445312)"><path fill="rgb(67,82,93)" fill-opacity="1" d=" M95.94999694824219,-23.371000289916992 C95.94999694824219,-28.235000610351562 89.6500015258789,-30.87299919128418 85.45899963378906,-29.951000213623047 C85.45899963378906,-29.951000213623047 -69.11399841308594,3.2139999866485596 -79.53600311279297,4.860000133514404 C-90.40799713134766,6.577000141143799 -96.22599792480469,13.109000205993652 -95.94000244140625,19.40399932861328 C-95.94000244140625,19.40399932861328 -95.65399932861328,30.132999420166016 -95.65399932861328,30.132999420166016 C-95.65399932861328,30.132999420166016 -90.79000091552734,28.917999267578125 -90.79000091552734,28.917999267578125 C-90.77799987792969,28.916000366210938 -90.76599884033203,28.913999557495117 -90.75399780273438,28.91200065612793 C-90.07599639892578,19.57900047302246 -85.7490005493164,16.615999221801758 -71.33399963378906,13.251999855041504 C-71.33399963378906,13.251999855041504 64.21199798583984,-15.35200023651123 75.15899658203125,-16.503999710083008 C84.41500091552734,-17.47800064086914 92.4219970703125,-20.930999755859375 94.9530029296875,-10.640000343322754 C95.03099822998047,-10.661999702453613 95.87200164794922,-6.372000217437744 95.94999694824219,-6.394000053405762 C95.94999694824219,-6.394000053405762 95.94999694824219,-23.371000289916992 95.94999694824219,-23.371000289916992z"/></g></g><g style="display: block;" transform="matrix(1,0,0,1,393.19000244140625,202.1079864501953)" opacity="1"><g opacity="1" transform="matrix(1,0,0,1,0,0)"><path stroke-linecap="round" stroke-linejoin="round" fill-opacity="0" stroke="rgb(67,82,93)" stroke-opacity="1" stroke-width="6" d=" M5.7220001220703125,144.9239959716797 C5.7220001220703125,144.9239959716797 4.578000068664551,-132.18099975585938 4.578000068664551,-132.18099975585938 C4.578000068664551,-132.18099975585938 5.006999969482422,-147.20199584960938 -5.7220001220703125,-144.6269989013672"/></g></g><g style="display: block;" transform="matrix(1,0,0,1,287.9019775390625,77.93798828125)" opacity="1"><g opacity="1" transform="matrix(1,0,0,1,0,0)"><path stroke-linecap="round" stroke-linejoin="round" fill-opacity="0" stroke="rgb(157,165,168)" stroke-opacity="1" stroke-width="6" d=" M102.14399719238281,-20.600000381469727 C102.14399719238281,-20.600000381469727 -102.14399719238281,20.600000381469727 -102.14399719238281,20.600000381469727"/></g></g><g style="display: block;" transform="matrix(1,0,0,1,242.72698974609375,257.82598876953125)" opacity="1"><g opacity="1" transform="matrix(1,0,0,1,0,0)"><path stroke-linecap="round" stroke-linejoin="round" fill-opacity="0" stroke="rgb(36,31,45)" stroke-opacity="1" stroke-width="8" d=" M-43.000999450683594,-54.097999572753906 C-43.55799865722656,-68.0999984741211 -40.775001525878906,-71.45999908447266 -24.077999114990234,-75.38099670410156 C-24.077999114990234,-75.38099670410156 107.75199890136719,-103.37799835205078 118.39900207519531,-104.50599670410156 C128.97300720214844,-105.6259994506836 137.87899780273438,-110.10700225830078 138.43499755859375,-92.18399810791016 C138.63600158691406,-55.334999084472656 138.96400451660156,8.013999938964844 136.9980010986328,41.43000030517578 C136,58.654998779296875 134.9219970703125,60.573001861572266 101.3239974975586,65.44999694824219 C68.91200256347656,70.15499877929688 39.250999450683594,83.99099731445312 42.87900161743164,123.8949966430664 C45.861000061035156,156.6959991455078 72.697998046875,170.41299438476562 110.86599731445312,165.0449981689453 C149.03399658203125,159.67799377441406 162.1540069580078,130.4550018310547 162.1540069580078,103.02200317382812 C162.85699462890625,85.4540023803711 159.85499572753906,96.43800354003906 159.85499572753906,-179.02499389648438 C159.85499572753906,-208.53500366210938 158.697998046875,-210.27099609375 129.76600646972656,-203.906005859375 C129.76600646972656,-203.906005859375 -30.51300048828125,-172.0659942626953 -42.66699981689453,-169.76699829101562 C-64.07599639892578,-165.7169952392578 -68.12799835205078,-165.7169952392578 -67.54900360107422,-143.14999389648438 C-66.71800231933594,-103.53700256347656 -67.48100280761719,73.85700225830078 -67.83999633789062,82.1729965209961 C-68.83799743652344,99.39800262451172 -69.91600036621094,101.31600189208984 -103.51399993896484,106.19300079345703 C-135.92599487304688,110.89800262451172 -165.58700561523438,124.73400115966797 -161.95899963378906,164.63800048828125 C-158.9770050048828,197.43899536132812 -132.13999938964844,211.15499877929688 -93.97200012207031,205.78799438476562 C-55.80400085449219,200.42100524902344 -42.683998107910156,171.197998046875 -42.683998107910156,143.76499938964844 C-42.680999755859375,143.67799377441406 -42.99800109863281,-54.01100158691406 -43.000999450683594,-54.097999572753906z"/></g></g><g style="display: block;" transform="matrix(1,0,0,1,0,0.001007080078125)" opacity="1"><g opacity="1" transform="matrix(1,0,0,1,346.0429992675781,250.8990020751953)"><path stroke-linecap="round" stroke-linejoin="round" fill-opacity="0" stroke="rgb(5,6,7)" stroke-opacity="1" stroke-width="8" d=" M-59.691001892089844,130.31900024414062 C-56.70899963378906,163.1199951171875 -29.871999740600586,176.83599853515625 8.295999526977539,171.468994140625 C46.4640007019043,166.1020050048828 59.58399963378906,136.87899780273438 59.58399963378906,109.44599914550781 C60.2869987487793,91.87799835205078 57.28499984741211,102.86199951171875 57.28499984741211,-172.6009979248047"/></g><g opacity="1" transform="matrix(1,0,0,1,231.78799438476562,307.8699951171875)"><path stroke-linecap="round" stroke-linejoin="round" fill-opacity="0" stroke="rgb(5,6,7)" stroke-opacity="1" stroke-width="8" d=" M-150.2740020751953,114.09100341796875 C-147.29200744628906,146.89199829101562 -120.45500183105469,160.60800170898438 -82.28700256347656,155.24099731445312 C-44.11899948120117,149.87399291992188 -30.999000549316406,120.6500015258789 -30.999000549316406,93.21700286865234 C-30.996000289916992,93.12999725341797 -31.312999725341797,-104.55899810791016 -31.31599998474121,-104.64600372314453 C-31.87299919128418,-118.64800262451172 -29.09000015258789,-122.00800323486328 -12.392999649047852,-125.92900085449219 C-12.392999649047852,-125.92900085449219 119.43699645996094,-153.9250030517578 130.08399963378906,-155.05299377441406 C140.6580047607422,-156.17300415039062 149.56399536132812,-160.65499877929688 150.1199951171875,-142.73199462890625 C150.3209991455078,-105.88300323486328 150.6490020751953,-42.53300094604492 148.68299865722656,-9.116999626159668"/></g></g></g></svg>