<svg xmlns="http://www.w3.org/2000/svg" xmlns:xlink="http://www.w3.org/1999/xlink" viewBox="0 0 512 512" width="512" height="512" style="width: 100%; height: 100%; transform: translate3d(0,0,0);" preserveAspectRatio="xMidYMid meet"><defs><clipPath id="__lottie_element_9336"><rect width="512" height="512" x="0" y="0"/></clipPath><linearGradient id="__lottie_element_9355" spreadMethod="pad" gradientUnits="userSpaceOnUse" x1="-246" y1="1" x2="243" y2="0"><stop offset="0%" stop-color="rgb(0,0,0)"/><stop offset="25%" stop-color="rgb(0,0,0)"/><stop offset="50%" stop-color="rgb(0,0,0)"/><stop offset="75%" stop-color="rgb(0,0,0)"/><stop offset="100%" stop-color="rgb(0,0,0)"/></linearGradient><mask id="__lottie_element_9357"><path fill="url(#__lottie_element_9356)" d=" M-246.5,-145.5 C-246.5,-139 -246.5,144.218994140625 -246.5,146.593994140625 C-244.71200561523438,146.76499938964844 -241.55099487304688,147.5780029296875 -237.75900268554688,148.50999450683594 C-220.5,152.75 -191.07200622558594,159.75999450683594 -178.26499938964844,161.58399963378906 C-147.25,166 -127.13200378417969,165.62600708007812 -103.76799774169922,164.74600219726562 C-50.75,162.75 -4.125,146.125 27.19499969482422,139.3300018310547 C47.95800018310547,134.8249969482422 68.79000091552734,130.64500427246094 83.74700164794922,128.94000244140625 C106.25,126.375 122.875,126.75 143.25,128.35899353027344 C183.33700561523438,131.52499389648438 217.79400634765625,139.2030029296875 241.43800354003906,147.031005859375 C241.43800354003906,147.09300231933594 241.406005859375,147.09300231933594 241.406005859375,147.06199645996094 C241.406005859375,147.06199645996094 241.406005859375,147.06199645996094 241.406005859375,147.06199645996094 C241.56199645996094,120.56199645996094 241.23399353027344,82.29100036621094 241.25,49.90599822998047 C241.26600646972656,17.08300018310547 241.43699645996094,-15.739999771118164 241.5,-48.5629997253418 C241.56199645996094,-80.91699981689453 241.5,-128.75 241.625,-145.625 C151.281005859375,-172.5 103.15699768066406,-165.1009979248047 78.5,-162.81199645996094 C23.042999267578125,-156.04600524902344 -48.707000732421875,-130.79600524902344 -83.375,-129.06199645996094 C-157.875,-120.1240005493164 -212.75,-139.625 -246.5,-145.5z"/></mask><linearGradient id="__lottie_element_9356" spreadMethod="pad" gradientUnits="userSpaceOnUse" x1="-246" y1="1" x2="243" y2="0"><stop stop-color="rgb(255,255,255)" offset="0%" stop-opacity="1"/><stop stop-color="rgb(255,255,255)" offset="17%" stop-opacity="0.5"/><stop stop-color="rgb(255,255,255)" offset="33%" stop-opacity="0"/><stop stop-color="rgb(255,255,255)" offset="50%" stop-opacity="0"/><stop stop-color="rgb(255,255,255)" offset="66%" stop-opacity="0"/><stop stop-color="rgb(255,255,255)" offset="83%" stop-opacity="0.5"/><stop stop-color="rgb(255,255,255)" offset="100%" stop-opacity="1"/></linearGradient></defs><g clip-path="url(#__lottie_element_9336)"><g style="display: block;" transform="matrix(0.800000011920929,0,0,0.800000011920929,257.9656066894531,250.03680419921875)" opacity="1"><g opacity="1" transform="matrix(1,0,0,1,0,0)"><path fill="rgb(20,157,207)" fill-opacity="1" d=" M-246.5,-145.5 C-246.5,-139 -246.5,144.218994140625 -246.5,146.593994140625 C-244.71200561523438,146.76499938964844 -241.55099487304688,147.5780029296875 -237.75900268554688,148.50999450683594 C-220.5,152.75 -191.07200622558594,159.75999450683594 -178.26499938964844,161.58399963378906 C-147.25,166 -127.13200378417969,165.62600708007812 -103.76799774169922,164.74600219726562 C-50.75,162.75 -4.125,146.125 27.19499969482422,139.3300018310547 C47.95800018310547,134.8249969482422 68.79000091552734,130.64500427246094 83.74700164794922,128.94000244140625 C106.25,126.375 122.875,126.75 143.25,128.35899353027344 C183.33700561523438,131.52499389648438 217.79400634765625,139.2030029296875 241.43800354003906,147.031005859375 C241.43800354003906,147.09300231933594 241.406005859375,147.09300231933594 241.406005859375,147.06199645996094 C241.406005859375,147.06199645996094 241.406005859375,147.06199645996094 241.406005859375,147.06199645996094 C241.56199645996094,120.56199645996094 241.23399353027344,82.29100036621094 241.25,49.90599822998047 C241.26600646972656,17.08300018310547 241.43699645996094,-15.739999771118164 241.5,-48.5629997253418 C241.56199645996094,-80.91699981689453 241.5,-128.75 241.625,-145.625 C151.281005859375,-172.5 103.15699768066406,-165.1009979248047 78.5,-162.81199645996094 C23.042999267578125,-156.04600524902344 -48.707000732421875,-130.79600524902344 -83.375,-129.06199645996094 C-157.875,-120.1240005493164 -212.75,-139.625 -246.5,-145.5z"/></g></g><g style="display: block;" transform="matrix(0.800000011920929,0,0,0.800000011920929,256,250)" opacity="1"><g opacity="1" transform="matrix(1,0,0,1,0,0)"><path fill="rgb(233,208,44)" fill-opacity="1" d=" M149.0989990234375,-161.93800354003906 C125.3499984741211,-151.01400756835938 106.16799926757812,-138.52000427246094 82.03600311279297,-120.83899688720703 C50.94300079345703,-98.05799865722656 18.27199935913086,-70.08999633789062 -19.222000122070312,-38.020999908447266 C-44.071998596191406,-16.766000747680664 -65.84300231933594,0.6039999723434448 -86.99400329589844,15.467000007629395 C-108.05699920654297,30.26799964904785 -128.50399780273438,42.58100128173828 -150.76100158691406,53.763999938964844 C-177.6820068359375,67.29000091552734 -207.2519989013672,79.16100311279297 -243.76499938964844,91.78099822998047 C-244.0780029296875,99.91600036621094 -243.38900756835938,146.61700439453125 -243.38900756835938,146.61700439453125 C-243.38900756835938,146.61700439453125 -195.5,160 -151.04400634765625,164.25 C-122.81900024414062,149.41400146484375 -98.83599853515625,133.9709930419922 -76.80799865722656,117.88099670410156 C-55.93199920654297,102.63300323486328 -36.810001373291016,86.80500030517578 -17.499000549316406,70.36299896240234 C-4.994999885559082,59.71699905395508 7.5879998207092285,48.81399917602539 20.7810001373291,37.64500045776367 C58.51300048828125,5.701000213623047 87.802001953125,-17.7189998626709 122.52999877929688,-38.0890007019043 C154.64500427246094,-56.92599868774414 191.41200256347656,-73.15399932861328 243.81100463867188,-91.0979995727539 C244.12399291992188,-96.10399627685547 243.76499938964844,-145.92599487304688 243.76499938964844,-145.92599487304688 C243.76499938964844,-145.92599487304688 182.625,-160.31300354003906 149.0989990234375,-161.93800354003906z"/><path stroke-linecap="butt" stroke-linejoin="miter" fill-opacity="0" stroke-miterlimit="4" stroke="rgb(6,6,97)" stroke-opacity="1" stroke-width="0" d=" M149.0989990234375,-161.93800354003906 C125.3499984741211,-151.01400756835938 106.16799926757812,-138.52000427246094 82.03600311279297,-120.83899688720703 C50.94300079345703,-98.05799865722656 18.27199935913086,-70.08999633789062 -19.222000122070312,-38.020999908447266 C-44.071998596191406,-16.766000747680664 -65.84300231933594,0.6039999723434448 -86.99400329589844,15.467000007629395 C-108.05699920654297,30.26799964904785 -128.50399780273438,42.58100128173828 -150.76100158691406,53.763999938964844 C-177.6820068359375,67.29000091552734 -207.2519989013672,79.16100311279297 -243.76499938964844,91.78099822998047 C-244.0780029296875,99.91600036621094 -243.38900756835938,146.61700439453125 -243.38900756835938,146.61700439453125 C-243.38900756835938,146.61700439453125 -195.5,160 -151.04400634765625,164.25 C-122.81900024414062,149.41400146484375 -98.83599853515625,133.9709930419922 -76.80799865722656,117.88099670410156 C-55.93199920654297,102.63300323486328 -36.810001373291016,86.80500030517578 -17.499000549316406,70.36299896240234 C-4.994999885559082,59.71699905395508 7.5879998207092285,48.81399917602539 20.7810001373291,37.64500045776367 C58.51300048828125,5.701000213623047 87.802001953125,-17.7189998626709 122.52999877929688,-38.0890007019043 C154.64500427246094,-56.92599868774414 191.41200256347656,-73.15399932861328 243.81100463867188,-91.0979995727539 C244.12399291992188,-96.10399627685547 243.76499938964844,-145.92599487304688 243.76499938964844,-145.92599487304688 C243.76499938964844,-145.92599487304688 182.625,-160.31300354003906 149.0989990234375,-161.93800354003906z"/></g><g opacity="1" transform="matrix(1,0,0,1,0,0)"><path fill="rgb(198,37,51)" fill-opacity="1" d=" M184.0989990234375,-159.875 C149.61000061035156,-146.55999755859375 119.26100158691406,-129.06500244140625 89.7959976196289,-108.28900146484375 C57.02299880981445,-85.18099975585938 25.3439998626709,-58.01300048828125 -9.722000122070312,-28.020999908447266 C-34.38800048828125,-6.923999786376953 -55.78099822998047,10.77299976348877 -76.80799865722656,26.260000228881836 C-98.7750015258789,42.43899917602539 -120.34100341796875,56.207000732421875 -144.82000732421875,68.9209976196289 C-172.45799255371094,83.2750015258789 -203.80799865722656,96.28500366210938 -243.63999938964844,109.90599822998047 C-243.9530029296875,118.04100036621094 -243.38900756835938,146.61700439453125 -243.38900756835938,146.61700439453125 C-243.38900756835938,146.61700439453125 -198,158 -182.04400634765625,159.75 C-146.2169952392578,145.88499450683594 -115.21900177001953,127.73300170898438 -87.08000183105469,107.79900360107422 C-67.63999938964844,94.02799987792969 -49.56399917602539,79.40599822998047 -32.20199966430664,64.76100158691406 C-17.145000457763672,52.06100082397461 -2.625999927520752,39.34299850463867 11.781000137329102,27.145999908447266 C51.5,-6.480000019073486 80.947998046875,-31.38599967956543 119.28700256347656,-54.01300048828125 C151.0500030517578,-72.76000213623047 188.91600036621094,-89.94300079345703 243.77999877929688,-109.2229995727539 C244.09300231933594,-114.22899627685547 243.76499938964844,-145.92599487304688 243.76499938964844,-145.92599487304688 C243.76499938964844,-145.92599487304688 201.68800354003906,-157.625 184.0989990234375,-159.875z"/><path stroke-linecap="butt" stroke-linejoin="miter" fill-opacity="0" stroke-miterlimit="4" stroke="rgb(6,6,97)" stroke-opacity="1" stroke-width="0" d=" M184.0989990234375,-159.875 C149.61000061035156,-146.55999755859375 119.26100158691406,-129.06500244140625 89.7959976196289,-108.28900146484375 C57.02299880981445,-85.18099975585938 25.3439998626709,-58.01300048828125 -9.722000122070312,-28.020999908447266 C-34.38800048828125,-6.923999786376953 -55.78099822998047,10.77299976348877 -76.80799865722656,26.260000228881836 C-98.7750015258789,42.43899917602539 -120.34100341796875,56.207000732421875 -144.82000732421875,68.9209976196289 C-172.45799255371094,83.2750015258789 -203.80799865722656,96.28500366210938 -243.63999938964844,109.90599822998047 C-243.9530029296875,118.04100036621094 -243.38900756835938,146.61700439453125 -243.38900756835938,146.61700439453125 C-243.38900756835938,146.61700439453125 -198,158 -182.04400634765625,159.75 C-146.2169952392578,145.88499450683594 -115.21900177001953,127.73300170898438 -87.08000183105469,107.79900360107422 C-67.63999938964844,94.02799987792969 -49.56399917602539,79.40599822998047 -32.20199966430664,64.76100158691406 C-17.145000457763672,52.06100082397461 -2.625999927520752,39.34299850463867 11.781000137329102,27.145999908447266 C51.5,-6.480000019073486 80.947998046875,-31.38599967956543 119.28700256347656,-54.01300048828125 C151.0500030517578,-72.76000213623047 188.91600036621094,-89.94300079345703 243.77999877929688,-109.2229995727539 C244.09300231933594,-114.22899627685547 243.76499938964844,-145.92599487304688 243.76499938964844,-145.92599487304688 C243.76499938964844,-145.92599487304688 201.68800354003906,-157.625 184.0989990234375,-159.875z"/></g></g><g style="display: block;" transform="matrix(0.800000011920929,0,0,0.800000011920929,256,250)" opacity="1"><g opacity="1" transform="matrix(1,0,0,1,0,0)"><path fill="rgb(233,208,44)" fill-opacity="1" d=" M-175.4530029296875,-114.18800354003906 C-175.4530029296875,-114.18800354003906 -187.75,-76.5 -187.75,-76.5 C-187.75,-76.5 -227.031005859375,-85.34400177001953 -227.031005859375,-85.34400177001953 C-227.031005859375,-85.34400177001953 -195.375,-53.375 -195.375,-53.375 C-195.375,-53.375 -207.281005859375,-16.437999725341797 -207.281005859375,-16.437999725341797 C-207.281005859375,-16.437999725341797 -175.31199645996094,-34.6879997253418 -175.31199645996094,-34.6879997253418 C-175.31199645996094,-34.6879997253418 -143.093994140625,-6.311999797821045 -143.093994140625,-6.311999797821045 C-143.093994140625,-6.311999797821045 -155.25,-46.875 -155.25,-46.875 C-155.25,-46.875 -122.875,-69.875 -122.875,-69.875 C-122.875,-69.875 -163.125,-72.375 -163.125,-72.375 C-163.125,-72.375 -175.4530029296875,-114.18800354003906 -175.4530029296875,-114.18800354003906z"/></g></g><g style="display: block;" transform="matrix(0.800000011920929,0,0,0.800000011920929,257.9656066894531,250.03680419921875)" opacity="0.35000000000000003"><g opacity="1" transform="matrix(1,0,0,1,0,0)"><path fill="url(#__lottie_element_9355)" mask="url(#__lottie_element_9357)" fill-opacity="1" d="M0 0 M-246.5,-145.5 C-246.5,-139 -246.5,144.218994140625 -246.5,146.593994140625 C-244.71200561523438,146.76499938964844 -241.55099487304688,147.5780029296875 -237.75900268554688,148.50999450683594 C-220.5,152.75 -191.07200622558594,159.75999450683594 -178.26499938964844,161.58399963378906 C-147.25,166 -127.13200378417969,165.62600708007812 -103.76799774169922,164.74600219726562 C-50.75,162.75 -4.125,146.125 27.19499969482422,139.3300018310547 C47.95800018310547,134.8249969482422 68.79000091552734,130.64500427246094 83.74700164794922,128.94000244140625 C106.25,126.375 122.875,126.75 143.25,128.35899353027344 C183.33700561523438,131.52499389648438 217.79400634765625,139.2030029296875 241.43800354003906,147.031005859375 C241.43800354003906,147.09300231933594 241.406005859375,147.09300231933594 241.406005859375,147.06199645996094 C241.406005859375,147.06199645996094 241.406005859375,147.06199645996094 241.406005859375,147.06199645996094 C241.56199645996094,120.56199645996094 241.23399353027344,82.29100036621094 241.25,49.90599822998047 C241.26600646972656,17.08300018310547 241.43699645996094,-15.739999771118164 241.5,-48.5629997253418 C241.56199645996094,-80.91699981689453 241.5,-128.75 241.625,-145.625 C151.281005859375,-172.5 103.15699768066406,-165.1009979248047 78.5,-162.81199645996094 C23.042999267578125,-156.04600524902344 -48.707000732421875,-130.79600524902344 -83.375,-129.06199645996094 C-157.875,-120.1240005493164 -212.75,-139.625 -246.5,-145.5z"/></g></g><g style="display: block;" transform="matrix(0.800000011920929,0,0,0.800000011920929,257.9656066894531,250.03680419921875)" opacity="0.15"><g opacity="1" transform="matrix(1,0,0,1,0,0)"><path fill="rgb(255,255,255)" fill-opacity="1" d=" M-246.875,-146 C-246.83700561523438,-139.70399475097656 -246.875,-138 -246.79200744628906,-132.81100463867188 C-237.5,-136.25 -197.25,-114 -124.49600219726562,-114.31099700927734 C-38.992000579833984,-114.6760025024414 39.233001708984375,-153.25 121.70800018310547,-153.39700317382812 C179.75,-153.5 241,-132.25 240.91200256347656,-131.552001953125 C241,-140.5 241.375,-144.625 241.375,-144.625 C241.375,-144.625 179.75,-166.25 122.5,-166 C39.49700164794922,-165.63800048828125 -39.5,-128 -124.25,-126.81199645996094 C-197.0449981689453,-125.79199981689453 -237.75,-149 -246.875,-146z"/></g></g><g style="display: block;" transform="matrix(0.800000011920929,0,0,0.800000011920929,257.9656066894531,250.03680419921875)" opacity="0.15"><g opacity="1" transform="matrix(1,0,0,1,0,0)"><path fill="rgb(0,0,0)" fill-opacity="1" d=" M122.5,112.25 C34,112.25 -36,149.5 -123.5,152 C-140.61700439453125,152.48899841308594 -155.82000732421875,151.3489990234375 -170.41099548339844,149.1280059814453 C-195.23399353027344,145.35000610351562 -218.28900146484375,138.4459991455078 -246,131.125 C-246.25,134.5 -246,141.375 -246,145.125 C-218.5749969482422,153.30599975585938 -195.61700439453125,159.55499267578125 -170.83099365234375,163.0050048828125 C-155.8520050048828,165.08999633789062 -140.20399475097656,166.15199279785156 -122.5,166 C-35,165.25 33.5,126.625 121.75,126.5 C126.26799774169922,126.49400329589844 131.11399841308594,126.59500122070312 136.27699279785156,126.83899688720703 C163.25900268554688,128.11300659179688 198.88099670410156,133.2550048828125 241.375,147 C241.375,147 241.25,134.75 241.5,131.125 C199.093994140625,118.93299865722656 163.16200256347656,113.84500122070312 136.1439971923828,112.58000183105469 C131.30499267578125,112.35399627685547 126.75299835205078,112.25 122.5,112.25z"/></g></g><g style="display: block;" transform="matrix(0.800000011920929,0,0,0.800000011920929,257.9656066894531,250.03680419921875)" opacity="1"><g opacity="1" transform="matrix(1,0,0,1,0,0)"><path stroke-linecap="round" stroke-linejoin="round" fill-opacity="0" stroke="rgb(3,81,110)" stroke-opacity="1" stroke-width="8" d=" M-246.5,-145.5 C-246.5,-139 -246.5,144.218994140625 -246.5,146.593994140625 C-244.71200561523438,146.76499938964844 -241.55099487304688,147.5780029296875 -237.75900268554688,148.50999450683594 C-220.5,152.75 -191.07200622558594,159.75999450683594 -178.26499938964844,161.58399963378906 C-147.25,166 -127.13200378417969,165.62600708007812 -103.76799774169922,164.74600219726562 C-50.75,162.75 -4.125,146.125 27.19499969482422,139.3300018310547 C47.95800018310547,134.8249969482422 68.79000091552734,130.64500427246094 83.74700164794922,128.94000244140625 C106.25,126.375 122.875,126.75 143.25,128.35899353027344 C183.33700561523438,131.52499389648438 217.79400634765625,139.2030029296875 241.43800354003906,147.031005859375 C241.43800354003906,147.09300231933594 241.406005859375,147.09300231933594 241.406005859375,147.06199645996094 C241.406005859375,147.06199645996094 241.406005859375,147.06199645996094 241.406005859375,147.06199645996094 C241.56199645996094,120.56199645996094 241.23399353027344,82.29100036621094 241.25,49.90599822998047 C241.26600646972656,17.08300018310547 241.43699645996094,-15.739999771118164 241.5,-48.5629997253418 C241.56199645996094,-80.91699981689453 241.5,-128.75 241.625,-145.625 C151.281005859375,-172.5 103.15699768066406,-165.1009979248047 78.5,-162.81199645996094 C23.042999267578125,-156.04600524902344 -48.707000732421875,-130.79600524902344 -83.375,-129.06199645996094 C-157.875,-120.1240005493164 -212.75,-139.625 -246.5,-145.5z"/></g></g></g></svg>