<svg xmlns="http://www.w3.org/2000/svg" xmlns:xlink="http://www.w3.org/1999/xlink" viewBox="0 0 512 512" width="512" height="512" style="width: 100%; height: 100%; transform: translate3d(0,0,0);" preserveAspectRatio="xMidYMid meet"><defs><clipPath id="__lottie_element_28843"><rect width="512" height="512" x="0" y="0"/></clipPath><linearGradient id="__lottie_element_28849" spreadMethod="pad" gradientUnits="userSpaceOnUse" x1="-4.539999961853027" y1="163.9239959716797" x2="6.368000030517578" y2="-124.0270004272461"><stop offset="0%" stop-color="rgb(149,95,37)"/><stop offset="41%" stop-color="rgb(168,119,59)"/><stop offset="63%" stop-color="rgb(187,142,82)"/><stop offset="84%" stop-color="rgb(213,173,111)"/><stop offset="100%" stop-color="rgb(240,205,140)"/></linearGradient><g id="__lottie_element_28850"/><linearGradient id="__lottie_element_28856" spreadMethod="pad" gradientUnits="userSpaceOnUse"><stop/><stop/><stop/></linearGradient><mask id="__lottie_element_28850_1" mask-type="alpha"><g id="__lottie_element_28850"/></mask><linearGradient id="__lottie_element_28908" spreadMethod="pad" gradientUnits="userSpaceOnUse"><stop/><stop/><stop/></linearGradient></defs><g clip-path="url(#__lottie_element_28843)"><g style="display: block;" transform="matrix(1.0499999523162842,0,0,1.0499999523162842,256,260)" opacity="1"><g opacity="1" transform="matrix(1,0,0,1,0,0)"><path stroke-linecap="butt" stroke-linejoin="miter" fill-opacity="0" stroke-miterlimit="4" stroke="rgb(157,116,64)" stroke-opacity="1" stroke-width="2" d="M0 0"/></g><g opacity="1" transform="matrix(1,0,0,1,0,0)"><path fill="url(#__lottie_element_28849)" fill-opacity="1" d=" M118.9729995727539,-151.52200317382812 C45.327999114990234,-201.2989959716797 -19.500999450683594,-197.45899963378906 -70.14199829101562,-174.33799743652344 C-120.78299713134766,-151.2169952392578 -157.23699951171875,-108.81500244140625 -174.13499450683594,-81.47100067138672 C-191.0330047607422,-54.12699890136719 -202.62100219726562,-5.6579999923706055 -190.90199279785156,43.00199890136719 C-179.18299865722656,91.66200256347656 -144.1580047607422,140.51300048828125 -67.83000183105469,168.6230010986328 C-23.07200050354004,185.1060028076172 32.32899856567383,182.84800720214844 80.9469985961914,163.08099365234375 C129.56500244140625,143.31399536132812 171.3990020751953,106.03800201416016 189.0229949951172,52.486000061035156 C204.44200134277344,5.632999897003174 199.6320037841797,-36.78300094604492 184.61599731445312,-71.77899932861328 C169.60000610351562,-106.7750015258789 144.37899780273438,-134.35000610351562 118.9729995727539,-151.52200317382812z"/></g><g opacity="0.7000000000000001" transform="matrix(1,0,0,1,0,0)"><path fill="rgb(255,232,174)" fill-opacity="1" d=" M173.17999267578125,88.44400024414062 C186.61099243164062,58.99700164794922 190.77999877929688,42.183998107910156 186.3300018310547,-7.625999927520752 C181.88999938964844,-57.43600082397461 156.44000244140625,-95.61599731445312 112.19000244140625,-131.96600341796875 C67.94999694824219,-168.3159942626953 -0.1509999930858612,-170.06700134277344 -32.93000030517578,-166.73599243164062 C-74.76100158691406,-162.48500061035156 -128.75399780273438,-107.16899871826172 -152.98399353027344,-83.12899780273438 C-177.19400024414062,-59.0989990234375 -195.86300659179688,-3.6700000762939453 -190.8699951171875,51.624000549316406 C-232.0399932861328,-101.52200317382812 -86.87999725341797,-179.17599487304688 -22.360000610351562,-187.16600036621094 C42.15999984741211,-195.14599609375 91.4800033569336,-174.18600463867188 118.97000122070312,-151.5260009765625 C166.2899932861328,-112.50599670410156 240.9600067138672,-33.275001525878906 173.17999267578125,88.44400024414062z"/></g><g opacity="0.3" transform="matrix(1,0,0,1,0,0)"><path fill="rgb(122,64,24)" fill-opacity="1" d=" M189.02000427246094,52.48400115966797 C178.9739990234375,87.01799774169922 163.2100067138672,117.00399780273438 107.30000305175781,152.6439971923828 C51.380001068115234,188.28399658203125 -10.069999694824219,187.6739959716797 -67.83000183105469,168.62399291992188 C-125.58999633789062,149.57400512695312 -156.92999267578125,121.92400360107422 -178.44000244140625,83.21399688720703 C-197.11000061035156,49.58399963378906 -205.60000610351562,-8.605999946594238 -185.36000061035156,-59.145999908447266 C-185.36000061035156,-59.145999908447266 -185.35000610351562,-59.15599822998047 -185.35000610351562,-59.15599822998047 C-185.35000610351562,-59.15599822998047 -219.5399932861328,64.08399963378906 -80.29000091552734,122.0739974975586 C58.95000076293945,180.04400634765625 197.20799255371094,85.07499694824219 189.0229949951172,-57.50600051879883 C194.5500030517578,-35.52000045776367 204.28700256347656,0 189.02000427246094,52.48400115966797z"/></g><g opacity="1" transform="matrix(1,0,0,1,0,0)"><path stroke-linecap="round" stroke-linejoin="round" fill-opacity="0" stroke="rgb(93,57,33)" stroke-opacity="1" stroke-width="8" d=" M118.97200012207031,-151.52200317382812 C91.48400115966797,-174.1909942626953 42.16299819946289,-195.14999389648438 -22.357999801635742,-187.16200256347656 C-86.87899780273438,-179.1739959716797 -140.33900451660156,-136.16000366210938 -174.13499450683594,-81.47100067138672 C-207.93099975585938,-26.781999588012695 -199.94400024414062,44.49800109863281 -178.43699645996094,83.20999908447266 C-156.92999267578125,121.9219970703125 -125.59100341796875,149.57400512695312 -67.83000183105469,168.6230010986328 C-10.069000244140625,187.6719970703125 51.37900161743164,188.28700256347656 107.2969970703125,152.64700317382812 C163.21499633789062,117.00700378417969 176.73300170898438,86.28299713134766 189.0229949951172,52.486000061035156 C201.31300354003906,18.690000534057617 195.89100646972656,-36.57699966430664 189.0229949951172,-57.50600051879883 C180.72799682617188,-82.78299713134766 166.28700256347656,-112.50199890136719 118.97200012207031,-151.52200317382812z"/></g><g opacity="1" transform="matrix(1,0,0,1,0,0)"><path stroke-linecap="round" stroke-linejoin="round" fill-opacity="0" stroke="rgb(158,116,65)" stroke-opacity="1" stroke-width="8" d=" M194.75399780273438,-27.67300033569336 C193.38699340820312,-40.0099983215332 191.2830047607422,-50.61800003051758 189.0229949951172,-57.50600051879883 C180.72799682617188,-82.78299713134766 166.28700256347656,-112.50199890136719 118.97200012207031,-151.52200317382812 C118.97200012207031,-151.52200317382812 118.97200012207031,-151.52200317382812 118.97200012207031,-151.52200317382812 C91.48400115966797,-174.1909942626953 42.16299819946289,-195.14999389648438 -22.357999801635742,-187.16200256347656 C-86.87899780273438,-179.1739959716797 -140.33900451660156,-136.16000366210938 -174.13499450683594,-81.47100067138672 C-185.33299255371094,-63.35100173950195 -191.94400024414062,-43.409000396728516 -194.9949951171875,-23.43400001525879"/></g></g><g style="display: block;" transform="matrix(1.0499999523162842,0,0,1.0499999523162842,256,260)" opacity="1"><g opacity="0.1" transform="matrix(1,0,0,1,0,0)"><path fill="rgb(122,64,24)" fill-opacity="1" d=" M177.39199829101562,-84.99800109863281 C182.96299743652344,-68.83300018310547 166.90899658203125,-77.1969985961914 154.93600463867188,-75.49600219726562 C130.55599975585938,-72.03199768066406 146.4040069580078,-55.834999084472656 127.12200164794922,-55.834999084472656 C110.35600280761719,-55.834999084472656 129.24899291992188,-34.95399856567383 146.4040069580078,-36.35200119018555 C163.5590057373047,-37.75 154.93600463867188,-18.261999130249023 168.4409942626953,-8.529000282287598 C192.53900146484375,8.83899974822998 182.46200561523438,83.10900115966797 189.0229949951172,52.486000061035156 C208.48699951171875,-38.354000091552734 177.39199829101562,-84.99800109863281 177.39199829101562,-84.99800109863281z"/></g><g opacity="0.2" transform="matrix(1,0,0,1,0,0)"><path fill="rgb(122,64,24)" fill-opacity="1" d=" M-185.36000061035156,-59.145999908447266 C-184.45199584960938,-43.599998474121094 -185.33799743652344,-31.93000030517578 -178.2689971923828,-25.02400016784668 C-171.1999969482422,-18.118000030517578 -163.16099548339844,-27.3799991607666 -152.98399353027344,-16.2450008392334 C-142.8070068359375,-5.110000133514404 -139.3249969482422,-1.6039999723434448 -129.73599243164062,-0.8880000114440918 C-129.73599243164062,-0.8880000114440918 -133.9250030517578,0.3230000138282776 -136.8459930419922,2.556999921798706 C-140.34500122070312,5.234000205993652 -142.3780059814453,8.960000038146973 -137.9720001220703,8.170999526977539 C-133.73300170898438,7.4120001792907715 -124.5989990234375,6.158999919891357 -118.79199981689453,8.055000305175781 C-109.38500213623047,11.126999855041504 -90.6050033569336,20.989999771118164 -103.53299713134766,42.64400100708008 C-116.46099853515625,64.2979965209961 -123.7509994506836,66.4209976196289 -136.38800048828125,74.41400146484375 C-155.36199951171875,86.41500091552734 -158.93699645996094,68.21499633789062 -171.16200256347656,83.30799865722656 C-177.66600036621094,91.33899688720703 -184.96499633789062,69.82599639892578 -187.66700744628906,62.14500045776367 C-211.36000061035156,-5.201000213623047 -185.36000061035156,-59.145999908447266 -185.36000061035156,-59.145999908447266z"/></g><g opacity="0.4" transform="matrix(1,0,0,1,0,0)"><path fill="rgb(176,105,41)" fill-opacity="1" d=" M-87.81199645996094,-84.5009994506836 C-107.65699768066406,-87.02999877929688 -115.15599822998047,-84.5530014038086 -117.38099670410156,-75.28299713134766 C-118.26899719238281,-71.58100128173828 -120.87899780273438,-70.21900177001953 -123.73300170898438,-69.11599731445312 C-128.0260009765625,-67.45700073242188 -132.87399291992188,-66.38500213623047 -133.2530059814453,-58.821998596191406 C-133.5500030517578,-52.888999938964844 -136.85899353027344,-66.22100067138672 -132.40899658203125,-70.55899810791016 C-127.95899963378906,-74.89700317382812 -125.23600006103516,-71.80000305175781 -123.45999908447266,-78.4739990234375 C-121.68399810791016,-85.14800262451172 -120.5719985961914,-97.01300048828125 -113.89800262451172,-97.75499725341797 C-107.2239990234375,-98.49700164794922 -87.81199645996094,-84.5009994506836 -87.81199645996094,-84.5009994506836z"/></g><g opacity="0.4" transform="matrix(1,0,0,1,0,0)"><path fill="rgb(176,105,41)" fill-opacity="1" d=" M96.68299865722656,-142.9199981689453 C86.39600372314453,-142.2010040283203 77.53600311279297,-135.9969940185547 73.7770004272461,-126.2699966430664 C66.25900268554688,-123.27400207519531 62.685001373291016,-114.20899963378906 47.551998138427734,-118.48600006103516 C31.75200080871582,-122.95099639892578 30.200000762939453,-114.62699890136719 19.895999908447266,-123.79499816894531 C9.592000007629395,-132.96299743652344 14.234000205993652,-125.91600036621094 -9.121999740600586,-131.64599609375 C-16.927000045776367,-133.56100463867188 -2.5959999561309814,-126.38500213623047 8.052000045776367,-122.60700225830078 C18.700000762939453,-118.8290023803711 25.569000244140625,-111.73999786376953 38.62099838256836,-110.47599792480469 C48.65299987792969,-109.50499725341797 55.7760009765625,-104.27400207519531 62.9640007019043,-107.35800170898438 C70.47200012207031,-109.4800033569336 82.18599700927734,-98.19300079345703 82.18599700927734,-98.19300079345703 C82.18599700927734,-98.19300079345703 132.73300170898438,-94.75599670410156 132.9239959716797,-107.35800170898438 C133.33799743652344,-134.5760040283203 105.16500091552734,-143.51199340820312 96.68299865722656,-142.9199981689453z"/></g><g opacity="0.5" transform="matrix(1,0,0,1,0,0)"><path fill="rgb(176,105,41)" fill-opacity="1" d=" M31.31399917602539,-22.94099998474121 C56.4900016784668,-34.6870002746582 35.89899826049805,-66.28500366210938 24.783000946044922,-73.27300262451172 C16.767000198364258,-78.31199645996094 1.409000039100647,-83.98500061035156 -12.333999633789062,-72.78700256347656 C-26.07699966430664,-61.5890007019043 -32.474998474121094,-52.941001892089844 -51.4370002746582,-49.62200164794922 C-70.39900207519531,-46.303001403808594 -49.7239990234375,-36.73099899291992 -82.25,-25.562999725341797 C-86.06900024414062,-24.25200080871582 -56.80699920654297,-25.775999069213867 -44.89500045776367,-25.562999725341797 C-34.904998779296875,-25.385000228881836 -26.437999725341797,-23.542999267578125 -13.682999610900879,-40.75899887084961 C-4.044000148773193,-53.76900100708008 6.138000011444092,-11.194999694824219 31.31399917602539,-22.94099998474121z"/></g><g opacity="1" transform="matrix(1,0,0,1,0,0)"><g opacity="0.13" transform="matrix(1,0,0,1,0,0)"><path fill="rgb(122,64,24)" fill-opacity="1" d=" M41.38199996948242,-12.543999671936035 C35.382999420166016,-5.354000091552734 29.514999389648438,0.9599999785423279 8.571000099182129,4.406000137329102 C1.7599999904632568,5.5269999504089355 -5.978000164031982,3.061000108718872 -10.437000274658203,5.230999946594238 C-14.895999908447266,7.401000022888184 -21.66200065612793,10.157999992370605 -36.069000244140625,7.2129998207092285 C-50.47600173950195,4.26800012588501 -31.12299919128418,17.475000381469727 -30.773000717163086,23.429000854492188 C-30.42300033569336,29.382999420166016 -39.52899932861328,45.28900146484375 -34.97600173950195,54.499000549316406 C-30.42300033569336,63.70899963378906 -14.909000396728516,77.61599731445312 -14.95199966430664,105.56400299072266 C-14.994999885559082,133.51199340820312 14.727999687194824,101.28199768066406 15.609999656677246,90.7490005493164 C16.492000579833984,80.21600341796875 16.034000396728516,72.72799682617188 21.239999771118164,66.99800109863281 C26.445999145507812,61.268001556396484 39.75299835205078,46.347999572753906 42.67399978637695,46.196998596191406 C45.595001220703125,46.04600143432617 62.4739990234375,44.709999084472656 69.13400268554688,37.750999450683594 C75.79399871826172,30.79199981689453 86.08200073242188,2.7239999771118164 83.5739974975586,0 C81.06600189208984,-2.7239999771118164 62.68299865722656,-11.130999565124512 54.32400131225586,-10.295000076293945 C45.96500015258789,-9.458999633789062 41.38199996948242,-12.543999671936035 41.38199996948242,-12.543999671936035z"/></g><g opacity="0.2" transform="matrix(1,0,0,1,0,0)"><path fill="rgb(122,64,24)" fill-opacity="1" d=" M15.407999992370605,104.44100189208984 C15.407999992370605,97.04000091552734 15.407999992370605,76.21900177001953 18.427000045776367,70.78099822998047 C21.445999145507812,65.34300231933594 40.8849983215332,46.67300033569336 42.67399978637695,46.196998596191406 C44.4630012512207,45.72100067138672 66.04100036621094,45.430999755859375 72.38600158691406,33.64699935913086 C75.0270004272461,28.742000579833984 69.8290023803711,36.25400161743164 41.861000061035156,36.59600067138672 C36.1619987487793,36.66600036621094 14.59000015258789,61.78200149536133 12.357999801635742,65.63800048828125 C10.12600040435791,69.49400329589844 9.769000053405762,102.45099639892578 9.769000053405762,102.45099639892578 C9.769000053405762,102.45099639892578 15.407999992370605,104.44100189208984 15.407999992370605,104.44100189208984z"/></g></g></g><g style="display: block;" transform="matrix(1.0499999523162842,0,0,1.0499999523162842,256,260)" opacity="1"><g opacity="0.5" transform="matrix(1,0,0,1,0,0)"><path fill="rgb(255,232,174)" fill-opacity="1" d=" M-109.9209976196289,-84.06999969482422 C-120.48600006103516,-79.822998046875 -114.02999877929688,-72.31700134277344 -124.12200164794922,-68.96800231933594 C-124.91400146484375,-68.70500183105469 -121.22000122070312,-66.67500305175781 -116.83699798583984,-67.1050033569336 C-111.86699676513672,-67.59300231933594 -111.26399993896484,-71.9280014038086 -104.44200134277344,-71.2030029296875 C-84.35800170898438,-69.06700134277344 -66.58499908447266,-76.34300231933594 -62.42399978637695,-83.5989990234375 C-58.26300048828125,-90.8550033569336 -56.88399887084961,-118.0250015258789 -59.88800048828125,-120.61000061035156 C-62.891998291015625,-123.19599914550781 -95.54900360107422,-89.84700012207031 -109.9209976196289,-84.06999969482422z"/></g><g opacity="0.5" transform="matrix(1,0,0,1,0,0)"><path fill="rgb(255,232,174)" fill-opacity="1" d=" M-9.74899959564209,-130.52000427246094 C-9.74899959564209,-130.52000427246094 -10.369000434875488,-127.35700225830078 -5.46999979019165,-122.44499969482422 C-1.2319999933242798,-118.19599914550781 8.895999908447266,-113.62200164794922 12.833999633789062,-109.25499725341797 C21.325000762939453,-99.83999633789062 32.202999114990234,-90.6729965209961 42.67399978637695,-90.6729965209961 C55.73099899291992,-90.6729965209961 74.58399963378906,-71.51300048828125 83.45700073242188,-65.83899688720703 C93.9010009765625,-59.15999984741211 119.99400329589844,-73.72799682617188 129.36099243164062,-87.98899841308594 C148.52699279785156,-117.16799926757812 91.54499816894531,-100.06400299072266 87.45999908447266,-98.82599639892578 C78.24600219726562,-96.03399658203125 74.04399871826172,-110.07599639892578 62.9640007019043,-107.35800170898438 C54.459999084472656,-105.27200317382812 46.590999603271484,-109.64600372314453 44.45199966430664,-109.85099792480469 C30.70400047302246,-111.16799926757812 25.222000122070312,-113.69599914550781 17.1299991607666,-118.427001953125 C9.038000106811523,-123.15799713134766 -1.7230000495910645,-125.86299896240234 -9.74899959564209,-130.52000427246094z"/></g><g opacity="0.35000000000000003" transform="matrix(1,0,0,1,0,0)"><path fill="rgb(255,232,174)" fill-opacity="1" d=" M-20.11199951171875,-33.275001525878906 C-25.739999771118164,-28.80699920654297 -31.243999481201172,-25.304000854492188 -38.06999969482422,-25.433000564575195 C-44.895999908447266,-25.562000274658203 -66.71499633789062,-25.760000228881836 -76.1449966430664,-25.02400016784668 C-85.57499694824219,-24.288000106811523 -83.80500030517578,-21.283000946044922 -89.3759994506836,-19.88599967956543 C-94.9469985961914,-18.48900032043457 -95.98500061035156,-19.038000106811523 -110.15599822998047,-7.624000072479248 C-115.47000122070312,-3.3440001010894775 -137.4810028076172,-2.062999963760376 -140.37600708007812,7.2129998207092285 C-141.36199951171875,10.37399959564209 -122.50199890136719,2.311000108718872 -108.34400177001953,12.437999725341797 C-93.37699890136719,23.14299964904785 -92.85600280761719,8.583000183105469 -84.21499633789062,0 C-75.5739974975586,-8.583000183105469 -57.676998138427734,1.0149999856948853 -36.069000244140625,7.2129998207092285 C-14.461000442504883,13.41100025177002 -14.03499984741211,3.552000045776367 -4.863999843597412,4.242000102996826 C4.307000160217285,4.932000160217285 42.67499923706055,7.860000133514404 46.58100128173828,-29 C46.58100128173828,-29 -20.11199951171875,-33.275001525878906 -20.11199951171875,-33.275001525878906z"/></g><g opacity="0.2" transform="matrix(1,0,0,1,0,0)"><path fill="rgb(255,232,174)" fill-opacity="1" d=" M-147.0279998779297,64.41100311279297 C-147.0279998779297,64.41100311279297 -150.19000244140625,76.38700103759766 -141.86399841308594,83.65499877929688 C-133.53799438476562,90.9229965209961 -126.63099670410156,85.2040023803711 -119.35199737548828,90.30000305175781 C-112.072998046875,95.39600372314453 -107.92400360107422,102.0770034790039 -100.6449966430664,101.76699829101562 C-93.36599731445312,101.45700073242188 -85.66400146484375,102.0479965209961 -85.66400146484375,97.26000213623047 C-85.66400146484375,97.26000213623047 -91.01200103759766,98.76100158691406 -93.13600158691406,90.2959976196289 C-95.26000213623047,81.83100128173828 -97.56099700927734,69.96900177001953 -101.38899993896484,69.5790023803711 C-105.21700286865234,69.18900299072266 -121.8550033569336,70.85800170898438 -124.12200164794922,63.36600112915039 C-126.38899993896484,55.874000549316406 -147.0279998779297,64.41100311279297 -147.0279998779297,64.41100311279297z"/></g><g opacity="0.2" transform="matrix(1,0,0,1,0,0)"><path fill="rgb(255,232,174)" fill-opacity="1" d=" M69.13400268554688,37.750999450683594 C61.31800079345703,44.145999908447266 50.86199951171875,45.9630012512207 42.67399978637695,46.196998596191406 C39.83300018310547,46.27799987792969 22.52199935913086,65.28500366210938 19.416000366210938,69.28900146484375 C16.309999465942383,73.29299926757812 15.465999603271484,96.86499786376953 15.447999954223633,97.37899780273438 C15.430000305175781,97.89299774169922 21.283000946044922,98.74600219726562 28.2810001373291,105.39299774169922 C34.005001068115234,110.8290023803711 41.38199996948242,95.40599822998047 58.819000244140625,99.41699981689453 C73.13200378417969,102.70899963378906 60.34199905395508,77.61399841308594 66.53399658203125,68.21499633789062 C75.01000213623047,55.3489990234375 82.72699737548828,26.6299991607666 69.13400268554688,37.750999450683594z"/></g></g><g style="display: block;" transform="matrix(1.0499999523162842,0,0,1.0499999523162842,256,260)" opacity="1"><g opacity="0.2" transform="matrix(1,0,0,1,0,0)"><path fill="rgb(122,64,24)" fill-opacity="1" d=" M102.73600006103516,-16.882999420166016 C110.9000015258789,-17.073999404907227 119.2699966430664,-18.964000701904297 124.8489990234375,-6.998000144958496 C130.42799377441406,4.9679999351501465 138.11399841308594,6.26200008392334 152.2790069580078,2.9760000705718994 C157.19900512695312,1.8350000381469727 148.8780059814453,0.4359999895095825 143.36399841308594,-1.2660000324249268 C128.58599853515625,-5.826000213623047 127.87200164794922,-20.625 119.76200103759766,-20.625 C111.6520004272461,-20.625 103.60900115966797,-19.533000946044922 97.8030014038086,-21.541000366210938 C96.03399658203125,-22.152999877929688 98.87100219726562,-16.79199981689453 102.73600006103516,-16.882999420166016z"/></g><g opacity="0.2" transform="matrix(1,0,0,1,0,0)"><path fill="rgb(122,64,24)" fill-opacity="1" d=" M-100.55899810791016,-14.831999778747559 C-104.38800048828125,-11.795000076293945 -111.4749984741211,-5.599999904632568 -117.89199829101562,-9.329000473022461 C-124.30899810791016,-13.057999610900879 -133.7209930419922,-10.496999740600586 -138.3489990234375,-17.6200008392334 C-142.9770050048828,-24.743000030517578 -151.156005859375,-27.860000610351562 -150.22999572753906,-29.382999420166016 C-149.3040008544922,-30.9060001373291 -140.1739959716797,-29.6560001373291 -136.49400329589844,-24.382999420166016 C-132.81399536132812,-19.110000610351562 -126.99700164794922,-21.93600082397461 -120.34300231933594,-21.44499969482422 C-113.69000244140625,-20.95400047302246 -110.72599792480469,-15.437999725341797 -105.9729995727539,-18.14299964904785 C-101.22000122070312,-20.847999572753906 -94.01899719238281,-20.018999099731445 -100.55899810791016,-14.831999778747559z"/></g><g opacity="0.13" transform="matrix(1,0,0,1,0,0)"><path fill="rgb(122,64,24)" fill-opacity="1" d=" M-50.71900177001953,31.496999740600586 C-54.61000061035156,27.648000717163086 -60.00899887084961,30.28499984741211 -54.98699951171875,34.98400115966797 C-49.96500015258789,39.68299865722656 -47.957000732421875,34.229000091552734 -50.71900177001953,31.496999740600586z"/></g><g opacity="0.13" transform="matrix(1,0,0,1,0,0)"><path fill="rgb(122,64,24)" fill-opacity="1" d=" M-57.018001556396484,42.74800109863281 C-60.391998291015625,40.99100112915039 -67.25900268554688,42.13100051879883 -69.10800170898438,47.06100082397461 C-70.95600128173828,51.99100112915039 -62.94599914550781,50.10300064086914 -58.8380012512207,52.07400131225586 C-54.72999954223633,54.04499816894531 -54.500999450683594,44.058998107910156 -57.018001556396484,42.74800109863281z"/></g><g opacity="0.1" transform="matrix(1,0,0,1,0,0)"><path fill="rgb(122,64,24)" fill-opacity="1" d=" M-45.071998596191406,-97.34400177001953 C-48.805999755859375,-95.84200286865234 -47.65299987792969,-97.34400177001953 -53.972999572753906,-90.6729965209961 C-56.98400115966797,-87.49400329589844 -54.19200134277344,-82.9260025024414 -49.367000579833984,-83.12899780273438 C-44.54199981689453,-83.33200073242188 -44.762001037597656,-90.64900207519531 -42.130001068115234,-93.89900207519531 C-39.49800109863281,-97.14900207519531 -40.426998138427734,-99.21199798583984 -45.071998596191406,-97.34400177001953z"/></g><g opacity="0.13" transform="matrix(1,0,0,1,0,0)"><path fill="rgb(122,64,24)" fill-opacity="1" d=" M100.91799926757812,20.410999298095703 C97.26599884033203,22.552000045776367 89.90399932861328,17.229999542236328 89.65899658203125,23.83799934387207 C89.41400146484375,30.445999145507812 91.322998046875,35.040000915527344 101.5469970703125,30.993000030517578 C107.66699981689453,28.570999145507812 110.46299743652344,24.32699966430664 109.9729995727539,20.410999298095703 C109.48300170898438,16.4950008392334 109.61100006103516,15.315999984741211 100.91799926757812,20.410999298095703z"/></g><g opacity="0.1" transform="matrix(1,0,0,1,0,0)"><path fill="rgb(122,64,24)" fill-opacity="1" d=" M36.1870002746582,0.578000009059906 C34.02399826049805,8.03499984741211 26.52199935913086,17.263999938964844 9.147000312805176,19.886999130249023 C-8.227999687194824,22.510000228881836 -7.940999984741211,16.608999252319336 -18.08300018310547,16.2810001373291 C-28.225000381469727,15.95300006866455 -14.173999786376953,4.807000160217285 -5.955999851226807,4.807000160217285 C2.26200008392334,4.807000160217285 15.447999954223633,4.5320000648498535 21.68199920654297,2.071000099182129 C31.524999618530273,-1.8140000104904175 37.111000061035156,-2.6080000400543213 36.1870002746582,0.578000009059906z"/></g><g opacity="0.2" transform="matrix(1,0,0,1,0,0)"><path fill="rgb(122,64,24)" fill-opacity="1" d=" M-122.4800033569336,70.78099822998047 C-102.91600036621094,70.73799896240234 -99.19300079345703,62.95100021362305 -95.26000213623047,81.83100128173828 C-91.3270034790039,100.71099853515625 -89.72799682617188,94.5270004272461 -79.33799743652344,99.41699981689453 C-68.947998046875,104.30699920654297 -78.7969970703125,94.87200164794922 -83.85399627685547,92.34300231933594 C-88.91100311279297,89.81400299072266 -91.83000183105469,81.73100280761719 -92.60800170898438,73.22599792480469 C-93.38600158691406,64.72100067138672 -99.38899993896484,60.80400085449219 -111.4489974975586,62.55500030517578 C-123.50900268554688,64.30599975585938 -122.4800033569336,70.78099822998047 -122.4800033569336,70.78099822998047z"/></g><g opacity="0.4" transform="matrix(1,0,0,1,0,0)"><path fill="rgb(255,232,174)" fill-opacity="1" d=" M43.178001403808594,-82.87300109863281 C35.340999603271484,-79.99299621582031 43.13600158691406,-77.52799987792969 45.987998962402344,-77.48799896240234 C48.73400115966797,-77.44999694824219 54.4379997253418,-73.59400177001953 52.814998626708984,-79.85399627685547 C52.152000427246094,-82.41300201416016 46.893001556396484,-84.23799896240234 43.178001403808594,-82.87300109863281z"/></g></g><g style="display: block;" transform="matrix(1.0499999523162842,0,0,1.0499999523162842,256,260)" opacity="1"><g opacity="1" transform="matrix(1,0,0,1,0,0)"><g opacity="1" transform="matrix(1,0,0,1,0.1340000033378601,0.039000000804662704)"><path fill="rgb(127,83,52)" fill-opacity="1" d=" M7.611999988555908,-65.68699645996094 C-10.126999855041504,-63.15299987792969 -18.454999923706055,-43.481998443603516 -17.006999969482422,-29 C-15.559000015258789,-14.517999649047852 -3.009000062942505,-5.751999855041504 14.85200023651123,-7.9629998207092285 C32.7130012512207,-10.173999786376953 44.78200149536133,-23.690000534057617 42.36800003051758,-32.37900161743164 C39.95399856567383,-41.06800079345703 24.506999969482422,-68.10099792480469 7.611999988555908,-65.68699645996094z"/></g><g opacity="0.4" transform="matrix(1,0,0,1,0,0)"><path fill="rgb(2,0,1)" fill-opacity="1" d=" M-17.136999130249023,-33.64899826049805 C-15.597000122070312,-22.819000244140625 -2.4839999675750732,-20.722999572753906 11.840999603271484,-23.09600067138672 C24.451000213623047,-25.184999465942383 39.0629997253418,-33.2760009765625 35.21799850463867,-44.507999420166016 C35.21799850463867,-44.507999420166016 60.904998779296875,-19.077999114990234 14.85200023651123,-7.9629998207092285 C-18.676000595092773,0.1289999932050705 -17.136999130249023,-33.64899826049805 -17.136999130249023,-33.64899826049805z"/></g><g opacity="0.3" transform="matrix(1,0,0,1,0,0)"><path stroke-linecap="round" stroke-linejoin="round" fill-opacity="0" stroke="rgb(255,237,192)" stroke-opacity="1" stroke-width="8" d=" M-17.006999969482422,-29 C-17.006999969482422,-29 -15.331000328063965,-54.297000885009766 6.660999774932861,-57.625 C23.451000213623047,-60.16600036621094 39.513999938964844,-38.354000091552734 39.513999938964844,-38.354000091552734"/></g><g opacity="1" transform="matrix(1,0,0,1,0,0)"><path stroke-linecap="butt" stroke-linejoin="miter" fill-opacity="0" stroke-miterlimit="10" stroke="rgb(2,0,1)" stroke-opacity="1" stroke-width="8" d=" M7.611999988555908,-65.68699645996094 C-10.126999855041504,-63.15299987792969 -18.454999923706055,-43.481998443603516 -17.006999969482422,-29 C-15.559000015258789,-14.517999649047852 -3.009000062942505,-5.751999855041504 14.85200023651123,-7.9629998207092285 C32.7130012512207,-10.173999786376953 44.78200149536133,-23.690000534057617 42.36800003051758,-32.37900161743164 C39.95399856567383,-41.06800079345703 24.506999969482422,-68.10099792480469 7.611999988555908,-65.68699645996094z"/></g><g opacity="0.2" transform="matrix(1,0,0,1,0,0)"><path fill="rgb(2,0,1)" fill-opacity="1" d=" M22.216999053955078,-44.08000183105469 C13.40999984741211,-52.611000061035156 6.7170000076293945,-52.875 -1.440000057220459,-44.71799850463867 C-9.597000122070312,-36.56100082397461 4.541999816894531,-39.007999420166016 10.387999534606934,-38.4640007019043 C16.233999252319336,-37.91999816894531 27.118999481201172,-39.33100128173828 22.216999053955078,-44.08000183105469z"/></g><g opacity="0.1" transform="matrix(1,0,0,1,0,0)"><path fill="rgb(255,237,192)" fill-opacity="1" d=" M29.52899932861328,-36.025001525878906 C23.424999237060547,-41.637001037597656 20.240999221801758,-33.275001525878906 14.053000450134277,-30.06999969482422 C9.847999572753906,-27.892000198364258 16.41699981689453,-23.708999633789062 24.332000732421875,-26.9060001373291 C31.179000854492188,-29.672000885009766 31.618000030517578,-34.104000091552734 29.52899932861328,-36.025001525878906z"/></g></g></g><g style="display: block;" transform="matrix(1.0499999523162842,0,0,1.0499999523162842,256,260)" opacity="1"><g opacity="1" transform="matrix(1,0,0,1,0,0)"><g opacity="0.4" transform="matrix(1,0,0,1,0,0)"><path fill="rgb(122,64,24)" fill-opacity="1" d=" M-132.572998046875,81.83100128173828 C-119.01399993896484,79.4469985961914 -95.26000213623047,56.869998931884766 -95.26000213623047,44.0629997253418 C-95.26000213623047,31.256000518798828 -101.3550033569336,13.479000091552734 -114.30500030517578,9.210000038146973 C-127.25499725341797,4.940999984741211 -144.7790069580078,8.468000411987305 -147.843994140625,12.85200023651123 C-164.44500732421875,36.59600067138672 -140.6269989013672,40.94900131225586 -147.843994140625,59.43199920654297 C-156.2790069580078,81.03199768066406 -132.572998046875,81.83100128173828 -132.572998046875,81.83100128173828z"/></g><g opacity="1" transform="matrix(1,0,0,1,0,0)"><path fill="rgb(127,83,52)" fill-opacity="1" d=" M-146.2729949951172,39.95399856567383 C-145.44700622558594,51.0620002746582 -150.79299926757812,64.69400024414062 -142.99000549316406,70.51499938964844 C-133.06199645996094,77.9219970703125 -112.17500305175781,69 -107.62899780273438,57.63399887084961 C-103.08300018310547,46.268001556396484 -105.77899932861328,29.459999084472656 -120.25800323486328,22.525999069213867 C-128.7729949951172,18.448999404907227 -148.38299560546875,11.590999603271484 -146.2729949951172,39.95399856567383z"/></g><g opacity="0.4" transform="matrix(1,0,0,1,0,0)"><path fill="rgb(2,0,1)" fill-opacity="1" d=" M-143.4499969482422,44.6870002746582 C-141.94900512695312,56.64400100708008 -139.81100463867188,54.49300003051758 -129.78199768066406,57.1879997253418 C-125.58999633789062,58.31399917602539 -123.53700256347656,50.3390007019043 -122.09200286865234,44.62300109863281 C-120.64700317382812,38.90700149536133 -106.23799896240234,46.80400085449219 -107.42400360107422,36.59600067138672 C-107.42400360107422,36.59600067138672 -100.13899993896484,75.80899810791016 -130.3730010986328,73.22599792480469 C-157.5399932861328,70.90499877929688 -143.4499969482422,44.6870002746582 -143.4499969482422,44.6870002746582z"/></g><g opacity="0.3" transform="matrix(1,0,0,1,0,0)"><path stroke-linecap="butt" stroke-linejoin="miter" fill-opacity="0" stroke-miterlimit="10" stroke="rgb(255,237,192)" stroke-opacity="1" stroke-width="8" d=" M-146.05499267578125,35.86899948120117 C-145.53199768066406,27.53700065612793 -139.04400634765625,20.91900062561035 -123.68000030517578,27.768999099731445 C-109.75800323486328,33.97600173950195 -105.62100219726562,46.196998596191406 -105.62100219726562,46.196998596191406"/></g><g opacity="1" transform="matrix(1,0,0,1,0,0)"><path stroke-linecap="butt" stroke-linejoin="miter" fill-opacity="0" stroke-miterlimit="10" stroke="rgb(2,0,1)" stroke-opacity="1" stroke-width="8" d=" M-141.54299926757812,21.03700065612793 C-146.7030029296875,24.64900016784668 -145.51499938964844,28.840999603271484 -146.2729949951172,39.95399856567383 C-147.031005859375,51.06700134277344 -150.79299926757812,64.69400024414062 -142.99000549316406,70.51499938964844 C-133.06199645996094,77.9219970703125 -112.17500305175781,69 -107.62899780273438,57.63399887084961 C-103.08300018310547,46.268001556396484 -105.77899932861328,29.459999084472656 -120.25800323486328,22.525999069213867 C-128.7729949951172,18.448999404907227 -137.56300354003906,18.250999450683594 -141.54299926757812,21.03700065612793z"/></g></g></g><g style="display: block;" transform="matrix(1.0499999523162842,0,0,1.0499999523162842,256,260)" opacity="1"><g opacity="1" transform="matrix(1,0,0,1,0,0)"><g opacity="0.5" transform="matrix(1,0,0,1,0,0)"><path fill="rgb(176,105,41)" fill-opacity="1" d=" M-107.65799713134766,-87.02899932861328 C-126.79499816894531,-107.80599975585938 -112.36699676513672,-128.33799743652344 -97.42400360107422,-138.69200134277344 C-80.88099670410156,-150.1540069580078 -59.55500030517578,-154.9949951171875 -58.27199935913086,-147.9709930419922 C-56.79499816894531,-139.88499450683594 -53.34199905395508,-139.89300537109375 -51.53300094604492,-129.21499633789062 C-48.84000015258789,-113.31600189208984 -55.66999816894531,-105 -64.79399871826172,-91.69400024414062 C-71.63500213623047,-81.71800231933594 -107.65799713134766,-87.02899932861328 -107.65799713134766,-87.02899932861328z"/></g><g opacity="1" transform="matrix(1,0,0,1,0,0)"><path fill="rgb(127,83,52)" fill-opacity="1" d=" M-64.98999786376953,-137.48800659179688 C-71.18900299072266,-141.27499389648438 -89.47699737548828,-136.00399780273438 -101.72100067138672,-123.38899993896484 C-113.96499633789062,-110.77400207519531 -115.81999969482422,-95.19100189208984 -107.65799713134766,-87.02899932861328 C-99.49600219726562,-78.86699676513672 -75.37899780273438,-79.9800033569336 -68.33000183105469,-92.59500122070312 C-61.28099822998047,-105.20999908447266 -54.88800048828125,-131.3159942626953 -64.98999786376953,-137.48800659179688z"/></g><g opacity="0.4" transform="matrix(1,0,0,1,0,0)"><path fill="rgb(2,0,1)" fill-opacity="1" d=" M-112.59300231933594,-100.95899963378906 C-109.66400146484375,-94.97200012207031 -105.81099700927734,-94.58599853515625 -98.68199920654297,-99.01799774169922 C-91.5530014038086,-103.44999694824219 -84.80999755859375,-101.71800231933594 -80.37799835205078,-96.03299713134766 C-75.9469985961914,-90.3479995727539 -68.69100189208984,-89.90499877929688 -65.7959976196289,-97.78399658203125 C-65.7959976196289,-97.78399658203125 -71.42500305175781,-78.36000061035156 -94.2699966430664,-79.91100311279297 C-117.11499786376953,-81.46199798583984 -112.59300231933594,-100.95899963378906 -112.59300231933594,-100.95899963378906z"/></g><g opacity="0.2" transform="matrix(1,0,0,1,0,0)"><path fill="rgb(2,0,1)" fill-opacity="1" d=" M-71.89800262451172,-104.42400360107422 C-72.40599822998047,-108.04299926757812 -74.65699768066406,-116.16699981689453 -86.18499755859375,-115.20099639892578 C-92.40799713134766,-114.68000030517578 -92.302001953125,-114.58499908447266 -86.18499755859375,-109.85199737548828 C-80.06800079345703,-105.11900329589844 -70.50700378417969,-94.51699829101562 -71.89800262451172,-104.42400360107422z"/></g><g opacity="0.3" transform="matrix(1,0,0,1,0,0)"><path stroke-linecap="butt" stroke-linejoin="miter" fill-opacity="0" stroke-miterlimit="10" stroke="rgb(255,237,192)" stroke-opacity="1" stroke-width="8" d=" M-112.24700164794922,-104.08300018310547 C-112.24700164794922,-104.08300018310547 -104.36000061035156,-126.31999969482422 -76.10800170898438,-131.14700317382812 C-61.439998626708984,-133.6540069580078 -61.10599899291992,-118.86100006103516 -64.30599975585938,-101.52200317382812"/></g><g opacity="1" transform="matrix(1,0,0,1,0,0)"><path stroke-linecap="butt" stroke-linejoin="miter" fill-opacity="0" stroke-miterlimit="10" stroke="rgb(2,0,1)" stroke-opacity="1" stroke-width="8" d=" M-64.98999786376953,-137.48800659179688 C-71.18900299072266,-141.27499389648438 -89.47699737548828,-136.00399780273438 -101.72100067138672,-123.38899993896484 C-113.96499633789062,-110.77400207519531 -115.81999969482422,-95.19100189208984 -107.65799713134766,-87.02899932861328 C-99.49600219726562,-78.86699676513672 -75.37899780273438,-79.9800033569336 -68.33000183105469,-92.59500122070312 C-61.28099822998047,-105.20999908447266 -54.88800048828125,-131.3159942626953 -64.98999786376953,-137.48800659179688z"/></g></g></g><g style="display: block;" transform="matrix(1.0499999523162842,0,0,1.0499999523162842,256,260)" opacity="1"><g opacity="1" transform="matrix(1,0,0,1,0,0)"><g opacity="0.5" transform="matrix(1,0,0,1,0,0)"><path fill="rgb(122,64,24)" fill-opacity="1" d=" M133.33700561523438,114.11599731445312 C153.76300048828125,111.20800018310547 150.95799255371094,81.27200317382812 150.95799255371094,74.41400146484375 C150.95799255371094,67.55599975585938 140.9010009765625,44.32099914550781 132.0919952392578,42.737998962402344 C123.28299713134766,41.154998779296875 92.45099639892578,40.74100112915039 87.6709976196289,54.499000549316406 C83.89399719238281,65.37000274658203 81.11100006103516,80.11499786376953 88.99099731445312,92.197998046875 C93.6989974975586,99.41699981689453 103.74600219726562,118.3290023803711 133.33700561523438,114.11599731445312z"/></g><g opacity="1" transform="matrix(1,0,0,1,0,0)"><path fill="rgb(109,68,39)" fill-opacity="1" d=" M94.73999786376953,53.409000396728516 C91.06500244140625,56.22600173950195 85.59200286865234,63.03799819946289 86.7959976196289,75.7969970703125 C88,88.55500030517578 88.48100280761719,91.98400115966797 101.4800033569336,99.41699981689453 C114.47899627685547,106.8499984741211 130.8489990234375,104.68399810791016 134.9409942626953,101.31400299072266 C139.0330047607422,97.94400024414062 148.4219970703125,83.73999786376953 146.01499938964844,73.38899993896484 C143.60800170898438,63.03799819946289 133.01499938964844,51.000999450683594 125.31199645996094,50.52000045776367 C117.60900115966797,50.03799819946289 101.96199798583984,47.87200164794922 94.73999786376953,53.409000396728516z"/></g><g opacity="0.5" transform="matrix(1,0,0,1,0,0)"><path fill="rgb(2,0,1)" fill-opacity="1" d=" M87.76499938964844,83.7969970703125 C87.02799987792969,79.52100372314453 90.6050033569336,85.26899719238281 98.06099700927734,81.29299926757812 C105.51699829101562,77.31700134277344 117.28500366210938,81.84300231933594 131.0590057373047,83.59400177001953 C144.83299255371094,85.34500122070312 146.4040069580078,77.05799865722656 146.4040069580078,77.05799865722656 C146.4040069580078,77.05799865722656 142.52499389648438,95.9489974975586 134.9409942626953,101.31400299072266 C127.35700225830078,106.67900085449219 91.86299896240234,107.56800079345703 87.76499938964844,83.7969970703125z"/></g><g opacity="1" transform="matrix(1,0,0,1,0,0)"><path stroke-linecap="butt" stroke-linejoin="miter" fill-opacity="0" stroke-miterlimit="10" stroke="rgb(2,0,1)" stroke-opacity="1" stroke-width="8" d=" M94.73999786376953,53.409000396728516 C91.06500244140625,56.22600173950195 85.59200286865234,63.03799819946289 86.7959976196289,75.7969970703125 C88,88.55500030517578 88.48100280761719,91.98400115966797 101.4800033569336,99.41699981689453 C114.47899627685547,106.8499984741211 130.8489990234375,104.68399810791016 134.9409942626953,101.31400299072266 C139.0330047607422,97.94400024414062 148.4219970703125,83.73999786376953 146.01499938964844,73.38899993896484 C143.60800170898438,63.03799819946289 133.01499938964844,51.000999450683594 125.31199645996094,50.52000045776367 C117.60900115966797,50.03799819946289 101.96199798583984,47.87200164794922 94.73999786376953,53.409000396728516z"/></g><g opacity="0.2" transform="matrix(1,0,0,1,0,0)"><path fill="rgb(255,237,192)" fill-opacity="1" d=" M126.77100372314453,78.1259994506836 C123.375,71.03900146484375 118.73899841308594,63.952999114990234 108.71199798583984,68.36100006103516 C100.14900207519531,72.125 97.12799835205078,76.57099914550781 97.2699966430664,80.30400085449219 C97.37100219726562,82.95800018310547 100.37699890136719,77.05899810791016 116.51499938964844,81.0459976196289 C122.56999969482422,82.54199981689453 128.66200256347656,82.072998046875 126.77100372314453,78.1259994506836z"/></g></g></g><g style="display: block;" transform="matrix(1.0499999523162842,0,0,1.0499999523162842,256,260)" opacity="1"><g opacity="1" transform="matrix(1,0,0,1,0,0)"><g opacity="1" transform="matrix(1,0,0,1,0,0)"><path fill="rgb(127,83,52)" fill-opacity="1" d=" M99.68599700927734,-131.56199645996094 C92.72699737548828,-130.80599975585938 83.1989974975586,-118.4469985961914 83.5739974975586,-103.83399963378906 C83.9489974975586,-89.22100067138672 92.19200134277344,-79.85199737548828 110.927001953125,-83.9739990234375 C129.66200256347656,-88.09600067138672 133.78399658203125,-100.83599853515625 131.53599548339844,-109.4540023803711 C129.28799438476562,-118.0719985961914 116.9219970703125,-133.43600463867188 99.68599700927734,-131.56199645996094z"/></g><g opacity="0.4" transform="matrix(1,0,0,1,0,0)"><path fill="rgb(2,0,1)" fill-opacity="1" d=" M83.5739974975586,-103.83399963378906 C82.18699645996094,-98.19400024414062 93.41999816894531,-97.5999984741211 105.08799743652344,-103.83399963378906 C116.75599670410156,-110.06800079345703 132.4149932861328,-100.8280029296875 132.9239959716797,-107.35800170898438 C132.9239959716797,-107.35800170898438 137.38099670410156,-89.73899841308594 110.927001953125,-83.9739990234375 C84.4729995727539,-78.20899963378906 83.5739974975586,-103.83399963378906 83.5739974975586,-103.83399963378906z"/></g><g opacity="0.3" transform="matrix(1,0,0,1,0,0)"><path stroke-linecap="butt" stroke-linejoin="miter" fill-opacity="0" stroke-miterlimit="10" stroke="rgb(255,237,192)" stroke-opacity="1" stroke-width="8" d=" M83.5739974975586,-103.83399963378906 C83.5739974975586,-103.83399963378906 91.99700164794922,-124.6780014038086 99.37799835205078,-126.01499938964844 C104.48699951171875,-126.94000244140625 119.66899871826172,-126.16600036621094 131.53599548339844,-109.4540023803711"/></g><g opacity="1" transform="matrix(1,0,0,1,0,0)"><path stroke-linecap="round" stroke-linejoin="round" fill-opacity="0" stroke="rgb(2,0,1)" stroke-opacity="1" stroke-width="8" d=" M99.68599700927734,-131.56199645996094 C92.72699737548828,-130.80599975585938 83.1989974975586,-118.4469985961914 83.5739974975586,-103.83399963378906 C83.9489974975586,-89.22100067138672 92.19200134277344,-79.85199737548828 110.927001953125,-83.9739990234375 C129.66200256347656,-88.09600067138672 133.78399658203125,-100.83599853515625 131.53599548339844,-109.4540023803711 C129.28799438476562,-118.0719985961914 116.9219970703125,-133.43600463867188 99.68599700927734,-131.56199645996094z"/></g></g></g><g style="display: block;" transform="matrix(1.0499999523162842,0,0,1.0499999523162842,256,260)" opacity="1"><g opacity="1" transform="matrix(1,0,0,1,0,0)"><g opacity="0.5" transform="matrix(1,0,0,1,0,0)"><path fill="rgb(122,64,24)" fill-opacity="1" d=" M-31.011999130249023,136.42300415039062 C-26.375,148.48500061035156 -21.441999435424805,161.46099853515625 -6.708000183105469,165.5290069580078 C6.521999835968018,169.1820068359375 28.606000900268555,154.9429931640625 36.066001892089844,133.54100036621094 C44.249000549316406,110.06600189208984 16.84600067138672,93.22100067138672 2.2160000801086426,95.40599822998047 C-8.25,96.96900177001953 -40.7140007019043,111.18499755859375 -31.011999130249023,136.42300415039062z"/></g><g opacity="1" transform="matrix(1,0,0,1,0,0)"><path fill="rgb(109,68,39)" fill-opacity="1" d=" M-25.850000381469727,116.05400085449219 C-23.819000244140625,113.34100341796875 -13.329999923706055,101.89800262451172 -3.630000114440918,99.7760009765625 C6.070000171661377,97.65399932861328 14.456999778747559,105.3949966430664 21.135000228881836,111.2040023803711 C30.365999221801758,119.23300170898438 28.10700035095215,131.51400756835938 21.135000228881836,140.0019989013672 C14.163000106811523,148.49000549316406 5.070000171661377,152.42999267578125 -1.9019999504089355,152.42999267578125 C-8.87399959564209,152.42999267578125 -21.540000915527344,140.6529998779297 -24.67099952697754,135.8939971923828 C-28.733999252319336,129.71800231933594 -29.788000106811523,121.31500244140625 -25.850000381469727,116.05400085449219z"/></g><g opacity="0.5" transform="matrix(1,0,0,1,0,0)"><path fill="rgb(2,0,1)" fill-opacity="1" d=" M-26.71299934387207,131.99600219726562 C-28.20599937438965,127.85600280761719 -14.055000305175781,136.22500610351562 -6.39900016784668,133.5850067138672 C1.2569999694824219,130.94500732421875 2.1029999256134033,136.2259979248047 5.111999988555908,140.97799682617188 C8.121000289916992,145.72999572753906 8.904000282287598,147.78799438476562 2.0439999103546143,152.03900146484375 C-4.815999984741211,156.2899932861328 -23.00200080871582,142.28599548339844 -26.71299934387207,131.99600219726562z"/></g><g opacity="1" transform="matrix(1,0,0,1,0,0)"><path stroke-linecap="butt" stroke-linejoin="miter" fill-opacity="0" stroke-miterlimit="10" stroke="rgb(2,0,1)" stroke-opacity="1" stroke-width="8" d=" M-25.850000381469727,116.05400085449219 C-23.819000244140625,113.34100341796875 -13.329999923706055,101.89800262451172 -3.630000114440918,99.7760009765625 C6.070000171661377,97.65399932861328 14.456999778747559,105.3949966430664 21.135000228881836,111.2040023803711 C30.365999221801758,119.23300170898438 28.10700035095215,131.51400756835938 21.135000228881836,140.0019989013672 C14.163000106811523,148.49000549316406 5.070000171661377,152.42999267578125 -1.9019999504089355,152.42999267578125 C-8.87399959564209,152.42999267578125 -21.540000915527344,140.6529998779297 -24.67099952697754,135.8939971923828 C-28.733999252319336,129.71800231933594 -29.788000106811523,121.31500244140625 -25.850000381469727,116.05400085449219z"/></g><g opacity="0.2" transform="matrix(1,0,0,1,0,0)"><path fill="rgb(255,237,192)" fill-opacity="1" d=" M-14.994999885559082,133.51199340820312 C-5.196000099182129,135.86399841308594 -2.7809998989105225,129.59300231933594 1.8329999446868896,135.3939971923828 C3.3529999256134033,137.30499267578125 6.107999801635742,132.2259979248047 3.694000005722046,128.16600036621094 C0.8109999895095825,123.31700134277344 -7.514999866485596,117.56600189208984 -9.199999809265137,118.41200256347656 C-14.550999641418457,121.09700012207031 -22.492000579833984,131.71200561523438 -14.994999885559082,133.51199340820312z"/></g></g></g></g></svg>