<svg xmlns="http://www.w3.org/2000/svg" xmlns:xlink="http://www.w3.org/1999/xlink" viewBox="0 0 512 512" width="512" height="512" style="width: 100%; height: 100%; transform: translate3d(0,0,0);" preserveAspectRatio="xMidYMid meet"><defs><clipPath id="__lottie_element_49056"><rect width="512" height="512" x="0" y="0"/></clipPath><clipPath id="__lottie_element_49058"><path d="M0,0 L512,0 L512,512 L0,512z"/></clipPath><linearGradient id="__lottie_element_49092" spreadMethod="pad" gradientUnits="userSpaceOnUse" x1="-1.1369999647140503" y1="10.491999626159668" x2="5.5980000495910645" y2="284.27301025390625"><stop offset="0%" stop-color="rgb(254,21,18)"/><stop offset="50%" stop-color="rgb(205,10,20)"/><stop offset="100%" stop-color="rgb(155,0,22)"/></linearGradient><linearGradient id="__lottie_element_49120" spreadMethod="pad" gradientUnits="userSpaceOnUse" x1="103.7300033569336" y1="278.9840087890625" x2="96.65399932861328" y2="38.60900115966797"><stop offset="0%" stop-color="rgb(180,5,21)"/><stop offset="50%" stop-color="rgb(218,31,31)"/><stop offset="100%" stop-color="rgb(255,56,40)"/></linearGradient><radialGradient id="__lottie_element_49121" spreadMethod="pad" gradientUnits="userSpaceOnUse" cx="-94.7300033569336" cy="129.24200439453125" r="94.10482638837831" fx="-94.20593319101968" fy="160.31288075250242"><stop offset="0%" stop-color="rgb(255,47,0)"/><stop offset="88%" stop-color="rgb(255,47,0)"/><stop offset="100%" stop-color="rgb(255,47,0)"/></radialGradient><mask id="__lottie_element_49123"><path fill="url(#__lottie_element_49122)" d=" M127.26200103759766,-76.74299621582031 C129.41900634765625,-118.98699951171875 94.74700164794922,-170.59500122070312 30.986000061035156,-169.25100708007812 C-14.63599967956543,-168.2899932861328 -48.62099838256836,-133.12399291992188 -63.97600173950195,-110.79199981689453 C-63.97600173950195,-110.79199981689453 -92.70099639892578,-58.53799819946289 -102.83499908447266,-41.06399917602539 C-103.86699676513672,-39.28499984741211 -102.4530029296875,-35.72100067138672 -101.44100189208984,-33.930999755859375 C-101.44100189208984,-33.930999755859375 -66.91899871826172,28.69499969482422 -66.91899871826172,28.69499969482422 C-65.61900329589844,30.993000030517578 -65.68599700927734,33.819000244140625 -67.09200286865234,36.05400085449219 C-67.09200286865234,36.05400085449219 -118.60299682617188,117.85600280761719 -118.60299682617188,117.85600280761719 C-118.60299682617188,117.85600280761719 -92.66000366210938,189.7270050048828 -92.66000366210938,189.7270050048828 C-54.38100051879883,197.6840057373047 50.70899963378906,87.22899627685547 66.53700256347656,68.98999786376953 C120.177001953125,7.177999973297119 125.4530029296875,-41.31399917602539 127.26200103759766,-76.74299621582031z"/></mask><radialGradient id="__lottie_element_49122" spreadMethod="pad" gradientUnits="userSpaceOnUse" cx="-94.7300033569336" cy="129.24200439453125" r="94.10482638837831" fx="-94.20593319101968" fy="160.31288075250242"><stop stop-color="rgb(255,255,255)" offset="0%" stop-opacity="1"/><stop stop-color="rgb(255,255,255)" offset="50%" stop-opacity="0.5"/><stop stop-color="rgb(255,255,255)" offset="100%" stop-opacity="0"/></radialGradient><linearGradient id="__lottie_element_49129" spreadMethod="pad" gradientUnits="userSpaceOnUse" x1="-88.1449966430664" y1="-109.84600067138672" x2="-89.31800079345703" y2="-160.66799926757812"><stop offset="0%" stop-color="rgb(255,255,255)"/><stop offset="50%" stop-color="rgb(255,255,253)"/><stop offset="100%" stop-color="rgb(255,255,251)"/></linearGradient><mask id="__lottie_element_49131"><path fill="url(#__lottie_element_49130)" d=" M-135,-156 C-207,-117 -172,-11 -131,27 C-108,-27 -25,-87 -3,-92.5 C-15,-131.5 -74.83399963378906,-188.58999633789062 -135,-156z"/></mask><linearGradient id="__lottie_element_49130" spreadMethod="pad" gradientUnits="userSpaceOnUse" x1="-88.1449966430664" y1="-109.84600067138672" x2="-89.31800079345703" y2="-160.66799926757812"><stop stop-color="rgb(255,255,255)" offset="0%" stop-opacity="0"/><stop stop-color="rgb(255,255,255)" offset="69%" stop-opacity="0.5"/><stop stop-color="rgb(255,255,255)" offset="100%" stop-opacity="1"/></linearGradient><linearGradient id="__lottie_element_49136" spreadMethod="pad" gradientUnits="userSpaceOnUse" x1="-1.1369999647140503" y1="10.491999626159668" x2="5.5980000495910645" y2="284.27301025390625"><stop offset="0%" stop-color="rgb(254,21,18)"/><stop offset="50%" stop-color="rgb(205,10,20)"/><stop offset="100%" stop-color="rgb(155,0,22)"/></linearGradient><linearGradient id="__lottie_element_49167" spreadMethod="pad" gradientUnits="userSpaceOnUse" x1="103.7300033569336" y1="278.9840087890625" x2="96.65399932861328" y2="38.60900115966797"><stop offset="0%" stop-color="rgb(180,5,21)"/><stop offset="50%" stop-color="rgb(218,31,31)"/><stop offset="100%" stop-color="rgb(255,56,40)"/></linearGradient><radialGradient id="__lottie_element_49168" spreadMethod="pad" gradientUnits="userSpaceOnUse" cx="81.4020004272461" cy="130.64500427246094" r="92.59745676595603" fx="82.31539340124058" fy="161.20889124845667"><stop offset="0%" stop-color="rgb(255,47,0)"/><stop offset="88%" stop-color="rgb(255,47,0)"/><stop offset="100%" stop-color="rgb(255,47,0)"/></radialGradient><mask id="__lottie_element_49170"><path fill="url(#__lottie_element_49169)" d=" M-5.171999931335449,-167.76100158691406 C-68.66300201416016,-170.28700256347656 -101.91200256347656,-127.28600311279297 -104.39399719238281,-75.25 C-106.08399963378906,-39.814998626708984 -98.41200256347656,2.9639999866485596 -45.16899871826172,69.98400115966797 C-16.158000946044922,106.50199890136719 52.84299850463867,170.7259979248047 69.27400207519531,176.53700256347656 C69.27400207519531,176.53700256347656 44.98500061035156,120.8010025024414 44.98500061035156,120.8010025024414 C44.98500061035156,120.8010025024414 97.25900268554688,37.74800109863281 97.25900268554688,37.74800109863281 C97.25900268554688,37.74800109863281 55.0880012512207,-36.80400085449219 55.0880012512207,-36.80400085449219 C61.22200012207031,-47.027000427246094 77.3499984741211,-74.21800231933594 92.40699768066406,-99.76599884033203 C90.08799743652344,-116.78700256347656 45.16699981689453,-165.75900268554688 -5.171999931335449,-167.76100158691406z"/></mask><radialGradient id="__lottie_element_49169" spreadMethod="pad" gradientUnits="userSpaceOnUse" cx="81.4020004272461" cy="130.64500427246094" r="92.59745676595603" fx="82.31539340124058" fy="161.20889124845667"><stop stop-color="rgb(255,255,255)" offset="0%" stop-opacity="1"/><stop stop-color="rgb(255,255,255)" offset="50%" stop-opacity="0.5"/><stop stop-color="rgb(255,255,255)" offset="100%" stop-opacity="0"/></radialGradient><linearGradient id="__lottie_element_49173" spreadMethod="pad" gradientUnits="userSpaceOnUse" x1="-88.1449966430664" y1="-109.84600067138672" x2="-89.31800079345703" y2="-160.66799926757812"><stop offset="0%" stop-color="rgb(255,255,255)"/><stop offset="50%" stop-color="rgb(255,255,253)"/><stop offset="100%" stop-color="rgb(255,255,251)"/></linearGradient><mask id="__lottie_element_49175"><path fill="url(#__lottie_element_49174)" d=" M-135,-156 C-207,-117 -168,-14 -141,17 C-118,-37 -23,-85 -1,-90.5 C-13,-129.5 -74.83399963378906,-188.58999633789062 -135,-156z"/></mask><linearGradient id="__lottie_element_49174" spreadMethod="pad" gradientUnits="userSpaceOnUse" x1="-88.1449966430664" y1="-109.84600067138672" x2="-89.31800079345703" y2="-160.66799926757812"><stop stop-color="rgb(255,255,255)" offset="0%" stop-opacity="0"/><stop stop-color="rgb(255,255,255)" offset="69%" stop-opacity="0.5"/><stop stop-color="rgb(255,255,255)" offset="100%" stop-opacity="1"/></linearGradient><clipPath id="__lottie_element_49180"><path d="M0,0 L512,0 L512,512 L0,512z"/></clipPath><linearGradient id="__lottie_element_49214" spreadMethod="pad" gradientUnits="userSpaceOnUse"><stop/><stop/><stop/></linearGradient><linearGradient id="__lottie_element_49242" spreadMethod="pad" gradientUnits="userSpaceOnUse"><stop/><stop/><stop/></linearGradient><radialGradient id="__lottie_element_49243" spreadMethod="pad" gradientUnits="userSpaceOnUse"><stop/><stop/><stop/></radialGradient><mask id="__lottie_element_49245"><path fill="url(#__lottie_element_49244)"/></mask><radialGradient id="__lottie_element_49244" spreadMethod="pad" gradientUnits="userSpaceOnUse"><stop stop-color="rgb(255,255,255)"/><stop stop-color="rgb(255,255,255)"/><stop stop-color="rgb(255,255,255)"/></radialGradient><linearGradient id="__lottie_element_49251" spreadMethod="pad" gradientUnits="userSpaceOnUse"><stop/><stop/><stop/></linearGradient><mask id="__lottie_element_49253"><path fill="url(#__lottie_element_49252)"/></mask><linearGradient id="__lottie_element_49252" spreadMethod="pad" gradientUnits="userSpaceOnUse"><stop stop-color="rgb(255,255,255)"/><stop stop-color="rgb(255,255,255)"/><stop stop-color="rgb(255,255,255)"/></linearGradient><linearGradient id="__lottie_element_49258" spreadMethod="pad" gradientUnits="userSpaceOnUse"><stop/><stop/><stop/></linearGradient><linearGradient id="__lottie_element_49289" spreadMethod="pad" gradientUnits="userSpaceOnUse"><stop/><stop/><stop/></linearGradient><radialGradient id="__lottie_element_49290" spreadMethod="pad" gradientUnits="userSpaceOnUse"><stop/><stop/><stop/></radialGradient><mask id="__lottie_element_49292"><path fill="url(#__lottie_element_49291)"/></mask><radialGradient id="__lottie_element_49291" spreadMethod="pad" gradientUnits="userSpaceOnUse"><stop stop-color="rgb(255,255,255)"/><stop stop-color="rgb(255,255,255)"/><stop stop-color="rgb(255,255,255)"/></radialGradient><linearGradient id="__lottie_element_49295" spreadMethod="pad" gradientUnits="userSpaceOnUse"><stop/><stop/><stop/></linearGradient><mask id="__lottie_element_49297"><path fill="url(#__lottie_element_49296)"/></mask><linearGradient id="__lottie_element_49296" spreadMethod="pad" gradientUnits="userSpaceOnUse"><stop stop-color="rgb(255,255,255)"/><stop stop-color="rgb(255,255,255)"/><stop stop-color="rgb(255,255,255)"/></linearGradient></defs><g clip-path="url(#__lottie_element_49056)"><g clip-path="url(#__lottie_element_49058)" style="display: block;" transform="matrix(0.8399999737739563,0,0,0.8399999737739563,36.96000671386719,38.96000671386719)" opacity="1"><g style="display: block;" transform="matrix(1,0,0,1,125.64200592041016,261.21697998046875)" opacity="1"><g opacity="1" transform="matrix(1,0,0,1,0,0)"><path fill="url(#__lottie_element_49136)" fill-opacity="1" d=" M69.5199966430664,-189.07699584960938 C48.39699935913086,-204.3820037841797 25.660999298095703,-212.41799926757812 1.944000005722046,-212.96600341796875 C0.9179999828338623,-212.99000549316406 -0.10899999737739563,-213.0019989013672 -1.1180000305175781,-213.0019989013672 C-1.121000051498413,-213.0019989013672 -1.121999979019165,-213.0019989013672 -1.1239999532699585,-213.0019989013672 C-42.111000061035156,-213.0019989013672 -67.947998046875,-194.0050048828125 -82.40499877929688,-178.0679931640625 C-99.45999908447266,-159.26699829101562 -110.14900207519531,-134.56900024414062 -111.73200225830078,-110.30599975585938 C-113.38200378417969,-85.01799774169922 -110.03700256347656,-61.9010009765625 -101.2040023803711,-37.555999755859375 C-90.58200073242188,-8.28499984741211 -71.78600311279297,23.1560001373291 -43.7400016784668,58.564998626708984 C2.306999921798706,116.7030029296875 68.33000183105469,181.33900451660156 94.5790023803711,206.43099975585938 C98.65899658203125,210.33099365234375 103.9489974975586,212.61599731445312 109.61799621582031,213.0019989013672 C109.61799621582031,213.0019989013672 55.67599868774414,92.62000274658203 55.67599868774414,92.62000274658203 C55.67599868774414,92.62000274658203 107.95099639892578,9.567999839782715 107.95099639892578,9.567999839782715 C107.95099639892578,9.567999839782715 65.77899932861328,-64.98500061035156 65.77899932861328,-64.98500061035156 C73.50700378417969,-77.86499786376953 92.33399963378906,-111.72100067138672 112.13899993896484,-144.3470001220703 C100.74400329589844,-160.25799560546875 88.6259994506836,-175.23399353027344 69.5199966430664,-189.07699584960938z"/></g></g><g style="display: block;" transform="matrix(1,0,0,1,126.3340072631836,233.03599548339844)" opacity="1"><g opacity="1" transform="matrix(1,0,0,1,0,0)"><path fill="url(#__lottie_element_49167)" fill-opacity="1" d=" M-5.171999931335449,-167.76100158691406 C-68.66300201416016,-170.28700256347656 -101.91200256347656,-127.28600311279297 -104.39399719238281,-75.25 C-106.08399963378906,-39.814998626708984 -98.41200256347656,2.9639999866485596 -45.16899871826172,69.98400115966797 C-16.158000946044922,106.50199890136719 52.84299850463867,170.7259979248047 69.27400207519531,176.53700256347656 C69.27400207519531,176.53700256347656 44.98500061035156,120.8010025024414 44.98500061035156,120.8010025024414 C44.98500061035156,120.8010025024414 97.25900268554688,37.74800109863281 97.25900268554688,37.74800109863281 C97.25900268554688,37.74800109863281 55.0880012512207,-36.80400085449219 55.0880012512207,-36.80400085449219 C61.22200012207031,-47.027000427246094 77.3499984741211,-74.21800231933594 92.40699768066406,-99.76599884033203 C90.08799743652344,-116.78700256347656 45.16699981689453,-165.75900268554688 -5.171999931335449,-167.76100158691406z"/><path fill="url(#__lottie_element_49168)" mask="url(#__lottie_element_49170)" fill-opacity="1" d="M0 0 M-5.171999931335449,-167.76100158691406 C-68.66300201416016,-170.28700256347656 -101.91200256347656,-127.28600311279297 -104.39399719238281,-75.25 C-106.08399963378906,-39.814998626708984 -98.41200256347656,2.9639999866485596 -45.16899871826172,69.98400115966797 C-16.158000946044922,106.50199890136719 52.84299850463867,170.7259979248047 69.27400207519531,176.53700256347656 C69.27400207519531,176.53700256347656 44.98500061035156,120.8010025024414 44.98500061035156,120.8010025024414 C44.98500061035156,120.8010025024414 97.25900268554688,37.74800109863281 97.25900268554688,37.74800109863281 C97.25900268554688,37.74800109863281 55.0880012512207,-36.80400085449219 55.0880012512207,-36.80400085449219 C61.22200012207031,-47.027000427246094 77.3499984741211,-74.21800231933594 92.40699768066406,-99.76599884033203 C90.08799743652344,-116.78700256347656 45.16699981689453,-165.75900268554688 -5.171999931335449,-167.76100158691406z"/></g></g><g style="display: block;" transform="matrix(1.2000000476837158,0,0,1.2000000476837158,232.07821655273438,262.9705810546875)" opacity="1"><g opacity="1" transform="matrix(1,0,0,1,0,0)"><path fill="rgb(255,255,255)" fill-opacity="0.02" d=" M-135,-156 C-207,-117 -166,-15 -139,16 C-165,-28 -146,-69.75 -118.98799896240234,-90.21900177001953 C-83.70500183105469,-116.95600128173828 -33,-109.5 -1,-90.5 C-13,-129.5 -74.83399963378906,-188.58999633789062 -135,-156z"/></g><g opacity="1" transform="matrix(1,0,0,1,0,0)"><path fill="rgb(255,255,255)" fill-opacity="0.02" d=" M-135,-156 C-207,-117 -165,-17.5 -146.25,5 C-168,-31 -150.41400146484375,-73.51000213623047 -121.73799896240234,-94.71900177001953 C-83.5,-123 -31.5,-115.5 -2.5,-94.25 C-14.25,-129.75 -74.83399963378906,-188.58999633789062 -135,-156z"/></g><g opacity="1" transform="matrix(1,0,0,1,0,0)"><path fill="rgb(255,255,255)" fill-opacity="0.03" d=" M-135,-156 C-207,-117 -165,-17.5 -146.25,5 C-173.75,-33.25 -153.1719970703125,-76.93699645996094 -124.73799896240234,-98.46900177001953 C-84.75,-128.75 -23.5,-119.75 -2.5,-94.25 C-14.25,-129.75 -74.83399963378906,-188.58999633789062 -135,-156z"/></g><g opacity="1" transform="matrix(1,0,0,1,0,0)"><path fill="rgb(255,255,255)" fill-opacity="0.03" d=" M-135,-156 C-207,-117 -163.25,-21 -153.25,-5.75 C-174.75,-42.25 -155.1719970703125,-80.93699645996094 -126.73799896240234,-102.46900177001953 C-86.75,-132.75 -26,-123 -5.5,-101 C-17,-129.25 -74.83399963378906,-188.58999633789062 -135,-156z"/></g><g opacity="1" transform="matrix(1,0,0,1,0,0)"><path fill="rgb(255,255,255)" fill-opacity="0.03" d=" M-135,-156 C-203.5,-118.75 -166.125,-30.5 -157.75,-13.875 C-175.625,-48.375 -156.75,-86 -127.48799896240234,-107.46900177001953 C-89.58599853515625,-135.27699279785156 -28.875,-128.625 -8.375,-106.625 C-19.125,-129.875 -75.54399871826172,-188.33200073242188 -135,-156z"/></g><g opacity="1" transform="matrix(1,0,0,1,0,0)"><path fill="rgb(255,255,255)" fill-opacity="0.04" d=" M-135,-156 C-199.25,-121 -170,-41.625 -161.375,-21.75 C-177.5,-55.5 -156.73399353027344,-92.69999694824219 -127.73799896240234,-113.46900177001953 C-90,-140.5 -30.5,-130.5 -12.125,-112.875 C-22.75,-130.875 -75.56800079345703,-188.375 -135,-156z"/></g><g opacity="1" transform="matrix(1,0,0,1,0,0)"><path fill="rgb(255,255,255)" fill-opacity="0.08" d=" M-135,-156 C-195.5,-124.5 -172.75,-48.75 -164,-28 C-180.125,-61.75 -156,-100.25 -128.73800659179688,-118.46900177001953 C-89.64600372314453,-144.593994140625 -33,-134.25 -15.875,-118.5 C-26.5,-132.625 -74.97100067138672,-187.2550048828125 -135,-156z"/></g><g opacity="1" transform="matrix(1,0,0,1,0,0)"><path fill="rgb(255,255,255)" fill-opacity="0.09" d=" M-135,-156 C-194,-124.75 -172.75,-54.875 -166.75,-35.875 C-180.375,-74.25 -152.1320037841797,-110.71800231933594 -128.86300659179688,-125.21900177001953 C-89.5,-149.75 -33.875,-137.125 -21,-125 C-33,-139.25 -79.6520004272461,-185.3159942626953 -135,-156z"/></g><g opacity="1" transform="matrix(1,0,0,1,0,0)"><path fill="rgb(255,255,255)" fill-opacity="0.1" d=" M-135,-156 C-192.25,-126.25 -172.625,-58.25 -170.125,-46.5 C-177.5,-81.875 -156,-116 -129.48800659179688,-131.843994140625 C-89.13600158691406,-155.95899963378906 -37.625,-138.875 -27.5,-131.75 C-41.875,-146.5 -83.99099731445312,-182.5070037841797 -135,-156z"/></g><g opacity="1" transform="matrix(1,0,0,1,0,0)"><path fill="rgb(255,255,255)" fill-opacity="0.11" d=" M-135,-156 C-185.64199829101562,-129.593994140625 -175.125,-74.375 -173.375,-61.375 C-174.5,-88.875 -159.5,-121.5 -130.36300659179688,-138.343994140625 C-89.66500091552734,-161.87100219726562 -42,-142.75 -34.875,-138.875 C-45.125,-146.875 -85.375,-181.875 -135,-156z"/></g><g opacity="1" transform="matrix(1,0,0,1,0,0)"><path fill="rgb(255,255,255)" fill-opacity="0.12" d=" M-135,-156 C-180,-132 -175.75,-86.125 -174.875,-71.625 C-174.75,-94.625 -161.58299255371094,-127.58899688720703 -132.11300659179688,-143.843994140625 C-92.625,-165.625 -48.5,-148 -41.375,-144.125 C-50.25,-150.5 -88.5260009765625,-180.78599548339844 -135,-156z"/></g><g opacity="1" transform="matrix(1,0,0,1,0,0)"><path fill="rgb(255,255,255)" fill-opacity="0.13" d=" M-135,-156 C-170.18499755859375,-138.61700439453125 -176.25,-101 -175.5,-85.5 C-173.375,-106.125 -162.95799255371094,-133.21400451660156 -133.48800659179688,-149.468994140625 C-94,-171.25 -54.5,-152.375 -51.375,-151.125 C-62,-156.5 -93,-176.75 -135,-156z"/></g></g><g style="display: block;" transform="matrix(1.2000000476837158,0,0,1.2000000476837158,232.13140869140625,262.84478759765625)" opacity="0.9"><g opacity="1" transform="matrix(1,0,0,1,0,0)"><path fill="url(#__lottie_element_49173)" mask="url(#__lottie_element_49175)" fill-opacity="0.85" d="M0 0 M-135,-156 C-207,-117 -168,-14 -141,17 C-118,-37 -23,-85 -1,-90.5 C-13,-129.5 -74.83399963378906,-188.58999633789062 -135,-156z"/></g></g><g style="display: block;" transform="matrix(1,0,0,1,198.46800231933594,368.4159851074219)" opacity="1"><g opacity="1" transform="matrix(1,0,0,1,0,0)"><path fill="rgb(221,18,33)" fill-opacity="1" d=" M-38.76900100708008,-18.520000457763672 C-38.76900100708008,-18.520000457763672 23.82900047302246,97.46700286865234 23.82900047302246,97.46700286865234 C23.82900047302246,97.46700286865234 28.547000885009766,101.61799621582031 28.547000885009766,101.61799621582031 C28.547000885009766,101.61799621582031 32.35100173950195,94.96099853515625 32.35100173950195,94.96099853515625 C32.35100173950195,94.96099853515625 -18.27199935913086,-19.222000122070312 -18.27199935913086,-19.222000122070312 C-18.27199935913086,-19.222000122070312 34.51900100708008,-98.61799621582031 34.51900100708008,-98.61799621582031 C34.51900100708008,-98.61799621582031 6.730000019073486,-101.61799621582031 6.730000019073486,-101.61799621582031 C6.730000019073486,-101.61799621582031 -38.76900100708008,-18.520000457763672 -38.76900100708008,-18.520000457763672z"/></g></g><g style="display: block;" transform="matrix(1,0,0,1,198.46800231933594,368.4159851074219)" opacity="0.6"><g opacity="1" transform="matrix(1,0,0,1,0,0)"><path fill="rgb(155,0,22)" fill-opacity="1" d=" M-38.76900100708008,-18.520000457763672 C-38.76900100708008,-18.520000457763672 23.82900047302246,97.46700286865234 23.82900047302246,97.46700286865234 C23.82900047302246,97.46700286865234 28.547000885009766,101.61799621582031 28.547000885009766,101.61799621582031 C28.547000885009766,101.61799621582031 32.35100173950195,94.96099853515625 32.35100173950195,94.96099853515625 C32.35100173950195,94.96099853515625 -18.27199935913086,-19.222000122070312 -18.27199935913086,-19.222000122070312 C-18.27199935913086,-19.222000122070312 34.51900100708008,-98.61799621582031 34.51900100708008,-98.61799621582031 C34.51900100708008,-98.61799621582031 6.730000019073486,-101.61799621582031 6.730000019073486,-101.61799621582031 C6.730000019073486,-101.61799621582031 -38.76900100708008,-18.520000457763672 -38.76900100708008,-18.520000457763672z"/></g></g><g style="display: block;" transform="matrix(1,0,0,1,200.12400817871094,229.3719940185547)" opacity="1"><g opacity="1" transform="matrix(1,0,0,1,0,0)"><path fill="rgb(221,18,33)" fill-opacity="1" d=" M5.324999809265137,37.16699981689453 C5.324999809265137,37.16699981689453 -36.46500015258789,-37.16699981689453 -36.46500015258789,-37.16699981689453 C-36.46500015258789,-37.16699981689453 -8.956999778747559,-33.16699981689453 -8.956999778747559,-33.16699981689453 C-8.956999778747559,-33.16699981689453 32.71500015258789,41.13600158691406 32.71500015258789,41.13600158691406 C32.71500015258789,41.13600158691406 5.324999809265137,37.16699981689453 5.324999809265137,37.16699981689453z"/></g></g><g style="display: block;" transform="matrix(1,0,0,1,202.21800231933594,152.2969970703125)" opacity="1"><g opacity="1" transform="matrix(1,0,0,1,0,0)"><path fill="rgb(221,18,33)" fill-opacity="1" d=" M0.4059999883174896,-31.158000946044922 C0.4059999883174896,-31.158000946044922 -34.433998107910156,41.90800094604492 -34.433998107910156,41.90800094604492 C-34.433998107910156,41.90800094604492 -11.050999641418457,44.65800094604492 -11.050999641418457,44.65800094604492 C-11.050999641418457,44.65800094604492 34.058998107910156,-36.45399856567383 34.058998107910156,-36.45399856567383 C34.058998107910156,-36.45399856567383 0.4059999883174896,-31.158000946044922 0.4059999883174896,-31.158000946044922z"/></g></g><g style="display: block;" transform="matrix(1,0,0,1,202.21800231933594,152.2969970703125)" opacity="0.6"><g opacity="1" transform="matrix(1,0,0,1,0,0)"><path fill="rgb(155,0,22)" fill-opacity="1" d=" M0.4059999883174896,-31.158000946044922 C0.4059999883174896,-31.158000946044922 -34.433998107910156,41.90800094604492 -34.433998107910156,41.90800094604492 C-34.433998107910156,41.90800094604492 -11.050999641418457,44.65800094604492 -11.050999641418457,44.65800094604492 C-11.050999641418457,44.65800094604492 34.058998107910156,-36.45399856567383 34.058998107910156,-36.45399856567383 C34.058998107910156,-36.45399856567383 0.4059999883174896,-31.158000946044922 0.4059999883174896,-31.158000946044922z"/></g></g><g style="display: block;" transform="matrix(1,0,0,1,197.89700317382812,277.04901123046875)" opacity="1"><g opacity="1" transform="matrix(1,0,0,1,0,0)"><path stroke-linecap="round" stroke-linejoin="round" fill-opacity="0" stroke="rgb(254,75,72)" stroke-opacity="1" stroke-width="8" d=" M-38.630001068115234,72.6520004272461 C-38.630001068115234,72.6520004272461 7.630000114440918,-10.482999801635742 7.630000114440918,-10.482999801635742 C7.630000114440918,-10.482999801635742 -33.72600173950195,-82.81700134277344 -33.72600173950195,-82.81700134277344 C-33.72600173950195,-82.81700134277344 0.15199999511241913,-155.4040069580078 0.15199999511241913,-155.4040069580078"/></g></g><g style="display: block;" transform="matrix(1,0,0,1,202.8489990234375,233.14898681640625)" opacity="1"><g opacity="1" transform="matrix(1,0,0,1,0,0)"><path stroke-linecap="round" stroke-linejoin="round" fill-opacity="0" stroke="rgb(254,116,114)" stroke-opacity="1" stroke-width="8" d=" M2.177999973297119,33.66699981689453 C2.177999973297119,33.66699981689453 -38.428001403808594,-38.66699981689453 -38.428001403808594,-38.66699981689453"/></g></g><g style="display: block;" transform="matrix(1,0,0,1,197.89700317382812,277.04901123046875)" opacity="1"><g opacity="1" transform="matrix(1,0,0,1,0,0)"><path stroke-linecap="round" stroke-linejoin="round" fill-opacity="0" stroke="rgb(221,18,33)" stroke-opacity="1" stroke-width="8" d=" M22.985000610351562,188.74099731445312 C22.985000610351562,188.74099731445312 -38.380001068115234,72.4020004272461 -38.380001068115234,72.4020004272461"/></g></g><g style="display: block;" transform="matrix(1,0,0,1,125.54200744628906,261.2139892578125)" opacity="1"><g opacity="1" transform="matrix(1,0,0,1,0,0)"><path stroke-linecap="round" stroke-linejoin="round" fill-opacity="0" stroke="rgb(155,0,22)" stroke-opacity="1" stroke-width="8" d=" M69.62000274658203,-189.07400512695312 C19.76300048828125,-225.197998046875 -44.676998138427734,-219.5449981689453 -82.30500030517578,-178.06500244140625 C-117.75800323486328,-138.98199462890625 -118.55899810791016,-85.66000366210938 -101.10399627685547,-37.553001403808594 C-90.48200225830078,-8.281999588012695 -71.68599700927734,23.159000396728516 -43.63999938964844,58.56800079345703 C2.4070000648498535,116.70600128173828 68.43000030517578,181.34300231933594 94.67900085449219,206.43499755859375 C98.75900268554688,210.3350067138672 104.04900360107422,212.61900329589844 109.71800231933594,213.0050048828125 C109.71800231933594,213.0050048828125 55.777000427246094,92.62300109863281 55.777000427246094,92.62300109863281 C55.777000427246094,92.62300109863281 108.0510025024414,9.571000099182129 108.0510025024414,9.571000099182129 C108.0510025024414,9.571000099182129 65.87899780273438,-64.98200225830078 65.87899780273438,-64.98200225830078 C73.60700225830078,-77.86199951171875 92.43399810791016,-111.71800231933594 112.23899841308594,-144.343994140625 C100.84400177001953,-160.2550048828125 88.72599792480469,-175.2310028076172 69.62000274658203,-189.07400512695312z"/></g></g><g style="display: block;" transform="matrix(1,0,0,1,361.89483642578125,260.74700927734375)" opacity="1"><g opacity="1" transform="matrix(1,0,0,1,0,0)"><path fill="url(#__lottie_element_49092)" fill-opacity="1" d=" M71.15399932861328,58.53499984741211 C99.1989974975586,23.12700080871582 117.99500274658203,-8.314000129699707 128.61700439453125,-37.58599853515625 C137.4510040283203,-61.93000030517578 140.79600524902344,-85.0469970703125 139.14599609375,-110.33599853515625 C137.56199645996094,-134.5970001220703 126.87200164794922,-159.29400634765625 109.81500244140625,-178.0959930419922 C95.35600280761719,-194.03399658203125 69.51699829101562,-213.03199768066406 28.533000946044922,-213.03199768066406 C27.516000747680664,-213.03199768066406 26.499000549316406,-213.02099609375 25.4689998626709,-212.9969940185547 C1.7519999742507935,-212.44900512695312 -20.983999252319336,-204.41099548339844 -42.10599899291992,-189.10699462890625 C-56.236000061035156,-178.86900329589844 -67.2770004272461,-167.07699584960938 -75.10399627685547,-157.30299377441406 C-76.9219970703125,-154.38099670410156 -78.75800323486328,-151.47500610351562 -80.55699920654297,-148.53399658203125 C-101.27200317382812,-114.6709976196289 -121.39299774169922,-78.44300079345703 -129.4499969482422,-65.01499938964844 C-129.4499969482422,-65.01499938964844 -87.27899932861328,9.536999702453613 -87.27899932861328,9.536999702453613 C-87.27899932861328,9.536999702453613 -139.55299377441406,92.58999633789062 -139.55299377441406,92.58999633789062 C-139.55299377441406,92.58999633789062 -85.61100006103516,212.9720001220703 -85.61100006103516,212.9720001220703 C-78.43000030517578,213.46200561523438 -71.91400146484375,210.94000244140625 -67.16600036621094,206.4010009765625 C-40.92100143432617,181.31399536132812 25.09600067138672,116.68499755859375 71.15399932861328,58.53499984741211z"/></g></g><g style="display: block;" transform="matrix(1,0,0,1,363.3968505859375,238.9359893798828)" opacity="1"><g opacity="1" transform="matrix(1,0,0,1,0,0)"><path fill="url(#__lottie_element_49120)" fill-opacity="1" d=" M127.26200103759766,-76.74299621582031 C129.41900634765625,-118.98699951171875 94.74700164794922,-170.59500122070312 30.986000061035156,-169.25100708007812 C-14.63599967956543,-168.2899932861328 -48.62099838256836,-133.12399291992188 -63.97600173950195,-110.79199981689453 C-63.97600173950195,-110.79199981689453 -92.70099639892578,-58.53799819946289 -102.83499908447266,-41.06399917602539 C-103.86699676513672,-39.28499984741211 -102.4530029296875,-35.72100067138672 -101.44100189208984,-33.930999755859375 C-101.44100189208984,-33.930999755859375 -66.91899871826172,28.69499969482422 -66.91899871826172,28.69499969482422 C-65.61900329589844,30.993000030517578 -65.68599700927734,33.819000244140625 -67.09200286865234,36.05400085449219 C-67.09200286865234,36.05400085449219 -118.60299682617188,117.85600280761719 -118.60299682617188,117.85600280761719 C-118.60299682617188,117.85600280761719 -92.66000366210938,189.7270050048828 -92.66000366210938,189.7270050048828 C-54.38100051879883,197.6840057373047 50.70899963378906,87.22899627685547 66.53700256347656,68.98999786376953 C120.177001953125,7.177999973297119 125.4530029296875,-41.31399917602539 127.26200103759766,-76.74299621582031z"/><path fill="url(#__lottie_element_49121)" mask="url(#__lottie_element_49123)" fill-opacity="1" d="M0 0 M127.26200103759766,-76.74299621582031 C129.41900634765625,-118.98699951171875 94.74700164794922,-170.59500122070312 30.986000061035156,-169.25100708007812 C-14.63599967956543,-168.2899932861328 -48.62099838256836,-133.12399291992188 -63.97600173950195,-110.79199981689453 C-63.97600173950195,-110.79199981689453 -92.70099639892578,-58.53799819946289 -102.83499908447266,-41.06399917602539 C-103.86699676513672,-39.28499984741211 -102.4530029296875,-35.72100067138672 -101.44100189208984,-33.930999755859375 C-101.44100189208984,-33.930999755859375 -66.91899871826172,28.69499969482422 -66.91899871826172,28.69499969482422 C-65.61900329589844,30.993000030517578 -65.68599700927734,33.819000244140625 -67.09200286865234,36.05400085449219 C-67.09200286865234,36.05400085449219 -118.60299682617188,117.85600280761719 -118.60299682617188,117.85600280761719 C-118.60299682617188,117.85600280761719 -92.66000366210938,189.7270050048828 -92.66000366210938,189.7270050048828 C-54.38100051879883,197.6840057373047 50.70899963378906,87.22899627685547 66.53700256347656,68.98999786376953 C120.177001953125,7.177999973297119 125.4530029296875,-41.31399917602539 127.26200103759766,-76.74299621582031z"/></g></g><g style="display: block;" transform="matrix(-1.2000000476837158,0,0,1.2000000476837158,280.44482421875,268.5)" opacity="0.9"><g opacity="1" transform="matrix(1,0,0,1,0,0)"><path fill="url(#__lottie_element_49129)" mask="url(#__lottie_element_49131)" fill-opacity="0.85" d="M0 0 M-135,-156 C-207,-117 -172,-11 -131,27 C-108,-27 -25,-87 -3,-92.5 C-15,-131.5 -74.83399963378906,-188.58999633789062 -135,-156z"/></g></g><g style="display: block;" transform="matrix(-1.2000000476837158,0,0,1.2000000476837158,280.6944274902344,267.85638427734375)" opacity="1"><g opacity="1" transform="matrix(1,0,0,1,0,0)"><path fill="rgb(255,255,255)" fill-opacity="0.02" d=" M-135,-156 C-207,-117 -166,-15 -139,16 C-165,-28 -146,-69.75 -118.98799896240234,-90.21900177001953 C-83.70500183105469,-116.95600128173828 -33,-109.5 -1,-90.5 C-13,-129.5 -74.83399963378906,-188.58999633789062 -135,-156z"/></g><g opacity="1" transform="matrix(1,0,0,1,0,0)"><path fill="rgb(255,255,255)" fill-opacity="0.02" d=" M-135,-156 C-207,-117 -165,-17.5 -146.25,5 C-168,-31 -150.41400146484375,-73.51000213623047 -121.73799896240234,-94.71900177001953 C-83.5,-123 -31.5,-115.5 -2.5,-94.25 C-14.25,-129.75 -74.83399963378906,-188.58999633789062 -135,-156z"/></g><g opacity="1" transform="matrix(1,0,0,1,0,0)"><path fill="rgb(255,255,255)" fill-opacity="0.03" d=" M-135,-156 C-207,-117 -165,-17.5 -146.25,5 C-173.75,-33.25 -153.1719970703125,-76.93699645996094 -124.73799896240234,-98.46900177001953 C-84.75,-128.75 -23.5,-119.75 -2.5,-94.25 C-14.25,-129.75 -74.83399963378906,-188.58999633789062 -135,-156z"/></g><g opacity="1" transform="matrix(1,0,0,1,0,0)"><path fill="rgb(255,255,255)" fill-opacity="0.03" d=" M-135,-156 C-207,-117 -163.25,-21 -153.25,-5.75 C-174.75,-42.25 -155.1719970703125,-80.93699645996094 -126.73799896240234,-102.46900177001953 C-86.75,-132.75 -26,-123 -5.5,-101 C-17,-129.25 -74.83399963378906,-188.58999633789062 -135,-156z"/></g><g opacity="1" transform="matrix(1,0,0,1,0,0)"><path fill="rgb(255,255,255)" fill-opacity="0.03" d=" M-135,-156 C-203.5,-118.75 -166.125,-30.5 -157.75,-13.875 C-175.625,-48.375 -156.75,-86 -127.48799896240234,-107.46900177001953 C-89.58599853515625,-135.27699279785156 -28.875,-128.625 -8.375,-106.625 C-19.125,-129.875 -75.54399871826172,-188.33200073242188 -135,-156z"/></g><g opacity="1" transform="matrix(1,0,0,1,0,0)"><path fill="rgb(255,255,255)" fill-opacity="0.04" d=" M-135,-156 C-199.25,-121 -170,-41.625 -161.375,-21.75 C-177.5,-55.5 -156.73399353027344,-92.69999694824219 -127.73799896240234,-113.46900177001953 C-90,-140.5 -30.5,-130.5 -12.125,-112.875 C-22.75,-130.875 -75.56800079345703,-188.375 -135,-156z"/></g><g opacity="1" transform="matrix(1,0,0,1,0,0)"><path fill="rgb(255,255,255)" fill-opacity="0.08" d=" M-135,-156 C-195.5,-124.5 -172.75,-48.75 -164,-28 C-180.125,-61.75 -156,-100.25 -128.73800659179688,-118.46900177001953 C-89.64600372314453,-144.593994140625 -33,-134.25 -15.875,-118.5 C-26.5,-132.625 -74.97100067138672,-187.2550048828125 -135,-156z"/></g><g opacity="1" transform="matrix(1,0,0,1,0,0)"><path fill="rgb(255,255,255)" fill-opacity="0.09" d=" M-135,-156 C-194,-124.75 -172.75,-54.875 -166.75,-35.875 C-180.375,-74.25 -152.1320037841797,-110.71800231933594 -128.86300659179688,-125.21900177001953 C-89.5,-149.75 -33.875,-137.125 -21,-125 C-33,-139.25 -79.6520004272461,-185.3159942626953 -135,-156z"/></g><g opacity="1" transform="matrix(1,0,0,1,0,0)"><path fill="rgb(255,255,255)" fill-opacity="0.1" d=" M-135,-156 C-192.25,-126.25 -172.625,-58.25 -170.125,-46.5 C-177.5,-81.875 -156,-116 -129.48800659179688,-131.843994140625 C-89.13600158691406,-155.95899963378906 -37.625,-138.875 -27.5,-131.75 C-41.875,-146.5 -83.99099731445312,-182.5070037841797 -135,-156z"/></g><g opacity="1" transform="matrix(1,0,0,1,0,0)"><path fill="rgb(255,255,255)" fill-opacity="0.11" d=" M-135,-156 C-185.64199829101562,-129.593994140625 -175.125,-74.375 -173.375,-61.375 C-174.5,-88.875 -159.5,-121.5 -130.36300659179688,-138.343994140625 C-89.66500091552734,-161.87100219726562 -42,-142.75 -34.875,-138.875 C-45.125,-146.875 -85.375,-181.875 -135,-156z"/></g><g opacity="1" transform="matrix(1,0,0,1,0,0)"><path fill="rgb(255,255,255)" fill-opacity="0.12" d=" M-135,-156 C-180,-132 -175.75,-86.125 -174.875,-71.625 C-174.75,-94.625 -161.58299255371094,-127.58899688720703 -132.11300659179688,-143.843994140625 C-92.625,-165.625 -48.5,-148 -41.375,-144.125 C-50.25,-150.5 -88.5260009765625,-180.78599548339844 -135,-156z"/></g><g opacity="1" transform="matrix(1,0,0,1,0,0)"><path fill="rgb(255,255,255)" fill-opacity="0.13" d=" M-135,-156 C-170.18499755859375,-138.61700439453125 -176.25,-101 -175.5,-85.5 C-173.375,-106.125 -162.95799255371094,-133.21400451660156 -133.48800659179688,-149.468994140625 C-94,-171.25 -54.5,-152.375 -51.375,-151.125 C-62,-156.5 -93,-176.75 -135,-156z"/></g></g><g style="display: block;" transform="matrix(1,0,0,1,253.6508331298828,411.0789794921875)" opacity="1"><g opacity="1" transform="matrix(1,0,0,1,0,0)"><path fill="rgb(221,18,33)" fill-opacity="1" d=" M23.18199920654297,62.249000549316406 C23.18199920654297,62.249000549316406 28.249000549316406,59.784000396728516 28.249000549316406,59.784000396728516 C28.249000549316406,59.784000396728516 -8.265999794006348,-61.01300048828125 -8.265999794006348,-61.01300048828125 C-8.265999794006348,-61.01300048828125 -31.249000549316406,-57.249000549316406 -31.249000549316406,-57.249000549316406 C-31.249000549316406,-57.249000549316406 23.18199920654297,62.249000549316406 23.18199920654297,62.249000549316406z"/></g></g><g style="display: block;" transform="matrix(1,0,0,1,253.6508331298828,411.0789794921875)" opacity="0.66"><g opacity="1" transform="matrix(1,0,0,1,0,0)"><path fill="rgb(155,0,22)" fill-opacity="1" d=" M23.18199920654297,62.249000549316406 C23.18199920654297,62.249000549316406 28.249000549316406,59.784000396728516 28.249000549316406,59.784000396728516 C28.249000549316406,59.784000396728516 -6.35099983215332,-54.66699981689453 -6.35099983215332,-54.66699981689453 C-6.35099983215332,-54.66699981689453 -31.249000549316406,-57.249000549316406 -31.249000549316406,-57.249000549316406 C-31.249000549316406,-57.249000549316406 23.18199920654297,62.249000549316406 23.18199920654297,62.249000549316406z"/></g></g><g style="display: block;" transform="matrix(1,0,0,1,262.7578430175781,229.718994140625)" opacity="1"><g opacity="1" transform="matrix(1,0,0,1,0,0)"><path fill="rgb(221,18,33)" fill-opacity="1" d=" M-31.538000106811523,-33.763999938964844 C-31.538000106811523,-33.763999938964844 -1.996999979019165,-28.763999938964844 -1.996999979019165,-28.763999938964844 C-1.996999979019165,-28.763999938964844 35.78799819946289,38.013999938964844 35.78799819946289,38.013999938964844 C35.78799819946289,38.013999938964844 11.402999877929688,39.78900146484375 11.402999877929688,39.78900146484375 C11.402999877929688,39.78900146484375 -31.538000106811523,-33.763999938964844 -31.538000106811523,-33.763999938964844z"/></g></g><g style="display: block;" transform="matrix(1,0,0,1,262.7578430175781,229.718994140625)" opacity="0.66"><g opacity="1" transform="matrix(1,0,0,1,0,0)"><path fill="rgb(155,0,22)" fill-opacity="1" d=" M-31.538000106811523,-33.763999938964844 C-31.538000106811523,-33.763999938964844 -1.996999979019165,-28.763999938964844 -1.996999979019165,-28.763999938964844 C-1.996999979019165,-28.763999938964844 38.28799819946289,43.013999938964844 38.28799819946289,43.013999938964844 C38.28799819946289,43.013999938964844 11.402999877929688,39.78900146484375 11.402999877929688,39.78900146484375 C11.402999877929688,39.78900146484375 -31.538000106811523,-33.763999938964844 -31.538000106811523,-33.763999938964844z"/></g></g><g style="display: block;" transform="matrix(1,0,0,1,279.6148376464844,196.11099243164062)" opacity="1"><g opacity="1" transform="matrix(1,0,0,1,0,0)"><path stroke-linecap="round" stroke-linejoin="round" fill-opacity="0" stroke="rgb(254,74,71)" stroke-opacity="1" stroke-width="8" d=" M20.805999755859375,75.5479965209961 C20.805999755859375,75.5479965209961 -16.354000091552734,4.968999862670898 -16.354000091552734,4.968999862670898 C-16.354000091552734,4.968999862670898 10.829999923706055,-47.361000061035156 30.104000091552734,-66.4229965209961"/></g></g><g style="display: block;" transform="matrix(1,0,0,1,259.71783447265625,388.6470031738281)" opacity="1"><g opacity="1" transform="matrix(1,0,0,1,0,0)"><path stroke-linecap="round" stroke-linejoin="round" fill-opacity="0" stroke="rgb(221,18,33)" stroke-opacity="1" stroke-width="8" d=" M23.777000427246094,81.80400085449219 C23.777000427246094,81.80400085449219 -11.836000442504883,-32.65399932861328 -11.836000442504883,-32.65399932861328"/></g></g><g style="display: block;" transform="matrix(1,0,0,1,271.9378356933594,308.4649963378906)" opacity="1"><g opacity="1" transform="matrix(1,0,0,1,0,0)"><path stroke-linecap="round" stroke-linejoin="round" fill-opacity="0" stroke="rgb(254,108,106)" stroke-opacity="1" stroke-width="8" d=" M-24.69300079345703,47.624000549316406 C-24.69300079345703,47.624000549316406 28.523000717163086,-36.7869987487793 28.523000717163086,-36.7869987487793"/></g></g><g style="display: block;" transform="matrix(1,0,0,1,361.995849609375,260.80499267578125)" opacity="1"><g opacity="1" transform="matrix(1,0,0,1,0,0)"><path stroke-linecap="round" stroke-linejoin="round" fill-opacity="0" stroke="rgb(155,0,22)" stroke-opacity="1" stroke-width="8" d=" M71.0530014038086,58.47700119018555 C99.0979995727539,23.069000244140625 117.89299774169922,-8.373000144958496 128.51499938964844,-37.64500045776367 C146.16799926757812,-86.29199981689453 144.88900756835938,-139.3800048828125 109.71399688720703,-178.1540069580078 C56.72999954223633,-236.55599975585938 -38.16899871826172,-218.0489959716797 -80.65799713134766,-148.59300231933594 C-101.37300109863281,-114.7300033569336 -121.49400329589844,-78.50199890136719 -129.55099487304688,-65.0739974975586 C-129.55099487304688,-65.0739974975586 -87.37999725341797,9.479000091552734 -87.37999725341797,9.479000091552734 C-87.37999725341797,9.479000091552734 -139.6540069580078,92.53199768066406 -139.6540069580078,92.53199768066406 C-139.6540069580078,92.53199768066406 -85.71299743652344,212.91400146484375 -85.71299743652344,212.91400146484375 C-85.14700317382812,212.9530029296875 -84.58200073242188,212.99400329589844 -84.00900268554688,212.99400329589844 C-77.6989974975586,212.99400329589844 -71.75399780273438,210.6320037841797 -67.26799774169922,206.34300231933594 C-41.02299880981445,181.25599670410156 24.9950008392334,116.62699890136719 71.0530014038086,58.47700119018555z"/></g></g><g style="display: block;" transform="matrix(0.2954423427581787,0.05209445580840111,-0.05209445580840111,0.2954423427581787,244.0062713623047,266.8103942871094)" opacity="1"><g opacity="1" transform="matrix(1,0,0,1,0,0)"><path stroke-linecap="round" stroke-linejoin="round" fill-opacity="0" stroke="rgb(255,255,255)" stroke-opacity="1" stroke-width="13.333" d="M0 0"/></g></g><g style="display: block;" transform="matrix(0.17207293212413788,0.24574562907218933,-0.24574562907218933,0.17207293212413788,232.1280975341797,266.8660583496094)" opacity="1"><g opacity="1" transform="matrix(1,0,0,1,0,0)"><path stroke-linecap="round" stroke-linejoin="round" fill-opacity="0" stroke="rgb(255,255,255)" stroke-opacity="1" stroke-width="13.333" d="M0 0"/></g></g><g style="display: block;" transform="matrix(-0.05209445580840111,0.2954423427581787,-0.2954423427581787,-0.05209445580840111,223.68960571289062,258.50628662109375)" opacity="1"><g opacity="1" transform="matrix(1,0,0,1,0,0)"><path stroke-linecap="round" stroke-linejoin="round" fill-opacity="0" stroke="rgb(255,255,255)" stroke-opacity="1" stroke-width="13.333" d="M0 0"/></g></g><g style="display: block;" transform="matrix(-0.24574562907218933,0.17207293212413788,-0.17207293212413788,-0.24574562907218933,223.63394165039062,246.62811279296875)" opacity="1"><g opacity="1" transform="matrix(1,0,0,1,0,0)"><path stroke-linecap="round" stroke-linejoin="round" fill-opacity="0" stroke="rgb(255,255,255)" stroke-opacity="1" stroke-width="13.333" d="M0 0"/></g></g><g style="display: block;" transform="matrix(-0.2954423427581787,-0.05209445580840111,0.05209445580840111,-0.2954423427581787,231.99371337890625,238.1896209716797)" opacity="1"><g opacity="1" transform="matrix(1,0,0,1,0,0)"><path stroke-linecap="round" stroke-linejoin="round" fill-opacity="0" stroke="rgb(255,255,255)" stroke-opacity="1" stroke-width="13.333" d="M0 0"/></g></g><g style="display: block;" transform="matrix(-0.17207293212413788,-0.24574562907218933,0.24574562907218933,-0.17207293212413788,243.87188720703125,238.1339569091797)" opacity="1"><g opacity="1" transform="matrix(1,0,0,1,0,0)"><path stroke-linecap="round" stroke-linejoin="round" fill-opacity="0" stroke="rgb(255,255,255)" stroke-opacity="1" stroke-width="13.333" d="M0 0"/></g></g><g style="display: block;" transform="matrix(0.05209445580840111,-0.2954423427581787,0.2954423427581787,0.05209445580840111,252.3103790283203,246.4937286376953)" opacity="1"><g opacity="1" transform="matrix(1,0,0,1,0,0)"><path stroke-linecap="round" stroke-linejoin="round" fill-opacity="0" stroke="rgb(255,255,255)" stroke-opacity="1" stroke-width="13.333" d="M0 0"/></g></g><g style="display: block;" transform="matrix(0.24574562907218933,-0.17207293212413788,0.17207293212413788,0.24574562907218933,252.3660430908203,258.37188720703125)" opacity="1"><g opacity="1" transform="matrix(1,0,0,1,0,0)"><path stroke-linecap="round" stroke-linejoin="round" fill-opacity="0" stroke="rgb(255,255,255)" stroke-opacity="1" stroke-width="13.333" d="M0 0"/></g></g></g></g></svg>