<svg xmlns="http://www.w3.org/2000/svg" xmlns:xlink="http://www.w3.org/1999/xlink" viewBox="0 0 512 512" width="512" height="512" style="width: 100%; height: 100%; transform: translate3d(0,0,0);" preserveAspectRatio="xMidYMid meet"><defs><clipPath id="__lottie_element_36010"><rect width="512" height="512" x="0" y="0"/></clipPath><linearGradient id="__lottie_element_36016" spreadMethod="pad" gradientUnits="userSpaceOnUse" x1="-189" y1="13" x2="-177.78199768066406" y2="13"><stop offset="5%" stop-color="rgb(181,181,181)"/><stop offset="19%" stop-color="rgb(213,218,218)"/><stop offset="34%" stop-color="rgb(246,254,254)"/><stop offset="42%" stop-color="rgb(212,228,237)"/><stop offset="46%" stop-color="rgb(179,202,220)"/><stop offset="53%" stop-color="rgb(132,144,153)"/><stop offset="80%" stop-color="rgb(84,85,86)"/><stop offset="87%" stop-color="rgb(99,101,103)"/><stop offset="100%" stop-color="rgb(114,118,120)"/></linearGradient><radialGradient id="__lottie_element_36017" spreadMethod="pad" gradientUnits="userSpaceOnUse" cx="-186.5" cy="-142.75" r="15.279507953650391" fx="-186.5" fy="-142.75"><stop offset="2%" stop-color="rgb(246,254,254)"/><stop offset="25%" stop-color="rgb(212,228,237)"/><stop offset="31%" stop-color="rgb(179,202,220)"/><stop offset="47%" stop-color="rgb(128,139,148)"/><stop offset="71%" stop-color="rgb(76,76,76)"/><stop offset="86%" stop-color="rgb(95,97,98)"/><stop offset="93%" stop-color="rgb(114,118,120)"/></radialGradient><linearGradient id="__lottie_element_36070" spreadMethod="pad" gradientUnits="userSpaceOnUse" x1="-246" y1="1" x2="243" y2="0"><stop offset="0%" stop-color="rgb(0,0,0)"/><stop offset="25%" stop-color="rgb(0,0,0)"/><stop offset="50%" stop-color="rgb(0,0,0)"/><stop offset="75%" stop-color="rgb(0,0,0)"/><stop offset="100%" stop-color="rgb(0,0,0)"/></linearGradient><mask id="__lottie_element_36072"><path fill="url(#__lottie_element_36071)" d=" M122.5,-166 C39.49700164794922,-165.63800048828125 -39.5,-128 -124.25,-126.81199645996094 C-197.0449981689453,-125.79199981689453 -237.75,-149 -246.875,-146 C-246.5,-83.5 -246,145.25 -246,145.25 C-246,145.25 -245.9949951171875,145.2519989013672 -245.9949951171875,145.2519989013672 C-245.9949951171875,145.2519989013672 -245.87100219726562,145.2899932861328 -245.69500732421875,145.343994140625 C-245.468994140625,145.41299438476562 -245.1179962158203,145.5189971923828 -244.64999389648438,145.6580047607422 C-241.35800170898438,146.63900756835938 -232.2449951171875,149.2760009765625 -219.52000427246094,152.32000732421875 C-195.79600524902344,157.9949951171875 -159.51800537109375,165.08399963378906 -125,165.5 C-42,166.5 29.5,127.5 120,126.5 C136.125,126.3219985961914 152.2760009765625,127.7040023803711 167.29400634765625,129.82699584960938 C188.24000549316406,132.78799438476562 206.98300170898438,137.19000244140625 220.375,140.81300354003906 C233.4080047607422,144.33799743652344 241.375,147.125 241.375,147.125 C241.375,147.125 241.375,78.30699920654297 241.375,78.30699920654297 C241.375,78.30699920654297 241.375,-144.625 241.375,-144.625 C241.375,-144.625 179.75,-166.25 122.5,-166z"/></mask><linearGradient id="__lottie_element_36071" spreadMethod="pad" gradientUnits="userSpaceOnUse" x1="-246" y1="1" x2="243" y2="0"><stop stop-color="rgb(255,255,255)" offset="0%" stop-opacity="1"/><stop stop-color="rgb(255,255,255)" offset="20%" stop-opacity="0.5"/><stop stop-color="rgb(255,255,255)" offset="40%" stop-opacity="0"/><stop stop-color="rgb(255,255,255)" offset="50%" stop-opacity="0"/><stop stop-color="rgb(255,255,255)" offset="60%" stop-opacity="0"/><stop stop-color="rgb(255,255,255)" offset="80%" stop-opacity="0.5"/><stop stop-color="rgb(255,255,255)" offset="100%" stop-opacity="1"/></linearGradient></defs><g clip-path="url(#__lottie_element_36010)"><g style="display: block;" transform="matrix(1.2200000286102295,0,0,1.2200000286102295,296.3348083496094,285.68896484375)" opacity="1"><g opacity="1" transform="matrix(1,0,0,1,0,0)"><path fill="url(#__lottie_element_36016)" fill-opacity="1" d=" M-177.822998046875,123.39199829101562 C-177.822998046875,123.39199829101562 -189.04100036621094,123.39199829101562 -189.04100036621094,123.39199829101562 C-189.04100036621094,123.39199829101562 -188.94900512695312,-140.572998046875 -188.94900512695312,-140.572998046875 C-188.94900512695312,-140.572998046875 -177.7310028076172,-140.572998046875 -177.7310028076172,-140.572998046875 C-177.7310028076172,-140.572998046875 -177.822998046875,123.39199829101562 -177.822998046875,123.39199829101562z"/></g><g opacity="1" transform="matrix(1,0,0,1,0,0)"><path fill="url(#__lottie_element_36017)" fill-opacity="1" d=" M-170.8090057373047,-139.07000732421875 C-170.8090057373047,-132.14999389648438 -176.4199981689453,-126.54000091552734 -183.33999633789062,-126.54000091552734 C-190.25999450683594,-126.54000091552734 -195.8699951171875,-132.14999389648438 -195.8699951171875,-139.07000732421875 C-195.8699951171875,-145.99000549316406 -190.25999450683594,-151.60000610351562 -183.33999633789062,-151.60000610351562 C-176.4199981689453,-151.60000610351562 -170.8090057373047,-145.99000549316406 -170.8090057373047,-139.07000732421875z"/></g></g><g style="display: block;" transform="matrix(0.7612800598144531,0,0,0.7612800598144531,267.67333984375,250.6127471923828)" opacity="1"><g opacity="1" transform="matrix(1,0,0,1,0,0)"><path fill="rgb(229,229,229)" fill-opacity="1" d=" M122.5,-166 C39.49700164794922,-165.63800048828125 -39.5,-128 -124.25,-126.81199645996094 C-197.0449981689453,-125.79199981689453 -237.75,-149 -246.875,-146 C-246.5,-83.5 -246,145.25 -246,145.25 C-246,145.25 -245.9949951171875,145.2519989013672 -245.9949951171875,145.2519989013672 C-245.9949951171875,145.2519989013672 -245.87100219726562,145.2899932861328 -245.69500732421875,145.343994140625 C-245.468994140625,145.41299438476562 -245.1179962158203,145.5189971923828 -244.64999389648438,145.6580047607422 C-241.35800170898438,146.63900756835938 -232.2449951171875,149.2760009765625 -219.52000427246094,152.32000732421875 C-195.79600524902344,157.9949951171875 -159.51800537109375,165.08399963378906 -125,165.5 C-42,166.5 29.5,127.5 120,126.5 C136.125,126.3219985961914 152.2760009765625,127.7040023803711 167.29400634765625,129.82699584960938 C188.24000549316406,132.78799438476562 206.98300170898438,137.19000244140625 220.375,140.81300354003906 C233.4080047607422,144.33799743652344 241.375,147.125 241.375,147.125 C241.375,147.125 241.375,78.30699920654297 241.375,78.30699920654297 C241.375,78.30699920654297 241.375,-144.625 241.375,-144.625 C241.375,-144.625 179.75,-166.25 122.5,-166z"/></g></g><g style="display: block;" transform="matrix(0.7612800598144531,0,0,0.7612800598144531,267.67333984375,250.6127471923828)" opacity="0.2"><g opacity="1" transform="matrix(1,0,0,1,0,0)"><path fill="url(#__lottie_element_36070)" mask="url(#__lottie_element_36072)" fill-opacity="1" d="M0 0 M122.5,-166 C39.49700164794922,-165.63800048828125 -39.5,-128 -124.25,-126.81199645996094 C-197.0449981689453,-125.79199981689453 -237.75,-149 -246.875,-146 C-246.5,-83.5 -246,145.25 -246,145.25 C-246,145.25 -245.9949951171875,145.2519989013672 -245.9949951171875,145.2519989013672 C-245.9949951171875,145.2519989013672 -245.87100219726562,145.2899932861328 -245.69500732421875,145.343994140625 C-245.468994140625,145.41299438476562 -245.1179962158203,145.5189971923828 -244.64999389648438,145.6580047607422 C-241.35800170898438,146.63900756835938 -232.2449951171875,149.2760009765625 -219.52000427246094,152.32000732421875 C-195.79600524902344,157.9949951171875 -159.51800537109375,165.08399963378906 -125,165.5 C-42,166.5 29.5,127.5 120,126.5 C136.125,126.3219985961914 152.2760009765625,127.7040023803711 167.29400634765625,129.82699584960938 C188.24000549316406,132.78799438476562 206.98300170898438,137.19000244140625 220.375,140.81300354003906 C233.4080047607422,144.33799743652344 241.375,147.125 241.375,147.125 C241.375,147.125 241.375,78.30699920654297 241.375,78.30699920654297 C241.375,78.30699920654297 241.375,-144.625 241.375,-144.625 C241.375,-144.625 179.75,-166.25 122.5,-166z"/></g></g><g style="display: block;" transform="matrix(0.7612800598144531,0,0,0.7612800598144531,267.67333984375,250.6127471923828)" opacity="0.2"><g opacity="1" transform="matrix(1,0,0,1,0,0)"><path fill="rgb(255,255,255)" fill-opacity="1" d=" M-246.875,-146 C-246.83700561523438,-139.70399475097656 -246.875,-138 -246.79200744628906,-132.81100463867188 C-237.5,-136.25 -197.25,-114 -124.49600219726562,-114.31099700927734 C-38.992000579833984,-114.6760025024414 39.233001708984375,-153.25 121.70800018310547,-153.39700317382812 C179.75,-153.5 241,-132.25 240.91200256347656,-131.552001953125 C241,-140.5 241.375,-144.625 241.375,-144.625 C241.375,-144.625 179.75,-166.25 122.5,-166 C39.49700164794922,-165.63800048828125 -39.5,-128 -124.25,-126.81199645996094 C-197.0449981689453,-125.79199981689453 -237.75,-149 -246.875,-146z"/></g></g><g style="display: block;" transform="matrix(0.7612800598144531,0,0,0.7612800598144531,267.67333984375,250.6127471923828)" opacity="0.15"><g opacity="1" transform="matrix(1,0,0,1,0,0)"><path fill="rgb(0,0,0)" fill-opacity="1" d=" M122.5,112.25 C34,112.25 -36,149.5 -123.5,152 C-140.61700439453125,152.48899841308594 -155.82000732421875,151.3489990234375 -170.41099548339844,149.1280059814453 C-195.23399353027344,145.35000610351562 -218.28900146484375,138.4459991455078 -246,131.125 C-246.25,134.5 -246,141.375 -246,145.125 C-218.5749969482422,153.30599975585938 -195.61700439453125,159.55499267578125 -170.83099365234375,163.0050048828125 C-155.8520050048828,165.08999633789062 -140.20399475097656,166.15199279785156 -122.5,166 C-35,165.25 33.5,126.625 121.75,126.5 C126.26799774169922,126.49400329589844 131.11399841308594,126.59500122070312 136.27699279785156,126.83899688720703 C163.25900268554688,128.11300659179688 198.88099670410156,133.2550048828125 241.375,147 C241.375,147 241.25,134.75 241.5,131.125 C199.093994140625,118.93299865722656 163.16200256347656,113.84500122070312 136.1439971923828,112.58000183105469 C131.30499267578125,112.35399627685547 126.75299835205078,112.25 122.5,112.25z"/></g></g><g style="display: block;" transform="matrix(0.7612800598144531,0,0,0.7612800598144531,267.67333984375,250.6127471923828)" opacity="1"><g opacity="1" transform="matrix(1,0,0,1,0,0)"><path stroke-linecap="round" stroke-linejoin="round" fill-opacity="0" stroke="rgb(153,153,153)" stroke-opacity="1" stroke-width="8" d=" M122.5,-166 C39.49700164794922,-165.63800048828125 -39.5,-128 -124.25,-126.81199645996094 C-197.0449981689453,-125.79199981689453 -237.75,-149 -246.875,-146 C-246.5,-83.5 -246,145.25 -246,145.25 C-246,145.25 -245.9949951171875,145.2519989013672 -245.9949951171875,145.2519989013672 C-245.9949951171875,145.2519989013672 -245.87100219726562,145.2899932861328 -245.69500732421875,145.343994140625 C-245.468994140625,145.41299438476562 -245.1179962158203,145.5189971923828 -244.64999389648438,145.6580047607422 C-241.35800170898438,146.63900756835938 -232.2449951171875,149.2760009765625 -219.52000427246094,152.32000732421875 C-195.79600524902344,157.9949951171875 -159.51800537109375,165.08399963378906 -125,165.5 C-42,166.5 29.5,127.5 120,126.5 C136.125,126.3219985961914 152.2760009765625,127.7040023803711 167.29400634765625,129.82699584960938 C188.24000549316406,132.78799438476562 206.98300170898438,137.19000244140625 220.375,140.81300354003906 C233.4080047607422,144.33799743652344 241.375,147.125 241.375,147.125 C241.375,147.125 241.375,78.30699920654297 241.375,78.30699920654297 C241.375,78.30699920654297 241.375,-144.625 241.375,-144.625 C241.375,-144.625 179.75,-166.25 122.5,-166z"/></g><g opacity="0" transform="matrix(1,0,0,1,0,0)"><path stroke-linecap="round" stroke-linejoin="miter" fill-opacity="0" stroke-miterlimit="4" stroke="rgb(153,153,153)" stroke-opacity="1" stroke-width="8" d=" M164,96.375 C164,96.375 174.375,104.875 174.375,104.875"/></g></g></g></svg>