<svg xmlns="http://www.w3.org/2000/svg" xmlns:xlink="http://www.w3.org/1999/xlink" viewBox="0 0 512 512" width="512" height="512" style="width: 100%; height: 100%; transform: translate3d(0,0,0);" preserveAspectRatio="xMidYMid meet"><defs><clipPath id="__lottie_element_13421"><rect width="512" height="512" x="0" y="0"/></clipPath><linearGradient id="__lottie_element_13440" spreadMethod="pad" gradientUnits="userSpaceOnUse" x1="-246" y1="1" x2="243" y2="0"><stop offset="0%" stop-color="rgb(0,0,0)"/><stop offset="25%" stop-color="rgb(0,0,0)"/><stop offset="50%" stop-color="rgb(0,0,0)"/><stop offset="75%" stop-color="rgb(0,0,0)"/><stop offset="100%" stop-color="rgb(0,0,0)"/></linearGradient><mask id="__lottie_element_13442"><path fill="url(#__lottie_element_13441)" d=" M-246.5,-145.5 C-246.5,-139 -246.5,144.218994140625 -246.5,146.593994140625 C-244.71200561523438,146.76499938964844 -241.55099487304688,147.5780029296875 -237.75900268554688,148.50999450683594 C-220.5,152.75 -191.07200622558594,159.75999450683594 -178.26499938964844,161.58399963378906 C-147.25,166 -127.13200378417969,165.62600708007812 -103.76799774169922,164.74600219726562 C-50.75,162.75 -4.125,146.125 27.19499969482422,139.3300018310547 C47.95800018310547,134.8249969482422 68.79000091552734,130.64500427246094 83.74700164794922,128.94000244140625 C106.25,126.375 122.875,126.75 143.25,128.35899353027344 C183.33700561523438,131.52499389648438 217.79400634765625,139.2030029296875 241.43800354003906,147.031005859375 C241.43800354003906,147.09300231933594 241.406005859375,147.09300231933594 241.406005859375,147.06199645996094 C241.406005859375,147.06199645996094 241.406005859375,147.06199645996094 241.406005859375,147.06199645996094 C241.56199645996094,120.56199645996094 241.23399353027344,82.29100036621094 241.25,49.90599822998047 C241.26600646972656,17.08300018310547 241.43699645996094,-15.739999771118164 241.5,-48.5629997253418 C241.56199645996094,-80.91699981689453 241.5,-128.75 241.625,-145.625 C151.281005859375,-172.5 103.15699768066406,-165.1009979248047 78.5,-162.81199645996094 C23.042999267578125,-156.04600524902344 -48.707000732421875,-130.79600524902344 -83.375,-129.06199645996094 C-157.875,-120.1240005493164 -212.75,-139.625 -246.5,-145.5z"/></mask><linearGradient id="__lottie_element_13441" spreadMethod="pad" gradientUnits="userSpaceOnUse" x1="-246" y1="1" x2="243" y2="0"><stop stop-color="rgb(255,255,255)" offset="0%" stop-opacity="1"/><stop stop-color="rgb(255,255,255)" offset="17%" stop-opacity="0.5"/><stop stop-color="rgb(255,255,255)" offset="33%" stop-opacity="0"/><stop stop-color="rgb(255,255,255)" offset="50%" stop-opacity="0"/><stop stop-color="rgb(255,255,255)" offset="66%" stop-opacity="0"/><stop stop-color="rgb(255,255,255)" offset="83%" stop-opacity="0.5"/><stop stop-color="rgb(255,255,255)" offset="100%" stop-opacity="1"/></linearGradient></defs><g clip-path="url(#__lottie_element_13421)"><g style="display: block;" transform="matrix(0.800000011920929,0,0,0.800000011920929,257.9656066894531,250.03680419921875)" opacity="1"><g opacity="1" transform="matrix(1,0,0,1,0,0)"><path fill="rgb(44,127,182)" fill-opacity="1" d=" M-83.76799774169922,163.27699279785156 C-70.08100128173828,162.9530029296875 -33.430999755859375,155.85899353027344 -2.680000066757202,146.8300018310547 C23.292999267578125,139.20399475097656 64.41799926757812,131.5780029296875 78.18800354003906,129.31100463867188 C100.53600311279297,125.63099670410156 103.15699768066406,-165.1009979248047 78.5,-162.81199645996094 C23.042999267578125,-156.04600524902344 -48.707000732421875,-130.79600524902344 -83.375,-129.06199645996094 C-157.875,-120.1240005493164 -107.14199829101562,163.8300018310547 -83.76799774169922,163.27699279785156z"/></g><g opacity="1" transform="matrix(1,0,0,1,0,0)"><path fill="rgb(245,201,28)" fill-opacity="1" d=" M241.406005859375,147.06199645996094 C241.56199645996094,120.56199645996094 241.23399353027344,82.29100036621094 241.25,49.90599822998047 C241.26600646972656,17.08300018310547 241.43699645996094,-15.739999771118164 241.5,-48.5629997253418 C241.56199645996094,-80.91699981689453 241.5,-128.75 241.625,-145.625 C151.281005859375,-172.5 103.15699768066406,-165.1009979248047 78.5,-162.81199645996094 C78.54299926757812,-148.04600524902344 78.7239990234375,-51.95899963378906 78.80599975585938,3.4679999351501465 C78.84400177001953,29.06100082397461 78.98699951171875,54.654998779296875 78.86000061035156,80.24800109863281 C78.80899810791016,90.48100280761719 78.50199890136719,102.66699981689453 78.31400299072266,113.13999938964844 C78.20099639892578,119.40699768066406 78.13099670410156,125.06099700927734 78.18399810791016,129.31500244140625 C82.79299926757812,128.70399475097656 95.38700103759766,127.7969970703125 102.0009994506836,127.50299835205078 C104.4209976196289,127.3949966430664 112.30000305175781,127.25 121.89600372314453,127.39399719238281 C131.32400512695312,127.53500366210938 142.4080047607422,127.95600128173828 151.59800720214844,128.96499633789062 C210.66799926757812,135.45399475097656 241.406005859375,147.06199645996094 241.406005859375,147.06199645996094z"/></g><g opacity="1" transform="matrix(1,0,0,1,0,0)"><path fill="rgb(242,242,242)" fill-opacity="1" d=" M-246.5,-145.5 C-246.5,-139 -246.5,144.218994140625 -246.5,146.593994140625 C-237.01199340820312,147.23800659179688 -199.2220001220703,161.7729949951172 -144.3179931640625,164.906005859375 C-125.91400146484375,165.95599365234375 -105.58699798583984,165.72500610351562 -83.75900268554688,163.25999450683594 C-83.83100128173828,158.95599365234375 -83.60299682617188,142.11300659179688 -83.48300170898438,100.40299987792969 C-83.36199951171875,58.2130012512207 -83.37699890136719,47.42900085449219 -83.32099914550781,3.3340001106262207 C-83.29199981689453,-19.281999588012695 -83.10700225830078,-62.74300003051758 -83.14700317382812,-78.58200073242188 C-83.16400146484375,-85.07599639892578 -83.34300231933594,-124.29199981689453 -83.375,-129.06199645996094 C-157.875,-120.1240005493164 -212.75,-139.625 -246.5,-145.5z"/></g></g><g style="display: block;" transform="matrix(0.800000011920929,0,0,0.800000011920929,53.20000457763672,44.40000915527344)" opacity="1"><g opacity="1" transform="matrix(1,0,0,1,253.2209930419922,229.66400146484375)"><path fill="rgb(218,41,28)" fill-opacity="1" d=" M-11.696999549865723,14.180999755859375 C-11.696999549865723,14.180999755859375 -15.071999549865723,8.484999656677246 -17.114999771118164,5.208000183105469 C-22.3700008392334,1.2719999551773071 -19.41200065612793,-2.6640000343322754 -16.858999252319336,-5.046999931335449 C-13.074000358581543,-8.579000473022461 1.2690000534057617,-15.430999755859375 15.609000205993652,-13.984000205993652 C19.56999969482422,-13.583999633789062 22.6299991607666,-9.814000129699707 16.757999420166016,-2.75 C14.88599967956543,0.8240000009536743 11.751999855041504,8.348999977111816 11.751999855041504,8.348999977111816 C11.751999855041504,8.348999977111816 -11.696999549865723,14.180999755859375 -11.696999549865723,14.180999755859375z"/></g><g opacity="1" transform="matrix(1,0,0,1,241.093994140625,230.23599243164062)"><path stroke-linecap="round" stroke-linejoin="round" fill-opacity="0" stroke="rgb(255,204,0)" stroke-opacity="1" stroke-width="1.7" d=" M-1.7649999856948853,4.625999927520752 C-11.052000045776367,-0.5759999752044678 3.691999912261963,-11.331000328063965 4.818999767303467,1.2480000257492065"/></g><g opacity="1" transform="matrix(1,0,0,1,249.4929962158203,225.6580047607422)"><path stroke-linecap="round" stroke-linejoin="round" fill-opacity="0" stroke="rgb(255,204,0)" stroke-opacity="1" stroke-width="1.7" d=" M-1.5470000505447388,4.639999866485596 C-11.281000137329102,-1.7430000305175781 7.038000106811523,-11.1899995803833 4.1020002365112305,2.0230000019073486"/></g><g opacity="1" transform="matrix(1,0,0,1,257.5039978027344,223.04100036621094)"><path stroke-linecap="round" stroke-linejoin="round" fill-opacity="0" stroke="rgb(255,204,0)" stroke-opacity="1" stroke-width="1.7" d=" M-2.757999897003174,4.190000057220459 C-9.697999954223633,-4.446000099182129 9.291999816894531,-8.817000389099121 3.0160000324249268,3.127000093460083"/></g><g opacity="1" transform="matrix(1,0,0,1,266.04901123046875,223.2989959716797)"><path stroke-linecap="round" stroke-linejoin="round" fill-opacity="0" stroke="rgb(255,204,0)" stroke-opacity="1" stroke-width="1.7" d=" M-4.218999862670898,2.627000093460083 C-5.879000186920166,-7.809000015258789 11.675000190734863,-5.447000026702881 0.6959999799728394,4.190999984741211"/></g><g opacity="1" transform="matrix(1,0,0,1,253.1490020751953,220.54800415039062)"><path fill="rgb(255,204,0)" fill-opacity="1" d=" M0.5740000009536743,-8.472999572753906 C0.04899999871850014,-8.472999572753906 -0.4569999873638153,-8.434000015258789 -0.4569999873638153,-8.434000015258789 C-0.4569999873638153,-8.434000015258789 -1.9149999618530273,-3.505000114440918 -1.9149999618530273,-3.505000114440918 C-1.9149999618530273,-3.505000114440918 -1.9149999618530273,8.472999572753906 -1.9149999618530273,8.472999572753906 C-1.9149999618530273,8.472999572753906 1.9149999618530273,7.611999988555908 1.9149999618530273,7.611999988555908 C1.9149999618530273,7.611999988555908 1.9149999618530273,-4.323999881744385 1.9149999618530273,-4.323999881744385 C1.4290000200271606,-4.348999977111816 0.5740000009536743,-8.472999572753906 0.5740000009536743,-8.472999572753906z"/><path stroke-linecap="round" stroke-linejoin="round" fill-opacity="0" stroke="rgb(255,204,0)" stroke-opacity="1" stroke-width="0.5" d=" M0.5740000009536743,-8.472999572753906 C0.04899999871850014,-8.472999572753906 -0.4569999873638153,-8.434000015258789 -0.4569999873638153,-8.434000015258789 C-0.4569999873638153,-8.434000015258789 -1.9149999618530273,-3.505000114440918 -1.9149999618530273,-3.505000114440918 C-1.9149999618530273,-3.505000114440918 -1.9149999618530273,8.472999572753906 -1.9149999618530273,8.472999572753906 C-1.9149999618530273,8.472999572753906 1.9149999618530273,7.611999988555908 1.9149999618530273,7.611999988555908 C1.9149999618530273,7.611999988555908 1.9149999618530273,-4.323999881744385 1.9149999618530273,-4.323999881744385 C1.4290000200271606,-4.348999977111816 0.5740000009536743,-8.472999572753906 0.5740000009536743,-8.472999572753906z"/></g><g opacity="1" transform="matrix(1,0,0,1,253.04800415039062,234.10000610351562)"><g opacity="1" transform="matrix(1,0,0,1,0,0)"><path fill="rgb(255,204,0)" fill-opacity="1" d=" M8.505999565124512,-9.694999694824219 C6.611999988555908,-8.22700023651123 2.930999994277954,-5.355000019073486 0.2930000126361847,-8.631999969482422 C-1.8990000486373901,-5.696000099182129 -3.749000072479248,-4.184999942779541 -7.940999984741211,-5.589000225067139 C-9.60099983215332,-1.2799999713897705 -13.88700008392334,0.35600000619888306 -16.930999755859375,0.7889999747276306 C-14.987000465393066,3.9079999923706055 -11.855999946594238,9.185999870300293 -11.553999900817871,9.694999694824219 C-7.684000015258789,6.11899995803833 1.8049999475479126,0.7879999876022339 11.930000305175781,3.9030001163482666 C11.97700023651123,3.7899999618530273 15.072999954223633,-3.638000011444092 16.930999755859375,-7.184999942779541 C12.675999641418457,-6.249000072479248 9.932000160217285,-6.716000080108643 8.505999565124512,-9.694999694824219z"/><path stroke-linecap="round" stroke-linejoin="round" fill-opacity="0" stroke="rgb(255,204,0)" stroke-opacity="1" stroke-width="1" d=" M8.505999565124512,-9.694999694824219 C6.611999988555908,-8.22700023651123 2.930999994277954,-5.355000019073486 0.2930000126361847,-8.631999969482422 C-1.8990000486373901,-5.696000099182129 -3.749000072479248,-4.184999942779541 -7.940999984741211,-5.589000225067139 C-9.60099983215332,-1.2799999713897705 -13.88700008392334,0.35600000619888306 -16.930999755859375,0.7889999747276306 C-14.987000465393066,3.9079999923706055 -11.855999946594238,9.185999870300293 -11.553999900817871,9.694999694824219 C-7.684000015258789,6.11899995803833 1.8049999475479126,0.7879999876022339 11.930000305175781,3.9030001163482666 C11.97700023651123,3.7899999618530273 15.072999954223633,-3.638000011444092 16.930999755859375,-7.184999942779541 C12.675999641418457,-6.249000072479248 9.932000160217285,-6.716000080108643 8.505999565124512,-9.694999694824219z"/></g></g></g><g style="display: block;" transform="matrix(0.800000011920929,0,0,0.800000011920929,53.20000457763672,44.40000915527344)" opacity="1"><g opacity="1" transform="matrix(1,0,0,1,229.6060028076172,251.44200134277344)"><path fill="rgb(200,130,66)" fill-opacity="1" d=" M-5.881999969482422,5.090000152587891 C-5.881999969482422,5.090000152587891 -1.9670000076293945,8.833999633789062 -1.9670000076293945,8.833999633789062 C-1.9670000076293945,8.833999633789062 -0.37700000405311584,-1.5490000247955322 2.8940000534057617,-5.3470001220703125 C2.8940000534057617,-5.3470001220703125 4.298999786376953,-5.697000026702881 5.86299991607666,-6.111999988555908 C6.0229997634887695,-7.644000053405762 5.235000133514404,-9.388999938964844 2.6389999389648438,-8.666000366210938 C0.0430000014603138,-7.942999839782715 -5.881999969482422,5.090000152587891 -5.881999969482422,5.090000152587891z"/><path stroke-linecap="round" stroke-linejoin="round" fill-opacity="0" stroke="rgb(0,0,0)" stroke-opacity="1" stroke-width="1" d=" M-5.881999969482422,5.090000152587891 C-5.881999969482422,5.090000152587891 -1.9670000076293945,8.833999633789062 -1.9670000076293945,8.833999633789062 C-1.9670000076293945,8.833999633789062 -0.37700000405311584,-1.5490000247955322 2.8940000534057617,-5.3470001220703125 C2.8940000534057617,-5.3470001220703125 4.298999786376953,-5.697000026702881 5.86299991607666,-6.111999988555908 C6.0229997634887695,-7.644000053405762 5.235000133514404,-9.388999938964844 2.6389999389648438,-8.666000366210938 C0.0430000014603138,-7.942999839782715 -5.881999969482422,5.090000152587891 -5.881999969482422,5.090000152587891z"/></g><g opacity="1" transform="matrix(1,0,0,1,213.19400024414062,273.4469909667969)"><path fill="rgb(200,130,66)" fill-opacity="1" d=" M-9.512999534606934,15.85099983215332 C-8.086000442504883,19.988000869750977 -10.236000061035156,22.615999221801758 -12.279000282287598,24.062999725341797 C-12.236000061035156,24.957000732421875 -12.406999588012695,26.402999877929688 -12.36400032043457,27.68000030517578 C-9.682999610900879,30.062999725341797 -8.875,32.319000244140625 -8.02400016784668,35 C-6.6620001792907715,34.70199966430664 -3.746999979019165,34.12699890136719 -1.9809999465942383,33.553001403808594 C-1.7489999532699585,32.1870002746582 -2.8320000171661377,29.93600082397461 -6.257999897003174,30.319000244140625 C-7.960000038146973,28.40399932861328 -7.833000183105469,26.275999069213867 -7.301000118255615,25.211999893188477 C-2.236999988555908,20.743999481201172 -0.5989999771118164,18.253999710083008 -1.003000020980835,15.29699993133545 C2.125,14.574000358581543 3.678999900817871,16.63800048828125 2.4019999504089355,18.915000915527344 C5.4019999504089355,20.766000747680664 6.27400016784668,22.573999404907227 7.252999782562256,24.82900047302246 C8.593000411987305,24.510000228881836 10.508000373840332,24.06399917602539 12.27400016784668,23.63800048828125 C12.687000274658203,22.854999542236328 11.805000305175781,20.191999435424805 9.081999778747559,20.14900016784668 C6.997000217437744,19.06399917602539 6.7210001945495605,17.424999237060547 6.9120001792907715,15.977999687194824 C10.46500015258789,11.9350004196167 7.551000118255615,8.14799976348877 3.1679999828338623,7.658999919891357 C3.9769999980926514,5.510000228881836 7.318999767303467,1.7059999704360962 8.869999885559082,0.7020000219345093 C14.060999870300293,-2.6600000858306885 13.902000427246094,-6.888999938964844 19.305999755859375,-13.229000091552734 C19.305999755859375,-13.229000091552734 19.290000915527344,-20.218000411987305 19.290000915527344,-20.218000411987305 C19.290000915527344,-20.218000411987305 16.89699935913086,-19.979000091552734 17.551000595092773,-15.723999977111816 C17.551000595092773,-15.723999977111816 15.039999961853027,-13.085000038146973 15.039999961853027,-13.085000038146973 C15.039999961853027,-13.085000038146973 14.741999626159668,-16.916000366210938 11.253000259399414,-18.31999969482422 C11.253000259399414,-18.31999969482422 11.253000259399414,-21.85099983215332 11.253000259399414,-23.680999755859375 C12.741999626159668,-25.93600082397461 17.422000885009766,-28.531999588012695 16.698999404907227,-31.128000259399414 C17.507999420166016,-33 17.33799934387207,-37.38399887084961 11.805999755859375,-33.340999603271484 C-1.6299999952316284,-32.58599853515625 1.7139999866485596,-18.509000778198242 1.3380000591278076,-12.744999885559082 C0.2849999964237213,3.382999897003174 -8.515999794006348,3.6989998817443848 -10.439000129699707,11.871999740600586 C-12.258000373840332,15.670000076293945 -15.253000259399414,15.520000457763672 -16.343000411987305,13.637999534606934 C-17.93899917602539,10.883000373840332 -14.623000144958496,8.484999656677246 -16.06599998474121,7.617000102996826 C-17.9060001373291,6.511000156402588 -20.621000289916992,11.826000213623047 -18.57699966430664,15.670000076293945 C-17.23699951171875,18.19099998474121 -13.086999893188477,19.21299934387207 -9.512999534606934,15.85099983215332z"/><path stroke-linecap="round" stroke-linejoin="round" fill-opacity="0" stroke="rgb(0,0,0)" stroke-opacity="1" stroke-width="1" d=" M-9.512999534606934,15.85099983215332 C-8.086000442504883,19.988000869750977 -10.236000061035156,22.615999221801758 -12.279000282287598,24.062999725341797 C-12.236000061035156,24.957000732421875 -12.406999588012695,26.402999877929688 -12.36400032043457,27.68000030517578 C-9.682999610900879,30.062999725341797 -8.875,32.319000244140625 -8.02400016784668,35 C-6.6620001792907715,34.70199966430664 -3.746999979019165,34.12699890136719 -1.9809999465942383,33.553001403808594 C-1.7489999532699585,32.1870002746582 -2.8320000171661377,29.93600082397461 -6.257999897003174,30.319000244140625 C-7.960000038146973,28.40399932861328 -7.833000183105469,26.275999069213867 -7.301000118255615,25.211999893188477 C-2.236999988555908,20.743999481201172 -0.5989999771118164,18.253999710083008 -1.003000020980835,15.29699993133545 C2.125,14.574000358581543 3.678999900817871,16.63800048828125 2.4019999504089355,18.915000915527344 C5.4019999504089355,20.766000747680664 6.27400016784668,22.573999404907227 7.252999782562256,24.82900047302246 C8.593000411987305,24.510000228881836 10.508000373840332,24.06399917602539 12.27400016784668,23.63800048828125 C12.687000274658203,22.854999542236328 11.805000305175781,20.191999435424805 9.081999778747559,20.14900016784668 C6.997000217437744,19.06399917602539 6.7210001945495605,17.424999237060547 6.9120001792907715,15.977999687194824 C10.46500015258789,11.9350004196167 7.551000118255615,8.14799976348877 3.1679999828338623,7.658999919891357 C3.9769999980926514,5.510000228881836 7.318999767303467,1.7059999704360962 8.869999885559082,0.7020000219345093 C14.060999870300293,-2.6600000858306885 13.902000427246094,-6.888999938964844 19.305999755859375,-13.229000091552734 C19.305999755859375,-13.229000091552734 19.290000915527344,-20.218000411987305 19.290000915527344,-20.218000411987305 C19.290000915527344,-20.218000411987305 16.89699935913086,-19.979000091552734 17.551000595092773,-15.723999977111816 C17.551000595092773,-15.723999977111816 15.039999961853027,-13.085000038146973 15.039999961853027,-13.085000038146973 C15.039999961853027,-13.085000038146973 14.741999626159668,-16.916000366210938 11.253000259399414,-18.31999969482422 C11.253000259399414,-18.31999969482422 11.253000259399414,-21.85099983215332 11.253000259399414,-23.680999755859375 C12.741999626159668,-25.93600082397461 17.422000885009766,-28.531999588012695 16.698999404907227,-31.128000259399414 C17.507999420166016,-33 17.33799934387207,-37.38399887084961 11.805999755859375,-33.340999603271484 C-1.6299999952316284,-32.58599853515625 1.7139999866485596,-18.509000778198242 1.3380000591278076,-12.744999885559082 C0.2849999964237213,3.382999897003174 -8.515999794006348,3.6989998817443848 -10.439000129699707,11.871999740600586 C-12.258000373840332,15.670000076293945 -15.253000259399414,15.520000457763672 -16.343000411987305,13.637999534606934 C-17.93899917602539,10.883000373840332 -14.623000144958496,8.484999656677246 -16.06599998474121,7.617000102996826 C-17.9060001373291,6.511000156402588 -20.621000289916992,11.826000213623047 -18.57699966430664,15.670000076293945 C-17.23699951171875,18.19099998474121 -13.086999893188477,19.21299934387207 -9.512999534606934,15.85099983215332z"/></g><g opacity="1" transform="matrix(1,0,0,1,223.8090057373047,266.76300048828125)"><path stroke-linecap="round" stroke-linejoin="round" fill-opacity="0" stroke="rgb(0,0,0)" stroke-opacity="1" stroke-width="1" d=" M-4.2129998207092285,-0.1889999955892563 C-4.2129998207092285,-0.1889999955892563 0.3409999907016754,0.492000013589859 4.2129998207092285,0.024000000208616257"/></g><g opacity="1" transform="matrix(1,0,0,1,218.8699951171875,249.5330047607422)"><path stroke-linecap="round" stroke-linejoin="round" fill-opacity="0" stroke="rgb(0,0,0)" stroke-opacity="1" stroke-width="1" d=" M-1.9559999704360962,-0.8740000128746033 C-1.9559999704360962,5.508999824523926 4.086999893188477,2.997999906539917 1.1510000228881836,-2.874000072479248"/></g><g opacity="1" transform="matrix(1,0,0,1,277.6659851074219,241.24000549316406)"><path fill="rgb(200,130,66)" fill-opacity="1" d=" M6.631999969482422,4.270999908447266 C6.631999969482422,4.270999908447266 3.631999969482422,8.73900032043457 3.631999969482422,8.73900032043457 C3.631999969482422,8.73900032043457 -0.4320000112056732,-4.452000141143799 -3.9639999866485596,-5.431000232696533 C-3.9639999866485596,-5.431000232696533 -5.750999927520752,-4.9629998207092285 -6.559999942779541,-4.771999835968018 C-6.980000019073486,-6.254000186920166 -5.550000190734863,-9.0649995803833 -2.878999948501587,-8.708000183105469 C0.1420000046491623,-8.303999900817871 6.631999969482422,4.270999908447266 6.631999969482422,4.270999908447266z"/><path stroke-linecap="round" stroke-linejoin="round" fill-opacity="0" stroke="rgb(0,0,0)" stroke-opacity="1" stroke-width="1" d=" M6.631999969482422,4.270999908447266 C6.631999969482422,4.270999908447266 3.631999969482422,8.73900032043457 3.631999969482422,8.73900032043457 C3.631999969482422,8.73900032043457 -0.4320000112056732,-4.452000141143799 -3.9639999866485596,-5.431000232696533 C-3.9639999866485596,-5.431000232696533 -5.750999927520752,-4.9629998207092285 -6.559999942779541,-4.771999835968018 C-6.980000019073486,-6.254000186920166 -5.550000190734863,-9.0649995803833 -2.878999948501587,-8.708000183105469 C0.1420000046491623,-8.303999900817871 6.631999969482422,4.270999908447266 6.631999969482422,4.270999908447266z"/></g><g opacity="1" transform="matrix(1,0,0,1,293.2070007324219,256.010986328125)"><path fill="rgb(200,130,66)" fill-opacity="1" d=" M9.40999984741211,10.541999816894531 C8.713000297546387,14.862000465393066 10.00100040435791,16.31800079345703 12.26099967956543,17.39299964904785 C12.239999771118164,18.520999908447266 12.281999588012695,19.371999740600586 12.281999588012695,20.64900016784668 C10.23900032043457,24.075000762939453 9.069000244140625,26.266000747680664 7.877999782562256,29.882999420166016 C6.3460001945495605,30.13800048828125 4.005000114440918,30.775999069213867 2.132999897003174,30.98900032043457 C1.6699999570846558,29.683000564575195 2.7720000743865967,27.075000762939453 6.176000118255615,26.266000747680664 C7.525000095367432,24.08799934387207 7.860000133514404,21.13800048828125 7.1539998054504395,20.180999755859375 C1.281999945640564,16.94700050354004 1.093000054359436,16.226999282836914 0.984000027179718,13.244000434875488 C-1.5269999504089355,13.456999778747559 -4.196000099182129,16.368999481201172 -2.5480000972747803,18.39299964904785 C-5.229000091552734,21.413999557495117 -6.607999801635742,23.704999923706055 -7.185999870300293,26.094999313354492 C-8.760000228881836,26.562999725341797 -10.505000114440918,26.945999145507812 -12.164999961853027,27.32900047302246 C-12.293000221252441,26.47800064086914 -11.95300006866455,24.05299949645996 -9.144000053405762,22.90399932861328 C-7.276000022888184,21.47800064086914 -6.664000034332275,19.062999725341797 -7.10099983215332,17.670000076293945 C-9.696999549865723,14.435999870300293 -7.058000087738037,9.626999855041504 -3.0250000953674316,7.140999794006348 C-5.122000217437744,4.116000175476074 -8.336999893188477,3.244999885559082 -10.036999702453613,2.5209999084472656 C-14.185999870300293,0.7549999952316284 -12.95199966430664,-1.031999945640564 -19.420000076293945,-6.329999923706055 C-19.420000076293945,-6.329999923706055 -19.420000076293945,-13.309000015258789 -19.420000076293945,-13.309000015258789 C-19.420000076293945,-13.309000015258789 -16.84600067138672,-13.5 -17.18600082397461,-9.394000053405762 C-17.18600082397461,-9.394000053405762 -14.972999572753906,-7.7129998207092285 -14.972999572753906,-7.7129998207092285 C-14.972999572753906,-7.7129998207092285 -14.696000099182129,-11.692000389099121 -11.505000114440918,-14.79800033569336 C-11.505000114440918,-14.79800033569336 -11.479000091552734,-18.224000930786133 -11.479000091552734,-20.239999771118164 C-14.607000350952148,-22.12299919128418 -16.472999572753906,-22.474000930786133 -16.823999404907227,-25.45800018310547 C-16.95199966430664,-26.86199951171875 -17.621999740600586,-31.10700035095215 -12.10099983215332,-29.79800033569336 C0.12200000137090683,-35.09600067138672 -0.8629999756813049,-21.405000686645508 -1.0269999504089355,-14.51099967956543 C-1.409999966621399,1.5420000553131104 10.654000282287598,-1.2660000324249268 10.835000038146973,6.797999858856201 C13.154000282287598,8.904000282287598 15.694000244140625,7.179999828338623 16.4950008392334,5.158999919891357 C17.792999267578125,1.8819999694824219 15.027000427246094,0.5849999785423279 16.19700050354004,-0.7129999995231628 C17.43199920654297,-2.0829999446868896 20.62299919128418,1.4789999723434448 18.941999435424805,6.35099983215332 C18.01099967956543,9.050000190734863 14.793000221252441,11.881999969482422 9.40999984741211,10.541999816894531z"/><path stroke-linecap="round" stroke-linejoin="round" fill-opacity="0" stroke="rgb(0,0,0)" stroke-opacity="1" stroke-width="1" d=" M9.40999984741211,10.541999816894531 C8.713000297546387,14.862000465393066 10.00100040435791,16.31800079345703 12.26099967956543,17.39299964904785 C12.239999771118164,18.520999908447266 12.281999588012695,19.371999740600586 12.281999588012695,20.64900016784668 C10.23900032043457,24.075000762939453 9.069000244140625,26.266000747680664 7.877999782562256,29.882999420166016 C6.3460001945495605,30.13800048828125 4.005000114440918,30.775999069213867 2.132999897003174,30.98900032043457 C1.6699999570846558,29.683000564575195 2.7720000743865967,27.075000762939453 6.176000118255615,26.266000747680664 C7.525000095367432,24.08799934387207 7.860000133514404,21.13800048828125 7.1539998054504395,20.180999755859375 C1.281999945640564,16.94700050354004 1.093000054359436,16.226999282836914 0.984000027179718,13.244000434875488 C-1.5269999504089355,13.456999778747559 -4.196000099182129,16.368999481201172 -2.5480000972747803,18.39299964904785 C-5.229000091552734,21.413999557495117 -6.607999801635742,23.704999923706055 -7.185999870300293,26.094999313354492 C-8.760000228881836,26.562999725341797 -10.505000114440918,26.945999145507812 -12.164999961853027,27.32900047302246 C-12.293000221252441,26.47800064086914 -11.95300006866455,24.05299949645996 -9.144000053405762,22.90399932861328 C-7.276000022888184,21.47800064086914 -6.664000034332275,19.062999725341797 -7.10099983215332,17.670000076293945 C-9.696999549865723,14.435999870300293 -7.058000087738037,9.626999855041504 -3.0250000953674316,7.140999794006348 C-5.122000217437744,4.116000175476074 -8.336999893188477,3.244999885559082 -10.036999702453613,2.5209999084472656 C-14.185999870300293,0.7549999952316284 -12.95199966430664,-1.031999945640564 -19.420000076293945,-6.329999923706055 C-19.420000076293945,-6.329999923706055 -19.420000076293945,-13.309000015258789 -19.420000076293945,-13.309000015258789 C-19.420000076293945,-13.309000015258789 -16.84600067138672,-13.5 -17.18600082397461,-9.394000053405762 C-17.18600082397461,-9.394000053405762 -14.972999572753906,-7.7129998207092285 -14.972999572753906,-7.7129998207092285 C-14.972999572753906,-7.7129998207092285 -14.696000099182129,-11.692000389099121 -11.505000114440918,-14.79800033569336 C-11.505000114440918,-14.79800033569336 -11.479000091552734,-18.224000930786133 -11.479000091552734,-20.239999771118164 C-14.607000350952148,-22.12299919128418 -16.472999572753906,-22.474000930786133 -16.823999404907227,-25.45800018310547 C-16.95199966430664,-26.86199951171875 -17.621999740600586,-31.10700035095215 -12.10099983215332,-29.79800033569336 C0.12200000137090683,-35.09600067138672 -0.8629999756813049,-21.405000686645508 -1.0269999504089355,-14.51099967956543 C-1.409999966621399,1.5420000553131104 10.654000282287598,-1.2660000324249268 10.835000038146973,6.797999858856201 C13.154000282287598,8.904000282287598 15.694000244140625,7.179999828338623 16.4950008392334,5.158999919891357 C17.792999267578125,1.8819999694824219 15.027000427246094,0.5849999785423279 16.19700050354004,-0.7129999995231628 C17.43199920654297,-2.0829999446868896 20.62299919128418,1.4789999723434448 18.941999435424805,6.35099983215332 C18.01099967956543,9.050000190734863 14.793000221252441,11.881999969482422 9.40999984741211,10.541999816894531z"/></g><g opacity="1" transform="matrix(1,0,0,1,283.010986328125,252.27699279785156)"><path stroke-linecap="round" stroke-linejoin="round" fill-opacity="0" stroke="rgb(0,0,0)" stroke-opacity="1" stroke-width="1" d=" M4.244999885559082,-2.255000114440918 C4.244999885559082,-2.255000114440918 -1.75600004196167,1.2339999675750732 -4.244999885559082,2.255000114440918"/></g><g opacity="1" transform="matrix(1,0,0,1,287.7969970703125,233.24200439453125)"><path stroke-linecap="round" stroke-linejoin="round" fill-opacity="0" stroke="rgb(0,0,0)" stroke-opacity="1" stroke-width="1" d=" M2.0220000743865967,-2.0820000171661377 C1.0010000467300415,5.163000106811523 -3.7869999408721924,3.757999897003174 -1.3289999961853027,-2.7679998874664307"/></g></g><g style="display: block;" transform="matrix(0.800000011920929,0,0,0.800000011920929,53.20000457763672,44.40000915527344)" opacity="1"><g opacity="1" transform="matrix(1,0,0,1,253.13400268554688,263.64801025390625)"><path fill="rgb(44,99,182)" fill-opacity="1" d=" M-20.645000457763672,-17.56399917602539 C-20.645000457763672,-17.56399917602539 -20.645000457763672,11.904999732971191 -20.645000457763672,19.138999938964844 C-20.134000778198242,36.15999984741211 21.482999801635742,25.947999954223633 20.631999969482422,7.90500020980835 C20.631999969482422,-0.11500000208616257 20.631999969482422,-27.839000701904297 20.631999969482422,-27.839000701904297 C20.631999969482422,-27.839000701904297 -20.645000457763672,-17.56399917602539 -20.645000457763672,-17.56399917602539z"/><path stroke-linecap="round" stroke-linejoin="round" fill-opacity="0" stroke="rgb(0,0,0)" stroke-opacity="1" stroke-width="1" d=" M-20.645000457763672,-17.56399917602539 C-20.645000457763672,-17.56399917602539 -20.645000457763672,11.904999732971191 -20.645000457763672,19.138999938964844 C-20.134000778198242,36.15999984741211 21.482999801635742,25.947999954223633 20.631999969482422,7.90500020980835 C20.631999969482422,-0.11500000208616257 20.631999969482422,-27.839000701904297 20.631999969482422,-27.839000701904297 C20.631999969482422,-27.839000701904297 -20.645000457763672,-17.56399917602539 -20.645000457763672,-17.56399917602539z"/></g><g opacity="1" transform="matrix(1,0,0,1,253.23399353027344,283.3070068359375)"><path fill="rgb(255,255,255)" fill-opacity="1" d=" M-6.617000102996826,4.245999813079834 C-2.5739998817443848,3.3519999980926514 4.105999946594238,1.6510000228881836 6.617000102996826,0.8420000076293945 C-1.0850000381469727,-7.285999774932861 -0.40400001406669617,-5.328000068664551 -6.617000102996826,4.245999813079834z"/><path stroke-linecap="round" stroke-linejoin="round" fill-opacity="0" stroke="rgb(0,0,0)" stroke-opacity="1" stroke-width="1" d=" M-6.617000102996826,4.245999813079834 C-2.5739998817443848,3.3519999980926514 4.105999946594238,1.6510000228881836 6.617000102996826,0.8420000076293945 C-1.0850000381469727,-7.285999774932861 -0.40400001406669617,-5.328000068664551 -6.617000102996826,4.245999813079834z"/></g><g opacity="1" transform="matrix(1,0,0,1,244.0850067138672,274.2860107421875)"><path fill="rgb(255,255,255)" fill-opacity="1" d=" M-6.617000102996826,4.245999813079834 C-2.5739998817443848,3.3519999980926514 4.105999946594238,1.6510000228881836 6.617000102996826,0.8420000076293945 C-1.0850000381469727,-7.285999774932861 -0.40400001406669617,-5.328000068664551 -6.617000102996826,4.245999813079834z"/><path stroke-linecap="round" stroke-linejoin="round" fill-opacity="0" stroke="rgb(0,0,0)" stroke-opacity="1" stroke-width="1" d=" M-6.617000102996826,4.245999813079834 C-2.5739998817443848,3.3519999980926514 4.105999946594238,1.6510000228881836 6.617000102996826,0.8420000076293945 C-1.0850000381469727,-7.285999774932861 -0.40400001406669617,-5.328000068664551 -6.617000102996826,4.245999813079834z"/></g><g opacity="1" transform="matrix(1,0,0,1,262.4679870605469,269.7250061035156)"><path fill="rgb(255,255,255)" fill-opacity="1" d=" M-6.617000102996826,4.169000148773193 C-2.5739998817443848,3.2750000953674316 4.105999946594238,1.5729999542236328 6.617000102996826,0.7639999985694885 C-1.2549999952316284,-7.2789998054504395 -0.10599999874830246,-5.021999835968018 -6.617000102996826,4.169000148773193z"/><path stroke-linecap="round" stroke-linejoin="round" fill-opacity="0" stroke="rgb(0,0,0)" stroke-opacity="1" stroke-width="1" d=" M-6.617000102996826,4.169000148773193 C-2.5739998817443848,3.2750000953674316 4.105999946594238,1.5729999542236328 6.617000102996826,0.7639999985694885 C-1.2549999952316284,-7.2789998054504395 -0.10599999874830246,-5.021999835968018 -6.617000102996826,4.169000148773193z"/></g><g opacity="1" transform="matrix(1,0,0,1,244.0850067138672,263.010009765625)"><path fill="rgb(255,255,255)" fill-opacity="1" d=" M-6.617000102996826,4.245999813079834 C-2.5739998817443848,3.3519999980926514 4.105999946594238,1.6510000228881836 6.617000102996826,0.8420000076293945 C-1.0850000381469727,-7.285999774932861 -0.40400001406669617,-5.328000068664551 -6.617000102996826,4.245999813079834z"/><path stroke-linecap="round" stroke-linejoin="round" fill-opacity="0" stroke="rgb(0,0,0)" stroke-opacity="1" stroke-width="1" d=" M-6.617000102996826,4.245999813079834 C-2.5739998817443848,3.3519999980926514 4.105999946594238,1.6510000228881836 6.617000102996826,0.8420000076293945 C-1.0850000381469727,-7.285999774932861 -0.40400001406669617,-5.328000068664551 -6.617000102996826,4.245999813079834z"/></g><g opacity="1" transform="matrix(1,0,0,1,262.4679870605469,258.447998046875)"><path fill="rgb(255,255,255)" fill-opacity="1" d=" M-6.617000102996826,4.169000148773193 C-2.5739998817443848,3.2750000953674316 4.105999946594238,1.5729999542236328 6.617000102996826,0.7639999985694885 C-1.2549999952316284,-7.2789998054504395 -0.10599999874830246,-5.021999835968018 -6.617000102996826,4.169000148773193z"/><path stroke-linecap="round" stroke-linejoin="round" fill-opacity="0" stroke="rgb(0,0,0)" stroke-opacity="1" stroke-width="1" d=" M-6.617000102996826,4.169000148773193 C-2.5739998817443848,3.2750000953674316 4.105999946594238,1.5729999542236328 6.617000102996826,0.7639999985694885 C-1.2549999952316284,-7.2789998054504395 -0.10599999874830246,-5.021999835968018 -6.617000102996826,4.169000148773193z"/></g><g opacity="1" transform="matrix(1,0,0,1,244.21299743652344,252.2010040283203)"><path fill="rgb(255,255,255)" fill-opacity="1" d=" M-6.617000102996826,4.245999813079834 C-2.5739998817443848,3.3519999980926514 4.105999946594238,1.6510000228881836 6.617000102996826,0.8420000076293945 C-1.0850000381469727,-7.285999774932861 -0.40400001406669617,-5.328000068664551 -6.617000102996826,4.245999813079834z"/><path stroke-linecap="round" stroke-linejoin="round" fill-opacity="0" stroke="rgb(0,0,0)" stroke-opacity="1" stroke-width="1" d=" M-6.617000102996826,4.245999813079834 C-2.5739998817443848,3.3519999980926514 4.105999946594238,1.6510000228881836 6.617000102996826,0.8420000076293945 C-1.0850000381469727,-7.285999774932861 -0.40400001406669617,-5.328000068664551 -6.617000102996826,4.245999813079834z"/></g><g opacity="1" transform="matrix(1,0,0,1,262.59600830078125,247.63999938964844)"><path fill="rgb(255,255,255)" fill-opacity="1" d=" M-6.617000102996826,4.169000148773193 C-2.5739998817443848,3.2750000953674316 4.105999946594238,1.5729999542236328 6.617000102996826,0.7639999985694885 C-1.2549999952316284,-7.2789998054504395 -0.10599999874830246,-5.021999835968018 -6.617000102996826,4.169000148773193z"/><path stroke-linecap="round" stroke-linejoin="round" fill-opacity="0" stroke="rgb(0,0,0)" stroke-opacity="1" stroke-width="1" d=" M-6.617000102996826,4.169000148773193 C-2.5739998817443848,3.2750000953674316 4.105999946594238,1.5729999542236328 6.617000102996826,0.7639999985694885 C-1.2549999952316284,-7.2789998054504395 -0.10599999874830246,-5.021999835968018 -6.617000102996826,4.169000148773193z"/></g></g><g style="display: block;" transform="matrix(0.800000011920929,0,0,0.800000011920929,53.20000457763672,44.40000915527344)" opacity="1"><g opacity="1" transform="matrix(1,0,0,1,253,211.2239990234375)"><path fill="rgb(242,242,242)" fill-opacity="1" d=" M-32.76599884033203,6.414999961853027 C-32.76599884033203,6.414999961853027 -32.93600082397461,11.01099967956543 -28.510000228881836,10.414999961853027 C-28.510000228881836,10.414999961853027 -29.913999557495117,13.946000099182129 -32.12699890136719,14.626999855041504 C-32.12699890136719,14.626999855041504 -18.2549991607666,13.605999946594238 -11.956999778747559,3.3929998874664307 C-11.956999778747559,3.3929998874664307 -13.064000129699707,1.690999984741211 -13.064000129699707,1.690999984741211 C-13.064000129699707,1.690999984741211 1.065000057220459,-4.479000091552734 13.022000312805176,-4.818999767303467 C13.022000312805176,-4.818999767303467 12.085000038146973,-2.5209999084472656 12.085000038146973,-2.5209999084472656 C12.085000038146973,-2.5209999084472656 16.63800048828125,4.414999961853027 31.617000579833984,-1.2020000219345093 C31.617000579833984,-1.2020000219345093 29.65999984741211,-1.6710000038146973 28.766000747680664,-3.372999906539917 C28.766000747680664,-3.372999906539917 32.808998107910156,-5.543000221252441 32.76599884033203,-9.414999961853027 C30.55299949645996,-8.946999549865723 21.030000686645508,-5.367000102996826 21.097000122070312,-11.767999649047852 C21.149999618530273,-16.81999969482422 9.895000457763672,-14.16100025177002 -0.765999972820282,-11.543000221252441 C-15.319000244140625,-7.968999862670898 -21.145000457763672,-6.416999816894531 -20.97800064086914,-0.39399999380111694 C-20.89299964904785,2.6700000762939453 -24.63800048828125,5.691999912261963 -32.76599884033203,6.414999961853027z"/><path stroke-linecap="round" stroke-linejoin="round" fill-opacity="0" stroke="rgb(0,0,0)" stroke-opacity="1" stroke-width="1" d=" M-32.76599884033203,6.414999961853027 C-32.76599884033203,6.414999961853027 -32.93600082397461,11.01099967956543 -28.510000228881836,10.414999961853027 C-28.510000228881836,10.414999961853027 -29.913999557495117,13.946000099182129 -32.12699890136719,14.626999855041504 C-32.12699890136719,14.626999855041504 -18.2549991607666,13.605999946594238 -11.956999778747559,3.3929998874664307 C-11.956999778747559,3.3929998874664307 -13.064000129699707,1.690999984741211 -13.064000129699707,1.690999984741211 C-13.064000129699707,1.690999984741211 1.065000057220459,-4.479000091552734 13.022000312805176,-4.818999767303467 C13.022000312805176,-4.818999767303467 12.085000038146973,-2.5209999084472656 12.085000038146973,-2.5209999084472656 C12.085000038146973,-2.5209999084472656 16.63800048828125,4.414999961853027 31.617000579833984,-1.2020000219345093 C31.617000579833984,-1.2020000219345093 29.65999984741211,-1.6710000038146973 28.766000747680664,-3.372999906539917 C28.766000747680664,-3.372999906539917 32.808998107910156,-5.543000221252441 32.76599884033203,-9.414999961853027 C30.55299949645996,-8.946999549865723 21.030000686645508,-5.367000102996826 21.097000122070312,-11.767999649047852 C21.149999618530273,-16.81999969482422 9.895000457763672,-14.16100025177002 -0.765999972820282,-11.543000221252441 C-15.319000244140625,-7.968999862670898 -21.145000457763672,-6.416999816894531 -20.97800064086914,-0.39399999380111694 C-20.89299964904785,2.6700000762939453 -24.63800048828125,5.691999912261963 -32.76599884033203,6.414999961853027z"/></g><g opacity="1" transform="matrix(1,0,0,1,238.63800048828125,213.51100158691406)"><path stroke-linecap="round" stroke-linejoin="round" fill-opacity="0" stroke="rgb(0,0,0)" stroke-opacity="1" stroke-width="1" d=" M1.2979999780654907,-0.5960000157356262 C1.2979999780654907,-0.5960000157356262 -0.574999988079071,0.21299999952316284 -1.2979999780654907,0.5960000157356262"/></g><g opacity="1" transform="matrix(1,0,0,1,267.2770080566406,206.38499450683594)"><path stroke-linecap="round" stroke-linejoin="round" fill-opacity="0" stroke="rgb(0,0,0)" stroke-opacity="1" stroke-width="1" d=" M-1.2549999952316284,0.01899999938905239 C-1.2549999952316284,0.01899999938905239 0.23399999737739563,-0.06599999964237213 1.2549999952316284,0.01899999938905239"/></g></g><g style="display: block;" transform="matrix(0.800000011920929,0,0,0.800000011920929,257.9656066894531,250.03680419921875)" opacity="0.35000000000000003"><g opacity="1" transform="matrix(1,0,0,1,0,0)"><path fill="url(#__lottie_element_13440)" mask="url(#__lottie_element_13442)" fill-opacity="1" d="M0 0 M-246.5,-145.5 C-246.5,-139 -246.5,144.218994140625 -246.5,146.593994140625 C-244.71200561523438,146.76499938964844 -241.55099487304688,147.5780029296875 -237.75900268554688,148.50999450683594 C-220.5,152.75 -191.07200622558594,159.75999450683594 -178.26499938964844,161.58399963378906 C-147.25,166 -127.13200378417969,165.62600708007812 -103.76799774169922,164.74600219726562 C-50.75,162.75 -4.125,146.125 27.19499969482422,139.3300018310547 C47.95800018310547,134.8249969482422 68.79000091552734,130.64500427246094 83.74700164794922,128.94000244140625 C106.25,126.375 122.875,126.75 143.25,128.35899353027344 C183.33700561523438,131.52499389648438 217.79400634765625,139.2030029296875 241.43800354003906,147.031005859375 C241.43800354003906,147.09300231933594 241.406005859375,147.09300231933594 241.406005859375,147.06199645996094 C241.406005859375,147.06199645996094 241.406005859375,147.06199645996094 241.406005859375,147.06199645996094 C241.56199645996094,120.56199645996094 241.23399353027344,82.29100036621094 241.25,49.90599822998047 C241.26600646972656,17.08300018310547 241.43699645996094,-15.739999771118164 241.5,-48.5629997253418 C241.56199645996094,-80.91699981689453 241.5,-128.75 241.625,-145.625 C151.281005859375,-172.5 103.15699768066406,-165.1009979248047 78.5,-162.81199645996094 C23.042999267578125,-156.04600524902344 -48.707000732421875,-130.79600524902344 -83.375,-129.06199645996094 C-157.875,-120.1240005493164 -212.75,-139.625 -246.5,-145.5z"/></g></g><g style="display: block;" transform="matrix(0.800000011920929,0,0,0.800000011920929,257.9656066894531,250.03680419921875)" opacity="0.15"><g opacity="1" transform="matrix(1,0,0,1,0,0)"><path fill="rgb(255,255,255)" fill-opacity="1" d=" M-246.875,-146 C-246.83700561523438,-139.70399475097656 -246.875,-138 -246.79200744628906,-132.81100463867188 C-237.5,-136.25 -197.25,-114 -124.49600219726562,-114.31099700927734 C-38.992000579833984,-114.6760025024414 39.233001708984375,-153.25 121.70800018310547,-153.39700317382812 C179.75,-153.5 241,-132.25 240.91200256347656,-131.552001953125 C241,-140.5 241.375,-144.625 241.375,-144.625 C241.375,-144.625 179.75,-166.25 122.5,-166 C39.49700164794922,-165.63800048828125 -39.5,-128 -124.25,-126.81199645996094 C-197.0449981689453,-125.79199981689453 -237.75,-149 -246.875,-146z"/></g></g><g style="display: block;" transform="matrix(0.800000011920929,0,0,0.800000011920929,257.9656066894531,250.03680419921875)" opacity="0.15"><g opacity="1" transform="matrix(1,0,0,1,0,0)"><path fill="rgb(0,0,0)" fill-opacity="1" d=" M122.5,112.25 C34,112.25 -36,149.5 -123.5,152 C-140.61700439453125,152.48899841308594 -155.82000732421875,151.3489990234375 -170.41099548339844,149.1280059814453 C-195.23399353027344,145.35000610351562 -218.28900146484375,138.4459991455078 -246,131.125 C-246.25,134.5 -246,141.375 -246,145.125 C-218.5749969482422,153.30599975585938 -195.61700439453125,159.55499267578125 -170.83099365234375,163.0050048828125 C-155.8520050048828,165.08999633789062 -140.20399475097656,166.15199279785156 -122.5,166 C-35,165.25 33.5,126.625 121.75,126.5 C126.26799774169922,126.49400329589844 131.11399841308594,126.59500122070312 136.27699279785156,126.83899688720703 C163.25900268554688,128.11300659179688 198.88099670410156,133.2550048828125 241.375,147 C241.375,147 241.25,134.75 241.5,131.125 C199.093994140625,118.93299865722656 163.16200256347656,113.84500122070312 136.1439971923828,112.58000183105469 C131.30499267578125,112.35399627685547 126.75299835205078,112.25 122.5,112.25z"/></g></g><g style="display: block;" transform="matrix(0.800000011920929,0,0,0.800000011920929,257.9656066894531,250.03680419921875)" opacity="1"><g opacity="1" transform="matrix(1,0,0,1,0,0)"><path stroke-linecap="round" stroke-linejoin="round" fill-opacity="0" stroke="rgb(119,97,13)" stroke-opacity="1" stroke-width="8" d=" M78.18399810791016,129.31500244140625 C82.79299926757812,128.70399475097656 95.38700103759766,127.7969970703125 102.0009994506836,127.50299835205078 C104.4209976196289,127.3949966430664 112.30000305175781,127.25 121.89600372314453,127.39399719238281 C131.32400512695312,127.53500366210938 142.4080047607422,127.95600128173828 151.59800720214844,128.96499633789062 C210.66799926757812,135.45399475097656 241.406005859375,147.06199645996094 241.406005859375,147.06199645996094 C241.56199645996094,120.56199645996094 241.23399353027344,82.29100036621094 241.25,49.90599822998047 C241.26600646972656,17.08300018310547 241.43699645996094,-15.739999771118164 241.5,-48.5629997253418 C241.56199645996094,-80.91699981689453 241.5,-128.75 241.625,-145.625 C151.281005859375,-172.5 103.15699768066406,-165.1009979248047 78.5,-162.81199645996094"/></g><g opacity="1" transform="matrix(1,0,0,1,0,0)"><path stroke-linecap="round" stroke-linejoin="round" fill-opacity="0" stroke="rgb(116,116,116)" stroke-opacity="1" stroke-width="8" d=" M-83.375,-129.06199645996094 C-157.875,-120.1240005493164 -212.75,-139.625 -246.5,-145.5 C-246.5,-139 -246.5,144.218994140625 -246.5,146.593994140625 C-237.01199340820312,147.23800659179688 -199.2220001220703,161.7729949951172 -144.3179931640625,164.906005859375 C-125.91400146484375,165.95599365234375 -105.58699798583984,165.72500610351562 -83.75900268554688,163.25999450683594"/></g><g opacity="1" transform="matrix(1,0,0,1,0,0)"><path stroke-linecap="butt" stroke-linejoin="miter" fill-opacity="0" stroke-miterlimit="4" stroke="rgb(33,80,111)" stroke-opacity="1" stroke-width="8" d=" M-83.76799774169922,163.27699279785156 C-70.08100128173828,162.9530029296875 -33.430999755859375,155.85899353027344 -2.680000066757202,146.8300018310547 C23.292999267578125,139.20399475097656 64.41799926757812,131.5780029296875 78.18800354003906,129.31100463867188"/></g><g opacity="1" transform="matrix(1,0,0,1,0,0)"><path stroke-linecap="butt" stroke-linejoin="miter" fill-opacity="0" stroke-miterlimit="4" stroke="rgb(33,80,111)" stroke-opacity="1" stroke-width="8" d=" M78.5,-162.81199645996094 C23.042999267578125,-156.04600524902344 -48.707000732421875,-130.79600524902344 -83.375,-129.06199645996094"/></g></g></g></svg>