<svg xmlns="http://www.w3.org/2000/svg" xmlns:xlink="http://www.w3.org/1999/xlink" viewBox="0 0 512 512" width="512" height="512" style="width: 100%; height: 100%; transform: translate3d(0,0,0);" preserveAspectRatio="xMidYMid meet"><defs><clipPath id="__lottie_element_33732"><rect width="512" height="512" x="0" y="0"/></clipPath><linearGradient id="__lottie_element_33775" spreadMethod="pad" gradientUnits="userSpaceOnUse"><stop/><stop/><stop/><stop/><stop/></linearGradient><linearGradient id="__lottie_element_33794" spreadMethod="pad" gradientUnits="userSpaceOnUse" x1="-137.78199768066406" y1="-0.9169999957084656" x2="136.3979949951172" y2="-0.9169999957084656"><stop offset="0%" stop-color="rgb(120,72,0)"/><stop offset="3%" stop-color="rgb(150,103,9)"/><stop offset="6%" stop-color="rgb(181,134,18)"/><stop offset="14%" stop-color="rgb(218,191,96)"/><stop offset="29%" stop-color="rgb(254,248,174)"/><stop offset="38%" stop-color="rgb(213,184,96)"/><stop offset="43%" stop-color="rgb(172,120,18)"/><stop offset="48%" stop-color="rgb(134,85,9)"/><stop offset="58%" stop-color="rgb(97,50,0)"/><stop offset="67%" stop-color="rgb(131,79,0)"/><stop offset="71%" stop-color="rgb(164,107,0)"/><stop offset="77%" stop-color="rgb(185,134,2)"/><stop offset="82%" stop-color="rgb(206,162,4)"/><stop offset="91%" stop-color="rgb(188,139,3)"/><stop offset="100%" stop-color="rgb(170,117,2)"/></linearGradient><linearGradient id="__lottie_element_33816" spreadMethod="pad" gradientUnits="userSpaceOnUse" x1="-129.45599365234375" y1="-0.07199999690055847" x2="126.48600006103516" y2="-0.07199999690055847"><stop offset="0%" stop-color="rgb(62,63,66)"/><stop offset="14%" stop-color="rgb(56,57,60)"/><stop offset="24%" stop-color="rgb(50,51,55)"/><stop offset="38%" stop-color="rgb(32,33,39)"/><stop offset="56%" stop-color="rgb(15,15,23)"/><stop offset="82%" stop-color="rgb(33,36,43)"/><stop offset="99%" stop-color="rgb(52,57,62)"/></linearGradient></defs><g clip-path="url(#__lottie_element_33732)"><g style="display: block;" transform="matrix(1.0399999618530273,0,0,1.0399999618530273,254.87799072265625,392.13299560546875)" opacity="1"><g opacity="1" transform="matrix(1,0,0,1,0,0)"><path fill="rgb(53,53,57)" fill-opacity="1" d=" M182.00100708007812,-68.65799713134766 C162.48399353027344,-70.86299896240234 145.48300170898438,-53.117000579833984 132.49200439453125,-49.577999114990234 C61.07099914550781,-30.12299919128418 10.105250358581543,-29.506500244140625 -0.75,-30.054000854492188 C-11.605250358581543,-30.601499557495117 -68.2612533569336,-32.99924850463867 -135.30450439453125,-53.952999114990234 C-148.84249877929688,-58.39875030517578 -167.67250061035156,-77.55049896240234 -187.18850708007812,-75.34549713134766 C-210.23150634765625,-72.74150085449219 -201.9705047607422,-39.6879997253418 -181.71600341796875,-11.249500274658203 C-161.01499938964844,17.536500930786133 -104.66374969482422,56.89925003051758 1.75,57.03499984741211 C114.06974792480469,57.215248107910156 165.6337432861328,19.945249557495117 186.71600341796875,-8.312000274658203 C206.19749450683594,-35.5004997253418 205.04400634765625,-66.05400085449219 182.00100708007812,-68.65799713134766z"/></g></g><g style="display: block;" transform="matrix(1.0399999618530273,0,0,1.0399999618530273,390.32000732421875,365.66802978515625)" opacity="1"><g opacity="1" transform="matrix(1,0,0,1,0,0)"><path fill="rgb(29,27,27)" fill-opacity="1" d=" M-53.74300003051758,37.98524856567383 C-53.74300003051758,37.98524856567383 -6.9019999504089355,35.86825180053711 34.029998779296875,-0.07325000315904617 C70.08000183105469,-31.72800064086914 51.130001068115234,-45.271751403808594 39.62300109863281,-42.196998596191406 C23.124000549316406,-37.78900146484375 9.48550033569336,-28.486499786376953 -4.953499794006348,-20.820249557495117 C-19.392499923706055,-13.154000282287598 -53.74300003051758,37.98524856567383 -53.74300003051758,37.98524856567383z"/></g></g><g style="display: block;" transform="matrix(1.0399999618530273,0,0,1.0399999618530273,82.9229965209961,361.02301025390625)" opacity="1"><g opacity="1" transform="matrix(1,0,0,1,0,0)"><path fill="rgb(38,35,34)" fill-opacity="1" d=" M12.299500465393066,30.349000930786133 C12.299500465393066,30.349000930786133 -15.221750259399414,3.030250072479248 -4.934999942779541,-9.730999946594238 C0.596750020980835,-16.500499725341797 25.56450080871582,-6.911749839782715 33.301998138427734,6.934000015258789 C33.301998138427734,6.934000015258789 27.68950080871582,-25.315000534057617 27.68950080871582,-25.315000534057617 C27.68950080871582,-25.315000534057617 -4.715000152587891,-49.60449981689453 -21.159000396728516,-45.55649948120117 C-40.25199890136719,-40.855499267578125 -41.95949935913086,-4.1519999504089355 12.299500465393066,30.349000930786133z"/></g></g><g style="display: block;" transform="matrix(1.0399999618530273,0,0,1.0399999618530273,254.87698364257812,392.1300048828125)" opacity="1"><g opacity="1" transform="matrix(1,0,0,1,0,0)"><path fill="rgb(19,20,26)" fill-opacity="1" d=" M159.7584991455078,-64.35275268554688 C218.39724731445312,-82.87249755859375 184.68324279785156,7.720749855041504 105.34600067138672,26.633750915527344 C33.939998626708984,43.65599822998047 -32.87474822998047,44.03324890136719 -106.37124633789062,23.14674949645996 C-186.0449981689453,0.6347500085830688 -215.2949981689453,-84.86524963378906 -161.30450439453125,-68.96624755859375 C-208.7949981689453,-93.36524963378906 -205.8282470703125,-44.49974822998047 -187.98849487304688,-16.424999237060547 C-170.156494140625,11.648500442504883 -118.82225036621094,54.72100067138672 -0.984250009059906,56.66175079345703 C116.85375213623047,58.602500915527344 168.8002471923828,18.867000579833984 187.22775268554688,-8.607999801635742 C205.6632537841797,-36.084251403808594 207.92225646972656,-84.83574676513672 159.7584991455078,-64.35275268554688z"/></g></g><g style="display: block;" transform="matrix(1.0399999618530273,0,0,1.0399999618530273,254.87698364257812,392.1300048828125)" opacity="1"><g opacity="1" transform="matrix(1,0,0,1,0,0)"><path stroke-linecap="round" stroke-linejoin="round" fill-opacity="0" stroke="rgb(77,78,82)" stroke-opacity="1" stroke-width="8" d=" M159.7584991455078,-64.35275268554688 C218.39724731445312,-82.87249755859375 184.68324279785156,7.720749855041504 105.34600067138672,26.633750915527344 C33.939998626708984,43.65599822998047 -32.87474822998047,44.03324890136719 -106.37124633789062,23.14674949645996 C-186.0449981689453,0.6347500085830688 -215.2949981689453,-84.86524963378906 -161.30450439453125,-68.96624755859375 C-208.7949981689453,-93.36524963378906 -205.8282470703125,-44.49974822998047 -187.98849487304688,-16.424999237060547 C-170.156494140625,11.648500442504883 -118.82225036621094,54.72100067138672 -0.984250009059906,56.66175079345703 C116.85375213623047,58.602500915527344 168.8002471923828,18.867000579833984 187.22775268554688,-8.607999801635742 C205.6632537841797,-36.084251403808594 207.92225646972656,-84.83574676513672 159.7584991455078,-64.35275268554688z"/></g></g><g style="display: block;" transform="matrix(1.0399999618530273,0,0,1.0399999618530273,254.87799072265625,392.13299560546875)" opacity="1"><g opacity="1" transform="matrix(1,0,0,1,0,0)"><path stroke-linecap="round" stroke-linejoin="round" fill-opacity="0" stroke="rgb(0,0,0)" stroke-opacity="1" stroke-width="8" d=" M182.00100708007812,-68.65799713134766 C162.48399353027344,-70.86299896240234 145.48300170898438,-53.117000579833984 132.49200439453125,-49.577999114990234 C61.07099914550781,-30.12299919128418 10.105250358581543,-29.506500244140625 -0.75,-30.054000854492188 C-11.605250358581543,-30.601499557495117 -68.2612533569336,-32.99924850463867 -135.30450439453125,-53.952999114990234 C-148.84249877929688,-58.39875030517578 -167.67250061035156,-77.55049896240234 -187.18850708007812,-75.34549713134766 C-210.23150634765625,-72.74150085449219 -201.9705047607422,-39.6879997253418 -181.71600341796875,-11.249500274658203 C-161.01499938964844,17.536500930786133 -104.66374969482422,56.89925003051758 1.75,57.03499984741211 C114.06974792480469,57.215248107910156 165.6337432861328,19.945249557495117 186.71600341796875,-8.312000274658203 C206.19749450683594,-35.5004997253418 205.04400634765625,-66.05400085449219 182.00100708007812,-68.65799713134766z"/></g></g><g style="display: block;" transform="matrix(1.0399999618530273,0,0,1.0399999618530273,254.87799072265625,392.13299560546875)" opacity="1"><g opacity="1" transform="matrix(1,0,0,1,0,0)"><path stroke-linecap="round" stroke-linejoin="round" fill-opacity="0" stroke="rgb(40,40,43)" stroke-opacity="1" stroke-width="8" d=" M-170.16400146484375,-72.62699890136719 C-175.69900512695312,-74.77999877929688 -181.41400146484375,-75.99800109863281 -187.18899536132812,-75.34500122070312 C-210.23150634765625,-72.74150085449219 -201.9705047607422,-39.6879997253418 -181.71600341796875,-11.249500274658203 C-162.63400268554688,15.28499984741211 -113.26200103759766,50.805999755859375 -22.309999465942383,56.30699920654297"/></g></g><g style="display: block;" transform="matrix(1.0399999618530273,0,0,1.0399999618530273,254.53900146484375,247.75001525878906)" opacity="1"><g opacity="1" transform="matrix(1,0,0,1,0,0)"><path fill="url(#__lottie_element_33816)" fill-opacity="1" d=" M144.3592529296875,-111.11274719238281 C137.68600463867188,-118.31700134277344 102.1657485961914,-125.70649719238281 3.421250104904175,-127.43099975585938 C-95.32324981689453,-129.15550231933594 -131.2362518310547,-123.01349639892578 -138.16824340820312,-116.0469970703125 C-144.49349975585938,-109.69125366210938 -143.6875,-104.02549743652344 -136.9737548828125,-43.73550033569336 C-131.93075561523438,1.5490000247955322 -131.5780029296875,58.47574996948242 -131.5780029296875,58.47574996948242 C-99.41600036621094,125.5822525024414 -1.3267500400543213,128.59950256347656 -1.3267500400543213,128.59950256347656 C-1.3267500400543213,128.59950256347656 97.05049896240234,133.08099365234375 131.64125061035156,67.14025115966797 C131.64125061035156,67.14025115966797 134.86900329589844,11.199999809265137 140.52525329589844,-38.888999938964844 C147.33399963378906,-99.18575286865234 150.44775390625,-104.54025268554688 144.3592529296875,-111.11274719238281z"/></g></g><g style="display: block;" transform="matrix(1.0399999618530273,0,0,1.0399999618530273,395.791015625,229.13400268554688)" opacity="0.2"><g opacity="1" transform="matrix(1,0,0,1,0,0)"><path fill="rgb(255,255,255)" fill-opacity="1" d=" M4.72599983215332,-21.352500915527344 C-0.9492499828338623,29.15625 -4.1257500648498535,85.5572509765625 -4.1257500648498535,85.5572509765625 C-8.026249885559082,92.92749786376953 -10.786250114440918,98.70249938964844 -16.079500198364258,104.43724822998047 C-15.164999961853027,78.82599639892578 -12.410499572753906,15.407500267028809 -6.063499927520752,-37.83549880981445 C1.1337499618530273,-98.21050262451172 -0.5885000228881836,-92.94574737548828 -13.348250389099121,-93.85624694824219 C0.7287499904632568,-100.3862533569336 5.710999965667725,-97.11750030517578 8.481749534606934,-94.17649841308594 C14.729000091552734,-87.55325317382812 11.552000045776367,-82.15350341796875 4.72599983215332,-21.352500915527344z"/></g></g><g style="display: block;" transform="matrix(1.0399999618530273,0,0,1.0399999618530273,254.87698364257812,247.7530059814453)" opacity="0.3"><g opacity="1" transform="matrix(1,0,0,1,0,0)"><path fill="rgb(17,18,24)" fill-opacity="1" d=" M131.46200561523438,65.50900268554688 C131.4040069580078,66.41124725341797 101.64299774169922,132.4082489013672 -2.2009999752044678,128.18350219726562 C-106.04499816894531,123.95874786376953 -132.27149963378906,56.94150161743164 -132.2794952392578,55.95000076293945 C-97.25074768066406,82.1292495727539 -52.90250015258789,131.46224975585938 -45.08250045776367,-15.899999618530273 C-36.9952507019043,-168.29525756835938 -131.68624877929688,-112.58474731445312 -139.03550720214844,-115.7239990234375 C-131.9304962158203,-122.72450256347656 -98.22525024414062,-129.36825561523438 2.7012500762939453,-127.23149871826172 C103.62774658203125,-125.0947494506836 137.79225158691406,-117.03050231933594 144.59475708007812,-109.7354965209961 C75.59224700927734,-120.71824645996094 78.19550323486328,-99.03424835205078 72.63800048828125,-5.598999977111816 C66.72775268554688,93.77224731445312 103.8594970703125,95.09700012207031 131.46200561523438,65.50900268554688z"/></g></g><g style="display: block;" transform="matrix(1.0399999618530273,0,0,1.0399999618530273,254.87899780273438,122.66300964355469)" opacity="1"><g opacity="1" transform="matrix(1,0,0,1,0,0)"><path fill="rgb(17,18,24)" fill-opacity="1" d=" M144.89674377441406,9.355250358581543 C143.27699279785156,11.46875 82.12750244140625,3.5950000286102295 2.3612499237060547,2.243499994277954 C-77.40299987792969,0.8920000195503235 -137.80050659179688,5.673250198364258 -139.01974487304688,4.585750102996826 C-138.55050659179688,-3.1157500743865967 -77.1989974975586,-7.900000095367432 2.5652499198913574,-6.548500061035156 C82.32949829101562,-5.197000026702881 145.50425720214844,2.2769999504089355 144.89674377441406,9.355250358581543z"/></g></g><g style="display: block;" transform="matrix(1.0398415327072144,0.01815050281584263,-0.01815050281584263,1.0398415327072144,174.81500244140625,220.84901428222656)" opacity="0.5"><g opacity="1" transform="matrix(1,0,0,1,0,0)"><path fill="rgb(82,84,85)" fill-opacity="1" d=" M76.66400146484375,-92.45874786376953 C75.55975341796875,-91.03350067138672 15.78849983215332,-92.52925109863281 -39.60850143432617,-88.75900268554688 C-58.75075149536133,-87.44774627685547 -52.47249984741211,-75.21025085449219 -48.11125183105469,-22.418750762939453 C-43.48725128173828,33.55474853515625 -44.255001068115234,92.56050109863281 -44.255001068115234,92.56050109863281 C-44.255001068115234,92.56050109863281 -45.31449890136719,100.1675033569336 -45.31449890136719,100.1675033569336 C-48.81949996948242,95.46475219726562 -51.946998596191406,90.36125183105469 -54.629249572753906,84.82949829101562 C-54.629249572753906,84.82949829101562 -54.943748474121094,27.444000244140625 -60.066749572753906,-18.218000411987305 C-66.88175201416016,-79.01274871826172 -67.69625091552734,-84.72350311279297 -61.22650146484375,-91.11824798583984 C-56.352500915527344,-95.93150329589844 -37.35850143432617,-99.21050262451172 6.608749866485596,-100.58799743652344 C-38.62900161743164,-98.12049865722656 -16.114749908447266,-97.1240005493164 -1.5197499990463257,-96.84300231933594 C46.522499084472656,-95.9124984741211 78.7750015258789,-95.18399810791016 76.66400146484375,-92.45874786376953z"/></g></g><g style="display: block;" transform="matrix(1.0399999618530273,0,0,1.0399999618530273,254.46499633789062,247.75001525878906)" opacity="1"><g opacity="1" transform="matrix(1,0,0,1,0,0)"/><g opacity="1" transform="matrix(1,0,0,1,0,0)"><path stroke-linecap="round" stroke-linejoin="round" fill-opacity="0" stroke="rgb(0,0,0)" stroke-opacity="1" stroke-width="8" d=" M144.3592529296875,-111.11274719238281 C137.68600463867188,-118.31700134277344 102.1657485961914,-125.70649719238281 3.421250104904175,-127.43099975585938 C-95.32324981689453,-129.15550231933594 -131.2362518310547,-123.01349639892578 -138.16824340820312,-116.0469970703125 C-144.49349975585938,-109.69125366210938 -143.6875,-104.02549743652344 -136.9737548828125,-43.73550033569336 C-131.93075561523438,1.5490000247955322 -131.5780029296875,58.47574996948242 -131.5780029296875,58.47574996948242 C-99.41600036621094,125.5822525024414 -1.3267500400543213,128.59950256347656 -1.3267500400543213,128.59950256347656 C-1.3267500400543213,128.59950256347656 97.05049896240234,133.08099365234375 131.64125061035156,67.14025115966797 C131.64125061035156,67.14025115966797 134.86900329589844,11.199999809265137 140.52525329589844,-38.888999938964844 C147.33399963378906,-99.18575286865234 150.44775390625,-104.54025268554688 144.3592529296875,-111.11274719238281z"/></g></g><g style="display: block;" transform="matrix(1.0399999618530273,0,0,1.0399999618530273,254.46499633789062,247.75001525878906)" opacity="1"><g opacity="1" transform="matrix(1,0,0,1,0,0)"><path stroke-linecap="round" stroke-linejoin="round" fill-opacity="0" stroke="rgb(40,40,43)" stroke-opacity="1" stroke-width="8" d=" M-91.26699829101562,-125.89099884033203 C-120.68699645996094,-123.76599884033203 -134.1929931640625,-120.04199981689453 -138.16799926757812,-116.0469970703125 C-144.49349975585938,-109.69125366210938 -143.6875,-104.02549743652344 -136.9737548828125,-43.73550033569336 C-131.93075561523438,1.5490000247955322 -131.5780029296875,58.47574996948242 -131.5780029296875,58.47574996948242 C-99.41600036621094,125.5822525024414 -1.3267500400543213,128.59950256347656 -1.3267500400543213,128.59950256347656 C-1.3270000219345093,128.60000610351562 96.34700012207031,133.0489959716797 131.26699829101562,67.84600067138672"/></g></g><g style="display: block;" transform="matrix(1.0399999618530273,0,0,1.0399999618530273,254.87799072265625,365.1090087890625)" opacity="1"><g opacity="1" transform="matrix(1,0,0,1,0,0)"><path fill="url(#__lottie_element_33794)" fill-opacity="1" d=" M-133.93624877929688,0.9952499866485596 C-133.47000122070312,-40.18075180053711 -133.9810028076172,-54.09925079345703 -133.76925659179688,-62.58525085449219 C-132.55599975585938,-63.408748626708984 -123.98975372314453,-53.749000549316406 -100.58174896240234,-49.638999938964844 C-77.43800354003906,-45.65024948120117 -44.411251068115234,-43.754249572753906 0.1850000023841858,-43.861000061035156 C44.78125,-43.967750549316406 78.02349853515625,-43.469749450683594 104.60874938964844,-47.018001556396484 C128.45225524902344,-50.17074966430664 134.00050354003906,-56.0672492980957 134.00050354003906,-56.0672492980957 C134.00050354003906,-56.0672492980957 132.13125610351562,-35.17150115966797 131.99574279785156,7.078000068664551 C129.16050720214844,12.30049991607666 92.2969970703125,47.08250045776367 -1.0692499876022339,46.44599914550781 C-96.34725189208984,45.715248107910156 -131.8457489013672,8.968500137329102 -133.93624877929688,0.9952499866485596z"/></g></g><g style="display: block;" transform="matrix(1.0399999618530273,0,0,1.0399999618530273,254.87799072265625,365.1090087890625)" opacity="1"><g opacity="1" transform="matrix(1,0,0,1,0,0)"><path stroke-linecap="round" stroke-linejoin="round" fill-opacity="0" stroke="rgb(146,85,2)" stroke-opacity="1" stroke-width="8" d=" M-133.93624877929688,0.9952499866485596 C-133.47000122070312,-40.18075180053711 -133.9810028076172,-54.09925079345703 -133.76925659179688,-62.58525085449219 C-132.55599975585938,-63.408748626708984 -123.98975372314453,-53.749000549316406 -100.58174896240234,-49.638999938964844 C-77.43800354003906,-45.65024948120117 -44.411251068115234,-43.754249572753906 0.1850000023841858,-43.861000061035156 C44.78125,-43.967750549316406 78.02349853515625,-43.469749450683594 104.60874938964844,-47.018001556396484 C128.45225524902344,-50.17074966430664 134.00050354003906,-56.0672492980957 134.00050354003906,-56.0672492980957 C134.00050354003906,-56.0672492980957 132.13125610351562,-35.17150115966797 131.99574279785156,7.078000068664551 C129.16050720214844,12.30049991607666 92.2969970703125,47.08250045776367 -1.0692499876022339,46.44599914550781 C-96.34725189208984,45.715248107910156 -131.8457489013672,8.968500137329102 -133.93624877929688,0.9952499866485596z"/></g></g><g style="display: block;" transform="matrix(1.0399999618530273,0,0,1.0399999618530273,254.87799072265625,365.1090087890625)" opacity="0.5"><g opacity="1" transform="matrix(1,0,0,1,0,0)"><path stroke-linecap="round" stroke-linejoin="round" fill-opacity="0" stroke="rgb(193,145,24)" stroke-opacity="1" stroke-width="8" d=" M-2.121000051498413,46.43600082397461 C-72.47599792480469,45.698001861572266 -109.98500061035156,25.270000457763672 -125.41600036621094,11.604000091552734"/></g></g><g style="display: block;" transform="matrix(1.0399999618530273,0,0,1.0399999618530273,254.87799072265625,365.1090087890625)" opacity="0.5"><g opacity="1" transform="matrix(1,0,0,1,0,0)"><path stroke-linecap="round" stroke-linejoin="round" fill-opacity="0" stroke="rgb(239,204,45)" stroke-opacity="1" stroke-width="8" d=" M-133.802001953125,-60.83599853515625 C-133.79400634765625,-61.446998596191406 -133.7830047607422,-62.02799987792969 -133.7689971923828,-62.584999084472656 C-132.55599975585938,-63.408748626708984 -123.98975372314453,-53.749000549316406 -100.58174896240234,-49.638999938964844 C-80.125,-46.112998962402344 -51.948001861572266,-44.222999572753906 -14.885000228881836,-43.904998779296875"/></g></g></g></svg>