<svg xmlns="http://www.w3.org/2000/svg" xmlns:xlink="http://www.w3.org/1999/xlink" viewBox="0 0 512 512" width="512" height="512" style="width: 100%; height: 100%; transform: translate3d(0,0,0);" preserveAspectRatio="xMidYMid meet"><defs><clipPath id="__lottie_element_9496"><rect width="512" height="512" x="0" y="0"/></clipPath><linearGradient id="__lottie_element_9503" spreadMethod="pad" gradientUnits="userSpaceOnUse" x1="-17.658000946044922" y1="81.07499694824219" x2="-48.542999267578125" y2="82.02200317382812"><stop offset="0%" stop-color="rgb(130,22,124)" stop-opacity="1"/><stop offset="50%" stop-color="rgb(135,26,130)" stop-opacity="0.5"/><stop offset="100%" stop-color="rgb(141,29,135)" stop-opacity="0"/></linearGradient><radialGradient id="__lottie_element_9504" spreadMethod="pad" gradientUnits="userSpaceOnUse" cx="50.382999420166016" cy="88" r="101.40239953064449" fx="50.382999420166016" fy="88"><stop offset="0%" stop-color="rgb(229,80,217)"/><stop offset="50%" stop-color="rgb(164,42,157)"/><stop offset="100%" stop-color="rgb(99,4,96)"/></radialGradient><linearGradient id="__lottie_element_9517" spreadMethod="pad" gradientUnits="userSpaceOnUse" x1="-7.453000068664551" y1="-8.385000228881836" x2="3.6459999084472656" y2="6.702000141143799"><stop offset="24%" stop-color="rgb(57,3,1)"/><stop offset="62%" stop-color="rgb(116,42,1)"/><stop offset="100%" stop-color="rgb(175,81,0)"/></linearGradient><linearGradient id="__lottie_element_9524" spreadMethod="pad" gradientUnits="userSpaceOnUse" x1="-5.60699987411499" y1="-12.647000312805176" x2="3.9560000896453857" y2="7.540999889373779"><stop offset="24%" stop-color="rgb(57,3,1)"/><stop offset="62%" stop-color="rgb(116,42,1)"/><stop offset="100%" stop-color="rgb(175,81,0)"/></linearGradient><linearGradient id="__lottie_element_9537" spreadMethod="pad" gradientUnits="userSpaceOnUse" x1="-100" y1="105" x2="-73.79199981689453" y2="20.280000686645508"><stop offset="0%" stop-color="rgb(130,22,124)" stop-opacity="1"/><stop offset="50%" stop-color="rgb(135,26,130)" stop-opacity="0.5"/><stop offset="100%" stop-color="rgb(141,29,135)" stop-opacity="0"/></linearGradient><linearGradient id="__lottie_element_9540" spreadMethod="pad" gradientUnits="userSpaceOnUse" x1="-122.552001953125" y1="132.802001953125" x2="-67.05500030517578" y2="146.36700439453125"><stop offset="0%" stop-color="rgb(130,22,124)" stop-opacity="1"/><stop offset="50%" stop-color="rgb(135,26,130)" stop-opacity="0.5"/><stop offset="100%" stop-color="rgb(141,29,135)" stop-opacity="0"/></linearGradient><radialGradient id="__lottie_element_9541" spreadMethod="pad" gradientUnits="userSpaceOnUse" cx="-117.58100128173828" cy="122.74500274658203" r="69.22349673047086" fx="-117.58100128173828" fy="122.74500274658203"><stop offset="0%" stop-color="rgb(206,80,217)" stop-opacity="1"/><stop offset="50%" stop-color="rgb(173,43,178)" stop-opacity="0.699999988079071"/><stop offset="100%" stop-color="rgb(140,6,140)" stop-opacity="0.4000000059604645"/></radialGradient><linearGradient id="__lottie_element_9542" spreadMethod="pad" gradientUnits="userSpaceOnUse" x1="-1.6200000047683716" y1="144.45700073242188" x2="-0.8019999861717224" y2="152.9340057373047"><stop offset="0%" stop-color="rgb(110,38,115)"/><stop offset="55%" stop-color="rgb(104,20,107)"/><stop offset="100%" stop-color="rgb(97,2,99)"/></linearGradient><linearGradient id="__lottie_element_9546" spreadMethod="pad" gradientUnits="userSpaceOnUse" x1="83.51899719238281" y1="167.03399658203125" x2="12.345000267028809" y2="169.77200317382812"><stop offset="0%" stop-color="rgb(101,5,96)"/><stop offset="50%" stop-color="rgb(68,3,64)"/><stop offset="100%" stop-color="rgb(34,0,32)"/></linearGradient><linearGradient id="__lottie_element_9550" spreadMethod="pad" gradientUnits="userSpaceOnUse" x1="-26.722999572753906" y1="-0.2590000033378601" x2="25.260000228881836" y2="-0.2590000033378601"><stop offset="0%" stop-color="rgb(101,5,96)"/><stop offset="50%" stop-color="rgb(68,3,64)"/><stop offset="100%" stop-color="rgb(34,0,32)"/></linearGradient><linearGradient id="__lottie_element_9551" spreadMethod="pad" gradientUnits="userSpaceOnUse" x1="-11.208000183105469" y1="-0.2529999911785126" x2="10.428999900817871" y2="-0.2529999911785126"><stop offset="0%" stop-color="rgb(101,5,96)"/><stop offset="50%" stop-color="rgb(68,3,64)"/><stop offset="100%" stop-color="rgb(34,0,32)"/></linearGradient><linearGradient id="__lottie_element_9555" spreadMethod="pad" gradientUnits="userSpaceOnUse" x1="23" y1="-13" x2="27.861000061035156" y2="21.027000427246094"><stop offset="0%" stop-color="rgb(130,22,124)" stop-opacity="1"/><stop offset="50%" stop-color="rgb(135,26,130)" stop-opacity="0.5"/><stop offset="100%" stop-color="rgb(141,29,135)" stop-opacity="0"/></linearGradient><linearGradient id="__lottie_element_9556" spreadMethod="pad" gradientUnits="userSpaceOnUse" x1="29" y1="50" x2="16.51099967956543" y2="-13.22599983215332"><stop offset="0%" stop-color="rgb(130,22,124)" stop-opacity="1"/><stop offset="50%" stop-color="rgb(135,26,130)" stop-opacity="0.5"/><stop offset="100%" stop-color="rgb(141,29,135)" stop-opacity="0"/></linearGradient></defs><g clip-path="url(#__lottie_element_9496)"><g style="display: block;" transform="matrix(1,0,0,1,0,0)" opacity="1"><g opacity="1" transform="matrix(1,0,0,1,260.47601318359375,142.5970001220703)"><path fill="rgb(255,173,0)" fill-opacity="1" d=" M-31.2189998626709,-95.38400268554688 C-40.275001525878906,-95.66100311279297 -92.08599853515625,-81.87999725341797 -100.56099700927734,76.57499694824219 C-84.36000061035156,88.24299621582031 12.652000427246094,124.33499908447266 92.30799865722656,88.85099792480469 C102.71499633789062,30.207000732421875 107.75700378417969,-27.84600067138672 79.59400177001953,-66.78099822998047 C52.534000396728516,-104.19200134277344 -8.920000076293945,-112.9209976196289 -31.2189998626709,-95.38400268554688z"/></g><g opacity="1" transform="matrix(1,0,0,1,261.58599853515625,142.61700439453125)"><path fill="rgb(247,135,0)" fill-opacity="1" d=" M-32.32899856567383,-95.40399932861328 C-41.3849983215332,-95.68099975585938 -92.51300048828125,-85.74500274658203 -100.98799896240234,72.70999908447266 C-67.70500183105469,-33.590999603271484 -46.02299880981445,96.22699737548828 -5.10699987411499,103.68000030517578 C37.69900131225586,111.47699737548828 81.86499786376953,6.526000022888184 93.74400329589844,88.83100128173828 C104.1510009765625,30.187000274658203 106.64800262451172,-27.865999221801758 78.48500061035156,-66.8010025024414 C51.42499923706055,-104.21199798583984 -10.029999732971191,-112.94100189208984 -32.32899856567383,-95.40399932861328z"/></g><g opacity="1" transform="matrix(1,0,0,1,261.53399658203125,142.12600708007812)"><path stroke-linecap="round" stroke-linejoin="round" fill-opacity="0" stroke="rgb(209,94,0)" stroke-opacity="1" stroke-width="8" d=" M-32.277000427246094,-94.91400146484375 C-41.33300018310547,-95.19100189208984 -92.03700256347656,-85.67900085449219 -100.51200103759766,72.7760009765625 C-84.31099700927734,84.44400024414062 13.291000366210938,124.80599975585938 92.9469985961914,89.3219985961914 C103.35399627685547,30.67799949645996 106.6989974975586,-27.375 78.53600311279297,-66.30999755859375 C51.47600173950195,-103.72100067138672 -9.977999687194824,-112.45099639892578 -32.277000427246094,-94.91400146484375z"/></g></g><g style="display: block;" transform="matrix(1,0,0,1,256,256)" opacity="1"><g opacity="1" transform="matrix(1,0,0,1,0,0)"><path fill="rgb(99,4,95)" fill-opacity="1" d=" M6.8429999351501465,-39.612998962402344 C-9.065999984741211,-40.249000549316406 -65.06800079345703,-47.88600158691406 -72.06800079345703,-21.79400062561035 C-75.10800170898438,-10.46399974822998 -51.70399856567383,10.02400016784668 -54.25,51.388999938964844 C-57.152000427246094,98.552001953125 -56.02899932861328,157.48500061035156 -50.430999755859375,171.0290069580078 C-30.702999114990234,218.7570037841797 73.0260009765625,230.84800720214844 104.20899963378906,186.93800354003906 C135.8070068359375,142.4429931640625 115.66400146484375,84.48100280761719 70.48100280761719,53.935001373291016 C72.38999938964844,43.117000579833984 81.29900360107422,-3.9749999046325684 66.0260009765625,-21.79400062561035 C50.75299835205078,-39.612998962402344 6.8429999351501465,-39.612998962402344 6.8429999351501465,-39.612998962402344z"/></g><g opacity="1" transform="matrix(1,0,0,1,0,0)"><path fill="url(#__lottie_element_9503)" fill-opacity="1" d=" M-55.52299880981445,27.207000732421875 C-47.88600158691406,52.6619987487793 -65.7040023803711,150.6649932861328 -50.430999755859375,171.0290069580078 C-35.15800094604492,191.39300537109375 12.35099983215332,218.49099731445312 39.50699996948242,211.30599975585938 C-16.059999465942383,181.8470001220703 -38.659000396728516,99.59500122070312 -0.7940000295639038,76.20800018310547 C-24.97599983215332,74.29900360107422 -69.52300262451172,6.8429999351501465 -30.066999435424805,-40.249000549316406 C-63.159000396728516,-49.15800094604492 -82.25,-26.249000549316406 -72.06800079345703,-8.430000305175781 C-61.88600158691406,9.388999938964844 -55.52299880981445,27.207000732421875 -55.52299880981445,27.207000732421875z"/></g><g opacity="1" transform="matrix(1,0,0,1,0,0)"><path fill="url(#__lottie_element_9504)" fill-opacity="1" d=" M-32.30500030517578,134.7550048828125 C-32.30500030517578,92.47699737548828 2.177999973297119,58.20399856567383 44.71500015258789,58.20399856567383 C87.25199890136719,58.20399856567383 121.73400115966797,92.47699737548828 121.73400115966797,134.7550048828125 C121.73400115966797,177.0330047607422 87.25199890136719,211.30599975585938 44.71500015258789,211.30599975585938 C2.177999973297119,211.30599975585938 -32.30500030517578,177.0330047607422 -32.30500030517578,134.7550048828125z"/></g><g opacity="0.23" transform="matrix(1,0,0,1,0,0)"><path fill="rgb(232,98,229)" fill-opacity="1" d=" M85.65499877929688,96.56500244140625 C87.29299926757812,118.21600341796875 66.36299896240234,137.45199584960938 38.90599822998047,139.52999877929688 C11.449000358581543,141.60800170898438 -12.137999534606934,125.74099731445312 -13.776000022888184,104.08999633789062 C-15.413999557495117,82.43900299072266 5.515999794006348,63.202999114990234 32.972999572753906,61.125 C60.43000030517578,59.047000885009766 84.01699829101562,74.91400146484375 85.65499877929688,96.56500244140625z"/></g><g opacity="0.62" transform="matrix(1,0,0,1,0,0)"><path fill="rgb(127,3,124)" fill-opacity="1" d=" M-28.795000076293945,150.0279998779297 C-26.10099983215332,171.6649932861328 -3.872999906539917,216.21099853515625 45.970001220703125,212.39300537109375 C95.81300354003906,208.5749969482422 140.94000244140625,160.8459930419922 111.30400085449219,100.38999938964844 C118.04000091552734,145.572998046875 59.439998626708984,194.5749969482422 -28.795000076293945,150.0279998779297z"/></g><g opacity="0.5" transform="matrix(1,0,0,1,0,0)"><path stroke-linecap="round" stroke-linejoin="round" fill-opacity="0" stroke="rgb(244,108,244)" stroke-opacity="1" stroke-width="8.647" d=" M85.11699676513672,65.38999938964844 C116.30000305175781,99.11799621582031 133.48300170898438,154.48300170898438 88.93599700927734,201.5749969482422"/></g><g opacity="1" transform="matrix(1,0,0,1,0,0)"><path stroke-linecap="round" stroke-linejoin="round" fill-opacity="0" stroke="rgb(91,0,94)" stroke-opacity="1" stroke-width="8" d=" M50.54999923706055,214.3699951171875 C72.66999816894531,211.93600463867188 92.77999877929688,203.18499755859375 104.20899963378906,186.93800354003906"/></g><g opacity="1" transform="matrix(1,0,0,1,0,0)"><path stroke-linecap="round" stroke-linejoin="round" fill-opacity="0" stroke="rgb(104,0,104)" stroke-opacity="1" stroke-width="8" d=" M104.20899963378906,186.93800354003906 C135.60800170898438,142.302001953125 123.93699645996094,83.20800018310547 70.48100280761719,53.935001373291016 C72.38999938964844,43.117000579833984 81.29900360107422,-3.9749999046325684 66.0260009765625,-21.79400062561035 C50.75299835205078,-39.612998962402344 6.8429999351501465,-39.612998962402344 6.8429999351501465,-39.612998962402344"/></g><g opacity="1" transform="matrix(1,0,0,1,0,0)"><path stroke-linecap="round" stroke-linejoin="round" fill-opacity="0" stroke="rgb(104,0,104)" stroke-opacity="1" stroke-width="8" d=" M6.8429999351501465,-39.612998962402344 C-9.065999984741211,-40.249000549316406 -65.06800079345703,-47.88600158691406 -72.06800079345703,-21.79400062561035 C-75.10800170898438,-10.46399974822998 -51.70399856567383,10.02400016784668 -54.25,51.388999938964844 C-57.152000427246094,98.552001953125 -56.02899932861328,157.48500061035156 -50.430999755859375,171.0290069580078 C-30.702999114990234,218.7570037841797 71.75399780273438,233.0760040283203 104.20899963378906,186.93800354003906 C135.60800170898438,142.302001953125 123.93699645996094,83.20800018310547 70.48100280761719,53.935001373291016 C72.38999938964844,43.117000579833984 81.29900360107422,-3.9749999046325684 66.0260009765625,-21.79400062561035 C50.75299835205078,-39.612998962402344 6.8429999351501465,-39.612998962402344 6.8429999351501465,-39.612998962402344z"/></g><g opacity="1" transform="matrix(1,0,0,1,0,0)"><path stroke-linecap="round" stroke-linejoin="round" fill-opacity="0" stroke="rgb(71,0,84)" stroke-opacity="1" stroke-width="8" d=" M-54.051998138427734,35.88199996948242 C-56.95399856567383,83.04499816894531 -56.02899932861328,157.48500061035156 -50.430999755859375,171.0290069580078 C-30.702999114990234,218.7570037841797 71.75399780273438,233.0760040283203 104.20899963378906,186.93800354003906"/></g></g><g style="display: block;" transform="matrix(1,0,0,1,256,256)" opacity="1"><g opacity="1" transform="matrix(1,0,0,1,0,0)"><path fill="rgb(189,58,180)" fill-opacity="1" d=" M71.20800018310547,6.418000221252441 C80.96600341796875,17.02400016784668 97.20800018310547,30.37700080871582 90.20800018310547,48.42599868774414 C85.99700164794922,59.28300094604492 78.0479965209961,62.16699981689453 68.88999938964844,62.20800018310547 C53.86000061035156,62.275001525878906 39.268001556396484,66.00900268554688 25.145000457763672,71.61799621582031 C16.920000076293945,74.88500213623047 7.817999839782715,77.00399780273438 -0.7940000295639038,76.19400024414062 C-37.70399856567383,72.7229995727539 -41.946998596191406,22.96500015258789 -41.097999572753906,5.145999908447266 C-44.805999755859375,-9.253999710083008 -68.51100158691406,-22.336000442504883 -60.61399841308594,-29.64299964904785 C-50.957000732421875,-38.577999114990234 -11.829000473022461,-39.16299819946289 4.951000213623047,-39.012001037597656 C39.22100067138672,-38.70399856567383 79.16400146484375,-29.71299934387207 71.20800018310547,6.418000221252441z"/></g><g opacity="1" transform="matrix(1,0,0,1,0,0)"><path fill="url(#__lottie_element_9555)" fill-opacity="1" d=" M-28.795000076293945,-44.06800079345703 C-12.24899959564209,-17.34000015258789 39.41999816894531,31.32200050354004 61.05699920654297,22.0939998626709 C78.98999786376953,14.446000099182129 74.40699768066406,-19.740999221801758 61.57099914550781,-28.795000076293945 C42.847999572753906,-42.000999450683594 -28.795000076293945,-44.06800079345703 -28.795000076293945,-44.06800079345703z"/></g><g opacity="1" transform="matrix(1,0,0,1,0,0)"><path stroke-linecap="round" stroke-linejoin="round" fill-opacity="0" stroke="rgb(104,0,104)" stroke-opacity="1" stroke-width="8" d=" M74.78900146484375,11.758000373840332 C74.63999938964844,-1.3589999675750732 72.51799774169922,-14.220000267028809 66.0260009765625,-21.79400062561035 C50.75299835205078,-39.612998962402344 6.8429999351501465,-39.612998962402344 6.8429999351501465,-39.612998962402344"/></g><g opacity="0.6" transform="matrix(1,0,0,1,0,0)"><path fill="url(#__lottie_element_9556)" fill-opacity="1" d=" M-42.858001708984375,-0.5049999952316284 C-30.104000091552734,2.7890000343322754 -31.402000427246094,33.78799819946289 -13.883000373840332,47.077999114990234 C12.666000366210938,67.21800231933594 38.632999420166016,50.965999603271484 46.29800033569336,48.57099914550781 C56.257999420166016,45.45899963378906 70.52899932861328,48.09400177001953 76.84400177001953,43.75299835205078 C87.0260009765625,36.75299835205078 83.84500122070312,21.479000091552734 68.5719985961914,8.114999771118164 C97.20899963378906,27.20599937438965 94.66300201416016,43.75299835205078 90.20800018310547,50.75299835205078 C85.75299835205078,57.75299835205078 67.93499755859375,62.84400177001953 48.84400177001953,66.0260009765625 C29.753000259399414,69.20800018310547 -3.9760000705718994,84.48100280761719 -23.70400047302246,66.66200256347656 C-43.43199920654297,48.84299850463867 -42.858001708984375,-0.5049999952316284 -42.858001708984375,-0.5049999952316284z"/></g><g opacity="1" transform="matrix(1,0,0,1,0,0)"><path stroke-linecap="round" stroke-linejoin="round" fill-opacity="0" stroke="rgb(104,0,104)" stroke-opacity="1" stroke-width="8" d=" M25.145000457763672,69.01300048828125 C16.920000076293945,72.00800323486328 7.817999839782715,73.94999694824219 -0.7940000295639038,73.20800018310547 C-37.70399856567383,70.0260009765625 -43.430999755859375,32.935001373291016 -45.34000015258789,11.934000015258789"/></g><g opacity="0.5" transform="matrix(1,0,0,1,0,0)"><path stroke-linecap="round" stroke-linejoin="round" fill-opacity="0" stroke="rgb(244,108,244)" stroke-opacity="1" stroke-width="8.647" d=" M69.80599975585938,11.350000381469727 C83.80599975585938,22.381000518798828 101.6240005493164,44.44200134277344 74.0479965209961,63.10900115966797"/></g><g opacity="1" transform="matrix(1,0,0,1,0,0)"><path stroke-linecap="round" stroke-linejoin="round" fill-opacity="0" stroke="rgb(104,0,104)" stroke-opacity="1" stroke-width="8" d=" M69.20800018310547,6.8429999351501465 C83.20800018310547,19.570999145507812 97.20800018310547,34.207000732421875 90.20800018310547,50.75299835205078 C85.99700164794922,60.70500183105469 78.44100189208984,64.57099914550781 69.28299713134766,64.60800170898438"/></g></g><g style="display: block;" transform="matrix(1,-0.00022575758339371532,0.00022575758339371532,1,256.0045166015625,255.98770141601562)" opacity="1"><g opacity="1" transform="matrix(1,0,0,1,0,0)"><g opacity="1" transform="matrix(1,0,0,1,0,0)"><path fill="rgb(140,6,140)" fill-opacity="1" d=" M-56.159000396728516,-25.613000869750977 C-84.9489974975586,-52.14500045776367 -143.97999572753906,122.0270004272461 -109.61499786376953,136.66400146484375 C-87.02300262451172,146.28700256347656 -23.70400047302246,4.296999931335449 -56.159000396728516,-25.613000869750977z"/></g><g opacity="1" transform="matrix(1,0,0,1,0,0)"><path fill="rgb(189,58,180)" fill-opacity="1" d=" M-55.41600036621094,-30.809999465942383 C-73.56999969482422,-40.01499938964844 -122.45700073242188,100.05500030517578 -108.55400085449219,105.26899719238281 C-95.64199829101562,110.11100006103516 -80.08000183105469,84.98100280761719 -70.74600219726562,58.90399932861328 C-57.999000549316406,23.291000366210938 -52.542999267578125,-15.817000389099121 -41.52199935913086,1.3270000219345093 C-41.8129997253418,-1.7580000162124634 -53.91400146484375,-30.048999786376953 -55.41600036621094,-30.809999465942383z"/></g><g opacity="1" transform="matrix(1,0,0,1,0,0)"><path fill="url(#__lottie_element_9537)" fill-opacity="1" d=" M-54.88600158691406,-30.70400047302246 C-83.74700164794922,-57.15999984741211 -143.97999572753906,122.0270004272461 -109.61499786376953,136.66400146484375 C-87.02300262451172,146.28700256347656 -21.79400062561035,-0.3700000047683716 -54.88600158691406,-30.70400047302246z"/></g><g opacity="1" transform="matrix(1,0,0,1,0,0)"><path stroke-linecap="round" stroke-linejoin="round" fill-opacity="0" stroke="rgb(104,0,104)" stroke-opacity="1" stroke-width="8" d=" M-63.79499816894531,-33.249000549316406 C-102.93199920654297,-10.97599983215332 -141.83200073242188,122.94200134277344 -109.61499786376953,136.66400146484375 C-92.6709976196289,143.88099670410156 -45.76499938964844,70.69300079345703 -45.553001403808594,1.9639999866485596"/></g><g opacity="0.8" transform="matrix(1,0,0,1,0,0)"><path stroke-linecap="round" stroke-linejoin="round" fill-opacity="0" stroke="rgb(71,0,84)" stroke-opacity="1" stroke-width="8" d=" M-109.61499786376953,136.66400146484375 C-92.6709976196289,143.88099670410156 -45.76499938964844,70.69300079345703 -45.553001403808594,1.9639999866485596"/></g><g opacity="0.23" transform="matrix(1,0,0,1,0,0)"><path fill="rgb(232,98,229)" fill-opacity="1" d=" M-37.178001403808594,-27.8799991607666 C-32.34000015258789,-21.551000595092773 -35.58700180053711,-10.9399995803833 -44.43000030517578,-4.182000160217285 C-53.27299880981445,2.5759999752044678 -64.36199951171875,2.9240000247955322 -69.19999694824219,-3.4049999713897705 C-74.03800201416016,-9.734000205993652 -70.79199981689453,-20.344999313354492 -61.94900131225586,-27.10300064086914 C-53.10599899291992,-33.861000061035156 -42.01599884033203,-34.20899963378906 -37.178001403808594,-27.8799991607666z"/></g></g></g><g style="display: block;" transform="matrix(0.8191520571708679,0.5735764503479004,-0.5735764503479004,0.8191520571708679,319.51318359375,216.60519409179688)" opacity="1"><g opacity="1" transform="matrix(1,0.00021487343474291265,-0.00021487343474291265,1,0.01319122314453125,-0.02095794677734375)"><g opacity="1" transform="matrix(0.8191520571708679,-0.5735764503479004,0.5735764503479004,0.8191520571708679,-385.7880859375,5.664634704589844)"><g opacity="0.39" transform="matrix(1,0,0,1,345.7229919433594,347.2590026855469)"><path fill="url(#__lottie_element_9550)" fill-opacity="1" d=" M-16.69700050354004,-21.62700080871582 C-47.44499969482422,3.0799999237060547 11.322999954223633,25.2810001373291 25.940000534057617,11.994999885559082 C29.14299964904785,9.083999633789062 14.484999656677246,-16.959999084472656 7.166999816894531,-18.232999801635742 C-0.1509999930858612,-19.506000518798828 -16.69700050354004,-21.62700080871582 -16.69700050354004,-21.62700080871582z"/></g><g opacity="0.39" transform="matrix(1,0,0,1,325.2080078125,324.25299072265625)"><path fill="url(#__lottie_element_9551)" fill-opacity="1" d=" M-6.318999767303467,-0.2540000081062317 C-6.318999767303467,-6.229000091552734 -3.4749999046325684,-5.567999839782715 2.5,-5.567999839782715 C8.475000381469727,-5.567999839782715 10.817999839782715,-5.974999904632568 10.817999839782715,0 C10.817999839782715,5.974999904632568 11.222999572753906,8.814000129699707 5.248000144958496,8.814000129699707 C-0.7269999980926514,8.814000129699707 -6.318999767303467,5.7210001945495605 -6.318999767303467,-0.2540000081062317z"/></g></g><g opacity="1" transform="matrix(1,0,0,1,0,0)"><g opacity="1" transform="matrix(1,0,0,1,0,0)"><path fill="rgb(233,113,1)" fill-opacity="1" d=" M109.93499755859375,58.92599868774414 C99.96199798583984,52.32400131225586 79.71900177001953,55.948001861572266 71.79000091552734,69.24299621582031 C71.28900146484375,70.90399932861328 62.29899978637695,77.8270034790039 62.185001373291016,82.37799835205078 C61.82899856567383,86.65799713134766 65.93199920654297,90.46700286865234 70.16999816894531,89.75299835205078 C66.19999694824219,96.6259994506836 73.66400146484375,105.01399993896484 80.73699951171875,101.2300033569336 C83.2760009765625,105.16799926757812 88.72699737548828,106.50599670410156 92.51599884033203,103.66600036621094 C95.65899658203125,102.51899719238281 96.47899627685547,93.37899780273438 97.45500183105469,94.9010009765625 C98.63500213623047,104.8740005493164 114.27400207519531,103.21600341796875 113.35800170898438,93.22599792480469 C114.36499786376953,91.36599731445312 117.72100067138672,92.94400024414062 119.1969985961914,91.08599853515625 C123.93800354003906,88.23799896240234 121.43199920654297,80.1500015258789 121.3239974975586,75.7959976196289 C121.42900085449219,69.16899871826172 117.08799743652344,62.724998474121094 109.93499755859375,58.92599868774414z"/></g><g opacity="1" transform="matrix(1,0,0,1,0,0)"><path fill="rgb(255,173,0)" fill-opacity="1" d=" M74.0469970703125,70.125 C73.12899780273438,71.41799926757812 53.49800109863281,86.01499938964844 71.28600311279297,88.20899963378906 C69.7509994506836,94.625 73.23400115966797,104.39299774169922 82.2040023803711,97.76399993896484 C85.85099792480469,108.68199920654297 93.08999633789062,99.18900299072266 97.80500030517578,93.22000122070312 C100.82099914550781,100.64199829101562 111.78900146484375,102.57599639892578 112.3499984741211,90.10099792480469 C135.65699768066406,89.37300109863281 106.21900177001953,34.909000396728516 74.0469970703125,70.125z"/></g><g opacity="1" transform="matrix(1,0,0,1,0,0)"><path stroke-linecap="round" stroke-linejoin="round" fill-opacity="0" stroke="rgb(255,173,0)" stroke-opacity="1" stroke-width="8" d=" M76.70899963378906,94.6500015258789 C76.70899963378906,94.6500015258789 85.10700225830078,72.28900146484375 85.10700225830078,72.28900146484375"/></g><g opacity="1" transform="matrix(1,0,0,1,0,0)"><path stroke-linecap="round" stroke-linejoin="round" fill-opacity="0" stroke="rgb(255,173,0)" stroke-opacity="1" stroke-width="8" d=" M87.46900177001953,97.69400024414062 C87.46900177001953,97.69400024414062 93.6050033569336,77.1259994506836 93.6050033569336,77.1259994506836"/></g><g opacity="1" transform="matrix(1,0,0,1,0,0)"><path stroke-linecap="round" stroke-linejoin="round" fill-opacity="0" stroke="rgb(255,173,0)" stroke-opacity="1" stroke-width="8" d=" M105.56500244140625,94.18000030517578 C105.56500244140625,94.18000030517578 103.05699920654297,74.76200103759766 103.05699920654297,74.76200103759766"/></g><g opacity="1" transform="matrix(1,0,0,1,0,0)"><path stroke-linecap="round" stroke-linejoin="round" fill-opacity="0" stroke="rgb(255,223,121)" stroke-opacity="1" stroke-width="8" d=" M89.62300109863281,91.9990005493164 C89.62300109863281,91.9990005493164 94.91799926757812,67.89299774169922 94.91799926757812,67.89299774169922"/></g><g opacity="1" transform="matrix(1,0,0,1,0,0)"><path stroke-linecap="round" stroke-linejoin="round" fill-opacity="0" stroke="rgb(254,203,3)" stroke-opacity="1" stroke-width="8" d=" M104.60800170898438,87.99199676513672 C104.60800170898438,87.99199676513672 104.9990005493164,72.56400299072266 104.9990005493164,72.56400299072266"/></g><g opacity="1" transform="matrix(1,0,0,1,0,0)"><path stroke-linecap="round" stroke-linejoin="round" fill-opacity="0" stroke="rgb(254,203,3)" stroke-opacity="1" stroke-width="8" d=" M115.18299865722656,85.2229995727539 C115.18299865722656,85.2229995727539 115.31400299072266,76.4739990234375 115.31400299072266,76.4739990234375"/></g><g opacity="1" transform="matrix(1,0,0,1,0,0)"><path stroke-linecap="round" stroke-linejoin="round" fill-opacity="0" stroke="rgb(255,173,0)" stroke-opacity="1" stroke-width="9" d=" M67.99800109863281,83.26200103759766 C75.15699768066406,81.20600128173828 75.7699966430664,68.697998046875 80.29299926757812,66.98400115966797"/></g><g opacity="1" transform="matrix(1,0,0,1,0,0)"><path stroke-linecap="round" stroke-linejoin="round" fill-opacity="0" stroke="rgb(247,160,0)" stroke-opacity="1" stroke-width="4" d=" M72.27799987792969,87.88700103759766 C77.75399780273438,81.3499984741211 76.86699676513672,65.60600280761719 88.90499877929688,58.62699890136719"/></g><g opacity="1" transform="matrix(1,0,0,1,0,0)"><path fill="rgb(255,223,121)" fill-opacity="1" d=" M98.13300323486328,72.0469970703125 C91.19100189208984,75.62699890136719 79.18599700927734,75.13600158691406 79.61699676513672,71.73600006103516 C80.0270004272461,68.5 82.00199890136719,61.40399932861328 89.58899688720703,59.54899978637695 C96.98100280761719,57.74100112915039 101.41100311279297,63.56800079345703 98.13300323486328,72.0469970703125z"/></g><g opacity="1" transform="matrix(1,0,0,1,0,0)"><path stroke-linecap="round" stroke-linejoin="round" fill-opacity="0" stroke="rgb(255,223,121)" stroke-opacity="1" stroke-width="8" d=" M78.52300262451172,89.44499969482422 C78.52300262451172,89.44499969482422 83.13800048828125,72.52100372314453 83.13800048828125,72.52100372314453"/></g><g opacity="1" transform="matrix(1,0,0,1,0,0)"><path stroke-linecap="round" stroke-linejoin="round" fill-opacity="0" stroke="rgb(247,160,0)" stroke-opacity="1" stroke-width="4" d=" M82.13500213623047,96.8499984741211 C82.13500213623047,96.8499984741211 88.36599731445312,74.03199768066406 88.36599731445312,74.03199768066406"/></g><g opacity="1" transform="matrix(1,0,0,1,0,0)"><path stroke-linecap="round" stroke-linejoin="round" fill-opacity="0" stroke="rgb(247,160,0)" stroke-opacity="1" stroke-width="4" d=" M96.88700103759766,91.44000244140625 C96.88700103759766,91.44000244140625 99.73500061035156,73.43900299072266 99.73500061035156,73.43900299072266"/></g><g opacity="1" transform="matrix(1,0,0,1,0,0)"><path stroke-linecap="round" stroke-linejoin="round" fill-opacity="0" stroke="rgb(247,160,0)" stroke-opacity="1" stroke-width="4" d=" M111.66000366210938,90.93000030517578 C111.66000366210938,90.93000030517578 110.47200012207031,74.68299865722656 110.47200012207031,74.68299865722656"/></g><g opacity="1" transform="matrix(1,0,0,1,0,0)"><path fill="rgb(233,113,1)" fill-opacity="1" d=" M81.98100280761719,64.44000244140625 C97.41999816894531,53.220001220703125 117.74299621582031,63.534000396728516 117.31999969482422,75.93099975585938 C117.01399993896484,78.2979965209961 119.58499908447266,86.30699920654297 116.84500122070312,87.85099792480469 C113.68499755859375,88.64299774169922 109.2969970703125,88.70500183105469 109.35700225830078,93.26200103759766 C109.52200317382812,94.76899719238281 108.89399719238281,96.20500183105469 107.72799682617188,97.03900146484375 C99.74199676513672,101.34400177001953 103.0199966430664,86.94499969482422 94.60199737548828,91.48200225830078 C92.91899871826172,92.41600036621094 92.29199981689453,96.68299865722656 91.65499877929688,98.33899688720703 C90.4800033569336,102.22799682617188 85.18900299072266,101.90799713134766 83.61399841308594,98.28299713134766 C81.36199951171875,94.4020004272461 78.01100158691406,99.80799865722656 74.97599792480469,97.52899932861328 C71.572998046875,95.61199951171875 73.87300109863281,91.20800018310547 74.89900207519531,88.55400085449219 C75.81199645996094,86.13899993896484 73.13500213623047,83.9469985961914 70.9469985961914,85.31800079345703 C69.7229995727539,86.08599853515625 68.08499908447266,85.98699951171875 67.0739974975586,84.95500183105469 C63.459999084472656,81.27999877929688 72.81099700927734,75.56900024414062 75.05000305175781,71.55799865722656 C77.16600036621094,68.58100128173828 79.51100158691406,66.23500061035156 81.98100280761719,64.44000244140625 M79.62899780273438,61.20399856567383 C72.93299865722656,66.34400177001953 71.72899627685547,70.05699920654297 64.50299835205078,77.54199981689453 C59.367000579833984,81.86799621582031 63.52199935913086,90.9209976196289 70.16999816894531,89.75299835205078 C66.19999694824219,96.6259994506836 73.66500091552734,105.01499938964844 80.73699951171875,101.2300033569336 C84.25599670410156,107.08399963378906 93.6449966430664,106.15699768066406 95.48500061035156,99.49199676513672 C98.70099639892578,87.48200225830078 95.36000061035156,102.76599884033203 106.23500061035156,101.75299835205078 C111.24099731445312,101.41100311279297 113.2239990234375,96.68699645996094 113.73899841308594,92.54900360107422 C115.61000061035156,92.09400177001953 117.64900207519531,92.49500274658203 119.1969985961914,91.08699798583984 C123.93800354003906,88.23899841308594 121.43199920654297,80.1500015258789 121.3239974975586,75.7959976196289 C120.18299865722656,57.698001861572266 96.33000183105469,49.12799835205078 79.62899780273438,61.20399856567383z"/></g></g></g></g><g style="display: block;" transform="matrix(0.9925186038017273,-0.12209341675043106,0.12209341675043106,0.9925186038017273,-43.675384521484375,21.265350341796875)" opacity="1"><g opacity="0.52" transform="matrix(1,0,0,1,251.64599609375,275.81500244140625)"><path fill="url(#__lottie_element_9546)" fill-opacity="1" d=" M48.26599884033203,163.32400512695312 C91.50299835205078,140.9010009765625 1.8040000200271606,142.11599731445312 3.803999900817871,167.11599731445312 C4.958000183105469,181.54600524902344 27.33099937438965,192.75900268554688 48.0629997253418,192.61700439453125 C63.249000549316406,192.51300048828125 77.55400085449219,186.31700134277344 81.99400329589844,170.83099365234375 C85.74299621582031,157.75599670410156 71.26599884033203,157.32400512695312 48.26599884033203,163.32400512695312z"/></g><g opacity="1" transform="matrix(1,0,0,1,0,0)"><g opacity="1" transform="matrix(1,0,0,1,292.48699951171875,431.11199951171875)"><path stroke-linecap="round" stroke-linejoin="round" fill-opacity="0" stroke="rgb(233,113,1)" stroke-opacity="1" stroke-width="18" d=" M15.855999946594238,-2.492000102996826 C2.1740000247955322,1.6440000534057617 -7.583000183105469,-2.2809998989105225 -15.855999946594238,2.492000102996826"/></g><g opacity="1" transform="matrix(1,0,0,1,303.7300109863281,459.4989929199219)"><path stroke-linecap="round" stroke-linejoin="round" fill-opacity="0" stroke="rgb(233,113,1)" stroke-opacity="1" stroke-width="18" d=" M-15.75,2.5309998989105225 C-8.432000160217285,4.757999897003174 10.659000396728516,2.371000051498413 15.75,-3.3559999465942383"/></g><g opacity="1" transform="matrix(1,0,0,1,303.7300109863281,459.4989929199219)"><path stroke-linecap="round" stroke-linejoin="round" fill-opacity="0" stroke="rgb(233,113,1)" stroke-opacity="1" stroke-width="18" d=" M-15.75,2.5309998989105225 C-8.432000160217285,4.757999897003174 10.659000396728516,2.371000051498413 15.75,-3.3559999465942383"/></g><g opacity="1" transform="matrix(1,0,0,1,308.8210144042969,442.98199462890625)"><path stroke-linecap="round" stroke-linejoin="round" fill-opacity="0" stroke="rgb(230,112,0)" stroke-opacity="1" stroke-width="18" d=" M-20.840999603271484,3.138000011444092 C-14.159000396728516,6.001999855041504 7.158999919891357,7.5929999351501465 20.840999603271484,-5.135000228881836"/></g><g opacity="1" transform="matrix(1,0,0,1,308.18499755859375,452.0469970703125)"><path stroke-linecap="round" stroke-linejoin="round" fill-opacity="0" stroke="rgb(230,112,0)" stroke-opacity="1" stroke-width="18" d=" M-18.93199920654297,2.6640000343322754 C-13.204999923706055,5.210000038146973 9.067999839782715,6.164000034332275 18.93199920654297,-4.335999965667725"/></g><g opacity="1" transform="matrix(1,0,0,1,274.9049987792969,445.5050048828125)"><path fill="rgb(255,173,0)" fill-opacity="1" d=" M-29.562999725341797,-10.520999908447266 C-30.836000442504883,-5.429999828338623 -6.068999767303467,20.7450008392334 15.302000045776367,21.29800033569336 C52.21200180053711,22.253000259399414 4.059000015258789,-11.899999618530273 20.816999435424805,-18.052000045776367 C10.211000442504883,-26.325000762939453 -19.80500030517578,-16.461000442504883 -22.66900062561035,-14.869999885559082 C-25.533000946044922,-13.279000282287598 -29.562999725341797,-10.520999908447266 -29.562999725341797,-10.520999908447266z"/></g><g opacity="1" transform="matrix(1,0,0,1,284.7439880371094,442.4100036621094)"><path fill="rgb(254,203,3)" fill-opacity="1" d=" M-21.20199966430664,-4.379000186920166 C-21.514999389648438,0.8209999799728394 -14.423999786376953,12.619999885559082 7.531000137329102,16.27899932861328 C43.95100021362305,22.349000930786133 -5.78000020980835,-8.805000305175781 10.977999687194824,-14.956999778747559 C1.8569999933242798,-20.68400001525879 -20.628999710083008,-13.895999908447266 -21.20199966430664,-4.379000186920166z"/></g><g opacity="1" transform="matrix(1,0,0,1,275.6719970703125,446.8429870605469)"><path stroke-linecap="butt" stroke-linejoin="miter" fill-opacity="0" stroke-miterlimit="10" stroke="rgb(233,113,1)" stroke-opacity="1" stroke-width="6" d=" M-29.163000106811523,-13.027000427246094 C-30.43600082397461,-7.935999870300293 -8.532999992370605,20.753999710083008 15.012999534606934,21.708999633789062 C51.904998779296875,23.204999923706055 3.2929999828338623,-13.23799991607666 20.051000595092773,-19.389999389648438 C5.625999927520752,-27.23900032043457 -29.163000106811523,-13.027000427246094 -29.163000106811523,-13.027000427246094z"/></g><g opacity="1" transform="matrix(1,0,0,1,303.6510009765625,459.58599853515625)"><path stroke-linecap="round" stroke-linejoin="round" fill-opacity="0" stroke="rgb(255,173,0)" stroke-opacity="1" stroke-width="8" d=" M-15.829999923706055,1.965999960899353 C-8.51200008392334,4.192999839782715 10.73900032043457,2.760999917984009 15.829999923706055,-2.9660000801086426"/></g><g opacity="1" transform="matrix(1,0,0,1,303.6510009765625,459.58599853515625)"><path stroke-linecap="round" stroke-linejoin="round" fill-opacity="0" stroke="rgb(255,173,0)" stroke-opacity="1" stroke-width="8" d=" M-15.829999923706055,1.965999960899353 C-8.51200008392334,4.192999839782715 10.73900032043457,2.760999917984009 15.829999923706055,-2.9660000801086426"/></g><g opacity="1" transform="matrix(1,0,0,1,308.1319885253906,451.8009948730469)"><path stroke-linecap="round" stroke-linejoin="round" fill-opacity="0" stroke="rgb(254,203,3)" stroke-opacity="1" stroke-width="8" d=" M-18.985000610351562,2.1679999828338623 C-13.258000373840332,4.714000225067139 9.121000289916992,6.409999847412109 18.985000610351562,-4.090000152587891"/></g><g opacity="1" transform="matrix(1,0,0,1,308.8210144042969,442.98199462890625)"><path stroke-linecap="round" stroke-linejoin="round" fill-opacity="0" stroke="rgb(254,203,3)" stroke-opacity="1" stroke-width="8" d=" M-20.840999603271484,3.138000011444092 C-14.159000396728516,6.001999855041504 7.158999919891357,7.5929999351501465 20.840999603271484,-5.135000228881836"/></g><g opacity="1" transform="matrix(1,0,0,1,292.8059997558594,431.5360107421875)"><path stroke-linecap="round" stroke-linejoin="round" fill-opacity="0" stroke="rgb(254,203,3)" stroke-opacity="1" stroke-width="8" d=" M15.538000106811523,-2.9170000553131104 C1.8559999465942383,1.218999981880188 -7.264999866485596,-1.8559999465942383 -15.538000106811523,2.9170000553131104"/></g><g opacity="1" transform="matrix(1,0,0,1,317.0570068359375,449.8599853515625)"><path stroke-linecap="round" stroke-linejoin="round" fill-opacity="0" stroke="rgb(247,160,0)" stroke-opacity="1" stroke-width="4" d=" M-11.756999969482422,4.058000087738037 C-3.6549999713897705,3.3420000076293945 3.5899999141693115,2.200000047683716 11.756999969482422,-4.058000087738037"/></g><g opacity="1" transform="matrix(1,0,0,1,312.6310119628906,459.5710144042969)"><path stroke-linecap="round" stroke-linejoin="round" fill-opacity="0" stroke="rgb(217,135,0)" stroke-opacity="1" stroke-width="4" d=" M-8.864999771118164,2.2079999446868896 C-3.2260000705718994,2.140000104904175 2.565000057220459,1.4290000200271606 8.864999771118164,-2.2079999446868896"/></g><g opacity="1" transform="matrix(1,0,0,1,312.6310119628906,459.5710144042969)"><path stroke-linecap="round" stroke-linejoin="round" fill-opacity="0" stroke="rgb(247,160,0)" stroke-opacity="1" stroke-width="4" d=" M-8.864999771118164,2.2079999446868896 C-3.2260000705718994,2.140000104904175 2.565000057220459,1.4290000200271606 8.864999771118164,-2.2079999446868896"/></g><g opacity="1" transform="matrix(1,0,0,1,288.8450012207031,439.6629943847656)"><path fill="rgb(254,203,3)" fill-opacity="1" d=" M-14.866000175476074,-0.7020000219345093 C-14.28499984741211,6.074999809265137 13.293999671936035,7.093999862670898 14.885000228881836,6.138999938964844 C3.5889999866485596,5.025000095367432 -4.684000015258789,-3.247999906539917 8.520999908447266,-5.1570000648498535 C-6.5929999351501465,-7.861999988555908 -15.343000411987305,-6.269999980926514 -14.866000175476074,-0.7020000219345093z"/></g><g opacity="1" transform="matrix(1,0,0,1,282.68798828125,442.3139953613281)"><path fill="rgb(255,223,121)" fill-opacity="1" d=" M4.761000156402588,-8.92199993133545 C1.9550000429153442,-13.732000350952148 -13.270000457763672,-9.663999557495117 -11.572999954223633,-3.4059998989105225 C-9.35099983215332,4.788000106811523 9.277000427246094,15.317999839782715 11.496000289916992,9.21500015258789 C13.404999732971191,3.9649999141693115 1.5529999732971191,1.590999960899353 2.427000045776367,-4.308000087738037 C2.6389999389648438,-5.739999771118164 6.245999813079834,-6.375999927520752 4.761000156402588,-8.92199993133545z"/></g></g></g><g style="display: block;" transform="matrix(0.9272684454917908,0.37439724802970886,-0.37439724802970886,0.9272684454917908,314.418701171875,280.0893859863281)" opacity="1"><g opacity="1" transform="matrix(1,0,0,1,0,0)"><path fill="rgb(140,6,140)" fill-opacity="1" d=" M-6.797999858856201,134.13999938964844 C-19.96299934387207,134.6199951171875 -78.92400360107422,138.94200134277344 -99.22100067138672,124.75800323486328 C-117.1989974975586,130.41200256347656 -129.01800537109375,151.49099731445312 -118.50399780273438,164.65699768066406 C-106.427001953125,179.781005859375 -11.98900032043457,171.98300170898438 -4.636000156402588,170.7830047607422 C-14.522000312805176,156.29600524902344 -14.734000205993652,141.0240020751953 -6.797999858856201,134.13999938964844z"/><path fill="url(#__lottie_element_9540)" fill-opacity="1" d=" M-6.797999858856201,134.13999938964844 C-19.96299934387207,134.6199951171875 -78.92400360107422,138.94200134277344 -99.22100067138672,124.75800323486328 C-117.1989974975586,130.41200256347656 -129.01800537109375,151.49099731445312 -118.50399780273438,164.65699768066406 C-106.427001953125,179.781005859375 -11.98900032043457,171.98300170898438 -4.636000156402588,170.7830047607422 C-14.522000312805176,156.29600524902344 -14.734000205993652,141.0240020751953 -6.797999858856201,134.13999938964844z"/></g><g opacity="0.59" transform="matrix(1,0,0,1,0,0)"><path fill="url(#__lottie_element_9541)" fill-opacity="1" d=" M-10.128999710083008,143.0469970703125 C-30.134000778198242,147.4080047607422 -72.43000030517578,145.62399291992188 -99.89700317382812,136.5970001220703 C-109.94499969482422,133.29400634765625 -117.00299835205078,136.71200561523438 -119.32499694824219,141.1490020751953 C-122.73500061035156,147.6649932861328 -116.4260025024414,154.1479949951172 -109.51699829101562,156.86700439453125 C-84.5989990234375,166.67300415039062 -15.737000465393066,162.2830047607422 -8.871000289916992,159.21800231933594 C-13.081999778747559,151.572998046875 -10.128999710083008,143.0469970703125 -10.128999710083008,143.0469970703125z"/></g><g opacity="1" transform="matrix(1,0,0,1,0,0)"><path stroke-linecap="round" stroke-linejoin="round" fill-opacity="0" stroke="rgb(104,0,104)" stroke-opacity="1" stroke-width="8" d=" M-125.36699676513672,161.58599853515625 C-108.76200103759766,178.36700439453125 -61.97999954223633,175.64300537109375 -5.239999771118164,171.13800048828125 C-19.797000885009766,145.2519989013672 -7.265999794006348,133.7259979248047 -7.265999794006348,133.7259979248047 C-23.982999801635742,135.76199340820312 -78.92400360107422,138.94200134277344 -99.22100067138672,124.75800323486328"/><path stroke-linecap="round" stroke-linejoin="round" fill-opacity="0" stroke-dasharray=" 130 175" stroke-dashoffset="0" stroke="rgb(78,0,88)" stroke-opacity="1" stroke-width="8" d=" M-125.36699676513672,161.58599853515625 C-108.76200103759766,178.36700439453125 -61.97999954223633,175.64300537109375 -5.239999771118164,171.13800048828125 C-19.797000885009766,145.2519989013672 -7.265999794006348,133.7259979248047 -7.265999794006348,133.7259979248047 C-23.982999801635742,135.76199340820312 -78.92400360107422,138.94200134277344 -99.22100067138672,124.75800323486328"/></g><g opacity="1" transform="matrix(1,0,0,1,0,0)"><path fill="url(#__lottie_element_9542)" fill-opacity="1" d=" M-8.475000381469727,165.91799926757812 C-4.525000095367432,165.75 6.939000129699707,164.1060028076172 12.803000450134277,163.58299255371094 C5.01800012588501,153.29200744628906 5.324999809265137,135.1750030517578 7.826000213623047,133.77999877929688 C0.39100000262260437,135.7519989013672 -9.168000221252441,137.43899536132812 -12.168999671936035,138.11599731445312 C-17.875999450683594,149.29200744628906 -12.515999794006348,161.95700073242188 -8.475000381469727,165.91799926757812z"/><path stroke-linecap="round" stroke-linejoin="round" fill-opacity="0" stroke="rgb(71,0,84)" stroke-opacity="1" stroke-width="8" d=" M-8.475000381469727,165.91799926757812 C-4.525000095367432,165.75 6.939000129699707,164.1060028076172 12.803000450134277,163.58299255371094 C5.01800012588501,153.29200744628906 5.324999809265137,135.1750030517578 7.826000213623047,133.77999877929688 C0.39100000262260437,135.7519989013672 -9.168000221252441,137.43899536132812 -12.168999671936035,138.11599731445312 C-17.875999450683594,149.29200744628906 -12.515999794006348,161.95700073242188 -8.475000381469727,165.91799926757812z"/></g></g><g style="display: block;" transform="matrix(1,0,0,1,0,0)" opacity="1"><g opacity="1" transform="matrix(1,0,0,1,256.52099609375,230.91299438476562)"><path fill="rgb(255,173,0)" fill-opacity="1" d=" M37.972999572753906,-11.369000434875488 C42.70199966430664,-1.875 33.047000885009766,13.16100025177002 17.48200035095215,15.689000129699707 C-9.37600040435791,20.051000595092773 -30.270999908447266,-8.586000442504883 -39.18000030517578,-13.253000259399414 C-39.18000030517578,-13.253000259399414 33.24399948120117,-20.863000869750977 37.972999572753906,-11.369000434875488z"/></g><g opacity="1" transform="matrix(1,0,0,1,265.9150085449219,225.47799682617188)"><path fill="rgb(247,135,0)" fill-opacity="1" d=" M-29.799999237060547,-13.562999725341797 C-21.95400047302246,-1.6239999532699585 -3.2130000591278076,14.154000282287598 12.734999656677246,13.673999786376953 C25.124000549316406,13.300999641418457 32.55699920654297,-0.13099999725818634 28.84000015258789,-7.5929999351501465 C25.12299919128418,-15.055000305175781 -29.799999237060547,-13.562999725341797 -29.799999237060547,-13.562999725341797"/></g><g opacity="1" transform="matrix(1,0,0,1,254.2469940185547,217.33700561523438)"><path stroke-linecap="round" stroke-linejoin="round" fill-opacity="0" stroke="rgb(209,94,0)" stroke-opacity="1" stroke-width="8" d=" M-40.24700164794922,-1.5859999656677246 C-27.04199981689453,-3.0179998874664307 22.277999877929688,-2.063999891281128 40.24700164794922,2.2070000171661377"/></g><g opacity="1" transform="matrix(1,0,0,1,252.75599670410156,231.82899475097656)"><path stroke-linecap="round" stroke-linejoin="round" fill-opacity="0" stroke="rgb(71,0,84)" stroke-opacity="1" stroke-width="8" d=" M-42.94499969482422,-15.229999542236328 C-27.777999877929688,-14.699999809265137 -9.005000114440918,19.558000564575195 21.246999740600586,14.772000312805176 C36.821998596191406,12.307999610900879 46.46699905395508,-2.7920000553131104 41.737998962402344,-12.28600025177002"/></g></g><g style="display: block;" transform="matrix(1,0,0,1,256,256)" opacity="1"><g opacity="1" transform="matrix(1,0,0,1,0,0)"><path fill="rgb(255,172,0)" fill-opacity="1" d=" M83.66999816894531,-103.375 C77.15599822998047,-53.63199996948242 29.75200080871582,-22.64299964904785 0.796999990940094,-29.113000869750977 C-31.408000946044922,-36.308998107910156 -69.6729965209961,-72.28099822998047 -63.159000396728516,-122.02400207519531 C-56.64500045776367,-171.76699829101562 -20.90399932861328,-208.68099975585938 20.499000549316406,-203.25900268554688 C61.902000427246094,-197.83700561523438 90.18399810791016,-153.1179962158203 83.66999816894531,-103.375z"/></g><g opacity="1" transform="matrix(1,0,0,1,0,0)"><path fill="rgb(255,203,0)" fill-opacity="1" d=" M74.93499755859375,-103.88700103759766 C69.20800018310547,-72.38600158691406 31.448999404907227,-35.79499816894531 5.570000171661377,-39.930999755859375 C-18.722999572753906,-43.81399917602539 -51.361000061035156,-81.37699890136719 -47.56800079345703,-103.88700103759766 C-37.06800079345703,-113.7509994506836 -20.20400047302246,-141.11500549316406 -18.61199951171875,-157.12399291992188 C-16.066999435424805,-153.52499389648438 28.479000091552734,-113.43299865722656 74.93499755859375,-103.88700103759766z"/></g><g opacity="1" transform="matrix(1,0,0,1,0,0)"><path stroke-linecap="butt" stroke-linejoin="miter" fill-opacity="0" stroke-miterlimit="10" stroke="rgb(230,112,0)" stroke-opacity="1" stroke-width="8" d=" M83.66999816894531,-103.375 C78.75299835205078,-66.02300262451172 34.84400177001953,-24.552000045776367 3.4489998817443848,-29.006999969482422 C-32.97999954223633,-34.17599868774414 -68.2509994506836,-86.06900024414062 -62.31100082397461,-121.70600128173828 C-54.06399917602539,-171.1909942626953 -20.90399932861328,-208.68099975585938 20.499000549316406,-203.25900268554688 C61.902000427246094,-197.83700561523438 90.21700286865234,-153.11300659179688 83.66999816894531,-103.375z"/></g></g><g style="display: block;" transform="matrix(1,0,0,1,0.0009918212890625,0)" opacity="1"><g opacity="1" transform="matrix(1,0,0,1,269.64898681640625,178.00999450683594)"><path fill="rgb(254,157,0)" fill-opacity="1" d=" M9.845000267028809,0.7110000252723694 C9.494000434875488,5.572000026702881 4.801000118255615,9.194999694824219 -0.6359999775886536,8.802000045776367 C-6.072999954223633,8.409000396728516 -10.196000099182129,4.150000095367432 -9.845000267028809,-0.7110000252723694 C-9.494000434875488,-5.572000026702881 -4.801000118255615,-9.194999694824219 0.6359999775886536,-8.802000045776367 C6.072999954223633,-8.409000396728516 10.196000099182129,-4.150000095367432 9.845000267028809,0.7110000252723694z"/></g><g opacity="1" transform="matrix(1,0,0,1,269.73199462890625,176.84800720214844)"><path fill="rgb(231,122,0)" fill-opacity="1" d=" M9.845000267028809,0.7110000252723694 C9.539999961853027,4.929999828338623 4.885000228881836,8.032999992370605 -0.5519999861717224,7.639999866485596 C-5.988999843597412,7.247000217437744 -10.149999618530273,3.507999897003174 -9.845000267028809,-0.7110000252723694 C-9.539999961853027,-4.929999828338623 -4.885000228881836,-8.032999992370605 0.5519999861717224,-7.639999866485596 C5.988999843597412,-7.247000217437744 10.149999618530273,-3.507999897003174 9.845000267028809,0.7110000252723694z"/></g><g opacity="1" transform="matrix(1,0,0,1,269.85699462890625,175.1199951171875)"><path fill="rgb(255,203,0)" fill-opacity="1" d=" M9.845000267028809,0.7110000252723694 C9.609000205993652,3.9760000705718994 5.010000228881836,6.303999900817871 -0.4269999861717224,5.910999774932861 C-5.863999843597412,5.51800012588501 -10.081000328063965,2.553999900817871 -9.845000267028809,-0.7110000252723694 C-9.609000205993652,-3.9760000705718994 -5.010000228881836,-6.303999900817871 0.4269999861717224,-5.910999774932861 C5.863999843597412,-5.51800012588501 10.081000328063965,-2.553999900817871 9.845000267028809,0.7110000252723694z"/></g><g opacity="1" transform="matrix(1,0,0,1,270.1000061035156,171.76800537109375)"><path fill="rgb(255,224,127)" fill-opacity="1" d=" M5.420000076293945,0.3919999897480011 C5.324999809265137,1.7029999494552612 2.822000026702881,2.5889999866485596 -0.17100000381469727,2.372999906539917 C-3.1640000343322754,2.1570000648498535 -5.514999866485596,0.9190000295639038 -5.420000076293945,-0.3919999897480011 C-5.324999809265137,-1.7029999494552612 -2.822000026702881,-2.5889999866485596 0.17100000381469727,-2.372999906539917 C3.1640000343322754,-2.1570000648498535 5.514999866485596,-0.9190000295639038 5.420000076293945,0.3919999897480011z"/></g></g><g style="display: block;" transform="matrix(1,0,0,1,0.001007080078125,0)" opacity="1"><g opacity="1" transform="matrix(1,0,0,1,232.47000122070312,143.83200073242188)"><path fill="rgb(255,246,206)" fill-opacity="1" d=" M22.17300033569336,8.972999572753906 C23.47599983215332,-0.699999988079071 14.38599967956543,-13.008000373840332 4.171999931335449,-14.916999816894531 C-4.918000221252441,-16.615999221801758 -19.341999053955078,-11.829000473022461 -22.29800033569336,-0.08500000089406967 C-16.209999084472656,13.973999977111816 8.873000144958496,21.302000045776367 22.17300033569336,8.972999572753906z"/></g><g opacity="1" transform="matrix(1,0,0,1,0,0)"><g opacity="1" transform="matrix(1,0,0,1,232.96400451660156,143.35699462890625)"><path fill="url(#__lottie_element_9524)" fill-opacity="1" d=" M-12.189000129699707,-1.5959999561309814 C-11.307000160217285,-8.32800006866455 -5.136000156402588,-13.071000099182129 1.5959999561309814,-12.189000129699707 C8.32800006866455,-11.307000160217285 13.071000099182129,-5.136000156402588 12.189000129699707,1.5959999561309814 C11.307000160217285,8.32800006866455 5.136000156402588,13.071000099182129 -1.5959999561309814,12.189000129699707 C-8.32800006866455,11.307000160217285 -13.071000099182129,5.136000156402588 -12.189000129699707,-1.5959999561309814z"/></g><g opacity="1" transform="matrix(1,0,0,1,232.96400451660156,143.35699462890625)"><path fill="rgb(15,9,1)" fill-opacity="1" d=" M-8.116999626159668,-1.062999963760376 C-7.53000020980835,-5.546000003814697 -3.4200000762939453,-8.704000473022461 1.062999963760376,-8.116999626159668 C5.546000003814697,-7.53000020980835 8.704000473022461,-3.4200000762939453 8.116999626159668,1.062999963760376 C7.53000020980835,5.546000003814697 3.4200000762939453,8.704000473022461 -1.062999963760376,8.116999626159668 C-5.546000003814697,7.53000020980835 -8.704000473022461,3.4200000762939453 -8.116999626159668,-1.062999963760376z"/></g><g opacity="1" transform="matrix(1,0,0,1,229.73899841308594,136.16200256347656)"><path fill="rgb(244,244,244)" fill-opacity="1" d=" M-2.799999952316284,-0.367000013589859 C-2.5980000495910645,-1.9129999876022339 -1.1790000200271606,-3.002000093460083 0.367000013589859,-2.799999952316284 C1.9129999876022339,-2.5980000495910645 3.002000093460083,-1.1790000200271606 2.799999952316284,0.367000013589859 C2.5980000495910645,1.9129999876022339 1.1790000200271606,3.002000093460083 -0.367000013589859,2.799999952316284 C-1.9129999876022339,2.5980000495910645 -3.002000093460083,1.1790000200271606 -2.799999952316284,-0.367000013589859z"/></g><g opacity="1" transform="matrix(1,0,0,1,238.45599365234375,150.42599487304688)"><path stroke-linecap="round" stroke-linejoin="round" fill-opacity="0" stroke="rgb(255,148,0)" stroke-opacity="1" stroke-width="3.068" d=" M3.5320000648498535,-2.744999885559082 C2.1679999828338623,0.0820000022649765 -0.45899999141693115,2.121999979019165 -3.5320000648498535,2.744999885559082"/></g></g><g opacity="1" transform="matrix(1,0,0,1,0,0)"><path fill="rgb(255,203,0)" fill-opacity="1" d=" M212.5,147.75 C213.75,177 239,187 254.5,153.25 C237,166 218.25,155.5 212.5,147.75z"/></g><g opacity="0" transform="matrix(1,0,0,1,0,0)"><path fill="rgb(255,203,0)" fill-opacity="1" d=" M212.9169158935547,145.02284240722656 C222.11691284179688,136.8108367919922 242.3334503173828,139.9689483642578 253.1284637451172,150.77194213867188 C250.0286102294922,130.3985595703125 219.919921875,137.50784301757812 212.9169158935547,145.02284240722656z"/></g><g opacity="1" transform="matrix(1,0,0,1,231.61300659179688,136.8719940185547)"><path fill="rgb(116,55,0)" fill-opacity="1" d=" M21.631999969482422,9.526000022888184 C19.7189998626709,-0.7720000147819519 11.472999572753906,-7.209000110626221 2.388000011444092,-7.88100004196167 C-4.831999778747559,-8.623000144958496 -16.816999435424805,-4.38100004196167 -20.113000869750977,7.370999813079834 C-20.37299919128418,8.109999656677246 -21.18199920654297,8.498000144958496 -21.92099952697754,8.23799991607666 C-22.677000045776367,7.973999977111816 -23.06399917602539,7.125999927520752 -22.770000457763672,6.38100004196167 C-18.996999740600586,-4.291999816894531 -8.032999992370605,-10.786999702453613 2.4609999656677246,-9.984000205993652 C15.21399974822998,-9.260000228881836 22.107999801635742,1.7710000276565552 22.86400032043457,9.357000350952148 C22.95599937438965,10.157999992370605 21.756999969482422,10.331000328063965 21.631999969482422,9.526000022888184z"/></g></g><g style="display: block;" transform="matrix(1,0,0,1,0,0)" opacity="1"><g opacity="1" transform="matrix(1,0,0,1,306.1549987792969,149.375)"><path fill="rgb(255,246,206)" fill-opacity="1" d=" M-20.006000518798828,3.4670000076293945 C-18.832000732421875,-5.741000175476074 -8.187000274658203,-14.920999526977539 0.9620000123977661,-14.265999794006348 C9.104000091552734,-13.682999610900879 20.256999969482422,-5.873000144958496 20.00200080871582,5.63100004196167 C11.49899959564209,17.1299991607666 -11.59000015258789,17.951000213623047 -20.006000518798828,3.4670000076293945z"/></g><g opacity="1" transform="matrix(1,0,0,1,0,0)"><g opacity="1" transform="matrix(1,0,0,1,303.4930114746094,149.03599548339844)"><path fill="url(#__lottie_element_9517)" fill-opacity="1" d=" M-10.937999725341797,1.4320000410079956 C-11.751999855041504,-4.785999774932861 -7.514999866485596,-10.468999862670898 -1.4739999771118164,-11.260000228881836 C4.566999912261963,-12.050999641418457 10.12399959564209,-7.650000095367432 10.937999725341797,-1.4320000410079956 C11.751999855041504,4.785999774932861 7.514999866485596,10.468999862670898 1.4739999771118164,11.260000228881836 C-4.566999912261963,12.050999641418457 -10.12399959564209,7.650000095367432 -10.937999725341797,1.4320000410079956z"/></g><g opacity="1" transform="matrix(1,0,0,1,303.4930114746094,149.03599548339844)"><path fill="rgb(15,9,1)" fill-opacity="1" d=" M-7.283999919891357,0.9539999961853027 C-7.826000213623047,-3.187000036239624 -5.005000114440918,-6.9710001945495605 -0.9819999933242798,-7.498000144958496 C3.0409998893737793,-8.024999618530273 6.742000102996826,-5.09499979019165 7.283999919891357,-0.9539999961853027 C7.826000213623047,3.187000036239624 5.005000114440918,6.9710001945495605 0.9819999933242798,7.498000144958496 C-3.0409998893737793,8.024999618530273 -6.742000102996826,5.09499979019165 -7.283999919891357,0.9539999961853027z"/></g><g opacity="1" transform="matrix(1,0,0,1,299.010986328125,143.36700439453125)"><path fill="rgb(244,244,244)" fill-opacity="1" d=" M-2.51200008392334,0.32899999618530273 C-2.6989998817443848,-1.0989999771118164 -1.7259999513626099,-2.4040000438690186 -0.33899998664855957,-2.5859999656677246 C1.0479999780654907,-2.7679998874664307 2.325000047683716,-1.7569999694824219 2.51200008392334,-0.32899999618530273 C2.6989998817443848,1.0989999771118164 1.7259999513626099,2.4040000438690186 0.33899998664855957,2.5859999656677246 C-1.0479999780654907,2.7679998874664307 -2.325000047683716,1.7569999694824219 -2.51200008392334,0.32899999618530273z"/></g><g opacity="1" transform="matrix(1,0,0,1,309.9100036621094,154.06100463867188)"><path stroke-linecap="round" stroke-linejoin="round" fill-opacity="0" stroke="rgb(255,148,0)" stroke-opacity="1" stroke-width="3.068" d=" M2.4179999828338623,-3.2799999713897705 C1.8990000486373901,-0.4350000023841858 0.0989999994635582,2.003000020980835 -2.4179999828338623,3.2799999713897705"/></g></g><g opacity="1" transform="matrix(1,0,0,1,0,0)"><path fill="rgb(255,203,0)" fill-opacity="1" d=" M286.5,153.75 C288.75,178.25 313.75,182.75 325,156.25 C319.5,164.75 296.75,168.25 286.5,153.75z"/></g><g opacity="0" transform="matrix(1,0,0,1,0,0)"><path fill="rgb(255,203,0)" fill-opacity="1" d=" M287.2449951171875,151.3179931640625 C297.760986328125,141.9459991455078 315.57501220703125,142.5 323.00299072265625,155.4929962158203 C321.1809997558594,143.82899475097656 296.7049865722656,141.23300170898438 287.2449951171875,151.3179931640625z"/></g><g opacity="1" transform="matrix(1,0,0,1,307.489013671875,145.01400756835938)"><path fill="rgb(116,55,0)" fill-opacity="1" d=" M-18.788999557495117,2.507999897003174 C-14.553000450134277,-6.579999923706055 -5.895999908447266,-10.619000434875488 2.015000104904175,-9.12399959564209 C8.354999542236328,-8.128999710083008 17.493000030517578,-1.409000039100647 17.326000213623047,10.23900032043457 C17.361000061035156,10.982999801635742 17.952999114990234,11.531000137329102 18.648000717163086,11.461999893188477 C19.358999252319336,11.392999649047852 19.902999877929688,10.699000358581543 19.840999603271484,9.940999984741211 C19.327999114990234,-0.8199999928474426 11.630999565124512,-9.38700008392334 2.4860000610351562,-11.088000297546387 C-8.564000129699707,-13.388999938964844 -17.231000900268555,-4.7829999923706055 -19.795000076293945,2.063999891281128 C-20.076000213623047,2.7850000858306885 -19.099000930786133,3.2239999771118164 -18.788999557495117,2.507999897003174z"/></g></g><g style="display: block;" transform="matrix(1,0,0,1,233.71900939941406,115.56300354003906)" opacity="1"><g opacity="1" transform="matrix(1,0,0,1,0,0)"><path fill="rgb(116,55,0)" fill-opacity="1" d=" M13.47599983215332,4.232999801635742 C5.073999881744385,-1.3200000524520874 -4.4079999923706055,-0.5270000100135803 -13.321999549865723,3.1549999713897705 C-13.541000366210938,3.2339999675750732 -13.788999557495117,3.114000082015991 -13.850000381469727,2.884999990463257 C-10.583000183105469,-1.3899999856948853 -4.760000228881836,-4.322000026702881 0.9129999876022339,-4.230999946594238 C10.776000022888184,-4.072000026702881 15.229999542236328,4.199999809265137 13.47599983215332,4.232999801635742z"/></g></g><g style="display: block;" transform="matrix(1,0,0,1,312.0329895019531,125.3070068359375)" opacity="1"><g opacity="1" transform="matrix(1,0,0,1,0,0)"><path fill="rgb(116,55,0)" fill-opacity="1" d=" M-12.067999839782715,0.38199999928474426 C-3.308000087738037,-3.122999906539917 4.840000152587891,-0.23600000143051147 11.777999877929688,5.323999881744385 C11.95199966430664,5.448999881744385 12.199999809265137,5.388999938964844 12.3100004196167,5.181000232696533 C10.48799991607666,0.30799999833106995 6.084000110626221,-3.8359999656677246 1.0700000524520874,-5.014999866485596 C-7.6479997634887695,-7.065000057220459 -13.604000091552734,-0.041999999433755875 -12.067999839782715,0.38199999928474426z"/></g></g><g style="display: block;" transform="matrix(1,0,0,1,0.001007080078125,0)" opacity="1"><g opacity="1" transform="matrix(1,0,0,1,265.5719909667969,201.06100463867188)"><path fill="rgb(146,44,0)" fill-opacity="1" d=" M23.024999618530273,-0.9100000262260437 C23.700000762939453,-1.8700000047683716 23.7810001373291,-3.319999933242798 22.5939998626709,-3.490999937057495 C14.163999557495117,-4.704999923706055 10.935999870300293,-6.651000022888184 6.960000038146973,-7.244999885559082 C5.9039998054504395,-7.4029998779296875 4.619999885559082,-7.230000019073486 3.0920000076293945,-6.383999824523926 C2.3489999771118164,-5.9730000495910645 1.409000039100647,-6.0279998779296875 0.7310000061988831,-6.539000034332275 C-0.8299999833106995,-7.715000152587891 -2.6989998817443848,-8.413000106811523 -4.001999855041504,-8.538999557495117 C-8.567999839782715,-8.980999946594238 -14.503000259399414,-7.584000110626221 -22.349000930786133,-8.371000289916992 C-23.55900001525879,-8.491999626159668 -23.81100082397461,-6.877999782562256 -23.177000045776367,-5.86899995803833 C-18.957000732421875,0.8479999899864197 -12.593999862670898,6.256999969482422 -0.10999999940395355,8.449000358581543 C6.034999847412109,9.527999877929688 18.43000030517578,5.620999813079834 23.024999618530273,-0.9100000262260437z"/></g><g opacity="1" transform="matrix(1,0,0,1,265.7040100097656,199.0780029296875)"><path fill="rgb(23,9,1)" fill-opacity="1" d=" M-19.58300018310547,-3.815999984741211 C-13.305999755859375,-1.0210000276565552 -6.136000156402588,-3.0490000247955322 -0.04500000178813934,0.1379999965429306 C0.6359999775886536,0.5600000023841858 1.4270000457763672,0.9240000247955322 2.2290000915527344,0.9340000152587891 C7.959000110626221,-1.2640000581741333 14.020999908447266,1.5759999752044678 19.58300018310547,0.2879999876022339 C19.41200065612793,2.671999931335449 11.277999877929688,2.6110000610351562 9.645999908447266,2.4649999141693115 C6.873000144958496,2.23799991607666 4.757999897003174,3.7060000896453857 2.1570000648498535,3.815999984741211 C-0.5839999914169312,3.8480000495910645 -2.5160000324249268,1.5729999542236328 -5.203000068664551,1.2829999923706055 C-8.994000434875488,0.5879999995231628 -18.847999572753906,-0.3580000102519989 -19.58300018310547,-3.815999984741211z"/></g></g><g style="display: block;" transform="matrix(1,0,0,1,0,0)" opacity="1"><g opacity="1" transform="matrix(1,0,0,1,260.9280090332031,132.4029998779297)"><path fill="rgb(255,157,0)" fill-opacity="1" d=" M-92.41600036621094,11.946999549865723 C-75.09300231933594,-78.34600067138672 -39.108001708984375,-85.41699981689453 -31.67099952697754,-85.19000244140625 C-9.371999740600586,-102.72699737548828 52.08300018310547,-93.99800109863281 79.14299774169922,-56.58700180053711 C104.82599639892578,-21.07900047302246 102.83499908447266,39.4010009765625 95.98600006103516,93.88400268554688 C105.8499984741211,57.20500183105469 83.59400177001953,10.406000137329102 76.73400115966797,8.673999786376953 C16.57699966430664,-8.409000396728516 -13.607000350952148,-38.27399826049805 -28.974000930786133,-56.31100082397461 C-34.345001220703125,-12.690999984741211 -71.14600372314453,14.149999618530273 -75.7229995727539,15.255000114440918 C-79.87100219726562,16.256999969482422 -98.3499984741211,62.95399856567383 -100.43900299072266,77.21800231933594 C-98.82499694824219,53.084999084472656 -95.75499725341797,29.351999282836914 -92.41600036621094,11.946999549865723z"/></g><g opacity="1" transform="matrix(1,0,0,1,298.7820129394531,134.96099853515625)"><path fill="rgb(255,203,0)" fill-opacity="1" d=" M58.459999084472656,88.6240005493164 C64.74299621582031,34.922000885009766 66.5479965209961,-24.224000930786133 41.28900146484375,-59.14500045776367 C14.414999961853027,-96.29900360107422 -52.84600067138672,-97.9520034790039 -61.47800064086914,-80.93000030517578 C-70.68499755859375,-62.77299880981445 -13.20300006866455,-17.672000885009766 50.808998107910156,-1.7289999723434448 C52.48099899291992,-1.312999963760376 52.768001556396484,0.9480000138282776 51.25699996948242,1.774999976158142 C46.14699935913086,4.571000099182129 42.08700180053711,5.580999851226807 39.63800048828125,5.5329999923706055 C52.547000885009766,13.70199966430664 66.13200378417969,61.58000183105469 58.13199996948242,91.32599639892578 C58.244998931884766,90.4260025024414 58.35499954223633,89.5260009765625 58.459999084472656,88.6240005493164z"/></g><g opacity="1" transform="matrix(1,0,0,1,197.61300659179688,97.34200286865234)"><path fill="rgb(255,203,0)" fill-opacity="1" d=" M-24.804000854492188,36.83000183105469 C-23.222000122070312,-8.67199993133545 6.697999954223633,-47.099998474121094 21.489999771118164,-38.33100128173828 C35.09600067138672,-30.264999389648438 4.77400016784668,36.316001892089844 -24.427000045776367,39.584999084472656 C-24.9060001373291,39.638999938964844 -24.868999481201172,38.702999114990234 -24.804000854492188,36.83000183105469z"/></g><g opacity="1" transform="matrix(1,0,0,1,284.3599853515625,67.47699737548828)"><path fill="rgb(255,223,120)" fill-opacity="1" d=" M42.08100128173828,12.336000442504883 C40.152000427246094,20.65399932861328 20.26799964904785,18.805999755859375 -3.013000011444092,13.406999588012695 C-26.29400062561035,8.008000373840332 -44.01599884033203,0.04699999839067459 -42.08700180053711,-8.270999908447266 C-40.15800094604492,-16.589000701904297 -19.445999145507812,-21.062000274658203 3.8350000381469727,-15.663000106811523 C27.115999221801758,-10.263999938964844 44.0099983215332,4.01800012588501 42.08100128173828,12.336000442504883z"/></g><g opacity="1" transform="matrix(1,0,0,1,212.16799926757812,75.02300262451172)"><path fill="rgb(255,223,120)" fill-opacity="1" d=" M5.664000034332275,-11.498000144958496 C2.3320000171661377,-15.717000007629395 -8.300999641418457,-9.008999824523926 -8.555999755859375,-3.5869998931884766 C-8.810999870300293,1.8209999799728394 -2.7669999599456787,0.8090000152587891 -0.3009999990463257,4.540999889373779 C1.25600004196167,6.896999835968018 -0.14900000393390656,12.060999870300293 2.0269999504089355,12.800999641418457 C4.203000068664551,13.541000366210938 13.072999954223633,-2.118000030517578 5.664000034332275,-11.498000144958496z"/></g><g opacity="1" transform="matrix(1,0,0,1,260.26800537109375,133.49899291992188)"><path stroke-linecap="round" stroke-linejoin="round" fill-opacity="0" stroke="rgb(209,94,0)" stroke-opacity="1" stroke-width="8" d=" M-91.75700378417969,10.85200023651123 C-74.43399810791016,-79.44100189208984 -38.44900131225586,-86.51300048828125 -31.011999130249023,-86.28600311279297 C-8.713000297546387,-103.822998046875 52.742000579833984,-95.09300231933594 79.802001953125,-57.68199920654297 C105.48500061035156,-22.173999786376953 100.63800048828125,40.49700164794922 93.78900146484375,94.9800033569336 C103.65299987792969,58.30099868774414 84.25299835205078,9.3100004196167 77.39299774169922,7.578000068664551 C17.236000061035156,-9.505000114440918 -12.947999954223633,-39.369998931884766 -28.315000534057617,-57.40700149536133 C-33.68600082397461,-13.786999702453613 -69.21399688720703,12.418000221252441 -73.79100036621094,13.52299976348877 C-77.93900299072266,14.524999618530273 -97.15799713134766,64.16999816894531 -99.24700164794922,78.43399810791016 C-97.63300323486328,54.30099868774414 -95.09600067138672,28.256999969482422 -91.75700378417969,10.85200023651123z"/></g></g></g></svg>