<svg xmlns="http://www.w3.org/2000/svg" xmlns:xlink="http://www.w3.org/1999/xlink" viewBox="0 0 512 512" width="512" height="512" style="width: 100%; height: 100%; transform: translate3d(0,0,0);" preserveAspectRatio="xMidYMid meet"><defs><clipPath id="__lottie_element_4813"><rect width="512" height="512" x="0" y="0"/></clipPath><linearGradient id="__lottie_element_4819" spreadMethod="pad" gradientUnits="userSpaceOnUse" x1="-1" y1="147" x2="-1" y2="-169.6510009765625"><stop offset="0%" stop-color="rgb(30,149,0)" stop-opacity="0.5"/><stop offset="25%" stop-color="rgb(30,171,0)" stop-opacity="0.3499999940395355"/><stop offset="50%" stop-color="rgb(30,193,0)" stop-opacity="0.20000000298023224"/><stop offset="75%" stop-color="rgb(24,211,0)" stop-opacity="0.3499999940395355"/><stop offset="100%" stop-color="rgb(18,230,0)" stop-opacity="0.5"/></linearGradient><linearGradient id="__lottie_element_4822" spreadMethod="pad" gradientUnits="userSpaceOnUse" x1="-1" y1="-196" x2="-1" y2="185.88699340820312"><stop offset="0%" stop-color="rgb(191,255,207)" stop-opacity="1"/><stop offset="10%" stop-color="rgb(96,236,104)" stop-opacity="0.75"/><stop offset="20%" stop-color="rgb(0,216,0)" stop-opacity="0.5"/><stop offset="35%" stop-color="rgb(15,210,0)" stop-opacity="0.5"/><stop offset="50%" stop-color="rgb(29,205,0)" stop-opacity="0.5"/><stop offset="75%" stop-color="rgb(30,178,0)" stop-opacity="0.5"/><stop offset="100%" stop-color="rgb(30,151,0)" stop-opacity="0.5"/></linearGradient><linearGradient id="__lottie_element_4825" spreadMethod="pad" gradientUnits="userSpaceOnUse" x1="-2.368000030517578" y1="147.97300720214844" x2="-1.8049999475479126" y2="-130.21600341796875"><stop offset="0%" stop-color="rgb(255,255,255)"/><stop offset="50%" stop-color="rgb(255,255,255)"/><stop offset="100%" stop-color="rgb(255,255,255)"/></linearGradient></defs><g clip-path="url(#__lottie_element_4813)"><g style="display: block;" transform="matrix(1,0,0,1,256,256)" opacity="1"><g opacity="1" transform="matrix(1,0,0,1,0,0)"><g opacity="1" transform="matrix(1,0,0,1,0,0)"><path fill="rgb(0,131,21)" fill-opacity="1" d=" M126.84200286865234,214.51699829101562 C126.84200286865234,214.51699829101562 -126.84200286865234,214.51699829101562 -126.84200286865234,214.51699829101562 C-175.26400756835938,214.51699829101562 -214.51699829101562,175.26400756835938 -214.51699829101562,126.84200286865234 C-214.51699829101562,126.84200286865234 -214.51699829101562,-126.84200286865234 -214.51699829101562,-126.84200286865234 C-214.51699829101562,-175.26400756835938 -175.26400756835938,-214.51699829101562 -126.84200286865234,-214.51699829101562 C-126.84200286865234,-214.51699829101562 126.84200286865234,-214.51699829101562 126.84200286865234,-214.51699829101562 C175.26400756835938,-214.51699829101562 214.51699829101562,-175.26400756835938 214.51699829101562,-126.84200286865234 C214.51699829101562,-126.84200286865234 214.51699829101562,126.84200286865234 214.51699829101562,126.84200286865234 C214.51699829101562,175.26400756835938 175.26400756835938,214.51699829101562 126.84200286865234,214.51699829101562z"/></g><g opacity="1" transform="matrix(1,0,0,1,0,0)"><path fill="url(#__lottie_element_4819)" fill-opacity="1" d=" M123.16000366210938,205.8470001220703 C123.16000366210938,205.8470001220703 -123.16000366210938,205.8470001220703 -123.16000366210938,205.8470001220703 C-168.82699584960938,205.8470001220703 -205.8470001220703,168.82699584960938 -205.8470001220703,123.16000366210938 C-205.8470001220703,123.16000366210938 -205.8470001220703,-123.16000366210938 -205.8470001220703,-123.16000366210938 C-205.8470001220703,-168.82699584960938 -168.82699584960938,-205.8470001220703 -123.16000366210938,-205.8470001220703 C-123.16000366210938,-205.8470001220703 123.16000366210938,-205.8470001220703 123.16000366210938,-205.8470001220703 C168.82699584960938,-205.8470001220703 205.8470001220703,-168.82699584960938 205.8470001220703,-123.16000366210938 C205.8470001220703,-123.16000366210938 205.8470001220703,123.16000366210938 205.8470001220703,123.16000366210938 C205.8470001220703,168.82699584960938 168.82699584960938,205.8470001220703 123.16000366210938,205.8470001220703z"/></g></g></g><g style="display: block;" transform="matrix(1,0,0,1,256,256)" opacity="1"><g opacity="1" transform="matrix(1,0,0,1,0,0)"><g opacity="1" transform="matrix(1,0,0,1,0,0)"><path fill="url(#__lottie_element_4822)" fill-opacity="1" d=" M121.06500244140625,195.2209930419922 C121.06500244140625,195.2209930419922 -121.06500244140625,195.2209930419922 -121.06500244140625,195.2209930419922 C-162.02099609375,195.2209930419922 -195.2209930419922,162.02099609375 -195.2209930419922,121.06500244140625 C-195.2209930419922,121.06500244140625 -195.2209930419922,-121.06500244140625 -195.2209930419922,-121.06500244140625 C-195.2209930419922,-162.02099609375 -162.02099609375,-195.2209930419922 -121.06500244140625,-195.2209930419922 C-121.06500244140625,-195.2209930419922 121.06500244140625,-195.2209930419922 121.06500244140625,-195.2209930419922 C162.02099609375,-195.2209930419922 195.2209930419922,-162.02099609375 195.2209930419922,-121.06500244140625 C195.2209930419922,-121.06500244140625 195.2209930419922,121.06500244140625 195.2209930419922,121.06500244140625 C195.2209930419922,162.02099609375 162.02099609375,195.2209930419922 121.06500244140625,195.2209930419922z"/></g></g></g><g style="display: block;" transform="matrix(1,0,0,1,256,256)" opacity="1"><g opacity="1" transform="matrix(1,0,0,1,0,0)"><path fill="rgb(0,131,21)" fill-opacity="1" d=" M-144.04600524902344,-20.28700065612793 C-144.04600524902344,-20.28700065612793 -37.05400085449219,140.4600067138672 -37.05400085449219,140.4600067138672 C-35.01100158691406,143.52999877929688 -30.466999053955078,143.4239959716797 -28.569000244140625,140.26300048828125 C-28.569000244140625,140.26300048828125 138.11099243164062,-137.36000061035156 138.11099243164062,-137.36000061035156 C139.1999969482422,-139.1739959716797 137.89300537109375,-141.48300170898438 135.77699279785156,-141.48300170898438 C135.77699279785156,-141.48300170898438 86.35399627685547,-141.48300170898438 86.35399627685547,-141.48300170898438 C84.41000366210938,-141.48300170898438 82.61599731445312,-140.43600463867188 81.65899658203125,-138.7429962158203 C81.65899658203125,-138.7429962158203 -28.70400047302246,56.513999938964844 -28.70400047302246,56.513999938964844 C-30.014999389648438,58.83399963378906 -33.30699920654297,58.96900177001953 -34.80400085449219,56.76499938964844 C-34.80400085449219,56.76499938964844 -88.43000030517578,-22.155000686645508 -88.43000030517578,-22.155000686645508 C-89.43399810791016,-23.632999420166016 -91.10399627685547,-24.517000198364258 -92.88999938964844,-24.517000198364258 C-92.88999938964844,-24.517000198364258 -141.77999877929688,-24.517000198364258 -141.77999877929688,-24.517000198364258 C-143.9530029296875,-24.517000198364258 -145.25,-22.09600067138672 -144.04600524902344,-20.28700065612793z"/></g><g opacity="1" transform="matrix(1,0,0,1,0,0)"><path fill="url(#__lottie_element_4825)" fill-opacity="1" d=" M-144.04600524902344,-15.734999656677246 C-144.04600524902344,-15.734999656677246 -37.05400085449219,145.01199340820312 -37.05400085449219,145.01199340820312 C-35.01100158691406,148.08200073242188 -30.466999053955078,147.97500610351562 -28.569000244140625,144.81399536132812 C-28.569000244140625,144.81399536132812 138.11099243164062,-132.80799865722656 138.11099243164062,-132.80799865722656 C139.1999969482422,-134.6219940185547 137.89300537109375,-136.93099975585938 135.77699279785156,-136.93099975585938 C135.77699279785156,-136.93099975585938 86.35399627685547,-136.93099975585938 86.35399627685547,-136.93099975585938 C84.41000366210938,-136.93099975585938 82.61599731445312,-135.88499450683594 81.65899658203125,-134.19200134277344 C81.65899658203125,-134.19200134277344 -28.70400047302246,61.066001892089844 -28.70400047302246,61.066001892089844 C-30.014999389648438,63.38600158691406 -33.30699920654297,63.520999908447266 -34.80400085449219,61.31700134277344 C-34.80400085449219,61.31700134277344 -88.43000030517578,-17.60300064086914 -88.43000030517578,-17.60300064086914 C-89.43399810791016,-19.08099937438965 -91.10399627685547,-19.965999603271484 -92.88999938964844,-19.965999603271484 C-92.88999938964844,-19.965999603271484 -141.77999877929688,-19.965999603271484 -141.77999877929688,-19.965999603271484 C-143.9530029296875,-19.965999603271484 -145.25,-17.54400062561035 -144.04600524902344,-15.734999656677246z"/></g><g opacity="1" transform="matrix(1,0,0,1,0,0)"><path stroke-linecap="butt" stroke-linejoin="miter" fill-opacity="0" stroke-miterlimit="4" stroke="rgb(255,255,255)" stroke-opacity="0.1" stroke-width="0" d=" M-144.04600524902344,-15.734999656677246 C-144.04600524902344,-15.734999656677246 -37.05400085449219,145.01199340820312 -37.05400085449219,145.01199340820312 C-35.01100158691406,148.08200073242188 -30.466999053955078,147.97500610351562 -28.569000244140625,144.81399536132812 C-28.569000244140625,144.81399536132812 138.11099243164062,-132.80799865722656 138.11099243164062,-132.80799865722656 C139.1999969482422,-134.6219940185547 137.89300537109375,-136.93099975585938 135.77699279785156,-136.93099975585938 C135.77699279785156,-136.93099975585938 86.35399627685547,-136.93099975585938 86.35399627685547,-136.93099975585938 C84.41000366210938,-136.93099975585938 82.61599731445312,-135.88499450683594 81.65899658203125,-134.19200134277344 C81.65899658203125,-134.19200134277344 -28.70400047302246,61.066001892089844 -28.70400047302246,61.066001892089844 C-30.014999389648438,63.38600158691406 -33.30699920654297,63.520999908447266 -34.80400085449219,61.31700134277344 C-34.80400085449219,61.31700134277344 -88.43000030517578,-17.60300064086914 -88.43000030517578,-17.60300064086914 C-89.43399810791016,-19.08099937438965 -91.10399627685547,-19.965999603271484 -92.88999938964844,-19.965999603271484 C-92.88999938964844,-19.965999603271484 -141.77999877929688,-19.965999603271484 -141.77999877929688,-19.965999603271484 C-143.9530029296875,-19.965999603271484 -145.25,-17.54400062561035 -144.04600524902344,-15.734999656677246z"/><path stroke-linecap="butt" stroke-linejoin="miter" fill-opacity="0" stroke-miterlimit="4" stroke="rgb(255,255,255)" stroke-opacity="0.1" stroke-width="0" d=" M-144.04600524902344,-15.734999656677246 C-144.04600524902344,-15.734999656677246 -37.05400085449219,145.01199340820312 -37.05400085449219,145.01199340820312 C-35.01100158691406,148.08200073242188 -30.466999053955078,147.97500610351562 -28.569000244140625,144.81399536132812 C-28.569000244140625,144.81399536132812 138.11099243164062,-132.80799865722656 138.11099243164062,-132.80799865722656 C139.1999969482422,-134.6219940185547 137.89300537109375,-136.93099975585938 135.77699279785156,-136.93099975585938 C135.77699279785156,-136.93099975585938 86.35399627685547,-136.93099975585938 86.35399627685547,-136.93099975585938 C84.41000366210938,-136.93099975585938 82.61599731445312,-135.88499450683594 81.65899658203125,-134.19200134277344 C81.65899658203125,-134.19200134277344 -28.70400047302246,61.066001892089844 -28.70400047302246,61.066001892089844 C-30.014999389648438,63.38600158691406 -33.30699920654297,63.520999908447266 -34.80400085449219,61.31700134277344 C-34.80400085449219,61.31700134277344 -88.43000030517578,-17.60300064086914 -88.43000030517578,-17.60300064086914 C-89.43399810791016,-19.08099937438965 -91.10399627685547,-19.965999603271484 -92.88999938964844,-19.965999603271484 C-92.88999938964844,-19.965999603271484 -141.77999877929688,-19.965999603271484 -141.77999877929688,-19.965999603271484 C-143.9530029296875,-19.965999603271484 -145.25,-17.54400062561035 -144.04600524902344,-15.734999656677246z"/><path stroke-linecap="butt" stroke-linejoin="miter" fill-opacity="0" stroke-miterlimit="4" stroke="rgb(255,255,255)" stroke-opacity="0.1" stroke-width="0" d=" M-144.04600524902344,-15.734999656677246 C-144.04600524902344,-15.734999656677246 -37.05400085449219,145.01199340820312 -37.05400085449219,145.01199340820312 C-35.01100158691406,148.08200073242188 -30.466999053955078,147.97500610351562 -28.569000244140625,144.81399536132812 C-28.569000244140625,144.81399536132812 138.11099243164062,-132.80799865722656 138.11099243164062,-132.80799865722656 C139.1999969482422,-134.6219940185547 137.89300537109375,-136.93099975585938 135.77699279785156,-136.93099975585938 C135.77699279785156,-136.93099975585938 86.35399627685547,-136.93099975585938 86.35399627685547,-136.93099975585938 C84.41000366210938,-136.93099975585938 82.61599731445312,-135.88499450683594 81.65899658203125,-134.19200134277344 C81.65899658203125,-134.19200134277344 -28.70400047302246,61.066001892089844 -28.70400047302246,61.066001892089844 C-30.014999389648438,63.38600158691406 -33.30699920654297,63.520999908447266 -34.80400085449219,61.31700134277344 C-34.80400085449219,61.31700134277344 -88.43000030517578,-17.60300064086914 -88.43000030517578,-17.60300064086914 C-89.43399810791016,-19.08099937438965 -91.10399627685547,-19.965999603271484 -92.88999938964844,-19.965999603271484 C-92.88999938964844,-19.965999603271484 -141.77999877929688,-19.965999603271484 -141.77999877929688,-19.965999603271484 C-143.9530029296875,-19.965999603271484 -145.25,-17.54400062561035 -144.04600524902344,-15.734999656677246z"/><path stroke-linecap="butt" stroke-linejoin="miter" fill-opacity="0" stroke-miterlimit="4" stroke="rgb(255,255,255)" stroke-opacity="0.1" stroke-width="0" d=" M-144.04600524902344,-15.734999656677246 C-144.04600524902344,-15.734999656677246 -37.05400085449219,145.01199340820312 -37.05400085449219,145.01199340820312 C-35.01100158691406,148.08200073242188 -30.466999053955078,147.97500610351562 -28.569000244140625,144.81399536132812 C-28.569000244140625,144.81399536132812 138.11099243164062,-132.80799865722656 138.11099243164062,-132.80799865722656 C139.1999969482422,-134.6219940185547 137.89300537109375,-136.93099975585938 135.77699279785156,-136.93099975585938 C135.77699279785156,-136.93099975585938 86.35399627685547,-136.93099975585938 86.35399627685547,-136.93099975585938 C84.41000366210938,-136.93099975585938 82.61599731445312,-135.88499450683594 81.65899658203125,-134.19200134277344 C81.65899658203125,-134.19200134277344 -28.70400047302246,61.066001892089844 -28.70400047302246,61.066001892089844 C-30.014999389648438,63.38600158691406 -33.30699920654297,63.520999908447266 -34.80400085449219,61.31700134277344 C-34.80400085449219,61.31700134277344 -88.43000030517578,-17.60300064086914 -88.43000030517578,-17.60300064086914 C-89.43399810791016,-19.08099937438965 -91.10399627685547,-19.965999603271484 -92.88999938964844,-19.965999603271484 C-92.88999938964844,-19.965999603271484 -141.77999877929688,-19.965999603271484 -141.77999877929688,-19.965999603271484 C-143.9530029296875,-19.965999603271484 -145.25,-17.54400062561035 -144.04600524902344,-15.734999656677246z"/><path stroke-linecap="butt" stroke-linejoin="miter" fill-opacity="0" stroke-miterlimit="4" stroke="rgb(255,255,255)" stroke-opacity="0.1" stroke-width="0" d=" M-144.04600524902344,-15.734999656677246 C-144.04600524902344,-15.734999656677246 -37.05400085449219,145.01199340820312 -37.05400085449219,145.01199340820312 C-35.01100158691406,148.08200073242188 -30.466999053955078,147.97500610351562 -28.569000244140625,144.81399536132812 C-28.569000244140625,144.81399536132812 138.11099243164062,-132.80799865722656 138.11099243164062,-132.80799865722656 C139.1999969482422,-134.6219940185547 137.89300537109375,-136.93099975585938 135.77699279785156,-136.93099975585938 C135.77699279785156,-136.93099975585938 86.35399627685547,-136.93099975585938 86.35399627685547,-136.93099975585938 C84.41000366210938,-136.93099975585938 82.61599731445312,-135.88499450683594 81.65899658203125,-134.19200134277344 C81.65899658203125,-134.19200134277344 -28.70400047302246,61.066001892089844 -28.70400047302246,61.066001892089844 C-30.014999389648438,63.38600158691406 -33.30699920654297,63.520999908447266 -34.80400085449219,61.31700134277344 C-34.80400085449219,61.31700134277344 -88.43000030517578,-17.60300064086914 -88.43000030517578,-17.60300064086914 C-89.43399810791016,-19.08099937438965 -91.10399627685547,-19.965999603271484 -92.88999938964844,-19.965999603271484 C-92.88999938964844,-19.965999603271484 -141.77999877929688,-19.965999603271484 -141.77999877929688,-19.965999603271484 C-143.9530029296875,-19.965999603271484 -145.25,-17.54400062561035 -144.04600524902344,-15.734999656677246z"/><path stroke-linecap="butt" stroke-linejoin="miter" fill-opacity="0" stroke-miterlimit="4" stroke="rgb(255,255,255)" stroke-opacity="0.1" stroke-width="0" d=" M-144.04600524902344,-15.734999656677246 C-144.04600524902344,-15.734999656677246 -37.05400085449219,145.01199340820312 -37.05400085449219,145.01199340820312 C-35.01100158691406,148.08200073242188 -30.466999053955078,147.97500610351562 -28.569000244140625,144.81399536132812 C-28.569000244140625,144.81399536132812 138.11099243164062,-132.80799865722656 138.11099243164062,-132.80799865722656 C139.1999969482422,-134.6219940185547 137.89300537109375,-136.93099975585938 135.77699279785156,-136.93099975585938 C135.77699279785156,-136.93099975585938 86.35399627685547,-136.93099975585938 86.35399627685547,-136.93099975585938 C84.41000366210938,-136.93099975585938 82.61599731445312,-135.88499450683594 81.65899658203125,-134.19200134277344 C81.65899658203125,-134.19200134277344 -28.70400047302246,61.066001892089844 -28.70400047302246,61.066001892089844 C-30.014999389648438,63.38600158691406 -33.30699920654297,63.520999908447266 -34.80400085449219,61.31700134277344 C-34.80400085449219,61.31700134277344 -88.43000030517578,-17.60300064086914 -88.43000030517578,-17.60300064086914 C-89.43399810791016,-19.08099937438965 -91.10399627685547,-19.965999603271484 -92.88999938964844,-19.965999603271484 C-92.88999938964844,-19.965999603271484 -141.77999877929688,-19.965999603271484 -141.77999877929688,-19.965999603271484 C-143.9530029296875,-19.965999603271484 -145.25,-17.54400062561035 -144.04600524902344,-15.734999656677246z"/></g></g></g></svg>