<svg xmlns="http://www.w3.org/2000/svg" xmlns:xlink="http://www.w3.org/1999/xlink" viewBox="0 0 512 512" width="512" height="512" style="width: 100%; height: 100%; transform: translate3d(0,0,0);" preserveAspectRatio="xMidYMid meet"><defs><clipPath id="__lottie_element_21198"><rect width="512" height="512" x="0" y="0"/></clipPath><linearGradient id="__lottie_element_21245" spreadMethod="pad" gradientUnits="userSpaceOnUse" x1="36.39899826049805" y1="231.50399780273438" x2="79.86799621582031" y2="3.5840001106262207"><stop offset="0%" stop-color="rgb(64,64,64)"/><stop offset="50%" stop-color="rgb(104,104,104)"/><stop offset="100%" stop-color="rgb(143,143,143)"/></linearGradient><linearGradient id="__lottie_element_21246" spreadMethod="pad" gradientUnits="userSpaceOnUse" x1="15.548999786376953" y1="-129.42300415039062" x2="16.163999557495117" y2="2.7669999599456787"><stop offset="0%" stop-color="rgb(64,64,64)" stop-opacity="0.5830000042915344"/><stop offset="50%" stop-color="rgb(64,64,64)" stop-opacity="0.3919999897480011"/><stop offset="100%" stop-color="rgb(64,64,64)" stop-opacity="0.20000000298023224"/></linearGradient><linearGradient id="__lottie_element_21247" spreadMethod="pad" gradientUnits="userSpaceOnUse" x1="-23.868999481201172" y1="37.79999923706055" x2="66.81999969482422" y2="52.90800094604492"><stop offset="0%" stop-color="rgb(64,64,64)" stop-opacity="0.5830000042915344"/><stop offset="50%" stop-color="rgb(64,64,64)" stop-opacity="0.3919999897480011"/><stop offset="100%" stop-color="rgb(64,64,64)" stop-opacity="0.20000000298023224"/></linearGradient></defs><g clip-path="url(#__lottie_element_21198)"><g style="display: block;" transform="matrix(1,0,0,1,-43,-1)" opacity="1"><g opacity="1" transform="matrix(1,0,0,1,375.45098876953125,164.57699584960938)"><path fill="url(#__lottie_element_21245)" fill-opacity="1" d=" M-65.97599792480469,-99.06900024414062 C-64.96199798583984,-104.72000122070312 -62.391998291015625,-111.03800201416016 -60.560001373291016,-116.53700256347656 C-23.47800064086914,-106.69300079345703 13.348999977111816,-86.03299713134766 39.590999603271484,-45.959999084472656 C64.70899963378906,-7.6020002365112305 69.9229965209961,36.72700119018555 63.428001403808594,76.41600036621094 C59.07899856567383,102.99199676513672 38.94599914550781,121.85299682617188 1.2489999532699585,115.19000244140625 C-13.593999862670898,112.56700134277344 1.7630000114440918,43.57699966430664 0.5640000104904175,24.045000076293945 C-0.753000020980835,2.5810000896453857 -65.81900024414062,-62.98899841308594 -65.97599792480469,-99.06900024414062z"/></g><g opacity="1" transform="matrix(1,0,0,1,439.44000244140625,194.38600158691406)"><path fill="rgb(63,63,63)" fill-opacity="1" d=" M2.4189999103546143,-33.92499923706055 C6.644000053405762,-33.90599822998047 7.484000205993652,-32.733001708984375 7.298999786376953,-28.481000900268555 C6.925000190734863,-19.875999450683594 5.942999839782715,-1.1959999799728394 5.942999839782715,-1.1959999799728394 C5.942999839782715,-1.1959999799728394 10.91100025177002,16.514999389648438 13.133999824523926,24.275999069213867 C14.20199966430664,28.007999420166016 12.621000289916992,29.80500030517578 9.982999801635742,30.45599937438965 C7.629000186920166,31.035999298095703 7.085000038146973,31.204999923706055 5.708000183105469,31.499000549316406 C4.435999870300293,31.770000457763672 1.5529999732971191,32.39799880981445 1.1660000085830688,32.4900016784668 C4.060999870300293,7.488999843597412 -0.3149999976158142,-19.26099967956543 -5.002999782562256,-33.72100067138672 C-4.626999855041504,-33.72999954223633 -0.6269999742507935,-33.887001037597656 0.8050000071525574,-33.926998138427734 C1.3819999694824219,-33.94300079345703 1.9249999523162842,-33.926998138427734 2.4189999103546143,-33.92499923706055z"/></g><g opacity="1" transform="matrix(1,0,0,1,375.45098876953125,164.57699584960938)"><path fill="url(#__lottie_element_21246)" fill-opacity="1" d=" M-65.97599792480469,-99.06900024414062 C-64.96199798583984,-104.72000122070312 -62.391998291015625,-111.03800201416016 -60.560001373291016,-116.53700256347656 C-23.47800064086914,-106.69300079345703 13.348999977111816,-86.03299713134766 39.590999603271484,-45.959999084472656 C64.70899963378906,-7.6020002365112305 69.9229965209961,36.72700119018555 63.428001403808594,76.41600036621094 C59.07899856567383,102.99199676513672 38.94599914550781,121.85299682617188 1.2489999532699585,115.19000244140625 C-13.593999862670898,112.56700134277344 1.7630000114440918,43.57699966430664 0.5640000104904175,24.045000076293945 C-0.753000020980835,2.5810000896453857 -65.81900024414062,-62.98899841308594 -65.97599792480469,-99.06900024414062z"/></g><g opacity="1" transform="matrix(1,0,0,1,375.3699951171875,169.3000030517578)"><path fill="url(#__lottie_element_21247)" fill-opacity="1" d=" M-64.72899627685547,-111.33599853515625 C-29.216999053955078,-99.0510025024414 3.4709999561309814,-74.63099670410156 18.488000869750977,-23.746000289916992 C29.707000732421875,14.270000457763672 28.37700080871582,55.266998291015625 21.21299934387207,82.08399963378906 C16.006000518798828,101.57499694824219 55.005001068115234,91.82499694824219 60.66699981689453,82.62000274658203 C58.630001068115234,88.57499694824219 53.75600051879883,97.44999694824219 44.05699920654297,104.01699829101562 C34.54600143432617,110.45700073242188 16.430999755859375,112.86299896240234 4.788000106811523,110.21399688720703 C4.636000156402588,94.70500183105469 20.079999923706055,33.18199920654297 12.378000259399414,-4.283999919891357 C0.9520000219345093,-59.856998443603516 -31.145000457763672,-92.28600311279297 -64.72899627685547,-111.33599853515625z"/></g><g opacity="1" transform="matrix(1,0,0,1,411.79998779296875,246.6580047607422)"><path stroke-linecap="round" stroke-linejoin="round" fill-opacity="0" stroke="rgb(76,76,76)" stroke-opacity="1" stroke-width="6" d=" M-24.753000259399414,0.1120000034570694 C-24.753000259399414,0.1120000034570694 24.753000259399414,-0.1120000034570694 24.753000259399414,-0.1120000034570694 C24.753000259399414,-0.1120000034570694 24.415000915527344,-0.061000000685453415 24.415000915527344,-0.061000000685453415"/></g><g opacity="1" transform="matrix(1,0,0,1,375.45098876953125,164.57699584960938)"><path stroke-linecap="round" stroke-linejoin="round" fill-opacity="0" stroke="rgb(76,76,76)" stroke-opacity="1" stroke-width="8" d=" M-65.97599792480469,-99.06900024414062 C-64.96199798583984,-104.72000122070312 -62.391998291015625,-111.03800201416016 -60.560001373291016,-116.53700256347656 C-23.47800064086914,-106.69300079345703 13.348999977111816,-86.03299713134766 39.590999603271484,-45.959999084472656 C64.70899963378906,-7.6020002365112305 69.9229965209961,36.72700119018555 63.428001403808594,76.41600036621094 C59.07899856567383,102.99199676513672 38.94599914550781,121.85299682617188 1.2489999532699585,115.19000244140625 C-13.593999862670898,112.56700134277344 1.7630000114440918,43.57699966430664 0.5640000104904175,24.045000076293945 C-0.753000020980835,2.5810000896453857 -65.81900024414062,-62.98899841308594 -65.97599792480469,-99.06900024414062z"/></g><g opacity="0.8" transform="matrix(1,0,0,1,375.45098876953125,164.57699584960938)"><path stroke-linecap="round" stroke-linejoin="round" fill-opacity="0" stroke="rgb(127,127,127)" stroke-opacity="1" stroke-width="9" d=" M-60.56800079345703,-116.51399993896484 C-60.564998626708984,-116.52200317382812 -60.5629997253418,-116.52899932861328 -60.560001373291016,-116.53700256347656 C-23.892000198364258,-106.8030014038086 12.526000022888184,-86.49299621582031 38.70800018310547,-47.29600143432617"/></g><g opacity="0" transform="matrix(1,0,0,1,439.44000244140625,194.38600158691406)"><path fill="rgb(63,63,63)" fill-opacity="1" d=" M2.4189999103546143,-33.92499923706055 C6.644000053405762,-33.90599822998047 7.484000205993652,-32.733001708984375 7.298999786376953,-28.481000900268555 C6.925000190734863,-19.875999450683594 5.942999839782715,-1.1959999799728394 5.942999839782715,-1.1959999799728394 C5.942999839782715,-1.1959999799728394 10.91100025177002,16.514999389648438 13.133999824523926,24.275999069213867 C14.20199966430664,28.007999420166016 12.621000289916992,29.80500030517578 9.982999801635742,30.45599937438965 C7.629000186920166,31.035999298095703 7.085000038146973,31.204999923706055 5.708000183105469,31.499000549316406 C4.435999870300293,31.770000457763672 1.5529999732971191,32.39799880981445 1.1660000085830688,32.4900016784668 C4.060999870300293,7.488999843597412 -0.3149999976158142,-19.26099967956543 -5.002999782562256,-33.72100067138672 C-4.626999855041504,-33.72999954223633 -0.6269999742507935,-33.887001037597656 0.8050000071525574,-33.926998138427734 C1.3819999694824219,-33.94300079345703 1.9249999523162842,-33.926998138427734 2.4189999103546143,-33.92499923706055z"/></g><g opacity="1" transform="matrix(1,0,0,1,423.2720031738281,130.20199584960938)"><path fill="rgb(76,76,76)" fill-opacity="1" d=" M2.009000062942505,-8.920999526977539 C2.009000062942505,-8.920999526977539 -0.7089999914169312,-7.701000213623047 -0.7089999914169312,-7.701000213623047 C-4.458000183105469,-5.939000129699707 -3.236999988555908,-2.7060000896453857 -1.4739999771118164,1.0420000553131104 C0.2879999876022339,4.790999889373779 1.9479999542236328,7.623000144958496 5.697000026702881,5.861000061035156 C5.697000026702881,5.861000061035156 8.416000366210938,4.642000198364258 8.416000366210938,4.642000198364258 C12.163999557495117,2.878999948501587 11.59000015258789,0.05299999937415123 9.437000274658203,-4.603000164031982 C7.284999847412109,-9.258999824523926 4.934999942779541,-10.364999771118164 2.009000062942505,-8.920999526977539z"/></g><g opacity="0" transform="matrix(1,0,0,1,427.447998046875,277.35400390625)"><path fill="rgb(76,76,76)" fill-opacity="1" d=" M0.6880000233650208,-2.927000045776367 C4.303999900817871,-3.9809999465942383 3.5420000553131104,-2.437999963760376 3.3269999027252197,-1.315999984741211 C3.38100004196167,-0.5479999780654907 1.187000036239624,0.8360000252723694 -0.9589999914169312,1.718999981880188 C-3.4149999618530273,2.7290000915527344 -5.702000141143799,2.928999900817871 -5.702000141143799,1.0829999446868896 C-5.702000141143799,-0.7630000114440918 -2.065999984741211,-2.125 0.6880000233650208,-2.927000045776367z"/></g></g><g style="display: block;" transform="matrix(1,0,0,1,-43,-1)" opacity="1"><g opacity="1" transform="matrix(1,0,0,1,266.4330139160156,258.114013671875)"><path fill="rgb(252,206,44)" fill-opacity="1" d=" M-67.60600280761719,85.40399932861328 C-77.53099822998047,33.9739990234375 -141.25900268554688,-8.831999778747559 -118.94300079345703,-104.68000030517578 C-106.85600280761719,-156.5959930419922 -56.38600158691406,-206.01499938964844 10.112000465393066,-203.406005859375 C66.14900207519531,-201.20700073242188 125.56500244140625,-149.1699981689453 123.60299682617188,-57.85300064086914 C121.49700164794922,40.21500015258789 59.6349983215332,224.5240020751953 -36.15299987792969,201.5399932861328 C-97.75499725341797,186.75799560546875 -59.55799865722656,127.10900115966797 -67.60600280761719,85.40399932861328z"/><path fill="rgb(240,146,1)" fill-opacity="0.7000000000000001" d=" M-67.60600280761719,85.40399932861328 C-77.53099822998047,33.9739990234375 -141.25900268554688,-8.831999778747559 -118.94300079345703,-104.68000030517578 C-106.85600280761719,-156.5959930419922 -56.38600158691406,-206.01499938964844 10.112000465393066,-203.406005859375 C66.14900207519531,-201.20700073242188 125.56500244140625,-149.1699981689453 123.60299682617188,-57.85300064086914 C121.49700164794922,40.21500015258789 59.6349983215332,224.5240020751953 -36.15299987792969,201.5399932861328 C-97.75499725341797,186.75799560546875 -59.55799865722656,127.10900115966797 -67.60600280761719,85.40399932861328z"/></g><g opacity="0.3" transform="matrix(1,0,0,1,269.74798583984375,249.94200134277344)"><path fill="rgb(252,206,44)" fill-opacity="1" d=" M-63.34000015258789,87.97599792480469 C-63.84000015258789,72.3030014038086 -75.71700286865234,55.03799819946289 -88.6729965209961,34.0989990234375 C-99.8550033569336,16.027000427246094 -111.62200164794922,-5.190000057220459 -117.44300079345703,-29.729000091552734 C-122.27400207519531,-50.095001220703125 -122.6719970703125,-73.84300231933594 -115.26200103759766,-100.14800262451172 C-113.21199798583984,-107.427001953125 -110.26599884033203,-114.40699768066406 -106.93099975585938,-121.63600158691406 C-103.92400360107422,-128.1529998779297 -99.89800262451172,-134.81700134277344 -95.8550033569336,-140.9770050048828 C-91.12000274658203,-148.1909942626953 -84.9280014038086,-154.8070068359375 -78.78500366210938,-161.08399963378906 C-71.62300109863281,-168.40199279785156 -63.50699996948242,-174.91900634765625 -54.45000076293945,-180.2530059814453 C-37.362998962402344,-190.31500244140625 -16.923999786376953,-196.1649932861328 6.796999931335449,-195.23399353027344 C62.83399963378906,-193.03500366210938 129.5919952392578,-147.34300231933594 116.22799682617188,-32.22100067138672 C103.25199890136719,79.55799865722656 38.12699890136719,222.6269989013672 -41.91699981689453,196.39100646972656 C-58.21500015258789,191.0489959716797 -64.5530014038086,178.51400756835938 -66.23799896240234,164.8070068359375 C-68.58899688720703,145.67599487304688 -62.36199951171875,118.64199829101562 -63.34000015258789,87.97599792480469z"/></g><g opacity="0.6" transform="matrix(1,0,0,1,269.74798583984375,249.94200134277344)"><path fill="rgb(252,206,44)" fill-opacity="1" d=" M-61.34000015258789,86.60099792480469 C-61.84000015258789,70.9280014038086 -73.84200286865234,53.41299819946289 -86.7979965209961,32.4739990234375 C-97.9800033569336,14.402000427246094 -109.37200164794922,-5.690000057220459 -115.19300079345703,-30.229000091552734 C-120.02400207519531,-50.595001220703125 -120.7969970703125,-73.59300231933594 -113.38700103759766,-99.89800262451172 C-111.33699798583984,-107.177001953125 -109.01599884033203,-114.40699768066406 -105.68099975585938,-121.63600158691406 C-102.67400360107422,-128.1529998779297 -99.14800262451172,-134.56700134277344 -95.1050033569336,-140.7270050048828 C-90.37000274658203,-147.9409942626953 -84.9280014038086,-154.8070068359375 -78.78500366210938,-161.08399963378906 C-71.62300109863281,-168.40199279785156 -63.50699996948242,-174.91900634765625 -54.45000076293945,-180.2530059814453 C-37.362998962402344,-190.31500244140625 -16.923999786376953,-196.1649932861328 6.796999931335449,-195.23399353027344 C62.83399963378906,-193.03500366210938 127.66899871826172,-151.0500030517578 116.22799682617188,-35.72100067138672 C106.76399993896484,59.6619987487793 40.37699890136719,218.1269989013672 -39.66699981689453,191.89100646972656 C-55.96500015258789,186.5489959716797 -61.553001403808594,177.01400756835938 -63.237998962402344,163.3070068359375 C-65.58899688720703,144.17599487304688 -60.36199951171875,117.26699829101562 -61.34000015258789,86.60099792480469z"/></g><g opacity="1" transform="matrix(1,0,0,1,269.74798583984375,249.94200134277344)"><path fill="rgb(252,206,44)" fill-opacity="1" d=" M-59.34000015258789,85.22599792480469 C-59.84000015258789,69.5530014038086 -71.59200286865234,51.91299819946289 -84.5479965209961,30.974000930786133 C-95.7300033569336,12.902000427246094 -107.37200164794922,-6.315000057220459 -113.19300079345703,-30.854000091552734 C-118.02400207519531,-51.220001220703125 -118.9219970703125,-73.21800231933594 -111.51200103759766,-99.52300262451172 C-109.46199798583984,-106.802001953125 -107.01599884033203,-113.40699768066406 -103.68099975585938,-120.63600158691406 C-100.67400360107422,-127.15299987792969 -96.39800262451172,-135.06700134277344 -92.3550033569336,-141.2270050048828 C-87.62000274658203,-148.4409942626953 -81.9280014038086,-156.0570068359375 -75.78500366210938,-162.33399963378906 C-68.62300109863281,-169.65199279785156 -63.50699996948242,-174.91900634765625 -54.45000076293945,-180.2530059814453 C-37.362998962402344,-190.31500244140625 -16.930999755859375,-195.94900512695312 6.796999931335449,-195.23399353027344 C66.25199890136719,-193.44200134277344 124.75199890136719,-141.44200134277344 115.22799682617188,-45.72100067138672 C102.5009994506836,82.18800354003906 30.75200080871582,207.05799865722656 -36.66699981689453,188.14100646972656 C-53.18000030517578,183.50799560546875 -58.303001403808594,174.76400756835938 -59.987998962402344,161.0570068359375 C-62.3390007019043,141.92599487304688 -58.36199951171875,115.89199829101562 -59.34000015258789,85.22599792480469z"/></g><g opacity="1" transform="matrix(1,0,0,1,267.68499755859375,151.16299438476562)"><path fill="rgb(255,215,93)" fill-opacity="1" d=" M-121.59400177001953,22.53499984741211 C-115.25299835205078,-54.49100112915039 -57.63800048828125,-99.06400299072266 8.859999656677246,-96.45500183105469 C64.89700317382812,-94.25599670410156 140.88999938964844,-39.76300048828125 117.11699676513672,96.56300354003906 C123.66699981689453,-22.783000946044922 69.4020004272461,-76.45899963378906 9.729000091552734,-84.70600128173828 C-32.479000091552734,-90.54000091552734 -111.3290023803711,-62.87699890136719 -121.59400177001953,22.53499984741211z"/></g><g opacity="0" transform="matrix(1,0,0,1,0,0)"><path fill="rgb(240,146,1)" fill-opacity="1" d=" M199.53900146484375,81.46299743652344 C169.58399963378906,99.71800231933594 167.35499572753906,110.49299621582031 159.0229949951172,125.53700256347656 C149.74099731445312,142.2969970703125 190.5570068359375,182.33200073242188 188.47500610351562,171.47000122070312 C184.6999969482422,151.77499389648438 189.69900512695312,150.54400634765625 186.54400634765625,172.947998046875 C179.83900451660156,168.36300659179688 121.90799713134766,127.65699768066406 199.53900146484375,81.46299743652344z"/></g><g opacity="0" transform="matrix(1,0,0,1,0,0)"><path fill="rgb(240,146,1)" fill-opacity="1" d=" M199.53900146484375,81.46299743652344 C169.58399963378906,99.71800231933594 167.35499572753906,110.49299621582031 159.0229949951172,125.53700256347656 C149.74099731445312,142.2969970703125 190.5570068359375,182.33200073242188 188.47500610351562,171.47000122070312 C184.6999969482422,151.77499389648438 189.69900512695312,150.54400634765625 186.54400634765625,172.947998046875 C179.83900451660156,168.36300659179688 121.90799713134766,127.65699768066406 199.53900146484375,81.46299743652344z"/></g><g opacity="0" transform="matrix(1,0,0,1,0,0)"><path fill="rgb(240,146,1)" fill-opacity="1" d=" M199.53900146484375,81.46299743652344 C169.58399963378906,99.71800231933594 167.35499572753906,110.49299621582031 159.0229949951172,125.53700256347656 C149.74099731445312,142.2969970703125 190.5570068359375,182.33200073242188 188.47500610351562,171.47000122070312 C184.6999969482422,151.77499389648438 189.69900512695312,150.54400634765625 186.54400634765625,172.947998046875 C179.7209930419922,168.35000610351562 121.90799713134766,127.65699768066406 199.53900146484375,81.46299743652344z"/></g><g opacity="0.5" transform="matrix(1,0,0,1,0,0)"><path fill="rgb(240,146,1)" fill-opacity="1" d=" M242.2220001220703,106.78199768066406 C349.5,87.5 359.6059875488281,213.0570068359375 357.68499755859375,197.16900634765625 C344.9209899902344,91.6240005493164 244.9810028076172,94.25900268554688 219.47300720214844,115.61900329589844 C202,130.25 184.43699645996094,158.46099853515625 199.552001953125,138.3719940185547 C217.04800415039062,115.11799621582031 231.6699981689453,108.67900085449219 242.2220001220703,106.78199768066406z"/></g></g><g style="display: block;" transform="matrix(1,0,0,1,-43,-1)" opacity="1"><g opacity="1" transform="matrix(1,0,0,1,268.6059875488281,332.1669921875)"><path fill="rgb(255,215,93)" fill-opacity="1" d=" M47.68000030517578,-51.46799850463867 C26.676000595092773,3.7309999465942383 -1.1610000133514404,4.1579999923706055 -6.245999813079834,13.315999984741211 C-13.746999740600586,26.82200050354004 -24.68400001525879,42.35900115966797 -35.41999816894531,39.069000244140625 C-46.15599822998047,35.77799987792969 -44.972999572753906,19.738000869750977 -45.1879997253418,7.867000102996826 C-47.35100173950195,22.452999114990234 -51.75899887084961,44.43000030517578 -38.69499969482422,49.6879997253418 C-30.834999084472656,52.85100173950195 -19.663999557495117,53.433998107910156 -11.36400032043457,37.284000396728516 C-9.77400016784668,34.189998626708984 -2.7769999504089355,21.579999923706055 2.5490000247955322,17.388999938964844 C8.706999778747559,12.543000221252441 38.492000579833984,9.817000389099121 47.68000030517578,-51.46799850463867z"/></g><g opacity="0.5" transform="matrix(1,0,0,1,255.30599975585938,281.2430114746094)"><path fill="rgb(240,146,1)" fill-opacity="1" d=" M-57.305999755859375,-91.43099975585938 C-52.41299819946289,-73.36399841308594 -8.805999755859375,-46.24300003051758 18.02400016784668,-35.57899856567383 C43.185001373291016,-25.577999114990234 51.71200180053711,-15.515999794006348 30.08300018310547,-20.618000030517578 C9.944000244140625,-25.368000030517578 -14.857000350952148,-32.40800094604492 -30.190000534057617,-38.244998931884766 C-46.930999755859375,-44.61800003051758 -60.775001525878906,-28.06399917602539 -50.81399917602539,-11.609000205993652 C-40.86899948120117,4.818999767303467 -26.054000854492188,13.039999961853027 -24.774999618530273,26.413000106811523 C-23.334999084472656,41.46799850463867 -29.490999221801758,60.012001037597656 -30.118000030517578,74.85099792480469 C-30.746000289916992,89.69000244140625 -15.562999725341797,98.72599792480469 -6.181000232696533,83.72599792480469 C6.177999973297119,63.965999603271484 11.871999740600586,57.89799880981445 29.663000106811523,49.47600173950195 C50.194000244140625,39.75699996948242 66.18299865722656,-1.1059999465942383 54.00600051879883,-27.27400016784668 C28.194000244140625,-82.74299621582031 -35.305999755859375,-89.74299621582031 -57.305999755859375,-91.43099975585938z"/></g><g opacity="0.3" transform="matrix(1,0,0,1,255.30599975585938,281.2430114746094)"><path fill="rgb(240,146,1)" fill-opacity="1" d=" M-57.305999755859375,-91.43099975585938 C-52.41299819946289,-73.36399841308594 -18.305999755859375,-50.61800003051758 16.77400016784668,-34.57899856567383 C31.367000579833984,-27.906999588012695 40.6619987487793,-20.672000885009766 14.958000183105469,-26.618000030517578 C3.069000005722046,-29.368000030517578 -25.055999755859375,-37.86899948120117 -39.87799835205078,-44.80799865722656 C-58.10100173950195,-53.34000015258789 -63.856998443603516,-36.26900100708008 -53.970001220703125,-16.858999252319336 C-44.83700180053711,1.069000005722046 -26.054000854492188,13.039999961853027 -24.774999618530273,26.413000106811523 C-23.334999084472656,41.46799850463867 -29.490999221801758,60.012001037597656 -30.118000030517578,74.85099792480469 C-30.746000289916992,89.69000244140625 -15.562999725341797,98.72599792480469 -6.181000232696533,83.72599792480469 C6.177999973297119,63.965999603271484 11.871999740600586,57.89799880981445 29.663000106811523,49.47600173950195 C50.194000244140625,39.75699996948242 66.18299865722656,-1.1059999465942383 54.00600051879883,-27.27400016784668 C28.194000244140625,-82.74299621582031 -35.305999755859375,-89.74299621582031 -57.305999755859375,-91.43099975585938z"/></g><g opacity="0.2" transform="matrix(1,0,0,1,255.30599975585938,281.2430114746094)"><path fill="rgb(240,146,1)" fill-opacity="1" d=" M-57.305999755859375,-91.43099975585938 C-52.41299819946289,-73.36399841308594 -35.75600051879883,-59.64899826049805 -8.97599983215332,-46.20399856567383 C22.319000244140625,-30.493000030517578 24.55699920654297,-25.37299919128418 -1.4170000553131104,-32.74300003051758 C-12.430999755859375,-35.86800003051758 -30.930999755859375,-42.61800003051758 -46.564998626708984,-50.869998931884766 C-65.34500122070312,-60.78300094604492 -66.18099975585938,-38.74300003051758 -54.43899917602539,-17.108999252319336 C-44.840999603271484,0.574999988079071 -26.054000854492188,13.039999961853027 -24.774999618530273,26.413000106811523 C-23.334999084472656,41.46799850463867 -29.490999221801758,60.012001037597656 -30.118000030517578,74.85099792480469 C-30.746000289916992,89.69000244140625 -15.562999725341797,98.72599792480469 -6.181000232696533,83.72599792480469 C6.177999973297119,63.965999603271484 11.871999740600586,57.89799880981445 29.663000106811523,49.47600173950195 C50.194000244140625,39.75699996948242 66.18299865722656,-1.1059999465942383 54.00600051879883,-27.27400016784668 C28.194000244140625,-82.74299621582031 -35.305999755859375,-89.74299621582031 -57.305999755859375,-91.43099975585938z"/></g><g opacity="0.1" transform="matrix(1,0,0,1,255.30599975585938,281.2430114746094)"><path fill="rgb(240,146,1)" fill-opacity="1" d=" M-57.305999755859375,-91.43099975585938 C-52.41299819946289,-73.36399841308594 -35.69900131225586,-59.117000579833984 -14.72599983215332,-48.32899856567383 C11.444000244140625,-34.86800003051758 3.1010000705718994,-32.81399917602539 -7.041999816894531,-35.99300003051758 C-19.805999755859375,-39.99300003051758 -32.233001708984375,-43.48099899291992 -42.189998626708984,-50.619998931884766 C-76.18099975585938,-74.99299621582031 -72.55599975585938,-52.49300003051758 -55.06399917602539,-17.608999252319336 C-46.04499816894531,0.37700000405311584 -26.054000854492188,13.039999961853027 -24.774999618530273,26.413000106811523 C-23.334999084472656,41.46799850463867 -29.490999221801758,60.012001037597656 -30.118000030517578,74.85099792480469 C-30.746000289916992,89.69000244140625 -15.562999725341797,98.72599792480469 -6.181000232696533,83.72599792480469 C6.177999973297119,63.965999603271484 11.871999740600586,57.89799880981445 29.663000106811523,49.47600173950195 C50.194000244140625,39.75699996948242 66.18299865722656,-1.1059999465942383 54.00600051879883,-27.27400016784668 C28.194000244140625,-82.74299621582031 -35.305999755859375,-89.74299621582031 -57.305999755859375,-91.43099975585938z"/></g><g opacity="0.5" transform="matrix(1,0,0,1,276.25799560546875,223.70199584960938)"><path fill="rgb(240,146,1)" fill-opacity="1" d=" M-23.413000106811523,-22.843000411987305 C0.6809999942779541,-13.980999946594238 46.492000579833984,15.79800033569336 35.77299880981445,73.49299621582031 C51.034000396728516,33.250999450683594 27.660999298095703,9.472000122070312 3.128000020980835,-10.692000389099121 C-21.486000061035156,-30.922000885009766 -52.882999420166016,-36.32699966430664 -67.43199920654297,-38.82400131225586 C-75.2750015258789,-40.16999816894531 -78.63300323486328,-57.95199966430664 -76.21199798583984,-66.03099822998047 C-72.51000213623047,-78.38400268554688 -59.20800018310547,-75.53600311279297 -50.255001068115234,-82.43499755859375 C-38.689998626708984,-91.34600067138672 -55.757999420166016,-115.7020034790039 -12.869000434875488,-113.6520004272461 C26.982999801635742,-111.74700164794922 56.83399963378906,-91.6500015258789 71.27400207519531,-45.064998626708984 C80.49199676513672,-15.32699966430664 79.49199676513672,-3.9519999027252197 79.08699798583984,22.64900016784668 C78.94400024414062,32.047000885009766 74.28500366210938,55.58000183105469 79.04399871826172,50.34299850463867 C82.49199676513672,46.54800033569336 83.9260025024414,32.49700164794922 84.9489974975586,22.25200080871582 C86.49199676513672,6.797999858856201 83.74199676513672,-35.20199966430664 76.87200164794922,-51.667999267578125 C66.15299987792969,-77.35900115966797 52.930999755859375,-109.18800354003906 0.4749999940395355,-118.625 C-55.683998107910156,-128.7270050048828 -106.30899810791016,-75.40399932861328 -79.78099822998047,-33.077999114990234 C-78.74500274658203,-32.97800064086914 -51.387001037597656,-33.13199996948242 -23.413000106811523,-22.843000411987305z"/></g><g opacity="0.3" transform="matrix(1,0,0,1,276.25799560546875,223.70199584960938)"><path fill="rgb(240,146,1)" fill-opacity="1" d=" M-23.413000106811523,-22.843000411987305 C0.6809999942779541,-13.980999946594238 46.492000579833984,15.79800033569336 35.77299880981445,73.49299621582031 C51.034000396728516,33.250999450683594 28.625,5.488999843597412 4.002999782562256,-14.567000389099121 C-20.888999938964844,-34.84299850463867 -56.507999420166016,-40.20199966430664 -63.55699920654297,-42.07400131225586 C-73.17900085449219,-44.62900161743164 -74.75800323486328,-56.45199966430664 -73.58699798583984,-64.03099822998047 C-71.76499938964844,-75.82599639892578 -42.20800018310547,-71.28600311279297 -33.255001068115234,-78.18499755859375 C-21.690000534057617,-87.09600067138672 -46.507999420166016,-111.7020034790039 -12.244000434875488,-110.2770004272461 C17.02400016784668,-109.05999755859375 53.54100036621094,-94.41899871826172 69.52400207519531,-44.814998626708984 C79.99199676513672,-12.32699966430664 78.33000183105469,16.79599952697754 76.33699798583984,46.02399826049805 C73.99199676513672,80.4229965209961 51.29199981689453,114.33100128173828 59.41899871826172,105.21800231933594 C65.36699676513672,98.5479965209961 75.99199676513672,74.4229965209961 81.9489974975586,53.25199890136719 C87.30899810791016,34.20199966430664 91.74500274658203,-11.041999816894531 77.37200164794922,-51.417999267578125 C68.03600311279297,-77.64299774169922 52.930999755859375,-109.18800354003906 0.4749999940395355,-118.625 C-55.683998107910156,-128.7270050048828 -106.30899810791016,-75.40399932861328 -79.78099822998047,-33.077999114990234 C-78.74500274658203,-32.97800064086914 -51.387001037597656,-33.13199996948242 -23.413000106811523,-22.843000411987305z"/></g><g opacity="0.15" transform="matrix(1,0,0,1,276.25799560546875,223.70199584960938)"><path fill="rgb(240,146,1)" fill-opacity="1" d=" M-23.413000106811523,-22.843000411987305 C0.6809999942779541,-13.980999946594238 46.492000579833984,15.79800033569336 35.77299880981445,73.49299621582031 C52.117000579833984,32.92300033569336 29.660999298095703,3.8469998836517334 5.127999782562256,-16.316999435424805 C-19.486000061035156,-36.547000885009766 -47.57099914550781,-40.0359992980957 -61.18199920654297,-44.69900131225586 C-67.75800323486328,-46.95199966430664 -74.4520034790039,-56.6510009765625 -70.71199798583984,-63.65599822998047 C-66.88300323486328,-70.8270034790039 -28.70800018310547,-65.03600311279297 -19.7549991607666,-71.93499755859375 C-8.1899995803833,-80.84600067138672 -35.27399826049805,-110.10700225830078 -11.494000434875488,-108.5270004272461 C23.492000579833984,-106.2020034790039 52.367000579833984,-88.5770034790039 67.77400207519531,-44.314998626708984 C78.45099639892578,-13.640000343322754 77.54299926757812,16.922000885009766 74.77400207519531,46.08700180053711 C71.29000091552734,82.78500366210938 45.03900146484375,124.39800262451172 53.23099899291992,115.34300231933594 C59.49100112915039,108.4229965209961 75.00700378417969,78.21299743652344 81.9489974975586,53.25199890136719 C87.2509994506836,34.18600082397461 91.74500274658203,-11.041999816894531 77.37200164794922,-51.417999267578125 C68.03600311279297,-77.64299774169922 52.930999755859375,-109.18800354003906 0.4749999940395355,-118.625 C-55.683998107910156,-128.7270050048828 -106.30899810791016,-75.40399932861328 -79.78099822998047,-33.077999114990234 C-78.74500274658203,-32.97800064086914 -51.387001037597656,-33.13199996948242 -23.413000106811523,-22.843000411987305z"/></g><g opacity="0.2" transform="matrix(1,0,0,1,276.25799560546875,223.70199584960938)"><path fill="rgb(240,146,1)" fill-opacity="1" d=" M-23.413000106811523,-22.843000411987305 C0.6809999942779541,-13.980999946594238 46.492000579833984,15.79800033569336 35.77299880981445,73.49299621582031 C52.117000579833984,32.92300033569336 30.910999298095703,2.5969998836517334 6.377999782562256,-17.566999435424805 C-18.236000061035156,-37.797000885009766 -43.82099914550781,-41.7859992980957 -57.43199920654297,-46.44900131225586 C-64.00800323486328,-48.70199966430664 -69.2020034790039,-54.9010009765625 -65.46199798583984,-61.90599822998047 C-61.632999420166016,-69.0770034790039 -15.208000183105469,-58.0359992980957 -6.255000114440918,-64.93499755859375 C5.309999942779541,-73.84600067138672 -31.663000106811523,-109.06400299072266 -7.99399995803833,-106.2770004272461 C24.492000579833984,-102.4520034790039 50.492000579833984,-88.2020034790039 65.89900207519531,-43.939998626708984 C76.57599639892578,-13.265000343322754 76.29299926757812,16.858999252319336 73.52400207519531,46.02399826049805 C70.04000091552734,82.72200012207031 41.08700180053711,127.99800109863281 50.23099899291992,119.90599822998047 C56.99100112915039,113.9229965209961 75.00700378417969,78.21299743652344 81.9489974975586,53.25199890136719 C87.2509994506836,34.18600082397461 91.74500274658203,-11.041999816894531 77.37200164794922,-51.417999267578125 C68.03600311279297,-77.64299774169922 52.930999755859375,-109.18800354003906 0.4749999940395355,-118.625 C-55.683998107910156,-128.7270050048828 -106.30899810791016,-75.40399932861328 -79.78099822998047,-33.077999114990234 C-78.74500274658203,-32.97800064086914 -51.387001037597656,-33.13199996948242 -23.413000106811523,-22.843000411987305z"/></g><g opacity="0.1" transform="matrix(1,0,0,1,276.25799560546875,223.70199584960938)"><path fill="rgb(240,146,1)" fill-opacity="1" d=" M-23.413000106811523,-22.843000411987305 C0.6809999942779541,-13.980999946594238 46.492000579833984,15.79800033569336 35.77299880981445,73.49299621582031 C53.492000579833984,33.04800033569336 32.1609992980957,0.22200000286102295 7.627999782562256,-19.941999435424805 C-16.986000061035156,-40.172000885009766 -37.165000915527344,-46.465999603271484 -53.43199920654297,-50.19900131225586 C-57.257999420166016,-51.07699966430664 -68.38300323486328,-58.45199966430664 -57.83700180053711,-59.03099822998047 C-51.46500015258789,-59.38100051879883 -0.7080000042915344,-50.5359992980957 8.244999885559082,-57.435001373291016 C19.809999465942383,-66.34600067138672 -28.507999420166016,-116.2020034790039 29.881000518798828,-87.6520004272461 C43.518001556396484,-80.98400115966797 55.492000579833984,-65.9520034790039 63.52399826049805,-42.939998626708984 C74.22699737548828,-12.27400016784668 75.78800201416016,16.83799934387207 72.08699798583984,45.89899826049805 C66.24199676513672,91.7979965209961 34.78099822998047,132.0469970703125 45.54399871826172,126.28099822998047 C53.624000549316406,121.9520034790039 75.00700378417969,78.21299743652344 81.9489974975586,53.25199890136719 C87.2509994506836,34.18600082397461 91.74500274658203,-11.041999816894531 77.37200164794922,-51.417999267578125 C68.03600311279297,-77.64299774169922 52.930999755859375,-109.18800354003906 0.4749999940395355,-118.625 C-55.683998107910156,-128.7270050048828 -106.30899810791016,-75.40399932861328 -79.78099822998047,-33.077999114990234 C-78.74500274658203,-32.97800064086914 -51.387001037597656,-33.13199996948242 -23.413000106811523,-22.843000411987305z"/></g><g opacity="0.1" transform="matrix(1,0,0,1,254.36599731445312,297.7950134277344)"><path fill="rgb(252,206,44)" fill-opacity="1" d=" M26.67799949645996,-31.849000930786133 C9.298999786376953,-35.948001861572266 -11.116000175476074,-42.54499816894531 -26.79599952697754,-46.41600036621094 C-42.18199920654297,-50.2140007019043 -47.74100112915039,-42.41999816894531 -33.20800018310547,-22.35700035095215 C-25.32699966430664,-11.47700023651123 -22.982999801635742,-3.436000108718872 -21.70400047302246,9.937999725341797 C-20.263999938964844,24.993000030517578 -31.365999221801758,49.95500183105469 -19.135000228881836,53.67300033569336 C-5.190999984741211,57.9119987487793 -6.896999835968018,40.847999572753906 27.618000030517578,25.735000610351562 C45.7760009765625,17.784000396728516 61.88399887084961,-23.545000076293945 26.67799949645996,-31.849000930786133z"/></g><g opacity="0.2" transform="matrix(1,0,0,1,254.36599731445312,297.7950134277344)"><path fill="rgb(252,206,44)" fill-opacity="1" d=" M23.92799949645996,-28.974000930786133 C6.260000228881836,-34.637001037597656 -11.116000175476074,-41.04499816894531 -25.67099952697754,-44.04100036621094 C-41.19300079345703,-47.236000061035156 -41.24100112915039,-36.66999816894531 -30.83300018310547,-21.48200035095215 C-25.62700080871582,-13.885000228881836 -20.240999221801758,-2.2950000762939453 -20.57900047302246,10.062999725341797 C-20.900999069213867,21.83300018310547 -26.740999221801758,44.20500183105469 -18.135000228881836,47.42300033569336 C-4.484000205993652,52.527000427246094 0.49000000953674316,32.62699890136719 24.253000259399414,20.468000411987305 C41.7140007019043,11.534000396728516 47.88399887084961,-21.295000076293945 23.92799949645996,-28.974000930786133z"/></g><g opacity="0.3" transform="matrix(1,0,0,1,254.36599731445312,297.7950134277344)"><path fill="rgb(252,206,44)" fill-opacity="1" d=" M18.05299949645996,-26.599000930786133 C8.109000205993652,-30.290000915527344 -10.991000175476074,-37.79499816894531 -22.67099952697754,-40.41600036621094 C-38.13399887084961,-43.88600158691406 -36.698001861572266,-34.6609992980957 -28.58300018310547,-20.85700035095215 C-22.740999221801758,-10.920000076293945 -18.523000717163086,-2.7230000495910645 -19.32900047302246,10.687999725341797 C-19.990999221801758,21.704999923706055 -24.615999221801758,36.95500183105469 -17.010000228881836,39.04800033569336 C-2.9579999446868896,42.915000915527344 3.25,27.38800048828125 21.239999771118164,13.848999977111816 C36.347999572753906,2.4790000915527344 36.38399887084961,-19.795000076293945 18.05299949645996,-26.599000930786133z"/></g><g opacity="0.5" transform="matrix(1,0,0,1,254.36599731445312,297.7950134277344)"><path fill="rgb(252,206,44)" fill-opacity="1" d=" M12.178000450134277,-24.974000930786133 C6.663000106811523,-27.33300018310547 -10.991000175476074,-35.04499816894531 -20.54599952697754,-37.91600036621094 C-35.722999572753906,-42.47600173950195 -34.74100112915039,-34.66999816894531 -27.83300018310547,-22.35700035095215 C-23.79199981689453,-15.154000282287598 -15.616000175476074,-2.7950000762939453 -17.70400047302246,13.062999725341797 C-18.424999237060547,18.53499984741211 -22.974000930786133,30.280000686645508 -15.385000228881836,32.92300033569336 C-8.116000175476074,35.45500183105469 -1.0920000076293945,26.993000030517578 14.295000076293945,11.196000099182129 C24.011999130249023,1.2200000286102295 33.63399887084961,-15.795000076293945 12.178000450134277,-24.974000930786133z"/></g><g opacity="1" transform="matrix(1,0,0,1,223.0399932861328,295.88299560546875)"><path fill="rgb(225,124,0)" fill-opacity="1" d=" M-17.899999618530273,-30.676000595092773 C-5.752999782562256,-39.797000885009766 5.619999885559082,-26.739999771118164 13.609000205993652,-10.836999893188477 C21.98900032043457,5.843999862670898 17.37299919128418,31.559999465942383 6.01200008392334,33.685001373291016 C7.309000015258789,21.625 8.494999885559082,4.806000232696533 -2.506999969482422,-7.618000030517578 C-9.140000343322754,-15.107000350952148 -15.845999717712402,-18.207000732421875 -17.899999618530273,-30.676000595092773z"/></g><g opacity="0.3" transform="matrix(1,0,0,1,260.3190002441406,228.11900329589844)"><path fill="rgb(252,206,44)" fill-opacity="1" d=" M27.540000915527344,14.251999855041504 C33.270999908447266,12.878000259399414 23.43000030517578,-4.61899995803833 -5.747000217437744,-17.26099967956543 C-17.291000366210938,-22.26300048828125 -57.19599914550781,-33.92900085449219 -45.71799850463867,-20.628000259399414 C-37.944000244140625,-11.619000434875488 -8.862000465393066,1.687000036239624 0.296999990940094,5.670000076293945 C7.681000232696533,8.880999565124512 22.305999755859375,15.506999969482422 27.540000915527344,14.251999855041504z"/></g><g opacity="0.3" transform="matrix(1,0,0,1,260.3190002441406,228.11900329589844)"><path fill="rgb(252,206,44)" fill-opacity="1" d=" M22.851999282836914,9.689000129699707 C25.68000030517578,8.130999565124512 18.055999755859375,-3.49399995803833 -1.996000051498413,-12.38599967956543 C-14.704999923706055,-18.02199935913086 -40.92599868774414,-25.7549991607666 -35.84299850463867,-17.628000259399414 C-32.319000244140625,-11.994000434875488 -6.85699987411499,0.5080000162124634 2.3589999675750732,4.357999801635742 C10.64900016784668,7.821000099182129 19.152999877929688,11.72599983215332 22.851999282836914,9.689000129699707z"/></g><g opacity="0.3" transform="matrix(1,0,0,1,260.3190002441406,228.11900329589844)"><path fill="rgb(252,206,44)" fill-opacity="1" d=" M19.851999282836914,6.689000129699707 C20.402999877929688,5.205999851226807 15.055999755859375,-2.11899995803833 -1.559000015258789,-8.38599967956543 C-10.77299976348877,-11.862000465393066 -17.36199951171875,-11.751999855041504 -15.093000411987305,-7.440000057220459 C-13.444000244140625,-4.306000232696533 -5.390999794006348,-0.8500000238418579 -0.328000009059906,1.5449999570846558 C5.931000232696533,4.50600004196167 18.80500030517578,9.505999565124512 19.851999282836914,6.689000129699707z"/></g><g opacity="0.3" transform="matrix(1,0,0,1,260.3190002441406,228.11900329589844)"><path fill="rgb(252,206,44)" fill-opacity="1" d=" M15.9350004196167,4.677999973297119 C17.28700065612793,3.6530001163482666 13.180999755859375,0.13099999725818634 6.98799991607666,-2.4820001125335693 C1.2869999408721924,-4.888000011444092 -6.256999969482422,-6.306000232696533 -3.9200000762939453,-2.6740000247955322 C-2.884999990463257,-1.065999984741211 1.4930000305175781,1.0069999694824219 5.2729997634887695,2.3980000019073486 C9.402000427246094,3.9179999828338623 14.430999755859375,5.818999767303467 15.9350004196167,4.677999973297119z"/></g><g opacity="0.5" transform="matrix(1,0,0,1,0,0)"><path fill="rgb(255,215,93)" fill-opacity="1" d=" M301.5,182.25 C285.2200012207031,178.6320037841797 268.90399169921875,180.90199279785156 284.5,189 C297.5,195.75 312.75,209.75 320.25,229.5 C327.3550109863281,248.2100067138672 327.8399963378906,227.61900329589844 324,212.5 C320,196.75 312.75,184.75 301.5,182.25z"/></g></g><g style="display: block;" transform="matrix(1,0,0,1,223.46099853515625,257.9020080566406)" opacity="1"><g opacity="1" transform="matrix(1,0,0,1,0,0)"><path stroke-linecap="round" stroke-linejoin="round" fill-opacity="0" stroke="rgb(225,124,0)" stroke-opacity="1" stroke-width="8" d=" M-66.68099975585938,86.05599975585938 C-76.60600280761719,34.625999450683594 -141.28700256347656,-9.619999885559082 -118.97100067138672,-105.46800231933594 C-106.88400268554688,-157.38400268554688 -56.41400146484375,-206.80299377441406 10.083999633789062,-204.19400024414062 C66.12100219726562,-201.9949951171875 125.54100036621094,-149.3070068359375 123.57499694824219,-58.64099884033203 C121.26899719238281,47.70500183105469 47.965999603271484,237.97300720214844 -42.137001037597656,199.14999389648438 C-91.84500122070312,177.7310028076172 -58.632999420166016,127.76100158691406 -66.68099975585938,86.05599975585938z"/></g></g><g style="display: block;" transform="matrix(1,0,0,1,-43,-1)" opacity="1"><g opacity="1" transform="matrix(1,0,0,1,254.6739959716797,281.1629943847656)"><path stroke-linecap="round" stroke-linejoin="round" fill-opacity="0" stroke="rgb(225,124,0)" stroke-opacity="1" stroke-width="8" d=" M-46.891998291015625,-13.055999755859375 C-45.790000915527344,-11.364999771118164 -44.577999114990234,-9.651000022888184 -43.172000885009766,-7.795000076293945 C-36.277000427246094,1.3040000200271606 -24.34600067138672,13.928999900817871 -23.759000778198242,28.988000869750977 C-23.089000701904297,46.18600082397461 -38.8390007019043,87.00399780273438 -18.743000030517578,90.85800170898438 C-5.179999828338623,93.45899963378906 0.7490000128746033,71.0250015258789 8.197999954223633,63.36000061035156 C21.017000198364258,50.16899871826172 39.237998962402344,52.020999908447266 52.47200012207031,19.125 C75.13500213623047,-37.21200180053711 19.783000946044922,-75.21900177001953 -15.515999794006348,-85.18800354003906 C-28.625,-88.88999938964844 -44.53099822998047,-90.80400085449219 -57.7599983215332,-91.06600189208984"/></g><g opacity="1" transform="matrix(1,0,0,1,274.8450012207031,189.44200134277344)"><path stroke-linecap="round" stroke-linejoin="round" fill-opacity="0" stroke="rgb(225,124,0)" stroke-opacity="1" stroke-width="8" d=" M-24.542999267578125,42.00400161743164 C-38.654998779296875,35.7869987487793 -66.96900177001953,24.881000518798828 -78.19400024414062,6.046000003814697 C-100.17400360107422,-30.836000442504883 -71.41000366210938,-85.06900024414062 -13.4399995803833,-85.4800033569336 C68.86100006103516,-86.06300354003906 98.43499755859375,0.9660000205039978 80.55000305175781,82.92900085449219"/></g></g><g style="display: block;" transform="matrix(1,0,0,1,-43,-1)" opacity="1"><g opacity="1" transform="matrix(1,0,0,1,239.92799377441406,292.10699462890625)"><path fill="rgb(186,129,53)" fill-opacity="1" d=" M-9.083999633789062,14.178999900817871 C-7.1539998054504395,23.45400047302246 -13.02400016784668,38.85300064086914 1.7899999618530273,42.50899887084961 C17.604000091552734,46.4109992980957 29.424999237060547,22.239999771118164 30.694000244140625,9.458000183105469 C32.63399887084961,-10.079999923706055 24.323999404907227,-26.253999710083008 9.699999809265137,-35.78200149536133 C-6.684999942779541,-46.457000732421875 -23.738000869750977,-45.41299819946289 -29.410999298095703,-31.05500030517578 C-37.34600067138672,-10.97599983215332 -12.633999824523926,-2.878000020980835 -9.083999633789062,14.178999900817871z"/><path stroke-linecap="round" stroke-linejoin="round" fill-opacity="0" stroke="rgb(136,84,1)" stroke-opacity="1" stroke-width="8" d=" M-9.083999633789062,14.178999900817871 C-7.1539998054504395,23.45400047302246 -13.02400016784668,38.85300064086914 1.7899999618530273,42.50899887084961 C17.604000091552734,46.4109992980957 29.424999237060547,22.239999771118164 30.694000244140625,9.458000183105469 C32.63399887084961,-10.079999923706055 24.323999404907227,-26.253999710083008 9.699999809265137,-35.78200149536133 C-6.684999942779541,-46.457000732421875 -23.738000869750977,-45.41299819946289 -29.410999298095703,-31.05500030517578 C-37.34600067138672,-10.97599983215332 -12.633999824523926,-2.878000020980835 -9.083999633789062,14.178999900817871z"/></g><g opacity="0.3" transform="matrix(1,0,0,1,237.98500061035156,297.0570068359375)"><path fill="rgb(136,84,1)" fill-opacity="1" d=" M0.6679999828338623,5.698999881744385 C3.864000082015991,14.722999572753906 -2.3459999561309814,23.514999389648438 3.6649999618530273,27.027999877929688 C9.89799976348877,30.67099952697754 10.970000267028809,15.437999725341797 28.860000610351562,8.232999801635742 C28.454999923706055,41.422000885009766 4.679999828338623,39.44900131225586 0.1720000058412552,37.43899917602539 C-14.711999893188477,30.80500030517578 -0.7279999852180481,10.302000045776367 -12.236000061035156,-1.628999948501587 C-23.743999481201172,-13.5600004196167 -34.96500015258789,-21.8700008392334 -25.02400016784668,-38.39400100708008 C-24.375999450683594,-14.105999946594238 -7.47599983215332,-17.297000885009766 0.6679999828338623,5.698999881744385z"/></g><g opacity="0.3" transform="matrix(1,0,0,1,235.48599243164062,294.177001953125)"><path fill="rgb(136,84,1)" fill-opacity="1" d=" M7.815000057220459,-23.94300079345703 C18.56599998474121,-23.7189998626709 23.312999725341797,-22.14299964904785 27.218000411987305,-8.809000015258789 C31.07900047302246,4.373000144958496 22.742000579833984,4.429999828338623 13.312999725341797,8.810999870300293 C4.236000061035156,13.027999877929688 2.265000104904175,29.47800064086914 -0.10700000077486038,22.04199981689453 C-1.50600004196167,17.658000946044922 -24.94099998474121,-19.0310001373291 -28.184999465942383,-23.52199935913086 C-9.079000473022461,-10.059000015258789 -2.934999942779541,-24.16699981689453 7.815000057220459,-23.94300079345703z"/></g><g opacity="1" transform="matrix(1,0,0,1,229.9770050048828,270.10400390625)"><path fill="rgb(0,0,0)" fill-opacity="1" d=" M-5.7729997634887695,-4.938000202178955 C-12.416999816894531,4.39300012588501 -0.11699999868869781,12.255000114440918 5.679999828338623,4.40500020980835 C12.86299991607666,-5.320000171661377 -1.1640000343322754,-11.40999984741211 -5.7729997634887695,-4.938000202178955z"/></g></g><g style="display: block;" transform="matrix(1,0,0,1,-43,-1)" opacity="1"><g opacity="0.6" transform="matrix(1,0,0,1,230.3260040283203,158.62100219726562)"><path fill="rgb(173,168,155)" fill-opacity="1" d=" M44.018001556396484,-119.1520004272461 C20.47100067138672,-119.1050033569336 -2.989000082015991,-113.93800354003906 -23.795000076293945,-104.21499633789062 C-56.893001556396484,-88.74800109863281 -79.37100219726562,-63.52000045776367 -82.70099639892578,-35.68299865722656 C-84.55000305175781,-20.22800064086914 -81.14299774169922,-6.290999889373779 -73.26399993896484,6.2230000495910645 C-66.94400024414062,16.257999420166016 -58.12300109863281,24.93199920654297 -46.70100021362305,33.31700134277344 C-39.91699981689453,38.297000885009766 -20.788000106811523,50.34600067138672 -19.513999938964844,51.25400161743164 C-3.753999948501587,62.483001708984375 3.1659998893737793,72.14299774169922 3.3299999237060547,83.78500366210938 C3.3989999294281006,88.67400360107422 1.6430000066757202,94.11499786376953 -1.4199999570846558,99.56700134277344 C-2.5139999389648438,101.51499938964844 -6.264999866485596,106.68800354003906 -6.295000076293945,106.7229995727539 C-9.01099967956543,109.8499984741211 -8.67199993133545,114.5999984741211 -5.545000076293945,117.31700134277344 C-2.4179999828338623,120.03299713134766 2.3329999446868896,119.69400024414062 5.048999786376953,116.56700134277344 C5.534999847412109,116.00700378417969 6.2729997634887695,115.0530014038086 7.204999923706055,113.78500366210938 C8.718999862670898,111.7249984741211 10.232000350952148,109.4209976196289 11.642999649047852,106.91000366210938 C15.888999938964844,99.35199737548828 18.441999435424805,91.5009994506836 18.329999923706055,83.56700134277344 C18.086000442504883,66.20700073242188 8.463000297546387,52.75699996948242 -10.795000076293945,39.03499984741211 C-12.572999954223633,37.768001556396484 -31.597000122070312,25.82699966430664 -37.82600021362305,21.253999710083008 C-59.78900146484375,5.13100004196167 -70.46600341796875,-11.829999923706055 -67.82599639892578,-33.902000427246094 C-66.34600067138672,-46.2760009765625 -60.290000915527344,-59.91699981689453 -49.659000396728516,-70.55400085449219 C-41.36899948120117,-78.8489990234375 -22.655000686645508,-93.66200256347656 1.0160000324249268,-101.56199645996094 C18.93600082397461,-107.65399932861328 49.28099822998047,-111.95099639892578 77.32499694824219,-101.84200286865234 C77.73799896240234,-103.17500305175781 82.0459976196289,-113.92500305175781 83.19300079345703,-114.2979965209961 C70.40399932861328,-117.58899688720703 57.19499969482422,-119.1780014038086 44.018001556396484,-119.1520004272461z"/></g></g><g style="display: block;" transform="matrix(1,0,0,1,-43,-1)" opacity="1"><g opacity="1" transform="matrix(1,0,0,1,234.44000244140625,158.61199951171875)"><path stroke-linecap="round" stroke-linejoin="round" fill-opacity="0" stroke-dasharray=" 1.2 25" stroke-dashoffset="0" stroke="rgb(0,255,24)" stroke-opacity="0.3" stroke-width="0" d=" M-5.71999979019165,117.06700134277344 C-3.01200008392334,112.60600280761719 1.8980000019073486,104.04399871826172 4.2270002365112305,94.66500091552734"/><path stroke-linecap="round" stroke-linejoin="round" fill-opacity="0" stroke-dasharray=" 1.2 25" stroke-dashoffset="0" stroke="rgb(161,255,199)" stroke-opacity="1" stroke-width="0" d=" M-5.71999979019165,117.06700134277344 C-3.01200008392334,112.60600280761719 1.8980000019073486,104.04399871826172 4.2270002365112305,94.66500091552734"/></g><g opacity="1" transform="matrix(1,0,0,1,234.44000244140625,158.61199951171875)"><path stroke-linecap="round" stroke-linejoin="round" fill-opacity="0" stroke-dasharray=" 1.2 25" stroke-dashoffset="0" stroke="rgb(0,255,24)" stroke-opacity="0.3" stroke-width="0" d=" M4.289000034332275,94.41100311279297 C5.085000038146973,91.13600158691406 5.561999797821045,87.76499938964844 5.517000198364258,84.43800354003906 C5.448999881744385,79.39700317382812 4.5,74.69999694824219 2.7119998931884766,70.26899719238281"/><path stroke-linecap="round" stroke-linejoin="round" fill-opacity="0" stroke-dasharray=" 1.2 25" stroke-dashoffset="0" stroke="rgb(161,255,199)" stroke-opacity="1" stroke-width="0" d=" M4.289000034332275,94.41100311279297 C5.085000038146973,91.13600158691406 5.561999797821045,87.76499938964844 5.517000198364258,84.43800354003906 C5.448999881744385,79.39700317382812 4.5,74.69999694824219 2.7119998931884766,70.26899719238281"/></g><g opacity="1" transform="matrix(1,0,0,1,234.44000244140625,158.61199951171875)"><path stroke-linecap="round" stroke-linejoin="round" fill-opacity="0" stroke-dasharray=" 1.2 25" stroke-dashoffset="0" stroke="rgb(0,255,24)" stroke-opacity="0.3" stroke-width="0" d=" M2.628000020980835,70.06199645996094 C-0.25099998712539673,63.040000915527344 -5.243000030517578,56.6870002746582 -12.175000190734863,50.69499969482422"/><path stroke-linecap="round" stroke-linejoin="round" fill-opacity="0" stroke-dasharray=" 1.2 25" stroke-dashoffset="0" stroke="rgb(161,255,199)" stroke-opacity="1" stroke-width="0" d=" M2.628000020980835,70.06199645996094 C-0.25099998712539673,63.040000915527344 -5.243000030517578,56.6870002746582 -12.175000190734863,50.69499969482422"/></g><g opacity="1" transform="matrix(1,0,0,1,234.44000244140625,158.61199951171875)"><path stroke-linecap="round" stroke-linejoin="round" fill-opacity="0" stroke-dasharray=" 1.2 25" stroke-dashoffset="0" stroke="rgb(0,255,24)" stroke-opacity="0.3" stroke-width="0" d=" M-12.373000144958496,50.525001525878906 C-14.494000434875488,48.70399856567383 -16.79400062561035,46.91600036621094 -19.268999099731445,45.15299987792969 C-22.7450008392334,42.67599868774414 -27.405000686645508,39.85599899291992 -32.60300064086914,36.571998596191406"/><path stroke-linecap="round" stroke-linejoin="round" fill-opacity="0" stroke-dasharray=" 1.2 25" stroke-dashoffset="0" stroke="rgb(161,255,199)" stroke-opacity="1" stroke-width="0" d=" M-12.373000144958496,50.525001525878906 C-14.494000434875488,48.70399856567383 -16.79400062561035,46.91600036621094 -19.268999099731445,45.15299987792969 C-22.7450008392334,42.67599868774414 -27.405000686645508,39.85599899291992 -32.60300064086914,36.571998596191406"/></g><g opacity="1" transform="matrix(1,0,0,1,234.44000244140625,158.61199951171875)"><path stroke-linecap="round" stroke-linejoin="round" fill-opacity="0" stroke-dasharray=" 1.2 25" stroke-dashoffset="0" stroke="rgb(0,255,24)" stroke-opacity="0.3" stroke-width="0" d=" M-32.823001861572266,36.43199920654297 C-39.11899948120117,32.45000076293945 -46.1870002746582,27.78700065612793 -52.891998291015625,22.229000091552734"/><path stroke-linecap="round" stroke-linejoin="round" fill-opacity="0" stroke-dasharray=" 1.2 25" stroke-dashoffset="0" stroke="rgb(161,255,199)" stroke-opacity="1" stroke-width="0" d=" M-32.823001861572266,36.43199920654297 C-39.11899948120117,32.45000076293945 -46.1870002746582,27.78700065612793 -52.891998291015625,22.229000091552734"/></g><g opacity="1" transform="matrix(1,0,0,1,234.44000244140625,158.61199951171875)"><path stroke-linecap="round" stroke-linejoin="round" fill-opacity="0" stroke-dasharray=" 1.2 25" stroke-dashoffset="0" stroke="rgb(0,255,24)" stroke-opacity="0.3" stroke-width="0" d=" M-53.06399917602539,22.086000442504883 C-59.257999420166016,16.93199920654297 -65.13300323486328,11.01099967956543 -69.79199981689453,4.1539998054504395"/><path stroke-linecap="round" stroke-linejoin="round" fill-opacity="0" stroke-dasharray=" 1.2 25" stroke-dashoffset="0" stroke="rgb(161,255,199)" stroke-opacity="1" stroke-width="0" d=" M-53.06399917602539,22.086000442504883 C-59.257999420166016,16.93199920654297 -65.13300323486328,11.01099967956543 -69.79199981689453,4.1539998054504395"/></g><g opacity="1" transform="matrix(1,0,0,1,234.44000244140625,158.61199951171875)"><path stroke-linecap="round" stroke-linejoin="round" fill-opacity="0" stroke-dasharray=" 1.2 25" stroke-dashoffset="0" stroke="rgb(0,255,24)" stroke-opacity="0.3" stroke-width="0" d=" M-69.93800354003906,3.937999963760376 C-74.39800262451172,-2.683000087738037 -77.72200012207031,-10.17300033569336 -79.10800170898438,-18.68400001525879"/><path stroke-linecap="round" stroke-linejoin="round" fill-opacity="0" stroke-dasharray=" 1.2 25" stroke-dashoffset="0" stroke="rgb(161,255,199)" stroke-opacity="1" stroke-width="0" d=" M-69.93800354003906,3.937999963760376 C-74.39800262451172,-2.683000087738037 -77.72200012207031,-10.17300033569336 -79.10800170898438,-18.68400001525879"/></g><g opacity="1" transform="matrix(1,0,0,1,234.44000244140625,158.61199951171875)"><path stroke-linecap="round" stroke-linejoin="round" fill-opacity="0" stroke-dasharray=" 1.2 25" stroke-dashoffset="0" stroke="rgb(0,255,24)" stroke-opacity="0.3" stroke-width="0" d=" M-79.14900207519531,-18.941999435424805 C-79.927001953125,-23.868999481201172 -80.05599975585938,-29.13800048828125 -79.38099670410156,-34.777000427246094 C-79.03600311279297,-37.66299819946289 -78.46299743652344,-40.512001037597656 -77.6780014038086,-43.31700134277344"/><path stroke-linecap="round" stroke-linejoin="round" fill-opacity="0" stroke-dasharray=" 1.2 25" stroke-dashoffset="0" stroke="rgb(161,255,199)" stroke-opacity="1" stroke-width="0" d=" M-79.14900207519531,-18.941999435424805 C-79.927001953125,-23.868999481201172 -80.05599975585938,-29.13800048828125 -79.38099670410156,-34.777000427246094 C-79.03600311279297,-37.66299819946289 -78.46299743652344,-40.512001037597656 -77.6780014038086,-43.31700134277344"/></g><g opacity="1" transform="matrix(1,0,0,1,234.44000244140625,158.61199951171875)"><path stroke-linecap="round" stroke-linejoin="round" fill-opacity="0" stroke-dasharray=" 1.2 25" stroke-dashoffset="0" stroke="rgb(0,255,24)" stroke-opacity="0.3" stroke-width="0" d=" M-77.61799621582031,-43.53200149536133 C-75.43800354003906,-51.21099853515625 -71.66999816894531,-58.553001403808594 -66.63099670410156,-65.39900207519531"/><path stroke-linecap="round" stroke-linejoin="round" fill-opacity="0" stroke-dasharray=" 1.2 25" stroke-dashoffset="0" stroke="rgb(161,255,199)" stroke-opacity="1" stroke-width="0" d=" M-77.61799621582031,-43.53200149536133 C-75.43800354003906,-51.21099853515625 -71.66999816894531,-58.553001403808594 -66.63099670410156,-65.39900207519531"/></g><g opacity="1" transform="matrix(1,0,0,1,234.44000244140625,158.61199951171875)"><path stroke-linecap="round" stroke-linejoin="round" fill-opacity="0" stroke-dasharray=" 1.2 25" stroke-dashoffset="0" stroke="rgb(0,255,24)" stroke-opacity="0.3" stroke-width="0" d=" M-66.47599792480469,-65.60900115966797 C-61.779998779296875,-71.94599914550781 -55.99599838256836,-77.8550033569336 -49.375999450683594,-83.20800018310547"/><path stroke-linecap="round" stroke-linejoin="round" fill-opacity="0" stroke-dasharray=" 1.2 25" stroke-dashoffset="0" stroke="rgb(161,255,199)" stroke-opacity="1" stroke-width="0" d=" M-66.47599792480469,-65.60900115966797 C-61.779998779296875,-71.94599914550781 -55.99599838256836,-77.8550033569336 -49.375999450683594,-83.20800018310547"/></g><g opacity="1" transform="matrix(1,0,0,1,234.44000244140625,158.61199951171875)"><path stroke-linecap="round" stroke-linejoin="round" fill-opacity="0" stroke-dasharray=" 1.2 25" stroke-dashoffset="0" stroke="rgb(0,255,24)" stroke-opacity="0.3" stroke-width="0" d=" M-49.17300033569336,-83.37200164794922 C-42.97100067138672,-88.36299896240234 -36.04100036621094,-92.86799621582031 -28.590999603271484,-96.78199768066406"/><path stroke-linecap="round" stroke-linejoin="round" fill-opacity="0" stroke-dasharray=" 1.2 25" stroke-dashoffset="0" stroke="rgb(161,255,199)" stroke-opacity="1" stroke-width="0" d=" M-49.17300033569336,-83.37200164794922 C-42.97100067138672,-88.36299896240234 -36.04100036621094,-92.86799621582031 -28.590999603271484,-96.78199768066406"/></g><g opacity="1" transform="matrix(1,0,0,1,234.44000244140625,158.61199951171875)"><path stroke-linecap="round" stroke-linejoin="round" fill-opacity="0" stroke-dasharray=" 1.2 25" stroke-dashoffset="0" stroke="rgb(0,255,24)" stroke-opacity="0.3" stroke-width="0" d=" M-28.39299964904785,-96.88500213623047 C-21.250999450683594,-100.62200164794922 -13.635000228881836,-103.81600189208984 -5.724999904632568,-106.375"/><path stroke-linecap="round" stroke-linejoin="round" fill-opacity="0" stroke-dasharray=" 1.2 25" stroke-dashoffset="0" stroke="rgb(161,255,199)" stroke-opacity="1" stroke-width="0" d=" M-28.39299964904785,-96.88500213623047 C-21.250999450683594,-100.62200164794922 -13.635000228881836,-103.81600189208984 -5.724999904632568,-106.375"/></g><g opacity="1" transform="matrix(1,0,0,1,234.44000244140625,158.61199951171875)"><path stroke-linecap="round" stroke-linejoin="round" fill-opacity="0" stroke-dasharray=" 1.2 25" stroke-dashoffset="0" stroke="rgb(0,255,24)" stroke-opacity="0.3" stroke-width="0" d=" M-5.47599983215332,-106.45500183105469 C2.2799999713897705,-108.94999694824219 10.3149995803833,-110.83399963378906 18.459999084472656,-112.02200317382812"/><path stroke-linecap="round" stroke-linejoin="round" fill-opacity="0" stroke-dasharray=" 1.2 25" stroke-dashoffset="0" stroke="rgb(161,255,199)" stroke-opacity="1" stroke-width="0" d=" M-5.47599983215332,-106.45500183105469 C2.2799999713897705,-108.94999694824219 10.3149995803833,-110.83399963378906 18.459999084472656,-112.02200317382812"/></g><g opacity="1" transform="matrix(1,0,0,1,234.44000244140625,158.61199951171875)"><path stroke-linecap="round" stroke-linejoin="round" fill-opacity="0" stroke-dasharray=" 1.2 25" stroke-dashoffset="0" stroke="rgb(0,255,24)" stroke-opacity="0.3" stroke-width="0" d=" M18.718000411987305,-112.05999755859375 C26.84600067138672,-113.2300033569336 35.08000183105469,-113.70700073242188 43.25199890136719,-113.40499877929688"/><path stroke-linecap="round" stroke-linejoin="round" fill-opacity="0" stroke-dasharray=" 1.2 25" stroke-dashoffset="0" stroke="rgb(161,255,199)" stroke-opacity="1" stroke-width="0" d=" M18.718000411987305,-112.05999755859375 C26.84600067138672,-113.2300033569336 35.08000183105469,-113.70700073242188 43.25199890136719,-113.40499877929688"/></g><g opacity="1" transform="matrix(1,0,0,1,234.44000244140625,158.61199951171875)"><path stroke-linecap="round" stroke-linejoin="round" fill-opacity="0" stroke-dasharray=" 1.2 25" stroke-dashoffset="0" stroke="rgb(0,255,24)" stroke-opacity="0.3" stroke-width="0" d=" M43.474998474121094,-113.39700317382812 C51.70500183105469,-113.0780029296875 59.869998931884766,-111.96800231933594 67.7959976196289,-109.97899627685547"/><path stroke-linecap="round" stroke-linejoin="round" fill-opacity="0" stroke-dasharray=" 1.2 25" stroke-dashoffset="0" stroke="rgb(161,255,199)" stroke-opacity="1" stroke-width="0" d=" M43.474998474121094,-113.39700317382812 C51.70500183105469,-113.0780029296875 59.869998931884766,-111.96800231933594 67.7959976196289,-109.97899627685547"/></g><g opacity="1" transform="matrix(1,0,0,1,234.44000244140625,158.61199951171875)"><path stroke-linecap="round" stroke-linejoin="round" fill-opacity="0" stroke-dasharray=" 1.2 25" stroke-dashoffset="0" stroke="rgb(0,255,24)" stroke-opacity="0.3" stroke-width="0" d=" M63.61899948120117,-110.94200134277344 C64.22699737548828,-110.81400299072266 64.83399963378906,-110.68099975585938 65.44000244140625,-110.54299926757812"/><path stroke-linecap="round" stroke-linejoin="round" fill-opacity="0" stroke-dasharray=" 1.2 25" stroke-dashoffset="0" stroke="rgb(161,255,199)" stroke-opacity="1" stroke-width="0" d=" M63.61899948120117,-110.94200134277344 C64.22699737548828,-110.81400299072266 64.83399963378906,-110.68099975585938 65.44000244140625,-110.54299926757812"/></g><g opacity="0.1" transform="matrix(1,0,0,1,236.94000244140625,156.61199951171875)"><path stroke-linecap="round" stroke-linejoin="round" fill-opacity="0" stroke="rgb(255,255,255)" stroke-opacity="1" stroke-width="5" d=" M-49.23099899291992,25.570999145507812 C-58.83300018310547,18.115999221801758 -68.27100372314453,8.73799991607666 -74.06500244140625,-3.0420000553131104"/></g><g opacity="0.2" transform="matrix(1,0,0,1,236.94000244140625,156.61199951171875)"><path stroke-linecap="round" stroke-linejoin="round" fill-opacity="0" stroke="rgb(255,255,255)" stroke-opacity="1" stroke-width="4" d=" M-51.266998291015625,23.95800018310547 C-59.42900085449219,17.360000610351562 -67.29100036621094,9.336000442504883 -72.69100189208984,-0.41100001335144043"/></g><g opacity="0.25" transform="matrix(1,0,0,1,236.94000244140625,156.61199951171875)"><path stroke-linecap="round" stroke-linejoin="round" fill-opacity="0" stroke="rgb(255,255,255)" stroke-opacity="1" stroke-width="3" d=" M-54.39799880981445,21.34000015258789 C-60.60499954223633,15.96500015258789 -66.46900177001953,9.718999862670898 -70.99600219726562,2.4660000801086426"/></g><g opacity="0.6" transform="matrix(1,0,0,1,236.94000244140625,156.61199951171875)"><path stroke-linecap="round" stroke-linejoin="round" fill-opacity="0" stroke="rgb(255,255,255)" stroke-opacity="1" stroke-width="2" d=" M-57.70399856567383,18.358999252319336 C-61.79100036621094,14.513999938964844 -65.63999938964844,10.26099967956543 -68.94599914550781,5.557000160217285"/></g></g><g style="display: block;" transform="matrix(1,0,0,1,-43,-1)" opacity="1"><g opacity="0.5" transform="matrix(1,0,0,1,254.6739959716797,281.1629943847656)"><path fill="rgb(252,206,44)" fill-opacity="1" d=" M-39.61199951171875,29.14900016784668 C-73.67500305175781,-22.913000106811523 -50.78499984741211,-12.881999969482422 -49.45399856567383,-11.586999893188477 C-45.54899978637695,-7.788000106811523 -41.64500045776367,-5.0269999504089355 -36.922000885009766,1.2050000429153442 C-30.027000427246094,10.303999900817871 -24.34600067138672,13.928999900817871 -23.759000778198242,28.988000869750977 C-23.469999313354492,36.39899826049805 -27.673999786376953,57.08599853515625 -31.607999801635742,75.53099822998047 C-33.67399978637695,68.58599853515625 -33.17399978637695,39.08700180053711 -38.7599983215332,29.68400001525879"/></g><g opacity="0.5" transform="matrix(1,0,0,1,254.6739959716797,281.1629943847656)"><path fill="rgb(252,206,44)" fill-opacity="1" d=" M-39.61199951171875,29.14900016784668 C-73.67500305175781,-22.913000106811523 -50.78499984741211,-12.881999969482422 -49.45399856567383,-11.586999893188477 C-45.54899978637695,-7.788000106811523 -41.64500045776367,-5.0269999504089355 -36.922000885009766,1.2050000429153442 C-30.027000427246094,10.303999900817871 -24.34600067138672,13.928999900817871 -23.759000778198242,28.988000869750977 C-23.469999313354492,36.39899826049805 -27.673999786376953,57.08599853515625 -31.607999801635742,75.53099822998047 C-33.67399978637695,68.58599853515625 -33.17399978637695,39.08700180053711 -38.7599983215332,29.68400001525879"/></g><g opacity="1" transform="matrix(1,0,0,1,213.76300048828125,290.5429992675781)"><path fill="rgb(255,215,93)" fill-opacity="1" d=" M-9.97599983215332,-21.97100067138672 C-10.137999534606934,-12.916999816894531 -3.763000011444092,-5.541999816894531 1.4170000553131104,0.9399999976158142 C6.834000110626221,7.718999862670898 10.35099983215332,16.357999801635742 12.211000442504883,34.09600067138672 C22.430999755859375,-7.434000015258789 -0.17399999499320984,-9.071000099182129 -9.97599983215332,-21.97100067138672z"/></g><g opacity="1" transform="matrix(1,0,0,1,254.6739959716797,281.1629943847656)"><path stroke-linecap="round" stroke-linejoin="round" fill-opacity="0" stroke="rgb(225,124,0)" stroke-opacity="1" stroke-width="8" d=" M-52.970001220703125,-24.131000518798828 C-49.92300033569336,-17.766000747680664 -47.44499969482422,-13.434000015258789 -43.172000885009766,-7.795000076293945 C-36.277000427246094,1.3040000200271606 -24.34600067138672,13.928999900817871 -23.759000778198242,28.988000869750977 C-23.305999755859375,40.625 -30.371000289916992,63.077999114990234 -28.760000228881836,77.5739974975586"/></g></g></g></svg>