<svg xmlns="http://www.w3.org/2000/svg" xmlns:xlink="http://www.w3.org/1999/xlink" viewBox="0 0 512 512" width="512" height="512" style="width: 100%; height: 100%; transform: translate3d(0,0,0);" preserveAspectRatio="xMidYMid meet"><defs><clipPath id="__lottie_element_20766"><rect width="512" height="512" x="0" y="0"/></clipPath><linearGradient id="__lottie_element_20785" spreadMethod="pad" gradientUnits="userSpaceOnUse" x1="-246" y1="1" x2="243" y2="0"><stop offset="0%" stop-color="rgb(0,0,0)"/><stop offset="25%" stop-color="rgb(0,0,0)"/><stop offset="50%" stop-color="rgb(0,0,0)"/><stop offset="75%" stop-color="rgb(0,0,0)"/><stop offset="100%" stop-color="rgb(0,0,0)"/></linearGradient><mask id="__lottie_element_20787"><path fill="url(#__lottie_element_20786)" d=" M-246.5,-145.5 C-246.5,-139 -246.5,144.218994140625 -246.5,146.593994140625 C-244.71200561523438,146.76499938964844 -241.55099487304688,147.5780029296875 -237.75900268554688,148.50999450683594 C-220.5,152.75 -191.07200622558594,159.75999450683594 -178.26499938964844,161.58399963378906 C-147.25,166 -127.13200378417969,165.62600708007812 -103.76799774169922,164.74600219726562 C-50.75,162.75 -4.125,146.125 27.19499969482422,139.3300018310547 C47.95800018310547,134.8249969482422 68.79000091552734,130.64500427246094 83.74700164794922,128.94000244140625 C106.25,126.375 122.875,126.75 143.25,128.35899353027344 C183.33700561523438,131.52499389648438 217.79400634765625,139.2030029296875 241.43800354003906,147.031005859375 C241.43800354003906,147.09300231933594 241.406005859375,147.09300231933594 241.406005859375,147.06199645996094 C241.406005859375,147.06199645996094 241.406005859375,147.06199645996094 241.406005859375,147.06199645996094 C241.56199645996094,120.56199645996094 241.23399353027344,82.29100036621094 241.25,49.90599822998047 C241.26600646972656,17.08300018310547 241.43699645996094,-15.739999771118164 241.5,-48.5629997253418 C241.56199645996094,-80.91699981689453 241.5,-128.75 241.625,-145.625 C151.281005859375,-172.5 103.15699768066406,-165.1009979248047 78.5,-162.81199645996094 C23.042999267578125,-156.04600524902344 -48.707000732421875,-130.79600524902344 -83.375,-129.06199645996094 C-157.875,-120.1240005493164 -212.75,-139.625 -246.5,-145.5z"/></mask><linearGradient id="__lottie_element_20786" spreadMethod="pad" gradientUnits="userSpaceOnUse" x1="-246" y1="1" x2="243" y2="0"><stop stop-color="rgb(255,255,255)" offset="0%" stop-opacity="1"/><stop stop-color="rgb(255,255,255)" offset="17%" stop-opacity="0.5"/><stop stop-color="rgb(255,255,255)" offset="33%" stop-opacity="0"/><stop stop-color="rgb(255,255,255)" offset="50%" stop-opacity="0"/><stop stop-color="rgb(255,255,255)" offset="66%" stop-opacity="0"/><stop stop-color="rgb(255,255,255)" offset="83%" stop-opacity="0.5"/><stop stop-color="rgb(255,255,255)" offset="100%" stop-opacity="1"/></linearGradient></defs><g clip-path="url(#__lottie_element_20766)"><g style="display: block;" transform="matrix(0.800000011920929,0,0,0.800000011920929,257.9656066894531,250.03680419921875)" opacity="1"><g opacity="1" transform="matrix(1,0,0,1,0,0)"><path fill="rgb(66,95,170)" fill-opacity="1" d=" M-246.5,-145.5 C-246.5,-139 -246.5,144.218994140625 -246.5,146.593994140625 C-244.71200561523438,146.76499938964844 -241.55099487304688,147.5780029296875 -237.75900268554688,148.50999450683594 C-220.5,152.75 -191.07200622558594,159.75999450683594 -178.26499938964844,161.58399963378906 C-147.25,166 -127.13200378417969,165.62600708007812 -103.76799774169922,164.74600219726562 C-50.75,162.75 -4.125,146.125 27.19499969482422,139.3300018310547 C47.95800018310547,134.8249969482422 68.79000091552734,130.64500427246094 83.74700164794922,128.94000244140625 C106.25,126.375 122.875,126.75 143.25,128.35899353027344 C183.33700561523438,131.52499389648438 217.79400634765625,139.2030029296875 241.43800354003906,147.031005859375 C241.43800354003906,147.09300231933594 241.406005859375,147.09300231933594 241.406005859375,147.06199645996094 C241.406005859375,147.06199645996094 241.406005859375,147.06199645996094 241.406005859375,147.06199645996094 C241.56199645996094,120.56199645996094 241.23399353027344,82.29100036621094 241.25,49.90599822998047 C241.26600646972656,17.08300018310547 241.43699645996094,-15.739999771118164 241.5,-48.5629997253418 C241.56199645996094,-80.91699981689453 241.5,-128.75 241.625,-145.625 C151.281005859375,-172.5 103.15699768066406,-165.1009979248047 78.5,-162.81199645996094 C23.042999267578125,-156.04600524902344 -48.707000732421875,-130.79600524902344 -83.375,-129.06199645996094 C-157.875,-120.1240005493164 -212.75,-139.625 -246.5,-145.5z"/></g></g><g style="display: block;" transform="matrix(0.800000011920929,0,0,0.800000011920929,257.9656066894531,250.03680419921875)" opacity="1"><g opacity="1" transform="matrix(1,0,0,1,0,0)"><path fill="rgb(250,218,35)" fill-opacity="1" d=" M-246.5,-105.3489990234375 C-246.5,-74.0999984741211 -246.5,71.7020034790039 -246.5,103.0469970703125 C-217.61300659179688,111.0469970703125 -170.11500549316406,122.62200164794922 -123.86599731445312,122.41699981689453 C-90.41600036621094,122.26899719238281 -63.125,117.68000030517578 -37.57500076293945,111.71099853515625 C11.468000411987305,100.25199890136719 54.09600067138672,83.70600128173828 121.56099700927734,83.70899963378906 C163.01499938964844,83.71099853515625 204.26199340820312,93.0790023803711 241.25,103.13300323486328 C241.26600646972656,70.30999755859375 241.43699645996094,-72.53600311279297 241.5,-105.35900115966797 C220.9810028076172,-111.2959976196289 170.35699462890625,-124.72699737548828 121.44100189208984,-125.25299835205078 C38.94900131225586,-126.13999938964844 -37.76900100708008,-86.08300018310547 -121.0250015258789,-86.02200317382812 C-148.93299865722656,-86.0009994506836 -175.95399475097656,-89.9260025024414 -198.96499633789062,-94.48899841308594 C-218.23300170898438,-98.30899810791016 -234.68800354003906,-102.57599639892578 -246.5,-105.3489990234375z"/></g></g><g style="display: block;" transform="matrix(0.800000011920929,0,0,0.800000011920929,257.9656066894531,250.03680419921875)" opacity="1"><g opacity="1" transform="matrix(1,0,0,1,0,0)"><path fill="rgb(180,39,39)" fill-opacity="1" d=" M-246.5,-81.91200256347656 C-246.5,-50.66299819946289 -246.5,47.95199966430664 -246.5,79.2969970703125 C-217.61300659179688,87.2969970703125 -170.11500549316406,98.87200164794922 -123.86599731445312,98.66699981689453 C-90.41600036621094,98.51899719238281 -63.125,93.93000030517578 -37.57500076293945,87.96099853515625 C11.468000411987305,76.50199890136719 54.09600067138672,59.95600128173828 121.56099700927734,59.95899963378906 C163.01499938964844,59.96099853515625 204.26199340820312,69.3290023803711 241.25,79.38300323486328 C241.26600646972656,46.560001373291016 241.43699645996094,-49.0989990234375 241.5,-81.9219970703125 C220.9810028076172,-87.85900115966797 170.35699462890625,-101.28900146484375 121.44100189208984,-101.81500244140625 C38.94900131225586,-102.7020034790039 -37.76900100708008,-62.64500045776367 -121.0250015258789,-62.58399963378906 C-148.93299865722656,-62.5629997253418 -175.95399475097656,-66.48799896240234 -198.96499633789062,-71.0510025024414 C-218.23300170898438,-74.87100219726562 -234.68800354003906,-79.13899993896484 -246.5,-81.91200256347656z"/></g></g><g style="display: block;" transform="matrix(0.800000011920929,0,0,0.800000011920929,53.60000228881836,43.800010681152344)" opacity="1"><g opacity="1" transform="matrix(1,0,0,1,411.5740051269531,208.9149932861328)"><path fill="rgb(255,255,255)" fill-opacity="1" d=" M-1.7230000495910645,-7.14900016784668 C-1.7230000495910645,-7.14900016784668 19.084999084472656,3.063999891281128 19.084999084472656,3.063999891281128 C19.084999084472656,3.063999891281128 -1.7230000495910645,7.14900016784668 -1.7230000495910645,7.14900016784668 C-1.7230000495910645,7.14900016784668 -19.084999084472656,-1.2769999504089355 -19.084999084472656,-1.2769999504089355 C-19.084999084472656,-1.2769999504089355 -1.7230000495910645,-7.14900016784668 -1.7230000495910645,-7.14900016784668z"/><path stroke-linecap="round" stroke-linejoin="round" fill-opacity="0" stroke="rgb(0,0,0)" stroke-opacity="1" stroke-width="1" d=" M-1.7230000495910645,-7.14900016784668 C-1.7230000495910645,-7.14900016784668 19.084999084472656,3.063999891281128 19.084999084472656,3.063999891281128 C19.084999084472656,3.063999891281128 -1.7230000495910645,7.14900016784668 -1.7230000495910645,7.14900016784668 C-1.7230000495910645,7.14900016784668 -19.084999084472656,-1.2769999504089355 -19.084999084472656,-1.2769999504089355 C-19.084999084472656,-1.2769999504089355 -1.7230000495910645,-7.14900016784668 -1.7230000495910645,-7.14900016784668z"/></g><g opacity="1" transform="matrix(1,0,0,1,392.1700134277344,221.14100646972656)"><path fill="rgb(255,255,255)" fill-opacity="1" d=" M-2.069999933242798,-7.501999855041504 C-2.069999933242798,-7.501999855041504 19.084999084472656,1.944000005722046 19.084999084472656,1.944000005722046 C19.084999084472656,1.944000005722046 -2.069999933242798,7.501999855041504 -2.069999933242798,7.501999855041504 C-2.069999933242798,7.501999855041504 -19.084999084472656,0.2849999964237213 -19.084999084472656,0.2849999964237213 C-19.084999084472656,0.2849999964237213 -2.069999933242798,-7.501999855041504 -2.069999933242798,-7.501999855041504z"/><path stroke-linecap="round" stroke-linejoin="round" fill-opacity="0" stroke="rgb(0,0,0)" stroke-opacity="1" stroke-width="1" d=" M-2.069999933242798,-7.501999855041504 C-2.069999933242798,-7.501999855041504 19.084999084472656,1.944000005722046 19.084999084472656,1.944000005722046 C19.084999084472656,1.944000005722046 -2.069999933242798,7.501999855041504 -2.069999933242798,7.501999855041504 C-2.069999933242798,7.501999855041504 -19.084999084472656,0.2849999964237213 -19.084999084472656,0.2849999964237213 C-19.084999084472656,0.2849999964237213 -2.069999933242798,-7.501999855041504 -2.069999933242798,-7.501999855041504z"/></g><g opacity="1" transform="matrix(1,0,0,1,254.16200256347656,226.75399780273438)"><path fill="rgb(245,207,22)" fill-opacity="1" d=" M145.2570037841797,-17.003999710083008 C121.56600189208984,-18.48200035095215 99.99400329589844,-17.334999084472656 79.61399841308594,-14.664999961853027 C79.30599975585938,-15.567000389099121 78.5250015258789,-17.28499984741211 78.24700164794922,-18.761999130249023 C100.3949966430664,-21.92799949645996 122.58300018310547,-23.10700035095215 145.2570037841797,-20.57900047302246 C145.41200256347656,-19.81800079345703 145.28399658203125,-17.774999618530273 145.2570037841797,-17.003999710083008z"/><path stroke-linecap="round" stroke-linejoin="round" fill-opacity="0" stroke="rgb(0,0,0)" stroke-opacity="1" stroke-width="1" d=" M145.2570037841797,-17.003999710083008 C121.56600189208984,-18.48200035095215 99.99400329589844,-17.334999084472656 79.61399841308594,-14.664999961853027 C79.30599975585938,-15.567000389099121 78.5250015258789,-17.28499984741211 78.24700164794922,-18.761999130249023 C100.3949966430664,-21.92799949645996 122.58300018310547,-23.10700035095215 145.2570037841797,-20.57900047302246 C145.41200256347656,-19.81800079345703 145.28399658203125,-17.774999618530273 145.2570037841797,-17.003999710083008z"/></g><g opacity="1" transform="matrix(1,0,0,1,235.52999877929688,240.07200622558594)"><path fill="rgb(245,207,22)" fill-opacity="1" d=" M145.25100708007812,-17.3700008392334 C133.20399475097656,-17.131000518798828 122.11900329589844,-16.538999557495117 111.81300354003906,-15.668999671936035 C110.59500122070312,-17.32200050354004 109.65799713134766,-18.729000091552734 109.06500244140625,-20.22100067138672 C120.53199768066406,-21.187000274658203 132.5189971923828,-21.523000717163086 145.25100708007812,-21.007999420166016 C145.47000122070312,-19.92300033569336 145.20199584960938,-17.3700008392334 145.25100708007812,-17.3700008392334z"/><path stroke-linecap="round" stroke-linejoin="round" fill-opacity="0" stroke="rgb(0,0,0)" stroke-opacity="1" stroke-width="1" d=" M145.25100708007812,-17.3700008392334 C133.20399475097656,-17.131000518798828 122.11900329589844,-16.538999557495117 111.81300354003906,-15.668999671936035 C110.59500122070312,-17.32200050354004 109.65799713134766,-18.729000091552734 109.06500244140625,-20.22100067138672 C120.53199768066406,-21.187000274658203 132.5189971923828,-21.523000717163086 145.25100708007812,-21.007999420166016 C145.47000122070312,-19.92300033569336 145.20199584960938,-17.3700008392334 145.25100708007812,-17.3700008392334z"/></g><g opacity="1" transform="matrix(1,0,0,1,255.1280059814453,256.9429931640625)"><path fill="rgb(245,207,22)" fill-opacity="1" d=" M196.98800659179688,-7.177000045776367 C159.28399658203125,-14.423999786376953 128.281005859375,-16.384000778198242 101.30000305175781,-15.189000129699707 C101.46600341796875,-17.31800079345703 100.84100341796875,-20.91200065612793 100.51100158691406,-22.763999938964844 C127.97000122070312,-24.423999786376953 159.1540069580078,-22.636999130249023 196.98800659179688,-14.836000442504883 C197.28500366210938,-12.748000144958496 196.9219970703125,-7.177000045776367 196.98800659179688,-7.177000045776367z"/><path stroke-linecap="round" stroke-linejoin="round" fill-opacity="0" stroke="rgb(0,0,0)" stroke-opacity="1" stroke-width="1" d=" M196.98800659179688,-7.177000045776367 C159.28399658203125,-14.423999786376953 128.281005859375,-16.384000778198242 101.30000305175781,-15.189000129699707 C101.46600341796875,-17.31800079345703 100.84100341796875,-20.91200065612793 100.51100158691406,-22.763999938964844 C127.97000122070312,-24.423999786376953 159.1540069580078,-22.636999130249023 196.98800659179688,-14.836000442504883 C197.28500366210938,-12.748000144958496 196.9219970703125,-7.177000045776367 196.98800659179688,-7.177000045776367z"/></g><g opacity="1" transform="matrix(1,0,0,1,254.16200256347656,226.75399780273438)"><path fill="rgb(245,207,22)" fill-opacity="1" d=" M-81.22100067138672,18.97800064086914 C-101.08799743652344,21.516000747680664 -122.19200134277344,22.667999267578125 -145.33299255371094,21.479999542236328 C-145.33299255371094,19.565000534057617 -145.33299255371094,17.395000457763672 -145.33299255371094,16.374000549316406 C-122.12799835205078,17.719999313354492 -99.98999786376953,16.386999130249023 -78.61499786376953,13.543000221252441 C-80.06900024414062,15.527999877929688 -80.69400024414062,17.09000015258789 -81.22100067138672,18.97800064086914z"/><path stroke-linecap="round" stroke-linejoin="round" fill-opacity="0" stroke="rgb(0,0,0)" stroke-opacity="1" stroke-width="1" d=" M-81.22100067138672,18.97800064086914 C-101.08799743652344,21.516000747680664 -122.19200134277344,22.667999267578125 -145.33299255371094,21.479999542236328 C-145.33299255371094,19.565000534057617 -145.33299255371094,17.395000457763672 -145.33299255371094,16.374000549316406 C-122.12799835205078,17.719999313354492 -99.98999786376953,16.386999130249023 -78.61499786376953,13.543000221252441 C-80.06900024414062,15.527999877929688 -80.69400024414062,17.09000015258789 -81.22100067138672,18.97800064086914z"/></g><g opacity="1" transform="matrix(1,0,0,1,235.52999877929688,240.07200622558594)"><path fill="rgb(245,207,22)" fill-opacity="1" d=" M-74.44000244140625,20.30699920654297 C-94.43499755859375,21.707000732421875 -117.45099639892578,21.656999588012695 -145.33900451660156,19.395999908447266 C-145.33900451660156,17.481000900268555 -145.33900451660156,15.885000228881836 -145.33900451660156,14.86400032043457 C-118.57599639892578,17.80299949645996 -95.01200103759766,17.8439998626709 -73.5459976196289,16.09000015258789 C-73.93599700927734,17.364999771118164 -74.09300231933594,18.615999221801758 -74.44000244140625,20.30699920654297z"/><path stroke-linecap="round" stroke-linejoin="round" fill-opacity="0" stroke="rgb(0,0,0)" stroke-opacity="1" stroke-width="1" d=" M-74.44000244140625,20.30699920654297 C-94.43499755859375,21.707000732421875 -117.45099639892578,21.656999588012695 -145.33900451660156,19.395999908447266 C-145.33900451660156,17.481000900268555 -145.33900451660156,15.885000228881836 -145.33900451660156,14.86400032043457 C-118.57599639892578,17.80299949645996 -95.01200103759766,17.8439998626709 -73.5459976196289,16.09000015258789 C-73.93599700927734,17.364999771118164 -74.09300231933594,18.615999221801758 -74.44000244140625,20.30699920654297z"/></g><g opacity="1" transform="matrix(1,0,0,1,255.1280059814453,256.9429931640625)"><path fill="rgb(245,207,22)" fill-opacity="1" d=" M-104.95700073242188,23.131000518798828 C-131.08599853515625,24.04800033569336 -160.98699951171875,21.915000915527344 -197.1060028076172,14.781000137329102 C-197.1060028076172,11.095999717712402 -197.1060028076172,9.597000122070312 -197.1060028076172,7.631999969482422 C-161.3990020751953,14.605999946594238 -131.3990020751953,16.714000701904297 -104.97100067138672,15.831000328063965 C-104.94000244140625,17.21299934387207 -104.62699890136719,21.275999069213867 -104.95700073242188,23.131000518798828z"/><path stroke-linecap="round" stroke-linejoin="round" fill-opacity="0" stroke="rgb(0,0,0)" stroke-opacity="1" stroke-width="1" d=" M-104.95700073242188,23.131000518798828 C-131.08599853515625,24.04800033569336 -160.98699951171875,21.915000915527344 -197.1060028076172,14.781000137329102 C-197.1060028076172,11.095999717712402 -197.1060028076172,9.597000122070312 -197.1060028076172,7.631999969482422 C-161.3990020751953,14.605999946594238 -131.3990020751953,16.714000701904297 -104.97100067138672,15.831000328063965 C-104.94000244140625,17.21299934387207 -104.62699890136719,21.275999069213867 -104.95700073242188,23.131000518798828z"/></g></g><g style="display: block;" transform="matrix(0.800000011920929,0,0,0.800000011920929,53.60000228881836,43.800010681152344)" opacity="1"><g opacity="1" transform="matrix(1,0,0,1,306.5039978027344,250.66900634765625)"><path fill="rgb(255,255,255)" fill-opacity="1" d=" M62.75199890136719,-13.159000396728516 C30.24799919128418,-53.93899917602539 -6.605999946594238,-77.76300048828125 -53.76100158691406,-64.2249984741211 C-102.87899780273438,-37.91899871826172 -118.50299835205078,57.08100128173828 -28.1560001373291,68.03600311279297 C3.0799999237060547,53.409000396728516 33.48500061035156,24.618000030517578 62.75199890136719,-13.159000396728516z"/><path stroke-linecap="round" stroke-linejoin="round" fill-opacity="0" stroke="rgb(0,0,0)" stroke-opacity="1" stroke-width="1" d=" M62.75199890136719,-13.159000396728516 C30.24799919128418,-53.93899917602539 -6.605999946594238,-77.76300048828125 -53.76100158691406,-64.2249984741211 C-102.87899780273438,-37.91899871826172 -118.50299835205078,57.08100128173828 -28.1560001373291,68.03600311279297 C3.0799999237060547,53.409000396728516 33.48500061035156,24.618000030517578 62.75199890136719,-13.159000396728516z"/></g><g opacity="1" transform="matrix(1,0,0,1,207.75900268554688,257.92498779296875)"><g opacity="1" transform="matrix(1,0,0,1,0,0)"><path fill="rgb(32,27,23)" fill-opacity="1" d=" M40.73099899291992,43.15999984741211 C34.26300048828125,19.329999923706055 88.05000305175781,-6.202000141143799 41.582000732421875,-37.520999908447266 C31.533000946044922,-44.29399871826172 36.49800109863281,-60.053001403808594 44.98400115966797,-71.48100280761719 C12.131999969482422,-62.04899978637695 -25.718000411987305,-34.4900016784668 -70.58899688720703,18.138999938964844 C-22.399999618530273,73.2979965209961 24.979999542236328,82.13700103759766 70.58899688720703,60.77899932861328 C66.62300109863281,46.9900016784668 43.926998138427734,54.93299865722656 40.73099899291992,43.15999984741211z"/><path stroke-linecap="round" stroke-linejoin="round" fill-opacity="0" stroke="rgb(0,0,0)" stroke-opacity="1" stroke-width="1" d=" M40.73099899291992,43.15999984741211 C34.26300048828125,19.329999923706055 88.05000305175781,-6.202000141143799 41.582000732421875,-37.520999908447266 C31.533000946044922,-44.29399871826172 36.49800109863281,-60.053001403808594 44.98400115966797,-71.48100280761719 C12.131999969482422,-62.04899978637695 -25.718000411987305,-34.4900016784668 -70.58899688720703,18.138999938964844 C-22.399999618530273,73.2979965209961 24.979999542236328,82.13700103759766 70.58899688720703,60.77899932861328 C66.62300109863281,46.9900016784668 43.926998138427734,54.93299865722656 40.73099899291992,43.15999984741211z"/></g></g><g opacity="1" transform="matrix(1,0,0,1,183.8939971923828,256.1059875488281)"><path fill="rgb(255,255,255)" fill-opacity="1" d=" M3.3359999656677246,10.085000038146973 C3.3359999656677246,10.085000038146973 -3.5739998817443848,11.020999908447266 -3.5739998817443848,11.020999908447266 C-3.5739998817443848,11.020999908447266 -3.5739998817443848,-9.76099967956543 -3.5739998817443848,-9.76099967956543 C-3.5739998817443848,-9.76099967956543 3.5739998817443848,-11.020999908447266 3.5739998817443848,-11.020999908447266 C3.5739998817443848,-11.020999908447266 3.3359999656677246,10.085000038146973 3.3359999656677246,10.085000038146973z"/></g><g opacity="1" transform="matrix(1,0,0,1,206.1060028076172,252.38299560546875)"><path fill="rgb(255,255,255)" fill-opacity="1" d=" M3.8299999237060547,9.29800033569336 C3.8299999237060547,9.29800033569336 -3.5320000648498535,10.871999740600586 -3.5320000648498535,10.871999740600586 C-3.5320000648498535,10.871999740600586 -3.8299999237060547,-9.612000465393066 -3.8299999237060547,-9.612000465393066 C-3.8299999237060547,-9.612000465393066 3.8299999237060547,-10.871999740600586 3.8299999237060547,-10.871999740600586 C3.8299999237060547,-10.871999740600586 3.8299999237060547,9.29800033569336 3.8299999237060547,9.29800033569336z"/></g><g opacity="1" transform="matrix(1,0,0,1,206.31900024414062,283.4259948730469)"><path fill="rgb(255,255,255)" fill-opacity="1" d=" M3.617000102996826,9.064000129699707 C3.617000102996826,9.064000129699707 -3.617000102996826,11.020999908447266 -3.617000102996826,11.020999908447266 C-3.617000102996826,11.020999908447266 -3.617000102996826,-9.76099967956543 -3.617000102996826,-9.76099967956543 C-3.617000102996826,-9.76099967956543 3.617000102996826,-11.020999908447266 3.617000102996826,-11.020999908447266 C3.617000102996826,-11.020999908447266 3.617000102996826,9.064000129699707 3.617000102996826,9.064000129699707z"/></g><g opacity="1" transform="matrix(1,0,0,1,228.70199584960938,247.0850067138672)"><path fill="rgb(255,255,255)" fill-opacity="1" d=" M3.7019999027252197,8.894000053405762 C3.7019999027252197,8.894000053405762 -3.7019999027252197,11.020999908447266 -3.7019999027252197,11.020999908447266 C-3.7019999027252197,11.020999908447266 -3.7019999027252197,-9.76099967956543 -3.7019999027252197,-9.76099967956543 C-3.7019999027252197,-9.76099967956543 3.7019999027252197,-11.020999908447266 3.7019999027252197,-11.020999908447266 C3.7019999027252197,-11.020999908447266 3.7019999027252197,8.894000053405762 3.7019999027252197,8.894000053405762z"/></g><g opacity="1" transform="matrix(1,0,0,1,228.70199584960938,278.2340087890625)"><path fill="rgb(255,255,255)" fill-opacity="1" d=" M3.7019999027252197,9.14900016784668 C3.7019999027252197,9.14900016784668 -3.7019999027252197,11.277000427246094 -3.7019999027252197,11.277000427246094 C-3.7019999027252197,11.277000427246094 -3.7019999027252197,-9.505999565124512 -3.7019999027252197,-9.505999565124512 C-3.7019999027252197,-9.505999565124512 3.7019999027252197,-11.277000427246094 3.7019999027252197,-11.277000427246094 C3.7019999027252197,-11.277000427246094 3.7019999027252197,9.14900016784668 3.7019999027252197,9.14900016784668z"/></g><g opacity="1" transform="matrix(1,0,0,1,279.3399963378906,265.8940124511719)"><path fill="rgb(32,27,23)" fill-opacity="1" d=" M3.2769999504089355,8.597000122070312 C3.2769999504089355,8.597000122070312 -3.2769999504089355,10.595999717712402 -3.2769999504089355,10.595999717712402 C-3.2769999504089355,10.595999717712402 -3.2769999504089355,-8.932000160217285 -3.2769999504089355,-8.932000160217285 C-3.2769999504089355,-8.932000160217285 3.2769999504089355,-10.595999717712402 3.2769999504089355,-10.595999717712402 C3.2769999504089355,-10.595999717712402 3.2769999504089355,8.597000122070312 3.2769999504089355,8.597000122070312z"/></g><g opacity="1" transform="matrix(1,0,0,1,279.3399963378906,234.66000366210938)"><path fill="rgb(32,27,23)" fill-opacity="1" d=" M3.2769999504089355,8.597000122070312 C3.2769999504089355,8.597000122070312 -3.2769999504089355,10.595999717712402 -3.2769999504089355,10.595999717712402 C-3.2769999504089355,10.595999717712402 -3.2769999504089355,-8.932000160217285 -3.2769999504089355,-8.932000160217285 C-3.2769999504089355,-8.932000160217285 3.2769999504089355,-10.595999717712402 3.2769999504089355,-10.595999717712402 C3.2769999504089355,-10.595999717712402 3.2769999504089355,8.597000122070312 3.2769999504089355,8.597000122070312z"/></g><g opacity="1" transform="matrix(1,0,0,1,301.38299560546875,260.7869873046875)"><path fill="rgb(32,27,23)" fill-opacity="1" d=" M3.190999984741211,8.85200023651123 C3.190999984741211,8.85200023651123 -3.190999984741211,10.34000015258789 -3.190999984741211,10.34000015258789 C-3.190999984741211,10.34000015258789 -3.190999984741211,-9.14900016784668 -3.190999984741211,-9.14900016784668 C-3.190999984741211,-9.14900016784668 3.190999984741211,-10.34000015258789 3.190999984741211,-10.34000015258789 C3.190999984741211,-10.34000015258789 3.190999984741211,8.85200023651123 3.190999984741211,8.85200023651123z"/></g><g opacity="1" transform="matrix(1,0,0,1,301.38299560546875,229.63800048828125)"><path fill="rgb(32,27,23)" fill-opacity="1" d=" M3.190999984741211,8.85200023651123 C3.190999984741211,8.85200023651123 -3.190999984741211,10.34000015258789 -3.190999984741211,10.34000015258789 C-3.190999984741211,10.34000015258789 -3.190999984741211,-9.14900016784668 -3.190999984741211,-9.14900016784668 C-3.190999984741211,-9.14900016784668 3.190999984741211,-10.34000015258789 3.190999984741211,-10.34000015258789 C3.190999984741211,-10.34000015258789 3.190999984741211,8.85200023651123 3.190999984741211,8.85200023651123z"/></g><g opacity="1" transform="matrix(1,0,0,1,324.2770080566406,225.72300720214844)"><path fill="rgb(32,27,23)" fill-opacity="1" d=" M3.190999984741211,9.319000244140625 C3.190999984741211,9.319000244140625 -3.190999984741211,10.34000015258789 -3.190999984741211,10.34000015258789 C-3.190999984741211,10.34000015258789 -3.190999984741211,-9.14900016784668 -3.190999984741211,-9.14900016784668 C-3.190999984741211,-9.14900016784668 3.190999984741211,-10.34000015258789 3.190999984741211,-10.34000015258789 C3.190999984741211,-10.34000015258789 3.190999984741211,9.319000244140625 3.190999984741211,9.319000244140625z"/></g><g opacity="1" transform="matrix(1,0,0,1,324.2770080566406,256.7449951171875)"><path fill="rgb(32,27,23)" fill-opacity="1" d=" M3.190999984741211,9.190999984741211 C3.190999984741211,9.190999984741211 -3.190999984741211,10.213000297546387 -3.190999984741211,10.213000297546387 C-3.190999984741211,10.213000297546387 -3.190999984741211,-9.277000427246094 -3.190999984741211,-9.277000427246094 C-3.190999984741211,-9.277000427246094 3.190999984741211,-10.213000297546387 3.190999984741211,-10.213000297546387 C3.190999984741211,-10.213000297546387 3.190999984741211,9.190999984741211 3.190999984741211,9.190999984741211z"/></g><g opacity="1" transform="matrix(1,0,0,1,183.8939971923828,287.2130126953125)"><path fill="rgb(255,255,255)" fill-opacity="1" d=" M3.5739998817443848,9.791999816894531 C3.5739998817443848,9.791999816894531 -3.5739998817443848,10.979000091552734 -3.5739998817443848,10.979000091552734 C-3.5739998817443848,10.979000091552734 -3.5739998817443848,-9.723999977111816 -3.5739998817443848,-9.723999977111816 C-3.5739998817443848,-9.723999977111816 3.5739998817443848,-10.979000091552734 3.5739998817443848,-10.979000091552734 C3.5739998817443848,-10.979000091552734 3.5739998817443848,9.791999816894531 3.5739998817443848,9.791999816894531z"/></g><g opacity="1" transform="matrix(1,0,0,1,428.8819885253906,263.1159973144531)"><path fill="rgb(1,76,178)" fill-opacity="1" d=" M-3.627000093460083,-21.264999389648438 C-21.073999404907227,-26.62700080871582 -24.195999145507812,-1.4270000457763672 -14.605999946594238,10.3100004196167 C-6.677999973297119,1.274999976158142 -13.49899959564209,8.987000465393066 1.7350000143051147,22.139999389648438 C21.565000534057617,6.139999866485596 5.394000053405762,-8.49899959564209 18.840999603271484,5.0329999923706055 C23.660999298095703,-4.493000030517578 12.118000030517578,-26.81800079345703 -3.627000093460083,-21.264999389648438z"/><path stroke-linecap="round" stroke-linejoin="round" fill-opacity="0" stroke="rgb(0,0,0)" stroke-opacity="1" stroke-width="1" d=" M-3.627000093460083,-21.264999389648438 C-21.073999404907227,-26.62700080871582 -24.195999145507812,-1.4270000457763672 -14.605999946594238,10.3100004196167 C-6.677999973297119,1.274999976158142 -13.49899959564209,8.987000465393066 1.7350000143051147,22.139999389648438 C21.565000534057617,6.139999866485596 5.394000053405762,-8.49899959564209 18.840999603271484,5.0329999923706055 C23.660999298095703,-4.493000030517578 12.118000030517578,-26.81800079345703 -3.627000093460083,-21.264999389648438z"/></g><g opacity="1" transform="matrix(1,0,0,1,220.76699829101562,228.4080047607422)"><path fill="rgb(1,76,178)" fill-opacity="1" d=" M-3.4260001182556152,-15.663000106811523 C-21.29800033569336,-15.493000030517578 -25.214000701904297,9.784000396728516 -11.086000442504883,16.422000885009766 C-5.468999862670898,3.8259999752044678 -10.0649995803833,23.06100082397461 9.850000381469727,21.01799964904785 C25.16900062561035,-2.7269999980926514 2.7009999752044678,-7.833000183105469 19.297000885009766,-5.110000133514404 C22.275999069213867,-16.513999938964844 5.425000190734863,-28.429000854492188 -3.4260001182556152,-15.663000106811523z"/><path stroke-linecap="round" stroke-linejoin="round" fill-opacity="0" stroke="rgb(0,0,0)" stroke-opacity="1" stroke-width="1" d=" M-3.4260001182556152,-15.663000106811523 C-21.29800033569336,-15.493000030517578 -25.214000701904297,9.784000396728516 -11.086000442504883,16.422000885009766 C-5.468999862670898,3.8259999752044678 -10.0649995803833,23.06100082397461 9.850000381469727,21.01799964904785 C25.16900062561035,-2.7269999980926514 2.7009999752044678,-7.833000183105469 19.297000885009766,-5.110000133514404 C22.275999069213867,-16.513999938964844 5.425000190734863,-28.429000854492188 -3.4260001182556152,-15.663000106811523z"/></g><g opacity="1" transform="matrix(1,0,0,1,81.5260009765625,291.8399963378906)"><path fill="rgb(1,76,178)" fill-opacity="1" d=" M-4.015999794006348,-17.98900032043457 C-22.39900016784668,-23.861000061035156 -20.86199951171875,-3.806999921798706 -19.334999084472656,3.2019999027252197 C-13.378000259399414,-4.48799991607666 -11.383999824523926,16.900999069213867 4.276000022888184,20.88800048828125 C22.027000427246094,13.925999641418457 14.621999740600586,-9.432999610900879 20.069000244140625,-4.117000102996826 C21.68600082397461,-15.888999938964844 5.60099983215332,-26.073999404907227 -4.015999794006348,-17.98900032043457z"/><path stroke-linecap="round" stroke-linejoin="round" fill-opacity="0" stroke="rgb(0,0,0)" stroke-opacity="1" stroke-width="1" d=" M-4.015999794006348,-17.98900032043457 C-22.39900016784668,-23.861000061035156 -20.86199951171875,-3.806999921798706 -19.334999084472656,3.2019999027252197 C-13.378000259399414,-4.48799991607666 -11.383999824523926,16.900999069213867 4.276000022888184,20.88800048828125 C22.027000427246094,13.925999641418457 14.621999740600586,-9.432999610900879 20.069000244140625,-4.117000102996826 C21.68600082397461,-15.888999938964844 5.60099983215332,-26.073999404907227 -4.015999794006348,-17.98900032043457z"/></g></g><g style="display: block;" transform="matrix(0.800000011920929,0,0,0.800000011920929,257.9656066894531,250.03680419921875)" opacity="0.35000000000000003"><g opacity="1" transform="matrix(1,0,0,1,0,0)"><path fill="url(#__lottie_element_20785)" mask="url(#__lottie_element_20787)" fill-opacity="1" d="M0 0 M-246.5,-145.5 C-246.5,-139 -246.5,144.218994140625 -246.5,146.593994140625 C-244.71200561523438,146.76499938964844 -241.55099487304688,147.5780029296875 -237.75900268554688,148.50999450683594 C-220.5,152.75 -191.07200622558594,159.75999450683594 -178.26499938964844,161.58399963378906 C-147.25,166 -127.13200378417969,165.62600708007812 -103.76799774169922,164.74600219726562 C-50.75,162.75 -4.125,146.125 27.19499969482422,139.3300018310547 C47.95800018310547,134.8249969482422 68.79000091552734,130.64500427246094 83.74700164794922,128.94000244140625 C106.25,126.375 122.875,126.75 143.25,128.35899353027344 C183.33700561523438,131.52499389648438 217.79400634765625,139.2030029296875 241.43800354003906,147.031005859375 C241.43800354003906,147.09300231933594 241.406005859375,147.09300231933594 241.406005859375,147.06199645996094 C241.406005859375,147.06199645996094 241.406005859375,147.06199645996094 241.406005859375,147.06199645996094 C241.56199645996094,120.56199645996094 241.23399353027344,82.29100036621094 241.25,49.90599822998047 C241.26600646972656,17.08300018310547 241.43699645996094,-15.739999771118164 241.5,-48.5629997253418 C241.56199645996094,-80.91699981689453 241.5,-128.75 241.625,-145.625 C151.281005859375,-172.5 103.15699768066406,-165.1009979248047 78.5,-162.81199645996094 C23.042999267578125,-156.04600524902344 -48.707000732421875,-130.79600524902344 -83.375,-129.06199645996094 C-157.875,-120.1240005493164 -212.75,-139.625 -246.5,-145.5z"/></g></g><g style="display: block;" transform="matrix(0.800000011920929,0,0,0.800000011920929,257.9656066894531,250.03680419921875)" opacity="0.15"><g opacity="1" transform="matrix(1,0,0,1,0,0)"><path fill="rgb(255,255,255)" fill-opacity="1" d=" M-246.875,-146 C-246.83700561523438,-139.70399475097656 -246.875,-138 -246.79200744628906,-132.81100463867188 C-237.5,-136.25 -197.25,-114 -124.49600219726562,-114.31099700927734 C-38.992000579833984,-114.6760025024414 39.233001708984375,-153.25 121.70800018310547,-153.39700317382812 C179.75,-153.5 241,-132.25 240.91200256347656,-131.552001953125 C241,-140.5 241.375,-144.625 241.375,-144.625 C241.375,-144.625 179.75,-166.25 122.5,-166 C39.49700164794922,-165.63800048828125 -39.5,-128 -124.25,-126.81199645996094 C-197.0449981689453,-125.79199981689453 -237.75,-149 -246.875,-146z"/></g></g><g style="display: block;" transform="matrix(0.800000011920929,0,0,0.800000011920929,257.9656066894531,250.03680419921875)" opacity="0.15"><g opacity="1" transform="matrix(1,0,0,1,0,0)"><path fill="rgb(0,0,0)" fill-opacity="1" d=" M122.5,112.25 C34,112.25 -36,149.5 -123.5,152 C-140.61700439453125,152.48899841308594 -155.82000732421875,151.3489990234375 -170.41099548339844,149.1280059814453 C-195.23399353027344,145.35000610351562 -218.28900146484375,138.4459991455078 -246,131.125 C-246.25,134.5 -246,141.375 -246,145.125 C-218.5749969482422,153.30599975585938 -195.61700439453125,159.55499267578125 -170.83099365234375,163.0050048828125 C-155.8520050048828,165.08999633789062 -140.20399475097656,166.15199279785156 -122.5,166 C-35,165.25 33.5,126.625 121.75,126.5 C126.26799774169922,126.49400329589844 131.11399841308594,126.59500122070312 136.27699279785156,126.83899688720703 C163.25900268554688,128.11300659179688 198.88099670410156,133.2550048828125 241.375,147 C241.375,147 241.25,134.75 241.5,131.125 C199.093994140625,118.93299865722656 163.16200256347656,113.84500122070312 136.1439971923828,112.58000183105469 C131.30499267578125,112.35399627685547 126.75299835205078,112.25 122.5,112.25z"/></g></g><g style="display: block;" transform="matrix(0.800000011920929,0,0,0.800000011920929,257.9656066894531,250.03680419921875)" opacity="1"><g opacity="1" transform="matrix(1,0,0,1,0,0)"><path stroke-linecap="round" stroke-linejoin="round" fill-opacity="0" stroke="rgb(26,38,70)" stroke-opacity="1" stroke-width="8" d=" M-246.66799926757812,81.64099884033203 C-246.66799926757812,135.16900634765625 -246.5,145.6649932861328 -246.5,146.593994140625 C-244.71200561523438,146.76499938964844 -241.55099487304688,147.5780029296875 -237.75900268554688,148.50999450683594 C-220.5,152.75 -191.07200622558594,159.75999450683594 -178.26499938964844,161.58399963378906 C-147.25,166 -127.13200378417969,165.62600708007812 -103.76799774169922,164.74600219726562 C-50.75,162.75 -4.125,146.125 27.19499969482422,139.3300018310547 C47.95800018310547,134.8249969482422 68.79000091552734,130.64500427246094 83.74700164794922,128.94000244140625 C106.25,126.375 122.875,126.75 143.25,128.35899353027344 C183.33700561523438,131.52499389648438 217.79400634765625,139.2030029296875 241.43800354003906,147.031005859375 C241.43800354003906,147.09300231933594 241.406005859375,147.09300231933594 241.406005859375,147.06199645996094 C241.406005859375,147.06199645996094 241.406005859375,147.06199645996094 241.406005859375,147.06199645996094 C241.56199645996094,120.56199645996094 241.0850067138672,111.822998046875 241.1009979248047,79.43800354003906"/></g><g opacity="1" transform="matrix(1,0,0,1,0,0)"><path stroke-linecap="round" stroke-linejoin="round" fill-opacity="0" stroke="rgb(26,38,70)" stroke-opacity="1" stroke-width="8" d=" M241.45700073242188,-82.125 C241.5189971923828,-114.47899627685547 241.5,-128.75 241.625,-145.625 C151.281005859375,-172.5 103.15699768066406,-165.1009979248047 78.5,-162.81199645996094 C40.125,-159.25 -36.957000732421875,-134.04600524902344 -83.375,-129.06199645996094 C-157.875,-120.1240005493164 -212.75,-139.625 -246.5,-145.5 C-246.5,-143.0330047607422 -246.54299926757812,-133.00900268554688 -246.54299926757812,-81.2959976196289"/></g><g opacity="1" transform="matrix(1,0,0,1,0,0)"><path stroke-linecap="butt" stroke-linejoin="round" fill-opacity="0" stroke="rgb(81,15,15)" stroke-opacity="1" stroke-width="8" d=" M241.5,-81.9219970703125 C241.43699645996094,-49.0989990234375 241.26600646972656,46.560001373291016 241.25,79.38300323486328"/></g><g opacity="1" transform="matrix(1,0,0,1,0,0)"><path stroke-linecap="butt" stroke-linejoin="round" fill-opacity="0" stroke="rgb(81,15,15)" stroke-opacity="1" stroke-width="8" d=" M-246.3000030517578,-81.96199798583984 C-246.3000030517578,-81.96199798583984 -246.6479949951172,80.75399780273438 -246.6479949951172,80.75399780273438"/></g></g></g></svg>