<svg xmlns="http://www.w3.org/2000/svg" xmlns:xlink="http://www.w3.org/1999/xlink" viewBox="0 0 512 512" width="512" height="512" style="width: 100%; height: 100%; transform: translate3d(0,0,0);" preserveAspectRatio="xMidYMid meet"><defs><clipPath id="__lottie_element_43769"><rect width="512" height="512" x="0" y="0"/></clipPath><linearGradient id="__lottie_element_43778" spreadMethod="pad" gradientUnits="userSpaceOnUse" x1="-245.85699462890625" y1="-30.481000900268555" x2="245.6300048828125" y2="74.68599700927734"><stop offset="0%" stop-color="rgb(54,38,26)"/><stop offset="13%" stop-color="rgb(62,53,49)"/><stop offset="25%" stop-color="rgb(71,67,72)"/><stop offset="38%" stop-color="rgb(83,79,85)"/><stop offset="50%" stop-color="rgb(94,91,99)"/><stop offset="75%" stop-color="rgb(70,67,72)"/><stop offset="100%" stop-color="rgb(47,43,45)"/></linearGradient><linearGradient id="__lottie_element_43782" spreadMethod="pad" gradientUnits="userSpaceOnUse" x1="-251.85699462890625" y1="-0.3779999911785126" x2="251.85699462890625" y2="-0.3779999911785126"><stop offset="7%" stop-color="rgb(116,103,108)"/><stop offset="18%" stop-color="rgb(149,138,142)"/><stop offset="29%" stop-color="rgb(183,174,175)"/><stop offset="56%" stop-color="rgb(139,130,132)"/><stop offset="83%" stop-color="rgb(95,85,88)"/></linearGradient><linearGradient id="__lottie_element_43786" spreadMethod="pad" gradientUnits="userSpaceOnUse" x1="-141.28399658203125" y1="-4.144000053405762" x2="178.72000122070312" y2="11.394000053405762"><stop offset="0%" stop-color="rgb(0,0,0)" stop-opacity="1"/><stop offset="76%" stop-color="rgb(0,0,0)" stop-opacity="0.6000000238418579"/><stop offset="100%" stop-color="rgb(0,0,0)" stop-opacity="0.20000000298023224"/></linearGradient><radialGradient id="__lottie_element_43794" spreadMethod="pad" gradientUnits="userSpaceOnUse" cx="1.6490000486373901" cy="-0.4659999907016754" r="142.62186147932437" fx="1.6490000486373901" fy="-0.4659999907016754"><stop offset="0%" stop-color="rgb(255,255,255)" stop-opacity="1"/><stop offset="32%" stop-color="rgb(255,255,255)" stop-opacity="0.5"/><stop offset="97%" stop-color="rgb(255,255,255)" stop-opacity="0"/></radialGradient><linearGradient id="__lottie_element_43804" spreadMethod="pad" gradientUnits="userSpaceOnUse" x1="-56.10900115966797" y1="-85.5" x2="69.30400085449219" y2="105.44400024414062"><stop offset="0%" stop-color="rgb(79,28,1)"/><stop offset="50%" stop-color="rgb(132,78,8)"/><stop offset="100%" stop-color="rgb(185,127,15)"/></linearGradient><linearGradient id="__lottie_element_43805" spreadMethod="pad" gradientUnits="userSpaceOnUse" x1="-51.10900115966797" y1="-78.5" x2="63.624000549316406" y2="96.18399810791016"><stop offset="0%" stop-color="rgb(89,42,0)"/><stop offset="50%" stop-color="rgb(156,98,13)"/><stop offset="100%" stop-color="rgb(223,155,26)"/></linearGradient><radialGradient id="__lottie_element_43809" spreadMethod="pad" gradientUnits="userSpaceOnUse" cx="-3.5360000133514404" cy="-33.57899856567383" r="237.41304558819766" fx="-11.735407510279789" fy="-265.69540602646134"><stop offset="52%" stop-color="rgb(252,252,252)" stop-opacity="0"/><stop offset="84%" stop-color="rgb(192,184,185)" stop-opacity="0.5"/><stop offset="100%" stop-color="rgb(132,115,117)" stop-opacity="1"/><stop offset="100%" stop-color="rgb(135,121,124)" stop-opacity="1"/><stop offset="100%" stop-color="rgb(138,127,132)" stop-opacity="1"/></radialGradient><radialGradient id="__lottie_element_43813" spreadMethod="pad" gradientUnits="userSpaceOnUse" cx="-3.5360000133514404" cy="-33.57899856567383" r="237.41304558819766" fx="-3.5360000133514404" fy="-33.57899856567383"><stop offset="57%" stop-color="rgb(252,252,252)"/><stop offset="87%" stop-color="rgb(192,184,185)"/><stop offset="100%" stop-color="rgb(132,115,117)"/><stop offset="100%" stop-color="rgb(135,121,124)"/><stop offset="100%" stop-color="rgb(138,127,132)"/></radialGradient></defs><g clip-path="url(#__lottie_element_43769)"><g style="display: block;" transform="matrix(0.8543999791145325,0,0,0.8543999791145325,254.08924865722656,260.0037841796875)" opacity="1"><g opacity="1" transform="matrix(1,0,0,1,0,0)"><path fill="url(#__lottie_element_43813)" fill-opacity="1" d=" M-237.43499755859375,46.23099899291992 C-237.43499755859375,46.23099899291992 -183.9250030517578,-165.74400329589844 14.074999809265137,-179.74400329589844 C171.0749969482422,-185.74400329589844 239.6820068359375,25.11199951171875 239.6820068359375,25.11199951171875 C239.6820068359375,25.11199951171875 185.281005859375,163.11700439453125 27.53700065612793,180.41299438476562 C-114.46299743652344,182.41299438476562 -193.43499755859375,52.23099899291992 -237.43499755859375,46.23099899291992z"/></g></g><g style="display: block;" transform="matrix(0.8543999791145325,0,0,0.8543999791145325,254.8572540283203,260.14202880859375)" opacity="1"><g opacity="1" transform="matrix(1,0,0,1,0,0)"><path fill="url(#__lottie_element_43809)" fill-opacity="1" d=" M-232.94000244140625,47.35499954223633 C-232.94000244140625,47.35499954223633 -185.61000061035156,-156.75599670410156 12.390000343322754,-170.75599670410156 C169.38999938964844,-176.75599670410156 232.94000244140625,24.549999237060547 232.94000244140625,24.549999237060547 C232.94000244140625,24.549999237060547 185.281005859375,153.5659942626953 27.53700065612793,170.86199951171875 C-114.46299743652344,172.86199951171875 -188.94000244140625,53.35499954223633 -232.94000244140625,47.35499954223633z"/></g></g><g style="display: block;" transform="matrix(0.8543999791145325,0,0,0.8543999791145325,259.55548095703125,253.89913940429688)" opacity="1"><g opacity="1" transform="matrix(1,0,0,1,0,0)"><path fill="url(#__lottie_element_43804)" fill-opacity="1" d=" M-126.89099884033203,-0.003000000026077032 C-126.89099884033203,70.96600341796875 -70.08499908447266,128.5 -0.003000000026077032,128.5 C70.0790023803711,128.5 126.89099884033203,70.96600341796875 126.89099884033203,-0.003000000026077032 C126.89099884033203,-70.97200012207031 70.0790023803711,-128.5 -0.003000000026077032,-128.5 C-70.08499908447266,-128.5 -126.89099884033203,-70.97200012207031 -126.89099884033203,-0.003000000026077032z"/></g><g opacity="1" transform="matrix(1,0,0,1,0,0)"><path fill="url(#__lottie_element_43805)" fill-opacity="1" d=" M-116.08499908447266,-0.003000000026077032 C-116.08499908447266,64.9219970703125 -64.11699676513672,117.55699920654297 -0.003000000026077032,117.55699920654297 C64.11100006103516,117.55699920654297 116.08499908447266,64.9219970703125 116.08499908447266,-0.003000000026077032 C116.08499908447266,-64.9280014038086 64.11100006103516,-117.55699920654297 -0.003000000026077032,-117.55699920654297 C-64.11699676513672,-117.55699920654297 -116.08499908447266,-64.9280014038086 -116.08499908447266,-0.003000000026077032z"/></g></g><g style="display: block;" transform="matrix(0.8543999791145325,0,0,0.8543999791145325,259.55548095703125,255.9113006591797)" opacity="1"><g opacity="1" transform="matrix(1,0,0,1,0,0)"><path fill="rgb(32,3,2)" fill-opacity="1" d=" M-80.19599914550781,0 C-80.19599914550781,43.55099868774414 -44.29399871826172,78.8550033569336 -0.003000000026077032,78.8550033569336 C44.28799819946289,78.8550033569336 80.19599914550781,43.55099868774414 80.19599914550781,0 C80.19599914550781,-43.55099868774414 44.28799819946289,-78.8550033569336 -0.003000000026077032,-78.8550033569336 C-44.29399871826172,-78.8550033569336 -80.19599914550781,-43.55099868774414 -80.19599914550781,0z"/></g></g><g style="display: block;" transform="matrix(0.8543999791145325,0,0,0.8543999791145325,224.2198028564453,197.35226440429688)" opacity="1"><g opacity="1" transform="matrix(1,0,0,1,0,0)"><path fill="rgb(244,244,244)" fill-opacity="1" d=" M-34.25199890136719,0.003000000026077032 C-34.25199890136719,19.156999588012695 -18.913999557495117,34.68299865722656 0,34.68299865722656 C18.913999557495117,34.68299865722656 34.25199890136719,19.156999588012695 34.25199890136719,0.003000000026077032 C34.25199890136719,-19.150999069213867 18.913999557495117,-34.68299865722656 0,-34.68299865722656 C-18.913999557495117,-34.68299865722656 -34.25199890136719,-19.150999069213867 -34.25199890136719,0.003000000026077032z"/></g></g><g style="display: block;" transform="matrix(0.8440921306610107,-0.13231714069843292,0.10971618443727493,0.6999136209487915,226.2175750732422,203.4732208251953)" opacity="0.7000000000000001"><g opacity="1" transform="matrix(1,0,0,1,0,0)"><path fill="url(#__lottie_element_43794)" fill-opacity="1" d=" M140.5189971923828,-34.474998474121094 C154.69400024414062,23.301000595092773 147.91000366210938,88.51899719238281 41.66600036621094,124.61299896240234 C-64.5780029296875,160.70700073242188 -126.34400177001953,92.2509994506836 -140.5189971923828,34.474998474121094 C-146.5489959716797,9.895999908447266 -145.9510040283203,-19.32900047302246 -136.2209930419922,-47.097999572753906 C-123.08000183105469,-84.60199737548828 -86.1969985961914,-99.59400177001953 -33.58000183105469,-116.75599670410156 C-0.18799999356269836,-127.64700317382812 23.97100067138672,-144.5540008544922 50.882999420166016,-133.60800170898438 C97.7760009765625,-114.53500366210938 131.51300048828125,-71.18399810791016 140.5189971923828,-34.474998474121094z"/></g></g><g style="display: block;" transform="matrix(0.8543999791145325,0,0,0.8543999791145325,310.9461975097656,307.4604187011719)" opacity="1"><g opacity="1" transform="matrix(1,0,0,1,0,0)"><path stroke-linecap="round" stroke-linejoin="round" fill-opacity="0" stroke="rgb(229,173,48)" stroke-opacity="1" stroke-width="35" d=" M34.95500183105469,-34.55099868774414 C24.024999618530273,2.825000047683716 -6.548999786376953,25.673999786376953 -34.95500183105469,34.55099868774414"/></g></g><g style="display: block;" transform="matrix(0.8543999791145325,0,0,0.8543999791145325,254.8966064453125,254.44921875)" opacity="0.5"><g opacity="1" transform="matrix(1,0,0,1,0,0)"><path fill="url(#__lottie_element_43786)" fill-opacity="1" d=" M-231.66600036621094,53.85599899291992 C-231.66600036621094,53.85599899291992 -162.85299682617188,-105.7770004272461 5.448999881744385,-118.20099639892578 C88.8280029296875,-124.35600280761719 167.41200256347656,-59.35599899291992 173.8470001220703,25.725000381469727 C177.11199951171875,68.8949966430664 148.95799255371094,139.6909942626953 72.35700225830078,167.343994140625 C72.35700225830078,167.343994140625 224.74899291992188,153.86700439453125 231.45399475097656,29.947999954223633 C235.5030059814453,-44.89500045776367 182.35000610351562,-174.3040008544922 5.453999996185303,-167.052001953125 C-185.33099365234375,-159.22999572753906 -231.66600036621094,53.85599899291992 -231.66600036621094,53.85599899291992z"/></g></g><g style="display: block;" transform="matrix(0.8543999791145325,0,0,0.8543999791145325,257.63165283203125,350.3417053222656)" opacity="1"><g opacity="1" transform="matrix(1,0,0,1,0,0)"><path fill="url(#__lottie_element_43782)" fill-opacity="1" d=" M-251.85699462890625,-58.37799835205078 C-220.65499877929688,-58.00299835205078 -130.79800415039062,84.947998046875 22.944000244140625,82.59200286865234 C135.3719940185547,79.71399688720703 222.23399353027344,0 251.85699462890625,-82.62100219726562 C251.85699462890625,-82.62100219726562 226.7480010986328,-81.3499984741211 226.7480010986328,-81.3499984741211 C199.3350067138672,-12.432999610900879 130.41799926757812,56.70600128173828 22.04199981689453,61.733001708984375 C-119.95800018310547,63.733001708984375 -190.86599731445312,-52.37799835205078 -234.86599731445312,-58.37799835205078 C-234.86599731445312,-58.37799835205078 -251.85699462890625,-58.37799835205078 -251.85699462890625,-58.37799835205078z"/></g></g><g style="display: block;" transform="matrix(0.8543999791145325,0,0,0.8543999791145325,257.63165283203125,199.2012176513672)" opacity="1"><g opacity="1" transform="matrix(1,0,0,1,0,0)"><path fill="url(#__lottie_element_43778)" fill-opacity="1" d=" M-251.85699462890625,118.51899719238281 C-251.85699462890625,118.51899719238281 -204.5709991455078,-103.69200134277344 0.7319999933242798,-118.25199890136719 C204.73199462890625,-127.25199890136719 251.85699462890625,94.2750015258789 251.85699462890625,94.2750015258789 C251.85699462890625,94.2750015258789 226.7480010986328,95.5459976196289 226.7480010986328,95.5459976196289 C226.7480010986328,95.5459976196289 166.14300537109375,-104.48100280761719 9.142999649047852,-98.48100280761719 C-187.30599975585938,-85.2239990234375 -234.86599731445312,118.51899719238281 -234.86599731445312,118.51899719238281 C-234.86599731445312,118.51899719238281 -251.85699462890625,118.51899719238281 -251.85699462890625,118.51899719238281z"/></g></g><g style="display: block;" transform="matrix(1,0,0,1,256,256)" opacity="1"/></g></svg>