<svg xmlns="http://www.w3.org/2000/svg" xmlns:xlink="http://www.w3.org/1999/xlink" viewBox="0 0 512 512" width="512" height="512" style="width: 100%; height: 100%; transform: translate3d(0,0,0);" preserveAspectRatio="xMidYMid meet"><defs><clipPath id="__lottie_element_44345"><rect width="512" height="512" x="0" y="0"/></clipPath></defs><g clip-path="url(#__lottie_element_44345)"><g style="display: block;" transform="matrix(1.100000023841858,0,0,1.100000023841858,-32.1051025390625,-33.398406982421875)" opacity="1"><g opacity="1" transform="matrix(1,0,0,1,314.0220031738281,195.36599731445312)"><path fill="rgb(252,206,44)" fill-opacity="1" d=" M-42.34299850463867,86.63500213623047 C-36.54999923706055,66.73699951171875 -21.687000274658203,19.4689998626709 -17.656999588012695,7.882999897003174 C-15.307000160217285,1.1260000467300415 -13.246000289916992,-11.920000076293945 -10.076000213623047,-25.83300018310547 C-7.810999870300293,-35.777000427246094 -4.978000164031982,-46.165000915527344 -1.069000005722046,-55.01599884033203 C8.911999702453613,-77.61199951171875 34.297000885009766,-73.73100280761719 29.03700065612793,-50.60300064086914 C28.07699966430664,-46.3849983215332 25.534000396728516,-33.26300048828125 22.937000274658203,-19.177000045776367 C20.400999069213867,-5.423999786376953 17.812999725341797,9.24899959564209 16.597999572753906,17.45400047302246 C14.583000183105469,31.05500030517578 10.048999786376953,57.50199890136719 6.019000053405762,70.09600067138672"/><path fill="rgb(240,146,1)" fill-opacity="0" d=" M-42.34299850463867,86.63500213623047 C-36.54999923706055,66.73699951171875 -21.687000274658203,19.4689998626709 -17.656999588012695,7.882999897003174 C-15.307000160217285,1.1260000467300415 -13.246000289916992,-11.920000076293945 -10.076000213623047,-25.83300018310547 C-7.810999870300293,-35.777000427246094 -4.978000164031982,-46.165000915527344 -1.069000005722046,-55.01599884033203 C8.911999702453613,-77.61199951171875 34.297000885009766,-73.73100280761719 29.03700065612793,-50.60300064086914 C28.07699966430664,-46.3849983215332 25.534000396728516,-33.26300048828125 22.937000274658203,-19.177000045776367 C20.400999069213867,-5.423999786376953 17.812999725341797,9.24899959564209 16.597999572753906,17.45400047302246 C14.583000183105469,31.05500030517578 10.048999786376953,57.50199890136719 6.019000053405762,70.09600067138672"/></g></g><g style="display: block;" transform="matrix(1.100000023841858,0,0,1.100000023841858,-32.1051025390625,-33.398406982421875)" opacity="1"><g opacity="1" transform="matrix(1,0,0,1,329.8240051269531,154.7030029296875)"><path fill="rgb(255,215,93)" fill-opacity="1" d=" M3.8980000019073486,30.030000686645508 C4.526000022888184,13.88599967956543 4.916999816894531,-0.27000001072883606 4.085000038146973,-6.5279998779296875 C3.252000093460083,-12.786999702453613 -1.4730000495910645,-26.76300048828125 -14.206999778747559,-17.152000427246094 C-10.163999557495117,-32.930999755859375 15.173999786376953,-35.52899932861328 14.178999900817871,-17.516000747680664 C13.592000007629395,-6.882999897003174 9.961999893188477,4.4730000495910645 3.8980000019073486,30.030000686645508z"/></g></g><g style="display: block;" transform="matrix(1.100000023841858,0,0,1.100000023841858,-32.1051025390625,-33.398406982421875)" opacity="1"><g opacity="0.5" transform="matrix(1,0,0,1,318.97698974609375,182.54400634765625)"><path fill="rgb(240,146,1)" fill-opacity="1" d=" M16.445999145507812,-56.46500015258789 C-3.8910000324249268,-57.60499954223633 -0.45399999618530273,-34.66699981689453 -0.11699999868869781,-27.71299934387207 C0.19499999284744263,-21.266000747680664 0.9419999718666077,-9.538999557495117 1.5870000123977661,-0.6359999775886536 C2.4820001125335693,11.715999603271484 3.506999969482422,26.138999938964844 3.8329999446868896,29.55900001525879 C4.2870001792907715,34.321998596191406 4.909999847412109,43.70600128173828 5.4679999351501465,56.520999908447266 C0.597000002861023,54.47600173950195 -11.050999641418457,51.45199966430664 -16.405000686645508,48.91600036621094 C-16.614999771118164,34.263999938964844 -16.0310001373291,19.152000427246094 -14.654000282287598,4.729000091552734 C-13.263999938964844,-9.833000183105469 -11.067000389099121,-23.691999435424805 -8.060999870300293,-35.66899871826172 C-6.047999858856201,-43.68899917602539 0.7110000252723694,-59.72100067138672 16.445999145507812,-56.46500015258789z"/></g><g opacity="0.3" transform="matrix(1,0,0,1,318.97698974609375,182.54400634765625)"><path fill="rgb(240,146,1)" fill-opacity="1" d=" M16.445999145507812,-56.46500015258789 C0.08399999886751175,-57.63100051879883 2.6760001182556152,-38.606998443603516 3.010999917984009,-30.292999267578125 C3.23799991607666,-24.659000396728516 5.130000114440918,-11.475000381469727 5.934000015258789,-1.4220000505447388 C6.946000099182129,11.22700023651123 8.689000129699707,29.81999969482422 8.406999588012695,34.821998596191406 C7.86899995803833,44.380001068115234 6.448999881744385,49.6870002746582 6.632999897003174,56.895999908447266 C1.7619999647140503,54.85100173950195 -11.050999641418457,51.45199966430664 -16.405000686645508,48.91600036621094 C-16.614999771118164,34.263999938964844 -16.0310001373291,19.152000427246094 -14.654000282287598,4.729000091552734 C-13.263999938964844,-9.833000183105469 -11.067000389099121,-23.691999435424805 -8.060999870300293,-35.66899871826172 C-6.047999858856201,-43.68899917602539 0.7110000252723694,-59.72100067138672 16.445999145507812,-56.46500015258789z"/></g></g><g style="display: block;" transform="matrix(1.100000023841858,0,0,1.100000023841858,-32.1051025390625,-33.398406982421875)" opacity="1"><g opacity="1" transform="matrix(1,0,0,1,314.0220031738281,195.36599731445312)"><path stroke-linecap="round" stroke-linejoin="round" fill-opacity="0" stroke="rgb(225,124,0)" stroke-opacity="1" stroke-width="8" d=" M-42.34299850463867,86.63500213623047 C-36.54999923706055,66.73699951171875 -21.687000274658203,19.4689998626709 -17.656999588012695,7.882999897003174 C-15.307000160217285,1.1260000467300415 -13.246000289916992,-11.920000076293945 -10.076000213623047,-25.83300018310547 C-7.810999870300293,-35.777000427246094 -4.978000164031982,-46.165000915527344 -1.069000005722046,-55.01599884033203 C8.911999702453613,-77.61199951171875 34.297000885009766,-73.73100280761719 29.03700065612793,-50.60300064086914 C28.07699966430664,-46.3849983215332 25.534000396728516,-33.26300048828125 22.937000274658203,-19.177000045776367 C20.400999069213867,-5.423999786376953 17.812999725341797,9.24899959564209 16.597999572753906,17.45400047302246 C14.583000183105469,31.05500030517578 10.048999786376953,57.50199890136719 6.019000053405762,70.09600067138672"/></g></g><g style="display: block;" transform="matrix(1.100000023841858,0,0,1.100000023841858,-32.1051025390625,-33.397308349609375)" opacity="1"><g opacity="1" transform="matrix(1,0,0,1,289.8110046386719,150.3470001220703)"><path fill="rgb(252,206,44)" fill-opacity="1" d=" M-29.691999435424805,81.66200256347656 C-25.687999725341797,60.0880012512207 -18.722000122070312,33.06999969482422 -17.2810001373291,14.866000175476074 C-16.215999603271484,1.4240000247955322 -18.017000198364258,-12.269000053405762 -19.775999069213867,-25.923999786376953 C-21.424999237060547,-38.722999572753906 -23.03700065612793,-51.48899841308594 -22.219999313354492,-63.983001708984375 C-20.422000885009766,-91.45999908447266 7.7769999504089355,-92.91999816894531 10.986000061035156,-70.88899993896484 C11.699000358581543,-65.9990005493164 14.744000434875488,-47.41299819946289 17.618000030517578,-28.042999267578125 C20.285999298095703,-10.057000160217285 22.808000564575195,8.605999946594238 23.176000595092773,17.610000610351562 C24.367000579833984,46.672000885009766 24.033000946044922,61.207000732421875 25.367000579833984,86.13400268554688"/></g></g><g style="display: block;" transform="matrix(1.100000023841858,0,0,1.100000023841858,-32.1051025390625,-33.397308349609375)" opacity="1"><g opacity="1" transform="matrix(1,0,0,1,290.2980041503906,142.06900024414062)"><path fill="rgb(255,215,93)" fill-opacity="1" d=" M22.40399932861328,78.53199768066406 C18.93899917602539,53.88600158691406 10.717000007629395,15.395000457763672 9.065999984741211,2.4690001010894775 C6.973999977111816,-13.909000396728516 4.730000019073486,-29.246999740600586 1.5080000162124634,-49.07099914550781 C-1.7130000591278076,-68.89399719238281 -11.802000045776367,-69.18499755859375 -22.40399932861328,-60.097999572753906 C-20.173999786376953,-81.28399658203125 4.546999931335449,-83.58399963378906 9.347999572753906,-70.1989974975586 C14.043999671936035,-57.106998443603516 17.601999282836914,-17.4060001373291 19.45199966430664,0.23899999260902405 C22.684999465942383,31.079999923706055 21.20800018310547,65.0719985961914 22.40399932861328,78.53199768066406z"/></g></g><g style="display: block;" transform="matrix(1.100000023841858,0,0,1.100000023841858,-32.1051025390625,-33.397308349609375)" opacity="1"><g opacity="0.5" transform="matrix(1,0,0,1,289.0169982910156,151.22500610351562)"><path fill="rgb(240,146,1)" fill-opacity="1" d=" M-6.565999984741211,-83.59500122070312 C-21.01799964904785,-82.54000091552734 -9.727999687194824,-40.68199920654297 -8.239999771118164,-23.152999877929688 C-5.616000175476074,7.771999835968018 5.809000015258789,47.138999938964844 16.679000854492188,78.41899871826172 C19.78499984741211,93.50399780273438 -21.78499984741211,86.52200317382812 -28.98699951171875,81.86199951171875 C-27.183000564575195,67.6989974975586 -15.984000205993652,17.13599967956543 -15.13700008392334,1.0379999876022339 C-16.408000946044922,-12.942000389099121 -21.03499984741211,-48.959999084472656 -21.78700065612793,-62.49599838256836 C-22.559999465942383,-76.40399932861328 -16.514999389648438,-85.2770004272461 -6.565999984741211,-83.59500122070312z"/></g><g opacity="0.3" transform="matrix(1,0,0,1,289.0169982910156,151.22500610351562)"><path fill="rgb(240,146,1)" fill-opacity="1" d=" M-6.565999984741211,-83.59500122070312 C-18.05699920654297,-77.70899963378906 -6.468999862670898,-41.58399963378906 -4.980999946594238,-24.05500030517578 C-2.3570001125335693,6.869999885559082 10.732999801635742,46.25299835205078 21.60300064086914,77.53299713134766 C24.708999633789062,92.61799621582031 -21.78499984741211,86.52200317382812 -28.98699951171875,81.86199951171875 C-27.183000564575195,67.6989974975586 -15.984000205993652,17.13599967956543 -15.13700008392334,1.0379999876022339 C-16.408000946044922,-12.942000389099121 -21.03499984741211,-48.959999084472656 -21.78700065612793,-62.49599838256836 C-22.559999465942383,-76.40399932861328 -16.514999389648438,-85.2770004272461 -6.565999984741211,-83.59500122070312z"/></g></g><g style="display: block;" transform="matrix(1.100000023841858,0,0,1.100000023841858,-32.1051025390625,-33.397308349609375)" opacity="1"><g opacity="1" transform="matrix(1,0,0,1,289.8110046386719,150.3470001220703)"><path stroke-linecap="round" stroke-linejoin="round" fill-opacity="0" stroke="rgb(225,124,0)" stroke-opacity="1" stroke-width="8" d=" M-29.691999435424805,81.66200256347656 C-25.687999725341797,60.0880012512207 -18.722000122070312,33.06999969482422 -17.2810001373291,14.866000175476074 C-16.215999603271484,1.4240000247955322 -18.017000198364258,-12.269000053405762 -19.775999069213867,-25.923999786376953 C-21.424999237060547,-38.722999572753906 -23.03700065612793,-51.48899841308594 -22.219999313354492,-63.983001708984375 C-20.422000885009766,-91.45999908447266 7.7769999504089355,-92.91999816894531 10.986000061035156,-70.88899993896484 C11.699000358581543,-65.9990005493164 14.744000434875488,-47.41299819946289 17.618000030517578,-28.042999267578125 C20.285999298095703,-10.057000160217285 22.808000564575195,8.605999946594238 23.176000595092773,17.610000610351562 C24.367000579833984,46.672000885009766 24.033000946044922,61.207000732421875 25.367000579833984,86.13400268554688"/></g></g><g style="display: block;" transform="matrix(1.100000023841858,0,0,1.100000023841858,-32.1051025390625,-33.398406982421875)" opacity="1"><g opacity="1" transform="matrix(1,0,0,1,301.1340026855469,360.85699462890625)"><path fill="rgb(252,206,44)" fill-opacity="1" d=" M-29.506000518798828,-74.88800048828125 C-45.15599822998047,16.22599983215332 -157.69700622558594,-3.5190000534057617 -9.569000244140625,110.13899993896484 C10.366000175476074,118.64299774169922 66.86599731445312,100.14299774169922 75.31800079345703,49.13800048828125 C79.45700073242188,24.158000946044922 61.176998138427734,-17.99799919128418 50.83100128173828,-44.34700012207031 C43.36600112915039,-63.356998443603516 44.36600112915039,-89.35700225830078 38.816001892089844,-103.5780029296875 C7.451000213623047,-122.05699920654297 -29.26300048828125,-97.98600006103516 -29.506000518798828,-74.88800048828125z"/></g></g><g style="display: block;" transform="matrix(1.100000023841858,0,0,1.100000023841858,-32.105133056640625,-33.398406982421875)" opacity="1"><g opacity="1" transform="matrix(1,0,0,1,248.01499938964844,154.73899841308594)"><path fill="rgb(252,206,44)" fill-opacity="1" d=" M10.579999923706055,91.33499908447266 C2.2869999408721924,71.0199966430664 -19.011999130249023,22.216999053955078 -27.638999938964844,6.123000144958496 C-34.159000396728516,-6.041999816894531 -43.54600143432617,-15.963000297546387 -52.79899978637695,-25.95400047302246 C-61.05799865722656,-34.87200164794922 -69.21099853515625,-43.84700012207031 -75.1240005493164,-54.52399826049805 C-88.46399688720703,-78.61199951171875 -65.53500366210938,-97.5479965209961 -50.209999084472656,-81.3030014038086 C-46.70800018310547,-77.59100341796875 -34.529998779296875,-64.64299774169922 -21.433000564575195,-50.321998596191406 C-6.422999858856201,-33.909000396728516 9.793999671936035,-15.692000389099121 15.53600025177002,-7.511000156402588 C26.510000228881836,8.121999740600586 42.05699920654297,37.1150016784668 52.1510009765625,56.25899887084961 C57.584999084472656,66.56600189208984 68.64199829101562,78.93399810791016 79.13600158691406,87.36699676513672"/></g></g><g style="display: block;" transform="matrix(1.100000023841858,0,0,1.100000023841858,-32.105133056640625,-33.398406982421875)" opacity="1"><g opacity="1" transform="matrix(1,0,0,1,243.93800354003906,153.25900268554688)"><path fill="rgb(255,215,93)" fill-opacity="1" d=" M-75.88400268554688,-58.952999114990234 C-77.63899993896484,-87.79499816894531 -56.257999420166016,-93.6729965209961 -40.79999923706055,-74.80400085449219 C-33.20100021362305,-65.5270004272461 -25.56399917602539,-57.268001556396484 -18.142000198364258,-49.48400115966797 C-6.0920000076293945,-36.845001220703125 5.390999794006348,-25.45800018310547 15.222000122070312,-12.996999740600586 C24.194000244140625,-1.6239999532699585 58.19499969482422,65.73400115966797 75.98500061035156,85.69499969482422 C52.30500030517578,81.4540023803711 41.395999908447266,46.70199966430664 10.199000358581543,1.9589999914169312 C3.2950000762939453,-7.941999912261963 -14.770999908447266,-27.575000762939453 -29.216999053955078,-43.779998779296875 C-36.12699890136719,-51.53099822998047 -42.20800018310547,-58.49800109863281 -45.84400177001953,-63.24100112915039 C-55.45899963378906,-75.78399658203125 -72.87699890136719,-81.93900299072266 -75.88400268554688,-58.952999114990234z"/></g></g><g style="display: block;" transform="matrix(1.100000023841858,0,0,1.100000023841858,-32.105133056640625,-33.398406982421875)" opacity="1"><g opacity="0.4" transform="matrix(1,0,0,1,228.26199340820312,148.68800354003906)"><path fill="rgb(240,146,1)" fill-opacity="1" d=" M60.53099822998047,85.85299682617188 C51.41600036621094,95.71600341796875 34.694000244140625,88.36499786376953 23.87700080871582,83.55699920654297 C16.191999435424805,60.00199890136719 -5.440000057220459,16.214000701904297 -16.408000946044922,-0.9229999780654907 C-27.232999801635742,-17.836999893188477 -42.21799850463867,-27.856000900268555 -50.472999572753906,-40.178001403808594 C-63.54999923706055,-59.698001861572266 -61.53200149536133,-70.07599639892578 -50.4010009765625,-78.3219985961914 C-53.39500045776367,-68.71600341796875 -53.9109992980957,-60.737998962402344 -43.0880012512207,-48.12799835205078 C-36.20399856567383,-40.106998443603516 -6.73199987411499,-10.12399959564209 -0.2280000001192093,2.186000108718872 C17.240999221801758,35.25 31.69099998474121,64.48100280761719 60.53099822998047,85.85299682617188z"/></g><g opacity="0.3" transform="matrix(1,0,0,1,228.26199340820312,148.68800354003906)"><path fill="rgb(240,146,1)" fill-opacity="1" d=" M67.01200103759766,86.55799865722656 C57.89699935913086,96.4209976196289 34.694000244140625,88.36499786376953 23.87700080871582,83.55699920654297 C16.191999435424805,60.00199890136719 -5.440000057220459,16.214000701904297 -16.408000946044922,-0.9229999780654907 C-27.232999801635742,-17.836999893188477 -42.21799850463867,-27.856000900268555 -50.472999572753906,-40.178001403808594 C-63.54999923706055,-59.698001861572266 -61.53200149536133,-70.07599639892578 -50.4010009765625,-78.3219985961914 C-50.6619987487793,-69.16699981689453 -50.85499954223633,-61.0099983215332 -40.03200149536133,-48.400001525878906 C-33.14799880981445,-40.37900161743164 -3.51200008392334,-11.437999725341797 2.992000102996826,0.871999979019165 C20.461000442504883,33.93600082397461 38.172000885009766,65.18599700927734 67.01200103759766,86.55799865722656z"/></g><g opacity="0.15" transform="matrix(1,0,0,1,228.26199340820312,148.68800354003906)"><path fill="rgb(240,146,1)" fill-opacity="1" d=" M70.5770034790039,86.23999786376953 C61.46200180053711,96.10299682617188 34.694000244140625,88.36499786376953 23.87700080871582,83.55699920654297 C16.191999435424805,60.00199890136719 -5.440000057220459,16.214000701904297 -16.408000946044922,-0.9229999780654907 C-27.232999801635742,-17.836999893188477 -42.21799850463867,-27.856000900268555 -50.472999572753906,-40.178001403808594 C-63.54999923706055,-59.698001861572266 -61.53200149536133,-70.07599639892578 -50.4010009765625,-78.3219985961914 C-49.0890007019043,-69.35700225830078 -48.12200164794922,-62.025001525878906 -37.29899978637695,-49.415000915527344 C-30.415000915527344,-41.39400100708008 -0.24699999392032623,-12.243000030517578 6.256999969482422,0.06700000166893005 C23.72599983215332,33.13100051879883 41.73699951171875,64.86799621582031 70.5770034790039,86.23999786376953z"/></g></g><g style="display: block;" transform="matrix(1.100000023841858,0,0,1.100000023841858,-32.105133056640625,-33.398406982421875)" opacity="1"><g opacity="1" transform="matrix(1,0,0,1,248.01499938964844,154.73899841308594)"><path stroke-linecap="round" stroke-linejoin="round" fill-opacity="0" stroke="rgb(225,124,0)" stroke-opacity="1" stroke-width="8" d=" M10.579999923706055,91.33499908447266 C2.2869999408721924,71.0199966430664 -19.011999130249023,22.216999053955078 -27.638999938964844,6.123000144958496 C-34.159000396728516,-6.041999816894531 -43.54600143432617,-15.963000297546387 -52.79899978637695,-25.95400047302246 C-61.05799865722656,-34.87200164794922 -69.21099853515625,-43.84700012207031 -75.1240005493164,-54.52399826049805 C-88.46399688720703,-78.61199951171875 -65.53500366210938,-97.5479965209961 -50.209999084472656,-81.3030014038086 C-46.70800018310547,-77.59100341796875 -34.529998779296875,-64.64299774169922 -21.433000564575195,-50.321998596191406 C-6.422999858856201,-33.909000396728516 9.793999671936035,-15.692000389099121 15.53600025177002,-7.511000156402588 C26.510000228881836,8.121999740600586 42.05699920654297,37.1150016784668 52.1510009765625,56.25899887084961 C57.584999084472656,66.56600189208984 68.64199829101562,78.93399810791016 79.13600158691406,87.36699676513672"/></g></g><g style="display: block;" transform="matrix(1.100000023841858,0,0,1.100000023841858,-32.1051025390625,-33.398406982421875)" opacity="1"><g opacity="1" transform="matrix(1,0,0,1,241.56399536132812,250.78799438476562)"><path fill="rgb(252,206,44)" fill-opacity="1" d=" M96.28299713134766,3.4560000896453857 C87.17900085449219,-14.894000053405762 66.44599914550781,-15.659000396728516 52.42499923706055,-20.996000289916992 C46.49300003051758,-23.253999710083008 8.435999870300293,-40.78799819946289 -5.6579999923706055,-46.04199981689453 C-18.525999069213867,-50.8390007019043 -30.32200050354004,-59.8129997253418 -48.70000076293945,-47.715999603271484 C-82.2229995727539,-25.650999069213867 -92.53900146484375,-17.93899917602539 -95.00399780273438,-4.434999942779541 C-97.09600067138672,7.0269999504089355 -100.60299682617188,48.361000061035156 -87.54399871826172,50.667999267578125 C-74.27300262451172,53.01300048828125 -59.650001525878906,53.665000915527344 -60.4010009765625,12.593000411987305 C-52.83399963378906,10.128999710083008 -41.5620002746582,5.3460001945495605 -35.00199890136719,-3.552000045776367 C-28.704999923706055,1.6959999799728394 -16.284000396728516,9.567999839782715 0.33500000834465027,3.619999885559082 C5.058000087738037,13.940999984741211 20.17300033569336,29.158000946044922 29.795000076293945,34.93000030517578"/></g></g><g style="display: block;" transform="matrix(1.100000023841858,0,0,1.100000023841858,-32.1051025390625,-33.398406982421875)" opacity="1"><g opacity="1" transform="matrix(1,0,0,1,245.7989959716797,244.1479949951172)"><path fill="rgb(255,215,93)" fill-opacity="1" d=" M-96.73500061035156,27.117000579833984 C-95.13700103759766,13.770000457763672 -91.4540023803711,2.0380001068115234 -87.2249984741211,-0.8259999752044678 C-78.697998046875,-6.603000164031982 -59.61600112915039,-18.868999481201172 -49.87699890136719,-26.360000610351562 C-42.2140007019043,-32.25400161743164 -36.34400177001953,-35.551998138427734 -24.027999877929688,-29.51099967956543 C-13.020999908447266,-24.113000869750977 30.84000015258789,-6.380000114440918 50.33000183105469,1.128000020980835 C58.36199951171875,4.2220001220703125 68.14099884033203,3.6029999256134033 75.32499694824219,12.444000244140625 C82.63400268554688,21.440000534057617 80.69100189208984,37.02899932861328 85.18900299072266,39.32899856567383 C89.02300262451172,41.28900146484375 96.02400207519531,10.081999778747559 87.4260025024414,2.7869999408721924 C83.49199676513672,-0.5509999990463257 83.41300201416016,-5.60699987411499 55.58000183105469,-12.340999603271484 C39.28099822998047,-16.28499984741211 -29.113000869750977,-52.87699890136719 -41.268001556396484,-46.933998107910156 C-47.917999267578125,-43.68299865722656 -81.94400024414062,-21.360000610351562 -92.6510009765625,-11.548999786376953 C-98.48200225830078,-6.206999778747559 -99.90499877929688,11.82699966430664 -96.73500061035156,27.117000579833984z"/></g></g><g style="display: block;" transform="matrix(1.100000023841858,0,0,1.100000023841858,-32.1051025390625,-33.398406982421875)" opacity="1"><g opacity="0.6" transform="matrix(1,0,0,1,213.64100646972656,274.97198486328125)"><path fill="rgb(240,146,1)" fill-opacity="1" d=" M-11.366999626159668,-35.893001556396484 C-5.432000160217285,-43.608001708984375 4.34499979019165,-25.006000518798828 29.959999084472656,-28.18000030517578 C37.74700164794922,-29.145000457763672 38.012001037597656,-27.173999786376953 41.2760009765625,-21.249000549316406 C44.28099822998047,-15.789999961853027 58.27899932861328,-2.8469998836517334 66.95099639892578,1.5269999504089355 C77.0770034790039,6.635000228881836 58.72700119018555,49.481998443603516 30.104000091552734,65.13300323486328 C47.36399841308594,46.981998443603516 56.617000579833984,18.648000717163086 58.28200149536133,12.559000015258789 C47.125999450683594,6.414999961853027 32.696998596191406,-8.741000175476074 29.17300033569336,-19.503999710083008 C15.765000343322754,-17.17799949645996 5.0329999923706055,-19.39299964904785 -6.498000144958496,-27.731000900268555 C-12.774999618530273,-20.277000427246094 -26.767000198364258,-12.824000358581543 -32.64899826049805,-12.324000358581543 C-33.625,-5.631999969482422 -33.91299819946289,4.579999923706055 -36.91699981689453,14.673999786376953 C-40.64799880981445,27.208999633789062 -61.946998596191406,33.78300094604492 -67.19499969482422,13.059000015258789 C-57.83100128173828,20.079999923706055 -52.14500045776367,20.079999923706055 -48.60499954223633,16.615999221801758 C-40.19900131225586,8.388999938964844 -43.900001525878906,-19.375 -39.18899917602539,-19.024999618530273 C-33.54100036621094,-18.604999542236328 -20.089000701904297,-24.554000854492188 -11.366999626159668,-35.893001556396484z"/></g><g opacity="0.3" transform="matrix(1,0,0,1,213.64100646972656,274.97198486328125)"><path fill="rgb(240,146,1)" fill-opacity="1" d=" M-12.730999946594238,-39.07500076293945 C-6.796000003814697,-46.790000915527344 4.34499979019165,-28.8700008392334 29.959999084472656,-32.04399871826172 C37.74700164794922,-33.00899887084961 40.284000396728516,-29.673999786376953 43.54800033569336,-23.749000549316406 C46.553001403808594,-18.290000915527344 64.46099853515625,-7.4679999351501465 73.31400299072266,-3.4730000495910645 C86.90899658203125,2.6630001068115234 65.09100341796875,56.527000427246094 30.104000091552734,65.13300323486328 C47.590999603271484,47.095001220703125 56.617000579833984,18.648000717163086 58.28200149536133,12.559000015258789 C47.125999450683594,6.414999961853027 32.696998596191406,-8.741000175476074 29.17300033569336,-19.503999710083008 C15.765000343322754,-17.17799949645996 5.0329999923706055,-19.39299964904785 -6.498000144958496,-27.731000900268555 C-12.774999618530273,-20.277000427246094 -26.767000198364258,-12.824000358581543 -32.64899826049805,-12.324000358581543 C-33.625,-5.631999969482422 -33.91299819946289,4.579999923706055 -36.91699981689453,14.673999786376953 C-40.64799880981445,27.208999633789062 -61.946998596191406,33.78300094604492 -67.19499969482422,13.059000015258789 C-59.01100158691406,17.39900016784668 -54.06399917602539,16.136999130249023 -50.99300003051758,12.192000389099121 C-43.569000244140625,2.6559998989105225 -47.10599899291992,-22.55900001525879 -42.37099838256836,-22.207000732421875 C-36.722999572753906,-21.78700065612793 -21.452999114990234,-27.736000061035156 -12.730999946594238,-39.07500076293945z"/></g><g opacity="0.15" transform="matrix(1,0,0,1,213.64100646972656,274.97198486328125)"><path fill="rgb(240,146,1)" fill-opacity="1" d=" M-13.1850004196167,-43.16600036621094 C-7.25,-50.88100051879883 4.118000030517578,-32.96099853515625 29.732999801635742,-36.1349983215332 C37.52000045776367,-37.099998474121094 41.43199920654297,-32.78900146484375 46.2760009765625,-28.066999435424805 C51.45500183105469,-23.018999099731445 73.04000091552734,-9.91100025177002 82.40499877929688,-7.335999965667725 C96.4540023803711,-3.4730000495910645 74.63600158691406,60.39099884033203 30.104000091552734,65.13300323486328 C47.45000076293945,47.0620002746582 57.319000244140625,18.246999740600586 58.28200149536133,12.559000015258789 C47.125999450683594,6.414999961853027 32.696998596191406,-8.741000175476074 29.17300033569336,-19.503999710083008 C15.765000343322754,-17.17799949645996 5.0329999923706055,-19.39299964904785 -6.498000144958496,-27.731000900268555 C-12.774999618530273,-20.277000427246094 -26.767000198364258,-12.824000358581543 -32.64899826049805,-12.324000358581543 C-33.625,-5.631999969482422 -33.91299819946289,4.579999923706055 -36.91699981689453,14.673999786376953 C-40.64799880981445,27.208999633789062 -61.946998596191406,33.78300094604492 -67.19499969482422,13.059000015258789 C-59.6510009765625,15.543999671936035 -55.297000885009766,12.967000007629395 -52.7130012512207,8.168999671936035 C-46.729000091552734,-2.941999912261963 -50.22800064086914,-25.96299934387207 -45.553001403808594,-25.615999221801758 C-39.904998779296875,-25.195999145507812 -21.906999588012695,-31.82699966430664 -13.1850004196167,-43.16600036621094z"/></g></g><g style="display: block;" transform="matrix(1.100000023841858,0,0,1.100000023841858,-32.1051025390625,-33.398406982421875)" opacity="1"><g opacity="1" transform="matrix(1,0,0,1,241.56399536132812,250.78799438476562)"><path stroke-linecap="round" stroke-linejoin="round" fill-opacity="0" stroke="rgb(225,124,0)" stroke-opacity="1" stroke-width="8" d=" M96.28299713134766,3.4560000896453857 C87.17900085449219,-14.894000053405762 66.44599914550781,-15.659000396728516 52.42499923706055,-20.996000289916992 C46.49300003051758,-23.253999710083008 8.435999870300293,-40.78799819946289 -5.6579999923706055,-46.04199981689453 C-18.525999069213867,-50.8390007019043 -30.32200050354004,-59.8129997253418 -48.70000076293945,-47.715999603271484 C-82.2229995727539,-25.650999069213867 -92.53900146484375,-17.93899917602539 -95.00399780273438,-4.434999942779541 C-97.09600067138672,7.0269999504089355 -100.60299682617188,48.361000061035156 -87.54399871826172,50.667999267578125 C-74.27300262451172,53.01300048828125 -59.650001525878906,53.665000915527344 -60.4010009765625,12.593000411987305 C-52.83399963378906,10.128999710083008 -41.5620002746582,5.3460001945495605 -35.00199890136719,-3.552000045776367 C-28.704999923706055,1.6959999799728394 -16.284000396728516,9.567999839782715 0.33500000834465027,3.619999885559082 C5.058000087738037,13.940999984741211 20.17300033569336,29.158000946044922 29.795000076293945,34.93000030517578"/></g></g><g style="display: block;" transform="matrix(1.100000023841858,0,0,1.100000023841858,-32.1051025390625,-33.397308349609375)" opacity="1"><g opacity="1" transform="matrix(1,0,0,1,208.58999633789062,378.9169921875)"><path fill="rgb(252,206,44)" fill-opacity="1" d=" M63.01900100708008,-92.63200378417969 C57.415000915527344,-70.8280029296875 50.680999755859375,-45.89400100708008 27.18400001525879,-38.95800018310547 C7.354000091552734,-33.104000091552734 -18.80699920654297,-41.90399932861328 -23.013999938964844,-49.18299865722656 C-30.468000411987305,-62.08000183105469 -41.08599853515625,-71.02799987792969 -50.9630012512207,-78.4520034790039 C-64.23400115966797,-88.42500305175781 -80.54100036621094,-83.26300048828125 -82.89800262451172,-72.68299865722656 C-85.62799835205078,-60.42900085449219 -66.7699966430664,-36.29999923706055 -60.65800094604492,-21.493000030517578 C-51.10200119018555,1.6540000438690186 -11.121999740600586,9.038000106811523 7.138999938964844,25.94700050354004 C27.885000228881836,45.15999984741211 37.65999984741211,84.33200073242188 82.91699981689453,92.88200378417969 C82.91699981689453,92.88200378417969 24.141000747680664,38.14500045776367 18.565000534057617,-13.581000328063965 C35.59600067138672,-42.191001892089844 51.959999084472656,-41.28200149536133 63.01900100708008,-92.63200378417969z"/></g></g><g style="display: block;" transform="matrix(1.100000023841858,0,0,1.100000023841858,-32.1051025390625,-33.398406982421875)" opacity="1"><g opacity="1" transform="matrix(1,0,0,1,349.2409973144531,356.5360107421875)"><path fill="rgb(255,215,93)" fill-opacity="1" d=" M-9.491999626159668,-98.16100311279297 C-15.479000091552734,-105.20500183105469 -29.218000411987305,-101.83699798583984 -27.367000579833984,-98.68000030517578 C-20.19499969482422,-86.44999694824219 -21.875,-78.33899688720703 -18.70599937438965,-53.21500015258789 C-14.897000312805176,-23.017000198364258 -0.9610000252723694,5.341000080108643 5.374000072479248,29.2810001373291 C11.710000038146973,53.220001220703125 12.557000160217285,72.0770034790039 -3.308000087738037,102.31700134277344 C39.48400115966797,67.02300262451172 27.9689998626709,34.72600173950195 19.35099983215332,8.027000427246094 C14.817000389099121,-6.019999980926514 -0.593999981880188,-45.257999420166016 -2.8919999599456787,-58.9379997253418 C-4.459000110626221,-68.26300048828125 -4.9019999504089355,-85.33100128173828 -9.491999626159668,-98.16100311279297z"/></g></g><g style="display: block;" transform="matrix(1.100000023841858,0,0,1.100000023841858,-32.1051025390625,-33.397308349609375)" opacity="1"><g opacity="0.6" transform="matrix(1,0,0,1,199.3070068359375,322.6000061035156)"><path fill="rgb(255,215,93)" fill-opacity="1" d=" M-73.24700164794922,-9.170999526977539 C-53.529998779296875,-35.19200134277344 -21.643999099731445,14.35200023651123 -13.343999862670898,22.113000869750977 C-3.177000045776367,31.618999481201172 41.91699981689453,38.138999938964844 51.54800033569336,24.514999389648438 C66.92500305175781,2.763000011444092 66.92500305175781,-6.328999996185303 72.11599731445312,-36.21900177001953 C68.97100067138672,-21.917999267578125 59.367000579833984,5.085000038146973 45.26900100708008,13.333000183105469 C21.26799964904785,27.375 -6.439000129699707,13.928999900817871 -11.88599967956543,9.013999938964844 C-18.481000900268555,-3.5460000038146973 -36.821998596191406,-23.31100082397461 -50.507999420166016,-26.48200035095215 C-60.60300064086914,-28.81999969482422 -76.21199798583984,-25.906999588012695 -73.24700164794922,-9.170999526977539z"/></g><g opacity="0.3" transform="matrix(1,0,0,1,199.3070068359375,322.6000061035156)"><path fill="rgb(255,215,93)" fill-opacity="1" d=" M-73.24700164794922,-9.170999526977539 C-53.222999572753906,-32.573001861572266 -23.91699981689453,17.534000396728516 -15.616999626159668,25.295000076293945 C-5.449999809265137,34.80099868774414 43.96200180053711,43.138999938964844 53.59299850463867,29.514999389648438 C68.97000122070312,7.763000011444092 69.87899780273438,-9.282999992370605 72.11599731445312,-36.21900177001953 C68.97100067138672,-21.917999267578125 59.367000579833984,5.085000038146973 45.26900100708008,13.333000183105469 C21.26799964904785,27.375 -6.439000129699707,13.928999900817871 -11.88599967956543,9.013999938964844 C-18.481000900268555,-3.5460000038146973 -36.821998596191406,-23.31100082397461 -50.507999420166016,-26.48200035095215 C-60.60300064086914,-28.81999969482422 -76.21199798583984,-25.906999588012695 -73.24700164794922,-9.170999526977539z"/></g><g opacity="0.1" transform="matrix(1,0,0,1,199.3070068359375,322.6000061035156)"><path fill="rgb(255,215,93)" fill-opacity="1" d=" M-73.24700164794922,-9.170999526977539 C-53.301998138427734,-28.82900047302246 -25.507999420166016,19.351999282836914 -17.20800018310547,27.113000869750977 C-7.040999889373779,36.61899948120117 49.64400100708008,46.09299850463867 59.275001525878906,32.46900177001953 C74.6520004272461,10.717000007629395 74.197998046875,-19.51099967956543 72.11599731445312,-36.21900177001953 C68.97100067138672,-21.917999267578125 59.367000579833984,5.085000038146973 45.26900100708008,13.333000183105469 C21.26799964904785,27.375 -6.439000129699707,13.928999900817871 -11.88599967956543,9.013999938964844 C-18.481000900268555,-3.5460000038146973 -36.821998596191406,-23.31100082397461 -50.507999420166016,-26.48200035095215 C-60.60300064086914,-28.81999969482422 -76.21199798583984,-25.906999588012695 -73.24700164794922,-9.170999526977539z"/></g></g><g style="display: block;" transform="matrix(1.100000023841858,0,0,1.100000023841858,-32.1051025390625,-33.397308349609375)" opacity="1"><g opacity="0.5" transform="matrix(1,0,0,1,250.54800415039062,384.9169921875)"><path fill="rgb(240,146,1)" fill-opacity="1" d=" M126.89700317382812,21.79800033569336 C118.46099853515625,77.38899993896484 63.051998138427734,93.3550033569336 38.75699996948242,85.9729995727539 C-14.430000305175781,69.81300354003906 -13.086999893188477,34.233001708984375 -37.944000244140625,16.416000366210938 C-61.45199966430664,-0.4350000023841858 -94.76399993896484,-7.020999908447266 -101.54299926757812,-25.22599983215332 C-109.70800018310547,-47.15399932861328 -150.3419952392578,-86.17400360107422 -107.79100036621094,-87.66300201416016 C-139.08900451660156,-82.73699951171875 -100.51899719238281,-50.446998596191406 -94.9209976196289,-31.929000854492188 C-90.11399841308594,-16.02899932861328 -63.67100143432617,-12.567999839782715 -39.43000030517578,1.715000033378601 C-14.605999946594238,16.341999053955078 9.005999565124512,40.52299880981445 24.969999313354492,51.16899871826172 C87.95600128173828,93.1719970703125 120.45700073242188,57.49100112915039 126.89700317382812,21.79800033569336z"/></g><g opacity="0.4" transform="matrix(1,0,0,1,250.54800415039062,384.9169921875)"><path fill="rgb(240,146,1)" fill-opacity="1" d=" M126.89700317382812,21.79800033569336 C118.46099853515625,77.38899993896484 63.051998138427734,93.3550033569336 38.75699996948242,85.9729995727539 C-14.430000305175781,69.81300354003906 -13.086999893188477,34.233001708984375 -37.944000244140625,16.416000366210938 C-61.45199966430664,-0.4350000023841858 -94.76399993896484,-7.020999908447266 -101.54299926757812,-25.22599983215332 C-109.70800018310547,-47.15399932861328 -150.3419952392578,-86.17400360107422 -107.79100036621094,-87.66300201416016 C-135.22500610351562,-83.41799926757812 -98.54399871826172,-52.17300033569336 -92.64800262451172,-33.74800109863281 C-88.18000030517578,-19.783000946044922 -61.38600158691406,-13.708999633789062 -37.61199951171875,-2.6029999256134033 C-17.95199966430664,6.580999851226807 12.17300033569336,35.441001892089844 28.3799991607666,45.7140007019043 C85.68399810791016,82.03500366210938 118.18399810791016,56.808998107910156 126.89700317382812,21.79800033569336z"/></g><g opacity="0.3" transform="matrix(1,0,0,1,250.54800415039062,384.9169921875)"><path fill="rgb(240,146,1)" fill-opacity="1" d=" M126.89700317382812,21.79800033569336 C118.46099853515625,77.38899993896484 63.051998138427734,93.3550033569336 38.75699996948242,85.9729995727539 C-14.430000305175781,69.81300354003906 -13.086999893188477,34.233001708984375 -37.944000244140625,16.416000366210938 C-61.45199966430664,-0.4350000023841858 -94.76399993896484,-7.020999908447266 -101.54299926757812,-25.22599983215332 C-109.70800018310547,-47.15399932861328 -150.3419952392578,-86.17400360107422 -107.79100036621094,-87.66300201416016 C-128.86199951171875,-80.46399688720703 -93.03900146484375,-59.18199920654297 -89.9209976196289,-35.566001892089844 C-88.40699768066406,-24.10099983215332 -61.507999420166016,-17.659000396728516 -35.79399871826172,-6.238999843597412 C-12.043000221252441,4.309000015258789 15.585000038146973,30.892000198364258 31.788999557495117,41.16899871826172 C80.45700073242188,72.03600311279297 115.00199890136719,58.172000885009766 126.89700317382812,21.79800033569336z"/></g><g opacity="0.2" transform="matrix(1,0,0,1,250.54800415039062,384.9169921875)"><path fill="rgb(240,146,1)" fill-opacity="1" d=" M126.89700317382812,21.79800033569336 C118.46099853515625,77.38899993896484 63.051998138427734,93.3550033569336 38.75699996948242,85.9729995727539 C-14.430000305175781,69.81300354003906 -13.086999893188477,34.233001708984375 -37.944000244140625,16.416000366210938 C-61.45199966430664,-0.4350000023841858 -94.76399993896484,-7.020999908447266 -101.54299926757812,-25.22599983215332 C-109.70800018310547,-47.15399932861328 -150.3419952392578,-86.17400360107422 -107.79100036621094,-87.66300201416016 C-125.4520034790039,-81.37300109863281 -87.42400360107422,-61.64699935913086 -87.64800262451172,-36.93000030517578 C-87.7249984741211,-28.41900062561035 -59.41699981689453,-20.100000381469727 -33.29399871826172,-9.64900016784668 C-10.906999588012695,-0.6919999718666077 18.74799919128418,25.607999801635742 35.198001861572266,35.48699951171875 C86.59300231933594,66.35399627685547 116.59300231933594,49.76300048828125 126.89700317382812,21.79800033569336z"/></g><g opacity="0.1" transform="matrix(1,0,0,1,250.54800415039062,384.9169921875)"><path fill="rgb(240,146,1)" fill-opacity="1" d=" M126.89700317382812,21.79800033569336 C118.46099853515625,77.38899993896484 63.051998138427734,93.3550033569336 38.75699996948242,85.9729995727539 C-14.430000305175781,69.81300354003906 -13.086999893188477,34.233001708984375 -37.944000244140625,16.416000366210938 C-61.45199966430664,-0.4350000023841858 -94.76399993896484,-7.020999908447266 -101.54299926757812,-25.22599983215332 C-109.70800018310547,-47.15399932861328 -150.3419952392578,-86.17400360107422 -107.79100036621094,-87.66300201416016 C-123.86199951171875,-81.37300109863281 -79.52799987792969,-64.19599914550781 -84.9209976196289,-38.292999267578125 C-86.36199951171875,-31.37299919128418 -56.448001861572266,-22.277999877929688 -30.11199951171875,-12.37600040435791 C-7.498000144958496,-3.874000072479248 20.82699966430664,22.733999252319336 38.380001068115234,30.48699951171875 C86.13899993896484,51.58100128173828 116.59300231933594,47.94499969482422 126.89700317382812,21.79800033569336z"/></g></g><g style="display: block;" transform="matrix(1.100000023841858,0,0,1.100000023841858,-32.1051025390625,-33.397308349609375)" opacity="1"><g opacity="1" transform="matrix(1,0,0,1,208.58999633789062,378.9169921875)"><path stroke-linecap="round" stroke-linejoin="round" fill-opacity="0" stroke="rgb(225,124,0)" stroke-opacity="1" stroke-width="8" d=" M63.01900100708008,-92.63200378417969 C56.125999450683594,-71.71700286865234 50.680999755859375,-45.89400100708008 27.18400001525879,-38.95800018310547 C7.354000091552734,-33.104000091552734 -18.80699920654297,-41.90399932861328 -23.013999938964844,-49.18299865722656 C-30.468000411987305,-62.08000183105469 -41.08599853515625,-71.02799987792969 -50.9630012512207,-78.4520034790039 C-64.23400115966797,-88.42500305175781 -80.54100036621094,-83.26300048828125 -82.89800262451172,-72.68299865722656 C-85.62799835205078,-60.42900085449219 -66.7699966430664,-36.29999923706055 -60.65800094604492,-21.493000030517578 C-51.10200119018555,1.6540000438690186 -11.121999740600586,9.038000106811523 7.138999938964844,25.94700050354004 C27.885000228881836,45.15999984741211 37.65999984741211,84.33200073242188 82.91699981689453,92.88200378417969"/></g></g><g style="display: block;" transform="matrix(1.100000023841858,0,0,1.100000023841858,-32.1051025390625,-33.398406982421875)" opacity="1"><g opacity="1" transform="matrix(1,0,0,1,333.46099853515625,362.58099365234375)"><path stroke-linecap="round" stroke-linejoin="round" fill-opacity="0" stroke="rgb(225,124,0)" stroke-opacity="1" stroke-width="8" d=" M3.3259999752044678,-110.20700073242188 C10.520999908447266,-98.9010009765625 8.65999984741211,-77.86599731445312 16.011999130249023,-52.39400100708008 C20.673999786376953,-36.2400016784668 32.02899932861328,-12.07800006866455 38.3380012512207,11.62399959564209 C41.97700119018555,25.297000885009766 43.9370002746582,38.816001892089844 41.9640007019043,50.558998107910156 C36.67100143432617,82.06900024414062 3.5390000343322754,116.91899871826172 -40.24700164794922,109.4530029296875"/></g></g></g></svg>