<svg xmlns="http://www.w3.org/2000/svg" xmlns:xlink="http://www.w3.org/1999/xlink" viewBox="0 0 512 512" width="512" height="512" style="width: 100%; height: 100%; transform: translate3d(0,0,0);" preserveAspectRatio="xMidYMid meet"><defs><clipPath id="__lottie_element_27154"><rect width="512" height="512" x="0" y="0"/></clipPath></defs><g clip-path="url(#__lottie_element_27154)"><g style="display: block;" transform="matrix(1.0700000524520874,0,0,1.0700000524520874,-11.110016822814941,-17.020004272460938)" opacity="1"><g opacity="1" transform="matrix(1,0,0,1,336.3550109863281,257.4809875488281)"><path fill="rgb(252,206,44)" fill-opacity="1" d=" M-50.38199996948242,-59.52899932861328 C-53.60599899291992,-76.2300033569336 -76.25599670410156,-74.94100189208984 -92.33499908447266,-91.49500274658203 C-108.1050033569336,-107.73100280761719 -114.79499816894531,-135.58799743652344 -98.34100341796875,-148.02200317382812 C-81.88800048828125,-160.4550018310547 -72.57099914550781,-146.53500366210938 -61.5890007019043,-134.031005859375 C-45.124000549316406,-116.6500015258789 -14.51200008392334,-101.4280014038086 1.4539999961853027,-93.78700256347656 C26.645000457763672,-81.7300033569336 92.3949966430664,-58.98099899291992 105.8759994506836,18.433000564575195 C110.49099731445312,44.93299865722656 107.1709976196289,85.98100280761719 82.18900299072266,113.6969985961914 C52.45399856567383,146.68800354003906 -16.945999145507812,151.6580047607422 -43.42300033569336,154.52499389648438"/></g></g><g style="display: block;" transform="matrix(1.0700000524520874,0,0,1.0700000524520874,-11.110016822814941,-17.020004272460938)" opacity="1"><g opacity="1" transform="matrix(1,0,0,1,269.2560119628906,300.6210021972656)"><g opacity="1" transform="matrix(1,0,0,1,0,0)"><path fill="rgb(252,206,44)" fill-opacity="1" d=" M-19.652999877929688,-86.78399658203125 C16.493999481201172,-84.87100219726562 27.52199935913086,-92.76699829101562 12.661999702453613,-110.98500061035156 C65.49400329589844,-96.37100219726562 45.83599853515625,110.427001953125 24.382999420166016,112.48500061035156 C24.382999420166016,112.48500061035156 -0.10599999874830246,95.5989990234375 -1.25600004196167,66.37899780273438 C-1.25600004196167,66.37899780273438 -31.086999893188477,44.755001068115234 -25.256000518798828,13.378999710083008 C-25.256000518798828,13.378999710083008 -49.361000061035156,-13.039999961853027 -34.25600051879883,-41.62099838256836 C-34.25600051879883,-41.62099838256836 -62.29399871826172,-88.00800323486328 -19.652999877929688,-86.78399658203125"/></g></g></g><g style="display: block;" transform="matrix(1.0700000524520874,0,0,1.0700000524520874,-11.110016822814941,-17.020004272460938)" opacity="1"><g opacity="1" transform="matrix(1,0,0,1,340.5270080566406,257.71600341796875)"><path fill="rgb(255,215,93)" fill-opacity="1" d=" M-10.704999923706055,-98.08899688720703 C14.222999572753906,-86.71600341796875 77.2229995727539,-57.965999603271484 88.4990005493164,-18.145000457763672 C69.7229995727539,-45.46500015258789 33.974998474121094,-53.915000915527344 -9.994000434875488,-76.23300170898438 C-38.527000427246094,-90.71600341796875 -65.5260009765625,-103.71499633789062 -76.36100006103516,-126.49500274658203 C-86.56999969482422,-147.9600067138672 -102.73699951171875,-142.92599487304688 -103.15799713134766,-142.60299682617188 C-101.6520004272461,-146.2729949951172 -99.36699676513672,-149.4040069580078 -96.14800262451172,-151.6909942626953 C-83.9749984741211,-161.01800537109375 -71.10600280761719,-144.02999877929688 -60.50600051879883,-131.20399475097656 C-49.90299987792969,-118.37300109863281 -30.07699966430664,-106.24700164794922 -10.704999923706055,-98.08899688720703"/></g></g><g style="display: block;" transform="matrix(1.0700000524520874,0,0,1.0700000524520874,-40.53501892089844,4.647496223449707)" opacity="1"><g opacity="1" transform="matrix(1,0,0,1,330.89801025390625,217.19000244140625)"><path fill="rgb(255,215,93)" fill-opacity="1" d=" M38.47800064086914,-18.16200065612793 C45.21099853515625,-8.501999855041504 57.513999938964844,1.5609999895095825 71.9729995727539,5.769000053405762 C82.43399810791016,8.814000129699707 100.76399993896484,8.484000205993652 108.49099731445312,7.370999813079834 C115.85299682617188,6.310999870300293 117.822998046875,-7.729000091552734 114.52400207519531,-12.968999862670898 C79.60299682617188,-68.44000244140625 -1.1469999551773071,-76.43900299072266 15.782999992370605,-62.3129997253418 C22.33300018310547,-56.847999572753906 30.194000244140625,-52.20600128173828 31.417999267578125,-42.555999755859375 C32.35300064086914,-35.18899917602539 30.246999740600586,-29.97100067138672 38.47800064086914,-18.16200065612793z"/></g></g><g style="display: block;" transform="matrix(1.0700000524520874,0,0,1.0700000524520874,-11.110016822814941,-17.020004272460938)" opacity="1"><g opacity="1" transform="matrix(1,0,0,1,177.36099243164062,341.5509948730469)"><path fill="rgb(252,206,44)" fill-opacity="1" d=" M66.41400146484375,-25.875999450683594 C67.99700164794922,-16.5310001373291 10.335000038146973,-19.13599967956543 -24.208999633789062,-18.3700008392334 C-67.81800079345703,-17.402999877929688 -92.43499755859375,-19.71500015258789 -91.73999786376953,1.0399999618530273 C-90.92400360107422,25.381000518798828 -57.42100143432617,23.565000534057617 -6.758999824523926,22.288000106811523 C44.5880012512207,20.993999481201172 90.6050033569336,16.090999603271484 91.70099639892578,25.875999450683594"/></g></g><g style="display: block;" transform="matrix(1.0700000524520874,0,0,1.0700000524520874,-11.110016822814941,-17.020004272460938)" opacity="1"><g opacity="1" transform="matrix(1,0,0,1,148.44200134277344,288.35198974609375)"><path fill="rgb(252,206,44)" fill-opacity="1" d=" M95.33300018310547,27.322999954223633 C94.02899932861328,16.663999557495117 54.643001556396484,20.280000686645508 0.652999997138977,21.766000747680664 C-46.75699996948242,23.070999145507812 -93.97799682617188,26.06800079345703 -95.23799896240234,2.190000057220459 C-96.69200134277344,-25.351999282836914 -68.01399993896484,-18.39900016784668 -18.555999755859375,-20.062999725341797 C21.711999893188477,-21.417999267578125 85.56500244140625,-17.788999557495117 85.36799621582031,-27.322999954223633"/></g></g><g style="display: block;" transform="matrix(1.0700000524520874,0,0,1.0700000524520874,-11.110016822814941,-17.020004272460938)" opacity="1"><g opacity="1" transform="matrix(1,0,0,1,225.10800170898438,391.24200439453125)"><path fill="rgb(252,206,44)" fill-opacity="1" d=" M43.95199966430664,-23.81599998474121 C47.14799880981445,-15.991999626159668 0.8349999785423279,-15.479999542236328 -25.261999130249023,-15.130999565124512 C-54.35900115966797,-14.741999626159668 -67.16799926757812,-12.163000106811523 -68.05000305175781,3.3420000076293945 C-69.35800170898438,26.3439998626709 -31.607999801635742,24.257999420166016 -3.3389999866485596,23.358999252319336 C21.878999710083008,22.55699920654297 51.95399856567383,22.059999465942383 67.8219985961914,20.76300048828125"/></g></g><g style="display: block;" transform="matrix(1.0700000524520874,0,0,1.0700000524520874,-11.110016822814941,-17.020004272460938)" opacity="1"><g opacity="1" transform="matrix(1,0,0,1,165.0989990234375,235.9080047607422)"><path fill="rgb(252,206,44)" fill-opacity="1" d=" M84.50399780273438,-22.070999145507812 C69.33499908447266,-22.135000228881836 20.875999450683594,-23.81399917602539 4.743000030517578,-23.83799934387207 C-43.097999572753906,-23.908000946044922 -85.0979995727539,-32.409000396728516 -84.78800201416016,-6.289999961853027 C-84.49500274658203,18.34600067138672 -52.8120002746582,14.154999732971191 -14.100000381469727,15.571000099182129 C25.145000457763672,17.006999969482422 70.01100158691406,14.170999526977539 68.71099853515625,25.1200008392334"/></g></g><g style="display: block;" transform="matrix(1.0700000524520874,0,0,1.0700000524520874,-11.110016822814941,-17.020004272460938)" opacity="1"><g opacity="1" transform="matrix(1,0,0,1,179.93800354003906,224.75799560546875)"><path fill="rgb(255,215,93)" fill-opacity="1" d=" M99.06199645996094,-11.758000373840332 C91.06199645996094,-1.7580000162124634 79.96299743652344,3.5350000858306885 41.12699890136719,1.1430000066757202 C29.481000900268555,0.4259999990463257 12.060999870300293,-0.1899999976158142 -6.294000148773193,-1.0950000286102295 C-35.84700012207031,-2.552999973297119 -67.28399658203125,-3.562999963760376 -78.74700164794922,-0.014000000432133675 C-97.08699798583984,5.664000034332275 -90.25700378417969,15.470000267028809 -90.25700378417969,15.470000267028809 C-96.56999969482422,15.560999870300293 -100.06099700927734,7.730000019073486 -98.80899810791016,1.468999981880188 C-93.72799682617188,-23.93400001525879 -58.66400146484375,-13.470999717712402 -9.920999526977539,-12.630000114440918 C6.206999778747559,-12.35200023651123 99.06199645996094,-11.758000373840332 99.06199645996094,-11.758000373840332"/></g></g><g style="display: block;" transform="matrix(1.0700000524520874,0,0,1.0700000524520874,-11.110016822814941,-17.020004272460938)" opacity="1"><g opacity="1" transform="matrix(1,0,0,1,144.42799377441406,279.4729919433594)"><path fill="rgb(255,215,93)" fill-opacity="1" d=" M-72.21099853515625,19.04199981689453 C-72.21099853515625,19.04199981689453 -79.31700134277344,10.739999771118164 -69.14199829101562,4.829999923706055 C-57.04999923706055,-2.193000078201294 -22.42799949645996,1.2769999504089355 7.760000228881836,0.11900000274181366 C36.303001403808594,-0.9760000109672546 95.0719985961914,-2.2230000495910645 93.19300079345703,-19.04199981689453 C93.19300079345703,-19.04199981689453 82.96099853515625,-12.135000228881836 66.66300201416016,-12.04800033569336 C52.198001861572266,-11.970000267028809 31.236000061035156,-12.255000114440918 9.579999923706055,-12.444999694824219 C-30.22100067138672,-12.793999671936035 -72.36599731445312,-12.822999954223633 -80.83599853515625,-9.692999839782715 C-99.10399627685547,-2.938999891281128 -98.66500091552734,16.26799964904785 -72.21099853515625,19.04199981689453"/></g></g><g style="display: block;" transform="matrix(1.0700000524520874,0,0,1.0700000524520874,-11.110016822814941,-17.020004272460938)" opacity="1"><g opacity="1" transform="matrix(1,0,0,1,119.80400085449219,340.2799987792969)"><path fill="rgb(255,215,93)" fill-opacity="1" d=" M-7.255000114440918,15.531999588012695 C-7.255000114440918,15.531999588012695 -25.402999877929688,4.8420000076293945 -13.942999839782715,-5.39900016784668 C-6.802999973297119,-11.779999732971191 12.946000099182129,-10.029999732971191 33.10900115966797,-14.218999862670898 C33.10900115966797,-14.218999862670898 -16.70199966430664,-18.631000518798828 -26.95400047302246,-11.281000137329102 C-43.895999908447266,0.8659999966621399 -21.763999938964844,15.505999565124512 -9.755000114440918,15.531999588012695"/></g></g><g style="display: block;" transform="matrix(1.0700000524520874,0,0,1.0700000524520874,-11.110016822814941,-17.020004272460938)" opacity="1"><g opacity="1" transform="matrix(1,0,0,1,184.63999938964844,389.7919921875)"><path fill="rgb(255,215,93)" fill-opacity="1" d=" M-3.5859999656677246,13.489999771118164 C-3.5859999656677246,13.489999771118164 -16.281999588012695,6.072000026702881 -10.753000259399414,-0.6330000162124634 C-5.2230000495910645,-7.339000225067139 18.621000289916992,-9.0600004196167 28.37299919128418,-10.78600025177002 C28.37299919128418,-10.78600025177002 -16.115999221801758,-24.094999313354492 -26.393999099731445,-1.5520000457763672 C-36.672000885009766,20.990999221801758 -3.5859999656677246,13.489999771118164 -3.5859999656677246,13.489999771118164"/></g></g><g style="display: block;" transform="matrix(1.0700000524520874,0,0,1.0700000524520874,-11.110016822814941,-17.020004272460938)" opacity="1"><g opacity="0.5" transform="matrix(1,0,0,1,308.7309875488281,239.46200561523438)"><path fill="rgb(240,146,1)" fill-opacity="1" d=" M-72.4729995727539,-25.458999633789062 C-58.39400100708008,-21.452999114990234 -46.44900131225586,-20.724000930786133 -32.37799835205078,-21.874000549316406 C-23.231000900268555,-22.621999740600586 -14.935999870300293,-29.280000686645508 -13.039999961853027,-34.65299987792969 C-11.16100025177002,-39.97600173950195 -7.927000045776367,-53.69599914550781 -33.611000061035156,-63.53200149536133 C-42.94200134277344,-67.1050033569336 -57.926998138427734,-76.125 -64.75900268554688,-86.34200286865234 C-74.49700164794922,-100.90399932861328 -75.68399810791016,-117.71399688720703 -69.54399871826172,-129.42300415039062 C-84.27999877929688,-119.58100128173828 -77.50499725341797,-92.77999877929688 -70.44100189208984,-81.24099731445312 C-55.73099899291992,-57.21200180053711 -19.481000900268555,-56.71200180053711 -21.99799919128418,-35.04800033569336 C-22.38599967956543,-31.711999893188477 -34.67900085449219,-22.854999542236328 -72.4729995727539,-25.458999633789062z"/></g><g opacity="0.3" transform="matrix(1,0,0,1,308.7309875488281,239.46200561523438)"><path fill="rgb(240,146,1)" fill-opacity="1" d=" M-72.4729995727539,-25.458999633789062 C-58.39400100708008,-21.452999114990234 -48.698001861572266,-18.882999420166016 -32.14400100708008,-19.53700065612793 C-28.01799964904785,-19.700000762939453 -23.98900032043457,-18.790000915527344 -20.347000122070312,-20.593000411987305 C-14.779999732971191,-23.350000381469727 -10.118000030517578,-29.63599967956543 -7.394999980926514,-33.75199890136719 C-4.88100004196167,-37.553001403808594 -5.239999771118164,-43.29899978637695 -8.663000106811523,-50.09000015258789 C-10.182000160217285,-53.104000091552734 -13.418000221252441,-60.821998596191406 -32.09199905395508,-66.56900024414062 C-42.20899963378906,-69.68299865722656 -53.25400161743164,-77.05999755859375 -61.72200012207031,-88.56199645996094 C-72.10800170898438,-102.66899871826172 -73.93099975585938,-119.11599731445312 -69.54399871826172,-129.42300415039062 C-84.27999877929688,-119.58100128173828 -77.50499725341797,-92.77999877929688 -70.44100189208984,-81.24099731445312 C-55.73099899291992,-57.21200180053711 -19.481000900268555,-56.71200180053711 -21.99799919128418,-35.04800033569336 C-22.38599967956543,-31.711999893188477 -34.67900085449219,-22.854999542236328 -72.4729995727539,-25.458999633789062z"/></g><g opacity="0.2" transform="matrix(1,0,0,1,308.7309875488281,239.46200561523438)"><path fill="rgb(240,146,1)" fill-opacity="1" d=" M-72.4729995727539,-25.458999633789062 C-57.34199905395508,-20.75200080871582 -46.189998626708984,-15.847999572753906 -32.61199951171875,-17.083999633789062 C-23.11400032043457,-17.947999954223633 -22.726999282836914,-10.383999824523926 -16.625,-13.588000297546387 C-11.012999534606934,-16.53499984741211 -5.824999809265137,-22.386999130249023 0.296999990940094,-34.40700149536133 C3.562999963760376,-40.81999969482422 3.9609999656677246,-43.69200134277344 -4.796000003814697,-54.012001037597656 C-11.664999961853027,-62.106998443603516 -14.001999855041504,-63.97600173950195 -30.222999572753906,-69.37300109863281 C-39.303001403808594,-72.39399719238281 -51.01300048828125,-79.4469985961914 -58.80099868774414,-90.66500091552734 C-71.01100158691406,-108.25199890136719 -71.02999877929688,-119.33100128173828 -69.54399871826172,-129.42300415039062 C-84.27999877929688,-119.58100128173828 -77.50499725341797,-92.77999877929688 -70.44100189208984,-81.24099731445312 C-55.73099899291992,-57.21200180053711 -19.481000900268555,-56.71200180053711 -21.99799919128418,-35.04800033569336 C-22.38599967956543,-31.711999893188477 -34.67900085449219,-22.854999542236328 -72.4729995727539,-25.458999633789062z"/></g><g opacity="0.18" transform="matrix(1,0,0,1,308.7309875488281,239.46200561523438)"><path fill="rgb(240,146,1)" fill-opacity="1" d=" M-72.4729995727539,-25.458999633789062 C-58.74399948120117,-22.270999908447266 -47.29600143432617,-14.677000045776367 -33.66299819946289,-14.513999938964844 C-29.268999099731445,-14.461000442504883 -27.44700050354004,-13.402999877929688 -26.375,-10.36400032043457 C-22.447999954223633,0.7519999742507935 -17.298999786376953,26.208999633789062 -1.309000015258789,37.4630012512207 C10.519000053405762,45.78799819946289 24.923999786376953,48.573001861572266 36.823001861572266,41.91400146484375 C47.76900100708008,35.78799819946289 21.518999099731445,43.78799819946289 3.996999979019165,13.96399974822998 C-5.2820000648498535,-1.8300000429153442 0.48500001430511475,-16.312999725341797 5.321000099182129,-27.631999969482422 C12.77400016784668,-45.07500076293945 9.128999710083008,-49.02299880981445 1.0959999561309814,-57.66699981689453 C-6.006999969482422,-65.30899810791016 -11.559000015258789,-72.62799835205078 -26.60099983215332,-74.0459976196289 C-35.029998779296875,-74.84100341796875 -44.61000061035156,-80.33200073242188 -55.18000030517578,-92.76799774169922 C-61.92399978637695,-100.7030029296875 -69.60900115966797,-118.18199920654297 -69.54399871826172,-129.42300415039062 C-84.27999877929688,-119.58100128173828 -77.50499725341797,-92.77999877929688 -70.44100189208984,-81.24099731445312 C-55.73099899291992,-57.21200180053711 -19.481000900268555,-56.71200180053711 -21.99799919128418,-35.04800033569336 C-22.38599967956543,-31.711999893188477 -34.67900085449219,-22.854999542236328 -72.4729995727539,-25.458999633789062z"/></g></g><g style="display: block;" transform="matrix(1.0700000524520874,0,0,1.0700000524520874,-11.110016822814941,-17.020004272460938)" opacity="1"><g opacity="0.5" transform="matrix(1,0,0,1,159.3979949951172,240.49200439453125)"><path fill="rgb(240,146,1)" fill-opacity="1" d=" M-70.30699920654297,-22.204999923706055 C-70.30699920654297,-22.204999923706055 -81.84200286865234,-5.076000213623047 -54.5369987487793,0.7749999761581421 C-42.16600036621094,3.4260001182556152 -7.631999969482422,3.9140000343322754 -6.736999988555908,3.928999900817871 C10.041999816894531,4.215000152587891 27.459999084472656,3.9040000438690186 41.8650016784668,4.728000164031982 C67.06300354003906,6.170000076293945 78.78800201416016,7.77400016784668 80.46900177001953,23.930999755859375 C81.05000305175781,29.511999130249023 79.24199676513672,30.264999389648438 70.83300018310547,31.37700080871582 C61.14899826049805,32.65700149536133 18.742000579833984,34.292999267578125 -14.098999977111816,29.628999710083008 C9.86400032043457,25.18000030517578 62.66699981689453,31.138999938964844 73.69300079345703,20.920000076293945 C73.9990005493164,20.156999588012695 73.2979965209961,13.49899959564209 57.2859992980957,12.347000122070312 C48.165000915527344,11.690999984741211 18.773000717163086,11.425000190734863 -7.129000186920166,10.725000381469727 C-25.558000564575195,10.22700023651123 -42.22600173950195,9.62399959564209 -48.590999603271484,8.861000061035156 C-63.90399932861328,7.026000022888184 -81.81999969482422,5.039999961853027 -78.26399993896484,-12.336999893188477 C-76.8290023803711,-19.347999572753906 -70.30699920654297,-22.204999923706055 -70.30699920654297,-22.204999923706055"/></g><g opacity="0.3" transform="matrix(1,0,0,1,159.3979949951172,240.49200439453125)"><path fill="rgb(240,146,1)" fill-opacity="1" d=" M-70.30699920654297,-22.204999923706055 C-70.30699920654297,-22.204999923706055 -77.45700073242188,-7.619999885559082 -53.36800003051758,-3.5480000972747803 C-40.893001556396484,-1.4390000104904175 -7.631999969482422,-0.7590000033378601 -6.736999988555908,-0.7440000176429749 C10.041999816894531,-0.4580000042915344 27.57699966430664,-0.18400000035762787 41.981998443603516,0.6399999856948853 C67.18000030517578,2.0820000171661377 82.28500366210938,5.579999923706055 83.85700225830078,30.23900032043457 C84.27899932861328,36.862998962402344 79.86599731445312,33.30799865722656 71.41699981689453,34.06399917602539 C61.03200149536133,34.99399948120117 18.625,36.1619987487793 -14.098999977111816,29.628999710083008 C9.86400032043457,25.18000030517578 62.66699981689453,31.138999938964844 73.69300079345703,20.920000076293945 C73.9990005493164,20.156999588012695 73.2979965209961,13.49899959564209 57.2859992980957,12.347000122070312 C48.165000915527344,11.690999984741211 18.773000717163086,11.425000190734863 -7.129000186920166,10.725000381469727 C-25.558000564575195,10.22700023651123 -42.22600173950195,9.62399959564209 -48.590999603271484,8.861000061035156 C-63.90399932861328,7.026000022888184 -81.81999969482422,5.039999961853027 -78.26399993896484,-12.336999893188477 C-76.8290023803711,-19.347999572753906 -70.30699920654297,-22.204999923706055 -70.30699920654297,-22.204999923706055"/></g><g opacity="0.1" transform="matrix(1,0,0,1,159.3979949951172,240.49200439453125)"><path fill="rgb(240,146,1)" fill-opacity="1" d=" M-70.30699920654297,-22.204999923706055 C-70.30699920654297,-22.204999923706055 -75.93900299072266,-11.008000373840332 -51.849998474121094,-6.935999870300293 C-39.375,-4.827000141143799 -7.39900016784668,-4.38100004196167 -6.504000186920166,-4.366000175476074 C10.274999618530273,-4.079999923706055 27.343000411987305,-3.9230000972747803 41.74800109863281,-3.0989999771118164 C66.94599914550781,-1.656999945640564 87.59200286865234,3.9049999713897705 85.3759994506836,36.08000183105469 C84.62999725341797,46.909000396728516 80.5999984741211,36.073001861572266 72.11799621582031,36.16699981689453 C61.965999603271484,36.27899932861328 18.041000366210938,37.33000183105469 -14.098999977111816,29.628999710083008 C9.86400032043457,25.18000030517578 62.66699981689453,31.138999938964844 73.69300079345703,20.920000076293945 C73.9990005493164,20.156999588012695 73.2979965209961,13.49899959564209 57.2859992980957,12.347000122070312 C48.165000915527344,11.690999984741211 18.773000717163086,11.425000190734863 -7.129000186920166,10.725000381469727 C-25.558000564575195,10.22700023651123 -42.22600173950195,9.62399959564209 -48.590999603271484,8.861000061035156 C-63.90399932861328,7.026000022888184 -81.81999969482422,5.039999961853027 -78.26399993896484,-12.336999893188477 C-76.8290023803711,-19.347999572753906 -70.30699920654297,-22.204999923706055 -70.30699920654297,-22.204999923706055"/></g></g><g style="display: block;" transform="matrix(1.0700000524520874,0,0,1.0700000524520874,-11.110016822814941,-17.020004272460938)" opacity="1"><g opacity="0.5" transform="matrix(1,0,0,1,150.9219970703125,296.072998046875)"><path fill="rgb(240,146,1)" fill-opacity="1" d=" M-90.09700012207031,-21.145999908447266 C-90.09700012207031,-21.145999908447266 -104.23100280761719,0.20200000703334808 -66.9020004272461,5.4679999351501465 C-49.534000396728516,7.918000221252441 -17.992000579833984,6.24399995803833 6.821000099182129,6.36899995803833 C12.965999603271484,6.400000095367432 28.947999954223633,5.934999942779541 36.74800109863281,5.770999908447266 C78.97000122070312,4.88100004196167 96.84400177001953,2.5439999103546143 98.1050033569336,21.378999710083008 C98.3219985961914,24.615999221801758 97.0780029296875,27.777999877929688 90.4739990234375,29.01300048828125 C80.5459976196289,30.8700008392334 20.792999267578125,34.202999114990234 -21.29199981689453,29.875999450683594 C37.26499938964844,28.59600067138672 92.40499877929688,26.959999084472656 93.03199768066406,20.91200065612793 C93.2040023803711,19.256999969482422 93.33999633789062,11.42300033569336 61.941001892089844,12.08899974822998 C52.691001892089844,12.28499984741211 35.94200134277344,12.892999649047852 17.575000762939453,13.024999618530273 C-14.842000007629395,13.256999969482422 -52.263999938964844,12.956000328063965 -62.17599868774414,12.274999618530273 C-77.7040023803711,11.208000183105469 -111.2760009765625,5.443999767303467 -90.09700012207031,-21.145999908447266"/></g><g opacity="0.3" transform="matrix(1,0,0,1,150.9219970703125,296.072998046875)"><path fill="rgb(240,146,1)" fill-opacity="1" d=" M-90.09700012207031,-21.145999908447266 C-90.09700012207031,-21.145999908447266 -100.7020034790039,-4.3480000495910645 -68.88800048828125,0.09399999678134918 C-48.69200134277344,2.9140000343322754 -24.458999633789062,2.365000009536743 6.002999782562256,2.0460000038146973 C8.461999893188477,2.0199999809265137 28.481000900268555,1.7289999723434448 36.28099822998047,1.565000057220459 C78.50299835205078,0.675000011920929 98.24600219726562,-3.296999931335449 101.49299621582031,24.533000946044922 C102.36000061035156,31.968000411987305 98.9000015258789,28.25200080871582 90.58999633789062,30.065000534057617 C80.72200012207031,32.21799850463867 20.559999465942383,35.37099838256836 -21.29199981689453,29.875999450683594 C37.26499938964844,28.59600067138672 92.40499877929688,26.959999084472656 93.03199768066406,20.91200065612793 C93.2040023803711,19.256999969482422 93.33999633789062,11.42300033569336 61.941001892089844,12.08899974822998 C52.691001892089844,12.28499984741211 35.94200134277344,12.892999649047852 17.575000762939453,13.024999618530273 C-14.842000007629395,13.256999969482422 -52.263999938964844,12.956000328063965 -62.17599868774414,12.274999618530273 C-77.7040023803711,11.208000183105469 -111.2760009765625,5.443999767303467 -90.09700012207031,-21.145999908447266"/></g><g opacity="0.1" transform="matrix(1,0,0,1,150.9219970703125,296.072998046875)"><path fill="rgb(240,146,1)" fill-opacity="1" d=" M-90.09700012207031,-21.145999908447266 C-90.09700012207031,-21.145999908447266 -98.86199951171875,-8.20300006866455 -69.70600128173828,-4.461999893188477 C-49.47999954223633,-1.8660000562667847 -25.51099967956543,-1.6069999933242798 4.951000213623047,-1.9259999990463257 C7.409999847412109,-1.9520000219345093 27.07900047302246,-2.359999895095825 34.87900161743164,-2.5239999294281006 C77.10099792480469,-3.4140000343322754 100.58300018310547,-6.567999839782715 104.53099822998047,27.687999725341797 C105.38800048828125,35.124000549316406 99.2509994506836,29.53700065612793 90.94100189208984,31.350000381469727 C81.072998046875,33.50299835205078 20.676000595092773,36.540000915527344 -21.29199981689453,29.875999450683594 C37.26499938964844,28.59600067138672 92.40499877929688,26.959999084472656 93.03199768066406,20.91200065612793 C93.2040023803711,19.256999969482422 93.33999633789062,11.42300033569336 61.941001892089844,12.08899974822998 C52.691001892089844,12.28499984741211 35.94200134277344,12.892999649047852 17.575000762939453,13.024999618530273 C-14.842000007629395,13.256999969482422 -52.263999938964844,12.956000328063965 -62.17599868774414,12.274999618530273 C-77.7040023803711,11.208000183105469 -111.2760009765625,5.443999767303467 -90.09700012207031,-21.145999908447266"/></g></g><g style="display: block;" transform="matrix(1.0700000524520874,0,0,1.0700000524520874,-11.110016822814941,-17.020004272460938)" opacity="1"><g opacity="0.5" transform="matrix(1,0,0,1,179.3260040283203,350.71099853515625)"><path fill="rgb(240,146,1)" fill-opacity="1" d=" M-87.65899658203125,-18.270000457763672 C-87.65899658203125,-18.270000457763672 -98.73200225830078,2.1110000610351562 -58.32099914550781,5.4070000648498535 C-51.53499984741211,5.960000038146973 -30.041000366210938,5.382999897003174 -3.7709999084472656,4.9770002365112305 C27.645999908447266,4.492000102996826 60.380001068115234,2.928999900817871 69.05799865722656,3.118000030517578 C76.73400115966797,3.2850000858306885 81.5250015258789,2.930000066757202 84.53900146484375,4.543000221252441 C89.14099884033203,7.00600004196167 94.84300231933594,15.196000099182129 95.16899871826172,20.270000457763672 C95.38400268554688,23.615999221801758 94.95899963378906,24.658000946044922 89.59600067138672,26.093000411987305 C75.95700073242188,29.742000579833984 39.70199966430664,30.14900016784668 13.230999946594238,26.90999984741211 C27.43600082397461,24.308000564575195 91.9219970703125,25.826000213623047 91.322998046875,18.270000457763672 C90.322998046875,5.64300012588501 13.423999786376953,14.789999961853027 -54.91299819946289,13.39900016784668 C-71.322998046875,13.0649995803833 -91.47000122070312,9.338000297546387 -93.69000244140625,-4.046999931335449 C-95.91000366210938,-17.430999755859375 -87.65899658203125,-18.270000457763672 -87.65899658203125,-18.270000457763672"/></g><g opacity="0.3" transform="matrix(1,0,0,1,179.3260040283203,350.71099853515625)"><path fill="rgb(240,146,1)" fill-opacity="1" d=" M-87.65899658203125,-18.270000457763672 C-87.65899658203125,-18.270000457763672 -97.21299743652344,-1.159000039100647 -58.4379997253418,1.5520000457763672 C-55.81700134277344,1.7350000143051147 -31.326000213623047,1.6440000534057617 -4.355000019073486,1.121999979019165 C27.059999465942383,0.5139999985694885 61.26300048828125,-0.34700000286102295 69.05799865722656,-0.7369999885559082 C79.8239974975586,-1.2760000228881836 80.4729995727539,-5.13100004196167 84.53900146484375,-0.9480000138282776 C92.4749984741211,7.2170000076293945 97.8550033569336,17.2810001373291 99.14099884033203,25.059999465942383 C99.86599731445312,29.447999954223633 97.70800018310547,25.77899932861328 89.83000183105469,27.4950008392334 C76.03399658203125,30.499000549316406 38.6510009765625,31.551000595092773 13.230999946594238,26.90999984741211 C27.43600082397461,24.308000564575195 91.9219970703125,25.826000213623047 91.322998046875,18.270000457763672 C90.322998046875,5.64300012588501 13.423999786376953,14.789999961853027 -54.91299819946289,13.39900016784668 C-71.322998046875,13.0649995803833 -91.47000122070312,9.338000297546387 -93.69000244140625,-4.046999931335449 C-95.91000366210938,-17.430999755859375 -87.65899658203125,-18.270000457763672 -87.65899658203125,-18.270000457763672"/></g><g opacity="0.1" transform="matrix(1,0,0,1,179.3260040283203,350.71099853515625)"><path fill="rgb(240,146,1)" fill-opacity="1" d=" M-87.65899658203125,-18.270000457763672 C-87.65899658203125,-18.270000457763672 -92.7750015258789,-3.7290000915527344 -58.90599822998047,-2.069000005722046 C-52.354000091552734,-1.7480000257492065 -31.694000244140625,-1.8660000562667847 -4.5879998207092285,-2.1489999294281006 C26.83099937438965,-2.4760000705718994 61.380001068115234,-3.1510000228881836 69.17500305175781,-3.5409998893737793 C79.94100189208984,-4.079999923706055 77.25499725341797,-11.772000312805176 85.00599670410156,-4.920000076293945 C93.53700256347656,2.621000051498413 99.927001953125,18.003000259399414 100.30899810791016,25.878000259399414 C100.68399810791016,33.59600067138672 98.40799713134766,26.83099937438965 90.52999877929688,28.547000885009766 C76.73400115966797,31.551000595092773 39.23500061035156,32.83599853515625 13.230999946594238,26.90999984741211 C27.43600082397461,24.308000564575195 91.9219970703125,25.826000213623047 91.322998046875,18.270000457763672 C90.322998046875,5.64300012588501 13.423999786376953,14.789999961853027 -54.91299819946289,13.39900016784668 C-71.322998046875,13.0649995803833 -91.47000122070312,9.338000297546387 -93.69000244140625,-4.046999931335449 C-95.91000366210938,-17.430999755859375 -87.65899658203125,-18.270000457763672 -87.65899658203125,-18.270000457763672"/></g></g><g style="display: block;" transform="matrix(1.0700000524520874,0,0,1.0700000524520874,-11.110016822814941,-17.020004272460938)" opacity="1"><g opacity="0.5" transform="matrix(1,0,0,1,231.7239990234375,401.0459899902344)"><path fill="rgb(240,146,1)" fill-opacity="1" d=" M-74.83699798583984,-5.00600004196167 C-74.3270034790039,8.319999694824219 -53.9010009765625,15.918000221252441 -10.196999549865723,13.074000358581543 C14.300000190734863,11.479999542236328 45.33100128173828,12.256999969482422 61.19499969482422,10.954999923706055 C61.19499969482422,10.954999923706055 61.20800018310547,10.954000473022461 61.20800018310547,10.954000473022461 C75.66300201416016,9.571999549865723 155.76199340820312,4.113999843597412 186.7949981689453,-29.926000595092773 C207.0489959716797,-52.141998291015625 215.5749969482422,-85.60600280761719 210.38699340820312,-124.90699768066406 C209.5229949951172,-131.45199584960938 201.7899932861328,-170.88600158691406 173.33799743652344,-196.5540008544922 C179.12600708007812,-190.51300048828125 192.44500732421875,-177.4290008544922 199.79200744628906,-139.56199645996094 C202.6479949951172,-124.84300231933594 203.1230010986328,-104.88999938964844 200.86500549316406,-88.46299743652344 C196.64999389648438,-57.803001403808594 184.73399353027344,-42.14799880981445 168.79299926757812,-29.589000701904297 C138.0760040283203,-5.388000011444092 95.71600341796875,-4.064000129699707 72.58300018310547,-0.33000001311302185 C67.65499877929688,0.4650000035762787 55.99599838256836,3.2090001106262207 32.59000015258789,4.275000095367432 C11.720000267028809,5.22599983215332 -10.16100025177002,5.690000057220459 -11.083999633789062,5.751999855041504 C-14.553999900817871,5.986999988555908 -18.527000427246094,5.985000133514404 -22.35099983215332,6.145999908447266 C-36.26499938964844,6.730999946594238 -53.053001403808594,6.59499979019165 -60.50400161743164,2.7339999675750732 C-74.1449966430664,-4.334000110626221 -70.75299835205078,-13.062000274658203 -70.95700073242188,-14.131999969482422 C-72.87999725341797,-12.95199966430664 -75.0250015258789,-9.932999610900879 -74.83699798583984,-5.00600004196167z"/></g><g opacity="0.25" transform="matrix(1,0,0,1,231.7239990234375,401.0459899902344)"><path fill="rgb(240,146,1)" fill-opacity="1" d=" M-74.83699798583984,-5.00600004196167 C-74.3270034790039,8.319999694824219 -53.9010009765625,15.918000221252441 -10.196999549865723,13.074000358581543 C14.300000190734863,11.479999542236328 45.33100128173828,12.256999969482422 61.19499969482422,10.954999923706055 C61.19499969482422,10.954999923706055 61.20800018310547,10.954000473022461 61.20800018310547,10.954000473022461 C75.66300201416016,9.571999549865723 155.76199340820312,4.113999843597412 186.7949981689453,-29.926000595092773 C207.0489959716797,-52.141998291015625 215.5749969482422,-85.60600280761719 210.38699340820312,-124.90699768066406 C209.5229949951172,-131.45199584960938 201.7899932861328,-170.88600158691406 173.33799743652344,-196.5540008544922 C186.36900329589844,-187.47500610351562 195.36500549316406,-162.70899963378906 195.93600463867188,-138.86099243164062 C196.28500366210938,-124.29100036621094 194.0800018310547,-120.65299987792969 191.218994140625,-115.04900360107422 C189.50900268554688,-111.6989974975586 188.47300720214844,-107.21900177001953 189.48899841308594,-103.71600341796875 C190.3679962158203,-100.68800354003906 192.7949981689453,-95.53600311279297 193.15499877929688,-90.56500244140625 C195.0240020751953,-64.75900268554688 179.593994140625,-44.48500061035156 164.58799743652344,-33.444000244140625 C131.00100708007812,-8.732999801635742 94.1259994506836,-10.348999977111816 70.24600219726562,-4.886000156402588 C63.5890007019043,-3.36299991607666 55.29499816894531,-0.16899999976158142 31.888999938964844,0.8970000147819519 C11.019000053405762,1.8480000495910645 -10.628999710083008,2.427999973297119 -11.552000045776367,2.490999937057495 C-15.022000312805176,2.7260000705718994 -18.9950008392334,2.806999921798706 -22.819000244140625,2.9679999351501465 C-36.733001708984375,3.552999973297119 -52.94499969482422,3.2639999389648438 -60.27000045776367,-0.9789999723434448 C-71.69100189208984,-7.59499979019165 -70.75299835205078,-13.062000274658203 -70.95700073242188,-14.131999969482422 C-72.87999725341797,-12.95199966430664 -75.0250015258789,-9.932999610900879 -74.83699798583984,-5.00600004196167z"/></g><g opacity="0.15" transform="matrix(1,0,0,1,231.7239990234375,401.0459899902344)"><path fill="rgb(240,146,1)" fill-opacity="1" d=" M-74.83699798583984,-5.00600004196167 C-74.3270034790039,8.319999694824219 -53.9010009765625,15.918000221252441 -10.196999549865723,13.074000358581543 C14.300000190734863,11.479999542236328 45.33100128173828,12.256999969482422 61.19499969482422,10.954999923706055 C61.19499969482422,10.954999923706055 61.20800018310547,10.954000473022461 61.20800018310547,10.954000473022461 C75.66300201416016,9.571999549865723 155.76199340820312,4.113999843597412 186.7949981689453,-29.926000595092773 C207.0489959716797,-52.141998291015625 215.5749969482422,-85.60600280761719 210.38699340820312,-124.90699768066406 C209.5229949951172,-131.45199584960938 201.7899932861328,-170.88600158691406 173.33799743652344,-196.5540008544922 C186.36900329589844,-187.47500610351562 193.72999572753906,-161.7740020751953 193.13299560546875,-138.86099243164062 C192.7530059814453,-124.29199981689453 186.0189971923828,-116.7979965209961 181.05499267578125,-114.46499633789062 C175.65899658203125,-111.9280014038086 175.73899841308594,-108.03600311279297 180.0260009765625,-105.11699676513672 C183.7209930419922,-102.60099792480469 185.18099975585938,-98.15499877929688 186.49600219726562,-93.72000122070312 C194.5469970703125,-66.56500244140625 172.55799865722656,-46.582000732421875 160.96600341796875,-38.117000579833984 C124.57099914550781,-11.541000366210938 88.8219985961914,-18.43400001525879 68.0260009765625,-9.90999984741211 C63.40700149536133,-8.017000198364258 54.59400177001953,-3.813999891281128 31.187999725341797,-2.747999906539917 C10.317999839782715,-1.7970000505447388 -11.446000099182129,-0.8809999823570251 -12.369000434875488,-0.8190000057220459 C-15.83899974822998,-0.5839999914169312 -19.461999893188477,-0.503000020980835 -23.285999298095703,-0.34200000762939453 C-37.20000076293945,0.24300000071525574 -52.31399917602539,-0.4300000071525574 -60.0359992980957,-4.039999961853027 C-67.83599853515625,-7.685999870300293 -70.75299835205078,-13.062000274658203 -70.95700073242188,-14.131999969482422 C-72.87999725341797,-12.95199966430664 -75.0250015258789,-9.932999610900879 -74.83699798583984,-5.00600004196167z"/></g><g opacity="0.1" transform="matrix(1,0,0,1,231.7239990234375,401.0459899902344)"><path fill="rgb(240,146,1)" fill-opacity="1" d=" M-74.83699798583984,-5.00600004196167 C-74.3270034790039,8.319999694824219 -53.9010009765625,15.918000221252441 -10.196999549865723,13.074000358581543 C14.300000190734863,11.479999542236328 45.33100128173828,12.256999969482422 61.19499969482422,10.954999923706055 C61.19499969482422,10.954999923706055 61.20800018310547,10.954000473022461 61.20800018310547,10.954000473022461 C75.66300201416016,9.571999549865723 155.76199340820312,4.113999843597412 186.7949981689453,-29.926000595092773 C207.0489959716797,-52.141998291015625 215.5749969482422,-85.60600280761719 210.38699340820312,-124.90699768066406 C209.5229949951172,-131.45199584960938 201.7899932861328,-170.88600158691406 173.33799743652344,-196.5540008544922 C186.0189971923828,-187.5919952392578 192.56199645996094,-160.72300720214844 190.4459991455078,-138.97799682617188 C189.03500366210938,-124.4729995727539 179.84500122070312,-117.87300109863281 171.9429931640625,-116.45099639892578 C162.18699645996094,-114.69599914550781 162.07000732421875,-108.85399627685547 168.11000061035156,-106.28600311279297 C175.15699768066406,-103.28900146484375 180.11900329589844,-98.69000244140625 181.58900451660156,-94.30400085449219 C190.45799255371094,-67.8499984741211 167.9029998779297,-52.1609992980957 156.6439971923828,-43.25699996948242 C119.33899688720703,-13.753999710083008 87.33200073242188,-25.535999298095703 66.39099884033203,-15.166999816894531 C61.917999267578125,-12.95199966430664 53.7760009765625,-7.493000030517578 30.3700008392334,-6.427000045776367 C9.5,-5.47599983215332 -11.562999725341797,-4.49399995803833 -12.486000061035156,-4.431000232696533 C-15.956000328063965,-4.196000099182129 -19.812000274658203,-4.114999771118164 -23.63599967956543,-3.9539999961853027 C-37.54999923706055,-3.36899995803833 -51.13399887084961,-5.673999786376953 -59.21900177001953,-7.750999927520752 C-63.513999938964844,-8.854999542236328 -70.75299835205078,-13.062000274658203 -70.95700073242188,-14.131999969482422 C-72.87999725341797,-12.95199966430664 -75.0250015258789,-9.932999610900879 -74.83699798583984,-5.00600004196167z"/></g></g><g style="display: block;" transform="matrix(1.0700000524520874,0,0,1.0700000524520874,-11.110016822814941,-17.020004272460938)" opacity="1"><g opacity="1" transform="matrix(1,0,0,1,164.95700073242188,236.00399780273438)"><path stroke-linecap="round" stroke-linejoin="round" fill-opacity="0" stroke="rgb(225,124,0)" stroke-opacity="1" stroke-width="8" d=" M84.64600372314453,-22.16699981689453 C69.47699737548828,-22.231000900268555 21.01799964904785,-23.90999984741211 4.885000228881836,-23.93400001525879 C-42.95600128173828,-24.003999710083008 -84.95600128173828,-32.505001068115234 -84.64600372314453,-6.386000156402588 C-84.35299682617188,18.25 -52.66999816894531,14.059000015258789 -13.958000183105469,15.475000381469727 C25.28700065612793,16.910999298095703 70.15299987792969,14.074999809265137 68.85299682617188,25.02400016784668"/></g></g><g style="display: block;" transform="matrix(1.0700000524520874,0,0,1.0700000524520874,-11.110016822814941,-17.020004272460938)" opacity="1"><g opacity="1" transform="matrix(1,0,0,1,148.48899841308594,288.35198974609375)"><path stroke-linecap="round" stroke-linejoin="round" fill-opacity="0" stroke="rgb(225,124,0)" stroke-opacity="1" stroke-width="8" d=" M95.28600311279297,27.323999404907227 C93.98200225830078,16.665000915527344 54.59600067138672,20.280000686645508 0.6060000061988831,21.766000747680664 C-46.80400085449219,23.070999145507812 -94.0250015258789,26.06800079345703 -95.28500366210938,2.190000057220459 C-96.73899841308594,-25.351999282836914 -68.06099700927734,-18.39900016784668 -18.60300064086914,-20.062999725341797 C21.665000915527344,-21.417999267578125 85.51799774169922,-17.790000915527344 85.32099914550781,-27.323999404907227"/></g></g><g style="display: block;" transform="matrix(1.0700000524520874,0,0,1.0700000524520874,-11.110016822814941,-17.020004272460938)" opacity="1"><g opacity="1" transform="matrix(1,0,0,1,177.3350067138672,341.5509948730469)"><path stroke-linecap="round" stroke-linejoin="round" fill-opacity="0" stroke="rgb(225,124,0)" stroke-opacity="1" stroke-width="8" d=" M66.44000244140625,-25.875999450683594 C68.02300262451172,-16.5310001373291 10.362000465393066,-19.13599967956543 -24.18199920654297,-18.3700008392334 C-67.79100036621094,-17.402999877929688 -92.40799713134766,-19.71500015258789 -91.71299743652344,1.0399999618530273 C-90.89700317382812,25.381000518798828 -57.39500045776367,23.565000534057617 -6.732999801635742,22.288000106811523 C44.61399841308594,20.993999481201172 90.63099670410156,16.090999603271484 91.72699737548828,25.875999450683594"/></g></g><g style="display: block;" transform="matrix(1.0700000524520874,0,0,1.0700000524520874,-11.110016822814941,-17.020004272460938)" opacity="1"><g opacity="1" transform="matrix(1,0,0,1,224.97799682617188,391.25799560546875)"><path stroke-linecap="round" stroke-linejoin="round" fill-opacity="0" stroke="rgb(225,124,0)" stroke-opacity="1" stroke-width="8" d=" M44.082000732421875,-23.832000732421875 C47.27799987792969,-16.007999420166016 0.9660000205039978,-15.496999740600586 -25.131000518798828,-15.14799976348877 C-54.22800064086914,-14.758999824523926 -67.03700256347656,-12.178999900817871 -67.91899871826172,3.3259999752044678 C-69.22699737548828,26.327999114990234 -31.47800064086914,24.242000579833984 -3.2090001106262207,23.343000411987305 C22.009000778198242,22.541000366210938 52.08399963378906,22.04400062561035 67.9520034790039,20.746999740600586"/></g></g><g style="display: block;" transform="matrix(1.0700000524520874,0,0,1.0700000524520874,-3.0850167274475098,-23.440004348754883)" opacity="1"><g opacity="1" transform="matrix(1,0,0,1,276.3909912109375,305.6470031738281)"><path fill="rgb(255,215,93)" fill-opacity="1" d=" M-23.7450008392334,-6.896999835968018 C-13.050999641418457,24.45199966430664 13.312999725341797,58.946998596191406 24.87299919128418,54.310001373291016 C36.43299865722656,49.67300033569336 18.645999908447266,31.523000717163086 8.911999702453613,11.710000038146973 C-0.9330000281333923,-8.329999923706055 -3.680000066757202,-22.631000518798828 -5.906000137329102,-33.98400115966797 C-8.449999809265137,-46.959999084472656 -9.6850004196167,-57.65299987792969 -17.21500015258789,-58.457000732421875 C-24.7450008392334,-59.26100158691406 -34.4379997253418,-38.24300003051758 -23.7450008392334,-6.896999835968018z"/></g></g><g style="display: block;" transform="matrix(1.0700000524520874,0,0,1.0700000524520874,-11.110016822814941,-17.020004272460938)" opacity="1"><g opacity="1" transform="matrix(1,0,0,1,356.9169921875,350.94500732421875)"><path fill="rgb(255,215,93)" fill-opacity="1" d=" M-16.073999404907227,-44.97800064086914 C-38.41699981689453,-45.94499969482422 -17.860000610351562,-4.935999870300293 17.17799949645996,-13.336999893188477 C53.08300018310547,-21.945999145507812 53.733001708984375,-49.67599868774414 38.902000427246094,-47.67100143432617 C20.58300018310547,-45.19499969482422 8.25,-43.92499923706055 -16.073999404907227,-44.97800064086914z"/></g></g><g style="display: block;" transform="matrix(1.0700000524520874,0,0,1.0700000524520874,-11.110016822814941,-17.020004272460938)" opacity="1"><g opacity="1" transform="matrix(1,0,0,1,267.7909851074219,206.85000610351562)"><path stroke-linecap="round" stroke-linejoin="round" fill-opacity="0" stroke="rgb(225,124,0)" stroke-opacity="1" stroke-width="8" d=" M-18.187999725341797,6.986999988555908 C6.790999889373779,8.383000373840332 19.583999633789062,2.2750000953674316 18.066999435424805,-7.185999870300293"/></g></g><g style="display: block;" transform="matrix(1.0700000524520874,0,0,1.0700000524520874,-11.110016822814941,-17.020004272460938)" opacity="1"><g opacity="1" transform="matrix(1,0,0,1,336.6130065917969,258.3039855957031)"><path stroke-linecap="round" stroke-linejoin="round" fill-opacity="0" stroke="rgb(225,124,0)" stroke-opacity="1" stroke-width="8" d=" M-50.63999938964844,-60.35300064086914 C-53.86399841308594,-77.05400085449219 -76.51399993896484,-75.76499938964844 -92.59300231933594,-92.31900024414062 C-108.36299896240234,-108.55500030517578 -115.0530014038086,-136.41200256347656 -98.5989990234375,-148.8459930419922 C-82.14600372314453,-161.2790069580078 -72.8290023803711,-147.35899353027344 -61.84700012207031,-134.85499572753906 C-45.38199996948242,-117.4739990234375 -14.770000457763672,-102.25199890136719 1.1959999799728394,-94.61100006103516 C26.386999130249023,-82.55400085449219 92.13700103759766,-59.80400085449219 105.61799621582031,17.610000610351562 C110.23300170898438,44.11000061035156 106.91300201416016,85.15799713134766 81.93099975585938,112.8740005493164 C52.19599914550781,145.86500549316406 -17.20400047302246,150.8350067138672 -43.680999755859375,153.70199584960938"/></g></g></g></svg>