<svg xmlns="http://www.w3.org/2000/svg" xmlns:xlink="http://www.w3.org/1999/xlink" viewBox="0 0 512 512" width="512" height="512" style="width: 100%; height: 100%; transform: translate3d(0,0,0);" preserveAspectRatio="xMidYMid meet"><defs><clipPath id="__lottie_element_3201"><rect width="512" height="512" x="0" y="0"/></clipPath><clipPath id="__lottie_element_3204"><path d="M0,0 L448,0 L448,480 L0,480z"/></clipPath><linearGradient id="__lottie_element_3216" spreadMethod="pad" gradientUnits="userSpaceOnUse" x1="-1.0399999618530273" y1="-176.5" x2="0.9599999785423279" y2="188.88900756835938"><stop offset="0%" stop-color="rgb(253,207,24)"/><stop offset="47%" stop-color="rgb(245,171,12)"/><stop offset="93%" stop-color="rgb(237,135,0)"/></linearGradient><radialGradient id="__lottie_element_3217" spreadMethod="pad" gradientUnits="userSpaceOnUse" cx="-6.039999961853027" cy="-160.1230010986328" r="342.6724710471032" fx="-6.039999961853027" fy="-160.1230010986328"><stop offset="7%" stop-color="rgb(254,254,226)"/><stop offset="28%" stop-color="rgb(253,238,140)"/><stop offset="49%" stop-color="rgb(252,222,54)"/><stop offset="82%" stop-color="rgb(245,184,32)"/><stop offset="100%" stop-color="rgb(238,145,10)"/></radialGradient><radialGradient id="__lottie_element_3248" spreadMethod="pad" gradientUnits="userSpaceOnUse" cx="-118.35600280761719" cy="63.198001861572266" r="78.4704639177657" fx="-118.35600280761719" fy="63.198001861572266"><stop offset="0%" stop-color="rgb(241,12,28)" stop-opacity="1"/><stop offset="59%" stop-color="rgb(224,29,33)" stop-opacity="0.5"/><stop offset="100%" stop-color="rgb(207,45,38)" stop-opacity="0"/></radialGradient><radialGradient id="__lottie_element_3252" spreadMethod="pad" gradientUnits="userSpaceOnUse" cx="115.85700225830078" cy="64.12200164794922" r="79.20437552036925" fx="115.85700225830078" fy="64.12200164794922"><stop offset="0%" stop-color="rgb(241,12,28)" stop-opacity="1"/><stop offset="59%" stop-color="rgb(224,29,33)" stop-opacity="0.5"/><stop offset="100%" stop-color="rgb(207,45,38)" stop-opacity="0"/></radialGradient><clipPath id="__lottie_element_3254"><path d="M0,0 L448,0 L448,480 L0,480z"/></clipPath><linearGradient id="__lottie_element_3266" spreadMethod="pad" gradientUnits="userSpaceOnUse"><stop/><stop/><stop/></linearGradient><radialGradient id="__lottie_element_3267" spreadMethod="pad" gradientUnits="userSpaceOnUse"><stop/><stop/><stop/><stop/><stop/></radialGradient><radialGradient id="__lottie_element_3298" spreadMethod="pad" gradientUnits="userSpaceOnUse"><stop/><stop/><stop/></radialGradient><radialGradient id="__lottie_element_3302" spreadMethod="pad" gradientUnits="userSpaceOnUse"><stop/><stop/><stop/></radialGradient></defs><g clip-path="url(#__lottie_element_3201)"><g clip-path="url(#__lottie_element_3204)" style="display: block;" transform="matrix(1.0329999923706055,0,0,1.0329999923706055,26.66400146484375,-8.391998291015625)" opacity="1"><g style="display: block;" transform="matrix(0.994823694229126,0,0,1.005176305770874,223.9903106689453,267.9189453125)" opacity="1"><g opacity="1" transform="matrix(0.9700000286102295,0,0,0.9700000286102295,-211.23394775390625,-220.7205810546875)"><g opacity="1" transform="matrix(1,0,0,1,215.6439971923828,215.64500427246094)"><path fill="url(#__lottie_element_3216)" fill-opacity="1" d=" M194.9969940185547,0 C194.9969940185547,107.69400024414062 107.69300079345703,194.9969940185547 0,194.9969940185547 C-107.69400024414062,194.9969940185547 -194.9969940185547,107.69400024414062 -194.9969940185547,0 C-194.9969940185547,-107.69400024414062 -107.69400024414062,-194.9969940185547 0,-194.9969940185547 C107.69300079345703,-194.9969940185547 194.9969940185547,-107.69400024414062 194.9969940185547,0z"/></g><g opacity="1" transform="matrix(1,0,0,1,215.70199584960938,213.7169952392578)"><path fill="url(#__lottie_element_3217)" fill-opacity="1" d=" M173.80799865722656,2.6630001068115234 C172.3040008544922,100.77200317382812 93.26899719238281,179.11199951171875 -2.7230000495910645,177.63999938964844 C-98.71399688720703,176.16799926757812 -175.31199645996094,95.44499969482422 -173.80799865722656,-2.6640000343322754 C-172.3040008544922,-100.77300262451172 -93.26899719238281,-179.11199951171875 2.7230000495910645,-177.64100646972656 C98.71399688720703,-176.16900634765625 175.31199645996094,-95.44499969482422 173.80799865722656,2.6630001068115234z"/></g><g opacity="1" transform="matrix(1,0,0,1,215.6439971923828,215.64500427246094)"><path stroke-linecap="butt" stroke-linejoin="miter" fill-opacity="0" stroke-miterlimit="10" stroke="rgb(231,105,0)" stroke-opacity="1" stroke-width="8.259" d=" M194.9969940185547,0 C194.9969940185547,107.69400024414062 107.69300079345703,194.9969940185547 0,194.9969940185547 C-107.69400024414062,194.9969940185547 -194.9969940185547,107.69400024414062 -194.9969940185547,0 C-194.9969940185547,-107.69400024414062 -107.69400024414062,-194.9969940185547 0,-194.9969940185547 C107.69300079345703,-194.9969940185547 194.9969940185547,-107.69400024414062 194.9969940185547,0z"/></g></g></g><g style="display: block;" transform="matrix(0.994823694229126,0,0,1.005176305770874,223.9903106689453,267.9189453125)" opacity="1"><g opacity="0.4" transform="matrix(1,0,0,1,0,0)"><path fill="url(#__lottie_element_3252)" fill-opacity="1" d=" M186.72300720214844,-0.8629999756813049 C186.5330047607422,2.5769999027252197 186.26300048828125,5.9770002365112305 185.88299560546875,9.366999626159668 C185.88299560546875,9.366999626159668 185.88299560546875,9.366999626159668 185.88299560546875,9.376999855041504 C185.4929962158203,13.067000389099121 184.98300170898438,16.726999282836914 184.3730010986328,20.35700035095215 C183.61300659179688,24.906999588012695 182.68299865722656,29.406999588012695 181.58299255371094,33.84700012207031 C181.58299255371094,33.84700012207031 181.59300231933594,33.84700012207031 181.58299255371094,33.856998443603516 C180.33299255371094,38.97700119018555 178.8730010986328,44.016998291015625 177.21299743652344,48.96699905395508 C170.4929962158203,68.96700286865234 160.5229949951172,87.46700286865234 147.92300415039062,103.83699798583984 C147.92300415039062,103.83699798583984 147.92300415039062,103.84700012207031 147.91299438476562,103.84700012207031 C144.51300048828125,108.26699829101562 140.92300415039062,112.5270004272461 137.1529998779297,116.62699890136719 C133.7729949951172,120.30699920654297 130.2429962158203,123.85700225830078 126.572998046875,127.25700378417969 C123.56300354003906,130.0570068359375 120.4729995727539,132.73699951171875 117.28299713134766,135.3470001220703 C117.28299713134766,135.3470001220703 117.27300262451172,135.3470001220703 117.27300262451172,135.3470001220703 C114.31300354003906,137.7570037841797 111.27300262451172,140.07699584960938 108.16300201416016,142.3070068359375 C76.74299621582031,140.7469940185547 48.52299880981445,123.64700317382812 36.303001403808594,95.28700256347656 C18.472999572753906,53.89699935913086 42.65299987792969,6.947000026702881 88.86299896240234,-12.963000297546387 C124.52300262451172,-28.322999954223633 162.88299560546875,-23.08300018310547 186.72300720214844,-0.8629999756813049z"/></g></g><g style="display: block;" transform="matrix(0.994823694229126,0,0,1.005176305770874,223.9903106689453,267.9189453125)" opacity="1"><g opacity="0.4" transform="matrix(1,0,0,1,0,0)"><path fill="url(#__lottie_element_3248)" fill-opacity="1" d=" M-39.84700012207031,95.28700256347656 C-52.08700180053711,123.6969985961914 -80.39700317382812,140.81700134277344 -111.89700317382812,142.31700134277344 C-115.01699829101562,140.08700561523438 -118.05699920654297,137.7570037841797 -121.0270004272461,135.33700561523438 C-124.22699737548828,132.73699951171875 -127.33699798583984,130.02699279785156 -130.35699462890625,127.21700286865234 C-134.03700256347656,123.80699920654297 -137.58700561523438,120.23699951171875 -140.9770050048828,116.53700256347656 C-144.78700256347656,112.39700317382812 -148.40699768066406,108.08699798583984 -151.83700561523438,103.61699676513672 C-164.26699829101562,87.41699981689453 -174.11700439453125,69.14700317382812 -180.8070068359375,49.40700149536133 C-182.4969940185547,44.41699981689453 -183.98699951171875,39.32699966430664 -185.2570037841797,34.15700149536133 C-186.35699462890625,29.687000274658203 -187.3070068359375,25.16699981689453 -188.07699584960938,20.586999893188477 C-188.69700622558594,16.94700050354004 -189.20700073242188,13.277000427246094 -189.60699462890625,9.57699966430664 C-189.98699951171875,6.186999797821045 -190.26699829101562,2.7669999599456787 -190.45700073242188,-0.6830000281333923 C-166.6269989013672,-23.05299949645996 -128.15699768066406,-28.363000869750977 -92.40699768066406,-12.963000297546387 C-46.196998596191406,6.947000026702881 -22.017000198364258,53.89699935913086 -39.84700012207031,95.28700256347656z"/></g></g><g style="display: block;" transform="matrix(0.994823694229126,0,0,1.005176305770874,223.9903106689453,267.9189453125)" opacity="1"><g opacity="0.9" transform="matrix(1,0,0,1,0,0)"><path fill="rgb(255,224,160)" fill-opacity="1" d=" M153.4499969482422,-2.4579999446868896 C153.4499969482422,33.125 123.12799835205078,61.97100067138672 85.7239990234375,61.97100067138672 C48.31999969482422,61.97100067138672 17.999000549316406,33.125 17.999000549316406,-2.4579999446868896 C17.999000549316406,-38.04100036621094 48.31999969482422,-66.88700103759766 85.7239990234375,-66.88700103759766 C123.12799835205078,-66.88700103759766 153.4499969482422,-38.04100036621094 153.4499969482422,-2.4579999446868896z"/></g><g opacity="1" transform="matrix(1,0,0,1,0,0)"><path fill="rgb(234,172,31)" fill-opacity="1" d=" M153.4499969482422,-24.45800018310547 C153.4499969482422,11.125 123.12799835205078,39.97100067138672 85.7239990234375,39.97100067138672 C48.31999969482422,39.97100067138672 17.999000549316406,11.125 17.999000549316406,-24.45800018310547 C17.999000549316406,-60.04100036621094 48.31999969482422,-88.88700103759766 85.7239990234375,-88.88700103759766 C123.12799835205078,-88.88700103759766 153.4499969482422,-60.04100036621094 153.4499969482422,-24.45800018310547z"/></g><g opacity="1" transform="matrix(1,0,0,1,0,0)"><path fill="rgb(205,205,205)" fill-opacity="1" d=" M150.1540069580078,-13.458000183105469 C150.1540069580078,22.125 121.30699920654297,50.97100067138672 85.7239990234375,50.97100067138672 C50.14099884033203,50.97100067138672 21.295000076293945,22.125 21.295000076293945,-13.458000183105469 C21.295000076293945,-49.04100036621094 50.14099884033203,-77.88700103759766 85.7239990234375,-77.88700103759766 C121.30699920654297,-77.88700103759766 150.1540069580078,-49.04100036621094 150.1540069580078,-13.458000183105469z"/></g><g opacity="1" transform="matrix(1,0,0,1,0,0)"><path fill="rgb(237,237,237)" fill-opacity="1" d=" M139.06199645996094,-21.02199935913086 C139.06199645996094,8.4350004196167 115.18099975585938,32.316001892089844 85.7239990234375,32.316001892089844 C56.266998291015625,32.316001892089844 32.387001037597656,8.4350004196167 32.387001037597656,-21.02199935913086 C32.387001037597656,-50.479000091552734 56.266998291015625,-74.35900115966797 85.7239990234375,-74.35900115966797 C115.18099975585938,-74.35900115966797 139.06199645996094,-50.479000091552734 139.06199645996094,-21.02199935913086z"/></g></g><g style="display: block;" transform="matrix(0.8881567716598511,0,0,0.8973993062973022,233.1342315673828,265.4251708984375)" opacity="1"><g opacity="1" transform="matrix(1,0,0,1,0,0)"><path fill="rgb(1,1,1)" fill-opacity="1" d=" M107.27899932861328,-13.812000274658203 C107.27899932861328,-2.1549999713897705 97.62799835205078,7.295000076293945 85.7239990234375,7.295000076293945 C73.81999969482422,7.295000076293945 64.16899871826172,-2.1549999713897705 64.16899871826172,-13.812000274658203 C64.16899871826172,-25.4689998626709 73.81999969482422,-34.917999267578125 85.7239990234375,-34.917999267578125 C97.62799835205078,-34.917999267578125 107.27899932861328,-25.4689998626709 107.27899932861328,-13.812000274658203z"/></g><g opacity="1" transform="matrix(1,0,0,1,0,0)"><path stroke-linecap="round" stroke-linejoin="round" fill-opacity="0" stroke="rgb(255,255,255)" stroke-opacity="1" stroke-width="6" d=" M101.80500030517578,-22.003000259399414 C103.13300323486328,-22.832000732421875 104.5250015258789,-23.677000045776367 105.97599792480469,-24.5310001373291"/></g></g><g style="display: block;" transform="matrix(0.994823694229126,0,0,1.005176305770874,223.9903106689453,267.9189453125)" opacity="1"><g opacity="0.35000000000000003" transform="matrix(1,0,0,1,0,0)"><path fill="rgb(255,255,255)" fill-opacity="1" d=" M150.1540069580078,-13.45300006866455 C150.1540069580078,-10.192999839782715 149.91400146484375,-6.993000030517578 149.44400024414062,-3.872999906539917 C144.81399536132812,-34.91299819946289 118.04399871826172,-58.722999572753906 85.7239990234375,-58.722999572753906 C53.39400100708008,-58.722999572753906 26.624000549316406,-34.91299819946289 22.003999710083008,-3.872999906539917 C21.534000396728516,-6.993000030517578 21.29400062561035,-10.192999839782715 21.29400062561035,-13.45300006866455 C21.29400062561035,-49.042999267578125 50.13399887084961,-77.88300323486328 85.7239990234375,-77.88300323486328 C121.30400085449219,-77.88300323486328 150.1540069580078,-49.042999267578125 150.1540069580078,-13.45300006866455z"/></g><g opacity="1" transform="matrix(1,0,0,1,0,0)"><path stroke-linecap="butt" stroke-linejoin="round" fill-opacity="0" stroke="rgb(145,129,89)" stroke-opacity="1" stroke-width="6" d=" M150.1540069580078,-13.458000183105469 C150.1540069580078,22.125 121.30699920654297,50.97100067138672 85.7239990234375,50.97100067138672 C50.14099884033203,50.97100067138672 21.295000076293945,22.125 21.295000076293945,-13.458000183105469 C21.295000076293945,-49.04100036621094 50.14099884033203,-77.88700103759766 85.7239990234375,-77.88700103759766 C121.30699920654297,-77.88700103759766 150.1540069580078,-49.04100036621094 150.1540069580078,-13.458000183105469z"/></g></g><g style="display: block;" transform="matrix(0.994823694229126,0,0,1.005176305770874,223.9903106689453,267.9189453125)" opacity="1"><g opacity="0.9" transform="matrix(1,0,0,1,0,0)"><path fill="rgb(255,224,160)" fill-opacity="1" d=" M-21.944000244140625,-2.4579999446868896 C-21.944000244140625,33.125 -52.17599868774414,61.97100067138672 -89.47000122070312,61.97100067138672 C-126.76399993896484,61.97100067138672 -156.9969940185547,33.125 -156.9969940185547,-2.4579999446868896 C-156.9969940185547,-38.04100036621094 -126.76399993896484,-66.88700103759766 -89.47000122070312,-66.88700103759766 C-52.17599868774414,-66.88700103759766 -21.944000244140625,-38.04100036621094 -21.944000244140625,-2.4579999446868896z"/></g><g opacity="1" transform="matrix(1,0,0,1,0,0)"><path fill="rgb(234,172,31)" fill-opacity="1" d=" M-21.944000244140625,-24.45800018310547 C-21.944000244140625,11.125 -52.17599868774414,39.97100067138672 -89.47000122070312,39.97100067138672 C-126.76399993896484,39.97100067138672 -156.9969940185547,11.125 -156.9969940185547,-24.45800018310547 C-156.9969940185547,-60.04100036621094 -126.76399993896484,-88.88700103759766 -89.47000122070312,-88.88700103759766 C-52.17599868774414,-88.88700103759766 -21.944000244140625,-60.04100036621094 -21.944000244140625,-24.45800018310547z"/></g><g opacity="1" transform="matrix(1,0,0,1,0,0)"><path fill="rgb(205,205,205)" fill-opacity="1" d=" M-25.041000366210938,-13.458000183105469 C-25.041000366210938,22.125 -53.887001037597656,50.97100067138672 -89.47000122070312,50.97100067138672 C-125.0530014038086,50.97100067138672 -153.8990020751953,22.125 -153.8990020751953,-13.458000183105469 C-153.8990020751953,-49.04100036621094 -125.0530014038086,-77.88700103759766 -89.47000122070312,-77.88700103759766 C-53.887001037597656,-77.88700103759766 -25.041000366210938,-49.04100036621094 -25.041000366210938,-13.458000183105469z"/></g><g opacity="1" transform="matrix(1,0,0,1,0,0)"><path fill="rgb(237,237,237)" fill-opacity="1" d=" M-36.132999420166016,-21.02199935913086 C-36.132999420166016,8.4350004196167 -60.01300048828125,32.316001892089844 -89.47000122070312,32.316001892089844 C-118.927001953125,32.316001892089844 -142.80799865722656,8.4350004196167 -142.80799865722656,-21.02199935913086 C-142.80799865722656,-50.479000091552734 -118.927001953125,-74.35900115966797 -89.47000122070312,-74.35900115966797 C-60.01300048828125,-74.35900115966797 -36.132999420166016,-50.479000091552734 -36.132999420166016,-21.02199935913086z"/></g></g><g style="display: block;" transform="matrix(0.8881567716598511,0,0,0.8973993062973022,214.39614868164062,265.4251708984375)" opacity="1"><g opacity="1" transform="matrix(1,0,0,1,0,0)"><path fill="rgb(1,1,1)" fill-opacity="1" d=" M-68.38999938964844,-13.812000274658203 C-68.38999938964844,-2.1549999713897705 -78.04100036621094,7.295000076293945 -89.94499969482422,7.295000076293945 C-101.8489990234375,7.295000076293945 -111.5,-2.1549999713897705 -111.5,-13.812000274658203 C-111.5,-25.4689998626709 -101.8489990234375,-34.917999267578125 -89.94499969482422,-34.917999267578125 C-78.04100036621094,-34.917999267578125 -68.38999938964844,-25.4689998626709 -68.38999938964844,-13.812000274658203z"/></g><g opacity="1" transform="matrix(1,0,0,1,0,0)"><path stroke-linecap="round" stroke-linejoin="round" fill-opacity="0" stroke="rgb(255,255,255)" stroke-opacity="1" stroke-width="6" d=" M-73.86399841308594,-22.003000259399414 C-72.53600311279297,-22.832000732421875 -71.1449966430664,-23.677000045776367 -69.69400024414062,-24.5310001373291"/></g></g><g style="display: block;" transform="matrix(0.994823694229126,0,0,1.005176305770874,223.9903106689453,267.9189453125)" opacity="1"><g opacity="0.35000000000000003" transform="matrix(1,0,0,1,0,0)"><path fill="rgb(255,255,255)" fill-opacity="1" d=" M-25.03700065612793,-13.45300006866455 C-25.03700065612793,-10.192999839782715 -25.277000427246094,-6.993000030517578 -25.746999740600586,-3.872999906539917 C-30.37700080871582,-34.91299819946289 -57.14699935913086,-58.722999572753906 -89.46700286865234,-58.722999572753906 C-121.7969970703125,-58.722999572753906 -148.56700134277344,-34.91299819946289 -153.18699645996094,-3.872999906539917 C-153.65699768066406,-6.993000030517578 -153.89700317382812,-10.192999839782715 -153.89700317382812,-13.45300006866455 C-153.89700317382812,-49.042999267578125 -125.05699920654297,-77.88300323486328 -89.46700286865234,-77.88300323486328 C-53.887001037597656,-77.88300323486328 -25.03700065612793,-49.042999267578125 -25.03700065612793,-13.45300006866455z"/></g><g opacity="1" transform="matrix(1,0,0,1,0,0)"><path stroke-linecap="butt" stroke-linejoin="round" fill-opacity="0" stroke="rgb(145,129,89)" stroke-opacity="1" stroke-width="6" d=" M-25.041000366210938,-13.458000183105469 C-25.041000366210938,22.125 -53.887001037597656,50.97100067138672 -89.47000122070312,50.97100067138672 C-125.0530014038086,50.97100067138672 -153.8990020751953,22.125 -153.8990020751953,-13.458000183105469 C-153.8990020751953,-49.04100036621094 -125.0530014038086,-77.88700103759766 -89.47000122070312,-77.88700103759766 C-53.887001037597656,-77.88700103759766 -25.041000366210938,-49.04100036621094 -25.041000366210938,-13.458000183105469z"/></g></g><g style="display: block;" transform="matrix(0.994823694229126,0,0,1.005176305770874,223.9903106689453,267.9189453125)" opacity="1"><g opacity="1" transform="matrix(1,0,0,1,0,0)"><path fill="rgb(254,221,120)" fill-opacity="1" d=" M30.187999725341797,124.50484466552734 C30.187999725341797,124.50484466552734 -33.93299865722656,124.50484466552734 -33.93299865722656,124.50484466552734 C-39.62799835205078,124.50484466552734 -44.28799819946289,119.84587097167969 -44.28799819946289,114.15089416503906 C-44.28799819946289,114.15089416503906 -44.28799819946289,109.99491882324219 -44.28799819946289,109.99491882324219 C-44.28799819946289,104.29994201660156 -39.62799835205078,99.6409683227539 -33.93299865722656,99.6409683227539 C-33.93299865722656,99.6409683227539 30.187999725341797,99.6409683227539 30.187999725341797,99.6409683227539 C35.882999420166016,99.6409683227539 40.54199981689453,104.29994201660156 40.54199981689453,109.99491882324219 C40.54199981689453,109.99491882324219 40.54199981689453,114.15089416503906 40.54199981689453,114.15089416503906 C40.54199981689453,119.84587097167969 35.882999420166016,124.50484466552734 30.187999725341797,124.50484466552734z"/></g><g opacity="1" transform="matrix(1,0,0,1,0,0)"><path fill="rgb(151,72,0)" fill-opacity="1" d=" M28.82200050354004,118.6678695678711 C28.82200050354004,118.6678695678711 -32.56700134277344,118.6678695678711 -32.56700134277344,118.6678695678711 C-38.262001037597656,118.6678695678711 -42.922000885009766,114.00889587402344 -42.922000885009766,108.31392669677734 C-42.922000885009766,108.31392669677734 -42.922000885009766,108.31392669677734 -42.922000885009766,108.31392669677734 C-42.922000885009766,102.61894989013672 -38.262001037597656,97.95897674560547 -32.56700134277344,97.95897674560547 C-32.56700134277344,97.95897674560547 28.82200050354004,97.95897674560547 28.82200050354004,97.95897674560547 C34.516998291015625,97.95897674560547 39.17599868774414,102.61894989013672 39.17599868774414,108.31392669677734 C39.17599868774414,108.31392669677734 39.17599868774414,108.31392669677734 39.17599868774414,108.31392669677734 C39.17599868774414,114.00889587402344 34.516998291015625,118.6678695678711 28.82200050354004,118.6678695678711z"/></g><g opacity="1" transform="matrix(1,0,0,1,0,0)"><path fill="rgb(99,41,0)" fill-opacity="1" d=" M39.17300033569336,108.31692504882812 C39.17300033569336,109.47692108154297 38.983001708984375,110.59691619873047 38.62300109863281,111.63690948486328 C37.233001708984375,107.54692840576172 33.35300064086914,104.58694458007812 28.822999954223633,104.58694458007812 C28.822999954223633,104.58694458007812 -32.56700134277344,104.58694458007812 -32.56700134277344,104.58694458007812 C-35.41699981689453,104.58694458007812 -38.00699996948242,105.74693298339844 -39.87699890136719,107.6269302368164 C-40.99700164794922,108.7469253540039 -41.856998443603516,110.10691833496094 -42.367000579833984,111.63690948486328 C-42.72700119018555,110.59691619873047 -42.91699981689453,109.47692108154297 -42.91699981689453,108.31692504882812 C-42.91699981689453,105.46693420410156 -41.75699996948242,102.876953125 -39.87699890136719,100.99695587158203 C-38.00699996948242,99.12696838378906 -35.41699981689453,97.95697784423828 -32.56700134277344,97.95697784423828 C-32.56700134277344,97.95697784423828 28.822999954223633,97.95697784423828 28.822999954223633,97.95697784423828 C34.51300048828125,97.95697784423828 39.17300033569336,102.61695098876953 39.17300033569336,108.31692504882812z"/></g></g><g style="display: block;" transform="matrix(0.991338849067688,0.08406086266040802,-0.08319509029388428,1.0016552209854126,222.14389038085938,247.15353393554688)" opacity="1"><g opacity="1" transform="matrix(1,0,0,1,0,0)"><path fill="rgb(255,235,177)" fill-opacity="1" d=" M36.888999938964844,-127.79900360107422 C37.819000244140625,-129.36099243164062 41.369998931884766,-131.81100463867188 44.22600173950195,-133.21099853515625 C56.60300064086914,-139.27699279785156 87.43499755859375,-138.39199829101562 108.44400024414062,-126.91600036621094 C138.36199951171875,-110.572998046875 128.9149932861328,-96.76000213623047 122.41999816894531,-99.9530029296875 C115.92500305175781,-103.14600372314453 93.01399993896484,-118.0979995727539 61.55400085449219,-117.18299865722656 C53.124000549316406,-116.93800354003906 47.189998626708984,-115.83599853515625 42.51100158691406,-116.11199951171875 C36.33000183105469,-116.47599792480469 34.33700180053711,-123.51100158691406 36.888999938964844,-127.79900360107422z"/></g><g opacity="1" transform="matrix(1,0,0,1,0,0)"><path fill="rgb(151,72,0)" fill-opacity="1" d=" M37.38399887084961,-128.7239990234375 C38.31399917602539,-130.28599548339844 41.369998931884766,-132.81100463867188 44.22600173950195,-134.21099853515625 C56.60300064086914,-140.27699279785156 84.9729995727539,-143.12899780273438 105.98200225830078,-131.6529998779297 C135.89999389648438,-115.30999755859375 128.81100463867188,-101.50599670410156 122.31600189208984,-104.6989974975586 C115.82099914550781,-107.89199829101562 92.91000366210938,-122.84400177001953 61.45000076293945,-121.92900085449219 C53.02000045776367,-121.68399810791016 47.08599853515625,-120.58100128173828 42.40700149536133,-120.85700225830078 C36.22600173950195,-121.22100067138672 34.832000732421875,-124.43599700927734 37.38399887084961,-128.7239990234375z"/></g><g opacity="1" transform="matrix(1,0,0,1,0,0)"><path fill="rgb(99,41,0)" fill-opacity="1" d=" M37.12799835205078,-122.66300201416016 C37.250999450683594,-122.90699768066406 37.38399887084961,-123.16100311279297 37.5369987487793,-123.41500091552734 C38.4640007019043,-124.97100067138672 41.51499938964844,-127.49800109863281 44.37699890136719,-128.8979949951172 C56.75299835205078,-134.96499633789062 85.1240005493164,-137.8159942626953 106.13200378417969,-126.33699798583984 C120.02899932861328,-118.74099731445312 125.93800354003906,-111.7030029296875 127.62899780273438,-106.65799713134766 C129.41799926757812,-111.02999877929688 125.8949966430664,-120.78500366210938 105.98400115966797,-131.65499877929688 C84.97599792480469,-143.12399291992188 56.604000091552734,-140.2729949951172 44.22800064086914,-134.21600341796875 C41.36600112915039,-132.8159942626953 38.316001892089844,-130.28900146484375 37.388999938964844,-128.72300720214844 C35.88800048828125,-126.22000122070312 35.74800109863281,-124.07499694824219 37.12799835205078,-122.66300201416016z"/></g></g><g style="display: block;" transform="matrix(0.9886484742164612,-0.11182419210672379,0.1106724813580513,0.9989368319511414,228.8750762939453,244.11660766601562)" opacity="1"><g opacity="1" transform="matrix(1,0,0,1,0,0)"><path fill="rgb(255,235,177)" fill-opacity="1" d=" M-40.71200180053711,-127.95099639892578 C-41.641998291015625,-129.51300048828125 -45.1150016784668,-131.81100463867188 -47.97100067138672,-133.21099853515625 C-60.347999572753906,-139.27699279785156 -91.18099975585938,-138.39199829101562 -112.19000244140625,-126.91600036621094 C-142.10800170898438,-110.572998046875 -132.66099548339844,-96.76000213623047 -126.16600036621094,-99.9530029296875 C-119.6709976196289,-103.14600372314453 -96.76000213623047,-118.0979995727539 -65.30000305175781,-117.18299865722656 C-56.869998931884766,-116.93800354003906 -50.93600082397461,-115.83599853515625 -46.25699996948242,-116.11199951171875 C-40.07600021362305,-116.47599792480469 -38.15999984741211,-123.66300201416016 -40.71200180053711,-127.95099639892578z"/></g><g opacity="1" transform="matrix(1,0,0,1,0,0)"><path fill="rgb(151,72,0)" fill-opacity="1" d=" M-41.130001068115234,-128.7239990234375 C-42.060001373291016,-130.28599548339844 -45.1150016784668,-132.81100463867188 -47.97100067138672,-134.21099853515625 C-60.347999572753906,-140.27699279785156 -88.71900177001953,-143.12899780273438 -109.72799682617188,-131.6529998779297 C-139.64599609375,-115.30999755859375 -132.55599975585938,-101.50599670410156 -126.06099700927734,-104.6989974975586 C-119.56600189208984,-107.89199829101562 -96.65599822998047,-122.84400177001953 -65.19599914550781,-121.92900085449219 C-56.76599884033203,-121.68399810791016 -50.832000732421875,-120.58100128173828 -46.15299987792969,-120.85700225830078 C-39.97200012207031,-121.22100067138672 -38.577999114990234,-124.43599700927734 -41.130001068115234,-128.7239990234375z"/></g><g opacity="1" transform="matrix(1,0,0,1,0,0)"><path fill="rgb(99,41,0)" fill-opacity="1" d=" M-40.87300109863281,-122.66300201416016 C-40.99599838256836,-122.90699768066406 -41.130001068115234,-123.16100311279297 -41.28300094604492,-123.41500091552734 C-42.209999084472656,-124.97100067138672 -45.2599983215332,-127.49800109863281 -48.12200164794922,-128.8979949951172 C-60.49800109863281,-134.96499633789062 -88.87000274658203,-137.8159942626953 -109.87799835205078,-126.33699798583984 C-123.7750015258789,-118.74099731445312 -129.68299865722656,-111.7030029296875 -131.37399291992188,-106.65799713134766 C-133.16299438476562,-111.02999877929688 -129.64100646972656,-120.78500366210938 -109.7300033569336,-131.65499877929688 C-88.72200012207031,-143.12399291992188 -60.349998474121094,-140.2729949951172 -47.9739990234375,-134.21600341796875 C-45.11199951171875,-132.8159942626953 -42.0620002746582,-130.28900146484375 -41.1349983215332,-128.72300720214844 C-39.63399887084961,-126.22000122070312 -39.49300003051758,-124.07499694824219 -40.87300109863281,-122.66300201416016z"/></g></g></g></g></svg>