<svg xmlns="http://www.w3.org/2000/svg" xmlns:xlink="http://www.w3.org/1999/xlink" viewBox="0 0 512 512" width="512" height="512" style="width: 100%; height: 100%; transform: translate3d(0,0,0);" preserveAspectRatio="xMidYMid meet"><defs><clipPath id="__lottie_element_46725"><rect width="512" height="512" x="0" y="0"/></clipPath><linearGradient id="__lottie_element_46745" spreadMethod="pad" gradientUnits="userSpaceOnUse" x1="-79.5" y1="21.875" x2="-54.83100128173828" y2="56.755001068115234"><stop offset="0%" stop-color="rgb(55,10,0)"/><stop offset="50%" stop-color="rgb(104,48,2)"/><stop offset="100%" stop-color="rgb(153,87,4)"/></linearGradient><linearGradient id="__lottie_element_46746" spreadMethod="pad" gradientUnits="userSpaceOnUse" x1="-79.5" y1="21.875" x2="-54.83100128173828" y2="56.755001068115234"><stop offset="0%" stop-color="rgb(55,10,0)"/><stop offset="50%" stop-color="rgb(104,48,2)"/><stop offset="100%" stop-color="rgb(153,87,4)"/></linearGradient></defs><g clip-path="url(#__lottie_element_46725)"><g style="display: block;" transform="matrix(1,0,0,1,256,256)" opacity="1"><g opacity="1" transform="matrix(1,0,0,1,0,0)"><g opacity="1" transform="matrix(1,0,0,1,0,0)"><g opacity="1" transform="matrix(1,0,0,1,0,0)"><path fill="rgb(244,172,0)" fill-opacity="1" d=" M193.54200744628906,51.983001708984375 C188.3040008544922,77.71700286865234 176.32699584960938,97.82599639892578 161.03799438476562,94.14600372314453 C152.05099487304688,91.98300170898438 146.82200622558594,67.14099884033203 152.05999755859375,41.40700149536133 C157.29800415039062,15.67300033569336 168.3209991455078,0.003000000026077032 180.0050048828125,0.9549999833106995 C197.2030029296875,2.3559999465942383 198.77999877929688,26.249000549316406 193.54200744628906,51.983001708984375z"/><path stroke-linecap="round" stroke-linejoin="round" fill-opacity="0" stroke="rgb(206,115,0)" stroke-opacity="1" stroke-width="8" d=" M193.54200744628906,51.983001708984375 C188.3040008544922,77.71700286865234 176.32699584960938,97.82599639892578 161.03799438476562,94.14600372314453 C152.05099487304688,91.98300170898438 146.82200622558594,67.14099884033203 152.05999755859375,41.40700149536133 C157.29800415039062,15.67300033569336 168.3209991455078,0.003000000026077032 180.0050048828125,0.9549999833106995 C197.2030029296875,2.3559999465942383 198.77999877929688,26.249000549316406 193.54200744628906,51.983001708984375z"/></g><g opacity="1" transform="matrix(1,0,0,1,0,0)"><path fill="rgb(255,207,0)" fill-opacity="1" d=" M184.9320068359375,6.626999855041504 C182.2429962158203,4.823999881744385 178.82000732421875,4.239999771118164 177.11399841308594,5.263000011444092 C190.28900146484375,24.72800064086914 178.8990020751953,76.28800201416016 163.49200439453125,90.54199981689453 C175.23800659179688,91.64399719238281 185,73.40699768066406 188.78799438476562,54.80500030517578 C193.33900451660156,32.45899963378906 193.90199279785156,12.640999794006348 184.9320068359375,6.626999855041504z"/></g></g><g opacity="1" transform="matrix(1,0,0,1,0,0)"><g opacity="1" transform="matrix(1,0,0,1,0,0)"><path fill="rgb(244,172,0)" fill-opacity="1" d=" M-192.78700256347656,51.983001708984375 C-187.5489959716797,77.71700286865234 -175.57200622558594,97.82599639892578 -160.2830047607422,94.14600372314453 C-151.29600524902344,91.98300170898438 -146.06700134277344,67.14099884033203 -151.30499267578125,41.40700149536133 C-156.54299926757812,15.67300033569336 -167.5659942626953,0.003000000026077032 -179.25,0.9549999833106995 C-196.447998046875,2.3559999465942383 -198.02499389648438,26.249000549316406 -192.78700256347656,51.983001708984375z"/><path stroke-linecap="round" stroke-linejoin="round" fill-opacity="0" stroke="rgb(206,115,0)" stroke-opacity="1" stroke-width="8" d=" M-192.78700256347656,51.983001708984375 C-187.5489959716797,77.71700286865234 -175.57200622558594,97.82599639892578 -160.2830047607422,94.14600372314453 C-151.29600524902344,91.98300170898438 -146.06700134277344,67.14099884033203 -151.30499267578125,41.40700149536133 C-156.54299926757812,15.67300033569336 -167.5659942626953,0.003000000026077032 -179.25,0.9549999833106995 C-196.447998046875,2.3559999465942383 -198.02499389648438,26.249000549316406 -192.78700256347656,51.983001708984375z"/></g><g opacity="1" transform="matrix(1,0,0,1,0,0)"><path fill="rgb(255,207,0)" fill-opacity="1" d=" M-184.177001953125,6.626999855041504 C-181.48800659179688,4.823999881744385 -178.06500244140625,4.239999771118164 -176.35899353027344,5.263000011444092 C-189.53399658203125,24.72800064086914 -178.14300537109375,76.28800201416016 -162.73599243164062,90.54199981689453 C-174.48199462890625,91.64399719238281 -184.2449951171875,73.40699768066406 -188.0330047607422,54.80500030517578 C-192.58399963378906,32.45899963378906 -193.14700317382812,12.640999794006348 -184.177001953125,6.626999855041504z"/></g></g></g></g><g style="display: block;" transform="matrix(1,0,0,1,256,256)" opacity="1"><g opacity="1" transform="matrix(1,0,0,1,0,0)"><path fill="rgb(244,172,0)" fill-opacity="1" d=" M165.3560028076172,8.869999885559082 C165.3560028076172,53.41299819946289 152.15899658203125,95.98200225830078 128.29299926757812,129.20399475097656 C99.54000091552734,169.22999572753906 55.30099868774414,195.68899536132812 0,195.68899536132812 C-55.625,195.68899536132812 -99.54199981689453,169.63999938964844 -128.093994140625,130.13499450683594 C-152.20199584960938,96.77899932861328 -165.3560028076172,53.83000183105469 -165.3560028076172,8.869999885559082 C-165.3560028076172,-89.33699798583984 -91.3239974975586,-159.94900512695312 0,-159.94900512695312 C91.3239974975586,-159.94900512695312 165.3560028076172,-89.33699798583984 165.3560028076172,8.869999885559082z"/><path stroke-linecap="butt" stroke-linejoin="miter" fill-opacity="0" stroke-miterlimit="4" stroke="rgb(206,115,0)" stroke-opacity="1" stroke-width="8" d=" M165.3560028076172,8.869999885559082 C165.3560028076172,53.41299819946289 152.15899658203125,95.98200225830078 128.29299926757812,129.20399475097656 C99.54000091552734,169.22999572753906 55.30099868774414,195.68899536132812 0,195.68899536132812 C-55.625,195.68899536132812 -99.54199981689453,169.63999938964844 -128.093994140625,130.13499450683594 C-152.20199584960938,96.77899932861328 -165.3560028076172,53.83000183105469 -165.3560028076172,8.869999885559082 C-165.3560028076172,-89.33699798583984 -91.3239974975586,-159.94900512695312 0,-159.94900512695312 C91.3239974975586,-159.94900512695312 165.3560028076172,-89.33699798583984 165.3560028076172,8.869999885559082z"/></g><g opacity="1" transform="matrix(1,0,0,1,0,0)"><path fill="rgb(255,207,0)" fill-opacity="1" d=" M150.3560028076172,3.686000108718872 C150.3560028076172,46.58399963378906 136.8939971923828,87.47000122070312 112.7020034790039,118.3759994506836 C86.53500366210938,151.80499267578125 47.816001892089844,173.5590057373047 0,173.5590057373047 C-49.8650016784668,173.5590057373047 -89.38099670410156,150.53700256347656 -115.36499786376953,115.46600341796875 C-137.99099731445312,84.927001953125 -150.3560028076172,45.250999450683594 -150.3560028076172,3.686000108718872 C-150.3560028076172,-85.61199951171875 -83.03900146484375,-149.81900024414062 0,-149.81900024414062 C83.03900146484375,-149.81900024414062 150.3560028076172,-85.61199951171875 150.3560028076172,3.686000108718872z"/></g></g><g style="display: block;" transform="matrix(1,0,0,1,256,256)" opacity="1"><g opacity="1" transform="matrix(1,0,0,1,0,0)"><path fill="rgb(244,172,0)" fill-opacity="1" d=" M19.643999099731445,91.93699645996094 C19.643999099731445,99.3479995727539 10.239999771118164,105.93699645996094 0,105.93699645996094 C-10.239999771118164,105.93699645996094 -19.643999099731445,99.3479995727539 -19.643999099731445,91.93699645996094 C-19.643999099731445,84.5260009765625 -10.239999771118164,77.73200225830078 0,77.73200225830078 C10.239999771118164,77.73200225830078 19.643999099731445,84.5260009765625 19.643999099731445,91.93699645996094z"/></g><g opacity="1" transform="matrix(1,0,0,1,0,0)"><path fill="rgb(208,123,0)" fill-opacity="1" d=" M18.541000366210938,86.4209976196289 C18.541000366210938,93.83200073242188 10.239999771118164,99.31800079345703 0,99.31800079345703 C-10.239999771118164,99.31800079345703 -18.541000366210938,93.83200073242188 -18.541000366210938,86.4209976196289 C-18.541000366210938,79.01000213623047 -10.239999771118164,73.31900024414062 0,73.31900024414062 C10.239999771118164,73.31900024414062 18.541000366210938,79.01000213623047 18.541000366210938,86.4209976196289z"/></g><g opacity="1" transform="matrix(1,0,0,1,0,0)"><path fill="rgb(255,207,0)" fill-opacity="1" d=" M16.722000122070312,82.98899841308594 C16.722000122070312,88.50599670410156 11.024999618530273,93.77999877929688 0,93.77999877929688 C-11.175000190734863,93.77999877929688 -16.722000122070312,88.50599670410156 -16.722000122070312,82.98899841308594 C-16.722000122070312,77.47200012207031 -8.857999801635742,73.10299682617188 0,73.10299682617188 C8.857999801635742,73.10299682617188 16.722000122070312,77.47200012207031 16.722000122070312,82.98899841308594z"/></g><g opacity="1" transform="matrix(1,0,0,1,0,0)"><path fill="rgb(255,225,129)" fill-opacity="1" d=" M9.593999862670898,78.7229995727539 C9.593999862670898,81.62699890136719 5.298999786376953,84.35800170898438 0,84.35800170898438 C-5.298999786376953,84.35800170898438 -9.593999862670898,81.62699890136719 -9.593999862670898,78.7229995727539 C-9.593999862670898,75.81900024414062 -5.298999786376953,74.36100006103516 0,74.36100006103516 C5.298999786376953,74.36100006103516 9.593999862670898,75.81900024414062 9.593999862670898,78.7229995727539z"/></g></g><g style="display: block;" transform="matrix(1,0,0,1,256,256)" opacity="1"><g opacity="1" transform="matrix(1,0,0,1,0,0)"><g opacity="1" transform="matrix(1,0,0,1,0,0)"><path fill="rgb(244,172,0)" fill-opacity="1" d=" M51.64099884033203,116.5 C50.709999084472656,113.48899841308594 44.0260009765625,114.62799835205078 -0.032999999821186066,114.62799835205078 C-43.03099822998047,114.62799835205078 -51.03300094604492,113.45800018310547 -51.68299865722656,116.5 C-53.22800064086914,123.73400115966797 -36.27399826049805,152.67799377441406 -0.003000000026077032,152.67799377441406 C35.65299987792969,152.67799377441406 53.54999923706055,122.67500305175781 51.64099884033203,116.5z"/></g></g><g opacity="1" transform="matrix(1,0,0,1,0,0)"><g opacity="1" transform="matrix(1,0,0,1,0,0)"><path fill="rgb(255,225,129)" fill-opacity="1" d=" M50.83000183105469,121.24500274658203 C49.91299819946289,118.552001953125 43.33399963378906,119.57099914550781 -0.032999999821186066,119.57099914550781 C-42.35599899291992,119.57099914550781 -50.231998443603516,118.52400207519531 -50.87099838256836,121.24500274658203 C-52.391998291015625,127.71499633789062 -35.70500183105469,154.13600158691406 -0.003000000026077032,154.13600158691406 C35.09299850463867,154.13600158691406 52.70899963378906,126.76799774169922 50.83000183105469,121.24500274658203z"/></g></g><g opacity="1" transform="matrix(1,0,0,1,0,0)"><g opacity="1" transform="matrix(1,0,0,1,0,0)"><path fill="rgb(126,35,18)" fill-opacity="1" d=" M49.44499969482422,120.72200012207031 C48.553001403808594,118.5530014038086 42.15399932861328,119.37300109863281 -0.03200000151991844,119.37300109863281 C-41.20100021362305,119.37300109863281 -48.862998962402344,118.53099822998047 -49.48500061035156,120.72200012207031 C-50.9640007019043,125.93299865722656 -34.731998443603516,146.77999877929688 -0.003000000026077032,146.77999877929688 C34.137001037597656,146.77999877929688 51.27299880981445,125.16999816894531 49.44499969482422,120.72200012207031z"/></g></g><g opacity="1" transform="matrix(1,0,0,1,0,0)"><path fill="rgb(88,11,14)" fill-opacity="1" d=" M-0.03099999949336052,125.37300109863281 C35.29499816894531,125.37300109863281 45.10300064086914,124.77999877929688 47.779998779296875,125.94200134277344 C49.290000915527344,123.62300109863281 49.85900115966797,121.7300033569336 49.44499969482422,120.72200012207031 C48.553001403808594,118.5530014038086 42.15399932861328,119.37300109863281 -0.03200000151991844,119.37300109863281 C-41.20100021362305,119.37300109863281 -48.862998962402344,118.53099822998047 -49.48500061035156,120.72200012207031 C-49.80699920654297,121.85600280761719 -49.28799819946289,123.7300033569336 -47.92499923706055,125.96900177001953 C-45.2869987487793,124.75199890136719 -34.8380012512207,125.37300109863281 -0.03099999949336052,125.37300109863281z"/></g></g><g style="display: block;" transform="matrix(1,0,0,1,256,256)" opacity="1"><g opacity="1" transform="matrix(1,0,0,1,0,0)"><path fill="rgb(244,172,0)" fill-opacity="1" d=" M-26.93600082397461,-150.31100463867188 C-22.416000366210938,-172.6959991455078 41.14899826049805,-164.3719940185547 71.9489974975586,-135.63900756835938 C68.9530029296875,-97.8479995727539 25.799999237060547,-81.19300079345703 19.922000885009766,-85.08799743652344 C16.118000030517578,-87.60900115966797 18.43899917602539,-94.42500305175781 17.559999465942383,-95.31099700927734 C17.559999465942383,-95.31099700927734 -0.5289999842643738,-91.9260025024414 -3.003000020980835,-97.26599884033203 C-8.229000091552734,-108.54499816894531 26.121999740600586,-132.25399780273438 8.628000259399414,-148.5240020751953 C0.7749999761581421,-155.82699584960938 -18.95599937438965,-152.10899353027344 -26.93600082397461,-150.31100463867188z"/></g><g opacity="1" transform="matrix(1,0,0,1,0,0)"><path fill="rgb(255,207,0)" fill-opacity="1" d=" M-24.82200050354004,-158.5970001220703 C-24.82200050354004,-158.5970001220703 -25.57200050354004,-200.58999633789062 15.508999824523926,-202.7220001220703 C35.507999420166016,-203.75999450683594 56.71799850463867,-189.30599975585938 64.19200134277344,-173.3209991455078 C74.5459976196289,-151.1750030517578 67.92900085449219,-112.93399810791016 33.77799987792969,-97.8479995727539 C36.78799819946289,-105.11399841308594 36.722999572753906,-119.83399963378906 36.722999572753906,-119.83399963378906 C36.722999572753906,-119.83399963378906 33.77799987792969,-108.36699676513672 10.527000427246094,-105.66799926757812 C23.398000717163086,-114.59500122070312 34.159000396728516,-146.01100158691406 16.582000732421875,-157.91400146484375 C4.678999900817871,-163.86500549316406 -12.621000289916992,-160.26699829101562 -24.82200050354004,-158.5970001220703z"/></g><g opacity="1" transform="matrix(1,0,0,1,0,0)"><path fill="rgb(255,229,120)" fill-opacity="1" d=" M63.45199966430664,-133.06500244140625 C75.37300109863281,-177.13600158691406 53.029998779296875,-196.24200439453125 32.86399841308594,-201.63600158691406 C16.86400032043457,-205.91600036621094 -6.863999843597412,-200.49099731445312 -19.756999969482422,-182.57699584960938 C2.763000011444092,-190.25399780273438 61.64400100708008,-187.9149932861328 63.45199966430664,-133.06500244140625z"/></g><g opacity="1" transform="matrix(1,0,0,1,0,0)"><path fill="rgb(244,172,0)" fill-opacity="1" d=" M45.61000061035156,-122.66100311279297 C41.944000244140625,-123.93000030517578 47.62300109863281,-135.0050048828125 45.4370002746582,-136.76800537109375 C44.45000076293945,-137.26199340820312 36.82500076293945,-124.02200317382812 34.084999084472656,-126.45800018310547 C32.8650016784668,-127.54299926757812 42.62799835205078,-154.66099548339844 22.492000579833984,-166.7969970703125 C12.895999908447266,-171.30299377441406 2.809999942779541,-171.1179962158203 -4.695000171661377,-171.33900451660156 C-14.282999992370605,-171.62100219726562 -16.62700080871582,-180.69500732421875 -11.767999649047852,-192.47000122070312 C-26.729999542236328,-179.27999877929688 -24.82200050354004,-158.5970001220703 -24.82200050354004,-158.5970001220703 C-12.621000289916992,-160.26699829101562 4.678999900817871,-163.86500549316406 16.582000732421875,-157.91400146484375 C34.159000396728516,-146.01100158691406 23.398000717163086,-114.59500122070312 10.527000427246094,-105.66799926757812 C15.972000122070312,-106.30000305175781 29.902000427246094,-107.8219985961914 36.513999938964844,-118.93399810791016 C35.935001373291016,-111.33200073242188 34.957000732421875,-100.69400024414062 33.77799987792969,-97.8479995727539 C39.047000885009766,-100.17500305175781 72.072998046875,-120.06999969482422 66.13999938964844,-167.0019989013672 C65.69200134277344,-142.72900390625 48.85200119018555,-121.53900146484375 45.61000061035156,-122.66100311279297z"/></g><g opacity="1" transform="matrix(1,0,0,1,0,0)"><path stroke-linecap="round" stroke-linejoin="round" fill-opacity="0" stroke="rgb(185,97,0)" stroke-opacity="1" stroke-width="8" d=" M-24.82200050354004,-158.5970001220703 C-24.82200050354004,-158.5970001220703 -29.149999618530273,-198.79100036621094 15.508999824523926,-202.7220001220703 C39.48699951171875,-204.83299255371094 57.340999603271484,-189.9550018310547 64.19200134277344,-173.3209991455078 C72.66200256347656,-152.7570037841797 64.58100128173828,-112 32.013999938964844,-97.8479995727539 C32.49800109863281,-106.08300018310547 39.57600021362305,-121.91500091552734 39.57600021362305,-121.91500091552734 C39.57600021362305,-121.91500091552734 31.599000930786133,-105.66799926757812 10.527000427246094,-105.66799926757812 C26.684999465942383,-119.99299621582031 33.08599853515625,-147.68600463867188 16.582000732421875,-157.91400146484375 C6.755000114440918,-164.00399780273438 -12.621000289916992,-160.26699829101562 -24.82200050354004,-158.5970001220703z"/></g></g><g style="display: block;" transform="matrix(1,0,0,1,256,256)" opacity="1"><g opacity="1" transform="matrix(1,0,0,1,0,0)"><g opacity="1" transform="matrix(1,0,0,1,0,0)"><path fill="rgb(255,255,255)" fill-opacity="1" d=" M-29.538000106811523,51.527000427246094 C-29.538000106811523,51.527000427246094 -31.73200035095215,7.081999778747559 -67.78800201416016,5.061999797821045 C-101.43000030517578,3.177000045776367 -119.0250015258789,34.36399841308594 -119.52999877929688,43.35200119018555 C-119.52999877929688,43.35200119018555 -105.50700378417969,68.13700103759766 -74.61900329589844,68.45800018310547 C-41.9010009765625,68.7979965209961 -29.538000106811523,51.527000427246094 -29.538000106811523,51.527000427246094z"/></g><g opacity="1" transform="matrix(1,0,0,1,0,0)"><g opacity="1" transform="matrix(1,0,0,1,0,0)"><path fill="url(#__lottie_element_46745)" fill-opacity="1" d=" M-43.55099868774414,36.027000427246094 C-43.55099868774414,51.14400100708008 -55.86199951171875,63.39799880981445 -71.04900360107422,63.39799880981445 C-86.23600006103516,63.39799880981445 -98.5469970703125,51.14400100708008 -98.5469970703125,36.027000427246094 C-98.5469970703125,20.90999984741211 -86.23600006103516,8.654999732971191 -71.04900360107422,8.654999732971191 C-55.86199951171875,8.654999732971191 -43.55099868774414,20.90999984741211 -43.55099868774414,36.027000427246094z"/></g><g opacity="1" transform="matrix(1,0,0,1,0,0)"><path fill="rgb(23,19,10)" fill-opacity="1" d=" M-53.66999816894531,36.027000427246094 C-53.66999816894531,45.58100128173828 -61.45100021362305,53.32500076293945 -71.04900360107422,53.32500076293945 C-80.64700317382812,53.32500076293945 -88.4280014038086,45.58100128173828 -88.4280014038086,36.027000427246094 C-88.4280014038086,26.472999572753906 -80.64700317382812,18.72800064086914 -71.04900360107422,18.72800064086914 C-61.45100021362305,18.72800064086914 -53.66999816894531,26.472999572753906 -53.66999816894531,36.027000427246094z"/></g><g opacity="1" transform="matrix(1,0,0,1,0,0)"><path fill="rgb(244,244,244)" fill-opacity="1" d=" M-72.58899688720703,22.461000442504883 C-72.58899688720703,26.089000701904297 -75.54399871826172,29.030000686645508 -79.18900299072266,29.030000686645508 C-82.83399963378906,29.030000686645508 -85.78800201416016,26.089000701904297 -85.78800201416016,22.461000442504883 C-85.78800201416016,18.83300018310547 -82.83399963378906,15.892000198364258 -79.18900299072266,15.892000198364258 C-75.54399871826172,15.892000198364258 -72.58899688720703,18.83300018310547 -72.58899688720703,22.461000442504883z"/></g><g opacity="1" transform="matrix(1,0,0,1,0,0)"><path stroke-linecap="round" stroke-linejoin="round" fill-opacity="0" stroke="rgb(224,151,5)" stroke-opacity="1" stroke-width="5" d=" M-50.70000076293945,43.757999420166016 C-52.74300003051758,49.82099914550781 -57.63399887084961,54.58399963378906 -63.790000915527344,56.4739990234375"/></g></g><g opacity="1" transform="matrix(1,0,0,1,0,0)"><g opacity="1" transform="matrix(1,0,0,1,0,0)"><path fill="rgb(255,207,0)" fill-opacity="1" d=" M-119.9000015258789,47.49700164794922 C-119.9000015258789,47.49700164794922 -113.72799682617188,1.069000005722046 -71.51100158691406,2.190999984741211 C-33.42300033569336,3.203000068664551 -30.54599952697754,45.28200149536133 -30.54599952697754,45.28200149536133 C-22.969999313354492,38.369998931884766 -17.409000396728516,-5.875 -70.98999786376953,-5.488999843597412 C-119.26899719238281,-5.140999794006348 -128.052001953125,25.759000778198242 -119.9000015258789,47.49700164794922z"/></g><g opacity="0" transform="matrix(0.9069178700447083,0.07483313977718353,-0.07483313977718353,0.9069178700447083,-4.774505615234375,12.200813293457031)"><path fill="rgb(122,221,255)" fill-opacity="1" d=" M-120.50800323486328,52.79999923706055 C-118.66899871826172,48.45399856567383 -96.25299835205078,60.82699966430664 -70.95600128173828,59.07400131225586 C-39.270999908447266,56.87799835205078 -28.017000198364258,42.316001892089844 -23.893999099731445,45.981998443603516 C-22.448999404907227,47.266998291015625 -36.66899871826172,71.26499938964844 -68.65299987792969,72.73799896240234 C-99.26899719238281,74.14800262451172 -121.5770034790039,55.32600021362305 -120.50800323486328,52.79999923706055z"/></g><g opacity="1" transform="matrix(1,0,0,1,0,0)"><path fill="rgb(255,207,0)" fill-opacity="1" d=" M-119.9000015258789,47.49700164794922 C-119.9000015258789,47.49700164794922 -102.40699768066406,71.50800323486328 -71.04900360107422,70.89800262451172 C-33.59199905395508,70.16999816894531 -27.75200080871582,51.952999114990234 -27.75200080871582,51.952999114990234 C-22.836999893188477,58.02799987792969 -39.03099822998047,78.26499938964844 -71.04900360107422,78.26499938964844 C-101.6969985961914,78.26499938964844 -124.71099853515625,59.11199951171875 -119.9000015258789,47.49700164794922z"/></g></g><g opacity="1" transform="matrix(1,0,0,1,0,0)"><path fill="rgb(133,63,0)" fill-opacity="1" d=" M-30.54599952697754,45.28200149536133 C-30.54599952697754,45.28200149536133 -32.1870002746582,4.395999908447266 -71.51100158691406,2.190999984741211 C-106.8280029296875,0.210999995470047 -117.552001953125,33.46500015258789 -119.52999877929688,43.35200119018555 C-119.52999877929688,43.35200119018555 -110.60199737548828,3.638000011444092 -70.33000183105469,5.383999824523926 C-33.96200180053711,6.960999965667725 -30.54599952697754,45.28200149536133 -30.54599952697754,45.28200149536133z"/><path stroke-linecap="round" stroke-linejoin="round" fill-opacity="0" stroke="rgb(133,63,0)" stroke-opacity="1" stroke-width="2" d=" M-30.54599952697754,45.28200149536133 C-30.54599952697754,45.28200149536133 -32.1870002746582,4.395999908447266 -71.51100158691406,2.190999984741211 C-106.8280029296875,0.210999995470047 -117.552001953125,33.46500015258789 -119.52999877929688,43.35200119018555 C-119.52999877929688,43.35200119018555 -110.60199737548828,3.638000011444092 -70.33000183105469,5.383999824523926 C-33.96200180053711,6.960999965667725 -30.54599952697754,45.28200149536133 -30.54599952697754,45.28200149536133z"/></g></g><g opacity="1" transform="matrix(-1,0,0,1,0.5,-0.25)"><g opacity="1" transform="matrix(1,0,0,1,0,0)"><path fill="rgb(255,255,255)" fill-opacity="1" d=" M-29.538000106811523,51.527000427246094 C-29.538000106811523,51.527000427246094 -31.73200035095215,7.081999778747559 -67.78800201416016,5.061999797821045 C-101.43000030517578,3.177000045776367 -119.0250015258789,34.36399841308594 -119.52999877929688,43.35200119018555 C-119.52999877929688,43.35200119018555 -105.50700378417969,68.13700103759766 -74.61900329589844,68.45800018310547 C-41.9010009765625,68.7979965209961 -29.538000106811523,51.527000427246094 -29.538000106811523,51.527000427246094z"/></g><g opacity="1" transform="matrix(-1,0,0,1,-142.09800720214844,0)"><g opacity="1" transform="matrix(1,0,0,1,0,0)"><g opacity="1" transform="matrix(1,0,0,1,0,0)"><path fill="url(#__lottie_element_46746)" fill-opacity="1" d=" M-43.55099868774414,36.027000427246094 C-43.55099868774414,51.14400100708008 -55.86199951171875,63.39799880981445 -71.04900360107422,63.39799880981445 C-86.23600006103516,63.39799880981445 -98.5469970703125,51.14400100708008 -98.5469970703125,36.027000427246094 C-98.5469970703125,20.90999984741211 -86.23600006103516,8.654999732971191 -71.04900360107422,8.654999732971191 C-55.86199951171875,8.654999732971191 -43.55099868774414,20.90999984741211 -43.55099868774414,36.027000427246094z"/></g><g opacity="1" transform="matrix(1,0,0,1,0,0)"><path fill="rgb(23,19,10)" fill-opacity="1" d=" M-53.66999816894531,36.027000427246094 C-53.66999816894531,45.58100128173828 -61.45100021362305,53.32500076293945 -71.04900360107422,53.32500076293945 C-80.64700317382812,53.32500076293945 -88.4280014038086,45.58100128173828 -88.4280014038086,36.027000427246094 C-88.4280014038086,26.472999572753906 -80.64700317382812,18.72800064086914 -71.04900360107422,18.72800064086914 C-61.45100021362305,18.72800064086914 -53.66999816894531,26.472999572753906 -53.66999816894531,36.027000427246094z"/></g><g opacity="1" transform="matrix(1,0,0,1,0,0)"><path fill="rgb(244,244,244)" fill-opacity="1" d=" M-72.58899688720703,22.461000442504883 C-72.58899688720703,26.089000701904297 -75.54399871826172,29.030000686645508 -79.18900299072266,29.030000686645508 C-82.83399963378906,29.030000686645508 -85.78800201416016,26.089000701904297 -85.78800201416016,22.461000442504883 C-85.78800201416016,18.83300018310547 -82.83399963378906,15.892000198364258 -79.18900299072266,15.892000198364258 C-75.54399871826172,15.892000198364258 -72.58899688720703,18.83300018310547 -72.58899688720703,22.461000442504883z"/></g><g opacity="1" transform="matrix(1,0,0,1,0,0)"><path stroke-linecap="round" stroke-linejoin="round" fill-opacity="0" stroke="rgb(224,151,5)" stroke-opacity="1" stroke-width="5" d=" M-50.70000076293945,43.757999420166016 C-52.74300003051758,49.82099914550781 -57.63399887084961,54.58399963378906 -63.790000915527344,56.4739990234375"/></g></g></g><g opacity="1" transform="matrix(1,0,0,1,0,0)"><g opacity="1" transform="matrix(1,0,0,1,0,0)"><path fill="rgb(255,207,0)" fill-opacity="1" d=" M-119.9000015258789,47.49700164794922 C-119.9000015258789,47.49700164794922 -113.72799682617188,1.069000005722046 -71.51100158691406,2.190999984741211 C-33.42300033569336,3.203000068664551 -30.54599952697754,45.28200149536133 -30.54599952697754,45.28200149536133 C-22.969999313354492,38.369998931884766 -17.409000396728516,-5.875 -70.98999786376953,-5.488999843597412 C-119.26899719238281,-5.140999794006348 -128.052001953125,25.759000778198242 -119.9000015258789,47.49700164794922z"/></g><g opacity="0" transform="matrix(0.9069178700447083,0.07483313977718353,-0.07483313977718353,0.9069178700447083,-4.774505615234375,12.200813293457031)"><path fill="rgb(122,221,255)" fill-opacity="1" d=" M-120.50800323486328,52.79999923706055 C-118.66899871826172,48.45399856567383 -96.25299835205078,60.82699966430664 -70.95600128173828,59.07400131225586 C-39.270999908447266,56.87799835205078 -28.017000198364258,42.316001892089844 -23.893999099731445,45.981998443603516 C-22.448999404907227,47.266998291015625 -36.66899871826172,71.26499938964844 -68.65299987792969,72.73799896240234 C-99.26899719238281,74.14800262451172 -121.5770034790039,55.32600021362305 -120.50800323486328,52.79999923706055z"/></g><g opacity="1" transform="matrix(1,0,0,1,0,0)"><path fill="rgb(255,207,0)" fill-opacity="1" d=" M-119.9000015258789,47.49700164794922 C-119.9000015258789,47.49700164794922 -102.40699768066406,71.50800323486328 -71.04900360107422,70.89800262451172 C-33.59199905395508,70.16999816894531 -27.75200080871582,51.952999114990234 -27.75200080871582,51.952999114990234 C-22.836999893188477,58.02799987792969 -39.03099822998047,78.26499938964844 -71.04900360107422,78.26499938964844 C-101.6969985961914,78.26499938964844 -124.71099853515625,59.11199951171875 -119.9000015258789,47.49700164794922z"/></g></g><g opacity="1" transform="matrix(1,0,0,1,0,0)"><path fill="rgb(133,63,0)" fill-opacity="1" d=" M-30.54599952697754,45.28200149536133 C-30.54599952697754,45.28200149536133 -32.1870002746582,4.395999908447266 -71.51100158691406,2.190999984741211 C-106.8280029296875,0.210999995470047 -117.552001953125,33.46500015258789 -119.52999877929688,43.35200119018555 C-119.52999877929688,43.35200119018555 -110.60199737548828,3.638000011444092 -70.33000183105469,5.383999824523926 C-33.96200180053711,6.960999965667725 -30.54599952697754,45.28200149536133 -30.54599952697754,45.28200149536133z"/><path stroke-linecap="round" stroke-linejoin="round" fill-opacity="0" stroke="rgb(133,63,0)" stroke-opacity="1" stroke-width="2" d=" M-30.54599952697754,45.28200149536133 C-30.54599952697754,45.28200149536133 -32.1870002746582,4.395999908447266 -71.51100158691406,2.190999984741211 C-106.8280029296875,0.210999995470047 -117.552001953125,33.46500015258789 -119.52999877929688,43.35200119018555 C-119.52999877929688,43.35200119018555 -110.60199737548828,3.638000011444092 -70.33000183105469,5.383999824523926 C-33.96200180053711,6.960999965667725 -30.54599952697754,45.28200149536133 -30.54599952697754,45.28200149536133z"/></g></g></g><g style="display: block;" transform="matrix(1,0,0,1,256,256)" opacity="1"><g opacity="1" transform="matrix(1,0,0,1,0,0)"><path fill="rgb(133,63,0)" fill-opacity="1" d=" M-93.19300079345703,-12.475000381469727 C-94.38300323486328,-15.565999984741211 -78.56800079345703,-23.308000564575195 -60.82400131225586,-21.26300048828125 C-46.2140007019043,-19.57900047302246 -44.821998596191406,-15.026000022888184 -45.84000015258789,-13.645999908447266 C-46.858001708984375,-12.265999794006348 -55.41600036621094,-17.003999710083008 -72.18699645996094,-16.040000915527344 C-89.3010025024414,-15.055999755859375 -92.61100006103516,-10.961999893188477 -93.19300079345703,-12.475000381469727z"/><path stroke-linecap="round" stroke-linejoin="round" fill-opacity="0" stroke="rgb(133,63,0)" stroke-opacity="1" stroke-width="2" d=" M-93.19300079345703,-12.475000381469727 C-94.38300323486328,-15.565999984741211 -78.56800079345703,-23.308000564575195 -60.82400131225586,-21.26300048828125 C-46.2140007019043,-19.57900047302246 -44.821998596191406,-15.026000022888184 -45.84000015258789,-13.645999908447266 C-46.858001708984375,-12.265999794006348 -55.41600036621094,-17.003999710083008 -72.18699645996094,-16.040000915527344 C-89.3010025024414,-15.055999755859375 -92.61100006103516,-10.961999893188477 -93.19300079345703,-12.475000381469727z"/></g><g opacity="1" transform="matrix(1,0,0,1,0,0)"><path fill="rgb(133,63,0)" fill-opacity="1" d=" M93.64299774169922,-12.475000381469727 C94.83300018310547,-15.565999984741211 79.01799774169922,-23.308000564575195 61.27399826049805,-21.26300048828125 C46.66400146484375,-19.57900047302246 45.27199935913086,-15.026000022888184 46.290000915527344,-13.645999908447266 C47.30799865722656,-12.265999794006348 55.86600112915039,-17.003999710083008 72.63700103759766,-16.040000915527344 C89.7509994506836,-15.055999755859375 93.06099700927734,-10.961999893188477 93.64299774169922,-12.475000381469727z"/><path stroke-linecap="round" stroke-linejoin="round" fill-opacity="0" stroke="rgb(133,63,0)" stroke-opacity="1" stroke-width="2" d=" M93.64299774169922,-12.475000381469727 C94.83300018310547,-15.565999984741211 79.01799774169922,-23.308000564575195 61.27399826049805,-21.26300048828125 C46.66400146484375,-19.57900047302246 45.27199935913086,-15.026000022888184 46.290000915527344,-13.645999908447266 C47.30799865722656,-12.265999794006348 55.86600112915039,-17.003999710083008 72.63700103759766,-16.040000915527344 C89.7509994506836,-15.055999755859375 93.06099700927734,-10.961999893188477 93.64299774169922,-12.475000381469727z"/></g></g></g></svg>