<svg xmlns="http://www.w3.org/2000/svg" xmlns:xlink="http://www.w3.org/1999/xlink" viewBox="0 0 512 512" width="512" height="512" style="width: 100%; height: 100%; transform: translate3d(0,0,0);" preserveAspectRatio="xMidYMid meet"><defs><clipPath id="__lottie_element_8816"><rect width="512" height="512" x="0" y="0"/></clipPath><linearGradient id="__lottie_element_8835" spreadMethod="pad" gradientUnits="userSpaceOnUse" x1="-246" y1="1" x2="243" y2="0"><stop offset="0%" stop-color="rgb(0,0,0)"/><stop offset="25%" stop-color="rgb(0,0,0)"/><stop offset="50%" stop-color="rgb(0,0,0)"/><stop offset="75%" stop-color="rgb(0,0,0)"/><stop offset="100%" stop-color="rgb(0,0,0)"/></linearGradient><mask id="__lottie_element_8837"><path fill="url(#__lottie_element_8836)" d=" M-246.5,-145.5 C-246.5,-139 -246.5,144.218994140625 -246.5,146.593994140625 C-244.71200561523438,146.76499938964844 -241.55099487304688,147.5780029296875 -237.75900268554688,148.50999450683594 C-220.5,152.75 -191.07200622558594,159.75999450683594 -178.26499938964844,161.58399963378906 C-147.25,166 -127.13200378417969,165.62600708007812 -103.76799774169922,164.74600219726562 C-50.75,162.75 -4.125,146.125 27.19499969482422,139.3300018310547 C47.95800018310547,134.8249969482422 68.79000091552734,130.64500427246094 83.74700164794922,128.94000244140625 C106.25,126.375 122.875,126.75 143.25,128.35899353027344 C183.33700561523438,131.52499389648438 217.79400634765625,139.2030029296875 241.43800354003906,147.031005859375 C241.43800354003906,147.09300231933594 241.406005859375,147.09300231933594 241.406005859375,147.06199645996094 C241.406005859375,147.06199645996094 241.406005859375,147.06199645996094 241.406005859375,147.06199645996094 C241.56199645996094,120.56199645996094 241.23399353027344,82.29100036621094 241.25,49.90599822998047 C241.26600646972656,17.08300018310547 241.43699645996094,-15.739999771118164 241.5,-48.5629997253418 C241.56199645996094,-80.91699981689453 241.5,-128.75 241.625,-145.625 C151.281005859375,-172.5 103.15699768066406,-165.1009979248047 78.5,-162.81199645996094 C23.042999267578125,-156.04600524902344 -48.707000732421875,-130.79600524902344 -83.375,-129.06199645996094 C-157.875,-120.1240005493164 -212.75,-139.625 -246.5,-145.5z"/></mask><linearGradient id="__lottie_element_8836" spreadMethod="pad" gradientUnits="userSpaceOnUse" x1="-246" y1="1" x2="243" y2="0"><stop stop-color="rgb(255,255,255)" offset="0%" stop-opacity="1"/><stop stop-color="rgb(255,255,255)" offset="17%" stop-opacity="0.5"/><stop stop-color="rgb(255,255,255)" offset="33%" stop-opacity="0"/><stop stop-color="rgb(255,255,255)" offset="50%" stop-opacity="0"/><stop stop-color="rgb(255,255,255)" offset="66%" stop-opacity="0"/><stop stop-color="rgb(255,255,255)" offset="83%" stop-opacity="0.5"/><stop stop-color="rgb(255,255,255)" offset="100%" stop-opacity="1"/></linearGradient></defs><g clip-path="url(#__lottie_element_8816)"><g style="display: block;" transform="matrix(0.800000011920929,0,0,0.800000011920929,257.9656066894531,250.03680419921875)" opacity="1"><g opacity="1" transform="matrix(1,0,0,1,0,0)"><path fill="rgb(0,156,55)" fill-opacity="1" d=" M-246.5,-145.5 C-246.5,-139 -246.5,144.218994140625 -246.5,146.593994140625 C-244.71200561523438,146.76499938964844 -241.55099487304688,147.5780029296875 -237.75900268554688,148.50999450683594 C-220.5,152.75 -191.07200622558594,159.75999450683594 -178.26499938964844,161.58399963378906 C-147.25,166 -127.13200378417969,165.62600708007812 -103.76799774169922,164.74600219726562 C-50.75,162.75 -4.125,146.125 27.19499969482422,139.3300018310547 C47.95800018310547,134.8249969482422 68.79000091552734,130.64500427246094 83.74700164794922,128.94000244140625 C106.25,126.375 122.875,126.75 143.25,128.35899353027344 C183.33700561523438,131.52499389648438 217.79400634765625,139.2030029296875 241.43800354003906,147.031005859375 C241.43800354003906,147.09300231933594 241.406005859375,147.09300231933594 241.406005859375,147.06199645996094 C241.406005859375,147.06199645996094 241.406005859375,147.06199645996094 241.406005859375,147.06199645996094 C241.56199645996094,120.56199645996094 241.23399353027344,82.29100036621094 241.25,49.90599822998047 C241.26600646972656,17.08300018310547 241.43699645996094,-15.739999771118164 241.5,-48.5629997253418 C241.56199645996094,-80.91699981689453 241.5,-128.75 241.625,-145.625 C151.281005859375,-172.5 103.15699768066406,-165.1009979248047 78.5,-162.81199645996094 C23.042999267578125,-156.04600524902344 -48.707000732421875,-130.79600524902344 -83.375,-129.06199645996094 C-157.875,-120.1240005493164 -212.75,-139.625 -246.5,-145.5z"/></g></g><g style="display: block;" transform="matrix(0.800000011920929,0,0,0.800000011920929,256,250)" opacity="1"><g opacity="1" transform="matrix(1,0,0,1,0,0)"><path fill="rgb(254,224,0)" fill-opacity="1" d=" M0,-128.25 C-16.128999710083008,-114.78900146484375 -30.023000717163086,-102.51899719238281 -43.345001220703125,-90.9800033569336 C-57.26900100708008,-78.91999816894531 -70.56999969482422,-67.65799713134766 -85.14600372314453,-56.66999816894531 C-114.12200164794922,-34.82600021362305 -148.13900756835938,-14.062000274658203 -202.125,9.75 C-137.75,68.375 -59.625999450683594,107.7490005493164 0.06199999898672104,128.31199645996094 C34.11600112915039,95.98500061035156 67.90699768066406,67.24400329589844 103.20600128173828,43.09199905395508 C123.42500305175781,29.257999420166016 144.13800048828125,16.93000030517578 165.68099975585938,6.296999931335449 C177.27999877929688,0.5720000267028809 189.11900329589844,-4.6620001792907715 201.25,-9.375 C114.25,-89.25 30,-115.25 0,-128.25z"/></g></g><g style="display: block;" transform="matrix(0.800000011920929,0,0,0.800000011920929,256,250)" opacity="1"><g opacity="1" transform="matrix(1,0,0,1,0,0)"><path fill="rgb(0,34,119)" fill-opacity="1" d=" M18,-89.375 C1.3489999771118164,-90.01200103759766 -28.440000534057617,-78.98100280761719 -51.62900161743164,-56.79199981689453 C-69.96099853515625,-39.250999450683594 -84.16899871826172,-14.737000465393066 -84.5,16.5 C-84.81300354003906,46.007999420166016 -65.25,86.0009994506836 -20.125,85.81300354003906 C3.427999973297119,85.71499633789062 24.700000762939453,76.28199768066406 41.7859992980957,62.1870002746582 C67.59200286865234,40.89799880981445 83.8499984741211,8.972000122070312 84,-17.5 C84.19300079345703,-51.53300094604492 63.75,-87.625 18,-89.375z"/></g><g opacity="1" transform="matrix(1,0,0,1,0,0)"><path fill="rgb(242,242,242)" fill-opacity="1" d=" M-77.83599853515625,-18.4060001373291 C-79.33599853515625,-16.6560001373291 -81.3740005493164,-9.375 -81.56199645996094,-6.625 C-29,-20.5 30,-30.5 80.125,5.75 C82.25,0.625 83,-4.125 83.25,-6.875 C33.75,-43.25 -25.25,-33.5 -77.83599853515625,-18.4060001373291z"/></g></g><g style="display: block;" transform="matrix(0.800000011920929,0,0,0.800000011920929,58.809608459472656,101.910400390625)" opacity="1"><g opacity="1" transform="matrix(1,0,0,1,191.69400024414062,213.26699829101562)"><path fill="rgb(242,242,242)" fill-opacity="1" d=" M-1.003000020980835,1.5870000123977661 C-1.9609999656677246,1.4609999656677246 -2.6429998874664307,-2.0920000076293945 0.12200000137090683,-1.7109999656677246 C2.3239998817443848,-1.4079999923706055 1.2020000219345093,1.875 -1.003000020980835,1.5870000123977661z"/></g><g opacity="1" transform="matrix(1,0,0,1,201.4510040283203,225.13400268554688)"><path fill="rgb(242,242,242)" fill-opacity="1" d=" M-1.1959999799728394,1.8930000066757202 C-2.3399999141693115,1.74399995803833 -3.3989999294281006,-1.9589999914169312 0.1459999978542328,-2.0420000553131104 C2.7980000972747803,-2.1040000915527344 1.434999942779541,2.23799991607666 -1.1959999799728394,1.8930000066757202z"/></g><g opacity="1" transform="matrix(1,0,0,1,198.3000030517578,234.94900512695312)"><path fill="rgb(242,242,242)" fill-opacity="1" d=" M-1.1959999799728394,1.8930000066757202 C-2.3399999141693115,1.74399995803833 -2.811000108718872,-2.3369998931884766 0.1459999978542328,-2.0420000553131104 C2.7860000133514404,-1.7790000438690186 1.434999942779541,2.23799991607666 -1.1959999799728394,1.8930000066757202z"/></g><g opacity="1" transform="matrix(1,0,0,1,235.51699829101562,211.33299255371094)"><path fill="rgb(242,242,242)" fill-opacity="1" d=" M-1.1239999532699585,1.7289999723434448 C-2.240000009536743,1.5700000524520874 -3.5269999504089355,-2.0339999198913574 0.11500000208616257,-1.8949999809265137 C2.7079999446868896,-1.7960000038146973 1.444000005722046,2.0929999351501465 -1.1239999532699585,1.7289999723434448z"/></g><g opacity="1" transform="matrix(1,0,0,1,241.30799865722656,214.0019989013672)"><path fill="rgb(242,242,242)" fill-opacity="1" d=" M-1.125,1.815000057220459 C-3.194000005722046,1.4850000143051147 -2.25600004196167,-2.515000104904175 0.15399999916553497,-1.9390000104904175 C2.515000104904175,-1.375 1.2760000228881836,2.197999954223633 -1.125,1.815000057220459z"/></g><g opacity="1" transform="matrix(1,0,0,1,254.3300018310547,205.66799926757812)"><path fill="rgb(242,242,242)" fill-opacity="1" d=" M-1.1820000410079956,1.8980000019073486 C-3.1540000438690186,1.75600004196167 -2.4660000801086426,-2.305999994277954 0.15700000524520874,-2.0320000648498535 C2.7060000896453857,-1.7660000324249268 1.3769999742507935,2.0820000171661377 -1.1820000410079956,1.8980000019073486z"/></g><g opacity="1" transform="matrix(1,0,0,1,263.2929992675781,229.4219970703125)"><path fill="rgb(242,242,242)" fill-opacity="1" d=" M-1.090000033378601,1.7979999780654907 C-2.072000026702881,1.687999963760376 -2.992000102996826,-1.996999979019165 0.16599999368190765,-1.8980000019073486 C2.434999942779541,-1.8270000219345093 1.1710000038146973,2.052999973297119 -1.090000033378601,1.7979999780654907z"/></g><g opacity="1" transform="matrix(1,0,0,1,277.8609924316406,228.13499450683594)"><path fill="rgb(242,242,242)" fill-opacity="1" d=" M-1.0479999780654907,1.6740000247955322 C-2.4660000801086426,1.6330000162124634 -2.7160000801086426,-2.240999937057495 0.13600000739097595,-1.7960000038146973 C2.3970000743865967,-1.4429999589920044 1.2419999837875366,1.7400000095367432 -1.0479999780654907,1.6740000247955322z"/></g><g opacity="1" transform="matrix(1,0,0,1,288.2820129394531,223.01300048828125)"><path fill="rgb(242,242,242)" fill-opacity="1" d=" M-1.0099999904632568,1.5959999561309814 C-2.572999954223633,1.409999966621399 -2.8550000190734863,-1.746000051498413 0.12300000339746475,-1.7239999771118164 C2.367000102996826,-1.7079999446868896 1.2209999561309814,1.8609999418258667 -1.0099999904632568,1.5959999561309814z"/></g><g opacity="1" transform="matrix(1,0,0,1,296.50799560546875,222.27200317382812)"><path fill="rgb(242,242,242)" fill-opacity="1" d=" M-1.0069999694824219,1.6260000467300415 C-2.73799991607666,1.496000051498413 -2.61299991607666,-2.128999948501587 0.13899999856948853,-1.7350000143051147 C2.2809998989105225,-1.4290000200271606 1.1540000438690186,1.7879999876022339 -1.0069999694824219,1.6260000467300415z"/></g><g opacity="1" transform="matrix(1,0,0,1,308.15301513671875,209.7570037841797)"><path fill="rgb(242,242,242)" fill-opacity="1" d=" M-1.218999981880188,1.8270000219345093 C-3.9140000343322754,1.5420000553131104 -2.944999933242798,-3.36299991607666 0.3840000033378601,-2.4030001163482666 C3.1700000762939453,-1.5989999771118164 1.6610000133514404,2.131999969482422 -1.218999981880188,1.8270000219345093z"/></g><g opacity="1" transform="matrix(1,0,0,1,304.2070007324219,216.83599853515625)"><path fill="rgb(242,242,242)" fill-opacity="1" d=" M-0.8880000114440918,1.3329999446868896 C-1.7949999570846558,1.1959999799728394 -2.624000072479248,-2.0360000133514404 0.07599999755620956,-1.7300000190734863 C2.1760001182556152,-1.4919999837875366 1.2009999752044678,1.6469999551773071 -0.8880000114440918,1.3329999446868896z"/></g><g opacity="1" transform="matrix(1,0,0,1,317.3890075683594,200.63299560546875)"><path fill="rgb(242,242,242)" fill-opacity="1" d=" M-1.1670000553131104,1.7369999885559082 C-4.306000232696533,1.1660000085830688 -2.2960000038146973,-2.759999990463257 0.12399999797344208,-2.0950000286102295 C3.006999969482422,-1.3029999732971191 1.593999981880188,2.240000009536743 -1.1670000553131104,1.7369999885559082z"/></g><g opacity="1" transform="matrix(1,0,0,1,288.2799987792969,241.2790069580078)"><path fill="rgb(242,242,242)" fill-opacity="1" d=" M-1.0099999904632568,1.625 C-1.9509999752044678,1.5089999437332153 -2.9149999618530273,-2.1679999828338623 0.13600000739097595,-1.7389999628067017 C2.2980000972747803,-1.434999942779541 1.159000039100647,1.8940000534057617 -1.0099999904632568,1.625z"/></g><g opacity="1" transform="matrix(1,0,0,1,275.12200927734375,244.58700561523438)"><path fill="rgb(242,242,242)" fill-opacity="1" d=" M-0.8930000066757202,1.4240000247955322 C-1.7380000352859497,1.315999984741211 -2.882999897003174,-1.600000023841858 0.11400000005960464,-1.531000018119812 C2.071000099182129,-1.4859999418258667 1.0490000247955322,1.6720000505447388 -0.8930000066757202,1.4240000247955322z"/></g><g opacity="1" transform="matrix(1,0,0,1,246.33399963378906,253.1739959716797)"><path fill="rgb(242,242,242)" fill-opacity="1" d=" M-0.7950000166893005,1.225000023841858 C-1.5820000171661377,1.1139999628067017 -1.781999945640564,-1.875 0.0820000022649765,-1.340999960899353 C1.840999960899353,-0.8370000123977661 1.0160000324249268,1.4809999465942383 -0.7950000166893005,1.225000023841858z"/></g><g opacity="1" transform="matrix(1,0,0,1,246.38699340820312,200.5229949951172)"><path fill="rgb(242,242,242)" fill-opacity="1" d=" M-1.194000005722046,1.9329999685287476 C-3.3970000743865967,1.5579999685287476 -2.303999900817871,-2.441999912261963 0.16500000655651093,-2.061000108718872 C2.6989998817443848,-1.6699999570846558 1.3370000123977661,2.364000082015991 -1.194000005722046,1.9329999685287476z"/></g><g opacity="1" transform="matrix(1,0,0,1,265.5559997558594,175.33099365234375)"><path fill="rgb(242,242,242)" fill-opacity="1" d=" M-1.2860000133514404,2.0339999198913574 C-2.5160000324249268,1.871999979019165 -3.2230000495910645,-2.7190001010894775 0.15600000321865082,-2.194999933242798 C2.9760000705718994,-1.7580000162124634 1.5440000295639038,2.4049999713897705 -1.2860000133514404,2.0339999198913574z"/></g><g opacity="1" transform="matrix(1,0,0,1,210.0679931640625,241.06100463867188)"><path fill="rgb(242,242,242)" fill-opacity="1" d=" M-1.8669999837875366,0.9020000100135803 C-1.8669999837875366,0.9020000100135803 -1.9589999914169312,3.505000114440918 -1.9589999914169312,3.505000114440918 C-1.9589999914169312,3.505000114440918 0.12200000137090683,1.9739999771118164 0.12200000137090683,1.9739999771118164 C0.12200000137090683,1.9739999771118164 2.3570001125335693,2.7990000247955322 2.3570001125335693,2.7990000247955322 C2.3570001125335693,2.7990000247955322 1.8669999837875366,0.10700000077486038 1.8669999837875366,0.10700000077486038 C1.8669999837875366,0.10700000077486038 3.489000082015991,-1.5759999752044678 3.489000082015991,-1.5759999752044678 C3.489000082015991,-1.5759999752044678 1.1019999980926514,-1.6670000553131104 1.1019999980926514,-1.6670000553131104 C1.1019999980926514,-1.6670000553131104 -0.03099999949336052,-3.505000114440918 -0.03099999949336052,-3.505000114440918 C-0.03099999949336052,-3.505000114440918 -1.1319999694824219,-1.2079999446868896 -1.1319999694824219,-1.2079999446868896 C-1.1319999694824219,-1.2079999446868896 -3.489000082015991,-0.13699999451637268 -3.489000082015991,-0.13699999451637268 C-3.489000082015991,-0.13699999451637268 -1.8669999837875366,0.9020000100135803 -1.8669999837875366,0.9020000100135803z"/></g><g opacity="1" transform="matrix(1,0,0,1,174.8280029296875,229.47999572753906)"><path fill="rgb(242,242,242)" fill-opacity="1" d=" M-2.005000114440918,0.7950000166893005 C-2.005000114440918,0.7950000166893005 -2.065999984741211,3.48799991607666 -2.065999984741211,3.48799991607666 C-2.065999984741211,3.48799991607666 0.07699999958276749,1.8669999837875366 0.07699999958276749,1.8669999837875366 C0.07699999958276749,1.8669999837875366 2.309999942779541,2.815999984741211 2.309999942779541,2.815999984741211 C2.309999942779541,2.815999984741211 1.9429999589920044,0.335999995470047 1.9429999589920044,0.335999995470047 C1.9429999589920044,0.335999995470047 3.627000093460083,-1.5609999895095825 3.627000093460083,-1.5609999895095825 C3.627000093460083,-1.5609999895095825 0.871999979019165,-1.5920000076293945 0.871999979019165,-1.5920000076293945 C0.871999979019165,-1.5920000076293945 0.07699999958276749,-3.489000082015991 0.07699999958276749,-3.489000082015991 C0.07699999958276749,-3.489000082015991 -1.3009999990463257,-0.9490000009536743 -1.3009999990463257,-0.9490000009536743 C-1.3009999990463257,-0.9490000009536743 -3.627000093460083,-0.5820000171661377 -3.627000093460083,-0.5820000171661377 C-3.627000093460083,-0.5820000171661377 -2.005000114440918,0.7950000166893005 -2.005000114440918,0.7950000166893005z"/></g><g opacity="1" transform="matrix(1,0,0,1,183.70199584960938,220.8070068359375)"><path fill="rgb(242,242,242)" fill-opacity="1" d=" M-1.7589999437332153,0.9340000152587891 C-1.7589999437332153,0.9340000152587891 -2.187999963760376,3.5959999561309814 -2.187999963760376,3.5959999561309814 C-2.187999963760376,3.5959999561309814 0.10700000077486038,2.065999984741211 0.10700000077486038,2.065999984741211 C0.10700000077486038,2.065999984741211 2.1579999923706055,2.9539999961853027 2.1579999923706055,2.9539999961853027 C2.1579999923706055,2.9539999961853027 1.8519999980926514,0.29100000858306885 1.8519999980926514,0.29100000858306885 C1.8519999980926514,0.29100000858306885 3.6579999923706055,-1.5449999570846558 3.6579999923706055,-1.5449999570846558 C3.6579999923706055,-1.5449999570846558 1.1180000305175781,-1.4839999675750732 1.1180000305175781,-1.4839999675750732 C1.1180000305175781,-1.4839999675750732 -0.16899999976158142,-3.5959999561309814 -0.16899999976158142,-3.5959999561309814 C-0.16899999976158142,-3.5959999561309814 -1.2699999809265137,-1.024999976158142 -1.2699999809265137,-1.024999976158142 C-1.2699999809265137,-1.024999976158142 -3.6579999923706055,-0.5360000133514404 -3.6579999923706055,-0.5360000133514404 C-3.6579999923706055,-0.5360000133514404 -1.7589999437332153,0.9340000152587891 -1.7589999437332153,0.9340000152587891z"/></g><g opacity="1" transform="matrix(1,0,0,1,176.9199981689453,186.49099731445312)"><path fill="rgb(242,242,242)" fill-opacity="1" d=" M-1.8669999837875366,0.7490000128746033 C-1.8669999837875366,0.7490000128746033 -2.203000068664551,3.5959999561309814 -2.203000068664551,3.5959999561309814 C-2.203000068664551,3.5959999561309814 0.12200000137090683,1.9119999408721924 0.12200000137090683,1.9119999408721924 C0.12200000137090683,1.9119999408721924 2.0810000896453857,2.8919999599456787 2.0810000896453857,2.8919999599456787 C2.0810000896453857,2.8919999599456787 1.805999994277954,0.41200000047683716 1.805999994277954,0.41200000047683716 C1.805999994277954,0.41200000047683716 3.5810000896453857,-1.4839999675750732 3.5810000896453857,-1.4839999675750732 C3.5810000896453857,-1.4839999675750732 1.0709999799728394,-1.5770000219345093 1.0709999799728394,-1.5770000219345093 C1.0709999799728394,-1.5770000219345093 -0.09200000017881393,-3.5959999561309814 -0.09200000017881393,-3.5959999561309814 C-0.09200000017881393,-3.5959999561309814 -1.437999963760376,-1.0570000410079956 -1.437999963760376,-1.0570000410079956 C-1.437999963760376,-1.0570000410079956 -3.5810000896453857,-0.628000020980835 -3.5810000896453857,-0.628000020980835 C-3.5810000896453857,-0.628000020980835 -1.8669999837875366,0.7490000128746033 -1.8669999837875366,0.7490000128746033z"/></g><g opacity="1" transform="matrix(1,0,0,1,212.56700134277344,196.63800048828125)"><path fill="rgb(242,242,242)" fill-opacity="1" d=" M-1.9119999408721924,0.9639999866485596 C-1.9119999408721924,0.9639999866485596 -2.005000114440918,3.6570000648498535 -2.005000114440918,3.6570000648498535 C-2.005000114440918,3.6570000648498535 0.04600000008940697,1.8819999694824219 0.04600000008940697,1.8819999694824219 C0.04600000008940697,1.8819999694824219 2.312000036239624,2.8610000610351562 2.312000036239624,2.8610000610351562 C2.312000036239624,2.8610000610351562 1.7599999904632568,0.1080000028014183 1.7599999904632568,0.1080000028014183 C1.7599999904632568,0.1080000028014183 3.505000114440918,-1.6990000009536743 3.505000114440918,-1.6990000009536743 C3.505000114440918,-1.6990000009536743 1.0570000410079956,-1.6069999933242798 1.0570000410079956,-1.6069999933242798 C1.0570000410079956,-1.6069999933242798 0.04600000008940697,-3.6570000648498535 0.04600000008940697,-3.6570000648498535 C0.04600000008940697,-3.6570000648498535 -1.2699999809265137,-0.9950000047683716 -1.2699999809265137,-0.9950000047683716 C-1.2699999809265137,-0.9950000047683716 -3.505000114440918,-0.29100000858306885 -3.505000114440918,-0.29100000858306885 C-3.505000114440918,-0.29100000858306885 -1.9119999408721924,0.9639999866485596 -1.9119999408721924,0.9639999866485596z"/></g><g opacity="1" transform="matrix(1,0,0,1,245.56199645996094,225.07000732421875)"><path fill="rgb(242,242,242)" fill-opacity="1" d=" M-1.8209999799728394,0.9639999866485596 C-1.8209999799728394,0.9639999866485596 -2.1570000648498535,3.749000072479248 -2.1570000648498535,3.749000072479248 C-2.1570000648498535,3.749000072479248 0.1679999977350235,2.005000114440918 0.1679999977350235,2.005000114440918 C0.1679999977350235,2.005000114440918 2.311000108718872,2.8929998874664307 2.311000108718872,2.8929998874664307 C2.311000108718872,2.8929998874664307 1.8819999694824219,0.23000000417232513 1.8819999694824219,0.23000000417232513 C1.8819999694824219,0.23000000417232513 3.687999963760376,-2.0959999561309814 3.687999963760376,-2.0959999561309814 C3.687999963760376,-2.0959999561309814 1.024999976158142,-1.8200000524520874 1.024999976158142,-1.8200000524520874 C1.024999976158142,-1.8200000524520874 0.10700000077486038,-3.749000072479248 0.10700000077486038,-3.749000072479248 C0.10700000077486038,-3.749000072479248 -1.0870000123977661,-1.1480000019073486 -1.0870000123977661,-1.1480000019073486 C-1.0870000123977661,-1.1480000019073486 -3.687999963760376,-0.25999999046325684 -3.687999963760376,-0.25999999046325684 C-3.687999963760376,-0.25999999046325684 -1.8209999799728394,0.9639999866485596 -1.8209999799728394,0.9639999866485596z"/></g><g opacity="1" transform="matrix(1,0,0,1,269.73199462890625,238.33399963378906)"><path fill="rgb(242,242,242)" fill-opacity="1" d=" M-1.774999976158142,1.1009999513626099 C-1.774999976158142,1.1009999513626099 -2.049999952316284,3.947999954223633 -2.049999952316284,3.947999954223633 C-2.049999952316284,3.947999954223633 0.2759999930858612,2.0199999809265137 0.2759999930858612,2.0199999809265137 C0.2759999930858612,2.0199999809265137 2.631999969482422,3.3350000381469727 2.631999969482422,3.3350000381469727 C2.631999969482422,3.3350000381469727 2.0199999809265137,0.12200000137090683 2.0199999809265137,0.12200000137090683 C2.0199999809265137,0.12200000137090683 3.7039999961853027,-2.1730000972747803 3.7039999961853027,-2.1730000972747803 C3.7039999961853027,-2.1730000972747803 1.0399999618530273,-1.805999994277954 1.0399999618530273,-1.805999994277954 C1.0399999618530273,-1.805999994277954 0.15299999713897705,-3.9489998817443848 0.15299999713897705,-3.9489998817443848 C0.15299999713897705,-3.9489998817443848 -1.0410000085830688,-1.1330000162124634 -1.0410000085830688,-1.1330000162124634 C-1.0410000085830688,-1.1330000162124634 -3.7039999961853027,-0.36800000071525574 -3.7039999961853027,-0.36800000071525574 C-3.7039999961853027,-0.36800000071525574 -1.774999976158142,1.1009999513626099 -1.774999976158142,1.1009999513626099z"/></g><g opacity="1" transform="matrix(1,0,0,1,287.7239990234375,232.2550048828125)"><path fill="rgb(242,242,242)" fill-opacity="1" d=" M-1.9559999704360962,0.9620000123977661 C-1.9559999704360962,0.9620000123977661 -2.193000078201294,3.8970000743865967 -2.193000078201294,3.8970000743865967 C-2.193000078201294,3.8970000743865967 0.296999990940094,1.8519999980926514 0.296999990940094,1.8519999980926514 C0.296999990940094,1.8519999980926514 2.3410000801086426,2.9779999256134033 2.3410000801086426,2.9779999256134033 C2.3410000801086426,2.9779999256134033 1.8380000591278076,0.13300000131130219 1.8380000591278076,0.13300000131130219 C1.8380000591278076,0.13300000131130219 3.882999897003174,-2.1489999294281006 3.882999897003174,-2.1489999294281006 C3.882999897003174,-2.1489999294281006 0.9190000295639038,-2.000999927520752 0.9190000295639038,-2.000999927520752 C0.9190000295639038,-2.000999927520752 0.05999999865889549,-3.8970000743865967 0.05999999865889549,-3.8970000743865967 C0.05999999865889549,-3.8970000743865967 -1.3049999475479126,-1.2300000190734863 -1.3049999475479126,-1.2300000190734863 C-1.3049999475479126,-1.2300000190734863 -3.882999897003174,-0.2529999911785126 -3.882999897003174,-0.2529999911785126 C-3.882999897003174,-0.2529999911785126 -1.9559999704360962,0.9620000123977661 -1.9559999704360962,0.9620000123977661z"/></g><g opacity="1" transform="matrix(1,0,0,1,304.4410095214844,201.85899353027344)"><path fill="rgb(242,242,242)" fill-opacity="1" d=" M-1.8530000448226929,0.7390000224113464 C-1.8530000448226929,0.7390000224113464 -2.069999933242798,3.6579999923706055 -2.069999933242798,3.6579999923706055 C-2.069999933242798,3.6579999923706055 0.1589999943971634,1.8630000352859497 0.1589999943971634,1.8630000352859497 C0.1589999943971634,1.8630000352859497 2.4240000247955322,2.809000015258789 2.4240000247955322,2.809000015258789 C2.4240000247955322,2.809000015258789 2.0309998989105225,0.028999999165534973 2.0309998989105225,0.028999999165534973 C2.0309998989105225,0.028999999165534973 3.7269999980926514,-1.8049999475479126 3.7269999980926514,-1.8049999475479126 C3.7269999980926514,-1.8049999475479126 1.2029999494552612,-1.784000039100647 1.2029999494552612,-1.784000039100647 C1.2029999494552612,-1.784000039100647 0,-3.6579999923706055 0,-3.6579999923706055 C0,-3.6579999923706055 -1.340999960899353,-1.1150000095367432 -1.340999960899353,-1.1150000095367432 C-1.340999960899353,-1.1150000095367432 -3.7269999980926514,-0.6610000133514404 -3.7269999980926514,-0.6610000133514404 C-3.7269999980926514,-0.6610000133514404 -1.8530000448226929,0.7390000224113464 -1.8530000448226929,0.7390000224113464z"/></g><g opacity="1" transform="matrix(1,0,0,1,271.20098876953125,148.14199829101562)"><path fill="rgb(242,242,242)" fill-opacity="1" d=" M-1.9889999628067017,0.9940000176429749 C-1.9889999628067017,0.9940000176429749 -2.2639999389648438,3.9019999504089355 -2.2639999389648438,3.9019999504089355 C-2.2639999389648438,3.9019999504089355 0.03099999949336052,2.0350000858306885 0.03099999949336052,2.0350000858306885 C0.03099999949336052,2.0350000858306885 2.694000005722046,2.740000009536743 2.694000005722046,2.740000009536743 C2.694000005722046,2.740000009536743 2.1429998874664307,0.10700000077486038 2.1429998874664307,0.10700000077486038 C2.1429998874664307,0.10700000077486038 4.10099983215332,-1.8519999980926514 4.10099983215332,-1.8519999980926514 C4.10099983215332,-1.8519999980926514 1.0399999618530273,-2.065999984741211 1.0399999618530273,-2.065999984741211 C1.0399999618530273,-2.065999984741211 -0.029999999329447746,-3.9019999504089355 -0.029999999329447746,-3.9019999504089355 C-0.029999999329447746,-3.9019999504089355 -1.3459999561309814,-1.3009999990463257 -1.3459999561309814,-1.3009999990463257 C-1.3459999561309814,-1.3009999990463257 -4.10099983215332,-0.382999986410141 -4.10099983215332,-0.382999986410141 C-4.10099983215332,-0.382999986410141 -1.9889999628067017,0.9940000176429749 -1.9889999628067017,0.9940000176429749z"/></g></g><g style="display: block;" transform="matrix(0.800000011920929,0,0,0.800000011920929,257.9656066894531,250.03680419921875)" opacity="0.25"><g opacity="1" transform="matrix(1,0,0,1,0,0)"><path fill="url(#__lottie_element_8835)" mask="url(#__lottie_element_8837)" fill-opacity="1" d="M0 0 M-246.5,-145.5 C-246.5,-139 -246.5,144.218994140625 -246.5,146.593994140625 C-244.71200561523438,146.76499938964844 -241.55099487304688,147.5780029296875 -237.75900268554688,148.50999450683594 C-220.5,152.75 -191.07200622558594,159.75999450683594 -178.26499938964844,161.58399963378906 C-147.25,166 -127.13200378417969,165.62600708007812 -103.76799774169922,164.74600219726562 C-50.75,162.75 -4.125,146.125 27.19499969482422,139.3300018310547 C47.95800018310547,134.8249969482422 68.79000091552734,130.64500427246094 83.74700164794922,128.94000244140625 C106.25,126.375 122.875,126.75 143.25,128.35899353027344 C183.33700561523438,131.52499389648438 217.79400634765625,139.2030029296875 241.43800354003906,147.031005859375 C241.43800354003906,147.09300231933594 241.406005859375,147.09300231933594 241.406005859375,147.06199645996094 C241.406005859375,147.06199645996094 241.406005859375,147.06199645996094 241.406005859375,147.06199645996094 C241.56199645996094,120.56199645996094 241.23399353027344,82.29100036621094 241.25,49.90599822998047 C241.26600646972656,17.08300018310547 241.43699645996094,-15.739999771118164 241.5,-48.5629997253418 C241.56199645996094,-80.91699981689453 241.5,-128.75 241.625,-145.625 C151.281005859375,-172.5 103.15699768066406,-165.1009979248047 78.5,-162.81199645996094 C23.042999267578125,-156.04600524902344 -48.707000732421875,-130.79600524902344 -83.375,-129.06199645996094 C-157.875,-120.1240005493164 -212.75,-139.625 -246.5,-145.5z"/></g></g><g style="display: block;" transform="matrix(0.800000011920929,0,0,0.800000011920929,257.9656066894531,250.03680419921875)" opacity="0.15"><g opacity="1" transform="matrix(1,0,0,1,0,0)"><path fill="rgb(255,255,255)" fill-opacity="1" d=" M-246.875,-146 C-246.83700561523438,-139.70399475097656 -246.875,-138 -246.79200744628906,-132.81100463867188 C-237.5,-136.25 -197.25,-114 -124.49600219726562,-114.31099700927734 C-38.992000579833984,-114.6760025024414 39.233001708984375,-153.25 121.70800018310547,-153.39700317382812 C179.75,-153.5 241,-132.25 240.91200256347656,-131.552001953125 C241,-140.5 241.375,-144.625 241.375,-144.625 C241.375,-144.625 179.75,-166.25 122.5,-166 C39.49700164794922,-165.63800048828125 -39.5,-128 -124.25,-126.81199645996094 C-197.0449981689453,-125.79199981689453 -237.75,-149 -246.875,-146z"/></g></g><g style="display: block;" transform="matrix(0.800000011920929,0,0,0.800000011920929,257.9656066894531,250.03680419921875)" opacity="0.15"><g opacity="1" transform="matrix(1,0,0,1,0,0)"><path fill="rgb(0,0,0)" fill-opacity="1" d=" M122.5,112.25 C34,112.25 -36,149.5 -123.5,152 C-140.61700439453125,152.48899841308594 -155.82000732421875,151.3489990234375 -170.41099548339844,149.1280059814453 C-195.23399353027344,145.35000610351562 -218.28900146484375,138.4459991455078 -246,131.125 C-246.25,134.5 -246,141.375 -246,145.125 C-218.5749969482422,153.30599975585938 -195.61700439453125,159.55499267578125 -170.83099365234375,163.0050048828125 C-155.8520050048828,165.08999633789062 -140.20399475097656,166.15199279785156 -122.5,166 C-35,165.25 33.5,126.625 121.75,126.5 C126.26799774169922,126.49400329589844 131.11399841308594,126.59500122070312 136.27699279785156,126.83899688720703 C163.25900268554688,128.11300659179688 198.88099670410156,133.2550048828125 241.375,147 C241.375,147 241.25,134.75 241.5,131.125 C199.093994140625,118.93299865722656 163.16200256347656,113.84500122070312 136.1439971923828,112.58000183105469 C131.30499267578125,112.35399627685547 126.75299835205078,112.25 122.5,112.25z"/></g></g><g style="display: block;" transform="matrix(0.800000011920929,0,0,0.800000011920929,257.9656066894531,250.03680419921875)" opacity="1"><g opacity="1" transform="matrix(1,0,0,1,0,0)"><path stroke-linecap="round" stroke-linejoin="round" fill-opacity="0" stroke="rgb(0,96,34)" stroke-opacity="1" stroke-width="8" d=" M-246.5,-145.5 C-246.5,-139 -246.5,144.218994140625 -246.5,146.593994140625 C-244.71200561523438,146.76499938964844 -241.55099487304688,147.5780029296875 -237.75900268554688,148.50999450683594 C-220.5,152.75 -191.07200622558594,159.75999450683594 -178.26499938964844,161.58399963378906 C-147.25,166 -127.13200378417969,165.62600708007812 -103.76799774169922,164.74600219726562 C-50.75,162.75 -4.125,146.125 27.19499969482422,139.3300018310547 C47.95800018310547,134.8249969482422 68.79000091552734,130.64500427246094 83.74700164794922,128.94000244140625 C106.25,126.375 122.875,126.75 143.25,128.35899353027344 C183.33700561523438,131.52499389648438 217.79400634765625,139.2030029296875 241.43800354003906,147.031005859375 C241.43800354003906,147.09300231933594 241.406005859375,147.09300231933594 241.406005859375,147.06199645996094 C241.406005859375,147.06199645996094 241.406005859375,147.06199645996094 241.406005859375,147.06199645996094 C241.56199645996094,120.56199645996094 241.23399353027344,82.29100036621094 241.25,49.90599822998047 C241.26600646972656,17.08300018310547 241.43699645996094,-15.739999771118164 241.5,-48.5629997253418 C241.56199645996094,-80.91699981689453 241.5,-128.75 241.625,-145.625 C151.281005859375,-172.5 103.15699768066406,-165.1009979248047 78.5,-162.81199645996094 C23.042999267578125,-156.04600524902344 -48.707000732421875,-130.79600524902344 -83.375,-129.06199645996094 C-157.875,-120.1240005493164 -212.75,-139.625 -246.5,-145.5z"/></g></g></g></svg>