<svg xmlns="http://www.w3.org/2000/svg" xmlns:xlink="http://www.w3.org/1999/xlink" viewBox="0 0 512 512" width="512" height="512" style="width: 100%; height: 100%; transform: translate3d(0,0,0);" preserveAspectRatio="xMidYMid meet"><defs><clipPath id="__lottie_element_1794"><rect width="512" height="512" x="0" y="0"/></clipPath><linearGradient id="__lottie_element_1800" spreadMethod="pad" gradientUnits="userSpaceOnUse" x1="-1.0399999618530273" y1="-176.5" x2="0.9599999785423279" y2="188.88900756835938"><stop offset="0%" stop-color="rgb(253,207,24)"/><stop offset="47%" stop-color="rgb(245,171,12)"/><stop offset="93%" stop-color="rgb(237,135,0)"/></linearGradient><radialGradient id="__lottie_element_1801" spreadMethod="pad" gradientUnits="userSpaceOnUse" cx="-6.039999961853027" cy="-160.1230010986328" r="342.6724710471032" fx="-6.039999961853027" fy="-160.1230010986328"><stop offset="7%" stop-color="rgb(254,254,226)"/><stop offset="28%" stop-color="rgb(253,238,140)"/><stop offset="49%" stop-color="rgb(252,222,54)"/><stop offset="82%" stop-color="rgb(245,184,32)"/><stop offset="100%" stop-color="rgb(238,145,10)"/></radialGradient><radialGradient id="__lottie_element_1811" spreadMethod="pad" gradientUnits="userSpaceOnUse" cx="130.32200622558594" cy="29.527000427246094" r="66.8699951171875" fx="130.32200622558594" fy="29.527000427246094"><stop offset="0%" stop-color="rgb(241,12,28)" stop-opacity="1"/><stop offset="59%" stop-color="rgb(224,29,33)" stop-opacity="0.5"/><stop offset="100%" stop-color="rgb(207,45,38)" stop-opacity="0"/></radialGradient><radialGradient id="__lottie_element_1812" spreadMethod="pad" gradientUnits="userSpaceOnUse" cx="-130.67799377441406" cy="29.527000427246094" r="66.8699951171875" fx="-130.67799377441406" fy="29.527000427246094"><stop offset="0%" stop-color="rgb(241,12,28)" stop-opacity="1"/><stop offset="59%" stop-color="rgb(224,29,33)" stop-opacity="0.5"/><stop offset="100%" stop-color="rgb(207,45,38)" stop-opacity="0"/></radialGradient></defs><g clip-path="url(#__lottie_element_1794)"><g style="display: block;" transform="matrix(0.9729999899864197,0,0,0.9729999899864197,255.9979248046875,261)" opacity="1"><g opacity="1" transform="matrix(1.0299999713897705,0,0,1.0299999713897705,-1.337709903717041,-0.9023900032043457)"><g opacity="1" transform="matrix(1,0,0,1,1.656999945640564,-4.2870001792907715)"><path fill="url(#__lottie_element_1800)" fill-opacity="1" d=" M194.9969940185547,0 C194.9969940185547,107.69400024414062 107.69300079345703,194.9969940185547 0,194.9969940185547 C-107.69400024414062,194.9969940185547 -194.9969940185547,107.69400024414062 -194.9969940185547,0 C-194.9969940185547,-107.69400024414062 -107.69400024414062,-194.9969940185547 0,-194.9969940185547 C107.69300079345703,-194.9969940185547 194.9969940185547,-107.69400024414062 194.9969940185547,0z"/></g><g opacity="1" transform="matrix(1,0,0,1,1.715000033378601,-6.214000225067139)"><path fill="url(#__lottie_element_1801)" fill-opacity="1" d=" M173.80799865722656,2.6630001068115234 C172.3040008544922,100.77200317382812 93.26899719238281,179.11199951171875 -2.7230000495910645,177.63999938964844 C-98.71399688720703,176.16799926757812 -175.31199645996094,95.44499969482422 -173.80799865722656,-2.6640000343322754 C-172.3040008544922,-100.77300262451172 -93.26899719238281,-179.11199951171875 2.7230000495910645,-177.64100646972656 C98.71399688720703,-176.16900634765625 175.31199645996094,-95.44499969482422 173.80799865722656,2.6630001068115234z"/></g><g opacity="1" transform="matrix(1,0,0,1,1.656999945640564,-4.2870001792907715)"><path stroke-linecap="butt" stroke-linejoin="miter" fill-opacity="0" stroke-miterlimit="10" stroke="rgb(231,105,0)" stroke-opacity="1" stroke-width="8.259" d=" M194.9969940185547,0 C194.9969940185547,107.69400024414062 107.69300079345703,194.9969940185547 0,194.9969940185547 C-107.69400024414062,194.9969940185547 -194.9969940185547,107.69400024414062 -194.9969940185547,0 C-194.9969940185547,-107.69400024414062 -107.69400024414062,-194.9969940185547 0,-194.9969940185547 C107.69300079345703,-194.9969940185547 194.9969940185547,-107.69400024414062 194.9969940185547,0z"/></g></g></g><g style="display: block;" transform="matrix(0.9729999899864197,0,0,0.9729999899864197,255.9979248046875,260.9990234375)" opacity="1"><g opacity="0.5" transform="matrix(1,0,0,1,0,0)"><path fill="url(#__lottie_element_1811)" fill-opacity="1" d=" M197.7310028076172,29.985000610351562 C197.7310028076172,50.90299987792969 188.12600708007812,69.5780029296875 173.08599853515625,81.83999633789062 C161.572998046875,91.22699737548828 146.87399291992188,96.8550033569336 130.86099243164062,96.8550033569336 C93.93000030517578,96.8550033569336 63.99100112915039,66.91600036621094 63.99100112915039,29.985000610351562 C63.99100112915039,-6.946000099182129 93.93000030517578,-36.8849983215332 130.86099243164062,-36.8849983215332 C146.08799743652344,-36.8849983215332 160.12600708007812,-31.79599952697754 171.36700439453125,-23.22599983215332 C187.38999938964844,-11.010000228881836 197.7310028076172,8.279999732971191 197.7310028076172,29.985000610351562z"/></g><g opacity="0.5" transform="matrix(1,0,0,1,0,0)"><path fill="url(#__lottie_element_1812)" fill-opacity="1" d=" M-62.95100021362305,29.985000610351562 C-62.95100021362305,53.6150016784668 -75.20700073242188,74.38200378417969 -93.70999908447266,86.2760009765625 C-104.125,92.97100067138672 -116.5199966430664,96.8550033569336 -129.8209991455078,96.8550033569336 C-166.7519989013672,96.8550033569336 -196.6909942626953,66.91600036621094 -196.6909942626953,29.985000610351562 C-196.6909942626953,-1.9119999408721924 -174.35899353027344,-28.5939998626709 -144.4759979248047,-35.275001525878906 C-139.75999450683594,-36.32899856567383 -134.85499572753906,-36.8849983215332 -129.8209991455078,-36.8849983215332 C-92.88999938964844,-36.8849983215332 -62.95100021362305,-6.946000099182129 -62.95100021362305,29.985000610351562z"/></g></g><g style="display: block;" transform="matrix(0.9729999899864197,0,0,0.9729999899864197,255.9979248046875,261)" opacity="1"><g opacity="1" transform="matrix(1,0,0,1,0,0)"><path fill="rgb(234,172,31)" fill-opacity="1" d=" M95.26200103759766,50.284000396728516 C65.41300201416016,70.04000091552734 41.69900131225586,80.25399780273438 -0.12200000137090683,80.42500305175781 C-41.94300079345703,80.25399780273438 -65.65699768066406,70.04000091552734 -95.50599670410156,50.284000396728516 C-97.4000015258789,49.025001525878906 -103.71900177001953,50.8390007019043 -101.66500091552734,57.439998626708984 C-98.06700134277344,69.00199890136719 -63.59600067138672,105.61399841308594 -0.12200000137090683,106.00900268554688 C63.35200119018555,105.61399841308594 98.34200286865234,68.74299621582031 101.4540023803711,57.04100036621094 C103.18000030517578,50.54999923706055 97.15599822998047,49.025001525878906 95.26200103759766,50.284000396728516z"/></g><g opacity="1" transform="matrix(1,0,0,1,0,0)"><path fill="rgb(254,221,120)" fill-opacity="1" d=" M95.64600372314453,54.75899887084961 C65.62899780273438,77.78199768066406 42.678001403808594,89.03299713134766 -0.12200000137090683,89.22599792480469 C-42.922000885009766,89.03299713134766 -66.25700378417969,77.72000122070312 -96.21900177001953,54.625 C-99.4010009765625,52.17300033569336 -102.4209976196289,54.90999984741211 -101.55999755859375,57.93600082397461 C-97.83499908447266,70.9800033569336 -65.08000183105469,116.33300018310547 -0.12200000137090683,116.77899932861328 C64.83599853515625,116.33300018310547 97.59100341796875,70.9800033569336 101.31600189208984,57.93600082397461 C102.177001953125,54.90999984741211 99.15699768066406,52.066001892089844 95.64600372314453,54.75899887084961z"/></g><g opacity="1" transform="matrix(1,0,0,1,0,0)"><path fill="rgb(151,72,0)" fill-opacity="1" d=" M95.26200103759766,54.97600173950195 C65.41300201416016,74.73200225830078 41.69900131225586,86.01300048828125 -0.12200000137090683,86.18399810791016 C-41.94300079345703,86.01300048828125 -65.65699768066406,74.73200225830078 -95.50599670410156,54.97600173950195 C-97.4000015258789,53.71699905395508 -100.08300018310547,54.858001708984375 -99.24099731445312,57.5369987487793 C-95.60099792480469,69.08499908447266 -63.59600067138672,109.23899841308594 -0.12200000137090683,109.63400268554688 C63.35200119018555,109.23899841308594 95.35800170898438,69.08499908447266 98.99800109863281,57.5369987487793 C99.83999633789062,54.858001708984375 97.15599822998047,53.71699905395508 95.26200103759766,54.97600173950195z"/></g><g opacity="1" transform="matrix(1,0,0,1,0,0)"><path fill="rgb(99,41,0)" fill-opacity="1" d=" M98.99299621582031,57.534000396728516 C98.76000213623047,58.652000427246094 96.15399932861328,60.6609992980957 95.25700378417969,61.25899887084961 C65.41500091552734,81.01499938964844 41.69900131225586,93.36299896240234 -0.11900000274181366,93.53399658203125 C-41.946998596191406,93.36299896240234 -65.65299987792969,81.01499938964844 -95.50599670410156,61.25899887084961 C-96.4020004272461,60.6609992980957 -98.59600067138672,59.00299835205078 -99.24099731445312,57.534000396728516 C-100.322998046875,55.069000244140625 -97.3949966430664,53.7130012512207 -95.50599670410156,54.97200012207031 C-65.65299987792969,74.72799682617188 -41.946998596191406,86.01000213623047 -0.11900000274181366,86.18099975585938 C41.69900131225586,86.01000213623047 65.41500091552734,74.72799682617188 95.25700378417969,54.97200012207031 C97.15699768066406,53.7130012512207 99.56600189208984,54.78499984741211 98.99299621582031,57.534000396728516z"/></g></g><g style="display: block;" transform="matrix(0.9729999899864197,0,0,0.9729999899864197,255.99794006347656,261)" opacity="1"><g opacity="1" transform="matrix(1,0,0,1,0,0)"><g opacity="1" transform="matrix(1,0,0,1,0,0)"><g opacity="1" transform="matrix(1,0,0,1,0,0)"><path fill="rgb(234,172,31)" fill-opacity="1" d=" M27.95400047302246,-55.77899932861328 C36.99100112915039,-77.82499694824219 54.97200012207031,-78.01000213623047 58.08300018310547,-78.01000213623047 C61.01100158691406,-78.01000213623047 79.17500305175781,-77.82499694824219 88.21199798583984,-55.77899932861328 C99.31199645996094,-28.698999404907227 85.8949966430664,0.6700000166893005 81.625,-11.866000175476074 C73.0250015258789,-37.11600112915039 60.689998626708984,-36.84199905395508 58.08300018310547,-36.84199905395508 C55.33399963378906,-36.84199905395508 43.14099884033203,-37.11600112915039 34.54100036621094,-11.866000175476074 C30.270999908447266,0.6700000166893005 16.854000091552734,-28.698999404907227 27.95400047302246,-55.77899932861328z"/></g><g opacity="1" transform="matrix(1,0,0,1,0,0)"><path fill="rgb(255,224,164)" fill-opacity="1" d=" M27.95400047302246,-44.03799819946289 C36.99100112915039,-66.08399963378906 79.17500305175781,-66.08399963378906 88.21199798583984,-44.03799819946289 C99.31199645996094,-16.95800018310547 85.8949966430664,12.40999984741211 81.625,-0.12600000202655792 C73.0250015258789,-25.375999450683594 60.689998626708984,-25.10099983215332 58.08300018310547,-25.10099983215332 C55.33399963378906,-25.10099983215332 43.14099884033203,-25.375999450683594 34.54100036621094,-0.12600000202655792 C30.270999908447266,12.40999984741211 16.854000091552734,-16.95800018310547 27.95400047302246,-44.03799819946289z"/></g><g opacity="1" transform="matrix(1,0,0,1,0,0)"><path fill="rgb(151,72,0)" fill-opacity="1" d=" M29.020999908447266,-49.375 C38.05799865722656,-71.4209976196289 54.97200012207031,-71.60600280761719 58.08300018310547,-71.60600280761719 C61.01100158691406,-71.60600280761719 78.10800170898438,-71.4209976196289 87.1449966430664,-49.375 C98.24500274658203,-22.295000076293945 88.02999877929688,7.073999881744385 83.76000213623047,-5.461999893188477 C75.16000366210938,-30.711999893188477 60.689998626708984,-30.437999725341797 58.08300018310547,-30.437999725341797 C55.33399963378906,-30.437999725341797 41.00600051879883,-30.711999893188477 32.40599822998047,-5.461999893188477 C28.13599967956543,7.073999881744385 17.92099952697754,-22.295000076293945 29.020999908447266,-49.375z"/></g><g opacity="1" transform="matrix(1,0,0,1,0,0)"><path fill="rgb(99,41,0)" fill-opacity="1" d=" M25.67099952697754,-9.395999908447266 C24.77400016784668,-18.18000030517578 25.586000442504883,-28.88599967956543 30.15399932861328,-40.242000579833984 C38.84199905395508,-61.85499954223633 55.09700012207031,-62.0260009765625 58.08599853515625,-62.0260009765625 C60.893001556396484,-62.0260009765625 77.31900024414062,-61.85499954223633 86.00700378417969,-40.242000579833984 C90.56400299072266,-28.88599967956543 91.38700103759766,-18.19099998474121 90.5009994506836,-9.406999588012695 C92.89199829101562,-18.222999572753906 93.38200378417969,-34.16899871826172 87.14900207519531,-49.37799835205078 C78.10900115966797,-71.41799926757812 61.0099983215332,-71.61100006103516 58.08599853515625,-71.61100006103516 C54.96900177001953,-71.61100006103516 38.0629997253418,-71.41799926757812 29.023000717163086,-49.37799835205078 C22.77899932861328,-34.15800094604492 23.280000686645508,-18.211999893188477 25.67099952697754,-9.395999908447266z"/></g></g></g><g opacity="1" transform="matrix(1,0,0,1,0,0)"><g opacity="1" transform="matrix(1,0,0,1,0,0)"><path fill="rgb(234,172,31)" fill-opacity="1" d=" M-28.156999588012695,-55.77899932861328 C-37.194000244140625,-77.82499694824219 -55.17499923706055,-78.01000213623047 -58.2859992980957,-78.01000213623047 C-61.2140007019043,-78.01000213623047 -79.37799835205078,-77.82499694824219 -88.41500091552734,-55.77899932861328 C-99.51499938964844,-28.698999404907227 -86.0979995727539,0.6700000166893005 -81.8280029296875,-11.866000175476074 C-73.22799682617188,-37.11600112915039 -60.893001556396484,-36.84199905395508 -58.2859992980957,-36.84199905395508 C-55.5369987487793,-36.84199905395508 -43.34400177001953,-37.11600112915039 -34.74399948120117,-11.866000175476074 C-30.474000930786133,0.6700000166893005 -17.05699920654297,-28.698999404907227 -28.156999588012695,-55.77899932861328z"/></g><g opacity="1" transform="matrix(1,0,0,1,0,0)"><path fill="rgb(255,224,164)" fill-opacity="1" d=" M-28.156999588012695,-44.03799819946289 C-37.194000244140625,-66.08399963378906 -79.37799835205078,-66.08399963378906 -88.41500091552734,-44.03799819946289 C-99.51499938964844,-16.95800018310547 -86.0979995727539,12.40999984741211 -81.8280029296875,-0.12600000202655792 C-73.22799682617188,-25.375999450683594 -60.893001556396484,-25.10099983215332 -58.2859992980957,-25.10099983215332 C-55.5369987487793,-25.10099983215332 -43.34400177001953,-25.375999450683594 -34.74399948120117,-0.12600000202655792 C-30.474000930786133,12.40999984741211 -17.05699920654297,-16.95800018310547 -28.156999588012695,-44.03799819946289z"/></g><g opacity="1" transform="matrix(1,0,0,1,0,0)"><path fill="rgb(151,72,0)" fill-opacity="1" d=" M-29.224000930786133,-49.375 C-38.26100158691406,-71.4209976196289 -55.17499923706055,-71.60600280761719 -58.2859992980957,-71.60600280761719 C-61.2140007019043,-71.60600280761719 -78.31099700927734,-71.4209976196289 -87.3479995727539,-49.375 C-98.447998046875,-22.295000076293945 -88.23300170898438,7.073999881744385 -83.96299743652344,-5.461999893188477 C-75.36299896240234,-30.711999893188477 -60.893001556396484,-30.437999725341797 -58.2859992980957,-30.437999725341797 C-55.5369987487793,-30.437999725341797 -41.20899963378906,-30.711999893188477 -32.60900115966797,-5.461999893188477 C-28.339000701904297,7.073999881744385 -18.124000549316406,-22.295000076293945 -29.224000930786133,-49.375z"/></g><g opacity="1" transform="matrix(1,0,0,1,0,0)"><path fill="rgb(99,41,0)" fill-opacity="1" d=" M-25.874000549316406,-9.395999908447266 C-24.976999282836914,-18.18000030517578 -25.788999557495117,-28.88599967956543 -30.35700035095215,-40.242000579833984 C-39.04499816894531,-61.85499954223633 -55.29999923706055,-62.0260009765625 -58.28900146484375,-62.0260009765625 C-61.09600067138672,-62.0260009765625 -77.52200317382812,-61.85499954223633 -86.20999908447266,-40.242000579833984 C-90.76699829101562,-28.88599967956543 -91.58999633789062,-18.19099998474121 -90.7040023803711,-9.406999588012695 C-93.09500122070312,-18.222999572753906 -93.58499908447266,-34.16899871826172 -87.35199737548828,-49.37799835205078 C-78.31199645996094,-71.41799926757812 -61.2130012512207,-71.61100006103516 -58.28900146484375,-71.61100006103516 C-55.172000885009766,-71.61100006103516 -38.26599884033203,-71.41799926757812 -29.22599983215332,-49.37799835205078 C-22.98200035095215,-34.15800094604492 -23.482999801635742,-18.211999893188477 -25.874000549316406,-9.395999908447266z"/></g></g></g></g></svg>