<svg xmlns="http://www.w3.org/2000/svg" xmlns:xlink="http://www.w3.org/1999/xlink" viewBox="0 0 512 512" width="512" height="512" style="width: 100%; height: 100%; transform: translate3d(0,0,0);" preserveAspectRatio="xMidYMid meet"><defs><clipPath id="__lottie_element_20961"><rect width="512" height="512" x="0" y="0"/></clipPath><linearGradient id="__lottie_element_20980" spreadMethod="pad" gradientUnits="userSpaceOnUse" x1="-246" y1="1" x2="243" y2="0"><stop offset="0%" stop-color="rgb(0,0,0)"/><stop offset="25%" stop-color="rgb(0,0,0)"/><stop offset="50%" stop-color="rgb(0,0,0)"/><stop offset="75%" stop-color="rgb(0,0,0)"/><stop offset="100%" stop-color="rgb(0,0,0)"/></linearGradient><mask id="__lottie_element_20982"><path fill="url(#__lottie_element_20981)" d=" M-246.5,-145.5 C-246.5,-139 -246.5,144.218994140625 -246.5,146.593994140625 C-244.71200561523438,146.76499938964844 -241.55099487304688,147.5780029296875 -237.75900268554688,148.50999450683594 C-220.5,152.75 -191.07200622558594,159.75999450683594 -178.26499938964844,161.58399963378906 C-147.25,166 -127.13200378417969,165.62600708007812 -103.76799774169922,164.74600219726562 C-50.75,162.75 -4.125,146.125 27.19499969482422,139.3300018310547 C47.95800018310547,134.8249969482422 68.79000091552734,130.64500427246094 83.74700164794922,128.94000244140625 C106.25,126.375 122.875,126.75 143.25,128.35899353027344 C183.33700561523438,131.52499389648438 217.79400634765625,139.2030029296875 241.43800354003906,147.031005859375 C241.43800354003906,147.09300231933594 241.406005859375,147.09300231933594 241.406005859375,147.06199645996094 C241.406005859375,147.06199645996094 241.406005859375,147.06199645996094 241.406005859375,147.06199645996094 C241.56199645996094,120.56199645996094 241.23399353027344,82.29100036621094 241.25,49.90599822998047 C241.26600646972656,17.08300018310547 241.43699645996094,-15.739999771118164 241.5,-48.5629997253418 C241.56199645996094,-80.91699981689453 241.5,-128.75 241.625,-145.625 C151.281005859375,-172.5 103.15699768066406,-165.1009979248047 78.5,-162.81199645996094 C23.042999267578125,-156.04600524902344 -48.707000732421875,-130.79600524902344 -83.375,-129.06199645996094 C-157.875,-120.1240005493164 -212.75,-139.625 -246.5,-145.5z"/></mask><linearGradient id="__lottie_element_20981" spreadMethod="pad" gradientUnits="userSpaceOnUse" x1="-246" y1="1" x2="243" y2="0"><stop stop-color="rgb(255,255,255)" offset="0%" stop-opacity="1"/><stop stop-color="rgb(255,255,255)" offset="17%" stop-opacity="0.5"/><stop stop-color="rgb(255,255,255)" offset="33%" stop-opacity="0"/><stop stop-color="rgb(255,255,255)" offset="50%" stop-opacity="0"/><stop stop-color="rgb(255,255,255)" offset="66%" stop-opacity="0"/><stop stop-color="rgb(255,255,255)" offset="83%" stop-opacity="0.5"/><stop stop-color="rgb(255,255,255)" offset="100%" stop-opacity="1"/></linearGradient></defs><g clip-path="url(#__lottie_element_20961)"><g style="display: block;" transform="matrix(0.800000011920929,0,0,0.800000011920929,257.9656066894531,250.03680419921875)" opacity="1"><g opacity="1" transform="matrix(1,0,0,1,0,0)"><path fill="rgb(24,56,150)" fill-opacity="1" d=" M-246.5,-145.5 C-246.5,-139 -246.5,144.218994140625 -246.5,146.593994140625 C-244.71200561523438,146.76499938964844 -241.55099487304688,147.5780029296875 -237.75900268554688,148.50999450683594 C-220.5,152.75 -191.07200622558594,159.75999450683594 -178.26499938964844,161.58399963378906 C-147.25,166 -127.13200378417969,165.62600708007812 -103.76799774169922,164.74600219726562 C-50.75,162.75 -4.125,146.125 27.19499969482422,139.3300018310547 C47.95800018310547,134.8249969482422 68.79000091552734,130.64500427246094 83.74700164794922,128.94000244140625 C106.25,126.375 122.875,126.75 143.25,128.35899353027344 C183.33700561523438,131.52499389648438 217.79400634765625,139.2030029296875 241.43800354003906,147.031005859375 C241.43800354003906,147.09300231933594 241.406005859375,147.09300231933594 241.406005859375,147.06199645996094 C241.406005859375,147.06199645996094 241.406005859375,147.06199645996094 241.406005859375,147.06199645996094 C241.56199645996094,120.56199645996094 241.23399353027344,82.29100036621094 241.25,49.90599822998047 C241.26600646972656,17.08300018310547 241.43699645996094,-15.739999771118164 241.5,-48.5629997253418 C241.56199645996094,-80.91699981689453 241.5,-128.75 241.625,-145.625 C151.281005859375,-172.5 103.15699768066406,-165.1009979248047 78.5,-162.81199645996094 C23.042999267578125,-156.04600524902344 -48.707000732421875,-130.79600524902344 -83.375,-129.06199645996094 C-157.875,-120.1240005493164 -212.75,-139.625 -246.5,-145.5z"/></g></g><g style="display: block;" transform="matrix(0.800000011920929,0,0,0.800000011920929,256,250)" opacity="1"><g opacity="1" transform="matrix(1,0,0,1,0,0)"><path fill="rgb(223,63,79)" fill-opacity="1" d=" M-55.375,-132.5 C-55.375,-121.21700286865234 -55.34199905395508,-90.40399932861328 -55.310001373291016,-61.915000915527344 C-55.279998779296875,-34.85499954223633 -55.25,-9.890999794006348 -55.25,-5.75 C-68.875,-1.75 -108.75,2.125 -118.5,1.25 C-118.625,-7.25 -118.25,-126.75 -118.25,-126.75 C-118.25,-126.75 -85.5,-127.25 -55.375,-132.5z"/></g><g opacity="1" transform="matrix(1,0,0,1,0,0)"><path fill="rgb(242,242,242)" fill-opacity="1" d=" M-182.25,-132.5 C-182.25,-110.5 -181.75,-12.75 -181.75,-4.25 C-171.25,-2.5 -133.625,2 -118.5,1.25 C-118.56099700927734,-2.9070000648498535 -118.50299835205078,-33.60900115966797 -118.427001953125,-63.900001525878906 C-118.3479995727539,-95.55000305175781 -118.25,-126.75 -118.25,-126.75 C-118.25,-126.75 -165,-129 -182.25,-132.5z"/></g><g opacity="1" transform="matrix(1,0,0,1,0,0)"><path stroke-linecap="butt" stroke-linejoin="miter" fill-opacity="0" stroke-miterlimit="4" stroke="rgb(242,242,242)" stroke-opacity="1" stroke-width="3.5" d=" M-243.68800354003906,-17.875 C-221.1479949951172,-12.432000160217285 -192.8520050048828,-4.922999858856201 -160.04200744628906,-1.152999997138977 C-128.80299377441406,2.437000036239624 -93.4729995727539,2.638000011444092 -55.125,-5.561999797821045 C-55.125,-14.472999572753906 -55.17300033569336,-47.15599822998047 -55.22100067138672,-77.09200286865234 C-55.266998291015625,-105.9469985961914 -55.3120002746582,-132.25 -55.3120002746582,-132.25"/></g></g><g style="display: block;" transform="matrix(0.800000011920929,0,0,0.800000011920929,256,250)" opacity="1"><g opacity="1" transform="matrix(1,0,0,1,0,0)"><path fill="rgb(242,242,242)" fill-opacity="1" d=" M52.452999114990234,61.327999114990234 C52.452999114990234,61.327999114990234 48.8120002746582,72.875 48.8120002746582,72.875 C48.8120002746582,72.875 37.71900177001953,74.98400115966797 37.71900177001953,74.98400115966797 C37.71900177001953,74.98400115966797 46.875,79.7969970703125 46.875,79.7969970703125 C46.875,79.7969970703125 43.4379997253418,91.01599884033203 43.4379997253418,91.01599884033203 C43.4379997253418,91.01599884033203 52.4379997253418,82.65599822998047 52.4379997253418,82.65599822998047 C52.4379997253418,82.65599822998047 61.5620002746582,87.5 61.5620002746582,87.5 C61.5620002746582,87.5 58.0620002746582,77.625 58.0620002746582,77.625 C58.0620002746582,77.625 67,69.43800354003906 67,69.43800354003906 C67,69.43800354003906 55.75,71.31199645996094 55.75,71.31199645996094 C55.75,71.31199645996094 52.452999114990234,61.327999114990234 52.452999114990234,61.327999114990234z"/><path stroke-linecap="butt" stroke-linejoin="miter" fill-opacity="0" stroke-miterlimit="4" stroke="rgb(242,242,242)" stroke-opacity="1" stroke-width="0" d=" M52.452999114990234,61.327999114990234 C52.452999114990234,61.327999114990234 48.8120002746582,72.875 48.8120002746582,72.875 C48.8120002746582,72.875 37.71900177001953,74.98400115966797 37.71900177001953,74.98400115966797 C37.71900177001953,74.98400115966797 46.875,79.7969970703125 46.875,79.7969970703125 C46.875,79.7969970703125 43.4379997253418,91.01599884033203 43.4379997253418,91.01599884033203 C43.4379997253418,91.01599884033203 52.4379997253418,82.65599822998047 52.4379997253418,82.65599822998047 C52.4379997253418,82.65599822998047 61.5620002746582,87.5 61.5620002746582,87.5 C61.5620002746582,87.5 58.0620002746582,77.625 58.0620002746582,77.625 C58.0620002746582,77.625 67,69.43800354003906 67,69.43800354003906 C67,69.43800354003906 55.75,71.31199645996094 55.75,71.31199645996094 C55.75,71.31199645996094 52.452999114990234,61.327999114990234 52.452999114990234,61.327999114990234z"/></g><g opacity="1" transform="matrix(1,0,0,1,0,0)"><path fill="rgb(242,242,242)" fill-opacity="1" d=" M84.81199645996094,81.56199645996094 C84.81199645996094,81.56199645996094 81.25,92.75 81.25,92.75 C81.25,92.75 69.625,93.875 69.625,93.875 C69.625,93.875 79.06199645996094,99.625 79.06199645996094,99.625 C79.06199645996094,99.625 75.75,110.625 75.75,110.625 C75.75,110.625 84.81199645996094,102.81199645996094 84.81199645996094,102.81199645996094 C84.81199645996094,102.81199645996094 93.93800354003906,108.43800354003906 93.93800354003906,108.43800354003906 C93.93800354003906,108.43800354003906 90.375,98.375 90.375,98.375 C90.375,98.375 99.75,90.625 99.75,90.625 C99.75,90.625 88.25,91.625 88.25,91.625 C88.25,91.625 84.81199645996094,81.56199645996094 84.81199645996094,81.56199645996094z"/><path stroke-linecap="butt" stroke-linejoin="miter" fill-opacity="0" stroke-miterlimit="4" stroke="rgb(242,242,242)" stroke-opacity="1" stroke-width="0" d=" M84.81199645996094,81.56199645996094 C84.81199645996094,81.56199645996094 81.25,92.75 81.25,92.75 C81.25,92.75 69.625,93.875 69.625,93.875 C69.625,93.875 79.06199645996094,99.625 79.06199645996094,99.625 C79.06199645996094,99.625 75.75,110.625 75.75,110.625 C75.75,110.625 84.81199645996094,102.81199645996094 84.81199645996094,102.81199645996094 C84.81199645996094,102.81199645996094 93.93800354003906,108.43800354003906 93.93800354003906,108.43800354003906 C93.93800354003906,108.43800354003906 90.375,98.375 90.375,98.375 C90.375,98.375 99.75,90.625 99.75,90.625 C99.75,90.625 88.25,91.625 88.25,91.625 C88.25,91.625 84.81199645996094,81.56199645996094 84.81199645996094,81.56199645996094z"/></g><g opacity="1" transform="matrix(1,0,0,1,0,0)"><path fill="rgb(242,242,242)" fill-opacity="1" d=" M118.375,54.125 C118.375,54.125 114.75,64.81199645996094 114.75,64.81199645996094 C114.75,64.81199645996094 103.125,65.18800354003906 103.125,65.18800354003906 C103.125,65.18800354003906 112.75,71.43800354003906 112.75,71.43800354003906 C112.75,71.43800354003906 109.06199645996094,82.375 109.06199645996094,82.375 C109.06199645996094,82.375 118.5,75.5 118.5,75.5 C118.5,75.5 127.93800354003906,82.125 127.93800354003906,82.125 C127.93800354003906,82.125 124.06199645996094,71.43800354003906 124.06199645996094,71.43800354003906 C124.06199645996094,71.43800354003906 133.375,64.81199645996094 133.375,64.81199645996094 C133.375,64.81199645996094 122.06199645996094,64.75 122.06199645996094,64.75 C122.06199645996094,64.75 118.375,54.125 118.375,54.125z"/><path stroke-linecap="butt" stroke-linejoin="miter" fill-opacity="0" stroke-miterlimit="4" stroke="rgb(242,242,242)" stroke-opacity="1" stroke-width="0" d=" M118.375,54.125 C118.375,54.125 114.75,64.81199645996094 114.75,64.81199645996094 C114.75,64.81199645996094 103.125,65.18800354003906 103.125,65.18800354003906 C103.125,65.18800354003906 112.75,71.43800354003906 112.75,71.43800354003906 C112.75,71.43800354003906 109.06199645996094,82.375 109.06199645996094,82.375 C109.06199645996094,82.375 118.5,75.5 118.5,75.5 C118.5,75.5 127.93800354003906,82.125 127.93800354003906,82.125 C127.93800354003906,82.125 124.06199645996094,71.43800354003906 124.06199645996094,71.43800354003906 C124.06199645996094,71.43800354003906 133.375,64.81199645996094 133.375,64.81199645996094 C133.375,64.81199645996094 122.06199645996094,64.75 122.06199645996094,64.75 C122.06199645996094,64.75 118.375,54.125 118.375,54.125z"/></g><g opacity="1" transform="matrix(1,0,0,1,0,0)"><path fill="rgb(242,242,242)" fill-opacity="1" d=" M25.125,-7.125 C25.125,-7.125 21.5939998626709,4.359000205993652 21.5939998626709,4.359000205993652 C21.5939998626709,4.359000205993652 10.75,7 10.75,7 C10.75,7 19.452999114990234,11.265999794006348 19.452999114990234,11.265999794006348 C19.452999114990234,11.265999794006348 16.125,23 16.125,23 C16.125,23 25.1560001373291,14.062000274658203 25.1560001373291,14.062000274658203 C25.1560001373291,14.062000274658203 34.202999114990234,18.8439998626709 34.202999114990234,18.8439998626709 C34.202999114990234,18.8439998626709 30.812000274658203,8.812000274658203 30.812000274658203,8.812000274658203 C30.812000274658203,8.812000274658203 39.5620002746582,0.07800000160932541 39.5620002746582,0.07800000160932541 C39.5620002746582,0.07800000160932541 28.687999725341797,2.578000068664551 28.687999725341797,2.578000068664551 C28.687999725341797,2.578000068664551 25.125,-7.125 25.125,-7.125z"/><path stroke-linecap="butt" stroke-linejoin="miter" fill-opacity="0" stroke-miterlimit="4" stroke="rgb(242,242,242)" stroke-opacity="1" stroke-width="0" d=" M25.125,-7.125 C25.125,-7.125 21.5939998626709,4.359000205993652 21.5939998626709,4.359000205993652 C21.5939998626709,4.359000205993652 10.75,7 10.75,7 C10.75,7 19.452999114990234,11.265999794006348 19.452999114990234,11.265999794006348 C19.452999114990234,11.265999794006348 16.125,23 16.125,23 C16.125,23 25.1560001373291,14.062000274658203 25.1560001373291,14.062000274658203 C25.1560001373291,14.062000274658203 34.202999114990234,18.8439998626709 34.202999114990234,18.8439998626709 C34.202999114990234,18.8439998626709 30.812000274658203,8.812000274658203 30.812000274658203,8.812000274658203 C30.812000274658203,8.812000274658203 39.5620002746582,0.07800000160932541 39.5620002746582,0.07800000160932541 C39.5620002746582,0.07800000160932541 28.687999725341797,2.578000068664551 28.687999725341797,2.578000068664551 C28.687999725341797,2.578000068664551 25.125,-7.125 25.125,-7.125z"/></g><g opacity="1" transform="matrix(1,0,0,1,0,0)"><path fill="rgb(242,242,242)" fill-opacity="1" d=" M146.781005859375,-19.452999114990234 C146.781005859375,-19.452999114990234 143.19500732421875,-8.812000274658203 143.19500732421875,-8.812000274658203 C143.19500732421875,-8.812000274658203 131.85899353027344,-9.437999725341797 131.85899353027344,-9.437999725341797 C131.85899353027344,-9.437999725341797 141.125,-2.25 141.125,-2.25 C141.125,-2.25 137.5,8 137.5,8 C137.5,8 146.781005859375,2.078000068664551 146.781005859375,2.078000068664551 C146.781005859375,2.078000068664551 155.875,9.312000274658203 155.875,9.312000274658203 C155.875,9.312000274658203 152.406005859375,-1.437999963760376 152.406005859375,-1.437999963760376 C152.406005859375,-1.437999963760376 161.5780029296875,-7.218999862670898 161.5780029296875,-7.218999862670898 C161.5780029296875,-7.218999862670898 150.25,-8.140999794006348 150.25,-8.140999794006348 C150.25,-8.140999794006348 146.781005859375,-19.452999114990234 146.781005859375,-19.452999114990234z"/><path stroke-linecap="butt" stroke-linejoin="miter" fill-opacity="0" stroke-miterlimit="4" stroke="rgb(242,242,242)" stroke-opacity="1" stroke-width="0" d=" M146.781005859375,-19.452999114990234 C146.781005859375,-19.452999114990234 143.19500732421875,-8.812000274658203 143.19500732421875,-8.812000274658203 C143.19500732421875,-8.812000274658203 131.85899353027344,-9.437999725341797 131.85899353027344,-9.437999725341797 C131.85899353027344,-9.437999725341797 141.125,-2.25 141.125,-2.25 C141.125,-2.25 137.5,8 137.5,8 C137.5,8 146.781005859375,2.078000068664551 146.781005859375,2.078000068664551 C146.781005859375,2.078000068664551 155.875,9.312000274658203 155.875,9.312000274658203 C155.875,9.312000274658203 152.406005859375,-1.437999963760376 152.406005859375,-1.437999963760376 C152.406005859375,-1.437999963760376 161.5780029296875,-7.218999862670898 161.5780029296875,-7.218999862670898 C161.5780029296875,-7.218999862670898 150.25,-8.140999794006348 150.25,-8.140999794006348 C150.25,-8.140999794006348 146.781005859375,-19.452999114990234 146.781005859375,-19.452999114990234z"/></g><g opacity="1" transform="matrix(1,0,0,1,0,0)"><path fill="rgb(242,242,242)" fill-opacity="1" d=" M113.81199645996094,18.187999725341797 C113.81199645996094,18.187999725341797 119.5,27.312000274658203 119.5,27.312000274658203 C119.5,27.312000274658203 108.31199645996094,27.3439998626709 108.31199645996094,27.3439998626709 C108.31199645996094,27.3439998626709 113.81199645996094,18.187999725341797 113.81199645996094,18.187999725341797z M56.5,23.312000274658203 C56.5,23.312000274658203 63.21900177001953,32.65599822998047 63.21900177001953,32.65599822998047 C63.21900177001953,32.65599822998047 51.375,34.84400177001953 51.375,34.84400177001953 C51.375,34.84400177001953 56.5,23.312000274658203 56.5,23.312000274658203z M130.43800354003906,-36.875 C107.06300354003906,-39.25 53,-31.25 40.4379997253418,-27.25 C42.75,-24.25 47.09400177001953,-17.25 49.71900177001953,-14.25 C63.75,-17.375 76.75,-18.937999725341797 76.75,-18.937999725341797 C76.75,-18.937999725341797 76.71900177001953,33.875 76.71900177001953,33.875 C76.71900177001953,33.875 56.40599822998047,5.406000137329102 56.40599822998047,5.406000137329102 C56.40599822998047,5.406000137329102 29.5,54.1879997253418 29.5,54.1879997253418 C29.5,54.1879997253418 46.125,50.75 46.125,50.75 C46.125,50.75 48.375,45.375 48.375,45.375 C48.375,45.375 65.56199645996094,42.25 65.56199645996094,42.25 C65.56199645996094,42.25 85.18800354003906,70.56199645996094 85.18800354003906,70.56199645996094 C85.18800354003906,70.56199645996094 104.875,37.6879997253418 104.875,37.6879997253418 C104.875,37.6879997253418 122,37.3120002746582 122,37.3120002746582 C122,37.3120002746582 124.56199645996094,42.125 124.56199645996094,42.125 C124.56199645996094,42.125 141.81199645996094,42.75 141.81199645996094,42.75 C141.81199645996094,42.75 114.25,-1.218999981880188 114.25,-1.218999981880188 C114.25,-1.218999981880188 93.75,31.812000274658203 93.75,31.812000274658203 C93.75,31.812000274658203 93.75,2.625 93.75,2.625 C93.75,2.625 106.06199645996094,1.625 106.06199645996094,1.625 C106.06199645996094,1.625 115,-12.75 115,-12.75 C115,-12.75 93.875,-11.75 93.875,-11.75 C93.875,-11.75 93.68800354003906,-20.9689998626709 93.68800354003906,-20.9689998626709 C93.68800354003906,-20.9689998626709 109.03099822998047,-22.0939998626709 120.90599822998047,-22.0939998626709 C123.15599822998047,-25.2189998626709 127.18800354003906,-31.5 130.43800354003906,-36.875z"/><path stroke-linecap="butt" stroke-linejoin="miter" fill-opacity="0" stroke-miterlimit="4" stroke="rgb(242,242,242)" stroke-opacity="1" stroke-width="0" d=" M113.81199645996094,18.187999725341797 C113.81199645996094,18.187999725341797 119.5,27.312000274658203 119.5,27.312000274658203 C119.5,27.312000274658203 108.31199645996094,27.3439998626709 108.31199645996094,27.3439998626709 C108.31199645996094,27.3439998626709 113.81199645996094,18.187999725341797 113.81199645996094,18.187999725341797z M56.5,23.312000274658203 C56.5,23.312000274658203 63.21900177001953,32.65599822998047 63.21900177001953,32.65599822998047 C63.21900177001953,32.65599822998047 51.375,34.84400177001953 51.375,34.84400177001953 C51.375,34.84400177001953 56.5,23.312000274658203 56.5,23.312000274658203z M130.43800354003906,-36.875 C107.06300354003906,-39.25 53,-31.25 40.4379997253418,-27.25 C42.75,-24.25 47.09400177001953,-17.25 49.71900177001953,-14.25 C63.75,-17.375 76.75,-18.937999725341797 76.75,-18.937999725341797 C76.75,-18.937999725341797 76.71900177001953,33.875 76.71900177001953,33.875 C76.71900177001953,33.875 56.40599822998047,5.406000137329102 56.40599822998047,5.406000137329102 C56.40599822998047,5.406000137329102 29.5,54.1879997253418 29.5,54.1879997253418 C29.5,54.1879997253418 46.125,50.75 46.125,50.75 C46.125,50.75 48.375,45.375 48.375,45.375 C48.375,45.375 65.56199645996094,42.25 65.56199645996094,42.25 C65.56199645996094,42.25 85.18800354003906,70.56199645996094 85.18800354003906,70.56199645996094 C85.18800354003906,70.56199645996094 104.875,37.6879997253418 104.875,37.6879997253418 C104.875,37.6879997253418 122,37.3120002746582 122,37.3120002746582 C122,37.3120002746582 124.56199645996094,42.125 124.56199645996094,42.125 C124.56199645996094,42.125 141.81199645996094,42.75 141.81199645996094,42.75 C141.81199645996094,42.75 114.25,-1.218999981880188 114.25,-1.218999981880188 C114.25,-1.218999981880188 93.75,31.812000274658203 93.75,31.812000274658203 C93.75,31.812000274658203 93.75,2.625 93.75,2.625 C93.75,2.625 106.06199645996094,1.625 106.06199645996094,1.625 C106.06199645996094,1.625 115,-12.75 115,-12.75 C115,-12.75 93.875,-11.75 93.875,-11.75 C93.875,-11.75 93.68800354003906,-20.9689998626709 93.68800354003906,-20.9689998626709 C93.68800354003906,-20.9689998626709 109.03099822998047,-22.0939998626709 120.90599822998047,-22.0939998626709 C123.15599822998047,-25.2189998626709 127.18800354003906,-31.5 130.43800354003906,-36.875z"/></g></g><g style="display: block;" transform="matrix(0.800000011920929,0,0,0.800000011920929,257.9656066894531,250.03680419921875)" opacity="0.35000000000000003"><g opacity="1" transform="matrix(1,0,0,1,0,0)"><path fill="url(#__lottie_element_20980)" mask="url(#__lottie_element_20982)" fill-opacity="1" d="M0 0 M-246.5,-145.5 C-246.5,-139 -246.5,144.218994140625 -246.5,146.593994140625 C-244.71200561523438,146.76499938964844 -241.55099487304688,147.5780029296875 -237.75900268554688,148.50999450683594 C-220.5,152.75 -191.07200622558594,159.75999450683594 -178.26499938964844,161.58399963378906 C-147.25,166 -127.13200378417969,165.62600708007812 -103.76799774169922,164.74600219726562 C-50.75,162.75 -4.125,146.125 27.19499969482422,139.3300018310547 C47.95800018310547,134.8249969482422 68.79000091552734,130.64500427246094 83.74700164794922,128.94000244140625 C106.25,126.375 122.875,126.75 143.25,128.35899353027344 C183.33700561523438,131.52499389648438 217.79400634765625,139.2030029296875 241.43800354003906,147.031005859375 C241.43800354003906,147.09300231933594 241.406005859375,147.09300231933594 241.406005859375,147.06199645996094 C241.406005859375,147.06199645996094 241.406005859375,147.06199645996094 241.406005859375,147.06199645996094 C241.56199645996094,120.56199645996094 241.23399353027344,82.29100036621094 241.25,49.90599822998047 C241.26600646972656,17.08300018310547 241.43699645996094,-15.739999771118164 241.5,-48.5629997253418 C241.56199645996094,-80.91699981689453 241.5,-128.75 241.625,-145.625 C151.281005859375,-172.5 103.15699768066406,-165.1009979248047 78.5,-162.81199645996094 C23.042999267578125,-156.04600524902344 -48.707000732421875,-130.79600524902344 -83.375,-129.06199645996094 C-157.875,-120.1240005493164 -212.75,-139.625 -246.5,-145.5z"/></g></g><g style="display: block;" transform="matrix(0.800000011920929,0,0,0.800000011920929,257.9656066894531,250.03680419921875)" opacity="0.15"><g opacity="1" transform="matrix(1,0,0,1,0,0)"><path fill="rgb(255,255,255)" fill-opacity="1" d=" M-246.875,-146 C-246.83700561523438,-139.70399475097656 -246.875,-138 -246.79200744628906,-132.81100463867188 C-237.5,-136.25 -197.25,-114 -124.49600219726562,-114.31099700927734 C-38.992000579833984,-114.6760025024414 39.233001708984375,-153.25 121.70800018310547,-153.39700317382812 C179.75,-153.5 241,-132.25 240.91200256347656,-131.552001953125 C241,-140.5 241.375,-144.625 241.375,-144.625 C241.375,-144.625 179.75,-166.25 122.5,-166 C39.49700164794922,-165.63800048828125 -39.5,-128 -124.25,-126.81199645996094 C-197.0449981689453,-125.79199981689453 -237.75,-149 -246.875,-146z"/></g></g><g style="display: block;" transform="matrix(0.800000011920929,0,0,0.800000011920929,257.9656066894531,250.03680419921875)" opacity="0.15"><g opacity="1" transform="matrix(1,0,0,1,0,0)"><path fill="rgb(0,0,0)" fill-opacity="1" d=" M122.5,112.25 C34,112.25 -36,149.5 -123.5,152 C-140.61700439453125,152.48899841308594 -155.82000732421875,151.3489990234375 -170.41099548339844,149.1280059814453 C-195.23399353027344,145.35000610351562 -218.28900146484375,138.4459991455078 -246,131.125 C-246.25,134.5 -246,141.375 -246,145.125 C-218.5749969482422,153.30599975585938 -195.61700439453125,159.55499267578125 -170.83099365234375,163.0050048828125 C-155.8520050048828,165.08999633789062 -140.20399475097656,166.15199279785156 -122.5,166 C-35,165.25 33.5,126.625 121.75,126.5 C126.26799774169922,126.49400329589844 131.11399841308594,126.59500122070312 136.27699279785156,126.83899688720703 C163.25900268554688,128.11300659179688 198.88099670410156,133.2550048828125 241.375,147 C241.375,147 241.25,134.75 241.5,131.125 C199.093994140625,118.93299865722656 163.16200256347656,113.84500122070312 136.1439971923828,112.58000183105469 C131.30499267578125,112.35399627685547 126.75299835205078,112.25 122.5,112.25z"/></g></g><g style="display: block;" transform="matrix(0.800000011920929,0,0,0.800000011920929,257.9656066894531,250.03680419921875)" opacity="1"><g opacity="1" transform="matrix(1,0,0,1,0,0)"><path stroke-linecap="round" stroke-linejoin="round" fill-opacity="0" stroke="rgb(3,18,65)" stroke-opacity="1" stroke-width="8" d=" M-246.5,-145.5 C-246.5,-139 -246.5,144.218994140625 -246.5,146.593994140625 C-244.71200561523438,146.76499938964844 -241.55099487304688,147.5780029296875 -237.75900268554688,148.50999450683594 C-220.5,152.75 -191.07200622558594,159.75999450683594 -178.26499938964844,161.58399963378906 C-147.25,166 -127.13200378417969,165.62600708007812 -103.76799774169922,164.74600219726562 C-50.75,162.75 -4.125,146.125 27.19499969482422,139.3300018310547 C47.95800018310547,134.8249969482422 68.79000091552734,130.64500427246094 83.74700164794922,128.94000244140625 C106.25,126.375 122.875,126.75 143.25,128.35899353027344 C183.33700561523438,131.52499389648438 217.79400634765625,139.2030029296875 241.43800354003906,147.031005859375 C241.43800354003906,147.09300231933594 241.406005859375,147.09300231933594 241.406005859375,147.06199645996094 C241.406005859375,147.06199645996094 241.406005859375,147.06199645996094 241.406005859375,147.06199645996094 C241.56199645996094,120.56199645996094 241.23399353027344,82.29100036621094 241.25,49.90599822998047 C241.26600646972656,17.08300018310547 241.43699645996094,-15.739999771118164 241.5,-48.5629997253418 C241.56199645996094,-80.91699981689453 241.5,-128.75 241.625,-145.625 C151.281005859375,-172.5 103.15699768066406,-165.1009979248047 78.5,-162.81199645996094 C23.042999267578125,-156.04600524902344 -48.707000732421875,-130.79600524902344 -83.375,-129.06199645996094 C-157.875,-120.1240005493164 -212.75,-139.625 -246.5,-145.5z"/></g></g></g></svg>