<svg xmlns="http://www.w3.org/2000/svg" xmlns:xlink="http://www.w3.org/1999/xlink" viewBox="0 0 512 512" width="512" height="512" style="width: 100%; height: 100%; transform: translate3d(0,0,0);" preserveAspectRatio="xMidYMid meet"><defs><clipPath id="__lottie_element_40613"><rect width="512" height="512" x="0" y="0"/></clipPath><radialGradient id="__lottie_element_40619" spreadMethod="pad" gradientUnits="userSpaceOnUse"><stop/><stop/><stop/></radialGradient><radialGradient id="__lottie_element_40623" spreadMethod="pad" gradientUnits="userSpaceOnUse"><stop/><stop/><stop/></radialGradient><radialGradient id="__lottie_element_40627" spreadMethod="pad" gradientUnits="userSpaceOnUse"><stop/><stop/><stop/></radialGradient><radialGradient id="__lottie_element_40631" spreadMethod="pad" gradientUnits="userSpaceOnUse"><stop/><stop/><stop/></radialGradient><radialGradient id="__lottie_element_40635" spreadMethod="pad" gradientUnits="userSpaceOnUse"><stop/><stop/><stop/></radialGradient><radialGradient id="__lottie_element_40639" spreadMethod="pad" gradientUnits="userSpaceOnUse"><stop/><stop/><stop/></radialGradient><radialGradient id="__lottie_element_40645" spreadMethod="pad" gradientUnits="userSpaceOnUse" cx="-26.42300033569336" cy="111.60600280761719" r="391.57116921623725" fx="-26.42300033569336" fy="111.60600280761719"><stop offset="24%" stop-color="rgb(233,245,63)"/><stop offset="32%" stop-color="rgb(202,250,128)"/><stop offset="41%" stop-color="rgb(171,255,193)"/><stop offset="49%" stop-color="rgb(85,237,220)"/><stop offset="54%" stop-color="rgb(0,219,246)"/></radialGradient><linearGradient id="__lottie_element_40646" spreadMethod="pad" gradientUnits="userSpaceOnUse" x1="-1.3179999589920044" y1="-30.54199981689453" x2="-0.6489999890327454" y2="23.054000854492188"><stop offset="0%" stop-color="rgb(255,255,255)" stop-opacity="0.699999988079071"/><stop offset="50%" stop-color="rgb(255,255,255)" stop-opacity="0.3499999940395355"/><stop offset="100%" stop-color="rgb(255,255,255)" stop-opacity="0"/></linearGradient><radialGradient id="__lottie_element_40647" spreadMethod="pad" gradientUnits="userSpaceOnUse" cx="43.57699966430664" cy="-144.3939971923828" r="299.0634322345574" fx="43.57699966430664" fy="-144.3939971923828"><stop offset="75%" stop-color="rgb(246,255,0)" stop-opacity="0"/><stop offset="81%" stop-color="rgb(223,232,0)" stop-opacity="0.28600001335144043"/><stop offset="87%" stop-color="rgb(201,209,0)" stop-opacity="0.5730000138282776"/><stop offset="92%" stop-color="rgb(121,124,0)" stop-opacity="0.6660000085830688"/><stop offset="96%" stop-color="rgb(40,39,0)" stop-opacity="0.7599999904632568"/></radialGradient><radialGradient id="__lottie_element_40648" spreadMethod="pad" gradientUnits="userSpaceOnUse" cx="-22.42300033569336" cy="-43.39400100708008" r="210.63399352172706" fx="-22.42300033569336" fy="-43.39400100708008"><stop offset="71%" stop-color="rgb(255,255,255)" stop-opacity="0"/><stop offset="85%" stop-color="rgb(128,128,128)" stop-opacity="0.30000001192092896"/><stop offset="100%" stop-color="rgb(0,0,0)" stop-opacity="0.6000000238418579"/></radialGradient><radialGradient id="__lottie_element_40649" spreadMethod="pad" gradientUnits="userSpaceOnUse" cx="-7.422999858856201" cy="41.60599899291992" r="188.0973586099905" fx="-7.664762569786567" fy="40.031264714169346"><stop offset="69%" stop-color="rgb(255,255,255)" stop-opacity="0"/><stop offset="85%" stop-color="rgb(128,128,128)" stop-opacity="0.30000001192092896"/><stop offset="100%" stop-color="rgb(0,0,0)" stop-opacity="0.6000000238418579"/></radialGradient><linearGradient id="__lottie_element_40650" spreadMethod="pad" gradientUnits="userSpaceOnUse" x1="-29.915000915527344" y1="21.4689998626709" x2="18.961000442504883" y2="-0.6579999923706055"><stop offset="0%" stop-color="rgb(220,231,0)" stop-opacity="1"/><stop offset="50%" stop-color="rgb(220,231,0)" stop-opacity="0.5"/><stop offset="100%" stop-color="rgb(220,231,0)" stop-opacity="0"/></linearGradient><linearGradient id="__lottie_element_40651" spreadMethod="pad" gradientUnits="userSpaceOnUse" x1="-15.472000122070312" y1="44.27299880981445" x2="25.61400032043457" y2="-97.16200256347656"><stop offset="0%" stop-color="rgb(255,255,255)" stop-opacity="0"/><stop offset="27%" stop-color="rgb(255,255,255)" stop-opacity="0.4000000059604645"/><stop offset="54%" stop-color="rgb(255,255,255)" stop-opacity="0.800000011920929"/></linearGradient><linearGradient id="__lottie_element_40652" spreadMethod="pad" gradientUnits="userSpaceOnUse" x1="6.5279998779296875" y1="-5.7270002365112305" x2="60.86199951171875" y2="-49.992000579833984"><stop offset="48%" stop-color="rgb(255,255,255)" stop-opacity="0"/><stop offset="66%" stop-color="rgb(155,155,155)" stop-opacity="0.4000000059604645"/><stop offset="84%" stop-color="rgb(55,55,55)" stop-opacity="0.800000011920929"/></linearGradient><linearGradient id="__lottie_element_40653" spreadMethod="pad" gradientUnits="userSpaceOnUse" x1="-13.656999588012695" y1="10.730999946594238" x2="26.687000274658203" y2="-85.36799621582031"><stop offset="0%" stop-color="rgb(255,255,255)" stop-opacity="0"/><stop offset="21%" stop-color="rgb(255,255,255)" stop-opacity="0.44999998807907104"/><stop offset="42%" stop-color="rgb(255,255,255)" stop-opacity="0.8999999761581421"/></linearGradient><linearGradient id="__lottie_element_40654" spreadMethod="pad" gradientUnits="userSpaceOnUse" x1="16.343000411987305" y1="-30.268999099731445" x2="59.29199981689453" y2="-98.09700012207031"><stop offset="48%" stop-color="rgb(255,255,255)" stop-opacity="0"/><stop offset="66%" stop-color="rgb(144,144,144)" stop-opacity="0.3499999940395355"/><stop offset="84%" stop-color="rgb(33,33,33)" stop-opacity="0.699999988079071"/></linearGradient><linearGradient id="__lottie_element_40655" spreadMethod="pad" gradientUnits="userSpaceOnUse" x1="-12.595000267028809" y1="12.555000305175781" x2="25.809999465942383" y2="-74.45700073242188"><stop offset="0%" stop-color="rgb(255,255,255)" stop-opacity="0"/><stop offset="21%" stop-color="rgb(255,255,255)" stop-opacity="0.44999998807907104"/><stop offset="42%" stop-color="rgb(255,255,255)" stop-opacity="0.8999999761581421"/></linearGradient><linearGradient id="__lottie_element_40656" spreadMethod="pad" gradientUnits="userSpaceOnUse" x1="-3.5950000286102295" y1="-33.44499969482422" x2="-9.815999984741211" y2="-88.83100128173828"><stop offset="48%" stop-color="rgb(255,255,255)" stop-opacity="0"/><stop offset="66%" stop-color="rgb(144,144,144)" stop-opacity="0.3499999940395355"/><stop offset="84%" stop-color="rgb(33,33,33)" stop-opacity="0.699999988079071"/></linearGradient><linearGradient id="__lottie_element_40657" spreadMethod="pad" gradientUnits="userSpaceOnUse" x1="-2.8429999351501465" y1="8.329000473022461" x2="12.244999885559082" y2="-47.49599838256836"><stop offset="0%" stop-color="rgb(255,255,255)" stop-opacity="0"/><stop offset="21%" stop-color="rgb(255,255,255)" stop-opacity="0.4000000059604645"/><stop offset="42%" stop-color="rgb(255,255,255)" stop-opacity="0.800000011920929"/></linearGradient><linearGradient id="__lottie_element_40658" spreadMethod="pad" gradientUnits="userSpaceOnUse" x1="0.15700000524520874" y1="-1.6710000038146973" x2="-10.060999870300293" y2="-83.86000061035156"><stop offset="48%" stop-color="rgb(255,255,255)" stop-opacity="0"/><stop offset="66%" stop-color="rgb(144,144,144)" stop-opacity="0.4000000059604645"/><stop offset="84%" stop-color="rgb(33,33,33)" stop-opacity="0.800000011920929"/></linearGradient><linearGradient id="__lottie_element_40659" spreadMethod="pad" gradientUnits="userSpaceOnUse" x1="-55.42300033569336" y1="-104.39399719238281" x2="9.720000267028809" y2="23.856000900268555"><stop offset="0%" stop-color="rgb(255,255,255)" stop-opacity="0.30000001192092896"/><stop offset="36%" stop-color="rgb(255,255,255)" stop-opacity="0.15000000596046448"/><stop offset="55%" stop-color="rgb(255,255,255)" stop-opacity="0"/></linearGradient><radialGradient id="__lottie_element_40662" spreadMethod="pad" gradientUnits="userSpaceOnUse" cx="22.805999755859375" cy="-3.36299991607666" r="76.125" fx="22.805999755859375" fy="-3.36299991607666"><stop offset="27%" stop-color="rgb(230,237,0)"/><stop offset="73%" stop-color="rgb(175,173,0)"/><stop offset="100%" stop-color="rgb(120,110,0)"/></radialGradient><radialGradient id="__lottie_element_40663" spreadMethod="pad" gradientUnits="userSpaceOnUse" cx="68.80599975585938" cy="-118.36299896240234" r="201.42800903320312" fx="68.80599975585938" fy="-118.36299896240234"><stop offset="75%" stop-color="rgb(0,0,0)" stop-opacity="0"/><stop offset="87%" stop-color="rgb(0,0,0)" stop-opacity="0.30000001192092896"/><stop offset="100%" stop-color="rgb(0,0,0)" stop-opacity="0.6000000238418579"/></radialGradient><linearGradient id="__lottie_element_40664" spreadMethod="pad" gradientUnits="userSpaceOnUse" x1="41.75600051879883" y1="10.095000267028809" x2="-17.569000244140625" y2="-14.508999824523926"><stop offset="0%" stop-color="rgb(255,255,255)" stop-opacity="0.10000000149011612"/><stop offset="50%" stop-color="rgb(128,128,128)" stop-opacity="0.15000000596046448"/><stop offset="100%" stop-color="rgb(0,0,0)" stop-opacity="0.20000000298023224"/></linearGradient><radialGradient id="__lottie_element_40667" spreadMethod="pad" gradientUnits="userSpaceOnUse"><stop/><stop/><stop/></radialGradient><radialGradient id="__lottie_element_40674" spreadMethod="pad" gradientUnits="userSpaceOnUse" cx="-0.22300000488758087" cy="-0.5989999771118164" r="51.21255226951388" fx="-0.22300000488758087" fy="-0.5989999771118164"><stop offset="39%" stop-color="rgb(255,255,255)" stop-opacity="0.5"/><stop offset="70%" stop-color="rgb(255,255,255)" stop-opacity="0.25"/><stop offset="100%" stop-color="rgb(255,255,255)" stop-opacity="0"/></radialGradient><radialGradient id="__lottie_element_40675" spreadMethod="pad" gradientUnits="userSpaceOnUse" cx="-1.5920000076293945" cy="-0.11299999803304672" r="7.872728781853836" fx="-1.5920000076293945" fy="-0.11299999803304672"><stop offset="0%" stop-color="rgb(255,255,255)" stop-opacity="1"/><stop offset="50%" stop-color="rgb(255,255,255)" stop-opacity="0.5"/><stop offset="100%" stop-color="rgb(255,255,255)" stop-opacity="0"/></radialGradient><linearGradient id="__lottie_element_40676" spreadMethod="pad" gradientUnits="userSpaceOnUse" x1="-1.8860000371932983" y1="23.183000564575195" x2="0.796999990940094" y2="-9"><stop offset="0%" stop-color="rgb(255,255,255)" stop-opacity="0"/><stop offset="0%" stop-color="rgb(255,255,255)" stop-opacity="0.20000000298023224"/><stop offset="0%" stop-color="rgb(255,255,255)" stop-opacity="0.4000000059604645"/><stop offset="0%" stop-color="rgb(255,255,255)" stop-opacity="0.699999988079071"/><stop offset="0%" stop-color="rgb(255,255,255)" stop-opacity="1"/><stop offset="50%" stop-color="rgb(255,255,255)" stop-opacity="0.5"/><stop offset="100%" stop-color="rgb(255,255,255)" stop-opacity="0"/></linearGradient><linearGradient id="__lottie_element_40680" spreadMethod="pad" gradientUnits="userSpaceOnUse"><stop/><stop/><stop/><stop/><stop/></linearGradient><linearGradient id="__lottie_element_40681" spreadMethod="pad" gradientUnits="userSpaceOnUse"><stop/><stop/><stop/></linearGradient><linearGradient id="__lottie_element_40682" spreadMethod="pad" gradientUnits="userSpaceOnUse"><stop/><stop/><stop/></linearGradient><radialGradient id="__lottie_element_40686" spreadMethod="pad" gradientUnits="userSpaceOnUse"><stop/><stop/><stop/></radialGradient><radialGradient id="__lottie_element_40687" spreadMethod="pad" gradientUnits="userSpaceOnUse"><stop/><stop/><stop/></radialGradient><linearGradient id="__lottie_element_40688" spreadMethod="pad" gradientUnits="userSpaceOnUse"><stop/><stop/><stop/></linearGradient><radialGradient id="__lottie_element_40692" spreadMethod="pad" gradientUnits="userSpaceOnUse"><stop/><stop/><stop/></radialGradient><radialGradient id="__lottie_element_40693" spreadMethod="pad" gradientUnits="userSpaceOnUse"><stop/><stop/><stop/></radialGradient><linearGradient id="__lottie_element_40694" spreadMethod="pad" gradientUnits="userSpaceOnUse"><stop/><stop/><stop/></linearGradient><radialGradient id="__lottie_element_40698" spreadMethod="pad" gradientUnits="userSpaceOnUse"><stop/><stop/><stop/></radialGradient><radialGradient id="__lottie_element_40699" spreadMethod="pad" gradientUnits="userSpaceOnUse"><stop/><stop/><stop/></radialGradient><linearGradient id="__lottie_element_40700" spreadMethod="pad" gradientUnits="userSpaceOnUse"><stop/><stop/><stop/><stop/><stop/><stop/><stop/></linearGradient><radialGradient id="__lottie_element_40704" spreadMethod="pad" gradientUnits="userSpaceOnUse"><stop/><stop/><stop/></radialGradient><radialGradient id="__lottie_element_40705" spreadMethod="pad" gradientUnits="userSpaceOnUse"><stop/><stop/><stop/></radialGradient><linearGradient id="__lottie_element_40706" spreadMethod="pad" gradientUnits="userSpaceOnUse"><stop/><stop/><stop/></linearGradient><linearGradient id="__lottie_element_40710" spreadMethod="pad" gradientUnits="userSpaceOnUse" x1="8.357000350952148" y1="18.924999237060547" x2="-23.118000030517578" y2="-51.58000183105469"><stop offset="0%" stop-color="rgb(0,160,124)"/><stop offset="19%" stop-color="rgb(37,135,66)"/><stop offset="38%" stop-color="rgb(75,110,7)"/><stop offset="62%" stop-color="rgb(37,82,19)"/><stop offset="85%" stop-color="rgb(0,54,30)"/></linearGradient><linearGradient id="__lottie_element_40711" spreadMethod="pad" gradientUnits="userSpaceOnUse" x1="38.69599914550781" y1="26.7189998626709" x2="-40.41999816894531" y2="-22.94499969482422"><stop offset="0%" stop-color="rgb(255,255,255)" stop-opacity="0.30000001192092896"/><stop offset="67%" stop-color="rgb(255,255,255)" stop-opacity="0.15000000596046448"/><stop offset="100%" stop-color="rgb(255,255,255)" stop-opacity="0"/></linearGradient><linearGradient id="__lottie_element_40712" spreadMethod="pad" gradientUnits="userSpaceOnUse" x1="-0.8119999766349792" y1="6.8420000076293945" x2="-1.1770000457763672" y2="30.565000534057617"><stop offset="1%" stop-color="rgb(0,0,0)" stop-opacity="0.699999988079071"/><stop offset="51%" stop-color="rgb(0,15,32)" stop-opacity="0.3499999940395355"/><stop offset="100%" stop-color="rgb(0,30,64)" stop-opacity="0"/></linearGradient><linearGradient id="__lottie_element_40716" spreadMethod="pad" gradientUnits="userSpaceOnUse" x1="2.944999933242798" y1="25.051000595092773" x2="-8.866000175476074" y2="-22.191999435424805"><stop offset="0%" stop-color="rgb(0,160,124)"/><stop offset="19%" stop-color="rgb(37,135,66)"/><stop offset="38%" stop-color="rgb(75,110,7)"/><stop offset="62%" stop-color="rgb(37,82,19)"/><stop offset="85%" stop-color="rgb(0,54,30)"/></linearGradient><linearGradient id="__lottie_element_40717" spreadMethod="pad" gradientUnits="userSpaceOnUse" x1="24.676000595092773" y1="13.329999923706055" x2="-21.909000396728516" y2="-15.913000106811523"><stop offset="0%" stop-color="rgb(255,255,255)" stop-opacity="0.30000001192092896"/><stop offset="67%" stop-color="rgb(255,255,255)" stop-opacity="0.15000000596046448"/><stop offset="100%" stop-color="rgb(255,255,255)" stop-opacity="0"/></linearGradient><linearGradient id="__lottie_element_40718" spreadMethod="pad" gradientUnits="userSpaceOnUse" x1="-0.3050000071525574" y1="-5.445000171661377" x2="9.359000205993652" y2="11.949999809265137"><stop offset="1%" stop-color="rgb(0,0,0)" stop-opacity="0.699999988079071"/><stop offset="51%" stop-color="rgb(0,15,32)" stop-opacity="0.3499999940395355"/><stop offset="100%" stop-color="rgb(0,30,64)" stop-opacity="0"/></linearGradient><linearGradient id="__lottie_element_40722" spreadMethod="pad" gradientUnits="userSpaceOnUse" x1="-40.60300064086914" y1="0.21899999678134918" x2="22.999000549316406" y2="0.21899999678134918"><stop offset="42%" stop-color="rgb(40,169,193)"/><stop offset="71%" stop-color="rgb(20,151,193)"/><stop offset="100%" stop-color="rgb(0,133,192)"/></linearGradient><linearGradient id="__lottie_element_40723" spreadMethod="pad" gradientUnits="userSpaceOnUse" x1="-19.621999740600586" y1="0.5879999995231628" x2="17.916000366210938" y2="0.5879999995231628"><stop offset="0%" stop-color="rgb(255,255,255)" stop-opacity="0"/><stop offset="21%" stop-color="rgb(255,255,255)" stop-opacity="0.44999998807907104"/><stop offset="42%" stop-color="rgb(255,255,255)" stop-opacity="0.8999999761581421"/></linearGradient><linearGradient id="__lottie_element_40724" spreadMethod="pad" gradientUnits="userSpaceOnUse" x1="5.396999835968018" y1="-32.78099822998047" x2="-1.2589999437332153" y2="13.970000267028809"><stop offset="15%" stop-color="rgb(0,0,0)" stop-opacity="0.4000000059604645"/><stop offset="31%" stop-color="rgb(0,0,0)" stop-opacity="0.20000000298023224"/><stop offset="48%" stop-color="rgb(0,0,0)" stop-opacity="0"/><stop offset="59%" stop-color="rgb(0,0,0)" stop-opacity="0"/><stop offset="70%" stop-color="rgb(0,0,0)" stop-opacity="0"/><stop offset="85%" stop-color="rgb(0,0,0)" stop-opacity="0.20000000298023224"/><stop offset="100%" stop-color="rgb(0,0,0)" stop-opacity="0.4000000059604645"/></linearGradient></defs><g clip-path="url(#__lottie_element_40613)"><g style="display: block;" transform="matrix(1,0,0,1,0,0)" opacity="1"><g opacity="1" transform="matrix(1,0,0,1,308.5679931640625,84.88500213623047)"><path fill="url(#__lottie_element_40722)" fill-opacity="1" d=" M104.89299774169922,-6.7769999504089355 C103.29299926757812,-7.38700008392334 1.1150000095367432,-30.819000244140625 4.673999786376953,23.70400047302246 C-17.81800079345703,15.366000175476074 -79.56800079345703,9.114999771118164 -104.89299774169922,17.3439998626709 C-12.567999839782715,-55.3849983215332 103.14299774169922,-7.583000183105469 104.89299774169922,-6.7769999504089355z"/></g><g opacity="1" transform="matrix(1,0,0,1,262.5870056152344,82.51599884033203)"><g opacity="1" transform="matrix(1,0,0,1,0,0)"><path fill="url(#__lottie_element_40723)" fill-opacity="1" d=" M18.90399932861328,-16.36400032043457 C16.413000106811523,-12.265999794006348 4.288000106811523,1.6089999675750732 -6.817999839782715,16.535999298095703 C-7.208000183105469,16.535999298095703 -19.014999389648438,15.538000106811523 -19.288999557495117,15.67199993133545 C-13.461999893188477,7.607999801635742 -0.7120000123977661,-8.515999794006348 1.8949999809265137,-11.864999771118164 C1.6929999589920044,-12.918000221252441 19.035999298095703,-15.472000122070312 18.90399932861328,-16.36400032043457z"/></g></g><g opacity="1" transform="matrix(1,0,0,1,308.5679931640625,84.88500213623047)"><path fill="url(#__lottie_element_40724)" fill-opacity="1" d=" M104.89299774169922,-6.7769999504089355 C103.29299926757812,-7.38700008392334 1.1150000095367432,-30.819000244140625 4.673999786376953,23.70400047302246 C-17.81800079345703,15.366000175476074 -79.56800079345703,9.114999771118164 -104.89299774169922,17.3439998626709 C-12.567999839782715,-55.3849983215332 103.14299774169922,-7.583000183105469 104.89299774169922,-6.7769999504089355z"/></g><g opacity="1" transform="matrix(1,0,0,1,363.3059997558594,90.58699798583984)"><path stroke-linecap="round" stroke-linejoin="round" fill-opacity="0" stroke="rgb(0,83,82)" stroke-opacity="1" stroke-width="8" d=" M50.154998779296875,-12.479000091552734 C48.55500030517578,-13.08899974822998 -53.62300109863281,-36.520999908447266 -50.06399917602539,18.00200080871582 C-72.55599975585938,9.663999557495117 -134.30499267578125,3.4130001068115234 -159.6300048828125,11.642000198364258 C-67.30500030517578,-61.08700180053711 48.404998779296875,-13.28499984741211 50.154998779296875,-12.479000091552734z"/></g></g><g style="display: block;" transform="matrix(1,0,0,1,0,0)" opacity="1"><g opacity="1" transform="matrix(1,0,0,1,326.0199890136719,370.0530090332031)"><path fill="url(#__lottie_element_40716)" fill-opacity="1" d=" M-55.04399871826172,-3.938999891281128 C-51.11199951171875,9.821999549865723 5.8979997634887695,31.44700050354004 55.04399871826172,25.548999786376953 C55.04399871826172,25.548999786376953 0,22.600000381469727 21.624000549316406,-26.54599952697754 C5.896999835968018,-10.819000244140625 -41.28300094604492,0.9760000109672546 -55.04399871826172,-3.938999891281128z"/></g><g opacity="1" transform="matrix(1,0,0,1,327.28900146484375,386.77398681640625)"><path fill="url(#__lottie_element_40717)" fill-opacity="1" d=" M29.344999313354492,0.46299999952316284 C29.344999313354492,0.46299999952316284 -7.271999835968018,-0.3100000023841858 -38.07500076293945,-9.817000389099121 C-38.07500076293945,-9.817000389099121 -18.02400016784668,10.031999588012695 38.07500076293945,9.8149995803833 C38.07500076293945,9.8149995803833 29.344999313354492,0.46299999952316284 29.344999313354492,0.46299999952316284z"/></g><g opacity="1" transform="matrix(1,0,0,1,313.2690124511719,369.54901123046875)"><path fill="url(#__lottie_element_40718)" fill-opacity="1" d=" M-13.520999908447266,18.670000076293945 C-13.520999908447266,18.670000076293945 20.500999450683594,9.230999946594238 32.79199981689453,-5.36299991607666 C32.79199981689453,-5.36299991607666 29.893999099731445,-18.670000076293945 29.893999099731445,-18.670000076293945 C29.893999099731445,-18.670000076293945 -32.79199981689453,4.791999816894531 -32.79199981689453,4.791999816894531 C-32.79199981689453,4.791999816894531 -13.520999908447266,18.670000076293945 -13.520999908447266,18.670000076293945z"/></g><g opacity="1" transform="matrix(1,0,0,1,326.0199890136719,370.0530090332031)"><path stroke-linecap="round" stroke-linejoin="round" fill-opacity="0" stroke="rgb(0,88,43)" stroke-opacity="1" stroke-width="8" d=" M-55.04399871826172,-3.938999891281128 C-51.11199951171875,9.821999549865723 5.8979997634887695,31.44700050354004 55.04399871826172,25.548999786376953 C55.04399871826172,25.548999786376953 0,22.600000381469727 21.624000549316406,-26.54599952697754 C5.896999835968018,-10.819000244140625 -41.28300094604492,0.9760000109672546 -55.04399871826172,-3.938999891281128z"/></g><g opacity="1" transform="matrix(1,0,0,1,309.30999755859375,364.1860046386719)"><path stroke-linecap="round" stroke-linejoin="round" fill-opacity="0" stroke="rgb(0,52,22)" stroke-opacity="1" stroke-width="8" d=" M33.3390007019043,-1.659999966621399 C33.595001220703125,-7.071000099182129 35.1150016784668,-13.36299991607666 38.33399963378906,-20.679000854492188 C22.60700035095215,-4.952000141143799 -24.572999954223633,6.8429999351501465 -38.33399963378906,1.9279999732971191 C-36.69499969482422,7.665999889373779 -25.825000762939453,14.772000312805176 -10.145999908447266,20.679000854492188"/></g></g><g style="display: block;" transform="matrix(1,0,0,1,0,0)" opacity="1"><g opacity="1" transform="matrix(1,0,0,1,234.60800170898438,391.1789855957031)"><path fill="url(#__lottie_element_40710)" fill-opacity="1" d=" M-76.66799926757812,-45.70600128173828 C-60.941001892089844,-20.149999618530273 10.812000274658203,35.87699890136719 76.66799926757812,45.70600128173828 C76.66799926757812,45.70600128173828 22.607999801635742,27.0310001373291 17.69300079345703,-27.030000686645508 C3.931999921798706,-18.18400001525879 -54.06100082397461,-26.04800033569336 -76.66799926757812,-45.70600128173828z"/></g><g opacity="1" transform="matrix(1,0,0,1,242.2689971923828,401.385009765625)"><path fill="url(#__lottie_element_40711)" fill-opacity="1" d=" M-56.597999572753906,-31.332000732421875 C-56.597999572753906,-31.332000732421875 3.6389999389648438,6.232999801635742 56.597999572753906,27.70800018310547 C56.597999572753906,27.70800018310547 49.474998474121094,31.332000732421875 49.474998474121094,31.332000732421875 C49.474998474121094,31.332000732421875 -34.47700119018555,2.7809998989105225 -56.597999572753906,-31.332000732421875z"/></g><g opacity="1" transform="matrix(1,0,0,1,234.60800170898438,391.1789855957031)"><path stroke-linecap="round" stroke-linejoin="round" fill-opacity="0" stroke="rgb(0,88,43)" stroke-opacity="1" stroke-width="8" d=" M-76.66799926757812,-45.70600128173828 C-60.941001892089844,-20.149999618530273 10.812000274658203,35.87699890136719 76.66799926757812,45.70600128173828 C76.66799926757812,45.70600128173828 22.607999801635742,27.0310001373291 17.69300079345703,-27.030000686645508 C3.931999921798706,-18.18400001525879 -54.06100082397461,-26.04800033569336 -76.66799926757812,-45.70600128173828z"/></g><g opacity="1" transform="matrix(1,0,0,1,210.77699279785156,365.2619934082031)"><path fill="url(#__lottie_element_40712)" fill-opacity="1" d=" M-47.922000885009766,-20.77199935913086 C-35.125999450683594,2.992000102996826 -24.322999954223633,14.918000221252441 -12.270999908447266,22.695999145507812 C13.312000274658203,30.229000091552734 48.275001525878906,24.569000244140625 48.275001525878906,24.569000244140625 C48.275001525878906,24.569000244140625 41.83700180053711,9.699999809265137 41.52399826049805,-7.011000156402588 C41.21099853515625,-23.722000122070312 -54.801998138427734,-33.54999923706055 -47.922000885009766,-20.77199935913086z"/></g><g opacity="1" transform="matrix(1,0,0,1,207.7740020751953,365.9679870605469)"><path stroke-linecap="round" stroke-linejoin="round" fill-opacity="0" stroke="rgb(0,52,22)" stroke-opacity="1" stroke-width="8" d=" M49.83399963378906,20.4950008392334 C47.16600036621094,13.84000015258789 45.275001525878906,6.421000003814697 44.5260009765625,-1.8200000524520874 C30.764999389648438,7.026000022888184 -27.226999282836914,-0.8370000123977661 -49.83399963378906,-20.4950008392334 C-43.68199920654297,-10.498000144958496 -28.957000732421875,4.1620001792907715 -9.364999771118164,18.895000457763672"/></g></g><g style="display: block;" transform="matrix(1,0,0,1,0,0)" opacity="1"><g opacity="1" transform="matrix(1,0,0,1,417.15899658203125,259.4670104980469)"><path fill="url(#__lottie_element_40662)" fill-opacity="1" d=" M47.944000244140625,91.41200256347656 C23.660999298095703,75.2239990234375 -6.130000114440918,52.97600173950195 -37.71799850463867,48.999000549316406 C-16.659000396728516,31.033000946044922 -14.159000396728516,-27.966999053955078 -20.886999130249023,-49.882999420166016 C7.88700008392334,-57.5260009765625 31.336000442504883,-75.76599884033203 50.893001556396484,-91.41200256347656 C28.285999298095703,-64.87300109863281 -8.083000183105469,31.45400047302246 47.944000244140625,91.41200256347656z"/></g><g opacity="1" transform="matrix(1,0,0,1,417.15899658203125,259.4670104980469)"><path fill="url(#__lottie_element_40663)" fill-opacity="1" d=" M47.944000244140625,91.41200256347656 C24.190000534057617,75.57599639892578 -4.835999965667725,53.939998626708984 -35.659000396728516,49.284000396728516 C-23.159000396728516,33.03300094604492 -13.15999984741211,-21.968000411987305 -20.31399917602539,-50.0369987487793 C8.197999954223633,-57.76900100708008 31.465999603271484,-75.87000274658203 50.893001556396484,-91.41200256347656 C28.285999298095703,-64.87300109863281 -8.083000183105469,31.45400047302246 47.944000244140625,91.41200256347656z"/></g><g opacity="1" transform="matrix(1,0,0,1,417.2090148925781,279.0090026855469)"><path fill="url(#__lottie_element_40664)" fill-opacity="1" d=" M47.89400100708008,71.87000274658203 C24.0049991607666,55.944000244140625 -5.216000080108643,34.152000427246094 -36.23400115966797,29.663999557495117 C-21.708999633789062,9.489999771118164 -12.458999633789062,-34.75899887084961 -19.530000686645508,-68.95700073242188 C-16.125,-69.49400329589844 -12.937999725341797,-70.39199829101562 -12.906000137329102,-71.87000274658203 C2.821000099182129,-35.50199890136719 -24.350000381469727,23.79800033569336 20.55699920654297,17.05699920654297 C24.266000747680664,36.59299850463867 32.667999267578125,55.57500076293945 47.89400100708008,71.87000274658203z"/></g><g opacity="1" transform="matrix(1,0,0,1,417.15899658203125,259.4670104980469)"><path stroke-linecap="round" stroke-linejoin="round" fill-opacity="0" stroke="rgb(119,117,0)" stroke-opacity="1" stroke-width="8" d=" M47.944000244140625,91.41200256347656 C24.072999954223633,75.49800109863281 -5.120999813079834,53.72800064086914 -36.112998962402344,49.21699905395508 C-22.409000396728516,27.783000946044922 -16.409000396728516,-25.716999053955078 -19.78700065612793,-50.180999755859375 C8.484999656677246,-57.992000579833984 31.584999084472656,-75.96600341796875 50.893001556396484,-91.41200256347656 C28.285999298095703,-64.87300109863281 -8.083000183105469,31.45400047302246 47.944000244140625,91.41200256347656z"/></g><g opacity="1" transform="matrix(1,0,0,1,415.68499755859375,311.6570129394531)"><path stroke-linecap="round" stroke-linejoin="round" fill-opacity="0" stroke="rgb(84,81,0)" stroke-opacity="1" stroke-width="8" d=" M-24.566999435424805,-35.47200012207031 C-25.451000213623047,-16.36400032043457 -38.45199966430664,-3.5280001163482666 -34.638999938964844,-2.9730000495910645 C-3.6470000743865967,1.5379999876022339 25.54800033569336,23.308000564575195 49.41899871826172,39.22200012207031"/></g></g><g style="display: block;" transform="matrix(1,0,0,1,0,0)" opacity="1"><g opacity="1" transform="matrix(1,0,0,1,222.38800048828125,233.4980010986328)"><path fill="url(#__lottie_element_40645)" fill-opacity="1" d=" M177.3509979248047,1.8880000114440918 C178.16000366210938,85.48200225830078 116.9010009765625,144.9029998779297 25.48900032043457,140.9709930419922 C-22.202999114990234,138.91700744628906 -67.88800048828125,125.24500274658203 -114.5770034790039,89.36799621582031 C-122.7750015258789,83.06700134277344 -141.11700439453125,72.65799713134766 -148.97999572753906,70.69200134277344 C-167.3209991455078,66.10199737548828 -181.41600036621094,56.93199920654297 -143.08200073242188,52.016998291015625 C-188.29600524902344,52.016998291015625 -178.73300170898438,39.23899841308594 -170.11300659179688,32.849998474121094 C-136.41799926757812,7.89300012588501 -121.94000244140625,-50.915000915527344 -82.4260025024414,-93.31800079345703 C-76.18399810791016,-100.01200103759766 -41.63800048828125,-138.7480010986328 26.72800064086914,-141.06900024414062 C114.08899688720703,-144.03500366210938 176.61199951171875,-74.49800109863281 177.3509979248047,1.8880000114440918z"/></g><g opacity="1" transform="matrix(1,0,0,1,253.2830047607422,124.64600372314453)"><path fill="url(#__lottie_element_40646)" fill-opacity="1" d=" M84.53099822998047,0 C84.53099822998047,15.5600004196167 46.685001373291016,28.173999786376953 0,28.173999786376953 C-46.685001373291016,28.173999786376953 -84.53099822998047,15.5600004196167 -84.53099822998047,0 C-84.53099822998047,-15.5600004196167 -46.685001373291016,-28.173999786376953 0,-28.173999786376953 C46.685001373291016,-28.173999786376953 84.53099822998047,-15.5600004196167 84.53099822998047,0z"/></g><g opacity="1" transform="matrix(1,0,0,1,0,0)"><g opacity="1" transform="matrix(1,0,0,1,222.38800048828125,233.4980010986328)"><path fill="url(#__lottie_element_40647)" fill-opacity="1" d=" M177.3509979248047,1.8880000114440918 C178.16000366210938,85.48200225830078 116.9010009765625,144.9029998779297 25.48900032043457,140.9709930419922 C-22.202999114990234,138.91700744628906 -67.88800048828125,125.24500274658203 -114.5770034790039,89.36799621582031 C-122.7750015258789,83.06700134277344 -141.11700439453125,72.65799713134766 -148.97999572753906,70.69200134277344 C-167.3209991455078,66.10199737548828 -181.41600036621094,56.93199920654297 -143.08200073242188,52.016998291015625 C-188.29600524902344,52.016998291015625 -178.73300170898438,39.23899841308594 -170.11300659179688,32.849998474121094 C-136.41799926757812,7.89300012588501 -121.94000244140625,-50.915000915527344 -82.4260025024414,-93.31800079345703 C-76.18399810791016,-100.01200103759766 -41.63800048828125,-138.7480010986328 26.72800064086914,-141.06900024414062 C114.08899688720703,-144.03500366210938 176.61199951171875,-74.49800109863281 177.3509979248047,1.8880000114440918z"/><path fill="url(#__lottie_element_40648)" fill-opacity="1" d=" M177.3509979248047,1.8880000114440918 C178.16000366210938,85.48200225830078 116.9010009765625,144.9029998779297 25.48900032043457,140.9709930419922 C-22.202999114990234,138.91700744628906 -67.88800048828125,125.24500274658203 -114.5770034790039,89.36799621582031 C-122.7750015258789,83.06700134277344 -141.11700439453125,72.65799713134766 -148.97999572753906,70.69200134277344 C-167.3209991455078,66.10199737548828 -181.41600036621094,56.93199920654297 -143.08200073242188,52.016998291015625 C-188.29600524902344,52.016998291015625 -178.73300170898438,39.23899841308594 -170.11300659179688,32.849998474121094 C-136.41799926757812,7.89300012588501 -121.94000244140625,-50.915000915527344 -82.4260025024414,-93.31800079345703 C-76.18399810791016,-100.01200103759766 -41.63800048828125,-138.7480010986328 26.72800064086914,-141.06900024414062 C114.08899688720703,-144.03500366210938 176.61199951171875,-74.49800109863281 177.3509979248047,1.8880000114440918z"/><path fill="url(#__lottie_element_40649)" fill-opacity="1" d=" M177.3509979248047,1.8880000114440918 C178.16000366210938,85.48200225830078 116.9010009765625,144.9029998779297 25.48900032043457,140.9709930419922 C-22.202999114990234,138.91700744628906 -67.88800048828125,125.24500274658203 -114.5770034790039,89.36799621582031 C-122.7750015258789,83.06700134277344 -141.11700439453125,72.65799713134766 -148.97999572753906,70.69200134277344 C-167.3209991455078,66.10199737548828 -181.41600036621094,56.93199920654297 -143.08200073242188,52.016998291015625 C-188.29600524902344,52.016998291015625 -178.73300170898438,39.23899841308594 -170.11300659179688,32.849998474121094 C-136.41799926757812,7.89300012588501 -121.94000244140625,-50.915000915527344 -82.4260025024414,-93.31800079345703 C-76.18399810791016,-100.01200103759766 -41.63800048828125,-138.7480010986328 26.72800064086914,-141.06900024414062 C114.08899688720703,-144.03500366210938 176.61199951171875,-74.49800109863281 177.3509979248047,1.8880000114440918z"/></g></g><g opacity="0.65" transform="matrix(1,0,0,1,91.87999725341797,272.635009765625)"><path fill="url(#__lottie_element_40650)" fill-opacity="1" d=" M-35.04499816894531,17.795000076293945 C-15.781999588012695,12.857000350952148 -52.80099868774414,13.493000030517578 -45.79199981689453,2.821000099182129 C-8.14799976348877,-54.494998931884766 10.272000312805176,-23.327999114990234 11.12399959564209,-22.545000076293945 C25.240999221801758,-9.581999778747559 34.417999267578125,19.533000946044922 42.12799835205078,25.666000366210938 C60.417999267578125,40.21500015258789 20.881999969482422,23.115999221801758 -26.62700080871582,29.018999099731445 C-31.858999252319336,29.66900062561035 -45.79800033569336,20.552000045776367 -35.04499816894531,17.795000076293945z"/></g><g opacity="1" transform="matrix(1,0,0,1,0,0)"><g opacity="1" transform="matrix(1,0,0,1,348.43701171875,238.83099365234375)"><path fill="url(#__lottie_element_40651)" fill-opacity="1" d=" M35.26300048828125,-69.25900268554688 C16.562999725341797,-45.58100128173828 -4.065999984741211,24.695999145507812 -12.21399974822998,81.70600128173828 C-13.020000457763672,87.33799743652344 -35.470001220703125,84.68399810791016 -34.584999084472656,78.5009994506836 C-21.95400047302246,-9.95199966430664 7.10099983215332,-68.11199951171875 20.655000686645508,-91.40699768066406 C25.67799949645996,-85.09700012207031 35.047000885009766,-69.6719970703125 35.26300048828125,-69.25900268554688z"/><path fill="url(#__lottie_element_40652)" fill-opacity="1" d=" M35.26300048828125,-69.25900268554688 C16.562999725341797,-45.58100128173828 -4.065999984741211,24.695999145507812 -12.21399974822998,81.70600128173828 C-13.020000457763672,87.33799743652344 -35.470001220703125,84.68399810791016 -34.584999084472656,78.5009994506836 C-21.95400047302246,-9.95199966430664 7.10099983215332,-68.11199951171875 20.655000686645508,-91.40699768066406 C25.67799949645996,-85.09700012207031 35.047000885009766,-69.6719970703125 35.26300048828125,-69.25900268554688z"/></g><g opacity="1" transform="matrix(1,0,0,1,274.62200927734375,213.3730010986328)"><path fill="url(#__lottie_element_40653)" fill-opacity="1" d=" M50.827999114990234,-102.8479995727539 C22.878000259399414,-76.87300109863281 -18.881999969482422,18.836999893188477 -33.262001037597656,102.1500015258789 C-34.00899887084961,106.45500183105469 -51.525001525878906,103.95899963378906 -50.69900131225586,99.14299774169922 C-35.73899841308594,12.468999862670898 1.378000020980835,-85.37300109863281 33.38100051879883,-109.49299621582031 C39.37699890136719,-107.6449966430664 45.20600128173828,-105.41300201416016 50.827999114990234,-102.8479995727539z"/><path fill="url(#__lottie_element_40654)" fill-opacity="1" d=" M50.827999114990234,-102.8479995727539 C22.878000259399414,-76.87300109863281 -18.881999969482422,18.836999893188477 -33.262001037597656,102.1500015258789 C-34.00899887084961,106.45500183105469 -51.525001525878906,103.95899963378906 -50.69900131225586,99.14299774169922 C-35.73899841308594,12.468999862670898 1.378000020980835,-85.37300109863281 33.38100051879883,-109.49299621582031 C39.37699890136719,-107.6449966430664 45.20600128173828,-105.41300201416016 50.827999114990234,-102.8479995727539z"/></g><g opacity="1" transform="matrix(1,0,0,1,201.55999755859375,184.5489959716797)"><path fill="url(#__lottie_element_40655)" fill-opacity="1" d=" M47.55500030517578,-92.12000274658203 C22.93899917602539,-69.54900360107422 -19.990999221801758,21.408000946044922 -33.93899917602539,86.67400360107422 C-34.57500076293945,89.62200164794922 -48.191001892089844,87.5199966430664 -47.404998779296875,83.80400085449219 C-32.986000061035156,16.34600067138672 2.938999891281128,-69.04900360107422 28.349000930786133,-90.38999938964844 C28.349000930786133,-90.38999938964844 45.02899932861328,-92.04100036621094 47.55500030517578,-92.12000274658203z"/><path fill="url(#__lottie_element_40656)" fill-opacity="1" d=" M47.55500030517578,-92.12000274658203 C22.93899917602539,-69.54900360107422 -19.990999221801758,21.408000946044922 -33.93899917602539,86.67400360107422 C-34.57500076293945,89.62200164794922 -48.191001892089844,87.5199966430664 -47.404998779296875,83.80400085449219 C-32.986000061035156,16.34600067138672 2.938999891281128,-69.04900360107422 28.349000930786133,-90.38999938964844 C28.349000930786133,-90.38999938964844 45.02899932861328,-92.04100036621094 47.55500030517578,-92.12000274658203z"/></g><g opacity="1" transform="matrix(1,0,0,1,131.80799865722656,188.77499389648438)"><path fill="url(#__lottie_element_40657)" fill-opacity="1" d=" M28.913999557495117,-67.25199890136719 C12.932000160217285,-38.816001892089844 -6.677000045776367,4.806000232696533 -19.190000534057617,63.35900115966797 C-19.680999755859375,65.66899871826172 -29.37299919128418,63.96900177001953 -28.80299949645996,61.314998626708984 C-19.091999053955078,15.864999771118164 -5.164000034332275,-20.80900001525879 8.154999732971191,-48.59600067138672 C14.397000312805176,-55.290000915527344 21.256999969482422,-61.57099914550781 28.913999557495117,-67.25199890136719z"/><path fill="url(#__lottie_element_40658)" fill-opacity="1" d=" M28.913999557495117,-67.25199890136719 C12.932000160217285,-38.816001892089844 -6.677000045776367,4.806000232696533 -19.190000534057617,63.35900115966797 C-19.680999755859375,65.66899871826172 -29.37299919128418,63.96900177001953 -28.80299949645996,61.314998626708984 C-19.091999053955078,15.864999771118164 -5.164000034332275,-20.80900001525879 8.154999732971191,-48.59600067138672 C14.397000312805176,-55.290000915527344 21.256999969482422,-61.57099914550781 28.913999557495117,-67.25199890136719z"/></g></g><g opacity="1" transform="matrix(1,0,0,1,222.38800048828125,233.4980010986328)"><path fill="url(#__lottie_element_40659)" fill-opacity="1" d=" M154.74400329589844,0.9049999713897705 C105.61199951171875,200.5019989013672 -175.41099548339844,48.50899887084961 -170.60400390625,45.13600158691406 C-114.5770034790039,5.818999767303467 -115.56099700927734,-45.292999267578125 -60.516998291015625,-94.43900299072266 C16.816999435424805,-163.48699951171875 182.16700744628906,-110.50199890136719 154.74400329589844,0.9049999713897705z M177.3509979248047,1.8880000114440918 C176.61199951171875,-74.49800109863281 114.08899688720703,-144.03500366210938 26.72800064086914,-141.06900024414062 C-41.63800048828125,-138.7480010986328 -76.18399810791016,-100.01200103759766 -82.4260025024414,-93.31800079345703 C-121.94000244140625,-50.915000915527344 -136.41799926757812,7.89300012588501 -170.11300659179688,32.849998474121094 C-178.73300170898438,39.23899841308594 -188.29600524902344,52.016998291015625 -143.08200073242188,52.016998291015625 C-181.41600036621094,56.93199920654297 -167.3209991455078,66.10199737548828 -148.97999572753906,70.69200134277344 C-141.11700439453125,72.65799713134766 -122.7750015258789,83.06700134277344 -114.5770034790039,89.36799621582031 C-67.88800048828125,125.24500274658203 -22.202999114990234,138.91700744628906 25.48900032043457,140.9709930419922 C116.9010009765625,144.9029998779297 178.16000366210938,85.48200225830078 177.3509979248047,1.8880000114440918z"/></g><g opacity="1" transform="matrix(1,0,0,1,222.38800048828125,233.4980010986328)"><path stroke-linecap="round" stroke-linejoin="round" fill-opacity="0" stroke="rgb(105,100,0)" stroke-opacity="1" stroke-width="8" d=" M177.3509979248047,1.8880000114440918 C178.16000366210938,85.48200225830078 116.9010009765625,144.9029998779297 25.48900032043457,140.9709930419922 C-22.202999114990234,138.91700744628906 -67.88800048828125,125.24500274658203 -114.5770034790039,89.36799621582031 C-122.7750015258789,83.06700134277344 -141.11700439453125,72.65799713134766 -148.97999572753906,70.69200134277344 C-167.3209991455078,66.10199737548828 -181.41600036621094,56.93199920654297 -143.08200073242188,52.016998291015625 C-188.29600524902344,52.016998291015625 -178.73300170898438,39.23899841308594 -170.11300659179688,32.849998474121094 C-136.41799926757812,7.89300012588501 -121.94000244140625,-50.915000915527344 -82.4260025024414,-93.31800079345703 C-76.18399810791016,-100.01200103759766 -41.63800048828125,-138.7480010986328 26.72800064086914,-141.06900024414062 C114.08899688720703,-144.03500366210938 176.61199951171875,-74.49800109863281 177.3509979248047,1.8880000114440918z"/></g><g opacity="1" transform="matrix(1,0,0,1,92.5,212.8470001220703)"><path stroke-linecap="round" stroke-linejoin="round" fill-opacity="0" stroke="rgb(142,144,0)" stroke-opacity="1" stroke-width="8" d=" M-47.41699981689453,63.92900085449219 C-47.93199920654297,60.29800033569336 -43.987998962402344,56.29100036621094 -40.2239990234375,53.500999450683594 C-6.5289998054504395,28.54400062561035 7.948999881744385,-30.264999389648438 47.4630012512207,-72.66799926757812 C48.81800079345703,-74.12200164794922 51.50899887084961,-77.08599853515625 55.59000015258789,-80.86100006103516"/></g><g opacity="1" transform="matrix(1,0,0,1,250.802001953125,178.93299865722656)"><path stroke-linecap="round" stroke-linejoin="round" fill-opacity="0" stroke="rgb(0,136,150)" stroke-opacity="1" stroke-width="8" d=" M-153.34300231933594,24.486000061035156 C-141.57699584960938,3.1619999408721924 -128.79200744628906,-19.48900032043457 -110.83999633789062,-38.75400161743164 C-104.5979995727539,-45.448001861572266 -70.052001953125,-84.18299865722656 -1.6859999895095825,-86.50399780273438 C85.67500305175781,-89.47000122070312 148.197998046875,-19.93400001525879 148.93699645996094,56.45199966430664 C148.93699645996094,56.45199966430664 148.93699645996094,56.45199966430664 148.93699645996094,56.45199966430664 C149.0189971923828,64.95500183105469 148.45899963378906,73.20700073242188 147.29100036621094,81.16799926757812"/></g><g opacity="1" transform="matrix(1,0,0,1,304.49700927734375,199.8280029296875)"><path stroke-linecap="round" stroke-linejoin="round" fill-opacity="0" stroke="rgb(0,83,82)" stroke-opacity="1" stroke-width="8" d=" M-93.63500213623047,-101.85800170898438 C-82.30799865722656,-104.86599731445312 -69.572998046875,-106.91699981689453 -55.38100051879883,-107.39900207519531 C31.979999542236328,-110.36499786376953 94.50299835205078,-40.827999114990234 95.24199676513672,35.55799865722656 C95.24199676513672,35.55799865722656 95.24199676513672,35.55799865722656 95.24199676513672,35.55799865722656 C95.5199966430664,64.31700134277344 88.4520034790039,90.21600341796875 75.33699798583984,111.65699768066406"/></g></g><g style="display: block;" transform="matrix(1,0,0,1,0,0)" opacity="1"><g opacity="1" transform="matrix(1,0,0,1,146.32000732421875,217.80599975585938)"><path fill="url(#__lottie_element_40674)" fill-opacity="1" d=" M9.086999893188477,-53.60499954223633 C35.42100143432617,-49.14099884033203 52.70100021362305,-21.52199935913086 47.68199920654297,8.083000183105469 C42.66299819946289,37.6879997253418 17.246999740600586,58.069000244140625 -9.086999893188477,53.60499954223633 C-35.42100143432617,49.14099884033203 -52.70100021362305,21.52199935913086 -47.68199920654297,-8.083000183105469 C-42.66299819946289,-37.6879997253418 -17.246999740600586,-58.069000244140625 9.086999893188477,-53.60499954223633z"/></g><g opacity="0.4" transform="matrix(1,0,0,1,145.26300048828125,224.6820068359375)"><path fill="rgb(111,141,95)" fill-opacity="1" d=" M20.148000717163086,4.039999961853027 C17.47100067138672,17.38800048828125 -22.825000762939453,9.307999610900879 -20.148000717163086,-4.039999961853027 C-17.47100067138672,-17.38800048828125 -6.281000137329102,-26.39900016784668 4.8460001945495605,-24.167999267578125 C15.972999572753906,-21.937000274658203 22.825000762939453,-9.307999610900879 20.148000717163086,4.039999961853027z"/></g><g opacity="1" transform="matrix(1,0,0,1,144.74099731445312,229.05099487304688)"><path fill="rgb(255,249,203)" fill-opacity="1" d=" M20.152000427246094,3.569000005722046 C17.475000381469727,16.91699981689453 6.283999919891357,25.927000045776367 -4.8429999351501465,23.695999145507812 C-15.970000267028809,21.46500015258789 -22.820999145507812,8.836000442504883 -20.143999099731445,-4.51200008392334 C-17.466999053955078,-17.860000610351562 22.82900047302246,-9.779000282287598 20.152000427246094,3.569000005722046z"/></g><g opacity="1" transform="matrix(1,0,0,1,145.1580047607422,226.51800537109375)"><path fill="rgb(0,0,0)" fill-opacity="1" d=" M19.83099937438965,3.9769999980926514 C17.42799949645996,15.958000183105469 6.6020002365112305,23.889999389648438 -4.349999904632568,21.694000244140625 C-15.302000045776367,19.49799919128418 -22.233999252319336,8.003999710083008 -19.83099937438965,-3.9769999980926514 C-17.42799949645996,-15.958000183105469 -6.6020002365112305,-23.889999389648438 4.349999904632568,-21.694000244140625 C15.302000045776367,-19.49799919128418 22.233999252319336,-8.003999710083008 19.83099937438965,3.9769999980926514z"/></g><g opacity="1" transform="matrix(1,0,0,1,144.55799865722656,218.00599670410156)"><path fill="url(#__lottie_element_40675)" fill-opacity="1" d=" M2.2219998836517334,-7.178999900817871 C6.554999828338623,-5.8379998207092285 9.072999954223633,-1.5369999408721924 7.8460001945495605,2.427999973297119 C6.61899995803833,6.39300012588501 2.1110000610351562,8.520000457763672 -2.2219998836517334,7.178999900817871 C-6.554999828338623,5.8379998207092285 -9.072999954223633,1.5369999408721924 -7.8460001945495605,-2.427999973297119 C-6.61899995803833,-6.39300012588501 -2.1110000610351562,-8.520000457763672 2.2219998836517334,-7.178999900817871z"/></g><g opacity="1" transform="matrix(1,0,0,1,144.36099243164062,228.9320068359375)"><path fill="url(#__lottie_element_40676)" fill-opacity="1" d=" M13.154000282287598,1.7489999532699585 C12.258999824523926,8.475000381469727 5.644999980926514,13.145000457763672 -1.6200000047683716,12.178999900817871 C-8.885000228881836,11.213000297546387 -14.048999786376953,4.9770002365112305 -13.154000282287598,-1.7489999532699585 C-12.258999824523926,-8.475000381469727 -5.644999980926514,-13.145000457763672 1.6200000047683716,-12.178999900817871 C8.885000228881836,-11.213000297546387 14.048999786376953,-4.9770002365112305 13.154000282287598,1.7489999532699585z"/></g></g></g></svg>