<svg xmlns="http://www.w3.org/2000/svg" xmlns:xlink="http://www.w3.org/1999/xlink" viewBox="0 0 512 512" width="512" height="512" style="width: 100%; height: 100%; transform: translate3d(0,0,0);" preserveAspectRatio="xMidYMid meet"><defs><clipPath id="__lottie_element_16188"><rect width="512" height="512" x="0" y="0"/></clipPath><linearGradient id="__lottie_element_16207" spreadMethod="pad" gradientUnits="userSpaceOnUse" x1="-246" y1="1" x2="243" y2="0"><stop offset="0%" stop-color="rgb(0,0,0)"/><stop offset="25%" stop-color="rgb(0,0,0)"/><stop offset="50%" stop-color="rgb(0,0,0)"/><stop offset="75%" stop-color="rgb(0,0,0)"/><stop offset="100%" stop-color="rgb(0,0,0)"/></linearGradient><mask id="__lottie_element_16209"><path fill="url(#__lottie_element_16208)" d=" M-246.5,-145.5 C-246.5,-139 -246.5,144.218994140625 -246.5,146.593994140625 C-244.71200561523438,146.76499938964844 -241.55099487304688,147.5780029296875 -237.75900268554688,148.50999450683594 C-220.5,152.75 -191.07200622558594,159.75999450683594 -178.26499938964844,161.58399963378906 C-147.25,166 -127.13200378417969,165.62600708007812 -103.76799774169922,164.74600219726562 C-50.75,162.75 -4.125,146.125 27.19499969482422,139.3300018310547 C47.95800018310547,134.8249969482422 68.79000091552734,130.64500427246094 83.74700164794922,128.94000244140625 C106.25,126.375 122.875,126.75 143.25,128.35899353027344 C183.33700561523438,131.52499389648438 217.79400634765625,139.2030029296875 241.43800354003906,147.031005859375 C241.43800354003906,147.09300231933594 241.406005859375,147.09300231933594 241.406005859375,147.06199645996094 C241.406005859375,147.06199645996094 241.406005859375,147.06199645996094 241.406005859375,147.06199645996094 C241.56199645996094,120.56199645996094 241.23399353027344,82.29100036621094 241.25,49.90599822998047 C241.26600646972656,17.08300018310547 241.43699645996094,-15.739999771118164 241.5,-48.5629997253418 C241.56199645996094,-80.91699981689453 241.5,-128.75 241.625,-145.625 C151.281005859375,-172.5 103.15699768066406,-165.1009979248047 78.5,-162.81199645996094 C23.042999267578125,-156.04600524902344 -48.707000732421875,-130.79600524902344 -83.375,-129.06199645996094 C-157.875,-120.1240005493164 -212.75,-139.625 -246.5,-145.5z"/></mask><linearGradient id="__lottie_element_16208" spreadMethod="pad" gradientUnits="userSpaceOnUse" x1="-246" y1="1" x2="243" y2="0"><stop stop-color="rgb(255,255,255)" offset="0%" stop-opacity="1"/><stop stop-color="rgb(255,255,255)" offset="17%" stop-opacity="0.5"/><stop stop-color="rgb(255,255,255)" offset="33%" stop-opacity="0"/><stop stop-color="rgb(255,255,255)" offset="50%" stop-opacity="0"/><stop stop-color="rgb(255,255,255)" offset="66%" stop-opacity="0"/><stop stop-color="rgb(255,255,255)" offset="83%" stop-opacity="0.5"/><stop stop-color="rgb(255,255,255)" offset="100%" stop-opacity="1"/></linearGradient></defs><g clip-path="url(#__lottie_element_16188)"><g style="display: block;" transform="matrix(0.800000011920929,0,0,0.800000011920929,257.9656066894531,250.03680419921875)" opacity="1"><g opacity="1" transform="matrix(1,0,0,1,0,0)"><path fill="rgb(26,71,142)" fill-opacity="1" d=" M-246.5,-145.5 C-246.5,-139 -246.5,144.218994140625 -246.5,146.593994140625 C-244.71200561523438,146.76499938964844 -241.55099487304688,147.5780029296875 -237.75900268554688,148.50999450683594 C-220.5,152.75 -191.07200622558594,159.75999450683594 -178.26499938964844,161.58399963378906 C-147.25,166 -127.13200378417969,165.62600708007812 -103.76799774169922,164.74600219726562 C-50.75,162.75 -4.125,146.125 27.19499969482422,139.3300018310547 C47.95800018310547,134.8249969482422 68.79000091552734,130.64500427246094 83.74700164794922,128.94000244140625 C106.25,126.375 122.875,126.75 143.25,128.35899353027344 C183.33700561523438,131.52499389648438 217.79400634765625,139.2030029296875 241.43800354003906,147.031005859375 C241.43800354003906,147.09300231933594 241.406005859375,147.09300231933594 241.406005859375,147.06199645996094 C241.406005859375,147.06199645996094 241.406005859375,147.06199645996094 241.406005859375,147.06199645996094 C241.56199645996094,120.56199645996094 241.23399353027344,82.29100036621094 241.25,49.90599822998047 C241.26600646972656,17.08300018310547 241.43699645996094,-15.739999771118164 241.5,-48.5629997253418 C241.56199645996094,-80.91699981689453 241.5,-128.75 241.625,-145.625 C151.281005859375,-172.5 103.15699768066406,-165.1009979248047 78.5,-162.81199645996094 C23.042999267578125,-156.04600524902344 -48.707000732421875,-130.79600524902344 -83.375,-129.06199645996094 C-157.875,-120.1240005493164 -212.75,-139.625 -246.5,-145.5z"/></g></g><g style="display: block;" transform="matrix(0.800000011920929,0,0,0.800000011920929,256,250)" opacity="1"><g opacity="1" transform="matrix(1,0,0,1,0,0)"><path fill="rgb(242,242,242)" fill-opacity="1" d=" M243.625,-28.6560001373291 C178.30799865722656,-23.750999450683594 129.7469940185547,-9.366999626159668 88.64900207519531,9.225000381469727 C54.66299819946289,24.599000930786133 25.7810001373291,42.85100173950195 -3.252000093460083,60.99700164794922 C-31.52199935913086,78.66600036621094 -59.933998107910156,96.23600006103516 -93.34200286865234,110.9530029296875 C-133.48800659179688,128.63900756835938 -180.8470001220703,142.2050018310547 -243.83599853515625,146.875 C-243.875,147 -243.93699645996094,142.25 -243.91400146484375,142.125 C-185.66000366210938,128.55599975585938 -138.4080047607422,106.98400115966797 -96.28700256347656,81.77100372314453 C-69.05799865722656,65.47200012207031 -43.97200012207031,47.650001525878906 -19.44499969482422,29.486000061035156 C7.909999847412109,9.227999687194824 34.56999969482422,-11.456000328063965 62.73699951171875,-30.93400001525879 C108.697998046875,-62.715999603271484 203,-97.75 243.81199645996094,-88.90599822998047 C243.87399291992188,-95.31199645996094 243.5,-33.75 243.625,-28.6560001373291z"/></g><g opacity="1" transform="matrix(1,0,0,1,0,0)"><path fill="rgb(217,123,43)" fill-opacity="1" d=" M49.54600143432617,-46.902000427246094 C21.965999603271484,-25.49799919128418 -2.49399995803833,-3.5350000858306885 -28.326000213623047,18.034000396728516 C-49.72200012207031,35.900001525878906 -72.05999755859375,53.494998931884766 -97.89099884033203,70.27799987792969 C-136.1510009765625,95.13700103759766 -182.0760040283203,118.21399688720703 -243.96099853515625,137.75 C-244,137.875 -243.93699645996094,142.25 -243.91400146484375,142.125 C-180.75999450683594,130.07699584960938 -133.60000610351562,111.25900268554688 -93.69599914550781,89.24099731445312 C-63.87699890136719,72.78800201416016 -38.11000061035156,54.547000885009766 -12.74899959564209,36.0099983215332 C14.89799976348877,15.802000045776367 42.0629997253418,-4.760000228881836 73.46900177001953,-23.743999481201172 C117.49500274658203,-50.356998443603516 169.85499572753906,-73.87100219726562 243.56199645996094,-88.96900177001953 C243.62399291992188,-95.375 244,-136 243.56100463867188,-145.33999633789062 C172.68800354003906,-129.97300720214844 96.48600006103516,-83.33000183105469 49.54600143432617,-46.902000427246094z"/></g></g><g style="display: block;" transform="matrix(0.800000011920929,0,0,0.800000011920929,256,249.99920654296875)" opacity="1"><g opacity="1" transform="matrix(1,0,0,1,-139.5,-24)"><path fill="rgb(242,242,242)" fill-opacity="1" d=" M-0.25,-92.25 C-0.25,-92.25 3.4159998893737793,-28.618000030517578 3.4159998893737793,-28.618000030517578 C3.4159998893737793,-28.618000030517578 16.975000381469727,-64.12000274658203 16.975000381469727,-64.12000274658203 C16.975000381469727,-64.12000274658203 10.729999542236328,-25.715999603271484 10.729999542236328,-25.715999603271484 C10.729999542236328,-25.715999603271484 32.4370002746582,-57.26499938964844 32.4370002746582,-57.26499938964844 C32.4370002746582,-57.26499938964844 17.63800048828125,-22.268999099731445 17.63800048828125,-22.268999099731445 C17.63800048828125,-22.268999099731445 45.645999908447266,-47.051998138427734 45.645999908447266,-47.051998138427734 C45.645999908447266,-47.051998138427734 22.643999099731445,-16.575000762939453 22.643999099731445,-16.575000762939453 C22.643999099731445,-16.575000762939453 46,-28.5 55.983001708984375,-34.3120002746582 C45.375,-25.125 26.590999603271484,-10.043000221252441 26.590999603271484,-10.043000221252441 C26.590999603271484,-10.043000221252441 48.375,-14.375 62.3390007019043,-18.881000518798828 C50.625,-12.375 28.430999755859375,-2.572000026702881 28.430999755859375,-2.572000026702881 C28.430999755859375,-2.572000026702881 65.875,-1.875 90.09400177001953,-6.281000137329102 C68.125,0.75 28.618000030517578,5.385000228881836 28.618000030517578,5.385000228881836 C28.618000030517578,5.385000228881836 55.25,14.25 62.744998931884766,15.975000381469727 C44.75,15.5 26.059999465942383,12.793000221252441 26.059999465942383,12.793000221252441 C26.059999465942383,12.793000221252441 45.75,26.25 56.51499938964844,33.25 C45.125,29.375 22.393999099731445,19.700000762939453 22.393999099731445,19.700000762939453 C22.393999099731445,19.700000762939453 39.75,41.25 45.83300018310547,47.95800018310547 C37.25,41.875 17.200000762939453,25.268999099731445 17.200000762939453,25.268999099731445 C17.200000762939453,25.268999099731445 32.40599822998047,59.82699966430664 32.40599822998047,59.82699966430664 C32.40599822998047,59.82699966430664 10.793000221252441,29.340999603271484 10.793000221252441,29.340999603271484 C10.793000221252441,29.340999603271484 16.56800079345703,66.62000274658203 16.56800079345703,66.62000274658203 C16.56800079345703,66.62000274658203 3.509999990463257,30.336999893188477 3.509999990463257,30.336999893188477 C3.509999990463257,30.336999893188477 -0.15600000321865082,94.53099822998047 -0.15600000321865082,94.53099822998047 C-0.15600000321865082,94.53099822998047 -3.822000026702881,29.743000030517578 -3.822000026702881,29.743000030517578 C-3.822000026702881,29.743000030517578 -17.06800079345703,65.08899688720703 -17.06800079345703,65.08899688720703 C-17.06800079345703,65.08899688720703 -11.074000358581543,27.62299919128418 -11.074000358581543,27.62299919128418 C-11.074000358581543,27.62299919128418 -32.78099822998047,56.38999938964844 -32.78099822998047,56.38999938964844 C-32.78099822998047,56.38999938964844 -17.38800048828125,22.832000732421875 -17.38800048828125,22.832000732421875 C-17.38800048828125,22.832000732421875 -34.625,35.75 -46.270999908447266,43.645999908447266 C-37.875,34.125 -22.863000869750977,17.01300048828125 -22.863000869750977,17.01300048828125 C-22.863000869750977,17.01300048828125 -44.25,24.125 -55.92100143432617,27.312000274658203 C-46.375,21.75 -26.590999603271484,9.793000221252441 -26.590999603271484,9.793000221252441 C-26.590999603271484,9.793000221252441 -49.125,10.093999862670898 -62.994998931884766,9.755999565124512 C-47.25,6.593999862670898 -28.086999893188477,2.1029999256134033 -28.086999893188477,2.1029999256134033 C-28.086999893188477,2.1029999256134033 -61.75,-4.25 -89.43800354003906,-14.156000137329102 C-60.875999450683594,-8.75 -28.430999755859375,-5.572000026702881 -28.430999755859375,-5.572000026702881 C-28.430999755859375,-5.572000026702881 -48.75,-16.125 -62.369998931884766,-25.28700065612793 C-47.375,-19.125 -26.809999465942383,-12.979999542236328 -26.809999465942383,-12.979999542236328 C-26.809999465942383,-12.979999542236328 -47.375,-31.9689998626709 -56.07699966430664,-40.34400177001953 C-42.875,-30.9689998626709 -22.643999099731445,-19.13800048828125 -22.643999099731445,-19.13800048828125 C-22.643999099731445,-19.13800048828125 -38.75,-41 -45.676998138427734,-51.926998138427734 C-38.75,-44.125 -17.450000762939453,-23.738000869750977 -17.450000762939453,-23.738000869750977 C-17.450000762939453,-23.738000869750977 -32.625,-60.42100143432617 -32.625,-60.42100143432617 C-32.625,-60.42100143432617 -11.229999542236328,-27.559999465942383 -11.229999542236328,-27.559999465942383 C-11.229999542236328,-27.559999465942383 -17.19300079345703,-65.99500274658203 -17.19300079345703,-65.99500274658203 C-17.19300079345703,-65.99500274658203 -4.010000228881836,-28.493000030517578 -4.010000228881836,-28.493000030517578 C-4.010000228881836,-28.493000030517578 -0.25,-92.25 -0.25,-92.25z"/></g></g><g style="display: block;" transform="matrix(0.800000011920929,0,0,0.800000011920929,257.9656066894531,250.03680419921875)" opacity="0.35000000000000003"><g opacity="1" transform="matrix(1,0,0,1,0,0)"><path fill="url(#__lottie_element_16207)" mask="url(#__lottie_element_16209)" fill-opacity="1" d="M0 0 M-246.5,-145.5 C-246.5,-139 -246.5,144.218994140625 -246.5,146.593994140625 C-244.71200561523438,146.76499938964844 -241.55099487304688,147.5780029296875 -237.75900268554688,148.50999450683594 C-220.5,152.75 -191.07200622558594,159.75999450683594 -178.26499938964844,161.58399963378906 C-147.25,166 -127.13200378417969,165.62600708007812 -103.76799774169922,164.74600219726562 C-50.75,162.75 -4.125,146.125 27.19499969482422,139.3300018310547 C47.95800018310547,134.8249969482422 68.79000091552734,130.64500427246094 83.74700164794922,128.94000244140625 C106.25,126.375 122.875,126.75 143.25,128.35899353027344 C183.33700561523438,131.52499389648438 217.79400634765625,139.2030029296875 241.43800354003906,147.031005859375 C241.43800354003906,147.09300231933594 241.406005859375,147.09300231933594 241.406005859375,147.06199645996094 C241.406005859375,147.06199645996094 241.406005859375,147.06199645996094 241.406005859375,147.06199645996094 C241.56199645996094,120.56199645996094 241.23399353027344,82.29100036621094 241.25,49.90599822998047 C241.26600646972656,17.08300018310547 241.43699645996094,-15.739999771118164 241.5,-48.5629997253418 C241.56199645996094,-80.91699981689453 241.5,-128.75 241.625,-145.625 C151.281005859375,-172.5 103.15699768066406,-165.1009979248047 78.5,-162.81199645996094 C23.042999267578125,-156.04600524902344 -48.707000732421875,-130.79600524902344 -83.375,-129.06199645996094 C-157.875,-120.1240005493164 -212.75,-139.625 -246.5,-145.5z"/></g></g><g style="display: block;" transform="matrix(0.800000011920929,0,0,0.800000011920929,257.9656066894531,250.03680419921875)" opacity="0.15"><g opacity="1" transform="matrix(1,0,0,1,0,0)"><path fill="rgb(255,255,255)" fill-opacity="1" d=" M-246.875,-146 C-246.83700561523438,-139.70399475097656 -246.875,-138 -246.79200744628906,-132.81100463867188 C-237.5,-136.25 -197.25,-114 -124.49600219726562,-114.31099700927734 C-38.992000579833984,-114.6760025024414 39.233001708984375,-153.25 121.70800018310547,-153.39700317382812 C179.75,-153.5 241,-132.25 240.91200256347656,-131.552001953125 C241,-140.5 241.375,-144.625 241.375,-144.625 C241.375,-144.625 179.75,-166.25 122.5,-166 C39.49700164794922,-165.63800048828125 -39.5,-128 -124.25,-126.81199645996094 C-197.0449981689453,-125.79199981689453 -237.75,-149 -246.875,-146z"/></g></g><g style="display: block;" transform="matrix(0.800000011920929,0,0,0.800000011920929,257.9656066894531,250.03680419921875)" opacity="0.15"><g opacity="1" transform="matrix(1,0,0,1,0,0)"><path fill="rgb(0,0,0)" fill-opacity="1" d=" M122.5,112.25 C34,112.25 -36,149.5 -123.5,152 C-140.61700439453125,152.48899841308594 -155.82000732421875,151.3489990234375 -170.41099548339844,149.1280059814453 C-195.23399353027344,145.35000610351562 -218.28900146484375,138.4459991455078 -246,131.125 C-246.25,134.5 -246,141.375 -246,145.125 C-218.5749969482422,153.30599975585938 -195.61700439453125,159.55499267578125 -170.83099365234375,163.0050048828125 C-155.8520050048828,165.08999633789062 -140.20399475097656,166.15199279785156 -122.5,166 C-35,165.25 33.5,126.625 121.75,126.5 C126.26799774169922,126.49400329589844 131.11399841308594,126.59500122070312 136.27699279785156,126.83899688720703 C163.25900268554688,128.11300659179688 198.88099670410156,133.2550048828125 241.375,147 C241.375,147 241.25,134.75 241.5,131.125 C199.093994140625,118.93299865722656 163.16200256347656,113.84500122070312 136.1439971923828,112.58000183105469 C131.30499267578125,112.35399627685547 126.75299835205078,112.25 122.5,112.25z"/></g></g><g style="display: block;" transform="matrix(0.800000011920929,0,0,0.800000011920929,257.9656066894531,250.03680419921875)" opacity="1"><g opacity="1" transform="matrix(1,0,0,1,0,0)"><path stroke-linecap="round" stroke-linejoin="round" fill-opacity="0" stroke="rgb(10,31,64)" stroke-opacity="1" stroke-width="8" d=" M241.625,-145.625 C151.281005859375,-172.5 103.15699768066406,-165.1009979248047 78.5,-162.81199645996094 C23.042999267578125,-156.04600524902344 -48.707000732421875,-130.79600524902344 -83.375,-129.06199645996094 C-157.875,-120.1240005493164 -212.75,-139.625 -246.5,-145.5 C-246.5,-139 -246.5,144.218994140625 -246.5,146.593994140625 C-244.71200561523438,146.76499938964844 -241.55099487304688,147.5780029296875 -237.75900268554688,148.50999450683594 C-220.5,152.75 -191.07200622558594,159.75999450683594 -178.26499938964844,161.58399963378906 C-147.25,166 -127.13200378417969,165.62600708007812 -103.76799774169922,164.74600219726562 C-50.75,162.75 -4.125,146.125 27.19499969482422,139.3300018310547 C47.95800018310547,134.8249969482422 68.79000091552734,130.64500427246094 83.74700164794922,128.94000244140625 C106.25,126.375 122.875,126.75 143.25,128.35899353027344 C183.33700561523438,131.52499389648438 217.79400634765625,139.2030029296875 241.43800354003906,147.031005859375 C241.43800354003906,147.09300231933594 241.406005859375,147.09300231933594 241.406005859375,147.06199645996094 C241.406005859375,147.06199645996094 241.406005859375,147.06199645996094 241.406005859375,147.06199645996094 C241.56199645996094,120.56199645996094 241.23399353027344,82.29100036621094 241.25,49.90599822998047 C241.26600646972656,17.08300018310547 241.43699645996094,3.697999954223633 241.5,-29.125"/></g><g opacity="1" transform="matrix(1,0,0,1,-2,0)"><path stroke-linecap="round" stroke-linejoin="miter" fill-opacity="0" stroke-miterlimit="4" stroke="rgb(110,64,24)" stroke-opacity="1" stroke-width="8" d=" M243.56199645996094,-88.96900177001953 C243.62399291992188,-95.375 244,-136 243.56100463867188,-145.33999633789062"/></g><g opacity="1" transform="matrix(1,0,0,1,-2,0)"><path stroke-linecap="butt" stroke-linejoin="miter" fill-opacity="0" stroke-miterlimit="4" stroke="rgb(115,115,115)" stroke-opacity="1" stroke-width="8" d=" M243.56199645996094,-88.96900177001953 C243.60499572753906,-85.10900115966797 243.5,-33.75 243.625,-28.6560001373291"/></g></g></g></svg>