<svg xmlns="http://www.w3.org/2000/svg" xmlns:xlink="http://www.w3.org/1999/xlink" viewBox="0 0 512 512" width="512" height="512" style="width: 100%; height: 100%; transform: translate3d(0,0,0);" preserveAspectRatio="xMidYMid meet"><defs><clipPath id="__lottie_element_24648"><rect width="512" height="512" x="0" y="0"/></clipPath><radialGradient id="__lottie_element_24659" spreadMethod="pad" gradientUnits="userSpaceOnUse" cx="-4.764999866485596" cy="-46.29899978637695" r="130.05000352859497" fx="-4.764999866485596" fy="-46.29899978637695"><stop offset="0%" stop-color="rgb(255,255,255)"/><stop offset="82%" stop-color="rgb(233,236,239)"/><stop offset="100%" stop-color="rgb(211,218,224)"/></radialGradient><radialGradient id="__lottie_element_24660" spreadMethod="pad" gradientUnits="userSpaceOnUse" cx="1.2339999675750732" cy="4.289000034332275" r="232.16500210762024" fx="1.2339999675750732" fy="4.289000034332275"><stop offset="0%" stop-color="rgb(255,255,255)"/><stop offset="82%" stop-color="rgb(233,236,239)"/><stop offset="100%" stop-color="rgb(211,218,224)"/></radialGradient><linearGradient id="__lottie_element_24661" spreadMethod="pad" gradientUnits="userSpaceOnUse" x1="0.23399999737739563" y1="-126.67400360107422" x2="0.23399999737739563" y2="135.3260040283203"><stop offset="0%" stop-color="rgb(255,255,255)"/><stop offset="56%" stop-color="rgb(233,236,239)"/><stop offset="90%" stop-color="rgb(211,218,224)"/></linearGradient><linearGradient id="__lottie_element_24662" spreadMethod="pad" gradientUnits="userSpaceOnUse" x1="-1.9110000133514404" y1="110.1709976196289" x2="-0.23899999260902405" y2="33.9370002746582"><stop offset="0%" stop-color="rgb(141,225,253)"/><stop offset="50%" stop-color="rgb(196,238,253)"/><stop offset="100%" stop-color="rgb(251,252,252)"/></linearGradient><mask id="__lottie_element_24664"><path fill="url(#__lottie_element_24663)" d=" M119.06199645996094,95.71299743652344 C119.06199645996094,95.71299743652344 -117.14700317382812,95.71299743652344 -117.14700317382812,95.71299743652344 C-150.2969970703125,95.71299743652344 -206.7169952392578,72.68299865722656 -213.5070037841797,11.432999610900879 C-220.53700256347656,-52.05699920654297 -170.31700134277344,-81.66699981689453 -142.85699462890625,-84.74700164794922 C-142.85699462890625,-84.74700164794922 -142.8769989013672,-85.14700317382812 -142.86700439453125,-85.88700103759766 C-142.86700439453125,-85.88700103759766 -140.52699279785156,-85.63700103759766 -140.52699279785156,-85.63700103759766 C-140.52699279785156,-85.63700103759766 -83.15699768066406,-94.927001953125 -39.89699935913086,-56.49700164794922 C-39.89699935913086,-56.49700164794922 -10.79699993133545,-77.10700225830078 26.982999801635742,-56.46699905395508 C26.982999801635742,-56.46699905395508 71.6719970703125,-107.21700286865234 130.82200622558594,-93.2969970703125 C130.89199829101562,-93.28700256347656 130.95199584960938,-93.2770004272461 131.02200317382812,-93.25700378417969 C131.02200317382812,-93.25700378417969 134.91299438476562,-94.47699737548828 134.91299438476562,-94.47699737548828 C134.9429931640625,-93.80699920654297 134.96299743652344,-93.12699890136719 134.97300720214844,-92.45700073242188 C134.97300720214844,-92.45700073242188 134.31199645996094,-92.53700256347656 134.31199645996094,-92.53700256347656 C174.7519989013672,-83.06700134277344 209.11300659179688,-50.91600036621094 213.6230010986328,-9.696000099182129 C219.76300048828125,46.55400085449219 173.82200622558594,95.71299743652344 119.06199645996094,95.71299743652344z"/></mask><linearGradient id="__lottie_element_24663" spreadMethod="pad" gradientUnits="userSpaceOnUse" x1="-1.9110000133514404" y1="110.1709976196289" x2="-0.23899999260902405" y2="33.9370002746582"><stop stop-color="rgb(255,255,255)" offset="0%" stop-opacity="1"/><stop stop-color="rgb(255,255,255)" offset="79%" stop-opacity="0.5"/><stop stop-color="rgb(255,255,255)" offset="100%" stop-opacity="0"/></linearGradient><radialGradient id="__lottie_element_24667" spreadMethod="pad" gradientUnits="userSpaceOnUse" cx="141.31399536132812" cy="53.41600036621094" r="259.32482898044515" fx="141.31399536132812" fy="53.41600036621094"><stop offset="0%" stop-color="rgb(255,207,0)" stop-opacity="1"/><stop offset="39%" stop-color="rgb(255,231,128)" stop-opacity="0.5"/><stop offset="100%" stop-color="rgb(255,255,255)" stop-opacity="0"/></radialGradient><linearGradient id="__lottie_element_24674" spreadMethod="pad" gradientUnits="userSpaceOnUse" x1="0.18000000715255737" y1="-111.94999694824219" x2="0.18000000715255737" y2="105.21600341796875"><stop offset="0%" stop-color="rgb(255,237,91)"/><stop offset="58%" stop-color="rgb(255,187,45)"/><stop offset="100%" stop-color="rgb(255,138,0)"/></linearGradient><linearGradient id="__lottie_element_24675" spreadMethod="pad" gradientUnits="userSpaceOnUse" x1="0.18000000715255737" y1="-99.94999694824219" x2="0.18000000715255737" y2="99.5479965209961"><stop offset="3%" stop-color="rgb(255,255,193)"/><stop offset="32%" stop-color="rgb(255,240,122)"/><stop offset="51%" stop-color="rgb(255,226,52)"/><stop offset="72%" stop-color="rgb(255,193,28)"/><stop offset="100%" stop-color="rgb(255,159,3)"/></linearGradient><linearGradient id="__lottie_element_24680" spreadMethod="pad" gradientUnits="userSpaceOnUse" x1="-37.40700149536133" y1="-0.949999988079071" x2="54.917999267578125" y2="-0.017999999225139618"><stop offset="0%" stop-color="rgb(255,237,110)"/><stop offset="13%" stop-color="rgb(255,232,81)"/><stop offset="27%" stop-color="rgb(255,226,52)"/><stop offset="66%" stop-color="rgb(255,193,28)"/><stop offset="100%" stop-color="rgb(255,159,3)"/></linearGradient><linearGradient id="__lottie_element_24684" spreadMethod="pad" gradientUnits="userSpaceOnUse" x1="-34.641998291015625" y1="-35.790000915527344" x2="31.708999633789062" y2="30.56100082397461"><stop offset="0%" stop-color="rgb(255,237,110)"/><stop offset="13%" stop-color="rgb(255,232,81)"/><stop offset="27%" stop-color="rgb(255,226,52)"/><stop offset="66%" stop-color="rgb(255,193,28)"/><stop offset="100%" stop-color="rgb(255,159,3)"/></linearGradient><linearGradient id="__lottie_element_24688" spreadMethod="pad" gradientUnits="userSpaceOnUse" x1="1.1829999685287476" y1="-32.540000915527344" x2="0.25" y2="51.391998291015625"><stop offset="0%" stop-color="rgb(255,237,110)"/><stop offset="13%" stop-color="rgb(255,232,81)"/><stop offset="27%" stop-color="rgb(255,226,52)"/><stop offset="66%" stop-color="rgb(255,193,28)"/><stop offset="100%" stop-color="rgb(255,159,3)"/></linearGradient><linearGradient id="__lottie_element_24692" spreadMethod="pad" gradientUnits="userSpaceOnUse" x1="34.018001556396484" y1="-32.77000045776367" x2="-28.46500015258789" y2="27.847000122070312"><stop offset="0%" stop-color="rgb(255,237,110)"/><stop offset="13%" stop-color="rgb(255,232,81)"/><stop offset="27%" stop-color="rgb(255,226,52)"/><stop offset="66%" stop-color="rgb(255,193,28)"/><stop offset="100%" stop-color="rgb(255,159,3)"/></linearGradient><linearGradient id="__lottie_element_24696" spreadMethod="pad" gradientUnits="userSpaceOnUse" x1="25.76799964904785" y1="-0.949999988079071" x2="-44.29899978637695" y2="-0.949999988079071"><stop offset="0%" stop-color="rgb(255,237,110)"/><stop offset="13%" stop-color="rgb(255,232,81)"/><stop offset="27%" stop-color="rgb(255,226,52)"/><stop offset="66%" stop-color="rgb(255,193,28)"/><stop offset="100%" stop-color="rgb(255,159,3)"/></linearGradient><linearGradient id="__lottie_element_24700" spreadMethod="pad" gradientUnits="userSpaceOnUse" x1="0.003000000026077032" y1="-307.114990234375" x2="0.003000000026077032" y2="81.03800201416016"><stop offset="0%" stop-color="rgb(255,237,110)"/><stop offset="13%" stop-color="rgb(255,232,81)"/><stop offset="27%" stop-color="rgb(255,226,52)"/><stop offset="66%" stop-color="rgb(255,193,28)"/><stop offset="100%" stop-color="rgb(255,159,3)"/></linearGradient><linearGradient id="__lottie_element_24704" spreadMethod="pad" gradientUnits="userSpaceOnUse" x1="0.18299999833106995" y1="-370.3599853515625" x2="0.18299999833106995" y2="17.79400062561035"><stop offset="0%" stop-color="rgb(255,237,110)"/><stop offset="13%" stop-color="rgb(255,232,81)"/><stop offset="27%" stop-color="rgb(255,226,52)"/><stop offset="66%" stop-color="rgb(255,193,28)"/><stop offset="100%" stop-color="rgb(255,159,3)"/></linearGradient><linearGradient id="__lottie_element_24708" spreadMethod="pad" gradientUnits="userSpaceOnUse" x1="0.33799999952316284" y1="-307.125" x2="0.33799999952316284" y2="81.02899932861328"><stop offset="0%" stop-color="rgb(255,237,110)"/><stop offset="13%" stop-color="rgb(255,232,81)"/><stop offset="27%" stop-color="rgb(255,226,52)"/><stop offset="66%" stop-color="rgb(255,193,28)"/><stop offset="100%" stop-color="rgb(255,159,3)"/></linearGradient><radialGradient id="__lottie_element_24713" spreadMethod="pad" gradientUnits="userSpaceOnUse"><stop/><stop/><stop/></radialGradient><linearGradient id="__lottie_element_24714" spreadMethod="pad" gradientUnits="userSpaceOnUse"><stop/><stop/><stop/></linearGradient><radialGradient id="__lottie_element_24718" spreadMethod="pad" gradientUnits="userSpaceOnUse"><stop/><stop/><stop/></radialGradient><linearGradient id="__lottie_element_24719" spreadMethod="pad" gradientUnits="userSpaceOnUse"><stop/><stop/><stop/></linearGradient><radialGradient id="__lottie_element_24723" spreadMethod="pad" gradientUnits="userSpaceOnUse"><stop/><stop/><stop/></radialGradient><linearGradient id="__lottie_element_24724" spreadMethod="pad" gradientUnits="userSpaceOnUse"><stop/><stop/><stop/></linearGradient><radialGradient id="__lottie_element_24728" spreadMethod="pad" gradientUnits="userSpaceOnUse"><stop/><stop/><stop/></radialGradient><linearGradient id="__lottie_element_24729" spreadMethod="pad" gradientUnits="userSpaceOnUse"><stop/><stop/><stop/></linearGradient><radialGradient id="__lottie_element_24733" spreadMethod="pad" gradientUnits="userSpaceOnUse"><stop/><stop/><stop/></radialGradient><linearGradient id="__lottie_element_24734" spreadMethod="pad" gradientUnits="userSpaceOnUse"><stop/><stop/><stop/></linearGradient><radialGradient id="__lottie_element_24738" spreadMethod="pad" gradientUnits="userSpaceOnUse"><stop/><stop/><stop/></radialGradient><linearGradient id="__lottie_element_24739" spreadMethod="pad" gradientUnits="userSpaceOnUse"><stop/><stop/><stop/></linearGradient><radialGradient id="__lottie_element_24743" spreadMethod="pad" gradientUnits="userSpaceOnUse"><stop/><stop/><stop/></radialGradient><linearGradient id="__lottie_element_24744" spreadMethod="pad" gradientUnits="userSpaceOnUse"><stop/><stop/><stop/></linearGradient><radialGradient id="__lottie_element_24748" spreadMethod="pad" gradientUnits="userSpaceOnUse"><stop/><stop/><stop/></radialGradient><linearGradient id="__lottie_element_24749" spreadMethod="pad" gradientUnits="userSpaceOnUse"><stop/><stop/><stop/></linearGradient><radialGradient id="__lottie_element_24753" spreadMethod="pad" gradientUnits="userSpaceOnUse"><stop/><stop/><stop/></radialGradient><linearGradient id="__lottie_element_24754" spreadMethod="pad" gradientUnits="userSpaceOnUse"><stop/><stop/><stop/></linearGradient><radialGradient id="__lottie_element_24758" spreadMethod="pad" gradientUnits="userSpaceOnUse"><stop/><stop/><stop/></radialGradient><linearGradient id="__lottie_element_24759" spreadMethod="pad" gradientUnits="userSpaceOnUse"><stop/><stop/><stop/></linearGradient><radialGradient id="__lottie_element_24763" spreadMethod="pad" gradientUnits="userSpaceOnUse"><stop/><stop/><stop/></radialGradient><linearGradient id="__lottie_element_24764" spreadMethod="pad" gradientUnits="userSpaceOnUse"><stop/><stop/><stop/></linearGradient><radialGradient id="__lottie_element_24768" spreadMethod="pad" gradientUnits="userSpaceOnUse"><stop/><stop/><stop/></radialGradient><linearGradient id="__lottie_element_24769" spreadMethod="pad" gradientUnits="userSpaceOnUse"><stop/><stop/><stop/></linearGradient><radialGradient id="__lottie_element_24773" spreadMethod="pad" gradientUnits="userSpaceOnUse"><stop/><stop/><stop/></radialGradient><linearGradient id="__lottie_element_24774" spreadMethod="pad" gradientUnits="userSpaceOnUse"><stop/><stop/><stop/></linearGradient><radialGradient id="__lottie_element_24778" spreadMethod="pad" gradientUnits="userSpaceOnUse"><stop/><stop/><stop/></radialGradient><linearGradient id="__lottie_element_24779" spreadMethod="pad" gradientUnits="userSpaceOnUse"><stop/><stop/><stop/></linearGradient><radialGradient id="__lottie_element_24783" spreadMethod="pad" gradientUnits="userSpaceOnUse"><stop/><stop/><stop/></radialGradient><linearGradient id="__lottie_element_24784" spreadMethod="pad" gradientUnits="userSpaceOnUse"><stop/><stop/><stop/></linearGradient><radialGradient id="__lottie_element_24788" spreadMethod="pad" gradientUnits="userSpaceOnUse"><stop/><stop/><stop/></radialGradient><linearGradient id="__lottie_element_24789" spreadMethod="pad" gradientUnits="userSpaceOnUse"><stop/><stop/><stop/></linearGradient><radialGradient id="__lottie_element_24793" spreadMethod="pad" gradientUnits="userSpaceOnUse"><stop/><stop/><stop/></radialGradient><linearGradient id="__lottie_element_24794" spreadMethod="pad" gradientUnits="userSpaceOnUse"><stop/><stop/><stop/></linearGradient><radialGradient id="__lottie_element_24798" spreadMethod="pad" gradientUnits="userSpaceOnUse"><stop/><stop/><stop/></radialGradient><linearGradient id="__lottie_element_24799" spreadMethod="pad" gradientUnits="userSpaceOnUse"><stop/><stop/><stop/></linearGradient><radialGradient id="__lottie_element_24803" spreadMethod="pad" gradientUnits="userSpaceOnUse"><stop/><stop/><stop/></radialGradient><linearGradient id="__lottie_element_24804" spreadMethod="pad" gradientUnits="userSpaceOnUse"><stop/><stop/><stop/></linearGradient><radialGradient id="__lottie_element_24808" spreadMethod="pad" gradientUnits="userSpaceOnUse"><stop/><stop/><stop/></radialGradient><linearGradient id="__lottie_element_24809" spreadMethod="pad" gradientUnits="userSpaceOnUse"><stop/><stop/><stop/></linearGradient><radialGradient id="__lottie_element_24813" spreadMethod="pad" gradientUnits="userSpaceOnUse" cx="-8.289999961853027" cy="18.76099967956543" r="29.508000373840332" fx="-8.289999961853027" fy="18.76099967956543"><stop offset="0%" stop-color="rgb(168,242,252)"/><stop offset="50%" stop-color="rgb(117,203,235)"/><stop offset="100%" stop-color="rgb(65,165,218)"/></radialGradient><linearGradient id="__lottie_element_24814" spreadMethod="pad" gradientUnits="userSpaceOnUse" x1="14.838000297546387" y1="-18.631999969482422" x2="-8.496999740600586" y2="16.983999252319336"><stop offset="0%" stop-color="rgb(255,255,255)" stop-opacity="1"/><stop offset="87%" stop-color="rgb(255,255,255)" stop-opacity="0.5"/><stop offset="100%" stop-color="rgb(255,255,255)" stop-opacity="0"/></linearGradient><radialGradient id="__lottie_element_24818" spreadMethod="pad" gradientUnits="userSpaceOnUse" cx="-8.107999801635742" cy="18.083999633789062" r="29.507999420166016" fx="-8.107999801635742" fy="18.083999633789062"><stop offset="0%" stop-color="rgb(168,242,252)"/><stop offset="50%" stop-color="rgb(117,203,235)"/><stop offset="100%" stop-color="rgb(65,165,218)"/></radialGradient><linearGradient id="__lottie_element_24819" spreadMethod="pad" gradientUnits="userSpaceOnUse" x1="15.020000457763672" y1="-19.30900001525879" x2="-8.3149995803833" y2="16.308000564575195"><stop offset="0%" stop-color="rgb(255,255,255)" stop-opacity="1"/><stop offset="87%" stop-color="rgb(255,255,255)" stop-opacity="0.5"/><stop offset="100%" stop-color="rgb(255,255,255)" stop-opacity="0"/></linearGradient><radialGradient id="__lottie_element_24823" spreadMethod="pad" gradientUnits="userSpaceOnUse" cx="-8.439000129699707" cy="17.983999252319336" r="29.50700092315674" fx="-8.439000129699707" fy="17.983999252319336"><stop offset="0%" stop-color="rgb(168,242,252)"/><stop offset="50%" stop-color="rgb(117,203,235)"/><stop offset="100%" stop-color="rgb(65,165,218)"/></radialGradient><linearGradient id="__lottie_element_24824" spreadMethod="pad" gradientUnits="userSpaceOnUse" x1="14.689000129699707" y1="-19.40999984741211" x2="-8.647000312805176" y2="16.207000732421875"><stop offset="0%" stop-color="rgb(255,255,255)" stop-opacity="1"/><stop offset="87%" stop-color="rgb(255,255,255)" stop-opacity="0.5"/><stop offset="100%" stop-color="rgb(255,255,255)" stop-opacity="0"/></linearGradient><radialGradient id="__lottie_element_24828" spreadMethod="pad" gradientUnits="userSpaceOnUse" cx="-8.208000183105469" cy="18.496999740600586" r="29.507999420166016" fx="-8.208000183105469" fy="18.496999740600586"><stop offset="0%" stop-color="rgb(168,242,252)"/><stop offset="50%" stop-color="rgb(117,203,235)"/><stop offset="100%" stop-color="rgb(65,165,218)"/></radialGradient><linearGradient id="__lottie_element_24829" spreadMethod="pad" gradientUnits="userSpaceOnUse" x1="14.920000076293945" y1="-18.895999908447266" x2="-8.414999961853027" y2="16.72100067138672"><stop offset="0%" stop-color="rgb(255,255,255)" stop-opacity="1"/><stop offset="87%" stop-color="rgb(255,255,255)" stop-opacity="0.5"/><stop offset="100%" stop-color="rgb(255,255,255)" stop-opacity="0"/></linearGradient><radialGradient id="__lottie_element_24833" spreadMethod="pad" gradientUnits="userSpaceOnUse" cx="-7.9120001792907715" cy="18.496999740600586" r="29.50800085067749" fx="-7.9120001792907715" fy="18.496999740600586"><stop offset="0%" stop-color="rgb(168,242,252)"/><stop offset="50%" stop-color="rgb(117,203,235)"/><stop offset="100%" stop-color="rgb(65,165,218)"/></radialGradient><linearGradient id="__lottie_element_24834" spreadMethod="pad" gradientUnits="userSpaceOnUse" x1="15.215999603271484" y1="-18.895999908447266" x2="-8.119000434875488" y2="16.72100067138672"><stop offset="0%" stop-color="rgb(255,255,255)" stop-opacity="1"/><stop offset="87%" stop-color="rgb(255,255,255)" stop-opacity="0.5"/><stop offset="100%" stop-color="rgb(255,255,255)" stop-opacity="0"/></linearGradient></defs><g clip-path="url(#__lottie_element_24648)"><g style="display: block;" transform="matrix(0.8099491000175476,0,0,0.8099491000175476,822.9149169921875,593.7981567382812)" opacity="1"><g opacity="1" transform="matrix(1,0,0,1,0,0)"><g opacity="1" transform="matrix(1,0,0,1,-820.0819702148438,-273.6029968261719)"><path fill="url(#__lottie_element_24833)" fill-opacity="1" d=" M-21.799999237060547,-0.8009999990463257 C-28.39299964904785,9.428999900817871 -25.44300079345703,23.066999435424805 -15.213000297546387,29.659000396728516 C-4.982999801635742,36.25199890136719 8.654000282287598,33.303001403808594 15.246999740600586,23.072999954223633 C21.84000015258789,12.843000411987305 25.31599998474121,-33.17499923706055 25.31599998474121,-33.17499923706055 C25.31599998474121,-33.17499923706055 -15.206999778747559,-11.031000137329102 -21.799999237060547,-0.8009999990463257z"/></g><g opacity="0.7000000000000001" transform="matrix(1,0,0,1,-815.2100219726562,-278.2099914550781)"><path fill="url(#__lottie_element_24834)" fill-opacity="1" d=" M-14.057999610900879,2.799999952316284 C-17.492000579833984,8.128999710083008 -15.538999557495117,15.505000114440918 -10.210000038146973,18.93899917602539 C-4.88100004196167,22.37299919128418 2.6410000324249268,21.10700035095215 6.074999809265137,15.777999877929688 C8.989999771118164,11.255000114440918 14.232999801635742,-12.734999656677246 15.753000259399414,-19.893999099731445 C15.904000282287598,-20.606000900268555 15.097000122070312,-21.12700080871582 14.510000228881836,-20.69700050354004 C8.60200023651123,-16.368999481201172 -11.142999649047852,-1.7230000495910645 -14.057999610900879,2.799999952316284z"/></g><g opacity="1" transform="matrix(1,0,0,1,-820.1430053710938,-273.0159912109375)"><path stroke-linecap="round" stroke-linejoin="round" fill-opacity="0" stroke="rgb(30,146,216)" stroke-opacity="1" stroke-width="8" d=" M-21.73900032043457,-1.3880000114440918 C-28.368999481201172,8.817999839782715 -25.381999969482422,22.479999542236328 -15.152000427246094,29.07200050354004 C-4.921999931335449,35.665000915527344 8.678000450134277,32.69200134277344 15.307999610900879,22.486000061035156 C22.992000579833984,10.656000137329102 24.85700035095215,-20.31599998474121 25.268999099731445,-30.479000091552734 C25.329999923706055,-31.9950008392334 23.763999938964844,-33.034000396728516 22.39299964904785,-32.3849983215332 C13.456000328063965,-28.155000686645508 -13.015999794006348,-14.817000389099121 -21.73900032043457,-1.3880000114440918z"/></g></g></g><g style="display: block;" transform="matrix(0.8099491000175476,0,0,0.8099491000175476,822.9146728515625,593.7981567382812)" opacity="1"><g opacity="1" transform="matrix(1,0,0,1,0,0)"><g opacity="1" transform="matrix(1,0,0,1,-685.7869873046875,-273.6029968261719)"><path fill="url(#__lottie_element_24828)" fill-opacity="1" d=" M-21.799999237060547,-0.8009999990463257 C-28.39299964904785,9.428999900817871 -25.44300079345703,23.06599998474121 -15.213000297546387,29.659000396728516 C-4.982999801635742,36.25199890136719 8.654000282287598,33.303001403808594 15.246999740600586,23.072999954223633 C21.839000701904297,12.843000411987305 25.315000534057617,-33.17499923706055 25.315000534057617,-33.17499923706055 C25.315000534057617,-33.17499923706055 -15.206999778747559,-11.031000137329102 -21.799999237060547,-0.8009999990463257z"/></g><g opacity="0.7000000000000001" transform="matrix(1,0,0,1,-680.9149780273438,-278.2099914550781)"><path fill="url(#__lottie_element_24829)" fill-opacity="1" d=" M-14.057999610900879,2.799999952316284 C-17.492000579833984,8.128999710083008 -15.538999557495117,15.505000114440918 -10.210000038146973,18.93899917602539 C-4.88100004196167,22.37299919128418 2.6410000324249268,21.10700035095215 6.074999809265137,15.777999877929688 C8.989999771118164,11.255000114440918 14.232999801635742,-12.734999656677246 15.753000259399414,-19.893999099731445 C15.904000282287598,-20.606000900268555 15.097999572753906,-21.12700080871582 14.510000228881836,-20.69700050354004 C8.60200023651123,-16.368999481201172 -11.142999649047852,-1.7230000495910645 -14.057999610900879,2.799999952316284z"/></g><g opacity="1" transform="matrix(1,0,0,1,-685.8480224609375,-273.0159912109375)"><path stroke-linecap="round" stroke-linejoin="round" fill-opacity="0" stroke="rgb(30,146,216)" stroke-opacity="1" stroke-width="8" d=" M-21.73900032043457,-1.3880000114440918 C-28.368999481201172,8.817999839782715 -25.381999969482422,22.479000091552734 -15.152000427246094,29.07200050354004 C-4.921999931335449,35.665000915527344 8.678000450134277,32.69200134277344 15.307999610900879,22.486000061035156 C22.992000579833984,10.656000137329102 24.85700035095215,-20.31599998474121 25.268999099731445,-30.479000091552734 C25.329999923706055,-31.9950008392334 23.763999938964844,-33.034000396728516 22.39299964904785,-32.3849983215332 C13.456000328063965,-28.155000686645508 -13.015999794006348,-14.817000389099121 -21.73900032043457,-1.3880000114440918z"/></g></g></g><g style="display: block;" transform="matrix(0.8099491000175476,0,0,0.8099491000175476,822.9146728515625,593.7979736328125)" opacity="1"><g opacity="1" transform="matrix(1,0,0,1,0,0)"><g opacity="1" transform="matrix(1,0,0,1,-764.5549926757812,-196.08900451660156)"><path fill="url(#__lottie_element_24823)" fill-opacity="1" d=" M-21.799999237060547,-0.8009999990463257 C-28.392000198364258,9.428999900817871 -25.44300079345703,23.06599998474121 -15.213000297546387,29.659000396728516 C-4.982999801635742,36.25199890136719 8.654000282287598,33.303001403808594 15.246999740600586,23.072999954223633 C21.84000015258789,12.843000411987305 25.31599998474121,-33.17499923706055 25.31599998474121,-33.17499923706055 C25.31599998474121,-33.17499923706055 -15.206999778747559,-11.031000137329102 -21.799999237060547,-0.8009999990463257z"/></g><g opacity="0.7000000000000001" transform="matrix(1,0,0,1,-759.6829833984375,-200.6959991455078)"><path fill="url(#__lottie_element_24824)" fill-opacity="1" d=" M-14.057999610900879,2.799999952316284 C-17.492000579833984,8.128999710083008 -15.538999557495117,15.505000114440918 -10.210000038146973,18.93899917602539 C-4.880000114440918,22.37299919128418 2.6410000324249268,21.10700035095215 6.074999809265137,15.777999877929688 C8.989999771118164,11.255000114440918 14.232999801635742,-12.734999656677246 15.753000259399414,-19.893999099731445 C15.904000282287598,-20.606000900268555 15.097999572753906,-21.12700080871582 14.510000228881836,-20.69700050354004 C8.60200023651123,-16.368999481201172 -11.142999649047852,-1.7230000495910645 -14.057999610900879,2.799999952316284z"/></g><g opacity="1" transform="matrix(1,0,0,1,-764.6160278320312,-195.5019989013672)"><path stroke-linecap="round" stroke-linejoin="round" fill-opacity="0" stroke="rgb(30,146,216)" stroke-opacity="1" stroke-width="8" d=" M-21.73900032043457,-1.3880000114440918 C-28.368000030517578,8.817999839782715 -25.381999969482422,22.479000091552734 -15.152000427246094,29.07200050354004 C-4.921999931335449,35.665000915527344 8.678999900817871,32.69200134277344 15.307999610900879,22.486000061035156 C22.992000579833984,10.656000137329102 24.85700035095215,-20.31599998474121 25.268999099731445,-30.479000091552734 C25.329999923706055,-31.9950008392334 23.763999938964844,-33.034000396728516 22.39299964904785,-32.3849983215332 C13.456000328063965,-28.155000686645508 -13.015999794006348,-14.817000389099121 -21.73900032043457,-1.3880000114440918z"/></g></g></g><g style="display: block;" transform="matrix(0.8099491000175476,0,0,0.8099491000175476,822.914794921875,593.7987670898438)" opacity="1"><g opacity="1" transform="matrix(1,0,0,1,0,0)"><g opacity="1" transform="matrix(1,0,0,1,-555.8870239257812,-282.19000244140625)"><path fill="url(#__lottie_element_24818)" fill-opacity="1" d=" M-21.799999237060547,-0.8009999990463257 C-28.39299964904785,9.428999900817871 -25.44300079345703,23.06599998474121 -15.213000297546387,29.659000396728516 C-4.982999801635742,36.25199890136719 8.654000282287598,33.303001403808594 15.246999740600586,23.072999954223633 C21.84000015258789,12.843000411987305 25.315000534057617,-33.17499923706055 25.315000534057617,-33.17499923706055 C25.315000534057617,-33.17499923706055 -15.206999778747559,-11.031000137329102 -21.799999237060547,-0.8009999990463257z"/></g><g opacity="0.7000000000000001" transform="matrix(1,0,0,1,-551.0150146484375,-286.7959899902344)"><path fill="url(#__lottie_element_24819)" fill-opacity="1" d=" M-14.057999610900879,2.799999952316284 C-17.492000579833984,8.128999710083008 -15.538999557495117,15.505000114440918 -10.210000038146973,18.93899917602539 C-4.88100004196167,22.37299919128418 2.6410000324249268,21.107999801635742 6.074999809265137,15.779000282287598 C8.989999771118164,11.255999565124512 14.232999801635742,-12.734999656677246 15.753000259399414,-19.893999099731445 C15.904000282287598,-20.606000900268555 15.097999572753906,-21.12700080871582 14.510000228881836,-20.69700050354004 C8.60200023651123,-16.368999481201172 -11.142999649047852,-1.7230000495910645 -14.057999610900879,2.799999952316284z"/></g><g opacity="1" transform="matrix(1,0,0,1,-555.947998046875,-281.6029968261719)"><path stroke-linecap="round" stroke-linejoin="round" fill-opacity="0" stroke="rgb(30,146,216)" stroke-opacity="1" stroke-width="8" d=" M-21.73900032043457,-1.3880000114440918 C-28.368999481201172,8.817999839782715 -25.381999969482422,22.479000091552734 -15.152000427246094,29.07200050354004 C-4.921999931335449,35.665000915527344 8.678000450134277,32.69200134277344 15.307999610900879,22.486000061035156 C22.992000579833984,10.656000137329102 24.85700035095215,-20.31599998474121 25.268999099731445,-30.479000091552734 C25.329999923706055,-31.9950008392334 23.763999938964844,-33.034000396728516 22.39299964904785,-32.3849983215332 C13.456000328063965,-28.155000686645508 -13.015999794006348,-14.817000389099121 -21.73900032043457,-1.3880000114440918z"/></g></g></g><g style="display: block;" transform="matrix(0.8099491000175476,0,0,0.8099491000175476,822.9146728515625,593.7982177734375)" opacity="1"><g opacity="1" transform="matrix(1,0,0,1,0,0)"><g opacity="1" transform="matrix(1,0,0,1,-637.7050170898438,-197.86599731445312)"><path fill="url(#__lottie_element_24813)" fill-opacity="1" d=" M-21.799999237060547,-0.8009999990463257 C-28.39299964904785,9.428999900817871 -25.44300079345703,23.06599998474121 -15.213000297546387,29.659000396728516 C-4.982999801635742,36.25199890136719 8.654999732971191,33.301998138427734 15.246999740600586,23.07200050354004 C21.84000015258789,12.842000007629395 25.315000534057617,-33.17499923706055 25.315000534057617,-33.17499923706055 C25.315000534057617,-33.17499923706055 -15.208000183105469,-11.031000137329102 -21.799999237060547,-0.8009999990463257z"/></g><g opacity="0.7000000000000001" transform="matrix(1,0,0,1,-632.8330078125,-202.47300720214844)"><path fill="url(#__lottie_element_24814)" fill-opacity="1" d=" M-14.057999610900879,2.799999952316284 C-17.492000579833984,8.128999710083008 -15.538999557495117,15.505000114440918 -10.210000038146973,18.93899917602539 C-4.88100004196167,22.37299919128418 2.6410000324249268,21.10700035095215 6.074999809265137,15.777999877929688 C8.989999771118164,11.255000114440918 14.232999801635742,-12.734000205993652 15.753000259399414,-19.893999099731445 C15.904000282287598,-20.606000900268555 15.097999572753906,-21.12700080871582 14.510000228881836,-20.69700050354004 C8.60200023651123,-16.368999481201172 -11.142999649047852,-1.7230000495910645 -14.057999610900879,2.799999952316284z"/></g><g opacity="1" transform="matrix(1,0,0,1,-637.7659912109375,-197.27999877929688)"><path stroke-linecap="round" stroke-linejoin="round" fill-opacity="0" stroke="rgb(30,146,216)" stroke-opacity="1" stroke-width="8" d=" M-21.73900032043457,-1.3880000114440918 C-28.368999481201172,8.817999839782715 -25.381999969482422,22.479000091552734 -15.152000427246094,29.07200050354004 C-4.921999931335449,35.665000915527344 8.678999900817871,32.69200134277344 15.307999610900879,22.486000061035156 C22.992000579833984,10.656000137329102 24.85700035095215,-20.31599998474121 25.268999099731445,-30.479000091552734 C25.329999923706055,-31.9950008392334 23.763999938964844,-33.034000396728516 22.39299964904785,-32.3849983215332 C13.456000328063965,-28.155000686645508 -13.015999794006348,-14.817000389099121 -21.73900032043457,-1.3880000114440918z"/></g></g></g><g style="display: block;" transform="matrix(0.5845276117324829,0,0,0.5845276117324829,41.08441925048828,11.368839263916016)" opacity="1"><g opacity="1" transform="matrix(1,0,0,1,136.84500122070312,375.17498779296875)"><path fill="url(#__lottie_element_24708)" fill-opacity="1" d=" M34.45000076293945,4.775000095367432 C34.45000076293945,4.775000095367432 -34.45000076293945,34.46500015258789 -34.45000076293945,34.46500015258789 C-34.45000076293945,34.46500015258789 -4.789999961853027,-34.46500015258789 -4.789999961853027,-34.46500015258789 C5.739999771118164,-19.084999084472656 19.059999465942383,-5.755000114440918 34.45000076293945,4.775000095367432z"/></g><g opacity="1" transform="matrix(1,0,0,1,136.84500122070312,375.17498779296875)"><path stroke-linecap="round" stroke-linejoin="round" fill-opacity="0" stroke="rgb(229,103,0)" stroke-opacity="1" stroke-width="10" d=" M34.45000076293945,4.775000095367432 C34.45000076293945,4.775000095367432 -34.45000076293945,34.46500015258789 -34.45000076293945,34.46500015258789 C-34.45000076293945,34.46500015258789 -4.789999961853027,-34.46500015258789 -4.789999961853027,-34.46500015258789 C5.739999771118164,-19.084999084472656 19.059999465942383,-5.755000114440918 34.45000076293945,4.775000095367432z"/></g></g><g style="display: block;" transform="matrix(0.5845276117324829,0,0,0.5845276117324829,41.08441925048828,11.368839263916016)" opacity="1"><g opacity="1" transform="matrix(1,0,0,1,256,438.4100036621094)"><path fill="url(#__lottie_element_24704)" fill-opacity="1" d=" M27.725000381469727,-34.849998474121094 C27.725000381469727,-34.849998474121094 0.02500000037252903,34.849998474121094 0.02500000037252903,34.849998474121094 C0.02500000037252903,34.849998474121094 -27.725000381469727,-34.849998474121094 -27.725000381469727,-34.849998474121094 C-18.735000610351562,-33.16999816894531 -9.46500015258789,-32.290000915527344 0.004999999888241291,-32.290000915527344 C9.475000381469727,-32.290000915527344 18.7450008392334,-33.16999816894531 27.725000381469727,-34.849998474121094z"/></g><g opacity="1" transform="matrix(1,0,0,1,256,438.4100036621094)"><path stroke-linecap="round" stroke-linejoin="round" fill-opacity="0" stroke="rgb(229,103,0)" stroke-opacity="1" stroke-width="10" d=" M27.725000381469727,-34.849998474121094 C27.725000381469727,-34.849998474121094 0.02500000037252903,34.849998474121094 0.02500000037252903,34.849998474121094 C0.02500000037252903,34.849998474121094 -27.725000381469727,-34.849998474121094 -27.725000381469727,-34.849998474121094 C-18.735000610351562,-33.16999816894531 -9.46500015258789,-32.290000915527344 0.004999999888241291,-32.290000915527344 C9.475000381469727,-32.290000915527344 18.7450008392334,-33.16999816894531 27.725000381469727,-34.849998474121094z"/></g></g><g style="display: block;" transform="matrix(0.5845276117324829,0,0,0.5845276117324829,41.08441925048828,11.368839263916016)" opacity="1"><g opacity="1" transform="matrix(1,0,0,1,375.17999267578125,375.1650085449219)"><path fill="url(#__lottie_element_24700)" fill-opacity="1" d=" M34.46500015258789,34.44499969482422 C34.46500015258789,34.44499969482422 -34.46500015258789,4.784999847412109 -34.46500015258789,4.784999847412109 C-19.075000762939453,-5.744999885559082 -5.764999866485596,-19.065000534057617 4.764999866485596,-34.44499969482422 C4.764999866485596,-34.44499969482422 34.46500015258789,34.44499969482422 34.46500015258789,34.44499969482422z"/></g><g opacity="1" transform="matrix(1,0,0,1,375.17999267578125,375.1650085449219)"><path stroke-linecap="round" stroke-linejoin="round" fill-opacity="0" stroke="rgb(229,103,0)" stroke-opacity="1" stroke-width="10" d=" M34.46500015258789,34.44499969482422 C34.46500015258789,34.44499969482422 -34.46500015258789,4.784999847412109 -34.46500015258789,4.784999847412109 C-19.075000762939453,-5.744999885559082 -5.764999866485596,-19.065000534057617 4.764999866485596,-34.44499969482422 C4.764999866485596,-34.44499969482422 34.46500015258789,34.44499969482422 34.46500015258789,34.44499969482422z"/></g></g><g style="display: block;" transform="matrix(0.5845276117324829,0,0,0.5845276117324829,41.08441925048828,11.368839263916016)" opacity="1"><g opacity="1" transform="matrix(1,0,0,1,438.4150085449219,256)"><path fill="url(#__lottie_element_24696)" fill-opacity="1" d=" M-34.849998474121094,27.729999542236328 C-33.16999816894531,18.739999771118164 -32.290000915527344,9.470000267028809 -32.290000915527344,0 C-32.290000915527344,-9.470000267028809 -33.16999816894531,-18.739999771118164 -34.849998474121094,-27.729999542236328 C-34.849998474121094,-27.729999542236328 34.849998474121094,-0.019999999552965164 34.849998474121094,-0.019999999552965164 C34.849998474121094,-0.019999999552965164 -34.849998474121094,27.729999542236328 -34.849998474121094,27.729999542236328z"/></g><g opacity="1" transform="matrix(1,0,0,1,438.4150085449219,256)"><path stroke-linecap="round" stroke-linejoin="round" fill-opacity="0" stroke="rgb(234,128,0)" stroke-opacity="1" stroke-width="10" d=" M-34.849998474121094,27.729999542236328 C-33.16999816894531,18.739999771118164 -32.290000915527344,9.470000267028809 -32.290000915527344,0 C-32.290000915527344,-9.470000267028809 -33.16999816894531,-18.739999771118164 -34.849998474121094,-27.729999542236328 C-34.849998474121094,-27.729999542236328 34.849998474121094,-0.019999999552965164 34.849998474121094,-0.019999999552965164 C34.849998474121094,-0.019999999552965164 -34.849998474121094,27.729999542236328 -34.849998474121094,27.729999542236328z"/></g><g opacity="1" transform="matrix(1,0,0,1,438.4150085449219,256)"><path stroke-linecap="round" stroke-linejoin="round" fill-opacity="0" stroke="rgb(229,103,0)" stroke-opacity="1" stroke-width="10" d=" M34.849998474121094,-0.019999999552965164 C34.849998474121094,-0.019999999552965164 -34.849998474121094,27.729999542236328 -34.849998474121094,27.729999542236328 C-33.16999816894531,18.739999771118164 -32.290000915527344,9.470000267028809 -32.290000915527344,0 C-32.290000915527344,-9.470000267028809 -33.16999816894531,-18.739999771118164 -34.849998474121094,-27.729999542236328"/></g></g><g style="display: block;" transform="matrix(0.5845276117324829,0,0,0.5845276117324829,41.08441925048828,11.368839263916016)" opacity="1"><g opacity="1" transform="matrix(1,0,0,1,375.1650085449219,136.82000732421875)"><path fill="url(#__lottie_element_24692)" fill-opacity="1" d=" M34.45000076293945,-34.459999084472656 C34.45000076293945,-34.459999084472656 4.78000020980835,34.459999084472656 4.78000020980835,34.459999084472656 C-5.75,19.079999923706055 -19.059999465942383,5.760000228881836 -34.45000076293945,-4.769999980926514 C-34.45000076293945,-4.769999980926514 34.45000076293945,-34.459999084472656 34.45000076293945,-34.459999084472656z"/></g><g opacity="1" transform="matrix(1,0,0,1,375.1650085449219,136.82000732421875)"><path stroke-linecap="round" stroke-linejoin="round" fill-opacity="0" stroke="rgb(234,128,0)" stroke-opacity="1" stroke-width="10" d=" M34.45000076293945,-34.459999084472656 C34.45000076293945,-34.459999084472656 4.78000020980835,34.459999084472656 4.78000020980835,34.459999084472656 C-5.75,19.079999923706055 -19.059999465942383,5.760000228881836 -34.45000076293945,-4.769999980926514 C-34.45000076293945,-4.769999980926514 34.45000076293945,-34.459999084472656 34.45000076293945,-34.459999084472656z"/></g><g opacity="1" transform="matrix(1,0,0,1,360.3299865722656,151.6649932861328)"><path stroke-linecap="round" stroke-linejoin="round" fill-opacity="0" stroke="rgb(226,91,0)" stroke-opacity="1" stroke-width="10" d=" M19.614999771118164,19.614999771118164 C9.085000038146973,4.235000133514404 -4.224999904632568,-9.085000038146973 -19.614999771118164,-19.614999771118164"/></g></g><g style="display: block;" transform="matrix(0.5845276117324829,0,0,0.5845276117324829,41.08441925048828,11.368839263916016)" opacity="1"><g opacity="1" transform="matrix(1,0,0,1,256,73.58999633789062)"><path fill="url(#__lottie_element_24688)" fill-opacity="1" d=" M27.725000381469727,34.849998474121094 C18.7450008392334,33.16999816894531 9.475000381469727,32.290000915527344 0.004999999888241291,32.290000915527344 C-9.46500015258789,32.290000915527344 -18.735000610351562,33.16999816894531 -27.725000381469727,34.849998474121094 C-27.725000381469727,34.849998474121094 -0.02500000037252903,-34.849998474121094 -0.02500000037252903,-34.849998474121094 C-0.02500000037252903,-34.849998474121094 27.725000381469727,34.849998474121094 27.725000381469727,34.849998474121094z"/></g><g opacity="1" transform="matrix(1,0,0,1,256,73.58999633789062)"><path stroke-linecap="round" stroke-linejoin="round" fill-opacity="0" stroke="rgb(234,128,0)" stroke-opacity="1" stroke-width="10" d=" M27.725000381469727,34.849998474121094 C18.7450008392334,33.16999816894531 9.475000381469727,32.290000915527344 0.004999999888241291,32.290000915527344 C-9.46500015258789,32.290000915527344 -18.735000610351562,33.16999816894531 -27.725000381469727,34.849998474121094 C-27.725000381469727,34.849998474121094 -0.02500000037252903,-34.849998474121094 -0.02500000037252903,-34.849998474121094 C-0.02500000037252903,-34.849998474121094 27.725000381469727,34.849998474121094 27.725000381469727,34.849998474121094z"/></g><g opacity="1" transform="matrix(1,0,0,1,256,107.16000366210938)"><path stroke-linecap="round" stroke-linejoin="round" fill-opacity="0" stroke="rgb(226,91,0)" stroke-opacity="1" stroke-width="10" d=" M27.725000381469727,1.2799999713897705 C18.7450008392334,-0.4000000059604645 9.475000381469727,-1.2799999713897705 0.004999999888241291,-1.2799999713897705 C-9.46500015258789,-1.2799999713897705 -18.735000610351562,-0.4000000059604645 -27.725000381469727,1.2799999713897705"/></g></g><g style="display: block;" transform="matrix(0.5845276117324829,0,0,0.5845276117324829,41.08441925048828,11.368839263916016)" opacity="1"><g opacity="1" transform="matrix(1,0,0,1,136.8249969482422,136.83999633789062)"><path fill="url(#__lottie_element_24684)" fill-opacity="1" d=" M34.470001220703125,-4.789999961853027 C19.079999923706055,5.739999771118164 5.760000228881836,19.06999969482422 -4.769999980926514,34.45000076293945 C-4.769999980926514,34.45000076293945 -34.470001220703125,-34.45000076293945 -34.470001220703125,-34.45000076293945 C-34.470001220703125,-34.45000076293945 34.470001220703125,-4.789999961853027 34.470001220703125,-4.789999961853027z"/></g><g opacity="1" transform="matrix(1,0,0,1,136.8249969482422,136.83999633789062)"><path stroke-linecap="round" stroke-linejoin="round" fill-opacity="0" stroke="rgb(234,128,0)" stroke-opacity="1" stroke-width="10" d=" M34.470001220703125,-4.789999961853027 C19.079999923706055,5.739999771118164 5.760000228881836,19.06999969482422 -4.769999980926514,34.45000076293945 C-4.769999980926514,34.45000076293945 -34.470001220703125,-34.45000076293945 -34.470001220703125,-34.45000076293945 C-34.470001220703125,-34.45000076293945 34.470001220703125,-4.789999961853027 34.470001220703125,-4.789999961853027z"/></g><g opacity="1" transform="matrix(1,0,0,1,151.6750030517578,151.6699981689453)"><path stroke-linecap="round" stroke-linejoin="round" fill-opacity="0" stroke="rgb(226,91,0)" stroke-opacity="1" stroke-width="10" d=" M19.6200008392334,-19.6200008392334 C4.230000019073486,-9.09000015258789 -9.09000015258789,4.239999771118164 -19.6200008392334,19.6200008392334"/></g></g><g style="display: block;" transform="matrix(0.5845276117324829,0,0,0.5845276117324829,41.08441925048828,11.368839263916016)" opacity="1"><g opacity="1" transform="matrix(1,0,0,1,73.58999633789062,256)"><path fill="url(#__lottie_element_24680)" fill-opacity="1" d=" M32.29499816894531,0 C32.29499816894531,9.479999542236328 33.17499923706055,18.75 34.85499954223633,27.739999771118164 C34.85499954223633,27.739999771118164 -34.85499954223633,0.019999999552965164 -34.85499954223633,0.019999999552965164 C-34.85499954223633,0.019999999552965164 34.85499954223633,-27.739999771118164 34.85499954223633,-27.739999771118164 C33.17499923706055,-18.75 32.29499816894531,-9.479999542236328 32.29499816894531,0z"/></g><g opacity="1" transform="matrix(1,0,0,1,73.58999633789062,256)"><path stroke-linecap="round" stroke-linejoin="round" fill-opacity="0" stroke="rgb(234,128,0)" stroke-opacity="1" stroke-width="10" d=" M32.29499816894531,0 C32.29499816894531,9.479999542236328 33.17499923706055,18.75 34.85499954223633,27.739999771118164 C34.85499954223633,27.739999771118164 -34.85499954223633,0.019999999552965164 -34.85499954223633,0.019999999552965164 C-34.85499954223633,0.019999999552965164 34.85499954223633,-27.739999771118164 34.85499954223633,-27.739999771118164 C33.17499923706055,-18.75 32.29499816894531,-9.479999542236328 32.29499816894531,0z"/></g><g opacity="1" transform="matrix(1,0,0,1,73.58999633789062,256)"><path stroke-linecap="round" stroke-linejoin="round" fill-opacity="0" stroke="rgb(229,103,0)" stroke-opacity="1" stroke-width="10" d=" M34.85499954223633,-27.739999771118164 C33.17499923706055,-18.75 32.29499816894531,-9.479999542236328 32.29499816894531,0 C32.29499816894531,9.479999542236328 33.17499923706055,18.75 34.85499954223633,27.739999771118164 C34.85499954223633,27.739999771118164 -34.85499954223633,0.019999999552965164 -34.85499954223633,0.019999999552965164"/></g></g><g style="display: block;" transform="matrix(0.5845276117324829,0,0,0.5845276117324829,41.084999084472656,11.368839263916016)" opacity="1"><g opacity="1" transform="matrix(1,0,0,1,256.00201416015625,256)"><path fill="url(#__lottie_element_24674)" fill-opacity="1" d=" M128.6739959716797,0 C128.6739959716797,71.06400299072266 71.06500244140625,128.6739959716797 0,128.6739959716797 C-71.06400299072266,128.6739959716797 -128.6739959716797,71.06400299072266 -128.6739959716797,0 C-128.6739959716797,-71.06400299072266 -71.06400299072266,-128.6739959716797 0,-128.6739959716797 C71.06500244140625,-128.6739959716797 128.6739959716797,-71.06400299072266 128.6739959716797,0z"/></g><g opacity="1" transform="matrix(1,0,0,1,256.00201416015625,256)"><path stroke-linecap="round" stroke-linejoin="round" fill-opacity="0" stroke="rgb(229,103,0)" stroke-opacity="1" stroke-width="10" d=" M128.6739959716797,0 C128.6739959716797,71.06400299072266 71.06500244140625,128.6739959716797 0,128.6739959716797 C-71.06400299072266,128.6739959716797 -128.6739959716797,71.06400299072266 -128.6739959716797,0 C-128.6739959716797,-71.06400299072266 -71.06400299072266,-128.6739959716797 0,-128.6739959716797 C71.06500244140625,-128.6739959716797 128.6739959716797,-71.06400299072266 128.6739959716797,0z"/></g><g opacity="1" transform="matrix(1,0,0,1,256.00201416015625,191.66299438476562)"><path stroke-linecap="round" stroke-linejoin="round" fill-opacity="0" stroke="rgb(234,128,0)" stroke-opacity="1" stroke-width="10" d=" M-128.6739959716797,64.33699798583984 C-128.6739959716797,-6.7270002365112305 -71.06400299072266,-64.33699798583984 0,-64.33699798583984 C71.06500244140625,-64.33699798583984 128.6739959716797,-6.7270002365112305 128.6739959716797,64.33699798583984"/></g><g opacity="1" transform="matrix(1,0,0,1,256.00201416015625,256)"><path fill="url(#__lottie_element_24675)" fill-opacity="1" d=" M111.33899688720703,0 C111.33899688720703,61.49100112915039 61.49100112915039,111.33899688720703 0,111.33899688720703 C-61.49100112915039,111.33899688720703 -111.33899688720703,61.49100112915039 -111.33899688720703,0 C-111.33899688720703,-61.49100112915039 -61.49100112915039,-111.33899688720703 0,-111.33899688720703 C61.49100112915039,-111.33899688720703 111.33899688720703,-61.49100112915039 111.33899688720703,0z"/></g></g><g style="display: block;" transform="matrix(0.6829261183738708,0,0,0.6829261183738708,101.7779541015625,105.811279296875)" opacity="1"><g opacity="1" transform="matrix(1,0,0,1,253.03700256347656,187.72799682617188)"><path fill="url(#__lottie_element_24659)" fill-opacity="1" d=" M109.88899993896484,-48.659000396728516 C160.06300354003906,-48.659000396728516 208.22799682617188,-12.3149995803833 213.6199951171875,37.03099822998047 C219.76600646972656,93.2750015258789 173.81900024414062,142.44500732421875 119.06800079345703,142.44500732421875 C64.31700134277344,142.44500732421875 -93.49400329589844,142.44500732421875 -117.1510009765625,142.44500732421875 C-150.30099487304688,142.44500732421875 -206.718994140625,119.41000366210938 -213.5050048828125,58.15700149536133 C-220.53799438476562,-5.330999851226807 -170.3159942626953,-34.939998626708984 -142.86099243164062,-38.01499938964844 C-142.86099243164062,-38.01499938964844 -144.49899291992188,-74.39199829101562 -113.0770034790039,-93.64199829101562 C-85.53600311279297,-110.51399993896484 -55.696998596191406,-101.08799743652344 -55.696998596191406,-101.08799743652344 C-55.696998596191406,-101.08799743652344 -25.142000198364258,-146.10299682617188 39.58100128173828,-142.20599365234375 C95.37999725341797,-138.8459930419922 134.375,-89.88800048828125 134.97500610351562,-45.731998443603516 C134.97500610351562,-45.731998443603516 109.88899993896484,-48.659000396728516 109.88899993896484,-48.659000396728516z"/></g><g opacity="1" transform="matrix(1,0,0,1,253.03799438476562,234.4550018310547)"><path fill="url(#__lottie_element_24660)" fill-opacity="1" d=" M119.06199645996094,95.71299743652344 C119.06199645996094,95.71299743652344 -117.14700317382812,95.71299743652344 -117.14700317382812,95.71299743652344 C-150.2969970703125,95.71299743652344 -206.7169952392578,72.68299865722656 -213.5070037841797,11.432999610900879 C-220.53700256347656,-52.05699920654297 -170.31700134277344,-81.66699981689453 -142.85699462890625,-84.74700164794922 C-142.85699462890625,-84.74700164794922 -142.8769989013672,-85.14700317382812 -142.86700439453125,-85.88700103759766 C-142.86700439453125,-85.88700103759766 -140.52699279785156,-85.63700103759766 -140.52699279785156,-85.63700103759766 C-140.52699279785156,-85.63700103759766 -83.15699768066406,-94.927001953125 -39.89699935913086,-56.49700164794922 C-39.89699935913086,-56.49700164794922 -10.79699993133545,-77.10700225830078 26.982999801635742,-56.46699905395508 C26.982999801635742,-56.46699905395508 71.6719970703125,-107.21700286865234 130.82200622558594,-93.2969970703125 C130.89199829101562,-93.28700256347656 130.95199584960938,-93.2770004272461 131.02200317382812,-93.25700378417969 C131.02200317382812,-93.25700378417969 134.91299438476562,-94.47699737548828 134.91299438476562,-94.47699737548828 C134.9429931640625,-93.80699920654297 134.96299743652344,-93.12699890136719 134.97300720214844,-92.45700073242188 C134.97300720214844,-92.45700073242188 134.31199645996094,-92.53700256347656 134.31199645996094,-92.53700256347656 C174.7519989013672,-83.06700134277344 209.11300659179688,-50.91600036621094 213.6230010986328,-9.696000099182129 C219.76300048828125,46.55400085449219 173.82200622558594,95.71299743652344 119.06199645996094,95.71299743652344z"/></g><g opacity="0.7000000000000001" transform="matrix(1,0,0,1,253.03799438476562,187.7239990234375)"><path fill="url(#__lottie_element_24661)" fill-opacity="1" d=" M119.06199645996094,142.44400024414062 C119.06199645996094,142.44400024414062 -117.14700317382812,142.44400024414062 -117.14700317382812,142.44400024414062 C-150.2969970703125,142.44400024414062 -206.7169952392578,119.41400146484375 -213.5070037841797,58.16400146484375 C-220.53700256347656,-5.326000213623047 -170.31700134277344,-34.93600082397461 -142.85699462890625,-38.01599884033203 C-142.85699462890625,-38.01599884033203 -144.4969940185547,-74.38600158691406 -113.0770034790039,-93.63600158691406 C-85.53700256347656,-110.50599670410156 -55.698001861572266,-101.08599853515625 -55.698001861572266,-101.08599853515625 C-55.698001861572266,-101.08599853515625 -25.148000717163086,-146.0959930419922 39.582000732421875,-142.20599365234375 C95.38200378417969,-138.8459930419922 134.3730010986328,-89.88600158691406 134.97300720214844,-45.72600173950195 C134.97300720214844,-45.72600173950195 124.22200012207031,-48.79600143432617 119.08200073242188,-49.24599838256836 C115.802001953125,-83.84600067138672 85.21199798583984,-124.58100128173828 38.00199890136719,-127.01599884033203 C-14.913000106811523,-129.7449951171875 -40.54100036621094,-92.32599639892578 -40.54100036621094,-92.32599639892578 C-40.54100036621094,-92.32599639892578 -74.55899810791016,-100.45999908447266 -99.98799896240234,-85.51599884033203 C-127.48500061035156,-69.35700225830078 -124.3270034790039,-37.2760009765625 -124.3270034790039,-37.2760009765625 C-151.4770050048828,-34.20899963378906 -198.01800537109375,-7.696000099182129 -191.79800415039062,43.933998107910156 C-185.79800415039062,93.74400329589844 -132.90699768066406,112.48400115966797 -103.59700012207031,112.48400115966797 C-103.59700012207031,112.48400115966797 105.29199981689453,112.48400115966797 105.29199981689453,112.48400115966797 C153.70199584960938,112.48400115966797 197.33299255371094,72.49400329589844 191.9029998779297,26.753999710083008 C187.91299438476562,-6.776000022888184 152.0989990234375,-37.500999450683594 116.31900024414062,-45.191001892089844 C116.31900024414062,-45.191001892089844 116.31900024414062,-45.191001892089844 116.31900024414062,-45.191001892089844 C116.29900360107422,-46.520999908447266 116.26300048828125,-47.22600173950195 116.14299774169922,-48.57600021362305 C116.14299774169922,-48.57600021362305 134.31199645996094,-45.805999755859375 134.31199645996094,-45.805999755859375 C174.7519989013672,-36.33599853515625 209.11300659179688,-4.185999870300293 213.6230010986328,37.034000396728516 C219.76300048828125,93.28399658203125 173.82200622558594,142.44400024414062 119.06199645996094,142.44400024414062z"/></g><g opacity="1" transform="matrix(1,0,0,1,253.03799438476562,234.4550018310547)"><path fill="url(#__lottie_element_24662)" mask="url(#__lottie_element_24664)" fill-opacity="1" d="M0 0 M119.06199645996094,95.71299743652344 C119.06199645996094,95.71299743652344 -117.14700317382812,95.71299743652344 -117.14700317382812,95.71299743652344 C-150.2969970703125,95.71299743652344 -206.7169952392578,72.68299865722656 -213.5070037841797,11.432999610900879 C-220.53700256347656,-52.05699920654297 -170.31700134277344,-81.66699981689453 -142.85699462890625,-84.74700164794922 C-142.85699462890625,-84.74700164794922 -142.8769989013672,-85.14700317382812 -142.86700439453125,-85.88700103759766 C-142.86700439453125,-85.88700103759766 -140.52699279785156,-85.63700103759766 -140.52699279785156,-85.63700103759766 C-140.52699279785156,-85.63700103759766 -83.15699768066406,-94.927001953125 -39.89699935913086,-56.49700164794922 C-39.89699935913086,-56.49700164794922 -10.79699993133545,-77.10700225830078 26.982999801635742,-56.46699905395508 C26.982999801635742,-56.46699905395508 71.6719970703125,-107.21700286865234 130.82200622558594,-93.2969970703125 C130.89199829101562,-93.28700256347656 130.95199584960938,-93.2770004272461 131.02200317382812,-93.25700378417969 C131.02200317382812,-93.25700378417969 134.91299438476562,-94.47699737548828 134.91299438476562,-94.47699737548828 C134.9429931640625,-93.80699920654297 134.96299743652344,-93.12699890136719 134.97300720214844,-92.45700073242188 C134.97300720214844,-92.45700073242188 134.31199645996094,-92.53700256347656 134.31199645996094,-92.53700256347656 C174.7519989013672,-83.06700134277344 209.11300659179688,-50.91600036621094 213.6230010986328,-9.696000099182129 C219.76300048828125,46.55400085449219 173.82200622558594,95.71299743652344 119.06199645996094,95.71299743652344z"/></g><g opacity="1" transform="matrix(1,0,0,1,293.9620056152344,163.6020050048828)"><path stroke-linecap="round" stroke-linejoin="round" fill-opacity="0" stroke="rgb(202,212,216)" stroke-opacity="1" stroke-width="10" d=" M-94.03700256347656,24.533000946044922 C-94.03700256347656,24.533000946044922 -63.06700134277344,-10.175999641418457 -13.9399995803833,14.38700008392334 C-13.9399995803833,14.38700008392334 18.790000915527344,-24.533000946044922 68.96399688720703,-24.533000946044922 C77.44499969482422,-24.533000946044922 85.86799621582031,-23.4950008392334 94.03700256347656,-21.5310001373291"/></g><g opacity="1" transform="matrix(1,0,0,1,209.28199768066406,92.28399658203125)"><path stroke-linecap="round" stroke-linejoin="round" fill-opacity="0" stroke="rgb(202,212,216)" stroke-opacity="1" stroke-width="10" d=" M-11.942000389099121,-5.644000053405762 C1.2549999952316284,-1.9919999837875366 11.942000389099121,5.644000053405762 11.942000389099121,5.644000053405762"/></g><g opacity="1" transform="matrix(1,0,0,1,125.89399719238281,149.26400756835938)"><path stroke-linecap="round" stroke-linejoin="round" fill-opacity="0" stroke="rgb(202,212,216)" stroke-opacity="1" stroke-width="10" d=" M-15.718000411987305,0.4490000009536743 C-0.7639999985694885,-1.5709999799728394 15.718000411987305,0.4490000009536743 15.718000411987305,0.4490000009536743"/></g><g opacity="1" transform="matrix(1,0,0,1,253.03700256347656,187.72799682617188)"><path stroke-linecap="round" stroke-linejoin="round" fill-opacity="0" stroke="rgb(161,175,181)" stroke-opacity="1" stroke-width="10" d=" M134.97000122070312,-45.654998779296875 C175.1280059814453,-35.99700164794922 209.13999938964844,-3.9709999561309814 213.6199951171875,37.03099822998047 C219.76600646972656,93.2750015258789 173.81900024414062,142.44500732421875 119.06800079345703,142.44500732421875 C64.31700134277344,142.44500732421875 -93.49400329589844,142.44500732421875 -117.1510009765625,142.44500732421875 C-150.30099487304688,142.44500732421875 -206.718994140625,119.41000366210938 -213.5050048828125,58.15700149536133 C-220.53799438476562,-5.330999851226807 -170.3159942626953,-34.939998626708984 -142.86099243164062,-38.01499938964844 C-142.86099243164062,-38.01499938964844 -144.49899291992188,-74.39199829101562 -113.0770034790039,-93.64199829101562 C-85.53600311279297,-110.51399993896484 -55.696998596191406,-101.08799743652344 -55.696998596191406,-101.08799743652344 C-55.696998596191406,-101.08799743652344 -25.142000198364258,-146.10299682617188 39.58100128173828,-142.20599365234375 C95.37999725341797,-138.8459930419922 134.375,-89.88800048828125 134.97500610351562,-45.731998443603516"/></g></g><g style="display: block;" transform="matrix(1.0000019073486328,0,0,1.0000019073486328,256.0004577636719,255.99974060058594)" opacity="0.55"><g opacity="1" transform="matrix(1,0,0,1,0,0)"><path stroke-linecap="round" stroke-linejoin="miter" fill-opacity="0" stroke-miterlimit="4" stroke="rgb(127,132,135)" stroke-opacity="1" stroke-width="7" d=" M-97.45500183105469,65.3759994506836 C-83,74.25 -67.4990005493164,75.11299896240234 -67.4990005493164,75.11299896240234 C-67.4990005493164,75.11299896240234 107.5,75.77200317382812 107.5,75.77200317382812 C107.5,75.77200317382812 128.01699829101562,72.86900329589844 136.322998046875,63.369998931884766"/></g></g><g style="display: block;" transform="matrix(0.6692675948143005,0,0,0.6692675948143005,104.34574127197266,109.85352325439453)" opacity="0.66"><g opacity="1" transform="matrix(1,0,0,1,0,0)"><path fill="url(#__lottie_element_24667)" fill-opacity="1" d=" M388.0069885253906,142.072998046875 C428.1650085449219,151.7310028076172 462.177001953125,183.7570037841797 466.6570129394531,224.75900268554688 C472.8030090332031,281.00299072265625 426.8559875488281,330.1730041503906 372.1050109863281,330.1730041503906 C317.35400390625,330.1730041503906 159.54299926757812,330.1730041503906 135.88600158691406,330.1730041503906 C102.73600006103516,330.1730041503906 46.31800079345703,307.13800048828125 39.53200149536133,245.88499450683594 C32.499000549316406,182.39700317382812 82.72100067138672,152.78799438476562 110.1760025024414,149.71299743652344 C110.1760025024414,149.71299743652344 108.53800201416016,113.33599853515625 139.9600067138672,94.08599853515625 C167.50100708007812,77.21399688720703 197.33900451660156,86.63999938964844 197.33900451660156,86.63999938964844 C197.33900451660156,86.63999938964844 227.89500427246094,41.625 292.6180114746094,45.52199935913086 C348.4169921875,48.88199996948242 387.4119873046875,97.83999633789062 388.0119934082031,141.99600219726562"/></g></g></g></svg>